<?xml version="1.0" encoding="UTF-8"?>
<svg width="288px" height="288px" viewBox="0 0 288 288" version="1.1" xmlns="http://www.w3.org/2000/svg" xmlns:xlink="http://www.w3.org/1999/xlink">
    <!-- Generator: Sketch 51.3 (57544) - http://www.bohemiancoding.com/sketch -->
    <title>Group 43</title>
    <desc>Created with Sketch.</desc>
    <defs></defs>
    <g id="Desktop" stroke="none" stroke-width="1" fill="none" fill-rule="evenodd">
        <g id="Icons-Copy-4" transform="translate(-673.000000, -16374.000000)">
            <g id="Group-43" transform="translate(673.000000, 16374.000000)">
                <g id="Group-74" fill="#FFFFFF">
                    <polygon id="Background" points="0 0 288 0 288 288 0 288"></polygon>
                </g>
                <g id="Group-49" transform="translate(50.000000, 112.000000)" fill="#000000" fill-rule="nonzero">
                    <g id="Group" transform="translate(115.666667, 0.000000)">
                        <polygon id="Rectangle-path" points="0.555555556 59.707887 22.7777778 59.707887 22.7777778 64.1758242 0.555555556 64.1758242"></polygon>
                        <polygon id="Rectangle-path" points="0.555555556 51.1781889 22.7777778 51.1781889 22.7777778 55.646126 0.555555556 55.646126"></polygon>
                        <polygon id="Rectangle-path" points="9.44444444 42.6484907 22.7777778 42.6484907 22.7777778 47.1164279 9.44444444 47.1164279"></polygon>
                        <polygon id="Rectangle-path" points="9.44444444 34.1187926 22.7777778 34.1187926 22.7777778 38.5867297 9.44444444 38.5867297"></polygon>
                        <polygon id="Shape" points="28.959596 8.52969815 0.555555556 8.52969815 0.555555556 12.9976353 30.4949495 12.9976353"></polygon>
                        <polygon id="Shape" points="26.010101 0 0.555555556 0 0.555555556 4.46793713 27.5454545 4.46793713"></polygon>
                        <polygon id="Rectangle-path" points="49.4444444 59.707887 71.6666667 59.707887 71.6666667 64.1758242 49.4444444 64.1758242"></polygon>
                        <polygon id="Rectangle-path" points="49.4444444 51.1781889 71.6666667 51.1781889 71.6666667 55.646126 49.4444444 55.646126"></polygon>
                        <polygon id="Rectangle-path" points="49.4444444 42.6484907 62.7777778 42.6484907 62.7777778 47.1164279 49.4444444 47.1164279"></polygon>
                        <polygon id="Rectangle-path" points="49.4444444 34.1187926 62.7777778 34.1187926 62.7777778 38.5867297 49.4444444 38.5867297"></polygon>
                        <polygon id="Shape" points="49.4444444 30.0570316 62.7777778 30.0570316 62.7777778 25.5890944 49.4444444 25.5890944 49.4444444 25.5890944 37.3636364 25.5890944 36.1111111 29.2040618 34.8585859 25.5890944 22.7777778 25.5890944 22.7777778 25.5890944 9.44444444 25.5890944 9.44444444 30.0570316 22.7777778 30.0570316 22.7777778 25.9546529 24.1919192 30.0570316 48.030303 30.0570316 49.4444444 25.9546529"></polygon>
                        <polygon id="Shape" points="62.7777778 17.0593963 40.3131313 17.0593963 38.7777778 21.5273334 62.7777778 21.5273334"></polygon>
                        <polygon id="Shape" points="46.2121212 0 44.6767677 4.46793713 71.6666667 4.46793713 71.6666667 0"></polygon>
                        <polygon id="Shape" points="36.1111111 64.1352066 37.6464646 59.707887 34.5757576 59.707887"></polygon>
                        <polygon id="Shape" points="33.1616162 55.646126 39.0606061 55.646126 40.6363636 51.1781889 31.5858586 51.1781889"></polygon>
                        <polygon id="Shape" points="30.1717172 47.1164279 42.0505051 47.1164279 43.6262626 42.6484907 28.5959596 42.6484907"></polygon>
                        <polygon id="Shape" points="27.1818182 38.5867297 45.040404 38.5867297 46.5757576 34.1187926 25.6464646 34.1187926"></polygon>
                        <polygon id="Shape" points="9.44444444 21.5273334 33.4444444 21.5273334 31.9090909 17.0593963 9.44444444 17.0593963"></polygon>
                        <polygon id="Shape" points="41.7272727 12.9976353 71.6666667 12.9976353 71.6666667 8.52969815 43.2626263 8.52969815"></polygon>
                    </g>
                    <g id="Group-12">
                        <polygon id="Rectangle-path" points="0 59.707887 31.1111111 59.707887 31.1111111 64.1758242 0 64.1758242"></polygon>
                        <polygon id="Rectangle-path" points="0 51.1781889 31.1111111 51.1781889 31.1111111 55.646126 0 55.646126"></polygon>
                        <polygon id="Rectangle-path" points="8.88888889 42.6484907 22.2222222 42.6484907 22.2222222 47.1164279 8.88888889 47.1164279"></polygon>
                        <polygon id="Rectangle-path" points="8.88888889 34.1187926 22.2222222 34.1187926 22.2222222 38.5867297 8.88888889 38.5867297"></polygon>
                        <polygon id="Rectangle-path" points="8.88888889 25.5890944 22.2222222 25.5890944 22.2222222 30.0570316 8.88888889 30.0570316"></polygon>
                        <polygon id="Rectangle-path" points="8.88888889 17.0593963 22.2222222 17.0593963 22.2222222 21.5273334 8.88888889 21.5273334"></polygon>
                        <rect id="Rectangle-path" x="0" y="8.52969815" width="31.1111111" height="4.46793713"></rect>
                        <rect id="Rectangle-path" x="0" y="0" width="31.1111111" height="4.46793713"></rect>
                    </g>
                    <g id="Group-20" transform="translate(48.666667, 0.000000)">
                        <path d="M0.555555556,55.646126 L48.3939394,55.646126 C49.2020202,54.2651273 49.8080808,52.7622757 50.1717172,51.1781889 L0.555555556,51.1781889 L0.555555556,55.646126 Z" id="Shape"></path>
                        <path d="M44.6767677,34.1187926 L9.44444444,34.1187926 L9.44444444,38.5867297 L48.3939394,38.5867297 C47.3838384,36.8807901 46.1313131,35.3779385 44.6767677,34.1187926 Z" id="Shape"></path>
                        <path d="M9.44444444,25.5890944 L9.44444444,30.0570316 L44.6767677,30.0570316 C46.1717172,28.7978857 47.4242424,27.2950341 48.3939394,25.5890944 L9.44444444,25.5890944 Z" id="Shape"></path>
                        <path d="M48.3939394,8.52969815 L0.555555556,8.52969815 L0.555555556,12.9976353 L50.1717172,12.9976353 C49.7676768,11.4135485 49.1616162,9.9106969 48.3939394,8.52969815 Z" id="Shape"></path>
                        <path d="M33.6868687,0 L0.555555556,0 L0.555555556,4.46793713 L45.1212121,4.46793713 C42.1313131,1.70593963 38.0909091,0 33.6868687,0 Z" id="Shape"></path>
                        <polygon id="Rectangle-path" points="9.44444444 17.0593963 22.7777778 17.0593963 22.7777778 21.5273334 9.44444444 21.5273334"></polygon>
                        <path d="M36.1111111,21.5273334 L50.0505051,21.5273334 C50.4545455,20.1057171 50.6565657,18.6028655 50.6565657,17.0593963 L36.1111111,17.0593963 L36.1111111,21.5273334 Z" id="Shape"></path>
                        <polygon id="Rectangle-path" points="9.44444444 42.6484907 22.7777778 42.6484907 22.7777778 47.1164279 9.44444444 47.1164279"></polygon>
                        <path d="M36.1111111,42.6484907 L36.1111111,47.1164279 L50.6565657,47.1164279 C50.6565657,45.5729587 50.4545455,44.0701071 50.0505051,42.6484907 L36.1111111,42.6484907 Z" id="Shape"></path>
                        <path d="M0.555555556,64.1352066 L33.6868687,64.1758242 C38.1313131,64.1758242 42.1313131,62.4698845 45.1212121,59.707887 L0.555555556,59.707887 L0.555555556,64.1352066 Z" id="Shape"></path>
                    </g>
                </g>
            </g>
        </g>
    </g>
</svg>