<svg id="e41094d2-ec9c-41e2-8e31-ab44e87ab648" data-name="Layer 1" xmlns="http://www.w3.org/2000/svg" xmlns:xlink="http://www.w3.org/1999/xlink" viewBox="0 0 288 288">
  <defs>
    <linearGradient id="b18a286d-2cfe-4edd-a744-cbce4f96dd92" x1="2902.945" y1="1644.825" x2="2917.167" y2="1644.825" gradientTransform="matrix(0, -1, -1, 0, 1847.49, 3066.5)" gradientUnits="userSpaceOnUse">
      <stop offset="0" stop-opacity="0"/>
      <stop offset="0.87"/>
    </linearGradient>
    <linearGradient id="a6e7ad96-5f05-4807-aa43-56047fc39fb2" x1="188.888" y1="149.778" x2="203.998" y2="134.667" gradientUnits="userSpaceOnUse">
      <stop offset="0.4"/>
      <stop offset="0.85" stop-opacity="0"/>
    </linearGradient>
    <linearGradient id="a38a8166-be07-45d2-8297-7a60397543e2" x1="94.224" y1="140.445" x2="94.224" y2="119.112" gradientUnits="userSpaceOnUse">
      <stop offset="0" stop-color="#fff" stop-opacity="0"/>
      <stop offset="0.5" stop-color="#fff"/>
    </linearGradient>
    <mask id="b4090b2b-1d10-49a2-ad9f-f034ff205e94" x="165.333" y="115.556" width="56.887" height="56.887" maskUnits="userSpaceOnUse">
      <g>
        <path d="M213.332,136.889H201.919l-7.481,13.092-3.087-1.764,8.5-14.883h13.476a5.339,5.339,0,0,1,5.333,5.333v10.666a3.56,3.56,0,0,1-3.556,3.556v12.444a3.559,3.559,0,0,1-3.555,3.555h-7.111a3.56,3.56,0,0,1-3.556-3.555V151.111h3.556v14.222h7.111v-16h3.555V138.667A1.78,1.78,0,0,0,213.332,136.889Z" fill="#fff"/>
        <path d="M200.887,124.445A7.111,7.111,0,1,1,208,131.556,7.119,7.119,0,0,1,200.887,124.445Zm3.556,0A3.556,3.556,0,1,0,208,120.89,3.559,3.559,0,0,0,204.443,124.445Z" fill="#fff"/>
        <rect x="199.11" y="149.333" width="7.111" height="14.222" fill="url(#b18a286d-2cfe-4edd-a744-cbce4f96dd92)"/>
        <rect x="190.221" y="133.334" width="12.444" height="17.777" fill="url(#a6e7ad96-5f05-4807-aa43-56047fc39fb2)"/>
      </g>
    </mask>
    <linearGradient id="bc19eec8-e5ae-48ea-87cc-a22a86350c87" x1="165.333" y1="172.444" x2="222.22" y2="115.556" gradientUnits="userSpaceOnUse">
      <stop offset="0.1" stop-color="#3ddbd9"/>
      <stop offset="0.9" stop-color="#4589ff"/>
    </linearGradient>
    <mask id="a106f331-1bbd-4e5e-b0e3-00f5f260d2ae" x="65.78" y="115.556" width="56.887" height="56.887" maskUnits="userSpaceOnUse">
      <g>
        <path d="M115.557,145.778V144a21.35,21.35,0,0,0-16-20.63v3.673A17.8,17.8,0,0,1,112,144v1.778H76.447V144a17.8,17.8,0,0,1,12.444-16.957V123.37a21.35,21.35,0,0,0-16,20.63v1.778H69.336v3.555h49.776v-3.555Z" fill="#fff"/>
        <path d="M101.335,140.445H97.779V122.667H90.668v17.778H87.113V122.667a3.559,3.559,0,0,1,3.555-3.555h7.111a3.559,3.559,0,0,1,3.556,3.555Z" fill="url(#a38a8166-be07-45d2-8297-7a60397543e2)"/>
      </g>
    </mask>
    <linearGradient id="bf3d19e0-27e0-421a-90a5-184b501aaffe" x1="65.78" y1="172.444" x2="122.667" y2="115.556" gradientUnits="userSpaceOnUse">
      <stop offset="0.1" stop-color="#be95ff"/>
      <stop offset="0.9" stop-color="#4589ff"/>
    </linearGradient>
  </defs>
  <path d="M0,0H288V288H0Z" fill="#fff" fill-rule="evenodd"/>
  <rect x="44.447" y="94.224" width="99.553" height="99.553" fill="#c9deff"/>
  <rect x="144" y="94.224" width="99.553" height="99.553" fill="#f4f4f4"/>
  <path id="a3a412a0-fdd6-4136-92fd-cd322c1f9d1b" data-name="Rectangle" d="M158.216,108.439h71.121v71.122H158.216Z"/>
  <path d="M44.955,204.026v1.75h-.508v-4h.508v1.75H58.182v-1.75h.508v4h-.508v-1.75Z" fill="#97c1ff"/>
  <g>
    <path d="M45.5,221.72v-.888h2.34v-6.744h-.084l-2.112,1.968-.588-.636,2.22-2.076h1.572v7.488h2.16v.888Z" fill="#6f6f6f"/>
    <path d="M51.755,223.532l3.132-10.692h.864l-3.132,10.692Z" fill="#6f6f6f"/>
    <path d="M60.743,221.72v-1.644H56.7v-.888l3.5-5.844h1.5v5.892h1.212v.84H61.7v1.644Zm-3.1-2.484h3.1v-5.112h-.06Z" fill="#6f6f6f"/>
    <path d="M72.515,222.411a1.52,1.52,0,0,1-.75,1.405,4.475,4.475,0,0,1-2.25.448,4.135,4.135,0,0,1-2.088-.4,1.255,1.255,0,0,1-.636-1.127,1.1,1.1,0,0,1,.264-.785,1.552,1.552,0,0,1,.72-.414v-.131a.891.891,0,0,1-.552-.861.867.867,0,0,1,.3-.711,1.975,1.975,0,0,1,.768-.364v-.048a2,2,0,0,1-.858-.758,2.125,2.125,0,0,1-.306-1.144,2.2,2.2,0,0,1,.168-.866,1.948,1.948,0,0,1,.474-.68,2.166,2.166,0,0,1,.732-.439,2.99,2.99,0,0,1,2.13.083v-.108a1.014,1.014,0,0,1,.168-.6.628.628,0,0,1,.552-.239h.924v.852H71.1v.4a2.027,2.027,0,0,1,.522.692,2.147,2.147,0,0,1,.186.909,2.2,2.2,0,0,1-.168.867,1.957,1.957,0,0,1-.474.68,2.155,2.155,0,0,1-.738.439,2.81,2.81,0,0,1-.96.156,3.053,3.053,0,0,1-.6-.06,1.994,1.994,0,0,0-.564.246.508.508,0,0,0-.252.45.366.366,0,0,0,.264.372,2.037,2.037,0,0,0,.684.1h1.32a2.6,2.6,0,0,1,1.674.436A1.485,1.485,0,0,1,72.515,222.411Zm-.9.065a.717.717,0,0,0-.282-.594,1.675,1.675,0,0,0-1-.222H68.267a.877.877,0,0,0-.576.84.921.921,0,0,0,.306.7,1.5,1.5,0,0,0,1.038.288h.888a2.551,2.551,0,0,0,1.248-.252A.817.817,0,0,0,71.615,222.476ZM69.467,218.9a1.486,1.486,0,0,0,.972-.3,1.109,1.109,0,0,0,.36-.91v-.338a1.108,1.108,0,0,0-.36-.909,1.744,1.744,0,0,0-1.944,0,1.108,1.108,0,0,0-.36.909v.338a1.109,1.109,0,0,0,.36.91A1.486,1.486,0,0,0,69.467,218.9Z" fill="#6f6f6f"/>
    <path d="M73.631,221.72v-6.192h.96v1.14h.06a1.876,1.876,0,0,1,.6-.792,1.843,1.843,0,0,1,1.188-.348h.372v.96h-.564a2.168,2.168,0,0,0-1.218.294.868.868,0,0,0-.438.738v4.2Z" fill="#6f6f6f"/>
    <path d="M78.515,214.076a.591.591,0,0,1-.451-.15.557.557,0,0,1-.137-.39v-.156a.557.557,0,0,1,.137-.39.752.752,0,0,1,.9,0,.553.553,0,0,1,.138.39v.156a.553.553,0,0,1-.138.39A.587.587,0,0,1,78.515,214.076Zm-.48,1.452H79v6.192h-.96Z" fill="#6f6f6f"/>
    <path d="M85,220.724h-.048a1.891,1.891,0,0,1-1.812,1.14,2.349,2.349,0,0,1-1.044-.228,2.269,2.269,0,0,1-.8-.648,2.969,2.969,0,0,1-.5-1.02,5.278,5.278,0,0,1,0-2.688,2.978,2.978,0,0,1,.5-1.02,2.28,2.28,0,0,1,.8-.648,2.349,2.349,0,0,1,1.044-.228,2.111,2.111,0,0,1,1.11.28,1.74,1.74,0,0,1,.7.861H85V212.84h.96v8.88H85Zm-1.6.288a2.246,2.246,0,0,0,.619-.084,1.562,1.562,0,0,0,.51-.247,1.232,1.232,0,0,0,.342-.4,1.12,1.12,0,0,0,.126-.537V217.43a.952.952,0,0,0-.126-.476,1.2,1.2,0,0,0-.342-.38,1.716,1.716,0,0,0-.51-.247,2.107,2.107,0,0,0-.619-.091,1.649,1.649,0,0,0-1.283.513,1.916,1.916,0,0,0-.469,1.345v1.061a1.918,1.918,0,0,0,.469,1.345A1.652,1.652,0,0,0,83.4,221.012Z" fill="#6f6f6f"/>
    <path d="M90.179,215.528h.936l.659,2.676.661,2.712h.023l.757-2.712.78-2.676h.852l.8,2.676.767,2.712h.025l.636-2.712.671-2.676h.9l-1.644,6.192H95.819l-.864-2.976-.54-1.884h-.024l-.528,1.884L93,221.72H91.834Z" fill="#6f6f6f"/>
    <path d="M100.522,214.076a.588.588,0,0,1-.45-.15.553.553,0,0,1-.137-.39v-.156a.553.553,0,0,1,.137-.39.752.752,0,0,1,.9,0,.557.557,0,0,1,.137.39v.156a.557.557,0,0,1-.137.39A.591.591,0,0,1,100.522,214.076Zm-.48,1.452H101v6.192h-.96Z" fill="#6f6f6f"/>
    <path d="M107,220.724h-.047a1.891,1.891,0,0,1-1.812,1.14,2.349,2.349,0,0,1-1.044-.228,2.269,2.269,0,0,1-.8-.648,2.988,2.988,0,0,1-.5-1.02,5.307,5.307,0,0,1,0-2.688,3,3,0,0,1,.5-1.02,2.28,2.28,0,0,1,.8-.648,2.349,2.349,0,0,1,1.044-.228,2.107,2.107,0,0,1,1.109.28,1.742,1.742,0,0,1,.7.861H107V212.84h.96v8.88H107Zm-1.6.288a2.234,2.234,0,0,0,.618-.084,1.558,1.558,0,0,0,.511-.247,1.229,1.229,0,0,0,.341-.4,1.12,1.12,0,0,0,.126-.537V217.43a.952.952,0,0,0-.126-.476,1.2,1.2,0,0,0-.341-.38,1.71,1.71,0,0,0-.511-.247,2.1,2.1,0,0,0-.618-.091,1.649,1.649,0,0,0-1.283.513,1.916,1.916,0,0,0-.469,1.345v1.061a1.918,1.918,0,0,0,.469,1.345A1.652,1.652,0,0,0,105.406,221.012Z" fill="#6f6f6f"/>
    <path d="M111.371,221.72a.985.985,0,0,1-.763-.281,1.051,1.051,0,0,1-.257-.736V216.38h-1.02v-.852h.575a.568.568,0,0,0,.427-.126.66.66,0,0,0,.113-.438v-1.152h.865v1.716h1.356v.852h-1.356v4.488h1.259v.852Z" fill="#6f6f6f"/>
    <path d="M114.214,212.84h.96v3.685h.048a2.018,2.018,0,0,1,.642-.832,1.813,1.813,0,0,1,1.11-.309,1.943,1.943,0,0,1,1.518.618,2.518,2.518,0,0,1,.558,1.746v3.972h-.96v-3.812q0-1.672-1.4-1.672a2.117,2.117,0,0,0-.559.073,1.581,1.581,0,0,0-.485.216,1.066,1.066,0,0,0-.343.367,1.041,1.041,0,0,0-.126.523v4.305h-.96Z" fill="#6f6f6f"/>
  </g>
  <path id="ecca7fbd-8a9d-4664-8119-65d280894d36" data-name="Rectangle" d="M58.69,108.439h71.121v71.122H58.69Z"/>
  <g>
    <g mask="url(#b4090b2b-1d10-49a2-ad9f-f034ff205e94)">
      <rect x="165.333" y="115.556" width="56.887" height="56.887" fill="url(#bc19eec8-e5ae-48ea-87cc-a22a86350c87)"/>
    </g>
    <path d="M172.444,124.445a7.111,7.111,0,1,1,7.111,7.111A7.118,7.118,0,0,1,172.444,124.445Zm3.555,0a3.556,3.556,0,1,0,3.556-3.555A3.56,3.56,0,0,0,176,124.445Z" fill="#f4f4f4"/>
    <path d="M174.222,136.889h11.412l7.481,13.092,3.087-1.764-8.5-14.883H174.222a5.339,5.339,0,0,0-5.334,5.333v10.666a3.56,3.56,0,0,0,3.556,3.556v12.444A3.559,3.559,0,0,0,176,168.888h7.111a3.56,3.56,0,0,0,3.556-3.555V152.889H183.11v12.444H176v-16h-3.555V138.667A1.78,1.78,0,0,1,174.222,136.889Z" fill="#f4f4f4"/>
  </g>
  <g>
    <g mask="url(#a106f331-1bbd-4e5e-b0e3-00f5f260d2ae)">
      <rect x="65.78" y="115.556" width="56.887" height="56.887" fill="url(#bf3d19e0-27e0-421a-90a5-184b501aaffe)"/>
    </g>
    <path d="M115.557,156.444H112v-1.778a1.778,1.778,0,0,0-1.778-1.777h-32a1.778,1.778,0,0,0-1.777,1.777v1.778H72.891V160h3.556v3.555a5.339,5.339,0,0,0,5.333,5.333h6.1a3.573,3.573,0,0,0,3.049-1.726l1.767-2.944a1.776,1.776,0,0,1,3.048,0l1.767,2.945a3.574,3.574,0,0,0,3.049,1.725h6.1A5.339,5.339,0,0,0,112,163.555V160h3.556Zm-7.111,7.111a1.781,1.781,0,0,1-1.778,1.778h-6.105L98.8,162.388a5.333,5.333,0,0,0-9.146,0l-1.767,2.945h-6.1A1.781,1.781,0,0,1,80,163.555v-7.111h28.444Z" fill="#f4f4f4"/>
  </g>
</svg>
