<?xml version="1.0" encoding="utf-8"?>
<!-- Generator: Adobe Illustrator 23.0.1, SVG Export Plug-In . SVG Version: 6.00 Build 0)  -->
<svg version="1.1" id="Layer_1" xmlns="http://www.w3.org/2000/svg" xmlns:xlink="http://www.w3.org/1999/xlink" x="0px" y="0px"
	 viewBox="0 0 288 288" style="enable-background:new 0 0 288 288;" xml:space="preserve">
<style type="text/css">
	.st0{fill-rule:evenodd;clip-rule:evenodd;}
	.st1{fill:none;stroke:#3D3D3D;stroke-width:0.6429;stroke-linecap:square;}
	.st2{fill:none;}
	.st3{fill-rule:evenodd;clip-rule:evenodd;fill:#FFFFFF;}
	.st4{fill-rule:evenodd;clip-rule:evenodd;fill:#0062FF;}
</style>
<title>Artboard Copy 42</title>
<desc>Created with Sketch.</desc>
<rect id="Rectangle-3" class="st0" width="288" height="288"/>
<g id="Group-72" transform="translate(55.928571, 55.928571)">
	<g id="Grid-01" transform="translate(0.596202, 0.596202)">
		<g id="Vertical-lines" transform="translate(0.193246, 0.579737)">
			<path id="Line" class="st1" d="M0.4,0v173.1"/>
			<path class="st1" d="M16.6,0v173.1"/>
			<path class="st1" d="M5.8,0v173.1"/>
			<path class="st1" d="M22,0v173.1"/>
			<path class="st1" d="M11.2,0v173.1"/>
			<path class="st1" d="M27.4,0v173.1"/>
			<path class="st1" d="M32.9,0v173.1"/>
			<path class="st1" d="M38.3,0v173.1"/>
			<path class="st1" d="M43.7,0v173.1"/>
			<path class="st1" d="M49.1,0v173.1"/>
			<path class="st1" d="M54.5,0v173.1"/>
			<path class="st1" d="M59.9,0v173.1"/>
			<path class="st1" d="M65.3,0v173.1"/>
			<path class="st1" d="M70.7,0v173.1"/>
			<path class="st1" d="M76.1,0v173.1"/>
			<path class="st1" d="M81.5,0v173.1"/>
			<path class="st1" d="M87,0v173.1"/>
			<path class="st1" d="M92.4,0v173.1"/>
			<path class="st1" d="M97.8,0v173.1"/>
			<path class="st1" d="M103.2,0v173.1"/>
			<path class="st1" d="M108.6,0v173.1"/>
			<path class="st1" d="M114,0v173.1"/>
			<path class="st1" d="M119.4,0v173.1"/>
			<path class="st1" d="M124.8,0v173.1"/>
			<path class="st1" d="M130.2,0v173.1"/>
			<path class="st1" d="M135.7,0v173.1"/>
			<path class="st1" d="M141.1,0v173.1"/>
			<path class="st1" d="M146.5,0v173.1"/>
			<path class="st1" d="M151.9,0v173.1"/>
			<path class="st1" d="M157.3,0v173.1"/>
			<path class="st1" d="M162.7,0v173.1"/>
			<path class="st1" d="M168.1,0v173.1"/>
			<path class="st1" d="M173.5,0v173.1"/>
		</g>
		
			<g id="Horizontal" transform="translate(86.942145, 87.300389) rotate(90.000000) translate(-86.942145, -87.300389) translate(-0.164998, 0.514674)">
			<path class="st1" d="M0.4,0v173.1"/>
			<path class="st1" d="M16.6,0v173.1"/>
			<path class="st1" d="M5.8,0v173.1"/>
			<path class="st1" d="M22,0v173.1"/>
			<path class="st1" d="M11.2,0v173.1"/>
			<path class="st1" d="M27.4,0v173.1"/>
			<path class="st1" d="M32.9,0v173.1"/>
			<path class="st1" d="M38.3,0v173.1"/>
			<path class="st1" d="M43.7,0v173.1"/>
			<path class="st1" d="M49.1,0v173.1"/>
			<path class="st1" d="M54.5,0v173.1"/>
			<path class="st1" d="M59.9,0v173.1"/>
			<path class="st1" d="M65.3,0v173.1"/>
			<path class="st1" d="M70.7,0v173.1"/>
			<path class="st1" d="M76.1,0v173.1"/>
			<path class="st1" d="M81.5,0v173.1"/>
			<path class="st1" d="M87,0v173.1"/>
			<path class="st1" d="M92.4,0v173.1"/>
			<path class="st1" d="M97.8,0v173.1"/>
			<path class="st1" d="M103.2,0v173.1"/>
			<path class="st1" d="M108.6,0v173.1"/>
			<path class="st1" d="M114,0v173.1"/>
			<path class="st1" d="M119.4,0v173.1"/>
			<path class="st1" d="M124.8,0v173.1"/>
			<path class="st1" d="M130.2,0v173.1"/>
			<path class="st1" d="M135.7,0v173.1"/>
			<path class="st1" d="M141.1,0v173.1"/>
			<path class="st1" d="M146.5,0v173.1"/>
			<path class="st1" d="M151.9,0v173.1"/>
			<path class="st1" d="M157.3,0v173.1"/>
			<path class="st1" d="M162.7,0v173.1"/>
			<path class="st1" d="M168.1,0v173.1"/>
			<path class="st1" d="M173.5,0v173.1"/>
		</g>
	</g>
</g>
<polygon id="Fill-1" class="st2" points="57,230 230,230 230,57 57,57 "/>
<g id="Group-10">
	<path id="Fill-2" class="st3" d="M215.7,131.9v-26.2h-3.9V128l-67-67c-0.8-0.8-2-0.8-2.8,0L61,142.1l2.8,2.8l79.7-79.7l79.7,79.7
		l2.8-2.8L215.7,131.9z"/>
	<polygon id="Fill-4" class="st3" points="100.2,145.5 100.2,141.6 186.7,141.5 186.7,145.4 	"/>
	<path id="Fill-6" class="st3" d="M184.8,201l-82.6,0v-17.7l82.6,0V201z M184.8,222.6h-82.6v-17.7l82.6,0V222.6z M215.7,222.6v-62.9
		h-3.9v62.9h-23.1v-62.9c0-1.1-0.9-1.9-1.9-1.9h-75.7v3.9h73.7v17.7l-82.6,0v-8.9h-3.9v52.1H75.2v-62.9h-3.9v62.9h-8.9v3.9h162.2
		v-3.9H215.7z"/>
	<path id="Fill-8" class="st4" d="M102.2,170.5v-8.9h8.9v-3.9h-10.8c-1.1,0-1.9,0.9-1.9,1.9v10.8H102.2z"/>
</g>
</svg>
