<?xml version="1.0" encoding="utf-8"?>
<!-- Generator: Adobe Illustrator 23.0.1, SVG Export Plug-In . SVG Version: 6.00 Build 0)  -->
<svg version="1.1" id="Layer_1" xmlns="http://www.w3.org/2000/svg" xmlns:xlink="http://www.w3.org/1999/xlink" x="0px" y="0px"
	 viewBox="0 0 288 288" style="enable-background:new 0 0 288 288;" xml:space="preserve">
<style type="text/css">
	.st0{fill-rule:evenodd;clip-rule:evenodd;}
	.st1{fill:none;stroke:#565656;stroke-width:0.6429;stroke-linecap:square;}
	.st2{fill:#FFFFFF;}
	.st3{filter:url(#Adobe_OpacityMaskFilter);}
	.st4{fill-rule:evenodd;clip-rule:evenodd;fill:#FFFFFF;}
	.st5{mask:url(#mask-2_1_);fill:#0062FF;}
</style>
<title>Artboard Copy 46</title>
<desc>Created with Sketch.</desc>
<g id="Group-36-Copy-11">
	<rect id="Rectangle-3" class="st0" width="288" height="288"/>
</g>
<g id="Grid-02-Copy-15" transform="translate(57.000000, 57.000000)">
	<g id="Group-4" transform="translate(0.000000, 0.941176)">
		<path id="Line" class="st1" d="M1.4,0.5v173.2"/>
		<path class="st1" d="M23.1,0.5v173.2"/>
		<path class="st1" d="M44.7,0.5v173.2"/>
		<path class="st1" d="M66.4,0.5v173.2"/>
		<path class="st1" d="M88,0.5v173.2"/>
		<path class="st1" d="M109.6,0.5v173.2"/>
		<path class="st1" d="M131.3,0.5v173.2"/>
		<path class="st1" d="M152.9,0.5v173.2"/>
		<path class="st1" d="M174.6,0.5v173.2"/>
	</g>
	
		<g transform="translate(88.025856, 88.000000) rotate(90.000000) translate(-88.025856, -88.000000) translate(0.025856, 0.967033)">
		<path class="st1" d="M1.4,0.5v173.2"/>
		<path class="st1" d="M23.1,0.5v173.2"/>
		<path class="st1" d="M44.7,0.5v173.2"/>
		<path class="st1" d="M66.4,0.5v173.2"/>
		<path class="st1" d="M88,0.5v173.2"/>
		<path class="st1" d="M109.6,0.5v173.2"/>
		<path class="st1" d="M131.3,0.5v173.2"/>
		<path class="st1" d="M152.9,0.5v173.2"/>
		<path class="st1" d="M174.6,0.5v173.2"/>
	</g>
</g>
<g id="Grid-02-Copy-16" transform="translate(57.000000, 57.000000)">
	<g transform="translate(0.000000, 0.941176)">
		<path class="st1" d="M1.4,0.5v173.2"/>
		<path class="st1" d="M23.1,0.5v173.2"/>
		<path class="st1" d="M44.7,0.5v173.2"/>
		<path class="st1" d="M66.4,0.5v173.2"/>
		<path class="st1" d="M88,0.5v173.2"/>
		<path class="st1" d="M109.6,0.5v173.2"/>
		<path class="st1" d="M131.3,0.5v173.2"/>
		<path class="st1" d="M152.9,0.5v173.2"/>
		<path class="st1" d="M174.6,0.5v173.2"/>
	</g>
	
		<g transform="translate(88.025856, 88.000000) rotate(90.000000) translate(-88.025856, -88.000000) translate(0.025856, 0.967033)">
		<path class="st1" d="M1.4,0.5v173.2"/>
		<path class="st1" d="M23.1,0.5v173.2"/>
		<path class="st1" d="M44.7,0.5v173.2"/>
		<path class="st1" d="M66.4,0.5v173.2"/>
		<path class="st1" d="M88,0.5v173.2"/>
		<path class="st1" d="M109.6,0.5v173.2"/>
		<path class="st1" d="M131.3,0.5v173.2"/>
		<path class="st1" d="M152.9,0.5v173.2"/>
		<path class="st1" d="M174.6,0.5v173.2"/>
	</g>
</g>
<g id="Mask">
	<path class="st2" d="M130.4,93h-2.5c-7.1,0-12.9,5.8-12.9,12.9V231h16V109.1h55.9c4.5,0,8.1-3.6,8.1-8.1s-3.6-8.1-8.1-8.1H130.4z"
		/>
</g>
<defs>
	<filter id="Adobe_OpacityMaskFilter" filterUnits="userSpaceOnUse" x="143.8" y="73" width="64" height="64.5">
		<feColorMatrix  type="matrix" values="1 0 0 0 0  0 1 0 0 0  0 0 1 0 0  0 0 0 1 0"/>
	</filter>
</defs>
<mask maskUnits="userSpaceOnUse" x="143.8" y="73" width="64" height="64.5" id="mask-2_1_">
	<g class="st3">
		<path id="path-1_1_" class="st4" d="M130.4,93h-2.5c-7.1,0-12.9,5.8-12.9,12.9V231h16V109.1h55.9c4.5,0,8.1-3.6,8.1-8.1
			s-3.6-8.1-8.1-8.1H130.4z"/>
	</g>
</mask>
<rect id="Rectangle" x="143.8" y="73" class="st5" width="64" height="64.5"/>
</svg>
