<?xml version="1.0" encoding="UTF-8"?>
<svg width="928px" height="522px" viewBox="0 0 928 522" version="1.1" xmlns="http://www.w3.org/2000/svg" xmlns:xlink="http://www.w3.org/1999/xlink">
    <!-- Generator: Sketch 52.5 (67469) - http://www.bohemiancoding.com/sketch -->
    <title>Artboard</title>
    <desc>Created with Sketch.</desc>
    <g id="Artboard" stroke="none" stroke-width="1" fill="none" fill-rule="evenodd">
        <rect id="Rectangle-3-Copy-45" fill="#FFFFFF" x="0" y="0" width="928" height="522"></rect>
        <circle id="Oval-5-Copy-8" fill="#6EA6FF" style="mix-blend-mode: multiply;" opacity="0.5" cx="415" cy="400" r="20"></circle>
        <g id="Group-9-Copy-2" transform="translate(504.000000, 287.000000)">
            <polygon id="Fill-1" points="0 120 120 120 120 0 0 0"></polygon>
            <g id="Group-8" transform="translate(3.750000, 0.000000)" fill="#000000">
                <path d="M52.5,5.1015 C48.075,5.1015 44.475,8.7015 44.475,13.1265 C44.475,17.54775 48.075,21.14775 52.5,21.14775 C56.925,21.14775 60.525,17.54775 60.525,13.1265 C60.525,8.7015 56.925,5.1015 52.5,5.1015 M52.5,23.8515 C46.58625,23.8515 41.775,19.04025 41.775,13.1265 C41.775,7.209 46.58625,2.39775 52.5,2.39775 C58.41375,2.39775 63.225,7.209 63.225,13.1265 C63.225,19.04025 58.41375,23.8515 52.5,23.8515" id="Fill-2"></path>
                <path d="M33.75,117.6015 C16.4625,117.6015 2.4,103.53525 2.4,86.2515 C2.4,68.964 16.4625,54.89775 33.75,54.89775 L33.75,57.6015 C17.95125,57.6015 5.1,70.45275 5.1,86.2515 C5.1,102.05025 17.95125,114.89775 33.75,114.89775 C49.54875,114.89775 62.4,102.05025 62.4,86.2515 L65.1,86.2515 C65.1,103.53525 51.0375,117.6015 33.75,117.6015" id="Fill-4"></path>
                <path d="M97.5,113.8515 C97.395,113.8515 97.29,113.8365 97.18875,113.814 C96.82125,113.72775 96.51,113.48775 96.32625,113.1615 L79.425,83.22525 C78.3375,81.294 76.2825,80.09775 74.06625,80.09775 L56.25,80.1015 C47.235,80.1015 39.9,72.7665 39.9,63.7515 L39.9,36.744 C39.9,32.2815 43.53,28.64775 47.99625,28.64775 C51.1425,28.64775 54.07875,30.34275 55.65375,33.069 L68.28,54.89775 L90,54.89775 L90,57.6015 L67.5,57.6015 C67.02,57.6015 66.57375,57.34275 66.33,56.9265 L53.3175,34.42275 C52.2225,32.52525 50.1825,31.3515 47.99625,31.3515 C45.01875,31.3515 42.6,33.774 42.6,36.744 L42.6,63.7515 C42.6,71.274 48.72375,77.39775 56.25,77.39775 L74.06625,77.394 C77.2575,77.394 80.20875,79.119 81.77625,81.89775 L97.96125,110.57025 L108,103.8765 L109.5,106.12275 L98.25,113.62275 C98.025,113.77275 97.7625,113.8515 97.5,113.8515" id="Fill-6"></path>
            </g>
        </g>
        <path d="M106.640587,232.359413 L221.359413,232.359413 L221.359413,117.640587 L106.640587,117.640587 L106.640587,232.359413 Z M222.679707,235 L105.320293,235 C104.590465,235 104,234.409535 104,233.679707 L104,116.320293 C104,115.590465 104.590465,115 105.320293,115 L222.679707,115 C223.409535,115 224,115.590465 224,116.320293 L224,233.679707 C224,234.409535 223.409535,235 222.679707,235 Z" id="Fill-1-Copy" fill="#97C1FF"></path>
        <path d="M312.655257,117.640587 C309.339853,117.640587 306.640587,120.339853 306.640587,123.655257 L306.640587,226.344743 C306.640587,229.660147 309.339853,232.359413 312.655257,232.359413 L415.344743,232.359413 C418.660147,232.359413 421.359413,229.660147 421.359413,226.344743 L421.359413,123.655257 C421.359413,120.339853 418.660147,117.640587 415.344743,117.640587 L312.655257,117.640587 Z M415.344743,235 L312.655257,235 C307.883863,235 304,231.116137 304,226.344743 L304,123.655257 C304,118.883863 307.883863,115 312.655257,115 L415.344743,115 C420.116137,115 424,118.883863 424,123.655257 L424,226.344743 C424,231.116137 420.116137,235 415.344743,235 Z" id="Fill-3-Copy" fill="#97C1FF"></path>
        <path d="M519.99022,117.640587 C512.629584,117.640587 506.640587,123.629584 506.640587,130.99022 L506.640587,219.00978 C506.640587,226.370416 512.629584,232.359413 519.99022,232.359413 L608.00978,232.359413 C615.370416,232.359413 621.359413,226.370416 621.359413,219.00978 L621.359413,130.99022 C621.359413,123.629584 615.370416,117.640587 608.00978,117.640587 L519.99022,117.640587 Z M608.00978,235 L519.99022,235 C511.173594,235 504,227.826406 504,219.00978 L504,130.99022 C504,122.173594 511.173594,115 519.99022,115 L608.00978,115 C616.826406,115 624,122.173594 624,130.99022 L624,219.00978 C624,227.826406 616.826406,235 608.00978,235 Z" id="Fill-4-Copy" fill="#97C1FF"></path>
        <path d="M764,117.640587 C732.371638,117.640587 706.640587,143.371638 706.640587,175 C706.640587,206.628362 732.371638,232.359413 764,232.359413 C795.628362,232.359413 821.359413,206.628362 821.359413,175 C821.359413,143.371638 795.628362,117.640587 764,117.640587 M764,235 C730.915648,235 704,208.084352 704,175 C704,141.915648 730.915648,115 764,115 C797.084352,115 824,141.915648 824,175 C824,208.084352 797.084352,235 764,235" id="Fill-5-Copy" fill="#97C1FF"></path>
        <g id="Group-10-Copy" transform="translate(104.000000, 287.000000)">
            <polygon id="Fill-1" fill="#FFFFFF" points="0 120 120 120 120 0 0 0"></polygon>
            <polygon id="Fill-2" fill="#000000" points="82.91025 68.93175 61.34775 90.4905 61.34775 3.74925 58.6515 3.74925 58.6515 90.4905 37.089 68.93175 35.18025 70.8405 60.0015 95.658 84.819 70.8405"></polygon>
            <g id="Group-9" transform="translate(2.000000, 35.750000)">
                <path d="M114.25,81.849625 L106.75,81.849625 L106.75,79.149625 L112.9,79.149625 L112.9,72.999625 L115.6,72.999625 L115.6,80.499625 C115.6,81.245875 114.99625,81.849625 114.25,81.849625" id="Fill-3" fill="#171717"></path>
                <path d="M112.900375,73 L115.600375,73 L115.600375,1.75 C115.600375,1.00375 114.996625,0.4 114.250375,0.4 L84.250375,0.4 L84.250375,3.1 L112.900375,3.1 L112.900375,73 Z" id="Fill-5" fill="#000000"></path>
                <path d="M106.75,79.150375 L3.1,79.150375 L3.1,3.100375 L31.75,3.100375 L31.75,0.400375 L1.75,0.400375 C1.00375,0.400375 0.4,1.004125 0.4,1.750375 L0.4,80.500375 C0.4,81.246625 1.00375,81.850375 1.75,81.850375 L106.75,81.850375 L106.75,79.150375 Z" id="Fill-7" fill="#000000"></path>
            </g>
        </g>
        <circle id="Oval-5-Copy-9" fill="#6EA6FF" style="mix-blend-mode: multiply;" opacity="0.5" cx="219" cy="400" r="20"></circle>
        <g id="Group-9-Copy-3" transform="translate(704.000000, 287.000000)">
            <polygon id="Fill-1" fill="#FFFFFF" points="0 120 120 120 120 0 0 0"></polygon>
            <g id="Group-8" transform="translate(21.150000, 4.750000)">
                <path d="M38.85,11.599625 C18.91875,11.599625 2.7,27.818375 2.7,47.749625 C2.7,67.684625 18.91875,83.899625 38.85,83.899625 C58.78125,83.899625 75,67.684625 75,47.749625 C75,27.818375 58.78125,11.599625 38.85,11.599625 M38.85,86.599625 C17.43,86.599625 0,69.173375 0,47.749625 C0,26.329625 17.43,8.899625 38.85,8.899625 C60.27,8.899625 77.7,26.329625 77.7,47.749625 C77.7,69.173375 60.27,86.599625 38.85,86.599625" id="Fill-2" fill="#000000"></path>
                <polygon id="Fill-4" fill="#000000" points="40.199625 96.5 37.499625 96.5 37.499625 110.15 16.349625 110.15 16.349625 112.85 61.349625 112.85 61.349625 110.15 40.199625 110.15"></polygon>
                <path d="M38.85,97.849625 C27.4725,97.849625 16.335,93.934625 7.485,86.820875 L9.17625,84.717125 C17.67,91.542125 27.93,95.149625 38.85,95.149625 C64.9875,95.149625 86.25,73.887125 86.25,47.749625 C86.25,27.105875 73.065,8.974625 53.43375,2.637125 L54.26625,0.064625 C75.01125,6.765875 88.95,25.932125 88.95,47.749625 C88.95,75.375875 66.47625,97.849625 38.85,97.849625" id="Fill-6" fill="#171717"></path>
            </g>
        </g>
        <path d="M159.737,452 L153.325,452 L153.325,450.796 L156.517,447.856 C156.974336,447.435998 157.356998,446.990336 157.665,446.519 C157.973002,446.047664 158.127,445.574002 158.127,445.098 L158.127,444.93 C158.127,444.388664 157.977668,443.950002 157.679,443.614 C157.380332,443.277998 156.92767,443.11 156.321,443.11 C156.022332,443.11 155.761001,443.152 155.537,443.236 C155.312999,443.32 155.119334,443.436666 154.956,443.586 C154.792666,443.735334 154.657334,443.910332 154.55,444.111 C154.442666,444.311668 154.356334,444.528665 154.291,444.762 L153.241,444.356 C153.334334,444.066665 153.462666,443.784335 153.626,443.509 C153.789334,443.233665 153.994665,442.988668 154.242,442.774 C154.489335,442.559332 154.787998,442.386667 155.138,442.256 C155.488002,442.125333 155.900998,442.06 156.377,442.06 C156.853002,442.06 157.277665,442.129999 157.651,442.27 C158.024335,442.410001 158.336999,442.605999 158.589,442.858 C158.841001,443.110001 159.034666,443.408665 159.17,443.754 C159.305334,444.099335 159.373,444.481998 159.373,444.902 C159.373,445.284669 159.319334,445.639332 159.212,445.966 C159.104666,446.292668 158.957668,446.602999 158.771,446.897 C158.584332,447.191001 158.358001,447.477999 158.092,447.758 C157.825999,448.038001 157.539002,448.317999 157.231,448.598 L154.599,450.964 L159.737,450.964 L159.737,452 Z M161.865,444.776 L162.985,444.776 L162.985,445.952 L163.041,445.952 C163.227668,445.494664 163.500665,445.156334 163.86,444.937 C164.219335,444.717666 164.650997,444.608 165.155,444.608 C165.603002,444.608 166.008998,444.696666 166.373,444.874 C166.737002,445.051334 167.047332,445.303332 167.304,445.63 C167.560668,445.956668 167.756666,446.353331 167.892,446.82 C168.027334,447.286669 168.095,447.80933 168.095,448.388 C168.095,448.96667 168.027334,449.489331 167.892,449.956 C167.756666,450.422669 167.560668,450.819332 167.304,451.146 C167.047332,451.472668 166.737002,451.724666 166.373,451.902 C166.008998,452.079334 165.603002,452.168 165.155,452.168 C164.174995,452.168 163.470335,451.720004 163.041,450.824 L162.985,450.824 L162.985,454.8 L161.865,454.8 L161.865,444.776 Z M164.847,451.16 C165.48167,451.16 165.980998,450.961669 166.345,450.565 C166.709002,450.168331 166.891,449.648003 166.891,449.004 L166.891,447.772 C166.891,447.127997 166.709002,446.607669 166.345,446.211 C165.980998,445.814331 165.48167,445.616 164.847,445.616 C164.594999,445.616 164.354668,445.651 164.126,445.721 C163.897332,445.791 163.699001,445.886666 163.531,446.008 C163.362999,446.129334 163.23,446.276332 163.132,446.449 C163.034,446.621668 162.985,446.805999 162.985,447.002 L162.985,449.69 C162.985,449.923335 163.034,450.130999 163.132,450.313 C163.23,450.495001 163.362999,450.648999 163.531,450.775 C163.699001,450.901001 163.897332,450.996666 164.126,451.062 C164.354668,451.127334 164.594999,451.16 164.847,451.16 Z M168.921,452 L171.595,448.36 L169.033,444.776 L170.349,444.776 L172.183,447.464 L172.225,447.464 L174.129,444.776 L175.375,444.776 L172.827,448.276 L175.431,452 L174.157,452 L172.239,449.102 L172.197,449.102 L170.125,452 L168.921,452 Z" id="2px-copy" fill="#6F6F6F"></path>
        <path d="M357.525,452 L357.525,450.082 L352.807,450.082 L352.807,449.046 L356.895,442.228 L358.645,442.228 L358.645,449.102 L360.059,449.102 L360.059,450.082 L358.645,450.082 L358.645,452 L357.525,452 Z M353.913,449.102 L357.525,449.102 L357.525,443.138 L357.455,443.138 L353.913,449.102 Z M361.865,444.776 L362.985,444.776 L362.985,445.952 L363.041,445.952 C363.227668,445.494664 363.500665,445.156334 363.86,444.937 C364.219335,444.717666 364.650997,444.608 365.155,444.608 C365.603002,444.608 366.008998,444.696666 366.373,444.874 C366.737002,445.051334 367.047332,445.303332 367.304,445.63 C367.560668,445.956668 367.756666,446.353331 367.892,446.82 C368.027334,447.286669 368.095,447.80933 368.095,448.388 C368.095,448.96667 368.027334,449.489331 367.892,449.956 C367.756666,450.422669 367.560668,450.819332 367.304,451.146 C367.047332,451.472668 366.737002,451.724666 366.373,451.902 C366.008998,452.079334 365.603002,452.168 365.155,452.168 C364.174995,452.168 363.470335,451.720004 363.041,450.824 L362.985,450.824 L362.985,454.8 L361.865,454.8 L361.865,444.776 Z M364.847,451.16 C365.48167,451.16 365.980998,450.961669 366.345,450.565 C366.709002,450.168331 366.891,449.648003 366.891,449.004 L366.891,447.772 C366.891,447.127997 366.709002,446.607669 366.345,446.211 C365.980998,445.814331 365.48167,445.616 364.847,445.616 C364.594999,445.616 364.354668,445.651 364.126,445.721 C363.897332,445.791 363.699001,445.886666 363.531,446.008 C363.362999,446.129334 363.23,446.276332 363.132,446.449 C363.034,446.621668 362.985,446.805999 362.985,447.002 L362.985,449.69 C362.985,449.923335 363.034,450.130999 363.132,450.313 C363.23,450.495001 363.362999,450.648999 363.531,450.775 C363.699001,450.901001 363.897332,450.996666 364.126,451.062 C364.354668,451.127334 364.594999,451.16 364.847,451.16 Z M368.921,452 L371.595,448.36 L369.033,444.776 L370.349,444.776 L372.183,447.464 L372.225,447.464 L374.129,444.776 L375.375,444.776 L372.827,448.276 L375.431,452 L374.157,452 L372.239,449.102 L372.197,449.102 L370.125,452 L368.921,452 Z" id="4px-copy" fill="#6F6F6F"></path>
        <path d="M556.489,452.168 C555.984997,452.168 555.530002,452.081668 555.124,451.909 C554.717998,451.736332 554.372668,451.489002 554.088,451.167 C553.803332,450.844998 553.586334,450.450669 553.437,449.984 C553.287666,449.517331 553.213,448.99467 553.213,448.416 C553.213,447.687996 553.320332,447.004337 553.535,446.365 C553.749668,445.725663 554.027332,445.142336 554.368,444.615 C554.708668,444.087664 555.084331,443.621002 555.495,443.215 C555.905669,442.808998 556.306998,442.480001 556.699,442.228 L558.211,442.228 C557.688331,442.610669 557.221669,442.983998 556.811,443.348 C556.400331,443.712002 556.041002,444.092331 555.733,444.489 C555.424998,444.885669 555.163668,445.310331 554.949,445.763 C554.734332,446.215669 554.561667,446.726664 554.431,447.296 L554.501,447.324 C554.734335,446.922665 555.035331,446.589001 555.404,446.323 C555.772669,446.056999 556.255664,445.924 556.853,445.924 C557.273002,445.924 557.660332,445.993999 558.015,446.134 C558.369668,446.274001 558.672999,446.474665 558.925,446.736 C559.177001,446.997335 559.375333,447.314665 559.52,447.688 C559.664667,448.061335 559.737,448.476664 559.737,448.934 C559.737,449.410002 559.660001,449.846331 559.506,450.243 C559.351999,450.639669 559.132668,450.980332 558.848,451.265 C558.563332,451.549668 558.220335,451.771333 557.819,451.93 C557.417665,452.088667 556.974336,452.168 556.489,452.168 Z M556.475,451.146 C557.119003,451.146 557.620665,450.968668 557.98,450.614 C558.339335,450.259332 558.519,449.75067 558.519,449.088 L558.519,448.976 C558.519,448.31333 558.339335,447.804668 557.98,447.45 C557.620665,447.095332 557.119003,446.918 556.475,446.918 C555.830997,446.918 555.329335,447.095332 554.97,447.45 C554.610665,447.804668 554.431,448.31333 554.431,448.976 L554.431,449.088 C554.431,449.75067 554.610665,450.259332 554.97,450.614 C555.329335,450.968668 555.830997,451.146 556.475,451.146 Z M561.865,444.776 L562.985,444.776 L562.985,445.952 L563.041,445.952 C563.227668,445.494664 563.500665,445.156334 563.86,444.937 C564.219335,444.717666 564.650997,444.608 565.155,444.608 C565.603002,444.608 566.008998,444.696666 566.373,444.874 C566.737002,445.051334 567.047332,445.303332 567.304,445.63 C567.560668,445.956668 567.756666,446.353331 567.892,446.82 C568.027334,447.286669 568.095,447.80933 568.095,448.388 C568.095,448.96667 568.027334,449.489331 567.892,449.956 C567.756666,450.422669 567.560668,450.819332 567.304,451.146 C567.047332,451.472668 566.737002,451.724666 566.373,451.902 C566.008998,452.079334 565.603002,452.168 565.155,452.168 C564.174995,452.168 563.470335,451.720004 563.041,450.824 L562.985,450.824 L562.985,454.8 L561.865,454.8 L561.865,444.776 Z M564.847,451.16 C565.48167,451.16 565.980998,450.961669 566.345,450.565 C566.709002,450.168331 566.891,449.648003 566.891,449.004 L566.891,447.772 C566.891,447.127997 566.709002,446.607669 566.345,446.211 C565.980998,445.814331 565.48167,445.616 564.847,445.616 C564.594999,445.616 564.354668,445.651 564.126,445.721 C563.897332,445.791 563.699001,445.886666 563.531,446.008 C563.362999,446.129334 563.23,446.276332 563.132,446.449 C563.034,446.621668 562.985,446.805999 562.985,447.002 L562.985,449.69 C562.985,449.923335 563.034,450.130999 563.132,450.313 C563.23,450.495001 563.362999,450.648999 563.531,450.775 C563.699001,450.901001 563.897332,450.996666 564.126,451.062 C564.354668,451.127334 564.594999,451.16 564.847,451.16 Z M568.921,452 L571.595,448.36 L569.033,444.776 L570.349,444.776 L572.183,447.464 L572.225,447.464 L574.129,444.776 L575.375,444.776 L572.827,448.276 L575.431,452 L574.157,452 L572.239,449.102 L572.197,449.102 L570.125,452 L568.921,452 Z" id="6px-copy" fill="#6F6F6F"></path>
        <path d="M735.59,452 L735.59,442.228 L741.414,442.228 L741.414,443.264 L736.766,443.264 L736.766,446.4 L741.008,446.4 L741.008,447.436 L736.766,447.436 L736.766,452 L735.59,452 Z M747.406,450.824 L747.35,450.824 C747.275333,450.992001 747.184334,451.157666 747.077,451.321 C746.969666,451.484334 746.836667,451.628999 746.678,451.755 C746.519333,451.881001 746.328001,451.981333 746.104,452.056 C745.879999,452.130667 745.618668,452.168 745.32,452.168 C744.57333,452.168 743.980669,451.927669 743.542,451.447 C743.103331,450.966331 742.884,450.287338 742.884,449.41 L742.884,444.776 L744.004,444.776 L744.004,449.214 C744.004,450.51134 744.554661,451.16 745.656,451.16 C745.880001,451.16 746.096999,451.132 746.307,451.076 C746.517001,451.02 746.703666,450.936001 746.867,450.824 C747.030334,450.711999 747.161,450.569668 747.259,450.397 C747.357,450.224332 747.406,450.016668 747.406,449.774 L747.406,444.776 L748.526,444.776 L748.526,452 L747.406,452 L747.406,450.824 Z M752.096,452 C751.703998,452 751.407668,451.890334 751.207,451.671 C751.006332,451.451666 750.906,451.174002 750.906,450.838 L750.906,441.64 L752.026,441.64 L752.026,451.02 L753.09,451.02 L753.09,452 L752.096,452 Z M755.834,452 C755.441998,452 755.145668,451.890334 754.945,451.671 C754.744332,451.451666 754.644,451.174002 754.644,450.838 L754.644,441.64 L755.764,441.64 L755.764,451.02 L756.828,451.02 L756.828,452 L755.834,452 Z M764.444,452.168 C763.939997,452.168 763.487335,452.079334 763.086,451.902 C762.684665,451.724666 762.346335,451.472668 762.071,451.146 C761.795665,450.819332 761.585667,450.422669 761.441,449.956 C761.296333,449.489331 761.224,448.96667 761.224,448.388 C761.224,447.80933 761.296333,447.286669 761.441,446.82 C761.585667,446.353331 761.795665,445.956668 762.071,445.63 C762.346335,445.303332 762.684665,445.051334 763.086,444.874 C763.487335,444.696666 763.939997,444.608 764.444,444.608 C765.16267,444.608 765.738998,444.764332 766.173,445.077 C766.607002,445.389668 766.931332,445.797997 767.146,446.302 L766.208,446.778 C766.077333,446.404665 765.862668,446.115334 765.564,445.91 C765.265332,445.704666 764.892002,445.602 764.444,445.602 C764.107998,445.602 763.814001,445.655666 763.562,445.763 C763.309999,445.870334 763.100001,446.019666 762.932,446.211 C762.763999,446.402334 762.638,446.630999 762.554,446.897 C762.47,447.163001 762.428,447.454665 762.428,447.772 L762.428,449.004 C762.428,449.63867 762.598332,450.158998 762.939,450.565 C763.279668,450.971002 763.78133,451.174 764.444,451.174 C765.349338,451.174 766.002665,450.754004 766.404,449.914 L767.216,450.46 C766.982665,450.982669 766.635002,451.397998 766.173,451.706 C765.710998,452.014002 765.13467,452.168 764.444,452.168 Z M769.358,443.082 C769.115332,443.082 768.940334,443.023667 768.833,442.907 C768.725666,442.790333 768.672,442.638668 768.672,442.452 L768.672,442.27 C768.672,442.083332 768.725666,441.931667 768.833,441.815 C768.940334,441.698333 769.115332,441.64 769.358,441.64 C769.600668,441.64 769.775666,441.698333 769.883,441.815 C769.990334,441.931667 770.044,442.083332 770.044,442.27 L770.044,442.452 C770.044,442.638668 769.990334,442.790333 769.883,442.907 C769.775666,443.023667 769.600668,443.082 769.358,443.082 Z M768.798,444.776 L769.918,444.776 L769.918,452 L768.798,452 L768.798,444.776 Z M772.298,452 L772.298,444.776 L773.418,444.776 L773.418,446.106 L773.488,446.106 C773.618667,445.760665 773.851998,445.452668 774.188,445.182 C774.524002,444.911332 774.985997,444.776 775.574,444.776 L776.008,444.776 L776.008,445.896 L775.35,445.896 C774.74333,445.896 774.269668,446.010332 773.929,446.239 C773.588332,446.467668 773.418,446.754665 773.418,447.1 L773.418,452 L772.298,452 Z M780.054,452.168 C779.549997,452.168 779.097335,452.079334 778.696,451.902 C778.294665,451.724666 777.956335,451.472668 777.681,451.146 C777.405665,450.819332 777.195667,450.422669 777.051,449.956 C776.906333,449.489331 776.834,448.96667 776.834,448.388 C776.834,447.80933 776.906333,447.286669 777.051,446.82 C777.195667,446.353331 777.405665,445.956668 777.681,445.63 C777.956335,445.303332 778.294665,445.051334 778.696,444.874 C779.097335,444.696666 779.549997,444.608 780.054,444.608 C780.77267,444.608 781.348998,444.764332 781.783,445.077 C782.217002,445.389668 782.541332,445.797997 782.756,446.302 L781.818,446.778 C781.687333,446.404665 781.472668,446.115334 781.174,445.91 C780.875332,445.704666 780.502002,445.602 780.054,445.602 C779.717998,445.602 779.424001,445.655666 779.172,445.763 C778.919999,445.870334 778.710001,446.019666 778.542,446.211 C778.373999,446.402334 778.248,446.630999 778.164,446.897 C778.08,447.163001 778.038,447.454665 778.038,447.772 L778.038,449.004 C778.038,449.63867 778.208332,450.158998 778.549,450.565 C778.889668,450.971002 779.39133,451.174 780.054,451.174 C780.959338,451.174 781.612665,450.754004 782.014,449.914 L782.826,450.46 C782.592665,450.982669 782.245002,451.397998 781.783,451.706 C781.320998,452.014002 780.74467,452.168 780.054,452.168 Z M785.598,452 C785.205998,452 784.909668,451.890334 784.709,451.671 C784.508332,451.451666 784.408,451.174002 784.408,450.838 L784.408,441.64 L785.528,441.64 L785.528,451.02 L786.592,451.02 L786.592,452 L785.598,452 Z M790.932,452.168 C790.437331,452.168 789.991669,452.079334 789.595,451.902 C789.198331,451.724666 788.857668,451.470335 788.573,451.139 C788.288332,450.807665 788.069001,450.411002 787.915,449.949 C787.760999,449.486998 787.684,448.96667 787.684,448.388 C787.684,447.818664 787.760999,447.300669 787.915,446.834 C788.069001,446.367331 788.288332,445.968335 788.573,445.637 C788.857668,445.305665 789.198331,445.051334 789.595,444.874 C789.991669,444.696666 790.437331,444.608 790.932,444.608 C791.417336,444.608 791.851331,444.696666 792.234,444.874 C792.616669,445.051334 792.943332,445.296332 793.214,445.609 C793.484668,445.921668 793.692333,446.292665 793.837,446.722 C793.981667,447.151335 794.054,447.622664 794.054,448.136 L794.054,448.668 L788.86,448.668 L788.86,449.004 C788.86,449.312002 788.909,449.598999 789.007,449.865 C789.105,450.131001 789.244999,450.361999 789.427,450.558 C789.609001,450.754001 789.832999,450.907999 790.099,451.02 C790.365001,451.132001 790.665998,451.188 791.002,451.188 C791.459336,451.188 791.858332,451.080668 792.199,450.866 C792.539668,450.651332 792.803332,450.343335 792.99,449.942 L793.788,450.516 C793.554666,451.010669 793.190669,451.409665 792.696,451.713 C792.201331,452.016335 791.613337,452.168 790.932,452.168 Z M790.932,445.546 C790.623998,445.546 790.344001,445.599666 790.092,445.707 C789.839999,445.814334 789.623001,445.965999 789.441,446.162 C789.258999,446.358001 789.116667,446.588999 789.014,446.855 C788.911333,447.121001 788.86,447.412665 788.86,447.73 L788.86,447.828 L792.85,447.828 L792.85,447.674 C792.85,447.029997 792.675002,446.514335 792.325,446.127 C791.974998,445.739665 791.51067,445.546 790.932,445.546 Z" id="Full-circle-Copy" fill="#6F6F6F"></path>
        <circle id="Oval-5-Copy-10" fill="#6EA6FF" style="mix-blend-mode: multiply;" opacity="0.5" cx="557" cy="358" r="20"></circle>
        <circle id="Oval-5-Copy-11" fill="#6EA6FF" style="mix-blend-mode: multiply;" opacity="0.5" cx="764.5" cy="339.5" r="49.5"></circle>
        <g id="Group-9-Copy-4" transform="translate(304.000000, 287.000000)">
            <polygon id="Fill-1" points="0 119.422785 119.422785 119.422785 119.422785 0 0 0"></polygon>
            <g id="Group-8" fill="#000000">
                <path d="M29.8556962,27.4687333 C28.5383136,27.4687333 27.4672405,28.5398064 27.4672405,29.857189 L27.4672405,33.589151 C27.4672405,34.9028016 28.5383136,35.9738747 29.8556962,35.9738747 L33.5876582,35.9738747 C34.9050408,35.9738747 35.9761139,34.9028016 35.9761139,33.589151 L35.9761139,29.857189 C35.9761139,28.5398064 34.9050408,27.4687333 33.5876582,27.4687333 L29.8556962,27.4687333 Z M33.5876582,38.6646194 L29.8556962,38.6646194 C27.0567247,38.6646194 24.7802278,36.3881225 24.7802278,33.589151 L24.7802278,29.857189 C24.7802278,27.0582175 27.0567247,24.7779887 29.8556962,24.7779887 L33.5876582,24.7779887 C36.3866297,24.7779887 38.6631266,27.0582175 38.6631266,29.857189 L38.6631266,33.589151 C38.6631266,36.3881225 36.3866297,38.6646194 33.5876582,38.6646194 Z" id="Fill-2"></path>
                <path d="M48.5155063,46.1285434 C47.1981237,46.1285434 46.1270506,47.1996165 46.1270506,48.5169991 L46.1270506,52.2489611 C46.1270506,53.5626118 47.1981237,54.6336849 48.5155063,54.6336849 L52.2474684,54.6336849 C53.5648509,54.6336849 54.6359241,53.5626118 54.6359241,52.2489611 L54.6359241,48.5169991 C54.6359241,47.1996165 53.5648509,46.1285434 52.2474684,46.1285434 L48.5155063,46.1285434 Z M52.2474684,57.3244295 L48.5155063,57.3244295 C45.7165348,57.3244295 43.440038,55.0479327 43.440038,52.2489611 L43.440038,48.5169991 C43.440038,45.7180276 45.7165348,43.4377988 48.5155063,43.4377988 L52.2474684,43.4377988 C55.0464399,43.4377988 57.3229367,45.7180276 57.3229367,48.5169991 L57.3229367,52.2489611 C57.3229367,55.0479327 55.0464399,57.3244295 52.2474684,57.3244295 Z" id="Fill-4"></path>
                <path d="M114.34769,108.226899 C114.34769,111.600592 111.600966,114.347316 108.227272,114.347316 L48.5158795,114.347316 C45.1421859,114.347316 42.3954618,111.600592 42.3954618,108.226899 L42.3954618,79.7147089 L70.9076517,79.7147089 C75.7629343,79.7147089 79.7150821,75.766293 79.7150821,70.9072785 L79.7150821,42.3950886 L108.227272,42.3950886 C111.600966,42.3950886 114.34769,45.1418127 114.34769,48.5155063 L114.34769,108.226899 Z M29.8560694,77.0276962 C28.5386868,77.0276962 27.4676137,75.9566231 27.4676137,74.6392405 L27.4676137,70.9072785 C27.4676137,69.5898959 28.5386868,68.5188228 29.8560694,68.5188228 L33.5880314,68.5188228 C34.905414,68.5188228 35.9764871,69.5898959 35.9764871,70.9072785 L35.9764871,74.6392405 C35.9764871,75.9566231 34.905414,77.0276962 33.5880314,77.0276962 L29.8560694,77.0276962 Z M68.519196,74.6392405 L68.519196,70.9072785 C68.519196,69.5898959 69.5902691,68.5188228 70.9076517,68.5188228 L74.6396137,68.5188228 C75.9569963,68.5188228 77.0280694,69.5898959 77.0280694,70.9072785 C77.0280694,74.2809722 74.2813453,77.0276962 70.9076517,77.0276962 C69.5902691,77.0276962 68.519196,75.9566231 68.519196,74.6392405 Z M5.07584155,70.9072785 L5.07584155,56.6996991 C5.79237826,57.0840911 6.59475009,57.3229367 7.46429725,57.3229367 L11.1962593,57.3229367 C13.9952308,57.3229367 16.2717276,55.0464399 16.2717276,52.2474684 L16.2717276,48.5155063 C16.2717276,45.7165348 13.9952308,43.440038 11.1962593,43.440038 L7.46429725,43.440038 C6.59475009,43.440038 5.79237826,43.6788835 5.07584155,44.0632756 L5.07584155,15.6481168 C5.79237826,16.0325089 6.59475009,16.2713544 7.46429725,16.2713544 L11.1962593,16.2713544 C13.9952308,16.2713544 16.2717276,13.9948576 16.2717276,11.1958861 L16.2717276,7.46392405 C16.2717276,6.59810886 16.0328821,5.79200506 15.64849,5.07546835 L44.0636488,5.07546835 C43.6792567,5.79200506 43.4404112,6.59810886 43.4404112,7.46392405 L43.4404112,11.1958861 C43.4404112,13.9948576 45.716908,16.2713544 48.5158795,16.2713544 L52.2478416,16.2713544 C55.0468131,16.2713544 57.3233099,13.9948576 57.3233099,11.1958861 L57.3233099,7.46392405 C57.3233099,6.59810886 57.0844643,5.79200506 56.7000722,5.07546835 L70.9076517,5.07546835 C74.2813453,5.07546835 77.0280694,7.82219241 77.0280694,11.1958861 L77.0280694,25.4034655 C76.3115327,25.0190734 75.5054289,24.7802278 74.6396137,24.7802278 L70.9076517,24.7802278 C68.1086802,24.7802278 65.8321833,27.0567247 65.8321833,29.8556962 L65.8321833,33.5876582 C65.8321833,36.3866297 68.1086802,38.6631266 70.9076517,38.6631266 L74.6396137,38.6631266 C75.5054289,38.6631266 76.3115327,38.424281 77.0280694,38.0398889 L77.0280694,66.4550478 C76.3115327,66.0706557 75.5054289,65.8318101 74.6396137,65.8318101 L70.9076517,65.8318101 C68.1086802,65.8318101 65.8321833,68.108307 65.8321833,70.9072785 L65.8321833,74.6392405 C65.8321833,75.5050557 66.0710289,76.3111595 66.455421,77.0276962 L38.0402621,77.0276962 C38.4246542,76.3111595 38.6634998,75.5050557 38.6634998,74.6392405 L38.6634998,70.9072785 C38.6634998,68.108307 36.3870029,65.8318101 33.5880314,65.8318101 L29.8560694,65.8318101 C27.0570979,65.8318101 24.780601,68.108307 24.780601,70.9072785 L24.780601,74.6392405 C24.780601,75.5050557 25.0194466,76.3111595 25.4038387,77.0276962 L11.1962593,77.0276962 C7.8225656,77.0276962 5.07584155,74.2809722 5.07584155,70.9072785 Z M5.07584155,48.5155063 C5.07584155,47.1981237 6.14691465,46.1270506 7.46429725,46.1270506 L11.1962593,46.1270506 C12.5136419,46.1270506 13.584715,47.1981237 13.584715,48.5155063 L13.584715,52.2474684 C13.584715,53.5648509 12.5136419,54.6359241 11.1962593,54.6359241 L7.46429725,54.6359241 C6.14691465,54.6359241 5.07584155,53.5648509 5.07584155,52.2474684 L5.07584155,48.5155063 Z M11.1962593,5.07546835 C12.5136419,5.07546835 13.584715,6.14654146 13.584715,7.46392405 L13.584715,11.1958861 C13.584715,12.5132687 12.5136419,13.5843418 11.1962593,13.5843418 L7.46429725,13.5843418 C6.14691465,13.5843418 5.07584155,12.5132687 5.07584155,11.1958861 C5.07584155,7.82219241 7.8225656,5.07546835 11.1962593,5.07546835 Z M52.2478416,5.07546835 C53.5652241,5.07546835 54.6362972,6.14654146 54.6362972,7.46392405 L54.6362972,11.1958861 C54.6362972,12.5132687 53.5652241,13.5843418 52.2478416,13.5843418 L48.5158795,13.5843418 C47.1984969,13.5843418 46.1274238,12.5132687 46.1274238,11.1958861 L46.1274238,7.46392405 C46.1274238,6.14654146 47.1984969,5.07546835 48.5158795,5.07546835 L52.2478416,5.07546835 Z M77.0280694,33.5876582 C77.0280694,34.9050408 75.9569963,35.9761139 74.6396137,35.9761139 L70.9076517,35.9761139 C69.5902691,35.9761139 68.519196,34.9050408 68.519196,33.5876582 L68.519196,29.8556962 C68.519196,28.5383136 69.5902691,27.4672405 70.9076517,27.4672405 L74.6396137,27.4672405 C75.9569963,27.4672405 77.0280694,28.5383136 77.0280694,29.8556962 L77.0280694,33.5876582 Z M108.227272,39.7080759 L79.7150821,39.7080759 L79.7150821,11.1958861 C79.7150821,6.33687152 75.7629343,2.3884557 70.9076517,2.3884557 L11.1962593,2.3884557 C6.34097668,2.3884557 2.38882889,6.33687152 2.38882889,11.1958861 L2.38882889,70.9072785 C2.38882889,75.766293 6.34097668,79.7147089 11.1962593,79.7147089 L39.7084491,79.7147089 L39.7084491,108.226899 C39.7084491,113.085913 43.6605969,117.034329 48.5158795,117.034329 L108.227272,117.034329 C113.082555,117.034329 117.034702,113.085913 117.034702,108.226899 L117.034702,48.5155063 C117.034702,43.6564918 113.082555,39.7080759 108.227272,39.7080759 Z" id="Fill-6"></path>
            </g>
        </g>
    </g>
</svg>