<?xml version="1.0" encoding="UTF-8"?>
<svg width="288px" height="288px" viewBox="0 0 288 288" version="1.1" xmlns="http://www.w3.org/2000/svg" xmlns:xlink="http://www.w3.org/1999/xlink">
    <!-- Generator: Sketch 52.5 (67469) - http://www.bohemiancoding.com/sketch -->
    <title>Artboard Copy 38</title>
    <desc>Created with Sketch.</desc>
    <g id="Artboard-Copy-38" stroke="none" stroke-width="1" fill="none" fill-rule="evenodd">
        <g id="Padding-don’t-Copy-10" fill="#FFFFFF">
            <rect id="Rectangle-3" x="0" y="0" width="288" height="288"></rect>
        </g>
        <g id="Group-27-Copy" transform="translate(35.000000, 153.000000)">
            <g id="Group-9" transform="translate(0.000000, 0.689655)">
                <polygon id="Fill-1" points="0 78.6206897 78.6206897 78.6206897 78.6206897 0 0 0"></polygon>
                <g id="Group-8" transform="translate(2.456897, 0.000000)" fill="#000000">
                    <path d="M34.3965517,3.34236207 C31.4974138,3.34236207 29.1387931,5.70098276 29.1387931,8.60012069 C29.1387931,11.4968017 31.4974138,13.8554224 34.3965517,13.8554224 C37.2956897,13.8554224 39.6543103,11.4968017 39.6543103,8.60012069 C39.6543103,5.70098276 37.2956897,3.34236207 34.3965517,3.34236207 M34.3965517,15.6268448 C30.5220259,15.6268448 27.3698276,12.4746466 27.3698276,8.60012069 C27.3698276,4.72313793 30.5220259,1.57093966 34.3965517,1.57093966 C38.2710776,1.57093966 41.4232759,4.72313793 41.4232759,8.60012069 C41.4232759,12.4746466 38.2710776,15.6268448 34.3965517,15.6268448" id="Fill-2"></path>
                    <path d="M22.112069,77.0492586 C10.7857759,77.0492586 1.57241379,67.8334397 1.57241379,56.5096034 C1.57241379,45.1833103 10.7857759,35.9674914 22.112069,35.9674914 L22.112069,37.7389138 C11.7611638,37.7389138 3.34137931,46.1586983 3.34137931,56.5096034 C3.34137931,66.8605086 11.7611638,75.2778362 22.112069,75.2778362 C32.4629741,75.2778362 40.8827586,66.8605086 40.8827586,56.5096034 L42.6517241,56.5096034 C42.6517241,67.8334397 33.4383621,77.0492586 22.112069,77.0492586" id="Fill-4"></path>
                    <path d="M63.8793103,74.5923621 C63.8105172,74.5923621 63.7417241,74.5825345 63.6753879,74.5677931 C63.4346121,74.5112845 63.2306897,74.3540431 63.1103017,74.1402931 L52.037069,54.5268879 C51.324569,53.2615862 49.9781897,52.4778362 48.5261638,52.4778362 L36.8534483,52.4802931 C30.947069,52.4802931 26.1413793,47.6746034 26.1413793,41.7682241 L26.1413793,24.0736552 C26.1413793,21.1499483 28.5196552,18.7692155 31.445819,18.7692155 C33.5071552,18.7692155 35.4309052,19.8797328 36.4628017,21.6658966 L44.7351724,35.9674914 L58.9655172,35.9674914 L58.9655172,37.7389138 L44.2241379,37.7389138 C43.9096552,37.7389138 43.6172845,37.5693879 43.4575862,37.2966724 L34.9321552,22.5528362 C34.2147414,21.3096466 32.8781897,20.5406379 31.445819,20.5406379 C29.4950431,20.5406379 27.9103448,22.1277931 27.9103448,24.0736552 L27.9103448,41.7682241 C27.9103448,46.6967586 31.9224569,50.7088707 36.8534483,50.7088707 L48.5261638,50.7064138 C50.6169828,50.7064138 52.5505603,51.8365862 53.5775431,53.6571466 L64.1815086,72.4425776 L70.7586207,68.0570172 L71.7413793,69.5286983 L64.3706897,74.4424914 C64.2232759,74.5407672 64.0512931,74.5923621 63.8793103,74.5923621" id="Fill-6"></path>
                </g>
            </g>
            <circle id="Oval-5-Copy-5" fill="#6EA6FF" style="mix-blend-mode: multiply;" opacity="0.5" cx="34.5603448" cy="47.2068966" r="13.1034483"></circle>
        </g>
        <path d="M45.5268949,42.7383863 C40.681143,42.7383863 36.7383863,46.681143 36.7383863,51.5268949 L36.7383863,109.473105 C36.7383863,114.318857 40.681143,118.261614 45.5268949,118.261614 L103.473105,118.261614 C108.318857,118.261614 112.261614,114.318857 112.261614,109.473105 L112.261614,51.5268949 C112.261614,46.681143 108.318857,42.7383863 103.473105,42.7383863 L45.5268949,42.7383863 Z M103.473105,120 L45.5268949,120 C39.7226161,120 35,115.277384 35,109.473105 L35,51.5268949 C35,45.7226161 39.7226161,41 45.5268949,41 L103.473105,41 C109.277384,41 114,45.7226161 114,51.5268949 L114,109.473105 C114,115.277384 109.277384,120 103.473105,120 Z" id="Fill-4-Copy" fill="#97C1FF"></path>
        <path d="M210.5,42.7383863 C189.677995,42.7383863 172.738386,59.6779951 172.738386,80.5 C172.738386,101.322005 189.677995,118.261614 210.5,118.261614 C231.322005,118.261614 248.261614,101.322005 248.261614,80.5 C248.261614,59.6779951 231.322005,42.7383863 210.5,42.7383863 M210.5,120 C188.719468,120 171,102.280532 171,80.5 C171,58.7194682 188.719468,41 210.5,41 C232.280532,41 250,58.7194682 250,80.5 C250,102.280532 232.280532,120 210.5,120" id="Fill-5-Copy" fill="#97C1FF"></path>
        <g id="Group-28-Copy" transform="translate(171.000000, 153.000000)">
            <g id="Group-9" transform="translate(0.034483, 0.689655)">
                <polygon id="Fill-1" fill="#FFFFFF" points="0 78.6206897 78.6206897 78.6206897 78.6206897 0 0 0"></polygon>
                <g id="Group-8" transform="translate(13.856897, 3.112069)">
                    <path d="M25.4534483,7.59975431 C12.3950431,7.59975431 1.76896552,18.2258319 1.76896552,31.2842371 C1.76896552,44.3450991 12.3950431,54.9687198 25.4534483,54.9687198 C38.5118534,54.9687198 49.137931,44.3450991 49.137931,31.2842371 C49.137931,18.2258319 38.5118534,7.59975431 25.4534483,7.59975431 M25.4534483,56.7376853 C11.4196552,56.7376853 0,45.3204871 0,31.2842371 C0,17.250444 11.4196552,5.83078879 25.4534483,5.83078879 C39.4872414,5.83078879 50.9068966,17.250444 50.9068966,31.2842371 C50.9068966,45.3204871 39.4872414,56.7376853 25.4534483,56.7376853" id="Fill-2" fill="#000000"></path>
                    <polygon id="Fill-4" fill="#000000" points="26.3376853 63.2241379 24.5687198 63.2241379 24.5687198 72.1672414 10.7118233 72.1672414 10.7118233 73.9362069 40.1945819 73.9362069 40.1945819 72.1672414 26.3376853 72.1672414"></polygon>
                    <path d="M25.4534483,64.108375 C17.9992241,64.108375 10.7022414,61.543375 4.90396552,56.8826422 L6.01202586,55.5043233 C11.5768966,59.975875 18.2989655,62.3394095 25.4534483,62.3394095 C42.5780172,62.3394095 56.5086207,48.408806 56.5086207,31.2842371 C56.5086207,17.7590216 47.8701724,5.87992672 35.008319,1.72777155 L35.55375,0.0423405172 C49.1453017,4.43281466 58.2775862,16.9900129 58.2775862,31.2842371 C58.2775862,49.384194 43.5534052,64.108375 25.4534483,64.108375" id="Fill-6" fill="#171717"></path>
                </g>
            </g>
            <circle id="Oval-5-Copy-7" fill="#6EA6FF" style="mix-blend-mode: multiply;" opacity="0.5" cx="39.6724138" cy="35.0862069" r="32.4310345"></circle>
        </g>
        <path d="M68.562,262.144 C68.1299978,262.144 67.7400017,262.070001 67.392,261.922 C67.0439983,261.773999 66.7480012,261.562001 66.504,261.286 C66.2599988,261.009999 66.0740006,260.672002 65.946,260.272 C65.8179994,259.871998 65.754,259.424002 65.754,258.928 C65.754,258.303997 65.8459991,257.718003 66.03,257.17 C66.2140009,256.621997 66.4519985,256.122002 66.744,255.67 C67.0360015,255.217998 67.3579982,254.818002 67.71,254.47 C68.0620018,254.121998 68.4059983,253.840001 68.742,253.624 L70.038,253.624 C69.5899978,253.952002 69.1900018,254.271998 68.838,254.584 C68.4859982,254.896002 68.1780013,255.221998 67.914,255.562 C67.6499987,255.902002 67.4260009,256.265998 67.242,256.654 C67.0579991,257.042002 66.9100006,257.479998 66.798,257.968 L66.858,257.992 C67.058001,257.647998 67.3159984,257.362001 67.632,257.134 C67.9480016,256.905999 68.3619974,256.792 68.874,256.792 C69.2340018,256.792 69.5659985,256.851999 69.87,256.972 C70.1740015,257.092001 70.4339989,257.263999 70.65,257.488 C70.8660011,257.712001 71.0359994,257.983998 71.16,258.304 C71.2840006,258.624002 71.346,258.979998 71.346,259.372 C71.346,259.780002 71.2800007,260.153998 71.148,260.494 C71.0159993,260.834002 70.8280012,261.125999 70.584,261.37 C70.3399988,261.614001 70.0460017,261.803999 69.702,261.94 C69.3579983,262.076001 68.9780021,262.144 68.562,262.144 Z M68.55,261.268 C69.1020028,261.268 69.5319985,261.116002 69.84,260.812 C70.1480015,260.507998 70.302,260.072003 70.302,259.504 L70.302,259.408 C70.302,258.839997 70.1480015,258.404002 69.84,258.1 C69.5319985,257.795998 69.1020028,257.644 68.55,257.644 C67.9979972,257.644 67.5680015,257.795998 67.26,258.1 C66.9519985,258.404002 66.798,258.839997 66.798,259.408 L66.798,259.504 C66.798,260.072003 66.9519985,260.507998 67.26,260.812 C67.5680015,261.116002 67.9979972,261.268 68.55,261.268 Z M73.17,255.808 L74.13,255.808 L74.13,256.816 L74.178,256.816 C74.3380008,256.423998 74.5719985,256.134001 74.88,255.946 C75.1880015,255.757999 75.5579978,255.664 75.99,255.664 C76.3740019,255.664 76.7219984,255.739999 77.034,255.892 C77.3460016,256.044001 77.6119989,256.259999 77.832,256.54 C78.0520011,256.820001 78.2199994,257.159998 78.336,257.56 C78.4520006,257.960002 78.51,258.407998 78.51,258.904 C78.51,259.400002 78.4520006,259.847998 78.336,260.248 C78.2199994,260.648002 78.0520011,260.987999 77.832,261.268 C77.6119989,261.548001 77.3460016,261.763999 77.034,261.916 C76.7219984,262.068001 76.3740019,262.144 75.99,262.144 C75.1499958,262.144 74.5460018,261.760004 74.178,260.992 L74.13,260.992 L74.13,264.4 L73.17,264.4 L73.17,255.808 Z M75.726,261.28 C76.2700027,261.28 76.6979984,261.110002 77.01,260.77 C77.3220016,260.429998 77.478,259.984003 77.478,259.432 L77.478,258.376 C77.478,257.823997 77.3220016,257.378002 77.01,257.038 C76.6979984,256.697998 76.2700027,256.528 75.726,256.528 C75.5099989,256.528 75.304001,256.558 75.108,256.618 C74.911999,256.678 74.7420007,256.759999 74.598,256.864 C74.4539993,256.968001 74.3400004,257.093999 74.256,257.242 C74.1719996,257.390001 74.13,257.547999 74.13,257.716 L74.13,260.02 C74.13,260.220001 74.1719996,260.397999 74.256,260.554 C74.3400004,260.710001 74.4539993,260.841999 74.598,260.95 C74.7420007,261.058001 74.911999,261.14 75.108,261.196 C75.304001,261.252 75.5099989,261.28 75.726,261.28 Z M79.218,262 L81.51,258.88 L79.314,255.808 L80.442,255.808 L82.014,258.112 L82.05,258.112 L83.682,255.808 L84.75,255.808 L82.566,258.808 L84.798,262 L83.706,262 L82.062,259.516 L82.026,259.516 L80.25,262 L79.218,262 Z" id="6px-copy" fill="#6F6F6F"></path>
        <path d="M186.22,262 L186.22,253.624 L191.212,253.624 L191.212,254.512 L187.228,254.512 L187.228,257.2 L190.864,257.2 L190.864,258.088 L187.228,258.088 L187.228,262 L186.22,262 Z M196.348,260.992 L196.3,260.992 C196.236,261.136001 196.158,261.277999 196.066,261.418 C195.974,261.558001 195.860001,261.681999 195.724,261.79 C195.587999,261.898001 195.424001,261.984 195.232,262.048 C195.039999,262.112 194.816001,262.144 194.56,262.144 C193.919997,262.144 193.412002,261.938002 193.036,261.526 C192.659998,261.113998 192.472,260.532004 192.472,259.78 L192.472,255.808 L193.432,255.808 L193.432,259.612 C193.432,260.724006 193.903995,261.28 194.848,261.28 C195.040001,261.28 195.225999,261.256 195.406,261.208 C195.586001,261.16 195.745999,261.088 195.886,260.992 C196.026001,260.896 196.138,260.774001 196.222,260.626 C196.306,260.477999 196.348,260.300001 196.348,260.092 L196.348,255.808 L197.308,255.808 L197.308,262 L196.348,262 L196.348,260.992 Z M200.368,262 C200.031998,262 199.778001,261.906001 199.606,261.718 C199.433999,261.529999 199.348,261.292001 199.348,261.004 L199.348,253.12 L200.308,253.12 L200.308,261.16 L201.22,261.16 L201.22,262 L200.368,262 Z M203.572,262 C203.235998,262 202.982001,261.906001 202.81,261.718 C202.637999,261.529999 202.552,261.292001 202.552,261.004 L202.552,253.12 L203.512,253.12 L203.512,261.16 L204.424,261.16 L204.424,262 L203.572,262 Z M210.952,262.144 C210.519998,262.144 210.132002,262.068001 209.788,261.916 C209.443998,261.763999 209.154001,261.548001 208.918,261.268 C208.681999,260.987999 208.502001,260.648002 208.378,260.248 C208.253999,259.847998 208.192,259.400002 208.192,258.904 C208.192,258.407998 208.253999,257.960002 208.378,257.56 C208.502001,257.159998 208.681999,256.820001 208.918,256.54 C209.154001,256.259999 209.443998,256.044001 209.788,255.892 C210.132002,255.739999 210.519998,255.664 210.952,255.664 C211.568003,255.664 212.061998,255.797999 212.434,256.066 C212.806002,256.334001 213.083999,256.683998 213.268,257.116 L212.464,257.524 C212.351999,257.203998 212.168001,256.956001 211.912,256.78 C211.655999,256.603999 211.336002,256.516 210.952,256.516 C210.663999,256.516 210.412001,256.562 210.196,256.654 C209.979999,256.746 209.800001,256.873999 209.656,257.038 C209.511999,257.202001 209.404,257.397999 209.332,257.626 C209.26,257.854001 209.224,258.103999 209.224,258.376 L209.224,259.432 C209.224,259.976003 209.369999,260.421998 209.662,260.77 C209.954001,261.118002 210.383997,261.292 210.952,261.292 C211.728004,261.292 212.287998,260.932004 212.632,260.212 L213.328,260.68 C213.127999,261.128002 212.830002,261.483999 212.434,261.748 C212.037998,262.012001 211.544003,262.144 210.952,262.144 Z M215.164,254.356 C214.955999,254.356 214.806,254.306001 214.714,254.206 C214.622,254.105999 214.576,253.976001 214.576,253.816 L214.576,253.66 C214.576,253.499999 214.622,253.370001 214.714,253.27 C214.806,253.169999 214.955999,253.12 215.164,253.12 C215.372001,253.12 215.522,253.169999 215.614,253.27 C215.706,253.370001 215.752,253.499999 215.752,253.66 L215.752,253.816 C215.752,253.976001 215.706,254.105999 215.614,254.206 C215.522,254.306001 215.372001,254.356 215.164,254.356 Z M214.684,255.808 L215.644,255.808 L215.644,262 L214.684,262 L214.684,255.808 Z M217.684,262 L217.684,255.808 L218.644,255.808 L218.644,256.948 L218.704,256.948 C218.816001,256.651999 219.015999,256.388001 219.304,256.156 C219.592001,255.923999 219.987997,255.808 220.492,255.808 L220.864,255.808 L220.864,256.768 L220.3,256.768 C219.779997,256.768 219.374001,256.865999 219.082,257.062 C218.789999,257.258001 218.644,257.503999 218.644,257.8 L218.644,262 L217.684,262 Z M224.332,262.144 C223.899998,262.144 223.512002,262.068001 223.168,261.916 C222.823998,261.763999 222.534001,261.548001 222.298,261.268 C222.061999,260.987999 221.882001,260.648002 221.758,260.248 C221.633999,259.847998 221.572,259.400002 221.572,258.904 C221.572,258.407998 221.633999,257.960002 221.758,257.56 C221.882001,257.159998 222.061999,256.820001 222.298,256.54 C222.534001,256.259999 222.823998,256.044001 223.168,255.892 C223.512002,255.739999 223.899998,255.664 224.332,255.664 C224.948003,255.664 225.441998,255.797999 225.814,256.066 C226.186002,256.334001 226.463999,256.683998 226.648,257.116 L225.844,257.524 C225.731999,257.203998 225.548001,256.956001 225.292,256.78 C225.035999,256.603999 224.716002,256.516 224.332,256.516 C224.043999,256.516 223.792001,256.562 223.576,256.654 C223.359999,256.746 223.180001,256.873999 223.036,257.038 C222.891999,257.202001 222.784,257.397999 222.712,257.626 C222.64,257.854001 222.604,258.103999 222.604,258.376 L222.604,259.432 C222.604,259.976003 222.749999,260.421998 223.042,260.77 C223.334001,261.118002 223.763997,261.292 224.332,261.292 C225.108004,261.292 225.667998,260.932004 226.012,260.212 L226.708,260.68 C226.507999,261.128002 226.210002,261.483999 225.814,261.748 C225.417998,262.012001 224.924003,262.144 224.332,262.144 Z M229.084,262 C228.747998,262 228.494001,261.906001 228.322,261.718 C228.149999,261.529999 228.064,261.292001 228.064,261.004 L228.064,253.12 L229.024,253.12 L229.024,261.16 L229.936,261.16 L229.936,262 L229.084,262 Z M233.656,262.144 C233.231998,262.144 232.850002,262.068001 232.51,261.916 C232.169998,261.763999 231.878001,261.546001 231.634,261.262 C231.389999,260.977999 231.202001,260.638002 231.07,260.242 C230.937999,259.845998 230.872,259.400002 230.872,258.904 C230.872,258.415998 230.937999,257.972002 231.07,257.572 C231.202001,257.171998 231.389999,256.830001 231.634,256.546 C231.878001,256.261999 232.169998,256.044001 232.51,255.892 C232.850002,255.739999 233.231998,255.664 233.656,255.664 C234.072002,255.664 234.443998,255.739999 234.772,255.892 C235.100002,256.044001 235.379999,256.253999 235.612,256.522 C235.844001,256.790001 236.021999,257.107998 236.146,257.476 C236.270001,257.844002 236.332,258.247998 236.332,258.688 L236.332,259.144 L231.88,259.144 L231.88,259.432 C231.88,259.696001 231.922,259.941999 232.006,260.17 C232.09,260.398001 232.209999,260.595999 232.366,260.764 C232.522001,260.932001 232.713999,261.064 232.942,261.16 C233.170001,261.256 233.427999,261.304 233.716,261.304 C234.108002,261.304 234.449999,261.212001 234.742,261.028 C235.034001,260.843999 235.259999,260.580002 235.42,260.236 L236.104,260.728 C235.903999,261.152002 235.592002,261.493999 235.168,261.754 C234.743998,262.014001 234.240003,262.144 233.656,262.144 Z M233.656,256.468 C233.391999,256.468 233.152001,256.514 232.936,256.606 C232.719999,256.698 232.534001,256.827999 232.378,256.996 C232.221999,257.164001 232.1,257.361999 232.012,257.59 C231.924,257.818001 231.88,258.067999 231.88,258.34 L231.88,258.424 L235.3,258.424 L235.3,258.292 C235.3,257.739997 235.150001,257.298002 234.85,256.966 C234.549998,256.633998 234.152002,256.468 233.656,256.468 Z" id="Full-circle-Copy" fill="#6F6F6F"></path>
    </g>
</svg>