<?xml version="1.0" encoding="UTF-8"?>
<svg width="928px" height="522px" viewBox="0 0 928 522" version="1.1" xmlns="http://www.w3.org/2000/svg" xmlns:xlink="http://www.w3.org/1999/xlink">
    <!-- Generator: Sketch 52.5 (67469) - http://www.bohemiancoding.com/sketch -->
    <title>Artboard Copy 3</title>
    <desc>Created with Sketch.</desc>
    <g id="Artboard-Copy-3" stroke="none" stroke-width="1" fill="none" fill-rule="evenodd">
        <rect id="Rectangle-3-Copy-45" fill="#FFFFFF" x="0" y="0" width="928" height="522"></rect>
        <g id="Group-40-Copy" transform="translate(307.000000, 78.000000)">
            <g id="Group-21" transform="translate(0.000000, 26.000000)">
                <polygon id="Fill-1" points="0 314 314 314 314 0 0 0"></polygon>
                <g id="Group-20" transform="translate(19.625000, 19.625000)" fill="#000000">
                    <path d="M137.375,72.223925 C101.451437,72.223925 72.22,101.455362 72.22,137.378925 C72.22,173.302487 101.451437,202.524113 137.375,202.524113 C173.298563,202.524113 202.53,173.302487 202.53,137.378925 C202.53,101.455362 173.298563,72.223925 137.375,72.223925 M137.375,209.598925 C97.555875,209.598925 65.155,177.19805 65.155,137.378925 C65.155,97.5499875 97.555875,65.1491125 137.375,65.1491125 C177.194125,65.1491125 209.595,97.5499875 209.595,137.378925 C209.595,177.19805 177.194125,209.598925 137.375,209.598925" id="Fill-2"></path>
                    <path d="M137.375,42.786425 C135.422313,42.786425 133.8425,41.2066125 133.8425,39.253925 L133.8425,9.816425 C133.8425,7.853925 135.422313,6.2741125 137.375,6.2741125 C139.327688,6.2741125 140.9075,7.853925 140.9075,9.816425 L140.9075,39.253925 C140.9075,41.2066125 139.327688,42.786425 137.375,42.786425" id="Fill-4"></path>
                    <path d="M67.9878688,71.5242937 C67.0851188,71.5242937 66.1823688,71.1808562 65.4954938,70.4939812 L44.6831813,49.6718562 C43.2996188,48.2981062 43.2996188,46.0510437 44.6831813,44.6772937 C46.0569313,43.2937312 48.2941813,43.2937312 49.6679313,44.6772937 L70.4802437,65.4896062 C71.8638063,66.8633562 71.8638063,69.1104187 70.4802437,70.4939812 C69.7933688,71.1808562 68.8906188,71.5242937 67.9878688,71.5242937" id="Fill-6"></path>
                    <path d="M39.25,140.911425 L9.8125,140.911425 C7.8598125,140.911425 6.28,139.331613 6.28,137.378925 C6.28,135.416425 7.8598125,133.836613 9.8125,133.836613 L39.25,133.836613 C41.2026875,133.836613 42.7825,135.416425 42.7825,137.378925 C42.7825,139.331613 41.2026875,140.911425 39.25,140.911425" id="Fill-8"></path>
                    <path d="M47.174575,231.110869 C46.271825,231.110869 45.369075,230.767431 44.6822,230.080556 C43.2986375,228.696994 43.2986375,226.449931 44.6822,225.076181 L65.4945125,204.263869 C66.8682625,202.880306 69.1055125,202.880306 70.4792625,204.263869 C71.862825,205.637619 71.862825,207.884681 70.4792625,209.258431 L49.66695,230.080556 C48.980075,230.767431 48.077325,231.110869 47.174575,231.110869" id="Fill-10"></path>
                    <path d="M137.375,268.473925 C135.422313,268.473925 133.8425,266.894113 133.8425,264.941425 L133.8425,235.503925 C133.8425,233.541425 135.422313,231.961613 137.375,231.961613 C139.327688,231.961613 140.9075,233.541425 140.9075,235.503925 L140.9075,264.941425 C140.9075,266.894113 139.327688,268.473925 137.375,268.473925" id="Fill-12"></path>
                    <path d="M227.575425,231.110869 C226.672675,231.110869 225.769925,230.767431 225.08305,230.080556 L204.270737,209.258431 C202.887175,207.884681 202.887175,205.637619 204.270737,204.263869 C205.644487,202.880306 207.881737,202.880306 209.255487,204.263869 L230.0678,225.076181 C231.451362,226.449931 231.451362,228.696994 230.0678,230.080556 C229.380925,230.767431 228.478175,231.110869 227.575425,231.110869" id="Fill-14"></path>
                    <path d="M264.9375,140.911425 L235.5,140.911425 C233.547312,140.911425 231.9675,139.331613 231.9675,137.378925 C231.9675,135.416425 233.547312,133.836613 235.5,133.836613 L264.9375,133.836613 C266.890188,133.836613 268.47,135.416425 268.47,137.378925 C268.47,139.331613 266.890188,140.911425 264.9375,140.911425" id="Fill-16"></path>
                    <path d="M206.762131,71.5242937 C205.859381,71.5242937 204.956631,71.1808562 204.269756,70.4939812 C202.886194,69.1104187 202.886194,66.8633562 204.269756,65.4896062 L225.082069,44.6772937 C226.455819,43.2937312 228.693069,43.2937312 230.066819,44.6772937 C231.450381,46.0510437 231.450381,48.2981062 230.066819,49.6718562 L209.254506,70.4939812 C208.567631,71.1808562 207.664881,71.5242937 206.762131,71.5242937" id="Fill-18"></path>
                </g>
            </g>
            <g id="Group-12" opacity="0.400000006" transform="translate(5.000000, 31.000000)" stroke="#6EA6FF">
                <path d="M152,-5 L152,309" id="Path-3" transform="translate(152.000000, 152.000000) rotate(15.000000) translate(-152.000000, -152.000000) "></path>
                <path d="M152,-5 L152,309" id="Path-3" transform="translate(152.000000, 152.000000) rotate(30.000000) translate(-152.000000, -152.000000) "></path>
                <path d="M152,-5 L152,309" id="Path-3" transform="translate(152.000000, 152.000000) rotate(60.000000) translate(-152.000000, -152.000000) "></path>
                <path d="M152,-5 L152,309" id="Path-3" transform="translate(152.000000, 152.000000) rotate(75.000000) translate(-152.000000, -152.000000) "></path>
                <path d="M152,-5 L152,309" id="Path-3" transform="translate(152.000000, 152.000000) rotate(105.000000) translate(-152.000000, -152.000000) "></path>
                <path d="M152,-5 L152,309" id="Path-3" transform="translate(152.000000, 152.000000) rotate(120.000000) translate(-152.000000, -152.000000) "></path>
                <path d="M152,-5 L152,309" id="Path-3" transform="translate(152.000000, 152.000000) rotate(150.000000) translate(-152.000000, -152.000000) "></path>
                <path d="M152,-5 L152,309" id="Path-3" transform="translate(152.000000, 152.000000) rotate(165.000000) translate(-152.000000, -152.000000) "></path>
            </g>
            <path d="M157,26 L157,340" id="Path-3" stroke="#6EA6FF"></path>
            <path d="M156.722871,25.7228714 L156.722871,339.722871" id="Path-3" stroke="#6EA6FF" transform="translate(156.722871, 182.722871) rotate(45.000000) translate(-156.722871, -182.722871) "></path>
            <path d="M157,26 L157,340" id="Path-3" stroke="#6EA6FF" transform="translate(157.000000, 183.000000) rotate(90.000000) translate(-157.000000, -183.000000) "></path>
            <path d="M156.722871,25.7228714 L156.722871,339.722871" id="Path-3" stroke="#6EA6FF" transform="translate(156.722871, 182.722871) rotate(135.000000) translate(-156.722871, -182.722871) "></path>
            <path d="M156.224,14.168 C155.057327,14.168 154.205669,13.7246711 153.669,12.838 C153.132331,11.9513289 152.864,10.710008 152.864,9.114 C152.864,7.51799202 153.132331,6.2766711 153.669,5.39 C154.205669,4.5033289 155.057327,4.06 156.224,4.06 C157.390672,4.06 158.242331,4.5033289 158.779,5.39 C159.315669,6.2766711 159.584,7.51799202 159.584,9.114 C159.584,10.710008 159.315669,11.9513289 158.779,12.838 C158.242331,13.7246711 157.390672,14.168 156.224,14.168 Z M156.224,13.146 C156.606669,13.146 156.933332,13.0666675 157.204,12.908 C157.474668,12.7493325 157.693999,12.5253348 157.862,12.236 C158.030001,11.9466652 158.153666,11.606002 158.233,11.214 C158.312334,10.821998 158.352,10.3880024 158.352,9.912 L158.352,8.316 C158.352,7.83999762 158.312334,7.40600196 158.233,7.014 C158.153666,6.62199804 158.030001,6.28133478 157.862,5.992 C157.693999,5.70266522 157.474668,5.47866746 157.204,5.32 C156.933332,5.16133254 156.606669,5.082 156.224,5.082 C155.841331,5.082 155.514668,5.16133254 155.244,5.32 C154.973332,5.47866746 154.754001,5.70266522 154.586,5.992 C154.417999,6.28133478 154.294334,6.62199804 154.215,7.014 C154.135666,7.40600196 154.096,7.83999762 154.096,8.316 L154.096,9.912 C154.096,10.3880024 154.135666,10.821998 154.215,11.214 C154.294334,11.606002 154.417999,11.9466652 154.586,12.236 C154.754001,12.5253348 154.973332,12.7493325 155.244,12.908 C155.514668,13.0666675 155.841331,13.146 156.224,13.146 Z M163.7,8.876 C163.363998,8.876 163.053668,8.81533394 162.769,8.694 C162.484332,8.57266606 162.237001,8.40466774 162.027,8.19 C161.816999,7.97533226 161.651334,7.72100147 161.53,7.427 C161.408666,7.13299853 161.348,6.81333506 161.348,6.468 C161.348,6.12266494 161.408666,5.80300147 161.53,5.509 C161.651334,5.21499853 161.816999,4.96066774 162.027,4.746 C162.237001,4.53133226 162.484332,4.36333394 162.769,4.242 C163.053668,4.12066606 163.363998,4.06 163.7,4.06 C164.036002,4.06 164.346332,4.12066606 164.631,4.242 C164.915668,4.36333394 165.162999,4.53133226 165.373,4.746 C165.583001,4.96066774 165.748666,5.21499853 165.87,5.509 C165.991334,5.80300147 166.052,6.12266494 166.052,6.468 C166.052,6.81333506 165.991334,7.13299853 165.87,7.427 C165.748666,7.72100147 165.583001,7.97533226 165.373,8.19 C165.162999,8.40466774 164.915668,8.57266606 164.631,8.694 C164.346332,8.81533394 164.036002,8.876 163.7,8.876 Z M163.7,7.98 C164.120002,7.98 164.453665,7.83300147 164.701,7.539 C164.948335,7.24499853 165.072,6.8880021 165.072,6.468 C165.072,6.0479979 164.948335,5.69100147 164.701,5.397 C164.453665,5.10299853 164.120002,4.956 163.7,4.956 C163.279998,4.956 162.946335,5.10299853 162.699,5.397 C162.451665,5.69100147 162.328,6.0479979 162.328,6.468 C162.328,6.8880021 162.451665,7.24499853 162.699,7.539 C162.946335,7.83300147 163.279998,7.98 163.7,7.98 Z" id="0째" fill="#6F6F6F"></path>
            <path d="M195.056,21 L195.056,19.964 L197.786,19.964 L197.786,12.292 L195.028,13.93 L194.566,13.034 L197.674,11.228 L198.962,11.228 L198.962,19.964 L201.482,19.964 L201.482,21 L195.056,21 Z M209.196,12.264 L204.912,12.264 L204.632,15.988 L204.73,15.988 C204.963335,15.6613317 205.226999,15.400001 205.521,15.204 C205.815001,15.007999 206.218664,14.91 206.732,14.91 C207.152002,14.91 207.539332,14.9799993 207.894,15.12 C208.248668,15.2600007 208.556665,15.4583321 208.818,15.715 C209.079335,15.971668 209.282333,16.2866648 209.427,16.66 C209.571667,17.0333352 209.644,17.4579976 209.644,17.934 C209.644,18.4100024 209.569334,18.8463313 209.42,19.243 C209.270666,19.6396687 209.053668,19.9803319 208.769,20.265 C208.484332,20.5496681 208.139002,20.7713325 207.733,20.93 C207.326998,21.0886675 206.867336,21.168 206.354,21.168 C205.943331,21.168 205.581668,21.1213338 205.269,21.028 C204.956332,20.9346662 204.678668,20.8086675 204.436,20.65 C204.193332,20.4913325 203.981001,20.314001 203.799,20.118 C203.616999,19.921999 203.451334,19.7166677 203.302,19.502 L204.184,18.83 C204.305334,19.026001 204.433666,19.2033325 204.569,19.362 C204.704334,19.5206675 204.853666,19.6559994 205.017,19.768 C205.180334,19.8800006 205.369332,19.966333 205.584,20.027 C205.798668,20.087667 206.055332,20.118 206.354,20.118 C207.026003,20.118 207.534665,19.9406684 207.88,19.586 C208.225335,19.2313316 208.398,18.7320032 208.398,18.088 L208.398,17.948 C208.398,17.3039968 208.225335,16.8046684 207.88,16.45 C207.534665,16.0953316 207.026003,15.918 206.354,15.918 C205.905998,15.918 205.553668,15.9996658 205.297,16.163 C205.040332,16.3263342 204.809334,16.5199989 204.604,16.744 L203.61,16.604 L203.96,11.228 L209.196,11.228 L209.196,12.264 Z M213.9,15.876 C213.563998,15.876 213.253668,15.8153339 212.969,15.694 C212.684332,15.5726661 212.437001,15.4046677 212.227,15.19 C212.016999,14.9753323 211.851334,14.7210015 211.73,14.427 C211.608666,14.1329985 211.548,13.8133351 211.548,13.468 C211.548,13.1226649 211.608666,12.8030015 211.73,12.509 C211.851334,12.2149985 212.016999,11.9606677 212.227,11.746 C212.437001,11.5313323 212.684332,11.3633339 212.969,11.242 C213.253668,11.1206661 213.563998,11.06 213.9,11.06 C214.236002,11.06 214.546332,11.1206661 214.831,11.242 C215.115668,11.3633339 215.362999,11.5313323 215.573,11.746 C215.783001,11.9606677 215.948666,12.2149985 216.07,12.509 C216.191334,12.8030015 216.252,13.1226649 216.252,13.468 C216.252,13.8133351 216.191334,14.1329985 216.07,14.427 C215.948666,14.7210015 215.783001,14.9753323 215.573,15.19 C215.362999,15.4046677 215.115668,15.5726661 214.831,15.694 C214.546332,15.8153339 214.236002,15.876 213.9,15.876 Z M213.9,14.98 C214.320002,14.98 214.653665,14.8330015 214.901,14.539 C215.148335,14.2449985 215.272,13.8880021 215.272,13.468 C215.272,13.0479979 215.148335,12.6910015 214.901,12.397 C214.653665,12.1029985 214.320002,11.956 213.9,11.956 C213.479998,11.956 213.146335,12.1029985 212.899,12.397 C212.651665,12.6910015 212.528,13.0479979 212.528,13.468 C212.528,13.8880021 212.651665,14.2449985 212.899,14.539 C213.146335,14.8330015 213.479998,14.98 213.9,14.98 Z" id="15째" fill="#6F6F6F"></path>
            <path d="M238.478,32.372 C239.14067,32.372 239.637665,32.2203349 239.969,31.917 C240.300335,31.6136651 240.466,31.2240024 240.466,30.748 L240.466,30.65 C240.466,30.1366641 240.305002,29.7516679 239.983,29.495 C239.660998,29.238332 239.238669,29.11 238.716,29.11 C238.211997,29.11 237.801335,29.2196656 237.484,29.439 C237.166665,29.6583344 236.905334,29.9546648 236.7,30.328 L235.832,29.656 C235.953334,29.459999 236.100332,29.2663343 236.273,29.075 C236.445668,28.8836657 236.648665,28.7133341 236.882,28.564 C237.115334,28.4146659 237.385998,28.2933338 237.694,28.2 C238.002002,28.1066662 238.351998,28.06 238.744,28.06 C239.154669,28.06 239.541998,28.1136661 239.906,28.221 C240.270002,28.3283339 240.584999,28.486999 240.851,28.697 C241.117001,28.907001 241.326999,29.1659985 241.481,29.474 C241.635001,29.7820015 241.712,30.131998 241.712,30.524 C241.712,30.8413349 241.663,31.1259987 241.565,31.378 C241.467,31.6300013 241.334001,31.8493324 241.166,32.036 C240.997999,32.2226676 240.799668,32.3813327 240.571,32.512 C240.342332,32.6426673 240.097335,32.7406663 239.836,32.806 L239.836,32.862 C240.097335,32.9180003 240.351665,33.0089994 240.599,33.135 C240.846335,33.2610006 241.065666,33.4243323 241.257,33.625 C241.448334,33.8256677 241.602333,34.0683319 241.719,34.353 C241.835667,34.6376681 241.894,34.9619982 241.894,35.326 C241.894,35.7460021 241.814667,36.1309982 241.656,36.481 C241.497333,36.8310017 241.273335,37.1296654 240.984,37.377 C240.694665,37.6243346 240.344669,37.8179993 239.934,37.958 C239.523331,38.0980007 239.070669,38.168 238.576,38.168 C238.155998,38.168 237.782668,38.1213338 237.456,38.028 C237.129332,37.9346662 236.840001,37.8086675 236.588,37.65 C236.335999,37.4913325 236.114334,37.314001 235.923,37.118 C235.731666,36.921999 235.561334,36.7166677 235.412,36.502 L236.294,35.83 C236.415334,36.026001 236.548333,36.2033325 236.693,36.362 C236.837667,36.5206675 236.998666,36.6559994 237.176,36.768 C237.353334,36.8800006 237.553999,36.966333 237.778,37.027 C238.002001,37.087667 238.263332,37.118 238.562,37.118 C239.25267,37.118 239.775332,36.9616682 240.13,36.649 C240.484668,36.3363318 240.662,35.8906696 240.662,35.312 L240.662,35.2 C240.662,34.6213304 240.484668,34.1756682 240.13,33.863 C239.775332,33.5503318 239.25267,33.394 238.562,33.394 L237.414,33.394 L237.414,32.372 L238.478,32.372 Z M247.424,38.168 C246.257328,38.168 245.405669,37.7246711 244.869,36.838 C244.332331,35.9513289 244.064,34.710008 244.064,33.114 C244.064,31.517992 244.332331,30.2766711 244.869,29.39 C245.405669,28.5033289 246.257328,28.06 247.424,28.06 C248.590673,28.06 249.442331,28.5033289 249.979,29.39 C250.515669,30.2766711 250.784,31.517992 250.784,33.114 C250.784,34.710008 250.515669,35.9513289 249.979,36.838 C249.442331,37.7246711 248.590673,38.168 247.424,38.168 Z M247.424,37.146 C247.806669,37.146 248.133332,37.0666675 248.404,36.908 C248.674668,36.7493325 248.893999,36.5253348 249.062,36.236 C249.230001,35.9466652 249.353666,35.606002 249.433,35.214 C249.512334,34.821998 249.552,34.3880024 249.552,33.912 L249.552,32.316 C249.552,31.8399976 249.512334,31.406002 249.433,31.014 C249.353666,30.621998 249.230001,30.2813348 249.062,29.992 C248.893999,29.7026652 248.674668,29.4786675 248.404,29.32 C248.133332,29.1613325 247.806669,29.082 247.424,29.082 C247.041331,29.082 246.714668,29.1613325 246.444,29.32 C246.173332,29.4786675 245.954001,29.7026652 245.786,29.992 C245.617999,30.2813348 245.494334,30.621998 245.415,31.014 C245.335666,31.406002 245.296,31.8399976 245.296,32.316 L245.296,33.912 C245.296,34.3880024 245.335666,34.821998 245.415,35.214 C245.494334,35.606002 245.617999,35.9466652 245.786,36.236 C245.954001,36.5253348 246.173332,36.7493325 246.444,36.908 C246.714668,37.0666675 247.041331,37.146 247.424,37.146 Z M254.9,32.876 C254.563998,32.876 254.253668,32.8153339 253.969,32.694 C253.684332,32.5726661 253.437001,32.4046677 253.227,32.19 C253.016999,31.9753323 252.851334,31.7210015 252.73,31.427 C252.608666,31.1329985 252.548,30.8133351 252.548,30.468 C252.548,30.1226649 252.608666,29.8030015 252.73,29.509 C252.851334,29.2149985 253.016999,28.9606677 253.227,28.746 C253.437001,28.5313323 253.684332,28.3633339 253.969,28.242 C254.253668,28.1206661 254.563998,28.06 254.9,28.06 C255.236002,28.06 255.546332,28.1206661 255.831,28.242 C256.115668,28.3633339 256.362999,28.5313323 256.573,28.746 C256.783001,28.9606677 256.948666,29.2149985 257.07,29.509 C257.191334,29.8030015 257.252,30.1226649 257.252,30.468 C257.252,30.8133351 257.191334,31.1329985 257.07,31.427 C256.948666,31.7210015 256.783001,31.9753323 256.573,32.19 C256.362999,32.4046677 256.115668,32.5726661 255.831,32.694 C255.546332,32.8153339 255.236002,32.876 254.9,32.876 Z M254.9,31.98 C255.320002,31.98 255.653665,31.8330015 255.901,31.539 C256.148335,31.2449985 256.272,30.8880021 256.272,30.468 C256.272,30.0479979 256.148335,29.6910015 255.901,29.397 C255.653665,29.1029985 255.320002,28.956 254.9,28.956 C254.479998,28.956 254.146335,29.1029985 253.899,29.397 C253.651665,29.6910015 253.528,30.0479979 253.528,30.468 C253.528,30.8880021 253.651665,31.2449985 253.899,31.539 C254.146335,31.8330015 254.479998,31.98 254.9,31.98 Z" id="30째" fill="#6F6F6F"></path>
            <path d="M274.074,65 L274.074,63.082 L269.356,63.082 L269.356,62.046 L273.444,55.228 L275.194,55.228 L275.194,62.102 L276.608,62.102 L276.608,63.082 L275.194,63.082 L275.194,65 L274.074,65 Z M270.462,62.102 L274.074,62.102 L274.074,56.138 L274.004,56.138 L270.462,62.102 Z M284.196,56.264 L279.912,56.264 L279.632,59.988 L279.73,59.988 C279.963334,59.6613317 280.226999,59.400001 280.521,59.204 C280.815001,59.007999 281.218664,58.91 281.732,58.91 C282.152002,58.91 282.539332,58.9799993 282.894,59.12 C283.248668,59.2600007 283.556665,59.4583321 283.818,59.715 C284.079335,59.9716679 284.282333,60.2866648 284.427,60.66 C284.571667,61.0333352 284.644,61.4579976 284.644,61.934 C284.644,62.4100024 284.569334,62.8463313 284.42,63.243 C284.270666,63.6396687 284.053668,63.9803319 283.769,64.265 C283.484332,64.5496681 283.139002,64.7713325 282.733,64.93 C282.326998,65.0886675 281.867336,65.168 281.354,65.168 C280.943331,65.168 280.581668,65.1213338 280.269,65.028 C279.956332,64.9346662 279.678668,64.8086675 279.436,64.65 C279.193332,64.4913325 278.981001,64.314001 278.799,64.118 C278.616999,63.921999 278.451334,63.7166677 278.302,63.502 L279.184,62.83 C279.305334,63.026001 279.433666,63.2033325 279.569,63.362 C279.704334,63.5206675 279.853666,63.6559994 280.017,63.768 C280.180334,63.8800006 280.369332,63.966333 280.584,64.027 C280.798668,64.087667 281.055332,64.118 281.354,64.118 C282.026003,64.118 282.534665,63.9406684 282.88,63.586 C283.225335,63.2313316 283.398,62.7320032 283.398,62.088 L283.398,61.948 C283.398,61.3039968 283.225335,60.8046684 282.88,60.45 C282.534665,60.0953316 282.026003,59.918 281.354,59.918 C280.905998,59.918 280.553668,59.9996658 280.297,60.163 C280.040332,60.3263342 279.809334,60.5199989 279.604,60.744 L278.61,60.604 L278.96,55.228 L284.196,55.228 L284.196,56.264 Z M288.9,59.876 C288.563998,59.876 288.253668,59.8153339 287.969,59.694 C287.684332,59.5726661 287.437001,59.4046677 287.227,59.19 C287.016999,58.9753323 286.851334,58.7210015 286.73,58.427 C286.608666,58.1329985 286.548,57.8133351 286.548,57.468 C286.548,57.1226649 286.608666,56.8030015 286.73,56.509 C286.851334,56.2149985 287.016999,55.9606677 287.227,55.746 C287.437001,55.5313323 287.684332,55.3633339 287.969,55.242 C288.253668,55.1206661 288.563998,55.06 288.9,55.06 C289.236002,55.06 289.546332,55.1206661 289.831,55.242 C290.115668,55.3633339 290.362999,55.5313323 290.573,55.746 C290.783001,55.9606677 290.948666,56.2149985 291.07,56.509 C291.191334,56.8030015 291.252,57.1226649 291.252,57.468 C291.252,57.8133351 291.191334,58.1329985 291.07,58.427 C290.948666,58.7210015 290.783001,58.9753323 290.573,59.19 C290.362999,59.4046677 290.115668,59.5726661 289.831,59.694 C289.546332,59.8153339 289.236002,59.876 288.9,59.876 Z M288.9,58.98 C289.320002,58.98 289.653665,58.8330015 289.901,58.539 C290.148335,58.2449985 290.272,57.8880021 290.272,57.468 C290.272,57.0479979 290.148335,56.6910015 289.901,56.397 C289.653665,56.1029985 289.320002,55.956 288.9,55.956 C288.479998,55.956 288.146335,56.1029985 287.899,56.397 C287.651665,56.6910015 287.528,57.0479979 287.528,57.468 C287.528,57.8880021 287.651665,58.2449985 287.899,58.539 C288.146335,58.8330015 288.479998,58.98 288.9,58.98 Z" id="45째" fill="#6F6F6F"></path>
        </g>
    </g>
</svg>