<?xml version="1.0" encoding="UTF-8"?>
<svg width="288px" height="288px" viewBox="0 0 288 288" version="1.1" xmlns="http://www.w3.org/2000/svg" xmlns:xlink="http://www.w3.org/1999/xlink">
    <!-- Generator: Sketch 52.5 (67469) - http://www.bohemiancoding.com/sketch -->
    <title>Artboard Copy 37</title>
    <desc>Created with Sketch.</desc>
    <g id="Artboard-Copy-37" stroke="none" stroke-width="1" fill="none" fill-rule="evenodd">
        <g id="Group">
            <g id="Padding-don’t-Copy-10" fill="#FFFFFF">
                <rect id="Rectangle-3" x="0" y="0" width="288" height="288"></rect>
            </g>
            <path d="M86.1342314,21.841128 L86.1342314,144.358369" id="Path-3-Copy-12" stroke="#97C1FF" stroke-width="5.24137931" stroke-linecap="square" transform="translate(86.134231, 83.099749) rotate(45.000000) translate(-86.134231, -83.099749) "></path>
            <path d="M202.593163,51.9561118 L202.593163,110.921629" id="Path-3-Copy-20" stroke="#97C1FF" stroke-width="5.24137931" stroke-linecap="square" transform="translate(202.593163, 81.438870) rotate(60.000000) translate(-202.593163, -81.438870) "></path>
            <path d="M93.5367776,197.731974 L93.5367776,231.800939" id="Path-3-Copy-25" stroke="#97C1FF" stroke-width="5.24137931" stroke-linecap="square" transform="translate(93.536778, 214.766457) scale(-1, 1) rotate(60.000000) translate(-93.536778, -214.766457) "></path>
            <path d="M231.984683,202.171139 L231.910729,240.428861" id="Path-3-Copy-26" stroke="#97C1FF" stroke-width="5.24137931" stroke-linecap="square" transform="translate(231.947706, 221.300000) scale(-1, 1) rotate(45.000000) translate(-231.947706, -221.300000) "></path>
            <g id="Group-7-Copy-3" transform="translate(45.862069, 44.793103)">
                <polygon id="Fill-1" points="0 78.6206897 78.6206897 78.6206897 78.6206897 0 0 0"></polygon>
                <g id="Group-6" fill="#000000">
                    <path d="M66.2605345,77.0730905 L7.29501724,77.0730905 C4.09859483,77.0730905 1.49674138,74.4712371 1.49674138,71.2748147 L1.49674138,12.3092974 C1.49674138,9.1104181 4.09859483,6.50856466 7.29501724,6.50856466 L39.2346724,6.50856466 L39.2346724,8.27998707 L7.29501724,8.27998707 C5.07398276,8.27998707 3.2657069,10.085806 3.2657069,12.3092974 L3.2657069,71.2748147 C3.2657069,73.4958491 5.07398276,75.3016681 7.29501724,75.3016681 L66.2605345,75.3016681 C68.481569,75.3016681 70.2898448,73.4958491 70.2898448,71.2748147 L70.2898448,39.3351595 L72.0588103,39.3351595 L72.0588103,71.2748147 C72.0588103,74.4712371 69.4569569,77.0730905 66.2605345,77.0730905" id="Fill-2"></path>
                    <polygon id="Fill-4" points="53.9760517 1.59550862 53.9760517 3.36693103 73.9506207 3.36693103 33.6968276 43.6207241 34.944931 44.8737414 75.2036379 4.61503448 75.2036379 24.5920603 76.9726034 24.5920603 76.9726034 1.59550862"></polygon>
                </g>
            </g>
            <g id="Group-4-Copy-14" transform="translate(166.413793, 44.793103)">
                <polygon id="Fill-1" points="0 78.6206897 78.6206897 78.6206897 78.6206897 0 0 0"></polygon>
                <path d="M11.8071078,64.2272069 L11.6572371,64.2272069 C8.072625,64.1756121 4.73615948,62.2174655 2.9450819,59.1144052 C2.06551293,57.5935862 1.5913319,55.8663879 1.57167672,54.1195345 C1.53482328,50.4292759 3.49296983,46.9920776 6.68447845,45.1494052 L56.783056,16.226819 C58.9574095,14.9688879 61.4265905,14.3325517 63.932625,14.421 C68.6547802,14.5610431 72.8830991,17.0867328 75.2441767,21.1750086 C76.4996509,23.3444483 77.1237026,25.8136293 77.0524526,28.31475 C76.9148664,33.0393621 74.3891767,37.2701379 70.298444,39.6336724 L29.3935733,63.251819 L28.5090905,61.7187155 L69.4139612,38.1030259 C72.9690905,36.0490603 75.1630991,32.3686293 75.2834871,28.2606983 C75.3473664,26.0937155 74.8043922,23.9463879 73.7135302,22.0570345 C71.6595647,18.506819 67.9840474,16.3103534 63.8785733,16.1850517 C61.7042198,16.155569 59.5593491,16.6666034 57.6699957,17.7574655 L7.56896121,46.6800517 C4.93025431,48.2057845 3.31115948,51.0484138 3.34064224,54.0998793 C3.35784052,55.5420776 3.74848707,56.9719914 4.47572845,58.2323793 C5.95723707,60.7973793 8.71878879,62.4164741 11.6842629,62.4557845 C13.1952543,62.5516034 14.7013319,62.0897069 16.0231422,61.3231552 L54.5423664,39.0857845 C56.1221509,38.1742759 57.1098233,36.4716466 57.1245647,34.6461724 C57.1319353,33.7371207 56.8911595,32.8329828 56.4317198,32.0320345 C55.5226681,30.4596207 53.8937457,29.4940603 52.0756422,29.4572069 C51.1027112,29.3835 50.2034871,29.6709569 49.3804267,30.1451379 L20.0549095,47.078069 L19.1704267,45.5449655 L48.495944,28.6144914 C49.6040043,27.9756983 50.8914181,27.6857845 52.1149526,27.6857845 C54.5546509,27.7398362 56.7437457,29.0370776 57.9648233,31.1500086 C58.5815043,32.2236724 58.9033578,33.4349224 58.8935302,34.6609138 C58.8763319,37.1104397 57.5471509,39.3928966 55.4268491,40.616431 L16.907625,62.8538017 C15.3524095,63.7554828 13.5908147,64.2272069 11.8071078,64.2272069" id="Fill-2" fill="#000000"></path>
            </g>
            <g id="Group-25-Copy-3" transform="translate(45.862069, 170.586207)">
                <g id="Group-7">
                    <polygon id="Fill-1" points="0 78.6206897 78.6206897 78.6206897 78.6206897 0 0 0"></polygon>
                    <g id="Group-6" fill="#000000">
                        <path d="M40.1945819,75.232875 L40.1945819,68.7933491 L38.4256164,68.7933491 L38.4256164,75.232875 C19.3011336,74.7660647 3.854625,59.319556 3.38535776,40.1950733 L9.82734052,40.1950733 L9.82734052,38.4261078 L3.38535776,38.4261078 C3.854625,19.2991681 19.3011336,3.85511638 38.4256164,3.38830603 L38.4256164,9.8278319 L40.1945819,9.8278319 L40.1945819,3.38830603 C59.3215216,3.85511638 74.7655733,19.2991681 75.2348405,38.4261078 L68.7928578,38.4261078 L68.7928578,40.1950733 L75.2348405,40.1950733 C74.7655733,59.319556 59.3215216,74.7660647 40.1945819,75.232875 M39.3100991,1.57265948 C18.5001853,1.57265948 1.5721681,18.5006767 1.5721681,39.3105905 C1.5721681,60.1205043 18.5001853,77.0485216 39.3100991,77.0485216 C60.1200129,77.0485216 77.0480302,60.1205043 77.0480302,39.3105905 C77.0480302,18.5006767 60.1200129,1.57265948 39.3100991,1.57265948" id="Fill-2"></path>
                        <polygon id="Fill-4" points="55.8894828 49.9032543 38.4258621 39.8201509 38.4258621 14.7401509 40.1948276 14.7401509 40.1948276 38.7980819 56.7739655 48.3726078"></polygon>
                    </g>
                </g>
            </g>
            <g id="Group-7-Copy-4" transform="translate(166.413793, 170.586207)">
                <polygon id="Fill-1" points="0 78.6206897 78.6206897 78.6206897 78.6206897 0 0 0"></polygon>
                <g id="Group-6" fill="#000000">
                    <path d="M76.1637931,32.8251207 L2.45689655,32.8251207 C1.96797414,32.8251207 1.57241379,32.4295603 1.57241379,31.9406379 L1.57241379,2.45787931 C1.57241379,1.9665 1.96797414,1.57093966 2.45689655,1.57093966 C2.94581897,1.57093966 3.34137931,1.9665 3.34137931,2.45787931 L3.34137931,31.0536983 L75.2793103,31.0536983 L75.2793103,2.45787931 C75.2793103,1.9665 75.6748707,1.57093966 76.1637931,1.57093966 C76.6527155,1.57093966 77.0482759,1.9665 77.0482759,2.45787931 L77.0482759,31.9406379 C77.0482759,32.4295603 76.6527155,32.8251207 76.1637931,32.8251207" id="Fill-2"></path>
                    <path d="M54.9359612,41.4456336 L74.0285043,60.5381767 L54.9359612,60.5381767 L54.9359612,41.4456336 Z M76.790056,60.7961509 L54.6779871,38.6840819 C54.5182888,38.5243836 54.2971681,38.4261078 54.0514784,38.4261078 L2.45665086,38.4261078 C1.96772845,38.4261078 1.5721681,38.8216681 1.5721681,39.3105905 L1.5721681,76.1640388 C1.5721681,76.6529612 1.96772845,77.0485216 2.45665086,77.0485216 C2.94557328,77.0485216 3.34113362,76.6529612 3.34113362,76.1640388 L3.34113362,40.1950733 L53.1669957,40.1950733 L53.1669957,61.4226595 C53.1669957,61.9115819 53.562556,62.3071422 54.0514784,62.3071422 L75.2790647,62.3071422 L75.2790647,76.1640388 C75.2790647,76.6529612 75.674625,77.0485216 76.1635474,77.0485216 C76.6524698,77.0485216 77.0480302,76.6529612 77.0480302,76.1640388 L77.0480302,61.4226595 C77.0480302,61.1769698 76.9472974,60.9558491 76.790056,60.7961509 Z" id="Fill-4"></path>
                </g>
            </g>
        </g>
    </g>
</svg>