<?xml version="1.0" encoding="UTF-8"?>
<svg width="288px" height="288px" viewBox="0 0 288 288" version="1.1" xmlns="http://www.w3.org/2000/svg" xmlns:xlink="http://www.w3.org/1999/xlink">
    <!-- Generator: Sketch 52.4 (67378) - http://www.bohemiancoding.com/sketch -->
    <title>Artboard</title>
    <desc>Created with Sketch.</desc>
    <g id="Artboard" stroke="none" stroke-width="1" fill="none" fill-rule="evenodd">
        <rect id="Rectangle-3-Copy-45" fill="#FFFFFF" x="0" y="0" width="288" height="288"></rect>
        <g id="Group-7-Copy-3" transform="translate(37.000000, 37.000000)">
            <polygon id="Fill-1" points="0 214 214 214 214 0 0 0"></polygon>
            <g id="Group-6" transform="translate(16.894737, 33.789474)">
                <path d="M71.6365,91.9642474 C71.6365,90.8435632 70.7298158,89.9368789 69.6091316,89.9368789 L58.3459737,89.9368789 C57.2252895,89.9368789 56.3186053,90.8435632 56.3186053,91.9642474 C56.3186053,93.0849316 57.2252895,93.9916158 58.3459737,93.9916158 L69.6091316,93.9916158 C70.7298158,93.9916158 71.6365,93.0849316 71.6365,91.9642474 Z M180.213342,15.1495105 L82.8996579,15.1495105 L82.8996579,41.2800368 L82.8996579,129.357932 L135.363447,129.357932 C136.394026,119.885616 144.340184,112.463195 154.082816,112.463195 C163.819816,112.463195 171.771605,119.885616 172.802184,129.357932 L180.213342,129.357932 L180.213342,15.1495105 Z M168.950184,131.3853 C168.950184,123.185721 162.282395,116.517932 154.082816,116.517932 C145.883237,116.517932 139.215447,123.185721 139.215447,131.3853 C139.215447,139.584879 145.883237,146.252668 154.082816,146.252668 C162.282395,146.252668 168.950184,139.584879 168.950184,131.3853 Z M61.9501842,131.3853 C61.9501842,123.185721 55.2823947,116.517932 47.0828158,116.517932 C38.8832368,116.517932 32.2154474,123.185721 32.2154474,131.3853 C32.2154474,139.584879 38.8832368,146.252668 47.0828158,146.252668 C55.2823947,146.252668 61.9501842,139.584879 61.9501842,131.3853 Z M24.5565,129.357932 L28.3634474,129.357932 C29.3940263,119.885616 37.3401842,112.463195 47.0828158,112.463195 C56.8198158,112.463195 64.7716053,119.885616 65.8021842,129.357932 L78.8449211,129.357932 L78.8449211,82.7284579 L15.3207105,82.7284579 L15.3207105,120.122142 C15.3207105,125.213089 19.4655526,129.357932 24.5565,129.357932 Z M16.8018158,78.6737211 L61.9501842,78.6737211 L61.9501842,43.3074053 L37.2219211,43.3074053 L16.8018158,78.6737211 Z M66.0105526,78.6680895 L78.8449211,78.6680895 L78.8449211,43.3074053 L66.0105526,43.3074053 L66.0105526,78.6680895 Z M184.268079,13.1221421 L184.268079,131.3853 C184.268079,132.505984 183.361395,133.412668 182.240711,133.412668 L172.802184,133.412668 C171.771605,142.884984 163.819816,150.307405 154.082816,150.307405 C144.340184,150.307405 136.394026,142.884984 135.363447,133.412668 L80.8722895,133.412668 L65.8021842,133.412668 C64.7716053,142.884984 56.8198158,150.307405 47.0828158,150.307405 C37.3401842,150.307405 29.3940263,142.884984 28.3634474,133.412668 L24.5565,133.412668 C17.2298158,133.412668 11.2659737,127.454458 11.2659737,120.122142 L11.2659737,80.7010895 C11.2659737,80.6560368 11.2828684,80.6166158 11.2885,80.5828263 C11.2941316,80.4476684 11.3335526,80.3237737 11.3673421,80.1942474 C11.4011316,80.0590895 11.4349211,79.9183 11.5025,79.8000368 C11.5193947,79.7606158 11.5137632,79.7211947 11.5362895,79.6874053 L34.2935,40.2663526 C34.3385526,40.1987737 34.4061316,40.1537211 34.4568158,40.0861421 C34.5412895,39.9735105 34.6257632,39.8608789 34.7383947,39.7595105 C34.8397632,39.6806684 34.9411316,39.6130895 35.0537632,39.5511421 C35.1663947,39.4891947 35.2790263,39.4272474 35.4029211,39.3821947 C35.5324474,39.3371421 35.6676053,39.3146158 35.8027632,39.2977211 C35.8872368,39.2864579 35.9660789,39.2526684 36.0505526,39.2526684 L78.8449211,39.2526684 L78.8449211,13.1221421 C78.8449211,12.0014579 79.7516053,11.0947737 80.8722895,11.0947737 L182.240711,11.0947737 C183.361395,11.0947737 184.268079,12.0014579 184.268079,13.1221421 Z M173.004921,80.7010895 C173.004921,79.5804053 172.098237,78.6737211 170.977553,78.6737211 L125.924921,78.6737211 C124.804237,78.6737211 123.897553,79.5804053 123.897553,80.7010895 C123.897553,81.8217737 124.804237,82.7284579 125.924921,82.7284579 L170.977553,82.7284579 C172.098237,82.7284579 173.004921,81.8217737 173.004921,80.7010895 Z M173.004921,63.8063526 C173.004921,62.6856684 172.098237,61.7789842 170.977553,61.7789842 L114.661763,61.7789842 C113.541079,61.7789842 112.634395,62.6856684 112.634395,63.8063526 C112.634395,64.9270368 113.541079,65.8337211 114.661763,65.8337211 L170.977553,65.8337211 C172.098237,65.8337211 173.004921,64.9270368 173.004921,63.8063526 Z M173.004921,46.9116158 C173.004921,45.7909316 172.098237,44.8842474 170.977553,44.8842474 L103.398605,44.8842474 C102.277921,44.8842474 101.371237,45.7909316 101.371237,46.9116158 C101.371237,48.0323 102.277921,48.9389842 103.398605,48.9389842 L170.977553,48.9389842 C172.098237,48.9389842 173.004921,48.0323 173.004921,46.9116158 Z M170.977553,32.0442474 L92.1354474,32.0442474 C91.0147632,32.0442474 90.1080789,31.1375632 90.1080789,30.0168789 C90.1080789,28.8961947 91.0147632,27.9895105 92.1354474,27.9895105 L170.977553,27.9895105 C172.098237,27.9895105 173.004921,28.8961947 173.004921,30.0168789 C173.004921,31.1375632 172.098237,32.0442474 170.977553,32.0442474 Z" id="Fill-2" fill="#DDDDDD"></path>
                <path d="M63.9753,84.4736842 C63.9753,83.353 63.0686158,82.4463158 61.9479316,82.4463158 L50.6847737,82.4463158 C49.5640895,82.4463158 48.6574053,83.353 48.6574053,84.4736842 C48.6574053,85.5943684 49.5640895,86.5010526 50.6847737,86.5010526 L61.9479316,86.5010526 C63.0686158,86.5010526 63.9753,85.5943684 63.9753,84.4736842 Z M172.552142,7.65894737 L75.2384579,7.65894737 L75.2384579,33.7894737 L75.2384579,121.867368 L127.702247,121.867368 C128.732826,112.395053 136.678984,104.972632 146.421616,104.972632 C156.158616,104.972632 164.110405,112.395053 165.140984,121.867368 L172.552142,121.867368 L172.552142,7.65894737 Z M161.288984,123.894737 C161.288984,115.695158 154.621195,109.027368 146.421616,109.027368 C138.222037,109.027368 131.554247,115.695158 131.554247,123.894737 C131.554247,132.094316 138.222037,138.762105 146.421616,138.762105 C154.621195,138.762105 161.288984,132.094316 161.288984,123.894737 Z M54.2889842,123.894737 C54.2889842,115.695158 47.6211947,109.027368 39.4216158,109.027368 C31.2220368,109.027368 24.5542474,115.695158 24.5542474,123.894737 C24.5542474,132.094316 31.2220368,138.762105 39.4216158,138.762105 C47.6211947,138.762105 54.2889842,132.094316 54.2889842,123.894737 Z M16.8953,121.867368 L20.7022474,121.867368 C21.7328263,112.395053 29.6789842,104.972632 39.4216158,104.972632 C49.1586158,104.972632 57.1104053,112.395053 58.1409842,121.867368 L71.1837211,121.867368 L71.1837211,75.2378947 L7.65951053,75.2378947 L7.65951053,112.631579 C7.65951053,117.722526 11.8043526,121.867368 16.8953,121.867368 Z M9.14061579,71.1831579 L54.2889842,71.1831579 L54.2889842,35.8168421 L29.5607211,35.8168421 L9.14061579,71.1831579 Z M58.3493526,71.1775263 L71.1837211,71.1775263 L71.1837211,35.8168421 L58.3493526,35.8168421 L58.3493526,71.1775263 Z M176.606879,5.63157895 L176.606879,123.894737 C176.606879,125.015421 175.700195,125.922105 174.579511,125.922105 L165.140984,125.922105 C164.110405,135.394421 156.158616,142.816842 146.421616,142.816842 C136.678984,142.816842 128.732826,135.394421 127.702247,125.922105 L73.2110895,125.922105 L58.1409842,125.922105 C57.1104053,135.394421 49.1586158,142.816842 39.4216158,142.816842 C29.6789842,142.816842 21.7328263,135.394421 20.7022474,125.922105 L16.8953,125.922105 C9.56861579,125.922105 3.60477368,119.963895 3.60477368,112.631579 L3.60477368,73.2105263 C3.60477368,73.1654737 3.62166842,73.1316842 3.6273,73.0922632 C3.63293158,72.9571053 3.67235263,72.8332105 3.70614211,72.7036842 C3.73993158,72.5685263 3.77372105,72.4277368 3.8413,72.3094737 C3.85819474,72.2700526 3.85256316,72.2306316 3.87508947,72.1968421 L26.6323,32.7757895 C26.6773526,32.7082105 26.7449316,32.6631579 26.7956158,32.5955789 C26.8800895,32.4829474 26.9645632,32.3703158 27.0771947,32.2689474 C27.1785632,32.1901053 27.2799316,32.1225263 27.3925632,32.0605789 C27.5051947,31.9986316 27.6178263,31.9366842 27.7417211,31.8916316 C27.8712474,31.8465789 28.0064053,31.8240526 28.1415632,31.8071579 C28.2260368,31.7958947 28.3048789,31.7621053 28.3893526,31.7621053 L71.1837211,31.7621053 L71.1837211,5.63157895 C71.1837211,4.51089474 72.0904053,3.60421053 73.2110895,3.60421053 L174.579511,3.60421053 C175.700195,3.60421053 176.606879,4.51089474 176.606879,5.63157895 Z M165.343721,73.2105263 C165.343721,72.0898421 164.437037,71.1831579 163.316353,71.1831579 L118.263721,71.1831579 C117.143037,71.1831579 116.236353,72.0898421 116.236353,73.2105263 C116.236353,74.3312105 117.143037,75.2378947 118.263721,75.2378947 L163.316353,75.2378947 C164.437037,75.2378947 165.343721,74.3312105 165.343721,73.2105263 Z M165.343721,56.3157895 C165.343721,55.1951053 164.437037,54.2884211 163.316353,54.2884211 L107.000563,54.2884211 C105.879879,54.2884211 104.973195,55.1951053 104.973195,56.3157895 C104.973195,57.4364737 105.879879,58.3431579 107.000563,58.3431579 L163.316353,58.3431579 C164.437037,58.3431579 165.343721,57.4364737 165.343721,56.3157895 Z M165.343721,39.4210526 C165.343721,38.3003684 164.437037,37.3936842 163.316353,37.3936842 L95.7374053,37.3936842 C94.6167211,37.3936842 93.7100368,38.3003684 93.7100368,39.4210526 C93.7100368,40.5417368 94.6167211,41.4484211 95.7374053,41.4484211 L163.316353,41.4484211 C164.437037,41.4484211 165.343721,40.5417368 165.343721,39.4210526 Z M163.316353,24.5536842 L84.4742474,24.5536842 C83.3535632,24.5536842 82.4468789,23.647 82.4468789,22.5263158 C82.4468789,21.4056316 83.3535632,20.4989474 84.4742474,20.4989474 L163.316353,20.4989474 C164.437037,20.4989474 165.343721,21.4056316 165.343721,22.5263158 C165.343721,23.647 164.437037,24.5536842 163.316353,24.5536842 Z" id="Fill-4" fill="#000000"></path>
            </g>
        </g>
    </g>
</svg>