<?xml version="1.0" encoding="UTF-8"?>
<svg width="288px" height="288px" viewBox="0 0 288 288" version="1.1" xmlns="http://www.w3.org/2000/svg" xmlns:xlink="http://www.w3.org/1999/xlink">
    <!-- Generator: Sketch 52.5 (67469) - http://www.bohemiancoding.com/sketch -->
    <title>Artboard Copy 33</title>
    <desc>Created with Sketch.</desc>
    <defs>
        <linearGradient x1="101.819342%" y1="-1.82373851%" x2="-1.84157683%" y2="101.84182%" id="linearGradient-1">
            <stop stop-color="#BB8EFF" offset="0%"></stop>
            <stop stop-color="#0062FF" offset="100%"></stop>
        </linearGradient>
    </defs>
    <g id="Artboard-Copy-33" stroke="none" stroke-width="1" fill="none" fill-rule="evenodd">
        <g id="Padding-don’t-Copy-10" fill="#FFFFFF">
            <rect id="Rectangle-3" x="0" y="0" width="288" height="288"></rect>
        </g>
        <g id="Group-23-Copy-6" transform="translate(44.000000, 42.000000)">
            <polygon id="Fill-1" fill="#FFFFFF" points="0 79 79 79 79 0 0 0"></polygon>
            <g id="Group-22" transform="translate(1.316667, 1.316667)" fill="#000000">
                <path d="M38.1845183,54.5749117 C36.9587017,54.5749117 35.7651433,54.435345 34.615035,54.178595 L42.2299767,46.9948617 C43.0101017,46.2621367 43.1799517,45.1021533 42.6460433,44.1745617 L36.01136,32.6524117 C35.8882517,32.4404283 35.9290683,32.1757783 36.1074767,32.0065867 L40.6947433,27.7228117 C41.4814517,26.9874533 41.6545933,25.8222033 41.1160767,24.88737 L39.3556933,21.83797 C43.8139267,22.1546283 47.7830183,24.2599783 50.5506517,27.441045 L47.2721517,33.1494533 C46.8653017,33.8604533 46.8653017,34.7380117 47.2721517,35.4444033 L50.0305683,40.2403617 C50.4400517,40.9513617 51.2043767,41.392445 52.0253183,41.392445 L54.2597017,41.392445 C52.7639683,48.89942 46.1246767,54.5749117 38.1845183,54.5749117 M21.7920183,38.1837283 C21.7920183,35.842695 22.2884017,33.6162117 23.1764933,31.600395 L24.3121183,33.5563033 C24.7235767,34.2613783 25.486585,34.6998283 26.30226,34.6998283 L30.8579267,34.6998283 C31.0448933,34.6998283 31.218035,34.7985783 31.3121767,34.95987 L33.18316,38.2001867 C33.3062683,38.41217 33.26611,38.6794533 33.0890183,38.8460117 L30.582085,41.2041617 C29.79801,41.937545 29.6268433,43.1014783 30.163385,44.0317033 L31.8210683,46.9033533 C31.91521,47.0653033 31.91521,47.2647783 31.8210683,47.4267283 L29.231185,51.903395 C24.7564933,48.9738117 21.7920183,43.9197867 21.7920183,38.1837283 M37.2918183,21.8169033 L39.5768933,25.7748033 C39.7000017,25.9887617 39.66116,26.25407 39.481435,26.4226033 L34.8948267,30.70967 C34.1081183,31.4450283 33.9343183,32.6069867 34.4702017,33.539845 L41.1055433,45.061995 C41.227335,45.271345 41.1884933,45.5366533 41.0114017,45.7025533 L32.6334517,53.6051867 C31.992235,53.3741117 31.3714267,53.1015617 30.7703683,52.7947783 L33.358935,48.31877 C33.7703933,47.609745 33.7710517,46.7275783 33.3615683,46.01592 L31.703885,43.1449283 C31.581435,42.9322867 31.6196183,42.6676367 31.7980267,42.5010783 L34.3075933,40.1409533 C35.0877183,39.405595 35.258885,38.2410033 34.7223433,37.3127533 L32.8500433,34.0724367 C32.4418767,33.3614367 31.6775517,32.919695 30.8579267,32.919695 L26.30226,32.919695 C26.1152933,32.919695 25.9421517,32.8216033 25.8493267,32.6622867 L24.1462183,29.7287533 C26.87501,25.21522 31.71771,22.1177617 37.2918183,21.8169033 M54.511185,39.6123117 L52.0253183,39.6123117 C51.8383517,39.6123117 51.6638933,39.51422 51.5710683,39.3529283 L48.8119933,34.5576283 C48.7198267,34.3963367 48.7198267,34.1981783 48.81331,34.0368867 L51.7277517,28.9604783 C53.5243433,31.5898617 54.5770183,34.7656617 54.5770183,38.1837283 C54.5770183,38.66497 54.5520017,39.1416033 54.511185,39.6123117 M38.1845183,20.0124117 C38.0205933,20.0124117 37.8586433,20.02097 37.696035,20.02492 C37.69011,20.0262367 37.684185,20.02492 37.67826,20.0255783 C31.1475933,20.2053033 25.4701267,23.8458867 22.413485,29.1777283 C22.3990017,29.1961617 22.39176,29.2178867 22.3792517,29.2376367 C20.876935,31.8801867 20.0145183,34.93222 20.0145183,38.1837283 C20.0145183,44.87832 23.6570767,50.7348533 29.0606767,53.8869533 C29.0738433,53.8955117 29.0804267,53.9086783 29.0942517,53.9165783 C29.1153183,53.9290867 29.13836,53.933695 29.160085,53.9442283 C30.210785,54.5485783 31.3260017,55.0502283 32.4945433,55.43667 C32.5050767,55.44062 32.51561,55.442595 32.5261433,55.4472033 C34.3082517,56.03312 36.20886,56.3537283 38.1845183,56.3537283 C48.203035,56.3537283 56.3545183,48.2029033 56.3545183,38.1837283 C56.3545183,28.163895 48.203035,20.0124117 38.1845183,20.0124117" id="Fill-2"></path>
                <path d="M49.4362908,67.8997758 L48.8049492,66.2368258 C56.8412242,63.1821592 63.1855825,56.8292425 66.2112825,48.8081092 L67.8748908,49.4348425 C64.6694658,57.9332675 57.9491992,64.6620925 49.4362908,67.8997758" id="Fill-4"></path>
                <path d="M26.9305075,67.8997758 C18.4175992,64.6620925 11.6973325,57.9332675 8.4919075,49.4348425 L10.1555158,48.8081092 C13.1812158,56.8292425 19.5255742,63.1821592 27.5618492,66.2368258 L26.9305075,67.8997758 Z" id="Fill-6"></path>
                <path d="M66.2122042,27.5633633 C63.1641208,19.5468383 56.8191042,13.2018217 48.8045542,10.15703 L49.4365542,8.49342167 C57.9251042,11.7218883 64.6453708,18.4408383 67.8731792,26.9320217 L66.2122042,27.5633633 Z" id="Fill-8"></path>
                <path d="M10.1541992,27.5633633 L8.49322417,26.9320217 C11.7210325,18.4408383 18.4419575,11.7218883 26.9305075,8.49342167 L27.5618492,10.15703 C19.5472992,13.2018217 13.2029408,19.5468383 10.1541992,27.5633633" id="Fill-10"></path>
                <path d="M38.1845183,2.04201833 C35.270735,2.04201833 32.9013933,4.41201833 32.9013933,7.32382667 C32.9013933,7.48314333 32.89876,7.64509333 32.9191683,7.80375167 C33.1805267,10.5549267 35.4419017,12.6062933 38.1845183,12.6062933 C40.927135,12.6062933 43.1898267,10.5549267 43.4478933,7.83271833 C43.4702767,7.64706833 43.4676433,7.48577667 43.4676433,7.32382667 C43.4676433,4.41201833 41.0983017,2.04201833 38.1845183,2.04201833 M38.1845183,14.3857683 C34.520235,14.3857683 31.4978267,11.6392017 31.15286,8.00191 C31.1265267,7.79387667 31.1238933,7.56016833 31.1238933,7.32382667 C31.1238933,3.43044333 34.291135,0.262543333 38.1845183,0.262543333 C42.07856,0.262543333 45.2451433,3.43044333 45.2451433,7.32382667 C45.2451433,7.55819333 45.24251,7.79124333 45.21486,8.02561 C44.8725267,11.6392017 41.8488017,14.3857683 38.1845183,14.3857683" id="Fill-12"></path>
                <path d="M38.1845183,2.04201833 C35.270735,2.04201833 32.9013933,4.41201833 32.9013933,7.32382667 C32.9013933,7.48314333 32.89876,7.64509333 32.9191683,7.80375167 C33.1805267,10.5549267 35.4419017,12.6062933 38.1845183,12.6062933 C40.927135,12.6062933 43.1898267,10.5549267 43.4478933,7.83271833 C43.4702767,7.64706833 43.4676433,7.48577667 43.4676433,7.32382667 C43.4676433,4.41201833 41.0983017,2.04201833 38.1845183,2.04201833 M38.1845183,14.3857683 C34.520235,14.3857683 31.4978267,11.6392017 31.15286,8.00191 C31.1265267,7.79387667 31.1238933,7.56016833 31.1238933,7.32382667 C31.1238933,3.43044333 34.291135,0.262543333 38.1845183,0.262543333 C42.07856,0.262543333 45.2451433,3.43044333 45.2451433,7.32382667 C45.2451433,7.55819333 45.24251,7.79124333 45.21486,8.02561 C44.8725267,11.6392017 41.8488017,14.3857683 38.1845183,14.3857683" id="Fill-14"></path>
                <path d="M38.1845183,63.7607683 C35.4419017,63.7607683 33.1805267,65.812135 32.92246,68.5343433 C32.89876,68.7219683 32.9013933,68.88326 32.9013933,69.0425767 C32.9013933,71.9550433 35.270735,74.3250433 38.1845183,74.3250433 C41.0983017,74.3250433 43.4676433,71.9550433 43.4676433,69.0425767 C43.4676433,68.881285 43.4702767,68.719335 43.4498683,68.5580433 C43.1898267,65.812135 40.927135,63.7607683 38.1845183,63.7607683 M38.1845183,76.1045183 C34.291135,76.1045183 31.1238933,72.9366183 31.1238933,69.0425767 C31.1238933,68.806235 31.1265267,68.573185 31.15681,68.336185 C31.4978267,64.7272017 34.520235,61.9812933 38.1845183,61.9812933 C41.8488017,61.9812933 44.8725267,64.7272017 45.2174933,68.3651517 C45.24251,68.5745017 45.2451433,68.8088683 45.2451433,69.0425767 C45.2451433,72.9366183 42.07856,76.1045183 38.1845183,76.1045183" id="Fill-16"></path>
                <path d="M68.9558083,32.9013933 C68.8234833,32.9013933 68.6905,32.9013933 68.558175,32.9178517 C65.8122667,33.1785517 63.758925,35.4392683 63.758925,38.1832017 C63.758925,40.9264767 65.8122667,43.18851 68.5338167,43.4465767 C68.7221,43.470935 68.8801,43.47291 69.0427083,43.4656683 C71.9564917,43.4656683 74.3264917,41.0956683 74.3264917,38.1832017 C74.3264917,35.2424267 71.8577417,32.9468183 68.9558083,32.9013933 M69.0427083,45.2451433 C68.809,45.2451433 68.5772667,45.24251 68.3435583,45.2135433 C64.7273333,44.87121 61.9827417,41.8481433 61.9827417,38.1832017 C61.9827417,34.5189183 64.7273333,31.4951933 68.3672583,31.150885 C68.5772667,31.1245517 68.809,31.1219183 69.0427083,31.1219183 C72.9360917,31.1219183 76.102675,34.2898183 76.102675,38.1832017 C76.102675,42.0772433 72.9360917,45.2451433 69.0427083,45.2451433" id="Fill-18"></path>
                <path d="M7.4023,32.9013933 C4.457575,32.77631 2.040175,35.24506 2.040175,38.1832017 C2.03951667,41.124635 4.425975,43.4900267 7.41085833,43.4656683 C7.54318333,43.4656683 7.676825,43.4656683 7.80980833,43.4485517 C10.5544,43.18851 12.6077417,40.9264767 12.6077417,38.1832017 C12.6077417,35.4392683 10.5544,33.1785517 7.83416667,32.920485 C7.676825,32.9013933 7.538575,32.9013933 7.4023,32.9013933 M7.32395833,45.2451433 C3.430575,45.2451433 0.263991667,42.0772433 0.263991667,38.1832017 C0.263991667,34.2898183 3.430575,31.1219183 7.32395833,31.1219183 C7.55766667,31.1219183 7.79071667,31.1245517 8.024425,31.1535183 C11.64065,31.4951933 14.383925,34.5189183 14.383925,38.1832017 C14.383925,41.8481433 11.64065,44.87121 8.00006667,45.2161767 C7.79071667,45.24251 7.55766667,45.2451433 7.32395833,45.2451433" id="Fill-20"></path>
            </g>
        </g>
        <g id="Group-4-Copy-24" transform="translate(165.000000, 42.000000)">
            <polygon id="Fill-1" fill="#FFFFFF" points="0 79 79 79 79 0 0 0"></polygon>
            <path d="M71.5697208,58.36046 C70.2234292,58.36046 68.9054458,57.5770433 68.1292708,56.316335 C67.9679792,56.0530017 67.6809458,55.89171 67.3721875,55.89171 L66.6565792,55.89171 C66.1654625,55.89171 65.7678292,56.2893433 65.7678292,56.7817767 L65.7678292,65.76671 L49.3753292,65.76671 C48.8842125,65.76671 48.4865792,66.1643433 48.4865792,66.6567767 L48.4865792,67.2229433 C48.4865792,67.54816 48.6636708,67.8470433 48.9480708,68.0017517 C50.2463042,68.715385 51.0540792,70.062335 51.0540792,71.5185683 C51.0540792,73.751635 49.2377375,75.5673183 47.0053292,75.5673183 C44.7722625,75.5673183 42.9559208,73.751635 42.9559208,71.5185683 C42.9559208,70.13541 43.7018125,68.8167683 44.9026125,68.0787767 C45.1659458,67.917485 45.3259208,67.6304517 45.3259208,67.3216933 L45.3259208,66.6567767 C45.3259208,66.1643433 44.9282875,65.76671 44.4378292,65.76671 L35.4509208,65.76671 L35.4509208,58.4322183 C36.5444125,59.507935 37.9947208,60.1392767 39.4818958,60.1392767 C42.7037792,60.1392767 45.3259208,57.5256933 45.3259208,54.3130267 C45.3259208,51.0990433 42.7037792,48.48546 39.4818958,48.48546 C37.9236208,48.48546 36.5042542,49.0476767 35.4509208,50.0351767 L35.4509208,40.3892767 L65.7678292,40.3892767 L65.7678292,51.8442767 C65.7678292,52.3360517 66.1654625,52.7330267 66.6565792,52.7330267 L67.2497375,52.7330267 C67.5736375,52.7330267 67.8725208,52.5552767 68.0292042,52.2702183 C68.7171625,51.0147767 70.0410708,50.2642767 71.5697208,50.2642767 C73.8152958,50.2642767 75.6428292,52.07996 75.6428292,54.3130267 C75.6428292,56.5447767 73.8152958,58.36046 71.5697208,58.36046 Z M14.9102625,55.89171 C11.6975958,55.89171 9.0840125,58.5052933 9.0840125,61.7192767 C9.0840125,63.2591183 9.68309583,64.69626 10.7357708,65.76671 L3.35717083,65.76671 L3.35717083,40.3892767 L12.3440792,40.3892767 C12.8345375,40.3892767 13.2321708,39.9923017 13.2321708,39.5005267 L13.2321708,38.7618767 C13.2321708,38.4537767 13.0721958,38.1667433 12.8075458,38.0054517 C11.5889708,37.257585 10.8608542,35.9705433 10.8608542,34.5630267 C10.8608542,32.32996 12.6771958,30.5142767 14.9102625,30.5142767 C17.1426708,30.5142767 18.9590125,32.32996 18.9590125,34.5630267 C18.9590125,36.0205767 18.1512375,37.3708183 16.8510292,38.0897183 C16.5686042,38.2464017 16.3928292,38.545285 16.3928292,38.8685267 L16.3928292,39.5005267 C16.3928292,39.9923017 16.7904625,40.3892767 17.2815792,40.3892767 L33.6740792,40.3892767 L33.6740792,51.8442767 C33.6740792,52.3360517 34.0717125,52.7330267 34.5628292,52.7330267 L35.1605958,52.7330267 C35.4838375,52.7330267 35.7814042,52.55791 35.9374292,52.275485 C36.6346042,51.0147767 37.9591708,50.2642767 39.4818958,50.2642767 C41.7241792,50.2642767 43.5490792,52.07996 43.5490792,54.3130267 C43.5490792,56.5447767 41.7241792,58.36046 39.4818958,58.36046 C38.1230958,58.36046 36.7985292,57.5770433 36.0236708,56.316335 C35.8617208,56.0530017 35.5753458,55.89171 35.2665875,55.89171 L34.5628292,55.89171 C34.0717125,55.89171 33.6740792,56.2893433 33.6740792,56.7817767 L33.6740792,65.76671 L19.0722458,65.76671 C20.1236042,64.69626 20.7358542,63.2472683 20.7358542,61.7192767 C20.7358542,58.5052933 18.1222708,55.89171 14.9102625,55.89171 Z M3.35717083,13.2330267 L12.3440792,13.2330267 C12.8345375,13.2330267 13.2321708,12.8360517 13.2321708,12.3442767 L13.2321708,11.6036517 C13.2321708,11.2948933 13.0721958,11.00786 12.8088625,10.8465683 C11.6080625,10.1085767 10.8621708,8.789935 10.8621708,7.40677667 C10.8621708,5.17371 12.6785125,3.35802667 14.9115792,3.35802667 C17.1439875,3.35802667 18.9603292,5.17371 18.9603292,7.40677667 C18.9603292,8.86235167 18.1525542,10.20996 16.8530042,10.9235933 C16.5686042,11.080935 16.3928292,11.3798183 16.3928292,11.7024017 L16.3928292,12.3442767 C16.3928292,12.8360517 16.7904625,13.2330267 17.2815792,13.2330267 L33.6740792,13.2330267 L33.6740792,24.6880267 C33.6740792,25.1798017 34.0717125,25.5767767 34.5628292,25.5767767 L35.1553292,25.5767767 C35.4798875,25.5767767 35.7787708,25.3990267 35.9354542,25.1139683 C36.6234125,23.8585267 37.9473208,23.1080267 39.4759708,23.1080267 C41.7215458,23.1080267 43.5490792,24.92371 43.5490792,27.1567767 C43.5490792,29.3885267 41.7215458,31.20421 39.4759708,31.20421 C38.1296792,31.20421 36.8116958,30.4207933 36.0355208,29.160085 C35.8742292,28.8967517 35.5871958,28.73546 35.2784375,28.73546 L34.5628292,28.73546 C34.0717125,28.73546 33.6740792,29.1330933 33.6740792,29.6255267 L33.6740792,38.61046 L19.0722458,38.61046 C20.1236042,37.54001 20.7358542,36.0910183 20.7358542,34.5630267 C20.7358542,31.3490433 18.1222708,28.73546 14.9102625,28.73546 C11.6975958,28.73546 9.0840125,31.3490433 9.0840125,34.5630267 C9.0840125,36.1028683 9.68309583,37.54001 10.7357708,38.61046 L3.35717083,38.61046 L3.35717083,13.2330267 Z M44.4378292,13.2330267 C44.9282875,13.2330267 45.3259208,12.8360517 45.3259208,12.3442767 L45.3259208,11.6036517 C45.3259208,11.2948933 45.1659458,11.00786 44.9026125,10.8465683 C43.7018125,10.1085767 42.9559208,8.789935 42.9559208,7.40677667 C42.9559208,5.17371 44.7722625,3.35802667 47.0053292,3.35802667 C49.2377375,3.35802667 51.0540792,5.17371 51.0540792,7.40677667 C51.0540792,8.86235167 50.2463042,10.20996 48.9467542,10.9235933 C48.6623542,11.080935 48.4865792,11.3798183 48.4865792,11.7024017 L48.4865792,12.3442767 C48.4865792,12.8360517 48.8842125,13.2330267 49.3753292,13.2330267 L65.7678292,13.2330267 L65.7678292,22.88156 C64.7118625,21.9006433 63.2786708,21.32921 61.7427792,21.32921 C58.5169458,21.32921 55.8928292,23.9427933 55.8928292,27.1567767 C55.8928292,30.3694433 58.5169458,32.9830267 61.7427792,32.9830267 C63.2134958,32.9830267 64.6624875,32.3490517 65.7678292,31.2720183 L65.7678292,38.61046 L35.4509208,38.61046 L35.4509208,31.2647767 C36.5430958,32.3464183 37.9920875,32.9830267 39.4759708,32.9830267 C42.7018042,32.9830267 45.3259208,30.3694433 45.3259208,27.1567767 C45.3259208,23.9427933 42.7018042,21.32921 39.4759708,21.32921 C37.9400792,21.32921 36.5068875,21.9006433 35.4509208,22.88156 L35.4509208,13.2330267 L44.4378292,13.2330267 Z M71.5697208,48.48546 C70.0338292,48.48546 68.6006375,49.0568933 67.5446708,50.03781 L67.5446708,39.5005267 L67.5446708,29.6255267 C67.5446708,29.1330933 67.1470375,28.73546 66.6565792,28.73546 L65.9653292,28.73546 C65.6605208,28.73546 65.3774375,28.8921433 65.2148292,29.15021 C64.4116625,30.41816 63.0818292,31.20421 61.7427792,31.20421 C59.4972042,31.20421 57.6696708,29.3885267 57.6696708,27.1567767 C57.6696708,24.92371 59.4972042,23.1080267 61.7427792,23.1080267 C63.2714292,23.1080267 64.5946792,23.8585267 65.2832958,25.1139683 C65.4399792,25.3990267 65.7388625,25.5767767 66.0634208,25.5767767 L66.6565792,25.5767767 C67.1470375,25.5767767 67.5446708,25.1798017 67.5446708,24.6880267 L67.5446708,12.3442767 C67.5446708,11.8518433 67.1470375,11.45421 66.6565792,11.45421 L51.1613875,11.45421 C52.2160375,10.3863933 52.8309208,8.93740167 52.8309208,7.40677667 C52.8309208,4.19279333 50.2173375,1.57921 47.0053292,1.57921 C43.7926625,1.57921 41.1790792,4.19279333 41.1790792,7.40677667 C41.1790792,8.920285 41.7939625,10.3765183 42.8426875,11.45421 L34.5628292,11.45421 L19.0676375,11.45421 C20.1222875,10.3863933 20.7371708,8.93740167 20.7371708,7.40677667 C20.7371708,4.19279333 18.1235875,1.57921 14.9115792,1.57921 C11.6989125,1.57921 9.08532917,4.19279333 9.08532917,7.40677667 C9.08532917,8.920285 9.7002125,10.3765183 10.7489375,11.45421 L2.46907917,11.45421 C1.9779625,11.45421 1.58032917,11.8518433 1.58032917,12.3442767 L1.58032917,39.5005267 L1.58032917,66.6567767 C1.58032917,67.1485517 1.9779625,67.5455267 2.46907917,67.5455267 L12.3440792,67.5455267 C12.8345375,67.5455267 13.2321708,67.1485517 13.2321708,66.6567767 L13.2321708,65.9181267 C13.2321708,65.6100267 13.0721958,65.3229933 12.8075458,65.1617017 C11.5889708,64.413835 10.8608542,63.1267933 10.8608542,61.7192767 C10.8608542,59.48621 12.6771958,57.6705267 14.9102625,57.6705267 C17.1426708,57.6705267 18.9590125,59.48621 18.9590125,61.7192767 C18.9590125,63.1768267 18.1512375,64.5270683 16.8510292,65.2459683 C16.5686042,65.4026517 16.3928292,65.701535 16.3928292,66.0247767 L16.3928292,66.6567767 C16.3928292,67.1485517 16.7904625,67.5455267 17.2815792,67.5455267 L34.5628292,67.5455267 L42.7702708,67.5455267 C41.7663125,68.6159767 41.1790792,70.0412683 41.1790792,71.5185683 C41.1790792,74.7325517 43.7926625,77.346135 47.0053292,77.346135 C50.2173375,77.346135 52.8309208,74.7325517 52.8309208,71.5185683 C52.8309208,70.0221767 52.2450042,68.6061017 51.2351208,67.5455267 L66.6565792,67.5455267 C67.1470375,67.5455267 67.5446708,67.1485517 67.5446708,66.6567767 L67.5446708,58.4210267 C68.6368458,59.5026683 70.0858375,60.1392767 71.5697208,60.1392767 C74.7955542,60.1392767 77.4196708,57.5256933 77.4196708,54.3130267 C77.4196708,51.0990433 74.7955542,48.48546 71.5697208,48.48546 Z" id="Fill-2" fill="#8A3FFC"></path>
        </g>
        <g id="Group-69-Copy-5" transform="translate(44.000000, 168.000000)">
            <polygon id="Fill-1" fill="#FFFFFF" points="0 79 79 79 79 0 0 0"></polygon>
            <g id="Group-68" transform="translate(0.658333, 1.316667)">
                <path d="M70.936651,28.3083333 C70.936651,43.3059896 58.7780573,55.4645833 43.780401,55.4645833 C28.7827448,55.4645833 16.624151,43.3059896 16.624151,28.3083333 C16.624151,13.3106771 28.7827448,1.15208333 43.780401,1.15208333 C58.7780573,1.15208333 70.936651,13.3106771 70.936651,28.3083333" id="Fill-2" fill="#F7F1FF"></path>
                <path d="M70.936651,28.3083333 C70.936651,43.3059896 58.7780573,55.4645833 43.780401,55.4645833 C28.7827448,55.4645833 16.624151,43.3059896 16.624151,28.3083333 C16.624151,13.3106771 28.7827448,1.15208333 43.780401,1.15208333 C58.7780573,1.15208333 70.936651,13.3106771 70.936651,28.3083333 Z" id="Stroke-4" stroke="#000000" stroke-width="0.5" stroke-linecap="round"></path>
                <path d="M51.186651,20.9020833 C51.186651,24.9928021 47.8711198,28.3083333 43.780401,28.3083333 C39.6896823,28.3083333 36.374151,24.9928021 36.374151,20.9020833 C36.374151,16.8113646 39.6896823,13.4958333 43.780401,13.4958333 C47.8711198,13.4958333 51.186651,16.8113646 51.186651,20.9020833" id="Fill-6" fill="#E6D6FF"></path>
                <path d="M58.592901,40.6520833 C58.592901,44.7428021 55.2773698,48.0583333 51.186651,48.0583333 C47.0959323,48.0583333 43.780401,44.7428021 43.780401,40.6520833 C43.780401,36.5613646 47.0959323,33.2458333 51.186651,33.2458333 C55.2773698,33.2458333 58.592901,36.5613646 58.592901,40.6520833" id="Fill-8" fill="#E6D6FF"></path>
                <path d="M17.3028104,22.2473052 C18.5075604,21.400524 19.9764667,20.9018365 21.5614042,20.9018365 C25.6521229,20.9018365 28.9676542,24.2173677 28.9676542,28.3080865 C28.9676542,32.3988052 25.6521229,35.7143365 21.5614042,35.7143365 C19.9888104,35.7143365 18.5297792,35.225524 17.3299667,34.3886177" id="Fill-10" fill="#E6D6FF"></path>
                <path d="M51.1190073,2.15735833 C50.627726,5.77160833 47.5294448,8.55882708 43.7794135,8.55882708 C40.0293823,8.55882708 36.931101,5.77160833 36.4422885,2.15735833" id="Fill-12" fill="#E6D6FF"></path>
                <path d="M68.8814167,17.8521896 C67.9951354,18.2249708 67.0224479,18.4323458 66.0003854,18.4323458 C61.9096667,18.4323458 58.5941354,15.1192833 58.5941354,11.0260958 C58.5941354,9.35968958 59.1446667,7.82165833 60.0753854,6.58234583" id="Fill-14" fill="#E6D6FF"></path>
                <path d="M43.780401,14.3855708 C40.185901,14.3855708 37.262901,17.3085708 37.262901,20.9030708 C37.262901,24.4975708 40.185901,27.4181021 43.780401,27.4181021 C47.374901,27.4181021 50.297901,24.4975708 50.297901,20.9030708 C50.297901,17.3085708 47.374901,14.3855708 43.780401,14.3855708 M43.780401,29.1980708 C39.2058073,29.1980708 35.485401,25.4751958 35.485401,20.9030708 C35.485401,16.3284771 39.2058073,12.6056021 43.780401,12.6056021 C48.3549948,12.6056021 52.075401,16.3284771 52.075401,20.9030708 C52.075401,25.4751958 48.3549948,29.1980708 43.780401,29.1980708" id="Fill-16" fill="#8A3FFC"></path>
                <path d="M51.186651,34.1355708 C47.592151,34.1355708 44.669151,37.0585708 44.669151,40.6530708 C44.669151,44.2475708 47.592151,47.1681021 51.186651,47.1681021 C54.781151,47.1681021 57.704151,44.2475708 57.704151,40.6530708 C57.704151,37.0585708 54.781151,34.1355708 51.186651,34.1355708 M51.186651,48.9480708 C46.6120573,48.9480708 42.891651,45.2251958 42.891651,40.6530708 C42.891651,36.0784771 46.6120573,32.3556021 51.186651,32.3556021 C55.7612448,32.3556021 59.481651,36.0784771 59.481651,40.6530708 C59.481651,45.2251958 55.7612448,48.9480708 51.186651,48.9480708" id="Fill-18" fill="#8A3FFC"></path>
                <path d="M3.04602604,6.08958333 C3.04602604,6.76848958 2.49302604,7.32395833 1.81165104,7.32395833 C1.13027604,7.32395833 0.577276042,6.76848958 0.577276042,6.08958333 C0.577276042,5.40820833 1.13027604,4.85520833 1.81165104,4.85520833 C2.49302604,4.85520833 3.04602604,5.40820833 3.04602604,6.08958333" id="Fill-20" fill="#8A3FFC"></path>
                <path d="M17.858526,11.0270833 C17.858526,11.7084583 17.305526,12.2614583 16.624151,12.2614583 C15.942776,12.2614583 15.389776,11.7084583 15.389776,11.0270833 C15.389776,10.3457083 15.942776,9.79270833 16.624151,9.79270833 C17.305526,9.79270833 17.858526,10.3457083 17.858526,11.0270833" id="Fill-22" fill="#8A3FFC"></path>
                <path d="M10.452276,15.9645833 C10.452276,16.6434896 9.89927604,17.1989583 9.21790104,17.1989583 C8.53652604,17.1989583 7.98352604,16.6434896 7.98352604,15.9645833 C7.98352604,15.2832083 8.53652604,14.7302083 9.21790104,14.7302083 C9.89927604,14.7302083 10.452276,15.2832083 10.452276,15.9645833" id="Fill-24" fill="#8A3FFC"></path>
                <path d="M12.921026,20.9020833 C12.921026,21.5809896 12.368026,22.1364583 11.686651,22.1364583 C11.005276,22.1364583 10.452276,21.5809896 10.452276,20.9020833 C10.452276,20.2207083 11.005276,19.6677083 11.686651,19.6677083 C12.368026,19.6677083 12.921026,20.2207083 12.921026,20.9020833" id="Fill-26" fill="#8A3FFC"></path>
                <path d="M5.51477604,18.4333333 C5.51477604,19.1122396 4.96177604,19.6677083 4.28040104,19.6677083 C3.59902604,19.6677083 3.04602604,19.1122396 3.04602604,18.4333333 C3.04602604,17.7519583 3.59902604,17.1989583 4.28040104,17.1989583 C4.96177604,17.1989583 5.51477604,17.7519583 5.51477604,18.4333333" id="Fill-28" fill="#8A3FFC"></path>
                <path d="M7.98352604,23.3708333 C7.98352604,24.0497396 7.43052604,24.6052083 6.74915104,24.6052083 C6.06777604,24.6052083 5.51477604,24.0497396 5.51477604,23.3708333 C5.51477604,22.6894583 6.06777604,22.1364583 6.74915104,22.1364583 C7.43052604,22.1364583 7.98352604,22.6894583 7.98352604,23.3708333" id="Fill-30" fill="#8A3FFC"></path>
                <path d="M3.04602604,28.4120208 C3.04602604,29.0909271 2.49302604,29.6463958 1.81165104,29.6463958 C1.13027604,29.6463958 0.577276042,29.0909271 0.577276042,28.4120208 C0.577276042,27.7306458 1.13027604,27.1776458 1.81165104,27.1776458 C2.49302604,27.1776458 3.04602604,27.7306458 3.04602604,28.4120208" id="Fill-32" fill="#8A3FFC"></path>
                <path d="M10.452276,33.2458333 C10.452276,33.9272083 9.89927604,34.4802083 9.21790104,34.4802083 C8.53652604,34.4802083 7.98352604,33.9272083 7.98352604,33.2458333 C7.98352604,32.5644583 8.53652604,32.0114583 9.21790104,32.0114583 C9.89927604,32.0114583 10.452276,32.5644583 10.452276,33.2458333" id="Fill-34" fill="#8A3FFC"></path>
                <path d="M5.51477604,35.7145833 C5.51477604,36.3934896 4.96177604,36.9489583 4.28040104,36.9489583 C3.59902604,36.9489583 3.04602604,36.3934896 3.04602604,35.7145833 C3.04602604,35.0332083 3.59902604,34.4802083 4.28040104,34.4802083 C4.96177604,34.4802083 5.51477604,35.0332083 5.51477604,35.7145833" id="Fill-36" fill="#8A3FFC"></path>
                <path d="M43.780401,54.5748458 C31.9970573,54.5748458 22.0010885,46.7760646 18.6830885,36.0666271 C19.6014635,36.4097833 20.5667448,36.6048146 21.561651,36.6048146 C26.1362448,36.6048146 29.856651,32.8819396 29.856651,28.3073458 C29.856651,23.7352208 26.1362448,20.0123458 21.561651,20.0123458 C20.564276,20.0123458 19.5989948,20.2073771 18.6830885,20.5455958 C21.2184948,12.3690958 27.6495885,5.89603333 35.7964635,3.29397083 C36.7543385,6.86131458 40.0032135,9.44856458 43.780401,9.44856458 C47.5575885,9.44856458 50.8064635,6.85884583 51.7643385,3.29397083 C54.326901,4.11112708 56.7092448,5.32081458 58.8644635,6.83662708 C58.1164323,8.10556458 57.704151,9.53003333 57.704151,11.0260958 C57.704151,15.6006896 61.4245573,19.3235646 65.999151,19.3235646 C66.789151,19.3235646 67.5519948,19.1729708 68.2975573,18.9557208 C69.4109635,21.8663771 70.047901,25.0090958 70.047901,28.3073458 C70.047901,42.7939708 58.2645573,54.5748458 43.780401,54.5748458 Z M17.512901,28.3073458 C17.512901,26.4187521 17.7227448,24.5795333 18.1029323,22.8020333 C19.1398073,22.1478146 20.3248073,21.7923146 21.561651,21.7923146 C25.156151,21.7923146 28.079151,24.7128458 28.079151,28.3073458 C28.079151,31.9018458 25.156151,34.8248458 21.561651,34.8248458 C20.327276,34.8248458 19.142276,34.4644083 18.1029323,33.8151271 C17.7227448,32.0351583 17.512901,30.1984083 17.512901,28.3073458 Z M50.0559635,2.82984583 C49.3029948,5.63681458 46.7503073,7.66859583 43.780401,7.66859583 C40.808026,7.66859583 38.2553385,5.63434583 37.5048385,2.82984583 C39.5218073,2.33362708 41.6153073,2.04231458 43.780401,2.04231458 C45.9454948,2.04231458 48.0389948,2.33362708 50.0559635,2.82984583 Z M67.6063073,17.3189396 C67.0829323,17.4522521 66.5496823,17.5435958 65.999151,17.5435958 C62.404651,17.5435958 59.481651,14.6205958 59.481651,11.0260958 C59.481651,9.91762708 59.7630885,8.85606458 60.2864635,7.90312708 C63.3970885,10.4237208 65.9053385,13.6454396 67.6063073,17.3189396 Z M76.5012135,59.7715646 L64.1994323,47.4722521 C68.9147448,42.4508146 71.825401,35.7185333 71.825401,28.3073458 C71.825401,24.5869396 71.0798385,21.0368771 69.7565885,17.7830646 C69.751651,17.6917208 69.7393073,17.5954396 69.6998073,17.5016271 C69.672651,17.4399083 69.6257448,17.3905333 69.5862448,17.3386896 C67.6532135,12.8085333 64.5450573,8.91037708 60.666651,5.97009583 C60.6394948,5.94047083 60.6419635,5.89603333 60.607401,5.86887708 C60.5456823,5.82197083 60.4716198,5.79975208 60.4024948,5.77012708 C57.7584635,3.81487708 54.7688073,2.30893958 51.5298073,1.37575208 C51.4409323,1.32884583 51.344651,1.28934583 51.2384948,1.27453333 C51.2088698,1.26712708 51.1817135,1.27947083 51.1496198,1.27700208 C48.796901,0.635127083 46.3355573,0.262345833 43.780401,0.262345833 C41.2277135,0.262345833 38.763901,0.635127083 36.4111823,1.27700208 C36.3790885,1.27947083 36.354401,1.26712708 36.3223073,1.27453333 C36.216151,1.28934583 36.1198698,1.32884583 36.0309948,1.37575208 C26.3559635,4.16543958 18.8312135,12.0234708 16.5081198,21.8861271 C16.4636823,21.9824083 16.436526,22.0836271 16.4291198,22.1897833 C15.9872135,24.1623146 15.735401,26.2064396 15.735401,28.3073458 C15.735401,30.4502208 15.9995573,32.5264396 16.456276,34.5310646 C16.4587448,34.5434083 16.4612135,34.5532833 16.4636823,34.5680958 C16.6611823,35.4198146 16.890776,36.2591896 17.1623385,37.0837521 C16.9969323,37.0022833 16.8191823,36.9479708 16.624151,36.9479708 C15.942776,36.9479708 15.389776,37.5009708 15.389776,38.1823458 C15.389776,38.8637208 15.942776,39.4167208 16.624151,39.4167208 C17.127776,39.4167208 17.5548698,39.1130646 17.749901,38.6835021 C21.8825885,49.0201583 31.9822448,56.3548146 43.780401,56.3548146 C51.1915885,56.3548146 57.9238698,53.4416896 62.9428385,48.7288458 L75.2446198,61.0306271 L76.5012135,59.7715646 Z" id="Fill-38" fill="#8A3FFC"></path>
                <path d="M10.452276,40.6520833 C10.452276,41.3309896 9.89927604,41.8864583 9.21790104,41.8864583 C8.53652604,41.8864583 7.98352604,41.3309896 7.98352604,40.6520833 C7.98352604,39.9707083 8.53652604,39.4177083 9.21790104,39.4177083 C9.89927604,39.4177083 10.452276,39.9707083 10.452276,40.6520833" id="Fill-40" fill="#8A3FFC"></path>
                <path d="M22.796026,50.5270833 C22.796026,51.2059896 22.243026,51.7614583 21.561651,51.7614583 C20.880276,51.7614583 20.327276,51.2059896 20.327276,50.5270833 C20.327276,49.8457083 20.880276,49.2927083 21.561651,49.2927083 C22.243026,49.2927083 22.796026,49.8457083 22.796026,50.5270833" id="Fill-42" fill="#8A3FFC"></path>
                <path d="M30.202276,55.4645833 C30.202276,56.1434896 29.649276,56.6989583 28.967901,56.6989583 C28.286526,56.6989583 27.733526,56.1434896 27.733526,55.4645833 C27.733526,54.7832083 28.286526,54.2302083 28.967901,54.2302083 C29.649276,54.2302083 30.202276,54.7832083 30.202276,55.4645833" id="Fill-44" fill="#8A3FFC"></path>
                <path d="M15.389776,52.9958333 C15.389776,53.6747396 14.836776,54.2302083 14.155401,54.2302083 C13.474026,54.2302083 12.921026,53.6747396 12.921026,52.9958333 C12.921026,52.3144583 13.474026,51.7614583 14.155401,51.7614583 C14.836776,51.7614583 15.389776,52.3144583 15.389776,52.9958333" id="Fill-46" fill="#8A3FFC"></path>
                <path d="M10.452276,55.4211333 C10.452276,56.1000396 9.89927604,56.6555083 9.21790104,56.6555083 C8.53652604,56.6555083 7.98352604,56.1000396 7.98352604,55.4211333 C7.98352604,54.7397583 8.53652604,54.1867583 9.21790104,54.1867583 C9.89927604,54.1867583 10.452276,54.7397583 10.452276,55.4211333" id="Fill-48" fill="#8A3FFC"></path>
                <path d="M5.51477604,57.9333333 C5.51477604,58.6147083 4.96177604,59.1677083 4.28040104,59.1677083 C3.59902604,59.1677083 3.04602604,58.6147083 3.04602604,57.9333333 C3.04602604,57.2519583 3.59902604,56.6989583 4.28040104,56.6989583 C4.96177604,56.6989583 5.51477604,57.2519583 5.51477604,57.9333333" id="Fill-50" fill="#8A3FFC"></path>
                <path d="M12.9173229,62.8708333 C12.9173229,63.5497396 12.3643229,64.1052083 11.6829479,64.1052083 C11.0015729,64.1052083 10.4485729,63.5497396 10.4485729,62.8708333 C10.4485729,62.1894583 11.0015729,61.6364583 11.6829479,61.6364583 C12.3643229,61.6364583 12.9173229,62.1894583 12.9173229,62.8708333" id="Fill-52" fill="#8A3FFC"></path>
                <path d="M10.452276,67.8083333 C10.452276,68.4872396 9.89927604,69.0427083 9.21790104,69.0427083 C8.53652604,69.0427083 7.98352604,68.4872396 7.98352604,67.8083333 C7.98352604,67.1269583 8.53652604,66.5739583 9.21790104,66.5739583 C9.89927604,66.5739583 10.452276,67.1269583 10.452276,67.8083333" id="Fill-54" fill="#8A3FFC"></path>
                <path d="M20.327276,60.3924552 C20.327276,61.0738302 19.774276,61.6268302 19.092901,61.6268302 C18.411526,61.6268302 17.858526,61.0738302 17.858526,60.3924552 C17.858526,59.7110802 18.411526,59.1580802 19.092901,59.1580802 C19.774276,59.1580802 20.327276,59.7110802 20.327276,60.3924552" id="Fill-56" fill="#8A3FFC"></path>
                <path d="M27.733526,65.3395833 C27.733526,66.0209583 27.180526,66.5739583 26.499151,66.5739583 C25.817776,66.5739583 25.264776,66.0209583 25.264776,65.3395833 C25.264776,64.6582083 25.817776,64.1052083 26.499151,64.1052083 C27.180526,64.1052083 27.733526,64.6582083 27.733526,65.3395833" id="Fill-58" fill="#8A3FFC"></path>
                <path d="M52.421026,60.4020833 C52.421026,61.0834583 51.868026,61.6364583 51.186651,61.6364583 C50.505276,61.6364583 49.952276,61.0834583 49.952276,60.4020833 C49.952276,59.7207083 50.505276,59.1677083 51.186651,59.1677083 C51.868026,59.1677083 52.421026,59.7207083 52.421026,60.4020833" id="Fill-60" fill="#8A3FFC"></path>
                <path d="M35.139776,75.2145833 C35.139776,75.8934896 34.586776,76.4489583 33.905401,76.4489583 C33.224026,76.4489583 32.671026,75.8934896 32.671026,75.2145833 C32.671026,74.5332083 33.224026,73.9802083 33.905401,73.9802083 C34.586776,73.9802083 35.139776,74.5332083 35.139776,75.2145833" id="Fill-62" fill="#8A3FFC"></path>
                <path d="M12.921026,2.38645833 C12.921026,3.06783333 12.368026,3.62083333 11.686651,3.62083333 C11.005276,3.62083333 10.452276,3.06783333 10.452276,2.38645833 C10.452276,1.70508333 11.005276,1.15208333 11.686651,1.15208333 C12.368026,1.15208333 12.921026,1.70508333 12.921026,2.38645833" id="Fill-64" fill="#8A3FFC"></path>
                <path d="M22.796026,3.64255833 C22.796026,4.32393333 22.243026,4.87693333 21.561651,4.87693333 C20.880276,4.87693333 20.327276,4.32393333 20.327276,3.64255833 C20.327276,2.96118333 20.880276,2.40818333 21.561651,2.40818333 C22.243026,2.40818333 22.796026,2.96118333 22.796026,3.64255833" id="Fill-66" fill="#8A3FFC"></path>
            </g>
        </g>
        <g id="Group-4-Copy-13" transform="translate(165.000000, 168.000000)">
            <polygon id="Fill-1" fill="#FFFFFF" points="0 79 79 79 79 0 0 0"></polygon>
            <path d="M48.140625,38.265625 C47.45925,38.265625 46.90625,38.818625 46.90625,39.5 C46.90625,40.181375 47.45925,40.734375 48.140625,40.734375 C48.822,40.734375 49.375,40.181375 49.375,39.5 C49.375,38.818625 48.822,38.265625 48.140625,38.265625 Z M64.1875,11.109375 C63.506125,11.109375 62.953125,11.662375 62.953125,12.34375 C62.953125,13.025125 63.506125,13.578125 64.1875,13.578125 C64.868875,13.578125 65.421875,13.025125 65.421875,12.34375 C65.421875,11.662375 64.868875,11.109375 64.1875,11.109375 Z M30.859375,12.34375 C30.859375,13.025125 30.306375,13.578125 29.625,13.578125 C28.943625,13.578125 28.390625,13.025125 28.390625,12.34375 C28.390625,11.662375 28.943625,11.109375 29.625,11.109375 C30.306375,11.109375 30.859375,11.662375 30.859375,12.34375 Z M37.7694063,13.92375 L53.5397813,13.92375 C53.46325,13.4077812 53.42375,12.8819375 53.42375,12.34375 C53.42375,11.8055625 53.46325,11.2797187 53.5397813,10.76375 L37.7694063,10.76375 C37.8681562,11.2747813 37.92,11.8030937 37.92,12.34375 C37.92,12.8844063 37.8681562,13.4127187 37.7694063,13.92375 Z M29.625,5.82625 C26.0305,5.82625 23.1075,8.74925 23.1075,12.34375 C23.1075,15.93825 26.0305,18.86125 29.625,18.86125 C33.2195,18.86125 36.1425,15.93825 36.1425,12.34375 C36.1425,8.74925 33.2195,5.82625 29.625,5.82625 Z M64.1875,3.3575 C59.2327188,3.3575 55.20125,7.38896875 55.20125,12.34375 C55.20125,17.2985312 59.2327188,21.33 64.1875,21.33 C69.1422812,21.33 73.17375,17.2985312 73.17375,12.34375 C73.17375,7.38896875 69.1422812,3.3575 64.1875,3.3575 Z M19.6956875,24.9960938 C20.1696875,25.1664375 20.6338125,25.3861563 21.083125,25.6577188 C21.5941563,25.9663125 22.06075,26.32675 22.4804375,26.731625 L26.3810625,19.977125 C25.3540625,19.5401562 24.4332188,18.90075 23.6679063,18.1132187 L19.6956875,24.9960938 Z M48.5380938,31.2099375 C49.8465312,31.2099375 51.1574375,31.5481563 52.3251562,32.2270625 C53.4509062,32.8788125 54.3915,33.8194063 55.04325,34.9500937 L55.2284062,35.2685625 L62.3384062,22.9495 C59.6079687,22.4755 57.225625,20.964625 55.6110625,18.8439687 L48.4714375,31.2099375 L48.5380938,31.2099375 Z M8.37646875,35.0019375 L18.950125,41.1046875 L22.2113438,35.5030937 C23.0507188,34.1107187 23.295125,32.4838125 22.9050625,30.9112187 C22.515,29.3361562 21.5423125,28.0104375 20.1622813,27.1809375 C17.3084063,25.4503438 13.578125,26.376125 11.8524688,29.2349375 L8.37646875,35.0019375 Z M50.4415,53.42375 L63.6394375,53.42375 L53.50275,35.8388438 C53.009,34.9797188 52.2930625,34.2613125 51.4339375,33.7650937 C49.6589062,32.7331563 47.45925,32.7232812 45.6940937,33.7404063 C44.8349688,34.236625 44.1140937,34.9599688 43.608,35.8339063 C42.6155625,37.5422813 42.610625,39.8406875 43.598125,41.5515312 L50.4415,53.42375 Z M40.38875,65.7675 L70.705,65.7675 L70.705,55.2037187 L40.38875,55.2037187 L40.38875,65.7675 Z M3.999375,75.6425 L75.6425,75.6425 L75.6425,67.545 L8.67271875,67.545 L3.999375,75.6425 Z M76.53125,77.42 L2.46875,77.42 C1.97746875,77.42 1.58,77.0225313 1.58,76.53125 C1.58,76.3757188 1.62196875,76.205375 1.6985,76.0695938 L7.38896875,66.211875 C7.5494375,65.9378437 7.84321875,65.7675 8.15921875,65.7675 L38.61125,65.7675 L38.61125,54.3125 C38.61125,53.8212188 39.0087187,53.42375 39.5,53.42375 L48.3899688,53.42375 L42.057625,42.4378125 C40.74425,40.161625 40.7491875,37.2164062 42.0699688,34.9402187 C42.7315938,33.7971875 43.677125,32.8516562 44.8078125,32.202375 C45.257125,31.9431563 45.7237188,31.7333125 46.2075937,31.5777813 L54.5470312,17.1306563 C54.3199063,16.6714687 54.1224063,16.195 53.9594687,15.70125 L37.209,15.70125 C35.9178437,18.6069688 33.0047188,20.63875 29.625,20.63875 C29.1139688,20.63875 28.6152813,20.5918438 28.1289375,20.5054375 L23.6777812,28.2153438 C24.104875,28.9065938 24.4282813,29.6694375 24.6307188,30.484125 C25.1343437,32.5208438 24.8183438,34.62175 23.7395,36.409125 L20.0413125,42.7636875 C19.7969063,43.1883125 19.2537812,43.3389063 18.8291563,43.0870937 L13.5731875,40.053 L11.5759688,43.5117188 C12.4474375,44.2251875 13.0868438,45.1830625 13.4151875,46.2915312 C13.8496875,47.7530312 13.6892188,49.2885937 12.9683438,50.61925 L11.682125,52.98925 C11.5685625,53.1398437 11.3340312,53.3669688 11.1513437,53.4212812 L7.29021875,54.5643125 L6.78659375,52.860875 L10.3045625,51.8165938 L11.4080938,49.77 C11.9018438,48.8590313 12.0104688,47.8024063 11.71175,46.797625 C11.4130312,45.7953125 10.7464688,44.9682813 9.83303125,44.4745313 C8.9220625,43.9783125 7.86790625,43.8721563 6.86065625,44.1684062 C5.855875,44.467125 5.0313125,45.1336875 4.53509375,46.047125 L3.426625,48.0937188 L4.4635,51.596875 L2.7600625,52.1029688 L1.61703125,48.2467813 C1.550375,48.0196562 1.5750625,47.7777188 1.688625,47.5703437 L2.97484375,45.2003438 C3.69571875,43.8721563 4.89553125,42.897 6.3545625,42.4649687 C7.58646875,42.097125 8.8726875,42.1514375 10.0404063,42.6155625 L12.0326875,39.16425 L6.70265625,36.0857188 C6.49775,35.9672187 6.34715625,35.7697188 6.28790625,35.540125 C6.22865625,35.3080625 6.26321875,35.0611875 6.38665625,34.85875 L10.3317188,28.3165625 C11.9536875,25.625625 14.9655625,24.2579375 17.883625,24.578875 L22.4977188,16.5850625 C21.7570938,15.3432813 21.33,13.8916563 21.33,12.34375 C21.33,7.76915625 25.0504063,4.04875 29.625,4.04875 C33.0047188,4.04875 35.9178437,6.08053125 37.209,8.98625 L53.9594687,8.98625 C55.3740625,4.68815625 59.4252812,1.58 64.1875,1.58 C70.122375,1.58 74.95125,6.408875 74.95125,12.34375 C74.95125,18.2415937 70.1840938,23.0457813 64.2985938,23.1050313 L56.2529375,37.0485313 L65.6909688,53.42375 L71.59375,53.42375 C72.0850313,53.42375 72.4825,53.8212188 72.4825,54.3125 L72.4825,65.7675 L76.53125,65.7675 C77.0225313,65.7675 77.42,66.1649688 77.42,66.65625 L77.42,76.53125 C77.42,77.0225313 77.0225313,77.42 76.53125,77.42 Z" id="Fill-2" fill="url(#linearGradient-1)"></path>
        </g>
    </g>
</svg>