<?xml version="1.0" encoding="UTF-8"?>
<svg width="928px" height="522px" viewBox="0 0 928 522" version="1.1" xmlns="http://www.w3.org/2000/svg" xmlns:xlink="http://www.w3.org/1999/xlink">
    <!-- Generator: Sketch 52.5 (67469) - http://www.bohemiancoding.com/sketch -->
    <title>Artboard Copy 71</title>
    <desc>Created with Sketch.</desc>
    <defs>
        <linearGradient x1="101.819342%" y1="-1.82373851%" x2="-1.84157683%" y2="101.84182%" id="linearGradient-1">
            <stop stop-color="#BB8EFF" offset="0%"></stop>
            <stop stop-color="#0062FF" offset="100%"></stop>
        </linearGradient>
    </defs>
    <g id="Artboard-Copy-71" stroke="none" stroke-width="1" fill="none" fill-rule="evenodd">
        <rect id="Rectangle-3-Copy-50" fill="#FFFFFF" x="0" y="0" width="928" height="522"></rect>
        <g id="Group-23-Copy" transform="translate(124.000000, 201.000000)">
            <polygon id="Fill-1" fill="#FFFFFF" points="0 120 120 120 120 0 0 0"></polygon>
            <g id="Group-22" transform="translate(2.000000, 2.000000)" fill="#000000">
                <path d="M58.0018,82.8988 C56.1398,82.8988 54.3268,82.6868 52.5798,82.2968 L64.1468,71.3848 C65.3318,70.2718 65.5898,68.5098 64.7788,67.0998 L54.7008,49.5988 C54.5138,49.2768 54.5758,48.8738 54.8468,48.6178 L61.8148,42.1098 C63.0098,40.9928 63.2728,39.2238 62.4548,37.8028 L59.7808,33.1718 C66.5528,33.6528 72.5818,36.8508 76.7858,41.6818 L71.8058,50.3538 C71.1878,51.4338 71.1878,52.7668 71.8058,53.8398 L75.9958,61.1238 C76.6178,62.2038 77.7788,62.8748 79.0258,62.8748 L82.4198,62.8748 C80.1478,74.2778 70.0628,82.8988 58.0018,82.8988 M33.1018,58.0008 C33.1018,54.4438 33.8558,51.0628 35.2048,48.0008 L36.9298,50.9718 C37.5548,52.0418 38.7138,52.7088 39.9528,52.7088 L46.8728,52.7088 C47.1568,52.7088 47.4198,52.8578 47.5628,53.1038 L50.4048,58.0258 C50.5918,58.3478 50.5308,58.7538 50.2618,59.0068 L46.4538,62.5878 C45.2628,63.7018 45.0028,65.4708 45.8178,66.8838 L48.3358,71.2458 C48.4788,71.4908 48.4788,71.7948 48.3358,72.0408 L44.4018,78.8408 C37.6048,74.3908 33.1018,66.7128 33.1018,58.0008 M56.6458,33.1388 L60.1168,39.1508 C60.3038,39.4768 60.2448,39.8788 59.9718,40.1358 L53.0048,46.6468 C51.8098,47.7638 51.5458,49.5298 52.3598,50.9468 L62.4388,68.4478 C62.6238,68.7658 62.5648,69.1698 62.2958,69.4218 L49.5698,81.4258 C48.5958,81.0748 47.6528,80.6608 46.7398,80.1948 L50.6718,73.3948 C51.2968,72.3188 51.2978,70.9788 50.6758,69.8978 L48.1578,65.5368 C47.9718,65.2138 48.0298,64.8108 48.3008,64.5588 L52.1128,60.9728 C53.2978,59.8568 53.5578,58.0878 52.7428,56.6778 L49.8988,51.7558 C49.2788,50.6758 48.1178,50.0048 46.8728,50.0048 L39.9528,50.0048 C39.6688,50.0048 39.4058,49.8558 39.2648,49.6138 L36.6778,45.1578 C40.8228,38.3018 48.1788,33.5958 56.6458,33.1388 M82.8018,60.1708 L79.0258,60.1708 C78.7418,60.1708 78.4768,60.0218 78.3358,59.7758 L74.1448,52.4928 C74.0048,52.2468 74.0048,51.9468 74.1468,51.7018 L78.5738,43.9908 C81.3028,47.9848 82.9018,52.8088 82.9018,58.0008 C82.9018,58.7318 82.8638,59.4558 82.8018,60.1708 M58.0018,30.3988 C57.7528,30.3988 57.5068,30.4108 57.2598,30.4178 C57.2508,30.4188 57.2418,30.4168 57.2328,30.4188 C47.3128,30.6918 38.6888,36.2208 34.0458,44.3208 C34.0238,44.3488 34.0128,44.3808 33.9938,44.4118 C31.7118,48.4258 30.4018,53.0608 30.4018,58.0008 C30.4018,68.1698 35.9348,77.0648 44.1428,81.8538 C44.1628,81.8668 44.1728,81.8868 44.1938,81.8988 C44.2258,81.9178 44.2608,81.9238 44.2938,81.9408 C45.8898,82.8578 47.5838,83.6208 49.3588,84.2078 C49.3748,84.2138 49.3908,84.2168 49.4068,84.2228 C52.1138,85.1138 55.0008,85.6008 58.0018,85.6008 C73.2198,85.6008 85.6018,73.2188 85.6018,58.0008 C85.6018,42.7798 73.2198,30.3988 58.0018,30.3988" id="Fill-2"></path>
                <path d="M75.0931,103.1391 L74.1341,100.6131 C86.3411,95.9721 95.9781,86.3231 100.5741,74.1391 L103.1011,75.0911 C98.2321,88.0001 88.0241,98.2211 75.0931,103.1391" id="Fill-4"></path>
                <path d="M40.9071,103.1391 C27.9761,98.2211 17.7681,88.0001 12.8991,75.0911 L15.4261,74.1391 C20.0221,86.3231 29.6591,95.9721 41.8661,100.6131 L40.9071,103.1391 Z" id="Fill-6"></path>
                <path d="M100.5755,41.8685 C95.9455,29.6915 86.3075,20.0535 74.1335,15.4285 L75.0935,12.9005 C87.9875,17.8055 98.1955,28.0115 103.0985,40.9085 L100.5755,41.8685 Z" id="Fill-8"></path>
                <path d="M15.4241,41.8685 L12.9011,40.9085 C17.8041,28.0115 28.0131,17.8055 40.9071,12.9005 L41.8661,15.4285 C29.6921,20.0535 20.0551,29.6915 15.4241,41.8685" id="Fill-10"></path>
                <path d="M58.0018,3.101 C53.5758,3.101 49.9768,6.702 49.9768,11.125 C49.9768,11.367 49.9728,11.612 50.0038,11.854 C50.4008,16.033 53.8358,19.149 58.0018,19.149 C62.1678,19.149 65.6048,16.033 65.9968,11.898 C66.0308,11.616 66.0268,11.371 66.0268,11.125 C66.0268,6.702 62.4278,3.101 58.0018,3.101 M58.0018,21.851 C52.4358,21.851 47.8448,17.68 47.3208,12.154 C47.2808,11.839 47.2768,11.484 47.2768,11.125 C47.2768,5.21 52.0878,0.399 58.0018,0.399 C63.9168,0.399 68.7268,5.21 68.7268,11.125 C68.7268,11.48 68.7228,11.835 68.6808,12.191 C68.1608,17.68 63.5678,21.851 58.0018,21.851" id="Fill-12"></path>
                <path d="M58.0018,3.101 C53.5758,3.101 49.9768,6.702 49.9768,11.125 C49.9768,11.367 49.9728,11.612 50.0038,11.854 C50.4008,16.033 53.8358,19.149 58.0018,19.149 C62.1678,19.149 65.6048,16.033 65.9968,11.898 C66.0308,11.616 66.0268,11.371 66.0268,11.125 C66.0268,6.702 62.4278,3.101 58.0018,3.101 M58.0018,21.851 C52.4358,21.851 47.8448,17.68 47.3208,12.154 C47.2808,11.839 47.2768,11.484 47.2768,11.125 C47.2768,5.21 52.0878,0.399 58.0018,0.399 C63.9168,0.399 68.7268,5.21 68.7268,11.125 C68.7268,11.48 68.7228,11.835 68.6808,12.191 C68.1608,17.68 63.5678,21.851 58.0018,21.851" id="Fill-14"></path>
                <path d="M58.0018,96.851 C53.8358,96.851 50.4008,99.968 50.0088,104.102 C49.9728,104.388 49.9768,104.633 49.9768,104.875 C49.9768,109.299 53.5758,112.899 58.0018,112.899 C62.4278,112.899 66.0268,109.299 66.0268,104.875 C66.0268,104.629 66.0308,104.384 65.9998,104.139 C65.6048,99.968 62.1678,96.851 58.0018,96.851 M58.0018,115.601 C52.0878,115.601 47.2768,110.789 47.2768,104.875 C47.2768,104.516 47.2808,104.161 47.3268,103.802 C47.8448,98.32 52.4358,94.149 58.0018,94.149 C63.5678,94.149 68.1608,98.32 68.6848,103.846 C68.7228,104.164 68.7268,104.52 68.7268,104.875 C68.7268,110.789 63.9168,115.601 58.0018,115.601" id="Fill-16"></path>
                <path d="M104.743,49.976 C104.542,49.976 104.34,49.976 104.139,50.002 C99.968,50.398 96.849,53.832 96.849,58 C96.849,62.167 99.968,65.603 104.102,65.995 C104.388,66.031 104.628,66.035 104.875,66.024 C109.301,66.024 112.901,62.424 112.901,58 C112.901,53.533 109.151,50.046 104.743,49.976 M104.875,68.726 C104.52,68.726 104.168,68.723 103.813,68.679 C98.32,68.159 94.151,63.567 94.151,58 C94.151,52.434 98.32,47.841 103.849,47.318 C104.168,47.278 104.52,47.274 104.875,47.274 C110.789,47.274 115.599,52.085 115.599,58 C115.599,63.914 110.789,68.726 104.875,68.726" id="Fill-18"></path>
                <path d="M11.244,49.976 C6.771,49.786 3.099,53.536 3.099,58 C3.098,62.468 6.723,66.06 11.257,66.024 C11.458,66.024 11.661,66.024 11.863,65.998 C16.032,65.603 19.151,62.167 19.151,58 C19.151,53.832 16.032,50.398 11.9,50.005 C11.661,49.976 11.451,49.976 11.244,49.976 M11.125,68.726 C5.211,68.726 0.401,63.914 0.401,58 C0.401,52.085 5.211,47.274 11.125,47.274 C11.48,47.274 11.834,47.278 12.189,47.322 C17.682,47.841 21.849,52.434 21.849,58 C21.849,63.567 17.682,68.159 12.152,68.682 C11.834,68.723 11.48,68.726 11.125,68.726" id="Fill-20"></path>
            </g>
        </g>
        <g id="Group-4-Copy-11" transform="translate(308.000000, 201.000000)">
            <polygon id="Fill-1" fill="#FFFFFF" points="0 120 120 120 120 0 0 0"></polygon>
            <path d="M108.7135,88.6488 C106.6685,88.6488 104.6665,87.4588 103.4875,85.5438 C103.2425,85.1438 102.8065,84.8988 102.3375,84.8988 L101.2505,84.8988 C100.5045,84.8988 99.9005,85.5028 99.9005,86.2508 L99.9005,99.8988 L75.0005,99.8988 C74.2545,99.8988 73.6505,100.5028 73.6505,101.2508 L73.6505,102.1108 C73.6505,102.6048 73.9195,103.0588 74.3515,103.2938 C76.3235,104.3778 77.5505,106.4238 77.5505,108.6358 C77.5505,112.0278 74.7915,114.7858 71.4005,114.7858 C68.0085,114.7858 65.2495,112.0278 65.2495,108.6358 C65.2495,106.5348 66.3825,104.5318 68.2065,103.4108 C68.6065,103.1658 68.8495,102.7298 68.8495,102.2608 L68.8495,101.2508 C68.8495,100.5028 68.2455,99.8988 67.5005,99.8988 L53.8495,99.8988 L53.8495,88.7578 C55.5105,90.3918 57.7135,91.3508 59.9725,91.3508 C64.8665,91.3508 68.8495,87.3808 68.8495,82.5008 C68.8495,77.6188 64.8665,73.6488 59.9725,73.6488 C57.6055,73.6488 55.4495,74.5028 53.8495,76.0028 L53.8495,61.3508 L99.9005,61.3508 L99.9005,78.7508 C99.9005,79.4978 100.5045,80.1008 101.2505,80.1008 L102.1515,80.1008 C102.6435,80.1008 103.0975,79.8308 103.3355,79.3978 C104.3805,77.4908 106.3915,76.3508 108.7135,76.3508 C112.1245,76.3508 114.9005,79.1088 114.9005,82.5008 C114.9005,85.8908 112.1245,88.6488 108.7135,88.6488 Z M22.6485,84.8988 C17.7685,84.8988 13.7985,88.8688 13.7985,93.7508 C13.7985,96.0898 14.7085,98.2728 16.3075,99.8988 L5.0995,99.8988 L5.0995,61.3508 L18.7505,61.3508 C19.4955,61.3508 20.0995,60.7478 20.0995,60.0008 L20.0995,58.8788 C20.0995,58.4108 19.8565,57.9748 19.4545,57.7298 C17.6035,56.5938 16.4975,54.6388 16.4975,52.5008 C16.4975,49.1088 19.2565,46.3508 22.6485,46.3508 C26.0395,46.3508 28.7985,49.1088 28.7985,52.5008 C28.7985,54.7148 27.5715,56.7658 25.5965,57.8578 C25.1675,58.0958 24.9005,58.5498 24.9005,59.0408 L24.9005,60.0008 C24.9005,60.7478 25.5045,61.3508 26.2505,61.3508 L51.1505,61.3508 L51.1505,78.7508 C51.1505,79.4978 51.7545,80.1008 52.5005,80.1008 L53.4085,80.1008 C53.8995,80.1008 54.3515,79.8348 54.5885,79.4058 C55.6475,77.4908 57.6595,76.3508 59.9725,76.3508 C63.3785,76.3508 66.1505,79.1088 66.1505,82.5008 C66.1505,85.8908 63.3785,88.6488 59.9725,88.6488 C57.9085,88.6488 55.8965,87.4588 54.7195,85.5438 C54.4735,85.1438 54.0385,84.8988 53.5695,84.8988 L52.5005,84.8988 C51.7545,84.8988 51.1505,85.5028 51.1505,86.2508 L51.1505,99.8988 L28.9705,99.8988 C30.5675,98.2728 31.4975,96.0718 31.4975,93.7508 C31.4975,88.8688 27.5275,84.8988 22.6485,84.8988 Z M5.0995,20.1008 L18.7505,20.1008 C19.4955,20.1008 20.0995,19.4978 20.0995,18.7508 L20.0995,17.6258 C20.0995,17.1568 19.8565,16.7208 19.4565,16.4758 C17.6325,15.3548 16.4995,13.3518 16.4995,11.2508 C16.4995,7.8588 19.2585,5.1008 22.6505,5.1008 C26.0415,5.1008 28.8005,7.8588 28.8005,11.2508 C28.8005,13.4618 27.5735,15.5088 25.5995,16.5928 C25.1675,16.8318 24.9005,17.2858 24.9005,17.7758 L24.9005,18.7508 C24.9005,19.4978 25.5045,20.1008 26.2505,20.1008 L51.1505,20.1008 L51.1505,37.5008 C51.1505,38.2478 51.7545,38.8508 52.5005,38.8508 L53.4005,38.8508 C53.8935,38.8508 54.3475,38.5808 54.5855,38.1478 C55.6305,36.2408 57.6415,35.1008 59.9635,35.1008 C63.3745,35.1008 66.1505,37.8588 66.1505,41.2508 C66.1505,44.6408 63.3745,47.3988 59.9635,47.3988 C57.9185,47.3988 55.9165,46.2088 54.7375,44.2938 C54.4925,43.8938 54.0565,43.6488 53.5875,43.6488 L52.5005,43.6488 C51.7545,43.6488 51.1505,44.2528 51.1505,45.0008 L51.1505,58.6488 L28.9705,58.6488 C30.5675,57.0228 31.4975,54.8218 31.4975,52.5008 C31.4975,47.6188 27.5275,43.6488 22.6485,43.6488 C17.7685,43.6488 13.7985,47.6188 13.7985,52.5008 C13.7985,54.8398 14.7085,57.0228 16.3075,58.6488 L5.0995,58.6488 L5.0995,20.1008 Z M67.5005,20.1008 C68.2455,20.1008 68.8495,19.4978 68.8495,18.7508 L68.8495,17.6258 C68.8495,17.1568 68.6065,16.7208 68.2065,16.4758 C66.3825,15.3548 65.2495,13.3518 65.2495,11.2508 C65.2495,7.8588 68.0085,5.1008 71.4005,5.1008 C74.7915,5.1008 77.5505,7.8588 77.5505,11.2508 C77.5505,13.4618 76.3235,15.5088 74.3495,16.5928 C73.9175,16.8318 73.6505,17.2858 73.6505,17.7758 L73.6505,18.7508 C73.6505,19.4978 74.2545,20.1008 75.0005,20.1008 L99.9005,20.1008 L99.9005,34.7568 C98.2965,33.2668 96.1195,32.3988 93.7865,32.3988 C88.8865,32.3988 84.9005,36.3688 84.9005,41.2508 C84.9005,46.1308 88.8865,50.1008 93.7865,50.1008 C96.0205,50.1008 98.2215,49.1378 99.9005,47.5018 L99.9005,58.6488 L53.8495,58.6488 L53.8495,47.4908 C55.5085,49.1338 57.7095,50.1008 59.9635,50.1008 C64.8635,50.1008 68.8495,46.1308 68.8495,41.2508 C68.8495,36.3688 64.8635,32.3988 59.9635,32.3988 C57.6305,32.3988 55.4535,33.2668 53.8495,34.7568 L53.8495,20.1008 L67.5005,20.1008 Z M108.7135,73.6488 C106.3805,73.6488 104.2035,74.5168 102.5995,76.0068 L102.5995,60.0008 L102.5995,45.0008 C102.5995,44.2528 101.9955,43.6488 101.2505,43.6488 L100.2005,43.6488 C99.7375,43.6488 99.3075,43.8868 99.0605,44.2788 C97.8405,46.2048 95.8205,47.3988 93.7865,47.3988 C90.3755,47.3988 87.5995,44.6408 87.5995,41.2508 C87.5995,37.8588 90.3755,35.1008 93.7865,35.1008 C96.1085,35.1008 98.1185,36.2408 99.1645,38.1478 C99.4025,38.5808 99.8565,38.8508 100.3495,38.8508 L101.2505,38.8508 C101.9955,38.8508 102.5995,38.2478 102.5995,37.5008 L102.5995,18.7508 C102.5995,18.0028 101.9955,17.3988 101.2505,17.3988 L77.7135,17.3988 C79.3155,15.7768 80.2495,13.5758 80.2495,11.2508 C80.2495,6.3688 76.2795,2.3988 71.4005,2.3988 C66.5205,2.3988 62.5505,6.3688 62.5505,11.2508 C62.5505,13.5498 63.4845,15.7618 65.0775,17.3988 L52.5005,17.3988 L28.9635,17.3988 C30.5655,15.7768 31.4995,13.5758 31.4995,11.2508 C31.4995,6.3688 27.5295,2.3988 22.6505,2.3988 C17.7705,2.3988 13.8005,6.3688 13.8005,11.2508 C13.8005,13.5498 14.7345,15.7618 16.3275,17.3988 L3.7505,17.3988 C3.0045,17.3988 2.4005,18.0028 2.4005,18.7508 L2.4005,60.0008 L2.4005,101.2508 C2.4005,101.9978 3.0045,102.6008 3.7505,102.6008 L18.7505,102.6008 C19.4955,102.6008 20.0995,101.9978 20.0995,101.2508 L20.0995,100.1288 C20.0995,99.6608 19.8565,99.2248 19.4545,98.9798 C17.6035,97.8438 16.4975,95.8888 16.4975,93.7508 C16.4975,90.3588 19.2565,87.6008 22.6485,87.6008 C26.0395,87.6008 28.7985,90.3588 28.7985,93.7508 C28.7985,95.9648 27.5715,98.0158 25.5965,99.1078 C25.1675,99.3458 24.9005,99.7998 24.9005,100.2908 L24.9005,101.2508 C24.9005,101.9978 25.5045,102.6008 26.2505,102.6008 L52.5005,102.6008 L64.9675,102.6008 C63.4425,104.2268 62.5505,106.3918 62.5505,108.6358 C62.5505,113.5178 66.5205,117.4878 71.4005,117.4878 C76.2795,117.4878 80.2495,113.5178 80.2495,108.6358 C80.2495,106.3628 79.3595,104.2118 77.8255,102.6008 L101.2505,102.6008 C101.9955,102.6008 102.5995,101.9978 102.5995,101.2508 L102.5995,88.7408 C104.2585,90.3838 106.4595,91.3508 108.7135,91.3508 C113.6135,91.3508 117.5995,87.3808 117.5995,82.5008 C117.5995,77.6188 113.6135,73.6488 108.7135,73.6488 Z" id="Fill-2" fill="#8A3FFC"></path>
        </g>
        <g id="Group-69-Copy-2" transform="translate(492.000000, 201.000000)">
            <polygon id="Fill-1" fill="#FFFFFF" points="0 120 120 120 120 0 0 0"></polygon>
            <g id="Group-68" transform="translate(1.000000, 2.000000)">
                <path d="M107.751875,43 C107.751875,65.78125 89.283125,84.25 66.501875,84.25 C43.720625,84.25 25.251875,65.78125 25.251875,43 C25.251875,20.21875 43.720625,1.75 66.501875,1.75 C89.283125,1.75 107.751875,20.21875 107.751875,43" id="Fill-2" fill="#F7F1FF"></path>
                <path d="M107.751875,43 C107.751875,65.78125 89.283125,84.25 66.501875,84.25 C43.720625,84.25 25.251875,65.78125 25.251875,43 C25.251875,20.21875 43.720625,1.75 66.501875,1.75 C89.283125,1.75 107.751875,20.21875 107.751875,43 Z" id="Stroke-4" stroke="#000000" stroke-width="0.72" stroke-linecap="round"></path>
                <path d="M77.751875,31.75 C77.751875,37.96375 72.715625,43 66.501875,43 C60.288125,43 55.251875,37.96375 55.251875,31.75 C55.251875,25.53625 60.288125,20.5 66.501875,20.5 C72.715625,20.5 77.751875,25.53625 77.751875,31.75" id="Fill-6" fill="#E6D6FF"></path>
                <path d="M89.001875,61.75 C89.001875,67.96375 83.965625,73 77.751875,73 C71.538125,73 66.501875,67.96375 66.501875,61.75 C66.501875,55.53625 71.538125,50.5 77.751875,50.5 C83.965625,50.5 89.001875,55.53625 89.001875,61.75" id="Fill-8" fill="#E6D6FF"></path>
                <path d="M26.28275,33.793375 C28.11275,32.507125 30.344,31.749625 32.7515,31.749625 C38.96525,31.749625 44.0015,36.785875 44.0015,42.999625 C44.0015,49.213375 38.96525,54.249625 32.7515,54.249625 C30.36275,54.249625 28.1465,53.507125 26.324,52.235875" id="Fill-10" fill="#E6D6FF"></path>
                <path d="M77.649125,3.277 C76.902875,8.767 72.196625,13.00075 66.500375,13.00075 C60.804125,13.00075 56.097875,8.767 55.355375,3.277" id="Fill-12" fill="#E6D6FF"></path>
                <path d="M104.63,27.11725 C103.28375,27.6835 101.80625,27.9985 100.25375,27.9985 C94.04,27.9985 89.00375,22.966 89.00375,16.7485 C89.00375,14.21725 89.84,11.881 91.25375,9.9985" id="Fill-14" fill="#E6D6FF"></path>
                <path d="M66.501875,21.8515 C61.041875,21.8515 56.601875,26.2915 56.601875,31.7515 C56.601875,37.2115 61.041875,41.64775 66.501875,41.64775 C71.961875,41.64775 76.401875,37.2115 76.401875,31.7515 C76.401875,26.2915 71.961875,21.8515 66.501875,21.8515 M66.501875,44.3515 C59.553125,44.3515 53.901875,38.6965 53.901875,31.7515 C53.901875,24.80275 59.553125,19.14775 66.501875,19.14775 C73.450625,19.14775 79.101875,24.80275 79.101875,31.7515 C79.101875,38.6965 73.450625,44.3515 66.501875,44.3515" id="Fill-16" fill="#8A3FFC"></path>
                <path d="M77.751875,51.8515 C72.291875,51.8515 67.851875,56.2915 67.851875,61.7515 C67.851875,67.2115 72.291875,71.64775 77.751875,71.64775 C83.211875,71.64775 87.651875,67.2115 87.651875,61.7515 C87.651875,56.2915 83.211875,51.8515 77.751875,51.8515 M77.751875,74.3515 C70.803125,74.3515 65.151875,68.6965 65.151875,61.7515 C65.151875,54.80275 70.803125,49.14775 77.751875,49.14775 C84.700625,49.14775 90.351875,54.80275 90.351875,61.7515 C90.351875,68.6965 84.700625,74.3515 77.751875,74.3515" id="Fill-18" fill="#8A3FFC"></path>
                <path d="M4.626875,9.25 C4.626875,10.28125 3.786875,11.125 2.751875,11.125 C1.716875,11.125 0.876875,10.28125 0.876875,9.25 C0.876875,8.215 1.716875,7.375 2.751875,7.375 C3.786875,7.375 4.626875,8.215 4.626875,9.25" id="Fill-20" fill="#8A3FFC"></path>
                <path d="M27.126875,16.75 C27.126875,17.785 26.286875,18.625 25.251875,18.625 C24.216875,18.625 23.376875,17.785 23.376875,16.75 C23.376875,15.715 24.216875,14.875 25.251875,14.875 C26.286875,14.875 27.126875,15.715 27.126875,16.75" id="Fill-22" fill="#8A3FFC"></path>
                <path d="M15.876875,24.25 C15.876875,25.28125 15.036875,26.125 14.001875,26.125 C12.966875,26.125 12.126875,25.28125 12.126875,24.25 C12.126875,23.215 12.966875,22.375 14.001875,22.375 C15.036875,22.375 15.876875,23.215 15.876875,24.25" id="Fill-24" fill="#8A3FFC"></path>
                <path d="M19.626875,31.75 C19.626875,32.78125 18.786875,33.625 17.751875,33.625 C16.716875,33.625 15.876875,32.78125 15.876875,31.75 C15.876875,30.715 16.716875,29.875 17.751875,29.875 C18.786875,29.875 19.626875,30.715 19.626875,31.75" id="Fill-26" fill="#8A3FFC"></path>
                <path d="M8.376875,28 C8.376875,29.03125 7.536875,29.875 6.501875,29.875 C5.466875,29.875 4.626875,29.03125 4.626875,28 C4.626875,26.965 5.466875,26.125 6.501875,26.125 C7.536875,26.125 8.376875,26.965 8.376875,28" id="Fill-28" fill="#8A3FFC"></path>
                <path d="M12.126875,35.5 C12.126875,36.53125 11.286875,37.375 10.251875,37.375 C9.216875,37.375 8.376875,36.53125 8.376875,35.5 C8.376875,34.465 9.216875,33.625 10.251875,33.625 C11.286875,33.625 12.126875,34.465 12.126875,35.5" id="Fill-30" fill="#8A3FFC"></path>
                <path d="M4.626875,43.1575 C4.626875,44.18875 3.786875,45.0325 2.751875,45.0325 C1.716875,45.0325 0.876875,44.18875 0.876875,43.1575 C0.876875,42.1225 1.716875,41.2825 2.751875,41.2825 C3.786875,41.2825 4.626875,42.1225 4.626875,43.1575" id="Fill-32" fill="#8A3FFC"></path>
                <path d="M15.876875,50.5 C15.876875,51.535 15.036875,52.375 14.001875,52.375 C12.966875,52.375 12.126875,51.535 12.126875,50.5 C12.126875,49.465 12.966875,48.625 14.001875,48.625 C15.036875,48.625 15.876875,49.465 15.876875,50.5" id="Fill-34" fill="#8A3FFC"></path>
                <path d="M8.376875,54.25 C8.376875,55.28125 7.536875,56.125 6.501875,56.125 C5.466875,56.125 4.626875,55.28125 4.626875,54.25 C4.626875,53.215 5.466875,52.375 6.501875,52.375 C7.536875,52.375 8.376875,53.215 8.376875,54.25" id="Fill-36" fill="#8A3FFC"></path>
                <path d="M66.501875,82.8985 C48.603125,82.8985 33.419375,71.05225 28.379375,54.78475 C29.774375,55.306 31.240625,55.60225 32.751875,55.60225 C39.700625,55.60225 45.351875,49.94725 45.351875,42.9985 C45.351875,36.0535 39.700625,30.3985 32.751875,30.3985 C31.236875,30.3985 29.770625,30.69475 28.379375,31.2085 C32.230625,18.7885 41.999375,8.956 54.374375,5.0035 C55.829375,10.42225 60.764375,14.35225 66.501875,14.35225 C72.239375,14.35225 77.174375,10.4185 78.629375,5.0035 C82.521875,6.24475 86.140625,8.08225 89.414375,10.38475 C88.278125,12.31225 87.651875,14.476 87.651875,16.7485 C87.651875,23.69725 93.303125,29.35225 100.251875,29.35225 C101.451875,29.35225 102.610625,29.1235 103.743125,28.7935 C105.434375,33.21475 106.401875,37.9885 106.401875,42.9985 C106.401875,65.0035 88.503125,82.8985 66.501875,82.8985 Z M26.601875,42.9985 C26.601875,40.12975 26.920625,37.336 27.498125,34.636 C29.073125,33.64225 30.873125,33.10225 32.751875,33.10225 C38.211875,33.10225 42.651875,37.5385 42.651875,42.9985 C42.651875,48.4585 38.211875,52.8985 32.751875,52.8985 C30.876875,52.8985 29.076875,52.351 27.498125,51.36475 C26.920625,48.661 26.601875,45.871 26.601875,42.9985 Z M76.034375,4.2985 C74.890625,8.56225 71.013125,11.6485 66.501875,11.6485 C61.986875,11.6485 58.109375,8.5585 56.969375,4.2985 C60.033125,3.54475 63.213125,3.10225 66.501875,3.10225 C69.790625,3.10225 72.970625,3.54475 76.034375,4.2985 Z M102.693125,26.30725 C101.898125,26.50975 101.088125,26.6485 100.251875,26.6485 C94.791875,26.6485 90.351875,22.2085 90.351875,16.7485 C90.351875,15.06475 90.779375,13.45225 91.574375,12.00475 C96.299375,15.8335 100.109375,20.72725 102.693125,26.30725 Z M116.204375,90.79225 L97.518125,72.10975 C104.680625,64.48225 109.101875,54.256 109.101875,42.9985 C109.101875,37.34725 107.969375,31.95475 105.959375,27.01225 C105.951875,26.8735 105.933125,26.72725 105.873125,26.58475 C105.831875,26.491 105.760625,26.416 105.700625,26.33725 C102.764375,19.456 98.043125,13.53475 92.151875,9.0685 C92.110625,9.0235 92.114375,8.956 92.061875,8.91475 C91.968125,8.8435 91.855625,8.80975 91.750625,8.76475 C87.734375,5.79475 83.193125,3.50725 78.273125,2.08975 C78.138125,2.0185 77.991875,1.9585 77.830625,1.936 C77.785625,1.92475 77.744375,1.9435 77.695625,1.93975 C74.121875,0.96475 70.383125,0.3985 66.501875,0.3985 C62.624375,0.3985 58.881875,0.96475 55.308125,1.93975 C55.259375,1.9435 55.221875,1.92475 55.173125,1.936 C55.011875,1.9585 54.865625,2.0185 54.730625,2.08975 C40.034375,6.32725 28.604375,18.2635 25.075625,33.24475 C25.008125,33.391 24.966875,33.54475 24.955625,33.706 C24.284375,36.70225 23.901875,39.80725 23.901875,42.9985 C23.901875,46.2535 24.303125,49.40725 24.996875,52.45225 C25.000625,52.471 25.004375,52.486 25.008125,52.5085 C25.308125,53.80225 25.656875,55.07725 26.069375,56.32975 C25.818125,56.206 25.548125,56.1235 25.251875,56.1235 C24.216875,56.1235 23.376875,56.9635 23.376875,57.9985 C23.376875,59.0335 24.216875,59.8735 25.251875,59.8735 C26.016875,59.8735 26.665625,59.41225 26.961875,58.75975 C33.239375,74.461 48.580625,85.60225 66.501875,85.60225 C77.759375,85.60225 87.985625,81.17725 95.609375,74.0185 L114.295625,92.70475 L116.204375,90.79225 Z" id="Fill-38" fill="#8A3FFC"></path>
                <path d="M15.876875,61.75 C15.876875,62.78125 15.036875,63.625 14.001875,63.625 C12.966875,63.625 12.126875,62.78125 12.126875,61.75 C12.126875,60.715 12.966875,59.875 14.001875,59.875 C15.036875,59.875 15.876875,60.715 15.876875,61.75" id="Fill-40" fill="#8A3FFC"></path>
                <path d="M34.626875,76.75 C34.626875,77.78125 33.786875,78.625 32.751875,78.625 C31.716875,78.625 30.876875,77.78125 30.876875,76.75 C30.876875,75.715 31.716875,74.875 32.751875,74.875 C33.786875,74.875 34.626875,75.715 34.626875,76.75" id="Fill-42" fill="#8A3FFC"></path>
                <path d="M45.876875,84.25 C45.876875,85.28125 45.036875,86.125 44.001875,86.125 C42.966875,86.125 42.126875,85.28125 42.126875,84.25 C42.126875,83.215 42.966875,82.375 44.001875,82.375 C45.036875,82.375 45.876875,83.215 45.876875,84.25" id="Fill-44" fill="#8A3FFC"></path>
                <path d="M23.376875,80.5 C23.376875,81.53125 22.536875,82.375 21.501875,82.375 C20.466875,82.375 19.626875,81.53125 19.626875,80.5 C19.626875,79.465 20.466875,78.625 21.501875,78.625 C22.536875,78.625 23.376875,79.465 23.376875,80.5" id="Fill-46" fill="#8A3FFC"></path>
                <path d="M15.876875,84.184 C15.876875,85.21525 15.036875,86.059 14.001875,86.059 C12.966875,86.059 12.126875,85.21525 12.126875,84.184 C12.126875,83.149 12.966875,82.309 14.001875,82.309 C15.036875,82.309 15.876875,83.149 15.876875,84.184" id="Fill-48" fill="#8A3FFC"></path>
                <path d="M8.376875,88 C8.376875,89.035 7.536875,89.875 6.501875,89.875 C5.466875,89.875 4.626875,89.035 4.626875,88 C4.626875,86.965 5.466875,86.125 6.501875,86.125 C7.536875,86.125 8.376875,86.965 8.376875,88" id="Fill-50" fill="#8A3FFC"></path>
                <path d="M19.62125,95.5 C19.62125,96.53125 18.78125,97.375 17.74625,97.375 C16.71125,97.375 15.87125,96.53125 15.87125,95.5 C15.87125,94.465 16.71125,93.625 17.74625,93.625 C18.78125,93.625 19.62125,94.465 19.62125,95.5" id="Fill-52" fill="#8A3FFC"></path>
                <path d="M15.876875,103 C15.876875,104.03125 15.036875,104.875 14.001875,104.875 C12.966875,104.875 12.126875,104.03125 12.126875,103 C12.126875,101.965 12.966875,101.125 14.001875,101.125 C15.036875,101.125 15.876875,101.965 15.876875,103" id="Fill-54" fill="#8A3FFC"></path>
                <path d="M30.876875,91.735375 C30.876875,92.770375 30.036875,93.610375 29.001875,93.610375 C27.966875,93.610375 27.126875,92.770375 27.126875,91.735375 C27.126875,90.700375 27.966875,89.860375 29.001875,89.860375 C30.036875,89.860375 30.876875,90.700375 30.876875,91.735375" id="Fill-56" fill="#8A3FFC"></path>
                <path d="M42.126875,99.25 C42.126875,100.285 41.286875,101.125 40.251875,101.125 C39.216875,101.125 38.376875,100.285 38.376875,99.25 C38.376875,98.215 39.216875,97.375 40.251875,97.375 C41.286875,97.375 42.126875,98.215 42.126875,99.25" id="Fill-58" fill="#8A3FFC"></path>
                <path d="M79.626875,91.75 C79.626875,92.785 78.786875,93.625 77.751875,93.625 C76.716875,93.625 75.876875,92.785 75.876875,91.75 C75.876875,90.715 76.716875,89.875 77.751875,89.875 C78.786875,89.875 79.626875,90.715 79.626875,91.75" id="Fill-60" fill="#8A3FFC"></path>
                <path d="M53.376875,114.25 C53.376875,115.28125 52.536875,116.125 51.501875,116.125 C50.466875,116.125 49.626875,115.28125 49.626875,114.25 C49.626875,113.215 50.466875,112.375 51.501875,112.375 C52.536875,112.375 53.376875,113.215 53.376875,114.25" id="Fill-62" fill="#8A3FFC"></path>
                <path d="M19.626875,3.625 C19.626875,4.66 18.786875,5.5 17.751875,5.5 C16.716875,5.5 15.876875,4.66 15.876875,3.625 C15.876875,2.59 16.716875,1.75 17.751875,1.75 C18.786875,1.75 19.626875,2.59 19.626875,3.625" id="Fill-64" fill="#8A3FFC"></path>
                <path d="M34.626875,5.533 C34.626875,6.568 33.786875,7.408 32.751875,7.408 C31.716875,7.408 30.876875,6.568 30.876875,5.533 C30.876875,4.498 31.716875,3.658 32.751875,3.658 C33.786875,3.658 34.626875,4.498 34.626875,5.533" id="Fill-66" fill="#8A3FFC"></path>
            </g>
        </g>
        <g id="Group-4-Copy-14" transform="translate(676.000000, 201.000000)">
            <polygon id="Fill-1" fill="#FFFFFF" points="0 120 120 120 120 0 0 0"></polygon>
            <path d="M73.125,58.125 C72.09,58.125 71.25,58.965 71.25,60 C71.25,61.035 72.09,61.875 73.125,61.875 C74.16,61.875 75,61.035 75,60 C75,58.965 74.16,58.125 73.125,58.125 Z M97.5,16.875 C96.465,16.875 95.625,17.715 95.625,18.75 C95.625,19.785 96.465,20.625 97.5,20.625 C98.535,20.625 99.375,19.785 99.375,18.75 C99.375,17.715 98.535,16.875 97.5,16.875 Z M46.875,18.75 C46.875,19.785 46.035,20.625 45,20.625 C43.965,20.625 43.125,19.785 43.125,18.75 C43.125,17.715 43.965,16.875 45,16.875 C46.035,16.875 46.875,17.715 46.875,18.75 Z M57.37125,21.15 L81.32625,21.15 C81.21,20.36625 81.15,19.5675 81.15,18.75 C81.15,17.9325 81.21,17.13375 81.32625,16.35 L57.37125,16.35 C57.52125,17.12625 57.6,17.92875 57.6,18.75 C57.6,19.57125 57.52125,20.37375 57.37125,21.15 Z M45,8.85 C39.54,8.85 35.1,13.29 35.1,18.75 C35.1,24.21 39.54,28.65 45,28.65 C50.46,28.65 54.9,24.21 54.9,18.75 C54.9,13.29 50.46,8.85 45,8.85 Z M97.5,5.1 C89.97375,5.1 83.85,11.22375 83.85,18.75 C83.85,26.27625 89.97375,32.4 97.5,32.4 C105.02625,32.4 111.15,26.27625 111.15,18.75 C111.15,11.22375 105.02625,5.1 97.5,5.1 Z M29.9175,37.96875 C30.6375,38.2275 31.3425,38.56125 32.025,38.97375 C32.80125,39.4425 33.51,39.99 34.1475,40.605 L40.0725,30.345 C38.5125,29.68125 37.11375,28.71 35.95125,27.51375 L29.9175,37.96875 Z M73.72875,47.4075 C75.71625,47.4075 77.7075,47.92125 79.48125,48.9525 C81.19125,49.9425 82.62,51.37125 83.61,53.08875 L83.89125,53.5725 L94.69125,34.86 C90.54375,34.14 86.925,31.845 84.4725,28.62375 L73.6275,47.4075 L73.72875,47.4075 Z M12.72375,53.1675 L28.785,62.4375 L33.73875,53.92875 C35.01375,51.81375 35.385,49.3425 34.7925,46.95375 C34.2,44.56125 32.7225,42.5475 30.62625,41.2875 C26.29125,38.65875 20.625,40.065 18.00375,44.4075 L12.72375,53.1675 Z M76.62,81.15 L96.6675,81.15 L81.27,54.43875 C80.52,53.13375 79.4325,52.0425 78.1275,51.28875 C75.43125,49.72125 72.09,49.70625 69.40875,51.25125 C68.10375,52.005 67.00875,53.10375 66.24,54.43125 C64.7325,57.02625 64.725,60.5175 66.225,63.11625 L76.62,81.15 Z M61.35,99.9 L107.4,99.9 L107.4,83.85375 L61.35,83.85375 L61.35,99.9 Z M6.075,114.9 L114.9,114.9 L114.9,102.6 L13.17375,102.6 L6.075,114.9 Z M116.25,117.6 L3.75,117.6 C3.00375,117.6 2.4,116.99625 2.4,116.25 C2.4,116.01375 2.46375,115.755 2.58,115.54875 L11.22375,100.575 C11.4675,100.15875 11.91375,99.9 12.39375,99.9 L58.65,99.9 L58.65,82.5 C58.65,81.75375 59.25375,81.15 60,81.15 L73.50375,81.15 L63.885,64.4625 C61.89,61.005 61.8975,56.53125 63.90375,53.07375 C64.90875,51.3375 66.345,49.90125 68.0625,48.915 C68.745,48.52125 69.45375,48.2025 70.18875,47.96625 L82.85625,26.02125 C82.51125,25.32375 82.21125,24.6 81.96375,23.85 L56.52,23.85 C54.55875,28.26375 50.13375,31.35 45,31.35 C44.22375,31.35 43.46625,31.27875 42.7275,31.1475 L35.96625,42.85875 C36.615,43.90875 37.10625,45.0675 37.41375,46.305 C38.17875,49.39875 37.69875,52.59 36.06,55.305 L30.4425,64.9575 C30.07125,65.6025 29.24625,65.83125 28.60125,65.44875 L20.6175,60.84 L17.58375,66.09375 C18.9075,67.1775 19.87875,68.6325 20.3775,70.31625 C21.0375,72.53625 20.79375,74.86875 19.69875,76.89 L17.745,80.49 C17.5725,80.71875 17.21625,81.06375 16.93875,81.14625 L11.07375,82.8825 L10.30875,80.295 L15.6525,78.70875 L17.32875,75.6 C18.07875,74.21625 18.24375,72.61125 17.79,71.085 C17.33625,69.5625 16.32375,68.30625 14.93625,67.55625 C13.5525,66.8025 11.95125,66.64125 10.42125,67.09125 C8.895,67.545 7.6425,68.5575 6.88875,69.945 L5.205,73.05375 L6.78,78.375 L4.1925,79.14375 L2.45625,73.28625 C2.355,72.94125 2.3925,72.57375 2.565,72.25875 L4.51875,68.65875 C5.61375,66.64125 7.43625,65.16 9.6525,64.50375 C11.52375,63.945 13.4775,64.0275 15.25125,64.7325 L18.2775,59.49 L10.18125,54.81375 C9.87,54.63375 9.64125,54.33375 9.55125,53.985 C9.46125,53.6325 9.51375,53.2575 9.70125,52.95 L15.69375,43.0125 C18.1575,38.925 22.7325,36.8475 27.165,37.335 L34.17375,25.1925 C33.04875,23.30625 32.4,21.10125 32.4,18.75 C32.4,11.80125 38.05125,6.15 45,6.15 C50.13375,6.15 54.55875,9.23625 56.52,13.65 L81.96375,13.65 C84.1125,7.12125 90.26625,2.4 97.5,2.4 C106.515,2.4 113.85,9.735 113.85,18.75 C113.85,27.70875 106.60875,35.00625 97.66875,35.09625 L85.4475,56.27625 L99.78375,81.15 L108.75,81.15 C109.49625,81.15 110.1,81.75375 110.1,82.5 L110.1,99.9 L116.25,99.9 C116.99625,99.9 117.6,100.50375 117.6,101.25 L117.6,116.25 C117.6,116.99625 116.99625,117.6 116.25,117.6 Z" id="Fill-2" fill="url(#linearGradient-1)"></path>
        </g>
    </g>
</svg>