<?xml version="1.0" encoding="UTF-8"?>
<svg width="288px" height="288px" viewBox="0 0 288 288" version="1.1" xmlns="http://www.w3.org/2000/svg" xmlns:xlink="http://www.w3.org/1999/xlink">
    <!-- Generator: Sketch 52.5 (67469) - http://www.bohemiancoding.com/sketch -->
    <title>Artboard Copy 74</title>
    <desc>Created with Sketch.</desc>
    <g id="Artboard-Copy-74" stroke="none" stroke-width="1" fill="none" fill-rule="evenodd">
        <rect id="Rectangle-3-Copy-45" fill="#FFFFFF" x="0" y="0" width="288" height="288"></rect>
        <rect id="Rectangle-3-Copy-46" fill="#e5e5e5" x="0" y="0" width="288" height="288"></rect>
        <g id="Group-4-Copy-11" transform="translate(52.000000, 52.000000)">
            <polygon id="Fill-1" points="0 184 184 184 184 0 0 0"></polygon>
            <path d="M91.412437,97.179687 C94.586437,97.179687 97.162437,94.603687 97.162437,91.429687 C97.162437,88.249937 94.586437,85.673937 91.412437,85.673937 C88.238437,85.673937 85.662437,88.249937 85.662437,91.429687 C85.662437,94.603687 88.238437,97.179687 91.412437,97.179687 M91.412437,64.743937 C76.698187,64.743937 64.732437,76.715437 64.732437,91.429687 C64.732437,106.143937 76.698187,118.109687 91.412437,118.109687 C106.126687,118.109687 118.092437,106.143937 118.092437,91.429687 C118.092437,76.715437 106.126687,64.743937 91.412437,64.743937 M91.412437,122.249687 C74.415437,122.249687 60.592437,108.420937 60.592437,91.429687 C60.592437,74.432687 74.415437,60.603937 91.412437,60.603937 C108.409437,60.603937 122.232437,74.432687 122.232437,91.429687 C122.232437,108.420937 108.409437,122.249687 91.412437,122.249687 M91.412437,35.988187 C60.845437,35.988187 35.982437,60.862687 35.982437,91.429687 C35.982437,121.996687 60.845437,146.865437 91.412437,146.865437 C121.973687,146.865437 146.842437,121.996687 146.842437,91.429687 C146.842437,60.862687 121.973687,35.988187 91.412437,35.988187 M91.412437,151.005437 C58.562687,151.005437 31.842437,124.279437 31.842437,91.429687 C31.842437,58.574187 58.562687,31.848187 91.412437,31.848187 C124.256437,31.848187 150.982437,58.574187 150.982437,91.429687 C150.982437,124.279437 124.256437,151.005437 91.412437,151.005437 M91.412437,7.23243697 C44.992687,7.23243697 7.23243697,45.004187 7.23243697,91.429687 C7.23243697,137.849437 44.992687,175.621187 91.412437,175.621187 C137.832187,175.621187 175.592437,137.849437 175.592437,91.429687 C175.592437,45.004187 137.832187,7.23243697 91.412437,7.23243697 M91.412437,179.761187 C42.709937,179.761187 3.09243697,140.137937 3.09243697,91.429687 C3.09243697,42.721437 42.709937,3.09243697 91.412437,3.09243697 C140.109187,3.09243697 179.732437,42.721437 179.732437,91.429687 C179.732437,140.137937 140.109187,179.761187 91.412437,179.761187" id="Fill-2" fill="#97C1FF"></path>
        </g>
    </g>
</svg>
