<?xml version="1.0" encoding="UTF-8"?>
<svg width="928px" height="522px" viewBox="0 0 928 522" version="1.1" xmlns="http://www.w3.org/2000/svg" xmlns:xlink="http://www.w3.org/1999/xlink">
    <!-- Generator: Sketch 52.4 (67378) - http://www.bohemiancoding.com/sketch -->
    <title>Artboard Copy 8</title>
    <desc>Created with Sketch.</desc>
    <g id="Artboard-Copy-8" stroke="none" stroke-width="1" fill="none" fill-rule="evenodd">
        <rect id="Rectangle-3-Copy-45" fill="#EDF4FF" x="464" y="0" width="464" height="522"></rect>
        <rect id="Rectangle-3-Copy-46" fill="#054ADA" transform="translate(232.000000, 261.000000) scale(-1, 1) translate(-232.000000, -261.000000) " x="0" y="0" width="464" height="522"></rect>
        <g id="Group-17-Copy-3" transform="translate(140.000000, 169.000000)">
            <polygon id="Fill-1" points="0 184 184 184 184 0 0 0"></polygon>
            <g id="Group-16" transform="translate(3.000000, 3.000000)" fill="#FFFFFF">
                <path d="M19.997125,4.8223 C11.625125,4.8223 4.817125,11.6303 4.817125,20.0023 C4.817125,28.3743 11.625125,35.17655 19.997125,35.17655 C28.369125,35.17655 35.177125,28.3743 35.177125,20.0023 C35.177125,11.6303 28.369125,4.8223 19.997125,4.8223 M19.997125,39.3223 C9.342375,39.3223 0.677125,30.6513 0.677125,20.0023 C0.677125,9.34755 9.342375,0.67655 19.997125,0.67655 C30.651875,0.67655 39.317125,9.34755 39.317125,20.0023 C39.317125,30.6513 30.651875,39.3223 19.997125,39.3223" id="Fill-2"></path>
                <path d="M157.991375,142.8223 C149.619375,142.8223 142.811375,149.6303 142.811375,158.0023 C142.811375,166.3743 149.619375,173.17655 157.991375,173.17655 C166.363375,173.17655 173.171375,166.3743 173.171375,158.0023 C173.171375,149.6303 166.363375,142.8223 157.991375,142.8223 M157.991375,177.3223 C147.336625,177.3223 138.671375,168.6513 138.671375,158.0023 C138.671375,147.34755 147.336625,138.67655 157.991375,138.67655 C168.646125,138.67655 177.311375,147.34755 177.311375,158.0023 C177.311375,168.6513 168.646125,177.3223 157.991375,177.3223" id="Fill-4"></path>
                <path d="M19.997125,154.327475 C17.967375,154.327475 16.317125,155.977725 16.317125,158.007475 C16.317125,160.031475 17.967375,161.681725 19.997125,161.681725 C22.026875,161.681725 23.677125,160.031475 23.677125,158.007475 C23.677125,155.977725 22.026875,154.327475 19.997125,154.327475 M19.997125,165.827475 C15.684625,165.827475 12.177125,162.319975 12.177125,158.007475 C12.177125,153.694975 15.684625,150.181725 19.997125,150.181725 C24.309625,150.181725 27.817125,153.694975 27.817125,158.007475 C27.817125,162.319975 24.309625,165.827475 19.997125,165.827475" id="Fill-6"></path>
                <path d="M157.991375,16.327475 C155.961625,16.327475 154.311375,17.977725 154.311375,20.007475 C154.311375,22.031475 155.961625,23.681725 157.991375,23.681725 C160.021125,23.681725 161.671375,22.031475 161.671375,20.007475 C161.671375,17.977725 160.021125,16.327475 157.991375,16.327475 M157.991375,27.827475 C153.678875,27.827475 150.171375,24.319975 150.171375,20.007475 C150.171375,15.694975 153.678875,12.181725 157.991375,12.181725 C162.303875,12.181725 165.811375,15.694975 165.811375,20.007475 C165.811375,24.319975 162.303875,27.827475 157.991375,27.827475" id="Fill-8"></path>
                <path d="M88.997125,62.3223 C74.282875,62.3223 62.317125,74.28805 62.317125,89.0023 C62.317125,103.7108 74.282875,115.67655 88.997125,115.67655 C103.711375,115.67655 115.677125,103.7108 115.677125,89.0023 C115.677125,74.28805 103.711375,62.3223 88.997125,62.3223 M88.997125,119.8223 C72.000125,119.8223 58.177125,105.99355 58.177125,89.0023 C58.177125,72.01105 72.000125,58.17655 88.997125,58.17655 C105.994125,58.17655 119.817125,72.01105 119.817125,89.0023 C119.817125,105.99355 105.994125,119.8223 88.997125,119.8223" id="Fill-10"></path>
                <path d="M88.997125,73.827475 C80.625125,73.827475 73.817125,80.635475 73.817125,89.007475 C73.817125,97.379475 80.625125,104.181725 88.997125,104.181725 C97.369125,104.181725 104.177125,97.379475 104.177125,89.007475 C104.177125,80.635475 97.369125,73.827475 88.997125,73.827475 M88.997125,108.327475 C78.342375,108.327475 69.677125,99.656475 69.677125,89.007475 C69.677125,78.352725 78.342375,69.681725 88.997125,69.681725 C99.651875,69.681725 108.317125,78.352725 108.317125,89.007475 C108.317125,99.656475 99.651875,108.327475 88.997125,108.327475" id="Fill-12"></path>
                <path d="M157.991375,35.1777 C154.305625,35.1777 150.970625,33.8092 148.337125,31.6127 L146.353375,29.6232 C144.174125,26.99545 142.811375,23.67195 142.811375,19.9977 C142.811375,11.6257 149.619375,4.82345 157.991375,4.82345 C166.363375,4.82345 173.171375,11.6257 173.171375,19.9977 C173.171375,28.3697 166.363375,35.1777 157.991375,35.1777 M149.958625,89.00345 C147.204375,94.6212 129.442625,127.18345 88.997125,127.18345 C48.551625,127.18345 30.789875,94.6212 28.035625,89.00345 C30.789875,83.39145 48.551625,50.8292 88.997125,50.8292 C129.442625,50.8292 147.204375,83.39145 149.958625,89.00345 M19.997125,173.1777 C11.625125,173.1777 4.817125,166.3697 4.817125,157.9977 C4.817125,149.6257 11.625125,142.82345 19.997125,142.82345 C28.369125,142.82345 35.177125,149.6257 35.177125,157.9977 C35.177125,166.3697 28.369125,173.1777 19.997125,173.1777 M157.991375,0.6777 C147.336625,0.6777 138.671375,9.3487 138.671375,19.9977 C138.671375,24.58045 140.338875,28.7377 143.012625,32.0497 L120.903875,54.1642 C112.215625,49.7482 101.693125,46.68345 88.997125,46.68345 C42.174875,46.68345 24.022125,87.77295 23.843875,88.1927 C23.619625,88.71595 23.619625,89.2967 23.843875,89.81995 C23.964625,90.10745 32.606875,109.65745 53.249375,121.82445 L32.049125,143.01895 C28.731375,140.3452 24.574125,138.6777 19.997125,138.6777 C9.342375,138.6777 0.677125,147.3487 0.677125,157.9977 C0.677125,168.65245 9.342375,177.32345 19.997125,177.32345 C30.651875,177.32345 39.317125,168.65245 39.317125,157.9977 C39.317125,153.41495 37.649625,149.26345 34.975875,145.95145 L57.084625,123.8427 C65.778625,128.25295 76.295375,131.3292 88.997125,131.3292 C135.819375,131.3292 153.972125,90.23395 154.150375,89.81995 C154.374625,89.2967 154.374625,88.71595 154.150375,88.1927 C154.029625,87.9052 145.387375,68.34945 124.739125,56.18245 L145.945125,34.9822 C149.257125,37.65595 153.414375,39.32345 157.991375,39.32345 C168.646125,39.32345 177.311375,30.65245 177.311375,19.9977 C177.311375,9.3487 168.646125,0.6777 157.991375,0.6777" id="Fill-14"></path>
            </g>
        </g>
        <g id="Group-17-Copy-4" transform="translate(604.000000, 169.000000)">
            <polygon id="Fill-1" points="0 184 184 184 184 0 0 0"></polygon>
            <g id="Group-16" transform="translate(3.000000, 3.000000)" fill="#054ADA">
                <path d="M19.997125,4.8223 C11.625125,4.8223 4.817125,11.6303 4.817125,20.0023 C4.817125,28.3743 11.625125,35.17655 19.997125,35.17655 C28.369125,35.17655 35.177125,28.3743 35.177125,20.0023 C35.177125,11.6303 28.369125,4.8223 19.997125,4.8223 M19.997125,39.3223 C9.342375,39.3223 0.677125,30.6513 0.677125,20.0023 C0.677125,9.34755 9.342375,0.67655 19.997125,0.67655 C30.651875,0.67655 39.317125,9.34755 39.317125,20.0023 C39.317125,30.6513 30.651875,39.3223 19.997125,39.3223" id="Fill-2"></path>
                <path d="M157.991375,142.8223 C149.619375,142.8223 142.811375,149.6303 142.811375,158.0023 C142.811375,166.3743 149.619375,173.17655 157.991375,173.17655 C166.363375,173.17655 173.171375,166.3743 173.171375,158.0023 C173.171375,149.6303 166.363375,142.8223 157.991375,142.8223 M157.991375,177.3223 C147.336625,177.3223 138.671375,168.6513 138.671375,158.0023 C138.671375,147.34755 147.336625,138.67655 157.991375,138.67655 C168.646125,138.67655 177.311375,147.34755 177.311375,158.0023 C177.311375,168.6513 168.646125,177.3223 157.991375,177.3223" id="Fill-4"></path>
                <path d="M19.997125,154.327475 C17.967375,154.327475 16.317125,155.977725 16.317125,158.007475 C16.317125,160.031475 17.967375,161.681725 19.997125,161.681725 C22.026875,161.681725 23.677125,160.031475 23.677125,158.007475 C23.677125,155.977725 22.026875,154.327475 19.997125,154.327475 M19.997125,165.827475 C15.684625,165.827475 12.177125,162.319975 12.177125,158.007475 C12.177125,153.694975 15.684625,150.181725 19.997125,150.181725 C24.309625,150.181725 27.817125,153.694975 27.817125,158.007475 C27.817125,162.319975 24.309625,165.827475 19.997125,165.827475" id="Fill-6"></path>
                <path d="M157.991375,16.327475 C155.961625,16.327475 154.311375,17.977725 154.311375,20.007475 C154.311375,22.031475 155.961625,23.681725 157.991375,23.681725 C160.021125,23.681725 161.671375,22.031475 161.671375,20.007475 C161.671375,17.977725 160.021125,16.327475 157.991375,16.327475 M157.991375,27.827475 C153.678875,27.827475 150.171375,24.319975 150.171375,20.007475 C150.171375,15.694975 153.678875,12.181725 157.991375,12.181725 C162.303875,12.181725 165.811375,15.694975 165.811375,20.007475 C165.811375,24.319975 162.303875,27.827475 157.991375,27.827475" id="Fill-8"></path>
                <path d="M88.997125,62.3223 C74.282875,62.3223 62.317125,74.28805 62.317125,89.0023 C62.317125,103.7108 74.282875,115.67655 88.997125,115.67655 C103.711375,115.67655 115.677125,103.7108 115.677125,89.0023 C115.677125,74.28805 103.711375,62.3223 88.997125,62.3223 M88.997125,119.8223 C72.000125,119.8223 58.177125,105.99355 58.177125,89.0023 C58.177125,72.01105 72.000125,58.17655 88.997125,58.17655 C105.994125,58.17655 119.817125,72.01105 119.817125,89.0023 C119.817125,105.99355 105.994125,119.8223 88.997125,119.8223" id="Fill-10"></path>
                <path d="M88.997125,73.827475 C80.625125,73.827475 73.817125,80.635475 73.817125,89.007475 C73.817125,97.379475 80.625125,104.181725 88.997125,104.181725 C97.369125,104.181725 104.177125,97.379475 104.177125,89.007475 C104.177125,80.635475 97.369125,73.827475 88.997125,73.827475 M88.997125,108.327475 C78.342375,108.327475 69.677125,99.656475 69.677125,89.007475 C69.677125,78.352725 78.342375,69.681725 88.997125,69.681725 C99.651875,69.681725 108.317125,78.352725 108.317125,89.007475 C108.317125,99.656475 99.651875,108.327475 88.997125,108.327475" id="Fill-12"></path>
                <path d="M157.991375,35.1777 C154.305625,35.1777 150.970625,33.8092 148.337125,31.6127 L146.353375,29.6232 C144.174125,26.99545 142.811375,23.67195 142.811375,19.9977 C142.811375,11.6257 149.619375,4.82345 157.991375,4.82345 C166.363375,4.82345 173.171375,11.6257 173.171375,19.9977 C173.171375,28.3697 166.363375,35.1777 157.991375,35.1777 M149.958625,89.00345 C147.204375,94.6212 129.442625,127.18345 88.997125,127.18345 C48.551625,127.18345 30.789875,94.6212 28.035625,89.00345 C30.789875,83.39145 48.551625,50.8292 88.997125,50.8292 C129.442625,50.8292 147.204375,83.39145 149.958625,89.00345 M19.997125,173.1777 C11.625125,173.1777 4.817125,166.3697 4.817125,157.9977 C4.817125,149.6257 11.625125,142.82345 19.997125,142.82345 C28.369125,142.82345 35.177125,149.6257 35.177125,157.9977 C35.177125,166.3697 28.369125,173.1777 19.997125,173.1777 M157.991375,0.6777 C147.336625,0.6777 138.671375,9.3487 138.671375,19.9977 C138.671375,24.58045 140.338875,28.7377 143.012625,32.0497 L120.903875,54.1642 C112.215625,49.7482 101.693125,46.68345 88.997125,46.68345 C42.174875,46.68345 24.022125,87.77295 23.843875,88.1927 C23.619625,88.71595 23.619625,89.2967 23.843875,89.81995 C23.964625,90.10745 32.606875,109.65745 53.249375,121.82445 L32.049125,143.01895 C28.731375,140.3452 24.574125,138.6777 19.997125,138.6777 C9.342375,138.6777 0.677125,147.3487 0.677125,157.9977 C0.677125,168.65245 9.342375,177.32345 19.997125,177.32345 C30.651875,177.32345 39.317125,168.65245 39.317125,157.9977 C39.317125,153.41495 37.649625,149.26345 34.975875,145.95145 L57.084625,123.8427 C65.778625,128.25295 76.295375,131.3292 88.997125,131.3292 C135.819375,131.3292 153.972125,90.23395 154.150375,89.81995 C154.374625,89.2967 154.374625,88.71595 154.150375,88.1927 C154.029625,87.9052 145.387375,68.34945 124.739125,56.18245 L145.945125,34.9822 C149.257125,37.65595 153.414375,39.32345 157.991375,39.32345 C168.646125,39.32345 177.311375,30.65245 177.311375,19.9977 C177.311375,9.3487 168.646125,0.6777 157.991375,0.6777" id="Fill-14"></path>
            </g>
        </g>
    </g>
</svg>