<?xml version="1.0" encoding="UTF-8"?>
<svg width="288px" height="288px" viewBox="0 0 288 288" version="1.1" xmlns="http://www.w3.org/2000/svg" xmlns:xlink="http://www.w3.org/1999/xlink">
    <!-- Generator: Sketch 52.5 (67469) - http://www.bohemiancoding.com/sketch -->
    <title>Artboard Copy 75</title>
    <desc>Created with Sketch.</desc>
    <g id="Artboard-Copy-75" stroke="none" stroke-width="1" fill="none" fill-rule="evenodd">
        <rect id="Rectangle-3-Copy-45" fill="#FFFFFF" x="0" y="0" width="288" height="288"></rect>
        <rect id="Rectangle-3-Copy-46" fill="#EDF4FF" x="0" y="0" width="288" height="288"></rect>
        <g id="Group-4-Copy-11" transform="translate(53.000000, 52.000000)">
            <polygon id="Fill-1" points="0 184 182.453782 184 182.453782 0 0 0"></polygon>
            <path d="M174.522174,176.357675 L174.522174,25.253425 L7.57696345,25.253425 L7.57696345,176.357675 L26.2784761,176.357675 L26.2784761,172.666175 C26.2784761,145.577925 45.0141987,121.013925 71.5042071,112.434925 C60.9332912,105.718925 54.3364466,93.931425 54.3364466,81.126175 C54.3364466,60.713675 70.8086021,44.107675 91.0438668,44.107675 C111.284833,44.107675 127.745585,60.713675 127.745585,81.126175 C127.745585,93.931425 121.154442,105.718925 110.589228,112.434925 C137.079237,121.013925 155.814959,145.577925 155.814959,172.666175 L155.814959,176.357675 L174.522174,176.357675 Z M79.0247239,113.228425 C78.9449004,114.119675 78.3120139,114.849925 77.4567618,115.056925 C50.1799214,121.577425 30.3836861,145.807925 30.3836861,172.666175 L30.3836861,176.357675 L151.709749,176.357675 L151.709749,172.666175 C151.709749,145.807925 131.913514,121.577425 104.636674,115.056925 C103.77572,114.849925 103.148535,114.119675 103.06301,113.228425 C102.983186,112.348675 103.467829,111.514925 104.271766,111.146925 C116.040035,105.868425 123.640375,94.080925 123.640375,81.126175 C123.640375,62.996425 109.015564,48.253425 91.0438668,48.253425 C73.0721693,48.253425 58.4473584,62.996425 58.4473584,81.126175 C58.4473584,94.080925 66.0476987,105.868425 77.8159676,111.146925 C78.6199046,111.514925 79.1045475,112.348675 79.0247239,113.228425 Z M7.57696345,21.107675 L174.522174,21.107675 L174.522174,8.003425 L7.57696345,8.003425 L7.57696345,21.107675 Z M178.627384,5.927675 L178.627384,178.427675 C178.627384,179.577675 177.709413,180.503425 176.574779,180.503425 L5.5243584,180.503425 C4.39542563,180.503425 3.47175336,179.577675 3.47175336,178.427675 L3.47175336,5.927675 C3.47175336,4.783425 4.39542563,3.857675 5.5243584,3.857675 L176.574779,3.857675 C177.709413,3.857675 178.627384,4.783425 178.627384,5.927675 Z M139.513854,11.677675 C137.94019,11.677675 136.663014,12.965675 136.663014,14.552675 C136.663014,16.145425 137.94019,17.427675 139.513854,17.427675 C141.087518,17.427675 142.364695,16.145425 142.364695,14.552675 C142.364695,12.965675 141.087518,11.677675 139.513854,11.677675 Z M150.917216,11.677675 C149.343552,11.677675 148.066375,12.965675 148.066375,14.552675 C148.066375,16.145425 149.343552,17.427675 150.917216,17.427675 C152.490879,17.427675 153.768056,16.145425 153.768056,14.552675 C153.768056,12.965675 152.490879,11.677675 150.917216,11.677675 Z M165.171417,14.552675 C165.171417,16.145425 163.894241,17.427675 162.320577,17.427675 C160.746913,17.427675 159.469737,16.145425 159.469737,14.552675 C159.469737,12.965675 160.746913,11.677675 162.320577,11.677675 C163.894241,11.677675 165.171417,12.965675 165.171417,14.552675 Z" id="Fill-2" fill="#0062FF"></path>
        </g>
    </g>
</svg>