<?xml version="1.0" encoding="UTF-8"?>
<svg width="288px" height="288px" viewBox="0 0 288 288" version="1.1" xmlns="http://www.w3.org/2000/svg" xmlns:xlink="http://www.w3.org/1999/xlink">
    <!-- Generator: Sketch 52.5 (67469) - http://www.bohemiancoding.com/sketch -->
    <title>Artboard Copy 79</title>
    <desc>Created with Sketch.</desc>
    <defs>
        <linearGradient x1="102.064932%" y1="-2.2275189%" x2="-2.04197717%" y2="102.042142%" id="linearGradient-1">
            <stop stop-color="#20D5D2" offset="0%"></stop>
            <stop stop-color="#BB8EFF" offset="53.2627348%"></stop>
            <stop stop-color="#0062FF" offset="100%"></stop>
        </linearGradient>
    </defs>
    <g id="Artboard-Copy-79" stroke="none" stroke-width="1" fill="none" fill-rule="evenodd">
        <rect id="Rectangle-3-Copy-45" fill="#FFFFFF" x="0" y="0" width="288" height="288"></rect>
        <g id="Group-4-Copy-12" transform="translate(52.000000, 52.000000)">
            <polygon id="Fill-1" fill="#FFFFFF" points="0 184 184 184 184 0 0 0"></polygon>
            <path d="M89.93,36.57 L94.07,36.57 L94.07,15.17425 L89.93,15.17425 L89.93,36.57 Z M61.364,43.079 L51.796,26.50175 L55.384,24.43175 L64.94625,41.009 L61.364,43.079 Z M119.3125,48.829 L115.73025,46.759 L128.616,24.43175 L132.204,26.50175 L119.3125,48.829 Z M38.134,63.296 L24.4375,55.384 L26.5075,51.796 L40.204,59.708 L38.134,63.296 Z M15.18,94.07 L27.945,94.07 L27.945,89.92425 L15.18,89.92425 L15.18,94.07 Z M141.68,94.07 L168.82,94.07 L168.82,89.92425 L141.68,89.92425 L141.68,94.07 Z M91.241,94.829 L89.171,91.241 L157.4925,51.796 L159.5625,55.384 L91.241,94.829 Z M26.5075,132.204 L24.4375,128.616 L33.005,123.671 L35.075,127.259 L26.5075,132.204 Z M157.4925,132.204 L131.48525,117.19075 L133.55525,113.60275 L159.5625,128.616 L157.4925,132.204 Z M92,7.82 C45.58025,7.82 7.82,45.586 7.82,92 C7.82,138.414 45.58025,176.18 92,176.18 C138.41975,176.18 176.18,138.414 176.18,92 C176.18,45.586 138.41975,7.82 92,7.82 Z M92,180.32 C43.2975,180.32 3.68,140.7025 3.68,92 C3.68,43.2975 43.2975,3.68 92,3.68 C140.7025,3.68 180.32,43.2975 180.32,92 C180.32,140.7025 140.7025,180.32 92,180.32 Z" id="Fill-2" fill="url(#linearGradient-1)"></path>
        </g>
    </g>
</svg>