<?xml version="1.0" encoding="utf-8"?>
<!-- Generator: Adobe Illustrator 22.1.0, SVG Export Plug-In . SVG Version: 6.00 Build 0)  -->
<svg version="1.1" id="Layer_1" xmlns="http://www.w3.org/2000/svg" xmlns:xlink="http://www.w3.org/1999/xlink" x="0px" y="0px"
	 viewBox="0 0 288 546" style="enable-background:new 0 0 288 546;" xml:space="preserve">
<style type="text/css">
	.st0{fill:#051243;}
	.st1{fill:none;}
	.st2{fill:#061F80;}
	.st3{fill:#0530AD;}
	.st4{fill:#408BFC;}
	.st5{fill:none;stroke:#000000;stroke-width:0.5;stroke-linecap:round;stroke-linejoin:round;}
	.st6{fill:#171717;}
</style>
<title>Artboard Copy 57</title>
<desc>Created with Sketch.</desc>
<g id="Artboard-Copy-57">
	<rect id="Rectangle-3-Copy-80" class="st0" width="288" height="288"/>
	<g id="Group-88-Copy" transform="translate(44.000000, 41.000000)">
		<g id="Group-19-Copy-5" transform="translate(121.413793, 126.586207)">
			<polygon id="Fill-1" class="st1" points="0,78.6 78.6,78.6 78.6,0 0,0 			"/>
			<polygon id="Fill-2" class="st2" points="30.7,19.7 47.9,19.7 47.9,2.5 30.7,2.5 			"/>
			<polygon id="Fill-3" class="st2" points="2.4,76.2 19.6,76.2 19.6,59 2.4,59 			"/>
			<polygon id="Fill-4" class="st2" points="59,47.9 76.2,47.9 76.2,30.7 59,30.7 			"/>
			<polygon id="Fill-5" class="st3" points="39.3,61.1 30.8,75.9 47.8,75.9 			"/>
			<polygon id="Fill-6" class="st3" points="2.4,46.4 19.5,46.4 11,31.6 			"/>
			<polygon id="Fill-7" class="st3" points="59.1,16.9 76.2,16.9 67.6,2.2 			"/>
			<g id="Group-18">
				<path id="Fill-8" class="st4" d="M31.6,18.8H47V3.3H31.6V18.8z M47.9,20.5H30.7c-0.5,0-0.9-0.4-0.9-0.9V2.4
					c0-0.5,0.4-0.9,0.9-0.9h17.2c0.5,0,0.9,0.4,0.9,0.9v17.2C48.8,20.1,48.4,20.5,47.9,20.5z"/>
				<path id="Fill-10" class="st4" d="M3.3,75.3h15.4V59.8H3.3V75.3z M19.6,77H2.4c-0.5,0-0.9-0.4-0.9-0.9V59c0-0.5,0.4-0.9,0.9-0.9
					h17.2c0.5,0,0.9,0.4,0.9,0.9v17.2C20.5,76.6,20.1,77,19.6,77z"/>
				<path id="Fill-11" class="st4" d="M59.8,47h15.4V31.6H59.8V47z M76.2,48.8H59c-0.5,0-0.9-0.4-0.9-0.9V30.7
					c0-0.5,0.4-0.9,0.9-0.9h17.2c0.5,0,0.9,0.4,0.9,0.9v17.2C77,48.4,76.6,48.8,76.2,48.8z"/>
				<path id="Fill-12" class="st4" d="M39.3,31.6c-4.3,0-7.7,3.5-7.7,7.7c0,4.3,3.5,7.7,7.7,7.7s7.7-3.5,7.7-7.7
					C47.1,35.1,43.6,31.6,39.3,31.6 M39.3,48.8c-5.2,0-9.5-4.3-9.5-9.5s4.3-9.5,9.5-9.5s9.5,4.3,9.5,9.5S44.6,48.8,39.3,48.8"/>
				<path id="Fill-13" class="st4" d="M66.4,59.9l-0.3-1.7c0.5-0.1,0.9,0.3,1,0.7C67.3,59.4,66.9,59.8,66.4,59.9z M71.1,60.6
					c-0.1,0-0.2,0-0.3,0c-0.4-0.2-0.7-0.8-0.5-1.2s0.7-0.7,1.1-0.4L71,59.8l0.4-0.8c0.5,0.2,0.7,0.6,0.5,1.1
					C71.8,60.4,71.5,60.6,71.1,60.6z M62.5,61.7l-0.6-0.6l-0.5-0.7c0.4-0.3,0.9-0.3,1.2,0.1S62.9,61.4,62.5,61.7z M74.8,63.7
					c-0.3,0-0.5-0.1-0.7-0.4l1.4-1l-0.7,0.5l0.8-0.5c0.3,0.4,0.2,1-0.2,1.2C75.1,63.7,74.9,63.7,74.8,63.7z M60.1,65.4l-1.7-0.5
					c0.1-0.5,0.6-0.7,1.1-0.6C60,64.4,60.3,64.9,60.1,65.4z M76.2,68.5c-0.5,0-0.9-0.4-0.9-0.9c0,0,0,0,0-0.1l0,0
					c0-0.5,0.4-0.8,0.9-0.8s0.8,0.3,0.9,0.8h-0.9H77l0,0l0,0l0,0l0,0l0,0C77,68.1,76.6,68.5,76.2,68.5z M59.3,70.9
					c-0.4,0-0.7-0.2-0.8-0.6v-0.1c-0.1-0.5,0.2-1,0.6-1.1c0.5-0.1,1,0.2,1.1,0.6c0.1,0.5-0.1,1-0.6,1.1
					C59.5,70.9,59.4,70.9,59.3,70.9z M74.8,73.1c-0.2,0-0.4-0.1-0.5-0.2c-0.4-0.3-0.5-0.8-0.2-1.2c0.3-0.4,0.8-0.5,1.2-0.3
					c0.4,0.3,0.5,0.8,0.3,1.2c0,0,0,0.1-0.1,0.1C75.3,73,75,73.1,74.8,73.1z M61.9,75c-0.2,0-0.4-0.1-0.5-0.2l-0.1-0.1
					c-0.4-0.3-0.4-0.9,0-1.3c0.3-0.4,0.9-0.4,1.3,0c0.3,0.3,0.4,0.9,0.1,1.2C62.4,74.8,62.2,75,61.9,75z M71.1,76.3
					c-0.4,0-0.7-0.2-0.8-0.6c-0.1-0.5,0.1-1,0.6-1.1c0.4-0.2,0.9,0,1.1,0.4s0,1-0.4,1.2c0,0-0.1,0.1-0.2,0.1
					C71.3,76.3,71.2,76.3,71.1,76.3z M66.4,77L66.4,77h-0.2c-0.5-0.1-0.8-0.5-0.7-1s0.5-0.8,1-0.7c0.5,0.1,0.8,0.5,0.8,1
					C67.1,76.6,66.8,77,66.4,77z"/>
				<path id="Fill-14" class="st4" d="M11,3.3c-4.3,0-7.7,3.5-7.7,7.7c0,4.3,3.5,7.7,7.7,7.7s7.7-3.5,7.7-7.7
					C18.8,6.8,15.3,3.3,11,3.3 M11,20.5c-5.2,0-9.5-4.3-9.5-9.5S5.8,1.6,11,1.6s9.5,4.3,9.5,9.5S16.3,20.5,11,20.5"/>
				<path id="Fill-15" class="st4" d="M32.3,75.3h14l-7-12.1L32.3,75.3z M47.8,77h-17c-0.3,0-0.6-0.2-0.8-0.4
					c-0.2-0.3-0.2-0.6,0-0.9L38.5,61c0.3-0.5,1.2-0.5,1.5,0l8.5,14.7c0.2,0.3,0.2,0.6,0,0.9C48.4,76.9,48.1,77,47.8,77z"/>
				<path id="Fill-16" class="st4" d="M4,45.8h14l-7-12.1L4,45.8z M19.5,47.6h-17c-0.3,0-0.6-0.2-0.8-0.4c-0.2-0.3-0.2-0.6,0-0.9
					l8.5-14.7c0.3-0.5,1.2-0.5,1.5,0l8.5,14.7c0.2,0.3,0.2,0.6,0,0.9C20.1,47.4,19.8,47.6,19.5,47.6z"/>
				<path id="Fill-17" class="st4" d="M60.7,16.3h14l-7-12.1L60.7,16.3z M76.2,18.1h-17c-0.3,0-0.6-0.2-0.8-0.4
					c-0.2-0.3-0.2-0.6,0-0.9L66.9,2c0.3-0.5,1.2-0.5,1.5,0l8.5,14.7c0.2,0.3,0.2,0.6,0,0.9C76.8,17.9,76.5,18.1,76.2,18.1z"/>
			</g>
		</g>
		<g id="Group-19-Copy-6" transform="translate(0.862069, 126.586207)">
			<polygon id="Fill-1_1_" class="st1" points="0,78.6 78.6,78.6 78.6,0 0,0 			"/>
			<polygon id="Fill-2_1_" class="st3" points="46.7,12.3 76.2,12.3 76.2,2.5 46.7,2.5 			"/>
			<polygon id="Fill-5_1_" class="st3" points="46.7,76.2 76.2,76.2 76.2,66.3 46.7,66.3 			"/>
			<polygon id="Fill-8_1_" class="st2" points="2.5,56.5 31.9,56.5 31.9,22.1 2.5,22.1 			"/>
			<g id="Group-18_1_" transform="translate(1.310345, 1.310345)">
				<polygon id="Stroke-9" class="st5" points="1.1,55.2 30.6,55.2 30.6,20.8 1.1,20.8 				"/>
				<path id="Fill-11_1_" class="st4" d="M2,54.3h27.7V21.7H2V54.3z M30.6,56.1H1.1c-0.5,0-0.9-0.4-0.9-0.9V20.8
					c0-0.5,0.4-0.9,0.9-0.9h29.5c0.5,0,0.9,0.4,0.9,0.9v34.4C31.5,55.7,31.1,56.1,30.6,56.1z"/>
				<path id="Fill-12_1_" class="st4" d="M46.3,10.1H74V2H46.3V10.1z M74.9,0.3H45.4c-0.5,0-0.9,0.4-0.9,0.9v4H15.9
					c-0.5,0-0.9,0.4-0.9,0.9v14.7h1.8V6.9h27.7v4c0,0.5,0.4,0.9,0.9,0.9h29.5c0.5,0,0.9-0.4,0.9-0.9V1.1C75.7,0.7,75.3,0.3,74.9,0.3
					z"/>
				<path id="Fill-13_1_" class="st4" d="M46.3,42H74v-8H46.3V42z M74.9,32.2H45.4c-0.5,0-0.9,0.4-0.9,0.9v4H30.6v1.8h13.9v4
					c0,0.5,0.4,0.9,0.9,0.9h29.5c0.5,0,0.9-0.4,0.9-0.9v-9.8C75.7,32.6,75.3,32.2,74.9,32.2z"/>
				<path id="Fill-14_1_" class="st4" d="M46.3,74H74v-8.1H46.3V74z M74.9,64.1H45.4c-0.5,0-0.9,0.4-0.9,0.9v4H16.8V55.2H15v14.7
					c0,0.5,0.4,0.9,0.9,0.9h28.6v4c0,0.5,0.4,0.9,0.9,0.9h29.5c0.5,0,0.9-0.4,0.9-0.9V65C75.7,64.5,75.3,64.1,74.9,64.1z"/>
				<polygon id="Fill-15_1_" class="st4" points="6.1,31.5 25.7,31.5 25.7,29.7 6.1,29.7 				"/>
				<polygon id="Fill-16_1_" class="st4" points="6.1,38.9 25.7,38.9 25.7,37.1 6.1,37.1 				"/>
				<polygon id="Fill-17_1_" class="st4" points="6.1,46.3 25.7,46.3 25.7,44.5 6.1,44.5 				"/>
			</g>
		</g>
		<g id="Group-18-Copy-2" transform="translate(121.413793, 0.793103)">
			<polygon id="Fill-1_2_" class="st1" points="0,78.6 78.6,78.6 78.6,0 0,0 			"/>
			<polygon id="Fill-2_2_" class="st3" points="47.8,34.4 39.3,29.5 30.8,34.4 30.8,44.2 39.3,49.1 47.8,44.2 			"/>
			<g id="Group-17" transform="translate(6.224138, 2.456897)">
				<path id="Fill-3_1_" class="st2" d="M39.2,7.4c0,3.4-2.7,6.1-6.1,6.1S27,10.8,27,7.4s2.7-6.1,6.1-6.1C36.5,1.2,39.2,4,39.2,7.4"
					/>
				<path id="Fill-5_2_" class="st2" d="M39.2,66.3c0,3.4-2.7,6.1-6.1,6.1S27,69.7,27,66.3s2.7-6.1,6.1-6.1
					C36.5,60.2,39.2,62.9,39.2,66.3"/>
				<path id="Fill-7_1_" class="st2" d="M13.7,22.1c0,3.4-2.8,6.1-6.1,6.1c-3.4,0-6.1-2.7-6.1-6.1S4.2,16,7.6,16
					C10.9,16,13.7,18.7,13.7,22.1"/>
				<path id="Fill-9" class="st2" d="M64.8,22.1c0,3.4-2.7,6.1-6.1,6.1c-3.4,0-6.1-2.7-6.1-6.1s2.8-6.1,6.1-6.1
					C62,16,64.8,18.7,64.8,22.1"/>
				<path id="Fill-11_2_" class="st2" d="M13.7,51.6c0,3.4-2.8,6.1-6.1,6.1c-3.4,0-6.1-2.7-6.1-6.1c0-3.4,2.7-6.1,6.1-6.1
					C10.9,45.4,13.7,48.2,13.7,51.6"/>
				<path id="Fill-13_2_" class="st2" d="M64.8,51.6c0,3.4-2.7,6.1-6.1,6.1c-3.4,0-6.1-2.7-6.1-6.1c0-3.4,2.8-6.1,6.1-6.1
					C62,45.4,64.8,48.2,64.8,51.6"/>
				<path id="Fill-15_2_" class="st4" d="M58.6,57c-2.9,0-5.3-2.4-5.3-5.3c0-2.9,2.4-5.3,5.3-5.3c2.9,0,5.3,2.4,5.3,5.3
					C63.9,54.6,61.5,57,58.6,57z M38.7,62.2c-1.1-1.5-2.8-2.5-4.7-2.7V47.3l7.6-4.4L52.1,49c-0.4,0.8-0.6,1.8-0.6,2.7
					c0,1,0.2,1.9,0.6,2.7L38.7,62.2z M33.1,71.7c-2.9,0-5.3-2.4-5.3-5.3s2.4-5.3,5.3-5.3s5.3,2.4,5.3,5.3
					C38.3,69.3,36,71.7,33.1,71.7z M14,54.4c0.4-0.8,0.5-1.8,0.5-2.7c0-1-0.2-1.9-0.5-2.7l10.5-6.1l7.6,4.4v12.2
					c-1.9,0.2-3.6,1.2-4.7,2.7L14,54.4z M7.6,57c-2.9,0-5.3-2.4-5.3-5.3c0-2.9,2.4-5.3,5.3-5.3s5.3,2.4,5.3,5.3
					C12.8,54.6,10.5,57,7.6,57z M2.3,22.2c0-2.9,2.4-5.3,5.3-5.3s5.3,2.4,5.3,5.3s-2.4,5.3-5.3,5.3S2.3,25.1,2.3,22.2z M8.4,44.8
					V29.2c1.9-0.2,3.6-1.2,4.7-2.7l10.6,6.1v8.8l-10.6,6.1C12,46,10.3,45,8.4,44.8z M27.5,11.7c1.1,1.5,2.8,2.5,4.7,2.7v12.2
					L24.6,31L14,24.9c0.4-0.8,0.5-1.8,0.5-2.7c0-1-0.2-1.9-0.5-2.7L27.5,11.7z M33.1,2.2c2.9,0,5.3,2.4,5.3,5.3s-2.4,5.3-5.3,5.3
					s-5.3-2.4-5.3-5.3S30.2,2.2,33.1,2.2z M33.1,45.8l-7.6-4.4v-8.8l7.6-4.4l7.6,4.4v8.8L33.1,45.8z M52.1,19.5
					c-0.4,0.8-0.6,1.8-0.6,2.7c0,1,0.2,1.9,0.6,2.7L41.6,31L34,26.6V14.4c1.9-0.2,3.6-1.2,4.7-2.7L52.1,19.5z M58.6,17
					c2.9,0,5.3,2.4,5.3,5.3s-2.4,5.3-5.3,5.3c-2.9,0-5.3-2.4-5.3-5.3C53.4,19.3,55.7,17,58.6,17z M53,47.5l-10.6-6.1v-8.8L53,26.5
					c1.1,1.5,2.8,2.5,4.7,2.7v15.6C55.8,45,54.2,46,53,47.5z M59.5,44.8V29.2c3.5-0.4,6.1-3.4,6.1-6.9c0-3.9-3.2-7-7-7
					c-2.3,0-4.3,1.1-5.6,2.8l-13.5-7.8C39.9,9.5,40,8.5,40,7.6c0-3.9-3.2-7-7-7s-7,3.2-7,7c0,1,0.2,1.9,0.5,2.7L13.1,18
					c-1.3-1.7-3.3-2.8-5.6-2.8c-3.9,0-7,3.2-7,7c0,3.6,2.7,6.5,6.1,6.9v15.6c-3.5,0.4-6.1,3.4-6.1,6.9c0,3.9,3.2,7,7,7
					c2.3,0,4.3-1.1,5.6-2.8l13.5,7.8c-0.4,0.8-0.5,1.8-0.5,2.7c0,3.9,3.2,7,7,7s7-3.2,7-7c0-1-0.2-1.9-0.5-2.7L53,55.9
					c1.3,1.7,3.3,2.8,5.6,2.8c3.9,0,7-3.2,7-7C65.6,48.1,63,45.2,59.5,44.8z"/>
			</g>
		</g>
		<g id="Group-9-Copy-2" transform="translate(0.862069, 0.793103)">
			<polygon id="Fill-1_3_" class="st1" points="0,78.6 78.6,78.6 78.6,0 0,0 			"/>
			<g id="Group-8" transform="translate(1.310345, 3.767241)">
				<path id="Fill-2_3_" class="st2" d="M74.8,33.1C74.8,53.5,58.3,70,37.9,70S1.1,53.4,1.1,33.1H74.8z"/>
				<path id="Fill-4_1_" class="st3" d="M33.6,33.1L17.3,4.8l0,0c-2-3.5-6.6-4.7-10.1-2.7S2.5,8.7,4.5,12.2l0,0l12.1,20.9"/>
				<path id="Fill-6_1_" class="st4" d="M38,69.1C18.4,69.1,2.5,53.4,2,34h71.9C73.4,53.4,57.5,69.1,38,69.1z M5.3,11.8L5.3,11.8
					c-0.9-1.5-1.1-3.2-0.6-4.9c0.4-1.7,1.5-3.1,3-3.9s3.2-1.1,4.9-0.6c1.7,0.4,3.1,1.5,3.9,3l0,0l0,0L32,32.3H17L5.3,11.8z
					 M74.8,32.2H34.1l-16-27.8l0,0c-1.1-1.9-2.9-3.3-5-3.8C10.9,0,8.7,0.3,6.8,1.4S3.5,4.3,3,6.4c-0.6,2.1-0.3,4.4,0.8,6.3l0,0
					l11.3,19.5h-14c-0.5,0-0.9,0.4-0.9,0.9c0,20.8,16.9,37.7,37.7,37.7s37.7-16.9,37.7-37.7C75.7,32.6,75.3,32.2,74.8,32.2z"/>
			</g>
		</g>
	</g>
</g>
<g id="Artboard-Copy-58">
	<rect id="Rectangle-3-Copy-80_1_" y="258" class="st0" width="288" height="288"/>
	<g id="Group-89-Copy" transform="translate(44.000000, 41.000000)">
		<g id="Group-11-Copy-5" transform="translate(121.517241, 126.586207)">
			<polygon id="Fill-1_7_" class="st1" points="0,336.6 78.6,336.6 78.6,258 0,258 			"/>
			<g id="Group-10" transform="translate(8.681034, 1.310345)">
				<path id="Fill-2_7_" class="st3" d="M42.9,273.6c0,8.1-6.6,14.7-14.7,14.7s-14.7-6.6-14.7-14.7s6.6-14.7,14.7-14.7
					C36.3,258.8,42.9,265.4,42.9,273.6"/>
				<path id="Fill-4_5_" class="st4" d="M17.7,285.5c-3.3-2.9-5.2-7.2-5.2-11.6c0-8.6,7-15.6,15.6-15.6s15.6,7,15.6,15.6
					c0,4.4-1.9,8.7-5.2,11.6l-1.2-1.3c2.9-2.6,4.6-6.4,4.6-10.3c0-7.6-6.2-13.9-13.9-13.9s-13.9,6.2-13.9,13.9
					c0,3.9,1.7,7.7,4.6,10.3L17.7,285.5z"/>
				<path id="Fill-6_5_" class="st2" d="M23.2,273.6c0-2.9,2-4.9,4.9-4.9s4.9,2,4.9,4.9v19.7h17c5.5,0,10,3.8,10,9.3v9.9
					c0,11.5-3.2,20.2-20.2,20.2c-11.9,0-17.5-5.1-24.9-13.5c-2.1-2.3-8.5-9.3-8.5-9.3c-2-2.3-5.4-5.7-5.4-6.8c0-3.2,7.9-4.9,11.8-2
					c3,2.3,10.3,10.6,10.3,10.6v-38.1L23.2,273.6L23.2,273.6z"/>
				<path id="Fill-8_5_" class="st4" d="M7.2,309.6c0,0,6.4,6.9,8.5,9.3c7,8,12.5,13.2,24.2,13.2c16,0,19.3-7.7,19.3-19.3v-9.9
					c0-4.8-3.9-8.4-9.2-8.4H33c-0.5,0-0.9-0.4-0.9-0.9v-19.7c0-2.4-1.6-4-4-4s-4,1.6-4,4V312c0,0.4-0.2,0.7-0.6,0.8
					c-0.3,0.1-0.7,0-1-0.2c-0.1-0.1-7.3-8.3-10.2-10.5c-2.3-1.7-6.4-1.7-8.8-0.5c-1,0.5-1.6,1.1-1.6,1.7c0.1,0.7,2.6,3.4,3.9,4.8
					L7.2,309.6z M39.9,333.7c-12.4,0-18.2-5.4-25.6-13.8c-2.1-2.3-8.4-9.2-8.4-9.2l-1.2-1.4c-3-3.3-4.4-5-4.4-6
					c0-1.3,0.9-2.5,2.6-3.3c2.9-1.4,7.7-1.6,10.6,0.7c2.2,1.7,6.6,6.4,8.9,9v-35.8c0-3.4,2.4-5.8,5.8-5.8s5.8,2.4,5.8,5.8v18.8h16.1
					c6.2,0,10.9,4.4,10.9,10.2v9.9C61,323.6,58.4,333.7,39.9,333.7z"/>
			</g>
		</g>
		<g id="Group-25-Copy-3" transform="translate(0.965517, 126.586207)">
			<polygon id="Fill-1_6_" class="st1" points="0,336.6 78.6,336.6 78.6,258 0,258 			"/>
			<polygon id="Fill-2_6_" class="st2" points="4.9,334.2 73.7,334.2 73.7,267.8 4.9,267.8 			"/>
			<polygon id="Fill-3_2_" class="st3" points="36.9,289.6 41.8,289.6 41.8,284.7 36.9,284.7 			"/>
			<polygon id="Fill-4_4_" class="st6" points="36.9,306.8 41.8,306.8 41.8,301.9 36.9,301.9 			"/>
			<polygon id="Fill-5_3_" class="st6" points="36.9,324 41.8,324 41.8,319.1 36.9,319.1 			"/>
			<polygon id="Fill-6_4_" class="st3" points="17.2,289.6 22.1,289.6 22.1,284.7 17.2,284.7 			"/>
			<polygon id="Fill-7_2_" class="st3" points="17.2,306.8 22.1,306.8 22.1,301.9 17.2,301.9 			"/>
			<polygon id="Fill-8_4_" class="st6" points="17.2,324 22.1,324 22.1,319.1 17.2,319.1 			"/>
			<polygon id="Fill-9_1_" class="st6" points="56.5,289.6 61.4,289.6 61.4,284.7 56.5,284.7 			"/>
			<polygon id="Fill-10_2_" class="st3" points="56.5,306.8 61.4,306.8 61.4,301.9 56.5,301.9 			"/>
			<polygon id="Fill-11_3_" class="st3" points="56.5,324 61.4,324 61.4,319.1 56.5,319.1 			"/>
			<g id="Group-24">
				<path id="Fill-12_3_" class="st4" d="M72.8,333.3h-67v-64.6h13v6.5h1.8v-6.5h17.9v6.5h1.8v-6.5h17.9v6.5H60v-6.5h13v64.6H72.8z
					 M73.7,266.9H59.8v-6.5H58v6.5H40.2v-6.5h-1.8v6.5H20.5v-6.5h-1.8v6.5H4.9c-0.5,0-0.9,0.4-0.9,0.9v66.3c0,0.5,0.4,0.9,0.9,0.9
					h68.8c0.5,0,0.9-0.4,0.9-0.9v-66.3C74.6,267.3,74.2,266.9,73.7,266.9z"/>
				<g id="Clip-15">
				</g>
				<path id="Fill-14_3_" class="st4" d="M37.7,289.1h3.1V286h-3.1V289.1z M41.8,290.8h-4.9c-0.5,0-0.9-0.4-0.9-0.9V285
					c0-0.5,0.4-0.9,0.9-0.9h4.9c0.5,0,0.9,0.4,0.9,0.9v4.9C42.7,290.4,42.3,290.8,41.8,290.8z"/>
				<path id="Fill-16_3_" class="st4" d="M37.7,306.3h3.1v-3.1h-3.1V306.3z M41.8,308h-4.9c-0.5,0-0.9-0.4-0.9-0.9v-4.9
					c0-0.5,0.4-0.9,0.9-0.9h4.9c0.5,0,0.9,0.4,0.9,0.9v4.9C42.7,307.6,42.3,308,41.8,308z"/>
				<path id="Fill-17_2_" class="st4" d="M37.7,323.5h3.1v-3.1h-3.1V323.5z M41.8,325.2h-4.9c-0.5,0-0.9-0.4-0.9-0.9v-4.9
					c0-0.5,0.4-0.9,0.9-0.9h4.9c0.5,0,0.9,0.4,0.9,0.9v4.9C42.7,324.8,42.3,325.2,41.8,325.2z"/>
				<path id="Fill-18" class="st4" d="M18.1,289.1h3.1V286h-3.1V289.1z M22.1,290.8h-4.9c-0.5,0-0.9-0.4-0.9-0.9V285
					c0-0.5,0.4-0.9,0.9-0.9h4.9c0.5,0,0.9,0.4,0.9,0.9v4.9C23,290.4,22.6,290.8,22.1,290.8z"/>
				<path id="Fill-19" class="st4" d="M18.1,306.3h3.1v-3.1h-3.1V306.3z M22.1,308h-4.9c-0.5,0-0.9-0.4-0.9-0.9v-4.9
					c0-0.5,0.4-0.9,0.9-0.9h4.9c0.5,0,0.9,0.4,0.9,0.9v4.9C23,307.6,22.6,308,22.1,308z"/>
				<path id="Fill-20" class="st4" d="M18.1,323.5h3.1v-3.1h-3.1V323.5z M22.1,325.2h-4.9c-0.5,0-0.9-0.4-0.9-0.9v-4.9
					c0-0.5,0.4-0.9,0.9-0.9h4.9c0.5,0,0.9,0.4,0.9,0.9v4.9C23,324.8,22.6,325.2,22.1,325.2z"/>
				<path id="Fill-21" class="st4" d="M57.4,289.1h3.1V286h-3.1V289.1z M61.4,290.8h-4.9c-0.5,0-0.9-0.4-0.9-0.9V285
					c0-0.5,0.4-0.9,0.9-0.9h4.9c0.5,0,0.9,0.4,0.9,0.9v4.9C62.3,290.4,61.9,290.8,61.4,290.8z"/>
				<path id="Fill-22" class="st4" d="M57.4,306.3h3.1v-3.1h-3.1V306.3z M61.4,308h-4.9c-0.5,0-0.9-0.4-0.9-0.9v-4.9
					c0-0.5,0.4-0.9,0.9-0.9h4.9c0.5,0,0.9,0.4,0.9,0.9v4.9C62.3,307.6,61.9,308,61.4,308z"/>
				<path id="Fill-23" class="st4" d="M57.4,323.5h3.1v-3.1h-3.1V323.5z M61.4,325.2h-4.9c-0.5,0-0.9-0.4-0.9-0.9v-4.9
					c0-0.5,0.4-0.9,0.9-0.9h4.9c0.5,0,0.9,0.4,0.9,0.9v4.9C62.3,324.8,61.9,325.2,61.4,325.2z"/>
			</g>
		</g>
		<g id="Group-11-Copy-6" transform="translate(121.517241, 0.793103)">
			<polygon id="Fill-1_5_" class="st1" points="0,336.6 78.6,336.6 78.6,258 0,258 			"/>
			<g id="Group-10_1_" transform="translate(1.310345, 6.224138)">
				<path id="Fill-2_5_" class="st2" d="M24.6,292.5c-1.6-1.6-2.3-3.6-2.3-5.6c0-2.1,0.8-4.1,2.3-5.7c1.6-1.6,3.6-2.3,5.6-2.3
					c2.1,0,4.1,0.8,5.7,2.3l2.1,2.1l2.1-2.1c1.6-1.6,3.6-2.3,5.7-2.3c2,0,4.1,0.8,5.7,2.3c1.6,1.6,2.4,3.7,2.3,5.8
					c0,2-0.8,4-2.3,5.5L38,305.9L24.6,292.5z"/>
				<path id="Fill-4_2_" class="st4" d="M68.2,298.3c-3.3,14.1-15.8,23.9-30.2,23.9c-16.4,0-29.8-12.7-30.9-28.8l3.6,3.6l1.3-1.3
					l-5.2-5.2c-0.3-0.3-0.9-0.3-1.3,0l-5.2,5.2l1.3,1.3l3.8-3.8C6.5,310.4,20.7,324,38.1,324c15.3,0,28.4-10.4,31.9-25.2L68.2,298.3
					z"/>
				<path id="Fill-6_2_" class="st4" d="M74.5,285.3l-3.8,3.8c-1.1-17.2-15.3-30.8-32.7-30.8c-15.3,0-28.4,10.4-31.9,25.2l1.7,0.4
					c3.3-14,15.8-23.9,30.2-23.9c16.4,0,29.8,12.7,30.9,28.8l-3.6-3.6l-1.3,1.3l5.2,5.2c0.2,0.2,0.4,0.3,0.6,0.3s0.5-0.1,0.6-0.3
					l5.2-5.2L74.5,285.3z"/>
				<path id="Fill-8_2_" class="st4" d="M25.2,291.8L38,304.6l12.8-12.8c1.3-1.3,2-3,2.1-4.9c0-1.9-0.7-3.8-2.1-5.2
					c-2.7-2.7-7.4-2.7-10.1,0l-2.1,2.1c-0.3,0.3-0.9,0.3-1.3,0l-2.1-2.1c-1.3-1.3-3.1-2.1-5-2.1l0,0c-1.9,0-3.7,0.7-5,2.1
					c-1.4,1.4-2.1,3.1-2.1,5.1C23.1,288.7,23.9,290.5,25.2,291.8 M38,306.7c-0.2,0-0.5-0.1-0.6-0.3L24,293l0,0
					c-1.7-1.7-2.6-3.9-2.6-6.2c0-2.4,0.9-4.6,2.6-6.3c1.7-1.7,3.9-2.6,6.3-2.6l0,0c2.4,0,4.6,0.9,6.3,2.6L38,282l1.5-1.5
					c1.7-1.7,3.9-2.6,6.3-2.6c2.4,0,4.6,0.9,6.3,2.6s2.6,4,2.6,6.4c0,2.3-1,4.5-2.6,6.1l-13.4,13.4C38.4,306.6,38.2,306.7,38,306.7"
					/>
			</g>
		</g>
		<g id="Group-19-Copy-7" transform="translate(0.965517, 0.793103)">
			<polygon id="Fill-1_4_" class="st1" points="0,336.6 78.6,336.6 78.6,258 0,258 			"/>
			<g id="Group-18_2_" transform="translate(1.310345, 1.310345)">
				<path id="Fill-2_4_" class="st2" d="M60.1,288.7H15.9c-8.1,0-14.7-6.6-14.7-14.7s6.6-14.7,14.7-14.7h44.2
					c8.1,0,14.7,6.6,14.7,14.7C74.9,282.1,68.2,288.7,60.1,288.7"/>
				<path id="Fill-4_3_" class="st3" d="M15.9,332.9c-8.1,0-14.7-6.6-14.7-14.7s6.6-14.7,14.7-14.7h44.2c8.1,0,14.7,6.6,14.7,14.7
					s-6.6,14.7-14.7,14.7H15.9z"/>
				<path id="Fill-6_3_" class="st0" d="M15.9,281.3c-4.1,0-7.4-3.3-7.4-7.4s3.3-7.4,7.4-7.4s7.4,3.3,7.4,7.4S20,281.3,15.9,281.3z"
					/>
				<path id="Fill-8_3_" class="st0" d="M67.5,318.1c0,4.1-3.3,7.4-7.4,7.4s-7.4-3.3-7.4-7.4s3.3-7.4,7.4-7.4S67.5,314,67.5,318.1"
					/>
				<path id="Fill-10_1_" class="st4" d="M15.9,260.1C8.3,260.1,2,266.3,2,274c0,7.6,6.2,13.9,13.9,13.9h44.2
					c7.6,0,13.9-6.2,13.9-13.9c0-7.6-6.2-13.9-13.9-13.9H15.9z M60.1,289.6H15.9c-8.6,0-15.6-7-15.6-15.6s7-15.6,15.6-15.6h44.2
					c8.6,0,15.6,7,15.6,15.6S68.7,289.6,60.1,289.6z"/>
				<path id="Fill-12_2_" class="st4" d="M15.9,304.2c-7.6,0-13.9,6.2-13.9,13.9c0,7.6,6.2,13.9,13.9,13.9h44.2
					c7.6,0,13.9-6.2,13.9-13.9c0-7.6-6.2-13.9-13.9-13.9H15.9z M60.1,333.7H15.9c-8.6,0-15.6-7-15.6-15.6s7-15.6,15.6-15.6h44.2
					c8.6,0,15.6,7,15.6,15.6S68.7,333.7,60.1,333.7z"/>
				<path id="Fill-14_2_" class="st4" d="M15.9,267.5c-3.6,0-6.5,2.9-6.5,6.5s2.9,6.5,6.5,6.5s6.5-2.9,6.5-6.5
					S19.5,267.5,15.9,267.5 M15.9,282.2c-4.6,0-8.3-3.7-8.3-8.3c0-4.6,3.7-8.3,8.3-8.3s8.3,3.7,8.3,8.3
					C24.1,278.5,20.4,282.2,15.9,282.2"/>
				<path id="Fill-16_2_" class="st4" d="M60.1,311.7c-3.6,0-6.5,2.9-6.5,6.5s2.9,6.5,6.5,6.5s6.5-2.9,6.5-6.5
					S63.7,311.7,60.1,311.7 M60.1,326.4c-4.6,0-8.3-3.7-8.3-8.3c0-4.6,3.7-8.3,8.3-8.3s8.3,3.7,8.3,8.3
					C68.4,322.7,64.7,326.4,60.1,326.4"/>
			</g>
		</g>
	</g>
</g>
</svg>
