<?xml version="1.0" encoding="UTF-8"?>
<svg width="288px" height="288px" viewBox="0 0 288 288" version="1.1" xmlns="http://www.w3.org/2000/svg" xmlns:xlink="http://www.w3.org/1999/xlink">
    <!-- Generator: Sketch 52.5 (67469) - http://www.bohemiancoding.com/sketch -->
    <title>Artboard Copy 55</title>
    <desc>Created with Sketch.</desc>
    <g id="Artboard-Copy-55" stroke="none" stroke-width="1" fill="none" fill-rule="evenodd">
        <rect id="Rectangle-3-Copy-80" fill="#FFFFFF" x="0" y="0" width="288" height="288"></rect>
        <g id="Group-2-Copy" transform="translate(44.000000, 42.000000)">
            <g id="Group-19-Copy-8" transform="translate(121.000000, 126.000000)">
                <polygon id="Fill-1" fill="#FFFFFF" points="0 78.6206897 78.6182328 78.6206897 78.6182328 0 0 0"></polygon>
                <polygon id="Fill-2" fill="#C1DFFF" points="30.6989224 19.6551724 47.8971983 19.6551724 47.8971983 2.45689655 30.6989224 2.45689655"></polygon>
                <polygon id="Fill-3" fill="#C1DFFF" points="2.44461207 76.1637931 19.6428879 76.1637931 19.6428879 58.9655172 2.44461207 58.9655172"></polygon>
                <polygon id="Fill-4" fill="#C1DFFF" points="58.9532328 47.9094828 76.1515086 47.9094828 76.1515086 30.7112069 58.9532328 30.7112069"></polygon>
                <polygon id="Fill-5" fill="#EBF4FF" points="39.2990431 61.1153017 30.7883534 75.856681 47.8097328 75.856681"></polygon>
                <polygon id="Fill-6" fill="#EBF4FF" points="2.44559483 46.3746595 19.4669741 46.3746595 10.9562845 31.6332802"></polygon>
                <polygon id="Fill-7" fill="#EBF4FF" points="59.1298836 16.8904267 76.1512629 16.8904267 67.6405733 2.15150431"></polygon>
                <g id="Group-18" fill="#0062FF">
                    <path d="M31.5834052,18.7584052 L47.0127155,18.7584052 L47.0127155,3.33155172 L31.5834052,3.33155172 L31.5834052,18.7584052 Z M47.8971983,20.5273707 L30.6989224,20.5273707 C30.21,20.5273707 29.8144397,20.1318103 29.8144397,19.6428879 L29.8144397,2.44461207 C29.8144397,1.95568966 30.21,1.56012931 30.6989224,1.56012931 L47.8971983,1.56012931 C48.3861207,1.56012931 48.781681,1.95568966 48.781681,2.44461207 L48.781681,19.6428879 C48.781681,20.1318103 48.3861207,20.5273707 47.8971983,20.5273707 Z" id="Fill-8"></path>
                    <path d="M3.32909483,75.2670259 L18.7584052,75.2670259 L18.7584052,59.8401724 L3.32909483,59.8401724 L3.32909483,75.2670259 Z M19.6428879,77.0359914 L2.44461207,77.0359914 C1.95568966,77.0359914 1.56012931,76.640431 1.56012931,76.1515086 L1.56012931,58.9532328 C1.56012931,58.4643103 1.95568966,58.06875 2.44461207,58.06875 L19.6428879,58.06875 C20.1318103,58.06875 20.5273707,58.4643103 20.5273707,58.9532328 L20.5273707,76.1515086 C20.5273707,76.640431 20.1318103,77.0359914 19.6428879,77.0359914 Z" id="Fill-10"></path>
                    <path d="M59.8377155,47.0127155 L75.2670259,47.0127155 L75.2670259,31.5858621 L59.8377155,31.5858621 L59.8377155,47.0127155 Z M76.1515086,48.781681 L58.9532328,48.781681 C58.4643103,48.781681 58.06875,48.3861207 58.06875,47.8971983 L58.06875,30.6989224 C58.06875,30.21 58.4643103,29.8144397 58.9532328,29.8144397 L76.1515086,29.8144397 C76.640431,29.8144397 77.0359914,30.21 77.0359914,30.6989224 L77.0359914,47.8971983 C77.0359914,48.3861207 76.640431,48.781681 76.1515086,48.781681 Z" id="Fill-11"></path>
                    <path d="M39.3361422,31.6229612 C35.0832543,31.6229612 31.6214871,35.0822716 31.6214871,39.3376164 C31.6214871,43.5905043 35.0832543,47.0498147 39.3361422,47.0498147 C43.5890302,47.0498147 47.0507974,43.5905043 47.0507974,39.3376164 C47.0507974,35.0822716 43.5890302,31.6229612 39.3361422,31.6229612 M39.3361422,48.8212371 C34.1078664,48.8212371 29.8525216,44.5658922 29.8525216,39.3376164 C29.8525216,34.1093405 34.1078664,29.8515388 39.3361422,29.8515388 C44.5644181,29.8515388 48.8197629,34.1093405 48.8197629,39.3376164 C48.8197629,44.5658922 44.5644181,48.8212371 39.3361422,48.8212371" id="Fill-12"></path>
                    <path d="M66.4384138,59.9192845 L66.1706121,58.172431 C66.6497069,58.1110086 67.1042328,58.4279483 67.1779397,58.9095 C67.2516466,59.3935086 66.9224224,59.8431207 66.4384138,59.9192845 Z M71.1065172,60.5998448 C71.0106983,60.5998448 70.9124224,60.5851034 70.8141466,60.5531638 C70.3743621,60.3418707 70.1163879,59.7841552 70.327681,59.3419138 C70.5389741,58.9021293 70.9910431,58.6785517 71.4332845,58.8996724 L71.0500086,59.6957069 L71.4381983,58.8996724 C71.9025517,59.0544569 72.1212155,59.5433793 71.966431,60.0077328 C71.8435862,60.3738103 71.4824224,60.5998448 71.1065172,60.5998448 Z M62.5196638,61.7054483 L61.8735,61.0961379 L61.3256121,60.4032931 C61.6941466,60.1010948 62.2469483,60.1354914 62.561431,60.4917414 C62.8759138,60.8479914 62.8636293,61.3762241 62.5196638,61.7054483 Z M74.7525517,63.7471293 C74.4798362,63.7471293 74.2095776,63.6193707 74.0400517,63.3761379 L75.4871638,62.3614397 L74.7378103,62.82825 L75.4969914,62.3737241 C75.7574224,62.7791121 75.6517759,63.3245431 75.2537586,63.5948017 C75.0989741,63.6979914 74.9245345,63.7471293 74.7525517,63.7471293 Z M60.1487586,65.3785086 L58.4461293,64.8945 C58.5812586,64.4252328 59.0726379,64.1451466 59.5394483,64.2876466 C60.0111724,64.420319 60.281431,64.9116983 60.1487586,65.3785086 Z M76.1505259,68.4864828 C75.6640603,68.4864828 75.2660431,68.0909224 75.2660431,67.5995431 C75.2660431,67.5823448 75.2660431,67.5651466 75.2685,67.5454914 L75.2685,67.5381207 C75.3004397,67.078681 75.6837155,66.6904914 76.1505259,66.6904914 C76.6075086,66.6904914 76.9809569,67.0148017 77.0300948,67.4545862 L76.1505259,67.4545862 L77.0300948,67.4545862 C77.0325517,67.4595 77.0325517,67.4668707 77.0325517,67.4717845 L77.0374655,67.4717845 C77.0374655,67.4889828 77.0374655,67.5037241 77.0350086,67.5209224 C77.0350086,67.5332069 77.0374655,67.5430345 77.0374655,67.5528621 L77.0374655,67.5995431 C77.0374655,68.0909224 76.6394483,68.4864828 76.1505259,68.4864828 Z M59.2913017,70.8819569 C58.927681,70.8819569 58.5935431,70.66575 58.4731552,70.2996724 C58.4657845,70.2775603 58.4461293,70.2112241 58.4387586,70.1866552 C58.3232845,69.714931 58.6107414,69.2358362 59.0849224,69.1154483 C59.5591034,69.002431 60.0381983,69.2849741 60.1561293,69.7591552 C60.2716034,70.2210517 60.0087155,70.712431 59.5517328,70.8451034 C59.4657414,70.8721293 59.3772931,70.8819569 59.2913017,70.8819569 Z M74.7648362,73.1251034 C74.5903966,73.1251034 74.4135,73.0710517 74.2587155,72.9629483 C73.8582414,72.6828621 73.7624224,72.1300603 74.0400517,71.7320431 C74.317681,71.3389397 74.8680259,71.2160948 75.2660431,71.4814397 C75.6665172,71.7443276 75.7967328,72.2602759 75.5412155,72.6656638 C75.5338448,72.6804052 75.4994483,72.732 75.4896207,72.7442845 C75.3176379,72.992431 75.0449224,73.1251034 74.7648362,73.1251034 Z M61.9250948,74.9554914 C61.7408276,74.9554914 61.5541034,74.894069 61.3944052,74.7663103 C61.3772069,74.751569 61.3206983,74.702431 61.3010431,74.6852328 C60.94725,74.3510948 60.9349655,73.7884655 61.2715603,73.4346724 C61.6081552,73.0808793 62.1683276,73.0685948 62.5221207,73.4051897 C62.8660862,73.7319569 62.9078534,74.2847586 62.5958276,74.6434655 C62.418931,74.8473879 62.1707845,74.9554914 61.9250948,74.9554914 Z M71.0966897,76.2773017 C70.7232414,76.2773017 70.3743621,76.0365259 70.2539741,75.6606207 C70.1065603,75.1938103 70.3620776,74.6975172 70.8288879,74.5501034 C71.2637586,74.3265259 71.7551379,74.5255345 71.9738017,74.9604052 C72.1924655,75.3977328 71.9738017,75.9456207 71.5364741,76.1642845 C71.4971638,76.1839397 71.4111724,76.2183362 71.3669483,76.2330776 C71.2760431,76.2625603 71.1875948,76.2773017 71.0966897,76.2773017 Z M66.3548793,76.9554052 C66.3131121,76.9554052 66.2688879,76.9504914 66.2271207,76.9455776 C66.2246638,76.9455776 66.1755259,76.93575 66.173069,76.93575 C65.6915172,76.8620431 65.3598362,76.4099741 65.4335431,75.9284224 C65.50725,75.4468707 65.959319,75.1151897 66.4433276,75.1888966 C66.9248793,75.2650603 67.2786724,75.7171293 67.2074224,76.198681 C67.1410862,76.6360086 66.7823793,76.9554052 66.3548793,76.9554052 Z" id="Fill-13"></path>
                    <path d="M11.0435043,3.33032328 C6.79061638,3.33032328 3.32884914,6.78963362 3.32884914,11.0449784 C3.32884914,15.2978664 6.79061638,18.7571767 11.0435043,18.7571767 C15.2963922,18.7571767 18.7581595,15.2978664 18.7581595,11.0449784 C18.7581595,6.78963362 15.2963922,3.33032328 11.0435043,3.33032328 M11.0435043,20.5285991 C5.81522845,20.5285991 1.55988362,16.2732543 1.55988362,11.0449784 C1.55988362,5.81670259 5.81522845,1.55890086 11.0435043,1.55890086 C16.2717802,1.55890086 20.527125,5.81670259 20.527125,11.0449784 C20.527125,16.2732543 16.2717802,20.5285991 11.0435043,20.5285991" id="Fill-14"></path>
                    <path d="M32.3194914,75.2665345 L46.2771207,75.2665345 L39.2970776,63.1786034 L32.3194914,75.2665345 Z M47.8102241,77.0379569 L30.7863879,77.0379569 C30.4719052,77.0379569 30.1795345,76.8659741 30.0198362,76.5932586 C29.8625948,76.3205431 29.8625948,75.9839483 30.0198362,75.7112328 L38.5329828,60.9698534 C38.8474655,60.4219655 39.7491466,60.4219655 40.0636293,60.9698534 L48.574319,75.7112328 C48.7340172,75.9839483 48.7340172,76.3205431 48.574319,76.5932586 C48.4170776,76.8659741 48.1247069,77.0379569 47.8102241,77.0379569 Z" id="Fill-15"></path>
                    <path d="M3.97648707,45.7837759 L17.9341164,45.7837759 L10.9565302,33.6958448 L3.97648707,45.7837759 Z M19.4672198,47.5551983 L2.44338362,47.5551983 C2.12890086,47.5551983 1.83653017,47.3832155 1.67928879,47.1105 C1.51959052,46.8377845 1.51959052,46.5011897 1.67928879,46.2284741 L10.1899784,31.4870948 C10.5044612,30.9392069 11.4061422,30.9392069 11.720625,31.4870948 L20.2337716,46.2284741 C20.3910129,46.5011897 20.3910129,46.8377845 20.2337716,47.1105 C20.0740733,47.3832155 19.7841595,47.5551983 19.4672198,47.5551983 Z" id="Fill-16"></path>
                    <path d="M60.6612672,16.3010172 L74.6188966,16.3010172 L67.6413103,4.21308621 L60.6612672,16.3010172 Z M76.152,18.0724397 L59.1281638,18.0724397 C58.813681,18.0724397 58.5213103,17.9004569 58.364069,17.6277414 C58.2043707,17.3550259 58.2043707,17.018431 58.364069,16.7457155 L66.8747586,2.00433621 C67.1892414,1.45644828 68.0909224,1.45644828 68.4054052,2.00433621 L76.9185517,16.7457155 C77.0757931,17.018431 77.0757931,17.3550259 76.9185517,17.6277414 C76.7588534,17.9004569 76.4689397,18.0724397 76.152,18.0724397 Z" id="Fill-17"></path>
                </g>
            </g>
            <g id="Group-19-Copy-9" transform="translate(0.000000, 126.000000)">
                <polygon id="Fill-1" fill="#FFFFFF" points="0 78.6206897 78.6182328 78.6206897 78.6182328 0 0 0"></polygon>
                <polygon id="Fill-2" fill="#C1DFFF" points="46.6810345 12.2844828 76.1637931 12.2844828 76.1637931 2.45689655 46.6810345 2.45689655"></polygon>
                <polygon id="Fill-5" fill="#C1DFFF" points="46.6810345 76.1637931 76.1637931 76.1637931 76.1637931 66.3362069 46.6810345 66.3362069"></polygon>
                <polygon id="Fill-8" fill="#EBF4FF" points="2.45689655 56.5086207 31.9396552 56.5086207 31.9396552 22.112069 2.45689655 22.112069"></polygon>
                <g id="Group-18">
                    <polygon id="Stroke-9" stroke="#000000" stroke-width="0.5" stroke-linecap="round" stroke-linejoin="round" points="2.45689655 56.5086207 31.9396552 56.5086207 31.9396552 22.112069 2.45689655 22.112069"></polygon>
                    <path d="M3.34137931,55.6265948 L31.0551724,55.6265948 L31.0551724,23.0014655 L3.34137931,23.0014655 L3.34137931,55.6265948 Z M31.9396552,57.3955603 L2.45689655,57.3955603 C1.96797414,57.3955603 1.57241379,57 1.57241379,56.5110776 L1.57241379,22.1145259 C1.57241379,21.6256034 1.96797414,21.2300431 2.45689655,21.2300431 L31.9396552,21.2300431 C32.4285776,21.2300431 32.8241379,21.6256034 32.8241379,22.1145259 L32.8241379,56.5110776 C32.8241379,57 32.4285776,57.3955603 31.9396552,57.3955603 Z" id="Fill-11" fill="#0062FF"></path>
                    <path d="M47.5655172,11.4024569 L75.2768534,11.4024569 L75.2768534,3.3462931 L47.5655172,3.3462931 L47.5655172,11.4024569 Z M76.1637931,1.57487069 L46.6810345,1.57487069 C46.1921121,1.57487069 45.7940948,1.97043103 45.7940948,2.45935345 L45.7940948,6.48866379 L17.2081034,6.48866379 C16.719181,6.48866379 16.3236207,6.88422414 16.3236207,7.37314655 L16.3236207,22.1145259 L18.0925862,22.1145259 L18.0925862,8.25762931 L45.7940948,8.25762931 L45.7940948,12.2869397 C45.7940948,12.7758621 46.1921121,13.1714224 46.6810345,13.1714224 L76.1637931,13.1714224 C76.6527155,13.1714224 77.0482759,12.7758621 77.0482759,12.2869397 L77.0482759,2.45935345 C77.0482759,1.97043103 76.6527155,1.57487069 76.1637931,1.57487069 Z" id="Fill-12" fill="#0062FF"></path>
                    <path d="M47.5655172,43.3421121 L75.2768534,43.3421121 L75.2768534,35.2859483 L47.5655172,35.2859483 L47.5655172,43.3421121 Z M76.1637931,33.5145259 L46.6810345,33.5145259 C46.1921121,33.5145259 45.7940948,33.9100862 45.7940948,34.3990086 L45.7940948,38.4307759 L31.9396552,38.4307759 L31.9396552,40.1997414 L45.7940948,40.1997414 L45.7940948,44.2265948 C45.7940948,44.7155172 46.1921121,45.1110776 46.6810345,45.1110776 L76.1637931,45.1110776 C76.6527155,45.1110776 77.0482759,44.7155172 77.0482759,44.2265948 L77.0482759,34.3990086 C77.0482759,33.9100862 76.6527155,33.5145259 76.1637931,33.5145259 Z" id="Fill-13" fill="#0062FF"></path>
                    <path d="M47.5655172,75.2817672 L75.2768534,75.2817672 L75.2768534,67.2256034 L47.5655172,67.2256034 L47.5655172,75.2817672 Z M76.1637931,65.454181 L46.6810345,65.454181 C46.1921121,65.454181 45.7940948,65.8497414 45.7940948,66.3386638 L45.7940948,70.3679741 L18.0827586,70.3679741 L18.0827586,56.5110776 L16.3113362,56.5110776 L16.3113362,71.2524569 C16.3113362,71.7413793 16.7093534,72.1369397 17.1982759,72.1369397 L45.7940948,72.1369397 L45.7940948,76.16625 C45.7940948,76.6551724 46.1921121,77.0507328 46.6810345,77.0507328 L76.1637931,77.0507328 C76.6527155,77.0507328 77.0482759,76.6551724 77.0482759,76.16625 L77.0482759,66.3386638 C77.0482759,65.8497414 76.6527155,65.454181 76.1637931,65.454181 Z" id="Fill-14" fill="#0062FF"></path>
                    <polygon id="Fill-15" fill="#0062FF" points="7.38051724 32.8265948 27.0356897 32.8265948 27.0356897 31.0551724 7.38051724 31.0551724"></polygon>
                    <polygon id="Fill-16" fill="#0062FF" points="7.38051724 40.1948276 27.0356897 40.1948276 27.0356897 38.4234052 7.38051724 38.4234052"></polygon>
                    <polygon id="Fill-17" fill="#0062FF" points="7.38051724 47.5679741 27.0356897 47.5679741 27.0356897 45.7965517 7.38051724 45.7965517"></polygon>
                </g>
            </g>
            <g id="Group-18-Copy-3" transform="translate(121.000000, 0.000000)">
                <polygon id="Fill-1" fill="#FFFFFF" points="0 78.6206897 78.6206897 78.6206897 78.6206897 0 0 0"></polygon>
                <polygon id="Fill-2" fill="#C1DFFF" points="47.8207888 34.3965517 39.3100991 29.4827586 30.7994095 34.3965517 30.7994095 44.2241379 39.3100991 49.137931 47.8207888 44.2241379"></polygon>
                <g id="Group-17" transform="translate(4.913793, 2.456897)">
                    <path d="M40.5387931,7.35619397 C40.5387931,10.7491681 37.7895259,13.4984353 34.3965517,13.4984353 C31.0035776,13.4984353 28.2543103,10.7491681 28.2543103,7.35619397 C28.2543103,3.96321983 31.0035776,1.21395259 34.3965517,1.21395259 C37.7895259,1.21395259 40.5387931,3.96321983 40.5387931,7.35619397" id="Fill-3" fill="#EBF4FF"></path>
                    <path d="M40.5387931,66.3217112 C40.5387931,69.7146853 37.7895259,72.4639526 34.3965517,72.4639526 C31.0035776,72.4639526 28.2543103,69.7146853 28.2543103,66.3217112 C28.2543103,62.9287371 31.0035776,60.1794698 34.3965517,60.1794698 C37.7895259,60.1794698 40.5387931,62.9287371 40.5387931,66.3217112" id="Fill-5" fill="#EBF4FF"></path>
                    <path d="M15.0064784,22.0975733 C15.0064784,25.4905474 12.2547543,28.2398147 8.86423707,28.2398147 C5.47126293,28.2398147 2.72199569,25.4905474 2.72199569,22.0975733 C2.72199569,18.7045991 5.47126293,15.9553319 8.86423707,15.9553319 C12.2547543,15.9553319 15.0064784,18.7045991 15.0064784,22.0975733" id="Fill-7" fill="#EBF4FF"></path>
                    <path d="M66.0711078,22.0975733 C66.0711078,25.4905474 63.3218405,28.2398147 59.9288664,28.2398147 C56.5383491,28.2398147 53.786625,25.4905474 53.786625,22.0975733 C53.786625,18.7045991 56.5383491,15.9553319 59.9288664,15.9553319 C63.3218405,15.9553319 66.0711078,18.7045991 66.0711078,22.0975733" id="Fill-9" fill="#EBF4FF"></path>
                    <path d="M15.0064784,51.5803319 C15.0064784,54.973306 12.2547543,57.7225733 8.86423707,57.7225733 C5.47126293,57.7225733 2.72199569,54.973306 2.72199569,51.5803319 C2.72199569,48.1873578 5.47126293,45.4380905 8.86423707,45.4380905 C12.2547543,45.4380905 15.0064784,48.1873578 15.0064784,51.5803319" id="Fill-11" fill="#EBF4FF"></path>
                    <path d="M66.0711078,51.5803319 C66.0711078,54.973306 63.3218405,57.7225733 59.9288664,57.7225733 C56.5383491,57.7225733 53.786625,54.973306 53.786625,51.5803319 C53.786625,48.1873578 56.5383491,45.4380905 59.9288664,45.4380905 C63.3218405,45.4380905 66.0711078,48.1873578 66.0711078,51.5803319" id="Fill-13" fill="#EBF4FF"></path>
                    <path d="M59.9288664,56.964375 C57.0297284,56.964375 54.6711078,54.6057543 54.6711078,51.7066164 C54.6711078,48.8099353 57.0297284,46.4513147 59.9288664,46.4513147 C62.8280043,46.4513147 65.186625,48.8099353 65.186625,51.7066164 C65.186625,54.6057543 62.8280043,56.964375 59.9288664,56.964375 Z M39.9665819,62.212306 C38.8511509,60.7504526 37.1902888,59.7554095 35.2812802,59.5097198 L35.2812802,47.3038578 L42.9074871,42.8986422 L53.4524871,48.9892888 C53.098694,49.8246336 52.9021422,50.7459698 52.9021422,51.7066164 C52.9021422,52.6697198 53.098694,53.591056 53.4524871,54.4264009 L39.9665819,62.212306 Z M34.3967974,71.7057543 C31.4976595,71.7057543 29.1390388,69.3471336 29.1390388,66.4479957 C29.1390388,63.5513147 31.4976595,61.192694 34.3967974,61.192694 C37.2959353,61.192694 39.654556,63.5513147 39.654556,66.4479957 C39.654556,69.3471336 37.2959353,71.7057543 34.3967974,71.7057543 Z M15.3435647,54.4264009 C15.6949009,53.591056 15.8914526,52.6697198 15.8914526,51.7066164 C15.8914526,50.7459698 15.6949009,49.8246336 15.3435647,48.9892888 L25.8861078,42.8986422 L33.5123147,47.3038578 L33.5123147,59.5097198 C31.603306,59.7554095 29.9399871,60.7504526 28.8270129,62.212306 L15.3435647,54.4264009 Z M8.86472845,56.964375 C5.96559052,56.964375 3.60696983,54.6057543 3.60696983,51.7066164 C3.60696983,48.8099353 5.96559052,46.4513147 8.86472845,46.4513147 C11.7638664,46.4513147 14.1224871,48.8099353 14.1224871,51.7066164 C14.1224871,54.6057543 11.7638664,56.964375 8.86472845,56.964375 Z M3.60696983,22.2238578 C3.60696983,19.3271767 5.96559052,16.968556 8.86472845,16.968556 C11.7638664,16.968556 14.1224871,19.3271767 14.1224871,22.2238578 C14.1224871,25.1229957 11.7638664,27.4816164 8.86472845,27.4816164 C5.96559052,27.4816164 3.60696983,25.1229957 3.60696983,22.2238578 Z M9.74921121,44.7683405 L9.74921121,29.1645905 C11.6582198,28.9189009 13.3190819,27.9238578 14.4345129,26.4595474 L25.001625,32.5624784 L25.001625,41.3679957 L14.4345129,47.4733836 C13.3190819,46.0090733 11.6582198,45.0140302 9.74921121,44.7683405 Z M28.8270129,11.7181681 C29.9399871,13.1824784 31.603306,14.1775216 33.5123147,14.4232112 L33.5123147,26.6266164 L25.8861078,31.0318319 L15.3435647,24.9436422 C15.6949009,24.1082974 15.8914526,23.1869612 15.8914526,22.2238578 C15.8914526,21.2632112 15.6949009,20.341875 15.3435647,19.5065302 L28.8270129,11.7181681 Z M34.3967974,2.22717672 C37.2959353,2.22717672 39.654556,4.58579741 39.654556,7.48247845 C39.654556,10.3816164 37.2959353,12.7402371 34.3967974,12.7402371 C31.4976595,12.7402371 29.1390388,10.3816164 29.1390388,7.48247845 C29.1390388,4.58579741 31.4976595,2.22717672 34.3967974,2.22717672 Z M34.3967974,45.7707543 L26.7705905,41.3679957 L26.7705905,32.5624784 L34.3967974,28.1597198 L42.0230043,32.5624784 L42.0230043,41.3679957 L34.3967974,45.7707543 Z M53.4524871,19.5065302 C53.098694,20.341875 52.9021422,21.2632112 52.9021422,22.2238578 C52.9021422,23.1869612 53.098694,24.1082974 53.4524871,24.9436422 L42.9074871,31.0318319 L35.2812802,26.6266164 L35.2812802,14.4232112 C37.1902888,14.1775216 38.8511509,13.1824784 39.9665819,11.7181681 L53.4524871,19.5065302 Z M59.9288664,16.968556 C62.8280043,16.968556 65.186625,19.3271767 65.186625,22.2238578 C65.186625,25.1229957 62.8280043,27.4816164 59.9288664,27.4816164 C57.0297284,27.4816164 54.6711078,25.1229957 54.6711078,22.2238578 C54.6711078,19.3271767 57.0297284,16.968556 59.9288664,16.968556 Z M54.3590819,47.4733836 L43.7919698,41.3679957 L43.7919698,32.5624784 L54.3590819,26.4595474 C55.4745129,27.9238578 57.135375,28.9189009 59.0443836,29.1645905 L59.0443836,44.7683405 C57.135375,45.0140302 55.4745129,46.0090733 54.3590819,47.4733836 Z M60.8133491,44.7683405 L60.8133491,29.1645905 C64.2677457,28.7223491 66.9555905,25.7961853 66.9555905,22.2238578 C66.9555905,18.3493319 63.8033922,15.1971336 59.9288664,15.1971336 C57.6513233,15.1971336 55.6440388,16.3027371 54.3590819,17.9881681 L40.8756336,10.2022629 C41.2269698,9.36446121 41.4235216,8.4455819 41.4235216,7.48247845 C41.4235216,3.60795259 38.2713233,0.45575431 34.3967974,0.45575431 C30.5222716,0.45575431 27.3700733,3.60795259 27.3700733,7.48247845 C27.3700733,8.4455819 27.566625,9.36446121 27.9179612,10.2022629 L14.432056,17.9881681 C13.1470991,16.3027371 11.1422716,15.1971336 8.86472845,15.1971336 C4.99020259,15.1971336 1.83800431,18.3493319 1.83800431,22.2238578 C1.83800431,25.7961853 4.52584914,28.7223491 7.98024569,29.1645905 L7.98024569,44.7683405 C4.52584914,45.2105819 1.83800431,48.1342888 1.83800431,51.7066164 C1.83800431,55.5835991 4.99020259,58.7357974 8.86472845,58.7357974 C11.1422716,58.7357974 13.1470991,57.630194 14.432056,55.9447629 L27.9179612,63.7306681 C27.566625,64.5660129 27.3700733,65.4873491 27.3700733,66.4479957 C27.3700733,70.3225216 30.5222716,73.4771767 34.3967974,73.4771767 C38.2713233,73.4771767 41.4235216,70.3225216 41.4235216,66.4479957 C41.4235216,65.4873491 41.2269698,64.5660129 40.8756336,63.7306681 L54.3590819,55.9447629 C55.6440388,57.630194 57.6513233,58.7357974 59.9288664,58.7357974 C63.8033922,58.7357974 66.9555905,55.5835991 66.9555905,51.7066164 C66.9555905,48.1342888 64.2677457,45.2105819 60.8133491,44.7683405 Z" id="Fill-15" fill="#0062FF"></path>
                </g>
            </g>
            <g id="Group-9-Copy-5" transform="translate(0.000000, 0.000000)">
                <polygon id="Fill-1" fill="#FFFFFF" points="0 78.6206897 78.6206897 78.6206897 78.6206897 0 0 0"></polygon>
                <g id="Group-8" transform="translate(0.000000, 2.456897)">
                    <path d="M76.1193233,34.3965517 C76.1193233,54.7494828 59.618806,71.25 39.265875,71.25 C18.912944,71.25 2.41242672,54.7494828 2.41242672,34.3965517 L76.1193233,34.3965517 Z" id="Fill-2" fill="#EBF4FF"></path>
                    <path d="M34.9304353,34.3965517 L18.6166422,6.14224138 L18.6166422,6.13732759 C16.5921595,2.62396552 12.0591853,1.41025862 8.54828017,3.43719828 C5.037375,5.46659483 3.8236681,9.99465517 5.85060776,13.5080172 L5.85552155,13.5080172 L17.9164267,34.3965517" id="Fill-4" fill="#C1DFFF"></path>
                    <path d="M39.265875,70.4077759 C19.7286336,70.4077759 3.77846121,54.7499741 3.30673707,35.32575 L75.2250129,35.32575 C74.7532888,54.7499741 58.8031164,70.4077759 39.265875,70.4077759 Z M6.62109052,13.1104914 C6.61863362,13.1055776 6.61371983,13.1031207 6.61126293,13.0982069 C5.75380603,11.6044138 5.53022845,9.86247414 5.97738362,8.18932759 C6.42699569,6.50881034 7.49820259,5.11083621 8.99199569,4.24846552 C10.4857888,3.38609483 12.2326422,3.16006034 13.9107026,3.61212931 C15.5912198,4.05928448 16.989194,5.13049138 17.8515647,6.62182759 C17.8515647,6.62182759 17.8540216,6.62428448 17.8540216,6.62674138 L17.8515647,6.62674138 L33.398806,33.5543276 L18.4264784,33.5543276 L6.62109052,13.1104914 Z M76.1193233,33.5543276 L35.4404871,33.5543276 L19.3895819,5.757 C19.387125,5.75208621 19.387125,5.74471552 19.3846681,5.73980172 C18.2839784,3.8357069 16.5051853,2.47458621 14.3701422,1.89967241 C12.2350991,1.33212931 10.0116078,1.61712931 8.10751293,2.71781897 C6.2034181,3.81605172 4.84229741,5.59484483 4.26984052,7.72988793 C3.69738362,9.86738793 3.98729741,12.0908793 5.08307328,13.9925172 C5.08553017,13.997431 5.09290086,13.9998879 5.09535776,14.0048017 L16.3823405,33.5543276 L2.41242672,33.5543276 C1.92350431,33.5543276 1.52794397,33.9498879 1.52794397,34.4388103 C1.52794397,55.2487241 18.4559612,72.1791983 39.265875,72.1791983 C60.0757888,72.1791983 77.003806,55.2487241 77.003806,34.4388103 C77.003806,33.9498879 76.6082457,33.5543276 76.1193233,33.5543276 Z" id="Fill-6" fill="#0062FF"></path>
                </g>
            </g>
        </g>
    </g>
</svg>