<?xml version="1.0" encoding="UTF-8"?>
<svg width="288px" height="288px" viewBox="0 0 288 288" version="1.1" xmlns="http://www.w3.org/2000/svg" xmlns:xlink="http://www.w3.org/1999/xlink">
    <!-- Generator: Sketch 58 (84663) - https://sketch.com -->
    <title>Artboard Copy 91</title>
    <desc>Created with Sketch.</desc>
    <g id="Artboard-Copy-91" stroke="none" stroke-width="1" fill="none" fill-rule="evenodd">
        <rect id="Rectangle-3-Copy-78" fill="#FFFFFF" x="0" y="0" width="288" height="288"></rect>
        <g id="Group-4-Copy-33" transform="translate(24.000000, 76.000000)">
            <polygon id="Fill-1" fill="#FFFFFF" points="0 96 96 96 96 0 0 0"></polygon>
            <path d="M73.08,57.396 L91.92,57.396 L91.92,38.559 L73.08,38.559 L73.08,57.396 Z M81.42,73.5 C81.42,79.521 76.521,84.42 70.5,84.42 L59.58,84.42 L59.58,72 C59.58,71.403 59.097,70.92 58.5,70.92 L49.107,70.92 L49.107,59.442 C54.594,58.902 58.929,54.552 59.448,49.059 L70.92,49.059 L70.92,58.476 C70.92,59.073 71.403,59.559 72,59.559 L81.42,59.559 L81.42,73.5 Z M38.58,91.92 L57.42,91.92 L57.42,73.083 L38.58,73.083 L38.58,91.92 Z M13.5,91.92 C8.307,91.92 4.08,87.693 4.08,82.5 C4.08,77.307 8.307,73.08 13.5,73.08 C18.693,73.08 22.92,77.307 22.92,82.5 C22.92,87.693 18.693,91.92 13.5,91.92 L13.5,91.92 Z M47.979,38.559 C53.172,38.559 57.399,42.783 57.399,47.976 C57.399,53.172 53.172,57.396 47.979,57.396 C42.783,57.396 38.559,53.172 38.559,47.976 C38.559,42.783 42.783,38.559 47.979,38.559 L47.979,38.559 Z M4.107,22.944 L22.947,22.944 L22.947,4.107 L4.107,4.107 L4.107,22.944 Z M43.08,4.869 L57.84,13.392 L43.08,21.915 L43.08,4.869 Z M73.08,13.5 C73.08,8.307 77.307,4.08 82.5,4.08 C87.693,4.08 91.92,8.307 91.92,13.5 C91.92,18.693 87.693,22.92 82.5,22.92 C77.307,22.92 73.08,18.693 73.08,13.5 L73.08,13.5 Z M93,36.396 L83.58,36.396 L83.58,24.972 C89.451,24.417 94.08,19.515 94.08,13.5 C94.08,7.116 88.884,1.92 82.5,1.92 C76.116,1.92 70.92,7.116 70.92,13.5 C70.92,19.515 75.549,24.417 81.42,24.972 L81.42,36.396 L72,36.396 C71.403,36.396 70.92,36.879 70.92,37.476 L70.92,46.896 L59.448,46.896 C58.893,41.025 53.994,36.396 47.979,36.396 C41.955,36.396 37.05,41.037 36.504,46.92 L25.5,46.92 C19.479,46.92 14.58,42.021 14.58,36 L14.58,25.107 L24.027,25.107 C24.624,25.107 25.107,24.624 25.107,24.027 L25.107,14.607 L40.92,14.607 L40.92,23.784 C40.92,24.171 41.124,24.525 41.46,24.717 C41.625,24.813 41.814,24.864 42,24.864 C42.186,24.864 42.375,24.813 42.54,24.717 L60.54,14.325 C60.876,14.133 61.08,13.779 61.08,13.392 C61.08,13.005 60.876,12.651 60.54,12.456 L42.54,2.064 C42.207,1.872 41.793,1.872 41.46,2.064 C41.124,2.259 40.92,2.613 40.92,3 L40.92,12.444 L25.107,12.444 L25.107,3.027 C25.107,2.43 24.624,1.944 24.027,1.944 L3.027,1.944 C2.43,1.944 1.947,2.43 1.947,3.027 L1.947,24.027 C1.947,24.624 2.43,25.107 3.027,25.107 L12.42,25.107 L12.42,36 C12.42,43.212 18.288,49.08 25.5,49.08 L36.51,49.08 C36.741,51.456 37.674,53.61 39.123,55.347 L20.847,73.626 C18.843,71.961 16.305,70.92 13.5,70.92 C7.116,70.92 1.92,76.116 1.92,82.5 C1.92,88.884 7.116,94.08 13.5,94.08 C19.884,94.08 25.08,88.884 25.08,82.5 C25.08,79.698 24.039,77.16 22.374,75.153 L40.656,56.871 C42.405,58.314 44.562,59.238 46.947,59.451 L46.947,70.92 L37.5,70.92 C36.903,70.92 36.42,71.403 36.42,72 L36.42,93 C36.42,93.597 36.903,94.08 37.5,94.08 L58.5,94.08 C59.097,94.08 59.58,93.597 59.58,93 L59.58,86.58 L70.5,86.58 C77.712,86.58 83.58,80.712 83.58,73.5 L83.58,59.559 L93,59.559 C93.597,59.559 94.08,59.073 94.08,58.476 L94.08,37.476 C94.08,36.879 93.597,36.396 93,36.396 L93,36.396 Z" id="Fill-2" fill="#000000"></path>
        </g>
        <path d="M64.606,211.696 C64.606,209.704 63.538,208.48 61.798,208.48 C60.118,208.48 59.014,209.608 59.014,211.252 C59.014,212.836 60.046,213.832 61.486,213.832 C62.506,213.832 63.106,213.316 63.502,212.632 L63.562,212.656 C63.106,214.6 62.11,215.692 60.322,217 L61.618,217 C62.962,216.124 64.606,214.18 64.606,211.696 Z M61.81,212.98 C60.706,212.98 60.058,212.344 60.058,211.216 L60.058,211.12 C60.058,209.992 60.706,209.356 61.81,209.356 C62.914,209.356 63.562,209.992 63.562,211.12 L63.562,211.216 C63.562,212.344 62.914,212.98 61.81,212.98 Z M69.342,217.144 C71.022,217.144 72.126,216.016 72.126,214.372 C72.126,212.788 71.094,211.792 69.654,211.792 C68.634,211.792 68.034,212.308 67.638,212.992 L67.578,212.968 C68.034,211.024 69.03,209.932 70.818,208.624 L69.522,208.624 C68.178,209.5 66.534,211.444 66.534,213.928 C66.534,215.92 67.602,217.144 69.342,217.144 Z M69.33,216.268 C68.226,216.268 67.578,215.632 67.578,214.504 L67.578,214.408 C67.578,213.28 68.226,212.644 69.33,212.644 C70.434,212.644 71.082,213.28 71.082,214.408 L71.082,214.504 C71.082,215.632 70.434,216.268 69.33,216.268 Z M74.27,219.4 L75.23,219.4 L75.23,215.992 L75.278,215.992 C75.65,216.76 76.238,217.144 77.09,217.144 C78.638,217.144 79.61,215.884 79.61,213.904 C79.61,211.924 78.638,210.664 77.09,210.664 C76.238,210.664 75.602,211.036 75.278,211.816 L75.23,211.816 L75.23,210.808 L74.27,210.808 L74.27,219.4 Z M76.826,216.28 C75.95,216.28 75.23,215.824 75.23,215.02 L75.23,212.716 C75.23,212.032 75.95,211.528 76.826,211.528 C77.906,211.528 78.578,212.272 78.578,213.376 L78.578,214.432 C78.578,215.536 77.906,216.28 76.826,216.28 Z M80.638,217 L82.93,213.88 L80.734,210.808 L81.862,210.808 L83.434,213.112 L83.47,213.112 L85.102,210.808 L86.17,210.808 L83.986,213.808 L86.218,217 L85.09,217 L83.482,214.576 L83.446,214.576 L81.706,217 L80.638,217 Z" id="96px" fill="#6F6F6F" fill-rule="nonzero"></path>
        <g id="Group-4-Copy-34" transform="translate(152.000000, 68.000000)">
            <polygon id="Fill-1" fill="#FFFFFF" points="0 112 112 112 112 0 0 0"></polygon>
            <path d="M85.26,66.962 L107.24,66.962 L107.24,44.9855 L85.26,44.9855 L85.26,66.962 Z M94.99,85.75 C94.99,92.7745 89.2745,98.49 82.25,98.49 L69.51,98.49 L69.51,84 C69.51,83.3035 68.9465,82.74 68.25,82.74 L57.2915,82.74 L57.2915,69.349 C63.693,68.719 68.7505,63.644 69.356,57.2355 L82.74,57.2355 L82.74,68.222 C82.74,68.9185 83.3035,69.4855 84,69.4855 L94.99,69.4855 L94.99,85.75 Z M45.01,107.24 L66.99,107.24 L66.99,85.2635 L45.01,85.2635 L45.01,107.24 Z M15.75,107.24 C9.6915,107.24 4.76,102.3085 4.76,96.25 C4.76,90.1915 9.6915,85.26 15.75,85.26 C21.8085,85.26 26.74,90.1915 26.74,96.25 C26.74,102.3085 21.8085,107.24 15.75,107.24 L15.75,107.24 Z M55.9755,44.9855 C62.034,44.9855 66.9655,49.9135 66.9655,55.972 C66.9655,62.034 62.034,66.962 55.9755,66.962 C49.9135,66.962 44.9855,62.034 44.9855,55.972 C44.9855,49.9135 49.9135,44.9855 55.9755,44.9855 L55.9755,44.9855 Z M4.7915,26.768 L26.7715,26.768 L26.7715,4.7915 L4.7915,4.7915 L4.7915,26.768 Z M50.26,5.6805 L67.48,15.624 L50.26,25.5675 L50.26,5.6805 Z M85.26,15.75 C85.26,9.6915 90.1915,4.76 96.25,4.76 C102.3085,4.76 107.24,9.6915 107.24,15.75 C107.24,21.8085 102.3085,26.74 96.25,26.74 C90.1915,26.74 85.26,21.8085 85.26,15.75 L85.26,15.75 Z M108.5,42.462 L97.51,42.462 L97.51,29.134 C104.3595,28.4865 109.76,22.7675 109.76,15.75 C109.76,8.302 103.698,2.24 96.25,2.24 C88.802,2.24 82.74,8.302 82.74,15.75 C82.74,22.7675 88.1405,28.4865 94.99,29.134 L94.99,42.462 L84,42.462 C83.3035,42.462 82.74,43.0255 82.74,43.722 L82.74,54.712 L69.356,54.712 C68.7085,47.8625 62.993,42.462 55.9755,42.462 C48.9475,42.462 43.225,47.8765 42.588,54.74 L29.75,54.74 C22.7255,54.74 17.01,49.0245 17.01,42 L17.01,29.2915 L28.0315,29.2915 C28.728,29.2915 29.2915,28.728 29.2915,28.0315 L29.2915,17.0415 L47.74,17.0415 L47.74,27.748 C47.74,28.1995 47.978,28.6125 48.37,28.8365 C48.5625,28.9485 48.783,29.008 49,29.008 C49.217,29.008 49.4375,28.9485 49.63,28.8365 L70.63,16.7125 C71.022,16.4885 71.26,16.0755 71.26,15.624 C71.26,15.1725 71.022,14.7595 70.63,14.532 L49.63,2.408 C49.2415,2.184 48.7585,2.184 48.37,2.408 C47.978,2.6355 47.74,3.0485 47.74,3.5 L47.74,14.518 L29.2915,14.518 L29.2915,3.5315 C29.2915,2.835 28.728,2.268 28.0315,2.268 L3.5315,2.268 C2.835,2.268 2.2715,2.835 2.2715,3.5315 L2.2715,28.0315 C2.2715,28.728 2.835,29.2915 3.5315,29.2915 L14.49,29.2915 L14.49,42 C14.49,50.414 21.336,57.26 29.75,57.26 L42.595,57.26 C42.8645,60.032 43.953,62.545 45.6435,64.5715 L24.3215,85.897 C21.9835,83.9545 19.0225,82.74 15.75,82.74 C8.302,82.74 2.24,88.802 2.24,96.25 C2.24,103.698 8.302,109.76 15.75,109.76 C23.198,109.76 29.26,103.698 29.26,96.25 C29.26,92.981 28.0455,90.02 26.103,87.6785 L47.432,66.3495 C49.4725,68.033 51.989,69.111 54.7715,69.3595 L54.7715,82.74 L43.75,82.74 C43.0535,82.74 42.49,83.3035 42.49,84 L42.49,108.5 C42.49,109.1965 43.0535,109.76 43.75,109.76 L68.25,109.76 C68.9465,109.76 69.51,109.1965 69.51,108.5 L69.51,101.01 L82.25,101.01 C90.664,101.01 97.51,94.164 97.51,85.75 L97.51,69.4855 L108.5,69.4855 C109.1965,69.4855 109.76,68.9185 109.76,68.222 L109.76,43.722 C109.76,43.0255 109.1965,42.462 108.5,42.462 L108.5,42.462 Z" id="Fill-2" fill="#000000"></path>
        </g>
        <path d="M197.014,217 L197.014,216.112 L194.854,216.112 L194.854,208.624 L193.282,208.624 L191.062,210.7 L191.65,211.336 L193.762,209.368 L193.846,209.368 L193.846,216.112 L191.506,216.112 L191.506,217 L197.014,217 Z M204.534,217 L204.534,216.112 L202.374,216.112 L202.374,208.624 L200.802,208.624 L198.582,210.7 L199.17,211.336 L201.282,209.368 L201.366,209.368 L201.366,216.112 L199.026,216.112 L199.026,217 L204.534,217 Z M211.886,216.112 L207.482,216.112 L209.738,214.084 C210.806,213.124 211.574,212.212 211.574,210.916 C211.574,209.488 210.638,208.48 209.006,208.48 C207.386,208.48 206.642,209.464 206.318,210.448 L207.218,210.796 C207.446,210.004 207.926,209.38 208.958,209.38 C209.99,209.38 210.506,210.016 210.506,210.94 L210.506,211.084 C210.506,211.888 209.906,212.728 209.126,213.448 L206.39,215.968 L206.39,217 L211.886,217 L211.886,216.112 Z M214.03,219.4 L214.99,219.4 L214.99,215.992 L215.038,215.992 C215.41,216.76 215.998,217.144 216.85,217.144 C218.398,217.144 219.37,215.884 219.37,213.904 C219.37,211.924 218.398,210.664 216.85,210.664 C215.998,210.664 215.362,211.036 215.038,211.816 L214.99,211.816 L214.99,210.808 L214.03,210.808 L214.03,219.4 Z M216.586,216.28 C215.71,216.28 214.99,215.824 214.99,215.02 L214.99,212.716 C214.99,212.032 215.71,211.528 216.586,211.528 C217.666,211.528 218.338,212.272 218.338,213.376 L218.338,214.432 C218.338,215.536 217.666,216.28 216.586,216.28 Z M220.398,217 L222.69,213.88 L220.494,210.808 L221.622,210.808 L223.194,213.112 L223.23,213.112 L224.862,210.808 L225.93,210.808 L223.746,213.808 L225.978,217 L224.85,217 L223.242,214.576 L223.206,214.576 L221.466,217 L220.398,217 Z" id="112px" fill="#6F6F6F" fill-rule="nonzero"></path>
    </g>
</svg>