<svg xmlns="http://www.w3.org/2000/svg" viewBox="0 0 288 288"><g fill="none" fill-rule="evenodd"><path fill="#FFF" d="M0 0h288v288H0z"/><path fill="#FFF" d="M16 208h256V80H16z"/><path d="M72.889 172.444h56.889v-56.888h-56.89v56.888zm-14.222-71.11v85.332H144v-85.332H58.667zm99.555 71.11h56.89v-56.888h-56.89v56.888zM144 101.334v85.332h85.333v-85.332H144z" fill="#C9DEFF"/><path fill="#FFF" d="M72.889 172.446h56.889v-56.889h-56.89z"/><path d="M104.9 117.97a2.92 2.92 0 00-2.53 1.455l-5.333 9.239a2.92 2.92 0 001.067 3.984 2.894 2.894 0 002.211.286 2.885 2.885 0 001.77-1.355l5.334-9.237c.388-.672.49-1.456.288-2.212a2.895 2.895 0 00-1.354-1.77 2.888 2.888 0 00-1.453-.39m-5.353 16.345c-.725 0-1.44-.188-2.083-.56a4.2 4.2 0 01-1.535-5.731l5.334-9.238a4.196 4.196 0 015.73-1.534 4.156 4.156 0 011.95 2.548 4.157 4.157 0 01-.414 3.18l-5.334 9.24a4.154 4.154 0 01-2.55 1.95 4.222 4.222 0 01-1.098.145m12.823 25.341c-.505 0-1.005.132-1.458.395a2.887 2.887 0 00-1.36 1.765 2.9 2.9 0 00.295 2.212 2.898 2.898 0 001.765 1.36h.002l10.302 2.759a2.897 2.897 0 002.21-.295 2.89 2.89 0 001.362-1.766 2.922 2.922 0 00-2.062-3.571l-10.304-2.76a2.958 2.958 0 00-.752-.099m10.302 9.872c-.363 0-.727-.048-1.086-.144l-10.304-2.76a4.158 4.158 0 01-2.544-1.958 4.167 4.167 0 01-.423-3.18 4.17 4.17 0 011.957-2.544 4.165 4.165 0 013.182-.424l10.302 2.761a4.2 4.2 0 012.968 5.138 4.161 4.161 0 01-1.956 2.544 4.185 4.185 0 01-2.096.567M83.568 146.07c-.256 0-.512.036-.766.104-.756.2-1.385.684-1.771 1.354l-5.333 9.238a2.885 2.885 0 00-.288 2.211 2.895 2.895 0 001.354 1.77 2.92 2.92 0 003.982-1.064l5.334-9.24a2.92 2.92 0 00-1.067-3.983 2.9 2.9 0 00-1.445-.39zm-5.353 16.347a4.168 4.168 0 01-2.09-.562 4.156 4.156 0 01-1.951-2.547 4.156 4.156 0 01.414-3.18l5.334-9.24a4.154 4.154 0 012.549-1.95 4.17 4.17 0 013.182.414 4.201 4.201 0 011.536 5.732l-5.333 9.237a4.2 4.2 0 01-3.641 2.096zm39.115-24.891a2.88 2.88 0 00-1.453.39 2.895 2.895 0 00-1.354 1.77 2.885 2.885 0 00.288 2.212l5.333 9.237a2.885 2.885 0 001.77 1.355 2.9 2.9 0 002.212-.287 2.92 2.92 0 001.067-3.984l-5.333-9.239a2.92 2.92 0 00-2.53-1.454m5.353 16.345c-.367 0-.736-.048-1.099-.146a4.154 4.154 0 01-2.55-1.95l-5.333-9.24a4.156 4.156 0 01-.414-3.18 4.156 4.156 0 011.95-2.547 4.198 4.198 0 015.73 1.534l5.333 9.237a4.2 4.2 0 01-1.534 5.732 4.154 4.154 0 01-2.083.56m-33.449-30.567c-.494 0-.995.124-1.452.39l-9.24 5.332a2.892 2.892 0 00-1.352 1.771 2.9 2.9 0 002.059 3.566c.753.203 1.54.102 2.21-.286l9.238-5.333a2.924 2.924 0 001.067-3.986 2.92 2.92 0 00-2.53-1.454m-9.22 12.44c-.365 0-.733-.047-1.098-.145a4.158 4.158 0 01-2.547-1.952 4.157 4.157 0 01-.416-3.18 4.169 4.169 0 011.95-2.548l9.239-5.333a4.198 4.198 0 015.73 1.534 4.201 4.201 0 01-1.535 5.731l-9.239 5.334a4.144 4.144 0 01-2.083.56m16.329 23.12c-.494 0-.996.124-1.454.389l-9.238 5.333a2.892 2.892 0 00-1.353 1.77 2.901 2.901 0 002.057 3.566 2.9 2.9 0 002.212-.285l9.237-5.333a2.923 2.923 0 001.069-3.986 2.922 2.922 0 00-2.53-1.454m-9.22 12.44c-.366 0-.734-.048-1.098-.145a4.156 4.156 0 01-2.55-1.952 4.157 4.157 0 01-.414-3.18 4.169 4.169 0 011.95-2.548l9.238-5.334a4.2 4.2 0 015.731 1.535 4.2 4.2 0 01-1.536 5.731l-9.237 5.333a4.144 4.144 0 01-2.084.56m28.094-49.779c-1.008 0-1.99.523-2.53 1.454a2.923 2.923 0 001.069 3.986l9.237 5.333a2.9 2.9 0 002.212.287 2.901 2.901 0 002.056-3.567 2.892 2.892 0 00-1.352-1.77l-9.238-5.334a2.899 2.899 0 00-1.454-.389m9.22 12.44a4.144 4.144 0 01-2.084-.56l-9.237-5.332a4.2 4.2 0 01-1.536-5.732 4.199 4.199 0 015.731-1.534l9.238 5.333a4.163 4.163 0 011.95 2.548 4.156 4.156 0 01-.414 3.18 4.156 4.156 0 01-2.55 1.952 4.232 4.232 0 01-1.098.146m-28.768 7.12c-.256 0-.512.035-.766.103-.754.2-1.383.683-1.77 1.353a2.894 2.894 0 00-.287 2.211 2.899 2.899 0 001.353 1.773l9.237 5.333a2.922 2.922 0 003.984-1.067 2.92 2.92 0 00-1.068-3.984l-9.237-5.333a2.877 2.877 0 00-1.446-.39m9.22 12.442a4.19 4.19 0 01-2.093-.56l-9.237-5.334a4.177 4.177 0 01-1.95-2.549 4.158 4.158 0 01.414-3.18 4.156 4.156 0 012.55-1.952 4.162 4.162 0 013.182.416l9.237 5.333a4.198 4.198 0 011.536 5.73 4.197 4.197 0 01-3.64 2.096" fill="#000"/><path d="M189.78 158.01l.217-.088a4.176 4.176 0 002.614-3.883l.003-4.021c.004-3.277-2.519-6.075-5.623-6.239-1.664-.078-3.218.491-4.41 1.622a5.886 5.886 0 00-1.855 4.313l-.002 4.316a4.176 4.176 0 002.623 3.892l.215.088v9.085h1.28v-9.511c0-.262-.222-.53-.466-.628l-.551-.222a2.902 2.902 0 01-1.822-2.704l.003-4.316c0-1.293.516-2.493 1.454-3.384.94-.888 2.182-1.304 3.464-1.272 2.433.128 4.412 2.352 4.41 4.96l-.002 4.02a2.903 2.903 0 01-1.816 2.698l-.616.25a.64.64 0 00-.4.594v9.515h1.28v-9.085zm-20.252 12.015h34.276v-39.607h-34.276v39.607zm35.556.641v-40.888a.64.64 0 00-.639-.64H168.89a.64.64 0 00-.64.64v40.888c0 .354.286.64.64.64h35.555a.64.64 0 00.639-.64zm-16.39-32.888a2.03 2.03 0 01-2.026 2.026 2.03 2.03 0 01-2.029-2.026 2.03 2.03 0 012.029-2.027 2.03 2.03 0 012.026 2.027zm1.278 0a3.31 3.31 0 00-3.304-3.307 3.31 3.31 0 00-3.307 3.307 3.31 3.31 0 003.307 3.306 3.31 3.31 0 003.304-3.306zM185.35 124l-5.794-5.794-5.724 5.724.905.907 4.82-4.821 4.888 4.89.905-.906zm14.276-4.496l-.905-.907-4.942 4.942-4.873-4.873-.905.907 5.778 5.776 5.847-5.845zm13.066 51.162h1.28v-53.333h-1.28v53.333zm-53.333 0h1.28v-53.333h-1.28v53.333z" fill="#171717"/><path d="M58.508 197.25V199H58v-4h.508v1.75h13.984V195H73v4h-.508v-1.75H58.508z" fill="#97C1FF" fill-rule="nonzero"/><path d="M59.056 215v-.888h2.34v-6.576l-2.364 1.404-.396-.768 2.664-1.548h1.104v7.488h2.16V215h-5.508zm6.252 1.812l3.132-10.692h.864l-3.132 10.692h-.864zM74.296 215v-1.644h-4.044v-.888l3.504-5.844h1.5v5.892h1.212v.84h-1.212V215h-.96zm-3.096-2.484h3.096v-5.112h-.06l-3.036 5.112zm14.868 3.168c0 .64-.25 1.11-.75 1.41-.5.3-1.25.45-2.25.45-.968 0-1.664-.132-2.088-.396-.424-.264-.636-.64-.636-1.128 0-.336.088-.598.264-.786.176-.188.416-.326.72-.414v-.132c-.368-.176-.552-.464-.552-.864 0-.312.1-.55.3-.714.2-.164.456-.286.768-.366v-.048a2 2 0 01-.858-.756 2.114 2.114 0 01-.306-1.14c0-.312.056-.6.168-.864.112-.264.27-.49.474-.678.204-.188.448-.334.732-.438.284-.104.602-.156.954-.156.44 0 .832.08 1.176.24v-.108c0-.24.056-.44.168-.6.112-.16.296-.236.552-.228h.924v.84h-1.176v.396c.224.192.398.422.522.69.124.268.186.57.186.906 0 .312-.056.6-.168.864a1.94 1.94 0 01-.474.678c-.204.188-.45.334-.738.438a3.053 3.053 0 01-1.56.096 1.994 1.994 0 00-.564.246.508.508 0 00-.252.45c0 .184.088.308.264.372.176.064.404.096.684.096h1.32c.768 0 1.326.146 1.674.438.348.292.522.694.522 1.206zm-.9.072a.717.717 0 00-.282-.594c-.188-.148-.522-.222-1.002-.222H81.82c-.384.176-.576.456-.576.84 0 .272.102.504.306.696.204.192.55.288 1.038.288h.888c.536 0 .952-.084 1.248-.252a.817.817 0 00.444-.756zm-2.148-3.588c.408 0 .732-.098.972-.294.24-.196.36-.498.36-.906v-.336c0-.408-.12-.71-.36-.906-.24-.196-.564-.294-.972-.294-.408 0-.732.098-.972.294-.24.196-.36.498-.36.906v.336c0 .408.12.71.36.906.24.196.564.294.972.294zM87.184 215v-6.192h.96v1.14h.06a1.87 1.87 0 01.6-.792c.288-.232.684-.348 1.188-.348h.372v.96H89.8c-.52 0-.926.098-1.218.294-.292.196-.438.442-.438.738v4.2h-.96zm4.884-7.644c-.208 0-.358-.05-.45-.15a.553.553 0 01-.138-.39v-.156c0-.16.046-.29.138-.39.092-.1.242-.15.45-.15.208 0 .358.05.45.15.092.1.138.23.138.39v.156c0 .16-.046.29-.138.39-.092.1-.242.15-.45.15zm-.48 1.452h.96V215h-.96v-6.192zm6.96 5.184H98.5c-.376.768-.98 1.152-1.812 1.152-.384 0-.732-.076-1.044-.228a2.268 2.268 0 01-.798-.648 2.97 2.97 0 01-.504-1.02 4.821 4.821 0 01-.174-1.344c0-.496.058-.944.174-1.344.116-.4.284-.74.504-1.02.22-.28.486-.496.798-.648.312-.152.66-.228 1.044-.228.432 0 .802.094 1.11.282.308.188.542.478.702.87h.048v-3.696h.96V215h-.96v-1.008zm-1.596.288c.216 0 .422-.028.618-.084a1.55 1.55 0 00.51-.246c.144-.108.258-.24.342-.396.084-.156.126-.334.126-.534v-2.304a.945.945 0 00-.126-.474 1.184 1.184 0 00-.342-.378 1.727 1.727 0 00-.51-.246 2.1 2.1 0 00-.618-.09c-.544 0-.972.17-1.284.51-.312.34-.468.786-.468 1.338v1.056c0 .552.156.998.468 1.338.312.34.74.51 1.284.51zm6.78-5.472h.936l.66 2.676.66 2.712h.024l.756-2.712.78-2.676h.852l.804 2.676.768 2.712h.024l.636-2.712.672-2.676h.9L110.56 215h-1.188l-.864-2.976-.54-1.884h-.024l-.528 1.884-.864 2.976h-1.164l-1.656-6.192zm10.344-1.452c-.208 0-.358-.05-.45-.15a.553.553 0 01-.138-.39v-.156c0-.16.046-.29.138-.39.092-.1.242-.15.45-.15.208 0 .358.05.45.15.092.1.138.23.138.39v.156c0 .16-.046.29-.138.39-.092.1-.242.15-.45.15zm-.48 1.452h.96V215h-.96v-6.192zm6.96 5.184h-.048c-.376.768-.98 1.152-1.812 1.152-.384 0-.732-.076-1.044-.228a2.268 2.268 0 01-.798-.648 2.97 2.97 0 01-.504-1.02 4.821 4.821 0 01-.174-1.344c0-.496.058-.944.174-1.344.116-.4.284-.74.504-1.02.22-.28.486-.496.798-.648.312-.152.66-.228 1.044-.228.432 0 .802.094 1.11.282.308.188.542.478.702.87h.048v-3.696h.96V215h-.96v-1.008zm-1.596.288c.216 0 .422-.028.618-.084a1.55 1.55 0 00.51-.246c.144-.108.258-.24.342-.396.084-.156.126-.334.126-.534v-2.304a.945.945 0 00-.126-.474 1.184 1.184 0 00-.342-.378 1.727 1.727 0 00-.51-.246 2.1 2.1 0 00-.618-.09c-.544 0-.972.17-1.284.51-.312.34-.468.786-.468 1.338v1.056c0 .552.156.998.468 1.338.312.34.74.51 1.284.51zm5.964.72c-.336 0-.59-.094-.762-.282-.172-.188-.258-.434-.258-.738v-4.332h-1.02v-.84h.576c.208 0 .35-.042.426-.126.076-.084.114-.23.114-.438v-1.152h.864v1.716h1.356v.84h-1.356v4.512h1.26v.84h-1.2zm2.844-8.88h.96v3.696h.048c.152-.352.366-.632.642-.84.276-.208.646-.312 1.11-.312.64 0 1.146.206 1.518.618.372.412.558.994.558 1.746V215h-.96v-3.804c0-1.112-.468-1.668-1.404-1.668-.192 0-.378.024-.558.072-.18.048-.342.12-.486.216a1.069 1.069 0 00-.342.366 1.04 1.04 0 00-.126.522V215h-.96v-8.88z" fill="#6F6F6F"/></g></svg>