<?xml version="1.0" encoding="utf-8"?>
<!-- Generator: Adobe Illustrator 25.2.0, SVG Export Plug-In . SVG Version: 6.00 Build 0)  -->
<svg version="1.1" id="Layer_1" xmlns="http://www.w3.org/2000/svg" xmlns:xlink="http://www.w3.org/1999/xlink" x="0px" y="0px"
	 viewBox="0 0 48 22" style="enable-background:new 0 0 48 22;" xml:space="preserve">
<desc>Created with Sketch.</desc>
<g id="Desktop">
	<g id="Icons-Copy-4" transform="translate(-352.000000, -869.000000)">
		<g id="Group" transform="translate(352.000000, 869.000000)">
			<polygon id="Rectangle-path" points="2,18.7 10.6,18.7 10.6,19.9 2,19.9 			"/>
			<polygon id="Rectangle-path_1_" points="2,16.3 10.6,16.3 10.6,17.5 2,17.5 			"/>
			<polygon id="Rectangle-path_2_" points="4.4,13.9 8.1,13.9 8.1,15.2 4.4,15.2 			"/>
			<polygon id="Rectangle-path_3_" points="4.4,11.6 8.1,11.6 8.1,12.8 4.4,12.8 			"/>
			<polygon id="Rectangle-path_4_" points="4.4,9.2 8.1,9.2 8.1,10.4 4.4,10.4 			"/>
			<polygon id="Rectangle-path_5_" points="4.4,6.8 8.1,6.8 8.1,8.1 4.4,8.1 			"/>
			<rect id="Rectangle-path_6_" x="2" y="4.5" width="8.6" height="1.2"/>
			<rect id="Rectangle-path_7_" x="2" y="2.1" width="8.6" height="1.2"/>
			<path id="Shape" d="M11.8,17.5h13.2c0.2-0.4,0.4-0.8,0.5-1.2H11.8V17.5z"/>
			<path id="Shape_1_" d="M23.9,11.6h-9.7v1.2h10.7C24.7,12.3,24.3,11.9,23.9,11.6z"/>
			<path id="Shape_2_" d="M14.2,9.2v1.2h9.7c0.4-0.3,0.8-0.8,1-1.2H14.2z"/>
			<path id="Shape_3_" d="M24.9,4.5H11.8v1.2h13.6C25.3,5.3,25.1,4.9,24.9,4.5z"/>
			<path id="Shape_4_" d="M20.9,2.1h-9.1v1.2H24C23.2,2.6,22.1,2.1,20.9,2.1z"/>
			<rect id="Rectangle-path_8_" x="14.2" y="6.8" width="3.7" height="1.2"/>
			<path id="Shape_5_" d="M21.6,8.1h3.8c0.1-0.4,0.2-0.8,0.2-1.2h-4V8.1z"/>
			<polygon id="Rectangle-path_9_" points="14.2,13.9 17.9,13.9 17.9,15.2 14.2,15.2 			"/>
			<path id="Shape_6_" d="M21.6,13.9v1.2h4c0-0.4-0.1-0.8-0.2-1.2H21.6z"/>
			<path id="Shape_7_" d="M11.8,19.9l9.1,0c1.2,0,2.3-0.5,3.1-1.2H11.8V19.9z"/>
			<polygon id="Rectangle-path_10_" points="26.4,18.7 32.6,18.7 32.6,19.9 26.4,19.9 			"/>
			<polygon id="Rectangle-path_11_" points="26.4,16.3 32.6,16.3 32.6,17.5 26.4,17.5 			"/>
			<polygon id="Rectangle-path_12_" points="28.9,13.9 32.6,13.9 32.6,15.2 28.9,15.2 			"/>
			<polygon id="Rectangle-path_13_" points="28.9,11.6 32.6,11.6 32.6,12.8 28.9,12.8 			"/>
			<polygon id="Shape_8_" points="34.3,4.5 26.4,4.5 26.4,5.7 34.7,5.7 			"/>
			<polygon id="Shape_9_" points="33.4,2.1 26.4,2.1 26.4,3.3 33.9,3.3 			"/>
			<polygon id="Rectangle-path_14_" points="39.9,18.7 46,18.7 46,19.9 39.9,19.9 			"/>
			<polygon id="Rectangle-path_15_" points="39.9,16.3 46,16.3 46,17.5 39.9,17.5 			"/>
			<polygon id="Rectangle-path_16_" points="39.9,13.9 43.6,13.9 43.6,15.2 39.9,15.2 			"/>
			<polygon id="Rectangle-path_17_" points="39.9,11.6 43.6,11.6 43.6,12.8 39.9,12.8 			"/>
			<polygon id="Shape_10_" points="39.9,10.4 43.6,10.4 43.6,9.2 39.9,9.2 39.9,9.2 36.6,9.2 36.2,10.2 35.9,9.2 32.6,9.2 32.6,9.2 
				28.9,9.2 28.9,10.4 32.6,10.4 32.6,9.3 32.9,10.4 39.5,10.4 39.9,9.3 			"/>
			<polygon id="Shape_11_" points="43.6,6.8 37.4,6.8 37,8.1 43.6,8.1 			"/>
			<polygon id="Shape_12_" points="39,2.1 38.6,3.3 46,3.3 46,2.1 			"/>
			<polygon id="Shape_13_" points="36.2,19.9 36.6,18.7 35.8,18.7 			"/>
			<polygon id="Shape_14_" points="35.4,17.5 37,17.5 37.5,16.3 35,16.3 			"/>
			<polygon id="Shape_15_" points="34.6,15.2 37.9,15.2 38.3,13.9 34.2,13.9 			"/>
			<polygon id="Shape_16_" points="33.8,12.8 38.7,12.8 39.1,11.6 33.3,11.6 			"/>
			<polygon id="Shape_17_" points="28.9,8.1 35.5,8.1 35.1,6.8 28.9,6.8 			"/>
			<polygon id="Shape_18_" points="37.8,5.7 46,5.7 46,4.5 38.2,4.5 			"/>
		</g>
	</g>
</g>
</svg>
