<svg version="1.1" id="Layer_1" xmlns="http://www.w3.org/2000/svg" x="0" y="0" viewBox="0 0 288 288" xml:space="preserve"><style>.st0{fill:#0062ff}.st1{fill:#fff}.st2{fill:none;stroke:#fff;stroke-width:.31663;stroke-miterlimit:10}</style><path class="st0" d="M0 0h288v288H0z"/><path class="st1" d="M19.71 155.081l-.369-1.05h-1.437l-.367 1.05h-.29l1.194-3.378h.373l1.2 3.378h-.304zm-1.08-3.102h-.019l-.634 1.796h1.287l-.634-1.796zM20.59 155.081v-2.478h.276v.392h.014a.77.77 0 01.257-.322c.116-.085.274-.128.474-.128.265 0 .47.082.617.244.147.164.22.397.22.7v1.592h-.275v-1.544c0-.251-.054-.438-.162-.561-.109-.123-.266-.184-.472-.184a.936.936 0 00-.252.034.68.68 0 00-.215.102.497.497 0 00-.206.411v1.742h-.276zM25.342 155.14c-.164 0-.314-.03-.447-.088a.937.937 0 01-.344-.254 1.145 1.145 0 01-.218-.409 1.848 1.848 0 01-.074-.547c0-.203.024-.384.074-.544.05-.16.123-.295.218-.407a.97.97 0 01.341-.256c.133-.06.281-.09.446-.09.157 0 .301.03.43.09.13.06.24.143.33.25s.16.236.21.386c.05.15.075.317.075.498v.131h-1.834v.121c0 .13.018.248.055.356.037.108.09.201.16.278a.72.72 0 00.254.182c.1.043.213.065.34.065.36 0 .61-.166.75-.498l.202.134a.962.962 0 01-.365.438 1.076 1.076 0 01-.603.163zm-.004-2.357a.777.777 0 00-.325.065.734.734 0 00-.249.181.793.793 0 00-.16.279 1.092 1.092 0 00-.055.355v.024h1.534v-.038c0-.13-.018-.248-.054-.356a.708.708 0 00-.692-.51zM26.76 155.081l.92-1.248-.886-1.23h.324l.707 1.012h.014l.721-1.012h.31l-.88 1.21.904 1.268h-.324l-.73-1.045h-.01l-.76 1.045h-.31zM30.341 155.14c-.342 0-.606-.114-.791-.34-.185-.225-.278-.545-.278-.958 0-.413.093-.732.278-.958.185-.226.45-.339.791-.339.23 0 .415.05.556.15.143.1.25.233.325.397l-.233.116c-.058-.135-.139-.239-.244-.31s-.24-.106-.404-.106c-.252 0-.444.08-.576.242-.132.161-.198.373-.198.634v.348c0 .262.066.473.198.635.132.16.324.241.576.241a.788.788 0 00.431-.11.803.803 0 00.28-.32l.204.135a.977.977 0 01-.346.395c-.15.098-.34.147-.569.147zM32.175 155.081c-.1 0-.175-.027-.227-.082a.306.306 0 01-.077-.218v-3.28h.275v3.343h.382v.237h-.353zM34.697 154.69h-.02c-.022.057-.053.114-.092.169s-.087.102-.145.142a.784.784 0 01-.206.1.9.9 0 01-.278.038c-.264 0-.47-.081-.62-.244-.148-.163-.222-.396-.222-.7v-1.592h.276v1.54c0 .254.055.443.165.566.11.122.267.183.474.183.087 0 .17-.011.25-.033a.677.677 0 00.212-.102.49.49 0 00.206-.416v-1.738h.276v2.478h-.276v-.392zM36.575 155.14c-.217 0-.401-.041-.555-.122a1.165 1.165 0 01-.399-.353l.203-.16c.104.136.217.236.339.3a.915.915 0 00.43.097c.191 0 .338-.04.441-.12a.416.416 0 00.155-.35.413.413 0 00-.119-.312c-.079-.075-.208-.126-.389-.152l-.203-.034a1.622 1.622 0 01-.31-.073.754.754 0 01-.24-.13.569.569 0 01-.154-.2.67.67 0 01-.056-.289.63.63 0 01.242-.523.764.764 0 01.266-.13 1.22 1.22 0 01.334-.044c.207 0 .376.036.508.107.133.07.245.163.339.276l-.184.17a1.042 1.042 0 00-.259-.216.793.793 0 00-.419-.1c-.177 0-.315.04-.413.117s-.148.187-.148.329c0 .145.045.25.133.314a.952.952 0 00.4.14l.198.03c.251.038.438.113.559.225.12.11.181.267.181.467 0 .232-.078.412-.234.542-.157.129-.372.193-.646.193zM38.317 151.93c-.065 0-.112-.015-.143-.048a.172.172 0 01-.046-.125v-.049c0-.051.015-.094.046-.126.03-.032.078-.048.143-.048.064 0 .112.016.142.048.031.032.046.075.046.126v.049a.172.172 0 01-.046.125c-.03.033-.078.049-.142.049zm-.136.673h.276v2.478h-.276v-2.478zM39.009 152.603h.29l.76 2.183h.02l.754-2.183h.28l-.894 2.478h-.315l-.895-2.478zM42.546 155.14c-.164 0-.314-.03-.447-.088a.937.937 0 01-.344-.254 1.145 1.145 0 01-.218-.409 1.848 1.848 0 01-.075-.547c0-.203.025-.384.075-.544.05-.16.123-.295.218-.407a.97.97 0 01.341-.256c.132-.06.281-.09.446-.09.157 0 .301.03.43.09s.239.143.33.25.16.236.21.386c.05.15.075.317.075.498v.131h-1.834v.121c0 .13.018.248.055.356.037.108.09.201.16.278a.72.72 0 00.254.182c.1.043.213.065.339.065.361 0 .611-.166.75-.498l.203.134a.962.962 0 01-.365.438 1.076 1.076 0 01-.603.163zm-.004-2.357a.777.777 0 00-.325.065.734.734 0 00-.249.181.793.793 0 00-.16.279 1.092 1.092 0 00-.055.355v.024h1.534v-.038c0-.13-.018-.248-.054-.356a.708.708 0 00-.692-.51zM44.467 154.636c.08 0 .14.021.177.063a.232.232 0 01.056.16v.062c0 .136-.038.28-.114.433a1.25 1.25 0 01-.303.395h-.232a1.51 1.51 0 00.244-.32c.057-.103.095-.207.114-.314-.064-.006-.11-.028-.135-.065a.227.227 0 01-.039-.133v-.058c0-.065.019-.118.056-.16.037-.042.096-.063.176-.063zM47.57 155.14c-.165 0-.314-.03-.446-.088a.92.92 0 01-.339-.254 1.187 1.187 0 01-.217-.409 1.79 1.79 0 01-.078-.547c0-.203.026-.384.078-.544.051-.16.124-.295.217-.407a.945.945 0 01.339-.256c.132-.06.28-.09.445-.09s.313.03.446.09c.132.06.244.145.338.256.094.112.166.247.218.407.051.16.077.34.077.544 0 .204-.026.386-.077.547-.052.161-.124.298-.218.409s-.206.196-.338.254a1.09 1.09 0 01-.446.087zm0-.248c.241 0 .433-.076.573-.227.14-.152.21-.374.21-.668v-.31c0-.29-.07-.512-.21-.665-.14-.153-.332-.23-.574-.23-.242 0-.433.076-.573.228-.14.151-.21.374-.21.667v.31c0 .29.07.512.21.666.14.153.331.23.573.23zM49.35 155.081v-2.478h.276v.392h.014a.77.77 0 01.257-.322c.116-.085.274-.128.474-.128.265 0 .47.082.617.244.147.164.22.397.22.7v1.592h-.275v-1.544c0-.251-.055-.438-.162-.561-.109-.123-.266-.184-.473-.184a.936.936 0 00-.25.034.68.68 0 00-.217.102.497.497 0 00-.205.411v1.742h-.276zM52.96 155.14c-.164 0-.314-.03-.447-.088a.937.937 0 01-.344-.254 1.145 1.145 0 01-.218-.409 1.848 1.848 0 01-.075-.547c0-.203.025-.384.075-.544.05-.16.123-.295.218-.407a.97.97 0 01.341-.256c.132-.06.281-.09.446-.09.157 0 .301.03.43.09s.239.143.33.25.16.236.21.386c.05.15.075.317.075.498v.131h-1.834v.121c0 .13.018.248.055.356.037.108.09.201.16.278a.72.72 0 00.254.182c.1.043.213.065.339.065.361 0 .611-.166.75-.498l.203.134a.962.962 0 01-.365.438 1.076 1.076 0 01-.603.163zm-.004-2.357a.777.777 0 00-.325.065.734.734 0 00-.249.181.793.793 0 00-.16.279 1.092 1.092 0 00-.055.355v.024H53.7v-.038c0-.13-.018-.248-.054-.356a.708.708 0 00-.692-.51zM54.61 153.755v-.295h1.205v.295h-1.204zM58.225 154.684h-.014a.789.789 0 01-.283.332.839.839 0 01-.472.123c-.32 0-.57-.113-.75-.338-.181-.226-.271-.546-.271-.959 0-.413.09-.732.27-.958.182-.226.432-.339.751-.339.19 0 .348.041.474.124a.75.75 0 01.28.331h.015v-1.5h.276v3.581h-.276v-.397zm-.706.208a.942.942 0 00.273-.038.695.695 0 00.225-.114.552.552 0 00.153-.18.485.485 0 00.055-.234v-.982a.454.454 0 00-.055-.223.534.534 0 00-.153-.174c-.064-.048-.14-.086-.225-.114s-.176-.041-.273-.041c-.249 0-.442.08-.58.237-.14.158-.21.371-.21.639v.348c0 .268.07.481.21.64.138.157.331.236.58.236zM61.104 155.081c-.106 0-.184-.027-.232-.082a.365.365 0 01-.082-.223v-.087h-.024a.679.679 0 01-.271.33.875.875 0 01-.48.12c-.26 0-.462-.064-.604-.192-.142-.128-.213-.308-.213-.54 0-.221.078-.396.235-.525.156-.13.413-.195.771-.195h.572v-.29c0-.41-.212-.614-.634-.614a.753.753 0 00-.412.104.757.757 0 00-.266.297l-.174-.144a.861.861 0 01.312-.355c.14-.093.323-.14.549-.14.29 0 .513.073.668.219.155.145.232.349.232.61v1.47h.334v.237h-.28zm-1.05-.18c.1 0 .194-.012.281-.038a.78.78 0 00.23-.11.516.516 0 00.155-.17.458.458 0 00.056-.225v-.463h-.581c-.249 0-.429.04-.54.12a.38.38 0 00-.167.328v.116c0 .146.052.256.155.331.103.075.24.112.411.112zM63.432 152.603h.281l-1.147 3.175a.444.444 0 01-.14.213c-.055.039-.145.058-.271.058h-.281v-.237h.416l.237-.654-.92-2.555h.291l.76 2.187h.02l.754-2.187zM67.443 155.372c0 .251-.1.436-.302.556-.202.12-.498.179-.888.179-.377 0-.65-.055-.818-.165a.515.515 0 01-.251-.454c0-.142.037-.255.11-.339a.645.645 0 01.315-.184v-.039a.337.337 0 01-.232-.339c0-.122.04-.216.121-.28a.816.816 0 01.3-.145v-.02a.748.748 0 01-.339-.29.858.858 0 01-.12-.465c0-.125.02-.24.062-.343a.75.75 0 01.182-.267.825.825 0 01.285-.171c.112-.04.235-.06.37-.06.191 0 .357.04.5.12v-.12c0-.074.017-.133.052-.179.036-.045.094-.069.174-.069h.427v.238h-.504v.237a.757.757 0 01.194.268c.045.105.067.22.067.347a.87.87 0 01-.065.343.79.79 0 01-.47.443 1.08 1.08 0 01-.5.05 82.838 82.838 0 01-.126-.019.82.82 0 00-.264.119.236.236 0 00-.104.2c0 .149.133.223.397.223h.576c.3 0 .517.056.65.167.134.111.201.264.201.458zm-.265.019c0-.12-.043-.214-.129-.283s-.238-.104-.457-.104h-.803a.554.554 0 00-.252.16.395.395 0 00-.092.266c0 .128.053.236.16.321s.267.129.484.129h.31c.241 0 .432-.04.57-.119a.398.398 0 00.209-.37zm-.934-1.38c.19 0 .339-.047.447-.142a.51.51 0 00.162-.404v-.155a.505.505 0 00-.162-.4c-.108-.094-.257-.142-.448-.142-.193 0-.343.048-.45.143a.509.509 0 00-.16.399v.155c0 .174.055.309.163.404.108.095.257.143.447.143zM69.674 155.081c-.106 0-.183-.027-.232-.082a.364.364 0 01-.082-.223v-.087h-.024a.679.679 0 01-.271.33.875.875 0 01-.48.12c-.26 0-.462-.064-.604-.192-.142-.128-.213-.308-.213-.54 0-.221.078-.396.235-.525.156-.13.414-.195.771-.195h.572v-.29c0-.41-.212-.614-.634-.614a.753.753 0 00-.411.104.757.757 0 00-.267.297l-.174-.144a.861.861 0 01.312-.355c.14-.093.324-.14.55-.14.29 0 .512.073.667.219.155.145.233.349.233.61v1.47h.333v.237h-.28zm-1.05-.18c.1 0 .194-.012.281-.038a.78.78 0 00.23-.11c.066-.046.118-.103.155-.17s.056-.141.056-.225v-.463h-.581c-.248 0-.428.04-.54.12a.38.38 0 00-.167.328v.116c0 .146.052.256.155.331.103.075.24.112.411.112zM70.947 155.081c-.1 0-.176-.027-.227-.082s-.078-.13-.078-.223v-1.935h-.43v-.238h.28c.068 0 .114-.013.138-.04.024-.028.036-.077.036-.148v-.504h.252v.692h.562v.238h-.562v2.003h.523v.237h-.494zM72.143 151.5h.275v1.495h.015a.769.769 0 01.256-.322c.117-.085.275-.128.474-.128.265 0 .47.082.617.244.147.164.22.397.22.7v1.592h-.275v-1.544c0-.251-.054-.438-.162-.561-.108-.123-.266-.184-.472-.184a.936.936 0 00-.251.034.68.68 0 00-.216.102.497.497 0 00-.206.411v1.742h-.275v-3.58zM75.753 155.14c-.165 0-.314-.03-.448-.088a.937.937 0 01-.344-.254 1.145 1.145 0 01-.217-.409 1.848 1.848 0 01-.075-.547c0-.203.025-.384.075-.544.05-.16.122-.295.217-.407a.97.97 0 01.342-.256c.132-.06.28-.09.445-.09.158 0 .302.03.43.09.13.06.24.143.33.25.09.107.16.236.21.386.05.15.075.317.075.498v.131H74.96v.121c0 .13.019.248.056.356.037.108.09.201.16.278a.72.72 0 00.253.182c.1.043.214.065.34.065.36 0 .61-.166.75-.498l.203.134a.962.962 0 01-.366.438 1.076 1.076 0 01-.602.163zm-.005-2.357a.777.777 0 00-.324.065.734.734 0 00-.25.181.793.793 0 00-.16.279 1.092 1.092 0 00-.055.355v.024h1.534v-.038c0-.13-.018-.248-.053-.356a.708.708 0 00-.692-.51zM77.495 155.081v-2.478h.276v.446h.02a.77.77 0 01.246-.31c.116-.09.28-.136.493-.136h.165v.272h-.218a.883.883 0 00-.508.135.431.431 0 00-.198.377v1.694h-.276zM79.358 151.93c-.065 0-.112-.015-.143-.048a.172.172 0 01-.046-.125v-.049c0-.051.015-.094.046-.126.03-.032.078-.048.143-.048.064 0 .112.016.142.048.031.032.046.075.046.126v.049a.172.172 0 01-.046.125c-.03.033-.078.049-.142.049zm-.136.673h.276v2.478h-.276v-2.478zM80.398 155.081v-2.478h.276v.392h.014a.77.77 0 01.257-.322c.116-.085.274-.128.474-.128.265 0 .47.082.617.244.147.164.22.397.22.7v1.592h-.275v-1.544c0-.251-.055-.438-.162-.561-.109-.123-.266-.184-.473-.184a.936.936 0 00-.25.034.68.68 0 00-.217.102.497.497 0 00-.205.411v1.742h-.276zM85.155 155.372c0 .251-.1.436-.302.556-.202.12-.498.179-.888.179-.378 0-.65-.055-.818-.165a.515.515 0 01-.252-.454c0-.142.037-.255.112-.339a.645.645 0 01.314-.184v-.039a.337.337 0 01-.232-.339c0-.122.04-.216.12-.28a.816.816 0 01.301-.145v-.02a.748.748 0 01-.339-.29.858.858 0 01-.12-.465c0-.125.02-.24.062-.343a.749.749 0 01.181-.267.825.825 0 01.286-.171c.111-.04.235-.06.37-.06.19 0 .357.04.499.12v-.12c0-.074.017-.133.053-.179.035-.045.094-.069.174-.069h.426v.238H84.6v.237a.757.757 0 01.194.268c.045.105.067.22.067.347a.87.87 0 01-.065.343.79.79 0 01-.47.443 1.08 1.08 0 01-.5.05 82.857 82.857 0 01-.126-.019.82.82 0 00-.264.119.236.236 0 00-.104.2c0 .149.132.223.397.223h.576c.3 0 .516.056.65.167.134.111.201.264.201.458zm-.266.019c0-.12-.043-.214-.128-.283s-.238-.104-.457-.104H83.5a.554.554 0 00-.252.16.395.395 0 00-.092.266c0 .128.054.236.16.321s.268.129.484.129h.31c.242 0 .432-.04.571-.119a.398.398 0 00.208-.37zm-.934-1.38c.19 0 .34-.047.448-.142a.51.51 0 00.162-.404v-.155a.505.505 0 00-.162-.4c-.108-.094-.258-.142-.448-.142-.194 0-.344.048-.45.143a.509.509 0 00-.16.399v.155c0 .174.054.309.163.404.108.095.257.143.447.143zM86.941 152.84h-.426v-.237h.426v-.692c0-.126.031-.225.095-.3.062-.074.16-.11.292-.11h.436v.236h-.547v.866h.547v.238h-.547v2.24h-.276v-2.24zM89.2 155.14c-.164 0-.312-.03-.445-.088-.132-.058-.245-.143-.338-.254s-.166-.248-.218-.409a1.79 1.79 0 01-.077-.547c0-.203.025-.384.077-.544.052-.16.124-.295.218-.407a.945.945 0 01.338-.256c.133-.06.281-.09.446-.09.164 0 .313.03.445.09s.245.145.339.256c.093.112.166.247.217.407.052.16.078.34.078.544 0 .204-.026.386-.078.547-.051.161-.124.298-.217.409s-.207.196-.339.254a1.09 1.09 0 01-.445.087zm0-.248c.243 0 .434-.076.574-.227.14-.152.21-.374.21-.668v-.31c0-.29-.07-.512-.21-.665-.14-.153-.331-.23-.573-.23-.242 0-.434.076-.574.228-.14.151-.21.374-.21.667v.31c0 .29.07.512.21.666.14.153.332.23.574.23zM91.853 155.14c-.342 0-.606-.114-.792-.34-.185-.225-.278-.545-.278-.958 0-.413.093-.732.278-.958.186-.226.45-.339.792-.339.229 0 .414.05.556.15.142.1.25.233.324.397l-.232.116c-.058-.135-.14-.239-.244-.31s-.24-.106-.404-.106c-.252 0-.444.08-.576.242-.133.161-.199.373-.199.634v.348c0 .262.066.473.199.635.132.16.324.241.576.241a.788.788 0 00.43-.11.803.803 0 00.281-.32l.203.135a.977.977 0 01-.346.395c-.15.098-.34.147-.568.147zM94.93 154.69h-.019c-.023.057-.053.114-.092.169s-.087.102-.145.142a.784.784 0 01-.206.1.9.9 0 01-.278.038c-.265 0-.471-.081-.62-.244-.148-.163-.222-.396-.222-.7v-1.592h.276v1.54c0 .254.054.443.164.566.11.122.268.183.475.183.086 0 .17-.011.249-.033a.677.677 0 00.213-.102.49.49 0 00.205-.416v-1.738h.276v2.478h-.276v-.392zM96.808 155.14c-.216 0-.401-.041-.554-.122a1.165 1.165 0 01-.4-.353l.204-.16c.103.136.216.236.338.3a.915.915 0 00.431.097c.19 0 .337-.04.44-.12a.416.416 0 00.155-.35.413.413 0 00-.118-.312c-.08-.075-.21-.126-.39-.152l-.203-.034a1.622 1.622 0 01-.31-.073.754.754 0 01-.24-.13.569.569 0 01-.154-.2.67.67 0 01-.056-.289.63.63 0 01.242-.523.764.764 0 01.266-.13 1.22 1.22 0 01.334-.044c.207 0 .376.036.508.107.133.07.245.163.339.276l-.184.17a1.042 1.042 0 00-.259-.216.793.793 0 00-.418-.1c-.178 0-.316.04-.414.117a.394.394 0 00-.148.329c0 .145.045.25.133.314a.952.952 0 00.4.14l.198.03c.252.038.438.113.559.225.12.11.182.267.182.467 0 .232-.079.412-.235.542-.157.129-.372.193-.646.193zM99.3 155.14c-.165 0-.314-.03-.448-.088a.937.937 0 01-.343-.254 1.145 1.145 0 01-.218-.409 1.848 1.848 0 01-.075-.547c0-.203.025-.384.075-.544.05-.16.123-.295.218-.407a.97.97 0 01.34-.256c.133-.06.282-.09.446-.09.158 0 .302.03.43.09.13.06.24.143.33.25.09.107.16.236.21.386.05.15.076.317.076.498v.131h-1.834v.121c0 .13.018.248.055.356.037.108.09.201.16.278a.72.72 0 00.254.182c.1.043.213.065.339.065.361 0 .611-.166.75-.498l.203.134a.962.962 0 01-.366.438 1.076 1.076 0 01-.602.163zm-.005-2.357a.777.777 0 00-.324.065.734.734 0 00-.25.181.793.793 0 00-.16.279 1.092 1.092 0 00-.054.355v.024h1.533v-.038c0-.13-.017-.248-.053-.356a.708.708 0 00-.692-.51zM102.644 154.684h-.015a.789.789 0 01-.283.332.839.839 0 01-.472.123c-.319 0-.569-.113-.75-.338-.18-.226-.27-.546-.27-.959 0-.413.09-.732.27-.958.181-.226.431-.339.75-.339.19 0 .349.041.475.124a.75.75 0 01.28.331h.015v-1.5h.276v3.581h-.276v-.397zm-.707.208a.942.942 0 00.274-.038.695.695 0 00.225-.114.552.552 0 00.152-.18.485.485 0 00.056-.234v-.982a.454.454 0 00-.056-.223.534.534 0 00-.152-.174c-.065-.048-.14-.086-.225-.114s-.177-.041-.274-.041c-.248 0-.442.08-.58.237-.14.158-.209.371-.209.639v.348c0 .268.07.481.209.64.138.157.332.236.58.236zM105.842 155.14c-.164 0-.313-.03-.445-.088-.133-.058-.245-.143-.339-.254s-.166-.248-.218-.409a1.79 1.79 0 01-.077-.547c0-.203.026-.384.077-.544.052-.16.125-.295.218-.407a.945.945 0 01.339-.256c.132-.06.28-.09.445-.09.165 0 .313.03.445.09.133.06.245.145.339.256.094.112.166.247.218.407.051.16.077.34.077.544 0 .204-.026.386-.077.547-.052.161-.124.298-.218.409s-.206.196-.339.254a1.09 1.09 0 01-.445.087zm0-.248c.242 0 .433-.076.573-.227.14-.152.211-.374.211-.668v-.31c0-.29-.07-.512-.21-.665-.14-.153-.332-.23-.574-.23-.242 0-.433.076-.573.228-.14.151-.21.374-.21.667v.31c0 .29.07.512.21.666.14.153.331.23.573.23zM107.623 155.081v-2.478h.276v.392h.014a.77.77 0 01.257-.322c.116-.085.274-.128.474-.128.265 0 .47.082.617.244.147.164.22.397.22.7v1.592h-.276v-1.544c0-.251-.054-.438-.162-.561-.108-.123-.265-.184-.472-.184a.936.936 0 00-.251.034.68.68 0 00-.216.102.497.497 0 00-.205.411v1.742h-.276zM19.167 160.843h-.014a.789.789 0 01-.283.332.839.839 0 01-.472.123c-.32 0-.57-.113-.75-.338-.181-.226-.271-.546-.271-.959 0-.413.09-.732.27-.958.182-.225.432-.338.751-.338.19 0 .348.04.474.123a.75.75 0 01.28.331h.015v-1.5h.276v3.581h-.276v-.397zm-.706.209c.097 0 .188-.013.273-.04s.16-.063.226-.113a.552.552 0 00.152-.18.485.485 0 00.055-.234v-.982a.454.454 0 00-.055-.223.534.534 0 00-.152-.174c-.065-.048-.14-.086-.226-.114s-.176-.04-.273-.04c-.249 0-.442.078-.58.236-.14.158-.209.371-.209.64v.348c0 .267.07.48.208.638.139.159.332.238.58.238zM21.229 161.298c-.165 0-.314-.029-.448-.087a.937.937 0 01-.344-.254 1.145 1.145 0 01-.217-.409 1.848 1.848 0 01-.075-.547c0-.203.025-.384.075-.544.05-.16.123-.295.217-.407.096-.11.21-.196.342-.256s.28-.09.445-.09c.158 0 .302.03.43.09.13.06.24.143.33.25s.16.236.21.387c.05.15.075.316.075.497v.132h-1.834v.12c0 .13.019.248.056.356.037.108.09.201.16.278a.72.72 0 00.253.182c.1.044.214.065.34.065.36 0 .61-.166.75-.498l.203.134a.962.962 0 01-.366.438 1.076 1.076 0 01-.602.163zm-.005-2.356a.777.777 0 00-.324.065.734.734 0 00-.25.181.793.793 0 00-.16.279 1.091 1.091 0 00-.055.355v.024h1.534v-.038c0-.13-.018-.248-.053-.356a.709.709 0 00-.692-.51zM23.673 161.298c-.217 0-.401-.04-.555-.12a1.165 1.165 0 01-.399-.354l.203-.16c.104.136.217.236.339.3a.915.915 0 00.43.097c.191 0 .338-.04.441-.12a.416.416 0 00.155-.35.413.413 0 00-.119-.311c-.079-.076-.209-.127-.389-.153l-.203-.034a1.621 1.621 0 01-.31-.073.755.755 0 01-.24-.13.569.569 0 01-.154-.2.67.67 0 01-.056-.289.63.63 0 01.242-.523.765.765 0 01.266-.13 1.22 1.22 0 01.334-.043c.207 0 .376.035.508.106s.245.163.339.276l-.184.17a1.042 1.042 0 00-.259-.216.793.793 0 00-.419-.1c-.177 0-.315.04-.413.117a.394.394 0 00-.148.329c0 .145.044.25.133.314a.952.952 0 00.4.14l.198.03c.251.038.438.113.559.225.12.11.181.267.181.467 0 .232-.078.413-.234.542-.157.129-.372.193-.646.193zM25.415 158.09c-.065 0-.112-.016-.143-.049a.172.172 0 01-.046-.125v-.049c0-.051.015-.093.046-.126.03-.032.078-.048.143-.048s.112.016.142.048c.031.033.046.075.046.126v.049a.172.172 0 01-.046.125c-.03.033-.078.049-.142.049zm-.136.673h.276v2.477h-.276v-2.477zM28.487 161.53c0 .252-.1.438-.302.557-.202.12-.498.18-.888.18-.377 0-.65-.056-.818-.165a.515.515 0 01-.251-.455c0-.142.036-.255.11-.339s.18-.145.315-.184v-.039a.337.337 0 01-.232-.338c0-.123.04-.217.121-.281a.816.816 0 01.3-.145v-.02a.748.748 0 01-.339-.29.858.858 0 01-.12-.464c0-.126.02-.241.062-.344a.75.75 0 01.182-.266.825.825 0 01.285-.172c.112-.04.235-.06.37-.06.191 0 .357.04.499.12v-.12c0-.074.018-.133.053-.179.036-.045.094-.069.174-.069h.426v.238h-.503v.237a.757.757 0 01.194.268c.045.105.067.22.067.347a.87.87 0 01-.065.343.79.79 0 01-.47.443 1.08 1.08 0 01-.5.05l-.126-.019a.82.82 0 00-.264.119.236.236 0 00-.104.2c0 .149.132.223.397.223h.576c.3 0 .517.056.65.167.134.111.201.264.201.458zm-.266.02c0-.12-.043-.214-.128-.283s-.238-.104-.457-.104h-.804a.554.554 0 00-.251.16.395.395 0 00-.092.266c0 .128.053.236.16.321s.267.129.484.129h.309c.242 0 .433-.04.571-.119a.398.398 0 00.208-.37zm-.934-1.38c.19 0 .34-.047.448-.142a.51.51 0 00.162-.404v-.155a.505.505 0 00-.162-.4c-.108-.094-.257-.142-.448-.142-.193 0-.343.048-.45.143a.509.509 0 00-.16.399v.155c0 .174.054.309.163.404.108.095.257.143.447.143zM29.015 161.24v-2.477h.276v.391h.014a.77.77 0 01.257-.321c.116-.086.274-.128.474-.128.265 0 .47.08.617.244.147.163.22.396.22.699v1.592h-.275v-1.543c0-.252-.055-.44-.162-.562-.109-.122-.266-.184-.473-.184a.936.936 0 00-.25.034.68.68 0 00-.217.102.497.497 0 00-.205.411v1.742h-.276zM33.584 161.298c-.217 0-.401-.04-.555-.12a1.165 1.165 0 01-.399-.354l.203-.16c.103.136.216.236.339.3a.915.915 0 00.43.097c.191 0 .338-.04.441-.12a.416.416 0 00.155-.35.413.413 0 00-.119-.311c-.079-.076-.209-.127-.389-.153l-.203-.034a1.621 1.621 0 01-.31-.073.755.755 0 01-.24-.13.569.569 0 01-.154-.2.67.67 0 01-.056-.289.63.63 0 01.242-.523.765.765 0 01.266-.13 1.22 1.22 0 01.334-.043c.207 0 .376.035.508.106s.245.163.339.276l-.184.17a1.042 1.042 0 00-.259-.216.793.793 0 00-.419-.1c-.177 0-.315.04-.413.117s-.148.187-.148.329c0 .145.044.25.133.314a.952.952 0 00.4.14l.198.03c.251.038.438.113.559.225.12.11.181.267.181.467 0 .232-.078.413-.234.542-.157.129-.372.193-.646.193zM35.616 161.24c-.1 0-.176-.027-.228-.082s-.077-.13-.077-.223V159h-.43v-.237h.28c.068 0 .114-.014.138-.042s.036-.076.036-.147v-.504h.252v.693h.561V159h-.561v2.003h.523v.237h-.494zM36.811 161.24v-2.477h.276v.445h.02a.77.77 0 01.246-.31c.116-.09.28-.135.494-.135h.164v.27h-.218c-.206 0-.376.046-.508.136s-.198.216-.198.378v1.693h-.276zM40.242 161.24c-.106 0-.184-.027-.232-.082a.365.365 0 01-.083-.223v-.087h-.024a.679.679 0 01-.27.33.875.875 0 01-.48.12c-.261 0-.463-.064-.605-.191-.142-.128-.213-.309-.213-.542 0-.22.078-.395.235-.524.157-.13.414-.195.772-.195h.571v-.29c0-.41-.211-.614-.634-.614a.753.753 0 00-.411.104.757.757 0 00-.267.297l-.174-.144a.861.861 0 01.312-.355c.14-.093.324-.14.55-.14.29 0 .512.073.668.219.154.145.232.349.232.61v1.47h.334v.237h-.281zm-1.05-.179c.1 0 .194-.013.28-.039a.78.78 0 00.23-.11c.066-.046.118-.103.155-.17s.056-.141.056-.225v-.463h-.58c-.249 0-.429.04-.54.12a.38.38 0 00-.167.328v.116c0 .147.051.257.155.331.103.075.24.112.41.112zM41.515 161.24c-.1 0-.176-.027-.228-.082s-.077-.13-.077-.223V159h-.43v-.237h.28c.068 0 .114-.014.138-.042s.036-.076.036-.147v-.504h.252v.693h.561V159h-.561v2.003h.522v.237h-.493zM43.595 161.298c-.164 0-.314-.029-.447-.087a.937.937 0 01-.344-.254 1.145 1.145 0 01-.218-.409 1.848 1.848 0 01-.074-.547c0-.203.024-.384.074-.544.05-.16.123-.295.218-.407.095-.11.209-.196.341-.256s.281-.09.446-.09c.157 0 .301.03.43.09.13.06.24.143.33.25s.16.236.21.387c.05.15.075.316.075.497v.132h-1.834v.12c0 .13.018.248.055.356.037.108.09.201.16.278a.72.72 0 00.254.182c.1.044.213.065.34.065.36 0 .61-.166.75-.498l.202.134a.962.962 0 01-.365.438 1.076 1.076 0 01-.603.163zm-.004-2.356a.777.777 0 00-.325.065.734.734 0 00-.249.181.793.793 0 00-.16.279 1.091 1.091 0 00-.055.355v.024h1.534v-.038c0-.13-.018-.248-.054-.356a.709.709 0 00-.692-.51zM47.37 161.53c0 .252-.1.438-.303.557-.201.12-.497.18-.888.18-.377 0-.65-.056-.817-.165a.515.515 0 01-.252-.455c0-.142.037-.255.111-.339s.18-.145.315-.184v-.039a.337.337 0 01-.232-.338c0-.123.04-.217.12-.281a.816.816 0 01.3-.145v-.02a.748.748 0 01-.338-.29.858.858 0 01-.121-.464c0-.126.02-.241.063-.344a.75.75 0 01.181-.266.825.825 0 01.286-.172c.111-.04.234-.06.37-.06.19 0 .356.04.498.12v-.12c0-.074.018-.133.054-.179.035-.045.093-.069.174-.069h.426v.238h-.504v.237a.757.757 0 01.194.268c.045.105.068.22.068.347a.87.87 0 01-.066.343.79.79 0 01-.469.443 1.08 1.08 0 01-.5.05l-.127-.019a.82.82 0 00-.263.119.236.236 0 00-.104.2c0 .149.132.223.397.223h.575c.3 0 .517.056.651.167.134.111.2.264.2.458zm-.266.02c0-.12-.043-.214-.129-.283s-.237-.104-.457-.104h-.803a.554.554 0 00-.252.16.395.395 0 00-.092.266c0 .128.053.236.16.321.106.086.268.129.484.129h.31c.242 0 .432-.04.57-.119a.398.398 0 00.209-.37zm-.934-1.38c.19 0 .34-.047.447-.142a.51.51 0 00.162-.404v-.155a.505.505 0 00-.162-.4c-.108-.094-.257-.142-.447-.142-.194 0-.344.048-.45.143a.509.509 0 00-.16.399v.155c0 .174.054.309.162.404.108.095.257.143.448.143zM49.378 158.763h.281l-1.147 3.174a.444.444 0 01-.14.213c-.055.039-.145.058-.271.058h-.281v-.237h.416l.237-.654-.919-2.554h.29l.76 2.186h.02l.754-2.186zM50.394 160.795c.081 0 .14.021.177.063a.232.232 0 01.056.16v.062c0 .136-.038.28-.114.433a1.25 1.25 0 01-.303.395h-.232c.106-.11.188-.216.244-.32.057-.103.095-.207.114-.314-.064-.006-.11-.028-.135-.065s-.039-.082-.039-.133v-.058c0-.065.019-.118.056-.16.037-.042.096-.063.176-.063zM53.042 161.24c-.1 0-.177-.027-.228-.082s-.077-.13-.077-.223V159h-.43v-.237h.28c.068 0 .113-.014.138-.042s.036-.076.036-.147v-.504h.251v.693h.562V159h-.562v2.003h.523v.237h-.493zM54.237 161.24v-2.477h.276v.445h.019a.77.77 0 01.247-.31c.116-.09.28-.135.493-.135h.165v.27h-.218c-.207 0-.376.046-.508.136s-.198.216-.198.378v1.693h-.276zM56.85 161.298c-.165 0-.314-.029-.448-.087a.937.937 0 01-.344-.254 1.145 1.145 0 01-.217-.409 1.848 1.848 0 01-.075-.547c0-.203.025-.384.075-.544.05-.16.122-.295.217-.407.096-.11.21-.196.342-.256s.28-.09.445-.09c.158 0 .302.03.43.09.13.06.24.143.33.25s.16.236.21.387c.05.15.075.316.075.497v.132h-1.834v.12c0 .13.019.248.056.356.037.108.09.201.16.278a.72.72 0 00.253.182c.1.044.213.065.34.065.36 0 .61-.166.75-.498l.203.134a.962.962 0 01-.366.438 1.076 1.076 0 01-.602.163zm-.005-2.356a.777.777 0 00-.324.065.734.734 0 00-.25.181.793.793 0 00-.16.279 1.091 1.091 0 00-.055.355v.024h1.534v-.038c0-.13-.018-.248-.053-.356a.709.709 0 00-.692-.51zM58.592 161.24v-2.477h.276v.391h.014a.77.77 0 01.256-.321c.117-.086.275-.128.475-.128.264 0 .47.08.617.244.147.163.22.396.22.699v1.592h-.276v-1.543c0-.252-.054-.44-.162-.562-.108-.122-.265-.184-.472-.184a.936.936 0 00-.251.034.68.68 0 00-.216.102.497.497 0 00-.205.411v1.742h-.276zM62.918 160.843h-.015a.789.789 0 01-.283.332.839.839 0 01-.472.123c-.319 0-.569-.113-.75-.338-.18-.226-.27-.546-.27-.959 0-.413.09-.732.27-.958.181-.225.431-.338.75-.338.19 0 .349.04.475.123a.75.75 0 01.28.331h.015v-1.5h.276v3.581h-.276v-.397zm-.707.209c.097 0 .188-.013.274-.04s.16-.063.225-.113a.552.552 0 00.152-.18.485.485 0 00.056-.234v-.982a.454.454 0 00-.056-.223.534.534 0 00-.152-.174c-.065-.048-.14-.086-.225-.114s-.177-.04-.274-.04c-.248 0-.442.078-.58.236-.14.158-.209.371-.209.64v.348c0 .267.07.48.209.638.138.159.332.238.58.238zM64.795 161.298c-.216 0-.4-.04-.554-.12a1.165 1.165 0 01-.4-.354l.204-.16c.103.136.216.236.339.3a.915.915 0 00.43.097c.19 0 .337-.04.441-.12a.416.416 0 00.155-.35.413.413 0 00-.119-.311c-.079-.076-.209-.127-.39-.153l-.202-.034a1.621 1.621 0 01-.31-.073.755.755 0 01-.24-.13.569.569 0 01-.155-.2.67.67 0 01-.055-.289.63.63 0 01.242-.523.765.765 0 01.266-.13 1.22 1.22 0 01.334-.043c.206 0 .376.035.508.106s.245.163.338.276l-.183.17a1.042 1.042 0 00-.26-.216.793.793 0 00-.418-.1c-.177 0-.315.04-.414.117a.394.394 0 00-.147.329c0 .145.044.25.133.314a.952.952 0 00.4.14l.197.03c.252.038.439.113.56.225.12.11.181.267.181.467 0 .232-.078.413-.235.542-.156.129-.372.193-.646.193zM69.247 161.24c-.106 0-.184-.027-.232-.082a.364.364 0 01-.082-.223v-.087h-.025a.679.679 0 01-.27.33.875.875 0 01-.48.12c-.26 0-.463-.064-.605-.191-.141-.128-.213-.309-.213-.542 0-.22.079-.395.235-.524.157-.13.414-.195.772-.195h.571v-.29c0-.41-.211-.614-.634-.614a.753.753 0 00-.41.104.757.757 0 00-.267.297l-.175-.144a.861.861 0 01.313-.355c.14-.093.323-.14.549-.14.29 0 .513.073.668.219.154.145.232.349.232.61v1.47h.334v.237h-.281zm-1.05-.179c.1 0 .194-.013.281-.039a.78.78 0 00.23-.11.47.47 0 00.21-.396v-.462h-.58c-.249 0-.429.04-.54.12a.38.38 0 00-.167.328v.116c0 .147.051.257.155.331.103.075.24.112.411.112zM70.094 161.24v-2.477h.276v.391h.014a.77.77 0 01.257-.321c.116-.086.274-.128.474-.128.265 0 .47.08.617.244.147.163.22.396.22.699v1.592h-.275v-1.543c0-.252-.055-.44-.162-.562-.109-.122-.266-.184-.473-.184a.936.936 0 00-.25.034.68.68 0 00-.217.102.497.497 0 00-.205.411v1.742h-.276zM74.42 160.843h-.014a.789.789 0 01-.283.332.839.839 0 01-.472.123c-.32 0-.57-.113-.75-.338-.18-.226-.271-.546-.271-.959 0-.413.09-.732.27-.958.182-.225.432-.338.751-.338.19 0 .348.04.474.123a.75.75 0 01.28.331h.016v-1.5h.275v3.581h-.275v-.397zm-.706.209c.097 0 .188-.013.273-.04s.16-.063.226-.113a.552.552 0 00.152-.18.485.485 0 00.056-.234v-.982a.454.454 0 00-.056-.223.535.535 0 00-.152-.174c-.065-.048-.14-.086-.226-.114s-.176-.04-.273-.04c-.249 0-.442.078-.58.236-.14.158-.209.371-.209.64v.348c0 .267.07.48.208.638.139.159.332.238.58.238zM76.874 158.09c-.065 0-.112-.016-.143-.049a.172.172 0 01-.046-.125v-.049c0-.051.015-.093.046-.126.03-.032.078-.048.143-.048s.112.016.142.048c.031.033.046.075.046.126v.049a.172.172 0 01-.046.125c-.03.033-.078.049-.142.049zm-.136.673h.276v2.477h-.276v-2.477zM77.914 161.24v-2.477h.276v.391h.014a.77.77 0 01.257-.321c.116-.086.274-.128.474-.128.265 0 .47.08.617.244.147.163.22.396.22.699v1.592h-.275v-1.543c0-.252-.055-.44-.162-.562-.109-.122-.266-.184-.473-.184a.936.936 0 00-.25.034.68.68 0 00-.217.102.497.497 0 00-.205.411v1.742h-.276zM80.639 161.24v-2.477h.276v.391h.014a.77.77 0 01.256-.321c.117-.086.275-.128.475-.128.264 0 .47.08.617.244.147.163.22.396.22.699v1.592h-.276v-1.543c0-.252-.054-.44-.162-.562-.108-.122-.265-.184-.472-.184a.936.936 0 00-.251.034.68.68 0 00-.216.102.497.497 0 00-.205.411v1.742h-.276zM84.244 161.298c-.164 0-.313-.029-.445-.087a.92.92 0 01-.339-.254 1.187 1.187 0 01-.218-.409 1.79 1.79 0 01-.077-.547c0-.203.026-.384.077-.544.052-.16.125-.295.218-.407.094-.11.206-.196.339-.256s.28-.09.445-.09.313.03.445.09.245.145.339.256c.094.112.166.247.218.407.051.16.077.34.077.544 0 .204-.026.386-.077.547a1.187 1.187 0 01-.218.41.92.92 0 01-.339.253 1.09 1.09 0 01-.445.087zm0-.246c.242 0 .433-.076.573-.228.14-.152.21-.374.21-.668v-.31c0-.29-.07-.512-.21-.665-.14-.153-.33-.23-.573-.23-.242 0-.433.076-.573.228-.14.151-.21.374-.21.667v.31c0 .29.07.512.21.666.14.153.331.23.573.23zM85.677 158.763h.29l.76 2.182h.019l.755-2.182h.28l-.895 2.477h-.314l-.895-2.477zM90.032 161.24c-.106 0-.184-.027-.232-.082a.365.365 0 01-.083-.223v-.087h-.024a.679.679 0 01-.27.33.875.875 0 01-.48.12c-.261 0-.463-.064-.605-.191-.142-.128-.213-.309-.213-.542 0-.22.078-.395.235-.524.156-.13.414-.195.772-.195h.571v-.29c0-.41-.211-.614-.634-.614a.753.753 0 00-.411.104.757.757 0 00-.267.297l-.174-.144a.861.861 0 01.312-.355c.14-.093.324-.14.55-.14.29 0 .512.073.667.219.155.145.233.349.233.61v1.47h.334v.237h-.281zm-1.05-.179c.1 0 .194-.013.28-.039a.78.78 0 00.23-.11c.066-.046.118-.103.155-.17s.056-.141.056-.225v-.463h-.58c-.25 0-.43.04-.54.12a.38.38 0 00-.167.328v.116c0 .147.051.257.155.331.103.075.24.112.41.112zM91.305 161.24c-.1 0-.176-.027-.228-.082a.313.313 0 01-.077-.223V159h-.43v-.237h.28c.068 0 .114-.014.138-.042.024-.027.036-.076.036-.147v-.504h.252v.693h.561V159h-.561v2.003h.522v.237h-.493zM92.635 158.09c-.064 0-.112-.016-.142-.049a.172.172 0 01-.046-.125v-.049c0-.051.015-.093.046-.126.03-.032.078-.048.142-.048.065 0 .112.016.143.048.03.033.046.075.046.126v.049a.172.172 0 01-.046.125c-.03.033-.078.049-.143.049zm-.135.673h.276v2.477H92.5v-2.477zM94.557 161.298c-.165 0-.314-.029-.446-.087a.92.92 0 01-.339-.254 1.187 1.187 0 01-.217-.409 1.79 1.79 0 01-.078-.547c0-.203.026-.384.078-.544.051-.16.124-.295.217-.407.094-.11.207-.196.339-.256s.281-.09.446-.09c.164 0 .312.03.445.09s.245.145.338.256c.094.112.166.247.218.407.052.16.077.34.077.544 0 .204-.025.386-.077.547a1.187 1.187 0 01-.218.41.92.92 0 01-.338.253 1.09 1.09 0 01-.445.087zm0-.246c.241 0 .433-.076.573-.228.14-.152.21-.374.21-.668v-.31c0-.29-.07-.512-.21-.665-.14-.153-.332-.23-.573-.23-.243 0-.434.076-.574.228-.14.151-.21.374-.21.667v.31c0 .29.07.512.21.666.14.153.331.23.574.23zM96.337 161.24v-2.477h.276v.391h.014a.77.77 0 01.257-.321c.116-.086.274-.128.474-.128.265 0 .47.08.617.244.147.163.22.396.22.699v1.592h-.275v-1.543c0-.252-.054-.44-.162-.562-.109-.122-.266-.184-.472-.184a.936.936 0 00-.252.034.68.68 0 00-.215.102.497.497 0 00-.206.411v1.742h-.276zM99.24 161.284c-.08 0-.139-.02-.176-.06a.224.224 0 01-.055-.158v-.053c0-.065.018-.117.055-.157.037-.04.096-.06.177-.06.078 0 .136.02.174.06.039.04.058.092.058.157v.053c0 .065-.02.117-.058.157-.039.04-.097.06-.174.06z"/><g><path class="st1" d="M63.604 189.254h9.726v9.726h-9.726z"/><path class="st0" d="M64.6 194.738h1.388c.281 0 .501.079.661.237.16.158.24.37.24.634a.855.855 0 01-.053.32c-.036.086-.081.158-.136.215s-.115.098-.18.126-.124.045-.178.055v.03c.06.002.13.019.205.048a.66.66 0 01.216.138.788.788 0 01.242.597c0 .139-.022.268-.066.387a.951.951 0 01-.181.31.846.846 0 01-.276.205.806.806 0 01-.348.076H64.6v-3.378zm.406 1.461h.934c.161 0 .287-.04.377-.12.09-.081.136-.197.136-.35v-.164c0-.151-.045-.267-.136-.348a.546.546 0 00-.377-.121h-.934v1.103zm0 1.558h1.002c.174 0 .311-.044.411-.132.1-.09.15-.22.15-.39v-.165c0-.17-.05-.3-.15-.39a.6.6 0 00-.411-.132h-1.002v1.21zM69.889 198.116h-2.217v-.417l1.104-1.016c.158-.145.29-.3.397-.463a.898.898 0 00.16-.493v-.058a.663.663 0 00-.156-.456c-.103-.117-.26-.175-.47-.175a.774.774 0 00-.27.043.613.613 0 00-.2.121.686.686 0 00-.141.182c-.037.07-.067.144-.09.225l-.363-.14c.032-.1.077-.198.133-.293.057-.095.128-.18.213-.253.086-.073.19-.132.31-.176.121-.045.264-.067.428-.067.165 0 .312.024.44.072.13.049.238.117.325.203.087.088.154.19.201.31.046.12.07.251.07.396 0 .133-.018.255-.056.368-.037.113-.088.22-.152.321-.065.102-.143.201-.235.298a5.487 5.487 0 01-.298.29l-.91.82h1.777v.358z"/></g><g><path class="st1" d="M126.847 189.254h9.726v9.726h-9.726z"/><path class="st0" d="M127.842 194.738h1.389c.28 0 .5.079.66.237.16.158.24.37.24.634a.855.855 0 01-.053.32c-.036.086-.08.158-.136.215s-.114.098-.179.126a.816.816 0 01-.179.055v.03c.061.002.13.019.206.048a.66.66 0 01.215.138.788.788 0 01.242.597c0 .139-.022.268-.065.387a.951.951 0 01-.182.31.846.846 0 01-.276.205.806.806 0 01-.348.076h-1.534v-3.378zm.407 1.461h.934c.16 0 .287-.04.377-.12.09-.081.136-.197.136-.35v-.164c0-.151-.046-.267-.136-.348a.546.546 0 00-.377-.121h-.934v1.103zm0 1.558h1.001c.175 0 .312-.044.412-.132.1-.09.15-.22.15-.39v-.165c0-.17-.05-.3-.15-.39a.6.6 0 00-.412-.132h-1.001v1.21zM131.815 196.16c.229 0 .4-.052.516-.156a.52.52 0 00.171-.403v-.033c0-.177-.055-.31-.167-.397a.683.683 0 00-.438-.133.732.732 0 00-.426.114.882.882 0 00-.27.307l-.3-.233c.041-.067.092-.134.152-.2.06-.065.13-.124.21-.174.08-.051.174-.093.28-.124.107-.032.229-.048.364-.048.142 0 .276.018.402.055a.952.952 0 01.326.164.78.78 0 01.298.629.81.81 0 01-.05.293.734.734 0 01-.139.227.84.84 0 01-.205.164.99.99 0 01-.254.1v.02c.09.02.177.05.263.095s.162.1.228.17.12.154.16.253c.04.098.06.21.06.337 0 .146-.028.28-.082.401a.885.885 0 01-.233.311c-.1.086-.22.153-.363.202a1.452 1.452 0 01-.469.073 1.43 1.43 0 01-.387-.048 1.164 1.164 0 01-.53-.311 1.628 1.628 0 01-.177-.212l.305-.233c.042.068.088.13.138.184a.748.748 0 00.375.23c.077.021.168.032.27.032.24 0 .42-.055.543-.164.122-.109.184-.264.184-.465v-.04c0-.2-.062-.356-.184-.465-.122-.109-.303-.163-.542-.163h-.397v-.359h.368z"/></g><g><path class="st1" d="M126.847 146.293h9.726v9.726h-9.726z"/><path class="st0" d="M127.842 151.776h1.389c.28 0 .5.08.66.238s.24.369.24.633a.855.855 0 01-.053.32.666.666 0 01-.136.215.556.556 0 01-.179.126.816.816 0 01-.179.055v.03c.061.003.13.019.206.048a.66.66 0 01.215.138.788.788 0 01.242.598c0 .138-.022.267-.065.387a.951.951 0 01-.182.31.846.846 0 01-.276.205.806.806 0 01-.348.075h-1.534v-3.378zm.407 1.462h.934c.16 0 .287-.04.377-.121.09-.08.136-.197.136-.349v-.164c0-.152-.046-.268-.136-.349a.546.546 0 00-.377-.12h-.934v1.103zm0 1.558h1.001c.175 0 .312-.044.412-.133.1-.089.15-.219.15-.39v-.164c0-.171-.05-.3-.15-.39a.6.6 0 00-.412-.133h-1.001v1.21zM130.978 155.154v-.358h.944v-2.72h-.034l-.852.794-.237-.257.895-.837h.634v3.02h.87v.358h-2.22z"/></g><g><path class="st1" d="M147.12 10.807h46.678c18.421 0 29.33 11.089 29.33 30.762 0 16.275-7.69 24.859-18.063 27.9v.536c13.95 2.325 23.429 12.877 23.429 31.298 0 20.567-11.446 34.338-31.298 34.338h-50.077V10.807zm6.617 56.515h39.524c15.381 0 22.892-10.015 22.892-21.819V38.35c0-11.804-7.51-21.64-22.892-21.64h-39.524v50.612zm0 62.417h42.386c17.17 0 25.396-11.267 25.396-24.68v-7.154c0-13.414-8.227-24.86-25.396-24.86h-42.386v56.694z"/></g><g><path class="st1" d="M17.53 15.562h2.558c.226 0 .431.034.613.103.182.069.337.163.464.285.126.121.223.27.288.447.066.177.1.371.1.582 0 .211-.028.39-.084.535s-.13.265-.222.36a.908.908 0 01-.316.214 1.102 1.102 0 01-.368.079v.048a1.217 1.217 0 011.077.693c.079.16.118.36.118.597 0 .222-.035.43-.107.622-.071.193-.17.36-.297.503a1.386 1.386 0 01-.451.336 1.319 1.319 0 01-.57.123H17.53v-5.527zm1.045 2.304h1.29c.19 0 .339-.051.444-.154.106-.103.159-.247.159-.432v-.245c0-.185-.053-.329-.159-.432-.105-.103-.253-.154-.443-.154h-1.291v1.417zm0 2.336h1.457c.2 0 .356-.051.467-.154s.166-.252.166-.447v-.27c0-.195-.055-.346-.166-.451-.11-.106-.266-.158-.467-.158h-1.457v1.48zM23.73 21.09c-.349 0-.605-.088-.768-.262-.164-.174-.246-.42-.246-.737V15.23h1.014v5.044h.546v.816h-.546zM27.515 20.4h-.04a1.364 1.364 0 01-.146.297 1.044 1.044 0 01-.562.424c-.13.042-.279.063-.447.063-.428 0-.756-.14-.982-.42-.228-.28-.341-.678-.341-1.195v-2.614h1.014v2.51c0 .286.055.504.166.654.11.15.287.226.53.226.1 0 .2-.013.297-.04.098-.026.184-.067.258-.123s.134-.123.182-.206a.568.568 0 00.071-.289v-2.732h1.014v4.134h-1.014V20.4zM31.372 21.184c-.307 0-.58-.051-.82-.154a1.7 1.7 0 01-.61-.436 1.95 1.95 0 01-.384-.68 2.807 2.807 0 01-.134-.9c0-.327.043-.622.13-.887.088-.263.213-.489.376-.677a1.67 1.67 0 01.602-.435c.238-.103.507-.155.808-.155.322 0 .602.056.84.167s.432.26.585.451c.153.19.268.41.345.661s.115.519.115.804v.333h-2.748v.102c0 .299.084.538.253.72s.42.27.752.27c.254 0 .461-.052.622-.157a1.77 1.77 0 00.432-.4l.546.611c-.169.238-.4.425-.693.56a2.41 2.41 0 01-1.017.202zm-.016-3.563c-.27 0-.483.09-.642.269-.158.18-.237.412-.237.697v.063h1.695v-.071c0-.285-.07-.516-.21-.693-.14-.177-.342-.265-.606-.265zM34.12 16.955h1.013v.681h.032c.074-.237.214-.426.42-.566.205-.14.445-.21.72-.21.528 0 .93.186 1.208.559.277.372.416.904.416 1.596 0 .696-.14 1.232-.416 1.607-.277.375-.68.562-1.208.562-.275 0-.513-.071-.717-.214s-.344-.332-.423-.57h-.032v2.273h-1.014v-5.718zm1.86 3.39a.84.84 0 00.642-.262c.163-.174.245-.409.245-.705v-.712c0-.295-.082-.532-.245-.709a.833.833 0 00-.642-.265.98.98 0 00-.606.182.576.576 0 00-.241.483v1.314c0 .217.08.383.241.5.162.116.363.174.606.174zM38.87 21.09v-4.135h1.014v.856h.04c.026-.111.067-.218.123-.321a.984.984 0 01.217-.273c.09-.08.197-.143.32-.19a1.21 1.21 0 01.433-.072h.221v.959h-.316c-.344 0-.602.05-.776.15-.175.1-.262.264-.262.491v2.534h-1.013zM42.49 16.353c-.212 0-.363-.047-.456-.142a.502.502 0 01-.138-.364v-.159c0-.147.046-.269.138-.364s.244-.143.456-.143c.206 0 .356.048.45.143a.494.494 0 01.144.364v.159a.494.494 0 01-.143.364c-.095.095-.245.142-.451.142zm-.507.602h1.013v4.134h-1.013v-4.134zM44.168 21.09v-4.135h1.014v.69h.04c.084-.222.217-.408.4-.559.182-.15.434-.226.756-.226.427 0 .755.14.982.42s.34.679.34 1.196v2.613h-1.014v-2.51c0-.296-.052-.517-.158-.665-.105-.148-.28-.222-.523-.222-.105 0-.207.014-.304.044-.098.028-.185.07-.262.126s-.138.124-.186.206a.57.57 0 00-.071.29v2.731h-1.014zM50.115 21.09c-.348 0-.613-.092-.795-.273-.183-.182-.274-.441-.274-.779v-2.267h-.61v-.816h.317c.153 0 .258-.035.313-.107.056-.07.083-.177.083-.32v-.705h.91v1.132h.848v.816h-.847v2.502h.784v.816h-.729zM17.38 30.768v-.396h.807v-4.736h-.808v-.396h2.09v.396h-.807v4.736h.808v.396h-2.09zM20.753 25.24h2.161c.433 0 .772.123 1.018.368s.368.586.368 1.023c0 .19-.025.356-.075.498-.05.142-.115.261-.194.356a.996.996 0 01-.273.229 1.076 1.076 0 01-.305.119v.031c.127.016.253.054.38.116.127.06.24.145.34.253.1.109.182.244.246.405.063.161.095.35.095.567 0 .227-.033.436-.099.627-.066.19-.161.355-.285.495-.124.14-.272.25-.443.326a1.39 1.39 0 01-.574.115h-2.36V25.24zm.475 2.44h1.639c.3 0 .53-.08.689-.241a.845.845 0 00.237-.62v-.3a.846.846 0 00-.237-.618c-.159-.16-.388-.241-.69-.241h-1.638v2.02zm0 2.668h1.758c.332 0 .586-.091.76-.273.174-.182.261-.419.261-.71v-.292c0-.285-.087-.519-.261-.7-.174-.183-.428-.274-.76-.274h-1.758v2.249zM30.145 25.85h-.032l-1.909 3.381-1.908-3.381h-.032v4.918h-.459V25.24h.65l1.75 3.112h.023l1.75-3.112h.626v5.528h-.46V25.85zM34.04 25.24h2.162c.433 0 .772.123 1.018.368.245.245.368.586.368 1.023 0 .19-.025.356-.075.498-.05.142-.115.261-.194.356a.996.996 0 01-.273.229 1.076 1.076 0 01-.305.119v.031c.126.016.253.054.38.116.127.06.24.145.34.253.1.109.182.244.246.405.063.161.095.35.095.567 0 .227-.033.436-.099.627-.066.19-.161.355-.285.495-.124.14-.272.25-.444.326a1.39 1.39 0 01-.574.115h-2.36V25.24zm.476 2.44h1.639c.3 0 .53-.08.689-.241a.845.845 0 00.237-.62v-.3a.846.846 0 00-.237-.618c-.159-.16-.388-.241-.69-.241h-1.638v2.02zm0 2.668h1.758c.332 0 .586-.091.76-.273.174-.182.26-.419.26-.71v-.292c0-.285-.086-.519-.26-.7-.174-.183-.428-.274-.76-.274h-1.758v2.249zM41.579 30.126h-.032a1.288 1.288 0 01-.15.277.952.952 0 01-.238.234c-.095.066-.207.12-.337.162a1.46 1.46 0 01-.455.064c-.433 0-.77-.133-1.013-.4-.243-.267-.365-.648-.365-1.144v-2.606h.452v2.518c0 .418.09.726.269.927.18.2.438.3.776.3.143 0 .278-.018.408-.055.13-.036.245-.092.348-.166a.808.808 0 00.246-.281.831.831 0 00.09-.4v-2.843h.452v4.055h-.451v-.642zM44.651 30.863c-.354 0-.656-.066-.907-.198a1.911 1.911 0 01-.653-.578l.333-.262c.169.222.353.386.554.491s.436.159.705.159c.311 0 .551-.066.72-.198.17-.132.254-.322.254-.57 0-.217-.065-.387-.194-.511-.13-.124-.342-.207-.638-.25l-.332-.055a2.72 2.72 0 01-.507-.119 1.24 1.24 0 01-.392-.214.936.936 0 01-.254-.328 1.104 1.104 0 01-.09-.471c0-.19.035-.357.106-.5.072-.142.168-.26.29-.356.12-.095.266-.166.435-.214a2.02 2.02 0 01.547-.071c.337 0 .614.058.831.174.216.116.401.267.554.452l-.3.277a1.706 1.706 0 00-.424-.353c-.177-.107-.406-.162-.685-.162-.29 0-.516.064-.678.19s-.241.307-.241.539c0 .237.073.409.218.514.145.106.363.182.653.23l.325.047c.412.064.716.187.914.369s.297.437.297.764c0 .38-.128.676-.384.887-.256.211-.608.317-1.057.317zM47.502 25.613c-.106 0-.184-.027-.233-.08a.285.285 0 01-.076-.206v-.079c0-.084.025-.153.076-.206.05-.052.127-.079.233-.079s.183.027.234.08c.05.052.075.12.075.205v.08a.285.285 0 01-.075.205c-.05.053-.128.08-.234.08zm-.222 1.1h.452v4.055h-.452v-4.055zM49.204 30.768v-4.055h.452v.642h.024c.09-.212.23-.387.42-.527.19-.14.448-.21.775-.21.433 0 .77.134 1.01.4.24.267.36.648.36 1.145v2.605h-.451v-2.526c0-.412-.088-.718-.265-.919-.177-.2-.435-.301-.772-.301-.143 0-.28.019-.412.055-.132.038-.25.093-.353.167a.814.814 0 00-.245.281.814.814 0 00-.091.392v2.85h-.452zM55.112 30.863c-.27 0-.514-.048-.733-.143a1.53 1.53 0 01-.562-.416 1.858 1.858 0 01-.356-.669 3.025 3.025 0 01-.123-.895c0-.332.041-.629.123-.89.082-.262.2-.484.356-.666.156-.182.342-.322.558-.42.217-.097.46-.146.729-.146.259 0 .494.049.705.147.211.098.39.235.538.41.148.174.263.385.344.631.083.247.123.518.123.815v.214h-3.001v.198c0 .212.03.406.091.583.06.177.148.328.262.455.113.127.251.225.415.297.164.071.349.107.555.107.591 0 1-.272 1.227-.816l.333.22a1.571 1.571 0 01-.598.716c-.272.178-.6.268-.986.268zm-.008-3.857c-.195 0-.372.036-.53.107-.16.071-.295.17-.408.297a1.301 1.301 0 00-.262.455c-.06.177-.091.371-.091.582v.04h2.51v-.063c0-.211-.029-.405-.087-.582a1.157 1.157 0 00-1.133-.835zM59.11 30.863c-.353 0-.655-.066-.906-.198a1.911 1.911 0 01-.653-.578l.332-.262c.17.222.354.386.554.491s.436.159.705.159c.312 0 .552-.066.72-.198.17-.132.254-.322.254-.57 0-.217-.064-.387-.194-.511s-.342-.207-.637-.25l-.333-.055a2.721 2.721 0 01-.506-.119 1.24 1.24 0 01-.393-.214.936.936 0 01-.253-.328 1.104 1.104 0 01-.091-.471 1.032 1.032 0 01.396-.855c.121-.096.266-.167.436-.215a2.02 2.02 0 01.546-.071c.338 0 .615.058.831.174.217.116.402.267.555.452l-.301.277a1.706 1.706 0 00-.424-.353c-.177-.107-.405-.162-.685-.162-.29 0-.516.064-.677.19s-.242.307-.242.539c0 .237.073.409.218.514.145.106.363.182.654.23l.324.047c.412.064.717.187.915.369s.297.437.297.764c0 .38-.128.676-.384.887-.257.211-.609.317-1.057.317zM62.825 30.863c-.354 0-.656-.066-.907-.198a1.911 1.911 0 01-.653-.578l.332-.262c.17.222.354.386.555.491s.435.159.705.159c.31 0 .55-.066.72-.198.169-.132.254-.322.254-.57 0-.217-.065-.387-.195-.511-.129-.124-.342-.207-.637-.25l-.333-.055a2.721 2.721 0 01-.506-.119 1.24 1.24 0 01-.393-.214.936.936 0 01-.253-.328 1.104 1.104 0 01-.091-.471 1.032 1.032 0 01.396-.855c.121-.096.266-.167.436-.215a2.02 2.02 0 01.546-.071c.338 0 .615.058.831.174.217.116.402.267.555.452l-.301.277a1.706 1.706 0 00-.424-.353c-.177-.107-.405-.162-.685-.162-.29 0-.516.064-.677.19s-.241.307-.241.539c0 .237.072.409.217.514.146.106.363.182.654.23l.324.047c.412.064.717.187.915.369s.297.437.297.764c0 .38-.128.676-.384.887-.256.211-.609.317-1.057.317zM17.664 34.919h1.758c.713 0 1.264.23 1.652.689.387.46.581 1.15.581 2.075s-.194 1.615-.581 2.074-.939.69-1.652.69h-1.758v-5.528zm1.766 5.108c.544 0 .966-.176 1.267-.527.301-.351.452-.835.452-1.453v-.729c0-.618-.15-1.102-.452-1.453-.3-.35-.723-.526-1.267-.526h-1.29v4.688h1.29zM24.34 40.541c-.27 0-.514-.047-.733-.142s-.406-.234-.562-.416a1.859 1.859 0 01-.357-.67c-.081-.263-.122-.562-.122-.894s.04-.63.122-.89c.083-.262.201-.484.357-.666.156-.182.342-.322.558-.42.217-.097.46-.146.729-.146.258 0 .493.049.704.147.212.098.39.234.54.409.146.175.262.386.343.632.082.246.123.518.123.814v.215h-3.001v.198c0 .211.03.405.09.582.061.177.149.329.262.455.114.127.252.226.416.297.164.072.348.107.555.107.59 0 1-.272 1.227-.816l.333.22a1.571 1.571 0 01-.599.717c-.271.178-.6.267-.985.267zm-.008-3.856c-.196 0-.373.035-.53.107-.16.07-.295.17-.409.297a1.302 1.302 0 00-.261.455c-.06.177-.091.371-.091.582v.04h2.51v-.064c0-.21-.029-.405-.087-.582a1.157 1.157 0 00-1.132-.835zM28.339 40.541c-.354 0-.656-.066-.907-.198a1.911 1.911 0 01-.653-.578l.332-.261c.17.221.354.385.555.49s.435.16.705.16c.31 0 .55-.067.72-.199.169-.132.254-.322.254-.57 0-.216-.065-.387-.195-.51s-.342-.208-.637-.25l-.333-.056a2.721 2.721 0 01-.506-.118c-.154-.053-.284-.124-.392-.214s-.193-.2-.254-.329a1.104 1.104 0 01-.091-.47 1.032 1.032 0 01.396-.855c.121-.096.266-.167.436-.215a2.02 2.02 0 01.546-.071c.338 0 .615.058.832.174s.4.267.554.452l-.301.277a1.706 1.706 0 00-.424-.353c-.177-.108-.405-.162-.685-.162-.29 0-.516.063-.677.19-.161.127-.241.306-.241.538 0 .238.072.41.217.515.146.106.363.182.654.23l.324.047c.412.064.717.186.915.369s.297.437.297.763c0 .38-.128.676-.384.888-.256.21-.609.316-1.057.316zM31.19 35.291c-.106 0-.184-.026-.234-.08a.285.285 0 01-.075-.205v-.079c0-.085.025-.153.075-.206.05-.053.128-.08.233-.08s.184.027.234.08c.05.053.075.121.075.206v.079a.285.285 0 01-.075.206c-.05.053-.128.08-.234.08zm-.222 1.101h.451v4.054h-.451v-4.054zM36.218 40.921c0 .412-.165.716-.495.91-.33.196-.814.294-1.453.294-.618 0-1.064-.09-1.338-.27a.844.844 0 01-.412-.744c0-.232.06-.417.182-.554.121-.137.293-.237.515-.301v-.063c-.254-.1-.38-.285-.38-.554 0-.201.066-.354.198-.46s.295-.184.49-.237v-.032a1.223 1.223 0 01-.554-.475 1.405 1.405 0 01-.198-.76c0-.206.034-.394.103-.563.069-.168.168-.314.297-.435.13-.121.285-.215.467-.281s.385-.1.606-.1c.312 0 .584.067.816.199v-.198c0-.12.029-.217.087-.292.058-.074.153-.112.285-.112h.697v.388h-.824v.388c.137.122.243.268.317.44.074.171.11.36.11.566 0 .206-.035.393-.106.562a1.292 1.292 0 01-.768.725 1.764 1.764 0 01-.82.082l-.205-.03a1.33 1.33 0 00-.432.193.386.386 0 00-.17.329c0 .242.216.364.649.364h.942c.491 0 .846.09 1.066.273.218.182.328.431.328.748zm-.435.032c0-.195-.07-.35-.21-.463-.14-.114-.39-.17-.749-.17H33.51a.91.91 0 00-.412.26.643.643 0 00-.15.436.65.65 0 00.26.527c.175.14.439.21.793.21h.506c.397 0 .708-.065.935-.194.227-.13.34-.332.34-.606zm-1.53-2.257c.312 0 .557-.078.733-.233.177-.156.266-.377.266-.662v-.253c0-.28-.089-.497-.266-.653-.176-.156-.42-.234-.732-.234-.317 0-.562.078-.736.234-.174.156-.262.373-.262.653v.253c0 .285.089.506.266.662.176.155.42.233.732.233zM37.08 40.446v-4.054h.452v.641h.024c.09-.211.23-.386.42-.526.19-.14.448-.21.776-.21.433 0 .77.133 1.01.4.24.266.36.648.36 1.144v2.605h-.452V37.92c0-.412-.088-.718-.265-.918s-.434-.302-.772-.302c-.143 0-.28.02-.412.056-.132.037-.25.093-.352.167a.814.814 0 00-.246.28.814.814 0 00-.09.392v2.851h-.452zM43.456 40.446V34.92h3.16v.42H43.93v2.09h2.502v.42H43.93v2.597h-.475zM49.022 40.541c-.27 0-.512-.047-.728-.142a1.503 1.503 0 01-.555-.416 1.942 1.942 0 01-.356-.67c-.084-.263-.127-.562-.127-.894s.043-.63.127-.89c.084-.262.203-.484.356-.666.153-.182.338-.322.555-.42.216-.097.459-.146.728-.146.27 0 .512.049.729.146.216.098.4.238.554.42.153.182.272.404.356.665.085.262.127.558.127.89s-.042.632-.127.896a1.94 1.94 0 01-.356.669 1.51 1.51 0 01-.554.416c-.217.095-.46.142-.729.142zm0-.404c.396 0 .709-.124.939-.372.23-.248.344-.612.344-1.093v-.507c0-.475-.115-.837-.344-1.088-.23-.251-.543-.377-.939-.377-.396 0-.709.125-.938.373-.23.248-.345.612-.345 1.092v.507c0 .476.115.839.345 1.09.23.25.542.375.938.375zM51.936 40.446v-4.054h.452v.728h.032c.079-.19.213-.359.404-.506.19-.148.459-.222.807-.222h.27v.443h-.357c-.338 0-.615.074-.831.222a.707.707 0 00-.325.618v2.771h-.452zM57.297 39.805h-.031a1.288 1.288 0 01-.15.277.952.952 0 01-.238.234c-.095.065-.208.12-.337.162a1.46 1.46 0 01-.455.063c-.433 0-.771-.133-1.014-.4-.243-.266-.364-.648-.364-1.144v-2.605h.451v2.518c0 .417.09.726.27.926.179.201.438.301.776.301.142 0 .278-.018.407-.055s.246-.092.349-.166a.808.808 0 00.245-.282.831.831 0 00.091-.4v-2.842h.452v4.054h-.452v-.641zM59.222 40.446v-4.054h.451v.641h.024c.042-.1.095-.194.158-.281a1.052 1.052 0 01.55-.396c.124-.04.27-.06.44-.06.29 0 .547.07.768.207.222.137.383.353.483.649h.024c.074-.238.215-.44.423-.606.21-.166.493-.25.852-.25.433 0 .765.134.997.4.233.267.349.649.349 1.145v2.605h-.451V37.92c0-.813-.34-1.22-1.022-1.22-.142 0-.277.02-.404.056a.995.995 0 00-.336.17.843.843 0 00-.234.285.847.847 0 00-.087.393v2.842h-.452V37.92c0-.813-.337-1.22-1.013-1.22-.138 0-.27.02-.4.056-.13.037-.244.093-.344.167a.789.789 0 00-.238.28.844.844 0 00-.087.392v2.851h-.451z"/></g><path class="st2" d="M11.846 189.254v-42.961h124.726v45.305"/><path class="st2" d="M11.846 189.254h124.727v43.117H11.846z"/><path class="st2" d="M136.572 232.195v44.093h-31.62v-43.917"/><g><path class="st2" d="M40.323 135.641H12.066v-28.257M108.315 11.135h28.257v28.257M136.572 11.135L12.066 135.641"/></g><path class="st2" d="M73.345 189.254v43.117"/><g><path class="st1" d="M17.55 198.126v-.256h.988v-2.909h-.025l-.928.828-.165-.184.963-.856h.445v3.12h.93v.257H17.55zM20.454 198.126v-.256h.987v-2.909h-.024l-.93.828-.164-.184.963-.856h.445v3.12h.93v.257h-2.207zM23.55 198.17c-.08 0-.139-.02-.176-.06a.224.224 0 01-.055-.158v-.053c0-.065.018-.117.055-.157.037-.04.096-.06.177-.06.077 0 .135.02.174.06.039.04.058.092.058.157v.053c0 .065-.02.117-.058.158-.039.04-.097.06-.174.06zM25.632 198.184c-.761 0-1.142-.582-1.142-1.746 0-1.165.38-1.747 1.142-1.747s1.142.582 1.142 1.747c0 1.164-.38 1.746-1.142 1.746zm0-.256c.284 0 .494-.113.631-.338.137-.225.206-.533.206-.926v-.453c0-.393-.069-.701-.206-.926-.137-.225-.347-.338-.631-.338-.287 0-.499.113-.634.338-.136.225-.203.533-.203.926v.453c0 .393.067.701.203.926.135.225.347.338.634.338zM28.535 198.184c-.184 0-.346-.024-.488-.072a1.08 1.08 0 01-.361-.199.806.806 0 01-.223-.302.976.976 0 01-.074-.385c0-.235.064-.425.193-.569a.955.955 0 01.518-.287v-.034a.817.817 0 01-.438-.286.808.808 0 01-.162-.513c0-.258.09-.464.273-.616.182-.154.437-.23.762-.23.326 0 .58.076.762.23a.765.765 0 01.274.616.808.808 0 01-.162.513.815.815 0 01-.438.286v.034a.955.955 0 01.518.287c.128.144.193.334.193.57a.968.968 0 01-.075.384.802.802 0 01-.222.302c-.099.084-.22.15-.36.199a1.51 1.51 0 01-.49.072zm0-.256c.261 0 .466-.06.615-.181a.597.597 0 00.223-.49v-.11a.597.597 0 00-.223-.493c-.149-.119-.354-.178-.615-.178s-.466.06-.614.178a.595.595 0 00-.223.492v.112c0 .205.074.369.223.489.148.12.353.18.614.18zm0-1.698c.233 0 .413-.053.542-.157a.536.536 0 00.194-.441v-.087a.537.537 0 00-.194-.439c-.129-.106-.31-.159-.542-.159-.232 0-.413.053-.542.16a.536.536 0 00-.193.438v.087c0 .189.064.336.193.44.13.105.31.158.542.158zM31.303 196.781v-.256h3.426v.256h-3.426zM17.55 204.31v-.257h.988v-2.909h-.025l-.928.828-.165-.184.963-.856h.445v3.121h.93v.257H17.55zM20.454 204.31v-.257h.987v-2.909h-.024l-.93.828-.164-.184.963-.856h.445v3.121h.93v.257h-2.207zM23.55 204.353c-.08 0-.139-.02-.176-.06a.224.224 0 01-.055-.158v-.053c0-.065.018-.117.055-.157.037-.04.096-.06.177-.06.077 0 .135.02.174.06.039.04.058.092.058.157v.053c0 .065-.02.117-.058.158-.039.04-.097.06-.174.06zM25.632 204.368c-.761 0-1.142-.583-1.142-1.747s.38-1.747 1.142-1.747 1.142.582 1.142 1.747-.38 1.747-1.142 1.747zm0-.257c.284 0 .494-.113.631-.338s.206-.533.206-.926v-.453c0-.392-.069-.7-.206-.926s-.347-.338-.631-.338c-.287 0-.499.113-.634.338-.136.225-.203.534-.203.926v.453c0 .393.067.701.203.926.135.225.347.338.634.338zM29.624 202.112c0 .262-.036.505-.109.729a2.683 2.683 0 01-.283.612c-.116.184-.25.348-.399.491s-.303.265-.458.366h-.377c.187-.13.353-.259.499-.388s.271-.265.38-.409c.108-.143.198-.296.27-.46s.13-.344.172-.544l-.019-.004a.994.994 0 01-.332.36.922.922 0 01-.51.133c-.149 0-.285-.024-.41-.073a.912.912 0 01-.318-.205.907.907 0 01-.206-.324 1.194 1.194 0 01-.073-.429c0-.164.026-.313.078-.447a.99.99 0 01.217-.344.98.98 0 01.342-.223 1.21 1.21 0 01.447-.08c.178 0 .334.03.47.09.135.06.249.144.34.252.093.108.162.238.209.392.047.153.07.322.07.505zm-1.084.64c.249 0 .441-.07.579-.208.137-.139.205-.325.205-.56v-.077c0-.238-.07-.427-.208-.567-.139-.14-.33-.21-.576-.21-.248 0-.442.07-.58.21-.14.14-.209.327-.209.562v.082c0 .235.069.421.206.56s.332.207.583.207zM30.616 204.353c-.08 0-.14-.02-.177-.06a.224.224 0 01-.055-.158v-.053c0-.065.018-.117.055-.157.037-.04.097-.06.177-.06.078 0 .136.02.174.06.039.04.058.092.058.157v.053c0 .065-.019.117-.058.158-.038.04-.096.06-.174.06zM31.68 204.31v-.257h.988v-2.909h-.024l-.93.828-.164-.184.963-.856h.445v3.121h.93v.257H31.68zM35.6 204.368c-.184 0-.346-.025-.488-.073a1.08 1.08 0 01-.361-.199.806.806 0 01-.223-.302.976.976 0 01-.074-.385c0-.235.064-.424.193-.568a.955.955 0 01.518-.288v-.034a.817.817 0 01-.438-.285.808.808 0 01-.162-.513c0-.259.091-.464.273-.617.182-.154.437-.23.762-.23.326 0 .58.076.763.23a.765.765 0 01.273.617.809.809 0 01-.162.513.815.815 0 01-.438.285v.034a.955.955 0 01.518.288c.129.144.193.333.193.568a.968.968 0 01-.075.385.801.801 0 01-.222.302c-.099.085-.219.15-.36.199a1.51 1.51 0 01-.49.073zm0-.257c.262 0 .467-.06.615-.18a.597.597 0 00.223-.49v-.111a.597.597 0 00-.223-.492c-.148-.12-.353-.179-.615-.179s-.466.06-.614.179a.595.595 0 00-.223.492v.11c0 .207.074.37.223.49.148.12.353.181.614.181zm0-1.698c.233 0 .413-.053.543-.157a.536.536 0 00.193-.441v-.087a.537.537 0 00-.193-.439c-.13-.106-.31-.159-.543-.159-.232 0-.412.053-.541.16a.536.536 0 00-.194.438v.087c0 .19.064.337.194.44.129.105.31.158.541.158z"/></g><g><path class="st1" d="M79.509 198.126v-3.377h1.974v.256H79.8v1.277h1.602v.257h-1.602v1.33h1.684v.257H79.51zM83.96 198.126c-.106 0-.184-.027-.232-.082a.365.365 0 01-.082-.223v-.086h-.024a.679.679 0 01-.271.329.875.875 0 01-.48.12c-.26 0-.462-.064-.604-.191-.142-.128-.213-.309-.213-.542 0-.22.078-.395.235-.524.156-.13.413-.194.771-.194h.572v-.29c0-.41-.212-.615-.634-.615a.753.753 0 00-.412.104.757.757 0 00-.266.298l-.174-.145c.067-.144.171-.262.312-.355s.323-.14.549-.14c.29 0 .513.073.668.219.155.145.232.349.232.61v1.47h.334v.237h-.28zm-1.05-.179c.1 0 .194-.013.281-.038a.78.78 0 00.23-.11c.066-.047.118-.104.155-.17s.056-.142.056-.226v-.462h-.581c-.249 0-.429.04-.54.119a.38.38 0 00-.167.328v.117c0 .146.052.256.155.33.103.075.24.112.411.112zM84.808 198.126v-2.477h.275v.392h.015a.867.867 0 01.097-.172.643.643 0 01.336-.242.889.889 0 01.269-.036.87.87 0 01.469.126.713.713 0 01.295.396h.014a.753.753 0 01.26-.37c.127-.102.3-.152.52-.152.264 0 .467.08.61.244.141.163.212.396.212.7v1.591h-.275v-1.543c0-.497-.209-.746-.625-.746a.886.886 0 00-.247.034c-.077.023-.146.057-.205.104s-.107.105-.143.175a.515.515 0 00-.053.239v1.737h-.276v-1.543c0-.497-.207-.746-.62-.746a.896.896 0 00-.244.034.652.652 0 00-.21.102.483.483 0 00-.199.411v1.742h-.275zM89.932 198.184c-.164 0-.314-.028-.448-.087a.937.937 0 01-.343-.254 1.145 1.145 0 01-.218-.409 1.848 1.848 0 01-.075-.547c0-.203.025-.384.075-.544.05-.16.123-.295.218-.406.095-.112.209-.197.34-.257s.282-.09.446-.09c.158 0 .302.03.43.09.13.06.24.144.33.25.09.108.16.236.21.387.05.15.076.316.076.497v.132h-1.834v.12c0 .13.018.248.055.356.037.108.09.201.16.279a.72.72 0 00.254.18c.1.045.213.066.339.066.361 0 .611-.166.75-.498l.203.134a.962.962 0 01-.366.438 1.077 1.077 0 01-.602.163zm-.005-2.356a.777.777 0 00-.324.065.734.734 0 00-.25.181.793.793 0 00-.159.279 1.092 1.092 0 00-.055.356v.024h1.533v-.039c0-.129-.017-.247-.053-.356a.709.709 0 00-.692-.51zM92.376 198.184c-.216 0-.401-.04-.554-.12a1.165 1.165 0 01-.4-.354l.204-.16c.103.136.216.236.338.3a.915.915 0 00.431.097c.19 0 .337-.04.44-.12a.416.416 0 00.155-.349.413.413 0 00-.118-.312c-.08-.076-.21-.127-.39-.153l-.203-.034a1.622 1.622 0 01-.31-.072.755.755 0 01-.24-.131.569.569 0 01-.154-.2.67.67 0 01-.056-.288.63.63 0 01.242-.523.765.765 0 01.266-.13 1.22 1.22 0 01.334-.044c.207 0 .376.035.508.106.133.071.245.163.339.276l-.184.17a1.042 1.042 0 00-.259-.216.793.793 0 00-.418-.1c-.178 0-.316.04-.414.117s-.148.187-.148.329c0 .145.045.25.133.314a.952.952 0 00.4.14l.198.03c.252.038.438.114.559.225.12.111.182.267.182.467 0 .232-.079.413-.235.542-.157.129-.372.193-.646.193zM95.444 198.126h-.29v-3.377h1.325c.29 0 .514.082.67.246.157.165.235.396.235.692 0 .262-.064.473-.19.635-.128.16-.313.257-.555.29l.833 1.514h-.325l-.808-1.495h-.895v1.495zm1.035-1.742c.194 0 .342-.054.443-.162a.58.58 0 00.153-.413v-.233c0-.164-.051-.3-.153-.409-.101-.108-.25-.162-.443-.162h-1.035v1.38h1.035zM99.905 198.126c-.106 0-.184-.027-.232-.082a.365.365 0 01-.082-.223v-.086h-.024a.679.679 0 01-.271.329.875.875 0 01-.48.12c-.26 0-.462-.064-.604-.191-.142-.128-.213-.309-.213-.542 0-.22.078-.395.235-.524.156-.13.413-.194.771-.194h.572v-.29c0-.41-.212-.615-.634-.615a.753.753 0 00-.412.104.757.757 0 00-.266.298l-.174-.145c.068-.144.171-.262.312-.355s.323-.14.549-.14c.29 0 .513.073.668.219.155.145.233.349.233.61v1.47h.333v.237h-.28zm-1.05-.179c.1 0 .194-.013.281-.038a.78.78 0 00.23-.11c.066-.047.118-.104.155-.17s.056-.142.056-.226v-.462h-.581c-.248 0-.428.04-.54.119a.38.38 0 00-.167.328v.117c0 .146.052.256.155.33.103.075.24.112.411.112zM100.753 198.126v-2.477h.275v.392h.015a.77.77 0 01.256-.322c.116-.086.275-.128.474-.128.265 0 .47.08.617.244.147.163.22.396.22.7v1.591h-.275v-1.543c0-.252-.054-.439-.162-.562-.108-.122-.266-.184-.472-.184a.936.936 0 00-.252.034.68.68 0 00-.215.102.497.497 0 00-.15.172.504.504 0 00-.056.24v1.741h-.275zM104.348 198.184c-.342 0-.606-.113-.791-.338-.185-.226-.278-.545-.278-.959 0-.413.093-.732.278-.958.185-.225.45-.338.791-.338.23 0 .415.05.556.15.143.1.25.232.325.396l-.233.117a.687.687 0 00-.244-.31.708.708 0 00-.404-.107c-.252 0-.444.081-.576.242-.132.162-.198.373-.198.634v.349c0 .261.066.472.198.634.132.161.324.242.576.242a.788.788 0 00.431-.112.802.802 0 00.28-.32l.204.137a.977.977 0 01-.346.394c-.15.098-.34.147-.569.147zM105.878 194.545h.275v1.496h.015a.77.77 0 01.256-.322c.116-.086.275-.128.474-.128.265 0 .47.08.617.244.147.163.22.396.22.7v1.591h-.275v-1.543c0-.252-.054-.439-.162-.562-.108-.122-.266-.184-.472-.184a.936.936 0 00-.252.034.68.68 0 00-.215.102.497.497 0 00-.206.411v1.742h-.275v-3.58zM80.404 204.368c-.278 0-.51-.053-.694-.158a1.556 1.556 0 01-.477-.418l.218-.18c.119.159.253.281.404.368.15.088.336.131.559.131.261 0 .462-.062.602-.186s.21-.298.21-.52c0-.207-.06-.359-.179-.455s-.287-.168-.503-.213l-.3-.063c-.323-.065-.556-.173-.702-.324a.805.805 0 01-.217-.581c0-.149.025-.278.077-.39a.744.744 0 01.22-.278c.095-.074.21-.13.344-.17a1.59 1.59 0 01.443-.057c.251 0 .464.045.638.135.175.09.318.218.431.382l-.217.16c-.094-.135-.211-.24-.351-.312s-.312-.109-.516-.109c-.242 0-.433.053-.573.158-.14.104-.21.262-.21.471 0 .2.062.347.188.44.126.094.293.162.503.204l.3.063c.336.074.571.189.707.343a.85.85 0 01.203.581c0 .31-.098.55-.295.721s-.468.257-.813.257zM83.11 204.368c-.165 0-.314-.03-.446-.088-.133-.058-.245-.142-.339-.254s-.166-.247-.218-.409a1.791 1.791 0 01-.077-.547c0-.203.026-.384.077-.544.052-.16.125-.295.218-.406a.945.945 0 01.339-.257c.132-.06.28-.09.445-.09.165 0 .313.03.445.09.133.06.245.145.339.257.094.111.166.247.218.406.051.16.077.341.077.544 0 .204-.026.386-.077.547-.052.162-.124.298-.218.41s-.206.195-.339.253a1.09 1.09 0 01-.445.088zm0-.247c.241 0 .432-.076.572-.228.14-.151.21-.374.21-.667v-.31c0-.29-.07-.512-.21-.666-.14-.153-.33-.23-.573-.23-.242 0-.433.077-.573.228-.14.152-.21.374-.21.668v.31c0 .29.07.512.21.665.14.153.33.23.573.23zM84.89 204.31v-2.478h.276v.392h.014a.77.77 0 01.257-.322c.116-.086.274-.128.474-.128.264 0 .47.081.617.244.147.163.22.396.22.7v1.592h-.276v-1.544c0-.252-.054-.439-.162-.562-.108-.122-.265-.184-.472-.184a.936.936 0 00-.251.034.68.68 0 00-.216.102.497.497 0 00-.205.411v1.743h-.276zM88.495 204.368c-.164 0-.313-.03-.445-.088-.132-.058-.245-.142-.339-.254s-.166-.247-.217-.409a1.791 1.791 0 01-.078-.547c0-.203.026-.384.078-.544.051-.16.124-.295.217-.406a.945.945 0 01.339-.257c.132-.06.28-.09.445-.09.165 0 .313.03.446.09.132.06.244.145.338.257.094.111.166.247.218.406.051.16.077.341.077.544 0 .204-.026.386-.077.547-.052.162-.124.298-.218.41s-.206.195-.338.253a1.09 1.09 0 01-.446.088zm0-.247c.242 0 .433-.076.574-.228.14-.151.21-.374.21-.667v-.31c0-.29-.07-.512-.21-.666-.14-.153-.332-.23-.574-.23-.242 0-.433.077-.573.228-.14.152-.21.374-.21.668v.31c0 .29.07.512.21.665.14.153.331.23.573.23zM90.276 204.31v-2.478h.276v.392h.014a.867.867 0 01.097-.172.644.644 0 01.336-.242.889.889 0 01.27-.036.87.87 0 01.468.126.712.712 0 01.296.396h.014a.753.753 0 01.26-.37c.126-.101.3-.152.52-.152.264 0 .467.081.61.244.14.163.212.396.212.7v1.592h-.276v-1.544c0-.497-.208-.746-.624-.746a.886.886 0 00-.247.034.608.608 0 00-.206.104.518.518 0 00-.196.414v1.738h-.275v-1.544c0-.497-.207-.746-.62-.746a.896.896 0 00-.244.034.652.652 0 00-.21.102.483.483 0 00-.199.411v1.743h-.276zM96.218 204.31c-.106 0-.184-.028-.232-.083a.365.365 0 01-.082-.223v-.086h-.024a.679.679 0 01-.271.329.875.875 0 01-.48.12c-.26 0-.462-.064-.604-.191-.142-.128-.213-.309-.213-.541 0-.22.078-.396.235-.525.156-.13.413-.194.771-.194h.572v-.29c0-.41-.212-.615-.634-.615a.753.753 0 00-.412.104.757.757 0 00-.266.298l-.174-.145a.861.861 0 01.312-.355c.14-.093.323-.14.549-.14.29 0 .513.073.668.22.155.144.232.348.232.61v1.47h.334v.237h-.28zm-1.05-.18c.1 0 .194-.013.281-.038a.78.78 0 00.23-.11.516.516 0 00.155-.17.458.458 0 00.056-.226v-.462h-.581c-.248 0-.429.04-.54.12a.38.38 0 00-.167.327v.117c0 .146.052.256.155.33.103.075.24.112.411.112zM97.244 203.864c.081 0 .14.021.177.063a.232.232 0 01.056.16v.063c0 .135-.038.28-.114.433a1.25 1.25 0 01-.303.394h-.232a1.51 1.51 0 00.244-.32c.057-.102.095-.207.114-.314-.064-.006-.11-.028-.135-.065a.228.228 0 01-.039-.133v-.058c0-.064.019-.118.056-.16.037-.042.096-.063.176-.063zM100.637 204.368c-.42 0-.744-.147-.973-.438-.23-.292-.343-.725-.343-1.3 0-.57.114-1.007.343-1.306.229-.3.553-.45.973-.45.27 0 .499.063.684.19.186.128.33.303.433.526l-.237.14a.974.974 0 00-.336-.438.907.907 0 00-.544-.162c-.317 0-.563.113-.74.34-.178.227-.267.55-.267.971v.384c0 .417.089.736.266.956.178.22.424.33.74.33a.911.911 0 00.567-.172c.151-.114.264-.268.339-.462l.237.14c-.1.233-.247.416-.44.55-.194.133-.428.2-.702.2zM104.596 204.31l-.369-1.05h-1.437l-.367 1.05h-.29l1.194-3.378h.373l1.2 3.378h-.304zm-1.08-3.102h-.019l-.634 1.795h1.287l-.634-1.795z"/></g><g><circle class="st1" cx="120.767" cy="247.029" r="1.007"/><path class="st1" d="M120.767 244.26c-1.811 0-3.365 1.142-4.028 2.77.663 1.626 2.217 2.768 4.028 2.768s3.364-1.142 4.028-2.769c-.664-1.627-2.217-2.769-4.028-2.769zm0 5.035a2.266 2.266 0 110-4.531 2.266 2.266 0 010 4.53z"/><path class="st1" d="M120.767 241.743c-1.611 0-3.018.91-3.776 2.265v.756c.902-1.077 2.258-1.763 3.776-1.763s2.874.686 3.776 1.763v-.756c-.758-1.355-2.165-2.265-3.776-2.265z"/><g><circle class="st1" cx="119.817" cy="251.622" r=".754"/><circle class="st1" cx="121.708" cy="251.622" r=".754"/><g><path class="st1" d="M116.562 254.516l2.564-1.133-.864 2.744c-.164.49-.578.969-1.276.969a1.324 1.324 0 01-1.322-1.32c0-.615.379-1.027.898-1.26zM124.962 254.516l-2.564-1.133.865 2.744c.164.49.58.969 1.28.969h.001a1.32 1.32 0 001.316-1.32c0-.615-.379-1.027-.898-1.26z"/></g><g><path class="st1" d="M122.245 253.637a1.632 1.632 0 00-2.961 0h2.96zM119.126 254.393h3.273v.881h-3.273zM119.126 256.029h3.273v.881h-3.273zM119.283 257.665a1.634 1.634 0 002.962 0h-2.962z"/></g></g><g><path class="st1" d="M116.61 266.445h2.595v.472h-2.595zM116.61 265.454h2.595v.472h-2.595zM117.649 264.463h1.557v.472h-1.557zM117.649 263.472h1.557v.472h-1.557zM122.32 266.445h2.595v.472h-2.595zM122.32 265.454h2.595v.472h-2.595zM122.32 264.463h1.557v.472h-1.557zM122.32 263.472h1.557v.472h-1.557zM122.32 262.953h1.558v-.472h-2.919l-.164.472h1.367l.158-.45zM119.206 262.953h-1.557v-.472h2.919l.163.472h-1.366l-.16-.45zM123.878 261.49h-2.575l-.164.472h2.739zM121.99 259.508l-.164.472h3.09v-.472zM120.762 266.917l.167-.472h-.332zM120.414 265.926h.698l.167-.472h-1.031zM120.064 264.935h1.398l.167-.472h-1.731zM119.714 263.944h2.098l.167-.472h-2.431zM117.649 261.962h2.739l-.164-.472h-2.575zM121.483 260.97h3.433v-.471h-3.27zM119.88 260.499h-3.27v.472h3.434zM119.536 259.508h-2.926v.472h3.09z"/></g></g></svg>