<svg xmlns="http://www.w3.org/2000/svg" viewBox="0 0 288 288"><g fill="none" fill-rule="evenodd"><path fill="#FFF" d="M0 0h288v288H0z"/><g stroke="#DCDCDC" stroke-linecap="square" stroke-width=".5"><path d="M52.615 51.615v183.77m17.229-183.77v183.77M58.358 51.615v183.77m17.228-183.77v183.77M64.1 51.615v183.77m17.23-183.77v183.77m5.742-183.77v183.77m5.743-183.77v183.77m5.743-183.77v183.77m5.742-183.77v183.77m5.743-183.77v183.77m5.743-183.77v183.77m5.743-183.77v183.77m5.743-183.77v183.77m5.742-183.77v183.77m5.743-183.77v183.77m5.743-183.77v183.77m5.743-183.77v183.77m5.743-183.77v183.77m5.742-183.77v183.77m5.743-183.77v183.77m5.743-183.77v183.77m5.743-183.77v183.77m5.743-183.77v183.77m5.742-183.77v183.77m5.743-183.77v183.77m5.743-183.77v183.77m5.742-183.77v183.77m5.744-183.77v183.77m5.742-183.77v183.77m5.744-183.77v183.77m5.742-183.77v183.77m5.743-183.77v183.77M236.385 51.615H52.615m183.77 17.229H52.615m183.77-11.486H52.615m183.77 17.228H52.615M236.385 63.1H52.615m183.77 17.23H52.615m183.77 5.742H52.615m183.77 5.743H52.615m183.77 5.743H52.615m183.77 5.742H52.615m183.77 5.743H52.615m183.77 5.743H52.615m183.77 5.743H52.615m183.77 5.743H52.615m183.77 5.742H52.615m183.77 5.743H52.615m183.77 5.743H52.615m183.77 5.743H52.615m183.77 5.743H52.615m183.77 5.742H52.615m183.77 5.743H52.615m183.77 5.743H52.615m183.77 5.743H52.615m183.77 5.743H52.615m183.77 5.742H52.615m183.77 5.743H52.615m183.77 5.743H52.615m183.77 5.742H52.615m183.77 5.744H52.615m183.77 5.742H52.615m183.77 5.744H52.615m183.77 5.742H52.615m183.77 5.743H52.615"/></g><path d="M52 236h184V52H52z"/><g fill="#000"><path d="M112.33 111.592c-3.61 0-6.555 2.944-6.555 6.555a6.563 6.563 0 006.555 6.555 6.563 6.563 0 006.555-6.555c0-3.611-2.944-6.555-6.555-6.555m0 17.25c-5.894 0-10.695-4.796-10.695-10.695 0-5.894 4.801-10.695 10.695-10.695s10.695 4.801 10.695 10.695c0 5.9-4.801 10.695-10.695 10.695"/><path d="M94.32 228.18v-41.86h112.93a2.069 2.069 0 100-4.14h-61.18v-18.86h61.18a2.069 2.069 0 100-4.14h-61.18v-18.836h61.18c1.144 0 2.07-.932 2.07-2.07 0-1.145-.926-2.07-2.07-2.07h-61.18v-18.86h61.18a2.069 2.069 0 100-4.14h-61.18V95.93H94.32V59.82h99.36v34.5h34.5v133.86H94.32zm-34.5-77.578l20.912-20.913 29.072 29.066 11.241-11.759 20.884 21.2v13.985H59.82V150.6zm82.11-50.531v62.226L121 141.057l-11.265 11.776-29.003-28.998-20.913 20.913v-44.677h82.11zm55.89-37.324l27.433 27.434h-27.434V62.747zm-1.214-7.066H90.18v40.25h-34.5v90.39h34.5v46h142.14V91.394L196.606 55.68z"/><path d="M184.25 209.32h-69a2.069 2.069 0 01-2.07-2.07c0-1.145.926-2.07 2.07-2.07h69a2.069 2.069 0 110 4.14"/></g><circle fill="#EE538B" opacity=".5" cx="92" cy="57" r="20"/></g></svg>