<svg version="1.1" id="Layer_1" xmlns="http://www.w3.org/2000/svg" x="0" y="0" viewBox="0 0 928 522" xml:space="preserve"><style>.st1{fill:none;stroke:#dcdcdc;stroke-linecap:square}.st3{fill:#3d3d3d}</style><g id="Group-6"><g id="Rectangle-2-Copy-37"><path id="path-1_1_" fill="#fff" d="M0 0h928v522H0z"/></g><g id="Group-16"><path class="st1" d="M58.5.6v485.8M50.5.6v485.8M42.5.6v485.8M570.5.6v485.8M562.5.6v485.8M554.5.6v485.8M546.5.6v485.8M538.5.6v485.8M530.5.6v485.8M634.5.6v485.8M626.5.6v485.8M618.5.6v485.8M610.5.6v485.8M602.5.6v485.8M594.5.6v485.8M586.5.6v485.8M578.5.6v485.8M698.5.6v485.8M690.5.6v485.8M682.5.6v485.8M674.5.6v485.8M666.5.6v485.8M658.5.6v485.8M762.5.6v485.8M754.5.6v485.8M746.5.6v485.8M738.5.6v485.8M730.5.6v485.8M722.5.6v485.8M714.5.6v485.8M706.5.6v485.8M650.5.6v485.8M642.5.6v485.8M826.5.6v485.8M818.5.6v485.8M810.5.6v485.8M802.5.6v485.8M794.5.6v485.8M786.5.6v485.8M890.5.6v485.8M882.5.6v485.8M874.5.6v485.8M866.5.6v485.8M858.5.6v485.8M850.5.6v485.8M842.5.6v485.8M834.5.6v485.8M898.5.6v485.8M778.5.6v485.8M770.5.6v485.8M522.5.6v485.8M514.5.6v485.8M34.5.6v485.8M26.5.6v485.8M18.5.6v485.8M122.5.6v485.8M114.5.6v485.8M106.5.6v485.8M98.5.6v485.8M90.5.6v485.8M82.5.6v485.8M74.5.6v485.8M66.5.6v485.8M186.5.6v485.8M178.5.6v485.8M170.5.6v485.8M162.5.6v485.8M154.5.6v485.8M146.5.6v485.8M250.5.6v485.8M242.5.6v485.8M234.5.6v485.8M226.5.6v485.8M218.5.6v485.8M210.5.6v485.8M202.5.6v485.8M194.5.6v485.8M138.5.6v485.8M130.5.6v485.8M314.5.6v485.8M306.5.6v485.8M298.5.6v485.8M290.5.6v485.8M282.5.6v485.8M274.5.6v485.8M378.5.6v485.8M370.5.6v485.8M362.5.6v485.8M354.5.6v485.8M346.5.6v485.8M338.5.6v485.8M330.5.6v485.8M322.5.6v485.8M442.5.6v485.8M434.5.6v485.8M426.5.6v485.8M418.5.6v485.8M410.5.6v485.8M402.5.6v485.8M506.5.6v485.8M498.5.6v485.8M490.5.6v485.8M482.5.6v485.8M474.5.6v485.8M466.5.6v485.8M458.5.6v485.8M450.5.6v485.8M394.5.6v485.8M386.5.6v485.8M266.5.6v485.8M258.5.6v485.8M10.5.6v485.8M2.5.6v485.8" transform="translate(14 16)" id="Line-7"/></g><g transform="translate(16 15)" id="Group-17"><path id="Line-8" class="st1" d="M.9 120.9h895"/><path id="Line-8-Copy" class="st1" d="M.9 128.9h895"/><path id="Line-8-Copy-2" class="st1" d="M.9 136.9h895"/><path id="Line-8-Copy-3" class="st1" d="M.9 144.8h895"/><path id="Line-8-Copy-4" class="st1" d="M.9 152.8h895"/><path id="Line-8-Copy-5" class="st1" d="M.9 160.8h895"/><path id="Line-8-Copy-6" class="st1" d="M.9 168.7h895"/><path id="Line-8-Copy-7" class="st1" d="M.9 176.7h895"/><path id="Line-8-Copy-8" class="st1" d="M.9 184.7h895"/><path id="Line-8-Copy-9" class="st1" d="M.9 192.6h895"/><path id="Line-8-Copy-10" class="st1" d="M.9 200.6h895"/><path id="Line-8-Copy-11" class="st1" d="M.9 208.6h895"/><path id="Line-8-Copy-12" class="st1" d="M.9 216.6h895"/><path id="Line-8-Copy-13" class="st1" d="M.9 224.5h895"/><path id="Line-8-Copy-14" class="st1" d="M.9 232.5h895"/><path id="Line-8-Copy-15" class="st1" d="M.9 240.5h895"/><path id="Line-8-Copy-16" class="st1" d="M.9 248.4h895"/><path id="Line-8-Copy-17" class="st1" d="M.9 256.4h895"/><path id="Line-8-Copy-18" class="st1" d="M.9 264.4h895"/><path id="Line-8-Copy-19" class="st1" d="M.9 272.3h895"/><path id="Line-8-Copy-20" class="st1" d="M.9 280.3h895"/><path id="Line-8-Copy-21" class="st1" d="M.9 288.3h895"/><path id="Line-8-Copy-22" class="st1" d="M.9 296.2h895"/><path id="Line-8-Copy-7_1_" class="st1" d="M.9 1.4h895"/><path id="Line-8-Copy-8_1_" class="st1" d="M.9 9.4h895"/><path id="Line-8-Copy-9_1_" class="st1" d="M.9 17.3h895"/><path id="Line-8-Copy-10_1_" class="st1" d="M.9 25.3h895"/><path id="Line-8-Copy-11_1_" class="st1" d="M.9 33.3h895"/><path id="Line-8-Copy-12_1_" class="st1" d="M.9 41.2h895"/><path id="Line-8-Copy-13_1_" class="st1" d="M.9 49.2h895"/><path id="Line-8-Copy-14_1_" class="st1" d="M.9 57.2h895"/><path id="Line-8-Copy-15_1_" class="st1" d="M.9 65.2h895"/><path id="Line-8-Copy-16_1_" class="st1" d="M.9 73.1h895"/><path id="Line-8-Copy-17_1_" class="st1" d="M.9 81.1h895"/><path id="Line-8-Copy-18_1_" class="st1" d="M.9 89.1h895"/><path id="Line-8-Copy-19_1_" class="st1" d="M.9 97h895"/><path id="Line-8-Copy-20_1_" class="st1" d="M.9 105h895"/><path id="Line-8-Copy-21_1_" class="st1" d="M.9 113h895"/><path id="Line-8-Copy-23" class="st1" d="M.9 304.2h895"/><path id="Line-8-Copy-24" class="st1" d="M.9 312.2h895"/><path id="Line-8-Copy-25" class="st1" d="M.9 320.1h895"/><path id="Line-8-Copy-26" class="st1" d="M.9 328.1h895"/><path id="Line-8-Copy-27" class="st1" d="M.9 336.1h895"/><path id="Line-8-Copy-28" class="st1" d="M.9 344.1h895"/><path id="Line-8-Copy-29" class="st1" d="M.9 352h895"/><path id="Line-8-Copy-30" class="st1" d="M.9 360h895"/><path id="Line-8-Copy-31" class="st1" d="M.9 368h895"/><path id="Line-8-Copy-32" class="st1" d="M.9 375.9h895"/><path id="Line-8-Copy-33" class="st1" d="M.9 383.9h895"/><path id="Line-8-Copy-34" class="st1" d="M.9 391.9h895"/><path id="Line-8-Copy-35" class="st1" d="M.9 399.8h895"/><path id="Line-8-Copy-36" class="st1" d="M.9 407.8h895"/><path id="Line-8-Copy-37" class="st1" d="M.9 415.8h895"/><path id="Line-8-Copy-38" class="st1" d="M.9 423.7h895"/><path id="Line-8-Copy-39" class="st1" d="M.9 431.7h895"/><path id="Line-8-Copy-40" class="st1" d="M.9 439.7h895"/><path id="Line-8-Copy-41" class="st1" d="M.9 447.6h895"/><path id="Line-8-Copy-42" class="st1" d="M.9 455.6h895"/><path id="Line-8-Copy-43" class="st1" d="M.9 463.6h895"/><path id="Line-8-Copy-44" class="st1" d="M.9 471.6h895"/><path id="Line-8-Copy-45" class="st1" d="M.9 479.5h895"/><path id="Line-8-Copy-46" class="st1" d="M.9 487.5h895"/></g></g><path d="M256 310.7h25v24.9h-25zm56-7.9h33v32.9h-33zm64-16h49v48.8h-49zm80-15.9h65v64.8h-65zm96-15.9h81v80.7h-81zm112-16h97v96.6h-97zm-456 79.7h17v16.9h-17zm-40 8h9v9h-9z" fill="#b3e6ff"/><path class="st3" d="M168.6 355v-1.3h2.3v-5.9h-.1L169 350l-1-.8 2.1-2.5h2.4v7.1h1.9v1.3h-5.8v-.1zm8.4-3.2l-2.1-3.1h1.8l1.3 2.1 1.3-2.1h1.6l-2.1 3.1 2.1 3.2h-1.8l-1.3-2.2-1.3 2.2h-1.6l2.1-3.2zm37 3.2h-5.8v-1.5l2.6-2.3c.9-.8 1.3-1.4 1.3-2.1v-.1c0-.7-.6-1.1-1.2-1.1-.9 0-1.3.6-1.5 1.2l-1.4-.5c.4-1.1 1.3-2.1 3-2.1 1.8 0 2.8 1.1 2.8 2.5s-.9 2.3-2.1 3.2l-1.8 1.5h4.1v1.3zm3.1-3.2l-2.1-3.1h1.8l1.3 2.1 1.3-2.1h1.6l-2.1 3.1 2.1 3.2h-1.8l-1.3-2.2-1.3 2.2H215l2.1-3.2zm41.5-1.8c1 0 1.4-.4 1.4-1v-.1c0-.7-.5-1.1-1.2-1.1s-1.3.4-1.7 1l-1-.9c.6-.8 1.4-1.4 2.8-1.4 1.7 0 2.8.8 2.8 2.2 0 1.1-.7 1.7-1.6 1.9v.1c1 .2 1.8.9 1.8 2 0 1.5-1.2 2.5-3.1 2.5-1.6 0-2.4-.7-3-1.6l1.2-.9c.4.7.9 1.2 1.8 1.2s1.4-.5 1.4-1.3v-.1c0-.8-.6-1.2-1.6-1.2h-.8V350h.8zm6.4 1.8l-2.1-3.1h1.8l1.3 2.1 1.3-2.1h1.6l-2.1 3.1 2.1 3.2h-1.8l-1.3-2.2-1.3 2.2h-1.6l2.1-3.2zm50.6 3.2v-1.6h-3.8V352l3.3-5.4h2v5.5h1.1v1.2h-1.1v1.6l-1.5.1zm-2.4-2.8h2.5v-4h-.1l-2.4 4zm7.8-.4l-2.1-3.1h1.8l1.3 2.1 1.3-2.1h1.6l-2.1 3.1 2.1 3.2h-1.8l-1.3-2.2-1.3 2.2h-1.6l2.1-3.2zM376.1 351.9c0-2.4 1.6-4.3 3-5.2h2.1c-2 1.4-3.1 2.5-3.5 4.2h.1c.3-.6.8-1.2 1.9-1.2 1.4 0 2.4 1 2.4 2.6 0 1.7-1.2 2.9-3 2.9-1.9-.1-3-1.3-3-3.3zm4.4.6v-.2c0-.9-.5-1.4-1.4-1.4s-1.4.5-1.4 1.4v.2c0 .9.5 1.4 1.4 1.4s1.4-.5 1.4-1.4zm4.6-.7l-2.1-3.1h1.8l1.3 2.1 1.3-2.1h1.6l-2.1 3.1 2.1 3.2h-1.8l-1.3-2.2-1.3 2.2H383l2.1-3.2zM456 352.7c0-1.1.7-1.8 1.7-2v-.1c-.8-.3-1.4-.9-1.4-1.9 0-1.3 1-2.2 2.8-2.2s2.8.9 2.8 2.2c0 1-.6 1.6-1.4 1.9v.1c1 .3 1.7 1 1.7 2 0 1.4-1.1 2.4-3.1 2.4s-3.1-1-3.1-2.4zm4.5 0v-.3c0-.7-.5-1.2-1.4-1.2s-1.4.4-1.4 1.2v.3c0 .7.5 1.2 1.4 1.2s1.4-.4 1.4-1.2zm-.1-3.7v-.2c0-.7-.5-1.1-1.3-1.1s-1.3.4-1.3 1.1v.2c0 .7.5 1.1 1.3 1.1s1.3-.4 1.3-1.1zm4.7 2.8l-2.1-3.1h1.8l1.3 2.1 1.3-2.1h1.6l-2.1 3.1 2.1 3.2h-1.8l-1.3-2.2-1.3 2.2H463l2.1-3.2zM552.6 355v-1.3h2.3v-5.9h-.1L553 350l-1-.8 2.1-2.5h2.4v7.1h1.9v1.3h-5.8v-.1zm6.6-4.2c0-2.7 1-4.3 3.1-4.3s3.1 1.6 3.1 4.3-1 4.3-3.1 4.3-3.1-1.6-3.1-4.3zm4.5.8v-1.5c0-1.4-.4-2.2-1.4-2.2s-1.4.9-1.4 2.2v1.5c0 1.4.4 2.2 1.4 2.2s1.4-.9 1.4-2.2zm4.5.2l-2.1-3.1h1.8l1.3 2.1 1.3-2.1h1.6l-2.1 3.1 2.1 3.2h-1.8l-1.3-2.2-1.3 2.2h-1.6l2.1-3.2zM664.6 355v-1.3h2.3v-5.9h-.1L665 350l-1-.8 2.1-2.5h2.4v7.1h1.9v1.3h-5.8v-.1zm12.6 0h-5.8v-1.5l2.6-2.3c.9-.8 1.3-1.4 1.3-2.1v-.1c0-.7-.6-1.1-1.2-1.1-.9 0-1.3.6-1.5 1.2l-1.4-.5c.4-1.1 1.3-2.1 3-2.1 1.8 0 2.8 1.1 2.8 2.5s-.9 2.3-2.1 3.2l-1.8 1.5h4.1v1.3zm3-3.2l-2.1-3.1h1.8l1.3 2.1 1.3-2.1h1.6l-2.1 3.1 2.1 3.2h-1.8l-1.3-2.2-1.3 2.2h-1.6l2.1-3.2z"/></svg>