<?xml version="1.0" encoding="UTF-8"?>
<svg width="288px" height="288px" viewBox="0 0 288 288" version="1.1" xmlns="http://www.w3.org/2000/svg" xmlns:xlink="http://www.w3.org/1999/xlink">
    <!-- Generator: Sketch 64 (93537) - https://sketch.com -->
    <title>Group 43</title>
    <desc>Created with Sketch.</desc>
    <defs>
        <polygon id="path-1" points="0.486131732 0.348151431 21.2110928 0.348151431 21.2110928 3.41754653 0.486131732 3.41754653"></polygon>
        <polygon id="path-3" points="0.165711662 0 44.9078605 0 44.9078605 17.8605719 0.165711662 17.8605719"></polygon>
        <polygon id="path-5" points="0.517882087 0.371965704 18.06277 0.371965704 18.06277 5.95356808 0.517882087 5.95356808"></polygon>
    </defs>
    <g id="Desktop" stroke="none" stroke-width="1" fill="none" fill-rule="evenodd">
        <g id="IDL-Rebus" transform="translate(-352.000000, -7632.000000)">
            <g id="don't-logo-color" transform="translate(352.000000, 7632.000000)">
                <g id="Group-43">
                    <polygon id="title" fill="#FFFFFF" points="0 0 288 0 288 288 0 288"></polygon>
                    <g id="Group-23-Copy" transform="translate(110.000000, 35.000000)">
                        <g id="Group-53-Copy-8" transform="translate(4.704453, 171.745455)">
                            <polygon id="Fill-25" fill="#051243" points="25.2521576 44.7667961 26.3206664 41.697401 24.182986 41.697401"></polygon>
                            <polygon id="Fill-27" fill="#051243" points="23.2015089 38.907559 27.3025412 38.907559 28.3816555 35.8381639 22.1217317 35.8381639"></polygon>
                            <polygon id="Fill-29" fill="#051243" points="21.1404536 33.0479911 29.3637291 33.0479911 30.4435063 29.978596 20.0606764 29.978596"></polygon>
                            <polygon id="Fill-31" fill="#051243" points="19.0787354 27.188754 31.424917 27.188754 32.5046942 24.1193589 17.9989582 24.1193589"></polygon>
                            <polygon id="Fill-33" fill="#051243" points="6.79923605 15.4698829 23.414813 15.4698829 22.3456413 12.4004878 6.79923605 12.4004878"></polygon>
                            <g id="Group-37" transform="translate(28.644076, 6.192769)">
                                <mask id="mask-2" fill="white">
                                    <use xlink:href="#path-1"></use>
                                </mask>
                                <g id="Clip-36"></g>
                                <polygon id="Fill-35" fill="#051243" mask="url(#mask-2)" points="0.486131732 3.41754653 21.2113579 3.41754653 21.2113579 0.348151431 1.55530338 0.348151431"></polygon>
                            </g>
                            <polygon id="Fill-38" fill="#000000" points="32.2412127 0.681947463 31.172041 3.75134256 49.8550367 3.75134256 49.8550367 0.681947463"></polygon>
                            <polygon id="Fill-40" fill="#000000" points="0.648748278 44.7665976 16.0254648 44.7665976 16.0254648 41.6972025 0.648748278 41.6972025"></polygon>
                            <polygon id="Fill-42" fill="#000000" points="0.648748278 38.9076251 16.0254648 38.9076251 16.0254648 35.83823 0.648748278 35.83823"></polygon>
                            <polygon id="Fill-43" fill="#000000" points="6.79930233 33.0479911 16.0254648 33.0479911 16.0254648 29.978596 6.79930233 29.978596"></polygon>
                            <polygon id="Fill-44" fill="#000000" points="6.79930233 27.1890186 16.0254648 27.1890186 16.0254648 24.1196235 6.79930233 24.1196235"></polygon>
                            <polygon id="Fill-45" fill="#000000" points="43.7044163 12.4007524 28.158011 12.4007524 27.0888394 15.4701475 43.7044163 15.4701475"></polygon>
                            <polygon id="Fill-46" fill="#000000" points="34.4784527 27.1883571 43.7046152 27.1883571 43.7046152 24.118962 34.4784527 24.118962"></polygon>
                            <polygon id="Fill-47" fill="#000000" points="34.4784527 33.0479911 43.7046152 33.0479911 43.7046152 29.978596 34.4784527 29.978596"></polygon>
                            <polygon id="Fill-48" fill="#000000" points="34.4784527 38.9076251 49.8551692 38.9076251 49.8551692 35.83823 34.4784527 35.83823"></polygon>
                            <polygon id="Fill-49" fill="#000000" points="34.4784527 44.7665976 49.8551692 44.7665976 49.8551692 41.6972025 34.4784527 41.6972025"></polygon>
                            <polygon id="Fill-50" fill="#000000" points="21.3734442 9.61031506 20.3042725 6.54091996 0.648218001 6.54091996 0.648218001 9.61031506"></polygon>
                            <polygon id="Fill-51" fill="#000000" points="19.3318765 3.75107796 18.2627048 0.68168286 0.648218001 0.68168286 0.648218001 3.75107796"></polygon>
                            <polygon id="Fill-52" fill="#000000" points="34.4783201 21.3291862 43.7044826 21.3291862 43.7044826 18.2597911 34.4783201 18.2597911 26.1165096 18.2597911 25.2521576 20.7411059 24.3871427 18.2597911 6.79916976 18.2597911 6.79916976 21.3291862 16.0253323 21.3291862 16.0253323 18.5085179 17.0176137 21.3291862 33.4860387 21.3291862 34.4783201 18.5091794"></polygon>
                        </g>
                        <g id="Group-10" transform="translate(7.327935, 0.000000)">
                            <path d="M29.8280992,31.2562324 C29.8280992,34.5445865 27.15749,37.2098005 23.8624794,37.2098005 C20.5674687,37.2098005 17.8968595,34.5445865 17.8968595,31.2562324 C17.8968595,27.9678783 20.5674687,25.3026643 23.8624794,25.3026643 C27.15749,25.3026643 29.8280992,27.9678783 29.8280992,31.2562324" id="Fill-1" fill="#000000"></path>
                            <path d="M23.8624794,44.6517606 C16.4492024,44.6517606 10.4398347,38.654533 10.4398347,31.2562324 C10.4398347,23.8579318 16.4492024,17.8607042 23.8624794,17.8607042 C31.2757563,17.8607042 37.285124,23.8579318 37.285124,31.2562324 C37.285124,38.654533 31.2757563,44.6517606 23.8624794,44.6517606 M23.8624794,14.8839202 C13.1329807,14.8839202 3.92869209,21.6359279 0,31.2562324 C3.92869209,40.8765369 13.1329807,47.6285447 23.8624794,47.6285447 C34.5919781,47.6285447 43.7962666,40.8765369 47.7249587,31.2562324 C43.7962666,21.6359279 34.5919781,14.8839202 23.8624794,14.8839202" id="Fill-3" fill="#000000"></path>
                            <g id="Group-7" transform="translate(1.325693, 0.000132)">
                                <mask id="mask-4" fill="white">
                                    <use xlink:href="#path-3"></use>
                                </mask>
                                <g id="Clip-6"></g>
                                <path d="M22.5367861,-0.000132301513 C12.9917943,-0.000132301513 4.65583486,5.38453927 0.165711662,13.3953959 L0.165711662,17.8605719 C5.50958134,11.4942231 13.546597,7.4418278 22.5367861,7.4418278 C31.5269752,7.4418278 39.5639908,11.4942231 44.9078605,17.8605719 L44.9078605,13.3953959 C40.4177373,5.38453927 32.0817778,-0.000132301513 22.5367861,-0.000132301513" id="Fill-5" fill="#000000" mask="url(#mask-4)"></path>
                            </g>
                        </g>
                        <g id="Group-11" transform="translate(0.331984, 83.000000)">
                            <path d="M29.9136521,4.57181039 C29.9136521,7.03328004 27.9145066,9.02904837 25.4480542,9.02904837 C22.9816018,9.02904837 20.9817935,7.03328004 20.9817935,4.57181039 C20.9817935,2.11034075 22.9816018,0.115233932 25.4480542,0.115233932 C27.9145066,0.115233932 29.9136521,2.11034075 29.9136521,4.57181039" id="Fill-8" fill="#000000"></path>
                            <path d="M41.1160256,4.57181039 C41.1160256,7.03328004 39.1162173,9.02904837 36.6504277,9.02904837 C34.1833125,9.02904837 32.184167,7.03328004 32.184167,4.57181039 C32.184167,2.11034075 34.1833125,0.115233932 36.6504277,0.115233932 C39.1162173,0.115233932 41.1160256,2.11034075 41.1160256,4.57181039" id="Fill-10" fill="#000000"></path>
                            <path d="M6.16770118,21.6821666 L21.3548436,14.982418 L16.2343532,31.2091986 C15.26262,34.0999866 12.8134017,36.936531 8.67790143,36.936531 C4.37271245,36.936531 0.848356819,33.4292179 0.848356819,29.1327263 C0.848356819,25.4931117 3.09010419,23.0600869 6.16770118,21.6821666" id="Fill-12" fill="#000000"></path>
                            <path d="M55.9303831,21.6821666 L40.7432406,14.982418 L45.863731,31.2091986 C46.8354642,34.0999866 49.2972766,36.9358695 53.4460338,36.9358695 C53.449348,36.9358695 53.4519994,36.936531 53.4546508,36.936531 C57.7598398,36.936531 61.2497274,33.4292179 61.2497274,29.1327263 C61.2497274,25.4931117 59.00798,23.0600869 55.9303831,21.6821666" id="Fill-14" fill="#000000"></path>
                            <path d="M39.8317602,16.4873477 C38.2840133,13.1970091 34.9313349,10.9055469 31.0490421,10.9055469 C27.1634351,10.9055469 23.8326306,13.1937015 22.2868723,16.4873477 L39.8317602,16.4873477 Z" id="Fill-16" fill="#000000"></path>
                            <polygon id="Fill-18" fill="#000000" points="40.7418487 26.1618958 21.3549099 26.1618958 21.3549099 20.9525238 40.7431744 20.9525238"></polygon>
                            <polygon id="Fill-20" fill="#000000" points="40.7418487 35.836444 21.3549099 35.836444 21.3549099 30.6270719 40.7431744 30.6270719"></polygon>
                            <g id="Group-24" transform="translate(21.769189, 39.929654)">
                                <mask id="mask-6" fill="white">
                                    <use xlink:href="#path-5"></use>
                                </mask>
                                <g id="Clip-23"></g>
                                <path d="M0.517882087,0.371965704 C2.06562901,3.66230433 5.41764451,5.95376653 9.30060018,5.95376653 C13.1862072,5.95376653 16.5163488,3.66561187 18.06277,0.371965704 L0.517882087,0.371965704 Z" id="Fill-22" fill="#000000" mask="url(#mask-6)"></path>
                            </g>
                        </g>
                    </g>
                </g>
            </g>
        </g>
    </g>
</svg>