<svg xmlns="http://www.w3.org/2000/svg" xmlns:xlink="http://www.w3.org/1999/xlink" viewBox="0 0 32 32"><defs><style>.cls-1{fill:#fff;}.cls-2{fill:url(#linear-gradient);}.cls-3{mask:url(#mask);}.cls-4{fill:url(#linear-gradient-2);}.cls-5{fill:#f4f4f4;}</style><linearGradient id="linear-gradient" x1="72.5" y1="-22.5" x2="82.5" y2="-22.5" gradientTransform="translate(-66.5 49.5)" gradientUnits="userSpaceOnUse"><stop offset="0.001" stop-opacity="0"/><stop offset="0.7"/></linearGradient><mask id="mask" x="0" y="0" width="32" height="32" maskUnits="userSpaceOnUse"><path class="cls-1" d="M26,4H22V2H20V4H12V2H10V4H6A2,2,0,0,0,4,6V26a2,2,0,0,0,2,2H16V26H6V6h4V8h2V6h8V8h2V6h4v6h2V6A2,2,0,0,0,26,4Z"/><g id="Gradients_black_" data-name="Gradients (black)"><rect class="cls-2" x="6" y="25" width="10" height="4"/></g></mask><linearGradient id="linear-gradient-2" y1="32" x2="32" gradientUnits="userSpaceOnUse"><stop offset="0.1" stop-color="#ff7eb6"/><stop offset="0.9" stop-color="#a56eff"/></linearGradient></defs><g id="Layer_2" data-name="Layer 2"><g id="Dark_theme_icons" data-name="Dark theme icons"><g class="cls-3"><rect id="Color" class="cls-4" width="32" height="32"/></g><path class="cls-5" d="M21,14a8,8,0,1,0,8,8A8,8,0,0,0,21,14Zm0,14a6,6,0,1,1,6-6A6,6,0,0,1,21,28Z"/><polygon class="cls-5" points="22.586 25 20 22.414 20 18 22 18 22 21.586 24 23.586 22.586 25"/></g></g></svg>