<svg xmlns="http://www.w3.org/2000/svg" xmlns:xlink="http://www.w3.org/1999/xlink" viewBox="0 0 32 32"><defs><style>.cls-1{fill:#fff;}.cls-2{fill:url(#linear-gradient);}.cls-3{fill:url(#linear-gradient-2);}.cls-4{mask:url(#mask);}.cls-5{fill:url(#linear-gradient-3);}.cls-6{fill:#f4f4f4;}</style><linearGradient id="linear-gradient" x1="85" y1="-27.5" x2="93" y2="-27.5" gradientTransform="translate(-80 47)" gradientUnits="userSpaceOnUse"><stop offset="0.001" stop-opacity="0"/><stop offset="0.7"/></linearGradient><linearGradient id="linear-gradient-2" x1="-768" y1="7007.5" x2="-760" y2="7007.5" gradientTransform="translate(787 -6988)" xlink:href="#linear-gradient"/><mask id="mask" x="0" y="0" width="32" height="32" maskUnits="userSpaceOnUse"><path class="cls-1" d="M24.8,9.136a8.994,8.994,0,0,0-17.6,0A6.5,6.5,0,0,0,8.5,22H12V20H8.5a4.5,4.5,0,0,1-.356-8.981l.816-.064.1-.812a6.994,6.994,0,0,1,13.884,0l.1.812.816.064A4.5,4.5,0,0,1,23.5,20H20v2h3.5A6.5,6.5,0,0,0,24.8,9.136Z"/><g id="Gradients_black_" data-name="Gradients (black)"><rect class="cls-2" x="5" y="16" width="8" height="7"/></g><g id="Gradients_black_2" data-name="Gradients (black)"><rect class="cls-3" x="19" y="16" width="8" height="7" transform="translate(46 39) rotate(180)"/></g></mask><linearGradient id="linear-gradient-3" y1="32" x2="32" gradientUnits="userSpaceOnUse"><stop offset="0.1" stop-color="#3ddbd9"/><stop offset="0.9" stop-color="#4589ff"/></linearGradient></defs><g id="Layer_2" data-name="Layer 2"><g id="Dark_theme_icons" data-name="Dark theme icons"><g class="cls-4"><rect id="Color" class="cls-5" width="32" height="32"/></g><path class="cls-6" d="M22,24a2.925,2.925,0,0,0-.471.048l-3.3-6.056A2.974,2.974,0,0,0,19,16a3,3,0,0,0-6,0,2.974,2.974,0,0,0,.774,1.992l-3.3,6.056A2.925,2.925,0,0,0,10,24a3,3,0,1,0,3,3,2.974,2.974,0,0,0-.774-1.992l3.3-6.056a2.335,2.335,0,0,0,.942,0l3.3,6.056A2.974,2.974,0,0,0,19,27a3,3,0,1,0,3-3Zm-6-9a1,1,0,1,1-1,1A1,1,0,0,1,16,15ZM10,28a1,1,0,1,1,1-1A1,1,0,0,1,10,28Zm12,0a1,1,0,1,1,1-1A1,1,0,0,1,22,28Z"/></g></g></svg>