<svg xmlns="http://www.w3.org/2000/svg" xmlns:xlink="http://www.w3.org/1999/xlink" viewBox="0 0 32 32"><defs><style>.cls-1{fill:url(#linear-gradient);}.cls-2{fill:#fff;}.cls-3{fill:#f4f4f4;}.cls-4{mask:url(#mask);}.cls-5{fill:url(#linear-gradient-2);}</style><linearGradient id="linear-gradient" x1="16" y1="7" x2="25" y2="16" gradientTransform="translate(14.136 -11.127) rotate(45)" gradientUnits="userSpaceOnUse"><stop offset="0.1" stop-color="#fff"/><stop offset="0.9"/></linearGradient><mask id="mask" x="0" y="0" width="32" height="32" maskUnits="userSpaceOnUse"><rect class="cls-1" x="19.5" y="5.136" width="2" height="12.728" transform="translate(-2.127 17.864) rotate(-45)"/><path class="cls-2" d="M26,2A16.019,16.019,0,0,0,10,18v2H3a1,1,0,0,0-.707,1.707l8,8A1,1,0,0,0,12,29V22h2A16.019,16.019,0,0,0,30,6V2ZM10,26.586,5.414,22H10ZM28,6A14.015,14.015,0,0,1,14,20H12V18A14.015,14.015,0,0,1,26,4h2Z"/></mask><linearGradient id="linear-gradient-2" y1="32" x2="32" gradientUnits="userSpaceOnUse"><stop offset="0.1" stop-color="#3ddbd9"/><stop offset="0.9" stop-color="#4589ff"/></linearGradient></defs><g id="Layer_2" data-name="Layer 2"><g id="Dark_theme_icons" data-name="Dark theme icons"><circle class="cls-3" cx="24" cy="7" r="1"/><g class="cls-4"><rect class="cls-5" width="32" height="32"/></g></g></g></svg>