<svg xmlns="http://www.w3.org/2000/svg" xmlns:xlink="http://www.w3.org/1999/xlink" viewBox="0 0 32 32" height="192" width="192"><defs><style>.cls-1{fill:#fff;}.cls-2{fill:url(#linear-gradient);}.cls-3{mask:url(#mask);}.cls-4{fill:url(#linear-gradient-2);}.cls-5{fill:#f4f4f4;}</style><linearGradient id="linear-gradient" x1="2757.976" y1="3887.976" x2="2757.976" y2="3876.976" gradientTransform="translate(-2748.476 -3855.476)" gradientUnits="userSpaceOnUse"><stop offset="0.1"/><stop offset="1" stop-opacity="0"/></linearGradient><mask id="mask" x="0" y="0" width="32" height="32" maskUnits="userSpaceOnUse"><path class="cls-1" d="M14,26H4V6h7.172l3.414,3.414.586.586H28v8h2V10a2,2,0,0,0-2-2H16L12.586,4.586A2,2,0,0,0,11.172,4H4A2,2,0,0,0,2,6V26a2,2,0,0,0,2,2H14Z"/><rect class="cls-2" x="7.5" y="21.5" width="4" height="11" transform="translate(-17.5 36.5) rotate(-90)"/></mask><linearGradient id="linear-gradient-2" y1="32" x2="32" gradientUnits="userSpaceOnUse"><stop offset="0.1" stop-color="#ff7eb6"/><stop offset="0.9" stop-color="#a56eff"/></linearGradient></defs><g id="Layer_2" data-name="Layer 2"><g id="Dark_theme_icons" data-name="Dark theme icons"><g class="cls-3"><rect class="cls-4" width="32" height="32"/></g><rect class="cls-5" x="16" y="20" width="14" height="2"/><rect class="cls-5" x="16" y="24" width="14" height="2"/><rect class="cls-5" x="16" y="28" width="7" height="2"/></g></g></svg>