<svg xmlns="http://www.w3.org/2000/svg" xmlns:xlink="http://www.w3.org/1999/xlink" viewBox="0 0 32 32" height="192" width="192"><defs><style>.cls-1{fill:#fff;}.cls-2{fill:url(#linear-gradient);}.cls-3{mask:url(#mask);}.cls-4{fill:url(#linear-gradient-2);}.cls-5{fill:#f4f4f4;}</style><linearGradient id="linear-gradient" x1="4586.5" y1="2358.5" x2="4599.5" y2="2358.5" gradientTransform="translate(-4580.5 -2333.5)" gradientUnits="userSpaceOnUse"><stop offset="0.2" stop-opacity="0"/><stop offset="0.7"/></linearGradient><mask id="mask" x="0" y="0" width="32" height="33" maskUnits="userSpaceOnUse"><path class="cls-1" d="M10,28h0c-3.933,0-8-4.49-8-12,0-4.935,2.312-8,6.031-8a12.813,12.813,0,0,1,3.177.536A11.382,11.382,0,0,0,13.773,9h.466a10.157,10.157,0,0,0,2.484-.466A11.46,11.46,0,0,1,19.776,8C24.367,8,26,12.31,26,16c0,7.6-4.016,11-8,11H14a5.022,5.022,0,0,0-1.509.41A7.143,7.143,0,0,1,10,28ZM8.031,10C4.393,10,4,14.2,4,16c0,6.258,3.051,10,6,10h0a5.515,5.515,0,0,0,1.792-.464A6.4,6.4,0,0,1,14,25h4c2.984,0,6-2.784,6-9,0-1-.2-6-4.22-6a9.814,9.814,0,0,0-2.529.464,11.821,11.821,0,0,1-3,.536h-.49a12.99,12.99,0,0,1-3.05-.527A11.185,11.185,0,0,0,8.031,10Z"/><rect x="17" y="18" width="15" height="15"/><rect class="cls-2" x="6" y="18" width="13" height="14"/><path class="cls-1" d="M15,10H13A4,4,0,0,0,9,6V4A6.006,6.006,0,0,1,15,10Z"/><path class="cls-1" d="M16,6.983H15v-1a2,2,0,0,1,2-2h1v1A2,2,0,0,1,16,6.983Z"/></mask><linearGradient id="linear-gradient-2" y1="32" x2="32" gradientUnits="userSpaceOnUse"><stop offset="0.1" stop-color="#6fdc8c"/><stop offset="0.9" stop-color="#009d9a"/></linearGradient></defs><g id="Layer_2" data-name="Layer 2"><g id="Dark_theme_icons" data-name="Dark theme icons"><g class="cls-3"><rect class="cls-4" width="32" height="32"/></g><polygon class="cls-5" points="22 27.18 19.41 24.59 18 26 22 30 29 23 27.59 21.59 22 27.18"/></g></g></svg>