<svg xmlns="http://www.w3.org/2000/svg" xmlns:xlink="http://www.w3.org/1999/xlink" viewBox="0 0 32 32" height="192" width="192"><defs><style>.cls-1{fill:#fff;}.cls-2{fill:url(#linear-gradient);}.cls-3{fill:url(#linear-gradient-2);}.cls-4{fill:url(#linear-gradient-3);}.cls-5{mask:url(#mask);}.cls-6{fill:url(#linear-gradient-4);}.cls-7{fill:#f4f4f4;}</style><linearGradient id="linear-gradient" x1="15.946" y1="7.054" x2="15.946" y2="20.054" gradientTransform="translate(-10.446 3.946)" gradientUnits="userSpaceOnUse"><stop offset="0.2" stop-opacity="0"/><stop offset="1"/></linearGradient><linearGradient id="linear-gradient-2" x1="32.446" y1="7.054" x2="32.446" y2="21.054" gradientTransform="translate(-10.446 3.946)" gradientUnits="userSpaceOnUse"><stop offset="0.101" stop-opacity="0"/><stop offset="0.6"/></linearGradient><linearGradient id="linear-gradient-3" x1="224.017" y1="7.054" x2="224.017" y2="21.054" gradientTransform="matrix(0.636, 0, 0, -1, -129.557, 32.054)" gradientUnits="userSpaceOnUse"><stop offset="0.101" stop-opacity="0"/><stop offset="0.8"/></linearGradient><mask id="mask" x="0" y="0" width="32" height="32" maskUnits="userSpaceOnUse"><path class="cls-1" d="M27.342,6.06l-11-4a1,1,0,0,0-.684,0l-11,4A1,1,0,0,0,4,7v3a1,1,0,0,0,1,1H6V24H8V11h4V24h2V11h4V24h2V11h4V24h2V11h1a1,1,0,0,0,1-1V7A1,1,0,0,0,27.342,6.06ZM26,9H6V7.7L16,4.064,26,7.7Z"/><rect class="cls-2" x="1" y="11" width="9" height="13"/><rect class="cls-3" x="16" y="11" width="12" height="14"/><rect class="cls-4" x="10" y="11" width="6" height="14" transform="translate(26 36) rotate(180)"/><rect class="cls-1" x="2" y="28" width="9" height="2"/><rect class="cls-1" x="4" y="24" width="7" height="2"/></mask><linearGradient id="linear-gradient-4" y1="32" x2="32" gradientUnits="userSpaceOnUse"><stop offset="0.1" stop-color="#be95ff"/><stop offset="0.9" stop-color="#4589ff"/></linearGradient></defs><g id="Layer_2" data-name="Layer 2"><g id="Dark_theme_icons" data-name="Dark theme icons"><g class="cls-5"><rect class="cls-6" width="32" height="32"/></g><polygon class="cls-7" points="29.17 26 26.59 28.58 28 30 32 26 28 22 26.58 23.41 29.17 26"/><polygon class="cls-7" points="16.83 26 19.41 23.42 18 22 14 26 18 30 19.42 28.59 16.83 26"/><rect class="cls-7" x="18" y="25" width="10" height="2" transform="translate(-8.067 41.487) rotate(-75)"/></g></g></svg>