<svg xmlns="http://www.w3.org/2000/svg" xmlns:xlink="http://www.w3.org/1999/xlink" viewBox="0 0 32 32"><defs><linearGradient id="linear-gradient" x1="7.003" y1="24.997" x2="7.003" y2="4.003" gradientUnits="userSpaceOnUse"><stop offset=".1" stop-color="#0072c2"/><stop offset=".9" stop-color="#20d4d1"/></linearGradient><linearGradient id="linear-gradient-2" x1="16" y1="27.997" x2="16" y2="7.003" gradientUnits="userSpaceOnUse"><stop offset=".1" stop-color="#20d4d1"/><stop offset=".9" stop-color="#0072c2"/></linearGradient><linearGradient id="linear-gradient-3" x1="24.997" y1="24.997" x2="24.997" y2="4.003" xlink:href="#linear-gradient"/><style>.cls-5{fill:#f4f4f4}</style></defs><g id="Layer_2" data-name="Layer 2"><g id="Dark_theme_icons" data-name="Dark theme icons"><path transform="rotate(180 16 16)" fill="none" d="M0 0h32v32H0z"/><path d="M7 4a3 3 0 00-3 3v18h6V7a3 3 0 00-3-3z" fill="url(#linear-gradient)"/><path d="M13 7v18a3 3 0 106 0V7z" fill="url(#linear-gradient-2)"/><path d="M25 4a3 3 0 00-3 3v18h6V7a3 3 0 00-3-3z" fill="url(#linear-gradient-3)"/><circle class="cls-5" cx="16" cy="7.003" r="2.999"/><circle class="cls-5" cx="24.997" cy="24.997" r="2.999"/><circle class="cls-5" cx="7.003" cy="24.997" r="2.999"/></g></g></svg>