<svg xmlns="http://www.w3.org/2000/svg" xmlns:xlink="http://www.w3.org/1999/xlink" viewBox="0 0 32 32" height="192" width="192"><defs><style>.cls-1{fill:none;}.cls-2{fill:url(#linear-gradient);}.cls-3{fill:url(#linear-gradient-2);}.cls-4{fill:#f4f4f4;}</style><linearGradient id="linear-gradient" x1="-5038" y1="2411.5" x2="-5017" y2="2411.5" gradientTransform="translate(2424 5040) rotate(90)" gradientUnits="userSpaceOnUse"><stop offset="0" stop-color="#f4f4f4" stop-opacity="0.45"/><stop offset="1" stop-color="#f4f4f4" stop-opacity="0.15"/></linearGradient><linearGradient id="linear-gradient-2" x1="-5031" y1="2404.5" x2="-5010" y2="2404.5" gradientTransform="translate(2424 5040) rotate(90)" gradientUnits="userSpaceOnUse"><stop offset="0" stop-color="#ba8dff"/><stop offset="1" stop-color="#418bff"/></linearGradient></defs><g id="Layer_2" data-name="Layer 2"><g id="Dark_theme_icons" data-name="Dark theme icons"><rect class="cls-1" width="32" height="32"/><polygon class="cls-2" points="16 23 16 16 23 16 23 9 16 9 16 2 9 2 9 9 2 9 2 16 9 16 9 23 16 23"/><polygon class="cls-3" points="23 30 23 23 30 23 30 16 23 16 23 9 16 9 16 16 9 16 9 23 16 23 16 30 23 30"/><rect class="cls-4" x="16" y="16" width="7" height="7"/></g></g></svg>