<svg xmlns="http://www.w3.org/2000/svg" xmlns:xlink="http://www.w3.org/1999/xlink" viewBox="0 0 32 32" height="192" width="192"><defs><style>.cls-1{fill:none;}.cls-2{fill:url(#linear-gradient);}.cls-3{fill:url(#linear-gradient-2);}.cls-4{fill:url(#linear-gradient-3);}.cls-5{fill:#f4f4f4;}</style><linearGradient id="linear-gradient" x1="6" y1="26" x2="26" y2="26" gradientUnits="userSpaceOnUse"><stop offset="0" stop-color="#f4f4f4" stop-opacity="0.15"/><stop offset="1" stop-color="#f4f4f4" stop-opacity="0.45"/></linearGradient><linearGradient id="linear-gradient-2" x1="6" y1="6" x2="26" y2="6" gradientUnits="userSpaceOnUse"><stop offset="0" stop-color="#f4f4f4" stop-opacity="0.45"/><stop offset="1" stop-color="#f4f4f4" stop-opacity="0.15"/></linearGradient><linearGradient id="linear-gradient-3" x1="3.172" y1="28.828" x2="28.828" y2="3.172" gradientUnits="userSpaceOnUse"><stop offset="0.1" stop-color="#418bff"/><stop offset="0.9" stop-color="#43d1cf"/></linearGradient></defs><g id="Layer_2" data-name="Layer 2"><g id="Dark_theme_icons" data-name="Dark theme icons"><rect class="cls-1" width="32" height="32"/><rect class="cls-2" x="6" y="22" width="20" height="8"/><rect class="cls-3" x="6" y="2" width="20" height="8"/><path class="cls-4" d="M6,30a4,4,0,0,1-2.828-6.829l20-20a4,4,0,1,1,5.656,5.658l-20,20A3.99,3.99,0,0,1,6,30Z"/><circle class="cls-5" cx="6" cy="6" r="4"/><circle class="cls-5" cx="26" cy="26" r="4"/><circle class="cls-5" cx="6" cy="26" r="4"/><circle class="cls-5" cx="26" cy="6" r="4"/></g></g></svg>