<svg xmlns="http://www.w3.org/2000/svg" xmlns:xlink="http://www.w3.org/1999/xlink" viewBox="0 0 32 32" height="192" width="192"><defs><style>.cls-1{fill:#fff;}.cls-2{fill:url(#linear-gradient);}.cls-3{mask:url(#mask);}.cls-4{fill:url(#linear-gradient-2);}.cls-5{fill:#f4f4f4;}</style><linearGradient id="linear-gradient" x1="3977" y1="3995.5" x2="3986" y2="3995.5" gradientTransform="matrix(1, 0, 0, -1, -3976, 4015)" gradientUnits="userSpaceOnUse"><stop offset="0" stop-opacity="0"/><stop offset="0.9"/></linearGradient><mask id="mask" x="0" y="0" width="32" height="32" maskUnits="userSpaceOnUse"><path class="cls-1" d="M4,16v5a7.008,7.008,0,0,0,7,7h3V26H11a5.006,5.006,0,0,1-5-5V16Z"/><rect class="cls-2" x="1" y="17" width="9" height="5" transform="translate(-14 25) rotate(-90)"/><rect class="cls-1" x="18" y="2" width="12" height="2"/><rect class="cls-1" x="18" y="6" width="12" height="2"/><rect class="cls-1" x="18" y="10" width="8" height="2"/></mask><linearGradient id="linear-gradient-2" x2="32" y2="32" gradientUnits="userSpaceOnUse"><stop offset="0.1" stop-color="#6fdc8c"/><stop offset="0.9" stop-color="#009d9a"/></linearGradient></defs><g id="Layer_2" data-name="Layer 2"><g id="Dark_theme_icons" data-name="Dark theme icons"><g class="cls-3"><rect class="cls-4" width="32" height="32"/></g><path class="cls-5" d="M2,14v2H4V14a1,1,0,0,1,1-1h6a1,1,0,0,1,1,1v2h2V14a3,3,0,0,0-3-3H5A3,3,0,0,0,2,14Z"/><path class="cls-5" d="M8,2a4,4,0,1,0,4,4A4,4,0,0,0,8,2ZM8,8a2,2,0,1,1,2-2A2,2,0,0,1,8,8Z"/><path class="cls-5" d="M18,28v2h2V28a1,1,0,0,1,1-1h6a1,1,0,0,1,1,1v2h2V28a3,3,0,0,0-3-3H21A3,3,0,0,0,18,28Z"/><path class="cls-5" d="M24,16a4,4,0,1,0,4,4A4,4,0,0,0,24,16Zm0,6a2,2,0,1,1,2-2A2,2,0,0,1,24,22Z"/></g></g></svg>