<svg xmlns="http://www.w3.org/2000/svg" xmlns:xlink="http://www.w3.org/1999/xlink" viewBox="0 0 32 32"><defs><style>.cls-1{fill:#fff;}.cls-2{fill:url(#linear-gradient);}.cls-3{mask:url(#mask);}.cls-4{fill:url(#linear-gradient-2);}.cls-5{fill:#f4f4f4;}</style><linearGradient id="linear-gradient" x1="6307" y1="-1686.5" x2="6317" y2="-1686.5" gradientTransform="translate(6326 -1675) rotate(180)" gradientUnits="userSpaceOnUse"><stop offset="0.1" stop-opacity="0"/><stop offset="0.7"/></linearGradient><mask id="mask" x="0" y="0" width="32" height="32" maskUnits="userSpaceOnUse"><path class="cls-1" d="M22,8a5.005,5.005,0,0,0-1.571.255A8.025,8.025,0,0,0,14,5,7.933,7.933,0,0,0,9.094,6.68L4.707,2.293,3.293,3.707,9.05,9.464l.707-.707a5.993,5.993,0,0,1,8.931.507,4.955,4.955,0,0,0-.591.611A2.99,2.99,0,0,1,15.754,11H10v2h5.754a4.98,4.98,0,0,0,3.9-1.875A3,3,0,0,1,25,13h2A5.006,5.006,0,0,0,22,8Z"/><polygon class="cls-2" points="19 14 9 14 9 10 19 9 19 14"/><polygon class="cls-1" points="9.414 13 2.707 6.293 1.293 7.707 6.586 13 9.414 13"/></mask><linearGradient id="linear-gradient-2" y1="32" x2="32" gradientUnits="userSpaceOnUse"><stop offset="0.1" stop-color="#ff7eb6"/><stop offset="0.9" stop-color="#a56eff"/></linearGradient></defs><g id="Layer_2" data-name="Layer 2"><g id="Dark_theme_icons" data-name="Dark theme icons"><g class="cls-3"><rect class="cls-4" width="32" height="32"/></g><path class="cls-5" d="M16,30A14.015,14.015,0,0,1,2,16V15H30v1A14.015,14.015,0,0,1,16,30ZM4.042,17a12,12,0,0,0,23.916,0Z"/></g></g></svg>