<svg xmlns="http://www.w3.org/2000/svg" viewBox="0 0 32 32"><defs><linearGradient id="linear-gradient" x1="517" y1="954.5" x2="540" y2="954.5" gradientTransform="rotate(-90 -190.5 737.5)" gradientUnits="userSpaceOnUse"><stop offset=".1"/><stop offset=".8" stop-opacity="0"/></linearGradient><linearGradient id="linear-gradient-2" y1="32" x2="32" gradientUnits="userSpaceOnUse"><stop offset=".1" stop-color="#3ddbd9"/><stop offset=".9" stop-color="#4589ff"/></linearGradient><style>.cls-1{fill:#fff}.cls-5{fill:#f4f4f4}</style><mask id="mask" x="0" y="0" width="32" height="32" maskUnits="userSpaceOnUse"><path class="cls-1" d="M7 4h18v24H7v2h18a2 2 0 002-2V4a2 2 0 00-2-2H7a2 2 0 00-2 2"/><path fill="url(#linear-gradient)" d="M23 7l2 21v2h5V7h-7z"/><path class="cls-1" d="M5 4h2v26a2 2 0 01-2-2V4z"/></mask></defs><g id="Layer_2" data-name="Layer 2"><g id="Dark_theme_icons" data-name="Dark theme icons"><g mask="url(#mask)"><path fill="url(#linear-gradient-2)" d="M0 0h32v32H0z"/></g><path class="cls-5" d="M17 13h5v2h-5zM10 18h12v2H10zM10 23h12v2H10zM12.17 11l-2.58 2.58L11 15l4-4-4-4-1.42 1.41L12.17 11z"/></g></g></svg>