<svg xmlns="http://www.w3.org/2000/svg" xmlns:xlink="http://www.w3.org/1999/xlink" viewBox="0 0 32 32" height="192" width="192"><defs><style>.cls-1{fill:#fff;}.cls-2{fill:url(#linear-gradient);}.cls-3{fill:url(#linear-gradient-2);}.cls-4{mask:url(#mask);}.cls-5{fill:url(#linear-gradient-3);}.cls-6{fill:#f4f4f4;}</style><linearGradient id="linear-gradient" x1="9" y1="22" x2="13" y2="18" gradientTransform="translate(17.364 -1.92) rotate(45)" gradientUnits="userSpaceOnUse"><stop offset="0"/><stop offset="0.8" stop-color="#fff"/></linearGradient><linearGradient id="linear-gradient-2" x1="1" y1="24" x2="10" y2="15" gradientTransform="translate(15.399 1.822) rotate(45)" xlink:href="#linear-gradient"/><mask id="mask" x="0" y="0" width="32" height="32" maskUnits="userSpaceOnUse"><path class="cls-1" d="M17,2a9,9,0,1,0,9,9A9.011,9.011,0,0,0,17,2Zm6.906,7.906a7.007,7.007,0,0,1-5.812-5.812A7.007,7.007,0,0,1,23.906,9.906ZM10.094,12.094a7.007,7.007,0,0,1,5.812,5.812A7.007,7.007,0,0,1,10.094,12.094Zm7.836,5.837a9.009,9.009,0,0,0-7.861-7.861,7.005,7.005,0,0,1,6-6,9.009,9.009,0,0,0,7.861,7.861A7.005,7.005,0,0,1,17.93,17.931Z"/><rect class="cls-2" x="8.172" y="19" width="5.657" height="2" transform="translate(-10.92 13.636) rotate(-45)"/><rect class="cls-3" x="-0.864" y="18.5" width="12.728" height="2" transform="translate(-12.178 9.601) rotate(-45)"/></mask><linearGradient id="linear-gradient-3" y1="32" x2="32" gradientUnits="userSpaceOnUse"><stop offset="0.1" stop-color="#6fdc8c"/><stop offset="0.9" stop-color="#009d9a"/></linearGradient></defs><g id="Layer_2" data-name="Layer 2"><g id="Dark_theme_icons" data-name="Dark theme icons"><g class="cls-4"><rect class="cls-5" width="32" height="32"/></g><rect class="cls-6" x="21.999" y="26" width="2" height="4"/><rect class="cls-6" x="17.999" y="24" width="2" height="6"/><rect class="cls-6" x="25.999" y="21" width="2" height="9"/></g></g></svg>