<svg xmlns="http://www.w3.org/2000/svg" xmlns:xlink="http://www.w3.org/1999/xlink" viewBox="0 0 32 32" height="192" width="192"><defs><style>.cls-1{fill:#fff;}.cls-2{fill:url(#linear-gradient);}.cls-3{mask:url(#mask);}.cls-4{fill:url(#linear-gradient-2);}.cls-5{fill:#f4f4f4;}</style><linearGradient id="linear-gradient" x1="1136" y1="-1103.5" x2="1148" y2="-1103.5" gradientTransform="matrix(1, 0, 0, -1, -1116.5, -1081.5)" gradientUnits="userSpaceOnUse"><stop offset="0.1"/><stop offset="0.8" stop-opacity="0"/></linearGradient><mask id="mask" x="0" y="0" width="32" height="32" maskUnits="userSpaceOnUse"><path class="cls-1" d="M24,30H6a2,2,0,0,1-2-2V24H2V22H4V17H2V15H4V10H2V8H4V4A2,2,0,0,1,6,2H16V4H6V8H8v2H6v5H8v2H6v5H8v2H6v4H24V17h2V28A2,2,0,0,1,24,30Z"/><rect class="cls-2" x="19.5" y="19.5" width="12" height="5" transform="translate(47.5 -3.5) rotate(90)"/></mask><linearGradient id="linear-gradient-2" y1="32" x2="32" gradientUnits="userSpaceOnUse"><stop offset="0.1" stop-color="#ff7eb6"/><stop offset="0.9" stop-color="#a56eff"/></linearGradient></defs><g id="Layer_2" data-name="Layer 2"><g id="Dark_theme_icons" data-name="Dark theme icons"><g class="cls-3"><rect class="cls-4" width="32" height="32"/></g><path class="cls-5" d="M29.537,5.76l-3.3-3.3a1.587,1.587,0,0,0-2.24,0L11.467,15v5.533H17L29.537,8a1.587,1.587,0,0,0,0-2.24ZM16.172,18.533h-2.7V15.828l7.974-7.973,2.7,2.7Zm9.387-9.388-2.7-2.7,2.267-2.267,2.7,2.7Z"/></g></g></svg>