<svg xmlns="http://www.w3.org/2000/svg" xmlns:xlink="http://www.w3.org/1999/xlink" viewBox="0 0 32 32" height="192" width="192"><defs><style>.cls-1{fill:#fff;}.cls-2{fill:url(#linear-gradient);}.cls-3{fill:url(#linear-gradient-2);}.cls-4{fill:url(#linear-gradient-3);}.cls-5{fill:url(#linear-gradient-4);}.cls-6{mask:url(#mask);}.cls-7{fill:url(#linear-gradient-5);}.cls-8{fill:#f4f4f4;}</style><linearGradient id="linear-gradient" x1="1567.5" y1="4147.997" x2="1567.5" y2="4133.997" gradientTransform="translate(-1564 -4125.995)" gradientUnits="userSpaceOnUse"><stop offset="0.2"/><stop offset="0.95" stop-opacity="0"/></linearGradient><linearGradient id="linear-gradient-2" x1="-109.091" y1="1678.695" x2="-109.091" y2="1667.695" gradientTransform="translate(229.866 -2319.016) scale(1.898 1.4)" xlink:href="#linear-gradient"/><linearGradient id="linear-gradient-3" x1="2702.282" y1="1029.564" x2="2702.282" y2="1022.564" gradientTransform="translate(-2352.401 -1488.757) scale(0.875 1.471)" gradientUnits="userSpaceOnUse"><stop offset="0.3"/><stop offset="1" stop-opacity="0"/></linearGradient><linearGradient id="linear-gradient-4" x1="-54.063" y1="3514.585" x2="-54.063" y2="3484.509" gradientTransform="translate(122.807 -1387.263) scale(1.994 0.399)" gradientUnits="userSpaceOnUse"><stop offset="0.28"/><stop offset="0.95" stop-opacity="0"/></linearGradient><mask id="mask" x="0" y="0" width="32" height="32" maskUnits="userSpaceOnUse"><path class="cls-1" d="M16,30V28a12,12,0,1,0-3.107-23.6l-.518-1.932A14,14,0,1,1,16,30Z"/><path class="cls-1" d="M16,25A9.009,9.009,0,0,1,7.318,13.618l1.93.527A7.007,7.007,0,0,0,16,23Z"/><path class="cls-1" d="M9,28.125A14,14,0,0,1,3.878,9L5.61,10A12.011,12.011,0,0,0,10,26.392Z"/><rect class="cls-2" x="1" y="8.003" width="5" height="14" transform="translate(7 30.005) rotate(180)"/><rect class="cls-3" x="18.024" y="16.182" width="9.492" height="15.403" transform="translate(32.069 -7.778) rotate(60)"/><rect class="cls-4" x="8.531" y="15.03" width="8.315" height="10.294" transform="translate(-11.129 21.077) rotate(-60)"/><path class="cls-1" d="M22.364,22.367,20.95,20.953a7,7,0,1,0-9.9-9.9L9.636,9.638A9,9,0,0,1,22.364,22.367Z"/><rect class="cls-5" x="12" y="3.003" width="6" height="12" transform="translate(24.003 -5.997) rotate(90)"/><rect x="14" y="27.003" width="4" height="4"/></mask><linearGradient id="linear-gradient-5" y1="32" x2="32" gradientUnits="userSpaceOnUse"><stop offset="0.1" stop-color="#3ddbd9"/><stop offset="0.9" stop-color="#4589ff"/></linearGradient></defs><g id="Layer_2" data-name="Layer 2"><g id="Dark_theme_icons" data-name="Dark theme icons"><g class="cls-6"><rect class="cls-7" width="32" height="32"/></g><path class="cls-8" d="M20,16a4,4,0,0,0-4-4,3.956,3.956,0,0,0-2.019.566L8.927,7.515A2.027,2.027,0,0,0,9,7,2,2,0,1,0,7,9a2.048,2.048,0,0,0,.512-.072l5.055,5.053A3.944,3.944,0,0,0,12,16a4,4,0,0,0,3,3.858V27.27a2,2,0,1,0,2,0V19.858A4,4,0,0,0,20,16Zm-6,0a2,2,0,1,1,2,2A2,2,0,0,1,14,16Z"/></g></g></svg>