<svg xmlns="http://www.w3.org/2000/svg" viewBox="0 0 32 32"><defs><linearGradient id="linear-gradient" x1="-846.562" y1="310.653" x2="-846.562" y2="290.653" gradientTransform="matrix(1 0 0 -.99 862.562 313.632)" gradientUnits="userSpaceOnUse"><stop offset=".05"/><stop offset=".6" stop-opacity="0"/></linearGradient><linearGradient id="linear-gradient-2" y1="32" x2="32" gradientUnits="userSpaceOnUse"><stop offset=".1" stop-color="#a56eff"/><stop offset=".9" stop-color="#ff7eb6"/></linearGradient><style>.cls-1{fill:#fff}.cls-5{fill:#f4f4f4}</style><mask id="mask" x="0" y="0" width="32" height="32" maskUnits="userSpaceOnUse"><path class="cls-1" d="M23.707 22.293L10 8.586V2H2v8h6.586l13.707 13.707zM8 8H4V4h4z"/><path transform="rotate(135 16 16)" fill="url(#linear-gradient)" d="M11 6.101h10V25.9H11z"/><path class="cls-1" d="M30 30h-8v-8h8zm-6-2h4v-4h-4z"/></mask></defs><g id="Layer_2" data-name="Layer 2"><g id="Dark_theme_icons" data-name="Dark theme icons"><g mask="url(#mask)"><path fill="url(#linear-gradient-2)" d="M0 0h32v32H0z"/></g><path class="cls-5" d="M7 22.142V13H5v9.142A3.992 3.992 0 109.858 27H19v-2H9.858A4 4 0 007 22.142zM6 28a2 2 0 112-2 2 2 0 01-2 2zM30 6a3.992 3.992 0 00-7.858-1H13v2h9.142A4 4 0 0025 9.858V19h2V9.858A4 4 0 0030 6zm-4 2a2 2 0 112-2 2 2 0 01-2 2z"/></g></g></svg>