<svg xmlns="http://www.w3.org/2000/svg" xmlns:xlink="http://www.w3.org/1999/xlink" viewBox="0 0 32 32"><defs><linearGradient id="linear-gradient" y1="21" x2="8" y2="21" gradientUnits="userSpaceOnUse"><stop offset=".15"/><stop offset="1" stop-opacity="0"/></linearGradient><linearGradient id="linear-gradient-2" x1="-155" y1="-857" x2="-146" y2="-857" gradientTransform="translate(171.5 878.5)" gradientUnits="userSpaceOnUse"><stop offset=".1"/><stop offset=".8" stop-opacity="0"/></linearGradient><linearGradient id="linear-gradient-3" x1="0" y1="9" x2="11" y2="9" xlink:href="#linear-gradient"/><linearGradient id="linear-gradient-4" y1="32" x2="32" gradientUnits="userSpaceOnUse"><stop offset=".1" stop-color="#3ddbd9"/><stop offset=".9" stop-color="#4589ff"/></linearGradient><style>.cls-1{fill:#fff}</style><mask id="mask" x="0" y="0" width="32" height="32" maskUnits="userSpaceOnUse"><path class="cls-1" d="M20 18v8H10V16h4v-2H9.077A1.077 1.077 0 008 15.077V20H1v2h7v4.923A1.077 1.077 0 009.077 28h11.846A1.077 1.077 0 0022 26.923V18zM1 8h13v2H1z"/><path fill="url(#linear-gradient)" d="M0 19h8v4H0z"/><path transform="rotate(90 21 21.5)" fill="url(#linear-gradient-2)" d="M16.5 19.5h9v4h-9z"/><path fill="url(#linear-gradient-3)" d="M0 7h11v4H0z"/></mask></defs><g id="Layer_2" data-name="Layer 2"><g id="Dark_theme_icons" data-name="Dark theme icons"><g mask="url(#mask)"><path id="Color" fill="url(#linear-gradient-4)" d="M0 0h32v32H0z"/></g><path d="M29 18H17a1 1 0 01-1-1V5a1 1 0 011-1h12a1 1 0 011 1v12a1 1 0 01-1 1m-11-2h10V6H18z" fill="#f4f4f4"/></g></g></svg>