<svg xmlns="http://www.w3.org/2000/svg" xmlns:xlink="http://www.w3.org/1999/xlink" viewBox="0 0 32 32" height="192" width="192"><defs><style>.cls-1{fill:#fff;}.cls-2{fill:url(#linear-gradient);}.cls-3{mask:url(#mask);}.cls-4{fill:url(#linear-gradient-2);}.cls-5{fill:#f4f4f4;}</style><linearGradient id="linear-gradient" x1="70.5" y1="4320.85" x2="76.5" y2="4320.85" gradientTransform="translate(-65 -4305.85)" gradientUnits="userSpaceOnUse"><stop offset="0.2"/><stop offset="1" stop-opacity="0"/></linearGradient><mask id="mask" x="0" y="0" width="32" height="32" maskUnits="userSpaceOnUse"><path class="cls-1" d="M4,5A4,4,0,1,1,8,9,4,4,0,0,1,4,5ZM6,5A2,2,0,1,0,8,3,2,2,0,0,0,6,5Z"/><path class="cls-1" d="M4,17V13a1,1,0,0,1,1-1h6a1,1,0,0,1,1,1v4h2V13a3,3,0,0,0-3-3H5a3,3,0,0,0-3,3v4Z"/><rect class="cls-2" x="5.5" y="7.5" width="6" height="15" transform="translate(-6.5 23.5) rotate(-90)"/><rect class="cls-1" y="17" width="16" height="2"/></mask><linearGradient id="linear-gradient-2" y1="32" x2="32" gradientUnits="userSpaceOnUse"><stop offset="0.1" stop-color="#3ddbd9"/><stop offset="0.9" stop-color="#4589ff"/></linearGradient></defs><g id="Layer_2" data-name="Layer 2"><g id="Dark_theme_icons" data-name="Dark theme icons"><g class="cls-3"><rect class="cls-4" width="32" height="32"/></g><path class="cls-5" d="M20,5a4,4,0,1,1,4,4A4,4,0,0,1,20,5Zm2,0a2,2,0,1,0,2-2A2,2,0,0,0,22,5Z"/><path class="cls-5" d="M27,10H21a3,3,0,0,0-3,3v6a2,2,0,0,0,2,2v7a2,2,0,0,0,2,2h4a2,2,0,0,0,2-2V21a2,2,0,0,0,2-2V13A3,3,0,0,0,27,10Zm1,9H26v9H22V19H20V13a1,1,0,0,1,1-1h6a1,1,0,0,1,1,1Z"/></g></g></svg>