<svg xmlns="http://www.w3.org/2000/svg" xmlns:xlink="http://www.w3.org/1999/xlink" viewBox="0 0 32 32"><defs><style>.cls-1{fill:#fff;}.cls-2{fill:url(#linear-gradient);}.cls-3{mask:url(#mask);}.cls-4{fill:url(#linear-gradient-2);}.cls-5{fill:#f4f4f4;}</style><linearGradient id="linear-gradient" x1="1329.405" y1="1044.356" x2="1333.642" y2="1044.356" gradientTransform="translate(-1570.422 -1035.05) scale(1.193 1)" gradientUnits="userSpaceOnUse"><stop offset="0.13"/><stop offset="1" stop-opacity="0"/></linearGradient><mask id="mask" x="0" y="0" width="32" height="32" maskUnits="userSpaceOnUse"><path class="cls-1" d="M30.441,14.651l-3.372-3.372,2.024-2.023L27.744,7.907,25.721,9.931,22.349,6.559a1.908,1.908,0,0,0-2.7,0L16.279,9.931l1.349,1.348L21,7.907,29.093,16,21,24.093,12.907,16l1.679-1.678-1.349-1.349-1.678,1.678a1.908,1.908,0,0,0,0,2.7l8.092,8.092a1.908,1.908,0,0,0,2.7,0l8.092-8.092A1.908,1.908,0,0,0,30.441,14.651Z"/><rect class="cls-2" x="15.478" y="7.41" width="5.657" height="3.793" transform="translate(-1.219 15.67) rotate(-45)"/></mask><linearGradient id="linear-gradient-2" y1="32" x2="32" gradientUnits="userSpaceOnUse"><stop offset="0.1" stop-color="#3ddbd9"/><stop offset="0.9" stop-color="#4589ff"/></linearGradient></defs><g id="Layer_2" data-name="Layer 2"><g id="Dark_theme_icons" data-name="Dark theme icons"><g class="cls-3"><rect class="cls-4" width="32" height="32"/></g><path class="cls-5" d="M13.237,21.856,11,24.093,2.907,16,11,7.907,19.093,16l-1.679,1.678,1.349,1.349,1.678-1.678a1.908,1.908,0,0,0,0-2.7L12.349,6.559a1.908,1.908,0,0,0-2.7,0L1.559,14.651a1.908,1.908,0,0,0,0,2.7l3.372,3.372L2.907,22.744l1.349,1.349,2.023-2.024,3.372,3.372a1.908,1.908,0,0,0,2.7,0L14.586,23.2Z"/></g></g></svg>