<svg xmlns="http://www.w3.org/2000/svg" xmlns:xlink="http://www.w3.org/1999/xlink" viewBox="0 0 32 32"><defs><style>.cls-1{fill:#fff;}.cls-2{fill:url(#linear-gradient);}.cls-3{mask:url(#mask);}.cls-4{fill:url(#linear-gradient-2);}.cls-5{fill:#f4f4f4;}</style><linearGradient id="linear-gradient" x1="7" y1="19" x2="7" y2="11" gradientUnits="userSpaceOnUse"><stop offset="0" stop-opacity="0"/><stop offset="0.85"/></linearGradient><mask id="mask" x="0" y="0" width="32" height="32" maskUnits="userSpaceOnUse"><path class="cls-1" d="M14,26H10a4,4,0,0,1-4-4V11H8V22a2,2,0,0,0,2,2h4Z"/><rect class="cls-2" x="5" y="11" width="4" height="8"/><path class="cls-1" d="M24,4H4A2,2,0,0,0,2,6v4a2,2,0,0,0,2,2H24a2,2,0,0,0,2-2V6A2,2,0,0,0,24,4Zm0,6H4V6H24Z"/></mask><linearGradient id="linear-gradient-2" y1="32" x2="32" gradientUnits="userSpaceOnUse"><stop offset="0.1" stop-color="#3ddbd9"/><stop offset="0.9" stop-color="#4589ff"/></linearGradient></defs><g id="Layer_2" data-name="Layer 2"><g id="Build_icon_here" data-name="Build icon here"><g class="cls-3"><rect class="cls-4" width="32" height="32"/></g><rect class="cls-5" x="18" y="18" width="12" height="2"/><rect class="cls-5" x="18" y="22" width="12" height="2"/><rect class="cls-5" x="18" y="26" width="6" height="2"/><circle class="cls-5" cx="7" cy="8" r="1"/></g></g></svg>