<svg xmlns="http://www.w3.org/2000/svg" xmlns:xlink="http://www.w3.org/1999/xlink" viewBox="0 0 32 32"><defs><style>.cls-1{fill:url(#linear-gradient);}.cls-2{fill:url(#linear-gradient-2);}.cls-3{fill:#fff;}.cls-4{mask:url(#mask);}.cls-5{fill:url(#linear-gradient-3);}.cls-6{fill:#f4f4f4;}</style><linearGradient id="linear-gradient" x1="23.5" y1="25" x2="23.5" y2="10" gradientUnits="userSpaceOnUse"><stop offset="0.4" stop-color="#fff"/><stop offset="1" stop-color="#fff" stop-opacity="0"/></linearGradient><linearGradient id="linear-gradient-2" x1="7.5" y1="19" x2="7.5" y2="5" gradientUnits="userSpaceOnUse"><stop offset="0" stop-color="#fff" stop-opacity="0"/><stop offset="0.6" stop-color="#fff"/></linearGradient><mask id="mask" x="0" y="0" width="32" height="32" maskUnits="userSpaceOnUse"><path class="cls-1" d="M28,21.205h0V10H26V21.25L26,23H19v2h7a2.005,2.005,0,0,0,2-2h0v0h0Z"/><path class="cls-2" d="M6,5A2,2,0,0,0,4,7V8.6H4V19H6V12H6L6,7h5V5Z"/><polygon class="cls-3" points="21.22 28.243 16.978 24 21.22 19.757 22.634 21.171 19.806 24 22.634 26.829 21.22 28.243"/><path class="cls-3" d="M28,2H12a2,2,0,0,0-2,2V8a2,2,0,0,0,2,2H28a2,2,0,0,0,2-2V4A2,2,0,0,0,28,2Zm0,6H12V4H28Z"/></mask><linearGradient id="linear-gradient-3" y1="32" x2="32" gradientUnits="userSpaceOnUse"><stop offset="0.1" stop-color="#be95ff"/><stop offset="0.9" stop-color="#4589ff"/></linearGradient></defs><g id="Layer_2" data-name="Layer 2"><g id="Dark_theme_icons" data-name="Dark theme icons"><g class="cls-4"><rect class="cls-5" width="32" height="32"/></g><circle class="cls-6" cx="15" cy="6" r="1"/><path class="cls-6" d="M5,20a4,4,0,1,0,4,4A4,4,0,0,0,5,20Zm0,6a2,2,0,1,1,2-2A2,2,0,0,1,5,26Z"/><path class="cls-6" d="M13,22a2,2,0,1,0,2,2,2,2,0,0,0-2-2Z"/></g></g></svg>