<svg xmlns="http://www.w3.org/2000/svg" xmlns:xlink="http://www.w3.org/1999/xlink" viewBox="0 0 32 32" height="192" width="192"><defs><style>.cls-1{fill:#fff;}.cls-2{fill:url(#linear-gradient);}.cls-3{mask:url(#mask);}.cls-4{fill:url(#linear-gradient-2);}.cls-5{fill:#f4f4f4;}</style><linearGradient id="linear-gradient" x1="25" y1="10" x2="25" y2="15" gradientUnits="userSpaceOnUse"><stop offset="0"/><stop offset="1" stop-opacity="0"/></linearGradient><mask id="mask" x="0" y="0" width="32" height="32" maskUnits="userSpaceOnUse"><path class="cls-1" d="M26,14V10H24v4a1.007,1.007,0,0,1-1.011,1H9.013A3.01,3.01,0,0,0,6,18v2H8V18a1.007,1.007,0,0,1,1.013-1H22.989A3.009,3.009,0,0,0,26,14Z"/><rect class="cls-2" x="23" y="10" width="4" height="5"/><path class="cls-1" d="M22,25H18v2h4v3h8V22H22Zm2-1h4v4H24Z"/><path class="cls-1" d="M28,2H4A2,2,0,0,0,2,4V8a2,2,0,0,0,2,2H28a2,2,0,0,0,2-2V4A2,2,0,0,0,28,2Zm0,6H4V4H28Z"/></mask><linearGradient id="linear-gradient-2" x1="-1160" y1="1130" x2="-1128" y2="1098" gradientTransform="translate(1160 -1098)" gradientUnits="userSpaceOnUse"><stop offset="0.1" stop-color="#ff7eb6"/><stop offset="0.9" stop-color="#a56eff"/></linearGradient></defs><g id="Layer_2" data-name="Layer 2"><g id="Dark_theme_icons" data-name="Dark theme icons"><g class="cls-3"><rect class="cls-4" width="32" height="32"/></g><circle class="cls-5" cx="7" cy="6" r="1"/><rect class="cls-5" x="2" y="22" width="2" height="8"/><rect class="cls-5" x="6" y="22" width="2" height="8"/><rect class="cls-5" x="14" y="22" width="2" height="8"/><rect class="cls-5" x="10" y="22" width="2" height="8"/></g></g></svg>