<svg xmlns="http://www.w3.org/2000/svg" xmlns:xlink="http://www.w3.org/1999/xlink" viewBox="0 0 32 32"><defs><style>.cls-1{fill:none;stroke:#fff;stroke-linejoin:round;stroke-width:2px;}.cls-2{fill:url(#linear-gradient);}.cls-3{mask:url(#mask);}.cls-4{fill:url(#linear-gradient-2);}.cls-5{fill:#f4f4f4;}</style><linearGradient id="linear-gradient" x1="13" y1="29" x2="13" y2="18" gradientUnits="userSpaceOnUse"><stop offset="0" stop-opacity="0"/><stop offset="0.85"/></linearGradient><mask id="mask" x="0" y="0" width="32" height="32" maskUnits="userSpaceOnUse"><polyline class="cls-1" points="7 15 4 15 3 12 3 6 10 2 13 3 22 3 29 11 25 17 25 24 21 30 16 30 13 23 12 19"/><rect class="cls-2" x="9" y="18" width="8" height="11"/></mask><linearGradient id="linear-gradient-2" y1="32" x2="32" gradientUnits="userSpaceOnUse"><stop offset="0.1" stop-color="#be95ff"/><stop offset="0.9" stop-color="#4589ff"/></linearGradient></defs><g id="Layer_2" data-name="Layer 2"><g id="Dark_theme_icons" data-name="Dark theme icons"><g class="cls-3"><rect class="cls-4" width="32" height="32"/></g><path class="cls-5" d="M19,15a2.945,2.945,0,0,0-.732.1l-2.892-4.29A2.97,2.97,0,0,0,16,9a3,3,0,1,0-5.043,2.184L7.18,20.018C7.12,20.015,7.062,20,7,20a3.028,3.028,0,1,0,2.022.8l3.77-8.82c.07.005.137.021.208.021a2.963,2.963,0,0,0,.7-.092l2.9,4.3A2.973,2.973,0,0,0,16,18a3,3,0,1,0,3-3ZM7,24a1,1,0,1,1,1-1A1,1,0,0,1,7,24ZM13,8a1,1,0,1,1-1,1A1,1,0,0,1,13,8Zm6,11a1,1,0,1,1,1-1A1,1,0,0,1,19,19Z"/></g></g></svg>