<svg xmlns="http://www.w3.org/2000/svg" xmlns:xlink="http://www.w3.org/1999/xlink" viewBox="0 0 32 32"><defs><style>.cls-1{fill:#fff;}.cls-2{fill:url(#linear-gradient);}.cls-3{mask:url(#mask);}.cls-4{fill:url(#linear-gradient-2);}.cls-5{fill:#f4f4f4;}</style><linearGradient id="linear-gradient" x1="3244.8" y1="2809.123" x2="3265.8" y2="2809.123" gradientTransform="translate(-3233.8 -2794.623)" gradientUnits="userSpaceOnUse"><stop offset="0.55"/><stop offset="0.99" stop-color="#231f20" stop-opacity="0"/></linearGradient><mask id="mask" x="0" y="0" width="32" height="32" maskUnits="userSpaceOnUse"><path class="cls-1" d="M19,22c0-1.839,1.107-2.865,2.178-3.857A7.2,7.2,0,0,0,24,12,8,8,0,0,0,8,12a7.189,7.189,0,0,0,2.814,6.141C11.889,19.134,13,20.16,13,22H11c0-.919-.528-1.449-1.541-2.384A9.181,9.181,0,0,1,6,12a10,10,0,0,1,20,0,9.191,9.191,0,0,1-3.465,7.614C21.526,20.55,21,21.08,21,22v2H19Z"/><rect class="cls-2" x="11" y="9" width="21" height="11" transform="translate(7 36) rotate(-90)"/><rect class="cls-1" x="11" y="24" width="10" height="2"/><rect class="cls-1" x="13" y="28" width="6" height="2"/></mask><linearGradient id="linear-gradient-2" y1="32" x2="32" gradientUnits="userSpaceOnUse"><stop offset="0.1" stop-color="#3ddbd9"/><stop offset="0.9" stop-color="#4589ff"/></linearGradient></defs><g id="Layer_2" data-name="Layer 2"><g id="Dark_theme_icons" data-name="Dark theme icons"><g class="cls-3"><rect class="cls-4" width="32" height="32"/></g><polygon class="cls-5" points="23 19.18 20.41 16.59 19 18 23 22 30 15 28.59 13.59 23 19.18"/></g></g></svg>