<svg xmlns="http://www.w3.org/2000/svg" xmlns:xlink="http://www.w3.org/1999/xlink" viewBox="0 0 32 32"><defs><style>.cls-1{fill:#fff;}.cls-2{fill:url(#linear-gradient);}.cls-3{mask:url(#mask);}.cls-4{fill:url(#linear-gradient-2);}.cls-5{fill:#f4f4f4;}</style><linearGradient id="linear-gradient" x1="-0.25" y1="12.25" x2="17.25" y2="29.75" gradientUnits="userSpaceOnUse"><stop offset="0.3" stop-opacity="0"/><stop offset="0.9"/></linearGradient><mask id="mask" x="0" y="0" width="32" height="32" maskUnits="userSpaceOnUse"><path class="cls-1" d="M16,30A14,14,0,1,1,30,16,14.015,14.015,0,0,1,16,30ZM16,4A12,12,0,1,0,28,16,12.013,12.013,0,0,0,16,4Z"/><rect class="cls-2" x="1" y="11" width="15" height="20"/></mask><linearGradient id="linear-gradient-2" y1="32" x2="32" gradientUnits="userSpaceOnUse"><stop offset="0.1" stop-color="#3ddbd9"/><stop offset="0.9" stop-color="#4589ff"/></linearGradient></defs><g id="Layer_2" data-name="Layer 2"><g id="Dark_theme_icons" data-name="Dark theme icons"><g class="cls-3"><rect class="cls-4" width="32" height="32"/></g><path class="cls-5" d="M19,18H13a3,3,0,0,0-3,3v2h2V21a1,1,0,0,1,1-1h6a1,1,0,0,1,1,1v2h2V21A3,3,0,0,0,19,18Z"/><path class="cls-5" d="M16,17a4,4,0,1,0-4-4A4,4,0,0,0,16,17Zm0-6a2,2,0,1,1-2,2A2,2,0,0,1,16,11Z"/></g></g></svg>