<svg xmlns="http://www.w3.org/2000/svg" xmlns:xlink="http://www.w3.org/1999/xlink" viewBox="0 0 32 32" height="192" width="192"><defs><style>.cls-1{fill:#fff;}.cls-2{fill:url(#linear-gradient);}.cls-3{fill:url(#linear-gradient-2);}.cls-4{mask:url(#mask);}.cls-5{fill:url(#linear-gradient-3);}.cls-6{fill:#f4f4f4;}</style><linearGradient id="linear-gradient" x1="10" y1="5" x2="27" y2="5" gradientUnits="userSpaceOnUse"><stop offset="0.41" stop-opacity="0"/><stop offset="0.85"/></linearGradient><linearGradient id="linear-gradient-2" x1="13.565" y1="18.98" x2="27.578" y2="10.89" gradientTransform="translate(12.165 -9.056) rotate(34.709)" gradientUnits="userSpaceOnUse"><stop offset="0.3"/><stop offset="0.8" stop-opacity="0"/></linearGradient><mask id="mask" x="0" y="0" width="32" height="32" maskUnits="userSpaceOnUse"><polygon class="cls-1" points="16.439 16.294 15.342 19.487 28.486 10.383 26.14 9.575 16.439 16.294"/><polygon class="cls-1" points="25.028 6 26.5 4 10.5 4 13.221 6 25.028 6"/><rect class="cls-2" x="10" y="3" width="17" height="4"/><rect class="cls-3" x="12.577" y="13.435" width="15.989" height="3" transform="translate(-4.843 14.371) rotate(-34.709)"/><path class="cls-1" d="M10.5,6A6.5,6.5,0,1,1,4,12.5,6.508,6.508,0,0,1,10.5,6m0-2A8.5,8.5,0,1,0,19,12.5,8.5,8.5,0,0,0,10.5,4Z"/><path class="cls-1" d="M26.5,6A1.5,1.5,0,1,1,25,7.5,1.5,1.5,0,0,1,26.5,6m0-2A3.5,3.5,0,1,0,30,7.5,3.5,3.5,0,0,0,26.5,4Z"/><path class="cls-1" d="M10.5,11A1.5,1.5,0,1,1,9,12.5,1.5,1.5,0,0,1,10.5,11m0-2A3.5,3.5,0,1,0,14,12.5,3.5,3.5,0,0,0,10.5,9Z"/></mask><linearGradient id="linear-gradient-3" y1="32" x2="32" gradientUnits="userSpaceOnUse"><stop offset="0.1" stop-color="#be95ff"/><stop offset="0.9" stop-color="#4589ff"/></linearGradient></defs><g id="Layer_2" data-name="Layer 2"><g id="Dark_theme_icons" data-name="Dark theme icons"><g class="cls-4"><rect class="cls-5" width="32" height="32"/></g><path class="cls-6" d="M28,26a1.979,1.979,0,0,0-.849.2l-2.338-1.619a3.195,3.195,0,0,0,0-2.154L27.151,20.8A1.979,1.979,0,0,0,28,21a2,2,0,1,0-2-2c0,.054.012.1.016.157l-2.342,1.622A3.464,3.464,0,0,0,21.5,20a3.5,3.5,0,0,0,0,7,3.464,3.464,0,0,0,2.174-.779l2.342,1.622c0,.053-.016.1-.016.157a2,2,0,1,0,2-2Zm-6.5-1A1.5,1.5,0,1,1,23,23.5,1.5,1.5,0,0,1,21.5,25Z"/></g></g></svg>