<svg xmlns="http://www.w3.org/2000/svg" xmlns:xlink="http://www.w3.org/1999/xlink" viewBox="0 0 32 32" height="192" width="192"><defs><style>.cls-1{fill:#fff;}.cls-2{fill:url(#linear-gradient);}.cls-3{fill:url(#linear-gradient-2);}.cls-4{mask:url(#mask);}.cls-5{fill:url(#linear-gradient-3);}.cls-6{fill:#f4f4f4;}</style><linearGradient id="linear-gradient" x1="-145.903" y1="-20.5" x2="-136.903" y2="-20.5" gradientTransform="translate(153.903 49.5)" gradientUnits="userSpaceOnUse"><stop offset="0.001" stop-opacity="0"/><stop offset="0.83"/></linearGradient><linearGradient id="linear-gradient-2" x1="-248.641" y1="686.763" x2="-239.641" y2="686.763" gradientTransform="translate(269.141 -675.263)" xlink:href="#linear-gradient"/><mask id="mask" x="0" y="0" width="32" height="32" maskUnits="userSpaceOnUse"><rect class="cls-1" x="12" y="8" width="8" height="2"/><path class="cls-1" d="M16,28H6V24H8V22H6V17H8V15H6V10H8V8H6V4H24V15h2V4a2,2,0,0,0-2-2H6A2,2,0,0,0,4,4V8H2v2H4v5H2v2H4v5H2v2H4v4a2,2,0,0,0,2,2H16Z"/><rect class="cls-1" x="12" y="13" width="8" height="2"/><rect class="cls-1" x="12" y="18" width="4" height="2"/><g id="Gradients_black_" data-name="Gradients (black)"><rect class="cls-2" x="8" y="27" width="9" height="4"/></g><g id="Gradients_black_2" data-name="Gradients (black)"><rect class="cls-3" x="20.5" y="9.5" width="9" height="4" transform="translate(36.5 -13.5) rotate(90)"/></g></mask><linearGradient id="linear-gradient-3" y1="32" x2="32" gradientUnits="userSpaceOnUse"><stop offset="0.1" stop-color="#3ddbd9"/><stop offset="0.9" stop-color="#4589ff"/></linearGradient></defs><g id="Layer_2" data-name="Layer 2"><g id="Dark_theme_icons" data-name="Dark theme icons"><g class="cls-4"><rect class="cls-5" width="32" height="32"/></g><path class="cls-6" d="M28.68,17.321a4.521,4.521,0,0,0-6.387,0L17.32,22.292a4.516,4.516,0,0,0,6.387,6.387l4.973-4.972A4.522,4.522,0,0,0,28.68,17.321Zm-6.387,9.944a2.516,2.516,0,0,1-3.558-3.558l1.779-1.779,3.557,3.558Zm4.972-4.973-1.779,1.78-3.558-3.558,1.779-1.779a2.516,2.516,0,0,1,3.558,3.557Z"/></g></g></svg>