<svg xmlns="http://www.w3.org/2000/svg" xmlns:xlink="http://www.w3.org/1999/xlink" viewBox="0 0 32 32" height="192" width="192"><defs><style>.cls-1{fill:#fff;}.cls-2{fill:url(#linear-gradient);}.cls-3{fill:url(#linear-gradient-2);}.cls-4{mask:url(#mask);}.cls-5{fill:url(#linear-gradient-3);}.cls-6{fill:#f4f4f4;}</style><linearGradient id="linear-gradient" x1="74.5" y1="-22.5" x2="89.5" y2="-22.5" gradientTransform="translate(-66.5 49.5)" gradientUnits="userSpaceOnUse"><stop offset="0.001" stop-opacity="0"/><stop offset="0.7"/></linearGradient><linearGradient id="linear-gradient-2" x1="74.5" y1="-30.5" x2="89.5" y2="-30.5" xlink:href="#linear-gradient"/><mask id="mask" x="0" y="0" width="32" height="32" maskUnits="userSpaceOnUse"><path class="cls-1" d="M26,18V4a2,2,0,0,0-2-2H8A2,2,0,0,0,6,4V26a2,2,0,0,0,2,2H22V26H8V20H22V18H8V12H24v6ZM8,10V4H24v6Z"/><g id="Gradients_black_" data-name="Gradients (black)"><rect class="cls-2" x="8" y="25" width="15" height="4"/></g><g id="Gradients_black_2" data-name="Gradients (black)"><rect class="cls-3" x="8" y="17" width="15" height="4"/></g></mask><linearGradient id="linear-gradient-3" y1="32" x2="32" gradientUnits="userSpaceOnUse"><stop offset="0.1" stop-color="#3ddbd9"/><stop offset="0.9" stop-color="#4589ff"/></linearGradient></defs><g id="Layer_2" data-name="Layer 2"><g id="Dark_theme_icons" data-name="Dark theme icons"><g class="cls-4"><rect id="Color" class="cls-5" width="32" height="32"/></g><circle class="cls-6" cx="11" cy="23" r="1"/><circle class="cls-6" cx="11" cy="15" r="1"/><circle class="cls-6" cx="11" cy="7" r="1"/><rect class="cls-6" x="18" y="20" width="12" height="2"/><rect class="cls-6" x="18" y="24" width="12" height="2"/><rect class="cls-6" x="18" y="28" width="6" height="2"/></g></g></svg>