<svg xmlns="http://www.w3.org/2000/svg" xmlns:xlink="http://www.w3.org/1999/xlink" viewBox="0 0 32 32"><defs><style>.cls-1{fill:#fff;}.cls-2{fill:url(#linear-gradient);}.cls-3{mask:url(#mask);}.cls-4{fill:url(#linear-gradient-2);}.cls-5{fill:#f4f4f4;}</style><linearGradient id="linear-gradient" x1="6" y1="25.5" x2="27" y2="25.5" gradientUnits="userSpaceOnUse"><stop offset="0.1" stop-opacity="0"/><stop offset="0.75"/></linearGradient><mask id="mask" x="0" y="0" width="32" height="32" maskUnits="userSpaceOnUse"><path class="cls-1" d="M15,29a9.011,9.011,0,0,1-9-9V7.618l9-4.5,11,5.5V6.382L15,.882,4,6.382V20a11,11,0,0,0,22,0H24A9.011,9.011,0,0,1,15,29Z"/><rect class="cls-2" x="6" y="19" width="21" height="13"/></mask><linearGradient id="linear-gradient-2" y1="32" x2="32" gradientUnits="userSpaceOnUse"><stop offset="0.2" stop-color="#8a3ffc"/><stop offset="0.8" stop-color="#30b0ff"/></linearGradient></defs><g id="Layer_2" data-name="Layer 2"><g id="Dark_theme_icons" data-name="Dark theme icons"><g class="cls-3"><rect class="cls-4" width="32" height="32"/></g><path class="cls-5" d="M25,19a4.907,4.907,0,0,0-.278-1.571l1.84-1.063-1-1.732L23.723,15.7A4.979,4.979,0,0,0,21,14.1V12H19v2.1A4.979,4.979,0,0,0,16.277,15.7l-1.839-1.062-1,1.732,1.84,1.063a4.581,4.581,0,0,0,0,3.143l-1.84,1.062,1,1.732L16.277,22.3A4.979,4.979,0,0,0,19,23.9V26h2V23.9a4.979,4.979,0,0,0,2.723-1.6l1.839,1.062,1-1.732-1.84-1.062A4.913,4.913,0,0,0,25,19Zm-5,3a3,3,0,1,1,3-3A3,3,0,0,1,20,22Z"/></g></g></svg>