<svg xmlns="http://www.w3.org/2000/svg" xmlns:xlink="http://www.w3.org/1999/xlink" viewBox="0 0 32 32"><defs><style>.cls-1{fill:#fff;}.cls-2{fill:url(#linear-gradient);}.cls-3{fill:url(#linear-gradient-2);}.cls-4{fill:url(#linear-gradient-3);}.cls-5{fill:url(#linear-gradient-4);}.cls-6{mask:url(#mask);}.cls-7{fill:url(#linear-gradient-5);}.cls-8{fill:#f4f4f4;}</style><linearGradient id="linear-gradient" x1="21.849" y1="11.537" x2="17.151" y2="1.463" gradientUnits="userSpaceOnUse"><stop offset="0.3"/><stop offset="0.72" stop-opacity="0"/></linearGradient><linearGradient id="linear-gradient-2" x1="-1561.859" y1="-75.426" x2="-1559.141" y2="-85.574" gradientTransform="translate(1580 96)" xlink:href="#linear-gradient"/><linearGradient id="linear-gradient-3" x1="-1561.151" y1="-60.463" x2="-1565.849" y2="-70.537" gradientTransform="translate(1576 91)" xlink:href="#linear-gradient"/><linearGradient id="linear-gradient-4" x1="21.141" y1="-3.426" x2="23.859" y2="-13.574" gradientTransform="translate(-10 25)" xlink:href="#linear-gradient"/><mask id="mask" x="0" y="0" width="32" height="32" maskUnits="userSpaceOnUse"><path class="cls-1" d="M19.042,19.042,18,19l-.372-1.372A7.983,7.983,0,0,0,6.338,6.338L4.924,4.924A9.983,9.983,0,0,1,19.042,19.042Z"/><rect class="cls-2" x="16" y="2" width="7" height="9"/><rect class="cls-3" x="16" y="11" width="7" height="9" transform="translate(39 31) rotate(180)"/><path class="cls-1" d="M20,29.959a9.978,9.978,0,0,1-7.059-17.037L14,13l.355,1.336a7.983,7.983,0,0,0,11.29,11.29L27,26l.059,1.041A9.95,9.95,0,0,1,20,29.959Z"/><path class="cls-1" d="M27.059,27.041l-1.414-1.415a7.983,7.983,0,0,0-11.29-11.29l-1.414-1.414A9.983,9.983,0,0,1,27.059,27.041Z"/><rect class="cls-4" x="9" y="21" width="7" height="9" transform="translate(25 51) rotate(180)"/><rect class="cls-5" x="9" y="12" width="7" height="9"/><path class="cls-1" d="M11.983,21.961A9.978,9.978,0,0,1,4.924,4.924L6,5l.338,1.338a7.983,7.983,0,0,0,11.29,11.29l1.414,1.414A9.951,9.951,0,0,1,11.983,21.961Z"/></mask><linearGradient id="linear-gradient-5" y1="32" x2="32" gradientUnits="userSpaceOnUse"><stop offset="0.1" stop-color="#3ddbd9"/><stop offset="0.9" stop-color="#4589ff"/></linearGradient></defs><g id="Layer_2" data-name="Layer 2"><g id="Dark_theme_icons" data-name="Dark theme icons"><g class="cls-6"><rect class="cls-7" width="32" height="32"/></g><path class="cls-8" d="M20.26,25.981A5.7,5.7,0,0,1,16.2,24.3l1.414-1.414a3.827,3.827,0,0,0,5.289,0,3.738,3.738,0,0,0,0-5.289l1.414-1.414a5.74,5.74,0,0,1-4.058,9.8Z"/></g></g></svg>