<svg xmlns="http://www.w3.org/2000/svg" xmlns:xlink="http://www.w3.org/1999/xlink" viewBox="0 0 32 32"><defs><style>.cls-1{fill:#fff;}.cls-2{fill:url(#linear-gradient);}.cls-3{mask:url(#mask);}.cls-4{fill:url(#linear-gradient-2);}.cls-5{fill:#f4f4f4;}</style><linearGradient id="linear-gradient" x1="68.57" y1="587.818" x2="78.57" y2="587.818" gradientTransform="translate(-48.57 -570.812)" gradientUnits="userSpaceOnUse"><stop offset="0.001" stop-opacity="0"/><stop offset="0.83"/></linearGradient><mask id="mask" x="0" y="0" width="32" height="32" maskUnits="userSpaceOnUse"><path class="cls-1" d="M24,4.006V26.757l-7.1-3.589-.9-.457-.9.456L8,26.754V4.006H24m0-2H8a2,2,0,0,0-2,2v26l10-5.054,10,5.054v-26A2,2,0,0,0,24,2.006Z"/><g id="Gradients_black_" data-name="Gradients (black)"><rect class="cls-2" x="20" y="15.355" width="10" height="3.302" transform="translate(7.994 42.006) rotate(-90)"/></g><rect x="17" y="1.635" width="12.128" height="10.791"/></mask><linearGradient id="linear-gradient-2" y1="32" x2="32" gradientUnits="userSpaceOnUse"><stop offset="0.1" stop-color="#3ddbd9"/><stop offset="0.9" stop-color="#4589ff"/></linearGradient></defs><g id="Layer_2" data-name="Layer 2"><g id="Dark_theme_icons" data-name="Dark theme icons"><g class="cls-3"><rect class="cls-4" width="32" height="32"/></g><rect class="cls-5" x="19" y="9.006" width="4" height="4"/><rect class="cls-5" x="26" y="9.006" width="4" height="4"/><rect class="cls-5" x="19" y="2.006" width="4" height="4"/><rect class="cls-5" x="26" y="2.006" width="4" height="4"/></g></g></svg>