<svg xmlns="http://www.w3.org/2000/svg" xmlns:xlink="http://www.w3.org/1999/xlink" viewBox="0 0 32 32" height="192" width="192"><defs><style>.cls-1{fill:#fff;}.cls-2{fill:url(#linear-gradient);}.cls-3{mask:url(#mask);}.cls-4{fill:url(#linear-gradient-2);}.cls-5{fill:#f4f4f4;}</style><linearGradient id="linear-gradient" x1="15.398" y1="11.234" x2="28.29" y2="33.565" gradientUnits="userSpaceOnUse"><stop offset="0.1" stop-opacity="0"/><stop offset="0.6"/></linearGradient><mask id="mask" x="0" y="0" width="32" height="32" maskUnits="userSpaceOnUse"><path class="cls-1" d="M7.038,5.207a.77.77,0,0,1-.617-.3.758.758,0,0,1,.155-1.068A15.461,15.461,0,0,1,16.016,1a16.564,16.564,0,0,1,9.507,2.621A.759.759,0,0,1,25.7,4.686a.775.775,0,0,1-1.076.171,15.047,15.047,0,0,0-8.6-2.332A13.963,13.963,0,0,0,7.5,5.055.767.767,0,0,1,7.038,5.207Z"/><path class="cls-1" d="M28.231,12.256a.771.771,0,0,1-.63-.324c-1.733-2.444-4.819-5.693-11.585-5.693A14.027,14.027,0,0,0,4.391,11.944a.775.775,0,0,1-1.075.165.759.759,0,0,1-.168-1.066A15.543,15.543,0,0,1,16.016,4.714c5.618,0,9.819,2.074,12.844,6.341a.758.758,0,0,1-.187,1.062A.77.77,0,0,1,28.231,12.256Z"/><path class="cls-1" d="M12.279,31a.768.768,0,0,1-.717-.488.759.759,0,0,1,.44-.986c4.368-1.675,6.976-5.118,6.976-9.21A2.8,2.8,0,0,0,16,17.285c-1.856,0-2.758,1-3.034,3.342a4.255,4.255,0,0,1-4.512,3.83,4.271,4.271,0,0,1-4.329-4.588A11.717,11.717,0,0,1,16.044,8.393,11.989,11.989,0,0,1,28.072,20.316a18.532,18.532,0,0,1-1.4,6.5.771.771,0,0,1-1.007.408.76.76,0,0,1-.411-1,17.163,17.163,0,0,0,1.275-5.912,10.455,10.455,0,0,0-10.489-10.4,10.184,10.184,0,0,0-10.38,9.951,2.771,2.771,0,0,0,2.79,3.063,2.733,2.733,0,0,0,2.983-2.481c.367-3.113,1.9-4.692,4.563-4.692a4.306,4.306,0,0,1,4.517,4.557c0,4.747-2.975,8.722-7.96,10.633A.776.776,0,0,1,12.279,31Z"/><path class="cls-1" d="M19.774,30.278a.774.774,0,0,1-.522-.2A.759.759,0,0,1,19.208,29a12.612,12.612,0,0,0,3.541-8.682c0-1.56-.483-6.649-6.694-6.649a6.833,6.833,0,0,0-4.942,1.872A6.209,6.209,0,0,0,9.316,20a.766.766,0,0,1-.768.764h0A.766.766,0,0,1,7.777,20a7.717,7.717,0,0,1,2.247-5.542,8.343,8.343,0,0,1,6.031-2.319c6.077,0,8.233,4.4,8.233,8.174a14.107,14.107,0,0,1-3.948,9.716A.769.769,0,0,1,19.774,30.278Z"/><path class="cls-1" d="M8.658,27.738A14.147,14.147,0,0,1,7.1,27.647a.763.763,0,1,1,.172-1.516c2.486.279,4.452-.164,5.837-1.317a6.364,6.364,0,0,0,2.124-4.53.75.75,0,0,1,.817-.714.766.766,0,0,1,.72.808A7.89,7.89,0,0,1,14.1,25.983,8.244,8.244,0,0,1,8.658,27.738Z"/><polygon class="cls-2" points="14 15 21 8 25 11 32 22 31 32 17 32 17 30 22 23 21 17 19.276 15.276 14 15"/></mask><linearGradient id="linear-gradient-2" y1="32" x2="32" gradientUnits="userSpaceOnUse"><stop offset="0.1" stop-color="#6fdc8c"/><stop offset="0.9" stop-color="#009d9a"/></linearGradient></defs><g id="Layer_2" data-name="Layer 2"><g id="Dark_theme_icons" data-name="Dark theme icons"><g class="cls-3"><rect class="cls-4" width="32" height="32"/></g><polygon class="cls-5" points="24.057 28.18 21.877 26 20.467 27.409 24.057 31 30.057 25 28.647 23.59 24.057 28.18"/></g></g></svg>