<svg xmlns="http://www.w3.org/2000/svg" xmlns:xlink="http://www.w3.org/1999/xlink" viewBox="0 0 32 32" height="192" width="192"><defs><style>.cls-1{fill:#fff;}.cls-2{fill:url(#linear-gradient);}.cls-3{fill:url(#linear-gradient-2);}.cls-4{mask:url(#mask);}.cls-5{fill:url(#linear-gradient-3);}.cls-6{fill:#f4f4f4;}</style><linearGradient id="linear-gradient" x1="-148.903" y1="-24.5" x2="-138.903" y2="-24.5" gradientTransform="translate(153.903 49.5)" gradientUnits="userSpaceOnUse"><stop offset="0.001" stop-opacity="0"/><stop offset="0.83"/></linearGradient><linearGradient id="linear-gradient-2" x1="2315.5" y1="627.553" x2="2325.5" y2="627.553" gradientTransform="translate(-2295.447 -610.553)" gradientUnits="userSpaceOnUse"><stop offset="0" stop-opacity="0"/><stop offset="0.6"/></linearGradient><mask id="mask" x="0" y="0" width="32" height="32" maskUnits="userSpaceOnUse"><path class="cls-1" d="M14,26H6.005a4.01,4.01,0,0,1-4-4V12A4.006,4.006,0,0,1,6,8h8v2H6a2,2,0,0,0-2,2V22a2.007,2.007,0,0,0,2.005,2h8Z"/><g id="Gradients_black_" data-name="Gradients (black)"><rect class="cls-2" x="5" y="23" width="10" height="4"/></g><path class="cls-1" d="M14.69,31l-1.732-1,3.465-6H22a2.007,2.007,0,0,0,2-2V13h2V22a4.01,4.01,0,0,1-4,4H17.577Z"/><rect class="cls-3" x="20.053" y="15" width="10" height="4" transform="translate(8.053 42.053) rotate(-90)"/></mask><linearGradient id="linear-gradient-3" y1="32" x2="32" gradientUnits="userSpaceOnUse"><stop offset="0.1" stop-color="#be95ff"/><stop offset="0.9" stop-color="#4589ff"/></linearGradient></defs><g id="Layer_2" data-name="Layer 2"><g id="Dark_theme_icons" data-name="Dark theme icons"><g class="cls-4"><rect class="cls-5" width="32" height="32"/></g><circle class="cls-6" cx="10" cy="17" r="1"/><circle class="cls-6" cx="14" cy="17" r="1"/><circle class="cls-6" cx="18" cy="17" r="1"/><path class="cls-6" d="M28,2H18a2,2,0,0,0-2,2v6a2,2,0,0,0,2,2h2.422l1.731,3,1.733-1-2.31-4H18V4H28v6H25v2h3a2,2,0,0,0,2-2V4A2,2,0,0,0,28,2Z"/></g></g></svg>