<svg xmlns="http://www.w3.org/2000/svg" xmlns:xlink="http://www.w3.org/1999/xlink" viewBox="0 0 32 32" height="192" width="192"><defs><style>.cls-1{fill:#fff;}.cls-2{fill:url(#linear-gradient);}.cls-3{mask:url(#mask);}.cls-4{fill:url(#linear-gradient-2);}.cls-5{fill:#f4f4f4;}</style><linearGradient id="linear-gradient" x1="-508.192" y1="-2552.869" x2="-518.092" y2="-2562.768" gradientTransform="translate(-1435.804 2194.992) rotate(45)" gradientUnits="userSpaceOnUse"><stop offset="0.146" stop-opacity="0"/><stop offset="0.878"/></linearGradient><mask id="mask" x="0" y="0" width="32" height="32" maskUnits="userSpaceOnUse"><path class="cls-1" d="M30.494,29.09l-7.84-7.84A12.011,12.011,0,0,0,14.277,2.044,12.088,12.088,0,0,0,5.1,5l-.749.662,1.324,1.5L6.423,6.5a10.025,10.025,0,0,1,16.616,8.52,9.945,9.945,0,0,1-2.851,6.043l-.084.083c-.223.219-.455.431-.7.631a10.023,10.023,0,0,1-13.672-.933l-.682-.731L3.587,21.474l.681.732a12.012,12.012,0,0,0,7.587,3.767,12.163,12.163,0,0,0,1.233.062,11.927,11.927,0,0,0,7.581-2.711c.227-.185.437-.384.648-.583L29.08,30.5Z"/><rect class="cls-2" x="5.505" y="16.495" width="8.99" height="14" transform="translate(-13.495 33.495) rotate(-90)"/></mask><linearGradient id="linear-gradient-2" y1="32" x2="32" gradientUnits="userSpaceOnUse"><stop offset="0.1" stop-color="#be95ff"/><stop offset="0.9" stop-color="#4589ff"/></linearGradient></defs><g id="Layer_2" data-name="Layer 2"><g id="Dark_theme_icons" data-name="Dark theme icons"><g class="cls-3"><rect id="Color" class="cls-4" width="32" height="32"/></g><circle class="cls-5" cx="3" cy="10.053" r="1"/><rect class="cls-5" x="6" y="9.053" width="8" height="2"/><circle class="cls-5" cx="3" cy="18.033" r="1"/><rect class="cls-5" x="6" y="17.032" width="8" height="2"/><circle class="cls-5" cx="13" cy="14.043" r="1"/><rect class="cls-5" x="2" y="13.042" width="8" height="2"/></g></g></svg>