<svg xmlns="http://www.w3.org/2000/svg" xmlns:xlink="http://www.w3.org/1999/xlink" viewBox="0 0 32 32" height="192" width="192"><defs><style>.cls-1{fill:#fff;}.cls-2{fill:url(#linear-gradient);}.cls-3{fill:url(#linear-gradient-2);}.cls-4{mask:url(#mask);}.cls-5{fill:url(#linear-gradient-3);}.cls-6{fill:#f4f4f4;}</style><linearGradient id="linear-gradient" x1="312" y1="24.5" x2="320" y2="24.5" gradientTransform="matrix(1, 0, 0, -1, -296, 49)" gradientUnits="userSpaceOnUse"><stop offset="0" stop-opacity="0"/><stop offset="0.8"/></linearGradient><linearGradient id="linear-gradient-2" x1="-3683" y1="-3597" x2="-3675" y2="-3597" gradientTransform="matrix(1, 0, 0, -1, 3693, -3591)" xlink:href="#linear-gradient"/><mask id="mask" x="0" y="0" width="32" height="32" maskUnits="userSpaceOnUse"><path class="cls-1" d="M4,14H6V12a5.006,5.006,0,0,1,5-5h6V5H11a7.008,7.008,0,0,0-7,7Z"/><path class="cls-1" d="M17,26h4a7.008,7.008,0,0,0,7-7V17H26v2a5.006,5.006,0,0,1-5,5H17Z"/><rect class="cls-2" x="16" y="22" width="8" height="5" transform="translate(40 49) rotate(-180)"/><rect class="cls-3" x="10" y="4" width="8" height="4"/><path class="cls-1" d="M14,18H4a2,2,0,0,0-2,2v6a2,2,0,0,0,2,2H6.423l1.731,3,1.733-1-2.31-4H4V20H14v6H11v2h3a2,2,0,0,0,2-2V20A2,2,0,0,0,14,18Z"/></mask><linearGradient id="linear-gradient-3" x1="2852.504" y1="31.538" x2="2821.288" y2="0.322" gradientTransform="matrix(1, 0, 0, -1, -2820.966, 32)" gradientUnits="userSpaceOnUse"><stop offset="0.1" stop-color="#be95ff"/><stop offset="0.9" stop-color="#4589ff"/></linearGradient></defs><g id="Layer_2" data-name="Layer 2"><g id="Dark_theme_icons" data-name="Dark theme icons"><g class="cls-4"><rect class="cls-5" width="32" height="32" transform="translate(32 32) rotate(-180)"/></g><rect class="cls-6" x="18" y="7" width="12" height="2"/><rect class="cls-6" x="18" y="11" width="6" height="2"/><rect class="cls-6" x="18" y="3" width="12" height="2"/></g></g></svg>