<svg xmlns="http://www.w3.org/2000/svg" xmlns:xlink="http://www.w3.org/1999/xlink" viewBox="0 0 32 32"><defs><style>.cls-1{fill:#fff;}.cls-2{fill:url(#linear-gradient);}.cls-3{mask:url(#mask);}.cls-4{fill:url(#linear-gradient-2);}.cls-5{fill:#f4f4f4;}</style><linearGradient id="linear-gradient" x1="6" y1="23" x2="17" y2="23" gradientUnits="userSpaceOnUse"><stop offset="0" stop-opacity="0"/><stop offset="0.9"/></linearGradient><mask id="mask" x="0" y="0" width="32" height="32" maskUnits="userSpaceOnUse"><path class="cls-1" d="M17.736,30,16,29l4-7h6a2,2,0,0,0,2-2V8a2,2,0,0,0-2-2H6A2,2,0,0,0,4,8V20a2,2,0,0,0,2,2H16v2H6a4,4,0,0,1-4-4V8A4,4,0,0,1,6,4H26a4,4,0,0,1,4,4V20a4,4,0,0,1-4,4H21.165Z"/><rect class="cls-2" x="6" y="21" width="11" height="4"/></mask><linearGradient id="linear-gradient-2" y1="32" x2="32" gradientUnits="userSpaceOnUse"><stop offset="0.1" stop-color="#be95ff"/><stop offset="0.9" stop-color="#4589ff"/></linearGradient></defs><g id="Layer_2" data-name="Layer 2"><g id="Dark_theme_icons" data-name="Dark theme icons"><g class="cls-3"><rect class="cls-4" width="32" height="32"/></g><rect class="cls-5" x="8.003" y="10" width="15.997" height="2"/><rect class="cls-5" x="8.003" y="16" width="9.997" height="2"/></g></g></svg>