<svg xmlns="http://www.w3.org/2000/svg" xmlns:xlink="http://www.w3.org/1999/xlink" viewBox="0 0 32 32" height="192" width="192"><defs><style>.cls-1{fill:#fff;}.cls-2{fill:url(#linear-gradient);}.cls-3{mask:url(#mask);}.cls-4{fill:url(#linear-gradient-2);}.cls-5{fill:#f4f4f4;}</style><linearGradient id="linear-gradient" x1="-2883" y1="3431" x2="-2875" y2="3431" gradientTransform="translate(2906 -3414)" gradientUnits="userSpaceOnUse"><stop offset="0.001" stop-opacity="0"/><stop offset="0.7"/></linearGradient><mask id="mask" x="0" y="0" width="32" height="32" maskUnits="userSpaceOnUse"><path class="cls-1" d="M28.759,11.349A1,1,0,0,0,28,11H22V7a3,3,0,0,0-3-3H13a3,3,0,0,0-3,3v4H4a1,1,0,0,0-.988,1.152L4.881,24.305A1.99,1.99,0,0,0,6.858,26H25.142a1.989,1.989,0,0,0,1.977-1.7l1.869-12.153A1,1,0,0,0,28.759,11.349ZM12,7a1,1,0,0,1,1-1h6a1,1,0,0,1,1,1v4H12ZM25.142,24H6.858L5.166,13H26.834Z"/><g id="Gradients_black_" data-name="Gradients (black)"><rect class="cls-2" x="23" y="14" width="8" height="6" transform="translate(44 -10) rotate(90)"/></g><rect x="16" y="20" width="14" height="8"/></mask><linearGradient id="linear-gradient-2" y1="32" x2="32" gradientUnits="userSpaceOnUse"><stop offset="0.1" stop-color="#3ddbd9"/><stop offset="0.9" stop-color="#4589ff"/></linearGradient></defs><g id="Layer_2" data-name="Layer 2"><g id="Dark_theme_icons" data-name="Dark theme icons"><g class="cls-3"><rect id="Color" class="cls-4" width="32" height="32"/></g><polygon class="cls-5" points="23.142 25.178 20.552 22.588 19.142 24 23.142 28 30.142 21 28.732 19.588 23.142 25.178"/></g></g></svg>