<svg xmlns="http://www.w3.org/2000/svg" xmlns:xlink="http://www.w3.org/1999/xlink" viewBox="0 0 32 32" height="192" width="192"><defs><style>.cls-1{fill:#fff;}.cls-2{fill:url(#linear-gradient);}.cls-3{mask:url(#mask);}.cls-4{fill:url(#linear-gradient-2);}.cls-5{fill:#f4f4f4;}</style><linearGradient id="linear-gradient" x1="28.5" y1="23" x2="28.5" y2="12" gradientUnits="userSpaceOnUse"><stop offset="0" stop-opacity="0"/><stop offset="0.9"/></linearGradient><mask id="mask" x="0" y="0" width="32" height="32" maskUnits="userSpaceOnUse"><path class="cls-1" d="M27,13v9.438L16,28.847h0L5,22.438V9H3V23.012a1,1,0,0,0,.5.864l11.99,6.988a1,1,0,0,0,.5.136h.02a1,1,0,0,0,.5-.136L28.5,23.876a1,1,0,0,0,.5-.864V13Z"/><path class="cls-1" d="M19.014,15.545,17.986,13.83l8.047-4.818L16.017,3.18,13,4.917,12.992,10l-2,0L11,4.336a1,1,0,0,1,.5-.865l4.02-2.313a1,1,0,0,1,1,0L28.5,8.136a1,1,0,0,1,.011,1.722Z"/><rect class="cls-1" x="7" y="6" width="2" height="10"/><rect class="cls-2" x="26" y="12" width="5" height="11"/></mask><linearGradient id="linear-gradient-2" x1="-5137" y1="5169" x2="-5169" y2="5201" gradientTransform="matrix(1, 0, 0, -1, 5169, 5201)" gradientUnits="userSpaceOnUse"><stop offset="0.1" stop-color="#be95ff"/><stop offset="0.9" stop-color="#4589ff"/></linearGradient></defs><g id="Layer_2" data-name="Layer 2"><g id="Dark_theme_icons" data-name="Dark theme icons"><g class="cls-3"><rect class="cls-4" width="32" height="32" transform="translate(32 0) rotate(90)"/></g><path class="cls-5" d="M16,20a4,4,0,1,1,4-4A4,4,0,0,1,16,20Zm0-6a2,2,0,1,0,2,2A2,2,0,0,0,16,14Z"/></g></g></svg>