<svg xmlns="http://www.w3.org/2000/svg" viewBox="0 0 32 32"><defs><linearGradient id="a" x1="554.39" y1="497.903" x2="565.5" y2="497.903" gradientTransform="translate(-534.945 -482.458)" gradientUnits="userSpaceOnUse"><stop offset=".015" stop-opacity="0"/><stop offset=".8"/></linearGradient><linearGradient id="c" y1="32" x2="32" gradientUnits="userSpaceOnUse"><stop offset=".1" stop-color="#be95ff"/><stop offset=".9" stop-color="#4589ff"/></linearGradient><mask id="b" x="0" y="0" width="32" height="32" maskUnits="userSpaceOnUse"><path d="M24 2H4a2 2 0 00-2 2v22a2 2 0 002 2h11V4h9v16h2V4a2 2 0 00-2-2zM12.633 12.173L4 23.945V5.11zM4.974 26L13 15.055V26zM13 9.89L5.8 4H13z" fill="#fff"/><path transform="rotate(90 25 15.445)" fill="url(#a)" d="M19.445 13.445h11.11v4h-11.11z" data-name="Gradients (black)"/></mask></defs><g data-name="Layer 2"><g data-name="Dark theme icons"><g mask="url(#b)"><path fill="url(#c)" d="M0 0h32v32H0z"/></g><path d="M29.7 28.287l-3.42-3.366a4.562 4.562 0 10-1.431 1.4l3.45 3.394zM22.5 25a2.5 2.5 0 112.5-2.5 2.5 2.5 0 01-2.5 2.5z" fill="#f4f4f4"/></g></g></svg>