<svg xmlns="http://www.w3.org/2000/svg" xmlns:xlink="http://www.w3.org/1999/xlink" viewBox="0 0 32 32"><defs><style>.cls-1{fill:#fff;}.cls-2{fill:url(#linear-gradient);}.cls-3{mask:url(#mask);}.cls-4{fill:url(#linear-gradient-2);}.cls-5{fill:#f4f4f4;}</style><linearGradient id="linear-gradient" x1="554.39" y1="497.903" x2="565.5" y2="497.903" gradientTransform="translate(-534.945 -482.458)" gradientUnits="userSpaceOnUse"><stop offset="0.015" stop-opacity="0"/><stop offset="0.8"/></linearGradient><mask id="mask" x="0" y="0" width="32" height="32" maskUnits="userSpaceOnUse"><path class="cls-1" d="M24,2H4A2,2,0,0,0,2,4V26a2,2,0,0,0,2,2H15V4h9V20h2V4A2,2,0,0,0,24,2ZM12.633,12.173,4,23.945V5.11ZM4.974,26,13,15.055V26ZM13,9.89,5.8,4H13Z"/><g id="Gradients_black_" data-name="Gradients (black)"><rect class="cls-2" x="19.445" y="13.445" width="11.11" height="4" transform="translate(40.445 -9.555) rotate(90)"/></g></mask><linearGradient id="linear-gradient-2" y1="32" x2="32" gradientUnits="userSpaceOnUse"><stop offset="0.1" stop-color="#be95ff"/><stop offset="0.9" stop-color="#4589ff"/></linearGradient></defs><g id="Layer_2" data-name="Layer 2"><g id="Dark_theme_icons" data-name="Dark theme icons"><g class="cls-3"><rect class="cls-4" width="32" height="32"/></g><path class="cls-5" d="M29.7,28.287,26.28,24.921a4.562,4.562,0,1,0-1.431,1.4l3.45,3.394ZM22.5,25A2.5,2.5,0,1,1,25,22.5,2.5,2.5,0,0,1,22.5,25Z"/></g></g></svg>