<svg version="1.1" id="Layer_1" xmlns="http://www.w3.org/2000/svg" x="0" y="0" viewBox="0 0 928 152" xml:space="preserve"><style>.st0{enable-background:new}.st1{fill:#f3f3f3}</style><g id="Desktop"><g id="Icons-Copy-2" transform="translate(-351 -20381)"><g id="Group-7-Copy-2" transform="translate(351 20381)"><path id="Rectangle-Copy-32" d="M0 0h928v152H0z"/><g class="st0"><path class="st1" d="M64.2 108.7c-.4.8-.9 1.5-2.3 1.5-2.1 0-3.2-1.8-3.2-5 0-3.3 1.1-5.1 3.5-5.1 1.8 0 2.6 1.1 3 2.1l-1 .5c-.4-.9-.8-1.6-2-1.6-1.6 0-2.3 1.3-2.3 3.2v1.5c0 2 .6 3.3 2.2 3.3 1.3 0 2-.9 2-2.1v-1H62v-.9h3.2v4.8h-1.1v-1.2zm3.3.3h2.1v-5.3h-2.1v-1h3.2v1.8h.1c.3-1 .9-1.8 2.4-1.8h1v1.1h-1.4c-1.4 0-2.2.9-2.2 2v3.1h2.8v1h-6v-.9zm14.2 1c-.9 0-1.2-.5-1.3-1.2h-.1c-.3.8-1 1.3-2.2 1.3-1.5 0-2.5-.8-2.5-2.2 0-1.3.9-2.1 3.1-2.1h1.5v-.7c0-1.1-.6-1.6-1.7-1.6-1 0-1.6.4-1.9 1.1l-.8-.6c.4-.8 1.3-1.5 2.8-1.5 1.7 0 2.8.9 2.8 2.4v4h1v1h-.7zm-1.3-2.1v-1.2h-1.5c-1.3 0-1.9.4-1.9 1.1v.3c0 .7.6 1.1 1.5 1.1 1 0 1.9-.6 1.9-1.3zm9.3-5.1h1.1l-3.6 8.8c-.3.8-.8 1.2-1.8 1.2h-1.1v-1H86l.8-2-2.9-7.1H85l1.2 3 1.1 2.7h.1l1.1-2.7 1.2-2.9zm11.5 7.2v-1h2.8v-7.9h-.1l-2.5 2.3-.7-.7 2.6-2.4h1.8v8.8h2.6v1h-6.5zm8-4.9c0-3.2 1-5.1 3.4-5.1s3.4 1.9 3.4 5.1-1 5.1-3.4 5.1-3.4-1.9-3.4-5.1zm5.6.8v-1.6c0-2-.6-3.2-2.2-3.2s-2.2 1.3-2.2 3.2v1.6c0 2 .6 3.2 2.2 3.2s2.2-1.2 2.2-3.2zm-3.1-.6v-.3c0-.4.2-.7.9-.7.6 0 .9.3.9.7v.3c0 .4-.2.7-.9.7-.6-.1-.9-.4-.9-.7zm8.7 2.8h1.8l-1.6 3.9h-.9l.7-3.9zm18.5 1.9v-1.9h-4.8v-1l4.2-6.8h1.7v6.9h1.5v1H140v1.9h-1.1zm-3.8-2.9h3.8v-6h-.1l-3.7 6zm7.7-2c0-3.2 1-5.1 3.4-5.1s3.4 1.9 3.4 5.1-1 5.1-3.4 5.1-3.4-1.9-3.4-5.1zm5.6.8v-1.6c0-2-.6-3.2-2.2-3.2s-2.2 1.3-2.2 3.2v1.6c0 2 .6 3.2 2.2 3.2s2.2-1.2 2.2-3.2zm-3.1-.6v-.3c0-.4.2-.7.9-.7.6 0 .9.3.9.7v.3c0 .4-.2.7-.9.7-.6-.1-.9-.4-.9-.7zm7.6.5h1l-2.2 4.2h-1l2.2-4.2zm-2.2-3.3c0-1.6.9-2.5 2.1-2.5s2.1.8 2.1 2.5-.9 2.5-2.1 2.5-2.1-.8-2.1-2.5zm3.2.4v-.7c0-.9-.5-1.4-1.1-1.4s-1.1.5-1.1 1.4v.7c0 .9.5 1.4 1.1 1.4s1.1-.5 1.1-1.4zm.4 4.8c0-1.6.9-2.5 2.1-2.5s2.1.8 2.1 2.5c0 1.6-.9 2.5-2.1 2.5s-2.1-.9-2.1-2.5zm3.2-7.5h1l-2.2 4.2h-1l2.2-4.2zm.1 7.8v-.7c0-.9-.5-1.4-1.1-1.4s-1.1.5-1.1 1.4v.7c0 .9.5 1.4 1.1 1.4s1.1-.5 1.1-1.4zm10.5-1.6c0-2.3 1.2-3.8 3.3-3.8 2 0 3.3 1.5 3.3 3.8s-1.2 3.8-3.3 3.8c-2 0-3.3-1.5-3.3-3.8zm5.4.5v-1c0-1.6-.8-2.3-2.1-2.3s-2.1.7-2.1 2.3v1c0 1.6.8 2.3 2.1 2.3s2.1-.7 2.1-2.3zm3.4-4.1h1.1v1.2h.1c.5-.9 1.2-1.3 2.2-1.3 1.8 0 2.8 1.4 2.8 3.8s-1.1 3.8-2.8 3.8c-1 0-1.8-.5-2.2-1.3h-.1v4h-1.1v-10.2zm5.1 4.2v-1.2c0-1.3-.8-2.2-2.1-2.2-1 0-1.8.5-1.8 1.5v2.6c0 1 .9 1.5 1.8 1.5 1.3 0 2.1-.9 2.1-2.2zm8.9 3c-.9 0-1.2-.5-1.3-1.2h-.1c-.3.8-1 1.3-2.2 1.3-1.5 0-2.5-.8-2.5-2.2 0-1.3.9-2.1 3.1-2.1h1.5v-.7c0-1.1-.6-1.6-1.7-1.6-1 0-1.6.4-1.9 1.1l-.8-.6c.4-.8 1.3-1.5 2.8-1.5 1.7 0 2.8.9 2.8 2.4v4h1v1h-.7zm-1.3-2.1v-1.2H188c-1.3 0-1.9.4-1.9 1.1v.3c0 .7.6 1.1 1.5 1.1 1.1 0 2-.6 2-1.3zm4-1.5c0-2.3 1.2-3.8 3.3-3.8 1.4 0 2.3.7 2.7 1.7l-.9.5c-.3-.7-.9-1.2-1.8-1.2-1.3 0-2.1.9-2.1 2.2v1.2c0 1.3.7 2.2 2.1 2.2 1 0 1.6-.5 2-1.3l.8.5c-.4 1-1.3 1.7-2.8 1.7-2.1.1-3.3-1.4-3.3-3.7zm8.7 2.6h2.6v-5.3h-2.6v-1h3.7v6.3h2.4v1h-6.2v-1zm2.3-8.5v-.2c0-.4.2-.7.9-.7.6 0 .9.3.9.7v.2c0 .4-.2.7-.9.7s-.9-.3-.9-.7zm9.2 9.5c-1.1 0-1.6-.7-1.6-1.7v-4.6h-2.4v-1h1.8c.5 0 .7-.2.7-.7v-1.9h1.1v2.5h3.3v1h-3.3v5.3h3.3v1h-2.9zm10.3-7.2h1.1l-3.6 8.8c-.3.8-.8 1.2-1.8 1.2h-1.1v-1h1.7l.8-2-2.9-7.1h1.1l1.2 3 1.1 2.7h.1l1.1-2.7 1.2-2.9z"/></g><g class="st0"><path class="st1" d="M708.6 108.7c-.4.8-.9 1.5-2.3 1.5-2.1 0-3.2-1.8-3.2-5 0-3.3 1.1-5.1 3.5-5.1 1.8 0 2.6 1.1 3 2.1l-1 .5c-.4-.9-.8-1.6-2-1.6-1.6 0-2.3 1.3-2.3 3.2v1.5c0 2 .6 3.3 2.2 3.3 1.3 0 2-.9 2-2.1v-1h-2.1v-.9h3.2v4.8h-1.1v-1.2zm3.2.3h2.1v-5.3h-2.1v-1h3.2v1.8h.1c.3-1 .9-1.8 2.4-1.8h1v1.1h-1.4c-1.4 0-2.2.9-2.2 2v3.1h2.8v1h-6v-.9zm14.3 1c-.9 0-1.2-.5-1.3-1.2h-.1c-.3.8-1 1.3-2.2 1.3-1.5 0-2.5-.8-2.5-2.2 0-1.3.9-2.1 3.1-2.1h1.5v-.7c0-1.1-.6-1.6-1.7-1.6-1 0-1.6.4-1.9 1.1l-.8-.6c.4-.8 1.3-1.5 2.8-1.5 1.7 0 2.8.9 2.8 2.4v4h1v1h-.7zm-1.4-2.1v-1.2h-1.5c-1.3 0-1.9.4-1.9 1.1v.3c0 .7.6 1.1 1.5 1.1 1.1 0 1.9-.6 1.9-1.3zm9.4-5.1h1.1l-3.6 8.8c-.3.8-.8 1.2-1.8 1.2h-1.1v-1h1.7l.8-2-2.9-7.1h1.1l1.2 3 1.1 2.7h.1l1.1-2.7 1.2-2.9zm11.4 7.2v-1h2.8v-7.9h-.1l-2.5 2.3-.7-.7 2.6-2.4h1.8v8.8h2.6v1h-6.5zm8-4.9c0-3.2 1-5.1 3.4-5.1s3.4 1.9 3.4 5.1-1 5.1-3.4 5.1-3.4-1.9-3.4-5.1zm5.7.8v-1.6c0-2-.6-3.2-2.2-3.2s-2.2 1.3-2.2 3.2v1.6c0 2 .6 3.2 2.2 3.2s2.2-1.2 2.2-3.2zm-3.1-.6v-.3c0-.4.2-.7.9-.7.6 0 .9.3.9.7v.3c0 .4-.2.7-.9.7-.7-.1-.9-.4-.9-.7zm8.7 2.8h1.8L765 112h-1l.8-3.9zm14.3 1.9v-1h2.8v-7.9h-.1l-2.5 2.3-.7-.7 2.6-2.4h1.8v8.8h2.6v1h-6.5zm8-4.9c0-3.2 1-5.1 3.4-5.1s3.4 1.9 3.4 5.1-1 5.1-3.4 5.1c-2.3 0-3.4-1.9-3.4-5.1zm5.7.8v-1.6c0-2-.6-3.2-2.2-3.2s-2.2 1.3-2.2 3.2v1.6c0 2 .6 3.2 2.2 3.2 1.5 0 2.2-1.2 2.2-3.2zm-3.1-.6v-.3c0-.4.2-.7.9-.7.6 0 .9.3.9.7v.3c0 .4-.2.7-.9.7-.7-.1-.9-.4-.9-.7zm7.5.5h1L796 110h-1l2.2-4.2zm-2.2-3.3c0-1.6.9-2.5 2.1-2.5s2.1.8 2.1 2.5-.9 2.5-2.1 2.5-2.1-.8-2.1-2.5zm3.3.4v-.7c0-.9-.5-1.4-1.1-1.4s-1.1.5-1.1 1.4v.7c0 .9.5 1.4 1.1 1.4s1.1-.5 1.1-1.4zm.4 4.8c0-1.6.9-2.5 2.1-2.5s2.1.8 2.1 2.5c0 1.6-.9 2.5-2.1 2.5s-2.1-.9-2.1-2.5zm3.2-7.5h1l-2.2 4.2h-1l2.2-4.2zm0 7.8v-.7c0-.9-.5-1.4-1.1-1.4s-1.1.5-1.1 1.4v.7c0 .9.5 1.4 1.1 1.4s1.1-.5 1.1-1.4zm10.6-1.6c0-2.3 1.2-3.8 3.3-3.8 2 0 3.3 1.5 3.3 3.8s-1.2 3.8-3.3 3.8c-2.1 0-3.3-1.5-3.3-3.8zm5.3.5v-1c0-1.6-.8-2.3-2.1-2.3s-2.1.7-2.1 2.3v1c0 1.6.8 2.3 2.1 2.3s2.1-.7 2.1-2.3zm3.5-4.1h1.1v1.2h.1c.5-.9 1.2-1.3 2.2-1.3 1.8 0 2.8 1.4 2.8 3.8s-1.1 3.8-2.8 3.8c-1 0-1.8-.5-2.2-1.3h-.1v4h-1.1v-10.2zm5 4.2v-1.2c0-1.3-.8-2.2-2.1-2.2-1 0-1.8.5-1.8 1.5v2.6c0 1 .9 1.5 1.8 1.5 1.4 0 2.1-.9 2.1-2.2zm9 3c-.9 0-1.2-.5-1.3-1.2h-.1c-.3.8-1 1.3-2.2 1.3-1.5 0-2.5-.8-2.5-2.2 0-1.3.9-2.1 3.1-2.1h1.5v-.7c0-1.1-.6-1.6-1.7-1.6-1 0-1.6.4-1.9 1.1l-.8-.6c.4-.8 1.3-1.5 2.8-1.5 1.7 0 2.8.9 2.8 2.4v4h1v1h-.7zm-1.4-2.1v-1.2h-1.5c-1.3 0-1.9.4-1.9 1.1v.3c0 .7.6 1.1 1.5 1.1 1.1 0 1.9-.6 1.9-1.3zm4-1.5c0-2.3 1.2-3.8 3.3-3.8 1.4 0 2.3.7 2.7 1.7l-.9.5c-.3-.7-.9-1.2-1.8-1.2-1.3 0-2.1.9-2.1 2.2v1.2c0 1.3.7 2.2 2.1 2.2 1 0 1.6-.5 2-1.3l.8.5c-.4 1-1.3 1.7-2.8 1.7-2.1.1-3.3-1.4-3.3-3.7zm8.7 2.6h2.6v-5.3h-2.6v-1h3.7v6.3h2.4v1h-6.2v-1zm2.3-8.5v-.2c0-.4.2-.7.9-.7s.9.3.9.7v.2c0 .4-.2.7-.9.7s-.9-.3-.9-.7zm9.2 9.5c-1.1 0-1.6-.7-1.6-1.7v-4.6h-2.4v-1h1.8c.5 0 .7-.2.7-.7v-1.9h1.1v2.5h3.3v1h-3.3v5.3h3.3v1h-2.9zm10.4-7.2h1.1l-3.6 8.8c-.3.8-.8 1.2-1.8 1.2h-1.1v-1h1.7l.8-2-2.9-7.1h1.1l1.2 3 1.1 2.7h.1l1.1-2.7 1.2-2.9z"/></g><linearGradient id="Rectangle-Copy-14_1_" gradientUnits="userSpaceOnUse" x1="-3370.843" y1="4392.208" x2="-3369.843" y2="4392.208" gradientTransform="matrix(812 0 0 -24 2737183 105489)"><stop offset="0" stop-color="#f3f3f3" stop-opacity=".4"/><stop offset="1" stop-color="#f3f3f3" stop-opacity=".1"/></linearGradient><path id="Rectangle-Copy-14" fill="url(#Rectangle-Copy-14_1_)" d="M58 64h812v24H58z"/></g></g></g></svg>