<svg xmlns="http://www.w3.org/2000/svg" xmlns:xlink="http://www.w3.org/1999/xlink" width="288" height="288" version="1.1" viewBox="0 0 288 288"><title>Group 5</title><desc>Created with Sketch.</desc><g id="Page-1" fill="none" fill-rule="evenodd" stroke="none" stroke-width="1"><g id="Icons-Copy" transform="translate(-352.000000, -3804.000000)"><g id="Group-5" transform="translate(352.000000, 3804.000000)"><g id="Padding-do-Copy" fill="#FFF"><rect id="Rectangle-3" width="288" height="288" x="0" y="0"/></g><g id="Group-30" stroke="#DCDCDC" stroke-linecap="square" transform="translate(51.000000, 51.000000)"><g id="Group-3" transform="translate(0.500000, 0.500000)"><g id="Grid-01"><g id="Vertical-lines" transform="translate(0.205100, 0.615299)"><path id="Line" d="M0.410199557,0 L0.410199557,183.769401"/><path id="Line" d="M17.6385809,0 L17.6385809,183.769401"/><path id="Line" d="M6.15299335,0 L6.15299335,183.769401"/><path id="Line" d="M23.3813747,0 L23.3813747,183.769401"/><path id="Line" d="M11.8957871,0 L11.8957871,183.769401"/><path id="Line" d="M29.1241685,0 L29.1241685,183.769401"/><path id="Line" d="M34.8669623,0 L34.8669623,183.769401"/><path id="Line" d="M40.6097561,0 L40.6097561,183.769401"/><path id="Line" d="M46.3525499,0 L46.3525499,183.769401"/><path id="Line" d="M52.0953437,0 L52.0953437,183.769401"/><path id="Line" d="M57.8381375,0 L57.8381375,183.769401"/><path id="Line" d="M63.5809313,0 L63.5809313,183.769401"/><path id="Line" d="M69.3237251,0 L69.3237251,183.769401"/><path id="Line" d="M75.0665188,0 L75.0665188,183.769401"/><path id="Line" d="M80.8093126,0 L80.8093126,183.769401"/><path id="Line" d="M86.5521064,0 L86.5521064,183.769401"/><path id="Line" d="M92.2949002,0 L92.2949002,183.769401"/><path id="Line" d="M98.037694,0 L98.037694,183.769401"/><path id="Line" d="M103.780488,0 L103.780488,183.769401"/><path id="Line" d="M109.523282,0 L109.523282,183.769401"/><path id="Line" d="M115.266075,0 L115.266075,183.769401"/><path id="Line" d="M121.008869,0 L121.008869,183.769401"/><path id="Line" d="M126.751663,0 L126.751663,183.769401"/><path id="Line" d="M132.494457,0 L132.494457,183.769401"/><path id="Line" d="M138.237251,0 L138.237251,183.769401"/><path id="Line" d="M143.980044,0 L143.980044,183.769401"/><path id="Line" d="M149.722838,0 L149.722838,183.769401"/><path id="Line" d="M155.465632,0 L155.465632,183.769401"/><path id="Line" d="M161.208426,0 L161.208426,183.769401"/><path id="Line" d="M166.95122,0 L166.95122,183.769401"/><path id="Line" d="M172.694013,0 L172.694013,183.769401"/><path id="Line" d="M178.436807,0 L178.436807,183.769401"/><path id="Line" d="M184.179601,0 L184.179601,183.769401"/></g><g id="Horizontal" transform="translate(92.384701, 92.705100) rotate(90.000000) translate(-92.384701, -92.705100) translate(-0.115299, 0.705100)"><path id="Line" d="M0.410199557,0 L0.410199557,183.769401"/><path id="Line" d="M17.6385809,0 L17.6385809,183.769401"/><path id="Line" d="M6.15299335,0 L6.15299335,183.769401"/><path id="Line" d="M23.3813747,0 L23.3813747,183.769401"/><path id="Line" d="M11.8957871,0 L11.8957871,183.769401"/><path id="Line" d="M29.1241685,0 L29.1241685,183.769401"/><path id="Line" d="M34.8669623,0 L34.8669623,183.769401"/><path id="Line" d="M40.6097561,0 L40.6097561,183.769401"/><path id="Line" d="M46.3525499,0 L46.3525499,183.769401"/><path id="Line" d="M52.0953437,0 L52.0953437,183.769401"/><path id="Line" d="M57.8381375,0 L57.8381375,183.769401"/><path id="Line" d="M63.5809313,0 L63.5809313,183.769401"/><path id="Line" d="M69.3237251,0 L69.3237251,183.769401"/><path id="Line" d="M75.0665188,0 L75.0665188,183.769401"/><path id="Line" d="M80.8093126,0 L80.8093126,183.769401"/><path id="Line" d="M86.5521064,0 L86.5521064,183.769401"/><path id="Line" d="M92.2949002,0 L92.2949002,183.769401"/><path id="Line" d="M98.037694,0 L98.037694,183.769401"/><path id="Line" d="M103.780488,0 L103.780488,183.769401"/><path id="Line" d="M109.523282,0 L109.523282,183.769401"/><path id="Line" d="M115.266075,0 L115.266075,183.769401"/><path id="Line" d="M121.008869,0 L121.008869,183.769401"/><path id="Line" d="M126.751663,0 L126.751663,183.769401"/><path id="Line" d="M132.494457,0 L132.494457,183.769401"/><path id="Line" d="M138.237251,0 L138.237251,183.769401"/><path id="Line" d="M143.980044,0 L143.980044,183.769401"/><path id="Line" d="M149.722838,0 L149.722838,183.769401"/><path id="Line" d="M155.465632,0 L155.465632,183.769401"/><path id="Line" d="M161.208426,0 L161.208426,183.769401"/><path id="Line" d="M166.95122,0 L166.95122,183.769401"/><path id="Line" d="M172.694013,0 L172.694013,183.769401"/><path id="Line" d="M178.436807,0 L178.436807,183.769401"/><path id="Line" d="M184.179601,0 L184.179601,183.769401"/></g></g></g></g><rect id="Rectangle-12" width="138" height="12" x="75" y="75" fill="#171717" fill-rule="nonzero"/><rect id="Rectangle-12-Copy" width="6" height="104" x="69" y="81" fill="#171717" fill-rule="nonzero"/><rect id="Rectangle-12-Copy-13" width="6" height="104" x="213" y="81" fill="#171717" fill-rule="nonzero"/><rect id="Rectangle-12-Copy-3" width="6" height="92" x="63" y="87" fill="#171717" fill-rule="nonzero"/><rect id="Rectangle-12-Copy-14" width="6" height="92" x="219" y="87" fill="#171717" fill-rule="nonzero"/><rect id="Rectangle-12-Copy-4" width="6" height="92" x="219" y="87" fill="#171717" fill-rule="nonzero"/><rect id="Rectangle-12-Copy-5" width="6" height="6" x="219" y="81" fill="#AFAFAF" fill-rule="nonzero"/><rect id="Rectangle-12-Copy-6" width="6" height="6" x="213" y="75" fill="#AFAFAF" fill-rule="nonzero"/><rect id="Rectangle-12-Copy-7" width="6" height="6" x="69" y="75" fill="#AFAFAF" fill-rule="nonzero"/><rect id="Rectangle-12-Copy-8" width="6" height="6" x="63" y="81" fill="#AFAFAF" fill-rule="nonzero"/><rect id="Rectangle-12-Copy-15" width="6" height="6" x="219" y="81" fill="#AFAFAF" fill-rule="nonzero"/><rect id="Rectangle-12-Copy-9" width="6" height="6" x="63" y="179" fill="#AFAFAF" fill-rule="nonzero"/><rect id="Rectangle-12-Copy-16" width="6" height="6" x="219" y="179" fill="#AFAFAF" fill-rule="nonzero"/><rect id="Rectangle-12-Copy-24" width="47" height="6" x="166" y="179" fill="#171717" fill-rule="nonzero"/><rect id="Rectangle-12-Copy-28" width="66" height="6" x="72" y="179" fill="#171717" fill-rule="nonzero"/><rect id="Rectangle-12-Copy-49" width="91" height="12" x="98" y="109" fill="#171717" fill-rule="nonzero"/><rect id="Rectangle-12-Copy-50" width="57" height="12" x="98" y="144" fill="#171717" fill-rule="nonzero"/><rect id="Rectangle-12-Copy-29" width="63" height="6" x="75" y="185" fill="#171717" fill-rule="nonzero"/><rect id="Rectangle-12-Copy-27" width="53" height="6" x="160" y="185" fill="#171717" fill-rule="nonzero"/><rect id="Rectangle-12-Copy-33" width="6" height="6" x="160" y="191" fill="#171717" fill-rule="nonzero"/><rect id="Rectangle-12-Copy-37" width="12" height="6" x="154" y="197" fill="#171717" fill-rule="nonzero"/><rect id="Rectangle-12-Copy-39" width="6" height="6" x="154" y="203" fill="#171717" fill-rule="nonzero"/><rect id="Rectangle-12-Copy-52" width="6" height="6" x="160" y="203" fill="#2F2F2F" fill-rule="nonzero"/><rect id="Rectangle-12-Copy-53" width="6" height="6" x="166" y="191" fill="#2F2F2F" fill-rule="nonzero"/><rect id="Rectangle-12-Copy-41" width="12" height="6" x="148" y="209" fill="#171717" fill-rule="nonzero"/><rect id="Rectangle-12-Copy-44" width="12" height="6" x="142" y="215" fill="#171717" fill-rule="nonzero"/><rect id="Rectangle-12-Copy-47" width="6" height="6" x="148" y="221" fill="#171717" fill-rule="nonzero"/><rect id="Rectangle-12-Copy-11" width="6" height="6" x="69" y="185" fill="#AFAFAF" fill-rule="nonzero"/><rect id="Rectangle-12-Copy-12" width="6" height="6" x="213" y="185" fill="#AFAFAF" fill-rule="nonzero"/><rect id="Rectangle-12-Copy-10" width="6" height="6" x="75" y="87" fill="#2F2F2F" fill-rule="nonzero"/><rect id="Rectangle-12-Copy-19" width="6" height="6" x="207" y="87" fill="#2F2F2F" fill-rule="nonzero"/><rect id="Rectangle-12-Copy-23" width="6" height="6" x="207" y="173" fill="#2F2F2F" fill-rule="nonzero"/><rect id="Rectangle-12-Copy-32" width="6" height="6" x="75" y="173" fill="#2F2F2F" fill-rule="nonzero"/><rect id="Rectangle-12-Copy-17" width="6" height="6" x="81" y="87" fill="#AFAFAF" fill-rule="nonzero"/><rect id="Rectangle-12-Copy-20" width="6" height="6" x="201" y="87" fill="#AFAFAF" fill-rule="nonzero"/><rect id="Rectangle-12-Copy-18" width="6" height="6" x="75" y="93" fill="#AFAFAF" fill-rule="nonzero"/><rect id="Rectangle-12-Copy-21" width="6" height="6" x="207" y="93" fill="#AFAFAF" fill-rule="nonzero"/><rect id="Rectangle-12-Copy-22" width="6" height="6" x="207" y="167" fill="#AFAFAF" fill-rule="nonzero"/><rect id="Rectangle-12-Copy-31" width="6" height="6" x="75" y="167" fill="#AFAFAF" fill-rule="nonzero"/><rect id="Rectangle-12-Copy-25" width="6" height="6" x="201" y="173" fill="#AFAFAF" fill-rule="nonzero"/><rect id="Rectangle-12-Copy-30" width="6" height="6" x="81" y="173" fill="#AFAFAF" fill-rule="nonzero"/><rect id="Rectangle-12-Copy-26" width="6" height="6" x="160" y="179" fill="#7F7F7F" fill-rule="nonzero"/><rect id="Rectangle-12-Copy-34" width="6" height="6" x="166" y="197" fill="#7F7F7F" fill-rule="nonzero"/><rect id="Rectangle-12-Copy-42" width="6" height="6" x="160" y="209" fill="#7F7F7F" fill-rule="nonzero"/><rect id="Rectangle-12-Copy-48" width="6" height="6" x="142" y="221" fill="#7F7F7F" fill-rule="nonzero"/><rect id="Rectangle-12-Copy-46" width="6" height="6" x="154" y="215" fill="#3F3F3F" fill-rule="nonzero"/><rect id="Rectangle-12-Copy-36" width="6" height="6" x="154" y="191" fill="#2F2F2F" fill-rule="nonzero"/><rect id="Rectangle-12-Copy-51" width="6" height="6" x="154" y="185" fill="#AFAFAF" fill-rule="nonzero"/><rect id="Rectangle-12-Copy-35" width="6" height="6" x="172" y="191" fill="#AFAFAF" fill-rule="nonzero"/><rect id="Rectangle-12-Copy-38" width="6" height="6" x="148" y="197" fill="#AFAFAF" fill-rule="nonzero"/><rect id="Rectangle-12-Copy-43" width="6" height="6" x="142" y="209" fill="#AFAFAF" fill-rule="nonzero"/><rect id="Rectangle-12-Copy-45" width="6" height="6" x="154" y="221" fill="#AFAFAF" fill-rule="nonzero"/><rect id="Rectangle-12-Copy-40" width="6" height="6" x="148" y="203" fill="#3F3F3F" fill-rule="nonzero"/><rect id="Rectangle-12-Copy-2" width="6" height="104" x="213" y="81" fill="#171717" fill-rule="nonzero"/></g></g></g></svg>