<?xml version="1.0" encoding="UTF-8"?>
<svg width="288px" height="288px" viewBox="0 0 288 288" version="1.1" xmlns="http://www.w3.org/2000/svg" xmlns:xlink="http://www.w3.org/1999/xlink">
    <!-- Generator: Sketch 51.2 (57519) - http://www.bohemiancoding.com/sketch -->
    <title>Group 6</title>
    <desc>Created with Sketch.</desc>
    <defs></defs>
    <g id="Page-1" stroke="none" stroke-width="1" fill="none" fill-rule="evenodd">
        <g id="Icons-Copy" transform="translate(-672.000000, -3804.000000)">
            <g id="Group-6" transform="translate(672.000000, 3804.000000)">
                <g id="Padding-don’t-Copy">
                    <rect id="Rectangle-3" fill="#FFFFFF" x="0" y="0" width="288" height="288"></rect>
                    <g id="Group-30" transform="translate(51.000000, 51.000000)" stroke="#DCDCDC" stroke-linecap="square">
                        <g id="Group-3" transform="translate(0.500000, 0.500000)">
                            <g id="Grid-01">
                                <g id="Vertical-lines" transform="translate(0.205100, 0.615299)">
                                    <path d="M0.410199557,0 L0.410199557,183.769401" id="Line"></path>
                                    <path d="M17.6385809,0 L17.6385809,183.769401" id="Line"></path>
                                    <path d="M6.15299335,0 L6.15299335,183.769401" id="Line"></path>
                                    <path d="M23.3813747,0 L23.3813747,183.769401" id="Line"></path>
                                    <path d="M11.8957871,0 L11.8957871,183.769401" id="Line"></path>
                                    <path d="M29.1241685,0 L29.1241685,183.769401" id="Line"></path>
                                    <path d="M34.8669623,0 L34.8669623,183.769401" id="Line"></path>
                                    <path d="M40.6097561,0 L40.6097561,183.769401" id="Line"></path>
                                    <path d="M46.3525499,0 L46.3525499,183.769401" id="Line"></path>
                                    <path d="M52.0953437,0 L52.0953437,183.769401" id="Line"></path>
                                    <path d="M57.8381375,0 L57.8381375,183.769401" id="Line"></path>
                                    <path d="M63.5809313,0 L63.5809313,183.769401" id="Line"></path>
                                    <path d="M69.3237251,0 L69.3237251,183.769401" id="Line"></path>
                                    <path d="M75.0665188,0 L75.0665188,183.769401" id="Line"></path>
                                    <path d="M80.8093126,0 L80.8093126,183.769401" id="Line"></path>
                                    <path d="M86.5521064,0 L86.5521064,183.769401" id="Line"></path>
                                    <path d="M92.2949002,0 L92.2949002,183.769401" id="Line"></path>
                                    <path d="M98.037694,0 L98.037694,183.769401" id="Line"></path>
                                    <path d="M103.780488,0 L103.780488,183.769401" id="Line"></path>
                                    <path d="M109.523282,0 L109.523282,183.769401" id="Line"></path>
                                    <path d="M115.266075,0 L115.266075,183.769401" id="Line"></path>
                                    <path d="M121.008869,0 L121.008869,183.769401" id="Line"></path>
                                    <path d="M126.751663,0 L126.751663,183.769401" id="Line"></path>
                                    <path d="M132.494457,0 L132.494457,183.769401" id="Line"></path>
                                    <path d="M138.237251,0 L138.237251,183.769401" id="Line"></path>
                                    <path d="M143.980044,0 L143.980044,183.769401" id="Line"></path>
                                    <path d="M149.722838,0 L149.722838,183.769401" id="Line"></path>
                                    <path d="M155.465632,0 L155.465632,183.769401" id="Line"></path>
                                    <path d="M161.208426,0 L161.208426,183.769401" id="Line"></path>
                                    <path d="M166.95122,0 L166.95122,183.769401" id="Line"></path>
                                    <path d="M172.694013,0 L172.694013,183.769401" id="Line"></path>
                                    <path d="M178.436807,0 L178.436807,183.769401" id="Line"></path>
                                    <path d="M184.179601,0 L184.179601,183.769401" id="Line"></path>
                                </g>
                                <g id="Horizontal" transform="translate(92.384701, 92.705100) rotate(90.000000) translate(-92.384701, -92.705100) translate(-0.115299, 0.705100)">
                                    <path d="M0.410199557,0 L0.410199557,183.769401" id="Line"></path>
                                    <path d="M17.6385809,0 L17.6385809,183.769401" id="Line"></path>
                                    <path d="M6.15299335,0 L6.15299335,183.769401" id="Line"></path>
                                    <path d="M23.3813747,0 L23.3813747,183.769401" id="Line"></path>
                                    <path d="M11.8957871,0 L11.8957871,183.769401" id="Line"></path>
                                    <path d="M29.1241685,0 L29.1241685,183.769401" id="Line"></path>
                                    <path d="M34.8669623,0 L34.8669623,183.769401" id="Line"></path>
                                    <path d="M40.6097561,0 L40.6097561,183.769401" id="Line"></path>
                                    <path d="M46.3525499,0 L46.3525499,183.769401" id="Line"></path>
                                    <path d="M52.0953437,0 L52.0953437,183.769401" id="Line"></path>
                                    <path d="M57.8381375,0 L57.8381375,183.769401" id="Line"></path>
                                    <path d="M63.5809313,0 L63.5809313,183.769401" id="Line"></path>
                                    <path d="M69.3237251,0 L69.3237251,183.769401" id="Line"></path>
                                    <path d="M75.0665188,0 L75.0665188,183.769401" id="Line"></path>
                                    <path d="M80.8093126,0 L80.8093126,183.769401" id="Line"></path>
                                    <path d="M86.5521064,0 L86.5521064,183.769401" id="Line"></path>
                                    <path d="M92.2949002,0 L92.2949002,183.769401" id="Line"></path>
                                    <path d="M98.037694,0 L98.037694,183.769401" id="Line"></path>
                                    <path d="M103.780488,0 L103.780488,183.769401" id="Line"></path>
                                    <path d="M109.523282,0 L109.523282,183.769401" id="Line"></path>
                                    <path d="M115.266075,0 L115.266075,183.769401" id="Line"></path>
                                    <path d="M121.008869,0 L121.008869,183.769401" id="Line"></path>
                                    <path d="M126.751663,0 L126.751663,183.769401" id="Line"></path>
                                    <path d="M132.494457,0 L132.494457,183.769401" id="Line"></path>
                                    <path d="M138.237251,0 L138.237251,183.769401" id="Line"></path>
                                    <path d="M143.980044,0 L143.980044,183.769401" id="Line"></path>
                                    <path d="M149.722838,0 L149.722838,183.769401" id="Line"></path>
                                    <path d="M155.465632,0 L155.465632,183.769401" id="Line"></path>
                                    <path d="M161.208426,0 L161.208426,183.769401" id="Line"></path>
                                    <path d="M166.95122,0 L166.95122,183.769401" id="Line"></path>
                                    <path d="M172.694013,0 L172.694013,183.769401" id="Line"></path>
                                    <path d="M178.436807,0 L178.436807,183.769401" id="Line"></path>
                                    <path d="M184.179601,0 L184.179601,183.769401" id="Line"></path>
                                </g>
                            </g>
                        </g>
                    </g>
                </g>
                <g id="Group-11" transform="translate(57.000000, 75.000000)" fill-rule="nonzero">
                    <rect id="Rectangle-4" fill="#3F3F3F" x="24" y="0" width="120.5" height="6"></rect>
                    <rect id="Rectangle-4-Copy-22" fill="#3F3F3F" x="150" y="97" width="6" height="6"></rect>
                    <rect id="Rectangle-4-Copy-27" fill="#1F1F1F" x="144" y="103" width="6" height="6"></rect>
                    <rect id="Rectangle-4-Copy-25" fill="#000000" x="150" y="103" width="6" height="12"></rect>
                    <rect id="Rectangle-4-Copy-28" fill="#000000" x="104" y="109" width="46" height="6"></rect>
                    <rect id="Rectangle-4-Copy-32" fill="#000000" x="104" y="114.8" width="12" height="6"></rect>
                    <rect id="Rectangle-4-Copy-70" fill="#000000" x="87" y="137.8" width="12" height="6"></rect>
                    <rect id="Rectangle-4-Copy-23" fill="#9F9F9F" x="162" y="103" width="6" height="6"></rect>
                    <rect id="Rectangle-4-Copy-26" fill="#BFBFBF" x="150" y="114.8" width="6" height="6"></rect>
                    <rect id="Rectangle-4-Copy-71" fill="#3F3F3F" x="98.4" y="137.8" width="6" height="6"></rect>
                    <rect id="Rectangle-4-Copy-72" fill="#EFEFEF" x="81" y="137.8" width="6" height="6"></rect>
                    <rect id="Rectangle-4-Copy-77" fill="#DFDFDF" x="87" y="149.4" width="6" height="6"></rect>
                    <rect id="Rectangle-4-Copy-31" fill="#8F8F8F" x="104" y="103" width="6" height="6"></rect>
                    <rect id="Rectangle-4-Copy-29" fill="#7F7F7F" x="116" y="114.8" width="34" height="6"></rect>
                    <rect id="Rectangle-4-Copy-30" fill="#3F3F3F" x="110" y="103" width="34" height="6"></rect>
                    <rect id="Rectangle-4-Copy-24" fill="#5F5F5F" x="156" y="109" width="6" height="6"></rect>
                    <rect id="Rectangle-4-Copy-36" fill="#7F7F7F" x="0.8" y="23" width="6" height="75"></rect>
                    <rect id="Rectangle-4-Copy" fill="#7F7F7F" x="18" y="0" width="6" height="6"></rect>
                    <rect id="Rectangle-4-Copy-2" fill="#6F6F6F" x="144.4" y="0" width="6" height="6"></rect>
                    <rect id="Rectangle-4-Copy-3" fill="#BFBFBF" x="150" y="0" width="6" height="6"></rect>
                    <rect id="Rectangle-4-Copy-4" fill="#DFDFDF" x="12.2" y="0" width="6" height="6"></rect>
                    <rect id="Rectangle-4-Copy-38" fill="#2F2F2F" x="12.2" y="23" width="6" height="6"></rect>
                    <rect id="Rectangle-4-Copy-40" fill="#2F2F2F" x="12.2" y="91.6" width="6" height="6"></rect>
                    <rect id="Rectangle-4-Copy-44" fill="#CFCFCF" x="6.5" y="109" width="6" height="6"></rect>
                    <rect id="Rectangle-4-Copy-45" fill="#EFEFEF" x="12" y="114.8" width="6" height="6"></rect>
                    <rect id="Rectangle-4-Copy-48" fill="#8F8F8F" x="18" y="114.8" width="6" height="6"></rect>
                    <rect id="Rectangle-4-Copy-50" fill="#9F9F9F" x="75.5" y="114.8" width="6" height="6"></rect>
                    <rect id="Rectangle-4-Copy-51" fill="#3F3F3F" x="75.5" y="109" width="6" height="6"></rect>
                    <rect id="Rectangle-4-Copy-52" fill="#6F6F6F" x="75.5" y="103" width="6" height="6"></rect>
                    <rect id="Rectangle-4-Copy-53" fill="#3F3F3F" x="24" y="103" width="51.8" height="6"></rect>
                    <rect id="Rectangle-4-Copy-54" fill="#000000" x="41" y="40" width="92" height="6"></rect>
                    <rect id="Rectangle-4-Copy-55" fill="#3F3F3F" x="41" y="46" width="92" height="6"></rect>
                    <rect id="Rectangle-4-Copy-56" fill="#7F7F7F" x="41" y="34" width="92" height="6"></rect>
                    <rect id="Rectangle-4-Copy-57" fill="#7F7F7F" x="41" y="68.8" width="58" height="6"></rect>
                    <rect id="Rectangle-4-Copy-58" fill="#000000" x="41" y="74.6" width="58" height="6"></rect>
                    <rect id="Rectangle-4-Copy-59" fill="#3F3F3F" x="41" y="80.6" width="58" height="6"></rect>
                    <rect id="Rectangle-4-Copy-49" fill="#7F7F7F" x="24" y="114.8" width="51.8" height="6"></rect>
                    <rect id="Rectangle-4-Copy-41" fill="#000000" x="12.2" y="97.6" width="6" height="6"></rect>
                    <rect id="Rectangle-4-Copy-47" fill="#000000" x="12.2" y="109" width="63.6" height="6"></rect>
                    <rect id="Rectangle-4-Copy-39" fill="#3F3F3F" x="12.2" y="29" width="6" height="63"></rect>
                    <rect id="Rectangle-4-Copy-37" fill="#AFAFAF" x="0.8" y="97.6" width="6" height="6"></rect>
                    <rect id="Rectangle-4-Copy-42" fill="#BFBFBF" x="18.2" y="97.6" width="6" height="6"></rect>
                    <rect id="Rectangle-4-Copy-12" fill="#CFCFCF" x="18" y="17.2" width="6" height="6"></rect>
                    <rect id="Rectangle-4-Copy-6" fill="#CFCFCF" x="6.5" y="5.7" width="6" height="6"></rect>
                    <rect id="Rectangle-4-Copy-7" fill="#5F5F5F" x="155.8" y="5.7" width="6" height="6"></rect>
                    <rect id="Rectangle-4-Copy-17" fill="#3F3F3F" x="150" y="17.2" width="6" height="6"></rect>
                    <rect id="Rectangle-4-Copy-21" fill="#7F7F7F" x="150" y="23" width="6" height="74"></rect>
                    <rect id="Rectangle-4-Copy-19" fill="#000000" x="156" y="17.2" width="6" height="92"></rect>
                    <rect id="Rectangle-4-Copy-18" fill="#3F3F3F" x="162" y="17.2" width="6" height="86"></rect>
                    <rect id="Rectangle-4-Copy-5" fill="#000000" x="12.2" y="5.7" width="144" height="6"></rect>
                    <rect id="Rectangle-4-Copy-10" fill="#AFAFAF" x="0.8" y="17.2" width="6" height="6"></rect>
                    <rect id="Rectangle-4-Copy-9" fill="#EFEFEF" x="0.8" y="11.4" width="6" height="6"></rect>
                    <rect id="Rectangle-4-Copy-13" fill="#5F5F5F" x="24" y="11.4" width="6" height="6"></rect>
                    <rect id="Rectangle-4-Copy-14" fill="#7F7F7F" x="30" y="11.4" width="114" height="6"></rect>
                    <rect id="Rectangle-4-Copy-15" fill="#1F1F1F" x="144" y="11.4" width="6" height="6"></rect>
                    <rect id="Rectangle-4-Copy-16" fill="#000000" x="150" y="11.4" width="12" height="6"></rect>
                    <rect id="Rectangle-4-Copy-20" fill="#9F9F9F" x="162" y="11.4" width="6" height="6"></rect>
                    <rect id="Rectangle-4-Copy-43" fill="#2F2F2F" x="6.5" y="103" width="6" height="6"></rect>
                    <rect id="Rectangle-4-Copy-46" fill="#000000" x="12.2" y="103" width="12" height="6"></rect>
                    <rect id="Rectangle-4-Copy-11" fill="#0F0F0F" x="6.5" y="17.2" width="11.6" height="6"></rect>
                    <rect id="Rectangle-4-Copy-8" fill="#0F0F0F" x="6.5" y="11.4" width="17.6" height="6"></rect>
                    <rect id="Rectangle-4-Copy-35" fill="#0F0F0F" x="6.5" y="23" width="6" height="80.6"></rect>
                    <rect id="Rectangle-4-Copy-63" fill="#BFBFBF" x="92.6" y="120.6" width="6" height="6"></rect>
                    <rect id="Rectangle-4-Copy-60" fill="#7F7F7F" x="110" y="120.6" width="6" height="6"></rect>
                    <rect id="Rectangle-4-Copy-34" fill="#DFDFDF" x="98.4" y="109" width="6" height="6"></rect>
                    <rect id="Rectangle-4-Copy-33" fill="#5F5F5F" x="98.4" y="114.8" width="6" height="6"></rect>
                    <rect id="Rectangle-4-Copy-61" fill="#000000" x="98.4" y="120.6" width="12" height="6"></rect>
                    <rect id="Rectangle-4-Copy-62" fill="#DFDFDF" x="110" y="126.2" width="6" height="6"></rect>
                    <rect id="Rectangle-4-Copy-66" fill="#3F3F3F" x="92.6" y="126.2" width="6" height="6"></rect>
                    <rect id="Rectangle-4-Copy-64" fill="#000000" x="98.4" y="126.2" width="6" height="6"></rect>
                    <rect id="Rectangle-4-Copy-65" fill="#1F1F1F" x="104.4" y="126.2" width="6" height="6"></rect>
                    <rect id="Rectangle-4-Copy-68" fill="#9F9F9F" x="87" y="132" width="6" height="6"></rect>
                    <rect id="Rectangle-4-Copy-67" fill="#000000" x="92.6" y="132" width="12" height="6"></rect>
                    <rect id="Rectangle-4-Copy-69" fill="#9F9F9F" x="104.4" y="132" width="6" height="6"></rect>
                    <rect id="Rectangle-4-Copy-73" fill="#BFBFBF" x="81" y="143.6" width="6" height="6"></rect>
                    <rect id="Rectangle-4-Copy-76" fill="#9F9F9F" x="92.4" y="149.4" width="6" height="6"></rect>
                    <rect id="Rectangle-4-Copy-74" fill="#000000" x="87" y="143.6" width="12" height="6"></rect>
                    <rect id="Rectangle-4-Copy-75" fill="#BFBFBF" x="98.4" y="143.6" width="6" height="6"></rect>
                </g>
            </g>
        </g>
    </g>
</svg>