<?xml version="1.0" encoding="UTF-8"?>
<svg width="288px" height="288px" viewBox="0 0 288 288" version="1.1" xmlns="http://www.w3.org/2000/svg" xmlns:xlink="http://www.w3.org/1999/xlink">
    <!-- Generator: Sketch 51.2 (57519) - http://www.bohemiancoding.com/sketch -->
    <title>Group 12</title>
    <desc>Created with Sketch.</desc>
    <defs></defs>
    <g id="Page-1" stroke="none" stroke-width="1" fill="none" fill-rule="evenodd">
        <g id="Icons-Copy" transform="translate(-672.000000, -14885.000000)">
            <g id="Group-12" transform="translate(672.000000, 14885.000000)">
                <rect id="Rectangle-3" fill="#FFFFFF" x="0" y="0" width="288" height="288"></rect>
                <g id="Grid-01" transform="translate(51.500000, 51.000000)" stroke="#DCDCDC" stroke-linecap="square">
                    <g id="Vertical-lines" transform="translate(0.205100, 0.615299)">
                        <path d="M0.410199557,0 L0.410199557,183.769401" id="Line"></path>
                        <path d="M17.6385809,0 L17.6385809,183.769401" id="Line"></path>
                        <path d="M6.15299335,0 L6.15299335,183.769401" id="Line"></path>
                        <path d="M23.3813747,0 L23.3813747,183.769401" id="Line"></path>
                        <path d="M11.8957871,0 L11.8957871,183.769401" id="Line"></path>
                        <path d="M29.1241685,0 L29.1241685,183.769401" id="Line"></path>
                        <path d="M34.8669623,0 L34.8669623,183.769401" id="Line"></path>
                        <path d="M40.6097561,0 L40.6097561,183.769401" id="Line"></path>
                        <path d="M46.3525499,0 L46.3525499,183.769401" id="Line"></path>
                        <path d="M52.0953437,0 L52.0953437,183.769401" id="Line"></path>
                        <path d="M57.8381375,0 L57.8381375,183.769401" id="Line"></path>
                        <path d="M63.5809313,0 L63.5809313,183.769401" id="Line"></path>
                        <path d="M69.3237251,0 L69.3237251,183.769401" id="Line"></path>
                        <path d="M75.0665188,0 L75.0665188,183.769401" id="Line"></path>
                        <path d="M80.8093126,0 L80.8093126,183.769401" id="Line"></path>
                        <path d="M86.5521064,0 L86.5521064,183.769401" id="Line"></path>
                        <path d="M92.2949002,0 L92.2949002,183.769401" id="Line"></path>
                        <path d="M98.037694,0 L98.037694,183.769401" id="Line"></path>
                        <path d="M103.780488,0 L103.780488,183.769401" id="Line"></path>
                        <path d="M109.523282,0 L109.523282,183.769401" id="Line"></path>
                        <path d="M115.266075,0 L115.266075,183.769401" id="Line"></path>
                        <path d="M121.008869,0 L121.008869,183.769401" id="Line"></path>
                        <path d="M126.751663,0 L126.751663,183.769401" id="Line"></path>
                        <path d="M132.494457,0 L132.494457,183.769401" id="Line"></path>
                        <path d="M138.237251,0 L138.237251,183.769401" id="Line"></path>
                        <path d="M143.980044,0 L143.980044,183.769401" id="Line"></path>
                        <path d="M149.722838,0 L149.722838,183.769401" id="Line"></path>
                        <path d="M155.465632,0 L155.465632,183.769401" id="Line"></path>
                        <path d="M161.208426,0 L161.208426,183.769401" id="Line"></path>
                        <path d="M166.95122,0 L166.95122,183.769401" id="Line"></path>
                        <path d="M172.694013,0 L172.694013,183.769401" id="Line"></path>
                        <path d="M178.436807,0 L178.436807,183.769401" id="Line"></path>
                        <path d="M184.179601,0 L184.179601,183.769401" id="Line"></path>
                    </g>
                    <g id="Horizontal" transform="translate(92.384701, 92.705100) rotate(90.000000) translate(-92.384701, -92.705100) translate(-0.115299, 0.705100)">
                        <path d="M0.410199557,0 L0.410199557,183.769401" id="Line"></path>
                        <path d="M17.6385809,0 L17.6385809,183.769401" id="Line"></path>
                        <path d="M6.15299335,0 L6.15299335,183.769401" id="Line"></path>
                        <path d="M23.3813747,0 L23.3813747,183.769401" id="Line"></path>
                        <path d="M11.8957871,0 L11.8957871,183.769401" id="Line"></path>
                        <path d="M29.1241685,0 L29.1241685,183.769401" id="Line"></path>
                        <path d="M34.8669623,0 L34.8669623,183.769401" id="Line"></path>
                        <path d="M40.6097561,0 L40.6097561,183.769401" id="Line"></path>
                        <path d="M46.3525499,0 L46.3525499,183.769401" id="Line"></path>
                        <path d="M52.0953437,0 L52.0953437,183.769401" id="Line"></path>
                        <path d="M57.8381375,0 L57.8381375,183.769401" id="Line"></path>
                        <path d="M63.5809313,0 L63.5809313,183.769401" id="Line"></path>
                        <path d="M69.3237251,0 L69.3237251,183.769401" id="Line"></path>
                        <path d="M75.0665188,0 L75.0665188,183.769401" id="Line"></path>
                        <path d="M80.8093126,0 L80.8093126,183.769401" id="Line"></path>
                        <path d="M86.5521064,0 L86.5521064,183.769401" id="Line"></path>
                        <path d="M92.2949002,0 L92.2949002,183.769401" id="Line"></path>
                        <path d="M98.037694,0 L98.037694,183.769401" id="Line"></path>
                        <path d="M103.780488,0 L103.780488,183.769401" id="Line"></path>
                        <path d="M109.523282,0 L109.523282,183.769401" id="Line"></path>
                        <path d="M115.266075,0 L115.266075,183.769401" id="Line"></path>
                        <path d="M121.008869,0 L121.008869,183.769401" id="Line"></path>
                        <path d="M126.751663,0 L126.751663,183.769401" id="Line"></path>
                        <path d="M132.494457,0 L132.494457,183.769401" id="Line"></path>
                        <path d="M138.237251,0 L138.237251,183.769401" id="Line"></path>
                        <path d="M143.980044,0 L143.980044,183.769401" id="Line"></path>
                        <path d="M149.722838,0 L149.722838,183.769401" id="Line"></path>
                        <path d="M155.465632,0 L155.465632,183.769401" id="Line"></path>
                        <path d="M161.208426,0 L161.208426,183.769401" id="Line"></path>
                        <path d="M166.95122,0 L166.95122,183.769401" id="Line"></path>
                        <path d="M172.694013,0 L172.694013,183.769401" id="Line"></path>
                        <path d="M178.436807,0 L178.436807,183.769401" id="Line"></path>
                        <path d="M184.179601,0 L184.179601,183.769401" id="Line"></path>
                    </g>
                </g>
                <g id="Group" transform="translate(97.000000, 64.000000)" fill="#000000">
                    <g id="Page-1">
                        <path d="M93.1882114,142.740743 C83.6555863,142.740743 75.9011382,135.004058 75.9011382,125.493268 C75.9011382,115.982478 83.6555863,108.245792 93.1882114,108.245792 C102.720836,108.245792 110.475285,115.982478 110.475285,125.493268 C110.475285,135.004058 102.720836,142.740743 93.1882114,142.740743 Z M75.9011382,33.506732 C75.9011382,23.9959423 83.6555863,16.2592565 93.1882114,16.2592565 C102.720836,16.2592565 110.475285,23.9959423 110.475285,33.506732 C110.475285,43.0175217 102.720836,50.7542075 93.1882114,50.7542075 C83.6555863,50.7542075 75.9011382,43.0175217 75.9011382,33.506732 Z M113.558989,105.169152 L87.8310863,79.5 L113.558989,53.8308481 L113.551336,53.8232128 C118.768524,48.6179747 122,41.4313903 122,33.506732 C122,17.6572337 109.074098,4.76093951 93.1882114,4.76093951 C77.302325,4.76093951 64.3764228,17.6572337 64.3764228,33.506732 C64.3764228,48.0013377 75.2240498,59.9025048 89.2222516,61.8524012 L79.6827025,71.3702809 L8.14838379,0 L0,8.12953736 L71.5343188,79.5 L0,150.870463 L8.14838379,159 L79.6827025,87.6297191 L89.2222516,97.1475988 C75.2240498,99.0974952 64.3764228,110.998662 64.3764228,125.493268 C64.3764228,141.342766 77.302325,154.23906 93.1882114,154.23906 C109.074098,154.23906 122,141.342766 122,125.493268 C122,117.56861 118.768524,110.382025 113.551336,105.176787 L113.558989,105.169152 Z" id="Fill-1"></path>
                    </g>
                </g>
                <circle id="Oval-5-Copy-2" fill="#EE538B" opacity="0.5" cx="154" cy="144" r="20"></circle>
            </g>
        </g>
    </g>
</svg>