<svg xmlns="http://www.w3.org/2000/svg" xmlns:xlink="http://www.w3.org/1999/xlink" width="288" height="288" version="1.1" viewBox="0 0 288 288"><title>Align element do</title><desc>Created with Sketch.</desc><g id="Page-1" fill="none" fill-rule="evenodd" stroke="none" stroke-width="1"><g id="Icons-Copy" transform="translate(-352.000000, -3484.000000)"><g id="Align-element-do" transform="translate(352.000000, 3484.000000)"><g id="Group-74"><rect id="Background" width="288" height="288" x="0" y="0" fill="#FFF"/><g id="Grid-02" stroke="#87B6FF" stroke-linecap="square" transform="translate(51.000000, 51.000000)"><g id="Group-4" transform="translate(0.000000, 1.000000)"><path id="Line" d="M1.5,0.5 L1.5,184.5"/><path id="Line" d="M24.5,0.5 L24.5,184.5"/><path id="Line" d="M47.5,0.5 L47.5,184.5"/><path id="Line" d="M70.5,0.5 L70.5,184.5"/><path id="Line" d="M93.5,0.5 L93.5,184.5"/><path id="Line" d="M116.5,0.5 L116.5,184.5"/><path id="Line" d="M139.5,0.5 L139.5,184.5"/><path id="Line" d="M162.5,0.5 L162.5,184.5"/><path id="Line" d="M185.5,0.5 L185.5,184.5"/></g><g id="Group-4" transform="translate(93.500000, 93.500000) rotate(90.000000) translate(-93.500000, -93.500000) translate(0.000000, 1.000000)"><path id="Line" d="M1.5,0.5 L1.5,184.5"/><path id="Line" d="M24.5,0.5 L24.5,184.5"/><path id="Line" d="M47.5,0.5 L47.5,184.5"/><path id="Line" d="M70.5,0.5 L70.5,184.5"/><path id="Line" d="M93.5,0.5 L93.5,184.5"/><path id="Line" d="M116.5,0.5 L116.5,184.5"/><path id="Line" d="M139.5,0.5 L139.5,184.5"/><path id="Line" d="M162.5,0.5 L162.5,184.5"/><path id="Line" d="M185.5,0.5 L185.5,184.5"/></g></g></g><g id="Group-74"><rect id="Background" width="288" height="288" x="0" y="0" fill="#FFF"/><g id="Grid-02" stroke="#DCDCDC" stroke-linecap="square" transform="translate(51.000000, 51.000000)"><g id="Group-4" transform="translate(0.000000, 1.000000)"><path id="Line" d="M1.5,0.5 L1.5,184.5"/><path id="Line" d="M24.5,0.5 L24.5,184.5"/><path id="Line" d="M47.5,0.5 L47.5,184.5"/><path id="Line" d="M70.5,0.5 L70.5,184.5"/><path id="Line" d="M93.5,0.5 L93.5,184.5"/><path id="Line" d="M116.5,0.5 L116.5,184.5"/><path id="Line" d="M139.5,0.5 L139.5,184.5"/><path id="Line" d="M162.5,0.5 L162.5,184.5"/><path id="Line" d="M185.5,0.5 L185.5,184.5"/></g><g id="Group-4" transform="translate(93.500000, 93.500000) rotate(90.000000) translate(-93.500000, -93.500000) translate(0.000000, 1.000000)"><path id="Line" d="M1.5,0.5 L1.5,184.5"/><path id="Line" d="M24.5,0.5 L24.5,184.5"/><path id="Line" d="M47.5,0.5 L47.5,184.5"/><path id="Line" d="M70.5,0.5 L70.5,184.5"/><path id="Line" d="M93.5,0.5 L93.5,184.5"/><path id="Line" d="M116.5,0.5 L116.5,184.5"/><path id="Line" d="M139.5,0.5 L139.5,184.5"/><path id="Line" d="M162.5,0.5 L162.5,184.5"/><path id="Line" d="M185.5,0.5 L185.5,184.5"/></g></g></g><rect id="Rectangle-4" width="47" height="185" x="121" y="52" fill="#000" opacity=".7"/></g></g></g></svg>