<svg xmlns="http://www.w3.org/2000/svg" xmlns:xlink="http://www.w3.org/1999/xlink" width="288px" height="288px" viewBox="0 0 288 288" version="1.1"><!--Generator: Sketch 50.2 (55047) - http://www.bohemiancoding.com/sketch--><title>Clearance do</title><desc>Created with Sketch.</desc><defs><path d="M0,0 L51,0 L51,4.25 L0,4.25 L0,0 Z M0,38.25 L51,38.25 L51,42.5 L0,42.5 L0,38.25 Z M0,19.125 L51,19.125 L51,23.375 L0,23.375 L0,19.125 Z" id="clearance-do_svg__path-1"/><path d="M21.25,4.25 C27.1180255,4.25 31.875,9.00697453 31.875,14.875 C31.875,20.7430255 27.1180255,25.5 21.25,25.5 C15.3819745,25.5 10.625,20.7430255 10.625,14.875 C10.631675,9.00974163 15.3847416,4.25667499 21.25,4.25 Z M21.25,0 C13.0347643,0 6.375,6.65976435 6.375,14.875 C6.375,23.0902357 13.0347643,29.75 21.25,29.75 C29.4652357,29.75 36.125,23.0902357 36.125,14.875 C36.125,6.65976435 29.4652357,4.71844785e-15 21.25,0 Z M42.5,59.5 L38.25,59.5 L38.25,48.875 C38.2430913,43.0098386 33.4901614,38.2569087 27.625,38.25 L14.875,38.25 C9.00983858,38.2569087 4.25690867,43.0098386 4.25,48.875 L4.25,59.5 L0,59.5 L0,48.875 C0.00960203651,40.6637449 6.66374493,34.009602 14.875,34 L27.625,34 C35.8362551,34.009602 42.490398,40.6637449 42.5,48.875 L42.5,59.5 Z" id="clearance-do_svg__path-3"/><path d="M10.5,0 C4.725,0 0,4.725 0,10.5 C0,16.275 4.725,21 10.5,21 C16.275,21 21,16.275 21,10.5 C21,4.725 16.275,0 10.5,0 Z" id="clearance-do_svg__path-5"/></defs><g id="clearance-do_svg__Desktop" stroke="none" stroke-width="1" fill="none" fill-rule="evenodd"><g id="clearance-do_svg__Icons_Desktop_1312px" transform="translate(-352.000000, -19707.000000)"><g id="clearance-do_svg__Clearance-do" transform="translate(352.000000, 19707.000000)"><rect id="clearance-do_svg__Rectangle-3" fill="#FFFFFF" x="0" y="0" width="288" height="288"/><g id="clearance-do_svg__Group-29" transform="translate(51.000000, 98.000000)"><g id="clearance-do_svg__icon-01"><path d="M0,0 L93,0 L93,93 L0,93 L0,0 Z M13,80.5 L80.4978906,80.5 L80.4978906,13 L13,13 L13,80.5 Z" id="clearance-do_svg__Combined-Shape" fill="#6EA6FF" opacity="0.300000012"/><g id="clearance-do_svg__icon/navigation/menu/24" transform="translate(13.000000, 13.000000)"><g id="clearance-do_svg__menu" stroke-width="1" fill-rule="evenodd" transform="translate(8.500000, 12.750000)"><mask id="clearance-do_svg__mask-2" fill="white"><use xlink:href="#clearance-do_svg__path-1"/></mask><use id="clearance-do_svg__Mask" fill="#000000" fill-rule="nonzero" xlink:href="#clearance-do_svg__path-1"/><g id="clearance-do_svg__color/black" mask="url(#clearance-do_svg__mask-2)"><g transform="translate(-8.500000, -12.750000)"/></g></g><rect id="clearance-do_svg__transparent-rectangle" x="0" y="0" width="68" height="68"/></g></g><g id="clearance-do_svg__icon-01" transform="translate(93.000000, 0.000000)"><path d="M0,0 L93,0 L93,93 L0,93 L0,0 Z M13,80.5 L80.4978906,80.5 L80.4978906,13 L13,13 L13,80.5 Z" id="clearance-do_svg__Combined-Shape" fill="#6EA6FF" opacity="0.3"/><g id="clearance-do_svg__icon/user/user/20" transform="translate(13.000000, 13.000000)"><g id="clearance-do_svg__Group"><g id="clearance-do_svg__user" transform="translate(12.750000, 4.250000)"><mask id="clearance-do_svg__mask-4" fill="white"><use xlink:href="#clearance-do_svg__path-3"/></mask><use id="clearance-do_svg__Mask" fill="#000000" fill-rule="nonzero" xlink:href="#clearance-do_svg__path-3"/><g id="clearance-do_svg__color/black" mask="url(#clearance-do_svg__mask-4)"><g transform="translate(-12.750000, -4.250000)"/></g></g><rect id="clearance-do_svg__transparent-rectangle" x="0" y="0" width="68" height="68"/></g></g></g></g></g></g></g></svg>