<?xml version="1.0" encoding="UTF-8"?>
<svg width="288px" height="288px" viewBox="0 0 288 288" version="1.1" xmlns="http://www.w3.org/2000/svg" xmlns:xlink="http://www.w3.org/1999/xlink">
    <!-- Generator: Sketch 51.2 (57519) - http://www.bohemiancoding.com/sketch -->
    <title>Group 48</title>
    <desc>Created with Sketch.</desc>
    <defs></defs>
    <g id="Desktop" stroke="none" stroke-width="1" fill="none" fill-rule="evenodd">
        <g id="Icons" transform="translate(-672.000000, -21484.000000)">
            <g id="Group-48" transform="translate(672.000000, 21484.000000)">
                <rect id="Rectangle-3" fill="#FFFFFF" x="0" y="0" width="288" height="288"></rect>
                <g id="Page-1" transform="translate(67.000000, 124.000000)">
                    <path d="M16.2545689,6.59643272 L15.9836571,6.59643272 L9.59182396,25.0621092 L22.646402,25.0621092 L16.2545689,6.59643272 Z M27.5757328,40.2691901 L23.7838705,29.0811643 L8.50847769,29.0811643 L4.71676576,40.2691901 L0.112468962,40.2691901 L13.3294137,2.36016801 L19.1254515,2.36016801 L32.3425466,40.2691901 L27.5757328,40.2691901 Z" id="Fill-1" fill="#000000"></path>
                    <g id="Group-8" transform="translate(36.231814, 0.000000)">
                        <path d="M19.836001,31.3079015 L19.836001,20.8801846 C19.836001,17.7843831 16.5859622,15.5033059 12.6317333,15.5033059 C7.75652473,15.5033059 4.72312512,18.8705816 4.72312512,23.8673059 L4.72312512,28.6466699 C4.72312512,33.6432434 7.75652473,37.0105191 12.6317333,37.0105191 C16.5859622,37.0105191 19.836001,34.9468022 19.836001,31.3079015 Z M19.836001,35.707111 L19.6193618,35.707111 C17.9402202,39.1829162 15.2858264,40.9207434 11.4399922,40.9207434 C4.45236372,40.9207434 0.0645557711,35.2181257 0.0645557711,26.2569125 C0.0645557711,17.2956993 4.45236372,11.5930816 11.4399922,11.5930816 C15.2858264,11.5930816 18.1568594,13.2766441 19.6193618,16.8068647 L19.836001,16.8068647 L19.836001,0.0791661765 L24.1695364,0.0791661765 L24.1695364,40.2691147 L19.836001,40.2691147 L19.836001,35.707111 Z" id="Fill-2" fill="#000000"></path>
                        <path d="M51.2529825,31.3079015 L51.2529825,20.8801846 C51.2529825,17.7843831 48.0029437,15.5033059 44.0485645,15.5033059 C39.173356,15.5033059 36.1401067,18.8705816 36.1401067,23.8673059 L36.1401067,28.6466699 C36.1401067,33.6432434 39.173356,37.0105191 44.0485645,37.0105191 C48.0029437,37.0105191 51.2529825,34.9468022 51.2529825,31.3079015 Z M51.2529825,35.707111 L51.0363434,35.707111 C49.3570514,39.1829162 46.702808,40.9207434 42.8568235,40.9207434 C35.869195,40.9207434 31.4815373,35.2181257 31.4815373,26.2569125 C31.4815373,17.2956993 35.869195,11.5930816 42.8568235,11.5930816 C46.702808,11.5930816 49.5736906,13.2766441 51.0363434,16.8068647 L51.2529825,16.8068647 L51.2529825,0.0791661765 L55.5863676,0.0791661765 L55.5863676,40.2691147 L51.2529825,40.2691147 L51.2529825,35.707111 Z" id="Fill-4" fill="#000000"></path>
                        <polygon id="Fill-6" fill="#006AFF" points="101.723884 18.378446 101.723884 1.40625478 97.4921285 1.40625478 97.4921285 18.378446 80.5645048 18.378446 80.5645048 22.6214938 97.4921285 22.6214938 97.4921285 39.5936849 101.723884 39.5936849 101.723884 22.6214938 118.651658 22.6214938 118.651658 18.378446"></polygon>
                    </g>
                </g>
            </g>
        </g>
    </g>
</svg>