<?xml version="1.0" encoding="UTF-8"?>
<svg width="288px" height="288px" viewBox="0 0 288 288" version="1.1" xmlns="http://www.w3.org/2000/svg" xmlns:xlink="http://www.w3.org/1999/xlink">
    <!-- Generator: Sketch 51.2 (57519) - http://www.bohemiancoding.com/sketch -->
    <title>Corner radius do</title>
    <desc>Created with Sketch.</desc>
    <defs>
        <path d="M149.5,35 L138,35 L138,0.5 L23,0.5 L23,35 L11.5,35 C5.14872538,35 0,40.1487254 0,46.5 L0,104 C0,110.351275 5.14872538,115.5 11.5,115.5 L23,115.5 L23,161.5 L138,161.5 L138,115.5 L149.5,115.5 C155.851275,115.5 161,110.351275 161,104 L161,46.5 C161,40.1487254 155.851275,35 149.5,35 Z M34.5,12 L126.5,12 L126.5,35 L34.5,35 L34.5,12 Z M126.5,150 L34.5,150 L34.5,81 L126.5,81 L126.5,150 Z M149.5,104 L138,104 L138,69.5 L23,69.5 L23,104 L11.5,104 L11.5,46.5 L149.5,46.5 L149.5,104 Z" id="path-1"></path>
    </defs>
    <g id="Page-1" stroke="none" stroke-width="1" fill="none" fill-rule="evenodd">
        <g id="Icons-Copy" transform="translate(-352.000000, -12819.000000)">
            <g id="Corner-radius-do" transform="translate(352.000000, 12819.000000)">
                <rect id="Rectangle-3" fill="#FFFFFF" x="0" y="0" width="288" height="288"></rect>
                <g id="Grid-01" transform="translate(51.500000, 51.000000)" stroke="#DCDCDC" stroke-linecap="square">
                    <g id="Vertical-lines" transform="translate(0.205100, 0.615299)">
                        <path d="M0.410199557,0 L0.410199557,183.769401" id="Line"></path>
                        <path d="M17.6385809,0 L17.6385809,183.769401" id="Line"></path>
                        <path d="M6.15299335,0 L6.15299335,183.769401" id="Line"></path>
                        <path d="M23.3813747,0 L23.3813747,183.769401" id="Line"></path>
                        <path d="M11.8957871,0 L11.8957871,183.769401" id="Line"></path>
                        <path d="M29.1241685,0 L29.1241685,183.769401" id="Line"></path>
                        <path d="M34.8669623,0 L34.8669623,183.769401" id="Line"></path>
                        <path d="M40.6097561,0 L40.6097561,183.769401" id="Line"></path>
                        <path d="M46.3525499,0 L46.3525499,183.769401" id="Line"></path>
                        <path d="M52.0953437,0 L52.0953437,183.769401" id="Line"></path>
                        <path d="M57.8381375,0 L57.8381375,183.769401" id="Line"></path>
                        <path d="M63.5809313,0 L63.5809313,183.769401" id="Line"></path>
                        <path d="M69.3237251,0 L69.3237251,183.769401" id="Line"></path>
                        <path d="M75.0665188,0 L75.0665188,183.769401" id="Line"></path>
                        <path d="M80.8093126,0 L80.8093126,183.769401" id="Line"></path>
                        <path d="M86.5521064,0 L86.5521064,183.769401" id="Line"></path>
                        <path d="M92.2949002,0 L92.2949002,183.769401" id="Line"></path>
                        <path d="M98.037694,0 L98.037694,183.769401" id="Line"></path>
                        <path d="M103.780488,0 L103.780488,183.769401" id="Line"></path>
                        <path d="M109.523282,0 L109.523282,183.769401" id="Line"></path>
                        <path d="M115.266075,0 L115.266075,183.769401" id="Line"></path>
                        <path d="M121.008869,0 L121.008869,183.769401" id="Line"></path>
                        <path d="M126.751663,0 L126.751663,183.769401" id="Line"></path>
                        <path d="M132.494457,0 L132.494457,183.769401" id="Line"></path>
                        <path d="M138.237251,0 L138.237251,183.769401" id="Line"></path>
                        <path d="M143.980044,0 L143.980044,183.769401" id="Line"></path>
                        <path d="M149.722838,0 L149.722838,183.769401" id="Line"></path>
                        <path d="M155.465632,0 L155.465632,183.769401" id="Line"></path>
                        <path d="M161.208426,0 L161.208426,183.769401" id="Line"></path>
                        <path d="M166.95122,0 L166.95122,183.769401" id="Line"></path>
                        <path d="M172.694013,0 L172.694013,183.769401" id="Line"></path>
                        <path d="M178.436807,0 L178.436807,183.769401" id="Line"></path>
                        <path d="M184.179601,0 L184.179601,183.769401" id="Line"></path>
                    </g>
                    <g id="Horizontal" transform="translate(92.384701, 92.705100) rotate(90.000000) translate(-92.384701, -92.705100) translate(-0.115299, 0.705100)">
                        <path d="M0.410199557,0 L0.410199557,183.769401" id="Line"></path>
                        <path d="M17.6385809,0 L17.6385809,183.769401" id="Line"></path>
                        <path d="M6.15299335,0 L6.15299335,183.769401" id="Line"></path>
                        <path d="M23.3813747,0 L23.3813747,183.769401" id="Line"></path>
                        <path d="M11.8957871,0 L11.8957871,183.769401" id="Line"></path>
                        <path d="M29.1241685,0 L29.1241685,183.769401" id="Line"></path>
                        <path d="M34.8669623,0 L34.8669623,183.769401" id="Line"></path>
                        <path d="M40.6097561,0 L40.6097561,183.769401" id="Line"></path>
                        <path d="M46.3525499,0 L46.3525499,183.769401" id="Line"></path>
                        <path d="M52.0953437,0 L52.0953437,183.769401" id="Line"></path>
                        <path d="M57.8381375,0 L57.8381375,183.769401" id="Line"></path>
                        <path d="M63.5809313,0 L63.5809313,183.769401" id="Line"></path>
                        <path d="M69.3237251,0 L69.3237251,183.769401" id="Line"></path>
                        <path d="M75.0665188,0 L75.0665188,183.769401" id="Line"></path>
                        <path d="M80.8093126,0 L80.8093126,183.769401" id="Line"></path>
                        <path d="M86.5521064,0 L86.5521064,183.769401" id="Line"></path>
                        <path d="M92.2949002,0 L92.2949002,183.769401" id="Line"></path>
                        <path d="M98.037694,0 L98.037694,183.769401" id="Line"></path>
                        <path d="M103.780488,0 L103.780488,183.769401" id="Line"></path>
                        <path d="M109.523282,0 L109.523282,183.769401" id="Line"></path>
                        <path d="M115.266075,0 L115.266075,183.769401" id="Line"></path>
                        <path d="M121.008869,0 L121.008869,183.769401" id="Line"></path>
                        <path d="M126.751663,0 L126.751663,183.769401" id="Line"></path>
                        <path d="M132.494457,0 L132.494457,183.769401" id="Line"></path>
                        <path d="M138.237251,0 L138.237251,183.769401" id="Line"></path>
                        <path d="M143.980044,0 L143.980044,183.769401" id="Line"></path>
                        <path d="M149.722838,0 L149.722838,183.769401" id="Line"></path>
                        <path d="M155.465632,0 L155.465632,183.769401" id="Line"></path>
                        <path d="M161.208426,0 L161.208426,183.769401" id="Line"></path>
                        <path d="M166.95122,0 L166.95122,183.769401" id="Line"></path>
                        <path d="M172.694013,0 L172.694013,183.769401" id="Line"></path>
                        <path d="M178.436807,0 L178.436807,183.769401" id="Line"></path>
                        <path d="M184.179601,0 L184.179601,183.769401" id="Line"></path>
                    </g>
                </g>
                <g id="icon/navigation/down-to-bottom/24-copy-13" transform="translate(63.000000, 62.000000)">
                    <g id="printer" transform="translate(0.500000, 0.500000)">
                        <mask id="mask-2" fill="white">
                            <use xlink:href="#path-1"></use>
                        </mask>
                        <use id="Mask" fill="#231F20" fill-rule="nonzero" xlink:href="#path-1"></use>
                    </g>
                </g>
            </g>
        </g>
    </g>
</svg>