<svg xmlns="http://www.w3.org/2000/svg" xmlns:xlink="http://www.w3.org/1999/xlink" id="Layer_1" width="494" height="494" x="0" style="enable-background:new 0 0 494 494" y="0" version="1.1" viewBox="0 0 494 494" xml:space="preserve"><style type="text/css">.st0{fill:#fff}.st1{fill:none;stroke:#dcdcdc;stroke-linecap:square}.st2,.st3{opacity:.5;fill:#87b6ff;enable-background:new}.st3{fill:#ee538b}</style><g><path id="path-1" d="M207.5,128.6c27.2,0,49.3,22.1,49.3,49.3s-22.1,49.3-49.3,49.3s-49.3-22.1-49.3-49.3 C158.3,150.7,180.3,128.7,207.5,128.6z M207.5,108.9c-38.1,0-69,30.9-69,69s30.9,69,69,69s69-30.9,69-69S245.7,108.9,207.5,108.9z M306.2,385.1h-19.7v-49.3c0-27.2-22.1-49.3-49.3-49.3H178c-27.2,0-49.3,22.1-49.3,49.3v49.3h-19.7v-49.3c0-38.1,30.9-69,69-69 h59.2c38.1,0,69,30.9,69,69V385.1z M315.2,248.8l-25.5-25.5l-13.9,13.9l39.5,39.5l69-69l-13.9-13.9L315.2,248.8z" class="st0"/></g><title>Padding crowd</title><desc>Created with Sketch.</desc><g id="Page-1"><g id="Icons-Copy" transform="translate(-672.000000, -5323.000000)"><g id="Padding-crowd" transform="translate(672.000000, 5323.000000)"><rect id="Rectangle-3" width="494" height="494" class="st0"/><g id="Group-3" transform="translate(52.000000, 52.000000)"><g id="Grid-01"><g id="Vertical-lines" transform="translate(0.205100, 0.615299)"><path id="Line" d="M38,37.6v315.2" class="st1"/><path id="Line_1_" d="M67.6,37.6v315.2" class="st1"/><path id="Line_2_" d="M47.9,37.6v315.2" class="st1"/><path id="Line_3_" d="M77.4,37.6v315.2" class="st1"/><path id="Line_4_" d="M57.7,37.6v315.2" class="st1"/><path id="Line_5_" d="M87.3,37.6v315.2" class="st1"/><path id="Line_6_" d="M97.1,37.6v315.2" class="st1"/><path id="Line_7_" d="M107,37.6v315.2" class="st1"/><path id="Line_8_" d="M116.8,37.6v315.2" class="st1"/><path id="Line_9_" d="M126.7,37.6v315.2" class="st1"/><path id="Line_10_" d="M136.5,37.6v315.2" class="st1"/><path id="Line_11_" d="M146.4,37.6v315.2" class="st1"/><path id="Line_12_" d="M156.3,37.6v315.2" class="st1"/><path id="Line_13_" d="M166.1,37.6v315.2" class="st1"/><path id="Line_14_" d="M176,37.6v315.2" class="st1"/><path id="Line_15_" d="M185.8,37.6v315.2" class="st1"/><path id="Line_16_" d="M195.7,37.6v315.2" class="st1"/><path id="Line_17_" d="M205.5,37.6v315.2" class="st1"/><path id="Line_18_" d="M215.4,37.6v315.2" class="st1"/><path id="Line_19_" d="M225.2,37.6v315.2" class="st1"/><path id="Line_20_" d="M235.1,37.6v315.2" class="st1"/><path id="Line_21_" d="M244.9,37.6v315.2" class="st1"/><path id="Line_22_" d="M254.8,37.6v315.2" class="st1"/><path id="Line_23_" d="M264.6,37.6v315.2" class="st1"/><path id="Line_24_" d="M274.5,37.6v315.2" class="st1"/><path id="Line_25_" d="M284.3,37.6v315.2" class="st1"/><path id="Line_26_" d="M294.2,37.6v315.2" class="st1"/><path id="Line_27_" d="M304,37.6v315.2" class="st1"/><path id="Line_28_" d="M313.9,37.6v315.2" class="st1"/><path id="Line_29_" d="M323.7,37.6v315.2" class="st1"/><path id="Line_30_" d="M333.6,37.6v315.2" class="st1"/><path id="Line_31_" d="M343.4,37.6v315.2" class="st1"/><path id="Line_32_" d="M353.3,37.6v315.2" class="st1"/></g><g id="Horizontal" transform="translate(92.384701, 92.705100) rotate(90.000000) translate(-92.384701, -92.705100) translate(-0.115299, 0.705100)"><path id="Line_33_" d="M38-169.1v315.2" class="st1"/><path id="Line_34_" d="M67.6-169.1v315.2" class="st1"/><path id="Line_35_" d="M47.9-169.1v315.2" class="st1"/><path id="Line_36_" d="M77.4-169.1v315.2" class="st1"/><path id="Line_37_" d="M57.7-169.1v315.2" class="st1"/><path id="Line_38_" d="M87.3-169.1v315.2" class="st1"/><path id="Line_39_" d="M97.1-169.1v315.2" class="st1"/><path id="Line_40_" d="M107-169.1v315.2" class="st1"/><path id="Line_41_" d="M116.8-169.1v315.2" class="st1"/><path id="Line_42_" d="M126.7-169.1v315.2" class="st1"/><path id="Line_43_" d="M136.5-169.1v315.2" class="st1"/><path id="Line_44_" d="M146.4-169.1v315.2" class="st1"/><path id="Line_45_" d="M156.3-169.1v315.2" class="st1"/><path id="Line_46_" d="M166.1-169.1v315.2" class="st1"/><path id="Line_47_" d="M176-169.1v315.2" class="st1"/><path id="Line_48_" d="M185.8-169.1v315.2" class="st1"/><path id="Line_49_" d="M195.7-169.1v315.2" class="st1"/><path id="Line_50_" d="M205.5-169.1v315.2" class="st1"/><path id="Line_51_" d="M215.4-169.1v315.2" class="st1"/><path id="Line_52_" d="M225.2-169.1v315.2" class="st1"/><path id="Line_53_" d="M235.1-169.1v315.2" class="st1"/><path id="Line_54_" d="M244.9-169.1v315.2" class="st1"/><path id="Line_55_" d="M254.8-169.1v315.2" class="st1"/><path id="Line_56_" d="M264.6-169.1v315.2" class="st1"/><path id="Line_57_" d="M274.5-169.1v315.2" class="st1"/><path id="Line_58_" d="M284.3-169.1v315.2" class="st1"/><path id="Line_59_" d="M294.2-169.1v315.2" class="st1"/><path id="Line_60_" d="M304-169.1v315.2" class="st1"/><path id="Line_61_" d="M313.9-169.1v315.2" class="st1"/><path id="Line_62_" d="M323.7-169.1v315.2" class="st1"/><path id="Line_63_" d="M333.6-169.1v315.2" class="st1"/><path id="Line_64_" d="M343.4-169.1v315.2" class="st1"/><path id="Line_65_" d="M353.3-169.1v315.2" class="st1"/></g></g><path id="Combined-Shape" d="M333.4,58.3H58.3v275.1h275.1V58.3z M353.8,58.3v275.1v20.4H37.9v-20.4V58.3V37.9 h315.9V58.3z" class="st2"/></g><g id="Group" transform="translate(63.000000, 63.000000)"><g id="user-admin" transform="translate(0.500000, 0.500000)"><g id="Mask"><path id="path-1_1_" d="M144,65.1c27.2,0,49.3,22.1,49.3,49.3s-22.1,49.3-49.3,49.3s-49.3-22.1-49.3-49.3 C94.8,87.2,116.8,65.2,144,65.1z M144,45.4c-38.1,0-69,30.9-69,69s30.9,69,69,69s69-30.9,69-69S182.2,45.4,144,45.4z M242.7,321.6H223v-49.3c0-27.2-22.1-49.3-49.3-49.3h-59.2c-27.2,0-49.3,22.1-49.3,49.3v49.3H45.4v-49.3c0-38.1,30.9-69,69-69 h59.2c38.1,0,69,30.9,69,69V321.6z M251.7,185.3l-25.5-25.5l-13.9,13.9l39.5,39.5l69-69l-13.9-13.9L251.7,185.3z"/></g></g></g><circle id="Oval-5-Copy-2" cx="267.6" cy="219.6" r="34.3" class="st3"/></g></g></g></svg>