<?xml version="1.0" encoding="UTF-8"?>
<svg width="288px" height="288px" viewBox="0 0 288 288" version="1.1" xmlns="http://www.w3.org/2000/svg" xmlns:xlink="http://www.w3.org/1999/xlink">
    <!-- Generator: Sketch 51.2 (57519) - http://www.bohemiancoding.com/sketch -->
    <title>Group 9</title>
    <desc>Created with Sketch.</desc>
    <defs>
        <path d="M108.69375,9.85597826 L108.69375,128.127717 L9.88125,128.127717 L9.88125,9.85597826 L108.69375,9.85597826 Z M108.69375,0 L9.88125,0 C4.42398632,0 0,4.41267177 0,9.85597826 L0,128.127717 C0,133.571024 4.42398632,137.983696 9.88125,137.983696 L108.69375,137.983696 C114.151014,137.983696 118.575,133.571024 118.575,128.127717 L118.575,9.85597826 C118.575,4.41267177 114.151014,0 108.69375,0 Z M24.703125,103.487772 L34.584375,103.487772 L34.584375,113.34375 L24.703125,113.34375 L24.703125,103.487772 Z M83.990625,103.487772 L93.871875,103.487772 L93.871875,113.34375 L83.990625,113.34375 L83.990625,103.487772 Z M24.703125,78.8478261 L34.584375,78.8478261 L34.584375,88.7038043 L24.703125,88.7038043 L24.703125,78.8478261 Z M83.990625,78.8478261 L93.871875,78.8478261 L93.871875,88.7038043 L83.990625,88.7038043 L83.990625,78.8478261 Z M24.703125,54.2078804 L34.584375,54.2078804 L34.584375,64.0638587 L24.703125,64.0638587 L24.703125,54.2078804 Z M54.346875,103.487772 L64.228125,103.487772 L64.228125,113.34375 L54.346875,113.34375 L54.346875,103.487772 Z M54.346875,78.8478261 L64.228125,78.8478261 L64.228125,88.7038043 L54.346875,88.7038043 L54.346875,78.8478261 Z M54.346875,54.2078804 L64.228125,54.2078804 L64.228125,64.0638587 L54.346875,64.0638587 L54.346875,54.2078804 Z M83.990625,54.2078804 L93.871875,54.2078804 L93.871875,64.0638587 L83.990625,64.0638587 L83.990625,54.2078804 Z M24.703125,24.6399457 L93.871875,24.6399457 L93.871875,39.423913 L24.703125,39.423913 L24.703125,24.6399457 Z" id="path-1"></path>
    </defs>
    <g id="Page-1" stroke="none" stroke-width="1" fill="none" fill-rule="evenodd">
        <g id="Icons-Copy" transform="translate(-672.000000, -11652.000000)">
            <g id="Group-9" transform="translate(672.000000, 11652.000000)">
                <g id="Padding-don’t-Copy-2" fill="#FFFFFF">
                    <rect id="Rectangle-3" x="0" y="0" width="288" height="288"></rect>
                </g>
                <g id="Group-24" transform="translate(76.000000, 68.000000)">
                    <g id="icon/image/calculator/32-copy">
                        <g id="calculator" transform="translate(0.212500, 17.486413)">
                            <mask id="mask-2" fill="white">
                                <use xlink:href="#path-1"></use>
                            </mask>
                            <use id="Mask" fill="#000000" fill-rule="nonzero" xlink:href="#path-1"></use>
                            <g id="color/black" mask="url(#mask-2)">
                                <g transform="translate(-19.762500, -9.855978)"></g>
                            </g>
                        </g>
                        <path d="M41.9123047,0.529891304 L27.09375,0.529891304 C21.6364863,0.529891304 17.2125,4.94256308 17.2125,10.3858696 L17.2125,128.657609 C17.2125,134.100915 21.6364863,138.513587 27.09375,138.513587 L125.90625,138.513587 C131.363514,138.513587 135.7875,134.100915 135.7875,128.657609 C135.7875,121.930417 135.7875,116.752385 135.7875,113.123514 L41.9123047,113.123514 L41.9123047,0.529891304 Z" id="Shape" fill="#000000" fill-rule="nonzero" transform="translate(76.500000, 69.521739) scale(-1, -1) translate(-76.500000, -69.521739) "></path>
                    </g>
                    <polygon id="Path-5" fill="#000000" fill-rule="nonzero" points="3.4 20.0849503 20.1723511 3.39130435 36.0673096 13.6844429 20.7897217 22.2231445"></polygon>
                    <path d="M109.850291,150.196241 L127.046812,133.108696 C130.841995,135.764085 132.788044,138.569888 132.884959,141.526102 C132.981873,144.482316 130.790467,148.208321 126.31074,152.704117 L109.850291,150.196241 Z" id="Path-5-Copy" fill="#000000" fill-rule="nonzero" transform="translate(121.369164, 142.906407) scale(-1, -1) translate(-121.369164, -142.906407) "></path>
                </g>
            </g>
        </g>
    </g>
</svg>