<?xml version="1.0" encoding="UTF-8"?>
<svg width="288px" height="288px" viewBox="0 0 288 288" version="1.1" xmlns="http://www.w3.org/2000/svg" xmlns:xlink="http://www.w3.org/1999/xlink">
    <!-- Generator: Sketch 51.2 (57519) - http://www.bohemiancoding.com/sketch -->
    <title>Strokes consistent weights do</title>
    <desc>Created with Sketch.</desc>
    <defs></defs>
    <g id="Page-1" stroke="none" stroke-width="1" fill="none" fill-rule="evenodd">
        <g id="Icons-Copy" transform="translate(-673.000000, -10731.000000)">
            <g id="Strokes-consistent-weights-do" transform="translate(673.000000, 10731.000000)">
                <rect id="Rectangle-3" fill="#FFFFFF" x="0" y="0" width="288" height="288"></rect>
                <g id="Grid-01" transform="translate(51.500000, 51.000000)" stroke="#DCDCDC" stroke-linecap="square">
                    <g id="Vertical-lines" transform="translate(0.205100, 0.615299)">
                        <path d="M0.410199557,0 L0.410199557,183.769401" id="Line"></path>
                        <path d="M17.6385809,0 L17.6385809,183.769401" id="Line"></path>
                        <path d="M6.15299335,0 L6.15299335,183.769401" id="Line"></path>
                        <path d="M23.3813747,0 L23.3813747,183.769401" id="Line"></path>
                        <path d="M11.8957871,0 L11.8957871,183.769401" id="Line"></path>
                        <path d="M29.1241685,0 L29.1241685,183.769401" id="Line"></path>
                        <path d="M34.8669623,0 L34.8669623,183.769401" id="Line"></path>
                        <path d="M40.6097561,0 L40.6097561,183.769401" id="Line"></path>
                        <path d="M46.3525499,0 L46.3525499,183.769401" id="Line"></path>
                        <path d="M52.0953437,0 L52.0953437,183.769401" id="Line"></path>
                        <path d="M57.8381375,0 L57.8381375,183.769401" id="Line"></path>
                        <path d="M63.5809313,0 L63.5809313,183.769401" id="Line"></path>
                        <path d="M69.3237251,0 L69.3237251,183.769401" id="Line"></path>
                        <path d="M75.0665188,0 L75.0665188,183.769401" id="Line"></path>
                        <path d="M80.8093126,0 L80.8093126,183.769401" id="Line"></path>
                        <path d="M86.5521064,0 L86.5521064,183.769401" id="Line"></path>
                        <path d="M92.2949002,0 L92.2949002,183.769401" id="Line"></path>
                        <path d="M98.037694,0 L98.037694,183.769401" id="Line"></path>
                        <path d="M103.780488,0 L103.780488,183.769401" id="Line"></path>
                        <path d="M109.523282,0 L109.523282,183.769401" id="Line"></path>
                        <path d="M115.266075,0 L115.266075,183.769401" id="Line"></path>
                        <path d="M121.008869,0 L121.008869,183.769401" id="Line"></path>
                        <path d="M126.751663,0 L126.751663,183.769401" id="Line"></path>
                        <path d="M132.494457,0 L132.494457,183.769401" id="Line"></path>
                        <path d="M138.237251,0 L138.237251,183.769401" id="Line"></path>
                        <path d="M143.980044,0 L143.980044,183.769401" id="Line"></path>
                        <path d="M149.722838,0 L149.722838,183.769401" id="Line"></path>
                        <path d="M155.465632,0 L155.465632,183.769401" id="Line"></path>
                        <path d="M161.208426,0 L161.208426,183.769401" id="Line"></path>
                        <path d="M166.95122,0 L166.95122,183.769401" id="Line"></path>
                        <path d="M172.694013,0 L172.694013,183.769401" id="Line"></path>
                        <path d="M178.436807,0 L178.436807,183.769401" id="Line"></path>
                        <path d="M184.179601,0 L184.179601,183.769401" id="Line"></path>
                    </g>
                    <g id="Horizontal" transform="translate(92.384701, 92.705100) rotate(90.000000) translate(-92.384701, -92.705100) translate(-0.115299, 0.705100)">
                        <path d="M0.410199557,0 L0.410199557,183.769401" id="Line"></path>
                        <path d="M17.6385809,0 L17.6385809,183.769401" id="Line"></path>
                        <path d="M6.15299335,0 L6.15299335,183.769401" id="Line"></path>
                        <path d="M23.3813747,0 L23.3813747,183.769401" id="Line"></path>
                        <path d="M11.8957871,0 L11.8957871,183.769401" id="Line"></path>
                        <path d="M29.1241685,0 L29.1241685,183.769401" id="Line"></path>
                        <path d="M34.8669623,0 L34.8669623,183.769401" id="Line"></path>
                        <path d="M40.6097561,0 L40.6097561,183.769401" id="Line"></path>
                        <path d="M46.3525499,0 L46.3525499,183.769401" id="Line"></path>
                        <path d="M52.0953437,0 L52.0953437,183.769401" id="Line"></path>
                        <path d="M57.8381375,0 L57.8381375,183.769401" id="Line"></path>
                        <path d="M63.5809313,0 L63.5809313,183.769401" id="Line"></path>
                        <path d="M69.3237251,0 L69.3237251,183.769401" id="Line"></path>
                        <path d="M75.0665188,0 L75.0665188,183.769401" id="Line"></path>
                        <path d="M80.8093126,0 L80.8093126,183.769401" id="Line"></path>
                        <path d="M86.5521064,0 L86.5521064,183.769401" id="Line"></path>
                        <path d="M92.2949002,0 L92.2949002,183.769401" id="Line"></path>
                        <path d="M98.037694,0 L98.037694,183.769401" id="Line"></path>
                        <path d="M103.780488,0 L103.780488,183.769401" id="Line"></path>
                        <path d="M109.523282,0 L109.523282,183.769401" id="Line"></path>
                        <path d="M115.266075,0 L115.266075,183.769401" id="Line"></path>
                        <path d="M121.008869,0 L121.008869,183.769401" id="Line"></path>
                        <path d="M126.751663,0 L126.751663,183.769401" id="Line"></path>
                        <path d="M132.494457,0 L132.494457,183.769401" id="Line"></path>
                        <path d="M138.237251,0 L138.237251,183.769401" id="Line"></path>
                        <path d="M143.980044,0 L143.980044,183.769401" id="Line"></path>
                        <path d="M149.722838,0 L149.722838,183.769401" id="Line"></path>
                        <path d="M155.465632,0 L155.465632,183.769401" id="Line"></path>
                        <path d="M161.208426,0 L161.208426,183.769401" id="Line"></path>
                        <path d="M166.95122,0 L166.95122,183.769401" id="Line"></path>
                        <path d="M172.694013,0 L172.694013,183.769401" id="Line"></path>
                        <path d="M178.436807,0 L178.436807,183.769401" id="Line"></path>
                        <path d="M184.179601,0 L184.179601,183.769401" id="Line"></path>
                    </g>
                </g>
                <g id="icon/navigation/down-to-bottom/24-copy-13" transform="translate(92.000000, 62.000000)" fill="#000000" fill-rule="nonzero">
                    <g id="microphone" transform="translate(0.250000, 0.500000)">
                        <path d="M92,69.5 L103.5,69.5 L103.5,86.75 C103.487494,113.096272 83.6831387,135.227639 57.5,138.155 L57.5,150 L80.5,150 L80.5,161.5 L23,161.5 L23,150 L46,150 L46,138.155 C19.8168613,135.227639 0.0125057668,113.096272 0,86.75 L0,69.5 L11.5,69.5 L11.5,86.75 C11.5,108.979461 29.5205388,127 51.75,127 C73.9794612,127 92,108.979461 92,86.75 L92,69.5 Z M51.75,115.5 C35.8718134,115.5 23,102.628187 23,86.75 L23,29.25 C23,13.3718134 35.8718134,0.5 51.75,0.5 C67.6281866,0.5 80.5,13.3718134 80.5,29.25 L80.5,86.75 C80.5,102.628187 67.6281866,115.5 51.75,115.5 Z M51.75,92.5 C54.9256373,92.5 57.5,89.9256373 57.5,86.75 L57.5,29.25 C57.5,26.0743627 54.9256373,23.5 51.75,23.5 C48.5743627,23.5 46,26.0743627 46,29.25 L46,86.75 C46,89.9256373 48.5743627,92.5 51.75,92.5 Z" id="Combined-Shape"></path>
                    </g>
                </g>
            </g>
        </g>
    </g>
</svg>