<?xml version="1.0" encoding="UTF-8"?><svg width="288px" height="288px" viewBox="0 0 288 288" version="1.1" xmlns="http://www.w3.org/2000/svg" xmlns:xlink="http://www.w3.org/1999/xlink"><!--Generator: Sketch 50.2 (55047) - http://www.bohemiancoding.com/sketch--><title>Style rounded exteriors</title><desc>Created with Sketch.</desc><defs/><g id="style-rounded-exteriors-mobile_svg__Desktop" stroke="none" stroke-width="1" fill="none" fill-rule="evenodd"><g id="style-rounded-exteriors-mobile_svg__Icons_Mobile-Assets_1312px" transform="translate(-16.000000, -1688.000000)"><g id="style-rounded-exteriors-mobile_svg__Style-rounded-exteriors" transform="translate(16.000000, 1688.000000)"><rect id="style-rounded-exteriors-mobile_svg__Rectangle-5" fill="#000000" x="0" y="0" width="288" height="288"/><g transform="translate(48.000000, 48.000000)"><g id="style-rounded-exteriors-mobile_svg__Group-72" transform="translate(0.977679, 0.977679)" opacity="0.25" stroke-linecap="square"><g id="style-rounded-exteriors-mobile_svg__Grid-01" transform="translate(0.650026, 0.650026)"><g id="style-rounded-exteriors-mobile_svg__Vertical-lines" transform="translate(0.210691, 0.632074)" stroke="#DCDCDC"><path d="M0.421382924,0 L0.421382924,188.77955" id="style-rounded-exteriors-mobile_svg__Line"/><path d="M18.1194657,0 L18.1194657,188.77955" id="style-rounded-exteriors-mobile_svg__Line"/><path d="M6.32074386,0 L6.32074386,188.77955" id="style-rounded-exteriors-mobile_svg__Line"/><path d="M24.0188267,0 L24.0188267,188.77955" id="style-rounded-exteriors-mobile_svg__Line"/><path d="M12.2201048,0 L12.2201048,188.77955" id="style-rounded-exteriors-mobile_svg__Line"/><path d="M29.9181876,0 L29.9181876,188.77955" id="style-rounded-exteriors-mobile_svg__Line"/><path d="M35.8175485,0 L35.8175485,188.77955" id="style-rounded-exteriors-mobile_svg__Line"/><path d="M41.7169095,0 L41.7169095,188.77955" id="style-rounded-exteriors-mobile_svg__Line"/><path d="M47.6162704,0 L47.6162704,188.77955" id="style-rounded-exteriors-mobile_svg__Line"/><path d="M53.5156313,0 L53.5156313,188.77955" id="style-rounded-exteriors-mobile_svg__Line"/><path d="M59.4149923,0 L59.4149923,188.77955" id="style-rounded-exteriors-mobile_svg__Line"/><path d="M65.3143532,0 L65.3143532,188.77955" id="style-rounded-exteriors-mobile_svg__Line"/><path d="M71.2137141,0 L71.2137141,188.77955" id="style-rounded-exteriors-mobile_svg__Line"/><path d="M77.1130751,0 L77.1130751,188.77955" id="style-rounded-exteriors-mobile_svg__Line"/><path d="M83.012436,0 L83.012436,188.77955" id="style-rounded-exteriors-mobile_svg__Line"/><path d="M88.9117969,0 L88.9117969,188.77955" id="style-rounded-exteriors-mobile_svg__Line"/><path d="M94.8111579,0 L94.8111579,188.77955" id="style-rounded-exteriors-mobile_svg__Line"/><path d="M100.710519,0 L100.710519,188.77955" id="style-rounded-exteriors-mobile_svg__Line"/><path d="M106.60988,0 L106.60988,188.77955" id="style-rounded-exteriors-mobile_svg__Line"/><path d="M112.509241,0 L112.509241,188.77955" id="style-rounded-exteriors-mobile_svg__Line"/><path d="M118.408602,0 L118.408602,188.77955" id="style-rounded-exteriors-mobile_svg__Line"/><path d="M124.307963,0 L124.307963,188.77955" id="style-rounded-exteriors-mobile_svg__Line"/><path d="M130.207323,0 L130.207323,188.77955" id="style-rounded-exteriors-mobile_svg__Line"/><path d="M136.106684,0 L136.106684,188.77955" id="style-rounded-exteriors-mobile_svg__Line"/><path d="M142.006045,0 L142.006045,188.77955" id="style-rounded-exteriors-mobile_svg__Line"/><path d="M147.905406,0 L147.905406,188.77955" id="style-rounded-exteriors-mobile_svg__Line"/><path d="M153.804767,0 L153.804767,188.77955" id="style-rounded-exteriors-mobile_svg__Line"/><path d="M159.704128,0 L159.704128,188.77955" id="style-rounded-exteriors-mobile_svg__Line"/><path d="M165.603489,0 L165.603489,188.77955" id="style-rounded-exteriors-mobile_svg__Line"/><path d="M171.50285,0 L171.50285,188.77955" id="style-rounded-exteriors-mobile_svg__Line"/><path d="M177.402211,0 L177.402211,188.77955" id="style-rounded-exteriors-mobile_svg__Line"/><path d="M183.301572,0 L183.301572,188.77955" id="style-rounded-exteriors-mobile_svg__Line"/><path d="M189.200933,0 L189.200933,188.77955" id="style-rounded-exteriors-mobile_svg__Line"/></g><g id="style-rounded-exteriors-mobile_svg__Horizontal" transform="translate(94.911624, 95.210691) rotate(90.000000) translate(-94.911624, -95.210691) translate(-0.088376, 0.710691)" stroke="#F3F3F3"><path d="M0.421382924,0 L0.421382924,188.77955" id="style-rounded-exteriors-mobile_svg__Line"/><path d="M18.1194657,0 L18.1194657,188.77955" id="style-rounded-exteriors-mobile_svg__Line"/><path d="M6.32074386,0 L6.32074386,188.77955" id="style-rounded-exteriors-mobile_svg__Line"/><path d="M24.0188267,0 L24.0188267,188.77955" id="style-rounded-exteriors-mobile_svg__Line"/><path d="M12.2201048,0 L12.2201048,188.77955" id="style-rounded-exteriors-mobile_svg__Line"/><path d="M29.9181876,0 L29.9181876,188.77955" id="style-rounded-exteriors-mobile_svg__Line"/><path d="M35.8175485,0 L35.8175485,188.77955" id="style-rounded-exteriors-mobile_svg__Line"/><path d="M41.7169095,0 L41.7169095,188.77955" id="style-rounded-exteriors-mobile_svg__Line"/><path d="M47.6162704,0 L47.6162704,188.77955" id="style-rounded-exteriors-mobile_svg__Line"/><path d="M53.5156313,0 L53.5156313,188.77955" id="style-rounded-exteriors-mobile_svg__Line"/><path d="M59.4149923,0 L59.4149923,188.77955" id="style-rounded-exteriors-mobile_svg__Line"/><path d="M65.3143532,0 L65.3143532,188.77955" id="style-rounded-exteriors-mobile_svg__Line"/><path d="M71.2137141,0 L71.2137141,188.77955" id="style-rounded-exteriors-mobile_svg__Line"/><path d="M77.1130751,0 L77.1130751,188.77955" id="style-rounded-exteriors-mobile_svg__Line"/><path d="M83.012436,0 L83.012436,188.77955" id="style-rounded-exteriors-mobile_svg__Line"/><path d="M88.9117969,0 L88.9117969,188.77955" id="style-rounded-exteriors-mobile_svg__Line"/><path d="M94.8111579,0 L94.8111579,188.77955" id="style-rounded-exteriors-mobile_svg__Line"/><path d="M100.710519,0 L100.710519,188.77955" id="style-rounded-exteriors-mobile_svg__Line"/><path d="M106.60988,0 L106.60988,188.77955" id="style-rounded-exteriors-mobile_svg__Line"/><path d="M112.509241,0 L112.509241,188.77955" id="style-rounded-exteriors-mobile_svg__Line"/><path d="M118.408602,0 L118.408602,188.77955" id="style-rounded-exteriors-mobile_svg__Line"/><path d="M124.307963,0 L124.307963,188.77955" id="style-rounded-exteriors-mobile_svg__Line"/><path d="M130.207323,0 L130.207323,188.77955" id="style-rounded-exteriors-mobile_svg__Line"/><path d="M136.106684,0 L136.106684,188.77955" id="style-rounded-exteriors-mobile_svg__Line"/><path d="M142.006045,0 L142.006045,188.77955" id="style-rounded-exteriors-mobile_svg__Line"/><path d="M147.905406,0 L147.905406,188.77955" id="style-rounded-exteriors-mobile_svg__Line"/><path d="M153.804767,0 L153.804767,188.77955" id="style-rounded-exteriors-mobile_svg__Line"/><path d="M159.704128,0 L159.704128,188.77955" id="style-rounded-exteriors-mobile_svg__Line"/><path d="M165.603489,0 L165.603489,188.77955" id="style-rounded-exteriors-mobile_svg__Line"/><path d="M171.50285,0 L171.50285,188.77955" id="style-rounded-exteriors-mobile_svg__Line"/><path d="M177.402211,0 L177.402211,188.77955" id="style-rounded-exteriors-mobile_svg__Line"/><path d="M183.301572,0 L183.301572,188.77955" id="style-rounded-exteriors-mobile_svg__Line"/><path d="M189.200933,0 L189.200933,188.77955" id="style-rounded-exteriors-mobile_svg__Line"/></g></g></g><path d="M120.217076,84.5591518 L72.906808,84.5591518 L72.906808,49.0764509 C72.906808,36.011808 83.4972991,25.421317 96.561942,25.421317 C109.626585,25.421317 120.217076,36.011808 120.217076,49.0764509 L120.217076,84.5591518 Z M132.044643,84.5591518 L132.044643,49.0764509 C132.044643,29.4801875 116.158205,13.59375 96.561942,13.59375 C76.9656786,13.59375 61.0792411,29.4801875 61.0792411,49.0764509 L61.0792411,84.5591518 L49.2516741,84.5591518 C42.7193527,84.5591518 37.4241071,89.8543973 37.4241071,96.3867188 L37.4241071,155.612165 L43.0606875,156.313058 L49.2516741,155.612165 L49.2516741,96.3867188 L143.87221,96.3867188 L143.87221,167.352121 L60.8164062,167.355543 L60.1155134,173.601982 L60.8164062,179.179688 L143.87221,179.179688 C150.404531,179.179688 155.699777,173.883741 155.699777,167.352121 L155.699777,96.3867188 C155.699777,89.8543973 150.404531,84.5591518 143.87221,84.5591518 L132.044643,84.5591518 Z" id="style-rounded-exteriors-mobile_svg__Fill-1" fill="#FFFFFF"/><path d="M60.8164062,179.18311 L49.2516741,179.18311 C42.7193527,179.18311 37.4241071,173.887163 37.4241071,167.355543 L37.4241071,155.615588 L49.2516741,155.615588 L49.2516741,167.355543 L60.8164062,167.355543 L60.8164062,179.18311 Z" id="style-rounded-exteriors-mobile_svg__Fill-1" fill="#006AFF"/></g></g></g></g></svg>