<?xml version="1.0" encoding="UTF-8"?>
<svg width="448px" height="448px" viewBox="0 0 448 448" version="1.1" xmlns="http://www.w3.org/2000/svg" xmlns:xlink="http://www.w3.org/1999/xlink">
    <!-- Generator: Sketch 51.3 (57544) - http://www.bohemiancoding.com/sketch -->
    <title>Group 58</title>
    <desc>Created with Sketch.</desc>
    <defs></defs>
    <g id="Desktop" stroke="none" stroke-width="1" fill="none" fill-rule="evenodd">
        <g id="Icons-Copy-2" transform="translate(-831.000000, -4720.000000)">
            <g id="Group-58" transform="translate(831.000000, 4720.000000)">
                <g id="Group-84">
                    <rect id="Rectangle-5-Copy-12" fill="#000000" x="0" y="9.09494702e-13" width="448" height="448"></rect>
                    <g id="Padding-don’t-Copy-4" transform="translate(81.000000, 78.000000)" stroke="#3D3D3D" stroke-linecap="square">
                        <g id="Group-30" transform="translate(0.333333, 0.333333)">
                            <g id="Group-3" transform="translate(0.777778, 0.777778)">
                                <g id="Grid-01">
                                    <g id="Vertical-lines" transform="translate(0.319044, 0.957132)">
                                        <path d="M0.638088199,0 L0.638088199,285.863513" id="Line"></path>
                                        <path d="M27.4377926,0 L27.4377926,285.863513" id="Line"></path>
                                        <path d="M9.57132299,0 L9.57132299,285.863513" id="Line"></path>
                                        <path d="M36.3710273,0 L36.3710273,285.863513" id="Line"></path>
                                        <path d="M18.5045578,0 L18.5045578,285.863513" id="Line"></path>
                                        <path d="M45.3042621,0 L45.3042621,285.863513" id="Line"></path>
                                        <path d="M54.2374969,0 L54.2374969,285.863513" id="Line"></path>
                                        <path d="M63.1707317,0 L63.1707317,285.863513" id="Line"></path>
                                        <path d="M72.1039665,0 L72.1039665,285.863513" id="Line"></path>
                                        <path d="M81.0372013,0 L81.0372013,285.863513" id="Line"></path>
                                        <path d="M89.9704361,0 L89.9704361,285.863513" id="Line"></path>
                                        <path d="M98.9036709,0 L98.9036709,285.863513" id="Line"></path>
                                        <path d="M107.836906,0 L107.836906,285.863513" id="Line"></path>
                                        <path d="M116.77014,0 L116.77014,285.863513" id="Line"></path>
                                        <path d="M125.703375,0 L125.703375,285.863513" id="Line"></path>
                                        <path d="M134.63661,0 L134.63661,285.863513" id="Line"></path>
                                        <path d="M143.569845,0 L143.569845,285.863513" id="Line"></path>
                                        <path d="M152.50308,0 L152.50308,285.863513" id="Line"></path>
                                        <path d="M161.436314,0 L161.436314,285.863513" id="Line"></path>
                                        <path d="M170.369549,0 L170.369549,285.863513" id="Line"></path>
                                        <path d="M179.302784,0 L179.302784,285.863513" id="Line"></path>
                                        <path d="M188.236019,0 L188.236019,285.863513" id="Line"></path>
                                        <path d="M197.169254,0 L197.169254,285.863513" id="Line"></path>
                                        <path d="M206.102488,0 L206.102488,285.863513" id="Line"></path>
                                        <path d="M215.035723,0 L215.035723,285.863513" id="Line"></path>
                                        <path d="M223.968958,0 L223.968958,285.863513" id="Line"></path>
                                        <path d="M232.902193,0 L232.902193,285.863513" id="Line"></path>
                                        <path d="M241.835427,0 L241.835427,285.863513" id="Line"></path>
                                        <path d="M250.768662,0 L250.768662,285.863513" id="Line"></path>
                                        <path d="M259.701897,0 L259.701897,285.863513" id="Line"></path>
                                        <path d="M268.635132,0 L268.635132,285.863513" id="Line"></path>
                                        <path d="M277.568367,0 L277.568367,285.863513" id="Line"></path>
                                        <path d="M286.501601,0 L286.501601,285.863513" id="Line"></path>
                                    </g>
                                    <g id="Horizontal" transform="translate(143.820645, 144.319044) rotate(90.000000) translate(-143.820645, -144.319044) translate(-0.179355, 1.319044)">
                                        <path d="M0.638088199,0 L0.638088199,285.863513" id="Line"></path>
                                        <path d="M27.4377926,0 L27.4377926,285.863513" id="Line"></path>
                                        <path d="M9.57132299,0 L9.57132299,285.863513" id="Line"></path>
                                        <path d="M36.3710273,0 L36.3710273,285.863513" id="Line"></path>
                                        <path d="M18.5045578,0 L18.5045578,285.863513" id="Line"></path>
                                        <path d="M45.3042621,0 L45.3042621,285.863513" id="Line"></path>
                                        <path d="M54.2374969,0 L54.2374969,285.863513" id="Line"></path>
                                        <path d="M63.1707317,0 L63.1707317,285.863513" id="Line"></path>
                                        <path d="M72.1039665,0 L72.1039665,285.863513" id="Line"></path>
                                        <path d="M81.0372013,0 L81.0372013,285.863513" id="Line"></path>
                                        <path d="M89.9704361,0 L89.9704361,285.863513" id="Line"></path>
                                        <path d="M98.9036709,0 L98.9036709,285.863513" id="Line"></path>
                                        <path d="M107.836906,0 L107.836906,285.863513" id="Line"></path>
                                        <path d="M116.77014,0 L116.77014,285.863513" id="Line"></path>
                                        <path d="M125.703375,0 L125.703375,285.863513" id="Line"></path>
                                        <path d="M134.63661,0 L134.63661,285.863513" id="Line"></path>
                                        <path d="M143.569845,0 L143.569845,285.863513" id="Line"></path>
                                        <path d="M152.50308,0 L152.50308,285.863513" id="Line"></path>
                                        <path d="M161.436314,0 L161.436314,285.863513" id="Line"></path>
                                        <path d="M170.369549,0 L170.369549,285.863513" id="Line"></path>
                                        <path d="M179.302784,0 L179.302784,285.863513" id="Line"></path>
                                        <path d="M188.236019,0 L188.236019,285.863513" id="Line"></path>
                                        <path d="M197.169254,0 L197.169254,285.863513" id="Line"></path>
                                        <path d="M206.102488,0 L206.102488,285.863513" id="Line"></path>
                                        <path d="M215.035723,0 L215.035723,285.863513" id="Line"></path>
                                        <path d="M223.968958,0 L223.968958,285.863513" id="Line"></path>
                                        <path d="M232.902193,0 L232.902193,285.863513" id="Line"></path>
                                        <path d="M241.835427,0 L241.835427,285.863513" id="Line"></path>
                                        <path d="M250.768662,0 L250.768662,285.863513" id="Line"></path>
                                        <path d="M259.701897,0 L259.701897,285.863513" id="Line"></path>
                                        <path d="M268.635132,0 L268.635132,285.863513" id="Line"></path>
                                        <path d="M277.568367,0 L277.568367,285.863513" id="Line"></path>
                                        <path d="M286.501601,0 L286.501601,285.863513" id="Line"></path>
                                    </g>
                                </g>
                            </g>
                        </g>
                    </g>
                    <g id="Group-15-Copy" transform="translate(82.000000, 79.000000)" fill="#BEBEBE" fill-opacity="0.16" stroke="#418CFF">
                        <g id="Group-12">
                            <path d="M179.777778,189.111111 C179.777778,208.87237 163.761259,224.888889 144,224.888889 C124.238741,224.888889 108.222222,208.87237 108.222222,189.111111 C108.222222,169.349852 124.238741,153.333333 144,153.333333 C163.761259,153.333333 179.777778,169.349852 179.777778,189.111111" id="Fill-1"></path>
                            <path d="M144,269.292929 C99.5401481,269.292929 63.5,233.395232 63.5,189.111111 C63.5,144.82699 99.5401481,108.929293 144,108.929293 C188.459852,108.929293 224.5,144.82699 224.5,189.111111 C224.5,233.395232 188.459852,269.292929 144,269.292929 M144,91.1111111 C79.651679,91.1111111 24.4505432,131.526707 0.888888889,189.111111 C24.4505432,246.695515 79.651679,287.111111 144,287.111111 C208.348321,287.111111 263.549457,246.695515 287.111111,189.111111 C263.549457,131.526707 208.348321,91.1111111 144,91.1111111" id="Fill-3"></path>
                            <path d="M143.222222,0.888888889 C85.807865,0.888888889 35.6734617,33.2479012 8.66666667,81.3888889 L8.66666667,108.222222 C40.8085004,69.9638519 89.1488296,45.6111111 143.222222,45.6111111 C197.295615,45.6111111 245.635944,69.9638519 277.777778,108.222222 L277.777778,81.3888889 C250.770983,33.2479012 200.636579,0.888888889 143.222222,0.888888889" id="Fill-5"></path>
                        </g>
                    </g>
                </g>
            </g>
        </g>
    </g>
</svg>