<svg id="Layer_1" data-name="Layer 1" xmlns="http://www.w3.org/2000/svg" viewBox="0 0 288 288"><defs><style>.cls-1{fill:none;stroke:#3d3d3d;stroke-miterlimit:10}</style></defs><path d="M0 0h288v288H0z"/><path class="cls-1" d="M52 52h5.75v184H52zm5.75 0h5.75v184h-5.75zm5.75 0h5.75v184H63.5zm5.75 0H75v184h-5.75zM75 52h5.75v184H75zm5.75 0h5.75v184h-5.75zm5.75 0h5.75v184H86.5zm5.75 0H98v184h-5.75zM98 52h5.75v184H98zm5.75 0h5.75v184h-5.75zm5.75 0h5.75v184h-5.75zm5.75 0H121v184h-5.75zm5.75 0h5.75v184H121zm5.75 0h5.75v184h-5.75zm5.75 0h5.75v184h-5.75zm5.75 0H144v184h-5.75zm5.75 0h5.75v184H144zm5.75 0h5.75v184h-5.75zm5.75 0h5.75v184h-5.75zm5.75 0H167v184h-5.75zm5.75 0h5.75v184H167zm5.75 0h5.75v184h-5.75zm5.75 0h5.75v184h-5.75zm5.75 0H190v184h-5.75zm5.75 0h5.75v184H190zm5.75 0h5.75v184h-5.75zm5.75 0h5.75v184h-5.75zm5.75 0H213v184h-5.75zm5.75 0h5.75v184H213zm5.75 0h5.75v184h-5.75zm5.75 0h5.75v184h-5.75zm5.75 0H236v184h-5.75z"/><path class="cls-1" transform="rotate(90 144 54.88)" d="M141.13-37.12h5.75v184h-5.75z"/><path class="cls-1" transform="rotate(90 144 60.63)" d="M141.13-31.37h5.75v184h-5.75z"/><path class="cls-1" transform="rotate(90 144 66.38)" d="M141.13-25.62h5.75v184h-5.75z"/><path class="cls-1" transform="rotate(90 144 72.13)" d="M141.13-19.87h5.75v184h-5.75z"/><path class="cls-1" transform="rotate(90 144 77.88)" d="M141.13-14.12h5.75v184h-5.75z"/><path class="cls-1" transform="rotate(90 144 83.63)" d="M141.13-8.37h5.75v184h-5.75z"/><path class="cls-1" transform="rotate(90 144 89.38)" d="M141.13-2.62h5.75v184h-5.75z"/><path class="cls-1" transform="rotate(90 144 95.13)" d="M141.13 3.13h5.75v184h-5.75z"/><path class="cls-1" transform="rotate(90 144 100.88)" d="M141.13 8.88h5.75v184h-5.75z"/><path class="cls-1" transform="rotate(90 144 106.63)" d="M141.13 14.63h5.75v184h-5.75z"/><path class="cls-1" transform="rotate(90 144 112.38)" d="M141.13 20.38h5.75v184h-5.75z"/><path class="cls-1" transform="rotate(90 144 118.13)" d="M141.13 26.13h5.75v184h-5.75z"/><path class="cls-1" transform="rotate(90 144 123.88)" d="M141.13 31.88h5.75v184h-5.75z"/><path class="cls-1" transform="rotate(90 144 129.63)" d="M141.13 37.63h5.75v184h-5.75z"/><path class="cls-1" transform="rotate(90 144 135.38)" d="M141.13 43.38h5.75v184h-5.75z"/><path class="cls-1" transform="rotate(90 144 141.13)" d="M141.13 49.13h5.75v184h-5.75z"/><path class="cls-1" transform="rotate(90 144 146.87)" d="M141.13 54.88h5.75v184h-5.75z"/><path class="cls-1" transform="rotate(90 144 152.62)" d="M141.13 60.63h5.75v184h-5.75z"/><path class="cls-1" transform="rotate(90 144 158.37)" d="M141.13 66.38h5.75v184h-5.75z"/><path class="cls-1" transform="rotate(90 144 164.12)" d="M141.13 72.13h5.75v184h-5.75z"/><path class="cls-1" transform="rotate(90 144 169.87)" d="M141.13 77.88h5.75v184h-5.75z"/><path class="cls-1" transform="rotate(90 144 175.62)" d="M141.13 83.63h5.75v184h-5.75z"/><path class="cls-1" transform="rotate(90 144 181.37)" d="M141.13 89.38h5.75v184h-5.75z"/><path class="cls-1" transform="rotate(90 144 187.12)" d="M141.13 95.13h5.75v184h-5.75z"/><path class="cls-1" transform="rotate(90 144 192.87)" d="M141.13 100.88h5.75v184h-5.75z"/><path class="cls-1" transform="rotate(90 144 198.62)" d="M141.13 106.63h5.75v184h-5.75z"/><path class="cls-1" transform="rotate(90 144 204.37)" d="M141.13 112.38h5.75v184h-5.75z"/><path class="cls-1" transform="rotate(90 144 210.12)" d="M141.13 118.13h5.75v184h-5.75z"/><path class="cls-1" transform="rotate(90 144 215.87)" d="M141.13 123.88h5.75v184h-5.75z"/><path class="cls-1" transform="rotate(90 144 221.62)" d="M141.13 129.63h5.75v184h-5.75z"/><path class="cls-1" transform="rotate(90 144 227.37)" d="M141.13 135.38h5.75v184h-5.75z"/><path class="cls-1" transform="rotate(90 144 233.12)" d="M141.13 141.13h5.75v184h-5.75z"/><path d="M64.76 114.79h23.79c16.74 0 27.77 10.58 27.77 31.57s-11 31.56-27.77 31.56H64.76zm23.79 50.92c8.14 0 13.21-4.43 13.21-14.47v-9.77c0-10-5.07-14.47-13.21-14.47h-10v38.71zM127.09 111h13.38v27.4h.46c1.35-5.25 6.6-9.05 12.75-9.05 12 0 18.27 8.68 18.27 24.78S165.71 179 153.68 179c-6.15 0-11.4-3.89-12.75-9h-.46v8h-13.38zM158 158.29v-8.23c0-6-3.71-9.86-8.77-9.86s-8.78 2.63-8.78 7v14c0 4.34 3.71 7 8.78 7s8.77-3.93 8.77-9.91zm67.68 19.63H181v-12.39l19.45-16.64c7.05-6.06 9.49-9.59 9.49-14.93v-1.26c0-4.8-4.25-7.24-8.32-7.24-6 0-8.86 4.07-10.13 8.87l-11.85-4.53c2.81-8.77 10.13-16.1 23.25-16.1 13.66 0 21.53 8 21.53 19s-7.78 17.45-16.83 24.6l-11.76 9.23h29.85z" fill="#f3f3f3"/></svg>