<?xml version="1.0" encoding="utf-8"?>
<!-- Generator: Adobe Illustrator 26.0.2, SVG Export Plug-In . SVG Version: 6.00 Build 0)  -->
<svg version="1.1" id="Layer_1" xmlns="http://www.w3.org/2000/svg" xmlns:xlink="http://www.w3.org/1999/xlink" x="0px" y="0px"
	 viewBox="0 0 1854 1038" style="enable-background:new 0 0 1854 1038;" xml:space="preserve">
<style type="text/css">
	.st0{fill:#FFFFFF;stroke:#000000;stroke-miterlimit:10;}
	.st1{fill:#D0E2FF;}
	.st2{fill:#E5F6FF;}
	.st3{fill:#E8DAFF;}
	.st4{fill:#E0E0E0;}
	.st5{fill:#EE5396;}
	.st6{fill:#4587FF;}
	.st7{fill:none;}
</style>
<rect class="st0" width="1854" height="1038.2"/>
<path class="st1" d="M1175.8,947.2l-124.1,35.6c-4.9,1.4-8.4,5.9-8.3,11.1l0,0c0,6.4,5.2,11.5,11.5,11.5l0,0h159.6
	c15.8,0,28.6-12.8,28.6-28.6l0,0l0,0c0-7.5-2.9-14.7-8.2-20l0,0c-7.3-7.5-17.4-11.7-27.9-11.7h-15.9
	C1186,945.1,1180.8,945.8,1175.8,947.2z"/>
<path d="M1214.5,1006.1h-159.6c-6.7,0-12.2-5.4-12.2-12.1c0-5.4,3.6-10.2,8.8-11.7l124.1-35.6c5.1-1.5,10.3-2.2,15.6-2.2h15.9
	c10.7,0,20.9,4.3,28.3,11.9c11.3,11.5,11.1,30.1-0.5,41.4C1229.5,1003.1,1222.2,1006.1,1214.5,1006.1L1214.5,1006.1z M1191.2,945.7
	c-5.2,0-10.3,0.7-15.2,2.2l0,0l-124.1,35.6c-5.8,1.7-9.1,7.7-7.4,13.5c1.3,4.7,5.6,7.9,10.4,7.9h159.6c15.5,0,28-12.6,28-28
	c0-7.3-2.9-14.3-8-19.5c-7.2-7.4-17.1-11.5-27.4-11.5L1191.2,945.7z"/>
<circle class="st2" cx="1203.5" cy="939.9" r="25.1"/>
<path d="M1203.5,965.7c-14.2,0-25.7-11.5-25.7-25.7c0-14.2,11.5-25.7,25.7-25.7s25.7,11.5,25.7,25.7l0,0
	C1229.2,954.1,1217.7,965.6,1203.5,965.7z M1203.5,915.5c-13.5,0-24.5,10.9-24.5,24.5c0,13.5,10.9,24.5,24.5,24.5
	s24.5-10.9,24.5-24.5c0,0,0,0,0,0C1228,926.4,1217,915.5,1203.5,915.5z"/>
<circle class="st2" cx="1183.1" cy="533.9" r="45.2"/>
<path d="M1183,579.7c-25.3,0-45.9-20.6-45.8-45.9s20.6-45.9,45.9-45.8s45.9,20.6,45.8,45.9c0,22.6-16.4,41.8-38.7,45.3
	C1187.8,579.5,1185.4,579.7,1183,579.7z M1183.1,489.4c-2.3,0-4.6,0.2-6.9,0.5c-24.3,3.8-40.9,26.6-37.1,50.9
	c3.8,24.3,26.6,40.9,50.9,37.1s40.9-26.6,37.1-50.9C1223.7,505.3,1205,489.4,1183.1,489.4z"/>
<circle class="st2" cx="337.8" cy="910.7" r="13.3"/>
<path d="M337.8,924.5c-7.6,0-13.9-6.2-13.9-13.8s6.2-13.8,13.9-13.8c7.6,0,13.9,6.2,13.9,13.8l0,0
	C351.6,918.3,345.4,924.5,337.8,924.5z M337.8,897.8c-7.1,0-12.9,5.8-12.9,12.8s5.8,12.8,12.9,12.8s12.9-5.8,12.9-12.8l0,0
	C350.6,903.6,344.9,897.8,337.8,897.8L337.8,897.8z"/>
<circle class="st2" cx="275" cy="910.7" r="13.3"/>
<path d="M275,924.5c-7.6,0-13.9-6.2-13.9-13.8c0-7.6,6.2-13.9,13.8-13.9c7.6,0,13.9,6.2,13.9,13.8c0,0,0,0,0,0
	C288.8,918.3,282.6,924.5,275,924.5z M275,897.8c-7.1,0-12.9,5.7-12.9,12.8c0,7.1,5.7,12.9,12.8,12.9c7.1,0,12.9-5.7,12.9-12.8
	c0,0,0,0,0,0C287.8,903.6,282.1,897.9,275,897.8L275,897.8z"/>
<circle class="st2" cx="540.7" cy="889.4" r="41.5"/>
<path d="M540.7,931.4c-23.2,0-42-18.8-42-42s18.8-42,42-42s42,18.8,42,42l0,0C582.7,912.6,563.9,931.3,540.7,931.4z M540.7,848.4
	c-22.6,0-41,18.4-41,41s18.4,41,41,41s41-18.4,41-41l0,0C581.7,866.7,563.4,848.4,540.7,848.4L540.7,848.4z"/>
<circle class="st2" cx="850" cy="889.4" r="41.5"/>
<path d="M850,931.4c-23.2,0-42-18.8-42-42s18.8-42,42-42s42,18.8,42,42l0,0C892,912.6,873.2,931.3,850,931.4z M850,848.4
	c-22.6,0-41,18.4-41,41s18.4,41,41,41s41-18.4,41-41l0,0C891,866.7,872.6,848.4,850,848.4L850,848.4z"/>
<rect x="695.1" y="781" width="1" height="257"/>
<polygon points="535.3,1038.2 534.3,1038.2 540.2,888.9 850.5,888.9 850.5,889.3 856,1038 855,1038 849.5,889.9 541.2,889.9 "/>
<circle class="st3" cx="540.7" cy="889.4" r="13.8"/>
<path d="M540.7,903.7c-7.9,0-14.3-6.4-14.3-14.3s6.4-14.3,14.3-14.3c7.9,0,14.3,6.4,14.3,14.3C555.1,897.3,548.6,903.7,540.7,903.7z
	 M540.7,876c-7.4,0-13.3,6-13.3,13.3s6,13.3,13.3,13.3s13.3-6,13.3-13.3c0,0,0,0,0,0C554.1,882,548.1,876,540.7,876L540.7,876
	L540.7,876z"/>
<circle class="st3" cx="850" cy="889.4" r="13.8"/>
<path d="M850,903.7c-7.9,0-14.3-6.4-14.3-14.3S842.1,875,850,875c7.9,0,14.3,6.4,14.3,14.3C864.3,897.3,857.9,903.7,850,903.7z
	 M850,876c-7.4,0-13.3,6-13.3,13.3s6,13.3,13.3,13.3s13.3-6,13.3-13.3c0,0,0,0,0,0C863.3,882,857.4,876,850,876z"/>
<path class="st1" d="M585.9,1038.1c-0.8-8.3-1.3-16.7-1.2-25c0-91.7,49.6-166,110.7-166s110.7,74.3,110.7,166c0,8.3-0.4,16.7-1.2,25
	"/>
<path d="M585.4,1038.1c-0.8-8.2-1.2-16.7-1.2-25.1c0-91.8,49.9-166.5,111.2-166.5s111.2,74.7,111.2,166.5c0,8.3-0.4,16.7-1.2,25
	l-1-0.1c0.8-8.2,1.2-16.6,1.2-25c0-91.3-49.4-165.5-110.2-165.5S585.2,921.8,585.2,1013c0,8.3,0.4,16.7,1.2,25L585.4,1038.1z"/>
<path class="st1" d="M650.9,736.8c0-10.9,4-21.5,11.4-29.6c-22.3-10.5-38.3-30.9-43.2-55.1l6,62.8c3.6,37.7,34,66.4,70.3,66.4
	C670.8,781.3,650.9,761.4,650.9,736.8z"/>
<path d="M695.4,781.8c-36.7,0-67.1-28.7-70.8-66.8l-6-62.8l1-0.1c4.9,24,20.8,44.3,42.9,54.8l0.6,0.3l-0.5,0.5
	c-16.2,18-14.7,45.8,3.3,62c8.1,7.3,18.5,11.3,29.4,11.2L695.4,781.8z M620.2,658.8l5.4,56c3.1,32,25.3,57.3,54.1,64.1
	c-23.3-8.6-35.1-34.5-26.5-57.7c1.9-5.1,4.7-9.8,8.2-13.9C641.5,697.7,626.5,680.1,620.2,658.8L620.2,658.8z"/>
<path class="st1" d="M728.5,707.2c16.4,18.2,14.9,46.3-3.4,62.7c-8.2,7.3-18.8,11.4-29.7,11.4c36.3,0,66.7-28.7,70.3-66.4l6-62.8
	C766.8,676.3,750.8,696.7,728.5,707.2z"/>
<path d="M695.4,781.8v-1c24.3,0,43.9-19.6,44-43.8c0-10.9-4-21.3-11.2-29.4l-0.5-0.5l0.6-0.3c22.1-10.5,38.1-30.8,42.9-54.8l1,0.1
	l-6,62.8C762.5,753.1,732.1,781.8,695.4,781.8z M729.3,707.4c16.3,18.7,14.4,47-4.3,63.3c-4.1,3.6-8.8,6.4-13.9,8.3
	c28.8-6.8,51-32.1,54.1-64.1l5.4-56C764.2,680.2,749.2,697.8,729.3,707.4L729.3,707.4z"/>
<path class="st1" d="M771.7,652.1c1-5,1.5-10.2,1.5-15.3c0-0.7,0-1.4,0-2.1c0,1.8-0.1,3.5-0.3,5.3L771.7,652.1z"/>
<path d="M772.2,652.2l-1-0.1l1.2-12.1c0.2-1.6,0.2-3.2,0.3-5.3h1v0.6c0,0.5,0,1,0,1.5C773.6,642,773.1,647.2,772.2,652.2z"/>
<path class="st1" d="M617.6,634.7c0,0.7,0,1.4,0,2.1c0,5.1,0.5,10.3,1.5,15.3l-1.2-12.1C617.7,638.2,617.6,636.5,617.6,634.7z"/>
<path d="M618.6,652.2c-1-5.1-1.5-10.2-1.6-15.4c0-0.5,0-0.9,0-1.4v-0.7h1c0,2,0.2,3.7,0.3,5.3l1.2,12.1L618.6,652.2z"/>
<path class="st1" d="M662.3,707.2c16.3-18.3,44.3-19.9,62.6-3.6c1.3,1.1,2.5,2.4,3.6,3.6c22.3-10.5,38.3-30.9,43.2-55.1l1.2-12.1
	c0.2-1.8,0.3-3.5,0.3-5.3c-1.2-43-37-76.8-79.9-75.6c-41.3,1.1-74.5,34.3-75.6,75.6c0,1.8,0.1,3.5,0.3,5.3l1.2,12.1
	C623.9,676.3,640,696.7,662.3,707.2z"/>
<path d="M728.3,707.8l-0.2-0.3c-16.1-18.1-43.8-19.7-61.9-3.6c-1.3,1.1-2.5,2.3-3.6,3.6l-0.2,0.3l-0.3-0.2
	c-22.4-10.6-38.5-31.2-43.5-55.5l-1.2-12.2c-0.2-1.6-0.2-3.3-0.3-5.3c1.2-43.2,37.2-77.3,80.4-76.1c41.5,1.2,75,34.6,76.1,76.1
	c-0.1,2.1-0.2,3.8-0.3,5.3l-1.2,12.1c-4.9,24.3-21,44.9-43.5,55.5L728.3,707.8z M695.3,691.8c12.7,0,24.7,5.4,33.2,14.7
	c22-10.5,37.8-30.7,42.6-54.6l1.2-12c0.2-1.6,0.2-3.2,0.3-5.3c-1.2-42.7-36.7-76.3-79.4-75.1c-41,1.1-74,34.1-75.1,75.1
	c0,2,0.2,3.7,0.3,5.2l1.2,12.1c4.9,23.9,20.6,44,42.6,54.5C670.6,697.3,682.7,691.9,695.3,691.8L695.3,691.8z"/>
<path class="st1" d="M739.8,736.8c0-10.9-4-21.5-11.4-29.6c-21,9.9-45.2,9.9-66.2,0c-16.4,18.3-14.8,46.4,3.5,62.8
	s46.4,14.8,62.8-3.5C735.8,758.4,739.8,747.8,739.8,736.8z"/>
<path d="M695.4,781.8c-24.8,0-44.9-20.1-45-44.9c0-11.1,4.1-21.8,11.5-30l0.2-0.3l0.3,0.2c20.8,9.8,44.9,9.8,65.8,0l0.3-0.2l0.2,0.3
	c16.6,18.5,15.1,46.8-3.4,63.4C717.2,777.7,706.5,781.8,695.4,781.8z M662.4,707.8c-16.1,18.2-14.3,46,3.9,62.1s46,14.3,62.1-3.9
	c14.7-16.6,14.7-41.6,0-58.2C707.4,717.5,683.3,717.5,662.4,707.8z"/>
<path class="st1" d="M695.4,692.4c-12.6,0-24.7,5.4-33.1,14.8c21,9.9,45.2,9.9,66.2,0C720.1,697.8,708,692.4,695.4,692.4z"/>
<path d="M695.4,715.1c-11.5,0-22.9-2.5-33.4-7.4l-0.6-0.3l0.4-0.5c16.4-18.5,44.8-20.2,63.3-3.7c1.3,1.2,2.6,2.4,3.7,3.7l0.5,0.5
	l-0.6,0.3C718.3,712.6,706.9,715.1,695.4,715.1z M663.1,707.1c20.5,9.4,44.1,9.4,64.5,0c-16.4-17.8-44.1-19-61.9-2.7
	C664.8,705.3,663.9,706.2,663.1,707.1z"/>
<rect x="589.2" y="140.6" class="st1" width="104.1" height="101.5"/>
<path d="M694,242.7H588.6V140H694V242.7z M589.9,241.5h102.8V141.2H589.8L589.9,241.5z"/>
<path d="M721,371.9c-10.2-27.9-15.7-82.7-15.7-111.5v-20.2h1.2v20.2c0.1,28.7,5.5,83.3,15.6,111L721,371.9z"/>
<path class="st1" d="M586.5,519c24-92.3,82.6-156.5,138.3-147.3c48.5,8,78.3,69.1,79.4,147.3"/>
<path d="M587.1,519.2l-1.2-0.3c11.7-45,32.1-84.8,57.4-112c25.6-27.5,54.6-40.2,81.6-35.8c23.6,3.9,43.6,20.4,57.9,47.6
	c13.8,26.4,21.5,61.1,22,100.2h-1.2c-0.5-39-8.1-73.4-21.8-99.7c-14.1-26.9-33.8-43.2-57-47c-26.6-4.4-55.2,8.2-80.5,35.4
	C619.1,434.8,598.8,474.3,587.1,519.2z"/>
<circle class="st1" cx="692.2" cy="140.6" r="103"/>
<path d="M692.2,244.2c-57.2,0-103.6-46.4-103.6-103.6C588.6,83.4,635,37,692.2,37c57.2,0,103.6,46.4,103.6,103.6c0,0,0,0,0,0
	C795.7,197.8,749.4,244.2,692.2,244.2z M692.2,38.2c-56.5,0-102.4,45.8-102.4,102.4c0,56.5,45.8,102.4,102.3,102.4
	c56.5,0,102.4-45.8,102.4-102.3C794.5,84.1,748.7,38.3,692.2,38.2L692.2,38.2z"/>
<circle class="st1" cx="640.7" cy="242.5" r="51.5"/>
<path d="M640.7,294.6c-28.8,0-52.1-23.3-52.1-52.1c0-28.8,23.3-52.1,52.1-52.1c28.8,0,52.1,23.3,52.1,52.1
	C692.8,271.3,669.5,294.6,640.7,294.6z M640.7,191.6c-28.1,0-50.9,22.8-50.8,50.9c0,28.1,22.8,50.9,50.9,50.9
	c28.1,0,50.8-22.8,50.8-50.9C691.5,214.4,668.8,191.7,640.7,191.6L640.7,191.6z"/>
<circle class="st2" cx="743.4" cy="422.6" r="48.3"/>
<path d="M743.4,471.5c-27,0-48.9-21.9-48.9-48.9s21.9-48.9,48.9-48.9s48.9,21.9,48.9,48.9c0,0,0,0,0,0
	C792.3,449.6,770.4,471.5,743.4,471.5z M743.4,375c-26.3,0-47.7,21.3-47.7,47.6s21.3,47.7,47.6,47.7c26.3,0,47.7-21.3,47.7-47.6
	c0,0,0,0,0,0C791.1,396.3,769.7,375,743.4,375z"/>
<rect x="744.5" y="424.6" transform="matrix(0.9992 -3.999999e-02 3.999999e-02 0.9992 -18.3183 30.1825)" width="1.3" height="96.5"/>
<rect x="38.9" y="198.7" class="st4" width="424.6" height="1"/>
<rect x="38.9" y="92.1" class="st4" width="424.6" height="1"/>
<rect x="38.9" y="305.4" class="st4" width="424.6" height="1"/>
<rect x="38.9" y="412" class="st4" width="424.6" height="1"/>
<rect x="38.9" y="518.6" class="st4" width="424.6" height="1"/>
<rect x="38.9" y="625.2" class="st4" width="424.6" height="1"/>
<rect x="38.9" y="731.8" class="st4" width="424.6" height="1"/>
<rect x="38.9" y="838.4" class="st4" width="424.6" height="1"/>
<rect x="38.9" y="945" class="st4" width="424.6" height="1"/>
<rect x="91.9" y="92.1" class="st5" width="1" height="853.9"/>
<rect x="144.9" y="92.8" class="st6" width="1" height="852.5"/>
<rect x="140.9" y="92.1" class="st6" width="9.1" height="1.4"/>
<rect x="140.9" y="944.6" class="st6" width="9.1" height="1.4"/>
<rect x="38.2" y="92.8" class="st6" width="1" height="852.5"/>
<rect x="34.1" y="92.1" class="st6" width="9.1" height="1.4"/>
<rect x="34.1" y="944.6" class="st6" width="9.1" height="1.4"/>
<path d="M92.1,198.3c-29.3,0-53-23.7-53-53s23.7-53,53-53s53,23.7,53,53C145,174.6,121.3,198.3,92.1,198.3z M92.1,92.8
	c-29,0-52.5,23.5-52.5,52.5S63,197.8,92,197.9s52.5-23.5,52.5-52.5c0,0,0,0,0,0C144.5,116.4,121,92.9,92.1,92.8z"/>
<path d="M92.1,945.8c-29.5,0-53.5-24-53.5-53.5s24-53.5,53.5-53.5s53.5,24,53.5,53.5l0,0C145.5,921.9,121.6,945.8,92.1,945.8z
	 M92.1,839.3c-29.3,0-53,23.7-53,53s23.7,53,53,53s53-23.7,53-53C145,863.1,121.3,839.4,92.1,839.3z"/>
<path d="M92.1,839.1c-29.5,0-53.5-24-53.5-53.5s24-53.5,53.5-53.5s53.5,24,53.5,53.5l0,0C145.5,815.2,121.6,839.1,92.1,839.1z
	 M92.1,732.6c-29.3,0-53,23.7-53,53s23.7,53,53,53s53-23.7,53-53C145,756.4,121.3,732.7,92.1,732.6z"/>
<path d="M92.1,732.4c-29.5,0-53.5-24-53.5-53.5s24-53.5,53.5-53.5s53.5,24,53.5,53.5C145.5,708.4,121.6,732.4,92.1,732.4z
	 M92.1,625.9c-29.3,0-53,23.7-53,53s23.7,53,53,53s53-23.7,53-53l0,0C145,649.7,121.3,625.9,92.1,625.9z"/>
<path d="M92.1,625.7c-29.5,0-53.5-24-53.5-53.5s24-53.5,53.5-53.5s53.5,24,53.5,53.5C145.5,601.7,121.6,625.7,92.1,625.7z
	 M92.1,519.2c-29.3,0-53,23.7-53,53s23.7,53,53,53s53-23.7,53-53l0,0C145,542.9,121.3,519.2,92.1,519.2z"/>
<path d="M92.1,519c-29.5,0-53.5-24-53.5-53.5s24-53.5,53.5-53.5s53.5,24,53.5,53.5l0,0C145.5,495,121.6,519,92.1,519z M92.1,412.5
	c-29.3,0-53,23.7-53,53s23.7,53,53,53s53-23.7,53-53l0,0C145,436.2,121.3,412.5,92.1,412.5L92.1,412.5z"/>
<path d="M92.1,412.3c-29.5,0-53.5-24-53.5-53.5s24-53.5,53.5-53.5s53.5,24,53.5,53.5l0,0C145.5,388.3,121.6,412.2,92.1,412.3z
	 M92.1,305.8c-29.3,0-53,23.7-53,53s23.7,53,53,53s53-23.7,53-53l0,0C145,329.5,121.3,305.8,92.1,305.8z"/>
<path d="M92.1,305.5c-29.5,0-53.5-24-53.5-53.5s24-53.5,53.5-53.5s53.5,24,53.5,53.5l0,0C145.5,281.6,121.6,305.5,92.1,305.5z
	 M92.1,199.1c-29.3,0-53,23.7-53,53s23.7,53,53,53s53-23.7,53-53l0,0C145,222.8,121.3,199.1,92.1,199.1L92.1,199.1z"/>
<rect x="1390.6" y="198.7" class="st4" width="424.6" height="1"/>
<rect x="1390.6" y="92.1" class="st4" width="424.6" height="1"/>
<rect x="1390.6" y="305.4" class="st4" width="424.6" height="1"/>
<rect x="1390.6" y="412" class="st4" width="424.6" height="1"/>
<rect x="1390.6" y="518.6" class="st4" width="424.6" height="1"/>
<rect x="1390.6" y="625.2" class="st4" width="424.6" height="1"/>
<rect x="1390.6" y="731.8" class="st4" width="424.6" height="1"/>
<rect x="1390.6" y="838.4" class="st4" width="424.6" height="1"/>
<rect x="1390.6" y="945" class="st4" width="424.6" height="1"/>
<rect x="1761.1" y="92.1" class="st5" width="1" height="853.9"/>
<rect x="1708.1" y="92.8" class="st6" width="1" height="852.5"/>
<rect x="1704" y="92.1" class="st6" width="9.1" height="1.4"/>
<rect x="1704" y="944.6" class="st6" width="9.1" height="1.4"/>
<rect x="1814.8" y="92.8" class="st6" width="1" height="852.5"/>
<rect x="1810.8" y="92.1" class="st6" width="9.1" height="1.4"/>
<rect x="1810.8" y="944.6" class="st6" width="9.1" height="1.4"/>
<path d="M1762,198.3c-29.3,0-53-23.7-53-53s23.7-53,53-53s53,23.7,53,53C1815,174.6,1791.3,198.3,1762,198.3z M1762,92.8
	c-29,0-52.5,23.5-52.5,52.5s23.5,52.5,52.5,52.5s52.5-23.5,52.5-52.5C1814.5,116.4,1791,92.9,1762,92.8z"/>
<path d="M1762,945.8c-29.5,0-53.5-24-53.5-53.5s24-53.5,53.5-53.5s53.5,24,53.5,53.5l0,0C1815.5,921.9,1791.5,945.8,1762,945.8z
	 M1762,839.3c-29.3,0-53,23.7-53,53s23.7,53,53,53s53-23.7,53-53C1815,863.1,1791.3,839.4,1762,839.3z"/>
<path d="M1762,839.1c-29.5,0-53.5-24-53.5-53.5s24-53.5,53.5-53.5s53.5,24,53.5,53.5l0,0C1815.5,815.2,1791.5,839.1,1762,839.1z
	 M1762,732.6c-29.3,0-53,23.7-53,53s23.7,53,53,53s53-23.7,53-53C1815,756.4,1791.3,732.7,1762,732.6z"/>
<path d="M1762,732.4c-29.5,0-53.5-24-53.5-53.5s24-53.5,53.5-53.5s53.5,24,53.5,53.5C1815.5,708.4,1791.5,732.4,1762,732.4z
	 M1762,625.9c-29.3,0-53,23.7-53,53s23.7,53,53,53s53-23.7,53-53l0,0C1815,649.7,1791.3,625.9,1762,625.9z"/>
<path d="M1762,625.7c-29.5,0-53.5-24-53.5-53.5s24-53.5,53.5-53.5s53.5,24,53.5,53.5C1815.5,601.7,1791.5,625.7,1762,625.7z
	 M1762,519.2c-29.3,0-53,23.7-53,53s23.7,53,53,53s53-23.7,53-53l0,0C1815,542.9,1791.3,519.2,1762,519.2z"/>
<path d="M1762,519c-29.5,0-53.5-24-53.5-53.5s24-53.5,53.5-53.5s53.5,24,53.5,53.5l0,0C1815.5,495,1791.5,519,1762,519z M1762,412.5
	c-29.3,0-53,23.7-53,53s23.7,53,53,53s53-23.7,53-53l0,0C1815,436.2,1791.3,412.5,1762,412.5L1762,412.5z"/>
<path d="M1762,412.3c-29.5,0-53.5-24-53.5-53.5s24-53.5,53.5-53.5s53.5,24,53.5,53.5l0,0C1815.5,388.3,1791.5,412.2,1762,412.3z
	 M1762,305.8c-29.3,0-53,23.7-53,53s23.7,53,53,53s53-23.7,53-53l0,0C1815,329.5,1791.3,305.8,1762,305.8z"/>
<path d="M1762,305.5c-29.5,0-53.5-24-53.5-53.5s24-53.5,53.5-53.5s53.5,24,53.5,53.5l0,0C1815.5,281.6,1791.5,305.5,1762,305.5z
	 M1762,199.1c-29.3,0-53,23.7-53,53s23.7,53,53,53s53-23.7,53-53l0,0C1815,222.8,1791.3,199.1,1762,199.1L1762,199.1z"/>
<path d="M1195.4,206.8c-1,0-2,0-3-0.1l0.1-1.2c1,0,2,0.1,3,0.1L1195.4,206.8z M1198.4,206.8l-0.1-1.2c1,0,2-0.1,3-0.2l0.1,1.2
	C1200.4,206.7,1199.4,206.7,1198.4,206.8L1198.4,206.8z M1189.3,206.6c-1-0.1-2-0.2-3-0.3l0.1-1.2c1,0.1,2,0.2,3,0.3L1189.3,206.6z
	 M1204.4,206.3l-0.2-1.2c1-0.1,2-0.2,3-0.4l0.2,1.2C1206.4,206.1,1205.4,206.2,1204.4,206.3L1204.4,206.3z M1183.3,205.9
	c-0.9-0.1-1.9-0.3-2.8-0.5h-0.2l0.2-1.2h0.2c0.9,0.2,1.8,0.3,2.8,0.5L1183.3,205.9z M1210.4,205.4l-0.2-1.2c1-0.2,1.9-0.4,2.9-0.6
	l0.3,1.2C1212.4,205,1211.4,205.2,1210.4,205.4L1210.4,205.4z M1177.4,204.8c-1-0.2-2-0.5-2.9-0.7l0.3-1.2c1,0.2,1.9,0.5,2.9,0.7
	L1177.4,204.8z M1216.3,204l-0.3-1.2c1-0.3,1.9-0.5,2.9-0.8l0.4,1.2C1218.3,203.5,1217.3,203.8,1216.3,204L1216.3,204z
	 M1171.6,203.2c-1-0.3-1.9-0.6-2.9-0.9l0.4-1.2c0.9,0.3,1.9,0.6,2.8,0.9L1171.6,203.2z M1222.1,202.2l-0.4-1.2
	c0.9-0.3,1.9-0.7,2.8-1.1l0.5,1.2C1224,201.6,1223,201.9,1222.1,202.2L1222.1,202.2z M1165.8,201.2c-0.9-0.4-1.9-0.8-2.8-1.1
	l0.5-1.1c0.9,0.4,1.8,0.8,2.8,1.1L1165.8,201.2z M1227.7,200l-0.5-1.1c0.9-0.4,1.8-0.8,2.7-1.2l0.5,1.1
	C1229.6,199.2,1228.6,199.6,1227.7,200L1227.7,200z M1160.3,198.8c-0.9-0.4-1.8-0.9-2.7-1.4l0.6-1.1c0.9,0.5,1.8,0.9,2.7,1.3
	L1160.3,198.8z M1233.2,197.4l-0.6-1.1c0.9-0.5,1.7-0.9,2.6-1.4l0.6,1.1C1234.9,196.4,1234.1,196.9,1233.2,197.4L1233.2,197.4z
	 M1154.9,196c-0.9-0.5-1.7-1-2.6-1.6l0.7-1c0.8,0.5,1.7,1,2.6,1.5L1154.9,196z M1238.4,194.3l-0.7-1.1c0.8-0.5,1.7-1.1,2.5-1.6
	l0.7,1C1240.1,193.3,1239.2,193.8,1238.4,194.3L1238.4,194.3L1238.4,194.3z M1149.8,192.8c-0.8-0.6-1.7-1.1-2.5-1.8l0.7-1
	c0.8,0.6,1.6,1.2,2.4,1.7L1149.8,192.8z M1243.4,190.9l-0.7-1c0.8-0.6,1.6-1.2,2.4-1.8l0.8,1C1245,189.7,1244.2,190.3,1243.4,190.9
	L1243.4,190.9z M1145,189.3c-0.8-0.6-1.6-1.3-2.3-1.9l0.8-1c0.8,0.6,1.5,1.3,2.3,1.9L1145,189.3z M1248.2,187.2l-0.8-0.9
	c0.8-0.6,1.5-1.3,2.2-2l0.8,0.9C1249.6,185.8,1248.9,186.5,1248.2,187.2L1248.2,187.2z M1140.4,185.3c-0.7-0.7-1.5-1.4-2.2-2.1
	l0.9-0.9c0.7,0.7,1.4,1.4,2.1,2.1L1140.4,185.3z M1252.6,183.1l-0.9-0.9c0.7-0.7,1.4-1.4,2.1-2.1l0.9,0.9
	C1254,181.6,1253.2,182.4,1252.6,183.1L1252.6,183.1z M1136.2,181.1c-0.7-0.7-1.4-1.5-2-2.2l0.9-0.8c0.7,0.8,1.3,1.5,2,2.2
	L1136.2,181.1z M1256.7,178.6l-0.9-0.8c0.6-0.8,1.3-1.5,1.9-2.3l1,0.8C1257.9,177.1,1257.3,177.9,1256.7,178.6L1256.7,178.6z
	 M1132.2,176.5c-0.6-0.8-1.2-1.6-1.8-2.4l1-0.7c0.6,0.8,1.2,1.6,1.8,2.4L1132.2,176.5z M1260.5,173.9l-1-0.7
	c0.6-0.8,1.2-1.6,1.7-2.4l1,0.7C1261.6,172.3,1261,173.1,1260.5,173.9L1260.5,173.9z M1128.6,171.6c-0.6-0.8-1.1-1.7-1.7-2.5
	l1.1-0.7c0.5,0.8,1.1,1.7,1.6,2.5L1128.6,171.6z M1263.9,168.9l-1.1-0.7c0.5-0.8,1-1.7,1.5-2.5l1.1,0.6
	C1264.9,167.2,1264.3,168.1,1263.9,168.9L1263.9,168.9z M1125.4,166.5c-0.5-0.9-1-1.8-1.5-2.6l1.1-0.6c0.5,0.9,1,1.7,1.4,2.6
	L1125.4,166.5z M1266.9,163.7l-1.1-0.6c0.5-0.9,0.9-1.8,1.3-2.7l1.1,0.5C1267.8,161.9,1267.3,162.8,1266.9,163.7L1266.9,163.7
	L1266.9,163.7z M1122.5,161.2c-0.4-0.9-0.9-1.8-1.3-2.7l1.1-0.5c0.4,0.9,0.8,1.8,1.2,2.7L1122.5,161.2z M1269.5,158.3l-1.1-0.5
	c0.4-0.9,0.8-1.8,1.1-2.8l1.2,0.5C1270.2,156.4,1269.9,157.4,1269.5,158.3L1269.5,158.3z M1120,155.7c-0.4-0.9-0.7-1.9-1.1-2.8
	l1.2-0.4c0.3,0.9,0.7,1.9,1,2.8L1120,155.7z M1271.6,152.7l-1.2-0.4c0.3-0.9,0.6-1.9,0.9-2.8l1.2,0.4
	C1272.3,150.7,1272,151.7,1271.6,152.7L1271.6,152.7z M1118,150c-0.3-1-0.6-1.9-0.8-2.9l1.2-0.3c0.3,1,0.5,1.9,0.8,2.9L1118,150z
	 M1273.4,146.9l-1.2-0.3c0.3-1,0.5-1.9,0.7-2.9l1.2,0.3C1273.9,144.9,1273.7,145.9,1273.4,146.9L1273.4,146.9z M1116.4,144.2
	c-0.2-1-0.4-2-0.6-3l1.2-0.2c0.2,1,0.4,2,0.6,2.9L1116.4,144.2z M1274.8,141l-1.2-0.2l0.1-0.3c0.2-0.9,0.3-1.7,0.4-2.6l1.2,0.2
	c-0.1,0.9-0.3,1.8-0.4,2.6L1274.8,141z M1115.3,138.2c-0.2-1-0.3-2-0.4-3l1.2-0.1c0.1,1,0.2,2,0.4,2.9L1115.3,138.2z M1275.7,135
	l-1.2-0.1c0.1-1,0.2-2,0.3-3l1.2,0.1C1275.9,133,1275.8,134,1275.7,135z M1114.6,132.1c-0.1-1-0.1-2-0.2-3l1.2-0.1c0,1,0.1,2,0.2,3
	L1114.6,132.1z M1276.2,129h-1.2c0-1,0.1-2,0.1-3h1.2C1276.2,127,1276.2,128,1276.2,129z M1115.6,126.1h-1.2V126c0-1,0-1.9,0.1-2.9
	h1.2c0,1-0.1,1.9-0.1,2.8V126.1z M1274.9,123c0-1-0.1-2-0.2-3l1.2-0.1c0.1,1,0.1,2,0.2,3L1274.9,123z M1115.8,120.2l-1.2-0.1
	c0.1-1,0.2-2,0.3-3l1.2,0.1C1116,118.2,1115.9,119.2,1115.8,120.2L1115.8,120.2z M1274.5,117c-0.1-1-0.2-2-0.4-3l1.2-0.2
	c0.1,1,0.3,2,0.4,3L1274.5,117z M1116.5,114.2l-1.2-0.2c0.1-1,0.3-2,0.5-3l0.1-0.7l1.2,0.2l-0.1,0.7
	C1116.8,112.3,1116.6,113.3,1116.5,114.2L1116.5,114.2z M1273.6,111.1c-0.2-1-0.4-2-0.6-2.9l1.2-0.3c0.2,1,0.4,2,0.6,3L1273.6,111.1
	z M1117.7,107.7l-1.2-0.3c0.2-1,0.5-2,0.7-2.9l1.2,0.3C1118.2,105.8,1117.9,106.8,1117.7,107.7L1117.7,107.7z M1272.3,105.3
	c-0.3-1-0.5-1.9-0.8-2.9l1.2-0.4c0.3,1,0.6,1.9,0.8,2.9L1272.3,105.3z M1119.3,102l-1.2-0.4c0.3-1,0.6-1.9,1-2.9l1.2,0.4
	C1119.9,100.1,1119.6,101,1119.3,102L1119.3,102z M1270.6,99.6c-0.3-0.9-0.7-1.9-1-2.8l1.2-0.5c0.4,0.9,0.7,1.9,1,2.8L1270.6,99.6z
	 M1121.3,96.3l-1.2-0.5c0.4-0.9,0.8-1.9,1.2-2.8l1.1,0.5C1122,94.5,1121.6,95.5,1121.3,96.3L1121.3,96.3z M1268.4,94.1
	c-0.4-0.9-0.8-1.8-1.2-2.7l1.1-0.5c0.4,0.9,0.8,1.8,1.3,2.8L1268.4,94.1z M1123.7,90.9l-1.1-0.5c0.4-0.9,0.9-1.8,1.4-2.7l1.1,0.6
	C1124.5,89.2,1124.1,90.1,1123.7,90.9L1123.7,90.9z M1265.8,88.7c-0.5-0.9-0.9-1.7-1.4-2.6l1.1-0.6c0.5,0.9,1,1.8,1.5,2.7
	L1265.8,88.7z M1126.5,85.7l-1.1-0.6c0.5-0.9,1-1.7,1.6-2.6l1.1,0.7C1127.5,84,1126.9,84.8,1126.5,85.7L1126.5,85.7z M1262.9,83.5
	c-0.5-0.8-1.1-1.7-1.6-2.5l1-0.7c0.6,0.8,1.1,1.7,1.7,2.5L1262.9,83.5z M1129.7,80.7l-1-0.7c0.6-0.8,1.2-1.6,1.8-2.4l1,0.8
	C1130.8,79.1,1130.2,79.9,1129.7,80.7L1129.7,80.7z M1259.5,78.7c-0.6-0.8-1.2-1.6-1.8-2.4l1-0.8c0.6,0.8,1.2,1.6,1.8,2.4
	L1259.5,78.7z M1133.2,75.9l-1-0.8c0.6-0.8,1.3-1.6,1.9-2.3l0.9,0.8C1134.4,74.4,1133.8,75.2,1133.2,75.9L1133.2,75.9z M1255.8,74
	c-0.6-0.8-1.3-1.5-2-2.2l0.9-0.8c0.7,0.7,1.4,1.5,2,2.3L1255.8,74z M1137.1,71.5l-0.9-0.9c0.7-0.7,1.4-1.5,2.1-2.2l0.9,0.9
	C1138.4,70,1137.8,70.7,1137.1,71.5L1137.1,71.5z M1251.7,69.6c-0.7-0.7-1.4-1.4-2.1-2.1l0.8-0.9c0.7,0.7,1.5,1.4,2.2,2.1
	L1251.7,69.6z M1141.3,67.2l-0.8-0.9c0.7-0.7,1.5-1.3,2.3-2l0.8,1C1142.8,65.9,1142,66.6,1141.3,67.2z M1247.4,65.6
	c-0.8-0.7-1.5-1.3-2.3-1.9l0.8-1c0.8,0.6,1.6,1.3,2.3,1.9L1247.4,65.6z M1145.8,63.4l-0.8-1c0.8-0.6,1.6-1.2,2.4-1.8l0.7,1
	C1147.4,62.2,1146.6,62.8,1145.8,63.4z M1242.7,61.8c-0.8-0.6-1.6-1.2-2.4-1.7l0.7-1c0.8,0.6,1.7,1.2,2.4,1.8L1242.7,61.8z
	 M1150.6,59.8l-0.7-1c0.8-0.6,1.7-1.1,2.5-1.7l0.7,1.1C1152.3,58.8,1151.5,59.3,1150.6,59.8L1150.6,59.8L1150.6,59.8z M1237.8,58.4
	c-0.8-0.5-1.7-1-2.5-1.5l0.6-1.1c0.9,0.5,1.7,1,2.6,1.6L1237.8,58.4z M1155.7,56.7l-0.6-1.1c0.9-0.5,1.8-1,2.7-1.5l0.6,1.1
	C1157.4,55.7,1156.6,56.2,1155.7,56.7L1155.7,56.7z M1232.7,55.5c-0.9-0.5-1.8-0.9-2.7-1.3l0.5-1.1c0.9,0.4,1.8,0.9,2.7,1.4
	L1232.7,55.5z M1161,54l-0.5-1.1c0.9-0.4,1.8-0.8,2.8-1.2l0.5,1.1C1162.8,53.1,1161.8,53.5,1161,54z M1227.4,53
	c-0.9-0.4-1.8-0.8-2.8-1.2l0.5-1.2c0.9,0.4,1.9,0.8,2.8,1.2L1227.4,53z M1166.5,51.6l-0.4-1.2c0.9-0.4,1.9-0.7,2.8-1l0.4,1.2
	C1168.3,50.9,1167.3,51.2,1166.5,51.6L1166.5,51.6z M1221.9,50.8c-0.9-0.3-1.9-0.6-2.8-0.9l0.4-1.2c1,0.3,1.9,0.6,2.9,0.9
	L1221.9,50.8z M1172,49.6l-0.4-1.2c1-0.3,1.9-0.6,2.9-0.8l0.3,1.2C1174,49.1,1173,49.3,1172,49.6z M1216.1,49
	c-1-0.3-1.9-0.5-2.9-0.7l0.3-1.2c1,0.2,2,0.5,2.9,0.7L1216.1,49z M1177.8,48.1l-0.3-1.2c1-0.2,2-0.4,3-0.6l0.2,1.2
	C1179.8,47.7,1178.8,47.9,1177.8,48.1C1177.8,48.1,1177.8,48.1,1177.8,48.1z M1210.3,47.6l-0.5-0.1c-0.8-0.2-1.6-0.3-2.4-0.4
	l0.2-1.2c0.8,0.1,1.7,0.3,2.5,0.4l0.5,0.1L1210.3,47.6z M1183.6,47l-0.2-1.2c1-0.2,2-0.3,3-0.4l0.1,1.2
	C1185.6,46.8,1184.7,46.9,1183.6,47L1183.6,47z M1204.4,46.7c-1-0.1-2-0.2-3-0.3l0.1-1.2c1,0.1,2,0.2,3,0.3L1204.4,46.7z
	 M1189.6,46.4l-0.1-1.2c1-0.1,2-0.1,3-0.2v1.2C1191.5,46.3,1190.6,46.3,1189.6,46.4L1189.6,46.4z M1198.5,46.2c-1,0-2-0.1-3-0.1
	v-1.2c1,0,2,0,3,0.1V46.2z"/>
<path d="M1212.9,45.6c-7.1-14.2-10.9-29.7-11.1-45.5h1.2c0.3,15.6,4,31,11,45L1212.9,45.6z"/>
<rect x="1182.6" y="136.5" transform="matrix(0.1838 -0.983 0.983 0.1838 842.7238 1288.97)" class="st6" width="29.8" height="1"/>
<path d="M1204.2,935.5l-1.2-0.1c0.1-1.5,0.3-4.4,0.6-8.4c16.4-204.6-2.4-326.6-21-392.9c-21.8-117.5-17.5-260.4,11.5-382.5l1.2,0.3
	c-28.9,121.9-33.2,264.7-11.5,382c26.8,95.2,34.1,231.2,21.1,393.3C1204.5,931.1,1204.2,934,1204.2,935.5z"/>
<circle class="st2" cx="1194.7" cy="151.7" r="80.3"/>
<path d="M1194.7,232.6c-44.7,0-80.9-36.2-80.9-80.9s36.2-80.9,80.9-80.9s80.9,36.2,80.9,80.9
	C1275.5,196.4,1239.3,232.6,1194.7,232.6z M1194.7,72c-44,0-79.7,35.7-79.7,79.7s35.7,79.7,79.7,79.7c44,0,79.7-35.7,79.7-79.7
	c0,0,0,0,0,0C1274.3,107.7,1238.6,72,1194.7,72L1194.7,72z"/>
<circle class="st3" cx="1194.7" cy="151.7" r="14.7"/>
<path d="M1194.7,167c-8.4,0-15.3-6.8-15.3-15.3s6.8-15.3,15.3-15.3c8.4,0,15.3,6.8,15.3,15.3C1209.9,160.1,1203.1,167,1194.7,167z
	 M1194.7,137.7c-7.7,0-14,6.3-14,14s6.3,14,14,14s14-6.3,14-14C1208.7,143.9,1202.4,137.7,1194.7,137.7
	C1194.7,137.7,1194.7,137.7,1194.7,137.7L1194.7,137.7z"/>
<circle class="st3" cx="1183.1" cy="533.9" r="12.6"/>
<path d="M1183.1,547.1c-7.3,0-13.2-5.9-13.2-13.2s5.9-13.2,13.2-13.2s13.2,5.9,13.2,13.2C1196.3,541.2,1190.4,547.1,1183.1,547.1z
	 M1183.1,522c-6.6,0-11.9,5.3-11.9,11.9s5.3,11.9,11.9,11.9s11.9-5.3,11.9-11.9C1195,527.3,1189.7,522,1183.1,522z"/>
<circle class="st3" cx="1203.5" cy="939.9" r="12.6"/>
<path d="M1203.5,953.1c-7.3,0-13.2-5.9-13.2-13.2s5.9-13.2,13.2-13.2c7.3,0,13.2,5.9,13.2,13.2c0,0,0,0,0,0
	C1216.7,947.2,1210.8,953.1,1203.5,953.1z M1203.5,928c-6.6,0-11.9,5.3-11.9,11.9s5.3,11.9,11.9,11.9s11.9-5.3,11.9-11.9
	c0,0,0,0,0,0C1215.5,933.4,1210.1,928,1203.5,928L1203.5,928L1203.5,928z"/>
<circle class="st2" cx="1600.9" cy="238" r="24.7"/>
<path d="M1600.9,263.3c-13.9,0-25.2-11.3-25.2-25.2s11.3-25.2,25.2-25.2c13.9,0,25.2,11.3,25.2,25.2
	C1626.1,251.9,1614.8,263.2,1600.9,263.3z M1600.9,213.8c-13.4,0-24.2,10.8-24.2,24.2s10.8,24.2,24.2,24.2s24.2-10.8,24.2-24.2
	c0,0,0,0,0,0C1625.1,224.6,1614.3,213.8,1600.9,213.8L1600.9,213.8z"/>
<circle class="st2" cx="1605" cy="379.1" r="17.3"/>
<path d="M1605,396.9c-9.8,0-17.8-8-17.8-17.8s8-17.8,17.8-17.8s17.8,8,17.8,17.8c0,0,0,0,0,0C1622.8,388.9,1614.8,396.9,1605,396.9z
	 M1605,362.3c-9.3,0-16.8,7.5-16.8,16.8s7.5,16.8,16.8,16.8s16.8-7.5,16.8-16.8c0,0,0,0,0,0C1621.8,369.8,1614.3,362.3,1605,362.3z"
	/>
<circle class="st2" cx="1611.5" cy="485.5" r="9.9"/>
<path d="M1611.5,495.8c-5.7,0-10.4-4.6-10.4-10.4c0-5.7,4.6-10.4,10.4-10.4l0,0h0.1c5.7,0,10.4,4.6,10.4,10.3l0,0
	C1621.9,491.1,1617.3,495.8,1611.5,495.8L1611.5,495.8z M1611.5,476.1L1611.5,476.1c-5.2,0-9.4,4.2-9.4,9.4c0,5.2,4.2,9.4,9.4,9.4
	h0.1c5.2,0,9.4-4.3,9.3-9.5l0,0l0,0C1620.8,480.2,1616.6,476.1,1611.5,476.1z"/>
<polygon points="1611,485.4 1604.5,379.1 1600.4,238.1 1601.4,238 1605.5,379.1 1612,485.4 "/>
<circle class="st3" cx="1605" cy="379.1" r="6.2"/>
<path d="M1605,385.8c-3.7,0-6.7-3-6.7-6.7s3-6.7,6.7-6.7c3.7,0,6.7,3,6.7,6.7C1611.7,382.8,1608.7,385.8,1605,385.8z M1605,373.4
	c-3.1,0-5.7,2.5-5.7,5.7s2.5,5.7,5.7,5.7s5.7-2.5,5.7-5.7C1610.7,376,1608.1,373.4,1605,373.4z"/>
<circle class="st3" cx="1600.9" cy="238" r="6.2"/>
<path d="M1600.9,244.7c-3.7,0-6.7-3-6.7-6.7c0-3.7,3-6.7,6.7-6.7s6.7,3,6.7,6.7c0,0,0,0,0,0C1607.6,241.7,1604.6,244.7,1600.9,244.7
	z M1600.9,232.4c-3.1,0-5.7,2.5-5.7,5.7s2.5,5.7,5.7,5.7c3.1,0,5.7-2.5,5.7-5.7c0,0,0,0,0,0C1606.6,234.9,1604,232.4,1600.9,232.4z"
	/>
<circle class="st3" cx="1611.5" cy="485.5" r="6.2"/>
<path d="M1611.5,492.1c-3.7,0-6.7-3-6.7-6.7c0-3.7,3-6.7,6.7-6.7c3.7,0,6.7,3,6.7,6.6l0,0C1618.2,489.1,1615.2,492.1,1611.5,492.1
	L1611.5,492.1z M1611.5,479.8L1611.5,479.8c-3.1,0-5.7,2.6-5.7,5.7c0,3.1,2.5,5.7,5.7,5.7l0,0c3.1,0,5.7-2.6,5.7-5.7l0,0
	C1617.1,482.3,1614.6,479.8,1611.5,479.8L1611.5,479.8z"/>
<circle class="st2" cx="1525.8" cy="883" r="12.4"/>
<path d="M1525.7,895.8c-7.1,0-12.8-5.8-12.8-12.9s5.8-12.8,12.9-12.8c3.1,0,6,1.1,8.3,3.1l0,0c5.4,4.6,6,12.7,1.4,18.1
	c-2.2,2.6-5.4,4.2-8.8,4.5C1526.4,895.8,1526.1,895.8,1525.7,895.8z M1525.7,871.1c-6.6,0-11.9,5.3-11.9,11.9
	c0,6.5,5.3,11.9,11.9,11.9s11.9-5.3,11.9-11.9c0-3.5-1.5-6.8-4.1-9C1531.3,872.1,1528.6,871.1,1525.7,871.1L1525.7,871.1z"/>
<circle class="st1" cx="1523" cy="903.7" r="14.8"/>
<path d="M1523,919.1c-0.9,0-1.8-0.1-2.7-0.2c-8.3-1.5-13.9-9.4-12.5-17.8s9.4-13.9,17.8-12.5c4,0.7,7.6,3,9.9,6.3l0,0
	c4.9,6.9,3.2,16.5-3.8,21.4C1529.2,918.1,1526.1,919.1,1523,919.1z M1523,889.4c-7.9,0-14.3,6.4-14.3,14.4s6.4,14.3,14.4,14.3
	s14.3-6.4,14.3-14.4c0-2.9-0.9-5.8-2.6-8.2l0,0C1532.1,891.7,1527.7,889.4,1523,889.4L1523,889.4z"/>
<circle class="st1" cx="1560.8" cy="927.4" r="9.9"/>
<path d="M1560.8,937.8L1560.8,937.8c-5.7,0-10.4-4.7-10.4-10.4s4.7-10.4,10.4-10.4l0,0c5.7,0,10.4,4.7,10.4,10.4
	S1566.5,937.8,1560.8,937.8z M1560.8,918c-5.2,0-9.4,4.2-9.4,9.4s4.2,9.4,9.4,9.4l0,0c5.2,0,9.4-4.2,9.4-9.4c0-2.5-1-4.8-2.7-6.6
	l0,0C1565.6,919,1563.3,918,1560.8,918L1560.8,918z"/>
<circle class="st1" cx="1577.3" cy="939.1" r="6.5"/>
<path d="M1577.3,946.1c-3.6,0-6.7-2.8-6.9-6.5c-0.3-3.9,2.6-7.2,6.4-7.5c3.9-0.3,7.2,2.6,7.5,6.4s-2.6,7.2-6.4,7.5c0,0,0,0-0.1,0
	L1577.3,946.1z M1577.3,933.1h-0.5c-3.3,0.3-5.7,3.1-5.5,6.4c0.6,3.3,3.7,5.5,6.9,4.9c2.8-0.5,4.9-2.9,5-5.8l0,0
	C1583,935.5,1580.4,933.1,1577.3,933.1L1577.3,933.1z"/>
<circle class="st2" cx="1525.5" cy="676.1" r="24.7"/>
<path d="M1525.5,701.3h-0.1c-13.9-0.3-25-11.9-24.7-25.8c0.3-13.5,11.2-24.4,24.8-24.7h0.1c13.9,0.1,25.2,11.4,25.1,25.4l0,0
	C1550.7,690.1,1539.4,701.3,1525.5,701.3z M1525.5,651.8c-13.4,0.2-24,11.3-23.8,24.7c0.2,13,10.7,23.5,23.7,23.8h0.1
	c13.3,0,24.1-10.8,24.2-24.1c0.1-13.4-10.7-24.3-24.1-24.3L1525.5,651.8z"/>
<circle class="st2" cx="1525.6" cy="676" r="24.7"/>
<path d="M1525.6,701.2c-13.9,0-25.2-11.3-25.2-25.2s11.3-25.2,25.2-25.2s25.2,11.3,25.2,25.2c0,0,0,0,0,0
	C1550.8,689.9,1539.5,701.2,1525.6,701.2z M1525.6,651.8c-13.4,0-24.2,10.8-24.2,24.2s10.8,24.2,24.2,24.2s24.2-10.8,24.2-24.2
	C1549.8,662.6,1539,651.8,1525.6,651.8L1525.6,651.8z"/>
<circle class="st3" cx="1525.6" cy="676" r="6.2"/>
<path d="M1525.6,682.7c-3.7,0-6.7-3-6.7-6.7s3-6.7,6.7-6.7c3.7,0,6.7,3,6.7,6.7c0,0,0,0,0,0C1532.3,679.7,1529.3,682.7,1525.6,682.7
	z M1525.6,670.3c-3.1,0-5.7,2.5-5.7,5.7s2.5,5.7,5.7,5.7s5.7-2.5,5.7-5.7c0,0,0,0,0,0C1531.3,672.9,1528.7,670.3,1525.6,670.3z"/>
<circle class="st2" cx="1525.6" cy="676" r="24.7"/>
<path d="M1525.6,701.2c-13.9,0-25.2-11.3-25.2-25.2s11.3-25.2,25.2-25.2s25.2,11.3,25.2,25.2c0,0,0,0,0,0
	C1550.8,689.9,1539.5,701.2,1525.6,701.2z M1525.6,651.8c-13.4,0-24.2,10.8-24.2,24.2s10.8,24.2,24.2,24.2s24.2-10.8,24.2-24.2
	C1549.8,662.6,1539,651.8,1525.6,651.8L1525.6,651.8z"/>
<circle class="st3" cx="1525.6" cy="676" r="6.2"/>
<path d="M1525.6,682.7c-3.7,0-6.7-3-6.7-6.7s3-6.7,6.7-6.7c3.7,0,6.7,3,6.7,6.7c0,0,0,0,0,0C1532.3,679.7,1529.3,682.7,1525.6,682.7
	z M1525.6,670.3c-3.1,0-5.7,2.5-5.7,5.7s2.5,5.7,5.7,5.7s5.7-2.5,5.7-5.7c0,0,0,0,0,0C1531.3,672.9,1528.7,670.3,1525.6,670.3z"/>
<circle class="st2" cx="1525.7" cy="883" r="12.4"/>
<path d="M1525.7,895.8L1525.7,895.8c-7.1-0.2-12.7-6.1-12.5-13.2c0.2-6.8,5.7-12.3,12.5-12.5l0,0c7.1,0,12.9,5.8,12.9,12.9
	c0,0,0,0,0,0C1538.6,890.1,1532.8,895.8,1525.7,895.8L1525.7,895.8z M1525.7,871.1c-6.6,0.2-11.7,5.7-11.5,12.2
	c0.2,6.3,5.2,11.3,11.5,11.5l0,0c6.6-0.2,11.7-5.7,11.5-12.2C1537.1,876.3,1532,871.3,1525.7,871.1z"/>
<polygon points="1576.9,939.6 1522.3,903.9 1525.2,883 1525.1,676 1525.1,493 1526.1,493 1526.1,676 1526.2,883 1523.3,903.4 
	1577.4,938.8 "/>
<circle class="st3" cx="1525.6" cy="676" r="6.2"/>
<path d="M1525.6,682.7c-3.7,0-6.7-3-6.7-6.7s3-6.7,6.7-6.7c3.7,0,6.7,3,6.7,6.7c0,0,0,0,0,0C1532.3,679.7,1529.3,682.7,1525.6,682.7
	z M1525.6,670.3c-3.1,0-5.7,2.5-5.7,5.7s2.5,5.7,5.7,5.7s5.7-2.5,5.7-5.7c0,0,0,0,0,0C1531.3,672.9,1528.7,670.3,1525.6,670.3z"/>
<circle class="st3" cx="1525.6" cy="883" r="6.2"/>
<path d="M1525.6,889.7c-3.7,0-6.7-3-6.7-6.7s3-6.7,6.7-6.7c3.7,0,6.7,3,6.7,6.7C1532.3,886.7,1529.3,889.7,1525.6,889.7z
	 M1525.6,877.3c-3.1,0-5.7,2.5-5.7,5.7s2.5,5.7,5.7,5.7c3.1,0,5.7-2.5,5.7-5.7C1531.3,879.9,1528.7,877.3,1525.6,877.3z"/>
<circle class="st2" cx="1596.5" cy="842.5" r="12.4"/>
<path d="M1596.5,855.3c-7.1,0-12.9-5.8-12.9-12.9c0-7.1,5.8-12.9,12.9-12.9c3.1,0,6,1.1,8.4,3.1l0,0c5.4,4.6,6,12.7,1.4,18.1
	C1603.9,853.7,1600.3,855.3,1596.5,855.3z M1596.5,830.6c-0.3,0-0.6,0-0.9,0c-6.5,0.5-11.4,6.2-10.9,12.7s6.2,11.4,12.7,10.9
	c6.5-0.5,11.4-6.2,10.9-12.7c-0.2-3.1-1.7-6-4.1-8.1l0,0C1602.1,831.6,1599.4,830.6,1596.5,830.6L1596.5,830.6z"/>
<circle class="st1" cx="1593.8" cy="863.3" r="14.8"/>
<path d="M1593.8,878.6c-8.5,0-15.3-6.8-15.4-15.3c0-8.5,6.8-15.3,15.3-15.4c0.9,0,1.8,0.1,2.7,0.2c4,0.7,7.6,2.9,9.9,6.3l0,0
	c4.9,6.9,3.2,16.5-3.7,21.3C1600,877.6,1596.9,878.6,1593.8,878.6z M1593.8,848.9c-7.9,0-14.3,6.4-14.3,14.4
	c0,7.9,6.4,14.3,14.4,14.3s14.3-6.4,14.3-14.4c0-2.9-0.9-5.8-2.6-8.2l0,0c-2.2-3.1-5.5-5.2-9.3-5.9
	C1595.4,849,1594.6,848.9,1593.8,848.9L1593.8,848.9z"/>
<circle class="st1" cx="1631.5" cy="886.9" r="9.9"/>
<path d="M1631.5,897.3L1631.5,897.3c-5.7,0-10.4-4.7-10.4-10.4s4.7-10.4,10.4-10.4l0,0l0,0c5.7,0,10.4,4.7,10.4,10.4
	S1637.3,897.3,1631.5,897.3z M1631.5,877.5c-5.2,0-9.4,4.2-9.4,9.4s4.2,9.4,9.4,9.4l0,0c5.2,0,9.4-4.2,9.4-9.4
	S1636.7,877.5,1631.5,877.5L1631.5,877.5z"/>
<circle class="st1" cx="1648.1" cy="898.7" r="6.5"/>
<path d="M1648.1,905.6c-3.6,0-6.7-2.8-6.9-6.5c-0.6-3.8,1.9-7.4,5.7-8.1c3.8-0.6,7.4,1.9,8.1,5.7c0.1,0.4,0.1,0.9,0.1,1.3l0,0
	c0.3,3.8-2.6,7.2-6.4,7.5L1648.1,905.6z M1648.1,892.6h-0.5c-3.3,0.3-5.7,3.1-5.5,6.4c0.3,3.3,3.1,5.7,6.4,5.5
	c3.3-0.3,5.7-3.1,5.5-6.4l0,0C1653.7,895.1,1651.2,892.7,1648.1,892.6L1648.1,892.6z"/>
<circle class="st2" cx="1596.3" cy="635.6" r="24.7"/>
<path d="M1596.3,660.8h-0.1c-13.9-0.3-25-11.9-24.7-25.8c0.3-13.5,11.2-24.4,24.8-24.7h0.1c13.9,0.3,25,11.9,24.7,25.8
	C1620.8,649.7,1609.9,660.6,1596.3,660.8z M1596.3,611.4c-13.4,0.2-24,11.3-23.8,24.7c0.2,13,10.7,23.5,23.7,23.8h0.1
	c13.3,0,24.2-10.8,24.2-24.1l0,0c0.1-13.4-10.7-24.3-24.1-24.3L1596.3,611.4z"/>
<circle class="st2" cx="1596.4" cy="635.5" r="24.7"/>
<path d="M1596.4,660.8c-13.9,0-25.2-11.3-25.2-25.2c0-13.9,11.3-25.2,25.2-25.2c13.9,0,25.2,11.3,25.2,25.2c0,0,0,0,0,0
	C1621.6,649.5,1610.3,660.7,1596.4,660.8z M1596.4,611.3c-13.4,0-24.2,10.8-24.2,24.2c0,13.4,10.8,24.2,24.2,24.2
	c13.4,0,24.2-10.8,24.2-24.2c0,0,0,0,0,0C1620.6,622.2,1609.8,611.3,1596.4,611.3z"/>
<circle class="st3" cx="1596.4" cy="635.5" r="6.2"/>
<path d="M1596.4,642.2c-3.7,0-6.7-3-6.7-6.7s3-6.7,6.7-6.7c3.7,0,6.7,3,6.7,6.7c0,0,0,0,0,0C1603.1,639.2,1600.1,642.2,1596.4,642.2
	z M1596.4,629.8c-3.1,0-5.7,2.5-5.7,5.7s2.5,5.7,5.7,5.7s5.7-2.5,5.7-5.7c0,0,0,0,0,0C1602.1,632.4,1599.5,629.8,1596.4,629.8z"/>
<circle class="st2" cx="1596.4" cy="635.5" r="24.7"/>
<path d="M1596.4,660.8c-13.9,0-25.2-11.3-25.2-25.2c0-13.9,11.3-25.2,25.2-25.2c13.9,0,25.2,11.3,25.2,25.2c0,0,0,0,0,0
	C1621.6,649.5,1610.3,660.7,1596.4,660.8z M1596.4,611.3c-13.4,0-24.2,10.8-24.2,24.2c0,13.4,10.8,24.2,24.2,24.2
	c13.4,0,24.2-10.8,24.2-24.2c0,0,0,0,0,0C1620.6,622.2,1609.8,611.3,1596.4,611.3z"/>
<circle class="st2" cx="1596.5" cy="842.5" r="12.4"/>
<path d="M1596.5,855.3L1596.5,855.3c-7.1,0-12.9-5.8-12.9-12.9s5.8-12.9,12.9-12.9s12.9,5.8,12.9,12.9c0,3.4-1.4,6.7-3.8,9.1
	C1603.2,854,1599.9,855.4,1596.5,855.3L1596.5,855.3z M1596.5,830.6c-6.5,0-11.8,5.3-11.9,11.8c0,6.5,5.3,11.9,11.8,11.9l0,0l0,0
	c6.6-0.2,11.7-5.7,11.5-12.2C1607.8,835.8,1602.8,830.8,1596.5,830.6L1596.5,830.6L1596.5,830.6z"/>
<polygon points="1647.6,899.2 1593,863.4 1595.9,842.5 1595.8,635.5 1595.8,452.5 1596.8,452.5 1596.8,635.5 1596.9,842.6 
	1594.1,862.9 1648.2,898.3 "/>
<circle class="st3" cx="1596.4" cy="635.7" r="6.2"/>
<path d="M1596.4,642.4c-3.7,0-6.7-3-6.7-6.7s3-6.7,6.7-6.7c3.7,0,6.7,3,6.7,6.7C1603.1,639.4,1600.1,642.4,1596.4,642.4z
	 M1596.4,630c-3.1,0-5.7,2.5-5.7,5.7s2.5,5.7,5.7,5.7c3.1,0,5.7-2.5,5.7-5.7C1602.1,632.6,1599.5,630,1596.4,630
	C1596.4,630,1596.4,630,1596.4,630L1596.4,630z"/>
<circle class="st3" cx="1596.4" cy="842.5" r="6.2"/>
<path d="M1596.4,849.2c-3.7,0-6.7-3-6.7-6.7s3-6.7,6.7-6.7c3.7,0,6.7,3,6.7,6.7C1603.1,846.2,1600.1,849.2,1596.4,849.2z
	 M1596.4,836.8c-3.1,0-5.7,2.5-5.7,5.7s2.5,5.7,5.7,5.7c3.1,0,5.7-2.5,5.7-5.7C1602.1,839.4,1599.5,836.8,1596.4,836.8z"/>
<path d="M1525.4,515.7h-1v-1h2v1H1525.4z M1522.4,515.7c-0.7,0-1.3-0.1-2-0.1l0.1-1c0.7,0.1,1.3,0.1,2,0.1L1522.4,515.7z
	 M1528.4,515.7v-1l2-0.1l0.1,1C1529.8,515.6,1529.1,515.6,1528.4,515.7L1528.4,515.7z M1518.3,515.4c-0.7-0.1-1.3-0.1-2-0.2l0.1-1
	c0.7,0.1,1.3,0.2,2,0.2L1518.3,515.4z M1532.4,515.4l-0.1-1l2-0.2l0.1,1C1533.8,515.2,1533.2,515.3,1532.4,515.4L1532.4,515.4z
	 M1514.3,514.9c-0.7-0.1-1.3-0.2-2-0.4l0.2-1l2,0.4L1514.3,514.9z M1536.4,514.9l-0.2-1l2-0.4l0.2,1
	C1537.8,514.6,1537.1,514.7,1536.4,514.9L1536.4,514.9z M1510.4,514.1l-2-0.5l0.3-1c0.6,0.2,1.3,0.3,1.9,0.5L1510.4,514.1z
	 M1540.4,514.1l-0.2-1l1.9-0.5l0.3,1C1541.7,513.7,1541.1,513.9,1540.4,514.1L1540.4,514.1z M1506.5,513.1c-0.7-0.2-1.3-0.4-1.9-0.6
	l0.3-0.9c0.6,0.2,1.2,0.4,1.9,0.6L1506.5,513.1z M1544.3,513.1l-0.3-1c0.6-0.2,1.3-0.4,1.9-0.6l0.3,0.9
	C1545.6,512.6,1545,512.8,1544.3,513.1L1544.3,513.1z M1502.7,511.8c-0.6-0.2-1.2-0.5-1.9-0.8l0.4-0.9c0.6,0.3,1.2,0.5,1.8,0.8
	L1502.7,511.8z M1548.1,511.8l-0.4-0.9c0.6-0.2,1.2-0.5,1.8-0.8l0.4,0.9c-0.6,0.1-1.2,0.4-1.8,0.7L1548.1,511.8z M1499.1,510
	c-0.6-0.3-1.2-0.6-1.8-1l0.5-0.9c0.6,0.3,1.1,0.6,1.7,0.9L1499.1,510z M1551.8,510l-0.5-0.9c0.6-0.3,1.2-0.6,1.7-0.9l0.5,0.9
	C1553,509.3,1552.4,509.7,1551.8,510L1551.8,510z M1555,508.1l-0.5-0.9c0.6-0.4,1.1-0.7,1.6-1.1l0.6,0.8
	C1556.2,507.4,1555.6,507.7,1555,508.1L1555,508.1z M1495.5,508c-0.6-0.4-1.1-0.8-1.7-1.2l0.6-0.8c0.5,0.4,1.1,0.8,1.6,1.1
	L1495.5,508z M1558.3,505.7l-0.6-0.8c0.5-0.4,1-0.9,1.4-1.3l0.7,0.7C1559.3,504.8,1558.8,505.3,1558.3,505.7L1558.3,505.7
	L1558.3,505.7z M1492.3,505.6c-0.5-0.5-1-0.9-1.5-1.4l0.7-0.7c0.4,0.5,0.9,0.9,1.4,1.3L1492.3,505.6z M1561.2,502.9l-0.8-0.6
	c0.4-0.5,0.8-1,1.2-1.5l0.8,0.6C1562.1,501.8,1561.7,502.4,1561.2,502.9L1561.2,502.9z M1489.4,502.7c-0.4-0.5-0.9-1.1-1.2-1.6
	l0.8-0.6c0.4,0.5,0.8,1,1.2,1.6L1489.4,502.7z M1563.6,499.5l-0.9-0.5c0.3-0.6,0.6-1.2,0.8-1.8l0.9,0.4
	C1564.2,498.3,1563.9,498.9,1563.6,499.5L1563.6,499.5z M1487.1,499.3c-0.3-0.6-0.6-1.2-0.8-1.9l0.9-0.4c0.2,0.6,0.5,1.2,0.8,1.8
	L1487.1,499.3z M1565.1,495.7l-1-0.2c0.2-0.6,0.3-1.3,0.3-1.9l1,0.1C1565.3,494.3,1565.2,495,1565.1,495.7L1565.1,495.7z
	 M1485.7,495.4c-0.2-0.7-0.3-1.3-0.3-2l1-0.1c0,0.6,0.1,1.3,0.3,1.9L1485.7,495.4z M1564.5,491.6c0-0.6-0.1-1.3-0.3-1.9l1-0.2
	c0.1,0.7,0.2,1.4,0.3,2L1564.5,491.6z M1486.4,491.4l-1-0.1c0.1-0.7,0.2-1.3,0.3-2l1,0.2C1486.5,490.2,1486.4,490.8,1486.4,491.4
	L1486.4,491.4z M1563.7,487.9c-0.2-0.6-0.5-1.2-0.8-1.8l0.9-0.5c0.3,0.6,0.6,1.2,0.8,1.9L1563.7,487.9z M1487.2,487.6l-0.9-0.4
	c0.2-0.6,0.5-1.3,0.8-1.9l0.9,0.5C1487.7,486.5,1487.4,487,1487.2,487.6L1487.2,487.6z M1561.9,484.4c-0.3-0.5-0.8-1-1.2-1.6
	l0.8-0.6c0.4,0.5,0.9,1.1,1.2,1.6L1561.9,484.4z M1489.1,484.2l-0.8-0.6c0.4-0.5,0.8-1.1,1.2-1.6l0.8,0.6
	C1489.8,483.2,1489.4,483.7,1489.1,484.2L1489.1,484.2z M1559.4,481.4c-0.4-0.5-0.9-0.9-1.4-1.3l0.7-0.8c0.5,0.5,1,0.9,1.5,1.4
	L1559.4,481.4z M1491.6,481.2l-0.7-0.7c0.5-0.5,1-0.9,1.5-1.4l0.7,0.8C1492.4,480.4,1492,480.8,1491.6,481.2L1491.6,481.2z
	 M1556.5,478.8c-0.5-0.4-1.1-0.8-1.6-1.1l0.5-0.8c0.6,0.4,1.1,0.8,1.7,1.2L1556.5,478.8z M1494.5,478.7l-0.6-0.8
	c0.5-0.4,1.1-0.8,1.7-1.1l0.5,0.8C1495.6,478,1495,478.3,1494.5,478.7L1494.5,478.7z M1553.2,476.7c-0.6-0.4-1.2-0.7-1.8-1l0.5-0.9
	c0.6,0.3,1.2,0.6,1.8,1L1553.2,476.7z M1497.8,476.6l-0.5-0.9c0.6-0.3,1.2-0.7,1.8-1l0.4,0.9C1499,475.9,1498.4,476.3,1497.8,476.6
	L1497.8,476.6z M1549.7,474.9c-0.6-0.3-1.2-0.5-1.8-0.8l0.4-0.9c0.6,0.3,1.2,0.5,1.9,0.8L1549.7,474.9z M1501.4,474.8l-0.4-0.9
	c0.6-0.3,1.2-0.5,1.9-0.8l0.4,0.9C1502.5,474.3,1501.9,474.5,1501.4,474.8L1501.4,474.8z M1546,473.4c-0.6-0.2-1.2-0.4-1.9-0.6
	l0.3-1c0.7,0.2,1.3,0.4,1.9,0.6L1546,473.4z M1505.1,473.3l-0.3-1c0.6-0.2,1.3-0.4,1.9-0.6l0.3,1
	C1506.2,472.9,1505.6,473.1,1505.1,473.3L1505.1,473.3z M1542.2,472.2l-1.9-0.5l0.2-1c0.7,0.2,1.3,0.3,2,0.5L1542.2,472.2z
	 M1508.8,472.1l-0.3-1l2-0.5l0.2,1C1510.1,471.8,1509.4,472,1508.8,472.1L1508.8,472.1z M1538.3,471.3c-0.7-0.1-1.3-0.2-2-0.4l0.2-1
	c0.7,0.1,1.3,0.2,2,0.4L1538.3,471.3z M1512.7,471.2l-0.2-1c0.7-0.1,1.3-0.2,2-0.4l0.2,1L1512.7,471.2z M1534.4,470.6l-2-0.2l0.1-1
	c0.7,0.1,1.3,0.1,2,0.2L1534.4,470.6z M1516.6,470.6l-0.1-1c0.7-0.1,1.3-0.2,2-0.2l0.1,1C1517.9,470.5,1517.2,470.5,1516.6,470.6
	L1516.6,470.6z M1530.5,470.3c-0.7-0.1-1.3-0.1-2-0.1v-1c0.7,0,1.3,0.1,2,0.1V470.3z M1520.6,470.3l-0.1-1l2-0.1v1
	C1521.8,470.1,1521.2,470.2,1520.6,470.3L1520.6,470.3z M1526.6,470.1h-2v-1h2V470.1z"/>
<path d="M1596.1,475.8h-1v-1h2v1H1596.1z M1593.1,475.8c-0.7,0-1.3,0-2-0.1l0.1-1c0.7,0.1,1.3,0.1,2,0.1L1593.1,475.8z
	 M1599.1,475.8v-1l2-0.1l0.1,1L1599.1,475.8z M1589.1,475.5c-0.7-0.1-1.3-0.1-2-0.2l0.1-1l2,0.2L1589.1,475.5z M1603.1,475.5l-0.1-1
	c0.7-0.1,1.3-0.1,2-0.2l0.1,1C1604.5,475.3,1603.9,475.4,1603.1,475.5L1603.1,475.5z M1585.1,474.9l-2-0.4l0.2-1
	c0.7,0.1,1.3,0.2,2,0.4L1585.1,474.9z M1607.1,474.9l-0.2-1l2-0.4l0.2,1L1607.1,474.9z M1581.1,474.2c-0.7-0.2-1.3-0.3-2-0.5l0.3-1
	c0.7,0.2,1.3,0.3,1.9,0.5L1581.1,474.2z M1611.1,474.2l-0.2-1c0.6-0.1,1.3-0.3,1.9-0.5l0.3,1C1612.5,473.8,1611.8,474,1611.1,474.2
	L1611.1,474.2z M1577.2,473.2c-0.7-0.2-1.3-0.4-1.9-0.6l0.3-0.9c0.6,0.2,1.2,0.4,1.9,0.6L1577.2,473.2z M1615,473.2l-0.3-1
	c0.6-0.2,1.3-0.4,1.9-0.6l0.3,0.9c-0.6,0.1-1.2,0.3-1.9,0.5L1615,473.2z M1573.4,471.9c-0.6-0.2-1.2-0.5-1.9-0.8l0.4-0.9
	c0.6,0.3,1.2,0.5,1.8,0.8L1573.4,471.9z M1618.8,471.9l-0.4-0.9c0.6-0.2,1.2-0.5,1.8-0.8l0.4,0.9c-0.6,0.1-1.2,0.4-1.8,0.6
	L1618.8,471.9z M1569.8,470.2c-0.6-0.3-1.2-0.6-1.8-1l0.5-0.9c0.6,0.3,1.2,0.6,1.7,0.9L1569.8,470.2z M1622.5,470.2l-0.5-0.9
	c0.6-0.3,1.2-0.6,1.7-0.9l0.5,0.9c-0.6,0.2-1.2,0.5-1.8,0.8L1622.5,470.2z M1625.7,468.4l-0.5-0.9c0.6-0.4,1.1-0.7,1.6-1.1l0.6,0.8
	c-0.5,0.2-1.1,0.6-1.7,1L1625.7,468.4z M1566.2,468.2c-0.6-0.4-1.1-0.8-1.7-1.2l0.6-0.8c0.5,0.4,1,0.8,1.6,1.1L1566.2,468.2z
	 M1629,465.8l-0.6-0.8c0.5-0.4,1-0.9,1.4-1.3l0.7,0.7C1630.1,464.9,1629.6,465.4,1629,465.8z M1563,465.6c-0.5-0.5-1-0.9-1.5-1.4
	l0.7-0.7c0.4,0.5,0.9,0.9,1.4,1.3L1563,465.6z M1631.9,463l-0.8-0.7c0.4-0.5,0.8-1,1.2-1.5l0.8,0.6
	C1632.8,461.9,1632.4,462.5,1631.9,463L1631.9,463L1631.9,463z M1560.1,462.8c-0.4-0.5-0.9-1.1-1.2-1.6l0.8-0.6
	c0.4,0.5,0.8,1.1,1.2,1.5L1560.1,462.8z M1634.3,459.6l-0.9-0.5c0.3-0.6,0.6-1.2,0.8-1.8l0.9,0.4
	C1634.9,458.4,1634.6,459,1634.3,459.6L1634.3,459.6z M1557.8,459.4c-0.3-0.6-0.6-1.2-0.8-1.9l0.9-0.4c0.2,0.6,0.5,1.2,0.8,1.8
	L1557.8,459.4z M1635.8,455.8l-1-0.2c0.2-0.6,0.3-1.3,0.3-1.9l1,0.1C1636.1,454.4,1635.9,455.1,1635.8,455.8L1635.8,455.8z
	 M1556.4,455.5c-0.1-0.7-0.2-1.3-0.3-2l1-0.1c0.1,0.6,0.1,1.3,0.3,1.9L1556.4,455.5z M1635.2,451.7c0-0.6-0.1-1.3-0.3-1.9l1-0.2
	c0.1,0.7,0.2,1.4,0.3,2L1635.2,451.7z M1557.1,451.5l-1-0.1c0.1-0.7,0.2-1.3,0.3-2l1,0.2C1557.2,450.2,1557.1,450.9,1557.1,451.5
	L1557.1,451.5z M1634.4,447.9c-0.2-0.6-0.5-1.2-0.8-1.8l0.9-0.5c0.3,0.6,0.6,1.2,0.8,1.9L1634.4,447.9z M1557.9,447.7l-0.9-0.4
	c0.2-0.6,0.5-1.3,0.9-1.9l0.9,0.5C1558.4,446.5,1558.1,447.1,1557.9,447.7L1557.9,447.7z M1632.6,444.5c-0.4-0.5-0.8-1.1-1.2-1.6
	l0.8-0.6c0.4,0.5,0.8,1.1,1.2,1.6L1632.6,444.5z M1559.8,444.3l-0.8-0.6c0.4-0.5,0.8-1.1,1.2-1.6l0.8,0.6
	C1560.5,443.3,1560.1,443.8,1559.8,444.3L1559.8,444.3L1559.8,444.3z M1630.1,441.5c-0.4-0.5-0.9-0.9-1.4-1.3l0.7-0.8
	c0.5,0.5,1,0.9,1.5,1.4L1630.1,441.5z M1562.3,441.3l-0.7-0.7c0.5-0.5,1-0.9,1.5-1.4l0.6,0.8
	C1563.2,440.4,1562.7,440.9,1562.3,441.3L1562.3,441.3z M1627.2,438.9c-0.5-0.4-1-0.8-1.6-1.1l0.6-0.8c0.6,0.4,1.1,0.8,1.7,1.2
	L1627.2,438.9z M1565.2,438.8l-0.6-0.8c0.5-0.4,1.1-0.8,1.7-1.1l0.6,0.8C1566.3,438,1565.7,438.4,1565.2,438.8L1565.2,438.8z
	 M1623.9,436.8c-0.6-0.3-1.2-0.6-1.8-1l0.5-0.9c0.6,0.3,1.2,0.6,1.8,1L1623.9,436.8z M1568.6,436.6l-0.5-0.9c0.6-0.3,1.2-0.6,1.8-1
	l0.4,0.9C1569.7,436,1569.1,436.3,1568.6,436.6L1568.6,436.6z M1620.3,435c-0.6-0.3-1.2-0.5-1.8-0.8l0.4-0.9
	c0.6,0.2,1.2,0.5,1.9,0.8L1620.3,435z M1572.1,434.9l-0.4-0.9c0.6-0.3,1.2-0.5,1.9-0.8l0.4,0.9
	C1573.2,434.3,1572.6,434.6,1572.1,434.9L1572.1,434.9z M1616.7,433.5c-0.6-0.2-1.2-0.4-1.9-0.6l0.3-1l1.9,0.6L1616.7,433.5z
	 M1575.8,433.4l-0.3-0.9c0.6-0.2,1.3-0.4,1.9-0.6l0.3,1C1577,433,1576.3,433.2,1575.8,433.4L1575.8,433.4z M1612.9,432.3l-1.9-0.5
	l0.2-1c0.7,0.2,1.3,0.3,2,0.5L1612.9,432.3z M1579.5,432.2l-0.3-1l2-0.5l0.2,1C1580.8,431.9,1580.1,432.1,1579.5,432.2L1579.5,432.2
	z M1609.1,431.4c-0.7-0.1-1.3-0.2-2-0.4l0.2-1l2,0.4L1609.1,431.4z M1583.4,431.3l-0.2-1c0.7-0.1,1.3-0.2,2-0.4l0.2,1
	C1584.7,431.1,1584,431.2,1583.4,431.3L1583.4,431.3z M1605.1,430.7c-0.7-0.1-1.3-0.2-2-0.2l0.1-1c0.7,0.1,1.3,0.1,2,0.2
	L1605.1,430.7z M1587.3,430.7l-0.1-1c0.7-0.1,1.3-0.2,2-0.2l0.1,1C1588.6,430.5,1587.9,430.6,1587.3,430.7L1587.3,430.7z
	 M1601.2,430.4l-2-0.1v-1l2,0.1V430.4z M1591.3,430.4l-0.1-1l2-0.1v1C1592.5,430.2,1591.9,430.2,1591.3,430.4L1591.3,430.4z
	 M1597.3,430.2h-2v-1h2V430.2z"/>
<path d="M1553.4,246.2c-7.7,0-15.4-1.7-21.2-5.1s-8.9-7.8-8.9-12.6s3.2-9.2,8.9-12.5c11.7-6.8,30.8-6.7,42.5,0
	c5.8,3.3,8.9,7.8,8.9,12.6s-3.2,9.2-8.9,12.5l0,0C1568.7,244.5,1561,246.2,1553.4,246.2z M1553.4,212c-7.5,0-15,1.6-20.7,4.9
	c-5.4,3.1-8.4,7.3-8.4,11.7s3,8.5,8.4,11.7c11.4,6.6,30,6.6,41.5,0l0,0c5.4-3.1,8.4-7.3,8.4-11.7s-3-8.5-8.4-11.7
	C1568.4,213.6,1560.8,212,1553.4,212L1553.4,212z"/>
<path d="M1548.2,474.6l-38.4-28.9l0.1-0.3c0-0.2,4.8-23.5,4.8-32.6c0-7.2-2.7-23-4.9-30.9c-12.6-44.1-5-91.7,22.3-141.4l0.9,0.5
	c-27.2,49.5-34.7,96.8-22.2,140.7c2.2,7.9,5,23.8,5,31.1c0,8.6-4.2,29.7-4.8,32.5l37.3,28.1l12-7.1l35.3-70.2
	c-0.4-2.1-4.2-20.3-4.3-27.1c-0.1-8.8,2.3-26.9,4.3-36.1c13.5-60.5,6.5-98.5-21.5-115.9l0.5-0.9c28.4,17.7,35.6,56,22,117
	c-2,9.1-4.4,27.4-4.3,35.9c0.1,7,4.2,26.9,4.3,27.1v0.2l-0.1,0.1L1561,467L1548.2,474.6z"/>
<path d="M1553.9,408.1h-1v-2h1V408.1z M1553.9,404.1h-1v-2h1V404.1z M1553.9,400.1h-1v-2h1V400.1z M1553.9,396.1h-1v-2h1V396.1z
	 M1553.9,392.1h-1v-2h1V392.1z M1553.9,388.1h-1v-2h1V388.1z M1553.9,384.1h-1v-2h1V384.1z M1553.9,380.1h-1v-2h1V380.1z
	 M1553.9,376.1h-1v-2h1V376.1z M1553.9,372.1h-1v-2h1V372.1z M1553.9,368.1h-1v-2h1V368.1z M1553.9,364.1h-1v-2h1V364.1z
	 M1553.9,360.1h-1v-2h1V360.1z M1553.9,356.1h-1v-2h1V356.1z M1553.9,352.1h-1v-2h1V352.1z M1553.9,348.1h-1v-2h1V348.1z
	 M1553.9,344.1h-1v-2h1V344.1z M1553.9,340.1h-1v-2h1V340.1z M1553.9,336.1h-1v-2h1V336.1z M1553.9,332.1h-1v-2h1V332.1z
	 M1553.9,328.1h-1v-2h1V328.1z M1553.9,324.1h-1v-2h1V324.1z M1553.9,320.1h-1v-2h1V320.1z M1553.9,316.1h-1v-2h1V316.1z
	 M1553.9,312.1h-1v-2h1V312.1z M1553.9,308.1h-1v-2h1V308.1z M1553.9,304.1h-1v-2h1V304.1z M1553.9,300.1h-1v-2h1V300.1z
	 M1553.9,296.1h-1v-2h1V296.1z M1553.9,292.1h-1v-2h1V292.1z M1553.9,288.1h-1v-2h1V288.1z M1553.9,284.1h-1v-2h1V284.1z
	 M1553.9,280.1h-1v-2h1V280.1z M1553.9,276.1h-1v-2h1V276.1z M1553.9,272.1h-1v-2h1V272.1z M1553.9,268.1h-1v-2h1V268.1z
	 M1553.9,264.1h-1v-2h1V264.1z M1553.9,260.1h-1v-2h1V260.1z M1553.9,256.1h-1v-2h1V256.1z M1553.9,252.1h-1v-2h1V252.1z
	 M1553.9,248.1h-1v-2h1V248.1z M1553.9,244.1h-1v-2h1V244.1z M1553.9,240.1h-1v-2h1V240.1z M1553.9,236.1h-1v-2h1V236.1z
	 M1553.9,232.1h-1v-2h1V232.1z M1553.9,228.1h-1v-2h1V228.1z M1553.9,224.1h-1v-2h1V224.1z M1553.9,220.1h-1v-2h1V220.1z
	 M1553.9,216.1h-1v-2h1V216.1z M1553.9,212.1h-1v-2h1V212.1z M1553.9,208.1h-1v-2h1V208.1z M1553.9,204.1h-1v-2h1V204.1z
	 M1553.9,200.1h-1v-2h1V200.1z"/>
<path d="M1526,493.1l-1-0.3l0.6-1.9l1,0.3L1526,493.1z M1527.3,489.4l-1-0.3l0.6-1.9l1,0.3L1527.3,489.4z M1528.5,485.6l-1-0.3
	l0.6-1.9l1,0.3L1528.5,485.6z M1529.8,481.8l-1-0.3l0.6-1.9l1,0.3L1529.8,481.8z M1531.1,478l-1-0.3l0.6-1.9l1,0.3L1531.1,478z
	 M1532.3,474.2l-0.9-0.3l0.6-1.9l1,0.3L1532.3,474.2z M1533.6,470.4l-0.9-0.3l0.6-1.9l0.9,0.3L1533.6,470.4z M1534.8,466.6l-0.9-0.3
	l0.6-1.9l1,0.3L1534.8,466.6z M1536.1,462.8l-1-0.3l0.6-1.9l1,0.3L1536.1,462.8z M1537.4,459l-1-0.3l0.6-1.9l1,0.3L1537.4,459z
	 M1538.6,455.2l-1-0.3l0.6-1.9l1,0.3L1538.6,455.2z M1595.9,452.9l-0.6-0.6l0.7-0.7l0.6,0.6L1595.9,452.9z M1539.9,451.4l-1-0.3
	l0.6-1.9l1,0.3L1539.9,451.4z M1593.9,450.9l-1.4-1.4l0.7-0.7l1.4,1.4L1593.9,450.9z M1591.1,448l-1.4-1.4l0.7-0.7l1.4,1.4
	L1591.1,448z M1541.2,447.6l-1-0.3l0.6-1.9l1,0.3L1541.2,447.6z M1588.3,445.2l-1.4-1.4l0.7-0.7l1.4,1.4L1588.3,445.2z
	 M1542.4,443.8l-1-0.3l0.6-1.9l0.9,0.3L1542.4,443.8z M1585.4,442.4l-1.4-1.4l0.7-0.7l1.4,1.4L1585.4,442.4z M1543.7,440l-1-0.3
	l0.6-1.9l0.9,0.3L1543.7,440z M1582.7,439.5l-1.4-1.4l0.7-0.7l1.4,1.4L1582.7,439.5z M1579.8,436.7l-1.4-1.4l0.7-0.7l1.4,1.4
	L1579.8,436.7z M1545,436.2l-1-0.3l0.6-1.9l0.9,0.3L1545,436.2z M1577,433.9l-1.4-1.4l0.7-0.7l1.4,1.4L1577,433.9z M1546.2,432.4
	l-1-0.3l0.6-1.9l0.9,0.3L1546.2,432.4z M1574.2,431l-1.4-1.4l0.7-0.7l1.4,1.4L1574.2,431z M1547.5,428.6l-0.9-0.3l0.6-1.9l1,0.3
	L1547.5,428.6z M1571.3,428.2l-1.4-1.4l0.7-0.7l1.4,1.4L1571.3,428.2z M1568.5,425.4l-1.4-1.4l0.7-0.7l1.4,1.4L1568.5,425.4z
	 M1548.8,424.8l-1-0.3l0.6-1.9l1,0.3L1548.8,424.8z M1565.7,422.5l-1.4-1.4l0.7-0.7l1.4,1.4L1565.7,422.5z M1550,421l-1-0.3l0.6-1.9
	l1,0.3L1550,421z M1562.8,419.7l-1.4-1.4l0.7-0.7l1.4,1.4L1562.8,419.7z M1551.3,417.2l-1-0.3l0.6-1.9l1,0.3L1551.3,417.2z
	 M1560,416.8l-1.4-1.4l0.7-0.7l1.4,1.4L1560,416.8z M1557.2,414l-1.4-1.4l0.7-0.7l1.4,1.4L1557.2,414z M1552.5,413.4l-1-0.3l0.6-1.9
	l1,0.3L1552.5,413.4z M1554.4,411.2l-1.4-1.4l0.3-0.3l-0.5-0.1l0.2-0.8l2,2L1554.4,411.2z"/>
<circle class="st2" cx="1494.7" cy="268.1" r="24.7"/>
<path d="M1494.7,293.4c-1.4,0-2.7-0.1-4.1-0.3c-13.7-2.2-23.1-15.2-20.8-29c2.2-13.7,15.2-23.1,28.9-20.8s23.1,15.2,20.8,29
	c0,0,0,0,0,0l0,0C1517.6,284.4,1507.1,293.4,1494.7,293.4z M1494.6,243.9c-13.4,0-24.2,10.9-24.1,24.3s10.9,24.2,24.3,24.1
	c11.8,0,21.9-8.6,23.8-20.3l0,0c2.1-13.2-6.8-25.6-20-27.8C1497.3,244,1496,243.9,1494.6,243.9L1494.6,243.9z"/>
<circle class="st3" cx="1494.7" cy="268.1" r="6.2"/>
<path d="M1494.7,274.8c-3.7,0-6.7-3-6.7-6.7c0-0.4,0-0.7,0.1-1.1c0.7-3.6,4.2-6,7.8-5.3c3.5,0.7,5.8,3.9,5.4,7.4l0,0
	C1500.8,272.5,1498,274.8,1494.7,274.8z M1494.7,262.5c-2.8,0-5.1,2-5.6,4.8c-0.5,3.1,1.6,6,4.7,6.5s6-1.6,6.5-4.7s-1.6-6-4.7-6.5
	c0,0,0,0,0,0C1495.3,262.5,1495,262.5,1494.7,262.5L1494.7,262.5z"/>
<path class="st1" d="M1603.2,139.2c-0.4-25.6-20-46.7-45.6-47.1c-25.6-0.4-46.6,20-47.1,45.6c-0.4,20.2,15.2,40.8,19.5,46.4
	c3.9,5.1,8.4,9.8,14.5,11.7l34,10.4c7.2,2.2,13.4-2.8,15.8-9.9C1598.5,183.9,1603.7,168.8,1603.2,139.2z"/>
<path d="M1582,207.2c-1.2,0-2.4-0.2-3.5-0.6l-34-10.4c-6.5-2-11.1-7.1-14.8-11.8c-16.6-21.6-19.8-37.3-19.6-46.8
	c0.5-25.5,21.3-46,46.8-46.1h0.8c25.4,0.4,45.6,21.3,46.1,47.6c0.5,29.4-4.6,44.7-8.7,56.9l-0.1,0.3
	C1592.9,202.2,1588.1,207.2,1582,207.2z M1556.8,92.6c-25,0.1-45.3,20.1-45.8,45.1c-0.2,9.3,3,24.8,19.4,46.1
	c3.6,4.6,8,9.6,14.3,11.5l34,10.4c5.2,1.6,12.2-0.7,15.2-9.6l0.1-0.3c4.1-12.2,9.1-27.3,8.6-56.6c-0.4-25.7-20.2-46.2-45.1-46.6
	L1556.8,92.6z"/>
<circle class="st1" cx="1556.8" cy="138.3" r="46.2"/>
<path d="M1556.8,185c-25.8,0-46.7-20.9-46.7-46.7s20.9-46.7,46.7-46.7s46.7,20.9,46.7,46.7C1603.5,164.1,1582.6,185,1556.8,185z
	 M1556.8,92.7c-25.2,0-45.7,20.4-45.7,45.7s20.4,45.7,45.7,45.7s45.7-20.4,45.7-45.7C1602.5,113.1,1582.1,92.7,1556.8,92.7
	L1556.8,92.7z"/>
<circle class="st2" cx="1494.7" cy="268.1" r="24.7"/>
<path d="M1494.7,293.4c-13.9,0-25.2-11.3-25.2-25.2c0-13.9,11.3-25.2,25.2-25.2c13.9,0,25.2,11.3,25.2,25.2c0,0,0,0,0,0
	C1519.9,282.1,1508.6,293.4,1494.7,293.4z M1494.7,243.9c-13.4,0-24.2,10.8-24.2,24.2s10.8,24.2,24.2,24.2
	c13.4,0,24.2-10.8,24.2-24.2c0,0,0,0,0,0C1518.9,254.8,1508.1,243.9,1494.7,243.9z"/>
<circle class="st2" cx="1499.5" cy="427.8" r="17.3"/>
<path d="M1499.5,445.6c-9.8,0-17.8-8-17.8-17.8s8-17.8,17.8-17.8s17.8,8,17.8,17.8c0,0,0,0,0,0
	C1517.3,437.6,1509.4,445.5,1499.5,445.6z M1499.5,411c-9.3,0-16.8,7.5-16.8,16.8s7.5,16.8,16.8,16.8s16.8-7.5,16.8-16.8
	c0,0,0,0,0,0C1516.3,418.5,1508.8,411,1499.5,411L1499.5,411z"/>
<circle class="st3" cx="1499.5" cy="427.8" r="6.2"/>
<path d="M1499.5,434.4c-3.7,0-6.7-3-6.7-6.7s3-6.7,6.7-6.7c3.7,0,6.7,3,6.7,6.7C1506.2,431.4,1503.2,434.4,1499.5,434.4z
	 M1499.5,422.1c-3.1,0-5.7,2.5-5.7,5.7s2.5,5.7,5.7,5.7s5.7-2.5,5.7-5.7S1502.7,422.1,1499.5,422.1L1499.5,422.1L1499.5,422.1z"/>
<circle class="st2" cx="1508.2" cy="545.9" r="9.9"/>
<path d="M1508.2,556.3c-5.7,0-10.4-4.7-10.4-10.4s4.7-10.4,10.4-10.4s10.4,4.7,10.4,10.4C1518.6,551.6,1514,556.3,1508.2,556.3z
	 M1508.2,536.5c-5.2,0-9.4,4.2-9.4,9.4s4.2,9.4,9.4,9.4s9.4-4.2,9.4-9.4C1517.6,540.7,1513.4,536.5,1508.2,536.5L1508.2,536.5z"/>
<circle class="st3" cx="1508.2" cy="545.9" r="6.2"/>
<path d="M1508.2,552.6c-3.7,0-6.7-3-6.7-6.7s3-6.7,6.7-6.7c3.7,0,6.7,3,6.7,6.7C1514.9,549.6,1511.9,552.6,1508.2,552.6z
	 M1508.2,540.2c-3.1,0-5.7,2.5-5.7,5.7s2.5,5.7,5.7,5.7c3.1,0,5.7-2.5,5.7-5.7C1513.9,542.8,1511.4,540.2,1508.2,540.2L1508.2,540.2
	z"/>
<circle class="st2" cx="1499.5" cy="427.8" r="17.3"/>
<path d="M1499.5,445.6c-9.8,0-17.8-8-17.8-17.8s8-17.8,17.8-17.8s17.8,8,17.8,17.8c0,0,0,0,0,0
	C1517.3,437.6,1509.4,445.5,1499.5,445.6z M1499.5,411c-9.3,0-16.8,7.5-16.8,16.8s7.5,16.8,16.8,16.8s16.8-7.5,16.8-16.8
	c0,0,0,0,0,0C1516.3,418.5,1508.8,411,1499.5,411L1499.5,411z"/>
<circle class="st2" cx="1508.2" cy="545.9" r="9.9"/>
<path d="M1508.2,556.3L1508.2,556.3c-5.7,0-10.4-4.7-10.4-10.4s4.7-10.4,10.4-10.4l0,0c5.7,0,10.4,4.7,10.4,10.4
	S1514,556.3,1508.2,556.3z M1508.2,536.5c-5.2,0-9.4,4.2-9.4,9.4s4.2,9.4,9.4,9.4l0,0c5.2,0,9.4-4.2,9.4-9.4
	S1513.4,536.5,1508.2,536.5z"/>
<polygon points="1507.7,546 1499,427.8 1494.2,268.2 1495.2,268.1 1500,427.7 1508.7,545.9 "/>
<circle class="st3" cx="1499.5" cy="427.8" r="6.2"/>
<path d="M1499.5,434.4c-3.7,0-6.7-3-6.7-6.7s3-6.7,6.7-6.7c3.7,0,6.7,3,6.7,6.7C1506.2,431.4,1503.2,434.4,1499.5,434.4z
	 M1499.5,422.1c-3.1,0-5.7,2.5-5.7,5.7s2.5,5.7,5.7,5.7s5.7-2.5,5.7-5.7S1502.7,422.1,1499.5,422.1L1499.5,422.1L1499.5,422.1z"/>
<circle class="st3" cx="1494.7" cy="268.1" r="6.2"/>
<path d="M1494.7,274.8c-3.7,0-6.7-3-6.7-6.7s3-6.7,6.7-6.7c3.7,0,6.7,3,6.7,6.7C1501.4,271.8,1498.4,274.8,1494.7,274.8z
	 M1494.7,262.5c-3.1,0-5.7,2.5-5.7,5.7s2.5,5.7,5.7,5.7s5.7-2.5,5.7-5.7C1500.4,265,1497.8,262.5,1494.7,262.5z"/>
<circle class="st3" cx="1508.2" cy="545.9" r="6.2"/>
<path d="M1508.2,552.6L1508.2,552.6c-3.7,0-6.7-3-6.7-6.7c0-3.7,3-6.7,6.7-6.7c0,0,0,0,0,0l0,0c3.7,0,6.7,3,6.7,6.7l0,0
	C1514.9,549.6,1511.9,552.6,1508.2,552.6z M1508.2,540.2c-1.5,0-2.9,0.6-4,1.7c-2.2,2.2-2.2,5.8,0,8c1.1,1.1,2.5,1.7,4,1.7l0,0
	c3.1,0,5.7-2.5,5.7-5.7S1511.4,540.2,1508.2,540.2C1508.2,540.2,1508.2,540.2,1508.2,540.2z"/>
<polygon points="1517.6,621 1507.7,615.3 1499.3,595.9 1495.5,578.7 1495.8,557.7 1508.4,545.1 1522.6,574 1522.9,596.8 
	1521.9,596.8 1521.6,574.1 1508.1,546.8 1496.8,558.2 1496.5,578.6 1500.3,595.6 1508.5,614.6 1516.6,619.3 1516.9,581 1517.9,581 
	"/>
<polygon points="1620.8,560.5 1610.9,554.8 1602.6,535.4 1598.7,518.2 1599.1,497.2 1611.6,484.5 1625.9,513.5 1626.1,536.3 
	1625.1,536.3 1624.9,513.6 1611.3,486.2 1600.1,497.6 1599.7,518.1 1603.6,535 1611.7,554.1 1619.8,558.8 1620.2,520.4 
	1621.2,520.4 "/>
<circle class="st3" cx="1596.4" cy="452.5" r="6.2"/>
<path d="M1596.4,459.2c-3.7,0-6.7-3-6.7-6.7s3-6.7,6.7-6.7c3.7,0,6.7,3,6.7,6.7C1603.1,456.2,1600.1,459.2,1596.4,459.2z
	 M1596.4,446.8c-3.1,0-5.7,2.5-5.7,5.7s2.5,5.7,5.7,5.7s5.7-2.5,5.7-5.7C1602.1,449.4,1599.5,446.8,1596.4,446.8L1596.4,446.8z"/>
<circle class="st3" cx="1525.6" cy="493" r="6.2"/>
<path d="M1525.6,499.7c-3.7,0-6.7-3-6.7-6.7s3-6.7,6.7-6.7c3.7,0,6.7,3,6.7,6.7C1532.3,496.7,1529.3,499.7,1525.6,499.7z
	 M1525.6,487.3c-3.1,0-5.7,2.5-5.7,5.7s2.5,5.7,5.7,5.7s5.7-2.5,5.7-5.7C1531.3,489.9,1528.7,487.3,1525.6,487.3L1525.6,487.3z"/>
<circle class="st2" cx="231.7" cy="251.2" r="20"/>
<path d="M231.7,271.8c-11.3,0-20.5-9.2-20.5-20.5s9.2-20.5,20.5-20.5s20.5,9.2,20.5,20.5c0,0,0,0,0,0
	C252.2,262.6,243.1,271.8,231.7,271.8z M231.7,231.8c-10.8,0-19.5,8.7-19.5,19.5s8.7,19.5,19.5,19.5s19.5-8.7,19.5-19.5c0,0,0,0,0,0
	C251.3,240.5,242.5,231.7,231.7,231.8L231.7,231.8z"/>
<circle class="st2" cx="380.9" cy="251.2" r="20"/>
<path d="M380.9,271.8c-11.3,0-20.5-9.2-20.5-20.5s9.2-20.5,20.5-20.5s20.5,9.2,20.5,20.5c0,0,0,0,0,0
	C401.4,262.6,392.2,271.8,380.9,271.8z M380.9,231.8c-10.8,0-19.5,8.7-19.5,19.5s8.7,19.5,19.5,19.5s19.5-8.7,19.5-19.5c0,0,0,0,0,0
	C400.4,240.5,391.7,231.7,380.9,231.8L380.9,231.8z"/>
<circle class="st2" cx="386" cy="389.2" r="16"/>
<path d="M386,405.7c-9.1,0-16.5-7.4-16.5-16.5s7.4-16.5,16.5-16.5s16.5,7.4,16.5,16.5l0,0C402.5,398.3,395.1,405.7,386,405.7z
	 M386,373.7c-8.6,0-15.5,6.9-15.5,15.5c0,8.6,6.9,15.5,15.5,15.5c8.6,0,15.5-6.9,15.5-15.5c0,0,0,0,0,0
	C401.5,380.7,394.6,373.7,386,373.7L386,373.7L386,373.7z"/>
<circle class="st2" cx="226.2" cy="389.2" r="16"/>
<path d="M226.2,405.7c-9.1,0-16.5-7.4-16.5-16.5s7.4-16.5,16.5-16.5c9.1,0,16.5,7.4,16.5,16.5l0,0
	C242.7,398.3,235.3,405.7,226.2,405.7z M226.2,373.7c-8.6,0-15.5,6.9-15.5,15.5c0,8.6,6.9,15.5,15.5,15.5s15.5-6.9,15.5-15.5
	c0,0,0,0,0,0C241.7,380.7,234.8,373.7,226.2,373.7L226.2,373.7L226.2,373.7z"/>
<circle class="st2" cx="199.5" cy="530.3" r="10.7"/>
<path d="M199.5,541.5c-6.2,0-11.2-5-11.2-11.2s5-11.2,11.2-11.2s11.2,5,11.2,11.2l0,0C210.7,536.5,205.7,541.5,199.5,541.5z
	 M199.5,520.1c-5.6,0-10.2,4.6-10.2,10.2s4.6,10.2,10.2,10.2s10.2-4.6,10.2-10.2l0,0C209.7,524.7,205.1,520.1,199.5,520.1z"/>
<circle class="st3" cx="199.5" cy="530.3" r="6.7"/>
<path d="M199.5,537.5c-4,0-7.2-3.2-7.2-7.2s3.2-7.2,7.2-7.2c4,0,7.2,3.2,7.2,7.2C206.7,534.3,203.5,537.5,199.5,537.5z M199.5,524.1
	c-3.4,0-6.2,2.8-6.2,6.2s2.8,6.2,6.2,6.2c3.4,0,6.2-2.8,6.2-6.2C205.7,526.9,202.9,524.1,199.5,524.1L199.5,524.1z"/>
<circle class="st2" cx="412.6" cy="530.3" r="10.7"/>
<path d="M412.6,541.5c-6.2,0-11.2-5-11.2-11.2s5-11.2,11.2-11.2s11.2,5,11.2,11.2l0,0C423.8,536.5,418.8,541.5,412.6,541.5z
	 M412.6,520.1c-5.6,0-10.2,4.6-10.2,10.2s4.6,10.2,10.2,10.2c5.6,0,10.2-4.6,10.2-10.2l0,0C422.8,524.7,418.2,520.1,412.6,520.1z"/>
<circle class="st3" cx="412.6" cy="530.3" r="6.7"/>
<path d="M412.6,537.5c-4,0-7.2-3.2-7.2-7.2s3.2-7.2,7.2-7.2c4,0,7.2,3.2,7.2,7.2C419.8,534.3,416.6,537.5,412.6,537.5z M412.6,524.1
	c-3.4,0-6.2,2.8-6.2,6.2s2.8,6.2,6.2,6.2c3.4,0,6.2-2.8,6.2-6.2C418.8,526.9,416,524.1,412.6,524.1L412.6,524.1z"/>
<rect x="305.9" y="199" width="1" height="256"/>
<circle class="st2" cx="262.9" cy="491.9" r="42.7"/>
<path d="M262.9,535.1c-23.9,0-43.2-19.3-43.2-43.2c0-23.9,19.3-43.2,43.2-43.2s43.2,19.3,43.2,43.2c0,0,0,0,0,0
	C306.1,515.8,286.8,535.1,262.9,535.1z M262.9,449.7c-23.3,0-42.2,18.9-42.2,42.2s18.9,42.2,42.2,42.2s42.2-18.9,42.2-42.2
	c0,0,0,0,0,0C305.1,468.6,286.2,449.7,262.9,449.7z"/>
<line class="st7" x1="262.9" y1="491.9" x2="306.4" y2="455"/>
<rect x="256.1" y="473" transform="matrix(0.7632 -0.6461 0.6461 0.7632 -238.5174 296.0248)" width="57" height="1"/>
<circle class="st3" cx="262.9" cy="491.9" r="6.7"/>
<path d="M262.9,499.1c-4,0-7.2-3.2-7.2-7.2s3.2-7.2,7.2-7.2s7.2,3.2,7.2,7.2l0,0C270.1,495.9,266.9,499.1,262.9,499.1z M262.9,485.7
	c-3.4,0-6.2,2.8-6.2,6.2s2.8,6.2,6.2,6.2s6.2-2.8,6.2-6.2c0,0,0,0,0,0C269.1,488.5,266.3,485.7,262.9,485.7L262.9,485.7z"/>
<circle class="st2" cx="275" cy="694.5" r="24"/>
<path d="M275,719.1c-13.5,0-24.5-11-24.5-24.5c0-13.5,11-24.5,24.5-24.5s24.5,11,24.5,24.5c0,0,0,0,0,0
	C299.5,708.1,288.5,719,275,719.1z M275,671c-13,0-23.5,10.5-23.5,23.5c0,13,10.5,23.5,23.5,23.5s23.5-10.5,23.5-23.5c0,0,0,0,0,0
	C298.5,681.5,288,671,275,671z"/>
<polygon points="274.5,910.7 274.4,694.6 262.4,491.9 263.4,491.9 275.4,694.5 275.5,910.7 "/>
<circle class="st3" cx="275" cy="694.5" r="6.7"/>
<path d="M275,701.7c-4,0-7.2-3.2-7.2-7.2c0-4,3.2-7.2,7.2-7.2c4,0,7.2,3.2,7.2,7.2c0,0,0,0,0,0C282.2,698.5,279,701.7,275,701.7z
	 M275,688.4c-3.4,0-6.2,2.8-6.2,6.2c0,3.4,2.8,6.2,6.2,6.2s6.2-2.8,6.2-6.2c0,0,0,0,0,0C281.2,691.1,278.4,688.4,275,688.4
	L275,688.4z"/>
<circle class="st3" cx="275" cy="910.7" r="6.7"/>
<path d="M275,917.9c-4,0-7.2-3.2-7.2-7.2c0-4,3.2-7.2,7.2-7.2c4,0,7.2,3.2,7.2,7.2c0,0,0,0,0,0C282.2,914.6,279,917.9,275,917.9z
	 M275,904.5c-3.4,0-6.2,2.8-6.2,6.2c0,3.4,2.8,6.2,6.2,6.2s6.2-2.8,6.2-6.2c0,0,0,0,0,0C281.2,907.3,278.4,904.5,275,904.5z"/>
<path class="st1" d="M255.8,924.3h32c4.4,0,8,3.6,8,8v5.4c0,4.4-3.6,8-8,8h-32.1c-4.4,0-8-3.6-8-8v-5.4
	C247.8,927.9,251.4,924.3,255.8,924.3z"/>
<path d="M287.8,946.2h-32c-4.7,0-8.5-3.8-8.5-8.5v-5.4c0-4.7,3.8-8.5,8.5-8.5h32c4.7,0,8.5,3.8,8.5,8.5v5.4
	C296.3,942.4,292.5,946.2,287.8,946.2z M255.8,924.8c-4.1,0-7.5,3.4-7.5,7.5v5.4c0,4.1,3.4,7.5,7.5,7.5h32c4.1,0,7.5-3.4,7.5-7.5
	v-5.4c0-4.1-3.4-7.5-7.5-7.5l0,0H255.8z"/>
<path d="M280.3,513.4h-0.5v-1c0.6,0,1.3,0,1.9-0.1l0.1,1C281.3,513.4,280.8,513.4,280.3,513.4z M277.7,513.2c-0.7-0.1-1.3-0.3-2-0.5
	l0.3-1c0.6,0.2,1.3,0.3,1.9,0.4L277.7,513.2z M283.9,512.9l-0.3-1c0.6-0.2,1.2-0.4,1.8-0.7l0.5,0.9
	C285.2,512.4,284.5,512.7,283.9,512.9z M273.7,512.1c-0.6-0.2-1.2-0.5-1.9-0.8l0.4-0.9c0.6,0.3,1.2,0.5,1.8,0.8L273.7,512.1z
	 M287.6,511l-0.6-0.8c0.5-0.4,1-0.8,1.4-1.3l0.7,0.7C288.6,510.1,288.1,510.6,287.6,511z M270,510.3c-0.6-0.3-1.2-0.7-1.8-1l0.5-0.9
	c0.6,0.4,1.1,0.7,1.7,1L270,510.3z M266.6,508.2c-0.5-0.4-1.1-0.8-1.6-1.2l0.6-0.8c0.5,0.4,1.1,0.8,1.6,1.2L266.6,508.2z M290.4,508
	l-0.8-0.6c0.4-0.5,0.7-1.1,1-1.7l0.9,0.5C291.1,506.8,290.8,507.4,290.4,508z M263.4,505.8c-0.5-0.4-1-0.9-1.5-1.3l0.7-0.7
	c0.5,0.5,1,0.9,1.5,1.3L263.4,505.8z M292.2,504.3l-0.9-0.3c0.2-0.6,0.4-1.2,0.6-1.9l1,0.3C292.7,503,292.5,503.7,292.2,504.3
	L292.2,504.3L292.2,504.3z M260.4,503c-0.5-0.5-1-0.9-1.4-1.4l0.7-0.7c0.5,0.5,0.9,1,1.4,1.4L260.4,503z M293.3,500.4l-1-0.2
	c0.1-0.6,0.2-1.3,0.3-2l1,0.1C293.5,499,293.4,499.7,293.3,500.4L293.3,500.4z M257.6,500.1c-0.5-0.5-0.9-1-1.3-1.5l0.7-0.6
	c0.4,0.5,0.9,1,1.3,1.5L257.6,500.1z M255,497.1c-0.4-0.5-0.8-1-1.2-1.6l0.8-0.6c0.4,0.5,0.8,1.1,1.2,1.6L255,497.1z M293.8,496.4
	l-1,0c0-0.6,0-1.2,0-1.9v-0.1h1v0.1C293.8,495.1,293.8,495.7,293.8,496.4L293.8,496.4L293.8,496.4z M252.6,493.9
	c-0.4-0.5-0.8-1.1-1.2-1.6l0.8-0.6c0.4,0.5,0.8,1.1,1.1,1.6L252.6,493.9z M292.7,492.4c0-0.6-0.1-1.3-0.1-2l1-0.1
	c0.1,0.7,0.1,1.3,0.1,2L292.7,492.4z M250.3,490.6c-0.4-0.6-0.7-1.1-1.1-1.7l0.9-0.5c0.4,0.6,0.7,1.1,1.1,1.7L250.3,490.6z
	 M292.4,488.4c-0.1-0.6-0.2-1.3-0.3-2l1-0.2c0.1,0.7,0.2,1.3,0.3,2L292.4,488.4z M248.2,487.1l-1-1.8l0.9-0.5c0.3,0.6,0.6,1.2,1,1.7
	L248.2,487.1z M291.7,484.5c-0.1-0.6-0.3-1.3-0.4-1.9l1-0.2c0.2,0.7,0.3,1.3,0.4,2L291.7,484.5z M246.2,483.6
	c-0.3-0.6-0.6-1.2-0.9-1.8l0.9-0.5c0.3,0.6,0.6,1.2,0.9,1.8L246.2,483.6z M290.8,480.6c-0.2-0.6-0.4-1.3-0.5-1.9l1-0.3
	c0.2,0.6,0.4,1.3,0.5,1.9L290.8,480.6z M244.4,480c-0.3-0.6-0.6-1.2-0.8-1.8l0.9-0.4c0.3,0.6,0.5,1.2,0.8,1.8L244.4,480z
	 M289.7,476.8c-0.2-0.6-0.4-1.2-0.6-1.9l0.9-0.3c0.2,0.6,0.5,1.3,0.6,1.9L289.7,476.8z M242.8,476.3c-0.2-0.6-0.5-1.2-0.7-1.9
	l0.9-0.4c0.2,0.6,0.5,1.2,0.7,1.9L242.8,476.3z M288.3,473.1c-0.2-0.6-0.5-1.2-0.8-1.9l0.9-0.4c0.3,0.6,0.5,1.2,0.8,1.9L288.3,473.1
	z M241.4,472.5c-0.2-0.6-0.4-1.3-0.6-1.9l1-0.3c0.2,0.6,0.4,1.2,0.6,1.9L241.4,472.5z M286.8,469.4c-0.3-0.6-0.5-1.2-0.8-1.8
	l0.9-0.4c0.3,0.6,0.6,1.2,0.8,1.8L286.8,469.4z M240.2,468.7c-0.2-0.7-0.4-1.3-0.5-2l1-0.2c0.2,0.6,0.3,1.3,0.5,1.9L240.2,468.7z
	 M285.1,465.8c-0.3-0.6-0.6-1.2-0.9-1.8l0.9-0.5c0.3,0.6,0.6,1.2,0.9,1.8L285.1,465.8z M239.2,464.8c-0.1-0.7-0.3-1.3-0.4-2l1-0.2
	c0.1,0.6,0.3,1.3,0.4,1.9L239.2,464.8z M283.7,463.2c-0.3-0.6-0.6-1.2-1-1.7l0.9-0.5c0.3,0.6,0.7,1.2,1,1.8L283.7,463.2z
	 M238.4,460.9c-0.1-0.7-0.2-1.3-0.3-2l1-0.1c0.1,0.6,0.2,1.3,0.3,2L238.4,460.9z M281.8,459.8l-1-1.7l0.8-0.5
	c0.4,0.6,0.7,1.1,1.1,1.7L281.8,459.8z M237.9,456.8c-0.1-0.7-0.1-1.4-0.1-2h1c0,0.7,0,1.3,0.1,2H237.9z M279.6,456.4
	c-0.4-0.5-0.8-1.1-1.1-1.6l0.8-0.6c0.4,0.5,0.8,1.1,1.1,1.6L279.6,456.4z M277.3,453.2c-0.4-0.5-0.8-1.1-1.2-1.6l0.8-0.6
	c0.4,0.5,0.8,1,1.2,1.6L277.3,453.2z M238.8,452.8h-1c0-0.7,0-1.4,0.1-2l1,0.1C238.8,451.5,238.8,452.2,238.8,452.8L238.8,452.8z
	 M274.8,450.1c-0.4-0.5-0.9-1-1.3-1.5l0.8-0.7c0.4,0.5,0.9,1,1.3,1.5L274.8,450.1z M239,448.9l-1-0.1c0.1-0.7,0.2-1.3,0.3-2l1,0.2
	C239.2,447.6,239.1,448.2,239,448.9z M272.2,447.1c-0.5-0.5-0.9-1-1.4-1.4l0.7-0.7c0.5,0.5,1,0.9,1.4,1.4L272.2,447.1z M239.8,445
	l-1-0.3c0.2-0.7,0.4-1.3,0.6-1.9l0.9,0.4C240.1,443.8,239.9,444.4,239.8,445L239.8,445z M269.4,444.3c-0.5-0.5-1-0.9-1.5-1.3
	l0.6-0.8c0.5,0.4,1,0.9,1.5,1.3L269.4,444.3z M266.4,441.8c-0.5-0.4-1.1-0.8-1.6-1.2l0.6-0.8c0.5,0.4,1.1,0.8,1.6,1.2L266.4,441.8z
	 M241.2,441.5l-0.9-0.5c0.3-0.6,0.7-1.2,1.1-1.8l0.8,0.6C241.9,440.3,241.5,440.9,241.2,441.5L241.2,441.5z M263.1,439.5
	c-0.6-0.4-1.1-0.7-1.7-1l0.5-0.9c0.6,0.3,1.2,0.7,1.7,1L263.1,439.5z M243.5,438.4l-0.7-0.7c0.5-0.5,1-0.9,1.6-1.3l0.6,0.8
	C244.5,437.5,244,437.9,243.5,438.4L243.5,438.4z M259.7,437.5c-0.6-0.3-1.2-0.6-1.8-0.8l0.4-0.9c0.6,0.2,1.2,0.5,1.9,0.8
	L259.7,437.5z M246.6,436.2l-0.4-0.9c0.6-0.3,1.3-0.5,2-0.7l0.2,1C247.9,435.8,247.2,436,246.6,436.2L246.6,436.2z M256.1,436.1
	c-0.6-0.2-1.3-0.4-1.9-0.5l0.2-1c0.6,0.1,1.3,0.3,2,0.5L256.1,436.1z M252.3,435.3c-0.6,0-1.3,0-1.9,0l-0.1-1c0.7,0,1.4,0,2.1,0
	L252.3,435.3z"/>
<circle class="st2" cx="349.8" cy="491.9" r="42.7"/>
<path d="M349.8,535.1c-23.9,0-43.2-19.3-43.3-43.2c0-23.9,19.3-43.2,43.2-43.3S393,468,393,491.9c0,0,0,0,0,0
	C393,515.7,373.7,535.1,349.8,535.1z M349.8,449.7c-23.3,0-42.2,18.9-42.3,42.2c0,23.3,18.9,42.2,42.2,42.3S392,515.3,392,492
	c0,0,0,0,0-0.1C392,468.6,373.1,449.7,349.8,449.7z"/>
<line class="st7" x1="349.8" y1="491.9" x2="306.4" y2="455"/>
<rect x="327.6" y="445" transform="matrix(0.6473 -0.7622 0.7622 0.6473 -245.1343 417.0666)" width="1" height="56.9"/>
<circle class="st3" cx="349.8" cy="491.9" r="6.7"/>
<path d="M349.8,499.1c-4,0-7.2-3.2-7.2-7.2c0-4,3.2-7.2,7.2-7.2c4,0,7.2,3.2,7.2,7.2c0,0,0,0,0,0C357,495.9,353.8,499.1,349.8,499.1
	z M349.8,485.7c-3.4,0-6.2,2.8-6.2,6.2s2.8,6.2,6.2,6.2s6.2-2.8,6.2-6.2c0,0,0,0,0,0C356,488.5,353.2,485.7,349.8,485.7L349.8,485.7
	z"/>
<circle class="st2" cx="337.8" cy="694.5" r="24"/>
<path d="M337.8,719.1c-13.5,0-24.5-11-24.5-24.5c0-13.5,11-24.5,24.5-24.5s24.5,11,24.5,24.5c0,0,0,0,0,0
	C362.3,708.1,351.4,719,337.8,719.1z M337.8,671c-13,0-23.5,10.5-23.5,23.5s10.5,23.5,23.5,23.5s23.5-10.5,23.5-23.5c0,0,0,0,0,0
	C361.3,681.5,350.8,671,337.8,671z"/>
<polygon points="338.3,910.7 337.3,910.7 337.4,694.6 349.3,491.9 350.3,491.9 338.4,694.6 "/>
<circle class="st3" cx="337.8" cy="694.5" r="6.7"/>
<path d="M337.8,701.7c-4,0-7.2-3.2-7.2-7.2c0-4,3.2-7.2,7.2-7.2c4,0,7.2,3.2,7.2,7.2c0,0,0,0,0,0C345,698.5,341.8,701.7,337.8,701.7
	z M337.8,688.4c-3.4,0-6.2,2.8-6.2,6.2c0,3.4,2.8,6.2,6.2,6.2s6.2-2.8,6.2-6.2c0,0,0,0,0,0C344,691.1,341.2,688.4,337.8,688.4
	L337.8,688.4z"/>
<circle class="st3" cx="337.8" cy="910.7" r="6.7"/>
<path d="M337.8,917.9c-4,0-7.2-3.2-7.2-7.2c0-4,3.2-7.2,7.2-7.2s7.2,3.2,7.2,7.2l0,0C345,914.7,341.7,917.9,337.8,917.9z
	 M337.8,904.5c-3.4,0-6.2,2.8-6.2,6.2c0,3.4,2.8,6.2,6.2,6.2s6.2-2.8,6.2-6.2c0,0,0,0,0,0C343.9,907.3,341.2,904.5,337.8,904.5z"/>
<path class="st1" d="M357,945.7h-32c-4.4,0-8-3.6-8-8v-5.4c0-4.4,3.6-8,8-8h32c4.4,0,8,3.6,8,8v5.4C365,942.1,361.4,945.7,357,945.7
	z"/>
<path d="M357,946.2h-32.1c-4.7,0-8.5-3.8-8.5-8.5v-5.4c0-4.7,3.8-8.5,8.5-8.5H357c4.7,0,8.5,3.8,8.5,8.5v5.4
	C365.5,942.4,361.7,946.2,357,946.2z M325,924.8c-4.1,0-7.5,3.4-7.5,7.5l0,0v5.4c0,4.1,3.4,7.5,7.5,7.5h32c4.1,0,7.5-3.4,7.5-7.5
	v-5.4c0-4.1-3.4-7.5-7.5-7.5l0,0H325z"/>
<path d="M332.5,513.4c-0.5,0-1,0-1.5-0.1l0.1-1c0.6,0.1,1.3,0.1,1.9,0.1v1L332.5,513.4z M335.1,513.2l-0.2-1
	c0.6-0.1,1.2-0.2,1.9-0.4l0.3,1C336.4,512.9,335.8,513.1,335.1,513.2L335.1,513.2z M328.9,512.9c-0.7-0.2-1.3-0.4-2-0.8l0.5-0.9
	c0.6,0.3,1.2,0.5,1.8,0.7L328.9,512.9z M339,512.1l-0.4-0.9c0.6-0.2,1.2-0.5,1.8-0.8l0.4,0.9C340.3,511.6,339.6,511.8,339,512.1
	L339,512.1z M325.2,511c-0.6-0.4-1.1-0.9-1.5-1.4l0.7-0.7c0.4,0.5,0.9,0.9,1.4,1.3L325.2,511z M342.7,510.3l-0.5-0.9
	c0.6-0.3,1.1-0.6,1.7-1l0.5,0.9C343.9,509.7,343.3,510,342.7,510.3L342.7,510.3z M346.1,508.2l-0.6-0.8c0.5-0.4,1.1-0.8,1.6-1.2
	l0.6,0.8C347.2,507.4,346.7,507.8,346.1,508.2L346.1,508.2z M322.4,508c-0.4-0.6-0.7-1.2-1-1.8l0.9-0.5c0.3,0.6,0.6,1.1,1,1.7
	L322.4,508z M349.4,505.8l-0.6-0.8c0.5-0.4,1-0.9,1.5-1.3l0.7,0.7C350.4,504.9,349.9,505.3,349.4,505.8z M320.5,504.3
	c-0.2-0.6-0.4-1.3-0.6-2l1-0.3c0.2,0.6,0.4,1.3,0.6,1.9L320.5,504.3z M352.4,503l-0.7-0.7c0.5-0.5,0.9-0.9,1.4-1.4l0.7,0.7
	C353.3,502.1,352.8,502.6,352.4,503L352.4,503z M319.5,500.4c-0.1-0.6-0.2-1.3-0.3-2l1-0.1c0.1,0.7,0.2,1.3,0.3,2L319.5,500.4z
	 M355.1,500.1l-0.7-0.7c0.4-0.5,0.9-1,1.3-1.5l0.8,0.6C356,499.1,355.6,499.6,355.1,500.1L355.1,500.1z M357.8,497.1l-0.8-0.6
	c0.4-0.5,0.8-1,1.2-1.6l0.8,0.6C358.6,496,358.2,496.6,357.8,497.1L357.8,497.1z M319,496.4c0-0.6,0-1.3,0-1.9v-0.1h1v0.1
	c0,0.6,0,1.3,0,1.9L319,496.4z M360.2,493.9l-0.8-0.6c0.4-0.5,0.8-1.1,1.1-1.6l0.8,0.6C361,492.8,360.6,493.4,360.2,493.9
	L360.2,493.9z M320,492.4l-1,0c0-0.7,0.1-1.3,0.1-2l1,0.1C320.1,491,320.1,491.7,320,492.4z M362.5,490.6l-0.8-0.5
	c0.4-0.5,0.7-1.1,1.1-1.7l0.9,0.5C363.2,489.4,362.9,490,362.5,490.6L362.5,490.6z M320.4,488.4l-1-0.1c0.1-0.7,0.2-1.3,0.3-2l1,0.2
	C320.6,487.1,320.5,487.8,320.4,488.4L320.4,488.4z M364.6,487.1l-0.9-0.5c0.3-0.6,0.7-1.1,1-1.7l0.9,0.5L364.6,487.1z M321,484.5
	l-1-0.2c0.1-0.6,0.3-1.3,0.4-2l1,0.2C321.3,483.2,321.2,483.9,321,484.5L321,484.5z M366.5,483.6l-0.9-0.5c0.3-0.6,0.6-1.2,0.9-1.8
	l0.9,0.4C367.2,482.4,366.9,483,366.5,483.6L366.5,483.6z M321.9,480.6l-1-0.2c0.2-0.6,0.4-1.3,0.5-1.9l1,0.3
	C322.3,479.4,322.1,480,321.9,480.6L321.9,480.6z M368.3,480l-0.9-0.4l0.8-1.8l0.9,0.4C368.9,478.8,368.6,479.4,368.3,480L368.3,480
	z M323.1,476.8l-1-0.3c0.2-0.6,0.4-1.3,0.6-1.9l0.9,0.3C323.5,475.6,323.3,476.2,323.1,476.8L323.1,476.8z M369.9,476.3L369,476
	c0.2-0.6,0.5-1.2,0.7-1.9l0.9,0.4C370.4,475.1,370.2,475.7,369.9,476.3L369.9,476.3z M324.4,473.1l-0.9-0.4c0.2-0.6,0.5-1.2,0.8-1.9
	l0.9,0.4C324.9,471.9,324.7,472.5,324.4,473.1L324.4,473.1z M371.3,472.5l-0.9-0.3c0.2-0.6,0.4-1.3,0.6-1.9l1,0.3
	C371.8,471.3,371.6,471.9,371.3,472.5L371.3,472.5z M326,469.4l-0.9-0.4c0.3-0.6,0.5-1.2,0.8-1.8l0.9,0.4
	C326.5,468.2,326.2,468.8,326,469.4z M372.6,468.7l-1-0.3c0.2-0.6,0.4-1.3,0.5-1.9l1,0.2C373,467.4,372.8,468.1,372.6,468.7
	L372.6,468.7z M327.7,465.8l-0.9-0.5c0.3-0.6,0.6-1.2,0.9-1.8l0.9,0.5C328.3,464.6,328,465.2,327.7,465.8L327.7,465.8L327.7,465.8z
	 M373.6,464.8l-1-0.2c0.1-0.6,0.3-1.3,0.4-1.9l1,0.2C373.9,463.5,373.8,464.2,373.6,464.8L373.6,464.8z M329,463.2l-0.9-0.5
	c0.3-0.6,0.6-1.2,1-1.8l0.9,0.5C329.7,462.1,329.3,462.6,329,463.2z M374.4,460.9l-1-0.2c0.1-0.7,0.2-1.3,0.3-2l1,0.1
	C374.6,459.5,374.5,460.2,374.4,460.9L374.4,460.9z M331,459.8l-0.9-0.5c0.4-0.6,0.7-1.1,1.1-1.7l0.8,0.5L331,459.8z M374.9,456.9
	l-1-0.1c0.1-0.7,0.1-1.3,0.1-2h1C375,455.5,374.9,456.2,374.9,456.9z M333.1,456.4l-0.8-0.6c0.4-0.6,0.8-1.1,1.1-1.6l0.8,0.6
	C333.9,455.3,333.5,455.9,333.1,456.4z M335.5,453.2l-0.8-0.6c0.4-0.5,0.8-1.1,1.2-1.6l0.8,0.6C336.3,452.1,335.9,452.7,335.5,453.2
	L335.5,453.2z M374,452.8c0-0.7,0-1.3-0.1-2l1-0.1c0,0.7,0.1,1.3,0.1,2L374,452.8z M337.9,450.1l-0.8-0.6c0.4-0.5,0.9-1,1.3-1.5
	l0.8,0.7C338.8,449.1,338.4,449.6,337.9,450.1z M373.8,448.9c-0.1-0.7-0.2-1.3-0.3-1.9l1-0.2c0.1,0.6,0.2,1.3,0.3,2L373.8,448.9z
	 M340.6,447.1l-0.7-0.7c0.5-0.5,0.9-1,1.4-1.4l0.7,0.7C341.5,446.2,341,446.6,340.6,447.1L340.6,447.1z M373,445
	c-0.2-0.6-0.4-1.2-0.6-1.8l0.9-0.4c0.2,0.6,0.5,1.3,0.7,1.9L373,445z M343.4,444.3l-0.7-0.7c0.5-0.5,1-0.9,1.5-1.3l0.6,0.8
	C344.4,443.5,343.9,443.9,343.4,444.3z M346.4,441.8l-0.6-0.8c0.5-0.4,1.1-0.8,1.6-1.2l0.6,0.8C347.5,441,346.9,441.3,346.4,441.8
	L346.4,441.8z M371.5,441.5c-0.3-0.6-0.6-1.1-1-1.6l0.8-0.6c0.4,0.6,0.8,1.1,1.1,1.8L371.5,441.5z M349.6,439.5l-0.5-0.8
	c0.6-0.4,1.1-0.7,1.7-1l0.5,0.9C350.7,438.8,350.2,439.1,349.6,439.5L349.6,439.5z M369.2,438.4c-0.5-0.4-0.9-0.9-1.5-1.2l0.6-0.8
	c0.6,0.4,1.1,0.8,1.6,1.3L369.2,438.4z M353,437.5l-0.4-0.9c0.6-0.3,1.2-0.6,1.9-0.8l0.4,0.9C354.2,437,353.6,437.2,353,437.5z
	 M366.1,436.2c-0.6-0.3-1.2-0.5-1.8-0.6l0.2-1c0.7,0.2,1.4,0.4,2,0.7L366.1,436.2z M356.6,436.1l-0.3-1c0.7-0.2,1.3-0.4,2-0.5l0.2,1
	C357.9,435.7,357.3,435.9,356.6,436.1L356.6,436.1z M360.5,435.3l-0.1-1c0.7-0.1,1.4-0.1,2.1,0l-0.1,1
	C361.7,435.3,361.1,435.3,360.5,435.3L360.5,435.3z"/>
<polygon points="198.6,605 188,562.2 198.7,530 225.7,389.1 231.3,250.7 381.4,250.7 381.4,251.2 386.5,389.2 413.2,530.3 
	402.5,551.7 402.5,572.6 401.5,572.6 401.5,551.5 412.2,530.1 385.5,389.3 380.4,251.7 232.2,251.7 226.7,389.2 199.7,530.3 
	189.1,562.2 199.6,604.8 "/>
<polygon points="210.3,572.6 209.3,572.6 209.3,551.7 198.8,530.4 199.7,530 210.3,551.5 "/>
<polygon points="413.2,605 412.2,604.8 423.1,562 412.2,530.4 413.2,530 424.1,562 424.1,562.1 "/>
<circle class="st3" cx="231.7" cy="251.2" r="6.7"/>
<path d="M231.7,258.4c-4,0-7.2-3.2-7.2-7.2s3.2-7.2,7.2-7.2s7.2,3.2,7.2,7.2l0,0C238.9,255.2,235.7,258.4,231.7,258.4z M231.7,245.1
	c-3.4,0-6.2,2.8-6.2,6.2s2.8,6.2,6.2,6.2s6.2-2.8,6.2-6.2c0,0,0,0,0,0C237.9,247.8,235.1,245.1,231.7,245.1z"/>
<circle class="st3" cx="226.2" cy="389.2" r="6.7"/>
<path d="M226.2,396.4c-4,0-7.2-3.2-7.2-7.2s3.2-7.2,7.2-7.2s7.2,3.2,7.2,7.2l0,0C233.4,393.2,230.2,396.4,226.2,396.4z M226.2,383
	c-3.4,0-6.2,2.8-6.2,6.2s2.8,6.2,6.2,6.2s6.2-2.8,6.2-6.2c0,0,0,0,0,0C232.4,385.8,229.7,383,226.2,383
	C226.2,383,226.2,383,226.2,383L226.2,383z"/>
<circle class="st3" cx="386" cy="389.2" r="6.7"/>
<path d="M386,396.4c-4,0-7.2-3.2-7.2-7.2s3.2-7.2,7.2-7.2s7.2,3.2,7.2,7.2l0,0C393.2,393.2,390,396.4,386,396.4z M386,383
	c-3.4,0-6.2,2.8-6.2,6.2s2.8,6.2,6.2,6.2s6.2-2.8,6.2-6.2c0,0,0,0,0,0C392.2,385.8,389.4,383,386,383z"/>
<circle class="st3" cx="380.9" cy="251.2" r="6.7"/>
<path d="M380.9,258.4c-4,0-7.2-3.2-7.2-7.2s3.2-7.2,7.2-7.2s7.2,3.2,7.2,7.2l0,0C388.1,255.2,384.9,258.4,380.9,258.4z M380.9,245.1
	c-3.4,0-6.2,2.8-6.2,6.2s2.8,6.2,6.2,6.2s6.2-2.8,6.2-6.2c0,0,0,0,0,0C387.1,247.8,384.3,245.1,380.9,245.1z"/>
<ellipse class="st1" cx="306.3" cy="310.9" rx="53.4" ry="80.1"/>
<path d="M306.3,391.5c-29.7,0-53.9-36.1-53.9-80.6s24.2-80.6,53.9-80.6s53.9,36.2,53.9,80.6S336,391.5,306.3,391.5z M306.3,231.3
	c-29.2,0-52.9,35.7-52.9,79.6s23.7,79.6,52.9,79.6s52.9-35.7,52.9-79.6S335.5,231.3,306.3,231.3L306.3,231.3z"/>
<path class="st1" d="M341.3,371.4c-3.9-21.3-18.1-37-35-37s-31.1,15.7-35,37"/>
<path d="M340.9,371.5c-3.9-21.5-18.1-36.6-34.5-36.6s-30.6,15-34.5,36.6l-1-0.2c4-22,18.6-37.4,35.5-37.4s31.5,15.4,35.5,37.4
	L340.9,371.5z"/>
<rect x="305.8" y="334.4" width="1" height="56.6"/>
<path class="st1" d="M284.6,177.7c0-5.3,2-10.4,5.5-14.3c-10.8-5.1-18.5-14.9-20.8-26.6l2.9,30.3c1.7,18.2,16.4,32,33.9,32
	C294.2,199.1,284.6,189.5,284.6,177.7z"/>
<path d="M306.1,199.6c-17.8,0-32.6-14-34.4-32.5l-2.9-30.3l1-0.1c2.3,11.5,9.9,21.3,20.5,26.3l0.6,0.3l-0.4,0.5
	c-7.7,8.6-7,21.8,1.6,29.5c3.8,3.5,8.8,5.4,14,5.4V199.6z M270.3,142.4l2.4,24.7c1.4,14.1,10.4,25.4,22.6,29.7
	c-10.5-5.9-14.3-19.3-8.4-29.8c0.7-1.2,1.5-2.4,2.4-3.4C280.5,159.2,273.7,151.6,270.3,142.4z"/>
<path class="st1" d="M322,163.4c7.9,8.8,7.2,22.3-1.6,30.2c-4,3.6-9.1,5.5-14.4,5.5c17.5,0,32.2-13.8,33.9-32l2.9-30.3
	C340.5,148.5,332.7,158.3,322,163.4z"/>
<path d="M306.1,199.6v-1c11.6,0,20.9-9.3,20.9-20.9c0-5.2-1.9-10.2-5.4-14l-0.5-0.5l0.6-0.3c10.6-5,18.2-14.7,20.6-26.2l1,0.1
	l-2.9,30.3C338.7,185.7,323.9,199.6,306.1,199.6z M322.9,163.6c7.8,9.2,6.7,23.1-2.6,30.9c-1.1,0.9-2.2,1.7-3.4,2.4
	c12.2-4.3,21.3-15.6,22.6-29.7l2.4-24.7C338.5,151.6,331.7,159.2,322.9,163.6L322.9,163.6z"/>
<path class="st1" d="M342.9,136.8c0.5-2.4,0.7-4.9,0.7-7.4c0-0.3,0-0.7,0-1c0,0.9-0.1,1.7-0.1,2.6L342.9,136.8z"/>
<path d="M343.4,136.9l-1-0.1l0.6-5.8c0.1-0.8,0.1-1.6,0.1-2.5h1v0.3c0,0.2,0,0.5,0,0.7C344.1,131.9,343.9,134.5,343.4,136.9z"/>
<path class="st1" d="M268.6,128.4c0,0.3,0,0.7,0,1c0,2.5,0.2,5,0.7,7.4l-0.6-5.8C268.6,130.1,268.6,129.3,268.6,128.4z"/>
<path d="M268.8,136.9c-0.5-2.5-0.7-5-0.7-7.5c0-0.2,0-0.5,0-0.7v-0.3h1c0,1,0.1,1.8,0.1,2.5l0.6,5.8L268.8,136.9z"/>
<path class="st1" d="M290.1,163.4c7.9-8.8,21.4-9.6,30.2-1.7c0.6,0.5,1.2,1.1,1.7,1.7c10.8-5.1,18.5-14.9,20.8-26.6l0.6-5.8
	c0.1-0.9,0.1-1.7,0.1-2.6c-0.7-20.7-18-37-38.7-36.3c-19.8,0.6-35.6,16.5-36.3,36.3c0,0.8,0,1.7,0.1,2.6l0.6,5.8
	C271.6,148.5,279.4,158.3,290.1,163.4z"/>
<path d="M290.2,164l-0.3-0.2c-10.9-5.1-18.7-15.1-21.1-26.9l-0.6-5.9c-0.1-0.8-0.1-1.6-0.1-2.6c0-21,17-38,38-38s38,17,38,38
	c0,1-0.1,1.8-0.1,2.6l-0.6,5.8c-2.4,11.8-10.2,21.8-21.1,27l-0.3,0.2l-0.2-0.3c-7.7-8.6-20.8-9.4-29.5-1.7c-0.6,0.5-1.2,1.1-1.7,1.7
	L290.2,164z M306.1,155.7c6.1,0,11.9,2.5,16.1,7c10.4-5.1,17.9-14.7,20.2-26.1l0.5-5.8c0.1-0.8,0.1-1.6,0.1-2.5
	c0-20.4-16.6-37-37-37s-37,16.6-37,37c0,0.9,0.1,1.7,0.1,2.5l0.6,5.8c2.3,11.3,9.8,21,20.2,26C294.2,158.2,300,155.7,306.1,155.7
	L306.1,155.7L306.1,155.7z"/>
<path class="st1" d="M327.5,177.7c0-5.3-2-10.4-5.5-14.3c-10.1,4.7-21.8,4.7-31.9,0c-7.9,8.8-7.1,22.4,1.7,30.3s22.4,7.1,30.3-1.7
	C325.5,188.1,327.5,183,327.5,177.7L327.5,177.7z"/>
<path d="M306.1,199.6c-12.1,0-21.9-9.8-22-21.9c0-5.4,2-10.7,5.6-14.7l0.2-0.3l0.3,0.2c10,4.7,21.5,4.7,31.5,0l0.3-0.2l0.2,0.3
	c8.1,9,7.4,22.9-1.7,31C316.7,197.6,311.5,199.6,306.1,199.6L306.1,199.6z M290.2,164c-7.6,8.7-6.7,22,2.1,29.6s22,6.7,29.6-2.1
	c6.9-7.9,6.9-19.7,0-27.6C311.9,168.6,300.3,168.6,290.2,164z"/>
<path class="st1" d="M306.1,156.2c-6.1,0-11.9,2.6-16,7.2c10.1,4.7,21.8,4.7,31.9,0C318,158.9,312.2,156.2,306.1,156.2z"/>
<path d="M306.1,167.5c-5.6,0-11.1-1.2-16.2-3.6l-0.6-0.3l0.5-0.5c8-9,21.9-9.8,30.9-1.8c0.6,0.6,1.2,1.2,1.8,1.8l0.5,0.5l-0.6,0.3
	C317.2,166.2,311.7,167.5,306.1,167.5z M291,163.2c9.6,4.3,20.6,4.3,30.3,0c-7.9-8.4-21.1-8.7-29.5-0.8
	C291.5,162.7,291.2,163,291,163.2z"/>
<rect x="926.4" width="1.2" height="1038"/>
<rect x="463.8" width="1.2" height="1038"/>
<rect x="1390" width="1.2" height="1038"/>
<rect x="463.7" y="518.4" width="463.3" height="1.2"/>
<circle class="st3" cx="743.4" cy="422.6" r="16.1"/>
<path d="M743.4,439.4c-9.2,0-16.7-7.5-16.7-16.7s7.5-16.7,16.7-16.7c9.2,0,16.7,7.5,16.7,16.7c0,0,0,0,0,0
	C760.1,431.9,752.7,439.3,743.4,439.4z M743.4,407.2c-8.5,0-15.5,6.9-15.5,15.5s6.9,15.5,15.5,15.5c8.5,0,15.5-6.9,15.5-15.5
	c0,0,0,0,0,0C758.9,414.1,752,407.2,743.4,407.2z"/>
</svg>
