<?xml version="1.0" encoding="UTF-8"?>
<svg id="uuid-8f102dd2-b31b-4a62-8ae2-f4e843791213" data-name="Layer 1" xmlns="http://www.w3.org/2000/svg" viewBox="0 0 1080 1080">
  <rect x="0" y="0" width="1080" height="1080" fill="#121619" stroke-width="0"/>
  <rect x="440" y="120" width="192" height="48" fill="#022d0d" stroke-width="0"/>
  <polygon points="632 168 632 167.5 440.5 167.5 440.5 120.5 631.5 120.5 631.5 168 632 168 632 167.5 632 168 632.5 168 632.5 119.5 439.5 119.5 439.5 168.5 632.5 168.5 632.5 168 632 168" fill="#24a148" stroke-width="0"/>
  <path d="M483.056,148.439h1.104v-1.224h-1.188v-3.813h1.284v-1.224h-1.284v-1.715h-1.379v1.067c0,.432-.144.647-.6.647h-.48v1.224h.923v3.442c0,1.019.564,1.595,1.619,1.595ZM477.873,148.439v-3.838c0-.684.54-.972,1.571-.972h.48v-1.451h-.336c-.996,0-1.499.636-1.655,1.296h-.06v-1.296h-1.535v6.261h1.535ZM471.692,147.467c-.6,0-.947-.252-.947-.755v-.204c0-.492.396-.768,1.199-.768h.983v.827c0,.588-.552.899-1.235.899ZM471.176,148.582c.936,0,1.619-.419,1.823-1.223h.072c.096.647.504,1.079,1.164,1.079h.852v-1.224h-.624v-2.95c0-1.427-.899-2.23-2.59-2.23-1.259,0-1.991.479-2.447,1.199l.912.815c.3-.432.708-.792,1.427-.792.815,0,1.163.408,1.163,1.104v.456h-1.067c-1.703,0-2.674.636-2.674,1.919,0,1.115.72,1.847,1.991,1.847ZM467.096,148.439h1.104v-1.224h-1.188v-3.813h1.284v-1.224h-1.284v-1.715h-1.379v1.067c0,.432-.144.647-.6.647h-.48v1.224h.923v3.442c0,1.019.564,1.595,1.619,1.595ZM460.556,148.582c2.003,0,3.143-1.079,3.143-2.662,0-1.379-.792-2.135-2.483-2.435l-.779-.145c-.804-.144-1.164-.407-1.164-1.043,0-.624.468-.983,1.367-.983.888,0,1.463.348,1.871.863l1.08-1.02c-.672-.804-1.607-1.235-2.867-1.235-1.871,0-3.034.972-3.034,2.471,0,1.367.815,2.171,2.506,2.435l.792.12c.875.156,1.14.504,1.14,1.067,0,.708-.504,1.176-1.475,1.176-.864,0-1.571-.36-2.147-1.031l-1.067,1.031c.708.827,1.691,1.391,3.118,1.391Z" fill="#fff" stroke-width="0"/>
  <rect x="440" y="165" width="192" height="3" fill="#24a148" stroke-width="0"/>
  <polygon points="632 165 632 164.5 439.5 164.5 439.5 168.5 632.5 168.5 632.5 164.5 632 164.5 632 165 631.5 165 631.5 167.5 440.5 167.5 440.5 165.5 632 165.5 632 165 631.5 165 632 165" fill="#24a148" stroke-width="0"/>
  <rect x="440" y="888" width="192" height="48" fill="#022d0d" stroke-width="0"/>
  <polygon points="632 936 632 935.5 440.5 935.5 440.5 888.5 631.5 888.5 631.5 936 632 936 632 935.5 632 936 632.5 936 632.5 887.5 439.5 887.5 439.5 936.5 632.5 936.5 632.5 936 632 936" fill="#24a148" stroke-width="0"/>
  <path d="M474.704,915.313c-.792,0-1.331-.576-1.331-1.464v-1.079c0-.888.54-1.476,1.331-1.476.731,0,1.295.396,1.295,1.008v1.991c0,.647-.564,1.02-1.295,1.02ZM475.999,916.44h1.535v-8.875h-1.535v3.646h-.06c-.216-.72-.899-1.175-1.727-1.175-1.571,0-2.447,1.175-2.447,3.262,0,2.1.875,3.286,2.447,3.286.828,0,1.499-.479,1.727-1.187h.06v1.043ZM466.592,916.44v-4.138c0-.672.611-1.008,1.247-1.008.731,0,1.031.456,1.031,1.344v3.802h1.535v-3.958c0-1.559-.719-2.446-2.002-2.446-.972,0-1.5.516-1.751,1.188h-.06v-1.044h-1.535v6.261h1.535ZM463.47,916.44v-1.403h-3.934v-2.135h3.478v-1.403h-3.478v-2.026h3.934v-1.403h-5.517v8.371h5.517Z" fill="#fff" stroke-width="0"/>
  <rect x="440" y="933" width="192" height="3" fill="#24a148" stroke-width="0"/>
  <polygon points="632 933 632 932.5 439.5 932.5 439.5 936.5 632.5 936.5 632.5 932.5 632 932.5 632 933 631.5 933 631.5 935.5 440.5 935.5 440.5 933.5 632 933.5 632 933 631.5 933 632 933" fill="#24a148" stroke-width="0"/>
  <rect x="440" y="216" width="192" height="48" fill="#21272a" stroke-width="0"/>
  <polygon points="632 264 632 263.5 440.5 263.5 440.5 216.5 631.5 216.5 631.5 264 632 264 632 263.5 632 264 632.5 264 632.5 215.5 439.5 215.5 439.5 264.5 632.5 264.5 632.5 264 632 264" fill="#878d96" stroke-width="0"/>
  <rect x="440" y="261" width="192" height="3" fill="#878d96" stroke-width="0"/>
  <polygon points="632 261 632 260.5 439.5 260.5 439.5 264.5 632.5 264.5 632.5 260.5 632 260.5 632 261 631.5 261 631.5 263.5 440.5 263.5 440.5 261.5 632 261.5 632 261 631.5 261 632 261" fill="#878d96" stroke-width="0"/>
  <path d="M593.462,244.582c1.559,0,2.579-.839,2.579-2.051,0-1.043-.66-1.655-2.027-1.847l-.636-.084c-.588-.096-.815-.288-.815-.708,0-.384.288-.647.947-.647.612,0,1.14.288,1.499.672l.9-.899c-.6-.624-1.224-.983-2.447-.983-1.427,0-2.375.768-2.375,1.979,0,1.14.744,1.728,2.087,1.896l.624.084c.551.071.768.3.768.659,0,.443-.312.72-1.043.72-.708,0-1.259-.324-1.715-.852l-.936.911c.624.72,1.403,1.151,2.591,1.151ZM587.221,239.186c.792,0,1.235.588,1.235,1.451v.107h-2.566v-.096c0-.863.528-1.463,1.331-1.463ZM587.245,244.582c1.164,0,2.075-.443,2.591-1.151l-.828-.923c-.384.491-.839.852-1.595.852-1.007,0-1.523-.612-1.523-1.512v-.155h4.162v-.504c0-1.715-.899-3.154-2.854-3.154-1.835,0-2.902,1.283-2.902,3.262,0,2.003,1.104,3.286,2.95,3.286ZM582.23,244.439h1.104v-1.224h-1.188v-3.813h1.284v-1.224h-1.284v-1.715h-1.379v1.067c0,.432-.144.647-.6.647h-.48v1.224h.923v3.442c0,1.019.564,1.595,1.619,1.595ZM576.964,244.439h1.535v-6.261h-1.535v6.261ZM577.731,237.267c.624,0,.899-.324.899-.768v-.24c0-.443-.276-.768-.899-.768-.636,0-.9.324-.9.768v.24c0,.443.264.768.9.768ZM573.027,244.582c1.559,0,2.579-.839,2.579-2.051,0-1.043-.66-1.655-2.027-1.847l-.636-.084c-.588-.096-.815-.288-.815-.708,0-.384.288-.647.947-.647.612,0,1.14.288,1.499.672l.9-.899c-.6-.624-1.224-.983-2.447-.983-1.427,0-2.375.768-2.375,1.979,0,1.14.744,1.728,2.087,1.896l.624.084c.551.071.768.3.768.659,0,.443-.312.72-1.043.72-.708,0-1.259-.324-1.715-.852l-.936.911c.624.72,1.403,1.151,2.591,1.151ZM567.664,244.439h1.535v-6.261h-1.535v6.261ZM568.431,237.267c.624,0,.899-.324.899-.768v-.24c0-.443-.276-.768-.899-.768-.636,0-.9.324-.9.768v.24c0,.443.264.768.9.768ZM564.349,244.439h1.535v-6.261h-1.535v4.138c0,.672-.612.996-1.223.996-.732,0-1.056-.468-1.056-1.332v-3.802h-1.535v3.958c0,1.56.72,2.446,2.003,2.446,1.032,0,1.535-.563,1.751-1.187h.06v1.043ZM555.998,243.312c-.792,0-1.331-.576-1.331-1.464v-1.079c0-.888.54-1.476,1.331-1.476.731,0,1.295.396,1.295,1.008v1.991c0,.647-.564,1.02-1.295,1.02ZM557.294,246.837h1.535v-8.659h-1.535v1.031h-.06c-.216-.72-.899-1.175-1.727-1.175-1.571,0-2.447,1.175-2.447,3.262,0,2.1.875,3.286,2.447,3.286.828,0,1.499-.479,1.727-1.187h.06v3.441ZM549.218,239.186c.792,0,1.235.588,1.235,1.451v.107h-2.566v-.096c0-.863.528-1.463,1.331-1.463ZM549.242,244.582c1.164,0,2.075-.443,2.591-1.151l-.828-.923c-.384.491-.839.852-1.595.852-1.007,0-1.523-.612-1.523-1.512v-.155h4.162v-.504c0-1.715-.899-3.154-2.854-3.154-1.835,0-2.902,1.283-2.902,3.262,0,2.003,1.104,3.286,2.95,3.286ZM543.591,244.439v-3.838c0-.684.54-.972,1.571-.972h.48v-1.451h-.336c-.996,0-1.499.636-1.655,1.296h-.06v-1.296h-1.535v6.261h1.535ZM537.866,239.186c.792,0,1.235.588,1.235,1.451v.107h-2.566v-.096c0-.863.527-1.463,1.331-1.463ZM537.89,244.582c1.164,0,2.075-.443,2.591-1.151l-.828-.923c-.384.491-.839.852-1.595.852-1.007,0-1.523-.612-1.523-1.512v-.155h4.162v-.504c0-1.715-.899-3.154-2.854-3.154-1.835,0-2.902,1.283-2.902,3.262,0,2.003,1.104,3.286,2.95,3.286ZM532.239,244.439v-3.838c0-.684.54-.972,1.571-.972h.48v-1.451h-.336c-.996,0-1.499.636-1.655,1.296h-.06v-1.296h-1.535v6.261h1.535ZM526.323,243.312c-.732,0-1.283-.372-1.283-1.02v-1.991c0-.611.551-1.008,1.283-1.008.792,0,1.343.588,1.343,1.476v1.079c0,.888-.552,1.464-1.343,1.464ZM523.505,246.837h1.535v-3.441h.048c.24.707.899,1.187,1.727,1.187,1.583,0,2.458-1.187,2.458-3.286,0-2.087-.875-3.262-2.458-3.262-.828,0-1.499.455-1.727,1.175h-.048v-1.031h-1.535v8.659ZM518.139,244.439h1.104v-1.224h-1.188v-3.813h1.284v-1.224h-1.284v-1.715h-1.379v1.067c0,.432-.144.647-.6.647h-.48v1.224h.923v3.442c0,1.019.564,1.595,1.619,1.595ZM511.995,239.186c.792,0,1.235.588,1.235,1.451v.107h-2.566v-.096c0-.863.527-1.463,1.331-1.463ZM512.019,244.582c1.164,0,2.075-.443,2.591-1.151l-.828-.923c-.384.491-.839.852-1.595.852-1.007,0-1.523-.612-1.523-1.512v-.155h4.162v-.504c0-1.715-.899-3.154-2.854-3.154-1.835,0-2.902,1.283-2.902,3.262,0,2.003,1.104,3.286,2.95,3.286ZM505.299,239.186c.792,0,1.235.588,1.235,1.451v.107h-2.566v-.096c0-.863.528-1.463,1.331-1.463ZM505.323,244.582c1.164,0,2.075-.443,2.591-1.151l-.828-.923c-.384.491-.839.852-1.595.852-1.007,0-1.523-.612-1.523-1.512v-.155h4.162v-.504c0-1.715-.899-3.154-2.854-3.154-1.835,0-2.902,1.283-2.902,3.262,0,2.003,1.104,3.286,2.95,3.286ZM493.097,244.439h1.499v-6.009h.048l.647,1.331,1.715,3.167,1.715-3.167.647-1.331h.048v6.009h1.499v-8.371h-1.715l-2.123,4.09h-.048l-2.147-4.09h-1.787v8.371Z" fill="#fff" stroke-width="0"/>
  <rect x="466.113" y="235" width="8.75" height="1.25" fill="#fff" stroke-width="0"/>
  <polygon points="459.863 236.619 458.245 235 457.363 235.881 459.863 238.381 464.863 233.381 463.982 232.5 459.863 236.619" fill="#fff" stroke-width="0"/>
  <rect x="466.113" y="243.75" width="8.75" height="1.25" fill="#fff" stroke-width="0"/>
  <polygon points="459.863 245.369 458.245 243.75 457.363 244.631 459.863 247.131 464.863 242.131 463.982 241.25 459.863 245.369" fill="#fff" stroke-width="0"/>
  <rect x="440" y="600" width="192" height="48" fill="#21272a" stroke-width="0"/>
  <polygon points="632 648 632 647.5 440.5 647.5 440.5 600.5 631.5 600.5 631.5 648 632 648 632 647.5 632 648 632.5 648 632.5 599.5 439.5 599.5 439.5 648.5 632.5 648.5 632.5 648 632 648" fill="#878d96" stroke-width="0"/>
  <rect x="440" y="645" width="192" height="3" fill="#878d96" stroke-width="0"/>
  <polygon points="632 645 632 644.5 439.5 644.5 439.5 648.5 632.5 648.5 632.5 644.5 632 644.5 632 645 631.5 645 631.5 647.5 440.5 647.5 440.5 645.5 632 645.5 632 645 631.5 645 632 645" fill="#878d96" stroke-width="0"/>
  <path d="M542.716,623.186c.792,0,1.235.588,1.235,1.451v.107h-2.566v-.096c0-.863.528-1.463,1.331-1.463ZM542.739,628.582c1.164,0,2.075-.443,2.591-1.151l-.828-.923c-.384.491-.839.852-1.595.852-1.007,0-1.523-.612-1.523-1.512v-.155h4.162v-.504c0-1.715-.899-3.154-2.854-3.154-1.835,0-2.902,1.283-2.902,3.262,0,2.003,1.104,3.286,2.95,3.286ZM537.089,628.439v-3.838c0-.684.54-.972,1.571-.972h.48v-1.451h-.336c-.996,0-1.499.636-1.655,1.296h-.06v-1.296h-1.535v6.261h1.535ZM532.239,628.439h1.535v-6.261h-1.535v4.138c0,.672-.612.996-1.223.996-.732,0-1.056-.468-1.056-1.332v-3.802h-1.535v3.958c0,1.56.72,2.446,2.003,2.446,1.032,0,1.535-.563,1.751-1.187h.06v1.043ZM524.367,625.212c-.731,0-1.127-.336-1.127-.959v-.204c0-.636.396-.959,1.127-.959s1.127.323,1.127.959v.204c0,.623-.396.959-1.127.959ZM526.215,629.147c0,.527-.444.779-1.439.779h-.768c-.959,0-1.319-.288-1.319-.768,0-.252.096-.479.324-.647h2.135c.78,0,1.067.239,1.067.636ZM527.654,628.966c0-1.127-.66-1.787-2.195-1.787h-1.679c-.552,0-.815-.155-.815-.467,0-.276.204-.456.443-.564.276.072.6.108.959.108,1.703,0,2.591-.84,2.591-2.099,0-.768-.324-1.38-.972-1.739v-.168h1.332v-1.176h-.972c-.576,0-.887.3-.887.912v.203c-.312-.107-.708-.155-1.092-.155-1.691,0-2.59.852-2.59,2.123,0,.827.384,1.475,1.139,1.822v.048c-.6.133-1.151.456-1.151,1.104,0,.504.288.912.804,1.044v.132c-.696.107-1.115.504-1.115,1.199,0,.924.803,1.476,2.914,1.476,2.399,0,3.287-.708,3.287-2.016ZM519.458,621.267c.624,0,.9-.324.9-.768v-.24c0-.443-.276-.768-.9-.768-.635,0-.899.324-.899.768v.24c0,.443.264.768.899.768ZM514.829,628.439h1.535v-5.049h2.327v5.049h1.535v-6.261h-3.862v-1.391h1.283v-1.224h-1.091c-1.127,0-1.727.611-1.727,1.715v.899h-.923v1.212h.923v5.049ZM508.996,628.439v-4.138c0-.672.611-1.008,1.247-1.008.731,0,1.031.456,1.031,1.344v3.802h1.535v-3.958c0-1.559-.719-2.446-2.002-2.446-.972,0-1.5.516-1.751,1.188h-.06v-1.044h-1.535v6.261h1.535ZM503.188,627.347c-.792,0-1.295-.516-1.295-1.463v-1.163c0-.936.504-1.451,1.295-1.451.804,0,1.307.516,1.307,1.451v1.163c0,.947-.503,1.463-1.307,1.463ZM503.188,628.582c1.799,0,2.915-1.271,2.915-3.286,0-2.003-1.116-3.262-2.915-3.262-1.787,0-2.902,1.259-2.902,3.262,0,2.016,1.115,3.286,2.902,3.286ZM496.347,628.582c1.499,0,2.495-.731,3.094-1.979l-1.283-.756c-.276.756-.864,1.331-1.811,1.331-1.176,0-1.931-.815-1.931-2.254v-1.319c0-1.428.755-2.279,1.931-2.279.935,0,1.463.504,1.703,1.247l1.355-.719c-.588-1.296-1.559-1.932-3.058-1.932-2.207,0-3.61,1.571-3.61,4.39s1.403,4.27,3.61,4.27Z" fill="#fff" stroke-width="0"/>
  <rect x="440" y="696" width="192" height="48" fill="#121619" stroke-width="0"/>
  <polygon points="631.5 742 631.5 743.5 630 743.5 630 744.5 632.5 744.5 632.5 742 631.5 742" fill="#878d96" stroke-width="0"/>
  <path d="M450,743.5h-4v1h4v-1ZM458,743.5h-4v1h4v-1ZM466,743.5h-4v1h4v-1ZM474,743.5h-4v1h4v-1ZM482,743.5h-4v1h4v-1ZM490,743.5h-4v1h4v-1ZM498,743.5h-4v1h4v-1ZM506,743.5h-4v1h4v-1ZM514,743.5h-4v1h4v-1ZM522,743.5h-4v1h4v-1ZM530,743.5h-4v1h4v-1ZM538,743.5h-4v1h4v-1ZM546,743.5h-4v1h4v-1ZM554,743.5h-4v1h4v-1ZM562,743.5h-4v1h4v-1ZM570,743.5h-4v1h4v-1ZM578,743.5h-4v1h4v-1ZM586,743.5h-4v1h4v-1ZM594,743.5h-4v1h4v-1ZM602,743.5h-4v1h4v-1ZM610,743.5h-4v1h4v-1ZM618,743.5h-4v1h4v-1ZM626,743.5h-4v1h4v-1Z" fill="#878d96" stroke-width="0"/>
  <polygon points="442 743.5 440.5 743.5 440.5 742 439.5 742 439.5 744.5 442 744.5 442 743.5" fill="#878d96" stroke-width="0"/>
  <path d="M440.5,706v-4h-1v4h1ZM440.5,714v-4h-1v4h1ZM440.5,722v-4h-1v4h1ZM440.5,730v-4h-1v4h1ZM440.5,738v-4h-1v4h1Z" fill="#878d96" stroke-width="0"/>
  <polygon points="440.5 698 440.5 696.5 442 696.5 442 695.5 439.5 695.5 439.5 698 440.5 698" fill="#878d96" stroke-width="0"/>
  <path d="M622,696.5h4v-1h-4v1ZM614,696.5h4v-1h-4v1ZM606,696.5h4v-1h-4v1ZM598,696.5h4v-1h-4v1ZM590,696.5h4v-1h-4v1ZM582,696.5h4v-1h-4v1ZM574,696.5h4v-1h-4v1ZM566,696.5h4v-1h-4v1ZM558,696.5h4v-1h-4v1ZM550,696.5h4v-1h-4v1ZM542,696.5h4v-1h-4v1ZM534,696.5h4v-1h-4v1ZM526,696.5h4v-1h-4v1ZM518,696.5h4v-1h-4v1ZM510,696.5h4v-1h-4v1ZM502,696.5h4v-1h-4v1ZM494,696.5h4v-1h-4v1ZM486,696.5h4v-1h-4v1ZM478,696.5h4v-1h-4v1ZM470,696.5h4v-1h-4v1ZM462,696.5h4v-1h-4v1ZM454,696.5h4v-1h-4v1ZM446,696.5h4v-1h-4v1Z" fill="#878d96" stroke-width="0"/>
  <polygon points="630 696.5 631.5 696.5 631.5 698 632.5 698 632.5 695.5 630 695.5 630 696.5" fill="#878d96" stroke-width="0"/>
  <path d="M631.5,734v4h1v-4h-1ZM631.5,726v4h1v-4h-1ZM631.5,718v4h1v-4h-1ZM631.5,710v4h1v-4h-1ZM631.5,702v4h1v-4h-1Z" fill="#878d96" stroke-width="0"/>
  <rect x="440" y="741" width="192" height="3" fill="#878d96" stroke-width="0"/>
  <polygon points="632 741 632 740.5 439.5 740.5 439.5 744.5 632.5 744.5 632.5 740.5 632 740.5 632 741 631.5 741 631.5 743.5 440.5 743.5 440.5 741.5 632 741.5 632 741 631.5 741 632 741" fill="#878d96" stroke-width="0"/>
  <path d="M513.723,717.44h1.104v-1.224h-1.188v-3.813h1.284v-1.224h-1.284v-1.715h-1.379v1.067c0,.432-.144.647-.6.647h-.48v1.224h.923v3.442c0,1.019.564,1.595,1.619,1.595ZM507.928,717.583c1.559,0,2.579-.839,2.579-2.051,0-1.043-.66-1.655-2.027-1.847l-.636-.084c-.588-.096-.815-.288-.815-.708,0-.384.288-.647.947-.647.612,0,1.14.288,1.499.672l.9-.899c-.6-.624-1.224-.983-2.447-.983-1.427,0-2.375.768-2.375,1.979,0,1.14.744,1.728,2.087,1.896l.624.084c.551.071.768.3.768.659,0,.443-.312.72-1.043.72-.708,0-1.259-.324-1.715-.852l-.936.911c.624.72,1.403,1.151,2.591,1.151ZM501.688,712.187c.792,0,1.235.588,1.235,1.451v.107h-2.566v-.096c0-.863.527-1.463,1.331-1.463ZM501.712,717.583c1.164,0,2.075-.443,2.591-1.151l-.828-.923c-.384.491-.839.852-1.595.852-1.007,0-1.523-.612-1.523-1.512v-.155h4.162v-.504c0-1.715-.899-3.154-2.854-3.154-1.835,0-2.902,1.283-2.902,3.262,0,2.003,1.104,3.286,2.95,3.286ZM498.758,710.472v-1.403h-6.333v1.403h2.375v6.968h1.583v-6.968h2.375Z" fill="#fff" stroke-width="0"/>
  <path d="M537.544,731.44v-.84h-.912v-8.035h-.959v7.88c0,.575.36.995,1.02.995h.852ZM531.004,730.768c-.744,0-1.223-.348-1.223-.959v-.252c0-.6.492-.936,1.583-.936h1.271v1.02c0,.636-.684,1.127-1.631,1.127ZM534.302,731.44v-.84h-.708v-3.406c0-1.307-.888-2.086-2.375-2.086-1.116,0-1.859.551-2.195,1.211l.576.54c.335-.564.827-.924,1.571-.924.983,0,1.463.479,1.463,1.355v.611h-1.224c-1.799,0-2.638.647-2.638,1.812,0,1.15.768,1.87,2.075,1.87.864,0,1.523-.396,1.787-1.151h.06c.072.576.36,1.008,1.067,1.008h.54ZM523.408,731.44v-4.294c0-.791.744-1.175,1.511-1.175.923,0,1.403.563,1.403,1.667v3.802h.96v-3.97c0-1.499-.804-2.362-2.075-2.362-.923,0-1.451.455-1.751,1.15h-.048v-1.007h-.959v6.188h.959ZM518.068,730.732c-1.031,0-1.763-.636-1.763-1.942v-.888c0-1.308.731-1.943,1.763-1.943s1.763.636,1.763,1.943v.888c0,1.307-.731,1.942-1.763,1.942ZM518.068,731.583c1.655,0,2.795-1.271,2.795-3.238s-1.14-3.237-2.795-3.237-2.794,1.271-2.794,3.237,1.14,3.238,2.794,3.238ZM512.729,731.44h.959v-6.188h-.959v6.188ZM513.209,723.8c.408,0,.588-.216.588-.54v-.155c0-.324-.18-.54-.588-.54s-.587.216-.587.54v.155c0,.324.18.54.587.54ZM511.084,731.44v-.84h-1.259v-4.509h1.355v-.84h-1.355v-1.715h-.863v1.151c0,.42-.132.563-.54.563h-.576v.84h1.02v4.329c0,.6.36,1.02,1.02,1.02h1.199ZM504.184,730.72c-.875,0-1.595-.456-1.595-1.259v-2.303c0-.684.72-1.188,1.595-1.188,1.079,0,1.751.743,1.751,1.847v1.056c0,1.104-.672,1.847-1.751,1.847ZM501.629,733.838h.959v-3.406h.048c.372.768.959,1.151,1.811,1.151,1.547,0,2.519-1.259,2.519-3.238s-.971-3.237-2.519-3.237c-.852,0-1.487.371-1.811,1.15h-.048v-1.007h-.959v8.587ZM496.359,730.684c-1.451,0-2.471-1.079-2.471-2.734v-1.391c0-1.655,1.02-2.735,2.471-2.735s2.471,1.08,2.471,2.735v1.391c0,1.655-1.02,2.734-2.471,2.734ZM496.359,731.583c2.159,0,3.55-1.522,3.55-4.329s-1.392-4.33-3.55-4.33-3.55,1.523-3.55,4.33,1.391,4.329,3.55,4.329Z" fill="#fff" stroke-width="0"/>
  <rect x="440" y="792" width="192" height="48" fill="#121619" stroke-width="0"/>
  <path d="M631.5,840h.5v-.5h-4v1h4.5v-.5h-1ZM631.5,832v4h1v-4h-1ZM631.5,824v4h1v-4h-1ZM631.5,816v4h1v-4h-1ZM631.5,808v4h1v-4h-1ZM631.5,800v4h1v-4h-1ZM632,792.5h0v-.5h-.5v4h1v-4.5h-.5v1ZM624,792.5h4v-1h-4v1ZM616,792.5h4v-1h-4v1ZM608,792.5h4v-1h-4v1ZM600,792.5h4v-1h-4v1ZM592,792.5h4v-1h-4v1ZM584,792.5h4v-1h-4v1ZM576,792.5h4v-1h-4v1ZM568,792.5h4v-1h-4v1ZM560,792.5h4v-1h-4v1ZM552,792.5h4v-1h-4v1ZM544,792.5h4v-1h-4v1ZM536,792.5h4v-1h-4v1ZM528,792.5h4v-1h-4v1ZM520,792.5h4v-1h-4v1ZM512,792.5h4v-1h-4v1ZM504,792.5h4v-1h-4v1ZM496,792.5h4v-1h-4v1ZM488,792.5h4v-1h-4v1ZM480,792.5h4v-1h-4v1ZM472,792.5h4v-1h-4v1ZM464,792.5h4v-1h-4v1ZM456,792.5h4v-1h-4v1ZM448,792.5h4v-1h-4v1ZM440.5,792h-.5v.5h4v-1h-4.5v.5h1ZM440.5,800v-4h-1v4h1ZM440.5,808v-4h-1v4h1ZM440.5,816v-4h-1v4h1ZM440.5,824v-4h-1v4h1ZM440.5,832v-4h-1v4h1ZM440,839.5h0v.5h.5v-4h-1v4.5h.5v-1ZM448,839.5h-4v1h4v-1ZM456,839.5h-4v1h4v-1ZM464,839.5h-4v1h4v-1ZM472,839.5h-4v1h4v-1ZM480,839.5h-4v1h4v-1ZM488,839.5h-4v1h4v-1ZM496,839.5h-4v1h4v-1ZM504,839.5h-4v1h4v-1ZM512,839.5h-4v1h4v-1ZM520,839.5h-4v1h4v-1ZM528,839.5h-4v1h4v-1ZM536,839.5h-4v1h4v-1ZM544,839.5h-4v1h4v-1ZM552,839.5h-4v1h4v-1ZM560,839.5h-4v1h4v-1ZM568,839.5h-4v1h4v-1ZM576,839.5h-4v1h4v-1ZM584,839.5h-4v1h4v-1ZM592,839.5h-4v1h4v-1ZM600,839.5h-4v1h4v-1ZM608,839.5h-4v1h4v-1ZM616,839.5h-4v1h4v-1ZM624,839.5h-4v1h4v-1Z" fill="#878d96" stroke-width="0"/>
  <path d="M521.391,812.312c-.732,0-1.283-.372-1.283-1.02v-1.991c0-.611.551-1.008,1.283-1.008.792,0,1.343.588,1.343,1.476v1.079c0,.888-.552,1.464-1.343,1.464ZM518.573,815.837h1.535v-3.441h.048c.24.707.899,1.187,1.727,1.187,1.583,0,2.458-1.187,2.458-3.286,0-2.087-.875-3.262-2.458-3.262-.828,0-1.499.455-1.727,1.175h-.048v-1.031h-1.535v8.659ZM515.258,813.439h1.535v-6.261h-1.535v4.138c0,.672-.612.996-1.223.996-.732,0-1.056-.468-1.056-1.332v-3.802h-1.535v3.958c0,1.56.72,2.446,2.003,2.446,1.032,0,1.535-.563,1.751-1.187h.06v1.043ZM508.984,813.439h1.104v-1.224h-1.188v-3.813h1.284v-1.224h-1.284v-1.715h-1.379v1.067c0,.432-.144.647-.6.647h-.48v1.224h.923v3.442c0,1.019.564,1.595,1.619,1.595ZM502.84,808.186c.792,0,1.235.588,1.235,1.451v.107h-2.566v-.096c0-.863.528-1.463,1.331-1.463ZM502.863,813.582c1.164,0,2.075-.443,2.591-1.151l-.828-.923c-.384.491-.839.852-1.595.852-1.007,0-1.523-.612-1.523-1.512v-.155h4.162v-.504c0-1.715-.899-3.154-2.854-3.154-1.835,0-2.902,1.283-2.902,3.262,0,2.003,1.104,3.286,2.95,3.286ZM495.699,813.582c2.003,0,3.143-1.079,3.143-2.662,0-1.379-.792-2.135-2.483-2.435l-.779-.145c-.804-.144-1.164-.407-1.164-1.043,0-.624.468-.983,1.367-.983.888,0,1.463.348,1.871.863l1.079-1.02c-.671-.804-1.607-1.235-2.866-1.235-1.871,0-3.034.972-3.034,2.471,0,1.367.815,2.171,2.506,2.435l.792.12c.876.156,1.14.504,1.14,1.067,0,.708-.504,1.176-1.475,1.176-.864,0-1.571-.36-2.147-1.031l-1.067,1.031c.708.827,1.691,1.391,3.118,1.391Z" fill="#fff" stroke-width="0"/>
  <path d="M537.544,827.439v-.84h-.912v-8.035h-.959v7.88c0,.575.36.995,1.02.995h.852ZM531.004,826.767c-.744,0-1.223-.348-1.223-.959v-.252c0-.6.492-.936,1.583-.936h1.271v1.02c0,.636-.684,1.127-1.631,1.127ZM534.302,827.439v-.84h-.708v-3.406c0-1.307-.888-2.086-2.375-2.086-1.116,0-1.859.551-2.195,1.211l.576.54c.335-.564.827-.924,1.571-.924.983,0,1.463.479,1.463,1.355v.611h-1.224c-1.799,0-2.638.647-2.638,1.812,0,1.15.768,1.87,2.075,1.87.864,0,1.523-.396,1.787-1.151h.06c.072.576.36,1.008,1.067,1.008h.54ZM523.408,827.439v-4.294c0-.791.744-1.175,1.511-1.175.923,0,1.403.563,1.403,1.667v3.802h.96v-3.97c0-1.499-.804-2.362-2.075-2.362-.923,0-1.451.455-1.751,1.15h-.048v-1.007h-.959v6.188h.959ZM518.068,826.731c-1.031,0-1.763-.636-1.763-1.942v-.888c0-1.308.731-1.943,1.763-1.943s1.763.636,1.763,1.943v.888c0,1.307-.731,1.942-1.763,1.942ZM518.068,827.582c1.655,0,2.795-1.271,2.795-3.238s-1.14-3.237-2.795-3.237-2.794,1.271-2.794,3.237,1.14,3.238,2.794,3.238ZM512.729,827.439h.959v-6.188h-.959v6.188ZM513.209,819.799c.408,0,.588-.216.588-.54v-.155c0-.324-.18-.54-.588-.54s-.587.216-.587.54v.155c0,.324.18.54.587.54ZM511.084,827.439v-.84h-1.259v-4.509h1.355v-.84h-1.355v-1.715h-.863v1.151c0,.42-.132.563-.54.563h-.576v.84h1.02v4.329c0,.6.36,1.02,1.02,1.02h1.199ZM504.184,826.719c-.875,0-1.595-.456-1.595-1.259v-2.303c0-.684.72-1.188,1.595-1.188,1.079,0,1.751.743,1.751,1.847v1.056c0,1.104-.672,1.847-1.751,1.847ZM501.629,829.837h.959v-3.406h.048c.372.768.959,1.151,1.811,1.151,1.547,0,2.519-1.259,2.519-3.238s-.971-3.237-2.519-3.237c-.852,0-1.487.371-1.811,1.15h-.048v-1.007h-.959v8.587ZM496.359,826.683c-1.451,0-2.471-1.079-2.471-2.734v-1.391c0-1.655,1.02-2.735,2.471-2.735s2.471,1.08,2.471,2.735v1.391c0,1.655-1.02,2.734-2.471,2.734ZM496.359,827.582c2.159,0,3.55-1.522,3.55-4.329s-1.392-4.33-3.55-4.33-3.55,1.523-3.55,4.33,1.391,4.329,3.55,4.329Z" fill="#fff" stroke-width="0"/>
  <rect x="440" y="837" width="192" height="3" fill="#878d96" stroke-width="0"/>
  <polygon points="632 837 632 836.5 439.5 836.5 439.5 840.5 632.5 840.5 632.5 836.5 632 836.5 632 837 631.5 837 631.5 839.5 440.5 839.5 440.5 837.5 632 837.5 632 837 631.5 837 632 837" fill="#878d96" stroke-width="0"/>
  <rect x="680" y="216" width="192" height="48" fill="#21272a" stroke-width="0"/>
  <polygon points="872 264 872 263.5 680.5 263.5 680.5 216.5 871.5 216.5 871.5 264 872 264 872 263.5 872 264 872.5 264 872.5 215.5 679.5 215.5 679.5 264.5 872.5 264.5 872.5 264 872 264" fill="#878d96" stroke-width="0"/>
  <rect x="680" y="261" width="192" height="3" fill="#878d96" stroke-width="0"/>
  <polygon points="872 261 872 260.5 679.5 260.5 679.5 264.5 872.5 264.5 872.5 260.5 872 260.5 872 261 871.5 261 871.5 263.5 680.5 263.5 680.5 261.5 872 261.5 872 261 871.5 261 872 261" fill="#878d96" stroke-width="0"/>
  <path d="M834.302,239.186c.792,0,1.235.588,1.235,1.451v.107h-2.566v-.096c0-.863.528-1.463,1.331-1.463ZM834.326,244.582c1.164,0,2.075-.443,2.591-1.151l-.828-.923c-.384.491-.839.852-1.595.852-1.007,0-1.523-.612-1.523-1.512v-.155h4.162v-.504c0-1.715-.899-3.154-2.854-3.154-1.835,0-2.902,1.283-2.902,3.262,0,2.003,1.104,3.286,2.95,3.286ZM827.691,241.212c-.731,0-1.127-.336-1.127-.959v-.204c0-.636.396-.959,1.127-.959s1.127.323,1.127.959v.204c0,.623-.396.959-1.127.959ZM829.538,245.147c0,.527-.444.779-1.439.779h-.768c-.959,0-1.319-.288-1.319-.768,0-.252.096-.479.324-.647h2.135c.78,0,1.067.239,1.067.636ZM830.977,244.966c0-1.127-.66-1.787-2.195-1.787h-1.679c-.552,0-.815-.155-.815-.467,0-.276.204-.456.443-.564.276.072.6.108.959.108,1.703,0,2.591-.84,2.591-2.099,0-.768-.324-1.38-.972-1.739v-.168h1.332v-1.176h-.972c-.576,0-.887.3-.887.912v.203c-.312-.107-.708-.155-1.092-.155-1.691,0-2.59.852-2.59,2.123,0,.827.384,1.475,1.139,1.822v.048c-.6.133-1.151.456-1.151,1.104,0,.504.288.912.804,1.044v.132c-.696.107-1.115.504-1.115,1.199,0,.924.803,1.476,2.914,1.476,2.399,0,3.287-.708,3.287-2.016ZM820.683,243.467c-.6,0-.947-.252-.947-.755v-.204c0-.492.396-.768,1.199-.768h.983v.827c0,.588-.552.899-1.235.899ZM820.167,244.582c.936,0,1.619-.419,1.823-1.223h.072c.096.647.504,1.079,1.164,1.079h.852v-1.224h-.624v-2.95c0-1.427-.899-2.23-2.59-2.23-1.259,0-1.991.479-2.447,1.199l.912.815c.3-.432.708-.792,1.427-.792.815,0,1.163.408,1.163,1.104v.456h-1.067c-1.703,0-2.674.636-2.674,1.919,0,1.115.72,1.847,1.991,1.847ZM811.888,244.439h1.535v-1.907l.827-.899,1.607,2.807h1.823l-2.387-3.838,2.159-2.423h-1.739l-1.403,1.607-.828,1.127h-.06v-5.349h-1.535v8.875ZM808.202,244.582c1.211,0,2.087-.552,2.495-1.654l-1.176-.564c-.228.564-.587.983-1.319.983-.851,0-1.283-.587-1.283-1.463v-1.14c0-.875.432-1.475,1.283-1.475.66,0,1.056.384,1.2.911l1.259-.563c-.372-.983-1.199-1.583-2.459-1.583-1.847,0-2.89,1.259-2.89,3.262,0,2.016,1.043,3.286,2.89,3.286ZM801.087,243.467c-.6,0-.947-.252-.947-.755v-.204c0-.492.396-.768,1.199-.768h.983v.827c0,.588-.552.899-1.235.899ZM800.571,244.582c.936,0,1.619-.419,1.823-1.223h.072c.096.647.504,1.079,1.164,1.079h.852v-1.224h-.624v-2.95c0-1.427-.899-2.23-2.59-2.23-1.259,0-1.991.479-2.447,1.199l.912.815c.3-.432.708-.792,1.427-.792.815,0,1.163.408,1.163,1.104v.456h-1.067c-1.703,0-2.674.636-2.674,1.919,0,1.115.72,1.847,1.991,1.847ZM794.643,243.312c-.731,0-1.283-.372-1.283-1.02v-1.991c0-.611.552-1.008,1.283-1.008.792,0,1.343.588,1.343,1.476v1.079c0,.888-.552,1.464-1.343,1.464ZM791.824,246.837h1.535v-3.441h.048c.24.707.899,1.187,1.727,1.187,1.583,0,2.458-1.187,2.458-3.286,0-2.087-.875-3.262-2.458-3.262-.828,0-1.499.455-1.727,1.175h-.048v-1.031h-1.535v8.659ZM784.383,243.312c-.792,0-1.331-.576-1.331-1.464v-1.079c0-.888.54-1.476,1.331-1.476.731,0,1.295.396,1.295,1.008v1.991c0,.647-.564,1.02-1.295,1.02ZM785.678,244.439h1.535v-8.875h-1.535v3.646h-.06c-.216-.72-.899-1.175-1.727-1.175-1.571,0-2.447,1.175-2.447,3.262,0,2.1.875,3.286,2.447,3.286.828,0,1.499-.479,1.727-1.187h.06v1.043ZM777.147,243.467c-.6,0-.947-.252-.947-.755v-.204c0-.492.396-.768,1.199-.768h.983v.827c0,.588-.552.899-1.235.899ZM776.632,244.582c.936,0,1.619-.419,1.823-1.223h.072c.096.647.504,1.079,1.164,1.079h.852v-1.224h-.624v-2.95c0-1.427-.899-2.23-2.59-2.23-1.259,0-1.991.479-2.447,1.199l.912.815c.3-.432.708-.792,1.427-.792.815,0,1.163.408,1.163,1.104v.456h-1.067c-1.703,0-2.674.636-2.674,1.919,0,1.115.72,1.847,1.991,1.847ZM770.811,243.347c-.792,0-1.295-.516-1.295-1.463v-1.163c0-.936.504-1.451,1.295-1.451.804,0,1.307.516,1.307,1.451v1.163c0,.947-.503,1.463-1.307,1.463ZM770.811,244.582c1.799,0,2.915-1.271,2.915-3.286,0-2.003-1.116-3.262-2.915-3.262-1.787,0-2.902,1.259-2.902,3.262,0,2.016,1.115,3.286,2.902,3.286ZM767.163,244.439v-1.224h-.827v-7.651h-1.535v7.364c0,.959.492,1.511,1.535,1.511h.827ZM759.28,244.439v-4.138c0-.672.611-1.008,1.247-1.008.731,0,1.032.456,1.032,1.344v3.802h1.535v-3.958c0-1.559-.72-2.446-2.003-2.446-.972,0-1.5.516-1.751,1.188h-.06v-1.044h-1.535v6.261h1.535ZM749.032,244.439h1.631l.792-2.759.456-1.703h.036l.468,1.703.803,2.759h1.655l1.715-6.261h-1.427l-.624,2.579-.492,2.146h-.048l-.588-2.146-.755-2.579h-1.391l-.732,2.579-.576,2.146h-.048l-.492-2.146-.636-2.579h-1.475l1.727,6.261ZM743.752,243.347c-.792,0-1.295-.516-1.295-1.463v-1.163c0-.936.504-1.451,1.295-1.451.804,0,1.307.516,1.307,1.451v1.163c0,.947-.503,1.463-1.307,1.463ZM743.752,244.582c1.799,0,2.915-1.271,2.915-3.286,0-2.003-1.116-3.262-2.915-3.262-1.787,0-2.902,1.259-2.902,3.262,0,2.016,1.115,3.286,2.902,3.286ZM734.68,243.035v-5.564h1.463c1.175,0,1.931.695,1.931,2.122v1.319c0,1.428-.756,2.123-1.931,2.123h-1.463ZM733.097,244.439h3.046c2.183,0,3.61-1.403,3.61-4.186s-1.427-4.186-3.61-4.186h-3.046v8.371Z" fill="#fff" stroke-width="0"/>
  <polyline points="535.5 168 535.5 210.259 536.5 210.259 536.5 168" fill="#878d96" stroke-width="0"/>
  <polygon points="532.011 209.092 536 216 539.988 209.092 532.011 209.092" fill="#878d96" stroke-width="0"/>
  <polyline points="535.5 264 535.5 306.259 536.5 306.259 536.5 264" fill="#878d96" stroke-width="0"/>
  <polygon points="532.011 305.092 536 312 539.988 305.092 532.011 305.092" fill="#878d96" stroke-width="0"/>
  <polyline points="535.5 648 535.5 690.259 536.5 690.259 536.5 648" fill="#878d96" stroke-width="0"/>
  <polygon points="532.011 689.092 536 696 539.988 689.092 532.011 689.092" fill="#878d96" stroke-width="0"/>
  <polyline points="535.5 744 535.5 786.26 536.5 786.26 536.5 744" fill="#878d96" stroke-width="0"/>
  <polygon points="532.011 785.092 536 792 539.988 785.092 532.011 785.092" fill="#878d96" stroke-width="0"/>
  <polyline points="535.5 840 535.5 882.26 536.5 882.26 536.5 840" fill="#878d96" stroke-width="0"/>
  <polygon points="532.011 881.092 536 888 539.988 881.092 532.011 881.092" fill="#878d96" stroke-width="0"/>
  <path d="M672,240.5h2.259v-1h-2.259v1ZM664,240.5h4v-1h-4v1ZM656,240.5h4v-1h-4v1ZM648,240.5h4v-1h-4v1ZM640,240.5h4v-1h-4v1ZM632,240.5h4v-1h-4v1Z" fill="#878d96" stroke-width="0"/>
  <polygon points="673.092 243.989 680 240 673.092 236.011 673.092 243.989" fill="#878d96" stroke-width="0"/>
  <path d="M552,336.5h96c2.072,0,3.944.839,5.303,2.197,1.358,1.359,2.196,3.231,2.197,5.303v106.259h1v-106.259c0-4.695-3.806-8.5-8.5-8.5h-96v1Z" fill="#878d96" stroke-width="0"/>
  <polygon points="652.011 449.092 656 456 659.988 449.092 652.011 449.092" fill="#878d96" stroke-width="0"/>
  <path d="M520,335.5h-96c-4.695,0-8.5,3.805-8.5,8.5v106.259h1v-106.259c0-2.073.839-3.945,2.197-5.303,1.358-1.358,3.23-2.196,5.303-2.197h96v-1Z" fill="#878d96" stroke-width="0"/>
  <polygon points="412.011 449.092 416 456 419.988 449.092 412.011 449.092" fill="#878d96" stroke-width="0"/>
  <path d="M415.5,504v40c0,4.695,3.805,8.5,8.5,8.5h104c2.072,0,3.944.839,5.303,2.197,1.358,1.359,2.196,3.231,2.197,5.303v34.26h1v-34.26c0-4.695-3.806-8.5-8.5-8.5h-104c-2.073,0-3.945-.839-5.303-2.197-1.358-1.359-2.196-3.231-2.197-5.303v-40h-1Z" fill="#878d96" stroke-width="0"/>
  <polygon points="532.011 593.092 536 600 539.988 593.092 532.011 593.092" fill="#878d96" stroke-width="0"/>
  <path d="M655.501,504v40c0,2.073-.839,3.945-2.197,5.303-1.359,1.358-3.231,2.196-5.303,2.197h-104c-4.695,0-8.5,3.805-8.5,8.5v34.26h1v-34.26c0-2.073.839-3.944,2.197-5.303,1.359-1.358,3.23-2.197,5.303-2.197h104c4.694,0,8.5-3.805,8.5-8.5v-40h-1Z" fill="#878d96" stroke-width="0"/>
  <polygon points="532.012 593.092 536.001 600 539.99 593.092 532.012 593.092" fill="#878d96" stroke-width="0"/>
  <path d="M472.988,624.475v-.956l1.2-1.05c.457-.402.557-1.075.237-1.594l-1.475-2.5c-.223-.386-.635-.625-1.081-.625-.136,0-.271.02-.4.062l-1.519.513c-.262-.174-.536-.331-.818-.469l-.319-1.575c-.118-.594-.645-1.018-1.25-1.006h-2.925c-.605-.012-1.132.412-1.25,1.006l-.318,1.575c-.285.138-.561.294-.825.469l-1.487-.537c-.131-.034-.266-.047-.4-.038-.446,0-.858.239-1.081.625l-1.475,2.5c-.301.517-.193,1.175.256,1.569l1.181,1.081v.956l-1.181,1.05c-.463.398-.571,1.071-.256,1.594l1.475,2.5c.223.386.635.625,1.081.625.136.001.271-.02.4-.062l1.519-.512c.262.174.536.331.819.469l.319,1.575c.118.594.645,1.018,1.25,1.006h2.95c.605.012,1.132-.412,1.25-1.006l.319-1.575c.285-.138.561-.294.825-.469l1.512.512c.129.042.264.064.4.062.446,0,.858-.239,1.082-.625l1.425-2.5c.301-.517.193-1.174-.256-1.569l-1.181-1.081ZM471.87,629l-2.144-.725c-.502.425-1.076.757-1.694.981l-.444,2.244h-2.95l-.443-2.219c-.614-.23-1.184-.562-1.688-.981l-2.15.7-1.475-2.5,1.7-1.5c-.116-.647-.116-1.309,0-1.956l-1.7-1.544,1.475-2.5,2.144.725c.501-.425,1.075-.757,1.694-.981l.443-2.244h2.95l.444,2.219c.613.23,1.184.562,1.688.981l2.15-.7,1.475,2.5-1.7,1.5c.116.647.116,1.309,0,1.956l1.7,1.544-1.475,2.5Z" fill="#fff" stroke-width="0"/>
  <path d="M466.113,627.75c-2.071,0-3.75-1.679-3.75-3.75s1.679-3.75,3.75-3.75,3.75,1.679,3.75,3.75c.021,2.05-1.625,3.729-3.675,3.75h-.075ZM466.113,621.5c-1.349-.031-2.469,1.037-2.5,2.386v.114c-.031,1.349,1.037,2.469,2.386,2.5h.114c1.349.031,2.469-1.037,2.5-2.386v-.114c.031-1.349-1.037-2.469-2.386-2.5h-.114Z" fill="#fff" stroke-width="0"/>
  <rect x="320" y="456" width="192" height="48" fill="#21272a" stroke-width="0"/>
  <polygon points="512 504 512 503.5 320.5 503.5 320.5 456.5 511.5 456.5 511.5 504 512 504 512 503.5 512 504 512.5 504 512.5 455.5 319.5 455.5 319.5 504.5 512.5 504.5 512.5 504 512 504" fill="#878d96" stroke-width="0"/>
  <rect x="320" y="501" width="192" height="3" fill="#878d96" stroke-width="0"/>
  <polygon points="512 501 512 500.5 319.5 500.5 319.5 504.5 512.5 504.5 512.5 500.5 512 500.5 512 501 511.5 501 511.5 503.5 320.5 503.5 320.5 501.5 512 501.5 512 501 511.5 501 512 501" fill="#878d96" stroke-width="0"/>
  <path d="M411.351,477.439h1.104v-1.224h-1.188v-3.813h1.284v-1.224h-1.284v-1.715h-1.379v1.067c0,.432-.144.647-.6.647h-.48v1.224h.923v3.442c0,1.019.564,1.595,1.619,1.595ZM408.291,477.439v-1.224h-.827v-7.651h-1.535v7.364c0,.959.492,1.511,1.535,1.511h.827ZM402.614,477.439h1.535v-6.261h-1.535v4.138c0,.672-.612.996-1.223.996-.732,0-1.056-.468-1.056-1.332v-3.802h-1.535v3.958c0,1.56.72,2.446,2.003,2.446,1.032,0,1.535-.563,1.751-1.187h.06v1.043ZM394.227,476.467c-.6,0-.947-.252-.947-.755v-.204c0-.492.396-.768,1.199-.768h.983v.827c0,.588-.552.899-1.235.899ZM393.712,477.582c.936,0,1.619-.419,1.823-1.223h.072c.096.647.504,1.079,1.164,1.079h.852v-1.224h-.624v-2.95c0-1.427-.899-2.23-2.59-2.23-1.259,0-1.991.479-2.447,1.199l.912.815c.3-.432.708-.792,1.427-.792.815,0,1.163.408,1.163,1.104v.456h-1.067c-1.703,0-2.674.636-2.674,1.919,0,1.115.72,1.847,1.991,1.847ZM388.277,477.439h1.535v-5.049h1.283v-1.212h-1.283v-1.391h1.283v-1.224h-1.091c-1.127,0-1.727.611-1.727,1.715v.899h-.923v1.212h.923v5.049ZM383.776,472.186c.792,0,1.235.588,1.235,1.451v.107h-2.566v-.096c0-.863.527-1.463,1.331-1.463ZM383.799,477.582c1.164,0,2.075-.443,2.591-1.151l-.828-.923c-.384.491-.839.852-1.595.852-1.007,0-1.523-.612-1.523-1.512v-.155h4.162v-.504c0-1.715-.899-3.154-2.854-3.154-1.835,0-2.902,1.283-2.902,3.262,0,2.003,1.104,3.286,2.95,3.286ZM374.68,476.035v-5.564h1.463c1.175,0,1.931.695,1.931,2.122v1.319c0,1.428-.756,2.123-1.931,2.123h-1.463ZM373.097,477.439h3.046c2.183,0,3.61-1.403,3.61-4.186s-1.427-4.186-3.61-4.186h-3.046v8.371Z" fill="#fff" stroke-width="0"/>
  <path d="M430.18,491.439v-4.138c0-.672.611-1.008,1.247-1.008.731,0,1.031.456,1.031,1.344v3.802h1.535v-3.958c0-1.559-.719-2.446-2.002-2.446-.972,0-1.5.516-1.751,1.188h-.06v-1.044h-1.535v6.261h1.535ZM424.371,490.347c-.792,0-1.295-.516-1.295-1.463v-1.163c0-.936.504-1.451,1.295-1.451.804,0,1.307.516,1.307,1.451v1.163c0,.947-.503,1.463-1.307,1.463ZM424.371,491.582c1.799,0,2.915-1.271,2.915-3.286,0-2.003-1.116-3.262-2.915-3.262-1.787,0-2.902,1.259-2.902,3.262,0,2.016,1.115,3.286,2.902,3.286ZM418.576,491.439h1.535v-6.261h-1.535v6.261ZM419.344,484.267c.624,0,.899-.324.899-.768v-.24c0-.443-.276-.768-.899-.768-.636,0-.9.324-.9.768v.24c0,.443.264.768.9.768ZM416.044,491.439h1.104v-1.224h-1.188v-3.813h1.284v-1.224h-1.284v-1.715h-1.379v1.067c0,.432-.144.647-.6.647h-.48v1.224h.923v3.442c0,1.019.564,1.595,1.619,1.595ZM409.491,490.467c-.6,0-.947-.252-.947-.755v-.204c0-.492.396-.768,1.199-.768h.983v.827c0,.588-.552.899-1.235.899ZM408.976,491.582c.936,0,1.619-.419,1.823-1.223h.072c.096.647.504,1.079,1.164,1.079h.852v-1.224h-.624v-2.95c0-1.427-.899-2.23-2.59-2.23-1.259,0-1.991.479-2.447,1.199l.912.815c.3-.432.708-.792,1.427-.792.815,0,1.163.408,1.163,1.104v.456h-1.067c-1.703,0-2.674.636-2.674,1.919,0,1.115.72,1.847,1.991,1.847ZM406.263,491.439v-1.224h-.827v-7.651h-1.535v7.364c0,.959.492,1.511,1.535,1.511h.827ZM402.82,491.439v-1.224h-.827v-7.651h-1.535v7.364c0,.959.492,1.511,1.535,1.511h.827ZM395.812,490.467c-.6,0-.947-.252-.947-.755v-.204c0-.492.396-.768,1.199-.768h.983v.827c0,.588-.552.899-1.235.899ZM395.296,491.582c.936,0,1.619-.419,1.823-1.223h.072c.096.647.504,1.079,1.164,1.079h.852v-1.224h-.624v-2.95c0-1.427-.899-2.23-2.59-2.23-1.259,0-1.991.479-2.447,1.199l.912.815c.3-.432.708-.792,1.427-.792.815,0,1.163.408,1.163,1.104v.456h-1.067c-1.703,0-2.674.636-2.674,1.919,0,1.115.72,1.847,1.991,1.847ZM391.216,491.439h1.104v-1.224h-1.188v-3.813h1.284v-1.224h-1.284v-1.715h-1.379v1.067c0,.432-.144.647-.6.647h-.48v1.224h.923v3.442c0,1.019.564,1.595,1.619,1.595ZM385.42,491.582c1.559,0,2.579-.839,2.579-2.051,0-1.043-.66-1.655-2.027-1.847l-.636-.084c-.588-.096-.815-.288-.815-.708,0-.384.288-.647.947-.647.612,0,1.14.288,1.499.672l.9-.899c-.6-.624-1.224-.983-2.447-.983-1.427,0-2.375.768-2.375,1.979,0,1.14.744,1.728,2.087,1.896l.624.084c.551.071.768.3.768.659,0,.443-.312.72-1.043.72-.708,0-1.259-.324-1.715-.852l-.936.911c.624.72,1.403,1.151,2.591,1.151ZM377.848,491.439v-4.138c0-.672.611-1.008,1.247-1.008.731,0,1.032.456,1.032,1.344v3.802h1.535v-3.958c0-1.559-.72-2.446-2.003-2.446-.972,0-1.5.516-1.751,1.188h-.06v-1.044h-1.535v6.261h1.535ZM373.001,491.439h1.535v-6.261h-1.535v6.261ZM373.769,484.267c.624,0,.899-.324.899-.768v-.24c0-.443-.276-.768-.899-.768-.636,0-.9.324-.9.768v.24c0,.443.264.768.9.768Z" fill="#fff" stroke-width="0"/>
  <path d="M352.363,485v2.5h-12.5v-2.5h-1.25v2.5c0,.69.56,1.25,1.25,1.25h12.5c.69,0,1.25-.56,1.25-1.25v-2.5h-1.25Z" fill="#fff" stroke-width="0"/>
  <polygon points="352.363 478.75 351.482 477.869 346.738 482.606 346.738 471.25 345.488 471.25 345.488 482.606 340.745 477.869 339.863 478.75 346.113 485 352.363 478.75" fill="#fff" stroke-width="0"/>
  <rect x="560" y="456" width="192" height="48" fill="#21272a" stroke-width="0"/>
  <polygon points="752 504 752 503.5 560.5 503.5 560.5 456.5 751.5 456.5 751.5 504 752 504 752 503.5 752 504 752.5 504 752.5 455.5 559.5 455.5 559.5 504.5 752.5 504.5 752.5 504 752 504" fill="#878d96" stroke-width="0"/>
  <rect x="560" y="501" width="192" height="3" fill="#878d96" stroke-width="0"/>
  <polygon points="752 501 752 500.5 559.5 500.5 559.5 504.5 752.5 504.5 752.5 500.5 752 500.5 752 501 751.5 501 751.5 503.5 560.5 503.5 560.5 501.5 752 501.5 752 501 751.5 501 752 501" fill="#878d96" stroke-width="0"/>
  <path d="M672.723,477.439h1.104v-1.224h-1.188v-3.813h1.284v-1.224h-1.284v-1.715h-1.379v1.067c0,.432-.144.647-.6.647h-.48v1.224h.923v3.442c0,1.019.564,1.595,1.619,1.595ZM669.663,477.439v-1.224h-.827v-7.651h-1.535v7.364c0,.959.492,1.511,1.535,1.511h.827ZM663.986,477.439h1.535v-6.261h-1.535v4.138c0,.672-.612.996-1.223.996-.732,0-1.056-.468-1.056-1.332v-3.802h-1.535v3.958c0,1.56.72,2.446,2.003,2.446,1.032,0,1.535-.563,1.751-1.187h.06v1.043ZM655.599,476.467c-.6,0-.947-.252-.947-.755v-.204c0-.492.396-.768,1.199-.768h.983v.827c0,.588-.552.899-1.235.899ZM655.083,477.582c.936,0,1.619-.419,1.823-1.223h.072c.096.647.504,1.079,1.164,1.079h.852v-1.224h-.624v-2.95c0-1.427-.899-2.23-2.59-2.23-1.259,0-1.991.479-2.447,1.199l.912.815c.3-.432.708-.792,1.427-.792.815,0,1.163.408,1.163,1.104v.456h-1.067c-1.703,0-2.674.636-2.674,1.919,0,1.115.72,1.847,1.991,1.847ZM649.648,477.439h1.535v-5.049h1.283v-1.212h-1.283v-1.391h1.283v-1.224h-1.091c-1.127,0-1.727.611-1.727,1.715v.899h-.923v1.212h.923v5.049ZM645.147,472.186c.792,0,1.235.588,1.235,1.451v.107h-2.566v-.096c0-.863.528-1.463,1.331-1.463ZM645.171,477.582c1.164,0,2.075-.443,2.591-1.151l-.828-.923c-.384.491-.839.852-1.595.852-1.007,0-1.523-.612-1.523-1.512v-.155h4.162v-.504c0-1.715-.899-3.154-2.854-3.154-1.835,0-2.902,1.283-2.902,3.262,0,2.003,1.104,3.286,2.95,3.286ZM638.031,476.312c-.792,0-1.331-.576-1.331-1.464v-1.079c0-.888.54-1.476,1.331-1.476.731,0,1.295.396,1.295,1.008v1.991c0,.647-.564,1.02-1.295,1.02ZM639.327,477.439h1.535v-8.875h-1.535v3.646h-.06c-.216-.72-.899-1.175-1.727-1.175-1.571,0-2.447,1.175-2.447,3.262,0,2.1.875,3.286,2.447,3.286.828,0,1.499-.479,1.727-1.187h.06v1.043ZM629.92,477.439v-4.138c0-.672.611-1.008,1.247-1.008.731,0,1.031.456,1.031,1.344v3.802h1.535v-3.958c0-1.559-.719-2.446-2.002-2.446-.972,0-1.5.516-1.751,1.188h-.06v-1.044h-1.535v6.261h1.535ZM624.112,476.347c-.792,0-1.295-.516-1.295-1.463v-1.163c0-.936.504-1.451,1.295-1.451.804,0,1.307.516,1.307,1.451v1.163c0,.947-.503,1.463-1.307,1.463ZM624.112,477.582c1.799,0,2.915-1.271,2.915-3.286,0-2.003-1.116-3.262-2.915-3.262-1.787,0-2.902,1.259-2.902,3.262,0,2.016,1.115,3.286,2.902,3.286ZM618.014,477.439h1.739v-8.371h-1.499v6.032h-.036l-.863-1.739-2.519-4.293h-1.739v8.371h1.499v-6.032h.036l.864,1.738,2.519,4.294Z" fill="#fff" stroke-width="0"/>
  <path d="M670.18,491.439v-4.138c0-.672.611-1.008,1.247-1.008.731,0,1.031.456,1.031,1.344v3.802h1.535v-3.958c0-1.559-.719-2.446-2.002-2.446-.972,0-1.5.516-1.751,1.188h-.06v-1.044h-1.535v6.261h1.535ZM664.371,490.347c-.792,0-1.295-.516-1.295-1.463v-1.163c0-.936.504-1.451,1.295-1.451.804,0,1.307.516,1.307,1.451v1.163c0,.947-.503,1.463-1.307,1.463ZM664.371,491.582c1.799,0,2.915-1.271,2.915-3.286,0-2.003-1.116-3.262-2.915-3.262-1.787,0-2.902,1.259-2.902,3.262,0,2.016,1.115,3.286,2.902,3.286ZM658.576,491.439h1.535v-6.261h-1.535v6.261ZM659.344,484.267c.624,0,.899-.324.899-.768v-.24c0-.443-.276-.768-.899-.768-.636,0-.9.324-.9.768v.24c0,.443.264.768.9.768ZM656.044,491.439h1.104v-1.224h-1.188v-3.813h1.284v-1.224h-1.284v-1.715h-1.379v1.067c0,.432-.144.647-.6.647h-.48v1.224h.923v3.442c0,1.019.564,1.595,1.619,1.595ZM649.491,490.467c-.6,0-.947-.252-.947-.755v-.204c0-.492.396-.768,1.199-.768h.983v.827c0,.588-.552.899-1.235.899ZM648.976,491.582c.936,0,1.619-.419,1.823-1.223h.072c.096.647.504,1.079,1.164,1.079h.852v-1.224h-.624v-2.95c0-1.427-.899-2.23-2.59-2.23-1.259,0-1.991.479-2.447,1.199l.912.815c.3-.432.708-.792,1.427-.792.815,0,1.163.408,1.163,1.104v.456h-1.067c-1.703,0-2.674.636-2.674,1.919,0,1.115.72,1.847,1.991,1.847ZM646.263,491.439v-1.224h-.827v-7.651h-1.535v7.364c0,.959.492,1.511,1.535,1.511h.827ZM642.82,491.439v-1.224h-.827v-7.651h-1.535v7.364c0,.959.492,1.511,1.535,1.511h.827ZM635.812,490.467c-.6,0-.947-.252-.947-.755v-.204c0-.492.396-.768,1.199-.768h.983v.827c0,.588-.552.899-1.235.899ZM635.296,491.582c.936,0,1.619-.419,1.823-1.223h.072c.096.647.504,1.079,1.164,1.079h.852v-1.224h-.624v-2.95c0-1.427-.899-2.23-2.59-2.23-1.259,0-1.991.479-2.447,1.199l.912.815c.3-.432.708-.792,1.427-.792.815,0,1.163.408,1.163,1.104v.456h-1.067c-1.703,0-2.674.636-2.674,1.919,0,1.115.72,1.847,1.991,1.847ZM631.216,491.439h1.104v-1.224h-1.188v-3.813h1.284v-1.224h-1.284v-1.715h-1.379v1.067c0,.432-.144.647-.6.647h-.48v1.224h.923v3.442c0,1.019.564,1.595,1.619,1.595ZM625.42,491.582c1.559,0,2.579-.839,2.579-2.051,0-1.043-.66-1.655-2.027-1.847l-.636-.084c-.588-.096-.815-.288-.815-.708,0-.384.288-.647.947-.647.612,0,1.14.288,1.499.672l.9-.899c-.6-.624-1.224-.983-2.447-.983-1.427,0-2.375.768-2.375,1.979,0,1.14.744,1.728,2.087,1.896l.624.084c.551.071.768.3.768.659,0,.443-.312.72-1.043.72-.708,0-1.259-.324-1.715-.852l-.936.911c.624.72,1.403,1.151,2.591,1.151ZM617.848,491.439v-4.138c0-.672.611-1.008,1.247-1.008.731,0,1.032.456,1.032,1.344v3.802h1.535v-3.958c0-1.559-.72-2.446-2.003-2.446-.972,0-1.5.516-1.751,1.188h-.06v-1.044h-1.535v6.261h1.535ZM613.001,491.439h1.535v-6.261h-1.535v6.261ZM613.769,484.267c.624,0,.899-.324.899-.768v-.24c0-.443-.276-.768-.899-.768-.636,0-.9.324-.9.768v.24c0,.443.264.768.9.768Z" fill="#fff" stroke-width="0"/>
  <path d="M592.363,485v2.5h-12.5v-2.5h-1.25v2.5c0,.69.56,1.25,1.25,1.25h12.5c.69,0,1.25-.56,1.25-1.25v-2.5h-1.25Z" fill="#fff" stroke-width="0"/>
  <polygon points="592.363 478.75 591.482 477.869 586.738 482.606 586.738 471.25 585.488 471.25 585.488 482.606 580.745 477.869 579.863 478.75 586.113 485 592.363 478.75" fill="#fff" stroke-width="0"/>
  <polygon points="464.863 723.384 461.738 720.258 462.622 719.375 464.863 721.616 469.604 716.875 470.488 717.759 464.863 723.384" fill="#fff" stroke-width="0"/>
  <path d="M466.113,711.25c-4.833,0-8.75,3.918-8.75,8.75s3.917,8.75,8.75,8.75,8.75-3.917,8.75-8.75-3.917-8.75-8.75-8.75ZM466.113,727.5c-4.142,0-7.5-3.358-7.5-7.5s3.358-7.5,7.5-7.5,7.5,3.358,7.5,7.5-3.358,7.5-7.5,7.5Z" fill="#fff" stroke-width="0"/>
  <path d="M463.676,807.25c-1.199-.004-2.372.344-3.375,1l4,4c.551.471.617,1.299.146,1.85l-.021.025c-.54.484-1.369.439-1.854-.1l-.021-.025-4.125-4c-.713,1.05-1.084,2.294-1.062,3.562.014,3.481,2.832,6.299,6.312,6.312.547.003,1.093-.06,1.625-.188l4.188,4.188c1.226,1.225,3.212,1.225,4.438,0,1.226-1.225,1.226-3.212,0-4.438l-4.188-4.188c.127-.532.19-1.078.188-1.625.069-3.451-2.672-6.305-6.124-6.374h-.126ZM468.676,813.562c0,.444-.064.886-.188,1.312l-.188.688.5.5,4.188,4.188c.36.341.564.816.562,1.312.014.499-.191.979-.562,1.312-.69.725-1.837.753-2.562.062l-.062-.062-4.188-4.188-.5-.5-.688.188c-.427.124-.868.187-1.312.188-1.328-.004-2.604-.518-3.562-1.438-.98-.922-1.525-2.216-1.5-3.562,0-.465.064-.927.188-1.375l2.75,2.75c.967,1.052,2.604,1.121,3.656.154l.031-.029c.984-1.036.942-2.674-.093-3.658l-.032-.029-2.75-2.75c.404-.128.826-.191,1.25-.188,1.328.004,2.604.519,3.562,1.438.959.988,1.498,2.31,1.5,3.688Z" fill="#fff" stroke-width="0"/>
  <rect x="519.088" y="318.968" width="33.824" height="33.824" rx="2" ry="2" transform="translate(-80.513 477.384) rotate(-45)" fill="#be95ff" stroke-width="0"/>
  <path d="M534.586,358.383l.354-.354-21.089-21.089c-.294-.294-.438-.675-.439-1.061,0-.385.146-.767.439-1.061l21.089-21.089c.294-.294.675-.439,1.061-.439.385,0,.766.146,1.061.439l21.089,21.089c.294.294.439.675.439,1.061,0,.385-.146.766-.439,1.061l-21.089,21.089c-.294.294-.675.439-1.061.439-.385,0-.766-.146-1.061-.439l-.354.354-.354.354c.487.487,1.129.733,1.768.732.639,0,1.281-.245,1.768-.732l21.089-21.089c.487-.487.733-1.13.732-1.768,0-.638-.245-1.281-.732-1.768l-21.089-21.089c-.487-.487-1.129-.733-1.768-.732-.638,0-1.281.245-1.768.732l-21.089,21.089c-.487.487-.732,1.13-.732,1.768,0,.638.245,1.281.732,1.768l21.089,21.089.354-.354Z" fill="#be95ff" stroke-width="0"/>
  <path d="M583.566,378.359h1.289v-1.429h-1.387v-4.454h1.499v-1.429h-1.499v-2.004h-1.611v1.247c0,.504-.168.757-.7.757h-.561v1.429h1.079v4.02c0,1.191.658,1.863,1.891,1.863ZM579.996,378.359v-1.429h-.966v-8.937h-1.793v8.601c0,1.12.574,1.765,1.793,1.765h.966ZM573.375,378.359h1.793v-7.312h-1.793v4.832c0,.784-.714,1.163-1.429,1.163-.854,0-1.232-.547-1.232-1.555v-4.44h-1.793v4.622c0,1.821.84,2.857,2.339,2.857,1.205,0,1.793-.658,2.045-1.387h.07v1.219ZM563.589,377.224c-.7,0-1.106-.294-1.106-.883v-.237c0-.574.462-.896,1.401-.896h1.148v.966c0,.687-.645,1.051-1.443,1.051ZM562.987,378.527c1.092,0,1.891-.49,2.129-1.429h.084c.112.757.588,1.261,1.359,1.261h.995v-1.429h-.729v-3.446c0-1.667-1.051-2.605-3.026-2.605-1.471,0-2.325.561-2.857,1.401l1.064.952c.351-.504.827-.924,1.667-.924.953,0,1.359.476,1.359,1.288v.532h-1.247c-1.989,0-3.124.742-3.124,2.241,0,1.303.841,2.157,2.326,2.157ZM556.644,378.359h1.793v-5.897h1.499v-1.414h-1.499v-1.625h1.499v-1.429h-1.274c-1.317,0-2.017.714-2.017,2.003v1.051h-1.079v1.414h1.079v5.897ZM551.395,372.223c.924,0,1.442.687,1.442,1.695v.126h-2.998v-.112c0-1.008.617-1.709,1.555-1.709ZM551.423,378.527c1.359,0,2.423-.519,3.025-1.345l-.966-1.078c-.448.574-.98.994-1.863.994-1.177,0-1.779-.714-1.779-1.765v-.183h4.861v-.588c0-2.003-1.051-3.685-3.334-3.685-2.143,0-3.39,1.499-3.39,3.811,0,2.339,1.289,3.838,3.446,3.838ZM543.093,377.042c-.924,0-1.555-.673-1.555-1.709v-1.261c0-1.037.63-1.723,1.555-1.723.854,0,1.513.462,1.513,1.176v2.325c0,.757-.659,1.191-1.513,1.191ZM544.606,378.359h1.793v-10.365h-1.793v4.258h-.07c-.252-.84-1.05-1.373-2.017-1.373-1.835,0-2.857,1.373-2.857,3.811,0,2.451,1.022,3.838,2.857,3.838.967,0,1.751-.561,2.017-1.387h.07v1.219ZM533.629,378.359v-4.833c0-.784.714-1.176,1.457-1.176.854,0,1.205.532,1.205,1.568v4.44h1.793v-4.622c0-1.821-.84-2.858-2.339-2.858-1.135,0-1.751.603-2.045,1.387h-.07v-1.218h-1.793v7.312h1.793ZM526.853,377.084c-.924,0-1.513-.603-1.513-1.709v-1.359c0-1.092.588-1.694,1.513-1.694.938,0,1.527.603,1.527,1.694v1.359c0,1.106-.588,1.709-1.527,1.709ZM526.853,378.527c2.101,0,3.404-1.484,3.404-3.838,0-2.339-1.303-3.811-3.404-3.811-2.087,0-3.39,1.472-3.39,3.811,0,2.354,1.303,3.838,3.39,3.838ZM517.515,378.359v-4.833c0-.784.714-1.176,1.457-1.176.854,0,1.205.532,1.205,1.568v4.44h1.793v-4.622c0-1.821-.841-2.858-2.339-2.858-1.135,0-1.751.603-2.045,1.387h-.07v-1.218h-1.793v7.312h1.793ZM508.29,374.912l-.504,1.85h-.084l-.476-1.85-1.274-3.865h-1.779l2.62,7.662-.336,1.022h-1.316v1.429h1.079c1.205,0,1.723-.448,2.087-1.499l2.941-8.614h-1.681l-1.275,3.865ZM498.755,378.359v-4.833c0-.784.714-1.176,1.457-1.176.854,0,1.205.532,1.205,1.568v4.44h1.793v-4.622c0-1.821-.841-2.858-2.339-2.858-1.135,0-1.751.603-2.045,1.387h-.07v-1.218h-1.793v7.312h1.793ZM492.485,374.283h-2.578l1.247-4.021h.07l1.261,4.021ZM495.636,378.359l-3.25-9.777h-2.297l-3.278,9.777h1.877l.77-2.493h3.474l.784,2.493h1.919Z" fill="#fff" stroke-width="0"/>
  <path d="M567.171,396.359v-4.833c0-.784.714-1.176,1.457-1.176.854,0,1.205.532,1.205,1.568v4.44h1.793v-4.622c0-1.821-.841-2.858-2.339-2.858-1.135,0-1.751.603-2.045,1.387h-.07v-1.218h-1.793v7.312h1.793ZM560.396,395.084c-.924,0-1.513-.603-1.513-1.709v-1.359c0-1.092.588-1.694,1.513-1.694.938,0,1.527.603,1.527,1.694v1.359c0,1.106-.588,1.709-1.527,1.709ZM560.396,396.527c2.101,0,3.404-1.484,3.404-3.838,0-2.339-1.303-3.811-3.404-3.811-2.087,0-3.39,1.472-3.39,3.811,0,2.354,1.303,3.838,3.39,3.838ZM553.633,396.359h1.793v-7.312h-1.793v7.312ZM554.529,387.982c.729,0,1.05-.378,1.05-.896v-.279c0-.519-.322-.896-1.05-.896-.743,0-1.051.378-1.051.896v.279c0,.519.308.896,1.051.896ZM550.68,396.359h1.289v-1.429h-1.387v-4.454h1.499v-1.429h-1.499v-2.004h-1.611v1.247c0,.504-.168.757-.7.757h-.561v1.429h1.079v4.02c0,1.191.658,1.863,1.891,1.863ZM543.036,395.224c-.7,0-1.106-.294-1.106-.883v-.237c0-.574.462-.896,1.401-.896h1.148v.966c0,.687-.645,1.051-1.443,1.051ZM542.434,396.527c1.092,0,1.891-.49,2.129-1.429h.084c.112.757.588,1.261,1.359,1.261h.995v-1.429h-.729v-3.446c0-1.667-1.051-2.605-3.026-2.605-1.471,0-2.325.561-2.857,1.401l1.064.952c.351-.504.827-.924,1.667-.924.953,0,1.359.476,1.359,1.288v.532h-1.247c-1.989,0-3.124.742-3.124,2.241,0,1.303.841,2.157,2.326,2.157ZM539.27,396.359v-1.429h-.966v-8.937h-1.793v8.601c0,1.12.574,1.765,1.793,1.765h.966ZM535.253,396.359v-1.429h-.966v-8.937h-1.793v8.601c0,1.12.574,1.765,1.793,1.765h.966ZM527.077,395.224c-.7,0-1.106-.294-1.106-.883v-.237c0-.574.462-.896,1.401-.896h1.148v.966c0,.687-.645,1.051-1.443,1.051ZM526.475,396.527c1.092,0,1.891-.49,2.129-1.429h.084c.112.757.588,1.261,1.359,1.261h.995v-1.429h-.729v-3.446c0-1.667-1.051-2.605-3.026-2.605-1.471,0-2.325.561-2.857,1.401l1.064.952c.351-.504.827-.924,1.667-.924.953,0,1.359.476,1.359,1.288v.532h-1.247c-1.989,0-3.124.742-3.124,2.241,0,1.303.841,2.157,2.326,2.157ZM521.715,396.359h1.289v-1.429h-1.387v-4.454h1.499v-1.429h-1.499v-2.004h-1.611v1.247c0,.504-.168.757-.7.757h-.561v1.429h1.079v4.02c0,1.191.658,1.863,1.891,1.863ZM514.953,396.527c1.821,0,3.012-.98,3.012-2.396,0-1.219-.771-1.933-2.367-2.157l-.742-.098c-.687-.112-.953-.336-.953-.826,0-.448.336-.757,1.106-.757.714,0,1.331.336,1.751.784l1.051-1.05c-.701-.729-1.429-1.149-2.858-1.149-1.667,0-2.773.896-2.773,2.312,0,1.331.869,2.018,2.438,2.213l.729.099c.644.084.896.35.896.771,0,.519-.364.84-1.219.84-.827,0-1.471-.378-2.003-.994l-1.093,1.064c.729.841,1.639,1.345,3.025,1.345ZM506.119,396.359v-4.833c0-.784.714-1.176,1.457-1.176.854,0,1.205.532,1.205,1.568v4.44h1.793v-4.622c0-1.821-.84-2.858-2.339-2.858-1.135,0-1.751.603-2.045,1.387h-.07v-1.218h-1.793v7.312h1.793ZM500.462,396.359h1.793v-7.312h-1.793v7.312ZM501.359,387.982c.729,0,1.05-.378,1.05-.896v-.279c0-.519-.322-.896-1.05-.896-.743,0-1.051.378-1.051.896v.279c0,.519.308.896,1.051.896Z" fill="#fff" stroke-width="0"/>
  <path d="M580.457,414.527c.799,0,1.135-.42,1.135-.994v-.28c0-.574-.336-.995-1.135-.995-.784,0-1.121.421-1.121.995v.28c0,.574.336.994,1.121.994ZM581.298,411.193v-1.148c1.289-.224,2.479-1.177,2.479-2.815,0-1.681-1.232-2.815-3.124-2.815-1.863,0-2.802,1.106-3.124,2.255l1.499.616c.196-.77.729-1.33,1.555-1.33.77,0,1.289.448,1.289,1.232v.196c0,1.078-.798,1.568-2.283,1.625v2.185h1.709ZM575.375,414.359h1.289v-1.429h-1.387v-4.454h1.499v-1.429h-1.499v-2.004h-1.611v1.247c0,.504-.168.757-.7.757h-.561v1.429h1.079v4.02c0,1.191.658,1.863,1.891,1.863ZM568.208,408.223c.924,0,1.442.687,1.442,1.695v.126h-2.998v-.112c0-1.008.617-1.709,1.555-1.709ZM568.236,414.527c1.359,0,2.423-.519,3.025-1.345l-.966-1.078c-.448.574-.98.994-1.863.994-1.177,0-1.779-.714-1.779-1.765v-.183h4.861v-.588c0-2.003-1.051-3.685-3.334-3.685-2.143,0-3.39,1.499-3.39,3.811,0,2.339,1.289,3.838,3.446,3.838ZM554.641,414.359v-4.833c0-.784.672-1.176,1.359-1.176.798,0,1.176.518,1.176,1.568v4.44h1.793v-4.833c0-.784.659-1.176,1.359-1.176.798,0,1.177.518,1.177,1.568v4.44h1.793v-4.622c0-1.821-.812-2.858-2.241-2.858-1.163,0-1.975.659-2.241,1.472h-.028c-.35-.981-1.121-1.472-2.115-1.472-1.093,0-1.681.617-1.961,1.387h-.07v-1.218h-1.793v7.312h1.793ZM543.106,414.359v-4.833c0-.784.714-1.176,1.457-1.176.854,0,1.205.532,1.205,1.568v4.44h1.793v-4.622c0-1.821-.841-2.858-2.339-2.858-1.135,0-1.751.603-2.045,1.387h-.07v-1.218h-1.793v7.312h1.793ZM536.33,413.084c-.924,0-1.513-.603-1.513-1.709v-1.359c0-1.092.588-1.694,1.513-1.694.938,0,1.527.603,1.527,1.694v1.359c0,1.106-.588,1.709-1.527,1.709ZM536.33,414.527c2.101,0,3.404-1.484,3.404-3.838,0-2.339-1.303-3.811-3.404-3.811-2.087,0-3.39,1.472-3.39,3.811,0,2.354,1.303,3.838,3.39,3.838ZM529.567,414.359h1.793v-7.312h-1.793v7.312ZM530.464,405.982c.729,0,1.05-.378,1.05-.896v-.279c0-.519-.322-.896-1.05-.896-.743,0-1.051.378-1.051.896v.279c0,.519.308.896,1.051.896ZM526.614,414.359h1.289v-1.429h-1.387v-4.454h1.499v-1.429h-1.499v-2.004h-1.611v1.247c0,.504-.168.757-.7.757h-.561v1.429h1.079v4.02c0,1.191.658,1.863,1.891,1.863ZM520.467,414.359h1.793v-7.312h-1.793v7.312ZM521.364,405.982c.729,0,1.05-.378,1.05-.896v-.279c0-.519-.322-.896-1.05-.896-.743,0-1.051.378-1.051.896v.279c0,.519.308.896,1.051.896ZM515.093,413.042c-.924,0-1.555-.673-1.555-1.709v-1.261c0-1.037.63-1.723,1.555-1.723.854,0,1.513.462,1.513,1.176v2.325c0,.757-.659,1.191-1.513,1.191ZM516.606,414.359h1.793v-10.365h-1.793v4.258h-.07c-.252-.84-1.05-1.373-2.017-1.373-1.835,0-2.857,1.373-2.857,3.811,0,2.451,1.022,3.838,2.857,3.838.967,0,1.751-.561,2.017-1.387h.07v1.219ZM505.629,414.359v-4.833c0-.784.714-1.176,1.457-1.176.854,0,1.205.532,1.205,1.568v4.44h1.793v-4.622c0-1.821-.84-2.858-2.339-2.858-1.135,0-1.751.603-2.045,1.387h-.07v-1.218h-1.793v7.312h1.793ZM498.853,413.084c-.924,0-1.513-.603-1.513-1.709v-1.359c0-1.092.588-1.694,1.513-1.694.938,0,1.527.603,1.527,1.694v1.359c0,1.106-.588,1.709-1.527,1.709ZM498.853,414.527c2.101,0,3.404-1.484,3.404-3.838,0-2.339-1.303-3.811-3.404-3.811-2.087,0-3.39,1.472-3.39,3.811,0,2.354,1.303,3.838,3.39,3.838ZM491.727,414.527c1.415,0,2.438-.645,2.914-1.933l-1.373-.658c-.266.658-.687,1.148-1.541,1.148-.994,0-1.499-.687-1.499-1.709v-1.331c0-1.022.504-1.723,1.499-1.723.771,0,1.233.448,1.401,1.064l1.471-.658c-.434-1.148-1.4-1.85-2.872-1.85-2.157,0-3.375,1.472-3.375,3.811,0,2.354,1.219,3.838,3.375,3.838Z" fill="#fff" stroke-width="0"/>
  <path d="M536,327.13c-4.833,0-8.75,3.917-8.75,8.75s3.917,8.75,8.75,8.75,8.75-3.917,8.75-8.75-3.917-8.75-8.75-8.75ZM536,343.38c-4.142,0-7.5-3.358-7.5-7.5s3.358-7.5,7.5-7.5,7.5,3.358,7.5,7.5-3.358,7.5-7.5,7.5Z" fill="#000" stroke-width="0"/>
  <circle cx="536" cy="340.568" r=".938" fill="#000" stroke-width="0"/>
  <path d="M536.625,330.88h-.938c-1.55-.003-2.809,1.25-2.812,2.8v.325h1.25v-.312c0-.863.699-1.562,1.562-1.562h.938c.863,0,1.562.7,1.562,1.562s-.7,1.562-1.562,1.562h-1.25v2.812h1.25v-1.562c1.553,0,2.812-1.259,2.812-2.812s-1.259-2.812-2.812-2.812Z" fill="#000" stroke-width="0"/>
  <path d="M472,344h-16c-4.418,0-8-3.582-8-8s3.582-8,8-8h16c4.418,0,8,3.582,8,8s-3.582,8-8,8Z" fill="#121619" stroke-width="0"/>
  <path d="M472,344v-.5h-16c-2.073,0-3.944-.839-5.303-2.197-1.358-1.359-2.196-3.231-2.197-5.303,0-2.073.839-3.944,2.197-5.303,1.359-1.358,3.23-2.197,5.303-2.197h16c2.072,0,3.944.839,5.303,2.197,1.358,1.359,2.196,3.231,2.197,5.303,0,2.073-.839,3.944-2.197,5.303-1.359,1.358-3.231,2.196-5.303,2.197v1c4.694,0,8.5-3.805,8.5-8.5,0-4.695-3.806-8.5-8.5-8.5h-16c-4.695,0-8.5,3.805-8.5,8.5,0,4.695,3.805,8.5,8.5,8.5h16v-.5Z" fill="#878d96" stroke-width="0"/>
  <path d="M468.24,339.733c-1.031,0-1.764-.636-1.764-1.943v-.887c0-1.307.732-1.943,1.764-1.943s1.763.636,1.763,1.943v.887c0,1.307-.731,1.943-1.763,1.943ZM468.24,340.584c1.655,0,2.794-1.271,2.794-3.238s-1.139-3.238-2.794-3.238-2.795,1.271-2.795,3.238,1.14,3.238,2.795,3.238ZM462.599,340.44h1.164v-8.371h-.983v6.968h-.036l-1.008-1.859-3.059-5.109h-1.163v8.371h.983v-6.968h.036l1.008,1.859,3.058,5.109Z" fill="#fff" stroke-width="0"/>
  <path d="M616,344h-16c-4.418,0-8-3.582-8-8s3.582-8,8-8h16c4.418,0,8,3.582,8,8s-3.582,8-8,8Z" fill="#121619" stroke-width="0"/>
  <path d="M616,344v-.5h-16c-2.073,0-3.944-.839-5.303-2.197-1.358-1.359-2.196-3.231-2.197-5.303,0-2.073.839-3.944,2.197-5.303,1.359-1.358,3.23-2.197,5.303-2.197h16c2.072,0,3.944.839,5.303,2.197,1.358,1.359,2.196,3.231,2.197,5.303,0,2.073-.839,3.944-2.197,5.303-1.359,1.358-3.231,2.196-5.303,2.197v1c4.694,0,8.5-3.805,8.5-8.5,0-4.695-3.806-8.5-8.5-8.5h-16c-4.695,0-8.5,3.805-8.5,8.5,0,4.695,3.805,8.5,8.5,8.5h16v-.5Z" fill="#878d96" stroke-width="0"/>
  <path d="M614.51,340.584c1.415,0,2.29-.732,2.29-1.931,0-.935-.527-1.535-1.895-1.739l-.479-.072c-.768-.12-1.188-.36-1.188-.959,0-.588.42-.959,1.211-.959s1.319.372,1.596.756l.635-.576c-.503-.624-1.163-.995-2.158-.995-1.26,0-2.207.6-2.207,1.823,0,1.151.852,1.619,1.991,1.787l.491.072c.815.12,1.08.492,1.08.971,0,.636-.48,1.008-1.296,1.008-.779,0-1.355-.348-1.835-.948l-.684.552c.552.731,1.308,1.211,2.447,1.211ZM608.389,334.911c.984,0,1.644.732,1.644,1.823v.132h-3.418v-.084c0-1.079.731-1.871,1.774-1.871ZM608.389,340.584c1.164,0,2.052-.576,2.447-1.415l-.684-.492c-.324.684-.924,1.067-1.703,1.067-1.151,0-1.835-.804-1.835-1.871v-.288h4.449v-.456c0-1.751-1.02-3.022-2.675-3.022-1.679,0-2.782,1.271-2.782,3.238s1.104,3.238,2.782,3.238ZM602.569,340.44v-3.346l2.914-5.025h-1.151l-2.23,4.03h-.036l-2.23-4.03h-1.151l2.878,5.061v3.31h1.008Z" fill="#fff" stroke-width="0"/>
  <path d="M712.363,248.75h-12.5c-.69,0-1.25-.56-1.25-1.25v-7.5c0-.69.56-1.25,1.25-1.25h1.875v1.25h-1.875v7.5h12.5v-7.5h-1.875v-1.25h1.875c.69,0,1.25.56,1.25,1.25v7.5c0,.69-.56,1.25-1.25,1.25Z" fill="#fff" stroke-width="0"/>
  <rect x="704.238" y="242.5" width="3.75" height="1.25" fill="#fff" stroke-width="0"/>
  <polygon points="708.982 235.369 706.738 237.606 706.738 231.25 705.488 231.25 705.488 237.606 703.245 235.369 702.363 236.25 706.113 240 709.863 236.25 708.982 235.369" fill="#fff" stroke-width="0"/>
</svg>