<?xml version="1.0" encoding="UTF-8"?>
<svg id="uuid-a9938526-ebc5-495a-b819-cb9e16e0ef1c" data-name="grid" xmlns="http://www.w3.org/2000/svg" viewBox="0 0 1080 1080">
  <rect x="-48" y="-48" width="1192" height="1208" fill="#fff" stroke-width="0"/>
  <path d="M603.273,443.592c38.981,0,65.954,1.5,86.261,3.746,30.462,3.37,45.926,8.412,64.569,12.642,18.642,4.23,40.386,7.614,83.17,7.612.414,0,.75-.336.75-.75s-.336-.75-.75-.75c-28.475,0-47.559-1.499-62.608-3.742-22.565-3.362-36.119-8.418-58.719-12.652-22.593-4.229-54.147-7.606-112.673-7.606-.414,0-.75.336-.75.75s.336.75.75.75Z" fill="#c6c6c6" stroke-width="0"/>
  <path d="M603.273,443.592c39.056,0,66.141-4.506,86.58-11.288,30.663-10.173,46.318-25.463,64.838-38.061,9.265-6.304,19.25-11.954,32.248-16.042,12.998-4.086,29.018-6.609,50.334-6.61.414,0,.75-.336.75-.75s-.336-.75-.75-.75c-28.576-.001-47.826,4.517-63.025,11.315-11.398,5.097-20.503,11.465-29.551,18.115-13.576,9.98-27.023,20.591-48.025,28.738-21.001,8.145-49.588,13.831-93.4,13.832-.414,0-.75.336-.75.75s.336.75.75.75Z" fill="#c6c6c6" stroke-width="0"/>
  <path d="M603.273,443.592c39.019,0,66.046-1.5,86.426-3.754,30.57-3.38,46.183-8.463,64.736-12.67,18.553-4.208,40.121-7.574,82.838-7.575.414,0,.75-.336.75-.75s-.336-.75-.75-.75c-28.525,0-47.691,1.501-62.829,3.758-22.716,3.388-36.303,8.457-58.773,12.661-22.478,4.208-53.923,7.581-112.397,7.581-.414,0-.75.336-.75.75s.336.75.75.75Z" fill="#c6c6c6" stroke-width="0"/>
  <path d="M603.273,443.592c38.944,0,65.859,4.498,86.107,11.223,30.368,10.087,45.791,25.187,64.466,37.915,9.333,6.358,19.475,12.105,32.642,16.248,13.167,4.144,29.351,6.686,50.784,6.686.414,0,.75-.336.75-.75s-.336-.75-.75-.75c-28.424-.001-47.424-4.488-62.412-11.196-11.242-5.033-20.243-11.327-29.274-17.972-13.543-9.964-27.155-20.721-48.371-28.956-21.216-8.237-50.005-13.947-93.943-13.947-.414,0-.75.336-.75.75s.336.75.75.75Z" fill="#525252" stroke-width="0"/>
  <path d="M255.273,539.663c39.152.008,66.377-12.072,86.842-30.188,30.696-27.173,46.246-67.771,64.826-101.449,9.284-16.844,19.314-31.95,32.288-42.819,12.978-10.866,28.878-17.537,50.107-17.543.414,0,.75-.336.75-.75s-.336-.75-.75-.75c-14.362-.001-26.406,3.026-36.75,8.333-18.108,9.29-30.966,25.502-42.221,44.5-16.878,28.506-30.213,63.351-52.05,91.003-10.917,13.828-23.944,25.857-40.598,34.439-16.656,8.581-36.95,13.724-62.444,13.725-.414,0-.75.336-.75.75s.336.75.75.75Z" fill="#c6c6c6" stroke-width="0"/>
  <path d="M255.273,539.663c39.112.003,66.286-9.036,86.76-22.625,30.71-20.388,46.295-50.885,64.856-76.118,9.279-12.624,19.287-23.932,32.258-32.083,12.973-8.149,28.919-13.171,50.189-13.174.414,0,.75-.336.75-.75s-.336-.75-.75-.75c-28.672-.01-48.047,9.083-63.255,22.691-11.41,10.201-20.498,22.91-29.548,36.208-13.573,19.951-27.065,41.223-48.047,57.494-20.982,16.268-49.463,27.602-93.213,27.607-.414,0-.75.336-.75.75s.336.75.75.75Z" fill="#c6c6c6" stroke-width="0"/>
  <path d="M255.273,539.663c39.038,0,66.093-3.002,86.507-7.518,30.622-6.771,46.279-16.96,64.814-25.362,18.538-8.4,40.037-15.114,82.742-15.121.414,0,.75-.336.75-.75s-.336-.75-.75-.75c-28.566,0-47.786,3.007-62.969,7.531-11.387,3.393-20.493,7.635-29.544,12.069-13.581,6.652-27.034,13.73-48.065,19.169-21.03,5.438-49.652,9.231-93.485,9.231-.414,0-.75.336-.75.75s.336.75.75.75Z" fill="#c6c6c6" stroke-width="0"/>
  <path d="M255.273,539.663c38.848.008,65.623,11.928,85.848,29.812,30.339,26.827,45.874,67.229,64.507,101.051,9.323,16.906,19.432,32.175,32.638,43.244,13.202,11.071,29.525,17.9,51.07,17.894.414,0,.75-.336.75-.75s-.336-.75-.75-.75c-14.153-.001-25.936-2.974-36.065-8.167-17.72-9.085-30.42-25.029-41.615-43.93-16.797-28.342-30.144-63.265-52.163-91.168-11.011-13.95-24.206-26.145-41.089-34.843-16.881-8.7-37.438-13.893-63.131-13.892-.414,0-.75.336-.75.75s.336.75.75.75Z" fill="#c6c6c6" stroke-width="0"/>
  <path d="M255.273,539.663c38.888.003,65.714,8.964,85.93,22.375,30.324,20.112,45.825,50.365,64.477,75.757,9.328,12.689,19.459,24.162,32.668,32.464,13.208,8.304,29.484,13.407,50.988,13.404.414,0,.75-.336.75-.75s-.336-.75-.75-.75c-28.359-.01-47.259-8.917-62.255-22.309-11.244-10.049-20.271-22.652-29.308-35.933-13.557-19.916-27.13-41.359-48.368-57.836-21.238-16.48-50.132-27.928-94.132-27.922-.414,0-.75.336-.75.75s.336.75.75.75Z" fill="#c6c6c6" stroke-width="0"/>
  <path d="M255.273,539.663c38.925,0,65.811,5.987,86.041,14.936,30.341,13.42,45.79,33.546,64.467,50.495,9.335,8.467,19.484,16.125,32.677,21.652,13.193,5.528,29.414,8.918,50.878,8.917.414,0,.75-.336.75-.75s-.336-.75-.75-.75c-28.415-.004-47.384-5.967-62.371-14.894-11.241-6.698-20.252-15.086-29.287-23.938-13.55-13.273-27.155-27.594-48.388-38.574-21.234-10.981-50.059-18.595-94.017-18.594-.414,0-.75.336-.75.75s.336.75.75.75Z" fill="#c6c6c6" stroke-width="0"/>
  <path d="M255.273,539.663c38.962,0,65.907,2.998,86.183,7.482,30.412,6.729,45.84,16.79,64.519,25.263,18.676,8.475,40.519,15.261,83.361,15.254.414,0,.75-.336.75-.75s-.336-.75-.75-.75c-28.465,0-47.52-2.993-62.541-7.469-11.267-3.357-20.277-7.552-29.312-11.978-13.549-6.637-27.161-13.797-48.35-19.274-21.189-5.479-49.943-9.279-93.86-9.279-.414,0-.75.336-.75.75s.336.75.75.75Z" fill="#c6c6c6" stroke-width="0"/>
  <path d="M255.273,539.663h234.063c.414,0,.75-.336.75-.75s-.336-.75-.75-.75h-234.063c-.414,0-.75.336-.75.75s.336.75.75.75Z" fill="#c6c6c6" stroke-width="0"/>
  <path d="M255.273,539.663c39.075,0,66.189-6.013,86.648-15.064,30.693-13.58,46.33-33.954,64.867-50.755,9.271-8.408,19.262-15.938,32.249-21.379,12.988-5.441,28.989-8.8,50.299-8.801.414,0,.75-.336.75-.75s-.336-.75-.75-.75c-28.617-.004-47.921,6.033-63.139,15.106-11.413,6.802-20.518,15.289-29.569,24.155-13.58,13.305-27.041,27.46-48.027,38.313-20.986,10.851-49.536,18.424-93.328,18.426-.414,0-.75.336-.75.75s.336.75.75.75Z" fill="#525252" stroke-width="0"/>
  <path d="M237.273,556.913H93.273c-9.9,0-18-8.1-18-18s8.1-18,18-18h144c9.9,0,18,8.1,18,18s-8.1,18-18,18Z" fill="#fff" stroke-width="0"/>
  <path d="M237.273,556.913v-.75H93.273c-4.743,0-9.052-1.939-12.182-5.068-3.129-3.13-5.068-7.439-5.068-12.182,0-4.743,1.939-9.052,5.068-12.182,3.13-3.129,7.439-5.068,12.182-5.068h144c4.743,0,9.052,1.939,12.182,5.068,3.129,3.13,5.068,7.439,5.068,12.182,0,4.743-1.939,9.052-5.068,12.182-3.13,3.129-7.439,5.068-12.182,5.068v1.5c10.317-.003,18.747-8.433,18.75-18.75-.003-10.317-8.433-18.747-18.75-18.75H93.273c-10.318.003-18.747,8.433-18.75,18.75.003,10.317,8.432,18.747,18.75,18.75h144v-.75Z" fill="#525252" stroke-width="0"/>
  <path d="M585.273,460.913h-96c-9.9,0-18-8.1-18-18s8.1-18,18-18h96c9.9,0,18,8.1,18,18s-8.1,18-18,18Z" fill="#fff" stroke-width="0"/>
  <path d="M585.273,460.913v-.75h-96c-4.743,0-9.052-1.939-12.182-5.068-3.129-3.13-5.068-7.439-5.068-12.182,0-4.743,1.939-9.052,5.068-12.182,3.13-3.129,7.439-5.068,12.182-5.068h96c4.743,0,9.052,1.939,12.182,5.068,3.129,3.13,5.068,7.439,5.068,12.182,0,4.743-1.939,9.052-5.068,12.182-3.13,3.129-7.439,5.068-12.182,5.068v1.5c10.317-.003,18.747-8.433,18.75-18.75-.003-10.317-8.433-18.747-18.75-18.75h-96c-10.317.003-18.747,8.433-18.75,18.75.003,10.317,8.433,18.747,18.75,18.75h96v-.75Z" fill="#525252" stroke-width="0"/>
  <path d="M933.273,532.913h-96c-9.9,0-18-8.1-18-18s8.1-18,18-18h96c9.9,0,18,8.1,18,18s-8.1,18-18,18Z" fill="#fff" stroke-width="0"/>
  <path d="M933.273,532.913v-.75h-96c-4.743,0-9.052-1.939-12.182-5.068-3.129-3.13-5.068-7.439-5.068-12.182,0-4.743,1.939-9.052,5.068-12.182,3.13-3.129,7.439-5.068,12.182-5.068h96c4.743,0,9.052,1.939,12.182,5.068,3.129,3.13,5.068,7.439,5.068,12.182,0,4.743-1.939,9.052-5.068,12.182-3.13,3.129-7.439,5.068-12.182,5.068v1.5c10.317-.003,18.747-8.433,18.75-18.75-.003-10.317-8.433-18.747-18.75-18.75h-96c-10.317.003-18.747,8.433-18.75,18.75.003,10.317,8.433,18.747,18.75,18.75h96v-.75Z" fill="#525252" stroke-width="0"/>
  <path d="M908.926,520.641c-1.05,0-1.659-.441-1.659-1.323v-.357c0-.861.693-1.344,2.1-1.344h1.723v1.449c0,1.029-.967,1.575-2.163,1.575ZM908.022,522.594c1.639,0,2.835-.735,3.191-2.142h.127c.168,1.134.881,1.89,2.036,1.89h1.491v-2.142h-1.092v-5.165c0-2.499-1.575-3.905-4.535-3.905-2.205,0-3.486.84-4.283,2.1l1.596,1.428c.524-.756,1.238-1.386,2.498-1.386,1.428,0,2.037.714,2.037,1.932v.798h-1.869c-2.981,0-4.682,1.113-4.682,3.359,0,1.953,1.26,3.233,3.484,3.233ZM897.417,520.368c-1.28,0-2.246-.651-2.246-1.785v-3.485c0-1.071.966-1.764,2.246-1.764,1.387,0,2.352,1.029,2.352,2.583v1.89c0,1.554-.965,2.562-2.352,2.562ZM892.483,526.541h2.688v-6.026h.084c.42,1.239,1.574,2.079,3.023,2.079,2.771,0,4.305-2.079,4.305-5.753,0-3.653-1.533-5.711-4.305-5.711-1.449,0-2.625.798-3.023,2.058h-.084v-1.806h-2.688v15.159ZM884.146,522.594c3.507,0,5.502-1.89,5.502-4.661,0-2.415-1.387-3.737-4.347-4.262l-1.364-.252c-1.407-.252-2.037-.714-2.037-1.827,0-1.092.818-1.722,2.394-1.722,1.554,0,2.562.609,3.275,1.512l1.89-1.785c-1.176-1.407-2.813-2.163-5.018-2.163-3.275,0-5.312,1.701-5.312,4.325,0,2.394,1.428,3.8,4.389,4.262l1.385.21c1.533.273,1.995.882,1.995,1.869,0,1.239-.882,2.058-2.583,2.058-1.512,0-2.75-.63-3.758-1.806l-1.869,1.806c1.239,1.449,2.961,2.436,5.459,2.436ZM873.395,522.342h2.688v-10.96h-2.688v10.96ZM874.738,509.786c1.092,0,1.575-.567,1.575-1.344v-.42c0-.777-.483-1.344-1.575-1.344-1.112,0-1.575.567-1.575,1.344v.42c0,.777.463,1.344,1.575,1.344ZM867.599,522.342v-6.719c0-1.197.945-1.701,2.75-1.701h.84v-2.541h-.588c-1.742,0-2.624,1.113-2.896,2.268h-.105v-2.268h-2.688v10.96h2.688ZM860.249,522.342h1.932v-2.142h-2.079v-6.677h2.247v-2.142h-2.247v-3.002h-2.415v1.869c0,.756-.252,1.134-1.049,1.134h-.84v2.142h1.616v6.026c0,1.785.987,2.792,2.835,2.792Z" fill="#161616" stroke-width="0"/>
  <path d="M921.609,522.594c2.12,0,3.653-.966,4.367-2.897l-2.058-.987c-.398.987-1.029,1.722-2.31,1.722-1.491,0-2.247-1.029-2.247-2.562v-1.995c0-1.533.756-2.583,2.247-2.583,1.155,0,1.848.672,2.1,1.596l2.204-.987c-.65-1.722-2.1-2.771-4.304-2.771-3.233,0-5.06,2.205-5.06,5.711,0,3.527,1.826,5.753,5.06,5.753Z" fill="#161616" stroke-width="0"/>
  <path d="M932.571,513.146c1.385,0,2.162,1.029,2.162,2.541v.189h-4.493v-.168c0-1.512.924-2.562,2.331-2.562ZM932.612,522.594c2.037,0,3.633-.777,4.535-2.016l-1.448-1.617c-.672.861-1.47,1.491-2.792,1.491-1.764,0-2.667-1.071-2.667-2.646v-.273h7.286v-.882c0-3.002-1.575-5.522-4.998-5.522-3.212,0-5.08,2.247-5.08,5.711,0,3.506,1.932,5.753,5.164,5.753Z" fill="#161616" stroke-width="0"/>
  <path d="M912.075,425.103c-1.806,0-3.086-1.113-3.086-3.401v-1.554c0-2.289,1.28-3.401,3.086-3.401s3.086,1.113,3.086,3.401v1.554c0,2.289-1.28,3.401-3.086,3.401ZM912.075,426.594c2.897,0,4.893-2.226,4.893-5.669s-1.995-5.669-4.893-5.669-4.893,2.226-4.893,5.669,1.995,5.669,4.893,5.669ZM900.085,425.103c-1.806,0-3.086-1.113-3.086-3.401v-1.554c0-2.289,1.28-3.401,3.086-3.401s3.086,1.113,3.086,3.401v1.554c0,2.289-1.28,3.401-3.086,3.401ZM900.085,426.594c2.897,0,4.893-2.226,4.893-5.669s-1.995-5.669-4.893-5.669-4.893,2.226-4.893,5.669,1.995,5.669,4.893,5.669ZM893.323,426.342v-1.47h-1.596v-14.067h-1.68v13.794c0,1.008.629,1.743,1.784,1.743h1.491ZM880.009,426.342v-6.635h6.362v-1.554h-6.362v-4.913h6.971v-1.554h-8.734v14.655h1.764ZM872.597,426.342h1.68v-10.834h-1.68v10.834ZM873.437,412.967c.715,0,1.029-.378,1.029-.945v-.273c0-.567-.314-.945-1.029-.945s-1.028.378-1.028.945v.273c0,.567.315.945,1.028.945ZM866.339,426.342v-7.349c0-1.029,1.092-1.806,2.896-1.806h.987v-1.68h-.651c-1.764,0-2.75.966-3.128,1.995h-.104v-1.995h-1.68v10.834h1.68ZM861.55,426.342v-1.47h-2.204v-7.895h2.372v-1.47h-2.372v-3.002h-1.512v2.016c0,.735-.231.987-.944.987h-1.008v1.47h1.784v7.58c0,1.05.63,1.785,1.784,1.785h2.1Z" fill="#161616" stroke-width="0"/>
  <path d="M921.651,426.342v-7.349c0-1.029,1.092-1.806,2.898-1.806h.986v-1.68h-.65c-1.764,0-2.751.966-3.129,1.995h-.105v-1.995h-1.68v10.834h1.68Z" fill="#161616" stroke-width="0"/>
  <rect x="831.273" y="364.913" width="12" height="12" fill="#d02670" stroke-width="0"/>
  <rect x="831.273" y="412.913" width="12" height="12" fill="#d02670" stroke-width="0"/>
  <rect x="831.273" y="460.913" width="12" height="12" fill="#d02670" stroke-width="0"/>
  <rect x="831.273" y="508.913" width="12" height="12" fill="#d02670" stroke-width="0"/>
  <path d="M935.177,378.342v-7.517c0-1.386,1.301-2.058,2.645-2.058,1.617,0,2.457.987,2.457,2.918v6.656h1.68v-6.95c0-2.625-1.406-4.136-3.633-4.136-1.616,0-2.54.798-3.064,2.016h-.084v-1.764h-1.68v10.834h1.68ZM928.015,378.342h1.68v-10.834h-1.68v10.834ZM928.854,364.967c.715,0,1.029-.378,1.029-.945v-.273c0-.567-.314-.945-1.029-.945s-1.028.378-1.028.945v.273c0,.567.315.945,1.028.945ZM919.74,377.082c-1.89,0-3.065-1.302-3.065-3.233v-1.848c0-1.932,1.176-3.233,3.065-3.233,1.532,0,2.792.882,2.792,2.079v4.031c0,1.407-1.26,2.205-2.792,2.205ZM922.532,378.342h1.68v-15.537h-1.68v6.467h-.084c-.566-1.365-1.68-2.016-3.17-2.016-2.709,0-4.409,2.205-4.409,5.669s1.7,5.669,4.409,5.669c1.49,0,2.52-.672,3.17-2.016h.084v1.764ZM912.937,378.342v-1.47h-1.596v-14.067h-1.68v13.794c0,1.008.631,1.743,1.785,1.743h1.49ZM904.181,378.342h1.68v-10.834h-1.68v10.834ZM905.021,364.967c.715,0,1.029-.378,1.029-.945v-.273c0-.567-.314-.945-1.029-.945s-1.028.378-1.028.945v.273c0,.567.315.945,1.028.945ZM898.698,378.342h1.68v-10.834h-1.68v7.496c0,1.428-1.301,2.079-2.624,2.079-1.616,0-2.478-.987-2.478-2.918v-6.656h-1.68v6.95c0,2.625,1.428,4.136,3.653,4.136,1.806,0,2.624-.987,3.044-2.016h.084v1.764ZM880.009,365.24h4.053c1.386,0,2.226.735,2.226,2.037v.714c0,1.302-.84,2.037-2.226,2.037h-4.053v-4.787ZM880.009,371.539h4.347c1.512,0,2.436.798,2.436,2.268v.714c0,1.47-.924,2.268-2.436,2.268h-4.347v-5.249ZM878.245,378.342h6.656c2.162,0,3.779-1.827,3.779-4.241,0-2.436-1.826-3.338-2.877-3.401v-.126c.967-.147,2.373-.924,2.373-3.107,0-2.289-1.49-3.779-3.905-3.779h-6.026v14.655ZM872.597,378.342h1.68v-10.834h-1.68v10.834ZM873.437,364.967c.715,0,1.029-.378,1.029-.945v-.273c0-.567-.314-.945-1.029-.945s-1.028.378-1.028.945v.273c0,.567.315.945,1.028.945ZM866.339,378.342v-7.349c0-1.029,1.092-1.806,2.896-1.806h.987v-1.68h-.651c-1.764,0-2.75.966-3.128,1.995h-.104v-1.995h-1.68v10.834h1.68ZM861.55,378.342v-1.47h-2.204v-7.895h2.372v-1.47h-2.372v-3.002h-1.512v2.016c0,.735-.231.987-.944.987h-1.008v1.47h1.784v7.58c0,1.05.63,1.785,1.784,1.785h2.1Z" fill="#161616" stroke-width="0"/>
  <path d="M949.455,373.387c-1.428,0-2.331-.672-2.331-2.1v-.588c0-1.428.903-2.1,2.331-2.1s2.331.672,2.331,2.1v.588c0,1.428-.903,2.1-2.331,2.1ZM953.214,379.665c0,1.176-1.092,1.764-2.961,1.764h-1.554c-1.7,0-2.352-.777-2.352-1.722,0-.672.315-1.155,1.008-1.47h3.611c1.68,0,2.247.567,2.247,1.428ZM954.788,379.539c0-1.785-1.154-2.876-3.842-2.876h-2.311c-.986,0-1.658-.168-1.658-.819,0-.672.714-1.029,1.428-1.218.314.063.693.105,1.05.105,2.478,0,4.095-1.533,4.095-3.737,0-1.155-.463-2.121-1.239-2.792v-.693h2.058v-1.47h-1.617c-.902,0-1.26.609-1.26,1.449v.189c-.588-.273-1.28-.42-2.057-.42-2.457,0-4.074,1.533-4.074,3.737,0,1.512.756,2.708,2.037,3.317v.084c-1.092.273-1.869.798-1.869,1.89,0,.735.357,1.218.967,1.512v.231c-1.071.294-1.723.924-1.723,2.1,0,1.701,1.387,2.667,4.767,2.667,3.485,0,5.249-1.029,5.249-3.254Z" fill="#161616" stroke-width="0"/>
  <path d="M990.908,473.103c-1.806,0-3.087-1.113-3.087-3.401v-1.554c0-2.289,1.281-3.401,3.087-3.401s3.087,1.113,3.087,3.401v1.554c0,2.289-1.281,3.401-3.087,3.401ZM990.908,474.594c2.897,0,4.892-2.226,4.892-5.669s-1.994-5.669-4.892-5.669-4.892,2.226-4.892,5.669,1.994,5.669,4.892,5.669ZM978.917,473.103c-1.806,0-3.086-1.113-3.086-3.401v-1.554c0-2.289,1.28-3.401,3.086-3.401s3.086,1.113,3.086,3.401v1.554c0,2.289-1.28,3.401-3.086,3.401ZM978.917,474.594c2.897,0,4.893-2.226,4.893-5.669s-1.995-5.669-4.893-5.669-4.893,2.226-4.893,5.669,1.995,5.669,4.893,5.669ZM972.155,474.342v-1.47h-1.596v-14.067h-1.68v13.794c0,1.008.631,1.743,1.785,1.743h1.49ZM958.843,474.342v-6.635h6.361v-1.554h-6.361v-4.913h6.971v-1.554h-8.734v14.655h1.764ZM948.636,473.082c-1.89,0-3.065-1.302-3.065-3.233v-1.848c0-1.932,1.176-3.233,3.065-3.233,1.533,0,2.793.882,2.793,2.079v4.031c0,1.407-1.26,2.205-2.793,2.205ZM951.429,474.342h1.68v-15.537h-1.68v6.467h-.084c-.567-1.365-1.68-2.016-3.171-2.016-2.708,0-4.409,2.205-4.409,5.669s1.701,5.669,4.409,5.669c1.491,0,2.52-.672,3.171-2.016h.084v1.764ZM936.813,464.663c1.721,0,2.876,1.281,2.876,3.191v.231h-5.983v-.147c0-1.89,1.28-3.275,3.107-3.275ZM936.813,474.594c2.036,0,3.59-1.008,4.283-2.478l-1.197-.861c-.566,1.197-1.617,1.869-2.981,1.869-2.016,0-3.212-1.407-3.212-3.275v-.504h7.789v-.798c0-3.065-1.785-5.291-4.682-5.291-2.939,0-4.871,2.226-4.871,5.669s1.932,5.669,4.871,5.669ZM922.261,474.342v-7.517c0-1.386,1.303-2.058,2.646-2.058,1.616,0,2.456.987,2.456,2.918v6.656h1.68v-6.95c0-2.625-1.407-4.136-3.632-4.136-1.617,0-2.541.798-3.066,2.016h-.084v-1.764h-1.68v10.834h1.68ZM910.103,474.342v-7.517c0-1.386,1.301-2.058,2.645-2.058,1.617,0,2.457.987,2.457,2.918v6.656h1.68v-6.95c0-2.625-1.406-4.136-3.633-4.136-1.616,0-2.54.798-3.064,2.016h-.084v-1.764h-1.68v10.834h1.68ZM900.021,473.166c-1.302,0-2.142-.609-2.142-1.68v-.441c0-1.05.861-1.638,2.771-1.638h2.226v1.785c0,1.113-1.196,1.974-2.855,1.974ZM905.796,474.342v-1.47h-1.239v-5.963c0-2.289-1.554-3.653-4.157-3.653-1.953,0-3.254.966-3.842,2.121l1.008.945c.588-.987,1.448-1.617,2.75-1.617,1.722,0,2.562.84,2.562,2.373v1.071h-2.142c-3.149,0-4.619,1.134-4.619,3.17,0,2.016,1.344,3.275,3.633,3.275,1.512,0,2.666-.693,3.128-2.016h.104c.127,1.008.631,1.764,1.869,1.764h.945ZM894.31,474.342v-1.47h-1.596v-14.067h-1.68v13.794c0,1.008.631,1.743,1.785,1.743h1.49ZM880.009,461.24h4.074c1.385,0,2.204.756,2.204,2.1v1.092c0,1.344-.819,2.1-2.204,2.1h-4.074v-5.291ZM880.009,474.342v-6.257h4.074c2.624,0,4.094-1.617,4.094-4.199s-1.47-4.199-4.094-4.199h-5.838v14.655h1.764ZM872.597,474.342h1.68v-10.834h-1.68v10.834ZM873.437,460.967c.715,0,1.029-.378,1.029-.945v-.273c0-.567-.314-.945-1.029-.945s-1.028.378-1.028.945v.273c0,.567.315.945,1.028.945ZM866.339,474.342v-7.349c0-1.029,1.092-1.806,2.896-1.806h.987v-1.68h-.651c-1.764,0-2.75.966-3.128,1.995h-.104v-1.995h-1.68v10.834h1.68ZM861.55,474.342v-1.47h-2.204v-7.895h2.372v-1.47h-2.372v-3.002h-1.512v2.016c0,.735-.231.987-.944.987h-1.008v1.47h1.784v7.58c0,1.05.63,1.785,1.784,1.785h2.1Z" fill="#161616" stroke-width="0"/>
  <path d="M1000.485,474.342v-7.349c0-1.029,1.092-1.806,2.896-1.806h.987v-1.68h-.651c-1.764,0-2.75.966-3.128,1.995h-.104v-1.995h-1.68v10.834h1.68Z" fill="#161616" stroke-width="0"/>
  <polygon points="517.604 450.342 517.604 447.885 511.83 447.885 511.83 435.687 509.059 435.687 509.059 450.342 517.604 450.342" fill="#161616" stroke-width="0"/>
  <path d="M536.231,450.594c2.121,0,3.653-.966,4.367-2.897l-2.058-.987c-.399.987-1.028,1.722-2.31,1.722-1.49,0-2.246-1.029-2.246-2.562v-1.995c0-1.533.756-2.583,2.246-2.583,1.154,0,1.848.672,2.1,1.596l2.205-.987c-.651-1.722-2.1-2.771-4.305-2.771-3.233,0-5.061,2.205-5.061,5.711,0,3.527,1.827,5.753,5.061,5.753ZM524.198,448.431c-1.385,0-2.268-.903-2.268-2.562v-2.037c0-1.638.883-2.541,2.268-2.541,1.407,0,2.289.903,2.289,2.541v2.037c0,1.659-.882,2.562-2.289,2.562ZM524.198,450.594c3.15,0,5.103-2.226,5.103-5.753,0-3.506-1.952-5.711-5.103-5.711-3.128,0-5.08,2.205-5.08,5.711,0,3.527,1.952,5.753,5.08,5.753Z" fill="#161616" stroke-width="0"/>
  <path d="M546.521,448.641c-1.05,0-1.659-.441-1.659-1.323v-.357c0-.861.693-1.344,2.1-1.344h1.723v1.449c0,1.029-.967,1.575-2.163,1.575ZM545.618,450.594c1.639,0,2.835-.735,3.191-2.142h.127c.168,1.134.881,1.89,2.036,1.89h1.491v-2.142h-1.092v-5.165c0-2.499-1.575-3.905-4.535-3.905-2.205,0-3.486.84-4.283,2.1l1.596,1.428c.524-.756,1.238-1.386,2.498-1.386,1.428,0,2.037.714,2.037,1.932v.798h-1.869c-2.981,0-4.682,1.113-4.682,3.359,0,1.953,1.26,3.233,3.484,3.233Z" fill="#161616" stroke-width="0"/>
  <path d="M573.253,448.431c-1.385,0-2.268-.903-2.268-2.562v-2.037c0-1.638.883-2.541,2.268-2.541,1.407,0,2.289.903,2.289,2.541v2.037c0,1.659-.882,2.562-2.289,2.562ZM573.253,450.594c3.15,0,5.103-2.226,5.103-5.753,0-3.506-1.952-5.711-5.103-5.711-3.128,0-5.08,2.205-5.08,5.711,0,3.527,1.952,5.753,5.08,5.753ZM562.881,450.342h2.688v-10.96h-2.688v10.96ZM564.225,437.786c1.092,0,1.575-.567,1.575-1.344v-.42c0-.777-.483-1.344-1.575-1.344-1.112,0-1.575.567-1.575,1.344v.42c0,.777.463,1.344,1.575,1.344ZM558.218,450.342h1.932v-2.142h-2.078v-6.677h2.246v-2.142h-2.246v-3.002h-2.414v1.869c0,.756-.252,1.134-1.051,1.134h-.84v2.142h1.617v6.026c0,1.785.986,2.792,2.834,2.792Z" fill="#161616" stroke-width="0"/>
  <path d="M583.648,450.342v-7.244c0-1.176,1.071-1.764,2.184-1.764,1.28,0,1.806.798,1.806,2.352v6.656h2.688v-6.929c0-2.729-1.26-4.283-3.506-4.283-1.701,0-2.625.903-3.066,2.079h-.104v-1.827h-2.688v10.96h2.688Z" fill="#161616" stroke-width="0"/>
  <path d="M531.381,353.166c-1.302,0-2.142-.609-2.142-1.68v-.441c0-1.05.861-1.638,2.771-1.638h2.226v1.785c0,1.113-1.196,1.974-2.855,1.974ZM537.155,354.342v-1.47h-1.239v-5.963c0-2.289-1.554-3.653-4.157-3.653-1.953,0-3.254.966-3.842,2.121l1.008.945c.588-.987,1.448-1.617,2.75-1.617,1.722,0,2.562.84,2.562,2.373v1.071h-2.142c-3.149,0-4.619,1.134-4.619,3.17,0,2.016,1.344,3.275,3.633,3.275,1.512,0,2.666-.693,3.128-2.016h.104c.127,1.008.631,1.764,1.869,1.764h.945ZM525.669,354.342v-1.47h-1.596v-14.067h-1.68v13.794c0,1.008.629,1.743,1.784,1.743h1.491ZM514.454,354.594c2.436,0,4.221-1.281,5.145-3.338l-1.406-.882c-.588,1.596-1.869,2.646-3.738,2.646-2.52,0-4.01-1.827-4.01-4.829v-2.184c0-3.002,1.49-4.997,4.01-4.997,1.807,0,3.023.987,3.611,2.499l1.428-.861c-.924-2.037-2.604-3.212-5.039-3.212-3.695,0-5.899,2.771-5.899,7.664s2.204,7.496,5.899,7.496Z" fill="#161616" stroke-width="0"/>
  <path d="M543.035,354.594c2.478,0,4.011-1.281,4.011-3.38,0-1.638-.924-2.688-3.318-3.044l-.84-.126c-1.344-.21-2.078-.63-2.078-1.68,0-1.029.734-1.68,2.121-1.68s2.309.651,2.792,1.323l1.112-1.008c-.881-1.092-2.036-1.743-3.779-1.743-2.204,0-3.863,1.05-3.863,3.191,0,2.016,1.491,2.834,3.486,3.128l.86.126c1.428.21,1.89.861,1.89,1.701,0,1.113-.84,1.764-2.268,1.764-1.365,0-2.373-.609-3.213-1.659l-1.196.966c.966,1.281,2.288,2.121,4.283,2.121Z" fill="#161616" stroke-width="0"/>
  <path d="M617.605,353.103c-1.806,0-3.087-1.113-3.087-3.401v-1.554c0-2.289,1.281-3.401,3.087-3.401s3.087,1.113,3.087,3.401v1.554c0,2.289-1.281,3.401-3.087,3.401ZM617.605,354.594c2.897,0,4.892-2.226,4.892-5.669s-1.994-5.669-4.892-5.669-4.892,2.226-4.892,5.669,1.994,5.669,4.892,5.669ZM608.03,354.342h1.68v-10.834h-1.68v10.834ZM608.87,340.967c.715,0,1.029-.378,1.029-.945v-.273c0-.567-.314-.945-1.029-.945s-1.028.378-1.028.945v.273c0,.567.315.945,1.028.945ZM604.921,354.342v-1.47h-2.204v-7.895h2.372v-1.47h-2.372v-3.002h-1.512v2.016c0,.735-.231.987-.944.987h-1.008v1.47h1.784v7.58c0,1.05.63,1.785,1.784,1.785h2.1ZM592.028,353.166c-1.302,0-2.142-.609-2.142-1.68v-.441c0-1.05.86-1.638,2.771-1.638h2.226v1.785c0,1.113-1.197,1.974-2.855,1.974ZM597.802,354.342v-1.47h-1.238v-5.963c0-2.289-1.554-3.653-4.157-3.653-1.952,0-3.255.966-3.843,2.121l1.008.945c.588-.987,1.449-1.617,2.751-1.617,1.722,0,2.562.84,2.562,2.373v1.071h-2.142c-3.149,0-4.619,1.134-4.619,3.17,0,2.016,1.344,3.275,3.632,3.275,1.512,0,2.667-.693,3.129-2.016h.105c.125,1.008.629,1.764,1.868,1.764h.944ZM582.222,354.594c2.057,0,3.464-1.008,4.156-2.562l-1.217-.819c-.588,1.239-1.575,1.89-2.939,1.89-1.995,0-3.023-1.365-3.023-3.254v-1.848c0-1.89,1.028-3.254,3.023-3.254,1.322,0,2.246.651,2.645,1.764l1.407-.714c-.63-1.491-1.911-2.541-4.052-2.541-3.045,0-4.83,2.205-4.83,5.669s1.785,5.669,4.83,5.669ZM573.548,340.967c.714,0,1.029-.378,1.029-.945v-.273c0-.567-.315-.945-1.029-.945s-1.029.378-1.029.945v.273c0,.567.315.945,1.029.945ZM566.64,354.342h1.68v-9.364h4.389v9.364h1.68v-10.834h-6.068v-3.233h2.331v-1.47h-1.638c-1.596,0-2.373,1.029-2.373,2.52v2.184h-1.764v1.47h1.764v9.364ZM560.571,354.342h1.68v-10.834h-1.68v10.834ZM561.411,340.967c.713,0,1.028-.378,1.028-.945v-.273c0-.567-.315-.945-1.028-.945s-1.029.378-1.029.945v.273c0,.567.314.945,1.029.945ZM553.367,354.594c2.478,0,4.011-1.281,4.011-3.38,0-1.638-.924-2.688-3.318-3.044l-.84-.126c-1.344-.21-2.078-.63-2.078-1.68,0-1.029.734-1.68,2.121-1.68s2.309.651,2.792,1.323l1.112-1.008c-.881-1.092-2.036-1.743-3.779-1.743-2.204,0-3.863,1.05-3.863,3.191,0,2.016,1.491,2.834,3.486,3.128l.86.126c1.428.21,1.89.861,1.89,1.701,0,1.113-.84,1.764-2.268,1.764-1.365,0-2.373-.609-3.213-1.659l-1.196.966c.966,1.281,2.288,2.121,4.283,2.121Z" fill="#161616" stroke-width="0"/>
  <path d="M627.183,354.342v-7.517c0-1.386,1.301-2.058,2.645-2.058,1.617,0,2.457.987,2.457,2.918v6.656h1.68v-6.95c0-2.625-1.406-4.136-3.633-4.136-1.616,0-2.54.798-3.064,2.016h-.084v-1.764h-1.68v10.834h1.68Z" fill="#161616" stroke-width="0"/>
  <path d="M551.499,397.387c-1.428,0-2.33-.672-2.33-2.1v-.588c0-1.428.902-2.1,2.33-2.1s2.33.672,2.33,2.1v.588c0,1.428-.902,2.1-2.33,2.1ZM555.257,403.665c0,1.176-1.092,1.764-2.96,1.764h-1.554c-1.701,0-2.352-.777-2.352-1.722,0-.672.314-1.155,1.008-1.47h3.611c1.68,0,2.246.567,2.246,1.428ZM556.832,403.539c0-1.785-1.155-2.876-3.843-2.876h-2.309c-.987,0-1.659-.168-1.659-.819,0-.672.714-1.029,1.428-1.218.315.063.692.105,1.05.105,2.478,0,4.094-1.533,4.094-3.737,0-1.155-.461-2.121-1.238-2.792v-.693h2.058v-1.47h-1.616c-.903,0-1.26.609-1.26,1.449v.189c-.588-.273-1.281-.42-2.059-.42-2.456,0-4.072,1.533-4.072,3.737,0,1.512.756,2.708,2.036,3.317v.084c-1.092.273-1.868.798-1.868,1.89,0,.735.356,1.218.965,1.512v.231c-1.07.294-1.721.924-1.721,2.1,0,1.701,1.385,2.667,4.766,2.667,3.485,0,5.249-1.029,5.249-3.254ZM539.802,401.103c-1.806,0-3.086-1.113-3.086-3.401v-1.554c0-2.289,1.28-3.401,3.086-3.401s3.086,1.113,3.086,3.401v1.554c0,2.289-1.28,3.401-3.086,3.401ZM539.802,402.594c2.897,0,4.893-2.226,4.893-5.669s-1.995-5.669-4.893-5.669-4.893,2.226-4.893,5.669,1.995,5.669,4.893,5.669ZM528.021,392.663c1.723,0,2.877,1.281,2.877,3.191v.231h-5.984v-.147c0-1.89,1.281-3.275,3.107-3.275ZM528.021,402.594c2.037,0,3.591-1.008,4.283-2.478l-1.196-.861c-.567,1.197-1.616,1.869-2.981,1.869-2.016,0-3.213-1.407-3.213-3.275v-.504h7.79v-.798c0-3.065-1.784-5.291-4.683-5.291-2.939,0-4.871,2.226-4.871,5.669s1.932,5.669,4.871,5.669ZM518.78,402.342h1.637v-7.538h-4.955v1.554h3.234v1.449c0,2.163-1.701,3.212-3.738,3.212-2.792,0-4.514-1.932-4.514-4.829v-2.373c0-2.897,1.764-4.808,4.346-4.808,1.848,0,3.213.966,3.885,2.52l1.449-.882c-.945-1.911-2.709-3.212-5.334-3.212-3.758,0-6.235,2.708-6.235,7.58,0,4.913,2.499,7.58,6.089,7.58,2.226,0,3.717-1.029,4.073-2.394h.063v2.142Z" fill="#161616" stroke-width="0"/>
  <path d="M560.696,402.342v-7.349c0-1.029,1.092-1.806,2.898-1.806h.986v-1.68h-.65c-1.764,0-2.751.966-3.129,1.995h-.105v-1.995h-1.68v10.834h1.68Z" fill="#161616" stroke-width="0"/>
  <path d="M582.788,401.082c-1.533,0-2.793-.798-2.793-2.205v-4.031c0-1.197,1.26-2.079,2.793-2.079,1.89,0,3.065,1.302,3.065,3.233v1.848c0,1.932-1.176,3.233-3.065,3.233ZM578.315,406.541h1.68v-5.963h.084c.651,1.344,1.68,2.016,3.171,2.016,2.708,0,4.409-2.205,4.409-5.669s-1.701-5.669-4.409-5.669c-1.491,0-2.604.651-3.171,2.016h-.084v-1.764h-1.68v15.033ZM569.915,401.166c-1.302,0-2.142-.609-2.142-1.68v-.441c0-1.05.86-1.638,2.771-1.638h2.226v1.785c0,1.113-1.197,1.974-2.855,1.974ZM575.688,402.342v-1.47h-1.238v-5.963c0-2.289-1.554-3.653-4.157-3.653-1.952,0-3.255.966-3.843,2.121l1.008.945c.588-.987,1.449-1.617,2.751-1.617,1.722,0,2.562.84,2.562,2.373v1.071h-2.142c-3.149,0-4.619,1.134-4.619,3.17,0,2.016,1.344,3.275,3.632,3.275,1.512,0,2.667-.693,3.129-2.016h.105c.125,1.008.629,1.764,1.868,1.764h.944Z" fill="#161616" stroke-width="0"/>
  <path d="M590.728,402.342h1.68v-7.517c0-1.386,1.301-2.058,2.645-2.058,1.617,0,2.457.987,2.457,2.918v6.656h1.68v-6.95c0-2.625-1.406-4.136-3.633-4.136-1.616,0-2.54.798-3.064,2.016h-.084v-6.467h-1.68v15.537Z" fill="#161616" stroke-width="0"/>
  <path d="M606.77,398.877l-.588,1.764h-.104l-.504-1.764-2.604-7.37h-1.68l4.052,11.254-.819,2.31h-1.7v1.47h.86c1.596,0,2.037-.378,2.52-1.68l4.851-13.354h-1.659l-2.624,7.37Z" fill="#161616" stroke-width="0"/>
  <path d="M514.77,497.019c-2.54,0-4.325-1.89-4.325-4.787v-2.436c0-2.897,1.785-4.787,4.325-4.787s4.325,1.89,4.325,4.787v2.436c0,2.897-1.785,4.787-4.325,4.787ZM514.77,498.594c3.779,0,6.215-2.667,6.215-7.58s-2.436-7.58-6.215-7.58-6.215,2.667-6.215,7.58,2.436,7.58,6.215,7.58Z" fill="#161616" stroke-width="0"/>
  <path d="M525.899,498.342v-7.349c0-1.029,1.092-1.806,2.898-1.806h.986v-1.68h-.65c-1.764,0-2.751.966-3.129,1.995h-.105v-1.995h-1.68v10.834h1.68Z" fill="#161616" stroke-width="0"/>
  <path d="M535.496,493.387c-1.428,0-2.331-.672-2.331-2.1v-.588c0-1.428.903-2.1,2.331-2.1s2.331.672,2.331,2.1v.588c0,1.428-.903,2.1-2.331,2.1ZM539.255,499.665c0,1.176-1.092,1.764-2.961,1.764h-1.554c-1.7,0-2.352-.777-2.352-1.722,0-.672.315-1.155,1.008-1.47h3.611c1.68,0,2.247.567,2.247,1.428ZM540.829,499.539c0-1.785-1.154-2.876-3.842-2.876h-2.311c-.986,0-1.658-.168-1.658-.819,0-.672.714-1.029,1.428-1.218.314.063.693.105,1.05.105,2.478,0,4.095-1.533,4.095-3.737,0-1.155-.463-2.121-1.239-2.792v-.693h2.058v-1.47h-1.617c-.902,0-1.26.609-1.26,1.449v.189c-.588-.273-1.28-.42-2.057-.42-2.457,0-4.074,1.533-4.074,3.737,0,1.512.756,2.708,2.037,3.317v.084c-1.092.273-1.869.798-1.869,1.89,0,.735.357,1.218.967,1.512v.231c-1.071.294-1.723.924-1.723,2.1,0,1.701,1.387,2.667,4.767,2.667,3.485,0,5.249-1.029,5.249-3.254Z" fill="#161616" stroke-width="0"/>
  <path d="M610.634,497.103c-1.806,0-3.086-1.113-3.086-3.401v-1.554c0-2.289,1.28-3.401,3.086-3.401s3.086,1.113,3.086,3.401v1.554c0,2.289-1.28,3.401-3.086,3.401ZM610.634,498.594c2.897,0,4.893-2.226,4.893-5.669s-1.995-5.669-4.893-5.669-4.893,2.226-4.893,5.669,1.995,5.669,4.893,5.669ZM601.06,498.342h1.68v-10.834h-1.68v10.834ZM601.899,484.967c.713,0,1.028-.378,1.028-.945v-.273c0-.567-.315-.945-1.028-.945s-1.029.378-1.029.945v.273c0,.567.314.945,1.029.945ZM597.95,498.342v-1.47h-2.205v-7.895h2.373v-1.47h-2.373v-3.002h-1.512v2.016c0,.735-.23.987-.945.987h-1.008v1.47h1.785v7.58c0,1.05.63,1.785,1.785,1.785h2.1ZM585.057,497.166c-1.302,0-2.142-.609-2.142-1.68v-.441c0-1.05.861-1.638,2.771-1.638h2.226v1.785c0,1.113-1.196,1.974-2.855,1.974ZM590.831,498.342v-1.47h-1.239v-5.963c0-2.289-1.554-3.653-4.157-3.653-1.953,0-3.254.966-3.842,2.121l1.008.945c.588-.987,1.448-1.617,2.75-1.617,1.722,0,2.562.84,2.562,2.373v1.071h-2.142c-3.149,0-4.619,1.134-4.619,3.17,0,2.016,1.344,3.275,3.633,3.275,1.512,0,2.666-.693,3.128-2.016h.104c.127,1.008.631,1.764,1.869,1.764h.945ZM579.302,498.342v-1.47h-6.446l6.278-8.104v-1.26h-8v1.47h5.963l-6.152,7.958v1.407h8.357ZM566.556,498.342h1.68v-10.834h-1.68v10.834ZM567.396,484.967c.715,0,1.029-.378,1.029-.945v-.273c0-.567-.314-.945-1.029-.945s-1.028.378-1.028.945v.273c0,.567.315.945,1.028.945ZM556.077,498.342v-7.517c0-1.386,1.301-2.058,2.645-2.058,1.617,0,2.457.987,2.457,2.918v6.656h1.68v-6.95c0-2.625-1.406-4.136-3.633-4.136-1.616,0-2.54.798-3.064,2.016h-.084v-1.764h-1.68v10.834h1.68ZM545.997,497.166c-1.302,0-2.142-.609-2.142-1.68v-.441c0-1.05.86-1.638,2.771-1.638h2.226v1.785c0,1.113-1.197,1.974-2.855,1.974ZM551.771,498.342v-1.47h-1.238v-5.963c0-2.289-1.554-3.653-4.157-3.653-1.952,0-3.255.966-3.843,2.121l1.008.945c.588-.987,1.449-1.617,2.751-1.617,1.722,0,2.562.84,2.562,2.373v1.071h-2.142c-3.149,0-4.619,1.134-4.619,3.17,0,2.016,1.344,3.275,3.632,3.275,1.512,0,2.667-.693,3.129-2.016h.105c.125,1.008.629,1.764,1.868,1.764h.944Z" fill="#161616" stroke-width="0"/>
  <path d="M620.21,498.342v-7.517c0-1.386,1.303-2.058,2.646-2.058,1.616,0,2.456.987,2.456,2.918v6.656h1.68v-6.95c0-2.625-1.407-4.136-3.632-4.136-1.617,0-2.541.798-3.066,2.016h-.084v-1.764h-1.68v10.834h1.68Z" fill="#161616" stroke-width="0"/>
  <path d="M513.405,546.594c3.148,0,5.039-1.722,5.039-4.409,0-2.184-1.239-3.443-4.095-4.094l-1.196-.273c-1.848-.42-2.751-1.05-2.751-2.436,0-1.575,1.155-2.394,3.023-2.394,1.7,0,2.813.693,3.611,1.806l1.323-.966c-1.092-1.554-2.646-2.394-4.851-2.394-2.876,0-4.851,1.407-4.851,4.01,0,2.247,1.471,3.422,4.137,4.031l1.197.273c1.932.441,2.708,1.134,2.708,2.52,0,1.68-1.134,2.771-3.233,2.771-1.701,0-2.918-.735-3.947-2.1l-1.302,1.092c1.176,1.596,2.835,2.562,5.187,2.562Z" fill="#161616" stroke-width="0"/>
  <path d="M525.605,542.877l-.588,1.764h-.104l-.504-1.764-2.604-7.37h-1.68l4.052,11.254-.819,2.31h-1.7v1.47h.86c1.596,0,2.037-.378,2.52-1.68l4.851-13.354h-1.659l-2.624,7.37Z" fill="#161616" stroke-width="0"/>
  <path d="M535.434,546.594c2.478,0,4.011-1.281,4.011-3.38,0-1.638-.924-2.688-3.318-3.044l-.84-.126c-1.344-.21-2.078-.63-2.078-1.68,0-1.029.734-1.68,2.121-1.68s2.309.651,2.792,1.323l1.112-1.008c-.881-1.092-2.036-1.743-3.779-1.743-2.204,0-3.863,1.05-3.863,3.191,0,2.016,1.491,2.834,3.486,3.128l.86.126c1.428.21,1.89.861,1.89,1.701,0,1.113-.84,1.764-2.268,1.764-1.365,0-2.373-.609-3.213-1.659l-1.196.966c.966,1.281,2.288,2.121,4.283,2.121Z" fill="#161616" stroke-width="0"/>
  <path d="M546.983,546.342v-1.47h-2.204v-7.895h2.372v-1.47h-2.372v-3.002h-1.512v2.016c0,.735-.231.987-.944.987h-1.008v1.47h1.784v7.58c0,1.05.63,1.785,1.784,1.785h2.1Z" fill="#161616" stroke-width="0"/>
  <path d="M554.081,536.663c1.723,0,2.877,1.281,2.877,3.191v.231h-5.984v-.147c0-1.89,1.281-3.275,3.107-3.275ZM554.081,546.594c2.037,0,3.591-1.008,4.283-2.478l-1.196-.861c-.567,1.197-1.616,1.869-2.981,1.869-2.016,0-3.213-1.407-3.213-3.275v-.504h7.79v-.798c0-3.065-1.784-5.291-4.683-5.291-2.939,0-4.871,2.226-4.871,5.669s1.932,5.669,4.871,5.669Z" fill="#161616" stroke-width="0"/>
  <path d="M563.448,546.342v-7.517c0-1.386,1.26-2.058,2.582-2.058,1.596,0,2.33.987,2.33,2.918v6.656h1.68v-7.517c0-1.386,1.219-2.058,2.541-2.058,1.638,0,2.373,1.008,2.373,2.918v6.656h1.68v-6.95c0-2.625-1.323-4.136-3.527-4.136-1.848,0-2.898,1.029-3.297,2.205h-.042c-.588-1.554-1.89-2.205-3.317-2.205-1.68,0-2.436.903-2.918,2.016h-.084v-1.764h-1.68v10.834h1.68Z" fill="#161616" stroke-width="0"/>
  <path d="M540.452,594.342v-7.517c0-1.386,1.303-2.058,2.646-2.058,1.616,0,2.456.987,2.456,2.918v6.656h1.68v-6.95c0-2.625-1.407-4.136-3.632-4.136-1.617,0-2.541.798-3.066,2.016h-.084v-1.764h-1.68v10.834h1.68ZM535.496,594.342v-1.47h-2.058v-11.716h2.058v-1.47h-5.879v1.47h2.058v11.716h-2.058v1.47h5.879ZM524.661,594.342h1.68v-10.834h-1.68v10.834ZM525.501,580.967c.715,0,1.029-.378,1.029-.945v-.273c0-.567-.314-.945-1.029-.945s-1.028.378-1.028.945v.273c0,.567.315.945,1.028.945ZM518.403,594.342v-7.349c0-1.029,1.092-1.806,2.896-1.806h.987v-1.68h-.651c-1.764,0-2.75.966-3.128,1.995h-.104v-1.995h-1.68v10.834h1.68ZM513.614,594.342v-1.47h-2.204v-7.895h2.372v-1.47h-2.372v-3.002h-1.512v2.016c0,.735-.231.987-.944.987h-1.008v1.47h1.784v7.58c0,1.05.63,1.785,1.784,1.785h2.1Z" fill="#161616" stroke-width="0"/>
  <path d="M555.425,594.342v-1.47h-2.204v-7.895h2.372v-1.47h-2.372v-3.002h-1.512v2.016c0,.735-.231.987-.944.987h-1.008v1.47h1.784v7.58c0,1.05.63,1.785,1.784,1.785h2.1Z" fill="#161616" stroke-width="0"/>
  <path d="M629.407,593.166c-1.302,0-2.142-.609-2.142-1.68v-.441c0-1.05.86-1.638,2.771-1.638h2.226v1.785c0,1.113-1.197,1.974-2.855,1.974ZM635.181,594.342v-1.47h-1.238v-5.963c0-2.289-1.554-3.653-4.157-3.653-1.952,0-3.255.966-3.843,2.121l1.008.945c.588-.987,1.449-1.617,2.751-1.617,1.722,0,2.562.84,2.562,2.373v1.071h-2.142c-3.149,0-4.619,1.134-4.619,3.17,0,2.016,1.344,3.275,3.632,3.275,1.512,0,2.667-.693,3.129-2.016h.105c.125,1.008.629,1.764,1.868,1.764h.944ZM620.882,594.342h1.68v-10.834h-1.68v10.834ZM621.722,580.967c.715,0,1.029-.378,1.029-.945v-.273c0-.567-.314-.945-1.029-.945s-1.028.378-1.028.945v.273c0,.567.315.945,1.028.945ZM612.607,593.082c-1.89,0-3.065-1.302-3.065-3.233v-1.848c0-1.932,1.176-3.233,3.065-3.233,1.532,0,2.792.882,2.792,2.079v4.031c0,1.407-1.26,2.205-2.792,2.205ZM615.399,594.342h1.68v-15.537h-1.68v6.467h-.084c-.566-1.365-1.68-2.016-3.17-2.016-2.709,0-4.409,2.205-4.409,5.669s1.7,5.669,4.409,5.669c1.49,0,2.52-.672,3.17-2.016h.084v1.764ZM600.784,584.663c1.723,0,2.877,1.281,2.877,3.191v.231h-5.984v-.147c0-1.89,1.281-3.275,3.107-3.275ZM600.784,594.594c2.037,0,3.591-1.008,4.283-2.478l-1.196-.861c-.567,1.197-1.616,1.869-2.981,1.869-2.016,0-3.213-1.407-3.213-3.275v-.504h7.79v-.798c0-3.065-1.784-5.291-4.683-5.291-2.939,0-4.871,2.226-4.871,5.669s1.932,5.669,4.871,5.669ZM579.827,594.342v-7.517c0-1.386,1.26-2.058,2.583-2.058,1.596,0,2.331.987,2.331,2.918v6.656h1.68v-7.517c0-1.386,1.217-2.058,2.54-2.058,1.638,0,2.372,1.008,2.372,2.918v6.656h1.68v-6.95c0-2.625-1.322-4.136-3.527-4.136-1.848,0-2.896,1.029-3.296,2.205h-.042c-.588-1.554-1.89-2.205-3.317-2.205-1.68,0-2.436.903-2.919,2.016h-.084v-1.764h-1.68v10.834h1.68ZM571.89,594.342v-7.349c0-1.029,1.092-1.806,2.896-1.806h.987v-1.68h-.651c-1.764,0-2.75.966-3.128,1.995h-.104v-1.995h-1.68v10.834h1.68ZM562.522,584.663c1.723,0,2.877,1.281,2.877,3.191v.231h-5.984v-.147c0-1.89,1.281-3.275,3.107-3.275ZM562.522,594.594c2.037,0,3.591-1.008,4.283-2.478l-1.196-.861c-.567,1.197-1.616,1.869-2.981,1.869-2.016,0-3.213-1.407-3.213-3.275v-.504h7.79v-.798c0-3.065-1.784-5.291-4.683-5.291-2.939,0-4.871,2.226-4.871,5.669s1.932,5.669,4.871,5.669Z" fill="#161616" stroke-width="0"/>
  <path d="M642.302,594.342v-1.47h-2.205v-7.895h2.373v-1.47h-2.373v-3.002h-1.512v2.016c0,.735-.23.987-.945.987h-1.008v1.47h1.785v7.58c0,1.05.63,1.785,1.785,1.785h2.1Z" fill="#161616" stroke-width="0"/>
  <path d="M649.399,584.663c1.721,0,2.876,1.281,2.876,3.191v.231h-5.983v-.147c0-1.89,1.28-3.275,3.107-3.275ZM649.399,594.594c2.036,0,3.59-1.008,4.283-2.478l-1.197-.861c-.566,1.197-1.617,1.869-2.981,1.869-2.016,0-3.212-1.407-3.212-3.275v-.504h7.789v-.798c0-3.065-1.785-5.291-4.682-5.291-2.939,0-4.871,2.226-4.871,5.669s1.932,5.669,4.871,5.669Z" fill="#161616" stroke-width="0"/>
  <path d="M524.661,642.342h1.68v-10.834h-1.68v10.834ZM525.501,628.967c.715,0,1.029-.378,1.029-.945v-.273c0-.567-.314-.945-1.029-.945s-1.028.378-1.028.945v.273c0,.567.315.945,1.028.945ZM518.403,642.342v-7.349c0-1.029,1.092-1.806,2.896-1.806h.987v-1.68h-.651c-1.764,0-2.75.966-3.128,1.995h-.104v-1.995h-1.68v10.834h1.68ZM513.614,642.342v-1.47h-2.204v-7.895h2.372v-1.47h-2.372v-3.002h-1.512v2.016c0,.735-.231.987-.944.987h-1.008v1.47h1.784v7.58c0,1.05.63,1.785,1.784,1.785h2.1Z" fill="#161616" stroke-width="0"/>
  <path d="M532.073,629.24h4.074c1.385,0,2.204.756,2.204,2.1v1.092c0,1.344-.819,2.1-2.204,2.1h-4.074v-5.291ZM532.073,642.342v-6.257h4.074c2.624,0,4.094-1.617,4.094-4.199s-1.47-4.199-4.094-4.199h-5.838v14.655h1.764Z" fill="#161616" stroke-width="0"/>
  <path d="M582.138,642.342v-1.47h-1.596v-14.067h-1.68v13.794c0,1.008.629,1.743,1.784,1.743h1.491ZM570.923,641.082c-1.533,0-2.793-.798-2.793-2.205v-4.031c0-1.197,1.26-2.079,2.793-2.079,1.89,0,3.065,1.302,3.065,3.233v1.848c0,1.932-1.176,3.233-3.065,3.233ZM566.45,646.541h1.68v-5.963h.084c.651,1.344,1.68,2.016,3.171,2.016,2.708,0,4.409-2.205,4.409-5.669s-1.701-5.669-4.409-5.669c-1.491,0-2.604.651-3.171,2.016h-.084v-1.764h-1.68v15.033ZM558.555,641.103c-1.806,0-3.087-1.113-3.087-3.401v-1.554c0-2.289,1.281-3.401,3.087-3.401s3.087,1.113,3.087,3.401v1.554c0,2.289-1.281,3.401-3.087,3.401ZM558.555,642.594c2.897,0,4.892-2.226,4.892-5.669s-1.994-5.669-4.892-5.669-4.892,2.226-4.892,5.669,1.994,5.669,4.892,5.669ZM546.772,632.663c1.723,0,2.877,1.281,2.877,3.191v.231h-5.984v-.147c0-1.89,1.281-3.275,3.107-3.275ZM546.772,642.594c2.037,0,3.591-1.008,4.283-2.478l-1.196-.861c-.567,1.197-1.616,1.869-2.981,1.869-2.016,0-3.213-1.407-3.213-3.275v-.504h7.79v-.798c0-3.065-1.784-5.291-4.683-5.291-2.939,0-4.871,2.226-4.871,5.669s1.932,5.669,4.871,5.669Z" fill="#161616" stroke-width="0"/>
  <path d="M588.878,632.663c1.721,0,2.876,1.281,2.876,3.191v.231h-5.983v-.147c0-1.89,1.28-3.275,3.107-3.275ZM588.878,642.594c2.036,0,3.59-1.008,4.283-2.478l-1.197-.861c-.566,1.197-1.617,1.869-2.981,1.869-2.016,0-3.212-1.407-3.212-3.275v-.504h7.789v-.798c0-3.065-1.785-5.291-4.682-5.291-2.939,0-4.871,2.226-4.871,5.669s1.932,5.669,4.871,5.669Z" fill="#161616" stroke-width="0"/>
  <path d="M524.661,690.342h1.68v-10.834h-1.68v10.834ZM525.501,676.967c.715,0,1.029-.378,1.029-.945v-.273c0-.567-.314-.945-1.029-.945s-1.028.378-1.028.945v.273c0,.567.315.945,1.028.945ZM518.403,690.342v-7.349c0-1.029,1.092-1.806,2.896-1.806h.987v-1.68h-.651c-1.764,0-2.75.966-3.128,1.995h-.104v-1.995h-1.68v10.834h1.68ZM513.614,690.342v-1.47h-2.204v-7.895h2.372v-1.47h-2.372v-3.002h-1.512v2.016c0,.735-.231.987-.944.987h-1.008v1.47h1.784v7.58c0,1.05.63,1.785,1.784,1.785h2.1Z" fill="#161616" stroke-width="0"/>
  <path d="M532.073,682.531v-5.291h4.074c1.385,0,2.204.756,2.204,2.1v1.092c0,1.344-.819,2.1-2.204,2.1h-4.074ZM532.073,684.043h3.423l3.171,6.299h1.994l-3.359-6.467c1.91-.441,2.939-1.89,2.939-4.031,0-2.667-1.533-4.157-4.094-4.157h-5.838v14.655h1.764v-6.299Z" fill="#161616" stroke-width="0"/>
  <path d="M582.433,690.342v-7.517c0-1.386,1.301-2.058,2.645-2.058,1.617,0,2.457.987,2.457,2.918v6.656h1.68v-6.95c0-2.625-1.406-4.136-3.633-4.136-1.616,0-2.54.798-3.064,2.016h-.084v-1.764h-1.68v10.834h1.68ZM575.271,690.342h1.68v-10.834h-1.68v10.834ZM576.11,676.967c.715,0,1.029-.378,1.029-.945v-.273c0-.567-.314-.945-1.029-.945s-1.028.378-1.028.945v.273c0,.567.315.945,1.028.945ZM572.163,690.342v-1.47h-2.205v-7.895h2.373v-1.47h-2.373v-3.002h-1.512v2.016c0,.735-.23.987-.945.987h-1.008v1.47h1.785v7.58c0,1.05.63,1.785,1.785,1.785h2.1ZM562.187,690.342h1.68v-10.834h-1.68v7.496c0,1.428-1.301,2.079-2.624,2.079-1.616,0-2.478-.987-2.478-2.918v-6.656h-1.68v6.95c0,2.625,1.428,4.136,3.653,4.136,1.806,0,2.624-.987,3.044-2.016h.084v1.764ZM547.613,689.103c-1.806,0-3.087-1.113-3.087-3.401v-1.554c0-2.289,1.281-3.401,3.087-3.401s3.087,1.113,3.087,3.401v1.554c0,2.289-1.281,3.401-3.087,3.401ZM547.613,690.594c2.897,0,4.892-2.226,4.892-5.669s-1.994-5.669-4.892-5.669-4.892,2.226-4.892,5.669,1.994,5.669,4.892,5.669Z" fill="#161616" stroke-width="0"/>
  <path d="M596.711,685.387c-1.428,0-2.331-.672-2.331-2.1v-.588c0-1.428.903-2.1,2.331-2.1s2.331.672,2.331,2.1v.588c0,1.428-.903,2.1-2.331,2.1ZM600.47,691.665c0,1.176-1.092,1.764-2.961,1.764h-1.554c-1.7,0-2.352-.777-2.352-1.722,0-.672.315-1.155,1.008-1.47h3.611c1.68,0,2.247.567,2.247,1.428ZM602.044,691.539c0-1.785-1.154-2.876-3.842-2.876h-2.311c-.986,0-1.658-.168-1.658-.819,0-.672.714-1.029,1.428-1.218.314.063.693.105,1.05.105,2.478,0,4.095-1.533,4.095-3.737,0-1.155-.463-2.121-1.239-2.792v-.693h2.058v-1.47h-1.617c-.902,0-1.26.609-1.26,1.449v.189c-.588-.273-1.28-.42-2.057-.42-2.457,0-4.074,1.533-4.074,3.737,0,1.512.756,2.708,2.037,3.317v.084c-1.092.273-1.869.798-1.869,1.89,0,.735.357,1.218.967,1.512v.231c-1.071.294-1.723.924-1.723,2.1,0,1.701,1.387,2.667,4.767,2.667,3.485,0,5.249-1.029,5.249-3.254Z" fill="#161616" stroke-width="0"/>
  <path d="M558.029,737.166c-1.302,0-2.142-.609-2.142-1.68v-.441c0-1.05.861-1.638,2.771-1.638h2.226v1.785c0,1.113-1.196,1.974-2.855,1.974ZM563.804,738.342v-1.47h-1.239v-5.963c0-2.289-1.554-3.653-4.157-3.653-1.953,0-3.254.966-3.842,2.121l1.008.945c.588-.987,1.448-1.617,2.75-1.617,1.722,0,2.562.84,2.562,2.373v1.071h-2.142c-3.149,0-4.619,1.134-4.619,3.17,0,2.016,1.344,3.275,3.633,3.275,1.512,0,2.666-.693,3.128-2.016h.104c.127,1.008.631,1.764,1.869,1.764h.945ZM547.046,737.082c-1.533,0-2.793-.798-2.793-2.205v-4.031c0-1.197,1.26-2.079,2.793-2.079,1.89,0,3.065,1.302,3.065,3.233v1.848c0,1.932-1.176,3.233-3.065,3.233ZM542.573,742.541h1.68v-5.963h.084c.651,1.344,1.68,2.016,3.171,2.016,2.708,0,4.409-2.205,4.409-5.669s-1.701-5.669-4.409-5.669c-1.491,0-2.604.651-3.171,2.016h-.084v-1.764h-1.68v15.033ZM534.425,738.594c3.15,0,5.039-1.722,5.039-4.409,0-2.184-1.238-3.443-4.094-4.094l-1.197-.273c-1.848-.42-2.75-1.05-2.75-2.436,0-1.575,1.154-2.394,3.023-2.394,1.701,0,2.813.693,3.611,1.806l1.322-.966c-1.092-1.554-2.645-2.394-4.85-2.394-2.877,0-4.85,1.407-4.85,4.01,0,2.247,1.469,3.422,4.136,4.031l1.196.273c1.932.441,2.709,1.134,2.709,2.52,0,1.68-1.134,2.771-3.233,2.771-1.7,0-2.919-.735-3.947-2.1l-1.302,1.092c1.176,1.596,2.834,2.562,5.186,2.562ZM524.661,738.342h1.68v-10.834h-1.68v10.834ZM525.501,724.967c.715,0,1.029-.378,1.029-.945v-.273c0-.567-.314-.945-1.029-.945s-1.028.378-1.028.945v.273c0,.567.315.945,1.028.945ZM518.403,738.342v-7.349c0-1.029,1.092-1.806,2.896-1.806h.987v-1.68h-.651c-1.764,0-2.75.966-3.128,1.995h-.104v-1.995h-1.68v10.834h1.68ZM513.614,738.342v-1.47h-2.204v-7.895h2.372v-1.47h-2.372v-3.002h-1.512v2.016c0,.735-.231.987-.944.987h-1.008v1.47h1.784v7.58c0,1.05.63,1.785,1.784,1.785h2.1Z" fill="#161616" stroke-width="0"/>
  <path d="M570.462,738.594c2.057,0,3.464-1.008,4.156-2.562l-1.217-.819c-.588,1.239-1.575,1.89-2.939,1.89-1.995,0-3.023-1.365-3.023-3.254v-1.848c0-1.89,1.028-3.254,3.023-3.254,1.322,0,2.246.651,2.645,1.764l1.407-.714c-.63-1.491-1.911-2.541-4.052-2.541-3.045,0-4.83,2.205-4.83,5.669s1.785,5.669,4.83,5.669Z" fill="#161616" stroke-width="0"/>
  <path d="M596.29,732.463h-5.06l2.478-7.139h.105l2.477,7.139ZM600.049,738.342l-5.123-14.655h-2.247l-5.123,14.655h1.785l1.47-4.325h5.921l1.47,4.325h1.848ZM581.171,728.663c1.721,0,2.876,1.281,2.876,3.191v.231h-5.983v-.147c0-1.89,1.28-3.275,3.107-3.275ZM581.171,738.594c2.036,0,3.59-1.008,4.283-2.478l-1.197-.861c-.566,1.197-1.617,1.869-2.981,1.869-2.016,0-3.212-1.407-3.212-3.275v-.504h7.789v-.798c0-3.065-1.785-5.291-4.682-5.291-2.939,0-4.871,2.226-4.871,5.669s1.932,5.669,4.871,5.669Z" fill="#161616" stroke-width="0"/>
  <path d="M605.825,738.342v-1.47h-1.596v-14.067h-1.68v13.794c0,1.008.629,1.743,1.784,1.743h1.491Z" fill="#161616" stroke-width="0"/>
  <path d="M665.736,737.103c-1.806,0-3.087-1.113-3.087-3.401v-1.554c0-2.289,1.281-3.401,3.087-3.401s3.087,1.113,3.087,3.401v1.554c0,2.289-1.281,3.401-3.087,3.401ZM665.736,738.594c2.897,0,4.892-2.226,4.892-5.669s-1.994-5.669-4.892-5.669-4.892,2.226-4.892,5.669,1.994,5.669,4.892,5.669ZM656.161,738.342h1.68v-10.834h-1.68v10.834ZM657.001,724.967c.715,0,1.029-.378,1.029-.945v-.273c0-.567-.314-.945-1.029-.945s-1.028.378-1.028.945v.273c0,.567.315.945,1.028.945ZM653.052,738.342v-1.47h-2.204v-7.895h2.372v-1.47h-2.372v-3.002h-1.512v2.016c0,.735-.231.987-.944.987h-1.008v1.47h1.784v7.58c0,1.05.63,1.785,1.784,1.785h2.1ZM640.159,737.166c-1.302,0-2.142-.609-2.142-1.68v-.441c0-1.05.86-1.638,2.771-1.638h2.226v1.785c0,1.113-1.197,1.974-2.855,1.974ZM645.933,738.342v-1.47h-1.238v-5.963c0-2.289-1.554-3.653-4.157-3.653-1.952,0-3.255.966-3.843,2.121l1.008.945c.588-.987,1.449-1.617,2.751-1.617,1.722,0,2.562.84,2.562,2.373v1.071h-2.142c-3.149,0-4.619,1.134-4.619,3.17,0,2.016,1.344,3.275,3.632,3.275,1.512,0,2.667-.693,3.129-2.016h.105c.125,1.008.629,1.764,1.868,1.764h.944ZM630.353,738.594c2.057,0,3.464-1.008,4.156-2.562l-1.217-.819c-.588,1.239-1.575,1.89-2.939,1.89-1.995,0-3.023-1.365-3.023-3.254v-1.848c0-1.89,1.028-3.254,3.023-3.254,1.322,0,2.246.651,2.645,1.764l1.407-.714c-.63-1.491-1.911-2.541-4.052-2.541-3.045,0-4.83,2.205-4.83,5.669s1.785,5.669,4.83,5.669ZM618.424,737.103c-1.806,0-3.087-1.113-3.087-3.401v-1.554c0-2.289,1.281-3.401,3.087-3.401s3.087,1.113,3.087,3.401v1.554c0,2.289-1.281,3.401-3.087,3.401ZM618.424,738.594c2.897,0,4.892-2.226,4.892-5.669s-1.994-5.669-4.892-5.669-4.892,2.226-4.892,5.669,1.994,5.669,4.892,5.669ZM611.663,738.342v-1.47h-1.596v-14.067h-1.68v13.794c0,1.008.629,1.743,1.784,1.743h1.491Z" fill="#161616" stroke-width="0"/>
  <path d="M675.313,738.342v-7.517c0-1.386,1.301-2.058,2.645-2.058,1.617,0,2.457.987,2.457,2.918v6.656h1.68v-6.95c0-2.625-1.406-4.136-3.633-4.136-1.616,0-2.54.798-3.064,2.016h-.084v-1.764h-1.68v10.834h1.68Z" fill="#161616" stroke-width="0"/>
  <rect x="484.033" y="725.609" width="10.606" height="10.606" transform="translate(-373.51 560.092) rotate(-45)" fill="#007d79" stroke-width="0"/>
  <rect x="484.033" y="677.609" width="10.606" height="10.606" transform="translate(-339.569 546.033) rotate(-45)" fill="#007d79" stroke-width="0"/>
  <rect x="484.033" y="629.609" width="10.606" height="10.606" transform="translate(-305.628 531.974) rotate(-45)" fill="#007d79" stroke-width="0"/>
  <rect x="484.033" y="581.609" width="10.606" height="10.606" transform="translate(-271.687 517.916) rotate(-45)" fill="#007d79" stroke-width="0"/>
  <rect x="484.033" y="533.609" width="10.607" height="10.607" transform="translate(-237.746 503.857) rotate(-45)" fill="#007d79" stroke-width="0"/>
  <rect x="484.033" y="485.609" width="10.606" height="10.606" transform="translate(-203.804 489.798) rotate(-45)" fill="#007d79" stroke-width="0"/>
  <rect x="484.033" y="437.609" width="10.606" height="10.606" transform="translate(-169.863 475.739) rotate(-45)" fill="#007d79" stroke-width="0"/>
  <rect x="484.033" y="389.609" width="10.606" height="10.606" transform="translate(-135.922 461.68) rotate(-45)" fill="#007d79" stroke-width="0"/>
  <rect x="484.033" y="341.609" width="10.606" height="10.606" transform="translate(-101.981 447.621) rotate(-45)" fill="#007d79" stroke-width="0"/>
  <path d="M232.272,546.342v-6.719c0-1.197.945-1.701,2.75-1.701h.84v-2.541h-.588c-1.742,0-2.624,1.113-2.896,2.268h-.105v-2.268h-2.688v10.96h2.688ZM221.878,544.431c-1.387,0-2.268-.903-2.268-2.562v-2.037c0-1.638.881-2.541,2.268-2.541,1.406,0,2.288.903,2.288,2.541v2.037c0,1.659-.882,2.562-2.288,2.562ZM221.878,546.594c3.148,0,5.102-2.226,5.102-5.753,0-3.506-1.953-5.711-5.102-5.711-3.129,0-5.082,2.205-5.082,5.711,0,3.527,1.953,5.753,5.082,5.753ZM209.823,544.431c-1.385,0-2.268-.903-2.268-2.562v-2.037c0-1.638.883-2.541,2.268-2.541,1.407,0,2.289.903,2.289,2.541v2.037c0,1.659-.882,2.562-2.289,2.562ZM209.823,546.594c3.15,0,5.103-2.226,5.103-5.753,0-3.506-1.952-5.711-5.103-5.711-3.128,0-5.08,2.205-5.08,5.711,0,3.527,1.952,5.753,5.08,5.753ZM203.21,546.342v-2.142h-1.449v-13.396h-2.688v12.892c0,1.68.861,2.646,2.688,2.646h1.449ZM192.038,546.342h2.688v-8.839h2.246v-2.121h-2.246v-2.436h2.246v-2.142h-1.91c-1.974,0-3.023,1.071-3.023,3.002v1.575h-1.617v2.121h1.617v8.839ZM178.01,544.368c-1.386,0-2.331-1.008-2.331-2.562v-1.89c0-1.554.945-2.583,2.331-2.583,1.28,0,2.268.693,2.268,1.764v3.485c0,1.134-.987,1.785-2.268,1.785ZM180.277,546.342h2.688v-15.537h-2.688v6.383h-.104c-.379-1.26-1.575-2.058-3.023-2.058-2.751,0-4.283,2.058-4.283,5.711,0,3.674,1.532,5.753,4.283,5.753,1.448,0,2.624-.84,3.023-2.079h.104v1.827ZM163.583,546.342v-7.244c0-1.176,1.07-1.764,2.184-1.764,1.281,0,1.806.798,1.806,2.352v6.656h2.688v-6.929c0-2.729-1.26-4.283-3.507-4.283-1.7,0-2.624.903-3.064,2.079h-.105v-1.827h-2.688v10.96h2.688ZM153.188,544.431c-1.387,0-2.268-.903-2.268-2.562v-2.037c0-1.638.881-2.541,2.268-2.541,1.406,0,2.288.903,2.288,2.541v2.037c0,1.659-.882,2.562-2.288,2.562ZM153.188,546.594c3.148,0,5.102-2.226,5.102-5.753,0-3.506-1.953-5.711-5.102-5.711-3.129,0-5.082,2.205-5.082,5.711,0,3.527,1.953,5.753,5.082,5.753ZM142.163,546.594c2.121,0,3.653-.966,4.367-2.897l-2.058-.987c-.399.987-1.028,1.722-2.31,1.722-1.49,0-2.246-1.029-2.246-2.562v-1.995c0-1.533.756-2.583,2.246-2.583,1.154,0,1.848.672,2.1,1.596l2.205-.987c-.651-1.722-2.1-2.771-4.305-2.771-3.233,0-5.061,2.205-5.061,5.711,0,3.527,1.827,5.753,5.061,5.753ZM130.276,537.146c1.387,0,2.163,1.029,2.163,2.541v.189h-4.493v-.168c0-1.512.924-2.562,2.33-2.562ZM130.319,546.594c2.036,0,3.632-.777,4.535-2.016l-1.449-1.617c-.672.861-1.47,1.491-2.793,1.491-1.764,0-2.666-1.071-2.666-2.646v-.273h7.285v-.882c0-3.002-1.574-5.522-4.996-5.522-3.213,0-5.082,2.247-5.082,5.711,0,3.506,1.932,5.753,5.166,5.753ZM117.552,546.594c3.506,0,5.5-1.89,5.5-4.661,0-2.415-1.385-3.737-4.346-4.262l-1.365-.252c-1.406-.252-2.036-.714-2.036-1.827,0-1.092.819-1.722,2.394-1.722,1.554,0,2.562.609,3.275,1.512l1.89-1.785c-1.176-1.407-2.813-2.163-5.019-2.163-3.275,0-5.312,1.701-5.312,4.325,0,2.394,1.428,3.8,4.388,4.262l1.387.21c1.532.273,1.994.882,1.994,1.869,0,1.239-.882,2.058-2.582,2.058-1.512,0-2.751-.63-3.759-1.806l-1.868,1.806c1.238,1.449,2.96,2.436,5.459,2.436Z" fill="#161616" stroke-width="0"/>
  <path d="M93.274,532.913h0c3.314,0,6,2.686,6,6s-2.686,6-6,6-6-2.687-6-6,2.686-6,6-6Z" fill="#0043ce" stroke-width="0"/>
  <path d="M94,1013.43h0c-3.314,0-6-2.686-6-6s2.686-6,6-6,6,2.687,6,6-2.686,6-6,6Z" fill="#0043ce" stroke-width="0"/>
  <path d="M172.352,1012.28c-1.89,0-3.065-1.302-3.065-3.233v-1.848c0-1.932,1.176-3.233,3.065-3.233,1.533,0,2.793.882,2.793,2.079v4.031c0,1.407-1.26,2.205-2.793,2.205ZM175.145,1013.54h1.68v-15.537h-1.68v6.467h-.084c-.567-1.365-1.68-2.016-3.171-2.016-2.708,0-4.409,2.205-4.409,5.669s1.701,5.669,4.409,5.669c1.491,0,2.52-.672,3.171-2.016h.084v1.764ZM162.314,1013.54v-7.349c0-1.029,1.092-1.806,2.896-1.806h.987v-1.68h-.651c-1.764,0-2.75.966-3.128,1.995h-.104v-1.995h-1.68v10.834h1.68ZM152.969,1012.301c-1.806,0-3.086-1.113-3.086-3.401v-1.554c0-2.289,1.28-3.401,3.086-3.401s3.086,1.113,3.086,3.401v1.554c0,2.289-1.28,3.401-3.086,3.401ZM152.969,1013.792c2.897,0,4.893-2.226,4.893-5.669s-1.995-5.669-4.893-5.669-4.893,2.226-4.893,5.669,1.995,5.669,4.893,5.669ZM142.469,1013.792c2.059,0,3.465-1.008,4.158-2.562l-1.219-.819c-.588,1.239-1.574,1.89-2.939,1.89-1.994,0-3.023-1.365-3.023-3.254v-1.848c0-1.89,1.029-3.254,3.023-3.254,1.323,0,2.247.651,2.646,1.764l1.406-.714c-.63-1.491-1.91-2.541-4.053-2.541-3.044,0-4.828,2.205-4.828,5.669s1.784,5.669,4.828,5.669ZM130.982,1003.861c1.721,0,2.876,1.281,2.876,3.191v.231h-5.983v-.147c0-1.89,1.28-3.275,3.107-3.275ZM130.982,1013.792c2.036,0,3.59-1.008,4.283-2.478l-1.197-.861c-.566,1.197-1.617,1.869-2.981,1.869-2.016,0-3.212-1.407-3.212-3.275v-.504h7.789v-.798c0-3.065-1.785-5.291-4.682-5.291-2.939,0-4.871,2.226-4.871,5.669s1.932,5.669,4.871,5.669ZM115.715,1005.729v-5.291h4.074c1.385,0,2.204.756,2.204,2.1v1.092c0,1.344-.819,2.1-2.204,2.1h-4.074ZM115.715,1007.241h3.423l3.171,6.299h1.994l-3.359-6.467c1.91-.441,2.939-1.89,2.939-4.031,0-2.667-1.533-4.157-4.094-4.157h-5.838v14.655h1.764v-6.299Z" fill="#6f6f6f" stroke-width="0"/>
  <path d="M293.967,1003.861c1.721,0,2.876,1.281,2.876,3.191v.231h-5.983v-.147c0-1.89,1.28-3.275,3.107-3.275ZM293.967,1013.792c2.036,0,3.59-1.008,4.283-2.478l-1.197-.861c-.566,1.197-1.617,1.869-2.981,1.869-2.016,0-3.212-1.407-3.212-3.275v-.504h7.789v-.798c0-3.065-1.785-5.291-4.682-5.291-2.939,0-4.871,2.226-4.871,5.669s1.932,5.669,4.871,5.669ZM287.457,1013.54v-1.47h-1.596v-14.067h-1.68v13.794c0,1.008.629,1.743,1.784,1.743h1.491ZM278.93,1013.54h1.68v-10.834h-1.68v7.496c0,1.428-1.301,2.079-2.624,2.079-1.616,0-2.478-.987-2.478-2.918v-6.656h-1.68v6.95c0,2.625,1.428,4.136,3.653,4.136,1.806,0,2.624-.987,3.044-2.016h.084v1.764ZM264.21,1012.28c-1.89,0-3.065-1.302-3.065-3.233v-1.848c0-1.932,1.176-3.233,3.065-3.233,1.532,0,2.792.882,2.792,2.079v4.031c0,1.407-1.26,2.205-2.792,2.205ZM267.002,1013.54h1.68v-15.537h-1.68v6.467h-.084c-.566-1.365-1.68-2.016-3.17-2.016-2.709,0-4.409,2.205-4.409,5.669s1.7,5.669,4.409,5.669c1.49,0,2.52-.672,3.17-2.016h.084v1.764ZM252.408,1012.301c-1.806,0-3.086-1.113-3.086-3.401v-1.554c0-2.289,1.28-3.401,3.086-3.401s3.086,1.113,3.086,3.401v1.554c0,2.289-1.28,3.401-3.086,3.401ZM252.408,1013.792c2.897,0,4.893-2.226,4.893-5.669s-1.995-5.669-4.893-5.669-4.893,2.226-4.893,5.669,1.995,5.669,4.893,5.669ZM231.43,1013.54h1.723v-12.346h.104l1.239,2.457,3.506,6.383,3.506-6.383,1.239-2.457h.104v12.346h1.723v-14.655h-2.268l-4.221,7.895h-.105l-4.199-7.895h-2.352v14.655Z" fill="#6f6f6f" stroke-width="0"/>
  <rect x="207.668" y="1002.127" width="10.607" height="10.607" transform="translate(-649.983 445.663) rotate(-45)" fill="#007d79" stroke-width="0"/>
  <rect x="328.253" y="1000.716" width="12" height="12" fill="#d12771" stroke-width="0"/>
  <path d="M503,1014.145v-1.47h-2.205v-7.895h2.373v-1.47h-2.373v-3.002h-1.512v2.016c0,.735-.23.987-.945.987h-1.008v1.47h1.785v7.58c0,1.05.63,1.785,1.785,1.785h2.1ZM491.975,1014.397c2.057,0,3.464-1.008,4.156-2.562l-1.217-.819c-.588,1.239-1.575,1.89-2.939,1.89-1.995,0-3.023-1.365-3.023-3.254v-1.848c0-1.89,1.028-3.254,3.023-3.254,1.322,0,2.246.651,2.645,1.764l1.407-.714c-.63-1.491-1.911-2.541-4.052-2.541-3.045,0-4.83,2.205-4.83,5.669s1.785,5.669,4.83,5.669ZM480.488,1004.466c1.721,0,2.876,1.281,2.876,3.191v.231h-5.983v-.147c0-1.89,1.28-3.275,3.107-3.275ZM480.488,1014.397c2.036,0,3.59-1.008,4.283-2.478l-1.197-.861c-.566,1.197-1.617,1.869-2.981,1.869-2.016,0-3.212-1.407-3.212-3.275v-.504h7.789v-.798c0-3.065-1.785-5.291-4.682-5.291-2.939,0-4.871,2.226-4.871,5.669s1.932,5.669,4.871,5.669ZM472.004,1000.771c.715,0,1.029-.378,1.029-.945v-.273c0-.567-.314-.945-1.029-.945s-1.028.378-1.028.945v.273c0,.567.315.945,1.028.945ZM471.164,1016.875h-1.764v1.47h1.092c1.617,0,2.352-1.029,2.352-2.52v-12.514h-1.68v13.563ZM463.457,1012.885c-1.533,0-2.793-.798-2.793-2.205v-4.031c0-1.197,1.26-2.079,2.793-2.079,1.89,0,3.065,1.302,3.065,3.233v1.848c0,1.932-1.176,3.233-3.065,3.233ZM458.984,1014.145h1.68v-1.764h.084c.651,1.344,1.68,2.016,3.171,2.016,2.708,0,4.409-2.205,4.409-5.669s-1.701-5.669-4.409-5.669c-1.491,0-2.604.651-3.171,2.016h-.084v-6.467h-1.68v15.537ZM449.765,1012.822c-2.54,0-4.325-1.89-4.325-4.787v-2.436c0-2.897,1.785-4.787,4.325-4.787s4.325,1.89,4.325,4.787v2.436c0,2.897-1.785,4.787-4.325,4.787ZM449.765,1014.397c3.779,0,6.215-2.667,6.215-7.58s-2.436-7.58-6.215-7.58-6.215,2.667-6.215,7.58,2.436,7.58,6.215,7.58ZM432.188,1014.397c2.478,0,4.011-1.281,4.011-3.38,0-1.638-.924-2.688-3.318-3.044l-.84-.126c-1.344-.21-2.078-.63-2.078-1.68,0-1.029.734-1.68,2.121-1.68s2.309.651,2.792,1.323l1.112-1.008c-.881-1.092-2.036-1.743-3.779-1.743-2.204,0-3.863,1.05-3.863,3.191,0,2.016,1.491,2.834,3.486,3.128l.86.126c1.428.21,1.89.861,1.89,1.701,0,1.113-.84,1.764-2.268,1.764-1.365,0-2.373-.609-3.213-1.659l-1.196.966c.966,1.281,2.288,2.121,4.283,2.121ZM422.087,1014.397c2.478,0,4.011-1.281,4.011-3.38,0-1.638-.924-2.688-3.318-3.044l-.84-.126c-1.344-.21-2.078-.63-2.078-1.68,0-1.029.734-1.68,2.121-1.68s2.309.651,2.792,1.323l1.112-1.008c-.881-1.092-2.036-1.743-3.779-1.743-2.204,0-3.863,1.05-3.863,3.191,0,2.016,1.491,2.834,3.486,3.128l.86.126c1.428.21,1.89.861,1.89,1.701,0,1.113-.84,1.764-2.268,1.764-1.365,0-2.373-.609-3.213-1.659l-1.196.966c.966,1.281,2.288,2.121,4.283,2.121ZM411.377,1004.466c1.723,0,2.877,1.281,2.877,3.191v.231h-5.984v-.147c0-1.89,1.281-3.275,3.107-3.275ZM411.377,1014.397c2.037,0,3.591-1.008,4.283-2.478l-1.196-.861c-.567,1.197-1.616,1.869-2.981,1.869-2.016,0-3.213-1.407-3.213-3.275v-.504h7.79v-.798c0-3.065-1.784-5.291-4.683-5.291-2.939,0-4.871,2.226-4.871,5.669s1.932,5.669,4.871,5.669ZM397.057,1014.145v-7.517c0-1.386,1.301-2.058,2.645-2.058,1.617,0,2.457.987,2.457,2.918v6.656h1.68v-6.95c0-2.625-1.406-4.136-3.633-4.136-1.616,0-2.54.798-3.064,2.016h-.084v-1.764h-1.68v10.834h1.68ZM390.127,1014.145h1.68v-10.834h-1.68v10.834ZM390.967,1000.771c.713,0,1.028-.378,1.028-.945v-.273c0-.567-.315-.945-1.028-.945s-1.029.378-1.029.945v.273c0,.567.314.945,1.029.945ZM383.153,1014.397c2.478,0,4.011-1.281,4.011-3.38,0-1.638-.924-2.688-3.318-3.044l-.84-.126c-1.344-.21-2.078-.63-2.078-1.68,0-1.029.734-1.68,2.121-1.68s2.309.651,2.792,1.323l1.112-1.008c-.881-1.092-2.036-1.743-3.779-1.743-2.204,0-3.863,1.05-3.863,3.191,0,2.016,1.491,2.834,3.486,3.128l.86.126c1.428.21,1.89.861,1.89,1.701,0,1.113-.84,1.764-2.268,1.764-1.365,0-2.373-.609-3.213-1.659l-1.196.966c.966,1.281,2.288,2.121,4.283,2.121ZM374.648,1014.145h1.68v-10.834h-1.68v7.496c0,1.428-1.303,2.079-2.625,2.079-1.617,0-2.478-.987-2.478-2.918v-6.656h-1.68v6.95c0,2.625,1.428,4.136,3.653,4.136,1.806,0,2.625-.987,3.045-2.016h.084v1.764ZM356.189,1001.043h4.053c1.386,0,2.226.735,2.226,2.037v.714c0,1.302-.84,2.037-2.226,2.037h-4.053v-4.787ZM356.189,1007.342h4.347c1.512,0,2.436.798,2.436,2.268v.714c0,1.47-.924,2.268-2.436,2.268h-4.347v-5.249ZM354.426,1014.145h6.656c2.162,0,3.779-1.827,3.779-4.241,0-2.436-1.826-3.338-2.877-3.401v-.126c.967-.147,2.373-.924,2.373-3.107,0-2.289-1.49-3.779-3.905-3.779h-6.026v14.655Z" fill="#6f6f6f" stroke-width="0"/>
</svg>