<svg id="a4e813a9-544d-4db2-9535-65e985f675d8" data-name="Layer 1" xmlns="http://www.w3.org/2000/svg" xmlns:xlink="http://www.w3.org/1999/xlink" viewBox="0 0 288 288">
  <defs>
    <linearGradient id="b7d3f088-48cf-45fa-81de-fcf1a754c5d1" x1="51.547" y1="79.303" x2="86.33" y2="79.303" gradientUnits="userSpaceOnUse">
      <stop offset="0.1" stop-color="#fff"/>
      <stop offset="0.85"/>
    </linearGradient>
    <linearGradient id="be4cfd53-ffa5-4883-9ab0-25ebe0a017cd" x1="66.73" y1="44.208" x2="120.941" y2="98.419" gradientUnits="userSpaceOnUse">
      <stop offset="0" stop-color="#161616"/>
      <stop offset="0.9" stop-color="#fff"/>
    </linearGradient>
    <linearGradient id="a3873f87-bbee-4194-b55b-16a34ab363d0" x1="44.141" y1="100.905" x2="103.291" y2="100.905" gradientUnits="userSpaceOnUse">
      <stop offset="0.1" stop-color="#fff"/>
      <stop offset="1"/>
    </linearGradient>
    <linearGradient id="b255b4ba-9c8e-4f7b-bb01-b40c0edd751c" x1="190.847" y1="78.34" x2="208.628" y2="47.543" gradientUnits="userSpaceOnUse">
      <stop offset="0.1" stop-color="#fff"/>
      <stop offset="1" stop-color="#fff" stop-opacity="0"/>
    </linearGradient>
    <linearGradient id="b5a53777-f49f-4e0b-8217-ea8b599168fc" x1="-845.153" y1="-6264.098" x2="-827.372" y2="-6294.895" gradientTransform="translate(-627 -6214) rotate(180)" xlink:href="#b255b4ba-9c8e-4f7b-bb01-b40c0edd751c"/>
    <linearGradient id="a692f719-4cd3-4d5e-bc1e-e133c1e8c632" x1="190.847" y1="112.902" x2="208.628" y2="82.105" xlink:href="#b255b4ba-9c8e-4f7b-bb01-b40c0edd751c"/>
    <linearGradient id="add7a9b3-e5d9-4c8c-99f4-492b158652b1" x1="-845.153" y1="-6298.66" x2="-827.372" y2="-6329.457" gradientTransform="translate(-627 -6214) rotate(180)" xlink:href="#b255b4ba-9c8e-4f7b-bb01-b40c0edd751c"/>
    <linearGradient id="b6d7c800-05a8-4f57-a9b7-3e4f8f63eff5" x1="2844.847" y1="-2575.66" x2="2862.628" y2="-2606.457" gradientTransform="matrix(0, 1, 1, 0, 2777, -2777)" xlink:href="#b255b4ba-9c8e-4f7b-bb01-b40c0edd751c"/>
    <linearGradient id="bbc71bdf-2b12-429e-b717-0a38765ce1d3" x1="-3499.153" y1="-3610.098" x2="-3481.372" y2="-3640.895" gradientTransform="matrix(0, -1, -1, 0, -3437, -3404)" xlink:href="#b255b4ba-9c8e-4f7b-bb01-b40c0edd751c"/>
    <linearGradient id="e74650dc-878d-486b-827b-beede5959f79" x1="2844.847" y1="-2541.098" x2="2862.628" y2="-2571.895" gradientTransform="matrix(0, 1, 1, 0, 2777, -2777)" xlink:href="#b255b4ba-9c8e-4f7b-bb01-b40c0edd751c"/>
    <linearGradient id="bccfced5-427b-4dc1-9d48-a2b0437d192f" x1="-3499.153" y1="-3644.66" x2="-3481.372" y2="-3675.457" gradientTransform="matrix(0, -1, -1, 0, -3437, -3404)" xlink:href="#b255b4ba-9c8e-4f7b-bb01-b40c0edd751c"/>
    <linearGradient id="a2a118b3-c0da-47d7-8ba8-8d9357e4b8b4" x1="84.017" y1="232.023" x2="133.94" y2="182.1" gradientUnits="userSpaceOnUse">
      <stop offset="0"/>
      <stop offset="0.105" stop-color="#343434"/>
      <stop offset="0.227" stop-color="#696969"/>
      <stop offset="0.351" stop-color="#979797"/>
      <stop offset="0.474" stop-color="#bcbcbc"/>
      <stop offset="0.596" stop-color="#dadada"/>
      <stop offset="0.717" stop-color="#eee"/>
      <stop offset="0.836" stop-color="#fbfbfb"/>
      <stop offset="0.95" stop-color="#fff"/>
    </linearGradient>
    <linearGradient id="beaf7034-0a2b-47ee-aa48-72423beaeaa5" x1="3335.009" y1="-13922.402" x2="3309.78" y2="-13897.173" gradientTransform="translate(3374.234 -13683.338) rotate(180)" gradientUnits="userSpaceOnUse">
      <stop offset="0.1" stop-color="#e0e0e0"/>
      <stop offset="1"/>
    </linearGradient>
    <linearGradient id="ac338966-28bb-48d4-896d-163275415410" x1="3329.542" y1="-13917.65" x2="3301.299" y2="-13917.65" gradientTransform="translate(3374.234 -13683.338) rotate(180)" gradientUnits="userSpaceOnUse">
      <stop offset="0.1" stop-color="#e0e0e0"/>
      <stop offset="1" stop-color="#fff"/>
    </linearGradient>
    <linearGradient id="f4ffce49-69f3-42cd-8991-14b918bbdd28" x1="187.91" y1="199.205" x2="208.203" y2="199.205" gradientUnits="userSpaceOnUse">
      <stop offset="0.2" stop-color="#a8a8a8"/>
      <stop offset="0.347" stop-color="gray"/>
      <stop offset="0.567" stop-color="#494949"/>
      <stop offset="0.757" stop-color="#212121"/>
      <stop offset="0.908" stop-color="#090909"/>
      <stop offset="1"/>
    </linearGradient>
    <linearGradient id="a52ae02f-95a5-4d84-af51-5fc782770f5b" x1="168.16" y1="189.33" x2="229.187" y2="189.33" gradientUnits="userSpaceOnUse">
      <stop offset="0.1" stop-color="#a8a8a8"/>
      <stop offset="1"/>
    </linearGradient>
    <linearGradient id="bfa2aa77-882c-47dd-b658-6fc60445fb2a" x1="168.16" y1="224.781" x2="206.277" y2="224.781" gradientUnits="userSpaceOnUse">
      <stop offset="0.1" stop-color="#a8a8a8"/>
      <stop offset="0.9" stop-color="#fff"/>
    </linearGradient>
    <linearGradient id="ed45b3cb-759d-41a3-ab0f-bfb07f9805cf" x1="178.035" y1="194.267" x2="219.312" y2="194.267" gradientUnits="userSpaceOnUse">
      <stop offset="0.1" stop-color="#a8a8a8"/>
      <stop offset="0.265" stop-color="gray"/>
      <stop offset="0.513" stop-color="#494949"/>
      <stop offset="0.727" stop-color="#212121"/>
      <stop offset="0.896" stop-color="#090909"/>
      <stop offset="1"/>
    </linearGradient>
    <linearGradient id="afee210d-3e85-4e1f-8a98-fe5557cb9b17" x1="178.035" y1="219.844" x2="206.277" y2="219.844" gradientUnits="userSpaceOnUse">
      <stop offset="0.1" stop-color="#a8a8a8"/>
      <stop offset="0.95" stop-color="#fff"/>
    </linearGradient>
    <linearGradient id="f1c25613-53f0-4f1d-838a-bf4e31478e3c" x1="187.91" y1="214.906" x2="206.277" y2="214.906" gradientUnits="userSpaceOnUse">
      <stop offset="0.2" stop-color="#a8a8a8"/>
      <stop offset="0.95" stop-color="#fff"/>
    </linearGradient>
    <mask id="f6269b51-f178-4efe-82d8-5c1df3d9e8e9" x="44" y="42" width="79" height="79" maskUnits="userSpaceOnUse">
      <g>
        <path d="M74.31,90.684A22.789,22.789,0,0,1,51.547,67.922H55.1A19.21,19.21,0,0,0,84.45,84.236l1.88,3.019A22.711,22.711,0,0,1,74.31,90.684Z" fill="url(#b7d3f088-48cf-45fa-81de-fcf1a754c5d1)"/>
        <path d="M103.291,114.557l-1.866-3.026A35.259,35.259,0,1,0,64.2,51.64l-1.893-3.009a38.814,38.814,0,1,1,40.984,65.926Z" fill="url(#be4cfd53-ffa5-4883-9ab0-25ebe0a017cd)"/>
        <path d="M82.95,120.309A38.853,38.853,0,0,1,44.141,81.5H47.7a35.262,35.262,0,0,0,53.728,30.031l1.866,3.026A38.713,38.713,0,0,1,82.95,120.309Z" fill="url(#a3873f87-bbee-4194-b55b-16a34ab363d0)"/>
        <path d="M102.359,114.822a1.774,1.774,0,0,1-1.51-.84l-16.968-27.3a1.778,1.778,0,0,1,.569-2.447A19.207,19.207,0,1,0,55.1,67.922a1.778,1.778,0,1,1-3.556,0A22.763,22.763,0,1,1,87.8,86.258l16.066,25.848a1.779,1.779,0,0,1-1.508,2.716Z" fill="#fff"/>
        <path d="M57.305,57.289A35.069,35.069,0,0,0,47.7,81.5a1.778,1.778,0,0,1-3.556,0A38.64,38.64,0,0,1,62.307,48.631a1.775,1.775,0,0,1,2.451.558Z" fill="#fff"/>
      </g>
    </mask>
    <linearGradient id="f5d40abd-0238-4772-92d8-01f3701e86e4" x1="44" y1="121" x2="123" y2="42" gradientUnits="userSpaceOnUse">
      <stop offset="0.1" stop-color="#08bdba"/>
      <stop offset="0.9" stop-color="#0f62fe"/>
    </linearGradient>
    <mask id="ff02635d-4493-40e9-b9e9-f5d087dc85fc" x="165" y="42" width="79" height="79" maskUnits="userSpaceOnUse">
      <g>
        <path d="M204.5,83.278a19.06,19.06,0,0,1,0-38.119v3.557a15.5,15.5,0,1,0,0,31.006Z" fill="url(#b255b4ba-9c8e-4f7b-bb01-b40c0edd751c)"/>
        <path d="M204.5,83.278V79.722a15.5,15.5,0,0,0,0-31.006V45.159a19.06,19.06,0,0,1,0,38.119Z" fill="url(#b5a53777-f49f-4e0b-8217-ea8b599168fc)"/>
        <path d="M204.5,117.841a19.06,19.06,0,0,1,0-38.119v3.556a15.5,15.5,0,1,0,0,31.006Z" fill="url(#a692f719-4cd3-4d5e-bc1e-e133c1e8c632)"/>
        <path d="M204.5,117.841v-3.557a15.5,15.5,0,0,0,0-31.006V79.722a19.06,19.06,0,0,1,0,38.119Z" fill="url(#add7a9b3-e5d9-4c8c-99f4-492b158652b1)"/>
        <path d="M206.278,81.5h-3.556a15.5,15.5,0,0,0-31.006,0h-3.557a19.06,19.06,0,0,1,38.119,0Z" fill="url(#b6d7c800-05a8-4f57-a9b7-3e4f8f63eff5)"/>
        <path d="M187.219,100.559A19.082,19.082,0,0,1,168.159,81.5h3.557a15.5,15.5,0,0,0,31.006,0h3.556A19.081,19.081,0,0,1,187.219,100.559Z" fill="url(#bbc71bdf-2b12-429e-b717-0a38765ce1d3)"/>
        <path d="M240.841,81.5h-3.557a15.5,15.5,0,1,0-31.006,0h-3.556a19.06,19.06,0,0,1,38.119,0Z" fill="url(#e74650dc-878d-486b-827b-beede5959f79)"/>
        <path d="M221.781,100.559A19.081,19.081,0,0,1,202.722,81.5h3.556a15.5,15.5,0,1,0,31.006,0h3.557A19.082,19.082,0,0,1,221.781,100.559Z" fill="url(#bccfced5-427b-4dc1-9d48-a2b0437d192f)"/>
        <circle cx="204.5" cy="46.938" r="2.469"/>
        <circle cx="204.5" cy="81.5" r="2.469"/>
        <circle cx="169.938" cy="81.5" r="2.469"/>
        <circle cx="239.063" cy="81.5" r="2.469"/>
        <circle cx="204.5" cy="116.063" r="2.469"/>
      </g>
    </mask>
    <linearGradient id="b232989c-ce4c-418b-be26-0602c832dfb0" x1="165" y1="121" x2="244" y2="42" gradientUnits="userSpaceOnUse">
      <stop offset="0.1" stop-color="#a56eff"/>
      <stop offset="0.9" stop-color="#0f62fe"/>
    </linearGradient>
    <mask id="aec7845e-335f-4389-be9f-6cbc0bdb30ed" x="44" y="168" width="79" height="79" maskUnits="userSpaceOnUse">
      <g>
        <path d="M120.52,221.623h0l-46.906,0v-3.556l45.128,0V170.458H122.3v49.387a1.777,1.777,0,0,1-1.778,1.778Z" fill="url(#a2a118b3-c0da-47d7-8ba8-8d9357e4b8b4)"/>
        <path d="M69.378,217.371V170.458a1.779,1.779,0,0,1,1.778-1.778H120.52a1.778,1.778,0,1,1,0,3.556H72.935v45.135Z" fill="#fff"/>
        <path d="M48.248,244.53H44.692V219.844a1.78,1.78,0,0,1,1.778-1.778l22.213,0v3.556l-20.435,0Z" fill="url(#beaf7034-0a2b-47ee-aa48-72423beaeaa5)"/>
        <polygon points="49.502 242.754 49.501 242.756 49.506 242.754 49.502 242.754" fill="#fff"/>
        <path d="M71.157,246.308H46.47a1.778,1.778,0,0,1,0-3.556H69.379V222.316h3.556V244.53A1.779,1.779,0,0,1,71.157,246.308Z" fill="url(#ac338966-28bb-48d4-896d-163275415410)"/>
      </g>
    </mask>
    <linearGradient id="ab5d291a-19d6-4afc-a725-a6eedc5c5f53" x1="44" y1="247" x2="123" y2="168" gradientUnits="userSpaceOnUse">
      <stop offset="0.1" stop-color="#ee5396"/>
      <stop offset="0.9" stop-color="#8a3ffc"/>
    </linearGradient>
    <mask id="ff0c0945-032c-40d6-8cbc-d03c4a111261" x="165" y="168" width="79" height="79" maskUnits="userSpaceOnUse">
      <g>
        <path d="M204.5,242.062A34.562,34.562,0,0,0,239.062,207.5V175.4" fill="none" stroke="#fff" stroke-linejoin="round" stroke-width="3.555"/>
        <path d="M204.5,232.187A24.687,24.687,0,0,0,229.188,207.5V185.279" fill="none" stroke="#fff" stroke-linejoin="round" stroke-width="3.555"/>
        <path d="M208.2,192.687h-3.7A14.813,14.813,0,0,0,189.687,207.5" fill="none" stroke-linejoin="round" stroke-width="3.555" stroke="url(#f4ffce49-69f3-42cd-8991-14b918bbdd28)"/>
        <path d="M229.187,172.937H204.5A34.564,34.564,0,0,0,169.937,207.5" fill="none" stroke-linejoin="round" stroke-width="3.555" stroke="url(#a52ae02f-95a5-4d84-af51-5fc782770f5b)"/>
        <path d="M169.937,207.5A34.563,34.563,0,0,0,204.5,242.062" fill="none" stroke-linecap="round" stroke-linejoin="round" stroke-width="3.555" stroke="url(#bfa2aa77-882c-47dd-b658-6fc60445fb2a)"/>
        <path d="M219.312,182.812H204.5A24.688,24.688,0,0,0,179.812,207.5" fill="none" stroke-linejoin="round" stroke-width="3.555" stroke="url(#ed45b3cb-759d-41a3-ab0f-bfb07f9805cf)"/>
        <path d="M204.5,222.312A14.812,14.812,0,0,0,219.313,207.5V195.148" fill="none" stroke="#fff" stroke-linejoin="round" stroke-width="3.555"/>
        <path d="M179.812,207.5A24.687,24.687,0,0,0,204.5,232.187" fill="none" stroke-linecap="round" stroke-linejoin="round" stroke-width="3.555" stroke="url(#afee210d-3e85-4e1f-8a98-fe5557cb9b17)"/>
        <path d="M189.687,207.5A14.812,14.812,0,0,0,204.5,222.312" fill="none" stroke-linecap="round" stroke-linejoin="round" stroke-width="3.555" stroke="url(#f1c25613-53f0-4f1d-838a-bf4e31478e3c)"/>
      </g>
    </mask>
    <linearGradient id="b05dbf85-cd26-4898-bec0-b259be5c80ae" x1="165" y1="247" x2="244" y2="168" gradientUnits="userSpaceOnUse">
      <stop offset="0.1" stop-color="#42be65"/>
      <stop offset="0.9" stop-color="#007d79"/>
    </linearGradient>
  </defs>
  <path d="M0,0H288V288H0Z" fill="#fff" fill-rule="evenodd"/>
  <g>
    <g mask="url(#f6269b51-f178-4efe-82d8-5c1df3d9e8e9)">
      <rect x="44" y="42" width="79" height="79" fill="url(#f5d40abd-0238-4772-92d8-01f3701e86e4)"/>
    </g>
    <rect x="68.142" y="61.098" width="34.56" height="1.777"/>
    <rect x="63.204" y="68.504" width="32.091" height="1.777"/>
    <rect x="68.142" y="75.91" width="34.56" height="1.777"/>
  </g>
  <g>
    <g mask="url(#ff02635d-4493-40e9-b9e9-f5d087dc85fc)">
      <rect x="165" y="42" width="79" height="79" fill="url(#b232989c-ce4c-418b-be26-0602c832dfb0)"/>
    </g>
    <g>
      <path d="M204.509,43.578a3.358,3.358,0,1,0,3.357,3.358A3.361,3.361,0,0,0,204.509,43.578Zm0,4.937a1.58,1.58,0,1,1,1.58-1.579A1.582,1.582,0,0,1,204.509,48.515Z"/>
      <path d="M204.509,78.14a3.358,3.358,0,1,0,3.357,3.358A3.362,3.362,0,0,0,204.509,78.14Zm0,4.938a1.58,1.58,0,1,1,1.58-1.58A1.582,1.582,0,0,1,204.509,83.078Z"/>
      <path d="M204.509,112.7a3.358,3.358,0,1,0,3.357,3.358A3.361,3.361,0,0,0,204.509,112.7Zm0,4.937a1.58,1.58,0,1,1,1.58-1.579A1.582,1.582,0,0,1,204.509,117.64Z"/>
      <path d="M239.072,78.14a3.358,3.358,0,1,0,3.357,3.358A3.362,3.362,0,0,0,239.072,78.14Zm0,4.938a1.58,1.58,0,1,1,1.58-1.58A1.582,1.582,0,0,1,239.072,83.078Z"/>
      <path d="M169.947,78.14A3.358,3.358,0,1,0,173.3,81.5,3.362,3.362,0,0,0,169.947,78.14Zm0,4.938a1.58,1.58,0,1,1,1.58-1.58A1.582,1.582,0,0,1,169.947,83.078Z"/>
    </g>
  </g>
  <g>
    <g mask="url(#aec7845e-335f-4389-be9f-6cbc0bdb30ed)">
      <rect x="44" y="168" width="79" height="79" fill="url(#ab5d291a-19d6-4afc-a725-a6eedc5c5f53)"/>
    </g>
    <path d="M110.656,176.987a3.36,3.36,0,0,0-3.357,3.357,3.3,3.3,0,0,0,.452,1.649L72.806,216.938a3.315,3.315,0,0,0-1.65-.451,3.36,3.36,0,0,0-3.357,3.357,3.3,3.3,0,0,0,.452,1.649l-20,20v1.256H49.5l20-20a3.3,3.3,0,0,0,1.649.452,3.36,3.36,0,0,0,3.357-3.357,3.315,3.315,0,0,0-.451-1.65l34.945-34.945a3.3,3.3,0,0,0,1.649.452,3.357,3.357,0,0,0,0-6.714Zm-39.5,44.437a1.581,1.581,0,1,1,1.581-1.58A1.582,1.582,0,0,1,71.156,221.424Zm39.5-39.5a1.581,1.581,0,1,1,1.581-1.58A1.582,1.582,0,0,1,110.656,181.924Z"/>
  </g>
  <g>
    <g mask="url(#ff0c0945-032c-40d6-8cbc-d03c4a111261)">
      <rect x="165" y="168" width="79" height="79" fill="url(#b05dbf85-cd26-4898-bec0-b259be5c80ae)"/>
    </g>
    <path d="M219.312,196.045a3.358,3.358,0,1,1,3.358-3.357A3.361,3.361,0,0,1,219.312,196.045Zm0-4.937a1.58,1.58,0,1,0,1.581,1.58A1.581,1.581,0,0,0,219.312,191.108Z"/>
    <path d="M229.188,186.17a3.358,3.358,0,1,1,3.357-3.357A3.361,3.361,0,0,1,229.188,186.17Zm0-4.937a1.58,1.58,0,1,0,1.58,1.58A1.582,1.582,0,0,0,229.188,181.233Z"/>
    <path d="M239.062,176.3a3.358,3.358,0,1,1,3.358-3.357A3.361,3.361,0,0,1,239.062,176.3Zm0-4.937a1.58,1.58,0,1,0,1.581,1.58A1.581,1.581,0,0,0,239.062,171.358Z"/>
  </g>
</svg>
