<?xml version="1.0" encoding="utf-8"?>
<!-- Generator: Adobe Illustrator 23.0.4, SVG Export Plug-In . SVG Version: 6.00 Build 0)  -->
<svg version="1.1" id="Layer_1" xmlns="http://www.w3.org/2000/svg" xmlns:xlink="http://www.w3.org/1999/xlink" x="0px" y="0px"
	 viewBox="0 0 1297.80005 730" style="enable-background:new 0 0 1297.80005 730;" xml:space="preserve">
<style type="text/css">
	.st0{fill:#FFFFFF;}
	.st1{fill:#97C1FF;}
	.st2{fill:#6F6F6F;}
	.st3{opacity:0.6;}
</style>
<rect class="st0" width="1297.80005" height="730"/>
<g>
	<path id="path-9" class="st0" d="M1086.80005,419v58.70001H1145.5c0.19995,1.89999,0.30005,3.89999,0.30005,5.89999
		c0,1.60001-0.59998,3.10001-1.69995,4.20001s-2.59998,1.70001-4.19995,1.70001h-59c-3.30005,0-5.90002-2.60001-5.90002-5.89999v-59
		c0-3.29999,2.59998-5.89999,5.90002-5.89999C1082.90002,418.79999,1084.90002,418.79999,1086.80005,419z"/>
</g>
<g>
	<path id="path-7" class="st0" d="M1051.40002,583.90002C1015.60004,583.90002,986.5,554.80005,986.5,519
		s29.09998-64.89999,64.90002-64.89999c3.30005,0,5.90002,2.60001,5.90002,5.89999v53.09998h53.09998
		c3.30005,0,5.90002,2.59998,5.90002,5.90002C1116.30005,554.90002,1087.30005,583.90002,1051.40002,583.90002z M1045.5,466.29999
		c-27.59998,3.10001-48.20001,27-47.20001,54.70001c1,27.79999,23.29999,50.09998,51.10004,51.09998
		s51.69995-19.5,54.69995-47.20001h-52.80005c-3.30005,0-5.90002-2.59998-5.90002-5.90002v-52.69995H1045.5z"/>
</g>
<title>Group 16</title>
<desc>Created with Sketch.</desc>
<g id="icon_x2F_navigation_x2F_down-to-bottom_x2F_24-copy-13" transform="translate(304.000000, 307.000000)">
	<g id="chat" transform="translate(0.437500, 0.875000)">
		<g id="Mask_1_">
			<path id="path-3_1_" d="M274.70001,151.10001H286.5V217c0,13-10.60001,23.60001-23.60001,23.60001h-28.60001L214.09999,276
				l-10.3-5.89999l23.60001-41.3h35.39999c6.5,0,11.79999-5.3,11.79999-11.8v-65.89999H274.70001z M256.10001,134.5H144.89999
				c-6.5,0-11.8,5.3-11.8,11.8v70.8c0,6.5,5.3,11.8,11.8,11.8H198v11.8h-53.10001c-13,0-23.6-10.60001-23.6-23.60001v-70.8
				c0-13,10.6-23.6,23.6-23.6h111.19998v11.8H256.10001z M156.7,158.10001h94.40001v11.8h-94.39999v-11.8H156.7z M156.7,193.5h59
				v11.8h-59V193.5z"/>
		</g>
	</g>
	<path id="Shape_1_" class="st1" d="M275.10001,152v-4.89999c0-6.5-5.29999-11.8-11.79999-11.8h-6.89999v-11.8h6.89999
		c13,0,23.60001,10.60001,23.60001,23.60001V152H275.10001z"/>
</g>
<g id="icon_x2F_navigation_x2F_down-to-bottom_x2F_24-copy-13_1_" transform="translate(705.000000, 299.000000)">
	<g id="diagram" transform="translate(0.437500, 25.437500)">
		<g id="Mask_3_">
			<path id="path-7_1_" d="M346,259.5c-35.79999,0-64.89999-29.10001-64.89999-64.89999S310.20001,129.70001,346,129.70001
				c3.29999,0,5.89999,2.60001,5.89999,5.89999v53.10001H405c3.29999,0,5.89999,2.60001,5.89999,5.89999
				C410.79999,230.39999,381.79999,259.5,346,259.5z M340.10001,141.8c-27.60001,3.10001-48.20001,27-47.20001,54.7
				S316.19998,246.60001,344,247.60001c27.79999,1,51.60001-19.5,54.70001-47.2H346c-3.29999,0-5.89999-2.60001-5.89999-5.89999
				V141.8z"/>
		</g>
		<g id="Mask_4_">
			<path id="path-9_1_" d="M381.39999,94.6v58.7h58.70001c0.20001,1.89999,0.29999,3.89999,0.29999,5.89999
				c0,1.60001-0.60001,3.10001-1.70001,4.2c-1.10001,1.10001-2.60001,1.7-4.20001,1.7h-59
				c-3.29999,0-5.89999-2.60001-5.89999-5.89999v-59c0-3.3,2.60001-5.9,5.89999-5.9C377.5,94.3,379.39999,94.4,381.39999,94.6z"/>
		</g>
	</g>
	<path id="Shape_3_" class="st1" d="M428.70001,178.8c-1.79999-13.60001-7-23.10001-14.79999-31.10001
		c-5.39999-5.60001-15.5-13.60001-32.10001-15.8v-11.9c31.10001,2.8,55.89999,27.50001,58.79999,58.6
		C440.60001,178.7,436.60001,178.8,428.70001,178.8z"/>
</g>
<path id="_x32_px" class="st2" d="M223.39999,647.40002v1.40002h-9v-1.70001l4.5-4.09998c1.3-1.20001,2.3-2.5,2.3-3.90002V639
	c0-1.5-0.8-2.5-2.5-2.5s-2.5,1-2.8,2.29999l-1.5-0.59998c0.5-1.59998,1.7-3.20001,4.39999-3.20001s4.2,1.59998,4.2,4
	c0,2.09998-1.3,3.59998-3,5.20001l-3.7,3.29999h7.10001V647.40002z M226.39999,652.79999v-14H228v1.59998h0.10001
	c0.5-1.29999,1.60001-1.90002,3-1.90002c2.5,0,4.10001,2.09998,4.10001,5.29999s-1.60001,5.29999-4.10001,5.29999
	c-1.39999,0-2.3-0.59998-3-1.90002H228v5.59998h-1.60001V652.79999z M230.5,647.70001c1.8,0,2.89999-1.20001,2.89999-3V643
	c0-1.79999-1.10001-3-2.89999-3c-1.39999,0-2.60001,0.79999-2.60001,1.90002v3.79999
	C227.89999,647,229.10001,647.70001,230.5,647.70001z M236.2,648.90002l3.7-5.09998l-3.60001-5h1.8l2.60001,3.79999H240.8
	l2.7-3.79999h1.7l-3.60001,4.90002l3.60001,5.20001h-1.8l-2.60001-4h-0.10001l-2.8,4H236.2V648.90002z"/>
<path id="_x34_px" class="st2" d="M501.60001,648.90002H500v-2.70001h-6.60001v-1.40002l5.70001-9.5H501.5v9.59998h2v1.40002h-2
	v2.60004H501.60001z M499.89999,636.5l-5,8.29999H500L499.89999,636.5L499.89999,636.5z M506.10001,652.79999v-14h1.60001v1.59998
	h0.10001c0.5-1.29999,1.60001-1.90002,3-1.90002c2.50003,0,4.10001,2.09998,4.10001,5.29999s-1.59998,5.29999-4.10001,5.29999
	c-1.39999,0-2.29999-0.59998-3-1.90002h-0.10001v5.59998h-1.60001V652.79999z M510.20001,647.70001
	c1.79999,0,2.90002-1.20001,2.90002-3V643c0-1.79999-1.09998-3-2.89999-3c-1.39999,0-2.60001,0.79999-2.60001,1.90002v3.79999
	C507.60001,647,508.79999,647.70001,510.20001,647.70001z M515.90002,648.90002l3.70001-5.09998l-3.59998-5h1.79999l2.59998,3.79999
	H520.5l2.70001-3.79999h1.70001l-3.59998,4.90002l3.59998,5.20001h-1.79999l-2.59998-4h-0.09998l-2.79999,4h-1.70007V648.90002z"/>
<path id="_x36_px" class="st2" d="M779.59998,649.09998c-2.79999,0-4.59998-2-4.59998-5.20001
	c0-4.09998,2.70001-7.20001,4.90002-8.70001H782c-2.90002,2.09998-4.5,3.90002-5.29999,7.09998h0.09998
	c0.59998-1.09998,1.59998-2,3.29999-2c2.29999,0,4,1.59998,4,4.20001C784.20001,647.29999,782.40002,649.09998,779.59998,649.09998z
	 M779.59998,647.70001c1.79999,0,2.90002-1,2.90002-2.90002v-0.20001c0-1.79999-1.09998-2.90002-2.90002-2.90002
	c-1.79999,0-2.90002,1-2.90002,2.90002v0.20001C776.79999,646.70001,777.79999,647.70001,779.59998,647.70001z M787.09998,652.79999
	v-14h1.59998v1.59998h0.09998c0.5-1.29999,1.59998-1.90002,3-1.90002c2.5,0,4.09998,2.09998,4.09998,5.29999
	s-1.59998,5.29999-4.09998,5.29999c-1.40002,0-2.29999-0.59998-3-1.90002h-0.09998v5.59998h-1.59998V652.79999z
	 M791.29999,647.70001c1.79999,0,2.90002-1.20001,2.90002-3V643c0-1.79999-1.09998-3-2.90002-3
	c-1.40002,0-2.59998,0.79999-2.59998,1.90002v3.79999C788.70001,647,789.90002,647.70001,791.29999,647.70001z M797,648.90002
	l3.70001-5.09998l-3.59998-5h1.79999l2.59998,3.79999h0.09998l2.70001-3.79999H806l-3.59998,4.90002L806,648.90009h-1.79999
	l-2.59998-4h-0.09998l-2.79999,4H797V648.90002z"/>
<path id="Full-circle" class="st2" d="M1030.30005,648.90002h-1.59998v-13.70001h8.09998v1.40002h-6.5v4.59998h5.90002v1.40002
	h-5.90002V648.90002z M1045.19995,648.90002v-1.59998h-0.09998c-0.40002,1-1.19995,1.90002-2.80005,1.90002
	c-2.09998,0-3.40002-1.40002-3.40002-3.90002v-6.5h1.59998v6.20001c0,1.79999,0.80005,2.70001,2.30005,2.70001
	c1.19995,0,2.40002-0.59998,2.40002-1.90002v-7h1.59998v10.09998H1045.19995z M1053.19995,648.90002h-1.40002
	c-1.09998,0-1.69995-0.70001-1.69995-1.59998v-12.90002h1.59998V647.5h1.5V648.90002z M1058.40002,648.90002H1057
	c-1.09998,0-1.69995-0.70001-1.69995-1.59998v-12.90002h1.59998V647.5h1.5V648.90002z M1069.09998,649.09998
	c-2.80005,0-4.5-2.09998-4.5-5.29999s1.69995-5.29999,4.5-5.29999c2,0,3.19995,1,3.80005,2.40002l-1.30005,0.70001
	c-0.40002-1-1.19995-1.59998-2.5-1.59998c-1.90002,0-2.80005,1.29999-2.80005,3v1.70001c0,1.79999,1,3,2.80005,3
	c1.30005,0,2.19995-0.59998,2.69995-1.79999l1.09998,0.79999C1072.30005,648.20001,1071,649.09998,1069.09998,649.09998z
	 M1075.90002,636.40002c-0.69995,0-1-0.40002-1-0.90002v-0.29999c0-0.5,0.30005-0.90002,1-0.90002s1,0.40002,1,0.90002V635.5
	C1076.90002,636.09998,1076.59998,636.40002,1075.90002,636.40002z M1075.09998,648.90002v-10.09998h1.59998v10.09998H1075.09998z
	 M1081.59998,648.90002H1080v-10.09998h1.59998v1.90002h0.09998c0.40002-1,1.30005-1.90002,2.90002-1.90002h0.59998v1.59998
	h-0.90002c-1.69995,0-2.69995,0.70001-2.69995,1.70001V648.90002z M1090.90002,649.09998c-2.80005,0-4.5-2.09998-4.5-5.29999
	s1.69995-5.29999,4.5-5.29999c2,0,3.19995,1,3.80005,2.40002l-1.30005,0.70001c-0.40002-1-1.19995-1.59998-2.5-1.59998
	c-1.90002,0-2.80005,1.29999-2.80005,3v1.70001c0,1.79999,1,3,2.80005,3c1.30005,0,2.19995-0.59998,2.69995-1.79999l1.09998,0.79999
	C1094.09998,648.20001,1092.80005,649.09998,1090.90002,649.09998z M1100,648.90002h-1.40002
	c-1.09998,0-1.69995-0.70001-1.69995-1.59998v-12.90002H1098.5V647.5h1.5V648.90002z M1106.09998,649.09998
	c-2.69995,0-4.5-2.09998-4.5-5.29999s1.80005-5.29999,4.5-5.29999s4.40002,2.09998,4.40002,4.90002v0.70001h-7.30005v0.5
	c0,1.70001,1.09998,3.09998,3,3.09998c1.30005,0,2.30005-0.59998,2.80005-1.70001l1.09998,0.79999
	C1109.40002,648.20001,1108,649.09998,1106.09998,649.09998z M1106.09998,639.90002c-1.69995,0-2.90002,1.29999-2.90002,3.09998
	v0.09998h5.59998v-0.20001C1108.80005,641.09998,1107.69995,639.90002,1106.09998,639.90002z"/>
<rect x="836.61255" y="558.53748" width="11.79999" height="25.39996"/>
<g>
	<path d="M789.41254,501.33752c22.79999,0,41.29999-18.5,41.29999-41.30005c0-22.79999-18.5-41.29999-41.29999-41.29999
		c-22.80005,0-41.30005,18.5-41.30005,41.29999C748.11249,482.83752,766.61249,501.33752,789.41254,501.33752z M789.41254,430.53748
		c16.29999,0,29.5,13.20001,29.5,29.5c0,16.30005-13.20001,29.5-29.5,29.5s-29.5-13.19995-29.5-29.5
		C759.91254,443.73749,773.11249,430.53748,789.41254,430.53748z"/>
	<path d="M803.29999,513.13751h-31.58746c-22.79999,0-41.29999,18.5-41.29999,41.29999v29.5h11.79999v-29.5
		c0-16.29999,13.20001-29.5,29.5-29.5h31.58746V513.13751z"/>
</g>
<path id="Shape_2_" class="st1" d="M848.40002,558.59998h-11.80005V554.5c0-16.29999-13.19995-29.5-29.5-29.5h-3.79993v-11.79999
	h3.79993c22.80005,0,41.30005,18.5,41.30005,41.29999V558.59998z"/>
<g>
	<path d="M158.05002,513.13751h-11.79999v-82.60001c0-6.50784,5.29213-11.79999,11.79999-11.79999h82.59998v11.79999h-82.59998
		V513.13751z"/>
</g>
<path id="Shape" class="st1" d="M299.64999,454.13751h-8.70001v11.79999h8.70001v9h11.79999v-9
	C311.45001,459.33752,306.25,454.13751,299.64999,454.13751z"/>
<path d="M299.64996,474.9375v97.19995H193.45001V465.9375h97.49994v-11.79999h-97.49994
	c-6.51697,0-11.79999,5.28296-11.79999,11.79999v106.19995c0,6.51703,5.28302,11.79999,11.79999,11.79999h106.19995
	c6.51697,0,11.79999-5.28296,11.79999-11.79999V474.9375H299.64996z"/>
<g class="st3">
	<path class="st1" d="M1064.59961,299.1958c-39.03906,0-70.7998-31.76074-70.7998-70.7998s31.76074-70.7998,70.7998-70.7998
		s70.80078,31.76074,70.80078,70.7998S1103.63867,299.1958,1064.59961,299.1958z M1064.59961,169.396
		c-32.53223,0-58.99902,26.46729-58.99902,59s26.4668,59,58.99902,59c32.5332,0,59-26.46729,59-59
		S1097.13281,169.396,1064.59961,169.396z"/>
</g>
<g class="st3">
	<path class="st1" d="M287.8501,299.1958h-118c-6.50635,0-11.7998-5.29346-11.7998-11.7998v-118
		c0-6.50635,5.29346-11.7998,11.7998-11.7998h118c6.50635,0,11.7998,5.29346,11.7998,11.7998v118
		C299.6499,293.90234,294.35645,299.1958,287.8501,299.1958z M287.8501,169.396h-118v118l118.00732-0.00049L287.8501,169.396z"/>
</g>
<g class="st3">
	<path class="st1" d="M555.73584,299.1958h-94.37207c-13.02051,0-23.61377-10.59326-23.61377-23.61377v-94.37207
		c0-13.02051,10.59326-23.61377,23.61377-23.61377h94.37207c13.021,0,23.61426,10.59326,23.61426,23.61377v94.37207
		C579.3501,288.60254,568.75684,299.1958,555.73584,299.1958z M461.36377,169.396c-6.51416,0-11.81396,5.2998-11.81396,11.81396
		v94.37207c0,6.51416,5.2998,11.81396,11.81396,11.81396h94.37207c6.51465,0,11.81445-5.2998,11.81445-11.81396v-94.37207
		c0-6.51416-5.2998-11.81396-11.81445-11.81396H461.36377z"/>
</g>
<g class="st3">
	<path class="st1" d="M818.88281,299.1958h-58.94141c-22.78906,0-41.3291-18.54004-41.3291-41.3291v-58.94141
		c0-22.78906,18.54004-41.3291,41.3291-41.3291h58.94141c22.78906,0,41.33008,18.54004,41.33008,41.3291v58.94141
		C860.21289,280.65576,841.67188,299.1958,818.88281,299.1958z M759.94141,169.396c-16.28223,0-29.52832,13.24707-29.52832,29.5293
		v58.94141c0,16.28223,13.24609,29.5293,29.52832,29.5293h58.94141c16.2832,0,29.5293-13.24707,29.5293-29.5293v-58.94141
		c0-16.28223-13.24609-29.5293-29.5293-29.5293H759.94141z"/>
</g>
</svg>
