<svg xmlns="http://www.w3.org/2000/svg" viewBox="0 0 32 32"><defs><linearGradient id="linear-gradient" x1="3877.5" y1="2804.5" x2="3888.5" y2="2804.5" gradientTransform="translate(-3854 -2796)" gradientUnits="userSpaceOnUse"><stop offset=".001" stop-opacity="0"/><stop offset=".7"/></linearGradient><linearGradient id="linear-gradient-2" y1="32" x2="32" gradientUnits="userSpaceOnUse"><stop offset=".1" stop-color="#a56eff"/><stop offset=".9" stop-color="#0f62fe"/></linearGradient><style>.cls-5{fill:#001d6c}</style><mask id="mask" x="0" y="0" width="32" height="32" maskUnits="userSpaceOnUse"><path d="M28 4H4a2 2 0 00-2 2v16a2 2 0 002 2h8v4H8v2h16v-2h-4v-4h8a2 2 0 002-2V6a2 2 0 00-2-2zM18 28h-4v-4h4zm10-6H4V6h24z" fill="#fff"/><path transform="rotate(-90 29 8.5)" fill="url(#linear-gradient)" d="M23.5 6.5h11v4h-11z" id="Gradients_black_" data-name="Gradients (black)"/></mask></defs><g id="Layer_2" data-name="Layer 2"><g id="Light_theme_icons" data-name="Light theme icons"><g mask="url(#mask)"><path id="Color" fill="url(#linear-gradient-2)" d="M0 0h32v32H0z"/></g><path class="cls-5" d="M15 10h2v8h-2zM20 14h2v4h-2zM10 12h2v6h-2z"/></g></g></svg>