<svg xmlns="http://www.w3.org/2000/svg" xmlns:xlink="http://www.w3.org/1999/xlink" viewBox="0 0 32 32" height="192" width="192"><defs><style>.cls-1{fill:#fff;}.cls-2{fill:url(#linear-gradient);}.cls-3{mask:url(#mask);}.cls-4{fill:url(#linear-gradient-2);}.cls-5{fill:#001d6c;}</style><linearGradient id="linear-gradient" x1="3877.5" y1="2804.5" x2="3888.5" y2="2804.5" gradientTransform="translate(-3854 -2796)" gradientUnits="userSpaceOnUse"><stop offset="0.001" stop-opacity="0"/><stop offset="0.7"/></linearGradient><mask id="mask" x="0" y="0" width="32" height="32" maskUnits="userSpaceOnUse"><path class="cls-1" d="M28,4H4A2,2,0,0,0,2,6V22a2,2,0,0,0,2,2h8v4H8v2H24V28H20V24h8a2,2,0,0,0,2-2V6A2,2,0,0,0,28,4ZM18,28H14V24h4Zm10-6H4V6H28Z"/><g id="Gradients_black_" data-name="Gradients (black)"><rect class="cls-2" x="23.5" y="6.5" width="11" height="4" transform="translate(20.5 37.5) rotate(-90)"/></g></mask><linearGradient id="linear-gradient-2" y1="32" x2="32" gradientUnits="userSpaceOnUse"><stop offset="0.1" stop-color="#a56eff"/><stop offset="0.9" stop-color="#0f62fe"/></linearGradient></defs><g id="Layer_2" data-name="Layer 2"><g id="Light_theme_icons" data-name="Light theme icons"><g class="cls-3"><rect id="Color" class="cls-4" width="32" height="32"/></g><rect class="cls-5" x="15" y="10" width="2" height="8"/><rect class="cls-5" x="20" y="14" width="2" height="4"/><rect class="cls-5" x="10" y="12" width="2" height="6"/></g></g></svg>