<svg xmlns="http://www.w3.org/2000/svg" xmlns:xlink="http://www.w3.org/1999/xlink" viewBox="0 0 32 32"><defs><style>.cls-1{fill:#fff;}.cls-2{fill:url(#linear-gradient);}.cls-3{mask:url(#mask);}.cls-4{fill:url(#linear-gradient-2);}.cls-5{fill:#001d6c;}</style><linearGradient id="linear-gradient" x1="9" y1="9" x2="18" y2="9" gradientUnits="userSpaceOnUse"><stop offset="0.1" stop-opacity="0"/><stop offset="0.8"/></linearGradient><mask id="mask" x="0" y="0" width="32" height="32" maskUnits="userSpaceOnUse"><path class="cls-1" d="M15,29a11,11,0,1,1,7.778-18.773h0A11,11,0,0,1,15,29ZM15,9a9,9,0,1,0,6.364,2.632A8.971,8.971,0,0,0,15,9Z"/><rect class="cls-2" x="9" y="3" width="9" height="12"/><rect x="17" y="3" width="12" height="15"/></mask><linearGradient id="linear-gradient-2" y1="32" x2="32" gradientUnits="userSpaceOnUse"><stop offset="0.1" stop-color="#ee5396"/><stop offset="0.9" stop-color="#8a3ffc"/></linearGradient></defs><g id="Layer_2" data-name="Layer 2"><g id="Light_theme_icons" data-name="Light theme icons"><g class="cls-3"><rect class="cls-4" width="32" height="32"/></g><path class="cls-5" d="M28.006,15H19a2,2,0,0,1-2-2V4a1.008,1.008,0,0,1,1.02-1A11.012,11.012,0,0,1,29,13.98,1,1,0,0,1,28.006,15ZM19,13h7.945A9.02,9.02,0,0,0,19,5.055Z"/></g></g></svg>