<svg xmlns="http://www.w3.org/2000/svg" xmlns:xlink="http://www.w3.org/1999/xlink" viewBox="0 0 32 32" height="192" width="192"><defs><style>.cls-1{fill:#fff;}.cls-2{fill:url(#linear-gradient);}.cls-3{mask:url(#mask);}.cls-4{fill:url(#linear-gradient-2);}.cls-5{fill:#001d6c;}</style><linearGradient id="linear-gradient" x1="74.5" y1="-22.298" x2="84.903" y2="-22.298" gradientTransform="translate(-66.5 49.5)" gradientUnits="userSpaceOnUse"><stop offset="0.001" stop-opacity="0"/><stop offset="0.83"/></linearGradient><mask id="mask" x="0" y="0" width="32" height="32" maskUnits="userSpaceOnUse"><path class="cls-1" d="M26,20V4a2,2,0,0,0-2-2H8A2,2,0,0,0,6,4V26a2,2,0,0,0,2,2h9.546V26H8V20ZM8,4H24v6H8Zm0,8H24v6H8Z"/><g id="Gradients_black_" data-name="Gradients (black)"><rect class="cls-2" x="8" y="25.439" width="10.403" height="3.525"/></g></mask><linearGradient id="linear-gradient-2" y1="32" x2="32" gradientUnits="userSpaceOnUse"><stop offset="0.1" stop-color="#42be65"/><stop offset="0.9" stop-color="#007d79"/></linearGradient></defs><g id="Layer_2" data-name="Layer 2"><g id="Light_theme_icons" data-name="Light theme icons"><g class="cls-3"><rect id="Color" class="cls-4" width="32" height="32"/></g><circle class="cls-5" cx="11" cy="23" r="1"/><circle class="cls-5" cx="11" cy="15" r="1"/><circle class="cls-5" cx="11" cy="7" r="1"/><polygon class="cls-5" points="23 27.18 20.41 24.59 19 26 23 30 30 23 28.59 21.59 23 27.18"/></g></g></svg>