<svg xmlns="http://www.w3.org/2000/svg" xmlns:xlink="http://www.w3.org/1999/xlink" viewBox="0 0 32 32" height="192" width="192"><defs><style>.cls-1{fill:#fff;}.cls-2{fill:url(#linear-gradient);}.cls-3{fill:url(#linear-gradient-2);}.cls-4{fill:url(#linear-gradient-3);}.cls-5{mask:url(#mask);}.cls-6{fill:url(#linear-gradient-4);}.cls-7{fill:#001d6c;}</style><linearGradient id="linear-gradient" x1="2.891" y1="16.239" x2="6.141" y2="4.109" gradientUnits="userSpaceOnUse"><stop offset="0.4" stop-opacity="0"/><stop offset="0.75"/></linearGradient><linearGradient id="linear-gradient-2" x1="2.891" y1="30.239" x2="6.141" y2="18.109" xlink:href="#linear-gradient"/><linearGradient id="linear-gradient-3" x1="17.891" y1="30.239" x2="21.141" y2="18.109" xlink:href="#linear-gradient"/><mask id="mask" x="0" y="0" width="32" height="32" maskUnits="userSpaceOnUse"><path class="cls-1" d="M8.5,29A5.5,5.5,0,1,1,14,23.5,5.506,5.506,0,0,1,8.5,29Zm0-9A3.5,3.5,0,1,0,12,23.5,3.5,3.5,0,0,0,8.5,20Z"/><path class="cls-1" d="M23.5,29A5.5,5.5,0,1,1,29,23.5,5.506,5.506,0,0,1,23.5,29Zm0-9A3.5,3.5,0,1,0,27,23.5,3.5,3.5,0,0,0,23.5,20Z"/><path class="cls-1" d="M8.5,15A5.5,5.5,0,1,1,14,9.5,5.506,5.506,0,0,1,8.5,15Zm0-9A3.5,3.5,0,1,0,12,9.5,3.5,3.5,0,0,0,8.5,6Z"/><polygon class="cls-2" points="9 10 2 3 2 16 9 10"/><polygon class="cls-3" points="9 24 2 17 2 30 9 24"/><polygon class="cls-4" points="24 24 17 17 17 30 24 24"/></mask><linearGradient id="linear-gradient-4" y1="32" x2="32" gradientUnits="userSpaceOnUse"><stop offset="0.1" stop-color="#ee5396"/><stop offset="0.9" stop-color="#8a3ffc"/></linearGradient></defs><g id="Layer_2" data-name="Layer 2"><g id="Light_theme_icons" data-name="Light theme icons"><g class="cls-5"><rect class="cls-6" width="32" height="32"/></g><polygon class="cls-7" points="25 13 25 4 23 4 23 6 20 6 20 8 23 8 23 13 20 13 20 15 28 15 28 13 25 13"/></g></g></svg>