<svg xmlns="http://www.w3.org/2000/svg" xmlns:xlink="http://www.w3.org/1999/xlink" viewBox="0 0 32 32" height="192" width="192"><defs><style>.cls-1{fill:none;}.cls-2{fill:url(#linear-gradient);}.cls-3{fill:#001d6c;}.cls-4{fill:url(#linear-gradient-2);}</style><linearGradient id="linear-gradient" x1="-5076.9" y1="2172" x2="-5057.101" y2="2152.201" gradientTransform="translate(2173.151 5087.95) rotate(90)" gradientUnits="userSpaceOnUse"><stop offset="0" stop-color="#161616" stop-opacity="0.3"/><stop offset="1" stop-color="#161616" stop-opacity="0.05"/></linearGradient><linearGradient id="linear-gradient-2" x1="11.05" y1="1.151" x2="30.849" y2="20.95" gradientUnits="userSpaceOnUse"><stop offset="0" stop-color="#418bff"/><stop offset="1" stop-color="#43d1cf"/></linearGradient></defs><g id="Layer_2" data-name="Layer 2"><g id="Light_theme_icons" data-name="Light theme icons"><rect class="cls-1" width="32" height="32"/><path class="cls-2" d="M25.9,25.9l-4.242-4.242A8,8,0,0,1,10.343,10.343L6.1,6.1A14,14,0,0,0,25.9,25.9Z"/><circle class="cls-3" cx="8.222" cy="23.778" r="3"/><path class="cls-4" d="M25.9,25.9l-4.243-4.242A8,8,0,0,0,10.343,10.343L6.1,6.1A14,14,0,0,1,25.9,25.9Z"/><circle class="cls-3" cx="8.222" cy="8.222" r="3"/><circle class="cls-3" cx="23.778" cy="23.778" r="3"/></g></g></svg>