<svg xmlns="http://www.w3.org/2000/svg" xmlns:xlink="http://www.w3.org/1999/xlink" viewBox="0 0 32 32" height="192" width="192"><defs><style>.cls-1{fill:#fff;}.cls-2{fill:url(#linear-gradient);}.cls-3{mask:url(#mask);}.cls-4{fill:url(#linear-gradient-2);}.cls-5{fill:#001d6c;}</style><linearGradient id="linear-gradient" x1="122.734" y1="242.074" x2="122.734" y2="222.074" gradientTransform="translate(-106.699 -247.763) scale(1 1.136)" gradientUnits="userSpaceOnUse"><stop offset="0.08"/><stop offset="0.6" stop-opacity="0"/></linearGradient><mask id="mask" x="0" y="0" width="32" height="32" maskUnits="userSpaceOnUse"><path class="cls-1" d="M26,2a4,4,0,0,0-4,4,3.947,3.947,0,0,0,.567,2.019L7.293,23.293l1.414,1.414L23.981,9.433A3.947,3.947,0,0,0,26,10a4,4,0,0,0,0-8Zm0,6a2,2,0,1,1,2-2A2,2,0,0,1,26,8Z"/><rect class="cls-2" x="11.036" y="4.601" width="10" height="22.728" transform="translate(15.985 -6.663) rotate(45)"/><path class="cls-1" d="M6,30a4,4,0,1,1,4-4A4,4,0,0,1,6,30Zm0-6a2,2,0,1,0,2,2A2,2,0,0,0,6,24Z"/></mask><linearGradient id="linear-gradient-2" y1="32" x2="32" gradientUnits="userSpaceOnUse"><stop offset="0.1" stop-color="#08bdba"/><stop offset="0.9" stop-color="#0f62fe"/></linearGradient></defs><g id="Layer_2" data-name="Layer 2"><g id="Light_theme_icons" data-name="Light theme icons"><g class="cls-3"><rect class="cls-4" width="32" height="32"/></g><path class="cls-5" d="M26,22a4,4,0,0,0-3.858,3H13v2h9.142A3.993,3.993,0,1,0,26,22Zm0,6a2,2,0,1,1,2-2A2,2,0,0,1,26,28Z"/><path class="cls-5" d="M19,7V5H9.858a4,4,0,1,0,0,2ZM6,8A2,2,0,1,1,8,6,2,2,0,0,1,6,8Z"/></g></g></svg>