<svg xmlns="http://www.w3.org/2000/svg" viewBox="0 0 32 32"><defs><linearGradient id="linear-gradient" x1="29" y1="17.51" x2="29" y2="6.01" gradientUnits="userSpaceOnUse"><stop offset=".1"/><stop offset=".9" stop-opacity="0"/></linearGradient><linearGradient id="linear-gradient-2" y1="32" x2="32" gradientUnits="userSpaceOnUse"><stop offset=".1" stop-color="#42be65"/><stop offset=".9" stop-color="#007d79"/></linearGradient><style>.cls-1{fill:#fff}.cls-5{fill:#001d6c}</style><mask id="mask" x="0" y="0" width="32" height="32" maskUnits="userSpaceOnUse"><path class="cls-1" d="M30 20H4a2 2 0 01-2-2V6a2 2 0 012-2h24a2 2 0 012 2v11h-2V6H4v12h26zM2 22h28v2H2zM2 26h28v2H2z"/><path fill="url(#linear-gradient)" d="M27 6.01h4v11.5h-4z"/></mask></defs><g id="Layer_2" data-name="Layer 2"><g id="Light_theme_icons" data-name="Light theme icons"><g mask="url(#mask)"><path id="Color" fill="url(#linear-gradient-2)" d="M0 0h32v32H0z"/></g><path class="cls-5" d="M16 16a4 4 0 114-4 4 4 0 01-4 4zm0-6a2 2 0 102 2 2 2 0 00-2-2zM24 10a2 2 0 102 2 2 2 0 00-2-2zM8 10a2 2 0 102 2 2 2 0 00-2-2z"/></g></g></svg>