<svg xmlns="http://www.w3.org/2000/svg" xmlns:xlink="http://www.w3.org/1999/xlink" viewBox="0 0 32 32" height="192" width="192"><defs><style>.cls-1{fill:none;}.cls-2{fill:url(#linear-gradient);}.cls-3{fill:url(#linear-gradient-2);}.cls-4{fill:url(#linear-gradient-3);}.cls-5{fill:#001d6c;}</style><linearGradient id="linear-gradient" x1="4.491" y1="4.491" x2="27.507" y2="27.507" gradientUnits="userSpaceOnUse"><stop offset="0" stop-color="#418bff"/><stop offset="1" stop-color="#43d1cf"/></linearGradient><linearGradient id="linear-gradient-2" x1="13" y1="5" x2="27" y2="5" gradientUnits="userSpaceOnUse"><stop offset="0" stop-color="#161616" stop-opacity="0.05"/><stop offset="1" stop-color="#161616" stop-opacity="0.3"/></linearGradient><linearGradient id="linear-gradient-3" x1="395" y1="269" x2="409" y2="269" gradientTransform="translate(414 296) rotate(180)" xlink:href="#linear-gradient-2"/></defs><g id="Layer_2" data-name="Layer 2"><g id="Light_theme_icons" data-name="Light theme icons"><rect class="cls-1" width="32" height="32"/><path class="cls-2" d="M21.5,30H19a3,3,0,0,1,0-6h2.5a2.5,2.5,0,0,0,0-5h-11A8.5,8.5,0,0,1,10.5,2H13a3,3,0,0,1,0,6H10.5a2.5,2.5,0,0,0,.008,5h11a8.5,8.5,0,0,1,0,17Z"/><rect class="cls-3" x="13" y="2" width="14" height="6"/><rect class="cls-4" x="5" y="24" width="14" height="6"/><circle class="cls-5" cx="27" cy="5" r="3"/><circle class="cls-5" cx="13" cy="5" r="3"/><circle class="cls-5" cx="19" cy="27" r="3"/><circle class="cls-5" cx="5" cy="27" r="3"/></g></g></svg>