<svg xmlns="http://www.w3.org/2000/svg" xmlns:xlink="http://www.w3.org/1999/xlink" viewBox="0 0 32 32" height="192" width="192"><defs><style>.cls-1{fill:none;}.cls-2{fill:url(#linear-gradient);}.cls-3{fill:url(#linear-gradient-2);}.cls-4{fill:#001d6c;}.cls-5{fill:url(#linear-gradient-3);}</style><linearGradient id="linear-gradient" x1="16.004" y1="22.997" x2="30.002" y2="22.997" gradientUnits="userSpaceOnUse"><stop offset="0" stop-color="#161616" stop-opacity="0.3"/><stop offset="1" stop-color="#161616" stop-opacity="0.05"/></linearGradient><linearGradient id="linear-gradient-2" x1="16.002" y1="8.997" x2="25.904" y2="8.997" gradientUnits="userSpaceOnUse"><stop offset="0" stop-color="#161616" stop-opacity="0.05"/><stop offset="1" stop-color="#161616" stop-opacity="0.3"/></linearGradient><linearGradient id="linear-gradient-3" x1="19.142" y1="5.476" x2="2.976" y2="30.068" gradientUnits="userSpaceOnUse"><stop offset="0" stop-color="#ba8dff"/><stop offset="1" stop-color="#418bff"/></linearGradient></defs><g id="Layer_2" data-name="Layer 2"><g id="Light_theme_icons" data-name="Light theme icons"><rect class="cls-1" width="32" height="32"/><path class="cls-2" d="M16,30h0A14,14,0,0,0,30,16L16,16"/><path class="cls-3" d="M16.006,2l0,14h0l9.9-9.9A13.953,13.953,0,0,0,16.006,2Z"/><path class="cls-4" d="M25.9,6.1l-9.9,9.9H30A13.953,13.953,0,0,0,25.9,6.1Z"/><path class="cls-5" d="M16,2a14,14,0,0,0,0,28Z"/></g></g></svg>