<svg xmlns="http://www.w3.org/2000/svg" xmlns:xlink="http://www.w3.org/1999/xlink" viewBox="0 0 32 32" height="192" width="192"><defs><style>.cls-1{fill:url(#linear-gradient);}.cls-2{fill:url(#linear-gradient-2);}.cls-3{fill:url(#linear-gradient-3);}.cls-4{fill:#fff;}.cls-5{mask:url(#mask);}.cls-6{fill:url(#linear-gradient-4);}.cls-7{fill:#001d6c;}</style><linearGradient id="linear-gradient" x1="0.888" y1="18.15" x2="15.084" y2="21.954" gradientUnits="userSpaceOnUse"><stop offset="0.1" stop-color="#fff"/><stop offset="0.33"/></linearGradient><linearGradient id="linear-gradient-2" x1="0.017" y1="11.4" x2="26.043" y2="18.374" gradientUnits="userSpaceOnUse"><stop offset="0.21" stop-color="#fff"/><stop offset="0.42"/></linearGradient><linearGradient id="linear-gradient-3" x1="0.453" y1="14.775" x2="20.564" y2="20.164" gradientUnits="userSpaceOnUse"><stop offset="0.15" stop-color="#fff"/><stop offset="0.36"/></linearGradient><mask id="mask" x="0" y="0" width="32" height="32" maskUnits="userSpaceOnUse"><path class="cls-1" d="M14,26H12A10.011,10.011,0,0,0,2,16V14A12.013,12.013,0,0,1,14,26Z"/><path class="cls-2" d="M24,26H22A20.023,20.023,0,0,0,2,6V4A22.025,22.025,0,0,1,24,26Z"/><path class="cls-3" d="M19,26H17A15.017,15.017,0,0,0,2,11V9A17.019,17.019,0,0,1,19,26Z"/><path class="cls-4" d="M6,26H4A22.025,22.025,0,0,1,26,4h4V6H26A20.023,20.023,0,0,0,6,26Z"/><path class="cls-4" d="M11,26H9A17.019,17.019,0,0,1,26,9h4v2H26A15.017,15.017,0,0,0,11,26Z"/><path class="cls-4" d="M16,26H14A12.013,12.013,0,0,1,26,14h4v2H26A10.011,10.011,0,0,0,16,26Z"/></mask><linearGradient id="linear-gradient-4" y1="32" x2="32" gradientUnits="userSpaceOnUse"><stop offset="0.1" stop-color="#42be65"/><stop offset="0.9" stop-color="#007d79"/></linearGradient></defs><g id="Layer_2" data-name="Layer 2"><g id="Light_theme_icons" data-name="Light theme icons"><g class="cls-5"><rect class="cls-6" width="32" height="32"/></g><rect class="cls-7" x="20" y="24" width="2" height="6"/><rect class="cls-7" x="24" y="26" width="2" height="4"/><rect class="cls-7" x="28" y="21" width="2" height="9"/></g></g></svg>