<svg xmlns="http://www.w3.org/2000/svg" viewBox="0 0 32 32" height="192" width="192"><defs><style>.cls-1{fill:none;}.cls-2{fill:#161616;}</style></defs><g id="Layer_2" data-name="Layer 2"><g id="Light_theme_icons" data-name="Light theme icons"><rect class="cls-1" width="32" height="32"/><path class="cls-2" d="M9.929,22l-.8-2.656H5.4L4.6,22H2.137L5.816,10.832H8.824L12.456,22ZM7.288,13.04h-.08L5.977,17.28H8.536Z"/><path class="cls-2" d="M14.009,22V10.832h5.279A3.581,3.581,0,0,1,20.7,11.1a3.138,3.138,0,0,1,1.065.728,3.189,3.189,0,0,1,.679,1.128,4.495,4.495,0,0,1,0,2.9,3.207,3.207,0,0,1-.679,1.12A3.124,3.124,0,0,1,20.7,17.7a3.581,3.581,0,0,1-1.408.264H16.44V22Zm2.431-6.144H19a1.233,1.233,0,0,0,.856-.28,1.049,1.049,0,0,0,.312-.824v-.7a1.052,1.052,0,0,0-.312-.824,1.238,1.238,0,0,0-.856-.28H16.44Z"/><path class="cls-2" d="M24.072,22V20.064h1.441v-7.3H24.072V10.832h5.313v1.936H27.944v7.3h1.441V22Z"/></g></g></svg>