<svg xmlns="http://www.w3.org/2000/svg" xmlns:xlink="http://www.w3.org/1999/xlink" viewBox="0 0 32 32"><defs><style>.cls-1{fill:#001d6c;}.cls-2{fill:none;}.cls-3{fill:url(#linear-gradient);}</style><linearGradient id="linear-gradient" x1="9.964" y1="26.036" x2="22.036" y2="13.964" gradientUnits="userSpaceOnUse"><stop offset="0.1" stop-color="#00b9b5"/><stop offset="0.9" stop-color="#0062ff"/></linearGradient></defs><g id="Layer_2" data-name="Layer 2"><g id="Light_theme_icons" data-name="Light theme icons"><path class="cls-1" d="M30.66,19.21,24,13v9.1a4,4,0,0,0,8,0A3.831,3.831,0,0,0,30.66,19.21Z"/><path class="cls-1" d="M0,22.1a4,4,0,0,0,8,0V13L1.34,19.21A3.862,3.862,0,0,0,0,22.1Z"/><path class="cls-1" d="M15,6a3,3,0,1,0-3,3A3,3,0,0,0,15,6Z"/><path class="cls-1" d="M20,3a3,3,0,1,0,3,3A3,3,0,0,0,20,3Z"/><rect id="_Transparent_Rectangle_" data-name="&lt;Transparent Rectangle&gt;" class="cls-2" width="32" height="32"/><path class="cls-3" d="M21,25a5,5,0,0,1-10,0Zm0-10a5,5,0,0,0-10,0ZM11,22H21V18H11Z"/></g></g></svg>