<svg xmlns="http://www.w3.org/2000/svg" xmlns:xlink="http://www.w3.org/1999/xlink" viewBox="0 0 32 32" height="192" width="192"><defs><style>.cls-1{fill:#fff;}.cls-2{fill:url(#linear-gradient);}.cls-3{mask:url(#mask);}.cls-4{fill:url(#linear-gradient-2);}.cls-5{fill:#001d6c;}</style><linearGradient id="linear-gradient" x1="11.768" y1="31.598" x2="24.232" y2="24.402" gradientUnits="userSpaceOnUse"><stop offset="0.25"/><stop offset="0.8" stop-opacity="0"/></linearGradient><mask id="mask" x="0" y="0" width="32" height="32" maskUnits="userSpaceOnUse"><path class="cls-1" d="M13.993,30.685l-.986-1.74L21,24.417V15.583l-7.5-4.249L6,15.583V16H4V15a1,1,0,0,1,.507-.87l8.5-4.815a1,1,0,0,1,.986,0l8.5,4.815A1,1,0,0,1,23,15V25a1,1,0,0,1-.507.87Z"/><rect class="cls-2" x="12" y="24" width="12" height="8"/><path class="cls-1" d="M13.007,30.685l-8.5-4.815A1,1,0,0,1,4,25V16l1-1,1,1v8.417l7.993,4.528Z"/></mask><linearGradient id="linear-gradient-2" y1="32" x2="32" gradientUnits="userSpaceOnUse"><stop offset="0.1" stop-color="#08bdba"/><stop offset="0.9" stop-color="#0f62fe"/></linearGradient></defs><g id="Layer_2" data-name="Layer 2"><g id="Light_theme_icons" data-name="Light theme icons"><g class="cls-3"><rect class="cls-4" width="32" height="32"/></g><path class="cls-5" d="M28,17H26V7.583L18.5,3.334,10.493,7.87,9.507,6.13l8.5-4.815a1,1,0,0,1,.986,0l8.5,4.815A1,1,0,0,1,28,7Z"/></g></g></svg>