<svg xmlns="http://www.w3.org/2000/svg" xmlns:xlink="http://www.w3.org/1999/xlink" viewBox="0 0 32 32" height="192" width="192"><defs><style>.cls-1{fill:#fff;}.cls-2{fill:url(#linear-gradient);}.cls-3{mask:url(#mask);}.cls-4{fill:url(#linear-gradient-2);}.cls-5{fill:#001d6c;}</style><linearGradient id="linear-gradient" x1="0.502" y1="19.594" x2="17.498" y2="29.406" gradientUnits="userSpaceOnUse"><stop offset="0.66"/><stop offset="0.9" stop-opacity="0"/></linearGradient><mask id="mask" x="0" y="0" width="32" height="32" maskUnits="userSpaceOnUse"><path class="cls-1" d="M16,1a1,1,0,0,1,.5.136l12,7A1,1,0,0,1,29,9V23a1,1,0,0,1-.5.864l-12,7a1,1,0,0,1-1.008,0l-12-7L4.5,22.136,16,28.842l11-6.416V9.574L16,3.157,5,9.574V12H3V9a1,1,0,0,1,.5-.864l12-7A1,1,0,0,1,16,1Z"/><rect class="cls-2" x="2" y="17" width="14" height="15"/></mask><linearGradient id="linear-gradient-2" x1="-4280" y1="676" x2="-4312" y2="708" gradientTransform="matrix(1, 0, 0, -1, 4312, 708)" gradientUnits="userSpaceOnUse"><stop offset="0.1" stop-color="#08bdba"/><stop offset="0.9" stop-color="#0f62fe"/></linearGradient></defs><g id="Layer_2" data-name="Layer 2"><g id="Light_theme_icons" data-name="Light theme icons"><g class="cls-3"><rect id="Color" class="cls-4" width="32" height="32" transform="translate(32) rotate(90)"/></g><path class="cls-5" d="M9.5,27.175a1,1,0,0,1-.5-.133L3.5,23.866A1,1,0,0,1,3,23V16.649a1,1,0,0,1,.5-.866L9,12.607a1,1,0,0,1,1,0l5.5,3.176a1,1,0,0,1,.5.866V23a1,1,0,0,1-.5.866L10,27.042A1,1,0,0,1,9.5,27.175ZM5,22.423l4.5,2.6,4.5-2.6v-5.2l-4.5-2.6L5,17.226Z"/></g></g></svg>