<svg xmlns="http://www.w3.org/2000/svg" xmlns:xlink="http://www.w3.org/1999/xlink" viewBox="0 0 32 32" height="192" width="192"><defs><style>.cls-1{fill:#fff;}.cls-2{fill:url(#linear-gradient);}.cls-3{fill:url(#linear-gradient-2);}.cls-4{mask:url(#mask);}.cls-5{fill:url(#linear-gradient-3);}.cls-6{fill:#001d6c;}</style><linearGradient id="linear-gradient" x1="6.5" y1="17" x2="6.5" y2="7" gradientUnits="userSpaceOnUse"><stop offset="0.1"/><stop offset="1" stop-opacity="0"/></linearGradient><linearGradient id="linear-gradient-2" x1="25.5" y1="25" x2="25.5" y2="15" gradientUnits="userSpaceOnUse"><stop offset="0" stop-opacity="0"/><stop offset="0.9"/></linearGradient><mask id="mask" x="0" y="0" width="32" height="32" maskUnits="userSpaceOnUse"><path class="cls-1" d="M16,28H6V26H16A10.011,10.011,0,0,0,26,16h2A12.013,12.013,0,0,1,16,28Z"/><path class="cls-1" d="M6,16H4A12.013,12.013,0,0,1,16,4h9V6H16A10.011,10.011,0,0,0,6,16Z"/><rect class="cls-2" x="1" y="7" width="11" height="10"/><rect class="cls-3" x="20" y="15" width="11" height="10"/></mask><linearGradient id="linear-gradient-3" y1="32" x2="32" gradientUnits="userSpaceOnUse"><stop offset="0.1" stop-color="#08bdba"/><stop offset="0.9" stop-color="#0f62fe"/></linearGradient></defs><g id="Layer_2" data-name="Layer 2"><g id="Light_theme_icons" data-name="Light theme icons"><g class="cls-4"><rect class="cls-5" width="32" height="32"/></g><path class="cls-6" d="M27,11a1.975,1.975,0,0,0-1.73,1H16a4,4,0,0,0-4,4,3.959,3.959,0,0,0,.556,2H6.73a2,2,0,1,0,0,2H16a4,4,0,0,0,4-4,3.959,3.959,0,0,0-.556-2H25.27A2,2,0,1,0,27,11Zm-9,5a2,2,0,1,1-2-2A2,2,0,0,1,18,16Z"/></g></g></svg>