<svg xmlns="http://www.w3.org/2000/svg" xmlns:xlink="http://www.w3.org/1999/xlink" viewBox="0 0 32 32"><defs><style>.cls-1{fill:#f2f2f2;}.cls-2{fill:url(#linear-gradient);}.cls-3{fill:url(#linear-gradient-2);}.cls-4{fill:url(#linear-gradient-3);}.cls-5{fill:url(#linear-gradient-4);}.cls-6{mask:url(#mask);}.cls-7{fill:url(#linear-gradient-5);}.cls-8{fill:#001d6c;}</style><linearGradient id="linear-gradient" x1="9.5" y1="8.5" x2="14.5" y2="3.5" gradientTransform="translate(7.757 -6.728) rotate(45)" gradientUnits="userSpaceOnUse"><stop offset="0.2"/><stop offset="1" stop-opacity="0"/></linearGradient><linearGradient id="linear-gradient-2" x1="23.5" y1="9.5" x2="28.5" y2="14.5" gradientTransform="translate(16.1 -14.87) rotate(45)" xlink:href="#linear-gradient"/><linearGradient id="linear-gradient-3" x1="17.5" y1="28.5" x2="22.5" y2="23.5" gradientTransform="translate(24.243 -6.527) rotate(45)" gradientUnits="userSpaceOnUse"><stop offset="0" stop-opacity="0"/><stop offset="0.8"/></linearGradient><linearGradient id="linear-gradient-4" x1="3.5" y1="17.5" x2="8.5" y2="22.5" gradientTransform="translate(15.899 1.615) rotate(45)" xlink:href="#linear-gradient-3"/><mask id="mask" x="0" y="0" width="32" height="32" maskUnits="userSpaceOnUse"><path class="cls-1" d="M10.707,9.293,16,4l3.5,3.5,1.414-1.414-3.5-3.5a2,2,0,0,0-2.828,0L9.293,7.879Z"/><path class="cls-1" d="M9.293,21.293,4,16l3.5-3.5L6.086,11.086l-3.5,3.5a2,2,0,0,0,0,2.828l5.293,5.293Z"/><path class="cls-1" d="M21.293,22.707,16,28l-3.5-3.5-1.414,1.414,3.5,3.5a2,2,0,0,0,2.828,0l5.293-5.293Z"/><path class="cls-1" d="M29.414,14.586,24.121,9.293l-1.414,1.414L28,16l-3.5,3.5,1.414,1.414,3.5-3.5A2,2,0,0,0,29.414,14.586Z"/><rect class="cls-2" x="8.464" y="3.879" width="7.071" height="4.243" transform="translate(-0.728 10.243) rotate(-45)"/><rect class="cls-3" x="23.879" y="8.464" width="4.243" height="7.071" transform="translate(-0.87 21.899) rotate(-45)"/><rect class="cls-4" x="16.464" y="23.879" width="7.071" height="4.243" transform="translate(-12.527 21.757) rotate(-45)"/><rect class="cls-5" x="3.879" y="16.464" width="4.243" height="7.071" transform="translate(-12.385 10.1) rotate(-45)"/></mask><linearGradient id="linear-gradient-5" y1="32" x2="32" gradientUnits="userSpaceOnUse"><stop offset="0.1" stop-color="#08bdba"/><stop offset="0.9" stop-color="#0f62fe"/></linearGradient></defs><g id="Layer_2" data-name="Layer 2"><g id="Light_theme_icons" data-name="Light theme icons"><g class="cls-6"><rect class="cls-7" width="32" height="32"/></g><path class="cls-8" d="M26,24a2.017,2.017,0,0,0-.512.074l-6.055-6.055a3.878,3.878,0,0,0,0-4.038l6.055-6.055a2.033,2.033,0,1,0-1.414-1.414l-6.055,6.055a3.878,3.878,0,0,0-4.038,0L7.926,6.512A2.033,2.033,0,1,0,6.512,7.926l6.055,6.055a3.878,3.878,0,0,0,0,4.038L6.512,24.074a2.033,2.033,0,1,0,1.414,1.414l6.055-6.055a3.878,3.878,0,0,0,4.038,0l6.055,6.055A2,2,0,1,0,26,24ZM14,16a2,2,0,1,1,2,2A2,2,0,0,1,14,16Z"/></g></g></svg>