<svg xmlns="http://www.w3.org/2000/svg" xmlns:xlink="http://www.w3.org/1999/xlink" viewBox="0 0 128 128"><defs><style>.cls-1{fill:#fff;}.cls-2{mask:url(#mask);}.cls-3{fill:url(#linear-gradient);}</style><mask id="mask" x="0" y="0" width="128" height="128" maskUnits="userSpaceOnUse"><path class="cls-1" d="M27.891,96H15.746V31.783H44.727a21.418,21.418,0,0,1,7.914,1.381,16.014,16.014,0,0,1,5.933,4,18.243,18.243,0,0,1,3.77,6.3,23.868,23.868,0,0,1,1.336,8.187,21.1,21.1,0,0,1-2.992,11.408,16.294,16.294,0,0,1-8.969,6.807L64.875,96H51.352L39.391,71.25h-11.5Zm15.64-34.961a7.776,7.776,0,0,0,5.52-1.885,7,7,0,0,0,2.023-5.383V49.539A6.857,6.857,0,0,0,49.051,44.2a7.912,7.912,0,0,0-5.52-1.84H27.891V61.039Z"/><path class="cls-1" d="M110.508,96a8.252,8.252,0,0,1-6.117-2.254,10.361,10.361,0,0,1-2.809-6.027h-.551a11.26,11.26,0,0,1-4.875,7.039A16.641,16.641,0,0,1,87.047,97.1q-7.359,0-11.317-3.848A13.686,13.686,0,0,1,71.773,82.98q0-7.424,5.336-11.05t15.184-3.621h8.187v-3.5a8.678,8.678,0,0,0-2.117-6.255q-2.115-2.209-6.808-2.209a11.27,11.27,0,0,0-6.668,1.8,17.678,17.678,0,0,0-4.282,4.277l-6.992-6.293A20.336,20.336,0,0,1,80.7,49.418q4.419-2.546,11.684-2.547,9.75,0,14.812,4.406t5.059,12.666v22.58h4.785V96ZM91,88.547a12.366,12.366,0,0,0,6.715-1.735,5.665,5.665,0,0,0,2.761-5.117v-6.3H92.934q-9.2,0-9.2,5.851v1.551a5.077,5.077,0,0,0,1.887,4.34A8.827,8.827,0,0,0,91,88.547Z"/></mask><linearGradient id="linear-gradient" y1="128" x2="128" gradientUnits="userSpaceOnUse"><stop offset="0.1" stop-color="#ee5396"/><stop offset="0.899" stop-color="#da1e28"/></linearGradient></defs><g id="Layer_2" data-name="Layer 2"><g id="Light_theme_icons" data-name="Light theme icons"><g class="cls-2"><rect id="Color" class="cls-3" width="128" height="128"/></g></g></g></svg>