<svg xmlns="http://www.w3.org/2000/svg" xmlns:xlink="http://www.w3.org/1999/xlink" viewBox="0 0 32 32" height="192" width="192"><defs><style>.cls-1{fill:#fff;}.cls-2{fill:url(#linear-gradient);}.cls-3{fill:url(#linear-gradient-2);}.cls-4{mask:url(#mask);}.cls-5{fill:url(#linear-gradient-3);}.cls-6{fill:#001d6c;}</style><linearGradient id="linear-gradient" x1="16" y1="25" x2="16" y2="16" gradientUnits="userSpaceOnUse"><stop offset="0" stop-opacity="0"/><stop offset="0.66"/></linearGradient><linearGradient id="linear-gradient-2" x1="6" y1="18.5" x2="13" y2="18.5" gradientUnits="userSpaceOnUse"><stop offset="0" stop-opacity="0"/><stop offset="0.77"/></linearGradient><mask id="mask" x="0" y="0" width="32" height="32" maskUnits="userSpaceOnUse"><path class="cls-1" d="M16,3A14.015,14.015,0,0,0,2,17c0,3.759,1.615,7.7,4.252,9.683.032.026.068.047.1.072a6.834,6.834,0,0,0,.714.456c.073.041.135.1.21.135.059.03.121.051.18.079.028.013.056.024.084.036a5.99,5.99,0,0,0,.67.256c.048.016.1.031.145.045a6.035,6.035,0,0,0,.672.152c.046.007.091.017.137.024a5.914,5.914,0,0,0,.83.065,6.022,6.022,0,0,0,1.86-.3,6,6,0,1,0-7.2-8.43,6.188,6.188,0,0,0-.288.673A12.246,12.246,0,0,1,4,17a12,12,0,1,1,23.6,3.109l1.931.516A14.015,14.015,0,0,0,16,3ZM6.437,20.184a3.969,3.969,0,0,1,2.327-1.99,3.978,3.978,0,0,1,3.051.241h0a3.988,3.988,0,0,1-1.972,7.55c-.107,0-.214-.012-.32-.026s-.2-.033-.294-.052A4.4,4.4,0,0,1,7.777,25.3c-.033-.022-.069-.042-.1-.065-.08-.054-.157-.117-.235-.176a3.973,3.973,0,0,1-1-4.878Z"/><rect class="cls-2" x="12" y="16" width="8" height="9"/><polygon class="cls-3" points="12 22 6 22 6 15 13 15 12 22"/></mask><linearGradient id="linear-gradient-3" y1="32" x2="32" gradientUnits="userSpaceOnUse"><stop offset="0.1" stop-color="#08bdba"/><stop offset="0.9" stop-color="#0f62fe"/></linearGradient></defs><g id="Layer_2" data-name="Layer 2"><g id="Light_theme_icons" data-name="Light theme icons"><g class="cls-4"><rect class="cls-5" width="32" height="32"/></g><path class="cls-6" d="M22,19a3.015,3.015,0,0,0-.6.06L18.848,14.8a4,4,0,1,0-5.693,0L10.044,20c-.015,0-.029,0-.044,0a2,2,0,1,0,2,2,2,2,0,0,0-.247-.956l3.127-5.223a3.59,3.59,0,0,0,2.245,0L19.7,20.1A2.974,2.974,0,0,0,19,22a3,3,0,1,0,3-3Zm-8-7a2,2,0,1,1,2,2A2,2,0,0,1,14,12Zm8,11a1,1,0,1,1,1-1A1,1,0,0,1,22,23Z"/></g></g></svg>