<svg xmlns="http://www.w3.org/2000/svg" xmlns:xlink="http://www.w3.org/1999/xlink" viewBox="0 0 32 32"><defs><style>.cls-1{fill:#fff;}.cls-2{fill:url(#linear-gradient);}.cls-3{fill:url(#linear-gradient-2);}.cls-4{fill:url(#linear-gradient-3);}.cls-5{fill:url(#linear-gradient-4);}.cls-6{mask:url(#mask);}.cls-7{fill:url(#linear-gradient-5);}.cls-8{fill:#001d6c;}</style><linearGradient id="linear-gradient" x1="5.868" y1="14.228" x2="22.949" y2="24.089" gradientUnits="userSpaceOnUse"><stop offset="0.314"/><stop offset="0.683" stop-opacity="0"/></linearGradient><linearGradient id="linear-gradient-2" x1="-2" y1="15" x2="16.5" y2="-3.5" gradientUnits="userSpaceOnUse"><stop offset="0.277"/><stop offset="0.565" stop-opacity="0"/></linearGradient><linearGradient id="linear-gradient-3" y1="24" x2="24" y2="24" gradientUnits="userSpaceOnUse"><stop offset="0.362" stop-opacity="0"/><stop offset="0.801"/></linearGradient><linearGradient id="linear-gradient-4" x1="27" y1="22" x2="27" y2="2" gradientUnits="userSpaceOnUse"><stop offset="0.346" stop-opacity="0"/><stop offset="0.605"/></linearGradient><mask id="mask" x="0" y="0" width="32" height="32" maskUnits="userSpaceOnUse"><path class="cls-1" d="M16,9a6.975,6.975,0,0,0-4.947,2.053l1.413,1.413A5,5,0,1,1,11.1,17H9.08A7,7,0,1,0,16,9Z"/><polygon class="cls-2" points="23 24 10 25 6 14 20 14 23 24"/><path class="cls-1" d="M28,16a11.921,11.921,0,0,1-.9,4.541l1.851.757a13.942,13.942,0,0,0-2.11-14.14L25.416,8.584A11.933,11.933,0,0,1,28,16Z"/><path class="cls-1" d="M21.416,26.694a11.947,11.947,0,0,1-15.8-4.7l-1.73,1a13.948,13.948,0,0,0,18.561,5.426Z"/><path class="cls-1" d="M16,4a11.952,11.952,0,0,1,3.051.408l.508-1.932A13.946,13.946,0,0,0,2,16H4A12.013,12.013,0,0,1,16,4Z"/><polygon class="cls-3" points="0 17 6 17 10 8 20 6 20 0 0 0 0 17"/><polygon class="cls-4" points="24 26 24 32 0 32 0 16 6 16 12 26 24 26"/><polygon class="cls-5" points="25 22 32 22 32 2 22 2 25 22"/></mask><linearGradient id="linear-gradient-5" y1="32" x2="32" gradientUnits="userSpaceOnUse"><stop offset="0.1" stop-color="#08bdba"/><stop offset="0.9" stop-color="#0f62fe"/></linearGradient></defs><g id="Layer_2" data-name="Layer 2"><g id="Light_theme_icons" data-name="Light theme icons"><g class="cls-6"><rect class="cls-7" width="32" height="32"/></g><path class="cls-8" d="M24,31a4,4,0,1,1,4-4A4,4,0,0,1,24,31Zm0-6a2,2,0,1,0,2,2A2,2,0,0,0,24,25Z"/><path class="cls-8" d="M29,9H22a1,1,0,0,1-.864-1.5l3.5-6a1.041,1.041,0,0,1,1.728,0l3.5,6A1,1,0,0,1,29,9ZM23.741,7h3.518L25.5,3.985Z"/><path class="cls-8" d="M8,19H1V12H8ZM3,17H6V14H3Z"/></g></g></svg>