<svg xmlns="http://www.w3.org/2000/svg" xmlns:xlink="http://www.w3.org/1999/xlink" viewBox="0 0 32 32" height="192" width="192"><defs><style>.cls-1{fill:#fff;}.cls-2{fill:url(#linear-gradient);}.cls-3{fill:url(#linear-gradient-2);}.cls-4{mask:url(#mask);}.cls-5{fill:url(#linear-gradient-3);}.cls-6{fill:#001d6c;}</style><linearGradient id="linear-gradient" x1="-1099.5" y1="-347.5" x2="-1099.5" y2="-339.5" gradientTransform="translate(1117.5 349.5)" gradientUnits="userSpaceOnUse"><stop offset="0.1" stop-opacity="0"/><stop offset="0.82"/></linearGradient><linearGradient id="linear-gradient-2" x1="-1119.5" y1="-3559.5" x2="-1119.5" y2="-3551.5" gradientTransform="matrix(1, 0, 0, -1, 1133.5, -3529.5)" xlink:href="#linear-gradient"/><mask id="mask" x="0" y="0" width="32" height="32" maskUnits="userSpaceOnUse"><path class="cls-1" d="M26,22a3.947,3.947,0,0,0-2.019.567L19.415,18,18,19.415l4.567,4.566A3.915,3.915,0,0,0,22.142,25H11v2H22.142A3.993,3.993,0,1,0,26,22Zm0,6a2,2,0,1,1,2-2A2,2,0,0,1,26,28Z"/><path class="cls-1" d="M14,12.586,9.433,8.019A3.915,3.915,0,0,0,9.858,7H21V5H9.858A3.993,3.993,0,1,0,6,10a3.947,3.947,0,0,0,2.019-.567L12.586,14ZM6,8A2,2,0,1,1,8,6,2,2,0,0,1,6,8Z"/><rect class="cls-2" x="16" y="2" width="4" height="8" transform="translate(12 24) rotate(-90)"/><rect class="cls-3" x="12" y="22" width="4" height="8" transform="translate(-12 40) rotate(-90)"/></mask><linearGradient id="linear-gradient-3" x2="32" y2="32" gradientUnits="userSpaceOnUse"><stop offset="0.1" stop-color="#0062fd"/><stop offset="0.9" stop-color="#00b8b4"/></linearGradient></defs><g id="Layer_2" data-name="Layer 2"><g id="Light_theme_icons" data-name="Light theme icons"><g class="cls-4"><rect class="cls-5" width="32" height="32"/></g><path class="cls-6" d="M26,2a4,4,0,0,0-4,4,3.947,3.947,0,0,0,.567,2.019L8.019,22.567A3.947,3.947,0,0,0,6,22a4,4,0,1,0,4,4,3.947,3.947,0,0,0-.567-2.019L23.981,9.433A3.947,3.947,0,0,0,26,10a4,4,0,0,0,0-8ZM6,28a2,2,0,1,1,2-2A2,2,0,0,1,6,28ZM26,8a2,2,0,1,1,2-2A2,2,0,0,1,26,8Z"/></g></g></svg>