<svg xmlns="http://www.w3.org/2000/svg" xmlns:xlink="http://www.w3.org/1999/xlink" viewBox="0 0 32 32" height="192" width="192"><defs><style>.cls-1{fill:#fff;}.cls-2{fill:url(#linear-gradient);}.cls-3{fill:url(#linear-gradient-2);}.cls-4{mask:url(#mask);}.cls-5{fill:url(#linear-gradient-3);}.cls-6{fill:#001d6c;}</style><linearGradient id="linear-gradient" x1="2643" y1="2240.5" x2="2661" y2="2240.5" gradientTransform="translate(-2631 -2230)" gradientUnits="userSpaceOnUse"><stop offset="0.5"/><stop offset="0.845" stop-opacity="0"/></linearGradient><linearGradient id="linear-gradient-2" x1="2503" y1="2237.5" x2="2521" y2="2237.5" gradientTransform="translate(-2501 -2216)" xlink:href="#linear-gradient"/><mask id="mask" x="0" y="0" width="32" height="32" maskUnits="userSpaceOnUse"><path class="cls-1" d="M20,20v2h5.2A10.978,10.978,0,0,1,5.191,14H3.17A12.974,12.974,0,0,0,26,24.274V28h2V20Z"/><path class="cls-1" d="M16,3A12.953,12.953,0,0,0,6,7.726V4H4v8h8V10H6.8a10.978,10.978,0,0,1,20.006,8H28.83A12.91,12.91,0,0,0,16,3Z"/><rect class="cls-2" x="12" y="2" width="18" height="17" transform="translate(42 21) rotate(180)"/><rect class="cls-3" x="2" y="13" width="18" height="17"/></mask><linearGradient id="linear-gradient-3" y1="32" x2="32" gradientUnits="userSpaceOnUse"><stop offset="0.1" stop-color="#a56eff"/><stop offset="0.9" stop-color="#0f62fe"/></linearGradient></defs><g id="Layer_2" data-name="Layer 2"><g id="Light_theme_icons" data-name="Light theme icons"><g class="cls-4"><rect class="cls-5" width="32" height="32"/></g><path class="cls-6" d="M25,3a4,4,0,0,0-4,4,3.947,3.947,0,0,0,.567,2.019L9.019,21.567A3.957,3.957,0,0,0,7,21a4,4,0,1,0,4,4,3.95,3.95,0,0,0-.567-2.019L22.981,10.433A3.947,3.947,0,0,0,25,11a4,4,0,0,0,0-8ZM7,27a2,2,0,1,1,2-2A2,2,0,0,1,7,27ZM25,9a2,2,0,1,1,2-2A2,2,0,0,1,25,9Z"/></g></g></svg>