<svg xmlns="http://www.w3.org/2000/svg" xmlns:xlink="http://www.w3.org/1999/xlink" viewBox="0 0 32 32"><defs><style>.cls-1{fill:url(#linear-gradient);}.cls-2{fill:url(#linear-gradient-2);}.cls-3{fill:#001d6c;}.cls-4{fill:none;}</style><linearGradient id="linear-gradient" x1="9" y1="30" x2="9" y2="2" gradientUnits="userSpaceOnUse"><stop offset="0" stop-color="#161616" stop-opacity="0.05"/><stop offset="1" stop-color="#161616" stop-opacity="0.3"/></linearGradient><linearGradient id="linear-gradient-2" x1="-426.091" y1="-4418.202" x2="-445.89" y2="-4438.001" gradientTransform="translate(-2799.849 3455.432) rotate(45)" gradientUnits="userSpaceOnUse"><stop offset="0.1" stop-color="#005dff"/><stop offset="0.153" stop-color="#0f66ff"/><stop offset="0.305" stop-color="#347dff"/><stop offset="0.457" stop-color="#518fff"/><stop offset="0.608" stop-color="#659cff"/><stop offset="0.757" stop-color="#72a3ff"/><stop offset="0.9" stop-color="#76a6ff"/></linearGradient></defs><g id="Layer_2" data-name="Layer 2"><g id="Light_theme_icons" data-name="Light theme icons"><path class="cls-1" d="M16,30V24A8,8,0,1,1,16,8V2a14,14,0,0,0,0,28Z"/><path class="cls-2" d="M16,30V24A8,8,0,0,0,16,8V2a14,14,0,0,1,0,28Z"/><circle class="cls-3" cx="16" cy="5" r="3"/><path class="cls-3" d="M16,11a3,3,0,0,0-3,3V27a3,3,0,0,0,6,0V14A3,3,0,0,0,16,11Z"/><rect class="cls-4" width="32" height="32"/></g></g></svg>