<svg xmlns="http://www.w3.org/2000/svg" xmlns:xlink="http://www.w3.org/1999/xlink" viewBox="0 0 32 32" height="192" width="192"><defs><style>.cls-1{fill:#fff;}.cls-2{fill:url(#linear-gradient);}.cls-3{fill:url(#linear-gradient-2);}.cls-4{mask:url(#mask);}.cls-5{fill:url(#linear-gradient-3);}.cls-6{fill:#001d6c;}</style><linearGradient id="linear-gradient" x1="1867.999" y1="-2263.03" x2="1877.999" y2="-2263.03" gradientTransform="translate(-2598.542 2280.438) scale(1.4 1)" gradientUnits="userSpaceOnUse"><stop offset="0.062" stop-opacity="0"/><stop offset="0.569"/></linearGradient><linearGradient id="linear-gradient-2" x1="15.214" y1="8.488" x2="25.195" y2="3.3" gradientUnits="userSpaceOnUse"><stop offset="0.029" stop-opacity="0"/><stop offset="0.635"/></linearGradient><mask id="mask" x="0" y="0" width="32" height="32" maskUnits="userSpaceOnUse"><rect class="cls-1" x="6.861" y="6.657" width="18.822" height="2" transform="translate(-1.699 8.319) rotate(-27.309)"/><path class="cls-1" d="M27.854,6.714a2.018,2.018,0,0,1-.074.2L19.126,23.634l1.78.912L29.557,7.829,27.863,6.723Z"/><g id="Gradients_black_" data-name="Gradients (black)"><rect class="cls-2" x="16.157" y="15.408" width="13.997" height="4" transform="translate(49.248 4.82) rotate(117.31)"/></g><path class="cls-1" d="M12,30A10,10,0,1,1,22,20,10.011,10.011,0,0,1,12,30Zm0-18a8,8,0,1,0,8,8A8.009,8.009,0,0,0,12,12Z"/><polygon class="cls-3" points="26 6 24 1 14 6 16 10 26 6"/><path class="cls-1" d="M26,10a4,4,0,1,1,4-4A4,4,0,0,1,26,10Zm0-6a2,2,0,1,0,2,2A2,2,0,0,0,26,4Z"/></mask><linearGradient id="linear-gradient-3" y1="32" x2="32" gradientUnits="userSpaceOnUse"><stop offset="0.1" stop-color="#a56eff"/><stop offset="0.9" stop-color="#0f62fe"/></linearGradient></defs><g id="Layer_2" data-name="Layer 2"><g id="Light_theme_icons" data-name="Light theme icons"><g class="cls-4"><rect class="cls-5" width="32" height="32"/></g><path class="cls-6" d="M12,24a4,4,0,1,1,4-4A4,4,0,0,1,12,24Zm0-6a2,2,0,1,0,2,2A2,2,0,0,0,12,18Z"/></g></g></svg>