<svg xmlns="http://www.w3.org/2000/svg" xmlns:xlink="http://www.w3.org/1999/xlink" viewBox="0 0 32 32"><defs><linearGradient id="linear-gradient" x1="-55.5" y1="1295.5" x2="-55.5" y2="1301.5" gradientTransform="translate(64.5 -1283.5)" gradientUnits="userSpaceOnUse"><stop offset=".001" stop-opacity="0"/><stop offset=".83"/></linearGradient><linearGradient id="linear-gradient-2" y1="-41.5" y2="-35.5" gradientTransform="matrix(1 0 0 -1 78.5 -23.5)" xlink:href="#linear-gradient"/><linearGradient id="linear-gradient-3" y1="32" x2="32" gradientUnits="userSpaceOnUse"><stop offset=".1" stop-color="#a56eff"/><stop offset=".9" stop-color="#0f62fe"/></linearGradient><style>.cls-1{fill:#fff}.cls-6{fill:#001d6c}</style><mask id="mask" x="0" y="0" width="32" height="32" maskUnits="userSpaceOnUse"><path class="cls-1" d="M24 4a3 3 0 11-3 3 3 3 0 013-3m0-2a5 5 0 105 5 5 5 0 00-5-5zM8 4a3 3 0 11-3 3 3 3 0 013-3m0-2a5 5 0 105 5 5 5 0 00-5-5zM12 14H6a5.006 5.006 0 00-5 5v4h2v-4a3 3 0 013-3h6zM26 14h-6v2h6a3 3 0 013 3v4h2v-4a5.006 5.006 0 00-5-5z"/><path transform="rotate(-90 9 15)" fill="url(#linear-gradient)" d="M7 12h4v6H7z"/><path transform="rotate(-90 23 15)" fill="url(#linear-gradient-2)" d="M21 12h4v6h-4z"/></mask></defs><g id="Layer_2" data-name="Layer 2"><g id="Light_theme_icons" data-name="Light theme icons"><g mask="url(#mask)"><path fill="url(#linear-gradient-3)" d="M0 0h32v32H0z"/></g><path class="cls-6" d="M23 30h-2v-2a3 3 0 00-3-3h-4a3 3 0 00-3 3v2H9v-2a5.006 5.006 0 015-5h4a5.006 5.006 0 015 5zM16 13a3 3 0 11-3 3 3 3 0 013-3m0-2a5 5 0 105 5 5 5 0 00-5-5z"/></g></g></svg>