<svg xmlns="http://www.w3.org/2000/svg" xmlns:xlink="http://www.w3.org/1999/xlink" viewBox="0 0 32 32" height="192" width="192"><defs><style>.cls-1{fill:#fff;}.cls-2{fill:url(#linear-gradient);}.cls-3{fill:url(#linear-gradient-2);}.cls-4{fill:url(#linear-gradient-3);}.cls-5{fill:url(#linear-gradient-4);}.cls-6{mask:url(#mask);}.cls-7{fill:url(#linear-gradient-5);}.cls-8{fill:#001d6c;}</style><linearGradient id="linear-gradient" x1="4.75" y1="14.75" x2="15.25" y2="4.25" gradientUnits="userSpaceOnUse"><stop offset="0.2"/><stop offset="0.85" stop-opacity="0"/></linearGradient><linearGradient id="linear-gradient-2" x1="-170.25" y1="39.75" x2="-159.75" y2="29.25" gradientTransform="translate(57 175) rotate(90)" xlink:href="#linear-gradient"/><linearGradient id="linear-gradient-3" x1="-145.25" y1="214.75" x2="-134.75" y2="204.25" gradientTransform="translate(-118 232) rotate(180)" xlink:href="#linear-gradient"/><linearGradient id="linear-gradient-4" x1="29.75" y1="189.75" x2="40.25" y2="179.25" gradientTransform="translate(-175 57) rotate(-90)" xlink:href="#linear-gradient"/><mask id="mask" x="0" y="0" width="32" height="32" maskUnits="userSpaceOnUse"><path class="cls-1" d="M6.017,13.265l1.375,2.381A15.016,15.016,0,0,1,22,4V2A17.013,17.013,0,0,0,6.017,13.265Z"/><path class="cls-1" d="M13.265,25.983l2.381-1.375A15.016,15.016,0,0,1,4,10H2A17.013,17.013,0,0,0,13.265,25.983Z"/><path class="cls-1" d="M25.983,18.735l-1.375-2.381A15.016,15.016,0,0,1,10,28v2A17.013,17.013,0,0,0,25.983,18.735Z"/><path class="cls-1" d="M18.735,6.017,16.354,7.392A15.016,15.016,0,0,1,28,22h2A17.013,17.013,0,0,0,18.735,6.017Z"/><polygon class="cls-2" points="5 13 8 18 16 8 12 1 5 13"/><polygon class="cls-3" points="19 5 14 8 24 16 31 12 19 5"/><polygon class="cls-4" points="27 19 24 14 16 24 20 31 27 19"/><polygon class="cls-5" points="13 27 18 24 8 16 1 20 13 27"/></mask><linearGradient id="linear-gradient-5" y1="32" x2="32" gradientUnits="userSpaceOnUse"><stop offset="0.1" stop-color="#a56eff"/><stop offset="0.9" stop-color="#0f62fe"/></linearGradient></defs><g id="Layer_2" data-name="Layer 2"><g id="Light_theme_icons" data-name="Light theme icons"><g class="cls-6"><rect class="cls-7" width="32" height="32"/></g><polygon class="cls-8" points="16 10 17.912 13.703 22 14.297 19 17 19.771 21 16 18.75 12.229 21 13 17 10 14.297 14.2 13.703 16 10"/></g></g></svg>