<svg xmlns="http://www.w3.org/2000/svg" xmlns:xlink="http://www.w3.org/1999/xlink" viewBox="0 0 32 32" height="192" width="192"><defs><style>.cls-1{fill:#fff;}.cls-2{fill:url(#linear-gradient);}.cls-3{mask:url(#mask);}.cls-4{fill:url(#linear-gradient-2);}.cls-5{fill:#001d6c;}</style><linearGradient id="linear-gradient" x1="1.368" y1="9.906" x2="16.632" y2="1.094" gradientUnits="userSpaceOnUse"><stop offset="0.4"/><stop offset="0.85" stop-opacity="0"/></linearGradient><mask id="mask" x="0" y="0" width="32" height="32" maskUnits="userSpaceOnUse"><path class="cls-1" d="M16,31a1,1,0,0,1-.5-.136l-12-7A1,1,0,0,1,3,23V12H5V22.426l11,6.417,11-6.417V9.574L16,3.158,4.5,9.864,3.5,8.136l12-7a1,1,0,0,1,1.008,0l12,7A1,1,0,0,1,29,9V23a1,1,0,0,1-.5.864l-12,7A1,1,0,0,1,16,31Z"/><rect class="cls-2" x="2" width="14" height="11"/></mask><linearGradient id="linear-gradient-2" x1="-9494" y1="32" x2="-9526" gradientTransform="matrix(1, 0, 0, -1, 9526, 32)" gradientUnits="userSpaceOnUse"><stop offset="0.1" stop-color="#a56eff"/><stop offset="0.9" stop-color="#0f62fe"/></linearGradient></defs><g id="Layer_2" data-name="Layer 2"><g id="Light_theme_icons" data-name="Light theme icons"><g class="cls-3"><rect class="cls-4" width="32" height="32" transform="translate(32 32) rotate(-180)"/></g><rect class="cls-5" x="3" y="8" width="2" height="2"/><path class="cls-5" d="M16,22a6,6,0,1,1,6-6A6.006,6.006,0,0,1,16,22Zm0-10a4,4,0,1,0,4,4A4,4,0,0,0,16,12Z"/></g></g></svg>