<svg xmlns="http://www.w3.org/2000/svg" xmlns:xlink="http://www.w3.org/1999/xlink" viewBox="0 0 32 32"><defs><style>.cls-1{fill:#fff;}.cls-2{fill:url(#linear-gradient);}.cls-3{fill:url(#linear-gradient-2);}.cls-4{mask:url(#mask);}.cls-5{fill:url(#linear-gradient-3);}.cls-6{fill:#001d6c;}</style><linearGradient id="linear-gradient" x1="19.402" y1="29.964" x2="28.598" y2="14.036" gradientUnits="userSpaceOnUse"><stop offset="0.22" stop-opacity="0"/><stop offset="0.7"/></linearGradient><linearGradient id="linear-gradient-2" x1="-2053" y1="627" x2="-2069" y2="643" gradientTransform="translate(2070 -626)" gradientUnits="userSpaceOnUse"><stop offset="0.5"/><stop offset="0.9" stop-opacity="0"/></linearGradient><mask id="mask" x="0" y="0" width="32" height="32" maskUnits="userSpaceOnUse"><path class="cls-1" d="M16,30A14,14,0,1,1,30,16,14.015,14.015,0,0,1,16,30ZM16,4A12,12,0,1,0,28,16,12.013,12.013,0,0,0,16,4Z"/><rect class="cls-2" x="16" y="16" width="16" height="12"/><rect class="cls-3" y="2" width="18" height="14" transform="translate(18 18) rotate(180)"/></mask><linearGradient id="linear-gradient-3" y1="32" x2="32" gradientUnits="userSpaceOnUse"><stop offset="0.1" stop-color="#08bdba"/><stop offset="0.9" stop-color="#0f62fe"/></linearGradient></defs><g id="Layer_2" data-name="Layer 2"><g id="Light_theme_icons" data-name="Light theme icons"><g class="cls-4"><rect class="cls-5" width="32" height="32"/></g><rect class="cls-6" x="2" y="8" width="7" height="2"/><rect class="cls-6" x="2" y="12" width="4" height="2"/><path class="cls-6" d="M19,18H13a3,3,0,0,0-3,3v2h2V21a1,1,0,0,1,1-1h6a1,1,0,0,1,1,1v2h2V21A3,3,0,0,0,19,18Z"/><path class="cls-6" d="M16,17a4,4,0,1,0-4-4A4,4,0,0,0,16,17Zm0-6a2,2,0,1,1-2,2A2,2,0,0,1,16,11Z"/></g></g></svg>