<svg xmlns="http://www.w3.org/2000/svg" xmlns:xlink="http://www.w3.org/1999/xlink" viewBox="0 0 32 32"><defs><style>.cls-1{fill:#fff;}.cls-2{fill:url(#linear-gradient);}.cls-3{fill:url(#linear-gradient-2);}.cls-4{fill:#001d6c;}.cls-5{mask:url(#mask);}.cls-6{fill:url(#linear-gradient-3);}</style><linearGradient id="linear-gradient" x1="1915.825" y1="1821.117" x2="1927.737" y2="1821.117" gradientTransform="translate(-1792.976 1939.024) rotate(-90)" gradientUnits="userSpaceOnUse"><stop offset="0" stop-opacity="0"/><stop offset="0.91"/></linearGradient><linearGradient id="linear-gradient-2" x1="11" y1="9" x2="19.656" y2="9" gradientUnits="userSpaceOnUse"><stop offset="0" stop-opacity="0"/><stop offset="0.87"/></linearGradient><mask id="mask" x="0" y="0" width="32" height="32" maskUnits="userSpaceOnUse"><path id="GradientStroke" class="cls-1" d="M29.976,16a14,14,0,1,1-23.9-9.9A14.046,14.046,0,0,1,16,2v2a12,12,0,0,0-8.509,20.48A11.994,11.994,0,0,0,27.358,12.214l1.9-.632A14,14,0,0,1,29.976,16Zm-7.008,0a7.019,7.019,0,1,1-4.377-6.476l.741-1.854A8.991,8.991,0,1,0,24.966,16Z"/><g id="Fade"><polygon id="Fade2" class="cls-2" points="31.469 23.199 31.469 11.287 26.614 11.287 24.812 23.199 31.469 23.199"/><rect id="Fade1" class="cls-3" x="11" y="6" width="8.656" height="6"/></g></mask><linearGradient id="linear-gradient-3" y1="32" x2="32" gradientUnits="userSpaceOnUse"><stop offset="0.1" stop-color="#a56eff"/><stop offset="0.9" stop-color="#0f62fe"/></linearGradient></defs><g id="Layer_2" data-name="Layer 2"><g id="Light_theme_icons" data-name="Light theme icons"><path class="cls-4" d="M30,8V6H26V2H24V6.586L17.286,13.3A2.969,2.969,0,0,0,16,13a3,3,0,1,0,3,3,2.969,2.969,0,0,0-.3-1.286L25.414,8Z"/><g class="cls-5"><rect class="cls-6" width="32" height="32"/></g></g></g></svg>