<svg xmlns="http://www.w3.org/2000/svg" xmlns:xlink="http://www.w3.org/1999/xlink" viewBox="0 0 32 32"><defs><style>.cls-1{fill:#fff;}.cls-2{fill:url(#linear-gradient);}.cls-3{mask:url(#mask);}.cls-4{fill:url(#linear-gradient-2);}.cls-5{fill:#001d6c;}</style><linearGradient id="linear-gradient" x1="914.331" y1="284.107" x2="927.331" y2="284.107" gradientTransform="translate(-936.481 -216.22) scale(1.03 0.848)" gradientUnits="userSpaceOnUse"><stop offset="0.1" stop-opacity="0"/><stop offset="0.9"/></linearGradient><mask id="mask" x="0" y="0" width="32" height="32" maskUnits="userSpaceOnUse"><path class="cls-1" d="M15.486,30.864,3.5,23.876a1,1,0,0,1-.5-.864V9H5V22.438l11.494,6.7Z"/><path class="cls-1" d="M12.992,13.017l-2,0L11,4.337a1,1,0,0,1,.5-.866l4.02-2.313a1,1,0,0,1,1,0L28.5,8.136A1,1,0,0,1,29,9v4H27V9.575L16.017,3.18,13,4.917Z"/><rect class="cls-1" x="7" y="6" width="2" height="10"/><rect class="cls-2" x="5.442" y="20.519" width="13.392" height="8.482" transform="translate(14.006 -2.752) rotate(30)"/></mask><linearGradient id="linear-gradient-2" x1="-5512" y1="5544" x2="-5544" y2="5576" gradientTransform="matrix(1, 0, 0, -1, 5544, 5576)" gradientUnits="userSpaceOnUse"><stop offset="0.1" stop-color="#a56eff"/><stop offset="0.9" stop-color="#0f62fe"/></linearGradient></defs><g id="Layer_2" data-name="Layer 2"><g id="Light_theme_icons" data-name="Light theme icons"><g class="cls-3"><rect class="cls-4" width="32" height="32" transform="translate(32 0) rotate(90)"/></g><path class="cls-5" d="M24,32a8,8,0,1,1,8-8A8.009,8.009,0,0,1,24,32Zm0-14a6,6,0,1,0,6,6A6.006,6.006,0,0,0,24,18Z"/><polygon class="cls-5" points="23 24.586 21.414 23 20 24.414 23 27.414 28 22.414 26.586 21 23 24.586"/></g></g></svg>