<svg xmlns="http://www.w3.org/2000/svg" xmlns:xlink="http://www.w3.org/1999/xlink" viewBox="0 0 32 32"><defs><style>.cls-1{fill:#fff;}.cls-2{fill:url(#linear-gradient);}.cls-3{mask:url(#mask);}.cls-4{fill:url(#linear-gradient-2);}.cls-5{fill:#001d6c;}</style><linearGradient id="linear-gradient" x1="890.43" y1="195.685" x2="903.43" y2="195.685" gradientTransform="translate(-911.858 -141.221) scale(1.03 0.848)" gradientUnits="userSpaceOnUse"><stop offset="0.1" stop-opacity="0"/><stop offset="0.9"/></linearGradient><mask id="mask" x="0" y="0" width="32" height="32" maskUnits="userSpaceOnUse"><path class="cls-1" d="M15.486,30.864,3.5,23.876a1,1,0,0,1-.5-.864V9H5V22.438l11.494,6.7Z"/><path class="cls-1" d="M12.992,13.017l-2,0L11,4.337a1,1,0,0,1,.5-.866l4.02-2.313a1,1,0,0,1,1,0L28.5,8.136A1,1,0,0,1,29,9v4H27V9.575L16.017,3.18,13,4.917Z"/><rect class="cls-1" x="7" y="6" width="2" height="10"/><rect class="cls-2" x="5.442" y="20.519" width="13.392" height="8.482" transform="translate(14.006 -2.752) rotate(30)"/></mask><linearGradient id="linear-gradient-2" x1="-5662" y1="5694" x2="-5694" y2="5726" gradientTransform="matrix(1, 0, 0, -1, 5694, 5726)" gradientUnits="userSpaceOnUse"><stop offset="0.1" stop-color="#a56eff"/><stop offset="0.9" stop-color="#0f62fe"/></linearGradient></defs><g id="Layer_2" data-name="Layer 2"><g id="Light_theme_icons" data-name="Light theme icons"><g class="cls-3"><rect class="cls-4" width="32" height="32" transform="translate(32 0) rotate(90)"/></g><path class="cls-5" d="M27,24a2.969,2.969,0,0,0-1.286.3l-2.281-2.281A3.947,3.947,0,0,0,24,20a4,4,0,1,0-4,4,3.947,3.947,0,0,0,2.019-.567L24.3,25.714A2.969,2.969,0,0,0,24,27a3,3,0,1,0,3-3Zm-9-4a2,2,0,1,1,2,2A2,2,0,0,1,18,20Z"/></g></g></svg>