<svg version="1.1" id="Layer_1" xmlns="http://www.w3.org/2000/svg" x="0" y="0" xml:space="preserve" viewBox="0 0 1139.1 1139.1"><style>.st1{fill:#e6d6ff}.st2{fill:#252525}.st3{fill:#171717}.st4{fill:none;stroke:#a4a4a4;stroke-linecap:square}</style><g id="Page-1"><g id="Grid-Copy" transform="translate(-221 -564)"><g id="mono-vs-sans" transform="translate(221 564)"><path id="Fill-3" fill="#fff" d="M0 1139.1h1139.1V0H0z"/><g id="Group-30" transform="translate(60 79)"><g id="Group-28" transform="translate(1.61 .869)"><g id="Group-9"><path id="Fill-1" class="st1" d="M13.8 377.6h197.3V18H13.8z"/><path id="Fill-2" class="st1" d="M212.1 377.6h197.2V18H212.1z"/><path id="Fill-3_1_" class="st1" d="M410.4 377.6h196.1V18H410.4z"/><path id="Fill-4" class="st1" d="M607.6 377.6H806V18H607.6z"/><path id="Fill-4-Copy" class="st1" d="M805.9 377.6h197.2V18H805.9z"/><g id="Group" transform="translate(8.222 302.759)"><path id="_x36_00" class="st2" d="M20.9 103.8c-2.5 0-4-1.7-4-4.6 0-3.5 2.3-6.3 4.3-7.6H23c-2.6 1.9-4 3.4-4.6 6.2h.1c.6-1 1.4-1.7 2.9-1.7 2.1 0 3.5 1.4 3.5 3.7-.1 2.4-1.6 4-4 4zm-.1-1.2c1.6 0 2.5-.9 2.5-2.5v-.1c0-1.6-.9-2.5-2.5-2.5s-2.5.9-2.5 2.5v.1c0 1.6 1 2.5 2.5 2.5zm10.3 1.2c-2.9 0-4.1-2.3-4.1-6.2s1.3-6.2 4.1-6.2 4.1 2.3 4.1 6.2-1.2 6.2-4.1 6.2zm0-1.2c1.9 0 2.6-1.6 2.6-4v-2c0-2.3-.7-4-2.6-4-1.9 0-2.6 1.6-2.6 4v2c0 2.3.8 4 2.6 4zm10.3 1.2c-2.9 0-4.1-2.3-4.1-6.2s1.3-6.2 4.1-6.2 4.1 2.3 4.1 6.2-1.2 6.2-4.1 6.2zm0-1.2c1.9 0 2.6-1.6 2.6-4v-2c0-2.3-.7-4-2.6-4s-2.6 1.6-2.6 4v2c0 2.3.7 4 2.6 4z"/><path id="_x36_00_1_" class="st2" d="M219.3 103.8c-2.5 0-4-1.7-4-4.6 0-3.5 2.3-6.3 4.3-7.6h1.9c-2.6 1.9-4 3.4-4.6 6.2h.1c.6-1 1.4-1.7 2.9-1.7 2.1 0 3.5 1.4 3.5 3.7-.1 2.4-1.7 4-4.1 4zm0-1.2c1.6 0 2.5-.9 2.5-2.5v-.1c0-1.6-.9-2.5-2.5-2.5s-2.5.9-2.5 2.5v.1c0 1.6.9 2.5 2.5 2.5zm10.2 1.2c-2.9 0-4.1-2.3-4.1-6.2s1.3-6.2 4.1-6.2c2.9 0 4.1 2.3 4.1 6.2s-1.2 6.2-4.1 6.2zm0-1.2c1.9 0 2.6-1.6 2.6-4v-2c0-2.3-.7-4-2.6-4s-2.6 1.6-2.6 4v2c0 2.3.8 4 2.6 4zm10.3 1.2c-2.9 0-4.1-2.3-4.1-6.2s1.3-6.2 4.1-6.2c2.9 0 4.1 2.3 4.1 6.2s-1.2 6.2-4.1 6.2zm0-1.2c1.9 0 2.6-1.6 2.6-4v-2c0-2.3-.7-4-2.6-4s-2.6 1.6-2.6 4v2c0 2.3.8 4 2.6 4z"/><path id="_x36_00_2_" class="st2" d="M417.7 103.8c-2.5 0-4-1.7-4-4.6 0-3.5 2.3-6.3 4.3-7.6h1.9c-2.6 1.9-4 3.4-4.6 6.2h.1c.6-1 1.4-1.7 2.9-1.7 2.1 0 3.5 1.4 3.5 3.7-.1 2.4-1.7 4-4.1 4zm0-1.2c1.6 0 2.5-.9 2.5-2.5v-.1c0-1.6-.9-2.5-2.5-2.5s-2.5.9-2.5 2.5v.1c0 1.6.9 2.5 2.5 2.5zm10.3 1.2c-2.9 0-4.1-2.3-4.1-6.2s1.3-6.2 4.1-6.2c2.9 0 4.1 2.3 4.1 6.2s-1.3 6.2-4.1 6.2zm0-1.2c1.9 0 2.6-1.6 2.6-4v-2c0-2.3-.7-4-2.6-4-1.9 0-2.6 1.6-2.6 4v2c0 2.3.7 4 2.6 4zm10.3 1.2c-2.9 0-4.1-2.3-4.1-6.2s1.3-6.2 4.1-6.2 4.1 2.3 4.1 6.2-1.3 6.2-4.1 6.2zm0-1.2c1.9 0 2.6-1.6 2.6-4v-2c0-2.3-.7-4-2.6-4-1.9 0-2.6 1.6-2.6 4v2c-.1 2.3.7 4 2.6 4z"/><path id="_x36_00_3_" class="st2" d="M614.9 103.8c-2.5 0-4-1.7-4-4.6 0-3.5 2.3-6.3 4.3-7.6h1.9c-2.6 1.9-4 3.4-4.6 6.2h.1c.6-1 1.4-1.7 2.9-1.7 2.1 0 3.5 1.4 3.5 3.7-.1 2.4-1.7 4-4.1 4zm0-1.2c1.6 0 2.5-.9 2.5-2.5v-.1c0-1.6-.9-2.5-2.5-2.5s-2.5.9-2.5 2.5v.1c0 1.6.9 2.5 2.5 2.5zm10.3 1.2c-2.9 0-4.1-2.3-4.1-6.2s1.3-6.2 4.1-6.2c2.9 0 4.1 2.3 4.1 6.2s-1.3 6.2-4.1 6.2zm0-1.2c1.9 0 2.6-1.6 2.6-4v-2c0-2.3-.7-4-2.6-4-1.9 0-2.6 1.6-2.6 4v2c-.1 2.3.7 4 2.6 4zm10.2 1.2c-2.9 0-4.1-2.3-4.1-6.2s1.3-6.2 4.1-6.2 4.1 2.3 4.1 6.2-1.2 6.2-4.1 6.2zm0-1.2c1.9 0 2.6-1.6 2.6-4v-2c0-2.3-.7-4-2.6-4s-2.6 1.6-2.6 4v2c0 2.3.8 4 2.6 4z"/><path id="_x36_00_4_" class="st2" d="M813.3 103.8c-2.5 0-4-1.7-4-4.6 0-3.5 2.3-6.3 4.3-7.6h1.9c-2.6 1.9-4 3.4-4.6 6.2h.1c.6-1 1.4-1.7 2.9-1.7 2.1 0 3.5 1.4 3.5 3.7-.1 2.4-1.7 4-4.1 4zm0-1.2c1.6 0 2.5-.9 2.5-2.5v-.1c0-1.6-.9-2.5-2.5-2.5s-2.5.9-2.5 2.5v.1c0 1.6.9 2.5 2.5 2.5zm10.3 1.2c-2.9 0-4.1-2.3-4.1-6.2s1.3-6.2 4.1-6.2c2.9 0 4.1 2.3 4.1 6.2s-1.3 6.2-4.1 6.2zm0-1.2c1.9 0 2.6-1.6 2.6-4v-2c0-2.3-.7-4-2.6-4s-2.6 1.6-2.6 4v2c0 2.3.7 4 2.6 4zm10.3 1.2c-2.9 0-4.1-2.3-4.1-6.2s1.3-6.2 4.1-6.2 4.1 2.3 4.1 6.2-1.3 6.2-4.1 6.2zm0-1.2c1.9 0 2.6-1.6 2.6-4v-2c0-2.3-.7-4-2.6-4s-2.6 1.6-2.6 4v2c0 2.3.7 4 2.6 4z"/></g></g></g><path id="Fill-48-Copy" class="st3" d="M164.1 197.3v-37.1c0-45.5-14.4-75.1-50.6-75.1s-50.6 29.6-50.6 75.1v37.1c0 45.5 14.4 75.1 50.6 75.1s50.6-29.6 50.6-75.1m-63.6 109.9v-12c-46.3-6.2-66.6-48.4-66.6-116.4 0-74.1 24.2-117.4 79.6-117.4 55.5 0 79.6 43.2 79.6 117.4 0 67.9-20.6 110.2-66.6 116.4v28.3h49.3v22.1h-38.2c-25.4-.1-37.1-16-37.1-38.4"/><path id="Fill-49-Copy" class="st3" d="M243.9 231.8V124.1H270v103.1c0 30.6 14 45.5 39.8 45.5 20.9 0 41.8-10.1 41.8-32.2V124.1h26.1v167.8h-26.1v-27.3h-1.3c-7.2 16.6-20.2 31.2-48 31.2-35.3 0-58.4-23.4-58.4-64"/><path id="Fill-50-Copy" class="st3" d="M497.5 70.4v-5.2c0-9.4 5.5-16.6 20.6-16.6 15 0 20.6 7.2 20.6 16.6v5.2c0 9.4-5.5 16.6-20.6 16.6-15.1 0-20.6-7.2-20.6-16.6zm-53.2 199.3H505V146.1h-60.7V124h86.8v145.6h56.8v22.1H444.3v-22z"/><path id="Fill-51-Copy" class="st3" d="M635.8 269.2h58.8V72.8h-58.8V50.7h84.9v218.5h58.8v22.1H635.8z"/><path id="Fill-51-Copy-2" class="st3" d="M834.1 269.2h58.8V72.8h-58.8V50.7H919v218.5h58.7v22.1H834.1z"/><path id="Line-2" class="st4" d="M213.2 19.5v388.3"/><path id="Line-2-Copy-2" class="st4" d="M411.5 19.5v388.3"/><path id="Line-2-Copy-3" class="st4" d="M608.7 19.5v388.3"/><path id="Line-2-Copy-4" class="st4" d="M807.5 19.5v388.3"/><path id="Line-2-Copy-11" class="st4" d="M1004.7 19.5v388.3"/><path id="Line-2-Copy" class="st4" d="M15.1 19.5v388.3"/></g><g id="Group-31" transform="translate(59 504)"><g id="Group-13"><path id="Fill-37-Copy" class="st1" d="M14.3 473.6h245.1V113.3H14.3z"/><path id="Fill-39-Copy" class="st1" d="M260.5 473.6h200.3V113.3H260.5z"/><path id="Fill-40-Copy" class="st1" d="M461.9 473.6h92.7V113.3h-92.7z"/><path id="Fill-41-Copy" class="st1" d="M555.6 473.6h100.2V113.3H555.6z"/><path id="Fill-41-Copy-2" class="st1" d="M656.9 473.6H757V113.3H656.9z"/><path id="_x37_08" class="st2" d="M28.8 502.8h-1.5l4.6-10.7h-5.1v2.2h-1.3v-3.5h7.9v1.3l-4.6 10.7zm10.9.2c-2.9 0-4.1-2.3-4.1-6.2 0-3.9 1.3-6.2 4.1-6.2s4.1 2.3 4.1 6.2c0 3.9-1.2 6.2-4.1 6.2zm0-1.3c1.9 0 2.6-1.6 2.6-4v-2c0-2.3-.7-4-2.6-4s-2.6 1.6-2.6 4v2c0 2.4.7 4 2.6 4zM50 503c-2.7 0-4.1-1.5-4.1-3.5 0-1.6 1-2.6 2.4-3v-.1c-1.3-.4-2.1-1.4-2.1-2.8 0-1.8 1.4-3 3.8-3s3.8 1.2 3.8 3c0 1.4-.8 2.4-2.1 2.8v.1c1.4.4 2.4 1.3 2.4 3 .1 2-1.4 3.5-4.1 3.5zm0-1.3c1.7 0 2.6-.8 2.6-2.1v-.4c0-1.4-1-2.1-2.6-2.1-1.7 0-2.6.8-2.6 2.1v.4c0 1.3.9 2.1 2.6 2.1zm0-5.8c1.5 0 2.3-.7 2.3-1.9v-.3c0-1.2-.8-1.9-2.3-1.9-1.5 0-2.3.7-2.3 1.9v.3c0 1.2.8 1.9 2.3 1.9z"/><path id="_x35_68" class="st2" d="M277.8 490.8v1.3h-5.2l-.3 4.6h.1c.6-.8 1.2-1.3 2.5-1.3 2.1 0 3.6 1.4 3.6 3.7 0 2.3-1.5 4-4 4-2 0-3-1-3.7-2l1.1-.8c.6.9 1.2 1.6 2.7 1.6 1.6 0 2.5-.9 2.5-2.5v-.4c0-1.6-.9-2.5-2.5-2.5-1.1 0-1.6.5-2.1 1l-1.2-.2.4-6.6h6.1zm6.9 12.2c-2.5 0-4-1.7-4-4.6 0-3.5 2.3-6.3 4.3-7.6h1.9c-2.6 1.9-4 3.4-4.6 6.2h.1c.6-1 1.4-1.7 2.9-1.7 2.1 0 3.5 1.4 3.5 3.7-.1 2.4-1.7 4-4.1 4zm0-1.3c1.6 0 2.5-.9 2.5-2.5v-.1c0-1.6-.9-2.5-2.5-2.5s-2.5.9-2.5 2.5v.1c0 1.6.9 2.5 2.5 2.5zM295 503c-2.7 0-4.1-1.5-4.1-3.5 0-1.6 1-2.6 2.4-3v-.1c-1.3-.4-2.1-1.4-2.1-2.8 0-1.8 1.4-3 3.8-3s3.8 1.2 3.8 3c0 1.4-.8 2.4-2.1 2.8v.1c1.4.4 2.4 1.3 2.4 3 0 2-1.4 3.5-4.1 3.5zm0-1.3c1.7 0 2.6-.8 2.6-2.1v-.4c0-1.4-1-2.1-2.6-2.1s-2.6.8-2.6 2.1v.4c-.1 1.3.9 2.1 2.6 2.1zm0-5.8c1.5 0 2.3-.7 2.3-1.9v-.3c0-1.2-.8-1.9-2.3-1.9s-2.3.7-2.3 1.9v.3c0 1.2.8 1.9 2.3 1.9z"/><path id="_x32_50" class="st2" d="M479.2 501.5v1.3h-7.9v-1.5l3.9-3.6c1.1-1 2-2.2 2-3.4v-.2c0-1.3-.7-2.2-2.2-2.2-1.5 0-2.2.9-2.5 2l-1.3-.5c.5-1.4 1.5-2.8 3.8-2.8s3.7 1.4 3.7 3.5c0 1.9-1.1 3.2-2.6 4.5l-3.2 2.9h6.3zm9.7-10.7v1.3h-5.2l-.3 4.6h.1c.6-.8 1.2-1.3 2.5-1.3 2.1 0 3.6 1.4 3.6 3.7 0 2.3-1.5 4-4 4-2 0-3-1-3.7-2l1.1-.8c.6.9 1.2 1.6 2.7 1.6 1.6 0 2.5-.9 2.5-2.5v-.4c0-1.6-.9-2.5-2.5-2.5-1.1 0-1.6.5-2.1 1l-1.2-.2.4-6.6h6.1zm6.9 12.2c-2.9 0-4.1-2.3-4.1-6.2 0-3.9 1.3-6.2 4.1-6.2s4.1 2.3 4.1 6.2c0 3.9-1.2 6.2-4.1 6.2zm0-1.3c1.9 0 2.6-1.6 2.6-4v-2c0-2.3-.7-4-2.6-4-1.9 0-2.6 1.6-2.6 4v2c0 2.4.8 4 2.6 4z"/><path id="_x32_72" class="st2" d="M573.6 501.5v1.3h-7.9v-1.5l3.9-3.6c1.1-1 2-2.2 2-3.4v-.2c0-1.3-.7-2.2-2.2-2.2-1.5 0-2.2.9-2.5 2l-1.3-.5c.5-1.4 1.5-2.8 3.8-2.8s3.7 1.4 3.7 3.5c0 1.9-1.1 3.2-2.6 4.5l-3.2 2.9h6.3zm5.7 1.3h-1.5l4.6-10.7h-5.1v2.2H576v-3.5h7.9v1.3l-4.6 10.7zm14.8-1.3v1.3h-7.9v-1.5l3.9-3.6c1.1-1 2-2.2 2-3.4v-.2c0-1.3-.7-2.2-2.2-2.2-1.5 0-2.2.9-2.5 2l-1.3-.5c.5-1.4 1.5-2.8 3.8-2.8s3.7 1.4 3.7 3.5c0 1.9-1.1 3.2-2.6 4.5l-3.2 2.9h6.3z"/><path id="_x32_72_1_" class="st2" d="M675.2 501.5v1.3h-7.9v-1.5l3.9-3.6c1.1-1 2-2.2 2-3.4v-.2c0-1.3-.7-2.2-2.2-2.2-1.5 0-2.2.9-2.5 2l-1.3-.5c.5-1.4 1.5-2.8 3.8-2.8s3.7 1.4 3.7 3.5c0 1.9-1.1 3.2-2.6 4.5l-3.2 2.9h6.3zm5.7 1.3h-1.5l4.6-10.7h-5.1v2.2h-1.3v-3.5h7.9v1.3l-4.6 10.7zm14.9-1.3v1.3h-7.9v-1.5l3.9-3.6c1.1-1 2-2.2 2-3.4v-.2c0-1.3-.7-2.2-2.2-2.2-1.5 0-2.2.9-2.5 2l-1.3-.5c.5-1.4 1.5-2.8 3.8-2.8s3.7 1.4 3.7 3.5c0 1.9-1.1 3.2-2.6 4.5l-3.2 2.9h6.3z"/><path id="Fill-43-Copy" class="st3" d="M204.2 291.1v-38.4c0-45.7-28.2-75.4-68.3-75.4-40.1 0-68.3 29.8-68.3 75.4v38.4c0 45.7 28.2 75.4 68.3 75.4 40.1.1 68.3-29.7 68.3-75.4zM187 441.7h-34.1c-18.2 0-27.9-11.6-27.9-27.1v-23.5c-53.4-5-87.2-46.7-87.2-119.1 0-77.4 38.5-119.5 98.1-119.5S234 194.5 234 272c0 70.5-31.8 111.5-82.6 118.5v28.1H187v23.1z"/><path id="Fill-44-Copy" class="st3" d="M398 360.4h-1.3c-6.6 16.2-19.6 31.8-48.1 31.8-35.1 0-57.7-23.8-57.7-65.2V217.4h26.5v104.9c0 30.4 13.6 46 39.1 46 20.9 0 41.4-10.3 41.4-32.8V217.4h26.5v170.7H398v-27.7z"/><path id="Fill-45-Copy" class="st3" d="M494.7 388h26.5V217.3h-26.5V388zm-3-225.7V158c0-8.9 5-14.9 16.2-14.9s16.2 6 16.2 14.9v4.3c0 8.9-5 14.9-16.2 14.9s-16.2-5.9-16.2-14.9z"/><path id="Fill-46-Copy" class="st3" d="M615.8 388c-18.2 0-28.2-11.6-28.2-27.5V143.1h26.5v221.7h25.2V388h-23.5z"/><path id="Fill-46-Copy-2" class="st3" d="M717 388c-18.2 0-28.2-11.6-28.2-27.5V143.1h26.5v221.7h25.2V388H717z"/><path id="Line-2-Copy-5" class="st4" d="M14.9 113.8v389.1"/><path id="Line-2-Copy-6" class="st4" d="M259.9 113.8v389.1"/><path id="Line-2-Copy-7" class="st4" d="M461.3 113.8v389.1"/><path id="Line-2-Copy-8" class="st4" d="M555.1 113.8v389.1"/><path id="Line-2-Copy-9" class="st4" d="M656.3 113.8v389.1"/><path id="Line-2-Copy-10" class="st4" d="M757.6 113.8v389.1"/></g></g></g></g></g></svg>