<svg xmlns="http://www.w3.org/2000/svg" viewBox="0 0 288 288"><g fill="none" fill-rule="evenodd"><path fill="#FFF" d="M0 0h288v288H0z"/><path fill="#FFF" d="M52 236h184V52H52z"/><path d="M153.29 114.61l53.539-53.538c5.359-5.353 14.041-5.353 19.4 0 5.359 5.359 5.359 14.053 0 19.406l-53.532 53.538" fill="#FFD1D4"/><path fill="#DDD" d="M57.914 219.536l10.023 10.022 18.56-16.876-11.7-11.713zm125.816-55.439c12.254-4.543 26.572-1.892 36.416 7.952 10.62 10.62 12.868 26.444 6.744 39.273l-23.01-23.012c-4.468-4.468-11.788-4.468-16.261 0-4.474 4.474-4.474 11.793 0 16.261l23.006 23.012c-12.823 6.123-28.647 3.88-39.267-6.745-9.85-9.844-12.495-24.162-7.952-36.415l-60.53-60.513c-12.254 4.537-26.566 1.886-36.41-7.958-10.62-10.626-12.868-26.45-6.739-39.272l23.005 23.01c4.474 4.468 11.793 4.468 16.261 0 4.474-4.473 4.474-11.793 0-16.26L75.987 60.418c12.823-6.13 28.647-3.882 39.273 6.744 9.844 9.844 12.495 24.168 7.946 36.42l60.525 60.514z"/><path d="M174.827 135.482l-2.926-2.933 53.532-53.532a11.569 11.569 0 003.416-8.24c0-3.11-1.214-6.043-3.416-8.24-4.537-4.548-11.931-4.548-16.474 0l-53.538 53.539-2.927-2.933 53.539-53.532c6.158-6.159 16.174-6.159 22.333 0a15.702 15.702 0 014.623 11.166c0 4.215-1.645 8.188-4.623 11.167l-53.539 53.538z" fill="#C1121A"/><path fill="#C1121A" d="M165.126 125.779l-2.927-2.933 53.366-53.371 2.933 2.932z"/><path d="M68.503 226.701l-7.233-7.233 14.093-15.497 8.636 8.637L68.503 226.7zm15.571-19.872l42.993-42.993-2.933-2.926-42.987 42.987-4.387-4.388c-.402-.402-.949-.506-1.512-.61a2.077 2.077 0 00-1.484.68l-16.882 18.566a2.073 2.073 0 00.064 2.858l10.022 10.022c.408.397.937.604 1.466.604.5 0 1-.178 1.392-.535l18.566-16.882a2.07 2.07 0 00.673-1.483 2.05 2.05 0 00-.604-1.513l-4.387-4.387z" fill="#555"/><path d="M186.847 186.844c-2.553 2.553-3.961 5.963-3.961 9.597 0 3.634 1.408 7.044 3.961 9.597l20.758 20.763c-11.753 4.318-25.11 1.553-34.092-7.429-8.941-8.93-11.874-22.367-7.475-34.23.08-.218.092-.437.104-.655 0-.035.011-.058.011-.092a2.027 2.027 0 00-.575-1.392c-.011-.011-.006-.034-.017-.046l-60.53-60.513c-.012-.017-.035-.005-.046-.017a2.013 2.013 0 00-1.386-.575c-.035 0-.07.012-.11.012-.212.011-.43.023-.643.103-11.857 4.387-25.283 1.46-34.219-7.48-8.987-8.982-11.741-22.34-7.429-34.098l20.764 20.769a13.529 13.529 0 009.596 3.962c3.473 0 6.946-1.323 9.597-3.962a13.49 13.49 0 003.962-9.597c0-3.634-1.409-7.044-3.962-9.597L80.392 61.195c11.759-4.318 25.116-1.546 34.097 7.43 8.936 8.94 11.874 22.378 7.47 34.24-.081.213-.092.438-.104.656 0 .029-.011.058-.011.086.005.524.212 1.018.575 1.398.011.011.005.028.017.04l60.524 60.519c.018.017.046.011.064.028.368.34.845.54 1.35.552.018 0 .035.023.053.023.034 0 .057-.04.097-.04.207-.006.414-.011.621-.086 11.857-4.41 25.295-1.472 34.23 7.475 8.982 8.981 11.742 22.333 7.423 34.092l-20.763-20.764c-5.29-5.284-13.898-5.272-19.188 0m35.46-16.26c-9.751-9.747-24.236-13.088-37.277-8.81l-58.805-58.8c4.284-13.034.943-27.524-8.809-37.276-10.942-10.943-27.669-13.806-41.63-7.148-.19.087-.345.236-.489.368-.023.023-.057.012-.08.035-.012.011-.006.029-.017.04a2.024 2.024 0 00-.564 1.369c0 .028-.017.051-.017.086.006.287.057.58.195.862.092.19.23.345.368.49.018.028.012.062.035.085l23.006 23.012c1.776 1.765 2.748 4.134 2.748 6.664 0 2.524-.972 4.893-2.748 6.664-3.675 3.675-9.655 3.675-13.335 0L61.883 75.214c-.023-.023-.058-.012-.081-.035-.15-.132-.299-.281-.494-.368a2.015 2.015 0 00-.851-.19c-.046 0-.081.018-.127.018a2.038 2.038 0 00-1.334.558c-.011.011-.029.005-.046.017-.023.023-.011.057-.034.086-.133.144-.276.293-.368.489-6.665 13.955-3.79 30.682 7.147 41.63 6.975 6.969 16.37 10.695 25.92 10.695 3.807 0 7.62-.69 11.328-1.898l58.829 58.817c-4.278 13.035-.938 27.52 8.814 37.272 7.01 7.009 16.394 10.706 25.898 10.706a36.538 36.538 0 0015.732-3.56c.19-.085.34-.235.489-.367.023-.023.058-.012.08-.035.012-.011.006-.028.018-.04a2.05 2.05 0 00.563-1.363c0-.034.012-.057.012-.092a2 2 0 00-.19-.862c-.092-.196-.23-.34-.368-.489-.023-.023-.011-.063-.034-.086l-23.012-23.012a9.352 9.352 0 01-2.748-6.664c0-2.53.977-4.899 2.748-6.664 3.674-3.674 9.66-3.674 13.34 0l23.006 23.011c.017.023.052.012.075.035.155.132.304.276.494.368.288.132.592.201.891.201h.006c.483 0 .914-.224 1.288-.535.052-.04.127-.023.173-.069.063-.063.04-.16.092-.224.103-.126.241-.207.316-.35 6.664-13.962 3.789-30.688-7.147-41.63" fill="#4C555B"/></g></svg>