<svg xmlns="http://www.w3.org/2000/svg" viewBox="0 0 288 288"><g fill="none" fill-rule="evenodd"><path d="M0 0h288v288H0z" fill="#FFF"/><path d="M26.604 93V73.456h8.036c3.22 0 5.208 1.988 5.208 5.04 0 2.912-1.876 3.948-3.164 4.144v.168c1.4.084 3.836 1.288 3.836 4.536 0 3.22-2.156 5.656-5.04 5.656h-8.876zm2.352-9.072v7h5.796c2.016 0 3.248-1.064 3.248-3.024v-.952c0-1.96-1.232-3.024-3.248-3.024h-5.796zm0-8.4v6.384h5.404c1.848 0 2.968-.98 2.968-2.716v-.952c0-1.736-1.12-2.716-2.968-2.716h-5.404zM49.032 93h-1.988c-1.54 0-2.38-.98-2.38-2.324V72.28h2.24v18.76h2.128V93zm8.708.336c-3.864 0-6.524-2.968-6.524-7.56s2.66-7.56 6.524-7.56 6.524 2.968 6.524 7.56-2.66 7.56-6.524 7.56zm0-1.988c2.408 0 4.116-1.484 4.116-4.536V84.74c0-3.052-1.708-4.536-4.116-4.536-2.408 0-4.116 1.484-4.116 4.536v2.072c0 3.052 1.708 4.536 4.116 4.536zm15.596 1.988c-4.06 0-6.44-2.94-6.44-7.56 0-4.62 2.38-7.56 6.44-7.56 2.856 0 4.564 1.4 5.404 3.388l-1.876.952c-.532-1.484-1.764-2.352-3.528-2.352-2.66 0-4.032 1.82-4.032 4.34v2.464c0 2.52 1.372 4.34 4.032 4.34 1.82 0 3.136-.868 3.92-2.52l1.624 1.092c-.924 2.072-2.8 3.416-5.544 3.416zM82.044 93V72.28h2.24v13.132h.112l2.212-2.464 4.088-4.396h2.716l-5.348 5.712L93.944 93h-2.716l-4.788-7.364-2.156 2.212V93h-2.24zm20.132.336c-4.06 0-6.44-2.94-6.44-7.56 0-4.62 2.38-7.56 6.44-7.56 2.856 0 4.564 1.4 5.404 3.388l-1.876.952c-.532-1.484-1.764-2.352-3.528-2.352-2.66 0-4.032 1.82-4.032 4.34v2.464c0 2.52 1.372 4.34 4.032 4.34 1.82 0 3.136-.868 3.92-2.52l1.624 1.092c-.924 2.072-2.8 3.416-5.544 3.416zm8.708-.336V72.28h2.24v8.624h.112c.7-1.624 1.932-2.688 4.088-2.688 2.968 0 4.844 2.016 4.844 5.516V93h-2.24v-8.876c0-2.576-1.12-3.892-3.276-3.892-1.792 0-3.528.896-3.528 2.744V93h-2.24zm27.664 0h-1.26c-1.652 0-2.324-1.008-2.492-2.352h-.14c-.616 1.764-2.156 2.688-4.172 2.688-3.052 0-4.844-1.68-4.844-4.368 0-2.716 1.96-4.228 6.16-4.228h2.856v-1.428c0-2.044-1.12-3.164-3.416-3.164-1.736 0-2.884.84-3.668 2.156l-1.344-1.26c.784-1.54 2.52-2.828 5.124-2.828 3.472 0 5.544 1.82 5.544 4.872v7.952h1.652V93zm-7.7-1.568c2.212 0 3.808-1.148 3.808-2.632v-2.38h-2.968c-2.548 0-3.696.784-3.696 2.184v.588c0 1.428 1.12 2.24 2.856 2.24zm12.012-16.268c-.952 0-1.372-.504-1.372-1.26v-.364c0-.756.42-1.26 1.372-1.26.952 0 1.372.504 1.372 1.26v.364c0 .756-.42 1.26-1.372 1.26zM141.74 93V78.552h2.24V93h-2.24zm9.24 0h-2.24V78.552h2.24v2.352h.112c.7-1.624 1.932-2.688 4.088-2.688 2.968 0 4.844 2.016 4.844 5.516V93h-2.24v-8.876c0-2.576-1.12-3.892-3.276-3.892-1.792 0-3.528.896-3.528 2.744V93zm25.648.336c-4.06 0-6.44-2.94-6.44-7.56 0-4.62 2.38-7.56 6.44-7.56 2.856 0 4.564 1.4 5.404 3.388l-1.876.952c-.532-1.484-1.764-2.352-3.528-2.352-2.66 0-4.032 1.82-4.032 4.34v2.464c0 2.52 1.372 4.34 4.032 4.34 1.82 0 3.136-.868 3.92-2.52l1.624 1.092c-.924 2.072-2.8 3.416-5.544 3.416zM197.096 93h-1.26c-1.652 0-2.324-1.008-2.492-2.352h-.14c-.616 1.764-2.156 2.688-4.172 2.688-3.052 0-4.844-1.68-4.844-4.368 0-2.716 1.96-4.228 6.16-4.228h2.856v-1.428c0-2.044-1.12-3.164-3.416-3.164-1.736 0-2.884.84-3.668 2.156l-1.344-1.26c.784-1.54 2.52-2.828 5.124-2.828 3.472 0 5.544 1.82 5.544 4.872v7.952h1.652V93zm-7.7-1.568c2.212 0 3.808-1.148 3.808-2.632v-2.38h-2.968c-2.548 0-3.696.784-3.696 2.184v.588c0 1.428 1.12 2.24 2.856 2.24zM202.528 93h-2.24V78.552h2.24v2.352h.112c.7-1.624 1.932-2.688 4.088-2.688 2.968 0 4.844 2.016 4.844 5.516V93h-2.24v-8.876c0-2.576-1.12-3.892-3.276-3.892-1.792 0-3.528.896-3.528 2.744V93zm29.512 0v-2.352h-.112c-.868 1.792-2.24 2.688-4.228 2.688-3.612 0-5.88-2.94-5.88-7.56 0-4.62 2.268-7.56 5.88-7.56 1.988 0 3.472.868 4.228 2.688h.112V72.28h2.24V93h-2.24zm-3.724-1.68c2.044 0 3.724-1.064 3.724-2.94v-5.376c0-1.596-1.68-2.772-3.724-2.772-2.52 0-4.088 1.736-4.088 4.312v2.464c0 2.576 1.568 4.312 4.088 4.312zm16.184 2.016c-3.864 0-6.524-2.968-6.524-7.56s2.66-7.56 6.524-7.56 6.524 2.968 6.524 7.56-2.66 7.56-6.524 7.56zm0-1.988c2.408 0 4.116-1.484 4.116-4.536V84.74c0-3.052-1.708-4.536-4.116-4.536-2.408 0-4.116 1.484-4.116 4.536v2.072c0 3.052 1.708 4.536 4.116 4.536zM27.164 137v-12.488h-2.352v-1.96h2.352v-2.912c0-1.988 1.036-3.36 3.164-3.36h2.184v1.96h-3.108v4.312h3.108v1.96h-3.108V137h-2.24zm13.748.336c-3.864 0-6.524-2.968-6.524-7.56s2.66-7.56 6.524-7.56 6.524 2.968 6.524 7.56-2.66 7.56-6.524 7.56zm0-1.988c2.408 0 4.116-1.484 4.116-4.536v-2.072c0-3.052-1.708-4.536-4.116-4.536-2.408 0-4.116 1.484-4.116 4.536v2.072c0 3.052 1.708 4.536 4.116 4.536zM53.372 137h-2.24v-14.448h2.24v2.66h.14c.504-1.372 1.82-2.66 4.172-2.66h.868v2.24h-1.316c-2.408 0-3.864 1.036-3.864 2.408v9.8zm14.644 0v-20.72h2.24v8.624h.112c.756-1.82 2.24-2.688 4.228-2.688 3.612 0 5.88 2.94 5.88 7.56 0 4.62-2.268 7.56-5.88 7.56-1.988 0-3.36-.896-4.228-2.688h-.112V137h-2.24zm5.964-1.68c2.52 0 4.088-1.736 4.088-4.312v-2.464c0-2.576-1.568-4.312-4.088-4.312-2.044 0-3.724 1.176-3.724 2.772v5.376c0 1.876 1.68 2.94 3.724 2.94zM93.16 137v-2.352h-.112c-.56 1.372-1.652 2.688-4.06 2.688-2.968 0-4.872-2.016-4.872-5.516v-9.268h2.24v8.876c0 2.576 1.148 3.892 3.304 3.892 1.764 0 3.5-.868 3.5-2.772v-9.996h2.24V137h-2.24zm11.34.336c-2.66 0-4.424-1.12-5.712-2.828l1.596-1.288c1.12 1.4 2.464 2.212 4.284 2.212 1.904 0 3.024-.868 3.024-2.352 0-1.12-.616-1.988-2.52-2.268l-1.148-.168c-2.66-.392-4.648-1.484-4.648-4.172 0-2.856 2.212-4.256 5.152-4.256 2.324 0 3.864.868 5.04 2.324l-1.484 1.344c-.644-.896-1.876-1.764-3.724-1.764-1.848 0-2.828.868-2.828 2.24 0 1.4.98 1.96 2.772 2.24l1.12.168c3.192.476 4.424 1.876 4.424 4.06 0 2.8-2.044 4.508-5.348 4.508zm10.416-18.172c-.952 0-1.372-.504-1.372-1.26v-.364c0-.756.42-1.26 1.372-1.26.952 0 1.372.504 1.372 1.26v.364c0 .756-.42 1.26-1.372 1.26zM113.796 137v-14.448h2.24V137h-2.24zm9.24 0h-2.24v-14.448h2.24v2.352h.112c.7-1.624 1.932-2.688 4.088-2.688 2.968 0 4.844 2.016 4.844 5.516V137h-2.24v-8.876c0-2.576-1.12-3.892-3.276-3.892-1.792 0-3.528.896-3.528 2.744V137zm19.096.336c-3.92 0-6.496-2.968-6.496-7.56s2.576-7.56 6.496-7.56c3.864 0 6.244 2.968 6.244 7.056v1.064h-10.388v.672c0 2.492 1.596 4.368 4.284 4.368 1.82 0 3.22-.896 3.976-2.492l1.596 1.148c-.924 1.96-2.996 3.304-5.712 3.304zm0-13.244c-2.436 0-4.144 1.848-4.144 4.368v.196h7.98v-.308c0-2.548-1.54-4.256-3.836-4.256zm14.28 13.244c-2.66 0-4.424-1.12-5.712-2.828l1.596-1.288c1.12 1.4 2.464 2.212 4.284 2.212 1.904 0 3.024-.868 3.024-2.352 0-1.12-.616-1.988-2.52-2.268l-1.148-.168c-2.66-.392-4.648-1.484-4.648-4.172 0-2.856 2.212-4.256 5.152-4.256 2.324 0 3.864.868 5.04 2.324l-1.484 1.344c-.644-.896-1.876-1.764-3.724-1.764-1.848 0-2.828.868-2.828 2.24 0 1.4.98 1.96 2.772 2.24l1.12.168c3.192.476 4.424 1.876 4.424 4.06 0 2.8-2.044 4.508-5.348 4.508zm13.636 0c-2.66 0-4.424-1.12-5.712-2.828l1.596-1.288c1.12 1.4 2.464 2.212 4.284 2.212 1.904 0 3.024-.868 3.024-2.352 0-1.12-.616-1.988-2.52-2.268l-1.148-.168c-2.66-.392-4.648-1.484-4.648-4.172 0-2.856 2.212-4.256 5.152-4.256 2.324 0 3.864.868 5.04 2.324l-1.484 1.344c-.644-.896-1.876-1.764-3.724-1.764-1.848 0-2.828.868-2.828 2.24 0 1.4.98 1.96 2.772 2.24l1.12.168c3.192.476 4.424 1.876 4.424 4.06 0 2.8-2.044 4.508-5.348 4.508zm18.256-.336l-3.864-14.448h2.184l1.54 6.244 1.54 6.328h.056l1.764-6.328 1.82-6.244h1.988l1.876 6.244 1.792 6.328h.056l1.484-6.328 1.568-6.244h2.1L200.372 137H197.6l-2.016-6.944-1.26-4.396h-.056l-1.232 4.396L191.02 137h-2.716zm19.152 0v-20.72h2.24v8.624h.112c.7-1.624 1.932-2.688 4.088-2.688 2.968 0 4.844 2.016 4.844 5.516V137h-2.24v-8.876c0-2.576-1.12-3.892-3.276-3.892-1.792 0-3.528.896-3.528 2.744V137h-2.24zm27.664 0h-1.26c-1.652 0-2.324-1.008-2.492-2.352h-.14c-.616 1.764-2.156 2.688-4.172 2.688-3.052 0-4.844-1.68-4.844-4.368 0-2.716 1.96-4.228 6.16-4.228h2.856v-1.428c0-2.044-1.12-3.164-3.416-3.164-1.736 0-2.884.84-3.668 2.156l-1.344-1.26c.784-1.54 2.52-2.828 5.124-2.828 3.472 0 5.544 1.82 5.544 4.872v7.952h1.652V137zm-7.7-1.568c2.212 0 3.808-1.148 3.808-2.632v-2.38h-2.968c-2.548 0-3.696.784-3.696 2.184v.588c0 1.428 1.12 2.24 2.856 2.24zM244.304 137h-2.8c-1.54 0-2.38-.98-2.38-2.38v-10.108h-2.38v-1.96h1.344c.952 0 1.26-.336 1.26-1.316v-2.688h2.016v4.004h3.164v1.96h-3.164v10.528h2.94V137zM32.372 181h-2.8c-1.54 0-2.38-.98-2.38-2.38v-10.108h-2.38v-1.96h1.344c.952 0 1.26-.336 1.26-1.316v-2.688h2.016v4.004h3.164v1.96h-3.164v10.528h2.94V181zm3.836 0v-20.72h2.24v8.624h.112c.7-1.624 1.932-2.688 4.088-2.688 2.968 0 4.844 2.016 4.844 5.516V181h-2.24v-8.876c0-2.576-1.12-3.892-3.276-3.892-1.792 0-3.528.896-3.528 2.744V181h-2.24zm21.336.336c-3.92 0-6.496-2.968-6.496-7.56s2.576-7.56 6.496-7.56c3.864 0 6.244 2.968 6.244 7.056v1.064H53.4v.672c0 2.492 1.596 4.368 4.284 4.368 1.82 0 3.22-.896 3.976-2.492l1.596 1.148c-.924 1.96-2.996 3.304-5.712 3.304zm0-13.244c-2.436 0-4.144 1.848-4.144 4.368v.196h7.98v-.308c0-2.548-1.54-4.256-3.836-4.256zm17.668-4.928c-.952 0-1.372-.504-1.372-1.26v-.364c0-.756.42-1.26 1.372-1.26.952 0 1.372.504 1.372 1.26v.364c0 .756-.42 1.26-1.372 1.26zM74.092 181v-14.448h2.24V181h-2.24zm9.24 0h-2.24v-14.448h2.24v2.352h.112c.7-1.624 1.932-2.688 4.088-2.688 2.968 0 4.844 2.016 4.844 5.516V181h-2.24v-8.876c0-2.576-1.12-3.892-3.276-3.892-1.792 0-3.528.896-3.528 2.744V181zm19.656 0h-2.8c-1.54 0-2.38-.98-2.38-2.38v-10.108h-2.38v-1.96h1.344c.952 0 1.26-.336 1.26-1.316v-2.688h2.016v4.004h3.164v1.96h-3.164v10.528h2.94V181zm9.268.336c-3.92 0-6.496-2.968-6.496-7.56s2.576-7.56 6.496-7.56c3.864 0 6.244 2.968 6.244 7.056v1.064h-10.388v.672c0 2.492 1.596 4.368 4.284 4.368 1.82 0 3.22-.896 3.976-2.492l1.596 1.148c-.924 1.96-2.996 3.304-5.712 3.304zm0-13.244c-2.436 0-4.144 1.848-4.144 4.368v.196h7.98v-.308c0-2.548-1.54-4.256-3.836-4.256zM124.436 181h-2.24v-14.448h2.24v2.66h.14c.504-1.372 1.82-2.66 4.172-2.66h.868v2.24H128.3c-2.408 0-3.864 1.036-3.864 2.408v9.8zm10.276 0h-2.24v-14.448h2.24v2.352h.112c.7-1.624 1.932-2.688 4.088-2.688 2.968 0 4.844 2.016 4.844 5.516V181h-2.24v-8.876c0-2.576-1.12-3.892-3.276-3.892-1.792 0-3.528.896-3.528 2.744V181zm19.096.336c-3.92 0-6.496-2.968-6.496-7.56s2.576-7.56 6.496-7.56c3.864 0 6.244 2.968 6.244 7.056v1.064h-10.388v.672c0 2.492 1.596 4.368 4.284 4.368 1.82 0 3.22-.896 3.976-2.492l1.596 1.148c-.924 1.96-2.996 3.304-5.712 3.304zm0-13.244c-2.436 0-4.144 1.848-4.144 4.368v.196h7.98v-.308c0-2.548-1.54-4.256-3.836-4.256zM169.74 181h-2.8c-1.54 0-2.38-.98-2.38-2.38v-10.108h-2.38v-1.96h1.344c.952 0 1.26-.336 1.26-1.316v-2.688h2.016v4.004h3.164v1.96H166.8v10.528h2.94V181zm19.684 0v-2.352h-.112c-.868 1.792-2.24 2.688-4.228 2.688-3.612 0-5.88-2.94-5.88-7.56 0-4.62 2.268-7.56 5.88-7.56 1.988 0 3.472.868 4.228 2.688h.112v-8.624h2.24V181h-2.24zm-3.724-1.68c2.044 0 3.724-1.064 3.724-2.94v-5.376c0-1.596-1.68-2.772-3.724-2.772-2.52 0-4.088 1.736-4.088 4.312v2.464c0 2.576 1.568 4.312 4.088 4.312zm11.844-16.156c-.952 0-1.372-.504-1.372-1.26v-.364c0-.756.42-1.26 1.372-1.26.952 0 1.372.504 1.372 1.26v.364c0 .756-.42 1.26-1.372 1.26zM196.424 181v-14.448h2.24V181h-2.24zm16.24 0v-2.352h-.112c-.868 1.792-2.24 2.688-4.228 2.688-3.612 0-5.88-2.94-5.88-7.56 0-4.62 2.268-7.56 5.88-7.56 1.988 0 3.472.868 4.228 2.688h.112v-8.624h2.24V181h-2.24zm-3.724-1.68c2.044 0 3.724-1.064 3.724-2.94v-5.376c0-1.596-1.68-2.772-3.724-2.772-2.52 0-4.088 1.736-4.088 4.312v2.464c0 2.576 1.568 4.312 4.088 4.312zm18.116 1.68v-12.488h-2.352v-1.96h2.352v-2.912c0-1.988 1.036-3.36 3.164-3.36h2.184v1.96h-3.108v4.312h3.108v1.96h-3.108V181h-2.24zm13.748.336c-3.864 0-6.524-2.968-6.524-7.56s2.66-7.56 6.524-7.56 6.524 2.968 6.524 7.56-2.66 7.56-6.524 7.56zm0-1.988c2.408 0 4.116-1.484 4.116-4.536v-2.072c0-3.052-1.708-4.536-4.116-4.536-2.408 0-4.116 1.484-4.116 4.536v2.072c0 3.052 1.708 4.536 4.116 4.536zm12.46 1.652h-2.24v-14.448h2.24v2.66h.14c.504-1.372 1.82-2.66 4.172-2.66h.868v2.24h-1.316c-2.408 0-3.864 1.036-3.864 2.408v9.8zM31.756 225.336c-4.06 0-6.44-2.94-6.44-7.56 0-4.62 2.38-7.56 6.44-7.56 2.856 0 4.564 1.4 5.404 3.388l-1.876.952c-.532-1.484-1.764-2.352-3.528-2.352-2.66 0-4.032 1.82-4.032 4.34v2.464c0 2.52 1.372 4.34 4.032 4.34 1.82 0 3.136-.868 3.92-2.52l1.624 1.092c-.924 2.072-2.8 3.416-5.544 3.416zm14.168 0c-3.864 0-6.524-2.968-6.524-7.56s2.66-7.56 6.524-7.56 6.524 2.968 6.524 7.56-2.66 7.56-6.524 7.56zm0-1.988c2.408 0 4.116-1.484 4.116-4.536v-2.072c0-3.052-1.708-4.536-4.116-4.536-2.408 0-4.116 1.484-4.116 4.536v2.072c0 3.052 1.708 4.536 4.116 4.536zM58.384 225h-2.24v-14.448h2.24v2.352h.112c.644-1.484 1.652-2.688 3.892-2.688 1.904 0 3.64.868 4.424 2.94h.056c.532-1.568 1.932-2.94 4.396-2.94 2.94 0 4.704 2.016 4.704 5.516V225h-2.24v-8.876c0-2.548-.98-3.892-3.164-3.892-1.764 0-3.388.896-3.388 2.744V225h-2.24v-8.876c0-2.576-.98-3.892-3.108-3.892-1.764 0-3.444.896-3.444 2.744V225zm24.444 0h-2.24v-14.448h2.24v2.352h.112c.644-1.484 1.652-2.688 3.892-2.688 1.904 0 3.64.868 4.424 2.94h.056c.532-1.568 1.932-2.94 4.396-2.94 2.94 0 4.704 2.016 4.704 5.516V225h-2.24v-8.876c0-2.548-.98-3.892-3.164-3.892-1.764 0-3.388.896-3.388 2.744V225h-2.24v-8.876c0-2.576-.98-3.892-3.108-3.892-1.764 0-3.444.896-3.444 2.744V225zm31.108 0v-2.352h-.112c-.56 1.372-1.652 2.688-4.06 2.688-2.968 0-4.872-2.016-4.872-5.516v-9.268h2.24v8.876c0 2.576 1.148 3.892 3.304 3.892 1.764 0 3.5-.868 3.5-2.772v-9.996h2.24V225h-2.24zm9.24 0h-2.24v-14.448h2.24v2.352h.112c.7-1.624 1.932-2.688 4.088-2.688 2.968 0 4.844 2.016 4.844 5.516V225h-2.24v-8.876c0-2.576-1.12-3.892-3.276-3.892-1.792 0-3.528.896-3.528 2.744V225zm14.784-17.836c-.952 0-1.372-.504-1.372-1.26v-.364c0-.756.42-1.26 1.372-1.26.952 0 1.372.504 1.372 1.26v.364c0 .756-.42 1.26-1.372 1.26zM136.84 225v-14.448h2.24V225h-2.24zm12.376.336c-4.06 0-6.44-2.94-6.44-7.56 0-4.62 2.38-7.56 6.44-7.56 2.856 0 4.564 1.4 5.404 3.388l-1.876.952c-.532-1.484-1.764-2.352-3.528-2.352-2.66 0-4.032 1.82-4.032 4.34v2.464c0 2.52 1.372 4.34 4.032 4.34 1.82 0 3.136-.868 3.92-2.52l1.624 1.092c-.924 2.072-2.8 3.416-5.544 3.416zm20.468-.336h-1.26c-1.652 0-2.324-1.008-2.492-2.352h-.14c-.616 1.764-2.156 2.688-4.172 2.688-3.052 0-4.844-1.68-4.844-4.368 0-2.716 1.96-4.228 6.16-4.228h2.856v-1.428c0-2.044-1.12-3.164-3.416-3.164-1.736 0-2.884.84-3.668 2.156l-1.344-1.26c.784-1.54 2.52-2.828 5.124-2.828 3.472 0 5.544 1.82 5.544 4.872v7.952h1.652V225zm-7.7-1.568c2.212 0 3.808-1.148 3.808-2.632v-2.38h-2.968c-2.548 0-3.696.784-3.696 2.184v.588c0 1.428 1.12 2.24 2.856 2.24zM178.868 225h-2.8c-1.54 0-2.38-.98-2.38-2.38v-10.108h-2.38v-1.96h1.344c.952 0 1.26-.336 1.26-1.316v-2.688h2.016v4.004h3.164v1.96h-3.164v10.528h2.94V225zm4.956-17.836c-.952 0-1.372-.504-1.372-1.26v-.364c0-.756.42-1.26 1.372-1.26.952 0 1.372.504 1.372 1.26v.364c0 .756-.42 1.26-1.372 1.26zM182.704 225v-14.448h2.24V225h-2.24zm12.46.336c-3.864 0-6.524-2.968-6.524-7.56s2.66-7.56 6.524-7.56 6.524 2.968 6.524 7.56-2.66 7.56-6.524 7.56zm0-1.988c2.408 0 4.116-1.484 4.116-4.536v-2.072c0-3.052-1.708-4.536-4.116-4.536-2.408 0-4.116 1.484-4.116 4.536v2.072c0 3.052 1.708 4.536 4.116 4.536zm12.46 1.652h-2.24v-14.448h2.24v2.352h.112c.7-1.624 1.932-2.688 4.088-2.688 2.968 0 4.844 2.016 4.844 5.516V225h-2.24v-8.876c0-2.576-1.12-3.892-3.276-3.892-1.792 0-3.528.896-3.528 2.744V225zm15.092.336c-1.176 0-1.708-.672-1.708-1.624v-.364c0-.952.532-1.624 1.708-1.624s1.708.672 1.708 1.624v.364c0 .952-.532 1.624-1.708 1.624z" fill="#3D3D3D"/></g></svg>