<svg width="32px" xmlns="http://www.w3.org/2000/svg" viewBox="0 0 26 28"><g fill="#000" fill-rule="evenodd"><path d="M0 20h2V10H0zM24 20h2V10h-2zM11 7a1 1 0 11-2 0 1 1 0 012 0M17 7a1 1 0 11-2 0 1 1 0 012 0"/><path d="M6 10c0-3.86 3.14-7 7-7 3.859 0 7 3.14 7 7H6zm14 11a1 1 0 01-1 1H7c-.551 0-1-.448-1-1v-9h14v9zM18.781 3.112L20 1l-1.732-1-1.157 2.003a8.936 8.936 0 00-8.222 0L7.732 0 6 1l1.219 2.112A8.978 8.978 0 004 10v11c0 1.654 1.346 3 3 3h2v4h2v-4h4v4h2v-4h2c1.654 0 3-1.346 3-3V10a8.981 8.981 0 00-3.219-6.888z"/></g></svg>