<svg xmlns="http://www.w3.org/2000/svg" viewBox="0 0 464 464"><path d="M223.2 209c3.8 0 7-3.1 7-7s-3.1-7-7-7c-3.8 0-7 3.1-7 7 0 4 3.2 7 7 7M240.7 209c3.8 0 7-3.1 7-7s-3.1-7-7-7c-3.8 0-7 3.1-7 7 0 4 3.2 7 7 7M193.2 228.8c-4.8 2.1-8.2 5.9-8.2 11.7 0 6.8 5.5 12.2 12.2 12.2 6.4 0 10.2-4.4 11.8-9l8-25.3-23.8 10.4zM270.6 228.8L247 218.4l8 25.3c1.5 4.5 5.3 9 11.8 9 6.8 0 12.2-5.5 12.2-12.2 0-5.8-3.6-9.5-8.4-11.7M218.3 220.7h27.3c-2.5-5.2-7.6-8.7-13.6-8.7-6.1 0-11.2 3.5-13.7 8.7M216.8 227.7H247v8.1h-30.2zM216.8 242.8H247v8.1h-30.2zM231.9 266.5c6 0 11.2-3.6 13.6-8.7h-27.3c2.6 5.2 7.7 8.7 13.7 8.7"/><g><path d="M232.1 169.2c5 0 9.2-4.2 9.2-9.2 0-5.2-4.1-9.2-9.2-9.2-5 0-9.2 4.2-9.2 9.2-.1 5 4 9.2 9.2 9.2"/><path d="M232.1 185.4c16.5 0 30.7-10.6 36.7-25.6-6-15-20.3-25.6-36.7-25.6s-30.7 10.6-36.7 25.6c5.9 15.1 20.1 25.6 36.7 25.6m0-46.4c11.4 0 20.6 9.3 20.6 20.9s-9.2 20.9-20.6 20.9c-11.4 0-20.6-9.3-20.6-20.9-.2-11.6 9.1-20.9 20.6-20.9"/><path d="M232.1 122.8c13.9 0 26.2 6.3 34.4 16.2v-7c-6.9-12.5-19.8-20.9-34.4-20.9-14.7 0-27.5 8.4-34.4 20.9v7c8.1-9.8 20.5-16.2 34.4-16.2"/></g><g><path d="M194.1 338.8h23.7v4.3h-23.7zM194.1 329.6h23.7v4.3h-23.7zM203.6 320.5h14.3v4.3h-14.3zM203.6 311.4h14.3v4.3h-14.3zM246.2 338.8h23.7v4.3h-23.7zM246.2 329.6h23.7v4.3h-23.7zM246.2 320.5h14.3v4.3h-14.3zM246.2 311.4h14.3v4.3h-14.3zM246.2 306.6h14.1v-4.3h-26.5l-1.5 4.3h12.4l1.5-4.2zM230.2 302.3h-26.6v4.3h14.2v-4.2l1.5 4.2h12.4zM260.3 293.1h-23.4l-1.5 4.4h24.9zM241.6 279.2h28.2v-4.3h-26.7zM231.9 343.1l1.6-4.3h-3zM228.7 334h6.4l1.6-4.4h-9.4zM225.5 324.8h12.8l1.6-4.3h-15.8zM222.4 315.7h19.1l1.5-4.3h-22.1zM227 293.1h-23.4v4.4h24.9zM238.6 288.3h31.2V284H240zM194.1 288.3h31.3L224 284h-29.9zM194.1 274.9v4.3h28.1l-1.4-4.3z"/></g></svg>