<?xml version="1.0" encoding="UTF-8"?>
<svg width="448px" height="448px" viewBox="0 0 448 448" version="1.1" xmlns="http://www.w3.org/2000/svg" xmlns:xlink="http://www.w3.org/1999/xlink">
    <!-- Generator: Sketch 51.3 (57544) - http://www.bohemiancoding.com/sketch -->
    <title>Group 57</title>
    <desc>Created with Sketch.</desc>
    <defs></defs>
    <g id="Desktop" stroke="none" stroke-width="1" fill="none" fill-rule="evenodd">
        <g id="Icons-Copy-2" transform="translate(-354.000000, -4720.000000)">
            <g id="Group-57" transform="translate(354.000000, 4720.000000)">
                <rect id="Rectangle-5-Copy-8" fill="#000000" x="0" y="0" width="448" height="448"></rect>
                <g id="Group-45" transform="translate(177.000000, 106.000000)">
                    <path d="M47.3478962,59 C52.5090437,59 56.6921585,54.7740267 56.6921585,49.56 C56.6921585,44.3459733 52.5090437,40.12 47.3478962,40.12 C42.1867486,40.12 38.0036339,44.3459733 38.0036339,49.56 C38.0036339,54.7740267 42.1867486,59 47.3478962,59" id="Fill-1" fill="#F3F3F3"></path>
                    <path d="M47.3478962,28.32 C58.9596995,28.32 68.3724863,37.8292267 68.3724863,49.56 C68.3724863,61.2907733 58.9596995,70.8 47.3478962,70.8 C35.7350546,70.8 26.323306,61.2907733 26.323306,49.56 C26.323306,37.8292267 35.7350546,28.32 47.3478962,28.32 M47.3478962,75.52 C64.1530328,75.52 78.5701913,64.81504 84.7249454,49.56 C78.5701913,34.30496 64.1530328,23.6 47.3478962,23.6 C30.5417213,23.6 16.1245628,34.30496 9.97084699,49.56 C16.1245628,64.81504 30.5417213,75.52 47.3478962,75.52" id="Fill-3" fill="#F3F3F3"></path>
                    <path d="M47.3478962,11.8 C61.4296995,11.8 74.0184973,18.2254933 82.3888798,28.32 L82.3888798,21.24 C75.355765,8.53795556 62.2987158,0 47.3478962,0 C32.3960383,0 19.3389891,8.53795556 12.3069126,21.24 L12.3069126,28.32 C20.6762568,18.2254933 33.2660929,11.8 47.3478962,11.8" id="Fill-5" fill="#F3F3F3"></path>
                    <path d="M45.5269071,92.6166791 C45.5269071,88.7137636 42.395541,85.5503147 38.5322077,85.5503147 C34.6688743,85.5503147 31.5364699,88.7137636 31.5364699,92.6166791 C31.5364699,96.5195947 34.6688743,99.6830436 38.5322077,99.6830436 C42.395541,99.6830436 45.5269071,96.5195947 45.5269071,92.6166791" id="Fill-7" fill="#F3F3F3"></path>
                    <path d="M56.0787596,85.55 C52.214388,85.55 49.0840601,88.7144978 49.0840601,92.6163644 C49.0840601,96.51928 52.214388,99.6837778 56.0787596,99.6837778 C59.9420929,99.6837778 63.073459,96.51928 63.073459,92.6163644 C63.073459,88.7144978 59.9420929,85.55 56.0787596,85.55" id="Fill-9" fill="#F3F3F3"></path>
                    <g id="Group-13" transform="translate(0.000000, 109.084444)">
                        <polygon id="Clip-12" points="0 0.0392284444 32.1213169 0.0392284444 32.1213169 34.848704 0 34.848704"></polygon>
                        <path d="M24.0997869,25.7684729 L32.1213169,0.0392284444 L8.33186339,10.6623751 C3.51230055,12.8472107 -0.000103825137,16.7039751 -0.000103825137,22.4760107 C-0.000103825137,29.288544 5.52027869,34.848704 12.2647596,34.848704 C18.7424098,34.848704 22.5777104,30.3521173 24.0997869,25.7684729" id="Fill-11" fill="#F3F3F3"></path>
                    </g>
                    <path d="M86.2782732,119.7464 L62.4898579,109.123253 L70.5103497,134.852498 C72.0324262,139.436142 75.8884918,143.932729 82.3869071,143.932729 C82.3910601,143.932729 82.3952131,143.933778 82.4004044,143.933778 C89.143847,143.933778 94.6102404,138.373618 94.6102404,131.561084 C94.6102404,125.789049 91.0988743,121.931236 86.2782732,119.7464" id="Fill-14" fill="#F3F3F3"></path>
                    <path d="M47.3053279,102.66 C41.2190984,102.66 36.0018852,106.287058 33.5806831,111.510524 L61.0621585,111.510524 C58.6378415,106.293351 53.3863661,102.66 47.3053279,102.66" id="Fill-16" fill="#F3F3F3"></path>
                    <polygon id="Fill-18" fill="#F3F3F3" points="32.1209016 118.59 32.1209016 126.85 62.4876776 126.85 62.4897541 118.59"></polygon>
                    <polygon id="Fill-20" fill="#F3F3F3" points="62.4897541 133.93 32.1209016 133.93 32.1209016 142.19 62.4876776 142.19"></polygon>
                    <path d="M61.0621585,149.27 L33.5806831,149.27 C36.005,154.487173 41.2242896,158.120524 47.3053279,158.120524 C53.3915574,158.120524 58.639918,154.492418 61.0621585,149.27" id="Fill-22" fill="#F3F3F3"></path>
                    <polygon id="Clip-25" points="0 236 94.6106557 236 94.6106557 0 0 0"></polygon>
                    <polygon id="Fill-24" fill="#F3F3F3" points="8.7784153 236 32.8637705 236 32.8637705 231.575787 8.7784153 231.575787"></polygon>
                    <polygon id="Fill-26" fill="#F3F3F3" points="8.7784153 226.709991 32.8637705 226.709991 32.8637705 222.285778 8.7784153 222.285778"></polygon>
                    <polygon id="Fill-27" fill="#F3F3F3" points="18.4123497 217.418933 32.8637705 217.418933 32.8637705 212.995769 18.4123497 212.995769"></polygon>
                    <polygon id="Fill-28" fill="#F3F3F3" points="18.4123497 208.129973 32.8637705 208.129973 32.8637705 203.70576 18.4123497 203.70576"></polygon>
                    <polygon id="Fill-29" fill="#F3F3F3" points="61.7655738 236 85.8498907 236 85.8498907 231.575787 61.7655738 231.575787"></polygon>
                    <polygon id="Fill-30" fill="#F3F3F3" points="61.7655738 226.709991 85.8498907 226.709991 85.8498907 222.285778 61.7655738 222.285778"></polygon>
                    <polygon id="Fill-31" fill="#F3F3F3" points="61.7655738 217.418933 76.2159563 217.418933 76.2159563 212.995769 61.7655738 212.995769"></polygon>
                    <polygon id="Fill-32" fill="#F3F3F3" points="61.7655738 208.129973 76.2159563 208.129973 76.2159563 203.70576 61.7655738 203.70576"></polygon>
                    <polygon id="Fill-33" fill="#F3F3F3" points="61.7657814 198.83923 76.2161639 198.83923 76.2161639 194.415017 61.7657814 194.415017 49.129224 194.415017 47.6102623 198.83923 60.293541 198.83923 61.7657814 194.625844"></polygon>
                    <polygon id="Fill-34" fill="#F3F3F3" points="45.5005355 194.415227 32.8639781 194.415227 18.4125574 194.415227 18.4125574 198.83944 32.8639781 198.83944 32.8639781 194.626053 34.3362186 198.83944 47.0194973 198.83944"></polygon>
                    <polygon id="Fill-35" fill="#F3F3F3" points="76.2161639 185.124798 52.3197705 185.124798 50.8008087 189.549012 76.2161639 189.549012"></polygon>
                    <polygon id="Fill-36" fill="#F3F3F3" points="57.1808634 170.968889 85.8500984 170.968889 85.8500984 166.544676 58.6998251 166.544676"></polygon>
                    <polygon id="Fill-37" fill="#F3F3F3" points="47.3053279 236 48.8523224 231.575787 45.7759836 231.575787"></polygon>
                    <polygon id="Fill-38" fill="#F3F3F3" points="44.0759508 226.709572 50.5525628 226.709572 52.0995574 222.285358 42.5299945 222.285358"></polygon>
                    <polygon id="Fill-39" fill="#F3F3F3" points="40.8294426 217.419143 53.7992787 217.419143 55.345235 212.995979 39.2834863 212.995979"></polygon>
                    <polygon id="Fill-40" fill="#F3F3F3" points="37.5828306 208.129659 57.046929 208.129659 58.591847 203.705445 36.0368743 203.705445"></polygon>
                    <polygon id="Fill-41" fill="#F3F3F3" points="42.3097814 185.124798 18.4123497 185.124798 18.4123497 189.549012 43.8287432 189.549012"></polygon>
                    <polygon id="Fill-42" fill="#F3F3F3" points="53.9911475 180.258268 85.850929 180.258268 85.850929 175.834055 55.5101093 175.834055"></polygon>
                    <polygon id="Fill-43" fill="#F3F3F3" points="8.77851913 180.258268 40.6393388 180.258268 39.1193388 175.834055 8.77851913 175.834055"></polygon>
                    <polygon id="Fill-44" fill="#F3F3F3" points="8.77851913 166.544885 8.77851913 170.969099 37.4477541 170.969099 35.9287923 166.544885"></polygon>
                </g>
            </g>
        </g>
    </g>
</svg>