<?xml version="1.0" encoding="UTF-8"?>
<svg width="288px" height="288px" viewBox="0 0 288 288" version="1.1" xmlns="http://www.w3.org/2000/svg" xmlns:xlink="http://www.w3.org/1999/xlink">
    <!-- Generator: Sketch 64 (93537) - https://sketch.com -->
    <title>Group 36</title>
    <desc>Created with Sketch.</desc>
    <g id="Desktop" stroke="none" stroke-width="1" fill="none" fill-rule="evenodd">
        <g id="IDL-Rebus" transform="translate(-992.000000, -5765.000000)">
            <g id="Black-/-Purple-20" transform="translate(992.000000, 5765.000000)">
                <g id="Group-36">
                    <rect id="Rectangle-5-Copy-10" fill="#D4BBFF" x="0" y="0" width="288" height="288"></rect>
                    <path d="M169.399103,143.610259 L154.124688,136.858405 L159.274836,153.211778 C160.252001,156.125274 162.715017,158.983374 166.874504,158.983374 C171.204958,158.983374 174.749464,155.448992 174.749464,151.119099 C174.749464,147.450866 172.494253,144.998535 169.399103,143.610259 Z M178.134249,125.539327 L178.134249,122.446145 L195.849746,122.446145 L196.925611,125.539327 L178.134249,125.539327 Z M178.134249,131.444493 L178.134249,128.351311 L197.903338,128.351311 L198.978922,131.444493 L178.134249,131.444493 Z M212.159252,166.875488 L227.625163,166.875488 L227.625163,163.782306 L212.159252,163.782306 L212.159252,166.875488 Z M212.159252,160.970322 L227.625163,160.970322 L227.625163,157.87714 L212.159252,157.87714 L212.159252,160.970322 Z M212.159252,155.065156 L221.438798,155.065156 L221.438798,151.971974 L212.159252,151.971974 L212.159252,155.065156 Z M212.159252,149.15999 L221.438798,149.15999 L221.438798,146.066808 L212.159252,146.066808 L212.159252,149.15999 Z M212.159252,140.412471 L211.16156,143.254824 L194.598132,143.254824 L193.600159,140.41219 L193.600159,143.254824 L184.320613,143.254824 L184.320613,140.161642 L202.010522,140.161642 L202.879706,142.661777 L203.749171,140.161642 L221.438798,140.161642 L221.438798,143.254824 L212.159252,143.254824 L212.159252,140.412471 Z M221.438798,137.349658 L204.727179,137.349658 L205.802763,134.256476 L221.438798,134.256476 L221.438798,137.349658 Z M184.320613,149.15999 L193.600159,149.15999 L193.600159,146.066808 L184.320613,146.066808 L184.320613,149.15999 Z M184.320613,155.065156 L193.600159,155.065156 L193.600159,151.971974 L184.320613,151.971974 L184.320613,155.065156 Z M178.134249,160.970322 L193.600159,160.970322 L193.600159,157.87714 L178.134249,157.87714 L178.134249,160.970322 Z M178.134249,166.875488 L193.600159,166.875488 L193.600159,163.782306 L178.134249,163.782306 L178.134249,166.875488 Z M227.625163,122.446145 L227.625163,125.539327 L208.834081,125.539327 L209.909384,122.446145 L227.625163,122.446145 Z M207.856354,128.351311 L227.625163,128.351311 L227.625163,131.444493 L206.78049,131.444493 L207.856354,128.351311 Z M184.320613,134.256476 L199.956649,134.256476 L201.032514,137.349658 L184.320613,137.349658 L184.320613,134.256476 Z M195.58542,146.066808 L210.174273,146.066808 L209.088285,149.15999 L196.671127,149.15999 L195.58542,146.066808 Z M197.658414,151.971974 L208.101278,151.971974 L207.015009,155.065156 L198.744121,155.065156 L197.658414,151.971974 Z M199.731409,157.87714 L206.028284,157.87714 L204.942015,160.970322 L200.817397,160.970322 L199.731409,157.87714 Z M201.804403,163.782306 L203.955008,163.782306 L202.874925,166.875488 L201.804403,163.782306 Z M135.562221,162.374908 C137.118654,165.690799 140.489941,168 144.395224,168 C148.303319,168 151.652954,165.694455 153.207981,162.374908 L135.562221,162.374908 Z M154.124688,152.624917 L134.624706,152.624917 L134.624706,157.87489 L154.123563,157.87489 L154.124688,152.624917 Z M154.124688,142.874925 L134.624706,142.874925 L134.624706,148.124899 L154.123563,148.124899 L154.124688,142.874925 Z M153.207981,138.374908 C151.651548,135.059298 148.279699,132.749815 144.374697,132.749815 C140.466602,132.749815 137.116967,135.055361 135.562221,138.375189 L153.207981,138.374908 Z M113.999649,151.119099 C113.999649,155.448992 117.544435,158.983374 121.87489,158.983374 C126.034095,158.983374 128.497393,156.125274 129.474276,153.211778 L134.624706,136.858405 L119.350291,143.610259 C116.255141,144.998535 113.999649,147.450866 113.999649,151.119099 Z M150.007944,121.875031 C147.527493,121.875031 145.516081,123.88588 145.516081,126.366612 C145.516081,128.847344 147.527493,130.858194 150.007944,130.858194 C152.488676,130.858194 154.499807,128.847344 154.499807,126.366612 C154.499807,123.88588 152.488676,121.875031 150.007944,121.875031 Z M138.74145,121.875031 C136.260718,121.875031 134.249587,123.88588 134.249587,126.366612 C134.249587,128.847344 136.260718,130.858194 138.74145,130.858194 C141.222182,130.858194 143.233031,128.847344 143.233031,126.366612 C143.233031,123.88588 141.222182,121.875031 138.74145,121.875031 Z M84.3748374,120 C74.7744438,120 66.3910766,125.426566 61.8747496,133.500053 L61.8747496,138.00007 C67.2490129,131.583967 75.3326225,127.499842 84.3748374,127.499842 C93.4170523,127.499842 101.500381,131.583967 106.874644,138.00007 L106.874644,133.500053 C102.358598,125.426566 93.9752311,120 84.3748374,120 Z M97.874609,151.500123 C97.874609,144.044148 91.8305311,138.00007 84.3748374,138.00007 C76.9188626,138.00007 70.8747847,144.044148 70.8747847,151.500123 C70.8747847,158.955817 76.9188626,164.999895 84.3748374,164.999895 C91.8305311,164.999895 97.874609,158.955817 97.874609,151.500123 Z M108.374837,151.500123 C104.423438,161.195562 95.1655438,167.999719 84.3748374,167.999719 C73.584131,167.999719 64.326237,161.195562 60.3748374,151.500123 C64.326237,141.804122 73.584131,134.999965 84.3748374,134.999965 C95.1655438,134.999965 104.423438,141.804122 108.374837,151.500123 Z M90.3747671,151.500123 C90.3747671,154.813765 87.6884791,157.499772 84.3748374,157.499772 C81.0609146,157.499772 78.3749077,154.813765 78.3749077,151.500123 C78.3749077,148.1862 81.0609146,145.499912 84.3748374,145.499912 C87.6884791,145.499912 90.3747671,148.1862 90.3747671,151.500123 L90.3747671,151.500123 Z" id="IBM_rebus_h_pos_black_RGB-Copy-7" fill="#002D9C"></path>
                </g>
            </g>
        </g>
    </g>
</svg>