<svg xmlns="http://www.w3.org/2000/svg" xmlns:xlink="http://www.w3.org/1999/xlink" viewBox="0 0 288 512"><defs><style>.cls-1{fill:#fff;}.cls-2{fill:url(#linear-gradient);}.cls-26,.cls-3{fill:none;}.cls-26,.cls-3,.cls-4{stroke:#d12771;stroke-miterlimit:10;}.cls-25,.cls-4{fill:#d0e2ff;}.cls-5{fill:#fdfeff;}.cls-6{fill:#fbfcff;}.cls-7{fill:#f8fbff;}.cls-8{fill:#f6f9ff;}.cls-9{fill:#f4f8ff;}.cls-10{fill:#f2f7ff;}.cls-11{fill:#eff5ff;}.cls-12{fill:#edf4ff;}.cls-13{fill:#ebf3ff;}.cls-14{fill:#e9f1ff;}.cls-15{fill:#e6f0ff;}.cls-16{fill:#e4eeff;}.cls-17{fill:#e2edff;}.cls-18{fill:#e0ecff;}.cls-19{fill:#ddeaff;}.cls-20{fill:#dbe9ff;}.cls-21{fill:#d9e8ff;}.cls-22{fill:#d7e6ff;}.cls-23{fill:#d4e5ff;}.cls-24{fill:#d2e3ff;}.cls-26{stroke-dasharray:8.09 8.09;}</style><linearGradient id="linear-gradient" x1="116" y1="304.5" x2="172" y2="207.5" gradientUnits="userSpaceOnUse"><stop offset="0" stop-color="#d0e2ff" stop-opacity="0"/><stop offset="1" stop-color="#d0e2ff"/></linearGradient></defs><g id="Layer_3" data-name="Layer 3"><rect class="cls-1" width="288" height="512"/><polygon class="cls-2" points="32 256 144 191.34 256 256 144 320.66 32 256"/><polyline class="cls-3" points="32 256 144 191.34 256 256 144 320.66"/><polygon class="cls-4" points="32 96.93 144 32.27 256 96.93 144 161.59 32 96.93"/><path class="cls-1" d="M18.22,408.47l113.89-65.75c6.57-3.8,17.21-3.8,23.78,0l113.89,65.75c6.57,3.79,6.57,9.94,0,13.73L155.89,488c-6.57,3.79-17.21,3.79-23.78,0L18.22,422.2C11.65,418.41,11.65,412.26,18.22,408.47Z"/><path class="cls-5" d="M20.81,408.52l111.38-64.3c6.52-3.77,17.1-3.77,23.62,0l111.38,64.3c6.52,3.76,6.52,9.87,0,13.63L155.81,486.46c-6.52,3.76-17.1,3.76-23.62,0L20.81,422.15C14.29,418.39,14.29,412.28,20.81,408.52Z"/><path class="cls-6" d="M23.41,408.57l108.87-62.85c6.47-3.74,17-3.74,23.44,0l108.87,62.85c6.47,3.74,6.47,9.8,0,13.53L155.72,485c-6.47,3.74-17,3.74-23.44,0L23.41,422.1C16.94,418.37,16.94,412.31,23.41,408.57Z"/><path class="cls-7" d="M26,408.62l106.35-61.41c6.43-3.71,16.85-3.71,23.28,0L262,408.62c6.43,3.71,6.43,9.73,0,13.44l-106.35,61.4c-6.43,3.71-16.85,3.71-23.28,0L26,422.06C19.58,418.35,19.58,412.33,26,408.62Z"/><path class="cls-8" d="M28.61,408.67l103.84-60c6.38-3.68,16.72-3.68,23.1,0l103.84,60c6.39,3.68,6.39,9.65,0,13.34L155.55,482c-6.38,3.68-16.72,3.68-23.1,0L28.61,422C22.22,418.32,22.22,412.35,28.61,408.67Z"/><path class="cls-9" d="M31.2,408.71l101.33-58.5c6.33-3.65,16.61-3.65,22.94,0l101.33,58.5c6.33,3.66,6.33,9.59,0,13.25l-101.33,58.5c-6.33,3.66-16.61,3.66-22.94,0L31.2,422C24.87,418.3,24.87,412.37,31.2,408.71Z"/><path class="cls-10" d="M33.8,408.76l98.81-57.05c6.29-3.63,16.49-3.63,22.78,0l98.81,57.05c6.29,3.63,6.29,9.52,0,13.15l-98.81,57c-6.29,3.63-16.49,3.63-22.78,0l-98.81-57C27.51,418.28,27.51,412.39,33.8,408.76Z"/><path class="cls-11" d="M36.4,408.81l96.3-55.6c6.24-3.6,16.36-3.6,22.6,0l96.3,55.6c6.24,3.61,6.24,9.45,0,13.05l-96.3,55.6c-6.24,3.6-16.36,3.6-22.6,0l-96.3-55.6C30.16,418.26,30.16,412.42,36.4,408.81Z"/><path class="cls-12" d="M39,408.86l93.79-54.15c6.2-3.58,16.24-3.58,22.44,0L249,408.86c6.19,3.58,6.19,9.38,0,12.95L155.22,476c-6.2,3.58-16.24,3.58-22.44,0L39,421.81C32.8,418.24,32.8,412.44,39,408.86Z"/><path class="cls-13" d="M41.59,408.91l91.28-52.7c6.14-3.55,16.12-3.55,22.26,0l91.28,52.7c6.15,3.55,6.15,9.3,0,12.86l-91.28,52.69C149,478,139,478,132.87,474.46L41.59,421.77C35.44,418.21,35.44,412.46,41.59,408.91Z"/><path class="cls-14" d="M44.19,409,133,357.71c6.1-3.52,16-3.52,22.1,0L243.81,409c6.1,3.52,6.1,9.23,0,12.76L155.05,473c-6.1,3.53-16,3.53-22.1,0L44.19,421.72C38.09,418.19,38.09,412.48,44.19,409Z"/><path class="cls-15" d="M46.79,409,133,359.21c6.06-3.5,15.88-3.5,21.94,0L241.21,409c6.06,3.49,6.06,9.16,0,12.66L155,471.46c-6.06,3.5-15.88,3.5-21.94,0L46.79,421.67C40.73,418.17,40.73,412.5,46.79,409Z"/><path class="cls-16" d="M49.38,409.05l83.74-48.34c6-3.47,15.75-3.47,21.76,0l83.74,48.34c6,3.47,6,9.1,0,12.57L154.88,470c-6,3.47-15.75,3.47-21.76,0L49.38,421.62C43.37,418.15,43.37,412.52,49.38,409.05Z"/><path class="cls-17" d="M52,409.1l81.22-46.89c6-3.44,15.63-3.44,21.6,0L236,409.1c6,3.45,6,9,0,12.47L154.8,468.46c-6,3.45-15.63,3.45-21.6,0L52,421.57C46,418.13,46,412.55,52,409.1Z"/><path class="cls-18" d="M54.58,409.15l78.71-45.44c5.91-3.42,15.51-3.42,21.42,0l78.71,45.44c5.92,3.42,5.92,9,0,12.37L154.71,467c-5.91,3.42-15.51,3.42-21.42,0L54.58,421.52C48.66,418.11,48.66,412.57,54.58,409.15Z"/><path class="cls-19" d="M57.18,409.2l76.19-44c5.87-3.39,15.39-3.39,21.26,0l76.19,44c5.88,3.39,5.88,8.88,0,12.27l-76.19,44c-5.87,3.38-15.39,3.38-21.26,0l-76.19-44C51.3,418.08,51.3,412.59,57.18,409.2Z"/><path class="cls-20" d="M59.77,409.25l73.68-42.54c5.83-3.37,15.27-3.37,21.1,0l73.68,42.54c5.82,3.36,5.82,8.81,0,12.18L154.55,464c-5.83,3.36-15.27,3.36-21.1,0L59.77,421.43C54,418.06,54,412.61,59.77,409.25Z"/><path class="cls-21" d="M62.37,409.3l71.17-41.09c5.78-3.34,15.14-3.34,20.92,0l71.17,41.09c5.78,3.33,5.78,8.74,0,12.08l-71.17,41.09c-5.78,3.33-15.14,3.33-20.92,0L62.37,421.38C56.59,418,56.59,412.63,62.37,409.3Z"/><path class="cls-22" d="M65,409.34l68.65-39.63c5.73-3.31,15-3.31,20.76,0L223,409.34c5.74,3.31,5.74,8.68,0,12L154.38,461c-5.73,3.31-15,3.31-20.76,0L65,421.33C59.23,418,59.23,412.65,65,409.34Z"/><path class="cls-23" d="M67.56,409.39l66.15-38.18c5.68-3.29,14.9-3.29,20.58,0l66.15,38.18c5.68,3.29,5.68,8.61,0,11.89l-66.15,38.19c-5.68,3.28-14.9,3.28-20.58,0L67.56,421.28C61.88,418,61.88,412.68,67.56,409.39Z"/><path class="cls-24" d="M70.16,409.44l63.63-36.73c5.64-3.26,14.78-3.26,20.42,0l63.63,36.73c5.64,3.26,5.64,8.54,0,11.79L154.21,458c-5.64,3.25-14.78,3.25-20.42,0L70.16,421.23C64.52,418,64.52,412.7,70.16,409.44Z"/><path class="cls-25" d="M72.76,409.49l61.11-35.28c5.6-3.23,14.66-3.23,20.26,0l61.11,35.28c5.59,3.23,5.59,8.46,0,11.69l-61.11,35.29c-5.6,3.23-14.66,3.23-20.26,0L72.76,421.18C67.17,418,67.17,412.72,72.76,409.49Z"/><polyline class="cls-3" points="35.46 417.34 32 415.34 35.46 413.34"/><line class="cls-26" x1="42.47" y1="409.29" x2="137.03" y2="354.7"/><polyline class="cls-3" points="140.54 352.67 144 350.67 147.46 352.67"/><line class="cls-26" x1="154.47" y1="356.72" x2="249.03" y2="411.31"/><polyline class="cls-3" points="252.54 413.34 256 415.34 252.54 417.34"/><line class="cls-26" x1="245.53" y1="421.38" x2="150.97" y2="475.98"/><polyline class="cls-3" points="147.46 478 144 480 140.54 478"/><line class="cls-26" x1="133.53" y1="473.96" x2="38.97" y2="419.36"/></g></svg>