<svg id="Layer_1" data-name="Layer 1" xmlns="http://www.w3.org/2000/svg" width="928" height="522" viewBox="0 0 928 522">
  <title>conversion rate over time</title>
  <g id="design">
    <g id="Dataviz-Design---Basics">
      <g id="Group-22">
        <g id="Group-17-Copy-6">
          <g id="principles_p_readability" data-name="principles p readability">
            <g id="Back">
              <rect id="Rectangle" width="928" height="522" fill="#fff"/>
            </g>
            <g id="Layer_3" data-name="Layer 3">
              <ellipse id="Oval" cx="402.61" cy="197.09" rx="49.12" ry="49.99" fill="#fff"/>
              <ellipse id="Oval-2" data-name="Oval" cx="489.58" cy="361.22" rx="17.29" ry="17.6" fill="#fff"/>
              <ellipse id="Oval-3" data-name="Oval" cx="430.09" cy="373.84" rx="14.41" ry="14.67" fill="#fff"/>
              <ellipse id="Oval-4" data-name="Oval" cx="507.85" cy="312.21" rx="20.45" ry="20.82" fill="#fff"/>
              <ellipse id="Oval-5" data-name="Oval" cx="389.36" cy="308.79" rx="26.6" ry="27.08" fill="#fff"/>
              <ellipse id="Oval-6" data-name="Oval" cx="345.86" cy="355.47" rx="7.94" ry="8.08" fill="#fff"/>
              <ellipse id="Oval-7" data-name="Oval" cx="506.17" cy="114.78" rx="44.08" ry="44.87" fill="#fff"/>
              <ellipse id="Oval-8" data-name="Oval" cx="590.64" cy="255.94" rx="22.19" ry="22.59" fill="#fff"/>
            </g>
          </g>
        </g>
        <g id="Group-9">
          <g id="Conversion-rate-over" style="isolation: isolate">
            <g style="isolation: isolate">
              <path d="M266.07,109.19a4.25,4.25,0,0,1-3.44-1.48,6.49,6.49,0,0,1-1.25-4.29,8.78,8.78,0,0,1,.32-2.48,4.92,4.92,0,0,1,.93-1.81A3.86,3.86,0,0,1,264.11,98a4.89,4.89,0,0,1,2-.38,4.45,4.45,0,0,1,2.44.63,4.27,4.27,0,0,1,1.54,1.88l-1.52.83a2.79,2.79,0,0,0-.89-1.27,2.81,2.81,0,0,0-3.6.41,3.72,3.72,0,0,0-.74,2.44v1.71a3.7,3.7,0,0,0,.74,2.44,2.81,2.81,0,0,0,3.67.36,3,3,0,0,0,.93-1.33l1.46.88a4.51,4.51,0,0,1-1.57,1.89A4.31,4.31,0,0,1,266.07,109.19Z" fill="#171717"/>
              <path d="M275.16,109.19a4,4,0,0,1-1.58-.3,3.32,3.32,0,0,1-1.21-.87,4,4,0,0,1-.77-1.38,6.13,6.13,0,0,1,0-3.6,4,4,0,0,1,.77-1.38,3.44,3.44,0,0,1,1.21-.87,4.28,4.28,0,0,1,3.15,0,3.44,3.44,0,0,1,1.21.87,4,4,0,0,1,.77,1.38,6.14,6.14,0,0,1,0,3.6,4,4,0,0,1-.77,1.38,3.32,3.32,0,0,1-1.21.87A4,4,0,0,1,275.16,109.19Zm0-1.45a2,2,0,0,0,1.44-.55,2.28,2.28,0,0,0,.54-1.65v-1.4a2.28,2.28,0,0,0-.54-1.65,2,2,0,0,0-1.44-.55,2,2,0,0,0-1.44.55,2.24,2.24,0,0,0-.55,1.65v1.4a2.24,2.24,0,0,0,.55,1.65A2,2,0,0,0,275.16,107.74Z" fill="#171717"/>
              <path d="M280.92,109v-8.32h1.74v1.38h.08a2.72,2.72,0,0,1,.82-1.12,2.35,2.35,0,0,1,1.52-.45,2.48,2.48,0,0,1,2,.84,3.63,3.63,0,0,1,.71,2.39V109H286v-5.06c0-1.3-.53-2-1.57-2a2.52,2.52,0,0,0-.67.09,2,2,0,0,0-.58.26,1.36,1.36,0,0,0-.41.45,1.32,1.32,0,0,0-.15.64V109Z" fill="#171717"/>
              <path d="M291.88,109,289,100.68h1.73l1.27,3.79.84,2.91h.1l.85-2.91,1.29-3.79h1.67L293.92,109Z" fill="#171717"/>
              <path d="M301.4,109.19a4,4,0,0,1-1.6-.3,3.37,3.37,0,0,1-1.2-.87,3.7,3.7,0,0,1-.76-1.38,6.14,6.14,0,0,1,0-3.6,3.7,3.7,0,0,1,.76-1.38,3.5,3.5,0,0,1,1.2-.87,4,4,0,0,1,1.6-.3,3.69,3.69,0,0,1,1.6.32,3.11,3.11,0,0,1,1.16.89,3.72,3.72,0,0,1,.7,1.32,5.59,5.59,0,0,1,.23,1.61v.66h-5.71v.27a2.19,2.19,0,0,0,.57,1.56,2.1,2.1,0,0,0,1.62.62,2.42,2.42,0,0,0,1.3-.34,2.83,2.83,0,0,0,.89-.9l1,1a3.27,3.27,0,0,1-1.35,1.22A4.29,4.29,0,0,1,301.4,109.19Zm0-7.34a2,2,0,0,0-.83.16,1.81,1.81,0,0,0-.64.45,2.2,2.2,0,0,0-.41.68,2.75,2.75,0,0,0-.14.88v.12h3.87V104a2.32,2.32,0,0,0-.49-1.55A1.71,1.71,0,0,0,301.4,101.85Z" fill="#171717"/>
              <path d="M307,109v-8.32h1.74v1.6h.08a2.21,2.21,0,0,1,.74-1.12,2.3,2.3,0,0,1,1.55-.48h.46v1.68h-.68a3,3,0,0,0-1.6.34,1.09,1.09,0,0,0-.55,1V109Z" fill="#171717"/>
              <path d="M315.79,109.19a4.36,4.36,0,0,1-2-.41,4.27,4.27,0,0,1-1.39-1.16l1.12-1a3.65,3.65,0,0,0,1,.87,2.68,2.68,0,0,0,1.32.31,1.86,1.86,0,0,0,1.15-.29,1.07,1.07,0,0,0,.11-1.51,1.61,1.61,0,0,0-.92-.36l-.77-.09a4,4,0,0,1-2-.75,2.1,2.1,0,0,1-.73-1.73A2.45,2.45,0,0,1,313,102a2.24,2.24,0,0,1,.63-.8,2.94,2.94,0,0,1,1-.51,4.39,4.39,0,0,1,1.25-.17,4.17,4.17,0,0,1,1.83.35,4.29,4.29,0,0,1,1.28,1l-1.08,1a2.57,2.57,0,0,0-.84-.66,2.41,2.41,0,0,0-1.19-.28,1.64,1.64,0,0,0-1.06.28,1,1,0,0,0-.35.76.85.85,0,0,0,.31.72,2.25,2.25,0,0,0,1,.35l.77.09a3.68,3.68,0,0,1,2,.81,2.12,2.12,0,0,1,.63,1.61,2.61,2.61,0,0,1-.23,1.1,2.67,2.67,0,0,1-.66.84,3.31,3.31,0,0,1-1,.54A4.49,4.49,0,0,1,315.79,109.19Z" fill="#171717"/>
              <path d="M321.94,99.19a1.06,1.06,0,0,1-.79-.25.89.89,0,0,1-.25-.66V98a.89.89,0,0,1,.25-.66,1.06,1.06,0,0,1,.79-.25,1,1,0,0,1,.78.25A.92.92,0,0,1,323,98v.27a.92.92,0,0,1-.24.66A1,1,0,0,1,321.94,99.19Zm-.88,1.49h1.74V109h-1.74Z" fill="#171717"/>
              <path d="M328.56,109.19a4,4,0,0,1-1.57-.3,3.32,3.32,0,0,1-1.21-.87,4,4,0,0,1-.77-1.38,6.14,6.14,0,0,1,0-3.6,4,4,0,0,1,.77-1.38,3.44,3.44,0,0,1,1.21-.87,4,4,0,0,1,1.57-.3,4,4,0,0,1,1.58.3,3.54,3.54,0,0,1,1.21.87,4.19,4.19,0,0,1,.77,1.38,6.13,6.13,0,0,1,0,3.6,4.19,4.19,0,0,1-.77,1.38,3.41,3.41,0,0,1-1.21.87A4,4,0,0,1,328.56,109.19Zm0-1.45a2,2,0,0,0,1.44-.55,2.24,2.24,0,0,0,.55-1.65v-1.4a2.24,2.24,0,0,0-.55-1.65,2.16,2.16,0,0,0-2.88,0,2.28,2.28,0,0,0-.54,1.65v1.4a2.28,2.28,0,0,0,.54,1.65A2,2,0,0,0,328.56,107.74Z" fill="#171717"/>
              <path d="M334.32,109v-8.32h1.75v1.38h.08a2.64,2.64,0,0,1,.82-1.12,2.32,2.32,0,0,1,1.51-.45,2.48,2.48,0,0,1,2,.84,3.63,3.63,0,0,1,.71,2.39V109h-1.75v-5.06q0-1.95-1.56-2a2.52,2.52,0,0,0-.67.09,2,2,0,0,0-.58.26,1.36,1.36,0,0,0-.41.45,1.32,1.32,0,0,0-.15.64V109Z" fill="#171717"/>
              <path d="M347.38,109v-8.32h1.74v1.6h.08a2.2,2.2,0,0,1,2.29-1.6H352v1.68h-.69a3,3,0,0,0-1.6.34,1.09,1.09,0,0,0-.55,1V109Z" fill="#171717"/>
              <path d="M359.47,109a1.37,1.37,0,0,1-1.05-.39,1.71,1.71,0,0,1-.45-1h-.08a2,2,0,0,1-.88,1.18,2.84,2.84,0,0,1-1.55.4,2.72,2.72,0,0,1-2-.67,2.38,2.38,0,0,1-.7-1.81,2.13,2.13,0,0,1,.9-1.87,4.66,4.66,0,0,1,2.65-.62h1.51v-.71a1.59,1.59,0,0,0-.42-1.18,1.76,1.76,0,0,0-1.29-.42,2.05,2.05,0,0,0-1.2.32,2.94,2.94,0,0,0-.79.82l-1-1a3.42,3.42,0,0,1,1.17-1.16,3.81,3.81,0,0,1,2-.45,3.69,3.69,0,0,1,2.48.75,2.72,2.72,0,0,1,.86,2.16v4.18h.88V109ZM356,107.86a2.33,2.33,0,0,0,1.34-.36,1.12,1.12,0,0,0,.53-1v-1.2h-1.48c-1.2,0-1.8.37-1.8,1.12v.28a1,1,0,0,0,.37.84A1.69,1.69,0,0,0,356,107.86Z" fill="#171717"/>
              <path d="M364.42,109a1.87,1.87,0,0,1-1.38-.47,1.83,1.83,0,0,1-.46-1.34V102.1h-1.3v-1.42H362a.76.76,0,0,0,.6-.19,1,1,0,0,0,.16-.63V98.41h1.57v2.27h1.75v1.42h-1.75v5.48h1.62V109Z" fill="#171717"/>
              <path d="M371.15,109.19a4.07,4.07,0,0,1-1.6-.3,3.46,3.46,0,0,1-1.2-.87,4,4,0,0,1-.76-1.38,6.36,6.36,0,0,1,0-3.6,4,4,0,0,1,.76-1.38,3.6,3.6,0,0,1,1.2-.87,4.07,4.07,0,0,1,1.6-.3,3.7,3.7,0,0,1,1.61.32,3.11,3.11,0,0,1,1.16.89,3.88,3.88,0,0,1,.7,1.32,5.59,5.59,0,0,1,.23,1.61v.66h-5.71v.27a2.19,2.19,0,0,0,.57,1.56,2.09,2.09,0,0,0,1.62.62,2.44,2.44,0,0,0,1.3-.34,2.83,2.83,0,0,0,.89-.9l1,1a3.27,3.27,0,0,1-1.35,1.22A4.31,4.31,0,0,1,371.15,109.19Zm0-7.34a2,2,0,0,0-.82.16,1.81,1.81,0,0,0-.64.45,2,2,0,0,0-.41.68,2.75,2.75,0,0,0-.14.88v.12H373V104a2.33,2.33,0,0,0-.5-1.55A1.68,1.68,0,0,0,371.15,101.85Z" fill="#171717"/>
              <path d="M383.83,109.19a4,4,0,0,1-1.58-.3A3.41,3.41,0,0,1,381,108a4.19,4.19,0,0,1-.77-1.38,6.14,6.14,0,0,1,0-3.6,4.19,4.19,0,0,1,.77-1.38,3.54,3.54,0,0,1,1.21-.87,4.28,4.28,0,0,1,3.15,0,3.44,3.44,0,0,1,1.21.87,4,4,0,0,1,.77,1.38,6.13,6.13,0,0,1,0,3.6,4,4,0,0,1-.77,1.38,3.32,3.32,0,0,1-1.21.87A4,4,0,0,1,383.83,109.19Zm0-1.45a2,2,0,0,0,1.44-.55,2.28,2.28,0,0,0,.54-1.65v-1.4a2.28,2.28,0,0,0-.54-1.65,2,2,0,0,0-1.44-.55,2,2,0,0,0-1.44.55,2.24,2.24,0,0,0-.55,1.65v1.4a2.24,2.24,0,0,0,.55,1.65A2,2,0,0,0,383.83,107.74Z" fill="#171717"/>
              <path d="M391.27,109l-2.84-8.32h1.73l1.27,3.79.85,2.91h.09l.85-2.91,1.29-3.79h1.67L393.31,109Z" fill="#171717"/>
              <path d="M400.79,109.19a4,4,0,0,1-1.6-.3A3.37,3.37,0,0,1,398,108a3.84,3.84,0,0,1-.76-1.38,6.13,6.13,0,0,1,0-3.6,3.84,3.84,0,0,1,.76-1.38,3.5,3.5,0,0,1,1.2-.87,4,4,0,0,1,1.6-.3,3.69,3.69,0,0,1,1.6.32,3,3,0,0,1,1.16.89,3.72,3.72,0,0,1,.7,1.32,5.27,5.27,0,0,1,.23,1.61v.66h-5.71v.27a2.19,2.19,0,0,0,.57,1.56,2.1,2.1,0,0,0,1.62.62,2.42,2.42,0,0,0,1.3-.34,2.83,2.83,0,0,0,.89-.9l1,1a3.27,3.27,0,0,1-1.35,1.22A4.29,4.29,0,0,1,400.79,109.19Zm0-7.34a2,2,0,0,0-.83.16,1.81,1.81,0,0,0-.64.45,2.2,2.2,0,0,0-.41.68,2.75,2.75,0,0,0-.14.88v.12h3.87V104a2.32,2.32,0,0,0-.49-1.55A1.69,1.69,0,0,0,400.79,101.85Z" fill="#171717"/>
              <path d="M406.42,109v-8.32h1.74v1.6h.08a2.2,2.2,0,0,1,2.29-1.6H411v1.68h-.69a3,3,0,0,0-1.6.34,1.09,1.09,0,0,0-.55,1V109Z" fill="#171717"/>
              <path d="M418.63,109a1.87,1.87,0,0,1-1.38-.47,1.83,1.83,0,0,1-.46-1.34V102.1h-1.3v-1.42h.7a.76.76,0,0,0,.6-.19.91.91,0,0,0,.17-.63V98.41h1.57v2.27h1.74v1.42h-1.74v5.48h1.62V109Z" fill="#171717"/>
              <path d="M423,99.19a1.07,1.07,0,0,1-.79-.25.89.89,0,0,1-.25-.66V98a.89.89,0,0,1,.25-.66,1.07,1.07,0,0,1,.79-.25,1.06,1.06,0,0,1,.79.25.92.92,0,0,1,.24.66v.27a.92.92,0,0,1-.24.66A1.06,1.06,0,0,1,423,99.19Zm-.88,1.49h1.75V109h-1.75Z" fill="#171717"/>
              <path d="M426.4,109v-8.32h1.75v1.38h.08a3.18,3.18,0,0,1,.31-.61,2.17,2.17,0,0,1,.45-.51,1.93,1.93,0,0,1,.62-.33,2.66,2.66,0,0,1,.84-.12,2.76,2.76,0,0,1,1.5.41,2.4,2.4,0,0,1,1,1.28h0a2.43,2.43,0,0,1,.87-1.2,2.58,2.58,0,0,1,1.64-.49,2.36,2.36,0,0,1,1.94.84,3.68,3.68,0,0,1,.69,2.39V109h-1.75v-5.07a2.44,2.44,0,0,0-.36-1.45,1.37,1.37,0,0,0-1.17-.49,2.2,2.2,0,0,0-.64.09,1.93,1.93,0,0,0-.54.26,1.36,1.36,0,0,0-.37.45,1.28,1.28,0,0,0-.15.63V109h-1.74v-5.07c0-1.29-.51-1.94-1.52-1.94a2.18,2.18,0,0,0-.63.09,1.92,1.92,0,0,0-.56.26,1.38,1.38,0,0,0-.38.45,1.27,1.27,0,0,0-.14.63V109Z" fill="#171717"/>
              <path d="M443.78,109.19a4,4,0,0,1-1.6-.3A3.37,3.37,0,0,1,441,108a3.84,3.84,0,0,1-.76-1.38,6.13,6.13,0,0,1,0-3.6,3.84,3.84,0,0,1,.76-1.38,3.5,3.5,0,0,1,1.2-.87,4,4,0,0,1,1.6-.3,3.73,3.73,0,0,1,1.61.32,3.19,3.19,0,0,1,1.16.89,3.86,3.86,0,0,1,.69,1.32,5.27,5.27,0,0,1,.23,1.61v.66h-5.71v.27a2.19,2.19,0,0,0,.57,1.56,2.1,2.1,0,0,0,1.62.62,2.39,2.39,0,0,0,1.3-.34,3,3,0,0,0,.9-.9l1,1a3.31,3.31,0,0,1-1.34,1.22A4.33,4.33,0,0,1,443.78,109.19Zm0-7.34a2,2,0,0,0-.83.16,1.81,1.81,0,0,0-.64.45,2,2,0,0,0-.4.68,2.5,2.5,0,0,0-.15.88v.12h3.87V104a2.32,2.32,0,0,0-.49-1.55A1.69,1.69,0,0,0,443.78,101.85Z" fill="#171717"/>
            </g>
          </g>
          <g id="Group-2">
            <rect id="Rectangle-2" data-name="Rectangle" x="316" y="129.5" width="351" height="226" fill="none" stroke="#dcdcdc"/>
            <g id="graph_grid" data-name="graph grid">
              <rect id="Rectangle-Copy-2" x="315.5" y="242" width="351" height="1" fill="#e0e0e0"/>
              <rect id="Rectangle-Copy-3" x="315.5" y="299" width="351" height="1" fill="#e0e0e0"/>
              <rect id="Rectangle-Copy-3-2" data-name="Rectangle-Copy-3" x="350.6" y="129" width="1" height="227" fill="#e0e0e0"/>
              <rect id="Rectangle-Copy-8" x="385.7" y="129" width="1" height="227" fill="#e0e0e0"/>
              <rect id="Rectangle-Copy-9" x="420.8" y="129" width="1" height="227" fill="#e0e0e0"/>
              <rect id="Rectangle-Copy-10" x="455.9" y="129" width="1" height="227" fill="#e0e0e0"/>
              <rect id="Rectangle-Copy-11" x="491" y="129" width="1" height="227" fill="#e0e0e0"/>
              <rect id="Rectangle-Copy-13" x="526.1" y="129" width="1" height="227" fill="#e0e0e0"/>
              <rect id="Rectangle-Copy-14" x="561.2" y="129" width="1" height="227" fill="#e0e0e0"/>
              <rect id="Rectangle-Copy-15" x="596.3" y="129" width="1" height="227" fill="#e0e0e0"/>
              <rect id="Rectangle-Copy-16" x="631.4" y="129" width="1" height="227" fill="#e0e0e0"/>
              <rect id="Rectangle-Copy" x="315.5" y="185" width="351" height="1" fill="#e0e0e0"/>
            </g>
            <rect id="Rectangle-3" data-name="Rectangle" x="315.5" y="355" width="352" height="1" fill="#8c8c8c"/>
          </g>
          <g id="X-Axis">
            <g id="Y-label" style="isolation: isolate">
              <g style="isolation: isolate">
                <path d="M478.07,386.94H478l-.71,1.41-2,3.65-2-3.65-.71-1.41h-.06V394h-1v-8.38h1.34l2.4,4.52h.06l2.42-4.52h1.29V394h-1Z" fill="#171717"/>
                <path d="M483.53,394.14a2.79,2.79,0,0,1-1.14-.22,2.4,2.4,0,0,1-.88-.66,2.82,2.82,0,0,1-.57-1,4,4,0,0,1-.21-1.34,4,4,0,0,1,.21-1.33,2.82,2.82,0,0,1,.57-1,2.3,2.3,0,0,1,.88-.66,2.92,2.92,0,0,1,2.27,0,2.38,2.38,0,0,1,.88.66,3,3,0,0,1,.58,1,4,4,0,0,1,.2,1.33,4,4,0,0,1-.2,1.34,3,3,0,0,1-.58,1,2.49,2.49,0,0,1-.88.66A2.78,2.78,0,0,1,483.53,394.14Zm0-.85a1.74,1.74,0,0,0,1.27-.48,2,2,0,0,0,.49-1.46v-.89a1.94,1.94,0,0,0-.49-1.46,1.92,1.92,0,0,0-2.54,0,1.94,1.94,0,0,0-.5,1.46v.89a2,2,0,0,0,.5,1.46A1.73,1.73,0,0,0,483.53,393.29Z" fill="#171717"/>
                <path d="M487.91,394v-6.19h1v1h.05a2,2,0,0,1,.64-.83,1.83,1.83,0,0,1,1.11-.31,2,2,0,0,1,1.52.62,2.53,2.53,0,0,1,.55,1.75v4h-1v-3.81c0-1.12-.46-1.67-1.4-1.67a2.1,2.1,0,0,0-.56.07,1.75,1.75,0,0,0-.48.21,1.12,1.12,0,0,0-.35.37,1.08,1.08,0,0,0-.12.52V394Z" fill="#171717"/>
                <path d="M496.09,394a1,1,0,0,1-.76-.28,1.06,1.06,0,0,1-.26-.74v-4.32h-1v-.85h.58a.51.51,0,0,0,.42-.13.63.63,0,0,0,.12-.44v-1.15H496v1.72h1.36v.85H496v4.49h1.26V394Z" fill="#171717"/>
                <path d="M498.94,385.12h1v3.68h0a2.15,2.15,0,0,1,.65-.83,1.83,1.83,0,0,1,1.11-.31,1.93,1.93,0,0,1,1.51.62,2.49,2.49,0,0,1,.56,1.75v4h-1v-3.81c0-1.12-.47-1.67-1.4-1.67a2.1,2.1,0,0,0-.56.07,2,2,0,0,0-.49.21,1.2,1.2,0,0,0-.34.37,1.08,1.08,0,0,0-.12.52V394h-1Z" fill="#171717"/>
                <path d="M507.61,394.14a2.87,2.87,0,0,1-1.44-.33,3.26,3.26,0,0,1-1-.88l.69-.55a2.75,2.75,0,0,0,.8.7,2,2,0,0,0,1,.25,1.52,1.52,0,0,0,1-.27.86.86,0,0,0,.34-.74.91.91,0,0,0-.23-.62,1.44,1.44,0,0,0-.85-.35l-.49-.07a4.35,4.35,0,0,1-.79-.19,2.12,2.12,0,0,1-.63-.34,1.42,1.42,0,0,1-.42-.52,1.55,1.55,0,0,1-.15-.74,1.81,1.81,0,0,1,.16-.8,1.64,1.64,0,0,1,.47-.57,1.91,1.91,0,0,1,.7-.34,3,3,0,0,1,.87-.12,2.59,2.59,0,0,1,2.16,1l-.63.58a2,2,0,0,0-.6-.53,2,2,0,0,0-1-.23,1.36,1.36,0,0,0-.9.26.84.84,0,0,0-.31.7.73.73,0,0,0,.31.66,2.1,2.1,0,0,0,.88.3l.48.07a2.55,2.55,0,0,1,1.46.6,1.54,1.54,0,0,1,.43,1.14,1.76,1.76,0,0,1-.61,1.42A2.55,2.55,0,0,1,507.61,394.14Z" fill="#171717"/>
              </g>
            </g>
          </g>
          <g id="ticks">
            <g id="_0" data-name="0" style="isolation: isolate">
              <g style="isolation: isolate">
                <path d="M303.9,355.14a2.74,2.74,0,0,1-1.32-.29,2.47,2.47,0,0,1-.91-.85,3.85,3.85,0,0,1-.53-1.35,10,10,0,0,1,0-3.67,3.91,3.91,0,0,1,.53-1.36,2.47,2.47,0,0,1,.91-.85,3.15,3.15,0,0,1,2.64,0,2.47,2.47,0,0,1,.91.85,3.91,3.91,0,0,1,.53,1.36,10,10,0,0,1,0,3.67,3.85,3.85,0,0,1-.53,1.35,2.47,2.47,0,0,1-.91.85A2.74,2.74,0,0,1,303.9,355.14Zm0-.87a1.76,1.76,0,0,0,.86-.2,1.58,1.58,0,0,0,.59-.56,3.16,3.16,0,0,0,.33-.87,5.69,5.69,0,0,0,.1-1.14v-1.37a5.69,5.69,0,0,0-.1-1.14,3.11,3.11,0,0,0-.33-.88,1.67,1.67,0,0,0-.59-.56,2,2,0,0,0-1.72,0,1.67,1.67,0,0,0-.59.56,3.11,3.11,0,0,0-.33.88,5.69,5.69,0,0,0-.1,1.14v1.37a5.69,5.69,0,0,0,.1,1.14,3.16,3.16,0,0,0,.33.87,1.58,1.58,0,0,0,.59.56A1.76,1.76,0,0,0,303.9,354.27Zm0-2.75a.8.8,0,0,1-.58-.17.56.56,0,0,1-.16-.41v-.26a.56.56,0,0,1,.16-.41,1.07,1.07,0,0,1,1.16,0,.56.56,0,0,1,.16.41v.26a.56.56,0,0,1-.16.41A.8.8,0,0,1,303.9,351.52Z" fill="#6f6f6f"/>
              </g>
            </g>
            <g id="_5_" data-name="5%" style="isolation: isolate">
              <g style="isolation: isolate">
                <path d="M299.11,295.5h-3.75l-.24,3.2h.09a2.53,2.53,0,0,1,.69-.66,1.91,1.91,0,0,1,1.06-.25,2.75,2.75,0,0,1,1,.18,2,2,0,0,1,.8.51,2.42,2.42,0,0,1,.53.81,2.78,2.78,0,0,1,.19,1.08,3.1,3.1,0,0,1-.19,1.12,2.39,2.39,0,0,1-.57.88,2.57,2.57,0,0,1-.9.57,3.21,3.21,0,0,1-1.2.2,3.4,3.4,0,0,1-.94-.12,2.69,2.69,0,0,1-.73-.32,3.2,3.2,0,0,1-.56-.46,4.24,4.24,0,0,1-.43-.52l.76-.58a4.22,4.22,0,0,0,.34.46,1.93,1.93,0,0,0,.4.35,1.64,1.64,0,0,0,.52.23,2.22,2.22,0,0,0,.67.09,1.63,1.63,0,0,0,1.79-1.77v-.09a1.77,1.77,0,0,0-.47-1.3,1.83,1.83,0,0,0-1.35-.47,1.73,1.73,0,0,0-.93.21,2.58,2.58,0,0,0-.6.5l-.85-.12.3-4.61h4.56Z" fill="#6f6f6f"/>
                <path d="M302.43,299.4h.86l-1.92,3.6h-.86Zm-.11-.67a1.67,1.67,0,0,1-1.29-.54,2.24,2.24,0,0,1-.5-1.59A2.28,2.28,0,0,1,301,295a1.83,1.83,0,0,1,2.58,0,2.28,2.28,0,0,1,.5,1.59,2.24,2.24,0,0,1-.5,1.59A1.67,1.67,0,0,1,302.32,298.73Zm0-.65a.89.89,0,0,0,.7-.3,1.27,1.27,0,0,0,.27-.88v-.6a1.26,1.26,0,0,0-.27-.87,1,1,0,0,0-1.4,0,1.26,1.26,0,0,0-.27.87v.6a1.27,1.27,0,0,0,.27.88A.89.89,0,0,0,302.32,298.08Zm3.15,5.06a1.66,1.66,0,0,1-1.29-.53,2.78,2.78,0,0,1,0-3.18,1.66,1.66,0,0,1,1.29-.53,1.69,1.69,0,0,1,1.29.53,2.82,2.82,0,0,1,0,3.18A1.69,1.69,0,0,1,305.47,303.14Zm.94-8.52h.87l-1.92,3.6h-.87Zm-.94,7.88a.91.91,0,0,0,.7-.3,1.29,1.29,0,0,0,.27-.88v-.6a1.29,1.29,0,0,0-.27-.88,1,1,0,0,0-1.41,0,1.29,1.29,0,0,0-.27.88v.6a1.29,1.29,0,0,0,.27.88A.91.91,0,0,0,305.47,302.5Z" fill="#6f6f6f"/>
              </g>
            </g>
            <g id="_10_" data-name="10%" style="isolation: isolate">
              <g style="isolation: isolate">
                <path d="M286.91,246.5v-.88h2.4v-6.75h-.08l-2.11,2-.59-.64,2.22-2.08h1.57v7.5h2.21v.88Z" fill="#6f6f6f"/>
                <path d="M296.69,246.64a2.74,2.74,0,0,1-1.32-.29,2.55,2.55,0,0,1-.91-.85,4.05,4.05,0,0,1-.53-1.35,10.6,10.6,0,0,1,0-3.67,4.11,4.11,0,0,1,.53-1.36,2.55,2.55,0,0,1,.91-.85,2.86,2.86,0,0,1,1.32-.29,2.8,2.8,0,0,1,1.32.29,2.49,2.49,0,0,1,.92.85,3.9,3.9,0,0,1,.52,1.36,10,10,0,0,1,0,3.67,3.85,3.85,0,0,1-.52,1.35,2.49,2.49,0,0,1-.92.85A2.68,2.68,0,0,1,296.69,246.64Zm0-.87a1.8,1.8,0,0,0,.87-.2,1.56,1.56,0,0,0,.58-.56,2.63,2.63,0,0,0,.33-.87,5.65,5.65,0,0,0,.11-1.14v-1.37a5.65,5.65,0,0,0-.11-1.14,2.61,2.61,0,0,0-.33-.88,1.64,1.64,0,0,0-.58-.56,2.06,2.06,0,0,0-1.73,0,1.64,1.64,0,0,0-.58.56,2.61,2.61,0,0,0-.33.88,5.65,5.65,0,0,0-.11,1.14V243a5.65,5.65,0,0,0,.11,1.14,2.63,2.63,0,0,0,.33.87,1.56,1.56,0,0,0,.58.56A1.79,1.79,0,0,0,296.69,245.77Zm0-2.75a.8.8,0,0,1-.58-.17.56.56,0,0,1-.16-.41v-.26a.56.56,0,0,1,.16-.41.8.8,0,0,1,.58-.17.83.83,0,0,1,.59.17.6.6,0,0,1,.16.41v.26a.6.6,0,0,1-.16.41A.83.83,0,0,1,296.69,243Z" fill="#6f6f6f"/>
                <path d="M302.43,242.9h.86l-1.92,3.6h-.86Zm-.11-.67a1.67,1.67,0,0,1-1.29-.54,2.24,2.24,0,0,1-.5-1.59,2.28,2.28,0,0,1,.5-1.59,1.83,1.83,0,0,1,2.58,0,2.28,2.28,0,0,1,.5,1.59,2.24,2.24,0,0,1-.5,1.59A1.67,1.67,0,0,1,302.32,242.23Zm0-.65a.89.89,0,0,0,.7-.3,1.27,1.27,0,0,0,.27-.88v-.6a1.26,1.26,0,0,0-.27-.87,1,1,0,0,0-1.4,0,1.26,1.26,0,0,0-.27.87v.6a1.27,1.27,0,0,0,.27.88A.89.89,0,0,0,302.32,241.58Zm3.15,5.06a1.66,1.66,0,0,1-1.29-.53,2.78,2.78,0,0,1,0-3.18,1.66,1.66,0,0,1,1.29-.53,1.69,1.69,0,0,1,1.29.53,2.82,2.82,0,0,1,0,3.18A1.69,1.69,0,0,1,305.47,246.64Zm.94-8.52h.87l-1.92,3.6h-.87Zm-.94,7.88a.91.91,0,0,0,.7-.3,1.29,1.29,0,0,0,.27-.88v-.6a1.29,1.29,0,0,0-.27-.88,1,1,0,0,0-1.41,0,1.29,1.29,0,0,0-.27.88v.6a1.29,1.29,0,0,0,.27.88A.91.91,0,0,0,305.47,246Z" fill="#6f6f6f"/>
              </g>
            </g>
            <g id="_15_" data-name="15%" style="isolation: isolate">
              <g style="isolation: isolate">
                <path d="M286.7,190v-.88h2.4v-6.75H289l-2.11,2-.59-.64,2.22-2.08h1.57v7.5h2.21V190Z" fill="#6f6f6f"/>
                <path d="M298.9,182.5h-3.75l-.24,3.2H295a2.53,2.53,0,0,1,.69-.66,1.91,1.91,0,0,1,1.06-.25,2.75,2.75,0,0,1,1,.18,2,2,0,0,1,.8.51,2.42,2.42,0,0,1,.53.81,2.78,2.78,0,0,1,.19,1.08,3.1,3.1,0,0,1-.19,1.12,2.39,2.39,0,0,1-.57.88,2.57,2.57,0,0,1-.9.57,3.21,3.21,0,0,1-1.2.2,3.4,3.4,0,0,1-.94-.12,2.69,2.69,0,0,1-.73-.32,3.2,3.2,0,0,1-.56-.46,4.24,4.24,0,0,1-.43-.52l.76-.58a4.22,4.22,0,0,0,.34.46,1.93,1.93,0,0,0,.4.35,1.64,1.64,0,0,0,.52.23,2.22,2.22,0,0,0,.67.09,1.63,1.63,0,0,0,1.79-1.77v-.09a1.77,1.77,0,0,0-.47-1.3,1.83,1.83,0,0,0-1.35-.47,1.73,1.73,0,0,0-.93.21,2.58,2.58,0,0,0-.6.5l-.85-.12.3-4.61h4.56Z" fill="#6f6f6f"/>
                <path d="M302.22,186.4h.86l-1.92,3.6h-.86Zm-.11-.67a1.67,1.67,0,0,1-1.29-.54,2.24,2.24,0,0,1-.5-1.59,2.28,2.28,0,0,1,.5-1.59,1.83,1.83,0,0,1,2.58,0,2.28,2.28,0,0,1,.5,1.59,2.24,2.24,0,0,1-.5,1.59A1.67,1.67,0,0,1,302.11,185.73Zm0-.65a.89.89,0,0,0,.7-.3,1.27,1.27,0,0,0,.27-.88v-.6a1.26,1.26,0,0,0-.27-.87,1,1,0,0,0-1.4,0,1.26,1.26,0,0,0-.27.87v.6a1.27,1.27,0,0,0,.27.88A.89.89,0,0,0,302.11,185.08Zm3.15,5.06a1.66,1.66,0,0,1-1.29-.53,2.78,2.78,0,0,1,0-3.18,1.82,1.82,0,0,1,2.57,0,2.78,2.78,0,0,1,0,3.18A1.65,1.65,0,0,1,305.26,190.14Zm.94-8.52h.87l-1.92,3.6h-.87Zm-.94,7.88a.91.91,0,0,0,.7-.3,1.29,1.29,0,0,0,.27-.88v-.6a1.29,1.29,0,0,0-.27-.88,1,1,0,0,0-1.41,0,1.29,1.29,0,0,0-.27.88v.6a1.29,1.29,0,0,0,.27.88A.91.91,0,0,0,305.26,189.5Z" fill="#6f6f6f"/>
              </g>
            </g>
            <g id="_20_" data-name="20%" style="isolation: isolate">
              <g style="isolation: isolate">
                <path d="M292.34,141h-5.59v-1l2.8-2.52a6.56,6.56,0,0,0,1-1.14,2.14,2.14,0,0,0,.39-1.23v-.14a1.65,1.65,0,0,0-.39-1.17,1.56,1.56,0,0,0-1.18-.41,1.65,1.65,0,0,0-1.18.39,2.35,2.35,0,0,0-.62,1l-.9-.33a3.65,3.65,0,0,1,.33-.73,2.86,2.86,0,0,1,.53-.63,2.61,2.61,0,0,1,.79-.44,3.2,3.2,0,0,1,1.07-.17,3.15,3.15,0,0,1,1.11.18,2.31,2.31,0,0,1,.82.5,2.18,2.18,0,0,1,.5.77,2.58,2.58,0,0,1,.18,1,2.93,2.93,0,0,1-.14.9,3.73,3.73,0,0,1-.38.81,6.44,6.44,0,0,1-.59.75c-.23.24-.48.48-.76.72l-2.34,2h4.54Z" fill="#6f6f6f"/>
                <path d="M296.7,141.14a2.74,2.74,0,0,1-1.32-.29,2.47,2.47,0,0,1-.91-.85,3.85,3.85,0,0,1-.53-1.35,10,10,0,0,1,0-3.67,3.91,3.91,0,0,1,.53-1.36,2.47,2.47,0,0,1,.91-.85,3.15,3.15,0,0,1,2.64,0,2.47,2.47,0,0,1,.91.85,3.91,3.91,0,0,1,.53,1.36,10,10,0,0,1,0,3.67,3.85,3.85,0,0,1-.53,1.35,2.47,2.47,0,0,1-.91.85A2.74,2.74,0,0,1,296.7,141.14Zm0-.87a1.76,1.76,0,0,0,.86-.2,1.58,1.58,0,0,0,.59-.56,3.16,3.16,0,0,0,.33-.87,5.69,5.69,0,0,0,.1-1.14v-1.37a5.69,5.69,0,0,0-.1-1.14,3.11,3.11,0,0,0-.33-.88,1.67,1.67,0,0,0-.59-.56,2,2,0,0,0-1.72,0,1.67,1.67,0,0,0-.59.56,3.11,3.11,0,0,0-.33.88,5.69,5.69,0,0,0-.1,1.14v1.37a5.69,5.69,0,0,0,.1,1.14,3.16,3.16,0,0,0,.33.87,1.58,1.58,0,0,0,.59.56A1.76,1.76,0,0,0,296.7,140.27Zm0-2.75a.8.8,0,0,1-.58-.17.56.56,0,0,1-.16-.41v-.26a.56.56,0,0,1,.16-.41,1.07,1.07,0,0,1,1.16,0,.56.56,0,0,1,.16.41v.26a.56.56,0,0,1-.16.41A.8.8,0,0,1,296.7,137.52Z" fill="#6f6f6f"/>
                <path d="M302.44,137.4h.86l-1.92,3.6h-.86Zm-.11-.67a1.67,1.67,0,0,1-1.29-.54,2.24,2.24,0,0,1-.5-1.59A2.28,2.28,0,0,1,301,133a1.83,1.83,0,0,1,2.58,0,2.28,2.28,0,0,1,.5,1.59,2.24,2.24,0,0,1-.5,1.59A1.67,1.67,0,0,1,302.33,136.73Zm0-.65a.89.89,0,0,0,.7-.3,1.27,1.27,0,0,0,.27-.88v-.6a1.26,1.26,0,0,0-.27-.87,1,1,0,0,0-1.4,0,1.26,1.26,0,0,0-.27.87v.6a1.27,1.27,0,0,0,.27.88A.89.89,0,0,0,302.33,136.08Zm3.14,5.06a1.66,1.66,0,0,1-1.29-.53,2.78,2.78,0,0,1,0-3.18,1.83,1.83,0,0,1,2.58,0,2.78,2.78,0,0,1,0,3.18A1.66,1.66,0,0,1,305.47,141.14Zm.95-8.52h.86l-1.92,3.6h-.86Zm-.95,7.88a.89.89,0,0,0,.7-.3,1.29,1.29,0,0,0,.27-.88v-.6a1.29,1.29,0,0,0-.27-.88,1,1,0,0,0-1.4,0,1.29,1.29,0,0,0-.27.88v.6a1.29,1.29,0,0,0,.27.88A.89.89,0,0,0,305.47,140.5Z" fill="#6f6f6f"/>
              </g>
            </g>
          </g>
          <g id="Data">
            <g id="data_1" data-name="data 1">
              <circle id="Oval-Copy-21" cx="351" cy="322" r="3.25" fill="#f3f3f3" stroke="#8c8c8c" stroke-width="1.5"/>
              <circle id="Oval-Copy-45" cx="386" cy="318" r="5.25" fill="#f3f3f3" stroke="#8c8c8c" stroke-width="1.5"/>
              <circle id="Oval-Copy-46" cx="420" cy="271.5" r="5.75" fill="#f3f3f3" stroke="#8c8c8c" stroke-width="1.5"/>
              <circle id="Oval-Copy-47" cx="421.5" cy="311" r="3.25" fill="#f3f3f3" stroke="#8c8c8c" stroke-width="1.5"/>
              <circle id="Oval-Copy-48" cx="491.5" cy="252.5" r="6.75" fill="#f3f3f3" stroke="#8c8c8c" stroke-width="1.5"/>
              <circle id="Oval-Copy-49" cx="526.5" cy="285" r="5.25" fill="#f3f3f3" stroke="#8c8c8c" stroke-width="1.5"/>
              <circle id="Oval-Copy-50" cx="596.5" cy="273" r="3.25" fill="#f3f3f3" stroke="#8c8c8c" stroke-width="1.5"/>
              <circle id="Oval-Copy-51" cx="562" cy="230" r="3.25" fill="#f3f3f3" stroke="#8c8c8c" stroke-width="1.5"/>
              <circle id="Oval-Copy-52" cx="456.5" cy="216" r="5.25" fill="#f3f3f3" stroke="#8c8c8c" stroke-width="1.5"/>
              <circle id="Oval-Copy-55" cx="631.5" cy="228" r="7.25" fill="#f3f3f3" stroke="#8c8c8c" stroke-width="1.5"/>
            </g>
            <g id="data_2" data-name="data 2">
              <circle id="Oval-9" data-name="Oval" cx="351" cy="257" r="8.25" fill="#f3f3f3" stroke="#8c8c8c" stroke-width="1.5"/>
              <circle id="Oval-Copy-34" cx="386.5" cy="295" r="9.25" fill="#f3f3f3" stroke="#8c8c8c" stroke-width="1.5"/>
              <circle id="Oval-Copy-35" cx="421.5" cy="321" r="5.25" fill="#f3f3f3" stroke="#8c8c8c" stroke-width="1.5"/>
              <circle id="Oval-Copy-36" cx="456.25" cy="298" r="9.25" fill="#f3f3f3" stroke="#8c8c8c" stroke-width="1.5"/>
              <circle id="Oval-Copy-37" cx="491.5" cy="273" r="15.25" fill="#f3f3f3" stroke="#8c8c8c" stroke-width="1.5"/>
              <circle id="Oval-Copy-39" cx="527" cy="318.5" r="5.75" fill="#f3f3f3" stroke="#8c8c8c" stroke-width="1.5"/>
              <circle id="Oval-Copy-40" cx="562" cy="305" r="11.25" fill="#f3f3f3" stroke="#8c8c8c" stroke-width="1.5"/>
              <circle id="Oval-Copy-41" cx="596.5" cy="296" r="3.25" fill="#f3f3f3" stroke="#8c8c8c" stroke-width="1.5"/>
              <circle id="Oval-Copy-42" cx="632.5" cy="340" r="9.25" fill="#f3f3f3" stroke="#8c8c8c" stroke-width="1.5"/>
            </g>
            <g id="data_3" data-name="data 3">
              <circle id="Oval-Copy-20" cx="386" cy="247" r="4.25" fill="#0f62fe" fill-opacity="0.3" stroke="#0f62fe" stroke-width="1.5"/>
              <circle id="Oval-Copy-22" cx="351.5" cy="272" r="15.25" fill="#0f62fe" fill-opacity="0.3" stroke="#0f62fe" stroke-width="1.5"/>
              <circle id="Oval-Copy-23" cx="421.5" cy="258" r="3.25" fill="#0f62fe" fill-opacity="0.3" stroke="#0f62fe" stroke-width="1.5"/>
              <circle id="Oval-Copy-24" cx="456.5" cy="262" r="7.25" fill="#0f62fe" fill-opacity="0.3" stroke="#0f62fe" stroke-width="1.5"/>
              <circle id="Oval-Copy-25" cx="491.5" cy="282" r="14.25" fill="#0f62fe" fill-opacity="0.3" stroke="#0f62fe" stroke-width="1.5"/>
              <circle id="Oval-Copy-28" cx="562" cy="288" r="11.25" fill="#0f62fe" fill-opacity="0.3" stroke="#0f62fe" stroke-width="1.5"/>
              <circle id="Oval-Copy-30" cx="526.5" cy="179" r="5.25" fill="#0f62fe" fill-opacity="0.3" stroke="#0f62fe" stroke-width="1.5"/>
              <circle id="Oval-Copy-31" cx="596.5" cy="163" r="15.25" fill="#0f62fe" fill-opacity="0.3" stroke="#0f62fe" stroke-width="1.5"/>
            </g>
          </g>
          <g id="ylabel" style="isolation: isolate">
            <g style="isolation: isolate">
              <path d="M272.64,280.29a3,3,0,0,1-1.08,2.48,5,5,0,0,1-3.2.89,5.2,5.2,0,0,1-3.25-.89,3,3,0,0,1-1.13-2.48,3.15,3.15,0,0,1,.47-1.77,3.1,3.1,0,0,1,1.35-1.11l.5.81a2.33,2.33,0,0,0-1,.77,2.09,2.09,0,0,0-.39,1.3,2.26,2.26,0,0,0,.2,1,1.88,1.88,0,0,0,.59.72,2.54,2.54,0,0,0,.9.45,3.9,3.9,0,0,0,1.17.16H269a3.13,3.13,0,0,0,2-.6,2.07,2.07,0,0,0,.74-1.69,2.13,2.13,0,0,0-.42-1.35,2.35,2.35,0,0,0-1.1-.79l.51-.8a3.19,3.19,0,0,1,1.39,1.14A3.08,3.08,0,0,1,272.64,280.29Z" fill="#171717"/>
              <path d="M272.64,273.54a2.79,2.79,0,0,1-.22,1.14,2.4,2.4,0,0,1-.66.88,2.82,2.82,0,0,1-1,.57,4,4,0,0,1-1.34.21,4,4,0,0,1-1.33-.21,2.82,2.82,0,0,1-1-.57,2.3,2.3,0,0,1-.66-.88,2.92,2.92,0,0,1,0-2.27,2.38,2.38,0,0,1,.66-.88,3,3,0,0,1,1-.58,4,4,0,0,1,1.33-.2,4,4,0,0,1,1.34.2,3,3,0,0,1,1,.58,2.49,2.49,0,0,1,.66.88A2.78,2.78,0,0,1,272.64,273.54Zm-.85,0a1.74,1.74,0,0,0-.48-1.27,2,2,0,0,0-1.46-.49H269a1.94,1.94,0,0,0-1.46.49,1.92,1.92,0,0,0,0,2.54,1.94,1.94,0,0,0,1.46.5h.89a2,2,0,0,0,1.46-.5A1.73,1.73,0,0,0,271.79,273.54Z" fill="#171717"/>
              <path d="M272.5,269.16h-6.19v-1h1v-.05a2,2,0,0,1-.83-.64,1.83,1.83,0,0,1-.31-1.11,2,2,0,0,1,.62-1.52,2.53,2.53,0,0,1,1.75-.55h4v1h-3.81c-1.12,0-1.67.46-1.67,1.4a2.1,2.1,0,0,0,.07.56,1.75,1.75,0,0,0,.21.48,1.12,1.12,0,0,0,.37.35,1.08,1.08,0,0,0,.52.12h4.31Z" fill="#171717"/>
              <path d="M272.5,261.07l-6.19,2.18v-1l3.07-1.08,2.11-.68v-.06l-2.11-.67-3.07-1.1v-.93L272.5,260Z" fill="#171717"/>
              <path d="M272.64,254.31a2.79,2.79,0,0,1-.22,1.14,2.58,2.58,0,0,1-.66.88,3,3,0,0,1-1,.56,4.24,4.24,0,0,1-1.34.2,4.31,4.31,0,0,1-1.33-.2,3,3,0,0,1-1-.56,2.46,2.46,0,0,1-.66-.88,2.8,2.8,0,0,1-.23-1.14,2.67,2.67,0,0,1,.23-1.12,2.38,2.38,0,0,1,.63-.84,2.75,2.75,0,0,1,1-.53,3.61,3.61,0,0,1,1.21-.19h.45v4.45h.29a2.25,2.25,0,0,0,.74-.12,2,2,0,0,0,.59-.36,1.72,1.72,0,0,0,.4-.58,2.11,2.11,0,0,0,.14-.77,1.91,1.91,0,0,0-.27-1,1.85,1.85,0,0,0-.8-.68l.5-.68a2.37,2.37,0,0,1,1,.93A2.86,2.86,0,0,1,272.64,254.31Zm-5.67,0a1.71,1.71,0,0,0,.14.72,1.64,1.64,0,0,0,.38.55,1.9,1.9,0,0,0,.59.37,2,2,0,0,0,.75.13h.08v-3.42h-.13a1.89,1.89,0,0,0-1.32.45A1.54,1.54,0,0,0,267,254.31Z" fill="#171717"/>
              <path d="M272.5,250.05h-6.19v-1h1.14V249a2,2,0,0,1-.79-.6,1.81,1.81,0,0,1-.35-1.19v-.37h1v.56a2.22,2.22,0,0,0,.29,1.22.87.87,0,0,0,.74.43h4.2Z" fill="#171717"/>
              <path d="M272.64,243.78a2.91,2.91,0,0,1-.33,1.45,3.23,3.23,0,0,1-.88,1l-.55-.68a2.66,2.66,0,0,0,.7-.81,2,2,0,0,0,.25-1,1.47,1.47,0,0,0-.27-1,.94.94,0,0,0-1.36-.11,1.4,1.4,0,0,0-.35.84l-.07.5a4.57,4.57,0,0,1-.19.79,2.12,2.12,0,0,1-.34.63,1.42,1.42,0,0,1-.52.42,1.68,1.68,0,0,1-.74.15,1.81,1.81,0,0,1-.8-.17,1.61,1.61,0,0,1-.57-.46,2,2,0,0,1-.34-.7,3.17,3.17,0,0,1-.12-.88,2.71,2.71,0,0,1,.27-1.27,2.81,2.81,0,0,1,.73-.89l.58.64a1.76,1.76,0,0,0-.53.6,2,2,0,0,0-.23,1,1.41,1.41,0,0,0,.26.91.87.87,0,0,0,.7.3.75.75,0,0,0,.66-.3,2.21,2.21,0,0,0,.3-.88l.07-.48a2.58,2.58,0,0,1,.6-1.47,1.54,1.54,0,0,1,1.14-.43,1.76,1.76,0,0,1,1.42.61A2.55,2.55,0,0,1,272.64,243.78Z" fill="#171717"/>
              <path d="M264.86,239.32a.58.58,0,0,1-.15.45.56.56,0,0,1-.39.14h-.16a.56.56,0,0,1-.39-.14.75.75,0,0,1,0-.9.56.56,0,0,1,.39-.14h.16a.56.56,0,0,1,.39.14A.58.58,0,0,1,264.86,239.32Zm1.45.48v-1h6.19v1Z" fill="#171717"/>
              <path d="M272.64,234.46a2.86,2.86,0,0,1-.22,1.14,2.49,2.49,0,0,1-.66.88,3.14,3.14,0,0,1-1,.57,4,4,0,0,1-1.34.2,4,4,0,0,1-1.33-.2,3.14,3.14,0,0,1-1-.57,2.38,2.38,0,0,1-.66-.88,2.87,2.87,0,0,1-.23-1.14,2.8,2.8,0,0,1,.23-1.14,2.46,2.46,0,0,1,.66-.88,2.82,2.82,0,0,1,1-.57,4,4,0,0,1,1.33-.21,4,4,0,0,1,1.34.21,2.82,2.82,0,0,1,1,.57,2.58,2.58,0,0,1,.66.88A2.79,2.79,0,0,1,272.64,234.46Zm-.85,0a1.73,1.73,0,0,0-.48-1.27,2,2,0,0,0-1.46-.5H269a1.94,1.94,0,0,0-1.46.5,1.92,1.92,0,0,0,0,2.54,1.94,1.94,0,0,0,1.46.49h.89a2,2,0,0,0,1.46-.49A1.74,1.74,0,0,0,271.79,234.46Z" fill="#171717"/>
              <path d="M272.5,230.08h-6.19v-1h1v-.05a2.13,2.13,0,0,1-.83-.64,1.87,1.87,0,0,1-.31-1.11,2,2,0,0,1,.62-1.52,2.54,2.54,0,0,1,1.75-.56h4v1h-3.81c-1.12,0-1.67.47-1.67,1.41a2,2,0,0,0,.07.55,1.81,1.81,0,0,0,.21.49,1.09,1.09,0,0,0,.37.34,1,1,0,0,0,.52.13h4.31Z" fill="#171717"/>
              <path d="M272.5,220.43h-6.19v-1h1.14v-.06a1.79,1.79,0,0,1-1.14-1.79v-.37h1v.56a2.22,2.22,0,0,0,.29,1.22.88.88,0,0,0,.74.44h4.2Z" fill="#171717"/>
              <path d="M272.5,211.58a1,1,0,0,1-.29.77,1.46,1.46,0,0,1-.72.29v.06a1.62,1.62,0,0,1,.87.68,2.08,2.08,0,0,1,.28,1.11,2.14,2.14,0,0,1-.5,1.53,1.79,1.79,0,0,1-1.37.55,1.56,1.56,0,0,1-1.34-.65,3.39,3.39,0,0,1-.47-2V212.7h-.61a1.34,1.34,0,0,0-1,.36,1.55,1.55,0,0,0-.35,1.11,1.73,1.73,0,0,0,.25.94,2.17,2.17,0,0,0,.68.63l-.54.57a2.05,2.05,0,0,1-.86-.8,2.5,2.5,0,0,1-.36-1.39,2.58,2.58,0,0,1,.55-1.75,1.94,1.94,0,0,1,1.54-.63h3.4V211h.85Zm-.67,2.75a2.34,2.34,0,0,0-.09-.66,1.34,1.34,0,0,0-.24-.51,1.06,1.06,0,0,0-.36-.34.83.83,0,0,0-.44-.12h-1V214a2.31,2.31,0,0,0,.24,1.21.78.78,0,0,0,.7.38h.25a.85.85,0,0,0,.71-.33A1.5,1.5,0,0,0,271.83,214.33Z" fill="#171717"/>
              <path d="M272.5,208.3a1,1,0,0,1-.28.76,1.06,1.06,0,0,1-.74.26h-4.32v1h-.85v-.58a.51.51,0,0,0-.13-.42.63.63,0,0,0-.44-.12h-1.15v-.86h1.72V207h.85v1.36h4.49V207.1h.85Z" fill="#171717"/>
              <path d="M272.64,203.17a2.81,2.81,0,0,1-.22,1.15,2.58,2.58,0,0,1-.66.88,3,3,0,0,1-1,.56,4.24,4.24,0,0,1-1.34.2,4.31,4.31,0,0,1-1.33-.2,3,3,0,0,1-1-.56,2.46,2.46,0,0,1-.66-.88,2.81,2.81,0,0,1-.23-1.15,2.65,2.65,0,0,1,.23-1.11,2.38,2.38,0,0,1,.63-.84,2.94,2.94,0,0,1,1-.54,3.89,3.89,0,0,1,1.21-.18h.45V205h.29a2,2,0,0,0,.74-.13,1.62,1.62,0,0,0,.59-.36,1.58,1.58,0,0,0,.4-.57,2.13,2.13,0,0,0,.14-.78,1.89,1.89,0,0,0-.27-1,1.85,1.85,0,0,0-.8-.68l.5-.68a2.37,2.37,0,0,1,1,.93A2.85,2.85,0,0,1,272.64,203.17Zm-5.67,0a1.65,1.65,0,0,0,.14.72,1.59,1.59,0,0,0,.38.56,1.9,1.9,0,0,0,.59.37,2,2,0,0,0,.75.13h.08v-3.42h-.13a1.89,1.89,0,0,0-1.32.45A1.53,1.53,0,0,0,267,203.17Z" fill="#171717"/>
            </g>
          </g>
          <g id="Group-8">
            <g id="Group">
              <rect id="Rectangle-Copy-6" x="316" y="416" width="12" height="12" rx="1" fill="#0f62fe"/>
              <g id="Audience-A" style="isolation: isolate">
                <g style="isolation: isolate">
                  <path d="M337.71,426l-.74-2.51h-3l-.75,2.51h-1l2.62-8.38h1.2L338.7,426Zm-1.93-6.48-.26-1h-.12l-.27,1-.95,3.18h2.57Z" fill="#6f6f6f"/>
                  <path d="M343.28,425h-.12a1.72,1.72,0,0,1-.56.87,1.65,1.65,0,0,1-1,.28,1.61,1.61,0,0,1-1.31-.56,2.72,2.72,0,0,1-.47-1.74v-4h.91v4a1.78,1.78,0,0,0,.31,1.14,1.12,1.12,0,0,0,.94.4,1.41,1.41,0,0,0,.94-.34,1.21,1.21,0,0,0,.38-1v-4.22h.91V426h-.91Z" fill="#6f6f6f"/>
                  <path d="M349.57,425h-.12a1.56,1.56,0,0,1-.58.88,1.81,1.81,0,0,1-1,.26,2,2,0,0,1-1-.22,2.1,2.1,0,0,1-.71-.65,3,3,0,0,1-.43-1,6.11,6.11,0,0,1,0-2.69,3,3,0,0,1,.43-1,1.95,1.95,0,0,1,1.68-.88,1.73,1.73,0,0,1,1,.27,1.56,1.56,0,0,1,.58.87h.12v-3.68h.91V426h-.91Zm-1.41.34a1.92,1.92,0,0,0,.55-.08,1.26,1.26,0,0,0,.44-.25,1.12,1.12,0,0,0,.42-.85v-2.51a1,1,0,0,0-.12-.48,1.1,1.1,0,0,0-.3-.38,1.43,1.43,0,0,0-.44-.24,1.92,1.92,0,0,0-.55-.08,1.44,1.44,0,0,0-1.15.47,2.08,2.08,0,0,0-.39,1.34v1.25a2,2,0,0,0,.39,1.33A1.42,1.42,0,0,0,348.16,425.34Z" fill="#6f6f6f"/>
                  <path d="M352.76,418.31c-.38,0-.56-.17-.56-.49v-.2c0-.32.18-.49.56-.49s.56.17.56.49v.2C353.32,418.14,353.14,418.31,352.76,418.31Zm-.46,1.5h.92V426h-.92Z" fill="#6f6f6f"/>
                  <path d="M357.15,426.14a2.83,2.83,0,0,1-1-.18,2,2,0,0,1-.8-.57,3,3,0,0,1-.53-1,5.82,5.82,0,0,1,0-2.95,2.92,2.92,0,0,1,.53-1,2,2,0,0,1,.8-.58,2.83,2.83,0,0,1,1-.18,2.64,2.64,0,0,1,1,.18,1.8,1.8,0,0,1,.76.58,2.88,2.88,0,0,1,.49,1,5.3,5.3,0,0,1,.17,1.47v.23h-4v.4a1.93,1.93,0,0,0,.42,1.36,1.45,1.45,0,0,0,1.14.45,1.76,1.76,0,0,0,1-.27,1.81,1.81,0,0,0,.63-.81l.62.46a2.5,2.5,0,0,1-.85,1A2.41,2.41,0,0,1,357.15,426.14Zm0-5.71a1.46,1.46,0,0,0-1.15.47,2,2,0,0,0-.41,1.38v.16h3v-.16C358.59,421.05,358.11,420.43,357.15,420.43Z" fill="#6f6f6f"/>
                  <path d="M361,426v-6.19h.91v1H362a1.48,1.48,0,0,1,1.59-1.16,1.61,1.61,0,0,1,1.3.57,2.68,2.68,0,0,1,.47,1.74v4h-.91v-4a1.78,1.78,0,0,0-.31-1.14,1.09,1.09,0,0,0-.94-.4,1.32,1.32,0,0,0-.93.34,1.18,1.18,0,0,0-.39.95V426Z" fill="#6f6f6f"/>
                  <path d="M369.18,426.14a2.28,2.28,0,0,1-1.81-.75,5.08,5.08,0,0,1,0-5,2.29,2.29,0,0,1,1.81-.76,2.15,2.15,0,0,1,2.16,1.42l-.76.38a1.33,1.33,0,0,0-1.4-1,1.37,1.37,0,0,0-1.12.44,2.18,2.18,0,0,0-.36,1.37v1.25a2.13,2.13,0,0,0,.36,1.36,1.34,1.34,0,0,0,1.12.45,1.63,1.63,0,0,0,1-.26,1.73,1.73,0,0,0,.58-.81l.68.47a2.24,2.24,0,0,1-2.22,1.4Z" fill="#6f6f6f"/>
                  <path d="M374.61,426.14a2.83,2.83,0,0,1-1-.18,2,2,0,0,1-.8-.57,3,3,0,0,1-.53-1,5.82,5.82,0,0,1,0-2.95,2.92,2.92,0,0,1,.53-1,2,2,0,0,1,.8-.58,2.83,2.83,0,0,1,1-.18,2.64,2.64,0,0,1,1,.18,1.8,1.8,0,0,1,.76.58,2.88,2.88,0,0,1,.49,1,5.3,5.3,0,0,1,.17,1.47v.23h-4v.4a1.93,1.93,0,0,0,.42,1.36,1.45,1.45,0,0,0,1.14.45,1.76,1.76,0,0,0,1-.27,1.81,1.81,0,0,0,.63-.81l.62.46a2.5,2.5,0,0,1-.85,1A2.41,2.41,0,0,1,374.61,426.14Zm0-5.71a1.46,1.46,0,0,0-1.15.47,2,2,0,0,0-.41,1.38v.16h3v-.16C376.05,421.05,375.57,420.43,374.61,420.43Z" fill="#6f6f6f"/>
                  <path d="M385.78,426l-.74-2.51h-3l-.75,2.51h-1l2.62-8.38h1.2l2.63,8.38Zm-1.93-6.48-.26-1h-.12l-.27,1-.95,3.18h2.57Z" fill="#6f6f6f"/>
                </g>
              </g>
            </g>
            <g id="Group-7">
              <g id="Group-3">
                <rect id="Rectangle-Copy-7" x="396" y="416" width="12" height="12" rx="1" fill="#8c8c8c"/>
                <g id="Audience-B" style="isolation: isolate">
                  <g style="isolation: isolate">
                    <path d="M417.71,426l-.74-2.51h-3l-.75,2.51h-1l2.62-8.38h1.2L418.7,426Zm-1.93-6.48-.26-1h-.12l-.27,1-.95,3.18h2.57Z" fill="#6f6f6f"/>
                    <path d="M423.28,425h-.12a1.72,1.72,0,0,1-.56.87,1.65,1.65,0,0,1-1,.28,1.61,1.61,0,0,1-1.31-.56,2.72,2.72,0,0,1-.47-1.74v-4h.91v4a1.78,1.78,0,0,0,.31,1.14,1.12,1.12,0,0,0,.94.4,1.41,1.41,0,0,0,.94-.34,1.21,1.21,0,0,0,.38-1v-4.22h.91V426h-.91Z" fill="#6f6f6f"/>
                    <path d="M429.57,425h-.12a1.56,1.56,0,0,1-.58.88,1.81,1.81,0,0,1-1,.26,2,2,0,0,1-1-.22,2.1,2.1,0,0,1-.71-.65,3,3,0,0,1-.43-1,6.11,6.11,0,0,1,0-2.69,3,3,0,0,1,.43-1,1.95,1.95,0,0,1,1.68-.88,1.73,1.73,0,0,1,1,.27,1.56,1.56,0,0,1,.58.87h.12v-3.68h.91V426h-.91Zm-1.41.34a1.92,1.92,0,0,0,.55-.08,1.26,1.26,0,0,0,.44-.25,1.12,1.12,0,0,0,.42-.85v-2.51a1,1,0,0,0-.12-.48,1.1,1.1,0,0,0-.3-.38,1.43,1.43,0,0,0-.44-.24,1.92,1.92,0,0,0-.55-.08,1.44,1.44,0,0,0-1.15.47,2.08,2.08,0,0,0-.39,1.34v1.25a2,2,0,0,0,.39,1.33A1.42,1.42,0,0,0,428.16,425.34Z" fill="#6f6f6f"/>
                    <path d="M432.76,418.31c-.38,0-.56-.17-.56-.49v-.2c0-.32.18-.49.56-.49s.56.17.56.49v.2C433.32,418.14,433.14,418.31,432.76,418.31Zm-.46,1.5h.92V426h-.92Z" fill="#6f6f6f"/>
                    <path d="M437.15,426.14a2.83,2.83,0,0,1-1-.18,2,2,0,0,1-.8-.57,3,3,0,0,1-.53-1,5.82,5.82,0,0,1,0-2.95,2.92,2.92,0,0,1,.53-1,2,2,0,0,1,.8-.58,2.83,2.83,0,0,1,1-.18,2.64,2.64,0,0,1,1,.18,1.8,1.8,0,0,1,.76.58,2.88,2.88,0,0,1,.49,1,5.3,5.3,0,0,1,.17,1.47v.23h-4v.4a1.93,1.93,0,0,0,.42,1.36,1.45,1.45,0,0,0,1.14.45,1.76,1.76,0,0,0,1-.27,1.81,1.81,0,0,0,.63-.81l.62.46a2.5,2.5,0,0,1-.85,1A2.41,2.41,0,0,1,437.15,426.14Zm0-5.71a1.46,1.46,0,0,0-1.15.47,2,2,0,0,0-.41,1.38v.16h3v-.16C438.59,421.05,438.11,420.43,437.15,420.43Z" fill="#6f6f6f"/>
                    <path d="M441,426v-6.19h.91v1H442a1.48,1.48,0,0,1,1.59-1.16,1.61,1.61,0,0,1,1.3.57,2.68,2.68,0,0,1,.47,1.74v4h-.91v-4a1.78,1.78,0,0,0-.31-1.14,1.09,1.09,0,0,0-.94-.4,1.32,1.32,0,0,0-.93.34,1.18,1.18,0,0,0-.39.95V426Z" fill="#6f6f6f"/>
                    <path d="M449.18,426.14a2.28,2.28,0,0,1-1.81-.75,5.08,5.08,0,0,1,0-5,2.29,2.29,0,0,1,1.81-.76,2.15,2.15,0,0,1,2.16,1.42l-.76.38a1.33,1.33,0,0,0-1.4-1,1.37,1.37,0,0,0-1.12.44,2.18,2.18,0,0,0-.36,1.37v1.25a2.13,2.13,0,0,0,.36,1.36,1.34,1.34,0,0,0,1.12.45,1.63,1.63,0,0,0,1-.26,1.73,1.73,0,0,0,.58-.81l.68.47a2.24,2.24,0,0,1-2.22,1.4Z" fill="#6f6f6f"/>
                    <path d="M454.61,426.14a2.83,2.83,0,0,1-1-.18,2,2,0,0,1-.8-.57,3,3,0,0,1-.53-1,5.82,5.82,0,0,1,0-2.95,2.92,2.92,0,0,1,.53-1,2,2,0,0,1,.8-.58,2.83,2.83,0,0,1,1-.18,2.64,2.64,0,0,1,1,.18,1.8,1.8,0,0,1,.76.58,2.88,2.88,0,0,1,.49,1,5.3,5.3,0,0,1,.17,1.47v.23h-4v.4a1.93,1.93,0,0,0,.42,1.36,1.45,1.45,0,0,0,1.14.45,1.76,1.76,0,0,0,1-.27,1.81,1.81,0,0,0,.63-.81l.62.46a2.5,2.5,0,0,1-.85,1A2.41,2.41,0,0,1,454.61,426.14Zm0-5.71a1.46,1.46,0,0,0-1.15.47,2,2,0,0,0-.41,1.38v.16h3v-.16C456.05,421.05,455.57,420.43,454.61,420.43Z" fill="#6f6f6f"/>
                    <path d="M461.07,417.62h3.17a1.89,1.89,0,0,1,1.45.54,2.25,2.25,0,0,1,.51,1.62,2.43,2.43,0,0,1-.12.83,1.57,1.57,0,0,1-.3.53,1.18,1.18,0,0,1-.42.29,1.24,1.24,0,0,1-.44.11v.12a1.46,1.46,0,0,1,1,.4,1.86,1.86,0,0,1,.4.59,2.45,2.45,0,0,1,.16.92,2.73,2.73,0,0,1-.53,1.79,1.69,1.69,0,0,1-1.38.64h-3.49Zm1,3.62h2.09a1.1,1.1,0,0,0,.79-.27,1.15,1.15,0,0,0,.27-.84v-.55a.94.94,0,0,0-1.06-1.1H462Zm0,3.91h2.24a1.11,1.11,0,0,0,.87-.31,1.3,1.3,0,0,0,.3-.95v-.55a1.32,1.32,0,0,0-.3-.95,1.15,1.15,0,0,0-.87-.3H462Z" fill="#6f6f6f"/>
                  </g>
                </g>
              </g>
            </g>
          </g>
          <rect id="Rectangle-Copy-12" x="315.5" y="129" width="1" height="226" fill="#8c8c8c"/>
          <g id="Group-4">
            <g id="Jan" style="isolation: isolate">
              <g style="isolation: isolate">
                <path d="M348.11,363.62v6.46a2.13,2.13,0,0,1-.16.86,1.83,1.83,0,0,1-.44.65,2,2,0,0,1-.69.41,2.5,2.5,0,0,1-.88.14,2.06,2.06,0,0,1-1.49-.51,2.45,2.45,0,0,1-.67-1.33l.86-.22a1.84,1.84,0,0,0,.4.88,1.13,1.13,0,0,0,.9.33,1.15,1.15,0,0,0,.89-.34,1.52,1.52,0,0,0,.32-1.05v-5.42h-2.57v-.86Z" fill="#6f6f6f"/>
                <path d="M353.87,372a.79.79,0,0,1-.89-.9V371h-.12a1.49,1.49,0,0,1-.57.87,1.72,1.72,0,0,1-1,.29,1.79,1.79,0,0,1-1.34-.45,1.85,1.85,0,0,1-.45-1.35,1.72,1.72,0,0,1,.57-1.36,2.63,2.63,0,0,1,1.78-.51H353v-.68a1.4,1.4,0,0,0-.31-1,1.24,1.24,0,0,0-1-.32,1.44,1.44,0,0,0-.87.23,2,2,0,0,0-.57.68l-.54-.51a2.05,2.05,0,0,1,.77-.84,2.2,2.2,0,0,1,1.24-.34,2.29,2.29,0,0,1,1.61.51,2,2,0,0,1,.54,1.5v3.51h.63v.8Zm-2.34-.66a1.58,1.58,0,0,0,.58-.11,1.42,1.42,0,0,0,.46-.28,1.14,1.14,0,0,0,.3-.39,1.07,1.07,0,0,0,.11-.46v-.93h-1.14a1.81,1.81,0,0,0-1,.24.8.8,0,0,0-.33.69v.33a.83.83,0,0,0,.29.69A1.23,1.23,0,0,0,351.53,371.34Z" fill="#6f6f6f"/>
                <path d="M355.75,372v-6.19h.91v1h.12a1.48,1.48,0,0,1,1.59-1.16,1.61,1.61,0,0,1,1.3.57,2.62,2.62,0,0,1,.47,1.74v4h-.91v-4a1.84,1.84,0,0,0-.3-1.14,1.12,1.12,0,0,0-.95-.4,1.34,1.34,0,0,0-.93.34,1.18,1.18,0,0,0-.39.95V372Z" fill="#6f6f6f"/>
              </g>
            </g>
            <g id="Feb" style="isolation: isolate">
              <g style="isolation: isolate">
                <path d="M379.12,372v-8.38h4.53v.86h-3.57v2.85h3.24v.85h-3.24V372Z" fill="#6f6f6f"/>
                <path d="M386.9,372.14a2.79,2.79,0,0,1-1-.18,2.07,2.07,0,0,1-.81-.57,3,3,0,0,1-.52-1,5.82,5.82,0,0,1,0-2.95,2.91,2.91,0,0,1,.52-1,2.09,2.09,0,0,1,.81-.58,2.79,2.79,0,0,1,1-.18,2.64,2.64,0,0,1,1,.18,1.87,1.87,0,0,1,.76.58,2.88,2.88,0,0,1,.49,1,5.71,5.71,0,0,1,.17,1.47v.23h-4v.4a2,2,0,0,0,.41,1.36,1.49,1.49,0,0,0,1.15.45,1.6,1.6,0,0,0,1.64-1.08l.63.46a2.67,2.67,0,0,1-.85,1A2.43,2.43,0,0,1,386.9,372.14Zm0-5.71a1.44,1.44,0,0,0-1.15.47,2,2,0,0,0-.41,1.38v.16h3v-.16C388.34,367.05,387.86,366.43,386.9,366.43Z" fill="#6f6f6f"/>
                <path d="M390.73,363.12h.91v3.68h.12a1.52,1.52,0,0,1,.58-.87,1.71,1.71,0,0,1,1-.27,1.95,1.95,0,0,1,1.68.88,3.17,3.17,0,0,1,.43,1,6.53,6.53,0,0,1,0,2.69,3.17,3.17,0,0,1-.43,1,2.1,2.1,0,0,1-.71.65,2,2,0,0,1-1,.22,1.79,1.79,0,0,1-1-.26,1.51,1.51,0,0,1-.58-.88h-.12v1h-.91Zm2.31,8.22a1.4,1.4,0,0,0,1.15-.48,2,2,0,0,0,.4-1.33v-1.25a2,2,0,0,0-.4-1.34,1.43,1.43,0,0,0-1.15-.47,1.91,1.91,0,0,0-.54.08,1.37,1.37,0,0,0-.45.24,1.4,1.4,0,0,0-.3.38,1,1,0,0,0-.11.48v2.51a1,1,0,0,0,.11.48,1.3,1.3,0,0,0,.75.62A1.91,1.91,0,0,0,393,371.34Z" fill="#6f6f6f"/>
              </g>
            </g>
            <g id="Mar" style="isolation: isolate">
              <g style="isolation: isolate">
                <path d="M420.59,366.25l.08-1.44h-.12l-.62,1.44-1.8,3.7-1.8-3.7-.62-1.41h-.12l.08,1.41V372h-.94v-8.38H416l1.51,3.26.56,1.54h.1l.56-1.54,1.51-3.26h1.28V372h-.94Z" fill="#6f6f6f"/>
                <path d="M427.33,372a.79.79,0,0,1-.88-.9V371h-.12a1.59,1.59,0,0,1-.57.87,1.72,1.72,0,0,1-1,.29,1.83,1.83,0,0,1-1.35-.45,1.89,1.89,0,0,1-.44-1.35,1.72,1.72,0,0,1,.57-1.36,2.61,2.61,0,0,1,1.78-.51h1.12v-.68a1.45,1.45,0,0,0-.31-1,1.26,1.26,0,0,0-1-.32,1.44,1.44,0,0,0-.87.23,2,2,0,0,0-.57.68l-.54-.51A2.12,2.12,0,0,1,424,366a2.23,2.23,0,0,1,1.25-.34,2.26,2.26,0,0,1,1.6.51,1.93,1.93,0,0,1,.55,1.5v3.51H428v.8Zm-2.34-.66a1.63,1.63,0,0,0,.59-.11A1.42,1.42,0,0,0,426,371a1.14,1.14,0,0,0,.3-.39,1.07,1.07,0,0,0,.11-.46v-.93h-1.14a1.81,1.81,0,0,0-1.05.24.8.8,0,0,0-.33.69v.33a.82.82,0,0,0,.28.69A1.26,1.26,0,0,0,425,371.34Z" fill="#6f6f6f"/>
                <path d="M429.22,372v-6.19h.91V367h.12a1.66,1.66,0,0,1,.53-.85,1.58,1.58,0,0,1,1-.3h.34v.92h-.6a1.6,1.6,0,0,0-1,.29,1,1,0,0,0-.37.86V372Z" fill="#6f6f6f"/>
              </g>
            </g>
            <g id="Apr" style="isolation: isolate">
              <g style="isolation: isolate">
                <path d="M455.09,372l-.75-2.51h-3l-.74,2.51h-1l2.61-8.38h1.2l2.63,8.38Zm-1.94-6.48-.26-1h-.12l-.26,1-.95,3.18h2.57Z" fill="#6f6f6f"/>
                <path d="M457.23,365.81h.92v1h.12a1.52,1.52,0,0,1,.58-.87,1.71,1.71,0,0,1,1-.27,2,2,0,0,1,1,.23,2.09,2.09,0,0,1,.71.65,3.17,3.17,0,0,1,.43,1,6.53,6.53,0,0,1,0,2.69,3.17,3.17,0,0,1-.43,1,2.19,2.19,0,0,1-.71.65,2,2,0,0,1-1,.22,1.79,1.79,0,0,1-1-.26,1.51,1.51,0,0,1-.58-.88h-.12v3.4h-.92Zm2.32,5.53a1.4,1.4,0,0,0,1.15-.48,2,2,0,0,0,.4-1.33v-1.25a2,2,0,0,0-.4-1.34,1.43,1.43,0,0,0-1.15-.47,2,2,0,0,0-.55.08,1.43,1.43,0,0,0-.44.24,1.4,1.4,0,0,0-.3.38,1,1,0,0,0-.11.48v2.51a1,1,0,0,0,.11.48,1.22,1.22,0,0,0,.3.37,1.26,1.26,0,0,0,.44.25A2,2,0,0,0,459.55,371.34Z" fill="#6f6f6f"/>
                <path d="M463.52,372v-6.19h.92V367h.11a1.74,1.74,0,0,1,.54-.85,1.54,1.54,0,0,1,1-.3h.34v.92h-.61a1.6,1.6,0,0,0-1,.29,1,1,0,0,0-.36.86V372Z" fill="#6f6f6f"/>
              </g>
            </g>
            <g id="May" style="isolation: isolate">
              <g style="isolation: isolate">
                <path d="M488.34,366.25l.08-1.44h-.12l-.62,1.44-1.8,3.7-1.8-3.7-.62-1.41h-.12l.08,1.41V372h-.94v-8.38h1.28l1.51,3.26.56,1.54h.1l.56-1.54,1.51-3.26h1.28V372h-.94Z" fill="#6f6f6f"/>
                <path d="M495.08,372a.79.79,0,0,1-.88-.9V371h-.12a1.59,1.59,0,0,1-.57.87,1.72,1.72,0,0,1-1,.29,1.83,1.83,0,0,1-1.35-.45,1.89,1.89,0,0,1-.44-1.35,1.72,1.72,0,0,1,.57-1.36,2.61,2.61,0,0,1,1.78-.51h1.12v-.68a1.45,1.45,0,0,0-.31-1,1.26,1.26,0,0,0-1-.32,1.44,1.44,0,0,0-.87.23,2,2,0,0,0-.57.68l-.54-.51a2.12,2.12,0,0,1,.77-.84,2.23,2.23,0,0,1,1.25-.34,2.26,2.26,0,0,1,1.6.51,1.93,1.93,0,0,1,.55,1.5v3.51h.62v.8Zm-2.34-.66a1.63,1.63,0,0,0,.59-.11,1.42,1.42,0,0,0,.46-.28,1.14,1.14,0,0,0,.3-.39,1.07,1.07,0,0,0,.11-.46v-.93h-1.14a1.81,1.81,0,0,0-1.05.24.8.8,0,0,0-.33.69v.33a.82.82,0,0,0,.28.69A1.26,1.26,0,0,0,492.74,371.34Z" fill="#6f6f6f"/>
                <path d="M500.26,365.81h.88l-2.44,7.77a2.34,2.34,0,0,1-.16.41.87.87,0,0,1-.21.25.68.68,0,0,1-.3.12,1.83,1.83,0,0,1-.44,0h-.67v-.8h.95l.36-1.26-2.05-6.53h.91l1,3.12.57,2.27h.12l.58-2.27Z" fill="#6f6f6f"/>
              </g>
            </g>
            <g id="Jun" style="isolation: isolate">
              <g style="isolation: isolate">
                <path d="M523.11,363.62v6.46a2.13,2.13,0,0,1-.16.86,1.83,1.83,0,0,1-.44.65,2,2,0,0,1-.69.41,2.5,2.5,0,0,1-.88.14,2.06,2.06,0,0,1-1.49-.51,2.45,2.45,0,0,1-.67-1.33l.86-.22a1.84,1.84,0,0,0,.4.88,1.13,1.13,0,0,0,.9.33,1.15,1.15,0,0,0,.89-.34,1.52,1.52,0,0,0,.32-1.05v-5.42h-2.57v-.86Z" fill="#6f6f6f"/>
                <path d="M528.38,371h-.12a1.72,1.72,0,0,1-.56.87,1.68,1.68,0,0,1-1,.28,1.6,1.6,0,0,1-1.3-.56,2.66,2.66,0,0,1-.47-1.74v-4h.91v4a1.84,1.84,0,0,0,.3,1.14,1.15,1.15,0,0,0,.95.4A1.38,1.38,0,0,0,528,371a1.18,1.18,0,0,0,.39-1v-4.22h.91V372h-.91Z" fill="#6f6f6f"/>
                <path d="M531.11,372v-6.19H532v1h.12a1.48,1.48,0,0,1,1.59-1.16,1.61,1.61,0,0,1,1.3.57,2.62,2.62,0,0,1,.47,1.74v4h-.91v-4a1.84,1.84,0,0,0-.3-1.14,1.12,1.12,0,0,0-.95-.4,1.34,1.34,0,0,0-.93.34,1.18,1.18,0,0,0-.39.95V372Z" fill="#6f6f6f"/>
              </g>
            </g>
            <g id="Jul" style="isolation: isolate">
              <g style="isolation: isolate">
                <path d="M558.86,363.62v6.46a2.13,2.13,0,0,1-.16.86,1.83,1.83,0,0,1-.44.65,2,2,0,0,1-.69.41,2.5,2.5,0,0,1-.88.14,2.06,2.06,0,0,1-1.49-.51,2.45,2.45,0,0,1-.67-1.33l.86-.22a1.84,1.84,0,0,0,.4.88,1.13,1.13,0,0,0,.9.33,1.15,1.15,0,0,0,.89-.34,1.52,1.52,0,0,0,.32-1.05v-5.42h-2.57v-.86Z" fill="#6f6f6f"/>
                <path d="M564.13,371H564a1.72,1.72,0,0,1-.56.87,1.68,1.68,0,0,1-1,.28,1.6,1.6,0,0,1-1.3-.56,2.66,2.66,0,0,1-.47-1.74v-4h.91v4a1.84,1.84,0,0,0,.3,1.14,1.15,1.15,0,0,0,.95.4,1.38,1.38,0,0,0,.93-.34,1.18,1.18,0,0,0,.39-1v-4.22H565V372h-.91Z" fill="#6f6f6f"/>
                <path d="M567.8,372a1,1,0,0,1-.72-.22,1,1,0,0,1-.22-.72v-7.94h.91v8.08h.78v.8Z" fill="#6f6f6f"/>
              </g>
            </g>
            <g id="Aug" style="isolation: isolate">
              <g style="isolation: isolate">
                <path d="M594.59,372l-.75-2.51h-3l-.74,2.51h-1l2.61-8.38h1.2l2.63,8.38Zm-1.94-6.48-.26-1h-.12l-.26,1-1,3.18h2.57Z" fill="#6f6f6f"/>
                <path d="M600.15,371H600a1.78,1.78,0,0,1-.56.87,1.7,1.7,0,0,1-1,.28,1.59,1.59,0,0,1-1.3-.56,2.66,2.66,0,0,1-.48-1.74v-4h.92v4a1.84,1.84,0,0,0,.3,1.14,1.14,1.14,0,0,0,.94.4,1.41,1.41,0,0,0,.94-.34,1.17,1.17,0,0,0,.38-1v-4.22h.92V372h-.92Z" fill="#6f6f6f"/>
                <path d="M607.62,372.7a1.53,1.53,0,0,1-.67,1.41,3.83,3.83,0,0,1-2.06.43,3.5,3.5,0,0,1-1.9-.39,1.32,1.32,0,0,1-.57-1.14,1.19,1.19,0,0,1,.25-.79,1.14,1.14,0,0,1,.65-.36v-.17a1.14,1.14,0,0,1-.38-.34.88.88,0,0,1-.13-.49,1,1,0,0,1,.22-.66,1,1,0,0,1,.72-.34v-.13A1.77,1.77,0,0,1,603,369a2.42,2.42,0,0,1-.27-1.2,2.1,2.1,0,0,1,.58-1.6,2.17,2.17,0,0,1,1.55-.54,2.51,2.51,0,0,1,1,.2v-.22a.57.57,0,0,1,.66-.66h.83v.81h-1.07v.33a2,2,0,0,1,.49.69,2.62,2.62,0,0,1,.17,1,2.11,2.11,0,0,1-.57,1.6,2.18,2.18,0,0,1-1.55.54,3,3,0,0,1-.59-.06.84.84,0,0,0-.51.27.64.64,0,0,0-.17.43.41.41,0,0,0,.16.36,1,1,0,0,0,.56.12h1.35a2.17,2.17,0,0,1,1.5.42A1.52,1.52,0,0,1,607.62,372.7Zm-.85.06a.75.75,0,0,0-.26-.62,1.33,1.33,0,0,0-.86-.21h-1.88a.82.82,0,0,0-.39.33,1,1,0,0,0-.12.52,1,1,0,0,0,.29.74,1.31,1.31,0,0,0,.92.27h.8a2,2,0,0,0,1.12-.25A.86.86,0,0,0,606.77,372.76Zm-1.91-3.54a1.23,1.23,0,0,0,.87-.29,1.16,1.16,0,0,0,.32-.89v-.45a1.15,1.15,0,0,0-.32-.89,1.19,1.19,0,0,0-.87-.29,1.22,1.22,0,0,0-.88.29,1.15,1.15,0,0,0-.31.89V368a1.16,1.16,0,0,0,.31.89A1.26,1.26,0,0,0,604.86,369.22Z" fill="#6f6f6f"/>
              </g>
            </g>
            <g id="Sep" style="isolation: isolate">
              <g style="isolation: isolate">
                <path d="M625.63,372.14a3.17,3.17,0,0,1-1.57-.37,3.4,3.4,0,0,1-1.12-1l.7-.58a3,3,0,0,0,.86.87,2.1,2.1,0,0,0,1.13.31c1.14,0,1.71-.54,1.71-1.6a1.38,1.38,0,0,0-.32-1,2.09,2.09,0,0,0-1.08-.53l-.62-.16a3.32,3.32,0,0,1-1.63-.81,2.09,2.09,0,0,1-.52-1.5,2,2,0,0,1,.7-1.69,2.82,2.82,0,0,1,1.85-.57,3.13,3.13,0,0,1,1.47.32,3,3,0,0,1,1,1l-.7.51a2.45,2.45,0,0,0-.74-.76,2,2,0,0,0-1.1-.26,1.81,1.81,0,0,0-1.17.33,1.36,1.36,0,0,0-.4,1.1,1.22,1.22,0,0,0,.33.92,2.33,2.33,0,0,0,1.06.49l.62.16a4.65,4.65,0,0,1,1,.34,2.11,2.11,0,0,1,.67.49,1.75,1.75,0,0,1,.37.67,3.54,3.54,0,0,1,.11.91,2.29,2.29,0,0,1-.7,1.81A2.84,2.84,0,0,1,625.63,372.14Z" fill="#6f6f6f"/>
                <path d="M631.82,372.14a2.73,2.73,0,0,1-1-.18,2,2,0,0,1-.81-.57,3,3,0,0,1-.53-1,5.82,5.82,0,0,1,0-2.95,2.92,2.92,0,0,1,.53-1,2,2,0,0,1,.81-.58,2.73,2.73,0,0,1,1-.18,2.64,2.64,0,0,1,1,.18,1.9,1.9,0,0,1,.77.58,2.88,2.88,0,0,1,.48,1,5.27,5.27,0,0,1,.18,1.47v.23h-4v.4a1.93,1.93,0,0,0,.42,1.36,1.47,1.47,0,0,0,1.14.45,1.63,1.63,0,0,0,1.65-1.08l.62.46a2.56,2.56,0,0,1-.84,1A2.46,2.46,0,0,1,631.82,372.14Zm0-5.71a1.46,1.46,0,0,0-1.15.47,2,2,0,0,0-.41,1.38v.16h3v-.16C633.26,367.05,632.78,366.43,631.82,366.43Z" fill="#6f6f6f"/>
                <path d="M635.65,365.81h.91v1h.12a1.53,1.53,0,0,1,.59-.87,1.68,1.68,0,0,1,1-.27,2.06,2.06,0,0,1,1,.23,2,2,0,0,1,.7.65,3,3,0,0,1,.44,1,6.53,6.53,0,0,1,0,2.69,3,3,0,0,1-.44,1,1.88,1.88,0,0,1-1.68.87,1.75,1.75,0,0,1-1-.26,1.52,1.52,0,0,1-.59-.88h-.12v3.4h-.91Zm2.32,5.53a1.4,1.4,0,0,0,1.15-.48,2,2,0,0,0,.4-1.33v-1.25a2.08,2.08,0,0,0-.4-1.34,1.43,1.43,0,0,0-1.15-.47,2,2,0,0,0-.55.08,1.43,1.43,0,0,0-.44.24,1.1,1.1,0,0,0-.3.38,1,1,0,0,0-.12.48v2.51a1.12,1.12,0,0,0,.42.85,1.26,1.26,0,0,0,.44.25A2,2,0,0,0,638,371.34Z" fill="#6f6f6f"/>
              </g>
            </g>
          </g>
          <g id="Group-6">
            <g id="Group-5">
              <circle id="Oval-Copy-33" cx="483" cy="422" r="6.5" fill="none" stroke="#8c8c8c"/>
              <circle id="Oval-Copy-33-2" data-name="Oval-Copy-33" cx="483" cy="425" r="3.5" fill="none" stroke="#8c8c8c"/>
            </g>
            <g id="Audience-size" style="isolation: isolate">
              <g style="isolation: isolate">
                <path d="M499.71,426l-.74-2.51h-3l-.75,2.51h-1l2.62-8.38h1.2L500.7,426Zm-1.93-6.48-.26-1h-.12l-.27,1-.95,3.18h2.57Z" fill="#6f6f6f"/>
                <path d="M505.28,425h-.12a1.72,1.72,0,0,1-.56.87,1.65,1.65,0,0,1-1,.28,1.61,1.61,0,0,1-1.31-.56,2.72,2.72,0,0,1-.47-1.74v-4h.91v4a1.78,1.78,0,0,0,.31,1.14,1.12,1.12,0,0,0,.94.4,1.41,1.41,0,0,0,.94-.34,1.21,1.21,0,0,0,.38-1v-4.22h.91V426h-.91Z" fill="#6f6f6f"/>
                <path d="M511.57,425h-.12a1.56,1.56,0,0,1-.58.88,1.81,1.81,0,0,1-1,.26,1.91,1.91,0,0,1-1.68-.87,3,3,0,0,1-.43-1,6.11,6.11,0,0,1,0-2.69,3,3,0,0,1,.43-1,1.92,1.92,0,0,1,.71-.65,2,2,0,0,1,1-.23,1.73,1.73,0,0,1,1,.27,1.56,1.56,0,0,1,.58.87h.12v-3.68h.91V426h-.91Zm-1.41.34a1.92,1.92,0,0,0,.55-.08,1.26,1.26,0,0,0,.44-.25,1.12,1.12,0,0,0,.42-.85v-2.51a1,1,0,0,0-.12-.48,1.1,1.1,0,0,0-.3-.38,1.43,1.43,0,0,0-.44-.24,1.92,1.92,0,0,0-.55-.08,1.44,1.44,0,0,0-1.15.47,2.08,2.08,0,0,0-.39,1.34v1.25a2,2,0,0,0,.39,1.33A1.42,1.42,0,0,0,510.16,425.34Z" fill="#6f6f6f"/>
                <path d="M514.76,418.31c-.38,0-.56-.17-.56-.49v-.2c0-.32.18-.49.56-.49s.56.17.56.49v.2C515.32,418.14,515.14,418.31,514.76,418.31Zm-.46,1.5h.92V426h-.92Z" fill="#6f6f6f"/>
                <path d="M519.15,426.14a2.83,2.83,0,0,1-1-.18,2,2,0,0,1-.8-.57,3,3,0,0,1-.53-1,5.82,5.82,0,0,1,0-2.95,2.92,2.92,0,0,1,.53-1,2,2,0,0,1,.8-.58,2.83,2.83,0,0,1,1-.18,2.64,2.64,0,0,1,1,.18,1.8,1.8,0,0,1,.76.58,2.88,2.88,0,0,1,.49,1,5.3,5.3,0,0,1,.17,1.47v.23h-4v.4a1.93,1.93,0,0,0,.42,1.36,1.45,1.45,0,0,0,1.14.45,1.76,1.76,0,0,0,1-.27,1.81,1.81,0,0,0,.63-.81l.62.46a2.5,2.5,0,0,1-.85,1A2.41,2.41,0,0,1,519.15,426.14Zm0-5.71a1.46,1.46,0,0,0-1.15.47,2,2,0,0,0-.41,1.38v.16h3v-.16C520.59,421.05,520.11,420.43,519.15,420.43Z" fill="#6f6f6f"/>
                <path d="M523,426v-6.19h.91v1H524a1.48,1.48,0,0,1,1.59-1.16,1.61,1.61,0,0,1,1.3.57,2.68,2.68,0,0,1,.47,1.74v4h-.91v-4a1.78,1.78,0,0,0-.31-1.14,1.09,1.09,0,0,0-.94-.4,1.32,1.32,0,0,0-.93.34,1.18,1.18,0,0,0-.39.95V426Z" fill="#6f6f6f"/>
                <path d="M531.18,426.14a2.28,2.28,0,0,1-1.81-.75,5.08,5.08,0,0,1,0-5,2.29,2.29,0,0,1,1.81-.76,2.15,2.15,0,0,1,2.16,1.42l-.76.38a1.33,1.33,0,0,0-1.4-1,1.37,1.37,0,0,0-1.12.44,2.18,2.18,0,0,0-.36,1.37v1.25a2.13,2.13,0,0,0,.36,1.36,1.34,1.34,0,0,0,1.12.45,1.63,1.63,0,0,0,1-.26,1.73,1.73,0,0,0,.58-.81l.68.47a2.24,2.24,0,0,1-2.22,1.4Z" fill="#6f6f6f"/>
                <path d="M536.61,426.14a2.83,2.83,0,0,1-1-.18,2,2,0,0,1-.8-.57,3,3,0,0,1-.53-1,5.82,5.82,0,0,1,0-2.95,2.92,2.92,0,0,1,.53-1,2,2,0,0,1,.8-.58,2.83,2.83,0,0,1,1-.18,2.64,2.64,0,0,1,1,.18,1.8,1.8,0,0,1,.76.58,2.88,2.88,0,0,1,.49,1,5.3,5.3,0,0,1,.17,1.47v.23h-4v.4a1.93,1.93,0,0,0,.42,1.36,1.45,1.45,0,0,0,1.14.45,1.76,1.76,0,0,0,1-.27,1.81,1.81,0,0,0,.63-.81l.62.46a2.5,2.5,0,0,1-.85,1A2.41,2.41,0,0,1,536.61,426.14Zm0-5.71a1.46,1.46,0,0,0-1.15.47,2,2,0,0,0-.41,1.38v.16h3v-.16C538.05,421.05,537.57,420.43,536.61,420.43Z" fill="#6f6f6f"/>
                <path d="M544.7,426.14a2.57,2.57,0,0,1-1.31-.31,2.73,2.73,0,0,1-.93-.86l.63-.53a2.73,2.73,0,0,0,.7.7,1.67,1.67,0,0,0,.91.24,1.28,1.28,0,0,0,.86-.27,1,1,0,0,0,.32-.78,1,1,0,0,0-.21-.66,1.22,1.22,0,0,0-.75-.35l-.47-.08a2.74,2.74,0,0,1-1.34-.56,1.56,1.56,0,0,1-.44-1.2,2,2,0,0,1,.15-.81,1.47,1.47,0,0,1,.4-.57,1.71,1.71,0,0,1,.63-.32,2.92,2.92,0,0,1,.8-.1,2.57,2.57,0,0,1,1.17.24,2.34,2.34,0,0,1,.82.72l-.58.54a1.88,1.88,0,0,0-.54-.51,1.56,1.56,0,0,0-.87-.23c-.73,0-1.09.34-1.09,1a.89.89,0,0,0,.23.67,1.54,1.54,0,0,0,.77.3l.46.09a2.39,2.39,0,0,1,1.35.58,1.61,1.61,0,0,1,.39,1.14,1.87,1.87,0,0,1-.52,1.41A2.12,2.12,0,0,1,544.7,426.14Z" fill="#6f6f6f"/>
                <path d="M548.71,418.31c-.38,0-.57-.17-.57-.49v-.2c0-.32.19-.49.57-.49s.56.17.56.49v.2C549.27,418.14,549.08,418.31,548.71,418.31Zm-.46,1.5h.91V426h-.91Z" fill="#6f6f6f"/>
                <path d="M550.44,426v-.7l3.15-4.69h-3.06v-.8h4.14v.69l-3.15,4.7h3.25v.8Z" fill="#6f6f6f"/>
                <path d="M558.07,426.14a2.79,2.79,0,0,1-1-.18,2.07,2.07,0,0,1-.81-.57,2.83,2.83,0,0,1-.52-1,5.82,5.82,0,0,1,0-2.95,2.75,2.75,0,0,1,.52-1,2.09,2.09,0,0,1,.81-.58,2.79,2.79,0,0,1,1-.18,2.64,2.64,0,0,1,1,.18,1.87,1.87,0,0,1,.76.58,2.71,2.71,0,0,1,.48,1,5.27,5.27,0,0,1,.18,1.47v.23h-4v.4a1.93,1.93,0,0,0,.41,1.36,1.49,1.49,0,0,0,1.15.45,1.6,1.6,0,0,0,1.64-1.08l.62.46a2.56,2.56,0,0,1-.84,1A2.43,2.43,0,0,1,558.07,426.14Zm0-5.71a1.44,1.44,0,0,0-1.15.47,2,2,0,0,0-.41,1.38v.16h3v-.16C559.51,421.05,559,420.43,558.07,420.43Z" fill="#6f6f6f"/>
              </g>
            </g>
          </g>
        </g>
      </g>
    </g>
  </g>
</svg>
