<svg xmlns="http://www.w3.org/2000/svg" viewBox="0 0 608 342"><defs><style>.a{fill:#fff;}.b{isolation:isolate;}.c{fill:#6f6f6f;}.d{fill:#e0e0e0;}.e{fill:#171717;}.f{fill:#8c8c8c;}.g{fill:#001d6c;}.h{fill:#002d9c;}.i{fill:#0043ce;}.j{fill:#0f62fe;}.k{fill:#4589ff;}.l{fill:#001141;}</style></defs><rect class="a" width="608" height="342"/><ellipse class="a" cx="263.78" cy="129.13" rx="32.18" ry="32.75"/><ellipse class="a" cx="320.76" cy="236.66" rx="11.33" ry="11.53"/><ellipse class="a" cx="281.78" cy="244.93" rx="9.44" ry="9.61"/><ellipse class="a" cx="306.37" cy="276.84" rx="15.76" ry="16.04"/><ellipse class="a" cx="332.73" cy="204.55" rx="13.4" ry="13.64"/><ellipse class="a" cx="255.1" cy="202.31" rx="17.43" ry="17.74"/><ellipse class="a" cx="226.6" cy="232.9" rx="5.2" ry="5.29"/><ellipse class="a" cx="331.63" cy="75.2" rx="28.88" ry="29.4"/><ellipse class="a" cx="386.97" cy="167.68" rx="14.54" ry="14.8"/><g class="b"><g class="b"><path class="c" d="M115.32,205v-.88h2.4v-6.75h-.08l-2.12,2-.58-.64,2.22-2.08h1.57v7.5h2.21V205Z"/><path class="c" d="M125.1,205.14a2.74,2.74,0,0,1-1.32-.29,2.47,2.47,0,0,1-.91-.85,3.85,3.85,0,0,1-.53-1.35,10,10,0,0,1,0-3.67,3.91,3.91,0,0,1,.53-1.36,2.47,2.47,0,0,1,.91-.85,3.15,3.15,0,0,1,2.64,0,2.47,2.47,0,0,1,.91.85,3.91,3.91,0,0,1,.53,1.36,10,10,0,0,1,0,3.67,3.85,3.85,0,0,1-.53,1.35,2.47,2.47,0,0,1-.91.85A2.74,2.74,0,0,1,125.1,205.14Zm0-.87a1.76,1.76,0,0,0,.86-.2,1.58,1.58,0,0,0,.59-.56,3.16,3.16,0,0,0,.33-.87,5.69,5.69,0,0,0,.1-1.14v-1.37a5.69,5.69,0,0,0-.1-1.14,3.11,3.11,0,0,0-.33-.88,1.67,1.67,0,0,0-.59-.56,2,2,0,0,0-1.72,0,1.67,1.67,0,0,0-.59.56,3.11,3.11,0,0,0-.33.88,5.69,5.69,0,0,0-.1,1.14v1.37a5.69,5.69,0,0,0,.1,1.14,3.16,3.16,0,0,0,.33.87,1.58,1.58,0,0,0,.59.56A1.76,1.76,0,0,0,125.1,204.27Zm0-2.75a.8.8,0,0,1-.58-.17.56.56,0,0,1-.16-.41v-.26a.56.56,0,0,1,.16-.41,1.07,1.07,0,0,1,1.16,0,.56.56,0,0,1,.16.41v.26a.56.56,0,0,1-.16.41A.8.8,0,0,1,125.1,201.52Z"/><path class="c" d="M131.78,203.37h1.55L132,206.69h-.8Z"/><path class="c" d="M139.5,205.14a2.74,2.74,0,0,1-1.32-.29,2.47,2.47,0,0,1-.91-.85,3.85,3.85,0,0,1-.53-1.35,10,10,0,0,1,0-3.67,3.91,3.91,0,0,1,.53-1.36,2.47,2.47,0,0,1,.91-.85,3.15,3.15,0,0,1,2.64,0,2.47,2.47,0,0,1,.91.85,3.91,3.91,0,0,1,.53,1.36,10,10,0,0,1,0,3.67,3.85,3.85,0,0,1-.53,1.35,2.47,2.47,0,0,1-.91.85A2.74,2.74,0,0,1,139.5,205.14Zm0-.87a1.76,1.76,0,0,0,.86-.2,1.58,1.58,0,0,0,.59-.56,3.16,3.16,0,0,0,.33-.87,5.69,5.69,0,0,0,.1-1.14v-1.37a5.69,5.69,0,0,0-.1-1.14,3.11,3.11,0,0,0-.33-.88,1.67,1.67,0,0,0-.59-.56,2,2,0,0,0-1.72,0,1.67,1.67,0,0,0-.59.56,3.11,3.11,0,0,0-.33.88,5.69,5.69,0,0,0-.1,1.14v1.37a5.69,5.69,0,0,0,.1,1.14,3.16,3.16,0,0,0,.33.87,1.58,1.58,0,0,0,.59.56A1.76,1.76,0,0,0,139.5,204.27Zm0-2.75a.8.8,0,0,1-.58-.17.56.56,0,0,1-.16-.41v-.26a.56.56,0,0,1,.16-.41,1.07,1.07,0,0,1,1.16,0,.56.56,0,0,1,.16.41v.26a.56.56,0,0,1-.16.41A.8.8,0,0,1,139.5,201.52Z"/><path class="c" d="M146.7,205.14a2.74,2.74,0,0,1-1.32-.29,2.47,2.47,0,0,1-.91-.85,3.85,3.85,0,0,1-.53-1.35,10,10,0,0,1,0-3.67,3.91,3.91,0,0,1,.53-1.36,2.47,2.47,0,0,1,.91-.85,3.15,3.15,0,0,1,2.64,0,2.47,2.47,0,0,1,.91.85,3.91,3.91,0,0,1,.53,1.36,10,10,0,0,1,0,3.67,3.85,3.85,0,0,1-.53,1.35,2.47,2.47,0,0,1-.91.85A2.74,2.74,0,0,1,146.7,205.14Zm0-.87a1.76,1.76,0,0,0,.86-.2,1.58,1.58,0,0,0,.59-.56,3.16,3.16,0,0,0,.33-.87,5.69,5.69,0,0,0,.1-1.14v-1.37a5.69,5.69,0,0,0-.1-1.14,3.11,3.11,0,0,0-.33-.88,1.67,1.67,0,0,0-.59-.56,2,2,0,0,0-1.72,0,1.67,1.67,0,0,0-.59.56,3.11,3.11,0,0,0-.33.88,5.69,5.69,0,0,0-.1,1.14v1.37a5.69,5.69,0,0,0,.1,1.14,3.16,3.16,0,0,0,.33.87,1.58,1.58,0,0,0,.59.56A1.76,1.76,0,0,0,146.7,204.27Zm0-2.75a.8.8,0,0,1-.58-.17.56.56,0,0,1-.16-.41v-.26a.56.56,0,0,1,.16-.41,1.07,1.07,0,0,1,1.16,0,.56.56,0,0,1,.16.41v.26a.56.56,0,0,1-.16.41A.8.8,0,0,1,146.7,201.52Z"/><path class="c" d="M153.9,205.14a2.74,2.74,0,0,1-1.32-.29,2.47,2.47,0,0,1-.91-.85,3.85,3.85,0,0,1-.53-1.35,10,10,0,0,1,0-3.67,3.91,3.91,0,0,1,.53-1.36,2.47,2.47,0,0,1,.91-.85,3.15,3.15,0,0,1,2.64,0,2.47,2.47,0,0,1,.91.85,3.91,3.91,0,0,1,.53,1.36,10,10,0,0,1,0,3.67,3.85,3.85,0,0,1-.53,1.35,2.47,2.47,0,0,1-.91.85A2.74,2.74,0,0,1,153.9,205.14Zm0-.87a1.76,1.76,0,0,0,.86-.2,1.58,1.58,0,0,0,.59-.56,3.16,3.16,0,0,0,.33-.87,5.69,5.69,0,0,0,.1-1.14v-1.37a5.69,5.69,0,0,0-.1-1.14,3.11,3.11,0,0,0-.33-.88,1.67,1.67,0,0,0-.59-.56,2,2,0,0,0-1.72,0,1.67,1.67,0,0,0-.59.56,3.11,3.11,0,0,0-.33.88,5.69,5.69,0,0,0-.1,1.14v1.37a5.69,5.69,0,0,0,.1,1.14,3.16,3.16,0,0,0,.33.87,1.58,1.58,0,0,0,.59.56A1.76,1.76,0,0,0,153.9,204.27Zm0-2.75a.8.8,0,0,1-.58-.17.56.56,0,0,1-.16-.41v-.26a.56.56,0,0,1,.16-.41,1.07,1.07,0,0,1,1.16,0,.56.56,0,0,1,.16.41v.26a.56.56,0,0,1-.16.41A.8.8,0,0,1,153.9,201.52Z"/></g></g><g class="b"><g class="b"><path class="c" d="M153.9,237.14a2.74,2.74,0,0,1-1.32-.29,2.47,2.47,0,0,1-.91-.85,3.85,3.85,0,0,1-.53-1.35,10,10,0,0,1,0-3.67,3.91,3.91,0,0,1,.53-1.36,2.47,2.47,0,0,1,.91-.85,3.15,3.15,0,0,1,2.64,0,2.47,2.47,0,0,1,.91.85,3.91,3.91,0,0,1,.53,1.36,10,10,0,0,1,0,3.67,3.85,3.85,0,0,1-.53,1.35,2.47,2.47,0,0,1-.91.85A2.74,2.74,0,0,1,153.9,237.14Zm0-.87a1.76,1.76,0,0,0,.86-.2,1.58,1.58,0,0,0,.59-.56,3.16,3.16,0,0,0,.33-.87,5.69,5.69,0,0,0,.1-1.14v-1.37a5.69,5.69,0,0,0-.1-1.14,3.11,3.11,0,0,0-.33-.88,1.67,1.67,0,0,0-.59-.56,2,2,0,0,0-1.72,0,1.67,1.67,0,0,0-.59.56,3.11,3.11,0,0,0-.33.88,5.69,5.69,0,0,0-.1,1.14v1.37a5.69,5.69,0,0,0,.1,1.14,3.16,3.16,0,0,0,.33.87,1.58,1.58,0,0,0,.59.56A1.76,1.76,0,0,0,153.9,236.27Zm0-2.75a.8.8,0,0,1-.58-.17.56.56,0,0,1-.16-.41v-.26a.56.56,0,0,1,.16-.41,1.07,1.07,0,0,1,1.16,0,.56.56,0,0,1,.16.41v.26a.56.56,0,0,1-.16.41A.8.8,0,0,1,153.9,233.52Z"/></g></g><rect class="d" x="165.5" y="106" width="351" height="1"/><g class="b"><g class="b"><path class="c" d="M120.74,161h-5.59v-1l2.8-2.52a6.56,6.56,0,0,0,1-1.14,2.14,2.14,0,0,0,.39-1.23v-.14a1.65,1.65,0,0,0-.39-1.17,1.56,1.56,0,0,0-1.18-.41,1.65,1.65,0,0,0-1.18.39,2.35,2.35,0,0,0-.62,1l-.9-.33a3.65,3.65,0,0,1,.33-.73,2.86,2.86,0,0,1,.53-.63,2.61,2.61,0,0,1,.79-.44,3.2,3.2,0,0,1,1.07-.17,3.15,3.15,0,0,1,1.11.18,2.31,2.31,0,0,1,.82.5,2.18,2.18,0,0,1,.5.77,2.58,2.58,0,0,1,.18,1,2.93,2.93,0,0,1-.14.9,3.73,3.73,0,0,1-.38.81,6.44,6.44,0,0,1-.59.75c-.23.24-.48.48-.76.72l-2.34,2h4.54Z"/><path class="c" d="M125.1,161.14a2.74,2.74,0,0,1-1.32-.29,2.47,2.47,0,0,1-.91-.85,3.85,3.85,0,0,1-.53-1.35,10,10,0,0,1,0-3.67,3.91,3.91,0,0,1,.53-1.36,2.47,2.47,0,0,1,.91-.85,3.15,3.15,0,0,1,2.64,0,2.47,2.47,0,0,1,.91.85,3.91,3.91,0,0,1,.53,1.36,10,10,0,0,1,0,3.67,3.85,3.85,0,0,1-.53,1.35,2.47,2.47,0,0,1-.91.85A2.74,2.74,0,0,1,125.1,161.14Zm0-.87a1.76,1.76,0,0,0,.86-.2,1.58,1.58,0,0,0,.59-.56,3.16,3.16,0,0,0,.33-.87,5.69,5.69,0,0,0,.1-1.14v-1.37a5.69,5.69,0,0,0-.1-1.14,3.11,3.11,0,0,0-.33-.88,1.67,1.67,0,0,0-.59-.56,2,2,0,0,0-1.72,0,1.67,1.67,0,0,0-.59.56,3.11,3.11,0,0,0-.33.88,5.69,5.69,0,0,0-.1,1.14v1.37a5.69,5.69,0,0,0,.1,1.14,3.16,3.16,0,0,0,.33.87,1.58,1.58,0,0,0,.59.56A1.76,1.76,0,0,0,125.1,160.27Zm0-2.75a.8.8,0,0,1-.58-.17.56.56,0,0,1-.16-.41v-.26a.56.56,0,0,1,.16-.41,1.07,1.07,0,0,1,1.16,0,.56.56,0,0,1,.16.41v.26a.56.56,0,0,1-.16.41A.8.8,0,0,1,125.1,157.52Z"/><path class="c" d="M131.78,159.37h1.55L132,162.69h-.8Z"/><path class="c" d="M139.5,161.14a2.74,2.74,0,0,1-1.32-.29,2.47,2.47,0,0,1-.91-.85,3.85,3.85,0,0,1-.53-1.35,10,10,0,0,1,0-3.67,3.91,3.91,0,0,1,.53-1.36,2.47,2.47,0,0,1,.91-.85,3.15,3.15,0,0,1,2.64,0,2.47,2.47,0,0,1,.91.85,3.91,3.91,0,0,1,.53,1.36,10,10,0,0,1,0,3.67,3.85,3.85,0,0,1-.53,1.35,2.47,2.47,0,0,1-.91.85A2.74,2.74,0,0,1,139.5,161.14Zm0-.87a1.76,1.76,0,0,0,.86-.2,1.58,1.58,0,0,0,.59-.56,3.16,3.16,0,0,0,.33-.87,5.69,5.69,0,0,0,.1-1.14v-1.37a5.69,5.69,0,0,0-.1-1.14,3.11,3.11,0,0,0-.33-.88,1.67,1.67,0,0,0-.59-.56,2,2,0,0,0-1.72,0,1.67,1.67,0,0,0-.59.56,3.11,3.11,0,0,0-.33.88,5.69,5.69,0,0,0-.1,1.14v1.37a5.69,5.69,0,0,0,.1,1.14,3.16,3.16,0,0,0,.33.87,1.58,1.58,0,0,0,.59.56A1.76,1.76,0,0,0,139.5,160.27Zm0-2.75a.8.8,0,0,1-.58-.17.56.56,0,0,1-.16-.41v-.26a.56.56,0,0,1,.16-.41,1.07,1.07,0,0,1,1.16,0,.56.56,0,0,1,.16.41v.26a.56.56,0,0,1-.16.41A.8.8,0,0,1,139.5,157.52Z"/><path class="c" d="M146.7,161.14a2.74,2.74,0,0,1-1.32-.29,2.47,2.47,0,0,1-.91-.85,3.85,3.85,0,0,1-.53-1.35,10,10,0,0,1,0-3.67,3.91,3.91,0,0,1,.53-1.36,2.47,2.47,0,0,1,.91-.85,3.15,3.15,0,0,1,2.64,0,2.47,2.47,0,0,1,.91.85,3.91,3.91,0,0,1,.53,1.36,10,10,0,0,1,0,3.67,3.85,3.85,0,0,1-.53,1.35,2.47,2.47,0,0,1-.91.85A2.74,2.74,0,0,1,146.7,161.14Zm0-.87a1.76,1.76,0,0,0,.86-.2,1.58,1.58,0,0,0,.59-.56,3.16,3.16,0,0,0,.33-.87,5.69,5.69,0,0,0,.1-1.14v-1.37a5.69,5.69,0,0,0-.1-1.14,3.11,3.11,0,0,0-.33-.88,1.67,1.67,0,0,0-.59-.56,2,2,0,0,0-1.72,0,1.67,1.67,0,0,0-.59.56,3.11,3.11,0,0,0-.33.88,5.69,5.69,0,0,0-.1,1.14v1.37a5.69,5.69,0,0,0,.1,1.14,3.16,3.16,0,0,0,.33.87,1.58,1.58,0,0,0,.59.56A1.76,1.76,0,0,0,146.7,160.27Zm0-2.75a.8.8,0,0,1-.58-.17.56.56,0,0,1-.16-.41v-.26a.56.56,0,0,1,.16-.41,1.07,1.07,0,0,1,1.16,0,.56.56,0,0,1,.16.41v.26a.56.56,0,0,1-.16.41A.8.8,0,0,1,146.7,157.52Z"/><path class="c" d="M153.9,161.14a2.74,2.74,0,0,1-1.32-.29,2.47,2.47,0,0,1-.91-.85,3.85,3.85,0,0,1-.53-1.35,10,10,0,0,1,0-3.67,3.91,3.91,0,0,1,.53-1.36,2.47,2.47,0,0,1,.91-.85,3.15,3.15,0,0,1,2.64,0,2.47,2.47,0,0,1,.91.85,3.91,3.91,0,0,1,.53,1.36,10,10,0,0,1,0,3.67,3.85,3.85,0,0,1-.53,1.35,2.47,2.47,0,0,1-.91.85A2.74,2.74,0,0,1,153.9,161.14Zm0-.87a1.76,1.76,0,0,0,.86-.2,1.58,1.58,0,0,0,.59-.56,3.16,3.16,0,0,0,.33-.87,5.69,5.69,0,0,0,.1-1.14v-1.37a5.69,5.69,0,0,0-.1-1.14,3.11,3.11,0,0,0-.33-.88,1.67,1.67,0,0,0-.59-.56,2,2,0,0,0-1.72,0,1.67,1.67,0,0,0-.59.56,3.11,3.11,0,0,0-.33.88,5.69,5.69,0,0,0-.1,1.14v1.37a5.69,5.69,0,0,0,.1,1.14,3.16,3.16,0,0,0,.33.87,1.58,1.58,0,0,0,.59.56A1.76,1.76,0,0,0,153.9,160.27Zm0-2.75a.8.8,0,0,1-.58-.17.56.56,0,0,1-.16-.41v-.26a.56.56,0,0,1,.16-.41,1.07,1.07,0,0,1,1.16,0,.56.56,0,0,1,.16.41v.26a.56.56,0,0,1-.16.41A.8.8,0,0,1,153.9,157.52Z"/></g></g><rect class="d" x="165.5" y="193" width="351" height="1"/><rect class="d" x="516.5" y="63" width="1" height="174"/><rect class="d" x="165.5" y="149" width="351" height="1"/><rect class="d" x="165.5" y="63" width="351" height="1"/><g class="b"><g class="b"><path class="c" d="M117.54,114.16a2,2,0,0,0,1.31-.38,1.26,1.26,0,0,0,.44-1v-.09a1.2,1.2,0,0,0-.42-1,1.79,1.79,0,0,0-1.11-.33,1.82,1.82,0,0,0-1.09.29,2.31,2.31,0,0,0-.68.77l-.75-.57a2.69,2.69,0,0,1,1.62-1.25,3.26,3.26,0,0,1,.92-.12,3.62,3.62,0,0,1,1,.14,2.38,2.38,0,0,1,.81.41,1.84,1.84,0,0,1,.55.66,2,2,0,0,1,.2.9,1.9,1.9,0,0,1-.13.73,1.61,1.61,0,0,1-.35.56,1.93,1.93,0,0,1-.52.41,2.44,2.44,0,0,1-.63.25v0a3.32,3.32,0,0,1,.67.23,2.16,2.16,0,0,1,.57.42,2,2,0,0,1,.41.63,2.16,2.16,0,0,1,.15.83,2.33,2.33,0,0,1-.21,1,2.2,2.2,0,0,1-.59.76,2.67,2.67,0,0,1-.91.5,3.72,3.72,0,0,1-1.19.18,3.58,3.58,0,0,1-1-.12,2.76,2.76,0,0,1-.76-.32,3.36,3.36,0,0,1-.58-.46,3.49,3.49,0,0,1-.43-.52l.75-.58a4.27,4.27,0,0,0,.35.46,2.3,2.3,0,0,0,.41.35,1.87,1.87,0,0,0,.54.23,2.4,2.4,0,0,0,.69.09,2.06,2.06,0,0,0,1.37-.41,1.46,1.46,0,0,0,.47-1.16v-.1a1.44,1.44,0,0,0-.46-1.15,2.06,2.06,0,0,0-1.39-.41h-1v-.88Z"/><path class="c" d="M125.1,119.14a2.74,2.74,0,0,1-1.32-.29,2.47,2.47,0,0,1-.91-.85,3.85,3.85,0,0,1-.53-1.35,10,10,0,0,1,0-3.67,3.91,3.91,0,0,1,.53-1.36,2.47,2.47,0,0,1,.91-.85,3.15,3.15,0,0,1,2.64,0,2.47,2.47,0,0,1,.91.85,3.91,3.91,0,0,1,.53,1.36,10,10,0,0,1,0,3.67,3.85,3.85,0,0,1-.53,1.35,2.47,2.47,0,0,1-.91.85A2.74,2.74,0,0,1,125.1,119.14Zm0-.87a1.76,1.76,0,0,0,.86-.2,1.58,1.58,0,0,0,.59-.56,3.16,3.16,0,0,0,.33-.87,5.69,5.69,0,0,0,.1-1.14v-1.37a5.69,5.69,0,0,0-.1-1.14,3.11,3.11,0,0,0-.33-.88,1.67,1.67,0,0,0-.59-.56,2,2,0,0,0-1.72,0,1.67,1.67,0,0,0-.59.56,3.11,3.11,0,0,0-.33.88,5.69,5.69,0,0,0-.1,1.14v1.37a5.69,5.69,0,0,0,.1,1.14,3.16,3.16,0,0,0,.33.87,1.58,1.58,0,0,0,.59.56A1.76,1.76,0,0,0,125.1,118.27Zm0-2.75a.8.8,0,0,1-.58-.17.56.56,0,0,1-.16-.41v-.26a.56.56,0,0,1,.16-.41,1.07,1.07,0,0,1,1.16,0,.56.56,0,0,1,.16.41v.26a.56.56,0,0,1-.16.41A.8.8,0,0,1,125.1,115.52Z"/><path class="c" d="M131.78,117.37h1.55L132,120.69h-.8Z"/><path class="c" d="M139.5,119.14a2.74,2.74,0,0,1-1.32-.29,2.47,2.47,0,0,1-.91-.85,3.85,3.85,0,0,1-.53-1.35,10,10,0,0,1,0-3.67,3.91,3.91,0,0,1,.53-1.36,2.47,2.47,0,0,1,.91-.85,3.15,3.15,0,0,1,2.64,0,2.47,2.47,0,0,1,.91.85,3.91,3.91,0,0,1,.53,1.36,10,10,0,0,1,0,3.67,3.85,3.85,0,0,1-.53,1.35,2.47,2.47,0,0,1-.91.85A2.74,2.74,0,0,1,139.5,119.14Zm0-.87a1.76,1.76,0,0,0,.86-.2,1.58,1.58,0,0,0,.59-.56,3.16,3.16,0,0,0,.33-.87,5.69,5.69,0,0,0,.1-1.14v-1.37a5.69,5.69,0,0,0-.1-1.14,3.11,3.11,0,0,0-.33-.88,1.67,1.67,0,0,0-.59-.56,2,2,0,0,0-1.72,0,1.67,1.67,0,0,0-.59.56,3.11,3.11,0,0,0-.33.88,5.69,5.69,0,0,0-.1,1.14v1.37a5.69,5.69,0,0,0,.1,1.14,3.16,3.16,0,0,0,.33.87,1.58,1.58,0,0,0,.59.56A1.76,1.76,0,0,0,139.5,118.27Zm0-2.75a.8.8,0,0,1-.58-.17.56.56,0,0,1-.16-.41v-.26a.56.56,0,0,1,.16-.41,1.07,1.07,0,0,1,1.16,0,.56.56,0,0,1,.16.41v.26a.56.56,0,0,1-.16.41A.8.8,0,0,1,139.5,115.52Z"/><path class="c" d="M146.7,119.14a2.74,2.74,0,0,1-1.32-.29,2.47,2.47,0,0,1-.91-.85,3.85,3.85,0,0,1-.53-1.35,10,10,0,0,1,0-3.67,3.91,3.91,0,0,1,.53-1.36,2.47,2.47,0,0,1,.91-.85,3.15,3.15,0,0,1,2.64,0,2.47,2.47,0,0,1,.91.85,3.91,3.91,0,0,1,.53,1.36,10,10,0,0,1,0,3.67,3.85,3.85,0,0,1-.53,1.35,2.47,2.47,0,0,1-.91.85A2.74,2.74,0,0,1,146.7,119.14Zm0-.87a1.76,1.76,0,0,0,.86-.2,1.58,1.58,0,0,0,.59-.56,3.16,3.16,0,0,0,.33-.87,5.69,5.69,0,0,0,.1-1.14v-1.37a5.69,5.69,0,0,0-.1-1.14,3.11,3.11,0,0,0-.33-.88,1.67,1.67,0,0,0-.59-.56,2,2,0,0,0-1.72,0,1.67,1.67,0,0,0-.59.56,3.11,3.11,0,0,0-.33.88,5.69,5.69,0,0,0-.1,1.14v1.37a5.69,5.69,0,0,0,.1,1.14,3.16,3.16,0,0,0,.33.87,1.58,1.58,0,0,0,.59.56A1.76,1.76,0,0,0,146.7,118.27Zm0-2.75a.8.8,0,0,1-.58-.17.56.56,0,0,1-.16-.41v-.26a.56.56,0,0,1,.16-.41,1.07,1.07,0,0,1,1.16,0,.56.56,0,0,1,.16.41v.26a.56.56,0,0,1-.16.41A.8.8,0,0,1,146.7,115.52Z"/><path class="c" d="M153.9,119.14a2.74,2.74,0,0,1-1.32-.29,2.47,2.47,0,0,1-.91-.85,3.85,3.85,0,0,1-.53-1.35,10,10,0,0,1,0-3.67,3.91,3.91,0,0,1,.53-1.36,2.47,2.47,0,0,1,.91-.85,3.15,3.15,0,0,1,2.64,0,2.47,2.47,0,0,1,.91.85,3.91,3.91,0,0,1,.53,1.36,10,10,0,0,1,0,3.67,3.85,3.85,0,0,1-.53,1.35,2.47,2.47,0,0,1-.91.85A2.74,2.74,0,0,1,153.9,119.14Zm0-.87a1.76,1.76,0,0,0,.86-.2,1.58,1.58,0,0,0,.59-.56,3.16,3.16,0,0,0,.33-.87,5.69,5.69,0,0,0,.1-1.14v-1.37a5.69,5.69,0,0,0-.1-1.14,3.11,3.11,0,0,0-.33-.88,1.67,1.67,0,0,0-.59-.56,2,2,0,0,0-1.72,0,1.67,1.67,0,0,0-.59.56,3.11,3.11,0,0,0-.33.88,5.69,5.69,0,0,0-.1,1.14v1.37a5.69,5.69,0,0,0,.1,1.14,3.16,3.16,0,0,0,.33.87,1.58,1.58,0,0,0,.59.56A1.76,1.76,0,0,0,153.9,118.27Zm0-2.75a.8.8,0,0,1-.58-.17.56.56,0,0,1-.16-.41v-.26a.56.56,0,0,1,.16-.41,1.07,1.07,0,0,1,1.16,0,.56.56,0,0,1,.16.41v.26a.56.56,0,0,1-.16.41A.8.8,0,0,1,153.9,115.52Z"/></g></g><g class="b"><g class="b"><path class="c" d="M118.84,74V72.36h-4.13v-.89l3.62-5.85h1.47v5.91H121v.83H119.8V74Zm-3.23-2.47h3.23V66.4h0Z"/><path class="c" d="M125.1,74.14a2.74,2.74,0,0,1-1.32-.29,2.47,2.47,0,0,1-.91-.85,3.85,3.85,0,0,1-.53-1.35,10,10,0,0,1,0-3.67,3.91,3.91,0,0,1,.53-1.36,2.47,2.47,0,0,1,.91-.85,3.15,3.15,0,0,1,2.64,0,2.47,2.47,0,0,1,.91.85,3.91,3.91,0,0,1,.53,1.36,10,10,0,0,1,0,3.67,3.85,3.85,0,0,1-.53,1.35,2.47,2.47,0,0,1-.91.85A2.74,2.74,0,0,1,125.1,74.14Zm0-.87a1.76,1.76,0,0,0,.86-.2,1.58,1.58,0,0,0,.59-.56,3.16,3.16,0,0,0,.33-.87,5.69,5.69,0,0,0,.1-1.14V69.13a5.69,5.69,0,0,0-.1-1.14,3.11,3.11,0,0,0-.33-.88,1.67,1.67,0,0,0-.59-.56,2,2,0,0,0-1.72,0,1.67,1.67,0,0,0-.59.56,3.11,3.11,0,0,0-.33.88,5.69,5.69,0,0,0-.1,1.14V70.5a5.69,5.69,0,0,0,.1,1.14,3.16,3.16,0,0,0,.33.87,1.58,1.58,0,0,0,.59.56A1.76,1.76,0,0,0,125.1,73.27Zm0-2.75a.8.8,0,0,1-.58-.17.56.56,0,0,1-.16-.41v-.26a.56.56,0,0,1,.16-.41,1.07,1.07,0,0,1,1.16,0,.56.56,0,0,1,.16.41v.26a.56.56,0,0,1-.16.41A.8.8,0,0,1,125.1,70.52Z"/><path class="c" d="M131.78,72.37h1.55L132,75.69h-.8Z"/><path class="c" d="M139.5,74.14a2.74,2.74,0,0,1-1.32-.29,2.47,2.47,0,0,1-.91-.85,3.85,3.85,0,0,1-.53-1.35,10,10,0,0,1,0-3.67,3.91,3.91,0,0,1,.53-1.36,2.47,2.47,0,0,1,.91-.85,3.15,3.15,0,0,1,2.64,0,2.47,2.47,0,0,1,.91.85,3.91,3.91,0,0,1,.53,1.36,10,10,0,0,1,0,3.67,3.85,3.85,0,0,1-.53,1.35,2.47,2.47,0,0,1-.91.85A2.74,2.74,0,0,1,139.5,74.14Zm0-.87a1.76,1.76,0,0,0,.86-.2,1.58,1.58,0,0,0,.59-.56,3.16,3.16,0,0,0,.33-.87,5.69,5.69,0,0,0,.1-1.14V69.13a5.69,5.69,0,0,0-.1-1.14,3.11,3.11,0,0,0-.33-.88,1.67,1.67,0,0,0-.59-.56,2,2,0,0,0-1.72,0,1.67,1.67,0,0,0-.59.56,3.11,3.11,0,0,0-.33.88,5.69,5.69,0,0,0-.1,1.14V70.5a5.69,5.69,0,0,0,.1,1.14,3.16,3.16,0,0,0,.33.87,1.58,1.58,0,0,0,.59.56A1.76,1.76,0,0,0,139.5,73.27Zm0-2.75a.8.8,0,0,1-.58-.17.56.56,0,0,1-.16-.41v-.26a.56.56,0,0,1,.16-.41,1.07,1.07,0,0,1,1.16,0,.56.56,0,0,1,.16.41v.26a.56.56,0,0,1-.16.41A.8.8,0,0,1,139.5,70.52Z"/><path class="c" d="M146.7,74.14a2.74,2.74,0,0,1-1.32-.29,2.47,2.47,0,0,1-.91-.85,3.85,3.85,0,0,1-.53-1.35,10,10,0,0,1,0-3.67,3.91,3.91,0,0,1,.53-1.36,2.47,2.47,0,0,1,.91-.85,3.15,3.15,0,0,1,2.64,0,2.47,2.47,0,0,1,.91.85,3.91,3.91,0,0,1,.53,1.36,10,10,0,0,1,0,3.67,3.85,3.85,0,0,1-.53,1.35,2.47,2.47,0,0,1-.91.85A2.74,2.74,0,0,1,146.7,74.14Zm0-.87a1.76,1.76,0,0,0,.86-.2,1.58,1.58,0,0,0,.59-.56,3.16,3.16,0,0,0,.33-.87,5.69,5.69,0,0,0,.1-1.14V69.13a5.69,5.69,0,0,0-.1-1.14,3.11,3.11,0,0,0-.33-.88,1.67,1.67,0,0,0-.59-.56,2,2,0,0,0-1.72,0,1.67,1.67,0,0,0-.59.56,3.11,3.11,0,0,0-.33.88,5.69,5.69,0,0,0-.1,1.14V70.5a5.69,5.69,0,0,0,.1,1.14,3.16,3.16,0,0,0,.33.87,1.58,1.58,0,0,0,.59.56A1.76,1.76,0,0,0,146.7,73.27Zm0-2.75a.8.8,0,0,1-.58-.17.56.56,0,0,1-.16-.41v-.26a.56.56,0,0,1,.16-.41,1.07,1.07,0,0,1,1.16,0,.56.56,0,0,1,.16.41v.26a.56.56,0,0,1-.16.41A.8.8,0,0,1,146.7,70.52Z"/><path class="c" d="M153.9,74.14a2.74,2.74,0,0,1-1.32-.29,2.47,2.47,0,0,1-.91-.85,3.85,3.85,0,0,1-.53-1.35,10,10,0,0,1,0-3.67,3.91,3.91,0,0,1,.53-1.36,2.47,2.47,0,0,1,.91-.85,3.15,3.15,0,0,1,2.64,0,2.47,2.47,0,0,1,.91.85,3.91,3.91,0,0,1,.53,1.36,10,10,0,0,1,0,3.67,3.85,3.85,0,0,1-.53,1.35,2.47,2.47,0,0,1-.91.85A2.74,2.74,0,0,1,153.9,74.14Zm0-.87a1.76,1.76,0,0,0,.86-.2,1.58,1.58,0,0,0,.59-.56,3.16,3.16,0,0,0,.33-.87,5.69,5.69,0,0,0,.1-1.14V69.13a5.69,5.69,0,0,0-.1-1.14,3.11,3.11,0,0,0-.33-.88,1.67,1.67,0,0,0-.59-.56,2,2,0,0,0-1.72,0,1.67,1.67,0,0,0-.59.56,3.11,3.11,0,0,0-.33.88,5.69,5.69,0,0,0-.1,1.14V70.5a5.69,5.69,0,0,0,.1,1.14,3.16,3.16,0,0,0,.33.87,1.58,1.58,0,0,0,.59.56A1.76,1.76,0,0,0,153.9,73.27Zm0-2.75a.8.8,0,0,1-.58-.17.56.56,0,0,1-.16-.41v-.26a.56.56,0,0,1,.16-.41,1.07,1.07,0,0,1,1.16,0,.56.56,0,0,1,.16.41v.26a.56.56,0,0,1-.16.41A.8.8,0,0,1,153.9,70.52Z"/></g></g><g class="b"><g class="b"><path class="e" d="M101.5,166.64l-8.38,2.79v-1.08L97.35,167l3.14-.93V166L97.35,165l-4.23-1.39v-1l8.38,2.82Z"/><path class="e" d="M93.86,160.86a.58.58,0,0,1-.15.45.56.56,0,0,1-.39.14h-.16a.56.56,0,0,1-.39-.14.75.75,0,0,1,0-.9.56.56,0,0,1,.39-.14h.16a.56.56,0,0,1,.39.14A.58.58,0,0,1,93.86,160.86Zm1.45.48v-1h6.19v1Z"/><path class="e" d="M101.64,156.48a2.87,2.87,0,0,1-.33,1.44,3.26,3.26,0,0,1-.88,1l-.55-.69a2.75,2.75,0,0,0,.7-.8,2,2,0,0,0,.25-1,1.52,1.52,0,0,0-.27-1,.86.86,0,0,0-.74-.34.91.91,0,0,0-.62.23,1.44,1.44,0,0,0-.35.85l-.07.49a4.35,4.35,0,0,1-.19.79,2.12,2.12,0,0,1-.34.63,1.42,1.42,0,0,1-.52.42,1.68,1.68,0,0,1-.74.15,1.81,1.81,0,0,1-.8-.16,1.64,1.64,0,0,1-.57-.47,1.91,1.91,0,0,1-.34-.7,3,3,0,0,1-.12-.87,2.59,2.59,0,0,1,1-2.16l.58.63a2,2,0,0,0-.53.6,2,2,0,0,0-.23,1,1.36,1.36,0,0,0,.26.9.84.84,0,0,0,.7.31.73.73,0,0,0,.66-.31,2.1,2.1,0,0,0,.3-.88l.07-.48a2.55,2.55,0,0,1,.6-1.46,1.54,1.54,0,0,1,1.14-.43,1.76,1.76,0,0,1,1.42.61A2.55,2.55,0,0,1,101.64,156.48Z"/><path class="e" d="M93.86,152a.58.58,0,0,1-.15.45.52.52,0,0,1-.39.14h-.16a.52.52,0,0,1-.39-.14.58.58,0,0,1-.15-.45.61.61,0,0,1,.15-.45.56.56,0,0,1,.39-.13h.16a.56.56,0,0,1,.39.13A.61.61,0,0,1,93.86,152Zm1.45.48v-1h6.19v1Z"/><path class="e" d="M101.5,148.13a1,1,0,0,1-.28.76,1.06,1.06,0,0,1-.74.26H96.16v1h-.85v-.58a.55.55,0,0,0-.13-.43.69.69,0,0,0-.44-.11H93.59v-.86h1.72v-1.36h.85v1.36h4.49v-1.26h.85Z"/><path class="e" d="M101.64,143a2.79,2.79,0,0,1-.22,1.14,2.49,2.49,0,0,1-.66.88,2.82,2.82,0,0,1-1,.57,4,4,0,0,1-1.34.21,4,4,0,0,1-1.33-.21,2.82,2.82,0,0,1-1-.57,2.38,2.38,0,0,1-.66-.88,2.8,2.8,0,0,1-.23-1.14,2.75,2.75,0,0,1,.23-1.13,2.5,2.5,0,0,1,.66-.89,3,3,0,0,1,1-.57,4,4,0,0,1,1.33-.21,4,4,0,0,1,1.34.21,3,3,0,0,1,1,.57,2.62,2.62,0,0,1,.66.89A2.75,2.75,0,0,1,101.64,143Zm-.85,0a1.74,1.74,0,0,0-.48-1.27,2,2,0,0,0-1.46-.49H98a1.94,1.94,0,0,0-1.46.49,1.92,1.92,0,0,0,0,2.54,1.94,1.94,0,0,0,1.46.49h.89a2,2,0,0,0,1.46-.49A1.74,1.74,0,0,0,100.79,143Z"/><path class="e" d="M101.5,138.61H95.31v-1h1.14v-.06a1.79,1.79,0,0,1-1.14-1.79v-.37h1V136a2.22,2.22,0,0,0,.29,1.22.88.88,0,0,0,.74.44h4.2Z"/><path class="e" d="M101.64,132.35a2.89,2.89,0,0,1-.33,1.44,3.23,3.23,0,0,1-.88,1l-.55-.68a2.75,2.75,0,0,0,.7-.8,2.05,2.05,0,0,0,.25-1,1.51,1.51,0,0,0-.27-1,.86.86,0,0,0-.74-.34.91.91,0,0,0-.62.23,1.44,1.44,0,0,0-.35.85l-.07.49a4.35,4.35,0,0,1-.19.79,2.12,2.12,0,0,1-.34.63,1.42,1.42,0,0,1-.52.42,1.93,1.93,0,0,1-1.54,0,1.51,1.51,0,0,1-.57-.46,1.91,1.91,0,0,1-.34-.7,3.07,3.07,0,0,1-.12-.88,2.67,2.67,0,0,1,.27-1.26,2.84,2.84,0,0,1,.73-.9l.58.64a2,2,0,0,0-.53.6,2,2,0,0,0-.23,1,1.36,1.36,0,0,0,.26.9.84.84,0,0,0,.7.31.73.73,0,0,0,.66-.31,2.15,2.15,0,0,0,.3-.88L98,132a2.52,2.52,0,0,1,.6-1.46,1.54,1.54,0,0,1,1.14-.44,1.77,1.77,0,0,1,1.42.62A2.52,2.52,0,0,1,101.64,132.35Z"/></g></g><rect class="f" x="165.5" y="236" width="352" height="1"/><rect class="f" x="165.5" y="63" width="1" height="174"/><rect class="g" x="218.5" y="86" width="6" height="150"/><rect class="h" x="210.5" y="124" width="6" height="112"/><rect class="i" x="202.5" y="162" width="6" height="74"/><rect class="j" x="194.5" y="175" width="6" height="61"/><rect class="k" x="186.5" y="185" width="6" height="51"/><rect class="k" x="178.5" y="203" width="6" height="33"/><rect class="g" x="288.5" y="146" width="6" height="90"/><rect class="j" x="264.5" y="146" width="6" height="90"/><rect class="h" x="280.5" y="102" width="6" height="134"/><rect class="i" x="272.5" y="124" width="6" height="112"/><rect class="k" x="256.5" y="162" width="6" height="74"/><rect class="k" x="248.5" y="193" width="6" height="43"/><rect class="g" x="358.5" y="118" width="6" height="118"/><rect class="h" x="350.5" y="153" width="6" height="83"/><rect class="i" x="342.5" y="180" width="6" height="56"/><rect class="j" x="334.5" y="188" width="6" height="48"/><rect class="k" x="326.5" y="195" width="6" height="41"/><rect class="k" x="318.5" y="207" width="6" height="29"/><rect class="g" x="428.5" y="73" width="6" height="163"/><rect class="h" x="420.5" y="98" width="6" height="138"/><rect class="i" x="412.5" y="145" width="6" height="91"/><rect class="j" x="404.5" y="159" width="6" height="77"/><rect class="k" x="396.5" y="173" width="6" height="63"/><rect class="k" x="388.5" y="203" width="6" height="33"/><rect class="g" x="498.5" y="159" width="6" height="77"/><rect class="h" x="490.5" y="117" width="6" height="119"/><rect class="i" x="482.5" y="109" width="6" height="127"/><rect class="j" x="474.5" y="128" width="6" height="108"/><rect class="k" x="466.5" y="149" width="6" height="87"/><rect class="k" x="458.5" y="172" width="6" height="64"/><g class="b"><g class="b"><path class="e" d="M99.42,35.46h-.08l-.88,1.8L96,41.73l-2.45-4.47-.88-1.8H92.6V44H90.88V32.83H93l3,5.68h.1l3-5.68h2.05V44H99.42Z"/><path class="e" d="M107,44.19a4,4,0,0,1-1.58-.3,3.41,3.41,0,0,1-1.21-.87,4.19,4.19,0,0,1-.77-1.38,6.13,6.13,0,0,1,0-3.6,4.19,4.19,0,0,1,.77-1.38,3.54,3.54,0,0,1,1.21-.87,4.28,4.28,0,0,1,3.15,0,3.44,3.44,0,0,1,1.21.87,4,4,0,0,1,.77,1.38,6.14,6.14,0,0,1,0,3.6,4,4,0,0,1-.77,1.38,3.32,3.32,0,0,1-1.21.87A4,4,0,0,1,107,44.19Zm0-1.45a2,2,0,0,0,1.44-.55,2.28,2.28,0,0,0,.54-1.65v-1.4a2.28,2.28,0,0,0-.54-1.65,2,2,0,0,0-1.44-.55,2,2,0,0,0-1.44.55,2.24,2.24,0,0,0-.55,1.65v1.4a2.24,2.24,0,0,0,.55,1.65A2,2,0,0,0,107,42.74Z"/><path class="e" d="M112.8,44V35.68h1.74v1.38h.08a2.72,2.72,0,0,1,.82-1.12,2.35,2.35,0,0,1,1.52-.45,2.48,2.48,0,0,1,2,.84,3.63,3.63,0,0,1,.71,2.39V44h-1.74V38.94c0-1.3-.53-1.95-1.57-1.95a2.52,2.52,0,0,0-.67.09,2.18,2.18,0,0,0-.58.26,1.36,1.36,0,0,0-.41.45,1.32,1.32,0,0,0-.15.64V44Z"/><path class="e" d="M124.38,44a1.87,1.87,0,0,1-1.38-.47,1.83,1.83,0,0,1-.46-1.34V37.1h-1.3V35.68H122a.76.76,0,0,0,.6-.19,1,1,0,0,0,.17-.63V33.41h1.56v2.27H126V37.1h-1.75v5.48h1.62V44Z"/><path class="e" d="M127.92,32.16h1.74v4.9h.08a2.72,2.72,0,0,1,.82-1.12,2.35,2.35,0,0,1,1.52-.45,2.48,2.48,0,0,1,2,.84,3.63,3.63,0,0,1,.71,2.39V44H133V38.93c0-1.29-.53-1.94-1.57-1.94a2.52,2.52,0,0,0-.67.09,2,2,0,0,0-.58.26,1.36,1.36,0,0,0-.41.45,1.28,1.28,0,0,0-.15.63V44h-1.74Z"/><path class="e" d="M139,44a1.73,1.73,0,0,1-1.33-.46,1.71,1.71,0,0,1-.44-1.27V32.16h1.74V42.58h1.15V44Z"/><path class="e" d="M146.73,35.68h1.68l-3.5,10a4.29,4.29,0,0,1-.33.71,1.68,1.68,0,0,1-.43.48,1.83,1.83,0,0,1-.6.27,3.49,3.49,0,0,1-.84.09h-1V45.78h1.4l.48-1.41-3-8.69h1.74l1.67,4.9.48,1.8h.08l.53-1.8Z"/><path class="e" d="M155.44,44l-2.84-8.32h1.73l1.26,3.79.85,2.91h.1l.85-2.91,1.29-3.79h1.67L157.48,44Z"/><path class="e" d="M162.7,34.19a1.06,1.06,0,0,1-.79-.25.89.89,0,0,1-.25-.66V33a.89.89,0,0,1,.25-.66,1.06,1.06,0,0,1,.79-.25,1,1,0,0,1,.78.25.92.92,0,0,1,.24.66v.27a.92.92,0,0,1-.24.66A1,1,0,0,1,162.7,34.19Zm-.88,1.49h1.74V44h-1.74Z"/><path class="e" d="M168.7,44.19a3.94,3.94,0,0,1-3.38-1.57l1.12-1a3.79,3.79,0,0,0,1,.87,2.68,2.68,0,0,0,1.32.31,1.82,1.82,0,0,0,1.15-.29,1,1,0,0,0,.37-.83,1,1,0,0,0-.26-.68,1.58,1.58,0,0,0-.92-.36l-.77-.09a4,4,0,0,1-2-.75,2.09,2.09,0,0,1-.72-1.73,2.45,2.45,0,0,1,.22-1.08,2.24,2.24,0,0,1,.63-.8,2.94,2.94,0,0,1,1-.51,4.5,4.5,0,0,1,1.25-.17,4.25,4.25,0,0,1,1.84.35,4.38,4.38,0,0,1,1.27,1l-1.07,1a2.8,2.8,0,0,0-.84-.66,2.47,2.47,0,0,0-1.2-.28,1.64,1.64,0,0,0-1.06.28,1,1,0,0,0-.34.76.87.87,0,0,0,.3.72,2.24,2.24,0,0,0,1,.35l.76.09a3.68,3.68,0,0,1,2,.81,2.12,2.12,0,0,1,.63,1.61,2.46,2.46,0,0,1-.23,1.1,2.41,2.41,0,0,1-.66.84,3.31,3.31,0,0,1-1,.54A4.47,4.47,0,0,1,168.7,44.19Z"/><path class="e" d="M174.84,34.19a1.07,1.07,0,0,1-.79-.25.93.93,0,0,1-.25-.66V33a.93.93,0,0,1,.25-.66,1.07,1.07,0,0,1,.79-.25,1,1,0,0,1,.79.25.92.92,0,0,1,.24.66v.27a.92.92,0,0,1-.24.66A1,1,0,0,1,174.84,34.19ZM174,35.68h1.75V44H174Z"/><path class="e" d="M180.51,44a1.87,1.87,0,0,1-1.38-.47,1.83,1.83,0,0,1-.46-1.34V37.1h-1.3V35.68h.7a.76.76,0,0,0,.6-.19.91.91,0,0,0,.17-.63V33.41h1.57v2.27h1.74V37.1h-1.74v5.48H182V44Z"/><path class="e" d="M187.24,44.19a4,4,0,0,1-1.57-.3,3.32,3.32,0,0,1-1.21-.87,4,4,0,0,1-.77-1.38,6.13,6.13,0,0,1,0-3.6,4,4,0,0,1,.77-1.38,3.44,3.44,0,0,1,1.21-.87,4,4,0,0,1,1.57-.3,4,4,0,0,1,1.58.3,3.54,3.54,0,0,1,1.21.87,4,4,0,0,1,.76,1.38,5.93,5.93,0,0,1,0,3.6A4,4,0,0,1,190,43a3.41,3.41,0,0,1-1.21.87A4,4,0,0,1,187.24,44.19Zm0-1.45a2,2,0,0,0,1.44-.55,2.28,2.28,0,0,0,.55-1.65v-1.4a2.28,2.28,0,0,0-.55-1.65,2,2,0,0,0-1.44-.55,2,2,0,0,0-1.44.55,2.28,2.28,0,0,0-.54,1.65v1.4a2.28,2.28,0,0,0,.54,1.65A2,2,0,0,0,187.24,42.74Z"/><path class="e" d="M193,44V35.68h1.75v1.6h.08a2.19,2.19,0,0,1,.73-1.12,2.32,2.32,0,0,1,1.55-.48h.47v1.68h-.69a3,3,0,0,0-1.59.34,1.07,1.07,0,0,0-.55,1V44Z"/><path class="e" d="M201.77,44.19a4,4,0,0,1-3.38-1.57l1.12-1a3.68,3.68,0,0,0,1,.87,2.63,2.63,0,0,0,1.32.31,1.81,1.81,0,0,0,1.14-.29,1,1,0,0,0,.38-.83,1,1,0,0,0-.27-.68,1.55,1.55,0,0,0-.92-.36l-.77-.09a3.92,3.92,0,0,1-2-.75,2.07,2.07,0,0,1-.73-1.73,2.45,2.45,0,0,1,.22-1.08,2.24,2.24,0,0,1,.63-.8,3,3,0,0,1,1-.51,4.52,4.52,0,0,1,1.26-.17,3.74,3.74,0,0,1,3.1,1.33l-1.07,1a2.8,2.8,0,0,0-.84-.66,2.46,2.46,0,0,0-1.19-.28,1.67,1.67,0,0,0-1.07.28,1,1,0,0,0-.34.76.87.87,0,0,0,.3.72,2.24,2.24,0,0,0,1,.35l.77.09a3.68,3.68,0,0,1,2,.81,2.09,2.09,0,0,1,.64,1.61,2.47,2.47,0,0,1-.24,1.1,2.41,2.41,0,0,1-.66.84,3.2,3.2,0,0,1-1,.54A4.47,4.47,0,0,1,201.77,44.19Z"/><path class="e" d="M210.81,32.16h1.74v4.9h.08a2.28,2.28,0,0,1,.89-1.16,2.52,2.52,0,0,1,1.45-.41,2.89,2.89,0,0,1,2.45,1.14,5.26,5.26,0,0,1,.86,3.21,5.26,5.26,0,0,1-.86,3.21A2.89,2.89,0,0,1,215,44.19a2.59,2.59,0,0,1-1.45-.41,2.37,2.37,0,0,1-.89-1.16h-.08V44h-1.74Zm3.63,10.53a1.9,1.9,0,0,0,1.46-.59,2.18,2.18,0,0,0,.54-1.54V39.12a2.18,2.18,0,0,0-.54-1.54,1.9,1.9,0,0,0-1.46-.59,2.24,2.24,0,0,0-1.34.39,1.25,1.25,0,0,0-.55,1v2.84a1.23,1.23,0,0,0,.55,1A2.24,2.24,0,0,0,214.44,42.69Z"/><path class="e" d="M225.27,35.68H227l-3.5,10a4.29,4.29,0,0,1-.33.71,1.68,1.68,0,0,1-.43.48,1.83,1.83,0,0,1-.6.27,3.4,3.4,0,0,1-.83.09h-1V45.78h1.41l.48-1.41-3-8.69h1.75l1.66,4.9.48,1.8h.08l.53-1.8Z"/><path class="e" d="M238.27,44a1.4,1.4,0,0,1-1.06-.39,1.71,1.71,0,0,1-.45-1h-.08a2,2,0,0,1-.88,1.18,2.82,2.82,0,0,1-1.55.4,2.74,2.74,0,0,1-2-.67,2.38,2.38,0,0,1-.7-1.81,2.11,2.11,0,0,1,.91-1.87,4.6,4.6,0,0,1,2.64-.62h1.51v-.71a1.59,1.59,0,0,0-.42-1.18,1.76,1.76,0,0,0-1.29-.42,2.1,2.1,0,0,0-1.2.32,3.09,3.09,0,0,0-.79.82l-1-.95a3.42,3.42,0,0,1,1.17-1.16,3.81,3.81,0,0,1,2-.45,3.68,3.68,0,0,1,2.48.75,2.72,2.72,0,0,1,.86,2.16v4.18h.88V44Zm-3.52-1.14a2.33,2.33,0,0,0,1.34-.36,1.12,1.12,0,0,0,.53-1v-1.2h-1.47c-1.21,0-1.81.37-1.81,1.12v.28a1,1,0,0,0,.37.84A1.69,1.69,0,0,0,234.75,42.86Z"/><path class="e" d="M248.25,44.78a2.2,2.2,0,0,1-1,2,6.13,6.13,0,0,1-3.23.65,9.5,9.5,0,0,1-1.74-.13,4,4,0,0,1-1.17-.4,1.66,1.66,0,0,1-.66-.62,1.7,1.7,0,0,1-.21-.85,1.47,1.47,0,0,1,.38-1.07,2,2,0,0,1,1-.53v-.17a1.24,1.24,0,0,1-.94-1.28,1.19,1.19,0,0,1,.43-1,2.71,2.71,0,0,1,1-.49V40.8a2.65,2.65,0,0,1-1.13-1,2.8,2.8,0,0,1-.39-1.48,2.67,2.67,0,0,1,.86-2.07,3.52,3.52,0,0,1,2.45-.78,4,4,0,0,1,1.51.25v-.22a1.35,1.35,0,0,1,.26-.87,1,1,0,0,1,.83-.31h1.28v1.4h-1.7v.34a2.53,2.53,0,0,1,.86,1,2.72,2.72,0,0,1,.31,1.31,2.61,2.61,0,0,1-.87,2,3.57,3.57,0,0,1-2.46.77,4,4,0,0,1-1.09-.13,1.82,1.82,0,0,0-.56.32.63.63,0,0,0-.24.52.5.5,0,0,0,.31.48,2.16,2.16,0,0,0,.86.14h2.05a3.29,3.29,0,0,1,2.22.62A2.14,2.14,0,0,1,248.25,44.78Zm-1.63.2a.83.83,0,0,0-.33-.69A2,2,0,0,0,245.1,44h-2.82a1.07,1.07,0,0,0-.57,1,1,1,0,0,0,.4.83,2.44,2.44,0,0,0,1.39.31h1.09C245.94,46.13,246.62,45.74,246.62,45ZM244,39.89a1.83,1.83,0,0,0,1.19-.35,1.29,1.29,0,0,0,.43-1.06v-.32a1.29,1.29,0,0,0-.43-1.06,2.2,2.2,0,0,0-2.38,0,1.29,1.29,0,0,0-.43,1.06v.32a1.29,1.29,0,0,0,.43,1.06A1.83,1.83,0,0,0,244,39.89Z"/><path class="e" d="M252.71,44.19a4.07,4.07,0,0,1-1.6-.3,3.37,3.37,0,0,1-1.2-.87,4,4,0,0,1-.76-1.38,6.36,6.36,0,0,1,0-3.6,4,4,0,0,1,.76-1.38,3.5,3.5,0,0,1,1.2-.87,4.07,4.07,0,0,1,1.6-.3,3.7,3.7,0,0,1,1.61.32,3.11,3.11,0,0,1,1.16.89,3.88,3.88,0,0,1,.7,1.32,5.59,5.59,0,0,1,.23,1.61v.66H250.7v.27a2.19,2.19,0,0,0,.57,1.56,2.09,2.09,0,0,0,1.62.62,2.44,2.44,0,0,0,1.3-.34,2.83,2.83,0,0,0,.89-.9l1,1a3.27,3.27,0,0,1-1.35,1.22A4.33,4.33,0,0,1,252.71,44.19Zm0-7.34a2,2,0,0,0-.82.16,1.81,1.81,0,0,0-.64.45,2,2,0,0,0-.41.68,2.75,2.75,0,0,0-.14.88v.12h3.87V39a2.33,2.33,0,0,0-.5-1.55A1.68,1.68,0,0,0,252.71,36.85Z"/></g></g><g class="b"><g class="b"><path class="e" d="M329.07,272.94H329l-.71,1.41-2,3.65-2-3.65-.71-1.41h-.06V280h-1v-8.38h1.34l2.4,4.52h.06l2.42-4.52h1.29V280h-1Z"/><path class="e" d="M334.53,280.14a2.79,2.79,0,0,1-1.14-.22,2.4,2.4,0,0,1-.88-.66,2.82,2.82,0,0,1-.57-1,4,4,0,0,1-.21-1.34,4,4,0,0,1,.21-1.33,2.82,2.82,0,0,1,.57-1,2.3,2.3,0,0,1,.88-.66,2.92,2.92,0,0,1,2.27,0,2.38,2.38,0,0,1,.88.66,3,3,0,0,1,.58,1,4,4,0,0,1,.2,1.33,4,4,0,0,1-.2,1.34,3,3,0,0,1-.58,1,2.49,2.49,0,0,1-.88.66A2.78,2.78,0,0,1,334.53,280.14Zm0-.85a1.74,1.74,0,0,0,1.27-.48,2,2,0,0,0,.49-1.46v-.89a1.94,1.94,0,0,0-.49-1.46,1.92,1.92,0,0,0-2.54,0,1.94,1.94,0,0,0-.5,1.46v.89a2,2,0,0,0,.5,1.46A1.73,1.73,0,0,0,334.53,279.29Z"/><path class="e" d="M338.91,280v-6.19h1v1h.05a2,2,0,0,1,.64-.83,1.83,1.83,0,0,1,1.11-.31,2,2,0,0,1,1.52.62,2.53,2.53,0,0,1,.55,1.75v4h-1v-3.81c0-1.12-.46-1.67-1.4-1.67a2.1,2.1,0,0,0-.56.07,1.75,1.75,0,0,0-.48.21,1.12,1.12,0,0,0-.35.37,1.08,1.08,0,0,0-.12.52V280Z"/><path class="e" d="M347.09,280a1,1,0,0,1-.76-.28,1.06,1.06,0,0,1-.26-.74v-4.32h-1v-.85h.58a.51.51,0,0,0,.42-.13.63.63,0,0,0,.12-.44v-1.15H347v1.72h1.36v.85H347v4.49h1.26V280Z"/><path class="e" d="M349.94,271.12h1v3.68h0a2.15,2.15,0,0,1,.65-.83,1.83,1.83,0,0,1,1.11-.31,1.93,1.93,0,0,1,1.51.62,2.49,2.49,0,0,1,.56,1.75v4h-1v-3.81c0-1.12-.47-1.67-1.4-1.67a2.1,2.1,0,0,0-.56.07,2,2,0,0,0-.49.21,1.2,1.2,0,0,0-.34.37,1.08,1.08,0,0,0-.12.52V280h-1Z"/><path class="e" d="M358.61,280.14a2.87,2.87,0,0,1-1.44-.33,3.26,3.26,0,0,1-1-.88l.69-.55a2.75,2.75,0,0,0,.8.7,2,2,0,0,0,1,.25,1.52,1.52,0,0,0,1-.27.86.86,0,0,0,.34-.74.91.91,0,0,0-.23-.62,1.44,1.44,0,0,0-.85-.35l-.49-.07a4.35,4.35,0,0,1-.79-.19,2.12,2.12,0,0,1-.63-.34,1.42,1.42,0,0,1-.42-.52,1.68,1.68,0,0,1-.15-.74,1.81,1.81,0,0,1,.16-.8,1.64,1.64,0,0,1,.47-.57,1.91,1.91,0,0,1,.7-.34,3,3,0,0,1,.87-.12,2.59,2.59,0,0,1,2.16,1l-.63.58a2,2,0,0,0-.6-.53,2,2,0,0,0-1-.23,1.36,1.36,0,0,0-.9.26.84.84,0,0,0-.31.7.73.73,0,0,0,.31.66,2.1,2.1,0,0,0,.88.3l.48.07a2.55,2.55,0,0,1,1.46.6,1.54,1.54,0,0,1,.43,1.14,1.76,1.76,0,0,1-.61,1.42A2.55,2.55,0,0,1,358.61,280.14Z"/></g></g><g class="b"><g class="b"><path class="c" d="M186.11,248.62v6.46a2.13,2.13,0,0,1-.16.86,1.83,1.83,0,0,1-.44.65,2,2,0,0,1-.69.41,2.5,2.5,0,0,1-.88.14,2.06,2.06,0,0,1-1.49-.51,2.45,2.45,0,0,1-.67-1.33l.86-.22a1.84,1.84,0,0,0,.4.88,1.13,1.13,0,0,0,.9.33,1.15,1.15,0,0,0,.89-.34,1.52,1.52,0,0,0,.32-1v-5.42h-2.57v-.86Z"/><path class="c" d="M191.87,257a.79.79,0,0,1-.89-.9V256h-.12a1.49,1.49,0,0,1-.57.87,1.72,1.72,0,0,1-1,.29,1.79,1.79,0,0,1-1.34-.45,1.85,1.85,0,0,1-.45-1.35,1.72,1.72,0,0,1,.57-1.36,2.63,2.63,0,0,1,1.78-.51H191v-.68a1.4,1.4,0,0,0-.31-1,1.24,1.24,0,0,0-1-.32,1.44,1.44,0,0,0-.87.23,2,2,0,0,0-.57.68l-.54-.51a2.05,2.05,0,0,1,.77-.84,2.2,2.2,0,0,1,1.24-.34,2.29,2.29,0,0,1,1.61.51,2,2,0,0,1,.54,1.5v3.51h.63v.8Zm-2.34-.66a1.58,1.58,0,0,0,.58-.11,1.42,1.42,0,0,0,.46-.28,1.14,1.14,0,0,0,.3-.39,1.07,1.07,0,0,0,.11-.46v-.93h-1.14a1.81,1.81,0,0,0-1.05.24.8.8,0,0,0-.33.69v.33a.83.83,0,0,0,.29.69A1.23,1.23,0,0,0,189.53,256.34Z"/><path class="c" d="M193.75,257v-6.19h.91v1h.12a1.48,1.48,0,0,1,1.59-1.16,1.61,1.61,0,0,1,1.3.57,2.62,2.62,0,0,1,.47,1.74v4h-.91v-4a1.84,1.84,0,0,0-.3-1.14,1.12,1.12,0,0,0-1-.4,1.34,1.34,0,0,0-.93.34,1.18,1.18,0,0,0-.39.95V257Z"/><path class="c" d="M203.33,256h-.12a1.72,1.72,0,0,1-.56.87,1.66,1.66,0,0,1-1,.28,1.6,1.6,0,0,1-1.3-.56,2.72,2.72,0,0,1-.47-1.74v-4h.91v4a1.78,1.78,0,0,0,.31,1.14,1.11,1.11,0,0,0,.94.4,1.36,1.36,0,0,0,.93-.34,1.18,1.18,0,0,0,.39-.95v-4.22h.91V257h-.91Z"/><path class="c" d="M210,257a.79.79,0,0,1-.89-.9V256H209a1.59,1.59,0,0,1-.57.87,1.72,1.72,0,0,1-1,.29,1.83,1.83,0,0,1-1.35-.45,1.89,1.89,0,0,1-.44-1.35,1.72,1.72,0,0,1,.57-1.36,2.61,2.61,0,0,1,1.78-.51h1.12v-.68a1.4,1.4,0,0,0-.31-1,1.24,1.24,0,0,0-1-.32,1.44,1.44,0,0,0-.87.23,2,2,0,0,0-.57.68l-.54-.51a2.09,2.09,0,0,1,.76-.84,2.63,2.63,0,0,1,2.85.17,1.93,1.93,0,0,1,.55,1.5v3.51h.62v.8Zm-2.34-.66a1.62,1.62,0,0,0,.58-.11,1.42,1.42,0,0,0,.46-.28,1.14,1.14,0,0,0,.3-.39,1.07,1.07,0,0,0,.11-.46v-.93H208a1.81,1.81,0,0,0-1,.24.8.8,0,0,0-.33.69v.33a.8.8,0,0,0,.29.69A1.23,1.23,0,0,0,207.64,256.34Z"/><path class="c" d="M211.86,257v-6.19h.91V252h.12a1.67,1.67,0,0,1,.54-.85,1.54,1.54,0,0,1,1-.3h.33v.92h-.6a1.6,1.6,0,0,0-1,.29,1,1,0,0,0-.37.86V257Z"/><path class="c" d="M219.38,250.81h.89l-2.45,7.77a3.68,3.68,0,0,1-.15.41.87.87,0,0,1-.21.25.79.79,0,0,1-.3.12,1.89,1.89,0,0,1-.44,0h-.67v-.8H217l.36-1.26-2-6.53h.91l.95,3.12.58,2.27h.12l.58-2.27Z"/></g></g><g class="b"><g class="b"><path class="c" d="M250.25,257v-8.38h4.52v.86h-3.56v2.85h3.24v.85h-3.24V257Z"/><path class="c" d="M258,257.14a2.83,2.83,0,0,1-1-.18,2,2,0,0,1-.8-.57,3,3,0,0,1-.53-1,5.82,5.82,0,0,1,0-2.95,2.92,2.92,0,0,1,.53-1,2,2,0,0,1,.8-.58,2.83,2.83,0,0,1,1-.18,2.64,2.64,0,0,1,1,.18,1.8,1.8,0,0,1,.76.58,2.88,2.88,0,0,1,.49,1,5.3,5.3,0,0,1,.17,1.47v.23h-4v.4a1.93,1.93,0,0,0,.42,1.36,1.45,1.45,0,0,0,1.14.45,1.76,1.76,0,0,0,1-.27,1.81,1.81,0,0,0,.63-.81l.62.46a2.5,2.5,0,0,1-.85,1A2.41,2.41,0,0,1,258,257.14Zm0-5.71a1.46,1.46,0,0,0-1.15.47,2,2,0,0,0-.41,1.38v.16h3v-.16C259.46,252.05,259,251.43,258,251.43Z"/><path class="c" d="M261.85,248.12h.91v3.68h.12a1.56,1.56,0,0,1,.58-.87,1.73,1.73,0,0,1,1-.27,1.95,1.95,0,0,1,1.68.88,3,3,0,0,1,.43,1,6.11,6.11,0,0,1,0,2.69,3,3,0,0,1-.43,1,2.1,2.1,0,0,1-.71.65,2,2,0,0,1-1,.22,1.81,1.81,0,0,1-1-.26,1.56,1.56,0,0,1-.58-.88h-.12v1h-.91Zm2.32,8.22a1.42,1.42,0,0,0,1.15-.48,2,2,0,0,0,.39-1.33v-1.25a2.08,2.08,0,0,0-.39-1.34,1.44,1.44,0,0,0-1.15-.47,1.92,1.92,0,0,0-.55.08,1.43,1.43,0,0,0-.44.24,1.1,1.1,0,0,0-.3.38,1,1,0,0,0-.12.48v2.51a1.12,1.12,0,0,0,.42.85,1.26,1.26,0,0,0,.44.25A1.92,1.92,0,0,0,264.17,256.34Z"/><path class="c" d="M268.14,257v-6.19h.91V252h.12a1.66,1.66,0,0,1,.53-.85,1.58,1.58,0,0,1,1-.3H271v.92h-.6a1.6,1.6,0,0,0-1,.29,1,1,0,0,0-.37.86V257Z"/><path class="c" d="M275.54,256h-.12a1.46,1.46,0,0,1-1.58,1.15,1.59,1.59,0,0,1-1.3-.56,2.66,2.66,0,0,1-.48-1.74v-4H273v4a1.84,1.84,0,0,0,.31,1.14,1.12,1.12,0,0,0,.94.4,1.41,1.41,0,0,0,.94-.34,1.21,1.21,0,0,0,.38-.95v-4.22h.91V257h-.91Z"/><path class="c" d="M282.19,257a.79.79,0,0,1-.89-.9V256h-.12a1.49,1.49,0,0,1-.57.87,1.68,1.68,0,0,1-1,.29,1.79,1.79,0,0,1-1.34-.45,1.85,1.85,0,0,1-.45-1.35,1.72,1.72,0,0,1,.57-1.36,2.64,2.64,0,0,1,1.79-.51h1.11v-.68a1.45,1.45,0,0,0-.3-1,1.28,1.28,0,0,0-1-.32,1.44,1.44,0,0,0-.87.23,2,2,0,0,0-.57.68l-.54-.51a2.12,2.12,0,0,1,.77-.84,2.23,2.23,0,0,1,1.25-.34,2.28,2.28,0,0,1,1.6.51,2,2,0,0,1,.54,1.5v3.51h.63v.8Zm-2.34-.66a1.58,1.58,0,0,0,.58-.11,1.32,1.32,0,0,0,.46-.28,1.14,1.14,0,0,0,.3-.39,1,1,0,0,0,.11-.46v-.93h-1.14a1.81,1.81,0,0,0-1.05.24.8.8,0,0,0-.33.69v.33a.83.83,0,0,0,.29.69A1.23,1.23,0,0,0,279.85,256.34Z"/><path class="c" d="M284.07,257v-6.19H285V252h.11a1.74,1.74,0,0,1,.54-.85,1.54,1.54,0,0,1,1-.3H287v.92h-.6a1.63,1.63,0,0,0-1,.29,1,1,0,0,0-.36.86V257Z"/><path class="c" d="M291.6,250.81h.89L290,258.58a2.34,2.34,0,0,1-.16.41.64.64,0,0,1-.21.25.68.68,0,0,1-.3.12,1.78,1.78,0,0,1-.44,0h-.67v-.8h.95l.36-1.26-2.05-6.53h.91l.95,3.12.57,2.27h.12l.58-2.27Z"/></g></g><g class="b"><g class="b"><path class="c" d="M332.84,251.25l.08-1.44h-.12l-.62,1.44-1.8,3.7-1.8-3.7-.62-1.41h-.12l.08,1.41V257H327v-8.38h1.28l1.51,3.26.56,1.54h.1l.56-1.54,1.51-3.26h1.28V257h-.94Z"/><path class="c" d="M339.58,257a.79.79,0,0,1-.88-.9V256h-.12a1.59,1.59,0,0,1-.57.87,1.72,1.72,0,0,1-1,.29,1.83,1.83,0,0,1-1.35-.45,1.89,1.89,0,0,1-.44-1.35,1.72,1.72,0,0,1,.57-1.36,2.61,2.61,0,0,1,1.78-.51h1.12v-.68a1.45,1.45,0,0,0-.31-1,1.26,1.26,0,0,0-1-.32,1.44,1.44,0,0,0-.87.23,2,2,0,0,0-.57.68l-.54-.51a2.12,2.12,0,0,1,.77-.84,2.23,2.23,0,0,1,1.25-.34,2.26,2.26,0,0,1,1.6.51,1.93,1.93,0,0,1,.55,1.5v3.51h.62v.8Zm-2.34-.66a1.63,1.63,0,0,0,.59-.11,1.42,1.42,0,0,0,.46-.28,1.14,1.14,0,0,0,.3-.39,1.07,1.07,0,0,0,.11-.46v-.93h-1.14a1.81,1.81,0,0,0-1.05.24.8.8,0,0,0-.33.69v.33a.82.82,0,0,0,.28.69A1.26,1.26,0,0,0,337.24,256.34Z"/><path class="c" d="M341.47,257v-6.19h.91V252h.12a1.66,1.66,0,0,1,.53-.85,1.58,1.58,0,0,1,1-.3h.34v.92h-.6a1.6,1.6,0,0,0-1,.29,1,1,0,0,0-.37.86V257Z"/><path class="c" d="M347.47,257.14a2.28,2.28,0,0,1-1.81-.75,5.08,5.08,0,0,1,0-5,2.33,2.33,0,0,1,4,.66l-.76.38a1.44,1.44,0,0,0-.49-.73,1.41,1.41,0,0,0-.91-.26,1.37,1.37,0,0,0-1.12.44,2.18,2.18,0,0,0-.36,1.37v1.25a2.13,2.13,0,0,0,.36,1.36,1.34,1.34,0,0,0,1.12.45,1.63,1.63,0,0,0,1-.26,1.82,1.82,0,0,0,.59-.81l.67.47a2.36,2.36,0,0,1-.84,1A2.41,2.41,0,0,1,347.47,257.14Z"/><path class="c" d="M350.88,248.12h.91v3.7h.12a1.66,1.66,0,0,1,.55-.87,1.7,1.7,0,0,1,1-.29,1.59,1.59,0,0,1,1.3.57,2.62,2.62,0,0,1,.48,1.74v4h-.91v-4a1.84,1.84,0,0,0-.31-1.14,1.1,1.1,0,0,0-.94-.4,1.36,1.36,0,0,0-.94.34,1.21,1.21,0,0,0-.38.95V257h-.91Z"/></g></g><g class="b"><g class="b"><path class="c" d="M406,257l-.74-2.51h-3l-.75,2.51h-1l2.62-8.38h1.2L407,257ZM404,250.52l-.26-1h-.12l-.27,1-.95,3.18H405Z"/><path class="c" d="M408.11,250.81H409v1h.12a1.56,1.56,0,0,1,.58-.87,1.73,1.73,0,0,1,1-.27,1.95,1.95,0,0,1,1.68.88,3,3,0,0,1,.43,1,6.11,6.11,0,0,1,0,2.69,3,3,0,0,1-.43,1,2.1,2.1,0,0,1-.71.65,2,2,0,0,1-1,.22,1.81,1.81,0,0,1-1-.26,1.56,1.56,0,0,1-.58-.88H409v3.4h-.91Zm2.32,5.53a1.42,1.42,0,0,0,1.15-.48,2,2,0,0,0,.39-1.33v-1.25a2.08,2.08,0,0,0-.39-1.34,1.44,1.44,0,0,0-1.15-.47,1.92,1.92,0,0,0-.55.08,1.43,1.43,0,0,0-.44.24,1.1,1.1,0,0,0-.3.38,1,1,0,0,0-.12.48v2.51a1.12,1.12,0,0,0,.42.85,1.26,1.26,0,0,0,.44.25A1.92,1.92,0,0,0,410.43,256.34Z"/><path class="c" d="M414.4,257v-6.19h.91V252h.12a1.66,1.66,0,0,1,.53-.85,1.58,1.58,0,0,1,1-.3h.34v.92h-.6a1.6,1.6,0,0,0-1,.29,1,1,0,0,0-.37.86V257Z"/><path class="c" d="M418.84,249.31c-.38,0-.57-.17-.57-.49v-.2c0-.32.19-.49.57-.49s.56.17.56.49v.2C419.4,249.14,419.21,249.31,418.84,249.31Zm-.46,1.5h.91V257h-.91Z"/><path class="c" d="M422.05,257a1,1,0,0,1-.71-.22,1,1,0,0,1-.22-.72v-7.94H422v8.08h.78v.8Z"/></g></g><g class="b"><g class="b"><path class="c" d="M478.34,251.25l.08-1.44h-.12l-.62,1.44-1.8,3.7-1.8-3.7-.62-1.41h-.12l.08,1.41V257h-.94v-8.38h1.28l1.51,3.26.56,1.54h.1l.56-1.54,1.51-3.26h1.28V257h-.94Z"/><path class="c" d="M485.08,257a.79.79,0,0,1-.88-.9V256h-.12a1.59,1.59,0,0,1-.57.87,1.72,1.72,0,0,1-1,.29,1.83,1.83,0,0,1-1.35-.45,1.89,1.89,0,0,1-.44-1.35,1.72,1.72,0,0,1,.57-1.36,2.61,2.61,0,0,1,1.78-.51h1.12v-.68a1.45,1.45,0,0,0-.31-1,1.26,1.26,0,0,0-1-.32,1.44,1.44,0,0,0-.87.23,2,2,0,0,0-.57.68l-.54-.51a2.12,2.12,0,0,1,.77-.84,2.23,2.23,0,0,1,1.25-.34,2.26,2.26,0,0,1,1.6.51,1.93,1.93,0,0,1,.55,1.5v3.51h.62v.8Zm-2.34-.66a1.63,1.63,0,0,0,.59-.11,1.42,1.42,0,0,0,.46-.28,1.14,1.14,0,0,0,.3-.39,1.07,1.07,0,0,0,.11-.46v-.93h-1.14a1.81,1.81,0,0,0-1.05.24.8.8,0,0,0-.33.69v.33a.82.82,0,0,0,.28.69A1.26,1.26,0,0,0,482.74,256.34Z"/><path class="c" d="M490.26,250.81h.88l-2.44,7.77a2.34,2.34,0,0,1-.16.41.87.87,0,0,1-.21.25.68.68,0,0,1-.3.12,1.83,1.83,0,0,1-.44,0h-.67v-.8h.95l.36-1.26-2.05-6.53h.91l1,3.12.57,2.27h.12l.58-2.27Z"/></g></g><rect class="k" x="165.5" y="302" width="12" height="12" rx="1"/><g class="b"><g class="b"><path class="c" d="M184.74,312.14a2.67,2.67,0,0,1-1.18-.24,2,2,0,0,1-.81-.76,4,4,0,0,1-.47-1.34,11.19,11.19,0,0,1-.16-2,11.07,11.07,0,0,1,.16-2,4,4,0,0,1,.47-1.35,2,2,0,0,1,.81-.76,3,3,0,0,1,2.36,0,2,2,0,0,1,.81.76,4,4,0,0,1,.47,1.35,11.07,11.07,0,0,1,.16,2,11.19,11.19,0,0,1-.16,2,4,4,0,0,1-.47,1.34,2,2,0,0,1-.81.76A2.67,2.67,0,0,1,184.74,312.14Zm0-.82a1.34,1.34,0,0,0,1.24-.62,3.46,3.46,0,0,0,.37-1.74v-2.3a3.45,3.45,0,0,0-.37-1.73,1.55,1.55,0,0,0-2.48,0,3.45,3.45,0,0,0-.37,1.73V309a3.46,3.46,0,0,0,.37,1.74A1.34,1.34,0,0,0,184.74,311.32Z"/><path class="c" d="M188.36,308.78v-.87h5.57v.87Z"/><path class="c" d="M195.26,312v-.85h2.09V304.5l-2.06,1.34-.41-.66,2.38-1.56h1.05v7.53h1.92V312Z"/><path class="c" d="M206.2,304.48h-3.32l-.21,3.32h.12a1.52,1.52,0,0,1,.54-.71,1.62,1.62,0,0,1,1-.29,2.44,2.44,0,0,1,.9.17,1.87,1.87,0,0,1,.7.48,2.27,2.27,0,0,1,.45.81,3.49,3.49,0,0,1,.17,1.13,2.91,2.91,0,0,1-.67,2.05,2.45,2.45,0,0,1-1.88.7,2.66,2.66,0,0,1-1.47-.4,2.74,2.74,0,0,1-.94-1l.72-.54a2.2,2.2,0,0,0,.7.82,1.67,1.67,0,0,0,1,.28,1.46,1.46,0,0,0,1.17-.43,1.9,1.9,0,0,0,.37-1.25v-.29a1.93,1.93,0,0,0-.37-1.26,1.5,1.5,0,0,0-1.17-.43,1.45,1.45,0,0,0-.84.21,1.87,1.87,0,0,0-.51.5l-.82-.11.28-4.61h4.08Z"/></g></g><rect class="j" x="213.5" y="302" width="12" height="12" rx="1"/><g class="b"><g class="b"><path class="c" d="M230.45,312v-.85h2.09V304.5l-2.07,1.34-.41-.66,2.38-1.56h1.06v7.53h1.92V312Z"/><path class="c" d="M239.22,312.14a2.3,2.3,0,0,1-1.91-.81,3.74,3.74,0,0,1-.65-2.37,6,6,0,0,1,.26-1.77,6.86,6.86,0,0,1,.64-1.51,6.57,6.57,0,0,1,.87-1.21,5.59,5.59,0,0,1,.95-.85h1.23c-.41.33-.77.65-1.09,1a6.28,6.28,0,0,0-.84,1,5.77,5.77,0,0,0-.61,1.09,6.81,6.81,0,0,0-.41,1.34h.12a2,2,0,0,1,.62-.86,1.82,1.82,0,0,1,1.16-.34,2.1,2.1,0,0,1,1.62.64,2.8,2.8,0,0,1,.6,2,3,3,0,0,1-.65,2.05A2.44,2.44,0,0,1,239.22,312.14Zm0-.85a1.5,1.5,0,0,0,1.15-.42,1.83,1.83,0,0,0,.4-1.29v-.24a1.8,1.8,0,0,0-.4-1.29,1.75,1.75,0,0,0-2.3,0,1.8,1.8,0,0,0-.4,1.29v.24a1.83,1.83,0,0,0,.4,1.29A1.5,1.5,0,0,0,239.22,311.29Z"/><path class="c" d="M242.84,308.78v-.87h5.57v.87Z"/><path class="c" d="M254.57,312h-5v-1l2.54-2.64a4.79,4.79,0,0,0,.88-1.16,2.32,2.32,0,0,0,.27-1.06v-.31c0-1-.43-1.5-1.3-1.5a1.5,1.5,0,0,0-1,.34,1.82,1.82,0,0,0-.55.95l-.84-.34a2.58,2.58,0,0,1,.34-.71,2.36,2.36,0,0,1,1.22-.95,2.77,2.77,0,0,1,.89-.14,2.22,2.22,0,0,1,1.73.61,2.49,2.49,0,0,1,.56,1.78,3.7,3.7,0,0,1-.07.76,2.87,2.87,0,0,1-.25.71,4.48,4.48,0,0,1-.49.74,10.48,10.48,0,0,1-.77.88l-2.09,2.19h3.95Z"/><path class="c" d="M258.52,312.14a2.67,2.67,0,0,1-1.18-.24,1.9,1.9,0,0,1-.81-.76,4,4,0,0,1-.47-1.34,10.33,10.33,0,0,1-.16-2,10.22,10.22,0,0,1,.16-2,4,4,0,0,1,.47-1.35,1.9,1.9,0,0,1,.81-.76,3,3,0,0,1,2.35,0,1.9,1.9,0,0,1,.81.76,4.25,4.25,0,0,1,.48,1.35,11.17,11.17,0,0,1,.15,2,11.29,11.29,0,0,1-.15,2,4.18,4.18,0,0,1-.48,1.34,1.9,1.9,0,0,1-.81.76A2.66,2.66,0,0,1,258.52,312.14Zm0-.82a1.33,1.33,0,0,0,1.23-.62,3.36,3.36,0,0,0,.37-1.74v-2.3a3.34,3.34,0,0,0-.37-1.73,1.54,1.54,0,0,0-2.47,0,3.34,3.34,0,0,0-.37,1.73V309a3.36,3.36,0,0,0,.37,1.74A1.34,1.34,0,0,0,258.52,311.32Z"/></g></g><rect class="i" x="268.5" y="302" width="12" height="12" rx="1"/><g class="b"><g class="b"><path class="c" d="M290.27,312h-5v-1l2.55-2.64a5.07,5.07,0,0,0,.88-1.16,2.32,2.32,0,0,0,.27-1.06v-.31c0-1-.44-1.5-1.31-1.5a1.52,1.52,0,0,0-1,.34,1.75,1.75,0,0,0-.54.95l-.84-.34a2.88,2.88,0,0,1,.33-.71,2.58,2.58,0,0,1,.52-.57,2.42,2.42,0,0,1,.71-.38,2.71,2.71,0,0,1,.88-.14,2.23,2.23,0,0,1,1.74.61,2.53,2.53,0,0,1,.56,1.78,3.69,3.69,0,0,1-.08.76,2.52,2.52,0,0,1-.25.71,5.1,5.1,0,0,1-.48.74c-.21.26-.47.56-.78.88l-2.09,2.19h3.95Z"/><path class="c" d="M291.93,312v-.85H294V304.5L292,305.84l-.41-.66,2.38-1.56H295v7.53h1.92V312Z"/><path class="c" d="M297.84,308.78v-.87h5.57v.87Z"/><path class="c" d="M306.62,307.18a1.58,1.58,0,0,0,1.13-.37,1.32,1.32,0,0,0,.38-1v-.18a1.24,1.24,0,0,0-.36-1,1.48,1.48,0,0,0-1-.3,1.52,1.52,0,0,0-.94.27,2,2,0,0,0-.6.76l-.7-.54a5,5,0,0,1,.35-.49,2.3,2.3,0,0,1,.49-.44,2.53,2.53,0,0,1,1.46-.41,3,3,0,0,1,.93.13,1.91,1.91,0,0,1,.72.38,1.61,1.61,0,0,1,.46.65,2.46,2.46,0,0,1,.17.94,2.19,2.19,0,0,1-.12.75,1.83,1.83,0,0,1-.33.58,1.61,1.61,0,0,1-.47.39,1.78,1.78,0,0,1-.58.22v.12a1.75,1.75,0,0,1,.63.18,1.69,1.69,0,0,1,.53.39,1.75,1.75,0,0,1,.35.63,2.55,2.55,0,0,1,.13.86,2.38,2.38,0,0,1-.67,1.79,2.56,2.56,0,0,1-1.9.65,2.86,2.86,0,0,1-.87-.12,2.51,2.51,0,0,1-.68-.31,2.47,2.47,0,0,1-.52-.44,4.81,4.81,0,0,1-.4-.52l.72-.54a2.62,2.62,0,0,0,.67.79,1.71,1.71,0,0,0,1.06.29,1.63,1.63,0,0,0,1.18-.38,1.49,1.49,0,0,0,.4-1.15v-.2a1.49,1.49,0,0,0-.4-1.15,1.63,1.63,0,0,0-1.18-.38h-.89v-.85Z"/><path class="c" d="M313.52,312.14a2.67,2.67,0,0,1-1.18-.24,1.9,1.9,0,0,1-.81-.76,4,4,0,0,1-.47-1.34,10.33,10.33,0,0,1-.16-2,10.22,10.22,0,0,1,.16-2,4,4,0,0,1,.47-1.35,1.9,1.9,0,0,1,.81-.76,3,3,0,0,1,2.35,0,1.9,1.9,0,0,1,.81.76,4.25,4.25,0,0,1,.48,1.35,11.17,11.17,0,0,1,.15,2,11.29,11.29,0,0,1-.15,2,4.18,4.18,0,0,1-.48,1.34,1.9,1.9,0,0,1-.81.76A2.66,2.66,0,0,1,313.52,312.14Zm0-.82a1.33,1.33,0,0,0,1.23-.62,3.36,3.36,0,0,0,.37-1.74v-2.3a3.34,3.34,0,0,0-.37-1.73,1.54,1.54,0,0,0-2.47,0,3.34,3.34,0,0,0-.37,1.73V309a3.36,3.36,0,0,0,.37,1.74A1.34,1.34,0,0,0,313.52,311.32Z"/></g></g><rect class="h" x="323.5" y="302" width="12" height="12" rx="1"/><g class="b"><g class="b"><path class="c" d="M342.32,307.18a1.58,1.58,0,0,0,1.13-.37,1.28,1.28,0,0,0,.38-1v-.18a1.24,1.24,0,0,0-.36-1,1.46,1.46,0,0,0-1-.3,1.54,1.54,0,0,0-.94.27,2,2,0,0,0-.6.76l-.69-.54a3,3,0,0,1,.35-.49,2,2,0,0,1,.48-.44,2.91,2.91,0,0,1,.64-.3,3,3,0,0,1,.82-.11,3.1,3.1,0,0,1,.94.13,1.91,1.91,0,0,1,.72.38,1.71,1.71,0,0,1,.46.65,2.47,2.47,0,0,1,.16.94,2.19,2.19,0,0,1-.12.75,2,2,0,0,1-.32.58,1.79,1.79,0,0,1-.48.39,1.7,1.7,0,0,1-.58.22v.12a1.8,1.8,0,0,1,.64.18,1.65,1.65,0,0,1,.52.39,1.76,1.76,0,0,1,.36.63,2.84,2.84,0,0,1,.12.86,2.41,2.41,0,0,1-.66,1.79,2.59,2.59,0,0,1-1.9.65,3,3,0,0,1-.88-.12,2.66,2.66,0,0,1-.68-.31,2.41,2.41,0,0,1-.51-.44,4.92,4.92,0,0,1-.41-.52l.72-.54a2.94,2.94,0,0,0,.67.79,1.73,1.73,0,0,0,1.06.29,1.61,1.61,0,0,0,1.18-.38,1.49,1.49,0,0,0,.41-1.15v-.2a1.49,1.49,0,0,0-.41-1.15,1.61,1.61,0,0,0-1.18-.38h-.89v-.85Z"/><path class="c" d="M346.93,312v-.85H349V304.5L347,305.84l-.41-.66,2.38-1.56H350v7.53h1.92V312Z"/><path class="c" d="M352.84,308.78v-.87h5.57v.87Z"/><path class="c" d="M362.82,312v-1.64H359.2v-.86l3.12-5.88h1.41v5.93h1.08v.81h-1.08V312Zm-2.74-2.45h2.74v-5.16h-.12Z"/><path class="c" d="M368.52,312.14a2.67,2.67,0,0,1-1.18-.24,1.9,1.9,0,0,1-.81-.76,4,4,0,0,1-.47-1.34,10.33,10.33,0,0,1-.16-2,10.22,10.22,0,0,1,.16-2,4,4,0,0,1,.47-1.35,1.9,1.9,0,0,1,.81-.76,3,3,0,0,1,2.35,0,1.9,1.9,0,0,1,.81.76,4.25,4.25,0,0,1,.48,1.35,11.17,11.17,0,0,1,.15,2,11.29,11.29,0,0,1-.15,2,4.18,4.18,0,0,1-.48,1.34,1.9,1.9,0,0,1-.81.76A2.66,2.66,0,0,1,368.52,312.14Zm0-.82a1.33,1.33,0,0,0,1.23-.62,3.36,3.36,0,0,0,.37-1.74v-2.3a3.34,3.34,0,0,0-.37-1.73,1.54,1.54,0,0,0-2.47,0,3.34,3.34,0,0,0-.37,1.73V309a3.36,3.36,0,0,0,.37,1.74A1.34,1.34,0,0,0,368.52,311.32Z"/></g></g><rect class="l" x="433.5" y="302" width="12" height="12" rx="1"/><g class="b"><g class="b"><path class="c" d="M454.9,304.48h-3.31l-.22,3.32h.12a1.52,1.52,0,0,1,.54-.71,1.64,1.64,0,0,1,1-.29,2.37,2.37,0,0,1,.9.17,1.79,1.79,0,0,1,.7.48,2.29,2.29,0,0,1,.46.81,3.5,3.5,0,0,1,.16,1.13,2.86,2.86,0,0,1-.67,2.05,2.44,2.44,0,0,1-1.87.7,2.66,2.66,0,0,1-1.47-.4,2.77,2.77,0,0,1-.95-1l.72-.54a2.39,2.39,0,0,0,.7.82,1.69,1.69,0,0,0,1,.28,1.45,1.45,0,0,0,1.16-.43,1.85,1.85,0,0,0,.37-1.25v-.29a1.88,1.88,0,0,0-.37-1.26,1.49,1.49,0,0,0-1.16-.43,1.45,1.45,0,0,0-.84.21,1.9,1.9,0,0,0-.52.5l-.82-.11.28-4.61h4.08Z"/><path class="c" d="M459.22,312.14a2.67,2.67,0,0,1-1.18-.24,2,2,0,0,1-.81-.76,4,4,0,0,1-.47-1.34,11.19,11.19,0,0,1-.16-2,11.07,11.07,0,0,1,.16-2,4,4,0,0,1,.47-1.35,2,2,0,0,1,.81-.76,3,3,0,0,1,2.36,0,2,2,0,0,1,.81.76,4,4,0,0,1,.47,1.35,11.07,11.07,0,0,1,.16,2,11.19,11.19,0,0,1-.16,2,4,4,0,0,1-.47,1.34,2,2,0,0,1-.81.76A2.67,2.67,0,0,1,459.22,312.14Zm0-.82a1.34,1.34,0,0,0,1.24-.62,3.46,3.46,0,0,0,.37-1.74v-2.3a3.45,3.45,0,0,0-.37-1.73,1.55,1.55,0,0,0-2.48,0,3.45,3.45,0,0,0-.37,1.73V309a3.46,3.46,0,0,0,.37,1.74A1.34,1.34,0,0,0,459.22,311.32Z"/><path class="c" d="M465.27,310.91v-2.19h-2.09V308h2.09v-2.19h.86V308h2.09v.76h-2.09v2.19Z"/></g></g><rect class="g" x="378.5" y="302" width="12" height="12" rx="1"/><g class="b"><g class="b"><path class="c" d="M398.52,312v-1.64h-3.61v-.86l3.12-5.88h1.4v5.93h1.08v.81h-1.08V312Zm-2.74-2.45h2.74v-5.16h-.12Z"/><path class="c" d="M401.93,312v-.85H404V304.5L402,305.84l-.41-.66,2.38-1.56H405v7.53h1.92V312Z"/><path class="c" d="M407.84,308.78v-.87h5.57v.87Z"/><path class="c" d="M419.2,304.48h-3.32l-.21,3.32h.12a1.52,1.52,0,0,1,.54-.71,1.62,1.62,0,0,1,1-.29,2.44,2.44,0,0,1,.9.17,1.87,1.87,0,0,1,.7.48,2.27,2.27,0,0,1,.45.81,3.49,3.49,0,0,1,.17,1.13,2.91,2.91,0,0,1-.67,2.05,2.45,2.45,0,0,1-1.88.7,2.66,2.66,0,0,1-1.47-.4,2.74,2.74,0,0,1-.94-1l.72-.54a2.2,2.2,0,0,0,.7.82,1.67,1.67,0,0,0,1,.28,1.46,1.46,0,0,0,1.17-.43,1.9,1.9,0,0,0,.37-1.25v-.29a1.93,1.93,0,0,0-.37-1.26,1.5,1.5,0,0,0-1.17-.43,1.45,1.45,0,0,0-.84.21,1.87,1.87,0,0,0-.51.5l-.82-.11.28-4.61h4.08Z"/><path class="c" d="M423.52,312.14a2.67,2.67,0,0,1-1.18-.24,1.9,1.9,0,0,1-.81-.76,4,4,0,0,1-.47-1.34,10.33,10.33,0,0,1-.16-2,10.22,10.22,0,0,1,.16-2,4,4,0,0,1,.47-1.35,1.9,1.9,0,0,1,.81-.76,3,3,0,0,1,2.35,0,1.9,1.9,0,0,1,.81.76,4.25,4.25,0,0,1,.48,1.35,11.17,11.17,0,0,1,.15,2,11.29,11.29,0,0,1-.15,2,4.18,4.18,0,0,1-.48,1.34,1.9,1.9,0,0,1-.81.76A2.66,2.66,0,0,1,423.52,312.14Zm0-.82a1.33,1.33,0,0,0,1.23-.62,3.36,3.36,0,0,0,.37-1.74v-2.3a3.34,3.34,0,0,0-.37-1.73,1.54,1.54,0,0,0-2.47,0,3.34,3.34,0,0,0-.37,1.73V309a3.36,3.36,0,0,0,.37,1.74A1.34,1.34,0,0,0,423.52,311.32Z"/></g></g></svg>