<svg id="Layer_1" data-name="Layer 1" xmlns="http://www.w3.org/2000/svg" width="928" height="522" viewBox="0 0 928 522">
  <title>monthly visitors by age</title>
  <g id="design">
    <g id="Dataviz-Design---Basics">
      <g id="Group-30">
        <g id="Group-17-Copy-5">
          <g id="principles_p_readability" data-name="principles p readability">
            <g id="Back">
              <rect id="Rectangle" width="928" height="522" fill="#fff"/>
            </g>
            <g id="Layer_3" data-name="Layer 3">
              <ellipse id="Oval" cx="402.61" cy="197.09" rx="49.12" ry="49.99" fill="#fff"/>
              <ellipse id="Oval-2" data-name="Oval" cx="489.58" cy="361.22" rx="17.29" ry="17.6" fill="#fff"/>
              <ellipse id="Oval-3" data-name="Oval" cx="430.09" cy="373.84" rx="14.41" ry="14.67" fill="#fff"/>
              <ellipse id="Oval-4" data-name="Oval" cx="467.62" cy="422.54" rx="24.05" ry="24.48" fill="#fff"/>
              <ellipse id="Oval-5" data-name="Oval" cx="507.85" cy="312.21" rx="20.45" ry="20.82" fill="#fff"/>
              <ellipse id="Oval-6" data-name="Oval" cx="389.36" cy="308.79" rx="26.6" ry="27.08" fill="#fff"/>
              <ellipse id="Oval-7" data-name="Oval" cx="345.86" cy="355.47" rx="7.94" ry="8.08" fill="#fff"/>
              <ellipse id="Oval-8" data-name="Oval" cx="506.17" cy="114.78" rx="44.08" ry="44.87" fill="#fff"/>
              <ellipse id="Oval-9" data-name="Oval" cx="590.64" cy="255.94" rx="22.19" ry="22.59" fill="#fff"/>
            </g>
          </g>
        </g>
        <g id="Group-9">
          <rect id="Rectangle-2" data-name="Rectangle" x="326.5" y="128.5" width="351" height="226" fill="none" stroke="#dcdcdc"/>
          <g id="Y-Axis-Copy">
            <g id="ticks">
              <g id="_10_000" data-name="10,000" style="isolation: isolate">
                <g style="isolation: isolate">
                  <path d="M275.82,303v-.88h2.4v-6.75h-.08l-2.12,2-.58-.64,2.22-2.08h1.57v7.5h2.21V303Z" fill="#6f6f6f"/>
                  <path d="M285.6,303.14a2.74,2.74,0,0,1-1.32-.29,2.47,2.47,0,0,1-.91-.85,3.85,3.85,0,0,1-.53-1.35,10,10,0,0,1,0-3.67,3.91,3.91,0,0,1,.53-1.36,2.47,2.47,0,0,1,.91-.85,3.15,3.15,0,0,1,2.64,0,2.47,2.47,0,0,1,.91.85,3.91,3.91,0,0,1,.53,1.36,10,10,0,0,1,0,3.67,3.85,3.85,0,0,1-.53,1.35,2.47,2.47,0,0,1-.91.85A2.74,2.74,0,0,1,285.6,303.14Zm0-.87a1.76,1.76,0,0,0,.86-.2,1.58,1.58,0,0,0,.59-.56,3.16,3.16,0,0,0,.33-.87,5.69,5.69,0,0,0,.1-1.14v-1.37a5.69,5.69,0,0,0-.1-1.14,3.11,3.11,0,0,0-.33-.88,1.67,1.67,0,0,0-.59-.56,2,2,0,0,0-1.72,0,1.67,1.67,0,0,0-.59.56,3.11,3.11,0,0,0-.33.88,5.69,5.69,0,0,0-.1,1.14v1.37a5.69,5.69,0,0,0,.1,1.14,3.16,3.16,0,0,0,.33.87,1.58,1.58,0,0,0,.59.56A1.76,1.76,0,0,0,285.6,302.27Zm0-2.75a.8.8,0,0,1-.58-.17.56.56,0,0,1-.16-.41v-.26a.56.56,0,0,1,.16-.41,1.07,1.07,0,0,1,1.16,0,.56.56,0,0,1,.16.41v.26a.56.56,0,0,1-.16.41A.8.8,0,0,1,285.6,299.52Z" fill="#6f6f6f"/>
                  <path d="M292.28,301.37h1.55l-1.38,3.32h-.8Z" fill="#6f6f6f"/>
                  <path d="M300,303.14a2.74,2.74,0,0,1-1.32-.29,2.47,2.47,0,0,1-.91-.85,3.85,3.85,0,0,1-.53-1.35,10,10,0,0,1,0-3.67,3.91,3.91,0,0,1,.53-1.36,2.47,2.47,0,0,1,.91-.85,3.15,3.15,0,0,1,2.64,0,2.47,2.47,0,0,1,.91.85,3.91,3.91,0,0,1,.53,1.36,10,10,0,0,1,0,3.67,3.85,3.85,0,0,1-.53,1.35,2.47,2.47,0,0,1-.91.85A2.74,2.74,0,0,1,300,303.14Zm0-.87a1.79,1.79,0,0,0,.86-.2,1.58,1.58,0,0,0,.59-.56,3.16,3.16,0,0,0,.33-.87,5.69,5.69,0,0,0,.1-1.14v-1.37a5.69,5.69,0,0,0-.1-1.14,3.11,3.11,0,0,0-.33-.88,1.67,1.67,0,0,0-.59-.56,1.79,1.79,0,0,0-.86-.19,1.76,1.76,0,0,0-.86.19,1.67,1.67,0,0,0-.59.56,3.11,3.11,0,0,0-.33.88,5.69,5.69,0,0,0-.1,1.14v1.37a5.69,5.69,0,0,0,.1,1.14,3.16,3.16,0,0,0,.33.87,1.58,1.58,0,0,0,.59.56A1.76,1.76,0,0,0,300,302.27Zm0-2.75a.8.8,0,0,1-.58-.17.56.56,0,0,1-.16-.41v-.26a.56.56,0,0,1,.16-.41,1.07,1.07,0,0,1,1.16,0,.56.56,0,0,1,.16.41v.26a.56.56,0,0,1-.16.41A.8.8,0,0,1,300,299.52Z" fill="#6f6f6f"/>
                  <path d="M307.2,303.14a2.74,2.74,0,0,1-1.32-.29A2.47,2.47,0,0,1,305,302a3.85,3.85,0,0,1-.53-1.35,10,10,0,0,1,0-3.67,3.91,3.91,0,0,1,.53-1.36,2.47,2.47,0,0,1,.91-.85,3.15,3.15,0,0,1,2.64,0,2.47,2.47,0,0,1,.91.85A3.91,3.91,0,0,1,310,297a10,10,0,0,1,0,3.67,3.85,3.85,0,0,1-.53,1.35,2.47,2.47,0,0,1-.91.85A2.74,2.74,0,0,1,307.2,303.14Zm0-.87a1.76,1.76,0,0,0,.86-.2,1.58,1.58,0,0,0,.59-.56,3.16,3.16,0,0,0,.33-.87,5.69,5.69,0,0,0,.1-1.14v-1.37A5.69,5.69,0,0,0,309,297a3.11,3.11,0,0,0-.33-.88,1.67,1.67,0,0,0-.59-.56,2,2,0,0,0-1.72,0,1.67,1.67,0,0,0-.59.56,3.11,3.11,0,0,0-.33.88,5.69,5.69,0,0,0-.1,1.14v1.37a5.69,5.69,0,0,0,.1,1.14,3.16,3.16,0,0,0,.33.87,1.58,1.58,0,0,0,.59.56A1.76,1.76,0,0,0,307.2,302.27Zm0-2.75a.8.8,0,0,1-.58-.17.56.56,0,0,1-.16-.41v-.26a.56.56,0,0,1,.16-.41,1.07,1.07,0,0,1,1.16,0,.56.56,0,0,1,.16.41v.26a.56.56,0,0,1-.16.41A.8.8,0,0,1,307.2,299.52Z" fill="#6f6f6f"/>
                  <path d="M314.4,303.14a2.74,2.74,0,0,1-1.32-.29,2.47,2.47,0,0,1-.91-.85,3.85,3.85,0,0,1-.53-1.35,10,10,0,0,1,0-3.67,3.91,3.91,0,0,1,.53-1.36,2.47,2.47,0,0,1,.91-.85,3.15,3.15,0,0,1,2.64,0,2.47,2.47,0,0,1,.91.85,3.91,3.91,0,0,1,.53,1.36,10,10,0,0,1,0,3.67,3.85,3.85,0,0,1-.53,1.35,2.47,2.47,0,0,1-.91.85A2.74,2.74,0,0,1,314.4,303.14Zm0-.87a1.79,1.79,0,0,0,.86-.2,1.49,1.49,0,0,0,.58-.56,2.63,2.63,0,0,0,.33-.87,5,5,0,0,0,.11-1.14v-1.37a5,5,0,0,0-.11-1.14,2.61,2.61,0,0,0-.33-.88,1.56,1.56,0,0,0-.58-.56,1.79,1.79,0,0,0-.86-.19,1.74,1.74,0,0,0-.86.19,1.59,1.59,0,0,0-.59.56,2.84,2.84,0,0,0-.33.88,5.65,5.65,0,0,0-.11,1.14v1.37a5.65,5.65,0,0,0,.11,1.14,2.87,2.87,0,0,0,.33.87,1.51,1.51,0,0,0,.59.56A1.74,1.74,0,0,0,314.4,302.27Zm0-2.75a.79.79,0,0,1-.58-.17.56.56,0,0,1-.16-.41v-.26a.56.56,0,0,1,.16-.41.79.79,0,0,1,.58-.17.8.8,0,0,1,.58.17.56.56,0,0,1,.16.41v.26a.56.56,0,0,1-.16.41A.8.8,0,0,1,314.4,299.52Z" fill="#6f6f6f"/>
                </g>
              </g>
              <g id="_0" data-name="0" style="isolation: isolate">
                <g style="isolation: isolate">
                  <path d="M314.4,354.14a2.74,2.74,0,0,1-1.32-.29,2.47,2.47,0,0,1-.91-.85,3.85,3.85,0,0,1-.53-1.35,10,10,0,0,1,0-3.67,3.91,3.91,0,0,1,.53-1.36,2.47,2.47,0,0,1,.91-.85,3.15,3.15,0,0,1,2.64,0,2.47,2.47,0,0,1,.91.85,3.91,3.91,0,0,1,.53,1.36,10,10,0,0,1,0,3.67,3.85,3.85,0,0,1-.53,1.35,2.47,2.47,0,0,1-.91.85A2.74,2.74,0,0,1,314.4,354.14Zm0-.87a1.76,1.76,0,0,0,.86-.2,1.58,1.58,0,0,0,.59-.56,3.16,3.16,0,0,0,.33-.87,5.69,5.69,0,0,0,.1-1.14v-1.37a5.69,5.69,0,0,0-.1-1.14,3.11,3.11,0,0,0-.33-.88,1.67,1.67,0,0,0-.59-.56,2,2,0,0,0-1.72,0,1.67,1.67,0,0,0-.59.56,3.11,3.11,0,0,0-.33.88,5.69,5.69,0,0,0-.1,1.14v1.37a5.69,5.69,0,0,0,.1,1.14,3.16,3.16,0,0,0,.33.87,1.58,1.58,0,0,0,.59.56A1.76,1.76,0,0,0,314.4,353.27Zm0-2.75a.8.8,0,0,1-.58-.17.56.56,0,0,1-.16-.41v-.26a.56.56,0,0,1,.16-.41,1.07,1.07,0,0,1,1.16,0,.56.56,0,0,1,.16.41v.26a.56.56,0,0,1-.16.41A.8.8,0,0,1,314.4,350.52Z" fill="#6f6f6f"/>
                </g>
              </g>
              <rect id="Rectangle-Copy-2" x="326" y="241" width="351" height="1" fill="#e0e0e0"/>
              <g id="_20_000" data-name="20,000" style="isolation: isolate">
                <g style="isolation: isolate">
                  <path d="M281.24,246h-5.59v-1l2.8-2.52a6.56,6.56,0,0,0,1-1.14,2.14,2.14,0,0,0,.39-1.23v-.14a1.65,1.65,0,0,0-.39-1.17,1.56,1.56,0,0,0-1.18-.41,1.65,1.65,0,0,0-1.18.39,2.35,2.35,0,0,0-.62,1l-.9-.33a3.65,3.65,0,0,1,.33-.73,2.86,2.86,0,0,1,.53-.63,2.61,2.61,0,0,1,.79-.44,3.2,3.2,0,0,1,1.07-.17,3.15,3.15,0,0,1,1.11.18,2.31,2.31,0,0,1,.82.5,2.18,2.18,0,0,1,.5.77,2.58,2.58,0,0,1,.18,1,2.93,2.93,0,0,1-.14.9,3.73,3.73,0,0,1-.38.81,6.44,6.44,0,0,1-.59.75c-.23.24-.48.48-.76.72l-2.34,2h4.54Z" fill="#6f6f6f"/>
                  <path d="M285.6,246.14a2.74,2.74,0,0,1-1.32-.29,2.47,2.47,0,0,1-.91-.85,3.85,3.85,0,0,1-.53-1.35,10,10,0,0,1,0-3.67,3.91,3.91,0,0,1,.53-1.36,2.47,2.47,0,0,1,.91-.85,3.15,3.15,0,0,1,2.64,0,2.47,2.47,0,0,1,.91.85,3.91,3.91,0,0,1,.53,1.36,10,10,0,0,1,0,3.67,3.85,3.85,0,0,1-.53,1.35,2.47,2.47,0,0,1-.91.85A2.74,2.74,0,0,1,285.6,246.14Zm0-.87a1.76,1.76,0,0,0,.86-.2,1.58,1.58,0,0,0,.59-.56,3.16,3.16,0,0,0,.33-.87,5.69,5.69,0,0,0,.1-1.14v-1.37a5.69,5.69,0,0,0-.1-1.14,3.11,3.11,0,0,0-.33-.88,1.67,1.67,0,0,0-.59-.56,2,2,0,0,0-1.72,0,1.67,1.67,0,0,0-.59.56,3.11,3.11,0,0,0-.33.88,5.69,5.69,0,0,0-.1,1.14v1.37a5.69,5.69,0,0,0,.1,1.14,3.16,3.16,0,0,0,.33.87,1.58,1.58,0,0,0,.59.56A1.76,1.76,0,0,0,285.6,245.27Zm0-2.75a.8.8,0,0,1-.58-.17.56.56,0,0,1-.16-.41v-.26a.56.56,0,0,1,.16-.41,1.07,1.07,0,0,1,1.16,0,.56.56,0,0,1,.16.41v.26a.56.56,0,0,1-.16.41A.8.8,0,0,1,285.6,242.52Z" fill="#6f6f6f"/>
                  <path d="M292.28,244.37h1.55l-1.38,3.32h-.8Z" fill="#6f6f6f"/>
                  <path d="M300,246.14a2.74,2.74,0,0,1-1.32-.29,2.47,2.47,0,0,1-.91-.85,3.85,3.85,0,0,1-.53-1.35,10,10,0,0,1,0-3.67,3.91,3.91,0,0,1,.53-1.36,2.47,2.47,0,0,1,.91-.85,3.15,3.15,0,0,1,2.64,0,2.47,2.47,0,0,1,.91.85,3.91,3.91,0,0,1,.53,1.36,10,10,0,0,1,0,3.67,3.85,3.85,0,0,1-.53,1.35,2.47,2.47,0,0,1-.91.85A2.74,2.74,0,0,1,300,246.14Zm0-.87a1.79,1.79,0,0,0,.86-.2,1.58,1.58,0,0,0,.59-.56,3.16,3.16,0,0,0,.33-.87,5.69,5.69,0,0,0,.1-1.14v-1.37a5.69,5.69,0,0,0-.1-1.14,3.11,3.11,0,0,0-.33-.88,1.67,1.67,0,0,0-.59-.56,1.79,1.79,0,0,0-.86-.19,1.76,1.76,0,0,0-.86.19,1.67,1.67,0,0,0-.59.56,3.11,3.11,0,0,0-.33.88,5.69,5.69,0,0,0-.1,1.14v1.37a5.69,5.69,0,0,0,.1,1.14,3.16,3.16,0,0,0,.33.87,1.58,1.58,0,0,0,.59.56A1.76,1.76,0,0,0,300,245.27Zm0-2.75a.8.8,0,0,1-.58-.17.56.56,0,0,1-.16-.41v-.26a.56.56,0,0,1,.16-.41,1.07,1.07,0,0,1,1.16,0,.56.56,0,0,1,.16.41v.26a.56.56,0,0,1-.16.41A.8.8,0,0,1,300,242.52Z" fill="#6f6f6f"/>
                  <path d="M307.2,246.14a2.74,2.74,0,0,1-1.32-.29A2.47,2.47,0,0,1,305,245a3.85,3.85,0,0,1-.53-1.35,10,10,0,0,1,0-3.67,3.91,3.91,0,0,1,.53-1.36,2.47,2.47,0,0,1,.91-.85,3.15,3.15,0,0,1,2.64,0,2.47,2.47,0,0,1,.91.85A3.91,3.91,0,0,1,310,240a10,10,0,0,1,0,3.67,3.85,3.85,0,0,1-.53,1.35,2.47,2.47,0,0,1-.91.85A2.74,2.74,0,0,1,307.2,246.14Zm0-.87a1.76,1.76,0,0,0,.86-.2,1.58,1.58,0,0,0,.59-.56,3.16,3.16,0,0,0,.33-.87,5.69,5.69,0,0,0,.1-1.14v-1.37A5.69,5.69,0,0,0,309,240a3.11,3.11,0,0,0-.33-.88,1.67,1.67,0,0,0-.59-.56,2,2,0,0,0-1.72,0,1.67,1.67,0,0,0-.59.56,3.11,3.11,0,0,0-.33.88,5.69,5.69,0,0,0-.1,1.14v1.37a5.69,5.69,0,0,0,.1,1.14,3.16,3.16,0,0,0,.33.87,1.58,1.58,0,0,0,.59.56A1.76,1.76,0,0,0,307.2,245.27Zm0-2.75a.8.8,0,0,1-.58-.17.56.56,0,0,1-.16-.41v-.26a.56.56,0,0,1,.16-.41,1.07,1.07,0,0,1,1.16,0,.56.56,0,0,1,.16.41v.26a.56.56,0,0,1-.16.41A.8.8,0,0,1,307.2,242.52Z" fill="#6f6f6f"/>
                  <path d="M314.4,246.14a2.74,2.74,0,0,1-1.32-.29,2.47,2.47,0,0,1-.91-.85,3.85,3.85,0,0,1-.53-1.35,10,10,0,0,1,0-3.67,3.91,3.91,0,0,1,.53-1.36,2.47,2.47,0,0,1,.91-.85,3.15,3.15,0,0,1,2.64,0,2.47,2.47,0,0,1,.91.85,3.91,3.91,0,0,1,.53,1.36,10,10,0,0,1,0,3.67,3.85,3.85,0,0,1-.53,1.35,2.47,2.47,0,0,1-.91.85A2.74,2.74,0,0,1,314.4,246.14Zm0-.87a1.79,1.79,0,0,0,.86-.2,1.49,1.49,0,0,0,.58-.56,2.63,2.63,0,0,0,.33-.87,5,5,0,0,0,.11-1.14v-1.37a5,5,0,0,0-.11-1.14,2.61,2.61,0,0,0-.33-.88,1.56,1.56,0,0,0-.58-.56,1.79,1.79,0,0,0-.86-.19,1.74,1.74,0,0,0-.86.19,1.59,1.59,0,0,0-.59.56,2.84,2.84,0,0,0-.33.88,5.65,5.65,0,0,0-.11,1.14v1.37a5.65,5.65,0,0,0,.11,1.14,2.87,2.87,0,0,0,.33.87,1.51,1.51,0,0,0,.59.56A1.74,1.74,0,0,0,314.4,245.27Zm0-2.75a.79.79,0,0,1-.58-.17.56.56,0,0,1-.16-.41v-.26a.56.56,0,0,1,.16-.41.79.79,0,0,1,.58-.17.8.8,0,0,1,.58.17.56.56,0,0,1,.16.41v.26a.56.56,0,0,1-.16.41A.8.8,0,0,1,314.4,242.52Z" fill="#6f6f6f"/>
                </g>
              </g>
              <rect id="Rectangle-Copy-3" x="326" y="298" width="351" height="1" fill="#e0e0e0"/>
              <rect id="Rectangle-Copy" x="326" y="184" width="351" height="1" fill="#e0e0e0"/>
              <g id="_30_000" data-name="30,000" style="isolation: isolate">
                <g style="isolation: isolate">
                  <path d="M278,184.16a2,2,0,0,0,1.31-.38,1.26,1.26,0,0,0,.44-1v-.09a1.2,1.2,0,0,0-.42-1,1.79,1.79,0,0,0-1.11-.33,1.82,1.82,0,0,0-1.09.29,2.31,2.31,0,0,0-.68.77l-.75-.57a2.69,2.69,0,0,1,1.62-1.25,3.26,3.26,0,0,1,.92-.12,3.62,3.62,0,0,1,1,.14,2.38,2.38,0,0,1,.81.41,1.84,1.84,0,0,1,.55.66,2,2,0,0,1,.2.9,1.9,1.9,0,0,1-.13.73,1.61,1.61,0,0,1-.35.56,1.93,1.93,0,0,1-.52.41,2.44,2.44,0,0,1-.63.25v.05a3.32,3.32,0,0,1,.67.23,2.16,2.16,0,0,1,.57.42,2,2,0,0,1,.41.63,2.16,2.16,0,0,1,.15.83,2.33,2.33,0,0,1-.21,1,2.2,2.2,0,0,1-.59.76,2.67,2.67,0,0,1-.91.5,3.72,3.72,0,0,1-1.19.18,3.58,3.58,0,0,1-1-.12,2.76,2.76,0,0,1-.76-.32,3.36,3.36,0,0,1-.58-.46,3.49,3.49,0,0,1-.43-.52l.75-.58a4.27,4.27,0,0,0,.35.46,2.3,2.3,0,0,0,.41.35,1.87,1.87,0,0,0,.54.23,2.4,2.4,0,0,0,.69.09,2.06,2.06,0,0,0,1.37-.41,1.46,1.46,0,0,0,.47-1.16v-.1a1.44,1.44,0,0,0-.46-1.15,2.06,2.06,0,0,0-1.39-.41h-1v-.88Z" fill="#6f6f6f"/>
                  <path d="M285.6,189.14a2.74,2.74,0,0,1-1.32-.29,2.47,2.47,0,0,1-.91-.85,3.85,3.85,0,0,1-.53-1.35,10,10,0,0,1,0-3.67,3.91,3.91,0,0,1,.53-1.36,2.47,2.47,0,0,1,.91-.85,3.15,3.15,0,0,1,2.64,0,2.47,2.47,0,0,1,.91.85,3.91,3.91,0,0,1,.53,1.36,10,10,0,0,1,0,3.67,3.85,3.85,0,0,1-.53,1.35,2.47,2.47,0,0,1-.91.85A2.74,2.74,0,0,1,285.6,189.14Zm0-.87a1.76,1.76,0,0,0,.86-.2,1.58,1.58,0,0,0,.59-.56,3.16,3.16,0,0,0,.33-.87,5.69,5.69,0,0,0,.1-1.14v-1.37a5.69,5.69,0,0,0-.1-1.14,3.11,3.11,0,0,0-.33-.88,1.67,1.67,0,0,0-.59-.56,2,2,0,0,0-1.72,0,1.67,1.67,0,0,0-.59.56,3.11,3.11,0,0,0-.33.88,5.69,5.69,0,0,0-.1,1.14v1.37a5.69,5.69,0,0,0,.1,1.14,3.16,3.16,0,0,0,.33.87,1.58,1.58,0,0,0,.59.56A1.76,1.76,0,0,0,285.6,188.27Zm0-2.75a.8.8,0,0,1-.58-.17.56.56,0,0,1-.16-.41v-.26a.56.56,0,0,1,.16-.41,1.07,1.07,0,0,1,1.16,0,.56.56,0,0,1,.16.41v.26a.56.56,0,0,1-.16.41A.8.8,0,0,1,285.6,185.52Z" fill="#6f6f6f"/>
                  <path d="M292.28,187.37h1.55l-1.38,3.32h-.8Z" fill="#6f6f6f"/>
                  <path d="M300,189.14a2.74,2.74,0,0,1-1.32-.29,2.47,2.47,0,0,1-.91-.85,3.85,3.85,0,0,1-.53-1.35,10,10,0,0,1,0-3.67,3.91,3.91,0,0,1,.53-1.36,2.47,2.47,0,0,1,.91-.85,3.15,3.15,0,0,1,2.64,0,2.47,2.47,0,0,1,.91.85,3.91,3.91,0,0,1,.53,1.36,10,10,0,0,1,0,3.67,3.85,3.85,0,0,1-.53,1.35,2.47,2.47,0,0,1-.91.85A2.74,2.74,0,0,1,300,189.14Zm0-.87a1.79,1.79,0,0,0,.86-.2,1.58,1.58,0,0,0,.59-.56,3.16,3.16,0,0,0,.33-.87,5.69,5.69,0,0,0,.1-1.14v-1.37a5.69,5.69,0,0,0-.1-1.14,3.11,3.11,0,0,0-.33-.88,1.67,1.67,0,0,0-.59-.56,1.79,1.79,0,0,0-.86-.19,1.76,1.76,0,0,0-.86.19,1.67,1.67,0,0,0-.59.56,3.11,3.11,0,0,0-.33.88,5.69,5.69,0,0,0-.1,1.14v1.37a5.69,5.69,0,0,0,.1,1.14,3.16,3.16,0,0,0,.33.87,1.58,1.58,0,0,0,.59.56A1.76,1.76,0,0,0,300,188.27Zm0-2.75a.8.8,0,0,1-.58-.17.56.56,0,0,1-.16-.41v-.26a.56.56,0,0,1,.16-.41,1.07,1.07,0,0,1,1.16,0,.56.56,0,0,1,.16.41v.26a.56.56,0,0,1-.16.41A.8.8,0,0,1,300,185.52Z" fill="#6f6f6f"/>
                  <path d="M307.2,189.14a2.74,2.74,0,0,1-1.32-.29A2.47,2.47,0,0,1,305,188a3.85,3.85,0,0,1-.53-1.35,10,10,0,0,1,0-3.67,3.91,3.91,0,0,1,.53-1.36,2.47,2.47,0,0,1,.91-.85,3.15,3.15,0,0,1,2.64,0,2.47,2.47,0,0,1,.91.85A3.91,3.91,0,0,1,310,183a10,10,0,0,1,0,3.67,3.85,3.85,0,0,1-.53,1.35,2.47,2.47,0,0,1-.91.85A2.74,2.74,0,0,1,307.2,189.14Zm0-.87a1.76,1.76,0,0,0,.86-.2,1.58,1.58,0,0,0,.59-.56,3.16,3.16,0,0,0,.33-.87,5.69,5.69,0,0,0,.1-1.14v-1.37A5.69,5.69,0,0,0,309,183a3.11,3.11,0,0,0-.33-.88,1.67,1.67,0,0,0-.59-.56,2,2,0,0,0-1.72,0,1.67,1.67,0,0,0-.59.56,3.11,3.11,0,0,0-.33.88,5.69,5.69,0,0,0-.1,1.14v1.37a5.69,5.69,0,0,0,.1,1.14,3.16,3.16,0,0,0,.33.87,1.58,1.58,0,0,0,.59.56A1.76,1.76,0,0,0,307.2,188.27Zm0-2.75a.8.8,0,0,1-.58-.17.56.56,0,0,1-.16-.41v-.26a.56.56,0,0,1,.16-.41,1.07,1.07,0,0,1,1.16,0,.56.56,0,0,1,.16.41v.26a.56.56,0,0,1-.16.41A.8.8,0,0,1,307.2,185.52Z" fill="#6f6f6f"/>
                  <path d="M314.4,189.14a2.74,2.74,0,0,1-1.32-.29,2.47,2.47,0,0,1-.91-.85,3.85,3.85,0,0,1-.53-1.35,10,10,0,0,1,0-3.67,3.91,3.91,0,0,1,.53-1.36,2.47,2.47,0,0,1,.91-.85,3.15,3.15,0,0,1,2.64,0,2.47,2.47,0,0,1,.91.85,3.91,3.91,0,0,1,.53,1.36,10,10,0,0,1,0,3.67,3.85,3.85,0,0,1-.53,1.35,2.47,2.47,0,0,1-.91.85A2.74,2.74,0,0,1,314.4,189.14Zm0-.87a1.79,1.79,0,0,0,.86-.2,1.49,1.49,0,0,0,.58-.56,2.63,2.63,0,0,0,.33-.87,5,5,0,0,0,.11-1.14v-1.37a5,5,0,0,0-.11-1.14,2.61,2.61,0,0,0-.33-.88,1.56,1.56,0,0,0-.58-.56,1.79,1.79,0,0,0-.86-.19,1.74,1.74,0,0,0-.86.19,1.59,1.59,0,0,0-.59.56,2.84,2.84,0,0,0-.33.88,5.65,5.65,0,0,0-.11,1.14v1.37a5.65,5.65,0,0,0,.11,1.14,2.87,2.87,0,0,0,.33.87,1.51,1.51,0,0,0,.59.56A1.74,1.74,0,0,0,314.4,188.27Zm0-2.75a.79.79,0,0,1-.58-.17.56.56,0,0,1-.16-.41v-.26a.56.56,0,0,1,.16-.41.79.79,0,0,1,.58-.17.8.8,0,0,1,.58.17.56.56,0,0,1,.16.41v.26a.56.56,0,0,1-.16.41A.8.8,0,0,1,314.4,185.52Z" fill="#6f6f6f"/>
                </g>
              </g>
              <g id="_40_000" data-name="40,000" style="isolation: isolate">
                <g style="isolation: isolate">
                  <path d="M279.34,139v-1.64h-4.13v-.89l3.62-5.85h1.47v5.91h1.24v.83H280.3V139Zm-3.23-2.47h3.23V131.4h0Z" fill="#6f6f6f"/>
                  <path d="M285.6,139.14a2.74,2.74,0,0,1-1.32-.29,2.47,2.47,0,0,1-.91-.85,3.85,3.85,0,0,1-.53-1.35,10,10,0,0,1,0-3.67,3.91,3.91,0,0,1,.53-1.36,2.47,2.47,0,0,1,.91-.85,3.15,3.15,0,0,1,2.64,0,2.47,2.47,0,0,1,.91.85,3.91,3.91,0,0,1,.53,1.36,10,10,0,0,1,0,3.67,3.85,3.85,0,0,1-.53,1.35,2.47,2.47,0,0,1-.91.85A2.74,2.74,0,0,1,285.6,139.14Zm0-.87a1.76,1.76,0,0,0,.86-.2,1.58,1.58,0,0,0,.59-.56,3.16,3.16,0,0,0,.33-.87,5.69,5.69,0,0,0,.1-1.14v-1.37a5.69,5.69,0,0,0-.1-1.14,3.11,3.11,0,0,0-.33-.88,1.67,1.67,0,0,0-.59-.56,2,2,0,0,0-1.72,0,1.67,1.67,0,0,0-.59.56,3.11,3.11,0,0,0-.33.88,5.69,5.69,0,0,0-.1,1.14v1.37a5.69,5.69,0,0,0,.1,1.14,3.16,3.16,0,0,0,.33.87,1.58,1.58,0,0,0,.59.56A1.76,1.76,0,0,0,285.6,138.27Zm0-2.75a.8.8,0,0,1-.58-.17.56.56,0,0,1-.16-.41v-.26a.56.56,0,0,1,.16-.41,1.07,1.07,0,0,1,1.16,0,.56.56,0,0,1,.16.41v.26a.56.56,0,0,1-.16.41A.8.8,0,0,1,285.6,135.52Z" fill="#6f6f6f"/>
                  <path d="M292.28,137.37h1.55l-1.38,3.32h-.8Z" fill="#6f6f6f"/>
                  <path d="M300,139.14a2.74,2.74,0,0,1-1.32-.29,2.47,2.47,0,0,1-.91-.85,3.85,3.85,0,0,1-.53-1.35,10,10,0,0,1,0-3.67,3.91,3.91,0,0,1,.53-1.36,2.47,2.47,0,0,1,.91-.85,3.15,3.15,0,0,1,2.64,0,2.47,2.47,0,0,1,.91.85,3.91,3.91,0,0,1,.53,1.36,10,10,0,0,1,0,3.67,3.85,3.85,0,0,1-.53,1.35,2.47,2.47,0,0,1-.91.85A2.74,2.74,0,0,1,300,139.14Zm0-.87a1.79,1.79,0,0,0,.86-.2,1.58,1.58,0,0,0,.59-.56,3.16,3.16,0,0,0,.33-.87,5.69,5.69,0,0,0,.1-1.14v-1.37a5.69,5.69,0,0,0-.1-1.14,3.11,3.11,0,0,0-.33-.88,1.67,1.67,0,0,0-.59-.56,1.79,1.79,0,0,0-.86-.19,1.76,1.76,0,0,0-.86.19,1.67,1.67,0,0,0-.59.56,3.11,3.11,0,0,0-.33.88,5.69,5.69,0,0,0-.1,1.14v1.37a5.69,5.69,0,0,0,.1,1.14,3.16,3.16,0,0,0,.33.87,1.58,1.58,0,0,0,.59.56A1.76,1.76,0,0,0,300,138.27Zm0-2.75a.8.8,0,0,1-.58-.17.56.56,0,0,1-.16-.41v-.26a.56.56,0,0,1,.16-.41,1.07,1.07,0,0,1,1.16,0,.56.56,0,0,1,.16.41v.26a.56.56,0,0,1-.16.41A.8.8,0,0,1,300,135.52Z" fill="#6f6f6f"/>
                  <path d="M307.2,139.14a2.74,2.74,0,0,1-1.32-.29A2.47,2.47,0,0,1,305,138a3.85,3.85,0,0,1-.53-1.35,10,10,0,0,1,0-3.67,3.91,3.91,0,0,1,.53-1.36,2.47,2.47,0,0,1,.91-.85,3.15,3.15,0,0,1,2.64,0,2.47,2.47,0,0,1,.91.85A3.91,3.91,0,0,1,310,133a10,10,0,0,1,0,3.67,3.85,3.85,0,0,1-.53,1.35,2.47,2.47,0,0,1-.91.85A2.74,2.74,0,0,1,307.2,139.14Zm0-.87a1.76,1.76,0,0,0,.86-.2,1.58,1.58,0,0,0,.59-.56,3.16,3.16,0,0,0,.33-.87,5.69,5.69,0,0,0,.1-1.14v-1.37A5.69,5.69,0,0,0,309,133a3.11,3.11,0,0,0-.33-.88,1.67,1.67,0,0,0-.59-.56,2,2,0,0,0-1.72,0,1.67,1.67,0,0,0-.59.56,3.11,3.11,0,0,0-.33.88,5.69,5.69,0,0,0-.1,1.14v1.37a5.69,5.69,0,0,0,.1,1.14,3.16,3.16,0,0,0,.33.87,1.58,1.58,0,0,0,.59.56A1.76,1.76,0,0,0,307.2,138.27Zm0-2.75a.8.8,0,0,1-.58-.17.56.56,0,0,1-.16-.41v-.26a.56.56,0,0,1,.16-.41,1.07,1.07,0,0,1,1.16,0,.56.56,0,0,1,.16.41v.26a.56.56,0,0,1-.16.41A.8.8,0,0,1,307.2,135.52Z" fill="#6f6f6f"/>
                  <path d="M314.4,139.14a2.74,2.74,0,0,1-1.32-.29,2.47,2.47,0,0,1-.91-.85,3.85,3.85,0,0,1-.53-1.35,10,10,0,0,1,0-3.67,3.91,3.91,0,0,1,.53-1.36,2.47,2.47,0,0,1,.91-.85,3.15,3.15,0,0,1,2.64,0,2.47,2.47,0,0,1,.91.85,3.91,3.91,0,0,1,.53,1.36,10,10,0,0,1,0,3.67,3.85,3.85,0,0,1-.53,1.35,2.47,2.47,0,0,1-.91.85A2.74,2.74,0,0,1,314.4,139.14Zm0-.87a1.79,1.79,0,0,0,.86-.2,1.49,1.49,0,0,0,.58-.56,2.63,2.63,0,0,0,.33-.87,5,5,0,0,0,.11-1.14v-1.37a5,5,0,0,0-.11-1.14,2.61,2.61,0,0,0-.33-.88,1.56,1.56,0,0,0-.58-.56,1.79,1.79,0,0,0-.86-.19,1.74,1.74,0,0,0-.86.19,1.59,1.59,0,0,0-.59.56,2.84,2.84,0,0,0-.33.88,5.65,5.65,0,0,0-.11,1.14v1.37a5.65,5.65,0,0,0,.11,1.14,2.87,2.87,0,0,0,.33.87,1.51,1.51,0,0,0,.59.56A1.74,1.74,0,0,0,314.4,138.27Zm0-2.75a.79.79,0,0,1-.58-.17.56.56,0,0,1-.16-.41v-.26a.56.56,0,0,1,.16-.41.79.79,0,0,1,.58-.17.8.8,0,0,1,.58.17.56.56,0,0,1,.16.41v.26a.56.56,0,0,1-.16.41A.8.8,0,0,1,314.4,135.52Z" fill="#6f6f6f"/>
                </g>
              </g>
            </g>
            <g id="ylabel" style="isolation: isolate">
              <g style="isolation: isolate">
                <path d="M262,258.14l-8.38,2.79v-1.08l4.23-1.38,3.14-.93v-.06l-3.14-1-4.23-1.39v-1l8.38,2.82Z" fill="#171717"/>
                <path d="M254.36,252.36a.58.58,0,0,1-.15.45.56.56,0,0,1-.39.14h-.16a.56.56,0,0,1-.39-.14.75.75,0,0,1,0-.9.56.56,0,0,1,.39-.14h.16a.56.56,0,0,1,.39.14A.58.58,0,0,1,254.36,252.36Zm1.45.48v-1H262v1Z" fill="#171717"/>
                <path d="M262.14,248a2.87,2.87,0,0,1-.33,1.44,3.26,3.26,0,0,1-.88,1l-.55-.69a2.75,2.75,0,0,0,.7-.8,2,2,0,0,0,.25-1,1.52,1.52,0,0,0-.27-1,.86.86,0,0,0-.74-.34.91.91,0,0,0-.62.23,1.44,1.44,0,0,0-.35.85l-.07.49a4.35,4.35,0,0,1-.19.79,2.12,2.12,0,0,1-.34.63,1.42,1.42,0,0,1-.52.42,1.68,1.68,0,0,1-.74.15,1.81,1.81,0,0,1-.8-.16,1.64,1.64,0,0,1-.57-.47,1.91,1.91,0,0,1-.34-.7,3,3,0,0,1-.12-.87,2.59,2.59,0,0,1,1-2.16l.58.63a2,2,0,0,0-.53.6,2,2,0,0,0-.23,1,1.36,1.36,0,0,0,.26.9.84.84,0,0,0,.7.31.73.73,0,0,0,.66-.31,2.1,2.1,0,0,0,.3-.88l.07-.48a2.55,2.55,0,0,1,.6-1.46,1.54,1.54,0,0,1,1.14-.43,1.76,1.76,0,0,1,1.42.61A2.55,2.55,0,0,1,262.14,248Z" fill="#171717"/>
                <path d="M254.36,243.51a.58.58,0,0,1-.15.45.52.52,0,0,1-.39.14h-.16a.52.52,0,0,1-.39-.14.58.58,0,0,1-.15-.45.61.61,0,0,1,.15-.45.56.56,0,0,1,.39-.13h.16a.56.56,0,0,1,.39.13A.61.61,0,0,1,254.36,243.51Zm1.45.48v-1H262v1Z" fill="#171717"/>
                <path d="M262,239.63a1,1,0,0,1-.28.76,1.06,1.06,0,0,1-.74.26h-4.32v1h-.85v-.58a.55.55,0,0,0-.13-.43.69.69,0,0,0-.44-.11h-1.15v-.86h1.72v-1.36h.85v1.36h4.49v-1.26H262Z" fill="#171717"/>
                <path d="M262.14,234.49a2.79,2.79,0,0,1-.22,1.14,2.49,2.49,0,0,1-.66.88,2.82,2.82,0,0,1-1,.57,4,4,0,0,1-1.34.21,4,4,0,0,1-1.33-.21,2.82,2.82,0,0,1-1-.57,2.38,2.38,0,0,1-.66-.88,2.8,2.8,0,0,1-.23-1.14,2.75,2.75,0,0,1,.23-1.13,2.5,2.5,0,0,1,.66-.89,3,3,0,0,1,1-.57,4,4,0,0,1,1.33-.21,4,4,0,0,1,1.34.21,3,3,0,0,1,1,.57,2.62,2.62,0,0,1,.66.89A2.75,2.75,0,0,1,262.14,234.49Zm-.85,0a1.74,1.74,0,0,0-.48-1.27,2,2,0,0,0-1.46-.49h-.89a1.94,1.94,0,0,0-1.46.49,1.92,1.92,0,0,0,0,2.54,1.94,1.94,0,0,0,1.46.49h.89a2,2,0,0,0,1.46-.49A1.74,1.74,0,0,0,261.29,234.49Z" fill="#171717"/>
                <path d="M262,230.11h-6.19v-1H257v-.06a1.79,1.79,0,0,1-1.14-1.79v-.37h1v.56a2.22,2.22,0,0,0,.29,1.22.88.88,0,0,0,.74.44H262Z" fill="#171717"/>
                <path d="M262.14,223.85a2.89,2.89,0,0,1-.33,1.44,3.23,3.23,0,0,1-.88,1l-.55-.68a2.75,2.75,0,0,0,.7-.8,2.05,2.05,0,0,0,.25-1,1.51,1.51,0,0,0-.27-1,.86.86,0,0,0-.74-.34.91.91,0,0,0-.62.23,1.44,1.44,0,0,0-.35.85l-.07.49a4.35,4.35,0,0,1-.19.79,2.12,2.12,0,0,1-.34.63,1.42,1.42,0,0,1-.52.42,1.68,1.68,0,0,1-.74.15,1.81,1.81,0,0,1-.8-.16,1.64,1.64,0,0,1-.57-.47,1.91,1.91,0,0,1-.34-.7,3.07,3.07,0,0,1-.12-.88,2.67,2.67,0,0,1,.27-1.26,2.84,2.84,0,0,1,.73-.9l.58.64a2,2,0,0,0-.53.6,2,2,0,0,0-.23,1,1.36,1.36,0,0,0,.26.9.84.84,0,0,0,.7.31.73.73,0,0,0,.66-.31,2.15,2.15,0,0,0,.3-.88l.07-.48a2.52,2.52,0,0,1,.6-1.46,1.54,1.54,0,0,1,1.14-.44,1.77,1.77,0,0,1,1.42.62A2.52,2.52,0,0,1,262.14,223.85Z" fill="#171717"/>
              </g>
            </g>
          </g>
          <g id="ticks-2" data-name="ticks">
            <rect id="Rectangle-3" data-name="Rectangle" x="326" y="354" width="352" height="1" fill="#8c8c8c"/>
            <rect id="Rectangle-Copy-12" x="326" y="128" width="1" height="226" fill="#8c8c8c"/>
          </g>
          <g id="Y-label" style="isolation: isolate">
            <g style="isolation: isolate">
              <path d="M489.57,388.94h-.06l-.71,1.41-2,3.65-2-3.65-.71-1.41H484V396h-1v-8.38h1.34l2.4,4.52h.06l2.42-4.52h1.29V396h-1Z" fill="#171717"/>
              <path d="M495,396.14a2.79,2.79,0,0,1-1.14-.22,2.4,2.4,0,0,1-.88-.66,2.82,2.82,0,0,1-.57-1,4,4,0,0,1-.21-1.34,4,4,0,0,1,.21-1.33,2.82,2.82,0,0,1,.57-1,2.3,2.3,0,0,1,.88-.66,2.92,2.92,0,0,1,2.27,0,2.38,2.38,0,0,1,.88.66,3,3,0,0,1,.58,1,4,4,0,0,1,.2,1.33,4,4,0,0,1-.2,1.34,3,3,0,0,1-.58,1,2.49,2.49,0,0,1-.88.66A2.78,2.78,0,0,1,495,396.14Zm0-.85a1.74,1.74,0,0,0,1.27-.48,2,2,0,0,0,.49-1.46v-.89a1.94,1.94,0,0,0-.49-1.46,1.92,1.92,0,0,0-2.54,0,1.94,1.94,0,0,0-.5,1.46v.89a2,2,0,0,0,.5,1.46A1.73,1.73,0,0,0,495,395.29Z" fill="#171717"/>
              <path d="M499.41,396v-6.19h1v1h.05a2,2,0,0,1,.64-.83,1.83,1.83,0,0,1,1.11-.31,2,2,0,0,1,1.52.62,2.53,2.53,0,0,1,.55,1.75v4h-1v-3.81c0-1.12-.46-1.67-1.4-1.67a2.1,2.1,0,0,0-.56.07,1.75,1.75,0,0,0-.48.21,1.12,1.12,0,0,0-.35.37,1.08,1.08,0,0,0-.12.52V396Z" fill="#171717"/>
              <path d="M507.59,396a1,1,0,0,1-.76-.28,1.06,1.06,0,0,1-.26-.74v-4.32h-1v-.85h.58a.51.51,0,0,0,.42-.13.63.63,0,0,0,.12-.44v-1.15h.86v1.72h1.36v.85h-1.36v4.49h1.26V396Z" fill="#171717"/>
              <path d="M510.44,387.12h1v3.68h0a2.15,2.15,0,0,1,.65-.83,1.83,1.83,0,0,1,1.11-.31,1.93,1.93,0,0,1,1.51.62,2.49,2.49,0,0,1,.56,1.75v4h-1v-3.81c0-1.12-.47-1.67-1.4-1.67a2.1,2.1,0,0,0-.56.07,2,2,0,0,0-.49.21,1.2,1.2,0,0,0-.34.37,1.08,1.08,0,0,0-.12.52V396h-1Z" fill="#171717"/>
              <path d="M519.11,396.14a2.87,2.87,0,0,1-1.44-.33,3.26,3.26,0,0,1-1-.88l.69-.55a2.75,2.75,0,0,0,.8.7,2,2,0,0,0,1,.25,1.52,1.52,0,0,0,1-.27.86.86,0,0,0,.34-.74.91.91,0,0,0-.23-.62,1.44,1.44,0,0,0-.85-.35l-.49-.07a4.35,4.35,0,0,1-.79-.19,2.12,2.12,0,0,1-.63-.34,1.42,1.42,0,0,1-.42-.52,1.55,1.55,0,0,1-.15-.74,1.81,1.81,0,0,1,.16-.8,1.64,1.64,0,0,1,.47-.57,1.91,1.91,0,0,1,.7-.34,3,3,0,0,1,.87-.12,2.59,2.59,0,0,1,2.16,1l-.63.58a2,2,0,0,0-.6-.53,2,2,0,0,0-1-.23,1.36,1.36,0,0,0-.9.26.84.84,0,0,0-.31.7.73.73,0,0,0,.31.66,2.1,2.1,0,0,0,.88.3l.48.07a2.55,2.55,0,0,1,1.46.6,1.54,1.54,0,0,1,.43,1.14,1.76,1.76,0,0,1-.61,1.42A2.55,2.55,0,0,1,519.11,396.14Z" fill="#171717"/>
            </g>
          </g>
          <g id="January" style="isolation: isolate">
            <g style="isolation: isolate">
              <path d="M346.61,364.62v6.46a2.13,2.13,0,0,1-.16.86,1.83,1.83,0,0,1-.44.65,2,2,0,0,1-.69.41,2.5,2.5,0,0,1-.88.14,2.06,2.06,0,0,1-1.49-.51,2.45,2.45,0,0,1-.67-1.33l.86-.22a1.84,1.84,0,0,0,.4.88,1.13,1.13,0,0,0,.9.33,1.15,1.15,0,0,0,.89-.34,1.52,1.52,0,0,0,.32-1.05v-5.42h-2.57v-.86Z" fill="#6f6f6f"/>
              <path d="M352.37,373a.79.79,0,0,1-.89-.9V372h-.12a1.49,1.49,0,0,1-.57.87,1.72,1.72,0,0,1-1,.29,1.79,1.79,0,0,1-1.34-.45,1.85,1.85,0,0,1-.45-1.35,1.72,1.72,0,0,1,.57-1.36,2.63,2.63,0,0,1,1.78-.51h1.12v-.68a1.4,1.4,0,0,0-.31-1,1.24,1.24,0,0,0-1-.32,1.44,1.44,0,0,0-.87.23,2,2,0,0,0-.57.68l-.54-.51A2.05,2.05,0,0,1,349,367a2.2,2.2,0,0,1,1.24-.34,2.29,2.29,0,0,1,1.61.51,2,2,0,0,1,.54,1.5v3.51H353v.8Zm-2.34-.66a1.58,1.58,0,0,0,.58-.11,1.42,1.42,0,0,0,.46-.28,1.14,1.14,0,0,0,.3-.39,1.07,1.07,0,0,0,.11-.46v-.93h-1.14a1.81,1.81,0,0,0-1,.24.8.8,0,0,0-.33.69v.33a.83.83,0,0,0,.29.69A1.23,1.23,0,0,0,350,372.34Z" fill="#6f6f6f"/>
              <path d="M354.25,373v-6.19h.91v1h.12a1.48,1.48,0,0,1,1.59-1.16,1.61,1.61,0,0,1,1.3.57,2.62,2.62,0,0,1,.47,1.74v4h-.91v-4a1.84,1.84,0,0,0-.3-1.14,1.12,1.12,0,0,0-.95-.4,1.34,1.34,0,0,0-.93.34,1.18,1.18,0,0,0-.39.95V373Z" fill="#6f6f6f"/>
              <path d="M363.83,372h-.12a1.72,1.72,0,0,1-.56.87,1.68,1.68,0,0,1-1,.28,1.6,1.6,0,0,1-1.3-.56,2.72,2.72,0,0,1-.47-1.74v-4h.91v4a1.78,1.78,0,0,0,.31,1.14,1.11,1.11,0,0,0,.94.4,1.36,1.36,0,0,0,.93-.34,1.18,1.18,0,0,0,.39-1v-4.22h.91V373h-.91Z" fill="#6f6f6f"/>
              <path d="M370.48,373a.79.79,0,0,1-.89-.9V372h-.12a1.59,1.59,0,0,1-.57.87,1.72,1.72,0,0,1-1,.29,1.83,1.83,0,0,1-1.35-.45,1.89,1.89,0,0,1-.44-1.35,1.72,1.72,0,0,1,.57-1.36,2.61,2.61,0,0,1,1.78-.51h1.12v-.68a1.4,1.4,0,0,0-.31-1,1.25,1.25,0,0,0-1-.32,1.44,1.44,0,0,0-.87.23,2,2,0,0,0-.57.68l-.55-.51a2.2,2.2,0,0,1,.77-.84,2.63,2.63,0,0,1,2.85.17,1.93,1.93,0,0,1,.55,1.5v3.51h.62v.8Zm-2.34-.66a1.62,1.62,0,0,0,.58-.11,1.42,1.42,0,0,0,.46-.28,1.14,1.14,0,0,0,.3-.39,1.07,1.07,0,0,0,.11-.46v-.93h-1.14a1.81,1.81,0,0,0-1.05.24.8.8,0,0,0-.33.69v.33a.8.8,0,0,0,.29.69A1.23,1.23,0,0,0,368.14,372.34Z" fill="#6f6f6f"/>
              <path d="M372.36,373v-6.19h.91V368h.12a1.72,1.72,0,0,1,.53-.85,1.59,1.59,0,0,1,1-.3h.33v.92h-.6a1.6,1.6,0,0,0-1,.29,1,1,0,0,0-.37.86V373Z" fill="#6f6f6f"/>
              <path d="M379.88,366.81h.89l-2.45,7.77a2.38,2.38,0,0,1-.15.41.87.87,0,0,1-.21.25.79.79,0,0,1-.3.12,1.83,1.83,0,0,1-.44,0h-.67v-.8h.95l.36-1.26-2.06-6.53h.91l1,3.12.58,2.27h.12l.58-2.27Z" fill="#6f6f6f"/>
            </g>
          </g>
          <g id="February" style="isolation: isolate">
            <g style="isolation: isolate">
              <path d="M410.75,373v-8.38h4.52v.86h-3.56v2.85H415v.85h-3.24V373Z" fill="#6f6f6f"/>
              <path d="M418.52,373.14a2.83,2.83,0,0,1-1-.18,2,2,0,0,1-.8-.57,3,3,0,0,1-.53-1,5.82,5.82,0,0,1,0-2.95,2.92,2.92,0,0,1,.53-1,2,2,0,0,1,.8-.58,2.83,2.83,0,0,1,1-.18,2.64,2.64,0,0,1,1,.18,1.8,1.8,0,0,1,.76.58,2.88,2.88,0,0,1,.49,1,5.3,5.3,0,0,1,.17,1.47v.23h-4v.4a1.93,1.93,0,0,0,.42,1.36,1.45,1.45,0,0,0,1.14.45,1.76,1.76,0,0,0,1-.27,1.81,1.81,0,0,0,.63-.81l.62.46a2.5,2.5,0,0,1-.85,1A2.41,2.41,0,0,1,418.52,373.14Zm0-5.71a1.46,1.46,0,0,0-1.15.47,2,2,0,0,0-.41,1.38v.16h3v-.16C420,368.05,419.48,367.43,418.52,367.43Z" fill="#6f6f6f"/>
              <path d="M422.35,364.12h.91v3.68h.12a1.56,1.56,0,0,1,.58-.87,1.73,1.73,0,0,1,1-.27,1.95,1.95,0,0,1,1.68.88,3,3,0,0,1,.43,1,6.11,6.11,0,0,1,0,2.69,3,3,0,0,1-.43,1,2.1,2.1,0,0,1-.71.65,2,2,0,0,1-1,.22,1.81,1.81,0,0,1-1-.26,1.56,1.56,0,0,1-.58-.88h-.12v1h-.91Zm2.32,8.22a1.42,1.42,0,0,0,1.15-.48,2,2,0,0,0,.39-1.33v-1.25a2.08,2.08,0,0,0-.39-1.34,1.44,1.44,0,0,0-1.15-.47,1.92,1.92,0,0,0-.55.08,1.43,1.43,0,0,0-.44.24,1.1,1.1,0,0,0-.3.38,1,1,0,0,0-.12.48v2.51a1.12,1.12,0,0,0,.42.85,1.26,1.26,0,0,0,.44.25A1.92,1.92,0,0,0,424.67,372.34Z" fill="#6f6f6f"/>
              <path d="M428.64,373v-6.19h.91V368h.12a1.66,1.66,0,0,1,.53-.85,1.58,1.58,0,0,1,1-.3h.34v.92h-.6a1.6,1.6,0,0,0-1,.29,1,1,0,0,0-.37.86V373Z" fill="#6f6f6f"/>
              <path d="M436,372h-.12a1.46,1.46,0,0,1-1.58,1.15,1.59,1.59,0,0,1-1.3-.56,2.66,2.66,0,0,1-.48-1.74v-4h.91v4a1.84,1.84,0,0,0,.31,1.14,1.12,1.12,0,0,0,.94.4,1.41,1.41,0,0,0,.94-.34,1.21,1.21,0,0,0,.38-1v-4.22H437V373H436Z" fill="#6f6f6f"/>
              <path d="M442.69,373a.79.79,0,0,1-.89-.9V372h-.12a1.49,1.49,0,0,1-.57.87,1.72,1.72,0,0,1-1,.29,1.79,1.79,0,0,1-1.34-.45,1.85,1.85,0,0,1-.45-1.35,1.72,1.72,0,0,1,.57-1.36,2.64,2.64,0,0,1,1.79-.51h1.11v-.68a1.45,1.45,0,0,0-.3-1,1.28,1.28,0,0,0-1-.32,1.44,1.44,0,0,0-.87.23,2,2,0,0,0-.57.68l-.54-.51a2.05,2.05,0,0,1,.77-.84,2.21,2.21,0,0,1,1.25-.34,2.28,2.28,0,0,1,1.6.51,2,2,0,0,1,.54,1.5v3.51h.63v.8Zm-2.34-.66a1.58,1.58,0,0,0,.58-.11,1.32,1.32,0,0,0,.46-.28,1.14,1.14,0,0,0,.3-.39,1,1,0,0,0,.11-.46v-.93h-1.14a1.81,1.81,0,0,0-1.05.24.8.8,0,0,0-.33.69v.33a.83.83,0,0,0,.29.69A1.23,1.23,0,0,0,440.35,372.34Z" fill="#6f6f6f"/>
              <path d="M444.57,373v-6.19h.92V368h.12a1.66,1.66,0,0,1,.53-.85,1.54,1.54,0,0,1,1-.3h.33v.92h-.59a1.61,1.61,0,0,0-1,.29,1,1,0,0,0-.36.86V373Z" fill="#6f6f6f"/>
              <path d="M452.1,366.81H453l-2.45,7.77a2.34,2.34,0,0,1-.16.41.74.74,0,0,1-.21.25.68.68,0,0,1-.3.12,1.83,1.83,0,0,1-.44,0h-.67v-.8h.95l.36-1.26L448,366.81h.91l.95,3.12.57,2.27h.12l.58-2.27Z" fill="#6f6f6f"/>
            </g>
          </g>
          <g id="March" style="isolation: isolate">
            <g style="isolation: isolate">
              <path d="M493.34,367.25l.08-1.44h-.12l-.62,1.44-1.8,3.7-1.8-3.7-.62-1.41h-.12l.08,1.41V373h-.94v-8.38h1.28l1.51,3.26.56,1.54h.1l.56-1.54,1.51-3.26h1.28V373h-.94Z" fill="#6f6f6f"/>
              <path d="M500.08,373a.79.79,0,0,1-.88-.9V372h-.12a1.59,1.59,0,0,1-.57.87,1.72,1.72,0,0,1-1,.29,1.83,1.83,0,0,1-1.35-.45,1.89,1.89,0,0,1-.44-1.35,1.72,1.72,0,0,1,.57-1.36,2.61,2.61,0,0,1,1.78-.51h1.12v-.68a1.45,1.45,0,0,0-.31-1,1.26,1.26,0,0,0-1-.32,1.44,1.44,0,0,0-.87.23,2,2,0,0,0-.57.68l-.54-.51a2.12,2.12,0,0,1,.77-.84,2.23,2.23,0,0,1,1.25-.34,2.26,2.26,0,0,1,1.6.51,1.93,1.93,0,0,1,.55,1.5v3.51h.62v.8Zm-2.34-.66a1.63,1.63,0,0,0,.59-.11,1.42,1.42,0,0,0,.46-.28,1.14,1.14,0,0,0,.3-.39,1.07,1.07,0,0,0,.11-.46v-.93h-1.14a1.81,1.81,0,0,0-1.05.24.8.8,0,0,0-.33.69v.33a.82.82,0,0,0,.28.69A1.26,1.26,0,0,0,497.74,372.34Z" fill="#6f6f6f"/>
              <path d="M502,373v-6.19h.91V368H503a1.66,1.66,0,0,1,.53-.85,1.58,1.58,0,0,1,1-.3h.34v.92h-.6a1.6,1.6,0,0,0-1,.29,1,1,0,0,0-.37.86V373Z" fill="#6f6f6f"/>
              <path d="M508,373.14a2.28,2.28,0,0,1-1.81-.75,5.08,5.08,0,0,1,0-5,2.33,2.33,0,0,1,4,.66l-.76.38a1.44,1.44,0,0,0-.49-.73,1.41,1.41,0,0,0-.91-.26,1.37,1.37,0,0,0-1.12.44,2.18,2.18,0,0,0-.36,1.37v1.25a2.13,2.13,0,0,0,.36,1.36,1.34,1.34,0,0,0,1.12.45,1.63,1.63,0,0,0,1-.26,1.82,1.82,0,0,0,.59-.81l.67.47a2.36,2.36,0,0,1-.84,1A2.41,2.41,0,0,1,508,373.14Z" fill="#6f6f6f"/>
              <path d="M511.38,364.12h.91v3.7h.12A1.61,1.61,0,0,1,513,367a1.65,1.65,0,0,1,1-.29,1.59,1.59,0,0,1,1.3.57,2.62,2.62,0,0,1,.48,1.74v4h-.91v-4a1.84,1.84,0,0,0-.31-1.14,1.1,1.1,0,0,0-.94-.4,1.36,1.36,0,0,0-.94.34,1.21,1.21,0,0,0-.38.95V373h-.91Z" fill="#6f6f6f"/>
            </g>
          </g>
          <g id="April" style="isolation: isolate">
            <g style="isolation: isolate">
              <path d="M566.46,373l-.74-2.51h-3L562,373h-1l2.62-8.38h1.2l2.63,8.38Zm-1.93-6.48-.26-1h-.12l-.27,1-1,3.18h2.57Z" fill="#6f6f6f"/>
              <path d="M568.61,366.81h.91v1h.12a1.56,1.56,0,0,1,.58-.87,1.73,1.73,0,0,1,1-.27,1.95,1.95,0,0,1,1.68.88,3,3,0,0,1,.43,1,6.11,6.11,0,0,1,0,2.69,3,3,0,0,1-.43,1,2.1,2.1,0,0,1-.71.65,2,2,0,0,1-1,.22,1.81,1.81,0,0,1-1-.26,1.56,1.56,0,0,1-.58-.88h-.12v3.4h-.91Zm2.32,5.53a1.42,1.42,0,0,0,1.15-.48,2,2,0,0,0,.39-1.33v-1.25a2.08,2.08,0,0,0-.39-1.34,1.44,1.44,0,0,0-1.15-.47,1.92,1.92,0,0,0-.55.08,1.43,1.43,0,0,0-.44.24,1.1,1.1,0,0,0-.3.38,1,1,0,0,0-.12.48v2.51a1.12,1.12,0,0,0,.42.85,1.26,1.26,0,0,0,.44.25A1.92,1.92,0,0,0,570.93,372.34Z" fill="#6f6f6f"/>
              <path d="M574.9,373v-6.19h.91V368h.12a1.66,1.66,0,0,1,.53-.85,1.58,1.58,0,0,1,1-.3h.34v.92h-.6a1.6,1.6,0,0,0-1,.29,1,1,0,0,0-.37.86V373Z" fill="#6f6f6f"/>
              <path d="M579.34,365.31c-.38,0-.57-.17-.57-.49v-.2c0-.32.19-.49.57-.49s.56.17.56.49v.2C579.9,365.14,579.71,365.31,579.34,365.31Zm-.46,1.5h.91V373h-.91Z" fill="#6f6f6f"/>
              <path d="M582.55,373a1,1,0,0,1-.71-.22,1,1,0,0,1-.22-.72v-7.94h.91v8.08h.78v.8Z" fill="#6f6f6f"/>
            </g>
          </g>
          <g id="May" style="isolation: isolate">
            <g style="isolation: isolate">
              <path d="M639.34,367.25l.08-1.44h-.12l-.62,1.44-1.8,3.7-1.8-3.7-.62-1.41h-.12l.08,1.41V373h-.94v-8.38h1.28l1.51,3.26.56,1.54h.1l.56-1.54,1.51-3.26h1.28V373h-.94Z" fill="#6f6f6f"/>
              <path d="M646.08,373a.79.79,0,0,1-.88-.9V372h-.12a1.59,1.59,0,0,1-.57.87,1.72,1.72,0,0,1-1,.29,1.83,1.83,0,0,1-1.35-.45,1.89,1.89,0,0,1-.44-1.35,1.72,1.72,0,0,1,.57-1.36,2.61,2.61,0,0,1,1.78-.51h1.12v-.68a1.45,1.45,0,0,0-.31-1,1.26,1.26,0,0,0-1-.32,1.44,1.44,0,0,0-.87.23,2,2,0,0,0-.57.68l-.54-.51a2.12,2.12,0,0,1,.77-.84,2.23,2.23,0,0,1,1.25-.34,2.26,2.26,0,0,1,1.6.51,1.93,1.93,0,0,1,.55,1.5v3.51h.62v.8Zm-2.34-.66a1.63,1.63,0,0,0,.59-.11,1.42,1.42,0,0,0,.46-.28,1.14,1.14,0,0,0,.3-.39,1.07,1.07,0,0,0,.11-.46v-.93h-1.14a1.81,1.81,0,0,0-1,.24.8.8,0,0,0-.33.69v.33a.82.82,0,0,0,.28.69A1.26,1.26,0,0,0,643.74,372.34Z" fill="#6f6f6f"/>
              <path d="M651.26,366.81h.88l-2.44,7.77a2.34,2.34,0,0,1-.16.41.87.87,0,0,1-.21.25.68.68,0,0,1-.3.12,1.83,1.83,0,0,1-.44,0h-.67v-.8h1l.36-1.26-2.05-6.53h.91l.95,3.12.57,2.27h.12l.58-2.27Z" fill="#6f6f6f"/>
            </g>
          </g>
          <g id="Group-2">
            <rect id="Rectangle-9" x="379" y="159" width="6" height="195" fill="#001d6c"/>
            <rect id="Rectangle-9-Copy-20" x="371" y="208" width="6" height="146" fill="#002d9c"/>
            <rect id="Rectangle-9-Copy-38" x="363" y="258" width="6" height="96" fill="#0043ce"/>
            <rect id="Rectangle-9-Copy-43" x="355" y="275" width="6" height="79" fill="#0f62fe"/>
            <rect id="Rectangle-9-Copy-44" x="347" y="288" width="6" height="66" fill="#4589ff"/>
            <rect id="Rectangle-9-Copy-52" x="339" y="311" width="6" height="43" fill="#4589ff"/>
          </g>
          <g id="Group-3">
            <rect id="Rectangle-9-Copy" x="449" y="237" width="6" height="117" fill="#001d6c"/>
            <rect id="Rectangle-9-Copy-5" x="425" y="237" width="6" height="117" fill="#0f62fe"/>
            <rect id="Rectangle-9-Copy-21" x="441" y="180" width="6" height="174" fill="#002d9c"/>
            <rect id="Rectangle-9-Copy-39" x="433" y="208" width="6" height="146" fill="#0043ce"/>
            <rect id="Rectangle-9-Copy-45" x="417" y="258" width="6" height="96" fill="#4589ff"/>
            <rect id="Rectangle-9-Copy-53" x="409" y="298" width="6" height="56" fill="#4589ff"/>
          </g>
          <g id="Group-4">
            <rect id="Rectangle-9-Copy-2" x="519" y="200" width="6" height="154" fill="#001d6c"/>
            <rect id="Rectangle-9-Copy-22" x="511" y="246" width="6" height="108" fill="#002d9c"/>
            <rect id="Rectangle-9-Copy-40" x="503" y="281" width="6" height="73" fill="#0043ce"/>
            <rect id="Rectangle-9-Copy-46" x="495" y="291" width="6" height="63" fill="#0f62fe"/>
            <rect id="Rectangle-9-Copy-47" x="487" y="300" width="6" height="54" fill="#4589ff"/>
            <rect id="Rectangle-9-Copy-54" x="479" y="316" width="6" height="38" fill="#4589ff"/>
          </g>
          <g id="Group-5">
            <rect id="Rectangle-9-Copy-3" x="589" y="142" width="6" height="212" fill="#001d6c"/>
            <rect id="Rectangle-9-Copy-23" x="581" y="175" width="6" height="179" fill="#002d9c"/>
            <rect id="Rectangle-9-Copy-41" x="573" y="235" width="6" height="119" fill="#0043ce"/>
            <rect id="Rectangle-9-Copy-48" x="565" y="254" width="6" height="100" fill="#0f62fe"/>
            <rect id="Rectangle-9-Copy-49" x="557" y="272" width="6" height="82" fill="#4589ff"/>
            <rect id="Rectangle-9-Copy-55" x="549" y="311" width="6" height="43" fill="#4589ff"/>
          </g>
          <g id="Group-6">
            <rect id="Rectangle-9-Copy-4" x="659" y="254" width="6" height="100" fill="#001d6c"/>
            <rect id="Rectangle-9-Copy-24" x="651" y="200" width="6" height="154" fill="#002d9c"/>
            <rect id="Rectangle-9-Copy-42" x="643" y="189" width="6" height="165" fill="#0043ce"/>
            <rect id="Rectangle-9-Copy-50" x="635" y="214" width="6" height="140" fill="#0f62fe"/>
            <rect id="Rectangle-9-Copy-51" x="627" y="241" width="6" height="113" fill="#4589ff"/>
            <rect id="Rectangle-9-Copy-56" x="619" y="271" width="6" height="83" fill="#4589ff"/>
          </g>
          <g id="Group-8">
            <g id="Group">
              <rect id="Rectangle-Copy-6" x="326" y="418" width="12" height="12" rx="1" fill="#4589ff"/>
              <g id="_0_15" data-name="0–15" style="isolation: isolate">
                <g style="isolation: isolate">
                  <path d="M345.24,428.14a2.67,2.67,0,0,1-1.18-.24,2,2,0,0,1-.81-.76,4,4,0,0,1-.47-1.34,11.19,11.19,0,0,1-.16-2,11.07,11.07,0,0,1,.16-2,4,4,0,0,1,.47-1.35,2,2,0,0,1,.81-.76,3,3,0,0,1,2.36,0,2,2,0,0,1,.81.76,4,4,0,0,1,.47,1.35,11.07,11.07,0,0,1,.16,2,11.19,11.19,0,0,1-.16,2,4,4,0,0,1-.47,1.34,2,2,0,0,1-.81.76A2.67,2.67,0,0,1,345.24,428.14Zm0-.82a1.34,1.34,0,0,0,1.24-.62,3.46,3.46,0,0,0,.37-1.74v-2.3a3.45,3.45,0,0,0-.37-1.73,1.55,1.55,0,0,0-2.48,0,3.45,3.45,0,0,0-.37,1.73V425a3.46,3.46,0,0,0,.37,1.74A1.34,1.34,0,0,0,345.24,427.32Z" fill="#6f6f6f"/>
                  <path d="M348.86,424.78v-.87h5.57v.87Z" fill="#6f6f6f"/>
                  <path d="M355.76,428v-.85h2.09V420.5l-2.06,1.34-.41-.66,2.38-1.56h1.05v7.53h1.92V428Z" fill="#6f6f6f"/>
                  <path d="M366.7,420.48h-3.32l-.21,3.32h.12a1.52,1.52,0,0,1,.54-.71,1.62,1.62,0,0,1,1-.29,2.44,2.44,0,0,1,.9.17,1.87,1.87,0,0,1,.7.48,2.27,2.27,0,0,1,.45.81,3.49,3.49,0,0,1,.17,1.13,2.91,2.91,0,0,1-.67,2.05,2.45,2.45,0,0,1-1.88.7,2.66,2.66,0,0,1-1.47-.4,2.74,2.74,0,0,1-.94-1l.72-.54a2.2,2.2,0,0,0,.7.82,1.67,1.67,0,0,0,1,.28,1.46,1.46,0,0,0,1.17-.43,1.9,1.9,0,0,0,.37-1.25v-.29a1.93,1.93,0,0,0-.37-1.26,1.5,1.5,0,0,0-1.17-.43,1.45,1.45,0,0,0-.84.21,1.87,1.87,0,0,0-.51.5l-.82-.11.28-4.61h4.08Z" fill="#6f6f6f"/>
                </g>
              </g>
            </g>
            <g id="Group-7">
              <rect id="Rectangle-Copy-7" x="374" y="418" width="12" height="12" rx="1" fill="#0f62fe"/>
              <g id="_16_20" data-name="16–20" style="isolation: isolate">
                <g style="isolation: isolate">
                  <path d="M391,428v-.85H393V420.5L391,421.84l-.41-.66,2.38-1.56H394v7.53h1.92V428Z" fill="#6f6f6f"/>
                  <path d="M399.72,428.14a2.3,2.3,0,0,1-1.91-.81,3.74,3.74,0,0,1-.65-2.37,6,6,0,0,1,.26-1.77,6.86,6.86,0,0,1,.64-1.51,6.57,6.57,0,0,1,.87-1.21,5.59,5.59,0,0,1,.95-.85h1.23c-.41.33-.77.65-1.09,1a6.28,6.28,0,0,0-.84,1,5.77,5.77,0,0,0-.61,1.09,6.81,6.81,0,0,0-.41,1.34h.12a2,2,0,0,1,.62-.86,1.82,1.82,0,0,1,1.16-.34,2.1,2.1,0,0,1,1.62.64,2.8,2.8,0,0,1,.6,2,3,3,0,0,1-.65,2.05A2.44,2.44,0,0,1,399.72,428.14Zm0-.85a1.5,1.5,0,0,0,1.15-.42,1.83,1.83,0,0,0,.4-1.29v-.24a1.8,1.8,0,0,0-.4-1.29,1.75,1.75,0,0,0-2.3,0,1.8,1.8,0,0,0-.4,1.29v.24a1.83,1.83,0,0,0,.4,1.29A1.5,1.5,0,0,0,399.72,427.29Z" fill="#6f6f6f"/>
                  <path d="M403.34,424.78v-.87h5.57v.87Z" fill="#6f6f6f"/>
                  <path d="M415.07,428h-5v-1l2.54-2.64a4.79,4.79,0,0,0,.88-1.16,2.32,2.32,0,0,0,.27-1.06v-.31c0-1-.43-1.5-1.3-1.5a1.5,1.5,0,0,0-1,.34,1.82,1.82,0,0,0-.55.95l-.84-.34a2.58,2.58,0,0,1,.34-.71,2.36,2.36,0,0,1,1.22-.95,2.77,2.77,0,0,1,.89-.14,2.22,2.22,0,0,1,1.73.61,2.49,2.49,0,0,1,.56,1.78,3.7,3.7,0,0,1-.07.76,2.87,2.87,0,0,1-.25.71,4.48,4.48,0,0,1-.49.74,10.48,10.48,0,0,1-.77.88l-2.09,2.19h3.95Z" fill="#6f6f6f"/>
                  <path d="M419,428.14a2.67,2.67,0,0,1-1.18-.24,1.9,1.9,0,0,1-.81-.76,4,4,0,0,1-.47-1.34,10.33,10.33,0,0,1-.16-2,10.22,10.22,0,0,1,.16-2,4,4,0,0,1,.47-1.35,1.9,1.9,0,0,1,.81-.76,3,3,0,0,1,2.35,0,1.9,1.9,0,0,1,.81.76,4.25,4.25,0,0,1,.48,1.35,11.17,11.17,0,0,1,.15,2,11.29,11.29,0,0,1-.15,2,4.18,4.18,0,0,1-.48,1.34,1.9,1.9,0,0,1-.81.76A2.66,2.66,0,0,1,419,428.14Zm0-.82a1.33,1.33,0,0,0,1.23-.62,3.36,3.36,0,0,0,.37-1.74v-2.3a3.34,3.34,0,0,0-.37-1.73,1.54,1.54,0,0,0-2.47,0,3.34,3.34,0,0,0-.37,1.73V425a3.36,3.36,0,0,0,.37,1.74A1.34,1.34,0,0,0,419,427.32Z" fill="#6f6f6f"/>
                </g>
              </g>
            </g>
            <g id="Group-7-Copy">
              <rect id="Rectangle-Copy-7-2" data-name="Rectangle-Copy-7" x="429" y="418" width="12" height="12" rx="1" fill="#0043ce"/>
              <g id="_21_30" data-name="21–30" style="isolation: isolate">
                <g style="isolation: isolate">
                  <path d="M450.77,428h-5v-1l2.55-2.64a5.07,5.07,0,0,0,.88-1.16,2.32,2.32,0,0,0,.27-1.06v-.31c0-1-.44-1.5-1.31-1.5a1.52,1.52,0,0,0-1,.34,1.75,1.75,0,0,0-.54.95l-.84-.34a2.88,2.88,0,0,1,.33-.71,2.58,2.58,0,0,1,.52-.57,2.42,2.42,0,0,1,.71-.38,2.71,2.71,0,0,1,.88-.14,2.23,2.23,0,0,1,1.74.61,2.53,2.53,0,0,1,.56,1.78,3.69,3.69,0,0,1-.08.76,2.52,2.52,0,0,1-.25.71,5.1,5.1,0,0,1-.48.74c-.21.26-.47.56-.78.88l-2.09,2.19h3.95Z" fill="#6f6f6f"/>
                  <path d="M452.43,428v-.85h2.09V420.5l-2.07,1.34-.41-.66,2.38-1.56h1.06v7.53h1.92V428Z" fill="#6f6f6f"/>
                  <path d="M458.34,424.78v-.87h5.57v.87Z" fill="#6f6f6f"/>
                  <path d="M467.12,423.18a1.58,1.58,0,0,0,1.13-.37,1.32,1.32,0,0,0,.38-1v-.18a1.24,1.24,0,0,0-.36-1,1.48,1.48,0,0,0-1-.3,1.52,1.52,0,0,0-.94.27,2,2,0,0,0-.6.76l-.7-.54a5,5,0,0,1,.35-.49,2.3,2.3,0,0,1,.49-.44,2.53,2.53,0,0,1,1.46-.41,3,3,0,0,1,.93.13,1.91,1.91,0,0,1,.72.38,1.61,1.61,0,0,1,.46.65,2.46,2.46,0,0,1,.17.94,2.19,2.19,0,0,1-.12.75,1.83,1.83,0,0,1-.33.58,1.61,1.61,0,0,1-.47.39,1.78,1.78,0,0,1-.58.22v.12a1.75,1.75,0,0,1,.63.18,1.69,1.69,0,0,1,.53.39,1.75,1.75,0,0,1,.35.63,2.55,2.55,0,0,1,.13.86,2.38,2.38,0,0,1-.67,1.79,2.56,2.56,0,0,1-1.9.65,2.86,2.86,0,0,1-.87-.12,2.51,2.51,0,0,1-.68-.31,2.47,2.47,0,0,1-.52-.44,4.81,4.81,0,0,1-.4-.52l.72-.54a2.62,2.62,0,0,0,.67.79,1.71,1.71,0,0,0,1.06.29,1.63,1.63,0,0,0,1.18-.38,1.49,1.49,0,0,0,.4-1.15v-.2a1.49,1.49,0,0,0-.4-1.15,1.63,1.63,0,0,0-1.18-.38h-.89v-.85Z" fill="#6f6f6f"/>
                  <path d="M474,428.14a2.67,2.67,0,0,1-1.18-.24,1.9,1.9,0,0,1-.81-.76,4,4,0,0,1-.47-1.34,10.33,10.33,0,0,1-.16-2,10.22,10.22,0,0,1,.16-2,4,4,0,0,1,.47-1.35,1.9,1.9,0,0,1,.81-.76,3,3,0,0,1,2.35,0,1.9,1.9,0,0,1,.81.76,4.25,4.25,0,0,1,.48,1.35,11.17,11.17,0,0,1,.15,2,11.29,11.29,0,0,1-.15,2,4.18,4.18,0,0,1-.48,1.34,1.9,1.9,0,0,1-.81.76A2.66,2.66,0,0,1,474,428.14Zm0-.82a1.33,1.33,0,0,0,1.23-.62,3.36,3.36,0,0,0,.37-1.74v-2.3a3.34,3.34,0,0,0-.37-1.73,1.54,1.54,0,0,0-2.47,0,3.34,3.34,0,0,0-.37,1.73V425a3.36,3.36,0,0,0,.37,1.74A1.34,1.34,0,0,0,474,427.32Z" fill="#6f6f6f"/>
                </g>
              </g>
            </g>
            <g id="Group-7-Copy-2">
              <rect id="Rectangle-Copy-7-3" data-name="Rectangle-Copy-7" x="484" y="418" width="12" height="12" rx="1" fill="#002d9c"/>
              <g id="_31_40" data-name="31–40" style="isolation: isolate">
                <g style="isolation: isolate">
                  <path d="M502.82,423.18a1.58,1.58,0,0,0,1.13-.37,1.28,1.28,0,0,0,.38-1v-.18a1.24,1.24,0,0,0-.36-1,1.46,1.46,0,0,0-1-.3,1.54,1.54,0,0,0-.94.27,2,2,0,0,0-.6.76l-.69-.54a3,3,0,0,1,.35-.49,2,2,0,0,1,.48-.44,2.91,2.91,0,0,1,.64-.3,3,3,0,0,1,.82-.11,3.1,3.1,0,0,1,.94.13,1.91,1.91,0,0,1,.72.38,1.71,1.71,0,0,1,.46.65,2.47,2.47,0,0,1,.16.94,2.19,2.19,0,0,1-.12.75,2,2,0,0,1-.32.58,1.79,1.79,0,0,1-.48.39,1.7,1.7,0,0,1-.58.22v.12a1.8,1.8,0,0,1,.64.18,1.65,1.65,0,0,1,.52.39,1.76,1.76,0,0,1,.36.63,2.84,2.84,0,0,1,.12.86,2.41,2.41,0,0,1-.66,1.79,2.59,2.59,0,0,1-1.9.65A3,3,0,0,1,502,428a2.66,2.66,0,0,1-.68-.31,2.41,2.41,0,0,1-.51-.44,4.92,4.92,0,0,1-.41-.52l.72-.54a2.94,2.94,0,0,0,.67.79,1.73,1.73,0,0,0,1.06.29,1.61,1.61,0,0,0,1.18-.38,1.49,1.49,0,0,0,.41-1.15v-.2a1.49,1.49,0,0,0-.41-1.15,1.61,1.61,0,0,0-1.18-.38H502v-.85Z" fill="#6f6f6f"/>
                  <path d="M507.43,428v-.85h2.09V420.5l-2.07,1.34-.41-.66,2.38-1.56h1.06v7.53h1.92V428Z" fill="#6f6f6f"/>
                  <path d="M513.34,424.78v-.87h5.57v.87Z" fill="#6f6f6f"/>
                  <path d="M523.32,428v-1.64H519.7v-.86l3.12-5.88h1.41v5.93h1.08v.81h-1.08V428Zm-2.74-2.45h2.74v-5.16h-.12Z" fill="#6f6f6f"/>
                  <path d="M529,428.14a2.67,2.67,0,0,1-1.18-.24,1.9,1.9,0,0,1-.81-.76,4,4,0,0,1-.47-1.34,10.33,10.33,0,0,1-.16-2,10.22,10.22,0,0,1,.16-2,4,4,0,0,1,.47-1.35,1.9,1.9,0,0,1,.81-.76,3,3,0,0,1,2.35,0,1.9,1.9,0,0,1,.81.76,4.25,4.25,0,0,1,.48,1.35,11.17,11.17,0,0,1,.15,2,11.29,11.29,0,0,1-.15,2,4.18,4.18,0,0,1-.48,1.34,1.9,1.9,0,0,1-.81.76A2.66,2.66,0,0,1,529,428.14Zm0-.82a1.33,1.33,0,0,0,1.23-.62,3.36,3.36,0,0,0,.37-1.74v-2.3a3.34,3.34,0,0,0-.37-1.73,1.54,1.54,0,0,0-2.47,0,3.34,3.34,0,0,0-.37,1.73V425a3.36,3.36,0,0,0,.37,1.74A1.34,1.34,0,0,0,529,427.32Z" fill="#6f6f6f"/>
                </g>
              </g>
            </g>
            <g id="Group-7-Copy-3">
              <rect id="Rectangle-Copy-7-4" data-name="Rectangle-Copy-7" x="594" y="418" width="12" height="12" rx="1" fill="#001141"/>
              <g id="_50_" data-name="50+" style="isolation: isolate">
                <g style="isolation: isolate">
                  <path d="M615.4,420.48h-3.31l-.22,3.32H612a1.52,1.52,0,0,1,.54-.71,1.64,1.64,0,0,1,1-.29,2.37,2.37,0,0,1,.9.17,1.79,1.79,0,0,1,.7.48,2.29,2.29,0,0,1,.46.81,3.5,3.5,0,0,1,.16,1.13,2.86,2.86,0,0,1-.67,2.05,2.44,2.44,0,0,1-1.87.7,2.66,2.66,0,0,1-1.47-.4,2.77,2.77,0,0,1-1-1l.72-.54a2.39,2.39,0,0,0,.7.82,1.69,1.69,0,0,0,1,.28,1.45,1.45,0,0,0,1.16-.43,1.85,1.85,0,0,0,.37-1.25v-.29a1.88,1.88,0,0,0-.37-1.26,1.49,1.49,0,0,0-1.16-.43,1.45,1.45,0,0,0-.84.21,1.9,1.9,0,0,0-.52.5l-.82-.11.28-4.61h4.08Z" fill="#6f6f6f"/>
                  <path d="M619.72,428.14a2.67,2.67,0,0,1-1.18-.24,2,2,0,0,1-.81-.76,4,4,0,0,1-.47-1.34,11.19,11.19,0,0,1-.16-2,11.07,11.07,0,0,1,.16-2,4,4,0,0,1,.47-1.35,2,2,0,0,1,.81-.76,3,3,0,0,1,2.36,0,2,2,0,0,1,.81.76,4,4,0,0,1,.47,1.35,11.07,11.07,0,0,1,.16,2,11.19,11.19,0,0,1-.16,2,4,4,0,0,1-.47,1.34,2,2,0,0,1-.81.76A2.67,2.67,0,0,1,619.72,428.14Zm0-.82a1.34,1.34,0,0,0,1.24-.62,3.46,3.46,0,0,0,.37-1.74v-2.3a3.45,3.45,0,0,0-.37-1.73,1.55,1.55,0,0,0-2.48,0,3.45,3.45,0,0,0-.37,1.73V425a3.46,3.46,0,0,0,.37,1.74A1.34,1.34,0,0,0,619.72,427.32Z" fill="#6f6f6f"/>
                  <path d="M625.77,426.91v-2.19h-2.09V424h2.09v-2.19h.86V424h2.09v.76h-2.09v2.19Z" fill="#6f6f6f"/>
                </g>
              </g>
            </g>
            <g id="Group-7-Copy-4">
              <rect id="Rectangle-Copy-7-5" data-name="Rectangle-Copy-7" x="539" y="418" width="12" height="12" rx="1" fill="#001d6c"/>
              <g id="_41_50" data-name="41–50" style="isolation: isolate">
                <g style="isolation: isolate">
                  <path d="M559,428v-1.64h-3.61v-.86l3.12-5.88h1.4v5.93H561v.81h-1.08V428Zm-2.74-2.45H559v-5.16h-.12Z" fill="#6f6f6f"/>
                  <path d="M562.43,428v-.85h2.09V420.5l-2.07,1.34-.41-.66,2.38-1.56h1.06v7.53h1.92V428Z" fill="#6f6f6f"/>
                  <path d="M568.34,424.78v-.87h5.57v.87Z" fill="#6f6f6f"/>
                  <path d="M579.7,420.48h-3.32l-.21,3.32h.12a1.52,1.52,0,0,1,.54-.71,1.62,1.62,0,0,1,1-.29,2.44,2.44,0,0,1,.9.17,1.87,1.87,0,0,1,.7.48,2.27,2.27,0,0,1,.45.81,3.49,3.49,0,0,1,.17,1.13,2.91,2.91,0,0,1-.67,2.05,2.45,2.45,0,0,1-1.88.7,2.66,2.66,0,0,1-1.47-.4,2.74,2.74,0,0,1-.94-1l.72-.54a2.2,2.2,0,0,0,.7.82,1.67,1.67,0,0,0,1,.28,1.46,1.46,0,0,0,1.17-.43,1.9,1.9,0,0,0,.37-1.25v-.29a1.93,1.93,0,0,0-.37-1.26,1.5,1.5,0,0,0-1.17-.43,1.45,1.45,0,0,0-.84.21,1.87,1.87,0,0,0-.51.5l-.82-.11.28-4.61h4.08Z" fill="#6f6f6f"/>
                  <path d="M584,428.14a2.67,2.67,0,0,1-1.18-.24,1.9,1.9,0,0,1-.81-.76,4,4,0,0,1-.47-1.34,10.33,10.33,0,0,1-.16-2,10.22,10.22,0,0,1,.16-2,4,4,0,0,1,.47-1.35,1.9,1.9,0,0,1,.81-.76,3,3,0,0,1,2.35,0,1.9,1.9,0,0,1,.81.76,4.25,4.25,0,0,1,.48,1.35,11.17,11.17,0,0,1,.15,2,11.29,11.29,0,0,1-.15,2,4.18,4.18,0,0,1-.48,1.34,1.9,1.9,0,0,1-.81.76A2.66,2.66,0,0,1,584,428.14Zm0-.82a1.33,1.33,0,0,0,1.23-.62,3.36,3.36,0,0,0,.37-1.74v-2.3a3.34,3.34,0,0,0-.37-1.73,1.54,1.54,0,0,0-2.47,0,3.34,3.34,0,0,0-.37,1.73V425a3.36,3.36,0,0,0,.37,1.74A1.34,1.34,0,0,0,584,427.32Z" fill="#6f6f6f"/>
                </g>
              </g>
            </g>
          </g>
          <g id="widgetTitle" style="isolation: isolate">
            <g style="isolation: isolate">
              <path d="M259.92,100.46h-.08l-.88,1.8-2.45,4.47-2.45-4.47-.88-1.8h-.08V109h-1.72V97.83h2.14l3,5.68h.1l3-5.68h2V109h-1.73Z" fill="#171717"/>
              <path d="M267.54,109.19a4,4,0,0,1-1.58-.3,3.41,3.41,0,0,1-1.21-.87,4.19,4.19,0,0,1-.77-1.38,6.13,6.13,0,0,1,0-3.6,4.19,4.19,0,0,1,.77-1.38,3.54,3.54,0,0,1,1.21-.87,4.28,4.28,0,0,1,3.15,0,3.44,3.44,0,0,1,1.21.87,4,4,0,0,1,.77,1.38,6.14,6.14,0,0,1,0,3.6,4,4,0,0,1-.77,1.38,3.32,3.32,0,0,1-1.21.87A4,4,0,0,1,267.54,109.19Zm0-1.45a2,2,0,0,0,1.44-.55,2.28,2.28,0,0,0,.54-1.65v-1.4a2.28,2.28,0,0,0-.54-1.65,2,2,0,0,0-1.44-.55,2,2,0,0,0-1.44.55,2.24,2.24,0,0,0-.55,1.65v1.4a2.24,2.24,0,0,0,.55,1.65A2,2,0,0,0,267.54,107.74Z" fill="#171717"/>
              <path d="M273.3,109v-8.32H275v1.38h.08a2.72,2.72,0,0,1,.82-1.12,2.35,2.35,0,0,1,1.52-.45,2.48,2.48,0,0,1,2,.84,3.63,3.63,0,0,1,.71,2.39V109h-1.74v-5.06c0-1.3-.53-2-1.57-2a2.52,2.52,0,0,0-.67.09,2,2,0,0,0-.58.26,1.36,1.36,0,0,0-.41.45,1.32,1.32,0,0,0-.15.64V109Z" fill="#171717"/>
              <path d="M284.88,109a1.87,1.87,0,0,1-1.38-.47,1.83,1.83,0,0,1-.46-1.34V102.1h-1.3v-1.42h.71a.76.76,0,0,0,.6-.19,1,1,0,0,0,.17-.63V98.41h1.56v2.27h1.75v1.42h-1.75v5.48h1.62V109Z" fill="#171717"/>
              <path d="M288.42,97.16h1.74v4.9h.08a2.72,2.72,0,0,1,.82-1.12,2.35,2.35,0,0,1,1.52-.45,2.48,2.48,0,0,1,2,.84,3.63,3.63,0,0,1,.71,2.39V109h-1.74v-5.07c0-1.29-.53-1.94-1.57-1.94a2.52,2.52,0,0,0-.67.09,2,2,0,0,0-.58.26,1.36,1.36,0,0,0-.41.45,1.28,1.28,0,0,0-.15.63V109h-1.74Z" fill="#171717"/>
              <path d="M299.47,109a1.73,1.73,0,0,1-1.33-.46,1.71,1.71,0,0,1-.44-1.27V97.16h1.74v10.42h1.15V109Z" fill="#171717"/>
              <path d="M307.23,100.68h1.68l-3.5,10a4.29,4.29,0,0,1-.33.71,1.68,1.68,0,0,1-.43.48,1.83,1.83,0,0,1-.6.27,3.43,3.43,0,0,1-.84.09h-1v-1.42h1.41l.47-1.41-3-8.69h1.74l1.67,4.9.48,1.8H305l.53-1.8Z" fill="#171717"/>
              <path d="M315.93,109l-2.83-8.32h1.73l1.26,3.79.85,2.91h.1l.85-2.91,1.29-3.79h1.67L318,109Z" fill="#171717"/>
              <path d="M323.2,99.19a1.06,1.06,0,0,1-.79-.25.89.89,0,0,1-.25-.66V98a.89.89,0,0,1,.25-.66,1.06,1.06,0,0,1,.79-.25,1,1,0,0,1,.78.25.92.92,0,0,1,.24.66v.27a.92.92,0,0,1-.24.66A1,1,0,0,1,323.2,99.19Zm-.88,1.49h1.74V109h-1.74Z" fill="#171717"/>
              <path d="M329.2,109.19a3.94,3.94,0,0,1-3.38-1.57l1.12-1a3.79,3.79,0,0,0,1,.87,2.68,2.68,0,0,0,1.32.31,1.82,1.82,0,0,0,1.15-.29,1,1,0,0,0,.37-.83,1,1,0,0,0-.26-.68,1.55,1.55,0,0,0-.92-.36l-.77-.09a4,4,0,0,1-2-.75,2.09,2.09,0,0,1-.72-1.73,2.45,2.45,0,0,1,.22-1.08,2.24,2.24,0,0,1,.63-.8,2.94,2.94,0,0,1,1-.51,4.5,4.5,0,0,1,1.25-.17,3.74,3.74,0,0,1,3.11,1.33l-1.07,1a2.8,2.8,0,0,0-.84-.66,2.47,2.47,0,0,0-1.2-.28,1.64,1.64,0,0,0-1.06.28,1,1,0,0,0-.34.76.87.87,0,0,0,.3.72,2.24,2.24,0,0,0,1,.35l.76.09a3.68,3.68,0,0,1,2,.81,2.12,2.12,0,0,1,.63,1.61,2.46,2.46,0,0,1-.23,1.1,2.41,2.41,0,0,1-.66.84,3.31,3.31,0,0,1-1,.54A4.47,4.47,0,0,1,329.2,109.19Z" fill="#171717"/>
              <path d="M335.34,99.19a1.07,1.07,0,0,1-.79-.25.93.93,0,0,1-.25-.66V98a.93.93,0,0,1,.25-.66,1.07,1.07,0,0,1,.79-.25,1,1,0,0,1,.79.25.92.92,0,0,1,.24.66v.27a.92.92,0,0,1-.24.66A1,1,0,0,1,335.34,99.19Zm-.88,1.49h1.75V109h-1.75Z" fill="#171717"/>
              <path d="M341,109a1.87,1.87,0,0,1-1.38-.47,1.83,1.83,0,0,1-.46-1.34V102.1h-1.3v-1.42h.71a.75.75,0,0,0,.59-.19.91.91,0,0,0,.17-.63V98.41h1.57v2.27h1.75v1.42h-1.75v5.48h1.62V109Z" fill="#171717"/>
              <path d="M347.74,109.19a4,4,0,0,1-1.57-.3A3.32,3.32,0,0,1,345,108a4,4,0,0,1-.77-1.38,6.14,6.14,0,0,1,0-3.6,4,4,0,0,1,.77-1.38,3.44,3.44,0,0,1,1.21-.87,4,4,0,0,1,1.57-.3,4,4,0,0,1,1.58.3,3.54,3.54,0,0,1,1.21.87,4,4,0,0,1,.76,1.38,5.93,5.93,0,0,1,0,3.6,4,4,0,0,1-.76,1.38,3.41,3.41,0,0,1-1.21.87A4,4,0,0,1,347.74,109.19Zm0-1.45a2,2,0,0,0,1.44-.55,2.28,2.28,0,0,0,.55-1.65v-1.4a2.28,2.28,0,0,0-.55-1.65,2.16,2.16,0,0,0-2.88,0,2.28,2.28,0,0,0-.54,1.65v1.4a2.28,2.28,0,0,0,.54,1.65A2,2,0,0,0,347.74,107.74Z" fill="#171717"/>
              <path d="M353.5,109v-8.32h1.75v1.6h.08a2.19,2.19,0,0,1,.73-1.12,2.32,2.32,0,0,1,1.55-.48h.47v1.68h-.69a3,3,0,0,0-1.59.34,1.07,1.07,0,0,0-.55,1V109Z" fill="#171717"/>
              <path d="M362.27,109.19a4,4,0,0,1-3.38-1.57l1.12-1a3.68,3.68,0,0,0,1,.87,2.68,2.68,0,0,0,1.32.31,1.81,1.81,0,0,0,1.14-.29,1,1,0,0,0,.38-.83,1,1,0,0,0-.27-.68,1.55,1.55,0,0,0-.92-.36l-.77-.09a3.92,3.92,0,0,1-2-.75,2.07,2.07,0,0,1-.73-1.73,2.45,2.45,0,0,1,.22-1.08,2.24,2.24,0,0,1,.63-.8,3,3,0,0,1,1-.51,4.52,4.52,0,0,1,1.26-.17,3.74,3.74,0,0,1,3.1,1.33l-1.07,1a2.57,2.57,0,0,0-.84-.66,2.46,2.46,0,0,0-1.19-.28,1.67,1.67,0,0,0-1.07.28,1,1,0,0,0-.34.76.87.87,0,0,0,.3.72,2.3,2.3,0,0,0,1,.35l.77.09a3.68,3.68,0,0,1,2,.81,2.09,2.09,0,0,1,.64,1.61,2.47,2.47,0,0,1-.24,1.1,2.41,2.41,0,0,1-.66.84,3.2,3.2,0,0,1-1,.54A4.43,4.43,0,0,1,362.27,109.19Z" fill="#171717"/>
              <path d="M371.31,97.16h1.74v4.9h.08a2.28,2.28,0,0,1,.89-1.16,2.52,2.52,0,0,1,1.45-.41,2.89,2.89,0,0,1,2.45,1.14,6.42,6.42,0,0,1,0,6.42,2.89,2.89,0,0,1-2.45,1.14,2.59,2.59,0,0,1-1.45-.41,2.37,2.37,0,0,1-.89-1.16h-.08V109h-1.74Zm3.63,10.53a1.9,1.9,0,0,0,1.46-.59,2.18,2.18,0,0,0,.54-1.54v-1.44a2.18,2.18,0,0,0-.54-1.54,1.9,1.9,0,0,0-1.46-.59,2.24,2.24,0,0,0-1.34.39,1.25,1.25,0,0,0-.55,1v2.84a1.23,1.23,0,0,0,.55,1A2.24,2.24,0,0,0,374.94,107.69Z" fill="#171717"/>
              <path d="M385.77,100.68h1.68l-3.5,10a4.29,4.29,0,0,1-.33.71,1.54,1.54,0,0,1-.43.48,1.83,1.83,0,0,1-.6.27,3.34,3.34,0,0,1-.83.09h-1v-1.42h1.41l.48-1.41-3-8.69h1.75l1.66,4.9.48,1.8h.08l.53-1.8Z" fill="#171717"/>
              <path d="M398.77,109a1.4,1.4,0,0,1-1.06-.39,1.78,1.78,0,0,1-.45-1h-.08a2,2,0,0,1-.88,1.18,2.82,2.82,0,0,1-1.55.4,2.74,2.74,0,0,1-2-.67,2.38,2.38,0,0,1-.7-1.81,2.11,2.11,0,0,1,.91-1.87,4.6,4.6,0,0,1,2.64-.62h1.51v-.71a1.59,1.59,0,0,0-.42-1.18,1.76,1.76,0,0,0-1.29-.42,2.08,2.08,0,0,0-1.2.32,2.94,2.94,0,0,0-.79.82l-1-1a3.42,3.42,0,0,1,1.17-1.16,3.81,3.81,0,0,1,2-.45,3.69,3.69,0,0,1,2.48.75,2.72,2.72,0,0,1,.86,2.16v4.18h.88V109Zm-3.52-1.14a2.33,2.33,0,0,0,1.34-.36,1.12,1.12,0,0,0,.53-1v-1.2h-1.47c-1.21,0-1.81.37-1.81,1.12v.28a1,1,0,0,0,.37.84A1.69,1.69,0,0,0,395.25,107.86Z" fill="#171717"/>
              <path d="M408.75,109.78a2.2,2.2,0,0,1-1,2,6.13,6.13,0,0,1-3.23.65,9.5,9.5,0,0,1-1.74-.13,4,4,0,0,1-1.17-.4,1.66,1.66,0,0,1-.66-.62,1.7,1.7,0,0,1-.21-.85,1.47,1.47,0,0,1,.38-1.07,2,2,0,0,1,1-.53v-.17a1.24,1.24,0,0,1-.94-1.28,1.19,1.19,0,0,1,.43-1,2.71,2.71,0,0,1,1-.49v-.06a2.59,2.59,0,0,1-1.13-1,2.8,2.8,0,0,1-.39-1.48,2.67,2.67,0,0,1,.86-2.07,3.52,3.52,0,0,1,2.45-.78,4,4,0,0,1,1.51.25v-.22a1.35,1.35,0,0,1,.26-.87,1,1,0,0,1,.83-.31h1.28v1.4h-1.7v.34a2.53,2.53,0,0,1,.86,1,2.72,2.72,0,0,1,.31,1.31,2.61,2.61,0,0,1-.87,2,3.57,3.57,0,0,1-2.46.77,4,4,0,0,1-1.09-.13,1.82,1.82,0,0,0-.56.32.63.63,0,0,0-.24.52.5.5,0,0,0,.31.48,2.16,2.16,0,0,0,.86.14h2a3.29,3.29,0,0,1,2.22.62A2.14,2.14,0,0,1,408.75,109.78Zm-1.63.2a.83.83,0,0,0-.33-.69,2,2,0,0,0-1.19-.26h-2.82a1.07,1.07,0,0,0-.57,1,1,1,0,0,0,.4.83,2.44,2.44,0,0,0,1.39.31h1.09C406.44,111.13,407.12,110.74,407.12,110Zm-2.61-5.09a1.83,1.83,0,0,0,1.19-.35,1.29,1.29,0,0,0,.43-1.06v-.32a1.29,1.29,0,0,0-.43-1.06,2.2,2.2,0,0,0-2.38,0,1.29,1.29,0,0,0-.43,1.06v.32a1.29,1.29,0,0,0,.43,1.06A1.83,1.83,0,0,0,404.51,104.89Z" fill="#171717"/>
              <path d="M413.21,109.19a4.07,4.07,0,0,1-1.6-.3,3.37,3.37,0,0,1-1.2-.87,4,4,0,0,1-.76-1.38,6.36,6.36,0,0,1,0-3.6,4,4,0,0,1,.76-1.38,3.5,3.5,0,0,1,1.2-.87,4.07,4.07,0,0,1,1.6-.3,3.7,3.7,0,0,1,1.61.32,3.11,3.11,0,0,1,1.16.89,3.88,3.88,0,0,1,.7,1.32,5.59,5.59,0,0,1,.23,1.61v.66H411.2v.27a2.19,2.19,0,0,0,.57,1.56,2.09,2.09,0,0,0,1.62.62,2.44,2.44,0,0,0,1.3-.34,2.83,2.83,0,0,0,.89-.9l1,1a3.27,3.27,0,0,1-1.35,1.22A4.33,4.33,0,0,1,413.21,109.19Zm0-7.34a2,2,0,0,0-.82.16,1.73,1.73,0,0,0-.64.45,2,2,0,0,0-.41.68,2.75,2.75,0,0,0-.14.88v.12h3.87V104a2.33,2.33,0,0,0-.5-1.55A1.68,1.68,0,0,0,413.21,101.85Z" fill="#171717"/>
            </g>
          </g>
        </g>
      </g>
    </g>
  </g>
</svg>
