<svg xmlns="http://www.w3.org/2000/svg" viewBox="0 0 929 522"><title>rebus_clearspace</title><polygon points="0 0 929 0 929 522 0 522 0 0" style="fill:#e0e0e0"/><rect x="145" y="93.61" width="637.49" height="335.09" style="fill:#fff"/><path d="M782,94.11H671.3V204.8H782Z" style="fill:none;stroke:#97c1ff"/><path d="M670.3,205.8H257.2V316.5H670.3Z" style="fill:none;stroke:#97c1ff"/><path d="M782,317.5H671.3V428.19H782Z" style="fill:none;stroke:#97c1ff"/><path d="M256.2,94.11H145.5V204.8H256.2Z" style="fill:none;stroke:#97c1ff"/><path d="M256.2,317.5H145.5V428.19H256.2Z" style="fill:none;stroke:#97c1ff"/><g style="isolation:isolate"><g style="isolation:isolate"><path d="M157.39,108.84l-2.93-4.1H156l2.1,3.07h0l2.18-3.07h1.43l-2.92,4,3,4.26h-1.51l-2.14-3.23h0L155.76,113h-1.42Z" style="fill:#0f6fff"/></g></g><g style="isolation:isolate"><g style="isolation:isolate"><path d="M157.39,332.23l-2.93-4.1H156l2.1,3.08h0l2.18-3.08h1.43l-2.92,4,3,4.26h-1.51l-2.14-3.23h0l-2.32,3.23h-1.42Z" style="fill:#0f6fff"/></g></g><g style="isolation:isolate"><g style="isolation:isolate"><path d="M681.17,332.23l-2.93-4.1h1.51l2.09,3.08h0l2.18-3.08h1.42l-2.91,4,3,4.26h-1.51l-2.14-3.23h0l-2.32,3.23h-1.43Z" style="fill:#0f6fff"/></g></g><g style="isolation:isolate"><g style="isolation:isolate"><path d="M681.17,108.84l-2.93-4.1h1.51l2.09,3.07h0l2.18-3.07h1.42l-2.91,4,3,4.26h-1.51l-2.14-3.23h0L679.54,113h-1.43Z" style="fill:#0f6fff"/></g></g><path d="M525.84,258.66,488.08,242l12.73,40.43c2.42,7.2,8.51,14.27,18.79,14.27a19.51,19.51,0,0,0,19.47-19.44C539.07,268.16,533.49,262.09,525.84,258.66ZM547.43,214v-7.65h43.8l2.66,7.65Zm0,14.6v-7.65h48.88l2.66,7.65Zm84.12,87.59h38.23v-7.65H631.55Zm0-14.6h38.23v-7.65H631.55Zm0-14.6h22.94v-7.65H631.55Zm0-14.6h22.94v-7.64H631.55Zm0-21.62-2.47,7H588.14l-2.47-7v7H562.73v-7.64h43.73l2.15,6.18,2.15-6.18h43.73v7.64H631.55Zm22.94-7.58H613.18l2.66-7.64h38.65Zm-91.76,29.2h22.94v-7.64H562.73Zm0,14.6h22.94v-7.65H562.73Zm-15.3,14.6h38.24v-7.65H547.43Zm0,14.6h38.24v-7.65H547.43ZM669.78,206.34V214H623.33l2.66-7.65Zm-48.87,14.6h48.87v7.65H618.25Zm-58.18,14.6h38.65l2.66,7.64H562.73Zm27.85,29.2h36.06L624,272.38h-30.7Zm5.12,14.59h25.82L618.83,287H598.39Zm5.13,14.6h15.56l-2.68,7.65h-10.2Zm5.12,14.6h5.32l-2.67,7.65Zm-163.76-3.48a24.05,24.05,0,0,0,43.62,0ZM488.08,281H439.87v13h48.21Zm0-24.11H439.87v13h48.21Zm-2.27-11.12a24.05,24.05,0,0,0-43.62,0Zm-96.93,31.51a19.51,19.51,0,0,0,19.47,19.44c10.28,0,16.37-7.07,18.79-14.27L439.87,242l-37.76,16.69C394.46,262.09,388.88,268.16,388.88,277.23Zm89-72.3A11.11,11.11,0,1,0,489,216,11.1,11.1,0,0,0,477.9,204.93Zm-27.85,0a11.11,11.11,0,1,0,11.1,11.1A11.11,11.11,0,0,0,450.05,204.93Zm-134.4-4.64c-23.74,0-44.46,13.42-55.63,33.38v11.12a72.57,72.57,0,0,1,111.25,0V233.67C360.1,213.71,339.38,200.29,315.65,200.29ZM349,278.17a33.38,33.38,0,1,0-33.37,33.37A33.37,33.37,0,0,0,349,278.17Zm26,0c-9.77,24-32.66,40.79-59.33,40.79s-49.57-16.82-59.34-40.79c9.77-24,32.66-40.79,59.34-40.79S365.21,254.2,375,278.17Zm-44.5,0a14.84,14.84,0,1,1-14.83-14.84,14.83,14.83,0,0,1,14.83,14.84Z" style="fill:#161616;fill-rule:evenodd"/><path d="M724,203.72l4.5,9h-4v36h-1v-36h-4Z" style="fill:#97c1ff"/><path d="M724.69,274v43.79h-1V274Z" style="fill:#97c1ff"/><g style="isolation:isolate"><g style="isolation:isolate"><path d="M723.39,259.06l-2.93-4.1H722l2.1,3.07h0l2.18-3.07h1.42l-2.91,4,3,4.26h-1.51L724.13,260h0l-2.32,3.23h-1.42Z" style="fill:#0f6fff"/></g></g></svg>