<svg xmlns="http://www.w3.org/2000/svg" viewBox="0 0 928 522"><g fill="none" fill-rule="evenodd"><path fill="#FFF" d="M0 0h928v522H0z"/><g opacity=".75" fill="#FFF" stroke="#DCDCDC" stroke-width=".7"><path d="M304.35 101.35h10.703v10.703H304.35z"/><path d="M314.328 101.35h10.703v10.703h-10.703z"/><path d="M324.305 101.35h10.703v10.703h-10.703z"/><path d="M334.283 101.35h10.703v10.703h-10.703z"/><path d="M344.261 101.35h10.703v10.703h-10.703z"/><path d="M354.239 101.35h10.703v10.703h-10.703z"/><path d="M364.216 101.35h10.703v10.703h-10.703z"/><path d="M374.194 101.35h10.703v10.703h-10.703z"/><path d="M384.172 101.35h10.703v10.703h-10.703z"/><path d="M394.15 101.35h10.703v10.703H394.15z"/><path d="M404.127 101.35h10.703v10.703h-10.703z"/><path d="M414.105 101.35h10.703v10.703h-10.703z"/><path d="M424.083 101.35h10.703v10.703h-10.703z"/><path d="M434.06 101.35h10.703v10.703H434.06z"/><path d="M444.038 101.35h10.703v10.703h-10.703z"/><path d="M454.016 101.35h10.703v10.703h-10.703z"/><path d="M463.994 101.35h10.703v10.703h-10.703z"/><path d="M473.971 101.35h10.703v10.703h-10.703z"/><path d="M483.949 101.35h10.703v10.703h-10.703z"/><path d="M493.927 101.35h10.703v10.703h-10.703z"/><path d="M503.905 101.35h10.703v10.703h-10.703z"/><path d="M513.882 101.35h10.703v10.703h-10.703z"/><path d="M523.86 101.35h10.703v10.703H523.86z"/><path d="M533.838 101.35h10.703v10.703h-10.703z"/><path d="M543.815 101.35h10.703v10.703h-10.703z"/><path d="M553.793 101.35h10.703v10.703h-10.703z"/><path d="M563.771 101.35h10.703v10.703h-10.703z"/><path d="M573.749 101.35h10.703v10.703h-10.703z"/><path d="M583.726 101.35h10.703v10.703h-10.703z"/><path d="M593.704 101.35h10.703v10.703h-10.703z"/><path d="M603.682 101.35h10.703v10.703h-10.703z"/><path d="M613.66 101.35h9.99v10.703h-9.99zm-309.31 9.978h10.703v10.703H304.35z"/><path d="M314.328 111.328h10.703v10.703h-10.703z"/><path d="M324.305 111.328h10.703v10.703h-10.703z"/><path d="M334.283 111.328h10.703v10.703h-10.703z"/><path d="M344.261 111.328h10.703v10.703h-10.703z"/><path d="M354.239 111.328h10.703v10.703h-10.703z"/><path d="M364.216 111.328h10.703v10.703h-10.703z"/><path d="M374.194 111.328h10.703v10.703h-10.703z"/><path d="M384.172 111.328h10.703v10.703h-10.703z"/><path d="M394.15 111.328h10.703v10.703H394.15z"/><path d="M404.127 111.328h10.703v10.703h-10.703z"/><path d="M414.105 111.328h10.703v10.703h-10.703z"/><path d="M424.083 111.328h10.703v10.703h-10.703z"/><path d="M434.06 111.328h10.703v10.703H434.06z"/><path d="M444.038 111.328h10.703v10.703h-10.703z"/><path d="M454.016 111.328h10.703v10.703h-10.703z"/><path d="M463.994 111.328h10.703v10.703h-10.703z"/><path d="M473.971 111.328h10.703v10.703h-10.703z"/><path d="M483.949 111.328h10.703v10.703h-10.703z"/><path d="M493.927 111.328h10.703v10.703h-10.703z"/><path d="M503.905 111.328h10.703v10.703h-10.703z"/><path d="M513.882 111.328h10.703v10.703h-10.703z"/><path d="M523.86 111.328h10.703v10.703H523.86z"/><path d="M533.838 111.328h10.703v10.703h-10.703z"/><path d="M543.815 111.328h10.703v10.703h-10.703z"/><path d="M553.793 111.328h10.703v10.703h-10.703z"/><path d="M563.771 111.328h10.703v10.703h-10.703z"/><path d="M573.749 111.328h10.703v10.703h-10.703z"/><path d="M583.726 111.328h10.703v10.703h-10.703z"/><path d="M593.704 111.328h10.703v10.703h-10.703z"/><path d="M603.682 111.328h10.703v10.703h-10.703z"/><path d="M613.66 111.328h9.99v10.703h-9.99zm-309.31 9.977h10.703v10.703H304.35z"/><path d="M314.328 121.305h10.703v10.703h-10.703z"/><path d="M324.305 121.305h10.703v10.703h-10.703z"/><path d="M334.283 121.305h10.703v10.703h-10.703z"/><path d="M344.261 121.305h10.703v10.703h-10.703z"/><path d="M354.239 121.305h10.703v10.703h-10.703z"/><path d="M364.216 121.305h10.703v10.703h-10.703z"/><path d="M374.194 121.305h10.703v10.703h-10.703z"/><path d="M384.172 121.305h10.703v10.703h-10.703z"/><path d="M394.15 121.305h10.703v10.703H394.15z"/><path d="M404.127 121.305h10.703v10.703h-10.703z"/><path d="M414.105 121.305h10.703v10.703h-10.703z"/><path d="M424.083 121.305h10.703v10.703h-10.703z"/><path d="M434.06 121.305h10.703v10.703H434.06z"/><path d="M444.038 121.305h10.703v10.703h-10.703z"/><path d="M454.016 121.305h10.703v10.703h-10.703z"/><path d="M463.994 121.305h10.703v10.703h-10.703z"/><path d="M473.971 121.305h10.703v10.703h-10.703z"/><path d="M483.949 121.305h10.703v10.703h-10.703z"/><path d="M493.927 121.305h10.703v10.703h-10.703z"/><path d="M503.905 121.305h10.703v10.703h-10.703z"/><path d="M513.882 121.305h10.703v10.703h-10.703z"/><path d="M523.86 121.305h10.703v10.703H523.86z"/><path d="M533.838 121.305h10.703v10.703h-10.703z"/><path d="M543.815 121.305h10.703v10.703h-10.703z"/><path d="M553.793 121.305h10.703v10.703h-10.703z"/><path d="M563.771 121.305h10.703v10.703h-10.703z"/><path d="M573.749 121.305h10.703v10.703h-10.703z"/><path d="M583.726 121.305h10.703v10.703h-10.703z"/><path d="M593.704 121.305h10.703v10.703h-10.703z"/><path d="M603.682 121.305h10.703v10.703h-10.703z"/><path d="M613.66 121.305h9.99v10.703h-9.99zm-309.31 9.978h10.703v10.703H304.35z"/><path d="M314.328 131.283h10.703v10.703h-10.703z"/><path d="M324.305 131.283h10.703v10.703h-10.703z"/><path d="M334.283 131.283h10.703v10.703h-10.703z"/><path d="M344.261 131.283h10.703v10.703h-10.703z"/><path d="M354.239 131.283h10.703v10.703h-10.703z"/><path d="M364.216 131.283h10.703v10.703h-10.703z"/><path d="M374.194 131.283h10.703v10.703h-10.703z"/><path d="M384.172 131.283h10.703v10.703h-10.703z"/><path d="M394.15 131.283h10.703v10.703H394.15z"/><path d="M404.127 131.283h10.703v10.703h-10.703z"/><path d="M414.105 131.283h10.703v10.703h-10.703z"/><path d="M424.083 131.283h10.703v10.703h-10.703z"/><path d="M434.06 131.283h10.703v10.703H434.06z"/><path d="M444.038 131.283h10.703v10.703h-10.703z"/><path d="M454.016 131.283h10.703v10.703h-10.703z"/><path d="M463.994 131.283h10.703v10.703h-10.703z"/><path d="M473.971 131.283h10.703v10.703h-10.703z"/><path d="M483.949 131.283h10.703v10.703h-10.703z"/><path d="M493.927 131.283h10.703v10.703h-10.703z"/><path d="M503.905 131.283h10.703v10.703h-10.703z"/><path d="M513.882 131.283h10.703v10.703h-10.703z"/><path d="M523.86 131.283h10.703v10.703H523.86z"/><path d="M533.838 131.283h10.703v10.703h-10.703z"/><path d="M543.815 131.283h10.703v10.703h-10.703z"/><path d="M553.793 131.283h10.703v10.703h-10.703z"/><path d="M563.771 131.283h10.703v10.703h-10.703z"/><path d="M573.749 131.283h10.703v10.703h-10.703z"/><path d="M583.726 131.283h10.703v10.703h-10.703z"/><path d="M593.704 131.283h10.703v10.703h-10.703z"/><path d="M603.682 131.283h10.703v10.703h-10.703z"/><path d="M613.66 131.283h9.99v10.703h-9.99zm-309.31 9.978h10.703v10.703H304.35z"/><path d="M314.328 141.261h10.703v10.703h-10.703z"/><path d="M324.305 141.261h10.703v10.703h-10.703z"/><path d="M334.283 141.261h10.703v10.703h-10.703z"/><path d="M344.261 141.261h10.703v10.703h-10.703z"/><path d="M354.239 141.261h10.703v10.703h-10.703z"/><path d="M364.216 141.261h10.703v10.703h-10.703z"/><path d="M374.194 141.261h10.703v10.703h-10.703z"/><path d="M384.172 141.261h10.703v10.703h-10.703z"/><path d="M394.15 141.261h10.703v10.703H394.15z"/><path d="M404.127 141.261h10.703v10.703h-10.703z"/><path d="M414.105 141.261h10.703v10.703h-10.703z"/><path d="M424.083 141.261h10.703v10.703h-10.703z"/><path d="M434.06 141.261h10.703v10.703H434.06z"/><path d="M444.038 141.261h10.703v10.703h-10.703z"/><path d="M454.016 141.261h10.703v10.703h-10.703z"/><path d="M463.994 141.261h10.703v10.703h-10.703z"/><path d="M473.971 141.261h10.703v10.703h-10.703z"/><path d="M483.949 141.261h10.703v10.703h-10.703z"/><path d="M493.927 141.261h10.703v10.703h-10.703z"/><path d="M503.905 141.261h10.703v10.703h-10.703z"/><path d="M513.882 141.261h10.703v10.703h-10.703z"/><path d="M523.86 141.261h10.703v10.703H523.86z"/><path d="M533.838 141.261h10.703v10.703h-10.703z"/><path d="M543.815 141.261h10.703v10.703h-10.703z"/><path d="M553.793 141.261h10.703v10.703h-10.703z"/><path d="M563.771 141.261h10.703v10.703h-10.703z"/><path d="M573.749 141.261h10.703v10.703h-10.703z"/><path d="M583.726 141.261h10.703v10.703h-10.703z"/><path d="M593.704 141.261h10.703v10.703h-10.703z"/><path d="M603.682 141.261h10.703v10.703h-10.703z"/><path d="M613.66 141.261h9.99v10.703h-9.99zm-309.31 9.978h10.703v10.703H304.35z"/><path d="M314.328 151.239h10.703v10.703h-10.703z"/><path d="M324.305 151.239h10.703v10.703h-10.703z"/><path d="M334.283 151.239h10.703v10.703h-10.703z"/><path d="M344.261 151.239h10.703v10.703h-10.703z"/><path d="M354.239 151.239h10.703v10.703h-10.703z"/><path d="M364.216 151.239h10.703v10.703h-10.703z"/><path d="M374.194 151.239h10.703v10.703h-10.703z"/><path d="M384.172 151.239h10.703v10.703h-10.703z"/><path d="M394.15 151.239h10.703v10.703H394.15z"/><path d="M404.127 151.239h10.703v10.703h-10.703z"/><path d="M414.105 151.239h10.703v10.703h-10.703z"/><path d="M424.083 151.239h10.703v10.703h-10.703z"/><path d="M434.06 151.239h10.703v10.703H434.06z"/><path d="M444.038 151.239h10.703v10.703h-10.703z"/><path d="M454.016 151.239h10.703v10.703h-10.703z"/><path d="M463.994 151.239h10.703v10.703h-10.703z"/><path d="M473.971 151.239h10.703v10.703h-10.703z"/><path d="M483.949 151.239h10.703v10.703h-10.703z"/><path d="M493.927 151.239h10.703v10.703h-10.703z"/><path d="M503.905 151.239h10.703v10.703h-10.703z"/><path d="M513.882 151.239h10.703v10.703h-10.703z"/><path d="M523.86 151.239h10.703v10.703H523.86z"/><path d="M533.838 151.239h10.703v10.703h-10.703z"/><path d="M543.815 151.239h10.703v10.703h-10.703z"/><path d="M553.793 151.239h10.703v10.703h-10.703z"/><path d="M563.771 151.239h10.703v10.703h-10.703z"/><path d="M573.749 151.239h10.703v10.703h-10.703z"/><path d="M583.726 151.239h10.703v10.703h-10.703z"/><path d="M593.704 151.239h10.703v10.703h-10.703z"/><path d="M603.682 151.239h10.703v10.703h-10.703z"/><path d="M613.66 151.239h9.99v10.703h-9.99zm-309.31 9.977h10.703v10.703H304.35z"/><path d="M314.328 161.216h10.703v10.703h-10.703z"/><path d="M324.305 161.216h10.703v10.703h-10.703z"/><path d="M334.283 161.216h10.703v10.703h-10.703z"/><path d="M344.261 161.216h10.703v10.703h-10.703z"/><path d="M354.239 161.216h10.703v10.703h-10.703z"/><path d="M364.216 161.216h10.703v10.703h-10.703z"/><path d="M374.194 161.216h10.703v10.703h-10.703z"/><path d="M384.172 161.216h10.703v10.703h-10.703z"/><path d="M394.15 161.216h10.703v10.703H394.15z"/><path d="M404.127 161.216h10.703v10.703h-10.703z"/><path d="M414.105 161.216h10.703v10.703h-10.703z"/><path d="M424.083 161.216h10.703v10.703h-10.703z"/><path d="M434.06 161.216h10.703v10.703H434.06z"/><path d="M444.038 161.216h10.703v10.703h-10.703z"/><path d="M454.016 161.216h10.703v10.703h-10.703z"/><path d="M463.994 161.216h10.703v10.703h-10.703z"/><path d="M473.971 161.216h10.703v10.703h-10.703z"/><path d="M483.949 161.216h10.703v10.703h-10.703z"/><path d="M493.927 161.216h10.703v10.703h-10.703z"/><path d="M503.905 161.216h10.703v10.703h-10.703z"/><path d="M513.882 161.216h10.703v10.703h-10.703z"/><path d="M523.86 161.216h10.703v10.703H523.86z"/><path d="M533.838 161.216h10.703v10.703h-10.703z"/><path d="M543.815 161.216h10.703v10.703h-10.703z"/><path d="M553.793 161.216h10.703v10.703h-10.703z"/><path d="M563.771 161.216h10.703v10.703h-10.703z"/><path d="M573.749 161.216h10.703v10.703h-10.703z"/><path d="M583.726 161.216h10.703v10.703h-10.703z"/><path d="M593.704 161.216h10.703v10.703h-10.703z"/><path d="M603.682 161.216h10.703v10.703h-10.703z"/><path d="M613.66 161.216h9.99v10.703h-9.99zm-309.31 9.978h10.703v10.703H304.35z"/><path d="M314.328 171.194h10.703v10.703h-10.703z"/><path d="M324.305 171.194h10.703v10.703h-10.703z"/><path d="M334.283 171.194h10.703v10.703h-10.703z"/><path d="M344.261 171.194h10.703v10.703h-10.703z"/><path d="M354.239 171.194h10.703v10.703h-10.703z"/><path d="M364.216 171.194h10.703v10.703h-10.703z"/><path d="M374.194 171.194h10.703v10.703h-10.703z"/><path d="M384.172 171.194h10.703v10.703h-10.703z"/><path d="M394.15 171.194h10.703v10.703H394.15z"/><path d="M404.127 171.194h10.703v10.703h-10.703z"/><path d="M414.105 171.194h10.703v10.703h-10.703z"/><path d="M424.083 171.194h10.703v10.703h-10.703z"/><path d="M434.06 171.194h10.703v10.703H434.06z"/><path d="M444.038 171.194h10.703v10.703h-10.703z"/><path d="M454.016 171.194h10.703v10.703h-10.703z"/><path d="M463.994 171.194h10.703v10.703h-10.703z"/><path d="M473.971 171.194h10.703v10.703h-10.703z"/><path d="M483.949 171.194h10.703v10.703h-10.703z"/><path d="M493.927 171.194h10.703v10.703h-10.703z"/><path d="M503.905 171.194h10.703v10.703h-10.703z"/><path d="M513.882 171.194h10.703v10.703h-10.703z"/><path d="M523.86 171.194h10.703v10.703H523.86z"/><path d="M533.838 171.194h10.703v10.703h-10.703z"/><path d="M543.815 171.194h10.703v10.703h-10.703z"/><path d="M553.793 171.194h10.703v10.703h-10.703z"/><path d="M563.771 171.194h10.703v10.703h-10.703z"/><path d="M573.749 171.194h10.703v10.703h-10.703z"/><path d="M583.726 171.194h10.703v10.703h-10.703z"/><path d="M593.704 171.194h10.703v10.703h-10.703z"/><path d="M603.682 171.194h10.703v10.703h-10.703z"/><path d="M613.66 171.194h9.99v10.703h-9.99zm-309.31 9.978h10.703v10.703H304.35z"/><path d="M314.328 181.172h10.703v10.703h-10.703z"/><path d="M324.305 181.172h10.703v10.703h-10.703z"/><path d="M334.283 181.172h10.703v10.703h-10.703z"/><path d="M344.261 181.172h10.703v10.703h-10.703z"/><path d="M354.239 181.172h10.703v10.703h-10.703z"/><path d="M364.216 181.172h10.703v10.703h-10.703z"/><path d="M374.194 181.172h10.703v10.703h-10.703z"/><path d="M384.172 181.172h10.703v10.703h-10.703z"/><path d="M394.15 181.172h10.703v10.703H394.15z"/><path d="M404.127 181.172h10.703v10.703h-10.703z"/><path d="M414.105 181.172h10.703v10.703h-10.703z"/><path d="M424.083 181.172h10.703v10.703h-10.703z"/><path d="M434.06 181.172h10.703v10.703H434.06z"/><path d="M444.038 181.172h10.703v10.703h-10.703z"/><path d="M454.016 181.172h10.703v10.703h-10.703z"/><path d="M463.994 181.172h10.703v10.703h-10.703z"/><path d="M473.971 181.172h10.703v10.703h-10.703z"/><path d="M483.949 181.172h10.703v10.703h-10.703z"/><path d="M493.927 181.172h10.703v10.703h-10.703z"/><path d="M503.905 181.172h10.703v10.703h-10.703z"/><path d="M513.882 181.172h10.703v10.703h-10.703z"/><path d="M523.86 181.172h10.703v10.703H523.86z"/><path d="M533.838 181.172h10.703v10.703h-10.703z"/><path d="M543.815 181.172h10.703v10.703h-10.703z"/><path d="M553.793 181.172h10.703v10.703h-10.703z"/><path d="M563.771 181.172h10.703v10.703h-10.703z"/><path d="M573.749 181.172h10.703v10.703h-10.703z"/><path d="M583.726 181.172h10.703v10.703h-10.703z"/><path d="M593.704 181.172h10.703v10.703h-10.703z"/><path d="M603.682 181.172h10.703v10.703h-10.703z"/><path d="M613.66 181.172h9.99v10.703h-9.99zm-309.31 9.978h10.703v10.703H304.35z"/><path d="M314.328 191.15h10.703v10.703h-10.703z"/><path d="M324.305 191.15h10.703v10.703h-10.703z"/><path d="M334.283 191.15h10.703v10.703h-10.703z"/><path d="M344.261 191.15h10.703v10.703h-10.703z"/><path d="M354.239 191.15h10.703v10.703h-10.703z"/><path d="M364.216 191.15h10.703v10.703h-10.703z"/><path d="M374.194 191.15h10.703v10.703h-10.703z"/><path d="M384.172 191.15h10.703v10.703h-10.703z"/><path d="M394.15 191.15h10.703v10.703H394.15z"/><path d="M404.127 191.15h10.703v10.703h-10.703z"/><path d="M414.105 191.15h10.703v10.703h-10.703z"/><path d="M424.083 191.15h10.703v10.703h-10.703z"/><path d="M434.06 191.15h10.703v10.703H434.06z"/><path d="M444.038 191.15h10.703v10.703h-10.703z"/><path d="M454.016 191.15h10.703v10.703h-10.703z"/><path d="M463.994 191.15h10.703v10.703h-10.703z"/><path d="M473.971 191.15h10.703v10.703h-10.703z"/><path d="M483.949 191.15h10.703v10.703h-10.703z"/><path d="M493.927 191.15h10.703v10.703h-10.703z"/><path d="M503.905 191.15h10.703v10.703h-10.703z"/><path d="M513.882 191.15h10.703v10.703h-10.703z"/><path d="M523.86 191.15h10.703v10.703H523.86z"/><path d="M533.838 191.15h10.703v10.703h-10.703z"/><path d="M543.815 191.15h10.703v10.703h-10.703z"/><path d="M553.793 191.15h10.703v10.703h-10.703z"/><path d="M563.771 191.15h10.703v10.703h-10.703z"/><path d="M573.749 191.15h10.703v10.703h-10.703z"/><path d="M583.726 191.15h10.703v10.703h-10.703z"/><path d="M593.704 191.15h10.703v10.703h-10.703z"/><path d="M603.682 191.15h10.703v10.703h-10.703z"/><path d="M613.66 191.15h9.99v10.703h-9.99zm-309.31 9.977h10.703v10.703H304.35z"/><path d="M314.328 201.127h10.703v10.703h-10.703z"/><path d="M324.305 201.127h10.703v10.703h-10.703z"/><path d="M334.283 201.127h10.703v10.703h-10.703z"/><path d="M344.261 201.127h10.703v10.703h-10.703z"/><path d="M354.239 201.127h10.703v10.703h-10.703z"/><path d="M364.216 201.127h10.703v10.703h-10.703z"/><path d="M374.194 201.127h10.703v10.703h-10.703z"/><path d="M384.172 201.127h10.703v10.703h-10.703z"/><path d="M394.15 201.127h10.703v10.703H394.15z"/><path d="M404.127 201.127h10.703v10.703h-10.703z"/><path d="M414.105 201.127h10.703v10.703h-10.703z"/><path d="M424.083 201.127h10.703v10.703h-10.703z"/><path d="M434.06 201.127h10.703v10.703H434.06z"/><path d="M444.038 201.127h10.703v10.703h-10.703z"/><path d="M454.016 201.127h10.703v10.703h-10.703z"/><path d="M463.994 201.127h10.703v10.703h-10.703z"/><path d="M473.971 201.127h10.703v10.703h-10.703z"/><path d="M483.949 201.127h10.703v10.703h-10.703z"/><path d="M493.927 201.127h10.703v10.703h-10.703z"/><path d="M503.905 201.127h10.703v10.703h-10.703z"/><path d="M513.882 201.127h10.703v10.703h-10.703z"/><path d="M523.86 201.127h10.703v10.703H523.86z"/><path d="M533.838 201.127h10.703v10.703h-10.703z"/><path d="M543.815 201.127h10.703v10.703h-10.703z"/><path d="M553.793 201.127h10.703v10.703h-10.703z"/><path d="M563.771 201.127h10.703v10.703h-10.703z"/><path d="M573.749 201.127h10.703v10.703h-10.703z"/><path d="M583.726 201.127h10.703v10.703h-10.703z"/><path d="M593.704 201.127h10.703v10.703h-10.703z"/><path d="M603.682 201.127h10.703v10.703h-10.703z"/><path d="M613.66 201.127h9.99v10.703h-9.99zm-309.31 9.978h10.703v10.703H304.35z"/><path d="M314.328 211.105h10.703v10.703h-10.703z"/><path d="M324.305 211.105h10.703v10.703h-10.703z"/><path d="M334.283 211.105h10.703v10.703h-10.703z"/><path d="M344.261 211.105h10.703v10.703h-10.703z"/><path d="M354.239 211.105h10.703v10.703h-10.703z"/><path d="M364.216 211.105h10.703v10.703h-10.703z"/><path d="M374.194 211.105h10.703v10.703h-10.703z"/><path d="M384.172 211.105h10.703v10.703h-10.703z"/><path d="M394.15 211.105h10.703v10.703H394.15z"/><path d="M404.127 211.105h10.703v10.703h-10.703z"/><path d="M414.105 211.105h10.703v10.703h-10.703z"/><path d="M424.083 211.105h10.703v10.703h-10.703z"/><path d="M434.06 211.105h10.703v10.703H434.06z"/><path d="M444.038 211.105h10.703v10.703h-10.703z"/><path d="M454.016 211.105h10.703v10.703h-10.703z"/><path d="M463.994 211.105h10.703v10.703h-10.703z"/><path d="M473.971 211.105h10.703v10.703h-10.703z"/><path d="M483.949 211.105h10.703v10.703h-10.703z"/><path d="M493.927 211.105h10.703v10.703h-10.703z"/><path d="M503.905 211.105h10.703v10.703h-10.703z"/><path d="M513.882 211.105h10.703v10.703h-10.703z"/><path d="M523.86 211.105h10.703v10.703H523.86z"/><path d="M533.838 211.105h10.703v10.703h-10.703z"/><path d="M543.815 211.105h10.703v10.703h-10.703z"/><path d="M553.793 211.105h10.703v10.703h-10.703z"/><path d="M563.771 211.105h10.703v10.703h-10.703z"/><path d="M573.749 211.105h10.703v10.703h-10.703z"/><path d="M583.726 211.105h10.703v10.703h-10.703z"/><path d="M593.704 211.105h10.703v10.703h-10.703z"/><path d="M603.682 211.105h10.703v10.703h-10.703z"/><path d="M613.66 211.105h9.99v10.703h-9.99zm-309.31 9.978h10.703v10.703H304.35z"/><path d="M314.328 221.083h10.703v10.703h-10.703z"/><path d="M324.305 221.083h10.703v10.703h-10.703z"/><path d="M334.283 221.083h10.703v10.703h-10.703z"/><path d="M344.261 221.083h10.703v10.703h-10.703z"/><path d="M354.239 221.083h10.703v10.703h-10.703z"/><path d="M364.216 221.083h10.703v10.703h-10.703z"/><path d="M374.194 221.083h10.703v10.703h-10.703z"/><path d="M384.172 221.083h10.703v10.703h-10.703z"/><path d="M394.15 221.083h10.703v10.703H394.15z"/><path d="M404.127 221.083h10.703v10.703h-10.703z"/><path d="M414.105 221.083h10.703v10.703h-10.703z"/><path d="M424.083 221.083h10.703v10.703h-10.703z"/><path d="M434.06 221.083h10.703v10.703H434.06z"/><path d="M444.038 221.083h10.703v10.703h-10.703z"/><path d="M454.016 221.083h10.703v10.703h-10.703z"/><path d="M463.994 221.083h10.703v10.703h-10.703z"/><path d="M473.971 221.083h10.703v10.703h-10.703z"/><path d="M483.949 221.083h10.703v10.703h-10.703z"/><path d="M493.927 221.083h10.703v10.703h-10.703z"/><path d="M503.905 221.083h10.703v10.703h-10.703z"/><path d="M513.882 221.083h10.703v10.703h-10.703z"/><path d="M523.86 221.083h10.703v10.703H523.86z"/><path d="M533.838 221.083h10.703v10.703h-10.703z"/><path d="M543.815 221.083h10.703v10.703h-10.703z"/><path d="M553.793 221.083h10.703v10.703h-10.703z"/><path d="M563.771 221.083h10.703v10.703h-10.703z"/><path d="M573.749 221.083h10.703v10.703h-10.703z"/><path d="M583.726 221.083h10.703v10.703h-10.703z"/><path d="M593.704 221.083h10.703v10.703h-10.703z"/><path d="M603.682 221.083h10.703v10.703h-10.703z"/><path d="M613.66 221.083h9.99v10.703h-9.99zm-309.31 9.977h10.703v10.703H304.35z"/><path d="M314.328 231.06h10.703v10.703h-10.703z"/><path d="M324.305 231.06h10.703v10.703h-10.703z"/><path d="M334.283 231.06h10.703v10.703h-10.703z"/><path d="M344.261 231.06h10.703v10.703h-10.703z"/><path d="M354.239 231.06h10.703v10.703h-10.703z"/><path d="M364.216 231.06h10.703v10.703h-10.703z"/><path d="M374.194 231.06h10.703v10.703h-10.703z"/><path d="M384.172 231.06h10.703v10.703h-10.703z"/><path d="M394.15 231.06h10.703v10.703H394.15z"/><path d="M404.127 231.06h10.703v10.703h-10.703z"/><path d="M414.105 231.06h10.703v10.703h-10.703z"/><path d="M424.083 231.06h10.703v10.703h-10.703z"/><path d="M434.06 231.06h10.703v10.703H434.06z"/><path d="M444.038 231.06h10.703v10.703h-10.703z"/><path d="M454.016 231.06h10.703v10.703h-10.703z"/><path d="M463.994 231.06h10.703v10.703h-10.703z"/><path d="M473.971 231.06h10.703v10.703h-10.703z"/><path d="M483.949 231.06h10.703v10.703h-10.703z"/><path d="M493.927 231.06h10.703v10.703h-10.703z"/><path d="M503.905 231.06h10.703v10.703h-10.703z"/><path d="M513.882 231.06h10.703v10.703h-10.703z"/><path d="M523.86 231.06h10.703v10.703H523.86z"/><path d="M533.838 231.06h10.703v10.703h-10.703z"/><path d="M543.815 231.06h10.703v10.703h-10.703z"/><path d="M553.793 231.06h10.703v10.703h-10.703z"/><path d="M563.771 231.06h10.703v10.703h-10.703z"/><path d="M573.749 231.06h10.703v10.703h-10.703z"/><path d="M583.726 231.06h10.703v10.703h-10.703z"/><path d="M593.704 231.06h10.703v10.703h-10.703z"/><path d="M603.682 231.06h10.703v10.703h-10.703z"/><path d="M613.66 231.06h9.99v10.703h-9.99zm-309.31 9.978h10.703v10.703H304.35z"/><path d="M314.328 241.038h10.703v10.703h-10.703z"/><path d="M324.305 241.038h10.703v10.703h-10.703z"/><path d="M334.283 241.038h10.703v10.703h-10.703z"/><path d="M344.261 241.038h10.703v10.703h-10.703z"/><path d="M354.239 241.038h10.703v10.703h-10.703z"/><path d="M364.216 241.038h10.703v10.703h-10.703z"/><path d="M374.194 241.038h10.703v10.703h-10.703z"/><path d="M384.172 241.038h10.703v10.703h-10.703z"/><path d="M394.15 241.038h10.703v10.703H394.15z"/><path d="M404.127 241.038h10.703v10.703h-10.703z"/><path d="M414.105 241.038h10.703v10.703h-10.703z"/><path d="M424.083 241.038h10.703v10.703h-10.703z"/><path d="M434.06 241.038h10.703v10.703H434.06z"/><path d="M444.038 241.038h10.703v10.703h-10.703z"/><path d="M454.016 241.038h10.703v10.703h-10.703z"/><path d="M463.994 241.038h10.703v10.703h-10.703z"/><path d="M473.971 241.038h10.703v10.703h-10.703z"/><path d="M483.949 241.038h10.703v10.703h-10.703z"/><path d="M493.927 241.038h10.703v10.703h-10.703z"/><path d="M503.905 241.038h10.703v10.703h-10.703z"/><path d="M513.882 241.038h10.703v10.703h-10.703z"/><path d="M523.86 241.038h10.703v10.703H523.86z"/><path d="M533.838 241.038h10.703v10.703h-10.703z"/><path d="M543.815 241.038h10.703v10.703h-10.703z"/><path d="M553.793 241.038h10.703v10.703h-10.703z"/><path d="M563.771 241.038h10.703v10.703h-10.703z"/><path d="M573.749 241.038h10.703v10.703h-10.703z"/><path d="M583.726 241.038h10.703v10.703h-10.703z"/><path d="M593.704 241.038h10.703v10.703h-10.703z"/><path d="M603.682 241.038h10.703v10.703h-10.703z"/><path d="M613.66 241.038h9.99v10.703h-9.99zm-309.31 9.978h10.703v10.703H304.35z"/><path d="M314.328 251.016h10.703v10.703h-10.703z"/><path d="M324.305 251.016h10.703v10.703h-10.703z"/><path d="M334.283 251.016h10.703v10.703h-10.703z"/><path d="M344.261 251.016h10.703v10.703h-10.703z"/><path d="M354.239 251.016h10.703v10.703h-10.703z"/><path d="M364.216 251.016h10.703v10.703h-10.703z"/><path d="M374.194 251.016h10.703v10.703h-10.703z"/><path d="M384.172 251.016h10.703v10.703h-10.703z"/><path d="M394.15 251.016h10.703v10.703H394.15z"/><path d="M404.127 251.016h10.703v10.703h-10.703z"/><path d="M414.105 251.016h10.703v10.703h-10.703z"/><path d="M424.083 251.016h10.703v10.703h-10.703z"/><path d="M434.06 251.016h10.703v10.703H434.06z"/><path d="M444.038 251.016h10.703v10.703h-10.703z"/><path d="M454.016 251.016h10.703v10.703h-10.703z"/><path d="M463.994 251.016h10.703v10.703h-10.703z"/><path d="M473.971 251.016h10.703v10.703h-10.703z"/><path d="M483.949 251.016h10.703v10.703h-10.703z"/><path d="M493.927 251.016h10.703v10.703h-10.703z"/><path d="M503.905 251.016h10.703v10.703h-10.703z"/><path d="M513.882 251.016h10.703v10.703h-10.703z"/><path d="M523.86 251.016h10.703v10.703H523.86z"/><path d="M533.838 251.016h10.703v10.703h-10.703z"/><path d="M543.815 251.016h10.703v10.703h-10.703z"/><path d="M553.793 251.016h10.703v10.703h-10.703z"/><path d="M563.771 251.016h10.703v10.703h-10.703z"/><path d="M573.749 251.016h10.703v10.703h-10.703z"/><path d="M583.726 251.016h10.703v10.703h-10.703z"/><path d="M593.704 251.016h10.703v10.703h-10.703z"/><path d="M603.682 251.016h10.703v10.703h-10.703z"/><path d="M613.66 251.016h9.99v10.703h-9.99zm-309.31 9.978h10.703v10.703H304.35z"/><path d="M314.328 260.994h10.703v10.703h-10.703z"/><path d="M324.305 260.994h10.703v10.703h-10.703z"/><path d="M334.283 260.994h10.703v10.703h-10.703z"/><path d="M344.261 260.994h10.703v10.703h-10.703z"/><path d="M354.239 260.994h10.703v10.703h-10.703z"/><path d="M364.216 260.994h10.703v10.703h-10.703z"/><path d="M374.194 260.994h10.703v10.703h-10.703z"/><path d="M384.172 260.994h10.703v10.703h-10.703z"/><path d="M394.15 260.994h10.703v10.703H394.15z"/><path d="M404.127 260.994h10.703v10.703h-10.703z"/><path d="M414.105 260.994h10.703v10.703h-10.703z"/><path d="M424.083 260.994h10.703v10.703h-10.703z"/><path d="M434.06 260.994h10.703v10.703H434.06z"/><path d="M444.038 260.994h10.703v10.703h-10.703z"/><path d="M454.016 260.994h10.703v10.703h-10.703z"/><path d="M463.994 260.994h10.703v10.703h-10.703z"/><path d="M473.971 260.994h10.703v10.703h-10.703z"/><path d="M483.949 260.994h10.703v10.703h-10.703z"/><path d="M493.927 260.994h10.703v10.703h-10.703z"/><path d="M503.905 260.994h10.703v10.703h-10.703z"/><path d="M513.882 260.994h10.703v10.703h-10.703z"/><path d="M523.86 260.994h10.703v10.703H523.86z"/><path d="M533.838 260.994h10.703v10.703h-10.703z"/><path d="M543.815 260.994h10.703v10.703h-10.703z"/><path d="M553.793 260.994h10.703v10.703h-10.703z"/><path d="M563.771 260.994h10.703v10.703h-10.703z"/><path d="M573.749 260.994h10.703v10.703h-10.703z"/><path d="M583.726 260.994h10.703v10.703h-10.703z"/><path d="M593.704 260.994h10.703v10.703h-10.703z"/><path d="M603.682 260.994h10.703v10.703h-10.703z"/><path d="M613.66 260.994h9.99v10.703h-9.99zm-309.31 9.977h10.703v10.703H304.35z"/><path d="M314.328 270.971h10.703v10.703h-10.703z"/><path d="M324.305 270.971h10.703v10.703h-10.703z"/><path d="M334.283 270.971h10.703v10.703h-10.703z"/><path d="M344.261 270.971h10.703v10.703h-10.703z"/><path d="M354.239 270.971h10.703v10.703h-10.703z"/><path d="M364.216 270.971h10.703v10.703h-10.703z"/><path d="M374.194 270.971h10.703v10.703h-10.703z"/><path d="M384.172 270.971h10.703v10.703h-10.703z"/><path d="M394.15 270.971h10.703v10.703H394.15z"/><path d="M404.127 270.971h10.703v10.703h-10.703z"/><path d="M414.105 270.971h10.703v10.703h-10.703z"/><path d="M424.083 270.971h10.703v10.703h-10.703z"/><path d="M434.06 270.971h10.703v10.703H434.06z"/><path d="M444.038 270.971h10.703v10.703h-10.703z"/><path d="M454.016 270.971h10.703v10.703h-10.703z"/><path d="M463.994 270.971h10.703v10.703h-10.703z"/><path d="M473.971 270.971h10.703v10.703h-10.703z"/><path d="M483.949 270.971h10.703v10.703h-10.703z"/><path d="M493.927 270.971h10.703v10.703h-10.703z"/><path d="M503.905 270.971h10.703v10.703h-10.703z"/><path d="M513.882 270.971h10.703v10.703h-10.703z"/><path d="M523.86 270.971h10.703v10.703H523.86z"/><path d="M533.838 270.971h10.703v10.703h-10.703z"/><path d="M543.815 270.971h10.703v10.703h-10.703z"/><path d="M553.793 270.971h10.703v10.703h-10.703z"/><path d="M563.771 270.971h10.703v10.703h-10.703z"/><path d="M573.749 270.971h10.703v10.703h-10.703z"/><path d="M583.726 270.971h10.703v10.703h-10.703z"/><path d="M593.704 270.971h10.703v10.703h-10.703z"/><path d="M603.682 270.971h10.703v10.703h-10.703z"/><path d="M613.66 270.971h9.99v10.703h-9.99zm-309.31 9.978h10.703v10.703H304.35z"/><path d="M314.328 280.949h10.703v10.703h-10.703z"/><path d="M324.305 280.949h10.703v10.703h-10.703z"/><path d="M334.283 280.949h10.703v10.703h-10.703z"/><path d="M344.261 280.949h10.703v10.703h-10.703z"/><path d="M354.239 280.949h10.703v10.703h-10.703z"/><path d="M364.216 280.949h10.703v10.703h-10.703z"/><path d="M374.194 280.949h10.703v10.703h-10.703z"/><path d="M384.172 280.949h10.703v10.703h-10.703z"/><path d="M394.15 280.949h10.703v10.703H394.15z"/><path d="M404.127 280.949h10.703v10.703h-10.703z"/><path d="M414.105 280.949h10.703v10.703h-10.703z"/><path d="M424.083 280.949h10.703v10.703h-10.703z"/><path d="M434.06 280.949h10.703v10.703H434.06z"/><path d="M444.038 280.949h10.703v10.703h-10.703z"/><path d="M454.016 280.949h10.703v10.703h-10.703z"/><path d="M463.994 280.949h10.703v10.703h-10.703z"/><path d="M473.971 280.949h10.703v10.703h-10.703z"/><path d="M483.949 280.949h10.703v10.703h-10.703z"/><path d="M493.927 280.949h10.703v10.703h-10.703z"/><path d="M503.905 280.949h10.703v10.703h-10.703z"/><path d="M513.882 280.949h10.703v10.703h-10.703z"/><path d="M523.86 280.949h10.703v10.703H523.86z"/><path d="M533.838 280.949h10.703v10.703h-10.703z"/><path d="M543.815 280.949h10.703v10.703h-10.703z"/><path d="M553.793 280.949h10.703v10.703h-10.703z"/><path d="M563.771 280.949h10.703v10.703h-10.703z"/><path d="M573.749 280.949h10.703v10.703h-10.703z"/><path d="M583.726 280.949h10.703v10.703h-10.703z"/><path d="M593.704 280.949h10.703v10.703h-10.703z"/><path d="M603.682 280.949h10.703v10.703h-10.703z"/><path d="M613.66 280.949h9.99v10.703h-9.99zm-309.31 9.978h10.703v10.703H304.35z"/><path d="M314.328 290.927h10.703v10.703h-10.703z"/><path d="M324.305 290.927h10.703v10.703h-10.703z"/><path d="M334.283 290.927h10.703v10.703h-10.703z"/><path d="M344.261 290.927h10.703v10.703h-10.703z"/><path d="M354.239 290.927h10.703v10.703h-10.703z"/><path d="M364.216 290.927h10.703v10.703h-10.703z"/><path d="M374.194 290.927h10.703v10.703h-10.703z"/><path d="M384.172 290.927h10.703v10.703h-10.703z"/><path d="M394.15 290.927h10.703v10.703H394.15z"/><path d="M404.127 290.927h10.703v10.703h-10.703z"/><path d="M414.105 290.927h10.703v10.703h-10.703z"/><path d="M424.083 290.927h10.703v10.703h-10.703z"/><path d="M434.06 290.927h10.703v10.703H434.06z"/><path d="M444.038 290.927h10.703v10.703h-10.703z"/><path d="M454.016 290.927h10.703v10.703h-10.703z"/><path d="M463.994 290.927h10.703v10.703h-10.703z"/><path d="M473.971 290.927h10.703v10.703h-10.703z"/><path d="M483.949 290.927h10.703v10.703h-10.703z"/><path d="M493.927 290.927h10.703v10.703h-10.703z"/><path d="M503.905 290.927h10.703v10.703h-10.703z"/><path d="M513.882 290.927h10.703v10.703h-10.703z"/><path d="M523.86 290.927h10.703v10.703H523.86z"/><path d="M533.838 290.927h10.703v10.703h-10.703z"/><path d="M543.815 290.927h10.703v10.703h-10.703z"/><path d="M553.793 290.927h10.703v10.703h-10.703z"/><path d="M563.771 290.927h10.703v10.703h-10.703z"/><path d="M573.749 290.927h10.703v10.703h-10.703z"/><path d="M583.726 290.927h10.703v10.703h-10.703z"/><path d="M593.704 290.927h10.703v10.703h-10.703z"/><path d="M603.682 290.927h10.703v10.703h-10.703z"/><path d="M613.66 290.927h9.99v10.703h-9.99zm-309.31 9.978h10.703v10.703H304.35z"/><path d="M314.328 300.905h10.703v10.703h-10.703z"/><path d="M324.305 300.905h10.703v10.703h-10.703z"/><path d="M334.283 300.905h10.703v10.703h-10.703z"/><path d="M344.261 300.905h10.703v10.703h-10.703z"/><path d="M354.239 300.905h10.703v10.703h-10.703z"/><path d="M364.216 300.905h10.703v10.703h-10.703z"/><path d="M374.194 300.905h10.703v10.703h-10.703z"/><path d="M384.172 300.905h10.703v10.703h-10.703z"/><path d="M394.15 300.905h10.703v10.703H394.15z"/><path d="M404.127 300.905h10.703v10.703h-10.703z"/><path d="M414.105 300.905h10.703v10.703h-10.703z"/><path d="M424.083 300.905h10.703v10.703h-10.703z"/><path d="M434.06 300.905h10.703v10.703H434.06z"/><path d="M444.038 300.905h10.703v10.703h-10.703z"/><path d="M454.016 300.905h10.703v10.703h-10.703z"/><path d="M463.994 300.905h10.703v10.703h-10.703z"/><path d="M473.971 300.905h10.703v10.703h-10.703z"/><path d="M483.949 300.905h10.703v10.703h-10.703z"/><path d="M493.927 300.905h10.703v10.703h-10.703z"/><path d="M503.905 300.905h10.703v10.703h-10.703z"/><path d="M513.882 300.905h10.703v10.703h-10.703z"/><path d="M523.86 300.905h10.703v10.703H523.86z"/><path d="M533.838 300.905h10.703v10.703h-10.703z"/><path d="M543.815 300.905h10.703v10.703h-10.703z"/><path d="M553.793 300.905h10.703v10.703h-10.703z"/><path d="M563.771 300.905h10.703v10.703h-10.703z"/><path d="M573.749 300.905h10.703v10.703h-10.703z"/><path d="M583.726 300.905h10.703v10.703h-10.703z"/><path d="M593.704 300.905h10.703v10.703h-10.703z"/><path d="M603.682 300.905h10.703v10.703h-10.703z"/><path d="M613.66 300.905h9.99v10.703h-9.99zm-309.31 9.977h10.703v10.703H304.35z"/><path d="M314.328 310.882h10.703v10.703h-10.703z"/><path d="M324.305 310.882h10.703v10.703h-10.703z"/><path d="M334.283 310.882h10.703v10.703h-10.703z"/><path d="M344.261 310.882h10.703v10.703h-10.703z"/><path d="M354.239 310.882h10.703v10.703h-10.703z"/><path d="M364.216 310.882h10.703v10.703h-10.703z"/><path d="M374.194 310.882h10.703v10.703h-10.703z"/><path d="M384.172 310.882h10.703v10.703h-10.703z"/><path d="M394.15 310.882h10.703v10.703H394.15z"/><path d="M404.127 310.882h10.703v10.703h-10.703z"/><path d="M414.105 310.882h10.703v10.703h-10.703z"/><path d="M424.083 310.882h10.703v10.703h-10.703z"/><path d="M434.06 310.882h10.703v10.703H434.06z"/><path d="M444.038 310.882h10.703v10.703h-10.703z"/><path d="M454.016 310.882h10.703v10.703h-10.703z"/><path d="M463.994 310.882h10.703v10.703h-10.703z"/><path d="M473.971 310.882h10.703v10.703h-10.703z"/><path d="M483.949 310.882h10.703v10.703h-10.703z"/><path d="M493.927 310.882h10.703v10.703h-10.703z"/><path d="M503.905 310.882h10.703v10.703h-10.703z"/><path d="M513.882 310.882h10.703v10.703h-10.703z"/><path d="M523.86 310.882h10.703v10.703H523.86z"/><path d="M533.838 310.882h10.703v10.703h-10.703z"/><path d="M543.815 310.882h10.703v10.703h-10.703z"/><path d="M553.793 310.882h10.703v10.703h-10.703z"/><path d="M563.771 310.882h10.703v10.703h-10.703z"/><path d="M573.749 310.882h10.703v10.703h-10.703z"/><path d="M583.726 310.882h10.703v10.703h-10.703z"/><path d="M593.704 310.882h10.703v10.703h-10.703z"/><path d="M603.682 310.882h10.703v10.703h-10.703z"/><path d="M613.66 310.882h9.99v10.703h-9.99zm-309.31 9.978h10.703v10.703H304.35z"/><path d="M314.328 320.86h10.703v10.703h-10.703z"/><path d="M324.305 320.86h10.703v10.703h-10.703z"/><path d="M334.283 320.86h10.703v10.703h-10.703z"/><path d="M344.261 320.86h10.703v10.703h-10.703z"/><path d="M354.239 320.86h10.703v10.703h-10.703z"/><path d="M364.216 320.86h10.703v10.703h-10.703z"/><path d="M374.194 320.86h10.703v10.703h-10.703z"/><path d="M384.172 320.86h10.703v10.703h-10.703z"/><path d="M394.15 320.86h10.703v10.703H394.15z"/><path d="M404.127 320.86h10.703v10.703h-10.703z"/><path d="M414.105 320.86h10.703v10.703h-10.703z"/><path d="M424.083 320.86h10.703v10.703h-10.703z"/><path d="M434.06 320.86h10.703v10.703H434.06z"/><path d="M444.038 320.86h10.703v10.703h-10.703z"/><path d="M454.016 320.86h10.703v10.703h-10.703z"/><path d="M463.994 320.86h10.703v10.703h-10.703z"/><path d="M473.971 320.86h10.703v10.703h-10.703z"/><path d="M483.949 320.86h10.703v10.703h-10.703z"/><path d="M493.927 320.86h10.703v10.703h-10.703z"/><path d="M503.905 320.86h10.703v10.703h-10.703z"/><path d="M513.882 320.86h10.703v10.703h-10.703z"/><path d="M523.86 320.86h10.703v10.703H523.86z"/><path d="M533.838 320.86h10.703v10.703h-10.703z"/><path d="M543.815 320.86h10.703v10.703h-10.703z"/><path d="M553.793 320.86h10.703v10.703h-10.703z"/><path d="M563.771 320.86h10.703v10.703h-10.703z"/><path d="M573.749 320.86h10.703v10.703h-10.703z"/><path d="M583.726 320.86h10.703v10.703h-10.703z"/><path d="M593.704 320.86h10.703v10.703h-10.703z"/><path d="M603.682 320.86h10.703v10.703h-10.703z"/><path d="M613.66 320.86h9.99v10.703h-9.99zm-309.31 9.978h10.703v10.703H304.35z"/><path d="M314.328 330.838h10.703v10.703h-10.703z"/><path d="M324.305 330.838h10.703v10.703h-10.703z"/><path d="M334.283 330.838h10.703v10.703h-10.703z"/><path d="M344.261 330.838h10.703v10.703h-10.703z"/><path d="M354.239 330.838h10.703v10.703h-10.703z"/><path d="M364.216 330.838h10.703v10.703h-10.703z"/><path d="M374.194 330.838h10.703v10.703h-10.703z"/><path d="M384.172 330.838h10.703v10.703h-10.703z"/><path d="M394.15 330.838h10.703v10.703H394.15z"/><path d="M404.127 330.838h10.703v10.703h-10.703z"/><path d="M414.105 330.838h10.703v10.703h-10.703z"/><path d="M424.083 330.838h10.703v10.703h-10.703z"/><path d="M434.06 330.838h10.703v10.703H434.06z"/><path d="M444.038 330.838h10.703v10.703h-10.703z"/><path d="M454.016 330.838h10.703v10.703h-10.703z"/><path d="M463.994 330.838h10.703v10.703h-10.703z"/><path d="M473.971 330.838h10.703v10.703h-10.703z"/><path d="M483.949 330.838h10.703v10.703h-10.703z"/><path d="M493.927 330.838h10.703v10.703h-10.703z"/><path d="M503.905 330.838h10.703v10.703h-10.703z"/><path d="M513.882 330.838h10.703v10.703h-10.703z"/><path d="M523.86 330.838h10.703v10.703H523.86z"/><path d="M533.838 330.838h10.703v10.703h-10.703z"/><path d="M543.815 330.838h10.703v10.703h-10.703z"/><path d="M553.793 330.838h10.703v10.703h-10.703z"/><path d="M563.771 330.838h10.703v10.703h-10.703z"/><path d="M573.749 330.838h10.703v10.703h-10.703z"/><path d="M583.726 330.838h10.703v10.703h-10.703z"/><path d="M593.704 330.838h10.703v10.703h-10.703z"/><path d="M603.682 330.838h10.703v10.703h-10.703z"/><path d="M613.66 330.838h9.99v10.703h-9.99zm-309.31 9.977h10.703v10.703H304.35z"/><path d="M314.328 340.815h10.703v10.703h-10.703z"/><path d="M324.305 340.815h10.703v10.703h-10.703z"/><path d="M334.283 340.815h10.703v10.703h-10.703z"/><path d="M344.261 340.815h10.703v10.703h-10.703z"/><path d="M354.239 340.815h10.703v10.703h-10.703z"/><path d="M364.216 340.815h10.703v10.703h-10.703z"/><path d="M374.194 340.815h10.703v10.703h-10.703z"/><path d="M384.172 340.815h10.703v10.703h-10.703z"/><path d="M394.15 340.815h10.703v10.703H394.15z"/><path d="M404.127 340.815h10.703v10.703h-10.703z"/><path d="M414.105 340.815h10.703v10.703h-10.703z"/><path d="M424.083 340.815h10.703v10.703h-10.703z"/><path d="M434.06 340.815h10.703v10.703H434.06z"/><path d="M444.038 340.815h10.703v10.703h-10.703z"/><path d="M454.016 340.815h10.703v10.703h-10.703z"/><path d="M463.994 340.815h10.703v10.703h-10.703z"/><path d="M473.971 340.815h10.703v10.703h-10.703z"/><path d="M483.949 340.815h10.703v10.703h-10.703z"/><path d="M493.927 340.815h10.703v10.703h-10.703z"/><path d="M503.905 340.815h10.703v10.703h-10.703z"/><path d="M513.882 340.815h10.703v10.703h-10.703z"/><path d="M523.86 340.815h10.703v10.703H523.86z"/><path d="M533.838 340.815h10.703v10.703h-10.703z"/><path d="M543.815 340.815h10.703v10.703h-10.703z"/><path d="M553.793 340.815h10.703v10.703h-10.703z"/><path d="M563.771 340.815h10.703v10.703h-10.703z"/><path d="M573.749 340.815h10.703v10.703h-10.703z"/><path d="M583.726 340.815h10.703v10.703h-10.703z"/><path d="M593.704 340.815h10.703v10.703h-10.703z"/><path d="M603.682 340.815h10.703v10.703h-10.703z"/><path d="M613.66 340.815h9.99v10.703h-9.99zm-309.31 9.978h10.703v10.703H304.35z"/><path d="M314.328 350.793h10.703v10.703h-10.703z"/><path d="M324.305 350.793h10.703v10.703h-10.703z"/><path d="M334.283 350.793h10.703v10.703h-10.703z"/><path d="M344.261 350.793h10.703v10.703h-10.703z"/><path d="M354.239 350.793h10.703v10.703h-10.703z"/><path d="M364.216 350.793h10.703v10.703h-10.703z"/><path d="M374.194 350.793h10.703v10.703h-10.703z"/><path d="M384.172 350.793h10.703v10.703h-10.703z"/><path d="M394.15 350.793h10.703v10.703H394.15z"/><path d="M404.127 350.793h10.703v10.703h-10.703z"/><path d="M414.105 350.793h10.703v10.703h-10.703z"/><path d="M424.083 350.793h10.703v10.703h-10.703z"/><path d="M434.06 350.793h10.703v10.703H434.06z"/><path d="M444.038 350.793h10.703v10.703h-10.703z"/><path d="M454.016 350.793h10.703v10.703h-10.703z"/><path d="M463.994 350.793h10.703v10.703h-10.703z"/><path d="M473.971 350.793h10.703v10.703h-10.703z"/><path d="M483.949 350.793h10.703v10.703h-10.703z"/><path d="M493.927 350.793h10.703v10.703h-10.703z"/><path d="M503.905 350.793h10.703v10.703h-10.703z"/><path d="M513.882 350.793h10.703v10.703h-10.703z"/><path d="M523.86 350.793h10.703v10.703H523.86z"/><path d="M533.838 350.793h10.703v10.703h-10.703z"/><path d="M543.815 350.793h10.703v10.703h-10.703z"/><path d="M553.793 350.793h10.703v10.703h-10.703z"/><path d="M563.771 350.793h10.703v10.703h-10.703z"/><path d="M573.749 350.793h10.703v10.703h-10.703z"/><path d="M583.726 350.793h10.703v10.703h-10.703z"/><path d="M593.704 350.793h10.703v10.703h-10.703z"/><path d="M603.682 350.793h10.703v10.703h-10.703z"/><path d="M613.66 350.793h9.99v10.703h-9.99zm-309.31 9.978h10.703v10.703H304.35z"/><path d="M314.328 360.771h10.703v10.703h-10.703z"/><path d="M324.305 360.771h10.703v10.703h-10.703z"/><path d="M334.283 360.771h10.703v10.703h-10.703z"/><path d="M344.261 360.771h10.703v10.703h-10.703z"/><path d="M354.239 360.771h10.703v10.703h-10.703z"/><path d="M364.216 360.771h10.703v10.703h-10.703z"/><path d="M374.194 360.771h10.703v10.703h-10.703z"/><path d="M384.172 360.771h10.703v10.703h-10.703z"/><path d="M394.15 360.771h10.703v10.703H394.15z"/><path d="M404.127 360.771h10.703v10.703h-10.703z"/><path d="M414.105 360.771h10.703v10.703h-10.703z"/><path d="M424.083 360.771h10.703v10.703h-10.703z"/><path d="M434.06 360.771h10.703v10.703H434.06z"/><path d="M444.038 360.771h10.703v10.703h-10.703z"/><path d="M454.016 360.771h10.703v10.703h-10.703z"/><path d="M463.994 360.771h10.703v10.703h-10.703z"/><path d="M473.971 360.771h10.703v10.703h-10.703z"/><path d="M483.949 360.771h10.703v10.703h-10.703z"/><path d="M493.927 360.771h10.703v10.703h-10.703z"/><path d="M503.905 360.771h10.703v10.703h-10.703z"/><path d="M513.882 360.771h10.703v10.703h-10.703z"/><path d="M523.86 360.771h10.703v10.703H523.86z"/><path d="M533.838 360.771h10.703v10.703h-10.703z"/><path d="M543.815 360.771h10.703v10.703h-10.703z"/><path d="M553.793 360.771h10.703v10.703h-10.703z"/><path d="M563.771 360.771h10.703v10.703h-10.703z"/><path d="M573.749 360.771h10.703v10.703h-10.703z"/><path d="M583.726 360.771h10.703v10.703h-10.703z"/><path d="M593.704 360.771h10.703v10.703h-10.703z"/><path d="M603.682 360.771h10.703v10.703h-10.703z"/><path d="M613.66 360.771h9.99v10.703h-9.99zm-309.31 9.978h10.703v10.703H304.35z"/><path d="M314.328 370.749h10.703v10.703h-10.703z"/><path d="M324.305 370.749h10.703v10.703h-10.703z"/><path d="M334.283 370.749h10.703v10.703h-10.703z"/><path d="M344.261 370.749h10.703v10.703h-10.703z"/><path d="M354.239 370.749h10.703v10.703h-10.703z"/><path d="M364.216 370.749h10.703v10.703h-10.703z"/><path d="M374.194 370.749h10.703v10.703h-10.703z"/><path d="M384.172 370.749h10.703v10.703h-10.703z"/><path d="M394.15 370.749h10.703v10.703H394.15z"/><path d="M404.127 370.749h10.703v10.703h-10.703z"/><path d="M414.105 370.749h10.703v10.703h-10.703z"/><path d="M424.083 370.749h10.703v10.703h-10.703z"/><path d="M434.06 370.749h10.703v10.703H434.06z"/><path d="M444.038 370.749h10.703v10.703h-10.703z"/><path d="M454.016 370.749h10.703v10.703h-10.703z"/><path d="M463.994 370.749h10.703v10.703h-10.703z"/><path d="M473.971 370.749h10.703v10.703h-10.703z"/><path d="M483.949 370.749h10.703v10.703h-10.703z"/><path d="M493.927 370.749h10.703v10.703h-10.703z"/><path d="M503.905 370.749h10.703v10.703h-10.703z"/><path d="M513.882 370.749h10.703v10.703h-10.703z"/><path d="M523.86 370.749h10.703v10.703H523.86z"/><path d="M533.838 370.749h10.703v10.703h-10.703z"/><path d="M543.815 370.749h10.703v10.703h-10.703z"/><path d="M553.793 370.749h10.703v10.703h-10.703z"/><path d="M563.771 370.749h10.703v10.703h-10.703z"/><path d="M573.749 370.749h10.703v10.703h-10.703z"/><path d="M583.726 370.749h10.703v10.703h-10.703z"/><path d="M593.704 370.749h10.703v10.703h-10.703z"/><path d="M603.682 370.749h10.703v10.703h-10.703z"/><path d="M613.66 370.749h9.99v10.703h-9.99zm-309.31 9.977h10.703v10.703H304.35z"/><path d="M314.328 380.726h10.703v10.703h-10.703z"/><path d="M324.305 380.726h10.703v10.703h-10.703z"/><path d="M334.283 380.726h10.703v10.703h-10.703z"/><path d="M344.261 380.726h10.703v10.703h-10.703z"/><path d="M354.239 380.726h10.703v10.703h-10.703z"/><path d="M364.216 380.726h10.703v10.703h-10.703z"/><path d="M374.194 380.726h10.703v10.703h-10.703z"/><path d="M384.172 380.726h10.703v10.703h-10.703z"/><path d="M394.15 380.726h10.703v10.703H394.15z"/><path d="M404.127 380.726h10.703v10.703h-10.703z"/><path d="M414.105 380.726h10.703v10.703h-10.703z"/><path d="M424.083 380.726h10.703v10.703h-10.703z"/><path d="M434.06 380.726h10.703v10.703H434.06z"/><path d="M444.038 380.726h10.703v10.703h-10.703z"/><path d="M454.016 380.726h10.703v10.703h-10.703z"/><path d="M463.994 380.726h10.703v10.703h-10.703z"/><path d="M473.971 380.726h10.703v10.703h-10.703z"/><path d="M483.949 380.726h10.703v10.703h-10.703z"/><path d="M493.927 380.726h10.703v10.703h-10.703z"/><path d="M503.905 380.726h10.703v10.703h-10.703z"/><path d="M513.882 380.726h10.703v10.703h-10.703z"/><path d="M523.86 380.726h10.703v10.703H523.86z"/><path d="M533.838 380.726h10.703v10.703h-10.703z"/><path d="M543.815 380.726h10.703v10.703h-10.703z"/><path d="M553.793 380.726h10.703v10.703h-10.703z"/><path d="M563.771 380.726h10.703v10.703h-10.703z"/><path d="M573.749 380.726h10.703v10.703h-10.703z"/><path d="M583.726 380.726h10.703v10.703h-10.703z"/><path d="M593.704 380.726h10.703v10.703h-10.703z"/><path d="M603.682 380.726h10.703v10.703h-10.703z"/><path d="M613.66 380.726h9.99v10.703h-9.99zm-309.31 9.978h10.703v10.703H304.35z"/><path d="M314.328 390.704h10.703v10.703h-10.703z"/><path d="M324.305 390.704h10.703v10.703h-10.703z"/><path d="M334.283 390.704h10.703v10.703h-10.703z"/><path d="M344.261 390.704h10.703v10.703h-10.703z"/><path d="M354.239 390.704h10.703v10.703h-10.703z"/><path d="M364.216 390.704h10.703v10.703h-10.703z"/><path d="M374.194 390.704h10.703v10.703h-10.703z"/><path d="M384.172 390.704h10.703v10.703h-10.703z"/><path d="M394.15 390.704h10.703v10.703H394.15z"/><path d="M404.127 390.704h10.703v10.703h-10.703z"/><path d="M414.105 390.704h10.703v10.703h-10.703z"/><path d="M424.083 390.704h10.703v10.703h-10.703z"/><path d="M434.06 390.704h10.703v10.703H434.06z"/><path d="M444.038 390.704h10.703v10.703h-10.703z"/><path d="M454.016 390.704h10.703v10.703h-10.703z"/><path d="M463.994 390.704h10.703v10.703h-10.703z"/><path d="M473.971 390.704h10.703v10.703h-10.703z"/><path d="M483.949 390.704h10.703v10.703h-10.703z"/><path d="M493.927 390.704h10.703v10.703h-10.703z"/><path d="M503.905 390.704h10.703v10.703h-10.703z"/><path d="M513.882 390.704h10.703v10.703h-10.703z"/><path d="M523.86 390.704h10.703v10.703H523.86z"/><path d="M533.838 390.704h10.703v10.703h-10.703z"/><path d="M543.815 390.704h10.703v10.703h-10.703z"/><path d="M553.793 390.704h10.703v10.703h-10.703z"/><path d="M563.771 390.704h10.703v10.703h-10.703z"/><path d="M573.749 390.704h10.703v10.703h-10.703z"/><path d="M583.726 390.704h10.703v10.703h-10.703z"/><path d="M593.704 390.704h10.703v10.703h-10.703z"/><path d="M603.682 390.704h10.703v10.703h-10.703z"/><path d="M613.66 390.704h9.99v10.703h-9.99zm-309.31 9.978h10.703v10.703H304.35z"/><path d="M314.328 400.682h10.703v10.703h-10.703z"/><path d="M324.305 400.682h10.703v10.703h-10.703z"/><path d="M334.283 400.682h10.703v10.703h-10.703z"/><path d="M344.261 400.682h10.703v10.703h-10.703z"/><path d="M354.239 400.682h10.703v10.703h-10.703z"/><path d="M364.216 400.682h10.703v10.703h-10.703z"/><path d="M374.194 400.682h10.703v10.703h-10.703z"/><path d="M384.172 400.682h10.703v10.703h-10.703z"/><path d="M394.15 400.682h10.703v10.703H394.15z"/><path d="M404.127 400.682h10.703v10.703h-10.703z"/><path d="M414.105 400.682h10.703v10.703h-10.703z"/><path d="M424.083 400.682h10.703v10.703h-10.703z"/><path d="M434.06 400.682h10.703v10.703H434.06z"/><path d="M444.038 400.682h10.703v10.703h-10.703z"/><path d="M454.016 400.682h10.703v10.703h-10.703z"/><path d="M463.994 400.682h10.703v10.703h-10.703z"/><path d="M473.971 400.682h10.703v10.703h-10.703z"/><path d="M483.949 400.682h10.703v10.703h-10.703z"/><path d="M493.927 400.682h10.703v10.703h-10.703z"/><path d="M503.905 400.682h10.703v10.703h-10.703z"/><path d="M513.882 400.682h10.703v10.703h-10.703z"/><path d="M523.86 400.682h10.703v10.703H523.86z"/><path d="M533.838 400.682h10.703v10.703h-10.703z"/><path d="M543.815 400.682h10.703v10.703h-10.703z"/><path d="M553.793 400.682h10.703v10.703h-10.703z"/><path d="M563.771 400.682h10.703v10.703h-10.703z"/><path d="M573.749 400.682h10.703v10.703h-10.703z"/><path d="M583.726 400.682h10.703v10.703h-10.703z"/><path d="M593.704 400.682h10.703v10.703h-10.703z"/><path d="M603.682 400.682h10.703v10.703h-10.703z"/><path d="M613.66 400.682h9.99v10.703h-9.99zm-309.31 9.978h10.703v9.99H304.35z"/><path d="M314.328 410.66h10.703v9.99h-10.703z"/><path d="M324.305 410.66h10.703v9.99h-10.703z"/><path d="M334.283 410.66h10.703v9.99h-10.703z"/><path d="M344.261 410.66h10.703v9.99h-10.703z"/><path d="M354.239 410.66h10.703v9.99h-10.703z"/><path d="M364.216 410.66h10.703v9.99h-10.703z"/><path d="M374.194 410.66h10.703v9.99h-10.703z"/><path d="M384.172 410.66h10.703v9.99h-10.703z"/><path d="M394.15 410.66h10.703v9.99H394.15z"/><path d="M404.127 410.66h10.703v9.99h-10.703z"/><path d="M414.105 410.66h10.703v9.99h-10.703z"/><path d="M424.083 410.66h10.703v9.99h-10.703z"/><path d="M434.06 410.66h10.703v9.99H434.06z"/><path d="M444.038 410.66h10.703v9.99h-10.703z"/><path d="M454.016 410.66h10.703v9.99h-10.703z"/><path d="M463.994 410.66h10.703v9.99h-10.703z"/><path d="M473.971 410.66h10.703v9.99h-10.703z"/><path d="M483.949 410.66h10.703v9.99h-10.703z"/><path d="M493.927 410.66h10.703v9.99h-10.703z"/><path d="M503.905 410.66h10.703v9.99h-10.703z"/><path d="M513.882 410.66h10.703v9.99h-10.703z"/><path d="M523.86 410.66h10.703v9.99H523.86z"/><path d="M533.838 410.66h10.703v9.99h-10.703z"/><path d="M543.815 410.66h10.703v9.99h-10.703z"/><path d="M553.793 410.66h10.703v9.99h-10.703z"/><path d="M563.771 410.66h10.703v9.99h-10.703z"/><path d="M573.749 410.66h10.703v9.99h-10.703z"/><path d="M583.726 410.66h10.703v9.99h-10.703z"/><path d="M593.704 410.66h10.703v9.99h-10.703z"/><path d="M603.682 410.66h10.703v9.99h-10.703z"/><path d="M613.66 410.66h9.99v9.99h-9.99z"/></g><path d="M304 101h320v320H304V101zm10 10v300h300V111H314z" fill="#97C1FF" fill-rule="nonzero" opacity=".6"/></g></svg>