<?xml version="1.0" encoding="utf-8"?>
<!-- Generator: Adobe Illustrator 23.0.1, SVG Export Plug-In . SVG Version: 6.00 Build 0)  -->
<svg version="1.1" id="Layer_1" xmlns="http://www.w3.org/2000/svg" xmlns:xlink="http://www.w3.org/1999/xlink" x="0px" y="0px"
	 viewBox="0 0 448 448" style="enable-background:new 0 0 448 448;" xml:space="preserve">
<style type="text/css">
	.st0{fill-rule:evenodd;clip-rule:evenodd;}
	.st1{fill:none;stroke:#3D3D3D;stroke-linecap:square;}
	.st2{fill:none;}
	.st3{fill-rule:evenodd;clip-rule:evenodd;fill:#FFFFFF;}
	.st4{filter:url(#Adobe_OpacityMaskFilter);}
	.st5{mask:url(#mask-2_1_);fill-rule:evenodd;clip-rule:evenodd;fill:#FFFFFF;}
	.st6{filter:url(#Adobe_OpacityMaskFilter_1_);}
	.st7{mask:url(#mask-2_2_);fill-rule:evenodd;clip-rule:evenodd;fill:#FFFFFF;}
	.st8{filter:url(#Adobe_OpacityMaskFilter_2_);}
	.st9{mask:url(#mask-2_3_);fill-rule:evenodd;clip-rule:evenodd;fill:#FFFFFF;}
	.st10{filter:url(#Adobe_OpacityMaskFilter_3_);}
	.st11{mask:url(#mask-2_4_);fill-rule:evenodd;clip-rule:evenodd;fill:#FFFFFF;}
	.st12{filter:url(#Adobe_OpacityMaskFilter_4_);}
	.st13{mask:url(#mask-2_5_);fill-rule:evenodd;clip-rule:evenodd;fill:#FFFFFF;}
	.st14{filter:url(#Adobe_OpacityMaskFilter_5_);}
	.st15{mask:url(#mask-2_6_);fill-rule:evenodd;clip-rule:evenodd;fill:#006AFE;}
	.st16{filter:url(#Adobe_OpacityMaskFilter_6_);}
	.st17{mask:url(#mask-2_7_);fill-rule:evenodd;clip-rule:evenodd;fill:#006AFE;}
</style>
<title>Artboard Copy 25</title>
<desc>Created with Sketch.</desc>
<rect id="Rectangle-3" class="st0" width="448" height="448"/>
<g id="Group-72" transform="translate(87.000000, 87.000000)">
	<g id="Grid-01" transform="translate(0.927425, 0.927425)">
		<g id="Vertical-lines" transform="translate(0.300604, 0.901813)">
			<path id="Line" class="st1" d="M0.6,0v269.3"/>
			<path class="st1" d="M25.9,0v269.3"/>
			<path class="st1" d="M9,0v269.3"/>
			<path class="st1" d="M34.3,0v269.3"/>
			<path class="st1" d="M17.4,0v269.3"/>
			<path class="st1" d="M42.7,0v269.3"/>
			<path class="st1" d="M51.1,0v269.3"/>
			<path class="st1" d="M59.5,0v269.3"/>
			<path class="st1" d="M67.9,0v269.3"/>
			<path class="st1" d="M76.4,0v269.3"/>
			<path class="st1" d="M84.8,0v269.3"/>
			<path class="st1" d="M93.2,0v269.3"/>
			<path class="st1" d="M101.6,0v269.3"/>
			<path class="st1" d="M110,0v269.3"/>
			<path class="st1" d="M118.4,0v269.3"/>
			<path class="st1" d="M126.9,0v269.3"/>
			<path class="st1" d="M135.3,0v269.3"/>
			<path class="st1" d="M143.7,0v269.3"/>
			<path class="st1" d="M152.1,0v269.3"/>
			<path class="st1" d="M160.5,0v269.3"/>
			<path class="st1" d="M168.9,0v269.3"/>
			<path class="st1" d="M177.4,0v269.3"/>
			<path class="st1" d="M185.8,0v269.3"/>
			<path class="st1" d="M194.2,0v269.3"/>
			<path class="st1" d="M202.6,0v269.3"/>
			<path class="st1" d="M211,0v269.3"/>
			<path class="st1" d="M219.4,0v269.3"/>
			<path class="st1" d="M227.9,0v269.3"/>
			<path class="st1" d="M236.3,0v269.3"/>
			<path class="st1" d="M244.7,0v269.3"/>
			<path class="st1" d="M253.1,0v269.3"/>
			<path class="st1" d="M261.5,0v269.3"/>
			<path class="st1" d="M269.9,0v269.3"/>
		</g>
		
			<g id="Horizontal" transform="translate(135.243337, 135.800604) rotate(90.000000) translate(-135.243337, -135.800604) translate(-0.256663, 0.800604)">
			<path class="st1" d="M0.6,0v269.3"/>
			<path class="st1" d="M25.9,0v269.3"/>
			<path class="st1" d="M9,0v269.3"/>
			<path class="st1" d="M34.3,0v269.3"/>
			<path class="st1" d="M17.4,0v269.3"/>
			<path class="st1" d="M42.7,0v269.3"/>
			<path class="st1" d="M51.1,0v269.3"/>
			<path class="st1" d="M59.5,0v269.3"/>
			<path class="st1" d="M67.9,0v269.3"/>
			<path class="st1" d="M76.4,0v269.3"/>
			<path class="st1" d="M84.8,0v269.3"/>
			<path class="st1" d="M93.2,0v269.3"/>
			<path class="st1" d="M101.6,0v269.3"/>
			<path class="st1" d="M110,0v269.3"/>
			<path class="st1" d="M118.4,0v269.3"/>
			<path class="st1" d="M126.9,0v269.3"/>
			<path class="st1" d="M135.3,0v269.3"/>
			<path class="st1" d="M143.7,0v269.3"/>
			<path class="st1" d="M152.1,0v269.3"/>
			<path class="st1" d="M160.5,0v269.3"/>
			<path class="st1" d="M168.9,0v269.3"/>
			<path class="st1" d="M177.4,0v269.3"/>
			<path class="st1" d="M185.8,0v269.3"/>
			<path class="st1" d="M194.2,0v269.3"/>
			<path class="st1" d="M202.6,0v269.3"/>
			<path class="st1" d="M211,0v269.3"/>
			<path class="st1" d="M219.4,0v269.3"/>
			<path class="st1" d="M227.9,0v269.3"/>
			<path class="st1" d="M236.3,0v269.3"/>
			<path class="st1" d="M244.7,0v269.3"/>
			<path class="st1" d="M253.1,0v269.3"/>
			<path class="st1" d="M261.5,0v269.3"/>
			<path class="st1" d="M269.9,0v269.3"/>
		</g>
	</g>
</g>
<polygon id="Fill-1" class="st2" points="89,358 358,358 358,89 89,89 "/>
<g id="Group-12">
	<path id="Fill-2" class="st3" d="M299.2,201.3c-12.2,0-22.2,10-22.2,22.2c0,12.2,10,22.2,22.2,22.2s22.2-9.9,22.2-22.2
		C321.3,211.3,311.4,201.3,299.2,201.3 M299.2,251.7c-15.6,0-28.2-12.7-28.2-28.2c0-15.6,12.7-28.3,28.2-28.3s28.2,12.7,28.2,28.3
		C327.4,239.1,314.7,251.7,299.2,251.7"/>
	<g id="Clip-5">
	</g>
	<defs>
		<filter id="Adobe_OpacityMaskFilter" filterUnits="userSpaceOnUse" x="186.8" y="195.2" width="56.5" height="56.5">
			<feColorMatrix  type="matrix" values="1 0 0 0 0  0 1 0 0 0  0 0 1 0 0  0 0 0 1 0"/>
		</filter>
	</defs>
	<mask maskUnits="userSpaceOnUse" x="186.8" y="195.2" width="56.5" height="56.5" id="mask-2_1_">
		<g class="st4">
			<polygon id="path-1_1_" class="st3" points="89,358 358,358 358,89 89,89 			"/>
		</g>
	</mask>
	<path id="Fill-4" class="st5" d="M192.9,245.7h44.4v-44.4h-44.4V245.7z M240.3,251.7h-50.4c-1.7,0-3-1.4-3-3v-50.4c0-1.7,1.4-3,3-3
		h50.4c1.7,0,3,1.4,3,3v50.4C243.3,250.4,242,251.7,240.3,251.7z"/>
	<defs>
		<filter id="Adobe_OpacityMaskFilter_1_" filterUnits="userSpaceOnUse" x="212.1" y="265.5" width="90.1" height="70.3">
			<feColorMatrix  type="matrix" values="1 0 0 0 0  0 1 0 0 0  0 0 1 0 0  0 0 0 1 0"/>
		</filter>
	</defs>
	<mask maskUnits="userSpaceOnUse" x="212.1" y="265.5" width="90.1" height="70.3" id="mask-2_2_">
		<g class="st6">
			<polygon id="path-1_2_" class="st3" points="89,358 358,358 358,89 89,89 			"/>
		</g>
	</mask>
	<path id="Fill-6" class="st7" d="M296.1,265.5v25.2c0,21.5-17.5,39-39,39c-21.5,0-39-17.5-39-39v-25.2h-6.1v25.2
		c0,24.8,20.2,45.1,45.1,45.1c24.8,0,45.1-20.2,45.1-45.1v-25.2H296.1z"/>
	<defs>
		<filter id="Adobe_OpacityMaskFilter_2_" filterUnits="userSpaceOnUse" x="128" y="111.2" width="90.1" height="53.5">
			<feColorMatrix  type="matrix" values="1 0 0 0 0  0 1 0 0 0  0 0 1 0 0  0 0 0 1 0"/>
		</filter>
	</defs>
	<mask maskUnits="userSpaceOnUse" x="128" y="111.2" width="90.1" height="53.5" id="mask-2_3_">
		<g class="st8">
			<polygon id="path-1_3_" class="st3" points="89,358 358,358 358,89 89,89 			"/>
		</g>
	</mask>
	<path id="Fill-7" class="st9" d="M134.1,164.7v-8.4c0-21.5,17.5-39,39-39c21.5,0,39,17.5,39,39v8.4h6.1v-8.4
		c0-24.8-20.2-45.1-45.1-45.1c-24.8,0-45.1,20.2-45.1,45.1v8.4H134.1z"/>
	<defs>
		<filter id="Adobe_OpacityMaskFilter_3_" filterUnits="userSpaceOnUse" x="98.9" y="195.4" width="64.3" height="56.4">
			<feColorMatrix  type="matrix" values="1 0 0 0 0  0 1 0 0 0  0 0 1 0 0  0 0 0 1 0"/>
		</filter>
	</defs>
	<mask maskUnits="userSpaceOnUse" x="98.9" y="195.4" width="64.3" height="56.4" id="mask-2_4_">
		<g class="st10">
			<polygon id="path-1_4_" class="st3" points="89,358 358,358 358,89 89,89 			"/>
		</g>
	</mask>
	<path id="Fill-8" class="st11" d="M107.2,245.7h47.8L131,204.3L107.2,245.7z M160.2,251.7h-58.2c-1.1,0-2.1-0.6-2.6-1.5
		c-0.5-0.9-0.5-2.1,0-3l29.1-50.4c1.1-1.9,4.2-1.9,5.2,0l29.1,50.4c0.5,0.9,0.5,2.1,0,3C162.2,251.2,161.2,251.7,160.2,251.7z"/>
	<defs>
		<filter id="Adobe_OpacityMaskFilter_4_" filterUnits="userSpaceOnUse" x="296.1" y="105.1" width="57.7" height="76.3">
			<feColorMatrix  type="matrix" values="1 0 0 0 0  0 1 0 0 0  0 0 1 0 0  0 0 0 1 0"/>
		</filter>
	</defs>
	<mask maskUnits="userSpaceOnUse" x="296.1" y="105.1" width="57.7" height="76.3" id="mask-2_5_">
		<g class="st12">
			<polygon id="path-1_5_" class="st3" points="89,358 358,358 358,89 89,89 			"/>
		</g>
	</mask>
	<path id="Fill-9" class="st13" d="M328,105.1l-4.3,4.3l18.6,18.6H316c-10.9,0-19.8,8.9-19.8,19.8v33.6h6.1v-33.6
		c0-7.6,6.2-13.8,13.8-13.8h26.3l-18.6,18.6l4.3,4.3l25.9-25.9L328,105.1z"/>
	<defs>
		<filter id="Adobe_OpacityMaskFilter_5_" filterUnits="userSpaceOnUse" x="128" y="164.7" width="6.1" height="16.8">
			<feColorMatrix  type="matrix" values="1 0 0 0 0  0 1 0 0 0  0 0 1 0 0  0 0 0 1 0"/>
		</filter>
	</defs>
	<mask maskUnits="userSpaceOnUse" x="128" y="164.7" width="6.1" height="16.8" id="mask-2_6_">
		<g class="st14">
			<polygon id="path-1_6_" class="st3" points="89,358 358,358 358,89 89,89 			"/>
		</g>
	</mask>
	<polygon id="Fill-10" class="st15" points="128,181.5 134.1,181.5 134.1,164.7 128,164.7 	"/>
	<defs>
		<filter id="Adobe_OpacityMaskFilter_6_" filterUnits="userSpaceOnUse" x="212.1" y="164.7" width="6.1" height="16.8">
			<feColorMatrix  type="matrix" values="1 0 0 0 0  0 1 0 0 0  0 0 1 0 0  0 0 0 1 0"/>
		</filter>
	</defs>
	<mask maskUnits="userSpaceOnUse" x="212.1" y="164.7" width="6.1" height="16.8" id="mask-2_7_">
		<g class="st16">
			<polygon id="path-1_7_" class="st3" points="89,358 358,358 358,89 89,89 			"/>
		</g>
	</mask>
	<polygon id="Fill-11" class="st17" points="212.1,181.5 218.1,181.5 218.1,164.7 212.1,164.7 	"/>
</g>
</svg>
