<svg version="1.1" id="Layer_1" xmlns="http://www.w3.org/2000/svg" x="0" y="0" viewBox="0 0 288 288" xml:space="preserve" enable-background="new 0 0 288 288"><style>.st1,.st2{fill:none;stroke:#565656;stroke-width:.6429;stroke-linecap:square}.st2{stroke:#3d3d3d}</style><g id="Group-36-Copy-11"><path id="Rectangle-3" fill-rule="evenodd" clip-rule="evenodd" d="M0 0h288v288H0z"/></g><g id="Grid-02-Copy-3" transform="translate(57 57)"><g id="Group-4" transform="translate(0 .941)"><path id="Line" class="st1" d="M1.4.5v173.2"/><path class="st1" d="M23.1.5v173.2M44.7.5v173.2M66.4.5v173.2M88 .5v173.2M109.6.5v173.2M131.3.5v173.2M152.9.5v173.2M174.6.5v173.2"/></g><path class="st1" d="M1.4.5v173.2M23.1.5v173.2M44.7.5v173.2M66.4.5v173.2M88 .5v173.2M109.6.5v173.2M131.3.5v173.2M152.9.5v173.2M174.6.5v173.2" transform="rotate(90 87.53 87.53)"/></g><g id="Grid-02-Copy-4"><path class="st2" d="M1.4.5v173.2M23.1.5v173.2M44.7.5v173.2M66.4.5v173.2M88 .5v173.2M109.6.5v173.2M131.3.5v173.2M152.9.5v173.2M174.6.5v173.2" transform="translate(57 57.941)"/><path class="st2" d="M1.4.5v173.2M23.1.5v173.2M44.7.5v173.2M66.4.5v173.2M88 .5v173.2M109.6.5v173.2M131.3.5v173.2M152.9.5v173.2M174.6.5v173.2" transform="rotate(90 87.53 144.53)"/></g><path d="M108.5 93h-2.6C98.8 93 93 98.8 93 105.9V231h16.1v-35.5H231v-16.1H109.1v-70.3H231V93H108.5z" fill="#fff" id="Mask"/><defs><filter id="Adobe_OpacityMaskFilter" filterUnits="userSpaceOnUse" x="80.1" y="80.7" width="64.5" height="64.5"><feColorMatrix values="1 0 0 0 0 0 1 0 0 0 0 0 1 0 0 0 0 0 1 0"/></filter></defs><mask maskUnits="userSpaceOnUse" x="80.1" y="80.7" width="64.5" height="64.5" id="mask-2_1_"><g filter="url(#Adobe_OpacityMaskFilter)"><path id="path-1_1_" d="M108.5 93h-2.6C98.8 93 93 98.8 93 105.9V231h16.1v-35.5H231v-16.1H109.1v-70.3H231V93H108.5z" fill-rule="evenodd" clip-rule="evenodd" fill="#fff"/></g></mask><path id="Rectangle" mask="url(#mask-2_1_)" fill="#0062ff" d="M80.1 80.7h64.5v64.5H80.1z"/></svg>