<?xml version="1.0" encoding="utf-8"?>
<!-- Generator: Adobe Illustrator 23.0.1, SVG Export Plug-In . SVG Version: 6.00 Build 0)  -->
<svg version="1.1" id="Layer_1" xmlns="http://www.w3.org/2000/svg" xmlns:xlink="http://www.w3.org/1999/xlink" x="0px" y="0px"
	 viewBox="0 0 448 448" style="enable-background:new 0 0 448 448;" xml:space="preserve">
<style type="text/css">
	.st0{fill-rule:evenodd;clip-rule:evenodd;}
	.st1{fill:none;stroke:#3D3D3D;stroke-linecap:square;}
	.st2{fill:none;}
	.st3{fill-rule:evenodd;clip-rule:evenodd;fill:#FFFFFF;}
	.st4{fill-rule:evenodd;clip-rule:evenodd;fill:#0062FF;}
</style>
<title>Artboard Copy 23</title>
<desc>Created with Sketch.</desc>
<rect id="Rectangle-3" class="st0" width="448" height="448"/>
<g id="Group-72" transform="translate(87.000000, 87.000000)">
	<g id="Grid-01" transform="translate(0.927425, 0.927425)">
		<g id="Vertical-lines" transform="translate(0.300604, 0.901813)">
			<path id="Line" class="st1" d="M0.6,0v269.3"/>
			<path class="st1" d="M25.9,0v269.3"/>
			<path class="st1" d="M9,0v269.3"/>
			<path class="st1" d="M34.3,0v269.3"/>
			<path class="st1" d="M17.4,0v269.3"/>
			<path class="st1" d="M42.7,0v269.3"/>
			<path class="st1" d="M51.1,0v269.3"/>
			<path class="st1" d="M59.5,0v269.3"/>
			<path class="st1" d="M67.9,0v269.3"/>
			<path class="st1" d="M76.4,0v269.3"/>
			<path class="st1" d="M84.8,0v269.3"/>
			<path class="st1" d="M93.2,0v269.3"/>
			<path class="st1" d="M101.6,0v269.3"/>
			<path class="st1" d="M110,0v269.3"/>
			<path class="st1" d="M118.4,0v269.3"/>
			<path class="st1" d="M126.9,0v269.3"/>
			<path class="st1" d="M135.3,0v269.3"/>
			<path class="st1" d="M143.7,0v269.3"/>
			<path class="st1" d="M152.1,0v269.3"/>
			<path class="st1" d="M160.5,0v269.3"/>
			<path class="st1" d="M168.9,0v269.3"/>
			<path class="st1" d="M177.4,0v269.3"/>
			<path class="st1" d="M185.8,0v269.3"/>
			<path class="st1" d="M194.2,0v269.3"/>
			<path class="st1" d="M202.6,0v269.3"/>
			<path class="st1" d="M211,0v269.3"/>
			<path class="st1" d="M219.4,0v269.3"/>
			<path class="st1" d="M227.9,0v269.3"/>
			<path class="st1" d="M236.3,0v269.3"/>
			<path class="st1" d="M244.7,0v269.3"/>
			<path class="st1" d="M253.1,0v269.3"/>
			<path class="st1" d="M261.5,0v269.3"/>
			<path class="st1" d="M269.9,0v269.3"/>
		</g>
		
			<g id="Horizontal" transform="translate(135.243337, 135.800604) rotate(90.000000) translate(-135.243337, -135.800604) translate(-0.256663, 0.800604)">
			<path class="st1" d="M0.6,0v269.3"/>
			<path class="st1" d="M25.9,0v269.3"/>
			<path class="st1" d="M9,0v269.3"/>
			<path class="st1" d="M34.3,0v269.3"/>
			<path class="st1" d="M17.4,0v269.3"/>
			<path class="st1" d="M42.7,0v269.3"/>
			<path class="st1" d="M51.1,0v269.3"/>
			<path class="st1" d="M59.5,0v269.3"/>
			<path class="st1" d="M67.9,0v269.3"/>
			<path class="st1" d="M76.4,0v269.3"/>
			<path class="st1" d="M84.8,0v269.3"/>
			<path class="st1" d="M93.2,0v269.3"/>
			<path class="st1" d="M101.6,0v269.3"/>
			<path class="st1" d="M110,0v269.3"/>
			<path class="st1" d="M118.4,0v269.3"/>
			<path class="st1" d="M126.9,0v269.3"/>
			<path class="st1" d="M135.3,0v269.3"/>
			<path class="st1" d="M143.7,0v269.3"/>
			<path class="st1" d="M152.1,0v269.3"/>
			<path class="st1" d="M160.5,0v269.3"/>
			<path class="st1" d="M168.9,0v269.3"/>
			<path class="st1" d="M177.4,0v269.3"/>
			<path class="st1" d="M185.8,0v269.3"/>
			<path class="st1" d="M194.2,0v269.3"/>
			<path class="st1" d="M202.6,0v269.3"/>
			<path class="st1" d="M211,0v269.3"/>
			<path class="st1" d="M219.4,0v269.3"/>
			<path class="st1" d="M227.9,0v269.3"/>
			<path class="st1" d="M236.3,0v269.3"/>
			<path class="st1" d="M244.7,0v269.3"/>
			<path class="st1" d="M253.1,0v269.3"/>
			<path class="st1" d="M261.5,0v269.3"/>
			<path class="st1" d="M269.9,0v269.3"/>
		</g>
	</g>
</g>
<g id="Group-15" transform="translate(89.000000, 89.000000)">
	<polygon id="Fill-1" class="st2" points="0,269 269,269 269,0 0,0 	"/>
</g>
<polygon class="st2" points="89,358 358,358 358,89 89,89 "/>
<g id="Group-8" transform="translate(0.000000, 8.406250)">
	<path id="Fill-2" class="st3" d="M300.7,257.9c-0.1,0-0.7,0-0.8,0c-1.6-0.1-3.1-1.5-3.1-3.2c0.1-1.6,1.2-2.9,2.8-2.9
		c0.1,0,0.6,0.1,0.7,0c25.7,0,46.3-20.6,46.3-45.9c0-24.1-18.8-44.2-42.8-45.8c-1.5-0.1-2.7-1.3-2.8-2.9
		c-1.7-31.9-27.9-56.8-59.8-56.8c-23.1,0-44.4,13.6-54.3,34.6c-0.7,1.5-2.4,2.1-3.9,1.5c-7.3-3-14.9-4.5-22.8-4.5
		c-33.1,0-60,26.9-60,60c0,30,22.3,55.7,51.8,59.8c1.6,0.2,2.8,1.7,2.6,3.4c-0.2,1.6-1.7,2.9-3.4,2.6c-32.5-4.4-57-32.7-57-65.8
		c0-36.4,29.6-66,66-66c7.7,0,15.2,1.3,22.4,3.9c11.3-21.7,34-35.6,58.5-35.6c34.2,0,62.6,26.1,65.7,59.9
		c25.9,3.1,45.8,25.3,45.8,51.6C352.7,234.6,329.4,257.9,300.7,257.9"/>
	<polygon id="Fill-4" class="st3" points="231.5,329.1 279.1,281.4 274.9,277.1 226.5,325.5 226.5,189.9 220.5,189.9 220.5,325.5 
		172.1,277.1 167.9,281.4 215.5,329.1 	"/>
	<polygon id="Fill-6" class="st4" points="215.5,329.1 223.5,337.1 231.5,329.1 	"/>
</g>
</svg>
