<?xml version="1.0" encoding="UTF-8"?>
<svg width="288px" height="288px" viewBox="0 0 288 288" version="1.1" xmlns="http://www.w3.org/2000/svg" xmlns:xlink="http://www.w3.org/1999/xlink">
    <!-- Generator: Sketch 52.4 (67378) - http://www.bohemiancoding.com/sketch -->
    <title>Artboard</title>
    <desc>Created with Sketch.</desc>
    <g id="Artboard" stroke="none" stroke-width="1" fill="none" fill-rule="evenodd">
        <rect id="Rectangle-3-Copy-45" fill="#FFFFFF" x="0" y="0" width="288" height="288"></rect>
        <g id="Grid-01-Copy-2" transform="translate(52.000000, 51.000000)" stroke="#DCDCDC" stroke-linecap="square" stroke-width="0.5">
            <g id="Vertical-lines" transform="translate(0.205100, 0.615299)">
                <path d="M0.410199557,0 L0.410199557,183.769401" id="Line"></path>
                <path d="M17.6385809,0 L17.6385809,183.769401" id="Line"></path>
                <path d="M6.15299335,0 L6.15299335,183.769401" id="Line"></path>
                <path d="M23.3813747,0 L23.3813747,183.769401" id="Line"></path>
                <path d="M11.8957871,0 L11.8957871,183.769401" id="Line"></path>
                <path d="M29.1241685,0 L29.1241685,183.769401" id="Line"></path>
                <path d="M34.8669623,0 L34.8669623,183.769401" id="Line"></path>
                <path d="M40.6097561,0 L40.6097561,183.769401" id="Line"></path>
                <path d="M46.3525499,0 L46.3525499,183.769401" id="Line"></path>
                <path d="M52.0953437,0 L52.0953437,183.769401" id="Line"></path>
                <path d="M57.8381375,0 L57.8381375,183.769401" id="Line"></path>
                <path d="M63.5809313,0 L63.5809313,183.769401" id="Line"></path>
                <path d="M69.3237251,0 L69.3237251,183.769401" id="Line"></path>
                <path d="M75.0665188,0 L75.0665188,183.769401" id="Line"></path>
                <path d="M80.8093126,0 L80.8093126,183.769401" id="Line"></path>
                <path d="M86.5521064,0 L86.5521064,183.769401" id="Line"></path>
                <path d="M92.2949002,0 L92.2949002,183.769401" id="Line"></path>
                <path d="M98.037694,0 L98.037694,183.769401" id="Line"></path>
                <path d="M103.780488,0 L103.780488,183.769401" id="Line"></path>
                <path d="M109.523282,0 L109.523282,183.769401" id="Line"></path>
                <path d="M115.266075,0 L115.266075,183.769401" id="Line"></path>
                <path d="M121.008869,0 L121.008869,183.769401" id="Line"></path>
                <path d="M126.751663,0 L126.751663,183.769401" id="Line"></path>
                <path d="M132.494457,0 L132.494457,183.769401" id="Line"></path>
                <path d="M138.237251,0 L138.237251,183.769401" id="Line"></path>
                <path d="M143.980044,0 L143.980044,183.769401" id="Line"></path>
                <path d="M149.722838,0 L149.722838,183.769401" id="Line"></path>
                <path d="M155.465632,0 L155.465632,183.769401" id="Line"></path>
                <path d="M161.208426,0 L161.208426,183.769401" id="Line"></path>
                <path d="M166.95122,0 L166.95122,183.769401" id="Line"></path>
                <path d="M172.694013,0 L172.694013,183.769401" id="Line"></path>
                <path d="M178.436807,0 L178.436807,183.769401" id="Line"></path>
                <path d="M184.179601,0 L184.179601,183.769401" id="Line"></path>
            </g>
            <g id="Horizontal" transform="translate(92.384701, 92.705100) rotate(90.000000) translate(-92.384701, -92.705100) translate(-0.115299, 0.705100)">
                <path d="M0.410199557,0 L0.410199557,183.769401" id="Line"></path>
                <path d="M17.6385809,0 L17.6385809,183.769401" id="Line"></path>
                <path d="M6.15299335,0 L6.15299335,183.769401" id="Line"></path>
                <path d="M23.3813747,0 L23.3813747,183.769401" id="Line"></path>
                <path d="M11.8957871,0 L11.8957871,183.769401" id="Line"></path>
                <path d="M29.1241685,0 L29.1241685,183.769401" id="Line"></path>
                <path d="M34.8669623,0 L34.8669623,183.769401" id="Line"></path>
                <path d="M40.6097561,0 L40.6097561,183.769401" id="Line"></path>
                <path d="M46.3525499,0 L46.3525499,183.769401" id="Line"></path>
                <path d="M52.0953437,0 L52.0953437,183.769401" id="Line"></path>
                <path d="M57.8381375,0 L57.8381375,183.769401" id="Line"></path>
                <path d="M63.5809313,0 L63.5809313,183.769401" id="Line"></path>
                <path d="M69.3237251,0 L69.3237251,183.769401" id="Line"></path>
                <path d="M75.0665188,0 L75.0665188,183.769401" id="Line"></path>
                <path d="M80.8093126,0 L80.8093126,183.769401" id="Line"></path>
                <path d="M86.5521064,0 L86.5521064,183.769401" id="Line"></path>
                <path d="M92.2949002,0 L92.2949002,183.769401" id="Line"></path>
                <path d="M98.037694,0 L98.037694,183.769401" id="Line"></path>
                <path d="M103.780488,0 L103.780488,183.769401" id="Line"></path>
                <path d="M109.523282,0 L109.523282,183.769401" id="Line"></path>
                <path d="M115.266075,0 L115.266075,183.769401" id="Line"></path>
                <path d="M121.008869,0 L121.008869,183.769401" id="Line"></path>
                <path d="M126.751663,0 L126.751663,183.769401" id="Line"></path>
                <path d="M132.494457,0 L132.494457,183.769401" id="Line"></path>
                <path d="M138.237251,0 L138.237251,183.769401" id="Line"></path>
                <path d="M143.980044,0 L143.980044,183.769401" id="Line"></path>
                <path d="M149.722838,0 L149.722838,183.769401" id="Line"></path>
                <path d="M155.465632,0 L155.465632,183.769401" id="Line"></path>
                <path d="M161.208426,0 L161.208426,183.769401" id="Line"></path>
                <path d="M166.95122,0 L166.95122,183.769401" id="Line"></path>
                <path d="M172.694013,0 L172.694013,183.769401" id="Line"></path>
                <path d="M178.436807,0 L178.436807,183.769401" id="Line"></path>
                <path d="M184.179601,0 L184.179601,183.769401" id="Line"></path>
            </g>
        </g>
        <g id="Group-4-Copy-14" transform="translate(52.000000, 52.000000)">
            <polygon id="Fill-1" points="0 184 184 184 184 0 0 0"></polygon>
            <path d="M125.87095,53.94535 L122.9442,56.8721 L156.00095,89.92885 L22.9977,89.92885 L22.9977,94.06885 L156.00095,94.06885 L122.9442,127.13135 L125.87095,130.0581 L159.86495,96.0641 C162.10745,93.8216 162.10745,90.18185 159.86495,87.9336 L125.87095,53.94535 Z" id="Fill-2" fill="#000000"></path>
        </g>
        <circle id="Oval-5-Copy-8" fill="#EE538B" opacity="0.5" cx="204" cy="144" r="20"></circle>
    </g>
</svg>