<?xml version="1.0" encoding="UTF-8"?>
<svg width="288px" height="544px" viewBox="0 0 288 544" version="1.1" xmlns="http://www.w3.org/2000/svg" xmlns:xlink="http://www.w3.org/1999/xlink">
    <!-- Generator: Sketch 61 (89581) - https://sketch.com -->
    <title>06_Corners_1-mobile_1</title>
    <desc>Created with Sketch.</desc>
    <g id="06_Corners_1-mobile_1" stroke="none" stroke-width="1" fill="none" fill-rule="evenodd">
        <g id="Padding-don’t-Copy-8" fill="#FFFFFF">
            <rect id="Rectangle-3" x="0" y="0" width="288" height="544"></rect>
        </g>
        <circle id="Oval-5-Copy-8" fill="#6EA6FF" style="mix-blend-mode: multiply;" opacity="0.5" cx="244" cy="237" r="13"></circle>
        <g id="Group-9-Copy" transform="translate(171.000000, 163.000000)">
            <polygon id="Fill-1" points="0 78.62 78.62 78.62 78.62 0 0 0"></polygon>
            <g id="Group-8" fill="#000000">
                <path d="M19.655,18.0835828 C18.7877231,18.0835828 18.0826,18.7887059 18.0826,19.6559828 L18.0826,22.1128578 C18.0826,22.9776778 18.7877231,23.6828009 19.655,23.6828009 L22.111875,23.6828009 C22.9791519,23.6828009 23.684275,22.9776778 23.684275,22.1128578 L23.684275,19.6559828 C23.684275,18.7887059 22.9791519,18.0835828 22.111875,18.0835828 L19.655,18.0835828 Z M22.111875,25.4542078 L19.655,25.4542078 C17.8123438,25.4542078 16.31365,23.955514 16.31365,22.1128578 L16.31365,19.6559828 C16.31365,17.8133265 17.8123438,16.3121759 19.655,16.3121759 L22.111875,16.3121759 C23.9545313,16.3121759 25.453225,17.8133265 25.453225,19.6559828 L25.453225,22.1128578 C25.453225,23.955514 23.9545313,25.4542078 22.111875,25.4542078 L22.111875,25.4542078 Z" id="Fill-2"></path>
                <path d="M31.939375,30.3679577 C31.0720981,30.3679577 30.366975,31.0730809 30.366975,31.9403577 L30.366975,34.3972327 C30.366975,35.2620527 31.0720981,35.9671759 31.939375,35.9671759 L34.39625,35.9671759 C35.2635269,35.9671759 35.96865,35.2620527 35.96865,34.3972327 L35.96865,31.9403577 C35.96865,31.0730809 35.2635269,30.3679577 34.39625,30.3679577 L31.939375,30.3679577 Z M34.39625,37.7385827 L31.939375,37.7385827 C30.0967188,37.7385827 28.598025,36.239889 28.598025,34.3972328 L28.598025,31.9403578 C28.598025,30.0977015 30.0967188,28.5965509 31.939375,28.5965509 L34.39625,28.5965509 C36.2389063,28.5965509 37.7376,30.0977015 37.7376,31.9403578 L37.7376,34.3972328 C37.7376,36.239889 36.2389063,37.7385827 34.39625,37.7385827 L34.39625,37.7385827 Z" id="Fill-4"></path>
                <path d="M75.2788957,71.249375 C75.2788957,73.47039 73.4706357,75.27865 71.2496207,75.27865 L31.9396207,75.27865 C29.7186057,75.27865 27.9103457,73.47039 27.9103457,71.249375 L27.9103457,52.47885 L46.6808707,52.47885 C49.8772651,52.47885 52.4790957,49.8794763 52.4790957,46.680625 L52.4790957,27.9101 L71.2496207,27.9101 C73.4706357,27.9101 75.2788957,29.71836 75.2788957,31.939375 L75.2788957,71.249375 Z M19.6552457,50.7099 C18.7879688,50.7099 18.0828457,50.0047769 18.0828457,49.1375 L18.0828457,46.680625 C18.0828457,45.8133481 18.7879688,45.108225 19.6552457,45.108225 L22.1121207,45.108225 C22.9793976,45.108225 23.6845207,45.8133481 23.6845207,46.680625 L23.6845207,49.1375 C23.6845207,50.0047769 22.9793976,50.7099 22.1121207,50.7099 L19.6552457,50.7099 Z M45.1084707,49.1375 L45.1084707,46.680625 C45.1084707,45.8133481 45.8135938,45.108225 46.6808707,45.108225 L49.1377457,45.108225 C50.0050226,45.108225 50.7101457,45.8133481 50.7101457,46.680625 C50.7101457,48.90164 48.9018857,50.7099 46.6808707,50.7099 C45.8135938,50.7099 45.1084707,50.0047769 45.1084707,49.1375 L45.1084707,49.1375 Z M3.34159569,46.680625 L3.34159569,37.3273019 C3.81331569,37.58036 4.34154381,37.7376 4.91399569,37.7376 L7.37087069,37.7376 C9.21352694,37.7376 10.7122207,36.2389063 10.7122207,34.39625 L10.7122207,31.939375 C10.7122207,30.0967188 9.21352694,28.598025 7.37087069,28.598025 L4.91399569,28.598025 C4.34154381,28.598025 3.81331569,28.755265 3.34159569,29.0083231 L3.34159569,10.3016769 C3.81331569,10.554735 4.34154381,10.711975 4.91399569,10.711975 L7.37087069,10.711975 C9.21352694,10.711975 10.7122207,9.21328125 10.7122207,7.370625 L10.7122207,4.91375 C10.7122207,4.343755 10.5549807,3.81307 10.3019226,3.34135 L29.0085688,3.34135 C28.7555107,3.81307 28.5982707,4.343755 28.5982707,4.91375 L28.5982707,7.370625 C28.5982707,9.21328125 30.0969644,10.711975 31.9396207,10.711975 L34.3964957,10.711975 C36.2391519,10.711975 37.7378457,9.21328125 37.7378457,7.370625 L37.7378457,4.91375 C37.7378457,4.343755 37.5806057,3.81307 37.3275476,3.34135 L46.6808707,3.34135 C48.9018857,3.34135 50.7101457,5.14961 50.7101457,7.370625 L50.7101457,16.7239481 C50.2384257,16.47089 49.7077407,16.31365 49.1377457,16.31365 L46.6808707,16.31365 C44.8382144,16.31365 43.3395207,17.8123438 43.3395207,19.655 L43.3395207,22.111875 C43.3395207,23.9545313 44.8382144,25.453225 46.6808707,25.453225 L49.1377457,25.453225 C49.7077407,25.453225 50.2384257,25.295985 50.7101457,25.0429269 L50.7101457,43.7495731 C50.2384257,43.496515 49.7077407,43.339275 49.1377457,43.339275 L46.6808707,43.339275 C44.8382144,43.339275 43.3395207,44.8379688 43.3395207,46.680625 L43.3395207,49.1375 C43.3395207,49.707495 43.4967607,50.23818 43.7498188,50.7099 L25.0431726,50.7099 C25.2962307,50.23818 25.4534707,49.707495 25.4534707,49.1375 L25.4534707,46.680625 C25.4534707,44.8379688 23.9547769,43.339275 22.1121207,43.339275 L19.6552457,43.339275 C17.8125894,43.339275 16.3138957,44.8379688 16.3138957,46.680625 L16.3138957,49.1375 C16.3138957,49.707495 16.4711357,50.23818 16.7241938,50.7099 L7.37087069,50.7099 C5.14985569,50.7099 3.34159569,48.90164 3.34159569,46.680625 L3.34159569,46.680625 Z M3.34159569,31.939375 C3.34159569,31.0720981 4.04671881,30.366975 4.91399569,30.366975 L7.37087069,30.366975 C8.23814756,30.366975 8.94327069,31.0720981 8.94327069,31.939375 L8.94327069,34.39625 C8.94327069,35.2635269 8.23814756,35.96865 7.37087069,35.96865 L4.91399569,35.96865 C4.04671881,35.96865 3.34159569,35.2635269 3.34159569,34.39625 L3.34159569,31.939375 Z M7.37087069,3.34135 C8.23814756,3.34135 8.94327069,4.04647312 8.94327069,4.91375 L8.94327069,7.370625 C8.94327069,8.23790187 8.23814756,8.943025 7.37087069,8.943025 L4.91399569,8.943025 C4.04671881,8.943025 3.34159569,8.23790187 3.34159569,7.370625 C3.34159569,5.14961 5.14985569,3.34135 7.37087069,3.34135 L7.37087069,3.34135 Z M34.3964957,3.34135 C35.2637726,3.34135 35.9688957,4.04647312 35.9688957,4.91375 L35.9688957,7.370625 C35.9688957,8.23790187 35.2637726,8.943025 34.3964957,8.943025 L31.9396207,8.943025 C31.0723438,8.943025 30.3672207,8.23790187 30.3672207,7.370625 L30.3672207,4.91375 C30.3672207,4.04647312 31.0723438,3.34135 31.9396207,3.34135 L34.3964957,3.34135 Z M50.7101457,22.111875 C50.7101457,22.9791519 50.0050226,23.684275 49.1377457,23.684275 L46.6808707,23.684275 C45.8135938,23.684275 45.1084707,22.9791519 45.1084707,22.111875 L45.1084707,19.655 C45.1084707,18.7877231 45.8135938,18.0826 46.6808707,18.0826 L49.1377457,18.0826 C50.0050226,18.0826 50.7101457,18.7877231 50.7101457,19.655 L50.7101457,22.111875 Z M71.2496207,26.14115 L52.4790957,26.14115 L52.4790957,7.370625 C52.4790957,4.17177375 49.8772651,1.5724 46.6808707,1.5724 L7.37087069,1.5724 C4.17447631,1.5724 1.57264569,4.17177375 1.57264569,7.370625 L1.57264569,46.680625 C1.57264569,49.8794763 4.17447631,52.47885 7.37087069,52.47885 L26.1413957,52.47885 L26.1413957,71.249375 C26.1413957,74.4482263 28.7432263,77.0476 31.9396207,77.0476 L71.2496207,77.0476 C74.4460151,77.0476 77.0478457,74.4482263 77.0478457,71.249375 L77.0478457,31.939375 C77.0478457,28.7405238 74.4460151,26.14115 71.2496207,26.14115 L71.2496207,26.14115 Z" id="Fill-6"></path>
            </g>
        </g>
        <path d="M40.698044,164.738386 C38.5154034,164.738386 36.7383863,166.515403 36.7383863,168.698044 L36.7383863,236.301956 C36.7383863,238.484597 38.5154034,240.261614 40.698044,240.261614 L108.301956,240.261614 C110.484597,240.261614 112.261614,238.484597 112.261614,236.301956 L112.261614,168.698044 C112.261614,166.515403 110.484597,164.738386 108.301956,164.738386 L40.698044,164.738386 Z M108.301956,242 L40.698044,242 C37.5568765,242 35,239.443123 35,236.301956 L35,168.698044 C35,165.556877 37.5568765,163 40.698044,163 L108.301956,163 C111.443123,163 114,165.556877 114,168.698044 L114,236.301956 C114,239.443123 111.443123,242 108.301956,242 L108.301956,242 Z" id="Fill-3-Copy" fill="#97C1FF"></path>
        <path d="M70.41,262.376 L70.41,260.732 L71.622,260.732 L71.622,259.892 L70.41,259.892 L70.41,254 L68.91,254 L65.406,259.844 L65.406,260.732 L69.45,260.732 L69.45,262.376 L70.41,262.376 Z M69.45,259.892 L66.354,259.892 L69.39,254.78 L69.45,254.78 L69.45,259.892 Z M74.13,264.776 L74.13,261.368 L74.178,261.368 C74.55,262.136 75.138,262.52 75.99,262.52 C77.538,262.52 78.51,261.26 78.51,259.28 C78.51,257.3 77.538,256.04 75.99,256.04 C75.138,256.04 74.502,256.412 74.178,257.192 L74.13,257.192 L74.13,256.184 L73.17,256.184 L73.17,264.776 L74.13,264.776 Z M75.726,261.656 C74.85,261.656 74.13,261.2 74.13,260.396 L74.13,258.092 C74.13,257.408 74.85,256.904 75.726,256.904 C76.806,256.904 77.478,257.648 77.478,258.752 L77.478,259.808 C77.478,260.912 76.806,261.656 75.726,261.656 Z M80.286,262.376 L82.026,259.952 L82.062,259.952 L83.67,262.376 L84.798,262.376 L82.566,259.184 L84.75,256.184 L83.682,256.184 L82.05,258.488 L82.014,258.488 L80.442,256.184 L79.314,256.184 L81.51,259.256 L79.218,262.376 L80.286,262.376 Z" id="4px" fill="#6F6F6F" fill-rule="nonzero"></path>
        <path d="M36.7383863,117.261614 L112.261614,117.261614 L112.261614,41.7383863 L36.7383863,41.7383863 L36.7383863,117.261614 Z M113.130807,119 L35.8691932,119 C35.3887225,119 35,118.611278 35,118.130807 L35,40.8691932 C35,40.3887225 35.3887225,40 35.8691932,40 L113.130807,40 C113.611278,40 114,40.3887225 114,40.8691932 L114,118.130807 C114,118.611278 113.611278,119 113.130807,119 L113.130807,119 Z" id="Fill-1-Copy" fill="#97C1FF"></path>
        <g id="Group-10-Copy-2" transform="translate(171.000000, 40.000000)">
            <polygon id="Fill-1" points="0 78.6206897 78.6206897 78.6206897 78.6206897 0 0 0"></polygon>
            <polygon id="Fill-2" fill="#000000" points="54.3205086 45.162181 40.1933534 59.2868793 40.1933534 2.45640517 38.4268448 2.45640517 38.4268448 59.2868793 24.2996897 45.162181 23.0491293 46.4127414 39.3113276 62.6724828 55.571069 46.4127414"></polygon>
            <g id="Group-9" transform="translate(1.310345, 23.422414)">
                <path d="M74.8534483,53.6256164 L69.9396552,53.6256164 L69.9396552,51.8566509 L73.9689655,51.8566509 L73.9689655,47.8273405 L75.737931,47.8273405 L75.737931,52.7411336 C75.737931,53.230056 75.3423707,53.6256164 74.8534483,53.6256164" id="Fill-3" fill="#171717"></path>
                <path d="M73.9692112,47.8275862 L75.7381767,47.8275862 L75.7381767,1.14655172 C75.7381767,0.65762931 75.3426164,0.262068966 74.853694,0.262068966 L55.1985216,0.262068966 L55.1985216,2.03103448 L73.9692112,2.03103448 L73.9692112,47.8275862 Z" id="Fill-5" fill="#000000"></path>
                <path d="M69.9396552,51.8571422 L2.03103448,51.8571422 L2.03103448,2.03128017 L20.8017241,2.03128017 L20.8017241,0.262314655 L1.14655172,0.262314655 C0.65762931,0.262314655 0.262068966,0.657875 0.262068966,1.14679741 L0.262068966,52.741625 C0.262068966,53.2305474 0.65762931,53.6261078 1.14655172,53.6261078 L69.9396552,53.6261078 L69.9396552,51.8571422 Z" id="Fill-7" fill="#000000"></path>
            </g>
        </g>
        <circle id="Oval-5-Copy-9" fill="#6EA6FF" style="mix-blend-mode: multiply;" opacity="0.5" cx="247" cy="114" r="13"></circle>
        <path d="M71.568,139.52 L71.568,138.632 L67.164,138.632 L69.42,136.604 C70.488,135.644 71.256,134.732 71.256,133.436 C71.256,132.008 70.32,131 68.688,131 C67.068,131 66.324,131.984 66,132.968 L66.9,133.316 C67.128,132.524 67.608,131.9 68.64,131.9 C69.672,131.9 70.188,132.536 70.188,133.46 L70.188,133.604 C70.188,134.408 69.588,135.248 68.808,135.968 L66.072,138.488 L66.072,139.52 L71.568,139.52 Z M74.352,141.92 L74.352,138.512 L74.4,138.512 C74.772,139.28 75.36,139.664 76.212,139.664 C77.76,139.664 78.732,138.404 78.732,136.424 C78.732,134.444 77.76,133.184 76.212,133.184 C75.36,133.184 74.724,133.556 74.4,134.336 L74.352,134.336 L74.352,133.328 L73.392,133.328 L73.392,141.92 L74.352,141.92 Z M75.948,138.8 C75.072,138.8 74.352,138.344 74.352,137.54 L74.352,135.236 C74.352,134.552 75.072,134.048 75.948,134.048 C77.028,134.048 77.7,134.792 77.7,135.896 L77.7,136.952 C77.7,138.056 77.028,138.8 75.948,138.8 Z M80.508,139.52 L82.248,137.096 L82.284,137.096 L83.892,139.52 L85.02,139.52 L82.788,136.328 L84.972,133.328 L83.904,133.328 L82.272,135.632 L82.236,135.632 L80.664,133.328 L79.536,133.328 L81.732,136.4 L79.44,139.52 L80.508,139.52 Z" id="2px" fill="#6F6F6F" fill-rule="nonzero"></path>
        <g id="Group-27-Copy-4" transform="translate(171.000000, 286.000000)">
            <g id="Group-9" transform="translate(0.000000, 0.689655)">
                <polygon id="Fill-1" points="0 78.6206897 78.6206897 78.6206897 78.6206897 0 0 0"></polygon>
                <g id="Group-8" transform="translate(2.456897, 0.000000)" fill="#000000">
                    <path d="M34.3965517,3.34236207 C31.4974138,3.34236207 29.1387931,5.70098276 29.1387931,8.60012069 C29.1387931,11.4968017 31.4974138,13.8554224 34.3965517,13.8554224 C37.2956897,13.8554224 39.6543103,11.4968017 39.6543103,8.60012069 C39.6543103,5.70098276 37.2956897,3.34236207 34.3965517,3.34236207 M34.3965517,15.6268448 C30.5220259,15.6268448 27.3698276,12.4746466 27.3698276,8.60012069 C27.3698276,4.72313793 30.5220259,1.57093966 34.3965517,1.57093966 C38.2710776,1.57093966 41.4232759,4.72313793 41.4232759,8.60012069 C41.4232759,12.4746466 38.2710776,15.6268448 34.3965517,15.6268448" id="Fill-2"></path>
                    <path d="M22.112069,77.0492586 C10.7857759,77.0492586 1.57241379,67.8334397 1.57241379,56.5096034 C1.57241379,45.1833103 10.7857759,35.9674914 22.112069,35.9674914 L22.112069,37.7389138 C11.7611638,37.7389138 3.34137931,46.1586983 3.34137931,56.5096034 C3.34137931,66.8605086 11.7611638,75.2778362 22.112069,75.2778362 C32.4629741,75.2778362 40.8827586,66.8605086 40.8827586,56.5096034 L42.6517241,56.5096034 C42.6517241,67.8334397 33.4383621,77.0492586 22.112069,77.0492586" id="Fill-4"></path>
                    <path d="M63.8793103,74.5923621 C63.8105172,74.5923621 63.7417241,74.5825345 63.6753879,74.5677931 C63.4346121,74.5112845 63.2306897,74.3540431 63.1103017,74.1402931 L52.037069,54.5268879 C51.324569,53.2615862 49.9781897,52.4778362 48.5261638,52.4778362 L36.8534483,52.4802931 C30.947069,52.4802931 26.1413793,47.6746034 26.1413793,41.7682241 L26.1413793,24.0736552 C26.1413793,21.1499483 28.5196552,18.7692155 31.445819,18.7692155 C33.5071552,18.7692155 35.4309052,19.8797328 36.4628017,21.6658966 L44.7351724,35.9674914 L58.9655172,35.9674914 L58.9655172,37.7389138 L44.2241379,37.7389138 C43.9096552,37.7389138 43.6172845,37.5693879 43.4575862,37.2966724 L34.9321552,22.5528362 C34.2147414,21.3096466 32.8781897,20.5406379 31.445819,20.5406379 C29.4950431,20.5406379 27.9103448,22.1277931 27.9103448,24.0736552 L27.9103448,41.7682241 C27.9103448,46.6967586 31.9224569,50.7088707 36.8534483,50.7088707 L48.5261638,50.7064138 C50.6169828,50.7064138 52.5505603,51.8365862 53.5775431,53.6571466 L64.1815086,72.4425776 L70.7586207,68.0570172 L71.7413793,69.5286983 L64.3706897,74.4424914 C64.2232759,74.5407672 64.0512931,74.5923621 63.8793103,74.5923621" id="Fill-6"></path>
                </g>
            </g>
            <circle id="Oval-5-Copy-5" fill="#6EA6FF" style="mix-blend-mode: multiply;" opacity="0.5" cx="34.5603448" cy="47.2068966" r="13.1034483"></circle>
        </g>
        <path d="M45.5268949,288.738386 C40.681143,288.738386 36.7383863,292.681143 36.7383863,297.526895 L36.7383863,355.473105 C36.7383863,360.318857 40.681143,364.261614 45.5268949,364.261614 L103.473105,364.261614 C108.318857,364.261614 112.261614,360.318857 112.261614,355.473105 L112.261614,297.526895 C112.261614,292.681143 108.318857,288.738386 103.473105,288.738386 L45.5268949,288.738386 Z M103.473105,366 L45.5268949,366 C39.7226161,366 35,361.277384 35,355.473105 L35,297.526895 C35,291.722616 39.7226161,287 45.5268949,287 L103.473105,287 C109.277384,287 114,291.722616 114,297.526895 L114,355.473105 C114,361.277384 109.277384,366 103.473105,366 L103.473105,366 Z" id="Fill-4-Copy-2" fill="#97C1FF"></path>
        <path d="M68.808,386.52 C70.488,386.52 71.592,385.392 71.592,383.748 C71.592,382.164 70.56,381.168 69.12,381.168 C68.1,381.168 67.5,381.684 67.104,382.368 L67.044,382.344 C67.5,380.4 68.496,379.308 70.284,378 L68.988,378 C67.644,378.876 66,380.82 66,383.304 C66,385.296 67.068,386.52 68.808,386.52 Z M68.796,385.644 C67.692,385.644 67.044,385.008 67.044,383.88 L67.044,383.784 C67.044,382.656 67.692,382.02 68.796,382.02 C69.9,382.02 70.548,382.656 70.548,383.784 L70.548,383.88 C70.548,385.008 69.9,385.644 68.796,385.644 Z M74.376,388.776 L74.376,385.368 L74.424,385.368 C74.796,386.136 75.384,386.52 76.236,386.52 C77.784,386.52 78.756,385.26 78.756,383.28 C78.756,381.3 77.784,380.04 76.236,380.04 C75.384,380.04 74.748,380.412 74.424,381.192 L74.376,381.192 L74.376,380.184 L73.416,380.184 L73.416,388.776 L74.376,388.776 Z M75.972,385.656 C75.096,385.656 74.376,385.2 74.376,384.396 L74.376,382.092 C74.376,381.408 75.096,380.904 75.972,380.904 C77.052,380.904 77.724,381.648 77.724,382.752 L77.724,383.808 C77.724,384.912 77.052,385.656 75.972,385.656 Z M80.532,386.376 L82.272,383.952 L82.308,383.952 L83.916,386.376 L85.044,386.376 L82.812,383.184 L84.996,380.184 L83.928,380.184 L82.296,382.488 L82.26,382.488 L80.688,380.184 L79.56,380.184 L81.756,383.256 L79.464,386.376 L80.532,386.376 Z" id="6px-copy" fill="#6F6F6F" fill-rule="nonzero"></path>
        <path d="M74.5,411.738386 C53.6779951,411.738386 36.7383863,428.677995 36.7383863,449.5 C36.7383863,470.322005 53.6779951,487.261614 74.5,487.261614 C95.3220049,487.261614 112.261614,470.322005 112.261614,449.5 C112.261614,428.677995 95.3220049,411.738386 74.5,411.738386 M74.5,489 C52.7194682,489 35,471.280532 35,449.5 C35,427.719468 52.7194682,410 74.5,410 C96.2805318,410 114,427.719468 114,449.5 C114,471.280532 96.2805318,489 74.5,489" id="Fill-5-Copy-2" fill="#97C1FF"></path>
        <g id="Group-28-Copy-2" transform="translate(171.000000, 410.000000)">
            <g id="Group-9" transform="translate(0.034483, 0.689655)">
                <polygon id="Fill-1" fill="#FFFFFF" points="0 78.6206897 78.6206897 78.6206897 78.6206897 0 0 0"></polygon>
                <g id="Group-8" transform="translate(13.856897, 3.112069)">
                    <path d="M25.4534483,7.59975431 C12.3950431,7.59975431 1.76896552,18.2258319 1.76896552,31.2842371 C1.76896552,44.3450991 12.3950431,54.9687198 25.4534483,54.9687198 C38.5118534,54.9687198 49.137931,44.3450991 49.137931,31.2842371 C49.137931,18.2258319 38.5118534,7.59975431 25.4534483,7.59975431 M25.4534483,56.7376853 C11.4196552,56.7376853 0,45.3204871 0,31.2842371 C0,17.250444 11.4196552,5.83078879 25.4534483,5.83078879 C39.4872414,5.83078879 50.9068966,17.250444 50.9068966,31.2842371 C50.9068966,45.3204871 39.4872414,56.7376853 25.4534483,56.7376853" id="Fill-2" fill="#000000"></path>
                    <polygon id="Fill-4" fill="#000000" points="26.3376853 63.2241379 24.5687198 63.2241379 24.5687198 72.1672414 10.7118233 72.1672414 10.7118233 73.9362069 40.1945819 73.9362069 40.1945819 72.1672414 26.3376853 72.1672414"></polygon>
                    <path d="M25.4534483,64.108375 C17.9992241,64.108375 10.7022414,61.543375 4.90396552,56.8826422 L6.01202586,55.5043233 C11.5768966,59.975875 18.2989655,62.3394095 25.4534483,62.3394095 C42.5780172,62.3394095 56.5086207,48.408806 56.5086207,31.2842371 C56.5086207,17.7590216 47.8701724,5.87992672 35.008319,1.72777155 L35.55375,0.0423405172 C49.1453017,4.43281466 58.2775862,16.9900129 58.2775862,31.2842371 C58.2775862,49.384194 43.5534052,64.108375 25.4534483,64.108375" id="Fill-6" fill="#171717"></path>
                </g>
            </g>
            <circle id="Oval-5-Copy-7" fill="#6EA6FF" style="mix-blend-mode: multiply;" opacity="0.5" cx="39.6724138" cy="35.0862069" r="32.4310345"></circle>
        </g>
        <path d="M50.008,509.88 L50.008,506.088 L53.644,506.088 L53.644,505.2 L50.008,505.2 L50.008,502.392 L53.992,502.392 L53.992,501.504 L49,501.504 L49,509.88 L50.008,509.88 Z M57.34,510.024 C58.372,510.024 58.84,509.46 59.08,508.872 L59.128,508.872 L59.128,509.88 L60.088,509.88 L60.088,503.688 L59.128,503.688 L59.128,507.972 C59.128,508.788 58.384,509.16 57.628,509.16 C56.704,509.16 56.212,508.596 56.212,507.492 L56.212,503.688 L55.252,503.688 L55.252,507.66 C55.252,509.16 56.068,510.024 57.34,510.024 Z M64,509.88 L64,509.04 L63.088,509.04 L63.088,501 L62.128,501 L62.128,508.884 C62.128,509.46 62.488,509.88 63.148,509.88 L64,509.88 Z M67.204,509.88 L67.204,509.04 L66.292,509.04 L66.292,501 L65.332,501 L65.332,508.884 C65.332,509.46 65.692,509.88 66.352,509.88 L67.204,509.88 Z M73.732,510.024 C74.908,510.024 75.712,509.448 76.108,508.56 L75.412,508.092 C75.076,508.8 74.512,509.172 73.732,509.172 C72.592,509.172 72.004,508.392 72.004,507.312 L72.004,506.256 C72.004,505.176 72.592,504.396 73.732,504.396 C74.488,504.396 75.016,504.768 75.244,505.404 L76.048,504.996 C75.688,504.144 74.956,503.544 73.732,503.544 C71.992,503.544 70.972,504.804 70.972,506.784 C70.972,508.764 71.992,510.024 73.732,510.024 Z M77.944,502.236 C78.352,502.236 78.532,502.02 78.532,501.696 L78.532,501.54 C78.532,501.216 78.352,501 77.944,501 C77.536,501 77.356,501.216 77.356,501.54 L77.356,501.696 C77.356,502.02 77.536,502.236 77.944,502.236 Z M78.424,509.88 L78.424,503.688 L77.464,503.688 L77.464,509.88 L78.424,509.88 Z M81.424,509.88 L81.424,505.68 C81.424,505.092 82.048,504.648 83.08,504.648 L83.644,504.648 L83.644,503.688 L83.272,503.688 C82.264,503.688 81.7,504.24 81.484,504.828 L81.424,504.828 L81.424,503.688 L80.464,503.688 L80.464,509.88 L81.424,509.88 Z M87.112,510.024 C88.288,510.024 89.092,509.448 89.488,508.56 L88.792,508.092 C88.456,508.8 87.892,509.172 87.112,509.172 C85.972,509.172 85.384,508.392 85.384,507.312 L85.384,506.256 C85.384,505.176 85.972,504.396 87.112,504.396 C87.868,504.396 88.396,504.768 88.624,505.404 L89.428,504.996 C89.068,504.144 88.336,503.544 87.112,503.544 C85.372,503.544 84.352,504.804 84.352,506.784 C84.352,508.764 85.372,510.024 87.112,510.024 Z M92.716,509.88 L92.716,509.04 L91.804,509.04 L91.804,501 L90.844,501 L90.844,508.884 C90.844,509.46 91.204,509.88 91.864,509.88 L92.716,509.88 Z M96.436,510.024 C97.6,510.024 98.488,509.448 98.884,508.608 L98.2,508.116 C97.876,508.8 97.276,509.184 96.496,509.184 C95.344,509.184 94.66,508.38 94.66,507.312 L94.66,507.024 L99.112,507.024 L99.112,506.568 C99.112,504.816 98.092,503.544 96.436,503.544 C94.756,503.544 93.652,504.816 93.652,506.784 C93.652,508.752 94.756,510.024 96.436,510.024 Z M98.08,506.304 L94.66,506.304 L94.66,506.22 C94.66,505.14 95.392,504.348 96.436,504.348 C97.42,504.348 98.08,505.08 98.08,506.172 L98.08,506.304 Z" id="Fullcircle-Copy" fill="#6F6F6F" fill-rule="nonzero"></path>
    </g>
</svg>