<svg xmlns="http://www.w3.org/2000/svg" viewBox="0 0 928 522"><g fill="none" fill-rule="evenodd"><path fill="#FFF" d="M0 0h928v522H0z"/><circle fill="#6EA6FF" style="mix-blend-mode:multiply" opacity=".5" cx="415" cy="400" r="20"/><path d="M504 407h120V287H504z"/><g fill="#000"><path d="M560.25 292.101c-4.425 0-8.025 3.6-8.025 8.025 0 4.422 3.6 8.022 8.025 8.022 4.425 0 8.025-3.6 8.025-8.022 0-4.425-3.6-8.025-8.025-8.025m0 18.75c-5.914 0-10.725-4.81-10.725-10.725 0-5.917 4.811-10.728 10.725-10.728s10.725 4.811 10.725 10.728c0 5.914-4.811 10.725-10.725 10.725m-18.75 93.75c-17.288 0-31.35-14.066-31.35-31.35 0-17.287 14.063-31.353 31.35-31.353v2.703c-15.799 0-28.65 12.852-28.65 28.65 0 15.8 12.851 28.647 28.65 28.647 15.799 0 28.65-12.848 28.65-28.647h2.7c0 17.284-14.062 31.35-31.35 31.35"/><path d="M605.25 400.851a1.347 1.347 0 01-1.174-.69l-16.901-29.936a6.156 6.156 0 00-5.359-3.127L564 367.1c-9.015 0-16.35-7.335-16.35-16.35v-27.007c0-4.463 3.63-8.096 8.096-8.096a8.872 8.872 0 017.658 4.421l12.626 21.829h21.72v2.703h-22.5a1.36 1.36 0 01-1.17-.675l-13.012-22.503a6.159 6.159 0 00-5.322-3.072 5.401 5.401 0 00-5.396 5.393v27.007c0 7.523 6.124 13.647 13.65 13.647l17.816-.004a8.861 8.861 0 017.71 4.504l16.185 28.672 10.039-6.694 1.5 2.247-11.25 7.5c-.225.15-.487.228-.75.228"/></g><path d="M106.64 232.36h114.72V117.64H106.64v114.72zM222.68 235H105.32c-.73 0-1.32-.59-1.32-1.32V116.32c0-.73.59-1.32 1.32-1.32h117.36c.73 0 1.32.59 1.32 1.32v117.36c0 .73-.59 1.32-1.32 1.32zm89.975-117.36a6.023 6.023 0 00-6.014 6.015v102.69a6.022 6.022 0 006.014 6.014h102.69a6.022 6.022 0 006.014-6.014v-102.69a6.022 6.022 0 00-6.014-6.014h-102.69zM415.345 235h-102.69c-4.771 0-8.655-3.884-8.655-8.655v-102.69c0-4.771 3.884-8.655 8.655-8.655h102.69c4.771 0 8.655 3.884 8.655 8.655v102.69c0 4.771-3.884 8.655-8.655 8.655zM519.99 117.64c-7.36 0-13.35 5.99-13.35 13.35v88.02c0 7.36 5.99 13.35 13.35 13.35h88.02c7.36 0 13.35-5.99 13.35-13.35v-88.02c0-7.36-5.99-13.35-13.35-13.35h-88.02zM608.01 235h-88.02c-8.816 0-15.99-7.174-15.99-15.99v-88.02c0-8.816 7.174-15.99 15.99-15.99h88.02c8.816 0 15.99 7.174 15.99 15.99v88.02c0 8.816-7.174 15.99-15.99 15.99zM764 117.64c-31.628 0-57.36 25.732-57.36 57.36s25.732 57.36 57.36 57.36 57.36-25.732 57.36-57.36-25.732-57.36-57.36-57.36M764 235c-33.084 0-60-26.916-60-60s26.916-60 60-60 60 26.916 60 60-26.916 60-60 60" fill="#97C1FF"/><path fill="#FFF" d="M104 407h120V287H104z"/><path fill="#000" d="M186.91 355.932l-21.562 21.558v-86.74h-2.696v86.74l-21.563-21.558-1.909 1.908 24.822 24.818 24.817-24.818z"/><path d="M220.25 404.6h-7.5v-2.7h6.15v-6.15h2.7v7.5a1.35 1.35 0 01-1.35 1.35" fill="#171717"/><path d="M218.9 395.75h2.7V324.5a1.35 1.35 0 00-1.35-1.35h-30v2.7h28.65v69.9zm-6.15 6.15H109.1v-76.05h28.65v-2.7h-30a1.35 1.35 0 00-1.35 1.35v78.75c0 .747.604 1.35 1.35 1.35h105v-2.7z" fill="#000"/><circle fill="#6EA6FF" style="mix-blend-mode:multiply" opacity=".5" cx="219" cy="400" r="20"/><path fill="#FFF" d="M704 407h120V287H704z"/><path d="M764 303.35c-19.931 0-36.15 16.218-36.15 36.15 0 19.935 16.219 36.15 36.15 36.15 19.931 0 36.15-16.215 36.15-36.15 0-19.932-16.219-36.15-36.15-36.15m0 75c-21.42 0-38.85-17.427-38.85-38.85 0-21.42 17.43-38.85 38.85-38.85s38.85 17.43 38.85 38.85c0 21.423-17.43 38.85-38.85 38.85m1.35 9.9h-2.7v13.65H741.5v2.7h45v-2.7h-21.15z" fill="#000"/><path d="M764 389.6c-11.378 0-22.515-3.915-31.365-11.03l1.691-2.103C742.82 383.292 753.08 386.9 764 386.9c26.137 0 47.4-21.263 47.4-47.4 0-20.644-13.185-38.775-32.816-45.113l.832-2.572c20.745 6.7 34.684 25.867 34.684 47.685 0 27.626-22.474 50.1-50.1 50.1" fill="#171717"/><path d="M156.475 452.168c-2.338 0-3.36-1.862-3.36-5.054s1.022-5.054 3.36-5.054 3.36 1.862 3.36 5.054-1.022 5.054-3.36 5.054zm0-1.022c1.526 0 2.128-1.344 2.128-3.234v-1.596c0-1.89-.602-3.234-2.128-3.234-1.526 0-2.128 1.344-2.128 3.234v1.596c0 1.89.602 3.234 2.128 3.234zm5.39 3.654v-10.024h1.12v1.176h.056c.378-.91 1.12-1.344 2.114-1.344 1.806 0 2.94 1.47 2.94 3.78 0 2.31-1.134 3.78-2.94 3.78-.994 0-1.68-.448-2.114-1.344h-.056v3.976h-1.12zm2.982-3.64c1.26 0 2.044-.868 2.044-2.156v-1.232c0-1.288-.784-2.156-2.044-2.156-1.022 0-1.862.588-1.862 1.386v2.688c0 .938.84 1.47 1.862 1.47zm4.074.84l2.674-3.64-2.562-3.584h1.316l1.834 2.688h.042l1.904-2.688h1.246l-2.548 3.5 2.604 3.724h-1.316l-1.876-2.828h-.042l-2.03 2.828h-1.246zm190.816-1.036V452h-6.412v-1.204l3.192-2.94c.91-.84 1.61-1.82 1.61-2.758v-.168c0-1.078-.602-1.82-1.806-1.82-1.204 0-1.764.728-2.03 1.652l-1.05-.406c.378-1.148 1.246-2.296 3.136-2.296 1.904 0 2.996 1.176 2.996 2.842 0 1.512-.896 2.576-2.142 3.696l-2.632 2.366h5.138zm2.128 3.836v-10.024h1.12v1.176h.056c.378-.91 1.12-1.344 2.114-1.344 1.806 0 2.94 1.47 2.94 3.78 0 2.31-1.134 3.78-2.94 3.78-.994 0-1.68-.448-2.114-1.344h-.056v3.976h-1.12zm2.982-3.64c1.26 0 2.044-.868 2.044-2.156v-1.232c0-1.288-.784-2.156-2.044-2.156-1.022 0-1.862.588-1.862 1.386v2.688c0 .938.84 1.47 1.862 1.47zm4.074.84l2.674-3.64-2.562-3.584h1.316l1.834 2.688h.042l1.904-2.688h1.246l-2.548 3.5 2.604 3.724h-1.316l-1.876-2.828h-.042l-2.03 2.828h-1.246zm189.724 0h-1.12v-1.918h-4.718v-1.036l4.088-6.818h1.75v6.874h1.414v.98h-1.414V452zm-1.19-8.862l-3.542 5.964h3.612v-5.964h-.07zm4.41 11.662v-10.024h1.12v1.176h.056c.378-.91 1.12-1.344 2.114-1.344 1.806 0 2.94 1.47 2.94 3.78 0 2.31-1.134 3.78-2.94 3.78-.994 0-1.68-.448-2.114-1.344h-.056v3.976h-1.12zm2.982-3.64c1.26 0 2.044-.868 2.044-2.156v-1.232c0-1.288-.784-2.156-2.044-2.156-1.022 0-1.862.588-1.862 1.386v2.688c0 .938.84 1.47 1.862 1.47zm4.074.84l2.674-3.64-2.562-3.584h1.316l1.834 2.688h.042l1.904-2.688h1.246l-2.548 3.5 2.604 3.724h-1.316l-1.876-2.828h-.042l-2.03 2.828h-1.246zm167.845 0h-1.176v-9.772h5.824v1.036h-4.648v3.276h4.242v1.036h-4.242V452zm10.64 0v-1.176h-.056c-.28.686-.826 1.344-2.03 1.344-1.484 0-2.436-1.008-2.436-2.758v-4.634h1.12v4.438c0 1.288.574 1.946 1.652 1.946.882 0 1.75-.434 1.75-1.386v-4.998h1.12V452h-1.12zm5.684 0h-.994c-.77 0-1.19-.49-1.19-1.162v-9.198h1.12v9.38h1.064v.98zm3.738 0h-.994c-.77 0-1.19-.49-1.19-1.162v-9.198h1.12v9.38h1.064v.98zm7.616.168c-2.03 0-3.22-1.47-3.22-3.78 0-2.31 1.19-3.78 3.22-3.78 1.428 0 2.282.7 2.702 1.694l-.938.476c-.266-.742-.882-1.176-1.764-1.176-1.33 0-2.016.91-2.016 2.17v1.232c0 1.26.686 2.17 2.016 2.17.91 0 1.568-.434 1.96-1.26l.812.546c-.462 1.036-1.4 1.708-2.772 1.708zm4.914-9.086c-.476 0-.686-.252-.686-.63v-.182c0-.378.21-.63.686-.63.476 0 .686.252.686.63v.182c0 .378-.21.63-.686.63zm-.56 8.918v-7.224h1.12V452h-1.12zm4.62 0h-1.12v-7.224h1.12v1.33h.07c.252-.686.91-1.33 2.086-1.33h.434v1.12h-.658c-1.204 0-1.932.518-1.932 1.204v4.9zm6.636.168c-2.03 0-3.22-1.47-3.22-3.78 0-2.31 1.19-3.78 3.22-3.78 1.428 0 2.282.7 2.702 1.694l-.938.476c-.266-.742-.882-1.176-1.764-1.176-1.33 0-2.016.91-2.016 2.17v1.232c0 1.26.686 2.17 2.016 2.17.91 0 1.568-.434 1.96-1.26l.812.546c-.462 1.036-1.4 1.708-2.772 1.708zm6.538-.168h-.994c-.77 0-1.19-.49-1.19-1.162v-9.198h1.12v9.38h1.064v.98zm4.34.168c-1.96 0-3.248-1.484-3.248-3.78s1.288-3.78 3.248-3.78c1.932 0 3.122 1.484 3.122 3.528v.532h-5.194v.336c0 1.246.798 2.184 2.142 2.184.91 0 1.61-.448 1.988-1.246l.798.574c-.462.98-1.498 1.652-2.856 1.652zm0-6.622c-1.218 0-2.072.924-2.072 2.184v.098h3.99v-.154c0-1.274-.77-2.128-1.918-2.128z" fill="#6F6F6F" fill-rule="nonzero"/><circle fill="#6EA6FF" style="mix-blend-mode:multiply" opacity=".5" cx="557" cy="358" r="20"/><circle fill="#6EA6FF" style="mix-blend-mode:multiply" opacity=".5" cx="764.5" cy="339.5" r="49.5"/><path d="M304 406.423h119.423V287H304z"/><g fill="#000"><path d="M333.856 314.469a2.39 2.39 0 00-2.389 2.388v3.732a2.39 2.39 0 002.389 2.385h3.732a2.39 2.39 0 002.388-2.385v-3.732a2.39 2.39 0 00-2.388-2.388h-3.732zm3.732 11.196h-3.732a5.08 5.08 0 01-5.076-5.076v-3.732a5.084 5.084 0 015.076-5.079h3.732a5.084 5.084 0 015.075 5.08v3.731a5.08 5.08 0 01-5.075 5.076zm14.928 7.464a2.39 2.39 0 00-2.389 2.388v3.732a2.39 2.39 0 002.389 2.385h3.731a2.39 2.39 0 002.389-2.385v-3.732a2.39 2.39 0 00-2.389-2.388h-3.731zm3.731 11.195h-3.731a5.08 5.08 0 01-5.076-5.075v-3.732a5.084 5.084 0 015.076-5.08h3.731a5.084 5.084 0 015.076 5.08v3.732a5.08 5.08 0 01-5.076 5.075z"/><path d="M418.348 395.227a6.129 6.129 0 01-6.12 6.12h-59.712a6.129 6.129 0 01-6.12-6.12v-28.512h28.512c4.855 0 8.807-3.949 8.807-8.808v-28.512h28.512a6.129 6.129 0 016.12 6.12v59.712zm-84.492-31.2a2.39 2.39 0 01-2.388-2.388v-3.732a2.39 2.39 0 012.388-2.388h3.732a2.39 2.39 0 012.388 2.388v3.732a2.39 2.39 0 01-2.388 2.389h-3.732zm38.663-2.388v-3.732a2.39 2.39 0 012.389-2.388h3.732a2.39 2.39 0 012.388 2.388 6.129 6.129 0 01-6.12 6.12 2.39 2.39 0 01-2.389-2.388zm-63.443-3.732V343.7a5.023 5.023 0 002.388.623h3.732a5.08 5.08 0 005.076-5.076v-3.731a5.08 5.08 0 00-5.076-5.076h-3.732c-.87 0-1.672.239-2.388.623v-28.415a5.023 5.023 0 002.388.623h3.732a5.08 5.08 0 005.076-5.075v-3.732c0-.866-.24-1.672-.624-2.389h28.416a5.034 5.034 0 00-.624 2.389v3.732a5.08 5.08 0 005.076 5.075h3.732a5.08 5.08 0 005.075-5.075v-3.732c0-.866-.239-1.672-.623-2.389h14.208a6.129 6.129 0 016.12 6.12v14.208a5.034 5.034 0 00-2.388-.623h-3.732a5.08 5.08 0 00-5.076 5.076v3.732a5.08 5.08 0 005.076 5.075h3.732c.865 0 1.672-.239 2.388-.623v28.415a5.034 5.034 0 00-2.388-.623h-3.732a5.08 5.08 0 00-5.076 5.075v3.732c0 .866.239 1.672.623 2.389H342.04a5.034 5.034 0 00.623-2.389v-3.732a5.08 5.08 0 00-5.075-5.075h-3.732a5.08 5.08 0 00-5.075 5.075v3.732c0 .866.238 1.672.623 2.389h-14.208a6.129 6.129 0 01-6.12-6.12zm0-22.391a2.39 2.39 0 012.388-2.389h3.732a2.39 2.39 0 012.389 2.389v3.731a2.39 2.39 0 01-2.389 2.389h-3.732a2.39 2.39 0 01-2.388-2.389v-3.731zm6.12-43.44a2.39 2.39 0 012.389 2.388v3.732a2.39 2.39 0 01-2.389 2.388h-3.732a2.39 2.39 0 01-2.388-2.388 6.129 6.129 0 016.12-6.12zm41.052 0a2.39 2.39 0 012.388 2.388v3.732a2.39 2.39 0 01-2.388 2.388h-3.732a2.39 2.39 0 01-2.389-2.388v-3.732a2.39 2.39 0 012.389-2.389h3.732zm24.78 28.512a2.39 2.39 0 01-2.388 2.388h-3.732a2.39 2.39 0 01-2.389-2.388v-3.732a2.39 2.39 0 012.389-2.389h3.732a2.39 2.39 0 012.388 2.389v3.732zm31.2 6.12h-28.513v-28.512c0-4.86-3.952-8.808-8.807-8.808h-59.712c-4.855 0-8.807 3.949-8.807 8.808v59.711c0 4.86 3.952 8.808 8.807 8.808h28.512v28.512c0 4.859 3.953 8.807 8.808 8.807h59.711c4.856 0 8.808-3.948 8.808-8.807v-59.711c0-4.86-3.952-8.808-8.808-8.808z"/></g></g></svg>