<svg version="1.1" id="Layer_1" xmlns="http://www.w3.org/2000/svg" x="0" y="0" viewBox="0 0 288 543" xml:space="preserve"><style>.st0{fill:#fff}.st1{stroke:#97c1ff;stroke-width:5.2414;stroke-linecap:square}.st1,.st2{fill:none}</style><g id="Artboard-Copy-37"><g id="Group"><g id="Padding-don_x2019_t-Copy-10"><path id="Rectangle-3" class="st0" d="M0 0h288v288H0z"/></g><path id="Path-3-Copy-12" class="st1" d="M129.5 39.8l-86.6 86.6"/><path id="Path-3-Copy-20" class="st1" d="M228.1 66.7L177 96.2"/><path id="Path-3-Copy-25" class="st1" d="M78.8 206.2l29.5 17"/><path id="Path-3-Copy-26" class="st1" d="M218.4 207.8l27.1 27"/><g id="Group-7-Copy-3" transform="translate(45.862 44.793)"><path id="Fill-1" class="st2" d="M0 78.6h78.6V0H0z"/><g id="Group-6"><path id="Fill-2" d="M66.3 77.1h-59c-3.2 0-5.8-2.6-5.8-5.8v-59c0-3.2 2.6-5.8 5.8-5.8h31.9v1.8H7.3c-2.2 0-4 1.8-4 4v59c0 2.2 1.8 4 4 4h59c2.2 0 4-1.8 4-4v-32h1.8v31.9c0 3.3-2.6 5.9-5.8 5.9"/><path id="Fill-4" d="M54 1.6v1.8h20L33.7 43.6l1.2 1.3L75.2 4.6v20H77v-23z"/></g></g><g id="Group-4-Copy-14" transform="translate(166.414 44.793)"><path id="Fill-1_1_" class="st2" d="M0 78.6h78.6V0H0z"/><path id="Fill-2_1_" d="M11.8 64.2h-.1c-3.6-.1-6.9-2-8.7-5.1-.9-1.5-1.4-3.2-1.4-5 0-3.7 1.9-7.1 5.1-9l50.1-28.9c2.2-1.3 4.6-1.9 7.1-1.8 4.7.1 9 2.7 11.3 6.8 1.3 2.2 1.9 4.6 1.8 7.1-.1 4.7-2.7 9-6.8 11.3L29.4 63.3l-.9-1.5 40.9-23.6c3.6-2.1 5.7-5.7 5.9-9.8.1-2.2-.5-4.3-1.6-6.2-2.1-3.6-5.7-5.7-9.8-5.9-2.2 0-4.3.5-6.2 1.6L7.6 46.7c-2.6 1.5-4.3 4.4-4.2 7.4 0 1.4.4 2.9 1.1 4.1 1.5 2.6 4.2 4.2 7.2 4.2 1.5.1 3-.4 4.3-1.1l38.5-22.2c1.6-.9 2.6-2.6 2.6-4.4 0-.9-.2-1.8-.7-2.6-.9-1.6-2.5-2.5-4.4-2.6-1-.1-1.9.2-2.7.7L20.1 47.1l-.9-1.5 29.3-16.9c1.1-.6 2.4-.9 3.6-.9 2.4.1 4.6 1.4 5.8 3.5.6 1.1.9 2.3.9 3.5 0 2.4-1.3 4.7-3.5 6L16.9 62.9c-1.5.9-3.3 1.3-5.1 1.3"/></g><g id="Group-25-Copy-3" transform="translate(45.862 170.586)"><g id="Group-7"><path id="Fill-1_2_" class="st2" d="M0 78.6h78.6V0H0z"/><g id="Group-6_1_"><path id="Fill-2_2_" d="M40.2 75.2v-6.4h-1.8v6.4c-19.1-.5-34.6-15.9-35-35h6.4v-1.8H3.4c.5-19.1 15.9-34.6 35-35v6.4h1.8V3.4c19.1.5 34.6 15.9 35 35h-6.4v1.8h6.4c-.4 19.1-15.9 34.6-35 35m-.9-73.6C18.5 1.6 1.6 18.5 1.6 39.3S18.5 77 39.3 77 77 60.1 77 39.3 60.1 1.6 39.3 1.6"/><path id="Fill-4_1_" d="M55.9 49.9L38.4 39.8V14.7h1.8v24.1l16.6 9.6z"/></g></g></g><g id="Group-7-Copy-4" transform="translate(166.414 170.586)"><path id="Fill-1_3_" class="st2" d="M0 78.6h78.6V0H0z"/><g id="Group-6_2_"><path id="Fill-2_3_" d="M76.2 32.8H2.5c-.5 0-.9-.4-.9-.9V2.5c0-.5.4-.9.9-.9s.8.4.8.9v28.6h71.9V2.5c0-.5.4-.9.9-.9s.9.4.9.9V32c0 .4-.3.8-.8.8"/><path id="Fill-4_2_" d="M54.9 41.4L74 60.5H54.9V41.4zm21.9 19.4L54.7 38.7c-.2-.2-.4-.3-.6-.3H2.5c-.5 0-.9.4-.9.9v36.9c0 .5.4.8.9.8s.9-.4.9-.9v-36h49.8v21.2c0 .5.4.9.9.9h21.2v13.9c0 .5.4.9.9.9s.9-.4.9-.9V61.4l-.3-.6z"/></g></g></g></g><g id="Artboard-Copy-35"><g id="Group_1_"><g id="Padding-don_x2019_t-Copy-10_1_"><path id="Rectangle-3_1_" class="st0" d="M0 255h288v288H0z"/></g><path id="Path-3-Copy-21" class="st1" d="M95.4 335.4l-16.8 16.8"/><path id="Path-3-Copy-22" class="st1" d="M228.4 294.1l-52.1 90.2"/><path id="Path-3-Copy-23" class="st1" d="M62 426.2l45 78.3"/><path id="Path-3-Copy-24" class="st1" d="M106.5 426.2l-45 78.3"/><path id="Path-3-Copy-27" class="st1" d="M174.7 434.8l26.9 26.9-26.9-26.9z"/><g id="Group-10-Copy" transform="translate(44.966 44.793)"><path id="Fill-1_7_" class="st2" d="M0 333.6h78.6V255H0z"/><g id="Group-9"><path id="Fill-2_7_" d="M29.5 322.6c0-1.4-1.1-2.5-2.5-2.5s-2.5 1.1-2.5 2.5 1.1 2.5 2.5 2.5 2.5-1.2 2.5-2.5"/><path id="Fill-4_5_" d="M72.8 289.4c0 2.2-1.8 4-4 4H46.7c-.2 0-.5.1-.6.3l-8.3 8.3v-32.3c0-2.2 1.8-4 4-4h27c2.2 0 4 1.8 4 4v19.7zm-24.5 23.7H5.8v-54.7h42.5v5.6h-6.5c-3.2 0-5.8 2.6-5.8 5.8v34.4c0 .4.2.7.5.8.1 0 .2.1.3.1.2 0 .5-.1.6-.3l9.6-9.6h1.2l.1 17.9zM5.8 330.3h42.5v-15.4H5.8v15.4zm63-66.4H50v-6.5c0-.5-.4-.9-.9-.9H4.9c-.5 0-.9.4-.9.9v73.7c0 .5.4.9.9.9h44.2c.5 0 .9-.4.9-.9v-36h18.8c3.2 0 5.8-2.6 5.8-5.8v-19.7c0-3.1-2.6-5.7-5.8-5.7z"/><path id="Fill-6" d="M44.2 275.5h22.1v-1.7H44.2z"/><path id="Fill-8" d="M44.2 285.4h22.1v-1.8H44.2z"/></g></g><g id="Group-17-Copy-3" transform="translate(165.517 44.793)"><path id="Fill-1_6_" class="st2" d="M0 333.6h78.6V255H0z"/><g id="Group-16" transform="translate(6.224 1.966)"><path id="Fill-2_6_" d="M30.6 328.3c-6 0-12-1.5-17.2-4.4l2.8-4.8c4.3 2.3 9.2 3.6 14.4 3.6 16.7 0 30.4-13.6 30.4-30.4 0-10.9-5.8-20.5-14.4-25.8l2.8-4.9c10.6 6.5 17.2 18.2 17.2 30.7 0 19.9-16.1 36-36 36M2 292.3c0-15.8 12.8-28.6 28.6-28.6s28.6 12.8 28.6 28.6-12.8 28.6-28.6 28.6S2 308.1 2 292.3m48.3-32.2l2-3.5c.2-.4.1-1-.3-1.2-.4-.2-1-.1-1.2.3l-5.7 9.9c-4.3-2.3-9.2-3.6-14.4-3.6C14 262 .3 275.6.3 292.4c0 10.9 5.8 20.5 14.4 25.8l-3.3 5.7-2.4 4.2c-.2.4-.1 1 .3 1.2.1.1.3.1.4.1.3 0 .6-.2.8-.4l2-3.5c5.5 3 11.7 4.6 18.1 4.6 20.8 0 37.7-16.9 37.7-37.7.1-13.2-6.9-25.4-18-32.3"/><path id="Fill-4_4_" d="M33 289.9c0 1.3-1.1 2.4-2.4 2.4s-2.4-1.1-2.4-2.4 1.1-2.4 2.4-2.4c1.4 0 2.4 1.1 2.4 2.4"/><path id="Fill-6_1_" d="M20.7 272.7c0 1.3-1.1 2.4-2.4 2.4s-2.4-1.1-2.4-2.4 1.1-2.4 2.4-2.4c1.4 0 2.4 1.1 2.4 2.4"/><path id="Fill-8_1_" d="M18.3 285c0 1.3-1.1 2.4-2.4 2.4s-2.4-1.1-2.4-2.4 1.1-2.4 2.4-2.4c1.3 0 2.4 1 2.4 2.4"/><path id="Fill-10" d="M52.7 285c0 1.3-1.1 2.4-2.4 2.4-1.3 0-2.4-1.1-2.4-2.4s1.1-2.4 2.4-2.4c1.3 0 2.4 1 2.4 2.4"/><path id="Fill-12" d="M52.7 292.4c0 1.3-1.1 2.4-2.4 2.4-1.3 0-2.4-1.1-2.4-2.4s1.1-2.4 2.4-2.4c1.3 0 2.4 1.1 2.4 2.4"/><path id="Fill-14" d="M42.9 307.1c0 1.3-1.1 2.4-2.4 2.4-1.3 0-2.4-1.1-2.4-2.4s1.1-2.4 2.4-2.4c1.3 0 2.4 1.1 2.4 2.4"/></g></g><g id="Group-11-Copy-2" transform="translate(165.517 170.586)"><path id="Fill-1_5_" class="st2" d="M0 333.6h78.6V255H0z"/><g id="Group-10"><path id="Fill-2_5_" d="M9.8 330.3c-3.6 0-6.5-2.9-6.5-6.5s2.9-6.5 6.5-6.5 6.5 2.9 6.5 6.5-2.9 6.5-6.5 6.5m-3.9-36.9c.3-1.5 1.5-2.7 3-3 .3-.1.6-.1.9-.1 1.1 0 2.1.4 2.8 1.2 1 1 1.4 2.4 1.1 3.8-.3 1.5-1.5 2.7-3 3-1.4.3-2.8-.1-3.8-1.1-.9-1-1.3-2.4-1-3.8m4.8 22.2V300h.4c2.2-.5 3.9-2.2 4.3-4.3.4-2-.1-4-1.6-5.4-1.4-1.4-3.4-2-5.4-1.6-2.2.5-3.9 2.2-4.3 4.3-.4 2 .1 4 1.6 5.4.9.9 2 1.4 3.2 1.6v15.6c-4.1.4-7.4 3.9-7.4 8.2 0 4.6 3.7 8.3 8.3 8.3s8.3-3.7 8.3-8.3c0-4.3-3.3-7.7-7.4-8.2"/><path id="Fill-4_3_" d="M72.7 303.2c.3 1.4-.1 2.8-1.1 3.8s-2.4 1.4-3.8 1.1c-1.5-.3-2.7-1.5-3-3-.3-1.4.1-2.8 1.1-3.8.8-.8 1.8-1.2 2.8-1.2.3 0 .6 0 .9.1 1.6.3 2.8 1.5 3.1 3m-10.4-28.5c0-3.6 2.9-6.5 6.5-6.5s6.5 2.9 6.5 6.5-2.9 6.5-6.5 6.5-6.5-3-6.5-6.5m14.7 0c0-4.6-3.7-8.3-8.3-8.3s-8.3 3.7-8.3 8.3c0 4.2 3.2 7.7 7.4 8.2v15.6c-1.2.2-2.3.7-3.2 1.6-1.4 1.4-2 3.4-1.6 5.4.5 2.2 2.2 3.9 4.3 4.3.4.1.9.1 1.3.1 1.5 0 3-.6 4.1-1.7 1.4-1.4 2-3.4 1.6-5.4-.5-2.2-2.2-3.9-4.3-4.3h-.4v-15.6c4.2-.5 7.4-4 7.4-8.2"/><path id="Fill-6_2_" d="M49.1 278.7c-2.2 0-4-1.8-4-4s1.8-4 4-4 4 1.8 4 4c.1 2.2-1.7 4-4 4m-19.6 51.6c-2.2 0-4-1.8-4-4s1.8-4 4-4 4 1.8 4 4-1.8 4-4 4m25.4-55.6c0-3.2-2.6-5.8-5.8-5.8s-5.8 2.6-5.8 5.8c0 2.9 2.1 5.3 4.9 5.7v45h-13c-.4-2.8-2.8-4.9-5.7-4.9-3.2 0-5.8 2.6-5.8 5.8s2.6 5.8 5.8 5.8c2.9 0 5.3-2.1 5.7-4.9h13.9c.5 0 .9-.4.9-.9v-45.9c2.8-.5 4.9-2.9 4.9-5.7"/><path id="Fill-8_2_" d="M29.5 310.6c-3.6 0-6.5-2.9-6.5-6.5s2.9-6.5 6.5-6.5 6.5 2.9 6.5 6.5-2.9 6.5-6.5 6.5M3.3 264.8c0-3.6 2.9-6.5 6.5-6.5s6.5 2.9 6.5 6.5-2.9 6.5-6.5 6.5-6.5-2.9-6.5-6.5M30.4 296v-11.5c0-.2-.1-.5-.3-.6L16.2 270c1.1-1.4 1.9-3.2 1.9-5.1 0-4.6-3.7-8.3-8.3-8.3s-8.3 3.7-8.3 8.3c0 4.6 3.7 8.3 8.3 8.3 2 0 3.7-.7 5.1-1.9l13.6 13.6V296c-4.1.4-7.4 3.9-7.4 8.2 0 4.6 3.7 8.3 8.3 8.3s8.3-3.7 8.3-8.3c0-4.3-3.2-7.8-7.3-8.2"/></g></g><g id="Group-4-Copy-15" transform="translate(44.966 170.586)"><path id="Fill-1_4_" class="st2" d="M0 333.6h78.6V255H0z"/><path id="Fill-2_4_" d="M4 295.2h33.8l-16.9 29.3L4 295.2zm36.8-1.8l16.9-29.3 16.9 29.3H40.8zm15.4 31.9H22.4L39.3 296l16.9 29.3zm-15.4-30.1h33.8l-16.9 29.3-16.9-29.3zm-18.4-31.9h33.8l-16.9 29.3-16.9-29.3zm15.4 30.1H4l16.9-29.3 16.9 29.3zm39.1.4l-18.4-31.9c-.2-.3-.4-.4-.8-.4H20.9c-.3 0-.6.2-.8.4L1.7 293.8c-.2.3-.2.6 0 .9l18.4 31.9c.2.3.5.4.8.4h36.9c.3 0 .6-.2.8-.4L77 294.7c.1-.2.1-.6-.1-.9z"/></g></g></g></svg>