<?xml version="1.0" encoding="UTF-8"?>
<svg width="928px" height="522px" viewBox="0 0 928 522" version="1.1" xmlns="http://www.w3.org/2000/svg" xmlns:xlink="http://www.w3.org/1999/xlink">
    <!-- Generator: Sketch 52.5 (67469) - http://www.bohemiancoding.com/sketch -->
    <title>Artboard Copy 4</title>
    <desc>Created with Sketch.</desc>
    <defs>
        <polygon id="path-1" points="0 120 120 120 120 0 0 0"></polygon>
    </defs>
    <g id="Artboard-Copy-4" stroke="none" stroke-width="1" fill="none" fill-rule="evenodd">
        <polygon id="Fill-1-Copy" fill="#FFFFFF" points="0 522 928 522 928 0 0 0"></polygon>
        <path d="M189.468037,69.9680374 L189.468037,256.968037" id="Path-3-Copy-12" stroke="#97C1FF" stroke-width="8" stroke-linecap="square" transform="translate(189.468037, 163.468037) rotate(45.000000) translate(-189.468037, -163.468037) "></path>
        <path d="M367.221143,115.933013 L367.221143,205.933013" id="Path-3-Copy-20" stroke="#97C1FF" stroke-width="8" stroke-linecap="square" transform="translate(367.221143, 160.933013) rotate(60.000000) translate(-367.221143, -160.933013) "></path>
        <path d="M560.146447,154.054564 L560.146447,190.23833" id="Path-3-Copy-21" stroke="#97C1FF" stroke-width="8" stroke-linecap="square" transform="translate(560.146447, 172.146447) rotate(45.000000) translate(-560.146447, -172.146447) "></path>
        <path d="M736.183013,85.5990196 L736.183013,244.59902" id="Path-3-Copy-22" stroke="#97C1FF" stroke-width="8" stroke-linecap="square" transform="translate(736.183013, 165.099020) rotate(30.000000) translate(-736.183013, -165.099020) "></path>
        <path d="M555.948515,288.005907 L555.916362,426.00361" id="Path-3-Copy-23" stroke="#97C1FF" stroke-width="8" stroke-linecap="square" transform="translate(555.932439, 357.004758) scale(-1, 1) rotate(30.000000) translate(-555.932439, -357.004758) "></path>
        <path d="M555.948515,288.005907 L555.916362,426.00361" id="Path-3-Copy-24" stroke="#97C1FF" stroke-width="8" stroke-linecap="square" transform="translate(555.932439, 357.004758) rotate(30.000000) translate(-555.932439, -357.004758) "></path>
        <path d="M200.76666,338.433013 L200.76666,390.433013" id="Path-3-Copy-25" stroke="#97C1FF" stroke-width="8" stroke-linecap="square" transform="translate(200.766660, 364.433013) scale(-1, 1) rotate(60.000000) translate(-200.766660, -364.433013) "></path>
        <path d="M410.7928,344.801422 L411.207648,403.199026" id="Path-3-Copy-26" stroke="#97C1FF" stroke-width="8" stroke-linecap="square" stroke-linejoin="round" transform="translate(411.000224, 374.000224) scale(-1, 1) rotate(45.000000) translate(-411.000224, -374.000224) "></path>
        <path d="M694,311 L735.012193,352.012193 L694,311 Z" id="Path-3-Copy-27" stroke="#97C1FF" stroke-width="8" stroke-linecap="square"></path>
        <g id="Group-7-Copy-3" transform="translate(128.000000, 105.000000)">
            <polygon id="Fill-1" points="0 120 120 120 120 0 0 0"></polygon>
            <g id="Group-6" fill="#000000">
                <path d="M101.1345,117.637875 L11.1345,117.637875 C6.25575,117.637875 2.2845,113.666625 2.2845,108.787875 L2.2845,18.787875 C2.2845,13.905375 6.25575,9.934125 11.1345,9.934125 L59.8845,9.934125 L59.8845,12.637875 L11.1345,12.637875 C7.7445,12.637875 4.9845,15.394125 4.9845,18.787875 L4.9845,108.787875 C4.9845,112.177875 7.7445,114.934125 11.1345,114.934125 L101.1345,114.934125 C104.5245,114.934125 107.2845,112.177875 107.2845,108.787875 L107.2845,60.037875 L109.9845,60.037875 L109.9845,108.787875 C109.9845,113.666625 106.01325,117.637875 101.1345,117.637875" id="Fill-2"></path>
                <polygon id="Fill-4" points="82.3845 2.43525 82.3845 5.139 112.872 5.139 51.432 66.579 53.337 68.4915 114.7845 7.044 114.7845 37.53525 117.4845 37.53525 117.4845 2.43525"></polygon>
            </g>
        </g>
        <g id="Group-4-Copy-14" transform="translate(312.000000, 105.000000)">
            <polygon id="Fill-1" points="0 120 120 120 120 0 0 0"></polygon>
            <path d="M18.021375,98.031 L17.792625,98.031 C12.321375,97.95225 7.228875,94.9635 4.495125,90.22725 C3.152625,87.906 2.428875,85.26975 2.398875,82.6035 C2.342625,76.971 5.331375,71.72475 10.202625,68.91225 L86.668875,24.76725 C89.987625,22.84725 93.756375,21.876 97.581375,22.011 C104.788875,22.22475 111.242625,26.07975 114.846375,32.31975 C116.762625,35.631 117.715125,39.39975 117.606375,43.21725 C117.396375,50.4285 113.541375,56.886 107.297625,60.4935 L44.863875,96.54225 L43.513875,94.20225 L105.947625,58.15725 C111.373875,55.02225 114.722625,49.40475 114.906375,43.13475 C115.003875,39.82725 114.175125,36.54975 112.510125,33.666 C109.375125,28.24725 103.765125,24.89475 97.498875,24.7035 C94.180125,24.6585 90.906375,25.4385 88.022625,27.1035 L11.552625,71.2485 C7.525125,73.57725 5.053875,77.916 5.098875,82.5735 C5.125125,84.77475 5.721375,86.95725 6.831375,88.881 C9.092625,92.796 13.307625,95.26725 17.833875,95.32725 C20.140125,95.4735 22.438875,94.7685 24.456375,93.5985 L83.248875,59.65725 C85.660125,58.266 87.167625,55.66725 87.190125,52.881 C87.201375,51.4935 86.833875,50.1135 86.132625,48.891 C84.745125,46.491 82.258875,45.01725 79.483875,44.961 C77.998875,44.8485 76.626375,45.28725 75.370125,46.011 L30.610125,71.856 L29.260125,69.516 L74.020125,43.67475 C75.711375,42.69975 77.676375,42.25725 79.543875,42.25725 C83.267625,42.33975 86.608875,44.31975 88.472625,47.54475 C89.413875,49.1835 89.905125,51.03225 89.890125,52.9035 C89.863875,56.64225 87.835125,60.126 84.598875,61.9935 L25.806375,95.93475 C23.432625,97.311 20.743875,98.031 18.021375,98.031" id="Fill-2" fill="#000000"></path>
        </g>
        <g id="Group-10-Copy" transform="translate(496.000000, 105.000000)">
            <polygon id="Fill-1" points="0 120 120 120 120 0 0 0"></polygon>
            <g id="Group-9">
                <path d="M45.001875,103.12125 C45.001875,101.05125 43.321875,99.37125 41.251875,99.37125 C39.181875,99.37125 37.501875,101.05125 37.501875,103.12125 C37.501875,105.195 39.181875,106.87125 41.251875,106.87125 C43.321875,106.87125 45.001875,105.195 45.001875,103.12125" id="Fill-2" fill="#000000"></path>
                <path d="M111.15225,52.49625 C111.15225,55.88625 108.39225,58.64625 105.00225,58.64625 L71.25225,58.64625 C70.89225,58.64625 70.551,58.78875 70.296,59.04 L57.60225,71.7375 L57.60225,22.49625 C57.60225,19.10625 60.36225,16.34625 63.75225,16.34625 L105.00225,16.34625 C108.39225,16.34625 111.15225,19.10625 111.15225,22.49625 L111.15225,52.49625 Z M73.65225,88.65 L8.8485,88.65 L8.8485,5.1 L73.65225,5.1 L73.65225,13.64625 L63.75225,13.64625 C58.8735,13.64625 54.90225,17.61375 54.90225,22.49625 L54.90225,74.99625 C54.90225,75.54375 55.2285,76.035 55.73475,76.245 C55.9035,76.3125 56.076,76.34625 56.25225,76.34625 C56.60475,76.34625 56.946,76.2075 57.20475,75.9525 L71.811,61.34625 L73.65225,61.34625 L73.65225,88.65 Z M8.8485,114.89625 L73.6485,114.89625 L73.6485,91.35 L8.8485,91.35 L8.8485,114.89625 Z M105.00225,13.64625 L76.3485,13.64625 L76.3485,3.75 C76.3485,3.00375 75.74475,2.4 74.9985,2.4 L7.4985,2.4 C6.756,2.4 6.15225,3.00375 6.15225,3.75 L6.15225,116.25 C6.15225,116.99625 6.756,117.6 7.4985,117.6 L74.9985,117.6 C75.74475,117.6 76.3485,116.99625 76.3485,116.25 L76.3485,61.34625 L105.00225,61.34625 C109.881,61.34625 113.85225,57.37875 113.85225,52.49625 L113.85225,22.49625 C113.85225,17.61375 109.881,13.64625 105.00225,13.64625 Z" id="Fill-4" fill="#000000"></path>
                <mask id="mask-2" fill="white">
                    <use xlink:href="#path-1"></use>
                </mask>
                <g id="Clip-7"></g>
                <polygon id="Fill-6" fill="#000000" mask="url(#mask-2)" points="67.5 31.35 101.25 31.35 101.25 28.64625 67.5 28.64625"></polygon>
                <polygon id="Fill-8" fill="#000000" mask="url(#mask-2)" points="67.5 46.35 101.25 46.35 101.25 43.64625 67.5 43.64625"></polygon>
            </g>
        </g>
        <g id="Group-17-Copy-3" transform="translate(680.000000, 105.000000)">
            <polygon id="Fill-1" points="0 120 120 120 120 0 0 0"></polygon>
            <g id="Group-16" transform="translate(9.500000, 3.000000)" fill="#000000">
                <path d="M46.75,111.8985 C37.5475,111.8985 28.50625,109.56975 20.485,105.18975 L24.76,97.78725 C31.3075,101.33475 38.79625,103.35225 46.75,103.35225 C72.30625,103.35225 93.1,82.5585 93.1,56.9985 C93.1,40.35975 84.2575,25.7835 71.05375,17.60475 L75.35125,10.161 C91.59625,20.106 101.65,37.91475 101.65,56.9985 C101.65,87.27225 77.02375,111.8985 46.75,111.8985 M3.1,56.9985 C3.1,32.931 22.6825,13.35225 46.75,13.35225 C70.8175,13.35225 90.4,32.931 90.4,56.9985 C90.4,81.066 70.8175,100.6485 46.75,100.6485 C22.6825,100.6485 3.1,81.066 3.1,56.9985 M76.70125,7.82475 L79.795,2.46225 C80.16625,1.821 79.945,0.996 79.3,0.621 C78.65125,0.246 77.83,0.4635 77.455,1.116 L68.74,16.20975 C62.1925,12.666 54.70375,10.6485 46.75,10.6485 C21.19375,10.6485 0.4,31.44225 0.4,56.9985 C0.4,73.641 9.2425,88.21725 22.44625,96.39225 L17.455,105.036 C17.455,105.03975 17.455,105.03975 17.45125,105.0435 C17.45125,105.04725 17.45125,105.04725 17.45125,105.051 L13.705,111.53475 C13.33375,112.17975 13.555,113.00475 14.2,113.37975 C14.41375,113.5035 14.6425,113.55975 14.875,113.55975 C15.34,113.55975 15.79375,113.31975 16.045,112.88475 L19.13875,107.526 C27.565,112.14225 37.07125,114.60225 46.75,114.60225 C78.5125,114.60225 104.35,88.761 104.35,56.9985 C104.35,36.95475 93.77875,18.24975 76.70125,7.82475" id="Fill-2"></path>
                <path d="M50.41225,53.25 C50.41225,55.27125 48.7735,56.91375 46.7485,56.91375 C44.72725,56.91375 43.0885,55.27125 43.0885,53.25 C43.0885,51.22875 44.72725,49.58625 46.7485,49.58625 C48.7735,49.58625 50.41225,51.22875 50.41225,53.25" id="Fill-4"></path>
                <path d="M31.66225,27 C31.66225,29.02125 30.0235,30.66375 27.9985,30.66375 C25.97725,30.66375 24.3385,29.02125 24.3385,27 C24.3385,24.97875 25.97725,23.33625 27.9985,23.33625 C30.0235,23.33625 31.66225,24.97875 31.66225,27" id="Fill-6"></path>
                <path d="M27.9085,45.75 C27.9085,47.77125 26.26975,49.41375 24.24475,49.41375 C22.2235,49.41375 20.58475,47.77125 20.58475,45.75 C20.58475,43.72875 22.2235,42.08625 24.24475,42.08625 C26.26975,42.08625 27.9085,43.72875 27.9085,45.75" id="Fill-8"></path>
                <path d="M80.41225,45.75 C80.41225,47.77125 78.7735,49.41375 76.7485,49.41375 C74.72725,49.41375 73.0885,47.77125 73.0885,45.75 C73.0885,43.72875 74.72725,42.08625 76.7485,42.08625 C78.7735,42.08625 80.41225,43.72875 80.41225,45.75" id="Fill-10"></path>
                <path d="M80.41225,57.0585 C80.41225,59.07975 78.7735,60.72225 76.7485,60.72225 C74.72725,60.72225 73.0885,59.07975 73.0885,57.0585 C73.0885,55.0335 74.72725,53.39475 76.7485,53.39475 C78.7735,53.39475 80.41225,55.0335 80.41225,57.0585" id="Fill-12"></path>
                <path d="M65.41225,79.5 C65.41225,81.52125 63.7735,83.16375 61.7485,83.16375 C59.72725,83.16375 58.0885,81.52125 58.0885,79.5 C58.0885,77.47875 59.72725,75.83625 61.7485,75.83625 C63.7735,75.83625 65.41225,77.47875 65.41225,79.5" id="Fill-14"></path>
            </g>
        </g>
        <g id="Group-25-Copy-3" transform="translate(128.000000, 297.000000)">
            <g id="Group-7">
                <polygon id="Fill-1" points="0 120 120 120 120 0 0 0"></polygon>
                <g id="Group-6" fill="#000000">
                    <path d="M61.349625,114.829125 L61.349625,105.000375 L58.649625,105.000375 L58.649625,114.829125 C29.459625,114.116625 5.883375,90.540375 5.167125,61.350375 L14.999625,61.350375 L14.999625,58.650375 L5.167125,58.650375 C5.883375,29.456625 29.459625,5.884125 58.649625,5.171625 L58.649625,15.000375 L61.349625,15.000375 L61.349625,5.171625 C90.543375,5.884125 114.115875,29.456625 114.832125,58.650375 L104.999625,58.650375 L104.999625,61.350375 L114.832125,61.350375 C114.115875,90.540375 90.543375,114.116625 61.349625,114.829125 M59.999625,2.400375 C28.237125,2.400375 2.399625,28.237875 2.399625,60.000375 C2.399625,91.762875 28.237125,117.600375 59.999625,117.600375 C91.762125,117.600375 117.599625,91.762875 117.599625,60.000375 C117.599625,28.237875 91.762125,2.400375 59.999625,2.400375" id="Fill-2"></path>
                    <polygon id="Fill-4" points="85.305 76.168125 58.65 60.778125 58.65 22.498125 61.35 22.498125 61.35 59.218125 86.655 73.831875"></polygon>
                </g>
            </g>
        </g>
        <g id="Group-7-Copy-4" transform="translate(312.000000, 297.000000)">
            <polygon id="Fill-1" points="0 120 120 120 120 0 0 0"></polygon>
            <g id="Group-6" fill="#000000">
                <path d="M116.25,50.1015 L3.75,50.1015 C3.00375,50.1015 2.4,49.49775 2.4,48.7515 L2.4,3.7515 C2.4,3.0015 3.00375,2.39775 3.75,2.39775 C4.49625,2.39775 5.1,3.0015 5.1,3.7515 L5.1,47.39775 L114.9,47.39775 L114.9,3.7515 C114.9,3.0015 115.50375,2.39775 116.25,2.39775 C116.99625,2.39775 117.6,3.0015 117.6,3.7515 L117.6,48.7515 C117.6,49.49775 116.99625,50.1015 116.25,50.1015" id="Fill-2"></path>
                <path d="M83.849625,63.259125 L112.990875,92.400375 L83.849625,92.400375 L83.849625,63.259125 Z M117.205875,92.794125 L83.455875,59.044125 C83.212125,58.800375 82.874625,58.650375 82.499625,58.650375 L3.749625,58.650375 C3.003375,58.650375 2.399625,59.254125 2.399625,60.000375 L2.399625,116.250375 C2.399625,116.996625 3.003375,117.600375 3.749625,117.600375 C4.495875,117.600375 5.099625,116.996625 5.099625,116.250375 L5.099625,61.350375 L81.149625,61.350375 L81.149625,93.750375 C81.149625,94.496625 81.753375,95.100375 82.499625,95.100375 L114.899625,95.100375 L114.899625,116.250375 C114.899625,116.996625 115.503375,117.600375 116.249625,117.600375 C116.995875,117.600375 117.599625,116.996625 117.599625,116.250375 L117.599625,93.750375 C117.599625,93.375375 117.445875,93.037875 117.205875,92.794125 Z" id="Fill-4"></path>
            </g>
        </g>
        <g id="Group-11-Copy-5" transform="translate(680.000000, 297.000000)">
            <polygon id="Fill-1" points="0 120 120 120 120 0 0 0"></polygon>
            <g id="Group-10" fill="#000000">
                <path d="M14.998125,114.8985 C9.538125,114.8985 5.098125,110.4585 5.098125,104.9985 C5.098125,99.5385 9.538125,95.10225 14.998125,95.10225 C20.458125,95.10225 24.901875,99.5385 24.901875,104.9985 C24.901875,110.4585 20.458125,114.8985 14.998125,114.8985 M9.009375,58.5735 C9.504375,56.3385 11.338125,54.50475 13.576875,54.00975 C14.060625,53.901 14.540625,53.8485 15.013125,53.8485 C16.640625,53.8485 18.170625,54.47475 19.348125,55.6485 C20.866875,57.16725 21.466875,59.27475 20.990625,61.41975 C20.495625,63.6585 18.661875,65.496 16.426875,65.991 C14.278125,66.48225 12.174375,65.86725 10.651875,64.35225 C9.133125,62.82975 8.529375,60.726 9.009375,58.5735 M16.348125,92.5335 L16.348125,68.70225 C16.569375,68.6685 16.790625,68.676 17.011875,68.62725 C20.304375,67.896 22.899375,65.29725 23.626875,62.0085 C24.294375,58.98225 23.409375,55.896 21.256875,53.73975 C19.100625,51.5835 16.014375,50.706 12.991875,51.3735 C9.699375,52.10475 7.100625,54.69975 6.373125,57.9885 C5.701875,61.01475 6.586875,64.10475 8.743125,66.25725 C10.093125,67.611 11.814375,68.4285 13.651875,68.71725 L13.651875,92.5335 C7.340625,93.21975 2.401875,98.51475 2.401875,104.9985 C2.401875,111.94725 8.049375,117.60225 14.998125,117.60225 C21.946875,117.60225 27.598125,111.94725 27.598125,104.9985 C27.598125,98.51475 22.655625,93.21975 16.348125,92.5335" id="Fill-2"></path>
                <path d="M110.991375,73.579125 C111.467625,75.724125 110.867625,77.831625 109.348875,79.350375 C107.826375,80.869125 105.718875,81.465375 103.577625,80.992875 C101.338875,80.497875 99.505125,78.660375 99.010125,76.425375 C98.530125,74.276625 99.130125,72.169125 100.652625,70.650375 C101.830125,69.469125 103.356375,68.846625 104.983875,68.846625 C105.460125,68.846625 105.943875,68.899125 106.427625,69.007875 C108.662625,69.502875 110.496375,71.340375 110.991375,73.579125 M95.098875,30.000375 C95.098875,24.540375 99.538875,20.100375 104.998875,20.100375 C110.458875,20.100375 114.898875,24.540375 114.898875,30.000375 C114.898875,35.460375 110.458875,39.900375 104.998875,39.900375 C99.538875,39.900375 95.098875,35.460375 95.098875,30.000375 M117.598875,30.000375 C117.598875,23.051625 111.947625,17.400375 104.998875,17.400375 C98.050125,17.400375 92.398875,23.051625 92.398875,30.000375 C92.398875,36.484125 97.341375,41.782875 103.648875,42.465375 L103.648875,66.322875 C101.818875,66.611625 100.090125,67.395375 98.743875,68.741625 C96.587625,70.894125 95.702625,73.984125 96.373875,77.010375 C97.101375,80.299125 99.700125,82.894125 102.992625,83.629125 C103.656375,83.775375 104.323875,83.846625 104.983875,83.846625 C107.323875,83.846625 109.577625,82.939125 111.257625,81.259125 C113.410125,79.106625 114.295125,76.016625 113.627625,72.994125 C112.900125,69.701625 110.301375,67.102875 107.012625,66.371625 C106.791375,66.322875 106.570125,66.341625 106.348875,66.311625 L106.348875,42.465375 C112.656375,41.782875 117.598875,36.484125 117.598875,30.000375" id="Fill-4"></path>
                <path d="M74.99625,36.1485 C71.60625,36.1485 68.85,33.39225 68.85,29.9985 C68.85,26.6085 71.60625,23.85225 74.99625,23.85225 C78.39,23.85225 81.15,26.6085 81.15,29.9985 C81.15,33.39225 78.39,36.1485 74.99625,36.1485 M44.99625,114.89475 C41.61,114.89475 38.85,112.1385 38.85,108.7485 C38.85,105.3585 41.61,102.60225 44.99625,102.60225 C48.39,102.60225 51.15,105.3585 51.15,108.7485 C51.15,112.1385 48.39,114.89475 44.99625,114.89475 M83.85,29.9985 C83.85,25.11975 79.87875,21.1485 74.99625,21.1485 C70.1175,21.1485 66.15,25.11975 66.15,29.9985 C66.15,34.41975 69.4125,38.061 73.65,38.71725 L73.65,107.3985 L53.71125,107.3985 C53.055,103.161 49.4175,99.8985 44.99625,99.8985 C40.1175,99.8985 36.15,103.86975 36.15,108.7485 C36.15,113.62725 40.1175,117.5985 44.99625,117.5985 C49.4175,117.5985 53.055,114.336 53.71125,110.10225 L75,110.10225 C75.74625,110.10225 76.35,109.4985 76.35,108.7485 L76.35,38.71725 C80.5875,38.05725 83.85,34.416 83.85,29.9985" id="Fill-6"></path>
                <path d="M45.001875,84.8985 C39.541875,84.8985 35.098125,80.4585 35.098125,74.9985 C35.098125,69.5385 39.541875,65.10225 45.001875,65.10225 C50.461875,65.10225 54.901875,69.5385 54.901875,74.9985 C54.901875,80.4585 50.461875,84.8985 45.001875,84.8985 M5.098125,14.9985 C5.098125,9.5385 9.538125,5.10225 14.998125,5.10225 C20.458125,5.10225 24.901875,9.5385 24.901875,14.9985 C24.901875,20.4585 20.458125,24.8985 14.998125,24.8985 C9.538125,24.8985 5.098125,20.4585 5.098125,14.9985 M46.348125,62.5335 L46.348125,44.9985 C46.348125,44.64225 46.209375,44.29725 45.954375,44.04225 L24.766875,22.8585 C26.510625,20.6985 27.598125,17.9835 27.598125,14.9985 C27.598125,8.0535 21.946875,2.3985 14.998125,2.3985 C8.049375,2.3985 2.401875,8.0535 2.401875,14.9985 C2.401875,21.94725 8.049375,27.60225 14.998125,27.60225 C17.983125,27.60225 20.698125,26.51475 22.858125,24.771 L43.651875,45.561 L43.651875,62.5335 C37.344375,63.21975 32.401875,68.51475 32.401875,74.9985 C32.401875,81.94725 38.053125,87.60225 45.001875,87.60225 C51.950625,87.60225 57.598125,81.94725 57.598125,74.9985 C57.598125,68.51475 52.659375,63.21975 46.348125,62.5335" id="Fill-8"></path>
            </g>
        </g>
        <g id="Group-4-Copy-15" transform="translate(496.000000, 297.000000)">
            <polygon id="Fill-1" points="0 120 120 120 120 0 0 0"></polygon>
            <path d="M6.088125,61.31475 L57.658125,61.31475 L31.873125,105.9735 L6.088125,61.31475 Z M62.338125,58.611 L88.123125,13.95225 L113.911875,58.611 L62.338125,58.611 Z M85.783125,107.32725 L34.213125,107.32725 L59.998125,62.661 L85.783125,107.32725 Z M62.338125,61.31475 L113.911875,61.31475 L88.123125,105.9735 L62.338125,61.31475 Z M34.213125,12.60225 L85.783125,12.60225 L59.998125,57.26475 L34.213125,12.60225 Z M57.658125,58.611 L6.088125,58.611 L31.873125,13.95225 L57.658125,58.611 Z M117.418125,59.28975 L89.293125,10.57725 C89.053125,10.15725 88.606875,9.8985 88.123125,9.8985 L31.873125,9.8985 C31.393125,9.8985 30.946875,10.15725 30.703125,10.57725 L2.578125,59.28975 C2.338125,59.706 2.338125,60.21975 2.578125,60.636 L30.703125,109.35225 C30.946875,109.7685 31.393125,110.02725 31.873125,110.02725 L88.123125,110.02725 C88.606875,110.02725 89.053125,109.7685 89.293125,109.35225 L117.418125,60.636 C117.658125,60.21975 117.658125,59.706 117.418125,59.28975 Z" id="Fill-2" fill="#000000"></path>
        </g>
    </g>
</svg>