<?xml version="1.0" encoding="UTF-8"?>
<svg width="288px" height="288px" viewBox="0 0 288 288" version="1.1" xmlns="http://www.w3.org/2000/svg" xmlns:xlink="http://www.w3.org/1999/xlink">
    <!-- Generator: Sketch 52.4 (67378) - http://www.bohemiancoding.com/sketch -->
    <title>Artboard</title>
    <desc>Created with Sketch.</desc>
    <g id="Artboard" stroke="none" stroke-width="1" fill="none" fill-rule="evenodd">
        <rect id="Rectangle-3-Copy-45" fill="#FFFFFF" x="0" y="0" width="288" height="288"></rect>
        <g id="Group-7-Copy-3" transform="translate(52.000000, 52.000000)">
            <polygon id="Fill-1" fill="#FFFFFF" points="0 184 184 184 184 0 0 0"></polygon>
            <path d="M109.6824,153.8631 L101.0574,149.60235 L101.0574,132.4271 C101.0574,131.8406 100.6319,131.3346 100.0454,131.23685 L81.13365,128.09735 L74.99265,114.8321 L81.1969,94.5461 L99.13115,94.5461 L104.05315,103.68285 C104.2659,104.0796 104.67415,104.3211 105.1169,104.3211 L117.94515,104.3211 C118.41665,104.3211 118.8364,104.05085 119.03765,103.6311 L122.11965,97.1106 C122.28065,96.75985 122.2749,96.35735 122.0909,96.0181 L113.31065,79.72835 C113.0979,79.33735 112.68965,79.09585 112.2469,79.09585 L91.10415,79.09585 C89.2929,79.09585 87.6139,79.99285 86.6134,81.5051 C86.2109,82.10885 85.49215,82.3561 84.1409,82.3561 L79.9089,82.3561 L78.4024,75.8931 L92.44965,64.9681 C92.8119,64.6806 92.9844,64.21485 92.88665,63.7606 L92.26565,60.8396 C96.72765,59.45385 101.4599,58.70635 106.3704,58.70635 C132.13615,58.70635 153.1409,79.2741 153.95165,104.8501 C152.23815,105.3101 148.3224,106.29335 145.2634,107.0581 L141.2614,108.06435 L131.75665,95.85135 C131.5209,95.5466 131.1069,95.47185 130.76765,95.3856 C130.38815,95.3971 130.03165,95.58685 129.8074,95.9031 L124.15515,104.05085 C123.86765,104.46485 123.86765,105.01685 124.15515,105.43085 L132.0844,116.8331 C132.3144,117.1551 132.6824,117.34485 133.0734,117.34485 L141.00265,117.34485 L141.00265,139.01085 C133.02165,147.4806 121.9989,153.0121 109.6824,153.8631 M58.70865,106.3681 C58.70865,85.85785 71.76115,68.37785 89.97715,61.67335 L90.3739,63.52485 L76.30365,74.46135 C75.93565,74.7546 75.7689,75.23185 75.8724,75.69185 L77.77565,83.8396 C77.9079,84.38585 78.39665,84.7711 78.9544,84.7711 L84.1409,84.7711 C85.63015,84.7711 87.49315,84.5526 88.6259,82.8391 C89.1779,82.0111 90.10365,81.51085 91.10415,81.51085 L111.5224,81.51085 L119.6759,96.6276 L117.1804,101.9061 L105.8414,101.9061 L100.9194,92.7636 C100.7009,92.3726 100.2984,92.1311 99.85565,92.1311 L80.30565,92.1311 C79.77665,92.1311 79.30515,92.4761 79.1499,92.9821 L72.5489,114.5676 C72.4569,114.8551 72.4799,115.15985 72.6064,115.42435 L79.2074,129.68435 C79.37415,130.0466 79.7134,130.2996 80.1044,130.3686 L98.6424,133.4506 L98.6424,150.3556 C98.6424,150.8156 98.90115,151.23535 99.31515,151.4366 L104.3579,153.9321 C79.0119,152.8626 58.70865,131.9671 58.70865,106.3681 M142.21015,114.92985 L133.7059,114.92985 L126.61615,104.74085 L130.85965,98.63435 L139.8354,110.16885 C140.12865,110.5541 140.6289,110.73235 141.0889,110.6001 L145.85565,109.4041 C149.9669,108.3691 152.4969,107.73085 153.9804,107.33985 C153.7619,118.28785 149.8519,128.33885 143.41765,136.28535 L143.41765,116.13735 C143.41765,115.47035 142.87715,114.92985 142.21015,114.92985 M156.44715,106.3681 C156.44715,78.7566 133.9819,56.29135 106.3704,56.29135 C78.7589,56.29135 56.29365,78.7566 56.29365,106.3681 C56.29365,133.9796 78.7589,156.44485 106.3704,156.44485 C107.3134,156.44485 108.2334,156.3586 109.1649,156.30685 L109.1994,156.3241 L109.2109,156.3011 C135.4999,154.81185 156.44715,133.01935 156.44715,106.3681" id="Fill-3" fill="#000000"></path>
            <path d="M30.711325,176.1777 L163.335075,176.1777 C170.419075,176.1777 176.180575,170.4162 176.180575,163.33795 L176.180575,36.57345 L36.570575,36.57345 L36.570575,162.8837 C36.570575,168.1507 34.282075,172.95195 30.711325,176.1777 Z M7.820575,7.82345 L7.820575,163.33795 C7.820575,167.0352 9.212075,170.41045 11.742075,172.8427 C13.978825,174.9932 16.922825,176.1662 20.079575,176.1777 L20.125575,176.1777 L20.252075,176.1777 C20.384325,176.1777 20.516575,176.1777 20.648825,176.17195 C27.146325,175.9132 32.430575,169.9562 32.430575,162.8837 L32.430575,34.4977 C32.430575,33.35345 33.356325,32.4277 34.500575,32.4277 L147.430575,32.4277 L147.430575,19.32345 L74.750575,19.32345 C74.342325,19.32345 73.939825,19.19695 73.600575,18.9727 L56.873825,7.82345 L7.820575,7.82345 Z M20.125575,180.32345 C15.876325,180.32345 11.903075,178.73645 8.872825,175.82695 C5.572325,172.6587 3.680575,168.1047 3.680575,163.33795 L3.680575,5.7477 C3.680575,4.60345 4.606325,3.6777 5.750575,3.6777 L57.500575,3.6777 C57.908825,3.6777 58.311325,3.79845 58.650575,4.02845 L75.377325,15.1777 L149.500575,15.1777 C150.644825,15.1777 151.570575,16.10345 151.570575,17.2477 L151.570575,32.4277 L178.250575,32.4277 C179.394825,32.4277 180.320575,33.35345 180.320575,34.4977 L180.320575,163.33795 C180.320575,172.7047 172.701825,180.32345 163.335075,180.32345 L20.280825,180.32345 L20.125575,180.32345 Z" id="Fill-5" fill="#000000"></path>
        </g>
    </g>
</svg>