<?xml version="1.0" encoding="UTF-8"?>
<svg width="288px" height="288px" viewBox="0 0 288 288" version="1.1" xmlns="http://www.w3.org/2000/svg" xmlns:xlink="http://www.w3.org/1999/xlink">
    <!-- Generator: Sketch 52.5 (67469) - http://www.bohemiancoding.com/sketch -->
    <title>Artboard Copy 32</title>
    <desc>Created with Sketch.</desc>
    <g id="Artboard-Copy-32" stroke="none" stroke-width="1" fill="none" fill-rule="evenodd">
        <g id="Padding-don’t-Copy-10" fill="#FFFFFF">
            <rect id="Rectangle-3" x="0" y="0" width="288" height="288"></rect>
        </g>
        <g id="Group-23-Copy-6" transform="translate(44.000000, 42.000000)">
            <polygon id="Fill-1" fill="#FFFFFF" points="0 79 79 79 79 0 0 0"></polygon>
            <g id="Group-22" transform="translate(1.316667, 1.316667)" fill="#000000">
                <path d="M38.1845183,54.5749117 C36.9587017,54.5749117 35.7651433,54.435345 34.615035,54.178595 L42.2299767,46.9948617 C43.0101017,46.2621367 43.1799517,45.1021533 42.6460433,44.1745617 L36.01136,32.6524117 C35.8882517,32.4404283 35.9290683,32.1757783 36.1074767,32.0065867 L40.6947433,27.7228117 C41.4814517,26.9874533 41.6545933,25.8222033 41.1160767,24.88737 L39.3556933,21.83797 C43.8139267,22.1546283 47.7830183,24.2599783 50.5506517,27.441045 L47.2721517,33.1494533 C46.8653017,33.8604533 46.8653017,34.7380117 47.2721517,35.4444033 L50.0305683,40.2403617 C50.4400517,40.9513617 51.2043767,41.392445 52.0253183,41.392445 L54.2597017,41.392445 C52.7639683,48.89942 46.1246767,54.5749117 38.1845183,54.5749117 M21.7920183,38.1837283 C21.7920183,35.842695 22.2884017,33.6162117 23.1764933,31.600395 L24.3121183,33.5563033 C24.7235767,34.2613783 25.486585,34.6998283 26.30226,34.6998283 L30.8579267,34.6998283 C31.0448933,34.6998283 31.218035,34.7985783 31.3121767,34.95987 L33.18316,38.2001867 C33.3062683,38.41217 33.26611,38.6794533 33.0890183,38.8460117 L30.582085,41.2041617 C29.79801,41.937545 29.6268433,43.1014783 30.163385,44.0317033 L31.8210683,46.9033533 C31.91521,47.0653033 31.91521,47.2647783 31.8210683,47.4267283 L29.231185,51.903395 C24.7564933,48.9738117 21.7920183,43.9197867 21.7920183,38.1837283 M37.2918183,21.8169033 L39.5768933,25.7748033 C39.7000017,25.9887617 39.66116,26.25407 39.481435,26.4226033 L34.8948267,30.70967 C34.1081183,31.4450283 33.9343183,32.6069867 34.4702017,33.539845 L41.1055433,45.061995 C41.227335,45.271345 41.1884933,45.5366533 41.0114017,45.7025533 L32.6334517,53.6051867 C31.992235,53.3741117 31.3714267,53.1015617 30.7703683,52.7947783 L33.358935,48.31877 C33.7703933,47.609745 33.7710517,46.7275783 33.3615683,46.01592 L31.703885,43.1449283 C31.581435,42.9322867 31.6196183,42.6676367 31.7980267,42.5010783 L34.3075933,40.1409533 C35.0877183,39.405595 35.258885,38.2410033 34.7223433,37.3127533 L32.8500433,34.0724367 C32.4418767,33.3614367 31.6775517,32.919695 30.8579267,32.919695 L26.30226,32.919695 C26.1152933,32.919695 25.9421517,32.8216033 25.8493267,32.6622867 L24.1462183,29.7287533 C26.87501,25.21522 31.71771,22.1177617 37.2918183,21.8169033 M54.511185,39.6123117 L52.0253183,39.6123117 C51.8383517,39.6123117 51.6638933,39.51422 51.5710683,39.3529283 L48.8119933,34.5576283 C48.7198267,34.3963367 48.7198267,34.1981783 48.81331,34.0368867 L51.7277517,28.9604783 C53.5243433,31.5898617 54.5770183,34.7656617 54.5770183,38.1837283 C54.5770183,38.66497 54.5520017,39.1416033 54.511185,39.6123117 M38.1845183,20.0124117 C38.0205933,20.0124117 37.8586433,20.02097 37.696035,20.02492 C37.69011,20.0262367 37.684185,20.02492 37.67826,20.0255783 C31.1475933,20.2053033 25.4701267,23.8458867 22.413485,29.1777283 C22.3990017,29.1961617 22.39176,29.2178867 22.3792517,29.2376367 C20.876935,31.8801867 20.0145183,34.93222 20.0145183,38.1837283 C20.0145183,44.87832 23.6570767,50.7348533 29.0606767,53.8869533 C29.0738433,53.8955117 29.0804267,53.9086783 29.0942517,53.9165783 C29.1153183,53.9290867 29.13836,53.933695 29.160085,53.9442283 C30.210785,54.5485783 31.3260017,55.0502283 32.4945433,55.43667 C32.5050767,55.44062 32.51561,55.442595 32.5261433,55.4472033 C34.3082517,56.03312 36.20886,56.3537283 38.1845183,56.3537283 C48.203035,56.3537283 56.3545183,48.2029033 56.3545183,38.1837283 C56.3545183,28.163895 48.203035,20.0124117 38.1845183,20.0124117" id="Fill-2"></path>
                <path d="M49.4362908,67.8997758 L48.8049492,66.2368258 C56.8412242,63.1821592 63.1855825,56.8292425 66.2112825,48.8081092 L67.8748908,49.4348425 C64.6694658,57.9332675 57.9491992,64.6620925 49.4362908,67.8997758" id="Fill-4"></path>
                <path d="M26.9305075,67.8997758 C18.4175992,64.6620925 11.6973325,57.9332675 8.4919075,49.4348425 L10.1555158,48.8081092 C13.1812158,56.8292425 19.5255742,63.1821592 27.5618492,66.2368258 L26.9305075,67.8997758 Z" id="Fill-6"></path>
                <path d="M66.2122042,27.5633633 C63.1641208,19.5468383 56.8191042,13.2018217 48.8045542,10.15703 L49.4365542,8.49342167 C57.9251042,11.7218883 64.6453708,18.4408383 67.8731792,26.9320217 L66.2122042,27.5633633 Z" id="Fill-8"></path>
                <path d="M10.1541992,27.5633633 L8.49322417,26.9320217 C11.7210325,18.4408383 18.4419575,11.7218883 26.9305075,8.49342167 L27.5618492,10.15703 C19.5472992,13.2018217 13.2029408,19.5468383 10.1541992,27.5633633" id="Fill-10"></path>
                <path d="M38.1845183,2.04201833 C35.270735,2.04201833 32.9013933,4.41201833 32.9013933,7.32382667 C32.9013933,7.48314333 32.89876,7.64509333 32.9191683,7.80375167 C33.1805267,10.5549267 35.4419017,12.6062933 38.1845183,12.6062933 C40.927135,12.6062933 43.1898267,10.5549267 43.4478933,7.83271833 C43.4702767,7.64706833 43.4676433,7.48577667 43.4676433,7.32382667 C43.4676433,4.41201833 41.0983017,2.04201833 38.1845183,2.04201833 M38.1845183,14.3857683 C34.520235,14.3857683 31.4978267,11.6392017 31.15286,8.00191 C31.1265267,7.79387667 31.1238933,7.56016833 31.1238933,7.32382667 C31.1238933,3.43044333 34.291135,0.262543333 38.1845183,0.262543333 C42.07856,0.262543333 45.2451433,3.43044333 45.2451433,7.32382667 C45.2451433,7.55819333 45.24251,7.79124333 45.21486,8.02561 C44.8725267,11.6392017 41.8488017,14.3857683 38.1845183,14.3857683" id="Fill-12"></path>
                <path d="M38.1845183,2.04201833 C35.270735,2.04201833 32.9013933,4.41201833 32.9013933,7.32382667 C32.9013933,7.48314333 32.89876,7.64509333 32.9191683,7.80375167 C33.1805267,10.5549267 35.4419017,12.6062933 38.1845183,12.6062933 C40.927135,12.6062933 43.1898267,10.5549267 43.4478933,7.83271833 C43.4702767,7.64706833 43.4676433,7.48577667 43.4676433,7.32382667 C43.4676433,4.41201833 41.0983017,2.04201833 38.1845183,2.04201833 M38.1845183,14.3857683 C34.520235,14.3857683 31.4978267,11.6392017 31.15286,8.00191 C31.1265267,7.79387667 31.1238933,7.56016833 31.1238933,7.32382667 C31.1238933,3.43044333 34.291135,0.262543333 38.1845183,0.262543333 C42.07856,0.262543333 45.2451433,3.43044333 45.2451433,7.32382667 C45.2451433,7.55819333 45.24251,7.79124333 45.21486,8.02561 C44.8725267,11.6392017 41.8488017,14.3857683 38.1845183,14.3857683" id="Fill-14"></path>
                <path d="M38.1845183,63.7607683 C35.4419017,63.7607683 33.1805267,65.812135 32.92246,68.5343433 C32.89876,68.7219683 32.9013933,68.88326 32.9013933,69.0425767 C32.9013933,71.9550433 35.270735,74.3250433 38.1845183,74.3250433 C41.0983017,74.3250433 43.4676433,71.9550433 43.4676433,69.0425767 C43.4676433,68.881285 43.4702767,68.719335 43.4498683,68.5580433 C43.1898267,65.812135 40.927135,63.7607683 38.1845183,63.7607683 M38.1845183,76.1045183 C34.291135,76.1045183 31.1238933,72.9366183 31.1238933,69.0425767 C31.1238933,68.806235 31.1265267,68.573185 31.15681,68.336185 C31.4978267,64.7272017 34.520235,61.9812933 38.1845183,61.9812933 C41.8488017,61.9812933 44.8725267,64.7272017 45.2174933,68.3651517 C45.24251,68.5745017 45.2451433,68.8088683 45.2451433,69.0425767 C45.2451433,72.9366183 42.07856,76.1045183 38.1845183,76.1045183" id="Fill-16"></path>
                <path d="M68.9558083,32.9013933 C68.8234833,32.9013933 68.6905,32.9013933 68.558175,32.9178517 C65.8122667,33.1785517 63.758925,35.4392683 63.758925,38.1832017 C63.758925,40.9264767 65.8122667,43.18851 68.5338167,43.4465767 C68.7221,43.470935 68.8801,43.47291 69.0427083,43.4656683 C71.9564917,43.4656683 74.3264917,41.0956683 74.3264917,38.1832017 C74.3264917,35.2424267 71.8577417,32.9468183 68.9558083,32.9013933 M69.0427083,45.2451433 C68.809,45.2451433 68.5772667,45.24251 68.3435583,45.2135433 C64.7273333,44.87121 61.9827417,41.8481433 61.9827417,38.1832017 C61.9827417,34.5189183 64.7273333,31.4951933 68.3672583,31.150885 C68.5772667,31.1245517 68.809,31.1219183 69.0427083,31.1219183 C72.9360917,31.1219183 76.102675,34.2898183 76.102675,38.1832017 C76.102675,42.0772433 72.9360917,45.2451433 69.0427083,45.2451433" id="Fill-18"></path>
                <path d="M7.4023,32.9013933 C4.457575,32.77631 2.040175,35.24506 2.040175,38.1832017 C2.03951667,41.124635 4.425975,43.4900267 7.41085833,43.4656683 C7.54318333,43.4656683 7.676825,43.4656683 7.80980833,43.4485517 C10.5544,43.18851 12.6077417,40.9264767 12.6077417,38.1832017 C12.6077417,35.4392683 10.5544,33.1785517 7.83416667,32.920485 C7.676825,32.9013933 7.538575,32.9013933 7.4023,32.9013933 M7.32395833,45.2451433 C3.430575,45.2451433 0.263991667,42.0772433 0.263991667,38.1832017 C0.263991667,34.2898183 3.430575,31.1219183 7.32395833,31.1219183 C7.55766667,31.1219183 7.79071667,31.1245517 8.024425,31.1535183 C11.64065,31.4951933 14.383925,34.5189183 14.383925,38.1832017 C14.383925,41.8481433 11.64065,44.87121 8.00006667,45.2161767 C7.79071667,45.24251 7.55766667,45.2451433 7.32395833,45.2451433" id="Fill-20"></path>
            </g>
        </g>
        <g id="Group-4-Copy-42" transform="translate(165.000000, 42.000000)">
            <polygon id="Fill-1" fill="#FFFFFF" points="0 79 79 79 79 0 0 0"></polygon>
            <path d="M71.5697208,58.3603283 C70.2234292,58.3603283 68.9054458,57.5769117 68.1292708,56.3162033 C67.9679792,56.05287 67.6809458,55.8915783 67.3721875,55.8915783 L66.6565792,55.8915783 C66.1654625,55.8915783 65.7678292,56.2892117 65.7678292,56.781645 L65.7678292,65.7665783 L49.3753292,65.7665783 C48.8842125,65.7665783 48.4865792,66.1642117 48.4865792,66.656645 L48.4865792,67.2228117 C48.4865792,67.5480283 48.6636708,67.8469117 48.9480708,68.00162 C50.2463042,68.7152533 51.0540792,70.0628617 51.0540792,71.519095 C51.0540792,73.7515033 49.2377375,75.5671867 47.0053292,75.5671867 C44.7722625,75.5671867 42.9559208,73.7515033 42.9559208,71.519095 C42.9559208,70.1352783 43.7018125,68.8166367 44.9026125,68.078645 C45.1659458,67.9173533 45.3259208,67.63032 45.3259208,67.3215617 L45.3259208,66.656645 C45.3259208,66.1642117 44.9282875,65.7665783 44.4378292,65.7665783 L35.4509208,65.7665783 L35.4509208,58.432745 C36.5444125,59.5078033 37.9947208,60.1398033 39.4818958,60.1398033 C42.7037792,60.1398033 45.3259208,57.52622 45.3259208,54.312895 C45.3259208,51.0989117 42.7037792,48.4853283 39.4818958,48.4853283 C37.9236208,48.4853283 36.5042542,49.047545 35.4509208,50.035045 L35.4509208,40.3898033 L65.7678292,40.3898033 L65.7678292,51.844145 C65.7678292,52.33592 66.1654625,52.7335533 66.6565792,52.7335533 L67.2497375,52.7335533 C67.5736375,52.7335533 67.8725208,52.555145 68.0292042,52.270745 C68.7171625,51.014645 70.0410708,50.2648033 71.5697208,50.2648033 C73.8152958,50.2648033 75.6428292,52.0798283 75.6428292,54.312895 C75.6428292,56.544645 73.8152958,58.3603283 71.5697208,58.3603283 Z M14.9102625,55.8915783 C11.6975958,55.8915783 9.0840125,58.5051617 9.0840125,61.719145 C9.0840125,63.2589867 9.68309583,64.6961283 10.7357708,65.7665783 L3.35717083,65.7665783 L3.35717083,40.3898033 L12.3440792,40.3898033 C12.8345375,40.3898033 13.2321708,39.99217 13.2321708,39.500395 L13.2321708,38.761745 C13.2321708,38.453645 13.0721958,38.1666117 12.8075458,38.00532 C11.5889708,37.2574533 10.8608542,35.9704117 10.8608542,34.562895 C10.8608542,32.3298283 12.6771958,30.5148033 14.9102625,30.5148033 C17.1426708,30.5148033 18.9590125,32.3298283 18.9590125,34.562895 C18.9590125,36.0211033 18.1512375,37.371345 16.8510292,38.0895867 C16.5686042,38.24627 16.3928292,38.5451533 16.3928292,38.868395 L16.3928292,39.500395 C16.3928292,39.99217 16.7904625,40.3898033 17.2815792,40.3898033 L33.6740792,40.3898033 L33.6740792,51.844145 C33.6740792,52.33592 34.0717125,52.7335533 34.5628292,52.7335533 L35.1605958,52.7335533 C35.4838375,52.7335533 35.7814042,52.5577783 35.9374292,52.2753533 C36.6346042,51.014645 37.9591708,50.2648033 39.4818958,50.2648033 C41.7241792,50.2648033 43.5490792,52.0798283 43.5490792,54.312895 C43.5490792,56.544645 41.7241792,58.3603283 39.4818958,58.3603283 C38.1230958,58.3603283 36.7985292,57.5769117 36.0236708,56.3162033 C35.8617208,56.05287 35.5753458,55.8915783 35.2665875,55.8915783 L34.5628292,55.8915783 C34.0717125,55.8915783 33.6740792,56.2892117 33.6740792,56.781645 L33.6740792,65.7665783 L19.0722458,65.7665783 C20.1236042,64.6961283 20.7358542,63.2471367 20.7358542,61.719145 C20.7358542,58.5051617 18.1222708,55.8915783 14.9102625,55.8915783 Z M3.35717083,13.2335533 L12.3440792,13.2335533 C12.8345375,13.2335533 13.2321708,12.83592 13.2321708,12.344145 L13.2321708,11.6041783 C13.2321708,11.29542 13.0721958,11.0077283 12.8088625,10.8464367 C11.6080625,10.1091033 10.8621708,8.78980333 10.8621708,7.406645 C10.8621708,5.17357833 12.6785125,3.35855333 14.9115792,3.35855333 C17.1439875,3.35855333 18.9603292,5.17357833 18.9603292,7.406645 C18.9603292,8.86222 18.1525542,10.2098283 16.8530042,10.9234617 C16.5686042,11.0808033 16.3928292,11.3796867 16.3928292,11.70227 L16.3928292,12.344145 C16.3928292,12.83592 16.7904625,13.2335533 17.2815792,13.2335533 L33.6740792,13.2335533 L33.6740792,24.687895 C33.6740792,25.17967 34.0717125,25.5773033 34.5628292,25.5773033 L35.1553292,25.5773033 C35.4798875,25.5773033 35.7787708,25.398895 35.9354542,25.114495 C36.6234125,23.858395 37.9473208,23.1085533 39.4759708,23.1085533 C41.7215458,23.1085533 43.5490792,24.9235783 43.5490792,27.156645 C43.5490792,29.388395 41.7215458,31.2040783 39.4759708,31.2040783 C38.1296792,31.2040783 36.8116958,30.4206617 36.0355208,29.1599533 C35.8742292,28.89662 35.5871958,28.7353283 35.2784375,28.7353283 L34.5628292,28.7353283 C34.0717125,28.7353283 33.6740792,29.1329617 33.6740792,29.625395 L33.6740792,38.6103283 L19.0722458,38.6103283 C20.1236042,37.5398783 20.7358542,36.0908867 20.7358542,34.562895 C20.7358542,31.3489117 18.1222708,28.7353283 14.9102625,28.7353283 C11.6975958,28.7353283 9.0840125,31.3489117 9.0840125,34.562895 C9.0840125,36.1027367 9.68309583,37.5398783 10.7357708,38.6103283 L3.35717083,38.6103283 L3.35717083,13.2335533 Z M44.4378292,13.2335533 C44.9282875,13.2335533 45.3259208,12.83592 45.3259208,12.344145 L45.3259208,11.6041783 C45.3259208,11.29542 45.1659458,11.0077283 44.9026125,10.8464367 C43.7018125,10.1091033 42.9559208,8.78980333 42.9559208,7.406645 C42.9559208,5.17357833 44.7722625,3.35855333 47.0053292,3.35855333 C49.2377375,3.35855333 51.0540792,5.17357833 51.0540792,7.406645 C51.0540792,8.86222 50.2463042,10.2098283 48.9467542,10.9234617 C48.6623542,11.0808033 48.4865792,11.3796867 48.4865792,11.70227 L48.4865792,12.344145 C48.4865792,12.83592 48.8842125,13.2335533 49.3753292,13.2335533 L65.7678292,13.2335533 L65.7678292,22.8814283 C64.7118625,21.9005117 63.2786708,21.3290783 61.7427792,21.3290783 C58.5169458,21.3290783 55.8928292,23.9426617 55.8928292,27.156645 C55.8928292,30.36997 58.5169458,32.9835533 61.7427792,32.9835533 C63.2134958,32.9835533 64.6624875,32.34892 65.7678292,31.2718867 L65.7678292,38.6103283 L35.4509208,38.6103283 L35.4509208,31.264645 C36.5430958,32.346945 37.9920875,32.9835533 39.4759708,32.9835533 C42.7018042,32.9835533 45.3259208,30.36997 45.3259208,27.156645 C45.3259208,23.9426617 42.7018042,21.3290783 39.4759708,21.3290783 C37.9400792,21.3290783 36.5068875,21.9005117 35.4509208,22.8814283 L35.4509208,13.2335533 L44.4378292,13.2335533 Z M71.5697208,48.4853283 C70.0338292,48.4853283 68.6006375,49.0567617 67.5446708,50.0376783 L67.5446708,39.500395 L67.5446708,29.625395 C67.5446708,29.1329617 67.1470375,28.7353283 66.6565792,28.7353283 L65.9653292,28.7353283 C65.6605208,28.7353283 65.3774375,28.8920117 65.2148292,29.1500783 C64.4116625,30.4186867 63.0818292,31.2040783 61.7427792,31.2040783 C59.4972042,31.2040783 57.6696708,29.388395 57.6696708,27.156645 C57.6696708,24.9235783 59.4972042,23.1085533 61.7427792,23.1085533 C63.2714292,23.1085533 64.5946792,23.858395 65.2832958,25.114495 C65.4399792,25.398895 65.7388625,25.5773033 66.0634208,25.5773033 L66.6565792,25.5773033 C67.1470375,25.5773033 67.5446708,25.17967 67.5446708,24.687895 L67.5446708,12.344145 C67.5446708,11.8517117 67.1470375,11.4540783 66.6565792,11.4540783 L51.1613875,11.4540783 C52.2160375,10.3862617 52.8309208,8.93727 52.8309208,7.406645 C52.8309208,4.19266167 50.2173375,1.57907833 47.0053292,1.57907833 C43.7926625,1.57907833 41.1790792,4.19266167 41.1790792,7.406645 C41.1790792,8.92015333 41.7939625,10.3763867 42.8426875,11.4540783 L34.5628292,11.4540783 L19.0676375,11.4540783 C20.1222875,10.3862617 20.7371708,8.93727 20.7371708,7.406645 C20.7371708,4.19266167 18.1235875,1.57907833 14.9115792,1.57907833 C11.6989125,1.57907833 9.08532917,4.19266167 9.08532917,7.406645 C9.08532917,8.92015333 9.7002125,10.3763867 10.7489375,11.4540783 L2.46907917,11.4540783 C1.9779625,11.4540783 1.58032917,11.8517117 1.58032917,12.344145 L1.58032917,39.500395 L1.58032917,66.656645 C1.58032917,67.14842 1.9779625,67.5460533 2.46907917,67.5460533 L12.3440792,67.5460533 C12.8345375,67.5460533 13.2321708,67.14842 13.2321708,66.656645 L13.2321708,65.917995 C13.2321708,65.609895 13.0721958,65.3228617 12.8075458,65.16157 C11.5889708,64.4137033 10.8608542,63.1266617 10.8608542,61.719145 C10.8608542,59.4860783 12.6771958,57.6710533 14.9102625,57.6710533 C17.1426708,57.6710533 18.9590125,59.4860783 18.9590125,61.719145 C18.9590125,63.1773533 18.1512375,64.527595 16.8510292,65.2458367 C16.5686042,65.40252 16.3928292,65.7014033 16.3928292,66.024645 L16.3928292,66.656645 C16.3928292,67.14842 16.7904625,67.5460533 17.2815792,67.5460533 L34.5628292,67.5460533 L42.7702708,67.5460533 C41.7663125,68.6165033 41.1790792,70.0411367 41.1790792,71.519095 C41.1790792,74.73242 43.7926625,77.3460033 47.0053292,77.3460033 C50.2173375,77.3460033 52.8309208,74.73242 52.8309208,71.519095 C52.8309208,70.022045 52.2450042,68.6066283 51.2351208,67.5460533 L66.6565792,67.5460533 C67.1470375,67.5460533 67.5446708,67.14842 67.5446708,66.656645 L67.5446708,58.420895 C68.6368458,59.503195 70.0858375,60.1398033 71.5697208,60.1398033 C74.7955542,60.1398033 77.4196708,57.52622 77.4196708,54.312895 C77.4196708,51.0989117 74.7955542,48.4853283 71.5697208,48.4853283 Z" id="Fill-2" fill="#000000"></path>
        </g>
        <g id="Group-55-Copy-3" transform="translate(44.000000, 168.000000)">
            <polygon id="Fill-1" fill="#FFFFFF" points="0 79 79 79 79 0 0 0"></polygon>
            <g id="Group-54" fill="#000000">
                <path d="M44.4387344,15.7022375 C40.8442344,15.7022375 37.9212344,18.6252375 37.9212344,22.2197375 C37.9212344,25.8142375 40.8442344,28.7347688 44.4387344,28.7347688 C48.0332344,28.7347688 50.9562344,25.8142375 50.9562344,22.2197375 C50.9562344,18.6252375 48.0332344,15.7022375 44.4387344,15.7022375 M44.4387344,30.5147375 C39.8641406,30.5147375 36.1437344,26.7918625 36.1437344,22.2197375 C36.1437344,17.6451437 39.8641406,13.9222688 44.4387344,13.9222688 C49.0133281,13.9222688 52.7337344,17.6451437 52.7337344,22.2197375 C52.7337344,26.7918625 49.0133281,30.5147375 44.4387344,30.5147375" id="Fill-2"></path>
                <path d="M51.8449844,35.4522375 C48.2504844,35.4522375 45.3274844,38.3752375 45.3274844,41.9697375 C45.3274844,45.5642375 48.2504844,48.4847687 51.8449844,48.4847687 C55.4394844,48.4847687 58.3624844,45.5642375 58.3624844,41.9697375 C58.3624844,38.3752375 55.4394844,35.4522375 51.8449844,35.4522375 M51.8449844,50.2647375 C47.2703906,50.2647375 43.5499844,46.5418625 43.5499844,41.9697375 C43.5499844,37.3951437 47.2703906,33.6722687 51.8449844,33.6722687 C56.4195781,33.6722687 60.1399844,37.3951437 60.1399844,41.9697375 C60.1399844,46.5418625 56.4195781,50.2647375 51.8449844,50.2647375" id="Fill-4"></path>
                <path d="M3.70435938,7.40625 C3.70435938,8.08515625 3.15135938,8.640625 2.46998438,8.640625 C1.78860937,8.640625 1.23560937,8.08515625 1.23560937,7.40625 C1.23560937,6.724875 1.78860937,6.171875 2.46998438,6.171875 C3.15135938,6.171875 3.70435938,6.724875 3.70435938,7.40625" id="Fill-6"></path>
                <path d="M18.5168594,12.34375 C18.5168594,13.025125 17.9638594,13.578125 17.2824844,13.578125 C16.6011094,13.578125 16.0481094,13.025125 16.0481094,12.34375 C16.0481094,11.662375 16.6011094,11.109375 17.2824844,11.109375 C17.9638594,11.109375 18.5168594,11.662375 18.5168594,12.34375" id="Fill-8"></path>
                <path d="M11.1106094,17.28125 C11.1106094,17.9601562 10.5576094,18.515625 9.87623437,18.515625 C9.19485938,18.515625 8.64185938,17.9601562 8.64185938,17.28125 C8.64185938,16.599875 9.19485938,16.046875 9.87623437,16.046875 C10.5576094,16.046875 11.1106094,16.599875 11.1106094,17.28125" id="Fill-10"></path>
                <path d="M13.5793594,22.21875 C13.5793594,22.8976563 13.0263594,23.453125 12.3449844,23.453125 C11.6636094,23.453125 11.1106094,22.8976563 11.1106094,22.21875 C11.1106094,21.537375 11.6636094,20.984375 12.3449844,20.984375 C13.0263594,20.984375 13.5793594,21.537375 13.5793594,22.21875" id="Fill-12"></path>
                <path d="M6.17310938,19.75 C6.17310938,20.4289062 5.62010938,20.984375 4.93873438,20.984375 C4.25735938,20.984375 3.70435938,20.4289062 3.70435938,19.75 C3.70435938,19.068625 4.25735938,18.515625 4.93873438,18.515625 C5.62010938,18.515625 6.17310938,19.068625 6.17310938,19.75" id="Fill-14"></path>
                <path d="M8.64185937,24.6875 C8.64185937,25.3664062 8.08885937,25.921875 7.40748437,25.921875 C6.72610937,25.921875 6.17310937,25.3664062 6.17310937,24.6875 C6.17310937,24.006125 6.72610937,23.453125 7.40748437,23.453125 C8.08885937,23.453125 8.64185937,24.006125 8.64185937,24.6875" id="Fill-16"></path>
                <path d="M3.70435938,29.7286875 C3.70435938,30.4075937 3.15135938,30.9630625 2.46998438,30.9630625 C1.78860937,30.9630625 1.23560937,30.4075937 1.23560937,29.7286875 C1.23560937,29.0473125 1.78860937,28.4943125 2.46998438,28.4943125 C3.15135938,28.4943125 3.70435938,29.0473125 3.70435938,29.7286875" id="Fill-18"></path>
                <path d="M11.1106094,34.5625 C11.1106094,35.243875 10.5576094,35.796875 9.87623437,35.796875 C9.19485938,35.796875 8.64185938,35.243875 8.64185938,34.5625 C8.64185938,33.881125 9.19485938,33.328125 9.87623437,33.328125 C10.5576094,33.328125 11.1106094,33.881125 11.1106094,34.5625" id="Fill-20"></path>
                <path d="M6.17310938,37.03125 C6.17310938,37.7101562 5.62010938,38.265625 4.93873438,38.265625 C4.25735938,38.265625 3.70435938,37.7101562 3.70435938,37.03125 C3.70435938,36.349875 4.25735938,35.796875 4.93873438,35.796875 C5.62010938,35.796875 6.17310938,36.349875 6.17310938,37.03125" id="Fill-22"></path>
                <path d="M44.4387344,55.8915125 C32.6553906,55.8915125 22.6594219,48.0927313 19.3414219,37.3832938 C20.2597969,37.72645 21.2250781,37.9214812 22.2199844,37.9214812 C26.7945781,37.9214812 30.5149844,34.1986062 30.5149844,29.6240125 C30.5149844,25.0518875 26.7945781,21.3290125 22.2199844,21.3290125 C21.2226094,21.3290125 20.2573281,21.5240437 19.3414219,21.8622625 C21.8768281,13.6857625 28.3079219,7.2127 36.4547969,4.6106375 C37.4126719,8.17798125 40.6615469,10.7652312 44.4387344,10.7652312 C48.2159219,10.7652312 51.4647969,8.1755125 52.4226719,4.6106375 C54.9852344,5.42779375 57.3675781,6.63748125 59.5227969,8.15329375 C58.7747656,9.42223125 58.3624844,10.8467 58.3624844,12.3427625 C58.3624844,16.9173562 62.0828906,20.6402312 66.6574844,20.6402312 C67.4474844,20.6402312 68.2103281,20.4896375 68.9558906,20.2723875 C70.0692969,23.1830437 70.7062344,26.3257625 70.7062344,29.6240125 C70.7062344,44.1106375 58.9228906,55.8915125 44.4387344,55.8915125 Z M18.1712344,29.6240125 C18.1712344,27.7354188 18.3810781,25.8962 18.7612656,24.1187 C19.7981406,23.4644813 20.9831406,23.1089812 22.2199844,23.1089812 C25.8144844,23.1089812 28.7374844,26.0295125 28.7374844,29.6240125 C28.7374844,33.2185125 25.8144844,36.1415125 22.2199844,36.1415125 C20.9856094,36.1415125 19.8006094,35.781075 18.7612656,35.1317937 C18.3810781,33.351825 18.1712344,31.515075 18.1712344,29.6240125 Z M50.7142969,4.1465125 C49.9613281,6.95348125 47.4086406,8.9852625 44.4387344,8.9852625 C41.4663594,8.9852625 38.9136719,6.9510125 38.1631719,4.1465125 C40.1801406,3.65029375 42.2736406,3.35898125 44.4387344,3.35898125 C46.6038281,3.35898125 48.6973281,3.65029375 50.7142969,4.1465125 Z M68.2646406,18.6356063 C67.7412656,18.7689187 67.2080156,18.8602625 66.6574844,18.8602625 C63.0629844,18.8602625 60.1399844,15.9372625 60.1399844,12.3427625 C60.1399844,11.2342938 60.4214219,10.1727312 60.9447969,9.21979375 C64.0554219,11.7403875 66.5636719,14.9621062 68.2646406,18.6356063 Z M77.1595469,61.0882312 L64.8577656,48.7889188 C69.5730781,43.7674813 72.4837344,37.0352 72.4837344,29.6240125 C72.4837344,25.9036063 71.7381719,22.3535438 70.4149219,19.0997313 C70.4099844,19.0083875 70.3976406,18.9121062 70.3581406,18.8182937 C70.3309844,18.756575 70.2840781,18.7072 70.2445781,18.6553563 C68.3115469,14.1252 65.2033906,10.2270438 61.3249844,7.2867625 C61.2978281,7.2571375 61.3002969,7.2127 61.2657344,7.18554375 C61.2040156,7.1386375 61.1299531,7.11641875 61.0608281,7.08679375 C58.4167969,5.13154375 55.4271406,3.62560625 52.1881406,2.69241875 C52.0992656,2.6455125 52.0029844,2.6060125 51.8968281,2.5912 C51.8672031,2.58379375 51.8400469,2.5961375 51.8079531,2.59366875 C49.4552344,1.95179375 46.9938906,1.5790125 44.4387344,1.5790125 C41.8860469,1.5790125 39.4222344,1.95179375 37.0695156,2.59366875 C37.0374219,2.5961375 37.0127344,2.58379375 36.9806406,2.5912 C36.8744844,2.6060125 36.7782031,2.6455125 36.6893281,2.69241875 C27.0142969,5.48210625 19.4895469,13.3401375 17.1664531,23.2027938 C17.1220156,23.299075 17.0948594,23.4002938 17.0874531,23.50645 C16.6455469,25.4789813 16.3937344,27.5231063 16.3937344,29.6240125 C16.3937344,31.7668875 16.6578906,33.8431062 17.1146094,35.8477313 C17.1170781,35.860075 17.1195469,35.86995 17.1220156,35.8847625 C17.3195156,36.7364813 17.5491094,37.5758562 17.8206719,38.4004188 C17.6552656,38.31895 17.4775156,38.2646375 17.2824844,38.2646375 C16.6011094,38.2646375 16.0481094,38.8176375 16.0481094,39.4990125 C16.0481094,40.1803875 16.6011094,40.7333875 17.2824844,40.7333875 C17.7861094,40.7333875 18.2132031,40.4297313 18.4082344,40.0001688 C22.5409219,50.336825 32.6405781,57.6714812 44.4387344,57.6714812 C51.8499219,57.6714812 58.5822031,54.7583562 63.6011719,50.0455125 L75.9029531,62.3472938 L77.1595469,61.0882312 Z" id="Fill-24"></path>
                <path d="M11.1106094,41.96875 C11.1106094,42.6476563 10.5576094,43.203125 9.87623437,43.203125 C9.19485938,43.203125 8.64185938,42.6476563 8.64185938,41.96875 C8.64185938,41.287375 9.19485938,40.734375 9.87623437,40.734375 C10.5576094,40.734375 11.1106094,41.287375 11.1106094,41.96875" id="Fill-26"></path>
                <path d="M23.4543594,51.84375 C23.4543594,52.5226562 22.9013594,53.078125 22.2199844,53.078125 C21.5386094,53.078125 20.9856094,52.5226562 20.9856094,51.84375 C20.9856094,51.162375 21.5386094,50.609375 22.2199844,50.609375 C22.9013594,50.609375 23.4543594,51.162375 23.4543594,51.84375" id="Fill-28"></path>
                <path d="M30.8606094,56.78125 C30.8606094,57.4601562 30.3076094,58.015625 29.6262344,58.015625 C28.9448594,58.015625 28.3918594,57.4601562 28.3918594,56.78125 C28.3918594,56.099875 28.9448594,55.546875 29.6262344,55.546875 C30.3076094,55.546875 30.8606094,56.099875 30.8606094,56.78125" id="Fill-30"></path>
                <path d="M16.0481094,54.3125 C16.0481094,54.9914062 15.4951094,55.546875 14.8137344,55.546875 C14.1323594,55.546875 13.5793594,54.9914062 13.5793594,54.3125 C13.5793594,53.631125 14.1323594,53.078125 14.8137344,53.078125 C15.4951094,53.078125 16.0481094,53.631125 16.0481094,54.3125" id="Fill-32"></path>
                <path d="M11.1106094,56.7378 C11.1106094,57.4167062 10.5576094,57.972175 9.87623437,57.972175 C9.19485938,57.972175 8.64185938,57.4167062 8.64185938,56.7378 C8.64185938,56.056425 9.19485938,55.503425 9.87623437,55.503425 C10.5576094,55.503425 11.1106094,56.056425 11.1106094,56.7378" id="Fill-34"></path>
                <path d="M6.17310938,59.25 C6.17310938,59.931375 5.62010938,60.484375 4.93873438,60.484375 C4.25735938,60.484375 3.70435938,59.931375 3.70435938,59.25 C3.70435938,58.568625 4.25735938,58.015625 4.93873438,58.015625 C5.62010938,58.015625 6.17310938,58.568625 6.17310938,59.25" id="Fill-36"></path>
                <path d="M13.5756563,64.1875 C13.5756563,64.8664062 13.0226563,65.421875 12.3412813,65.421875 C11.6599063,65.421875 11.1069062,64.8664062 11.1069062,64.1875 C11.1069062,63.506125 11.6599063,62.953125 12.3412813,62.953125 C13.0226563,62.953125 13.5756563,63.506125 13.5756563,64.1875" id="Fill-38"></path>
                <path d="M11.1106094,69.125 C11.1106094,69.8039062 10.5576094,70.359375 9.87623437,70.359375 C9.19485938,70.359375 8.64185938,69.8039062 8.64185938,69.125 C8.64185938,68.443625 9.19485938,67.890625 9.87623437,67.890625 C10.5576094,67.890625 11.1106094,68.443625 11.1106094,69.125" id="Fill-40"></path>
                <path d="M20.9856094,61.7091219 C20.9856094,62.3904969 20.4326094,62.9434969 19.7512344,62.9434969 C19.0698594,62.9434969 18.5168594,62.3904969 18.5168594,61.7091219 C18.5168594,61.0277469 19.0698594,60.4747469 19.7512344,60.4747469 C20.4326094,60.4747469 20.9856094,61.0277469 20.9856094,61.7091219" id="Fill-42"></path>
                <path d="M28.3918594,66.65625 C28.3918594,67.337625 27.8388594,67.890625 27.1574844,67.890625 C26.4761094,67.890625 25.9231094,67.337625 25.9231094,66.65625 C25.9231094,65.974875 26.4761094,65.421875 27.1574844,65.421875 C27.8388594,65.421875 28.3918594,65.974875 28.3918594,66.65625" id="Fill-44"></path>
                <path d="M53.0793594,61.71875 C53.0793594,62.400125 52.5263594,62.953125 51.8449844,62.953125 C51.1636094,62.953125 50.6106094,62.400125 50.6106094,61.71875 C50.6106094,61.037375 51.1636094,60.484375 51.8449844,60.484375 C52.5263594,60.484375 53.0793594,61.037375 53.0793594,61.71875" id="Fill-46"></path>
                <path d="M35.7981094,76.53125 C35.7981094,77.2101562 35.2451094,77.765625 34.5637344,77.765625 C33.8823594,77.765625 33.3293594,77.2101562 33.3293594,76.53125 C33.3293594,75.849875 33.8823594,75.296875 34.5637344,75.296875 C35.2451094,75.296875 35.7981094,75.849875 35.7981094,76.53125" id="Fill-48"></path>
                <path d="M13.5793594,3.703125 C13.5793594,4.3845 13.0263594,4.9375 12.3449844,4.9375 C11.6636094,4.9375 11.1106094,4.3845 11.1106094,3.703125 C11.1106094,3.02175 11.6636094,2.46875 12.3449844,2.46875 C13.0263594,2.46875 13.5793594,3.02175 13.5793594,3.703125" id="Fill-50"></path>
                <path d="M23.4543594,4.959225 C23.4543594,5.6406 22.9013594,6.1936 22.2199844,6.1936 C21.5386094,6.1936 20.9856094,5.6406 20.9856094,4.959225 C20.9856094,4.27785 21.5386094,3.72485 22.2199844,3.72485 C22.9013594,3.72485 23.4543594,4.27785 23.4543594,4.959225" id="Fill-52"></path>
            </g>
        </g>
        <g id="Group-7-Copy-5" transform="translate(165.000000, 168.000000)">
            <polygon id="Fill-1" fill="#FFFFFF" points="0 79 79 79 79 0 0 0"></polygon>
            <g id="Group-6" fill="#000000">
                <path d="M37.7689125,13.9227625 L53.5392875,13.9227625 C53.4627563,13.4067937 53.4232563,12.88095 53.4232563,12.3427625 C53.4232563,11.8070437 53.4627563,11.2812 53.5392875,10.7652312 L37.7689125,10.7652312 C37.8676625,11.2762625 37.9195063,11.804575 37.9195063,12.3427625 C37.9195063,12.8834187 37.8676625,13.4117312 37.7689125,13.9227625 Z M29.6245062,5.82773125 C26.032475,5.82773125 23.1070062,8.7482625 23.1070062,12.3427625 C23.1070062,15.9372625 26.032475,18.8602625 29.6245062,18.8602625 C33.2190063,18.8602625 36.1420063,15.9372625 36.1420063,12.3427625 C36.1420063,8.7482625 33.2190063,5.82773125 29.6245062,5.82773125 Z M64.1870063,3.35898125 C59.232225,3.35898125 55.2007563,7.39045 55.2007563,12.3427625 C55.2007563,17.2975437 59.232225,21.3290125 64.1870063,21.3290125 C69.1417875,21.3290125 73.1732563,17.2975437 73.1732563,12.3427625 C73.1732563,7.39045 69.1417875,3.35898125 64.1870063,3.35898125 Z M19.6951938,24.9951062 C20.1691937,25.1679187 20.6333188,25.3876375 21.0826312,25.6567312 C21.5936625,25.965325 22.0602563,26.3257625 22.4799437,26.7306375 L26.3805688,19.9761375 C25.3535688,19.5391687 24.4351937,18.9022312 23.6698812,18.1122312 L19.6951938,24.9951062 Z M48.5376,31.20895 C49.8460375,31.20895 51.1569438,31.5496375 52.3246625,32.226075 C53.4528813,32.8802937 54.3910063,33.8208875 55.045225,34.951575 L55.2279125,35.267575 L62.3403813,22.9485125 C59.607475,22.4745125 57.2251313,20.9661063 55.6130375,18.8429812 L48.4709438,31.20895 L48.5376,31.20895 Z M8.375975,35.00095 L18.9496312,41.1061688 L22.21085,35.5021062 C23.050225,34.1122 23.2946312,32.4852938 22.9045687,30.9102312 C22.5145063,29.3351687 21.5418188,28.00945 20.1642562,27.17995 C17.3079125,25.4493562 13.5776313,26.3751375 11.851975,29.23395 L8.375975,35.00095 Z M50.4410063,53.4227625 L63.6389438,53.4227625 L53.504725,35.8378563 C53.0085063,34.9787313 52.2925688,34.260325 51.4334438,33.7641063 C49.6584125,32.7321687 47.4587563,32.7222937 45.6936,33.7394188 C44.834475,34.2381063 44.1136,34.9589813 43.6075063,35.8329188 C42.6150688,37.5412938 42.6101313,39.8397 43.5976313,41.5505438 L50.4410063,53.4227625 Z M40.3882563,65.7665125 L70.7045063,65.7665125 L70.7045063,55.2027313 L40.3882563,55.2027313 L40.3882563,65.7665125 Z M3.99888125,75.6415125 L75.6420063,75.6415125 L75.6420063,67.5464812 L8.672225,67.5464812 L3.99888125,75.6415125 Z M76.5307562,77.4214812 L2.46825625,77.4214812 C1.976975,77.4214812 1.57950625,77.0240125 1.57950625,76.5302625 C1.57950625,76.3747312 1.621475,76.2068563 1.69800625,76.071075 L7.388475,66.2133563 C7.54894375,65.9368562 7.842725,65.7665125 8.158725,65.7665125 L38.6107563,65.7665125 L38.6107563,54.3115125 C38.6107563,53.8202313 39.008225,53.4227625 39.4995063,53.4227625 L48.389475,53.4227625 L42.0571313,42.4392938 C40.7437562,40.1606375 40.7511625,37.2178875 42.069475,34.9417 C42.7311,33.7986687 43.6791,32.8506687 44.8073188,32.2013875 C45.2566313,31.9446375 45.7256937,31.7347937 46.2071,31.5767937 L54.5465375,17.1321375 C54.3194125,16.6704812 54.1219125,16.1940125 53.958975,15.7027312 L37.2085063,15.7027312 C35.91735,18.6059812 33.004225,20.6402312 29.6245063,20.6402312 C29.113475,20.6402312 28.6147875,20.5908562 28.1284437,20.50445 L23.6772875,28.2143562 C24.1043813,28.9056062 24.4277875,29.66845 24.630225,30.4831375 C25.13385,32.5198563 24.81785,34.6232313 23.7390063,36.4081375 L20.0408187,42.7651688 C19.7964125,43.187325 19.2532875,43.3379188 18.8286625,43.0861063 L13.5726938,40.0520125 L11.575475,43.5107313 C12.4469438,44.2242 13.08635,45.182075 13.4146937,46.2905438 C13.8491937,47.7520437 13.6911938,49.2876063 12.9703188,50.6182625 L11.6841,52.9882625 C11.5680688,53.141325 11.3335375,53.36845 11.15085,53.4202938 L7.289725,54.563325 L6.7861,52.8598875 L10.3040688,51.818075 L11.4076,49.7714813 C11.90135,48.8580438 12.009975,47.8038875 11.7112563,46.7966375 C11.4125375,45.794325 10.745975,44.9672938 9.83500625,44.4735438 C8.92156875,43.9797938 7.8674125,43.8711688 6.8601625,44.1674187 C5.85538125,44.4661375 5.03081875,45.1351687 4.53706875,46.0486062 L3.42613125,48.0952 L4.46300625,51.5983563 L2.75956875,52.10445 L1.6165375,48.2457938 C1.54988125,48.0211375 1.57456875,47.7767313 1.68813125,47.5693562 L2.97435,45.1993563 C3.695225,43.8711688 4.8950375,42.8960125 6.35406875,42.46645 C7.585975,42.0961375 8.87219375,42.1529188 10.0423813,42.614575 L12.0321937,39.1657313 L6.70463125,36.0872 C6.49725625,35.9687 6.3466625,35.7712 6.2874125,35.5391375 C6.2281625,35.307075 6.262725,35.0626688 6.38863125,34.8577625 L10.331225,28.315575 C11.9531937,25.6246375 14.9650688,24.2594187 17.8831313,24.5778875 L22.497225,16.584075 C21.7566,15.3422937 21.3295063,13.8906687 21.3295063,12.3427625 C21.3295063,7.7706375 25.0523813,4.0477625 29.6245063,4.0477625 C33.004225,4.0477625 35.91735,6.07954375 37.2085063,8.9852625 L53.958975,8.9852625 C55.3735688,4.6896375 59.4247875,1.5790125 64.1870063,1.5790125 C70.1218813,1.5790125 74.9507562,6.4078875 74.9507562,12.3427625 C74.9507562,18.2406062 70.1836,23.0447938 64.3005687,23.1065125 L56.2524438,37.0475438 L65.6929437,53.4227625 L71.5932562,53.4227625 C72.0845375,53.4227625 72.4820062,53.8202313 72.4820062,54.3115125 L72.4820062,65.7665125 L76.5307562,65.7665125 C77.0220375,65.7665125 77.4195062,66.1639813 77.4195062,66.6552625 L77.4195062,76.5302625 C77.4195062,77.0240125 77.0220375,77.4214812 76.5307562,77.4214812 Z" id="Fill-2"></path>
                <path d="M48.140625,38.265625 C47.45925,38.265625 46.90625,38.818625 46.90625,39.5 C46.90625,40.181375 47.45925,40.734375 48.140625,40.734375 C48.822,40.734375 49.375,40.181375 49.375,39.5 C49.375,38.818625 48.822,38.265625 48.140625,38.265625 M64.1875,11.109375 C63.506125,11.109375 62.953125,11.662375 62.953125,12.34375 C62.953125,13.025125 63.506125,13.578125 64.1875,13.578125 C64.868875,13.578125 65.421875,13.025125 65.421875,12.34375 C65.421875,11.662375 64.868875,11.109375 64.1875,11.109375 M30.859375,12.34375 C30.859375,13.025125 30.306375,13.578125 29.625,13.578125 C28.943625,13.578125 28.390625,13.025125 28.390625,12.34375 C28.390625,11.662375 28.943625,11.109375 29.625,11.109375 C30.306375,11.109375 30.859375,11.662375 30.859375,12.34375" id="Fill-4"></path>
            </g>
        </g>
    </g>
</svg>