<svg xmlns="http://www.w3.org/2000/svg" viewBox="0 0 928 522"><g fill="none" fill-rule="evenodd"><path fill="#FFF" d="M0 0h928v522H0z"/><path fill="#FFF" d="M124 321h120V201H124z"/><g fill="#000"><path d="M184.002 285.899c-1.862 0-3.675-.212-5.422-.602l11.567-10.912a3.476 3.476 0 00.632-4.284L180.7 252.599a.796.796 0 01.146-.981l6.968-6.507a3.486 3.486 0 00.64-4.307l-2.674-4.632c6.772.48 12.8 3.679 17.005 8.51l-4.98 8.672a3.509 3.509 0 000 3.486l4.19 7.285a3.505 3.505 0 003.03 1.75h3.394c-2.272 11.403-12.357 20.024-24.418 20.024M159.102 261c0-3.556.754-6.938 2.103-10l1.725 2.97a3.514 3.514 0 003.023 1.738h6.92c.284 0 .547.15.69.395l2.842 4.922a.797.797 0 01-.143.98l-3.808 3.583a3.479 3.479 0 00-.636 4.295l2.518 4.362a.79.79 0 010 .795l-3.934 6.8c-6.797-4.45-11.3-12.127-11.3-20.84m23.544-24.861l3.47 6.012a.796.796 0 01-.144.984l-6.967 6.512a3.482 3.482 0 00-.645 4.299l10.079 17.502a.789.789 0 01-.143.973l-12.726 12.004a24.485 24.485 0 01-2.83-1.231l3.932-6.8a3.505 3.505 0 00.004-3.497l-2.518-4.361a.791.791 0 01.143-.978l3.812-3.585a3.488 3.488 0 00.63-4.296l-2.844-4.922a3.5 3.5 0 00-3.026-1.751h-6.92a.795.795 0 01-.688-.391l-2.587-4.456c4.145-6.856 11.5-11.561 19.968-12.018m26.156 27.03h-3.776a.795.795 0 01-.69-.393l-4.191-7.284a.792.792 0 01.002-.791l4.427-7.711a24.753 24.753 0 014.328 14.01c0 .73-.038 1.455-.1 2.17m-24.8-29.772c-.25 0-.495.013-.742.019-.01.002-.018 0-.027 0-9.92.274-18.544 5.804-23.187 13.903-.022.028-.033.06-.052.09a27.411 27.411 0 00-3.592 13.59c0 10.169 5.533 19.065 13.74 23.853.02.013.03.033.052.045.032.019.067.026.1.042 1.596.918 3.29 1.68 5.065 2.267.016.006.032.009.048.016a27.465 27.465 0 008.595 1.377c15.218 0 27.6-12.381 27.6-27.6 0-15.22-12.382-27.602-27.6-27.602m17.091 72.741l-.959-2.526c12.207-4.64 21.844-14.29 26.44-26.474l2.527.952c-4.869 12.909-15.077 23.13-28.008 28.048m-34.186 0c-12.93-4.918-23.139-15.14-28.008-28.048l2.527-.952c4.596 12.184 14.233 21.834 26.44 26.474l-.959 2.526zm59.669-61.271a45.665 45.665 0 00-26.442-26.44l.96-2.527a48.382 48.382 0 0128.005 28.008l-2.523.96zm-85.152 0l-2.523-.959a48.383 48.383 0 0128.006-28.008l.96 2.527a45.668 45.668 0 00-26.443 26.44m42.578-38.766c-4.426 0-8.025 3.6-8.025 8.023 0 .242-.004.488.027.729.397 4.179 3.832 7.295 7.998 7.295s7.603-3.116 7.995-7.251c.034-.282.03-.527.03-.773 0-4.423-3.6-8.023-8.025-8.023m0 18.75c-5.566 0-10.157-4.172-10.681-9.697a8.476 8.476 0 01-.044-1.03c0-5.914 4.81-10.726 10.725-10.726s10.725 4.812 10.725 10.726c0 .356-.004.71-.046 1.066-.52 5.489-5.113 9.66-10.68 9.66"/><path d="M184.002 206.102c-4.426 0-8.025 3.6-8.025 8.023 0 .242-.004.488.027.729.397 4.179 3.832 7.295 7.998 7.295s7.603-3.116 7.995-7.251c.034-.282.03-.527.03-.773 0-4.423-3.6-8.023-8.025-8.023m0 18.75c-5.566 0-10.157-4.172-10.681-9.697a8.476 8.476 0 01-.044-1.03c0-5.914 4.81-10.726 10.725-10.726s10.725 4.812 10.725 10.726c0 .356-.004.71-.046 1.066-.52 5.489-5.113 9.66-10.68 9.66m.001 75.001c-4.166 0-7.601 3.116-7.993 7.25-.036.286-.032.53-.032.773 0 4.424 3.599 8.024 8.025 8.024s8.025-3.6 8.025-8.024c0-.245.004-.491-.027-.736a7.994 7.994 0 00-7.998-7.287m0 18.75c-5.914 0-10.725-4.812-10.725-10.727 0-.36.004-.713.05-1.073.518-5.482 5.109-9.653 10.675-9.653 5.566 0 10.159 4.17 10.683 9.697.038.318.042.674.042 1.029 0 5.915-4.81 10.727-10.725 10.727m46.741-65.625c-.201 0-.403 0-.604.025-4.171.396-7.29 3.83-7.29 7.998 0 4.167 3.119 7.603 7.253 7.995.286.037.526.04.773.029 4.426 0 8.026-3.6 8.026-8.024 0-4.467-3.75-7.954-8.158-8.023m.132 18.75c-.355 0-.707-.004-1.062-.048-5.493-.52-9.662-5.112-9.662-10.68 0-5.565 4.169-10.158 9.698-10.681.319-.04.671-.044 1.026-.044 5.914 0 10.724 4.812 10.724 10.726 0 5.915-4.81 10.727-10.724 10.727m-93.631-18.75c-4.473-.19-8.145 3.56-8.145 8.023-.001 4.468 3.624 8.06 8.158 8.024.201 0 .404 0 .606-.026a7.996 7.996 0 007.288-7.998c0-4.168-3.119-7.602-7.251-7.994-.239-.03-.449-.03-.656-.03m-.119 18.75c-5.914 0-10.724-4.811-10.724-10.726 0-5.914 4.81-10.726 10.724-10.726.355 0 .709.004 1.064.048 5.493.519 9.66 5.112 9.66 10.678 0 5.567-4.167 10.159-9.697 10.683a8.48 8.48 0 01-1.027.044"/></g><path fill="#FFF" d="M308 321h120V201H308z"/><path d="M416.714 289.649c-2.045 0-4.047-1.19-5.226-3.105a1.35 1.35 0 00-1.15-.645h-1.087a1.35 1.35 0 00-1.35 1.352v13.648H383a1.35 1.35 0 00-1.35 1.352v.86c0 .494.269.948.7 1.183 1.973 1.084 3.2 3.13 3.2 5.343a6.156 6.156 0 01-6.15 6.149 6.156 6.156 0 01-6.151-6.15c0-2.101 1.133-4.104 2.957-5.225.4-.245.643-.681.643-1.15v-1.01a1.35 1.35 0 00-1.35-1.352h-13.65v-11.14c1.66 1.633 3.864 2.593 6.123 2.593 4.894 0 8.877-3.97 8.877-8.851 0-4.882-3.983-8.852-8.877-8.852-2.367 0-4.523.854-6.123 2.354v-14.651h46.05v17.399a1.35 1.35 0 001.35 1.35h.902c.492 0 .946-.27 1.184-.702 1.045-1.908 3.056-3.047 5.378-3.047 3.41 0 6.187 2.757 6.187 6.149 0 3.39-2.776 6.148-6.187 6.148zm-86.065-3.75c-4.88 0-8.85 3.97-8.85 8.852 0 2.339.91 4.522 2.509 6.148H313.1v-38.547h13.65A1.35 1.35 0 00328.1 261v-1.122c0-.468-.244-.904-.646-1.15-1.85-1.135-2.957-3.09-2.957-5.228a6.156 6.156 0 016.151-6.15 6.156 6.156 0 016.15 6.15c0 2.215-1.227 4.266-3.202 5.357a1.354 1.354 0 00-.696 1.183v.96a1.35 1.35 0 001.35 1.35h24.9v17.4a1.35 1.35 0 001.35 1.35h.908c.491 0 .943-.266 1.18-.695 1.06-1.915 3.071-3.054 5.384-3.054 3.407 0 6.179 2.757 6.179 6.149 0 3.39-2.772 6.148-6.178 6.148-2.064 0-4.076-1.19-5.253-3.105a1.351 1.351 0 00-1.15-.645h-1.07a1.35 1.35 0 00-1.35 1.352v13.648h-22.18a8.784 8.784 0 002.527-6.148c0-4.882-3.97-8.852-8.849-8.852zm-17.55-64.797h13.652a1.35 1.35 0 001.349-1.351v-1.124a1.35 1.35 0 00-.643-1.151c-1.824-1.12-2.957-3.124-2.957-5.225a6.156 6.156 0 016.15-6.15 6.156 6.156 0 016.15 6.15c0 2.21-1.227 4.258-3.2 5.342a1.353 1.353 0 00-.7 1.183v.975a1.35 1.35 0 001.35 1.35h24.9v17.4a1.35 1.35 0 001.35 1.35h.9c.493 0 .947-.27 1.185-.702 1.045-1.908 3.056-3.047 5.378-3.047 3.411 0 6.187 2.757 6.187 6.149 0 3.39-2.776 6.148-6.187 6.148-2.045 0-4.047-1.19-5.226-3.105a1.35 1.35 0 00-1.15-.645H360.5a1.35 1.35 0 00-1.35 1.352v13.648h-22.18a8.784 8.784 0 002.527-6.148c0-4.882-3.97-8.852-8.849-8.852-4.88 0-8.85 3.97-8.85 8.852 0 2.339.91 4.522 2.51 6.148h-11.209v-38.547zm62.402 0a1.35 1.35 0 001.349-1.351v-1.124a1.35 1.35 0 00-.643-1.151c-1.825-1.12-2.957-3.124-2.957-5.225a6.156 6.156 0 016.15-6.15 6.156 6.156 0 016.15 6.15c0 2.21-1.226 4.258-3.2 5.342a1.353 1.353 0 00-.7 1.183v.975a1.35 1.35 0 001.35 1.35h24.9v14.656c-1.603-1.49-3.78-2.358-6.113-2.358-4.9 0-8.886 3.97-8.886 8.852 0 4.88 3.986 8.85 8.886 8.85 2.234 0 4.435-.963 6.114-2.6v11.148H361.85V248.49c1.659 1.644 3.86 2.61 6.114 2.61 4.9 0 8.886-3.97 8.886-8.85 0-4.882-3.986-8.852-8.886-8.852-2.333 0-4.51.868-6.114 2.358v-14.655h13.65zm41.213 53.547c-2.333 0-4.51.868-6.114 2.358V246a1.35 1.35 0 00-1.35-1.352h-1.05a1.35 1.35 0 00-1.14.63c-1.22 1.927-3.24 3.12-5.273 3.12-3.411 0-6.187-2.758-6.187-6.148 0-3.392 2.776-6.15 6.187-6.15 2.322 0 4.332 1.14 5.378 3.048.238.432.692.703 1.185.703h.9a1.35 1.35 0 001.35-1.351v-18.75a1.35 1.35 0 00-1.35-1.352h-23.536a8.757 8.757 0 002.536-6.148c0-4.882-3.97-8.852-8.85-8.852-4.88 0-8.85 3.97-8.85 8.852 0 2.299.935 4.51 2.528 6.148h-36.114a8.757 8.757 0 002.536-6.148c0-4.882-3.97-8.852-8.85-8.852-4.88 0-8.85 3.97-8.85 8.852 0 2.299.935 4.51 2.528 6.148H311.75a1.35 1.35 0 00-1.35 1.352v82.5a1.35 1.35 0 001.35 1.35h15a1.35 1.35 0 001.349-1.35v-1.122c0-.468-.243-.904-.645-1.15-1.851-1.135-2.957-3.09-2.957-5.228a6.156 6.156 0 016.15-6.15 6.156 6.156 0 016.15 6.15c0 2.215-1.226 4.266-3.201 5.357a1.354 1.354 0 00-.696 1.183v.96a1.35 1.35 0 001.35 1.35h38.717c-1.525 1.627-2.417 3.79-2.417 6.036 0 4.88 3.97 8.85 8.85 8.85 4.879 0 8.849-3.97 8.849-8.85 0-2.274-.89-4.424-2.424-6.035h23.425a1.35 1.35 0 001.349-1.351v-12.51c1.659 1.644 3.86 2.61 6.114 2.61 4.9 0 8.886-3.97 8.886-8.85 0-4.882-3.986-8.852-8.886-8.852z" fill="#000"/><path fill="#FFF" d="M492 321h120V201H492z"/><g fill="#000"><path d="M559.502 224.851c-5.46 0-9.9 4.44-9.9 9.9s4.44 9.897 9.9 9.897 9.9-4.436 9.9-9.896c0-5.46-4.44-9.9-9.9-9.9m0 22.5c-6.949 0-12.6-5.656-12.6-12.6 0-6.95 5.651-12.604 12.6-12.604s12.6 5.655 12.6 12.604c0 6.944-5.651 12.6-12.6 12.6m11.25 7.499c-5.46 0-9.9 4.44-9.9 9.9s4.44 9.897 9.9 9.897 9.9-4.437 9.9-9.897-4.44-9.9-9.9-9.9m0 22.5c-6.949 0-12.6-5.655-12.6-12.6 0-6.948 5.651-12.603 12.6-12.603s12.6 5.655 12.6 12.603c0 6.945-5.651 12.6-12.6 12.6m-73.125-65.101c0 1.031-.84 1.875-1.875 1.875a1.876 1.876 0 111.875-1.875m22.5 7.5a1.876 1.876 0 11-3.751-.001 1.876 1.876 0 013.75.001m-11.249 7.5c0 1.031-.84 1.875-1.875 1.875a1.876 1.876 0 111.875-1.875m3.75 7.5c0 1.031-.84 1.875-1.875 1.875a1.876 1.876 0 111.875-1.875m-11.25-3.75c0 1.031-.84 1.875-1.875 1.875a1.876 1.876 0 111.875-1.875m3.75 7.5c0 1.031-.84 1.875-1.875 1.875a1.876 1.876 0 111.875-1.875m-7.5 7.657c0 1.032-.84 1.875-1.875 1.875a1.876 1.876 0 111.875-1.875m11.25 7.343a1.876 1.876 0 11-3.751-.001 1.876 1.876 0 013.75.001m-7.499 3.75c0 1.031-.84 1.875-1.875 1.875a1.876 1.876 0 111.875-1.875"/><path d="M559.502 285.899c-17.899 0-33.083-11.847-38.123-28.114 1.395.521 2.862.817 4.373.817 6.949 0 12.6-5.655 12.6-12.603 0-6.945-5.651-12.6-12.6-12.6-1.515 0-2.981.296-4.373.81 3.852-12.42 13.62-22.253 25.995-26.205 1.455 5.418 6.39 9.348 12.128 9.348 5.737 0 10.672-3.933 12.127-9.348a39.732 39.732 0 0110.785 5.38c-1.136 1.928-1.762 4.092-1.762 6.365 0 6.948 5.651 12.603 12.6 12.603 1.2 0 2.359-.228 3.491-.558 1.691 4.42 2.659 9.195 2.659 14.205 0 22.005-17.899 39.9-39.9 39.9zm-39.9-39.9c0-2.87.319-5.663.896-8.363a9.804 9.804 0 015.254-1.534c5.46 0 9.9 4.437 9.9 9.897s-4.44 9.9-9.9 9.9c-1.875 0-3.675-.548-5.254-1.534a39.958 39.958 0 01-.896-8.366zm49.432-38.7c-1.143 4.263-5.02 7.35-9.532 7.35-4.515 0-8.393-3.09-9.533-7.35 3.064-.754 6.244-1.197 9.533-1.197 3.289 0 6.469.443 9.532 1.196zm26.66 22.008c-.796.203-1.606.341-2.442.341-5.46 0-9.9-4.44-9.9-9.9 0-1.683.427-3.296 1.222-4.743a40.078 40.078 0 0111.12 14.302zm13.51 64.485l-18.686-18.682c7.163-7.628 11.584-17.854 11.584-29.112a42.34 42.34 0 00-3.143-15.986 1.259 1.259 0 00-.086-.427c-.041-.094-.112-.169-.172-.248-2.937-6.881-7.658-12.802-13.55-17.269-.04-.045-.037-.112-.09-.153-.093-.072-.205-.105-.31-.15a42.403 42.403 0 00-13.478-6.675 1.348 1.348 0 00-.442-.154c-.045-.011-.087.007-.135.004-3.574-.975-7.313-1.542-11.194-1.542-3.878 0-7.62.567-11.194 1.542-.049.003-.086-.015-.135-.004a1.348 1.348 0 00-.442.154c-14.697 4.237-26.127 16.173-29.655 31.155-.068.146-.11.3-.12.461a42.442 42.442 0 00-1.054 9.292c0 3.255.401 6.41 1.095 9.454l.011.056c.3 1.294.649 2.57 1.061 3.822a1.833 1.833 0 00-.817-.207 1.876 1.876 0 000 3.75 1.88 1.88 0 001.71-1.113c6.277 15.701 21.619 26.842 39.54 26.842 11.257 0 21.484-4.425 29.107-11.584l18.687 18.687 1.908-1.913zM508.877 264.75c0 1.031-.84 1.875-1.875 1.875a1.876 1.876 0 111.875-1.875m18.75 15c0 1.031-.84 1.875-1.875 1.875a1.876 1.876 0 111.875-1.875m11.25 7.5c0 1.031-.84 1.875-1.875 1.875a1.876 1.876 0 111.875-1.875m-22.5-3.75c0 1.031-.84 1.875-1.875 1.875a1.876 1.876 0 111.875-1.875m-7.5 3.684c0 1.031-.84 1.875-1.875 1.875a1.876 1.876 0 111.875-1.875m-7.5 3.816a1.876 1.876 0 11-3.751-.001 1.876 1.876 0 013.75.001m11.245 7.5c0 1.031-.84 1.875-1.875 1.875a1.876 1.876 0 111.875-1.875m-3.744 7.5c0 1.031-.84 1.875-1.875 1.875a1.876 1.876 0 111.875-1.875m15-11.265a1.876 1.876 0 11-3.751-.001 1.876 1.876 0 013.75.001m11.251 7.515a1.876 1.876 0 11-3.751-.001 1.876 1.876 0 013.75.001m37.501-7.5a1.876 1.876 0 11-3.751-.001 1.876 1.876 0 013.75.001m-26.249 22.5c0 1.031-.84 1.875-1.875 1.875a1.876 1.876 0 111.875-1.875m-33.75-110.625a1.876 1.876 0 11-3.751-.001 1.876 1.876 0 013.75.001m15.001 1.908a1.876 1.876 0 11-3.751-.001 1.876 1.876 0 013.75.001"/></g><g><path fill="#FFF" d="M676 321h120V201H676z"/><g fill="#000"><path d="M733.37 222.149h23.955a16.324 16.324 0 010-4.797H733.37a12.632 12.632 0 010 4.797zM721 209.852c-5.457 0-9.9 4.437-9.9 9.897s4.443 9.9 9.9 9.9c5.46 0 9.9-4.44 9.9-9.9s-4.44-9.897-9.9-9.897zm52.5-3.75c-7.527 0-13.65 6.124-13.65 13.647 0 7.526 6.123 13.65 13.65 13.65 7.525 0 13.65-6.124 13.65-13.65 0-7.523-6.125-13.647-13.65-13.647zm-67.583 32.865a11.95 11.95 0 014.23 2.636l5.925-10.26a12.602 12.602 0 01-4.118-2.83l-6.037 10.454zm43.811 9.439c1.988 0 3.979.518 5.753 1.545a11.364 11.364 0 014.132 4.14l.278.48 10.803-18.712a16.357 16.357 0 01-10.218-6.237l-10.85 18.784h.102zm-61.005 5.76l16.061 9.274 4.954-8.513a9.137 9.137 0 001.054-6.975 9.12 9.12 0 00-4.163-5.666c-4.339-2.629-10.005-1.222-12.626 3.12l-5.28 8.76zm63.896 27.983h20.048l-15.394-26.712a8.621 8.621 0 00-3.146-3.15c-2.696-1.567-6.038-1.582-8.719-.037a8.735 8.735 0 00-3.169 3.18c-1.507 2.595-1.515 6.086-.015 8.685l10.395 18.034zm-15.27 18.75h46.05v-16.047h-46.05V300.9zm-55.275 15H790.9v-12.297H689.173l-7.099 12.297zm110.175 2.703h-112.5a1.35 1.35 0 01-1.35-1.353c0-.237.064-.492.18-.698l8.644-14.974c.244-.42.69-.678 1.17-.678h46.256v-17.4c0-.747.604-1.35 1.35-1.35h13.504l-9.619-16.684c-1.995-3.461-1.984-7.931.019-11.389a11.382 11.382 0 014.159-4.163 11.55 11.55 0 012.126-.948l12.668-21.941a17.142 17.142 0 01-.893-2.172h-25.444c-1.961 4.41-6.386 7.5-11.52 7.5a12.98 12.98 0 01-2.272-.206l-6.762 11.711a12.099 12.099 0 011.448 3.447 11.8 11.8 0 01-1.354 9l-5.617 9.656a1.34 1.34 0 01-1.842.487l-7.983-4.608-3.034 5.253a8.575 8.575 0 012.794 4.223c.66 2.22.42 4.552-.675 6.573l-1.954 3.6c-.176.233-.533.578-.81.657l-5.865 1.736-.765-2.587 5.344-1.583 1.676-3.109a5.902 5.902 0 00.461-4.518 5.9 5.9 0 00-2.85-3.53 5.92 5.92 0 00-4.518-.464 5.888 5.888 0 00-3.53 2.857l-1.687 3.109 1.575 5.321-2.587.769-1.736-5.861a1.346 1.346 0 01.108-1.028l1.954-3.6a8.557 8.557 0 015.134-4.151 8.512 8.512 0 015.602.225l3.023-5.239-8.093-4.676a1.34 1.34 0 01-.633-.832 1.337 1.337 0 01.153-1.035l5.989-9.938c2.464-4.087 7.039-6.161 11.471-5.677l7.009-12.143a12.544 12.544 0 01-1.774-6.442c0-6.945 5.655-12.6 12.6-12.6 5.134 0 9.559 3.086 11.52 7.5h25.444c2.149-6.525 8.303-11.25 15.536-11.25 9.015 0 16.35 7.335 16.35 16.35 0 8.958-7.241 16.256-16.177 16.35l-12.225 21.176 14.34 24.874h8.962c.747 0 1.35.603 1.35 1.35v17.4h6.15c.747 0 1.35.603 1.35 1.35v15a1.35 1.35 0 01-1.35 1.353z"/><path d="M749.125 259.125a1.876 1.876 0 10.001 3.751 1.876 1.876 0 00-.001-3.751m24.375-41.25a1.876 1.876 0 10.001 3.751 1.876 1.876 0 00-.001-3.751m-50.625 1.875a1.876 1.876 0 11-3.751-.001 1.876 1.876 0 013.751.001"/></g></g></g></svg>