<?xml version="1.0" encoding="UTF-8"?>
<svg width="928px" height="522px" viewBox="0 0 928 522" version="1.1" xmlns="http://www.w3.org/2000/svg" xmlns:xlink="http://www.w3.org/1999/xlink">
    <!-- Generator: Sketch 52.5 (67469) - http://www.bohemiancoding.com/sketch -->
    <title>Artboard Copy 19</title>
    <desc>Created with Sketch.</desc>
    <g id="Artboard-Copy-19" stroke="none" stroke-width="1" fill="none" fill-rule="evenodd">
        <rect id="Rectangle-3-Copy-50" fill="#FFFFFF" x="0" y="0" width="928" height="522"></rect>
        <g id="Group-23-Copy" transform="translate(124.000000, 201.000000)">
            <polygon id="Fill-1" fill="#FFFFFF" points="0 120 120 120 120 0 0 0"></polygon>
            <g id="Group-22" transform="translate(2.000000, 2.000000)" fill="#000000">
                <path d="M58.0018,82.8986 C56.1398,82.8986 54.3268,82.6866 52.5798,82.2966 L64.1468,71.3846 C65.3318,70.2716 65.5898,68.5096 64.7788,67.1006 L54.7008,49.5986 C54.5138,49.2766 54.5758,48.8746 54.8468,48.6176 L61.8148,42.1106 C63.0098,40.9936 63.2728,39.2236 62.4548,37.8036 L59.7808,33.1716 C66.5528,33.6526 72.5818,36.8506 76.7858,41.6826 L71.8058,50.3536 C71.1878,51.4336 71.1878,52.7666 71.8058,53.8396 L75.9958,61.1246 C76.6178,62.2046 77.7788,62.8746 79.0258,62.8746 L82.4198,62.8746 C80.1478,74.2776 70.0628,82.8986 58.0018,82.8986 M33.1018,58.0006 C33.1018,54.4446 33.8558,51.0626 35.2048,48.0006 L36.9298,50.9716 C37.5548,52.0426 38.7138,52.7086 39.9528,52.7086 L46.8728,52.7086 C47.1568,52.7086 47.4198,52.8586 47.5628,53.1036 L50.4048,58.0256 C50.5918,58.3476 50.5308,58.7536 50.2618,59.0066 L46.4538,62.5886 C45.2628,63.7026 45.0028,65.4706 45.8178,66.8836 L48.3358,71.2456 C48.4788,71.4916 48.4788,71.7946 48.3358,72.0406 L44.4018,78.8406 C37.6048,74.3906 33.1018,66.7136 33.1018,58.0006 M56.6458,33.1396 L60.1168,39.1516 C60.3038,39.4766 60.2448,39.8796 59.9718,40.1356 L53.0048,46.6476 C51.8098,47.7646 51.5458,49.5296 52.3598,50.9466 L62.4388,68.4486 C62.6238,68.7666 62.5648,69.1696 62.2958,69.4216 L49.5698,81.4256 C48.5958,81.0746 47.6528,80.6606 46.7398,80.1946 L50.6718,73.3956 C51.2968,72.3186 51.2978,70.9786 50.6758,69.8976 L48.1578,65.5366 C47.9718,65.2136 48.0298,64.8116 48.3008,64.5586 L52.1128,60.9736 C53.2978,59.8566 53.5578,58.0876 52.7428,56.6776 L49.8988,51.7556 C49.2788,50.6756 48.1178,50.0046 46.8728,50.0046 L39.9528,50.0046 C39.6688,50.0046 39.4058,49.8556 39.2648,49.6136 L36.6778,45.1576 C40.8228,38.3016 48.1788,33.5966 56.6458,33.1396 M82.8018,60.1706 L79.0258,60.1706 C78.7418,60.1706 78.4768,60.0216 78.3358,59.7766 L74.1448,52.4926 C74.0048,52.2476 74.0048,51.9466 74.1468,51.7016 L78.5738,43.9906 C81.3028,47.9846 82.9018,52.8086 82.9018,58.0006 C82.9018,58.7316 82.8638,59.4556 82.8018,60.1706 M58.0018,30.3986 C57.7528,30.3986 57.5068,30.4116 57.2598,30.4176 C57.2508,30.4196 57.2418,30.4176 57.2328,30.4186 C47.3128,30.6916 38.6888,36.2216 34.0458,44.3206 C34.0238,44.3486 34.0128,44.3816 33.9938,44.4116 C31.7118,48.4256 30.4018,53.0616 30.4018,58.0006 C30.4018,68.1696 35.9348,77.0656 44.1428,81.8536 C44.1628,81.8666 44.1728,81.8866 44.1938,81.8986 C44.2258,81.9176 44.2608,81.9246 44.2938,81.9406 C45.8898,82.8586 47.5838,83.6206 49.3588,84.2076 C49.3748,84.2136 49.3908,84.2166 49.4068,84.2236 C52.1138,85.1136 55.0008,85.6006 58.0018,85.6006 C73.2198,85.6006 85.6018,73.2196 85.6018,58.0006 C85.6018,42.7806 73.2198,30.3986 58.0018,30.3986" id="Fill-2"></path>
                <path d="M75.0931,103.1389 L74.1341,100.6129 C86.3411,95.9729 95.9781,86.3229 100.5741,74.1389 L103.1011,75.0909 C98.2321,87.9999 88.0241,98.2209 75.0931,103.1389" id="Fill-4"></path>
                <path d="M40.9071,103.1389 C27.9761,98.2209 17.7681,87.9999 12.8991,75.0909 L15.4261,74.1389 C20.0221,86.3229 29.6591,95.9729 41.8661,100.6129 L40.9071,103.1389 Z" id="Fill-6"></path>
                <path d="M100.5755,41.8684 C95.9455,29.6914 86.3075,20.0534 74.1335,15.4284 L75.0935,12.9014 C87.9875,17.8054 98.1955,28.0114 103.0985,40.9094 L100.5755,41.8684 Z" id="Fill-8"></path>
                <path d="M15.4241,41.8684 L12.9011,40.9094 C17.8041,28.0114 28.0131,17.8054 40.9071,12.9014 L41.8661,15.4284 C29.6921,20.0534 20.0551,29.6914 15.4241,41.8684" id="Fill-10"></path>
                <path d="M58.0018,3.1018 C53.5758,3.1018 49.9768,6.7018 49.9768,11.1248 C49.9768,11.3668 49.9728,11.6128 50.0038,11.8538 C50.4008,16.0328 53.8358,19.1488 58.0018,19.1488 C62.1678,19.1488 65.6048,16.0328 65.9968,11.8978 C66.0308,11.6158 66.0268,11.3708 66.0268,11.1248 C66.0268,6.7018 62.4278,3.1018 58.0018,3.1018 M58.0018,21.8518 C52.4358,21.8518 47.8448,17.6798 47.3208,12.1548 C47.2808,11.8388 47.2768,11.4838 47.2768,11.1248 C47.2768,5.2108 52.0878,0.3988 58.0018,0.3988 C63.9168,0.3988 68.7268,5.2108 68.7268,11.1248 C68.7268,11.4808 68.7228,11.8348 68.6808,12.1908 C68.1608,17.6798 63.5678,21.8518 58.0018,21.8518" id="Fill-12"></path>
                <path d="M58.0018,3.1018 C53.5758,3.1018 49.9768,6.7018 49.9768,11.1248 C49.9768,11.3668 49.9728,11.6128 50.0038,11.8538 C50.4008,16.0328 53.8358,19.1488 58.0018,19.1488 C62.1678,19.1488 65.6048,16.0328 65.9968,11.8978 C66.0308,11.6158 66.0268,11.3708 66.0268,11.1248 C66.0268,6.7018 62.4278,3.1018 58.0018,3.1018 M58.0018,21.8518 C52.4358,21.8518 47.8448,17.6798 47.3208,12.1548 C47.2808,11.8388 47.2768,11.4838 47.2768,11.1248 C47.2768,5.2108 52.0878,0.3988 58.0018,0.3988 C63.9168,0.3988 68.7268,5.2108 68.7268,11.1248 C68.7268,11.4808 68.7228,11.8348 68.6808,12.1908 C68.1608,17.6798 63.5678,21.8518 58.0018,21.8518" id="Fill-14"></path>
                <path d="M58.0018,96.8518 C53.8358,96.8518 50.4008,99.9678 50.0088,104.1028 C49.9728,104.3878 49.9768,104.6328 49.9768,104.8748 C49.9768,109.2988 53.5758,112.8988 58.0018,112.8988 C62.4278,112.8988 66.0268,109.2988 66.0268,104.8748 C66.0268,104.6298 66.0308,104.3838 65.9998,104.1388 C65.6048,99.9678 62.1678,96.8518 58.0018,96.8518 M58.0018,115.6018 C52.0878,115.6018 47.2768,110.7898 47.2768,104.8748 C47.2768,104.5158 47.2808,104.1618 47.3268,103.8018 C47.8448,98.3198 52.4358,94.1488 58.0018,94.1488 C63.5678,94.1488 68.1608,98.3198 68.6848,103.8458 C68.7228,104.1638 68.7268,104.5198 68.7268,104.8748 C68.7268,110.7898 63.9168,115.6018 58.0018,115.6018" id="Fill-16"></path>
                <path d="M104.743,49.9768 C104.542,49.9768 104.34,49.9768 104.139,50.0018 C99.968,50.3978 96.849,53.8318 96.849,57.9998 C96.849,62.1668 99.968,65.6028 104.102,65.9948 C104.388,66.0318 104.628,66.0348 104.875,66.0238 C109.301,66.0238 112.901,62.4238 112.901,57.9998 C112.901,53.5328 109.151,50.0458 104.743,49.9768 M104.875,68.7268 C104.52,68.7268 104.168,68.7228 103.813,68.6788 C98.32,68.1588 94.151,63.5668 94.151,57.9998 C94.151,52.4338 98.32,47.8408 103.849,47.3178 C104.168,47.2778 104.52,47.2738 104.875,47.2738 C110.789,47.2738 115.599,52.0858 115.599,57.9998 C115.599,63.9148 110.789,68.7268 104.875,68.7268" id="Fill-18"></path>
                <path d="M11.244,49.9768 C6.771,49.7868 3.099,53.5368 3.099,57.9998 C3.098,62.4678 6.723,66.0608 11.257,66.0238 C11.458,66.0238 11.661,66.0238 11.863,65.9978 C16.032,65.6028 19.151,62.1668 19.151,57.9998 C19.151,53.8318 16.032,50.3978 11.9,50.0058 C11.661,49.9768 11.451,49.9768 11.244,49.9768 M11.125,68.7268 C5.211,68.7268 0.401,63.9148 0.401,57.9998 C0.401,52.0858 5.211,47.2738 11.125,47.2738 C11.48,47.2738 11.834,47.2778 12.189,47.3218 C17.682,47.8408 21.849,52.4338 21.849,57.9998 C21.849,63.5668 17.682,68.1588 12.152,68.6828 C11.834,68.7228 11.48,68.7268 11.125,68.7268" id="Fill-20"></path>
            </g>
        </g>
        <g id="Group-4-Copy-11" transform="translate(308.000000, 201.000000)">
            <polygon id="Fill-1" fill="#FFFFFF" points="0 120 120 120 120 0 0 0"></polygon>
            <path d="M108.7135,88.6486 C106.6685,88.6486 104.6665,87.4586 103.4875,85.5436 C103.2425,85.1436 102.8065,84.8986 102.3375,84.8986 L101.2505,84.8986 C100.5045,84.8986 99.9005,85.5026 99.9005,86.2506 L99.9005,99.8986 L75.0005,99.8986 C74.2545,99.8986 73.6505,100.5026 73.6505,101.2506 L73.6505,102.1106 C73.6505,102.6046 73.9195,103.0586 74.3515,103.2936 C76.3235,104.3776 77.5505,106.4246 77.5505,108.6366 C77.5505,112.0276 74.7915,114.7856 71.4005,114.7856 C68.0085,114.7856 65.2495,112.0276 65.2495,108.6366 C65.2495,106.5346 66.3825,104.5316 68.2065,103.4106 C68.6065,103.1656 68.8495,102.7296 68.8495,102.2606 L68.8495,101.2506 C68.8495,100.5026 68.2455,99.8986 67.5005,99.8986 L53.8495,99.8986 L53.8495,88.7586 C55.5105,90.3916 57.7135,91.3516 59.9725,91.3516 C64.8665,91.3516 68.8495,87.3816 68.8495,82.5006 C68.8495,77.6186 64.8665,73.6486 59.9725,73.6486 C57.6055,73.6486 55.4495,74.5026 53.8495,76.0026 L53.8495,61.3516 L99.9005,61.3516 L99.9005,78.7506 C99.9005,79.4976 100.5045,80.1016 101.2505,80.1016 L102.1515,80.1016 C102.6435,80.1016 103.0975,79.8306 103.3355,79.3986 C104.3805,77.4906 106.3915,76.3516 108.7135,76.3516 C112.1245,76.3516 114.9005,79.1086 114.9005,82.5006 C114.9005,85.8906 112.1245,88.6486 108.7135,88.6486 Z M22.6485,84.8986 C17.7685,84.8986 13.7985,88.8686 13.7985,93.7506 C13.7985,96.0896 14.7085,98.2726 16.3075,99.8986 L5.0995,99.8986 L5.0995,61.3516 L18.7505,61.3516 C19.4955,61.3516 20.0995,60.7476 20.0995,60.0006 L20.0995,58.8786 C20.0995,58.4106 19.8565,57.9746 19.4545,57.7296 C17.6035,56.5936 16.4975,54.6386 16.4975,52.5006 C16.4975,49.1086 19.2565,46.3516 22.6485,46.3516 C26.0395,46.3516 28.7985,49.1086 28.7985,52.5006 C28.7985,54.7156 27.5715,56.7666 25.5965,57.8576 C25.1675,58.0956 24.9005,58.5496 24.9005,59.0406 L24.9005,60.0006 C24.9005,60.7476 25.5045,61.3516 26.2505,61.3516 L51.1505,61.3516 L51.1505,78.7506 C51.1505,79.4976 51.7545,80.1016 52.5005,80.1016 L53.4085,80.1016 C53.8995,80.1016 54.3515,79.8346 54.5885,79.4056 C55.6475,77.4906 57.6595,76.3516 59.9725,76.3516 C63.3785,76.3516 66.1505,79.1086 66.1505,82.5006 C66.1505,85.8906 63.3785,88.6486 59.9725,88.6486 C57.9085,88.6486 55.8965,87.4586 54.7195,85.5436 C54.4735,85.1436 54.0385,84.8986 53.5695,84.8986 L52.5005,84.8986 C51.7545,84.8986 51.1505,85.5026 51.1505,86.2506 L51.1505,99.8986 L28.9705,99.8986 C30.5675,98.2726 31.4975,96.0716 31.4975,93.7506 C31.4975,88.8686 27.5275,84.8986 22.6485,84.8986 Z M5.0995,20.1016 L18.7505,20.1016 C19.4955,20.1016 20.0995,19.4976 20.0995,18.7506 L20.0995,17.6266 C20.0995,17.1576 19.8565,16.7206 19.4565,16.4756 C17.6325,15.3556 16.4995,13.3516 16.4995,11.2506 C16.4995,7.8586 19.2585,5.1016 22.6505,5.1016 C26.0415,5.1016 28.8005,7.8586 28.8005,11.2506 C28.8005,13.4616 27.5735,15.5086 25.5995,16.5926 C25.1675,16.8316 24.9005,17.2856 24.9005,17.7756 L24.9005,18.7506 C24.9005,19.4976 25.5045,20.1016 26.2505,20.1016 L51.1505,20.1016 L51.1505,37.5006 C51.1505,38.2476 51.7545,38.8516 52.5005,38.8516 L53.4005,38.8516 C53.8935,38.8516 54.3475,38.5806 54.5855,38.1486 C55.6305,36.2406 57.6415,35.1016 59.9635,35.1016 C63.3745,35.1016 66.1505,37.8586 66.1505,41.2506 C66.1505,44.6406 63.3745,47.3986 59.9635,47.3986 C57.9185,47.3986 55.9165,46.2086 54.7375,44.2936 C54.4925,43.8936 54.0565,43.6486 53.5875,43.6486 L52.5005,43.6486 C51.7545,43.6486 51.1505,44.2526 51.1505,45.0006 L51.1505,58.6486 L28.9705,58.6486 C30.5675,57.0226 31.4975,54.8216 31.4975,52.5006 C31.4975,47.6186 27.5275,43.6486 22.6485,43.6486 C17.7685,43.6486 13.7985,47.6186 13.7985,52.5006 C13.7985,54.8396 14.7085,57.0226 16.3075,58.6486 L5.0995,58.6486 L5.0995,20.1016 Z M67.5005,20.1016 C68.2455,20.1016 68.8495,19.4976 68.8495,18.7506 L68.8495,17.6266 C68.8495,17.1576 68.6065,16.7206 68.2065,16.4756 C66.3825,15.3556 65.2495,13.3516 65.2495,11.2506 C65.2495,7.8586 68.0085,5.1016 71.4005,5.1016 C74.7915,5.1016 77.5505,7.8586 77.5505,11.2506 C77.5505,13.4616 76.3235,15.5086 74.3495,16.5926 C73.9175,16.8316 73.6505,17.2856 73.6505,17.7756 L73.6505,18.7506 C73.6505,19.4976 74.2545,20.1016 75.0005,20.1016 L99.9005,20.1016 L99.9005,34.7566 C98.2965,33.2666 96.1195,32.3986 93.7865,32.3986 C88.8865,32.3986 84.9005,36.3686 84.9005,41.2506 C84.9005,46.1316 88.8865,50.1016 93.7865,50.1016 C96.0205,50.1016 98.2215,49.1376 99.9005,47.5016 L99.9005,58.6486 L53.8495,58.6486 L53.8495,47.4906 C55.5085,49.1346 57.7095,50.1016 59.9635,50.1016 C64.8635,50.1016 68.8495,46.1316 68.8495,41.2506 C68.8495,36.3686 64.8635,32.3986 59.9635,32.3986 C57.6305,32.3986 55.4535,33.2666 53.8495,34.7566 L53.8495,20.1016 L67.5005,20.1016 Z M108.7135,73.6486 C106.3805,73.6486 104.2035,74.5166 102.5995,76.0066 L102.5995,60.0006 L102.5995,45.0006 C102.5995,44.2526 101.9955,43.6486 101.2505,43.6486 L100.2005,43.6486 C99.7375,43.6486 99.3075,43.8866 99.0605,44.2786 C97.8405,46.2056 95.8205,47.3986 93.7865,47.3986 C90.3755,47.3986 87.5995,44.6406 87.5995,41.2506 C87.5995,37.8586 90.3755,35.1016 93.7865,35.1016 C96.1085,35.1016 98.1185,36.2406 99.1645,38.1486 C99.4025,38.5806 99.8565,38.8516 100.3495,38.8516 L101.2505,38.8516 C101.9955,38.8516 102.5995,38.2476 102.5995,37.5006 L102.5995,18.7506 C102.5995,18.0026 101.9955,17.3986 101.2505,17.3986 L77.7135,17.3986 C79.3155,15.7766 80.2495,13.5756 80.2495,11.2506 C80.2495,6.3686 76.2795,2.3986 71.4005,2.3986 C66.5205,2.3986 62.5505,6.3686 62.5505,11.2506 C62.5505,13.5496 63.4845,15.7616 65.0775,17.3986 L52.5005,17.3986 L28.9635,17.3986 C30.5655,15.7766 31.4995,13.5756 31.4995,11.2506 C31.4995,6.3686 27.5295,2.3986 22.6505,2.3986 C17.7705,2.3986 13.8005,6.3686 13.8005,11.2506 C13.8005,13.5496 14.7345,15.7616 16.3275,17.3986 L3.7505,17.3986 C3.0045,17.3986 2.4005,18.0026 2.4005,18.7506 L2.4005,60.0006 L2.4005,101.2506 C2.4005,101.9976 3.0045,102.6016 3.7505,102.6016 L18.7505,102.6016 C19.4955,102.6016 20.0995,101.9976 20.0995,101.2506 L20.0995,100.1286 C20.0995,99.6606 19.8565,99.2246 19.4545,98.9796 C17.6035,97.8436 16.4975,95.8886 16.4975,93.7506 C16.4975,90.3586 19.2565,87.6016 22.6485,87.6016 C26.0395,87.6016 28.7985,90.3586 28.7985,93.7506 C28.7985,95.9656 27.5715,98.0166 25.5965,99.1076 C25.1675,99.3456 24.9005,99.7996 24.9005,100.2906 L24.9005,101.2506 C24.9005,101.9976 25.5045,102.6016 26.2505,102.6016 L52.5005,102.6016 L64.9675,102.6016 C63.4425,104.2276 62.5505,106.3916 62.5505,108.6366 C62.5505,113.5176 66.5205,117.4876 71.4005,117.4876 C76.2795,117.4876 80.2495,113.5176 80.2495,108.6366 C80.2495,106.3626 79.3595,104.2126 77.8255,102.6016 L101.2505,102.6016 C101.9955,102.6016 102.5995,101.9976 102.5995,101.2506 L102.5995,88.7406 C104.2585,90.3846 106.4595,91.3516 108.7135,91.3516 C113.6135,91.3516 117.5995,87.3816 117.5995,82.5006 C117.5995,77.6186 113.6135,73.6486 108.7135,73.6486 Z" id="Fill-2" fill="#000000"></path>
        </g>
        <g id="Group-55-Copy" transform="translate(492.000000, 201.000000)">
            <polygon id="Fill-1" fill="#FFFFFF" points="0 120 120 120 120 0 0 0"></polygon>
            <g id="Group-54" fill="#000000">
                <path d="M67.501875,23.8515 C62.041875,23.8515 57.601875,28.2915 57.601875,33.7515 C57.601875,39.2115 62.041875,43.64775 67.501875,43.64775 C72.961875,43.64775 77.401875,39.2115 77.401875,33.7515 C77.401875,28.2915 72.961875,23.8515 67.501875,23.8515 M67.501875,46.3515 C60.553125,46.3515 54.901875,40.6965 54.901875,33.7515 C54.901875,26.80275 60.553125,21.14775 67.501875,21.14775 C74.450625,21.14775 80.101875,26.80275 80.101875,33.7515 C80.101875,40.6965 74.450625,46.3515 67.501875,46.3515" id="Fill-2"></path>
                <path d="M78.751875,53.8515 C73.291875,53.8515 68.851875,58.2915 68.851875,63.7515 C68.851875,69.2115 73.291875,73.64775 78.751875,73.64775 C84.211875,73.64775 88.651875,69.2115 88.651875,63.7515 C88.651875,58.2915 84.211875,53.8515 78.751875,53.8515 M78.751875,76.3515 C71.803125,76.3515 66.151875,70.6965 66.151875,63.7515 C66.151875,56.80275 71.803125,51.14775 78.751875,51.14775 C85.700625,51.14775 91.351875,56.80275 91.351875,63.7515 C91.351875,70.6965 85.700625,76.3515 78.751875,76.3515" id="Fill-4"></path>
                <path d="M5.626875,11.25 C5.626875,12.28125 4.786875,13.125 3.751875,13.125 C2.716875,13.125 1.876875,12.28125 1.876875,11.25 C1.876875,10.215 2.716875,9.375 3.751875,9.375 C4.786875,9.375 5.626875,10.215 5.626875,11.25" id="Fill-6"></path>
                <path d="M28.126875,18.75 C28.126875,19.785 27.286875,20.625 26.251875,20.625 C25.216875,20.625 24.376875,19.785 24.376875,18.75 C24.376875,17.715 25.216875,16.875 26.251875,16.875 C27.286875,16.875 28.126875,17.715 28.126875,18.75" id="Fill-8"></path>
                <path d="M16.876875,26.25 C16.876875,27.28125 16.036875,28.125 15.001875,28.125 C13.966875,28.125 13.126875,27.28125 13.126875,26.25 C13.126875,25.215 13.966875,24.375 15.001875,24.375 C16.036875,24.375 16.876875,25.215 16.876875,26.25" id="Fill-10"></path>
                <path d="M20.626875,33.75 C20.626875,34.78125 19.786875,35.625 18.751875,35.625 C17.716875,35.625 16.876875,34.78125 16.876875,33.75 C16.876875,32.715 17.716875,31.875 18.751875,31.875 C19.786875,31.875 20.626875,32.715 20.626875,33.75" id="Fill-12"></path>
                <path d="M9.376875,30 C9.376875,31.03125 8.536875,31.875 7.501875,31.875 C6.466875,31.875 5.626875,31.03125 5.626875,30 C5.626875,28.965 6.466875,28.125 7.501875,28.125 C8.536875,28.125 9.376875,28.965 9.376875,30" id="Fill-14"></path>
                <path d="M13.126875,37.5 C13.126875,38.53125 12.286875,39.375 11.251875,39.375 C10.216875,39.375 9.376875,38.53125 9.376875,37.5 C9.376875,36.465 10.216875,35.625 11.251875,35.625 C12.286875,35.625 13.126875,36.465 13.126875,37.5" id="Fill-16"></path>
                <path d="M5.626875,45.1575 C5.626875,46.18875 4.786875,47.0325 3.751875,47.0325 C2.716875,47.0325 1.876875,46.18875 1.876875,45.1575 C1.876875,44.1225 2.716875,43.2825 3.751875,43.2825 C4.786875,43.2825 5.626875,44.1225 5.626875,45.1575" id="Fill-18"></path>
                <path d="M16.876875,52.5 C16.876875,53.535 16.036875,54.375 15.001875,54.375 C13.966875,54.375 13.126875,53.535 13.126875,52.5 C13.126875,51.465 13.966875,50.625 15.001875,50.625 C16.036875,50.625 16.876875,51.465 16.876875,52.5" id="Fill-20"></path>
                <path d="M9.376875,56.25 C9.376875,57.28125 8.536875,58.125 7.501875,58.125 C6.466875,58.125 5.626875,57.28125 5.626875,56.25 C5.626875,55.215 6.466875,54.375 7.501875,54.375 C8.536875,54.375 9.376875,55.215 9.376875,56.25" id="Fill-22"></path>
                <path d="M67.501875,84.8985 C49.603125,84.8985 34.419375,73.05225 29.379375,56.78475 C30.774375,57.306 32.240625,57.60225 33.751875,57.60225 C40.700625,57.60225 46.351875,51.94725 46.351875,44.9985 C46.351875,38.0535 40.700625,32.3985 33.751875,32.3985 C32.236875,32.3985 30.770625,32.69475 29.379375,33.2085 C33.230625,20.7885 42.999375,10.956 55.374375,7.0035 C56.829375,12.42225 61.764375,16.35225 67.501875,16.35225 C73.239375,16.35225 78.174375,12.4185 79.629375,7.0035 C83.521875,8.24475 87.140625,10.08225 90.414375,12.38475 C89.278125,14.31225 88.651875,16.476 88.651875,18.7485 C88.651875,25.69725 94.303125,31.35225 101.251875,31.35225 C102.451875,31.35225 103.610625,31.1235 104.743125,30.7935 C106.434375,35.21475 107.401875,39.9885 107.401875,44.9985 C107.401875,67.0035 89.503125,84.8985 67.501875,84.8985 Z M27.601875,44.9985 C27.601875,42.12975 27.920625,39.336 28.498125,36.636 C30.073125,35.64225 31.873125,35.10225 33.751875,35.10225 C39.211875,35.10225 43.651875,39.5385 43.651875,44.9985 C43.651875,50.4585 39.211875,54.8985 33.751875,54.8985 C31.876875,54.8985 30.076875,54.351 28.498125,53.36475 C27.920625,50.661 27.601875,47.871 27.601875,44.9985 Z M77.034375,6.2985 C75.890625,10.56225 72.013125,13.6485 67.501875,13.6485 C62.986875,13.6485 59.109375,10.5585 57.969375,6.2985 C61.033125,5.54475 64.213125,5.10225 67.501875,5.10225 C70.790625,5.10225 73.970625,5.54475 77.034375,6.2985 Z M103.693125,28.30725 C102.898125,28.50975 102.088125,28.6485 101.251875,28.6485 C95.791875,28.6485 91.351875,24.2085 91.351875,18.7485 C91.351875,17.06475 91.779375,15.45225 92.574375,14.00475 C97.299375,17.8335 101.109375,22.72725 103.693125,28.30725 Z M117.204375,92.79225 L98.518125,74.10975 C105.680625,66.48225 110.101875,56.256 110.101875,44.9985 C110.101875,39.34725 108.969375,33.95475 106.959375,29.01225 C106.951875,28.8735 106.933125,28.72725 106.873125,28.58475 C106.831875,28.491 106.760625,28.416 106.700625,28.33725 C103.764375,21.456 99.043125,15.53475 93.151875,11.0685 C93.110625,11.0235 93.114375,10.956 93.061875,10.91475 C92.968125,10.8435 92.855625,10.80975 92.750625,10.76475 C88.734375,7.79475 84.193125,5.50725 79.273125,4.08975 C79.138125,4.0185 78.991875,3.9585 78.830625,3.936 C78.785625,3.92475 78.744375,3.9435 78.695625,3.93975 C75.121875,2.96475 71.383125,2.3985 67.501875,2.3985 C63.624375,2.3985 59.881875,2.96475 56.308125,3.93975 C56.259375,3.9435 56.221875,3.92475 56.173125,3.936 C56.011875,3.9585 55.865625,4.0185 55.730625,4.08975 C41.034375,8.32725 29.604375,20.2635 26.075625,35.24475 C26.008125,35.391 25.966875,35.54475 25.955625,35.706 C25.284375,38.70225 24.901875,41.80725 24.901875,44.9985 C24.901875,48.2535 25.303125,51.40725 25.996875,54.45225 C26.000625,54.471 26.004375,54.486 26.008125,54.5085 C26.308125,55.80225 26.656875,57.07725 27.069375,58.32975 C26.818125,58.206 26.548125,58.1235 26.251875,58.1235 C25.216875,58.1235 24.376875,58.9635 24.376875,59.9985 C24.376875,61.0335 25.216875,61.8735 26.251875,61.8735 C27.016875,61.8735 27.665625,61.41225 27.961875,60.75975 C34.239375,76.461 49.580625,87.60225 67.501875,87.60225 C78.759375,87.60225 88.985625,83.17725 96.609375,76.0185 L115.295625,94.70475 L117.204375,92.79225 Z" id="Fill-24"></path>
                <path d="M16.876875,63.75 C16.876875,64.78125 16.036875,65.625 15.001875,65.625 C13.966875,65.625 13.126875,64.78125 13.126875,63.75 C13.126875,62.715 13.966875,61.875 15.001875,61.875 C16.036875,61.875 16.876875,62.715 16.876875,63.75" id="Fill-26"></path>
                <path d="M35.626875,78.75 C35.626875,79.78125 34.786875,80.625 33.751875,80.625 C32.716875,80.625 31.876875,79.78125 31.876875,78.75 C31.876875,77.715 32.716875,76.875 33.751875,76.875 C34.786875,76.875 35.626875,77.715 35.626875,78.75" id="Fill-28"></path>
                <path d="M46.876875,86.25 C46.876875,87.28125 46.036875,88.125 45.001875,88.125 C43.966875,88.125 43.126875,87.28125 43.126875,86.25 C43.126875,85.215 43.966875,84.375 45.001875,84.375 C46.036875,84.375 46.876875,85.215 46.876875,86.25" id="Fill-30"></path>
                <path d="M24.376875,82.5 C24.376875,83.53125 23.536875,84.375 22.501875,84.375 C21.466875,84.375 20.626875,83.53125 20.626875,82.5 C20.626875,81.465 21.466875,80.625 22.501875,80.625 C23.536875,80.625 24.376875,81.465 24.376875,82.5" id="Fill-32"></path>
                <path d="M16.876875,86.184 C16.876875,87.21525 16.036875,88.059 15.001875,88.059 C13.966875,88.059 13.126875,87.21525 13.126875,86.184 C13.126875,85.149 13.966875,84.309 15.001875,84.309 C16.036875,84.309 16.876875,85.149 16.876875,86.184" id="Fill-34"></path>
                <path d="M9.376875,90 C9.376875,91.035 8.536875,91.875 7.501875,91.875 C6.466875,91.875 5.626875,91.035 5.626875,90 C5.626875,88.965 6.466875,88.125 7.501875,88.125 C8.536875,88.125 9.376875,88.965 9.376875,90" id="Fill-36"></path>
                <path d="M20.62125,97.5 C20.62125,98.53125 19.78125,99.375 18.74625,99.375 C17.71125,99.375 16.87125,98.53125 16.87125,97.5 C16.87125,96.465 17.71125,95.625 18.74625,95.625 C19.78125,95.625 20.62125,96.465 20.62125,97.5" id="Fill-38"></path>
                <path d="M16.876875,105 C16.876875,106.03125 16.036875,106.875 15.001875,106.875 C13.966875,106.875 13.126875,106.03125 13.126875,105 C13.126875,103.965 13.966875,103.125 15.001875,103.125 C16.036875,103.125 16.876875,103.965 16.876875,105" id="Fill-40"></path>
                <path d="M31.876875,93.735375 C31.876875,94.770375 31.036875,95.610375 30.001875,95.610375 C28.966875,95.610375 28.126875,94.770375 28.126875,93.735375 C28.126875,92.700375 28.966875,91.860375 30.001875,91.860375 C31.036875,91.860375 31.876875,92.700375 31.876875,93.735375" id="Fill-42"></path>
                <path d="M43.126875,101.25 C43.126875,102.285 42.286875,103.125 41.251875,103.125 C40.216875,103.125 39.376875,102.285 39.376875,101.25 C39.376875,100.215 40.216875,99.375 41.251875,99.375 C42.286875,99.375 43.126875,100.215 43.126875,101.25" id="Fill-44"></path>
                <path d="M80.626875,93.75 C80.626875,94.785 79.786875,95.625 78.751875,95.625 C77.716875,95.625 76.876875,94.785 76.876875,93.75 C76.876875,92.715 77.716875,91.875 78.751875,91.875 C79.786875,91.875 80.626875,92.715 80.626875,93.75" id="Fill-46"></path>
                <path d="M54.376875,116.25 C54.376875,117.28125 53.536875,118.125 52.501875,118.125 C51.466875,118.125 50.626875,117.28125 50.626875,116.25 C50.626875,115.215 51.466875,114.375 52.501875,114.375 C53.536875,114.375 54.376875,115.215 54.376875,116.25" id="Fill-48"></path>
                <path d="M20.626875,5.625 C20.626875,6.66 19.786875,7.5 18.751875,7.5 C17.716875,7.5 16.876875,6.66 16.876875,5.625 C16.876875,4.59 17.716875,3.75 18.751875,3.75 C19.786875,3.75 20.626875,4.59 20.626875,5.625" id="Fill-50"></path>
                <path d="M35.626875,7.533 C35.626875,8.568 34.786875,9.408 33.751875,9.408 C32.716875,9.408 31.876875,8.568 31.876875,7.533 C31.876875,6.498 32.716875,5.658 33.751875,5.658 C34.786875,5.658 35.626875,6.498 35.626875,7.533" id="Fill-52"></path>
            </g>
        </g>
        <g id="Group-7-Copy-3" transform="translate(676.000000, 201.000000)">
            <polygon id="Fill-1" fill="#FFFFFF" points="0 120 120 120 120 0 0 0"></polygon>
            <g id="Group-6" fill="#000000">
                <path d="M57.3705,21.1485 L81.3255,21.1485 C81.20925,20.36475 81.14925,19.566 81.14925,18.7485 C81.14925,17.93475 81.20925,17.136 81.3255,16.35225 L57.3705,16.35225 C57.5205,17.1285 57.59925,17.931 57.59925,18.7485 C57.59925,19.56975 57.5205,20.37225 57.3705,21.1485 Z M44.99925,8.85225 C39.543,8.85225 35.09925,13.2885 35.09925,18.7485 C35.09925,24.2085 39.543,28.6485 44.99925,28.6485 C50.45925,28.6485 54.89925,24.2085 54.89925,18.7485 C54.89925,13.2885 50.45925,8.85225 44.99925,8.85225 Z M97.49925,5.10225 C89.973,5.10225 83.84925,11.226 83.84925,18.7485 C83.84925,26.27475 89.973,32.3985 97.49925,32.3985 C105.0255,32.3985 111.14925,26.27475 111.14925,18.7485 C111.14925,11.226 105.0255,5.10225 97.49925,5.10225 Z M29.91675,37.96725 C30.63675,38.22975 31.34175,38.5635 32.02425,38.97225 C32.8005,39.441 33.50925,39.9885 34.14675,40.6035 L40.07175,30.3435 C38.51175,29.67975 37.11675,28.71225 35.95425,27.51225 L29.91675,37.96725 Z M73.728,47.406 C75.7155,47.406 77.70675,47.9235 79.4805,48.951 C81.19425,49.94475 82.61925,51.3735 83.613,53.091 L83.8905,53.571 L94.69425,34.8585 C90.543,34.1385 86.92425,31.84725 84.4755,28.62225 L73.62675,47.406 L73.728,47.406 Z M12.723,53.166 L28.78425,62.43975 L33.738,53.92725 C35.013,51.816 35.38425,49.34475 34.79175,46.95225 C34.19925,44.55975 32.72175,42.546 30.62925,41.286 C26.2905,38.65725 20.62425,40.0635 18.003,44.406 L12.723,53.166 Z M76.61925,81.1485 L96.66675,81.1485 L81.273,54.43725 C80.51925,53.13225 79.43175,52.041 78.12675,51.28725 C75.4305,49.71975 72.08925,49.70475 69.408,51.24975 C68.103,52.00725 67.008,53.10225 66.23925,54.42975 C64.73175,57.02475 64.72425,60.516 66.22425,63.11475 L76.61925,81.1485 Z M61.34925,99.8985 L107.39925,99.8985 L107.39925,83.85225 L61.34925,83.85225 L61.34925,99.8985 Z M6.07425,114.8985 L114.89925,114.8985 L114.89925,102.60225 L13.173,102.60225 L6.07425,114.8985 Z M116.24925,117.60225 L3.74925,117.60225 C3.003,117.60225 2.39925,116.9985 2.39925,116.2485 C2.39925,116.01225 2.463,115.75725 2.57925,115.551 L11.223,100.57725 C11.46675,100.15725 11.913,99.8985 12.393,99.8985 L58.64925,99.8985 L58.64925,82.4985 C58.64925,81.75225 59.253,81.1485 59.99925,81.1485 L73.503,81.1485 L63.88425,64.46475 C61.88925,61.0035 61.9005,56.5335 63.903,53.076 C64.908,51.33975 66.348,49.89975 68.06175,48.9135 C68.74425,48.5235 69.45675,48.20475 70.188,47.96475 L82.8555,26.0235 C82.5105,25.32225 82.2105,24.5985 81.963,23.85225 L56.51925,23.85225 C54.558,28.26225 50.133,31.35225 44.99925,31.35225 C44.223,31.35225 43.4655,31.27725 42.72675,31.146 L35.9655,42.85725 C36.61425,43.90725 37.1055,45.066 37.413,46.3035 C38.178,49.39725 37.698,52.59225 36.05925,55.3035 L30.44175,64.95975 C30.0705,65.601 29.2455,65.82975 28.6005,65.44725 L20.61675,60.8385 L17.583,66.09225 C18.90675,67.176 19.878,68.631 20.37675,70.31475 C21.03675,72.53475 20.79675,74.86725 19.70175,76.8885 L17.748,80.4885 C17.57175,80.721 17.2155,81.066 16.938,81.14475 L11.073,82.881 L10.308,80.2935 L15.65175,78.711 L17.328,75.60225 C18.078,74.21475 18.243,72.6135 17.78925,71.0835 C17.3355,69.561 16.323,68.30475 14.93925,67.55475 C13.55175,66.80475 11.9505,66.63975 10.4205,67.08975 C8.89425,67.5435 7.64175,68.55975 6.89175,69.94725 L5.20425,73.056 L6.77925,78.37725 L4.19175,79.146 L2.4555,73.28475 C2.35425,72.9435 2.39175,72.57225 2.56425,72.25725 L4.518,68.65725 C5.613,66.63975 7.4355,65.1585 9.65175,64.506 C11.523,63.9435 13.47675,64.02975 15.25425,64.731 L18.27675,59.49225 L10.18425,54.816 C9.86925,54.636 9.6405,54.336 9.5505,53.9835 C9.4605,53.631 9.513,53.25975 9.70425,52.9485 L15.693,43.011 C18.15675,38.9235 22.73175,36.84975 27.16425,37.3335 L34.173,25.191 C33.048,23.30475 32.39925,21.09975 32.39925,18.7485 C32.39925,11.8035 38.05425,6.1485 44.99925,6.1485 C50.133,6.1485 54.558,9.23475 56.51925,13.6485 L81.963,13.6485 C84.11175,7.1235 90.2655,2.3985 97.49925,2.3985 C106.51425,2.3985 113.84925,9.7335 113.84925,18.7485 C113.84925,27.70725 106.608,35.00475 97.67175,35.0985 L85.44675,56.27475 L99.78675,81.1485 L108.74925,81.1485 C109.4955,81.1485 110.09925,81.75225 110.09925,82.4985 L110.09925,99.8985 L116.24925,99.8985 C116.9955,99.8985 117.59925,100.50225 117.59925,101.2485 L117.59925,116.2485 C117.59925,116.9985 116.9955,117.60225 116.24925,117.60225 Z" id="Fill-2"></path>
                <path d="M73.125,58.125 C72.09,58.125 71.25,58.965 71.25,60 C71.25,61.035 72.09,61.875 73.125,61.875 C74.16,61.875 75,61.035 75,60 C75,58.965 74.16,58.125 73.125,58.125 M97.5,16.875 C96.465,16.875 95.625,17.715 95.625,18.75 C95.625,19.785 96.465,20.625 97.5,20.625 C98.535,20.625 99.375,19.785 99.375,18.75 C99.375,17.715 98.535,16.875 97.5,16.875 M46.875,18.75 C46.875,19.785 46.035,20.625 45,20.625 C43.965,20.625 43.125,19.785 43.125,18.75 C43.125,17.715 43.965,16.875 45,16.875 C46.035,16.875 46.875,17.715 46.875,18.75" id="Fill-4"></path>
            </g>
        </g>
    </g>
</svg>