<svg version="1.1" id="Layer_1" xmlns="http://www.w3.org/2000/svg" x="0" y="0" viewBox="0 0 288 542" xml:space="preserve"><style>.st0{fill:#171717}.st1{fill:none}</style><g id="Artboard-Copy-53"><path id="Rectangle-3-Copy-80" class="st0" d="M0 0h288v288H0z"/><g id="Group-4-Copy-29" transform="translate(44 42)"><path id="Fill-1" class="st1" d="M0 79h79V0H0z"/><linearGradient id="Fill-2_8_" gradientUnits="userSpaceOnUse" x1="-1150.34" y1="157.357" x2="-1149.34" y2="156.316" gradientTransform="matrix(79 0 0 75.84 90880 -11852.098)"><stop offset="0" stop-color="#fb4b53"/><stop offset="1" stop-color="#ffa0c2"/></linearGradient><path id="Fill-2" d="M5.8 75.6h22.9V70H5.8v5.6zM3.4 64.1l2.1 4.1h23.6l2-4-2.4-6.5H5.8l-2.4 6.4zm37 11.5h32.8V74c0-5-4-9-9-9H49.4c-5 0-9 4-9 9v1.6zm7.1-12.1c.6-.1 1.2-.2 1.9-.2h14.8c.6 0 1.3.1 1.9.2l2.1-6.6L58.5 40c-.2-.3-.2-.7 0-1s.5-.4.9-.4L73.6 41l1.9-3.7-14-11.7h-4.6c-.5 0-.9-.4-.9-.9v-5.5L50.2 24c-2.7 2.7-4.5 5.8-4.8 12.1h4v1.8h-4v5.6h4.1v1.8h-4.1V51h4.1v1.8h-4.1v3.9l2.1 6.8zM79 75.6v1.8H0v-1.8h4v-6.3l-2.4-4.7c-.1-.2-.1-.5 0-.7l2.3-6.2H2.5v-1.8h2.1L9 44V32.1h1.8v12.1c0 .1 0 .2-.1.3L6.5 55.9h21.6l-4.2-11.4c0-.1-.1-.2-.1-.3V32.1h1.8V44L30 55.9h2.1v1.8h-1.5l2.3 6.3c.1.2.1.5 0 .7l-2.4 4.7v6.3h8.1v-1.6c0-4.7 3-8.6 7.2-10.1l-2.2-6.9V38.2c0-8.3 2.1-12.1 5.4-15.4l7.2-6.1c.3-.2.6-.3.9-.1.3.1.5.5.5.8v6.5h4.1c.2 0 .4.1.6.2l14.8 12.3c.3.3.4.7.2 1.1l-2.5 4.9c-.2.3-.6.5-.9.5l-13-2.2 8.9 15.6c.2.2.2.5.2.7l-2.2 6.9C72 65.4 75 69.3 75 74v1.6h4zM13.2 6.5h8.1V3.4h-8.1v3.1zm14.7 6.2l-2.4 4.7v4.7h-1.8v-4.9c0-.1 0-.3.1-.4l2.3-4.5-2-4H10.4l-2 4 2.3 4.5c.1.1.1.3.1.4v4.9H9v-4.7l-2.4-4.7c-.1-.2-.1-.5 0-.8L9.1 7c.1-.3.5-.5.8-.5h1.6v-4c0-.5.4-.9.9-.9h9.9c.5 0 .9.4.9.9v4h1.6c.3 0 .6.2.8.5l2.5 4.9c0 .3 0 .6-.2.8zm-15.6.5h9.9v-1.8h-9.9v1.8zM7.3 28h19.9v-1.8H7.3V28z" fill="url(#Fill-2_8_)"/></g><g id="Group-4-Copy-30" transform="translate(165 42)"><path id="Fill-1_1_" class="st1" d="M0 79h79V0H0z"/><linearGradient id="Fill-2_9_" gradientUnits="userSpaceOnUse" x1="-1391.844" y1="158.006" x2="-1390.815" y2="156.828" gradientTransform="matrix(75.84 0 0 66.1205 105556.617 -10369.862)"><stop offset="0" stop-color="#ee538b"/><stop offset="1" stop-color="#408bfc"/></linearGradient><path id="Fill-2_1_" d="M19.1 26.9c.3.2.6.2.8 0 .3-.1.4-.4.5-.7.9-9.9 9.4-18 18.8-18 7.6 0 14.7 5 17.6 12.5.2.4.7.7 1.1.5 1.2-.4 3.1-.7 4.7-.7 7.1 0 12.9 5.8 12.9 12.9 0 6.9-5.7 12.4-12.9 12.5H13.9c-6.1-.1-10.6-4.2-10.6-9.8 0-5.9 4.7-10.6 10.5-10.6 1.9 0 3.7.5 5.3 1.4zm43.7 20.8c8.2-.1 14.6-6.4 14.6-14.3 0-8.1-6.6-14.6-14.6-14.6-1.2 0-3 .2-4.5.6-3.4-7.7-10.9-12.9-19-12.9-9.9 0-18.9 8.1-20.5 18.3-1.6-.7-3.3-1-5-1-6.8 0-12.3 5.6-12.3 12.4 0 6.6 5.2 11.5 12.3 11.6h49v-.1zM48.9 72.1l8.6-15c.2-.4.1-1-.3-1.2-.4-.3-1-.1-1.2.3l-8.6 15c-.2.4-.1 1 .3 1.2.1.1.3.1.4.1.3.1.6-.1.8-.4zm-8.6-6.4l4.9-8.6c.2-.4.1-1-.3-1.2-.4-.3-1-.1-1.2.3l-4.9 8.5c-.2.4-.1 1 .3 1.2.1.1.3.1.4.1.3.1.6 0 .8-.3zm-16.1 6.4l8.6-15c.2-.4.1-1-.3-1.2-.4-.3-1-.1-1.2.3l-8.6 15c-.2.4-.1 1 .3 1.2.1.1.3.1.4.1.4.1.7-.1.8-.4zm-9.4-6c-.2 0-.3 0-.4-.1-.4-.2-.6-.8-.3-1.2l4.9-8.5c.2-.4.8-.6 1.2-.3.4.2.6.8.3 1.2l-4.9 8.6c-.2.2-.5.3-.8.3z" fill="url(#Fill-2_9_)"/></g><g id="Group-4-Copy-42" transform="translate(164 168)"><path id="Fill-1_2_" class="st1" d="M0 79h79V0H0z"/><linearGradient id="Fill-2_10_" gradientUnits="userSpaceOnUse" x1="-1389.85" y1="157.311" x2="-1388.808" y2="156.269" gradientTransform="matrix(75.8746 0 0 75.8375 105453.477 -11851.707)"><stop offset="0" stop-color="#007d79"/><stop offset="1" stop-color="#3dbb61"/></linearGradient><path id="Fill-2_2_" d="M71.6 75.6c-2.2 0-4-1.8-4-4s1.8-4 4-4 4 1.8 4 4c.1 2.2-1.8 4-4 4zm-15.7-4c0 2.2-1.8 4-4 4s-4-1.8-4-4 1.8-4 4-4 4 1.8 4 4zm-8.1-28.1h27.8v-8.1H47.8v8.1zm-44.5 0h27.8v-8.1H3.3v8.1zm27.9 28.1c0 2.2-1.8 4-4 4s-4-1.8-4-4 1.8-4 4-4 4 1.8 4 4zm-19.7 0c0 2.2-1.8 4-4 4s-4-1.8-4-4 1.8-4 4-4 4 1.8 4 4zM3.4 11.5h72.3V3.4H3.4v8.1zm69.1 54.4v-9.1c0-.5-.4-.9-.9-.9h-9V45.3h13.9c.5 0 .9-.4.9-.9v-9.9c0-.5-.4-.9-.9-.9H62.6V22.2c0-.5-.4-.9-.9-.9H40.4v-8.1h36.1c.5 0 .9-.4.9-.9V2.5c0-.5-.4-.9-.9-.9h-74c-.5 0-.9.4-.9.9v9.9c0 .5.4.9.9.9h36.1v8.1H17.3c-.5 0-.9.4-.9.9v11.5H2.5c-.5 0-.9.4-.9.9v9.9c0 .5.4.9.9.9h13.9v10.6h-9c-.5 0-.9.4-.9.9v9.1c-2.8.4-4.9 2.8-4.9 5.7 0 3.2 2.6 5.8 5.8 5.8s5.8-2.6 5.8-5.8c0-2.9-2.2-5.3-5-5.7v-8.2h18v8.2c-2.8.4-4.9 2.8-4.9 5.7 0 3.2 2.6 5.8 5.8 5.8s5.8-2.6 5.8-5.8c0-2.9-2.2-5.3-5-5.7V57c0-.5-.4-.9-.9-.9h-9V45.3h13.9c.5 0 .9-.4.9-.9v-9.9c0-.5-.4-.9-.9-.9H18.2V23.1h42.7v10.6h-14c-.5 0-.9.4-.9.9v9.9c0 .5.4.9.9.9h13.9V56h-9c-.5 0-.9.4-.9.9V66c-2.8.4-4.9 2.8-4.9 5.7 0 3.2 2.6 5.8 5.8 5.8s5.8-2.6 5.8-5.8c0-2.9-2.2-5.3-5-5.7v-8.2h18V66c-2.8.4-4.9 2.8-4.9 5.7 0 3.2 2.6 5.8 5.8 5.8 3.2 0 5.8-2.6 5.8-5.8.1-3-2-5.4-4.8-5.8z" fill="url(#Fill-2_10_)"/></g><g id="Group-4-Copy-44" transform="translate(44 168)"><path id="Fill-1_3_" class="st1" d="M0 79h79V0H0z"/><linearGradient id="Fill-2_11_" gradientUnits="userSpaceOnUse" x1="-1147.754" y1="156.276" x2="-1148.872" y2="157.318" gradientTransform="matrix(70.8531 0 0 75.8425 81401.094 -11852.493)"><stop offset="0" stop-color="#007d79"/><stop offset="1" stop-color="#1191e6"/></linearGradient><path id="Fill-2_3_" d="M35.1 18.7h8.8l4.4-7.7-4.4-7.7h-8.8L30.7 11l4.4 7.7zm-7.2 14.1l-1.5-.8 7.1-12.4-4.7-8.1c-.2-.3-.2-.6 0-.9l5-8.6c.2-.3.5-.4.8-.4h9.9c.3 0 .6.2.8.4l4.9 8.6c.2.3.2.6 0 .9l-5 8.5c-.2.3-.5.4-.8.4H35l-7.1 12.4zm31.8.1h8.8l4.4-7.7-4.4-7.7h-8.8l-4.4 7.7 4.4 7.7zm9.4 1.8h-9.9c-.3 0-.6-.2-.8-.4l-4.7-8.1H39.5v-1.8h14.3l4.7-8.1c.2-.3.5-.4.8-.4h9.9c.3 0 .6.2.8.4l4.9 8.6c.2.3.2.6 0 .9L70 34.4c-.3.1-.6.3-.9.3zm-58.7-1.8h8.8l4.4-7.7-4.4-7.7h-8.8L6 25.3l4.4 7.6zm16 14.2l-7.1-12.4H9.9c-.3 0-.6-.2-.8-.4l-4.9-8.6c-.2-.3-.2-.6 0-.9l4.9-8.6c.2-.3.5-.4.8-.4h9.9c.3 0 .6.2.8.4l4.9 8.6c.2.3.2.6 0 .9l-4.7 8.1L28 46.2l-1.6.9zm-16 14.3h8.8l4.4-7.7-4.4-7.7h-8.8L6 53.7l4.4 7.7zm9.4 1.8H9.9c-.3 0-.6-.2-.8-.4l-4.9-8.6c-.2-.3-.2-.6 0-.9l4.9-8.6c.2-.3.5-.4.8-.4h9.9c.3 0 .6.2.8.4l4.7 8.1h14.3v1.8H25.2l-4.7 8.1c-.1.3-.4.5-.7.5zm39.9-1.8h8.8l4.4-7.7-4.4-7.7h-8.8l-4.4 7.7 4.4 7.7zm9.4 1.8h-9.9c-.3 0-.6-.2-.8-.4l-4.9-8.6c-.2-.3-.2-.6 0-.9l4.7-8.1L51 32.8l1.5-.9 7.1 12.4H69c.3 0 .6.2.8.4l4.9 8.6c.2.3.2.6 0 .9l-4.9 8.6c-.1.2-.4.4-.7.4zm-34 12.4h8.8l4.4-7.7-4.4-7.7h-8.8L30.7 68l4.4 7.6zm9.3 1.8h-9.9c-.3 0-.6-.2-.8-.4l-4.9-8.6c-.2-.3-.2-.6 0-.9l4.9-8.6c.2-.3.5-.4.8-.4h9.4L51 46.1l1.5.9-7.1 12.4 4.7 8.1c.2.3.2.6 0 .9L45.2 77c-.2.3-.4.4-.8.4z" fill="url(#Fill-2_11_)"/></g></g><g id="Artboard-Copy-54"><path id="Rectangle-3-Copy-80_1_" class="st0" d="M0 254h288v288H0z"/><g id="Group-4-Copy-34" transform="translate(45 41)"><path id="Fill-1_7_" class="st1" d="M0 333h79v-79H0z"/><linearGradient id="Fill-2_12_" gradientUnits="userSpaceOnUse" x1="-1151.476" y1="161.361" x2="-1150.428" y2="160.252" gradientTransform="matrix(74.0625 0 0 70.0137 85283.344 -10964.012)"><stop offset="0" stop-color="#0062ff"/><stop offset="1" stop-color="#bb8eff"/></linearGradient><path id="Fill-2_7_" d="M70.7 328.1h1.8v-4.9h-1.8v4.9zm-9.9 0h1.8v-4.9h-1.8v4.9zm9.9-19.8h1.8v-4.9h-1.8v4.9zm-9.9 0h1.8v-4.9h-1.8v4.9zm-22.2 19.8h1.8v-4.9h-1.8v4.9zm-9.9 0h1.8v-4.9h-1.8v4.9zm0-34.6h1.8v-4.9h-1.8v4.9zm-9.8 0h1.8v-4.9h-1.8v4.9zm-9.9 0h1.8v-4.9H9v4.9zm19.7-12.3h1.8v-4.9h-1.8v4.9zm-9.8 0h1.8v-4.9h-1.8v4.9zm-9.9 0h1.8v-4.9H9v4.9zm53.6 6.5h8.1v-8.1h-8.1v8.1zm-2.5-23.4l6.5-4.3 6.5 4.3v13.4h-13v-13.4zm12.4 23.4v-8.1h1.6c.5 0 .9-.4.9-.9v-14.8c0-.3-.1-.6-.4-.7l-7.4-4.9c-.3-.2-.7-.2-1 0l-7.4 4.9c-.2.2-.4.4-.4.7v14.8c0 .5.4.9.9.9h1.6v8.1h-6.5c-.5 0-.9.4-.9.9v18.9h-13v-38.6c0-.5-.4-.9-.9-.9h-37v1.8h36.1v37.7H19.8c-.5 0-.9.4-.9.9v19.8h1.8v-18.9h32.8v18.9h1.8v-38.6h21.3v-1.8l-4.1-.1z" fill="url(#Fill-2_12_)"/></g><g id="Group-4-Copy-42_1_" transform="translate(166 42)"><path id="Fill-1_6_" class="st1" d="M0 333h79v-79H0z"/><linearGradient id="Fill-2_13_" gradientUnits="userSpaceOnUse" x1="-1393.831" y1="160.667" x2="-1392.795" y2="159.629" gradientTransform="translate(105708.297 -11852.094) scale(75.84)"><stop offset="0" stop-color="#0062ff"/><stop offset="1" stop-color="#009c98"/></linearGradient><path id="Fill-2_6_" d="M27.3 277.2c-1 0-2.1.4-2.9 1.2-1.6 1.6-1.6 4.1 0 5.7l8.7 8.7c.3.3.3.9 0 1.3l-8.7 8.7c-1.6 1.6-1.6 4.1 0 5.7s4.1 1.6 5.7 0l8.7-8.7c.3-.3.9-.3 1.3 0l8.7 8.7c1.6 1.6 4.1 1.6 5.7 0 1.6-1.6 1.6-4.1 0-5.7l-8.7-8.7c-.3-.3-.3-.9 0-1.3l8.7-8.7c1.6-1.6 1.6-4.1 0-5.7s-4.1-1.6-5.7 0l-8.7 8.7c-.3.3-.9.3-1.3 0l-8.7-8.7c-.7-.8-1.8-1.2-2.8-1.2m0 34.3c-1.5 0-3-.6-4.1-1.7-2.3-2.3-2.3-6 0-8.2l8.1-8.1-8.1-8.1c-2.3-2.3-2.3-6 0-8.2 2.3-2.3 6-2.3 8.2 0l8.1 8.1 8.1-8.1c2.3-2.3 6-2.3 8.2 0 2.3 2.3 2.3 6 0 8.2l-8.1 8.1 8.1 8.1c2.3 2.3 2.3 6 0 8.2-2.3 2.3-6 2.3-8.2 0l-8.1-8.1-8.1 8.1c-1.1 1.2-2.6 1.7-4.1 1.7m12.2-54.1c-19.9 0-36.1 16.2-36.1 36.1s16.2 36.1 36.1 36.1 36.1-16.2 36.1-36.1-16.2-36.1-36.1-36.1m0 74c-20.9 0-37.9-17-37.9-37.9s17-37.9 37.9-37.9 37.9 17 37.9 37.9-17 37.9-37.9 37.9" fill="url(#Fill-2_13_)"/></g><g id="Group-4-Copy-44_1_" transform="translate(45 168)"><path id="Fill-1_5_" class="st1" d="M0 333h79v-79H0z"/><linearGradient id="Fill-2_14_" gradientUnits="userSpaceOnUse" x1="-1149.792" y1="160.662" x2="-1148.605" y2="159.633" gradientTransform="matrix(65.965 0 0 75.9289 75845.703 -11865.665)"><stop offset="0" stop-color="#fb4b53"/><stop offset="1" stop-color="#ffa0c2"/></linearGradient><path id="Fill-2_5_" d="M72.5 293.5c0-15.4-10.4-28.6-25.4-32.1l-.4 1.7c14.1 3.3 24 15.8 24 30.4 0 16.4-12.8 29.9-28.9 31.1l3.6-3.6-1.3-1.3-5.9 5.9 5.9 5.9 1.3-1.3-3.8-3.8c17.2-1.1 30.9-15.4 30.9-32.9zm-37.6-38l-1.3 1.3 3.8 3.8C20.2 261.7 6.5 276 6.5 293.5c0 15.4 10.4 28.6 25.4 32.1l.4-1.7c-14.1-3.3-24-15.8-24-30.4 0-16.4 12.8-29.9 28.9-31.1l-3.6 3.6 1.3 1.3 5.9-5.9-5.9-5.9zm22.8 41.1v9.3h-1.8v-9.3c0-4.2-2.8-7.8-6.9-8.7-.4-.1-.6-.4-.7-.8 0-.4.2-.7.5-.9 1.7-.8 2.8-2.5 2.8-4.3 0-2.6-2.1-4.7-4.7-4.7s-4.7 2.1-4.7 4.7c0 .6.1 1.1.3 1.6 2.1 1.1 3.5 3.2 3.5 5.8 0 1.9-.8 3.7-2.2 4.9 3.9 1.7 6.4 5.5 6.4 9.9v9.3h-1.8V304c0-4.2-2.8-7.8-6.9-8.7-.4-.1-.6-.4-.7-.8 0-.4.2-.7.5-.9 1.7-.8 2.8-2.5 2.8-4.3 0-2.6-2.1-4.7-4.7-4.7s-4.7 2.1-4.7 4.7c0 1.9 1.1 3.6 2.8 4.3.3.2.6.5.5.9 0 .4-.3.7-.7.8-4.1 1-6.9 4.6-6.9 8.7v9.3h-1.8V304c0-4.4 2.6-8.2 6.5-9.9-1.4-1.2-2.2-3-2.2-4.9 0-2.5 1.4-4.7 3.5-5.8.2-.5.3-1.1.3-1.6 0-2.6-2.1-4.7-4.7-4.7s-4.7 2.1-4.7 4.7c0 1.9 1.1 3.6 2.8 4.3.3.2.6.5.5.9 0 .4-.3.7-.7.8-4.1 1-6.9 4.6-6.9 8.7v9.3h-1.8v-9.3c0-4.4 2.6-8.2 6.4-9.9-1.4-1.2-2.2-3-2.2-4.9 0-3.6 2.9-6.5 6.5-6.5s6.5 2.9 6.5 6.5c0 .3-.1.7-.1 1 .3-.1.6-.1 1-.1.3 0 .7 0 1 .1 0-.3-.1-.7-.1-1 0-3.6 2.9-6.5 6.5-6.5s6.5 2.9 6.5 6.5c0 1.9-.8 3.7-2.2 4.9 4.1 1.8 6.7 5.6 6.7 10z" fill="url(#Fill-2_14_)"/></g><g id="Group-4-Copy-45" transform="translate(166 168)"><path id="Fill-1_4_" class="st1" d="M0 333h79v-79H0z"/><linearGradient id="Fill-2_15_" gradientUnits="userSpaceOnUse" x1="-1391.838" y1="160.089" x2="-1392.947" y2="161.196" gradientTransform="matrix(71.2234 0 0 71.2284 99210.46 -11148.842)"><stop offset="0" stop-color="#408bfc"/><stop offset="1" stop-color="#ee538b"/></linearGradient><path id="Fill-2_4_" d="M69.1 327H40.5v-20.1h10.9l9.6 9.6c.2.2.5.3.7.3H73v6.4c0 2.1-1.7 3.8-3.9 3.8zM6 323.1v-6.4h11.3c.3 0 .5-.1.7-.3l9.6-9.6h10.9V327H9.9c-2.2 0-3.9-1.7-3.9-3.9zm0-30.7v-20.1h10.9l9.3 9.3v10.9L6 292.4zm20.1 2.2v10.9l-9.3 9.3H6v-20.1l20.1-.1zM9.9 260h28.6v20.1H27.6l-9.6-9.6c-.2-.2-.5-.3-.7-.3H6v-6.4c0-2.1 1.7-3.8 3.9-3.8zm18.3 44.8h22.6v-22.6H28.2v22.6zm24.7-12.4v-10.9l9.3-9.3H73v20.1l-20.1.1zm0 2.2H73v20.1H62.2l-9.3-9.3v-10.8zM73 263.9v6.4H61.7c-.3 0-.5.1-.7.3l-9.6 9.6H40.5V260h28.6c2.2 0 3.9 1.7 3.9 3.9zm-3.9-6H9.9c-3.3 0-6 2.7-6 6v59.2c0 3.3 2.7 6 6 6h59.2c3.3 0 6-2.7 6-6v-59.2c0-3.3-2.7-6-6-6z" fill="url(#Fill-2_15_)"/></g></g></svg>