<?xml version="1.0" encoding="UTF-8"?>
<svg width="928px" height="522px" viewBox="0 0 928 522" version="1.1" xmlns="http://www.w3.org/2000/svg" xmlns:xlink="http://www.w3.org/1999/xlink">
    <!-- Generator: Sketch 52.5 (67469) - http://www.bohemiancoding.com/sketch -->
    <title>Artboard Copy 7</title>
    <desc>Created with Sketch.</desc>
    <defs>
        <linearGradient x1="0%" y1="101.984314%" x2="100%" y2="-2.03391987%" id="linearGradient-1">
            <stop stop-color="#FB4B53" offset="0%"></stop>
            <stop stop-color="#FFA0C2" offset="100%"></stop>
        </linearGradient>
        <linearGradient x1="-1.60618276%" y1="108.890555%" x2="101.276078%" y2="-8.93330368%" id="linearGradient-2">
            <stop stop-color="#EE538B" offset="0%"></stop>
            <stop stop-color="#408BFC" offset="100%"></stop>
        </linearGradient>
        <linearGradient x1="-2.38126024%" y1="105.825607%" x2="102.482127%" y2="-5.08263537%" id="linearGradient-3">
            <stop stop-color="#0062FF" offset="0%"></stop>
            <stop stop-color="#BB8EFF" offset="100%"></stop>
        </linearGradient>
        <linearGradient x1="-1.98949123%" y1="101.892818%" x2="101.695291%" y2="-1.89263152%" id="linearGradient-4">
            <stop stop-color="#0062FF" offset="0%"></stop>
            <stop stop-color="#009C98" offset="100%"></stop>
        </linearGradient>
        <linearGradient x1="-11.1692464%" y1="101.333289%" x2="107.493153%" y2="-1.56514291%" id="linearGradient-5">
            <stop stop-color="#FB4B53" offset="0%"></stop>
            <stop stop-color="#FFA0C2" offset="100%"></stop>
        </linearGradient>
        <linearGradient x1="-2.081263%" y1="102.29952%" x2="102.140307%" y2="-1.98147565%" id="linearGradient-6">
            <stop stop-color="#007D79" offset="0%"></stop>
            <stop stop-color="#3DBB61" offset="100%"></stop>
        </linearGradient>
        <linearGradient x1="105.479639%" y1="-5.41496395%" x2="-5.42927482%" y2="105.385818%" id="linearGradient-7">
            <stop stop-color="#408BFC" offset="0%"></stop>
            <stop stop-color="#EE538B" offset="100%"></stop>
        </linearGradient>
        <linearGradient x1="105.990606%" y1="-2.28026243%" x2="-5.80901108%" y2="101.93187%" id="linearGradient-8">
            <stop stop-color="#007D79" offset="0%"></stop>
            <stop stop-color="#1191E6" offset="100%"></stop>
        </linearGradient>
    </defs>
    <g id="Artboard-Copy-7" stroke="none" stroke-width="1" fill="none" fill-rule="evenodd">
        <rect id="Rectangle-3-Copy-46" fill="#171717" x="0" y="0" width="928" height="522"></rect>
        <g id="Group-4-Copy-27" transform="translate(128.000000, 105.000000)">
            <polygon id="Fill-1" points="0 120 120 120 120 0 0 0"></polygon>
            <path d="M8.84625,114.89625 L43.64625,114.89625 L43.64625,106.35 L8.84625,106.35 L8.84625,114.89625 Z M5.14875,97.41375 L8.325,103.64625 L44.17125,103.64625 L47.27625,97.5525 L43.61625,87.60375 L8.7975,87.60375 L5.14875,97.41375 Z M61.35,114.89625 L111.15,114.89625 L111.15,112.48875 C111.15,104.9625 105.02625,98.83875 97.5,98.83875 L75,98.83875 C67.47375,98.83875 61.35,104.9625 61.35,112.48875 L61.35,114.89625 Z M72.1725,96.42375 C73.095,96.2625 74.0325,96.13875 75,96.13875 L97.5,96.13875 C98.4675,96.13875 99.405,96.2625 100.3275,96.42375 L103.53,86.3925 L88.82625,60.6675 C88.5675,60.21375 88.59375,59.65125 88.89,59.22375 C89.18625,58.79625 89.7,58.5825 90.22125,58.665 L111.735,62.25375 L114.5625,56.59875 L93.25875,38.84625 L86.25,38.84625 C85.50375,38.84625 84.9,38.2425 84.9,37.49625 L84.9,29.1525 L76.22625,36.48 C72.12,40.5825 69.41625,45.3075 68.94375,54.89625 L75,54.89625 L75,57.59625 L68.8575,57.59625 C68.8575,57.72375 68.84625,57.82875 68.84625,57.9525 L68.84625,66.14625 L75,66.14625 L75,68.84625 L68.84625,68.84625 L68.84625,77.39625 L75,77.39625 L75,80.09625 L68.84625,80.09625 L68.84625,86.04 L72.1725,96.42375 Z M120,114.89625 L120,117.59625 L0,117.59625 L0,114.89625 L6.15,114.89625 L6.15,105.3225 L2.47125,98.1075 C2.29875,97.77 2.27625,97.38 2.41125,97.02375 L5.91375,87.60375 L3.75,87.60375 L3.75,84.90375 L6.9225,84.90375 L13.65,66.825 L13.65,48.74625 L16.34625,48.74625 L16.34625,67.06875 C16.34625,67.23 16.32,67.3875 16.26375,67.54125 L9.8025,84.90375 L42.6225,84.90375 L36.2325,67.53375 C36.17625,67.3875 36.15,67.22625 36.15,67.06875 L36.15,48.74625 L38.84625,48.74625 L38.84625,66.825 L45.49875,84.90375 L48.75,84.90375 L48.75,87.60375 L46.4925,87.60375 L50.01375,97.17375 C50.145,97.52625 50.1225,97.91625 49.95,98.25 L46.34625,105.3225 L46.34625,114.89625 L58.65,114.89625 L58.65,112.48875 C58.65,105.39 63.22875,99.39 69.56625,97.13625 L66.21,86.6625 C66.16875,86.53125 66.14625,86.3925 66.14625,86.25375 L66.14625,57.9525 C66.14625,45.285 69.30375,39.585 74.4,34.48875 L85.37625,25.215 C85.7775,24.87375 86.3325,24.79875 86.81625,25.02375 C87.2925,25.24125 87.59625,25.72125 87.59625,26.24625 L87.59625,36.14625 L93.75,36.14625 C94.06125,36.14625 94.3725,36.25875 94.6125,36.46125 L117.1125,55.21125 C117.5925,55.60875 117.735,56.29125 117.45375,56.85 L113.70375,64.35 C113.4375,64.87875 112.86,65.17125 112.275,65.0775 L92.58,61.79625 L106.17,85.5675 C106.3575,85.8975 106.39875,86.29125 106.2825,86.6475 L102.93375,97.13625 C109.27125,99.39 113.85,105.39 113.85,112.48875 L113.85,114.89625 L120,114.89625 Z M20.1,9.8925 L32.4,9.8925 L32.4,5.09625 L20.1,5.09625 L20.1,9.8925 Z M42.45375,19.35 L38.84625,26.565 L38.84625,33.74625 L36.15,33.74625 L36.15,26.24625 C36.15,26.03625 36.195,25.83 36.2925,25.6425 L39.73875,18.74625 L36.66375,12.59625 L33.75,12.59625 L18.75,12.59625 L15.8325,12.59625 L12.7575,18.74625 L16.20375,25.6425 C16.30125,25.83 16.34625,26.03625 16.34625,26.24625 L16.34625,33.74625 L13.65,33.74625 L13.65,26.565 L10.0425,19.35 C9.85125,18.97125 9.85125,18.52125 10.0425,18.1425 L13.7925,10.6425 C14.0175,10.185 14.48625,9.89625 15,9.89625 L17.4,9.89625 L17.4,3.74625 C17.4,3 18.00375,2.39625 18.75,2.39625 L33.75,2.39625 C34.4925,2.39625 35.09625,3 35.09625,3.74625 L35.09625,9.89625 L37.5,9.89625 C38.01,9.89625 38.47875,10.185 38.70375,10.6425 L42.45375,18.1425 C42.645,18.52125 42.645,18.97125 42.45375,19.35 Z M18.75,20.1 L33.75,20.1 L33.75,17.39625 L18.75,17.39625 L18.75,20.1 Z M11.0925,42.59625 L41.25,42.59625 L41.25,39.8925 L11.0925,39.8925 L11.0925,42.59625 Z" id="Fill-2" fill="url(#linearGradient-1)"></path>
        </g>
        <g id="Group-4-Copy-28" transform="translate(312.000000, 105.000000)">
            <polygon id="Fill-1" points="0 120 120 120 120 0 0 0"></polygon>
            <path d="M29.086125,40.851 C29.483625,41.0835 29.971125,41.091 30.376125,40.87725 C30.784875,40.6635 31.054875,40.26225 31.099875,39.8085 C32.524875,24.741 45.364875,12.486 59.723625,12.486 C71.322375,12.486 82.088625,20.12475 86.513625,31.4985 C86.776125,32.1735 87.522375,32.49975 88.208625,32.286 C90.027375,31.66725 92.963625,31.236 95.348625,31.236 C106.129875,31.236 114.901125,40.0035 114.901125,50.78475 C114.901125,61.3185 106.306125,69.666 95.348625,69.78225 L21.132375,69.78225 C11.843625,69.666 5.101125,63.38475 5.101125,54.84975 C5.101125,45.96225 12.286125,38.736 21.117375,38.736 C23.896125,38.736 26.656125,39.46725 29.086125,40.851 Z M95.363625,72.486 C107.832375,72.34725 117.601125,62.81475 117.601125,50.78475 C117.601125,38.51475 107.618625,28.53225 95.348625,28.53225 C93.466125,28.53225 90.803625,28.79475 88.557375,29.3685 C83.464875,17.60475 72.031125,9.78225 59.723625,9.78225 C44.633625,9.78225 31.081125,22.101 28.654875,37.6185 C26.277375,36.576 23.704875,36.03225 21.117375,36.03225 C10.797375,36.03225 2.401125,44.47725 2.401125,54.84975 C2.401125,64.92975 10.261125,72.33975 21.117375,72.486 L95.363625,72.486 Z M74.296125,109.53975 L87.421125,86.80725 C87.792375,86.16225 87.571125,85.33725 86.926125,84.966 C86.281125,84.5835 85.452375,84.8085 85.081125,85.461 L71.956125,108.1935 C71.584875,108.8385 71.806125,109.6635 72.447375,110.03475 C72.661125,110.1585 72.893625,110.2185 73.122375,110.2185 C73.591125,110.2185 74.044875,109.9785 74.296125,109.53975 Z M61.167375,99.79725 L68.667375,86.80725 C69.042375,86.16225 68.821125,85.33725 68.176125,84.966 C67.531125,84.5835 66.702375,84.8085 66.331125,85.461 L58.831125,98.44725 C58.459875,99.09225 58.681125,99.91725 59.322375,100.29225 C59.536125,100.416 59.768625,100.47225 59.997375,100.47225 C60.466125,100.47225 60.919875,100.23225 61.167375,99.79725 Z M36.796125,109.53975 L49.921125,86.80725 C50.292375,86.16225 50.071125,85.33725 49.426125,84.966 C48.781125,84.5835 47.952375,84.8085 47.581125,85.461 L34.456125,108.1935 C34.084875,108.8385 34.306125,109.6635 34.947375,110.03475 C35.161125,110.1585 35.393625,110.2185 35.622375,110.2185 C36.091125,110.2185 36.544875,109.9785 36.796125,109.53975 Z M22.497375,100.47225 C22.268625,100.47225 22.036125,100.416 21.822375,100.29225 C21.181125,99.91725 20.959875,99.09225 21.331125,98.44725 L28.831125,85.461 C29.202375,84.8085 30.027375,84.5835 30.676125,84.966 C31.321125,85.33725 31.542375,86.16225 31.167375,86.80725 L23.667375,99.79725 C23.419875,100.23225 22.966125,100.47225 22.497375,100.47225 Z" id="Fill-2" fill="url(#linearGradient-2)"></path>
        </g>
        <g id="Group-4-Copy-30" transform="translate(496.000000, 105.000000)">
            <polygon id="Fill-1" points="0 120 120 120 120 0 0 0"></polygon>
            <path d="M107.4,112.5 L110.1,112.5 L110.1,105 L107.4,105 L107.4,112.5 Z M92.4,112.5 L95.1,112.5 L95.1,105 L92.4,105 L92.4,112.5 Z M107.4,82.5 L110.1,82.5 L110.1,75 L107.4,75 L107.4,82.5 Z M92.4,82.5 L95.1,82.5 L95.1,75 L92.4,75 L92.4,82.5 Z M58.65,112.5 L61.35,112.5 L61.35,105 L58.65,105 L58.65,112.5 Z M43.65,112.5 L46.35,112.5 L46.35,105 L43.65,105 L43.65,112.5 Z M43.65,60 L46.35,60 L46.35,52.5 L43.65,52.5 L43.65,60 Z M28.65,60 L31.35,60 L31.35,52.5 L28.65,52.5 L28.65,60 Z M13.65,60 L16.35,60 L16.35,52.5 L13.65,52.5 L13.65,60 Z M43.65,41.25 L46.35,41.25 L46.35,33.75 L43.65,33.75 L43.65,41.25 Z M28.65,41.25 L31.35,41.25 L31.35,33.75 L28.65,33.75 L28.65,41.25 Z M13.65,41.25 L16.35,41.25 L16.35,33.75 L13.65,33.75 L13.65,41.25 Z M95.1,51.14625 L107.4,51.14625 L107.4,38.85 L95.1,38.85 L95.1,51.14625 Z M91.35,15.72 L101.25,9.12375 L111.15,15.72 L111.15,36.15 L91.35,36.15 L91.35,15.72 Z M110.1,51.15 L110.1,38.85 L112.5,38.85 C113.24625,38.85 113.85,38.24625 113.85,37.5 L113.85,15 C113.85,14.55 113.625,14.13 113.25,13.875 L102,6.375 C101.54625,6.075 100.95375,6.075 100.5,6.375 L89.25,13.875 C88.875,14.13 88.65,14.55 88.65,15 L88.65,37.5 C88.65,38.24625 89.25375,38.85 90,38.85 L92.4,38.85 L92.4,51.15 L82.5,51.15 C81.75375,51.15 81.15,51.75375 81.15,52.5 L81.15,81.15 L61.35,81.15 L61.35,22.5 C61.35,21.75375 60.74625,21.15 60,21.15 L3.75,21.15 L3.75,23.85 L58.65,23.85 L58.65,81.15 L30,81.15 C29.25375,81.15 28.65,81.75375 28.65,82.5 L28.65,112.5 L31.35,112.5 L31.35,83.85 L81.15,83.85 L81.15,112.5 L83.85,112.5 L83.85,53.85 L116.25,53.85 L116.25,51.15 L110.1,51.15 Z" id="Fill-2" fill="url(#linearGradient-3)"></path>
        </g>
        <g id="Group-4-Copy-31" transform="translate(680.000000, 105.000000)">
            <polygon id="Fill-1" points="0 120 120 120 120 0 0 0"></polygon>
            <path d="M41.438625,35.291625 C39.863625,35.291625 38.288625,35.891625 37.088625,37.087875 C34.692375,39.487875 34.692375,43.387875 37.092375,45.787875 L50.344875,59.044125 C50.873625,59.572875 50.873625,60.427875 50.344875,60.956625 L37.088625,74.212875 C34.692375,76.612875 34.692375,80.512875 37.092375,82.909125 C39.484875,85.305375 43.388625,85.305375 45.788625,82.909125 L59.044875,69.649125 C59.551125,69.142875 60.447375,69.142875 60.953625,69.649125 L74.213625,82.909125 C76.609875,85.305375 80.509875,85.305375 82.909875,82.909125 C85.306125,80.512875 85.306125,76.612875 82.909875,74.212875 L69.653625,60.956625 C69.124875,60.427875 69.124875,59.572875 69.653625,59.044125 L82.909875,45.787875 C85.306125,43.387875 85.306125,39.487875 82.909875,37.087875 C80.513625,34.695375 76.609875,34.695375 74.213625,37.087875 L60.953625,50.351625 C60.447375,50.854125 59.551125,50.854125 59.044875,50.351625 L45.788625,37.087875 C44.588625,35.891625 43.013625,35.291625 41.438625,35.291625 M41.438625,87.405375 C39.173625,87.405375 36.908625,86.546625 35.183625,84.821625 C31.733625,81.367875 31.733625,75.754125 35.179875,72.300375 L47.483625,60.000375 L35.183625,47.700375 C31.733625,44.246625 31.733625,38.632875 35.179875,35.179125 C38.637375,31.736625 44.251125,31.732875 47.693625,35.179125 L60.001125,47.486625 L72.304875,35.179125 C75.758625,31.736625 81.372375,31.732875 84.818625,35.179125 C88.268625,38.632875 88.268625,44.246625 84.818625,47.700375 L72.518625,60.000375 L84.818625,72.300375 C88.268625,75.754125 88.268625,81.367875 84.818625,84.821625 C81.364875,88.267875 75.754875,88.271625 72.304875,84.821625 L60.001125,72.514125 L47.693625,84.821625 C45.968625,86.542875 43.703625,87.405375 41.438625,87.405375 M60.001125,5.100375 C29.727375,5.100375 5.101125,29.730375 5.101125,60.000375 C5.101125,90.270375 29.727375,114.900375 60.001125,114.900375 C90.271125,114.900375 114.901125,90.270375 114.901125,60.000375 C114.901125,29.730375 90.271125,5.100375 60.001125,5.100375 M60.001125,117.600375 C28.238625,117.600375 2.401125,91.762875 2.401125,60.000375 C2.401125,28.237875 28.238625,2.400375 60.001125,2.400375 C91.759875,2.400375 117.601125,28.237875 117.601125,60.000375 C117.601125,91.762875 91.759875,117.600375 60.001125,117.600375" id="Fill-2" fill="url(#linearGradient-4)"></path>
        </g>
        <g id="Group-4-Copy-32" transform="translate(496.000000, 297.000000)">
            <polygon id="Fill-1" points="0 120 120 120 120 0 0 0"></polygon>
            <path d="M110.099625,60.0075 C110.099625,36.65625 94.252125,16.60875 71.560875,11.24625 L70.938375,13.875 C92.407125,18.94875 107.399625,37.91625 107.399625,60.0075 C107.399625,84.9825 87.967125,105.46125 63.434625,107.235 L68.909625,101.76 L67.000875,99.8475 L58.090875,108.7575 L67.000875,117.6675 L68.909625,115.755 L63.104625,109.95 C89.283375,108.3375 110.099625,86.5875 110.099625,60.0075 Z M52.998375,2.3325 L51.089625,4.245 L56.894625,10.05 C30.719625,11.6625 9.899625,33.4125 9.899625,59.9925 C9.899625,83.34375 25.747125,103.39125 48.438375,108.75375 L49.060875,106.125 C27.592125,101.05125 12.599625,82.08375 12.599625,59.9925 C12.599625,35.0175 32.032125,14.5425 56.564625,12.76875 L51.089625,18.24 L52.998375,20.1525 L61.908375,11.2425 L52.998375,2.3325 Z M87.599625,64.69125 L87.599625,78.7425 L84.903375,78.7425 L84.903375,64.69125 C84.903375,58.33875 80.587125,52.8825 74.410875,51.41625 C73.848375,51.28125 73.432125,50.805 73.379625,50.2275 C73.327125,49.65 73.645875,49.1025 74.174625,48.86625 C76.773375,47.715 78.453375,45.13125 78.453375,42.2925 C78.453375,38.325 75.224625,35.0925 71.253375,35.0925 C67.285875,35.0925 64.053375,38.325 64.053375,42.2925 C64.053375,43.1625 64.233375,43.99125 64.529625,44.78625 C67.705875,46.44 69.903375,49.72125 69.903375,53.53875 C69.903375,56.41875 68.647125,59.1075 66.554625,60.95625 C72.442125,63.51375 76.349625,69.3225 76.349625,75.94125 L76.349625,89.9925 L73.653375,89.9925 L73.653375,75.94125 C73.653375,69.58875 69.337125,64.1325 63.164625,62.66625 C62.598375,62.53125 62.185875,62.055 62.129625,61.4775 C62.077125,60.9 62.395875,60.35625 62.924625,60.11625 C65.523375,58.96125 67.207125,56.3775 67.207125,53.53875 C67.207125,49.57125 63.974625,46.3425 60.007125,46.3425 C56.035875,46.3425 52.807125,49.57125 52.807125,53.53875 C52.807125,56.3775 54.487125,58.96125 57.085875,60.11625 C57.614625,60.35625 57.933375,60.9 57.880875,61.4775 C57.828375,62.055 57.412125,62.53125 56.845875,62.66625 C50.669625,64.1325 46.357125,69.58875 46.357125,75.94125 L46.357125,89.9925 L43.657125,89.9925 L43.657125,75.94125 C43.657125,69.3225 47.568375,63.51375 53.455875,60.95625 C51.363375,59.1075 50.107125,56.41875 50.107125,53.53875 C50.107125,49.725 52.304625,46.44 55.480875,44.79 C55.777125,43.99125 55.957125,43.1625 55.957125,42.2925 C55.957125,38.325 52.728375,35.0925 48.757125,35.0925 C44.785875,35.0925 41.557125,38.325 41.557125,42.2925 C41.557125,45.13125 43.233375,47.715 45.835875,48.86625 C46.364625,49.1025 46.683375,49.65 46.630875,50.2275 C46.578375,50.805 46.162125,51.28125 45.595875,51.41625 C39.423375,52.8825 35.107125,58.33875 35.107125,64.69125 L35.107125,78.7425 L32.410875,78.7425 L32.410875,64.69125 C32.410875,58.0725 36.318375,52.26375 42.205875,49.71 C40.113375,47.86125 38.857125,45.1725 38.857125,42.2925 C38.857125,36.8325 43.297125,32.3925 48.757125,32.3925 C54.217125,32.3925 58.657125,36.8325 58.657125,42.2925 C58.657125,42.8025 58.578375,43.2975 58.503375,43.79625 C58.998375,43.7175 59.489625,43.6425 60.007125,43.6425 C60.520875,43.6425 61.015875,43.7175 61.507125,43.79625 C61.432125,43.2975 61.353375,42.8025 61.353375,42.2925 C61.353375,36.8325 65.797125,32.3925 71.253375,32.3925 C76.713375,32.3925 81.153375,36.8325 81.153375,42.2925 C81.153375,45.1725 79.897125,47.86125 77.804625,49.71 C83.692125,52.26375 87.599625,58.0725 87.599625,64.69125 Z" id="Fill-2" fill="url(#linearGradient-5)"></path>
        </g>
        <g id="Group-4-Copy-19" transform="translate(312.000000, 297.000000)">
            <polygon id="Fill-1" points="0 120 120 120 120 0 0 0"></polygon>
            <path d="M108.7755,114.895125 C105.3855,114.895125 102.6255,112.138875 102.6255,108.745125 C102.6255,105.355125 105.3855,102.598875 108.7755,102.598875 C112.1655,102.598875 114.9255,105.355125 114.9255,108.745125 C114.9255,112.138875 112.1655,114.895125 108.7755,114.895125 Z M84.92925,108.745125 C84.92925,112.138875 82.16925,114.895125 78.77925,114.895125 C75.38925,114.895125 72.62925,112.138875 72.62925,108.745125 C72.62925,105.355125 75.38925,102.598875 78.77925,102.598875 C82.16925,102.598875 84.92925,105.355125 84.92925,108.745125 Z M72.573,66.141375 L114.873,66.141375 L114.873,53.845125 L72.573,53.845125 L72.573,66.141375 Z M5.073,66.141375 L47.373,66.141375 L47.373,53.845125 L5.073,53.845125 L5.073,66.141375 Z M47.42175,108.745125 C47.42175,112.138875 44.66175,114.895125 41.27175,114.895125 C37.88175,114.895125 35.12175,112.138875 35.12175,108.745125 C35.12175,105.355125 37.88175,102.598875 41.27175,102.598875 C44.66175,102.598875 47.42175,105.355125 47.42175,108.745125 Z M17.42175,108.745125 C17.42175,112.138875 14.66175,114.895125 11.27175,114.895125 C7.88175,114.895125 5.12175,112.138875 5.12175,108.745125 C5.12175,105.355125 7.88175,102.598875 11.27175,102.598875 C14.66175,102.598875 17.42175,105.355125 17.42175,108.745125 Z M5.12175,17.402625 L114.92175,17.402625 L114.92175,5.106375 L5.12175,5.106375 L5.12175,17.402625 Z M110.073,100.026375 L110.073,86.245125 C110.073,85.498875 109.46925,84.895125 108.723,84.895125 L95.073,84.895125 L95.073,68.845125 L116.223,68.845125 C116.96925,68.845125 117.573,68.241375 117.573,67.491375 L117.573,52.491375 C117.573,51.745125 116.96925,51.141375 116.223,51.141375 L95.073,51.141375 L95.073,33.745125 C95.073,32.998875 94.46925,32.395125 93.723,32.395125 L61.36425,32.395125 L61.36425,20.106375 L116.2755,20.106375 C117.018,20.106375 117.62175,19.502625 117.62175,18.752625 L117.62175,3.752625 C117.62175,3.006375 117.018,2.402625 116.2755,2.402625 L3.7755,2.402625 C3.02925,2.402625 2.4255,3.006375 2.4255,3.752625 L2.4255,18.752625 C2.4255,19.502625 3.02925,20.106375 3.7755,20.106375 L58.66425,20.106375 L58.66425,32.395125 L26.223,32.395125 C25.4805,32.395125 24.873,32.998875 24.873,33.745125 L24.873,51.141375 L3.723,51.141375 C2.9805,51.141375 2.373,51.745125 2.373,52.491375 L2.373,67.491375 C2.373,68.241375 2.9805,68.845125 3.723,68.845125 L24.873,68.845125 L24.873,84.895125 L11.223,84.895125 C10.4805,84.895125 9.873,85.498875 9.873,86.245125 L9.873,100.033875 C5.66175,100.712625 2.42175,104.346375 2.42175,108.745125 C2.42175,113.627625 6.393,117.598875 11.27175,117.598875 C16.1505,117.598875 20.12175,113.627625 20.12175,108.745125 C20.12175,104.312625 16.833,100.663875 12.573,100.026375 L12.573,87.598875 L39.873,87.598875 L39.873,100.033875 C35.66175,100.712625 32.42175,104.346375 32.42175,108.745125 C32.42175,113.627625 36.393,117.598875 41.27175,117.598875 C46.1505,117.598875 50.12175,113.627625 50.12175,108.745125 C50.12175,104.312625 46.833,100.663875 42.573,100.026375 L42.573,86.245125 C42.573,85.498875 41.96925,84.895125 41.223,84.895125 L27.573,84.895125 L27.573,68.845125 L48.723,68.845125 C49.46925,68.845125 50.073,68.241375 50.073,67.491375 L50.073,52.491375 C50.073,51.745125 49.46925,51.141375 48.723,51.141375 L27.573,51.141375 L27.573,35.098875 L92.373,35.098875 L92.373,51.141375 L71.223,51.141375 C70.4805,51.141375 69.873,51.745125 69.873,52.491375 L69.873,67.491375 C69.873,68.241375 70.4805,68.845125 71.223,68.845125 L92.373,68.845125 L92.373,84.895125 L78.723,84.895125 C77.9805,84.895125 77.373,85.498875 77.373,86.245125 L77.373,100.037625 C73.1655,100.716375 69.92925,104.346375 69.92925,108.745125 C69.92925,113.627625 73.9005,117.598875 78.77925,117.598875 C83.658,117.598875 87.62925,113.627625 87.62925,108.745125 C87.62925,104.308875 84.33675,100.656375 80.073,100.026375 L80.073,87.598875 L107.373,87.598875 L107.373,100.037625 C103.16175,100.716375 99.9255,104.346375 99.9255,108.745125 C99.9255,113.627625 103.89675,117.598875 108.7755,117.598875 C113.65425,117.598875 117.6255,113.627625 117.6255,108.745125 C117.6255,104.312625 114.333,100.660125 110.073,100.026375 Z" id="Fill-2" fill="url(#linearGradient-6)"></path>
        </g>
        <g id="Group-4-Copy-21" transform="translate(680.000000, 297.000000)">
            <polygon id="Fill-1" points="0 120 120 120 120 0 0 0"></polygon>
            <path d="M105,110.90325 L61.59375,110.90325 L61.59375,80.34825 L78.09,80.34825 L92.62125,94.8795 C92.92125,95.1795 93.32625,95.34825 93.75,95.34825 L110.90625,95.34825 L110.90625,105.00075 C110.90625,108.25575 108.255,110.90325 105,110.90325 Z M9.09375,105.00075 L9.09375,95.34825 L26.25,95.34825 C26.67375,95.34825 27.07875,95.1795 27.37875,94.8795 L41.91,80.34825 L58.40625,80.34825 L58.40625,110.90325 L15,110.90325 C11.745,110.90325 9.09375,108.25575 9.09375,105.00075 Z M9.09375,58.40325 L9.09375,27.84825 L25.59,27.84825 L39.65625,41.91075 L39.65625,58.40325 L9.09375,58.40325 Z M39.65625,61.59825 L39.65625,78.09075 L25.59,92.15325 L9.09375,92.15325 L9.09375,61.59825 L39.65625,61.59825 Z M15,9.09825 L58.40625,9.09825 L58.40625,39.65325 L41.91,39.65325 L27.37875,25.122 C27.07875,24.822 26.67375,24.65325 26.25,24.65325 L9.09375,24.65325 L9.09375,15.00075 C9.09375,11.74575 11.745,9.09825 15,9.09825 Z M42.84375,77.15325 L77.1525,77.15325 L77.1525,42.84825 L42.84375,42.84825 L42.84375,77.15325 Z M80.34375,58.40325 L80.34375,41.91075 L94.41,27.84825 L110.90625,27.84825 L110.90625,58.40325 L80.34375,58.40325 Z M80.34375,61.59825 L110.90625,61.59825 L110.90625,92.15325 L94.41,92.15325 L80.34375,78.09075 L80.34375,61.59825 Z M110.90625,15.00075 L110.90625,24.65325 L93.75,24.65325 C93.32625,24.65325 92.92125,24.822 92.62125,25.122 L78.09,39.65325 L61.59375,39.65325 L61.59375,9.09825 L105,9.09825 C108.255,9.09825 110.90625,11.74575 110.90625,15.00075 Z M105,5.90325 L15,5.90325 C9.98625,5.90325 5.90625,9.987 5.90625,15.00075 L5.90625,105.00075 C5.90625,110.0145 9.98625,114.09825 15,114.09825 L105,114.09825 C110.01375,114.09825 114.09375,110.0145 114.09375,105.00075 L114.09375,15.00075 C114.09375,9.987 110.01375,5.90325 105,5.90325 Z" id="Fill-2" fill="url(#linearGradient-7)"></path>
        </g>
        <g id="Group-4-Copy-33" transform="translate(128.000000, 297.000000)">
            <polygon id="Fill-1" points="0 120 120 120 120 0 0 0"></polygon>
            <path d="M53.28,28.37775 L66.72,28.37775 L73.44,16.73775 L66.72,5.1015 L53.28,5.1015 L46.56,16.73775 L53.28,28.37775 Z M42.42,49.88775 L40.08,48.5415 L50.94,29.72775 L43.83,17.41275 C43.59,16.9965 43.59,16.48275 43.83,16.0665 L51.33,3.0765 C51.57,2.66025 52.02,2.39775 52.5,2.39775 L67.5,2.39775 C67.98,2.39775 68.43,2.66025 68.67,3.0765 L76.17,16.0665 C76.41,16.48275 76.41,16.9965 76.17,17.41275 L68.67,30.40275 C68.43,30.819 67.98,31.0815 67.5,31.0815 L53.28,31.0815 L42.42,49.88775 Z M90.7425,50.0115 L104.1825,50.0115 L110.90625,38.3715 L104.1825,26.7315 L90.7425,26.7315 L84.0225,38.3715 L90.7425,50.0115 Z M104.9625,52.7115 L89.9625,52.7115 C89.4825,52.7115 89.03625,52.45275 88.79625,52.0365 L81.6825,39.7215 L59.9625,39.7215 L59.9625,37.0215 L81.6825,37.0215 L88.7925,24.7065 C89.03625,24.2865 89.4825,24.02775 89.9625,24.02775 L104.9625,24.02775 C105.44625,24.02775 105.8925,24.2865 106.1325,24.7065 L113.6325,37.6965 C113.8725,38.1165 113.8725,38.6265 113.6325,39.0465 L106.1325,52.0365 C105.8925,52.45275 105.44625,52.7115 104.9625,52.7115 Z M15.8175,50.0115 L29.2575,50.0115 L35.9775,38.3715 L29.2575,26.7315 L15.8175,26.7315 L9.09375,38.3715 L15.8175,50.0115 Z M40.1175,71.5215 L29.2575,52.7115 L15.0375,52.7115 C14.55375,52.7115 14.1075,52.45275 13.8675,52.0365 L6.3675,39.0465 C6.1275,38.6265 6.1275,38.1165 6.3675,37.6965 L13.8675,24.7065 C14.1075,24.2865 14.55375,24.02775 15.0375,24.02775 L30.0375,24.02775 C30.5175,24.02775 30.96375,24.2865 31.2075,24.7065 L38.7075,37.6965 C38.9475,38.1165 38.9475,38.6265 38.70375,39.0465 L31.59375,51.3615 L42.4575,70.17525 L40.1175,71.5215 Z M15.8175,93.2715 L29.2575,93.2715 L35.9775,81.62775 L29.2575,69.9915 L15.8175,69.9915 L9.09375,81.62775 L15.8175,93.2715 Z M30.0375,95.9715 L15.0375,95.9715 C14.55375,95.9715 14.1075,95.71275 13.8675,95.2965 L6.3675,82.30275 C6.1275,81.8865 6.1275,81.37275 6.3675,80.9565 L13.8675,67.9665 C14.1075,67.5465 14.55375,67.28775 15.0375,67.28775 L30.0375,67.28775 C30.5175,67.28775 30.96375,67.5465 31.20375,67.9665 L38.3175,80.27775 L60.0375,80.27775 L60.0375,82.9815 L38.3175,82.9815 L31.2075,95.2965 C30.96375,95.71275 30.5175,95.9715 30.0375,95.9715 Z M90.7425,93.2715 L104.1825,93.2715 L110.90625,81.62775 L104.1825,69.9915 L90.7425,69.9915 L84.0225,81.62775 L90.7425,93.2715 Z M104.9625,95.9715 L89.9625,95.9715 C89.4825,95.9715 89.03625,95.71275 88.7925,95.2965 L81.2925,82.30275 C81.0525,81.8865 81.0525,81.37275 81.29625,80.9565 L88.40625,68.63775 L77.5425,49.82775 L79.8825,48.47775 L90.7425,67.28775 L104.9625,67.28775 C105.44625,67.28775 105.8925,67.5465 106.1325,67.9665 L113.6325,80.9565 C113.8725,81.37275 113.8725,81.8865 113.6325,82.30275 L106.1325,95.2965 C105.8925,95.71275 105.44625,95.9715 104.9625,95.9715 Z M53.28,114.89775 L66.72,114.89775 L73.44,103.2615 L66.72,91.6215 L53.28,91.6215 L46.56,103.2615 L53.28,114.89775 Z M67.5,117.6015 L52.5,117.6015 C52.02,117.6015 51.57,117.34275 51.33,116.92275 L43.83,103.93275 C43.59,103.5165 43.59,103.00275 43.83,102.5865 L51.33,89.5965 C51.57,89.18025 52.02,88.9215 52.5,88.9215 L66.72,88.9215 L77.58,70.1115 L79.92,71.45775 L69.06,90.2715 L76.17,102.5865 C76.41,103.00275 76.41,103.5165 76.17,103.93275 L68.67,116.92275 C68.43,117.34275 67.98,117.6015 67.5,117.6015 Z" id="Fill-2" fill="url(#linearGradient-8)"></path>
        </g>
    </g>
</svg>