<svg version="1.1" id="Layer_1" xmlns="http://www.w3.org/2000/svg" x="0" y="0" viewBox="0 0 288 546" xml:space="preserve"><style>.st0{fill:#051243}.st1{fill:none}.st2{fill:#061f80}.st3{fill:#0530ad}.st4{fill:#408bfc}.st6{fill:#171717}</style><g id="Artboard-Copy-57"><path id="Rectangle-3-Copy-80" class="st0" d="M0 0h288v288H0z"/><g id="Group-88-Copy" transform="translate(44 41)"><g id="Group-19-Copy-5" transform="translate(121.414 126.586)"><path id="Fill-1" class="st1" d="M0 78.6h78.6V0H0z"/><path id="Fill-2" class="st2" d="M30.7 19.7h17.2V2.5H30.7z"/><path id="Fill-3" class="st2" d="M2.4 76.2h17.2V59H2.4z"/><path id="Fill-4" class="st2" d="M59 47.9h17.2V30.7H59z"/><path id="Fill-5" class="st3" d="M39.3 61.1l-8.5 14.8h17z"/><path id="Fill-6" class="st3" d="M2.4 46.4h17.1L11 31.6z"/><path id="Fill-7" class="st3" d="M59.1 16.9h17.1L67.6 2.2z"/><g id="Group-18"><path id="Fill-8" class="st4" d="M31.6 18.8H47V3.3H31.6v15.5zm16.3 1.7H30.7c-.5 0-.9-.4-.9-.9V2.4c0-.5.4-.9.9-.9h17.2c.5 0 .9.4.9.9v17.2c0 .5-.4.9-.9.9z"/><path id="Fill-10" class="st4" d="M3.3 75.3h15.4V59.8H3.3v15.5zM19.6 77H2.4c-.5 0-.9-.4-.9-.9V59c0-.5.4-.9.9-.9h17.2c.5 0 .9.4.9.9v17.2c0 .4-.4.8-.9.8z"/><path id="Fill-11" class="st4" d="M59.8 47h15.4V31.6H59.8V47zm16.4 1.8H59c-.5 0-.9-.4-.9-.9V30.7c0-.5.4-.9.9-.9h17.2c.5 0 .9.4.9.9v17.2c-.1.5-.5.9-.9.9z"/><path id="Fill-12" class="st4" d="M39.3 31.6c-4.3 0-7.7 3.5-7.7 7.7 0 4.3 3.5 7.7 7.7 7.7s7.7-3.5 7.7-7.7c.1-4.2-3.4-7.7-7.7-7.7m0 17.2c-5.2 0-9.5-4.3-9.5-9.5s4.3-9.5 9.5-9.5 9.5 4.3 9.5 9.5-4.2 9.5-9.5 9.5"/><path id="Fill-13" class="st4" d="M66.4 59.9l-.3-1.7c.5-.1.9.3 1 .7.2.5-.2.9-.7 1zm4.7.7h-.3c-.4-.2-.7-.8-.5-1.2s.7-.7 1.1-.4l-.4.8.4-.8c.5.2.7.6.5 1.1-.1.3-.4.5-.8.5zm-8.6 1.1l-.6-.6-.5-.7c.4-.3.9-.3 1.2.1s.3.9-.1 1.2zm12.3 2c-.3 0-.5-.1-.7-.4l1.4-1-.7.5.8-.5c.3.4.2 1-.2 1.2-.3.2-.5.2-.6.2zm-14.7 1.7l-1.7-.5c.1-.5.6-.7 1.1-.6.5.1.8.6.6 1.1zm16.1 3.1c-.5 0-.9-.4-.9-.9v-.1c0-.5.4-.8.9-.8s.8.3.9.8h-.9.8c0 .6-.4 1-.8 1zm-16.9 2.4c-.4 0-.7-.2-.8-.6v-.1c-.1-.5.2-1 .6-1.1.5-.1 1 .2 1.1.6.1.5-.1 1-.6 1.1-.1.1-.2.1-.3.1zm15.5 2.2c-.2 0-.4-.1-.5-.2-.4-.3-.5-.8-.2-1.2.3-.4.8-.5 1.2-.3.4.3.5.8.3 1.2 0 0 0 .1-.1.1-.2.3-.5.4-.7.4zM61.9 75c-.2 0-.4-.1-.5-.2l-.1-.1c-.4-.3-.4-.9 0-1.3.3-.4.9-.4 1.3 0 .3.3.4.9.1 1.2-.3.2-.5.4-.8.4zm9.2 1.3c-.4 0-.7-.2-.8-.6-.1-.5.1-1 .6-1.1.4-.2.9 0 1.1.4s0 1-.4 1.2c0 0-.1.1-.2.1h-.3zm-4.7.7h-.2c-.5-.1-.8-.5-.7-1s.5-.8 1-.7c.5.1.8.5.8 1-.2.3-.5.7-.9.7z"/><path id="Fill-14" class="st4" d="M11 3.3c-4.3 0-7.7 3.5-7.7 7.7 0 4.3 3.5 7.7 7.7 7.7s7.7-3.5 7.7-7.7c.1-4.2-3.4-7.7-7.7-7.7m0 17.2c-5.2 0-9.5-4.3-9.5-9.5S5.8 1.6 11 1.6s9.5 4.3 9.5 9.5-4.2 9.4-9.5 9.4"/><path id="Fill-15" class="st4" d="M32.3 75.3h14l-7-12.1-7 12.1zM47.8 77h-17c-.3 0-.6-.2-.8-.4-.2-.3-.2-.6 0-.9L38.5 61c.3-.5 1.2-.5 1.5 0l8.5 14.7c.2.3.2.6 0 .9-.1.3-.4.4-.7.4z"/><path id="Fill-16" class="st4" d="M4 45.8h14l-7-12.1-7 12.1zm15.5 1.8h-17c-.3 0-.6-.2-.8-.4-.2-.3-.2-.6 0-.9l8.5-14.7c.3-.5 1.2-.5 1.5 0l8.5 14.7c.2.3.2.6 0 .9-.1.2-.4.4-.7.4z"/><path id="Fill-17" class="st4" d="M60.7 16.3h14l-7-12.1-7 12.1zm15.5 1.8h-17c-.3 0-.6-.2-.8-.4-.2-.3-.2-.6 0-.9L66.9 2c.3-.5 1.2-.5 1.5 0l8.5 14.7c.2.3.2.6 0 .9-.1.3-.4.5-.7.5z"/></g></g><g id="Group-19-Copy-6" transform="translate(.862 126.586)"><path id="Fill-1_1_" class="st1" d="M0 78.6h78.6V0H0z"/><path id="Fill-2_1_" class="st3" d="M46.7 12.3h29.5V2.5H46.7z"/><path id="Fill-5_1_" class="st3" d="M46.7 76.2h29.5v-9.9H46.7z"/><path id="Fill-8_1_" class="st2" d="M2.5 56.5h29.4V22.1H2.5z"/><g id="Group-18_1_" transform="translate(1.31 1.31)"><path id="Stroke-9" fill="none" stroke="#000" stroke-width=".5" stroke-linecap="round" stroke-linejoin="round" d="M1.1 55.2h29.5V20.8H1.1z"/><path id="Fill-11_1_" class="st4" d="M2 54.3h27.7V21.7H2v32.6zm28.6 1.8H1.1c-.5 0-.9-.4-.9-.9V20.8c0-.5.4-.9.9-.9h29.5c.5 0 .9.4.9.9v34.4c0 .5-.4.9-.9.9z"/><path id="Fill-12_1_" class="st4" d="M46.3 10.1H74V2H46.3v8.1zM74.9.3H45.4c-.5 0-.9.4-.9.9v4H15.9c-.5 0-.9.4-.9.9v14.7h1.8V6.9h27.7v4c0 .5.4.9.9.9h29.5c.5 0 .9-.4.9-.9V1.1c-.1-.4-.5-.8-.9-.8z"/><path id="Fill-13_1_" class="st4" d="M46.3 42H74v-8H46.3v8zm28.6-9.8H45.4c-.5 0-.9.4-.9.9v4H30.6v1.8h13.9v4c0 .5.4.9.9.9h29.5c.5 0 .9-.4.9-.9v-9.8c-.1-.5-.5-.9-.9-.9z"/><path id="Fill-14_1_" class="st4" d="M46.3 74H74v-8.1H46.3V74zm28.6-9.9H45.4c-.5 0-.9.4-.9.9v4H16.8V55.2H15v14.7c0 .5.4.9.9.9h28.6v4c0 .5.4.9.9.9h29.5c.5 0 .9-.4.9-.9V65c-.1-.5-.5-.9-.9-.9z"/><path id="Fill-15_1_" class="st4" d="M6.1 31.5h19.6v-1.8H6.1z"/><path id="Fill-16_1_" class="st4" d="M6.1 38.9h19.6v-1.8H6.1z"/><path id="Fill-17_1_" class="st4" d="M6.1 46.3h19.6v-1.8H6.1z"/></g></g><g id="Group-18-Copy-2" transform="translate(121.414 .793)"><path id="Fill-1_2_" class="st1" d="M0 78.6h78.6V0H0z"/><path id="Fill-2_2_" class="st3" d="M47.8 34.4l-8.5-4.9-8.5 4.9v9.8l8.5 4.9 8.5-4.9z"/><g id="Group-17" transform="translate(6.224 2.457)"><path id="Fill-3_1_" class="st2" d="M39.2 7.4c0 3.4-2.7 6.1-6.1 6.1S27 10.8 27 7.4s2.7-6.1 6.1-6.1c3.4-.1 6.1 2.7 6.1 6.1"/><path id="Fill-5_2_" class="st2" d="M39.2 66.3c0 3.4-2.7 6.1-6.1 6.1S27 69.7 27 66.3s2.7-6.1 6.1-6.1c3.4 0 6.1 2.7 6.1 6.1"/><path id="Fill-7_1_" class="st2" d="M13.7 22.1c0 3.4-2.8 6.1-6.1 6.1-3.4 0-6.1-2.7-6.1-6.1S4.2 16 7.6 16c3.3 0 6.1 2.7 6.1 6.1"/><path id="Fill-9" class="st2" d="M64.8 22.1c0 3.4-2.7 6.1-6.1 6.1-3.4 0-6.1-2.7-6.1-6.1s2.8-6.1 6.1-6.1 6.1 2.7 6.1 6.1"/><path id="Fill-11_2_" class="st2" d="M13.7 51.6c0 3.4-2.8 6.1-6.1 6.1-3.4 0-6.1-2.7-6.1-6.1 0-3.4 2.7-6.1 6.1-6.1 3.3-.1 6.1 2.7 6.1 6.1"/><path id="Fill-13_2_" class="st2" d="M64.8 51.6c0 3.4-2.7 6.1-6.1 6.1-3.4 0-6.1-2.7-6.1-6.1 0-3.4 2.8-6.1 6.1-6.1 3.3-.1 6.1 2.7 6.1 6.1"/><path id="Fill-15_2_" class="st4" d="M58.6 57c-2.9 0-5.3-2.4-5.3-5.3s2.4-5.3 5.3-5.3 5.3 2.4 5.3 5.3-2.4 5.3-5.3 5.3zm-19.9 5.2c-1.1-1.5-2.8-2.5-4.7-2.7V47.3l7.6-4.4L52.1 49c-.4.8-.6 1.8-.6 2.7 0 1 .2 1.9.6 2.7l-13.4 7.8zm-5.6 9.5c-2.9 0-5.3-2.4-5.3-5.3s2.4-5.3 5.3-5.3 5.3 2.4 5.3 5.3c-.1 2.9-2.4 5.3-5.3 5.3zM14 54.4c.4-.8.5-1.8.5-2.7 0-1-.2-1.9-.5-2.7l10.5-6.1 7.6 4.4v12.2c-1.9.2-3.6 1.2-4.7 2.7L14 54.4zM7.6 57c-2.9 0-5.3-2.4-5.3-5.3s2.4-5.3 5.3-5.3 5.3 2.4 5.3 5.3c-.1 2.9-2.4 5.3-5.3 5.3zM2.3 22.2c0-2.9 2.4-5.3 5.3-5.3s5.3 2.4 5.3 5.3-2.4 5.3-5.3 5.3-5.3-2.4-5.3-5.3zm6.1 22.6V29.2c1.9-.2 3.6-1.2 4.7-2.7l10.6 6.1v8.8l-10.6 6.1C12 46 10.3 45 8.4 44.8zm19.1-33.1c1.1 1.5 2.8 2.5 4.7 2.7v12.2L24.6 31 14 24.9c.4-.8.5-1.8.5-2.7 0-1-.2-1.9-.5-2.7l13.5-7.8zm5.6-9.5c2.9 0 5.3 2.4 5.3 5.3s-2.4 5.3-5.3 5.3-5.3-2.4-5.3-5.3 2.4-5.3 5.3-5.3zm0 43.6l-7.6-4.4v-8.8l7.6-4.4 7.6 4.4v8.8l-7.6 4.4zm19-26.3c-.4.8-.6 1.8-.6 2.7 0 1 .2 1.9.6 2.7L41.6 31 34 26.6V14.4c1.9-.2 3.6-1.2 4.7-2.7l13.4 7.8zm6.5-2.5c2.9 0 5.3 2.4 5.3 5.3s-2.4 5.3-5.3 5.3-5.3-2.4-5.3-5.3c.1-3 2.4-5.3 5.3-5.3zM53 47.5l-10.6-6.1v-8.8L53 26.5c1.1 1.5 2.8 2.5 4.7 2.7v15.6c-1.9.2-3.5 1.2-4.7 2.7zm6.5-2.7V29.2c3.5-.4 6.1-3.4 6.1-6.9 0-3.9-3.2-7-7-7-2.3 0-4.3 1.1-5.6 2.8l-13.5-7.8c.4-.8.5-1.8.5-2.7 0-3.9-3.2-7-7-7s-7 3.2-7 7c0 1 .2 1.9.5 2.7L13.1 18c-1.3-1.7-3.3-2.8-5.6-2.8-3.9 0-7 3.2-7 7 0 3.6 2.7 6.5 6.1 6.9v15.6c-3.5.4-6.1 3.4-6.1 6.9 0 3.9 3.2 7 7 7 2.3 0 4.3-1.1 5.6-2.8l13.5 7.8c-.4.8-.5 1.8-.5 2.7 0 3.9 3.2 7 7 7s7-3.2 7-7c0-1-.2-1.9-.5-2.7L53 55.9c1.3 1.7 3.3 2.8 5.6 2.8 3.9 0 7-3.2 7-7 0-3.6-2.6-6.5-6.1-6.9z"/></g></g><g id="Group-9-Copy-2" transform="translate(.862 .793)"><path id="Fill-1_3_" class="st1" d="M0 78.6h78.6V0H0z"/><g id="Group-8" transform="translate(1.31 3.767)"><path id="Fill-2_3_" class="st2" d="M74.8 33.1C74.8 53.5 58.3 70 37.9 70S1.1 53.4 1.1 33.1h73.7z"/><path id="Fill-4_1_" class="st3" d="M33.6 33.1L17.3 4.8c-2-3.5-6.6-4.7-10.1-2.7S2.5 8.7 4.5 12.2l12.1 20.9"/><path id="Fill-6_1_" class="st4" d="M38 69.1C18.4 69.1 2.5 53.4 2 34h71.9C73.4 53.4 57.5 69.1 38 69.1zM5.3 11.8c-.9-1.5-1.1-3.2-.6-4.9.4-1.7 1.5-3.1 3-3.9s3.2-1.1 4.9-.6c1.7.4 3.1 1.5 3.9 3L32 32.3H17L5.3 11.8zm69.5 20.4H34.1l-16-27.8c-1.1-1.9-2.9-3.3-5-3.8-2.2-.6-4.4-.3-6.3.8S3.5 4.3 3 6.4c-.6 2.1-.3 4.4.8 6.3l11.3 19.5h-14c-.5 0-.9.4-.9.9 0 20.8 16.9 37.7 37.7 37.7s37.7-16.9 37.7-37.7c.1-.5-.3-.9-.8-.9z"/></g></g></g></g><g id="Artboard-Copy-58"><path id="Rectangle-3-Copy-80_1_" class="st0" d="M0 258h288v288H0z"/><g id="Group-89-Copy" transform="translate(44 41)"><g id="Group-11-Copy-5" transform="translate(121.517 126.586)"><path id="Fill-1_7_" class="st1" d="M0 336.6h78.6V258H0z"/><g id="Group-10" transform="translate(8.681 1.31)"><path id="Fill-2_7_" class="st3" d="M42.9 273.6c0 8.1-6.6 14.7-14.7 14.7s-14.7-6.6-14.7-14.7 6.6-14.7 14.7-14.7c8.1-.1 14.7 6.5 14.7 14.7"/><path id="Fill-4_5_" class="st4" d="M17.7 285.5c-3.3-2.9-5.2-7.2-5.2-11.6 0-8.6 7-15.6 15.6-15.6s15.6 7 15.6 15.6c0 4.4-1.9 8.7-5.2 11.6l-1.2-1.3c2.9-2.6 4.6-6.4 4.6-10.3 0-7.6-6.2-13.9-13.9-13.9s-13.9 6.2-13.9 13.9c0 3.9 1.7 7.7 4.6 10.3l-1 1.3z"/><path id="Fill-6_5_" class="st2" d="M23.2 273.6c0-2.9 2-4.9 4.9-4.9s4.9 2 4.9 4.9v19.7h17c5.5 0 10 3.8 10 9.3v9.9c0 11.5-3.2 20.2-20.2 20.2-11.9 0-17.5-5.1-24.9-13.5-2.1-2.3-8.5-9.3-8.5-9.3-2-2.3-5.4-5.7-5.4-6.8 0-3.2 7.9-4.9 11.8-2 3 2.3 10.3 10.6 10.3 10.6v-38.1h.1z"/><path id="Fill-8_5_" class="st4" d="M7.2 309.6s6.4 6.9 8.5 9.3c7 8 12.5 13.2 24.2 13.2 16 0 19.3-7.7 19.3-19.3v-9.9c0-4.8-3.9-8.4-9.2-8.4H33c-.5 0-.9-.4-.9-.9v-19.7c0-2.4-1.6-4-4-4s-4 1.6-4 4V312c0 .4-.2.7-.6.8-.3.1-.7 0-1-.2-.1-.1-7.3-8.3-10.2-10.5-2.3-1.7-6.4-1.7-8.8-.5-1 .5-1.6 1.1-1.6 1.7.1.7 2.6 3.4 3.9 4.8l1.4 1.5zm32.7 24.1c-12.4 0-18.2-5.4-25.6-13.8l-8.4-9.2-1.2-1.4c-3-3.3-4.4-5-4.4-6 0-1.3.9-2.5 2.6-3.3 2.9-1.4 7.7-1.6 10.6.7 2.2 1.7 6.6 6.4 8.9 9v-35.8c0-3.4 2.4-5.8 5.8-5.8s5.8 2.4 5.8 5.8v18.8h16.1c6.2 0 10.9 4.4 10.9 10.2v9.9c0 10.8-2.6 20.9-21.1 20.9z"/></g></g><g id="Group-25-Copy-3" transform="translate(.966 126.586)"><path id="Fill-1_6_" class="st1" d="M0 336.6h78.6V258H0z"/><path id="Fill-2_6_" class="st2" d="M4.9 334.2h68.8v-66.4H4.9z"/><path id="Fill-3_2_" class="st3" d="M36.9 289.6h4.9v-4.9h-4.9z"/><path id="Fill-4_4_" class="st6" d="M36.9 306.8h4.9v-4.9h-4.9z"/><path id="Fill-5_3_" class="st6" d="M36.9 324h4.9v-4.9h-4.9z"/><path id="Fill-6_4_" class="st3" d="M17.2 289.6h4.9v-4.9h-4.9z"/><path id="Fill-7_2_" class="st3" d="M17.2 306.8h4.9v-4.9h-4.9z"/><path id="Fill-8_4_" class="st6" d="M17.2 324h4.9v-4.9h-4.9z"/><path id="Fill-9_1_" class="st6" d="M56.5 289.6h4.9v-4.9h-4.9z"/><path id="Fill-10_2_" class="st3" d="M56.5 306.8h4.9v-4.9h-4.9z"/><path id="Fill-11_3_" class="st3" d="M56.5 324h4.9v-4.9h-4.9z"/><g id="Group-24"><path id="Fill-12_3_" class="st4" d="M72.8 333.3h-67v-64.6h13v6.5h1.8v-6.5h17.9v6.5h1.8v-6.5h17.9v6.5H60v-6.5h13v64.6h-.2zm.9-66.4H59.8v-6.5H58v6.5H40.2v-6.5h-1.8v6.5H20.5v-6.5h-1.8v6.5H4.9c-.5 0-.9.4-.9.9v66.3c0 .5.4.9.9.9h68.8c.5 0 .9-.4.9-.9v-66.3c0-.5-.4-.9-.9-.9z"/><path id="Fill-14_3_" class="st4" d="M37.7 289.1h3.1V286h-3.1v3.1zm4.1 1.7h-4.9c-.5 0-.9-.4-.9-.9V285c0-.5.4-.9.9-.9h4.9c.5 0 .9.4.9.9v4.9c0 .5-.4.9-.9.9z"/><path id="Fill-16_3_" class="st4" d="M37.7 306.3h3.1v-3.1h-3.1v3.1zm4.1 1.7h-4.9c-.5 0-.9-.4-.9-.9v-4.9c0-.5.4-.9.9-.9h4.9c.5 0 .9.4.9.9v4.9c0 .5-.4.9-.9.9z"/><path id="Fill-17_2_" class="st4" d="M37.7 323.5h3.1v-3.1h-3.1v3.1zm4.1 1.7h-4.9c-.5 0-.9-.4-.9-.9v-4.9c0-.5.4-.9.9-.9h4.9c.5 0 .9.4.9.9v4.9c0 .5-.4.9-.9.9z"/><path id="Fill-18" class="st4" d="M18.1 289.1h3.1V286h-3.1v3.1zm4 1.7h-4.9c-.5 0-.9-.4-.9-.9V285c0-.5.4-.9.9-.9h4.9c.5 0 .9.4.9.9v4.9c0 .5-.4.9-.9.9z"/><path id="Fill-19" class="st4" d="M18.1 306.3h3.1v-3.1h-3.1v3.1zm4 1.7h-4.9c-.5 0-.9-.4-.9-.9v-4.9c0-.5.4-.9.9-.9h4.9c.5 0 .9.4.9.9v4.9c0 .5-.4.9-.9.9z"/><path id="Fill-20" class="st4" d="M18.1 323.5h3.1v-3.1h-3.1v3.1zm4 1.7h-4.9c-.5 0-.9-.4-.9-.9v-4.9c0-.5.4-.9.9-.9h4.9c.5 0 .9.4.9.9v4.9c0 .5-.4.9-.9.9z"/><path id="Fill-21" class="st4" d="M57.4 289.1h3.1V286h-3.1v3.1zm4 1.7h-4.9c-.5 0-.9-.4-.9-.9V285c0-.5.4-.9.9-.9h4.9c.5 0 .9.4.9.9v4.9c0 .5-.4.9-.9.9z"/><path id="Fill-22" class="st4" d="M57.4 306.3h3.1v-3.1h-3.1v3.1zm4 1.7h-4.9c-.5 0-.9-.4-.9-.9v-4.9c0-.5.4-.9.9-.9h4.9c.5 0 .9.4.9.9v4.9c0 .5-.4.9-.9.9z"/><path id="Fill-23" class="st4" d="M57.4 323.5h3.1v-3.1h-3.1v3.1zm4 1.7h-4.9c-.5 0-.9-.4-.9-.9v-4.9c0-.5.4-.9.9-.9h4.9c.5 0 .9.4.9.9v4.9c0 .5-.4.9-.9.9z"/></g></g><g id="Group-11-Copy-6" transform="translate(121.517 .793)"><path id="Fill-1_5_" class="st1" d="M0 336.6h78.6V258H0z"/><g id="Group-10_1_" transform="translate(1.31 6.224)"><path id="Fill-2_5_" class="st2" d="M24.6 292.5c-1.6-1.6-2.3-3.6-2.3-5.6 0-2.1.8-4.1 2.3-5.7 1.6-1.6 3.6-2.3 5.6-2.3 2.1 0 4.1.8 5.7 2.3l2.1 2.1 2.1-2.1c1.6-1.6 3.6-2.3 5.7-2.3 2 0 4.1.8 5.7 2.3 1.6 1.6 2.4 3.7 2.3 5.8 0 2-.8 4-2.3 5.5L38 305.9l-13.4-13.4z"/><path id="Fill-4_2_" class="st4" d="M68.2 298.3c-3.3 14.1-15.8 23.9-30.2 23.9-16.4 0-29.8-12.7-30.9-28.8l3.6 3.6 1.3-1.3-5.2-5.2c-.3-.3-.9-.3-1.3 0l-5.2 5.2 1.3 1.3 3.8-3.8C6.5 310.4 20.7 324 38.1 324c15.3 0 28.4-10.4 31.9-25.2l-1.8-.5z"/><path id="Fill-6_2_" class="st4" d="M74.5 285.3l-3.8 3.8c-1.1-17.2-15.3-30.8-32.7-30.8-15.3 0-28.4 10.4-31.9 25.2l1.7.4c3.3-14 15.8-23.9 30.2-23.9 16.4 0 29.8 12.7 30.9 28.8l-3.6-3.6-1.3 1.3 5.2 5.2c.2.2.4.3.6.3s.5-.1.6-.3l5.2-5.2-1.1-1.2z"/><path id="Fill-8_2_" class="st4" d="M25.2 291.8L38 304.6l12.8-12.8c1.3-1.3 2-3 2.1-4.9 0-1.9-.7-3.8-2.1-5.2-2.7-2.7-7.4-2.7-10.1 0l-2.1 2.1c-.3.3-.9.3-1.3 0l-2.1-2.1c-1.3-1.3-3.1-2.1-5-2.1s-3.7.7-5 2.1c-1.4 1.4-2.1 3.1-2.1 5.1 0 1.9.8 3.7 2.1 5M38 306.7c-.2 0-.5-.1-.6-.3L24 293c-1.7-1.7-2.6-3.9-2.6-6.2 0-2.4.9-4.6 2.6-6.3 1.7-1.7 3.9-2.6 6.3-2.6s4.6.9 6.3 2.6L38 282l1.5-1.5c1.7-1.7 3.9-2.6 6.3-2.6s4.6.9 6.3 2.6 2.6 4 2.6 6.4c0 2.3-1 4.5-2.6 6.1l-13.4 13.4c-.3.2-.5.3-.7.3"/></g></g><g id="Group-19-Copy-7" transform="translate(.966 .793)"><path id="Fill-1_4_" class="st1" d="M0 336.6h78.6V258H0z"/><g id="Group-18_2_" transform="translate(1.31 1.31)"><path id="Fill-2_4_" class="st2" d="M60.1 288.7H15.9c-8.1 0-14.7-6.6-14.7-14.7s6.6-14.7 14.7-14.7h44.2c8.1 0 14.7 6.6 14.7 14.7.1 8.1-6.6 14.7-14.7 14.7"/><path id="Fill-4_3_" class="st3" d="M15.9 332.9c-8.1 0-14.7-6.6-14.7-14.7s6.6-14.7 14.7-14.7h44.2c8.1 0 14.7 6.6 14.7 14.7s-6.6 14.7-14.7 14.7H15.9z"/><path id="Fill-6_3_" class="st0" d="M15.9 281.3c-4.1 0-7.4-3.3-7.4-7.4s3.3-7.4 7.4-7.4 7.4 3.3 7.4 7.4-3.3 7.4-7.4 7.4z"/><path id="Fill-8_3_" class="st0" d="M67.5 318.1c0 4.1-3.3 7.4-7.4 7.4s-7.4-3.3-7.4-7.4 3.3-7.4 7.4-7.4 7.4 3.3 7.4 7.4"/><path id="Fill-10_1_" class="st4" d="M15.9 260.1C8.3 260.1 2 266.3 2 274c0 7.6 6.2 13.9 13.9 13.9h44.2c7.6 0 13.9-6.2 13.9-13.9 0-7.6-6.2-13.9-13.9-13.9H15.9zm44.2 29.5H15.9c-8.6 0-15.6-7-15.6-15.6s7-15.6 15.6-15.6h44.2c8.6 0 15.6 7 15.6 15.6s-7 15.6-15.6 15.6z"/><path id="Fill-12_2_" class="st4" d="M15.9 304.2c-7.6 0-13.9 6.2-13.9 13.9 0 7.6 6.2 13.9 13.9 13.9h44.2c7.6 0 13.9-6.2 13.9-13.9 0-7.6-6.2-13.9-13.9-13.9H15.9zm44.2 29.5H15.9c-8.6 0-15.6-7-15.6-15.6s7-15.6 15.6-15.6h44.2c8.6 0 15.6 7 15.6 15.6s-7 15.6-15.6 15.6z"/><path id="Fill-14_2_" class="st4" d="M15.9 267.5c-3.6 0-6.5 2.9-6.5 6.5s2.9 6.5 6.5 6.5 6.5-2.9 6.5-6.5-2.9-6.5-6.5-6.5m0 14.7c-4.6 0-8.3-3.7-8.3-8.3 0-4.6 3.7-8.3 8.3-8.3s8.3 3.7 8.3 8.3c-.1 4.6-3.8 8.3-8.3 8.3"/><path id="Fill-16_2_" class="st4" d="M60.1 311.7c-3.6 0-6.5 2.9-6.5 6.5s2.9 6.5 6.5 6.5 6.5-2.9 6.5-6.5-2.9-6.5-6.5-6.5m0 14.7c-4.6 0-8.3-3.7-8.3-8.3 0-4.6 3.7-8.3 8.3-8.3s8.3 3.7 8.3 8.3c0 4.6-3.7 8.3-8.3 8.3"/></g></g></g></g></svg>