<?xml version="1.0" encoding="UTF-8"?>
<svg width="928px" height="522px" viewBox="0 0 928 522" version="1.1" xmlns="http://www.w3.org/2000/svg" xmlns:xlink="http://www.w3.org/1999/xlink">
    <!-- Generator: Sketch 52.4 (67378) - http://www.bohemiancoding.com/sketch -->
    <title>Artboard Copy 9</title>
    <desc>Created with Sketch.</desc>
    <defs>
        <polygon id="path-1" points="0 120 120 120 120 0 0 0"></polygon>
    </defs>
    <g id="Artboard-Copy-9" stroke="none" stroke-width="1" fill="none" fill-rule="evenodd">
        <rect id="Rectangle-3-Copy-45" fill="#FFFFFF" x="0" y="0" width="928" height="522"></rect>
        <g id="Group-11-Copy-2" transform="translate(680.000000, 297.000000)">
            <polygon id="Fill-1" fill="#FFFFFF" points="0 120 119.99625 120 119.99625 0 0 0"></polygon>
            <g id="Group-10" transform="translate(11.250000, 0.000000)">
                <path d="M67.49925,25.78125 C67.49925,38.205 57.42675,48.28125 44.99925,48.28125 C32.5755,48.28125 22.49925,38.205 22.49925,25.78125 C22.49925,13.3575 32.5755,3.28125 44.99925,3.28125 C57.42675,3.28125 67.49925,13.3575 67.49925,25.78125" id="Fill-2" fill="#C1DFFF"></path>
                <path d="M29.082,43.985625 C24.027,39.508125 21.12825,33.043125 21.12825,26.251875 C21.12825,13.100625 31.827,2.398125 44.97825,2.398125 C58.1295,2.398125 68.82825,13.100625 68.82825,26.251875 C68.82825,33.043125 65.9295,39.508125 60.8745,43.985625 L59.082,41.964375 C63.5595,37.996875 66.12825,32.270625 66.12825,26.251875 C66.12825,14.585625 56.64075,5.101875 44.97825,5.101875 C33.31575,5.101875 23.82825,14.585625 23.82825,26.251875 C23.82825,32.270625 26.397,37.996875 30.8745,41.964375 L29.082,43.985625 Z" id="Fill-4" fill="#0062FF"></path>
                <path d="M37.4865,25.78125 C37.4865,21.33375 40.56525,18.28125 44.9865,18.28125 C49.4115,18.28125 52.49025,21.33375 52.49025,25.78125 L52.49025,55.78125 L78.4215,55.78125 C86.859,55.78125 93.74775,61.56 93.74775,69.94125 L93.74775,84.97875 C93.74775,102.57375 88.89525,115.78125 62.88525,115.78125 C44.7765,115.78125 36.2415,108.0675 24.88275,95.235 C21.714,91.65 11.98275,81.1125 11.98275,81.1125 C8.8665,77.6025 3.74775,72.3375 3.74775,70.725 C3.74775,65.85375 15.82275,63.1875 21.71775,67.71375 C26.2815,71.21625 37.4865,83.90625 37.4865,83.90625 L37.4865,25.78125 Z" id="Fill-6" fill="#EBF4FF"></path>
                <path d="M12.99225,80.6835 C12.996,80.68725 22.7235,91.22475 25.89225,94.80975 C36.636,106.94475 45.01725,114.8985 62.886,114.8985 C87.381,114.8985 92.3985,103.1235 92.3985,85.44975 L92.3985,70.41225 C92.3985,63.10725 86.391,57.60225 78.42225,57.60225 L52.48725,57.60225 C51.741,57.60225 51.13725,56.9985 51.13725,56.2485 L51.13725,26.2485 C51.13725,22.5735 48.666,20.10225 44.98725,20.10225 C41.3085,20.10225 38.83725,22.5735 38.83725,26.2485 L38.83725,84.3735 C38.83725,84.936 38.4885,85.44225 37.9635,85.63725 C37.4385,85.836 36.84225,85.68975 36.47475,85.26975 C36.36225,85.14225 25.3035,72.636 20.89725,69.24975 C17.4285,66.591 11.1885,66.726 7.536,68.52975 C5.98725,69.291 5.10225,70.266 5.10225,71.196 C5.316,72.2235 9.08475,76.371 11.10975,78.5985 L12.99225,80.6835 Z M62.886,117.60225 C43.88475,117.60225 35.10225,109.28475 23.871,96.59475 C20.706,93.021 10.9935,82.49475 10.9935,82.49475 L9.111,80.41725 C4.551,75.396 2.3985,72.84975 2.3985,71.196 C2.3985,69.16725 3.801,67.35975 6.3435,66.10725 C10.7985,63.90975 18.07725,63.681 22.53975,67.11225 C25.896,69.68475 32.56725,76.89975 36.1335,80.84475 L36.1335,26.2485 C36.1335,21.03975 39.77475,17.3985 44.98725,17.3985 C50.19975,17.3985 53.841,21.03975 53.841,26.2485 L53.841,54.8985 L78.42225,54.8985 C87.9285,54.8985 95.10225,61.566 95.10225,70.41225 L95.10225,85.44975 C95.10225,102.1485 91.19475,117.60225 62.886,117.60225 Z" id="Fill-8" fill="#0062FF"></path>
            </g>
        </g>
        <g id="Group-25-Copy-3" transform="translate(496.000000, 297.000000)">
            <polygon id="Fill-1" fill="#FFFFFF" points="0 120 119.99625 120 119.99625 0 0 0"></polygon>
            <polygon id="Fill-2" fill="#EBF4FF" points="7.5 116.25 112.5 116.25 112.5 15 7.5 15"></polygon>
            <polygon id="Fill-3" fill="#C1DFFF" points="56.25 48.28125 63.75 48.28125 63.75 40.78125 56.25 40.78125"></polygon>
            <polygon id="Fill-4" fill="#FFFFFF" points="56.25 74.53125 63.75 74.53125 63.75 67.03125 56.25 67.03125"></polygon>
            <polygon id="Fill-5" fill="#FFFFFF" points="56.25 100.78125 63.75 100.78125 63.75 93.28125 56.25 93.28125"></polygon>
            <polygon id="Fill-6" fill="#C1DFFF" points="26.25 48.28125 33.75 48.28125 33.75 40.78125 26.25 40.78125"></polygon>
            <polygon id="Fill-7" fill="#C1DFFF" points="26.25 74.53125 33.75 74.53125 33.75 67.03125 26.25 67.03125"></polygon>
            <polygon id="Fill-8" fill="#FFFFFF" points="26.25 100.78125 33.75 100.78125 33.75 93.28125 26.25 93.28125"></polygon>
            <polygon id="Fill-9" fill="#FFFFFF" points="86.24625 48.28125 93.74625 48.28125 93.74625 40.78125 86.24625 40.78125"></polygon>
            <polygon id="Fill-10" fill="#C1DFFF" points="86.24625 74.53125 93.74625 74.53125 93.74625 67.03125 86.24625 67.03125"></polygon>
            <polygon id="Fill-11" fill="#C1DFFF" points="86.24625 100.78125 93.74625 100.78125 93.74625 93.28125 86.24625 93.28125"></polygon>
            <g id="Group-24">
                <path d="M111.148125,114.8985 L8.851875,114.8985 L8.851875,16.35225 L28.644375,16.35225 L28.644375,26.2485 L31.348125,26.2485 L31.348125,16.35225 L58.648125,16.35225 L58.648125,26.2485 L61.351875,26.2485 L61.351875,16.35225 L88.644375,16.35225 L88.644375,26.2485 L91.348125,26.2485 L91.348125,16.35225 L111.148125,16.35225 L111.148125,114.8985 Z M112.498125,13.6485 L91.348125,13.6485 L91.348125,3.7485 L88.644375,3.7485 L88.644375,13.6485 L61.351875,13.6485 L61.351875,3.7485 L58.648125,3.7485 L58.648125,13.6485 L31.348125,13.6485 L31.348125,3.7485 L28.644375,3.7485 L28.644375,13.6485 L7.498125,13.6485 C6.755625,13.6485 6.148125,14.25225 6.148125,14.9985 L6.148125,116.2485 C6.148125,116.9985 6.755625,117.60225 7.498125,117.60225 L112.498125,117.60225 C113.244375,117.60225 113.851875,116.9985 113.851875,116.2485 L113.851875,14.9985 C113.851875,14.25225 113.244375,13.6485 112.498125,13.6485 Z" id="Fill-12" fill="#0062FF"></path>
                <mask id="mask-2" fill="white">
                    <use xlink:href="#path-1"></use>
                </mask>
                <g id="Clip-15"></g>
                <path d="M57.6,47.4 L62.4,47.4 L62.4,42.60375 L57.6,42.60375 L57.6,47.4 Z M63.75,50.1 L56.25,50.1 C55.50375,50.1 54.9,49.49625 54.9,48.75 L54.9,41.25 C54.9,40.50375 55.50375,39.9 56.25,39.9 L63.75,39.9 C64.49625,39.9 65.1,40.50375 65.1,41.25 L65.1,48.75 C65.1,49.49625 64.49625,50.1 63.75,50.1 Z" id="Fill-14" fill="#0062FF" mask="url(#mask-2)"></path>
                <path d="M57.6,73.65 L62.4,73.65 L62.4,68.85375 L57.6,68.85375 L57.6,73.65 Z M63.75,76.35 L56.25,76.35 C55.50375,76.35 54.9,75.74625 54.9,75 L54.9,67.5 C54.9,66.75375 55.50375,66.15 56.25,66.15 L63.75,66.15 C64.49625,66.15 65.1,66.75375 65.1,67.5 L65.1,75 C65.1,75.74625 64.49625,76.35 63.75,76.35 Z" id="Fill-16" fill="#0062FF" mask="url(#mask-2)"></path>
                <path d="M57.6,99.9 L62.4,99.9 L62.4,95.10375 L57.6,95.10375 L57.6,99.9 Z M63.75,102.6 L56.25,102.6 C55.50375,102.6 54.9,101.99625 54.9,101.25 L54.9,93.75 C54.9,93.00375 55.50375,92.4 56.25,92.4 L63.75,92.4 C64.49625,92.4 65.1,93.00375 65.1,93.75 L65.1,101.25 C65.1,101.99625 64.49625,102.6 63.75,102.6 Z" id="Fill-17" fill="#0062FF" mask="url(#mask-2)"></path>
                <path d="M27.6,47.4 L32.4,47.4 L32.4,42.60375 L27.6,42.60375 L27.6,47.4 Z M33.75,50.1 L26.25,50.1 C25.50375,50.1 24.9,49.49625 24.9,48.75 L24.9,41.25 C24.9,40.50375 25.50375,39.9 26.25,39.9 L33.75,39.9 C34.49625,39.9 35.1,40.50375 35.1,41.25 L35.1,48.75 C35.1,49.49625 34.49625,50.1 33.75,50.1 Z" id="Fill-18" fill="#0062FF" mask="url(#mask-2)"></path>
                <path d="M27.6,73.65 L32.4,73.65 L32.4,68.85375 L27.6,68.85375 L27.6,73.65 Z M33.75,76.35 L26.25,76.35 C25.50375,76.35 24.9,75.74625 24.9,75 L24.9,67.5 C24.9,66.75375 25.50375,66.15 26.25,66.15 L33.75,66.15 C34.49625,66.15 35.1,66.75375 35.1,67.5 L35.1,75 C35.1,75.74625 34.49625,76.35 33.75,76.35 Z" id="Fill-19" fill="#0062FF" mask="url(#mask-2)"></path>
                <path d="M27.6,99.9 L32.4,99.9 L32.4,95.10375 L27.6,95.10375 L27.6,99.9 Z M33.75,102.6 L26.25,102.6 C25.50375,102.6 24.9,101.99625 24.9,101.25 L24.9,93.75 C24.9,93.00375 25.50375,92.4 26.25,92.4 L33.75,92.4 C34.49625,92.4 35.1,93.00375 35.1,93.75 L35.1,101.25 C35.1,101.99625 34.49625,102.6 33.75,102.6 Z" id="Fill-20" fill="#0062FF" mask="url(#mask-2)"></path>
                <path d="M87.59625,47.4 L92.39625,47.4 L92.39625,42.60375 L87.59625,42.60375 L87.59625,47.4 Z M93.74625,50.1 L86.24625,50.1 C85.5,50.1 84.89625,49.49625 84.89625,48.75 L84.89625,41.25 C84.89625,40.50375 85.5,39.9 86.24625,39.9 L93.74625,39.9 C94.4925,39.9 95.09625,40.50375 95.09625,41.25 L95.09625,48.75 C95.09625,49.49625 94.4925,50.1 93.74625,50.1 Z" id="Fill-21" fill="#0062FF" mask="url(#mask-2)"></path>
                <path d="M87.59625,73.65 L92.39625,73.65 L92.39625,68.85375 L87.59625,68.85375 L87.59625,73.65 Z M93.74625,76.35 L86.24625,76.35 C85.5,76.35 84.89625,75.74625 84.89625,75 L84.89625,67.5 C84.89625,66.75375 85.5,66.15 86.24625,66.15 L93.74625,66.15 C94.4925,66.15 95.09625,66.75375 95.09625,67.5 L95.09625,75 C95.09625,75.74625 94.4925,76.35 93.74625,76.35 Z" id="Fill-22" fill="#0062FF" mask="url(#mask-2)"></path>
                <path d="M87.59625,99.9 L92.39625,99.9 L92.39625,95.10375 L87.59625,95.10375 L87.59625,99.9 Z M93.74625,102.6 L86.24625,102.6 C85.5,102.6 84.89625,101.99625 84.89625,101.25 L84.89625,93.75 C84.89625,93.00375 85.5,92.4 86.24625,92.4 L93.74625,92.4 C94.4925,92.4 95.09625,93.00375 95.09625,93.75 L95.09625,101.25 C95.09625,101.99625 94.4925,102.6 93.74625,102.6 Z" id="Fill-23" fill="#0062FF" mask="url(#mask-2)"></path>
            </g>
        </g>
        <g id="Group-19-Copy-5" transform="translate(312.000000, 297.000000)">
            <polygon id="Fill-1" fill="#FFFFFF" points="0 120 119.99625 120 119.99625 0 0 0"></polygon>
            <polygon id="Fill-2" fill="#C1DFFF" points="46.85625 30 73.10625 30 73.10625 3.75 46.85625 3.75"></polygon>
            <polygon id="Fill-3" fill="#C1DFFF" points="3.73125 116.25 29.98125 116.25 29.98125 90 3.73125 90"></polygon>
            <polygon id="Fill-4" fill="#C1DFFF" points="89.98125 73.125 116.23125 73.125 116.23125 46.875 89.98125 46.875"></polygon>
            <polygon id="Fill-5" fill="#EBF4FF" points="59.98275 93.28125 46.99275 115.78125 72.97275 115.78125"></polygon>
            <polygon id="Fill-6" fill="#EBF4FF" points="3.73275 70.782375 29.71275 70.782375 16.72275 48.282375"></polygon>
            <polygon id="Fill-7" fill="#EBF4FF" points="90.250875 25.780125 116.230875 25.780125 103.240875 3.283875"></polygon>
            <g id="Group-18" fill="#0062FF">
                <path d="M48.20625,28.63125 L71.75625,28.63125 L71.75625,5.085 L48.20625,5.085 L48.20625,28.63125 Z M73.10625,31.33125 L46.85625,31.33125 C46.11,31.33125 45.50625,30.7275 45.50625,29.98125 L45.50625,3.73125 C45.50625,2.985 46.11,2.38125 46.85625,2.38125 L73.10625,2.38125 C73.8525,2.38125 74.45625,2.985 74.45625,3.73125 L74.45625,29.98125 C74.45625,30.7275 73.8525,31.33125 73.10625,31.33125 Z" id="Fill-8"></path>
                <path d="M5.08125,114.88125 L28.63125,114.88125 L28.63125,91.335 L5.08125,91.335 L5.08125,114.88125 Z M29.98125,117.58125 L3.73125,117.58125 C2.985,117.58125 2.38125,116.9775 2.38125,116.23125 L2.38125,89.98125 C2.38125,89.235 2.985,88.63125 3.73125,88.63125 L29.98125,88.63125 C30.7275,88.63125 31.33125,89.235 31.33125,89.98125 L31.33125,116.23125 C31.33125,116.9775 30.7275,117.58125 29.98125,117.58125 Z" id="Fill-10"></path>
                <path d="M91.33125,71.75625 L114.88125,71.75625 L114.88125,48.21 L91.33125,48.21 L91.33125,71.75625 Z M116.23125,74.45625 L89.98125,74.45625 C89.235,74.45625 88.63125,73.8525 88.63125,73.10625 L88.63125,46.85625 C88.63125,46.11 89.235,45.50625 89.98125,45.50625 L116.23125,45.50625 C116.9775,45.50625 117.58125,46.11 117.58125,46.85625 L117.58125,73.10625 C117.58125,73.8525 116.9775,74.45625 116.23125,74.45625 Z" id="Fill-11"></path>
                <path d="M60.039375,48.266625 C53.548125,48.266625 48.264375,53.546625 48.264375,60.041625 C48.264375,66.532875 53.548125,71.812875 60.039375,71.812875 C66.530625,71.812875 71.814375,66.532875 71.814375,60.041625 C71.814375,53.546625 66.530625,48.266625 60.039375,48.266625 M60.039375,74.516625 C52.059375,74.516625 45.564375,68.021625 45.564375,60.041625 C45.564375,52.061625 52.059375,45.562875 60.039375,45.562875 C68.019375,45.562875 74.514375,52.061625 74.514375,60.041625 C74.514375,68.021625 68.019375,74.516625 60.039375,74.516625" id="Fill-12"></path>
                <path d="M101.406,91.45575 L100.99725,88.7895 C101.7285,88.69575 102.42225,89.1795 102.53475,89.9145 C102.64725,90.65325 102.14475,91.3395 101.406,91.45575 Z M108.531,92.4945 C108.38475,92.4945 108.23475,92.472 108.08475,92.42325 C107.4135,92.10075 107.01975,91.2495 107.34225,90.5745 C107.66475,89.90325 108.35475,89.562 109.02975,89.8995 L108.44475,91.1145 L109.03725,89.8995 C109.746,90.13575 110.07975,90.882 109.8435,91.59075 C109.656,92.1495 109.10475,92.4945 108.531,92.4945 Z M95.42475,94.182 L94.4385,93.252 L93.60225,92.1945 C94.16475,91.73325 95.0085,91.78575 95.4885,92.3295 C95.9685,92.87325 95.94975,93.6795 95.42475,94.182 Z M114.096,97.29825 C113.67975,97.29825 113.26725,97.10325 113.0085,96.732 L115.21725,95.18325 L114.0735,95.89575 L115.23225,95.202 C115.62975,95.82075 115.4685,96.65325 114.861,97.06575 C114.62475,97.22325 114.3585,97.29825 114.096,97.29825 Z M91.806,99.78825 L89.20725,99.0495 C89.4135,98.33325 90.1635,97.90575 90.876,98.12325 C91.596,98.32575 92.0085,99.07575 91.806,99.78825 Z M116.22975,104.532 C115.48725,104.532 114.87975,103.92825 114.87975,103.17825 C114.87975,103.152 114.87975,103.12575 114.8835,103.09575 L114.8835,103.0845 C114.93225,102.38325 115.51725,101.79075 116.22975,101.79075 C116.92725,101.79075 117.49725,102.28575 117.57225,102.957 L116.22975,102.957 L117.57225,102.957 C117.576,102.9645 117.576,102.97575 117.576,102.98325 L117.5835,102.98325 C117.5835,103.0095 117.5835,103.032 117.57975,103.05825 C117.57975,103.077 117.5835,103.092 117.5835,103.107 L117.5835,103.17825 C117.5835,103.92825 116.976,104.532 116.22975,104.532 Z M90.49725,108.18825 C89.94225,108.18825 89.43225,107.85825 89.2485,107.2995 C89.23725,107.26575 89.20725,107.1645 89.196,107.127 C89.01975,106.407 89.4585,105.67575 90.18225,105.492 C90.906,105.3195 91.63725,105.75075 91.81725,106.4745 C91.9935,107.1795 91.59225,107.9295 90.89475,108.132 C90.7635,108.17325 90.6285,108.18825 90.49725,108.18825 Z M114.11475,111.612 C113.8485,111.612 113.5785,111.5295 113.34225,111.3645 C112.731,110.937 112.58475,110.09325 113.0085,109.48575 C113.43225,108.88575 114.27225,108.69825 114.87975,109.10325 C115.491,109.5045 115.68975,110.292 115.29975,110.91075 C115.2885,110.93325 115.236,111.012 115.221,111.03075 C114.9585,111.4095 114.54225,111.612 114.11475,111.612 Z M94.51725,114.40575 C94.236,114.40575 93.951,114.312 93.70725,114.117 C93.681,114.0945 93.59475,114.0195 93.56475,113.99325 C93.02475,113.48325 93.006,112.6245 93.51975,112.0845 C94.0335,111.5445 94.8885,111.52575 95.4285,112.0395 C95.9535,112.53825 96.01725,113.382 95.541,113.9295 C95.271,114.24075 94.89225,114.40575 94.51725,114.40575 Z M108.516,116.42325 C107.946,116.42325 107.4135,116.05575 107.22975,115.482 C107.00475,114.7695 107.39475,114.012 108.10725,113.787 C108.771,113.44575 109.521,113.7495 109.85475,114.41325 C110.1885,115.08075 109.85475,115.917 109.18725,116.25075 C109.12725,116.28075 108.996,116.33325 108.9285,116.35575 C108.78975,116.40075 108.65475,116.42325 108.516,116.42325 Z M101.2785,117.45825 C101.21475,117.45825 101.14725,117.45075 101.0835,117.44325 C101.07975,117.44325 101.00475,117.42825 101.001,117.42825 C100.266,117.31575 99.75975,116.62575 99.87225,115.89075 C99.98475,115.15575 100.67475,114.6495 101.4135,114.762 C102.1485,114.87825 102.6885,115.56825 102.57975,116.30325 C102.4785,116.97075 101.931,117.45825 101.2785,117.45825 Z" id="Fill-13"></path>
                <path d="M16.855875,5.083125 C10.364625,5.083125 5.080875,10.363125 5.080875,16.858125 C5.080875,23.349375 10.364625,28.629375 16.855875,28.629375 C23.347125,28.629375 28.630875,23.349375 28.630875,16.858125 C28.630875,10.363125 23.347125,5.083125 16.855875,5.083125 M16.855875,31.333125 C8.875875,31.333125 2.380875,24.838125 2.380875,16.858125 C2.380875,8.878125 8.875875,2.379375 16.855875,2.379375 C24.835875,2.379375 31.330875,8.878125 31.330875,16.858125 C31.330875,24.838125 24.835875,31.333125 16.855875,31.333125" id="Fill-14"></path>
                <path d="M49.32975,114.8805 L70.6335,114.8805 L59.97975,96.4305 L49.32975,114.8805 Z M72.9735,117.58425 L46.98975,117.58425 C46.50975,117.58425 46.0635,117.32175 45.81975,116.9055 C45.57975,116.48925 45.57975,115.9755 45.81975,115.55925 L58.8135,93.05925 C59.2935,92.223 60.66975,92.223 61.14975,93.05925 L74.13975,115.55925 C74.3835,115.9755 74.3835,116.48925 74.13975,116.9055 C73.89975,117.32175 73.4535,117.58425 72.9735,117.58425 Z" id="Fill-15"></path>
                <path d="M6.069375,69.8805 L27.373125,69.8805 L16.723125,51.4305 L6.069375,69.8805 Z M29.713125,72.58425 L3.729375,72.58425 C3.249375,72.58425 2.803125,72.32175 2.563125,71.9055 C2.319375,71.48925 2.319375,70.9755 2.563125,70.55925 L15.553125,48.05925 C16.033125,47.223 17.409375,47.223 17.889375,48.05925 L30.883125,70.55925 C31.123125,70.9755 31.123125,71.48925 30.883125,71.9055 C30.639375,72.32175 30.196875,72.58425 29.713125,72.58425 Z" id="Fill-16"></path>
                <path d="M92.58825,24.8805 L113.892,24.8805 L103.242,6.4305 L92.58825,24.8805 Z M116.232,27.58425 L90.24825,27.58425 C89.76825,27.58425 89.322,27.32175 89.082,26.9055 C88.83825,26.48925 88.83825,25.9755 89.082,25.55925 L102.072,3.05925 C102.552,2.223 103.92825,2.223 104.40825,3.05925 L117.402,25.55925 C117.642,25.9755 117.642,26.48925 117.402,26.9055 C117.15825,27.32175 116.71575,27.58425 116.232,27.58425 Z" id="Fill-17"></path>
            </g>
        </g>
        <g id="Group-19-Copy-6" transform="translate(128.000000, 297.000000)">
            <polygon id="Fill-1" fill="#FFFFFF" points="0 120 119.99625 120 119.99625 0 0 0"></polygon>
            <polygon id="Fill-2" fill="#C1DFFF" points="71.25 18.75 116.25 18.75 116.25 3.75 71.25 3.75"></polygon>
            <polygon id="Fill-5" fill="#C1DFFF" points="71.25 116.25 116.25 116.25 116.25 101.25 71.25 101.25"></polygon>
            <polygon id="Fill-8" fill="#EBF4FF" points="3.75 86.25 48.75 86.25 48.75 33.75 3.75 33.75"></polygon>
            <g id="Group-18">
                <polygon id="Stroke-9" stroke="#000000" stroke-width="0.72" stroke-linecap="round" stroke-linejoin="round" points="3.75 86.25 48.75 86.25 48.75 33.75 3.75 33.75"></polygon>
                <path d="M5.1,84.90375 L47.4,84.90375 L47.4,35.1075 L5.1,35.1075 L5.1,84.90375 Z M48.75,87.60375 L3.75,87.60375 C3.00375,87.60375 2.4,87 2.4,86.25375 L2.4,33.75375 C2.4,33.0075 3.00375,32.40375 3.75,32.40375 L48.75,32.40375 C49.49625,32.40375 50.1,33.0075 50.1,33.75375 L50.1,86.25375 C50.1,87 49.49625,87.60375 48.75,87.60375 Z" id="Fill-11" fill="#0062FF"></path>
                <path d="M72.6,17.40375 L114.89625,17.40375 L114.89625,5.1075 L72.6,5.1075 L72.6,17.40375 Z M116.25,2.40375 L71.25,2.40375 C70.50375,2.40375 69.89625,3.0075 69.89625,3.75375 L69.89625,9.90375 L26.265,9.90375 C25.51875,9.90375 24.915,10.5075 24.915,11.25375 L24.915,33.75375 L27.615,33.75375 L27.615,12.60375 L69.89625,12.60375 L69.89625,18.75375 C69.89625,19.5 70.50375,20.10375 71.25,20.10375 L116.25,20.10375 C116.99625,20.10375 117.6,19.5 117.6,18.75375 L117.6,3.75375 C117.6,3.0075 116.99625,2.40375 116.25,2.40375 Z" id="Fill-12" fill="#0062FF"></path>
                <path d="M72.6,66.15375 L114.89625,66.15375 L114.89625,53.8575 L72.6,53.8575 L72.6,66.15375 Z M116.25,51.15375 L71.25,51.15375 C70.50375,51.15375 69.89625,51.7575 69.89625,52.50375 L69.89625,58.6575 L48.75,58.6575 L48.75,61.3575 L69.89625,61.3575 L69.89625,67.50375 C69.89625,68.25 70.50375,68.85375 71.25,68.85375 L116.25,68.85375 C116.99625,68.85375 117.6,68.25 117.6,67.50375 L117.6,52.50375 C117.6,51.7575 116.99625,51.15375 116.25,51.15375 Z" id="Fill-13" fill="#0062FF"></path>
                <path d="M72.6,114.90375 L114.89625,114.90375 L114.89625,102.6075 L72.6,102.6075 L72.6,114.90375 Z M116.25,99.90375 L71.25,99.90375 C70.50375,99.90375 69.89625,100.5075 69.89625,101.25375 L69.89625,107.40375 L27.6,107.40375 L27.6,86.25375 L24.89625,86.25375 L24.89625,108.75375 C24.89625,109.5 25.50375,110.10375 26.25,110.10375 L69.89625,110.10375 L69.89625,116.25375 C69.89625,117 70.50375,117.60375 71.25,117.60375 L116.25,117.60375 C116.99625,117.60375 117.6,117 117.6,116.25375 L117.6,101.25375 C117.6,100.5075 116.99625,99.90375 116.25,99.90375 Z" id="Fill-14" fill="#0062FF"></path>
                <polygon id="Fill-15" fill="#0062FF" points="11.265 50.10375 41.265 50.10375 41.265 47.4 11.265 47.4"></polygon>
                <polygon id="Fill-16" fill="#0062FF" points="11.265 61.35 41.265 61.35 41.265 58.64625 11.265 58.64625"></polygon>
                <polygon id="Fill-17" fill="#0062FF" points="11.265 72.60375 41.265 72.60375 41.265 69.9 11.265 69.9"></polygon>
            </g>
        </g>
        <g id="Group-11-Copy-5" transform="translate(680.000000, 105.000000)">
            <polygon id="Fill-1" fill="#FFFFFF" points="0 120 120 120 120 0 0 0"></polygon>
            <g id="Group-10" transform="translate(0.000000, 7.500000)">
                <path d="M39.514125,54.583875 C37.144125,52.213875 35.955375,49.112625 35.940375,46.007625 C35.925375,42.868875 37.117875,39.722625 39.514125,37.322625 C41.891625,34.948875 45.007875,33.756375 48.120375,33.748875 C51.251625,33.741375 54.386625,34.937625 56.775375,37.322625 L59.970375,40.521375 L63.165375,37.322625 C65.550375,34.941375 68.674125,33.748875 71.794125,33.748875 C74.917875,33.748875 78.041625,34.941375 80.426625,37.322625 C82.867875,39.763875 84.056625,42.977625 84.000375,46.176375 C83.944125,49.225125 82.755375,52.258875 80.426625,54.583875 L59.970375,75.040125 L39.514125,54.583875 Z" id="Fill-2" fill="#EBF4FF"></path>
                <path d="M106.151625,63.468 C101.081625,84.93675 82.110375,99.92925 60.022875,99.92925 C35.044125,99.92925 14.565375,80.493 12.795375,55.9605 L18.270375,61.43925 L20.179125,59.52675 L12.225375,51.573 C11.700375,51.04425 10.845375,51.04425 10.316625,51.573 L2.362875,59.52675 L4.271625,61.43925 L10.080375,55.62675 C11.692875,81.813 33.442875,102.62925 60.022875,102.62925 C83.370375,102.62925 103.417875,86.78175 108.780375,64.0905 L106.151625,63.468 Z" id="Fill-4" fill="#0062FF"></path>
                <path d="M115.785,43.615875 L109.97625,49.424625 C108.36375,23.242125 86.61375,2.425875 60.03375,2.425875 C36.68625,2.425875 16.635,18.273375 11.2725,40.964625 L13.905,41.587125 C18.975,20.118375 37.94625,5.125875 60.03375,5.125875 C85.0125,5.125875 105.49125,24.558375 107.26125,49.094625 L101.7825,43.615875 L99.87375,45.528375 L107.83125,53.482125 C108.09375,53.744625 108.43875,53.875875 108.78375,53.875875 C109.1325,53.875875 109.47375,53.744625 109.74,53.482125 L117.69375,45.528375 L115.785,43.615875 Z" id="Fill-6" fill="#0062FF"></path>
                <path d="M40.47,53.5875 L59.97,73.08375 L79.47375,53.58375 C81.4725,51.585 82.5975,48.93 82.65,46.1025 C82.7025,43.12875 81.57375,40.335 79.47375,38.23125 C75.3675,34.1325 68.22375,34.1325 64.12125,38.23125 L60.92625,41.43 C60.42,41.93625 59.52375,41.93625 59.0175,41.43 L55.8225,38.23125 C53.7675,36.18 51.04125,35.055 48.135,35.055 L48.12375,35.055 C45.2325,35.05875 42.51375,36.1875 40.47,38.23125 C38.4075,40.29375 37.27875,43.03875 37.29,45.95625 C37.305,48.83625 38.43375,51.54375 40.47,53.5875 M59.97,76.3425 C59.625,76.3425 59.28,76.21125 59.0175,75.94875 L38.56125,55.49625 C38.56125,55.49625 38.5575,55.49625 38.5575,55.4925 C36.01875,52.94625 34.60875,49.5675 34.59,45.97125 C34.575,42.3225 35.985,38.89875 38.5575,36.3225 C41.11125,33.7725 44.50875,32.3625 48.12,32.35125 L48.135,32.35125 C51.76125,32.35125 55.16625,33.76125 57.73125,36.3225 L59.97,38.565 L62.2125,36.3225 C64.77375,33.76125 68.17875,32.35125 71.7975,32.35125 C75.4125,32.35125 78.8175,33.76125 81.3825,36.3225 C84.0075,38.9475 85.41375,42.435 85.35,46.155 C85.28625,49.68 83.87625,52.99875 81.3825,55.49625 L60.92625,75.94875 C60.66,76.21125 60.315,76.3425 59.97,76.3425" id="Fill-8" fill="#0062FF"></path>
            </g>
        </g>
        <g id="Group-19-Copy-7" transform="translate(496.000000, 105.000000)">
            <polygon id="Fill-1" fill="#FFFFFF" points="0 120 120 120 120 0 0 0"></polygon>
            <g id="Group-18">
                <path d="M93.75,48.922125 L26.25,48.922125 C13.875,48.922125 3.75,38.797125 3.75,26.422125 C3.75,14.043375 13.875,3.922125 26.25,3.922125 L93.75,3.922125 C106.125,3.922125 116.25,14.043375 116.25,26.422125 C116.25,38.797125 106.125,48.922125 93.75,48.922125" id="Fill-2" fill="#EBF4FF"></path>
                <path d="M93.75,116.25 L26.25,116.25 C13.875,116.25 3.75,106.125 3.75,93.75 C3.75,81.375 13.875,71.25 26.25,71.25 L93.75,71.25 C106.125,71.25 116.25,81.375 116.25,93.75 C116.25,106.125 106.125,116.25 93.75,116.25" id="Fill-4" fill="#C1DFFF"></path>
                <path d="M37.5,26.25 C37.5,32.46375 32.46375,37.5 26.25,37.5 C20.03625,37.5 15,32.46375 15,26.25 C15,20.03625 20.03625,15 26.25,15 C32.46375,15 37.5,20.03625 37.5,26.25" id="Fill-6" fill="#FFFFFF"></path>
                <path d="M105,93.75 C105,99.96375 99.96375,105 93.75,105 C87.53625,105 82.5,99.96375 82.5,93.75 C82.5,87.53625 87.53625,82.5 93.75,82.5 C99.96375,82.5 105,87.53625 105,93.75" id="Fill-8" fill="#FFFFFF"></path>
                <path d="M26.25,5.1855 C14.5875,5.1855 5.1,14.66925 5.1,26.3355 C5.1,37.998 14.5875,47.48175 26.25,47.48175 L93.75,47.48175 C105.4125,47.48175 114.9,37.998 114.9,26.3355 C114.9,14.66925 105.4125,5.1855 93.75,5.1855 L26.25,5.1855 Z M93.75,50.1855 L26.25,50.1855 C13.09875,50.1855 2.4,39.483 2.4,26.3355 C2.4,13.18425 13.09875,2.48175 26.25,2.48175 L93.75,2.48175 C106.90125,2.48175 117.6,13.18425 117.6,26.3355 C117.6,39.483 106.90125,50.1855 93.75,50.1855 Z" id="Fill-10" fill="#0062FF"></path>
                <path d="M26.25,72.517125 C14.5875,72.517125 5.1,82.000875 5.1,93.667125 C5.1,105.329625 14.5875,114.813375 26.25,114.813375 L93.75,114.813375 C105.4125,114.813375 114.9,105.329625 114.9,93.667125 C114.9,82.000875 105.4125,72.517125 93.75,72.517125 L26.25,72.517125 Z M93.75,117.517125 L26.25,117.517125 C13.09875,117.517125 2.4,106.814625 2.4,93.667125 C2.4,80.515875 13.09875,69.813375 26.25,69.813375 L93.75,69.813375 C106.90125,69.813375 117.6,80.515875 117.6,93.667125 C117.6,106.814625 106.90125,117.517125 93.75,117.517125 Z" id="Fill-12" fill="#0062FF"></path>
                <path d="M26.25,16.4355 C20.79,16.4355 16.35,20.8755 16.35,26.3355 C16.35,31.7955 20.79,36.23175 26.25,36.23175 C31.71,36.23175 36.15,31.7955 36.15,26.3355 C36.15,20.8755 31.71,16.4355 26.25,16.4355 M26.25,38.9355 C19.30125,38.9355 13.65,33.2805 13.65,26.3355 C13.65,19.38675 19.30125,13.73175 26.25,13.73175 C33.19875,13.73175 38.85,19.38675 38.85,26.3355 C38.85,33.2805 33.19875,38.9355 26.25,38.9355" id="Fill-14" fill="#0062FF"></path>
                <path d="M93.75,83.9355 C88.29,83.9355 83.85,88.3755 83.85,93.8355 C83.85,99.2955 88.29,103.73175 93.75,103.73175 C99.21,103.73175 103.65,99.2955 103.65,93.8355 C103.65,88.3755 99.21,83.9355 93.75,83.9355 M93.75,106.4355 C86.80125,106.4355 81.15,100.7805 81.15,93.8355 C81.15,86.88675 86.80125,81.23175 93.75,81.23175 C100.69875,81.23175 106.35,86.88675 106.35,93.8355 C106.35,100.7805 100.69875,106.4355 93.75,106.4355" id="Fill-16" fill="#0062FF"></path>
            </g>
        </g>
        <g id="Group-18-Copy-2" transform="translate(312.000000, 105.000000)">
            <polygon id="Fill-1" fill="#FFFFFF" points="0 120 120 120 120 0 0 0"></polygon>
            <polygon id="Fill-2" fill="#C1DFFF" points="72.989625 52.5 59.999625 45 47.009625 52.5 47.009625 67.5 59.999625 75 72.989625 67.5"></polygon>
            <g id="Group-17" transform="translate(7.500000, 3.750000)">
                <path d="M61.875,11.227875 C61.875,16.406625 57.67875,20.602875 52.5,20.602875 C47.32125,20.602875 43.125,16.406625 43.125,11.227875 C43.125,6.049125 47.32125,1.852875 52.5,1.852875 C57.67875,1.852875 61.875,6.049125 61.875,11.227875" id="Fill-3" fill="#EBF4FF"></path>
                <path d="M61.875,101.227875 C61.875,106.406625 57.67875,110.602875 52.5,110.602875 C47.32125,110.602875 43.125,106.406625 43.125,101.227875 C43.125,96.049125 47.32125,91.852875 52.5,91.852875 C57.67875,91.852875 61.875,96.049125 61.875,101.227875" id="Fill-5" fill="#EBF4FF"></path>
                <path d="M22.904625,33.727875 C22.904625,38.906625 18.704625,43.102875 13.529625,43.102875 C8.350875,43.102875 4.154625,38.906625 4.154625,33.727875 C4.154625,28.549125 8.350875,24.352875 13.529625,24.352875 C18.704625,24.352875 22.904625,28.549125 22.904625,33.727875" id="Fill-7" fill="#EBF4FF"></path>
                <path d="M100.845375,33.727875 C100.845375,38.906625 96.649125,43.102875 91.470375,43.102875 C86.295375,43.102875 82.095375,38.906625 82.095375,33.727875 C82.095375,28.549125 86.295375,24.352875 91.470375,24.352875 C96.649125,24.352875 100.845375,28.549125 100.845375,33.727875" id="Fill-9" fill="#EBF4FF"></path>
                <path d="M22.904625,78.727875 C22.904625,83.906625 18.704625,88.102875 13.529625,88.102875 C8.350875,88.102875 4.154625,83.906625 4.154625,78.727875 C4.154625,73.549125 8.350875,69.352875 13.529625,69.352875 C18.704625,69.352875 22.904625,73.549125 22.904625,78.727875" id="Fill-11" fill="#EBF4FF"></path>
                <path d="M100.845375,78.727875 C100.845375,83.906625 96.649125,88.102875 91.470375,88.102875 C86.295375,88.102875 82.095375,83.906625 82.095375,78.727875 C82.095375,73.549125 86.295375,69.352875 91.470375,69.352875 C96.649125,69.352875 100.845375,73.549125 100.845375,78.727875" id="Fill-13" fill="#EBF4FF"></path>
                <path d="M91.470375,86.945625 C87.045375,86.945625 83.445375,83.345625 83.445375,78.920625 C83.445375,74.499375 87.045375,70.899375 91.470375,70.899375 C95.895375,70.899375 99.495375,74.499375 99.495375,78.920625 C99.495375,83.345625 95.895375,86.945625 91.470375,86.945625 Z M61.001625,94.955625 C59.299125,92.724375 56.764125,91.205625 53.850375,90.830625 L53.850375,72.200625 L65.490375,65.476875 L81.585375,74.773125 C81.045375,76.048125 80.745375,77.454375 80.745375,78.920625 C80.745375,80.390625 81.045375,81.796875 81.585375,83.071875 L61.001625,94.955625 Z M52.500375,109.445625 C48.075375,109.445625 44.475375,105.845625 44.475375,101.420625 C44.475375,96.999375 48.075375,93.399375 52.500375,93.399375 C56.925375,93.399375 60.525375,96.999375 60.525375,101.420625 C60.525375,105.845625 56.925375,109.445625 52.500375,109.445625 Z M23.419125,83.071875 C23.955375,81.796875 24.255375,80.390625 24.255375,78.920625 C24.255375,77.454375 23.955375,76.048125 23.419125,74.773125 L39.510375,65.476875 L51.150375,72.200625 L51.150375,90.830625 C48.236625,91.205625 45.697875,92.724375 43.999125,94.955625 L23.419125,83.071875 Z M13.530375,86.945625 C9.105375,86.945625 5.505375,83.345625 5.505375,78.920625 C5.505375,74.499375 9.105375,70.899375 13.530375,70.899375 C17.955375,70.899375 21.555375,74.499375 21.555375,78.920625 C21.555375,83.345625 17.955375,86.945625 13.530375,86.945625 Z M5.505375,33.920625 C5.505375,29.499375 9.105375,25.899375 13.530375,25.899375 C17.955375,25.899375 21.555375,29.499375 21.555375,33.920625 C21.555375,38.345625 17.955375,41.945625 13.530375,41.945625 C9.105375,41.945625 5.505375,38.345625 5.505375,33.920625 Z M14.880375,68.330625 L14.880375,44.514375 C17.794125,44.139375 20.329125,42.620625 22.031625,40.385625 L38.160375,49.700625 L38.160375,63.140625 L22.031625,72.459375 C20.329125,70.224375 17.794125,68.705625 14.880375,68.330625 Z M43.999125,17.885625 C45.697875,20.120625 48.236625,21.639375 51.150375,22.014375 L51.150375,40.640625 L39.510375,47.364375 L23.419125,38.071875 C23.955375,36.796875 24.255375,35.390625 24.255375,33.920625 C24.255375,32.454375 23.955375,31.048125 23.419125,29.773125 L43.999125,17.885625 Z M52.500375,3.399375 C56.925375,3.399375 60.525375,6.999375 60.525375,11.420625 C60.525375,15.845625 56.925375,19.445625 52.500375,19.445625 C48.075375,19.445625 44.475375,15.845625 44.475375,11.420625 C44.475375,6.999375 48.075375,3.399375 52.500375,3.399375 Z M52.500375,69.860625 L40.860375,63.140625 L40.860375,49.700625 L52.500375,42.980625 L64.140375,49.700625 L64.140375,63.140625 L52.500375,69.860625 Z M81.585375,29.773125 C81.045375,31.048125 80.745375,32.454375 80.745375,33.920625 C80.745375,35.390625 81.045375,36.796875 81.585375,38.071875 L65.490375,47.364375 L53.850375,40.640625 L53.850375,22.014375 C56.764125,21.639375 59.299125,20.120625 61.001625,17.885625 L81.585375,29.773125 Z M91.470375,25.899375 C95.895375,25.899375 99.495375,29.499375 99.495375,33.920625 C99.495375,38.345625 95.895375,41.945625 91.470375,41.945625 C87.045375,41.945625 83.445375,38.345625 83.445375,33.920625 C83.445375,29.499375 87.045375,25.899375 91.470375,25.899375 Z M82.969125,72.459375 L66.840375,63.140625 L66.840375,49.700625 L82.969125,40.385625 C84.671625,42.620625 87.206625,44.139375 90.120375,44.514375 L90.120375,68.330625 C87.206625,68.705625 84.671625,70.224375 82.969125,72.459375 Z M92.820375,68.330625 L92.820375,44.514375 C98.092875,43.839375 102.195375,39.373125 102.195375,33.920625 C102.195375,28.006875 97.384125,23.195625 91.470375,23.195625 C87.994125,23.195625 84.930375,24.883125 82.969125,27.455625 L62.389125,15.571875 C62.925375,14.293125 63.225375,12.890625 63.225375,11.420625 C63.225375,5.506875 58.414125,0.695625 52.500375,0.695625 C46.586625,0.695625 41.775375,5.506875 41.775375,11.420625 C41.775375,12.890625 42.075375,14.293125 42.611625,15.571875 L22.027875,27.455625 C20.066625,24.883125 17.006625,23.195625 13.530375,23.195625 C7.616625,23.195625 2.805375,28.006875 2.805375,33.920625 C2.805375,39.373125 6.907875,43.839375 12.180375,44.514375 L12.180375,68.330625 C6.907875,69.005625 2.805375,73.468125 2.805375,78.920625 C2.805375,84.838125 7.616625,89.649375 13.530375,89.649375 C17.006625,89.649375 20.066625,87.961875 22.027875,85.389375 L42.611625,97.273125 C42.075375,98.548125 41.775375,99.954375 41.775375,101.420625 C41.775375,107.334375 46.586625,112.149375 52.500375,112.149375 C58.414125,112.149375 63.225375,107.334375 63.225375,101.420625 C63.225375,99.954375 62.925375,98.548125 62.389125,97.273125 L82.969125,85.389375 C84.930375,87.961875 87.994125,89.649375 91.470375,89.649375 C97.384125,89.649375 102.195375,84.838125 102.195375,78.920625 C102.195375,73.468125 98.092875,69.005625 92.820375,68.330625 Z" id="Fill-15" fill="#0062FF"></path>
            </g>
        </g>
        <g id="Group-9-Copy-2" transform="translate(128.000000, 105.000000)">
            <polygon id="Fill-1" fill="#FFFFFF" points="0 120 120 120 120 0 0 0"></polygon>
            <g id="Group-8" transform="translate(0.000000, 3.750000)">
                <path d="M116.182125,52.5 C116.182125,83.565 90.997125,108.75 59.932125,108.75 C28.867125,108.75 3.682125,83.565 3.682125,52.5 L116.182125,52.5 Z" id="Fill-2" fill="#EBF4FF"></path>
                <path d="M53.314875,52.5 L28.414875,9.375 L28.414875,9.3675 C25.324875,4.005 18.406125,2.1525 13.047375,5.24625 C7.688625,8.34375 5.836125,15.255 8.929875,20.6175 L8.937375,20.6175 L27.346125,52.5" id="Fill-4" fill="#C1DFFF"></path>
                <path d="M59.932125,107.4645 C30.112125,107.4645 5.767125,83.56575 5.047125,53.91825 L114.817125,53.91825 C114.097125,83.56575 89.752125,107.4645 59.932125,107.4645 Z M10.105875,20.01075 C10.102125,20.00325 10.094625,19.9995 10.090875,19.992 C8.782125,17.712 8.440875,15.05325 9.123375,12.4995 C9.809625,9.9345 11.444625,7.80075 13.724625,6.4845 C16.004625,5.16825 18.670875,4.82325 21.232125,5.51325 C23.797125,6.19575 25.930875,7.83075 27.247125,10.107 C27.247125,10.107 27.250875,10.11075 27.250875,10.1145 L27.247125,10.1145 L50.977125,51.2145 L28.124625,51.2145 L10.105875,20.01075 Z M116.182125,51.2145 L54.093375,51.2145 L29.594625,8.787 C29.590875,8.7795 29.590875,8.76825 29.587125,8.76075 C27.907125,5.8545 25.192125,3.777 21.933375,2.8995 C18.674625,2.03325 15.280875,2.46825 12.374625,4.14825 C9.468375,5.8245 7.390875,8.5395 6.517125,11.79825 C5.643375,15.06075 6.085875,18.4545 7.758375,21.357 C7.762125,21.3645 7.773375,21.36825 7.777125,21.37575 L25.004625,51.2145 L3.682125,51.2145 C2.935875,51.2145 2.332125,51.81825 2.332125,52.5645 C2.332125,84.327 28.169625,110.16825 59.932125,110.16825 C91.694625,110.16825 117.532125,84.327 117.532125,52.5645 C117.532125,51.81825 116.928375,51.2145 116.182125,51.2145 Z" id="Fill-6" fill="#0062FF"></path>
            </g>
        </g>
    </g>
</svg>