<svg xmlns="http://www.w3.org/2000/svg" viewBox="0 0 288 288"><g fill="none" fill-rule="evenodd"><path fill="#FFF" d="M0 0h288v288H0z"/><path fill="#FFF" d="M52 236h184V52H52z"/><path fill="#DAFBE4" d="M161.25 69.25h11.5v-11.5h-11.5zM98 92.25h23V69.244H98zm69 103.5h23v-23.006h-23z"/><path fill="#FAF1FF" d="M190 144h11.5v-11.5H190zm-57.5 28.75H144v-11.5h-11.5zm11.5-11.5h17.25V144H144zm69 11.5h17.25V155.5H213z"/><path fill="#DBFBFB" d="M213 92.25h11.5v-11.5H213zM75 109.5h11.5V98H75zm46 120.75h17.25V213H121zm-63.25-103.5H75V109.5H57.75zm138-17.25H213V92.25h-17.25zM75 144h17.25v-17.25H75z"/><path fill="#EBF4FF" d="M201.5 224.5h23v-23.006h-23zM63.5 167H75v-11.5H63.5zm57.5-34.5h11.5V121H121zm11.5-11.5H167V86.5h-34.5zM74 202.5h34.5V168H74z"/><path d="M203.57 222.43h18.86v-18.86h-18.86v18.86zm20.93 4.14h-23a2.069 2.069 0 01-2.07-2.07v-23.006c0-1.144.926-2.07 2.07-2.07h23c1.144 0 2.07.926 2.07 2.07V224.5c0 1.144-.926 2.07-2.07 2.07z" fill="#0062FF"/><path d="M192.07 141.93h7.36v-7.354h-7.36v7.354zm9.43 4.14H190a2.069 2.069 0 01-2.07-2.07v-11.5c0-1.144.926-2.07 2.07-2.07h11.5c1.144 0 2.07.926 2.07 2.07V144c0 1.144-.926 2.07-2.07 2.07z" fill="#8A3FFC"/><path d="M163.32 67.18h7.36v-7.354h-7.36v7.354zm9.43 4.14h-11.5a2.069 2.069 0 01-2.07-2.07v-11.5c0-1.144.926-2.07 2.07-2.07h11.5c1.144 0 2.07.926 2.07 2.07v11.5c0 1.144-.926 2.07-2.07 2.07zm-72.68 18.86h18.86V71.32h-18.86v18.86zM121 94.32H98a2.069 2.069 0 01-2.07-2.07V69.244c0-1.144.926-2.07 2.07-2.07h23c1.144 0 2.07.926 2.07 2.07V92.25c0 1.144-.926 2.07-2.07 2.07zm48.07 99.36h18.86v-18.86h-18.86v18.86zm20.93 4.14h-23a2.069 2.069 0 01-2.07-2.07v-23.006c0-1.144.926-2.07 2.07-2.07h23c1.144 0 2.07.926 2.07 2.07v23.006c0 1.144-.926 2.07-2.07 2.07z" fill="#198038"/><path d="M146.076 159.18h13.104v-13.104h-13.104v13.104zm-11.5 11.5h7.354v-7.354h-7.354v7.354zm26.674-28.75H144c-1.144 0-2.07.926-2.07 2.07v15.18h-9.43c-1.144 0-2.07.926-2.07 2.07v11.5c0 1.144.926 2.07 2.07 2.07H144c1.144 0 2.07-.926 2.07-2.07v-9.43h15.18c1.144 0 2.07-.926 2.07-2.07V144c0-1.144-.926-2.07-2.07-2.07z" fill="#8A3FFC"/><path d="M123.07 228.18h13.11v-13.104h-13.11v13.104zm15.18 4.14H121a2.069 2.069 0 01-2.07-2.07V213c0-1.144.926-2.07 2.07-2.07h17.25c1.144 0 2.07.926 2.07 2.07v17.25c0 1.144-.926 2.07-2.07 2.07z" fill="#007D79"/><path d="M215.07 170.68h13.11v-13.104h-13.11v13.104zm15.18 4.14H213a2.069 2.069 0 01-2.07-2.07V155.5c0-1.144.926-2.07 2.07-2.07h17.25c1.144 0 2.07.926 2.07 2.07v17.25c0 1.144-.926 2.07-2.07 2.07z" fill="#8A3FFC"/><path d="M215.076 90.18h7.354v-7.354h-7.354v7.354zm-17.25 17.25h13.104V94.326h-13.104v13.104zM224.5 78.68H213c-1.144 0-2.07.926-2.07 2.07v9.43h-15.18c-1.144 0-2.07.926-2.07 2.07v17.25c0 1.144.926 2.07 2.07 2.07H213c1.144 0 2.07-.926 2.07-2.07V94.32h9.43c1.144 0 2.07-.926 2.07-2.07v-11.5c0-1.144-.926-2.07-2.07-2.07zM77.076 141.93H90.18v-13.104H77.076v13.104zM59.82 124.674h13.104V111.57H59.82v13.104zm17.25-17.25h7.354v-7.354H77.07v7.354zm15.18 17.256H77.07v-13.11h9.43c1.144 0 2.07-.926 2.07-2.07V98c0-1.144-.926-2.07-2.07-2.07H75c-1.144 0-2.07.926-2.07 2.07v9.43H57.75c-1.144 0-2.07.926-2.07 2.07v17.25c0 1.144.926 2.07 2.07 2.07h15.18V144c0 1.144.926 2.07 2.07 2.07h17.25c1.144 0 2.07-.926 2.07-2.07v-17.25c0-1.144-.926-2.07-2.07-2.07z" fill="#007D79"/><path d="M134.576 118.93h30.354V88.576h-30.354v30.354zm-11.5 11.5h7.354v-7.354h-7.354v7.354zm43.924-46h-34.5c-1.144 0-2.07.926-2.07 2.07v32.43H121c-1.144 0-2.07.926-2.07 2.07v11.5c0 1.144.926 2.07 2.07 2.07h11.5c1.144 0 2.07-.926 2.07-2.07v-9.43H167c1.144 0 2.07-.926 2.07-2.07V86.5c0-1.144-.926-2.07-2.07-2.07zm-89.924 115h30.354v-30.354H77.076v30.354zM65.57 164.924h7.354v-7.354H65.57v7.354zm43.93.006H77.07v-9.43c0-1.144-.926-2.07-2.07-2.07H63.5c-1.144 0-2.07.926-2.07 2.07V167c0 1.144.926 2.07 2.07 2.07h9.43v32.43c0 1.144.926 2.07 2.07 2.07h34.5c1.144 0 2.07-.926 2.07-2.07V167c0-1.144-.926-2.07-2.07-2.07z" fill="#0062FF"/></g></svg>