<?xml version="1.0" encoding="UTF-8"?>
<svg width="288px" height="288px" viewBox="0 0 288 288" version="1.1" xmlns="http://www.w3.org/2000/svg" xmlns:xlink="http://www.w3.org/1999/xlink">
    <!-- Generator: Sketch 52.4 (67378) - http://www.bohemiancoding.com/sketch -->
    <title>Artboard</title>
    <desc>Created with Sketch.</desc>
    <g id="Artboard" stroke="none" stroke-width="1" fill="none" fill-rule="evenodd">
        <rect id="Rectangle-3-Copy-28" fill="#FFFFFF" x="0" y="0" width="288" height="288"></rect>
        <g id="Group-15" transform="translate(52.000000, 52.000000)">
            <polygon id="Fill-1" fill="#FFFFFF" points="0 184 184 184 184 0 0 0"></polygon>
            <g id="Group-14" transform="translate(3.000000, 3.000000)">
                <path d="M54.5,20 C54.5,29.522 46.77775,37.25 37.25,37.25 C27.72225,37.25 20,29.522 20,20 C20,10.47225 27.72225,2.75 37.25,2.75 C46.77775,2.75 54.5,10.47225 54.5,20" id="Fill-2" fill="#C1DFFF"></path>
                <path d="M158,89 C158,98.522 150.27775,106.25 140.75,106.25 C131.22225,106.25 123.5,98.522 123.5,89 C123.5,79.47225 131.22225,71.75 140.75,71.75 C150.27775,71.75 158,79.47225 158,89" id="Fill-4" fill="#FCD0D3"></path>
                <path d="M106.25,158 C106.25,167.522 98.52775,175.25 89,175.25 C79.47225,175.25 71.75,167.522 71.75,158 C71.75,148.47225 79.47225,140.75 89,140.75 C98.52775,140.75 106.25,148.47225 106.25,158" id="Fill-6" fill="#87EDED"></path>
                <path d="M37.252875,35.1777 C28.880875,35.1777 22.072875,28.3697 22.072875,19.9977 C22.072875,11.6257 28.880875,4.82345 37.252875,4.82345 C45.624875,4.82345 52.432875,11.6257 52.432875,19.9977 C52.432875,28.3697 45.624875,35.1777 37.252875,35.1777 M175.252875,17.9277 L56.365875,17.9277 C55.313625,8.2562 47.194625,0.6777 37.252875,0.6777 C27.311125,0.6777 19.192125,8.2562 18.139875,17.9277 L2.752875,17.9277 C1.608625,17.9277 0.682875,18.85345 0.682875,19.9977 C0.682875,21.1477 1.608625,22.07345 2.752875,22.07345 L18.139875,22.07345 C19.192125,31.7392 27.311125,39.32345 37.252875,39.32345 C47.194625,39.32345 55.313625,31.7392 56.365875,22.07345 L175.252875,22.07345 C176.397125,22.07345 177.322875,21.1477 177.322875,19.9977 C177.322875,18.85345 176.397125,17.9277 175.252875,17.9277" id="Fill-8" fill="#007E7A"></path>
                <path d="M140.752875,104.1777 C132.380875,104.1777 125.572875,97.3697 125.572875,88.9977 C125.572875,80.6257 132.380875,73.82345 140.752875,73.82345 C149.124875,73.82345 155.932875,80.6257 155.932875,88.9977 C155.932875,97.3697 149.124875,104.1777 140.752875,104.1777 M175.252875,86.9277 L159.865875,86.9277 C158.813625,77.2562 150.694625,69.6777 140.752875,69.6777 C130.811125,69.6777 122.692125,77.2562 121.639875,86.9277 L2.752875,86.9277 C1.608625,86.9277 0.682875,87.85345 0.682875,88.9977 C0.682875,90.1477 1.608625,91.07345 2.752875,91.07345 L121.639875,91.07345 C122.692125,100.7392 130.811125,108.32345 140.752875,108.32345 C150.694625,108.32345 158.813625,100.7392 159.865875,91.07345 L175.252875,91.07345 C176.397125,91.07345 177.322875,90.1477 177.322875,88.9977 C177.322875,87.85345 176.397125,86.9277 175.252875,86.9277" id="Fill-10" fill="#9E3DFF"></path>
                <path d="M89.002875,173.1777 C80.630875,173.1777 73.822875,166.3697 73.822875,157.9977 C73.822875,149.6257 80.630875,142.82345 89.002875,142.82345 C97.374875,142.82345 104.182875,149.6257 104.182875,157.9977 C104.182875,166.3697 97.374875,173.1777 89.002875,173.1777 M175.252875,155.9277 L108.115875,155.9277 C107.063625,146.2562 98.944625,138.6777 89.002875,138.6777 C79.061125,138.6777 70.942125,146.2562 69.889875,155.9277 L2.752875,155.9277 C1.608625,155.9277 0.682875,156.85345 0.682875,157.9977 C0.682875,159.1477 1.608625,160.07345 2.752875,160.07345 L69.889875,160.07345 C70.942125,169.7392 79.061125,177.32345 89.002875,177.32345 C98.944625,177.32345 107.063625,169.7392 108.115875,160.07345 L175.252875,160.07345 C176.397125,160.07345 177.322875,159.1477 177.322875,157.9977 C177.322875,156.85345 176.397125,155.9277 175.252875,155.9277" id="Fill-12" fill="#0062FF"></path>
            </g>
        </g>
    </g>
</svg>