<?xml version="1.0" encoding="UTF-8"?>
<svg width="288px" height="288px" viewBox="0 0 288 288" version="1.1" xmlns="http://www.w3.org/2000/svg" xmlns:xlink="http://www.w3.org/1999/xlink">
    <!-- Generator: Sketch 52.4 (67378) - http://www.bohemiancoding.com/sketch -->
    <title>Artboard</title>
    <desc>Created with Sketch.</desc>
    <g id="Artboard" stroke="none" stroke-width="1" fill="none" fill-rule="evenodd">
        <rect id="Rectangle-3-Copy-45" fill="#FFFFFF" x="0" y="0" width="288" height="288"></rect>
        <g id="Group-26-Copy" transform="translate(52.000000, 52.000000)">
            <polygon id="Fill-1" fill="#FFFFFF" points="0 184 184 184 184 0 0 0"></polygon>
            <g id="Group-25" transform="translate(5.000000, 5.750000)">
                <path d="M25.8085,147.43 L148.1685,147.43 L148.1685,25.07575 L25.8085,25.07575 L25.8085,147.43 Z M150.24425,151.57 L23.74425,151.57 C22.6,151.57 21.67425,150.64425 21.67425,149.5 L21.67425,23 C21.67425,21.85575 22.6,20.93 23.74425,20.93 L150.24425,20.93 C151.38275,20.93 152.3085,21.85575 152.3085,23 L152.3085,149.5 C152.3085,150.64425 151.38275,151.57 150.24425,151.57 Z" id="Fill-2" fill="#198038"></path>
                <path d="M60.32,112.93 L113.68,112.93 L113.68,59.57575 L60.32,59.57575 L60.32,112.93 Z M58.25,117.07 C57.10575,117.07 56.18,116.14425 56.18,115 L56.18,57.5 C56.18,56.35575 57.10575,55.43 58.25,55.43 L115.75,55.43 C116.89425,55.43 117.82,56.35575 117.82,57.5 L117.82,115 C117.82,116.14425 116.89425,117.07 115.75,117.07 L58.25,117.07 Z" id="Fill-4" fill="#198038"></path>
                <polygon id="Fill-5" fill="#C1121A" points="130.9185 11.5 135.0585 11.5 135.0585 0 130.9185 0"></polygon>
                <polygon id="Fill-6" fill="#C1121A" points="107.9185 11.5 112.0585 11.5 112.0585 0 107.9185 0"></polygon>
                <polygon id="Fill-7" fill="#C1121A" points="84.9185 11.5 89.0585 11.5 89.0585 0 84.9185 0"></polygon>
                <polygon id="Fill-8" fill="#C1121A" points="38.9185 11.5 43.0585 11.5 43.0585 0 38.9185 0"></polygon>
                <polygon id="Fill-9" fill="#C1121A" points="61.9185 11.5 66.0585 11.5 66.0585 0 61.9185 0"></polygon>
                <polygon id="Fill-10" fill="#C1121A" points="130.9185 172.5 135.0585 172.5 135.0585 161 130.9185 161"></polygon>
                <polygon id="Fill-11" fill="#C1121A" points="107.9185 172.5 112.0585 172.5 112.0585 161 107.9185 161"></polygon>
                <polygon id="Fill-12" fill="#C1121A" points="84.9185 172.5 89.0585 172.5 89.0585 161 84.9185 161"></polygon>
                <polygon id="Fill-13" fill="#C1121A" points="38.9185 172.5 43.0585 172.5 43.0585 161 38.9185 161"></polygon>
                <polygon id="Fill-14" fill="#C1121A" points="61.9185 172.5 66.0585 172.5 66.0585 161 61.9185 161"></polygon>
                <polygon id="Fill-15" fill="#56D679" points="0.74425 42.32 12.24425 42.32 12.24425 38.17425 0.74425 38.17425"></polygon>
                <polygon id="Fill-16" fill="#56D679" points="0.74425 65.32 12.24425 65.32 12.24425 61.17425 0.74425 61.17425"></polygon>
                <polygon id="Fill-17" fill="#56D679" points="0.74425 88.32 12.24425 88.32 12.24425 84.17425 0.74425 84.17425"></polygon>
                <polygon id="Fill-18" fill="#56D679" points="0.74425 134.32 12.24425 134.32 12.24425 130.17425 0.74425 130.17425"></polygon>
                <polygon id="Fill-19" fill="#56D679" points="0.74425 111.32 12.24425 111.32 12.24425 107.17425 0.74425 107.17425"></polygon>
                <polygon id="Fill-20" fill="#56D679" points="161.74425 42.32 173.24425 42.32 173.24425 38.17425 161.74425 38.17425"></polygon>
                <polygon id="Fill-21" fill="#56D679" points="161.74425 65.32 173.24425 65.32 173.24425 61.17425 161.74425 61.17425"></polygon>
                <polygon id="Fill-22" fill="#56D679" points="161.74425 88.32 173.24425 88.32 173.24425 84.17425 161.74425 84.17425"></polygon>
                <polygon id="Fill-23" fill="#56D679" points="161.74425 134.32 173.24425 134.32 173.24425 130.17425 161.74425 130.17425"></polygon>
                <polygon id="Fill-24" fill="#56D679" points="161.74425 111.32 173.24425 111.32 173.24425 107.17425 161.74425 107.17425"></polygon>
            </g>
        </g>
    </g>
</svg>