<svg id="b24cafb8-d05a-4b65-8b55-1b46924a4159" data-name="Layer 1" xmlns="http://www.w3.org/2000/svg" xmlns:xlink="http://www.w3.org/1999/xlink" viewBox="0 0 288 288">
  <defs>
    <linearGradient id="f1aefed0-164f-403c-8d23-5d4c1ddb290e" x1="83.7" y1="180.217" x2="83.7" y2="159.979" gradientUnits="userSpaceOnUse">
      <stop offset="0.19" stop-color="#393939"/>
      <stop offset="1"/>
    </linearGradient>
    <linearGradient id="fbe9f0af-2e6d-4407-9891-bd6aed0e736b" x1="63.471" y1="177.329" x2="81.661" y2="159.138" gradientTransform="translate(140.213 -2.037) rotate(45)" gradientUnits="userSpaceOnUse">
      <stop offset="0"/>
      <stop offset="0.9" stop-color="#fff"/>
    </linearGradient>
    <linearGradient id="f1d5e321-f61f-4772-a1ca-ab439721ac5c" x1="46.127" y1="159.977" x2="64.32" y2="141.784" gradientTransform="translate(122.863 5.143) rotate(45)" xlink:href="#fbe9f0af-2e6d-4407-9891-bd6aed0e736b"/>
    <linearGradient id="fd5f140b-589a-426f-86b4-6bdfba023a3a" x1="41.156" y1="122.412" x2="118.383" y2="122.412" gradientUnits="userSpaceOnUse">
      <stop offset="0.5" stop-color="#fff"/>
      <stop offset="0.9" stop-color="#fff"/>
    </linearGradient>
    <linearGradient id="ec465e62-978f-4ef4-86bd-ff94ca34b730" x1="40.351" y1="183.104" x2="81.668" y2="141.787" gradientTransform="translate(132.735 4.439) rotate(45)" gradientUnits="userSpaceOnUse">
      <stop offset="0"/>
      <stop offset="0.17" stop-color="#393939"/>
      <stop offset="0.397" stop-color="#7f7f7f"/>
      <stop offset="0.602" stop-color="#b6b6b6"/>
      <stop offset="0.777" stop-color="#dedede"/>
      <stop offset="0.915" stop-color="#f6f6f6"/>
      <stop offset="1" stop-color="#fff"/>
    </linearGradient>
    <linearGradient id="ed7613b6-7ce0-451c-bf4f-b56211c5a8b4" x1="101.042" y1="182.298" x2="101.042" y2="102.989" gradientUnits="userSpaceOnUse">
      <stop offset="0.08" stop-color="#393939"/>
      <stop offset="0.305" stop-color="#7f7f7f"/>
      <stop offset="0.507" stop-color="#b6b6b6"/>
      <stop offset="0.679" stop-color="#dedede"/>
      <stop offset="0.816" stop-color="#f6f6f6"/>
      <stop offset="0.9" stop-color="#fff"/>
    </linearGradient>
    <mask id="fb006474-3038-4d04-b25f-6bf3e2a52f82" x="34.562" y="96.399" width="92.488" height="92.488" maskUnits="userSpaceOnUse">
      <g>
        <rect x="81.619" y="159.979" width="4.163" height="20.237" fill="url(#f1aefed0-164f-403c-8d23-5d4c1ddb290e)"/>
        <rect x="59.704" y="166.152" width="25.725" height="4.163" transform="translate(-97.705 100.586) rotate(-45)" fill="url(#fbe9f0af-2e6d-4407-9891-bd6aed0e736b)"/>
        <rect x="42.359" y="148.799" width="25.729" height="4.163" transform="translate(-90.514 83.241) rotate(-45)" fill="url(#f1d5e321-f61f-4772-a1ca-ab439721ac5c)"/>
        <path d="M63.473,141.835H43.237a2.081,2.081,0,0,1-1.784-3.153l8.671-14.451a2.077,2.077,0,0,1,1.783-1.011h25.15L88.5,111.774a29.8,29.8,0,0,1,21.208-8.785h8.671v4.163h-8.671a25.663,25.663,0,0,0-18.264,7.565L79.392,126.774a2.09,2.09,0,0,1-1.472.609H53.086l-6.174,10.289H63.473Z" fill="url(#fd5f140b-589a-426f-86b4-6bdfba023a3a)"/>
        <rect x="31.794" y="160.364" width="58.431" height="4.163" transform="translate(-96.997 90.719) rotate(-45)" fill="url(#ec465e62-978f-4ef4-86bd-ff94ca34b730)"/>
        <path d="M83.7,182.3a2.081,2.081,0,0,1-1.073-3.865l13.441-8.066V145.534a2.088,2.088,0,0,1,.609-1.472l12.057-12.057a25.658,25.658,0,0,0,7.566-18.264V105.07a2.082,2.082,0,0,1,4.163,0v8.671a29.8,29.8,0,0,1-8.785,21.208L100.233,146.4v25.15a2.082,2.082,0,0,1-1.01,1.784L84.771,182A2.066,2.066,0,0,1,83.7,182.3Z" fill="url(#ed7613b6-7ce0-451c-bf4f-b56211c5a8b4)"/>
      </g>
    </mask>
    <linearGradient id="b883f07c-6815-4926-9255-ce7670f1979a" x1="-5326.887" y1="-1360.562" x2="-5234.399" y2="-1453.05" gradientTransform="matrix(1, 0, 0, -1, 5361.449, -1264.162)" gradientUnits="userSpaceOnUse">
      <stop offset="0.1" stop-color="#be95ff"/>
      <stop offset="0.9" stop-color="#4589ff"/>
    </linearGradient>
  </defs>
  <rect width="288" height="288"/>
  <g>
    <path d="M145.62,124.156v-1.87h2.618v-14.91H145.62v-1.87H153.1v1.87h-2.619v14.91H153.1v1.87Z" fill="#fff"/>
    <path d="M157.189,105.506h7.668a4.959,4.959,0,0,1,3.648,1.309,5.336,5.336,0,0,1,1.029,5.264,3.7,3.7,0,0,1-.748,1.189,3.041,3.041,0,0,1-.989.695,4.606,4.606,0,0,1-.989.307v.161a3.761,3.761,0,0,1,1.136.266,3.682,3.682,0,0,1,1.189.762,4.362,4.362,0,0,1,.949,1.336,4.564,4.564,0,0,1,.387,1.964,6.174,6.174,0,0,1-.361,2.137,5.216,5.216,0,0,1-1,1.71,4.653,4.653,0,0,1-1.523,1.136,4.455,4.455,0,0,1-1.924.414h-8.47Zm2.245,8.069h5.156a3.019,3.019,0,0,0,2.085-.668,2.446,2.446,0,0,0,.748-1.924v-.908a2.449,2.449,0,0,0-.748-1.924,3.024,3.024,0,0,0-2.085-.668h-5.156Zm0,8.6h5.53a3.3,3.3,0,0,0,2.272-.735,2.725,2.725,0,0,0,.828-2.151v-.908a2.728,2.728,0,0,0-.828-2.152,3.309,3.309,0,0,0-2.272-.734h-5.53Z" fill="#fff"/>
    <path d="M189.173,108.445h-.134l-1.576,3.126L183,119.694l-4.461-8.123-1.577-3.126h-.134v15.711h-2.191v-18.65h2.993l5.344,10.047h.133l5.371-10.047h2.886v18.65h-2.191Z" fill="#fff"/>
    <path d="M146.5,151.9v-18.65h11.116v1.977h-8.871v6.252h8.1v1.978h-8.1V151.9Z" fill="#fff"/>
    <path d="M170.175,151.9a2.1,2.1,0,0,1-1.723-.641,3.171,3.171,0,0,1-.655-1.6h-.133a3.57,3.57,0,0,1-1.5,1.924,4.648,4.648,0,0,1-2.484.641,4.835,4.835,0,0,1-3.407-1.122,3.941,3.941,0,0,1-1.216-3.046,3.479,3.479,0,0,1,1.429-2.993,7.6,7.6,0,0,1,4.449-1.042h2.726v-1.363a2.982,2.982,0,0,0-.8-2.244,3.417,3.417,0,0,0-2.458-.775,3.7,3.7,0,0,0-2.1.561,4.616,4.616,0,0,0-1.4,1.5l-1.283-1.2a4.868,4.868,0,0,1,1.79-1.91,5.643,5.643,0,0,1,3.1-.789,5.7,5.7,0,0,1,3.9,1.226,4.318,4.318,0,0,1,1.389,3.414v7.571h1.577v1.9Zm-6.145-1.5a5.436,5.436,0,0,0,1.47-.187,3.6,3.6,0,0,0,1.148-.534,2.635,2.635,0,0,0,.748-.8,1.916,1.916,0,0,0,.268-.988v-2.272h-2.832a5.185,5.185,0,0,0-2.686.534,1.727,1.727,0,0,0-.842,1.55v.562a1.869,1.869,0,0,0,.735,1.576A3.2,3.2,0,0,0,164.03,150.407Z" fill="#fff"/>
    <path d="M178.565,152.224a6.45,6.45,0,0,1-3.22-.735,7.324,7.324,0,0,1-2.231-1.964l1.523-1.229a5.975,5.975,0,0,0,1.791,1.563,4.653,4.653,0,0,0,2.3.548,3.4,3.4,0,0,0,2.124-.588,2.136,2.136,0,0,0,.24-3.033,3.18,3.18,0,0,0-1.883-.788l-1.1-.16a9.235,9.235,0,0,1-1.764-.414,4.953,4.953,0,0,1-1.4-.748,3.232,3.232,0,0,1-.935-1.162,3.8,3.8,0,0,1-.334-1.658,3.99,3.99,0,0,1,.374-1.776,3.584,3.584,0,0,1,1.029-1.269,4.524,4.524,0,0,1,1.563-.762,7.234,7.234,0,0,1,1.951-.254,6.09,6.09,0,0,1,2.819.588,6.326,6.326,0,0,1,1.99,1.63l-1.416,1.283a4.24,4.24,0,0,0-1.336-1.163,4.3,4.3,0,0,0-2.217-.521,3.063,3.063,0,0,0-2.018.575,1.938,1.938,0,0,0-.681,1.563,1.638,1.638,0,0,0,.681,1.47,5.111,5.111,0,0,0,1.964.668l1.069.16a5.74,5.74,0,0,1,3.26,1.322,3.48,3.48,0,0,1,.961,2.552,3.9,3.9,0,0,1-1.362,3.153A5.626,5.626,0,0,1,178.565,152.224Z" fill="#fff"/>
    <path d="M190.3,151.9a2.187,2.187,0,0,1-1.7-.626,2.329,2.329,0,0,1-.575-1.64v-9.624h-2.271v-1.9h1.283a1.256,1.256,0,0,0,.948-.281,1.457,1.457,0,0,0,.254-.975v-2.565h1.924v3.821h3.019v1.9h-3.019v9.993h2.805v1.9Z" fill="#fff"/>
    <path d="M208.385,152.224a8.021,8.021,0,0,1-3.875-.869,8.21,8.21,0,0,1-2.725-2.391l1.656-1.389a7.274,7.274,0,0,0,2.191,1.99,5.645,5.645,0,0,0,2.833.682,4.392,4.392,0,0,0,3.059-.962,3.3,3.3,0,0,0,1.056-2.565,2.629,2.629,0,0,0-.8-2.058,6.043,6.043,0,0,0-2.645-1.148l-1.523-.348a8.849,8.849,0,0,1-3.915-1.777,4.23,4.23,0,0,1-1.349-3.353,5.07,5.07,0,0,1,.454-2.191,4.4,4.4,0,0,1,1.269-1.6,5.727,5.727,0,0,1,1.951-.974,8.817,8.817,0,0,1,2.5-.334,7.842,7.842,0,0,1,3.621.774,6.959,6.959,0,0,1,2.551,2.272l-1.683,1.228a5.817,5.817,0,0,0-1.87-1.683,5.507,5.507,0,0,0-2.726-.615,4.645,4.645,0,0,0-2.819.762,2.66,2.66,0,0,0-1.029,2.285,2.407,2.407,0,0,0,.869,2.017,6.718,6.718,0,0,0,2.632,1.082l1.523.347a7.925,7.925,0,0,1,3.981,1.87,4.575,4.575,0,0,1,1.229,3.341,5.912,5.912,0,0,1-.441,2.325,4.774,4.774,0,0,1-1.269,1.763,5.9,5.9,0,0,1-2.017,1.122A8.361,8.361,0,0,1,208.385,152.224Z" fill="#fff"/>
    <path d="M221.5,151.9a2.19,2.19,0,0,1-1.7-.626,2.333,2.333,0,0,1-.575-1.64v-9.624h-2.271v-1.9h1.283a1.255,1.255,0,0,0,.948-.281,1.452,1.452,0,0,0,.254-.975v-2.565h1.924v3.821h3.02v1.9h-3.02v9.993h2.806v1.9Z" fill="#fff"/>
    <path d="M237.856,151.9a2.1,2.1,0,0,1-1.723-.641,3.171,3.171,0,0,1-.655-1.6h-.134a3.564,3.564,0,0,1-1.5,1.924,4.654,4.654,0,0,1-2.485.641,4.832,4.832,0,0,1-3.406-1.122,3.941,3.941,0,0,1-1.216-3.046,3.479,3.479,0,0,1,1.429-2.993,7.6,7.6,0,0,1,4.449-1.042h2.725v-1.363a2.981,2.981,0,0,0-.8-2.244,3.42,3.42,0,0,0-2.459-.775,3.7,3.7,0,0,0-2.1.561,4.627,4.627,0,0,0-1.4,1.5l-1.282-1.2a4.861,4.861,0,0,1,1.79-1.91,5.64,5.64,0,0,1,3.1-.789,5.706,5.706,0,0,1,3.9,1.226,4.318,4.318,0,0,1,1.389,3.414v7.571h1.577v1.9Zm-6.146-1.5a5.431,5.431,0,0,0,1.47-.187,3.607,3.607,0,0,0,1.149-.534,2.635,2.635,0,0,0,.748-.8,1.915,1.915,0,0,0,.267-.988v-2.272h-2.832a5.181,5.181,0,0,0-2.685.534,1.727,1.727,0,0,0-.842,1.55v.562a1.866,1.866,0,0,0,.735,1.576A3.2,3.2,0,0,0,231.71,150.407Z" fill="#fff"/>
    <path d="M242.1,151.9V138.116h2.138v2.538h.134a4.158,4.158,0,0,1,1.336-1.763,4.1,4.1,0,0,1,2.645-.775h.829v2.138H247.93a4.827,4.827,0,0,0-2.712.654,1.932,1.932,0,0,0-.976,1.644V151.9Z" fill="#fff"/>
    <path d="M255.063,151.9a2.189,2.189,0,0,1-1.7-.626,2.329,2.329,0,0,1-.575-1.64v-9.624h-2.271v-1.9H251.8a1.255,1.255,0,0,0,.948-.281,1.457,1.457,0,0,0,.254-.975v-2.565h1.924v3.821h3.019v1.9H254.93v9.993h2.805v1.9Z" fill="#fff"/>
    <path d="M158.258,179.651H146.021v-2.3l6.092-5.612a13.55,13.55,0,0,0,2.191-2.559,4.944,4.944,0,0,0,.882-2.72v-.321a3.664,3.664,0,0,0-.855-2.52,3.289,3.289,0,0,0-2.592-.965,4.239,4.239,0,0,0-1.5.241,3.4,3.4,0,0,0-1.109.668,3.778,3.778,0,0,0-.775,1,6.185,6.185,0,0,0-.494,1.243l-2-.775a7.865,7.865,0,0,1,.735-1.616,5.413,5.413,0,0,1,2.886-2.37,7.673,7.673,0,0,1,4.8.031,4.8,4.8,0,0,1,2.9,2.83,5.956,5.956,0,0,1,.387,2.19,6.448,6.448,0,0,1-.307,2.028,7.927,7.927,0,0,1-.841,1.776,10.865,10.865,0,0,1-1.3,1.642q-.762.8-1.643,1.6l-5.024,4.526h9.806Z" fill="#fff"/>
    <path d="M168.064,179.972a5.277,5.277,0,0,1-4.876-2.538,17.2,17.2,0,0,1,0-14.215,5.953,5.953,0,0,1,9.752,0,17.2,17.2,0,0,1,0,14.215A5.277,5.277,0,0,1,168.064,179.972Zm0-1.977a3.649,3.649,0,0,0,1.871-.453,3.465,3.465,0,0,0,1.255-1.277,6.336,6.336,0,0,0,.708-1.945,12.43,12.43,0,0,0,.227-2.476v-3.035a12.434,12.434,0,0,0-.227-2.477,6.314,6.314,0,0,0-.708-1.943,3.463,3.463,0,0,0-1.255-1.279,4.088,4.088,0,0,0-3.741,0,3.466,3.466,0,0,0-1.256,1.279,6.314,6.314,0,0,0-.708,1.943,12.508,12.508,0,0,0-.227,2.477v3.035a12.505,12.505,0,0,0,.227,2.476,6.336,6.336,0,0,0,.708,1.945,3.468,3.468,0,0,0,1.256,1.277A3.641,3.641,0,0,0,168.064,178Z" fill="#fff"/>
    <path d="M190.322,179.651H178.084v-2.3l6.092-5.612a13.513,13.513,0,0,0,2.191-2.559,4.944,4.944,0,0,0,.882-2.72v-.321a3.66,3.66,0,0,0-.855-2.52,3.286,3.286,0,0,0-2.592-.965,4.233,4.233,0,0,0-1.5.241,3.384,3.384,0,0,0-1.109.668,3.737,3.737,0,0,0-.775,1,6.069,6.069,0,0,0-.494,1.243l-2-.775a7.865,7.865,0,0,1,.735-1.616,5.406,5.406,0,0,1,2.885-2.37,7.673,7.673,0,0,1,4.8.031,4.8,4.8,0,0,1,2.9,2.83,5.956,5.956,0,0,1,.387,2.19,6.477,6.477,0,0,1-.307,2.028,7.93,7.93,0,0,1-.842,1.776,10.74,10.74,0,0,1-1.3,1.642q-.762.8-1.643,1.6l-5.023,4.526h9.806Z" fill="#fff"/>
    <path d="M194.463,179.651v-1.977h5.21V162.657h-.187l-4.7,4.383-1.309-1.417L198.417,161h3.5v16.673h4.81v1.977Z" fill="#fff"/>
  </g>
  <g>
    <g mask="url(#fb006474-3038-4d04-b25f-6bf3e2a52f82)">
      <rect id="b42be43d-5be5-4672-8ee9-8227a4a931a8" data-name="hexagon" x="34.562" y="96.399" width="92.488" height="92.488" transform="translate(-61.838 223.449) rotate(-90)" fill="url(#b883f07c-6815-4926-9255-ce7670f1979a)"/>
    </g>
    <path d="M66.354,143.683a3.93,3.93,0,1,1,3.931-3.93A3.934,3.934,0,0,1,66.354,143.683Zm0-5.78a1.85,1.85,0,1,0,1.851,1.85A1.852,1.852,0,0,0,66.354,137.9Z" fill="#fff"/>
    <path d="M83.7,143.683a3.93,3.93,0,1,1,3.93-3.93A3.933,3.933,0,0,1,83.7,143.683Zm0-5.78a1.85,1.85,0,1,0,1.85,1.85A1.852,1.852,0,0,0,83.7,137.9Z" fill="#fff"/>
    <path d="M83.7,161.025a3.931,3.931,0,1,1,3.93-3.93A3.934,3.934,0,0,1,83.7,161.025Zm0-5.781a1.851,1.851,0,1,0,1.85,1.851A1.852,1.852,0,0,0,83.7,155.244Z" fill="#fff"/>
  </g>
</svg>
