<svg xmlns="http://www.w3.org/2000/svg" viewBox="0 0 288 432"><g fill="none" fill-rule="evenodd"><path fill="#FFF" d="M0 0h288v432H0z"/><path fill="#FFF" d="M24 116h48V68H24z"/><path fill="#000" d="M60.54 96.698h9.42V87.28h-9.42v9.418zm4.17 8.052c0 3.01-2.45 5.46-5.46 5.46h-5.46V104a.54.54 0 00-.54-.54h-4.696v-5.739a5.76 5.76 0 005.17-5.192h5.736v4.709a.54.54 0 00.54.541h4.71v6.971zm-21.42 9.21h9.42v-9.418h-9.42v9.418zm-12.54 0a4.716 4.716 0 01-4.71-4.71 4.716 4.716 0 014.71-4.71 4.716 4.716 0 014.71 4.71 4.716 4.716 0 01-4.71 4.71zm17.24-26.68a4.715 4.715 0 014.71 4.708 4.715 4.715 0 01-4.71 4.71 4.714 4.714 0 01-4.71-4.71 4.714 4.714 0 014.71-4.709zm-21.936-7.808h9.42v-9.418h-9.42v9.418zm19.486-9.037l7.38 4.261-7.38 4.262v-8.523zm15 4.315a4.716 4.716 0 014.71-4.71 4.716 4.716 0 014.71 4.71 4.716 4.716 0 01-4.71 4.71 4.716 4.716 0 01-4.71-4.71zm9.96 11.448h-4.71v-5.712c2.935-.277 5.25-2.729 5.25-5.736a5.797 5.797 0 00-5.79-5.79 5.797 5.797 0 00-5.79 5.79c0 3.008 2.315 5.459 5.25 5.736v5.712H60a.54.54 0 00-.54.54v4.71h-5.736c-.277-2.935-2.727-5.25-5.734-5.25-3.012 0-5.465 2.32-5.738 5.262H36.75c-3.01 0-5.46-2.45-5.46-5.46v-5.447h4.724a.54.54 0 00.54-.54v-4.71h7.906v4.589a.541.541 0 00.81.466l9-5.196a.54.54 0 000-.934l-9-5.196a.542.542 0 00-.81.468v4.722h-7.906v-4.709a.54.54 0 00-.54-.541h-10.5a.54.54 0 00-.54.541v10.5c0 .299.241.54.54.54h4.696V86a6.548 6.548 0 006.54 6.54h5.505a5.736 5.736 0 001.307 3.133l-9.138 9.14c-1.002-.833-2.271-1.353-3.674-1.353a5.797 5.797 0 00-5.79 5.79 5.797 5.797 0 005.79 5.79 5.797 5.797 0 005.79-5.79c0-1.401-.52-2.67-1.353-3.674l9.141-9.14a5.715 5.715 0 003.146 1.29v5.734H42.75a.54.54 0 00-.54.54v10.5c0 .298.241.54.54.54h10.5a.54.54 0 00.54-.54v-3.21h5.46a6.548 6.548 0 006.54-6.54v-6.97h4.71a.54.54 0 00.54-.542v-10.5a.54.54 0 00-.54-.54z"/><path fill="#6F6F6F" fill-rule="nonzero" d="M39.67 177v-1.644h1.212v-.84H39.67v-5.892h-1.5l-3.504 5.844v.888h4.044V177h.96zm-1.02-7.596h.06v5.112h-3.096l3.036-5.112zm6.68 7.74c1.908 0 2.904-1.044 2.904-2.424 0-1.14-.684-1.8-1.692-2.076v-.096c.876-.3 1.44-1.008 1.44-1.968 0-1.272-.984-2.1-2.652-2.1-1.668 0-2.652.828-2.652 2.1 0 .96.564 1.668 1.44 1.968v.096c-1.008.276-1.692.936-1.692 2.076 0 1.38.996 2.424 2.904 2.424zm0-.876c-1.164 0-1.836-.552-1.836-1.5v-.252c0-.948.672-1.5 1.836-1.5 1.164 0 1.836.552 1.836 1.5v.252c0 .948-.672 1.5-1.836 1.5zm0-4.092c-1.044 0-1.608-.468-1.608-1.32v-.18c0-.852.564-1.32 1.608-1.32s1.608.468 1.608 1.32v.18c0 .852-.564 1.32-1.608 1.32zm4.94 7.224h.96v-3.408h.048c.372.768.96 1.152 1.812 1.152 1.548 0 2.52-1.26 2.52-3.24 0-1.98-.972-3.24-2.52-3.24-.852 0-1.488.372-1.812 1.152h-.048v-1.008h-.96v8.592zm2.556-3.12c-.876 0-1.596-.456-1.596-1.26v-2.304c0-.684.72-1.188 1.596-1.188 1.08 0 1.752.744 1.752 1.848v1.056c0 1.104-.672 1.848-1.752 1.848zm3.812.72l2.292-3.12-2.196-3.072h1.128l1.572 2.304h.036l1.632-2.304h1.068l-2.184 3L62.218 177H61.09l-1.608-2.424h-.036L57.706 177h-1.068z"/><path fill="#FFF" d="M96 124h64V60H96z"/><path fill="#000" d="M144.72 98.264h12.56V85.706h-12.56v12.558zM150.28 109c0 4.014-3.266 7.28-7.28 7.28h-7.28V108a.72.72 0 00-.72-.72h-6.262v-7.652a7.68 7.68 0 006.894-6.922h7.648v6.278c0 .398.322.722.72.722h6.28V109zm-28.56 12.28h12.56v-12.558h-12.56v12.558zm-16.72 0a6.288 6.288 0 01-6.28-6.28 6.288 6.288 0 016.28-6.28 6.288 6.288 0 016.28 6.28 6.288 6.288 0 01-6.28 6.28zm22.986-35.574a6.286 6.286 0 016.28 6.278 6.287 6.287 0 01-6.28 6.28 6.286 6.286 0 01-6.28-6.28 6.285 6.285 0 016.28-6.278zm-29.248-10.41h12.56V62.738h-12.56v12.558zm25.982-12.05l9.84 5.682-9.84 5.682V63.246zm20 5.754a6.288 6.288 0 016.28-6.28 6.288 6.288 0 016.28 6.28 6.288 6.288 0 01-6.28 6.28 6.288 6.288 0 01-6.28-6.28zM158 84.264h-6.28v-7.616c3.914-.37 7-3.638 7-7.648 0-4.256-3.464-7.72-7.72-7.72s-7.72 3.464-7.72 7.72c0 4.01 3.086 7.278 7 7.648v7.616H144a.72.72 0 00-.72.72v6.28h-7.648c-.37-3.914-3.636-7-7.646-7-4.016 0-7.286 3.094-7.65 7.016H113c-4.014 0-7.28-3.266-7.28-7.28v-7.262h6.298a.72.72 0 00.72-.72v-6.28h10.542v6.118a.721.721 0 00.72.72c.124 0 .25-.034.36-.098l12-6.928a.719.719 0 000-1.246l-12-6.928a.719.719 0 00-1.08.624v6.296h-10.542v-6.278a.721.721 0 00-.72-.722h-14a.721.721 0 00-.72.722v14c0 .398.322.72.72.72h6.262V84c0 4.808 3.912 8.72 8.72 8.72h7.34a7.648 7.648 0 001.742 4.178l-12.184 12.186c-1.336-1.11-3.028-1.804-4.898-1.804-4.256 0-7.72 3.464-7.72 7.72s3.464 7.72 7.72 7.72 7.72-3.464 7.72-7.72c0-1.868-.694-3.56-1.804-4.898l12.188-12.188a7.62 7.62 0 004.194 1.72v7.646H121a.72.72 0 00-.72.72v14c0 .398.322.72.72.72h14a.72.72 0 00.72-.72v-4.28H143c4.808 0 8.72-3.912 8.72-8.72v-9.294H158c.398 0 .72-.324.72-.722v-14a.72.72 0 00-.72-.72z"/><path fill="#6F6F6F" fill-rule="nonzero" d="M117.822 177.144c1.68 0 2.784-1.128 2.784-2.772 0-1.584-1.032-2.58-2.472-2.58-1.02 0-1.62.516-2.016 1.2l-.06-.024c.456-1.944 1.452-3.036 3.24-4.344h-1.296c-1.344.876-2.988 2.82-2.988 5.304 0 1.992 1.068 3.216 2.808 3.216zm-.012-.876c-1.104 0-1.752-.636-1.752-1.764v-.096c0-1.128.648-1.764 1.752-1.764s1.752.636 1.752 1.764v.096c0 1.128-.648 1.764-1.752 1.764zm9.38.732v-1.644h1.212v-.84h-1.212v-5.892h-1.5l-3.504 5.844v.888h4.044V177h.96zm-1.02-7.596h.06v5.112h-3.096l3.036-5.112zm4.1 9.996h.96v-3.408h.048c.372.768.96 1.152 1.812 1.152 1.548 0 2.52-1.26 2.52-3.24 0-1.98-.972-3.24-2.52-3.24-.852 0-1.488.372-1.812 1.152h-.048v-1.008h-.96v8.592zm2.556-3.12c-.876 0-1.596-.456-1.596-1.26v-2.304c0-.684.72-1.188 1.596-1.188 1.08 0 1.752.744 1.752 1.848v1.056c0 1.104-.672 1.848-1.752 1.848zm3.812.72l2.292-3.12-2.196-3.072h1.128l1.572 2.304h.036l1.632-2.304h1.068l-2.184 3 2.232 3.192h-1.128l-1.608-2.424h-.036l-1.74 2.424h-1.068z"/><path fill="#FFF" d="M184 132h80V52h-80z"/><path fill="#000" d="M244.9 99.83h15.7V84.133h-15.7V99.83zm6.95 13.42c0 5.017-4.082 9.1-9.1 9.1h-9.1V112a.9.9 0 00-.9-.9h-7.828v-9.565a9.6 9.6 0 008.618-8.652h9.56v7.847c0 .497.403.902.9.902h7.85v11.618zm-35.7 15.35h15.7v-15.697h-15.7V128.6zm-20.9 0c-4.327 0-7.85-3.522-7.85-7.85 0-4.328 3.522-7.85 7.85-7.85 4.328 0 7.85 3.523 7.85 7.85 0 4.328-3.523 7.85-7.85 7.85zm28.733-44.467c4.327 0 7.85 3.52 7.85 7.847 0 4.33-3.523 7.85-7.85 7.85-4.33 0-7.85-3.52-7.85-7.85 0-4.328 3.52-7.848 7.85-7.848zm-36.56-13.013h15.7V55.422h-15.7V71.12zM219.9 56.057l12.3 7.103-12.3 7.102V56.057zm25 7.193c0-4.328 3.523-7.85 7.85-7.85 4.328 0 7.85 3.522 7.85 7.85 0 4.327-3.522 7.85-7.85 7.85-4.327 0-7.85-3.523-7.85-7.85zm16.6 19.08h-7.85v-9.52c4.892-.463 8.75-4.548 8.75-9.56 0-5.32-4.33-9.65-9.65-9.65s-9.65 4.33-9.65 9.65c0 5.012 3.857 9.097 8.75 9.56v9.52H244a.9.9 0 00-.9.9v7.85h-9.56c-.463-4.893-4.545-8.75-9.558-8.75-5.02 0-9.107 3.867-9.562 8.77h-9.17c-5.018 0-9.1-4.083-9.1-9.1v-9.078h7.872a.9.9 0 00.9-.9v-7.85H218.1v7.648c0 .323.17.618.45.778a.9.9 0 00.45.122.902.902 0 00.45-.122l15-8.66a.899.899 0 000-1.558l-15-8.66a.899.899 0 00-1.35.78v7.87h-13.178v-7.847a.902.902 0 00-.9-.903h-17.5c-.497 0-.9.405-.9.903v17.5a.9.9 0 00.9.9h7.828V82c0 6.01 4.89 10.9 10.9 10.9h9.175a9.56 9.56 0 002.177 5.223l-15.23 15.232c-1.67-1.387-3.785-2.255-6.122-2.255-5.32 0-9.65 4.33-9.65 9.65s4.33 9.65 9.65 9.65 9.65-4.33 9.65-9.65c0-2.335-.868-4.45-2.255-6.122l15.235-15.235a9.525 9.525 0 005.242 2.15v9.557h-7.872a.9.9 0 00-.9.9v17.5a.9.9 0 00.9.9h17.5a.9.9 0 00.9-.9v-5.35h9.1c6.01 0 10.9-4.89 10.9-10.9v-11.617h7.85c.498 0 .9-.405.9-.903v-17.5a.9.9 0 00-.9-.9z"/><path fill="#6F6F6F" fill-rule="nonzero" d="M213.81 177.144c1.908 0 2.904-1.044 2.904-2.424 0-1.14-.684-1.8-1.692-2.076v-.096c.876-.3 1.44-1.008 1.44-1.968 0-1.272-.984-2.1-2.652-2.1-1.668 0-2.652.828-2.652 2.1 0 .96.564 1.668 1.44 1.968v.096c-1.008.276-1.692.936-1.692 2.076 0 1.38.996 2.424 2.904 2.424zm0-.876c-1.164 0-1.836-.552-1.836-1.5v-.252c0-.948.672-1.5 1.836-1.5 1.164 0 1.836.552 1.836 1.5v.252c0 .948-.672 1.5-1.836 1.5zm0-4.092c-1.044 0-1.608-.468-1.608-1.32v-.18c0-.852.564-1.32 1.608-1.32s1.608.468 1.608 1.32v.18c0 .852-.564 1.32-1.608 1.32zm7.52 4.968c2.004 0 2.88-1.596 2.88-4.332 0-2.736-.876-4.332-2.88-4.332s-2.88 1.596-2.88 4.332c0 2.736.876 4.332 2.88 4.332zm0-.876c-1.308 0-1.824-1.152-1.824-2.772v-1.368c0-1.62.516-2.772 1.824-2.772s1.824 1.152 1.824 2.772v1.368c0 1.62-.516 2.772-1.824 2.772zm4.94 3.132h.96v-3.408h.048c.372.768.96 1.152 1.812 1.152 1.548 0 2.52-1.26 2.52-3.24 0-1.98-.972-3.24-2.52-3.24-.852 0-1.488.372-1.812 1.152h-.048v-1.008h-.96v8.592zm2.556-3.12c-.876 0-1.596-.456-1.596-1.26v-2.304c0-.684.72-1.188 1.596-1.188 1.08 0 1.752.744 1.752 1.848v1.056c0 1.104-.672 1.848-1.752 1.848zm3.812.72l2.292-3.12-2.196-3.072h1.128l1.572 2.304h.036l1.632-2.304h1.068l-2.184 3 2.232 3.192h-1.128l-1.608-2.424h-.036l-1.74 2.424h-1.068z"/><path fill="#FFF" d="M24 332h96v-96H24z"/><path fill="#000" d="M97.08 293.396h18.84v-18.837H97.08v18.837zm8.34 16.104c0 6.021-4.899 10.92-10.92 10.92H83.58V308a1.08 1.08 0 00-1.08-1.08h-9.393v-11.478a11.519 11.519 0 0010.341-10.383H94.92v9.417c0 .597.483 1.083 1.08 1.083h9.42V309.5zm-42.84 18.42h18.84v-18.837H62.58v18.837zm-25.08 0c-5.193 0-9.42-4.227-9.42-9.42s4.227-9.42 9.42-9.42 9.42 4.227 9.42 9.42-4.227 9.42-9.42 9.42zm34.479-53.361c5.193 0 9.42 4.224 9.42 9.417 0 5.196-4.227 9.42-9.42 9.42-5.196 0-9.42-4.224-9.42-9.42 0-5.193 4.224-9.417 9.42-9.417zm-43.872-15.615h18.84v-18.837h-18.84v18.837zm38.973-18.075l14.76 8.523-14.76 8.523v-17.046zm30 8.631c0-5.193 4.227-9.42 9.42-9.42s9.42 4.227 9.42 9.42-4.227 9.42-9.42 9.42-9.42-4.227-9.42-9.42zM117 272.396h-9.42v-11.424c5.871-.555 10.5-5.457 10.5-11.472 0-6.384-5.196-11.58-11.58-11.58s-11.58 5.196-11.58 11.58c0 6.015 4.629 10.917 10.5 11.472v11.424H96a1.08 1.08 0 00-1.08 1.08v9.42H83.448c-.555-5.871-5.454-10.5-11.469-10.5-6.024 0-10.929 4.641-11.475 10.524H49.5c-6.021 0-10.92-4.899-10.92-10.92v-10.893h9.447a1.08 1.08 0 001.08-1.08v-9.42H64.92v9.177c0 .387.204.741.54.933.165.096.354.147.54.147.186 0 .375-.051.54-.147l18-10.392a1.078 1.078 0 000-1.869l-18-10.392a1.078 1.078 0 00-1.62.936v9.444H49.107v-9.417c0-.597-.483-1.083-1.08-1.083h-21c-.597 0-1.08.486-1.08 1.083v21c0 .597.483 1.08 1.08 1.08h9.393V272c0 7.212 5.868 13.08 13.08 13.08h11.01a11.471 11.471 0 002.613 6.267l-18.276 18.279c-2.004-1.665-4.542-2.706-7.347-2.706-6.384 0-11.58 5.196-11.58 11.58s5.196 11.58 11.58 11.58 11.58-5.196 11.58-11.58c0-2.802-1.041-5.34-2.706-7.347l18.282-18.282a11.43 11.43 0 006.291 2.58v11.469H61.5a1.08 1.08 0 00-1.08 1.08v21c0 .597.483 1.08 1.08 1.08h21a1.08 1.08 0 001.08-1.08v-6.42H94.5c7.212 0 13.08-5.868 13.08-13.08v-13.941H117c.597 0 1.08-.486 1.08-1.083v-21a1.08 1.08 0 00-1.08-1.08z"/><path fill="#6F6F6F" fill-rule="nonzero" d="M64.606 371.696c0-1.992-1.068-3.216-2.808-3.216-1.68 0-2.784 1.128-2.784 2.772 0 1.584 1.032 2.58 2.472 2.58 1.02 0 1.62-.516 2.016-1.2l.06.024c-.456 1.944-1.452 3.036-3.24 4.344h1.296c1.344-.876 2.988-2.82 2.988-5.304zm-2.796 1.284c-1.104 0-1.752-.636-1.752-1.764v-.096c0-1.128.648-1.764 1.752-1.764s1.752.636 1.752 1.764v.096c0 1.128-.648 1.764-1.752 1.764zm7.532 4.164c1.68 0 2.784-1.128 2.784-2.772 0-1.584-1.032-2.58-2.472-2.58-1.02 0-1.62.516-2.016 1.2l-.06-.024c.456-1.944 1.452-3.036 3.24-4.344h-1.296c-1.344.876-2.988 2.82-2.988 5.304 0 1.992 1.068 3.216 2.808 3.216zm-.012-.876c-1.104 0-1.752-.636-1.752-1.764v-.096c0-1.128.648-1.764 1.752-1.764s1.752.636 1.752 1.764v.096c0 1.128-.648 1.764-1.752 1.764zm4.94 3.132h.96v-3.408h.048c.372.768.96 1.152 1.812 1.152 1.548 0 2.52-1.26 2.52-3.24 0-1.98-.972-3.24-2.52-3.24-.852 0-1.488.372-1.812 1.152h-.048v-1.008h-.96v8.592zm2.556-3.12c-.876 0-1.596-.456-1.596-1.26v-2.304c0-.684.72-1.188 1.596-1.188 1.08 0 1.752.744 1.752 1.848v1.056c0 1.104-.672 1.848-1.752 1.848zm3.812.72l2.292-3.12-2.196-3.072h1.128l1.572 2.304h.036l1.632-2.304h1.068l-2.184 3L86.218 377H85.09l-1.608-2.424h-.036L81.706 377h-1.068z"/><path fill="#FFF" d="M152 340h112V228H152z"/><path fill="#000" d="M237.26 294.962h21.98v-21.977h-21.98v21.977zm9.73 18.788c0 7.025-5.716 12.74-12.74 12.74h-12.74V312a1.26 1.26 0 00-1.26-1.26h-10.959v-13.391a13.439 13.439 0 0012.065-12.113h13.384v10.986c0 .697.564 1.264 1.26 1.264h10.99v16.264zm-49.98 21.49h21.98v-21.977h-21.98v21.977zm-29.26 0c-6.059 0-10.99-4.931-10.99-10.99 0-6.058 4.931-10.99 10.99-10.99 6.058 0 10.99 4.931 10.99 10.99 0 6.058-4.931 10.99-10.99 10.99zm40.225-62.254c6.059 0 10.99 4.928 10.99 10.986 0 6.062-4.931 10.99-10.99 10.99-6.061 0-10.99-4.928-10.99-10.99 0-6.059 4.928-10.986 10.99-10.986zm-51.183-18.218h21.98v-21.977h-21.98v21.977zm45.468-21.087l17.22 9.943-17.22 9.943V233.68zm35 10.069c0-6.059 4.932-10.99 10.99-10.99s10.99 4.931 10.99 10.99c0 6.058-4.931 10.99-10.99 10.99-6.058 0-10.99-4.931-10.99-10.99zm23.24 26.712h-10.99v-13.328c6.85-.648 12.25-6.367 12.25-13.384 0-7.448-6.062-13.51-13.51-13.51-7.448 0-13.51 6.062-13.51 13.51 0 7.017 5.4 12.736 12.25 13.384v13.328H236a1.26 1.26 0 00-1.26 1.26v10.99h-13.384c-.647-6.85-6.363-12.25-13.38-12.25-7.028 0-12.751 5.414-13.388 12.278H181.75c-7.024 0-12.74-5.715-12.74-12.74v-12.709h11.022a1.26 1.26 0 001.26-1.26v-10.99h18.448v10.707c0 .451.238.864.63 1.088.193.112.413.172.63.172.217 0 .438-.06.63-.171l21-12.124a1.258 1.258 0 000-2.18l-21-12.125a1.258 1.258 0 00-1.89 1.092v11.018h-18.449v-10.987c0-.696-.563-1.263-1.26-1.263h-24.5c-.696 0-1.26.567-1.26 1.264v24.5c0 .696.564 1.26 1.26 1.26h10.959V270c0 8.414 6.846 15.26 15.26 15.26h12.845a13.383 13.383 0 003.049 7.312l-21.322 21.325c-2.338-1.942-5.3-3.157-8.572-3.157-7.448 0-13.51 6.062-13.51 13.51 0 7.448 6.062 13.51 13.51 13.51 7.448 0 13.51-6.062 13.51-13.51 0-3.269-1.215-6.23-3.157-8.572l21.329-21.329a13.334 13.334 0 007.34 3.01v13.381H195.75a1.26 1.26 0 00-1.26 1.26v24.5c0 .696.563 1.26 1.26 1.26h24.5a1.26 1.26 0 001.26-1.26v-7.49h12.74c8.414 0 15.26-6.846 15.26-15.26v-16.265h10.99c.697 0 1.26-.567 1.26-1.263v-24.5a1.26 1.26 0 00-1.26-1.26z"/><path fill="#6F6F6F" fill-rule="nonzero" d="M197.014 377v-.888h-2.16v-7.488h-1.572l-2.22 2.076.588.636 2.112-1.968h.084v6.744h-2.34V377h5.508zm7.52 0v-.888h-2.16v-7.488h-1.572l-2.22 2.076.588.636 2.112-1.968h.084v6.744h-2.34V377h5.508zm7.352-.888h-4.404l2.256-2.028c1.068-.96 1.836-1.872 1.836-3.168 0-1.428-.936-2.436-2.568-2.436-1.62 0-2.364.984-2.688 1.968l.9.348c.228-.792.708-1.416 1.74-1.416s1.548.636 1.548 1.56v.144c0 .804-.6 1.644-1.38 2.364l-2.736 2.52V377h5.496v-.888zm2.144 3.288h.96v-3.408h.048c.372.768.96 1.152 1.812 1.152 1.548 0 2.52-1.26 2.52-3.24 0-1.98-.972-3.24-2.52-3.24-.852 0-1.488.372-1.812 1.152h-.048v-1.008h-.96v8.592zm2.556-3.12c-.876 0-1.596-.456-1.596-1.26v-2.304c0-.684.72-1.188 1.596-1.188 1.08 0 1.752.744 1.752 1.848v1.056c0 1.104-.672 1.848-1.752 1.848zm3.812.72l2.292-3.12-2.196-3.072h1.128l1.572 2.304h.036l1.632-2.304h1.068l-2.184 3 2.232 3.192h-1.128l-1.608-2.424h-.036l-1.74 2.424h-1.068z"/></g></svg>