<svg xmlns="http://www.w3.org/2000/svg" viewBox="0 0 288 288"><defs><linearGradient x1="109.448%" y1="-6.516%" x2="-9.861%" y2="101.817%" id="a"><stop stop-color="#009C98" offset="0%"/><stop stop-color="#0062FF" offset="100%"/></linearGradient></defs><g fill="none" fill-rule="evenodd"><path fill="#171717" fill-rule="nonzero" d="M0 0h288v288H0z"/><path d="M64 224h160V64H64z"/><path d="M130.606 117.031c-3.08-6.425-7.695-9.035-15.905-8.89l-5.025.055c-6.035 0-7.876-1.91-7.876-8.195 0-.995-.804-1.805-1.8-1.805-.995 0-1.8.81-1.8 1.805 0 8.27 3.43 11.8 11.495 11.8l5.046-.06c7.525-.19 10.684 1.97 13.18 8.035.16.89.28 1.785.28 2.725 0 7.08-4.855 13.175-11.566 15.01-.39-5.315-2.075-9.38-5.4-12.504a1.796 1.796 0 10-2.465 2.615c2.816 2.65 4.14 6.104 4.346 10.925l-.13.99c-1.02 7.79-7.68 13.66-15.486 13.66-3.68 0-7.02-1.32-9.704-3.45l8.474-8.47a1.802 1.802 0 000-2.55 1.79 1.79 0 00-2.54 0l-8.48 8.475c-2.124-2.68-3.45-6.02-3.45-9.7v-2.5c0-7.9 2.52-8.2 13.2-8.2a1.803 1.803 0 000-3.605c-5.575 0-10.204.075-13.2 2.28V86.692c7.31-.225 9.636-1.74 11.64-3.105 1.466-1 2.62-1.785 6.56-1.785a1.803 1.803 0 000-3.605c-5.05 0-6.844 1.23-8.585 2.41-1.67 1.13-3.445 2.294-9.615 2.484V41.657c2.81 3.355 7.206 5.145 13.2 5.145a1.803 1.803 0 000-3.605c-9.13 0-13.2-4.066-13.2-13.196v-2.5c0-8.66 7.04-15.7 15.7-15.7 7.475 0 13.78 4.88 15.275 11.396H100a1.803 1.803 0 000 3.605h14.45c4.925 2.524 8.75 9.32 8.75 15.7 0 .95-.165 1.974-.385 3.05-4.73 4-8.644 7.815-9.44 12.645h-13.374a1.803 1.803 0 000 3.604h13.2v13.2a1.799 1.799 0 103.6 0v-15c0-3.74 2.805-6.965 7.95-11.36 5.15 2.696 8.45 8.006 8.45 13.86 0 1.11-.145 2.28-.45 3.57l-.34 1.46 1.37.6c5.72 2.505 9.42 8.15 9.42 14.37 0 3.885-1.48 7.635-4.165 10.566l-.12.13H125a1.803 1.803 0 000 3.605h14.434c.76 1.864 1.266 3.764 1.266 5.7 0 6.475-4.1 12.215-10.095 14.53M66.8 152.526v-9.005c0-5.92-4.596-10.25-10.15-14.905a1.809 1.809 0 00-2.536.225c-.64.764-.54 1.9.225 2.54 5.745 4.814 8.86 8.174 8.86 12.14v9.605c-.235.014-.46.07-.7.07-7.81 0-14.47-5.87-15.484-13.66l-.18-1.37-1.37-.185c-7.79-1.016-13.666-7.675-13.666-15.48 0-.685.11-1.335.2-1.99l8.73-3.865c.91-.4 1.32-1.466.916-2.376a1.796 1.796 0 00-2.376-.915l-9.015 3.99c-6.47-2.07-10.954-8.07-10.954-14.845 0-1.934.5-3.835 1.265-5.7H35a1.803 1.803 0 000-3.605H21.085l-.12-.13c-2.684-2.93-4.165-6.68-4.165-10.565 0-6.22 3.7-11.865 9.42-14.37l1.37-.6-.34-1.46c-.305-1.29-.45-2.46-.45-3.57 0-5.764 3.195-10.994 8.21-13.73l8.6 10.92c1.566 1.9 2.98 3.445 4.505 4.645l-9.385 9.39A1.802 1.802 0 0040 76.802c.46 0 .92-.176 1.27-.526l10-10c.03-.025.015-.07.045-.1 1.096.385 2.296.626 3.686.626h10a1.803 1.803 0 000-3.605H55c-3.28 0-5.026-1.446-8.585-5.76l-9.21-11.69c-.245-1.155-.406-2.236-.406-3.245 0-5.646 3.15-10.856 8.076-13.626l3.97 3.326a1.797 1.797 0 002.535-.225c.64-.765.535-1.9-.225-2.54l-4.16-3.476c.79-7.99 7.41-14.16 15.505-14.16 8.655 0 15.7 7.04 15.7 15.7v20.845c-2.81-3.354-7.205-5.15-13.2-5.15a1.803 1.803 0 000 3.605c9.13 0 13.2 4.07 13.2 13.2v23.29c-3.745.38-5.83 1.79-7.6 3.12-2.28 1.715-4.07 3.055-10.245 1.826a1.79 1.79 0 00-2.12 1.41 1.793 1.793 0 001.41 2.114c1.874.376 3.46.54 4.82.54 4.29 0 6.39-1.58 8.294-3.01 1.5-1.12 2.905-2.084 5.44-2.404v26.26l-10.7.05c-5.224 0-8.855-2.946-10.794-8.77a1.79 1.79 0 00-2.276-1.136 1.803 1.803 0 00-1.135 2.28c3.255 9.77 10.295 11.23 14.21 11.23l10.696-.05v20.75c0 7.155-4.84 13.14-11.4 15.025m80-70.025c0-7.165-3.98-13.7-10.26-17.035.174-1.03.26-2.01.26-2.964 0-7.166-3.98-13.7-10.255-17.035.17-1.03.254-2.01.254-2.965 0-7.535-4.32-15.34-10.194-18.656-1.21-8.85-9.395-15.65-19.105-15.65-7.776 0-14.446 4.646-17.5 11.286-3.056-6.64-9.726-11.285-17.5-11.285-9.945 0-18.16 7.545-19.14 17.36-6.205 3.355-10.16 9.895-10.16 16.945 0 .954.084 1.934.255 2.965A19.303 19.303 0 0023.2 62.502c0 .954.085 1.934.256 2.964C17.18 68.802 13.2 75.337 13.2 82.501c0 4.375 1.514 8.605 4.29 12.05-1.186 2.57-1.79 5.236-1.79 7.95 0 8.05 5.114 15.25 12.614 18.025a16.96 16.96 0 00-.114 1.975c0 9.16 6.56 17.03 15.465 18.83 1.805 8.91 9.675 15.47 18.835 15.47 7.774 0 14.444-4.644 17.5-11.284a19.205 19.205 0 003.484 5.165c.085.205.08.43.246.595.16.16.39.155.585.24 3.46 3.255 8.075 5.285 13.184 5.285 9.16 0 17.03-6.56 18.835-15.47 8.906-1.8 15.466-9.67 15.466-18.83 0-.635-.04-1.29-.115-1.975 7.5-2.776 12.614-9.975 12.614-18.026 0-2.715-.605-5.38-1.794-7.95 2.78-3.445 4.294-7.675 4.294-12.05" fill="url(#a)" transform="translate(64 64)"/></g></svg>