<?xml version="1.0" encoding="UTF-8"?>
<svg width="928px" height="522px" viewBox="0 0 928 522" version="1.1" xmlns="http://www.w3.org/2000/svg" xmlns:xlink="http://www.w3.org/1999/xlink">
    <!-- Generator: Sketch 62 (91390) - https://sketch.com -->
    <title>horizontal chart</title>
    <desc>Created with Sketch.</desc>
    <g id="horizontal-chart" stroke="none" stroke-width="1" fill="none" fill-rule="evenodd">
        <rect fill="#F3F3F3" x="0" y="0" width="928" height="522"></rect>
        <g id="Group-5" transform="translate(245.000000, 93.000000)">
            <g id="Group-3" transform="translate(0.000000, 34.000000)">
                <rect id="Rectangle-Copy-3" fill="#E0E0E0" x="122.875" y="2" width="1" height="227"></rect>
                <rect id="Rectangle-Copy-6" fill="#E0E0E0" x="166.75" y="2" width="1" height="227"></rect>
                <rect id="Rectangle-Copy-9" fill="#E0E0E0" x="210.625" y="2" width="1" height="227"></rect>
                <rect id="Rectangle-Copy-11" fill="#E0E0E0" x="254.5" y="2" width="1" height="227"></rect>
                <rect id="Rectangle-Copy-14" fill="#E0E0E0" x="298.375" y="2" width="1" height="227"></rect>
                <rect id="Rectangle-Copy-15" fill="#E0E0E0" x="342.25" y="2" width="1" height="227"></rect>
                <rect id="Rectangle-Copy-16" fill="#E0E0E0" x="386.125" y="2" width="1" height="227"></rect>
                <rect id="Rectangle" stroke="#DCDCDC" x="79.5" y="2.5" width="351" height="226"></rect>
                <g id="Y-Axis" fill="#171717" font-family="IBMPlexSans, IBM Plex Sans" font-size="12" font-weight="normal" line-spacing="16">
                    <text id="ylabel" transform="translate(8.500000, 117.000000) rotate(-90.000000) translate(-8.500000, -117.000000) ">
                        <tspan x="-27.344" y="121">Mailing name</tspan>
                    </text>
                </g>
                <g id="Group" transform="translate(25.000000, 15.000000)" fill="#6F6F6F" font-family="IBMPlexSansCond, IBM Plex Sans Condensed" font-size="12" font-style="condensed" font-weight="normal" line-spacing="16">
                    <text id="Mailing-A">
                        <tspan x="1.636" y="12">Mailing A</tspan>
                    </text>
                    <text id="Mailing-B">
                        <tspan x="1.516" y="37.8571429">Mailing B</tspan>
                    </text>
                    <text id="Mailing-C">
                        <tspan x="1.852" y="63.7142857">Mailing C</tspan>
                    </text>
                    <text id="Mailing-D">
                        <tspan x="1.3" y="89.5714286">Mailing D</tspan>
                    </text>
                    <text id="Mailing-E">
                        <tspan x="2.272" y="115.428571">Mailing E</tspan>
                    </text>
                    <text id="Mailing-F">
                        <tspan x="2.524" y="141.285714">Mailing F</tspan>
                    </text>
                    <text id="Mailing-G">
                        <tspan x="1.06" y="167.142857">Mailing G</tspan>
                    </text>
                    <text id="Mailing-H">
                        <tspan x="0.94" y="193">Mailing H</tspan>
                    </text>
                </g>
                <g id="data" transform="translate(121.000000, 19.000000)">
                    <rect id="Rectangle-9" fill="#0062FF" transform="translate(113.500000, 135.285714) scale(1, -1) rotate(270.000000) translate(-113.500000, -135.285714) " x="107.5" y="114.785714" width="12" height="41"></rect>
                    <rect id="Rectangle-9-Copy" fill="#0062FF" transform="translate(67.000000, 187.000000) scale(1, -1) rotate(270.000000) translate(-67.000000, -187.000000) " x="61" y="120" width="12" height="134"></rect>
                    <polygon id="Rectangle-9" fill="#0062FF" transform="translate(93.000000, 109.428571) scale(1, -1) rotate(270.000000) translate(-93.000000, -109.428571) " points="87 68.4285714 99 68.4285714 99 150.428571 87 150.428571"></polygon>
                    <polygon id="Rectangle-9-Copy-2" fill="#0062FF" transform="translate(100.500000, 161.142857) scale(1, -1) rotate(270.000000) translate(-100.500000, -161.142857) " points="94.5 127.642857 106.5 127.642857 106.5 194.642857 94.5 194.642857"></polygon>
                    <polygon id="Rectangle-9" fill="#0062FF" transform="translate(183.000000, 83.571429) rotate(-270.000000) translate(-183.000000, -83.571429) " points="177 34.5714286 189 34.5714286 189 132.571429 177 132.571429"></polygon>
                    <polygon id="Rectangle-9" fill="#0062FF" transform="translate(171.000000, 31.857143) rotate(-270.000000) translate(-171.000000, -31.857143) " points="165 -4.64285714 177 -4.64285714 177 68.3571429 165 68.3571429"></polygon>
                    <polygon id="Rectangle-9" fill="#0062FF" transform="translate(201.000000, 57.714286) rotate(-270.000000) translate(-201.000000, -57.714286) " points="195 -9.28571429 207 -9.28571429 207 124.714286 195 124.714286"></polygon>
                    <rect id="Rectangle-9" fill="#0F62FE" transform="translate(217.000000, 6.000000) rotate(-270.000000) translate(-217.000000, -6.000000) " x="211" y="-76.5" width="12" height="165"></rect>
                </g>
                <g id="ticks" transform="translate(79.000000, 228.000000)" fill="#8C8C8C">
                    <rect id="Rectangle" x="0" y="0" width="352" height="1"></rect>
                </g>
                <rect id="Rectangle-Copy-12" fill="#8C8C8C" transform="translate(79.500000, 115.000000) scale(1, -1) translate(-79.500000, -115.000000) " x="79" y="2" width="1" height="226"></rect>
                <g id="Group-2" transform="translate(79.000000, 289.000000)">
                    <g id="Group-4">
                        <rect id="Rectangle" fill="#0062FF" x="0" y="2" width="12" height="12" rx="1"></rect>
                        <text id="Clicks-(unique)" font-family="IBMPlexSansCond, IBM Plex Sans Condensed" font-size="12" font-style="condensed" font-weight="normal" line-spacing="14" fill="#7A7A7A">
                            <tspan x="16" y="12">Clicks (unique)</tspan>
                        </text>
                    </g>
                </g>
                <g id="X-Axis" transform="translate(67.000000, 233.000000)" font-size="12" font-weight="normal" line-spacing="16">
                    <text id="-40" transform="translate(11.000000, 8.000000) rotate(-360.000000) translate(-11.000000, -8.000000) " font-family="IBMPlexMono, IBM Plex Mono" fill="#6F6F6F">
                        <tspan x="0.2" y="12">-40</tspan>
                    </text>
                    <text id="-30" transform="translate(55.090292, 8.000000) rotate(-360.000000) translate(-55.090292, -8.000000) " font-family="IBMPlexMono, IBM Plex Mono" fill="#6F6F6F">
                        <tspan x="44.290292" y="12">-30</tspan>
                    </text>
                    <text id="-20" transform="translate(99.180584, 8.000000) rotate(-360.000000) translate(-99.180584, -8.000000) " font-family="IBMPlexMono, IBM Plex Mono" fill="#6F6F6F">
                        <tspan x="88.3805841" y="12">-20</tspan>
                    </text>
                    <text id="-10" transform="translate(143.270876, 8.000000) rotate(-360.000000) translate(-143.270876, -8.000000) " font-family="IBMPlexMono, IBM Plex Mono" fill="#6F6F6F">
                        <tspan x="132.470876" y="12">-10</tspan>
                    </text>
                    <text id="0" transform="translate(188.000000, 8.000000) rotate(-360.000000) translate(-188.000000, -8.000000) " font-family="IBMPlexMono, IBM Plex Mono" fill="#6F6F6F">
                        <tspan x="184.8" y="12">0</tspan>
                    </text>
                    <text id="10" transform="translate(231.500000, 8.000000) rotate(-360.000000) translate(-231.500000, -8.000000) " font-family="IBMPlexMono, IBM Plex Mono" fill="#6F6F6F">
                        <tspan x="224.3" y="12">10</tspan>
                    </text>
                    <text id="20" transform="translate(275.500000, 8.000000) rotate(-360.000000) translate(-275.500000, -8.000000) " font-family="IBMPlexMono, IBM Plex Mono" fill="#6F6F6F">
                        <tspan x="268.3" y="12">20</tspan>
                    </text>
                    <text id="30" transform="translate(319.250000, 8.000000) rotate(-360.000000) translate(-319.250000, -8.000000) " font-family="IBMPlexMono, IBM Plex Mono" fill="#6F6F6F">
                        <tspan x="312.05" y="12">30</tspan>
                    </text>
                    <text id="40" transform="translate(363.000000, 8.000000) rotate(-360.000000) translate(-363.000000, -8.000000) " font-family="IBMPlexMono, IBM Plex Mono" fill="#6F6F6F">
                        <tspan x="355.8" y="12">40</tspan>
                    </text>
                    <text id="Y-label" transform="translate(184.000000, 32.000000) rotate(-360.000000) translate(-184.000000, -32.000000) " font-family="IBMPlexSans, IBM Plex Sans" fill="#181818">
                        <tspan x="144.106" y="36">Clicks (unique)</tspan>
                    </text>
                </g>
            </g>
            <text id="widgetTitle" font-family="IBMPlexSans-SemiBold, IBM Plex Sans" font-size="16" font-weight="500" line-spacing="18" fill="#181919">
                <tspan x="0" y="16">Changing in clicks by mailing (PY)</tspan>
            </text>
        </g>
    </g>
</svg>