<svg xmlns="http://www.w3.org/2000/svg" xmlns:xlink="http://www.w3.org/1999/xlink" viewBox="0 0 928 522"><defs><style>.cls-1,.cls-3,.cls-4{fill:none;}.cls-2{clip-path:url(#clip-path);}.cls-3{stroke:#262626;}.cls-3,.cls-4{stroke-linecap:round;stroke-miterlimit:10;}.cls-4{stroke:#6f6f6f;}</style><clipPath id="clip-path"><rect class="cls-1" width="928" height="522"/></clipPath></defs><title>Artboard 15 copy 6</title><g id="Layer_3" data-name="Layer 3"><g class="cls-2"><rect width="928" height="522"/><line class="cls-3" x1="29" x2="29" y2="522"/><line class="cls-3" x1="493" x2="493" y2="522"/><line class="cls-3" x1="261" x2="261" y2="522"/><line class="cls-3" x1="725" x2="725" y2="522"/><line class="cls-3" x1="145" x2="145" y2="522"/><line class="cls-3" x1="609" x2="609" y2="522"/><line class="cls-3" x1="377" x2="377" y2="522"/><line class="cls-3" x1="841" x2="841" y2="522"/><line class="cls-3" x1="87" x2="87" y2="522"/><line class="cls-3" x1="551" x2="551" y2="522"/><line class="cls-3" x1="319" x2="319" y2="522"/><line class="cls-3" x1="783" x2="783" y2="522"/><line class="cls-3" x1="203" x2="203" y2="522"/><line class="cls-3" x1="667" x2="667" y2="522"/><line class="cls-3" x1="435" x2="435" y2="522"/><line class="cls-3" x1="899" x2="899" y2="522"/><line class="cls-3" x1="14.5" x2="14.5" y2="522"/><line class="cls-3" x1="478.5" x2="478.5" y2="522"/><line class="cls-3" x1="246.5" x2="246.5" y2="522"/><line class="cls-3" x1="710.5" x2="710.5" y2="522"/><line class="cls-3" x1="130.5" x2="130.5" y2="522"/><line class="cls-3" x1="594.5" x2="594.5" y2="522"/><line class="cls-3" x1="362.5" x2="362.5" y2="522"/><line class="cls-3" x1="826.5" x2="826.5" y2="522"/><line class="cls-3" x1="72.5" x2="72.5" y2="522"/><line class="cls-3" x1="536.5" x2="536.5" y2="522"/><line class="cls-3" x1="304.5" x2="304.5" y2="522"/><line class="cls-3" x1="768.5" x2="768.5" y2="522"/><line class="cls-3" x1="188.5" x2="188.5" y2="522"/><line class="cls-3" x1="652.5" x2="652.5" y2="522"/><line class="cls-3" x1="420.5" x2="420.5" y2="522"/><line class="cls-3" x1="884.5" x2="884.5" y2="522"/><line class="cls-3" x1="43.5" x2="43.5" y2="522"/><line class="cls-3" x1="507.5" x2="507.5" y2="522"/><line class="cls-3" x1="275.5" x2="275.5" y2="522"/><line class="cls-3" x1="739.5" x2="739.5" y2="522"/><line class="cls-3" x1="159.5" x2="159.5" y2="522"/><line class="cls-3" x1="623.5" x2="623.5" y2="522"/><line class="cls-3" x1="391.5" x2="391.5" y2="522"/><line class="cls-3" x1="855.5" x2="855.5" y2="522"/><line class="cls-3" x1="101.5" x2="101.5" y2="522"/><line class="cls-3" x1="565.5" x2="565.5" y2="522"/><line class="cls-3" x1="333.5" x2="333.5" y2="522"/><line class="cls-3" x1="797.5" x2="797.5" y2="522"/><line class="cls-3" x1="217.5" x2="217.5" y2="522"/><line class="cls-3" x1="681.5" x2="681.5" y2="522"/><line class="cls-3" x1="449.5" x2="449.5" y2="522"/><line class="cls-3" x1="913.5" x2="913.5" y2="522"/><line class="cls-3" x1="7.25" x2="7.25" y2="522"/><line class="cls-3" x1="471.25" x2="471.25" y2="522"/><line class="cls-3" x1="239.25" x2="239.25" y2="522"/><line class="cls-3" x1="703.25" x2="703.25" y2="522"/><line class="cls-3" x1="123.25" x2="123.25" y2="522"/><line class="cls-3" x1="587.25" x2="587.25" y2="522"/><line class="cls-3" x1="355.25" x2="355.25" y2="522"/><line class="cls-3" x1="819.25" x2="819.25" y2="522"/><line class="cls-3" x1="65.25" x2="65.25" y2="522"/><line class="cls-3" x1="529.25" x2="529.25" y2="522"/><line class="cls-3" x1="297.25" x2="297.25" y2="522"/><line class="cls-3" x1="761.25" x2="761.25" y2="522"/><line class="cls-3" x1="181.25" x2="181.25" y2="522"/><line class="cls-3" x1="645.25" x2="645.25" y2="522"/><line class="cls-3" x1="413.25" x2="413.25" y2="522"/><line class="cls-3" x1="877.25" x2="877.25" y2="522"/><line class="cls-3" x1="36.25" x2="36.25" y2="522"/><line class="cls-3" x1="500.25" x2="500.25" y2="522"/><line class="cls-3" x1="268.25" x2="268.25" y2="522"/><line class="cls-3" x1="732.25" x2="732.25" y2="522"/><line class="cls-3" x1="152.25" x2="152.25" y2="522"/><line class="cls-3" x1="616.25" x2="616.25" y2="522"/><line class="cls-3" x1="384.25" x2="384.25" y2="522"/><line class="cls-3" x1="848.25" x2="848.25" y2="522"/><line class="cls-3" x1="94.25" x2="94.25" y2="522"/><line class="cls-3" x1="558.25" x2="558.25" y2="522"/><line class="cls-3" x1="326.25" x2="326.25" y2="522"/><line class="cls-3" x1="790.25" x2="790.25" y2="522"/><line class="cls-3" x1="210.25" x2="210.25" y2="522"/><line class="cls-3" x1="674.25" x2="674.25" y2="522"/><line class="cls-3" x1="442.25" x2="442.25" y2="522"/><line class="cls-3" x1="906.25" x2="906.25" y2="522"/><line class="cls-3" x1="21.75" x2="21.75" y2="522"/><line class="cls-3" x1="485.75" x2="485.75" y2="522"/><line class="cls-3" x1="253.75" x2="253.75" y2="522"/><line class="cls-3" x1="717.75" x2="717.75" y2="522"/><line class="cls-3" x1="137.75" x2="137.75" y2="522"/><line class="cls-3" x1="601.75" x2="601.75" y2="522"/><line class="cls-3" x1="369.75" x2="369.75" y2="522"/><line class="cls-3" x1="833.75" x2="833.75" y2="522"/><line class="cls-3" x1="79.75" x2="79.75" y2="522"/><line class="cls-3" x1="543.75" x2="543.75" y2="522"/><line class="cls-3" x1="311.75" x2="311.75" y2="522"/><line class="cls-3" x1="775.75" x2="775.75" y2="522"/><line class="cls-3" x1="195.75" x2="195.75" y2="522"/><line class="cls-3" x1="659.75" x2="659.75" y2="522"/><line class="cls-3" x1="427.75" x2="427.75" y2="522"/><line class="cls-3" x1="891.75" x2="891.75" y2="522"/><line class="cls-3" x1="50.75" x2="50.75" y2="522"/><line class="cls-3" x1="514.75" x2="514.75" y2="522"/><line class="cls-3" x1="282.75" x2="282.75" y2="522"/><line class="cls-3" x1="746.75" x2="746.75" y2="522"/><line class="cls-3" x1="166.75" x2="166.75" y2="522"/><line class="cls-3" x1="630.75" x2="630.75" y2="522"/><line class="cls-3" x1="398.75" x2="398.75" y2="522"/><line class="cls-3" x1="862.75" x2="862.75" y2="522"/><line class="cls-3" x1="108.75" x2="108.75" y2="522"/><line class="cls-3" x1="572.75" x2="572.75" y2="522"/><line class="cls-3" x1="340.75" x2="340.75" y2="522"/><line class="cls-3" x1="804.75" x2="804.75" y2="522"/><line class="cls-3" x1="224.75" x2="224.75" y2="522"/><line class="cls-3" x1="688.75" x2="688.75" y2="522"/><line class="cls-3" x1="456.75" x2="456.75" y2="522"/><line class="cls-3" x1="920.75" x2="920.75" y2="522"/><line class="cls-3" y1="34.967" x2="60.565"/><line class="cls-3" y1="43.339" x2="75.065"/><line class="cls-3" y1="51.711" x2="89.565"/><line class="cls-3" y1="68.454" x2="118.565"/><line class="cls-3" y1="1.481" x2="2.565"/><line class="cls-3" y1="9.853" x2="17.065"/><line class="cls-3" y1="18.224" x2="31.565"/><line class="cls-3" y1="76.825" x2="133.065"/><line class="cls-3" x1="147.565" y2="85.197"/><line class="cls-3" y1="101.94" x2="176.565"/><line class="cls-3" y1="110.312" x2="191.065"/><line class="cls-3" y1="118.683" x2="205.565"/><line class="cls-3" y1="135.426" x2="234.565"/><line class="cls-3" y1="143.798" x2="249.065"/><line class="cls-3" y1="152.169" x2="263.565"/><line class="cls-3" y1="168.913" x2="292.565"/><line class="cls-3" y1="177.284" x2="307.065"/><line class="cls-3" x1="321.565" y2="185.656"/><line class="cls-3" y1="202.399" x2="350.565"/><line class="cls-3" y1="210.771" x2="365.065"/><line class="cls-3" y1="219.142" x2="379.565"/><line class="cls-3" y1="235.885" x2="408.565"/><line class="cls-3" y1="244.257" x2="423.065"/><line class="cls-3" x1="437.565" y2="252.628"/><line class="cls-3" y1="269.372" x2="466.565"/><line class="cls-3" y1="277.743" x2="481.065"/><line class="cls-3" y1="286.115" x2="495.565"/><line class="cls-3" y1="302.858" x2="524.565"/><line class="cls-3" x1="539.065" y2="311.23"/><line class="cls-3" y1="319.601" x2="553.565"/><line class="cls-3" y1="336.344" x2="582.565"/><line class="cls-3" y1="344.716" x2="597.065"/><line class="cls-3" x1="611.565" y2="353.087"/><line class="cls-3" y1="369.831" x2="640.565"/><line class="cls-3" x1="655.065" y2="378.202"/><line class="cls-3" y1="386.574" x2="669.565"/><line class="cls-3" y1="403.317" x2="698.565"/><line class="cls-3" y1="411.688" x2="713.065"/><line class="cls-3" x1="727.565" y2="420.06"/><line class="cls-3" x1="756.565" y2="436.803"/><line class="cls-3" y1="445.175" x2="771.065"/><line class="cls-3" y1="453.546" x2="785.565"/><line class="cls-3" y1="470.29" x2="814.565"/><line class="cls-3" x1="829.065" y2="478.661"/><line class="cls-3" y1="487.033" x2="843.565"/><line class="cls-3" y1="503.776" x2="872.565"/><line class="cls-3" y1="512.147" x2="887.065"/><line class="cls-3" x1="901.565" y2="520.519"/><line class="cls-3" x1="26.435" y1="522" x2="928" y2="1.481"/><line class="cls-3" x1="40.935" y1="522" x2="928" y2="9.853"/><line class="cls-3" x1="55.435" y1="522" x2="928" y2="18.224"/><line class="cls-3" x1="84.435" y1="522" x2="928" y2="34.967"/><line class="cls-3" x1="98.935" y1="522" x2="928" y2="43.339"/><line class="cls-3" x1="928" y1="51.711" x2="113.435" y2="522"/><line class="cls-3" x1="928" y1="68.454" x2="142.435" y2="522"/><line class="cls-3" x1="156.935" y1="522" x2="928" y2="76.825"/><line class="cls-3" x1="171.435" y1="522" x2="928" y2="85.197"/><line class="cls-3" x1="200.435" y1="522" x2="928" y2="101.94"/><line class="cls-3" x1="214.935" y1="522" x2="928" y2="110.312"/><line class="cls-3" x1="229.435" y1="522" x2="928" y2="118.683"/><line class="cls-3" x1="928" y1="135.426" x2="258.435" y2="522"/><line class="cls-3" x1="272.935" y1="522" x2="928" y2="143.798"/><line class="cls-3" x1="287.435" y1="522" x2="928" y2="152.169"/><line class="cls-3" x1="316.435" y1="522" x2="928" y2="168.913"/><line class="cls-3" x1="928" y1="177.284" x2="330.935" y2="522"/><line class="cls-3" x1="345.435" y1="522" x2="928" y2="185.656"/><line class="cls-3" x1="374.435" y1="522" x2="928" y2="202.399"/><line class="cls-3" x1="388.935" y1="522" x2="928" y2="210.771"/><line class="cls-3" x1="928" y1="219.142" x2="403.435" y2="522"/><line class="cls-3" x1="928" y1="235.885" x2="432.435" y2="522"/><line class="cls-3" x1="446.935" y1="522" x2="928" y2="244.257"/><line class="cls-3" x1="461.435" y1="522" x2="928" y2="252.628"/><line class="cls-3" x1="490.435" y1="522" x2="928" y2="269.372"/><line class="cls-3" x1="928" y1="277.743" x2="504.935" y2="522"/><line class="cls-3" x1="519.435" y1="522" x2="928" y2="286.115"/><line class="cls-3" x1="928" y1="302.858" x2="548.435" y2="522"/><line class="cls-3" x1="562.935" y1="522" x2="928" y2="311.229"/><line class="cls-3" x1="928" y1="319.601" x2="577.435" y2="522"/><line class="cls-3" x1="606.435" y1="522" x2="928" y2="336.344"/><line class="cls-3" x1="928" y1="344.716" x2="620.935" y2="522"/><line class="cls-3" x1="635.435" y1="522" x2="928" y2="353.087"/><line class="cls-3" x1="664.435" y1="522" x2="928" y2="369.831"/><line class="cls-3" x1="678.935" y1="522" x2="928" y2="378.202"/><line class="cls-3" x1="928" y1="386.574" x2="693.435" y2="522"/><line class="cls-3" x1="928" y1="403.317" x2="722.435" y2="522"/><line class="cls-3" x1="736.935" y1="522" x2="928" y2="411.688"/><line class="cls-3" x1="751.435" y1="522" x2="928" y2="420.06"/><line class="cls-3" x1="780.435" y1="522" x2="928" y2="436.803"/><line class="cls-3" x1="928" y1="445.175" x2="794.935" y2="522"/><line class="cls-3" x1="809.435" y1="522" x2="928" y2="453.546"/><line class="cls-3" x1="928" y1="470.29" x2="838.435" y2="522"/><line class="cls-3" x1="852.935" y1="522" x2="928" y2="478.661"/><line class="cls-3" x1="928" y1="487.033" x2="867.435" y2="522"/><line class="cls-3" x1="896.435" y1="522" x2="928" y2="503.776"/><line class="cls-3" x1="910.935" y1="522" x2="928" y2="512.147"/><line class="cls-3" x1="928" y1="520.519" x2="925.436" y2="522"/><line class="cls-3" y1="26.596" x2="46.065"/><line class="cls-3" y1="93.568" x2="162.065"/><line class="cls-3" y1="160.541" x2="278.065"/><line class="cls-3" y1="227.514" x2="394.065"/><line class="cls-3" x1="510.065" y2="294.486"/><line class="cls-3" y1="361.459" x2="626.065"/><line class="cls-3" y1="428.432" x2="742.065"/><line class="cls-3" y1="495.404" x2="858.065"/><line class="cls-3" x1="928" y1="26.596" x2="69.935" y2="522"/><line class="cls-3" x1="928" y1="93.568" x2="185.935" y2="522"/><line class="cls-3" x1="301.935" y1="522" x2="928" y2="160.541"/><line class="cls-3" x1="417.935" y1="522" x2="928" y2="227.514"/><line class="cls-3" x1="533.935" y1="522" x2="928" y2="294.486"/><line class="cls-3" x1="928" y1="361.459" x2="649.935" y2="522"/><line class="cls-3" x1="928" y1="428.432" x2="765.935" y2="522"/><line class="cls-3" x1="928" y1="495.404" x2="881.935" y2="522"/><line class="cls-3" x1="867.435" x2="928" y2="34.967"/><line class="cls-3" x1="852.935" x2="928" y2="43.339"/><line class="cls-3" x1="838.435" x2="928" y2="51.711"/><line class="cls-3" x1="809.435" x2="928" y2="68.454"/><line class="cls-3" x1="925.435" x2="928" y2="1.481"/><line class="cls-3" x1="910.935" x2="928" y2="9.853"/><line class="cls-3" x1="896.435" x2="928" y2="18.224"/><line class="cls-3" x1="794.935" x2="928" y2="76.825"/><line class="cls-3" x1="928" y1="85.197" x2="780.435"/><line class="cls-3" x1="751.435" x2="928" y2="101.94"/><line class="cls-3" x1="736.935" x2="928" y2="110.312"/><line class="cls-3" x1="722.435" x2="928" y2="118.683"/><line class="cls-3" x1="693.435" x2="928" y2="135.426"/><line class="cls-3" x1="678.935" x2="928" y2="143.798"/><line class="cls-3" x1="664.435" x2="928" y2="152.169"/><line class="cls-3" x1="635.435" x2="928" y2="168.913"/><line class="cls-3" x1="620.935" x2="928" y2="177.284"/><line class="cls-3" x1="928" y1="185.656" x2="606.435"/><line class="cls-3" x1="577.435" x2="928" y2="202.399"/><line class="cls-3" x1="562.935" x2="928" y2="210.771"/><line class="cls-3" x1="548.435" x2="928" y2="219.142"/><line class="cls-3" x1="519.435" x2="928" y2="235.885"/><line class="cls-3" x1="504.935" x2="928" y2="244.257"/><line class="cls-3" x1="928" y1="252.628" x2="490.435"/><line class="cls-3" x1="461.435" x2="928" y2="269.372"/><line class="cls-3" x1="446.935" x2="928" y2="277.743"/><line class="cls-3" x1="432.435" x2="928" y2="286.115"/><line class="cls-3" x1="403.435" x2="928" y2="302.858"/><line class="cls-3" x1="928" y1="311.23" x2="388.935"/><line class="cls-3" x1="374.435" x2="928" y2="319.601"/><line class="cls-3" x1="345.435" x2="928" y2="336.344"/><line class="cls-3" x1="330.935" x2="928" y2="344.716"/><line class="cls-3" x1="928" y1="353.087" x2="316.435"/><line class="cls-3" x1="287.435" x2="928" y2="369.831"/><line class="cls-3" x1="928" y1="378.202" x2="272.935"/><line class="cls-3" x1="258.435" x2="928" y2="386.574"/><line class="cls-3" x1="229.435" x2="928" y2="403.317"/><line class="cls-3" x1="214.935" x2="928" y2="411.688"/><line class="cls-3" x1="928" y1="420.06" x2="200.435"/><line class="cls-3" x1="928" y1="436.803" x2="171.435"/><line class="cls-3" x1="156.935" x2="928" y2="445.175"/><line class="cls-3" x1="142.435" x2="928" y2="453.546"/><line class="cls-3" x1="113.435" x2="928" y2="470.29"/><line class="cls-3" x1="928" y1="478.661" x2="98.935"/><line class="cls-3" x1="84.435" x2="928" y2="487.033"/><line class="cls-3" x1="55.435" x2="928" y2="503.776"/><line class="cls-3" x1="40.935" x2="928" y2="512.147"/><line class="cls-3" x1="928" y1="520.519" x2="26.435"/><line class="cls-3" y1="1.481" x2="901.565" y2="522"/><line class="cls-3" y1="9.853" x2="887.065" y2="522"/><line class="cls-3" y1="18.224" x2="872.565" y2="522"/><line class="cls-3" y1="34.967" x2="843.565" y2="522"/><line class="cls-3" y1="43.339" x2="829.065" y2="522"/><line class="cls-3" x1="814.565" y1="522" y2="51.711"/><line class="cls-3" x1="785.565" y1="522" y2="68.454"/><line class="cls-3" y1="76.825" x2="771.065" y2="522"/><line class="cls-3" y1="85.197" x2="756.565" y2="522"/><line class="cls-3" y1="101.94" x2="727.565" y2="522"/><line class="cls-3" y1="110.312" x2="713.065" y2="522"/><line class="cls-3" y1="118.683" x2="698.565" y2="522"/><line class="cls-3" x1="669.565" y1="522" y2="135.426"/><line class="cls-3" y1="143.798" x2="655.065" y2="522"/><line class="cls-3" y1="152.169" x2="640.565" y2="522"/><line class="cls-3" y1="168.913" x2="611.565" y2="522"/><line class="cls-3" x1="597.065" y1="522" y2="177.284"/><line class="cls-3" y1="185.656" x2="582.565" y2="522"/><line class="cls-3" y1="202.399" x2="553.565" y2="522"/><line class="cls-3" y1="210.771" x2="539.065" y2="522"/><line class="cls-3" x1="524.565" y1="522" y2="219.142"/><line class="cls-3" x1="495.565" y1="522" y2="235.885"/><line class="cls-3" y1="244.257" x2="481.065" y2="522"/><line class="cls-3" y1="252.628" x2="466.565" y2="522"/><line class="cls-3" y1="269.372" x2="437.565" y2="522"/><line class="cls-3" x1="423.065" y1="522" y2="277.743"/><line class="cls-3" y1="286.115" x2="408.565" y2="522"/><line class="cls-3" x1="379.565" y1="522" y2="302.858"/><line class="cls-3" y1="311.229" x2="365.065" y2="522"/><line class="cls-3" x1="350.565" y1="522" y2="319.601"/><line class="cls-3" y1="336.344" x2="321.565" y2="522"/><line class="cls-3" x1="307.065" y1="522" y2="344.716"/><line class="cls-3" y1="353.087" x2="292.565" y2="522"/><line class="cls-3" y1="369.831" x2="263.565" y2="522"/><line class="cls-3" y1="378.202" x2="249.065" y2="522"/><line class="cls-3" x1="234.565" y1="522" y2="386.574"/><line class="cls-3" x1="205.565" y1="522" y2="403.317"/><line class="cls-3" y1="411.688" x2="191.065" y2="522"/><line class="cls-3" y1="420.06" x2="176.565" y2="522"/><line class="cls-3" y1="436.803" x2="147.565" y2="522"/><line class="cls-3" x1="133.065" y1="522" y2="445.175"/><line class="cls-3" y1="453.546" x2="118.565" y2="522"/><line class="cls-3" x1="89.565" y1="522" y2="470.29"/><line class="cls-3" y1="478.661" x2="75.065" y2="522"/><line class="cls-3" x1="60.565" y1="522" y2="487.033"/><line class="cls-3" y1="503.776" x2="31.565" y2="522"/><line class="cls-3" x1="17.065" y1="522" y2="512.147"/><line class="cls-3" y1="520.519" x2="2.565" y2="522"/><line class="cls-3" x1="765.935" x2="928" y2="93.568"/><line class="cls-3" x1="649.935" x2="928" y2="160.541"/><line class="cls-3" x1="533.935" x2="928" y2="227.514"/><line class="cls-3" x1="928" y1="294.486" x2="417.935"/><line class="cls-3" x1="301.935" x2="928" y2="361.459"/><line class="cls-3" x1="185.935" x2="928" y2="428.432"/><line class="cls-3" x1="69.935" x2="928" y2="495.404"/><line class="cls-3" x1="858.065" y1="522" y2="26.596"/><line class="cls-3" x1="742.065" y1="522" y2="93.568"/><line class="cls-3" y1="160.541" x2="626.065" y2="522"/><line class="cls-3" y1="227.514" x2="510.065" y2="522"/><line class="cls-3" y1="294.486" x2="394.065" y2="522"/><line class="cls-3" x1="278.065" y1="522" y2="361.459"/><line class="cls-3" x1="162.065" y1="522" y2="428.432"/><line class="cls-3" x1="881.935" x2="928" y2="26.596"/><line class="cls-3" y1="495.404" x2="46.065" y2="522"/><line class="cls-4" x1="464" x2="464" y2="522"/><line class="cls-4" x1="232" x2="232" y2="522"/><line class="cls-4" x1="696" x2="696" y2="522"/><line class="cls-4" x1="116" x2="116" y2="522"/><line class="cls-4" x1="580" x2="580" y2="522"/><line class="cls-4" x1="348" x2="348" y2="522"/><line class="cls-4" x1="812" x2="812" y2="522"/><line class="cls-4" x1="58" x2="58" y2="522"/><line class="cls-4" x1="522" x2="522" y2="522"/><line class="cls-4" x1="290" x2="290" y2="522"/><line class="cls-4" x1="754" x2="754" y2="522"/><line class="cls-4" x1="174" x2="174" y2="522"/><line class="cls-4" x1="638" x2="638" y2="522"/><line class="cls-4" x1="406" x2="406" y2="522"/><line class="cls-4" x1="870" x2="870" y2="522"/><line class="cls-4" y1="60.082" x2="104.065"/><line class="cls-4" y1="127.055" x2="220.065"/><line class="cls-4" y1="194.027" x2="336.065"/><line class="cls-4" y1="261" x2="452.065"/><line class="cls-4" y1="327.973" x2="568.065"/><line class="cls-4" y1="394.945" x2="684.065"/><line class="cls-4" x1="800.065" y2="461.918"/><line class="cls-4" x1="11.935" y1="522" x2="916.065"/><line class="cls-4" x1="127.935" y1="522" x2="928" y2="60.082"/><line class="cls-4" x1="243.935" y1="522" x2="928" y2="127.055"/><line class="cls-4" x1="928" y1="194.027" x2="359.935" y2="522"/><line class="cls-4" x1="475.935" y1="522" x2="928" y2="261"/><line class="cls-4" x1="591.935" y1="522" x2="928" y2="327.973"/><line class="cls-4" x1="707.935" y1="522" x2="928" y2="394.945"/><line class="cls-4" x1="823.935" y1="522" x2="928" y2="461.918"/><line class="cls-4" x1="823.935" x2="928" y2="60.082"/><line class="cls-4" x1="707.935" x2="928" y2="127.055"/><line class="cls-4" x1="591.935" x2="928" y2="194.027"/><line class="cls-4" x1="475.935" x2="928" y2="261"/><line class="cls-4" x1="359.935" x2="928" y2="327.973"/><line class="cls-4" x1="243.935" x2="928" y2="394.945"/><line class="cls-4" x1="928" y1="461.918" x2="127.935"/><line class="cls-4" x1="11.935" x2="916.065" y2="522"/><line class="cls-4" y1="60.082" x2="800.065" y2="522"/><line class="cls-4" y1="127.055" x2="684.065" y2="522"/><line class="cls-4" x1="568.065" y1="522" y2="194.027"/><line class="cls-4" y1="261" x2="452.065" y2="522"/><line class="cls-4" y1="327.973" x2="336.065" y2="522"/><line class="cls-4" y1="394.945" x2="220.065" y2="522"/><line class="cls-4" y1="461.918" x2="104.065" y2="522"/></g></g></svg>