<svg data-name="Layer 1" xmlns="http://www.w3.org/2000/svg" viewBox="0 0 288 288"><defs><linearGradient id="a" x1="200.82" y1="182.4" x2="200.82" y2="150.94" gradientUnits="userSpaceOnUse"><stop offset=".2" stop-color="#fff"/><stop offset="1" stop-color="#fff" stop-opacity="0"/></linearGradient><linearGradient id="b" x1="68.05" y1="248.61" x2="248.63" y2="68.04" gradientUnits="userSpaceOnUse"><stop offset=".1" stop-color="#ee538b"/><stop offset=".9" stop-color="#8a3ffc"/></linearGradient></defs><path fill="#fff" d="M0 0h288v288H0z"/><path d="M195.6 155.46v26.94h11.47v-26.94a17.2 17.2 0 00-17.2-17.2H98.13a5.72 5.72 0 01-5.73-5.73v-22.94h17.2V63.72H63.73v45.87h17.2v22.94a17.2 17.2 0 0017.2 17.2h91.74a5.73 5.73 0 015.73 5.73zM75.19 98.13V75.19h22.94v22.94z" fill="#051b75"/><path fill="url(#a)" d="M191.31 150.94h19.02v31.46h-19.02z"/><path d="M86.66 189.87a11.47 11.47 0 11-11.47 11.47 11.46 11.46 0 0111.47-11.47m0-11.47a22.94 22.94 0 1022.94 22.94 22.93 22.93 0 00-22.94-22.94zM144 75.19a11.47 11.47 0 11-11.47 11.47A11.48 11.48 0 01144 75.19m0-11.47a22.94 22.94 0 1022.94 22.94A22.94 22.94 0 00144 63.72zm57.34 11.47a11.47 11.47 0 11-11.47 11.47 11.48 11.48 0 0111.47-11.47m0-11.47a22.94 22.94 0 1022.93 22.94 22.94 22.94 0 00-22.93-22.94zm-45.87 126.15v22.93h-22.94v-22.93h22.94m11.47-11.47h-45.88v45.87h45.88zm34.4 11.47a11.47 11.47 0 11-11.47 11.47 11.47 11.47 0 0111.47-11.47m0-11.47a22.94 22.94 0 1022.93 22.94 22.94 22.94 0 00-22.93-22.94z" fill="url(#b)"/></svg>