<?xml version="1.0" encoding="UTF-8"?>
<svg id="uuid-8d7d0d74-3cd7-4d20-9472-9cc8beec9030" data-name="Layer 1" xmlns="http://www.w3.org/2000/svg" viewBox="0 0 288 288">
  <rect x="-32" y="-24" width="360" height="336" fill="#fff" stroke-width="0"/>
  <rect x="40" y="176" width="200" height="48" fill="#edf5ff" stroke-width="0"/>
  <polygon points="240 224 240 223.5 40.5 223.5 40.5 176.5 239.5 176.5 239.5 224 240 224 240 223.5 240 224 240.5 224 240.5 175.5 39.5 175.5 39.5 224.5 240.5 224.5 240.5 224 240 224" fill="#0f62fe" stroke-width="0"/>
  <rect x="40" y="176" width="3" height="48" fill="#0f62fe" stroke-width="0"/>
  <polygon points="43 224 43 223.5 40.5 223.5 40.5 176.5 42.5 176.5 42.5 224 43 224 43 223.5 43 224 43.5 224 43.5 175.5 39.5 175.5 39.5 224.5 43.5 224.5 43.5 224 43 224" fill="#0f62fe" stroke-width="0"/>
  <polygon points="44.975 172.527 243.473 172.527 243.473 218.982 244.527 218.982 244.527 171.473 44.975 171.473 44.975 172.527" fill="#0f62fe" stroke-width="0"/>
  <polygon points="49.983 168.5 247.5 168.5 247.5 213.957 248.5 213.957 248.5 167.5 49.983 167.5 49.983 168.5" fill="#0f62fe" stroke-width="0"/>
  <path d="M189.772,200.036c0-2.704-1.064-5.057-2.465-6.275h-1.695c1.513,1.4,2.479,3.502,2.479,5.771v1.037c0,2.325-.98,4.412-2.479,5.771h1.695c1.373-1.176,2.465-3.571,2.465-6.303ZM185,202.852h-4.776l2.059-1.695c1.359-1.12,2.465-2.157,2.465-3.782,0-1.681-1.177-2.913-3.236-2.913-1.989,0-3.04,1.135-3.46,2.438l1.597.616c.224-.799.7-1.457,1.709-1.457.798,0,1.442.477,1.442,1.331v.182c0,.854-.476,1.527-1.513,2.438l-3.067,2.689v1.709h6.779v-1.555ZM176.964,204.406v-1.499h-2.241v-8.278h-2.788l-2.423,2.886,1.148.967,2.129-2.521h.126v6.947h-2.689v1.499h6.737ZM164.934,200.036c0,2.731,1.093,5.127,2.465,6.303h1.695c-1.499-1.358-2.479-3.445-2.479-5.771v-1.037c0-2.269.966-4.37,2.479-5.771h-1.695c-1.4,1.219-2.465,3.571-2.465,6.275ZM157.083,198.271c.924,0,1.442.687,1.442,1.695v.126h-2.998v-.112c0-1.008.617-1.709,1.555-1.709ZM157.111,204.574c1.359,0,2.423-.519,3.025-1.345l-.966-1.078c-.448.574-.98.994-1.863.994-1.177,0-1.779-.714-1.779-1.765v-.183h4.861v-.588c0-2.003-1.051-3.685-3.334-3.685-2.143,0-3.39,1.499-3.39,3.811,0,2.339,1.289,3.838,3.446,3.838ZM152.799,204.406v-1.429h-.966v-8.937h-1.793v8.601c0,1.12.574,1.765,1.793,1.765h.966ZM145.169,200.639c-.854,0-1.316-.393-1.316-1.121v-.238c0-.742.462-1.12,1.316-1.12s1.317.378,1.317,1.12v.238c0,.729-.462,1.121-1.317,1.121ZM147.326,205.232c0,.616-.518.911-1.681.911h-.896c-1.121,0-1.541-.337-1.541-.896,0-.295.112-.561.378-.757h2.493c.911,0,1.247.28,1.247.742ZM149.007,205.022c0-1.316-.771-2.087-2.563-2.087h-1.961c-.645,0-.953-.183-.953-.547,0-.321.238-.532.518-.658.322.084.701.126,1.121.126,1.989,0,3.026-.98,3.026-2.451,0-.896-.378-1.61-1.135-2.031v-.195h1.555v-1.373h-1.134c-.672,0-1.037.351-1.037,1.064v.238c-.364-.126-.827-.183-1.275-.183-1.975,0-3.025.995-3.025,2.479,0,.967.448,1.724,1.331,2.13v.056c-.7.154-1.345.532-1.345,1.289,0,.588.336,1.064.938,1.218v.154c-.812.126-1.303.589-1.303,1.401,0,1.078.938,1.723,3.404,1.723,2.802,0,3.838-.826,3.838-2.354ZM135.97,204.406v-4.833c0-.784.714-1.176,1.457-1.176.854,0,1.205.532,1.205,1.568v4.44h1.793v-4.622c0-1.821-.84-2.858-2.339-2.858-1.135,0-1.751.603-2.045,1.387h-.07v-1.218h-1.793v7.312h1.793ZM128.761,203.271c-.7,0-1.106-.294-1.106-.883v-.237c0-.574.462-.896,1.401-.896h1.148v.966c0,.687-.645,1.051-1.443,1.051ZM128.159,204.574c1.092,0,1.891-.49,2.129-1.429h.084c.112.757.588,1.261,1.359,1.261h.995v-1.429h-.729v-3.446c0-1.667-1.051-2.605-3.026-2.605-1.471,0-2.325.561-2.857,1.401l1.064.952c.351-.504.827-.924,1.667-.924.953,0,1.359.476,1.359,1.288v.532h-1.247c-1.989,0-3.124.742-3.124,2.241,0,1.303.841,2.157,2.326,2.157ZM123.399,204.406h1.289v-1.429h-1.387v-4.454h1.499v-1.429h-1.499v-2.004h-1.611v1.247c0,.504-.168.757-.7.757h-.561v1.429h1.079v4.02c0,1.191.658,1.863,1.891,1.863ZM116.82,204.574c1.415,0,2.437-.645,2.913-1.933l-1.373-.658c-.266.658-.687,1.148-1.541,1.148-.995,0-1.499-.687-1.499-1.709v-1.331c0-1.022.504-1.723,1.499-1.723.77,0,1.232.448,1.4,1.064l1.471-.658c-.434-1.148-1.4-1.85-2.871-1.85-2.157,0-3.376,1.472-3.376,3.811,0,2.354,1.219,3.838,3.376,3.838ZM109.05,198.271c.924,0,1.442.687,1.442,1.695v.126h-2.998v-.112c0-1.008.616-1.709,1.555-1.709ZM109.078,204.574c1.359,0,2.423-.519,3.025-1.345l-.966-1.078c-.448.574-.98.994-1.863.994-1.177,0-1.779-.714-1.779-1.765v-.183h4.861v-.588c0-2.003-1.051-3.685-3.334-3.685-2.143,0-3.39,1.499-3.39,3.811,0,2.339,1.289,3.838,3.446,3.838ZM98.997,199.083v-2.843h2.381c.714,0,1.148.378,1.148,1.092v.645c0,.715-.434,1.106-1.148,1.106h-2.381ZM98.997,200.639h1.751l1.821,3.768h2.06l-2.003-3.979c1.205-.406,1.821-1.429,1.821-2.773,0-1.849-1.107-3.025-2.886-3.025h-4.413v9.777h1.849v-3.768Z" fill="#000" stroke-width="0"/>
  <path d="M68,192.246c2.071,0,3.75,1.679,3.75,3.75s-1.679,3.75-3.75,3.75-3.75-1.679-3.75-3.75c.002-2.07,1.68-3.748,3.75-3.75M68,190.746c-2.9,0-5.25,2.351-5.25,5.25s2.35,5.25,5.25,5.25,5.25-2.35,5.25-5.25-2.35-5.25-5.25-5.25Z" fill="#000" stroke-width="0"/>
  <path d="M75.5,211.746h-1.5v-3.75c-.002-2.07-1.68-3.748-3.75-3.75h-4.5c-2.07.002-3.748,1.68-3.75,3.75v3.75h-1.5v-3.75c.003-2.898,2.352-5.247,5.25-5.25h4.5c2.898.003,5.247,2.352,5.25,5.25v3.75Z" fill="#000" stroke-width="0"/>
  <rect x="40" y="64" width="200" height="48" rx="8" ry="8" fill="#edf5ff" stroke-width="0"/>
  <path d="M232,112v-.5H48c-2.073,0-3.944-.839-5.303-2.197-1.358-1.359-2.196-3.231-2.197-5.303v-32c0-2.073.839-3.945,2.197-5.303,1.359-1.358,3.231-2.196,5.303-2.197h184c2.073,0,3.944.839,5.303,2.197,1.358,1.359,2.196,3.231,2.197,5.303v32c0,2.073-.839,3.945-2.197,5.303-1.359,1.358-3.231,2.196-5.303,2.197v1c4.695,0,8.5-3.805,8.5-8.5v-32c0-4.695-3.805-8.5-8.5-8.5H48c-4.695,0-8.5,3.805-8.5,8.5v32c0,4.695,3.805,8.5,8.5,8.5h184v-.5Z" fill="#0f62fe" stroke-width="0"/>
  <path d="M182.303,87.993c0-2.704-1.064-5.057-2.465-6.275h-1.695c1.513,1.4,2.479,3.502,2.479,5.771v1.037c0,2.325-.98,4.412-2.479,5.771h1.695c1.373-1.176,2.465-3.571,2.465-6.303ZM174.043,87.391c-1.022,0-1.653-.588-1.653-1.653v-.21c0-1.064.63-1.652,1.653-1.652,1.037,0,1.653.588,1.653,1.652v.21c0,1.065-.616,1.653-1.653,1.653ZM177.601,86.256c0-2.339-1.317-3.838-3.558-3.838-2.157,0-3.544,1.4-3.544,3.376,0,1.849,1.233,3.025,2.858,3.025,1.232,0,1.849-.687,2.213-1.442l.112.027c-.435,1.989-1.779,3.306-4.076,4.959h2.493c1.639-1.106,3.502-3.306,3.502-6.107ZM165.865,87.993c0,2.731,1.093,5.127,2.465,6.303h1.695c-1.499-1.358-2.479-3.445-2.479-5.771v-1.037c0-2.269.966-4.37,2.479-5.771h-1.695c-1.4,1.219-2.465,3.571-2.465,6.275ZM157.524,91.047c-.924,0-1.555-.673-1.555-1.709v-1.261c0-1.037.63-1.723,1.555-1.723.854,0,1.513.462,1.513,1.176v2.325c0,.757-.659,1.191-1.513,1.191ZM159.037,92.363h1.793v-10.365h-1.793v4.258h-.07c-.252-.84-1.05-1.373-2.017-1.373-1.835,0-2.857,1.373-2.857,3.811,0,2.451,1.022,3.838,2.857,3.838.967,0,1.751-.561,2.017-1.387h.07v1.219ZM149.614,86.228c.924,0,1.442.687,1.442,1.695v.126h-2.998v-.112c0-1.008.617-1.709,1.555-1.709ZM149.642,92.531c1.359,0,2.423-.519,3.025-1.345l-.966-1.078c-.448.574-.98.994-1.863.994-1.177,0-1.779-.714-1.779-1.765v-.183h4.861v-.588c0-2.003-1.051-3.685-3.334-3.685-2.143,0-3.39,1.499-3.39,3.811,0,2.339,1.289,3.838,3.446,3.838ZM141.312,91.047c-.924,0-1.555-.673-1.555-1.709v-1.261c0-1.037.63-1.723,1.555-1.723.854,0,1.513.462,1.513,1.176v2.325c0,.757-.659,1.191-1.513,1.191ZM142.825,92.363h1.793v-10.365h-1.793v4.258h-.07c-.252-.84-1.05-1.373-2.017-1.373-1.835,0-2.857,1.373-2.857,3.811,0,2.451,1.022,3.838,2.857,3.838.967,0,1.751-.561,2.017-1.387h.07v1.219ZM131.847,92.363v-4.833c0-.784.714-1.176,1.457-1.176.854,0,1.205.532,1.205,1.568v4.44h1.793v-4.622c0-1.821-.84-2.858-2.339-2.858-1.135,0-1.751.603-2.045,1.387h-.07v-1.218h-1.793v7.312h1.793ZM126.193,92.363h1.793v-7.312h-1.793v4.832c0,.784-.714,1.163-1.429,1.163-.854,0-1.232-.547-1.232-1.555v-4.44h-1.793v4.622c0,1.821.84,2.857,2.339,2.857,1.205,0,1.793-.658,2.045-1.387h.07v1.219ZM116.84,91.089c-.924,0-1.513-.603-1.513-1.709v-1.359c0-1.092.588-1.694,1.513-1.694.938,0,1.527.603,1.527,1.694v1.359c0,1.106-.588,1.709-1.527,1.709ZM116.84,92.531c2.101,0,3.404-1.484,3.404-3.838,0-2.339-1.303-3.811-3.404-3.811-2.087,0-3.39,1.472-3.39,3.811,0,2.354,1.303,3.838,3.39,3.838ZM106.816,87.04v-2.843h2.381c.714,0,1.148.378,1.148,1.092v.645c0,.715-.434,1.106-1.148,1.106h-2.381ZM106.816,88.596h1.751l1.821,3.768h2.06l-2.003-3.979c1.205-.406,1.821-1.429,1.821-2.773,0-1.849-1.107-3.025-2.886-3.025h-4.413v9.777h1.849v-3.768Z" fill="#000" stroke-width="0"/>
  <path d="M48,60.5h187.758c2.339.002,4.261.845,5.612,2.196,1.35,1.353,2.129,3.22,2.13,5.304v36h1v-36c0-2.334-.881-4.467-2.422-6.01-1.54-1.544-3.738-2.492-6.32-2.49H48v1Z" fill="#0f62fe" stroke-width="0"/>
  <path d="M52,56.5h188c2.339.002,4.193.843,5.484,2.189,1.289,1.348,2.015,3.217,2.016,5.311v36h1v-36c0-2.324-.812-4.455-2.294-6.003-1.479-1.549-3.625-2.5-6.206-2.497H52v1Z" fill="#0f62fe" stroke-width="0"/>
  <path d="M88,112.169h-40c-4.418,0-8-3.582-8-8v-32c0-4.418,3.582-8,8-8h40v48Z" fill="#0f62fe" stroke-width="0"/>
  <path d="M63.924,80.415c2.071,0,3.75,1.679,3.75,3.75s-1.679,3.75-3.75,3.75-3.75-1.679-3.75-3.75c.002-2.07,1.68-3.748,3.75-3.75M63.924,78.915c-2.9,0-5.25,2.35-5.25,5.25s2.35,5.25,5.25,5.25,5.25-2.351,5.25-5.25-2.351-5.25-5.25-5.25Z" fill="#fff" stroke-width="0"/>
  <path d="M71.424,99.915h-1.5v-3.75c-.002-2.07-1.68-3.748-3.75-3.75h-4.5c-2.07.002-3.748,1.68-3.75,3.75v3.75h-1.5v-3.75c.003-2.898,2.352-5.247,5.25-5.25h4.5c2.898.003,5.247,2.352,5.25,5.25v3.75Z" fill="#fff" stroke-width="0"/>
</svg>