<?xml version="1.0" encoding="UTF-8"?><svg xmlns="http://www.w3.org/2000/svg" viewBox="0 0 512 512"><defs><style>.cls-1{fill:#fff;}.cls-2{fill:none;stroke:#161616;stroke-miterlimit:10;stroke-width:.75px;}</style></defs><g id="Guidance_Slides"><rect class="cls-1" width="512" height="512"/></g><g id="Layer_1"><path class="cls-2" d="m321.58,436.75h-44.21c-12.02,0-21.03-3.37-27.04-10.09-6.01-6.73-9.01-15.1-9.01-25.11v-30.48c-17.17-1.72-32.77-6.29-46.79-13.74-14.02-7.44-25.9-17.67-35.63-30.69-9.73-13.02-17.24-28.76-22.54-47.22-5.3-18.46-7.94-39.42-7.94-62.88,0-25.18,3-47.36,9.01-66.53,6.01-19.17,14.52-35.34,25.54-48.5,11.01-13.16,24.32-23.11,39.92-29.83,15.59-6.72,33.12-10.09,52.58-10.09s36.63,3.37,52.37,10.09c15.73,6.73,29.11,16.67,40.13,29.83,11.01,13.17,19.53,29.34,25.54,48.5,6.01,19.18,9.01,41.36,9.01,66.53,0,46.08-9.59,82.06-28.76,107.95-19.18,25.9-45.22,41.14-78.12,45.71v36.49h45.93v30.05Zm-66.1-97.44c12.88,0,24.75-2.29,35.63-6.88,10.87-4.59,20.24-11.18,28.12-19.78,7.87-8.6,13.95-18.91,18.24-30.96,4.29-12.04,6.44-25.51,6.44-40.42v-49.87c0-14.9-2.15-28.38-6.44-40.42-4.29-12.04-10.38-22.36-18.24-30.96-7.87-8.6-17.24-15.19-28.12-19.78-10.88-4.59-22.75-6.88-35.63-6.88s-24.75,2.29-35.63,6.88c-10.88,4.59-20.25,11.18-28.12,19.78-7.87,8.6-13.95,18.92-18.24,30.96-4.29,12.05-6.44,25.52-6.44,40.42v49.87c0,14.91,2.15,28.38,6.44,40.42,4.29,12.05,10.37,22.36,18.24,30.96,7.87,8.6,17.24,15.19,28.12,19.78,10.87,4.59,22.75,6.88,35.63,6.88Z"/><path class="cls-2" d="m330.19,447.44h-40.35c-23.18,0-40.07-5.44-50.65-16.31-10.59-10.88-15.88-26.61-15.88-47.22v-12.45c-32.05-5.72-57.45-21.39-76.19-47-18.75-25.61-28.12-60.88-28.12-105.81,0-25.47,3.15-47.86,9.44-67.18,6.29-19.32,15.16-35.48,26.61-48.5,11.44-13.02,25.33-22.82,41.64-29.4,16.31-6.58,34.34-9.87,54.08-9.87s37.77,3.29,54.08,9.87c16.31,6.59,30.19,16.38,41.64,29.4,11.44,13.02,20.32,29.19,26.61,48.5,6.29,19.32,9.44,41.71,9.44,67.18,0,43.5-8.8,77.98-26.4,103.45-17.6,25.47-41.57,41.5-71.9,48.08v24.04h45.93v53.23Zm-79.41-131.78c19.75,0,35.12-6.44,46.14-19.32,11.01-12.88,16.53-31.33,16.53-55.37v-44.64c0-24.04-5.51-42.5-16.53-55.37-11.02-12.88-26.4-19.32-46.14-19.32s-35.13,6.44-46.14,19.32c-11.02,12.88-16.53,31.33-16.53,55.37v44.64c0,24.04,5.51,42.5,16.53,55.37,11.01,12.88,26.4,19.32,46.14,19.32Z"/><path class="cls-2" d="m285.92,454.29c-10.88,0-19.39-2.51-25.54-7.51-6.16-5.01-11.66-10.95-16.53-17.81l-39.92-60.09c-26.61-4.86-46.08-16.88-58.38-36.06-12.31-19.17-18.46-43.92-18.46-74.26,0-25.47,2.5-50.07,7.51-73.83,5-23.75,12.94-44.71,23.82-62.88,10.87-18.17,24.82-32.76,41.85-43.78,17.02-11.01,37.41-16.53,61.17-16.53,18.03,0,33.62,2.58,46.79,7.73,13.16,5.15,24.04,12.6,32.62,22.32,8.58,9.73,14.88,21.61,18.89,35.63,4,14.02,6.01,29.76,6.01,47.22,0,22.32-1.93,43.93-5.79,64.82-3.86,20.89-9.87,39.99-18.03,57.3-8.16,17.32-18.6,32.19-31.33,44.64-12.74,12.45-27.97,21.11-45.71,25.97l23.18,35.2,6.87,1.72,36.49-36.06,32.62,29.62-20.6,22.75c-6.3,6.87-11.95,12.52-16.95,16.96-5.01,4.43-9.73,7.94-14.17,10.52-4.44,2.58-8.73,4.29-12.88,5.15-4.15.86-8.66,1.29-13.52,1.29Zm-54.51-134.35c18.03,0,31.26-6.72,39.7-20.17,8.44-13.45,14.66-32.47,18.67-57.09l8.59-51.51c1.72-10.3,2.58-20.6,2.58-30.91,0-14.88-3.15-26.47-9.44-34.77-6.3-8.3-16.31-12.45-30.05-12.45-18.03,0-31.27,6.73-39.7,20.17-8.44,13.45-14.67,32.48-18.67,57.09l-8.58,51.51c-1.72,10.3-2.58,20.6-2.58,30.91,0,14.88,3.15,26.47,9.44,34.77,6.29,8.3,16.31,12.45,30.05,12.45Z"/></g></svg>