<svg xmlns="http://www.w3.org/2000/svg" viewBox="0 0 928 520"><defs><style>.cls-1{fill:#fff;}.cls-2{fill:#a6c8ff;}.cls-3{fill:#f4f4f4;}.cls-4,.cls-7{opacity:0.3;}.cls-5,.cls-6,.cls-7{fill:none;stroke-linecap:round;stroke-miterlimit:10;}.cls-5,.cls-7{stroke:#ee5396;stroke-width:0.72px;}.cls-6{stroke:#d12771;}</style></defs><title>Artboard 2 copy 2</title><g id="Base"><rect class="cls-1" width="928" height="519.728"/></g><g id="Graphics"><path class="cls-2" d="M129.941,130.059A48,48,0,1,0,144,164,47.85,47.85,0,0,0,129.941,130.059Z"/><polygon class="cls-2" points="304 116 256 116 256 164 256 212 304 212 352 212 352 164 352 116 304 116"/><polygon class="cls-2" points="560 108 496 108 464 164 496 220 560 220 592 164 560 108"/><path class="cls-3" d="M96,376a48,48,0,0,0-33.941,81.941L96,424l33.941-33.941A47.85,47.85,0,0,0,96,376Z"/><path class="cls-2" d="M129.941,390.059,96,424,62.059,457.941a48,48,0,1,0,67.882-67.882Z"/><polygon class="cls-3" points="304 376 256 376 256 424 256 472 304 424 352 376 304 376"/><polygon class="cls-2" points="304 424 256 472 304 472 352 472 352 424 352 376 304 424"/><polygon class="cls-3" points="496 360 464 416 496 472 528 416 560 360 496 360"/><polygon class="cls-2" points="560 360 528 416 496 472 560 472 592 416 560 360"/><path d="M580.176,69.536a2.454,2.454,0,0,0,1.7-.518,1.716,1.716,0,0,0,.568-1.33v-.111a1.577,1.577,0,0,0-.551-1.315,2.265,2.265,0,0,0-1.449-.438,2.431,2.431,0,0,0-1.408.376,2.924,2.924,0,0,0-.895,1.016l-.993-.768a4.525,4.525,0,0,1,.5-.661,3.361,3.361,0,0,1,.7-.579,3.734,3.734,0,0,1,.927-.41,4.2,4.2,0,0,1,1.2-.158,4.7,4.7,0,0,1,1.329.183,3.17,3.17,0,0,1,1.08.542,2.578,2.578,0,0,1,.719.884,2.858,2.858,0,0,1,.1,2.165,2.4,2.4,0,0,1-.455.749,2.727,2.727,0,0,1-.681.541,3.315,3.315,0,0,1-.839.335V70.1a3.566,3.566,0,0,1,.872.314,2.776,2.776,0,0,1,.752.562,2.649,2.649,0,0,1,.527.835,2.924,2.924,0,0,1,.2,1.117,3.2,3.2,0,0,1-.272,1.325,2.927,2.927,0,0,1-.769,1.028,3.6,3.6,0,0,1-1.2.667,4.791,4.791,0,0,1-1.553.241,4.732,4.732,0,0,1-1.279-.158,3.826,3.826,0,0,1-.992-.426,4.106,4.106,0,0,1-.76-.6,5.381,5.381,0,0,1-.584-.7l1.008-.768a4.069,4.069,0,0,0,.456.608,2.622,2.622,0,0,0,.552.464,2.494,2.494,0,0,0,.687.3,3.42,3.42,0,0,0,.9.1,2.62,2.62,0,0,0,1.792-.54,1.949,1.949,0,0,0,.609-1.539V72.8a1.949,1.949,0,0,0-.609-1.539,2.62,2.62,0,0,0-1.792-.54h-1.312V69.536Z"/><path d="M590.4,76.192a3.158,3.158,0,0,1-2.919-1.52,8.233,8.233,0,0,1-.92-4.256,8.233,8.233,0,0,1,.92-4.256,3.565,3.565,0,0,1,5.84,0,8.243,8.243,0,0,1,.92,4.256,8.243,8.243,0,0,1-.92,4.256A3.161,3.161,0,0,1,590.4,76.192Zm0-1.184a2.191,2.191,0,0,0,1.122-.271,2.081,2.081,0,0,0,.751-.765,3.818,3.818,0,0,0,.424-1.164,7.525,7.525,0,0,0,.136-1.483V69.507a7.525,7.525,0,0,0-.136-1.483,3.818,3.818,0,0,0-.424-1.164,2.089,2.089,0,0,0-.751-.765,2.452,2.452,0,0,0-2.241,0,2.084,2.084,0,0,0-.752.765,3.766,3.766,0,0,0-.423,1.164,7.373,7.373,0,0,0-.137,1.483v1.818a7.373,7.373,0,0,0,.137,1.483,3.766,3.766,0,0,0,.423,1.164,2.076,2.076,0,0,0,.752.765A2.177,2.177,0,0,0,590.4,75.008Z"/><path d="M598.383,70.5a2.279,2.279,0,0,1-1.824-.76,3.754,3.754,0,0,1,0-4.24,2.569,2.569,0,0,1,3.648,0,3.754,3.754,0,0,1,0,4.24A2.279,2.279,0,0,1,598.383,70.5Zm0-.832a1.262,1.262,0,0,0,1.049-.432,1.75,1.75,0,0,0,.343-1.12V67.12a1.752,1.752,0,0,0-.343-1.12,1.487,1.487,0,0,0-2.1,0,1.735,1.735,0,0,0-.345,1.12v.992a1.734,1.734,0,0,0,.345,1.12A1.255,1.255,0,0,0,598.383,69.664Z"/><path d="M564.176,337.536a2.454,2.454,0,0,0,1.7-.518,1.716,1.716,0,0,0,.568-1.33v-.111a1.577,1.577,0,0,0-.551-1.315,2.265,2.265,0,0,0-1.449-.438,2.431,2.431,0,0,0-1.408.376,2.924,2.924,0,0,0-.895,1.016l-.993-.768a4.525,4.525,0,0,1,.5-.661,3.361,3.361,0,0,1,.7-.579,3.734,3.734,0,0,1,.927-.41,4.2,4.2,0,0,1,1.2-.158,4.7,4.7,0,0,1,1.329.183,3.17,3.17,0,0,1,1.08.542,2.578,2.578,0,0,1,.719.884,2.858,2.858,0,0,1,.1,2.165,2.4,2.4,0,0,1-.455.749,2.727,2.727,0,0,1-.681.541,3.315,3.315,0,0,1-.839.335v.064a3.566,3.566,0,0,1,.872.314,2.776,2.776,0,0,1,.752.562,2.649,2.649,0,0,1,.527.835,2.924,2.924,0,0,1,.2,1.117,3.2,3.2,0,0,1-.272,1.325,2.927,2.927,0,0,1-.769,1.028,3.6,3.6,0,0,1-1.2.667,4.791,4.791,0,0,1-1.553.241,4.732,4.732,0,0,1-1.279-.158,3.826,3.826,0,0,1-.992-.426,4.106,4.106,0,0,1-.76-.6,5.381,5.381,0,0,1-.584-.7l1.008-.768a4.069,4.069,0,0,0,.456.608,2.622,2.622,0,0,0,.552.464,2.494,2.494,0,0,0,.687.3,3.42,3.42,0,0,0,.9.1,2.62,2.62,0,0,0,1.792-.54,1.949,1.949,0,0,0,.609-1.539v-.13a1.949,1.949,0,0,0-.609-1.539,2.62,2.62,0,0,0-1.792-.54h-1.312v-1.184Z"/><path d="M574.4,344.192a3.158,3.158,0,0,1-2.919-1.52,10.3,10.3,0,0,1,0-8.512,3.565,3.565,0,0,1,5.84,0,10.3,10.3,0,0,1,0,8.512A3.161,3.161,0,0,1,574.4,344.192Zm0-1.184a2.191,2.191,0,0,0,1.122-.271,2.081,2.081,0,0,0,.751-.765,3.818,3.818,0,0,0,.424-1.164,7.525,7.525,0,0,0,.136-1.483v-1.818a7.525,7.525,0,0,0-.136-1.483,3.818,3.818,0,0,0-.424-1.164,2.089,2.089,0,0,0-.751-.765,2.452,2.452,0,0,0-2.241,0,2.084,2.084,0,0,0-.752.765,3.766,3.766,0,0,0-.423,1.164,7.373,7.373,0,0,0-.137,1.483v1.818a7.373,7.373,0,0,0,.137,1.483,3.766,3.766,0,0,0,.423,1.164,2.076,2.076,0,0,0,.752.765A2.177,2.177,0,0,0,574.4,343.008Z"/><path d="M582.383,338.5a2.279,2.279,0,0,1-1.824-.76,3.754,3.754,0,0,1,0-4.24,2.569,2.569,0,0,1,3.648,0,3.754,3.754,0,0,1,0,4.24A2.279,2.279,0,0,1,582.383,338.5Zm0-.832a1.262,1.262,0,0,0,1.049-.432,1.75,1.75,0,0,0,.343-1.12v-.992a1.752,1.752,0,0,0-.343-1.12,1.487,1.487,0,0,0-2.1,0,1.735,1.735,0,0,0-.345,1.12v.992a1.734,1.734,0,0,0,.345,1.12A1.255,1.255,0,0,0,582.383,337.664Z"/><path d="M620.815,116.192a3.953,3.953,0,0,1-1.559-.3,3.251,3.251,0,0,1-1.185-.848,3.721,3.721,0,0,1-.743-1.352,5.823,5.823,0,0,1-.257-1.792,7.3,7.3,0,0,1,.368-2.344,8.893,8.893,0,0,1,.953-2,9.423,9.423,0,0,1,1.288-1.6,8.5,8.5,0,0,1,1.376-1.128h1.727q-.9.654-1.6,1.277a9.719,9.719,0,0,0-1.233,1.3,7.856,7.856,0,0,0-.895,1.452,8.561,8.561,0,0,0-.593,1.747l.08.032a3.671,3.671,0,0,1,1.033-1.144,2.755,2.755,0,0,1,1.655-.457,3.593,3.593,0,0,1,1.329.24,2.923,2.923,0,0,1,1.04.69,3.245,3.245,0,0,1,.679,1.091,3.911,3.911,0,0,1,.248,1.427,4.136,4.136,0,0,1-.263,1.5,3.354,3.354,0,0,1-.752,1.171,3.416,3.416,0,0,1-1.176.761A4.092,4.092,0,0,1,620.815,116.192Zm-.016-1.184a2.131,2.131,0,0,0,2.337-2.352v-.128a2.342,2.342,0,1,0-4.673,0v.128a2.132,2.132,0,0,0,2.336,2.352Z"/><path d="M630.4,116.192a3.158,3.158,0,0,1-2.919-1.52,10.3,10.3,0,0,1,0-8.512,3.565,3.565,0,0,1,5.84,0,10.3,10.3,0,0,1,0,8.512A3.161,3.161,0,0,1,630.4,116.192Zm0-1.184a2.191,2.191,0,0,0,1.122-.271,2.081,2.081,0,0,0,.751-.765,3.818,3.818,0,0,0,.424-1.164,7.525,7.525,0,0,0,.136-1.483v-1.818a7.525,7.525,0,0,0-.136-1.483,3.818,3.818,0,0,0-.424-1.164,2.089,2.089,0,0,0-.751-.765,2.452,2.452,0,0,0-2.241,0,2.084,2.084,0,0,0-.752.765,3.766,3.766,0,0,0-.423,1.164,7.373,7.373,0,0,0-.137,1.483v1.818a7.373,7.373,0,0,0,.137,1.483,3.766,3.766,0,0,0,.423,1.164,2.076,2.076,0,0,0,.752.765A2.177,2.177,0,0,0,630.4,115.008Z"/><path d="M638.383,110.5a2.279,2.279,0,0,1-1.824-.76,3.754,3.754,0,0,1,0-4.24,2.569,2.569,0,0,1,3.648,0,3.754,3.754,0,0,1,0,4.24A2.279,2.279,0,0,1,638.383,110.5Zm0-.832a1.262,1.262,0,0,0,1.049-.432,1.75,1.75,0,0,0,.343-1.12v-.992a1.752,1.752,0,0,0-.343-1.12,1.487,1.487,0,0,0-2.1,0,1.735,1.735,0,0,0-.345,1.12v.992a1.734,1.734,0,0,0,.345,1.12A1.255,1.255,0,0,0,638.383,109.664Z"/><path d="M208.109,160.928a7.323,7.323,0,0,1-.367,2.344,8.913,8.913,0,0,1-.952,2,9.481,9.481,0,0,1-1.288,1.6A8.636,8.636,0,0,1,204.126,168H202.4q.9-.654,1.6-1.277a9.578,9.578,0,0,0,1.231-1.3,7.779,7.779,0,0,0,.9-1.452,8.561,8.561,0,0,0,.592-1.747l-.08-.032a3.662,3.662,0,0,1-1.033,1.145,2.762,2.762,0,0,1-1.655.456,3.564,3.564,0,0,1-1.328-.241,2.886,2.886,0,0,1-1.04-.689,3.253,3.253,0,0,1-.681-1.083,3.915,3.915,0,0,1-.248-1.435,4.116,4.116,0,0,1,.265-1.5,3.354,3.354,0,0,1,.752-1.171,3.45,3.45,0,0,1,1.168-.761,4.066,4.066,0,0,1,1.528-.273,3.958,3.958,0,0,1,1.56.3,3.252,3.252,0,0,1,1.183.848,3.724,3.724,0,0,1,.745,1.352A5.885,5.885,0,0,1,208.109,160.928Zm-3.727,1.728a2.13,2.13,0,0,0,2.336-2.352v-.128a2.341,2.341,0,1,0-4.672,0v.128a2.13,2.13,0,0,0,2.336,2.352Z"/><path d="M213.981,168.192a3.157,3.157,0,0,1-2.919-1.52,10.3,10.3,0,0,1,0-8.512,3.564,3.564,0,0,1,5.839,0,10.3,10.3,0,0,1,0,8.512A3.16,3.16,0,0,1,213.981,168.192Zm0-1.184a2.185,2.185,0,0,0,1.121-.271,2.084,2.084,0,0,0,.752-.765,3.818,3.818,0,0,0,.423-1.164,7.45,7.45,0,0,0,.136-1.483v-1.818a7.45,7.45,0,0,0-.136-1.483,3.818,3.818,0,0,0-.423-1.164,2.091,2.091,0,0,0-.752-.765,2.452,2.452,0,0,0-2.241,0,2.091,2.091,0,0,0-.752.765,3.792,3.792,0,0,0-.423,1.164,7.45,7.45,0,0,0-.136,1.483v1.818a7.45,7.45,0,0,0,.136,1.483,3.792,3.792,0,0,0,.423,1.164,2.084,2.084,0,0,0,.752.765A2.184,2.184,0,0,0,213.981,167.008Z"/><path d="M221.966,162.5a2.279,2.279,0,0,1-1.824-.76,3.749,3.749,0,0,1,0-4.24,2.568,2.568,0,0,1,3.647,0,3.754,3.754,0,0,1,0,4.24A2.278,2.278,0,0,1,221.966,162.5Zm0-.832a1.26,1.26,0,0,0,1.048-.432,1.744,1.744,0,0,0,.343-1.12v-.992a1.746,1.746,0,0,0-.343-1.12,1.487,1.487,0,0,0-2.1,0,1.741,1.741,0,0,0-.345,1.12v.992a1.739,1.739,0,0,0,.345,1.12A1.256,1.256,0,0,0,221.966,161.664Z"/><path d="M528.575,60.192a3.161,3.161,0,0,1-2.92-1.52,8.243,8.243,0,0,1-.92-4.256,8.243,8.243,0,0,1,.92-4.256,3.566,3.566,0,0,1,5.841,0,8.254,8.254,0,0,1,.92,4.256,8.254,8.254,0,0,1-.92,4.256A3.162,3.162,0,0,1,528.575,60.192Zm0-1.184a2.179,2.179,0,0,0,1.12-.271,2.061,2.061,0,0,0,.752-.765,3.792,3.792,0,0,0,.424-1.164,7.446,7.446,0,0,0,.137-1.483V53.507a7.446,7.446,0,0,0-.137-1.483,3.792,3.792,0,0,0-.424-1.164,2.069,2.069,0,0,0-.752-.765,2.45,2.45,0,0,0-2.24,0,2.091,2.091,0,0,0-.752.765,3.845,3.845,0,0,0-.424,1.164,7.453,7.453,0,0,0-.135,1.483v1.818a7.453,7.453,0,0,0,.135,1.483,3.845,3.845,0,0,0,.424,1.164,2.084,2.084,0,0,0,.752.765A2.184,2.184,0,0,0,528.575,59.008Z"/><path d="M536.56,54.5a2.283,2.283,0,0,1-1.825-.76,3.758,3.758,0,0,1,0-4.24,2.569,2.569,0,0,1,3.648,0,3.754,3.754,0,0,1,0,4.24A2.28,2.28,0,0,1,536.56,54.5Zm0-.832a1.256,1.256,0,0,0,1.047-.432,1.739,1.739,0,0,0,.344-1.12V51.12a1.741,1.741,0,0,0-.344-1.12,1.486,1.486,0,0,0-2.1,0,1.741,1.741,0,0,0-.344,1.12v.992a1.739,1.739,0,0,0,.344,1.12A1.256,1.256,0,0,0,536.56,53.664Z"/><path d="M96.575,60.192a3.161,3.161,0,0,1-2.92-1.52,8.243,8.243,0,0,1-.92-4.256,8.243,8.243,0,0,1,.92-4.256,3.566,3.566,0,0,1,5.841,0,8.254,8.254,0,0,1,.92,4.256,8.254,8.254,0,0,1-.92,4.256A3.162,3.162,0,0,1,96.575,60.192Zm0-1.184a2.179,2.179,0,0,0,1.12-.271,2.061,2.061,0,0,0,.752-.765,3.792,3.792,0,0,0,.424-1.164,7.446,7.446,0,0,0,.137-1.483V53.507a7.446,7.446,0,0,0-.137-1.483,3.792,3.792,0,0,0-.424-1.164A2.069,2.069,0,0,0,97.7,50.1a2.45,2.45,0,0,0-2.24,0,2.091,2.091,0,0,0-.752.765,3.845,3.845,0,0,0-.424,1.164,7.453,7.453,0,0,0-.135,1.483v1.818a7.453,7.453,0,0,0,.135,1.483,3.845,3.845,0,0,0,.424,1.164,2.084,2.084,0,0,0,.752.765A2.184,2.184,0,0,0,96.575,59.008Z"/><path d="M104.56,54.5a2.283,2.283,0,0,1-1.825-.76,3.758,3.758,0,0,1,0-4.24,2.569,2.569,0,0,1,3.648,0,3.754,3.754,0,0,1,0,4.24A2.28,2.28,0,0,1,104.56,54.5Zm0-.832a1.256,1.256,0,0,0,1.047-.432,1.739,1.739,0,0,0,.344-1.12V51.12a1.741,1.741,0,0,0-.344-1.12,1.486,1.486,0,0,0-2.095,0,1.741,1.741,0,0,0-.344,1.12v.992a1.739,1.739,0,0,0,.344,1.12A1.256,1.256,0,0,0,104.56,53.664Z"/><path d="M174,92V89.808h-5.393V88.624l4.672-7.792h2v7.856H176.9v1.12h-1.617V92Zm-4.129-3.312H174V81.872h-.08Z"/><path d="M185.566,82.016h-4.9l-.319,4.256h.111a3.507,3.507,0,0,1,.9-.9,2.47,2.47,0,0,1,1.384-.336,3.588,3.588,0,0,1,1.328.24,3.139,3.139,0,0,1,1.056.68,3,3,0,0,1,.7,1.08,4.015,4.015,0,0,1,.248,1.456,4.206,4.206,0,0,1-.256,1.5,3.255,3.255,0,0,1-.744,1.168,3.4,3.4,0,0,1-1.184.76,4.3,4.3,0,0,1-1.576.272,4.414,4.414,0,0,1-1.24-.158,3.633,3.633,0,0,1-.952-.426,3.91,3.91,0,0,1-.729-.6,6.5,6.5,0,0,1-.567-.7l1.009-.768a4.919,4.919,0,0,0,.439.608,2.6,2.6,0,0,0,.512.464,2.177,2.177,0,0,0,.648.3,3.243,3.243,0,0,0,.88.1,2.318,2.318,0,0,0,1.743-.61,2.362,2.362,0,0,0,.593-1.718v-.16a2.364,2.364,0,0,0-.593-1.718,2.322,2.322,0,0,0-1.743-.61,2.243,2.243,0,0,0-1.208.28,3.939,3.939,0,0,0-.792.664l-1.135-.16.4-6.144h5.983Z"/><path d="M190.383,86.5a2.279,2.279,0,0,1-1.824-.76,3.754,3.754,0,0,1,0-4.24,2.569,2.569,0,0,1,3.648,0,3.754,3.754,0,0,1,0,4.24A2.279,2.279,0,0,1,190.383,86.5Zm0-.832a1.262,1.262,0,0,0,1.049-.432,1.75,1.75,0,0,0,.343-1.12V83.12a1.752,1.752,0,0,0-.343-1.12,1.487,1.487,0,0,0-2.1,0,1.735,1.735,0,0,0-.345,1.12v.992a1.734,1.734,0,0,0,.345,1.12A1.255,1.255,0,0,0,190.383,85.664Z"/><path d="M304.575,60.192a3.161,3.161,0,0,1-2.92-1.52,8.243,8.243,0,0,1-.92-4.256,8.243,8.243,0,0,1,.92-4.256,3.566,3.566,0,0,1,5.841,0,8.254,8.254,0,0,1,.92,4.256,8.254,8.254,0,0,1-.92,4.256A3.162,3.162,0,0,1,304.575,60.192Zm0-1.184a2.179,2.179,0,0,0,1.12-.271,2.061,2.061,0,0,0,.752-.765,3.792,3.792,0,0,0,.424-1.164,7.446,7.446,0,0,0,.137-1.483V53.507a7.446,7.446,0,0,0-.137-1.483,3.792,3.792,0,0,0-.424-1.164,2.069,2.069,0,0,0-.752-.765,2.45,2.45,0,0,0-2.24,0,2.091,2.091,0,0,0-.752.765,3.845,3.845,0,0,0-.424,1.164,7.453,7.453,0,0,0-.135,1.483v1.818a7.453,7.453,0,0,0,.135,1.483,3.845,3.845,0,0,0,.424,1.164,2.084,2.084,0,0,0,.752.765A2.184,2.184,0,0,0,304.575,59.008Z"/><path d="M312.56,54.5a2.283,2.283,0,0,1-1.825-.76,3.758,3.758,0,0,1,0-4.24,2.569,2.569,0,0,1,3.648,0,3.754,3.754,0,0,1,0,4.24A2.28,2.28,0,0,1,312.56,54.5Zm0-.832a1.256,1.256,0,0,0,1.047-.432,1.739,1.739,0,0,0,.344-1.12V51.12a1.741,1.741,0,0,0-.344-1.12,1.486,1.486,0,0,0-2.1,0,1.741,1.741,0,0,0-.344,1.12v.992a1.739,1.739,0,0,0,.344,1.12A1.256,1.256,0,0,0,312.56,53.664Z"/><path d="M416.109,160.928a7.323,7.323,0,0,1-.367,2.344,8.913,8.913,0,0,1-.952,2,9.481,9.481,0,0,1-1.288,1.6A8.636,8.636,0,0,1,412.126,168H410.4q.9-.654,1.6-1.277a9.578,9.578,0,0,0,1.231-1.3,7.779,7.779,0,0,0,.9-1.452,8.561,8.561,0,0,0,.592-1.747l-.08-.032a3.662,3.662,0,0,1-1.033,1.145,2.762,2.762,0,0,1-1.655.456,3.564,3.564,0,0,1-1.328-.241,2.886,2.886,0,0,1-1.04-.689,3.253,3.253,0,0,1-.681-1.083,3.915,3.915,0,0,1-.248-1.435,4.116,4.116,0,0,1,.265-1.5,3.354,3.354,0,0,1,.752-1.171,3.45,3.45,0,0,1,1.168-.761,4.066,4.066,0,0,1,1.528-.273,3.958,3.958,0,0,1,1.56.3,3.252,3.252,0,0,1,1.183.848,3.724,3.724,0,0,1,.745,1.352A5.885,5.885,0,0,1,416.109,160.928Zm-3.727,1.728a2.13,2.13,0,0,0,2.336-2.352v-.128a2.341,2.341,0,1,0-4.672,0v.128a2.13,2.13,0,0,0,2.336,2.352Z"/><path d="M421.981,168.192a3.157,3.157,0,0,1-2.919-1.52,10.3,10.3,0,0,1,0-8.512,3.564,3.564,0,0,1,5.839,0,10.3,10.3,0,0,1,0,8.512A3.16,3.16,0,0,1,421.981,168.192Zm0-1.184a2.185,2.185,0,0,0,1.121-.271,2.084,2.084,0,0,0,.752-.765,3.818,3.818,0,0,0,.423-1.164,7.45,7.45,0,0,0,.136-1.483v-1.818a7.45,7.45,0,0,0-.136-1.483,3.818,3.818,0,0,0-.423-1.164,2.091,2.091,0,0,0-.752-.765,2.452,2.452,0,0,0-2.241,0,2.091,2.091,0,0,0-.752.765,3.792,3.792,0,0,0-.423,1.164,7.45,7.45,0,0,0-.136,1.483v1.818a7.45,7.45,0,0,0,.136,1.483,3.792,3.792,0,0,0,.423,1.164,2.084,2.084,0,0,0,.752.765A2.184,2.184,0,0,0,421.981,167.008Z"/><path d="M429.966,162.5a2.279,2.279,0,0,1-1.824-.76,3.749,3.749,0,0,1,0-4.24,2.568,2.568,0,0,1,3.647,0,3.754,3.754,0,0,1,0,4.24A2.278,2.278,0,0,1,429.966,162.5Zm0-.832a1.26,1.26,0,0,0,1.048-.432,1.744,1.744,0,0,0,.343-1.12v-.992a1.746,1.746,0,0,0-.343-1.12,1.487,1.487,0,0,0-2.1,0,1.741,1.741,0,0,0-.345,1.12v.992a1.739,1.739,0,0,0,.345,1.12A1.256,1.256,0,0,0,429.966,161.664Z"/><path d="M382,92V89.808h-5.393V88.624l4.672-7.792h2v7.856H384.9v1.12h-1.617V92Zm-4.129-3.312H382V81.872h-.08Z"/><path d="M393.566,82.016h-4.895l-.319,4.256h.111a3.507,3.507,0,0,1,.9-.9,2.47,2.47,0,0,1,1.384-.336,3.588,3.588,0,0,1,1.328.24,3.139,3.139,0,0,1,1.056.68,3,3,0,0,1,.7,1.08,4.015,4.015,0,0,1,.248,1.456,4.206,4.206,0,0,1-.256,1.5,3.255,3.255,0,0,1-.744,1.168,3.4,3.4,0,0,1-1.184.76,4.3,4.3,0,0,1-1.576.272,4.414,4.414,0,0,1-1.24-.158,3.633,3.633,0,0,1-.952-.426,3.91,3.91,0,0,1-.729-.6,6.5,6.5,0,0,1-.567-.7l1.009-.768a4.919,4.919,0,0,0,.439.608,2.6,2.6,0,0,0,.512.464,2.177,2.177,0,0,0,.648.3,3.243,3.243,0,0,0,.88.1,2.318,2.318,0,0,0,1.743-.61,2.362,2.362,0,0,0,.593-1.718v-.16a2.364,2.364,0,0,0-.593-1.718,2.322,2.322,0,0,0-1.743-.61,2.243,2.243,0,0,0-1.208.28,3.939,3.939,0,0,0-.792.664l-1.135-.16.4-6.144h5.983Z"/><path d="M398.383,86.5a2.279,2.279,0,0,1-1.824-.76,3.754,3.754,0,0,1,0-4.24,2.569,2.569,0,0,1,3.648,0,3.754,3.754,0,0,1,0,4.24A2.279,2.279,0,0,1,398.383,86.5Zm0-.832a1.262,1.262,0,0,0,1.049-.432,1.75,1.75,0,0,0,.343-1.12V83.12a1.752,1.752,0,0,0-.343-1.12,1.487,1.487,0,0,0-2.1,0,1.735,1.735,0,0,0-.345,1.12v.992a1.734,1.734,0,0,0,.345,1.12A1.255,1.255,0,0,0,398.383,85.664Z"/><path d="M382,344v-2.192h-5.393v-1.184l4.672-7.792h2v7.856H384.9v1.12h-1.617V344Zm-4.129-3.312H382v-6.816h-.08Z"/><path d="M393.566,334.016h-4.895l-.319,4.256h.111a3.507,3.507,0,0,1,.9-.9,2.47,2.47,0,0,1,1.384-.336,3.588,3.588,0,0,1,1.328.24,3.139,3.139,0,0,1,1.056.68,3,3,0,0,1,.7,1.08,4.015,4.015,0,0,1,.248,1.456,4.206,4.206,0,0,1-.256,1.5,3.255,3.255,0,0,1-.744,1.168,3.4,3.4,0,0,1-1.184.76,4.3,4.3,0,0,1-1.576.272,4.414,4.414,0,0,1-1.24-.158,3.633,3.633,0,0,1-.952-.426,3.91,3.91,0,0,1-.729-.6,6.5,6.5,0,0,1-.567-.7l1.009-.768a4.919,4.919,0,0,0,.439.608,2.6,2.6,0,0,0,.512.464,2.177,2.177,0,0,0,.648.3,3.243,3.243,0,0,0,.88.1,2.318,2.318,0,0,0,1.743-.61,2.362,2.362,0,0,0,.593-1.718v-.16a2.364,2.364,0,0,0-.593-1.718,2.322,2.322,0,0,0-1.743-.61,2.243,2.243,0,0,0-1.208.28,3.939,3.939,0,0,0-.792.664l-1.135-.16.4-6.144h5.983Z"/><path d="M398.383,338.5a2.279,2.279,0,0,1-1.824-.76,3.754,3.754,0,0,1,0-4.24,2.569,2.569,0,0,1,3.648,0,3.754,3.754,0,0,1,0,4.24A2.279,2.279,0,0,1,398.383,338.5Zm0-.832a1.262,1.262,0,0,0,1.049-.432,1.75,1.75,0,0,0,.343-1.12v-.992a1.752,1.752,0,0,0-.343-1.12,1.487,1.487,0,0,0-2.1,0,1.735,1.735,0,0,0-.345,1.12v.992a1.734,1.734,0,0,0,.345,1.12A1.255,1.255,0,0,0,398.383,337.664Z"/><path d="M182,344v-2.192h-5.393v-1.184l4.672-7.792h2v7.856H184.9v1.12h-1.617V344Zm-4.129-3.312H182v-6.816h-.08Z"/><path d="M193.566,334.016h-4.9l-.319,4.256h.111a3.507,3.507,0,0,1,.9-.9,2.47,2.47,0,0,1,1.384-.336,3.588,3.588,0,0,1,1.328.24,3.139,3.139,0,0,1,1.056.68,3,3,0,0,1,.7,1.08,4.015,4.015,0,0,1,.248,1.456,4.206,4.206,0,0,1-.256,1.5,3.255,3.255,0,0,1-.744,1.168,3.4,3.4,0,0,1-1.184.76,4.3,4.3,0,0,1-1.576.272,4.414,4.414,0,0,1-1.24-.158,3.633,3.633,0,0,1-.952-.426,3.91,3.91,0,0,1-.729-.6,6.5,6.5,0,0,1-.567-.7l1.009-.768a4.919,4.919,0,0,0,.439.608,2.6,2.6,0,0,0,.512.464,2.177,2.177,0,0,0,.648.3,3.243,3.243,0,0,0,.88.1,2.318,2.318,0,0,0,1.743-.61,2.362,2.362,0,0,0,.593-1.718v-.16a2.364,2.364,0,0,0-.593-1.718,2.322,2.322,0,0,0-1.743-.61,2.243,2.243,0,0,0-1.208.28,3.939,3.939,0,0,0-.792.664l-1.135-.16.4-6.144h5.983Z"/><path d="M198.383,338.5a2.279,2.279,0,0,1-1.824-.76,3.754,3.754,0,0,1,0-4.24,2.569,2.569,0,0,1,3.648,0,3.754,3.754,0,0,1,0,4.24A2.279,2.279,0,0,1,198.383,338.5Zm0-.832a1.262,1.262,0,0,0,1.049-.432,1.75,1.75,0,0,0,.343-1.12v-.992a1.752,1.752,0,0,0-.343-1.12,1.487,1.487,0,0,0-2.1,0,1.735,1.735,0,0,0-.345,1.12v.992a1.734,1.734,0,0,0,.345,1.12A1.255,1.255,0,0,0,198.383,337.664Z"/><g class="cls-4"><line class="cls-5" x1="552.847" y1="256.729" x2="528" y2="164"/><line class="cls-5" x1="576" y1="247.138" x2="528" y2="164"/><line class="cls-5" x1="595.882" y1="231.882" x2="528" y2="164"/><line class="cls-5" x1="611.138" y1="212" x2="528" y2="164"/><line class="cls-5" x1="620.729" y1="188.847" x2="528" y2="164"/><line class="cls-5" x1="528" y1="68" x2="528" y2="260"/><line class="cls-5" x1="620.729" y1="139.153" x2="528" y2="164"/><line class="cls-5" x1="595.882" y1="96.118" x2="528" y2="164"/><line class="cls-5" x1="552.847" y1="71.271" x2="528" y2="164"/></g><line class="cls-6" x1="611.138" y1="116" x2="528" y2="164"/><line class="cls-6" x1="576" y1="80.862" x2="528" y2="164"/><line class="cls-6" x1="528" y1="68" x2="528" y2="164"/><line class="cls-6" x1="624" y1="164" x2="528" y2="164"/><line class="cls-6" x1="376" y1="352" x2="256" y2="472"/><g class="cls-4"><line class="cls-5" x1="256" y1="336" x2="256" y2="472"/><line class="cls-5" x1="387.366" y1="436.801" x2="256" y2="472"/><line class="cls-5" x1="392" y1="472" x2="256" y2="472"/><line class="cls-5" x1="373.779" y1="404" x2="256" y2="472"/><line class="cls-5" x1="324" y1="354.221" x2="256" y2="472"/><line class="cls-5" x1="291.199" y1="340.634" x2="256" y2="472"/></g><line class="cls-6" x1="564" y1="354.221" x2="496" y2="472"/><g class="cls-4"><line class="cls-5" x1="496" y1="336" x2="496" y2="472"/><line class="cls-5" x1="627.366" y1="436.801" x2="496" y2="472"/><line class="cls-5" x1="632" y1="472" x2="496" y2="472"/><line class="cls-5" x1="613.779" y1="404" x2="496" y2="472"/><line class="cls-5" x1="592.167" y1="375.833" x2="496" y2="472"/><line class="cls-5" x1="531.199" y1="340.634" x2="496" y2="472"/></g><g class="cls-4"><line class="cls-5" x1="48" y1="336" x2="48" y2="472"/><line class="cls-5" x1="179.366" y1="436.801" x2="48" y2="472"/><line class="cls-5" x1="184" y1="472" x2="48" y2="472"/><line class="cls-5" x1="165.779" y1="404" x2="48" y2="472"/><line class="cls-5" x1="116" y1="354.221" x2="48" y2="472"/><line class="cls-5" x1="83.199" y1="340.634" x2="48" y2="472"/></g><line class="cls-6" x1="168" y1="352" x2="48" y2="472"/><g class="cls-4"><line class="cls-5" x1="304" y1="68" x2="304" y2="260"/><line class="cls-5" x1="396.729" y1="139.153" x2="304" y2="164"/><line class="cls-5" x1="387.138" y1="116" x2="304" y2="164"/><line class="cls-5" x1="352" y1="80.862" x2="304" y2="164"/><line class="cls-5" x1="328.847" y1="71.271" x2="304" y2="164"/><line class="cls-5" x1="328.847" y1="256.729" x2="304" y2="164"/><line class="cls-5" x1="352" y1="247.138" x2="304" y2="164"/><line class="cls-5" x1="371.882" y1="231.882" x2="304" y2="164"/><line class="cls-5" x1="387.138" y1="212" x2="304" y2="164"/><line class="cls-5" x1="396.729" y1="188.847" x2="304" y2="164"/></g><line class="cls-6" x1="400" y1="164" x2="304" y2="164"/><line class="cls-6" x1="371.882" y1="96.118" x2="304" y2="164"/><line class="cls-6" x1="304" y1="68" x2="304" y2="164"/><polygon class="cls-2" points="770 148 770 148 742 100 714 148 686 196 742 196 798 196 770 148"/><polygon class="cls-3" points="770 424 742 376 714 424 714 424 714 424 686 472 742 440 742 440 770 424"/><polygon class="cls-2" points="770 424 742 440 714 456 686 472 742 472 798 472 770 424"/><path d="M794.176,69.536a2.454,2.454,0,0,0,1.7-.518,1.716,1.716,0,0,0,.568-1.33v-.111a1.577,1.577,0,0,0-.551-1.315,2.265,2.265,0,0,0-1.449-.438,2.431,2.431,0,0,0-1.408.376,2.924,2.924,0,0,0-.895,1.016l-.993-.768a4.525,4.525,0,0,1,.5-.661,3.361,3.361,0,0,1,.7-.579,3.734,3.734,0,0,1,.927-.41,4.2,4.2,0,0,1,1.2-.158,4.7,4.7,0,0,1,1.329.183,3.17,3.17,0,0,1,1.08.542,2.578,2.578,0,0,1,.719.884,2.858,2.858,0,0,1,.1,2.165,2.4,2.4,0,0,1-.455.749,2.727,2.727,0,0,1-.681.541,3.315,3.315,0,0,1-.839.335V70.1a3.566,3.566,0,0,1,.872.314,2.776,2.776,0,0,1,.752.562,2.649,2.649,0,0,1,.527.835,2.924,2.924,0,0,1,.2,1.117,3.2,3.2,0,0,1-.272,1.325,2.927,2.927,0,0,1-.769,1.028,3.6,3.6,0,0,1-1.2.667,4.791,4.791,0,0,1-1.553.241,4.732,4.732,0,0,1-1.279-.158,3.826,3.826,0,0,1-.992-.426,4.106,4.106,0,0,1-.76-.6,5.381,5.381,0,0,1-.584-.7l1.008-.768a4.069,4.069,0,0,0,.456.608,2.622,2.622,0,0,0,.552.464,2.494,2.494,0,0,0,.687.3,3.42,3.42,0,0,0,.9.1,2.62,2.62,0,0,0,1.792-.54,1.949,1.949,0,0,0,.609-1.539V72.8a1.949,1.949,0,0,0-.609-1.539,2.62,2.62,0,0,0-1.792-.54h-1.312V69.536Z"/><path d="M804.4,76.192a3.158,3.158,0,0,1-2.919-1.52,8.233,8.233,0,0,1-.92-4.256,8.233,8.233,0,0,1,.92-4.256,3.565,3.565,0,0,1,5.84,0,8.243,8.243,0,0,1,.92,4.256,8.243,8.243,0,0,1-.92,4.256A3.161,3.161,0,0,1,804.4,76.192Zm0-1.184a2.191,2.191,0,0,0,1.122-.271,2.081,2.081,0,0,0,.751-.765,3.818,3.818,0,0,0,.424-1.164,7.525,7.525,0,0,0,.136-1.483V69.507a7.525,7.525,0,0,0-.136-1.483,3.818,3.818,0,0,0-.424-1.164,2.089,2.089,0,0,0-.751-.765,2.452,2.452,0,0,0-2.241,0,2.084,2.084,0,0,0-.752.765,3.766,3.766,0,0,0-.423,1.164,7.373,7.373,0,0,0-.137,1.483v1.818a7.373,7.373,0,0,0,.137,1.483,3.766,3.766,0,0,0,.423,1.164,2.076,2.076,0,0,0,.752.765A2.177,2.177,0,0,0,804.4,75.008Z"/><path d="M812.383,70.5a2.279,2.279,0,0,1-1.824-.76,3.754,3.754,0,0,1,0-4.24,2.569,2.569,0,0,1,3.648,0,3.754,3.754,0,0,1,0,4.24A2.279,2.279,0,0,1,812.383,70.5Zm0-.832a1.262,1.262,0,0,0,1.049-.432,1.75,1.75,0,0,0,.343-1.12V67.12a1.752,1.752,0,0,0-.343-1.12,1.487,1.487,0,0,0-2.1,0,1.735,1.735,0,0,0-.345,1.12v.992a1.734,1.734,0,0,0,.345,1.12A1.255,1.255,0,0,0,812.383,69.664Z"/><path d="M854.527,160.928a7.351,7.351,0,0,1-.367,2.344,8.873,8.873,0,0,1-.953,2,9.428,9.428,0,0,1-1.287,1.6A8.6,8.6,0,0,1,850.543,168h-1.728q.9-.654,1.6-1.277a9.641,9.641,0,0,0,1.231-1.3,7.722,7.722,0,0,0,.9-1.452,8.5,8.5,0,0,0,.593-1.747l-.08-.032a3.662,3.662,0,0,1-1.033,1.145,2.765,2.765,0,0,1-1.656.456,3.572,3.572,0,0,1-1.328-.241,2.882,2.882,0,0,1-1.039-.689,3.221,3.221,0,0,1-.681-1.083,3.915,3.915,0,0,1-.248-1.435,4.116,4.116,0,0,1,.265-1.5,3.34,3.34,0,0,1,.752-1.171,3.44,3.44,0,0,1,1.168-.761,4.065,4.065,0,0,1,1.527-.273,3.963,3.963,0,0,1,1.561.3,3.252,3.252,0,0,1,1.183.848,3.708,3.708,0,0,1,.744,1.352A5.884,5.884,0,0,1,854.527,160.928Zm-3.728,1.728a2.131,2.131,0,0,0,2.337-2.352v-.128a2.342,2.342,0,1,0-4.673,0v.128a2.132,2.132,0,0,0,2.336,2.352Z"/><path d="M860.4,168.192a3.158,3.158,0,0,1-2.919-1.52,10.3,10.3,0,0,1,0-8.512,3.565,3.565,0,0,1,5.84,0,10.3,10.3,0,0,1,0,8.512A3.161,3.161,0,0,1,860.4,168.192Zm0-1.184a2.191,2.191,0,0,0,1.122-.271,2.081,2.081,0,0,0,.751-.765,3.818,3.818,0,0,0,.424-1.164,7.525,7.525,0,0,0,.136-1.483v-1.818a7.525,7.525,0,0,0-.136-1.483,3.818,3.818,0,0,0-.424-1.164,2.089,2.089,0,0,0-.751-.765,2.452,2.452,0,0,0-2.241,0,2.084,2.084,0,0,0-.752.765,3.766,3.766,0,0,0-.423,1.164,7.373,7.373,0,0,0-.137,1.483v1.818a7.373,7.373,0,0,0,.137,1.483,3.766,3.766,0,0,0,.423,1.164,2.076,2.076,0,0,0,.752.765A2.177,2.177,0,0,0,860.4,167.008Z"/><path d="M868.383,162.5a2.279,2.279,0,0,1-1.824-.76,3.754,3.754,0,0,1,0-4.24,2.569,2.569,0,0,1,3.648,0,3.754,3.754,0,0,1,0,4.24A2.279,2.279,0,0,1,868.383,162.5Zm0-.832a1.262,1.262,0,0,0,1.049-.432,1.75,1.75,0,0,0,.343-1.12v-.992a1.752,1.752,0,0,0-.343-1.12,1.487,1.487,0,0,0-2.1,0,1.735,1.735,0,0,0-.345,1.12v.992a1.734,1.734,0,0,0,.345,1.12A1.255,1.255,0,0,0,868.383,161.664Z"/><path d="M742.575,60.192a3.161,3.161,0,0,1-2.92-1.52,8.243,8.243,0,0,1-.92-4.256,8.243,8.243,0,0,1,.92-4.256,3.566,3.566,0,0,1,5.841,0,8.254,8.254,0,0,1,.92,4.256,8.254,8.254,0,0,1-.92,4.256A3.162,3.162,0,0,1,742.575,60.192Zm0-1.184a2.179,2.179,0,0,0,1.12-.271,2.061,2.061,0,0,0,.752-.765,3.792,3.792,0,0,0,.424-1.164,7.446,7.446,0,0,0,.137-1.483V53.507a7.446,7.446,0,0,0-.137-1.483,3.792,3.792,0,0,0-.424-1.164,2.069,2.069,0,0,0-.752-.765,2.45,2.45,0,0,0-2.24,0,2.091,2.091,0,0,0-.752.765,3.845,3.845,0,0,0-.424,1.164,7.453,7.453,0,0,0-.135,1.483v1.818a7.453,7.453,0,0,0,.135,1.483,3.845,3.845,0,0,0,.424,1.164,2.084,2.084,0,0,0,.752.765A2.184,2.184,0,0,0,742.575,59.008Z"/><path d="M750.56,54.5a2.283,2.283,0,0,1-1.825-.76,3.758,3.758,0,0,1,0-4.24,2.569,2.569,0,0,1,3.648,0,3.754,3.754,0,0,1,0,4.24A2.28,2.28,0,0,1,750.56,54.5Zm0-.832a1.256,1.256,0,0,0,1.047-.432,1.739,1.739,0,0,0,.344-1.12V51.12a1.741,1.741,0,0,0-.344-1.12,1.486,1.486,0,0,0-2.1,0,1.741,1.741,0,0,0-.344,1.12v.992a1.739,1.739,0,0,0,.344,1.12A1.256,1.256,0,0,0,750.56,53.664Z"/><path d="M834.816,116.192a3.958,3.958,0,0,1-1.56-.3,3.255,3.255,0,0,1-1.184-.848,3.708,3.708,0,0,1-.744-1.352,5.854,5.854,0,0,1-.256-1.792,7.327,7.327,0,0,1,.367-2.344,8.9,8.9,0,0,1,.954-2,9.418,9.418,0,0,1,1.287-1.6,8.509,8.509,0,0,1,1.377-1.128h1.727q-.9.654-1.6,1.277a9.774,9.774,0,0,0-1.232,1.3,7.75,7.75,0,0,0-.895,1.452,8.442,8.442,0,0,0-.593,1.747l.08.032a3.655,3.655,0,0,1,1.032-1.144,2.759,2.759,0,0,1,1.656-.457,3.6,3.6,0,0,1,1.329.24,2.928,2.928,0,0,1,1.039.69,3.214,3.214,0,0,1,.679,1.091,3.911,3.911,0,0,1,.248,1.427,4.136,4.136,0,0,1-.263,1.5,3.34,3.34,0,0,1-.752,1.171,3.4,3.4,0,0,1-1.176.761A4.087,4.087,0,0,1,834.816,116.192Zm-.016-1.184a2.132,2.132,0,0,0,2.337-2.352v-.128a2.342,2.342,0,1,0-4.673,0v.128a2.13,2.13,0,0,0,2.336,2.352Z"/><path d="M844.4,116.192a3.161,3.161,0,0,1-2.92-1.52,10.315,10.315,0,0,1,0-8.512,3.566,3.566,0,0,1,5.841,0,10.3,10.3,0,0,1,0,8.512A3.162,3.162,0,0,1,844.4,116.192Zm0-1.184a2.185,2.185,0,0,0,1.121-.271,2.066,2.066,0,0,0,.751-.765,3.792,3.792,0,0,0,.424-1.164,7.446,7.446,0,0,0,.137-1.483v-1.818a7.446,7.446,0,0,0-.137-1.483,3.792,3.792,0,0,0-.424-1.164,2.074,2.074,0,0,0-.751-.765,2.452,2.452,0,0,0-2.241,0,2.1,2.1,0,0,0-.752.765,3.818,3.818,0,0,0-.423,1.164,7.45,7.45,0,0,0-.136,1.483v1.818a7.45,7.45,0,0,0,.136,1.483,3.818,3.818,0,0,0,.423,1.164,2.091,2.091,0,0,0,.752.765A2.184,2.184,0,0,0,844.4,115.008Z"/><path d="M852.384,110.5a2.279,2.279,0,0,1-1.824-.76,3.754,3.754,0,0,1,0-4.24,2.568,2.568,0,0,1,3.647,0,3.754,3.754,0,0,1,0,4.24A2.278,2.278,0,0,1,852.384,110.5Zm0-.832a1.258,1.258,0,0,0,1.048-.432,1.744,1.744,0,0,0,.343-1.12v-.992a1.746,1.746,0,0,0-.343-1.12,1.487,1.487,0,0,0-2.1,0,1.741,1.741,0,0,0-.344,1.12v.992a1.739,1.739,0,0,0,.344,1.12A1.256,1.256,0,0,0,852.384,109.664Z"/><path d="M820.816,408.192a3.958,3.958,0,0,1-1.56-.3,3.255,3.255,0,0,1-1.184-.848,3.708,3.708,0,0,1-.744-1.352,5.854,5.854,0,0,1-.256-1.792,7.327,7.327,0,0,1,.367-2.344,8.9,8.9,0,0,1,.954-2,9.418,9.418,0,0,1,1.287-1.6,8.509,8.509,0,0,1,1.377-1.128h1.727q-.9.654-1.6,1.277a9.774,9.774,0,0,0-1.232,1.3,7.75,7.75,0,0,0-.895,1.452,8.442,8.442,0,0,0-.593,1.747l.08.032a3.655,3.655,0,0,1,1.032-1.144,2.759,2.759,0,0,1,1.656-.457,3.6,3.6,0,0,1,1.329.24,2.928,2.928,0,0,1,1.039.69,3.214,3.214,0,0,1,.679,1.091,3.911,3.911,0,0,1,.248,1.427,4.136,4.136,0,0,1-.263,1.5,3.34,3.34,0,0,1-.752,1.171,3.4,3.4,0,0,1-1.176.761A4.087,4.087,0,0,1,820.816,408.192Zm-.016-1.184a2.132,2.132,0,0,0,2.337-2.352v-.128a2.342,2.342,0,1,0-4.673,0v.128a2.13,2.13,0,0,0,2.336,2.352Z"/><path d="M830.4,408.192a3.161,3.161,0,0,1-2.92-1.52,10.315,10.315,0,0,1,0-8.512,3.566,3.566,0,0,1,5.841,0,10.3,10.3,0,0,1,0,8.512A3.162,3.162,0,0,1,830.4,408.192Zm0-1.184a2.185,2.185,0,0,0,1.121-.271,2.066,2.066,0,0,0,.751-.765,3.792,3.792,0,0,0,.424-1.164,7.446,7.446,0,0,0,.137-1.483v-1.818a7.446,7.446,0,0,0-.137-1.483,3.792,3.792,0,0,0-.424-1.164,2.074,2.074,0,0,0-.751-.765,2.452,2.452,0,0,0-2.241,0,2.1,2.1,0,0,0-.752.765,3.818,3.818,0,0,0-.423,1.164,7.45,7.45,0,0,0-.136,1.483v1.818a7.45,7.45,0,0,0,.136,1.483,3.818,3.818,0,0,0,.423,1.164,2.091,2.091,0,0,0,.752.765A2.184,2.184,0,0,0,830.4,407.008Z"/><path d="M838.384,402.5a2.279,2.279,0,0,1-1.824-.76,3.754,3.754,0,0,1,0-4.24,2.568,2.568,0,0,1,3.647,0,3.754,3.754,0,0,1,0,4.24A2.278,2.278,0,0,1,838.384,402.5Zm0-.832a1.258,1.258,0,0,0,1.048-.432,1.744,1.744,0,0,0,.343-1.12v-.992a1.746,1.746,0,0,0-.343-1.12,1.487,1.487,0,0,0-2.1,0,1.741,1.741,0,0,0-.344,1.12v.992a1.739,1.739,0,0,0,.344,1.12A1.256,1.256,0,0,0,838.384,401.664Z"/><path d="M831.408,220v-1.184h3.119v-8.992h-.111l-2.816,2.624-.784-.848,2.959-2.768h2.1v9.984h2.88V220Z"/><path d="M848.127,220H840.8v-1.376l3.647-3.36a8.031,8.031,0,0,0,1.313-1.533,2.967,2.967,0,0,0,.527-1.628v-.193a2.186,2.186,0,0,0-.512-1.508,1.965,1.965,0,0,0-1.551-.578,2.548,2.548,0,0,0-.9.144,2.014,2.014,0,0,0-.664.4,2.246,2.246,0,0,0-.465.6,3.652,3.652,0,0,0-.295.744l-1.2-.464a4.817,4.817,0,0,1,.441-.968,3.245,3.245,0,0,1,1.727-1.419,4.593,4.593,0,0,1,2.873.019,2.975,2.975,0,0,1,1.071.671,2.941,2.941,0,0,1,.664,1.024,3.532,3.532,0,0,1,.232,1.311,3.863,3.863,0,0,1-.184,1.215,4.766,4.766,0,0,1-.5,1.063,6.369,6.369,0,0,1-.775.983q-.458.48-.984.959l-3.008,2.71h5.871Z"/><path d="M854,220.192a3.158,3.158,0,0,1-2.92-1.52,10.3,10.3,0,0,1,0-8.512,3.565,3.565,0,0,1,5.84,0,10.3,10.3,0,0,1,0,8.512A3.16,3.16,0,0,1,854,220.192Zm0-1.184a2.172,2.172,0,0,0,1.119-.271,2.054,2.054,0,0,0,.752-.765,3.819,3.819,0,0,0,.425-1.164,7.45,7.45,0,0,0,.136-1.483v-1.818a7.45,7.45,0,0,0-.136-1.483,3.819,3.819,0,0,0-.425-1.164,2.061,2.061,0,0,0-.752-.765,2.448,2.448,0,0,0-2.239,0,2.076,2.076,0,0,0-.752.765,3.845,3.845,0,0,0-.425,1.164,7.528,7.528,0,0,0-.135,1.483v1.818a7.528,7.528,0,0,0,.135,1.483,3.845,3.845,0,0,0,.425,1.164,2.069,2.069,0,0,0,.752.765A2.179,2.179,0,0,0,854,219.008Z"/><path d="M861.984,214.5a2.281,2.281,0,0,1-1.824-.76,3.754,3.754,0,0,1,0-4.24,2.569,2.569,0,0,1,3.648,0,3.754,3.754,0,0,1,0,4.24A2.282,2.282,0,0,1,861.984,214.5Zm0-.832a1.255,1.255,0,0,0,1.047-.432,1.734,1.734,0,0,0,.345-1.12v-.992a1.735,1.735,0,0,0-.345-1.12,1.486,1.486,0,0,0-2.095,0,1.747,1.747,0,0,0-.344,1.12v.992a1.745,1.745,0,0,0,.344,1.12A1.257,1.257,0,0,0,861.984,213.664Z"/><line class="cls-6" x1="803.779" y1="404" x2="686" y2="472"/><g class="cls-4"><line class="cls-5" x1="686" y1="336" x2="686" y2="472"/><line class="cls-5" x1="817.366" y1="436.801" x2="686" y2="472"/><line class="cls-5" x1="822" y1="472" x2="686" y2="472"/><line class="cls-5" x1="782.167" y1="375.833" x2="686" y2="472"/><line class="cls-5" x1="754" y1="354.221" x2="686" y2="472"/><line class="cls-5" x1="721.199" y1="340.634" x2="686" y2="472"/></g><line class="cls-6" x1="742" y1="68" x2="742" y2="164"/><line class="cls-6" x1="825.138" y1="116" x2="742" y2="164"/><line class="cls-6" x1="790" y1="80.862" x2="742" y2="164"/><line class="cls-6" x1="838" y1="164" x2="742" y2="164"/><g class="cls-4"><line class="cls-5" x1="834.729" y1="139.153" x2="742" y2="164"/><line class="cls-5" x1="809.882" y1="96.118" x2="742" y2="164"/><line class="cls-5" x1="766.847" y1="71.271" x2="742" y2="164"/><line class="cls-5" x1="742" y1="164" x2="742" y2="260"/><line class="cls-5" x1="766.847" y1="256.729" x2="742" y2="164"/><line class="cls-5" x1="790" y1="247.138" x2="742" y2="164"/><line class="cls-5" x1="809.882" y1="231.882" x2="742" y2="164"/><line class="cls-5" x1="834.729" y1="188.847" x2="742" y2="164"/></g><line class="cls-6" x1="825.138" y1="212" x2="742" y2="164"/><line class="cls-7" x1="188.729" y1="139.153" x2="96" y2="164"/><line class="cls-7" x1="179.138" y1="116" x2="96" y2="164"/><line class="cls-7" x1="144" y1="80.862" x2="96" y2="164"/><line class="cls-7" x1="120.847" y1="71.271" x2="96" y2="164"/><line class="cls-6" x1="96" y1="68" x2="96" y2="164"/><line class="cls-7" x1="192" y1="164" x2="96" y2="164"/><line class="cls-6" x1="163.882" y1="96.118" x2="96" y2="164"/><line class="cls-7" x1="120.847" y1="256.729" x2="96" y2="164"/><line class="cls-7" x1="144" y1="247.138" x2="96" y2="164"/><line class="cls-7" x1="179.138" y1="212" x2="96" y2="164"/><line class="cls-7" x1="188.729" y1="188.847" x2="96" y2="164"/><line class="cls-6" x1="192" y1="164" x2="96" y2="164"/><line class="cls-7" x1="96" y1="260" x2="96" y2="164"/><line class="cls-7" x1="163.882" y1="231.882" x2="96" y2="164"/></g></svg>