<?xml version="1.0" encoding="utf-8"?>
<!-- Generator: Adobe Illustrator 20.0.0, SVG Export Plug-In . SVG Version: 6.00 Build 0)  -->
<svg version="1.1" id="Layer_1" xmlns="http://www.w3.org/2000/svg" xmlns:xlink="http://www.w3.org/1999/xlink" x="0px" y="0px"
	 width="1377.5px" height="1377.5px" viewBox="0 0 1377.5 1377.5" style="enable-background:new 0 0 1377.5 1377.5;"
	 xml:space="preserve">
<style type="text/css">
	.st0{fill:#FFFFFF;}
	.st1{fill:none;stroke:#DCDCDC;stroke-linecap:square;}
	.st2{fill:none;stroke:#95C0FF;stroke-linecap:square;}
	.st3{fill:#6F6F6F;}
</style>
<g>
	<path id="path-1" class="st0" d="M931.3,549.8L827.8,446.2c-3.9-3.9-9.2-6-14.7-6H481.6c-22.9,0-41.4,18.5-41.4,41.4v414.3
		c0,22.9,18.5,41.4,41.4,41.4h414.3c22.9,0,41.4-18.5,41.4-41.4V564.5C937.4,559,935.2,553.7,931.3,549.8z M605.9,481.6h165.7v82.9
		H605.9V481.6z M771.6,895.9H605.9V730.2h165.7V895.9z M813.1,895.9V730.2c0-22.9-18.5-41.4-41.4-41.4H605.9
		c-22.9,0-41.4,18.5-41.4,41.4v165.7h-82.9V481.6h82.9v82.9c0,22.9,18.5,41.4,41.4,41.4h165.7c22.9,0,41.4-18.5,41.4-41.4v-74.4
		l82.9,82.9v322.9H813.1z"/>
</g>
<title>Strokes visual weight</title>
<desc>Created with Sketch.</desc>
<g id="Page-1">
	<g id="Icons-Copy" transform="translate(-352.000000, -9770.000000)">
		<g id="Strokes-visual-weight" transform="translate(352.000000, 9770.000000)">
			<rect id="Rectangle-3" class="st0" width="1377.5" height="1377.5"/>
			<g id="Grid-01" transform="translate(239.000000, 239.000000)">
				<g id="Vertical-lines" transform="translate(0.500000, 1.500000)">
					<path id="Line" class="st1" d="M117.1,116.1v664.3"/>
					<path id="Line_1_" class="st1" d="M179.4,116.1v664.3"/>
					<path id="Line_2_" class="st1" d="M137.9,116.1v664.3"/>
					<path id="Line_3_" class="st1" d="M200.2,116.1v664.3"/>
					<path id="Line_4_" class="st1" d="M158.6,116.1v664.3"/>
					<path id="Line_5_" class="st1" d="M220.9,116.1v664.3"/>
					<path id="Line_6_" class="st1" d="M241.7,116.1v664.3"/>
					<path id="Line_7_" class="st1" d="M262.4,116.1v664.3"/>
					<path id="Line_8_" class="st1" d="M283.2,116.1v664.3"/>
					<path id="Line_9_" class="st1" d="M304,116.1v664.3"/>
					<path id="Line_10_" class="st1" d="M324.7,116.1v664.3"/>
					<path id="Line_11_" class="st1" d="M345.5,116.1v664.3"/>
					<path id="Line_12_" class="st1" d="M366.2,116.1v664.3"/>
					<path id="Line_13_" class="st1" d="M387,116.1v664.3"/>
					<path id="Line_14_" class="st1" d="M407.8,116.1v664.3"/>
					<path id="Line_15_" class="st1" d="M428.5,116.1v664.3"/>
					<path id="Line_16_" class="st1" d="M449.3,116.1v664.3"/>
					<path id="Line_17_" class="st1" d="M470,116.1v664.3"/>
					<path id="Line_18_" class="st1" d="M490.8,116.1v664.3"/>
					<path id="Line_19_" class="st1" d="M511.6,116.1v664.3"/>
					<path id="Line_20_" class="st1" d="M532.3,116.1v664.3"/>
					<path id="Line_21_" class="st1" d="M553.1,116.1v664.3"/>
					<path id="Line_22_" class="st1" d="M573.8,116.1v664.3"/>
					<path id="Line_23_" class="st1" d="M594.6,116.1v664.3"/>
					<path id="Line_24_" class="st1" d="M615.3,116.1v664.3"/>
					<path id="Line_25_" class="st1" d="M636.1,116.1v664.3"/>
					<path id="Line_26_" class="st1" d="M656.9,116.1v664.3"/>
					<path id="Line_27_" class="st1" d="M677.6,116.1v664.3"/>
					<path id="Line_28_" class="st1" d="M698.4,116.1v664.3"/>
					<path id="Line_29_" class="st1" d="M719.1,116.1v664.3"/>
					<path id="Line_30_" class="st1" d="M739.9,116.1v664.3"/>
					<path id="Line_31_" class="st1" d="M760.7,116.1v664.3"/>
					<path id="Line_32_" class="st1" d="M781.4,116.1v664.3"/>
				</g>
				
					<g id="Horizontal" transform="translate(225.500000, 225.500000) rotate(90.000000) translate(-225.500000, -225.500000) translate(0.500000, 1.500000)">
					<path id="Line_33_" class="st1" d="M117.1-332.4v664.3"/>
					<path id="Line_34_" class="st1" d="M179.4-332.4v664.3"/>
					<path id="Line_35_" class="st1" d="M137.9-332.4v664.3"/>
					<path id="Line_36_" class="st1" d="M200.2-332.4v664.3"/>
					<path id="Line_37_" class="st1" d="M158.6-332.4v664.3"/>
					<path id="Line_38_" class="st1" d="M220.9-332.4v664.3"/>
					<path id="Line_39_" class="st1" d="M241.7-332.4v664.3"/>
					<path id="Line_40_" class="st1" d="M262.4-332.4v664.3"/>
					<path id="Line_41_" class="st1" d="M283.2-332.4v664.3"/>
					<path id="Line_42_" class="st1" d="M304-332.4v664.3"/>
					<path id="Line_43_" class="st1" d="M324.7-332.4v664.3"/>
					<path id="Line_44_" class="st1" d="M345.5-332.4v664.3"/>
					<path id="Line_45_" class="st1" d="M366.2-332.4v664.3"/>
					<path id="Line_46_" class="st1" d="M387-332.4v664.3"/>
					<path id="Line_47_" class="st1" d="M407.8-332.4v664.3"/>
					<path id="Line_48_" class="st1" d="M428.5-332.4v664.3"/>
					<path id="Line_49_" class="st1" d="M449.3-332.4v664.3"/>
					<path id="Line_50_" class="st1" d="M470-332.4v664.3"/>
					<path id="Line_51_" class="st1" d="M490.8-332.4v664.3"/>
					<path id="Line_52_" class="st1" d="M511.6-332.4v664.3"/>
					<path id="Line_53_" class="st1" d="M532.3-332.4v664.3"/>
					<path id="Line_54_" class="st1" d="M553.1-332.4v664.3"/>
					<path id="Line_55_" class="st1" d="M573.8-332.4v664.3"/>
					<path id="Line_56_" class="st1" d="M594.6-332.4v664.3"/>
					<path id="Line_57_" class="st1" d="M615.3-332.4v664.3"/>
					<path id="Line_58_" class="st1" d="M636.1-332.4v664.3"/>
					<path id="Line_59_" class="st1" d="M656.9-332.4v664.3"/>
					<path id="Line_60_" class="st1" d="M677.6-332.4v664.3"/>
					<path id="Line_61_" class="st1" d="M698.4-332.4v664.3"/>
					<path id="Line_62_" class="st1" d="M719.1-332.4v664.3"/>
					<path id="Line_63_" class="st1" d="M739.9-332.4v664.3"/>
					<path id="Line_64_" class="st1" d="M760.7-332.4v664.3"/>
					<path id="Line_65_" class="st1" d="M781.4-332.4v664.3"/>
				</g>
			</g>
			<g id="Group-4" transform="translate(296.000000, 296.000000)">
				<g id="icon_x2F_navigation_x2F_down-to-bottom_x2F_24-copy-14">
					<g id="save" transform="translate(0.875000, 0.875000)">
						<g id="Mask">
							<path id="path-1_1_" d="M634.4,252.9L530.9,149.3c-3.9-3.9-9.2-6-14.7-6H184.8c-22.9,0-41.4,18.5-41.4,41.4V599
								c0,22.9,18.5,41.4,41.4,41.4H599c22.9,0,41.4-18.5,41.4-41.4V267.6C640.5,262.1,638.3,256.8,634.4,252.9z M309,184.8h165.7
								v82.9H309V184.8z M474.8,599H309V433.3h165.7V599z M516.2,599V433.3c0-22.9-18.5-41.4-41.4-41.4H309
								c-22.9,0-41.4,18.5-41.4,41.4V599h-82.9V184.8h82.9v82.9c0,22.9,18.5,41.4,41.4,41.4h165.7c22.9,0,41.4-18.5,41.4-41.4v-74.4
								l82.9,82.9V599H516.2z"/>
						</g>
					</g>
				</g>
			</g>
			<path id="Line-2" class="st2" d="M439.7,309.2v759.2"/>
			<path id="Line-2_1_" class="st2" d="M481.2,309.2v759.2"/>
			<path id="Line-2_2_" class="st2" d="M564.2,309.2v759.2"/>
			<path id="Line-2_3_" class="st2" d="M605.7,309.2v759.2"/>
			<path id="Line-2_4_" class="st2" d="M771.8,309.2v759.2"/>
			<path id="Line-2_5_" class="st2" d="M813.3,309.2v759.2"/>
			<path id="Line-2_6_" class="st2" d="M896.4,309.2v759.2"/>
			<path id="Line-2_7_" class="st2" d="M937.9,309.2v759.2"/>
			
				<g id="Group-10" transform="translate(464.500000, 618.500000) rotate(-90.000000) translate(-464.500000, -618.500000) translate(449.000000, 362.000000)">
				<path id="Line-2_8_" class="st2" d="M-303.9,101.2v759.2"/>
				<path id="Line-2_9_" class="st2" d="M-262.4,101.2v759.2"/>
			</g>
			
				<g id="Group-10_1_" transform="translate(464.500000, 478.500000) rotate(-90.000000) translate(-464.500000, -478.500000) translate(449.000000, 222.000000)">
				<path id="Line-2_10_" class="st2" d="M-236.3,101.2v759.2"/>
				<path id="Line-2_11_" class="st2" d="M-194.8,101.2v759.2"/>
			</g>
			
				<g id="Group-10_2_" transform="translate(464.500000, 394.500000) rotate(-90.000000) translate(-464.500000, -394.500000) translate(449.000000, 138.000000)">
				<path id="Line-2_12_" class="st2" d="M-195.7,101.2v759.2"/>
				<path id="Line-2_13_" class="st2" d="M-154.2,101.2v759.2"/>
			</g>
			
				<g id="Group-10_3_" transform="translate(464.500000, 310.500000) rotate(-90.000000) translate(-464.500000, -310.500000) translate(449.000000, 54.000000)">
				<path id="Line-2_14_" class="st2" d="M-155.2,101.2v759.2"/>
				<path id="Line-2_15_" class="st2" d="M-113.7,101.2v759.2"/>
			</g>
			<path id="_x32_" class="st3" d="M465.3,324.7v1.5h-9.5v-1.8l4.7-4.4c1.3-1.2,2.4-2.7,2.4-4.1v-0.2c0-1.6-0.9-2.7-2.7-2.7
				c-1.8,0-2.6,1.1-3,2.4l-1.6-0.6c0.6-1.7,1.8-3.4,4.7-3.4c2.8,0,4.4,1.7,4.4,4.2c0,2.2-1.3,3.8-3.2,5.5l-3.9,3.5H465.3z"/>
			<path id="_x32_-copy-2" class="st3" d="M797.4,324.7v1.5h-9.5v-1.8l4.7-4.4c1.3-1.2,2.4-2.7,2.4-4.1v-0.2c0-1.6-0.9-2.7-2.7-2.7
				c-1.8,0-2.6,1.1-3,2.4l-1.6-0.6c0.6-1.7,1.8-3.4,4.7-3.4c2.8,0,4.4,1.7,4.4,4.2c0,2.2-1.3,3.8-3.2,5.5l-3.9,3.5H797.4z"/>
			<path id="_x32_-copy" class="st3" d="M589.8,324.7v1.5h-9.5v-1.8l4.7-4.4c1.3-1.2,2.4-2.7,2.4-4.1v-0.2c0-1.6-0.9-2.7-2.7-2.7
				c-1.8,0-2.6,1.1-3,2.4l-1.6-0.6c0.6-1.7,1.8-3.4,4.7-3.4c2.8,0,4.4,1.7,4.4,4.2c0,2.2-1.3,3.8-3.2,5.5l-3.9,3.5H589.8z"/>
			<path id="_x32_-copy-3" class="st3" d="M922,324.7v1.5h-9.5v-1.8l4.7-4.4c1.3-1.2,2.4-2.7,2.4-4.1v-0.2c0-1.6-0.9-2.7-2.7-2.7
				c-1.8,0-2.6,1.1-3,2.4l-1.6-0.6c0.6-1.7,1.8-3.4,4.7-3.4c2.8,0,4.4,1.7,4.4,4.2c0,2.2-1.3,3.8-3.2,5.5l-3.9,3.5H922z"/>
			<path id="_x32_-copy-4" class="st3" d="M1067.3,465.6v1.5h-9.5v-1.8l4.7-4.4c1.3-1.2,2.4-2.7,2.4-4.1v-0.2c0-1.6-0.9-2.7-2.7-2.7
				s-2.6,1.1-3,2.4l-1.6-0.6c0.6-1.7,1.8-3.4,4.7-3.4c2.8,0,4.4,1.7,4.4,4.2c0,2.2-1.3,3.8-3.2,5.5l-3.9,3.5H1067.3z"/>
			<path id="_x32_-copy-6" class="st3" d="M1067.3,714.7v1.5h-9.5v-1.8l4.7-4.4c1.3-1.2,2.4-2.7,2.4-4.1v-0.2c0-1.6-0.9-2.7-2.7-2.7
				s-2.6,1.1-3,2.4l-1.6-0.6c0.6-1.7,1.8-3.4,4.7-3.4c2.8,0,4.4,1.7,4.4,4.2c0,2.2-1.3,3.8-3.2,5.5l-3.9,3.5H1067.3z"/>
			<path id="_x32_-copy-5" class="st3" d="M1067.3,590.1v1.5h-9.5v-1.8l4.7-4.4c1.3-1.2,2.4-2.7,2.4-4.1v-0.2c0-1.6-0.9-2.7-2.7-2.7
				s-2.6,1.1-3,2.4l-1.6-0.6c0.6-1.7,1.8-3.4,4.7-3.4c2.8,0,4.4,1.7,4.4,4.2c0,2.2-1.3,3.8-3.2,5.5l-3.9,3.5H1067.3z"/>
			<path id="_x32_-copy-7" class="st3" d="M1067.3,922.3v1.5h-9.5V922l4.7-4.4c1.3-1.2,2.4-2.7,2.4-4.1v-0.2c0-1.6-0.9-2.7-2.7-2.7
				s-2.6,1.1-3,2.4l-1.6-0.6c0.6-1.7,1.8-3.4,4.7-3.4c2.8,0,4.4,1.7,4.4,4.2c0,2.2-1.3,3.8-3.2,5.5l-3.9,3.5H1067.3z"/>
		</g>
	</g>
</g>
</svg>
