<svg xmlns="http://www.w3.org/2000/svg" xmlns:xlink="http://www.w3.org/1999/xlink" viewBox="0 0 288 288"><defs><style>.cls-1,.cls-10,.cls-13,.cls-16,.cls-19,.cls-4,.cls-7{fill:none;}.cls-2{clip-path:url(#clip-path);}.cls-3{fill:#fff;}.cls-4{stroke:#e0e0e0;}.cls-10,.cls-13,.cls-16,.cls-19,.cls-4,.cls-7{stroke-miterlimit:10;}.cls-5{fill:#d0e2ff;}.cls-6{clip-path:url(#clip-path-2);}.cls-7{stroke:#a6c8ff;}.cls-8{fill:#a6c8ff;}.cls-9{clip-path:url(#clip-path-3);}.cls-10{stroke:#78a9ff;}.cls-11{fill:#78a9ff;}.cls-12{clip-path:url(#clip-path-4);}.cls-13{stroke:#4589ff;}.cls-14{fill:#4589ff;}.cls-15{clip-path:url(#clip-path-5);}.cls-16{stroke:#0f62fe;}.cls-17{fill:#0f62fe;}.cls-18{clip-path:url(#clip-path-6);}.cls-19{stroke:#0043ce;}</style><clipPath id="clip-path"><rect class="cls-1" width="288" height="288"/></clipPath><clipPath id="clip-path-2"><rect class="cls-1" x="72" y="72" width="287.5" height="287.587" rx="32"/></clipPath><clipPath id="clip-path-3"><rect class="cls-1" x="88" y="88" width="272.307" height="295.073" rx="64"/></clipPath><clipPath id="clip-path-4"><rect class="cls-1" x="104" y="104" width="232" height="279.88" rx="32"/></clipPath><clipPath id="clip-path-5"><rect class="cls-1" x="120" y="120" width="232" height="232" rx="16"/></clipPath><clipPath id="clip-path-6"><rect class="cls-1" x="136" y="136" width="232" height="232" rx="32"/></clipPath></defs><title>Artboard 16 copy 2</title><g id="Graphics"><g class="cls-2"><rect class="cls-3" width="288" height="288"/><rect class="cls-4" x="40" y="39.864" width="208" height="208"/><line class="cls-4" x1="56" y1="39.864" x2="56" y2="247.864"/><line class="cls-4" x1="72" y1="39.864" x2="72" y2="247.864"/><line class="cls-4" x1="88" y1="39.864" x2="88" y2="247.864"/><line class="cls-4" x1="104" y1="39.864" x2="104" y2="247.864"/><line class="cls-4" x1="120" y1="39.864" x2="120" y2="247.864"/><line class="cls-4" x1="136" y1="39.864" x2="136" y2="247.864"/><line class="cls-4" x1="152" y1="39.864" x2="152" y2="247.864"/><line class="cls-4" x1="168" y1="39.864" x2="168" y2="247.864"/><line class="cls-4" x1="184" y1="39.864" x2="184" y2="247.864"/><line class="cls-4" x1="200" y1="39.864" x2="200" y2="247.864"/><line class="cls-4" x1="216" y1="39.864" x2="216" y2="247.864"/><line class="cls-4" x1="232" y1="39.864" x2="232" y2="247.864"/><line class="cls-4" x1="248" y1="55.864" x2="40" y2="55.864"/><line class="cls-4" x1="248" y1="71.864" x2="40" y2="71.864"/><line class="cls-4" x1="248" y1="87.864" x2="40" y2="87.864"/><line class="cls-4" x1="248" y1="103.864" x2="40" y2="103.864"/><line class="cls-4" x1="248" y1="119.864" x2="40" y2="119.864"/><line class="cls-4" x1="248" y1="135.864" x2="40" y2="135.864"/><line class="cls-4" x1="248" y1="151.864" x2="40" y2="151.864"/><line class="cls-4" x1="248" y1="167.864" x2="40" y2="167.864"/><line class="cls-4" x1="248" y1="183.864" x2="40" y2="183.864"/><line class="cls-4" x1="248" y1="199.864" x2="40" y2="199.864"/><line class="cls-4" x1="248" y1="215.864" x2="40" y2="215.864"/><line class="cls-4" x1="248" y1="231.864" x2="40" y2="231.864"/><rect class="cls-5" x="72" y="72" width="287.5" height="287.587" rx="32"/><g class="cls-6"><polyline class="cls-7" points="248 39.864 248 247.864 40 247.864"/><line class="cls-7" x1="88" y1="39.864" x2="88" y2="247.864"/><line class="cls-7" x1="104" y1="39.864" x2="104" y2="247.864"/><line class="cls-7" x1="120" y1="39.864" x2="120" y2="247.864"/><line class="cls-7" x1="136" y1="39.864" x2="136" y2="247.864"/><line class="cls-7" x1="152" y1="39.864" x2="152" y2="247.864"/><line class="cls-7" x1="168" y1="39.864" x2="168" y2="247.864"/><line class="cls-7" x1="184" y1="39.864" x2="184" y2="247.864"/><line class="cls-7" x1="200" y1="39.864" x2="200" y2="247.864"/><line class="cls-7" x1="216" y1="39.864" x2="216" y2="247.864"/><line class="cls-7" x1="232" y1="39.864" x2="232" y2="247.864"/><line class="cls-7" x1="72" y1="39.864" x2="72" y2="247.864"/><line class="cls-7" x1="248" y1="87.864" x2="40" y2="87.864"/><line class="cls-7" x1="248" y1="103.864" x2="40" y2="103.864"/><line class="cls-7" x1="248" y1="119.864" x2="40" y2="119.864"/><line class="cls-7" x1="248" y1="135.864" x2="40" y2="135.864"/><line class="cls-7" x1="248" y1="151.864" x2="40" y2="151.864"/><line class="cls-7" x1="248" y1="167.864" x2="40" y2="167.864"/><line class="cls-7" x1="248" y1="183.864" x2="40" y2="183.864"/><line class="cls-7" x1="248" y1="199.864" x2="40" y2="199.864"/><line class="cls-7" x1="248" y1="215.864" x2="40" y2="215.864"/><line class="cls-7" x1="248" y1="231.864" x2="40" y2="231.864"/><line class="cls-7" x1="248" y1="72" x2="40" y2="72"/></g><rect class="cls-8" x="88" y="88" width="272.307" height="295.073" rx="64"/><g class="cls-9"><polyline class="cls-10" points="248 39.864 248 247.864 40 247.864"/><line class="cls-10" x1="104" y1="39.864" x2="104" y2="247.864"/><line class="cls-10" x1="120" y1="39.864" x2="120" y2="247.864"/><line class="cls-10" x1="136" y1="39.864" x2="136" y2="247.864"/><line class="cls-10" x1="152" y1="39.864" x2="152" y2="247.864"/><line class="cls-10" x1="168" y1="39.864" x2="168" y2="247.864"/><line class="cls-10" x1="184" y1="39.864" x2="184" y2="247.864"/><line class="cls-10" x1="200" y1="39.864" x2="200" y2="247.864"/><line class="cls-10" x1="216" y1="39.864" x2="216" y2="247.864"/><line class="cls-10" x1="232" y1="39.864" x2="232" y2="247.864"/><line class="cls-10" x1="88" y1="39.864" x2="88" y2="247.864"/><line class="cls-10" x1="248" y1="103.864" x2="40" y2="103.864"/><line class="cls-10" x1="248" y1="119.864" x2="40" y2="119.864"/><line class="cls-10" x1="248" y1="135.864" x2="40" y2="135.864"/><line class="cls-10" x1="248" y1="151.864" x2="40" y2="151.864"/><line class="cls-10" x1="248" y1="167.864" x2="40" y2="167.864"/><line class="cls-10" x1="248" y1="183.864" x2="40" y2="183.864"/><line class="cls-10" x1="248" y1="199.864" x2="40" y2="199.864"/><line class="cls-10" x1="248" y1="215.864" x2="40" y2="215.864"/><line class="cls-10" x1="248" y1="231.864" x2="40" y2="231.864"/><line class="cls-10" x1="248" y1="87.864" x2="40" y2="87.864"/></g><rect class="cls-11" x="104" y="104" width="232" height="279.88" rx="32"/><g class="cls-12"><polyline class="cls-13" points="248 39.864 248 247.864 40 247.864"/><line class="cls-13" x1="104" y1="39.864" x2="104" y2="247.864"/><line class="cls-13" x1="120" y1="39.864" x2="120" y2="247.864"/><line class="cls-13" x1="136" y1="39.864" x2="136" y2="247.864"/><line class="cls-13" x1="152" y1="39.864" x2="152" y2="247.864"/><line class="cls-13" x1="168" y1="39.864" x2="168" y2="247.864"/><line class="cls-13" x1="184" y1="39.864" x2="184" y2="247.864"/><line class="cls-13" x1="200" y1="39.864" x2="200" y2="247.864"/><line class="cls-13" x1="216" y1="39.864" x2="216" y2="247.864"/><line class="cls-13" x1="232" y1="39.864" x2="232" y2="247.864"/><line class="cls-13" x1="248" y1="103.864" x2="40" y2="103.864"/><line class="cls-13" x1="248" y1="119.864" x2="40" y2="119.864"/><line class="cls-13" x1="248" y1="135.864" x2="40" y2="135.864"/><line class="cls-13" x1="248" y1="151.864" x2="40" y2="151.864"/><line class="cls-13" x1="248" y1="167.864" x2="40" y2="167.864"/><line class="cls-13" x1="248" y1="183.864" x2="40" y2="183.864"/><line class="cls-13" x1="248" y1="199.864" x2="40" y2="199.864"/><line class="cls-13" x1="248" y1="215.864" x2="40" y2="215.864"/><line class="cls-13" x1="248" y1="231.864" x2="40" y2="231.864"/></g><rect class="cls-14" x="120" y="120" width="232" height="232" rx="16"/><g class="cls-15"><polyline class="cls-16" points="248 39.864 248 247.864 40 247.864"/><line class="cls-16" x1="120" y1="39.864" x2="120" y2="247.864"/><line class="cls-16" x1="136" y1="39.864" x2="136" y2="247.864"/><line class="cls-16" x1="152" y1="39.864" x2="152" y2="247.864"/><line class="cls-16" x1="168" y1="39.864" x2="168" y2="247.864"/><line class="cls-16" x1="184" y1="39.864" x2="184" y2="247.864"/><line class="cls-16" x1="200" y1="39.864" x2="200" y2="247.864"/><line class="cls-16" x1="216" y1="39.864" x2="216" y2="247.864"/><line class="cls-16" x1="232" y1="39.864" x2="232" y2="247.864"/><line class="cls-16" x1="248" y1="119.864" x2="40" y2="119.864"/><line class="cls-16" x1="248" y1="135.864" x2="40" y2="135.864"/><line class="cls-16" x1="248" y1="151.864" x2="40" y2="151.864"/><line class="cls-16" x1="248" y1="167.864" x2="40" y2="167.864"/><line class="cls-16" x1="248" y1="183.864" x2="40" y2="183.864"/><line class="cls-16" x1="248" y1="199.864" x2="40" y2="199.864"/><line class="cls-16" x1="248" y1="215.864" x2="40" y2="215.864"/><line class="cls-16" x1="248" y1="231.864" x2="40" y2="231.864"/></g><rect class="cls-17" x="136" y="136" width="232" height="232" rx="32"/><g class="cls-18"><polyline class="cls-19" points="248 39.864 248 247.864 40 247.864"/><line class="cls-19" x1="136" y1="39.864" x2="136" y2="247.864"/><line class="cls-19" x1="152" y1="39.864" x2="152" y2="247.864"/><line class="cls-19" x1="168" y1="39.864" x2="168" y2="247.864"/><line class="cls-19" x1="184" y1="39.864" x2="184" y2="247.864"/><line class="cls-19" x1="200" y1="39.864" x2="200" y2="247.864"/><line class="cls-19" x1="216" y1="39.864" x2="216" y2="247.864"/><line class="cls-19" x1="232" y1="39.864" x2="232" y2="247.864"/><line class="cls-19" x1="248" y1="135.864" x2="40" y2="135.864"/><line class="cls-19" x1="248" y1="151.864" x2="40" y2="151.864"/><line class="cls-19" x1="248" y1="167.864" x2="40" y2="167.864"/><line class="cls-19" x1="248" y1="183.864" x2="40" y2="183.864"/><line class="cls-19" x1="248" y1="199.864" x2="40" y2="199.864"/><line class="cls-19" x1="248" y1="215.864" x2="40" y2="215.864"/><line class="cls-19" x1="248" y1="231.864" x2="40" y2="231.864"/></g></g></g></svg>