<svg version="1.1" id="Layer_1" xmlns="http://www.w3.org/2000/svg" x="0" y="0" viewBox="0 0 448 448" xml:space="preserve"><style>.st1{fill:none;stroke:#3d3d3d;stroke-linecap:square}.st3{fill-rule:evenodd;clip-rule:evenodd;fill:#fff}</style><path id="Rectangle-3" fill-rule="evenodd" clip-rule="evenodd" d="M0 0h448v448H0z"/><g id="Group-72" transform="translate(87 87)"><g id="Grid-01" transform="translate(.927 .927)"><g id="Vertical-lines" transform="translate(.3 .902)"><path id="Line" class="st1" d="M.6 0v269.3"/><path class="st1" d="M25.9 0v269.3M9 0v269.3M34.3 0v269.3M17.4 0v269.3M42.7 0v269.3M51.1 0v269.3M59.5 0v269.3M67.9 0v269.3M76.4 0v269.3M84.8 0v269.3M93.2 0v269.3M101.6 0v269.3M110 0v269.3M118.4 0v269.3M126.9 0v269.3M135.3 0v269.3M143.7 0v269.3M152.1 0v269.3M160.5 0v269.3M168.9 0v269.3M177.4 0v269.3M185.8 0v269.3M194.2 0v269.3M202.6 0v269.3M211 0v269.3M219.4 0v269.3M227.9 0v269.3M236.3 0v269.3M244.7 0v269.3M253.1 0v269.3M261.5 0v269.3M269.9 0v269.3"/></g><path class="st1" d="M.6 0v269.3M25.9 0v269.3M9 0v269.3M34.3 0v269.3M17.4 0v269.3M42.7 0v269.3M51.1 0v269.3M59.5 0v269.3M67.9 0v269.3M76.4 0v269.3M84.8 0v269.3M93.2 0v269.3M101.6 0v269.3M110 0v269.3M118.4 0v269.3M126.9 0v269.3M135.3 0v269.3M143.7 0v269.3M152.1 0v269.3M160.5 0v269.3M168.9 0v269.3M177.4 0v269.3M185.8 0v269.3M194.2 0v269.3M202.6 0v269.3M211 0v269.3M219.4 0v269.3M227.9 0v269.3M236.3 0v269.3M244.7 0v269.3M253.1 0v269.3M261.5 0v269.3M269.9 0v269.3" transform="rotate(90 134.971 135.272)" id="Horizontal"/></g></g><path id="Fill-1" fill="none" d="M89 358h269V89H89z"/><g id="Group-8" transform="translate(16.813)"><path id="Fill-2" class="st3" d="M118.4 223.5c0 2.3-1.9 4.2-4.2 4.2-2.3 0-4.2-1.9-4.2-4.2 0-2.3 1.9-4.2 4.2-4.2 2.3 0 4.2 1.9 4.2 4.2"/><path id="Fill-4" class="st3" d="M100.4 223.5c0-7.6 6.2-13.8 13.8-13.8 7.6 0 13.8 6.2 13.8 13.8s-6.2 13.8-13.8 13.8c-7.6 0-13.8-6.2-13.8-13.8M316 94.4h-25.2c-1.7 0-3 1.4-3 3s1.4 3 3 3H313v89.4c0 35.4-28.8 64.2-64.2 64.2s-64.2-28.8-64.2-64.2v-89.4h5.4v-6.1h-8.4c-1.7 0-3 1.4-3 3v92.5c0 37.7 29.9 68.5 67.2 70.1v22.4c0 35.4-28.8 64.2-64.2 64.2s-64.2-28.8-64.2-64.2V243c9.5-1.5 16.8-9.6 16.8-19.5 0-10.9-8.9-19.8-19.8-19.8s-19.8 8.9-19.8 19.8c0 9.9 7.3 18.1 16.8 19.5v39.3c0 38.7 31.5 70.3 70.3 70.3s70.3-31.5 70.3-70.3V260c37.3-1.6 67.2-32.4 67.2-70.1V97.4c-.2-1.7-1.6-3-3.2-3"/><path id="Fill-6" d="M189.9 100.4h16.8c1.7 0 3-1.4 3-3 0-1.7-1.4-3-3-3h-16.8v6z" fill-rule="evenodd" clip-rule="evenodd" fill="#0062ff"/></g></svg>