<svg id="eb830f90-5553-4131-a3ec-41e2cf9e6dff" data-name="Layer 1" xmlns="http://www.w3.org/2000/svg" xmlns:xlink="http://www.w3.org/1999/xlink" viewBox="0 0 288 288">
  <defs>
    <linearGradient id="e0f11e9b-be47-4dec-99a5-806c10b4e3d2" x1="183.111" y1="161.776" x2="218.666" y2="161.776" gradientUnits="userSpaceOnUse">
      <stop offset="0" stop-color="#f4f4f4" stop-opacity="0.15"/>
      <stop offset="1" stop-color="#f4f4f4" stop-opacity="0.45"/>
    </linearGradient>
    <linearGradient id="e08f0aa0-bd70-4a42-86e4-50a9caab1049" x1="183.111" y1="126.221" x2="218.666" y2="126.221" gradientUnits="userSpaceOnUse">
      <stop offset="0" stop-color="#f4f4f4" stop-opacity="0.45"/>
      <stop offset="1" stop-color="#f4f4f4" stop-opacity="0.15"/>
    </linearGradient>
    <linearGradient id="a7ccf204-0f7f-41d3-985f-69a666d5581e" x1="178.083" y1="166.804" x2="223.694" y2="121.193" gradientUnits="userSpaceOnUse">
      <stop offset="0.1" stop-color="#418bff"/>
      <stop offset="0.9" stop-color="#43d1cf"/>
    </linearGradient>
    <linearGradient id="e9e15fe4-c81d-4a8b-97f8-600f4d6ee6e6" x1="58.238" y1="158.653" x2="101.766" y2="115.125" gradientUnits="userSpaceOnUse">
      <stop offset="0.1" stop-color="#f975a5"/>
      <stop offset="0.9" stop-color="#a870ff"/>
    </linearGradient>
  </defs>
  <path d="M0,0H288V288H0Z" fill="#fff" fill-rule="evenodd"/>
  <path d="M30.713,211.148v1.75h-.508v-4h.508v1.75H43.94V208.9h.508v4H43.94v-1.75Z" fill="#97c1ff"/>
  <g>
    <path d="M31.262,228.842v-.888H33.6V221.21h-.084l-2.112,1.968-.589-.636,2.221-2.076h1.571v7.488H36.77v.888Z" fill="#6f6f6f"/>
    <path d="M37.513,230.654l3.133-10.692h.863l-3.132,10.692Z" fill="#6f6f6f"/>
    <path d="M46.5,228.842V227.2H42.458v-.888l3.5-5.844h1.5v5.892h1.212v.84H47.461v1.644Zm-3.1-2.484h3.1v-5.112h-.06Z" fill="#6f6f6f"/>
    <path d="M58.273,229.532a1.522,1.522,0,0,1-.75,1.406,4.486,4.486,0,0,1-2.25.448,4.123,4.123,0,0,1-2.088-.4,1.253,1.253,0,0,1-.636-1.126,1.1,1.1,0,0,1,.264-.785,1.552,1.552,0,0,1,.72-.414v-.132a.89.89,0,0,1-.552-.86.864.864,0,0,1,.3-.711,1.961,1.961,0,0,1,.768-.364v-.048a2,2,0,0,1-.858-.758,2.125,2.125,0,0,1-.306-1.144,2.2,2.2,0,0,1,.168-.866,1.948,1.948,0,0,1,.474-.68,2.15,2.15,0,0,1,.732-.439,2.99,2.99,0,0,1,2.13.083v-.108a1.017,1.017,0,0,1,.168-.6.627.627,0,0,1,.552-.238h.924v.852H56.857v.4a2.018,2.018,0,0,1,.522.692,2.145,2.145,0,0,1,.186.908,2.2,2.2,0,0,1-.168.867,1.948,1.948,0,0,1-.474.68,2.139,2.139,0,0,1-.738.439,2.786,2.786,0,0,1-.96.157,3.053,3.053,0,0,1-.6-.06,1.994,1.994,0,0,0-.564.246.508.508,0,0,0-.252.45.366.366,0,0,0,.264.372,2.037,2.037,0,0,0,.684.1h1.32a2.6,2.6,0,0,1,1.674.436A1.483,1.483,0,0,1,58.273,229.532Zm-.9.066a.717.717,0,0,0-.282-.594,1.667,1.667,0,0,0-1-.222H54.025a.877.877,0,0,0-.576.84.921.921,0,0,0,.306.7,1.5,1.5,0,0,0,1.038.288h.888a2.551,2.551,0,0,0,1.248-.252A.817.817,0,0,0,57.373,229.6Zm-2.148-3.576a1.492,1.492,0,0,0,.972-.295,1.109,1.109,0,0,0,.36-.911v-.337a1.109,1.109,0,0,0-.36-.91,1.749,1.749,0,0,0-1.944,0,1.109,1.109,0,0,0-.36.91v.337a1.109,1.109,0,0,0,.36.911A1.492,1.492,0,0,0,55.225,226.022Z" fill="#6f6f6f"/>
    <path d="M59.389,228.842V222.65h.96v1.14h.06a1.87,1.87,0,0,1,.6-.792,1.843,1.843,0,0,1,1.188-.348h.372v.96h-.564a2.168,2.168,0,0,0-1.218.294.867.867,0,0,0-.438.738v4.2Z" fill="#6f6f6f"/>
    <path d="M64.273,221.2a.587.587,0,0,1-.45-.15.553.553,0,0,1-.138-.39V220.5a.553.553,0,0,1,.138-.39.75.75,0,0,1,.9,0,.553.553,0,0,1,.138.39v.156a.553.553,0,0,1-.138.39A.587.587,0,0,1,64.273,221.2Zm-.48,1.452h.96v6.192h-.96Z" fill="#6f6f6f"/>
    <path d="M70.753,227.845h-.048a1.889,1.889,0,0,1-1.812,1.141,2.352,2.352,0,0,1-1.044-.228,2.268,2.268,0,0,1-.8-.648,2.97,2.97,0,0,1-.5-1.02,5.278,5.278,0,0,1,0-2.688,2.97,2.97,0,0,1,.5-1.02,2.268,2.268,0,0,1,.8-.648,2.352,2.352,0,0,1,1.044-.228,2.108,2.108,0,0,1,1.11.279,1.74,1.74,0,0,1,.7.861h.048v-3.684h.96v8.88h-.96Zm-1.6.289a2.239,2.239,0,0,0,.618-.085,1.533,1.533,0,0,0,.51-.247,1.2,1.2,0,0,0,.342-.4,1.118,1.118,0,0,0,.126-.537v-2.315a.956.956,0,0,0-.126-.477,1.2,1.2,0,0,0-.342-.38,1.753,1.753,0,0,0-.51-.247,2.1,2.1,0,0,0-.618-.09,1.651,1.651,0,0,0-1.284.513,1.913,1.913,0,0,0-.468,1.344v1.061a1.918,1.918,0,0,0,.468,1.346A1.654,1.654,0,0,0,69.157,228.134Z" fill="#6f6f6f"/>
    <path d="M75.937,222.65h.936l.66,2.676.66,2.712h.024l.756-2.712.78-2.676h.852l.8,2.676.768,2.712H82.2l.636-2.712.672-2.676h.9l-1.644,6.192H81.577l-.864-2.976-.54-1.884h-.024l-.528,1.884-.864,2.976H77.593Z" fill="#6f6f6f"/>
    <path d="M86.281,221.2a.587.587,0,0,1-.45-.15.553.553,0,0,1-.138-.39V220.5a.553.553,0,0,1,.138-.39.75.75,0,0,1,.9,0,.553.553,0,0,1,.138.39v.156a.553.553,0,0,1-.138.39A.587.587,0,0,1,86.281,221.2Zm-.48,1.452h.96v6.192H85.8Z" fill="#6f6f6f"/>
    <path d="M92.761,227.845h-.048a1.89,1.89,0,0,1-1.812,1.141,2.352,2.352,0,0,1-1.044-.228,2.268,2.268,0,0,1-.8-.648,2.952,2.952,0,0,1-.5-1.02,5.278,5.278,0,0,1,0-2.688,2.952,2.952,0,0,1,.5-1.02,2.268,2.268,0,0,1,.8-.648,2.352,2.352,0,0,1,1.044-.228,2.108,2.108,0,0,1,1.11.279,1.74,1.74,0,0,1,.7.861h.048v-3.684h.96v8.88h-.96Zm-1.6.289a2.244,2.244,0,0,0,.618-.085,1.533,1.533,0,0,0,.51-.247,1.2,1.2,0,0,0,.342-.4,1.118,1.118,0,0,0,.126-.537v-2.315a.956.956,0,0,0-.126-.477,1.2,1.2,0,0,0-.342-.38,1.753,1.753,0,0,0-.51-.247,2.1,2.1,0,0,0-.618-.09,1.651,1.651,0,0,0-1.284.513,1.913,1.913,0,0,0-.468,1.344v1.061a1.918,1.918,0,0,0,.468,1.346A1.654,1.654,0,0,0,91.165,228.134Z" fill="#6f6f6f"/>
    <path d="M97.129,228.842a.983.983,0,0,1-.762-.281,1.05,1.05,0,0,1-.258-.737V223.5h-1.02v-.852h.576a.564.564,0,0,0,.426-.126.654.654,0,0,0,.114-.438v-1.152h.864v1.716h1.356v.852H97.069v4.488h1.26v.852Z" fill="#6f6f6f"/>
    <path d="M99.973,219.962h.96v3.684h.047a2.023,2.023,0,0,1,.643-.831,1.81,1.81,0,0,1,1.109-.309,1.941,1.941,0,0,1,1.518.618,2.511,2.511,0,0,1,.559,1.746v3.972h-.96V225.03q0-1.673-1.4-1.672a2.145,2.145,0,0,0-.558.072,1.611,1.611,0,0,0-.486.216,1.081,1.081,0,0,0-.342.367,1.048,1.048,0,0,0-.126.524v4.305h-.96Z" fill="#6f6f6f"/>
  </g>
  <circle cx="87.101" cy="143.998" r="42.665"/>
  <circle cx="200.888" cy="143.998" r="42.665"/>
  <g>
    <rect x="172.445" y="115.555" width="56.887" height="56.887" fill="none"/>
    <rect x="183.111" y="154.665" width="35.554" height="14.222" fill="url(#e0f11e9b-be47-4dec-99a5-806c10b4e3d2)"/>
    <rect x="183.111" y="119.11" width="35.554" height="14.222" fill="url(#e08f0aa0-bd70-4a42-86e4-50a9caab1049)"/>
    <path d="M183.111,168.886a7.111,7.111,0,0,1-5.027-12.139l35.554-35.554a7.111,7.111,0,1,1,10.055,10.057L188.139,166.8A7.087,7.087,0,0,1,183.111,168.886Z" fill="url(#a7ccf204-0f7f-41d3-985f-69a666d5581e)"/>
    <circle cx="183.111" cy="126.221" r="7.111" fill="#f4f4f4"/>
    <circle cx="218.666" cy="161.776" r="7.111" fill="#f4f4f4"/>
    <circle cx="183.111" cy="161.776" r="7.111" fill="#f4f4f4"/>
    <circle cx="218.666" cy="126.221" r="7.111" fill="#f4f4f4"/>
  </g>
  <g>
    <rect x="58.67" y="115.557" width="56.887" height="56.887" fill="none"/>
    <path d="M83.558,129.779a10.667,10.667,0,1,1-10.666-10.667A10.667,10.667,0,0,1,83.558,129.779ZM72.892,147.556a10.666,10.666,0,1,0,10.666,10.666A10.666,10.666,0,0,0,72.892,147.556Zm28.443-28.444A10.667,10.667,0,1,0,112,129.779,10.666,10.666,0,0,0,101.335,119.112Z" fill="url(#e9e15fe4-c81d-4a8b-97f8-600f4d6ee6e6)"/>
    <rect x="90.669" y="147.556" width="21.333" height="21.333" rx="10.666" fill="#f4f4f4"/>
  </g>
  <path d="M30.205,87.1V200.9H144V87.1Zm99.574,99.562H44.448V101.333h85.331Z" fill="#c9deff" fill-rule="evenodd"/>
  <path d="M143.99,87.1V200.9h113.8V87.1Zm99.564,99.562H158.223V101.333h85.331Z" fill="#f4f4f4" fill-rule="evenodd"/>
</svg>
