<?xml version="1.0" encoding="UTF-8"?>
<svg width="240px" height="240px" viewBox="0 0 240 240" version="1.1" xmlns="http://www.w3.org/2000/svg" xmlns:xlink="http://www.w3.org/1999/xlink">
    <!-- Generator: Sketch 62 (91390) - https://sketch.com -->
    <title>Group 30</title>
    <desc>Created with Sketch.</desc>
    <g id="charts" stroke="none" stroke-width="1" fill="none" fill-rule="evenodd">
        <g id="Dataviz-Charts" transform="translate(-334.000000, -3929.000000)">
            <g id="Group-30" transform="translate(334.000000, 3929.000000)">
                <rect id="Rectangle" fill="#FFFFFF" x="0" y="0" width="240" height="240"></rect>
                <g id="chart-type/alluvial" transform="translate(34.857143, 34.285714)">
                    <g id="alluvial" transform="translate(0.571429, 59.428571)">
                        <path d="M99.0268457,90.9739205 C94.5017826,91.4353165 80.7865853,95.1010086 73.2709483,96.9097942 C69.2947171,97.8665539 63.0447537,98.441176 62.8571429,98.2486918 C72.1340822,97.8665539 91.824827,89.4170629 98.032788,87.8149147 C104.705576,86.0938794 109.818673,86.3797751 115.503003,86.3797751 C129.89304,86.3797751 141.155295,76.5715719 146.181587,73.3616144 C149.779797,71.065957 152.857175,69.0080743 161.142857,67.4285714 C151.577501,70.1573183 148.074497,72.9794767 144.85431,75.4676183 C141.636923,77.9557599 133.037623,85.5135961 123.833488,88.1036411 C115.629011,90.4106211 106.32967,90.2322902 99.0268457,90.9739205 M168.953941,75.4771949 C168.953941,75.4771949 160.046639,76.5148871 155.225023,77.9653941 C151.410024,79.1105312 147.682435,80.6967582 142.254593,85.2320666 C135.388725,90.9662346 128.790723,94.9388707 120.134371,97.2772125 C128.525675,94.2178585 133.730766,91.8766894 140.540241,85.2320666 C147.786763,78.1548365 155.794593,72.6101109 162.468726,72.6101109 C162.657642,72.6101109 168.570466,72.0361286 168.570466,72.0361286 L168.570466,62.8580666 C168.570466,62.8580666 156.366984,62.6657968 147.214373,67.8288099 C138.061761,72.9918232 135.963935,75.7655998 131.384809,78.3471064 C127.434467,80.5751757 122.804589,81.9804427 112.126542,81.9804427 C99.9202399,81.9804427 93.9143672,84.0841019 87.7646919,86.6656086 C82.7597979,88.2405256 75.896749,91.3507745 70.1728422,92.6881816 C68.6051121,93.0557565 62.6048786,94.0029686 54.7295723,94.2178585 C33.9204923,94.7833584 0,94.2178585 0,94.2178585 L0,112 L61.7843581,112 C61.7843581,112 77.7887399,111.677665 87.144367,110.662593 C94.2019723,109.899168 110.40937,109.514628 116.894584,109.132916 C123.376979,108.751204 131.576546,106.455274 140.920895,99.1914294 C150.265243,91.9219294 157.892419,87.5251683 165.138942,87.5251683 C169.142857,87.5251683 169.142857,87.3328984 169.142857,87.3328984 C169.142857,87.3328984 168.38155,75.4771949 168.953941,75.4771949" id="Fill-1-Copy-3" fill="#0F62FE" fill-rule="nonzero" opacity="0.3"></path>
                        <path d="M169.142857,92.3188475 L166.279769,92.3188475 C158.239359,92.3188475 151.350407,86.4922842 144.461455,78.187173 C141.038198,74.062847 131.257867,59.9283495 117.19705,59.9283495 C116.017299,59.9283495 114.83472,59.9142347 113.65214,59.8916512 L113.65214,59.7843792 C114.922423,59.7109826 116.585957,59.6460547 118.464504,59.6460547 C122.609192,59.6460547 130.352543,61.2692495 138.542898,65.8480702 C139.371835,66.3110335 140.175311,66.7711739 140.96464,67.2256685 C148.051632,71.2878897 153.780637,74.7968133 169.043838,74.7968133 L169.043838,73.8821783 C154.026771,73.8821783 148.393958,70.4297137 141.422961,66.4295973 C140.630802,65.9751027 139.824498,65.5121394 138.989902,65.0463531 C130.646774,60.382844 122.719528,58.7314199 118.464504,58.7314199 C116.594443,58.7314199 114.930911,58.7935247 113.65214,58.8640984 L113.65214,58.7935247 C115.88433,58.5027611 119.714984,58.1414239 125.158246,58.1414239 C140.44125,58.1414239 145.644035,61.5007312 157.826304,61.5007312 L169.043838,61.5007312 C169.043838,61.5007312 168.613808,24.7685401 169.043838,24.7685401 L158.278967,24.7685401 C144.583109,24.7685401 129.577359,21.7875078 116.336992,21.7875078 C115.143096,21.7875078 114.240601,21.7875078 113.558779,21.7875078 L113.55312,21.6576521 L169.043838,21.6576521 L169.043838,10.5973444 L169.043838,5.29867219 L169.043838,0 L0,0 L0,10.5973444 L113.507854,10.5973444 C86.0963341,10.6086362 84.6280113,14.0328713 63.5707357,14.0328713 L0,14.0328713 L0,18.9024555 L0,22.5525265 L63.5707357,22.5525265 C84.6251822,22.5525265 86.5291922,19.1282913 113.507854,19.1169995 L113.507854,20.4042635 L113.465417,19.1960421 C85.9124401,19.1960421 77.7758386,25.2032741 56.6817841,25.2032741 L0,25.2032741 L0,31.2161519 L0,39.5212631 L56.9703562,39.5212631 C77.8437379,39.5212631 86.3651022,32.7941795 112.828861,32.6530321 L112.828861,32.6615009 C110.941826,32.6784386 109.153811,32.7574811 107.442182,32.8845138 L105.405202,32.8845138 C105.292037,32.8929826 94.0235793,33.8019717 82.3448968,38.3497399 C70.0834118,43.1233439 61.4573694,43.7669759 54.6306589,43.7669759 L0.101848976,43.7669759 L0.101848976,44.4529521 L54.6306589,44.4529521 C61.5196104,44.4529521 70.2276978,43.8036742 82.5938609,38.9877259 C85.3494416,37.9178289 88.0767309,37.0540071 90.6399301,36.3510931 C76.9949965,41.2037397 69.7297695,49.1136382 55.1031249,49.1136382 L0,49.1136382 L0,53.9803994 L0,92.7451126 L56.9703562,92.7451126 C82.6787351,92.7451126 87.9748818,79.4433846 108.788852,77.6169377 L109.776221,77.6169377 C117.313045,77.6169377 123.808746,79.3953945 130.491171,86.7774018 L142.167024,99.6669795 C148.193089,105.964975 157.950786,110.857143 167.134169,110.857143 L169.142857,110.857143 C169.142857,110.857143 168.718487,92.9568336 169.142857,92.3188475" id="Fill-1" fill="#0062FF" fill-rule="nonzero"></path>
                    </g>
                </g>
            </g>
        </g>
    </g>
</svg>