<svg xmlns="http://www.w3.org/2000/svg" viewBox="0 0 288 216"><g fill="none" fill-rule="evenodd"><path fill="#FBFBFB" d="M0 0h288v216H0z"/><path d="M37.2 73.024h-5.328V88h-2.016V73.024h-5.328v-1.776H37.2v1.776zM39.768 88V70.24h1.92v7.392h.096c.6-1.392 1.656-2.304 3.504-2.304 2.544 0 4.152 1.728 4.152 4.728V88h-1.92v-7.608c0-2.208-.96-3.336-2.808-3.336-1.536 0-3.024.768-3.024 2.352V88h-1.92zM54.36 72.712c-.816 0-1.176-.432-1.176-1.08v-.312c0-.648.36-1.08 1.176-1.08s1.176.432 1.176 1.08v.312c0 .648-.36 1.08-1.176 1.08zM53.4 88V75.616h1.92V88H53.4zm9.72.288c-2.28 0-3.792-.96-4.896-2.424l1.368-1.104c.96 1.2 2.112 1.896 3.672 1.896 1.632 0 2.592-.744 2.592-2.016 0-.96-.528-1.704-2.16-1.944l-.984-.144c-2.28-.336-3.984-1.272-3.984-3.576 0-2.448 1.896-3.648 4.416-3.648 1.992 0 3.312.744 4.32 1.992l-1.272 1.152c-.552-.768-1.608-1.512-3.192-1.512s-2.424.744-2.424 1.92c0 1.2.84 1.68 2.376 1.92l.96.144c2.736.408 3.792 1.608 3.792 3.48 0 2.4-1.752 3.864-4.584 3.864zm14.592-15.576c-.816 0-1.176-.432-1.176-1.08v-.312c0-.648.36-1.08 1.176-1.08s1.176.432 1.176 1.08v.312c0 .648-.36 1.08-1.176 1.08zM76.752 88V75.616h1.92V88h-1.92zm9.72.288c-2.28 0-3.792-.96-4.896-2.424l1.368-1.104c.96 1.2 2.112 1.896 3.672 1.896 1.632 0 2.592-.744 2.592-2.016 0-.96-.528-1.704-2.16-1.944l-.984-.144c-2.28-.336-3.984-1.272-3.984-3.576 0-2.448 1.896-3.648 4.416-3.648 1.992 0 3.312.744 4.32 1.992l-1.272 1.152c-.552-.768-1.608-1.512-3.192-1.512s-2.424.744-2.424 1.92c0 1.2.84 1.68 2.376 1.92l.96.144c2.736.408 3.792 1.608 3.792 3.48 0 2.4-1.752 3.864-4.584 3.864zM110.184 88h-1.08c-1.416 0-1.992-.864-2.136-2.016h-.12c-.528 1.512-1.848 2.304-3.576 2.304-2.616 0-4.152-1.44-4.152-3.744 0-2.328 1.68-3.624 5.28-3.624h2.448v-1.224c0-1.752-.96-2.712-2.928-2.712-1.488 0-2.472.72-3.144 1.848l-1.152-1.08c.672-1.32 2.16-2.424 4.392-2.424 2.976 0 4.752 1.56 4.752 4.176v6.816h1.416V88zm-6.6-1.344c1.896 0 3.264-.984 3.264-2.256v-2.04h-2.544c-2.184 0-3.168.672-3.168 1.872v.504c0 1.224.96 1.92 2.448 1.92zM120.504 88h-1.92V75.616h1.92v2.016h.096c.552-1.272 1.416-2.304 3.336-2.304 1.632 0 3.12.744 3.792 2.52h.048c.456-1.344 1.656-2.52 3.768-2.52 2.52 0 4.032 1.728 4.032 4.728V88h-1.92v-7.608c0-2.184-.84-3.336-2.712-3.336-1.512 0-2.904.768-2.904 2.352V88h-1.92v-7.608c0-2.208-.84-3.336-2.664-3.336-1.512 0-2.952.768-2.952 2.352V88zm23.688.288c-3.36 0-5.568-2.544-5.568-6.48 0-3.936 2.208-6.48 5.568-6.48 3.312 0 5.352 2.544 5.352 6.048v.912h-8.904v.576c0 2.136 1.368 3.744 3.672 3.744 1.56 0 2.76-.768 3.408-2.136l1.368.984c-.792 1.68-2.568 2.832-4.896 2.832zm0-11.352c-2.088 0-3.552 1.584-3.552 3.744v.168h6.84v-.264c0-2.184-1.32-3.648-3.288-3.648zm12.24 11.352c-2.28 0-3.792-.96-4.896-2.424l1.368-1.104c.96 1.2 2.112 1.896 3.672 1.896 1.632 0 2.592-.744 2.592-2.016 0-.96-.528-1.704-2.16-1.944l-.984-.144c-2.28-.336-3.984-1.272-3.984-3.576 0-2.448 1.896-3.648 4.416-3.648 1.992 0 3.312.744 4.32 1.992l-1.272 1.152c-.552-.768-1.608-1.512-3.192-1.512s-2.424.744-2.424 1.92c0 1.2.84 1.68 2.376 1.92l.96.144c2.736.408 3.792 1.608 3.792 3.48 0 2.4-1.752 3.864-4.584 3.864zm11.544 0c-2.28 0-3.792-.96-4.896-2.424l1.368-1.104c.96 1.2 2.112 1.896 3.672 1.896 1.632 0 2.592-.744 2.592-2.016 0-.96-.528-1.704-2.16-1.944l-.984-.144c-2.28-.336-3.984-1.272-3.984-3.576 0-2.448 1.896-3.648 4.416-3.648 1.992 0 3.312.744 4.32 1.992l-1.272 1.152c-.552-.768-1.608-1.512-3.192-1.512s-2.424.744-2.424 1.92c0 1.2.84 1.68 2.376 1.92l.96.144c2.736.408 3.792 1.608 3.792 3.48 0 2.4-1.752 3.864-4.584 3.864zM186.024 88h-1.08c-1.416 0-1.992-.864-2.136-2.016h-.12c-.528 1.512-1.848 2.304-3.576 2.304-2.616 0-4.152-1.44-4.152-3.744 0-2.328 1.68-3.624 5.28-3.624h2.448v-1.224c0-1.752-.96-2.712-2.928-2.712-1.488 0-2.472.72-3.144 1.848l-1.152-1.08c.672-1.32 2.16-2.424 4.392-2.424 2.976 0 4.752 1.56 4.752 4.176v6.816h1.416V88zm-6.6-1.344c1.896 0 3.264-.984 3.264-2.256v-2.04h-2.544c-2.184 0-3.168.672-3.168 1.872v.504c0 1.224.96 1.92 2.448 1.92zm19.776 2.712c0 2.544-2.016 3.72-6 3.72-3.864 0-5.448-1.104-5.448-3.048 0-1.344.744-2.064 1.968-2.4v-.264c-.696-.336-1.104-.888-1.104-1.728 0-1.248.888-1.848 2.136-2.16v-.096c-1.464-.696-2.328-2.064-2.328-3.792 0-2.52 1.848-4.272 4.656-4.272.888 0 1.68.168 2.352.48v-.216c0-.96.408-1.656 1.44-1.656h1.848v1.68h-2.352v.792c.888.768 1.416 1.872 1.416 3.192 0 2.52-1.848 4.272-4.68 4.272-.408 0-.84-.048-1.2-.12-.816.216-1.632.624-1.632 1.392 0 .744.768.936 1.896.936h2.64c3.072 0 4.392 1.248 4.392 3.288zm-1.8.144c0-.984-.648-1.632-2.568-1.632h-4.128c-.792.36-1.152.912-1.152 1.68 0 1.08.744 1.968 2.688 1.968h1.776c2.136 0 3.384-.672 3.384-2.016zm-4.296-7.176c1.632 0 2.664-.768 2.664-2.4v-.672c0-1.632-1.032-2.4-2.664-2.4-1.632 0-2.664.768-2.664 2.4v.672c0 1.632 1.032 2.4 2.664 2.4zm9.288-9.624c-.816 0-1.176-.432-1.176-1.08v-.312c0-.648.36-1.08 1.176-1.08s1.176.432 1.176 1.08v.312c0 .648-.36 1.08-1.176 1.08zM201.432 88V75.616h1.92V88h-1.92zm7.92 0h-1.92V75.616h1.92v2.016h.096c.6-1.392 1.656-2.304 3.504-2.304 2.544 0 4.152 1.728 4.152 4.728V88h-1.92v-7.608c0-2.208-.96-3.336-2.808-3.336-1.536 0-3.024.768-3.024 2.352V88zm22.152 1.368c0 2.544-2.016 3.72-6 3.72-3.864 0-5.448-1.104-5.448-3.048 0-1.344.744-2.064 1.968-2.4v-.264c-.696-.336-1.104-.888-1.104-1.728 0-1.248.888-1.848 2.136-2.16v-.096c-1.464-.696-2.328-2.064-2.328-3.792 0-2.52 1.848-4.272 4.656-4.272.888 0 1.68.168 2.352.48v-.216c0-.96.408-1.656 1.44-1.656h1.848v1.68h-2.352v.792c.888.768 1.416 1.872 1.416 3.192 0 2.52-1.848 4.272-4.68 4.272-.408 0-.84-.048-1.2-.12-.816.216-1.632.624-1.632 1.392 0 .744.768.936 1.896.936h2.64c3.072 0 4.392 1.248 4.392 3.288zm-1.8.144c0-.984-.648-1.632-2.568-1.632h-4.128c-.792.36-1.152.912-1.152 1.68 0 1.08.744 1.968 2.688 1.968h1.776c2.136 0 3.384-.672 3.384-2.016zm-4.296-7.176c1.632 0 2.664-.768 2.664-2.4v-.672c0-1.632-1.032-2.4-2.664-2.4-1.632 0-2.664.768-2.664 2.4v.672c0 1.632 1.032 2.4 2.664 2.4zM30.696 118.288c-3.36 0-5.568-2.544-5.568-6.48 0-3.936 2.208-6.48 5.568-6.48 3.312 0 5.352 2.544 5.352 6.048v.912h-8.904v.576c0 2.136 1.368 3.744 3.672 3.744 1.56 0 2.76-.768 3.408-2.136l1.368.984c-.792 1.68-2.568 2.832-4.896 2.832zm0-11.352c-2.088 0-3.552 1.584-3.552 3.744v.168h6.84v-.264c0-2.184-1.32-3.648-3.288-3.648zM37.392 118l4.584-6.24-4.392-6.144h2.256l3.144 4.608h.072l3.264-4.608h2.136l-4.368 6L48.552 118h-2.256l-3.216-4.848h-.072L39.528 118h-2.136zm23.784 0h-1.08c-1.416 0-1.992-.864-2.136-2.016h-.12c-.528 1.512-1.848 2.304-3.576 2.304-2.616 0-4.152-1.44-4.152-3.744 0-2.328 1.68-3.624 5.28-3.624h2.448v-1.224c0-1.752-.96-2.712-2.928-2.712-1.488 0-2.472.72-3.144 1.848l-1.152-1.08c.672-1.32 2.16-2.424 4.392-2.424 2.976 0 4.752 1.56 4.752 4.176v6.816h1.416V118zm-6.6-1.344c1.896 0 3.264-.984 3.264-2.256v-2.04h-2.544c-2.184 0-3.168.672-3.168 1.872v.504c0 1.224.96 1.92 2.448 1.92zM65.832 118h-1.92v-12.384h1.92v2.016h.096c.552-1.272 1.416-2.304 3.336-2.304 1.632 0 3.12.744 3.792 2.52h.048c.456-1.344 1.656-2.52 3.768-2.52 2.52 0 4.032 1.728 4.032 4.728V118h-1.92v-7.608c0-2.184-.84-3.336-2.712-3.336-1.512 0-2.904.768-2.904 2.352V118h-1.92v-7.608c0-2.208-.84-3.336-2.664-3.336-1.512 0-2.952.768-2.952 2.352V118zm19.032 4.8v-17.184h1.92v2.016h.096c.648-1.56 1.92-2.304 3.624-2.304 3.096 0 5.04 2.52 5.04 6.48 0 3.96-1.944 6.48-5.04 6.48-1.704 0-2.88-.768-3.624-2.304h-.096v6.816h-1.92zm5.112-6.24c2.16 0 3.504-1.488 3.504-3.696v-2.112c0-2.208-1.344-3.696-3.504-3.696-1.752 0-3.192 1.008-3.192 2.376v4.608c0 1.608 1.44 2.52 3.192 2.52zm12.552 1.44h-1.704c-1.32 0-2.04-.84-2.04-1.992V100.24h1.92v16.08h1.824V118zm7.44.288c-3.36 0-5.568-2.544-5.568-6.48 0-3.936 2.208-6.48 5.568-6.48 3.312 0 5.352 2.544 5.352 6.048v.912h-8.904v.576c0 2.136 1.368 3.744 3.672 3.744 1.56 0 2.76-.768 3.408-2.136l1.368.984c-.792 1.68-2.568 2.832-4.896 2.832zm0-11.352c-2.088 0-3.552 1.584-3.552 3.744v.168h6.84v-.264c0-2.184-1.32-3.648-3.288-3.648zM124.632 118l-.672-12.384h1.776l.216 6.024.144 4.584h.12l1.896-4.056 3.072-6.552h1.8l.528 6.24.288 4.272h.12l1.824-4.176 2.808-6.336h1.8L134.712 118h-2.232l-.6-6.696-.168-3.168h-.12l-1.416 3.168-3.192 6.696h-2.352zm20.184-15.288c-.744 0-1.008-.384-1.008-.84 0-.096 0-.216.096-.672.12-.6.504-.96 1.296-.96.744 0 1.008.384 1.008.84 0 .096 0 .216-.096.672-.12.6-.504.96-1.296.96zM144.36 118h-1.584c-1.128 0-1.68-.624-1.68-1.512 0-.168.024-.336.072-.576l2.064-10.296h1.848l-2.16 10.752h1.752L144.36 118zm7.368 0h-2.256c-1.128 0-1.68-.624-1.68-1.512 0-.168.024-.336.072-.576l1.752-8.664h-1.824l.312-1.632h.936c.888 0 1.08-.312 1.248-1.176l.456-2.256h1.704l-.672 3.432h2.616l-.312 1.632h-2.616l-1.848 9.12h2.424l-.312 1.632zm3.024 0l3.576-17.76h1.848l-1.584 7.824h.12c.864-1.848 2.016-2.736 3.792-2.736 2.136 0 3.192 1.296 3.192 3.432 0 .456-.048 1.008-.168 1.608l-1.2 6h1.752l-.312 1.632h-1.752c-.912 0-1.536-.432-1.536-1.392 0-.144 0-.264.048-.504l1.152-5.736c.096-.48.12-.984.12-1.272 0-1.392-.576-2.088-1.896-2.088-.888 0-1.608.312-2.28.984-.816.816-1.44 2.112-1.632 3.096L156.6 118h-1.848zm18.336.288c-2.592 0-4.464-1.728-4.464-5.088 0-4.152 2.592-7.872 6.384-7.872 2.592 0 4.464 1.728 4.464 5.088 0 4.152-2.592 7.872-6.384 7.872zm.24-1.656c1.776 0 3.336-1.344 3.84-3.864l.36-1.8c.072-.36.12-.72.12-1.08 0-1.728-1.008-2.904-2.88-2.904-1.776 0-3.336 1.344-3.84 3.864l-.36 1.8c-.072.36-.12.72-.12 1.08 0 1.728 1.008 2.904 2.88 2.904zm10.536-11.016h1.848l-1.536 7.632c-.096.48-.12.984-.12 1.272 0 1.368.528 2.088 1.848 2.088.864 0 1.584-.312 2.232-.984.888-.912 1.44-2.16 1.632-3.096l1.392-6.912h1.848l-2.16 10.752h1.752l-.312 1.632h-1.68c-1.056 0-1.584-.624-1.584-1.512 0-.168.024-.36.096-.696l.048-.24h-.12c-.864 1.872-2.016 2.736-3.72 2.736-2.112 0-3.168-1.296-3.168-3.432 0-.456.048-1.008.168-1.608l1.536-7.632zM199.656 118H197.4c-1.128 0-1.68-.624-1.68-1.512 0-.168.024-.336.072-.576l1.752-8.664h-1.824l.312-1.632h.936c.888 0 1.08-.312 1.248-1.176l.456-2.256h1.704l-.672 3.432h2.616l-.312 1.632h-2.616l-1.848 9.12h2.424l-.312 1.632zm9.864 0v-17.76h1.92v7.392h.096c.648-1.56 1.92-2.304 3.624-2.304 3.096 0 5.04 2.52 5.04 6.48 0 3.96-1.944 6.48-5.04 6.48-1.704 0-2.88-.768-3.624-2.304h-.096V118h-1.92zm5.112-1.44c2.16 0 3.504-1.488 3.504-3.696v-2.112c0-2.208-1.344-3.696-3.504-3.696-1.752 0-3.192 1.008-3.192 2.376v4.608c0 1.608 1.44 2.52 3.192 2.52zm13.464 1.728c-3.36 0-5.568-2.544-5.568-6.48 0-3.936 2.208-6.48 5.568-6.48 3.312 0 5.352 2.544 5.352 6.048v.912h-8.904v.576c0 2.136 1.368 3.744 3.672 3.744 1.56 0 2.76-.768 3.408-2.136l1.368.984c-.792 1.68-2.568 2.832-4.896 2.832zm0-11.352c-2.088 0-3.552 1.584-3.552 3.744v.168h6.84v-.264c0-2.184-1.32-3.648-3.288-3.648zM240.36 118h-1.704c-1.32 0-2.04-.84-2.04-1.992V100.24h1.92v16.08h1.824V118zm7.8 0h-2.4c-1.32 0-2.04-.84-2.04-2.04v-8.664h-2.04v-1.68h1.152c.816 0 1.08-.288 1.08-1.128v-2.304h1.728v3.432h2.712v1.68h-2.712v9.024h2.52V118zM36.12 148h-1.08c-1.416 0-1.992-.864-2.136-2.016h-.12c-.528 1.512-1.848 2.304-3.576 2.304-2.616 0-4.152-1.44-4.152-3.744 0-2.328 1.68-3.624 5.28-3.624h2.448v-1.224c0-1.752-.96-2.712-2.928-2.712-1.488 0-2.472.72-3.144 1.848l-1.152-1.08c.672-1.32 2.16-2.424 4.392-2.424 2.976 0 4.752 1.56 4.752 4.176v6.816h1.416V148zm-6.6-1.344c1.896 0 3.264-.984 3.264-2.256v-2.04H30.24c-2.184 0-3.168.672-3.168 1.872v.504c0 1.224.96 1.92 2.448 1.92zM40.776 148h-1.92v-12.384h1.92v2.016h.096c.6-1.392 1.656-2.304 3.504-2.304 2.544 0 4.152 1.728 4.152 4.728V148h-1.92v-7.608c0-2.208-.96-3.336-2.808-3.336-1.536 0-3.024.768-3.024 2.352V148zm19.632 0v-2.016h-.096c-.744 1.536-1.92 2.304-3.624 2.304-3.096 0-5.04-2.52-5.04-6.48 0-3.96 1.944-6.48 5.04-6.48 1.704 0 2.976.744 3.624 2.304h.096v-7.392h1.92V148h-1.92zm-3.192-1.44c1.752 0 3.192-.912 3.192-2.52v-4.608c0-1.368-1.44-2.376-3.192-2.376-2.16 0-3.504 1.488-3.504 3.696v2.112c0 2.208 1.344 3.696 3.504 3.696zm18.576 1.728c-2.28 0-3.792-.96-4.896-2.424l1.368-1.104c.96 1.2 2.112 1.896 3.672 1.896 1.632 0 2.592-.744 2.592-2.016 0-.96-.528-1.704-2.16-1.944l-.984-.144c-2.28-.336-3.984-1.272-3.984-3.576 0-2.448 1.896-3.648 4.416-3.648 1.992 0 3.312.744 4.32 1.992l-1.272 1.152c-.552-.768-1.608-1.512-3.192-1.512s-2.424.744-2.424 1.92c0 1.2.84 1.68 2.376 1.92l.96.144c2.736.408 3.792 1.608 3.792 3.48 0 2.4-1.752 3.864-4.584 3.864zm15.6-.288v-2.016h-.096c-.48 1.176-1.416 2.304-3.48 2.304-2.544 0-4.176-1.728-4.176-4.728v-7.944h1.92v7.608c0 2.208.984 3.336 2.832 3.336 1.512 0 3-.744 3-2.376v-8.568h1.92V148h-1.92zm9.72.288c-2.28 0-3.792-.96-4.896-2.424l1.368-1.104c.96 1.2 2.112 1.896 3.672 1.896 1.632 0 2.592-.744 2.592-2.016 0-.96-.528-1.704-2.16-1.944l-.984-.144c-2.28-.336-3.984-1.272-3.984-3.576 0-2.448 1.896-3.648 4.416-3.648 1.992 0 3.312.744 4.32 1.992l-1.272 1.152c-.552-.768-1.608-1.512-3.192-1.512s-2.424.744-2.424 1.92c0 1.2.84 1.68 2.376 1.92l.96.144c2.736.408 3.792 1.608 3.792 3.48 0 2.4-1.752 3.864-4.584 3.864zm7.968 4.512v-17.184H111v2.016h.096c.648-1.56 1.92-2.304 3.624-2.304 3.096 0 5.04 2.52 5.04 6.48 0 3.96-1.944 6.48-5.04 6.48-1.704 0-2.88-.768-3.624-2.304H111v6.816h-1.92zm5.112-6.24c2.16 0 3.504-1.488 3.504-3.696v-2.112c0-2.208-1.344-3.696-3.504-3.696-1.752 0-3.192 1.008-3.192 2.376v4.608c0 1.608 1.44 2.52 3.192 2.52zm13.464 1.728c-3.36 0-5.568-2.544-5.568-6.48 0-3.936 2.208-6.48 5.568-6.48 3.312 0 5.352 2.544 5.352 6.048v.912h-8.904v.576c0 2.136 1.368 3.744 3.672 3.744 1.56 0 2.76-.768 3.408-2.136l1.368.984c-.792 1.68-2.568 2.832-4.896 2.832zm0-11.352c-2.088 0-3.552 1.584-3.552 3.744v.168h6.84v-.264c0-2.184-1.32-3.648-3.288-3.648zM138.096 148h-1.92v-12.384h1.92v2.016h.096c.6-1.392 1.656-2.304 3.504-2.304 2.544 0 4.152 1.728 4.152 4.728V148h-1.92v-7.608c0-2.208-.96-3.336-2.808-3.336-1.536 0-3.024.768-3.024 2.352V148zm19.632 0v-2.016h-.096c-.744 1.536-1.92 2.304-3.624 2.304-3.096 0-5.04-2.52-5.04-6.48 0-3.96 1.944-6.48 5.04-6.48 1.704 0 2.976.744 3.624 2.304h.096v-7.392h1.92V148h-1.92zm-3.192-1.44c1.752 0 3.192-.912 3.192-2.52v-4.608c0-1.368-1.44-2.376-3.192-2.376-2.16 0-3.504 1.488-3.504 3.696v2.112c0 2.208 1.344 3.696 3.504 3.696zm13.848 1.728c-3.36 0-5.568-2.544-5.568-6.48 0-3.936 2.208-6.48 5.568-6.48 3.312 0 5.352 2.544 5.352 6.048v.912h-8.904v.576c0 2.136 1.368 3.744 3.672 3.744 1.56 0 2.76-.768 3.408-2.136l1.368.984c-.792 1.68-2.568 2.832-4.896 2.832zm0-11.352c-2.088 0-3.552 1.584-3.552 3.744v.168h6.84v-.264c0-2.184-1.32-3.648-3.288-3.648zM178.824 148h-1.92v-12.384h1.92v2.28h.12c.432-1.176 1.56-2.28 3.576-2.28h.744v1.92h-1.128c-2.064 0-3.312.888-3.312 2.064v8.4zm10.608.288c-2.28 0-3.792-.96-4.896-2.424l1.368-1.104c.96 1.2 2.112 1.896 3.672 1.896 1.632 0 2.592-.744 2.592-2.016 0-.96-.528-1.704-2.16-1.944l-.984-.144c-2.28-.336-3.984-1.272-3.984-3.576 0-2.448 1.896-3.648 4.416-3.648 1.992 0 3.312.744 4.32 1.992l-1.272 1.152c-.552-.768-1.608-1.512-3.192-1.512s-2.424.744-2.424 1.92c0 1.2.84 1.68 2.376 1.92l.96.144c2.736.408 3.792 1.608 3.792 3.48 0 2.4-1.752 3.864-4.584 3.864zm9.072 0c-1.008 0-1.464-.576-1.464-1.392v-.312c0-.816.456-1.392 1.464-1.392s1.464.576 1.464 1.392v.312c0 .816-.456 1.392-1.464 1.392z" fill="#3D3D3D"/></g></svg>