<?xml version="1.0" encoding="UTF-8"?>
<svg width="288px" height="288px" viewBox="0 0 288 288" version="1.1" xmlns="http://www.w3.org/2000/svg" xmlns:xlink="http://www.w3.org/1999/xlink">
    <!-- Generator: Sketch 51.2 (57519) - http://www.bohemiancoding.com/sketch -->
    <title>Keyshape proportions dont</title>
    <desc>Created with Sketch.</desc>
    <defs></defs>
    <g id="Page-1" stroke="none" stroke-width="1" fill="none" fill-rule="evenodd">
        <g id="Icons-Copy" transform="translate(-672.000000, -7011.000000)">
            <g id="Keyshape-proportions-dont" transform="translate(672.000000, 7011.000000)">
                <rect id="Rectangle-3" fill="#FFFFFF" x="0" y="0" width="288" height="288"></rect>
                <g id="Grid-01" transform="translate(51.500000, 51.000000)" stroke="#DCDCDC" stroke-linecap="square">
                    <g id="Vertical-lines" transform="translate(0.205100, 0.615299)">
                        <path d="M0.410199557,0 L0.410199557,183.769401" id="Line"></path>
                        <path d="M17.6385809,0 L17.6385809,183.769401" id="Line"></path>
                        <path d="M6.15299335,0 L6.15299335,183.769401" id="Line"></path>
                        <path d="M23.3813747,0 L23.3813747,183.769401" id="Line"></path>
                        <path d="M11.8957871,0 L11.8957871,183.769401" id="Line"></path>
                        <path d="M29.1241685,0 L29.1241685,183.769401" id="Line"></path>
                        <path d="M34.8669623,0 L34.8669623,183.769401" id="Line"></path>
                        <path d="M40.6097561,0 L40.6097561,183.769401" id="Line"></path>
                        <path d="M46.3525499,0 L46.3525499,183.769401" id="Line"></path>
                        <path d="M52.0953437,0 L52.0953437,183.769401" id="Line"></path>
                        <path d="M57.8381375,0 L57.8381375,183.769401" id="Line"></path>
                        <path d="M63.5809313,0 L63.5809313,183.769401" id="Line"></path>
                        <path d="M69.3237251,0 L69.3237251,183.769401" id="Line"></path>
                        <path d="M75.0665188,0 L75.0665188,183.769401" id="Line"></path>
                        <path d="M80.8093126,0 L80.8093126,183.769401" id="Line"></path>
                        <path d="M86.5521064,0 L86.5521064,183.769401" id="Line"></path>
                        <path d="M92.2949002,0 L92.2949002,183.769401" id="Line"></path>
                        <path d="M98.037694,0 L98.037694,183.769401" id="Line"></path>
                        <path d="M103.780488,0 L103.780488,183.769401" id="Line"></path>
                        <path d="M109.523282,0 L109.523282,183.769401" id="Line"></path>
                        <path d="M115.266075,0 L115.266075,183.769401" id="Line"></path>
                        <path d="M121.008869,0 L121.008869,183.769401" id="Line"></path>
                        <path d="M126.751663,0 L126.751663,183.769401" id="Line"></path>
                        <path d="M132.494457,0 L132.494457,183.769401" id="Line"></path>
                        <path d="M138.237251,0 L138.237251,183.769401" id="Line"></path>
                        <path d="M143.980044,0 L143.980044,183.769401" id="Line"></path>
                        <path d="M149.722838,0 L149.722838,183.769401" id="Line"></path>
                        <path d="M155.465632,0 L155.465632,183.769401" id="Line"></path>
                        <path d="M161.208426,0 L161.208426,183.769401" id="Line"></path>
                        <path d="M166.95122,0 L166.95122,183.769401" id="Line"></path>
                        <path d="M172.694013,0 L172.694013,183.769401" id="Line"></path>
                        <path d="M178.436807,0 L178.436807,183.769401" id="Line"></path>
                        <path d="M184.179601,0 L184.179601,183.769401" id="Line"></path>
                    </g>
                    <g id="Horizontal" transform="translate(92.384701, 92.705100) rotate(90.000000) translate(-92.384701, -92.705100) translate(-0.115299, 0.705100)">
                        <path d="M0.410199557,0 L0.410199557,183.769401" id="Line"></path>
                        <path d="M17.6385809,0 L17.6385809,183.769401" id="Line"></path>
                        <path d="M6.15299335,0 L6.15299335,183.769401" id="Line"></path>
                        <path d="M23.3813747,0 L23.3813747,183.769401" id="Line"></path>
                        <path d="M11.8957871,0 L11.8957871,183.769401" id="Line"></path>
                        <path d="M29.1241685,0 L29.1241685,183.769401" id="Line"></path>
                        <path d="M34.8669623,0 L34.8669623,183.769401" id="Line"></path>
                        <path d="M40.6097561,0 L40.6097561,183.769401" id="Line"></path>
                        <path d="M46.3525499,0 L46.3525499,183.769401" id="Line"></path>
                        <path d="M52.0953437,0 L52.0953437,183.769401" id="Line"></path>
                        <path d="M57.8381375,0 L57.8381375,183.769401" id="Line"></path>
                        <path d="M63.5809313,0 L63.5809313,183.769401" id="Line"></path>
                        <path d="M69.3237251,0 L69.3237251,183.769401" id="Line"></path>
                        <path d="M75.0665188,0 L75.0665188,183.769401" id="Line"></path>
                        <path d="M80.8093126,0 L80.8093126,183.769401" id="Line"></path>
                        <path d="M86.5521064,0 L86.5521064,183.769401" id="Line"></path>
                        <path d="M92.2949002,0 L92.2949002,183.769401" id="Line"></path>
                        <path d="M98.037694,0 L98.037694,183.769401" id="Line"></path>
                        <path d="M103.780488,0 L103.780488,183.769401" id="Line"></path>
                        <path d="M109.523282,0 L109.523282,183.769401" id="Line"></path>
                        <path d="M115.266075,0 L115.266075,183.769401" id="Line"></path>
                        <path d="M121.008869,0 L121.008869,183.769401" id="Line"></path>
                        <path d="M126.751663,0 L126.751663,183.769401" id="Line"></path>
                        <path d="M132.494457,0 L132.494457,183.769401" id="Line"></path>
                        <path d="M138.237251,0 L138.237251,183.769401" id="Line"></path>
                        <path d="M143.980044,0 L143.980044,183.769401" id="Line"></path>
                        <path d="M149.722838,0 L149.722838,183.769401" id="Line"></path>
                        <path d="M155.465632,0 L155.465632,183.769401" id="Line"></path>
                        <path d="M161.208426,0 L161.208426,183.769401" id="Line"></path>
                        <path d="M166.95122,0 L166.95122,183.769401" id="Line"></path>
                        <path d="M172.694013,0 L172.694013,183.769401" id="Line"></path>
                        <path d="M178.436807,0 L178.436807,183.769401" id="Line"></path>
                        <path d="M184.179601,0 L184.179601,183.769401" id="Line"></path>
                    </g>
                </g>
                <polygon id="Rectangle-7" fill="#95C0FF" opacity="0.600000024" points="74.9487751 74.9487751 213.051225 74.9487751 213.051225 213.051225 74.9487751 213.051225"></polygon>
                <g id="icon/navigation/down-to-bottom/24-copy-13" transform="translate(74.000000, 74.000000)" fill="#000000" fill-rule="nonzero">
                    <g id="email" transform="translate(0.500000, 0.500000)">
                        <path d="M19.7435297,12.2546061 L69.5,66.7497878 L119.129996,12.3931259 C105.172489,12.3434448 72.0436674,12.2972716 19.7435297,12.2546061 Z M126.743909,21.5545025 L73.930913,79.3973075 C73.7440994,79.5957907 73.7440994,79.5957907 73.5456162,79.7826043 C71.0984905,82.0169364 67.3034192,81.8444332 65.069087,79.3973075 L12.386987,21.6978646 C12.3373776,37.3079223 12.291307,72.2590424 12.2487752,126.551225 C12.2487752,126.624863 50.3495918,126.691529 126.551225,126.751225 C126.621869,126.751225 126.686097,91.6856507 126.743909,21.5545025 Z M12.4487751,0.448775056 L126.551225,0.448775056 C133.178642,0.448775056 138.551225,5.82135806 138.551225,12.4487751 L138.551225,126.551225 C138.551225,133.178642 133.178642,138.551225 126.551225,138.551225 L12.4487751,138.551225 C5.82135806,138.551225 0.448775056,133.178642 0.448775056,126.551225 L0.448775056,12.4487751 C0.448775056,5.82135806 5.82135806,0.448775056 12.4487751,0.448775056 Z" id="Combined-Shape"></path>
                    </g>
                </g>
            </g>
        </g>
    </g>
</svg>