<?xml version="1.0" encoding="UTF-8"?><svg width="448px" height="448px" viewBox="0 0 448 448" version="1.1" xmlns="http://www.w3.org/2000/svg" xmlns:xlink="http://www.w3.org/1999/xlink"><!--Generator: Sketch 50.2 (55047) - http://www.bohemiancoding.com/sketch--><title>Style slab characteristics</title><desc>Created with Sketch.</desc><defs/><g id="style-slab-characteristics_svg__Desktop" stroke="none" stroke-width="1" fill="none" fill-rule="evenodd"><g id="style-slab-characteristics_svg__Icons_Desktop_1312px" transform="translate(-832.000000, -8664.000000)"><g id="style-slab-characteristics_svg__Style-slab-characteristics" transform="translate(832.000000, 8664.000000)"><rect id="style-slab-characteristics_svg__Rectangle-3" fill="#000000" x="0" y="0" width="448" height="448"/><g id="style-slab-characteristics_svg__Grid-01" opacity="0.25" transform="translate(87.927425, 87.927425)" stroke-linecap="square"><g id="style-slab-characteristics_svg__Vertical-lines" transform="translate(0.300604, 0.901813)" stroke="#DCDCDC"><path d="M0.601208758,0 L0.601208758,269.341523" id="style-slab-characteristics_svg__Line"/><path d="M25.8519766,0 L25.8519766,269.341523" id="style-slab-characteristics_svg__Line"/><path d="M9.01813136,0 L9.01813136,269.341523" id="style-slab-characteristics_svg__Line"/><path d="M34.2688992,0 L34.2688992,269.341523" id="style-slab-characteristics_svg__Line"/><path d="M17.435054,0 L17.435054,269.341523" id="style-slab-characteristics_svg__Line"/><path d="M42.6858218,0 L42.6858218,269.341523" id="style-slab-characteristics_svg__Line"/><path d="M51.1027444,0 L51.1027444,269.341523" id="style-slab-characteristics_svg__Line"/><path d="M59.519667,0 L59.519667,269.341523" id="style-slab-characteristics_svg__Line"/><path d="M67.9365896,0 L67.9365896,269.341523" id="style-slab-characteristics_svg__Line"/><path d="M76.3535122,0 L76.3535122,269.341523" id="style-slab-characteristics_svg__Line"/><path d="M84.7704348,0 L84.7704348,269.341523" id="style-slab-characteristics_svg__Line"/><path d="M93.1873574,0 L93.1873574,269.341523" id="style-slab-characteristics_svg__Line"/><path d="M101.60428,0 L101.60428,269.341523" id="style-slab-characteristics_svg__Line"/><path d="M110.021203,0 L110.021203,269.341523" id="style-slab-characteristics_svg__Line"/><path d="M118.438125,0 L118.438125,269.341523" id="style-slab-characteristics_svg__Line"/><path d="M126.855048,0 L126.855048,269.341523" id="style-slab-characteristics_svg__Line"/><path d="M135.27197,0 L135.27197,269.341523" id="style-slab-characteristics_svg__Line"/><path d="M143.688893,0 L143.688893,269.341523" id="style-slab-characteristics_svg__Line"/><path d="M152.105816,0 L152.105816,269.341523" id="style-slab-characteristics_svg__Line"/><path d="M160.522738,0 L160.522738,269.341523" id="style-slab-characteristics_svg__Line"/><path d="M168.939661,0 L168.939661,269.341523" id="style-slab-characteristics_svg__Line"/><path d="M177.356583,0 L177.356583,269.341523" id="style-slab-characteristics_svg__Line"/><path d="M185.773506,0 L185.773506,269.341523" id="style-slab-characteristics_svg__Line"/><path d="M194.190429,0 L194.190429,269.341523" id="style-slab-characteristics_svg__Line"/><path d="M202.607351,0 L202.607351,269.341523" id="style-slab-characteristics_svg__Line"/><path d="M211.024274,0 L211.024274,269.341523" id="style-slab-characteristics_svg__Line"/><path d="M219.441197,0 L219.441197,269.341523" id="style-slab-characteristics_svg__Line"/><path d="M227.858119,0 L227.858119,269.341523" id="style-slab-characteristics_svg__Line"/><path d="M236.275042,0 L236.275042,269.341523" id="style-slab-characteristics_svg__Line"/><path d="M244.691964,0 L244.691964,269.341523" id="style-slab-characteristics_svg__Line"/><path d="M253.108887,0 L253.108887,269.341523" id="style-slab-characteristics_svg__Line"/><path d="M261.52581,0 L261.52581,269.341523" id="style-slab-characteristics_svg__Line"/><path d="M269.942732,0 L269.942732,269.341523" id="style-slab-characteristics_svg__Line"/></g><g id="style-slab-characteristics_svg__Horizontal" transform="translate(135.243337, 135.800604) rotate(90.000000) translate(-135.243337, -135.800604) translate(-0.256663, 0.800604)" stroke="#F3F3F3"><path d="M0.601208758,0 L0.601208758,269.341523" id="style-slab-characteristics_svg__Line"/><path d="M25.8519766,0 L25.8519766,269.341523" id="style-slab-characteristics_svg__Line"/><path d="M9.01813136,0 L9.01813136,269.341523" id="style-slab-characteristics_svg__Line"/><path d="M34.2688992,0 L34.2688992,269.341523" id="style-slab-characteristics_svg__Line"/><path d="M17.435054,0 L17.435054,269.341523" id="style-slab-characteristics_svg__Line"/><path d="M42.6858218,0 L42.6858218,269.341523" id="style-slab-characteristics_svg__Line"/><path d="M51.1027444,0 L51.1027444,269.341523" id="style-slab-characteristics_svg__Line"/><path d="M59.519667,0 L59.519667,269.341523" id="style-slab-characteristics_svg__Line"/><path d="M67.9365896,0 L67.9365896,269.341523" id="style-slab-characteristics_svg__Line"/><path d="M76.3535122,0 L76.3535122,269.341523" id="style-slab-characteristics_svg__Line"/><path d="M84.7704348,0 L84.7704348,269.341523" id="style-slab-characteristics_svg__Line"/><path d="M93.1873574,0 L93.1873574,269.341523" id="style-slab-characteristics_svg__Line"/><path d="M101.60428,0 L101.60428,269.341523" id="style-slab-characteristics_svg__Line"/><path d="M110.021203,0 L110.021203,269.341523" id="style-slab-characteristics_svg__Line"/><path d="M118.438125,0 L118.438125,269.341523" id="style-slab-characteristics_svg__Line"/><path d="M126.855048,0 L126.855048,269.341523" id="style-slab-characteristics_svg__Line"/><path d="M135.27197,0 L135.27197,269.341523" id="style-slab-characteristics_svg__Line"/><path d="M143.688893,0 L143.688893,269.341523" id="style-slab-characteristics_svg__Line"/><path d="M152.105816,0 L152.105816,269.341523" id="style-slab-characteristics_svg__Line"/><path d="M160.522738,0 L160.522738,269.341523" id="style-slab-characteristics_svg__Line"/><path d="M168.939661,0 L168.939661,269.341523" id="style-slab-characteristics_svg__Line"/><path d="M177.356583,0 L177.356583,269.341523" id="style-slab-characteristics_svg__Line"/><path d="M185.773506,0 L185.773506,269.341523" id="style-slab-characteristics_svg__Line"/><path d="M194.190429,0 L194.190429,269.341523" id="style-slab-characteristics_svg__Line"/><path d="M202.607351,0 L202.607351,269.341523" id="style-slab-characteristics_svg__Line"/><path d="M211.024274,0 L211.024274,269.341523" id="style-slab-characteristics_svg__Line"/><path d="M219.441197,0 L219.441197,269.341523" id="style-slab-characteristics_svg__Line"/><path d="M227.858119,0 L227.858119,269.341523" id="style-slab-characteristics_svg__Line"/><path d="M236.275042,0 L236.275042,269.341523" id="style-slab-characteristics_svg__Line"/><path d="M244.691964,0 L244.691964,269.341523" id="style-slab-characteristics_svg__Line"/><path d="M253.108887,0 L253.108887,269.341523" id="style-slab-characteristics_svg__Line"/><path d="M261.52581,0 L261.52581,269.341523" id="style-slab-characteristics_svg__Line"/><path d="M269.942732,0 L269.942732,269.341523" id="style-slab-characteristics_svg__Line"/></g></g><g id="style-slab-characteristics_svg__icon/image/time/32" transform="translate(121.000000, 105.000000)"><g id="style-slab-characteristics_svg__delete" transform="translate(0.750000, 0.875000)"><path d="M67.875,185.75 L84.75,185.75 L84.75,84.5 L67.875,84.5 L67.875,185.75 Z M118.5,185.75 L135.375,185.75 L135.375,84.5 L118.5,84.5 L118.5,185.75 Z M17.25,50.75 L17.25,219.5 C17.25,228.82 24.806,236.375 34.125,236.375 L169.125,236.375 C178.444,236.375 186,228.82 186,219.5 L186,50.75 L187,42.313 L186,33.875 L17.25,33.875 L16.25,42.313 L17.25,50.75 Z M34.125,219.5 L169.125,219.5 L169.125,50.75 L34.125,50.75 L34.125,219.5 Z M67.875,17 L135.375,17 L135.375,0.125 L67.875,0.125 L67.875,17 Z" id="style-slab-characteristics_svg__Fill-1" fill="#FFFFFF"/><path d="M0.370117188,50.749 L0.370117188,33.875 L17.2451172,33.875 L17.2451172,50.749 L0.370117188,50.749 Z M185.995117,50.749 L185.995117,33.875 L202.870117,33.875 L202.870117,50.749 L185.995117,50.749 Z" id="style-slab-characteristics_svg__Combined-Shape" fill="#006AFF"/></g></g></g></g></g></svg>