<?xml version="1.0" encoding="utf-8"?>
<!-- Generator: Adobe Illustrator 20.0.0, SVG Export Plug-In . SVG Version: 6.00 Build 0)  -->
<svg version="1.1" id="Layer_1" xmlns="http://www.w3.org/2000/svg" xmlns:xlink="http://www.w3.org/1999/xlink" x="0px" y="0px"
	 width="548px" height="548px" viewBox="0 0 548 548" style="enable-background:new 0 0 548 548;" xml:space="preserve">
<style type="text/css">
	.st0{fill:#FFFFFF;}
	.st1{fill:none;stroke:#DCDCDC;stroke-linecap:square;}
	.st2{opacity:0.5;fill:#97C1FF;enable-background:new    ;}
	.st3{fill:none;}
</style>
<title>Padding do</title>
<desc>Created with Sketch.</desc>
<g id="Page-1">
	<g id="Typography_Mobile_320px-Copy-5" transform="translate(-16.000000, -36.000000)">
		<g id="Padding-do" transform="translate(16.000000, 36.000000)">
			<rect id="Rectangle-3" class="st0" width="548" height="548"/>
			<g id="Group-30" transform="translate(51.000000, 51.000000)">
				<g id="Group-3" transform="translate(0.500000, 0.500000)">
					<g id="Grid-01">
						<g id="Vertical-lines" transform="translate(0.205100, 0.615299)">
							<path id="Line" class="st1" d="M47.5,47v349.7"/>
							<path id="Line_1_" class="st1" d="M80.2,47v349.7"/>
							<path id="Line_2_" class="st1" d="M58.4,47v349.7"/>
							<path id="Line_3_" class="st1" d="M91.2,47v349.7"/>
							<path id="Line_4_" class="st1" d="M69.3,47v349.7"/>
							<path id="Line_5_" class="st1" d="M102.1,47v349.7"/>
							<path id="Line_6_" class="st1" d="M113,47v349.7"/>
							<path id="Line_7_" class="st1" d="M123.9,47v349.7"/>
							<path id="Line_8_" class="st1" d="M134.9,47v349.7"/>
							<path id="Line_9_" class="st1" d="M145.8,47v349.7"/>
							<path id="Line_10_" class="st1" d="M156.7,47v349.7"/>
							<path id="Line_11_" class="st1" d="M167.7,47v349.7"/>
							<path id="Line_12_" class="st1" d="M178.6,47v349.7"/>
							<path id="Line_13_" class="st1" d="M189.5,47v349.7"/>
							<path id="Line_14_" class="st1" d="M200.4,47v349.7"/>
							<path id="Line_15_" class="st1" d="M211.4,47v349.7"/>
							<path id="Line_16_" class="st1" d="M222.3,47v349.7"/>
							<path id="Line_17_" class="st1" d="M233.2,47v349.7"/>
							<path id="Line_18_" class="st1" d="M244.1,47v349.7"/>
							<path id="Line_19_" class="st1" d="M255.1,47v349.7"/>
							<path id="Line_20_" class="st1" d="M266,47v349.7"/>
							<path id="Line_21_" class="st1" d="M276.9,47v349.7"/>
							<path id="Line_22_" class="st1" d="M287.9,47v349.7"/>
							<path id="Line_23_" class="st1" d="M298.8,47v349.7"/>
							<path id="Line_24_" class="st1" d="M309.7,47v349.7"/>
							<path id="Line_25_" class="st1" d="M320.6,47v349.7"/>
							<path id="Line_26_" class="st1" d="M331.6,47v349.7"/>
							<path id="Line_27_" class="st1" d="M342.5,47v349.7"/>
							<path id="Line_28_" class="st1" d="M353.4,47v349.7"/>
							<path id="Line_29_" class="st1" d="M364.3,47v349.7"/>
							<path id="Line_30_" class="st1" d="M375.3,47v349.7"/>
							<path id="Line_31_" class="st1" d="M386.2,47v349.7"/>
							<path id="Line_32_" class="st1" d="M397.1,47v349.7"/>
						</g>
						
							<g id="Horizontal" transform="translate(92.384701, 92.705100) rotate(90.000000) translate(-92.384701, -92.705100) translate(-0.115299, 0.705100)">
							<path id="Line_33_" class="st1" d="M47.5-213v349.7"/>
							<path id="Line_34_" class="st1" d="M80.2-213v349.7"/>
							<path id="Line_35_" class="st1" d="M58.4-213v349.7"/>
							<path id="Line_36_" class="st1" d="M91.2-213v349.7"/>
							<path id="Line_37_" class="st1" d="M69.3-213v349.7"/>
							<path id="Line_38_" class="st1" d="M102.1-213v349.7"/>
							<path id="Line_39_" class="st1" d="M113-213v349.7"/>
							<path id="Line_40_" class="st1" d="M123.9-213v349.7"/>
							<path id="Line_41_" class="st1" d="M134.9-213v349.7"/>
							<path id="Line_42_" class="st1" d="M145.8-213v349.7"/>
							<path id="Line_43_" class="st1" d="M156.7-213v349.7"/>
							<path id="Line_44_" class="st1" d="M167.7-213v349.7"/>
							<path id="Line_45_" class="st1" d="M178.6-213v349.7"/>
							<path id="Line_46_" class="st1" d="M189.5-213v349.7"/>
							<path id="Line_47_" class="st1" d="M200.4-213v349.7"/>
							<path id="Line_48_" class="st1" d="M211.4-213v349.7"/>
							<path id="Line_49_" class="st1" d="M222.3-213v349.7"/>
							<path id="Line_50_" class="st1" d="M233.2-213v349.7"/>
							<path id="Line_51_" class="st1" d="M244.1-213v349.7"/>
							<path id="Line_52_" class="st1" d="M255.1-213v349.7"/>
							<path id="Line_53_" class="st1" d="M266-213v349.7"/>
							<path id="Line_54_" class="st1" d="M276.9-213v349.7"/>
							<path id="Line_55_" class="st1" d="M287.9-213v349.7"/>
							<path id="Line_56_" class="st1" d="M298.8-213v349.7"/>
							<path id="Line_57_" class="st1" d="M309.7-213v349.7"/>
							<path id="Line_58_" class="st1" d="M320.6-213v349.7"/>
							<path id="Line_59_" class="st1" d="M331.6-213v349.7"/>
							<path id="Line_60_" class="st1" d="M342.5-213v349.7"/>
							<path id="Line_61_" class="st1" d="M353.4-213v349.7"/>
							<path id="Line_62_" class="st1" d="M364.3-213v349.7"/>
							<path id="Line_63_" class="st1" d="M375.3-213v349.7"/>
							<path id="Line_64_" class="st1" d="M386.2-213v349.7"/>
							<path id="Line_65_" class="st1" d="M397.1-213v349.7"/>
						</g>
					</g>
					<path id="Combined-Shape" class="st2" d="M375.1,69.9H69.9v305.2h305.2V69.9z M397.7,69.9v305.2v22.6H47.3v-22.6V69.9V47.3
						h350.5V69.9z"/>
				</g>
				<g id="icon_x2F_navigation_x2F_down-to-bottom_x2F_24-copy-13" transform="translate(1.000000, 1.000000)">
					<g id="Group">
						<rect id="transparent-rectangle" x="46.9" y="46.9" class="st3" width="350.1" height="350.1"/>
					</g>
				</g>
			</g>
		</g>
	</g>
</g>
</svg>
