<svg xmlns="http://www.w3.org/2000/svg" width="320" height="320" viewBox="0 0 320 320"><defs><style>.a{fill:#a6c8ff;}</style></defs><title>philosophy-rebus</title><rect class="a" width="320" height="320"/><path d="M154.34,147.59a4.83,4.83,0,1,0-4.82-4.83,4.84,4.84,0,0,0,4.82,4.83"/><path d="M166.41,147.59a4.83,4.83,0,1,0-4.82-4.83,4.79,4.79,0,0,0,4.82,4.83"/><path d="M133.66,161.24c-3.32,1.45-5.66,4.07-5.66,8.07a8.4,8.4,0,0,0,8.41,8.41c4.42,0,7-3,8.14-6.2l5.52-17.45Z"/><path d="M187,161.24l-16.27-7.17,5.52,17.45c1,3.1,3.65,6.2,8.13,6.2h0a8.41,8.41,0,0,0,8.42-8.41c0-4-2.49-6.55-5.8-8.07"/><path d="M151,155.66h18.82a10.38,10.38,0,0,0-18.82,0"/><rect x="149.93" y="160.48" width="20.83" height="5.59"/><rect x="149.93" y="170.9" width="20.83" height="5.59"/><path d="M160.34,187.24a10.4,10.4,0,0,0,9.38-6H150.9a10.54,10.54,0,0,0,9.44,6"/><path d="M160.48,120.14a6.42,6.42,0,0,0,6.35-6.35,6.29,6.29,0,0,0-6.35-6.34,6.41,6.41,0,0,0-6.34,6.34,6.29,6.29,0,0,0,6.34,6.35"/><path d="M160.48,131.31c11.38,0,21.18-7.31,25.31-17.65-4.13-10.35-14-17.66-25.31-17.66s-21.17,7.31-25.31,17.66a27.26,27.26,0,0,0,25.31,17.65m0-32a14.42,14.42,0,1,1-14.2,14.41,14.28,14.28,0,0,1,14.2-14.41"/><path d="M160.48,88.14a30.66,30.66,0,0,1,23.73,11.17V94.48a26.74,26.74,0,0,0-47.45,0v4.83a30.76,30.76,0,0,1,23.72-11.17"/><rect x="134.28" y="237.1" width="16.34" height="2.97"/><rect x="134.28" y="230.76" width="16.34" height="2.97"/><rect x="140.83" y="224.48" width="9.86" height="2.97"/><rect x="140.83" y="218.21" width="9.86" height="2.97"/><rect x="170.21" y="237.1" width="16.34" height="2.97"/><rect x="170.21" y="230.76" width="16.34" height="2.97"/><rect x="170.21" y="224.48" width="9.86" height="2.97"/><rect x="170.21" y="218.21" width="9.86" height="2.97"/><polygon points="170.21 214.9 179.93 214.9 179.93 211.93 170.21 211.93 161.66 211.93 160.62 214.9 169.17 214.9 170.21 212 170.21 214.9"/><polygon points="159.17 211.93 150.62 211.93 140.83 211.93 140.83 214.9 150.62 214.9 150.62 212 151.66 214.9 160.21 214.9 159.17 211.93"/><polygon points="179.93 205.59 163.79 205.59 162.76 208.62 179.93 208.62 179.93 205.59"/><polygon points="167.03 196 186.48 196 186.48 193.03 168.07 193.03 167.03 196"/><polygon points="160.34 240.07 161.45 237.1 159.38 237.1 160.34 240.07"/><polygon points="158.14 233.79 162.55 233.79 163.66 230.76 157.17 230.76 158.14 233.79"/><polygon points="155.93 227.45 164.76 227.45 165.86 224.48 154.97 224.48 155.93 227.45"/><polygon points="153.79 221.17 166.97 221.17 168 218.21 152.76 218.21 153.79 221.17"/><polygon points="156.97 205.59 140.83 205.59 140.83 208.62 158 208.62 156.97 205.59"/><polygon points="164.97 202.28 186.48 202.28 186.48 199.31 165.93 199.31 164.97 202.28"/><polygon points="134.28 202.28 155.86 202.28 154.9 199.31 134.28 199.31 134.28 202.28"/><polygon points="134.28 193.03 134.28 196 153.66 196 152.69 193.03 134.28 193.03"/></svg>