<svg id="Layer_1" data-name="Layer 1" xmlns="http://www.w3.org/2000/svg" viewBox="0 0 576 768"><defs><style>.cls-4{fill:none;stroke:#000;stroke-linecap:round;stroke-linejoin:round;stroke-width:5.66px}</style></defs><path fill="#fff" d="M0 .01h576v768H0z"/><path fill="#bb8eff" d="M0 .01h576v558.36H0z"/><path fill="none" d="M288.98 271.36h251.73v251.73H288.98z"/><g id="london--expanded-base"><circle class="cls-4" cx="414.85" cy="397.22" r="86.53"/><circle class="cls-4" cx="414.85" cy="397.22" r="102.27"/><circle cx="414.85" cy="279.22" r="3.93"/><circle cx="414.85" cy="515.22" r="3.93"/><circle cx="384.31" cy="283.24" r="3.93"/><circle cx="355.85" cy="295.03" r="3.93"/><circle cx="473.85" cy="499.41" r="3.93"/><circle cx="331.41" cy="313.79" r="3.93"/><circle cx="498.29" cy="480.66" r="3.93"/><circle cx="312.66" cy="338.22" r="3.93"/><circle cx="517.04" cy="456.22" r="3.93"/><circle cx="300.87" cy="366.68" r="3.93"/><circle cx="528.83" cy="427.76" r="3.93"/><circle cx="296.85" cy="397.22" r="3.93"/><circle cx="532.85" cy="397.22" r="3.93"/><circle cx="300.87" cy="427.76" r="3.93"/><circle cx="528.83" cy="366.68" r="3.93"/><circle cx="312.66" cy="456.22" r="3.93"/><circle cx="517.04" cy="338.22" r="3.93"/><circle cx="331.41" cy="480.66" r="3.93"/><circle cx="498.29" cy="313.79" r="3.93"/><circle cx="355.85" cy="499.41" r="3.93"/><circle cx="473.85" cy="295.03" r="3.93"/><circle cx="445.39" cy="283.24" r="3.93"/><path d="M449.05 514.49l-31.46-118c-.66-2.47-4.81-2.47-5.47 0l-31.47 118a2.59 2.59 0 000 .73h5.71l28.54-107 28.54 107h5.71a2.59 2.59 0 00-.1-.73z"/></g><path d="M323.1 684.25h-21.06v26.8H288v20.42h49.14v-20.42H323.1v-26.8zM302.04 670.85h21.06v7.02h-21.06zM302.04 657.45h21.06v7.02h-21.06zM288 644.04h49.14v7.02H288zM288 630.64h49.14v7.02H288zM358.2 677.87h55a26.9 26.9 0 005.85-7h-39.79v-19.81h42.62a26.88 26.88 0 00-2.82-7h-29.59v-6.38h24.46a26.68 26.68 0 00-18.08-7h-51.69v20.42h14z"/><path d="M399 664.47h22.68a27.09 27.09 0 00.94-7H399zM358.2 697.65h21.06v7.02H358.2z"/><path d="M413.31 684.25H358.2v7H399v19.81h-54.87v7h45.21v6.35h-45.18v6.95l51.69.07a26.8 26.8 0 0026.8-26.8v-.06a26.76 26.76 0 00-9.34-20.32zM428.4 724.45h35.1v7.02h-35.1zM428.4 711.05h35.1v7.02h-35.1zM442.44 697.65h21.06v7.02h-21.06zM442.44 684.25h21.06v7.02h-21.06zM505.62 677.87h21.06v-7.02h-40.15l-1.89 5.43-16.04-45.64h-40.2v20.42h14.04v26.81H463.5v-6.38l2.26 6.38h37.59l2.27-6.45v6.45z"/><path d="M526.68 657.45h-35.49l-2.44 7.02h37.93v-7.02zM500.51 630.64l-2.44 7.02h42.65v-7.02h-40.21zM468 684.25l2.47 7.02h14.09v6.38h-11.85l2.46 7.02h9.39v6.38h-7.15l2.47 7.02h4.68v6.38h-2.44l2.44 6.95 16.59-47.15H468zM493.41 651.06h47.31v-7.02h-44.87l-2.44 7.02zM526.68 684.25h-21.06v47.22h35.1v-20.42h-14.04v-26.8zM36.08 717.46v-.93h1.3v-7.4h-1.3v-.93h3.71v.93h-1.3v7.4h1.3v.93zM41.82 708.2h3.81a2.48 2.48 0 011.81.65 2.35 2.35 0 01.65 1.74 2.48 2.48 0 01-.14.87 1.8 1.8 0 01-.37.59 1.62 1.62 0 01-.5.35 2.7 2.7 0 01-.49.15v.08a1.86 1.86 0 011.16.51 2.23 2.23 0 01.47.66 2.26 2.26 0 01.19 1 3.06 3.06 0 01-.18 1.06 2.48 2.48 0 01-.5.85 2.31 2.31 0 01-.75.56 2.18 2.18 0 01-1 .21h-4.2zm1.11 4h2.56a1.51 1.51 0 001-.34 1.2 1.2 0 00.37-1v-.45a1.21 1.21 0 00-.37-1 1.51 1.51 0 00-1-.33h-2.56zm0 4.27h2.75a1.67 1.67 0 001.13-.37 1.36 1.36 0 00.41-1.07v-.45a1.38 1.38 0 00-.41-1.07 1.67 1.67 0 00-1.13-.36h-2.75zM57.7 709.66h-.07l-.78 1.55-2.22 4-2.21-4-.79-1.55h-.06v7.8h-1.09v-9.26H52l2.65 5h.06l2.67-5h1.43v9.26H57.7zM64.17 708.2h3.49a4.72 4.72 0 011.67.29 3.47 3.47 0 011.28.87 3.94 3.94 0 01.83 1.45 7.18 7.18 0 010 4 4 4 0 01-.83 1.45 3.47 3.47 0 01-1.28.87 4.72 4.72 0 01-1.67.29h-3.49zm3.49 7.47a2 2 0 001.42-.51 2.18 2.18 0 00.51-1.62v-1.43a2.22 2.22 0 00-.51-1.62 2 2 0 00-1.42-.5h-1.48v5.68zM76.21 717.62a3.74 3.74 0 01-1.42-.26 2.92 2.92 0 01-1.7-1.88 4.75 4.75 0 01-.22-1.51 4.92 4.92 0 01.21-1.49 3.13 3.13 0 01.63-1.15 2.86 2.86 0 011-.74 3.59 3.59 0 011.39-.26 3.34 3.34 0 011.48.3 2.72 2.72 0 011 .78 3.17 3.17 0 01.57 1.13 5 5 0 01.18 1.35v.58H74.9v.11a1.35 1.35 0 001.54 1.48 1.86 1.86 0 001-.24 4 4 0 00.72-.58l1 1.22a3.08 3.08 0 01-1.21.85 4.57 4.57 0 01-1.74.31zm0-5.84a1.15 1.15 0 00-.93.39 1.52 1.52 0 00-.34 1v.11h2.44v-.12a1.72 1.72 0 00-.29-1 1 1 0 00-.92-.38zM82.11 717.46l-2.28-7h1.94l.86 2.82.65 2.52h.11l.65-2.52.83-2.82h1.86l-2.28 7zM90.56 717.62a3.74 3.74 0 01-1.42-.26 2.92 2.92 0 01-1.7-1.88 4.75 4.75 0 01-.22-1.51 4.92 4.92 0 01.21-1.49 3.13 3.13 0 01.63-1.15 2.86 2.86 0 011-.74 3.59 3.59 0 011.39-.26 3.34 3.34 0 011.48.3 2.72 2.72 0 011 .78 3.17 3.17 0 01.57 1.13 5 5 0 01.18 1.35v.58h-4.43v.11a1.35 1.35 0 001.54 1.48 1.84 1.84 0 001-.24 4 4 0 00.72-.58l1 1.22a3.08 3.08 0 01-1.21.85 4.57 4.57 0 01-1.74.31zm0-5.84a1.15 1.15 0 00-.93.39 1.52 1.52 0 00-.34 1v.11h2.44v-.12a1.72 1.72 0 00-.29-1 1 1 0 00-.92-.38zM97.06 717.46a2 2 0 01-1.48-.49 2 2 0 01-.47-1.42v-7.91h2v8.29H98v1.53zM102 717.62a3.5 3.5 0 01-1.38-.26 2.66 2.66 0 01-1-.73 3.21 3.21 0 01-.64-1.15 5.07 5.07 0 010-3 3.21 3.21 0 01.64-1.15 2.75 2.75 0 011-.72 3.77 3.77 0 012.75 0 2.75 2.75 0 011 .72 3.21 3.21 0 01.64 1.15 5.07 5.07 0 010 3 3.21 3.21 0 01-.64 1.15 2.66 2.66 0 01-1 .73 3.49 3.49 0 01-1.37.26zm0-1.56a1.15 1.15 0 00.9-.35 1.51 1.51 0 00.31-1v-1.41a1.51 1.51 0 00-.31-1 1.35 1.35 0 00-1.81 0 1.51 1.51 0 00-.32 1v1.41a1.51 1.51 0 00.32 1 1.16 1.16 0 00.91.35zM106.61 710.49h2v1.17h.07a1.6 1.6 0 01.67-.95 2 2 0 011.2-.38 2.32 2.32 0 012 .93 5.74 5.74 0 010 5.42 2.32 2.32 0 01-2 .94 2.27 2.27 0 01-.65-.1 2 2 0 01-.55-.28 1.72 1.72 0 01-.42-.43 1.67 1.67 0 01-.25-.52h-.07v3.82h-2zm3.25 5.53a1.2 1.2 0 00.92-.39 1.49 1.49 0 00.37-1v-1.21a1.49 1.49 0 00-.37-1 1.2 1.2 0 00-.92-.39 1.5 1.5 0 00-.92.27.87.87 0 00-.37.75v2a.87.87 0 00.37.75 1.5 1.5 0 00.92.2zM117.58 717.62a3.74 3.74 0 01-1.42-.26 2.83 2.83 0 01-1-.73 3 3 0 01-.65-1.15 4.75 4.75 0 01-.22-1.51 4.92 4.92 0 01.21-1.49 3.13 3.13 0 01.63-1.15 2.86 2.86 0 011-.74 3.55 3.55 0 011.39-.26 3.37 3.37 0 011.48.3 2.8 2.8 0 011 .78 3.17 3.17 0 01.57 1.13 5 5 0 01.18 1.35v.58h-4.47v.11a1.51 1.51 0 00.37 1.08 1.48 1.48 0 001.16.4 1.87 1.87 0 001-.24 4.29 4.29 0 00.71-.58l1 1.22a3.11 3.11 0 01-1.22.85 4.56 4.56 0 01-1.72.31zm0-5.84a1.19 1.19 0 00-.94.39 1.56 1.56 0 00-.33 1v.11h2.44v-.12a1.72 1.72 0 00-.29-1 1 1 0 00-.92-.38zM122.13 717.46v-7h2V712h.07a1.9 1.9 0 01.18-.57 1.85 1.85 0 01.35-.48 1.61 1.61 0 01.53-.34 1.91 1.91 0 01.71-.13h.35v1.83h-.49a2.78 2.78 0 00-1.28.23.86.86 0 00-.42.83v4.08zM36.51 732.62v-9.26h1.12v8.27h3.94v1zM45.51 732.77a3 3 0 01-1.26-.25 2.8 2.8 0 01-1-.72 3.35 3.35 0 01-.63-1.13 5.05 5.05 0 010-2.95 3.35 3.35 0 01.63-1.13 2.71 2.71 0 011-.73 3.22 3.22 0 011.26-.25 3.17 3.17 0 011.25.25 2.68 2.68 0 011 .73 3.2 3.2 0 01.64 1.13 4.84 4.84 0 010 2.95 3.2 3.2 0 01-.64 1.13 2.77 2.77 0 01-1 .72 3 3 0 01-1.25.25zm0-.94a1.89 1.89 0 001.4-.53 2.13 2.13 0 00.55-1.62v-1a2.16 2.16 0 00-.55-1.62 2.13 2.13 0 00-2.81 0 2.2 2.2 0 00-.54 1.62v1a2.17 2.17 0 00.54 1.62 1.9 1.9 0 001.41.53zM50.35 732.62v-6.85h1.06v1.1h.05a2.35 2.35 0 01.71-.92 2.08 2.08 0 011.23-.34 2.16 2.16 0 011.68.68 2.8 2.8 0 01.61 1.94v4.39h-1.06v-4.22c0-1.23-.51-1.85-1.55-1.85a2.57 2.57 0 00-.62.08 2.14 2.14 0 00-.53.24 1.14 1.14 0 00-.52 1v4.76zM62.26 731.51a2.1 2.1 0 01-2 1.26 2.55 2.55 0 01-1.15-.25 2.43 2.43 0 01-.88-.71 3.23 3.23 0 01-.56-1.13 5.9 5.9 0 010-3 3.23 3.23 0 01.56-1.13 2.45 2.45 0 01.88-.72 2.69 2.69 0 011.15-.25 2.29 2.29 0 011.23.31 2 2 0 01.78 1v-4.09h1.06v9.82h-1.07zm-1.77.32a2.61 2.61 0 00.69-.09 1.71 1.71 0 00.56-.27 1.33 1.33 0 00.38-.44 1.3 1.3 0 00.14-.6v-2.56a1.07 1.07 0 00-.14-.52 1.18 1.18 0 00-.38-.42 2 2 0 00-.56-.28 2.61 2.61 0 00-.69-.1 1.79 1.79 0 00-1.41.57 2.1 2.1 0 00-.52 1.49v1.17a2.12 2.12 0 00.52 1.49 1.82 1.82 0 001.41.56zM68.16 732.77a3 3 0 01-1.26-.25 2.8 2.8 0 01-1-.72 3.73 3.73 0 01-.63-1.13 5.05 5.05 0 010-2.95 3.73 3.73 0 01.63-1.13 2.71 2.71 0 011-.73 3.22 3.22 0 011.26-.25 3.13 3.13 0 011.25.25 2.8 2.8 0 011 .73 3.35 3.35 0 01.63 1.13 4.84 4.84 0 010 2.95 3.35 3.35 0 01-.63 1.13 2.9 2.9 0 01-1 .72 3 3 0 01-1.25.25zm0-.94a1.93 1.93 0 001.41-.53 2.17 2.17 0 00.54-1.62v-1a2.2 2.2 0 00-.54-1.62 2.14 2.14 0 00-2.82 0 2.2 2.2 0 00-.54 1.62v1a2.17 2.17 0 00.54 1.62 1.92 1.92 0 001.41.53zM73 732.62v-6.85h1.06v1.1h.06a2.18 2.18 0 01.71-.92 2 2 0 011.22-.34 2.16 2.16 0 011.68.68 2.81 2.81 0 01.62 1.94v4.39h-1.06v-4.22c0-1.23-.52-1.85-1.56-1.85a2.49 2.49 0 00-.61.08 2.21 2.21 0 00-.54.24 1.14 1.14 0 00-.52 1v4.76z"/></svg>