<svg id="Layer_1" data-name="Layer 1" xmlns="http://www.w3.org/2000/svg" viewBox="0 0 288 288"><defs><linearGradient id="linear-gradient" x1="133.01" y1="224.24" x2="235.12" y2="68.1" gradientUnits="userSpaceOnUse"><stop offset=".1" stop-color="#43d1cf"/><stop offset=".9" stop-color="#418cff"/></linearGradient><style>.cls-3{fill:#051b75}</style></defs><path fill="#fff" d="M0 0h288v288H0z"/><path fill="none" d="M52.24 52.26h183.5v183.5H52.24z"/><path class="cls-3" d="M113.52 111.36c-7.64-9.37 11.63-16 9.76-26.34-2.9-16-31.68-6.08-41.87 9.72-14 21.65-3.42 60.9 22.64 56.49 20.24-3.43 22.7-23.64 9.47-39.87z"/><circle class="cls-3" cx="143.92" cy="75.12" r="11.4"/><path d="M172.67 220.84c-27.57 7.88-57.35-5.73-57.35-34.4s40.14-34.44 45.88-80.28c5.69-45.52 63.08-36.7 63.08 14.91 0 40.14-11.47 88.31-51.61 99.77z" fill="url(#linear-gradient)"/></svg>