<svg xmlns="http://www.w3.org/2000/svg" xmlns:xlink="http://www.w3.org/1999/xlink" id="Layer_1" width="1286.5" height="723.7" x="0" style="enable-background:new 0 0 1286.5 723.7" y="0" version="1.1" viewBox="0 0 1286.5 723.7" xml:space="preserve"><style type="text/css">.st0{fill:#f3f3f3}</style><title>Group 56</title><desc>Created with Sketch.</desc><g id="Desktop"><g id="Icons-Copy-5" transform="translate(-352.000000, -17176.000000)"><g id="Group-56" transform="translate(352.000000, 17176.000000)"><g id="Group-25"><rect id="Rectangle-12" width="1286.5" height="723.7"/></g><g id="Group-5" transform="translate(209.000000, 162.000000)"><polygon id="Fill-1" points="80.8 62.6 80.8 115.6 119.7 115.6 119.7 285.4 80.8 285.4 80.8 338.5 213.4 338.5 213.4 285.4 174.5 285.4 174.5 115.6 213.4 115.6 213.4 62.6" class="st0"/><polygon id="Fill-2" points="678.1 62.6 632.6 195.2 587.1 62.6 478.7 62.6 478.7 115.6 517.6 115.6 517.6 285.4 478.7 285.4 478.7 338.5 572.5 338.5 572.4 165.2 632.6 338.5 692.7 165.2 692.7 338.5 786.5 338.5 786.5 285.4 747.6 285.4 747.6 115.6 786.5 115.6 786.5 62.6" class="st0"/><path id="Fill-3" d="M333.7,173.8H392v-58.2h-58.4v58.2H333.7z M333.7,285.4H392V227h-58.4v58.4H333.7z M453.8,135.2c0-40-32.6-72.6-72.6-72.6H239.9v53.1h38.9v169.8h-38.9v53.1l141.3-0.1c40,0,72.6-32.6,72.6-72.6 c0-26.6-14.5-51-37.9-63.8l-2.8-1.6l2.8-1.6C439.3,186.2,453.8,161.8,453.8,135.2z" class="st0"/></g></g></g></g><polygon points="542.7 335.8 601 335.8 601 277.6 542.6 277.6 542.6 335.8"/><polygon points="542.7 447.3 601 447.3 601 389.1 542.6 389.1 542.6 447.3"/></svg>