<svg xmlns="http://www.w3.org/2000/svg" xmlns:xlink="http://www.w3.org/1999/xlink" width="288" height="288" version="1.1" viewBox="0 0 288 288"><title>Group 99</title><desc>Created with Sketch.</desc><g id="Desktop" fill="none" fill-rule="evenodd" stroke="none" stroke-width="1"><g id="Icons-Copy-5" transform="translate(-673.000000, -19657.000000)"><g id="Group-99" transform="translate(673.000000, 19657.000000)"><rect id="Rectangle-5-Copy-81" width="288" height="288" x="0" y="0" fill="#000"/><g id="Group-Copy-2" fill-rule="nonzero" transform="translate(64.000000, 112.000000)"><polygon id="Rectangle-path" fill="#6E32C9" points="0 59.608 31.12 59.608 31.12 64 0 64"/><polygon id="Rectangle-path" fill="#054ADA" points="0 51.137 31.12 51.137 31.12 55.529 0 55.529"/><polygon id="Rectangle-path" fill="#00BAB6" points="9.116 42.667 22.318 42.667 22.318 47.059 9.116 47.059"/><polygon id="Rectangle-path" fill="#3DBB61" points="9.116 34.196 22.318 34.196 22.318 38.588 9.116 38.588"/><polygon id="Rectangle-path" fill="#FDD13A" points="9.116 25.725 22.318 25.725 22.318 30.118 9.116 30.118"/><polygon id="Rectangle-path" fill="#FC7B1E" points="9.116 17.255 22.318 17.255 22.318 21.647 9.116 21.647"/><polygon id="Rectangle-path" fill="#E02730" points="0 8.471 31.12 8.471 31.12 12.863 0 12.863"/><rect id="Rectangle-path" width="31.12" height="4.392" x="0" y="0" fill="#FA75A6"/><path id="Shape" fill="#054ADA" d="M35.8349705,55.5294118 L83.7214184,55.5294118 C84.5303111,54.171836 85.1369806,52.6944742 85.5009823,51.1372549 L35.8349705,51.1372549 L35.8349705,55.5294118 Z"/><path id="Shape" fill="#3DBB61" d="M79.5806602,34.1960784 L44.3222004,34.1960784 L44.3222004,38.5882353 L83.3005894,38.5882353 C82.2897391,36.9112299 81.0362846,35.4338681 79.5806602,34.1960784 Z"/><path id="Shape" fill="#FDD13A" d="M44.3222004,25.7254902 L44.3222004,30.1176471 L79.5806602,30.1176471 C81.0767186,28.8798574 82.3301731,27.4024955 83.3005894,25.7254902 L44.3222004,25.7254902 Z"/><path id="Shape" fill="#E02730" d="M83.7214184,8.47058824 L35.8349705,8.47058824 L35.8349705,12.8627451 L85.5009823,12.8627451 C85.096536,11.3055258 84.4898664,9.82816399 83.7214184,8.47058824 Z"/><path id="Shape" fill="#FA75A6" d="M69.018982,0 L35.8349705,0 L35.8349705,4.39215686 L80.4715128,4.39215686 C77.4768581,1.67700535 73.4300274,0 69.018982,0 Z"/><polygon id="Rectangle-path" fill="#FC7B1E" points="44.322 17.255 57.525 17.255 57.525 21.647 44.322 21.647"/><path id="Shape" fill="#FC7B1E" d="M71.0412574,21.6470588 L84.8984938,21.6470588 C85.3001528,20.2495544 85.5009823,18.7721925 85.5009823,17.254902 L71.0412574,17.254902 L71.0412574,21.6470588 Z"/><polygon id="Rectangle-path" fill="#00BAB6" points="44.322 42.667 57.525 42.667 57.525 47.059 44.322 47.059"/><path id="Shape" fill="#00BAB6" d="M71.0412574,42.6666667 L71.0412574,47.0588235 L85.5009823,47.0588235 C85.5009823,45.541533 85.3001528,44.0641711 84.8984938,42.6666667 L71.0412574,42.6666667 Z"/><path id="Shape" fill="#6E32C9" d="M35.8349705,63.9600713 L69.018982,64 C73.4704957,64 77.4768581,62.3229947 80.4715128,59.6078431 L35.8349705,59.6078431 L35.8349705,63.9600713 Z"/><polygon id="Rectangle-path" fill="#6E32C9" points="88.959 59.608 111.277 59.608 111.277 64 88.959 64"/><polygon id="Rectangle-path" fill="#054ADA" points="88.959 51.137 111.277 51.137 111.277 55.529 88.959 55.529"/><polygon id="Rectangle-path" fill="#00BAB6" points="97.76 42.667 110.963 42.667 110.963 47.059 97.76 47.059"/><polygon id="Rectangle-path" fill="#3DBB61" points="97.76 34.196 110.963 34.196 110.963 38.588 97.76 38.588"/><polygon id="Shape" fill="#E02730" points="117.29 8.471 88.959 8.471 88.959 12.863 118.821 12.863"/><polygon id="Shape" fill="#FA75A6" points="114.454 0 88.959 0 88.959 4.392 115.992 4.392"/><polygon id="Rectangle-path" fill="#6E32C9" points="137.682 59.608 160 59.608 160 64 137.682 64"/><polygon id="Rectangle-path" fill="#054ADA" points="137.682 51.137 160 51.137 160 55.529 137.682 55.529"/><polygon id="Rectangle-path" fill="#00BAB6" points="137.682 42.667 150.884 42.667 150.884 47.059 137.682 47.059"/><polygon id="Rectangle-path" fill="#3DBB61" points="137.682 34.196 150.884 34.196 150.884 38.588 137.682 38.588"/><polygon id="Shape" fill="#FDD13A" points="137.839 30.118 151.198 30.118 151.198 25.725 137.839 25.725 137.839 25.725 125.734 25.725 124.479 29.279 123.224 25.725 111.12 25.725 111.12 25.725 97.76 25.725 97.76 30.118 111.12 30.118 111.12 26.085 112.537 30.118 136.422 30.118 137.839 26.085"/><polygon id="Shape" fill="#FC7B1E" points="151.513 17.255 128.857 17.255 127.308 21.647 151.513 21.647"/><polygon id="Shape" fill="#FA75A6" points="134.504 0 132.967 4.392 160 4.392 160 0"/><polygon id="Shape" fill="#6E32C9" points="124.479 64 126.051 59.608 122.908 59.608"/><polygon id="Shape" fill="#054ADA" points="121.666 55.529 127.607 55.529 129.194 51.137 120.079 51.137"/><polygon id="Shape" fill="#00BAB6" points="118.831 47.059 130.756 47.059 132.338 42.667 117.25 42.667"/><polygon id="Shape" fill="#3DBB61" points="115.628 38.588 133.331 38.588 134.853 34.196 114.106 34.196"/><polygon id="Shape" fill="#FC7B1E" points="97.76 21.647 121.965 21.647 120.416 17.255 97.76 17.255"/><polygon id="Shape" fill="#E02730" points="130.138 12.863 160 12.863 160 8.471 131.669 8.471"/></g></g></g></g></svg>