<?xml version="1.0" encoding="UTF-8"?>
<svg width="32px" height="32px" viewBox="0 0 32 32" version="1.1" xmlns="http://www.w3.org/2000/svg" xmlns:xlink="http://www.w3.org/1999/xlink">
    <!-- Generator: Sketch 64 (93537) - https://sketch.com -->
    <title>icon / card / box / 01 enabled</title>
    <desc>Created with Sketch.</desc>
    <defs>
        <polygon id="path-1" points="0 6.42570281e-06 31.9999807 6.42570281e-06 31.9999807 32 0 32"></polygon>
    </defs>
    <g id="Desktop" stroke="none" stroke-width="1" fill="none" fill-rule="evenodd">
        <g id="IDL-Rebus" transform="translate(-771.000000, -9478.000000)">
            <g id="icon-/-card-/-box-/-01-enabled" transform="translate(771.000000, 9478.000000)">
                <rect id="Rectangle" fill="#FFFFFF" x="3" y="7" width="26" height="19"></rect>
                <g id="Group-8-Copy-3" stroke-width="1">
                    <path d="M17.1296515,14.4080707 C15.5951968,14.4080707 14.3513819,15.649388 14.3513819,17.1809542 C14.3513819,18.7121992 15.5951968,19.953645 17.1296515,19.953645 C18.6640419,19.953645 19.9081143,18.7121992 19.9081143,17.1809542 C19.9081143,15.649388 18.6640419,14.4080707 17.1296515,14.4080707" id="Fill-1" fill="#0062FF"></path>
                    <path d="M8.94589296,14.4080707 C7.41137384,14.4080707 6.16755895,15.649388 6.16755895,17.1809542 C6.16755895,18.7121992 7.41137384,19.953645 8.94589296,19.953645 C10.4804121,19.953645 11.7242913,18.7121992 11.7242913,17.1809542 C11.7242913,15.649388 10.4804121,14.4080707 8.94589296,14.4080707" id="Fill-3" fill="#0062FF"></path>
                    <g id="Group-7">
                        <mask id="mask-2" fill="white">
                            <use xlink:href="#path-1"></use>
                        </mask>
                        <g id="Clip-6"></g>
                        <path d="M27.992705,14.0197333 L25.6204555,17.184392 L27.992705,20.3489863 L27.9922543,20.3492434 C28.2856628,20.7569542 28.2006728,21.3256289 27.7964555,21.6286008 C27.392367,21.9315727 26.8213891,21.8545928 26.5107895,21.4597333 L26.510532,21.4598618 L24.4630471,18.7284884 L22.4156266,21.4598618 L22.4153046,21.4596048 C22.1046406,21.8544 21.5338559,21.9313799 21.1295742,21.6284723 C20.7253569,21.3255004 20.640367,20.7568257 20.9339042,20.3491149 L20.9334535,20.3489863 L23.305703,17.184392 L20.9334535,14.0197333 L20.9339042,14.0195406 C20.640367,13.611894 20.7253569,13.0432193 21.1295742,12.7401831 C21.5338559,12.4372112 22.1046406,12.5141912 22.4153046,12.9091149 L22.4156266,12.9087293 L24.4630471,15.6402313 L26.510532,12.9087293 L26.5107895,12.9089221 C26.8213891,12.5140627 27.392367,12.437147 27.7964555,12.7399904 C28.2006728,13.0430265 28.2856628,13.6117012 27.9922543,14.019412 L27.992705,14.0197333 Z M17.1296386,21.8037012 C15.3561175,21.8037012 13.8159968,20.8082956 13.0377594,19.347412 C12.2595219,20.8082956 10.7194656,21.8037012 8.94588008,21.8037012 C6.41343742,21.8037012 4.35693843,19.7750426 4.31579557,17.2575165 L4.31386398,17.2575165 L4.31386398,9.58818313 L4.31431469,9.58818313 C4.32500282,9.0864 4.73520805,8.68260884 5.24064064,8.68260884 C5.74607324,8.68260884 6.15634286,9.0864 6.16709537,9.58818313 L6.16754608,9.58818313 L6.16754608,13.4820305 C6.941534,12.9019181 7.90346559,12.558143 8.94588008,12.558143 C10.7194656,12.558143 12.2595219,13.5532916 13.0377594,15.0143036 C13.8159968,13.5532916 15.3561175,12.558143 17.1296386,12.558143 C19.6879002,12.558143 21.7617835,14.6277976 21.7617835,17.1809863 C21.7617835,19.7338538 19.6879002,21.8037012 17.1296386,21.8037012 L17.1296386,21.8037012 Z M28.9094374,6.42570281e-06 L3.09052394,6.42570281e-06 C1.38370704,6.42570281e-06 -1.93158954e-05,1.38088996 -1.93158954e-05,3.08434378 L-1.93158954e-05,28.9156691 C-1.93158954e-05,30.6191229 1.38370704,32.0000064 3.09052394,32.0000064 L28.9094374,32.0000064 C30.6163187,32.0000064 31.9999807,30.6191229 31.9999807,28.9156691 L31.9999807,3.08434378 C31.9999807,1.38088996 30.6163187,6.42570281e-06 28.9094374,6.42570281e-06 L28.9094374,6.42570281e-06 Z" id="Fill-5" fill="#0062FF" mask="url(#mask-2)"></path>
                    </g>
                </g>
            </g>
        </g>
    </g>
</svg>