<?xml version="1.0" encoding="UTF-8"?>
<svg width="288px" height="288px" viewBox="0 0 288 288" version="1.1" xmlns="http://www.w3.org/2000/svg" xmlns:xlink="http://www.w3.org/1999/xlink">
    <!-- Generator: Sketch 64 (93537) - https://sketch.com -->
    <title>Group 18</title>
    <desc>Created with Sketch.</desc>
    <g id="Desktop" stroke="none" stroke-width="1" fill="none" fill-rule="evenodd">
        <g id="IDL-Logo-8-bar-v2" transform="translate(-352.000000, -5009.000000)">
            <g id="Blue-50-/-Black" transform="translate(352.000000, 5009.000000)">
                <g id="Group-18">
                    <rect id="Rectangle-5-Copy-10" fill="#000000" x="0" y="0" width="288" height="288"></rect>
                    <g id="8-bar-/-reverse" transform="translate(61.500000, 111.468011)">
                        <g id="reverse-8-bar" transform="translate(0.000000, 0.000000)">
                            <g id="Mask" transform="translate(0.000000, 0.205808)" fill="#FFFFFF" fill-rule="nonzero">
                                <rect id="Rectangle-path" x="3.97903932e-13" y="60.5487374" width="31.6944444" height="4.11616162"></rect>
                                <rect id="Rectangle-path" x="3.97903932e-13" y="51.904798" width="31.6944444" height="4.11616162"></rect>
                                <rect id="Rectangle-path" x="9.05555556" y="43.2608586" width="13.5833333" height="4.11616162"></rect>
                                <rect id="Rectangle-path" x="9.05555556" y="34.6169192" width="13.5833333" height="4.11616162"></rect>
                                <rect id="Rectangle-path" x="9.05555556" y="25.9729798" width="13.5833333" height="4.11616162"></rect>
                                <rect id="Rectangle-path" x="9.05555556" y="17.3290404" width="13.5833333" height="4.11616162"></rect>
                                <rect id="Rectangle-path" x="3.97903932e-13" y="8.68510101" width="31.6944444" height="4.11616162"></rect>
                                <rect id="Rectangle-path" x="3.97903932e-13" y="0.0411616162" width="31.6944444" height="4.11616162"></rect>
                                <path d="M36.2222222,60.5487374 L36.2222222,64.664899 L36.2222222,64.664899 L69.5631313,64.664899 L69.5631313,64.664899 C73.8439394,64.664899 77.7542929,63.1007576 80.7590909,60.5487374 L36.2222222,60.5487374 L36.2222222,60.5487374 Z" id="Shape"></path>
                                <path d="M36.2222222,51.904798 L36.2222222,56.0209596 L36.2222222,56.0209596 L84.5459596,56.0209596 C85.2868687,54.7449495 85.8631313,53.3454545 86.2747475,51.904798 L36.2222222,51.904798 L36.2222222,51.904798 Z" id="Shape"></path>
                                <polygon id="Shape" points="45.2777778 43.2608586 45.2777778 47.3770202 45.2777778 47.3770202 58.8611111 47.3770202 58.8611111 43.2608586"></polygon>
                                <path d="M81.2118687,34.6169192 L45.2777778,34.6169192 L45.2777778,34.6169192 L45.2777778,38.7330808 L45.2777778,38.7330808 L84.5459596,38.7330808 C83.640404,37.1689394 82.5290404,35.7694444 81.2118687,34.6169192 Z" id="Shape"></path>
                                <path d="M45.2777778,25.9729798 L45.2777778,25.9729798 L45.2777778,30.0891414 L45.2777778,30.0891414 L81.2118687,30.0891414 C82.5290404,28.8954545 83.640404,27.4959596 84.5459596,25.9729798 L45.2777778,25.9729798 Z" id="Shape"></path>
                                <path d="M86.2335859,12.8012626 C85.8219697,11.3606061 85.2457071,9.96111111 84.504798,8.68510101 L36.2222222,8.68510101 L36.2222222,8.68510101 L36.2222222,12.8012626 L36.2222222,12.8012626 L86.2335859,12.8012626 Z" id="Shape"></path>
                                <path d="M80.7590909,4.15732323 C77.7542929,1.60530303 73.8439394,0.0411616162 69.5631313,0.0411616162 L69.5631313,0.0411616162 L36.2222222,0.0411616162 L36.2222222,0.0411616162 L36.2222222,4.15732323 L36.2222222,4.15732323 L80.7590909,4.15732323 Z" id="Shape"></path>
                                <polygon id="Shape" points="45.2777778 17.3290404 45.2777778 21.445202 45.2777778 21.445202 58.8611111 21.445202 58.8611111 17.3290404"></polygon>
                                <path d="M72.4444444,21.445202 L86.3570707,21.445202 C86.6863636,20.1280303 86.8510101,18.7285354 86.8510101,17.3290404 L72.4444444,17.3290404 L72.4444444,21.445202 Z" id="Shape"></path>
                                <path d="M72.4444444,43.2608586 L72.4444444,47.3770202 L86.8510101,47.3770202 L86.8510101,47.3770202 C86.8510101,45.9775253 86.6863636,44.5780303 86.3570707,43.2608586 L72.4444444,43.2608586 Z" id="Shape"></path>
                                <rect id="Rectangle-path" x="90.5555556" y="60.5075758" width="22.6388889" height="4.11616162"></rect>
                                <rect id="Rectangle-path" x="90.5555556" y="51.8636364" width="22.6388889" height="4.11616162"></rect>
                                <rect id="Rectangle-path" x="99.6111111" y="43.219697" width="13.5833333" height="4.11616162"></rect>
                                <rect id="Rectangle-path" x="99.6111111" y="34.5757576" width="13.5833333" height="4.11616162"></rect>
                                <rect id="Rectangle-path" x="99.6111111" y="25.9318182" width="13.5833333" height="4.11616162"></rect>
                                <rect id="Rectangle-path" x="140.361111" y="60.5075758" width="22.6388889" height="4.11616162"></rect>
                                <rect id="Rectangle-path" x="140.361111" y="51.8636364" width="22.6388889" height="4.11616162"></rect>
                                <rect id="Rectangle-path" x="140.361111" y="43.219697" width="13.5833333" height="4.11616162"></rect>
                                <rect id="Rectangle-path" x="140.361111" y="34.5757576" width="13.5833333" height="4.11616162"></rect>
                                <polygon id="Shape" points="140.361111 30.0479798 153.944444 30.0479798 153.944444 25.9318182 140.361111 25.9318182 128.465404 25.9318182 127.065909 30.0479798 138.961616 30.0479798 140.361111 26.1376263"></polygon>
                                <polygon id="Shape" points="153.944444 17.2878788 131.470202 17.2878788 130.070707 21.4040404 153.944444 21.4040404"></polygon>
                                <polygon id="Shape" points="137.479798 -4.88498131e-15 136.039141 4.11616162 163 4.11616162 163 -4.88498131e-15"></polygon>
                                <polygon id="Shape" points="126.777778 64.5825758 128.218434 60.5075758 125.337121 60.5075758"></polygon>
                                <polygon id="Shape" points="123.731818 55.979798 129.823737 55.979798 131.264394 51.8636364 122.291162 51.8636364"></polygon>
                                <polygon id="Shape" points="120.685859 47.3358586 132.869697 47.3358586 134.310354 43.219697 119.245202 43.219697"></polygon>
                                <polygon id="Shape" points="117.639899 38.6919192 135.915657 38.6919192 137.397475 34.5757576 116.158081 34.5757576"></polygon>
                                <polygon id="Shape" points="125.090152 25.9318182 113.194444 25.9318182 113.194444 26.1376263 114.593939 30.0479798 126.489646 30.0479798"></polygon>
                                <polygon id="Shape" points="99.6111111 21.4040404 123.484848 21.4040404 122.085354 17.2878788 99.6111111 17.2878788"></polygon>
                                <polygon id="Shape" points="133.034343 12.760101 163 12.760101 163 8.64393939 134.475 8.64393939"></polygon>
                                <polygon id="Shape" points="119.080556 8.64393939 90.5555556 8.64393939 90.5555556 12.760101 120.521212 12.760101"></polygon>
                                <polygon id="Shape" points="116.075758 -4.88498131e-15 90.5555556 -4.88498131e-15 90.5555556 4.11616162 117.516414 4.11616162"></polygon>
                            </g>
                            <rect id="Rectangle" fill="#4589FF" x="0" y="0" width="163" height="65.2058081"></rect>
                        </g>
                    </g>
                </g>
            </g>
        </g>
    </g>
</svg>