<svg xmlns="http://www.w3.org/2000/svg" xmlns:xlink="http://www.w3.org/1999/xlink" width="50" height="21" version="1.1" viewBox="0 0 50 21"><title>Group</title><desc>Created with Sketch.</desc><g id="Desktop" fill="none" fill-rule="evenodd" stroke="none" stroke-width="1"><g id="Icons-Copy-4" fill="#000" fill-rule="nonzero" transform="translate(-352.000000, -869.000000)"><g id="Group" transform="translate(352.000000, 869.000000)"><polygon id="Rectangle-path" points="0 18.808 9.722 18.808 9.722 20.215 0 20.215"/><polygon id="Rectangle-path" points="0 16.121 9.722 16.121 9.722 17.529 0 17.529"/><polygon id="Rectangle-path" points="2.778 13.434 6.944 13.434 6.944 14.842 2.778 14.842"/><polygon id="Rectangle-path" points="2.778 10.747 6.944 10.747 6.944 12.155 2.778 12.155"/><polygon id="Rectangle-path" points="2.778 8.061 6.944 8.061 6.944 9.468 2.778 9.468"/><polygon id="Rectangle-path" points="2.778 5.374 6.944 5.374 6.944 6.781 2.778 6.781"/><rect id="Rectangle-path" width="9.722" height="1.407" x="0" y="2.687"/><rect id="Rectangle-path" width="9.722" height="1.407" x="0" y="0"/><path id="Shape" d="M11.1111111,17.5285297 L26.0606061,17.5285297 C26.3131313,17.0935151 26.5025253,16.6201168 26.6161616,16.1211295 L11.1111111,16.1211295 L11.1111111,17.5285297 Z"/><path id="Shape" d="M24.8989899,10.7474197 L13.8888889,10.7474197 L13.8888889,12.1548199 L26.0606061,12.1548199 C25.7449495,11.6174489 25.3535354,11.1440506 24.8989899,10.7474197 Z"/><path id="Shape" d="M13.8888889,8.06056475 L13.8888889,9.46796495 L24.8989899,9.46796495 C25.3661616,9.07133398 25.7575758,8.59793574 26.0606061,8.06056475 L13.8888889,8.06056475 Z"/><path id="Shape" d="M26.0606061,2.68685492 L11.1111111,2.68685492 L11.1111111,4.09425511 L26.6161616,4.09425511 C26.489899,3.59526777 26.3005051,3.12186952 26.0606061,2.68685492 Z"/><path id="Shape" d="M21.4646465,0 L11.1111111,0 L11.1111111,1.40740019 L25.0378788,1.40740019 C24.1035354,0.537370983 22.8409091,0 21.4646465,0 Z"/><rect id="Rectangle-path" width="4.167" height="1.407" x="13.889" y="5.374"/><path id="Shape" d="M22.2222222,6.78111003 L26.5782828,6.78111003 C26.7045455,6.33330088 26.7676768,5.85990263 26.7676768,5.37370983 L22.2222222,5.37370983 L22.2222222,6.78111003 Z"/><polygon id="Rectangle-path" points="13.889 13.434 18.056 13.434 18.056 14.842 13.889 14.842"/><path id="Shape" d="M22.2222222,13.4342746 L22.2222222,14.8416748 L26.7676768,14.8416748 C26.7676768,14.355482 26.7045455,13.8820837 26.5782828,13.4342746 L22.2222222,13.4342746 Z"/><path id="Shape" d="M11.1111111,20.2025901 L21.4646465,20.2153846 C22.8535354,20.2153846 24.1035354,19.6780136 25.0378788,18.8079844 L11.1111111,18.8079844 L11.1111111,20.2025901 Z"/><polygon id="Rectangle-path" points="27.778 18.808 34.722 18.808 34.722 20.215 27.778 20.215"/><polygon id="Rectangle-path" points="27.778 16.121 34.722 16.121 34.722 17.529 27.778 17.529"/><polygon id="Rectangle-path" points="30.556 13.434 34.722 13.434 34.722 14.842 30.556 14.842"/><polygon id="Rectangle-path" points="30.556 10.747 34.722 10.747 34.722 12.155 30.556 12.155"/><polygon id="Shape" points="36.654 2.687 27.778 2.687 27.778 4.094 37.134 4.094"/><polygon id="Shape" points="35.732 0 27.778 0 27.778 1.407 36.212 1.407"/><polygon id="Rectangle-path" points="43.056 18.808 50 18.808 50 20.215 43.056 20.215"/><polygon id="Rectangle-path" points="43.056 16.121 50 16.121 50 17.529 43.056 17.529"/><polygon id="Rectangle-path" points="43.056 13.434 47.222 13.434 47.222 14.842 43.056 14.842"/><polygon id="Rectangle-path" points="43.056 10.747 47.222 10.747 47.222 12.155 43.056 12.155"/><polygon id="Shape" points="43.056 9.468 47.222 9.468 47.222 8.061 43.056 8.061 43.056 8.061 39.28 8.061 38.889 9.199 38.497 8.061 34.722 8.061 34.722 8.061 30.556 8.061 30.556 9.468 34.722 9.468 34.722 8.176 35.164 9.468 42.614 9.468 43.056 8.176"/><polygon id="Shape" points="47.222 5.374 40.202 5.374 39.722 6.781 47.222 6.781"/><polygon id="Shape" points="42.045 0 41.566 1.407 50 1.407 50 0"/><polygon id="Shape" points="38.889 20.203 39.369 18.808 38.409 18.808"/><polygon id="Shape" points="37.967 17.529 39.811 17.529 40.303 16.121 37.475 16.121"/><polygon id="Shape" points="37.033 14.842 40.745 14.842 41.237 13.434 36.54 13.434"/><polygon id="Shape" points="36.098 12.155 41.679 12.155 42.159 10.747 35.619 10.747"/><polygon id="Shape" points="30.556 6.781 38.056 6.781 37.576 5.374 30.556 5.374"/><polygon id="Shape" points="40.644 4.094 50 4.094 50 2.687 41.124 2.687"/></g></g></g></svg>