<svg xmlns="http://www.w3.org/2000/svg" xmlns:xlink="http://www.w3.org/1999/xlink" id="Layer_1" width="500" height="500" x="0" style="enable-background:new 0 0 500 500" y="0" version="1.1" viewBox="0 0 500 500" xml:space="preserve"><style type="text/css">.st0{fill:#fff}.st1{fill:none;stroke:#0f6fff;stroke-width:4}</style><title>Group 46</title><desc>Created with Sketch.</desc><g id="Desktop"><g id="Icons-Copy-4" transform="translate(-672.000000, -3039.000000)"><g id="Group-46" transform="translate(672.000000, 3039.000000)"><rect id="Rectangle-5-Copy-6" width="500" height="500"/><g id="Group-77"><polygon id="Fill-11" points="255.2 204.9 474.5 204.9 500 132.1 500 128.5 281.5 128.5" class="st0"/><polygon id="Fill-12" points="326.5 0 310.8 45.1 500 45.1 500 0" class="st0"/><polygon id="Fill-13" points="111.1 446.2 129.8 500 370.2 500 388.9 446.2" class="st0"/><polygon id="Fill-14" points="82.2 364.6 417.8 364.6 444.4 288.2 55.6 288.2" class="st0"/><polygon id="Fill-15" points="218.5 128.5 0 128.5 0 132.1 25.5 204.9 244.8 204.9" class="st0"/><polygon id="Fill-16" points="0 0 0 45.1 189.2 45.1 173.5 0" class="st0"/><circle id="Oval-3-Copy" cx="251.7" cy="175.3" r="74.7" class="st1"/></g></g></g></g></svg>