<svg xmlns="http://www.w3.org/2000/svg" xmlns:xlink="http://www.w3.org/1999/xlink" width="288" height="288" version="1.1" viewBox="0 0 288 288"><title>Group 59</title><desc>Created with Sketch.</desc><defs><path id="path-1" d="M29.4900589,31.2562324 C29.4900589,34.5445865 26.8497156,37.2098005 23.5920471,37.2098005 C20.3343786,37.2098005 17.6940353,34.5445865 17.6940353,31.2562324 C17.6940353,27.9678783 20.3343786,25.3026643 23.5920471,25.3026643 C26.8497156,25.3026643 29.4900589,27.9678783 29.4900589,31.2562324"/><filter id="filter-2" width="227.2%" height="226%" x="-46.6%" y="-37.8%" filterUnits="objectBoundingBox"><feOffset dx="2" dy="3" in="SourceAlpha" result="shadowOffsetOuter1"/><feGaussianBlur in="shadowOffsetOuter1" result="shadowBlurOuter1" stdDeviation="2"/><feColorMatrix in="shadowBlurOuter1" type="matrix" values="0 0 0 0 0 0 0 0 0 0 0 0 0 0 0 0 0 0 0.5 0"/></filter><path id="path-3" d="M23.5920471,44.6517606 C16.2627845,44.6517606 10.3215206,38.654533 10.3215206,31.2562324 C10.3215206,23.8579318 16.2627845,17.8607042 23.5920471,17.8607042 C30.9213098,17.8607042 36.8625736,23.8579318 36.8625736,31.2562324 C36.8625736,38.654533 30.9213098,44.6517606 23.5920471,44.6517606 M23.5920471,14.8839202 C12.9841453,14.8839202 3.88416843,21.6359279 0,31.2562324 C3.88416843,40.8765369 12.9841453,47.6285447 23.5920471,47.6285447 C34.199949,47.6285447 43.2999258,40.8765369 47.1840943,31.2562324 C43.2999258,21.6359279 34.199949,14.8839202 23.5920471,14.8839202"/><filter id="filter-4" width="131.8%" height="145.8%" x="-11.7%" y="-13.7%" filterUnits="objectBoundingBox"><feOffset dx="2" dy="3" in="SourceAlpha" result="shadowOffsetOuter1"/><feGaussianBlur in="shadowOffsetOuter1" result="shadowBlurOuter1" stdDeviation="2"/><feColorMatrix in="shadowBlurOuter1" type="matrix" values="0 0 0 0 0 0 0 0 0 0 0 0 0 0 0 0 0 0 0.5 0"/></filter><path id="path-5" d="M22.2813778,-0.000132301513 C12.844559,-0.000132301513 4.60307053,5.38453927 0.163833661,13.3953959 L0.163833661,17.8605719 C5.44714155,11.4942231 13.3930741,7.4418278 22.2813778,7.4418278 C31.1696816,7.4418278 39.1156141,11.4942231 44.398922,17.8605719 L44.398922,13.3953959 C39.9596852,5.38453927 31.7181967,-0.000132301513 22.2813778,-0.000132301513"/><filter id="filter-6" width="133.9%" height="184%" x="-12.4%" y="-25.2%" filterUnits="objectBoundingBox"><feOffset dx="2" dy="3" in="SourceAlpha" result="shadowOffsetOuter1"/><feGaussianBlur in="shadowOffsetOuter1" result="shadowBlurOuter1" stdDeviation="2"/><feColorMatrix in="shadowBlurOuter1" type="matrix" values="0 0 0 0 0 0 0 0 0 0 0 0 0 0 0 0 0 0 0.5 0"/></filter><path id="path-7" d="M81.4496422,6.31726494 C81.4496422,8.77873459 79.473153,10.7745029 77.0346528,10.7745029 C74.5961525,10.7745029 72.6190079,8.77873459 72.6190079,6.31726494 C72.6190079,3.85579529 74.5961525,1.86068848 77.0346528,1.86068848 C79.473153,1.86068848 81.4496422,3.85579529 81.4496422,6.31726494"/><filter id="filter-8" width="269.9%" height="268.3%" x="-62.3%" y="-50.5%" filterUnits="objectBoundingBox"><feOffset dx="2" dy="3" in="SourceAlpha" result="shadowOffsetOuter1"/><feGaussianBlur in="shadowOffsetOuter1" result="shadowBlurOuter1" stdDeviation="2"/><feColorMatrix in="shadowBlurOuter1" type="matrix" values="0 0 0 0 0 0 0 0 0 0 0 0 0 0 0 0 0 0 0.5 0"/></filter><path id="path-9" d="M92.5250598,6.31726494 C92.5250598,8.77873459 90.5479152,10.7745029 88.1100703,10.7745029 C85.6709148,10.7745029 83.6944255,8.77873459 83.6944255,6.31726494 C83.6944255,3.85579529 85.6709148,1.86068848 88.1100703,1.86068848 C90.5479152,1.86068848 92.5250598,3.85579529 92.5250598,6.31726494"/><filter id="filter-10" width="269.9%" height="268.3%" x="-62.3%" y="-50.5%" filterUnits="objectBoundingBox"><feOffset dx="2" dy="3" in="SourceAlpha" result="shadowOffsetOuter1"/><feGaussianBlur in="shadowOffsetOuter1" result="shadowBlurOuter1" stdDeviation="2"/><feColorMatrix in="shadowBlurOuter1" type="matrix" values="0 0 0 0 0 0 0 0 0 0 0 0 0 0 0 0 0 0 0.5 0"/></filter><path id="path-11" d="M57.9728029,23.4276212 L72.9878303,16.7278725 L67.9253702,32.9546531 C66.9646496,35.8454412 64.5431881,38.6819856 60.4545552,38.6819856 C56.1981567,38.6819856 52.7137424,35.1746725 52.7137424,30.8781809 C52.7137424,27.2385662 54.9300842,24.8055414 57.9728029,23.4276212"/><filter id="filter-12" width="174%" height="168.3%" x="-27.1%" y="-20.5%" filterUnits="objectBoundingBox"><feOffset dx="2" dy="3" in="SourceAlpha" result="shadowOffsetOuter1"/><feGaussianBlur in="shadowOffsetOuter1" result="shadowBlurOuter1" stdDeviation="2"/><feColorMatrix in="shadowBlurOuter1" type="matrix" values="0 0 0 0 0 0 0 0 0 0 0 0 0 0 0 0 0 0 0.5 0"/></filter><path id="path-13" d="M107.171527,23.4276212 L92.1564996,16.7278725 L97.2189597,32.9546531 C98.1796803,35.8454412 100.613593,38.6813241 104.715333,38.6813241 C104.718609,38.6813241 104.721231,38.6819856 104.723852,38.6819856 C108.980251,38.6819856 112.430587,35.1746725 112.430587,30.8781809 C112.430587,27.2385662 110.214246,24.8055414 107.171527,23.4276212"/><filter id="filter-14" width="174%" height="168.3%" x="-27.1%" y="-20.5%" filterUnits="objectBoundingBox"><feOffset dx="2" dy="3" in="SourceAlpha" result="shadowOffsetOuter1"/><feGaussianBlur in="shadowOffsetOuter1" result="shadowBlurOuter1" stdDeviation="2"/><feColorMatrix in="shadowBlurOuter1" type="matrix" values="0 0 0 0 0 0 0 0 0 0 0 0 0 0 0 0 0 0 0.5 0"/></filter><path id="path-15" d="M91.255349,18.2328022 C89.7251426,14.9424636 86.4104599,12.6510014 82.5721649,12.6510014 C78.7305933,12.6510014 75.4375367,14.9391561 73.9092963,18.2328022 L91.255349,18.2328022 Z"/><filter id="filter-16" width="186.5%" height="368.7%" x="-31.7%" y="-80.6%" filterUnits="objectBoundingBox"><feOffset dx="2" dy="3" in="SourceAlpha" result="shadowOffsetOuter1"/><feGaussianBlur in="shadowOffsetOuter1" result="shadowBlurOuter1" stdDeviation="2"/><feColorMatrix in="shadowBlurOuter1" type="matrix" values="0 0 0 0 0 0 0 0 0 0 0 0 0 0 0 0 0 0 0.5 0"/></filter><polygon id="path-17" points="92.155 27.907 72.988 27.907 72.988 22.698 92.156 22.698"/><filter id="filter-18" width="178.3%" height="387.9%" x="-28.7%" y="-86.4%" filterUnits="objectBoundingBox"><feOffset dx="2" dy="3" in="SourceAlpha" result="shadowOffsetOuter1"/><feGaussianBlur in="shadowOffsetOuter1" result="shadowBlurOuter1" stdDeviation="2"/><feColorMatrix in="shadowBlurOuter1" type="matrix" values="0 0 0 0 0 0 0 0 0 0 0 0 0 0 0 0 0 0 0.5 0"/></filter><polygon id="path-19" points="92.155 37.582 72.988 37.582 72.988 32.373 92.156 32.373"/><filter id="filter-20" width="178.3%" height="387.9%" x="-28.7%" y="-86.4%" filterUnits="objectBoundingBox"><feOffset dx="2" dy="3" in="SourceAlpha" result="shadowOffsetOuter1"/><feGaussianBlur in="shadowOffsetOuter1" result="shadowBlurOuter1" stdDeviation="2"/><feColorMatrix in="shadowBlurOuter1" type="matrix" values="0 0 0 0 0 0 0 0 0 0 0 0 0 0 0 0 0 0 0.5 0"/></filter><path id="path-21" d="M0.512012956,0.371965704 C2.04221935,3.66230433 5.35624663,5.95376653 9.19519697,5.95376653 C13.0367686,5.95376653 16.3291699,3.66561187 17.8580656,0.371965704 L0.512012956,0.371965704 Z"/><filter id="filter-22" width="186.5%" height="368.7%" x="-31.7%" y="-80.6%" filterUnits="objectBoundingBox"><feOffset dx="2" dy="3" in="SourceAlpha" result="shadowOffsetOuter1"/><feGaussianBlur in="shadowOffsetOuter1" result="shadowBlurOuter1" stdDeviation="2"/><feColorMatrix in="shadowBlurOuter1" type="matrix" values="0 0 0 0 0 0 0 0 0 0 0 0 0 0 0 0 0 0 0.5 0"/></filter><polygon id="path-23" points="140.82 46.512 141.877 43.443 139.763 43.443"/><filter id="filter-24" width="809.7%" height="588.7%" x="-260.2%" y="-146.6%" filterUnits="objectBoundingBox"><feOffset dx="2" dy="3" in="SourceAlpha" result="shadowOffsetOuter1"/><feGaussianBlur in="shadowOffsetOuter1" result="shadowBlurOuter1" stdDeviation="2"/><feColorMatrix in="shadowBlurOuter1" type="matrix" values="0 0 0 0 0 0 0 0 0 0 0 0 0 0 0 0 0 0 0.5 0"/></filter><polygon id="path-25" points="138.793 40.653 142.847 40.653 143.914 37.584 137.725 37.584"/><filter id="filter-26" width="342.4%" height="588.7%" x="-88.9%" y="-146.6%" filterUnits="objectBoundingBox"><feOffset dx="2" dy="3" in="SourceAlpha" result="shadowOffsetOuter1"/><feGaussianBlur in="shadowOffsetOuter1" result="shadowBlurOuter1" stdDeviation="2"/><feColorMatrix in="shadowBlurOuter1" type="matrix" values="0 0 0 0 0 0 0 0 0 0 0 0 0 0 0 0 0 0 0.5 0"/></filter><polygon id="path-27" points="136.755 34.793 144.885 34.793 145.953 31.724 135.687 31.724"/><filter id="filter-28" width="246.1%" height="588.7%" x="-53.6%" y="-146.6%" filterUnits="objectBoundingBox"><feOffset dx="2" dy="3" in="SourceAlpha" result="shadowOffsetOuter1"/><feGaussianBlur in="shadowOffsetOuter1" result="shadowBlurOuter1" stdDeviation="2"/><feColorMatrix in="shadowBlurOuter1" type="matrix" values="0 0 0 0 0 0 0 0 0 0 0 0 0 0 0 0 0 0 0.5 0"/></filter><polygon id="path-29" points="134.717 28.934 146.923 28.934 147.99 25.865 133.649 25.865"/><filter id="filter-30" width="204.6%" height="588.7%" x="-38.4%" y="-146.6%" filterUnits="objectBoundingBox"><feOffset dx="2" dy="3" in="SourceAlpha" result="shadowOffsetOuter1"/><feGaussianBlur in="shadowOffsetOuter1" result="shadowBlurOuter1" stdDeviation="2"/><feColorMatrix in="shadowBlurOuter1" type="matrix" values="0 0 0 0 0 0 0 0 0 0 0 0 0 0 0 0 0 0 0.5 0"/></filter><polygon id="path-31" points="122.576 17.215 139.004 17.215 137.947 14.146 122.576 14.146"/><filter id="filter-32" width="191.3%" height="588.7%" x="-33.5%" y="-146.6%" filterUnits="objectBoundingBox"><feOffset dx="2" dy="3" in="SourceAlpha" result="shadowOffsetOuter1"/><feGaussianBlur in="shadowOffsetOuter1" result="shadowBlurOuter1" stdDeviation="2"/><feColorMatrix in="shadowBlurOuter1" type="matrix" values="0 0 0 0 0 0 0 0 0 0 0 0 0 0 0 0 0 0 0.5 0"/></filter><polygon id="path-33" points=".481 3.418 20.971 3.418 20.971 .348 1.538 .348"/><filter id="filter-34" width="173.2%" height="588.7%" x="-26.8%" y="-146.6%" filterUnits="objectBoundingBox"><feOffset dx="2" dy="3" in="SourceAlpha" result="shadowOffsetOuter1"/><feGaussianBlur in="shadowOffsetOuter1" result="shadowBlurOuter1" stdDeviation="2"/><feColorMatrix in="shadowBlurOuter1" type="matrix" values="0 0 0 0 0 0 0 0 0 0 0 0 0 0 0 0 0 0 0.5 0"/></filter><polygon id="path-35" points="147.73 2.427 146.673 5.497 165.144 5.497 165.144 2.427"/><filter id="filter-36" width="181.2%" height="588.7%" x="-29.8%" y="-146.6%" filterUnits="objectBoundingBox"><feOffset dx="2" dy="3" in="SourceAlpha" result="shadowOffsetOuter1"/><feGaussianBlur in="shadowOffsetOuter1" result="shadowBlurOuter1" stdDeviation="2"/><feColorMatrix in="shadowBlurOuter1" type="matrix" values="0 0 0 0 0 0 0 0 0 0 0 0 0 0 0 0 0 0 0.5 0"/></filter><polygon id="path-37" points="116.496 46.512 131.698 46.512 131.698 43.443 116.496 43.443"/><filter id="filter-38" width="198.7%" height="588.7%" x="-36.2%" y="-146.6%" filterUnits="objectBoundingBox"><feOffset dx="2" dy="3" in="SourceAlpha" result="shadowOffsetOuter1"/><feGaussianBlur in="shadowOffsetOuter1" result="shadowBlurOuter1" stdDeviation="2"/><feColorMatrix in="shadowBlurOuter1" type="matrix" values="0 0 0 0 0 0 0 0 0 0 0 0 0 0 0 0 0 0 0.5 0"/></filter><polygon id="path-39" points="116.496 40.653 131.698 40.653 131.698 37.584 116.496 37.584"/><filter id="filter-40" width="198.7%" height="588.7%" x="-36.2%" y="-146.6%" filterUnits="objectBoundingBox"><feOffset dx="2" dy="3" in="SourceAlpha" result="shadowOffsetOuter1"/><feGaussianBlur in="shadowOffsetOuter1" result="shadowBlurOuter1" stdDeviation="2"/><feColorMatrix in="shadowBlurOuter1" type="matrix" values="0 0 0 0 0 0 0 0 0 0 0 0 0 0 0 0 0 0 0.5 0"/></filter><polygon id="path-41" points="122.576 34.793 131.698 34.793 131.698 31.724 122.576 31.724"/><filter id="filter-42" width="264.4%" height="588.7%" x="-60.3%" y="-146.6%" filterUnits="objectBoundingBox"><feOffset dx="2" dy="3" in="SourceAlpha" result="shadowOffsetOuter1"/><feGaussianBlur in="shadowOffsetOuter1" result="shadowBlurOuter1" stdDeviation="2"/><feColorMatrix in="shadowBlurOuter1" type="matrix" values="0 0 0 0 0 0 0 0 0 0 0 0 0 0 0 0 0 0 0.5 0"/></filter><polygon id="path-43" points="122.576 28.934 131.698 28.934 131.698 25.865 122.576 25.865"/><filter id="filter-44" width="264.4%" height="588.7%" x="-60.3%" y="-146.6%" filterUnits="objectBoundingBox"><feOffset dx="2" dy="3" in="SourceAlpha" result="shadowOffsetOuter1"/><feGaussianBlur in="shadowOffsetOuter1" result="shadowBlurOuter1" stdDeviation="2"/><feColorMatrix in="shadowBlurOuter1" type="matrix" values="0 0 0 0 0 0 0 0 0 0 0 0 0 0 0 0 0 0 0.5 0"/></filter><polygon id="path-45" points="159.063 14.146 143.693 14.146 142.636 17.216 159.063 17.216"/><filter id="filter-46" width="191.3%" height="588.7%" x="-33.5%" y="-146.6%" filterUnits="objectBoundingBox"><feOffset dx="2" dy="3" in="SourceAlpha" result="shadowOffsetOuter1"/><feGaussianBlur in="shadowOffsetOuter1" result="shadowBlurOuter1" stdDeviation="2"/><feColorMatrix in="shadowBlurOuter1" type="matrix" values="0 0 0 0 0 0 0 0 0 0 0 0 0 0 0 0 0 0 0.5 0"/></filter><polygon id="path-47" points="149.942 28.934 159.063 28.934 159.063 25.864 149.942 25.864"/><filter id="filter-48" width="264.4%" height="588.7%" x="-60.3%" y="-146.6%" filterUnits="objectBoundingBox"><feOffset dx="2" dy="3" in="SourceAlpha" result="shadowOffsetOuter1"/><feGaussianBlur in="shadowOffsetOuter1" result="shadowBlurOuter1" stdDeviation="2"/><feColorMatrix in="shadowBlurOuter1" type="matrix" values="0 0 0 0 0 0 0 0 0 0 0 0 0 0 0 0 0 0 0.5 0"/></filter><polygon id="path-49" points="149.942 34.793 159.063 34.793 159.063 31.724 149.942 31.724"/><filter id="filter-50" width="264.4%" height="588.7%" x="-60.3%" y="-146.6%" filterUnits="objectBoundingBox"><feOffset dx="2" dy="3" in="SourceAlpha" result="shadowOffsetOuter1"/><feGaussianBlur in="shadowOffsetOuter1" result="shadowBlurOuter1" stdDeviation="2"/><feColorMatrix in="shadowBlurOuter1" type="matrix" values="0 0 0 0 0 0 0 0 0 0 0 0 0 0 0 0 0 0 0.5 0"/></filter><polygon id="path-51" points="149.942 40.653 165.144 40.653 165.144 37.584 149.942 37.584"/><filter id="filter-52" width="198.7%" height="588.7%" x="-36.2%" y="-146.6%" filterUnits="objectBoundingBox"><feOffset dx="2" dy="3" in="SourceAlpha" result="shadowOffsetOuter1"/><feGaussianBlur in="shadowOffsetOuter1" result="shadowBlurOuter1" stdDeviation="2"/><feColorMatrix in="shadowBlurOuter1" type="matrix" values="0 0 0 0 0 0 0 0 0 0 0 0 0 0 0 0 0 0 0.5 0"/></filter><polygon id="path-53" points="149.942 46.512 165.144 46.512 165.144 43.443 149.942 43.443"/><filter id="filter-54" width="198.7%" height="588.7%" x="-36.2%" y="-146.6%" filterUnits="objectBoundingBox"><feOffset dx="2" dy="3" in="SourceAlpha" result="shadowOffsetOuter1"/><feGaussianBlur in="shadowOffsetOuter1" result="shadowBlurOuter1" stdDeviation="2"/><feColorMatrix in="shadowBlurOuter1" type="matrix" values="0 0 0 0 0 0 0 0 0 0 0 0 0 0 0 0 0 0 0.5 0"/></filter><polygon id="path-55" points="136.985 11.356 135.928 8.286 116.495 8.286 116.495 11.356"/><filter id="filter-56" width="173.2%" height="588.7%" x="-26.8%" y="-146.6%" filterUnits="objectBoundingBox"><feOffset dx="2" dy="3" in="SourceAlpha" result="shadowOffsetOuter1"/><feGaussianBlur in="shadowOffsetOuter1" result="shadowBlurOuter1" stdDeviation="2"/><feColorMatrix in="shadowBlurOuter1" type="matrix" values="0 0 0 0 0 0 0 0 0 0 0 0 0 0 0 0 0 0 0.5 0"/></filter><polygon id="path-57" points="134.967 5.497 133.91 2.427 116.495 2.427 116.495 5.497"/><filter id="filter-58" width="181.2%" height="588.7%" x="-29.8%" y="-146.6%" filterUnits="objectBoundingBox"><feOffset dx="2" dy="3" in="SourceAlpha" result="shadowOffsetOuter1"/><feGaussianBlur in="shadowOffsetOuter1" result="shadowBlurOuter1" stdDeviation="2"/><feColorMatrix in="shadowBlurOuter1" type="matrix" values="0 0 0 0 0 0 0 0 0 0 0 0 0 0 0 0 0 0 0.5 0"/></filter><polygon id="path-59" points="149.942 23.075 159.063 23.075 159.063 20.005 149.942 20.005 141.675 20.005 140.82 22.487 139.965 20.005 122.576 20.005 122.576 23.075 131.698 23.075 131.698 20.254 132.679 23.075 148.961 23.075 149.942 20.255"/><filter id="filter-60" width="141.1%" height="588.7%" x="-15.1%" y="-146.6%" filterUnits="objectBoundingBox"><feOffset dx="2" dy="3" in="SourceAlpha" result="shadowOffsetOuter1"/><feGaussianBlur in="shadowOffsetOuter1" result="shadowBlurOuter1" stdDeviation="2"/><feColorMatrix in="shadowBlurOuter1" type="matrix" values="0 0 0 0 0 0 0 0 0 0 0 0 0 0 0 0 0 0 0.5 0"/></filter></defs><g id="Desktop" fill="none" fill-rule="evenodd" stroke="none" stroke-width="1"><g id="Icons-Copy-2" transform="translate(-353.000000, -7657.000000)"><g id="Group-59" transform="translate(353.000000, 7657.000000)"><g id="Group-74" fill="#FFF"><polygon id="Background" points="0 0 288 0 288 288 0 288"/></g><g id="Group-53-Copy-4" transform="translate(61.000000, 120.000000)"><g id="Fill-1"><use fill="#000" fill-opacity="1" filter="url(#filter-2)" xlink:href="#path-1"/><use fill="#000" fill-rule="evenodd" xlink:href="#path-1"/></g><g id="Fill-3"><use fill="#000" fill-opacity="1" filter="url(#filter-4)" xlink:href="#path-3"/><use fill="#000" fill-rule="evenodd" xlink:href="#path-3"/></g><g id="Group-7" transform="translate(1.310669, 0.000132)"><g id="Fill-5"><use fill="#000" fill-opacity="1" filter="url(#filter-6)" xlink:href="#path-5"/><use fill="#000" fill-rule="evenodd" xlink:href="#path-5"/></g></g><g id="Fill-8"><use fill="#000" fill-opacity="1" filter="url(#filter-8)" xlink:href="#path-7"/><use fill="#000" fill-rule="evenodd" xlink:href="#path-7"/></g><g id="Fill-10"><use fill="#000" fill-opacity="1" filter="url(#filter-10)" xlink:href="#path-9"/><use fill="#000" fill-rule="evenodd" xlink:href="#path-9"/></g><g id="Fill-12"><use fill="#000" fill-opacity="1" filter="url(#filter-12)" xlink:href="#path-11"/><use fill="#000" fill-rule="evenodd" xlink:href="#path-11"/></g><g id="Fill-14"><use fill="#000" fill-opacity="1" filter="url(#filter-14)" xlink:href="#path-13"/><use fill="#000" fill-rule="evenodd" xlink:href="#path-13"/></g><g id="Fill-16"><use fill="#000" fill-opacity="1" filter="url(#filter-16)" xlink:href="#path-15"/><use fill="#000" fill-rule="evenodd" xlink:href="#path-15"/></g><g id="Fill-18"><use fill="#000" fill-opacity="1" filter="url(#filter-18)" xlink:href="#path-17"/><use fill="#000" fill-rule="evenodd" xlink:href="#path-17"/></g><g id="Fill-20"><use fill="#000" fill-opacity="1" filter="url(#filter-20)" xlink:href="#path-19"/><use fill="#000" fill-rule="evenodd" xlink:href="#path-19"/></g><g id="Group-24" transform="translate(73.397480, 41.675109)"><g id="Fill-22"><use fill="#000" fill-opacity="1" filter="url(#filter-22)" xlink:href="#path-21"/><use fill="#000" fill-rule="evenodd" xlink:href="#path-21"/></g></g><g id="Fill-25"><use fill="#000" fill-opacity="1" filter="url(#filter-24)" xlink:href="#path-23"/><use fill="#000" fill-rule="evenodd" xlink:href="#path-23"/></g><g id="Fill-27"><use fill="#000" fill-opacity="1" filter="url(#filter-26)" xlink:href="#path-25"/><use fill="#000" fill-rule="evenodd" xlink:href="#path-25"/></g><g id="Fill-29"><use fill="#000" fill-opacity="1" filter="url(#filter-28)" xlink:href="#path-27"/><use fill="#000" fill-rule="evenodd" xlink:href="#path-27"/></g><g id="Fill-31"><use fill="#000" fill-opacity="1" filter="url(#filter-30)" xlink:href="#path-29"/><use fill="#000" fill-rule="evenodd" xlink:href="#path-29"/></g><g id="Fill-33"><use fill="#000" fill-opacity="1" filter="url(#filter-32)" xlink:href="#path-31"/><use fill="#000" fill-rule="evenodd" xlink:href="#path-31"/></g><g id="Group-37" transform="translate(144.173621, 7.938223)"><g id="Fill-35"><use fill="#000" fill-opacity="1" filter="url(#filter-34)" xlink:href="#path-33"/><use fill="#000" fill-rule="evenodd" xlink:href="#path-33"/></g></g><g id="Fill-38"><use fill="#000" fill-opacity="1" filter="url(#filter-36)" xlink:href="#path-35"/><use fill="#000" fill-rule="evenodd" xlink:href="#path-35"/></g><g id="Fill-40"><use fill="#000" fill-opacity="1" filter="url(#filter-38)" xlink:href="#path-37"/><use fill="#000" fill-rule="evenodd" xlink:href="#path-37"/></g><g id="Fill-42"><use fill="#000" fill-opacity="1" filter="url(#filter-40)" xlink:href="#path-39"/><use fill="#000" fill-rule="evenodd" xlink:href="#path-39"/></g><g id="Fill-43"><use fill="#000" fill-opacity="1" filter="url(#filter-42)" xlink:href="#path-41"/><use fill="#000" fill-rule="evenodd" xlink:href="#path-41"/></g><g id="Fill-44"><use fill="#000" fill-opacity="1" filter="url(#filter-44)" xlink:href="#path-43"/><use fill="#000" fill-rule="evenodd" xlink:href="#path-43"/></g><g id="Fill-45"><use fill="#000" fill-opacity="1" filter="url(#filter-46)" xlink:href="#path-45"/><use fill="#000" fill-rule="evenodd" xlink:href="#path-45"/></g><g id="Fill-46"><use fill="#000" fill-opacity="1" filter="url(#filter-48)" xlink:href="#path-47"/><use fill="#000" fill-rule="evenodd" xlink:href="#path-47"/></g><g id="Fill-47"><use fill="#000" fill-opacity="1" filter="url(#filter-50)" xlink:href="#path-49"/><use fill="#000" fill-rule="evenodd" xlink:href="#path-49"/></g><g id="Fill-48"><use fill="#000" fill-opacity="1" filter="url(#filter-52)" xlink:href="#path-51"/><use fill="#000" fill-rule="evenodd" xlink:href="#path-51"/></g><g id="Fill-49"><use fill="#000" fill-opacity="1" filter="url(#filter-54)" xlink:href="#path-53"/><use fill="#000" fill-rule="evenodd" xlink:href="#path-53"/></g><g id="Fill-50"><use fill="#000" fill-opacity="1" filter="url(#filter-56)" xlink:href="#path-55"/><use fill="#000" fill-rule="evenodd" xlink:href="#path-55"/></g><g id="Fill-51"><use fill="#000" fill-opacity="1" filter="url(#filter-58)" xlink:href="#path-57"/><use fill="#000" fill-rule="evenodd" xlink:href="#path-57"/></g><g id="Fill-52"><use fill="#000" fill-opacity="1" filter="url(#filter-60)" xlink:href="#path-59"/><use fill="#000" fill-rule="evenodd" xlink:href="#path-59"/></g></g></g></g></g></svg>