<svg xmlns="http://www.w3.org/2000/svg" xmlns:xlink="http://www.w3.org/1999/xlink" width="288" height="288" version="1.1" viewBox="0 0 288 288"><title>Group 35</title><desc>Created with Sketch.</desc><g id="Desktop" fill="none" fill-rule="evenodd" stroke="none" stroke-width="1"><g id="Icons-Copy-2" transform="translate(-672.000000, -7309.000000)"><g id="Group-35" transform="translate(672.000000, 7309.000000)"><g id="Group-74" fill="#FFF"><polygon id="Background" points="0 0 288 0 288 288 0 288"/></g><g id="Group-22" transform="translate(73.000000, 70.000000)"><g id="Group-53-Copy-7" transform="translate(101.500000, 110.000000) rotate(15.000000) translate(-101.500000, -110.000000) translate(68.000000, 80.000000)"><polygon id="Fill-25" fill="#000" points="32.529 60 33.986 56.066 31.072 56.066"/><polygon id="Fill-27" fill="#000" points="30.638 52.131 36.363 52.131 37.87 48.197 29.13 48.197"/><polygon id="Fill-29" fill="#000" points="27.631 44.262 38.398 44.262 39.812 40.328 26.217 40.328"/><polygon id="Fill-31" fill="#000" points="24.75 35.41 41.279 35.41 42.725 31.475 23.304 31.475"/><polygon id="Fill-33" fill="#000" points="7.768 19.672 30.101 19.672 28.664 15.738 7.768 15.738"/><g id="Group-37" transform="translate(37.869565, 7.868852)"><polygon id="Clip-36" points=".648 .49 28.263 .49 28.263 4.815 .648 4.815"/><polygon id="Fill-35" fill="#000" points=".648 4.815 28.263 4.815 28.263 .49 2.072 .49"/></g><polygon id="Fill-38" fill="#000" points="42.227 0 40.783 3.934 66.029 3.934 66.029 0"/><polygon id="Fill-40" fill="#000" points="0 60 20.391 60 20.391 56.066 0 56.066"/><polygon id="Fill-42" fill="#000" points="0 52.131 20.391 52.131 20.391 48.197 0 48.197"/><polygon id="Fill-43" fill="#000" points="7.768 44.262 20.391 44.262 20.391 40.328 7.768 40.328"/><polygon id="Fill-44" fill="#000" points="7.768 35.41 20.391 35.41 20.391 31.475 7.768 31.475"/><polygon id="Fill-45" fill="#000" points="57.29 15.738 36.394 15.738 34.957 19.672 57.29 19.672"/><polygon id="Fill-46" fill="#000" points="45.638 35.41 58.261 35.41 58.261 31.475 45.638 31.475"/><polygon id="Fill-47" fill="#000" points="45.638 44.262 58.261 44.262 58.261 40.328 45.638 40.328"/><polygon id="Fill-48" fill="#000" points="45.638 52.131 66.029 52.131 66.029 48.197 45.638 48.197"/><polygon id="Fill-49" fill="#000" points="45.638 60 66.029 60 66.029 56.066 45.638 56.066"/><polygon id="Fill-50" fill="#000" points="28.159 11.803 26.707 7.869 0 7.869 0 11.803"/><polygon id="Fill-51" fill="#000" points="25.246 3.934 23.802 0 0 0 0 3.934"/><polygon id="Fill-52" fill="#000" points="44.91 27.541 57.29 27.541 57.29 23.607 44.91 23.607 33.689 23.607 32.529 26.787 31.369 23.607 7.768 23.607 7.768 27.541 20.148 27.541 20.148 23.925 21.48 27.541 43.578 27.541 44.91 23.926"/></g><g id="Group-5" transform="translate(82.500000, 40.000000) rotate(-30.000000) translate(-82.500000, -40.000000) translate(48.000000, 14.000000)"><path id="Fill-8" fill="#000" d="M33.2432429,5.1396925 C33.2432429,7.90691074 31.021579,10.1505811 28.2805939,10.1505811 C25.5396088,10.1505811 23.3172083,7.90691074 23.3172083,5.1396925 C23.3172083,2.37247427 25.5396088,0.129547581 28.2805939,0.129547581 C31.021579,0.129547581 33.2432429,2.37247427 33.2432429,5.1396925"/><path id="Fill-10" fill="#000" d="M45.6925159,5.1396925 C45.6925159,7.90691074 43.4701155,10.1505811 40.729867,10.1505811 C37.9881452,10.1505811 35.7664814,7.90691074 35.7664814,5.1396925 C35.7664814,2.37247427 37.9881452,0.129547581 40.729867,0.129547581 C43.4701155,0.129547581 45.6925159,2.37247427 45.6925159,5.1396925"/><path id="Fill-12" fill="#000" d="M6.85420782,24.3753917 L23.7317814,16.8434416 L18.041346,35.0858128 C16.9614524,38.3356768 14.2396195,41.5245593 9.64381026,41.5245593 C4.85942477,41.5245593 0.942784642,37.5815894 0.942784642,32.751414 C0.942784642,28.6597089 3.43405358,25.9244687 6.85420782,24.3753917"/><path id="Fill-14" fill="#000" d="M62.1558111,24.3753917 L45.2782375,16.8434416 L50.9686729,35.0858128 C52.0485665,38.3356768 54.7843953,41.5238156 59.394937,41.5238156 C59.3986202,41.5238156 59.4015667,41.5245593 59.4045132,41.5245593 C64.1888987,41.5245593 68.0672342,37.5815894 68.0672342,32.751414 C68.0672342,28.6597089 65.5759653,25.9244687 62.1558111,24.3753917"/><path id="Fill-16" fill="#000" d="M44.2653032,18.5353044 C42.5452816,14.8362602 38.8194276,12.2601667 34.5050094,12.2601667 C30.1869082,12.2601667 26.4853628,14.8325418 24.7675511,18.5353044 L44.2653032,18.5353044 Z"/><polygon id="Fill-18" fill="#000" points="45.277 29.412 23.732 29.412 23.732 23.555 45.278 23.555"/><polygon id="Fill-20" fill="#000" points="45.277 40.288 23.732 40.288 23.732 34.431 45.278 34.431"/><g id="Group-24" transform="translate(24.192246, 44.889470)"><polygon id="Clip-23" points=".576 .418 20.073 .418 20.073 6.693 .576 6.693"/><path id="Fill-22" fill="#000" d="M0.575525848,0.418168991 C2.29554742,4.1172132 6.02066481,6.69330672 10.3358196,6.69330672 C14.6539208,6.69330672 18.3547296,4.12093158 20.0732779,0.418168991 L0.575525848,0.418168991 Z"/></g></g><g id="Group-6" transform="translate(29.500000, 88.000000) rotate(-6.000000) translate(-29.500000, -88.000000) translate(3.000000, 61.000000)"><path id="Fill-1" fill="#000" d="M32.8686571,35.1632615 C32.8686571,38.8626598 29.9258167,41.8610256 26.2949257,41.8610256 C22.6640347,41.8610256 19.7211943,38.8626598 19.7211943,35.1632615 C19.7211943,31.4638631 22.6640347,28.4654974 26.2949257,28.4654974 C29.9258167,28.4654974 32.8686571,31.4638631 32.8686571,35.1632615"/><path id="Fill-3" fill="#000" d="M26.2949257,50.2332307 C18.1259688,50.2332307 11.50403,43.4863497 11.50403,35.1632615 C11.50403,26.8401733 18.1259688,20.0932923 26.2949257,20.0932923 C34.4638826,20.0932923 41.0858214,26.8401733 41.0858214,35.1632615 C41.0858214,43.4863497 34.4638826,50.2332307 26.2949257,50.2332307 M26.2949257,16.7444102 C14.4717045,16.7444102 4.32916735,24.3404189 0,35.1632615 C4.32916735,45.9861041 14.4717045,53.5821127 26.2949257,53.5821127 C38.1181469,53.5821127 48.260684,45.9861041 52.5898514,35.1632615 C48.260684,24.3404189 38.1181469,16.7444102 26.2949257,16.7444102"/><g id="Group-7" transform="translate(1.460829, 0.000149)"><polygon id="Clip-6" points=".183 0 49.486 0 49.486 20.093 .183 20.093"/><path id="Fill-5" fill="#000" d="M24.8340965,-0.000148839202 C14.3161262,-0.000148839202 5.13043217,6.05760668 0.182603651,15.0698204 L0.182603651,20.0931434 C6.07120618,12.931001 14.9274832,8.37205628 24.8340965,8.37205628 C34.7407097,8.37205628 43.5969868,12.931001 49.4855893,20.0931434 L49.4855893,15.0698204 C44.5377608,6.05760668 35.3520668,-0.000148839202 24.8340965,-0.000148839202"/></g></g></g></g></g></g></svg>