<svg xmlns="http://www.w3.org/2000/svg" xmlns:xlink="http://www.w3.org/1999/xlink" width="288" height="288" version="1.1" viewBox="0 0 288 288"><title>Group 64</title><desc>Created with Sketch.</desc><g id="Desktop" fill="none" fill-rule="evenodd" stroke="none" stroke-width="1"><g id="Icons-Copy-2" transform="translate(-671.000000, -2581.000000)"><g id="Group-64" transform="translate(671.000000, 2581.000000)"><g id="Group-48-Copy" fill="#FFF"><rect id="Rectangle-5-Copy-10" width="288" height="288" x="0" y="0"/></g><path id="Fill-1" fill="#051B75" d="M90,152 C90,155.314 87.314,158 84,158 C80.686,158 78,155.314 78,152 C78,148.686 80.686,146 84,146 C87.314,146 90,148.686 90,152"/><path id="Fill-3" fill="#051B75" d="M84,166 C76.544,166 70.5,159.956 70.5,152.5 C70.5,145.044 76.544,139 84,139 C91.456,139 97.5,145.044 97.5,152.5 C97.5,159.956 91.456,166 84,166 M84,136 C73.2086667,136 63.9513333,142.804667 60,152.5 C63.9513333,162.195333 73.2086667,169 84,169 C94.7913333,169 104.048667,162.195333 108,152.5 C104.048667,142.804667 94.7913333,136 84,136"/><path id="Fill-8" fill="#051B75" d="M143,127.499666 C143,129.984935 140.985603,132 138.500334,132 C136.015065,132 134,129.984935 134,127.499666 C134,125.014397 136.015065,123 138.500334,123 C140.985603,123 143,125.014397 143,127.499666"/><path id="Fill-10" fill="#051B75" d="M154,127.499666 C154,129.984935 151.984935,132 149.500334,132 C147.014397,132 145,129.984935 145,127.499666 C145,125.014397 147.014397,123 149.500334,123 C151.984935,123 154,125.014397 154,127.499666"/><path id="Fill-12" fill="#051B75" d="M118.447361,144.713752 L134,138 L128.756279,154.260697 C127.76116,157.157527 125.252998,160 121.017972,160 C116.609173,160 113,156.485356 113,152.179884 C113,148.532662 115.295698,146.094552 118.447361,144.713752"/><path id="Fill-14" fill="#051B75" d="M169.552639,144.713752 L154,138 L159.243721,154.260697 C160.23884,157.157527 162.759899,159.999337 167.008501,159.999337 C167.011895,159.999337 167.01461,160 167.017326,160 C171.426124,160 175,156.485356 175,152.179884 C175,148.532662 172.704302,146.094552 169.552639,144.713752"/><path id="Fill-16" fill="#051B75" d="M153,140 C151.412105,136.463143 147.972458,134 143.989459,134 C140.00306,134 136.585855,136.459588 135,140 L153,140 Z"/><polygon id="Fill-18" fill="#051B75" points="153.999 149 134 149 134 144 154 144"/><polygon id="Fill-20" fill="#051B75" points="153.999 159 134 159 134 154 154 154"/><polygon id="Fill-25" fill="#051B75" points="203 168 204 165 202 165"/><polygon id="Fill-27" fill="#051B75" points="201.035 162 204.966 162 206 159 200 159"/><polygon id="Fill-29" fill="#051B75" points="199.04 156 206.96 156 208 153 198 153"/><polygon id="Fill-31" fill="#051B75" points="196.117 150 208.883 150 210 147 195 147"/><polygon id="Fill-33" fill="#051B75" points="184 138 201 138 199.906 135 184 135"/><g id="Group-31" fill="#061F80" transform="translate(61.000000, 121.000000)"><path id="Fill-5" d="M23,0 C13.4,0 5.016,5.42666667 0.5,13.5 L0.5,18 C5.87466667,11.584 13.958,7.5 23,7.5 C32.042,7.5 40.1253333,11.584 45.5,18 L45.5,13.5 C40.984,5.42666667 32.6,0 23,0"/><path id="Fill-22" d="M74.1875333,42.375 C75.7442,45.691 79.1155333,48.0003333 83.0208667,48.0003333 C86.9288667,48.0003333 90.2782,45.6943333 91.8335333,42.375 L74.1875333,42.375 Z"/><polygon id="Fill-35" points="145.406 11.444 166.25 11.444 166.25 8.351 146.481 8.351"/></g><polygon id="Fill-38" fill="#051B75" points="209.087 123 208 126 227 126 227 123"/><polygon id="Fill-40" fill="#051B75" points="178 168 193 168 193 165 178 165"/><polygon id="Fill-42" fill="#051B75" points="178 162 193 162 193 159 178 159"/><polygon id="Fill-43" fill="#051B75" points="184 156 193 156 193 153 184 153"/><polygon id="Fill-44" fill="#051B75" points="184 150 193 150 193 147 184 147"/><polygon id="Fill-45" fill="#051B75" points="221 135 205.094 135 204 138 221 138"/><polygon id="Fill-46" fill="#051B75" points="212 150 221 150 221 147 212 147"/><polygon id="Fill-47" fill="#051B75" points="212 156 221 156 221 153 212 153"/><polygon id="Fill-48" fill="#051B75" points="212 162 227 162 227 159 212 159"/><polygon id="Fill-49" fill="#051B75" points="212 168 227 168 227 165 212 165"/><polygon id="Fill-50" fill="#051B75" points="199 132 197.917 129 178 129 178 132"/><polygon id="Fill-51" fill="#051B75" points="197 126 195.913 123 178 123 178 126"/><polygon id="Fill-52" fill="#051B75" points="211.75 144 221 144 221 141 211.75 141 203.367 141 202.5 143.425 201.633 141 184 141 184 144 193.25 144 193.25 141.243 194.245 144 210.755 144 211.75 141.244"/></g></g></g></svg>