<?xml version="1.0" encoding="UTF-8"?>
<svg width="288px" height="288px" viewBox="0 0 288 288" version="1.1" xmlns="http://www.w3.org/2000/svg" xmlns:xlink="http://www.w3.org/1999/xlink">
    <!-- Generator: Sketch 51.3 (57544) - http://www.bohemiancoding.com/sketch -->
    <title>Group 38</title>
    <desc>Created with Sketch.</desc>
    <defs></defs>
    <g id="Desktop" stroke="none" stroke-width="1" fill="none" fill-rule="evenodd">
        <g id="Icons-Copy-2" transform="translate(-991.000000, -2927.000000)">
            <g id="Group-38" transform="translate(991.000000, 2927.000000)">
                <g id="Group-48-Copy-5" fill="#FFFFFF">
                    <rect id="Rectangle-5-Copy-10" x="0" y="0" width="288" height="288"></rect>
                </g>
                <path d="M89,152 C89,155.314 86.314,158 83,158 C79.686,158 77,155.314 77,152 C77,148.686 79.686,146 83,146 C86.314,146 89,148.686 89,152" id="Fill-1" fill="#767676"></path>
                <path d="M83,165 C75.544,165 69.5,158.956 69.5,151.5 C69.5,144.044 75.544,138 83,138 C90.456,138 96.5,144.044 96.5,151.5 C96.5,158.956 90.456,165 83,165 M83,135 C72.2086667,135 62.9513333,141.804667 59,151.5 C62.9513333,161.195333 72.2086667,168 83,168 C93.7913333,168 103.048667,161.195333 107,151.5 C103.048667,141.804667 93.7913333,135 83,135" id="Fill-3" fill="#767676"></path>
                <path d="M142,126.499666 C142,128.984935 139.985603,131 137.500334,131 C135.015065,131 133,128.984935 133,126.499666 C133,124.014397 135.015065,122 137.500334,122 C139.985603,122 142,124.014397 142,126.499666" id="Fill-8" fill="#767676"></path>
                <path d="M153,126.499666 C153,128.984935 150.984935,131 148.500334,131 C146.014397,131 144,128.984935 144,126.499666 C144,124.014397 146.014397,122 148.500334,122 C150.984935,122 153,124.014397 153,126.499666" id="Fill-10" fill="#767676"></path>
                <path d="M117.447361,143.713752 L133,137 L127.756279,153.260697 C126.76116,156.157527 124.252998,159 120.017972,159 C115.609173,159 112,155.485356 112,151.179884 C112,147.532662 114.295698,145.094552 117.447361,143.713752" id="Fill-12" fill="#767676"></path>
                <path d="M168.552639,143.713752 L153,137 L158.243721,153.260697 C159.23884,156.157527 161.759899,158.999337 166.008501,158.999337 C166.011895,158.999337 166.01461,159 166.017326,159 C170.426124,159 174,155.485356 174,151.179884 C174,147.532662 171.704302,145.094552 168.552639,143.713752" id="Fill-14" fill="#767676"></path>
                <path d="M152,139 C150.412105,135.463143 146.972458,133 142.989459,133 C139.00306,133 135.585855,135.459588 134,139 L152,139 Z" id="Fill-16" fill="#767676"></path>
                <polygon id="Fill-18" fill="#767676" points="152.998632 148 133 148 133 143 153 143"></polygon>
                <polygon id="Fill-20" fill="#767676" points="152.998632 158 133 158 133 153 153 153"></polygon>
                <polygon id="Fill-25" fill="#767676" points="202.00031 167 203 164 201 164"></polygon>
                <polygon id="Fill-27" fill="#767676" points="200.034943 161 203.965693 161 205 158 199 158"></polygon>
                <polygon id="Fill-29" fill="#767676" points="198.039964 155 205.960036 155 207 152 197 152"></polygon>
                <polygon id="Fill-31" fill="#767676" points="195.116569 149 207.883431 149 209 146 194 146"></polygon>
                <polygon id="Fill-33" fill="#767676" points="183 137 200 137 198.906092 134 183 134"></polygon>
                <g id="Group-32" transform="translate(60.000000, 120.000000)" fill="#6F6F6F">
                    <path d="M23,0 C13.4,0 5.016,5.42666667 0.5,13.5 L0.5,18 C5.87466667,11.584 13.958,7.5 23,7.5 C32.042,7.5 40.1253333,11.584 45.5,18 L45.5,13.5 C40.984,5.42666667 32.6,0 23,0" id="Fill-5"></path>
                    <path d="M74.1875333,42.375 C75.7442,45.691 79.1155333,48.0003333 83.0208667,48.0003333 C86.9288667,48.0003333 90.2782,45.6943333 91.8335333,42.375 L74.1875333,42.375 Z" id="Fill-22"></path>
                    <polygon id="Fill-35" points="145.4056 11.4443333 166.250267 11.4443333 166.250267 8.351 146.480933 8.351"></polygon>
                </g>
                <polygon id="Fill-38" fill="#767676" points="208.087313 122 207 125 226 125 226 122"></polygon>
                <polygon id="Fill-40" fill="#767676" points="177 167 192 167 192 164 177 164"></polygon>
                <polygon id="Fill-42" fill="#767676" points="177 161 192 161 192 158 177 158"></polygon>
                <polygon id="Fill-43" fill="#767676" points="183 155 192 155 192 152 183 152"></polygon>
                <polygon id="Fill-44" fill="#767676" points="183 149 192 149 192 146 183 146"></polygon>
                <polygon id="Fill-45" fill="#767676" points="220 134 204.093908 134 203 137 220 137"></polygon>
                <polygon id="Fill-46" fill="#767676" points="211 149 220 149 220 146 211 146"></polygon>
                <polygon id="Fill-47" fill="#767676" points="211 155 220 155 220 152 211 152"></polygon>
                <polygon id="Fill-48" fill="#767676" points="211 161 226 161 226 158 211 158"></polygon>
                <polygon id="Fill-49" fill="#767676" points="211 167 226 167 226 164 211 164"></polygon>
                <polygon id="Fill-50" fill="#767676" points="198 131 196.916653 128 177 128 177 131"></polygon>
                <polygon id="Fill-51" fill="#767676" points="196 125 194.912726 122 177 122 177 125"></polygon>
                <polygon id="Fill-52" fill="#767676" points="210.750166 143 220 143 220 140 210.750166 140 202.366902 140 201.500332 142.425216 200.633098 140 183 140 183 143 192.249834 143 192.249834 140.243103 193.244661 143 209.755339 143 210.750166 140.24375"></polygon>
            </g>
        </g>
    </g>
</svg>