<svg xmlns="http://www.w3.org/2000/svg" xmlns:xlink="http://www.w3.org/1999/xlink" width="288" height="288" version="1.1" viewBox="0 0 288 288"><title>Group 15</title><desc>Created with Sketch.</desc><g id="Desktop" fill="none" fill-rule="evenodd" stroke="none" stroke-width="1"><g id="IDL-Rebus" transform="translate(-352.000000, -3912.000000)"><g id="Group-15" transform="translate(352.000000, 3912.000000)"><rect id="Rectangle-16-Copy-151" width="288" height="288" x="0" y="0" fill="#000"/><g id="Group-25" transform="translate(61.000000, 121.000000)"><path id="Path" fill="#3F6C45" d="M104.43221,22.6158052 L89.8011477,16.1483362 L94.7343739,31.8129119 C95.6703805,34.603693 98.0296559,37.3414114 102.013946,37.3414114 C106.162005,37.3414114 109.557217,33.9558957 109.557217,29.8083763 C109.557217,26.2946479 107.396995,23.945608 104.43221,22.6158052 Z"/><polygon id="Path" fill="#5B76D2" points="136.321 22.275 135.386 19.582 118.725 19.582 118.725 22.275 127.614 22.275 127.614 19.719 128.52 22.275"/><polygon id="Path" fill="#5B76D2" points="129.499 2.612 112.799 2.612 112.799 5.306 130.434 5.306"/><polygon id="Path" fill="#5B76D2" points="131.462 8.269 112.799 8.269 112.799 10.962 132.396 10.962"/><polygon id="Path" fill="#5B76D2" points="140.609 10.962 160.206 10.962 160.206 8.269 141.544 8.269"/><polygon id="Path" fill="#5B76D2" points="118.725 16.619 134.359 16.619 133.424 13.925 118.725 13.925"/><polygon id="Path" fill="#5B76D2" points="130.517 27.932 142.489 27.932 143.44 25.238 129.566 25.238"/><polygon id="Path" fill="#5B76D2" points="132.514 33.588 140.492 33.588 141.443 30.895 131.563 30.895"/><polygon id="Path" fill="#5B76D2" points="134.511 39.245 138.495 39.245 139.446 36.551 133.56 36.551"/><polygon id="Path" fill="#5B76D2" points="136.503 44.887 137.449 42.208 135.557 42.208"/><polygon id="Path" fill="#5B76D2" points="143.506 2.612 142.572 5.306 160.206 5.306 160.206 2.612"/><polygon id="Path" fill="#5B76D2" points="154.28 13.925 139.581 13.925 138.647 16.619 154.28 16.619"/><polygon id="Path" fill="#5B76D2" points="145.391 22.275 154.28 22.275 154.28 19.582 137.619 19.582 136.684 22.275 144.486 22.275 145.391 19.71"/><polygon id="Path" fill="#5B76D2" points="145.391 27.932 154.28 27.932 154.28 25.238 145.391 25.238"/><polygon id="Path" fill="#5B76D2" points="145.391 33.588 154.28 33.588 154.28 30.895 145.391 30.895"/><polygon id="Path" fill="#5B76D2" points="145.391 39.245 160.206 39.245 160.206 36.551 145.391 36.551"/><polygon id="Path" fill="#5B76D2" points="145.391 44.901 160.206 44.901 160.206 42.208 145.391 42.208"/><polygon id="Path" fill="#5B76D2" points="118.725 27.932 127.614 27.932 127.614 25.238 118.725 25.238"/><polygon id="Path" fill="#5B76D2" points="118.725 33.588 127.614 33.588 127.614 30.895 118.725 30.895"/><polygon id="Path" fill="#5B76D2" points="112.799 39.245 127.614 39.245 127.614 36.551 112.799 36.551"/><polygon id="Path" fill="#5B76D2" points="112.799 44.901 127.614 44.901 127.614 42.208 112.799 42.208"/><path id="Path" fill="#DE9950" d="M72.0205237,40.590095 C73.5114004,43.7663224 76.7406905,45.9782609 80.4814847,45.9782609 C84.2249725,45.9782609 87.4335223,43.769824 88.9230523,40.590095 L72.0205237,40.590095 Z"/><polygon id="Path" fill="#DE9950" points="89.801 31.251 71.122 31.251 71.122 36.28 89.8 36.28"/><polygon id="Path" fill="#DE9950" points="89.801 21.911 71.122 21.911 71.122 26.94 89.8 26.94"/><path id="Path" fill="#DE9950" d="M88.9230523,17.6009646 C87.4321755,14.4250066 84.2023467,12.2127988 80.4618218,12.2127988 C76.7183341,12.2127988 73.5097843,14.4212357 72.0205237,17.601234 L88.9230523,17.6009646 Z"/><path id="Path" fill="#3F6C45" d="M51.3661573,29.8083763 C51.3661573,33.9558957 54.7616392,37.3414114 58.9096972,37.3414114 C62.8937185,37.3414114 65.2532632,34.603693 66.1890005,31.8129119 L71.122496,16.1483362 L56.4914333,22.6158052 C53.5266491,23.945608 51.3661573,26.2946479 51.3661573,29.8083763 Z"/><path id="Path" fill="#E89DA8" d="M85.857799,1.79605528 C83.4818236,1.79605528 81.5551314,3.72220874 81.5551314,6.09845343 C81.5551314,8.47469813 83.4818236,10.4008516 85.857799,10.4008516 C88.2340436,10.4008516 90.1604665,8.47469813 90.1604665,6.09845343 C90.1604665,3.72220874 88.2340436,1.79605528 85.857799,1.79605528 Z"/><path id="Path" fill="#E89DA8" d="M75.0658447,1.79605528 C72.6896,1.79605528 70.7631772,3.72220874 70.7631772,6.09845343 C70.7631772,8.47469813 72.6896,10.4008516 75.0658447,10.4008516 C77.4420894,10.4008516 79.3682429,8.47469813 79.3682429,6.09845343 C79.3682429,3.72220874 77.4420894,1.79605528 75.0658447,1.79605528 Z"/><path id="Path" fill="#CA6040" d="M22.9891304,-5.24527282e-13 C13.7931012,-5.24527282e-13 5.76283783,5.19800161 1.43673648,12.9314364 L1.43673648,17.2419152 C6.58463816,11.0960554 14.3277697,7.18395175 22.9891304,7.18395175 C31.6504912,7.18395175 39.3933534,11.0960554 44.541255,17.2419152 L44.541255,12.9314364 C40.215423,5.19800161 32.1851597,-5.24527282e-13 22.9891304,-5.24527282e-13 Z"/><path id="Path" fill="#FFF" d="M45.9782609,30.1733515 C42.1932926,39.4604226 33.325337,45.9779915 22.9891304,45.9779915 C12.6529239,45.9779915 3.78496832,39.4604226 0,30.1733515 C3.78496832,20.8857418 12.6529239,14.3681729 22.9891304,14.3681729 C33.325337,14.3681729 42.1932926,20.8857418 45.9782609,30.1733515 Z"/><path id="Path" fill="#A88B6E" d="M35.9202975,30.1733515 C35.9202975,23.0314191 30.1307935,17.2419152 22.9891304,17.2419152 C15.847198,17.2419152 10.0576941,23.0314191 10.0576941,30.1733515 C10.0576941,37.3150146 15.847198,43.1045186 22.9891304,43.1045186 C30.1307935,43.1045186 35.9202975,37.3150146 35.9202975,30.1733515 Z"/><path id="Path" fill="#000" d="M28.7363457,30.1733515 C28.7363457,33.347424 26.1632029,35.9202975 22.9891304,35.9202975 C19.8147886,35.9202975 17.2419152,33.347424 17.2419152,30.1733515 C17.2419152,26.9990097 19.8147886,24.4258669 22.9891304,24.4258669 C26.1632029,24.4258669 28.7363457,26.9990097 28.7363457,30.1733515 L28.7363457,30.1733515 Z"/></g></g></g></g></svg>