<?xml version="1.0" encoding="UTF-8"?>
<svg width="288px" height="288px" viewBox="0 0 288 288" version="1.1" xmlns="http://www.w3.org/2000/svg" xmlns:xlink="http://www.w3.org/1999/xlink">
    <!-- Generator: Sketch 64 (93537) - https://sketch.com -->
    <title>Group 21</title>
    <desc>Created with Sketch.</desc>
    <g id="Desktop" stroke="none" stroke-width="1" fill="none" fill-rule="evenodd">
        <g id="IDL-Rebus" transform="translate(-352.000000, -4763.000000)">
            <g id="Group-21" transform="translate(352.000000, 4763.000000)">
                <rect id="bg-grey-30" fill="#C6C6C6" x="0" y="0" width="288" height="288"></rect>
                <path d="M169.024265,145.110259 L153.749851,138.358405 L158.899999,154.711778 C159.877163,157.625274 162.34018,160.483374 166.499666,160.483374 C170.830121,160.483374 174.374627,156.948992 174.374627,152.619099 C174.374627,148.950866 172.119416,146.498535 169.024265,145.110259 Z M177.759411,127.039327 L177.759411,123.946145 L195.474909,123.946145 L196.550774,127.039327 L177.759411,127.039327 Z M177.759411,132.944493 L177.759411,129.851311 L197.528501,129.851311 L198.604084,132.944493 L177.759411,132.944493 Z M211.784415,168.375488 L227.250325,168.375488 L227.250325,165.282306 L211.784415,165.282306 L211.784415,168.375488 Z M211.784415,162.470322 L227.250325,162.470322 L227.250325,159.37714 L211.784415,159.37714 L211.784415,162.470322 Z M211.784415,156.565156 L221.063961,156.565156 L221.063961,153.471974 L211.784415,153.471974 L211.784415,156.565156 Z M211.784415,150.65999 L221.063961,150.65999 L221.063961,147.566808 L211.784415,147.566808 L211.784415,150.65999 Z M211.784415,141.912471 L210.786723,144.754824 L194.223295,144.754824 L193.225322,141.91219 L193.225322,144.754824 L183.945776,144.754824 L183.945776,141.661642 L201.635684,141.661642 L202.504868,144.161777 L203.374334,141.661642 L221.063961,141.661642 L221.063961,144.754824 L211.784415,144.754824 L211.784415,141.912471 Z M221.063961,138.849658 L204.352342,138.849658 L205.427925,135.756476 L221.063961,135.756476 L221.063961,138.849658 Z M183.945776,150.65999 L193.225322,150.65999 L193.225322,147.566808 L183.945776,147.566808 L183.945776,150.65999 Z M183.945776,156.565156 L193.225322,156.565156 L193.225322,153.471974 L183.945776,153.471974 L183.945776,156.565156 Z M177.759411,162.470322 L193.225322,162.470322 L193.225322,159.37714 L177.759411,159.37714 L177.759411,162.470322 Z M177.759411,168.375488 L193.225322,168.375488 L193.225322,165.282306 L177.759411,165.282306 L177.759411,168.375488 Z M227.250325,123.946145 L227.250325,127.039327 L208.459244,127.039327 L209.534546,123.946145 L227.250325,123.946145 Z M207.481517,129.851311 L227.250325,129.851311 L227.250325,132.944493 L206.405652,132.944493 L207.481517,129.851311 Z M183.945776,135.756476 L199.581811,135.756476 L200.657676,138.849658 L183.945776,138.849658 L183.945776,135.756476 Z M195.210582,147.566808 L209.799435,147.566808 L208.713447,150.65999 L196.296289,150.65999 L195.210582,147.566808 Z M197.283577,153.471974 L207.726441,153.471974 L206.640172,156.565156 L198.369284,156.565156 L197.283577,153.471974 Z M199.356571,159.37714 L205.653446,159.37714 L204.567177,162.470322 L200.442559,162.470322 L199.356571,159.37714 Z M201.429566,165.282306 L203.580171,165.282306 L202.500088,168.375488 L201.429566,165.282306 Z M135.187384,163.874908 C136.743817,167.190799 140.115104,169.5 144.020387,169.5 C147.928482,169.5 151.278117,167.194455 152.833144,163.874908 L135.187384,163.874908 Z M153.749851,154.124917 L134.249868,154.124917 L134.249868,159.37489 L153.748726,159.37489 L153.749851,154.124917 Z M153.749851,144.374925 L134.249868,144.374925 L134.249868,149.624899 L153.748726,149.624899 L153.749851,144.374925 Z M152.833144,139.874908 C151.276711,136.559298 147.904861,134.249815 143.999859,134.249815 C140.091764,134.249815 136.742129,136.555361 135.187384,139.875189 L152.833144,139.874908 Z M113.624811,152.619099 C113.624811,156.948992 117.169598,160.483374 121.500053,160.483374 C125.659258,160.483374 128.122556,157.625274 129.099439,154.711778 L134.249868,138.358405 L118.975454,145.110259 C115.880303,146.498535 113.624811,148.950866 113.624811,152.619099 Z M149.633106,123.375031 C147.152656,123.375031 145.141244,125.38588 145.141244,127.866612 C145.141244,130.347344 147.152656,132.358194 149.633106,132.358194 C152.113838,132.358194 154.124969,130.347344 154.124969,127.866612 C154.124969,125.38588 152.113838,123.375031 149.633106,123.375031 Z M138.366612,123.375031 C135.88588,123.375031 133.87475,125.38588 133.87475,127.866612 C133.87475,130.347344 135.88588,132.358194 138.366612,132.358194 C140.847344,132.358194 142.858194,130.347344 142.858194,127.866612 C142.858194,125.38588 140.847344,123.375031 138.366612,123.375031 Z M84,121.5 C74.3996063,121.5 66.0162392,126.926566 61.4999121,135.000053 L61.4999121,139.50007 C66.8741754,133.083967 74.9577851,128.999842 84,128.999842 C93.0422149,128.999842 101.125543,133.083967 106.499807,139.50007 L106.499807,135.000053 C101.983761,126.926566 93.6003937,121.5 84,121.5 Z M97.4997715,153.000123 C97.4997715,145.544148 91.4556937,139.50007 84,139.50007 C76.5440251,139.50007 70.4999473,145.544148 70.4999473,153.000123 C70.4999473,160.455817 76.5440251,166.499895 84,166.499895 C91.4556937,166.499895 97.4997715,160.455817 97.4997715,153.000123 Z M108,153.000123 C104.0486,162.695562 94.7907064,169.499719 84,169.499719 C73.2092936,169.499719 63.9513995,162.695562 60,153.000123 C63.9513995,143.304122 73.2092936,136.499965 84,136.499965 C94.7907064,136.499965 104.0486,143.304122 108,153.000123 Z M89.9999297,153.000123 C89.9999297,156.313765 87.3136416,158.999772 84,158.999772 C80.6860772,158.999772 78.0000703,156.313765 78.0000703,153.000123 C78.0000703,149.6862 80.6860772,146.999912 84,146.999912 C87.3136416,146.999912 89.9999297,149.6862 89.9999297,153.000123 L89.9999297,153.000123 Z" id="IBM_rebus_h_pos_black_RGB" fill="#000000"></path>
            </g>
        </g>
    </g>
</svg>
