<?xml version="1.0" encoding="UTF-8"?>
<svg width="288px" height="288px" viewBox="0 0 288 288" version="1.1" xmlns="http://www.w3.org/2000/svg" xmlns:xlink="http://www.w3.org/1999/xlink">
    <!-- Generator: Sketch 64 (93537) - https://sketch.com -->
    <title>Group 28</title>
    <desc>Created with Sketch.</desc>
    <g id="Desktop" stroke="none" stroke-width="1" fill="none" fill-rule="evenodd">
        <g id="IDL-Rebus" transform="translate(-672.000000, -4763.000000)">
            <g id="Group-28" transform="translate(672.000000, 4763.000000)">
                <rect id="bg-blue-20" fill="#D0E2FF" x="0" y="0" width="288" height="288"></rect>
                <path d="M169.399103,145.110259 L154.124688,138.358405 L159.274836,154.711778 C160.252001,157.625274 162.715017,160.483374 166.874504,160.483374 C171.204958,160.483374 174.749464,156.948992 174.749464,152.619099 C174.749464,148.950866 172.494253,146.498535 169.399103,145.110259 Z M178.134249,127.039327 L178.134249,123.946145 L195.849746,123.946145 L196.925611,127.039327 L178.134249,127.039327 Z M178.134249,132.944493 L178.134249,129.851311 L197.903338,129.851311 L198.978922,132.944493 L178.134249,132.944493 Z M212.159252,168.375488 L227.625163,168.375488 L227.625163,165.282306 L212.159252,165.282306 L212.159252,168.375488 Z M212.159252,162.470322 L227.625163,162.470322 L227.625163,159.37714 L212.159252,159.37714 L212.159252,162.470322 Z M212.159252,156.565156 L221.438798,156.565156 L221.438798,153.471974 L212.159252,153.471974 L212.159252,156.565156 Z M212.159252,150.65999 L221.438798,150.65999 L221.438798,147.566808 L212.159252,147.566808 L212.159252,150.65999 Z M212.159252,141.912471 L211.16156,144.754824 L194.598132,144.754824 L193.600159,141.91219 L193.600159,144.754824 L184.320613,144.754824 L184.320613,141.661642 L202.010522,141.661642 L202.879706,144.161777 L203.749171,141.661642 L221.438798,141.661642 L221.438798,144.754824 L212.159252,144.754824 L212.159252,141.912471 Z M221.438798,138.849658 L204.727179,138.849658 L205.802763,135.756476 L221.438798,135.756476 L221.438798,138.849658 Z M184.320613,150.65999 L193.600159,150.65999 L193.600159,147.566808 L184.320613,147.566808 L184.320613,150.65999 Z M184.320613,156.565156 L193.600159,156.565156 L193.600159,153.471974 L184.320613,153.471974 L184.320613,156.565156 Z M178.134249,162.470322 L193.600159,162.470322 L193.600159,159.37714 L178.134249,159.37714 L178.134249,162.470322 Z M178.134249,168.375488 L193.600159,168.375488 L193.600159,165.282306 L178.134249,165.282306 L178.134249,168.375488 Z M227.625163,123.946145 L227.625163,127.039327 L208.834081,127.039327 L209.909384,123.946145 L227.625163,123.946145 Z M207.856354,129.851311 L227.625163,129.851311 L227.625163,132.944493 L206.78049,132.944493 L207.856354,129.851311 Z M184.320613,135.756476 L199.956649,135.756476 L201.032514,138.849658 L184.320613,138.849658 L184.320613,135.756476 Z M195.58542,147.566808 L210.174273,147.566808 L209.088285,150.65999 L196.671127,150.65999 L195.58542,147.566808 Z M197.658414,153.471974 L208.101278,153.471974 L207.015009,156.565156 L198.744121,156.565156 L197.658414,153.471974 Z M199.731409,159.37714 L206.028284,159.37714 L204.942015,162.470322 L200.817397,162.470322 L199.731409,159.37714 Z M201.804403,165.282306 L203.955008,165.282306 L202.874925,168.375488 L201.804403,165.282306 Z M135.562221,163.874908 C137.118654,167.190799 140.489941,169.5 144.395224,169.5 C148.303319,169.5 151.652954,167.194455 153.207981,163.874908 L135.562221,163.874908 Z M154.124688,154.124917 L134.624706,154.124917 L134.624706,159.37489 L154.123563,159.37489 L154.124688,154.124917 Z M154.124688,144.374925 L134.624706,144.374925 L134.624706,149.624899 L154.123563,149.624899 L154.124688,144.374925 Z M153.207981,139.874908 C151.651548,136.559298 148.279699,134.249815 144.374697,134.249815 C140.466602,134.249815 137.116967,136.555361 135.562221,139.875189 L153.207981,139.874908 Z M113.999649,152.619099 C113.999649,156.948992 117.544435,160.483374 121.87489,160.483374 C126.034095,160.483374 128.497393,157.625274 129.474276,154.711778 L134.624706,138.358405 L119.350291,145.110259 C116.255141,146.498535 113.999649,148.950866 113.999649,152.619099 Z M150.007944,123.375031 C147.527493,123.375031 145.516081,125.38588 145.516081,127.866612 C145.516081,130.347344 147.527493,132.358194 150.007944,132.358194 C152.488676,132.358194 154.499807,130.347344 154.499807,127.866612 C154.499807,125.38588 152.488676,123.375031 150.007944,123.375031 Z M138.74145,123.375031 C136.260718,123.375031 134.249587,125.38588 134.249587,127.866612 C134.249587,130.347344 136.260718,132.358194 138.74145,132.358194 C141.222182,132.358194 143.233031,130.347344 143.233031,127.866612 C143.233031,125.38588 141.222182,123.375031 138.74145,123.375031 Z M84.3748374,121.5 C74.7744438,121.5 66.3910766,126.926566 61.8747496,135.000053 L61.8747496,139.50007 C67.2490129,133.083967 75.3326225,128.999842 84.3748374,128.999842 C93.4170523,128.999842 101.500381,133.083967 106.874644,139.50007 L106.874644,135.000053 C102.358598,126.926566 93.9752311,121.5 84.3748374,121.5 Z M97.874609,153.000123 C97.874609,145.544148 91.8305311,139.50007 84.3748374,139.50007 C76.9188626,139.50007 70.8747847,145.544148 70.8747847,153.000123 C70.8747847,160.455817 76.9188626,166.499895 84.3748374,166.499895 C91.8305311,166.499895 97.874609,160.455817 97.874609,153.000123 Z M108.374837,153.000123 C104.423438,162.695562 95.1655438,169.499719 84.3748374,169.499719 C73.584131,169.499719 64.326237,162.695562 60.3748374,153.000123 C64.326237,143.304122 73.584131,136.499965 84.3748374,136.499965 C95.1655438,136.499965 104.423438,143.304122 108.374837,153.000123 Z M90.3747671,153.000123 C90.3747671,156.313765 87.6884791,158.999772 84.3748374,158.999772 C81.0609146,158.999772 78.3749077,156.313765 78.3749077,153.000123 C78.3749077,149.6862 81.0609146,146.999912 84.3748374,146.999912 C87.6884791,146.999912 90.3747671,149.6862 90.3747671,153.000123 L90.3747671,153.000123 Z" id="IBM_rebus_h_pos_black_RGB-Copy" fill="#0043CE"></path>
            </g>
        </g>
    </g>
</svg>