<svg xmlns="http://www.w3.org/2000/svg" xmlns:xlink="http://www.w3.org/1999/xlink" width="288" height="288" version="1.1" viewBox="0 0 288 288"><title>Group 42</title><desc>Created with Sketch.</desc><g id="Desktop" fill="none" fill-rule="evenodd" stroke="none" stroke-width="1"><g id="Icons-Copy-4" transform="translate(-353.000000, -16374.000000)"><g id="Group-42" transform="translate(353.000000, 16374.000000)"><g id="Group-74" fill="#FFF"><polygon id="Background" points="0 0 288 0 288 288 0 288"/></g><g id="Group-2" fill="#000" fill-rule="nonzero" transform="translate(49.000000, 119.000000)"><g id="Group" transform="translate(105.111111, 0.000000)"><polygon id="Rectangle-path" points=".652 45.929 26.726 45.929 26.726 49.366 .652 49.366"/><polygon id="Rectangle-path" points=".652 39.368 26.726 39.368 26.726 42.805 .652 42.805"/><polygon id="Rectangle-path" points="11.081 32.807 26.726 32.807 26.726 36.243 11.081 36.243"/><polygon id="Rectangle-path" points="11.081 26.245 26.726 26.245 26.726 29.682 11.081 29.682"/><polygon id="Shape" points="33.979 6.561 .652 6.561 .652 9.998 35.781 9.998"/><polygon id="Shape" points="30.519 0 .652 0 .652 3.437 32.32 3.437"/><polygon id="Rectangle-path" points="58.015 45.929 84.089 45.929 84.089 49.366 58.015 49.366"/><polygon id="Rectangle-path" points="58.015 39.368 84.089 39.368 84.089 42.805 58.015 42.805"/><polygon id="Rectangle-path" points="58.015 32.807 73.659 32.807 73.659 36.243 58.015 36.243"/><polygon id="Rectangle-path" points="58.015 26.245 73.659 26.245 73.659 29.682 58.015 29.682"/><polygon id="Shape" points="58.015 23.121 73.659 23.121 73.659 19.684 58.015 19.684 58.015 19.684 43.84 19.684 42.37 22.465 40.901 19.684 26.726 19.684 26.726 19.684 11.081 19.684 11.081 23.121 26.726 23.121 26.726 19.965 28.385 23.121 56.356 23.121 58.015 19.965"/><polygon id="Shape" points="73.659 13.123 47.301 13.123 45.499 16.559 73.659 16.559"/><polygon id="Shape" points="54.222 0 52.421 3.437 84.089 3.437 84.089 0"/><polygon id="Shape" points="42.37 49.335 44.172 45.929 40.569 45.929"/><polygon id="Shape" points="38.91 42.805 45.831 42.805 47.68 39.368 37.061 39.368"/><polygon id="Shape" points="35.401 36.243 49.339 36.243 51.188 32.807 33.553 32.807"/><polygon id="Shape" points="31.893 29.682 52.847 29.682 54.649 26.245 30.092 26.245"/><polygon id="Shape" points="11.081 16.559 39.241 16.559 37.44 13.123 11.081 13.123"/><polygon id="Shape" points="48.96 9.998 84.089 9.998 84.089 6.561 50.761 6.561"/></g><g id="Group-12"><polygon id="Rectangle-path" points="0 45.929 36.817 45.929 36.817 49.366 0 49.366"/><polygon id="Rectangle-path" points="0 39.368 36.817 39.368 36.817 42.805 0 42.805"/><polygon id="Rectangle-path" points="10.519 32.807 26.298 32.807 26.298 36.243 10.519 36.243"/><polygon id="Rectangle-path" points="10.519 26.245 26.298 26.245 26.298 29.682 10.519 29.682"/><polygon id="Rectangle-path" points="10.519 19.684 26.298 19.684 26.298 23.121 10.519 23.121"/><polygon id="Rectangle-path" points="10.519 13.123 26.298 13.123 26.298 16.559 10.519 16.559"/><rect id="Rectangle-path" width="36.817" height="3.437" x="0" y="6.561"/><rect id="Rectangle-path" width="36.817" height="3.437" x="0" y="0"/></g><g id="Group-20" transform="translate(41.130435, 0.000000)"><path id="Shape" d="M0.659285658,42.8047123 L57.4297743,42.8047123 C58.3887352,41.7424056 59.107956,40.5863659 59.5394884,39.3678376 L0.659285658,39.3678376 L0.659285658,42.8047123 Z"/><path id="Shape" d="M53.0185539,26.2452251 L11.2078562,26.2452251 L11.2078562,29.6820998 L57.4297743,29.6820998 C56.2310731,28.3698385 54.7446836,27.2137989 53.0185539,26.2452251 Z"/><path id="Shape" d="M11.2078562,19.6839188 L11.2078562,23.1207935 L53.0185539,23.1207935 C54.7926317,22.1522197 56.2790211,20.9961801 57.4297743,19.6839188 L11.2078562,19.6839188 Z"/><path id="Shape" d="M57.4297743,6.56130627 L0.659285658,6.56130627 L0.659285658,9.99818098 L59.5394884,9.99818098 C59.0600079,8.77965267 58.3407872,7.623613 57.4297743,6.56130627 Z"/><path id="Shape" d="M39.9766849,0 L0.659285658,0 L0.659285658,3.43687471 L53.5459824,3.43687471 C49.9978269,1.31226125 45.2030221,0 39.9766849,0 Z"/><polygon id="Rectangle-path" points="11.208 13.123 27.031 13.123 27.031 16.559 11.208 16.559"/><path id="Shape" d="M42.8535678,16.5594873 L59.3956443,16.5594873 C59.8751247,15.4659362 60.114865,14.3098965 60.114865,13.1226125 L42.8535678,13.1226125 L42.8535678,16.5594873 Z"/><polygon id="Rectangle-path" points="11.208 32.807 27.031 32.807 27.031 36.243 11.208 36.243"/><path id="Shape" d="M42.8535678,32.8065313 L42.8535678,36.2434061 L60.114865,36.2434061 C60.114865,35.0561221 59.8751247,33.9000824 59.3956443,32.8065313 L42.8535678,32.8065313 Z"/><path id="Shape" d="M0.659285658,49.3347743 L39.9766849,49.3660186 C45.2509701,49.3660186 49.9978269,48.0537573 53.5459824,45.9291439 L0.659285658,45.9291439 L0.659285658,49.3347743 Z"/></g></g></g></g></g></svg>