<svg xmlns="http://www.w3.org/2000/svg" xmlns:xlink="http://www.w3.org/1999/xlink" width="288" height="288" version="1.1" viewBox="0 0 288 288"><title>Group 43</title><desc>Created with Sketch.</desc><g id="Desktop" fill="none" fill-rule="evenodd" stroke="none" stroke-width="1"><g id="Icons-Copy-4" transform="translate(-673.000000, -16374.000000)"><g id="Group-43" transform="translate(673.000000, 16374.000000)"><g id="Group-74" fill="#FFF"><polygon id="Background" points="0 0 288 0 288 288 0 288"/></g><g id="Group-49" fill="#000" fill-rule="nonzero" transform="translate(50.000000, 112.000000)"><g id="Group" transform="translate(115.666667, 0.000000)"><polygon id="Rectangle-path" points=".556 59.708 22.778 59.708 22.778 64.176 .556 64.176"/><polygon id="Rectangle-path" points=".556 51.178 22.778 51.178 22.778 55.646 .556 55.646"/><polygon id="Rectangle-path" points="9.444 42.648 22.778 42.648 22.778 47.116 9.444 47.116"/><polygon id="Rectangle-path" points="9.444 34.119 22.778 34.119 22.778 38.587 9.444 38.587"/><polygon id="Shape" points="28.96 8.53 .556 8.53 .556 12.998 30.495 12.998"/><polygon id="Shape" points="26.01 0 .556 0 .556 4.468 27.545 4.468"/><polygon id="Rectangle-path" points="49.444 59.708 71.667 59.708 71.667 64.176 49.444 64.176"/><polygon id="Rectangle-path" points="49.444 51.178 71.667 51.178 71.667 55.646 49.444 55.646"/><polygon id="Rectangle-path" points="49.444 42.648 62.778 42.648 62.778 47.116 49.444 47.116"/><polygon id="Rectangle-path" points="49.444 34.119 62.778 34.119 62.778 38.587 49.444 38.587"/><polygon id="Shape" points="49.444 30.057 62.778 30.057 62.778 25.589 49.444 25.589 49.444 25.589 37.364 25.589 36.111 29.204 34.859 25.589 22.778 25.589 22.778 25.589 9.444 25.589 9.444 30.057 22.778 30.057 22.778 25.955 24.192 30.057 48.03 30.057 49.444 25.955"/><polygon id="Shape" points="62.778 17.059 40.313 17.059 38.778 21.527 62.778 21.527"/><polygon id="Shape" points="46.212 0 44.677 4.468 71.667 4.468 71.667 0"/><polygon id="Shape" points="36.111 64.135 37.646 59.708 34.576 59.708"/><polygon id="Shape" points="33.162 55.646 39.061 55.646 40.636 51.178 31.586 51.178"/><polygon id="Shape" points="30.172 47.116 42.051 47.116 43.626 42.648 28.596 42.648"/><polygon id="Shape" points="27.182 38.587 45.04 38.587 46.576 34.119 25.646 34.119"/><polygon id="Shape" points="9.444 21.527 33.444 21.527 31.909 17.059 9.444 17.059"/><polygon id="Shape" points="41.727 12.998 71.667 12.998 71.667 8.53 43.263 8.53"/></g><g id="Group-12"><polygon id="Rectangle-path" points="0 59.708 31.111 59.708 31.111 64.176 0 64.176"/><polygon id="Rectangle-path" points="0 51.178 31.111 51.178 31.111 55.646 0 55.646"/><polygon id="Rectangle-path" points="8.889 42.648 22.222 42.648 22.222 47.116 8.889 47.116"/><polygon id="Rectangle-path" points="8.889 34.119 22.222 34.119 22.222 38.587 8.889 38.587"/><polygon id="Rectangle-path" points="8.889 25.589 22.222 25.589 22.222 30.057 8.889 30.057"/><polygon id="Rectangle-path" points="8.889 17.059 22.222 17.059 22.222 21.527 8.889 21.527"/><rect id="Rectangle-path" width="31.111" height="4.468" x="0" y="8.53"/><rect id="Rectangle-path" width="31.111" height="4.468" x="0" y="0"/></g><g id="Group-20" transform="translate(48.666667, 0.000000)"><path id="Shape" d="M0.555555556,55.646126 L48.3939394,55.646126 C49.2020202,54.2651273 49.8080808,52.7622757 50.1717172,51.1781889 L0.555555556,51.1781889 L0.555555556,55.646126 Z"/><path id="Shape" d="M44.6767677,34.1187926 L9.44444444,34.1187926 L9.44444444,38.5867297 L48.3939394,38.5867297 C47.3838384,36.8807901 46.1313131,35.3779385 44.6767677,34.1187926 Z"/><path id="Shape" d="M9.44444444,25.5890944 L9.44444444,30.0570316 L44.6767677,30.0570316 C46.1717172,28.7978857 47.4242424,27.2950341 48.3939394,25.5890944 L9.44444444,25.5890944 Z"/><path id="Shape" d="M48.3939394,8.52969815 L0.555555556,8.52969815 L0.555555556,12.9976353 L50.1717172,12.9976353 C49.7676768,11.4135485 49.1616162,9.9106969 48.3939394,8.52969815 Z"/><path id="Shape" d="M33.6868687,0 L0.555555556,0 L0.555555556,4.46793713 L45.1212121,4.46793713 C42.1313131,1.70593963 38.0909091,0 33.6868687,0 Z"/><polygon id="Rectangle-path" points="9.444 17.059 22.778 17.059 22.778 21.527 9.444 21.527"/><path id="Shape" d="M36.1111111,21.5273334 L50.0505051,21.5273334 C50.4545455,20.1057171 50.6565657,18.6028655 50.6565657,17.0593963 L36.1111111,17.0593963 L36.1111111,21.5273334 Z"/><polygon id="Rectangle-path" points="9.444 42.648 22.778 42.648 22.778 47.116 9.444 47.116"/><path id="Shape" d="M36.1111111,42.6484907 L36.1111111,47.1164279 L50.6565657,47.1164279 C50.6565657,45.5729587 50.4545455,44.0701071 50.0505051,42.6484907 L36.1111111,42.6484907 Z"/><path id="Shape" d="M0.555555556,64.1352066 L33.6868687,64.1758242 C38.1313131,64.1758242 42.1313131,62.4698845 45.1212121,59.707887 L0.555555556,59.707887 L0.555555556,64.1352066 Z"/></g></g></g></g></g></svg>