<svg xmlns="http://www.w3.org/2000/svg" xmlns:xlink="http://www.w3.org/1999/xlink" width="288" height="288" version="1.1" viewBox="0 0 288 288"><title>Group 136</title><desc>Created with Sketch.</desc><g id="Desktop" fill="none" fill-rule="evenodd" stroke="none" stroke-width="1"><g id="Icons-Copy-4" transform="translate(-352.000000, -8426.000000)"><g id="Group-136" transform="translate(352.000000, 8426.000000)"><g id="Group-74" fill="#004548"><polygon id="Background" points="0 0 288 0 288 288 0 288"/></g><g id="Group-100" fill="#418CFF" fill-rule="nonzero" transform="translate(63.000000, 112.000000)"><rect id="Rectangle-path" width="31.663" height="4.112" x="0" y="60.695"/><rect id="Rectangle-path" width="31.663" height="4.112" x="0" y="52.059"/><rect id="Rectangle-path" width="13.57" height="4.112" x="9.047" y="43.424"/><rect id="Rectangle-path" width="13.57" height="4.112" x="9.047" y="34.788"/><rect id="Rectangle-path" width="13.57" height="4.112" x="9.047" y="26.153"/><rect id="Rectangle-path" width="13.57" height="4.112" x="9.047" y="17.518"/><rect id="Rectangle-path" width="31.663" height="4.112" x="0" y="8.882"/><rect id="Rectangle-path" width="31.663" height="4.112" x="0" y=".247"/><path id="Shape" d="M36.1866047,60.6948052 L36.1866047,64.8069194 L69.4947295,64.8069194 C73.7713283,64.8069194 77.6778367,63.244316 80.6796801,60.6948052 L36.1866047,60.6948052 Z"/><path id="Shape" d="M36.1866047,52.0593654 L36.1866047,56.1714796 L84.4628251,56.1714796 C85.2030057,54.8967242 85.7787017,53.4986054 86.1899131,52.0593654 L36.1866047,52.0593654 Z"/><polygon id="Shape" points="45.233 43.424 45.233 47.536 45.233 47.536 58.803 47.536 58.803 43.424"/><path id="Shape" d="M81.1320126,34.7884859 L45.2332559,34.7884859 L45.2332559,38.9006001 L84.4628251,38.9006001 C83.55816,37.3379967 82.4478892,35.9398779 81.1320126,34.7884859 Z"/><path id="Shape" d="M45.2332559,26.1530461 L45.2332559,30.2651603 L81.1320126,30.2651603 C82.4478892,29.0726472 83.55816,27.6745284 84.4628251,26.1530461 L45.2332559,26.1530461 Z"/><path id="Shape" d="M86.1487919,12.9942808 C85.7375805,11.5550408 85.1618845,10.156922 84.421704,8.88216661 L36.1866047,8.88216661 L36.1866047,12.9942808 L86.1487919,12.9942808 Z"/><path id="Shape" d="M80.6796801,4.35884102 C77.6778367,1.80933024 73.7713283,0.24672685 69.4947295,0.24672685 L36.1866047,0.24672685 L36.1866047,4.35884102 L80.6796801,4.35884102 Z"/><polygon id="Shape" points="45.233 17.518 45.233 21.63 45.233 21.63 58.803 21.63 58.803 17.518"/><path id="Shape" d="M72.3732094,21.6297206 L86.2721554,21.6297206 C86.6011245,20.313844 86.7656091,18.9157252 86.7656091,17.5176064 L72.3732094,17.5176064 L72.3732094,21.6297206 Z"/><path id="Shape" d="M72.3732094,43.4239257 L72.3732094,47.5360398 L86.7656091,47.5360398 C86.7656091,46.137921 86.6011245,44.7398022 86.2721554,43.4239257 L72.3732094,43.4239257 Z"/><rect id="Rectangle-path" width="22.617" height="4.112" x="90.467" y="60.654"/><rect id="Rectangle-path" width="22.617" height="4.112" x="90.467" y="52.018"/><rect id="Rectangle-path" width="13.57" height="4.112" x="99.513" y="43.383"/><rect id="Rectangle-path" width="13.57" height="4.112" x="99.513" y="34.747"/><rect id="Rectangle-path" width="13.57" height="4.112" x="99.513" y="26.112"/><rect id="Rectangle-path" width="22.617" height="4.112" x="140.223" y="60.654"/><rect id="Rectangle-path" width="22.617" height="4.112" x="140.223" y="52.018"/><rect id="Rectangle-path" width="13.57" height="4.112" x="140.223" y="43.383"/><rect id="Rectangle-path" width="13.57" height="4.112" x="140.223" y="34.747"/><polygon id="Shape" points="140.223 30.224 153.793 30.224 153.793 26.112 140.223 26.112 128.339 26.112 126.941 30.224 138.825 30.224 140.223 26.318"/><polygon id="Shape" points="153.793 17.476 131.341 17.476 129.943 21.589 153.793 21.589"/><polygon id="Shape" points="137.345 .206 135.905 4.318 162.84 4.318 162.84 .206"/><polygon id="Shape" points="126.653 64.725 128.092 60.654 125.214 60.654"/><polygon id="Shape" points="123.61 56.13 129.696 56.13 131.135 52.018 122.171 52.018"/><polygon id="Shape" points="120.567 47.495 132.739 47.495 134.178 43.383 119.128 43.383"/><polygon id="Shape" points="117.524 38.859 135.782 38.859 137.262 34.747 116.044 34.747"/><polygon id="Shape" points="124.967 26.112 113.083 26.112 113.083 26.318 114.481 30.224 126.365 30.224"/><polygon id="Shape" points="99.513 21.589 123.363 21.589 121.965 17.476 99.513 17.476"/><polygon id="Shape" points="132.904 12.953 162.84 12.953 162.84 8.841 134.343 8.841"/><polygon id="Shape" points="118.963 8.841 90.467 8.841 90.467 12.953 120.403 12.953"/><polygon id="Shape" points="115.962 .206 90.467 .206 90.467 4.318 117.401 4.318"/></g></g></g></g></svg>