<svg xmlns="http://www.w3.org/2000/svg" xmlns:xlink="http://www.w3.org/1999/xlink" width="288" height="288" version="1.1" viewBox="0 0 288 288"><title>Group 37</title><desc>Created with Sketch.</desc><g id="Desktop" fill="none" fill-rule="evenodd" stroke="none" stroke-width="1"><g id="Icons-Copy-4" transform="translate(-673.000000, -16027.000000)"><g id="Group-37" transform="translate(673.000000, 16027.000000)"><g id="Group-74" fill="#FFF"><polygon id="Background" points="0 0 288 0 288 288 0 288"/></g><g id="Group-Copy" fill="#DCDCDC" fill-rule="nonzero" stroke="#565656" transform="translate(64.000000, 112.000000)"><polygon id="Rectangle-path" points="0 59.708 31.111 59.708 31.111 64.176 0 64.176"/><polygon id="Rectangle-path" points="0 51.178 31.111 51.178 31.111 55.646 0 55.646"/><polygon id="Rectangle-path" points="8.889 42.648 22.222 42.648 22.222 47.116 8.889 47.116"/><polygon id="Rectangle-path" points="8.889 34.119 22.222 34.119 22.222 38.587 8.889 38.587"/><polygon id="Rectangle-path" points="8.889 25.589 22.222 25.589 22.222 30.057 8.889 30.057"/><polygon id="Rectangle-path" points="8.889 17.059 22.222 17.059 22.222 21.527 8.889 21.527"/><rect id="Rectangle-path" width="31.111" height="4.468" x="0" y="8.53"/><rect id="Rectangle-path" width="31.111" height="4.468" x="0" y="0"/><path id="Shape" d="M35.5555556,55.646126 L83.3939394,55.646126 C84.2020202,54.2651273 84.8080808,52.7622757 85.1717172,51.1781889 L35.5555556,51.1781889 L35.5555556,55.646126 Z"/><path id="Shape" d="M79.6767677,34.1187926 L44.4444444,34.1187926 L44.4444444,38.5867297 L83.3939394,38.5867297 C82.3838384,36.8807901 81.1313131,35.3779385 79.6767677,34.1187926 Z"/><path id="Shape" d="M44.4444444,25.5890944 L44.4444444,30.0570316 L79.6767677,30.0570316 C81.1717172,28.7978857 82.4242424,27.2950341 83.3939394,25.5890944 L44.4444444,25.5890944 Z"/><path id="Shape" d="M83.3939394,8.52969815 L35.5555556,8.52969815 L35.5555556,12.9976353 L85.1717172,12.9976353 C84.7676768,11.4135485 84.1616162,9.9106969 83.3939394,8.52969815 Z"/><path id="Shape" d="M68.6868687,0 L35.5555556,0 L35.5555556,4.46793713 L80.1212121,4.46793713 C77.1313131,1.70593963 73.0909091,0 68.6868687,0 Z"/><polygon id="Rectangle-path" points="44.444 17.059 57.778 17.059 57.778 21.527 44.444 21.527"/><path id="Shape" d="M71.1111111,21.5273334 L85.0505051,21.5273334 C85.4545455,20.1057171 85.6565657,18.6028655 85.6565657,17.0593963 L71.1111111,17.0593963 L71.1111111,21.5273334 Z"/><polygon id="Rectangle-path" points="44.444 42.648 57.778 42.648 57.778 47.116 44.444 47.116"/><path id="Shape" d="M71.1111111,42.6484907 L71.1111111,47.1164279 L85.6565657,47.1164279 C85.6565657,45.5729587 85.4545455,44.0701071 85.0505051,42.6484907 L71.1111111,42.6484907 Z"/><path id="Shape" d="M35.5555556,64.1352066 L68.6868687,64.1758242 C73.1313131,64.1758242 77.1313131,62.4698845 80.1212121,59.707887 L35.5555556,59.707887 L35.5555556,64.1352066 Z"/><polygon id="Rectangle-path" points="88.889 59.708 111.111 59.708 111.111 64.176 88.889 64.176"/><polygon id="Rectangle-path" points="88.889 51.178 111.111 51.178 111.111 55.646 88.889 55.646"/><polygon id="Rectangle-path" points="97.778 42.648 111.111 42.648 111.111 47.116 97.778 47.116"/><polygon id="Rectangle-path" points="97.778 34.119 111.111 34.119 111.111 38.587 97.778 38.587"/><polygon id="Shape" points="117.293 8.53 88.889 8.53 88.889 12.998 118.828 12.998"/><polygon id="Shape" points="114.343 0 88.889 0 88.889 4.468 115.879 4.468"/><polygon id="Rectangle-path" points="137.778 59.708 160 59.708 160 64.176 137.778 64.176"/><polygon id="Rectangle-path" points="137.778 51.178 160 51.178 160 55.646 137.778 55.646"/><polygon id="Rectangle-path" points="137.778 42.648 151.111 42.648 151.111 47.116 137.778 47.116"/><polygon id="Rectangle-path" points="137.778 34.119 151.111 34.119 151.111 38.587 137.778 38.587"/><polygon id="Shape" points="137.778 30.057 151.111 30.057 151.111 25.589 137.778 25.589 137.778 25.589 125.697 25.589 124.444 29.204 123.192 25.589 111.111 25.589 111.111 25.589 97.778 25.589 97.778 30.057 111.111 30.057 111.111 25.955 112.525 30.057 136.364 30.057 137.778 25.955"/><polygon id="Shape" points="151.111 17.059 128.646 17.059 127.111 21.527 151.111 21.527"/><polygon id="Shape" points="134.545 0 133.01 4.468 160 4.468 160 0"/><polygon id="Shape" points="124.444 64.135 125.98 59.708 122.909 59.708"/><polygon id="Shape" points="121.495 55.646 127.394 55.646 128.97 51.178 119.919 51.178"/><polygon id="Shape" points="118.505 47.116 130.384 47.116 131.96 42.648 116.929 42.648"/><polygon id="Shape" points="115.515 38.587 133.374 38.587 134.909 34.119 113.98 34.119"/><polygon id="Shape" points="97.778 21.527 121.778 21.527 120.242 17.059 97.778 17.059"/><polygon id="Shape" points="130.061 12.998 160 12.998 160 8.53 131.596 8.53"/></g></g></g></g></svg>