<svg xmlns="http://www.w3.org/2000/svg" viewBox="0 0 448 248"><g fill="none" fill-rule="evenodd"><path fill="#FFF" d="M0 0h448v248H0z"/><path d="M75.8 73.536h-7.992V96h-3.024V73.536h-7.992v-2.664H75.8v2.664zM79.652 96V69.36h2.88v11.088h.144c.9-2.088 2.484-3.456 5.256-3.456 3.816 0 6.228 2.592 6.228 7.092V96h-2.88V84.588c0-3.312-1.44-5.004-4.212-5.004-2.304 0-4.536 1.152-4.536 3.528V96h-2.88zm21.888-22.932c-1.224 0-1.764-.648-1.764-1.62v-.468c0-.972.54-1.62 1.764-1.62s1.764.648 1.764 1.62v.468c0 .972-.54 1.62-1.764 1.62zM100.1 96V77.424h2.88V96h-2.88zm14.58.432c-3.42 0-5.688-1.44-7.344-3.636l2.052-1.656c1.44 1.8 3.168 2.844 5.508 2.844 2.448 0 3.888-1.116 3.888-3.024 0-1.44-.792-2.556-3.24-2.916l-1.476-.216c-3.42-.504-5.976-1.908-5.976-5.364 0-3.672 2.844-5.472 6.624-5.472 2.988 0 4.968 1.116 6.48 2.988l-1.908 1.728c-.828-1.152-2.412-2.268-4.788-2.268-2.376 0-3.636 1.116-3.636 2.88 0 1.8 1.26 2.52 3.564 2.88l1.44.216c4.104.612 5.688 2.412 5.688 5.22 0 3.6-2.628 5.796-6.876 5.796zm21.888-23.364c-1.224 0-1.764-.648-1.764-1.62v-.468c0-.972.54-1.62 1.764-1.62s1.764.648 1.764 1.62v.468c0 .972-.54 1.62-1.764 1.62zM135.128 96V77.424h2.88V96h-2.88zm14.58.432c-3.42 0-5.688-1.44-7.344-3.636l2.052-1.656c1.44 1.8 3.168 2.844 5.508 2.844 2.448 0 3.888-1.116 3.888-3.024 0-1.44-.792-2.556-3.24-2.916l-1.476-.216c-3.42-.504-5.976-1.908-5.976-5.364 0-3.672 2.844-5.472 6.624-5.472 2.988 0 4.968 1.116 6.48 2.988l-1.908 1.728c-.828-1.152-2.412-2.268-4.788-2.268-2.376 0-3.636 1.116-3.636 2.88 0 1.8 1.26 2.52 3.564 2.88l1.44.216c4.104.612 5.688 2.412 5.688 5.22 0 3.6-2.628 5.796-6.876 5.796zM185.276 96h-1.62c-2.124 0-2.988-1.296-3.204-3.024h-.18c-.792 2.268-2.772 3.456-5.364 3.456-3.924 0-6.228-2.16-6.228-5.616 0-3.492 2.52-5.436 7.92-5.436h3.672v-1.836c0-2.628-1.44-4.068-4.392-4.068-2.232 0-3.708 1.08-4.716 2.772l-1.728-1.62c1.008-1.98 3.24-3.636 6.588-3.636 4.464 0 7.128 2.34 7.128 6.264V93.48h2.124V96zm-9.9-2.016c2.844 0 4.896-1.476 4.896-3.384v-3.06h-3.816c-3.276 0-4.752 1.008-4.752 2.808v.756c0 1.836 1.44 2.88 3.672 2.88zM200.756 96h-2.88V77.424h2.88v3.024h.144c.828-1.908 2.124-3.456 5.004-3.456 2.448 0 4.68 1.116 5.688 3.78h.072c.684-2.016 2.484-3.78 5.652-3.78 3.78 0 6.048 2.592 6.048 7.092V96h-2.88V84.588c0-3.276-1.26-5.004-4.068-5.004-2.268 0-4.356 1.152-4.356 3.528V96h-2.88V84.588c0-3.312-1.26-5.004-3.996-5.004-2.268 0-4.428 1.152-4.428 3.528V96zm35.532.432c-5.04 0-8.352-3.816-8.352-9.72 0-5.904 3.312-9.72 8.352-9.72 4.968 0 8.028 3.816 8.028 9.072v1.368H230.96v.864c0 3.204 2.052 5.616 5.508 5.616 2.34 0 4.14-1.152 5.112-3.204l2.052 1.476c-1.188 2.52-3.852 4.248-7.344 4.248zm0-17.028c-3.132 0-5.328 2.376-5.328 5.616v.252h10.26v-.396c0-3.276-1.98-5.472-4.932-5.472zm18.36 17.028c-3.42 0-5.688-1.44-7.344-3.636l2.052-1.656c1.44 1.8 3.168 2.844 5.508 2.844 2.448 0 3.888-1.116 3.888-3.024 0-1.44-.792-2.556-3.24-2.916l-1.476-.216c-3.42-.504-5.976-1.908-5.976-5.364 0-3.672 2.844-5.472 6.624-5.472 2.988 0 4.968 1.116 6.48 2.988l-1.908 1.728c-.828-1.152-2.412-2.268-4.788-2.268-2.376 0-3.636 1.116-3.636 2.88 0 1.8 1.26 2.52 3.564 2.88l1.44.216c4.104.612 5.688 2.412 5.688 5.22 0 3.6-2.628 5.796-6.876 5.796zm17.316 0c-3.42 0-5.688-1.44-7.344-3.636l2.052-1.656c1.44 1.8 3.168 2.844 5.508 2.844 2.448 0 3.888-1.116 3.888-3.024 0-1.44-.792-2.556-3.24-2.916l-1.476-.216c-3.42-.504-5.976-1.908-5.976-5.364 0-3.672 2.844-5.472 6.624-5.472 2.988 0 4.968 1.116 6.48 2.988l-1.908 1.728c-.828-1.152-2.412-2.268-4.788-2.268-2.376 0-3.636 1.116-3.636 2.88 0 1.8 1.26 2.52 3.564 2.88l1.44.216c4.104.612 5.688 2.412 5.688 5.22 0 3.6-2.628 5.796-6.876 5.796zM299.036 96h-1.62c-2.124 0-2.988-1.296-3.204-3.024h-.18c-.792 2.268-2.772 3.456-5.364 3.456-3.924 0-6.228-2.16-6.228-5.616 0-3.492 2.52-5.436 7.92-5.436h3.672v-1.836c0-2.628-1.44-4.068-4.392-4.068-2.232 0-3.708 1.08-4.716 2.772l-1.728-1.62c1.008-1.98 3.24-3.636 6.588-3.636 4.464 0 7.128 2.34 7.128 6.264V93.48h2.124V96zm-9.9-2.016c2.844 0 4.896-1.476 4.896-3.384v-3.06h-3.816c-3.276 0-4.752 1.008-4.752 2.808v.756c0 1.836 1.44 2.88 3.672 2.88zm29.664 4.068c0 3.816-3.024 5.58-9 5.58-5.796 0-8.172-1.656-8.172-4.572 0-2.016 1.116-3.096 2.952-3.6v-.396c-1.044-.504-1.656-1.332-1.656-2.592 0-1.872 1.332-2.772 3.204-3.24v-.144c-2.196-1.044-3.492-3.096-3.492-5.688 0-3.78 2.772-6.408 6.984-6.408 1.332 0 2.52.252 3.528.72v-.324c0-1.44.612-2.484 2.16-2.484h2.772v2.52h-3.528v1.188c1.332 1.152 2.124 2.808 2.124 4.788 0 3.78-2.772 6.408-7.02 6.408-.612 0-1.26-.072-1.8-.18-1.224.324-2.448.936-2.448 2.088 0 1.116 1.152 1.404 2.844 1.404h3.96c4.608 0 6.588 1.872 6.588 4.932zm-2.7.216c0-1.476-.972-2.448-3.852-2.448h-6.192c-1.188.54-1.728 1.368-1.728 2.52 0 1.62 1.116 2.952 4.032 2.952h2.664c3.204 0 5.076-1.008 5.076-3.024zm-6.444-10.764c2.448 0 3.996-1.152 3.996-3.6v-1.008c0-2.448-1.548-3.6-3.996-3.6s-3.996 1.152-3.996 3.6v1.008c0 2.448 1.548 3.6 3.996 3.6zm13.932-14.436c-1.224 0-1.764-.648-1.764-1.62v-.468c0-.972.54-1.62 1.764-1.62s1.764.648 1.764 1.62v.468c0 .972-.54 1.62-1.764 1.62zM322.148 96V77.424h2.88V96h-2.88zm11.88 0h-2.88V77.424h2.88v3.024h.144c.9-2.088 2.484-3.456 5.256-3.456 3.816 0 6.228 2.592 6.228 7.092V96h-2.88V84.588c0-3.312-1.44-5.004-4.212-5.004-2.304 0-4.536 1.152-4.536 3.528V96zm33.228 2.052c0 3.816-3.024 5.58-9 5.58-5.796 0-8.172-1.656-8.172-4.572 0-2.016 1.116-3.096 2.952-3.6v-.396c-1.044-.504-1.656-1.332-1.656-2.592 0-1.872 1.332-2.772 3.204-3.24v-.144c-2.196-1.044-3.492-3.096-3.492-5.688 0-3.78 2.772-6.408 6.984-6.408 1.332 0 2.52.252 3.528.72v-.324c0-1.44.612-2.484 2.16-2.484h2.772v2.52h-3.528v1.188c1.332 1.152 2.124 2.808 2.124 4.788 0 3.78-2.772 6.408-7.02 6.408-.612 0-1.26-.072-1.8-.18-1.224.324-2.448.936-2.448 2.088 0 1.116 1.152 1.404 2.844 1.404h3.96c4.608 0 6.588 1.872 6.588 4.932zm-2.7.216c0-1.476-.972-2.448-3.852-2.448h-6.192c-1.188.54-1.728 1.368-1.728 2.52 0 1.62 1.116 2.952 4.032 2.952h2.664c3.204 0 5.076-1.008 5.076-3.024zm-6.444-10.764c2.448 0 3.996-1.152 3.996-3.6v-1.008c0-2.448-1.548-3.6-3.996-3.6s-3.996 1.152-3.996 3.6v1.008c0 2.448 1.548 3.6 3.996 3.6zM66.044 140.432c-5.04 0-8.352-3.816-8.352-9.72 0-5.904 3.312-9.72 8.352-9.72 4.968 0 8.028 3.816 8.028 9.072v1.368H60.716v.864c0 3.204 2.052 5.616 5.508 5.616 2.34 0 4.14-1.152 5.112-3.204l2.052 1.476c-1.188 2.52-3.852 4.248-7.344 4.248zm0-17.028c-3.132 0-5.328 2.376-5.328 5.616v.252h10.26v-.396c0-3.276-1.98-5.472-4.932-5.472zM76.088 140l6.876-9.36-6.588-9.216h3.384l4.716 6.912h.108l4.896-6.912h3.204l-6.552 9L92.828 140h-3.384l-4.824-7.272h-.108L79.292 140h-3.204zm35.676 0h-1.62c-2.124 0-2.988-1.296-3.204-3.024h-.18c-.792 2.268-2.772 3.456-5.364 3.456-3.924 0-6.228-2.16-6.228-5.616 0-3.492 2.52-5.436 7.92-5.436h3.672v-1.836c0-2.628-1.44-4.068-4.392-4.068-2.232 0-3.708 1.08-4.716 2.772l-1.728-1.62c1.008-1.98 3.24-3.636 6.588-3.636 4.464 0 7.128 2.34 7.128 6.264v10.224h2.124V140zm-9.9-2.016c2.844 0 4.896-1.476 4.896-3.384v-3.06h-3.816c-3.276 0-4.752 1.008-4.752 2.808v.756c0 1.836 1.44 2.88 3.672 2.88zM118.748 140h-2.88v-18.576h2.88v3.024h.144c.828-1.908 2.124-3.456 5.004-3.456 2.448 0 4.68 1.116 5.688 3.78h.072c.684-2.016 2.484-3.78 5.652-3.78 3.78 0 6.048 2.592 6.048 7.092V140h-2.88v-11.412c0-3.276-1.26-5.004-4.068-5.004-2.268 0-4.356 1.152-4.356 3.528V140h-2.88v-11.412c0-3.312-1.26-5.004-3.996-5.004-2.268 0-4.428 1.152-4.428 3.528V140zm28.548 7.2v-25.776h2.88v3.024h.144c.972-2.34 2.88-3.456 5.436-3.456 4.644 0 7.56 3.78 7.56 9.72 0 5.94-2.916 9.72-7.56 9.72-2.556 0-4.32-1.152-5.436-3.456h-.144V147.2h-2.88zm7.668-9.36c3.24 0 5.256-2.232 5.256-5.544v-3.168c0-3.312-2.016-5.544-5.256-5.544-2.628 0-4.788 1.512-4.788 3.564v6.912c0 2.412 2.16 3.78 4.788 3.78zm18.828 2.16h-2.556c-1.98 0-3.06-1.26-3.06-2.988V113.36h2.88v24.12h2.736V140zm11.16.432c-5.04 0-8.352-3.816-8.352-9.72 0-5.904 3.312-9.72 8.352-9.72 4.968 0 8.028 3.816 8.028 9.072v1.368h-13.356v.864c0 3.204 2.052 5.616 5.508 5.616 2.34 0 4.14-1.152 5.112-3.204l2.052 1.476c-1.188 2.52-3.852 4.248-7.344 4.248zm0-17.028c-3.132 0-5.328 2.376-5.328 5.616v.252h10.26v-.396c0-3.276-1.98-5.472-4.932-5.472zM206.948 140l-1.008-18.576h2.664l.324 9.036.216 6.876h.18l2.844-6.084 4.608-9.828h2.7l.792 9.36.432 6.408h.18l2.736-6.264 4.212-9.504h2.7L222.068 140h-3.348l-.9-10.044-.252-4.752h-.18l-2.124 4.752L210.476 140h-3.528zm30.276-22.932c-1.116 0-1.512-.576-1.512-1.26 0-.144 0-.324.144-1.008.18-.9.756-1.44 1.944-1.44 1.116 0 1.512.576 1.512 1.26 0 .144 0 .324-.144 1.008-.18.9-.756 1.44-1.944 1.44zM236.54 140h-2.376c-1.692 0-2.52-.936-2.52-2.268 0-.252.036-.504.108-.864l3.096-15.444h2.772l-3.24 16.128h2.628L236.54 140zm11.052 0h-3.384c-1.692 0-2.52-.936-2.52-2.268 0-.252.036-.504.108-.864l2.628-12.996h-2.736l.468-2.448h1.404c1.332 0 1.62-.468 1.872-1.764l.684-3.384h2.556l-1.008 5.148h3.924l-.468 2.448h-3.924l-2.772 13.68h3.636l-.468 2.448zm4.536 0l5.364-26.64h2.772l-2.376 11.736h.18c1.296-2.772 3.024-4.104 5.688-4.104 3.204 0 4.788 1.944 4.788 5.148 0 .684-.072 1.512-.252 2.412l-1.8 9h2.628l-.468 2.448h-2.628c-1.368 0-2.304-.648-2.304-2.088 0-.216 0-.396.072-.756l1.728-8.604c.144-.72.18-1.476.18-1.908 0-2.088-.864-3.132-2.844-3.132-1.332 0-2.412.468-3.42 1.476-1.224 1.224-2.16 3.168-2.448 4.644L254.9 140h-2.772zm27.504.432c-3.888 0-6.696-2.592-6.696-7.632 0-6.228 3.888-11.808 9.576-11.808 3.888 0 6.696 2.592 6.696 7.632 0 6.228-3.888 11.808-9.576 11.808zm.36-2.484c2.664 0 5.004-2.016 5.76-5.796l.54-2.7c.108-.54.18-1.08.18-1.62 0-2.592-1.512-4.356-4.32-4.356-2.664 0-5.004 2.016-5.76 5.796l-.54 2.7a8.27 8.27 0 00-.18 1.62c0 2.592 1.512 4.356 4.32 4.356zm15.804-16.524h2.772l-2.304 11.448c-.144.72-.18 1.476-.18 1.908 0 2.052.792 3.132 2.772 3.132 1.296 0 2.376-.468 3.348-1.476 1.332-1.368 2.16-3.24 2.448-4.644l2.088-10.368h2.772l-3.24 16.128h2.628l-.468 2.448h-2.52c-1.584 0-2.376-.936-2.376-2.268 0-.252.036-.54.144-1.044l.072-.36h-.18c-1.296 2.808-3.024 4.104-5.58 4.104-3.168 0-4.752-1.944-4.752-5.148 0-.684.072-1.512.252-2.412l2.304-11.448zM319.484 140H316.1c-1.692 0-2.52-.936-2.52-2.268 0-.252.036-.504.108-.864l2.628-12.996h-2.736l.468-2.448h1.404c1.332 0 1.62-.468 1.872-1.764l.684-3.384h2.556l-1.008 5.148h3.924l-.468 2.448h-3.924l-2.772 13.68h3.636l-.468 2.448zm14.796 0v-26.64h2.88v11.088h.144c.972-2.34 2.88-3.456 5.436-3.456 4.644 0 7.56 3.78 7.56 9.72 0 5.94-2.916 9.72-7.56 9.72-2.556 0-4.32-1.152-5.436-3.456h-.144V140h-2.88zm7.668-2.16c3.24 0 5.256-2.232 5.256-5.544v-3.168c0-3.312-2.016-5.544-5.256-5.544-2.628 0-4.788 1.512-4.788 3.564v6.912c0 2.412 2.16 3.78 4.788 3.78zm20.196 2.592c-5.04 0-8.352-3.816-8.352-9.72 0-5.904 3.312-9.72 8.352-9.72 4.968 0 8.028 3.816 8.028 9.072v1.368h-13.356v.864c0 3.204 2.052 5.616 5.508 5.616 2.34 0 4.14-1.152 5.112-3.204l2.052 1.476c-1.188 2.52-3.852 4.248-7.344 4.248zm0-17.028c-3.132 0-5.328 2.376-5.328 5.616v.252h10.26v-.396c0-3.276-1.98-5.472-4.932-5.472zM380.54 140h-2.556c-1.98 0-3.06-1.26-3.06-2.988V113.36h2.88v24.12h2.736V140zm11.7 0h-3.6c-1.98 0-3.06-1.26-3.06-3.06v-12.996h-3.06v-2.52h1.728c1.224 0 1.62-.432 1.62-1.692v-3.456h2.592v5.148h4.068v2.52h-4.068v13.536h3.78V140zM74.18 184h-1.62c-2.124 0-2.988-1.296-3.204-3.024h-.18c-.792 2.268-2.772 3.456-5.364 3.456-3.924 0-6.228-2.16-6.228-5.616 0-3.492 2.52-5.436 7.92-5.436h3.672v-1.836c0-2.628-1.44-4.068-4.392-4.068-2.232 0-3.708 1.08-4.716 2.772l-1.728-1.62c1.008-1.98 3.24-3.636 6.588-3.636 4.464 0 7.128 2.34 7.128 6.264v10.224h2.124V184zm-9.9-2.016c2.844 0 4.896-1.476 4.896-3.384v-3.06H65.36c-3.276 0-4.752 1.008-4.752 2.808v.756c0 1.836 1.44 2.88 3.672 2.88zM81.164 184h-2.88v-18.576h2.88v3.024h.144c.9-2.088 2.484-3.456 5.256-3.456 3.816 0 6.228 2.592 6.228 7.092V184h-2.88v-11.412c0-3.312-1.44-5.004-4.212-5.004-2.304 0-4.536 1.152-4.536 3.528V184zm29.448 0v-3.024h-.144c-1.116 2.304-2.88 3.456-5.436 3.456-4.644 0-7.56-3.78-7.56-9.72 0-5.94 2.916-9.72 7.56-9.72 2.556 0 4.464 1.116 5.436 3.456h.144V157.36h2.88V184h-2.88zm-4.788-2.16c2.628 0 4.788-1.368 4.788-3.78v-6.912c0-2.052-2.16-3.564-4.788-3.564-3.24 0-5.256 2.232-5.256 5.544v3.168c0 3.312 2.016 5.544 5.256 5.544zm27.864 2.592c-3.42 0-5.688-1.44-7.344-3.636l2.052-1.656c1.44 1.8 3.168 2.844 5.508 2.844 2.448 0 3.888-1.116 3.888-3.024 0-1.44-.792-2.556-3.24-2.916l-1.476-.216c-3.42-.504-5.976-1.908-5.976-5.364 0-3.672 2.844-5.472 6.624-5.472 2.988 0 4.968 1.116 6.48 2.988l-1.908 1.728c-.828-1.152-2.412-2.268-4.788-2.268-2.376 0-3.636 1.116-3.636 2.88 0 1.8 1.26 2.52 3.564 2.88l1.44.216c4.104.612 5.688 2.412 5.688 5.22 0 3.6-2.628 5.796-6.876 5.796zm23.4-.432v-3.024h-.144c-.72 1.764-2.124 3.456-5.22 3.456-3.816 0-6.264-2.592-6.264-7.092v-11.916h2.88v11.412c0 3.312 1.476 5.004 4.248 5.004 2.268 0 4.5-1.116 4.5-3.564v-12.852h2.88V184h-2.88zm14.58.432c-3.42 0-5.688-1.44-7.344-3.636l2.052-1.656c1.44 1.8 3.168 2.844 5.508 2.844 2.448 0 3.888-1.116 3.888-3.024 0-1.44-.792-2.556-3.24-2.916l-1.476-.216c-3.42-.504-5.976-1.908-5.976-5.364 0-3.672 2.844-5.472 6.624-5.472 2.988 0 4.968 1.116 6.48 2.988l-1.908 1.728c-.828-1.152-2.412-2.268-4.788-2.268-2.376 0-3.636 1.116-3.636 2.88 0 1.8 1.26 2.52 3.564 2.88l1.44.216c4.104.612 5.688 2.412 5.688 5.22 0 3.6-2.628 5.796-6.876 5.796zm11.952 6.768v-25.776h2.88v3.024h.144c.972-2.34 2.88-3.456 5.436-3.456 4.644 0 7.56 3.78 7.56 9.72 0 5.94-2.916 9.72-7.56 9.72-2.556 0-4.32-1.152-5.436-3.456h-.144V191.2h-2.88zm7.668-9.36c3.24 0 5.256-2.232 5.256-5.544v-3.168c0-3.312-2.016-5.544-5.256-5.544-2.628 0-4.788 1.512-4.788 3.564v6.912c0 2.412 2.16 3.78 4.788 3.78zm20.196 2.592c-5.04 0-8.352-3.816-8.352-9.72 0-5.904 3.312-9.72 8.352-9.72 4.968 0 8.028 3.816 8.028 9.072v1.368h-13.356v.864c0 3.204 2.052 5.616 5.508 5.616 2.34 0 4.14-1.152 5.112-3.204l2.052 1.476c-1.188 2.52-3.852 4.248-7.344 4.248zm0-17.028c-3.132 0-5.328 2.376-5.328 5.616v.252h10.26v-.396c0-3.276-1.98-5.472-4.932-5.472zM227.144 184h-2.88v-18.576h2.88v3.024h.144c.9-2.088 2.484-3.456 5.256-3.456 3.816 0 6.228 2.592 6.228 7.092V184h-2.88v-11.412c0-3.312-1.44-5.004-4.212-5.004-2.304 0-4.536 1.152-4.536 3.528V184zm29.448 0v-3.024h-.144c-1.116 2.304-2.88 3.456-5.436 3.456-4.644 0-7.56-3.78-7.56-9.72 0-5.94 2.916-9.72 7.56-9.72 2.556 0 4.464 1.116 5.436 3.456h.144V157.36h2.88V184h-2.88zm-4.788-2.16c2.628 0 4.788-1.368 4.788-3.78v-6.912c0-2.052-2.16-3.564-4.788-3.564-3.24 0-5.256 2.232-5.256 5.544v3.168c0 3.312 2.016 5.544 5.256 5.544zm20.772 2.592c-5.04 0-8.352-3.816-8.352-9.72 0-5.904 3.312-9.72 8.352-9.72 4.968 0 8.028 3.816 8.028 9.072v1.368h-13.356v.864c0 3.204 2.052 5.616 5.508 5.616 2.34 0 4.14-1.152 5.112-3.204l2.052 1.476c-1.188 2.52-3.852 4.248-7.344 4.248zm0-17.028c-3.132 0-5.328 2.376-5.328 5.616v.252h10.26v-.396c0-3.276-1.98-5.472-4.932-5.472zM288.236 184h-2.88v-18.576h2.88v3.42h.18c.648-1.764 2.34-3.42 5.364-3.42h1.116v2.88h-1.692c-3.096 0-4.968 1.332-4.968 3.096V184zm15.912.432c-3.42 0-5.688-1.44-7.344-3.636l2.052-1.656c1.44 1.8 3.168 2.844 5.508 2.844 2.448 0 3.888-1.116 3.888-3.024 0-1.44-.792-2.556-3.24-2.916l-1.476-.216c-3.42-.504-5.976-1.908-5.976-5.364 0-3.672 2.844-5.472 6.624-5.472 2.988 0 4.968 1.116 6.48 2.988l-1.908 1.728c-.828-1.152-2.412-2.268-4.788-2.268-2.376 0-3.636 1.116-3.636 2.88 0 1.8 1.26 2.52 3.564 2.88l1.44.216c4.104.612 5.688 2.412 5.688 5.22 0 3.6-2.628 5.796-6.876 5.796zm13.608 0c-1.512 0-2.196-.864-2.196-2.088v-.468c0-1.224.684-2.088 2.196-2.088s2.196.864 2.196 2.088v.468c0 1.224-.684 2.088-2.196 2.088z" fill="#3D3D3D"/></g></svg>