<svg xmlns="http://www.w3.org/2000/svg" xmlns:xlink="http://www.w3.org/1999/xlink" viewBox="0 0 288 288"><defs><style>.cls-1,.cls-12,.cls-3,.cls-6{fill:none;}.cls-2{fill:#fff;}.cls-3{stroke:#e0e0e0;}.cls-12,.cls-3,.cls-6{stroke-miterlimit:10;}.cls-3,.cls-6{stroke-width:0.5px;}.cls-4{fill:#d0e2ff;}.cls-5{clip-path:url(#clip-path);}.cls-6{stroke:#a6c8ff;}.cls-7{fill:url(#linear-gradient);}.cls-8{fill:url(#linear-gradient-2);}.cls-9{fill:url(#linear-gradient-3);}.cls-10{fill:url(#linear-gradient-4);}.cls-11{fill:#4589ff;}.cls-12{stroke:#d12771;}</style><clipPath id="clip-path"><path class="cls-1" d="M255.83,139.7,145.49,76a3.33,3.33,0,0,0-3,0L32.17,139.7a1,1,0,0,0-.61.86V144a1,1,0,0,0,.61.86l110.34,63.7a3.26,3.26,0,0,0,3,0l110.34-63.7a1,1,0,0,0,.61-.86v-3.44A1,1,0,0,0,255.83,139.7Z"/></clipPath><linearGradient id="linear-gradient" x1="56.29" y1="164.16" x2="231.71" y2="164.16" gradientUnits="userSpaceOnUse"><stop offset="0.48" stop-color="#78a9ff"/><stop offset="0.52" stop-color="#a6c8ff"/></linearGradient><linearGradient id="linear-gradient-2" x1="81.89" y1="153.32" x2="206.11" y2="153.32" gradientUnits="userSpaceOnUse"><stop offset="0.45" stop-color="#78a9ff"/><stop offset="0.55" stop-color="#a6c8ff"/></linearGradient><linearGradient id="linear-gradient-3" x1="109.24" y1="141.98" x2="178.76" y2="141.98" gradientUnits="userSpaceOnUse"><stop offset="0.4" stop-color="#78a9ff"/><stop offset="0.6" stop-color="#a6c8ff"/></linearGradient><linearGradient id="linear-gradient-4" x1="31.56" y1="174.74" x2="256.44" y2="174.74" gradientUnits="userSpaceOnUse"><stop offset="0.49" stop-color="#78a9ff"/><stop offset="0.51" stop-color="#a6c8ff"/></linearGradient></defs><g id="Layer_3" data-name="Layer 3"><rect class="cls-2" width="288" height="288"/><line class="cls-3" x1="9.81" y1="145.72" x2="146.98" y2="66.52"/><line class="cls-3" x1="12.79" y1="147.44" x2="149.96" y2="68.25"/><line class="cls-3" x1="15.77" y1="149.17" x2="152.95" y2="69.97"/><line class="cls-3" x1="18.76" y1="150.89" x2="155.93" y2="71.69"/><line class="cls-3" x1="21.74" y1="152.61" x2="158.91" y2="73.41"/><line class="cls-3" x1="24.72" y1="154.33" x2="161.89" y2="75.13"/><line class="cls-3" x1="27.7" y1="156.05" x2="164.87" y2="76.85"/><line class="cls-3" x1="30.68" y1="157.77" x2="167.86" y2="78.58"/><line class="cls-3" x1="33.67" y1="159.5" x2="170.84" y2="80.3"/><line class="cls-3" x1="36.65" y1="161.22" x2="173.82" y2="82.02"/><line class="cls-3" x1="39.63" y1="162.94" x2="176.8" y2="83.74"/><line class="cls-3" x1="42.61" y1="164.66" x2="179.78" y2="85.46"/><line class="cls-3" x1="45.59" y1="166.38" x2="182.77" y2="87.18"/><line class="cls-3" x1="48.58" y1="168.1" x2="185.75" y2="88.91"/><line class="cls-3" x1="51.56" y1="169.83" x2="188.73" y2="90.63"/><line class="cls-3" x1="54.54" y1="171.55" x2="191.71" y2="92.35"/><line class="cls-3" x1="57.52" y1="173.27" x2="194.69" y2="94.07"/><line class="cls-3" x1="60.5" y1="174.99" x2="197.68" y2="95.79"/><line class="cls-3" x1="63.49" y1="176.71" x2="200.66" y2="97.51"/><line class="cls-3" x1="66.47" y1="178.43" x2="203.64" y2="99.24"/><line class="cls-3" x1="69.45" y1="180.16" x2="206.62" y2="100.96"/><line class="cls-3" x1="72.43" y1="181.88" x2="209.6" y2="102.68"/><line class="cls-3" x1="75.41" y1="183.6" x2="212.59" y2="104.4"/><line class="cls-3" x1="78.4" y1="185.32" x2="215.57" y2="106.12"/><line class="cls-3" x1="81.38" y1="187.04" x2="218.55" y2="107.84"/><line class="cls-3" x1="84.36" y1="188.76" x2="221.53" y2="109.57"/><line class="cls-3" x1="87.34" y1="190.49" x2="224.51" y2="111.29"/><line class="cls-3" x1="90.32" y1="192.21" x2="227.5" y2="113.01"/><line class="cls-3" x1="93.31" y1="193.93" x2="230.48" y2="114.73"/><line class="cls-3" x1="96.29" y1="195.65" x2="233.46" y2="116.45"/><line class="cls-3" x1="99.27" y1="197.37" x2="236.44" y2="118.17"/><line class="cls-3" x1="102.25" y1="199.09" x2="239.42" y2="119.9"/><line class="cls-3" x1="105.23" y1="200.82" x2="242.41" y2="121.62"/><line class="cls-3" x1="108.22" y1="202.54" x2="245.39" y2="123.34"/><line class="cls-3" x1="111.2" y1="204.26" x2="248.37" y2="125.06"/><line class="cls-3" x1="114.18" y1="205.98" x2="251.35" y2="126.78"/><line class="cls-3" x1="117.16" y1="207.7" x2="254.33" y2="128.5"/><line class="cls-3" x1="120.14" y1="209.42" x2="257.32" y2="130.23"/><line class="cls-3" x1="123.13" y1="211.15" x2="260.3" y2="131.95"/><line class="cls-3" x1="126.11" y1="212.87" x2="263.28" y2="133.67"/><line class="cls-3" x1="129.09" y1="214.59" x2="266.26" y2="135.39"/><line class="cls-3" x1="132.07" y1="216.31" x2="269.24" y2="137.11"/><line class="cls-3" x1="135.05" y1="218.03" x2="272.23" y2="138.83"/><line class="cls-3" x1="138.04" y1="219.75" x2="275.21" y2="140.56"/><line class="cls-3" x1="141.02" y1="221.48" x2="278.19" y2="142.28"/><line class="cls-3" x1="146.98" y1="221.48" x2="9.81" y2="142.28"/><line class="cls-3" x1="149.96" y1="219.75" x2="12.79" y2="140.56"/><line class="cls-3" x1="152.95" y1="218.03" x2="15.77" y2="138.83"/><line class="cls-3" x1="155.93" y1="216.31" x2="18.76" y2="137.11"/><line class="cls-3" x1="158.91" y1="214.59" x2="21.74" y2="135.39"/><line class="cls-3" x1="161.89" y1="212.87" x2="24.72" y2="133.67"/><line class="cls-3" x1="164.87" y1="211.15" x2="27.7" y2="131.95"/><line class="cls-3" x1="167.86" y1="209.42" x2="30.68" y2="130.23"/><line class="cls-3" x1="170.84" y1="207.7" x2="33.67" y2="128.5"/><line class="cls-3" x1="173.82" y1="205.98" x2="36.65" y2="126.78"/><line class="cls-3" x1="176.8" y1="204.26" x2="39.63" y2="125.06"/><line class="cls-3" x1="179.78" y1="202.54" x2="42.61" y2="123.34"/><line class="cls-3" x1="182.77" y1="200.82" x2="45.59" y2="121.62"/><line class="cls-3" x1="185.75" y1="199.09" x2="48.58" y2="119.9"/><line class="cls-3" x1="188.73" y1="197.37" x2="51.56" y2="118.17"/><line class="cls-3" x1="191.71" y1="195.65" x2="54.54" y2="116.45"/><line class="cls-3" x1="194.69" y1="193.93" x2="57.52" y2="114.73"/><line class="cls-3" x1="197.68" y1="192.21" x2="60.5" y2="113.01"/><line class="cls-3" x1="200.66" y1="190.49" x2="63.49" y2="111.29"/><line class="cls-3" x1="203.64" y1="188.76" x2="66.47" y2="109.57"/><line class="cls-3" x1="206.62" y1="187.04" x2="69.45" y2="107.84"/><line class="cls-3" x1="209.6" y1="185.32" x2="72.43" y2="106.12"/><line class="cls-3" x1="212.59" y1="183.6" x2="75.41" y2="104.4"/><line class="cls-3" x1="215.57" y1="181.88" x2="78.4" y2="102.68"/><line class="cls-3" x1="218.55" y1="180.16" x2="81.38" y2="100.96"/><line class="cls-3" x1="221.53" y1="178.43" x2="84.36" y2="99.24"/><line class="cls-3" x1="224.51" y1="176.71" x2="87.34" y2="97.51"/><line class="cls-3" x1="227.5" y1="174.99" x2="90.32" y2="95.79"/><line class="cls-3" x1="230.48" y1="173.27" x2="93.31" y2="94.07"/><line class="cls-3" x1="233.46" y1="171.55" x2="96.29" y2="92.35"/><line class="cls-3" x1="236.44" y1="169.83" x2="99.27" y2="90.63"/><line class="cls-3" x1="239.42" y1="168.1" x2="102.25" y2="88.91"/><line class="cls-3" x1="242.41" y1="166.38" x2="105.23" y2="87.18"/><line class="cls-3" x1="245.39" y1="164.66" x2="108.22" y2="85.46"/><line class="cls-3" x1="248.37" y1="162.94" x2="111.2" y2="83.74"/><line class="cls-3" x1="251.35" y1="161.22" x2="114.18" y2="82.02"/><line class="cls-3" x1="254.33" y1="159.5" x2="117.16" y2="80.3"/><line class="cls-3" x1="257.32" y1="157.77" x2="120.14" y2="78.58"/><line class="cls-3" x1="260.3" y1="156.05" x2="123.13" y2="76.85"/><line class="cls-3" x1="263.28" y1="154.33" x2="126.11" y2="75.13"/><line class="cls-3" x1="266.26" y1="152.61" x2="129.09" y2="73.41"/><line class="cls-3" x1="269.24" y1="150.89" x2="132.07" y2="71.69"/><line class="cls-3" x1="272.23" y1="149.17" x2="135.05" y2="69.97"/><line class="cls-3" x1="275.21" y1="147.44" x2="138.04" y2="68.25"/><line class="cls-3" x1="278.19" y1="145.72" x2="141.02" y2="66.52"/><polygon class="cls-3" points="6.83 144 144 223.2 281.17 144 144 64.8 6.83 144"/><path class="cls-4" d="M255.83,139.7,145.49,76a3.33,3.33,0,0,0-3,0L32.17,139.7a1,1,0,0,0-.61.86V144a1,1,0,0,0,.61.86l110.34,63.7a3.26,3.26,0,0,0,3,0l110.34-63.7a1,1,0,0,0,.61-.86v-3.44A1,1,0,0,0,255.83,139.7Z"/><g class="cls-5"><line class="cls-6" x1="9.81" y1="145.72" x2="146.98" y2="66.52"/><line class="cls-6" x1="12.79" y1="147.44" x2="149.96" y2="68.25"/><line class="cls-6" x1="15.77" y1="149.17" x2="152.95" y2="69.97"/><line class="cls-6" x1="18.76" y1="150.89" x2="155.93" y2="71.69"/><line class="cls-6" x1="21.74" y1="152.61" x2="158.91" y2="73.41"/><line class="cls-6" x1="24.72" y1="154.33" x2="161.89" y2="75.13"/><line class="cls-6" x1="27.7" y1="156.05" x2="164.87" y2="76.85"/><line class="cls-6" x1="30.68" y1="157.77" x2="167.86" y2="78.58"/><line class="cls-6" x1="33.67" y1="159.5" x2="170.84" y2="80.3"/><line class="cls-6" x1="36.65" y1="161.22" x2="173.82" y2="82.02"/><line class="cls-6" x1="39.63" y1="162.94" x2="176.8" y2="83.74"/><line class="cls-6" x1="42.61" y1="164.66" x2="179.78" y2="85.46"/><line class="cls-6" x1="45.59" y1="166.38" x2="182.77" y2="87.18"/><line class="cls-6" x1="48.58" y1="168.1" x2="185.75" y2="88.91"/><line class="cls-6" x1="51.56" y1="169.83" x2="188.73" y2="90.63"/><line class="cls-6" x1="54.54" y1="171.55" x2="191.71" y2="92.35"/><line class="cls-6" x1="57.52" y1="173.27" x2="194.69" y2="94.07"/><line class="cls-6" x1="60.5" y1="174.99" x2="197.68" y2="95.79"/><line class="cls-6" x1="63.49" y1="176.71" x2="200.66" y2="97.51"/><line class="cls-6" x1="66.47" y1="178.43" x2="203.64" y2="99.24"/><line class="cls-6" x1="69.45" y1="180.16" x2="206.62" y2="100.96"/><line class="cls-6" x1="72.43" y1="181.88" x2="209.6" y2="102.68"/><line class="cls-6" x1="75.41" y1="183.6" x2="212.59" y2="104.4"/><line class="cls-6" x1="78.4" y1="185.32" x2="215.57" y2="106.12"/><line class="cls-6" x1="81.38" y1="187.04" x2="218.55" y2="107.84"/><line class="cls-6" x1="84.36" y1="188.76" x2="221.53" y2="109.57"/><line class="cls-6" x1="87.34" y1="190.49" x2="224.51" y2="111.29"/><line class="cls-6" x1="90.32" y1="192.21" x2="227.5" y2="113.01"/><line class="cls-6" x1="93.31" y1="193.93" x2="230.48" y2="114.73"/><line class="cls-6" x1="96.29" y1="195.65" x2="233.46" y2="116.45"/><line class="cls-6" x1="99.27" y1="197.37" x2="236.44" y2="118.17"/><line class="cls-6" x1="102.25" y1="199.09" x2="239.42" y2="119.9"/><line class="cls-6" x1="105.23" y1="200.82" x2="242.41" y2="121.62"/><line class="cls-6" x1="108.22" y1="202.54" x2="245.39" y2="123.34"/><line class="cls-6" x1="111.2" y1="204.26" x2="248.37" y2="125.06"/><line class="cls-6" x1="114.18" y1="205.98" x2="251.35" y2="126.78"/><line class="cls-6" x1="117.16" y1="207.7" x2="254.33" y2="128.5"/><line class="cls-6" x1="120.14" y1="209.42" x2="257.32" y2="130.23"/><line class="cls-6" x1="123.13" y1="211.15" x2="260.3" y2="131.95"/><line class="cls-6" x1="126.11" y1="212.87" x2="263.28" y2="133.67"/><line class="cls-6" x1="129.09" y1="214.59" x2="266.26" y2="135.39"/><line class="cls-6" x1="132.07" y1="216.31" x2="269.24" y2="137.11"/><line class="cls-6" x1="135.05" y1="218.03" x2="272.23" y2="138.83"/><line class="cls-6" x1="138.04" y1="219.75" x2="275.21" y2="140.56"/><line class="cls-6" x1="141.02" y1="221.48" x2="278.19" y2="142.28"/><line class="cls-6" x1="146.98" y1="221.48" x2="9.81" y2="142.28"/><line class="cls-6" x1="149.96" y1="219.75" x2="12.79" y2="140.56"/><line class="cls-6" x1="152.95" y1="218.03" x2="15.77" y2="138.83"/><line class="cls-6" x1="155.93" y1="216.31" x2="18.76" y2="137.11"/><line class="cls-6" x1="158.91" y1="214.59" x2="21.74" y2="135.39"/><line class="cls-6" x1="161.89" y1="212.87" x2="24.72" y2="133.67"/><line class="cls-6" x1="164.87" y1="211.15" x2="27.7" y2="131.95"/><line class="cls-6" x1="167.86" y1="209.42" x2="30.68" y2="130.23"/><line class="cls-6" x1="170.84" y1="207.7" x2="33.67" y2="128.5"/><line class="cls-6" x1="173.82" y1="205.98" x2="36.65" y2="126.78"/><line class="cls-6" x1="176.8" y1="204.26" x2="39.63" y2="125.06"/><line class="cls-6" x1="179.78" y1="202.54" x2="42.61" y2="123.34"/><line class="cls-6" x1="182.77" y1="200.82" x2="45.59" y2="121.62"/><line class="cls-6" x1="185.75" y1="199.09" x2="48.58" y2="119.9"/><line class="cls-6" x1="188.73" y1="197.37" x2="51.56" y2="118.17"/><line class="cls-6" x1="191.71" y1="195.65" x2="54.54" y2="116.45"/><line class="cls-6" x1="194.69" y1="193.93" x2="57.52" y2="114.73"/><line class="cls-6" x1="197.68" y1="192.21" x2="60.5" y2="113.01"/><line class="cls-6" x1="200.66" y1="190.49" x2="63.49" y2="111.29"/><line class="cls-6" x1="203.64" y1="188.76" x2="66.47" y2="109.57"/><line class="cls-6" x1="206.62" y1="187.04" x2="69.45" y2="107.84"/><line class="cls-6" x1="209.6" y1="185.32" x2="72.43" y2="106.12"/><line class="cls-6" x1="212.59" y1="183.6" x2="75.41" y2="104.4"/><line class="cls-6" x1="215.57" y1="181.88" x2="78.4" y2="102.68"/><line class="cls-6" x1="218.55" y1="180.16" x2="81.38" y2="100.96"/><line class="cls-6" x1="221.53" y1="178.43" x2="84.36" y2="99.24"/><line class="cls-6" x1="224.51" y1="176.71" x2="87.34" y2="97.51"/><line class="cls-6" x1="227.5" y1="174.99" x2="90.32" y2="95.79"/><line class="cls-6" x1="230.48" y1="173.27" x2="93.31" y2="94.07"/><line class="cls-6" x1="233.46" y1="171.55" x2="96.29" y2="92.35"/><line class="cls-6" x1="236.44" y1="169.83" x2="99.27" y2="90.63"/><line class="cls-6" x1="239.42" y1="168.1" x2="102.25" y2="88.91"/><line class="cls-6" x1="242.41" y1="166.38" x2="105.23" y2="87.18"/><line class="cls-6" x1="245.39" y1="164.66" x2="108.22" y2="85.46"/><line class="cls-6" x1="248.37" y1="162.94" x2="111.2" y2="83.74"/><line class="cls-6" x1="251.35" y1="161.22" x2="114.18" y2="82.02"/><line class="cls-6" x1="254.33" y1="159.5" x2="117.16" y2="80.3"/><line class="cls-6" x1="257.32" y1="157.77" x2="120.14" y2="78.58"/><line class="cls-6" x1="260.3" y1="156.05" x2="123.13" y2="76.85"/><line class="cls-6" x1="263.28" y1="154.33" x2="126.11" y2="75.13"/><line class="cls-6" x1="266.26" y1="152.61" x2="129.09" y2="73.41"/><line class="cls-6" x1="269.24" y1="150.89" x2="132.07" y2="71.69"/><line class="cls-6" x1="272.23" y1="149.17" x2="135.05" y2="69.97"/><line class="cls-6" x1="275.21" y1="147.44" x2="138.04" y2="68.25"/><line class="cls-6" x1="278.19" y1="145.72" x2="141.02" y2="66.52"/><polygon class="cls-6" points="6.83 144 144 223.2 281.17 144 144 64.8 6.83 144"/></g><path class="cls-7" d="M231.71,137.11a2.1,2.1,0,0,1-1.23,1.73L147,187a6.59,6.59,0,0,1-6,0l-83.5-48.2a2.1,2.1,0,0,1-1.23-1.73v3.45a2.1,2.1,0,0,0,1.23,1.72L141,190.49a6.59,6.59,0,0,0,6,0l83.5-48.21a2.1,2.1,0,0,0,1.23-1.72Z"/><path class="cls-8" d="M206.11,133.67c0,1.25-.82,2.49-2.47,3.44L150,168.1a13.11,13.11,0,0,1-11.92,0l-53.68-31c-1.65-1-2.47-2.19-2.47-3.44v3.44c0,1.25.82,2.5,2.47,3.45l53.68,31a13.18,13.18,0,0,0,11.92,0l53.68-31c1.65-.95,2.47-2.2,2.47-3.45Z"/><path class="cls-9" d="M178.76,130.23c0,2.49-1.65,5-4.94,6.88l-17.89,10.33c-6.59,3.81-17.27,3.81-23.86,0l-17.89-10.33c-3.29-1.9-4.94-4.39-4.94-6.88v3.44c0,2.49,1.65,5,4.94,6.89l17.89,10.33c6.59,3.8,17.27,3.8,23.86,0l17.89-10.33c3.29-1.9,4.94-4.4,4.94-6.89Z"/><path class="cls-10" d="M255.83,141.42l-110.34,63.7a3.33,3.33,0,0,1-3,0L32.17,141.42a1,1,0,0,1-.61-.86V144a1,1,0,0,0,.61.86l110.34,63.7a3.26,3.26,0,0,0,3,0l110.34-63.7a1,1,0,0,0,.61-.86v-3.44A1,1,0,0,1,255.83,141.42Z"/><path d="M38.72,256v-.89h2.34v-6.74H41l-2.11,2-.59-.64,2.22-2.08h1.57v7.49h2.16V256Z"/><path d="M45.12,256l2.29-3.12-2.2-3.07h1.13l1.57,2.3h0l1.63-2.3h1.07l-2.19,3L50.7,256H49.57L48,253.58h0L46.19,256Z"/><path d="M70.9,256H65.4v-1l2.74-2.52a6.11,6.11,0,0,0,1-1.15,2.18,2.18,0,0,0,.4-1.22v-.15a1.68,1.68,0,0,0-.38-1.13,1.49,1.49,0,0,0-1.17-.43,2,2,0,0,0-.67.11,1.48,1.48,0,0,0-.5.3,1.75,1.75,0,0,0-.35.45,3,3,0,0,0-.22.55l-.9-.34a3.65,3.65,0,0,1,.33-.73,2.86,2.86,0,0,1,.53-.63,2.49,2.49,0,0,1,.77-.43,3.39,3.39,0,0,1,2.15,0,2.36,2.36,0,0,1,.81.5,2.3,2.3,0,0,1,.49.77,2.63,2.63,0,0,1,.18,1,3,3,0,0,1-.14.92,3.38,3.38,0,0,1-.38.79,4.38,4.38,0,0,1-.58.74c-.23.24-.47.48-.74.72l-2.25,2h4.4Z"/><path d="M72,256l2.29-3.12-2.2-3.07h1.13l1.57,2.3h0l1.63-2.3h1.07l-2.19,3L77.54,256H76.41l-1.61-2.42h0L73,256Z"/><path d="M98.82,256v-1.64h-4v-.89l3.5-5.85h1.5v5.9H101v.84H99.78V256Zm-3.09-2.48h3.09v-5.11h-.06Z"/><path d="M101.78,256l2.29-3.12-2.2-3.07H103l1.57,2.3h0l1.63-2.3h1.07l-2.19,3,2.24,3.19h-1.13l-1.61-2.42h0L102.84,256Z"/><path d="M133.71,256.14a4,4,0,0,1-1.26-.18,3,3,0,0,1-.91-.51,2.1,2.1,0,0,1-.55-.77,2.53,2.53,0,0,1-.19-1,2,2,0,0,1,.47-1.37,2.59,2.59,0,0,1,1.23-.71v-.09a2.17,2.17,0,0,1-1.05-.74,2,2,0,0,1-.39-1.23,1.88,1.88,0,0,1,.69-1.53,3,3,0,0,1,2-.57,3,3,0,0,1,1.95.57,1.86,1.86,0,0,1,.7,1.53,2,2,0,0,1-.39,1.23,2.17,2.17,0,0,1-1.05.74v.09a2.6,2.6,0,0,1,1.22.71,1.9,1.9,0,0,1,.47,1.37,2.52,2.52,0,0,1-.18,1,2.12,2.12,0,0,1-.56.77,2.79,2.79,0,0,1-.9.51A4,4,0,0,1,133.71,256.14Zm0-.88a2.09,2.09,0,0,0,1.35-.39,1.35,1.35,0,0,0,.48-1.11v-.25a1.32,1.32,0,0,0-.48-1.1,2.55,2.55,0,0,0-2.71,0,1.32,1.32,0,0,0-.48,1.1v.25a1.35,1.35,0,0,0,.48,1.11A2.1,2.1,0,0,0,133.71,255.26Zm0-4.08a1.81,1.81,0,0,0,1.2-.34,1.2,1.2,0,0,0,.41-1v-.18a1.21,1.21,0,0,0-.41-1,2.35,2.35,0,0,0-2.4,0,1.21,1.21,0,0,0-.41,1v.18a1.2,1.2,0,0,0,.41,1A1.81,1.81,0,0,0,133.71,251.18Z"/><path d="M137.56,256l2.29-3.12-2.19-3.07h1.12l1.58,2.3h0l1.63-2.3h1.07l-2.18,3,2.23,3.19H142l-1.61-2.42h0L138.63,256Z"/><path class="cls-11" d="M144,110.66a23.82,23.82,0,0,1,11.68,2.78l17.89,10.33c3,1.75,4.69,4,4.69,6.46s-1.66,4.7-4.69,6.45L155.68,147a25.84,25.84,0,0,1-23.36,0l-17.89-10.33c-3-1.75-4.69-4-4.69-6.45s1.67-4.71,4.69-6.46l17.89-10.33A23.82,23.82,0,0,1,144,110.66m0-.5A24.42,24.42,0,0,0,132.07,113l-17.89,10.33c-6.59,3.8-6.59,10,0,13.77l17.89,10.33a26.31,26.31,0,0,0,23.86,0l17.89-10.33c6.59-3.8,6.59-10,0-13.77L155.93,113A24.42,24.42,0,0,0,144,110.16Z"/><path class="cls-11" d="M144,98.31a11.54,11.54,0,0,1,5.71,1.36l53.68,31c1.43.83,2.22,1.89,2.22,3s-.79,2.18-2.22,3l-53.68,31a12.67,12.67,0,0,1-11.42,0l-53.68-31c-1.43-.83-2.22-1.9-2.22-3s.79-2.18,2.22-3l53.68-31A11.54,11.54,0,0,1,144,98.31m0-.5a12.16,12.16,0,0,0-6,1.43l-53.68,31c-3.29,1.9-3.29,5,0,6.88l53.68,31a13.14,13.14,0,0,0,11.92,0l53.68-31c3.29-1.9,3.29-5,0-6.88L150,99.24a12.16,12.16,0,0,0-6-1.43Z"/><path class="cls-11" d="M144,87a5.51,5.51,0,0,1,2.73.65l83.5,48.2a1.65,1.65,0,0,1,1,1.29,1.62,1.62,0,0,1-1,1.29l-83.5,48.21a6.14,6.14,0,0,1-5.46,0L57.77,138.4a1.62,1.62,0,0,1-1-1.29,1.65,1.65,0,0,1,1-1.29l83.5-48.2A5.51,5.51,0,0,1,144,87m0-.5a6.13,6.13,0,0,0-3,.71l-83.5,48.21c-1.65,1-1.65,2.49,0,3.45L141,187a6.61,6.61,0,0,0,6,0l83.5-48.2c1.65-1,1.65-2.5,0-3.45L147,87.18a6.13,6.13,0,0,0-3-.71Z"/><path class="cls-11" d="M144,76.14a2.5,2.5,0,0,1,1.24.29l110.34,63.7c.23.13.36.29.36.43s-.13.29-.36.42L145.24,204.69a2.8,2.8,0,0,1-2.48,0L32.42,141c-.23-.13-.36-.29-.36-.42s.13-.3.36-.43l110.34-63.7a2.5,2.5,0,0,1,1.24-.29m0-.5a3.12,3.12,0,0,0-1.49.35L32.17,139.7a.91.91,0,0,0,0,1.72l110.34,63.7a3.26,3.26,0,0,0,3,0l110.34-63.7a.91.91,0,0,0,0-1.72L145.49,76a3.12,3.12,0,0,0-1.49-.35Z"/><polygon class="cls-1" points="60.5 133.67 66.47 137.11 60.5 140.56 54.54 137.11 60.5 133.67"/><ellipse class="cls-12" cx="60.5" cy="137.11" rx="4.22" ry="2.43"/><polygon class="cls-1" points="33.67 138.84 36.65 140.56 33.67 142.28 30.68 140.56 33.67 138.84"/><ellipse class="cls-12" cx="33.67" cy="140.56" rx="2.11" ry="1.22"/><polygon class="cls-1" points="90.32 126.78 102.25 133.67 90.32 140.56 78.4 133.67 90.32 126.78"/><ellipse class="cls-12" cx="90.32" cy="133.67" rx="8.43" ry="4.87"/><polygon class="cls-1" points="126.11 116.45 149.96 130.23 126.11 144 102.25 130.23 126.11 116.45"/><ellipse class="cls-12" cx="126.11" cy="130.23" rx="16.87" ry="9.74"/><line class="cls-12" x1="33.67" y1="141.77" x2="33.67" y2="256"/><line class="cls-12" x1="60.5" y1="139.55" x2="60.5" y2="256"/><line class="cls-12" x1="90.32" y1="138.54" x2="90.32" y2="256"/><line class="cls-12" x1="126.11" y1="139.97" x2="126.11" y2="256"/></g></svg>