<svg xmlns="http://www.w3.org/2000/svg" xmlns:xlink="http://www.w3.org/1999/xlink" viewBox="0 0 928 522"><defs><style>.cls-1,.cls-12,.cls-3,.cls-6{fill:none;}.cls-2{fill:#fff;}.cls-3{stroke:#e0e0e0;}.cls-12,.cls-3,.cls-6{stroke-miterlimit:10;}.cls-4{fill:#d0e2ff;}.cls-5{clip-path:url(#clip-path);}.cls-6{stroke:#a6c8ff;}.cls-7{fill:#4589ff;}.cls-8{fill:url(#linear-gradient);}.cls-9{fill:url(#linear-gradient-2);}.cls-10{fill:url(#linear-gradient-3);}.cls-11{fill:url(#linear-gradient-4);}.cls-12{stroke:#d12771;stroke-linecap:square;}.cls-13{fill:#d12771;}</style><clipPath id="clip-path"><path class="cls-1" d="M723.8,251,467.46,103a7.61,7.61,0,0,0-6.92,0L204.2,251a2.44,2.44,0,0,0-1.43,2v8a2.44,2.44,0,0,0,1.43,2L460.54,411a7.61,7.61,0,0,0,6.92,0L723.8,263a2.44,2.44,0,0,0,1.43-2v-8A2.44,2.44,0,0,0,723.8,251Z"/></clipPath><linearGradient id="linear-gradient" x1="260.22" y1="307.83" x2="667.78" y2="307.83" gradientUnits="userSpaceOnUse"><stop offset="0.48" stop-color="#78a9ff"/><stop offset="0.52" stop-color="#a6c8ff"/></linearGradient><linearGradient id="linear-gradient-2" x1="319.7" y1="282.66" x2="608.3" y2="282.66" gradientUnits="userSpaceOnUse"><stop offset="0.45" stop-color="#78a9ff"/><stop offset="0.55" stop-color="#a6c8ff"/></linearGradient><linearGradient id="linear-gradient-3" x1="383.24" y1="256.31" x2="544.76" y2="256.31" gradientUnits="userSpaceOnUse"><stop offset="0.4" stop-color="#78a9ff"/><stop offset="0.6" stop-color="#a6c8ff"/></linearGradient><linearGradient id="linear-gradient-4" x1="202.77" y1="332.41" x2="725.23" y2="332.41" gradientUnits="userSpaceOnUse"><stop offset="0.49" stop-color="#78a9ff"/><stop offset="0.51" stop-color="#a6c8ff"/></linearGradient></defs><g id="Layer_3" data-name="Layer 3"><rect class="cls-2" width="928" height="522"/><line class="cls-3" x1="152.24" y1="265" x2="470.93" y2="81.01"/><line class="cls-3" x1="159.17" y1="269" x2="477.86" y2="85.01"/><line class="cls-3" x1="166.1" y1="273" x2="484.78" y2="89.01"/><line class="cls-3" x1="173.03" y1="277" x2="491.71" y2="93.01"/><line class="cls-3" x1="179.96" y1="281" x2="498.64" y2="97.01"/><line class="cls-3" x1="186.88" y1="285" x2="505.57" y2="101.01"/><line class="cls-3" x1="193.81" y1="289" x2="512.5" y2="105.01"/><line class="cls-3" x1="200.74" y1="293" x2="519.42" y2="109.01"/><line class="cls-3" x1="207.67" y1="297" x2="526.35" y2="113.01"/><line class="cls-3" x1="214.6" y1="301" x2="533.28" y2="117.01"/><line class="cls-3" x1="221.52" y1="305" x2="540.21" y2="121.01"/><line class="cls-3" x1="228.45" y1="309" x2="547.14" y2="125.01"/><line class="cls-3" x1="235.38" y1="313" x2="554.06" y2="129.01"/><line class="cls-3" x1="242.31" y1="317" x2="560.99" y2="133.01"/><line class="cls-3" x1="249.24" y1="321" x2="567.92" y2="137.01"/><line class="cls-3" x1="256.16" y1="325" x2="574.85" y2="141.01"/><line class="cls-3" x1="263.09" y1="329" x2="581.77" y2="145"/><line class="cls-3" x1="270.02" y1="333" x2="588.7" y2="149"/><line class="cls-3" x1="276.95" y1="337" x2="595.63" y2="153"/><line class="cls-3" x1="283.87" y1="341" x2="602.56" y2="157"/><line class="cls-3" x1="290.8" y1="345" x2="609.49" y2="161"/><line class="cls-3" x1="297.73" y1="349" x2="616.41" y2="165"/><line class="cls-3" x1="304.66" y1="353" x2="623.34" y2="169"/><line class="cls-3" x1="311.59" y1="357" x2="630.27" y2="173"/><line class="cls-3" x1="318.51" y1="361" x2="637.2" y2="177"/><line class="cls-3" x1="325.44" y1="365" x2="644.13" y2="181"/><line class="cls-3" x1="332.37" y1="369" x2="651.05" y2="185"/><line class="cls-3" x1="339.3" y1="373" x2="657.98" y2="189"/><line class="cls-3" x1="346.23" y1="377" x2="664.91" y2="193"/><line class="cls-3" x1="353.15" y1="380.99" x2="671.84" y2="197"/><line class="cls-3" x1="360.08" y1="384.99" x2="678.77" y2="201"/><line class="cls-3" x1="367.01" y1="388.99" x2="685.69" y2="205"/><line class="cls-3" x1="373.94" y1="392.99" x2="692.62" y2="209"/><line class="cls-3" x1="380.87" y1="396.99" x2="699.55" y2="213"/><line class="cls-3" x1="387.79" y1="400.99" x2="706.48" y2="217"/><line class="cls-3" x1="394.72" y1="404.99" x2="713.41" y2="221"/><line class="cls-3" x1="401.65" y1="408.99" x2="720.33" y2="225"/><line class="cls-3" x1="408.58" y1="412.99" x2="727.26" y2="229"/><line class="cls-3" x1="415.51" y1="416.99" x2="734.19" y2="233"/><line class="cls-3" x1="422.43" y1="420.99" x2="741.12" y2="237"/><line class="cls-3" x1="429.36" y1="424.99" x2="748.04" y2="241"/><line class="cls-3" x1="436.29" y1="428.99" x2="754.97" y2="245"/><line class="cls-3" x1="443.22" y1="432.99" x2="761.9" y2="249"/><line class="cls-3" x1="450.14" y1="436.99" x2="768.83" y2="253"/><line class="cls-3" x1="457.07" y1="440.99" x2="775.76" y2="257"/><line class="cls-3" x1="470.93" y1="440.99" x2="152.24" y2="257"/><line class="cls-3" x1="477.86" y1="436.99" x2="159.17" y2="253"/><line class="cls-3" x1="484.78" y1="432.99" x2="166.1" y2="249"/><line class="cls-3" x1="491.71" y1="428.99" x2="173.03" y2="245"/><line class="cls-3" x1="498.64" y1="424.99" x2="179.96" y2="241"/><line class="cls-3" x1="505.57" y1="420.99" x2="186.88" y2="237"/><line class="cls-3" x1="512.5" y1="416.99" x2="193.81" y2="233"/><line class="cls-3" x1="519.42" y1="412.99" x2="200.74" y2="229"/><line class="cls-3" x1="526.35" y1="408.99" x2="207.67" y2="225"/><line class="cls-3" x1="533.28" y1="404.99" x2="214.6" y2="221"/><line class="cls-3" x1="540.21" y1="400.99" x2="221.52" y2="217"/><line class="cls-3" x1="547.14" y1="396.99" x2="228.45" y2="213"/><line class="cls-3" x1="554.06" y1="392.99" x2="235.38" y2="209"/><line class="cls-3" x1="560.99" y1="388.99" x2="242.31" y2="205"/><line class="cls-3" x1="567.92" y1="384.99" x2="249.24" y2="201"/><line class="cls-3" x1="574.85" y1="380.99" x2="256.16" y2="197"/><line class="cls-3" x1="581.77" y1="377" x2="263.09" y2="193"/><line class="cls-3" x1="588.7" y1="373" x2="270.02" y2="189"/><line class="cls-3" x1="595.63" y1="369" x2="276.95" y2="185"/><line class="cls-3" x1="602.56" y1="365" x2="283.87" y2="181"/><line class="cls-3" x1="609.49" y1="361" x2="290.8" y2="177"/><line class="cls-3" x1="616.41" y1="357" x2="297.73" y2="173"/><line class="cls-3" x1="623.34" y1="353" x2="304.66" y2="169"/><line class="cls-3" x1="630.27" y1="349" x2="311.59" y2="165"/><line class="cls-3" x1="637.2" y1="345" x2="318.51" y2="161"/><line class="cls-3" x1="644.13" y1="341" x2="325.44" y2="157"/><line class="cls-3" x1="651.05" y1="337" x2="332.37" y2="153"/><line class="cls-3" x1="657.98" y1="333" x2="339.3" y2="149"/><line class="cls-3" x1="664.91" y1="329" x2="346.23" y2="145"/><line class="cls-3" x1="671.84" y1="325" x2="353.15" y2="141.01"/><line class="cls-3" x1="678.77" y1="321" x2="360.08" y2="137.01"/><line class="cls-3" x1="685.69" y1="317" x2="367.01" y2="133.01"/><line class="cls-3" x1="692.62" y1="313" x2="373.94" y2="129.01"/><line class="cls-3" x1="699.55" y1="309" x2="380.87" y2="125.01"/><line class="cls-3" x1="706.48" y1="305" x2="387.79" y2="121.01"/><line class="cls-3" x1="713.41" y1="301" x2="394.72" y2="117.01"/><line class="cls-3" x1="720.33" y1="297" x2="401.65" y2="113.01"/><line class="cls-3" x1="727.26" y1="293" x2="408.58" y2="109.01"/><line class="cls-3" x1="734.19" y1="289" x2="415.51" y2="105.01"/><line class="cls-3" x1="741.12" y1="285" x2="422.43" y2="101.01"/><line class="cls-3" x1="748.04" y1="281" x2="429.36" y2="97.01"/><line class="cls-3" x1="754.97" y1="277" x2="436.29" y2="93.01"/><line class="cls-3" x1="761.9" y1="273" x2="443.22" y2="89.01"/><line class="cls-3" x1="768.83" y1="269" x2="450.14" y2="85.01"/><line class="cls-3" x1="775.76" y1="265" x2="457.07" y2="81.01"/><polygon class="cls-3" points="145.32 261 464 444.99 782.68 261 464 77.01 145.32 261"/><path class="cls-4" d="M723.8,251,467.46,103a7.61,7.61,0,0,0-6.92,0L204.2,251a2.44,2.44,0,0,0-1.43,2v8a2.44,2.44,0,0,0,1.43,2L460.54,411a7.61,7.61,0,0,0,6.92,0L723.8,263a2.44,2.44,0,0,0,1.43-2v-8A2.44,2.44,0,0,0,723.8,251Z"/><g class="cls-5"><line class="cls-6" x1="152.24" y1="265" x2="470.93" y2="81.01"/><line class="cls-6" x1="159.17" y1="269" x2="477.86" y2="85.01"/><line class="cls-6" x1="166.1" y1="273" x2="484.78" y2="89.01"/><line class="cls-6" x1="173.03" y1="277" x2="491.71" y2="93.01"/><line class="cls-6" x1="179.96" y1="281" x2="498.64" y2="97.01"/><line class="cls-6" x1="186.88" y1="285" x2="505.57" y2="101.01"/><line class="cls-6" x1="193.81" y1="289" x2="512.5" y2="105.01"/><line class="cls-6" x1="200.74" y1="293" x2="519.42" y2="109.01"/><line class="cls-6" x1="207.67" y1="297" x2="526.35" y2="113.01"/><line class="cls-6" x1="214.6" y1="301" x2="533.28" y2="117.01"/><line class="cls-6" x1="221.52" y1="305" x2="540.21" y2="121.01"/><line class="cls-6" x1="228.45" y1="309" x2="547.14" y2="125.01"/><line class="cls-6" x1="235.38" y1="313" x2="554.06" y2="129.01"/><line class="cls-6" x1="242.31" y1="317" x2="560.99" y2="133.01"/><line class="cls-6" x1="249.24" y1="321" x2="567.92" y2="137.01"/><line class="cls-6" x1="256.16" y1="325" x2="574.85" y2="141.01"/><line class="cls-6" x1="263.09" y1="329" x2="581.77" y2="145"/><line class="cls-6" x1="270.02" y1="333" x2="588.7" y2="149"/><line class="cls-6" x1="276.95" y1="337" x2="595.63" y2="153"/><line class="cls-6" x1="283.87" y1="341" x2="602.56" y2="157"/><line class="cls-6" x1="290.8" y1="345" x2="609.49" y2="161"/><line class="cls-6" x1="297.73" y1="349" x2="616.41" y2="165"/><line class="cls-6" x1="304.66" y1="353" x2="623.34" y2="169"/><line class="cls-6" x1="311.59" y1="357" x2="630.27" y2="173"/><line class="cls-6" x1="318.51" y1="361" x2="637.2" y2="177"/><line class="cls-6" x1="325.44" y1="365" x2="644.13" y2="181"/><line class="cls-6" x1="332.37" y1="369" x2="651.05" y2="185"/><line class="cls-6" x1="339.3" y1="373" x2="657.98" y2="189"/><line class="cls-6" x1="346.23" y1="377" x2="664.91" y2="193"/><line class="cls-6" x1="353.15" y1="380.99" x2="671.84" y2="197"/><line class="cls-6" x1="360.08" y1="384.99" x2="678.77" y2="201"/><line class="cls-6" x1="367.01" y1="388.99" x2="685.69" y2="205"/><line class="cls-6" x1="373.94" y1="392.99" x2="692.62" y2="209"/><line class="cls-6" x1="380.87" y1="396.99" x2="699.55" y2="213"/><line class="cls-6" x1="387.79" y1="400.99" x2="706.48" y2="217"/><line class="cls-6" x1="394.72" y1="404.99" x2="713.41" y2="221"/><line class="cls-6" x1="401.65" y1="408.99" x2="720.33" y2="225"/><line class="cls-6" x1="408.58" y1="412.99" x2="727.26" y2="229"/><line class="cls-6" x1="415.51" y1="416.99" x2="734.19" y2="233"/><line class="cls-6" x1="422.43" y1="420.99" x2="741.12" y2="237"/><line class="cls-6" x1="429.36" y1="424.99" x2="748.04" y2="241"/><line class="cls-6" x1="436.29" y1="428.99" x2="754.97" y2="245"/><line class="cls-6" x1="443.22" y1="432.99" x2="761.9" y2="249"/><line class="cls-6" x1="450.14" y1="436.99" x2="768.83" y2="253"/><line class="cls-6" x1="457.07" y1="440.99" x2="775.76" y2="257"/><line class="cls-6" x1="470.93" y1="440.99" x2="152.24" y2="257"/><line class="cls-6" x1="477.86" y1="436.99" x2="159.17" y2="253"/><line class="cls-6" x1="484.78" y1="432.99" x2="166.1" y2="249"/><line class="cls-6" x1="491.71" y1="428.99" x2="173.03" y2="245"/><line class="cls-6" x1="498.64" y1="424.99" x2="179.96" y2="241"/><line class="cls-6" x1="505.57" y1="420.99" x2="186.88" y2="237"/><line class="cls-6" x1="512.5" y1="416.99" x2="193.81" y2="233"/><line class="cls-6" x1="519.42" y1="412.99" x2="200.74" y2="229"/><line class="cls-6" x1="526.35" y1="408.99" x2="207.67" y2="225"/><line class="cls-6" x1="533.28" y1="404.99" x2="214.6" y2="221"/><line class="cls-6" x1="540.21" y1="400.99" x2="221.52" y2="217"/><line class="cls-6" x1="547.14" y1="396.99" x2="228.45" y2="213"/><line class="cls-6" x1="554.06" y1="392.99" x2="235.38" y2="209"/><line class="cls-6" x1="560.99" y1="388.99" x2="242.31" y2="205"/><line class="cls-6" x1="567.92" y1="384.99" x2="249.24" y2="201"/><line class="cls-6" x1="574.85" y1="380.99" x2="256.16" y2="197"/><line class="cls-6" x1="581.77" y1="377" x2="263.09" y2="193"/><line class="cls-6" x1="588.7" y1="373" x2="270.02" y2="189"/><line class="cls-6" x1="595.63" y1="369" x2="276.95" y2="185"/><line class="cls-6" x1="602.56" y1="365" x2="283.87" y2="181"/><line class="cls-6" x1="609.49" y1="361" x2="290.8" y2="177"/><line class="cls-6" x1="616.41" y1="357" x2="297.73" y2="173"/><line class="cls-6" x1="623.34" y1="353" x2="304.66" y2="169"/><line class="cls-6" x1="630.27" y1="349" x2="311.59" y2="165"/><line class="cls-6" x1="637.2" y1="345" x2="318.51" y2="161"/><line class="cls-6" x1="644.13" y1="341" x2="325.44" y2="157"/><line class="cls-6" x1="651.05" y1="337" x2="332.37" y2="153"/><line class="cls-6" x1="657.98" y1="333" x2="339.3" y2="149"/><line class="cls-6" x1="664.91" y1="329" x2="346.23" y2="145"/><line class="cls-6" x1="671.84" y1="325" x2="353.15" y2="141.01"/><line class="cls-6" x1="678.77" y1="321" x2="360.08" y2="137.01"/><line class="cls-6" x1="685.69" y1="317" x2="367.01" y2="133.01"/><line class="cls-6" x1="692.62" y1="313" x2="373.94" y2="129.01"/><line class="cls-6" x1="699.55" y1="309" x2="380.87" y2="125.01"/><line class="cls-6" x1="706.48" y1="305" x2="387.79" y2="121.01"/><line class="cls-6" x1="713.41" y1="301" x2="394.72" y2="117.01"/><line class="cls-6" x1="720.33" y1="297" x2="401.65" y2="113.01"/><line class="cls-6" x1="727.26" y1="293" x2="408.58" y2="109.01"/><line class="cls-6" x1="734.19" y1="289" x2="415.51" y2="105.01"/><line class="cls-6" x1="741.12" y1="285" x2="422.43" y2="101.01"/><line class="cls-6" x1="748.04" y1="281" x2="429.36" y2="97.01"/><line class="cls-6" x1="754.97" y1="277" x2="436.29" y2="93.01"/><line class="cls-6" x1="761.9" y1="273" x2="443.22" y2="89.01"/><line class="cls-6" x1="768.83" y1="269" x2="450.14" y2="85.01"/><line class="cls-6" x1="775.76" y1="265" x2="457.07" y2="81.01"/><polygon class="cls-6" points="145.32 261 464 444.99 782.68 261 464 77.01 145.32 261"/></g><path class="cls-7" d="M464,183.38c10.3,0,20,2.3,27.21,6.49l41.57,24c7.08,4.09,11,9.46,11,15.13s-3.9,11.05-11,15.14l-41.57,24c-7.25,4.19-16.91,6.5-27.21,6.5s-20-2.31-27.21-6.5l-41.57-24c-7.08-4.09-11-9.47-11-15.14s3.9-11,11-15.13l41.57-24c7.25-4.19,16.91-6.49,27.21-6.49m0-1c-10,0-20.06,2.2-27.71,6.62l-41.57,24c-15.3,8.84-15.3,23.16,0,32l41.57,24c7.65,4.42,17.68,6.63,27.71,6.63s20.06-2.21,27.71-6.63l41.57-24c15.3-8.84,15.3-23.16,0-32l-41.57-24c-7.65-4.42-17.68-6.62-27.71-6.62Z"/><path class="cls-7" d="M464,154.69a27.18,27.18,0,0,1,13.36,3.18l124.7,72c3.38,1.95,5.24,4.48,5.24,7.13s-1.86,5.18-5.24,7.13l-124.7,72a29.63,29.63,0,0,1-26.71,0l-124.71-72c-3.38-1.95-5.24-4.48-5.24-7.13s1.86-5.18,5.24-7.13l124.71-72A27.14,27.14,0,0,1,464,154.69m0-1A28.39,28.39,0,0,0,450.15,157L325.44,229c-7.65,4.42-7.65,11.58,0,16l124.71,72a30.65,30.65,0,0,0,27.71,0l124.7-72c7.65-4.42,7.65-11.58,0-16l-124.7-72A28.43,28.43,0,0,0,464,153.69Z"/><path class="cls-7" d="M464,128.35a13.09,13.09,0,0,1,6.43,1.52l194,112c1.53.88,2.37,2,2.37,3.13s-.84,2.25-2.37,3.14l-194,112a14.36,14.36,0,0,1-12.86,0l-194-112c-1.53-.89-2.37-2-2.37-3.14s.84-2.25,2.37-3.13l194-112a13.12,13.12,0,0,1,6.43-1.52m0-1a14.12,14.12,0,0,0-6.93,1.66l-194,112c-3.82,2.21-3.82,5.79,0,8l194,112a15.38,15.38,0,0,0,13.86,0l194-112c3.83-2.21,3.83-5.79,0-8l-194-112a14.1,14.1,0,0,0-6.93-1.66Z"/><path class="cls-7" d="M464,103.18a6.11,6.11,0,0,1,3,.69l256.34,148c.59.34.93.75.93,1.13s-.34.79-.93,1.13L467,402.13a6.69,6.69,0,0,1-5.92,0l-256.34-148c-.59-.34-.93-.75-.93-1.13s.34-.79.93-1.13L461,103.87a6.11,6.11,0,0,1,3-.69m0-1a7,7,0,0,0-3.46.83L204.2,251c-1.91,1.11-1.91,2.9,0,4L460.54,403a7.63,7.63,0,0,0,6.92,0L723.8,255c1.91-1.1,1.91-2.89,0-4L467.46,103a7,7,0,0,0-3.46-.83Z"/><path class="cls-8" d="M667.78,245c0,1.45-1,2.9-2.87,4l-194,112a15.38,15.38,0,0,1-13.86,0l-194-112c-1.91-1.1-2.87-2.55-2.87-4v8c0,1.45,1,2.9,2.87,4l194,112a15.38,15.38,0,0,0,13.86,0l194-112c1.91-1.1,2.87-2.55,2.87-4Z"/><path class="cls-9" d="M608.3,237c0,2.9-1.92,5.79-5.74,8l-124.7,72c-7.66,4.42-20.06,4.42-27.71,0L325.44,245c-3.82-2.21-5.74-5.1-5.74-8v8c0,2.9,1.92,5.79,5.74,8l124.71,72c7.65,4.42,20.05,4.42,27.71,0l124.7-72c3.82-2.21,5.74-5.1,5.74-8Z"/><path class="cls-10" d="M544.76,229c0,5.79-3.83,11.58-11.48,16l-41.57,24c-15.3,8.84-40.12,8.84-55.42,0l-41.57-24c-7.65-4.42-11.48-10.21-11.48-16v8c0,5.79,3.83,11.58,11.48,16l41.57,24c15.3,8.84,40.12,8.84,55.42,0l41.57-24c7.65-4.42,11.48-10.21,11.48-16Z"/><path class="cls-11" d="M723.8,255,467.46,403a7.61,7.61,0,0,1-6.92,0L204.2,255a2.44,2.44,0,0,1-1.43-2v8a2.44,2.44,0,0,0,1.43,2L460.54,411a7.61,7.61,0,0,0,6.92,0L723.8,263a2.44,2.44,0,0,0,1.43-2v-8A2.44,2.44,0,0,1,723.8,255Z"/><line class="cls-12" x1="502.82" y1="253" x2="799.59" y2="253"/><line class="cls-12" x1="483.6" y1="309" x2="799.96" y2="309"/><line class="cls-12" x1="473.8" y1="357" x2="799.96" y2="357"/><line class="cls-12" x1="468.9" y1="400.99" x2="799.96" y2="400.99"/><polygon class="cls-1" points="464 349 477.86 357 464 365 450.14 357 464 349"/><path class="cls-13" d="M464,352.34a13.09,13.09,0,0,1,6.43,1.52c1.53.88,2.37,2,2.37,3.14s-.84,2.25-2.37,3.13a14.36,14.36,0,0,1-12.86,0c-1.53-.88-2.37-2-2.37-3.13s.84-2.26,2.37-3.14a13.12,13.12,0,0,1,6.43-1.52m0-1a14.12,14.12,0,0,0-6.93,1.66c-3.82,2.21-3.82,5.79,0,8a15.38,15.38,0,0,0,13.86,0c3.83-2.21,3.83-5.79,0-8a14.1,14.1,0,0,0-6.93-1.66Z"/><polygon class="cls-1" points="464 396.99 470.93 400.99 464 404.99 457.07 400.99 464 396.99"/><path class="cls-13" d="M464,399.17a6.11,6.11,0,0,1,3,.69c.6.34.94.76.94,1.13s-.34.79-.94,1.14a6.69,6.69,0,0,1-5.92,0c-.6-.35-.94-.76-.94-1.14s.34-.79.94-1.13a6.11,6.11,0,0,1,3-.69m0-1a7.08,7.08,0,0,0-3.46.82c-1.92,1.11-1.92,2.9,0,4a7.63,7.63,0,0,0,6.92,0c1.92-1.1,1.92-2.89,0-4a7.08,7.08,0,0,0-3.46-.82Z"/><polygon class="cls-1" points="464 293 491.71 309 464 325 436.29 309 464 293"/><path class="cls-13" d="M464,298.68a27.18,27.18,0,0,1,13.36,3.18c3.38,1.95,5.24,4.49,5.24,7.14s-1.86,5.18-5.24,7.13a29.63,29.63,0,0,1-26.71,0c-3.38-1.95-5.24-4.48-5.24-7.13s1.86-5.19,5.24-7.14A27.14,27.14,0,0,1,464,298.68m0-1A28.29,28.29,0,0,0,450.15,301c-7.66,4.42-7.66,11.58,0,16a30.65,30.65,0,0,0,27.71,0c7.65-4.42,7.65-11.58,0-16A28.33,28.33,0,0,0,464,297.68Z"/><polygon class="cls-1" points="464 221 519.42 253 464 285 408.58 253 464 221"/><path class="cls-13" d="M464,231.37c10.3,0,20,2.31,27.21,6.5,7.08,4.08,11,9.46,11,15.13s-3.9,11.05-11,15.13c-7.25,4.19-16.91,6.5-27.21,6.5s-20-2.31-27.21-6.5c-7.08-4.08-11-9.46-11-15.13s3.9-11.05,11-15.13c7.25-4.19,16.92-6.5,27.21-6.5m0-1c-10,0-20.06,2.21-27.71,6.63-15.31,8.84-15.31,23.16,0,32,7.65,4.42,17.68,6.63,27.71,6.63s20.06-2.21,27.71-6.63c15.31-8.84,15.31-23.16,0-32-7.65-4.42-17.68-6.63-27.71-6.63Z"/><path d="M812.76,258.19a5.32,5.32,0,0,1-1.68-.24,3.5,3.5,0,0,1-1.2-.69,2.58,2.58,0,0,1-.74-1,3.18,3.18,0,0,1-.25-1.28,2.53,2.53,0,0,1,.63-1.82,3.32,3.32,0,0,1,1.63-.95v-.12a2.94,2.94,0,0,1-1.4-1,2.59,2.59,0,0,1-.52-1.64,2.51,2.51,0,0,1,.93-2,4,4,0,0,1,2.6-.76,4,4,0,0,1,2.61.76,2.51,2.51,0,0,1,.93,2,2.59,2.59,0,0,1-.52,1.64,3,3,0,0,1-1.4,1v.12a3.32,3.32,0,0,1,1.63.95,2.53,2.53,0,0,1,.63,1.82,3.36,3.36,0,0,1-.25,1.28,2.68,2.68,0,0,1-.74,1,3.55,3.55,0,0,1-1.21.69A5.32,5.32,0,0,1,812.76,258.19Zm0-1.18a2.77,2.77,0,0,0,1.81-.52,1.77,1.77,0,0,0,.64-1.47v-.34a1.76,1.76,0,0,0-.64-1.47,3.39,3.39,0,0,0-3.61,0,1.76,1.76,0,0,0-.64,1.47V255a1.77,1.77,0,0,0,.64,1.47A2.76,2.76,0,0,0,812.76,257Zm0-5.44a2.44,2.44,0,0,0,1.6-.45,1.56,1.56,0,0,0,.55-1.3v-.24a1.58,1.58,0,0,0-.55-1.31,2.44,2.44,0,0,0-1.6-.44,2.48,2.48,0,0,0-1.6.44,1.6,1.6,0,0,0-.54,1.31v.24a1.58,1.58,0,0,0,.54,1.3A2.48,2.48,0,0,0,812.76,251.57Z"/><path d="M817.9,258l3.06-4.16L818,249.75h1.5l2.1,3.07h0l2.17-3.07h1.43l-2.92,4,3,4.25h-1.5l-2.15-3.23h-.05L819.32,258Z"/><path d="M814,314v-2.19h-5.39v-1.19l4.67-7.79h2v7.86h1.62v1.12h-1.62V314Zm-4.12-3.31H814v-6.82h-.08Z"/><path d="M817.9,314l3.06-4.16-2.93-4.1h1.5l2.1,3.07h0l2.17-3.07h1.43l-2.92,4,3,4.26h-1.5l-2.15-3.23h-.05L819.32,314Z"/><path d="M816.49,362h-7.33v-1.38l3.65-3.36a8.07,8.07,0,0,0,1.31-1.53,2.92,2.92,0,0,0,.53-1.63v-.19a2.19,2.19,0,0,0-.51-1.51,2,2,0,0,0-1.55-.58,2.74,2.74,0,0,0-.9.14,2.08,2.08,0,0,0-.66.4,2.49,2.49,0,0,0-.47.6,3.54,3.54,0,0,0-.29.75l-1.2-.47a4.14,4.14,0,0,1,.44-1,3.14,3.14,0,0,1,.7-.84,3.21,3.21,0,0,1,1-.58,4,4,0,0,1,1.41-.22,4.14,4.14,0,0,1,1.46.24,3,3,0,0,1,1.07.67,2.81,2.81,0,0,1,.66,1,3.43,3.43,0,0,1,.24,1.31,4,4,0,0,1-.19,1.22,4.88,4.88,0,0,1-.5,1.06,6.32,6.32,0,0,1-.78,1c-.3.32-.63.64-1,1l-3,2.71h5.87Z"/><path d="M817.9,362l3.06-4.16-2.93-4.1h1.5l2.1,3.07h0l2.17-3.07h1.43l-2.92,4,3,4.26h-1.5l-2.15-3.24h-.05L819.32,362Z"/><path d="M809.37,406v-1.18h3.12v-9h-.11l-2.82,2.62-.78-.85,3-2.76h2.1v10h2.88V406Z"/><path d="M817.9,406l3.06-4.16L818,397.74h1.5l2.1,3.07h0l2.17-3.07h1.43l-2.92,4,3,4.25h-1.5l-2.15-3.23h-.05L819.32,406Z"/></g></svg>