<svg id="Layer_1" data-name="Layer 1" xmlns="http://www.w3.org/2000/svg" width="288" height="288" viewBox="0 0 288 288">
  <title>dos axes</title>
  <g id="design">
    <g id="Dataviz-Design">
      <g id="Group-29">
        <polygon id="Fill-1" points="0 288 288 288 288 0 0 0 0 288" fill="#fefefe" fill-rule="evenodd"/>
        <g id="Group-28">
          <g id="Percent" style="isolation: isolate">
            <g style="isolation: isolate">
              <path d="M29.5,165.26H21.12v-3.33a2.28,2.28,0,0,1,.65-1.74,2.45,2.45,0,0,1,1.75-.6,2.47,2.47,0,0,1,1.76.6,2.27,2.27,0,0,1,.64,1.74v2.32H29.5Zm-4.46-1v-2.32a1.3,1.3,0,0,0-.32-.93,1.14,1.14,0,0,0-.88-.33h-.63a1.18,1.18,0,0,0-.89.33,1.34,1.34,0,0,0-.31.93v2.32Z"/>
              <path d="M29.64,155.87a2.79,2.79,0,0,1-.22,1.14,2.58,2.58,0,0,1-.66.88,3,3,0,0,1-1,.56,4.24,4.24,0,0,1-1.34.2,4.31,4.31,0,0,1-1.33-.2,3,3,0,0,1-1-.56,2.46,2.46,0,0,1-.66-.88,2.8,2.8,0,0,1-.23-1.14,2.67,2.67,0,0,1,.23-1.12,2.38,2.38,0,0,1,.63-.84,2.75,2.75,0,0,1,.95-.53,3.61,3.61,0,0,1,1.21-.19h.45v4.45h.29a2.25,2.25,0,0,0,.74-.12,2,2,0,0,0,.59-.36,1.72,1.72,0,0,0,.4-.58,2.11,2.11,0,0,0,.14-.77,1.93,1.93,0,0,0-.27-1,1.85,1.85,0,0,0-.8-.68l.5-.68a2.33,2.33,0,0,1,1,.94A2.8,2.8,0,0,1,29.64,155.87Zm-5.67,0a1.71,1.71,0,0,0,.14.72,1.64,1.64,0,0,0,.38.55,1.9,1.9,0,0,0,.59.37,2,2,0,0,0,.75.13h.08v-3.42h-.13a1.89,1.89,0,0,0-1.32.45A1.54,1.54,0,0,0,24,155.87Z"/>
              <path d="M29.5,151.47H23.31v-.95h1.14v-.06a2,2,0,0,1-.79-.6,1.81,1.81,0,0,1-.35-1.19v-.38h1v.57a2.22,2.22,0,0,0,.29,1.22.88.88,0,0,0,.74.44h4.2Z"/>
              <path d="M29.64,144.7a2.86,2.86,0,0,1-.22,1.16,2.55,2.55,0,0,1-.65.87,3.09,3.09,0,0,1-1,.54,4.86,4.86,0,0,1-2.69,0,3.09,3.09,0,0,1-1-.54,2.43,2.43,0,0,1-.65-.87,2.86,2.86,0,0,1-.23-1.16,2.5,2.5,0,0,1,.41-1.49,2.34,2.34,0,0,1,1.05-.83l.4.8a1.48,1.48,0,0,0-.74.55,1.65,1.65,0,0,0-.26,1,2,2,0,0,0,.13.75,1.45,1.45,0,0,0,.39.54,1.6,1.6,0,0,0,.59.32,2.19,2.19,0,0,0,.75.11h1.05a2,2,0,0,0,1.34-.44,1.57,1.57,0,0,0,.52-1.28A1.73,1.73,0,0,0,27.71,143l.47-.7a2.52,2.52,0,0,1,1.07.89A2.66,2.66,0,0,1,29.64,144.7Z"/>
              <path d="M29.64,138.58a2.79,2.79,0,0,1-.22,1.14,2.58,2.58,0,0,1-.66.88,3,3,0,0,1-1,.56,4.24,4.24,0,0,1-1.34.2,4.31,4.31,0,0,1-1.33-.2,3,3,0,0,1-1-.56,2.46,2.46,0,0,1-.66-.88,2.8,2.8,0,0,1-.23-1.14,2.67,2.67,0,0,1,.23-1.12,2.38,2.38,0,0,1,.63-.84,2.94,2.94,0,0,1,.95-.54,3.89,3.89,0,0,1,1.21-.18h.45v4.45h.29a2,2,0,0,0,.74-.13,1.74,1.74,0,0,0,.59-.35,1.72,1.72,0,0,0,.4-.58,2.13,2.13,0,0,0,.14-.78,1.89,1.89,0,0,0-.27-1,1.85,1.85,0,0,0-.8-.68l.5-.68a2.37,2.37,0,0,1,1,.93A2.86,2.86,0,0,1,29.64,138.58Zm-5.67,0a1.64,1.64,0,0,0,.14.71,1.59,1.59,0,0,0,.38.56,1.9,1.9,0,0,0,.59.37,2,2,0,0,0,.75.13h.08v-3.42h-.13a1.89,1.89,0,0,0-1.32.45A1.54,1.54,0,0,0,24,138.58Z"/>
              <path d="M29.5,134.18H23.31v-1h1v-.05a2,2,0,0,1-.83-.64,1.83,1.83,0,0,1-.31-1.11,1.93,1.93,0,0,1,.62-1.51,2.49,2.49,0,0,1,1.75-.56h4v1H25.69c-1.12,0-1.67.47-1.67,1.4a2.1,2.1,0,0,0,.07.56,1.75,1.75,0,0,0,.21.48,1.12,1.12,0,0,0,.37.35,1.08,1.08,0,0,0,.52.12H29.5Z"/>
              <path d="M29.5,125.87a1,1,0,0,1-.28.76,1.06,1.06,0,0,1-.74.26H24.16v1h-.85v-.58a.51.51,0,0,0-.13-.42.63.63,0,0,0-.44-.12H21.59v-.86h1.72v-1.36h.85v1.36h4.49v-1.26h.85Z"/>
            </g>
          </g>
          <line id="Line-Copy-4" x1="61.5" y1="115.73" x2="262.5" y2="115.73" fill="none" stroke="#dcdcdc" stroke-linecap="square"/>
          <line id="Line-Copy-8" x1="61.5" y1="175.19" x2="262.5" y2="175.19" fill="none" stroke="#dcdcdc" stroke-linecap="square"/>
          <line id="Line-Copy-6" x1="61.5" y1="145.46" x2="262.5" y2="145.46" fill="none" stroke="#dcdcdc" stroke-linecap="square"/>
          <g id="Months" style="isolation: isolate">
            <g style="isolation: isolate">
              <path d="M148.66,236.77h-.06l-.71,1.41-2,3.65-2-3.65-.71-1.41h-.06v7.06h-1v-8.38h1.34l2.4,4.52h.06l2.42-4.52h1.29v8.38h-1Z"/>
              <path d="M154.25,244a2.79,2.79,0,0,1-1.14-.22,2.49,2.49,0,0,1-.88-.66,2.82,2.82,0,0,1-.57-1,4,4,0,0,1-.21-1.34,4,4,0,0,1,.21-1.33,2.82,2.82,0,0,1,.57-1,2.38,2.38,0,0,1,.88-.66,2.8,2.8,0,0,1,1.14-.23,2.75,2.75,0,0,1,1.13.23,2.5,2.5,0,0,1,.89.66,3,3,0,0,1,.57,1,4,4,0,0,1,.21,1.33,4,4,0,0,1-.21,1.34,3,3,0,0,1-.57,1,2.62,2.62,0,0,1-.89.66A2.75,2.75,0,0,1,154.25,244Zm0-.85a1.74,1.74,0,0,0,1.27-.48,2,2,0,0,0,.49-1.46v-.89a1.94,1.94,0,0,0-.49-1.46,1.92,1.92,0,0,0-2.54,0,1.94,1.94,0,0,0-.49,1.46v.89a2,2,0,0,0,.49,1.46A1.74,1.74,0,0,0,154.25,243.12Z"/>
              <path d="M158.76,243.83v-6.19h1v1h.05a2.13,2.13,0,0,1,.64-.83,1.87,1.87,0,0,1,1.11-.31,2,2,0,0,1,1.52.62,2.54,2.54,0,0,1,.56,1.75v4h-1V240c0-1.12-.47-1.67-1.41-1.67a2,2,0,0,0-.55.07,1.81,1.81,0,0,0-.49.21,1.09,1.09,0,0,0-.34.37,1,1,0,0,0-.13.52v4.31Z"/>
              <path d="M167.08,243.83a1,1,0,0,1-.76-.28,1,1,0,0,1-.26-.74v-4.32h-1v-.85h.57a.55.55,0,0,0,.43-.13.63.63,0,0,0,.11-.44v-1.15H167v1.72h1.35v.85H167V243h1.26v.85Z"/>
              <path d="M170.05,235h1v3.68h.05a2.13,2.13,0,0,1,.64-.83,1.87,1.87,0,0,1,1.11-.31,2,2,0,0,1,1.52.62,2.54,2.54,0,0,1,.56,1.75v4h-1V240c0-1.12-.47-1.67-1.4-1.67a2,2,0,0,0-.56.07,1.81,1.81,0,0,0-.49.21,1.09,1.09,0,0,0-.34.37,1.08,1.08,0,0,0-.13.52v4.31h-1Z"/>
              <path d="M178.86,244a2.87,2.87,0,0,1-1.44-.33,3.26,3.26,0,0,1-1-.88l.69-.55a2.75,2.75,0,0,0,.8.7,2,2,0,0,0,1,.25,1.52,1.52,0,0,0,1-.27.86.86,0,0,0,.34-.74.91.91,0,0,0-.23-.62,1.44,1.44,0,0,0-.85-.35l-.49-.07a4.35,4.35,0,0,1-.79-.19,2,2,0,0,1-.63-.34,1.42,1.42,0,0,1-.42-.52,1.55,1.55,0,0,1-.15-.74,1.81,1.81,0,0,1,.16-.8,1.64,1.64,0,0,1,.47-.57,1.91,1.91,0,0,1,.7-.34,3,3,0,0,1,.87-.12,2.59,2.59,0,0,1,2.16,1l-.63.58a2,2,0,0,0-.6-.53,2,2,0,0,0-1-.23,1.36,1.36,0,0,0-.9.26.84.84,0,0,0-.31.7.73.73,0,0,0,.31.66,2.1,2.1,0,0,0,.88.3l.48.07a2.55,2.55,0,0,1,1.46.6,1.54,1.54,0,0,1,.43,1.14,1.76,1.76,0,0,1-.61,1.42A2.55,2.55,0,0,1,178.86,244Z"/>
            </g>
          </g>
          <g id="Group-31">
            <g id="Jan" style="isolation: isolate">
              <g style="isolation: isolate">
                <g>
                  <path d="M73.06,212.45v6.21a2.49,2.49,0,0,1-.17,1,2.09,2.09,0,0,1-.49.73,2.24,2.24,0,0,1-.76.46,2.78,2.78,0,0,1-1,.16,2.33,2.33,0,0,1-1.57-.51,2.36,2.36,0,0,1-.76-1.38l.91-.22a1.7,1.7,0,0,0,.46.88,1.3,1.3,0,0,0,1,.35,1.32,1.32,0,0,0,1-.4,1.76,1.76,0,0,0,.36-1.2v-5.15H69.18v-.89Z"/>
                  <path d="M79.77,220.83a.93.93,0,0,1-.77-.29,1.3,1.3,0,0,1-.29-.72h-.06a1.62,1.62,0,0,1-.68.87,2.08,2.08,0,0,1-1.11.28,2.14,2.14,0,0,1-1.53-.5,1.76,1.76,0,0,1-.55-1.37,1.55,1.55,0,0,1,.64-1.34,3.45,3.45,0,0,1,2-.47h1.23v-.61a1.38,1.38,0,0,0-.36-1,1.57,1.57,0,0,0-1.11-.35,1.71,1.71,0,0,0-.94.25,2.17,2.17,0,0,0-.63.68l-.58-.54a2.14,2.14,0,0,1,.81-.86,2.47,2.47,0,0,1,1.39-.36A2.6,2.6,0,0,1,79,215a1.93,1.93,0,0,1,.62,1.54V220h.71v.85ZM77,220.16a2.29,2.29,0,0,0,.66-.09,1.46,1.46,0,0,0,.52-.24,1.13,1.13,0,0,0,.33-.36.84.84,0,0,0,.13-.44v-1H77.37a2.3,2.3,0,0,0-1.2.24.78.78,0,0,0-.38.7v.25a.85.85,0,0,0,.33.71A1.49,1.49,0,0,0,77,220.16Z"/>
                  <path d="M81.81,220.83v-6.19h1v1h0a2.13,2.13,0,0,1,.64-.83,1.87,1.87,0,0,1,1.11-.31,2,2,0,0,1,1.52.62,2.54,2.54,0,0,1,.56,1.75v4h-1V217c0-1.12-.47-1.67-1.4-1.67a2,2,0,0,0-.56.07,1.81,1.81,0,0,0-.49.21,1.09,1.09,0,0,0-.34.37,1,1,0,0,0-.13.52v4.31Z"/>
                </g>
              </g>
            </g>
            <g id="Feb" style="isolation: isolate">
              <g style="isolation: isolate">
                <g>
                  <path d="M126.45,220.83v-8.38h5v.89h-4v2.81h3.63V217h-3.63v3.79Z"/>
                  <path d="M135.22,221a2.79,2.79,0,0,1-1.14-.22,2.49,2.49,0,0,1-.88-.66,3,3,0,0,1-.56-1,4,4,0,0,1-.2-1.34,4,4,0,0,1,.2-1.33,3,3,0,0,1,.56-1,2.38,2.38,0,0,1,.88-.66,2.8,2.8,0,0,1,1.14-.23,2.67,2.67,0,0,1,1.12.23,2.38,2.38,0,0,1,.84.63,2.75,2.75,0,0,1,.53,1,3.61,3.61,0,0,1,.19,1.21V218h-4.45v.29a2.25,2.25,0,0,0,.12.74,2,2,0,0,0,.36.59,1.72,1.72,0,0,0,.58.4,2.07,2.07,0,0,0,.77.14,1.93,1.93,0,0,0,1-.27,1.85,1.85,0,0,0,.68-.8l.68.5a2.33,2.33,0,0,1-.94,1A2.8,2.8,0,0,1,135.22,221Zm0-5.67a1.71,1.71,0,0,0-.72.14,1.79,1.79,0,0,0-.56.38,2.08,2.08,0,0,0-.36.59,2,2,0,0,0-.13.75v.08h3.42v-.13a1.89,1.89,0,0,0-.45-1.32A1.54,1.54,0,0,0,135.22,215.3Z"/>
                  <path d="M139.61,212h1v3.68h.05a1.83,1.83,0,0,1,.7-.86,2.18,2.18,0,0,1,1.11-.28,2.38,2.38,0,0,1,1,.23,2.28,2.28,0,0,1,.8.65,3,3,0,0,1,.5,1,5.41,5.41,0,0,1,0,2.69,3,3,0,0,1-.5,1,2.23,2.23,0,0,1-1.85.87,1.87,1.87,0,0,1-1.81-1.14h-.05v1h-1Zm2.56,8.17a1.65,1.65,0,0,0,1.28-.51,1.88,1.88,0,0,0,.47-1.35V217.2a1.88,1.88,0,0,0-.47-1.34,1.65,1.65,0,0,0-1.28-.51,2.11,2.11,0,0,0-.62.09,2,2,0,0,0-.51.24,1.35,1.35,0,0,0-.34.38,1,1,0,0,0-.13.48v2.32a1.12,1.12,0,0,0,.13.53,1.19,1.19,0,0,0,.34.4,1.73,1.73,0,0,0,.51.25A2.51,2.51,0,0,0,142.17,220.12Z"/>
                </g>
              </g>
            </g>
            <g id="Mar" style="isolation: isolate">
              <g style="isolation: isolate">
                <g>
                  <path d="M188.31,213.77h-.06l-.71,1.41-2,3.65-2-3.65-.71-1.41h-.06v7.06h-1v-8.38h1.35l2.4,4.52h.06l2.41-4.52h1.3v8.38h-1Z"/>
                  <path d="M196.06,220.83a1,1,0,0,1-.77-.29,1.38,1.38,0,0,1-.29-.72h-.06a1.62,1.62,0,0,1-.68.87,2.08,2.08,0,0,1-1.11.28,2.14,2.14,0,0,1-1.53-.5,1.76,1.76,0,0,1-.55-1.37,1.58,1.58,0,0,1,.64-1.34,3.45,3.45,0,0,1,2-.47h1.23v-.61a1.34,1.34,0,0,0-.36-1,1.55,1.55,0,0,0-1.11-.35,1.73,1.73,0,0,0-.94.25,2.17,2.17,0,0,0-.63.68l-.58-.54a2.14,2.14,0,0,1,.81-.86,2.5,2.5,0,0,1,1.39-.36,2.58,2.58,0,0,1,1.75.55,1.94,1.94,0,0,1,.63,1.54V220h.7v.85Zm-2.76-.67a2.29,2.29,0,0,0,.66-.09,1.39,1.39,0,0,0,.52-.24,1.16,1.16,0,0,0,.34-.36.83.83,0,0,0,.12-.44v-1h-1.28a2.3,2.3,0,0,0-1.2.24.78.78,0,0,0-.38.7v.25a.85.85,0,0,0,.33.71A1.49,1.49,0,0,0,193.3,220.16Z"/>
                  <path d="M198.1,220.83v-6.19h1v1.14h.06a2,2,0,0,1,.6-.79,1.81,1.81,0,0,1,1.19-.35h.37v1h-.56a2.22,2.22,0,0,0-1.22.29.88.88,0,0,0-.44.74v4.2Z"/>
                </g>
              </g>
            </g>
            <g id="Apr" style="isolation: isolate">
              <g style="isolation: isolate">
                <g>
                  <path d="M239.36,220.83l-.84-2.47h-3.38l-.84,2.47h-1l2.93-8.38h1.28l2.93,8.38Zm-2.51-7.44h-.06l-1.41,4.08h2.89Z"/>
                  <path d="M241.84,214.64h1v1h0a1.83,1.83,0,0,1,.7-.86,2.19,2.19,0,0,1,1.12-.28,2.37,2.37,0,0,1,1,.23,2.28,2.28,0,0,1,.8.65,3,3,0,0,1,.5,1,5.41,5.41,0,0,1,0,2.69,3,3,0,0,1-.5,1,2.39,2.39,0,0,1-.8.65,2.36,2.36,0,0,1-1,.22,1.89,1.89,0,0,1-1.82-1.14h0v3.4h-1Zm2.56,5.48a1.64,1.64,0,0,0,1.28-.51,1.88,1.88,0,0,0,.47-1.35V217.2a1.88,1.88,0,0,0-.47-1.34,1.64,1.64,0,0,0-1.28-.51,2.11,2.11,0,0,0-.62.09,2,2,0,0,0-.51.24,1.35,1.35,0,0,0-.34.38,1,1,0,0,0-.13.48v2.32a1.12,1.12,0,0,0,.13.53,1.19,1.19,0,0,0,.34.4,1.73,1.73,0,0,0,.51.25A2.51,2.51,0,0,0,244.4,220.12Z"/>
                  <path d="M248.94,220.83v-6.19h1v1.14H250a1.8,1.8,0,0,1,.6-.79,1.78,1.78,0,0,1,1.19-.35h.37v1h-.57a2.25,2.25,0,0,0-1.22.29.87.87,0,0,0-.43.74v4.2Z"/>
                </g>
              </g>
            </g>
          </g>
          <rect id="Rectangle" x="70.5" y="88.27" width="8" height="117" fill="#6929c4"/>
          <rect id="Rectangle-2" data-name="Rectangle" x="80.5" y="103.27" width="8" height="102" fill="#009d9a"/>
          <rect id="Rectangle-3" data-name="Rectangle" x="126.5" y="121.27" width="8" height="84" fill="#6929c4"/>
          <rect id="Rectangle-Copy" x="180.17" y="114.27" width="8" height="91" fill="#6929c4"/>
          <rect id="Rectangle-4" data-name="Rectangle" x="136.5" y="161.27" width="8" height="44" fill="#009d9a"/>
          <rect id="Rectangle-Copy-2" x="190.17" y="98.27" width="8" height="107" fill="#009d9a"/>
          <rect id="Rectangle-Copy-4" x="234.17" y="174.27" width="8" height="31" fill="#6929c4"/>
          <rect id="Rectangle-Copy-3" x="244.17" y="201.8" width="8" height="3.44" fill="#009d9a"/>
          <g id="_0" data-name="0" style="isolation: isolate">
            <g style="isolation: isolate">
              <path d="M49.89,205.12a2.32,2.32,0,0,1-1.1-.24,2.07,2.07,0,0,1-.76-.71,3.22,3.22,0,0,1-.44-1.13,7.12,7.12,0,0,1-.14-1.53,7,7,0,0,1,.14-1.52,3.27,3.27,0,0,1,.44-1.14,2.07,2.07,0,0,1,.76-.71,2.32,2.32,0,0,1,1.1-.24,2.38,2.38,0,0,1,1.1.24,2.15,2.15,0,0,1,.76.71,3.48,3.48,0,0,1,.44,1.14,7.64,7.64,0,0,1,.14,1.52,7.82,7.82,0,0,1-.14,1.53,3.42,3.42,0,0,1-.44,1.13,2.15,2.15,0,0,1-.76.71A2.38,2.38,0,0,1,49.89,205.12Zm0-.73a1.47,1.47,0,0,0,.72-.17,1.18,1.18,0,0,0,.48-.46,2.35,2.35,0,0,0,.28-.72,4.75,4.75,0,0,0,.09-1v-1.14a4.65,4.65,0,0,0-.09-.95,2.32,2.32,0,0,0-.28-.73,1.35,1.35,0,0,0-.48-.47,1.7,1.7,0,0,0-1.44,0,1.38,1.38,0,0,0-.49.47,2.32,2.32,0,0,0-.27.73,4.65,4.65,0,0,0-.09.95v1.14a4.75,4.75,0,0,0,.09,1,2.35,2.35,0,0,0,.27.72,1.2,1.2,0,0,0,.49.46A1.47,1.47,0,0,0,49.89,204.39Zm0-2.29a.68.68,0,0,1-.49-.14.47.47,0,0,1-.13-.34v-.22a.47.47,0,0,1,.13-.34.68.68,0,0,1,.49-.14.67.67,0,0,1,.48.14.48.48,0,0,1,.14.34v.22a.48.48,0,0,1-.14.34A.67.67,0,0,1,49.89,202.1Z"/>
            </g>
          </g>
          <g id="_80" data-name="80" style="isolation: isolate">
            <g style="isolation: isolate">
              <g>
                <path d="M43.77,95.12A3.17,3.17,0,0,1,42.7,95a2.06,2.06,0,0,1-.76-.42,1.61,1.61,0,0,1-.46-.64,1.94,1.94,0,0,1-.16-.8A1.61,1.61,0,0,1,41.71,92a2.06,2.06,0,0,1,1-.59v-.08a1.77,1.77,0,0,1-.88-.62,1.6,1.6,0,0,1-.33-1,1.55,1.55,0,0,1,.59-1.27,3.08,3.08,0,0,1,3.3,0A1.55,1.55,0,0,1,46,89.65a1.65,1.65,0,0,1-.32,1,1.85,1.85,0,0,1-.89.62v.08a2.06,2.06,0,0,1,1,.59,1.61,1.61,0,0,1,.39,1.14,2.11,2.11,0,0,1-.15.8,1.75,1.75,0,0,1-.47.64,2.23,2.23,0,0,1-.76.42A3.17,3.17,0,0,1,43.77,95.12Zm0-.71a1.84,1.84,0,0,0,1.16-.33,1.11,1.11,0,0,0,.42-.93v-.22a1.14,1.14,0,0,0-.41-.93,1.85,1.85,0,0,0-1.17-.33,1.8,1.8,0,0,0-1.16.33,1.11,1.11,0,0,0-.42.93v.22a1.11,1.11,0,0,0,.42.93A1.84,1.84,0,0,0,43.77,94.41Zm0-3.42a1.65,1.65,0,0,0,1-.29,1,1,0,0,0,.35-.83v-.14a1,1,0,0,0-.36-.83,1.66,1.66,0,0,0-1-.29,1.61,1.61,0,0,0-1,.29,1,1,0,0,0-.37.83v.14a1,1,0,0,0,.36.83A1.6,1.6,0,0,0,43.77,91Z"/>
                <path d="M49.88,95.12a2.35,2.35,0,0,1-1.1-.24,2.07,2.07,0,0,1-.76-.71A3.22,3.22,0,0,1,47.58,93a7.82,7.82,0,0,1-.14-1.53A7.64,7.64,0,0,1,47.58,90,3.27,3.27,0,0,1,48,88.85a2.07,2.07,0,0,1,.76-.71,2.64,2.64,0,0,1,2.2,0,2.07,2.07,0,0,1,.76.71A3.27,3.27,0,0,1,52.18,90a7.64,7.64,0,0,1,.14,1.52A7.82,7.82,0,0,1,52.18,93a3.22,3.22,0,0,1-.44,1.13,2.07,2.07,0,0,1-.76.71A2.35,2.35,0,0,1,49.88,95.12Zm0-.73a1.47,1.47,0,0,0,.72-.17,1.27,1.27,0,0,0,.49-.46,2.35,2.35,0,0,0,.27-.72,4.75,4.75,0,0,0,.09-1V90.94a4.65,4.65,0,0,0-.09-1,2.32,2.32,0,0,0-.27-.73,1.54,1.54,0,0,0-1.93-.47,1.35,1.35,0,0,0-.48.47,2.1,2.1,0,0,0-.28.73,4.65,4.65,0,0,0-.09,1v1.14a4.75,4.75,0,0,0,.09,1,2.12,2.12,0,0,0,.28.72,1.18,1.18,0,0,0,.48.46A1.47,1.47,0,0,0,49.88,94.39Zm0-2.29A.67.67,0,0,1,49.4,92a.48.48,0,0,1-.14-.34V91.4a.48.48,0,0,1,.14-.34.67.67,0,0,1,.48-.14.7.7,0,0,1,.49.14.47.47,0,0,1,.13.34v.22a.47.47,0,0,1-.13.34A.7.7,0,0,1,49.88,92.1Z"/>
              </g>
            </g>
          </g>
          <path id="Rectangle-5" data-name="Rectangle" d="M262.5,204.87H61.5v-119h201Z" fill="none" stroke="#dcdcdc"/>
          <g id="_20-copy-2" data-name="20-copy-2" style="isolation: isolate">
            <g style="isolation: isolate">
              <g>
                <path d="M46.14,179H41.48v-.86l2.33-2.1a5.21,5.21,0,0,0,.84-.95,1.77,1.77,0,0,0,.33-1V174a1.38,1.38,0,0,0-.33-1,1.6,1.6,0,0,0-2,0,1.9,1.9,0,0,0-.52.86l-.75-.28a3,3,0,0,1,.28-.61,2,2,0,0,1,.44-.52,2.1,2.1,0,0,1,.66-.37,2.64,2.64,0,0,1,.89-.14,2.67,2.67,0,0,1,.93.15,2,2,0,0,1,.68.42,1.87,1.87,0,0,1,.42.64,2.38,2.38,0,0,1,.14.81,2.56,2.56,0,0,1-.11.75,3.43,3.43,0,0,1-.32.67,4.59,4.59,0,0,1-.49.62,7.48,7.48,0,0,1-.64.61l-1.95,1.7h3.79Z"/>
                <path d="M49.88,179.12a2.35,2.35,0,0,1-1.1-.24,2.07,2.07,0,0,1-.76-.71,3.22,3.22,0,0,1-.44-1.13,7.82,7.82,0,0,1-.14-1.53,7.64,7.64,0,0,1,.14-1.52,3.27,3.27,0,0,1,.44-1.14,2.07,2.07,0,0,1,.76-.71,2.64,2.64,0,0,1,2.2,0,2.07,2.07,0,0,1,.76.71,3.27,3.27,0,0,1,.44,1.14,7.64,7.64,0,0,1,.14,1.52,7.82,7.82,0,0,1-.14,1.53,3.22,3.22,0,0,1-.44,1.13,2.07,2.07,0,0,1-.76.71A2.35,2.35,0,0,1,49.88,179.12Zm0-.73a1.47,1.47,0,0,0,.72-.17,1.27,1.27,0,0,0,.49-.46,2.35,2.35,0,0,0,.27-.72,4.75,4.75,0,0,0,.09-1v-1.14a4.65,4.65,0,0,0-.09-.95,2.32,2.32,0,0,0-.27-.73,1.54,1.54,0,0,0-1.93-.47,1.35,1.35,0,0,0-.48.47,2.1,2.1,0,0,0-.28.73,4.65,4.65,0,0,0-.09.95v1.14a4.75,4.75,0,0,0,.09,1,2.12,2.12,0,0,0,.28.72,1.18,1.18,0,0,0,.48.46A1.47,1.47,0,0,0,49.88,178.39Zm0-2.29a.67.67,0,0,1-.48-.14.48.48,0,0,1-.14-.34v-.22a.48.48,0,0,1,.14-.34.67.67,0,0,1,.48-.14.7.7,0,0,1,.49.14.47.47,0,0,1,.13.34v.22a.47.47,0,0,1-.13.34A.7.7,0,0,1,49.88,176.1Z"/>
              </g>
            </g>
          </g>
          <g id="_40-copy-2" data-name="40-copy-2" style="isolation: isolate">
            <g style="isolation: isolate">
              <g>
                <path d="M44.55,149v-1.37H41.11v-.74l3-4.87h1.22v4.92h1v.69h-1V149Zm-2.69-2.06h2.69v-4.27h0Z"/>
                <path d="M49.88,149.12a2.35,2.35,0,0,1-1.1-.24,2.07,2.07,0,0,1-.76-.71,3.22,3.22,0,0,1-.44-1.13,7.82,7.82,0,0,1-.14-1.53,7.64,7.64,0,0,1,.14-1.52,3.27,3.27,0,0,1,.44-1.14,2.07,2.07,0,0,1,.76-.71,2.64,2.64,0,0,1,2.2,0,2.07,2.07,0,0,1,.76.71,3.27,3.27,0,0,1,.44,1.14,7.64,7.64,0,0,1,.14,1.52,7.82,7.82,0,0,1-.14,1.53,3.22,3.22,0,0,1-.44,1.13,2.07,2.07,0,0,1-.76.71A2.35,2.35,0,0,1,49.88,149.12Zm0-.73a1.47,1.47,0,0,0,.72-.17,1.27,1.27,0,0,0,.49-.46,2.35,2.35,0,0,0,.27-.72,4.75,4.75,0,0,0,.09-1v-1.14a4.65,4.65,0,0,0-.09-.95,2.32,2.32,0,0,0-.27-.73,1.54,1.54,0,0,0-1.93-.47,1.35,1.35,0,0,0-.48.47,2.1,2.1,0,0,0-.28.73,4.65,4.65,0,0,0-.09.95v1.14a4.75,4.75,0,0,0,.09,1,2.12,2.12,0,0,0,.28.72,1.18,1.18,0,0,0,.48.46A1.47,1.47,0,0,0,49.88,148.39Zm0-2.29a.67.67,0,0,1-.48-.14.48.48,0,0,1-.14-.34v-.22a.48.48,0,0,1,.14-.34.67.67,0,0,1,.48-.14.7.7,0,0,1,.49.14.47.47,0,0,1,.13.34v.22a.47.47,0,0,1-.13.34A.7.7,0,0,1,49.88,146.1Z"/>
              </g>
            </g>
          </g>
          <g id="_60-copy-2" data-name="60-copy-2" style="isolation: isolate">
            <g style="isolation: isolate">
              <g>
                <path d="M43.78,119.12a2.4,2.4,0,0,1-1-.19,2.07,2.07,0,0,1-.74-.52,2.42,2.42,0,0,1-.47-.85,3.56,3.56,0,0,1-.17-1.12,4.44,4.44,0,0,1,.24-1.47,5.34,5.34,0,0,1,.6-1.25,5.71,5.71,0,0,1,.81-1,5.28,5.28,0,0,1,.88-.7H45a11.5,11.5,0,0,0-1,.8,6.67,6.67,0,0,0-.79.81,4.61,4.61,0,0,0-.57.91,6.16,6.16,0,0,0-.38,1.1l0,0A2.14,2.14,0,0,1,43,115a1.75,1.75,0,0,1,1.06-.29,2.24,2.24,0,0,1,.84.15,1.93,1.93,0,0,1,.66.43,2,2,0,0,1,.44.68,2.52,2.52,0,0,1,.15.89,2.62,2.62,0,0,1-.17.94,2.09,2.09,0,0,1-.47.72,2.06,2.06,0,0,1-.74.48A2.74,2.74,0,0,1,43.78,119.12Zm0-.71a1.54,1.54,0,0,0,1.12-.39,1.49,1.49,0,0,0,.39-1.1v-.08a1.49,1.49,0,0,0-.39-1.1,1.54,1.54,0,0,0-1.12-.39,1.5,1.5,0,0,0-1.11.39,1.46,1.46,0,0,0-.4,1.1v.08a1.46,1.46,0,0,0,.4,1.1A1.5,1.5,0,0,0,43.77,118.41Z"/>
                <path d="M49.88,119.12a2.35,2.35,0,0,1-1.1-.24,2.07,2.07,0,0,1-.76-.71,3.22,3.22,0,0,1-.44-1.13,7.82,7.82,0,0,1-.14-1.53,7.64,7.64,0,0,1,.14-1.52,3.27,3.27,0,0,1,.44-1.14,2.07,2.07,0,0,1,.76-.71,2.64,2.64,0,0,1,2.2,0,2.07,2.07,0,0,1,.76.71,3.27,3.27,0,0,1,.44,1.14,7.64,7.64,0,0,1,.14,1.52,7.82,7.82,0,0,1-.14,1.53,3.22,3.22,0,0,1-.44,1.13,2.07,2.07,0,0,1-.76.71A2.35,2.35,0,0,1,49.88,119.12Zm0-.73a1.47,1.47,0,0,0,.72-.17,1.27,1.27,0,0,0,.49-.46,2.35,2.35,0,0,0,.27-.72,4.75,4.75,0,0,0,.09-1v-1.14a4.65,4.65,0,0,0-.09-1,2.32,2.32,0,0,0-.27-.73,1.54,1.54,0,0,0-1.93-.47,1.35,1.35,0,0,0-.48.47,2.1,2.1,0,0,0-.28.73,4.65,4.65,0,0,0-.09,1v1.14a4.75,4.75,0,0,0,.09,1,2.12,2.12,0,0,0,.28.72,1.18,1.18,0,0,0,.48.46A1.47,1.47,0,0,0,49.88,118.39Zm0-2.29a.67.67,0,0,1-.48-.14.48.48,0,0,1-.14-.34v-.22a.48.48,0,0,1,.14-.34.67.67,0,0,1,.48-.14.7.7,0,0,1,.49.14.47.47,0,0,1,.13.34v.22a.47.47,0,0,1-.13.34A.7.7,0,0,1,49.88,116.1Z"/>
              </g>
            </g>
          </g>
          <line id="Line-Copy-10" x1="61.5" y1="204.5" x2="61.5" y2="86" fill="none" stroke="#8c8c8c" stroke-linecap="square"/>
          <line id="Line-Copy-10-2" data-name="Line-Copy-10" x1="61.5" y1="204.83" x2="262.5" y2="204.83" fill="none" stroke="#8c8c8c" stroke-linecap="square"/>
        </g>
      </g>
    </g>
  </g>
</svg>
