<svg xmlns="http://www.w3.org/2000/svg" viewBox="0 0 464 464"><path d="M139.095 245.667h10.512c3.66 0 5.896-1.915 5.896-5.44v-1.713c0-3.524-2.236-5.439-5.896-5.439h-10.512v12.592zm0-16.22h9.801c3.354 0 5.387-1.76 5.387-4.885v-1.714c0-3.12-2.033-4.884-5.387-4.884h-9.8v11.482zm-4.269-15.213h14.582c5.837 0 9.445 3.578 9.445 9.068 0 5.237-3.4 7.102-5.739 7.455v.302c2.541.151 6.959 2.319 6.959 8.16 0 5.793-3.91 10.177-9.144 10.177h-16.103v-35.162zM112 214h14v3.612h-4.903v28.776H126V250h-14v-3.612h4.899v-28.776H112V214zm83.598 5.776h-.254l-2.999 5.892-8.483 15.313-8.433-15.313-2.994-5.842h-.254v29.568h-4.168v-35.158h5.59l10.161 18.938h.2l10.21-18.938h5.587v35.158h-4.163v-29.618zm21.412 12.292c0-11.89 6.145-18.438 15.696-18.438 6.501 0 10.669 2.62 13.257 8.261l-6.654 3.428c-.915-2.924-2.795-4.89-6.603-4.89-4.519 0-7.518 3.025-7.518 8.565v5.64c0 5.544 2.999 8.564 7.518 8.564 3.808 0 5.993-2.369 7.06-5.237l6.298 3.628c-2.638 5.339-6.857 8.413-13.358 8.413-9.55 0-15.696-6.048-15.696-17.934zm41.517 17.327c-5.129 0-7.466-2.57-7.466-7.253V212.12h7.517v31.483h3.355v5.792h-3.406zm52.344-4.432h-.254c-.915 2.667-3.1 5.036-7.467 5.036-5.434 0-8.33-3.776-8.33-10.428v-16.62h7.517v15.969c0 3.221 1.067 5.035 3.812 5.035 2.337 0 4.722-1.31 4.722-3.826v-17.178h7.518v26.443h-7.518v-4.43zm-28.919-6.097v-5.388c0-3.327-1.728-5.238-4.672-5.238-2.947 0-4.675 1.911-4.675 5.238v5.388c0 3.327 1.728 5.242 4.675 5.242 2.944 0 4.672-1.915 4.672-5.242m-17.17-2.717c0-8.514 4.676-13.806 12.498-13.806 7.823 0 12.495 5.292 12.495 13.806 0 8.509-4.672 13.851-12.495 13.851-7.822 0-12.498-5.342-12.498-13.851m76.99 3.927v-7.808c0-2.419-2.085-3.88-4.93-3.88-2.843 0-4.926 2.167-4.926 5.493v4.582c0 3.327 2.083 5.49 4.925 5.49 2.846 0 4.93-1.458 4.93-3.877zm0 4.889h-.255c-.762 2.869-3.71 5.036-7.162 5.036-6.755 0-10.262-4.889-10.262-13.856 0-8.963 3.507-13.801 10.262-13.801 3.452 0 6.4 2.117 7.162 5.04h.254V212.12h7.518v37.275h-7.518v-4.431z" fill="#FFF" fill-rule="evenodd"/></svg>