<svg xmlns="http://www.w3.org/2000/svg" xmlns:xlink="http://www.w3.org/1999/xlink" viewBox="0 0 288 288"><defs><style>.cls-1{fill:#fff;}.cls-2,.cls-5,.cls-8{fill:none;}.cls-3{stroke:#4589ff;fill:url(#linear-gradient);}.cls-3,.cls-4,.cls-5,.cls-6,.cls-7,.cls-8{stroke-linejoin:round;stroke-width:0.25px;}.cls-4{fill:#0f62fe;stroke:#d0e2ff;}.cls-5{stroke:#78a9ff;}.cls-6,.cls-7,.cls-8{stroke:#be95ff;}.cls-6{fill:url(#linear-gradient-2);}.cls-7,.cls-9{fill:#be95ff;}</style><linearGradient id="linear-gradient" x1="101.636" y1="175.803" x2="114.364" y2="153.757" gradientUnits="userSpaceOnUse"><stop offset="0" stop-color="#0043ce"/><stop offset="1" stop-color="#4589ff"/></linearGradient><linearGradient id="linear-gradient-2" x1="162.001" y1="172.575" x2="243.001" y2="172.575" gradientUnits="userSpaceOnUse"><stop offset="0" stop-color="#8a3ffc"/><stop offset="1" stop-color="#6929c4"/></linearGradient></defs><title>Artboard 2 copy 31_Export</title><g id="Layer_3" data-name="Layer 3"><rect class="cls-1" width="288" height="288"/><polygon class="cls-2" points="171.001 180.369 153 190.761 153 211.546 171.001 201.154 171.001 180.369"/><polygon class="cls-2" points="63 118.015 45 128.407 45 149.192 63 138.799 63 118.015"/><path class="cls-3" d="M168.364,184.935l-108-62.355c-1.628-.94-3.878-.8-6.363.631-4.971,2.87-9,9.849-9,15.588,0,2.87,1.007,4.887,2.636,5.827l108,62.354c1.629.941,3.879.805,6.365-.63,4.97-2.87,9-9.849,9-15.589C171,187.891,169.993,185.875,168.364,184.935Z"/><ellipse class="cls-4" cx="162" cy="195.957" rx="12.728" ry="7.348" transform="matrix(0.5, -0.866, 0.866, 0.5, -88.704, 238.275)"/><path class="cls-5" d="M162,204.35h0c-4.015,2.317-7.268.439-7.268-4.2A16.062,16.062,0,0,1,162,187.565l5.293-3.056A7.065,7.065,0,0,0,162,185.565h0c-4.971,2.87-9,9.849-9,15.588,0,4.29,2.251,6.671,5.463,6.4A8.581,8.581,0,0,0,162,206.35a17.359,17.359,0,0,0,5.292-5.055Z"/><path class="cls-5" d="M169.087,198.259a17.589,17.589,0,0,0,1.914-7.5c0-3.452-1.464-5.657-3.707-6.252L162,187.565a16.062,16.062,0,0,0-7.268,12.588,5.777,5.777,0,0,0,1.34,4.072,5.779,5.779,0,0,0,4.2-.875Z"/><path class="cls-5" d="M167.293,201.3a22.131,22.131,0,0,0,1.794-3.036l-8.818,5.091a5.779,5.779,0,0,1-4.2.875c1.316,1.383,3.478,1.539,5.928.125h0Z"/><line class="cls-5" x1="170.274" y1="195.475" x2="155.757" y2="203.856"/><line class="cls-5" x1="170.799" y1="193.074" x2="154.987" y2="202.203"/><line class="cls-5" x1="171" y1="190.859" x2="154.733" y2="200.251"/><line class="cls-5" x1="170.834" y1="188.857" x2="154.94" y2="198.033"/><line class="cls-5" x1="170.274" y1="187.083" x2="155.657" y2="195.522"/><line class="cls-5" x1="169.214" y1="185.597" x2="157.099" y2="192.591"/><path class="cls-6" d="M243,138.8l-81,46.765c4.97-2.869,9-.543,9,5.2s-4.03,12.719-9,15.589h0l81-46.765Z"/><path class="cls-7" d="M243,140.8l-5.913,3.414h0l1.843-1.065a44.777,44.777,0,0,0-.429,6.042,34.028,34.028,0,0,0,.529,6.1l3.97,2.292Z"/><line class="cls-8" x1="239.103" y1="155.737" x2="170.195" y2="195.521"/><line class="cls-8" x1="238.79" y1="153.82" x2="170.797" y2="193.075"/><line class="cls-8" x1="238.592" y1="151.836" x2="171" y2="190.859"/><line class="cls-8" x1="238.505" y1="149.788" x2="170.834" y2="188.857"/><line class="cls-8" x1="238.53" y1="147.676" x2="170.274" y2="187.083"/><line class="cls-8" x1="238.666" y1="145.499" x2="169.225" y2="185.59"/><path class="cls-8" d="M243,138.8l-81,46.765a7.065,7.065,0,0,1,5.292-1.056L243,140.8Z"/><path class="cls-8" d="M167.293,201.3A17.359,17.359,0,0,1,162,206.35a8.581,8.581,0,0,1-3.537,1.206A8.581,8.581,0,0,0,162,206.35h0l81-46.765v-2Z"/><path class="cls-8" d="M167.294,184.509c2.243.6,3.707,2.8,3.707,6.252a17.589,17.589,0,0,1-1.914,7.5l70.449-40.674a31.9,31.9,0,0,1-1.035-8.393,44.777,44.777,0,0,1,.429-6.042Z"/><path class="cls-8" d="M169.087,198.259a22.131,22.131,0,0,1-1.794,3.036L243,157.585l-3.971-2.292c.143.789.306,1.56.506,2.292Z"/><polygon class="cls-7" points="162.001 185.565 54.011 123.205 135.001 76.445 243 138.8 162.001 185.565"/><polygon class="cls-9" points="72 123.211 126 92.034 135.001 97.23 81.001 128.407 72 123.211"/><polygon class="cls-9" points="85.5 131.004 121.5 110.221 130.5 115.416 94.5 136.201 85.5 131.004"/></g></svg>