<svg version="1.1" id="Layer_1" xmlns="http://www.w3.org/2000/svg" x="0" y="0" viewBox="0 0 288 288" xml:space="preserve"><style>.st0{fill:none;stroke:#3d3d3d;stroke-miterlimit:10}</style><path d="M0 0h288v288H0z"/><path class="st0" d="M52 52h5.8v184H52zm5.8 0h5.8v184h-5.8z"/><path class="st0" d="M63.5 52h5.8v184h-5.8z"/><path class="st0" d="M69.2 52H75v184h-5.8zm5.8 0h5.8v184H75zm5.8 0h5.8v184h-5.8z"/><path class="st0" d="M86.5 52h5.8v184h-5.8z"/><path class="st0" d="M92.2 52H98v184h-5.8zm5.8 0h5.8v184H98zm5.8 0h5.8v184h-5.8z"/><path class="st0" d="M109.5 52h5.8v184h-5.8z"/><path class="st0" d="M115.2 52h5.8v184h-5.8zm5.8 0h5.8v184H121zm5.8 0h5.8v184h-5.8z"/><path class="st0" d="M132.5 52h5.8v184h-5.8z"/><path class="st0" d="M138.2 52h5.8v184h-5.8zm5.8 0h5.8v184H144zm5.8 0h5.8v184h-5.8z"/><path class="st0" d="M155.5 52h5.8v184h-5.8z"/><path class="st0" d="M161.2 52h5.8v184h-5.8zm5.8 0h5.8v184H167zm5.8 0h5.8v184h-5.8z"/><path class="st0" d="M178.5 52h5.8v184h-5.8z"/><path class="st0" d="M184.2 52h5.8v184h-5.8zm5.8 0h5.8v184H190zm5.8 0h5.8v184h-5.8z"/><path class="st0" d="M201.5 52h5.8v184h-5.8z"/><path class="st0" d="M207.2 52h5.8v184h-5.8zm5.8 0h5.8v184H213zm5.8 0h5.8v184h-5.8z"/><path class="st0" d="M224.5 52h5.8v184h-5.8z"/><path class="st0" d="M230.2 52h5.8v184h-5.8z"/><path class="st0" d="M52 52h184v5.8H52zm0 5.8h184v5.8H52z"/><path class="st0" d="M52 63.5h184v5.8H52zm0 5.8h184v5.8H52z"/><path class="st0" d="M52 75h184v5.8H52zm0 5.8h184v5.8H52z"/><path class="st0" d="M52 86.5h184v5.8H52zm0 5.8h184v5.8H52z"/><path class="st0" d="M52 98h184v5.8H52zm0 5.8h184v5.8H52z"/><path class="st0" d="M52 109.5h184v5.8H52zm0 5.8h184v5.8H52z"/><path class="st0" d="M52 121h184v5.8H52zm0 5.8h184v5.8H52z"/><path class="st0" d="M52 132.5h184v5.8H52zm0 5.8h184v5.8H52z"/><path class="st0" d="M52 144h184v5.8H52zm0 5.8h184v5.8H52z"/><path class="st0" d="M52 155.5h184v5.8H52z"/><path class="st0" d="M52 161.2h184v5.8H52zm0 5.8h184v5.8H52zm0 5.8h184v5.8H52z"/><path class="st0" d="M52 178.5h184v5.8H52z"/><path class="st0" d="M52 184.2h184v5.8H52zm0 5.8h184v5.8H52zm0 5.8h184v5.8H52z"/><path class="st0" d="M52 201.5h184v5.8H52z"/><path class="st0" d="M52 207.2h184v5.8H52zm0 5.8h184v5.8H52zm0 5.8h184v5.8H52z"/><path class="st0" d="M52 224.5h184v5.8H52z"/><path class="st0" d="M52 230.2h184v5.8H52z"/><path d="M196.3 213H91.7v-26.7l68.2-84.8H95.1V75h99.6v26.7l-68.4 84.8h70V213z" fill="#f3f3f3"/></svg>