<svg xmlns="http://www.w3.org/2000/svg" xmlns:xlink="http://www.w3.org/1999/xlink" viewBox="0 0 448 448"><defs><style>.cls-1{fill:#fff;}.cls-2{fill:#491d8b;}.cls-3{fill:#be95ff;}.cls-4{fill:url(#linear-gradient);}.cls-5{fill:url(#linear-gradient-2);}.cls-6{fill:url(#linear-gradient-3);}.cls-7{fill:url(#linear-gradient-4);}.cls-8{fill:url(#linear-gradient-5);}.cls-9{fill:#8a3ffc;}.cls-10{fill:url(#linear-gradient-6);}.cls-11{fill:url(#linear-gradient-7);}.cls-12{fill:url(#linear-gradient-8);}.cls-13{fill:url(#linear-gradient-9);}.cls-14{fill:url(#linear-gradient-10);}.cls-15{fill:url(#linear-gradient-11);}.cls-16{fill:url(#linear-gradient-12);}</style><linearGradient id="linear-gradient" x1="-6216.171" y1="-1103.498" x2="-6122.837" y2="-1103.498" gradientTransform="translate(-6010.837 -798.609) rotate(180)" gradientUnits="userSpaceOnUse"><stop offset="0" stop-color="#be95ff"/><stop offset="0.305" stop-color="#bb90ff"/><stop offset="0.676" stop-color="#b181ff"/><stop offset="1" stop-color="#a56eff"/></linearGradient><linearGradient id="linear-gradient-2" x1="-6228.615" y1="-1153.276" x2="-6135.282" y2="-1153.276" gradientTransform="translate(-6010.837 -798.609) rotate(180)" gradientUnits="userSpaceOnUse"><stop offset="0" stop-color="#be95ff"/><stop offset="0.398" stop-color="#bc92ff"/><stop offset="0.655" stop-color="#b78aff"/><stop offset="0.872" stop-color="#ad7bff"/><stop offset="1" stop-color="#a56eff"/></linearGradient><linearGradient id="linear-gradient-3" x1="-6209.949" y1="-1053.72" x2="-6116.615" y2="-1053.72" xlink:href="#linear-gradient"/><linearGradient id="linear-gradient-4" x1="398.222" y1="348.444" x2="398.222" y2="236.444" gradientUnits="userSpaceOnUse"><stop offset="0" stop-color="#e8daff"/><stop offset="1" stop-color="#fff"/></linearGradient><linearGradient id="linear-gradient-5" x1="148.999" y1="161.439" x2="273.85" y2="161.439" gradientUnits="userSpaceOnUse"><stop offset="0" stop-color="#a56eff"/><stop offset="0.007" stop-color="#a66fff"/><stop offset="0.124" stop-color="#b180ff"/><stop offset="0.269" stop-color="#b88cff"/><stop offset="0.469" stop-color="#bd93ff"/><stop offset="1" stop-color="#be95ff"/></linearGradient><linearGradient id="linear-gradient-6" x1="-6222.393" y1="-1003.942" x2="-6110.393" y2="-1003.942" xlink:href="#linear-gradient"/><linearGradient id="linear-gradient-7" x1="336" y1="236.444" x2="360.889" y2="236.444" xlink:href="#linear-gradient-4"/><linearGradient id="linear-gradient-8" x1="336" y1="336" x2="360.889" y2="336" xlink:href="#linear-gradient-4"/><linearGradient id="linear-gradient-9" x1="336" y1="311.111" x2="360.889" y2="311.111" xlink:href="#linear-gradient-4"/><linearGradient id="linear-gradient-10" x1="336" y1="286.222" x2="360.889" y2="286.222" xlink:href="#linear-gradient-4"/><linearGradient id="linear-gradient-11" x1="336" y1="261.333" x2="360.889" y2="261.333" xlink:href="#linear-gradient-4"/><linearGradient id="linear-gradient-12" x1="336" y1="360.889" x2="360.889" y2="360.889" xlink:href="#linear-gradient-4"/></defs><title>Artboard 24 copy 2</title><g id="Graphics"><rect class="cls-1" width="448" height="448"/><rect class="cls-2" width="448" height="448"/><path class="cls-3" d="M323.556,236.444c-13.689,0-32.809-7.919-42.488-17.6l-32.179-32.178V373.333l62.222-24.889h112v-112Z"/><path class="cls-3" d="M236.444,186.667s-22.83.093-24.888.229v-.229H124.444v49.777l6.223,49.778L143.111,336v37.333h74.667A93.332,93.332,0,0,0,311.111,280C261.333,224,236.444,186.667,236.444,186.667Z"/><path class="cls-2" d="M49.778,236.444h74.666a6.222,6.222,0,1,0,0-12.444H49.778a6.222,6.222,0,0,0,0,12.444Z"/><path class="cls-2" d="M56,286.222h74.667a6.222,6.222,0,1,0,0-12.444H56a6.222,6.222,0,0,0,0,12.444Z"/><path class="cls-4" d="M130.667,323.556h56a18.667,18.667,0,0,0,0-37.334h-56a18.667,18.667,0,1,0,0,37.334Z"/><path class="cls-2" d="M68.444,336h74.667a6.222,6.222,0,0,0,0-12.444H68.444a6.222,6.222,0,1,0,0,12.444Z"/><path class="cls-5" d="M143.111,373.333h56a18.667,18.667,0,1,0,0-37.333h-56a18.667,18.667,0,1,0,0,37.333Z"/><path class="cls-6" d="M124.444,273.778h56a18.667,18.667,0,0,0,0-37.334h-56a18.667,18.667,0,0,0,0,37.334Z"/><rect class="cls-7" x="373.333" y="236.444" width="49.778" height="112"/><path class="cls-8" d="M192.946,128.512a105.17,105.17,0,0,1-17.154-41.993A18.634,18.634,0,0,0,149,103.305c0,.135.018.265.021.4H149a86.541,86.541,0,0,0,25.515,61.6l72.937,72.938,26.4-26.4L206.209,144.2C205.546,143.553,195.11,132.263,192.946,128.512Z"/><rect class="cls-9" x="423.111" y="236.444" width="24.889" height="124.444"/><rect class="cls-1" x="373.333" y="311.111" width="49.778" height="49.778"/><path class="cls-10" d="M118.222,224h74.667a18.667,18.667,0,1,0,0-37.333H118.222a18.667,18.667,0,0,0,0,37.333Z"/><circle class="cls-11" cx="348.444" cy="236.444" r="12.444"/><circle class="cls-2" cx="392" cy="329.778" r="6.222"/><circle class="cls-12" cx="348.444" cy="336" r="12.444"/><circle class="cls-13" cx="348.444" cy="311.111" r="12.444"/><circle class="cls-14" cx="348.444" cy="286.222" r="12.444"/><circle class="cls-15" cx="348.444" cy="261.333" r="12.444"/><path class="cls-2" d="M348.444,364.444a16.047,16.047,0,0,0-16-16H283.959c-8.8,0-22.266,3.548-29.924,7.884l-16.112,9.122c-7.658,4.336-21.123,7.883-29.923,7.883H190.222a16.047,16.047,0,0,0-16,16v5.334a16.047,16.047,0,0,0,16,16H332.444a16.047,16.047,0,0,0,16-16Z"/><circle class="cls-16" cx="348.444" cy="360.889" r="12.444"/><path class="cls-9" d="M186.667,118.181a105.122,105.122,0,0,1-10.875-31.662c-.233-.113-.481-.2-.72-.3a30.873,30.873,0,0,0,11.6,31.965Z"/></g></svg>