<svg xmlns="http://www.w3.org/2000/svg" xmlns:xlink="http://www.w3.org/1999/xlink" viewBox="0 0 288 288"><defs><style>.cls-1,.cls-3,.cls-6,.cls-7{fill:none}.cls-2{fill:#fff}.cls-3{stroke:#e0e0e0}.cls-3,.cls-6,.cls-7{stroke-miterlimit:10}.cls-4{fill:#a6c8ff}.cls-5{clip-path:url(#clip-path)}.cls-6{stroke:#78a9ff}.cls-7{stroke:#d12771;stroke-linecap:round}</style><clipPath id="clip-path"><path d="M248,80H232c-24,0-56,16.536-56,32,0,24-36.954,24-48,24H96c-17.673,0-32,6.327-32,24,0,8.837-7.163,24-16,24H40v64H248V80" class="cls-1"/></clipPath></defs><title>Artboard 33</title><g id="Graphics"><rect width="288" height="288" y=".136" class="cls-2"/><rect width="208" height="208" x="40" y="39.864" class="cls-3"/><line x1="48" x2="48" y1="39.864" y2="247.864" class="cls-3"/><line x1="56" x2="56" y1="39.864" y2="247.864" class="cls-3"/><line x1="64" x2="64" y1="39.864" y2="247.864" class="cls-3"/><line x1="72" x2="72" y1="39.864" y2="247.864" class="cls-3"/><line x1="80" x2="80" y1="39.864" y2="247.864" class="cls-3"/><line x1="88" x2="88" y1="39.864" y2="247.864" class="cls-3"/><line x1="96" x2="96" y1="39.864" y2="247.864" class="cls-3"/><line x1="104" x2="104" y1="39.864" y2="247.864" class="cls-3"/><line x1="112" x2="112" y1="39.864" y2="247.864" class="cls-3"/><line x1="120" x2="120" y1="39.864" y2="247.864" class="cls-3"/><line x1="128" x2="128" y1="39.864" y2="247.864" class="cls-3"/><line x1="136" x2="136" y1="39.864" y2="247.864" class="cls-3"/><line x1="144" x2="144" y1="39.864" y2="247.864" class="cls-3"/><line x1="152" x2="152" y1="39.864" y2="247.864" class="cls-3"/><line x1="160" x2="160" y1="39.864" y2="247.864" class="cls-3"/><line x1="168" x2="168" y1="39.864" y2="247.864" class="cls-3"/><line x1="176" x2="176" y1="39.864" y2="247.864" class="cls-3"/><line x1="184" x2="184" y1="39.864" y2="247.864" class="cls-3"/><line x1="192" x2="192" y1="39.864" y2="247.864" class="cls-3"/><line x1="200" x2="200" y1="39.864" y2="247.864" class="cls-3"/><line x1="208" x2="208" y1="39.864" y2="247.864" class="cls-3"/><line x1="216" x2="216" y1="39.864" y2="247.864" class="cls-3"/><line x1="224" x2="224" y1="39.864" y2="247.864" class="cls-3"/><line x1="232" x2="232" y1="39.864" y2="247.864" class="cls-3"/><line x1="240" x2="240" y1="39.864" y2="247.864" class="cls-3"/><line x1="248" x2="40" y1="47.864" y2="47.864" class="cls-3"/><line x1="248" x2="40" y1="55.864" y2="55.864" class="cls-3"/><line x1="248" x2="40" y1="63.864" y2="63.864" class="cls-3"/><line x1="248" x2="40" y1="71.864" y2="71.864" class="cls-3"/><line x1="248" x2="40" y1="79.864" y2="79.864" class="cls-3"/><line x1="248" x2="40" y1="87.864" y2="87.864" class="cls-3"/><line x1="248" x2="40" y1="95.864" y2="95.864" class="cls-3"/><line x1="248" x2="40" y1="103.864" y2="103.864" class="cls-3"/><line x1="248" x2="40" y1="111.864" y2="111.864" class="cls-3"/><line x1="248" x2="40" y1="119.864" y2="119.864" class="cls-3"/><line x1="248" x2="40" y1="127.864" y2="127.864" class="cls-3"/><line x1="248" x2="40" y1="135.864" y2="135.864" class="cls-3"/><line x1="248" x2="40" y1="143.864" y2="143.864" class="cls-3"/><line x1="248" x2="40" y1="151.864" y2="151.864" class="cls-3"/><line x1="248" x2="40" y1="159.864" y2="159.864" class="cls-3"/><line x1="248" x2="40" y1="167.864" y2="167.864" class="cls-3"/><line x1="40" x2="248" y1="175.864" y2="175.864" class="cls-3"/><line x1="40" x2="248" y1="183.864" y2="183.864" class="cls-3"/><line x1="248" x2="40" y1="191.864" y2="191.864" class="cls-3"/><line x1="248" x2="40" y1="199.864" y2="199.864" class="cls-3"/><line x1="248" x2="40" y1="207.864" y2="207.864" class="cls-3"/><line x1="248" x2="40" y1="215.864" y2="215.864" class="cls-3"/><line x1="248" x2="40" y1="223.864" y2="223.864" class="cls-3"/><line x1="248" x2="40" y1="231.864" y2="231.864" class="cls-3"/><line x1="248" x2="40" y1="239.864" y2="239.864" class="cls-3"/><path d="M248,80H232c-24,0-56,16.536-56,32,0,24-36.954,24-48,24H96c-17.673,0-32,6.327-32,24,0,8.837-7.163,24-16,24H40v64H248V80" class="cls-4"/><g class="cls-5"><line x1="48" x2="48" y1="39.864" y2="247.864" class="cls-6"/><line x1="56" x2="56" y1="39.864" y2="247.864" class="cls-6"/><line x1="64" x2="64" y1="39.864" y2="247.864" class="cls-6"/><line x1="72" x2="72" y1="39.864" y2="247.864" class="cls-6"/><line x1="80" x2="80" y1="39.864" y2="247.864" class="cls-6"/><line x1="88" x2="88" y1="39.864" y2="247.864" class="cls-6"/><line x1="96" x2="96" y1="39.864" y2="247.864" class="cls-6"/><line x1="104" x2="104" y1="39.864" y2="247.864" class="cls-6"/><line x1="112" x2="112" y1="39.864" y2="247.864" class="cls-6"/><line x1="120" x2="120" y1="39.864" y2="247.864" class="cls-6"/><line x1="128" x2="128" y1="39.864" y2="247.864" class="cls-6"/><line x1="136" x2="136" y1="39.864" y2="247.864" class="cls-6"/><line x1="144" x2="144" y1="39.864" y2="247.864" class="cls-6"/><line x1="152" x2="152" y1="39.864" y2="247.864" class="cls-6"/><line x1="160" x2="160" y1="39.864" y2="247.864" class="cls-6"/><line x1="168" x2="168" y1="39.864" y2="247.864" class="cls-6"/><line x1="176" x2="176" y1="39.864" y2="247.864" class="cls-6"/><line x1="184" x2="184" y1="39.864" y2="247.864" class="cls-6"/><line x1="192" x2="192" y1="39.864" y2="247.864" class="cls-6"/><line x1="200" x2="200" y1="39.864" y2="247.864" class="cls-6"/><line x1="208" x2="208" y1="39.864" y2="247.864" class="cls-6"/><line x1="216" x2="216" y1="39.864" y2="247.864" class="cls-6"/><line x1="224" x2="224" y1="39.864" y2="247.864" class="cls-6"/><line x1="232" x2="232" y1="39.864" y2="247.864" class="cls-6"/><line x1="240" x2="240" y1="39.864" y2="247.864" class="cls-6"/><line x1="248" x2="40" y1="79.864" y2="79.864" class="cls-6"/><line x1="248" x2="40" y1="87.864" y2="87.864" class="cls-6"/><line x1="248" x2="40" y1="95.864" y2="95.864" class="cls-6"/><line x1="248" x2="40" y1="103.864" y2="103.864" class="cls-6"/><line x1="248" x2="40" y1="111.864" y2="111.864" class="cls-6"/><line x1="248" x2="40" y1="119.864" y2="119.864" class="cls-6"/><line x1="248" x2="40" y1="127.864" y2="127.864" class="cls-6"/><line x1="248" x2="40" y1="135.864" y2="135.864" class="cls-6"/><line x1="248" x2="40" y1="143.864" y2="143.864" class="cls-6"/><line x1="248" x2="40" y1="151.864" y2="151.864" class="cls-6"/><line x1="248" x2="40" y1="159.864" y2="159.864" class="cls-6"/><line x1="248" x2="40" y1="167.864" y2="167.864" class="cls-6"/><line x1="40" x2="248" y1="175.864" y2="175.864" class="cls-6"/><line x1="40" x2="248" y1="183.864" y2="183.864" class="cls-6"/><line x1="248" x2="40" y1="191.864" y2="191.864" class="cls-6"/><line x1="248" x2="40" y1="199.864" y2="199.864" class="cls-6"/><line x1="248" x2="40" y1="207.864" y2="207.864" class="cls-6"/><line x1="248" x2="40" y1="215.864" y2="215.864" class="cls-6"/><line x1="248" x2="40" y1="223.864" y2="223.864" class="cls-6"/><line x1="248" x2="40" y1="231.864" y2="231.864" class="cls-6"/><line x1="248" x2="40" y1="239.864" y2="239.864" class="cls-6"/><polyline points="248 39.864 248 248 40 248 40 39.864" class="cls-6"/></g><path d="M128,160a32,32,0,0,1-32,32" class="cls-7"/><path d="M96,192a32,32,0,0,1-32-32" class="cls-7"/><path d="M64,160a32,32,0,0,1,32-32" class="cls-7"/><path d="M96,128a32,32,0,0,1,32,32" class="cls-7"/><path d="M64,160a16,16,0,0,1-16,16" class="cls-7"/><path d="M48,176a16,16,0,0,1-16-16" class="cls-7"/><path d="M32,160a16,16,0,0,1,16-16" class="cls-7"/><path d="M48,144a16,16,0,0,1,16,16" class="cls-7"/><path d="M240,104a32,32,0,0,1-32,32" class="cls-7"/><path d="M208,136a32,32,0,0,1-32-32" class="cls-7"/><path d="M176,104a32,32,0,0,1,32-32" class="cls-7"/><path d="M240,104a32,32,0,0,0-32-32" class="cls-7"/><circle cx="160" cy="112" r="16" class="cls-7"/></g></svg>