<svg xmlns="http://www.w3.org/2000/svg" viewBox="0 0 256 256.01"><defs><style>.cls-1{fill:#42be65}.cls-2,.cls-3{fill:none;stroke-miterlimit:10;stroke-width:16px}.cls-2{stroke:#0f62fe}.cls-3{stroke:#d0e2ff}</style></defs><title>flat-6</title><g id="Layer_2" data-name="Layer 2"><g id="Layer_1-2" data-name="Layer 1"><rect width="256" height="256"/><rect width="128" height="104" x="64" y="96" class="cls-1" rx="8"/><path d="M136,144a8,8,0,1,0-12.8,6.39L120,176h16l-3.2-25.61A8,8,0,0,0,136,144Z"/><path d="M32,0V136a8,8,0,0,0,8,8H64" class="cls-2"/><path d="M216,0V80a8,8,0,0,0,8,8h32" class="cls-2"/><path d="M232.09,256,232,152a8,8,0,0,0-8-8H192" class="cls-2"/><line x2="32" y1="55.62" y2="55.62" class="cls-2"/><path d="M96,96V64a32,32,0,0,1,64,0V96" class="cls-2"/><path d="M96,96v40a8,8,0,0,1-8,8H64" class="cls-3"/><path d="M160,96v40a8,8,0,0,0,8,8h24" class="cls-3"/><line x2="232" y1="224" y2="224" class="cls-2"/><line x1="232" x2="256" y1="192" y2="192" class="cls-2"/></g></g></svg>