<svg xmlns="http://www.w3.org/2000/svg" xmlns:xlink="http://www.w3.org/1999/xlink" viewBox="0 0 448 448"><defs><style>.cls-1,.cls-3,.cls-6,.cls-7{fill:none}.cls-2,.cls-8{fill:#fff}.cls-3{stroke:#e0e0e0}.cls-3,.cls-6,.cls-7,.cls-8{stroke-miterlimit:10}.cls-4{fill:#a6c8ff}.cls-5{clip-path:url(#clip-path)}.cls-6{stroke:#78a9ff}.cls-7,.cls-8{stroke:#d12771}</style><clipPath id="clip-path"><path d="M286.222,211.556c0,49.777-37.333,87.111-99.555,99.555C113.336,325.777,49.778,336,49.778,373.333v37.334H0V448H448V410.667H398.222V136.889C398.222,49.778,435.556,0,435.556,0H286.222Z" class="cls-1"/></clipPath></defs><title>Artboard 51 copy</title><g id="Graphics"><rect width="448" height="448" class="cls-2"/><line x1="12.444" x2="12.444" y1="12.444" y2="435.556" class="cls-3"/><line x1="24.889" x2="24.889" y1="12.444" y2="435.556" class="cls-3"/><line x1="37.333" x2="37.333" y1="12.444" y2="435.556" class="cls-3"/><line x1="49.778" x2="49.778" y1="12.444" y2="435.556" class="cls-3"/><line x1="62.222" x2="62.222" y1="12.444" y2="435.556" class="cls-3"/><line x1="74.667" x2="74.667" y1="12.444" y2="435.556" class="cls-3"/><line x1="87.111" x2="87.111" y1="12.444" y2="435.556" class="cls-3"/><line x1="99.556" x2="99.556" y1="12.444" y2="435.556" class="cls-3"/><line x1="112" x2="112" y1="12.444" y2="435.556" class="cls-3"/><line x1="124.444" x2="124.444" y1="12.444" y2="435.556" class="cls-3"/><line x1="136.889" x2="136.889" y1="12.444" y2="435.556" class="cls-3"/><line x1="149.333" x2="149.333" y1="12.444" y2="435.556" class="cls-3"/><line x1="161.778" x2="161.778" y1="12.444" y2="435.556" class="cls-3"/><line x1="174.222" x2="174.222" y1="12.444" y2="435.556" class="cls-3"/><line x1="186.667" x2="186.667" y1="12.444" y2="435.556" class="cls-3"/><line x1="199.111" x2="199.111" y1="12.444" y2="435.556" class="cls-3"/><line x1="211.556" x2="211.556" y1="12.444" y2="435.556" class="cls-3"/><line x1="224" x2="224" y1="12.444" y2="435.556" class="cls-3"/><line x1="236.444" x2="236.444" y1="12.444" y2="435.556" class="cls-3"/><line x1="248.889" x2="248.889" y1="12.444" y2="435.556" class="cls-3"/><line x1="261.333" x2="261.333" y1="12.444" y2="435.556" class="cls-3"/><line x1="273.778" x2="273.778" y1="12.444" y2="435.556" class="cls-3"/><line x1="286.222" x2="286.222" y1="12.444" y2="435.556" class="cls-3"/><line x1="298.667" x2="298.667" y1="12.444" y2="435.556" class="cls-3"/><line x1="311.111" x2="311.111" y1="12.444" y2="435.556" class="cls-3"/><line x1="323.556" x2="323.556" y1="12.444" y2="435.556" class="cls-3"/><line x1="336" x2="336" y1="12.444" y2="435.556" class="cls-3"/><line x1="348.444" x2="348.444" y1="12.444" y2="435.556" class="cls-3"/><line x1="360.889" x2="360.889" y1="12.444" y2="435.556" class="cls-3"/><line x1="373.333" x2="373.333" y1="12.444" y2="435.556" class="cls-3"/><line x1="385.778" x2="385.778" y1="12.444" y2="435.556" class="cls-3"/><line x1="398.222" x2="398.222" y1="12.444" y2="435.556" class="cls-3"/><line x1="410.667" x2="410.667" y1="12.444" y2="435.556" class="cls-3"/><line x1="423.111" x2="423.111" y1="12.444" y2="435.556" class="cls-3"/><line x1="435.556" x2="435.556" y1="12.444" y2="435.556" class="cls-3"/><line x1="435.556" x2="12.444" y1="12.445" y2="12.445" class="cls-3"/><line x1="435.556" x2="12.444" y1="24.889" y2="24.889" class="cls-3"/><line x1="435.556" x2="12.444" y1="37.333" y2="37.333" class="cls-3"/><line x1="435.556" x2="12.444" y1="49.778" y2="49.778" class="cls-3"/><line x1="435.556" x2="12.444" y1="62.222" y2="62.222" class="cls-3"/><line x1="435.556" x2="12.444" y1="74.667" y2="74.667" class="cls-3"/><line x1="435.556" x2="12.444" y1="87.111" y2="87.111" class="cls-3"/><line x1="435.556" x2="12.444" y1="99.556" y2="99.556" class="cls-3"/><line x1="435.556" x2="12.444" y1="112" y2="112" class="cls-3"/><line x1="435.556" x2="12.444" y1="124.445" y2="124.445" class="cls-3"/><line x1="435.556" x2="12.444" y1="136.889" y2="136.889" class="cls-3"/><line x1="435.556" x2="12.444" y1="149.333" y2="149.333" class="cls-3"/><line x1="435.556" x2="12.444" y1="161.778" y2="161.778" class="cls-3"/><line x1="435.556" x2="12.444" y1="174.222" y2="174.222" class="cls-3"/><line x1="435.556" x2="12.444" y1="186.667" y2="186.667" class="cls-3"/><line x1="435.556" x2="12.444" y1="199.111" y2="199.111" class="cls-3"/><line x1="12.444" x2="435.556" y1="211.556" y2="211.556" class="cls-3"/><line x1="12.444" x2="435.556" y1="224" y2="224" class="cls-3"/><line x1="435.556" x2="12.444" y1="236.445" y2="236.445" class="cls-3"/><line x1="435.556" x2="12.444" y1="248.889" y2="248.889" class="cls-3"/><line x1="435.556" x2="12.444" y1="261.333" y2="261.333" class="cls-3"/><line x1="435.556" x2="12.444" y1="273.778" y2="273.778" class="cls-3"/><line x1="435.556" x2="12.444" y1="286.222" y2="286.222" class="cls-3"/><line x1="435.556" x2="12.444" y1="298.667" y2="298.667" class="cls-3"/><line x1="435.556" x2="12.444" y1="311.111" y2="311.111" class="cls-3"/><line x1="435.556" x2="12.444" y1="323.556" y2="323.556" class="cls-3"/><line x1="435.556" x2="12.444" y1="336" y2="336" class="cls-3"/><line x1="435.556" x2="12.444" y1="348.444" y2="348.444" class="cls-3"/><line x1="435.556" x2="12.444" y1="360.889" y2="360.889" class="cls-3"/><line x1="435.556" x2="12.444" y1="373.333" y2="373.333" class="cls-3"/><line x1="435.556" x2="12.444" y1="385.778" y2="385.778" class="cls-3"/><line x1="435.556" x2="12.444" y1="398.222" y2="398.222" class="cls-3"/><line x1="435.556" x2="12.444" y1="410.667" y2="410.667" class="cls-3"/><path d="M286.222,211.556c0,49.777-37.333,87.111-99.555,99.555C113.336,325.777,49.778,336,49.778,373.333v37.334H0V448H448V410.667H398.222V136.889C398.222,49.778,435.556,0,435.556,0H286.222Z" class="cls-4"/><g class="cls-5"><line x1="12.444" x2="12.444" y1="12.444" y2="435.556" class="cls-6"/><line x1="24.889" x2="24.889" y1="12.444" y2="435.556" class="cls-6"/><line x1="37.333" x2="37.333" y1="12.444" y2="435.556" class="cls-6"/><line x1="49.778" x2="49.778" y1="12.444" y2="435.556" class="cls-6"/><line x1="62.222" x2="62.222" y1="12.444" y2="435.556" class="cls-6"/><line x1="74.667" x2="74.667" y1="12.444" y2="435.556" class="cls-6"/><line x1="87.111" x2="87.111" y1="12.444" y2="435.556" class="cls-6"/><line x1="99.556" x2="99.556" y1="12.444" y2="435.556" class="cls-6"/><line x1="112" x2="112" y1="12.444" y2="435.556" class="cls-6"/><line x1="124.444" x2="124.444" y1="12.444" y2="435.556" class="cls-6"/><line x1="136.889" x2="136.889" y1="12.444" y2="435.556" class="cls-6"/><line x1="149.333" x2="149.333" y1="12.444" y2="435.556" class="cls-6"/><line x1="161.778" x2="161.778" y1="12.444" y2="435.556" class="cls-6"/><line x1="174.222" x2="174.222" y1="12.444" y2="435.556" class="cls-6"/><line x1="186.667" x2="186.667" y1="12.444" y2="435.556" class="cls-6"/><line x1="199.111" x2="199.111" y1="12.444" y2="435.556" class="cls-6"/><line x1="211.556" x2="211.556" y1="12.444" y2="435.556" class="cls-6"/><line x1="224" x2="224" y1="12.444" y2="435.556" class="cls-6"/><line x1="236.444" x2="236.444" y1="12.444" y2="435.556" class="cls-6"/><line x1="248.889" x2="248.889" y1="12.444" y2="435.556" class="cls-6"/><line x1="261.333" x2="261.333" y1="12.444" y2="435.556" class="cls-6"/><line x1="273.778" x2="273.778" y1="12.444" y2="435.556" class="cls-6"/><line x1="286.222" x2="286.222" y1="12.444" y2="435.556" class="cls-6"/><line x1="298.667" x2="298.667" y1="12.444" y2="435.556" class="cls-6"/><line x1="311.111" x2="311.111" y1="12.444" y2="435.556" class="cls-6"/><line x1="323.556" x2="323.556" y1="12.444" y2="435.556" class="cls-6"/><line x1="336" x2="336" y1="12.444" y2="435.556" class="cls-6"/><line x1="348.444" x2="348.444" y1="12.444" y2="435.556" class="cls-6"/><line x1="360.889" x2="360.889" y1="12.444" y2="435.556" class="cls-6"/><line x1="373.333" x2="373.333" y1="12.444" y2="435.556" class="cls-6"/><line x1="385.778" x2="385.778" y1="12.444" y2="435.556" class="cls-6"/><line x1="398.222" x2="398.222" y1="12.444" y2="435.556" class="cls-6"/><line x1="410.667" x2="410.667" y1="12.444" y2="435.556" class="cls-6"/><line x1="423.111" x2="423.111" y1="12.444" y2="435.556" class="cls-6"/><line x1="435.556" x2="435.556" y1="12.444" y2="435.556" class="cls-6"/><line x1="435.556" x2="12.444" y1="12.445" y2="12.445" class="cls-6"/><line x1="435.556" x2="12.444" y1="24.889" y2="24.889" class="cls-6"/><line x1="435.556" x2="12.444" y1="37.333" y2="37.333" class="cls-6"/><line x1="435.556" x2="12.444" y1="49.778" y2="49.778" class="cls-6"/><line x1="435.556" x2="12.444" y1="62.222" y2="62.222" class="cls-6"/><line x1="435.556" x2="12.444" y1="74.667" y2="74.667" class="cls-6"/><line x1="435.556" x2="12.444" y1="87.111" y2="87.111" class="cls-6"/><line x1="435.556" x2="12.444" y1="99.556" y2="99.556" class="cls-6"/><line x1="435.556" x2="12.444" y1="112" y2="112" class="cls-6"/><line x1="435.556" x2="12.444" y1="124.445" y2="124.445" class="cls-6"/><line x1="435.556" x2="12.444" y1="136.889" y2="136.889" class="cls-6"/><line x1="435.556" x2="12.444" y1="149.333" y2="149.333" class="cls-6"/><line x1="435.556" x2="12.444" y1="161.778" y2="161.778" class="cls-6"/><line x1="435.556" x2="12.444" y1="174.222" y2="174.222" class="cls-6"/><line x1="435.556" x2="12.444" y1="186.667" y2="186.667" class="cls-6"/><line x1="435.556" x2="12.444" y1="199.111" y2="199.111" class="cls-6"/><line x1="12.444" x2="435.556" y1="211.556" y2="211.556" class="cls-6"/><line x1="12.444" x2="435.556" y1="224" y2="224" class="cls-6"/><line x1="435.556" x2="12.444" y1="236.445" y2="236.445" class="cls-6"/><line x1="435.556" x2="12.444" y1="248.889" y2="248.889" class="cls-6"/><line x1="435.556" x2="12.444" y1="261.333" y2="261.333" class="cls-6"/><line x1="435.556" x2="12.444" y1="273.778" y2="273.778" class="cls-6"/><line x1="435.556" x2="12.444" y1="286.222" y2="286.222" class="cls-6"/><line x1="435.556" x2="12.444" y1="298.667" y2="298.667" class="cls-6"/><line x1="435.556" x2="12.444" y1="311.111" y2="311.111" class="cls-6"/><line x1="435.556" x2="12.444" y1="323.556" y2="323.556" class="cls-6"/><line x1="435.556" x2="12.444" y1="336" y2="336" class="cls-6"/><line x1="435.556" x2="12.444" y1="348.444" y2="348.444" class="cls-6"/><line x1="435.556" x2="12.444" y1="360.889" y2="360.889" class="cls-6"/><line x1="435.556" x2="12.444" y1="373.333" y2="373.333" class="cls-6"/><line x1="435.556" x2="12.444" y1="385.778" y2="385.778" class="cls-6"/><line x1="435.556" x2="12.444" y1="398.222" y2="398.222" class="cls-6"/><line x1="435.556" x2="12.444" y1="410.667" y2="410.667" class="cls-6"/><line x1="435.556" x2="12.444" y1="423.111" y2="423.111" class="cls-6"/><line x1="435.556" x2="12.444" y1="435.556" y2="435.556" class="cls-6"/></g><line x1="286.222" x2="286.226" y1="211.556" y2="261.295" class="cls-7"/><path d="M286.222,211.556c0,49.777-37.333,87.111-99.555,99.555C113.336,325.777,49.778,336,49.778,373.333" class="cls-7"/><line x1="49.886" x2="49.886" y1="373.327" y2="322.819" class="cls-7"/><line x1="98.991" x2="273.552" y1="323.795" y2="299.137" class="cls-7"/><rect width="6.222" height="6.222" x="46.667" y="370.222" class="cls-8"/><rect width="6.222" height="6.222" x="46.667" y="320.499" class="cls-8"/><rect width="6.222" height="6.222" x="96.124" y="320.44" class="cls-8"/><rect width="6.222" height="6.222" x="183.771" y="308.233" class="cls-8"/><rect width="6.222" height="6.222" x="270.354" y="295.804" class="cls-8"/><rect width="6.222" height="6.222" x="283.239" y="208.7" class="cls-8"/><rect width="6.222" height="6.222" x="283.115" y="258.184" class="cls-8" transform="translate(572.453 522.59) rotate(180)"/></g></svg>