<svg xmlns="http://www.w3.org/2000/svg" xmlns:xlink="http://www.w3.org/1999/xlink" style="enable-background:new 0 0 928 522" id="Layer_1" x="0" y="0" version="1.1" viewBox="0 0 928 522" xml:space="preserve"><style type="text/css">.st0{fill:#fff}.st1{fill:none;stroke:#e0e0e0;stroke-miterlimit:10}.st2{enable-background:new}.st3{fill:#d0e2ff}.st4{clip-path:url(#SVGID_2_)}.st5{fill:none;stroke:#a6c8ff;stroke-miterlimit:10}.st6{fill:#a6c8ff}.st7{clip-path:url(#SVGID_4_)}.st8{fill:none;stroke:#78a9ff;stroke-miterlimit:10}.st9{fill:#78a9ff}.st10{clip-path:url(#SVGID_6_)}.st11{fill:none;stroke:#4589ff;stroke-miterlimit:10}.st12{fill:#4589ff}.st13{clip-path:url(#SVGID_8_)}.st14{stroke:#0f62fe}.st14,.st15,.st16,.st17{fill:none;stroke-miterlimit:10}.st15{stroke:#d12771}.st16{stroke:url(#SVGID_9_)}.st17{stroke:#9f1853}</style><title>Artboard 11</title><g id="Base"><rect width="928" height="519.7" y="1.1" class="st0"/><rect width="400" height="400" x="264" y="57" class="st1"/><line x1="272" x2="272" y1="57" y2="457" class="st1"/><line x1="280" x2="280" y1="57" y2="457" class="st1"/><line x1="288" x2="288" y1="57" y2="457" class="st1"/><line x1="296" x2="296" y1="57" y2="457" class="st1"/><line x1="304" x2="304" y1="57" y2="457" class="st1"/><line x1="312" x2="312" y1="57" y2="457" class="st1"/><line x1="320" x2="320" y1="57" y2="457" class="st1"/><line x1="328" x2="328" y1="57" y2="457" class="st1"/><line x1="336" x2="336" y1="57" y2="457" class="st1"/><line x1="344" x2="344" y1="57" y2="457" class="st1"/><line x1="352" x2="352" y1="57" y2="457" class="st1"/><line x1="360" x2="360" y1="57" y2="457" class="st1"/><line x1="368" x2="368" y1="57" y2="457" class="st1"/><line x1="376" x2="376" y1="57" y2="457" class="st1"/><line x1="384" x2="384" y1="57" y2="457" class="st1"/><line x1="392" x2="392" y1="57" y2="457" class="st1"/><line x1="400" x2="400" y1="57" y2="457" class="st1"/><line x1="408" x2="408" y1="57" y2="457" class="st1"/><line x1="416" x2="416" y1="57" y2="457" class="st1"/><line x1="424" x2="424" y1="57" y2="457" class="st1"/><line x1="432" x2="432" y1="57" y2="457" class="st1"/><line x1="440" x2="440" y1="57" y2="457" class="st1"/><line x1="448" x2="448" y1="57" y2="457" class="st1"/><line x1="456" x2="456" y1="57" y2="457" class="st1"/><line x1="464" x2="464" y1="57" y2="457" class="st1"/><line x1="472" x2="472" y1="57" y2="457" class="st1"/><line x1="480" x2="480" y1="57" y2="457" class="st1"/><line x1="488" x2="488" y1="57" y2="457" class="st1"/><line x1="496" x2="496" y1="57" y2="457" class="st1"/><line x1="504" x2="504" y1="57" y2="457" class="st1"/><line x1="512" x2="512" y1="57" y2="457" class="st1"/><line x1="520" x2="520" y1="57" y2="457" class="st1"/><line x1="528" x2="528" y1="57" y2="457" class="st1"/><line x1="536" x2="536" y1="57" y2="457" class="st1"/><line x1="544" x2="544" y1="57" y2="457" class="st1"/><line x1="552" x2="552" y1="57" y2="457" class="st1"/><line x1="560" x2="560" y1="57" y2="457" class="st1"/><line x1="568" x2="568" y1="57" y2="457" class="st1"/><line x1="576" x2="576" y1="57" y2="457" class="st1"/><line x1="584" x2="584" y1="57" y2="457" class="st1"/><line x1="592" x2="592" y1="57" y2="457" class="st1"/><line x1="600" x2="600" y1="57" y2="457" class="st1"/><line x1="608" x2="608" y1="57" y2="457" class="st1"/><line x1="616" x2="616" y1="57" y2="457" class="st1"/><line x1="624" x2="624" y1="57" y2="457" class="st1"/><line x1="632" x2="632" y1="57" y2="457" class="st1"/><line x1="640" x2="640" y1="57" y2="457" class="st1"/><line x1="648" x2="648" y1="57" y2="457" class="st1"/><line x1="656" x2="656" y1="57" y2="457" class="st1"/><line x1="664" x2="264" y1="65" y2="65" class="st1"/><line x1="664" x2="264" y1="73" y2="73" class="st1"/><line x1="664" x2="264" y1="81" y2="81" class="st1"/><line x1="664" x2="264" y1="89" y2="89" class="st1"/><line x1="664" x2="264" y1="97" y2="97" class="st1"/><line x1="664" x2="264" y1="105" y2="105" class="st1"/><line x1="664" x2="264" y1="113" y2="113" class="st1"/><line x1="664" x2="264" y1="121" y2="121" class="st1"/><line x1="664" x2="264" y1="129" y2="129" class="st1"/><line x1="664" x2="264" y1="137" y2="137" class="st1"/><line x1="664" x2="264" y1="145" y2="145" class="st1"/><line x1="664" x2="264" y1="153" y2="153" class="st1"/><line x1="664" x2="264" y1="161" y2="161" class="st1"/><line x1="664" x2="264" y1="169" y2="169" class="st1"/><line x1="664" x2="264" y1="177" y2="177" class="st1"/><line x1="664" x2="264" y1="185" y2="185" class="st1"/><line x1="664" x2="264" y1="193" y2="193" class="st1"/><line x1="664" x2="264" y1="201" y2="201" class="st1"/><line x1="664" x2="264" y1="209" y2="209" class="st1"/><line x1="664" x2="264" y1="217" y2="217" class="st1"/><line x1="664" x2="264" y1="225" y2="225" class="st1"/><line x1="664" x2="264" y1="233" y2="233" class="st1"/><line x1="664" x2="264" y1="241" y2="241" class="st1"/><line x1="664" x2="264" y1="249" y2="249" class="st1"/><line x1="664" x2="264" y1="257" y2="257" class="st1"/><line x1="664" x2="264" y1="265" y2="265" class="st1"/><line x1="664" x2="264" y1="273" y2="273" class="st1"/><line x1="664" x2="264" y1="281" y2="281" class="st1"/><line x1="664" x2="264" y1="289" y2="289" class="st1"/><line x1="664" x2="264" y1="297" y2="297" class="st1"/><line x1="664" x2="264" y1="305" y2="305" class="st1"/><line x1="664" x2="264" y1="313" y2="313" class="st1"/><line x1="664" x2="264" y1="321" y2="321" class="st1"/><line x1="664" x2="264" y1="329" y2="329" class="st1"/><line x1="664" x2="264" y1="337" y2="337" class="st1"/><line x1="664" x2="264" y1="345" y2="345" class="st1"/><line x1="664" x2="264" y1="353" y2="353" class="st1"/><line x1="664" x2="264" y1="361" y2="361" class="st1"/><line x1="664" x2="264" y1="369" y2="369" class="st1"/><line x1="664" x2="264" y1="377" y2="377" class="st1"/><line x1="664" x2="264" y1="385" y2="385" class="st1"/><line x1="664" x2="264" y1="393" y2="393" class="st1"/><line x1="664" x2="264" y1="401" y2="401" class="st1"/><line x1="664" x2="264" y1="409" y2="409" class="st1"/><line x1="664" x2="264" y1="417" y2="417" class="st1"/><line x1="664" x2="264" y1="425" y2="425" class="st1"/><line x1="664" x2="264" y1="433" y2="433" class="st1"/><line x1="664" x2="264" y1="441" y2="441" class="st1"/><line x1="664" x2="264" y1="449" y2="449" class="st1"/></g><g id="Graphics"><g class="st2"><path d="M681.4,333v-1.2h3.1v-9h-0.1l-2.8,2.6l-0.8-0.8l3-2.8h2.1v10h2.9v1.2L681.4,333L681.4,333z"/><path d="M690.7,328.9c0-3.3,2.2-5.9,4-7.1h1.7c-2.4,1.7-3.7,3.2-4.3,5.8h0.1c0.5-0.9,1.3-1.6,2.7-1.6c1.9,0,3.3,1.3,3.3,3.4 c0,2.2-1.5,3.7-3.7,3.7C692.1,333.2,690.7,331.5,690.7,328.9z M696.7,329.6v-0.1c0-1.5-0.9-2.4-2.3-2.4s-2.3,0.8-2.3,2.4v0.1 c0,1.5,0.9,2.4,2.3,2.4S696.7,331.1,696.7,329.6z"/></g><g class="st2"><path d="M700.6,324.8h1.3v1.3h0.1c0.4-1,1.3-1.5,2.4-1.5c2.1,0,3.4,1.7,3.4,4.3c0,2.6-1.3,4.3-3.4,4.3c-1.1,0-1.9-0.5-2.4-1.5 h-0.1v4.5h-1.3V324.8z M706.3,329.5v-1.4c0-1.5-0.9-2.5-2.3-2.5c-1.2,0-2.1,0.7-2.1,1.6v3.1c0,1.1,1,1.7,2.1,1.7 C705.4,332,706.3,331,706.3,329.5z"/></g><g class="st2"><path d="M711.7,328.9l-2.9-4.1h1.5l2.1,3.1l0,0l2.2-3.1h1.4l-2.9,4l3,4.3h-1.5l-2.1-3.2l0,0l-2.3,3.2h-1.4L711.7,328.9z"/></g><g class="st2"><path d="M686,409v-2.2h-5.4v-1.2l4.7-7.8h2v7.9h1.6v1.1h-1.6v2.2H686z M681.9,405.8h4.1V399h-0.1L681.9,405.8z"/></g><g class="st2"><path d="M691,400.8h1.3v1.3h0.1c0.4-1,1.3-1.5,2.4-1.5c2.1,0,3.4,1.7,3.4,4.3c0,2.6-1.3,4.3-3.4,4.3c-1.1,0-1.9-0.5-2.4-1.5h-0.1 v4.5H691V400.8z M696.7,405.5v-1.4c0-1.5-0.9-2.5-2.3-2.5c-1.2,0-2.1,0.7-2.1,1.6v3.1c0,1.1,1,1.7,2.1,1.7 C695.8,408,696.7,407,696.7,405.5z"/></g><g class="st2"><path d="M702.1,404.9l-2.9-4.1h1.5l2.1,3.1l0,0l2.2-3.1h1.4l-2.9,4l3,4.3H705l-2.1-3.2l0,0l-2.3,3.2H699L702.1,404.9z"/></g><g class="st2"><path d="M680.9,369.9c0-1.5,0.9-2.4,2.3-2.8V367c-1.2-0.4-1.9-1.3-1.9-2.6c0-1.7,1.3-2.8,3.5-2.8s3.5,1.1,3.5,2.8 c0,1.3-0.8,2.2-1.9,2.6v0.1c1.3,0.4,2.3,1.2,2.3,2.8c0,1.8-1.3,3.2-3.9,3.2C682.3,373.2,680.9,371.9,680.9,369.9z M687.3,370v-0.3 c0-1.3-0.9-2-2.4-2c-1.6,0-2.4,0.7-2.4,2v0.3c0,1.3,0.9,2,2.4,2C686.4,372,687.3,371.4,687.3,370z M686.9,364.9v-0.2 c0-1.1-0.8-1.8-2.1-1.8s-2.1,0.6-2.1,1.8v0.2c0,1.1,0.8,1.8,2.1,1.8S686.9,365.9,686.9,364.9z"/></g><g class="st2"><path d="M691,364.8h1.3v1.3h0.1c0.4-1,1.3-1.5,2.4-1.5c2.1,0,3.4,1.7,3.4,4.3c0,2.6-1.3,4.3-3.4,4.3c-1.1,0-1.9-0.5-2.4-1.5h-0.1 v4.5H691V364.8z M696.7,369.5v-1.4c0-1.5-0.9-2.5-2.3-2.5c-1.2,0-2.1,0.7-2.1,1.6v3.1c0,1.1,1,1.7,2.1,1.7 C695.8,372,696.7,371,696.7,369.5z"/></g><g class="st2"><path d="M702.1,368.9l-2.9-4.1h1.5l2.1,3.1l0,0l2.2-3.1h1.4l-2.9,4l3,4.3H705l-2.1-3.2l0,0l-2.3,3.2H699L702.1,368.9z"/></g><g class="st2"><path d="M684.2,278.5c1.5,0,2.3-0.8,2.3-1.9v-0.1c0-1.2-0.8-1.8-2-1.8s-1.8,0.5-2.3,1.4l-1-0.8c0.6-0.9,1.5-1.8,3.3-1.8 c1.9,0,3.4,1,3.4,2.8c0,1.4-1,2.3-2.1,2.6v0.1c1.2,0.2,2.4,1.1,2.4,2.8c0,1.9-1.5,3.2-3.8,3.2c-1.9,0-2.9-0.9-3.6-1.9l1-0.8 c0.6,0.9,1.2,1.5,2.6,1.5c1.6,0,2.4-0.8,2.4-2.1v-0.1c0-1.3-0.8-2.1-2.4-2.1H683v-1.2h1.2V278.5z"/><path d="M698.1,285h-7.3v-1.4l3.6-3.4c1-1,1.8-2.1,1.8-3.2v-0.2c0-1.2-0.7-2.1-2.1-2.1s-2,0.8-2.3,1.9l-1.2-0.5 c0.4-1.3,1.4-2.6,3.6-2.6c2.2,0,3.4,1.3,3.4,3.2c0,1.7-1,2.9-2.4,4.2l-3,2.7h5.9V285z"/></g><g class="st2"><path d="M700.6,276.8h1.3v1.3h0.1c0.4-1,1.3-1.5,2.4-1.5c2.1,0,3.4,1.7,3.4,4.3c0,2.6-1.3,4.3-3.4,4.3c-1.1,0-1.9-0.5-2.4-1.5 h-0.1v4.5h-1.3V276.8z M706.3,281.5v-1.4c0-1.5-0.9-2.5-2.3-2.5c-1.2,0-2.1,0.7-2.1,1.6v3.1c0,1.1,1,1.7,2.1,1.7 C705.4,284,706.3,283,706.3,281.5z"/></g><g class="st2"><path d="M711.7,280.9l-2.9-4.1h1.5l2.1,3.1l0,0l2.2-3.1h1.4l-2.9,4l3,4.3h-1.5l-2.1-3.2l0,0l-2.3,3.2h-1.4L711.7,280.9z"/></g><path d="M316,105h296c2.2,0,4,1.8,4,4v296c0,2.2-1.8,4-4,4H316c-2.2,0-4-1.8-4-4V109C312,106.8,313.8,105,316,105z" class="st3"/><g><g><defs><path id="SVGID_1_" d="M316,105h296c2.2,0,4,1.8,4,4v296c0,2.2-1.8,4-4,4H316c-2.2,0-4-1.8-4-4V109C312,106.8,313.8,105,316,105 z"/></defs><clipPath id="SVGID_2_"><use style="overflow:visible" xlink:href="#SVGID_1_"/></clipPath><g class="st4"><line x1="312" x2="312" y1="57" y2="457" class="st5"/><line x1="320" x2="320" y1="57" y2="457" class="st5"/><line x1="328" x2="328" y1="57" y2="457" class="st5"/><line x1="336" x2="336" y1="57" y2="457" class="st5"/><line x1="344" x2="344" y1="57" y2="457" class="st5"/><line x1="352" x2="352" y1="57" y2="457" class="st5"/><line x1="360" x2="360" y1="57" y2="457" class="st5"/><line x1="368" x2="368" y1="57" y2="457" class="st5"/><line x1="376" x2="376" y1="57" y2="457" class="st5"/><line x1="384" x2="384" y1="57" y2="457" class="st5"/><line x1="392" x2="392" y1="57" y2="457" class="st5"/><line x1="400" x2="400" y1="57" y2="457" class="st5"/><line x1="408" x2="408" y1="57" y2="457" class="st5"/><line x1="416" x2="416" y1="57" y2="457" class="st5"/><line x1="424" x2="424" y1="57" y2="457" class="st5"/><line x1="432" x2="432" y1="57" y2="457" class="st5"/><line x1="440" x2="440" y1="57" y2="457" class="st5"/><line x1="448" x2="448" y1="57" y2="457" class="st5"/><line x1="456" x2="456" y1="57" y2="457" class="st5"/><line x1="464" x2="464" y1="57" y2="457" class="st5"/><line x1="472" x2="472" y1="57" y2="457" class="st5"/><line x1="480" x2="480" y1="57" y2="457" class="st5"/><line x1="488" x2="488" y1="57" y2="457" class="st5"/><line x1="496" x2="496" y1="57" y2="457" class="st5"/><line x1="504" x2="504" y1="57" y2="457" class="st5"/><line x1="512" x2="512" y1="57" y2="457" class="st5"/><line x1="520" x2="520" y1="57" y2="457" class="st5"/><line x1="528" x2="528" y1="57" y2="457" class="st5"/><line x1="536" x2="536" y1="57" y2="457" class="st5"/><line x1="544" x2="544" y1="57" y2="457" class="st5"/><line x1="552" x2="552" y1="57" y2="457" class="st5"/><line x1="560" x2="560" y1="57" y2="457" class="st5"/><line x1="568" x2="568" y1="57" y2="457" class="st5"/><line x1="576" x2="576" y1="57" y2="457" class="st5"/><line x1="584" x2="584" y1="57" y2="457" class="st5"/><line x1="592" x2="592" y1="57" y2="457" class="st5"/><line x1="600" x2="600" y1="57" y2="457" class="st5"/><line x1="608" x2="608" y1="57" y2="457" class="st5"/><line x1="616" x2="616" y1="57" y2="457" class="st5"/><line x1="664" x2="264" y1="105" y2="105" class="st5"/><line x1="664" x2="264" y1="113" y2="113" class="st5"/><line x1="664" x2="264" y1="121" y2="121" class="st5"/><line x1="664" x2="264" y1="129" y2="129" class="st5"/><line x1="664" x2="264" y1="137" y2="137" class="st5"/><line x1="664" x2="264" y1="145" y2="145" class="st5"/><line x1="664" x2="264" y1="153" y2="153" class="st5"/><line x1="664" x2="264" y1="161" y2="161" class="st5"/><line x1="664" x2="264" y1="169" y2="169" class="st5"/><line x1="664" x2="264" y1="177" y2="177" class="st5"/><line x1="664" x2="264" y1="185" y2="185" class="st5"/><line x1="664" x2="264" y1="193" y2="193" class="st5"/><line x1="664" x2="264" y1="201" y2="201" class="st5"/><line x1="664" x2="264" y1="209" y2="209" class="st5"/><line x1="664" x2="264" y1="217" y2="217" class="st5"/><line x1="664" x2="264" y1="225" y2="225" class="st5"/><line x1="664" x2="264" y1="233" y2="233" class="st5"/><line x1="664" x2="264" y1="241" y2="241" class="st5"/><line x1="664" x2="264" y1="249" y2="249" class="st5"/><line x1="664" x2="264" y1="257" y2="257" class="st5"/><line x1="664" x2="264" y1="265" y2="265" class="st5"/><line x1="664" x2="264" y1="273" y2="273" class="st5"/><line x1="664" x2="264" y1="281" y2="281" class="st5"/><line x1="664" x2="264" y1="289" y2="289" class="st5"/><line x1="664" x2="264" y1="297" y2="297" class="st5"/><line x1="664" x2="264" y1="305" y2="305" class="st5"/><line x1="664" x2="264" y1="313" y2="313" class="st5"/><line x1="664" x2="264" y1="321" y2="321" class="st5"/><line x1="664" x2="264" y1="329" y2="329" class="st5"/><line x1="664" x2="264" y1="337" y2="337" class="st5"/><line x1="664" x2="264" y1="345" y2="345" class="st5"/><line x1="664" x2="264" y1="353" y2="353" class="st5"/><line x1="664" x2="264" y1="361" y2="361" class="st5"/><line x1="664" x2="264" y1="369" y2="369" class="st5"/><line x1="664" x2="264" y1="377" y2="377" class="st5"/><line x1="664" x2="264" y1="385" y2="385" class="st5"/><line x1="664" x2="264" y1="393" y2="393" class="st5"/><line x1="664" x2="264" y1="401" y2="401" class="st5"/><line x1="664" x2="264" y1="409" y2="409" class="st5"/></g></g></g><path d="M352,137h224c4.4,0,8,3.6,8,8v224c0,4.4-3.6,8-8,8H352c-4.4,0-8-3.6-8-8V145C344,140.5,347.6,137,352,137z" class="st6"/><g><g><defs><path id="SVGID_3_" d="M352,137h224c4.4,0,8,3.6,8,8v224c0,4.4-3.6,8-8,8H352c-4.4,0-8-3.6-8-8V145C344,140.5,347.6,137,352,137 z"/></defs><clipPath id="SVGID_4_"><use style="overflow:visible" xlink:href="#SVGID_3_"/></clipPath><g class="st7"><line x1="344" x2="344" y1="57" y2="457" class="st8"/><line x1="352" x2="352" y1="57" y2="457" class="st8"/><line x1="360" x2="360" y1="57" y2="457" class="st8"/><line x1="368" x2="368" y1="57" y2="457" class="st8"/><line x1="376" x2="376" y1="57" y2="457" class="st8"/><line x1="384" x2="384" y1="57" y2="457" class="st8"/><line x1="392" x2="392" y1="57" y2="457" class="st8"/><line x1="400" x2="400" y1="57" y2="457" class="st8"/><line x1="408" x2="408" y1="57" y2="457" class="st8"/><line x1="416" x2="416" y1="57" y2="457" class="st8"/><line x1="424" x2="424" y1="57" y2="457" class="st8"/><line x1="432" x2="432" y1="57" y2="457" class="st8"/><line x1="440" x2="440" y1="57" y2="457" class="st8"/><line x1="448" x2="448" y1="57" y2="457" class="st8"/><line x1="456" x2="456" y1="57" y2="457" class="st8"/><line x1="464" x2="464" y1="57" y2="457" class="st8"/><line x1="472" x2="472" y1="57" y2="457" class="st8"/><line x1="480" x2="480" y1="57" y2="457" class="st8"/><line x1="488" x2="488" y1="57" y2="457" class="st8"/><line x1="496" x2="496" y1="57" y2="457" class="st8"/><line x1="504" x2="504" y1="57" y2="457" class="st8"/><line x1="512" x2="512" y1="57" y2="457" class="st8"/><line x1="520" x2="520" y1="57" y2="457" class="st8"/><line x1="528" x2="528" y1="57" y2="457" class="st8"/><line x1="536" x2="536" y1="57" y2="457" class="st8"/><line x1="544" x2="544" y1="57" y2="457" class="st8"/><line x1="552" x2="552" y1="57" y2="457" class="st8"/><line x1="560" x2="560" y1="57" y2="457" class="st8"/><line x1="568" x2="568" y1="57" y2="457" class="st8"/><line x1="576" x2="576" y1="57" y2="457" class="st8"/><line x1="584" x2="584" y1="57" y2="457" class="st8"/><line x1="664" x2="264" y1="137" y2="137" class="st8"/><line x1="664" x2="264" y1="145" y2="145" class="st8"/><line x1="664" x2="264" y1="153" y2="153" class="st8"/><line x1="664" x2="264" y1="161" y2="161" class="st8"/><line x1="664" x2="264" y1="169" y2="169" class="st8"/><line x1="664" x2="264" y1="177" y2="177" class="st8"/><line x1="664" x2="264" y1="185" y2="185" class="st8"/><line x1="664" x2="264" y1="193" y2="193" class="st8"/><line x1="664" x2="264" y1="201" y2="201" class="st8"/><line x1="664" x2="264" y1="209" y2="209" class="st8"/><line x1="664" x2="264" y1="217" y2="217" class="st8"/><line x1="664" x2="264" y1="225" y2="225" class="st8"/><line x1="664" x2="264" y1="233" y2="233" class="st8"/><line x1="664" x2="264" y1="241" y2="241" class="st8"/><line x1="664" x2="264" y1="249" y2="249" class="st8"/><line x1="664" x2="264" y1="257" y2="257" class="st8"/><line x1="664" x2="264" y1="265" y2="265" class="st8"/><line x1="664" x2="264" y1="273" y2="273" class="st8"/><line x1="664" x2="264" y1="281" y2="281" class="st8"/><line x1="664" x2="264" y1="289" y2="289" class="st8"/><line x1="664" x2="264" y1="297" y2="297" class="st8"/><line x1="664" x2="264" y1="305" y2="305" class="st8"/><line x1="664" x2="264" y1="313" y2="313" class="st8"/><line x1="664" x2="264" y1="321" y2="321" class="st8"/><line x1="664" x2="264" y1="329" y2="329" class="st8"/><line x1="664" x2="264" y1="337" y2="337" class="st8"/><line x1="664" x2="264" y1="345" y2="345" class="st8"/><line x1="664" x2="264" y1="353" y2="353" class="st8"/><line x1="664" x2="264" y1="361" y2="361" class="st8"/><line x1="664" x2="264" y1="369" y2="369" class="st8"/><line x1="664" x2="264" y1="377" y2="377" class="st8"/></g></g></g><path d="M392,169h144c8.8,0,16,7.2,16,16v144c0,8.8-7.2,16-16,16H392c-8.8,0-16-7.2-16-16V185 C376,176.1,383.2,169,392,169z" class="st9"/><g><g><defs><path id="SVGID_5_" d="M392,169h144c8.8,0,16,7.2,16,16v144c0,8.8-7.2,16-16,16H392c-8.8,0-16-7.2-16-16V185 C376,176.1,383.2,169,392,169z"/></defs><clipPath id="SVGID_6_"><use style="overflow:visible" xlink:href="#SVGID_5_"/></clipPath><g class="st10"><line x1="376" x2="376" y1="57" y2="457" class="st11"/><line x1="384" x2="384" y1="57" y2="457" class="st11"/><line x1="392" x2="392" y1="57" y2="457" class="st11"/><line x1="400" x2="400" y1="57" y2="457" class="st11"/><line x1="408" x2="408" y1="57" y2="457" class="st11"/><line x1="416" x2="416" y1="57" y2="457" class="st11"/><line x1="424" x2="424" y1="57" y2="457" class="st11"/><line x1="432" x2="432" y1="57" y2="457" class="st11"/><line x1="440" x2="440" y1="57" y2="457" class="st11"/><line x1="448" x2="448" y1="57" y2="457" class="st11"/><line x1="456" x2="456" y1="57" y2="457" class="st11"/><line x1="464" x2="464" y1="57" y2="457" class="st11"/><line x1="472" x2="472" y1="57" y2="457" class="st11"/><line x1="480" x2="480" y1="57" y2="457" class="st11"/><line x1="488" x2="488" y1="57" y2="457" class="st11"/><line x1="496" x2="496" y1="57" y2="457" class="st11"/><line x1="504" x2="504" y1="57" y2="457" class="st11"/><line x1="512" x2="512" y1="57" y2="457" class="st11"/><line x1="520" x2="520" y1="57" y2="457" class="st11"/><line x1="528" x2="528" y1="57" y2="457" class="st11"/><line x1="536" x2="536" y1="57" y2="457" class="st11"/><line x1="544" x2="544" y1="57" y2="457" class="st11"/><line x1="552" x2="552" y1="57" y2="457" class="st11"/><line x1="664" x2="264" y1="169" y2="169" class="st11"/><line x1="664" x2="264" y1="177" y2="177" class="st11"/><line x1="664" x2="264" y1="185" y2="185" class="st11"/><line x1="664" x2="264" y1="193" y2="193" class="st11"/><line x1="664" x2="264" y1="201" y2="201" class="st11"/><line x1="664" x2="264" y1="209" y2="209" class="st11"/><line x1="664" x2="264" y1="217" y2="217" class="st11"/><line x1="664" x2="264" y1="225" y2="225" class="st11"/><line x1="664" x2="264" y1="233" y2="233" class="st11"/><line x1="664" x2="264" y1="241" y2="241" class="st11"/><line x1="664" x2="264" y1="249" y2="249" class="st11"/><line x1="664" x2="264" y1="257" y2="257" class="st11"/><line x1="664" x2="264" y1="265" y2="265" class="st11"/><line x1="664" x2="264" y1="273" y2="273" class="st11"/><line x1="664" x2="264" y1="281" y2="281" class="st11"/><line x1="664" x2="264" y1="289" y2="289" class="st11"/><line x1="664" x2="264" y1="297" y2="297" class="st11"/><line x1="664" x2="264" y1="305" y2="305" class="st11"/><line x1="664" x2="264" y1="313" y2="313" class="st11"/><line x1="664" x2="264" y1="321" y2="321" class="st11"/><line x1="664" x2="264" y1="329" y2="329" class="st11"/><line x1="664" x2="264" y1="337" y2="337" class="st11"/><line x1="664" x2="264" y1="345" y2="345" class="st11"/></g></g></g><path d="M440,201h48c17.7,0,32,14.3,32,32v48c0,17.7-14.3,32-32,32h-48c-17.7,0-32-14.3-32-32v-48 C408,215.3,422.3,201,440,201z" class="st12"/><g><g><defs><path id="SVGID_7_" d="M440,201h48c17.7,0,32,14.3,32,32v48c0,17.7-14.3,32-32,32h-48c-17.7,0-32-14.3-32-32v-48 C408,215.3,422.3,201,440,201z"/></defs><clipPath id="SVGID_8_"><use style="overflow:visible" xlink:href="#SVGID_7_"/></clipPath><g class="st13"><line x1="408" x2="408" y1="57" y2="457" class="st14"/><line x1="416" x2="416" y1="57" y2="457" class="st14"/><line x1="424" x2="424" y1="57" y2="457" class="st14"/><line x1="432" x2="432" y1="57" y2="457" class="st14"/><line x1="440" x2="440" y1="57" y2="457" class="st14"/><line x1="448" x2="448" y1="57" y2="457" class="st14"/><line x1="456" x2="456" y1="57" y2="457" class="st14"/><line x1="464" x2="464" y1="57" y2="457" class="st14"/><line x1="472" x2="472" y1="57" y2="457" class="st14"/><line x1="480" x2="480" y1="57" y2="457" class="st14"/><line x1="488" x2="488" y1="57" y2="457" class="st14"/><line x1="496" x2="496" y1="57" y2="457" class="st14"/><line x1="504" x2="504" y1="57" y2="457" class="st14"/><line x1="512" x2="512" y1="57" y2="457" class="st14"/><line x1="520" x2="520" y1="57" y2="457" class="st14"/><line x1="664" x2="264" y1="201" y2="201" class="st14"/><line x1="664" x2="264" y1="209" y2="209" class="st14"/><line x1="664" x2="264" y1="217" y2="217" class="st14"/><line x1="664" x2="264" y1="225" y2="225" class="st14"/><line x1="664" x2="264" y1="233" y2="233" class="st14"/><line x1="664" x2="264" y1="241" y2="241" class="st14"/><line x1="664" x2="264" y1="249" y2="249" class="st14"/><line x1="664" x2="264" y1="257" y2="257" class="st14"/><line x1="664" x2="264" y1="265" y2="265" class="st14"/><line x1="664" x2="264" y1="273" y2="273" class="st14"/><line x1="664" x2="264" y1="281" y2="281" class="st14"/><line x1="664" x2="264" y1="289" y2="289" class="st14"/><line x1="664" x2="264" y1="297" y2="297" class="st14"/><line x1="664" x2="264" y1="305" y2="305" class="st14"/><line x1="664" x2="264" y1="313" y2="313" class="st14"/></g></g></g><circle cx="536" cy="329" r="16" class="st15"/><circle cx="576" cy="369" r="8" class="st15"/><circle cx="612" cy="405" r="4" class="st15"/><linearGradient id="SVGID_9_" x1="520" x2="672" y1="839.05" y2="839.05" gradientTransform="matrix(1 0 0 1 0 -558)" gradientUnits="userSpaceOnUse"><stop style="stop-color:#9f1853" offset="0"/><stop style="stop-color:#d12771" offset=".398"/></linearGradient><line x1="520" x2="672" y1="281" y2="281" class="st16"/><line x1="552" x2="672" y1="329" y2="329" class="st15"/><line x1="584" x2="672" y1="369" y2="369" class="st15"/><line x1="616" x2="672" y1="405" y2="405" class="st15"/><circle cx="488" cy="281" r="32" class="st17"/></g></svg>