<svg xmlns="http://www.w3.org/2000/svg" xmlns:xlink="http://www.w3.org/1999/xlink" viewBox="0 0 288 288"><defs><style>.cls-1,.cls-12,.cls-15,.cls-18,.cls-3,.cls-7,.cls-9{fill:none}.cls-2{fill:#fff}.cls-3{stroke:#e0e0e0}.cls-12,.cls-13,.cls-15,.cls-16,.cls-18,.cls-3,.cls-7,.cls-9{stroke-miterlimit:10}.cls-4{fill:#d0e2ff}.cls-5{fill:#a6c8ff}.cls-6{clip-path:url(#clip-path)}.cls-7{stroke:#a6c8ff}.cls-8{clip-path:url(#clip-path-2)}.cls-9{stroke:#78a9ff}.cls-10{fill:#78a9ff}.cls-11{clip-path:url(#clip-path-3)}.cls-12,.cls-13{stroke:#4589ff}.cls-13{fill:#4589ff}.cls-14{clip-path:url(#clip-path-4)}.cls-15,.cls-16{stroke:#0f62fe}.cls-16{fill:#0f62fe}.cls-17{clip-path:url(#clip-path-5)}.cls-18{stroke:#0043ce}</style><clipPath id="clip-path"><path d="M288,287.864H72v-136a80.235,80.235,0,0,1,80-80H288" class="cls-1"/></clipPath><clipPath id="clip-path-2"><path d="M288,287.864H88V151.728a64.188,64.188,0,0,1,64-64H288" class="cls-1"/></clipPath><clipPath id="clip-path-3"><path d="M288,288H104V151.864a48.141,48.141,0,0,1,48-48H288" class="cls-1"/></clipPath><clipPath id="clip-path-4"><path d="M288,287.864H120v-136a32.094,32.094,0,0,1,32-32H288" class="cls-1"/></clipPath><clipPath id="clip-path-5"><path d="M288,135.728H152a16.047,16.047,0,0,0-16,16V287.864H288" class="cls-1"/></clipPath></defs><title>Artboard 16</title><g id="Base"><rect width="288" height="288" class="cls-2"/><rect width="208" height="208" x="40" y="39.864" class="cls-3"/><line x1="56" x2="56" y1="39.864" y2="247.864" class="cls-3"/><line x1="72" x2="72" y1="39.864" y2="247.864" class="cls-3"/><line x1="88" x2="88" y1="39.864" y2="247.864" class="cls-3"/><line x1="104" x2="104" y1="39.864" y2="247.864" class="cls-3"/><line x1="120" x2="120" y1="39.864" y2="247.864" class="cls-3"/><line x1="136" x2="136" y1="39.864" y2="247.864" class="cls-3"/><line x1="152" x2="152" y1="39.864" y2="247.864" class="cls-3"/><line x1="168" x2="168" y1="39.864" y2="247.864" class="cls-3"/><line x1="184" x2="184" y1="39.864" y2="247.864" class="cls-3"/><line x1="200" x2="200" y1="39.864" y2="247.864" class="cls-3"/><line x1="216" x2="216" y1="39.864" y2="247.864" class="cls-3"/><line x1="232" x2="232" y1="39.864" y2="247.864" class="cls-3"/><line x1="248" x2="40" y1="55.864" y2="55.864" class="cls-3"/><line x1="248" x2="40" y1="71.864" y2="71.864" class="cls-3"/><line x1="248" x2="40" y1="87.864" y2="87.864" class="cls-3"/><line x1="248" x2="40" y1="103.864" y2="103.864" class="cls-3"/><line x1="248" x2="40" y1="119.864" y2="119.864" class="cls-3"/><line x1="248" x2="40" y1="135.864" y2="135.864" class="cls-3"/><line x1="248" x2="40" y1="151.864" y2="151.864" class="cls-3"/><line x1="248" x2="40" y1="167.864" y2="167.864" class="cls-3"/><line x1="248" x2="40" y1="183.864" y2="183.864" class="cls-3"/><line x1="248" x2="40" y1="199.864" y2="199.864" class="cls-3"/><line x1="248" x2="40" y1="215.864" y2="215.864" class="cls-3"/><line x1="248" x2="40" y1="231.864" y2="231.864" class="cls-3"/></g><g id="Graphics"><path d="M288,287.864H72v-136a80.235,80.235,0,0,1,80-80H288" class="cls-4"/><path d="M288,287.864H88V151.728a64.188,64.188,0,0,1,64-64H288" class="cls-5"/><g class="cls-6"><polyline points="248 39.864 248 247.864 40 247.864" class="cls-7"/><line x1="88" x2="88" y1="39.864" y2="247.864" class="cls-7"/><line x1="104" x2="104" y1="39.864" y2="247.864" class="cls-7"/><line x1="120" x2="120" y1="39.864" y2="247.864" class="cls-7"/><line x1="136" x2="136" y1="39.864" y2="247.864" class="cls-7"/><line x1="152" x2="152" y1="39.864" y2="247.864" class="cls-7"/><line x1="168" x2="168" y1="39.864" y2="247.864" class="cls-7"/><line x1="184" x2="184" y1="39.864" y2="247.864" class="cls-7"/><line x1="200" x2="200" y1="39.864" y2="247.864" class="cls-7"/><line x1="216" x2="216" y1="39.864" y2="247.864" class="cls-7"/><line x1="232" x2="232" y1="39.864" y2="247.864" class="cls-7"/><line x1="72" x2="72" y1="39.864" y2="247.864" class="cls-7"/><line x1="248" x2="40" y1="87.864" y2="87.864" class="cls-7"/><line x1="248" x2="40" y1="103.864" y2="103.864" class="cls-7"/><line x1="248" x2="40" y1="119.864" y2="119.864" class="cls-7"/><line x1="248" x2="40" y1="135.864" y2="135.864" class="cls-7"/><line x1="248" x2="40" y1="151.864" y2="151.864" class="cls-7"/><line x1="248" x2="40" y1="167.864" y2="167.864" class="cls-7"/><line x1="248" x2="40" y1="183.864" y2="183.864" class="cls-7"/><line x1="248" x2="40" y1="199.864" y2="199.864" class="cls-7"/><line x1="248" x2="40" y1="215.864" y2="215.864" class="cls-7"/><line x1="248" x2="40" y1="231.864" y2="231.864" class="cls-7"/><line x1="248" x2="40" y1="72" y2="72" class="cls-7"/></g><g class="cls-8"><polyline points="248 39.864 248 247.864 40 247.864" class="cls-9"/><line x1="104" x2="104" y1="39.864" y2="247.864" class="cls-9"/><line x1="120" x2="120" y1="39.864" y2="247.864" class="cls-9"/><line x1="136" x2="136" y1="39.864" y2="247.864" class="cls-9"/><line x1="152" x2="152" y1="39.864" y2="247.864" class="cls-9"/><line x1="168" x2="168" y1="39.864" y2="247.864" class="cls-9"/><line x1="184" x2="184" y1="39.864" y2="247.864" class="cls-9"/><line x1="200" x2="200" y1="39.864" y2="247.864" class="cls-9"/><line x1="216" x2="216" y1="39.864" y2="247.864" class="cls-9"/><line x1="232" x2="232" y1="39.864" y2="247.864" class="cls-9"/><line x1="88" x2="88" y1="39.864" y2="247.864" class="cls-9"/><line x1="248" x2="40" y1="103.864" y2="103.864" class="cls-9"/><line x1="248" x2="40" y1="119.864" y2="119.864" class="cls-9"/><line x1="248" x2="40" y1="135.864" y2="135.864" class="cls-9"/><line x1="248" x2="40" y1="151.864" y2="151.864" class="cls-9"/><line x1="248" x2="40" y1="167.864" y2="167.864" class="cls-9"/><line x1="248" x2="40" y1="183.864" y2="183.864" class="cls-9"/><line x1="248" x2="40" y1="199.864" y2="199.864" class="cls-9"/><line x1="248" x2="40" y1="215.864" y2="215.864" class="cls-9"/><line x1="248" x2="40" y1="231.864" y2="231.864" class="cls-9"/><line x1="248" x2="40" y1="87.864" y2="87.864" class="cls-9"/></g><path d="M288,288H104V151.864a48.141,48.141,0,0,1,48-48H288" class="cls-10"/><g class="cls-11"><polyline points="248 39.864 248 247.864 40 247.864" class="cls-12"/><line x1="104" x2="104" y1="39.864" y2="247.864" class="cls-12"/><line x1="120" x2="120" y1="39.864" y2="247.864" class="cls-12"/><line x1="136" x2="136" y1="39.864" y2="247.864" class="cls-12"/><line x1="152" x2="152" y1="39.864" y2="247.864" class="cls-12"/><line x1="168" x2="168" y1="39.864" y2="247.864" class="cls-12"/><line x1="184" x2="184" y1="39.864" y2="247.864" class="cls-12"/><line x1="200" x2="200" y1="39.864" y2="247.864" class="cls-12"/><line x1="216" x2="216" y1="39.864" y2="247.864" class="cls-12"/><line x1="232" x2="232" y1="39.864" y2="247.864" class="cls-12"/><line x1="248" x2="40" y1="103.864" y2="103.864" class="cls-12"/><line x1="248" x2="40" y1="119.864" y2="119.864" class="cls-12"/><line x1="248" x2="40" y1="135.864" y2="135.864" class="cls-12"/><line x1="248" x2="40" y1="151.864" y2="151.864" class="cls-12"/><line x1="248" x2="40" y1="167.864" y2="167.864" class="cls-12"/><line x1="248" x2="40" y1="183.864" y2="183.864" class="cls-12"/><line x1="248" x2="40" y1="199.864" y2="199.864" class="cls-12"/><line x1="248" x2="40" y1="215.864" y2="215.864" class="cls-12"/><line x1="248" x2="40" y1="231.864" y2="231.864" class="cls-12"/></g><path d="M288,287.864H120v-136a32.094,32.094,0,0,1,32-32H288" class="cls-13"/><g class="cls-14"><polyline points="248 39.864 248 247.864 40 247.864" class="cls-15"/><line x1="120" x2="120" y1="39.864" y2="247.864" class="cls-15"/><line x1="136" x2="136" y1="39.864" y2="247.864" class="cls-15"/><line x1="152" x2="152" y1="39.864" y2="247.864" class="cls-15"/><line x1="168" x2="168" y1="39.864" y2="247.864" class="cls-15"/><line x1="184" x2="184" y1="39.864" y2="247.864" class="cls-15"/><line x1="200" x2="200" y1="39.864" y2="247.864" class="cls-15"/><line x1="216" x2="216" y1="39.864" y2="247.864" class="cls-15"/><line x1="232" x2="232" y1="39.864" y2="247.864" class="cls-15"/><line x1="248" x2="40" y1="119.864" y2="119.864" class="cls-15"/><line x1="248" x2="40" y1="135.864" y2="135.864" class="cls-15"/><line x1="248" x2="40" y1="151.864" y2="151.864" class="cls-15"/><line x1="248" x2="40" y1="167.864" y2="167.864" class="cls-15"/><line x1="248" x2="40" y1="183.864" y2="183.864" class="cls-15"/><line x1="248" x2="40" y1="199.864" y2="199.864" class="cls-15"/><line x1="248" x2="40" y1="215.864" y2="215.864" class="cls-15"/><line x1="248" x2="40" y1="231.864" y2="231.864" class="cls-15"/></g><path d="M288,135.728H152a16.047,16.047,0,0,0-16,16V287.864H288" class="cls-16"/><g class="cls-17"><polyline points="248 39.864 248 247.864 40 247.864" class="cls-18"/><line x1="136" x2="136" y1="39.864" y2="247.864" class="cls-18"/><line x1="152" x2="152" y1="39.864" y2="247.864" class="cls-18"/><line x1="168" x2="168" y1="39.864" y2="247.864" class="cls-18"/><line x1="184" x2="184" y1="39.864" y2="247.864" class="cls-18"/><line x1="200" x2="200" y1="39.864" y2="247.864" class="cls-18"/><line x1="216" x2="216" y1="39.864" y2="247.864" class="cls-18"/><line x1="232" x2="232" y1="39.864" y2="247.864" class="cls-18"/><line x1="248" x2="40" y1="135.864" y2="135.864" class="cls-18"/><line x1="248" x2="40" y1="151.864" y2="151.864" class="cls-18"/><line x1="248" x2="40" y1="167.864" y2="167.864" class="cls-18"/><line x1="248" x2="40" y1="183.864" y2="183.864" class="cls-18"/><line x1="248" x2="40" y1="199.864" y2="199.864" class="cls-18"/><line x1="248" x2="40" y1="215.864" y2="215.864" class="cls-18"/><line x1="248" x2="40" y1="231.864" y2="231.864" class="cls-18"/></g></g></svg>