<svg xmlns="http://www.w3.org/2000/svg" xmlns:xlink="http://www.w3.org/1999/xlink" id="Layer_1" x="0" y="0" version="1.1" viewBox="0 0 928 520" xml:space="preserve" style="enable-background:new 0 0 928 520"><style type="text/css">.st0{fill:#fff}.st1{fill:#ffd6e8}.st2{fill:#ee5396}.st3{fill:#9ef0f0}.st4{fill:#a6c8ff}.st5{fill:#78a9ff}.st6{fill:#d0e2ff}.st7{fill:#e8daff}.st8{fill:#d4bbff}.st9{fill:#a56eff}.st10{fill:#be95ff}.st11{fill:#6929c4}.st12{fill:#31135e}.st13{fill:#491d8b}.st14{fill:#8a3ffc}.st15{fill:#ff7eb6}.st16{fill:#ffafd2}.st17{fill:#d12771}.st18{fill:#3ddbd9}.st19{fill:#08bdba}.st20{fill:#005d5d}.st21{fill:#009d9a}.st22{fill:#007d79}.st23{fill:#001d6c}.st24{fill:#002d9c}.st25{fill:#0043ce}.st26{fill:#0f62fe}.st27{fill:#9f1853}</style><g id="Base"><rect width="928" height="519.728" y=".136" class="st0"/></g><polygon points="328 496 440 496 384 400" class="st1"/><polygon points="480 496 592 496 536 400" class="st2"/><polygon points="568 264 504 264 472 320 504 376 568 376 600 320" class="st3"/><title>Artboard 2 copy</title><circle cx="384" cy="64" r="48" class="st4"/><circle cx="232" cy="64" r="48" class="st4"/><path d="M432,64h-48v48C410.51,112,432,90.51,432,64z" class="st5"/><path d="M384,16c-26.51,0-48,21.49-48,48h48V16z" class="st6"/><path d="M232,16c-26.51,0-48,21.49-48,48h96C280,37.49,258.51,16,232,16z" class="st6"/><circle cx="80" cy="64" r="48" class="st6"/><circle cx="840" cy="64" r="48" class="st6"/><path d="M840,64h-48c0,26.51,21.49,48,48,48s48-21.49,48-48H840z" class="st4"/><circle cx="840" cy="64" r="24" class="st0"/><rect width="96" height="96" x="32" y="136" class="st7"/><rect width="96" height="96" x="184" y="136" class="st7"/><polygon points="184 136 280 136 280 232" class="st8"/><rect width="96" height="96" x="336" y="136" class="st7"/><polygon points="432 136 432 232 336 232" class="st8"/><polygon points="336 136 336 232 432 232" class="st9"/><polygon points="336 232 432 232 384 184" class="st10"/><polygon points="584 136 488 136 536 184" class="st7"/><polygon points="536 184 584 232 584 136" class="st8"/><polygon points="488 184 488 232 536 232 536 184" class="st11"/><polygon points="584 232 584 184 536 184 547 221" class="st10"/><polygon points="536 136 488 136 488 184 536 184" class="st12"/><polygon points="488 232 584 232 536 184" class="st9"/><polygon points="488 136 488 184 536 184" class="st13"/><polygon points="488 232 536 232 536 184" class="st14"/><polygon points="640 136 736 136 736 232 640 232" class="st7"/><polygon points="736 232 640 232 640 136" class="st8"/><polygon points="792 136 792 232 888 232" class="st9"/><polygon points="792 136 888 232 888 136" class="st8"/><polygon points="888 136 792 136 840 184" class="st7"/><polygon points="792 232 888 232 840 184" class="st10"/><polygon points="112 264 48 264 16 320 48 376 112 376 144 320" class="st3"/><polygon points="720 264 656 264 624 320 656 376 720 376 752 320" class="st3"/><polygon points="872 264 808 264 776 320 808 376 872 376 904 320" class="st3"/><polygon points="264 264 200 264 168 320 200 376 264 376 296 320" class="st3"/><polygon points="416 264 352 264 320 320 352 376 416 376 448 320" class="st3"/><polygon points="24 496 136 496 80 400" class="st1"/><polygon points="784 496 840 496 812 448" class="st15"/><polygon points="840 496 896 496 868 448" class="st16"/><polygon points="812 448 868 448 840 400" class="st0"/><polygon points="812 448 868 448 840 400" class="st1"/><polygon points="868 448 812 448 840 496" class="st0"/><polygon points="632 496 688 496 660 448" class="st2"/><polygon points="660 448 716 448 688 400" class="st1"/><polygon points="660 448 688 448 688 400" class="st16"/><polygon points="688 496 744 496 716 448" class="st16"/><polygon points="688 496 716 496 716 448" class="st2"/><polygon points="660 496 688 496 660 448" class="st17"/><polygon points="716 448 688 448 660 448 688 496 688 496" class="st0"/><polygon points="176 496 288 496 232 400" class="st1"/><polygon points="288 496 232 496 232 400" class="st16"/><polygon points="440 496 384 464 384 400" class="st16"/><polygon points="232 320 168 320 200 376 264 376 296 320" class="st18"/><g><polygon points="352 264 320 320 384 320 416 264" class="st3"/><polygon points="416 264 384 320 416 376 448 320" class="st18"/><polygon points="384 320 320 320 352 376 416 376" class="st19"/></g><g><g><polygon points="568 264 600 320 536 320 504 264" class="st3"/><polygon points="504 264 536 320 504 376 472 320" class="st20"/><polygon points="536 320 600 320 568 376 504 376" class="st21"/></g><polygon points="472 320 536 320 504 264" class="st20"/><polygon points="536 320 600 320 568 264" class="st18"/><polygon points="568 264 504 264 536 320" class="st3"/><polygon points="600 320 536 320 568 376" class="st19"/><polygon points="536 320 472 320 504 376" class="st22"/><polygon points="504 376 568 376 536 320" class="st21"/></g><g><g><polygon points="720 264 752 320 688 320 656 264" class="st3"/><polygon points="656 264 688 320 656 376 624 320" class="st20"/><polygon points="688 320 752 320 720 376 656 376" class="st21"/></g><polygon points="624 320 688 320 656 264" class="st20"/><polygon points="688 320 752 320 720 264" class="st18"/><polygon points="720 264 656 264 688 320" class="st3"/><polygon points="752 320 688 320 720 376" class="st19"/><polygon points="688 320 624 320 656 376" class="st22"/><polygon points="656 376 720 376 688 320" class="st21"/></g><polygon points="872 264 808 264 840 320 904 320" class="st3"/><polygon points="808 264 776 320 808 376 840 320" class="st19"/><g><path d="M654.059,30.059C645.043,39.051,639.984,51.266,640,64h48V16C675.266,15.984,663.051,21.043,654.059,30.059z" class="st23"/><path d="M654.059,30.059C645.043,39.051,639.984,51.266,640,64c-0.016,12.734,5.043,24.949,14.059,33.941L688,64 L654.059,30.059z" class="st24"/><path d="M721.941,30.059C712.949,21.043,700.734,15.984,688,16v48h48C736.016,51.266,730.957,39.051,721.941,30.059z" class="st6"/><path d="M721.941,30.059L688,64l33.941,33.941C730.957,88.949,736.016,76.734,736,64 C736.016,51.266,730.957,39.051,721.941,30.059z" class="st4"/><path d="M688,64v48c12.734,0.016,24.949-5.043,33.941-14.059C730.957,88.949,736.016,76.734,736,64H688z" class="st4"/><path d="M721.941,97.941C730.957,88.949,736.016,76.734,736,64h-48L721.941,97.941z" class="st5"/><path d="M640,64c-0.016,12.734,5.043,24.949,14.059,33.941c8.992,9.016,21.207,14.076,33.941,14.059V64H640z" class="st25"/><path d="M654.059,97.941c8.992,9.016,21.207,14.075,33.941,14.059V64L654.059,97.941z" class="st26"/></g><polygon points="840 320 808 376 872 376 904 320" class="st18"/><polygon points="856 292 824 292 808 320 824 348 856 348 872 320" class="st0"/><polygon points="704 292 672 292 656 320 672 348 704 348 720 320" class="st0"/><circle cx="688" cy="64" r="24" class="st0"/><rect width="48" height="48" x="664" y="160" class="st0"/><rect width="48" height="48" x="816" y="160" class="st0"/><polygon points="328 496 440 496 384 464 384 464" class="st15"/><polygon points="480 496 536 464 536 400" class="st27"/><polygon points="480 496 536 464 508 448" class="st17"/><polygon points="564 448 536 464 536 400" class="st1"/><polygon points="592 496 536 464 564 448" class="st16"/><polygon points="592 496 536 496 536 464 536 464 536 464 564 480" class="st15"/><g><path d="M502.059,30.059C493.043,39.051,487.984,51.266,488,64h48V16C523.266,15.984,511.051,21.043,502.059,30.059z" class="st23"/><path d="M502.059,30.059C493.043,39.051,487.984,51.266,488,64c-0.016,12.734,5.043,24.949,14.059,33.941L536,64 L502.059,30.059z" class="st24"/><path d="M569.941,30.059C560.949,21.043,548.734,15.984,536,16v48h48C584.016,51.266,578.957,39.051,569.941,30.059z" class="st6"/><path d="M569.941,30.059L536,64l33.941,33.941C578.957,88.949,584.016,76.734,584,64 C584.016,51.266,578.957,39.051,569.941,30.059z" class="st4"/><path d="M536,64v48c12.734,0.016,24.949-5.043,33.941-14.059C578.957,88.949,584.016,76.734,584,64H536z" class="st4"/><path d="M569.941,97.941C578.957,88.949,584.016,76.734,584,64h-48L569.941,97.941z" class="st5"/><path d="M488,64c-0.016,12.734,5.043,24.949,14.059,33.941c8.992,9.016,21.207,14.076,33.941,14.059V64H488z" class="st25"/><path d="M502.059,97.941c8.992,9.016,21.207,14.075,33.941,14.059V64L502.059,97.941z" class="st26"/></g></svg>