<svg xmlns="http://www.w3.org/2000/svg" xmlns:xlink="http://www.w3.org/1999/xlink" viewBox="0 0 288 288"><defs><style>.cls-1,.cls-4,.cls-7,.cls-8{fill:none}.cls-2{clip-path:url(#clip-path)}.cls-3,.cls-9{fill:#fff}.cls-4{stroke:#e0e0e0}.cls-4,.cls-7,.cls-8,.cls-9{stroke-miterlimit:10}.cls-5{fill:#a6c8ff}.cls-6{clip-path:url(#clip-path-2)}.cls-7{stroke:#78a9ff}.cls-8,.cls-9{stroke:#d12771}</style><clipPath id="clip-path"><rect width="288" height="288" class="cls-1"/></clipPath><clipPath id="clip-path-2"><path d="M288,312a168,168,0,0,1,0-336" class="cls-1"/></clipPath></defs><title>Artboard 31</title><g id="Graphics"><g class="cls-2"><rect width="288" height="288" class="cls-3"/><line x1="24" x2="24" y2="288" class="cls-4"/><line x1="48" x2="48" y2="288" class="cls-4"/><line x1="72" x2="72" y2="288" class="cls-4"/><line x1="96" x2="96" y2="288" class="cls-4"/><line x1="120" x2="120" y2="288" class="cls-4"/><line x1="144" x2="144" y2="288" class="cls-4"/><line x1="168" x2="168" y2="288" class="cls-4"/><line x1="192" x2="192" y2="288" class="cls-4"/><line x1="288" y1="24" y2="24" class="cls-4"/><line x1="288" y1="48" y2="48" class="cls-4"/><line x1="288" y1="72" y2="72" class="cls-4"/><line x1="288" y1="96" y2="96" class="cls-4"/><line x1="288" y1="120" y2="120" class="cls-4"/><line x1="288" y1="144" y2="144" class="cls-4"/><line x1="288" y1="168" y2="168" class="cls-4"/><line x1="288" y1="192" y2="192" class="cls-4"/><line x1="288" y1="216" y2="216" class="cls-4"/><line x1="288" y1="240" y2="240" class="cls-4"/><line x1="288" y1="264" y2="264" class="cls-4"/><path d="M288,312a168,168,0,0,1,0-336" class="cls-5"/><g class="cls-6"><line x1="144" x2="144" y2="288" class="cls-7"/><line x1="168" x2="168" y2="288" class="cls-7"/><line x1="192" x2="192" y2="288" class="cls-7"/><line x1="216" x2="216" y2="288" class="cls-7"/><line x1="240" x2="240" y2="288" class="cls-7"/><line x1="264" x2="264" y2="288" class="cls-7"/><line x1="288" y1="24" y2="24" class="cls-7"/><line x1="288" y1="48" y2="48" class="cls-7"/><line x1="288" y1="72" y2="72" class="cls-7"/><line x1="288" y1="96" y2="96" class="cls-7"/><line x1="288" y1="120" y2="120" class="cls-7"/><line x1="288" y1="144" y2="144" class="cls-7"/><line x1="288" y1="168" y2="168" class="cls-7"/><line x1="288" y1="192" y2="192" class="cls-7"/><line x1="288" y1="216" y2="216" class="cls-7"/><line x1="288" y1="240" y2="240" class="cls-7"/><line x1="288" y1="264" y2="264" class="cls-7"/></g><path d="M288,312a168,168,0,0,1,0-336" class="cls-8"/><rect width="12" height="12" x="114" y="138" class="cls-9"/></g></g></svg>