<svg width="609" height="337" viewBox="0 0 609 337" fill="none" xmlns="http://www.w3.org/2000/svg">
<path d="M608.712 0.445312H0.711548V336.891H608.712V0.445312Z" fill="#FFD6E8"/>
<path d="M25.6697 222.743C67.8841 197.441 82.7341 175.028 82.7341 143.127V105.176H85.484V143.127C85.484 175.028 102.535 197.441 144.748 222.329L143.235 224.667C101.984 200.878 86.4465 176.953 84.3834 155.227H83.8334C82.1834 176.953 68.4328 200.878 27.1822 225.079L25.6697 222.743Z" fill="black"/>
<path d="M222.984 211.878H283.899V214.354H161.52V211.878H220.234V119.338H166.058V116.863H279.361V119.338H222.984V211.878Z" fill="black"/>
<path d="M300.119 170.215L299.019 167.739C322.257 158.527 332.295 149.451 334.358 136.801H300.532V134.326H334.633C334.77 133.363 334.77 132.402 334.77 131.439V116.451H315.107C311.67 121.538 307.682 126.213 303.419 130.064L301.769 128.276C309.882 120.851 315.382 112.326 319.92 102.426L322.12 103.526C320.606 107.101 318.82 110.676 316.757 113.976H361.171V116.451H337.52V131.715C337.52 132.54 337.52 133.502 337.383 134.327H364.196V136.802H337.108C336.558 139.965 335.595 142.989 334.358 145.602L334.633 145.739L335.32 145.052C335.733 144.639 336.283 144.639 337.108 145.052L364.608 161.689L363.096 163.752L335.182 146.976C334.495 146.564 334.082 146.289 333.395 147.389C327.207 157.152 317.582 162.927 300.119 170.215ZM317.995 227.416V172.277H405.173V227.416H402.423V218.891H320.745V227.416H317.995ZM402.422 174.753H320.745V193.866H402.422V174.753ZM320.745 216.279H402.422V196.341H320.745V216.279ZM371.621 112.738H416.448V158.527H371.621V112.738ZM413.698 156.052V115.213H374.371V156.052H413.698Z" fill="black"/>
<path d="M435.419 219.716C446.144 213.805 453.157 205.553 457.145 198.953L459.345 200.191C455.357 207.203 448.894 214.766 437.206 221.78L435.419 219.717V219.716ZM437.756 141.889C447.106 141.614 456.594 141.201 465.807 140.651V128.688H441.607V126.213H465.807V115.35H438.994V112.875H465.807V103.662H468.557V112.875H494.271V115.35H468.557V126.213H492.346V128.688H468.557V140.513C478.045 139.963 486.983 139.276 494.821 138.588L495.096 140.926C487.257 141.889 478.182 142.576 468.557 142.988V153.164H525.621V142.438H498.533V139.963H525.621V128.688H500.733V126.213H525.621V115.35H498.808V112.875H525.621V103.662H528.371V112.875H556.835V115.35H528.371V126.213H553.535V128.688H528.371V139.963H557.522V142.438H528.371V153.164H545.147V169.664H557.522V172.139H545.147V189.19H450.131V186.714H542.397V172.139H439.544V169.664H542.397V155.638H450.957V153.164H465.807V143.126C456.733 143.676 447.244 144.088 437.894 144.501L437.756 141.889ZM526.859 222.742V207.616L529.609 209.129V221.366C529.609 224.116 528.509 225.216 525.759 225.216H481.345C473.507 225.216 470.482 222.604 470.482 214.904V198.128H473.232V215.179C473.232 221.091 475.294 222.742 481.345 222.742H526.859ZM510.771 211.053C503.896 205.278 495.783 199.641 487.671 194.828L489.458 192.765C497.571 197.716 505.133 202.941 512.559 209.129L510.771 211.053ZM534.559 198.678C543.909 204.59 552.572 211.191 559.998 219.58L558.073 221.366C551.473 213.805 542.536 206.791 533.047 200.741L534.56 198.679L534.559 198.678Z" fill="black"/>
<g style="mix-blend-mode:multiply">
<path d="M84.13 172.454C93.6535 172.454 101.374 164.734 101.374 155.211C101.374 145.687 93.6535 137.967 84.13 137.967C74.6065 137.967 66.8862 145.687 66.8862 155.211C66.8862 164.734 74.6065 172.454 84.13 172.454Z" fill="#FA4D56"/>
</g>
<g style="mix-blend-mode:multiply">
<path d="M334.745 162.693C344.268 162.693 351.989 154.972 351.989 145.449C351.989 135.925 344.268 128.205 334.745 128.205C325.221 128.205 317.501 135.925 317.501 145.449C317.501 154.972 325.221 162.693 334.745 162.693Z" fill="#FA4D56"/>
</g>
<g style="mix-blend-mode:multiply">
<path d="M526.589 239.656C536.112 239.656 543.833 231.935 543.833 222.412C543.833 212.888 536.112 205.168 526.589 205.168C517.065 205.168 509.345 212.888 509.345 222.412C509.345 231.935 517.065 239.656 526.589 239.656Z" fill="#FA4D56"/>
</g>
<g style="mix-blend-mode:multiply">
<path d="M437.087 228.955C441.849 228.955 445.709 225.095 445.709 220.333C445.709 215.571 441.849 211.711 437.087 211.711C432.325 211.711 428.465 215.571 428.465 220.333C428.465 225.095 432.325 228.955 437.087 228.955Z" fill="#FA4D56"/>
</g>
<g style="mix-blend-mode:multiply">
<path d="M283.822 221.834C288.584 221.834 292.444 217.973 292.444 213.212C292.444 208.45 288.584 204.59 283.822 204.59C279.06 204.59 275.2 208.45 275.2 213.212C275.2 217.973 279.06 221.834 283.822 221.834Z" fill="#FA4D56"/>
</g>
<path d="M188.847 127.115H158.923V108.689H188.847" stroke="#FA4D56" stroke-width="0.944819" stroke-miterlimit="10"/>
<path d="M84.8934 180.316C95.53 201.286 113.71 216.352 139.061 230.155" stroke="#FA4D56" stroke-width="0.944819" stroke-miterlimit="10"/>
</svg>
