<svg xmlns="http://www.w3.org/2000/svg" viewBox="0 0 288 288"><g fill="none" fill-rule="evenodd"><path fill="#FFF" d="M0 0h288v288H0z"/><path d="M112.48 171H92.32v-5.04h7.056v-40.176H92.32v-5.04h20.16v5.04h-7.056v40.176h7.056V171zm33.624 0h-5.76v-37.152h5.76v6.048h.288c1.656-3.816 4.248-6.912 10.008-6.912 4.896 0 9.36 2.232 11.376 7.56h.144c1.368-4.032 4.968-7.56 11.304-7.56 7.56 0 12.096 5.184 12.096 14.184V171h-5.76v-22.824c0-6.552-2.52-10.008-8.136-10.008-4.536 0-8.712 2.304-8.712 7.056V171h-5.76v-22.824c0-6.624-2.52-10.008-7.992-10.008-4.536 0-8.856 2.304-8.856 7.056V171z" fill="#3D3D3D"/><path fill="#D12765" d="M128.104 137.88h-5.184v-20.16h5.184z"/></g></svg>