<svg id="Layer_1" data-name="Layer 1" xmlns="http://www.w3.org/2000/svg" width="928" height="522" viewBox="0 0 928 522">
  <title>chart anatomy</title>
  <g id="design">
    <g id="Dataviz-Design---Basics">
      <g id="Group-10">
        <rect id="Rectangle" width="928" height="522" fill="#fff"/>
        <g id="Layer_3" data-name="Layer 3">
          <g id="Chart-Title" style="isolation: isolate">
            <g style="isolation: isolate">
              <path d="M264.19,110.19a4.25,4.25,0,0,1-3.44-1.48,6.49,6.49,0,0,1-1.25-4.29,8.78,8.78,0,0,1,.32-2.48,4.92,4.92,0,0,1,.93-1.81A3.86,3.86,0,0,1,262.23,99a4.89,4.89,0,0,1,2-.38,4.45,4.45,0,0,1,2.44.63,4.27,4.27,0,0,1,1.54,1.88l-1.52.83a2.79,2.79,0,0,0-.89-1.27,2.81,2.81,0,0,0-3.6.41,3.72,3.72,0,0,0-.74,2.44v1.71a3.7,3.7,0,0,0,.74,2.44,2.81,2.81,0,0,0,3.67.36,3,3,0,0,0,.93-1.33l1.46.88a4.51,4.51,0,0,1-1.57,1.89A4.31,4.31,0,0,1,264.19,110.19Z" fill="#171717"/>
              <path d="M270,98.16h1.75v4.9h.08a2.64,2.64,0,0,1,.82-1.12,2.32,2.32,0,0,1,1.51-.45,2.46,2.46,0,0,1,2,.84,3.57,3.57,0,0,1,.72,2.39V110h-1.75v-5.07c0-1.29-.52-1.94-1.57-1.94a2.5,2.5,0,0,0-.66.09,2,2,0,0,0-.58.26,1.36,1.36,0,0,0-.41.45,1.28,1.28,0,0,0-.15.63V110H270Z" fill="#171717"/>
              <path d="M285.39,110a1.4,1.4,0,0,1-1.06-.39,1.85,1.85,0,0,1-.45-1h-.08a2,2,0,0,1-.88,1.18,2.82,2.82,0,0,1-1.55.4,2.74,2.74,0,0,1-2-.67,2.42,2.42,0,0,1-.7-1.81,2.14,2.14,0,0,1,.91-1.87,4.61,4.61,0,0,1,2.65-.62h1.5v-.71a1.59,1.59,0,0,0-.42-1.18,1.74,1.74,0,0,0-1.29-.42,2.1,2.1,0,0,0-1.2.32,3.09,3.09,0,0,0-.79.82l-1-1a3.42,3.42,0,0,1,1.17-1.16,3.81,3.81,0,0,1,2-.45,3.68,3.68,0,0,1,2.48.75,2.69,2.69,0,0,1,.86,2.16v4.18h.88V110Zm-3.52-1.14a2.33,2.33,0,0,0,1.34-.36,1.12,1.12,0,0,0,.53-1v-1.2h-1.47c-1.21,0-1.81.37-1.81,1.12v.28a.94.94,0,0,0,.38.84A1.66,1.66,0,0,0,281.87,108.86Z" fill="#171717"/>
              <path d="M288.08,110v-8.32h1.74v1.6h.08a2.26,2.26,0,0,1,.73-1.12,2.35,2.35,0,0,1,1.56-.48h.46v1.68H292a3,3,0,0,0-1.59.34,1.07,1.07,0,0,0-.55,1V110Z" fill="#171717"/>
              <path d="M296.57,110a1.64,1.64,0,0,1-1.84-1.81V103.1h-1.29v-1.42h.7a.76.76,0,0,0,.6-.19,1,1,0,0,0,.17-.63V99.41h1.57v2.27h1.74v1.42h-1.74v5.48h1.61V110Z" fill="#171717"/>
              <path d="M308.16,100.43V110h-1.81v-9.57H303v-1.6h8.46v1.6Z" fill="#171717"/>
              <path d="M314,100.19a1.08,1.08,0,0,1-.8-.25.92.92,0,0,1-.24-.66V99a.92.92,0,0,1,.24-.66,1.08,1.08,0,0,1,.8-.25,1,1,0,0,1,.78.25A.92.92,0,0,1,315,99v.27a.92.92,0,0,1-.24.66A1,1,0,0,1,314,100.19Zm-.88,1.49h1.74V110h-1.74Z" fill="#171717"/>
              <path d="M319.66,110a1.87,1.87,0,0,1-1.38-.47,1.83,1.83,0,0,1-.46-1.34V103.1h-1.3v-1.42h.71a.76.76,0,0,0,.6-.19,1,1,0,0,0,.17-.63V99.41h1.56v2.27h1.75v1.42h-1.75v5.48h1.62V110Z" fill="#171717"/>
              <path d="M325,110a1.73,1.73,0,0,1-1.33-.46,1.71,1.71,0,0,1-.44-1.27V98.16h1.74v10.42h1.15V110Z" fill="#171717"/>
              <path d="M331,110.19a4,4,0,0,1-1.6-.3,3.37,3.37,0,0,1-1.2-.87,3.84,3.84,0,0,1-.76-1.38,6.36,6.36,0,0,1,0-3.6,3.84,3.84,0,0,1,.76-1.38,3.5,3.5,0,0,1,1.2-.87,4,4,0,0,1,1.6-.3,3.73,3.73,0,0,1,1.61.32,3.19,3.19,0,0,1,1.16.89,3.7,3.7,0,0,1,.69,1.32,5.27,5.27,0,0,1,.23,1.61v.66H329v.27a2.19,2.19,0,0,0,.57,1.56,2.11,2.11,0,0,0,1.63.62,2.38,2.38,0,0,0,1.29-.34,3,3,0,0,0,.9-.9l1,1a3.31,3.31,0,0,1-1.34,1.22A4.33,4.33,0,0,1,331,110.19Zm0-7.34a2,2,0,0,0-.82.16,1.76,1.76,0,0,0-.65.45,2,2,0,0,0-.4.68,2.5,2.5,0,0,0-.15.88v.12h3.88V105a2.33,2.33,0,0,0-.5-1.55A1.69,1.69,0,0,0,331,102.85Z" fill="#171717"/>
            </g>
          </g>
          <g id="_0" data-name="0" style="isolation: isolate">
            <g style="isolation: isolate">
              <path d="M301.66,355.68a2.75,2.75,0,0,1-1.33-.3,2.43,2.43,0,0,1-.91-.84,3.9,3.9,0,0,1-.52-1.36,8.38,8.38,0,0,1-.17-1.83,8.5,8.5,0,0,1,.17-1.83,3.83,3.83,0,0,1,.52-1.36,2.46,2.46,0,0,1,.91-.85,3.17,3.17,0,0,1,2.65,0,2.46,2.46,0,0,1,.91.85,4,4,0,0,1,.53,1.36,9.23,9.23,0,0,1,.16,1.83,9.1,9.1,0,0,1-.16,1.83,4.11,4.11,0,0,1-.53,1.36,2.43,2.43,0,0,1-.91.84A2.74,2.74,0,0,1,301.66,355.68Zm0-.88a1.79,1.79,0,0,0,.86-.19,1.64,1.64,0,0,0,.58-.56,2.63,2.63,0,0,0,.33-.87,5.68,5.68,0,0,0,.11-1.15v-1.37a5.8,5.8,0,0,0-.11-1.14,2.63,2.63,0,0,0-.33-.87,1.56,1.56,0,0,0-.58-.56,2,2,0,0,0-1.73,0,1.56,1.56,0,0,0-.58.56,2.63,2.63,0,0,0-.33.87,5.8,5.8,0,0,0-.11,1.14V352a5.68,5.68,0,0,0,.11,1.15,2.63,2.63,0,0,0,.33.87,1.64,1.64,0,0,0,.58.56A1.8,1.8,0,0,0,301.66,354.8Zm0-2.75a.83.83,0,0,1-.59-.16.6.6,0,0,1-.16-.41v-.27a.59.59,0,0,1,.16-.4.83.83,0,0,1,.59-.17.8.8,0,0,1,.58.17.55.55,0,0,1,.16.4v.27a.56.56,0,0,1-.16.41A.81.81,0,0,1,301.66,352.05Z" fill="#6f6f6f"/>
            </g>
          </g>
          <g id="_25" data-name="25" style="isolation: isolate">
            <g style="isolation: isolate">
              <path d="M297.5,302.1h-5.59v-1l2.79-2.52a6.17,6.17,0,0,0,1-1.14,2.12,2.12,0,0,0,.4-1.23V296a1.58,1.58,0,0,0-.4-1.17,1.52,1.52,0,0,0-1.17-.42,1.67,1.67,0,0,0-1.19.39,2.38,2.38,0,0,0-.61,1l-.91-.33a3.7,3.7,0,0,1,.34-.73,2.28,2.28,0,0,1,.53-.63,2.61,2.61,0,0,1,.79-.44,2.9,2.9,0,0,1,1.07-.17,3.15,3.15,0,0,1,1.11.18,2.41,2.41,0,0,1,.82.5,2.23,2.23,0,0,1,.5.77,2.78,2.78,0,0,1,.17,1,2.92,2.92,0,0,1-.13.9,3.77,3.77,0,0,1-.39.81,5.52,5.52,0,0,1-.59.75,8.85,8.85,0,0,1-.76.72l-2.34,2h4.55Z" fill="#6f6f6f"/>
              <path d="M304.27,294.6h-3.75l-.24,3.2h.09a2.53,2.53,0,0,1,.69-.66,1.91,1.91,0,0,1,1.06-.25,3,3,0,0,1,1,.17,2.29,2.29,0,0,1,.8.51,2.64,2.64,0,0,1,.53.81,2.86,2.86,0,0,1,.19,1.09,3.1,3.1,0,0,1-.19,1.12,2.6,2.6,0,0,1-.56.88,2.77,2.77,0,0,1-.9.57,3.53,3.53,0,0,1-1.21.2,3.4,3.4,0,0,1-.94-.12,3,3,0,0,1-.73-.32,3.2,3.2,0,0,1-.56-.46,4.33,4.33,0,0,1-.43-.53l.76-.57a3.31,3.31,0,0,0,.34.45,1.72,1.72,0,0,0,.4.36,1.75,1.75,0,0,0,.52.23,2.22,2.22,0,0,0,.67.09,1.62,1.62,0,0,0,1.79-1.77v-.09a1.75,1.75,0,0,0-.47-1.3,1.83,1.83,0,0,0-1.35-.47,1.73,1.73,0,0,0-.93.21,2.58,2.58,0,0,0-.6.5l-.85-.12.3-4.61h4.56Z" fill="#6f6f6f"/>
            </g>
          </g>
          <g id="_50" data-name="50" style="isolation: isolate">
            <g style="isolation: isolate">
              <path d="M297.07,241.16h-3.75l-.24,3.21h.09a2.56,2.56,0,0,1,.69-.67,2,2,0,0,1,1.06-.25,2.75,2.75,0,0,1,1,.18,2,2,0,0,1,.8.51,2.28,2.28,0,0,1,.53.81,2.78,2.78,0,0,1,.19,1.08,3.15,3.15,0,0,1-.19,1.13,2.46,2.46,0,0,1-.56.87,2.61,2.61,0,0,1-.9.57,3.29,3.29,0,0,1-1.2.2,3.87,3.87,0,0,1-1-.11,2.71,2.71,0,0,1-.73-.33,3.15,3.15,0,0,1-.56-.45,5.25,5.25,0,0,1-.43-.53l.76-.58a4.22,4.22,0,0,0,.34.46,2.23,2.23,0,0,0,.4.35,1.75,1.75,0,0,0,.52.23,2.22,2.22,0,0,0,.67.09,1.62,1.62,0,0,0,1.79-1.76v-.1a1.77,1.77,0,0,0-.47-1.3,1.82,1.82,0,0,0-1.34-.47,1.71,1.71,0,0,0-.93.21,2.67,2.67,0,0,0-.61.5l-.85-.12.3-4.6h4.56Z" fill="#6f6f6f"/>
              <path d="M301.85,248.8a2.74,2.74,0,0,1-1.32-.29,2.52,2.52,0,0,1-.91-.84,4.2,4.2,0,0,1-.53-1.36,10.6,10.6,0,0,1,0-3.67,4.11,4.11,0,0,1,.53-1.36,2.43,2.43,0,0,1,.91-.84,2.74,2.74,0,0,1,1.32-.3,2.68,2.68,0,0,1,1.32.3,2.39,2.39,0,0,1,.92.84,3.9,3.9,0,0,1,.52,1.36,10,10,0,0,1,0,3.67,4,4,0,0,1-.52,1.36,2.47,2.47,0,0,1-.92.84A2.68,2.68,0,0,1,301.85,248.8Zm0-.87a1.8,1.8,0,0,0,.87-.2,1.56,1.56,0,0,0,.58-.56,2.63,2.63,0,0,0,.33-.87,5.65,5.65,0,0,0,.11-1.14v-1.37a5.65,5.65,0,0,0-.11-1.14,2.69,2.69,0,0,0-.33-.88,1.64,1.64,0,0,0-.58-.56,2.06,2.06,0,0,0-1.73,0,1.64,1.64,0,0,0-.58.56,2.69,2.69,0,0,0-.33.88,5.65,5.65,0,0,0-.11,1.14v1.37a5.65,5.65,0,0,0,.11,1.14,2.63,2.63,0,0,0,.33.87,1.56,1.56,0,0,0,.58.56A1.79,1.79,0,0,0,301.85,247.93Zm0-2.75a.8.8,0,0,1-.58-.17.58.58,0,0,1-.16-.4v-.27a.6.6,0,0,1,.16-.41.8.8,0,0,1,.58-.17.83.83,0,0,1,.59.17.6.6,0,0,1,.16.41v.27a.58.58,0,0,1-.16.4A.83.83,0,0,1,301.85,245.18Z" fill="#6f6f6f"/>
            </g>
          </g>
          <g id="_75" data-name="75" style="isolation: isolate">
            <g style="isolation: isolate">
              <path d="M293.13,195.22l3.28-7.5h-3.67v1.56h-.91v-2.43h5.6v.89l-3.22,7.48Z" fill="#6f6f6f"/>
              <path d="M304.27,187.72h-3.75l-.24,3.21h.09a2.73,2.73,0,0,1,.69-.67,2,2,0,0,1,1.06-.24,2.75,2.75,0,0,1,1,.17,2.29,2.29,0,0,1,.8.51,2.42,2.42,0,0,1,.53.81,2.86,2.86,0,0,1,.19,1.09,3.14,3.14,0,0,1-.19,1.12,2.44,2.44,0,0,1-1.46,1.44,3.3,3.3,0,0,1-1.21.21,3.4,3.4,0,0,1-.94-.12,2.71,2.71,0,0,1-.73-.33,2.76,2.76,0,0,1-.56-.45,5.25,5.25,0,0,1-.43-.53l.76-.58a4.22,4.22,0,0,0,.34.46,1.68,1.68,0,0,0,.4.35,2.07,2.07,0,0,0,.52.24,2.62,2.62,0,0,0,.67.08,1.76,1.76,0,0,0,1.33-.47,1.78,1.78,0,0,0,.46-1.29v-.1a1.75,1.75,0,0,0-.47-1.29,1.79,1.79,0,0,0-1.35-.47,1.84,1.84,0,0,0-.93.2,2.9,2.9,0,0,0-.6.51l-.85-.12.3-4.61h4.56Z" fill="#6f6f6f"/>
            </g>
          </g>
          <g id="_100" data-name="100" style="isolation: isolate">
            <g style="isolation: isolate">
              <path d="M285.08,141.79v-.88h2.4v-6.75h-.09l-2.11,2-.59-.63,2.22-2.08h1.57v7.5h2.21v.88Z" fill="#6f6f6f"/>
              <path d="M294.85,141.93a2.86,2.86,0,0,1-1.32-.29,2.55,2.55,0,0,1-.91-.85,4.14,4.14,0,0,1-.53-1.35,10.6,10.6,0,0,1,0-3.67,4.11,4.11,0,0,1,.53-1.36,2.55,2.55,0,0,1,.91-.85,2.86,2.86,0,0,1,1.32-.29,2.8,2.8,0,0,1,1.32.29,2.49,2.49,0,0,1,.92.85,3.9,3.9,0,0,1,.52,1.36,10,10,0,0,1,0,3.67,3.92,3.92,0,0,1-.52,1.35,2.49,2.49,0,0,1-.92.85A2.8,2.8,0,0,1,294.85,141.93Zm0-.88a1.8,1.8,0,0,0,.87-.19,1.56,1.56,0,0,0,.58-.56,2.63,2.63,0,0,0,.33-.87,5.68,5.68,0,0,0,.11-1.15v-1.36a5.65,5.65,0,0,0-.11-1.14,2.61,2.61,0,0,0-.33-.88,1.56,1.56,0,0,0-.58-.56,2,2,0,0,0-1.73,0,1.56,1.56,0,0,0-.58.56,2.61,2.61,0,0,0-.33.88,5.65,5.65,0,0,0-.11,1.14v1.36a5.68,5.68,0,0,0,.11,1.15,2.63,2.63,0,0,0,.33.87,1.56,1.56,0,0,0,.58.56A1.79,1.79,0,0,0,294.85,141.05Zm0-2.74a.8.8,0,0,1-.58-.17.6.6,0,0,1-.16-.41v-.26a.6.6,0,0,1,.16-.41.8.8,0,0,1,.58-.17.83.83,0,0,1,.59.17.6.6,0,0,1,.16.41v.26a.6.6,0,0,1-.16.41A.83.83,0,0,1,294.85,138.31Z" fill="#6f6f6f"/>
              <path d="M302.06,141.93a2.87,2.87,0,0,1-1.33-.29,2.55,2.55,0,0,1-.91-.85,4.14,4.14,0,0,1-.53-1.35,10.6,10.6,0,0,1,0-3.67,4.11,4.11,0,0,1,.53-1.36,2.55,2.55,0,0,1,.91-.85,3.17,3.17,0,0,1,2.65,0,2.55,2.55,0,0,1,.91.85,3.9,3.9,0,0,1,.52,1.36,10,10,0,0,1,0,3.67,3.92,3.92,0,0,1-.52,1.35,2.55,2.55,0,0,1-.91.85A2.86,2.86,0,0,1,302.06,141.93Zm0-.88a1.79,1.79,0,0,0,.86-.19,1.56,1.56,0,0,0,.58-.56,2.63,2.63,0,0,0,.33-.87,5.68,5.68,0,0,0,.11-1.15v-1.36a5.65,5.65,0,0,0-.11-1.14,2.61,2.61,0,0,0-.33-.88,1.56,1.56,0,0,0-.58-.56,2,2,0,0,0-1.73,0,1.56,1.56,0,0,0-.58.56,2.61,2.61,0,0,0-.33.88,5.65,5.65,0,0,0-.11,1.14v1.36a5.68,5.68,0,0,0,.11,1.15,2.63,2.63,0,0,0,.33.87,1.56,1.56,0,0,0,.58.56A1.8,1.8,0,0,0,302.06,141.05Zm0-2.74a.81.81,0,0,1-.59-.17.6.6,0,0,1-.16-.41v-.26a.6.6,0,0,1,.16-.41,1.09,1.09,0,0,1,1.17,0,.56.56,0,0,1,.16.41v.26a.56.56,0,0,1-.16.41A.82.82,0,0,1,302.06,138.31Z" fill="#6f6f6f"/>
            </g>
          </g>
          <g id="Y-axis-name" style="isolation: isolate">
            <g style="isolation: isolate">
              <path d="M263,276.28v-1.36l4.14-2.47L263,270V268.6l5.14,3.26h3.47V273h-3.47Z" fill="#171717"/>
              <path d="M267.76,261.27a.56.56,0,0,0-.3-.49.92.92,0,0,0-.41-.07.89.89,0,0,0-.79.38,2.09,2.09,0,0,0-.24,1.1,1.39,1.39,0,0,0,.45,1.17,1.45,1.45,0,0,0,.73.25v1a1.84,1.84,0,0,1-1.62-.75,3.09,3.09,0,0,1-.45-1.67,3.43,3.43,0,0,1,.42-1.8,1.43,1.43,0,0,1,1.31-.69h3.62a.48.48,0,0,0,.26-.06c.07-.05.1-.14.1-.29a1,1,0,0,0,0-.16,1.24,1.24,0,0,0,0-.18h.78a3.74,3.74,0,0,1,.08.37,1.73,1.73,0,0,1,0,.35.87.87,0,0,1-.38.79,1.52,1.52,0,0,1-.58.19,2.68,2.68,0,0,1,.73.92,2.83,2.83,0,0,1,.31,1.33,2,2,0,0,1-.53,1.43,1.76,1.76,0,0,1-1.33.55,1.71,1.71,0,0,1-1.35-.54A2.58,2.58,0,0,1,268,263Zm2.85,2.22a1.29,1.29,0,0,0,.26-.79,2.27,2.27,0,0,0-.26-1.08,1.44,1.44,0,0,0-1.39-.88h-.85a1.68,1.68,0,0,1,.2.5,3.25,3.25,0,0,1,.12.59l.08.64a2.41,2.41,0,0,0,.24.86.94.94,0,0,0,.88.49A.88.88,0,0,0,270.61,263.49Z" fill="#171717"/>
              <path d="M265.28,258.55v-1.36l2.21-1.44-2.21-1.46,0-1.29,3,2.12,3.22-2.21v1.35l-2.36,1.56,2.36,1.51v1.33l-3.22-2.2Z" fill="#171717"/>
              <path d="M263,252v-1.08h1.2V252Zm2.36,0v-1.08h6.25V252Z" fill="#171717"/>
              <path d="M269.59,248.66a1.49,1.49,0,0,0,.81-.27,1.7,1.7,0,0,0,.51-1.41,2.1,2.1,0,0,0-.26-1,.85.85,0,0,0-.79-.46.67.67,0,0,0-.61.37,3.89,3.89,0,0,0-.3.91l-.21.86a4,4,0,0,1-.45,1.2,1.32,1.32,0,0,1-1.18.69,1.81,1.81,0,0,1-1.44-.65,2.6,2.6,0,0,1-.55-1.75A2.44,2.44,0,0,1,266,245a1.75,1.75,0,0,1,1.14-.39v1a1.2,1.2,0,0,0-.65.26,1.64,1.64,0,0,0-.41,1.29,1.58,1.58,0,0,0,.22.92.73.73,0,0,0,1.26-.1,2.59,2.59,0,0,0,.26-.7l.17-.71a5.5,5.5,0,0,1,.53-1.55,1.41,1.41,0,0,1,1.27-.62,1.94,1.94,0,0,1,1.45.65,2.77,2.77,0,0,1,.61,2,2.61,2.61,0,0,1-.64,2,2.37,2.37,0,0,1-1.57.64Z" fill="#171717"/>
              <path d="M265.28,240v-1h.89a2.83,2.83,0,0,1-.79-.94,2.51,2.51,0,0,1-.24-1.11,1.82,1.82,0,0,1,.93-1.8,3.35,3.35,0,0,1,1.46-.26h4v1.07h-4a2.16,2.16,0,0,0-.92.17,1,1,0,0,0-.59,1,2.12,2.12,0,0,0,.08.62,1.52,1.52,0,0,0,.51.76,1.6,1.6,0,0,0,.64.34,4.52,4.52,0,0,0,.95.08h3.29V240Z" fill="#171717"/>
              <path d="M267.76,229.92a.58.58,0,0,0-.3-.49.92.92,0,0,0-.41-.07.89.89,0,0,0-.79.38,2.11,2.11,0,0,0-.24,1.1,1.39,1.39,0,0,0,.45,1.17,1.45,1.45,0,0,0,.73.25v1a1.82,1.82,0,0,1-1.62-.76,3.09,3.09,0,0,1-.45-1.67,3.43,3.43,0,0,1,.42-1.8,1.42,1.42,0,0,1,1.31-.68h3.62a.47.47,0,0,0,.26-.07c.07-.05.1-.14.1-.29a.81.81,0,0,0,0-.15,1.37,1.37,0,0,0,0-.19h.78a3.74,3.74,0,0,1,.08.37,1.84,1.84,0,0,1,0,.36.89.89,0,0,1-.38.79,1.73,1.73,0,0,1-.58.18,2.68,2.68,0,0,1,.73.92,2.86,2.86,0,0,1,.31,1.33,2,2,0,0,1-.53,1.43,1.76,1.76,0,0,1-1.33.55,1.71,1.71,0,0,1-1.35-.54,2.55,2.55,0,0,1-.59-1.43Zm2.85,2.22a1.27,1.27,0,0,0,.26-.79,2.32,2.32,0,0,0-.26-1.08,1.44,1.44,0,0,0-1.39-.88h-.85a1.68,1.68,0,0,1,.2.5,3.25,3.25,0,0,1,.12.59l.08.64a2.41,2.41,0,0,0,.24.86.94.94,0,0,0,.88.49A.88.88,0,0,0,270.61,232.14Z" fill="#171717"/>
              <path d="M265.28,226.61v-1.05h.89a3.24,3.24,0,0,1-.67-.68,2,2,0,0,1-.36-1.18,1.86,1.86,0,0,1,.37-1.21,2,2,0,0,1,.62-.46,2.45,2.45,0,0,1-.75-.83,2.34,2.34,0,0,1-.24-1.07,1.74,1.74,0,0,1,.92-1.72,3,3,0,0,1,1.32-.25h4.18v1.1H267.2a1,1,0,0,0-.86.31,1.24,1.24,0,0,0-.24.77,1.52,1.52,0,0,0,.42,1.07,1.83,1.83,0,0,0,1.39.45h3.65v1.07h-4.1a2.18,2.18,0,0,0-.93.15.94.94,0,0,0-.44.9,1.55,1.55,0,0,0,.46,1.08,2.26,2.26,0,0,0,1.68.49h3.33v1.06Z" fill="#171717"/>
              <path d="M265.46,212.74a2.18,2.18,0,0,1,.81-1,2.75,2.75,0,0,1,1.1-.42,6.6,6.6,0,0,1,1.39-.1v4.57a2.67,2.67,0,0,0,1.53-.45,1.49,1.49,0,0,0,.58-1.3,1.64,1.64,0,0,0-.55-1.3,1.67,1.67,0,0,0-.73-.39v-1a2.3,2.3,0,0,1,.77.27,3,3,0,0,1,.69.52,2.39,2.39,0,0,1,.64,1.18,3.72,3.72,0,0,1,.09.86,2.61,2.61,0,0,1-.85,2,3.34,3.34,0,0,1-2.39.81,3.6,3.6,0,0,1-2.46-.82,2.7,2.7,0,0,1-.94-2.13A2.79,2.79,0,0,1,265.46,212.74Zm2.46-.38a2.84,2.84,0,0,0-1.1.29,1.54,1.54,0,0,0-.76,1.44,1.6,1.6,0,0,0,.53,1.21,2,2,0,0,0,1.33.51Z" fill="#171717"/>
            </g>
          </g>
          <g id="Series-name" style="isolation: isolate">
            <g style="isolation: isolate">
              <path d="M333.05,426.2a3.15,3.15,0,0,1-1.57-.38,3.21,3.21,0,0,1-1.12-1.05l.7-.58a2.86,2.86,0,0,0,.86.87,2,2,0,0,0,1.13.31c1.13,0,1.7-.53,1.7-1.6a1.37,1.37,0,0,0-.31-1,2.17,2.17,0,0,0-1.08-.53l-.62-.16a3.32,3.32,0,0,1-1.63-.81,2,2,0,0,1-.52-1.5,2.06,2.06,0,0,1,.69-1.69,2.84,2.84,0,0,1,1.85-.57,3,3,0,0,1,1.47.33,2.81,2.81,0,0,1,1,1l-.71.5a2.25,2.25,0,0,0-.74-.76,2,2,0,0,0-1.09-.26,1.72,1.72,0,0,0-1.17.34,1.34,1.34,0,0,0-.41,1.09,1.2,1.2,0,0,0,.33.92,2.48,2.48,0,0,0,1.07.5l.62.15a5.81,5.81,0,0,1,1,.34,2.11,2.11,0,0,1,.66.49,1.67,1.67,0,0,1,.37.68,3.06,3.06,0,0,1,.12.9,2.31,2.31,0,0,1-.7,1.81A2.86,2.86,0,0,1,333.05,426.2Z" fill="#6f6f6f"/>
              <path d="M339.24,426.2a2.79,2.79,0,0,1-1-.18,1.9,1.9,0,0,1-.8-.58,2.76,2.76,0,0,1-.53-1,5.82,5.82,0,0,1,0-2.95,2.84,2.84,0,0,1,.53-1,2,2,0,0,1,.8-.57,2.79,2.79,0,0,1,1-.18,2.64,2.64,0,0,1,1,.18,1.84,1.84,0,0,1,.76.57,3,3,0,0,1,.49,1,5.74,5.74,0,0,1,.17,1.48v.22h-4v.4a2,2,0,0,0,.41,1.36,1.49,1.49,0,0,0,1.15.45,1.76,1.76,0,0,0,1-.27,1.79,1.79,0,0,0,.62-.81l.63.46a2.52,2.52,0,0,1-.85,1A2.41,2.41,0,0,1,339.24,426.2Zm0-5.72a1.44,1.44,0,0,0-1.15.47,2,2,0,0,0-.41,1.38v.16h3v-.16C340.68,421.1,340.2,420.48,339.24,420.48Z" fill="#6f6f6f"/>
              <path d="M343.07,426.05v-6.19H344V421h.12a1.59,1.59,0,0,1,.53-.84,1.52,1.52,0,0,1,1-.31H346v.93h-.6a1.6,1.6,0,0,0-1,.28,1,1,0,0,0-.37.87v4.11Z" fill="#6f6f6f"/>
              <path d="M347.51,418.36c-.38,0-.57-.16-.57-.49v-.19c0-.33.19-.5.57-.5s.56.17.56.5v.19C348.07,418.2,347.88,418.36,347.51,418.36Zm-.46,1.5H348v6.19h-.91Z" fill="#6f6f6f"/>
              <path d="M351.9,426.2a2.79,2.79,0,0,1-1-.18,1.9,1.9,0,0,1-.8-.58,2.76,2.76,0,0,1-.53-1,5.82,5.82,0,0,1,0-2.95,2.84,2.84,0,0,1,.53-1,2,2,0,0,1,.8-.57,2.79,2.79,0,0,1,1-.18,2.64,2.64,0,0,1,1,.18,1.84,1.84,0,0,1,.76.57,3,3,0,0,1,.49,1,5.74,5.74,0,0,1,.17,1.48v.22h-4v.4a2,2,0,0,0,.41,1.36,1.49,1.49,0,0,0,1.15.45,1.6,1.6,0,0,0,1.64-1.08l.63.46a2.6,2.6,0,0,1-.85,1A2.43,2.43,0,0,1,351.9,426.2Zm0-5.72a1.44,1.44,0,0,0-1.15.47,2,2,0,0,0-.41,1.38v.16h3v-.16C353.34,421.1,352.86,420.48,351.9,420.48Z" fill="#6f6f6f"/>
              <path d="M357.44,426.2a2.57,2.57,0,0,1-1.31-.32,2.81,2.81,0,0,1-.93-.86l.63-.53a2.61,2.61,0,0,0,.71.7,1.63,1.63,0,0,0,.9.24,1.28,1.28,0,0,0,.86-.27,1,1,0,0,0,.32-.78,1.06,1.06,0,0,0-.2-.66,1.25,1.25,0,0,0-.76-.34l-.47-.09a2.78,2.78,0,0,1-1.34-.56,1.56,1.56,0,0,1-.43-1.2,2,2,0,0,1,.14-.81,1.49,1.49,0,0,1,.41-.57,1.7,1.7,0,0,1,.63-.32,2.87,2.87,0,0,1,.8-.1,2.6,2.6,0,0,1,1.17.24,2.54,2.54,0,0,1,.82.72l-.59.54a2.2,2.2,0,0,0-.54-.51,1.5,1.5,0,0,0-.86-.22c-.73,0-1.1.33-1.1,1a.84.84,0,0,0,.24.67,1.5,1.5,0,0,0,.76.3l.47.09a2.36,2.36,0,0,1,1.34.59,1.57,1.57,0,0,1,.4,1.14,1.91,1.91,0,0,1-.52,1.41A2.15,2.15,0,0,1,357.44,426.2Z" fill="#6f6f6f"/>
              <path d="M363.54,426.05v-6.19h.91v1h.12a1.72,1.72,0,0,1,.56-.87,1.66,1.66,0,0,1,1-.28,1.63,1.63,0,0,1,1.3.56,2.72,2.72,0,0,1,.47,1.74v4H367v-4a1.8,1.8,0,0,0-.31-1.14,1.11,1.11,0,0,0-.94-.4,1.41,1.41,0,0,0-.94.34,1.21,1.21,0,0,0-.38.95v4.22Z" fill="#6f6f6f"/>
              <path d="M373.61,426.05a.79.79,0,0,1-.89-.89V425h-.12a1.49,1.49,0,0,1-.57.87,1.66,1.66,0,0,1-1,.3,1.8,1.8,0,0,1-1.34-.46,1.82,1.82,0,0,1-.45-1.34,1.72,1.72,0,0,1,.57-1.37,2.61,2.61,0,0,1,1.78-.51h1.12v-.68a1.4,1.4,0,0,0-.31-1,1.28,1.28,0,0,0-1-.32,1.52,1.52,0,0,0-.87.23,2,2,0,0,0-.57.68l-.54-.5a2,2,0,0,1,.77-.85,2.2,2.2,0,0,1,1.24-.34,2.24,2.24,0,0,1,1.6.51,1.94,1.94,0,0,1,.55,1.51v3.5h.62v.8Zm-2.34-.66a1.57,1.57,0,0,0,.58-.1,1.64,1.64,0,0,0,.46-.29,1.14,1.14,0,0,0,.3-.39,1.07,1.07,0,0,0,.11-.46v-.93h-1.14a1.81,1.81,0,0,0-1.05.24.8.8,0,0,0-.33.69v.34a.78.78,0,0,0,.29.68A1.23,1.23,0,0,0,371.27,425.39Z" fill="#6f6f6f"/>
              <path d="M375.49,426.05v-6.19h.91v1h.12a1.82,1.82,0,0,1,.53-.87,1.52,1.52,0,0,1,1-.28,1.61,1.61,0,0,1,1,.28,1.74,1.74,0,0,1,.61.87h.12a1.71,1.71,0,0,1,.6-.87,1.84,1.84,0,0,1,1.08-.28,1.6,1.6,0,0,1,1.27.56,2.66,2.66,0,0,1,.48,1.74v4h-.91v-4a1.86,1.86,0,0,0-.3-1.14,1,1,0,0,0-.9-.4,1.33,1.33,0,0,0-.91.34,1.23,1.23,0,0,0-.36.95v4.22h-.91v-4a1.86,1.86,0,0,0-.3-1.14,1.08,1.08,0,0,0-.91-.4,1.31,1.31,0,0,0-.9.34,1.23,1.23,0,0,0-.37.95v4.22Z" fill="#6f6f6f"/>
              <path d="M387.05,426.2a2.79,2.79,0,0,1-1-.18,1.9,1.9,0,0,1-.8-.58,2.62,2.62,0,0,1-.53-1,5.82,5.82,0,0,1,0-2.95,2.69,2.69,0,0,1,.53-1,2,2,0,0,1,.8-.57,2.79,2.79,0,0,1,1-.18,2.64,2.64,0,0,1,1,.18,1.84,1.84,0,0,1,.76.57,3,3,0,0,1,.49,1,5.74,5.74,0,0,1,.17,1.48v.22h-4v.4a1.93,1.93,0,0,0,.41,1.36,1.49,1.49,0,0,0,1.15.45,1.6,1.6,0,0,0,1.64-1.08l.63.46a2.6,2.6,0,0,1-.85,1A2.43,2.43,0,0,1,387.05,426.2Zm0-5.72a1.44,1.44,0,0,0-1.15.47,2,2,0,0,0-.41,1.38v.16h3v-.16C388.49,421.1,388,420.48,387.05,420.48Z" fill="#6f6f6f"/>
            </g>
          </g>
          <g id="A" style="isolation: isolate">
            <g style="isolation: isolate">
              <path d="M317.12,373l-.71-2.39h-2.94l-.71,2.39h-1l2.56-8.38h1.34l2.56,8.38ZM315,365.69h-.11l-1.17,4h2.46Z" fill="#6f6f6f"/>
            </g>
          </g>
          <g id="B" style="isolation: isolate">
            <g style="isolation: isolate">
              <path d="M370.79,364.62h2.84a2.33,2.33,0,0,1,1.69.59,2.06,2.06,0,0,1,.62,1.57,1.82,1.82,0,0,1-.37,1.19,2,2,0,0,1-.94.61v0a2.31,2.31,0,0,1,1.16.63,1.78,1.78,0,0,1,.46,1.33,2.67,2.67,0,0,1-.17.95,2.31,2.31,0,0,1-.47.77,2.22,2.22,0,0,1-1.62.7h-3.2Zm2.73,3.64a1.57,1.57,0,0,0,1-.29,1,1,0,0,0,.36-.85v-.47a1.05,1.05,0,0,0-.36-.87,1.57,1.57,0,0,0-1-.28H371.8v2.76Zm.17,3.86a1.68,1.68,0,0,0,1.09-.31,1.14,1.14,0,0,0,.4-1v-.49a1.14,1.14,0,0,0-.4-1,1.69,1.69,0,0,0-1.09-.32H371.8v3Z" fill="#6f6f6f"/>
            </g>
          </g>
          <g id="C" style="isolation: isolate">
            <g style="isolation: isolate">
              <path d="M432,373.14a2.56,2.56,0,0,1-2.29-1.12,5.73,5.73,0,0,1-.75-3.21,5.79,5.79,0,0,1,.75-3.22,2.57,2.57,0,0,1,2.29-1.11,3,3,0,0,1,1,.15,2.53,2.53,0,0,1,.72.42,2.9,2.9,0,0,1,.51.6q.19.33.36.66l-.87.4a2.78,2.78,0,0,0-.25-.52,1.85,1.85,0,0,0-.34-.44,1.49,1.49,0,0,0-.47-.29,1.8,1.8,0,0,0-.65-.11,1.62,1.62,0,0,0-1.48.76,3.6,3.6,0,0,0-.49,2v1.37a3.66,3.66,0,0,0,.49,2,1.63,1.63,0,0,0,1.48.75,1.81,1.81,0,0,0,.65-.1,1.51,1.51,0,0,0,.47-.3,1.79,1.79,0,0,0,.34-.43,3.11,3.11,0,0,0,.25-.52l.87.39a7.3,7.3,0,0,1-.36.68,2.8,2.8,0,0,1-.51.58,2.14,2.14,0,0,1-.72.42A2.71,2.71,0,0,1,432,373.14Z" fill="#6f6f6f"/>
            </g>
          </g>
          <g id="D" style="isolation: isolate">
            <g style="isolation: isolate">
              <path d="M487.65,364.62H490a2.62,2.62,0,0,1,2.29,1.06,6.83,6.83,0,0,1,0,6.26A2.64,2.64,0,0,1,490,373h-2.34Zm2.29,7.5a1.76,1.76,0,0,0,1.52-.7,3.27,3.27,0,0,0,.51-2v-1.3a3.3,3.3,0,0,0-.51-2,1.77,1.77,0,0,0-1.52-.69h-1.28v6.62Z" fill="#6f6f6f"/>
            </g>
          </g>
          <g id="E" style="isolation: isolate">
            <g style="isolation: isolate">
              <path d="M546,373v-8.38h5.16v.88H547v2.82h4v.87h-4v2.93h4.15V373Z" fill="#6f6f6f"/>
            </g>
          </g>
          <g id="F" style="isolation: isolate">
            <g style="isolation: isolate">
              <path d="M604.37,373v-8.38h5.28v.88h-4.27v2.82h3.91v.87h-3.91V373Z" fill="#6f6f6f"/>
            </g>
          </g>
          <g id="G" style="isolation: isolate">
            <g style="isolation: isolate">
              <path d="M667,371.88h0a4.31,4.31,0,0,1-.26.47,1.7,1.7,0,0,1-.36.4,1.72,1.72,0,0,1-.54.28,2.31,2.31,0,0,1-.74.11,2.24,2.24,0,0,1-2-1.1,6.26,6.26,0,0,1-.66-3.17,6,6,0,0,1,.73-3.28,2.52,2.52,0,0,1,2.26-1.11,3.13,3.13,0,0,1,1,.15,2.59,2.59,0,0,1,.73.42,2.67,2.67,0,0,1,.52.6,5.08,5.08,0,0,1,.33.66l-.86.4a5,5,0,0,0-.25-.52,1.81,1.81,0,0,0-.33-.44,1.54,1.54,0,0,0-.48-.29,1.8,1.8,0,0,0-.65-.11,1.62,1.62,0,0,0-1.48.76,3.78,3.78,0,0,0-.47,2v1.3a6.92,6.92,0,0,0,.09,1.16,2.81,2.81,0,0,0,.32.9,1.59,1.59,0,0,0,.58.6,1.65,1.65,0,0,0,.87.21,1.67,1.67,0,0,0,1.27-.49,1.84,1.84,0,0,0,.45-1.28v-.86h-1.76v-.8h2.7V373H667Z" fill="#6f6f6f"/>
            </g>
          </g>
          <g id="X-axis-name" style="isolation: isolate">
            <g style="isolation: isolate">
              <path d="M458.39,395.66H457l3-4.42-2.85-4.19h1.45l2.17,3.3,2.16-3.3h1.38l-2.85,4.19,3,4.42H463l-2.29-3.54Z" fill="#171717"/>
              <path d="M472.22,391.86a.56.56,0,0,0,.49-.3.92.92,0,0,0,.07-.41.86.86,0,0,0-.38-.78,2,2,0,0,0-1.1-.25,1.39,1.39,0,0,0-1.17.45,1.5,1.5,0,0,0-.25.74h-1a1.82,1.82,0,0,1,.75-1.62,3,3,0,0,1,1.68-.46,3.41,3.41,0,0,1,1.79.42,1.44,1.44,0,0,1,.69,1.32v3.61a.54.54,0,0,0,.06.27.36.36,0,0,0,.29.1h.16l.18,0v.78a2.35,2.35,0,0,1-.37.09h-.35a.85.85,0,0,1-.79-.38,1.52,1.52,0,0,1-.19-.58,2.68,2.68,0,0,1-.92.73,2.83,2.83,0,0,1-1.33.31,2,2,0,0,1-1.43-.53,1.92,1.92,0,0,1,0-2.68,2.66,2.66,0,0,1,1.43-.59ZM470,394.71a1.23,1.23,0,0,0,.79.26,2.38,2.38,0,0,0,1.08-.25,1.45,1.45,0,0,0,.88-1.4v-.85a2,2,0,0,1-.5.21,4.34,4.34,0,0,1-.59.11l-.64.09a2.41,2.41,0,0,0-.86.24.91.91,0,0,0-.49.87A.86.86,0,0,0,470,394.71Z" fill="#171717"/>
              <path d="M474.94,389.38h1.36l1.44,2.21,1.46-2.21,1.29,0-2.12,3,2.21,3.22h-1.35l-1.56-2.36-1.51,2.36h-1.33l2.21-3.22Z" fill="#171717"/>
              <path d="M481.54,387.05h1.07v1.2h-1.07Zm0,2.36h1.07v6.25h-1.07Z" fill="#171717"/>
              <path d="M484.83,393.69a1.49,1.49,0,0,0,.27.81,1.7,1.7,0,0,0,1.41.51,2.1,2.1,0,0,0,1.05-.26A.85.85,0,0,0,488,394a.69.69,0,0,0-.37-.62,5.19,5.19,0,0,0-.91-.3l-.86-.21a4.3,4.3,0,0,1-1.2-.44,1.34,1.34,0,0,1-.69-1.19,1.81,1.81,0,0,1,.65-1.44,2.6,2.6,0,0,1,1.75-.55,2.44,2.44,0,0,1,2.07.83,1.75,1.75,0,0,1,.39,1.14h-1a1.15,1.15,0,0,0-.26-.65,1.67,1.67,0,0,0-1.29-.41,1.58,1.58,0,0,0-.92.23.71.71,0,0,0-.32.6.73.73,0,0,0,.42.65,2.59,2.59,0,0,0,.7.26l.71.17a5.5,5.5,0,0,1,1.55.53,1.42,1.42,0,0,1,.62,1.27,2,2,0,0,1-.64,1.45,2.77,2.77,0,0,1-2,.61,2.61,2.61,0,0,1-2-.64,2.35,2.35,0,0,1-.64-1.57Z" fill="#171717"/>
              <path d="M493.54,389.38h1v.9a2.76,2.76,0,0,1,.94-.8,2.51,2.51,0,0,1,1.11-.24,1.81,1.81,0,0,1,1.8.94,3.3,3.3,0,0,1,.26,1.45v4h-1.07v-4a2.18,2.18,0,0,0-.17-.93,1,1,0,0,0-1-.59,2.12,2.12,0,0,0-.62.08,1.6,1.6,0,0,0-.76.52,1.54,1.54,0,0,0-.34.64,4.42,4.42,0,0,0-.08.94v3.29h-1Z" fill="#171717"/>
              <path d="M503.57,391.86a.58.58,0,0,0,.49-.3.92.92,0,0,0,.07-.41.86.86,0,0,0-.38-.78,2,2,0,0,0-1.1-.25,1.39,1.39,0,0,0-1.17.45,1.5,1.5,0,0,0-.25.74h-1a1.8,1.8,0,0,1,.76-1.62,3,3,0,0,1,1.67-.46,3.43,3.43,0,0,1,1.8.42,1.44,1.44,0,0,1,.68,1.32v3.61a.54.54,0,0,0,.07.27.36.36,0,0,0,.29.1h.15l.19,0v.78a2.35,2.35,0,0,1-.37.09h-.36a.87.87,0,0,1-.79-.38,1.73,1.73,0,0,1-.18-.58,2.68,2.68,0,0,1-.92.73,2.86,2.86,0,0,1-1.33.31,2,2,0,0,1-1.43-.53,1.92,1.92,0,0,1,0-2.68,2.63,2.63,0,0,1,1.43-.59Zm-2.22,2.85a1.21,1.21,0,0,0,.79.26,2.44,2.44,0,0,0,1.08-.25,1.45,1.45,0,0,0,.88-1.4v-.85a2,2,0,0,1-.5.21,4.34,4.34,0,0,1-.59.11l-.64.09a2.41,2.41,0,0,0-.86.24.91.91,0,0,0-.49.87A.86.86,0,0,0,501.35,394.71Z" fill="#171717"/>
              <path d="M506.88,389.38h1.05v.9a3.33,3.33,0,0,1,.68-.68,2,2,0,0,1,1.18-.36,1.92,1.92,0,0,1,1.21.37,2,2,0,0,1,.46.62,2.32,2.32,0,0,1,.83-.74,2.34,2.34,0,0,1,1.07-.25,1.74,1.74,0,0,1,1.72.92,3,3,0,0,1,.25,1.32v4.18h-1.1V391.3a1,1,0,0,0-.31-.86,1.23,1.23,0,0,0-.77-.23,1.51,1.51,0,0,0-1.07.41,1.83,1.83,0,0,0-.45,1.39v3.65h-1.07v-4.1a2.18,2.18,0,0,0-.15-.93.94.94,0,0,0-.9-.44,1.54,1.54,0,0,0-1.08.47,2.22,2.22,0,0,0-.49,1.67v3.33h-1.06Z" fill="#171717"/>
              <path d="M520.75,389.56a2.32,2.32,0,0,1,1,.81,2.79,2.79,0,0,1,.42,1.11,6.56,6.56,0,0,1,.1,1.38h-4.57a2.73,2.73,0,0,0,.45,1.54,1.5,1.5,0,0,0,1.3.57,1.66,1.66,0,0,0,1.3-.54,1.71,1.71,0,0,0,.39-.74h1a2.3,2.3,0,0,1-.27.77,2.83,2.83,0,0,1-.52.7,2.46,2.46,0,0,1-1.18.63,3.72,3.72,0,0,1-.86.09,2.61,2.61,0,0,1-2-.85,3.33,3.33,0,0,1-.81-2.39,3.58,3.58,0,0,1,.82-2.45,2.67,2.67,0,0,1,2.13-.95A2.79,2.79,0,0,1,520.75,389.56Zm.38,2.46a2.73,2.73,0,0,0-.29-1.09,1.53,1.53,0,0,0-1.44-.77,1.6,1.6,0,0,0-1.21.53,2,2,0,0,0-.51,1.33Z" fill="#171717"/>
            </g>
          </g>
          <path id="Path" d="M325.92,427.05a1,1,0,0,1-1,1h-10a1,1,0,0,1-1-1v-10a1,1,0,0,1,1-1h10a1,1,0,0,1,1,1Z" fill="none" stroke="#000"/>
          <line id="Path-2" data-name="Path" x1="373" y1="130.03" x2="373" y2="357.03" fill="none" stroke="#0f62fe"/>
          <line id="Path-3" data-name="Path" x1="431.5" y1="130.03" x2="431.5" y2="357.03" fill="none" stroke="#0f62fe"/>
          <line id="Path-4" data-name="Path" x1="490.25" y1="130.03" x2="490.25" y2="357.03" fill="none" stroke="#0f62fe"/>
          <line id="Path-5" data-name="Path" x1="549" y1="130.03" x2="549" y2="357.03" fill="none" stroke="#0f62fe"/>
          <line id="Path-6" data-name="Path" x1="607.5" y1="130.03" x2="607.5" y2="357.03" fill="none" stroke="#0f62fe"/>
          <line id="Path-7" data-name="Path" x1="666" y1="130.03" x2="666" y2="357.03" fill="none" stroke="#0f62fe"/>
          <line id="Path-8" data-name="Path" x1="314.5" y1="130.03" x2="314.5" y2="357.03" fill="none" stroke="#0f62fe"/>
          <line id="Path-9" data-name="Path" x1="314.5" y1="130.61" x2="666" y2="130.61" fill="none" stroke="#0f62fe"/>
          <line id="Path-10" data-name="Path" x1="314.5" y1="187.13" x2="666" y2="187.13" fill="none" stroke="#0f62fe"/>
          <line id="Path-11" data-name="Path" x1="314.5" y1="243.53" x2="666" y2="243.53" fill="none" stroke="#0f62fe"/>
          <line id="Path-12" data-name="Path" x1="314.5" y1="300.04" x2="666" y2="300.04" fill="none" stroke="#0f62fe"/>
          <line id="Path-13" data-name="Path" x1="314.5" y1="356.44" x2="666" y2="356.44" fill="none" stroke="#0f62fe"/>
        </g>
      </g>
    </g>
  </g>
</svg>
