<svg width="340" height="116" viewBox="0 0 340 116" fill="none" xmlns="http://www.w3.org/2000/svg">
<rect x="16" y="24" width="48" height="48" rx="24" fill="#0F62FE"/>
<rect width="24" height="24" transform="translate(28 36)" fill="white" fill-opacity="0.01" style="mix-blend-mode:multiply"/>
<path d="M43.75 46.5H36.25V49.5H43.75V46.5Z" fill="white"/>
<path d="M40 58.5C39.7948 58.5004 39.5915 58.4602 39.4019 58.3818C39.2123 58.3033 39.04 58.1882 38.8951 58.043L29.957 49.1049C29.6644 48.8117 29.5 48.4143 29.5 48C29.5 47.5857 29.6644 47.1884 29.957 46.8951L38.8951 37.9571C39.1883 37.6644 39.5857 37.5001 40 37.5001C40.4143 37.5001 40.8116 37.6644 41.1049 37.9571L50.0429 46.8951C50.3356 47.1884 50.4999 47.5857 50.4999 48C50.4999 48.4143 50.3356 48.8117 50.0429 49.1049L41.1049 58.043C40.9599 58.1882 40.7877 58.3033 40.598 58.3818C40.4084 58.4602 40.2052 58.5004 40 58.5ZM40 38.9994C39.9834 38.9995 39.9674 39.006 39.9556 39.0177L31.0177 47.9557C31.006 47.9675 30.9994 47.9834 30.9994 48C30.9994 48.0166 31.006 48.0326 31.0177 48.0444L39.9556 56.9823C39.9675 56.994 39.9834 57.0005 40 57.0005C40.0166 57.0005 40.0325 56.994 40.0443 56.9823L48.9823 48.0444C48.994 48.0326 49.0006 48.0166 49.0006 48C49.0006 47.9834 48.994 47.9675 48.9823 47.9557L40.0443 39.0177C40.0325 39.006 40.0166 38.9995 40 38.9994Z" fill="white"/>
<path d="M31.2188 94H29.3008L28.5168 91.508H25.0448L24.2748 94H22.3988L25.6748 84.228H27.9708L31.2188 94ZM28.0688 89.926L26.8088 85.908H26.7388L25.4928 89.926H28.0688ZM35.5911 94.168C33.4351 94.168 32.2171 92.684 32.2171 90.332C32.2171 87.994 33.4351 86.524 35.5911 86.524C37.0611 86.524 38.0271 87.224 38.4611 88.372L36.9911 89.03C36.8231 88.414 36.3611 87.966 35.5911 87.966C34.5971 87.966 34.0931 88.666 34.0931 89.688V91.018C34.0931 92.04 34.5971 92.726 35.5911 92.726C36.4451 92.726 36.8651 92.236 37.1311 91.578L38.5031 92.236C38.0271 93.524 37.0051 94.168 35.5911 94.168ZM42.3268 94C41.0948 94 40.4368 93.328 40.4368 92.138V88.12H39.3588V86.692H39.9188C40.4508 86.692 40.6188 86.44 40.6188 85.936V84.69H42.2288V86.692H43.7268V88.12H42.2288V92.572H43.6148V94H42.3268ZM48.2844 94.168C46.1984 94.168 44.8964 92.684 44.8964 90.332C44.8964 87.994 46.1984 86.524 48.2844 86.524C50.3844 86.524 51.6864 87.994 51.6864 90.332C51.6864 92.684 50.3844 94.168 48.2844 94.168ZM48.2844 92.726C49.2224 92.726 49.8104 92.124 49.8104 91.018V89.66C49.8104 88.568 49.2224 87.966 48.2844 87.966C47.3604 87.966 46.7724 88.568 46.7724 89.66V91.018C46.7724 92.124 47.3604 92.726 48.2844 92.726ZM55.2271 94H53.4351V86.692H55.2271V88.204H55.2971C55.4791 87.434 56.0671 86.692 57.2291 86.692H57.6211V88.386H57.0611C55.8571 88.386 55.2271 88.722 55.2271 89.52V94Z" fill="black"/>
</svg>
