<svg width="607" height="115" viewBox="0 0 607 115" fill="none" xmlns="http://www.w3.org/2000/svg">
<path d="M88.5 1.05664H272C276.142 1.05664 279.5 4.41451 279.5 8.55664V82.5566C279.5 86.6988 276.142 90.0566 272 90.0566H96C91.8579 90.0566 88.5 86.6988 88.5 82.5566V1.05664Z" fill="white" fill-opacity="0.01" style="mix-blend-mode:multiply"/>
<path d="M88.5 1.05664H272C276.142 1.05664 279.5 4.41451 279.5 8.55664V82.5566C279.5 86.6988 276.142 90.0566 272 90.0566H96C91.8579 90.0566 88.5 86.6988 88.5 82.5566V1.05664Z" stroke="#0F62FE"/>
<path d="M89 1.55664H272C275.866 1.55664 279 4.69065 279 8.55664V82.5566C279 86.4226 275.866 89.5566 272 89.5566H96C92.134 89.5566 89 86.4226 89 82.5566V1.55664Z" fill="white"/>
<path d="M89 1.55664H272C275.866 1.55664 279 4.69065 279 8.55664V82.5566C279 86.4226 275.866 89.5566 272 89.5566H96C92.134 89.5566 89 86.4226 89 82.5566V1.55664Z" fill="#EDF5FF"/>
<g clip-path="url(#clip0_727_5770)">
<path d="M150.846 20.5566H145.148V10.7846H146.996V18.9186H150.846V20.5566ZM155.258 20.7246C153.172 20.7246 151.87 19.2406 151.87 16.8886C151.87 14.5506 153.172 13.0806 155.258 13.0806C157.358 13.0806 158.66 14.5506 158.66 16.8886C158.66 19.2406 157.358 20.7246 155.258 20.7246ZM155.258 19.2826C156.196 19.2826 156.784 18.6806 156.784 17.5746V16.2166C156.784 15.1246 156.196 14.5226 155.258 14.5226C154.334 14.5226 153.746 15.1246 153.746 16.2166V17.5746C153.746 18.6806 154.334 19.2826 155.258 19.2826ZM167.003 21.1726C167.003 22.6986 165.967 23.5246 163.167 23.5246C160.703 23.5246 159.765 22.8806 159.765 21.8026C159.765 20.9906 160.255 20.5286 161.067 20.4026V20.2486C160.465 20.0946 160.129 19.6186 160.129 19.0306C160.129 18.2746 160.773 17.8966 161.473 17.7426V17.6866C160.591 17.2806 160.143 16.5246 160.143 15.5586C160.143 14.0746 161.193 13.0806 163.167 13.0806C163.615 13.0806 164.077 13.1366 164.441 13.2626V13.0246C164.441 12.3106 164.805 11.9606 165.477 11.9606H166.611V13.3326H165.057V13.5286C165.813 13.9486 166.191 14.6626 166.191 15.5586C166.191 17.0286 165.155 18.0086 163.167 18.0086C162.747 18.0086 162.369 17.9666 162.047 17.8826C161.767 18.0086 161.529 18.2186 161.529 18.5406C161.529 18.9046 161.837 19.0866 162.481 19.0866H164.441C166.233 19.0866 167.003 19.8566 167.003 21.1726ZM165.323 21.3826C165.323 20.9206 164.987 20.6406 164.077 20.6406H161.585C161.319 20.8366 161.207 21.1026 161.207 21.3966C161.207 21.9566 161.627 22.2926 162.747 22.2926H163.643C164.805 22.2926 165.323 21.9986 165.323 21.3826ZM163.167 16.7906C164.021 16.7906 164.483 16.3986 164.483 15.6706V15.4326C164.483 14.6906 164.021 14.3126 163.167 14.3126C162.313 14.3126 161.851 14.6906 161.851 15.4326V15.6706C161.851 16.3986 162.313 16.7906 163.167 16.7906ZM169.094 12.1846C168.352 12.1846 168.044 11.8066 168.044 11.2886V11.0086C168.044 10.4906 168.352 10.1126 169.094 10.1126C169.822 10.1126 170.144 10.4906 170.144 11.0086V11.2886C170.144 11.8066 169.822 12.1846 169.094 12.1846ZM168.198 20.5566V13.2486H169.99V20.5566H168.198ZM175.111 20.7246C172.955 20.7246 171.737 19.2406 171.737 16.8886C171.737 14.5506 172.955 13.0806 175.111 13.0806C176.581 13.0806 177.547 13.7806 177.981 14.9286L176.511 15.5866C176.343 14.9706 175.881 14.5226 175.111 14.5226C174.117 14.5226 173.613 15.2226 173.613 16.2446V17.5746C173.613 18.5966 174.117 19.2826 175.111 19.2826C175.965 19.2826 176.385 18.7926 176.651 18.1346L178.023 18.7926C177.547 20.0806 176.525 20.7246 175.111 20.7246ZM181.371 20.7246C179.887 20.7246 179.047 19.8706 179.047 18.5686C179.047 17.0706 180.181 16.3286 182.169 16.3286H183.415V15.7966C183.415 14.9846 183.009 14.5086 182.057 14.5086C181.217 14.5086 180.741 14.9286 180.391 15.4326L179.327 14.4806C179.859 13.6406 180.713 13.0806 182.183 13.0806C184.157 13.0806 185.207 14.0186 185.207 15.6846V19.1286H185.935V20.5566H184.941C184.171 20.5566 183.695 20.0526 183.583 19.2966H183.499C183.261 20.2346 182.463 20.7246 181.371 20.7246ZM181.973 19.4226C182.771 19.4226 183.415 19.0586 183.415 18.3726V17.4066H182.267C181.329 17.4066 180.867 17.7286 180.867 18.3026V18.5406C180.867 19.1286 181.273 19.4226 181.973 19.4226ZM190.303 20.5566H189.337C188.119 20.5566 187.545 19.9126 187.545 18.7926V10.1966H189.337V19.1286H190.303V20.5566ZM147.794 38.5566H146.828C145.61 38.5566 145.036 37.9126 145.036 36.7926V28.1966H146.828V37.1286H147.794V38.5566ZM152.209 38.7246C150.123 38.7246 148.821 37.2406 148.821 34.8886C148.821 32.5506 150.123 31.0806 152.209 31.0806C154.309 31.0806 155.611 32.5506 155.611 34.8886C155.611 37.2406 154.309 38.7246 152.209 38.7246ZM152.209 37.2826C153.147 37.2826 153.735 36.6806 153.735 35.5746V34.2166C153.735 33.1246 153.147 32.5226 152.209 32.5226C151.285 32.5226 150.697 33.1246 150.697 34.2166V35.5746C150.697 36.6806 151.285 37.2826 152.209 37.2826ZM160.244 38.7246C158.088 38.7246 156.87 37.2406 156.87 34.8886C156.87 32.5506 158.088 31.0806 160.244 31.0806C161.714 31.0806 162.68 31.7806 163.114 32.9286L161.644 33.5866C161.476 32.9706 161.014 32.5226 160.244 32.5226C159.25 32.5226 158.746 33.2226 158.746 34.2446V35.5746C158.746 36.5966 159.25 37.2826 160.244 37.2826C161.098 37.2826 161.518 36.7926 161.784 36.1346L163.156 36.7926C162.68 38.0806 161.658 38.7246 160.244 38.7246ZM166.504 38.7246C165.02 38.7246 164.18 37.8706 164.18 36.5686C164.18 35.0706 165.314 34.3286 167.302 34.3286H168.548V33.7966C168.548 32.9846 168.142 32.5086 167.19 32.5086C166.35 32.5086 165.874 32.9286 165.524 33.4326L164.46 32.4806C164.992 31.6406 165.846 31.0806 167.316 31.0806C169.29 31.0806 170.34 32.0186 170.34 33.6846V37.1286H171.068V38.5566H170.074C169.304 38.5566 168.828 38.0526 168.716 37.2966H168.632C168.394 38.2346 167.596 38.7246 166.504 38.7246ZM167.106 37.4226C167.904 37.4226 168.548 37.0586 168.548 36.3726V35.4066H167.4C166.462 35.4066 166 35.7286 166 36.3026V36.5406C166 37.1286 166.406 37.4226 167.106 37.4226ZM174.905 38.5566C173.673 38.5566 173.015 37.8846 173.015 36.6946V32.6766H171.937V31.2486H172.497C173.029 31.2486 173.197 30.9966 173.197 30.4926V29.2466H174.807V31.2486H176.305V32.6766H174.807V37.1286H176.193V38.5566H174.905ZM178.916 30.1846C178.174 30.1846 177.866 29.8066 177.866 29.2886V29.0086C177.866 28.4906 178.174 28.1126 178.916 28.1126C179.644 28.1126 179.966 28.4906 179.966 29.0086V29.2886C179.966 29.8066 179.644 30.1846 178.916 30.1846ZM178.02 38.5566V31.2486H179.812V38.5566H178.02ZM184.947 38.7246C182.861 38.7246 181.559 37.2406 181.559 34.8886C181.559 32.5506 182.861 31.0806 184.947 31.0806C187.047 31.0806 188.349 32.5506 188.349 34.8886C188.349 37.2406 187.047 38.7246 184.947 38.7246ZM184.947 37.2826C185.885 37.2826 186.473 36.6806 186.473 35.5746V34.2166C186.473 33.1246 185.885 32.5226 184.947 32.5226C184.023 32.5226 183.435 33.1246 183.435 34.2166V35.5746C183.435 36.6806 184.023 37.2826 184.947 37.2826ZM191.889 38.5566H190.097V31.2486H191.889V32.4666H191.959C192.253 31.6826 192.869 31.0806 194.003 31.0806C195.501 31.0806 196.341 32.1166 196.341 33.9366V38.5566H194.549V34.1186C194.549 33.0826 194.199 32.5506 193.345 32.5506C192.603 32.5506 191.889 32.9426 191.889 33.7266V38.5566Z" fill="black"/>
<rect width="24" height="24" transform="translate(104 12.5566)" fill="white" fill-opacity="0.01" style="mix-blend-mode:multiply"/>
<path d="M119.75 23.0567H112.25V26.0567H119.75V23.0567Z" fill="black"/>
<path d="M116 35.0567C115.795 35.057 115.592 35.0169 115.402 34.9384C115.212 34.86 115.04 34.7448 114.895 34.5996L105.957 25.6616C105.664 25.3683 105.5 24.971 105.5 24.5567C105.5 24.1424 105.664 23.745 105.957 23.4518L114.895 14.5137C115.188 14.2211 115.586 14.0567 116 14.0567C116.414 14.0567 116.812 14.2211 117.105 14.5137L126.043 23.4518C126.336 23.745 126.5 24.1424 126.5 24.5567C126.5 24.971 126.336 25.3683 126.043 25.6616L117.105 34.5996C116.96 34.7448 116.788 34.86 116.598 34.9384C116.408 35.0169 116.205 35.057 116 35.0567ZM116 15.5561C115.983 15.5561 115.967 15.5627 115.956 15.5744L107.018 24.5123C107.006 24.5241 106.999 24.5401 106.999 24.5567C106.999 24.5733 107.006 24.5892 107.018 24.601L115.956 33.539C115.967 33.5506 115.983 33.5571 116 33.5571C116.017 33.5571 116.032 33.5506 116.044 33.539L124.982 24.601C124.994 24.5892 125.001 24.5733 125.001 24.5567C125.001 24.5401 124.994 24.5241 124.982 24.5123L116.044 15.5744C116.033 15.5627 116.017 15.5561 116 15.5561Z" fill="black"/>
<line x1="90" y1="0.556641" x2="90" y2="48.5566" stroke="#0F62FE" stroke-width="4"/>
</g>
<rect x="328.5" y="1.05664" width="191" height="89" fill="white" fill-opacity="0.01" style="mix-blend-mode:multiply"/>
<rect x="328.5" y="1.05664" width="191" height="89" stroke="#0F62FE"/>
<rect x="329" y="1.55664" width="190" height="88" fill="white"/>
<rect x="329" y="1.55664" width="190" height="88" fill="#EDF5FF"/>
<g clip-path="url(#clip1_727_5770)">
<path d="M386.996 20.5566H385.148V10.7846H389.544C391.35 10.7846 392.442 12.0026 392.442 13.8086C392.442 15.6286 391.35 16.8326 389.544 16.8326H386.996V20.5566ZM386.996 12.3946V15.2366H389.376C390.09 15.2366 390.524 14.8446 390.524 14.1306V13.4866C390.524 12.7726 390.09 12.3946 389.376 12.3946H386.996ZM395.82 20.5566H394.028V13.2486H395.82V14.7606H395.89C396.072 13.9906 396.66 13.2486 397.822 13.2486H398.214V14.9426H397.654C396.45 14.9426 395.82 15.2786 395.82 16.0766V20.5566ZM402.57 20.7246C400.414 20.7246 399.126 19.2266 399.126 16.8886C399.126 14.5786 400.372 13.0806 402.514 13.0806C404.796 13.0806 405.846 14.7606 405.846 16.7626V17.3506H400.988V17.5326C400.988 18.5826 401.59 19.2966 402.766 19.2966C403.648 19.2966 404.18 18.8766 404.628 18.3026L405.594 19.3806C404.992 20.2066 403.928 20.7246 402.57 20.7246ZM402.542 14.4246C401.604 14.4246 400.988 15.1246 400.988 16.1326V16.2446H403.984V16.1186C403.984 15.1106 403.466 14.4246 402.542 14.4246ZM409.976 20.7246C408.59 20.7246 407.68 20.2206 406.952 19.3806L408.044 18.3166C408.576 18.9326 409.22 19.3106 410.046 19.3106C410.9 19.3106 411.264 18.9886 411.264 18.4706C411.264 18.0506 411.012 17.7846 410.368 17.7006L409.64 17.6026C408.072 17.4066 407.204 16.7206 407.204 15.3906C407.204 13.9766 408.31 13.0806 409.976 13.0806C411.404 13.0806 412.132 13.5006 412.832 14.2286L411.782 15.2786C411.362 14.8306 410.746 14.4946 410.032 14.4946C409.262 14.4946 408.926 14.8026 408.926 15.2506C408.926 15.7406 409.192 15.9646 409.878 16.0766L410.62 16.1746C412.216 16.3986 412.986 17.1126 412.986 18.3306C412.986 19.7446 411.796 20.7246 409.976 20.7246ZM417.613 20.7246C415.457 20.7246 414.239 19.2406 414.239 16.8886C414.239 14.5506 415.457 13.0806 417.613 13.0806C419.083 13.0806 420.049 13.7806 420.483 14.9286L419.013 15.5866C418.845 14.9706 418.383 14.5226 417.613 14.5226C416.619 14.5226 416.115 15.2226 416.115 16.2446V17.5746C416.115 18.5966 416.619 19.2826 417.613 19.2826C418.467 19.2826 418.887 18.7926 419.153 18.1346L420.525 18.7926C420.049 20.0806 419.027 20.7246 417.613 20.7246ZM423.858 20.5566H422.066V13.2486H423.858V14.7606H423.928C424.11 13.9906 424.698 13.2486 425.86 13.2486H426.252V14.9426H425.692C424.488 14.9426 423.858 15.2786 423.858 16.0766V20.5566ZM428.619 12.1846C427.877 12.1846 427.569 11.8066 427.569 11.2886V11.0086C427.569 10.4906 427.877 10.1126 428.619 10.1126C429.347 10.1126 429.669 10.4906 429.669 11.0086V11.2886C429.669 11.8066 429.347 12.1846 428.619 12.1846ZM427.723 20.5566V13.2486H429.515V20.5566H427.723ZM431.752 20.5566V10.1966H433.544V14.4526H433.6C433.866 13.6126 434.65 13.0806 435.616 13.0806C437.464 13.0806 438.486 14.4526 438.486 16.8886C438.486 19.3386 437.464 20.7246 435.616 20.7246C434.65 20.7246 433.88 20.1646 433.6 19.3386H433.544V20.5566H431.752ZM435.042 19.2406C435.966 19.2406 436.61 18.5686 436.61 17.5326V16.2726C436.61 15.2366 435.966 14.5506 435.042 14.5506C434.188 14.5506 433.544 15.0126 433.544 15.7266V18.0506C433.544 18.8066 434.188 19.2406 435.042 19.2406ZM443.26 20.7246C441.104 20.7246 439.816 19.2266 439.816 16.8886C439.816 14.5786 441.062 13.0806 443.204 13.0806C445.486 13.0806 446.536 14.7606 446.536 16.7626V17.3506H441.678V17.5326C441.678 18.5826 442.28 19.2966 443.456 19.2966C444.338 19.2966 444.87 18.8766 445.318 18.3026L446.284 19.3806C445.682 20.2066 444.618 20.7246 443.26 20.7246ZM443.232 14.4246C442.294 14.4246 441.678 15.1246 441.678 16.1326V16.2446H444.674V16.1186C444.674 15.1106 444.156 14.4246 443.232 14.4246ZM452.809 20.5566V19.3386H452.739C452.473 20.1646 451.689 20.7246 450.723 20.7246C448.889 20.7246 447.867 19.3386 447.867 16.8886C447.867 14.4526 448.889 13.0806 450.723 13.0806C451.689 13.0806 452.487 13.6126 452.739 14.4526H452.809V10.1966H454.601V20.5566H452.809ZM451.297 19.2406C452.151 19.2406 452.809 18.8066 452.809 18.0506V15.7266C452.809 15.0126 452.151 14.5506 451.297 14.5506C450.373 14.5506 449.743 15.2366 449.743 16.2726V17.5326C449.743 18.5686 450.373 19.2406 451.297 19.2406ZM387.794 38.5566H386.828C385.61 38.5566 385.036 37.9126 385.036 36.7926V28.1966H386.828V37.1286H387.794V38.5566ZM392.209 38.7246C390.123 38.7246 388.821 37.2406 388.821 34.8886C388.821 32.5506 390.123 31.0806 392.209 31.0806C394.309 31.0806 395.611 32.5506 395.611 34.8886C395.611 37.2406 394.309 38.7246 392.209 38.7246ZM392.209 37.2826C393.147 37.2826 393.735 36.6806 393.735 35.5746V34.2166C393.735 33.1246 393.147 32.5226 392.209 32.5226C391.285 32.5226 390.697 33.1246 390.697 34.2166V35.5746C390.697 36.6806 391.285 37.2826 392.209 37.2826ZM400.244 38.7246C398.088 38.7246 396.87 37.2406 396.87 34.8886C396.87 32.5506 398.088 31.0806 400.244 31.0806C401.714 31.0806 402.68 31.7806 403.114 32.9286L401.644 33.5866C401.476 32.9706 401.014 32.5226 400.244 32.5226C399.25 32.5226 398.746 33.2226 398.746 34.2446V35.5746C398.746 36.5966 399.25 37.2826 400.244 37.2826C401.098 37.2826 401.518 36.7926 401.784 36.1346L403.156 36.7926C402.68 38.0806 401.658 38.7246 400.244 38.7246ZM406.504 38.7246C405.02 38.7246 404.18 37.8706 404.18 36.5686C404.18 35.0706 405.314 34.3286 407.302 34.3286H408.548V33.7966C408.548 32.9846 408.142 32.5086 407.19 32.5086C406.35 32.5086 405.874 32.9286 405.524 33.4326L404.46 32.4806C404.992 31.6406 405.846 31.0806 407.316 31.0806C409.29 31.0806 410.34 32.0186 410.34 33.6846V37.1286H411.068V38.5566H410.074C409.304 38.5566 408.828 38.0526 408.716 37.2966H408.632C408.394 38.2346 407.596 38.7246 406.504 38.7246ZM407.106 37.4226C407.904 37.4226 408.548 37.0586 408.548 36.3726V35.4066H407.4C406.462 35.4066 406 35.7286 406 36.3026V36.5406C406 37.1286 406.406 37.4226 407.106 37.4226ZM414.905 38.5566C413.673 38.5566 413.015 37.8846 413.015 36.6946V32.6766H411.937V31.2486H412.497C413.029 31.2486 413.197 30.9966 413.197 30.4926V29.2466H414.807V31.2486H416.305V32.6766H414.807V37.1286H416.193V38.5566H414.905ZM418.916 30.1846C418.174 30.1846 417.866 29.8066 417.866 29.2886V29.0086C417.866 28.4906 418.174 28.1126 418.916 28.1126C419.644 28.1126 419.966 28.4906 419.966 29.0086V29.2886C419.966 29.8066 419.644 30.1846 418.916 30.1846ZM418.02 38.5566V31.2486H419.812V38.5566H418.02ZM424.947 38.7246C422.861 38.7246 421.559 37.2406 421.559 34.8886C421.559 32.5506 422.861 31.0806 424.947 31.0806C427.047 31.0806 428.349 32.5506 428.349 34.8886C428.349 37.2406 427.047 38.7246 424.947 38.7246ZM424.947 37.2826C425.885 37.2826 426.473 36.6806 426.473 35.5746V34.2166C426.473 33.1246 425.885 32.5226 424.947 32.5226C424.023 32.5226 423.435 33.1246 423.435 34.2166V35.5746C423.435 36.6806 424.023 37.2826 424.947 37.2826ZM431.889 38.5566H430.097V31.2486H431.889V32.4666H431.959C432.253 31.6826 432.869 31.0806 434.003 31.0806C435.501 31.0806 436.341 32.1166 436.341 33.9366V38.5566H434.549V34.1186C434.549 33.0826 434.199 32.5506 433.345 32.5506C432.603 32.5506 431.889 32.9426 431.889 33.7266V38.5566Z" fill="black"/>
<rect width="24" height="24" transform="translate(344 12.5566)" fill="white" fill-opacity="0.01" style="mix-blend-mode:multiply"/>
<path d="M359.75 23.0567H352.25V26.0567H359.75V23.0567Z" fill="black"/>
<path d="M356 35.0567C355.795 35.057 355.592 35.0169 355.402 34.9384C355.212 34.86 355.04 34.7448 354.895 34.5996L345.957 25.6616C345.664 25.3683 345.5 24.971 345.5 24.5567C345.5 24.1424 345.664 23.745 345.957 23.4518L354.895 14.5137C355.188 14.2211 355.586 14.0567 356 14.0567C356.414 14.0567 356.812 14.2211 357.105 14.5137L366.043 23.4518C366.336 23.745 366.5 24.1424 366.5 24.5567C366.5 24.971 366.336 25.3683 366.043 25.6616L357.105 34.5996C356.96 34.7448 356.788 34.86 356.598 34.9384C356.408 35.0169 356.205 35.057 356 35.0567ZM356 15.5561C355.983 15.5561 355.967 15.5627 355.956 15.5744L347.018 24.5123C347.006 24.5241 346.999 24.5401 346.999 24.5567C346.999 24.5733 347.006 24.5892 347.018 24.601L355.956 33.539C355.967 33.5506 355.983 33.5571 356 33.5571C356.017 33.5571 356.032 33.5506 356.044 33.539L364.982 24.601C364.994 24.5892 365.001 24.5733 365.001 24.5567C365.001 24.5401 364.994 24.5241 364.982 24.5123L356.044 15.5744C356.033 15.5627 356.017 15.5561 356 15.5561Z" fill="black"/>
<line x1="330" y1="0.556641" x2="330" y2="48.5566" stroke="#0F62FE" stroke-width="4"/>
</g>
<defs>
<clipPath id="clip0_727_5770">
<rect width="192" height="48" fill="white" transform="translate(88 0.556641)"/>
</clipPath>
<clipPath id="clip1_727_5770">
<rect width="192" height="48" fill="white" transform="translate(328 0.556641)"/>
</clipPath>
</defs>
</svg>
