<svg width="607" height="257" viewBox="0 0 607 257" fill="none" xmlns="http://www.w3.org/2000/svg">
<rect width="48" height="92" transform="translate(113 0.556641)" fill="white" fill-opacity="0.01" style="mix-blend-mode:multiply"/>
<path d="M121 0.556641H153C157.418 0.556641 161 4.13836 161 8.55664V40.5566C161 44.9749 157.418 48.5566 153 48.5566H121C116.582 48.5566 113 44.9749 113 40.5566V8.55664C113 4.13836 116.582 0.556641 121 0.556641Z" fill="#0F62FE"/>
<rect width="24" height="24" transform="translate(125 12.5566)" fill="white" fill-opacity="0.01" style="mix-blend-mode:multiply"/>
<path d="M140.75 23.0567H133.25V26.0567H140.75V23.0567Z" fill="white"/>
<path d="M137 35.0567C136.795 35.057 136.592 35.0169 136.402 34.9384C136.212 34.86 136.04 34.7448 135.895 34.5996L126.957 25.6616C126.664 25.3683 126.5 24.971 126.5 24.5567C126.5 24.1424 126.664 23.745 126.957 23.4518L135.895 14.5137C136.188 14.2211 136.586 14.0567 137 14.0567C137.414 14.0567 137.812 14.2211 138.105 14.5137L147.043 23.4518C147.336 23.745 147.5 24.1424 147.5 24.5567C147.5 24.971 147.336 25.3683 147.043 25.6616L138.105 34.5996C137.96 34.7448 137.788 34.86 137.598 34.9384C137.408 35.0169 137.205 35.057 137 35.0567ZM137 15.5561C136.983 15.5561 136.967 15.5627 136.956 15.5744L128.018 24.5123C128.006 24.5241 127.999 24.5401 127.999 24.5567C127.999 24.5733 128.006 24.5892 128.018 24.601L136.956 33.539C136.967 33.5506 136.983 33.5571 137 33.5571C137.017 33.5571 137.032 33.5506 137.044 33.539L145.982 24.601C145.994 24.5892 146.001 24.5733 146.001 24.5567C146.001 24.5401 145.994 24.5241 145.982 24.5123L137.044 15.5744C137.033 15.5627 137.017 15.5561 137 15.5561Z" fill="white"/>
<path d="M120.454 70.5566H114.756V60.7846H116.604V68.9186H120.454V70.5566ZM124.866 70.7246C122.78 70.7246 121.478 69.2406 121.478 66.8886C121.478 64.5506 122.78 63.0806 124.866 63.0806C126.966 63.0806 128.268 64.5506 128.268 66.8886C128.268 69.2406 126.966 70.7246 124.866 70.7246ZM124.866 69.2826C125.804 69.2826 126.392 68.6806 126.392 67.5746V66.2166C126.392 65.1246 125.804 64.5226 124.866 64.5226C123.942 64.5226 123.354 65.1246 123.354 66.2166V67.5746C123.354 68.6806 123.942 69.2826 124.866 69.2826ZM136.611 71.1726C136.611 72.6986 135.575 73.5246 132.775 73.5246C130.311 73.5246 129.373 72.8806 129.373 71.8026C129.373 70.9906 129.863 70.5286 130.675 70.4026V70.2486C130.073 70.0946 129.737 69.6186 129.737 69.0306C129.737 68.2746 130.381 67.8966 131.081 67.7426V67.6866C130.199 67.2806 129.751 66.5246 129.751 65.5586C129.751 64.0746 130.801 63.0806 132.775 63.0806C133.223 63.0806 133.685 63.1366 134.049 63.2626V63.0246C134.049 62.3106 134.413 61.9606 135.085 61.9606H136.219V63.3326H134.665V63.5286C135.421 63.9486 135.799 64.6626 135.799 65.5586C135.799 67.0286 134.763 68.0086 132.775 68.0086C132.355 68.0086 131.977 67.9666 131.655 67.8826C131.375 68.0086 131.137 68.2186 131.137 68.5406C131.137 68.9046 131.445 69.0866 132.089 69.0866H134.049C135.841 69.0866 136.611 69.8566 136.611 71.1726ZM134.931 71.3826C134.931 70.9206 134.595 70.6406 133.685 70.6406H131.193C130.927 70.8366 130.815 71.1026 130.815 71.3966C130.815 71.9566 131.235 72.2926 132.355 72.2926H133.251C134.413 72.2926 134.931 71.9986 134.931 71.3826ZM132.775 66.7906C133.629 66.7906 134.091 66.3986 134.091 65.6706V65.4326C134.091 64.6906 133.629 64.3126 132.775 64.3126C131.921 64.3126 131.459 64.6906 131.459 65.4326V65.6706C131.459 66.3986 131.921 66.7906 132.775 66.7906ZM138.702 62.1846C137.96 62.1846 137.652 61.8066 137.652 61.2886V61.0086C137.652 60.4906 137.96 60.1126 138.702 60.1126C139.43 60.1126 139.752 60.4906 139.752 61.0086V61.2886C139.752 61.8066 139.43 62.1846 138.702 62.1846ZM137.806 70.5566V63.2486H139.598V70.5566H137.806ZM144.719 70.7246C142.563 70.7246 141.345 69.2406 141.345 66.8886C141.345 64.5506 142.563 63.0806 144.719 63.0806C146.189 63.0806 147.155 63.7806 147.589 64.9286L146.119 65.5866C145.951 64.9706 145.489 64.5226 144.719 64.5226C143.725 64.5226 143.221 65.2226 143.221 66.2446V67.5746C143.221 68.5966 143.725 69.2826 144.719 69.2826C145.573 69.2826 145.993 68.7926 146.259 68.1346L147.631 68.7926C147.155 70.0806 146.133 70.7246 144.719 70.7246ZM150.978 70.7246C149.494 70.7246 148.654 69.8706 148.654 68.5686C148.654 67.0706 149.788 66.3286 151.776 66.3286H153.022V65.7966C153.022 64.9846 152.616 64.5086 151.664 64.5086C150.824 64.5086 150.348 64.9286 149.998 65.4326L148.934 64.4806C149.466 63.6406 150.32 63.0806 151.79 63.0806C153.764 63.0806 154.814 64.0186 154.814 65.6846V69.1286H155.542V70.5566H154.548C153.778 70.5566 153.302 70.0526 153.19 69.2966H153.106C152.868 70.2346 152.07 70.7246 150.978 70.7246ZM151.58 69.4226C152.378 69.4226 153.022 69.0586 153.022 68.3726V67.4066H151.874C150.936 67.4066 150.474 67.7286 150.474 68.3026V68.5406C150.474 69.1286 150.88 69.4226 151.58 69.4226ZM159.911 70.5566H158.945C157.727 70.5566 157.153 69.9126 157.153 68.7926V60.1966H158.945V69.1286H159.911V70.5566ZM123.428 88.5566H121.636V81.2486H123.428V82.4666H123.498C123.792 81.6826 124.408 81.0806 125.542 81.0806C127.04 81.0806 127.88 82.1166 127.88 83.9366V88.5566H126.088V84.1186C126.088 83.0826 125.738 82.5506 124.884 82.5506C124.142 82.5506 123.428 82.9426 123.428 83.7266V88.5566ZM132.924 88.7246C130.838 88.7246 129.536 87.2406 129.536 84.8886C129.536 82.5506 130.838 81.0806 132.924 81.0806C135.024 81.0806 136.326 82.5506 136.326 84.8886C136.326 87.2406 135.024 88.7246 132.924 88.7246ZM132.924 87.2826C133.862 87.2826 134.45 86.6806 134.45 85.5746V84.2166C134.45 83.1246 133.862 82.5226 132.924 82.5226C132 82.5226 131.412 83.1246 131.412 84.2166V85.5746C131.412 86.6806 132 87.2826 132.924 87.2826ZM142.611 88.5566V87.3386H142.541C142.275 88.1646 141.491 88.7246 140.525 88.7246C138.691 88.7246 137.669 87.3386 137.669 84.8886C137.669 82.4526 138.691 81.0806 140.525 81.0806C141.491 81.0806 142.289 81.6126 142.541 82.4526H142.611V78.1966H144.403V88.5566H142.611ZM141.099 87.2406C141.953 87.2406 142.611 86.8066 142.611 86.0506V83.7266C142.611 83.0126 141.953 82.5506 141.099 82.5506C140.175 82.5506 139.545 83.2366 139.545 84.2726V85.5326C139.545 86.5686 140.175 87.2406 141.099 87.2406ZM149.584 88.7246C147.428 88.7246 146.14 87.2266 146.14 84.8886C146.14 82.5786 147.386 81.0806 149.528 81.0806C151.81 81.0806 152.86 82.7606 152.86 84.7626V85.3506H148.002V85.5326C148.002 86.5826 148.604 87.2966 149.78 87.2966C150.662 87.2966 151.194 86.8766 151.642 86.3026L152.608 87.3806C152.006 88.2066 150.942 88.7246 149.584 88.7246ZM149.556 82.4246C148.618 82.4246 148.002 83.1246 148.002 84.1326V84.2446H150.998V84.1186C150.998 83.1106 150.48 82.4246 149.556 82.4246Z" fill="black"/>
<rect width="92" height="92" transform="translate(91 140.557)" fill="white" fill-opacity="0.01" style="mix-blend-mode:multiply"/>
<path d="M113 140.557H161V188.557H113V140.557Z" fill="#0F62FE"/>
<rect width="24" height="24" transform="translate(125 152.557)" fill="white" fill-opacity="0.01" style="mix-blend-mode:multiply"/>
<path d="M140.75 163.057H133.25V166.057H140.75V163.057Z" fill="white"/>
<path d="M137 175.057C136.795 175.057 136.592 175.017 136.402 174.938C136.212 174.86 136.04 174.745 135.895 174.6L126.957 165.662C126.664 165.368 126.5 164.971 126.5 164.557C126.5 164.142 126.664 163.745 126.957 163.452L135.895 154.514C136.188 154.221 136.586 154.057 137 154.057C137.414 154.057 137.812 154.221 138.105 154.514L147.043 163.452C147.336 163.745 147.5 164.142 147.5 164.557C147.5 164.971 147.336 165.368 147.043 165.662L138.105 174.6C137.96 174.745 137.788 174.86 137.598 174.938C137.408 175.017 137.205 175.057 137 175.057ZM137 155.556C136.983 155.556 136.967 155.563 136.956 155.574L128.018 164.512C128.006 164.524 127.999 164.54 127.999 164.557C127.999 164.573 128.006 164.589 128.018 164.601L136.956 173.539C136.967 173.551 136.983 173.557 137 173.557C137.017 173.557 137.032 173.551 137.044 173.539L145.982 164.601C145.994 164.589 146.001 164.573 146.001 164.557C146.001 164.54 145.994 164.524 145.982 164.512L137.044 155.574C137.033 155.563 137.017 155.556 137 155.556Z" fill="white"/>
<path d="M104.1 210.557H102.252V200.785H106.648C108.454 200.785 109.546 202.003 109.546 203.809C109.546 205.629 108.454 206.833 106.648 206.833H104.1V210.557ZM104.1 202.395V205.237H106.48C107.194 205.237 107.628 204.845 107.628 204.131V203.487C107.628 202.773 107.194 202.395 106.48 202.395H104.1ZM112.924 210.557H111.132V203.249H112.924V204.761H112.994C113.176 203.991 113.764 203.249 114.926 203.249H115.318V204.943H114.758C113.554 204.943 112.924 205.279 112.924 206.077V210.557ZM119.674 210.725C117.518 210.725 116.23 209.227 116.23 206.889C116.23 204.579 117.476 203.081 119.618 203.081C121.9 203.081 122.95 204.761 122.95 206.763V207.351H118.092V207.533C118.092 208.583 118.694 209.297 119.87 209.297C120.752 209.297 121.284 208.877 121.732 208.303L122.698 209.381C122.096 210.207 121.032 210.725 119.674 210.725ZM119.646 204.425C118.708 204.425 118.092 205.125 118.092 206.133V206.245H121.088V206.119C121.088 205.111 120.57 204.425 119.646 204.425ZM127.081 210.725C125.695 210.725 124.785 210.221 124.057 209.381L125.149 208.317C125.681 208.933 126.325 209.311 127.151 209.311C128.005 209.311 128.369 208.989 128.369 208.471C128.369 208.051 128.117 207.785 127.473 207.701L126.745 207.603C125.177 207.407 124.309 206.721 124.309 205.391C124.309 203.977 125.415 203.081 127.081 203.081C128.509 203.081 129.237 203.501 129.937 204.229L128.887 205.279C128.467 204.831 127.851 204.495 127.137 204.495C126.367 204.495 126.031 204.803 126.031 205.251C126.031 205.741 126.297 205.965 126.983 206.077L127.725 206.175C129.321 206.399 130.091 207.113 130.091 208.331C130.091 209.745 128.901 210.725 127.081 210.725ZM134.717 210.725C132.561 210.725 131.343 209.241 131.343 206.889C131.343 204.551 132.561 203.081 134.717 203.081C136.187 203.081 137.153 203.781 137.587 204.929L136.117 205.587C135.949 204.971 135.487 204.523 134.717 204.523C133.723 204.523 133.219 205.223 133.219 206.245V207.575C133.219 208.597 133.723 209.283 134.717 209.283C135.571 209.283 135.991 208.793 136.257 208.135L137.629 208.793C137.153 210.081 136.131 210.725 134.717 210.725ZM140.963 210.557H139.171V203.249H140.963V204.761H141.033C141.215 203.991 141.803 203.249 142.965 203.249H143.357V204.943H142.797C141.593 204.943 140.963 205.279 140.963 206.077V210.557ZM145.723 202.185C144.981 202.185 144.673 201.807 144.673 201.289V201.009C144.673 200.491 144.981 200.113 145.723 200.113C146.451 200.113 146.773 200.491 146.773 201.009V201.289C146.773 201.807 146.451 202.185 145.723 202.185ZM144.827 210.557V203.249H146.619V210.557H144.827ZM148.856 210.557V200.197H150.648V204.453H150.704C150.97 203.613 151.754 203.081 152.72 203.081C154.568 203.081 155.59 204.453 155.59 206.889C155.59 209.339 154.568 210.725 152.72 210.725C151.754 210.725 150.984 210.165 150.704 209.339H150.648V210.557H148.856ZM152.146 209.241C153.07 209.241 153.714 208.569 153.714 207.533V206.273C153.714 205.237 153.07 204.551 152.146 204.551C151.292 204.551 150.648 205.013 150.648 205.727V208.051C150.648 208.807 151.292 209.241 152.146 209.241ZM160.365 210.725C158.209 210.725 156.921 209.227 156.921 206.889C156.921 204.579 158.167 203.081 160.309 203.081C162.591 203.081 163.641 204.761 163.641 206.763V207.351H158.783V207.533C158.783 208.583 159.385 209.297 160.561 209.297C161.443 209.297 161.975 208.877 162.423 208.303L163.389 209.381C162.787 210.207 161.723 210.725 160.365 210.725ZM160.337 204.425C159.399 204.425 158.783 205.125 158.783 206.133V206.245H161.779V206.119C161.779 205.111 161.261 204.425 160.337 204.425ZM169.913 210.557V209.339H169.843C169.577 210.165 168.793 210.725 167.827 210.725C165.993 210.725 164.971 209.339 164.971 206.889C164.971 204.453 165.993 203.081 167.827 203.081C168.793 203.081 169.591 203.613 169.843 204.453H169.913V200.197H171.705V210.557H169.913ZM168.401 209.241C169.255 209.241 169.913 208.807 169.913 208.051V205.727C169.913 205.013 169.255 204.551 168.401 204.551C167.477 204.551 166.847 205.237 166.847 206.273V207.533C166.847 208.569 167.477 209.241 168.401 209.241ZM123.428 228.557H121.636V221.249H123.428V222.467H123.498C123.792 221.683 124.408 221.081 125.542 221.081C127.04 221.081 127.88 222.117 127.88 223.937V228.557H126.088V224.119C126.088 223.083 125.738 222.551 124.884 222.551C124.142 222.551 123.428 222.943 123.428 223.727V228.557ZM132.924 228.725C130.838 228.725 129.536 227.241 129.536 224.889C129.536 222.551 130.838 221.081 132.924 221.081C135.024 221.081 136.326 222.551 136.326 224.889C136.326 227.241 135.024 228.725 132.924 228.725ZM132.924 227.283C133.862 227.283 134.45 226.681 134.45 225.575V224.217C134.45 223.125 133.862 222.523 132.924 222.523C132 222.523 131.412 223.125 131.412 224.217V225.575C131.412 226.681 132 227.283 132.924 227.283ZM142.611 228.557V227.339H142.541C142.275 228.165 141.491 228.725 140.525 228.725C138.691 228.725 137.669 227.339 137.669 224.889C137.669 222.453 138.691 221.081 140.525 221.081C141.491 221.081 142.289 221.613 142.541 222.453H142.611V218.197H144.403V228.557H142.611ZM141.099 227.241C141.953 227.241 142.611 226.807 142.611 226.051V223.727C142.611 223.013 141.953 222.551 141.099 222.551C140.175 222.551 139.545 223.237 139.545 224.273V225.533C139.545 226.569 140.175 227.241 141.099 227.241ZM149.584 228.725C147.428 228.725 146.14 227.227 146.14 224.889C146.14 222.579 147.386 221.081 149.528 221.081C151.81 221.081 152.86 222.761 152.86 224.763V225.351H148.002V225.533C148.002 226.583 148.604 227.297 149.78 227.297C150.662 227.297 151.194 226.877 151.642 226.303L152.608 227.381C152.006 228.207 150.942 228.725 149.584 228.725ZM149.556 222.425C148.618 222.425 148.002 223.125 148.002 224.133V224.245H150.998V224.119C150.998 223.111 150.48 222.425 149.556 222.425Z" fill="black"/>
<path d="M336 1.05664H512C516.142 1.05664 519.5 4.41451 519.5 8.55664V40.5566C519.5 44.6988 516.142 48.0566 512 48.0566H336C331.858 48.0566 328.5 44.6988 328.5 40.5566V8.55664C328.5 4.41451 331.858 1.05664 336 1.05664Z" stroke="#0F62FE"/>
<path d="M329 8.55664C329 4.69065 332.134 1.55664 336 1.55664H512C515.866 1.55664 519 4.69065 519 8.55664V40.5566C519 44.4226 515.866 47.5566 512 47.5566H336C332.134 47.5566 329 44.4226 329 40.5566V8.55664Z" fill="white"/>
<path d="M329 8.55664C329 4.69065 332.134 1.55664 336 1.55664H512C515.866 1.55664 519 4.69065 519 8.55664V40.5566C519 44.4226 515.866 47.5566 512 47.5566H336C332.134 47.5566 329 44.4226 329 40.5566V8.55664Z" fill="#EDF5FF"/>
<g clip-path="url(#clip0_727_5767)">
<path d="M398.846 29.5566H393.148V19.7846H394.996V27.9186H398.846V29.5566ZM403.258 29.7246C401.172 29.7246 399.87 28.2406 399.87 25.8886C399.87 23.5506 401.172 22.0806 403.258 22.0806C405.358 22.0806 406.66 23.5506 406.66 25.8886C406.66 28.2406 405.358 29.7246 403.258 29.7246ZM403.258 28.2826C404.196 28.2826 404.784 27.6806 404.784 26.5746V25.2166C404.784 24.1246 404.196 23.5226 403.258 23.5226C402.334 23.5226 401.746 24.1246 401.746 25.2166V26.5746C401.746 27.6806 402.334 28.2826 403.258 28.2826ZM415.003 30.1726C415.003 31.6986 413.967 32.5246 411.167 32.5246C408.703 32.5246 407.765 31.8806 407.765 30.8026C407.765 29.9906 408.255 29.5286 409.067 29.4026V29.2486C408.465 29.0946 408.129 28.6186 408.129 28.0306C408.129 27.2746 408.773 26.8966 409.473 26.7426V26.6866C408.591 26.2806 408.143 25.5246 408.143 24.5586C408.143 23.0746 409.193 22.0806 411.167 22.0806C411.615 22.0806 412.077 22.1366 412.441 22.2626V22.0246C412.441 21.3106 412.805 20.9606 413.477 20.9606H414.611V22.3326H413.057V22.5286C413.813 22.9486 414.191 23.6626 414.191 24.5586C414.191 26.0286 413.155 27.0086 411.167 27.0086C410.747 27.0086 410.369 26.9666 410.047 26.8826C409.767 27.0086 409.529 27.2186 409.529 27.5406C409.529 27.9046 409.837 28.0866 410.481 28.0866H412.441C414.233 28.0866 415.003 28.8566 415.003 30.1726ZM413.323 30.3826C413.323 29.9206 412.987 29.6406 412.077 29.6406H409.585C409.319 29.8366 409.207 30.1026 409.207 30.3966C409.207 30.9566 409.627 31.2926 410.747 31.2926H411.643C412.805 31.2926 413.323 30.9986 413.323 30.3826ZM411.167 25.7906C412.021 25.7906 412.483 25.3986 412.483 24.6706V24.4326C412.483 23.6906 412.021 23.3126 411.167 23.3126C410.313 23.3126 409.851 23.6906 409.851 24.4326V24.6706C409.851 25.3986 410.313 25.7906 411.167 25.7906ZM417.094 21.1846C416.352 21.1846 416.044 20.8066 416.044 20.2886V20.0086C416.044 19.4906 416.352 19.1126 417.094 19.1126C417.822 19.1126 418.144 19.4906 418.144 20.0086V20.2886C418.144 20.8066 417.822 21.1846 417.094 21.1846ZM416.198 29.5566V22.2486H417.99V29.5566H416.198ZM423.111 29.7246C420.955 29.7246 419.737 28.2406 419.737 25.8886C419.737 23.5506 420.955 22.0806 423.111 22.0806C424.581 22.0806 425.547 22.7806 425.981 23.9286L424.511 24.5866C424.343 23.9706 423.881 23.5226 423.111 23.5226C422.117 23.5226 421.613 24.2226 421.613 25.2446V26.5746C421.613 27.5966 422.117 28.2826 423.111 28.2826C423.965 28.2826 424.385 27.7926 424.651 27.1346L426.023 27.7926C425.547 29.0806 424.525 29.7246 423.111 29.7246ZM429.371 29.7246C427.887 29.7246 427.047 28.8706 427.047 27.5686C427.047 26.0706 428.181 25.3286 430.169 25.3286H431.415V24.7966C431.415 23.9846 431.009 23.5086 430.057 23.5086C429.217 23.5086 428.741 23.9286 428.391 24.4326L427.327 23.4806C427.859 22.6406 428.713 22.0806 430.183 22.0806C432.157 22.0806 433.207 23.0186 433.207 24.6846V28.1286H433.935V29.5566H432.941C432.171 29.5566 431.695 29.0526 431.583 28.2966H431.499C431.261 29.2346 430.463 29.7246 429.371 29.7246ZM429.973 28.4226C430.771 28.4226 431.415 28.0586 431.415 27.3726V26.4066H430.267C429.329 26.4066 428.867 26.7286 428.867 27.3026V27.5406C428.867 28.1286 429.273 28.4226 429.973 28.4226ZM438.303 29.5566H437.337C436.119 29.5566 435.545 28.9126 435.545 27.7926V19.1966H437.337V28.1286H438.303V29.5566ZM445.081 29.5566H443.289V22.2486H445.081V23.4666H445.151C445.445 22.6826 446.061 22.0806 447.195 22.0806C448.693 22.0806 449.533 23.1166 449.533 24.9366V29.5566H447.741V25.1186C447.741 24.0826 447.391 23.5506 446.537 23.5506C445.795 23.5506 445.081 23.9426 445.081 24.7266V29.5566ZM454.577 29.7246C452.491 29.7246 451.189 28.2406 451.189 25.8886C451.189 23.5506 452.491 22.0806 454.577 22.0806C456.677 22.0806 457.979 23.5506 457.979 25.8886C457.979 28.2406 456.677 29.7246 454.577 29.7246ZM454.577 28.2826C455.515 28.2826 456.103 27.6806 456.103 26.5746V25.2166C456.103 24.1246 455.515 23.5226 454.577 23.5226C453.653 23.5226 453.065 24.1246 453.065 25.2166V26.5746C453.065 27.6806 453.653 28.2826 454.577 28.2826ZM464.264 29.5566V28.3386H464.194C463.928 29.1646 463.144 29.7246 462.178 29.7246C460.344 29.7246 459.322 28.3386 459.322 25.8886C459.322 23.4526 460.344 22.0806 462.178 22.0806C463.144 22.0806 463.942 22.6126 464.194 23.4526H464.264V19.1966H466.056V29.5566H464.264ZM462.752 28.2406C463.606 28.2406 464.264 27.8066 464.264 27.0506V24.7266C464.264 24.0126 463.606 23.5506 462.752 23.5506C461.828 23.5506 461.198 24.2366 461.198 25.2726V26.5326C461.198 27.5686 461.828 28.2406 462.752 28.2406ZM471.236 29.7246C469.08 29.7246 467.792 28.2266 467.792 25.8886C467.792 23.5786 469.038 22.0806 471.18 22.0806C473.462 22.0806 474.512 23.7606 474.512 25.7626V26.3506H469.654V26.5326C469.654 27.5826 470.256 28.2966 471.432 28.2966C472.314 28.2966 472.846 27.8766 473.294 27.3026L474.26 28.3806C473.658 29.2066 472.594 29.7246 471.236 29.7246ZM471.208 23.4246C470.27 23.4246 469.654 24.1246 469.654 25.1326V25.2446H472.65V25.1186C472.65 24.1106 472.132 23.4246 471.208 23.4246Z" fill="black"/>
<path d="M336 0.556641H376V48.5566H336C331.582 48.5566 328 44.9749 328 40.5566V8.55664C328 4.13836 331.582 0.556641 336 0.556641Z" fill="#0F62FE"/>
<rect width="24" height="24" transform="translate(340 12.5566)" fill="white" fill-opacity="0.01" style="mix-blend-mode:multiply"/>
<path d="M355.75 23.0567H348.25V26.0567H355.75V23.0567Z" fill="white"/>
<path d="M352 35.0567C351.795 35.057 351.592 35.0169 351.402 34.9384C351.212 34.86 351.04 34.7448 350.895 34.5996L341.957 25.6616C341.664 25.3683 341.5 24.971 341.5 24.5567C341.5 24.1424 341.664 23.745 341.957 23.4518L350.895 14.5137C351.188 14.2211 351.586 14.0567 352 14.0567C352.414 14.0567 352.812 14.2211 353.105 14.5137L362.043 23.4518C362.336 23.745 362.5 24.1424 362.5 24.5567C362.5 24.971 362.336 25.3683 362.043 25.6616L353.105 34.5996C352.96 34.7448 352.788 34.86 352.598 34.9384C352.408 35.0169 352.205 35.057 352 35.0567ZM352 15.5561C351.983 15.5561 351.967 15.5627 351.956 15.5744L343.018 24.5123C343.006 24.5241 342.999 24.5401 342.999 24.5567C342.999 24.5733 343.006 24.5892 343.018 24.601L351.956 33.539C351.967 33.5506 351.983 33.5571 352 33.5571C352.017 33.5571 352.032 33.5506 352.044 33.539L360.982 24.601C360.994 24.5892 361.001 24.5733 361.001 24.5567C361.001 24.5401 360.994 24.5241 360.982 24.5123L352.044 15.5744C352.033 15.5627 352.017 15.5561 352 15.5561Z" fill="white"/>
</g>
<rect x="328.5" y="141.057" width="191" height="47" stroke="#0F62FE"/>
<rect x="329" y="141.557" width="190" height="46" fill="white"/>
<rect x="329" y="141.557" width="190" height="46" fill="#EDF5FF"/>
<g clip-path="url(#clip1_727_5767)">
<path d="M394.996 169.557H393.148V159.785H397.544C399.35 159.785 400.442 161.003 400.442 162.809C400.442 164.629 399.35 165.833 397.544 165.833H394.996V169.557ZM394.996 161.395V164.237H397.376C398.09 164.237 398.524 163.845 398.524 163.131V162.487C398.524 161.773 398.09 161.395 397.376 161.395H394.996ZM403.82 169.557H402.028V162.249H403.82V163.761H403.89C404.072 162.991 404.66 162.249 405.822 162.249H406.214V163.943H405.654C404.45 163.943 403.82 164.279 403.82 165.077V169.557ZM410.57 169.725C408.414 169.725 407.126 168.227 407.126 165.889C407.126 163.579 408.372 162.081 410.514 162.081C412.796 162.081 413.846 163.761 413.846 165.763V166.351H408.988V166.533C408.988 167.583 409.59 168.297 410.766 168.297C411.648 168.297 412.18 167.877 412.628 167.303L413.594 168.381C412.992 169.207 411.928 169.725 410.57 169.725ZM410.542 163.425C409.604 163.425 408.988 164.125 408.988 165.133V165.245H411.984V165.119C411.984 164.111 411.466 163.425 410.542 163.425ZM417.976 169.725C416.59 169.725 415.68 169.221 414.952 168.381L416.044 167.317C416.576 167.933 417.22 168.311 418.046 168.311C418.9 168.311 419.264 167.989 419.264 167.471C419.264 167.051 419.012 166.785 418.368 166.701L417.64 166.603C416.072 166.407 415.204 165.721 415.204 164.391C415.204 162.977 416.31 162.081 417.976 162.081C419.404 162.081 420.132 162.501 420.832 163.229L419.782 164.279C419.362 163.831 418.746 163.495 418.032 163.495C417.262 163.495 416.926 163.803 416.926 164.251C416.926 164.741 417.192 164.965 417.878 165.077L418.62 165.175C420.216 165.399 420.986 166.113 420.986 167.331C420.986 168.745 419.796 169.725 417.976 169.725ZM425.613 169.725C423.457 169.725 422.239 168.241 422.239 165.889C422.239 163.551 423.457 162.081 425.613 162.081C427.083 162.081 428.049 162.781 428.483 163.929L427.013 164.587C426.845 163.971 426.383 163.523 425.613 163.523C424.619 163.523 424.115 164.223 424.115 165.245V166.575C424.115 167.597 424.619 168.283 425.613 168.283C426.467 168.283 426.887 167.793 427.153 167.135L428.525 167.793C428.049 169.081 427.027 169.725 425.613 169.725ZM431.858 169.557H430.066V162.249H431.858V163.761H431.928C432.11 162.991 432.698 162.249 433.86 162.249H434.252V163.943H433.692C432.488 163.943 431.858 164.279 431.858 165.077V169.557ZM436.619 161.185C435.877 161.185 435.569 160.807 435.569 160.289V160.009C435.569 159.491 435.877 159.113 436.619 159.113C437.347 159.113 437.669 159.491 437.669 160.009V160.289C437.669 160.807 437.347 161.185 436.619 161.185ZM435.723 169.557V162.249H437.515V169.557H435.723ZM439.752 169.557V159.197H441.544V163.453H441.6C441.866 162.613 442.65 162.081 443.616 162.081C445.464 162.081 446.486 163.453 446.486 165.889C446.486 168.339 445.464 169.725 443.616 169.725C442.65 169.725 441.88 169.165 441.6 168.339H441.544V169.557H439.752ZM443.042 168.241C443.966 168.241 444.61 167.569 444.61 166.533V165.273C444.61 164.237 443.966 163.551 443.042 163.551C442.188 163.551 441.544 164.013 441.544 164.727V167.051C441.544 167.807 442.188 168.241 443.042 168.241ZM451.26 169.725C449.104 169.725 447.816 168.227 447.816 165.889C447.816 163.579 449.062 162.081 451.204 162.081C453.486 162.081 454.536 163.761 454.536 165.763V166.351H449.678V166.533C449.678 167.583 450.28 168.297 451.456 168.297C452.338 168.297 452.87 167.877 453.318 167.303L454.284 168.381C453.682 169.207 452.618 169.725 451.26 169.725ZM451.232 163.425C450.294 163.425 449.678 164.125 449.678 165.133V165.245H452.674V165.119C452.674 164.111 452.156 163.425 451.232 163.425ZM460.809 169.557V168.339H460.739C460.473 169.165 459.689 169.725 458.723 169.725C456.889 169.725 455.867 168.339 455.867 165.889C455.867 163.453 456.889 162.081 458.723 162.081C459.689 162.081 460.487 162.613 460.739 163.453H460.809V159.197H462.601V169.557H460.809ZM459.297 168.241C460.151 168.241 460.809 167.807 460.809 167.051V164.727C460.809 164.013 460.151 163.551 459.297 163.551C458.373 163.551 457.743 164.237 457.743 165.273V166.533C457.743 167.569 458.373 168.241 459.297 168.241ZM470.088 169.557H468.296V162.249H470.088V163.467H470.158C470.452 162.683 471.068 162.081 472.202 162.081C473.7 162.081 474.54 163.117 474.54 164.937V169.557H472.748V165.119C472.748 164.083 472.398 163.551 471.544 163.551C470.802 163.551 470.088 163.943 470.088 164.727V169.557ZM479.584 169.725C477.498 169.725 476.196 168.241 476.196 165.889C476.196 163.551 477.498 162.081 479.584 162.081C481.684 162.081 482.986 163.551 482.986 165.889C482.986 168.241 481.684 169.725 479.584 169.725ZM479.584 168.283C480.522 168.283 481.11 167.681 481.11 166.575V165.217C481.11 164.125 480.522 163.523 479.584 163.523C478.66 163.523 478.072 164.125 478.072 165.217V166.575C478.072 167.681 478.66 168.283 479.584 168.283ZM489.271 169.557V168.339H489.201C488.935 169.165 488.151 169.725 487.185 169.725C485.351 169.725 484.329 168.339 484.329 165.889C484.329 163.453 485.351 162.081 487.185 162.081C488.151 162.081 488.949 162.613 489.201 163.453H489.271V159.197H491.063V169.557H489.271ZM487.759 168.241C488.613 168.241 489.271 167.807 489.271 167.051V164.727C489.271 164.013 488.613 163.551 487.759 163.551C486.835 163.551 486.205 164.237 486.205 165.273V166.533C486.205 167.569 486.835 168.241 487.759 168.241ZM496.244 169.725C494.088 169.725 492.8 168.227 492.8 165.889C492.8 163.579 494.046 162.081 496.188 162.081C498.47 162.081 499.52 163.761 499.52 165.763V166.351H494.662V166.533C494.662 167.583 495.264 168.297 496.44 168.297C497.322 168.297 497.854 167.877 498.302 167.303L499.268 168.381C498.666 169.207 497.602 169.725 496.244 169.725ZM496.216 163.425C495.278 163.425 494.662 164.125 494.662 165.133V165.245H497.658V165.119C497.658 164.111 497.14 163.425 496.216 163.425Z" fill="black"/>
<path d="M328 140.557H376V188.557H328V140.557Z" fill="#0F62FE"/>
<rect width="24" height="24" transform="translate(340 152.557)" fill="white" fill-opacity="0.01" style="mix-blend-mode:multiply"/>
<path d="M355.75 163.057H348.25V166.057H355.75V163.057Z" fill="white"/>
<path d="M352 175.057C351.795 175.057 351.592 175.017 351.402 174.938C351.212 174.86 351.04 174.745 350.895 174.6L341.957 165.662C341.664 165.368 341.5 164.971 341.5 164.557C341.5 164.142 341.664 163.745 341.957 163.452L350.895 154.514C351.188 154.221 351.586 154.057 352 154.057C352.414 154.057 352.812 154.221 353.105 154.514L362.043 163.452C362.336 163.745 362.5 164.142 362.5 164.557C362.5 164.971 362.336 165.368 362.043 165.662L353.105 174.6C352.96 174.745 352.788 174.86 352.598 174.938C352.408 175.017 352.205 175.057 352 175.057ZM352 155.556C351.983 155.556 351.967 155.563 351.956 155.574L343.018 164.512C343.006 164.524 342.999 164.54 342.999 164.557C342.999 164.573 343.006 164.589 343.018 164.601L351.956 173.539C351.967 173.551 351.983 173.557 352 173.557C352.017 173.557 352.032 173.551 352.044 173.539L360.982 164.601C360.994 164.589 361.001 164.573 361.001 164.557C361.001 164.54 360.994 164.524 360.982 164.512L352.044 155.574C352.033 155.563 352.017 155.556 352 155.556Z" fill="white"/>
</g>
<defs>
<clipPath id="clip0_727_5767">
<rect width="192" height="48" fill="white" transform="translate(328 0.556641)"/>
</clipPath>
<clipPath id="clip1_727_5767">
<rect width="192" height="48" fill="white" transform="translate(328 140.557)"/>
</clipPath>
</defs>
</svg>
