<svg width="607" height="119" viewBox="0 0 607 119" fill="none" xmlns="http://www.w3.org/2000/svg">
<rect width="192" height="90" transform="translate(88 4.55664)" fill="white"/>
<rect x="88" y="4.55664" width="192" height="90" fill="white"/>
<rect x="88" y="4.55664" width="192" height="90" fill="#EDF5FF"/>
<g clip-path="url(#clip0_727_5772)">
<path d="M148.186 33.7246C146.52 33.7246 145.372 33.0666 144.546 32.1006L145.792 30.8966C146.464 31.6806 147.29 32.1006 148.298 32.1006C149.432 32.1006 150.02 31.5546 150.02 30.7286C150.02 30.0706 149.712 29.6646 148.69 29.4826L147.766 29.3426C145.792 29.0346 144.84 28.0966 144.84 26.5006C144.84 24.7506 146.198 23.6166 148.382 23.6166C149.852 23.6166 150.944 24.1206 151.728 25.0586L150.468 26.2486C149.992 25.6466 149.32 25.2406 148.284 25.2406C147.234 25.2406 146.688 25.6606 146.688 26.3886C146.688 27.1306 147.108 27.4386 148.046 27.6066L148.956 27.7746C150.93 28.1246 151.854 29.0066 151.854 30.6166C151.854 32.4646 150.524 33.7246 148.186 33.7246ZM158.123 33.5566V32.3386H158.053C157.801 33.0666 157.213 33.7246 156.009 33.7246C154.511 33.7246 153.671 32.6886 153.671 30.8686V26.2486H155.463V30.6866C155.463 31.6946 155.841 32.2406 156.695 32.2406C157.409 32.2406 158.123 31.8626 158.123 31.0786V26.2486H159.915V33.5566H158.123ZM162.145 33.5566V23.1966H163.937V27.4526H163.993C164.259 26.6126 165.043 26.0806 166.009 26.0806C167.857 26.0806 168.879 27.4526 168.879 29.8886C168.879 32.3386 167.857 33.7246 166.009 33.7246C165.043 33.7246 164.273 33.1646 163.993 32.3386H163.937V33.5566H162.145ZM165.435 32.2406C166.359 32.2406 167.003 31.5686 167.003 30.5326V29.2726C167.003 28.2366 166.359 27.5506 165.435 27.5506C164.581 27.5506 163.937 28.0126 163.937 28.7266V31.0506C163.937 31.8066 164.581 32.2406 165.435 32.2406ZM173.094 33.7246C171.708 33.7246 170.798 33.2206 170.07 32.3806L171.162 31.3166C171.694 31.9326 172.338 32.3106 173.164 32.3106C174.018 32.3106 174.382 31.9886 174.382 31.4706C174.382 31.0506 174.13 30.7846 173.486 30.7006L172.758 30.6026C171.19 30.4066 170.322 29.7206 170.322 28.3906C170.322 26.9766 171.428 26.0806 173.094 26.0806C174.522 26.0806 175.25 26.5006 175.95 27.2286L174.9 28.2786C174.48 27.8306 173.864 27.4946 173.15 27.4946C172.38 27.4946 172.044 27.8026 172.044 28.2506C172.044 28.7406 172.31 28.9646 172.996 29.0766L173.738 29.1746C175.334 29.3986 176.104 30.1126 176.104 31.3306C176.104 32.7446 174.914 33.7246 173.094 33.7246ZM180.888 30.1126L182.162 26.2486H183.842L180.902 34.8586C180.538 35.9086 180.02 36.3566 178.816 36.3566H177.738V34.9286H179.054L179.39 33.9066L176.772 26.2486H178.55L179.824 30.1126L180.3 31.9606H180.384L180.888 30.1126ZM187.468 33.7246C186.082 33.7246 185.172 33.2206 184.444 32.3806L185.536 31.3166C186.068 31.9326 186.712 32.3106 187.538 32.3106C188.392 32.3106 188.756 31.9886 188.756 31.4706C188.756 31.0506 188.504 30.7846 187.86 30.7006L187.132 30.6026C185.564 30.4066 184.696 29.7206 184.696 28.3906C184.696 26.9766 185.802 26.0806 187.468 26.0806C188.896 26.0806 189.624 26.5006 190.324 27.2286L189.274 28.2786C188.854 27.8306 188.238 27.4946 187.524 27.4946C186.754 27.4946 186.418 27.8026 186.418 28.2506C186.418 28.7406 186.684 28.9646 187.37 29.0766L188.112 29.1746C189.708 29.3986 190.478 30.1126 190.478 31.3306C190.478 32.7446 189.288 33.7246 187.468 33.7246ZM194.393 33.5566C193.161 33.5566 192.503 32.8846 192.503 31.6946V27.6766H191.425V26.2486H191.985C192.517 26.2486 192.685 25.9966 192.685 25.4926V24.2466H194.295V26.2486H195.793V27.6766H194.295V32.1286H195.681V33.5566H194.393ZM200.407 33.7246C198.251 33.7246 196.963 32.2266 196.963 29.8886C196.963 27.5786 198.209 26.0806 200.351 26.0806C202.633 26.0806 203.683 27.7606 203.683 29.7626V30.3506H198.825V30.5326C198.825 31.5826 199.427 32.2966 200.603 32.2966C201.485 32.2966 202.017 31.8766 202.465 31.3026L203.431 32.3806C202.829 33.2066 201.765 33.7246 200.407 33.7246ZM200.379 27.4246C199.441 27.4246 198.825 28.1246 198.825 29.1326V29.2446H201.821V29.1186C201.821 28.1106 201.303 27.4246 200.379 27.4246ZM207.212 33.5566H205.42V26.2486H207.212V27.4666H207.282C207.562 26.6966 208.15 26.0806 209.242 26.0806C210.236 26.0806 211.006 26.5706 211.356 27.5506H211.384C211.65 26.7386 212.462 26.0806 213.624 26.0806C215.052 26.0806 215.864 27.1166 215.864 28.9366V33.5566H214.072V29.1186C214.072 28.0686 213.694 27.5506 212.896 27.5506C212.196 27.5506 211.538 27.9426 211.538 28.7266V33.5566H209.746V29.1186C209.746 28.0686 209.368 27.5506 208.57 27.5506C207.884 27.5506 207.212 27.9426 207.212 28.7266V33.5566Z" fill="black"/>
<rect width="24" height="24" transform="translate(104 16.5566)" fill="white" fill-opacity="0.01" style="mix-blend-mode:multiply"/>
<path d="M119.75 27.0567H112.25V30.0567H119.75V27.0567Z" fill="black"/>
<path d="M116 39.0567C115.795 39.057 115.592 39.0169 115.402 38.9384C115.212 38.86 115.04 38.7448 114.895 38.5996L105.957 29.6616C105.664 29.3683 105.5 28.971 105.5 28.5567C105.5 28.1424 105.664 27.745 105.957 27.4518L114.895 18.5137C115.188 18.2211 115.586 18.0567 116 18.0567C116.414 18.0567 116.812 18.2211 117.105 18.5137L126.043 27.4518C126.336 27.745 126.5 28.1424 126.5 28.5567C126.5 28.971 126.336 29.3683 126.043 29.6616L117.105 38.5996C116.96 38.7448 116.788 38.86 116.598 38.9384C116.408 39.0169 116.205 39.057 116 39.0567ZM116 19.5561C115.983 19.5561 115.967 19.5627 115.956 19.5744L107.018 28.5123C107.006 28.5241 106.999 28.5401 106.999 28.5567C106.999 28.5733 107.006 28.5892 107.018 28.601L115.956 37.539C115.967 37.5506 115.983 37.5571 116 37.5571C116.017 37.5571 116.032 37.5506 116.044 37.539L124.982 28.601C124.994 28.5892 125.001 28.5733 125.001 28.5567C125.001 28.5401 124.994 28.5241 124.982 28.5123L116.044 19.5744C116.033 19.5627 116.017 19.5561 116 19.5561Z" fill="black"/>
</g>
<rect x="88" y="0.556641" width="12" height="5" fill="white"/>
<rect x="88" y="0.556641" width="12" height="5" fill="#EDF5FF"/>
<rect x="88.5" y="1.05664" width="11" height="4" fill="white" fill-opacity="0.01" style="mix-blend-mode:multiply"/>
<rect x="88.5" y="1.05664" width="11" height="4" stroke="#0F62FE"/>
<path d="M88.5 5.05664H279.5V94.0566H88.5V5.05664Z" stroke="#0F62FE" stroke-linecap="round" stroke-linejoin="round"/>
<defs>
<clipPath id="clip0_727_5772">
<rect width="192" height="48" fill="white" transform="translate(88 4.55664)"/>
</clipPath>
</defs>
</svg>
