<svg width="607" height="117" viewBox="0 0 607 117" fill="none" xmlns="http://www.w3.org/2000/svg">
<rect x="105.023" y="0.556641" width="64" height="48" rx="24" fill="#0F62FE"/>
<rect width="24" height="24" transform="translate(125.023 12.5566)" fill="white" fill-opacity="0.01" style="mix-blend-mode:multiply"/>
<path d="M140.773 23.0566H133.273V26.0566H140.773V23.0566Z" fill="white"/>
<path d="M137.023 35.0566C136.818 35.057 136.615 35.0168 136.425 34.9384C136.236 34.8599 136.063 34.7448 135.919 34.5996L126.98 25.6615C126.688 25.3683 126.523 24.9709 126.523 24.5566C126.523 24.1423 126.688 23.7449 126.98 23.4517L135.919 14.5137C136.212 14.221 136.609 14.0566 137.023 14.0566C137.438 14.0566 137.835 14.221 138.128 14.5137L147.066 23.4517C147.359 23.7449 147.523 24.1423 147.523 24.5566C147.523 24.9709 147.359 25.3683 147.066 25.6615L138.128 34.5996C137.983 34.7448 137.811 34.8599 137.621 34.9384C137.432 35.0168 137.229 35.057 137.023 35.0566ZM137.023 15.556C137.007 15.556 136.991 15.5626 136.979 15.5743L128.041 24.5123C128.029 24.5241 128.023 24.54 128.023 24.5566C128.023 24.5732 128.029 24.5892 128.041 24.6009L136.979 33.5389C136.991 33.5506 137.007 33.5571 137.023 33.5571C137.04 33.5571 137.056 33.5506 137.068 33.5389L146.006 24.6009C146.017 24.5892 146.024 24.5732 146.024 24.5566C146.024 24.54 146.017 24.5241 146.006 24.5123L137.068 15.5743C137.056 15.5626 137.04 15.556 137.023 15.556Z" fill="white"/>
<path d="M123.974 62.4226H121.202V70.5566H119.354V62.4226H116.582V60.7846H123.974V62.4226ZM126.357 70.7246C124.873 70.7246 124.033 69.8706 124.033 68.5686C124.033 67.0706 125.167 66.3286 127.155 66.3286H128.401V65.7966C128.401 64.9846 127.995 64.5086 127.043 64.5086C126.203 64.5086 125.727 64.9286 125.377 65.4326L124.313 64.4806C124.845 63.6406 125.699 63.0806 127.169 63.0806C129.143 63.0806 130.193 64.0186 130.193 65.6846V69.1286H130.921V70.5566H129.927C129.157 70.5566 128.681 70.0526 128.569 69.2966H128.485C128.247 70.2346 127.449 70.7246 126.357 70.7246ZM126.959 69.4226C127.757 69.4226 128.401 69.0586 128.401 68.3726V67.4066H127.253C126.315 67.4066 125.853 67.7286 125.853 68.3026V68.5406C125.853 69.1286 126.259 69.4226 126.959 69.4226ZM134.323 70.5566H132.531V63.2486H134.323V64.7606H134.393C134.575 63.9906 135.163 63.2486 136.325 63.2486H136.717V64.9426H136.157C134.953 64.9426 134.323 65.2786 134.323 66.0766V70.5566ZM144.549 71.1726C144.549 72.6986 143.513 73.5246 140.713 73.5246C138.249 73.5246 137.311 72.8806 137.311 71.8026C137.311 70.9906 137.801 70.5286 138.613 70.4026V70.2486C138.011 70.0946 137.675 69.6186 137.675 69.0306C137.675 68.2746 138.319 67.8966 139.019 67.7426V67.6866C138.137 67.2806 137.689 66.5246 137.689 65.5586C137.689 64.0746 138.739 63.0806 140.713 63.0806C141.161 63.0806 141.623 63.1366 141.987 63.2626V63.0246C141.987 62.3106 142.351 61.9606 143.023 61.9606H144.157V63.3326H142.603V63.5286C143.359 63.9486 143.737 64.6626 143.737 65.5586C143.737 67.0286 142.701 68.0086 140.713 68.0086C140.293 68.0086 139.915 67.9666 139.593 67.8826C139.313 68.0086 139.075 68.2186 139.075 68.5406C139.075 68.9046 139.383 69.0866 140.027 69.0866H141.987C143.779 69.0866 144.549 69.8566 144.549 71.1726ZM142.869 71.3826C142.869 70.9206 142.533 70.6406 141.623 70.6406H139.131C138.865 70.8366 138.753 71.1026 138.753 71.3966C138.753 71.9566 139.173 72.2926 140.293 72.2926H141.189C142.351 72.2926 142.869 71.9986 142.869 71.3826ZM140.713 66.7906C141.567 66.7906 142.029 66.3986 142.029 65.6706V65.4326C142.029 64.6906 141.567 64.3126 140.713 64.3126C139.859 64.3126 139.397 64.6906 139.397 65.4326V65.6706C139.397 66.3986 139.859 66.7906 140.713 66.7906ZM148.616 70.7246C146.46 70.7246 145.172 69.2266 145.172 66.8886C145.172 64.5786 146.418 63.0806 148.56 63.0806C150.842 63.0806 151.892 64.7606 151.892 66.7626V67.3506H147.034V67.5326C147.034 68.5826 147.636 69.2966 148.812 69.2966C149.694 69.2966 150.226 68.8766 150.674 68.3026L151.64 69.3806C151.038 70.2066 149.974 70.7246 148.616 70.7246ZM148.588 64.4246C147.65 64.4246 147.034 65.1246 147.034 66.1326V66.2446H150.03V66.1186C150.03 65.1106 149.512 64.4246 148.588 64.4246ZM155.91 70.5566C154.678 70.5566 154.02 69.8846 154.02 68.6946V64.6766H152.942V63.2486H153.502C154.034 63.2486 154.202 62.9966 154.202 62.4926V61.2466H155.812V63.2486H157.31V64.6766H155.812V69.1286H157.198V70.5566H155.91ZM109.749 88.5566H105.311V87.0726H106.599V80.2686H105.311V78.7846H109.749V80.2686H108.447V87.0726H109.749V88.5566ZM118.337 80.4226H115.565V88.5566H113.717V80.4226H110.945V78.7846H118.337V80.4226ZM125.76 88.7246C124.374 88.7246 123.464 88.2206 122.736 87.3806L123.828 86.3166C124.36 86.9326 125.004 87.3106 125.83 87.3106C126.684 87.3106 127.048 86.9886 127.048 86.4706C127.048 86.0506 126.796 85.7846 126.152 85.7006L125.424 85.6026C123.856 85.4066 122.988 84.7206 122.988 83.3906C122.988 81.9766 124.094 81.0806 125.76 81.0806C127.188 81.0806 127.916 81.5006 128.616 82.2286L127.566 83.2786C127.146 82.8306 126.53 82.4946 125.816 82.4946C125.046 82.4946 124.71 82.8026 124.71 83.2506C124.71 83.7406 124.976 83.9646 125.662 84.0766L126.404 84.1746C128 84.3986 128.77 85.1126 128.77 86.3306C128.77 87.7446 127.58 88.7246 125.76 88.7246ZM133.555 85.1126L134.829 81.2486H136.508L133.569 89.8586C133.205 90.9086 132.687 91.3566 131.483 91.3566H130.405V89.9286H131.721L132.057 88.9066L129.439 81.2486H131.217L132.491 85.1126L132.967 86.9606H133.051L133.555 85.1126ZM140.135 88.7246C138.749 88.7246 137.839 88.2206 137.111 87.3806L138.203 86.3166C138.735 86.9326 139.379 87.3106 140.205 87.3106C141.059 87.3106 141.423 86.9886 141.423 86.4706C141.423 86.0506 141.171 85.7846 140.527 85.7006L139.799 85.6026C138.231 85.4066 137.363 84.7206 137.363 83.3906C137.363 81.9766 138.469 81.0806 140.135 81.0806C141.563 81.0806 142.291 81.5006 142.991 82.2286L141.941 83.2786C141.521 82.8306 140.905 82.4946 140.191 82.4946C139.421 82.4946 139.085 82.8026 139.085 83.2506C139.085 83.7406 139.351 83.9646 140.037 84.0766L140.779 84.1746C142.375 84.3986 143.145 85.1126 143.145 86.3306C143.145 87.7446 141.955 88.7246 140.135 88.7246ZM147.06 88.5566C145.828 88.5566 145.17 87.8846 145.17 86.6946V82.6766H144.092V81.2486H144.652C145.184 81.2486 145.352 80.9966 145.352 80.4926V79.2466H146.962V81.2486H148.46V82.6766H146.962V87.1286H148.348V88.5566H147.06ZM153.074 88.7246C150.918 88.7246 149.63 87.2266 149.63 84.8886C149.63 82.5786 150.876 81.0806 153.018 81.0806C155.3 81.0806 156.35 82.7606 156.35 84.7626V85.3506H151.492V85.5326C151.492 86.5826 152.094 87.2966 153.27 87.2966C154.152 87.2966 154.684 86.8766 155.132 86.3026L156.098 87.3806C155.496 88.2066 154.432 88.7246 153.074 88.7246ZM153.046 82.4246C152.108 82.4246 151.492 83.1246 151.492 84.1326V84.2446H154.488V84.1186C154.488 83.1106 153.97 82.4246 153.046 82.4246ZM159.878 88.5566H158.086V81.2486H159.878V82.4666H159.948C160.228 81.6966 160.816 81.0806 161.908 81.0806C162.902 81.0806 163.672 81.5706 164.022 82.5506H164.05C164.316 81.7386 165.128 81.0806 166.29 81.0806C167.718 81.0806 168.53 82.1166 168.53 83.9366V88.5566H166.738V84.1186C166.738 83.0686 166.36 82.5506 165.562 82.5506C164.862 82.5506 164.204 82.9426 164.204 83.7266V88.5566H162.412V84.1186C162.412 83.0686 162.034 82.5506 161.236 82.5506C160.55 82.5506 159.878 82.9426 159.878 83.7266V88.5566Z" fill="black"/>
<rect x="328.5" y="1.05664" width="191" height="47" rx="23.5" fill="white"/>
<rect x="328.5" y="1.05664" width="191" height="47" rx="23.5" stroke="#0F62FE"/>
<path d="M329 24.5566C329 11.8541 339.297 1.55664 352 1.55664H496C508.703 1.55664 519 11.8541 519 24.5566V24.5566C519 37.2592 508.703 47.5566 496 47.5566H352C339.297 47.5566 329 37.2592 329 24.5566V24.5566Z" fill="#0F62FE"/>
<path d="M379.182 21.4226H376.41V29.5566H374.562V21.4226H371.79V19.7846H379.182V21.4226ZM381.565 29.7246C380.081 29.7246 379.241 28.8706 379.241 27.5686C379.241 26.0706 380.375 25.3286 382.363 25.3286H383.609V24.7966C383.609 23.9846 383.203 23.5086 382.251 23.5086C381.411 23.5086 380.935 23.9286 380.585 24.4326L379.521 23.4806C380.053 22.6406 380.907 22.0806 382.377 22.0806C384.351 22.0806 385.401 23.0186 385.401 24.6846V28.1286H386.129V29.5566H385.135C384.365 29.5566 383.889 29.0526 383.777 28.2966H383.693C383.455 29.2346 382.657 29.7246 381.565 29.7246ZM382.167 28.4226C382.965 28.4226 383.609 28.0586 383.609 27.3726V26.4066H382.461C381.523 26.4066 381.061 26.7286 381.061 27.3026V27.5406C381.061 28.1286 381.467 28.4226 382.167 28.4226ZM389.531 29.5566H387.739V22.2486H389.531V23.7606H389.601C389.783 22.9906 390.371 22.2486 391.533 22.2486H391.925V23.9426H391.365C390.161 23.9426 389.531 24.2786 389.531 25.0766V29.5566ZM399.757 30.1726C399.757 31.6986 398.721 32.5246 395.921 32.5246C393.457 32.5246 392.519 31.8806 392.519 30.8026C392.519 29.9906 393.009 29.5286 393.821 29.4026V29.2486C393.219 29.0946 392.883 28.6186 392.883 28.0306C392.883 27.2746 393.527 26.8966 394.227 26.7426V26.6866C393.345 26.2806 392.897 25.5246 392.897 24.5586C392.897 23.0746 393.947 22.0806 395.921 22.0806C396.369 22.0806 396.831 22.1366 397.195 22.2626V22.0246C397.195 21.3106 397.559 20.9606 398.231 20.9606H399.365V22.3326H397.811V22.5286C398.567 22.9486 398.945 23.6626 398.945 24.5586C398.945 26.0286 397.909 27.0086 395.921 27.0086C395.501 27.0086 395.123 26.9666 394.801 26.8826C394.521 27.0086 394.283 27.2186 394.283 27.5406C394.283 27.9046 394.591 28.0866 395.235 28.0866H397.195C398.987 28.0866 399.757 28.8566 399.757 30.1726ZM398.077 30.3826C398.077 29.9206 397.741 29.6406 396.831 29.6406H394.339C394.073 29.8366 393.961 30.1026 393.961 30.3966C393.961 30.9566 394.381 31.2926 395.501 31.2926H396.397C397.559 31.2926 398.077 30.9986 398.077 30.3826ZM395.921 25.7906C396.775 25.7906 397.237 25.3986 397.237 24.6706V24.4326C397.237 23.6906 396.775 23.3126 395.921 23.3126C395.067 23.3126 394.605 23.6906 394.605 24.4326V24.6706C394.605 25.3986 395.067 25.7906 395.921 25.7906ZM403.824 29.7246C401.668 29.7246 400.38 28.2266 400.38 25.8886C400.38 23.5786 401.626 22.0806 403.768 22.0806C406.05 22.0806 407.1 23.7606 407.1 25.7626V26.3506H402.242V26.5326C402.242 27.5826 402.844 28.2966 404.02 28.2966C404.902 28.2966 405.434 27.8766 405.882 27.3026L406.848 28.3806C406.246 29.2066 405.182 29.7246 403.824 29.7246ZM403.796 23.4246C402.858 23.4246 402.242 24.1246 402.242 25.1326V25.2446H405.238V25.1186C405.238 24.1106 404.72 23.4246 403.796 23.4246ZM411.118 29.5566C409.886 29.5566 409.228 28.8846 409.228 27.6946V23.6766H408.15V22.2486H408.71C409.242 22.2486 409.41 21.9966 409.41 21.4926V20.2466H411.02V22.2486H412.518V23.6766H411.02V28.1286H412.406V29.5566H411.118ZM421.845 29.5566H417.407V28.0726H418.695V21.2686H417.407V19.7846H421.845V21.2686H420.543V28.0726H421.845V29.5566ZM430.433 21.4226H427.661V29.5566H425.813V21.4226H423.041V19.7846H430.433V21.4226ZM437.856 29.7246C436.47 29.7246 435.56 29.2206 434.832 28.3806L435.924 27.3166C436.456 27.9326 437.1 28.3106 437.926 28.3106C438.78 28.3106 439.144 27.9886 439.144 27.4706C439.144 27.0506 438.892 26.7846 438.248 26.7006L437.52 26.6026C435.952 26.4066 435.084 25.7206 435.084 24.3906C435.084 22.9766 436.19 22.0806 437.856 22.0806C439.284 22.0806 440.012 22.5006 440.712 23.2286L439.662 24.2786C439.242 23.8306 438.626 23.4946 437.912 23.4946C437.142 23.4946 436.806 23.8026 436.806 24.2506C436.806 24.7406 437.072 24.9646 437.758 25.0766L438.5 25.1746C440.096 25.3986 440.866 26.1126 440.866 27.3306C440.866 28.7446 439.676 29.7246 437.856 29.7246ZM445.651 26.1126L446.925 22.2486H448.605L445.665 30.8586C445.301 31.9086 444.783 32.3566 443.579 32.3566H442.501V30.9286H443.817L444.153 29.9066L441.535 22.2486H443.313L444.587 26.1126L445.063 27.9606H445.147L445.651 26.1126ZM452.231 29.7246C450.845 29.7246 449.935 29.2206 449.207 28.3806L450.299 27.3166C450.831 27.9326 451.475 28.3106 452.301 28.3106C453.155 28.3106 453.519 27.9886 453.519 27.4706C453.519 27.0506 453.267 26.7846 452.623 26.7006L451.895 26.6026C450.327 26.4066 449.459 25.7206 449.459 24.3906C449.459 22.9766 450.565 22.0806 452.231 22.0806C453.659 22.0806 454.387 22.5006 455.087 23.2286L454.037 24.2786C453.617 23.8306 453.001 23.4946 452.287 23.4946C451.517 23.4946 451.181 23.8026 451.181 24.2506C451.181 24.7406 451.447 24.9646 452.133 25.0766L452.875 25.1746C454.471 25.3986 455.241 26.1126 455.241 27.3306C455.241 28.7446 454.051 29.7246 452.231 29.7246ZM459.156 29.5566C457.924 29.5566 457.266 28.8846 457.266 27.6946V23.6766H456.188V22.2486H456.748C457.28 22.2486 457.448 21.9966 457.448 21.4926V20.2466H459.058V22.2486H460.556V23.6766H459.058V28.1286H460.444V29.5566H459.156ZM465.17 29.7246C463.014 29.7246 461.726 28.2266 461.726 25.8886C461.726 23.5786 462.972 22.0806 465.114 22.0806C467.396 22.0806 468.446 23.7606 468.446 25.7626V26.3506H463.588V26.5326C463.588 27.5826 464.19 28.2966 465.366 28.2966C466.248 28.2966 466.78 27.8766 467.228 27.3026L468.194 28.3806C467.592 29.2066 466.528 29.7246 465.17 29.7246ZM465.142 23.4246C464.204 23.4246 463.588 24.1246 463.588 25.1326V25.2446H466.584V25.1186C466.584 24.1106 466.066 23.4246 465.142 23.4246ZM471.974 29.5566H470.182V22.2486H471.974V23.4666H472.044C472.324 22.6966 472.912 22.0806 474.004 22.0806C474.998 22.0806 475.768 22.5706 476.118 23.5506H476.146C476.412 22.7386 477.224 22.0806 478.386 22.0806C479.814 22.0806 480.626 23.1166 480.626 24.9366V29.5566H478.834V25.1186C478.834 24.0686 478.456 23.5506 477.658 23.5506C476.958 23.5506 476.3 23.9426 476.3 24.7266V29.5566H474.508V25.1186C474.508 24.0686 474.13 23.5506 473.332 23.5506C472.646 23.5506 471.974 23.9426 471.974 24.7266V29.5566Z" fill="white"/>
</svg>
