<svg xmlns="http://www.w3.org/2000/svg" xmlns:xlink="http://www.w3.org/1999/xlink" viewBox="0 0 32 32"><defs><linearGradient id="2g7y5ewdfa" x1="15" y1="7" x2="30" y2="7" gradientUnits="userSpaceOnUse"><stop offset=".4" stop-color="#fff"/><stop offset="1" stop-color="#fff" stop-opacity="0"/></linearGradient><linearGradient id="6fqbgvwkeb" x1="15" y1="25" x2="30" y2="25" xlink:href="#2g7y5ewdfa"/><linearGradient id="nl98axhsvc" x1="54" y1="7048" x2="69" y2="7048" gradientTransform="rotate(180 35.5 3532)" xlink:href="#2g7y5ewdfa"/><linearGradient id="c1hiiu0wie" y1="32" x2="32" gradientUnits="userSpaceOnUse"><stop offset=".1" stop-color="#3ddbd9"/><stop offset=".9" stop-color="#4589ff"/></linearGradient><mask id="lkn21w6ond" x="0" y="0" width="32" height="32" maskUnits="userSpaceOnUse"><path fill="url(#2g7y5ewdfa)" d="M15 6h15v2H15z"/><path fill="url(#6fqbgvwkeb)" d="M15 24h15v2H15z"/><path fill="url(#nl98axhsvc)" d="M2 15h15v2H2z"/></mask></defs><g data-name="Layer 2"><g data-name="Dark theme icons"><g mask="url(#lkn21w6ond)"><path fill="url(#c1hiiu0wie)" d="M0 0h32v32H0z"/></g><path d="M8 11a4 4 0 1 1 4-4 4 4 0 0 1-4 4zm0-6a2 2 0 1 0 2 2 2 2 0 0 0-2-2zm0 24a4 4 0 1 1 4-4 4 4 0 0 1-4 4zm0-6a2 2 0 1 0 2 2 2 2 0 0 0-2-2zm16-3a4 4 0 1 1 4-4 4 4 0 0 1-4 4zm0-6a2 2 0 1 0 2 2 2 2 0 0 0-2-2z" fill="#f4f4f4"/></g></g></svg>