<svg xmlns="http://www.w3.org/2000/svg" xmlns:xlink="http://www.w3.org/1999/xlink" viewBox="0 0 32 32"><defs><linearGradient id="a" x1="-3786.5" y1="3731.5" x2="-3780.5" y2="3731.5" gradientTransform="translate(3804.5 -3703.5)" gradientUnits="userSpaceOnUse"><stop offset=".001" stop-opacity="0"/><stop offset=".83"/></linearGradient><linearGradient id="b" x1="-3786.5" y1="3749.5" x2="-3780.5" y2="3749.5" gradientTransform="translate(3786.5 -3721.5)" xlink:href="#a"/><linearGradient id="d" y1="32" x2="32" gradientUnits="userSpaceOnUse"><stop offset=".1" stop-color="#3ddbd9"/><stop offset=".9" stop-color="#4589ff"/></linearGradient><mask id="c" x="0" y="0" width="32" height="32" maskUnits="userSpaceOnUse"><path d="M12 4a5 5 0 11-5 5 5 5 0 015-5m0-2a7 7 0 107 7 7 7 0 00-7-7zM22 30h-2v-5a5.006 5.006 0 00-5-5H9a5.006 5.006 0 00-5 5v5H2v-5a7.009 7.009 0 017-7h6a7.009 7.009 0 017 7z" fill="#fff"/><path transform="rotate(90 21 28)" fill="url(#a)" d="M18 26h6v4h-6z" data-name="Gradients (black)"/><path transform="rotate(90 3 28)" fill="url(#b)" d="M0 26h6v4H0z" data-name="Gradients (black)"/></mask></defs><g data-name="Layer 2"><g data-name="Dark theme icons"><g mask="url(#c)"><path fill="url(#d)" d="M0 0h32v32H0z"/></g><path fill="#f4f4f4" d="M22 4h10v2H22zM22 9h10v2H22zM22 14h7v2h-7z"/></g></g></svg>