<svg xmlns="http://www.w3.org/2000/svg" viewBox="0 0 32 32"><defs><linearGradient id="a" x1="15.946" y1="7.054" x2="15.946" y2="20.054" gradientTransform="translate(-10.446 3.946)" gradientUnits="userSpaceOnUse"><stop offset=".2" stop-opacity="0"/><stop offset="1"/></linearGradient><linearGradient id="b" x1="32.446" y1="7.054" x2="32.446" y2="21.054" gradientTransform="translate(-10.446 3.946)" gradientUnits="userSpaceOnUse"><stop offset=".101" stop-opacity="0"/><stop offset=".6"/></linearGradient><linearGradient id="c" x1="224.017" y1="7.054" x2="224.017" y2="21.054" gradientTransform="matrix(.636 0 0 -1 -129.557 32.054)" gradientUnits="userSpaceOnUse"><stop offset=".101" stop-opacity="0"/><stop offset=".8"/></linearGradient><linearGradient id="e" y1="32" x2="32" gradientUnits="userSpaceOnUse"><stop offset=".1" stop-color="#be95ff"/><stop offset=".9" stop-color="#4589ff"/></linearGradient><mask id="d" x="0" y="0" width="32" height="32" maskUnits="userSpaceOnUse"><path d="M27.342 6.06l-11-4a1 1 0 00-.684 0l-11 4A1 1 0 004 7v3a1 1 0 001 1h1v13h2V11h4v13h2V11h4v13h2V11h4v13h2V11h1a1 1 0 001-1V7a1 1 0 00-.658-.94zM26 9H6V7.7l10-3.636L26 7.7z" fill="#fff"/><path fill="url(#a)" d="M1 11h9v13H1z"/><path fill="url(#b)" d="M16 11h12v14H16z"/><path transform="rotate(180 13 18)" fill="url(#c)" d="M10 11h6v14h-6z"/><path fill="#fff" d="M2 28h9v2H2zM4 24h7v2H4z"/></mask></defs><g data-name="Layer 2"><g data-name="Dark theme icons"><g mask="url(#d)"><path fill="url(#e)" d="M0 0h32v32H0z"/></g><path fill="#f4f4f4" d="M29.17 26l-2.58 2.58L28 30l4-4-4-4-1.42 1.41L29.17 26zM16.83 26l2.58-2.58L18 22l-4 4 4 4 1.42-1.41L16.83 26zM20.74 30.57l2.588-9.658 1.932.517-2.588 9.66z"/></g></g></svg>