<svg xmlns="http://www.w3.org/2000/svg" viewBox="0 0 32 32"><defs><linearGradient id="a" x1="-81.793" y1="727.835" x2="-76.793" y2="727.835" gradientTransform="matrix(1.414 0 0 .942 120.469 -676.91)" gradientUnits="userSpaceOnUse"><stop offset=".231" stop-opacity="0"/><stop offset=".834"/></linearGradient><linearGradient id="c" x1="-498" y1="32" x2="-530" gradientTransform="matrix(1 0 0 -1 530 32)" gradientUnits="userSpaceOnUse"><stop offset=".1" stop-color="#be95ff"/><stop offset=".9" stop-color="#4589ff"/></linearGradient><mask id="b" x="0" y="0" width="32" height="32" maskUnits="userSpaceOnUse"><path d="M11.707 10.293L7.7 6.285A2.951 2.951 0 008 5a3 3 0 10-3 3 2.965 2.965 0 001.285-.3l4.008 4.008zM4 5a1 1 0 111 1 1 1 0 01-1-1z" fill="#fff"/><path transform="rotate(45 8.332 8.668)" fill="url(#a)" d="M4.797 6.784h7.071v3.768H4.797z"/><path d="M27 24a2.965 2.965 0 00-1.285.3l-2.743-2.743a12.828 12.828 0 003.94-5.17l.163-.387-.163-.388a12.828 12.828 0 00-3.94-5.17L25.715 7.7A2.965 2.965 0 0027 8a3 3 0 10-3-3 2.951 2.951 0 00.3 1.285l-3.045 3.046A11.185 11.185 0 0016 8a12.016 12.016 0 00-10.912 7.612L4.925 16l.163.388a12.828 12.828 0 003.94 5.17L6.285 24.3A2.965 2.965 0 005 24a3 3 0 103 3 2.951 2.951 0 00-.3-1.285l3.046-3.046a11.039 11.039 0 0010.51 0l3.044 3.046A2.951 2.951 0 0024 27a3 3 0 103-3zm0-20a1 1 0 11-1 1 1 1 0 011-1zM5 28a1 1 0 111-1 1 1 0 01-1 1zm2.1-12a9.972 9.972 0 018.9-6 9.972 9.972 0 018.9 6 9.972 9.972 0 01-8.9 6 9.972 9.972 0 01-8.9-6zM27 28a1 1 0 111-1 1 1 0 01-1 1z" fill="#fff"/></mask></defs><g data-name="Layer 2"><g data-name="Dark theme icons"><g mask="url(#b)"><path transform="rotate(180 16 16)" fill="url(#c)" d="M0 0h32v32H0z"/></g><path d="M16 20a4 4 0 114-4 4 4 0 01-4 4zm0-6a2 2 0 102 2 2 2 0 00-2-2z" fill="#f4f4f4"/></g></g></svg>