<svg xmlns="http://www.w3.org/2000/svg" viewBox="0 0 32 32"><defs><linearGradient id="a" x1="18.715" y1="22.745" x2="29.715" y2="11.745" gradientUnits="userSpaceOnUse"><stop offset=".66"/><stop offset=".95" stop-opacity="0"/></linearGradient><linearGradient id="c" y1="32" x2="32" gradientUnits="userSpaceOnUse"><stop offset=".1" stop-color="#6fdc8c"/><stop offset=".9" stop-color="#009d9a"/></linearGradient><mask id="b" x="0" y="0" width="32" height="32" maskUnits="userSpaceOnUse"><path d="M27.79 6.238a7.495 7.495 0 00-10.684 0l-1.1 1.127-1.112-1.127a7.5 7.5 0 00-10.685 0 7.733 7.733 0 000 10.824L16 28.994l1.425-1.426-11.78-11.923a5.708 5.708 0 010-7.99 5.479 5.479 0 017.814 0l2.553 2.587 2.529-2.587a5.479 5.479 0 017.814 0 5.708 5.708 0 010 7.99l-6.314 6.4 1.426 1.426 6.323-6.4a7.733 7.733 0 000-10.833z" fill="#f2f2f2"/><path fill="url(#a)" d="M27.215 9.245l4 5-10 11-5-5 11-11z"/></mask></defs><g data-name="Layer 2"><g data-name="Dark theme icons"><g mask="url(#b)"><path fill="url(#c)" d="M0 0h32v32H0z"/></g><path d="M28 25h-2v-2h-5v2h-2v-2a2 2 0 012-2h5a2 2 0 012 2zM23.5 20a3.5 3.5 0 113.5-3.5 3.5 3.5 0 01-3.5 3.5zm0-5a1.5 1.5 0 101.5 1.5 1.5 1.5 0 00-1.5-1.5z" fill="#f4f4f4"/></g></g></svg>