<svg xmlns="http://www.w3.org/2000/svg" xmlns:xlink="http://www.w3.org/1999/xlink" viewBox="0 0 32 32"><defs><linearGradient id="a" x1="7.003" y1="24.997" x2="7.003" y2="4.003" gradientUnits="userSpaceOnUse"><stop offset=".1" stop-color="#0072c2"/><stop offset=".9" stop-color="#20d4d1"/></linearGradient><linearGradient id="b" x1="16" y1="27.997" x2="16" y2="7.003" gradientUnits="userSpaceOnUse"><stop offset=".1" stop-color="#20d4d1"/><stop offset=".9" stop-color="#0072c2"/></linearGradient><linearGradient id="c" x1="24.997" y1="24.997" x2="24.997" y2="4.003" xlink:href="#a"/></defs><g data-name="Layer 2"><g data-name="Dark theme icons"><path fill="none" d="M32 32H0V0h32z"/><path d="M7 4a3 3 0 00-3 3v18h6V7a3 3 0 00-3-3z" fill="url(#a)"/><path d="M13 7v18a3 3 0 106 0V7z" fill="url(#b)"/><path d="M25 4a3 3 0 00-3 3v18h6V7a3 3 0 00-3-3z" fill="url(#c)"/><circle cx="16" cy="7.003" r="2.999" fill="#f4f4f4"/><circle cx="24.997" cy="24.997" r="2.999" fill="#f4f4f4"/><circle cx="7.003" cy="24.997" r="2.999" fill="#f4f4f4"/></g></g></svg>