<svg xmlns="http://www.w3.org/2000/svg" viewBox="0 0 32 32"><defs><linearGradient id="linear-gradient" x1="5" y1="29" x2="25" y2="29" gradientUnits="userSpaceOnUse"><stop offset=".1"/><stop offset=".9" stop-opacity="0"/></linearGradient><linearGradient id="linear-gradient-2" y1="32" x2="32" gradientUnits="userSpaceOnUse"><stop offset=".1" stop-color="#be95ff"/><stop offset=".9" stop-color="#4589ff"/></linearGradient><style>.cls-1{fill:#fff}</style><mask id="mask" x="0" y="0" width="32" height="32" maskUnits="userSpaceOnUse"><path class="cls-1" d="M9 23h2v2H9zm12 0h2v2h-2zM9 18h2v2H9zm12 0h2v2h-2zM9 13h2v2H9zm6 10h2v2h-2zm0-5h2v2h-2zm0-5h2v2h-2zm6 0h2v2h-2z"/><path class="cls-1" d="M26 30H6v-2h20V4H6v24H4V4a2 2 0 012-2h20a2 2 0 012 2v24a2 2 0 01-2 2z"/><path fill="url(#linear-gradient)" d="M6 28l19-1v4H5l1-3z"/></mask></defs><g id="Layer_2" data-name="Layer 2"><g id="Dark_theme_icons" data-name="Dark theme icons"><g mask="url(#mask)"><path fill="url(#linear-gradient-2)" d="M0 0h32v32H0z"/></g><path fill="#f4f4f4" d="M9 7h14v3H9z"/></g></g></svg>