<svg xmlns="http://www.w3.org/2000/svg" viewBox="0 0 32 32"><defs><linearGradient id="linear-gradient" x1="3977" y1="3995.5" x2="3986" y2="3995.5" gradientTransform="matrix(1 0 0 -1 -3976 4015)" gradientUnits="userSpaceOnUse"><stop offset="0" stop-opacity="0"/><stop offset=".9"/></linearGradient><linearGradient id="linear-gradient-2" x2="32" y2="32" gradientUnits="userSpaceOnUse"><stop offset=".1" stop-color="#6fdc8c"/><stop offset=".9" stop-color="#009d9a"/></linearGradient><style>.cls-1{fill:#fff}.cls-5{fill:#f4f4f4}</style><mask id="mask" x="0" y="0" width="32" height="32" maskUnits="userSpaceOnUse"><path class="cls-1" d="M4 16v5a7.008 7.008 0 007 7h3v-2h-3a5.006 5.006 0 01-5-5v-5z"/><path transform="rotate(-90 5.5 19.5)" fill="url(#linear-gradient)" d="M1 17h9v5H1z"/><path class="cls-1" d="M18 2h12v2H18zM18 6h12v2H18zM18 10h8v2h-8z"/></mask></defs><g id="Layer_2" data-name="Layer 2"><g id="Dark_theme_icons" data-name="Dark theme icons"><g mask="url(#mask)"><path fill="url(#linear-gradient-2)" d="M0 0h32v32H0z"/></g><path class="cls-5" d="M2 14v2h2v-2a1 1 0 011-1h6a1 1 0 011 1v2h2v-2a3 3 0 00-3-3H5a3 3 0 00-3 3zM8 2a4 4 0 104 4 4 4 0 00-4-4zm0 6a2 2 0 112-2 2 2 0 01-2 2zM18 28v2h2v-2a1 1 0 011-1h6a1 1 0 011 1v2h2v-2a3 3 0 00-3-3h-6a3 3 0 00-3 3zM24 16a4 4 0 104 4 4 4 0 00-4-4zm0 6a2 2 0 112-2 2 2 0 01-2 2z"/></g></g></svg>