<svg xmlns="http://www.w3.org/2000/svg" viewBox="0 0 32 32"><defs><linearGradient id="a" x1="6307" y1="-1686.5" x2="6317" y2="-1686.5" gradientTransform="rotate(180 3163 -837.5)" gradientUnits="userSpaceOnUse"><stop offset=".1" stop-opacity="0"/><stop offset=".7"/></linearGradient><linearGradient id="c" y1="32" x2="32" gradientUnits="userSpaceOnUse"><stop offset=".1" stop-color="#ff7eb6"/><stop offset=".9" stop-color="#a56eff"/></linearGradient><mask id="b" x="0" y="0" width="32" height="32" maskUnits="userSpaceOnUse"><path d="M22 8a5.005 5.005 0 00-1.571.255A8.025 8.025 0 0014 5a7.933 7.933 0 00-4.906 1.68L4.707 2.293 3.293 3.707 9.05 9.464l.707-.707a5.993 5.993 0 018.931.507 4.955 4.955 0 00-.591.611A2.99 2.99 0 0115.754 11H10v2h5.754a4.98 4.98 0 003.9-1.875A3 3 0 0125 13h2a5.006 5.006 0 00-5-5z" fill="#fff"/><path fill="url(#a)" d="M19 14H9v-4l10-1v5z"/><path fill="#fff" d="M9.414 13L2.707 6.293 1.293 7.707 6.586 13h2.828z"/></mask></defs><g data-name="Layer 2"><g data-name="Dark theme icons"><g mask="url(#b)"><path fill="url(#c)" d="M0 0h32v32H0z"/></g><path d="M16 30A14.015 14.015 0 012 16v-1h28v1a14.015 14.015 0 01-14 14zM4.042 17a12 12 0 0023.916 0z" fill="#f4f4f4"/></g></g></svg>