<svg xmlns="http://www.w3.org/2000/svg" viewBox="0 0 32 32"><defs><linearGradient id="a" x1="11" y1="21" x2="11" y2="12" gradientUnits="userSpaceOnUse"><stop offset=".4" stop-color="#fff"/><stop offset="1" stop-color="#fff" stop-opacity="0"/></linearGradient><linearGradient id="c" y1="32" x2="32" gradientUnits="userSpaceOnUse"><stop offset=".1" stop-color="#3ddbd9"/><stop offset=".9" stop-color="#4589ff"/></linearGradient><mask id="b" x="0" y="0" width="32" height="32" maskUnits="userSpaceOnUse"><path d="M26 4H6a2 2 0 00-2 2v4a2 2 0 002 2h20a2 2 0 002-2V6a2 2 0 00-2-2zm0 6H6V6h20z" fill="#fff"/><path fill="url(#a)" d="M10 12h2v9h-2z"/><path d="M17 26H6v-4h11v-2H6a2 2 0 00-2 2v4a2 2 0 002 2h11z" fill="#fff"/></mask></defs><g data-name="Layer 2"><g data-name="Dark theme icons"><g mask="url(#b)"><path fill="url(#c)" d="M0 0h32v32H0z"/></g><circle cx="9" cy="24" r="1" fill="#f4f4f4"/><circle cx="9" cy="8" r="1" fill="#f4f4f4"/><path d="M25 30l-2.139-1.013A5.021 5.021 0 0120 24.468V18h10v6.468a5.021 5.021 0 01-2.861 4.519zm-3-10v4.468a3.012 3.012 0 001.717 2.711l1.283.607 1.283-.607A3.012 3.012 0 0028 24.468V20z" fill="#f4f4f4"/></g></g></svg>