<svg xmlns="http://www.w3.org/2000/svg" viewBox="0 0 32 32"><defs><linearGradient id="a" x1="25.5" y1="19" x2="25.5" y2="9" gradientUnits="userSpaceOnUse"><stop offset="0" stop-opacity="0"/><stop offset=".729"/></linearGradient><linearGradient id="c" y1="32" x2="32" gradientUnits="userSpaceOnUse"><stop offset=".1" stop-color="#be95ff"/><stop offset=".9" stop-color="#4589ff"/></linearGradient><mask id="b" x="0" y="0" width="32" height="32" maskUnits="userSpaceOnUse"><path d="M26 17.6V11h-2v7a.908.908 0 00.3.7l2.7 2.7V23H5v-1.6l2.7-2.7A.908.908 0 008 18v-5a8.024 8.024 0 018-8 7.923 7.923 0 014 1.088V3.8a9.744 9.744 0 00-3-.8V1h-2v2a10.146 10.146 0 00-9 10v4.6l-2.7 2.7a.908.908 0 00-.3.7v3a.945.945 0 001 1h7a5 5 0 0010 0h7a.945.945 0 001-1v-3a.908.908 0 00-.3-.7zM16 28a2.946 2.946 0 01-3-3h6a2.946 2.946 0 01-3 3z" fill="#f2f2f2"/><path fill="url(#a)" d="M22 9h7v10h-7z"/></mask></defs><g data-name="Layer 2"><g data-name="Dark theme icons"><g mask="url(#b)"><path fill="url(#c)" d="M0 0h32v32H0z"/></g><circle cx="26" cy="8" r="4" fill="#f4f4f4"/></g></g></svg>