<svg xmlns="http://www.w3.org/2000/svg" xmlns:xlink="http://www.w3.org/1999/xlink" viewBox="0 0 32 32"><defs><linearGradient id="a" x1="-2271.655" y1="1098.665" x2="-2271.655" y2="1083.665" gradientTransform="rotate(-90 -1669.649 -588.087)" gradientUnits="userSpaceOnUse"><stop offset=".1" stop-color="#fff" stop-opacity="0"/><stop offset=".6" stop-color="#fff"/></linearGradient><linearGradient id="b" x1="-2281.655" y1="1107.665" x2="-2281.655" y2="1092.665" gradientTransform="rotate(-90 -1670.672 -592.903)" gradientUnits="userSpaceOnUse"><stop offset=".4" stop-color="#fff"/><stop offset=".9" stop-color="#fff" stop-opacity="0"/></linearGradient><linearGradient id="c" x1="-813.655" y1="1220.665" x2="-813.655" y2="1205.665" gradientTransform="translate(828.258 -1203.745)" xlink:href="#a"/><linearGradient id="d" x1="-823.655" y1="1229.665" x2="-823.655" y2="1214.665" gradientTransform="translate(841.052 -1199.585)" xlink:href="#b"/><linearGradient id="e" x1="21" y1="19" x2="21" y2="4" xlink:href="#a"/><linearGradient id="f" x1="11" y1="28" x2="11" y2="13" xlink:href="#b"/><linearGradient id="h" y1="32" x2="32" gradientUnits="userSpaceOnUse"><stop offset=".1" stop-color="#be95ff"/><stop offset=".9" stop-color="#4589ff"/></linearGradient><mask id="g" x="0" y="0" width="32" height="32" maskUnits="userSpaceOnUse"><path transform="rotate(-30 9.602 13.919)" fill="url(#a)" d="M2.103 12.92h15v2h-15z"/><path transform="rotate(-30 22.398 18.08)" fill="url(#b)" d="M14.897 17.08h15v2h-15z"/><path transform="rotate(-60 14.603 9.42)" fill="url(#c)" d="M13.603 1.92h2v15h-2z"/><path transform="rotate(-60 17.397 22.58)" fill="url(#d)" d="M16.397 15.08h2v15h-2z"/><path fill="url(#e)" d="M20 4h2v15h-2z"/><path fill="url(#f)" d="M10 13h2v15h-2z"/><path d="M16 30a14 14 0 1114-14 14.015 14.015 0 01-14 14zm0-26a12 12 0 1012 12A12.013 12.013 0 0016 4z" fill="#fff"/></mask></defs><g data-name="Layer 2"><g data-name="Dark theme icons"><g mask="url(#g)"><path fill="url(#h)" d="M0 0h32v32H0z"/></g><circle cx="16" cy="16" r="2" fill="#f4f4f4"/></g></g></svg>