<svg xmlns="http://www.w3.org/2000/svg" viewBox="0 0 32 32"><defs><linearGradient id="a" x1="6" y1="24.5" x2="27" y2="24.5" gradientUnits="userSpaceOnUse"><stop offset=".1" stop-opacity="0"/><stop offset=".705"/></linearGradient><linearGradient id="b" x1="12.72" y1="27.967" x2="12.72" y2="16" gradientUnits="userSpaceOnUse"><stop offset="0" stop-color="#fff" stop-opacity=".05"/><stop offset=".8" stop-color="#fff"/></linearGradient><linearGradient id="d" y1="32" x2="32" gradientUnits="userSpaceOnUse"><stop offset=".1" stop-color="#3ddbd9"/><stop offset=".9" stop-color="#4589ff"/></linearGradient><mask id="c" x="0" y="0" width="32" height="32" maskUnits="userSpaceOnUse"><path d="M16 2a14 14 0 109.9 23.9l-1.414-1.414A11.992 11.992 0 014.049 17H30v-1A14 14 0 0016 2zM4.051 15A12.011 12.011 0 0112.79 4.449 24.336 24.336 0 0010.037 15zm7.982 0a21.788 21.788 0 013.3-10.956 5.11 5.11 0 011.342 0A21.788 21.788 0 0119.967 15zm9.93 0A24.322 24.322 0 0019.21 4.449 12.011 12.011 0 0127.949 15z" fill="#fff"/><path fill="url(#a)" d="M6 18h21v13H6z"/><path d="M15.441 27.967A21.7 21.7 0 0112 16h-2a24.135 24.135 0 002.824 11.56 11.994 11.994 0 002.617.407z" fill="url(#b)"/></mask></defs><g data-name="Layer 2"><g data-name="Dark theme icons"><g mask="url(#c)"><path fill="url(#d)" d="M0 0h32v32H0z"/></g><path fill="#f4f4f4" d="M20 20h10v2H20zM20 24h6v2h-6z"/></g></g></svg>