<svg xmlns="http://www.w3.org/2000/svg" viewBox="0 0 32 32"><defs><linearGradient id="a" x1="-3490" y1="3842" x2="-3490" y2="3827" gradientTransform="translate(3500.5 -3807.5)" gradientUnits="userSpaceOnUse"><stop offset=".5"/><stop offset="1" stop-opacity="0"/></linearGradient><linearGradient id="c" y1="32" x2="32" gradientUnits="userSpaceOnUse"><stop offset=".1" stop-color="#3ddbd9"/><stop offset=".9" stop-color="#4589ff"/></linearGradient><mask id="b" x="0" y="0" width="32" height="32" maskUnits="userSpaceOnUse"><path d="M22 28H6a2 2 0 01-2-2V10a2 2 0 012-2h16a2 2 0 012 2v16a2 2 0 01-2 2zM6 26h16V10H6z" fill="#fff"/><path d="M28 22h-2v-2h2V4H12v2h-2V4a2.006 2.006 0 012-2h16a2.006 2.006 0 012 2v16a2.006 2.006 0 01-2 2z" fill="#fff"/><path transform="rotate(90 10.5 27)" fill="url(#a)" d="M8.5 19.5h4v15h-4z"/><path d="M3 20h4v9.078H3z"/></mask></defs><g data-name="Layer 2"><g data-name="Dark theme icons"><g mask="url(#b)"><path fill="url(#c)" d="M0 0h32v32H0z"/></g><path fill="#f4f4f4" d="M4.451 29.012l11.548-11.6v4.595L18 22v-8h-8v1.992l4.585.007L3.037 27.6l1.414 1.412z"/></g></g></svg>