<svg xmlns="http://www.w3.org/2000/svg" xmlns:xlink="http://www.w3.org/1999/xlink" viewBox="0 0 32 32"><defs><style>.cls-1{fill:#fff;}.cls-2{fill:url(#linear-gradient);}.cls-3{fill:url(#linear-gradient-2);}.cls-4{fill:url(#linear-gradient-3);}.cls-5{mask:url(#mask);}.cls-6{fill:url(#linear-gradient-4);}.cls-7{fill:#f4f4f4;}</style><linearGradient id="linear-gradient" x1="3574.097" y1="-3481.096" x2="3583.097" y2="-3481.096" gradientTransform="translate(-3552.597 3503.596)" gradientUnits="userSpaceOnUse"><stop offset="0.2" stop-opacity="0"/><stop offset="0.8"/></linearGradient><linearGradient id="linear-gradient-2" x1="3574.097" y1="-3461.096" x2="3583.097" y2="-3461.096" gradientTransform="translate(-3572.597 3483.596)" xlink:href="#linear-gradient"/><linearGradient id="linear-gradient-3" x1="3574.097" y1="-3471.096" x2="3583.097" y2="-3471.096" gradientTransform="translate(-3562.597 3493.596)" xlink:href="#linear-gradient"/><mask id="mask" x="0" y="0" width="32" height="32" maskUnits="userSpaceOnUse"><path class="cls-1" d="M25,16H17V12H15v4H7a2,2,0,0,0-2,2v8H7V18h8v8h2V18h8v8h2V18A2,2,0,0,0,25,16Z"/><g id="Gradients_black_" data-name="Gradients (black)"><rect class="cls-2" x="21.5" y="20.5" width="9" height="4" transform="translate(48.5 -3.5) rotate(90)"/></g><g id="Gradients_black_2" data-name="Gradients (black)"><rect class="cls-3" x="1.5" y="20.5" width="9" height="4" transform="translate(28.5 16.5) rotate(90)"/></g><g id="Gradients_black_3" data-name="Gradients (black)"><rect class="cls-4" x="11.5" y="20.5" width="9" height="4" transform="translate(38.5 6.5) rotate(90)"/></g></mask><linearGradient id="linear-gradient-4" y1="32" x2="32" gradientUnits="userSpaceOnUse"><stop offset="0.1" stop-color="#43d1cf"/><stop offset="0.9" stop-color="#418cff"/></linearGradient></defs><g id="Layer_2" data-name="Layer 2"><g id="Subnets"><g class="cls-5"><rect class="cls-6" width="32" height="32"/></g><path class="cls-7" d="M20,10V2H12v8h8ZM14,8V4h4V8Z"/><rect class="cls-7" x="4" y="26" width="4" height="4"/><rect class="cls-7" x="14" y="26" width="4" height="4"/><rect class="cls-7" x="24" y="26" width="4" height="4"/></g></g></svg>