<svg xmlns="http://www.w3.org/2000/svg" viewBox="0 0 32 32"><defs><linearGradient id="a" x1="6.5" y1="17" x2="6.5" y2="7" gradientUnits="userSpaceOnUse"><stop offset=".1"/><stop offset="1" stop-opacity="0"/></linearGradient><linearGradient id="b" x1="25.5" y1="25" x2="25.5" y2="15" gradientUnits="userSpaceOnUse"><stop offset="0" stop-opacity="0"/><stop offset=".9"/></linearGradient><linearGradient id="d" y1="32" x2="32" gradientUnits="userSpaceOnUse"><stop offset=".1" stop-color="#3ddbd9"/><stop offset=".9" stop-color="#4589ff"/></linearGradient><mask id="c" x="0" y="0" width="32" height="32" maskUnits="userSpaceOnUse"><path d="M16 28H6v-2h10a10.011 10.011 0 0010-10h2a12.013 12.013 0 01-12 12zM6 16H4A12.013 12.013 0 0116 4h9v2h-9A10.011 10.011 0 006 16z" fill="#fff"/><path fill="url(#a)" d="M1 7h11v10H1z"/><path fill="url(#b)" d="M20 15h11v10H20z"/></mask></defs><g data-name="Layer 2"><g data-name="Dark theme icons"><g mask="url(#c)"><path fill="url(#d)" d="M0 0h32v32H0z"/></g><path d="M27 11a1.975 1.975 0 00-1.73 1H16a4 4 0 00-4 4 3.959 3.959 0 00.556 2H6.73a2 2 0 100 2H16a4 4 0 004-4 3.959 3.959 0 00-.556-2h5.826A2 2 0 1027 11zm-9 5a2 2 0 11-2-2 2 2 0 012 2z" fill="#f4f4f4"/></g></g></svg>