<svg xmlns="http://www.w3.org/2000/svg" viewBox="0 0 32 32"><defs><linearGradient id="linear-gradient" x1="12" y1="6" x2="23" y2="6" gradientUnits="userSpaceOnUse"><stop offset=".25" stop-opacity="0"/><stop offset=".85"/></linearGradient><linearGradient id="linear-gradient-2" x1="-255.514" y1="-373.498" x2="-255.514" y2="-393.498" gradientTransform="matrix(1 0 0 1.136 271.55 451.77)" gradientUnits="userSpaceOnUse"><stop offset=".08"/><stop offset=".6" stop-opacity="0"/></linearGradient><linearGradient id="linear-gradient-3" y1="32" x2="32" gradientUnits="userSpaceOnUse"><stop offset=".1" stop-color="#a56eff"/><stop offset=".9" stop-color="#ff7eb6"/></linearGradient><style>.cls-1{fill:#fff}</style><mask id="mask" x="0" y="0" width="32" height="32" maskUnits="userSpaceOnUse"><path class="cls-1" d="M23 5H10V2H2v8h8V7h13zM8 8H4V4h4z"/><path fill="url(#linear-gradient)" d="M12 2h11v8H12z"/><path class="cls-1" d="M26 2a4 4 0 00-4 4 3.947 3.947 0 00.567 2.019L7.293 23.293l1.414 1.414L23.981 9.433A3.947 3.947 0 0026 10a4 4 0 000-8zm0 6a2 2 0 112-2 2 2 0 01-2 2z"/><path transform="rotate(45 16.035 15.964)" fill="url(#linear-gradient-2)" d="M11.036 4.601h10v22.728h-10z"/><path class="cls-1" d="M15 25H9.858a4 4 0 100 2H15zm-9 3a2 2 0 112-2 2 2 0 01-2 2z"/></mask></defs><g id="Layer_2" data-name="Layer 2"><g id="Dark_theme_icons" data-name="Dark theme icons"><g mask="url(#mask)"><path fill="url(#linear-gradient-3)" d="M0 0h32v32H0z"/></g><path d="M18 24h12v2H18zm0-4h12v2H18zm0 8h8v2h-8z" fill="#f4f4f4"/></g></g></svg>