<svg xmlns="http://www.w3.org/2000/svg" viewBox="0 0 32 32"><defs><linearGradient id="a" x1="21" y1="13" x2="27" y2="13" gradientUnits="userSpaceOnUse"><stop offset=".15"/><stop offset="1" stop-opacity="0"/></linearGradient><linearGradient id="c" y1="32" x2="32" gradientUnits="userSpaceOnUse"><stop offset=".1" stop-color="#be95ff"/><stop offset=".9" stop-color="#4589ff"/></linearGradient><mask id="b" x="0" y="0" width="32" height="32" maskUnits="userSpaceOnUse"><path d="M30 30h-8l-1-2h7V14h-6v-2h6a2 2 0 012 2z" fill="#fff"/><path fill="url(#a)" d="M21 11h6v4h-6z"/><path d="M22 30H2V4a2 2 0 012-2h16a2 2 0 012 2zM4 28h16V4H4z" fill="#fff"/></mask></defs><g data-name="Layer 2"><g data-name="Build icon here"><g mask="url(#b)"><path fill="url(#c)" d="M0 0h32v32H0z"/></g><path data-name="rect2" fill="#f4f4f4" d="M8 8h2v4H8z"/><path data-name="rect4" fill="#f4f4f4" d="M8 14h2v4H8z"/><path data-name="rect6" fill="#f4f4f4" d="M14 8h2v4h-2z"/><path data-name="rect8" fill="#f4f4f4" d="M14 14h2v4h-2z"/><path data-name="rect10" fill="#f4f4f4" d="M8 20h2v4H8z"/><path data-name="rect12" fill="#f4f4f4" d="M14 20h2v4h-2z"/></g></g></svg>