<svg xmlns="http://www.w3.org/2000/svg" xmlns:xlink="http://www.w3.org/1999/xlink" viewBox="0 0 32 32"><defs><linearGradient id="LILOX_svg__a" x1="-87.5" y1="7418" x2="-78.5" y2="7418" gradientTransform="translate(104.5 -7412.5)" gradientUnits="userSpaceOnUse"><stop offset="0" stop-opacity="0"/><stop offset=".8"/></linearGradient><linearGradient id="LILOX_svg__b" x1="-3731" y1="3652.5" x2="-3722" y2="3652.5" gradientTransform="translate(3732 -3642)" xlink:href="#LILOX_svg__a"/><linearGradient id="LILOX_svg__c" x1="52.5" y1="-12" x2="58.5" y2="-12" gradientTransform="translate(-46.5 38.5)" xlink:href="#LILOX_svg__a"/><linearGradient id="LILOX_svg__d" x1="3672" y1="3744.5" x2="3681" y2="3744.5" gradientTransform="translate(-3650 -3723)" xlink:href="#LILOX_svg__a"/><linearGradient id="LILOX_svg__f" y1="32" x2="32" gradientUnits="userSpaceOnUse"><stop offset=".1" stop-color="#3ddbd9"/><stop offset=".9" stop-color="#4589ff"/></linearGradient><mask id="LILOX_svg__e" x="0" y="0" width="32" height="32" maskUnits="userSpaceOnUse"><path d="M28 12h-2V8a2 2 0 00-2-2h-6V4h6a4.006 4.006 0 014 4z" fill="#fff"/><path transform="rotate(180 21.5 5.5)" fill="url(#LILOX_svg__a)" d="M17 3h9v5h-9z"/><path d="M6 14H4V8a4.006 4.006 0 014-4h4v2H8a2 2 0 00-2 2z" fill="#fff"/><path transform="rotate(90 5.5 10.5)" fill="url(#LILOX_svg__b)" d="M1 8h9v5H1z"/><path d="M11 28H8a4.006 4.006 0 01-4-4v-4h2v4a2 2 0 002 2h3z" fill="#fff"/><path fill="url(#LILOX_svg__c)" d="M6 24h6v5H6z"/><path d="M24 28h-1v-2h1a2 2 0 002-2v-6h2v6a4.006 4.006 0 01-4 4z" fill="#fff"/><path transform="rotate(-90 26.5 21.5)" fill="url(#LILOX_svg__d)" d="M22 19h9v5h-9z"/></mask></defs><g data-name="Layer 2"><g data-name="Dark theme icons"><g mask="url(#LILOX_svg__e)"><path fill="url(#LILOX_svg__f)" d="M0 0h32v32H0z"/></g><path d="M5 18a2 2 0 112-2 2 2 0 01-2 2zM27 18a2 2 0 112-2 2 2 0 01-2 2zM16 7a2 2 0 112-2 2 2 0 01-2 2zM19 30h-6a2 2 0 01-2-2V16a2 2 0 012-2h6a2 2 0 012 2v12a2 2 0 01-2 2zm-6-14v12h6V16z" fill="#f4f4f4"/></g></g></svg>