<svg xmlns="http://www.w3.org/2000/svg" xmlns:xlink="http://www.w3.org/1999/xlink" viewBox="0 0 32 32"><defs><linearGradient id="a" x1="4.75" y1="14.75" x2="15.25" y2="4.25" gradientUnits="userSpaceOnUse"><stop offset=".2"/><stop offset=".85" stop-opacity="0"/></linearGradient><linearGradient id="b" x1="-170.25" y1="39.75" x2="-159.75" y2="29.25" gradientTransform="rotate(90 -59 116)" xlink:href="#a"/><linearGradient id="c" x1="-145.25" y1="214.75" x2="-134.75" y2="204.25" gradientTransform="rotate(180 -59 116)" xlink:href="#a"/><linearGradient id="d" x1="29.75" y1="189.75" x2="40.25" y2="179.25" gradientTransform="rotate(-90 -59 116)" xlink:href="#a"/><linearGradient id="f" y1="32" x2="32" gradientUnits="userSpaceOnUse"><stop offset=".1" stop-color="#be95ff"/><stop offset=".9" stop-color="#4589ff"/></linearGradient><mask id="e" x="0" y="0" width="32" height="32" maskUnits="userSpaceOnUse"><path d="M6.017 13.265l1.375 2.381A15.016 15.016 0 0122 4V2A17.013 17.013 0 006.017 13.265z" fill="#fff"/><path d="M13.265 25.983l2.381-1.375A15.016 15.016 0 014 10H2a17.013 17.013 0 0011.265 15.983z" fill="#fff"/><path d="M25.983 18.735l-1.375-2.381A15.016 15.016 0 0110 28v2a17.013 17.013 0 0015.983-11.265z" fill="#fff"/><path d="M18.735 6.017l-2.381 1.375A15.016 15.016 0 0128 22h2A17.013 17.013 0 0018.735 6.017z" fill="#fff"/><path fill="url(#a)" d="M5 13l3 5 8-10-4-7-7 12z"/><path fill="url(#b)" d="M19 5l-5 3 10 8 7-4-12-7z"/><path fill="url(#c)" d="M27 19l-3-5-8 10 4 7 7-12z"/><path fill="url(#d)" d="M13 27l5-3-10-8-7 4 12 7z"/></mask></defs><g data-name="Layer 2"><g data-name="Dark theme icons"><g mask="url(#e)"><path fill="url(#f)" d="M0 0h32v32H0z"/></g><path fill="#f4f4f4" d="M16 10l1.912 3.703 4.088.594L19 17l.771 4L16 18.75 12.229 21 13 17l-3-2.703 4.2-.594L16 10z"/></g></g></svg>