<svg xmlns="http://www.w3.org/2000/svg" viewBox="0 0 32 32"><defs><linearGradient id="linear-gradient" x1="10" y1="5" x2="27" y2="5" gradientUnits="userSpaceOnUse"><stop offset=".41" stop-opacity="0"/><stop offset=".85"/></linearGradient><linearGradient id="linear-gradient-2" x1="13.565" y1="18.98" x2="27.578" y2="10.89" gradientTransform="rotate(34.709 20.572 14.935)" gradientUnits="userSpaceOnUse"><stop offset=".3"/><stop offset=".8" stop-opacity="0"/></linearGradient><linearGradient id="linear-gradient-3" y1="32" x2="32" gradientUnits="userSpaceOnUse"><stop offset=".1" stop-color="#be95ff"/><stop offset=".9" stop-color="#4589ff"/></linearGradient><style>.cls-1{fill:#fff}</style><mask id="mask" x="0" y="0" width="32" height="32" maskUnits="userSpaceOnUse"><path class="cls-1" d="M16.439 16.294l-1.097 3.193 13.144-9.104-2.346-.808-9.701 6.719zM25.028 6L26.5 4h-16l2.721 2h11.807z"/><path fill="url(#linear-gradient)" d="M10 3h17v4H10z"/><path transform="rotate(-34.709 20.571 14.934)" fill="url(#linear-gradient-2)" d="M12.577 13.435h15.989v3H12.577z"/><path class="cls-1" d="M10.5 6A6.5 6.5 0 114 12.5 6.508 6.508 0 0110.5 6m0-2a8.5 8.5 0 108.5 8.5A8.5 8.5 0 0010.5 4zm16 2A1.5 1.5 0 1125 7.5 1.5 1.5 0 0126.5 6m0-2A3.5 3.5 0 1030 7.5 3.5 3.5 0 0026.5 4z"/><path class="cls-1" d="M10.5 11A1.5 1.5 0 119 12.5a1.5 1.5 0 011.5-1.5m0-2a3.5 3.5 0 103.5 3.5A3.5 3.5 0 0010.5 9z"/></mask></defs><g id="Layer_2" data-name="Layer 2"><g id="Dark_theme_icons" data-name="Dark theme icons"><g mask="url(#mask)"><path fill="url(#linear-gradient-3)" d="M0 0h32v32H0z"/></g><path d="M28 26a1.979 1.979 0 00-.849.2l-2.338-1.619a3.195 3.195 0 000-2.154l2.338-1.627A1.979 1.979 0 0028 21a2 2 0 10-2-2c0 .054.012.1.016.157l-2.342 1.622A3.464 3.464 0 0021.5 20a3.5 3.5 0 000 7 3.464 3.464 0 002.174-.779l2.342 1.622c0 .053-.016.1-.016.157a2 2 0 102-2zm-6.5-1a1.5 1.5 0 111.5-1.5 1.5 1.5 0 01-1.5 1.5z" fill="#f4f4f4"/></g></g></svg>