<svg id="Build_icon_here" data-name="Build icon here" xmlns="http://www.w3.org/2000/svg" xmlns:xlink="http://www.w3.org/1999/xlink" viewBox="0 0 32 32">
  <defs>
    <linearGradient id="linear-gradient" x1="12.5" y1="30" x2="12.5" y2="1" gradientUnits="userSpaceOnUse">
      <stop offset="0.04" stop-color="#fff" stop-opacity="0"/>
      <stop offset="0.3" stop-color="#fff"/>
    </linearGradient>
    <mask id="mask" x="0" y="0" width="32" height="32" maskUnits="userSpaceOnUse">
      <g>
        <path d="M23,8H21V6a2,2,0,0,0-2-2H17V1H15V4H12V1H10V4H8A2,2,0,0,0,6,6V8H4v2H6v4a2,2,0,0,0,2,2H9v2H4a2,2,0,0,0-2,2V30H4V20H18V16h1a2,2,0,0,0,2-2V10h2ZM16,18H11V16h5ZM8,14V6H19v8Z" style="fill: url(#linear-gradient)"/>
        <rect x="10" y="8" width="2" height="2" style="fill: #fff"/>
        <rect x="15" y="8" width="2" height="2" style="fill: #fff"/>
      </g>
    </mask>
    <linearGradient id="linear-gradient-2" y1="32" x2="32" gradientUnits="userSpaceOnUse">
      <stop offset="0.1" stop-color="#be95ff"/>
      <stop offset="0.9" stop-color="#4589ff"/>
    </linearGradient>
  </defs>
  <g>
    <g style="mask: url(#mask)">
      <rect width="32" height="32" style="fill: url(#linear-gradient-2)"/>
    </g>
    <polygon points="22 18 22 20 26.586 20 18 28.586 19.414 30 28 21.414 28 26 30 26 30 18 22 18" style="fill: #f4f4f4"/>
  </g>
</svg>
