<svg xmlns="http://www.w3.org/2000/svg" xmlns:xlink="http://www.w3.org/1999/xlink" viewBox="0 0 32 32">
  <defs>
    <linearGradient id="aab9ab75-bcab-4202-b38e-3410a0229b01" x1="6" y1="25.5" x2="27" y2="25.5" gradientUnits="userSpaceOnUse">
      <stop offset="0.1" stop-opacity="0"/>
      <stop offset="0.75"/>
    </linearGradient>
    <mask id="e2903872-8a64-4ce8-aea7-a27131b3f602" x="0" y="0" width="32" height="32" maskUnits="userSpaceOnUse">
      <g>
        <path d="M15,29a9.011,9.011,0,0,1-9-9V7.618l9-4.5,11,5.5V6.382L15,.882,4,6.382V20a11,11,0,0,0,22,0H24A9.011,9.011,0,0,1,15,29Z" fill="#fff"/>
        <rect x="6" y="19" width="21" height="13" fill="url(#aab9ab75-bcab-4202-b38e-3410a0229b01)"/>
      </g>
    </mask>
    <linearGradient id="bf695af4-d5f7-4a71-97b2-185e3e03dbdd" y1="32" x2="32" gradientUnits="userSpaceOnUse">
      <stop offset="0.2" stop-color="#8a3ffc"/>
      <stop offset="0.8" stop-color="#30b0ff"/>
    </linearGradient>
  </defs>
  <g id="f19a9ee8-7b2e-4ff3-b77d-f303e86ab4b6" data-name="Layer 2">
    <g id="ab828598-aac3-487b-a27f-6ed9a9808692" data-name="Dark theme icons">
      <g>
        <g mask="url(#e2903872-8a64-4ce8-aea7-a27131b3f602)">
          <rect width="32" height="32" fill="url(#bf695af4-d5f7-4a71-97b2-185e3e03dbdd)"/>
        </g>
        <path d="M25,21a2.969,2.969,0,0,0-1.286.3l-2.281-2.281A3.947,3.947,0,0,0,22,17a4,4,0,1,0-4,4,3.947,3.947,0,0,0,2.019-.567L22.3,22.714A2.969,2.969,0,0,0,22,24a3,3,0,1,0,3-3Zm-9-4a2,2,0,1,1,2,2A2,2,0,0,1,16,17Z" fill="#f4f4f4"/>
      </g>
    </g>
  </g>
</svg>
