<svg xmlns="http://www.w3.org/2000/svg" xmlns:xlink="http://www.w3.org/1999/xlink" viewBox="0 0 32 32">
  <defs>
    <linearGradient id="a6c2a0c4-94c3-404a-a3f5-165afe133866" x1="6" y1="25.5" x2="27" y2="25.5" gradientUnits="userSpaceOnUse">
      <stop offset="0.1" stop-opacity="0"/>
      <stop offset="0.75"/>
    </linearGradient>
    <mask id="fee157ad-86a0-49c3-9f3a-76e4ae59d084" x="0" y="0" width="32" height="32" maskUnits="userSpaceOnUse">
      <g>
        <path d="M15,29a9.011,9.011,0,0,1-9-9V7.618l9-4.5,11,5.5V6.382L15,.882,4,6.382V20a11,11,0,0,0,22,0H24A9.011,9.011,0,0,1,15,29Z" fill="#fff"/>
        <rect x="6" y="19" width="21" height="13" fill="url(#a6c2a0c4-94c3-404a-a3f5-165afe133866)"/>
      </g>
    </mask>
    <linearGradient id="b2563577-3099-4e91-897a-4675a30f5dc0" y1="32" x2="32" gradientUnits="userSpaceOnUse">
      <stop offset="0.2" stop-color="#8a3ffc"/>
      <stop offset="0.8" stop-color="#30b0ff"/>
    </linearGradient>
  </defs>
  <g id="b07025cd-6ced-43ca-a8c2-749520fb047c" data-name="Layer 2">
    <g id="e1077970-e890-4fc0-bed7-3ead7afc98b4" data-name="Dark theme icons">
      <g>
        <g mask="url(#fee157ad-86a0-49c3-9f3a-76e4ae59d084)">
          <rect width="32" height="32" fill="url(#b2563577-3099-4e91-897a-4675a30f5dc0)"/>
        </g>
        <g>
          <circle cx="16" cy="13" r="2" fill="#f4f4f4"/>
          <circle cx="24" cy="13" r="2" fill="#f4f4f4"/>
          <path d="M27,22H25V18H22.535L20,21.8,17.465,18H15v4H13V18a2,2,0,0,1,2-2h3.535L20,18.2,21.465,16H25a2,2,0,0,1,2,2Z" fill="#f4f4f4"/>
          <rect x="15" y="22" width="2" height="5" fill="#f4f4f4"/>
          <rect x="23" y="22" width="2" height="5" fill="#f4f4f4"/>
        </g>
      </g>
    </g>
  </g>
</svg>
