<svg xmlns="http://www.w3.org/2000/svg" xmlns:xlink="http://www.w3.org/1999/xlink" viewBox="0 0 32 32">
  <defs>
    <linearGradient id="a390f035-3b07-4d7c-a6d6-1a5427daa4e6" x1="6" y1="25.5" x2="27" y2="25.5" gradientUnits="userSpaceOnUse">
      <stop offset="0.1" stop-opacity="0"/>
      <stop offset="0.75"/>
    </linearGradient>
    <mask id="ea19876a-ff46-4259-b541-c73874d31fa7" x="0" y="0" width="32" height="32" maskUnits="userSpaceOnUse">
      <g>
        <path d="M15,29a9.011,9.011,0,0,1-9-9V7.618l9-4.5,11,5.5V6.382L15,.882,4,6.382V20a11,11,0,0,0,22,0H24A9.011,9.011,0,0,1,15,29Z" fill="#fff"/>
        <rect x="6" y="19" width="21" height="13" fill="url(#a390f035-3b07-4d7c-a6d6-1a5427daa4e6)"/>
      </g>
    </mask>
    <linearGradient id="a1766ff5-0c42-456a-a9dc-b6ad4c96225e" y1="32" x2="32" gradientUnits="userSpaceOnUse">
      <stop offset="0.2" stop-color="#8a3ffc"/>
      <stop offset="0.8" stop-color="#30b0ff"/>
    </linearGradient>
  </defs>
  <g id="f80c7072-e9af-4a56-b837-8966c9867ad1" data-name="Layer 2">
    <g id="a5bd5398-e59f-446c-8a96-3d12bac7be10" data-name="Dark theme icons">
      <g>
        <g mask="url(#ea19876a-ff46-4259-b541-c73874d31fa7)">
          <rect width="32" height="32" fill="url(#a1766ff5-0c42-456a-a9dc-b6ad4c96225e)"/>
        </g>
        <g>
          <rect x="16" y="15" width="12" height="2" fill="#f4f4f4"/>
          <rect x="16" y="19" width="12" height="2" fill="#f4f4f4"/>
          <rect x="16" y="23" width="6" height="2" fill="#f4f4f4"/>
        </g>
      </g>
    </g>
  </g>
</svg>
