<svg xmlns="http://www.w3.org/2000/svg" xmlns:xlink="http://www.w3.org/1999/xlink" viewBox="0 0 32 32">
  <defs>
    <linearGradient id="a87b699a-3f60-4be8-bb8e-0b0a88f1293e" x1="6" y1="25.5" x2="27" y2="25.5" gradientUnits="userSpaceOnUse">
      <stop offset="0.1" stop-opacity="0"/>
      <stop offset="0.75"/>
    </linearGradient>
    <mask id="ff0ed74b-4a9c-44a6-ae95-5b7aab0e67c8" x="0" y="0" width="32" height="32" maskUnits="userSpaceOnUse">
      <g>
        <path d="M15,29a9.011,9.011,0,0,1-9-9V7.618l9-4.5,11,5.5V6.382L15,.882,4,6.382V20a11,11,0,0,0,22,0H24A9.011,9.011,0,0,1,15,29Z" fill="#fff"/>
        <rect x="6" y="19" width="21" height="13" fill="url(#a87b699a-3f60-4be8-bb8e-0b0a88f1293e)"/>
      </g>
    </mask>
    <linearGradient id="fe8e5401-45d3-4ceb-8f11-5e60ca059bd1" y1="32" x2="32" gradientUnits="userSpaceOnUse">
      <stop offset="0.2" stop-color="#8a3ffc"/>
      <stop offset="0.8" stop-color="#30b0ff"/>
    </linearGradient>
  </defs>
  <g id="abb676b4-980d-48d1-9653-04cbd80af2ea" data-name="Layer 2">
    <g id="fe342991-ea36-41c4-ba7e-0187c6a79945" data-name="Dark theme icons">
      <g>
        <g mask="url(#ff0ed74b-4a9c-44a6-ae95-5b7aab0e67c8)">
          <rect width="32" height="32" fill="url(#fe8e5401-45d3-4ceb-8f11-5e60ca059bd1)"/>
        </g>
        <path d="M25,20a2.964,2.964,0,0,0-1.855.661L21,19.422V17.816a3,3,0,1,0-2,0v1.606l-2.145,1.239A2.964,2.964,0,0,0,15,20a3,3,0,1,0,3,3,2.937,2.937,0,0,0-.075-.647L20,21.155l2.075,1.2A2.937,2.937,0,0,0,22,23a3,3,0,1,0,3-3ZM15,24a1,1,0,1,1,1-1A1,1,0,0,1,15,24Zm5-10a1,1,0,1,1-1,1A1,1,0,0,1,20,14Zm5,10a1,1,0,1,1,1-1A1,1,0,0,1,25,24Z" fill="#f4f4f4"/>
      </g>
    </g>
  </g>
</svg>
