<svg xmlns="http://www.w3.org/2000/svg" xmlns:xlink="http://www.w3.org/1999/xlink" viewBox="0 0 32 32">
  <defs>
    <linearGradient id="e9d51a65-45b7-493a-93c1-0d7b35091c69" x1="6" y1="25.5" x2="27" y2="25.5" gradientUnits="userSpaceOnUse">
      <stop offset="0.1" stop-opacity="0"/>
      <stop offset="0.75"/>
    </linearGradient>
    <mask id="a77f9356-8243-4074-9970-05b490767ac2" x="0" y="0" width="32" height="32" maskUnits="userSpaceOnUse">
      <g>
        <path d="M15,29a9.011,9.011,0,0,1-9-9V7.618l9-4.5,11,5.5V6.382L15,.882,4,6.382V20a11,11,0,0,0,22,0H24A9.011,9.011,0,0,1,15,29Z" fill="#fff"/>
        <rect x="6" y="19" width="21" height="13" fill="url(#e9d51a65-45b7-493a-93c1-0d7b35091c69)"/>
      </g>
    </mask>
    <linearGradient id="b412271f-6ed8-404e-87d6-ded6040b3b23" y1="32" x2="32" gradientUnits="userSpaceOnUse">
      <stop offset="0.2" stop-color="#8a3ffc"/>
      <stop offset="0.8" stop-color="#30b0ff"/>
    </linearGradient>
  </defs>
  <g id="a42a79b1-8532-401e-b22c-4d2d5f335f01" data-name="Layer 2">
    <g id="a3f8fdb6-b5ff-4219-9449-751166ec9587" data-name="Dark theme icons">
      <g>
        <g mask="url(#a77f9356-8243-4074-9970-05b490767ac2)">
          <rect width="32" height="32" fill="url(#b412271f-6ed8-404e-87d6-ded6040b3b23)"/>
        </g>
        <path d="M28.707,15.293l-3-3a1,1,0,0,0-1.414,0L15,21.586V26h4.414l9.293-9.293A1,1,0,0,0,28.707,15.293ZM18.586,24H17V22.414l5-5L23.586,19ZM25,17.586,23.414,16,25,14.414,26.586,16Z" fill="#f4f4f4"/>
      </g>
    </g>
  </g>
</svg>
