<svg xmlns="http://www.w3.org/2000/svg" xmlns:xlink="http://www.w3.org/1999/xlink" viewBox="0 0 32 32">
  <defs>
    <linearGradient id="ab95cca6-12a0-40e0-93b0-6e3353eb00b4" x1="2.027" y1="19.953" x2="22.973" y2="32.047" gradientUnits="userSpaceOnUse">
      <stop offset="0.4"/>
      <stop offset="0.63" stop-opacity="0"/>
    </linearGradient>
    <linearGradient id="b79e1c87-1ca6-4597-9e3b-f096e7dff413" x1="2.027" y1="-400.047" x2="22.973" y2="-387.953" gradientTransform="matrix(1, 0, 0, -1, 0, -388)" xlink:href="#ab95cca6-12a0-40e0-93b0-6e3353eb00b4"/>
    <mask id="e330fbb8-578c-4d32-8d93-3e2238e326d8" x="0" y="0" width="32" height="32" maskUnits="userSpaceOnUse">
      <g>
        <path d="M27,15H13.816a3,3,0,1,0,0,2H27v5.426L16,28.842,4.5,22.136,3.5,23.864l12,7a1,1,0,0,0,1.008,0l12-7A1,1,0,0,0,29,23V17A2,2,0,0,0,27,15ZM11,17a1,1,0,1,1,1-1A1,1,0,0,1,11,17Z" fill="#f4f4f4"/>
        <path d="M27.5,9.864,16,3.158,4.5,9.864,3.5,8.136l12-7a1,1,0,0,1,1.008,0l12,7Z" fill="#fff"/>
        <rect x="2" y="20" width="21" height="12" fill="url(#ab95cca6-12a0-40e0-93b0-6e3353eb00b4)"/>
        <rect x="2" width="21" height="12" fill="url(#b79e1c87-1ca6-4597-9e3b-f096e7dff413)"/>
      </g>
    </mask>
    <linearGradient id="a7e56132-4316-43f6-9456-de78925f90f8" y1="32" x2="32" gradientUnits="userSpaceOnUse">
      <stop offset="0.1" stop-color="#ff7eb6"/>
      <stop offset="0.9" stop-color="#a56eff"/>
    </linearGradient>
  </defs>
  <g id="ef83cb8e-b059-45f1-9129-5fe4dcb8b364" data-name="Layer 2">
    <g id="eac27e14-7c8e-4840-b51a-bac93fdbfede" data-name="Dark theme icons">
      <g>
        <g mask="url(#e330fbb8-578c-4d32-8d93-3e2238e326d8)">
          <rect width="32" height="32" fill="url(#a7e56132-4316-43f6-9456-de78925f90f8)"/>
        </g>
        <path d="M17,24H5a2,2,0,0,1-2-2V10A2,2,0,0,1,5,8H17a2,2,0,0,1,2,2v3H17V10H5V22H17V19h2v3A2,2,0,0,1,17,24Z" fill="#f4f4f4"/>
      </g>
    </g>
  </g>
</svg>
