<svg data-name="Build icon here" xmlns="http://www.w3.org/2000/svg" xmlns:xlink="http://www.w3.org/1999/xlink" viewBox="0 0 32 32"><defs><linearGradient id="h03ij6r2pa" x1="28.019" y1="23.025" x2="15.981" y2="29.975" gradientTransform="rotate(30.258 22.001 26.5)" gradientUnits="userSpaceOnUse"><stop offset=".1" stop-color="#fff" stop-opacity="0"/><stop offset=".6" stop-color="#fff"/></linearGradient><linearGradient id="ja8plj4gtb" x1="3.981" y1="8.975" x2="16.019" y2="2.025" gradientTransform="rotate(30.258 10 5.5)" xlink:href="#h03ij6r2pa"/><linearGradient id="fwpkg3yzwc" x1="16.019" y1="29.975" x2="3.981" y2="23.025" gradientTransform="rotate(59.744 10 26.5)" xlink:href="#h03ij6r2pa"/><linearGradient id="zu3ve49qod" x1="14.096" y1="5.288" x2="26.997" y2="12.737" gradientUnits="userSpaceOnUse"><stop offset=".1" stop-color="#fff" stop-opacity="0"/><stop offset=".57" stop-color="#fff"/></linearGradient><linearGradient id="4bcnsn0j6e" x1="15.998" y1="28" x2="15.998" y2="19" gradientUnits="userSpaceOnUse"><stop offset=".2" stop-opacity="0"/><stop offset=".7"/></linearGradient><linearGradient id="flwlnxhoof" x1="27.391" y1="9.676" x2="17.609" y2="15.324" gradientUnits="userSpaceOnUse"><stop offset=".24" stop-opacity="0"/><stop offset=".67"/></linearGradient><linearGradient id="6nts1b9p6g" x1="28" y1="9" x2="28" y2="23" xlink:href="#h03ij6r2pa"/><linearGradient id="b82nuvjeyh" x1="4" y1="9" x2="4" y2="23" gradientUnits="userSpaceOnUse"><stop offset=".4" stop-color="#fff"/><stop offset=".9" stop-color="#fff" stop-opacity="0"/></linearGradient><linearGradient id="u1yw80ljhj" y1="32" x2="32" gradientUnits="userSpaceOnUse"><stop offset=".1" stop-color="#3ddbd9"/><stop offset=".9" stop-color="#4589ff"/></linearGradient><mask id="z2usgzedii" x="0" y="0" width="32" height="32" maskUnits="userSpaceOnUse"><path transform="rotate(-30.258 22 26.5)" fill="url(#h03ij6r2pa)" d="M15.054 25.5h13.892v2H15.054z"/><path transform="rotate(-30.258 10 5.5)" fill="url(#ja8plj4gtb)" d="M3.054 4.5h13.892v2H3.054z"/><path transform="rotate(-59.744 10 26.5)" fill="url(#fwpkg3yzwc)" d="M9 19.554h2v13.892H9z"/><path d="M16 31a1 1 0 0 1-1-1v-9.333a1 1 0 0 1 2 0V30a1 1 0 0 1-1 1z" fill="#fff"/><path d="m20.5 14.53 8-4.666a1 1 0 0 0 .36-1.368.975.975 0 0 0-.36-.346l.008-.014-12-7L15.5 2.864 26.015 9 19.5 12.8z" fill="url(#zu3ve49qod)"/><path fill="url(#4bcnsn0j6e)" d="M13.998 19h4v9h-4z"/><path fill="url(#flwlnxhoof)" d="M18 9h9v7h-9z"/><path fill="url(#6nts1b9p6g)" d="M27 9h2v14h-2z"/><path fill="url(#b82nuvjeyh)" d="M3 9h2v14H3z"/></mask></defs><g mask="url(#z2usgzedii)"><path fill="url(#u1yw80ljhj)" d="M0 0h32v32H0z"/></g><path d="M16 21.667a1 1 0 0 1-.5-.137l-4-2.333a1 1 0 0 1-.5-.864v-4.666a1 1 0 0 1 .5-.864l4-2.333a1 1 0 0 1 1.008 0l4 2.333a1 1 0 0 1 .5.864v4.666a1 1 0 0 1-.5.864l-4 2.333a1 1 0 0 1-.508.137zm-3-3.908 3 1.75 3-1.75v-3.518l-3-1.75-3 1.75z" fill="#f4f4f4"/></svg>