<svg xmlns="http://www.w3.org/2000/svg" xmlns:xlink="http://www.w3.org/1999/xlink" viewBox="0 0 32 32"><defs><linearGradient id="e6sexmqz5b" x1="1283.009" y1="-5349.052" x2="1308.009" y2="-5349.052" gradientTransform="rotate(90 -2028.052 -3305)" gradientUnits="userSpaceOnUse"><stop offset="0" stop-color="#fff" stop-opacity="0"/><stop offset=".4" stop-color="#fff"/></linearGradient><linearGradient id="pnx1d0xdwa" x1="16" y1="16" x2="16" y2="25" gradientUnits="userSpaceOnUse"><stop offset=".2" stop-color="#fff" stop-opacity="0"/><stop offset=".7" stop-color="#fff"/></linearGradient><linearGradient id="jhkxe2i2qc" x1="-1174.103" y1="222.595" x2="-1174.103" y2="213.595" gradientTransform="translate(1184.103 -200.595)" xlink:href="#pnx1d0xdwa"/><linearGradient id="2mwpj0ec0d" x1="22" y1="13" x2="22" y2="22" xlink:href="#pnx1d0xdwa"/><linearGradient id="2c8yj3qi1f" x1="1308.948" y1="-5333.052" x2="1276.948" y2="-5365.052" gradientTransform="translate(-1276.948 5365.052)" gradientUnits="userSpaceOnUse"><stop offset=".1" stop-color="#3ddbd9"/><stop offset=".9" stop-color="#4589ff"/></linearGradient><mask id="wzbv8qzc4e" x="0" y="0" width="32" height="32" maskUnits="userSpaceOnUse"><path d="M3 23.061v-17h2v16.426L16 28.9l11-6.416V6.061h2v17a1 1 0 0 1-.5.864l-12 7a1 1 0 0 1-1.008 0l-12-7A1 1 0 0 1 3 23.061z" fill="url(#e6sexmqz5b)"/><path fill="url(#pnx1d0xdwa)" d="M15 16h2v9h-2z"/><path transform="rotate(180 10 17.5)" fill="url(#jhkxe2i2qc)" d="M9 13h2v9H9z"/><path fill="url(#2mwpj0ec0d)" d="M21 13h2v9h-2z"/></mask></defs><g data-name="Layer 2"><g data-name="dark theme"><g mask="url(#wzbv8qzc4e)"><path transform="rotate(90 16 16)" fill="url(#2c8yj3qi1f)" d="M0 0h32v32H0z"/></g><path d="M16 17a1 1 0 0 1-.5-.136l-6-3.5A1 1 0 0 1 9 12.5v-7a1 1 0 0 1 .5-.864l6-3.5a1 1 0 0 1 1.008 0l6 3.5A1 1 0 0 1 23 5.5v7a1 1 0 0 1-.5.864l-6 3.5A1 1 0 0 1 16 17zm-5-5.074 5 2.916 5-2.916V6.074l-5-2.916-5 2.916z" fill="#f4f4f4"/></g></g></svg>