<svg xmlns="http://www.w3.org/2000/svg" xmlns:xlink="http://www.w3.org/1999/xlink" viewBox="0 0 32 32">
  <defs>
    <linearGradient id="aad88c9e-84cb-4668-a5f1-f30e5f6cb987" x1="8" y1="24" x2="8" y2="8" gradientUnits="userSpaceOnUse">
      <stop offset="0.1"/>
      <stop offset="0.7" stop-opacity="0"/>
    </linearGradient>
    <linearGradient id="ed955126-40c9-4202-a689-9267eed15135" x1="-4656" y1="-6698" x2="-4656" y2="-6714" gradientTransform="translate(-4632 -6690) rotate(180)" xlink:href="#aad88c9e-84cb-4668-a5f1-f30e5f6cb987"/>
    <linearGradient id="f50b39d9-4fa3-45e9-9d86-4f4478165d57" x1="28" y1="28" x2="28" y2="10" gradientUnits="userSpaceOnUse">
      <stop offset="0.05"/>
      <stop offset="0.5" stop-opacity="0"/>
    </linearGradient>
    <linearGradient id="ebb8bd4d-c5c2-4bee-87ec-c53410175b9e" x1="-4676" y1="-6692" x2="-4676" y2="-6710" gradientTransform="translate(4680 6714)" xlink:href="#f50b39d9-4fa3-45e9-9d86-4f4478165d57"/>
    <mask id="a0d04668-3c35-4df1-8e5f-08f8b1ff23de" x="0" y="0" width="32" height="32" maskUnits="userSpaceOnUse">
      <path d="M16,31a1,1,0,0,1-.5-.136l-12-7A1,1,0,0,1,3,23V5H5V22.426l11,6.416,7-4.083V9h2V25.333a1,1,0,0,1-.5.864l-8,4.667A1,1,0,0,1,16,31Z" fill="#fff"/>
      <path d="M29,27H27V9.574L16,3.158,9,7.241V23H7V6.667A1,1,0,0,1,7.5,5.8l8-4.667a1,1,0,0,1,1.008,0l12,7A1,1,0,0,1,29,9Z" fill="#fff"/>
      <polygon points="10 8 6 8 6 22 7 23 10 24 10 8" fill="url(#aad88c9e-84cb-4668-a5f1-f30e5f6cb987)"/>
      <polygon points="22 24 26 24 26 10 25 9 22 8 22 24" fill="url(#ed955126-40c9-4202-a689-9267eed15135)"/>
      <rect x="26" y="10" width="4" height="18" fill="url(#f50b39d9-4fa3-45e9-9d86-4f4478165d57)"/>
      <rect x="2" y="4" width="4" height="18" transform="translate(8 26) rotate(180)" fill="url(#ebb8bd4d-c5c2-4bee-87ec-c53410175b9e)"/>
    </mask>
    <linearGradient id="a7ee2524-fc1d-4d3f-9b02-461c53412db4" y1="32" x2="32" gradientUnits="userSpaceOnUse">
      <stop offset="0.1" stop-color="#3ddbd9"/>
      <stop offset="0.9" stop-color="#4589ff"/>
    </linearGradient>
  </defs>
  <g id="a74e47b2-edd3-4c18-8257-bdcc769b9aeb" data-name="Layer 2">
    <g id="a7525dac-d338-42cc-b650-583f3f17fc7e" data-name="dark theme">
      <g>
        <g mask="url(#a0d04668-3c35-4df1-8e5f-08f8b1ff23de)">
          <rect width="32" height="32" fill="url(#a7ee2524-fc1d-4d3f-9b02-461c53412db4)"/>
        </g>
        <path d="M16,21.667a1,1,0,0,1-.5-.137l-4-2.333a1,1,0,0,1-.5-.864V13.667a1,1,0,0,1,.5-.864l4-2.333a1,1,0,0,1,1.008,0l4,2.333a1,1,0,0,1,.5.864v4.666a1,1,0,0,1-.5.864l-4,2.333A1,1,0,0,1,16,21.667Zm-3-3.908,3,1.75,3-1.75V14.241l-3-1.75-3,1.75Z" fill="#f4f4f4"/>
      </g>
    </g>
  </g>
</svg>
