<svg xmlns="http://www.w3.org/2000/svg" viewBox="0 0 32 32"><defs><linearGradient id="a" x1="16.858" y1="3.531" x2="26.824" y2="20.792" gradientUnits="userSpaceOnUse"><stop offset=".051" stop-color="#fff" stop-opacity="0"/><stop offset=".399" stop-color="#fff"/></linearGradient><linearGradient id="b" x1="-738.094" y1="-589.368" x2="-746.906" y2="-604.632" gradientTransform="translate(748 620)" gradientUnits="userSpaceOnUse"><stop offset=".139" stop-opacity="0"/><stop offset=".569"/></linearGradient><linearGradient id="c" x1="16" y1="10" x2="25" y2="10" gradientUnits="userSpaceOnUse"><stop offset=".39" stop-color="#fff"/><stop offset=".949" stop-color="#fff" stop-opacity="0"/></linearGradient><linearGradient id="d" x1="10" y1="23" x2="10" y2="6" gradientUnits="userSpaceOnUse"><stop offset=".58" stop-color="#fff"/><stop offset=".9" stop-color="#fff" stop-opacity="0"/></linearGradient><linearGradient id="f" y1="32" x2="32" gradientUnits="userSpaceOnUse"><stop offset=".1" stop-color="#3ddbd9"/><stop offset=".9" stop-color="#24a148"/></linearGradient><mask id="e" x="0" y="0" width="32" height="32" maskUnits="userSpaceOnUse"><path d="M23 23h-2v-6a2 2 0 012-2h5.259L20.386 1.5l1.728-1 8.75 15A1 1 0 0130 17h-7z" fill="url(#a)"/><path d="M8.136 28.5l-7-12a1 1 0 010-1.008l7-12A1 1 0 019 3h6a2 2 0 012 2v18h-2V5H9.574L3.158 16l6.706 11.5z" fill="#fff"/><path transform="rotate(180 5.5 23)" fill="url(#b)" d="M0 16h11v14H0z"/><path fill="url(#c)" d="M16 9h9v2h-9z"/><path fill="url(#d)" d="M9 6h2v17H9z"/></mask></defs><g data-name="Layer 2"><g data-name="Dark theme icons"><g mask="url(#e)"><path fill="url(#f)" d="M0 0h32v32H0z"/></g><circle cx="10" cy="27" r="2" fill="#f4f4f4"/><circle cx="22" cy="27" r="2" fill="#f4f4f4"/><circle cx="16" cy="27" r="2" fill="#f4f4f4"/></g></g></svg>