<svg xmlns="http://www.w3.org/2000/svg" xmlns:xlink="http://www.w3.org/1999/xlink" viewBox="0 0 32 32"><defs><linearGradient id="zsm5hq2p5a" x1="13" y1="26" x2="24" y2="26" gradientUnits="userSpaceOnUse"><stop offset=".3" stop-color="#fff"/><stop offset=".8" stop-color="#fff" stop-opacity="0"/></linearGradient><linearGradient id="833552ckwb" x1="13" y1="6" x2="24" y2="6" xlink:href="#zsm5hq2p5a"/><linearGradient id="7byd7xrnhc" x1="19" y1="16" x2="30" y2="16" xlink:href="#zsm5hq2p5a"/><linearGradient id="fz5w9sz0me" y1="32" x2="32" gradientUnits="userSpaceOnUse"><stop offset=".1" stop-color="#82cfff"/><stop offset=".9" stop-color="#ee5396"/></linearGradient><mask id="ytxpb5zpdd" x="0" y="0" width="32" height="32" maskUnits="userSpaceOnUse"><path fill="url(#zsm5hq2p5a)" d="M13 25h11v2H13z"/><path fill="url(#833552ckwb)" d="M13 5h11v2H13z"/><path fill="url(#7byd7xrnhc)" d="M19 15h11v2H19z"/><path d="m23.864 28.5-1.728-1L28.842 16 22.136 4.5l1.728-1 7 12a1 1 0 0 1 0 1.008z" fill="#fff"/></mask></defs><g data-name="Layer 2"><g data-name="Dark theme icons"><g mask="url(#ytxpb5zpdd)"><path fill="url(#fz5w9sz0me)" d="M0 0h32v32H0z"/></g><circle cx="3" cy="16" r="2" fill="#f4f4f4"/><circle cx="15" cy="16" r="2" fill="#f4f4f4"/><circle cx="9" cy="6" r="2" fill="#f4f4f4"/><circle cx="9" cy="26" r="2" fill="#f4f4f4"/></g></g></svg>