<svg xmlns="http://www.w3.org/2000/svg" viewBox="0 0 32 32"><defs><linearGradient id="linear-gradient" x1="-389" y1="1409.5" x2="-371" y2="1409.5" gradientTransform="translate(397 -1406)" gradientUnits="userSpaceOnUse"><stop offset=".2"/><stop offset=".8" stop-opacity="0"/></linearGradient><linearGradient id="linear-gradient-2" y1="32" x2="32" gradientUnits="userSpaceOnUse"><stop offset=".1" stop-color="#3ddbd9"/><stop offset=".9" stop-color="#4589ff"/></linearGradient><style>.cls-1{fill:#fff}</style><mask id="mask" x="0" y="0" width="32" height="32" maskUnits="userSpaceOnUse"><path class="cls-1" d="M25 2H7a2 2 0 00-2 2v24a2 2 0 002 2h18a2 2 0 002-2V4a2 2 0 00-2-2zm0 26H7V4h18z"/><path transform="rotate(180 17 3.5)" fill="url(#linear-gradient)" d="M8 1h18v5H8z"/><path d="M24 1h4v20h-4z"/><path class="cls-1" d="M14 11h5v2h-5zM10 7h5v2h-5zM10 11h2v2h-2zM10 15h5v2h-5zM17 15h2v2h-2zM10 19h5v2h-5z"/></mask></defs><g id="Layer_2" data-name="Layer 2"><g id="Dark_theme_icons" data-name="Dark theme icons"><g mask="url(#mask)"><path fill="url(#linear-gradient-2)" d="M0 0h32v32H0z"/></g><path fill="#f4f4f4" d="M27 17V4.828l2.586 2.586L31 6l-5-5-5 5 1.414 1.414L25 4.828V17h2z"/></g></g></svg>