<svg xmlns="http://www.w3.org/2000/svg" viewBox="0 0 32 32"><defs><linearGradient id="c937ul7m9a" x1="-389" y1="1409.5" x2="-371" y2="1409.5" gradientTransform="translate(397 -1406)" gradientUnits="userSpaceOnUse"><stop offset=".2"/><stop offset=".8" stop-opacity="0"/></linearGradient><linearGradient id="b4uuoehmyc" y1="32" x2="32" gradientUnits="userSpaceOnUse"><stop offset=".1" stop-color="#3ddbd9"/><stop offset=".9" stop-color="#4589ff"/></linearGradient><mask id="p77gbuil6b" x="0" y="0" width="32" height="32" maskUnits="userSpaceOnUse"><path d="M25 2H7a2 2 0 0 0-2 2v24a2 2 0 0 0 2 2h18a2 2 0 0 0 2-2V4a2 2 0 0 0-2-2zm0 26H7V4h18z" fill="#fff"/><path transform="rotate(180 17 3.5)" fill="url(#c937ul7m9a)" d="M8 1h18v5H8z"/><path d="M24 1h4v20h-4z"/><path fill="#fff" d="M14 11h5v2h-5zm-4-4h5v2h-5zm0 4h2v2h-2zm0 4h5v2h-5zm7 0h2v2h-2zm-7 4h5v2h-5z"/></mask></defs><g data-name="Layer 2"><g data-name="Dark theme icons"><g mask="url(#p77gbuil6b)"><path fill="url(#b4uuoehmyc)" d="M0 0h32v32H0z"/></g><path fill="#f4f4f4" d="M27 17V4.828l2.586 2.586L31 6l-5-5-5 5 1.414 1.414L25 4.828V17h2z"/></g></g></svg>