<svg id="Build_icon_here" data-name="Build icon here" xmlns="http://www.w3.org/2000/svg" xmlns:xlink="http://www.w3.org/1999/xlink" viewBox="0 0 32 32">
  <defs>
    <linearGradient id="linear-gradient" x1="29" y1="16" x2="29" y2="5" gradientUnits="userSpaceOnUse">
      <stop offset="0.1"/>
      <stop offset="0.7" stop-opacity="0"/>
    </linearGradient>
    <mask id="mask" x="0" y="0" width="32" height="32" maskUnits="userSpaceOnUse">
      <g>
        <path d="M15,30H2V16a2,2,0,0,1,2-2H14V4a2,2,0,0,1,2-2H28a2,2,0,0,1,2,2V15H28V4H16V16H4V28H7V21a2,2,0,0,1,2-2h4a2,2,0,0,1,2,2ZM9,28h4V21H9Z" style="fill: #fff"/>
        <rect x="27" y="5" width="4" height="11" style="fill: url(#linear-gradient)"/>
      </g>
      <rect x="18" y="7" width="2" height="2" style="fill: #f4f4f4"/>
      <rect x="24" y="7" width="2" height="2" style="fill: #f4f4f4"/>
      <rect x="18" y="12" width="2" height="2" style="fill: #f4f4f4"/>
      <rect x="24" y="12" width="2" height="2" style="fill: #f4f4f4"/>
    </mask>
    <linearGradient id="linear-gradient-2" y1="2" x2="32" y2="34" gradientTransform="matrix(1, 0, 0, -1, 0, 34)" gradientUnits="userSpaceOnUse">
      <stop offset="0.1" stop-color="#be95ff"/>
      <stop offset="0.9" stop-color="#4589ff"/>
    </linearGradient>
  </defs>
  <g style="mask: url(#mask)">
    <rect width="32" height="32" style="fill: url(#linear-gradient-2)"/>
  </g>
  <path d="M24,30H22V25H21a4,4,0,0,1-4-4V18h3a3.983,3.983,0,0,1,2.48.863A5.006,5.006,0,0,1,27,16h3v4a5.006,5.006,0,0,1-5,5H24Zm0-7h1a3,3,0,0,0,3-3V18H27a3,3,0,0,0-3,3Zm-5-3v1a2,2,0,0,0,2,2h1V22a2,2,0,0,0-2-2Z" style="fill: #f4f4f4"/>
</svg>
