<svg id="Build_icon_here" data-name="Build icon here" xmlns="http://www.w3.org/2000/svg" xmlns:xlink="http://www.w3.org/1999/xlink" viewBox="0 0 32 32"><defs><linearGradient id="gjwg8p0l8a" x1="2067.5" y1="-5248.5" x2="2073.5" y2="-5248.5" gradientTransform="translate(-2053.5 5274.5)" gradientUnits="userSpaceOnUse"><stop offset="0" stop-opacity="0"/><stop offset=".9"/></linearGradient><linearGradient id="apvmx55k4b" y1="-5255.5" y2="-5255.5" gradientTransform="translate(-2046.5 5281.5)" xlink:href="#gjwg8p0l8a"/><linearGradient id="282x3ko8mc" y1="-5241.5" y2="-5241.5" gradientTransform="translate(-2060.5 5267.5)" xlink:href="#gjwg8p0l8a"/><linearGradient id="9fs9rpg2we" y1="32" x2="32" gradientUnits="userSpaceOnUse"><stop offset=".1" stop-color="#be95ff"/><stop offset=".9" stop-color="#4589ff"/></linearGradient><mask id="7n16bc98xd" x="0" y="0" width="32" height="32" maskUnits="userSpaceOnUse"><path style="fill:#fff" d="M16 18h2v10h-2zM23 15h2v13h-2zM9 21h2v7H9z"/><path transform="rotate(90 17 26)" style="fill:url(#gjwg8p0l8a)" d="M14 24h6v4h-6z"/><path transform="rotate(90 24 26)" style="fill:url(#apvmx55k4b)" d="M21 24h6v4h-6z"/><path transform="rotate(90 10 26)" style="fill:url(#282x3ko8mc)" d="M7 24h6v4H7z"/><path d="M4 2H2v26a2 2 0 0 0 2 2h26v-2H4z" style="fill:#fff"/></mask></defs><g style="mask:url(#7n16bc98xd)"><path style="fill:url(#9fs9rpg2we)" d="M0 0h32v32H0z"/></g><path style="fill:#f4f4f4" d="M28 2h-6v2h4.586L19 11.586l-4-4-8.707 8.707 1.414 1.414L15 10.414l4 4 9-9V10h2V2h-2z"/></svg>