<svg xmlns="http://www.w3.org/2000/svg" xmlns:xlink="http://www.w3.org/1999/xlink" viewBox="0 0 32 32">
  <defs>
    <linearGradient id="a0efc4f4-10fe-4ff4-8d7f-1eaa38885f84" x1="6.75" y1="-18.25" x2="-8.75" y2="-2.75" gradientTransform="translate(9 19)" gradientUnits="userSpaceOnUse">
      <stop offset="0.263" stop-opacity="0"/>
      <stop offset="0.82"/>
    </linearGradient>
    <linearGradient id="f3498cea-c81e-45b9-a298-ef08d2c3c1a9" x1="3455.504" y1="2257.504" x2="3455.504" y2="2282.504" gradientTransform="translate(-3437.004 -2246.004)" gradientUnits="userSpaceOnUse">
      <stop offset="0.119" stop-opacity="0"/>
      <stop offset="0.526"/>
    </linearGradient>
    <mask id="aa6303cd-0d90-406c-925b-bc7902cacb01" x="0" y="0" width="32" height="32" maskUnits="userSpaceOnUse">
      <circle cx="16" cy="16" r="13" fill="none" stroke="#fff" stroke-miterlimit="10" stroke-width="2"/>
      <rect y="1" width="16" height="15" fill="url(#a0efc4f4-10fe-4ff4-8d7f-1eaa38885f84)"/>
      <rect x="10.5" y="11.5" width="16" height="25" transform="translate(-5.5 42.5) rotate(-90)" fill="url(#f3498cea-c81e-45b9-a298-ef08d2c3c1a9)"/>
    </mask>
    <linearGradient id="fe985b07-222e-4ecf-8e1a-44c78029474f" y1="32" x2="32" gradientUnits="userSpaceOnUse">
      <stop offset="0.1" stop-color="#3ddbd9"/>
      <stop offset="0.9" stop-color="#4589ff"/>
    </linearGradient>
  </defs>
  <g id="afb4bdfd-b810-45eb-9975-290953cffe76" data-name="Layer 2">
    <g id="a494c2a1-515d-4aa7-836f-b056aaae92f8" data-name="Dark theme">
      <g>
        <g mask="url(#aa6303cd-0d90-406c-925b-bc7902cacb01)">
          <rect width="32" height="32" fill="url(#fe985b07-222e-4ecf-8e1a-44c78029474f)"/>
        </g>
        <polygon points="23 27.18 20.41 24.59 19 26 23 30 30 23 28.59 21.59 23 27.18" fill="#f4f4f4"/>
        <path d="M17,15.339l5,2v-2l-5-2.5v-2.5a1,1,0,1,0-2,0v2.5l-5,2.5v2l5-2v3.5l-2,1.5v1l3-1,3,1v-1l-2-1.5Z" fill="#f4f4f4" fill-rule="evenodd"/>
      </g>
    </g>
  </g>
</svg>
