<svg xmlns="http://www.w3.org/2000/svg" xmlns:xlink="http://www.w3.org/1999/xlink" viewBox="0 0 32 32">
  <defs>
    <linearGradient id="e2a3e514-05ed-461a-952e-411032706b04" x1="5.734" y1="22.339" x2="1.266" y2="5.661" gradientUnits="userSpaceOnUse">
      <stop offset="0.359" stop-opacity="0"/>
      <stop offset="0.789"/>
    </linearGradient>
    <mask id="af7c9c3d-eee0-4b16-89db-32192d4ccf18" x="0" y="0" width="32" height="32" maskUnits="userSpaceOnUse">
      <g>
        <path d="M10.5,9A3.5,3.5,0,1,1,14,5.5,3.5,3.5,0,0,1,10.5,9Zm0-5A1.5,1.5,0,1,0,12,5.5,1.5,1.5,0,0,0,10.5,4Z" fill="#fff"/>
        <path d="M18,28H7.769a2,2,0,0,1-1.933-1.484L.521,6.582l1.931-.516L7.768,26H18Z" fill="#fff"/>
        <rect y="6" width="7" height="16" fill="url(#e2a3e514-05ed-461a-952e-411032706b04)"/>
        <path d="M22.475,31.313,19.341,24h-7.1a4.008,4.008,0,0,1-3.866-2.971L6.739,14.9a3.9,3.9,0,0,1,7.534-2.009L15.1,16H21v2H13.564l-1.222-4.591A1.9,1.9,0,0,0,10.506,12a1.9,1.9,0,0,0-1.835,2.388l1.634,6.126A2,2,0,0,0,12.239,22h8.42l3.654,8.525Z" fill="#fff"/>
      </g>
    </mask>
    <linearGradient id="f7db0782-2475-49bf-b2cc-3492ba52e937" y1="32" x2="32" gradientUnits="userSpaceOnUse">
      <stop offset="0.1" stop-color="#3ddbd9"/>
      <stop offset="0.9" stop-color="#4589ff"/>
    </linearGradient>
  </defs>
  <g id="b54472ff-46fd-47f4-9e00-63d4ec7b25c2" data-name="Layer 2">
    <g id="e0676ec8-36ed-4baf-8ae2-afcf93cc4923" data-name="Dark theme">
      <g>
        <g mask="url(#af7c9c3d-eee0-4b16-89db-32192d4ccf18)">
          <rect width="32" height="32" fill="url(#f7db0782-2475-49bf-b2cc-3492ba52e937)"/>
        </g>
        <polygon points="30 6 26 6 26 2 24 2 24 6 20 6 20 8 24 8 24 12 26 12 26 8 30 8 30 6" fill="#f4f4f4"/>
      </g>
    </g>
  </g>
</svg>
