<svg xmlns="http://www.w3.org/2000/svg" xmlns:xlink="http://www.w3.org/1999/xlink" viewBox="0 0 32 32"><defs><linearGradient id="linear-gradient" x1="7" y1="17.5" x2="13" y2="17.5" gradientUnits="userSpaceOnUse"><stop offset="0" stop-opacity="0"/><stop offset=".8"/></linearGradient><linearGradient id="linear-gradient-2" x1="-4263" y1="-3384.5" x2="-4257" y2="-3384.5" gradientTransform="translate(4282 3402)" xlink:href="#linear-gradient"/><linearGradient id="linear-gradient-3" x1="-411.5" y1="-3817.5" x2="-402.5" y2="-3817.5" gradientTransform="translate(423 3833)" gradientUnits="userSpaceOnUse"><stop offset="0" stop-opacity="0"/><stop offset=".53"/></linearGradient><linearGradient id="linear-gradient-4" y1="32" x2="32" gradientUnits="userSpaceOnUse"><stop offset=".1" stop-color="#be95ff"/><stop offset=".9" stop-color="#4589ff"/></linearGradient><style>.cls-1{fill:#f4f4f4}</style><mask id="mask" x="0" y="0" width="32" height="32" maskUnits="userSpaceOnUse"><path class="cls-1" d="M30 6a4 4 0 10-5 3.858V15a2 2 0 01-2 2h-6v-7h3V2h-8v8h3v7H9a2 2 0 01-2-2V9.858a4 4 0 10-2 0V15a4 4 0 004 4h14a4 4 0 004-4V9.858A4 4 0 0030 6zM14 4h4v4h-4zM4 6a2 2 0 112 2 2 2 0 01-2-2zm22 2a2 2 0 112-2 2 2 0 01-2 2z"/><path fill="url(#linear-gradient)" d="M7 15h6v5H7z"/><path transform="rotate(180 22 17.5)" fill="url(#linear-gradient-2)" d="M19 15h6v5h-6z"/><path transform="rotate(90 16 15.5)" fill="url(#linear-gradient-3)" d="M11.5 11.5h9v8h-9z"/></mask></defs><g id="Layer_2" data-name="Layer 2"><g id="Dark_theme_icons" data-name="Dark theme icons"><g mask="url(#mask)"><path fill="url(#linear-gradient-4)" d="M0 0h32v32H0z"/></g><path class="cls-1" d="M13 25h6a3 3 0 013 3v2h-2v-2a1 1 0 00-1-1h-6a1 1 0 00-1 1v2h-2v-2a3 3 0 013-3zm7-5a4 4 0 11-4-4 4 4 0 014 4zm-6 0a2 2 0 102-2 2 2 0 00-2 2z"/></g></g></svg>