<svg xmlns="http://www.w3.org/2000/svg" viewBox="0 0 32 32"><defs><linearGradient id="WatsonTalentSuite_svg__a" x1="6.317" y1="24.981" x2="1.438" y2="16.53" gradientTransform="matrix(.866 .499 -.5 .864 13.125 4.754)" gradientUnits="userSpaceOnUse"><stop offset=".36"/><stop offset="1" stop-opacity="0"/></linearGradient><linearGradient id="WatsonTalentSuite_svg__c" y1="32" x2="32" gradientUnits="userSpaceOnUse"><stop offset=".1" stop-color="#be95ff"/><stop offset=".9" stop-color="#4589ff"/></linearGradient><mask id="WatsonTalentSuite_svg__b" x="0" y="0" width="32" height="32" maskUnits="userSpaceOnUse"><path d="M7.051 28.5l-4.358-7.547a2 2 0 01.411-2.5l1.922-1.693a11.1 11.1 0 010-1.526L3.1 13.543a2 2 0 01-.411-2.5l2.369-4.09a2 2 0 012.367-.893l2.435.824a11.083 11.083 0 011.317-.769l.5-2.51A2 2 0 0113.637 2h4.726a2 2 0 011.957 1.605l.5 2.51a11.083 11.083 0 011.317.769l2.434-.824a2 2 0 012.368.893l2.365 4.094a2 2 0 01-.411 2.5l-1.922 1.693a11.1 11.1 0 010 1.526l1.929 1.691a2 2 0 01.411 2.5l-2.365 4.094-1.732-1 2.364-4.094-2.7-2.373.061-.521a8.941 8.941 0 000-2.119l-.061-.521 2.7-2.377-2.368-4.093-3.41 1.158-.423-.311a9.005 9.005 0 00-1.829-1.067l-.483-.208L18.359 4h-4.722l-.7 3.522-.483.207A8.993 8.993 0 0010.623 8.8l-.421.315-3.417-1.16-2.359 4.092 2.7 2.372-.062.521a9.048 9.048 0 000 2.119l.062.521-2.7 2.377L8.783 27.5z" fill="#fff"/><path transform="rotate(-30 6.105 24.614)" fill="url(#WatsonTalentSuite_svg__a)" d="M3.744 19.749h4.723v9.732H3.744z"/></mask></defs><g data-name="Layer 2"><g data-name="Dark theme icons"><g mask="url(#WatsonTalentSuite_svg__b)"><path fill="url(#WatsonTalentSuite_svg__c)" d="M0 0h32v32H0z"/></g><path d="M23 30h-2v-2a3 3 0 00-3-3h-4a3 3 0 00-3 3v2H9v-2a5.006 5.006 0 015-5h4a5.006 5.006 0 015 5zM16 13a3 3 0 11-3 3 3 3 0 013-3m0-2a5 5 0 105 5 5 5 0 00-5-5z" fill="#f4f4f4"/></g></g></svg>