<svg xmlns="http://www.w3.org/2000/svg" xmlns:xlink="http://www.w3.org/1999/xlink" viewBox="0 0 32 32"><defs><linearGradient id="WatsonLanguageTranslator_svg__a" x1="-848" y1="3433.5" x2="-840" y2="3433.5" gradientTransform="translate(862 -3428)" gradientUnits="userSpaceOnUse"><stop offset="0" stop-opacity="0"/><stop offset=".8"/></linearGradient><linearGradient id="WatsonLanguageTranslator_svg__b" x1="11" y1="26.5" x2="19" y2="26.5" xlink:href="#WatsonLanguageTranslator_svg__a"/><linearGradient id="WatsonLanguageTranslator_svg__d" y1="32" x2="32" gradientUnits="userSpaceOnUse"><stop offset=".1" stop-color="#be95ff"/><stop offset=".9" stop-color="#4589ff"/></linearGradient><mask id="WatsonLanguageTranslator_svg__c" x="0" y="0" width="32" height="32" maskUnits="userSpaceOnUse"><path d="M28 16h-2v-5a5.006 5.006 0 00-5-5h-6V4h6a7.009 7.009 0 017 7z" fill="#fff"/><path transform="rotate(180 18 5.5)" fill="url(#WatsonLanguageTranslator_svg__a)" d="M14 3h8v5h-8z"/><path d="M18 28h-5a7.009 7.009 0 01-7-7v-4h2v4a5.006 5.006 0 005 5h5z" fill="#fff"/><path fill="url(#WatsonLanguageTranslator_svg__b)" d="M11 24h8v5h-8z"/></mask></defs><g data-name="Layer 2"><g data-name="Dark theme icons"><g mask="url(#WatsonLanguageTranslator_svg__c)"><path fill="url(#WatsonLanguageTranslator_svg__d)" d="M0 0h32v32H0z"/></g><path d="M14 5V3H9V1H7v2H2v2h8.215A8.6 8.6 0 018 8.977 9.291 9.291 0 016.552 7H4.333a10.87 10.87 0 002.146 3.3A14.694 14.694 0 013 12.127L3.7 14a16.459 16.459 0 004.291-2.336A16.5 16.5 0 0012.3 14l.7-1.873A14.677 14.677 0 019.523 10.3 10.316 10.316 0 0012.252 5zM28 30h2.167l-4.584-11h-2.166l-4.584 11H21l.833-2h5.334zm-5.333-4l1.833-4.4 1.833 4.4z" fill="#f4f4f4"/></g></g></svg>