<svg xmlns="http://www.w3.org/2000/svg" viewBox="0 0 32 32"><defs><linearGradient id="WatsonzzUnassigned_svg__a" x1="6" y1="23" x2="17" y2="23" gradientUnits="userSpaceOnUse"><stop offset="0" stop-opacity="0"/><stop offset=".9"/></linearGradient><linearGradient id="WatsonzzUnassigned_svg__c" y1="32" x2="32" gradientUnits="userSpaceOnUse"><stop offset=".1" stop-color="#be95ff"/><stop offset=".9" stop-color="#4589ff"/></linearGradient><mask id="WatsonzzUnassigned_svg__b" x="0" y="0" width="32" height="32" maskUnits="userSpaceOnUse"><path d="M17.736 30L16 29l4-7h6a2 2 0 002-2V8a2 2 0 00-2-2H6a2 2 0 00-2 2v12a2 2 0 002 2h10v2H6a4 4 0 01-4-4V8a4 4 0 014-4h20a4 4 0 014 4v12a4 4 0 01-4 4h-4.835z" fill="#fff"/><path fill="url(#WatsonzzUnassigned_svg__a)" d="M6 21h11v4H6z"/></mask></defs><g data-name="Layer 2"><g data-name="Dark theme icons"><g mask="url(#WatsonzzUnassigned_svg__b)"><path fill="url(#WatsonzzUnassigned_svg__c)" d="M0 0h32v32H0z"/></g><path fill="#f4f4f4" d="M8.003 10H24v2H8.003zM8.003 16H18v2H8.003z"/></g></g></svg>