<svg xmlns="http://www.w3.org/2000/svg" viewBox="0 0 32 32"><defs><linearGradient id="a" x1="16" y1="33" x2="16" y2="28" gradientUnits="userSpaceOnUse"><stop offset=".3"/><stop offset="1" stop-opacity="0"/></linearGradient><linearGradient id="c" y1="32" x2="32" gradientUnits="userSpaceOnUse"><stop offset=".1" stop-color="#be95ff"/><stop offset=".9" stop-color="#4589ff"/></linearGradient><mask id="b" x="0" y="0" width="32" height="33" maskUnits="userSpaceOnUse"><path d="M23 32h-2v-4a3 3 0 00-3-3h-4a3 3 0 00-3 3v4H9v-4a5.006 5.006 0 015-5h4a5.006 5.006 0 015 5zM16 13a3 3 0 11-3 3 3 3 0 013-3m0-2a5 5 0 105 5 5 5 0 00-5-5z" fill="#fff"/><path fill="url(#a)" d="M8 28h16v5H8z"/></mask></defs><g data-name="Layer 2"><g data-name="Dark theme icons"><g mask="url(#b)"><path fill="url(#c)" d="M0 0h32v32H0z"/></g><path d="M30 16l-4 4-1.4-1.4 2.6-2.6-2.6-2.6L26 12zM16 2l4 4-1.4 1.4L16 4.8l-2.6 2.6L12 6zM2 16l4-4 1.4 1.4L4.8 16l2.6 2.6L6 20z" fill="#f4f4f4"/></g></g></svg>