<svg xmlns="http://www.w3.org/2000/svg" viewBox="0 0 32 32"><defs><linearGradient id="ZDevOpsDeploy_svg__a" x1="902.381" y1="239.896" x2="915.381" y2="239.896" gradientTransform="matrix(1.03 0 0 .848 -924.17 -178.721)" gradientUnits="userSpaceOnUse"><stop offset=".1" stop-opacity="0"/><stop offset=".9"/></linearGradient><linearGradient id="ZDevOpsDeploy_svg__c" x1="-5587" y1="5619" x2="-5619" y2="5651" gradientTransform="matrix(1 0 0 -1 5619 5651)" gradientUnits="userSpaceOnUse"><stop offset=".1" stop-color="#be95ff"/><stop offset=".9" stop-color="#4589ff"/></linearGradient><mask id="ZDevOpsDeploy_svg__b" x="0" y="0" width="32" height="32" maskUnits="userSpaceOnUse"><path d="M15.486 30.864L3.5 23.876a1 1 0 01-.5-.864V9h2v13.438l11.494 6.7zM12.992 13.017h-2L11 4.337a1 1 0 01.5-.866l4.02-2.313a1 1 0 011 0L28.5 8.136A1 1 0 0129 9v4h-2V9.575L16.017 3.18 13 4.917z" fill="#fff"/><path fill="#fff" d="M7 6h2v10H7z"/><path transform="rotate(30 12.138 24.76)" fill="url(#ZDevOpsDeploy_svg__a)" d="M5.442 20.519h13.392v8.482H5.442z"/></mask></defs><g data-name="Layer 2"><g data-name="Dark theme icons"><g mask="url(#ZDevOpsDeploy_svg__b)"><path transform="rotate(90 16 16)" fill="url(#ZDevOpsDeploy_svg__c)" d="M0 0h32v32H0z"/></g><path d="M25.414 19L24 20.414 26.586 23H19a2 2 0 010-4h2v-2h-2a4 4 0 000 8h7.586L24 27.586 25.414 29l5-5z" fill="#f4f4f4"/></g></g></svg>