<svg xmlns="http://www.w3.org/2000/svg" viewBox="0 0 32 32"><defs><linearGradient id="ZDevOpsMonitor_svg__a" x1="938.233" y1="372.529" x2="951.233" y2="372.529" gradientTransform="matrix(1.03 0 0 .848 -961.104 -291.22)" gradientUnits="userSpaceOnUse"><stop offset=".1" stop-opacity="0"/><stop offset=".9"/></linearGradient><linearGradient id="ZDevOpsMonitor_svg__c" x1="-5362" y1="5394" x2="-5394" y2="5426" gradientTransform="matrix(1 0 0 -1 5394 5426)" gradientUnits="userSpaceOnUse"><stop offset=".1" stop-color="#be95ff"/><stop offset=".9" stop-color="#4589ff"/></linearGradient><mask id="ZDevOpsMonitor_svg__b" x="0" y="0" width="32" height="32" maskUnits="userSpaceOnUse"><path d="M15.486 30.864L3.5 23.876a1 1 0 01-.5-.864V9h2v13.438l11.494 6.7zM12.992 13.017h-2L11 4.337a1 1 0 01.5-.866l4.02-2.313a1 1 0 011 0L28.5 8.136A1 1 0 0129 9v4h-2V9.575L16.017 3.18 13 4.917z" fill="#fff"/><path fill="#fff" d="M7 6h2v10H7z"/><path transform="rotate(30 12.138 24.76)" fill="url(#ZDevOpsMonitor_svg__a)" d="M5.442 20.519h13.392v8.482H5.442z"/></mask></defs><g data-name="Layer 2"><g data-name="Dark theme icons"><g mask="url(#ZDevOpsMonitor_svg__b)"><path transform="rotate(90 16 16)" fill="url(#ZDevOpsMonitor_svg__c)" d="M0 0h32v32H0z"/></g><path d="M25 30h-.021a1 1 0 01-.941-.726L20.871 18.19l-1.934 5.161A1 1 0 0118 24h-4v-2h3.307l2.756-7.351a1 1 0 011.9.076l3.111 10.892 1.979-5.933A1 1 0 0128 19h4v2h-3.279l-2.773 8.316A1 1 0 0125 30z" fill="#f4f4f4"/></g></g></svg>