<svg xmlns="http://www.w3.org/2000/svg" viewBox="0 0 32 32"><defs><linearGradient id="linear-gradient" x1="926.282" y1="328.318" x2="939.282" y2="328.318" gradientTransform="matrix(1.03 0 0 .848 -948.793 -253.72)" gradientUnits="userSpaceOnUse"><stop offset=".1" stop-opacity="0"/><stop offset=".9"/></linearGradient><linearGradient id="linear-gradient-2" x1="-5437" y1="5469" x2="-5469" y2="5501" gradientTransform="matrix(1 0 0 -1 5469 5501)" gradientUnits="userSpaceOnUse"><stop offset=".1" stop-color="#be95ff"/><stop offset=".9" stop-color="#4589ff"/></linearGradient><style>.cls-1{fill:#fff}</style><mask id="mask" x="0" y="0" width="32" height="32" maskUnits="userSpaceOnUse"><path class="cls-1" d="M15.486 30.864L3.5 23.876a1 1 0 01-.5-.864V9h2v13.438l11.494 6.7zm-2.494-17.847h-2L11 4.337a1 1 0 01.5-.866l4.02-2.313a1 1 0 011 0L28.5 8.136A1 1 0 0129 9v4h-2V9.575L16.017 3.18 13 4.917z"/><path class="cls-1" d="M7 6h2v10H7z"/><path transform="rotate(30 12.138 24.76)" fill="url(#linear-gradient)" d="M5.442 20.519h13.392v8.482H5.442z"/></mask></defs><g id="Layer_2" data-name="Layer 2"><g id="Dark_theme_icons" data-name="Dark theme icons"><g mask="url(#mask)"><path transform="rotate(90 16 16)" fill="url(#linear-gradient-2)" d="M0 0h32v32H0z"/></g><path d="M28 31h-8a2 2 0 01-2-2v-3h2v3h8v-3h2v3a2 2 0 01-2 2zm-3-12.17V26h-2v-7.17l-2.59 2.58L19 20l5-5 5 5-1.41 1.41L25 18.83z" fill="#f4f4f4"/></g></g></svg>