<svg xmlns="http://www.w3.org/2000/svg" viewBox="0 0 288 288"><g fill="none" fill-rule="evenodd"><path fill="#FFF" d="M0 0h288v288H0z"/><path d="M144.4 108.768c-24.058 0-43.634 19.577-43.634 43.635 0 24.058 19.576 43.627 43.634 43.627s43.634-19.57 43.634-43.627c0-24.058-19.576-43.635-43.634-43.635m0 92c-26.667 0-48.366-21.699-48.366-48.365 0-26.674 21.7-48.373 48.366-48.373 26.667 0 48.366 21.7 48.366 48.373 0 26.666-21.7 48.365-48.366 48.365m0-111.714a2.364 2.364 0 01-2.366-2.366V66.974a2.366 2.366 0 114.732 0v19.714a2.364 2.364 0 01-2.366 2.366M97.931 108.3c-.604 0-1.209-.23-1.669-.69L82.324 93.665a2.36 2.36 0 010-3.345 2.352 2.352 0 013.339 0L99.6 104.258a2.368 2.368 0 01-1.67 4.042m-19.244 46.468H58.97a2.364 2.364 0 01-2.365-2.365 2.366 2.366 0 012.365-2.373h19.715a2.366 2.366 0 012.365 2.373 2.364 2.364 0 01-2.365 2.365m5.308 60.407a2.368 2.368 0 01-1.67-4.041l13.939-13.939a2.352 2.352 0 013.338 0 2.36 2.36 0 010 3.345l-13.938 13.945c-.46.46-1.065.69-1.67.69m60.408 25.022a2.364 2.364 0 01-2.366-2.366v-19.714a2.366 2.366 0 114.732 0v19.714a2.364 2.364 0 01-2.366 2.366m60.407-25.022c-.604 0-1.209-.23-1.669-.69L189.2 200.54a2.36 2.36 0 010-3.345 2.352 2.352 0 013.338 0l13.938 13.938a2.368 2.368 0 01-1.669 4.042m25.022-60.407h-19.715a2.364 2.364 0 01-2.365-2.365 2.366 2.366 0 012.365-2.373h19.715a2.366 2.366 0 012.365 2.373 2.364 2.364 0 01-2.365 2.365m-38.96-46.468a2.368 2.368 0 01-1.67-4.041l13.938-13.939a2.352 2.352 0 013.339 0 2.36 2.36 0 010 3.345l-13.938 13.945c-.46.46-1.065.69-1.67.69" fill="#000"/><g stroke="#6EA6FF"><path d="M144.365 52v200.73m70.969-171.334L73.396 223.334m171.334-70.969H44m171.334 70.969L73.396 81.396"/><path d="M170.387 55.465l-51.952 193.892m76.159-183.865L94.228 239.33M231.33 102.228L57.492 202.594m183.865-76.159L47.465 178.387m193.892 0L47.465 126.435m183.865 76.159L57.492 102.228M194.594 239.33L94.228 65.492m76.159 183.865L118.435 55.465" opacity=".4"/></g><path d="M141.88 38.664c-2.004 0-2.88-1.596-2.88-4.332 0-2.736.876-4.332 2.88-4.332s2.88 1.596 2.88 4.332c0 2.736-.876 4.332-2.88 4.332zm0-.876c1.308 0 1.824-1.152 1.824-2.772v-1.368c0-1.62-.516-2.772-1.824-2.772s-1.824 1.152-1.824 2.772v1.368c0 1.62.516 2.772 1.824 2.772zm6.408-3.66c-1.14 0-2.016-.888-2.016-2.064 0-1.176.876-2.064 2.016-2.064 1.14 0 2.016.888 2.016 2.064 0 1.176-.876 2.064-2.016 2.064zm0-.768c.72 0 1.176-.576 1.176-1.296 0-.72-.456-1.296-1.176-1.296s-1.176.576-1.176 1.296c0 .72.456 1.296 1.176 1.296zm25.664 12.16h-5.508v-.888h2.34v-6.744h-.084l-2.112 1.968-.588-.636 2.22-2.076h1.572v7.488h2.16v.888zm6.612-8.376v.888h-3.672l-.24 3.192h.084c.396-.564.84-.924 1.716-.924 1.44 0 2.496.972 2.496 2.592 0 1.632-1.056 2.772-2.82 2.772-1.392 0-2.112-.708-2.616-1.428l.756-.576c.432.66.852 1.104 1.86 1.104 1.14 0 1.752-.636 1.752-1.74v-.12c0-1.104-.612-1.74-1.752-1.74-.768 0-1.152.324-1.5.708l-.852-.12.3-4.608h4.488zm4.032 3.984c-1.14 0-2.016-.888-2.016-2.064 0-1.176.876-2.064 2.016-2.064 1.14 0 2.016.888 2.016 2.064 0 1.176-.876 2.064-2.016 2.064zm0-.768c.72 0 1.176-.576 1.176-1.296 0-.72-.456-1.296-1.176-1.296s-1.176.576-1.176 1.296c0 .72.456 1.296 1.176 1.296zm16.12 13.336h.912c1.128 0 1.704-.588 1.704-1.392v-.084c0-.876-.612-1.32-1.5-1.32-.864 0-1.38.408-1.728 1.044l-.744-.576c.42-.672 1.152-1.368 2.496-1.368 1.416 0 2.544.756 2.544 2.112 0 1.08-.72 1.728-1.608 1.956v.048c.9.18 1.764.852 1.764 2.112 0 1.44-1.14 2.436-2.844 2.436-1.452 0-2.196-.708-2.712-1.428l.756-.576c.432.66.924 1.104 1.944 1.104 1.176 0 1.8-.564 1.8-1.548v-.096c0-.984-.624-1.548-1.8-1.548h-.984v-.876zm8.58 4.968c-2.004 0-2.88-1.596-2.88-4.332 0-2.736.876-4.332 2.88-4.332s2.88 1.596 2.88 4.332c0 2.736-.876 4.332-2.88 4.332zm0-.876c1.308 0 1.824-1.152 1.824-2.772v-1.368c0-1.62-.516-2.772-1.824-2.772s-1.824 1.152-1.824 2.772v1.368c0 1.62.516 2.772 1.824 2.772zm6.408-3.66c-1.14 0-2.016-.888-2.016-2.064 0-1.176.876-2.064 2.016-2.064 1.14 0 2.016.888 2.016 2.064 0 1.176-.876 2.064-2.016 2.064zm0-.768c.72 0 1.176-.576 1.176-1.296 0-.72-.456-1.296-1.176-1.296s-1.176.576-1.176 1.296c0 .72.456 1.296 1.176 1.296zm13.3 25.16h-.96v-1.644H224v-.888l3.504-5.844h1.5v5.892h1.212v.84h-1.212v1.644zm-1.02-7.596l-3.036 5.112h3.096v-5.112h-.06zm8.736-.78v.888h-3.672l-.24 3.192h.084c.396-.564.84-.924 1.716-.924 1.44 0 2.496.972 2.496 2.592 0 1.632-1.056 2.772-2.82 2.772-1.392 0-2.112-.708-2.616-1.428l.756-.576c.432.66.852 1.104 1.86 1.104 1.14 0 1.752-.636 1.752-1.74v-.12c0-1.104-.612-1.74-1.752-1.74-.768 0-1.152.324-1.5.708l-.852-.12.3-4.608h4.488zm4.032 3.984c-1.14 0-2.016-.888-2.016-2.064 0-1.176.876-2.064 2.016-2.064 1.14 0 2.016.888 2.016 2.064 0 1.176-.876 2.064-2.016 2.064zm0-.768c.72 0 1.176-.576 1.176-1.296 0-.72-.456-1.296-1.176-1.296s-1.176.576-1.176 1.296c0 .72.456 1.296 1.176 1.296z" fill="#6F6F6F"/></g></svg>