<?xml version="1.0" encoding="utf-8"?>
<!-- Generator: Adobe Illustrator 26.0.2, SVG Export Plug-In . SVG Version: 6.00 Build 0)  -->
<svg version="1.1" id="Layer_1" xmlns="http://www.w3.org/2000/svg" xmlns:xlink="http://www.w3.org/1999/xlink" x="0px" y="0px"
	 viewBox="0 0 1854 1038" style="enable-background:new 0 0 1854 1038;" xml:space="preserve">
<style type="text/css">
	.st0{fill:#D0E2FF;}
	.st1{fill:#E5F6FF;}
	.st2{fill:#E8DAFF;}
	.st3{fill:#E0E0E0;}
	.st4{fill:#EE5396;}
	.st5{fill:#4587FF;}
	.st6{fill:none;}
</style>
<path class="st0" d="M1175.82,947.24l-124.09,35.58c-4.946,1.419-8.353,5.944-8.35,11.09l0,0c0,6.368,5.162,11.53,11.53,11.53l0,0
	h159.62c15.812,0,28.63-12.818,28.63-28.63l0,0l0,0c-0.003-7.477-2.932-14.655-8.16-20l0,0c-7.335-7.499-17.381-11.727-27.87-11.73
	h-15.88C1186.031,945.077,1180.837,945.804,1175.82,947.24z"/>
<path d="M1214.53,1006.06h-159.62c-6.71,0.021-12.167-5.401-12.189-12.111c-0.017-5.449,3.596-10.244,8.839-11.729l124.09-35.58
	c5.071-1.46,10.323-2.201,15.6-2.2h15.88c10.654,0.028,20.853,4.321,28.32,11.92c11.294,11.55,11.087,30.069-0.463,41.363
	C1229.52,1003.069,1222.177,1006.062,1214.53,1006.06L1214.53,1006.06z M1191.25,945.69c-5.159-0.002-10.293,0.722-15.25,2.15l0,0
	l-124.1,35.58c-5.788,1.675-9.122,7.725-7.448,13.513c1.347,4.654,5.602,7.863,10.448,7.877h159.62
	c15.464-0.014,27.989-12.561,27.975-28.025c-0.007-7.306-2.868-14.32-7.975-19.545c-7.23-7.365-17.11-11.525-27.43-11.55
	L1191.25,945.69z"/>
<circle class="st1" cx="1203.54" cy="939.94" r="25.09"/>
<path d="M1203.54,965.66c-14.205,0-25.72-11.515-25.72-25.72c0-14.205,11.515-25.72,25.72-25.72c14.205,0,25.72,11.515,25.72,25.72
	v0C1229.243,954.138,1217.738,965.643,1203.54,965.66z M1203.54,915.48c-13.514-0.006-24.474,10.946-24.48,24.46
	c-0.006,13.514,10.946,24.474,24.46,24.48s24.474-10.946,24.48-24.46c0-0.007,0-0.013,0-0.02
	C1227.984,926.438,1217.042,915.497,1203.54,915.48z"/>
<circle class="st1" cx="1183.13" cy="533.92" r="45.17"/>
<path d="M1183,579.72c-25.339-0.029-45.856-20.594-45.827-45.933s20.594-45.856,45.933-45.827
	c25.339,0.029,45.856,20.594,45.827,45.933c-0.026,22.56-16.449,41.753-38.733,45.267
	C1187.818,579.534,1185.411,579.722,1183,579.72z M1183.12,489.37c-2.32,0.003-4.637,0.183-6.93,0.54
	c-24.295,3.818-40.895,26.609-37.076,50.904c3.818,24.295,26.609,40.895,50.904,37.076s40.895-26.609,37.076-50.904
	C1223.691,505.334,1205.038,489.378,1183.12,489.37z"/>
<circle class="st1" cx="337.77" cy="910.69" r="13.35"/>
<path d="M337.77,924.54c-7.649,0-13.85-6.201-13.85-13.85c0-7.649,6.201-13.85,13.85-13.85c7.649,0,13.85,6.201,13.85,13.85l0,0
	C351.614,918.337,345.417,924.534,337.77,924.54z M337.77,897.84c-7.097,0-12.85,5.753-12.85,12.85c0,7.097,5.753,12.85,12.85,12.85
	s12.85-5.753,12.85-12.85l0,0C350.614,903.595,344.865,897.846,337.77,897.84L337.77,897.84z"/>
<circle class="st1" cx="274.99" cy="910.69" r="13.35"/>
<path d="M275,924.54c-7.649,0.006-13.854-6.191-13.86-13.84c-0.006-7.649,6.191-13.854,13.84-13.86
	c7.649-0.005,13.854,6.191,13.86,13.84c0,0.003,0,0.007,0,0.01C288.834,918.333,282.643,924.529,275,924.54z M275,897.84
	c-7.097-0.006-12.854,5.743-12.86,12.84c-0.006,7.097,5.743,12.854,12.84,12.86c7.097,0.005,12.854-5.743,12.86-12.84
	c0-0.003,0-0.007,0-0.01C287.829,903.602,282.088,897.857,275,897.84L275,897.84z"/>
<circle class="st1" cx="540.72" cy="889.36" r="41.51"/>
<path d="M540.72,931.38c-23.196,0-42-18.804-42-42s18.804-42,42-42s42,18.804,42,42l0,0C582.681,912.56,563.9,931.341,540.72,931.38
	z M540.72,848.38c-22.644,0-41,18.356-41,41s18.356,41,41,41s41-18.356,41-41l0,0c-0.016-22.642-18.358-40.997-41-41.03V848.38z"/>
<circle class="st1" cx="849.99" cy="889.36" r="41.51"/>
<path d="M850,931.38c-23.196,0-42-18.804-42-42s18.804-42,42-42s42,18.804,42,42l0,0C891.961,912.56,873.18,931.341,850,931.38z
	 M850,848.38c-22.644,0-41,18.356-41,41s18.356,41,41,41s41-18.356,41-41l0,0c-0.016-22.642-18.358-40.997-41-41.03V848.38z"/>
<rect x="695.08" y="781.02" width="1" height="256.97"/>
<polygon points="535.26,1038.2 534.26,1038.16 540.24,888.86 850.47,888.86 850.49,889.35 856,1038 855,1038.03 849.51,889.86 
	541.21,889.86 "/>
<circle class="st2" cx="540.72" cy="889.36" r="13.84"/>
<path d="M540.72,903.7c-7.92,0-14.34-6.42-14.34-14.34s6.42-14.34,14.34-14.34c7.92,0,14.34,6.42,14.34,14.34
	C555.055,897.277,548.637,903.695,540.72,903.7z M540.72,876.03c-7.367,0-13.34,5.973-13.34,13.34s5.973,13.34,13.34,13.34
	s13.34-5.973,13.34-13.34c0-0.003,0-0.007,0-0.01c0.006-7.373-5.967-13.354-13.34-13.36h0V876.03z"/>
<circle class="st2" cx="849.99" cy="889.36" r="13.84"/>
<path d="M850,903.7c-7.92,0-14.34-6.42-14.34-14.34s6.42-14.34,14.34-14.34c7.92,0,14.34,6.42,14.34,14.34
	C864.329,897.275,857.915,903.689,850,903.7z M850,876c-7.367,0-13.34,5.973-13.34,13.34s5.973,13.34,13.34,13.34
	s13.34-5.973,13.34-13.34c0-0.003,0-0.007,0-0.01C863.329,881.969,857.361,876.005,850,876z"/>
<path class="st0" d="M585.94,1038.05c-0.834-8.307-1.251-16.651-1.25-25c0-91.71,49.56-166,110.7-166s110.7,74.34,110.7,166
	c0.005,8.349-0.409,16.693-1.24,25"/>
<path d="M585.44,1038.1c-0.83-8.24-1.25-16.67-1.25-25.06c0-91.83,49.89-166.55,111.2-166.55s111.2,74.72,111.2,166.55
	c0,8.349-0.417,16.693-1.25,25l-1-0.1c0.82-8.19,1.24-16.59,1.24-25c0-91.28-49.43-165.55-110.2-165.55S585.19,921.76,585.19,1013
	c-0.003,8.349,0.414,16.693,1.25,25L585.44,1038.1z"/>
<path class="st0" d="M650.89,736.85c-0.003-10.94,4.048-21.492,11.37-29.62c-22.301-10.506-38.323-30.937-43.21-55.1l6,62.82
	c3.61,37.68,34,66.37,70.28,66.37C670.782,781.303,650.89,761.398,650.89,736.85z"/>
<path d="M695.36,781.82c-36.7,0-67.13-28.73-70.78-66.82l-6-62.83l1-0.14c4.876,23.998,20.787,44.291,42.93,54.75l0.61,0.29
	l-0.45,0.5c-16.204,18.042-14.714,45.805,3.329,62.009c8.074,7.252,18.548,11.256,29.401,11.241L695.36,781.82z M620.2,658.82
	l5.37,56c3.07,32,25.26,57.28,54.1,64.1c-23.252-8.634-35.102-34.483-26.468-57.734c1.887-5.081,4.678-9.779,8.238-13.865
	c-19.95-9.63-34.921-27.218-41.24-48.45L620.2,658.82z"/>
<path class="st0" d="M728.46,707.23c16.392,18.245,14.89,46.324-3.355,62.716c-8.168,7.338-18.764,11.39-29.745,11.374
	c36.29,0,66.67-28.69,70.28-66.37l6-62.82C766.773,676.293,750.759,696.728,728.46,707.23z"/>
<path d="M695.36,781.82v-1c24.251,0.034,43.937-19.598,43.971-43.849c0.015-10.853-3.989-21.327-11.241-29.401l-0.45-0.5l0.61-0.29
	c22.148-10.465,38.058-30.771,42.92-54.78l1,0.14l-6,62.83C762.49,753.09,732.06,781.82,695.36,781.82z M729.27,707.4
	c16.298,18.682,14.366,47.039-4.316,63.337c-4.096,3.573-8.807,6.373-13.904,8.263c28.84-6.82,51-32.11,54.09-64.1l5.37-56
	C764.21,680.155,749.235,697.765,729.27,707.4L729.27,707.4z"/>
<path class="st0" d="M771.66,652.13c1.01-5.048,1.519-10.182,1.52-15.33c0-0.7,0-1.38,0-2.07c0,1.75-0.14,3.51-0.31,5.29
	L771.66,652.13z"/>
<path d="M772.15,652.22l-1-0.14l1.17-12.08c0.16-1.58,0.25-3.25,0.31-5.26h1v0.63c0,0.49,0,1,0,1.46
	C773.645,641.996,773.149,647.151,772.15,652.22z"/>
<path class="st0" d="M617.59,634.73c0,0.69-0.05,1.37-0.05,2.07c-0.002,5.147,0.504,10.282,1.51,15.33L617.89,640
	C617.72,638.24,617.64,636.48,617.59,634.73z"/>
<path d="M618.56,652.22c-1.023-5.077-1.546-10.241-1.56-15.42c0-0.48,0-0.94,0-1.41v-0.68h1c0,2,0.15,3.69,0.3,5.26l1.16,12.11
	L618.56,652.22z"/>
<path class="st0" d="M662.26,707.23c16.269-18.281,44.277-19.911,62.558-3.642c1.284,1.142,2.5,2.359,3.642,3.642
	c22.307-10.497,38.329-30.933,43.2-55.1l1.16-12.13c0.17-1.78,0.26-3.54,0.31-5.29c-1.193-42.951-36.98-76.803-79.931-75.609
	c-41.273,1.147-74.462,34.336-75.609,75.609c0,1.75,0.13,3.51,0.3,5.29l1.16,12.11C623.931,676.281,639.954,696.72,662.26,707.23z"
	/>
<path d="M728.34,707.84l-0.25-0.27c-16.083-18.076-43.775-19.692-61.852-3.609c-1.272,1.132-2.477,2.337-3.609,3.609l-0.25,0.27
	l-0.34-0.16c-22.43-10.593-38.546-31.15-43.48-55.46l-1.16-12.16c-0.16-1.59-0.25-3.28-0.31-5.32
	c1.197-43.227,37.211-77.299,80.438-76.102c41.544,1.151,74.952,34.558,76.102,76.102c-0.06,2.06-0.16,3.75-0.31,5.35l-1.16,12.11
	c-4.917,24.333-21.041,44.913-43.49,55.51L728.34,707.84z M695.34,691.84c12.653,0.024,24.711,5.375,33.22,14.74
	c21.981-10.499,37.758-30.708,42.61-54.58l1.15-12c0.16-1.58,0.25-3.25,0.31-5.26c-1.19-42.675-36.749-76.306-79.424-75.116
	c-41.003,1.143-73.973,34.113-75.116,75.116c0,2,0.15,3.66,0.3,5.23l1.16,12.11c4.857,23.851,20.62,44.042,42.58,54.54
	c8.511-9.368,20.573-14.718,33.23-14.74L695.34,691.84z"/>
<path class="st0" d="M739.83,736.85c0.003-10.94-4.048-21.492-11.37-29.62c-20.967,9.854-45.233,9.854-66.2,0
	c-16.373,18.292-14.817,46.393,3.474,62.766s46.393,14.817,62.766-3.474C735.802,758.364,739.836,747.798,739.83,736.85z"/>
<path d="M695.36,781.82c-24.809,0.026-44.941-20.065-44.966-44.874c-0.011-11.09,4.08-21.792,11.486-30.046l0.25-0.28l0.34,0.16
	c20.835,9.786,44.945,9.786,65.78,0l0.33-0.16l0.25,0.28c16.574,18.452,15.051,46.847-3.401,63.421
	C717.171,777.738,706.46,781.835,695.36,781.82z M662.36,707.82c-16.073,18.225-14.329,46.03,3.897,62.103
	s46.03,14.329,62.103-3.897c14.667-16.63,14.667-41.576,0-58.207C707.434,717.542,683.286,717.542,662.36,707.82z"/>
<path class="st0" d="M695.36,692.38c-12.647-0.001-24.691,5.403-33.1,14.85c20.967,9.854,45.233,9.854,66.2,0
	C720.051,697.784,708.007,692.381,695.36,692.38z"/>
<path d="M695.36,715.12c-11.535,0.032-22.932-2.51-33.36-7.44l-0.6-0.28l0.44-0.5c16.436-18.502,44.759-20.176,63.26-3.74
	c1.319,1.172,2.568,2.42,3.74,3.74l0.45,0.5l-0.61,0.28C718.265,712.607,706.882,715.148,695.36,715.12z M663.08,707.12
	c20.49,9.4,44.06,9.4,64.55,0c-16.353-17.825-44.06-19.018-61.885-2.665C664.819,705.305,663.93,706.194,663.08,707.12z"/>
<rect x="589.23" y="140.62" class="st0" width="104.11" height="101.49"/>
<path d="M694,242.74H588.6V140H694V242.74z M589.89,241.49h102.82V141.25H589.85L589.89,241.49z"/>
<path d="M721,371.93c-10.15-27.92-15.65-82.68-15.71-111.47v-20.21h1.25v20.2c0.06,28.71,5.53,83.26,15.63,111.05L721,371.93z"/>
<path class="st0" d="M586.5,519c24-92.26,82.6-156.48,138.34-147.29c48.47,8,78.27,69.12,79.38,147.28"/>
<path d="M587.1,519.16l-1.21-0.32c11.72-45,32.11-84.77,57.43-112c25.63-27.53,54.62-40.24,81.62-35.78
	c23.59,3.89,43.61,20.37,57.9,47.65c13.84,26.41,21.45,61.07,22,100.24h-1.25c-0.55-39-8.11-73.43-21.85-99.67
	c-14.11-26.92-33.82-43.17-57-47c-26.57-4.38-55.17,8.19-80.51,35.41C619.06,434.77,598.77,474.34,587.1,519.16z"/>
<circle class="st0" cx="692.2" cy="140.62" r="102.98"/>
<path d="M692.2,244.23c-57.222,0.006-103.615-46.378-103.62-103.6c-0.006-57.222,46.378-103.614,103.6-103.62
	c57.222-0.006,103.615,46.378,103.62,103.6c0,0.003,0,0.007,0,0.01C795.734,197.811,749.391,244.158,692.2,244.23z M692.2,38.23
	c-56.532-0.006-102.365,45.818-102.37,102.35c-0.006,56.532,45.818,102.364,102.35,102.37
	c56.524,0.006,102.353-45.806,102.37-102.33C794.484,84.121,748.699,38.336,692.2,38.27V38.23z"/>
<circle class="st0" cx="640.71" cy="242.49" r="51.49"/>
<path d="M640.71,294.6c-28.78-0.006-52.106-23.34-52.1-52.12c0.005-28.78,23.34-52.106,52.12-52.1
	c28.776,0.006,52.1,23.334,52.1,52.11C692.797,271.26,669.48,294.572,640.71,294.6z M640.71,191.6
	c-28.089,0.006-50.856,22.781-50.85,50.87c0.005,28.089,22.781,50.856,50.87,50.85c28.085-0.006,50.85-22.775,50.85-50.86
	c-0.05-28.068-22.802-50.802-50.87-50.83V191.6z"/>
<circle class="st1" cx="743.44" cy="422.65" r="48.27"/>
<path d="M743.44,471.54c-27.007,0.006-48.904-21.883-48.91-48.89c-0.006-27.007,21.883-48.904,48.89-48.91
	c27.007-0.006,48.904,21.883,48.91,48.89c0,0.007,0,0.013,0,0.02C792.302,449.64,770.43,471.512,743.44,471.54z M743.44,375
	c-26.316-0.006-47.654,21.324-47.66,47.64c-0.006,26.316,21.324,47.654,47.64,47.66c26.316,0.006,47.654-21.324,47.66-47.64
	c0-0.003,0-0.007,0-0.01C791.052,396.349,769.741,375.033,743.44,375z"/>
<rect x="744.462" y="424.642" transform="matrix(0.9992 -0.04 0.04 0.9992 -18.3052 30.1575)" width="1.251" height="96.497"/>
<rect x="38.89" y="198.74" class="st3" width="424.58" height="1"/>
<rect x="38.89" y="92.12" class="st3" width="424.58" height="1"/>
<rect x="38.89" y="305.35" class="st3" width="424.58" height="1"/>
<rect x="38.89" y="411.97" class="st3" width="424.58" height="1"/>
<rect x="38.89" y="518.58" class="st3" width="424.58" height="1"/>
<rect x="38.89" y="625.2" class="st3" width="424.58" height="1"/>
<rect x="38.89" y="731.81" class="st3" width="424.58" height="1"/>
<rect x="38.89" y="838.43" class="st3" width="424.58" height="1"/>
<rect x="38.89" y="945.04" class="st3" width="424.58" height="1"/>
<rect x="91.93" y="92.12" class="st4" width="1" height="853.92"/>
<rect x="144.93" y="92.82" class="st5" width="1" height="852.52"/>
<rect x="140.88" y="92.12" class="st5" width="9.11" height="1.4"/>
<rect x="140.88" y="944.64" class="st5" width="9.11" height="1.4"/>
<rect x="38.19" y="92.82" class="st5" width="1" height="852.52"/>
<rect x="34.14" y="92.12" class="st5" width="9.11" height="1.4"/>
<rect x="34.14" y="944.64" class="st5" width="9.11" height="1.4"/>
<path d="M92.06,198.34c-29.271,0-53-23.729-53-53s23.729-53,53-53s53,23.729,53,53C145.021,174.595,121.315,198.301,92.06,198.34z
	 M92.06,92.83c-29-0.006-52.514,23.5-52.52,52.5c-0.006,29,23.5,52.514,52.5,52.52s52.514-23.5,52.52-52.5c0-0.003,0-0.007,0-0.01
	C144.527,116.357,121.043,92.869,92.06,92.83z"/>
<path d="M92.06,945.84c-29.547,0-53.5-23.953-53.5-53.5s23.953-53.5,53.5-53.5s53.5,23.953,53.5,53.5l0,0
	C145.527,921.874,121.594,945.807,92.06,945.84z M92.06,839.34c-29.271,0-53,23.729-53,53s23.729,53,53,53s53-23.729,53-53
	C145.027,863.083,121.317,839.373,92.06,839.34z"/>
<path d="M92.06,839.12c-29.547,0-53.5-23.953-53.5-53.5s23.953-53.5,53.5-53.5s53.5,23.953,53.5,53.5l0,0
	C145.527,815.154,121.594,839.087,92.06,839.12z M92.06,732.62c-29.271,0-53,23.729-53,53s23.729,53,53,53s53-23.729,53-53
	C145.021,756.365,121.315,732.659,92.06,732.62z"/>
<path d="M92.06,732.41c-29.547,0-53.5-23.953-53.5-53.5s23.953-53.5,53.5-53.5s53.5,23.953,53.5,53.5
	C145.527,708.443,121.594,732.377,92.06,732.41z M92.06,625.91c-29.271,0-53,23.729-53,53s23.729,53,53,53s53-23.729,53-53l0,0
	C145.027,649.653,121.317,625.943,92.06,625.91z"/>
<path d="M92.06,625.69c-29.547,0-53.5-23.953-53.5-53.5s23.953-53.5,53.5-53.5s53.5,23.953,53.5,53.5
	C145.527,601.724,121.594,625.657,92.06,625.69z M92.06,519.19c-29.271,0-53,23.729-53,53s23.729,53,53,53s53-23.729,53-53l0,0
	C145.021,542.935,121.315,519.229,92.06,519.19z"/>
<path d="M92.06,519c-29.547,0-53.5-23.953-53.5-53.5S62.513,412,92.06,412s53.5,23.953,53.5,53.5l0,0
	C145.527,495.034,121.594,518.967,92.06,519z M92.06,412.5c-29.271,0-53,23.729-53,53s23.729,53,53,53s53-23.729,53-53l0,0
	c-0.022-29.265-23.735-52.987-53-53.02V412.5z"/>
<path d="M92.06,412.27c-29.547,0-53.5-23.953-53.5-53.5s23.953-53.5,53.5-53.5s53.5,23.953,53.5,53.5l0,0
	C145.527,388.304,121.594,412.237,92.06,412.27z M92.06,305.77c-29.271,0-53,23.729-53,53s23.729,53,53,53s53-23.729,53-53l0,0
	C145.027,329.513,121.317,305.803,92.06,305.77z"/>
<path d="M92.06,305.55c-29.547,0-53.5-23.953-53.5-53.5s23.953-53.5,53.5-53.5s53.5,23.953,53.5,53.5l0,0
	C145.527,281.584,121.594,305.517,92.06,305.55z M92.06,199.05c-29.271,0-53,23.729-53,53s23.729,53,53,53s53-23.729,53-53l0,0
	C145.021,222.795,121.315,199.089,92.06,199.05L92.06,199.05z"/>
<rect x="1390.55" y="198.74" class="st3" width="424.58" height="1"/>
<rect x="1390.55" y="92.12" class="st3" width="424.58" height="1"/>
<rect x="1390.55" y="305.35" class="st3" width="424.58" height="1"/>
<rect x="1390.55" y="411.97" class="st3" width="424.58" height="1"/>
<rect x="1390.55" y="518.58" class="st3" width="424.58" height="1"/>
<rect x="1390.55" y="625.2" class="st3" width="424.58" height="1"/>
<rect x="1390.55" y="731.81" class="st3" width="424.58" height="1"/>
<rect x="1390.55" y="838.43" class="st3" width="424.58" height="1"/>
<rect x="1390.55" y="945.04" class="st3" width="424.58" height="1"/>
<rect x="1761.1" y="92.12" class="st4" width="1" height="853.92"/>
<rect x="1708.09" y="92.82" class="st5" width="1" height="852.52"/>
<rect x="1704.04" y="92.12" class="st5" width="9.11" height="1.4"/>
<rect x="1704.04" y="944.64" class="st5" width="9.11" height="1.4"/>
<rect x="1814.83" y="92.82" class="st5" width="1" height="852.52"/>
<rect x="1810.78" y="92.12" class="st5" width="9.11" height="1.4"/>
<rect x="1810.78" y="944.64" class="st5" width="9.11" height="1.4"/>
<path d="M1762,198.34c-29.271,0-53-23.729-53-53s23.729-53,53-53s53,23.729,53,53C1814.961,174.595,1791.255,198.301,1762,198.34z
	 M1762,92.83c-29,0-52.51,23.51-52.51,52.51s23.51,52.51,52.51,52.51s52.51-23.51,52.51-52.51
	C1814.477,116.353,1790.987,92.863,1762,92.83z"/>
<path d="M1762,945.84c-29.547,0-53.5-23.953-53.5-53.5s23.953-53.5,53.5-53.5s53.5,23.953,53.5,53.5l0,0
	C1815.467,921.874,1791.534,945.807,1762,945.84z M1762,839.34c-29.271,0-53,23.729-53,53s23.729,53,53,53s53-23.729,53-53
	C1814.967,863.083,1791.257,839.373,1762,839.34z"/>
<path d="M1762,839.12c-29.547,0-53.5-23.953-53.5-53.5s23.953-53.5,53.5-53.5s53.5,23.953,53.5,53.5l0,0
	C1815.467,815.154,1791.534,839.087,1762,839.12z M1762,732.62c-29.271,0-53,23.729-53,53s23.729,53,53,53s53-23.729,53-53
	C1814.961,756.365,1791.255,732.659,1762,732.62z"/>
<path d="M1762,732.41c-29.547,0-53.5-23.953-53.5-53.5s23.953-53.5,53.5-53.5s53.5,23.953,53.5,53.5
	C1815.467,708.443,1791.534,732.377,1762,732.41z M1762,625.91c-29.271,0-53,23.729-53,53s23.729,53,53,53s53-23.729,53-53l0,0
	C1814.967,649.653,1791.257,625.943,1762,625.91z"/>
<path d="M1762,625.69c-29.547,0-53.5-23.953-53.5-53.5s23.953-53.5,53.5-53.5s53.5,23.953,53.5,53.5
	C1815.467,601.724,1791.534,625.657,1762,625.69z M1762,519.19c-29.271,0-53,23.729-53,53s23.729,53,53,53s53-23.729,53-53l0,0
	C1814.961,542.935,1791.255,519.229,1762,519.19z"/>
<path d="M1762,519c-29.547,0-53.5-23.953-53.5-53.5s23.953-53.5,53.5-53.5s53.5,23.953,53.5,53.5l0,0
	C1815.467,495.034,1791.534,518.967,1762,519z M1762,412.5c-29.271,0-53,23.729-53,53s23.729,53,53,53s53-23.729,53-53l0,0
	c-0.022-29.265-23.735-52.987-53-53.02V412.5z"/>
<path d="M1762,412.27c-29.547,0-53.5-23.953-53.5-53.5s23.953-53.5,53.5-53.5s53.5,23.953,53.5,53.5l0,0
	C1815.467,388.304,1791.534,412.237,1762,412.27z M1762,305.77c-29.271,0-53,23.729-53,53s23.729,53,53,53s53-23.729,53-53l0,0
	C1814.967,329.513,1791.257,305.803,1762,305.77z"/>
<path d="M1762,305.55c-29.547,0-53.5-23.953-53.5-53.5s23.953-53.5,53.5-53.5s53.5,23.953,53.5,53.5l0,0
	C1815.467,281.584,1791.534,305.517,1762,305.55z M1762,199.05c-29.271,0-53,23.729-53,53s23.729,53,53,53s53-23.729,53-53l0,0
	C1814.961,222.795,1791.255,199.089,1762,199.05L1762,199.05z"/>
<path d="M1195.36,206.81c-1.013,0-2.013-0.02-3-0.06l0.05-1.25c1,0,2,0.06,3,0.06L1195.36,206.81z M1198.36,206.75l-0.05-1.25
	c1,0,2-0.09,3-0.17l0.1,1.25c-1.01,0.08-2.02,0.13-3.03,0.17H1198.36z M1189.3,206.58c-1-0.08-2-0.17-3-0.28l0.14-1.25
	c1,0.12,2,0.21,3,0.28L1189.3,206.58z M1204.4,206.3l-0.15-1.25c1-0.11,2-0.24,3-0.39l0.19,1.24c-1.02,0.15-2.02,0.28-3.02,0.4
	H1204.4z M1183.29,205.9c-0.94-0.14-1.88-0.3-2.82-0.47h-0.16l0.22-1.23h0.19c0.91,0.16,1.83,0.32,2.76,0.46L1183.29,205.9z
	 M1210.39,205.39l-0.24-1.23c1-0.19,1.95-0.39,2.92-0.62l0.28,1.22c-0.96,0.24-1.95,0.44-2.94,0.63L1210.39,205.39z M1177.39,204.79
	c-0.987-0.227-1.967-0.467-2.94-0.72l0.32-1.21c1,0.25,1.92,0.49,2.89,0.71L1177.39,204.79z M1216.33,204.03l-0.33-1.21
	c1-0.26,1.92-0.53,2.86-0.83l0.38,1.2c-0.987,0.3-1.963,0.57-2.93,0.81L1216.33,204.03z M1171.55,203.24c-1-0.3-1.93-0.61-2.88-0.94
	l0.41-1.18c0.94,0.32,1.88,0.63,2.83,0.92L1171.55,203.24z M1222.11,202.24l-0.42-1.18c0.94-0.333,1.87-0.683,2.79-1.05l0.46,1.17
	c-0.94,0.37-1.94,0.72-2.85,1.06L1222.11,202.24z M1165.84,201.24c-0.94-0.37-1.87-0.76-2.8-1.15l0.5-1.15
	c0.91,0.39,1.83,0.77,2.75,1.13L1165.84,201.24z M1227.74,199.99l-0.51-1.14c0.91-0.4,1.82-0.82,2.71-1.25l0.54,1.13
	c-0.92,0.46-1.84,0.88-2.76,1.27L1227.74,199.99z M1160.29,198.83c-0.91-0.43-1.81-0.89-2.7-1.36l0.58-1.1
	c0.88,0.46,1.77,0.9,2.66,1.33L1160.29,198.83z M1233.18,197.36l-0.58-1.1c0.87-0.47,1.74-0.95,2.6-1.45l0.63,1.08
	c-0.9,0.53-1.78,1.02-2.67,1.49L1233.18,197.36z M1154.92,196c-0.873-0.5-1.733-1.02-2.58-1.56l0.66-1c0.84,0.52,1.69,1,2.55,1.52
	L1154.92,196z M1238.39,194.31l-0.66-1.06c0.84-0.53,1.67-1.07,2.48-1.63l0.71,1c-0.83,0.64-1.67,1.19-2.53,1.73V194.31z
	 M1149.81,192.8c-0.83-0.57-1.65-1.15-2.46-1.75l0.74-1c0.8,0.58,1.6,1.16,2.42,1.71L1149.81,192.8z M1243.38,190.9l-0.74-1
	c0.8-0.59,1.58-1.2,2.36-1.82l0.78,1c-0.78,0.65-1.59,1.26-2.4,1.86V190.9z M1145,189.26c-0.79-0.63-1.56-1.27-2.32-1.92l0.81-1
	c0.75,0.65,1.52,1.28,2.29,1.89L1145,189.26z M1248.16,187.17l-0.82-0.94c0.75-0.65,1.49-1.31,2.22-2l0.85,0.92
	c-0.773,0.7-1.54,1.373-2.3,2.02H1248.16z M1140.42,185.33c-0.74-0.68-1.46-1.38-2.18-2.09l0.89-0.89c0.7,0.7,1.41,1.39,2.14,2.06
	L1140.42,185.33z M1252.58,183.07l-0.88-0.89c0.7-0.7,1.39-1.41,2.06-2.14l0.92,0.85c-0.68,0.74-1.43,1.47-2.15,2.18H1252.58z
	 M1136.15,181.07c-0.69-0.74-1.36-1.49-2-2.25l0.94-0.82c0.65,0.75,1.31,1.49,2,2.22L1136.15,181.07z M1256.69,178.64l-0.94-0.81
	c0.64-0.75,1.28-1.51,1.9-2.29l1,0.78c-0.71,0.79-1.35,1.56-2.01,2.32L1256.69,178.64z M1132.2,176.5c-0.63-0.79-1.25-1.59-1.85-2.4
	l1-0.74c0.6,0.8,1.2,1.58,1.82,2.36L1132.2,176.5z M1260.46,173.93l-1-0.74c0.59-0.8,1.16-1.61,1.72-2.43l1,0.71
	c-0.59,0.83-1.18,1.65-1.77,2.46L1260.46,173.93z M1128.59,171.65c-0.57-0.84-1.12-1.68-1.66-2.53l1.06-0.67
	c0.53,0.84,1.07,1.67,1.64,2.49L1128.59,171.65z M1263.86,168.95l-1.06-0.67c0.53-0.83,1-1.68,1.54-2.54l1.08,0.63
	c-0.54,0.873-1.077,1.75-1.61,2.63L1263.86,168.95z M1125.36,166.54c-0.5-0.873-0.99-1.753-1.47-2.64l1.11-0.59
	c0.46,0.87,1,1.74,1.44,2.6L1125.36,166.54z M1266.88,163.72l-1.11-0.58c0.47-0.88,0.91-1.76,1.35-2.66l1.12,0.54
	c-0.49,0.91-0.94,1.81-1.41,2.7H1266.88z M1122.52,161.2c-0.44-0.91-0.87-1.82-1.27-2.74l1.14-0.51c0.4,0.91,0.82,1.81,1.25,2.7
	L1122.52,161.2z M1269.52,158.27l-1.14-0.5c0.39-0.9,0.77-1.82,1.13-2.75l1.17,0.46c-0.44,0.94-0.83,1.87-1.23,2.79H1269.52z
	 M1120,155.67c-0.37-0.94-0.73-1.89-1.07-2.84l1.18-0.41c0.327,0.933,0.66,1.863,1,2.79L1120,155.67z M1271.63,152.67l-1.18-0.41
	c0.32-0.94,0.63-1.88,0.92-2.83l1.2,0.37c-0.27,0.94-0.57,1.9-0.91,2.85L1271.63,152.67z M1118,150c-0.3-1-0.59-1.93-0.85-2.9
	l1.2-0.33c0.26,1,0.54,1.91,0.84,2.86L1118,150z M1273.43,146.91l-1.21-0.32c0.26-1,0.49-1.92,0.72-2.89l1.21,0.28
	c-0.21,0.94-0.45,1.92-0.71,2.89L1273.43,146.91z M1116.43,144.16c-0.23-1-0.44-2-0.63-3l1.23-0.24c0.18,1,0.39,2,0.61,2.92
	L1116.43,144.16z M1274.78,141l-1.23-0.23l0.06-0.33c0.17-0.87,0.31-1.74,0.44-2.61l1.24,0.19c-0.13,0.88-0.28,1.77-0.45,2.65
	L1274.78,141z M1115.27,138.19c-0.15-1-0.29-2-0.4-3l1.24-0.14c0.11,1,0.25,2,0.4,2.95L1115.27,138.19z M1275.69,135l-1.24-0.14
	c0.11-1,0.21-2,0.28-3l1.25,0.1C1275.9,133,1275.81,134,1275.69,135z M1114.58,132.15c-0.08-1-0.14-2-0.18-3l1.25-0.06
	c0,1,0.1,2,0.18,3L1114.58,132.15z M1276.15,129h-1.24c0-1,0.06-2,0.06-3h1.25C1276.22,127,1276.2,128,1276.15,129z M1115.59,126.13
	h-1.25V126c0-1,0-1.91,0.05-2.87h1.25c0,1-0.05,1.89-0.05,2.83V126.13z M1274.92,123c0-1-0.09-2-0.16-3l1.24-0.1
	c0.08,1,0.13,2,0.17,3L1274.92,123z M1115.8,120.18l-1.25-0.09c0.08-1,0.17-2,0.28-3l1.24,0.14c-0.07,0.96-0.2,1.95-0.27,2.93
	V120.18z M1274.49,117c-0.11-1-0.24-2-0.39-3l1.24-0.18c0.14,1,0.28,2,0.39,3L1274.49,117z M1116.49,114.2l-1.23-0.18
	c0.14-1,0.31-2,0.49-3l0.13-0.67l1.23,0.24l-0.13,0.66c-0.22,1.04-0.38,2.02-0.53,2.99L1116.49,114.2z M1273.64,111.1
	c-0.18-1-0.38-2-0.6-2.92l1.22-0.27c0.22,1,0.43,2,0.61,3L1273.64,111.1z M1117.73,107.7l-1.22-0.29c0.23-1,0.48-2,0.74-2.93
	l1.21,0.33c-0.3,1-0.54,1.96-0.77,2.93L1117.73,107.7z M1272.32,105.29c-0.26-1-0.53-1.92-0.82-2.86l1.19-0.37
	c0.3,0.96,0.58,1.93,0.84,2.91L1272.32,105.29z M1119.32,101.96l-1.19-0.38c0.3-1,0.62-1.92,1-2.87l1.17,0.42
	c-0.44,0.97-0.75,1.87-1.05,2.87L1119.32,101.96z M1270.6,99.59c-0.33-0.93-0.68-1.87-1-2.79l1.17-0.46c0.36,0.94,0.71,1.89,1,2.84
	L1270.6,99.59z M1121.31,96.35l-1.16-0.47c0.37-0.94,0.76-1.86,1.17-2.78l1.14,0.5c-0.46,0.95-0.85,1.86-1.22,2.79L1121.31,96.35z
	 M1268.42,94.05c-0.39-0.91-0.81-1.81-1.24-2.71l1.13-0.54c0.43,0.91,0.85,1.83,1.26,2.75L1268.42,94.05z M1123.71,90.9l-1.12-0.54
	c0.44-0.91,0.9-1.81,1.37-2.7l1.11,0.59c-0.54,0.92-0.99,1.8-1.43,2.69L1123.71,90.9z M1265.84,88.68c-0.46-0.88-0.94-1.74-1.44-2.6
	l1.08-0.63c0.51,0.87,1,1.76,1.47,2.65L1265.84,88.68z M1126.51,85.68l-1.08-0.64c0.51-0.87,1-1.72,1.57-2.57l1.06,0.67
	c-0.6,0.86-1.12,1.7-1.62,2.56L1126.51,85.68z M1262.87,83.54c-0.53-0.84-1.07-1.67-1.63-2.49l1-0.7c0.57,0.83,1.12,1.67,1.66,2.53
	L1262.87,83.54z M1129.7,80.66l-1-0.71c0.57-0.83,1.16-1.64,1.76-2.45l1,0.75c-0.69,0.81-1.27,1.62-1.83,2.43L1129.7,80.66z
	 M1259.52,78.66c-0.58-0.8-1.19-1.58-1.8-2.36l1-0.78c0.63,0.79,1.24,1.59,1.84,2.4L1259.52,78.66z M1133.25,75.94l-1-0.78
	c0.63-0.79,1.27-1.56,1.93-2.32l0.95,0.82c-0.69,0.73-1.33,1.49-1.95,2.26L1133.25,75.94z M1255.75,74c-0.64-0.75-1.3-1.49-2-2.22
	l0.91-0.85c0.69,0.74,1.36,1.5,2,2.26L1255.75,74z M1137.08,71.46l-0.91-0.86c0.68-0.73,1.39-1.46,2.1-2.16l0.88,0.89
	c-0.7,0.68-1.39,1.383-2.07,2.11V71.46z M1251.72,69.64c-0.7-0.71-1.41-1.4-2.14-2.07l0.85-0.92c0.74,0.69,1.46,1.39,2.17,2.11
	L1251.72,69.64z M1141.3,67.25l-0.84-0.92c0.74-0.68,1.49-1.35,2.26-2l0.81,1C1142.77,65.92,1142,66.58,1141.3,67.25z
	 M1247.37,65.56c-0.75-0.65-1.51-1.28-2.28-1.9l0.78-1c0.79,0.63,1.56,1.28,2.32,1.94L1247.37,65.56z M1145.83,63.39l-0.78-1
	c0.79-0.62,1.59-1.23,2.41-1.83l0.73,1C1147.39,62.18,1146.6,62.78,1145.83,63.39z M1242.74,61.84c-0.8-0.59-1.6-1.16-2.42-1.72
	l0.71-1c0.83,0.57,1.65,1.15,2.45,1.75L1242.74,61.84z M1150.63,59.84l-0.7-1c0.83-0.56,1.68-1.11,2.53-1.65l0.66,1.06
	c-0.84,0.53-1.67,1.07-2.49,1.63V59.84z M1237.84,58.44c-0.83-0.52-1.68-1-2.54-1.53l0.63-1.08c0.867,0.5,1.727,1.02,2.58,1.56
	L1237.84,58.44z M1155.68,56.69l-0.62-1.09c0.87-0.5,1.76-1,2.65-1.45l0.58,1.1c-0.86,0.5-1.73,0.993-2.61,1.48L1155.68,56.69z
	 M1232.68,55.46c-0.87-0.46-1.76-0.91-2.65-1.35l0.54-1.12c0.91,0.44,1.81,0.89,2.7,1.37L1232.68,55.46z M1161,54l-0.54-1.13
	c0.91-0.43,1.83-0.85,2.75-1.25l0.5,1.14C1162.75,53.12,1161.84,53.53,1161,54z M1227.4,52.95c-0.91-0.4-1.83-0.78-2.75-1.15
	l0.46-1.16c0.94,0.37,1.87,0.76,2.79,1.16L1227.4,52.95z M1166.46,51.63l-0.45-1.16c0.94-0.37,1.89-0.72,2.84-1l0.41,1.18
	c-0.99,0.24-1.92,0.58-2.85,0.94L1166.46,51.63z M1221.86,50.76c-0.93-0.32-1.87-0.64-2.82-0.93l0.37-1.19
	c1,0.29,1.92,0.61,2.87,0.94L1221.86,50.76z M1172,49.64l-0.36-1.2c1-0.29,1.93-0.57,2.91-0.83l0.32,1.21
	C1174,49.07,1173,49.34,1172,49.64z M1216.09,48.96c-1-0.26-1.92-0.5-2.89-0.72l0.28-1.22c1,0.23,2,0.47,2.93,0.73L1216.09,48.96z
	 M1177.76,48.11l-0.27-1.22c1-0.22,2-0.43,3-0.61l0.23,1.23c-0.97,0.18-1.95,0.38-2.92,0.6H1177.76z M1210.29,47.62l-0.49-0.09
	c-0.82-0.15-1.63-0.29-2.44-0.41l0.19-1.24c0.82,0.13,1.65,0.27,2.47,0.42l0.51,0.1L1210.29,47.62z M1183.63,47.02l-0.19-1.24
	c1-0.15,2-0.27,3-0.38l0.14,1.24c-0.94,0.11-1.93,0.23-2.91,0.36L1183.63,47.02z M1204.41,46.72c-0.987-0.12-1.987-0.22-3-0.3
	l0.1-1.24c1,0.08,2,0.18,3,0.29L1204.41,46.72z M1189.55,46.37l-0.09-1.24c1-0.07,2-0.13,3-0.16v1.25
	c-0.927,0.033-1.883,0.083-2.87,0.15L1189.55,46.37z M1198.47,46.25c-1,0-2-0.07-3-0.07v-1.25c1,0,2,0,3,0.07V46.25z"/>
<path d="M1212.94,45.61c-7.053-14.16-10.858-29.714-11.14-45.53h1.25c0.278,15.631,4.036,31.003,11,45L1212.94,45.61z"/>
<rect x="1182.592" y="136.572" transform="matrix(0.1838 -0.983 0.983 0.1838 842.6801 1288.976)" class="st5" width="29.8" height="1"/>
<path d="M1204.16,935.47l-1.24-0.07c0.08-1.49,0.31-4.39,0.63-8.39c16.45-204.56-2.36-326.58-21-392.92
	c-21.77-117.45-17.46-260.44,11.52-382.54l1.21,0.29c-28.93,121.94-33.24,264.73-11.52,382c26.8,95.22,34.09,231.24,21.06,393.3
	C1204.48,931.1,1204.25,934,1204.16,935.47z"/>
<circle class="st1" cx="1194.65" cy="151.69" r="80.3"/>
<path d="M1194.65,232.62c-44.696,0-80.93-36.234-80.93-80.93s36.234-80.93,80.93-80.93s80.93,36.234,80.93,80.93
	C1275.542,196.37,1239.33,232.581,1194.65,232.62z M1194.65,72.02c-44.006,0-79.68,35.674-79.68,79.68s35.674,79.68,79.68,79.68
	c44.006,0,79.68-35.674,79.68-79.68c0-0.003,0-0.007,0-0.01c-0.039-43.992-35.688-79.646-79.68-79.69V72.02z"/>
<circle class="st2" cx="1194.65" cy="151.69" r="14.66"/>
<path d="M1194.65,167c-8.444,0-15.29-6.846-15.29-15.29c0-8.444,6.846-15.29,15.29-15.29c8.444,0,15.29,6.846,15.29,15.29
	C1209.929,160.15,1203.09,166.989,1194.65,167z M1194.65,137.68c-7.732,0-14,6.268-14,14s6.268,14,14,14s14-6.268,14-14
	c0.011-7.732-6.248-14.009-13.98-14.02c-0.007,0-0.013,0-0.02,0V137.68z"/>
<circle class="st2" cx="1183.13" cy="533.92" r="12.55"/>
<path d="M1183.13,547.09c-7.274,0-13.17-5.896-13.17-13.17s5.896-13.17,13.17-13.17c7.274,0,13.17,5.896,13.17,13.17
	C1196.289,541.189,1190.399,547.079,1183.13,547.09z M1183.13,522c-6.583,0-11.92,5.337-11.92,11.92s5.337,11.92,11.92,11.92
	c6.583,0,11.92-5.337,11.92-11.92C1195.045,527.339,1189.711,522.005,1183.13,522z"/>
<circle class="st2" cx="1203.54" cy="939.94" r="12.55"/>
<path d="M1203.54,953.12c-7.279,0.005-13.184-5.891-13.19-13.17s5.891-13.184,13.17-13.19c7.279-0.005,13.184,5.891,13.19,13.17
	c0,0.003,0,0.007,0,0.01C1216.705,947.213,1210.813,953.109,1203.54,953.12z M1203.54,928.02c-6.589-0.005-11.934,5.331-11.94,11.92
	s5.331,11.934,11.92,11.94s11.934-5.331,11.94-11.92c0-0.007,0-0.013,0-0.02c0.005-6.589-5.331-11.934-11.92-11.94l0,0V928.02z"/>
<circle class="st1" cx="1600.89" cy="238.03" r="24.72"/>
<path d="M1600.89,263.26c-13.934,0-25.23-11.296-25.23-25.23s11.296-25.23,25.23-25.23c13.922,0,25.213,11.278,25.23,25.2
	C1626.125,251.941,1614.831,263.249,1600.89,263.26z M1600.89,213.81c-13.382,0-24.23,10.848-24.23,24.23
	c0,13.382,10.848,24.23,24.23,24.23s24.23-10.848,24.23-24.23c0-0.013,0-0.027,0-0.04
	C1625.087,224.638,1614.252,213.821,1600.89,213.81L1600.89,213.81z"/>
<circle class="st1" cx="1604.99" cy="379.1" r="17.31"/>
<path d="M1605,396.91c-9.836,0.005-17.814-7.964-17.82-17.8s7.964-17.814,17.8-17.82s17.814,7.964,17.82,17.8
	c0,0.003,0,0.007,0,0.01C1622.789,388.928,1614.828,396.893,1605,396.91z M1605,362.29c-9.284-0.005-16.814,7.516-16.82,16.8
	s7.516,16.814,16.8,16.82s16.814-7.516,16.82-16.8c0-0.003,0-0.007,0-0.01C1621.789,369.825,1614.275,362.307,1605,362.29z"/>
<circle class="st1" cx="1611.47" cy="485.45" r="9.89"/>
<path d="M1611.47,495.84c-5.738,0.017-10.403-4.622-10.42-10.36c-0.017-5.738,4.622-10.403,10.36-10.42l0,0h0.06
	c5.715,0,10.357,4.615,10.39,10.33l0,0c0.028,5.736-4.594,10.411-10.33,10.45H1611.47z M1611.47,476.06L1611.47,476.06
	c-5.186,0.002-9.388,4.208-9.386,9.394c0.002,5.183,4.203,9.384,9.386,9.386h0.06c5.186-0.033,9.363-4.264,9.33-9.45c0,0,0,0,0,0
	l0,0C1620.827,480.227,1616.633,476.06,1611.47,476.06z"/>
<polygon points="1610.97,485.42 1604.49,379.13 1600.39,238.05 1601.39,238.02 1605.48,379.08 1611.97,485.36 "/>
<circle class="st2" cx="1604.99" cy="379.1" r="6.18"/>
<path d="M1605,385.78c-3.689,0-6.68-2.991-6.68-6.68s2.991-6.68,6.68-6.68c3.689,0,6.68,2.991,6.68,6.68
	C1611.675,382.787,1608.687,385.775,1605,385.78z M1605,373.42c-3.137,0-5.68,2.543-5.68,5.68s2.543,5.68,5.68,5.68
	s5.68-2.543,5.68-5.68C1610.675,375.965,1608.135,373.425,1605,373.42z"/>
<circle class="st2" cx="1600.89" cy="238.03" r="6.18"/>
<path d="M1600.89,244.72c-3.695,0.005-6.694-2.985-6.7-6.68c-0.005-3.695,2.985-6.694,6.68-6.7s6.694,2.985,6.7,6.68
	c0,0.003,0,0.007,0,0.01C1607.57,241.721,1604.581,244.715,1600.89,244.72z M1600.89,232.35c-3.142-0.005-5.694,2.538-5.7,5.68
	s2.538,5.694,5.68,5.7c3.143,0.005,5.694-2.538,5.7-5.68c0-0.007,0-0.013,0-0.02C1606.565,234.895,1604.025,232.355,1600.89,232.35z
	"/>
<circle class="st2" cx="1611.47" cy="485.45" r="6.18"/>
<path d="M1611.47,492.13c-3.689-0.005-6.676-3.001-6.67-6.69c0.005-3.682,2.989-6.665,6.67-6.67c3.68,0,6.676,2.96,6.72,6.64l0,0
	c0.017,3.691-2.959,6.698-6.65,6.72L1611.47,492.13z M1611.47,479.77L1611.47,479.77c-3.137,0.005-5.676,2.552-5.671,5.689
	c0.005,3.13,2.541,5.666,5.671,5.671l0,0c3.136-0.027,5.661-2.584,5.65-5.72l0,0C1617.093,482.303,1614.578,479.792,1611.47,479.77
	L1611.47,479.77z"/>
<circle class="st1" cx="1525.758" cy="882.952" r="12.36"/>
<path d="M1525.73,895.81c-7.102-0.015-12.848-5.785-12.832-12.888s5.786-12.847,12.888-12.832c3.057,0.007,6.012,1.102,8.334,3.09
	l0,0c5.395,4.62,6.023,12.738,1.403,18.133c-2.22,2.593-5.38,4.196-8.783,4.457C1526.4,895.8,1526.07,895.81,1525.73,895.81z
	 M1525.73,871.09c-6.55-0.001-11.861,5.308-11.862,11.858c-0.001,6.55,5.308,11.861,11.858,11.862
	c6.55,0.001,11.861-5.308,11.862-11.858c0.001-3.466-1.515-6.759-4.148-9.012c-2.139-1.833-4.862-2.844-7.68-2.85H1525.73z"/>
<circle class="st0" cx="1522.97" cy="903.74" r="14.83"/>
<path d="M1523,919.08c-0.895-0.002-1.788-0.079-2.67-0.23c-8.346-1.457-13.93-9.404-12.473-17.75
	c1.457-8.346,9.404-13.93,17.75-12.473c4.008,0.7,7.575,2.963,9.914,6.293l0,0c4.866,6.942,3.182,16.514-3.76,21.38
	C1529.192,918.1,1526.135,919.07,1523,919.08z M1523,889.41c-7.914,0.014-14.318,6.442-14.304,14.356
	c0.014,7.914,6.442,14.318,14.356,14.304c7.914-0.014,14.318-6.442,14.304-14.356c-0.005-2.94-0.915-5.808-2.606-8.214l0,0
	C1532.061,891.675,1527.676,889.401,1523,889.41L1523,889.41z"/>
<circle class="st0" cx="1560.75" cy="927.39" r="9.89"/>
<path d="M1560.75,937.78L1560.75,937.78c-5.738,0-10.39-4.652-10.39-10.39s4.652-10.39,10.39-10.39l0,0
	c5.738,0,10.39,4.652,10.39,10.39S1566.488,937.78,1560.75,937.78z M1560.75,918c-5.186,0-9.39,4.204-9.39,9.39
	s4.204,9.39,9.39,9.39l0,0c5.186-0.011,9.381-4.223,9.371-9.409c-0.005-2.469-0.983-4.837-2.721-6.591l0,0
	c-1.755-1.771-4.147-2.765-6.64-2.76L1560.75,918z"/>
<circle class="st0" cx="1577.29" cy="939.12" r="6.47"/>
<path d="M1577.28,946.1c-3.638-0.02-6.654-2.823-6.94-6.45c-0.305-3.854,2.572-7.225,6.426-7.53c3.854-0.305,7.225,2.572,7.53,6.426
	c0.305,3.854-2.572,7.225-6.426,7.53c-0.017,0.001-0.033,0.003-0.05,0.004L1577.28,946.1z M1577.28,933.1h-0.46
	c-3.281,0.266-5.736,3.126-5.5,6.41c0.568,3.265,3.675,5.451,6.94,4.883c2.83-0.492,4.914-2.921,4.97-5.793l0,0
	c-0.251-3.125-2.865-5.53-6-5.52L1577.28,933.1z"/>
<circle class="st1" cx="1525.54" cy="676.06" r="24.72"/>
<path d="M1525.54,701.28h-0.13c-13.931-0.311-24.972-11.856-24.661-25.786c0.302-13.544,11.246-24.431,24.791-24.664h0.13
	c13.93,0.077,25.162,11.43,25.09,25.36l0,0C1550.672,690.061,1539.411,701.264,1525.54,701.28z M1525.54,651.83
	c-13.38,0.237-24.034,11.275-23.798,24.654c0.23,13,10.679,23.501,23.678,23.796h0.12c13.325-0.011,24.143-10.775,24.22-24.1
	c0.061-13.376-10.724-24.273-24.1-24.35L1525.54,651.83z"/>
<circle class="st1" cx="1525.6" cy="676" r="24.72"/>
<path d="M1525.6,701.22c-13.934,0-25.23-11.296-25.23-25.23s11.296-25.23,25.23-25.23c13.934,0,25.23,11.296,25.23,25.23
	c0,0.003,0,0.007,0,0.01C1550.813,689.926,1539.526,701.209,1525.6,701.22z M1525.6,651.77c-13.382,0-24.23,10.848-24.23,24.23
	s10.848,24.23,24.23,24.23c13.382,0,24.23-10.848,24.23-24.23C1549.819,662.623,1538.977,651.781,1525.6,651.77L1525.6,651.77z"/>
<circle class="st2" cx="1525.6" cy="676" r="6.18"/>
<path d="M1525.6,682.68c-3.695,0.005-6.694-2.985-6.7-6.68s2.985-6.694,6.68-6.7c3.695-0.005,6.694,2.985,6.7,6.68
	c0,0.007,0,0.013,0,0.02C1532.275,679.687,1529.287,682.674,1525.6,682.68z M1525.6,670.31c-3.142-0.005-5.694,2.538-5.7,5.68
	s2.538,5.694,5.68,5.7s5.694-2.538,5.7-5.68c0-0.003,0-0.007,0-0.01C1531.28,672.861,1528.739,670.315,1525.6,670.31z"/>
<circle class="st1" cx="1525.6" cy="676" r="24.72"/>
<path d="M1525.6,701.22c-13.934,0-25.23-11.296-25.23-25.23s11.296-25.23,25.23-25.23c13.934,0,25.23,11.296,25.23,25.23
	c0,0.003,0,0.007,0,0.01C1550.813,689.926,1539.526,701.209,1525.6,701.22z M1525.6,651.77c-13.382,0-24.23,10.848-24.23,24.23
	s10.848,24.23,24.23,24.23c13.382,0,24.23-10.848,24.23-24.23C1549.819,662.623,1538.977,651.781,1525.6,651.77L1525.6,651.77z"/>
<circle class="st2" cx="1525.6" cy="676" r="6.18"/>
<path d="M1525.6,682.68c-3.695,0.005-6.694-2.985-6.7-6.68s2.985-6.694,6.68-6.7c3.695-0.005,6.694,2.985,6.7,6.68
	c0,0.007,0,0.013,0,0.02C1532.275,679.687,1529.287,682.674,1525.6,682.68z M1525.6,670.31c-3.142-0.005-5.694,2.538-5.7,5.68
	s2.538,5.694,5.68,5.7s5.694-2.538,5.7-5.68c0-0.003,0-0.007,0-0.01C1531.28,672.861,1528.739,670.315,1525.6,670.31z"/>
<circle class="st1" cx="1525.72" cy="882.95" r="12.36"/>
<path d="M1525.72,895.81L1525.72,895.81c-7.105-0.198-12.704-6.119-12.506-13.224c0.191-6.826,5.68-12.315,12.506-12.506l0,0
	c7.113,0.011,12.871,5.786,12.86,12.9c0,0.007,0,0.013,0,0.02c-0.016,7.092-5.768,12.835-12.86,12.84V895.81z M1525.72,871.08
	c-6.553,0.19-11.711,5.657-11.52,12.21c0.183,6.285,5.235,11.337,11.52,11.52l0,0c6.553-0.19,11.711-5.657,11.52-12.21
	C1537.057,876.315,1532.005,871.263,1525.72,871.08z"/>
<polygon points="1576.88,939.62 1522.26,903.88 1525.15,882.98 1525.1,676 1525.1,492.99 1526.1,492.99 1526.1,676 1526.15,883.05 
	1523.34,903.39 1577.43,938.78 "/>
<circle class="st2" cx="1525.6" cy="676" r="6.18"/>
<path d="M1525.6,682.68c-3.695,0.005-6.694-2.985-6.7-6.68s2.985-6.694,6.68-6.7c3.695-0.005,6.694,2.985,6.7,6.68
	c0,0.007,0,0.013,0,0.02C1532.275,679.687,1529.287,682.674,1525.6,682.68z M1525.6,670.31c-3.142-0.005-5.694,2.538-5.7,5.68
	s2.538,5.694,5.68,5.7s5.694-2.538,5.7-5.68c0-0.003,0-0.007,0-0.01C1531.28,672.861,1528.739,670.315,1525.6,670.31z"/>
<circle class="st2" cx="1525.61" cy="882.99" r="6.18"/>
<path d="M1525.61,889.67c-3.689,0-6.68-2.991-6.68-6.68s2.991-6.68,6.68-6.68c3.689,0,6.68,2.991,6.68,6.68
	C1532.285,886.677,1529.297,889.664,1525.61,889.67z M1525.61,877.31c-3.137,0-5.68,2.543-5.68,5.68s2.543,5.68,5.68,5.68
	c3.137,0,5.68-2.543,5.68-5.68C1531.285,879.855,1528.745,877.315,1525.61,877.31z"/>
<circle class="st1" cx="1596.531" cy="842.476" r="12.36"/>
<path d="M1596.52,855.33c-7.102-0.003-12.857-5.764-12.854-12.866c0.003-7.102,5.764-12.857,12.866-12.854
	c3.07,0.001,6.038,1.101,8.368,3.1l0,0c5.396,4.61,6.033,12.721,1.423,18.117C1603.874,853.693,1600.29,855.34,1596.52,855.33z
	 M1596.52,830.61c-0.31,0-0.62,0-0.93,0c-6.531,0.504-11.417,6.206-10.913,12.737s6.206,11.417,12.737,10.913
	c6.531-0.504,11.417-6.206,10.913-12.737c-0.242-3.135-1.719-6.047-4.107-8.093l0,0c-2.138-1.826-4.859-2.826-7.67-2.82
	L1596.52,830.61z"/>
<circle class="st0" cx="1593.75" cy="863.27" r="14.83"/>
<path d="M1593.77,878.6c-8.467,0.02-15.346-6.828-15.365-15.295c-0.02-8.466,6.828-15.346,15.295-15.365
	c0.899-0.002,1.796,0.075,2.681,0.23c4.014,0.681,7.585,2.948,9.91,6.29l0,0c4.871,6.918,3.212,16.475-3.706,21.346
	C1600.004,877.623,1596.926,878.599,1593.77,878.6z M1593.77,848.93c-7.92,0.013-14.329,6.444-14.316,14.364
	c0.013,7.92,6.444,14.329,14.364,14.316c7.92-0.013,14.329-6.444,14.316-14.364c-0.005-2.941-0.914-5.809-2.604-8.216l0,0
	c-2.182-3.118-5.52-5.234-9.27-5.88c-0.838-0.15-1.688-0.224-2.54-0.22H1593.77z"/>
<circle class="st0" cx="1631.53" cy="886.92" r="9.89"/>
<path d="M1631.53,897.31L1631.53,897.31c-5.738,0-10.39-4.652-10.39-10.39s4.652-10.39,10.39-10.39l0,0l0,0
	c5.738,0,10.39,4.652,10.39,10.39S1637.268,897.31,1631.53,897.31z M1631.53,877.53c-5.186,0-9.39,4.204-9.39,9.39
	s4.204,9.39,9.39,9.39l0,0c5.186,0,9.39-4.204,9.39-9.39S1636.716,877.53,1631.53,877.53L1631.53,877.53z"/>
<circle class="st0" cx="1648.07" cy="898.66" r="6.47"/>
<path d="M1648.06,905.63c-3.638-0.02-6.654-2.823-6.94-6.45c-0.645-3.812,1.923-7.425,5.735-8.069
	c3.812-0.645,7.425,1.923,8.069,5.735c0.074,0.441,0.107,0.887,0.096,1.334l0,0c0.276,3.833-2.59,7.172-6.42,7.48L1648.06,905.63z
	 M1648.06,892.63h-0.46c-3.281,0.266-5.736,3.126-5.5,6.41c0.266,3.281,3.126,5.736,6.41,5.5c3.281-0.266,5.736-3.126,5.5-6.41l0,0
	c-0.283-3.071-2.847-5.427-5.93-5.45L1648.06,892.63z"/>
<circle class="st1" cx="1596.32" cy="635.59" r="24.72"/>
<path d="M1596.32,660.81h-0.13c-13.931-0.311-24.972-11.856-24.661-25.786c0.302-13.544,11.246-24.431,24.791-24.664h0.12
	c13.931,0.308,24.974,11.851,24.666,25.782C1620.806,649.685,1609.864,660.575,1596.32,660.81z M1596.32,611.36
	c-13.38,0.237-24.034,11.275-23.798,24.654c0.23,13,10.679,23.501,23.678,23.796h0.12c13.33,0,24.154-10.771,24.22-24.1l0,0
	c0.055-13.374-10.727-24.267-24.1-24.35L1596.32,611.36z"/>
<circle class="st1" cx="1596.38" cy="635.53" r="24.72"/>
<path d="M1596.38,660.75c-13.934,0.006-25.234-11.286-25.24-25.22c-0.006-13.934,11.286-25.234,25.22-25.24
	c13.934-0.005,25.234,11.286,25.24,25.22c0,0.007,0,0.013,0,0.02C1621.583,649.452,1610.302,660.733,1596.38,660.75z M1596.38,611.3
	c-13.382-0.006-24.234,10.838-24.24,24.22c-0.006,13.382,10.838,24.234,24.22,24.24c13.382,0.005,24.234-10.838,24.24-24.22
	c0-0.003,0-0.007,0-0.01C1620.589,622.157,1609.753,611.317,1596.38,611.3z"/>
<circle class="st2" cx="1596.38" cy="635.53" r="6.18"/>
<path d="M1596.38,642.21c-3.695,0.005-6.694-2.985-6.7-6.68s2.985-6.694,6.68-6.7c3.695-0.005,6.694,2.985,6.7,6.68
	c0,0.007,0,0.013,0,0.02C1603.055,639.217,1600.067,642.205,1596.38,642.21z M1596.38,629.84c-3.142-0.005-5.694,2.538-5.7,5.68
	s2.538,5.694,5.68,5.7s5.694-2.538,5.7-5.68c0-0.003,0-0.007,0-0.01C1602.06,632.391,1599.519,629.846,1596.38,629.84z"/>
<circle class="st1" cx="1596.38" cy="635.53" r="24.72"/>
<path d="M1596.38,660.75c-13.934,0.006-25.234-11.286-25.24-25.22c-0.006-13.934,11.286-25.234,25.22-25.24
	c13.934-0.005,25.234,11.286,25.24,25.22c0,0.007,0,0.013,0,0.02C1621.583,649.452,1610.302,660.733,1596.38,660.75z M1596.38,611.3
	c-13.382-0.006-24.234,10.838-24.24,24.22c-0.006,13.382,10.838,24.234,24.22,24.24c13.382,0.005,24.234-10.838,24.24-24.22
	c0-0.003,0-0.007,0-0.01C1620.589,622.157,1609.753,611.317,1596.38,611.3z"/>
<circle class="st1" cx="1596.5" cy="842.48" r="12.36"/>
<path d="M1596.5,855.34L1596.5,855.34c-7.108-0.005-12.866-5.771-12.861-12.879s5.771-12.866,12.879-12.861
	s12.866,5.771,12.861,12.879c-0.002,3.415-1.362,6.689-3.779,9.101c-2.415,2.422-5.699,3.777-9.12,3.76H1596.5z M1596.5,830.61
	c-6.544,0.005-11.849,5.306-11.86,11.85c-0.011,6.55,5.29,11.869,11.84,11.88l0,0l0,0c6.553-0.19,11.711-5.657,11.52-12.21
	c-0.183-6.285-5.235-11.337-11.52-11.52H1596.5z"/>
<polygon points="1647.61,899.15 1592.98,863.4 1595.87,842.51 1595.82,635.52 1595.82,452.52 1596.82,452.52 1596.82,635.52 
	1596.87,842.58 1594.06,862.91 1648.15,898.31 "/>
<circle class="st2" cx="1596.38" cy="635.72" r="6.18"/>
<path d="M1596.38,642.4c-3.689,0-6.68-2.991-6.68-6.68s2.991-6.68,6.68-6.68c3.689,0,6.68,2.991,6.68,6.68
	C1603.055,639.407,1600.067,642.395,1596.38,642.4z M1596.38,630.04c-3.137,0-5.68,2.543-5.68,5.68s2.543,5.68,5.68,5.68
	c3.137,0,5.68-2.543,5.68-5.68c0.017-3.142-2.517-5.703-5.66-5.72c-0.007,0-0.013,0-0.02,0V630.04z"/>
<circle class="st2" cx="1596.39" cy="842.52" r="6.18"/>
<path d="M1596.39,849.2c-3.689,0-6.68-2.991-6.68-6.68s2.991-6.68,6.68-6.68c3.689,0,6.68,2.991,6.68,6.68
	C1603.065,846.207,1600.077,849.195,1596.39,849.2z M1596.39,836.84c-3.137,0-5.68,2.543-5.68,5.68s2.543,5.68,5.68,5.68
	c3.137,0,5.68-2.543,5.68-5.68C1602.065,839.385,1599.525,836.846,1596.39,836.84z"/>
<path d="M1525.39,515.74h-1v-1h2v1H1525.39z M1522.39,515.68c-0.67,0-1.35-0.07-2-0.12l0.08-1c0.667,0.053,1.333,0.093,2,0.12
	L1522.39,515.68z M1528.39,515.68v-1l2-0.11l0.07,1c-0.66,0.04-1.327,0.073-2,0.1L1528.39,515.68z M1518.33,515.39
	c-0.67-0.06-1.34-0.14-2-0.23l0.13-1c0.65,0.09,1.31,0.16,2,0.23L1518.33,515.39z M1532.41,515.39l-0.1-1l2-0.23l0.13,1
	c-0.63,0.07-1.29,0.15-1.96,0.22L1532.41,515.39z M1514.33,514.86c-0.66-0.11-1.33-0.23-2-0.36l0.19-1l2,0.36L1514.33,514.86z
	 M1536.4,514.86l-0.16-1l2-0.36l0.19,1c-0.63,0.1-1.29,0.23-1.96,0.34L1536.4,514.86z M1510.4,514.09l-2-0.49l0.26-1
	c0.63,0.17,1.28,0.33,1.92,0.48L1510.4,514.09z M1540.4,514.09l-0.23-1l1.92-0.48l0.26,1c-0.61,0.12-1.27,0.28-1.92,0.44
	L1540.4,514.09z M1506.52,513.09c-0.65-0.2-1.29-0.42-1.92-0.64l0.34-0.94c0.61,0.22,1.24,0.42,1.88,0.62L1506.52,513.09z
	 M1544.29,513.09l-0.3-1c0.63-0.2,1.26-0.4,1.88-0.62l0.33,0.94c-0.6,0.16-1.2,0.38-1.88,0.59L1544.29,513.09z M1502.71,511.77
	c-0.63-0.25-1.25-0.51-1.86-0.79l0.41-0.91c0.6,0.27,1.2,0.53,1.82,0.77L1502.71,511.77z M1548.09,511.77l-0.37-0.93
	c0.62-0.25,1.22-0.51,1.82-0.78l0.41,0.91c-0.58,0.15-1.2,0.41-1.83,0.67L1548.09,511.77z M1499.05,510c-0.6-0.31-1.2-0.63-1.78-1
	l0.5-0.87c0.56,0.33,1.14,0.64,1.74,0.94L1499.05,510z M1551.81,509.95l-0.46-0.89c0.59-0.3,1.17-0.61,1.74-0.94l0.49,0.87
	c-0.58,0.34-1.17,0.677-1.77,1.01V509.95z M1555.02,508.12l-0.54-0.85c0.57-0.36,1.11-0.73,1.63-1.1l0.59,0.8
	c-0.54,0.4-1.1,0.78-1.7,1.16L1555.02,508.12z M1495.54,507.99c-0.58-0.38-1.14-0.77-1.67-1.16l0.59-0.8
	c0.52,0.38,1.06,0.75,1.62,1.12L1495.54,507.99z M1558.3,505.72l-0.64-0.76c0.51-0.43,1-0.87,1.45-1.32l0.7,0.72
	c-0.47,0.47-0.98,0.93-1.51,1.37V505.72z M1492.3,505.57c-0.53-0.45-1-0.91-1.51-1.38l0.71-0.71c0.45,0.45,0.94,0.9,1.44,1.33
	L1492.3,505.57z M1561.23,502.87l-0.76-0.65c0.43-0.51,0.84-1,1.2-1.54l0.82,0.57c-0.396,0.567-0.823,1.111-1.28,1.63
	L1561.23,502.87z M1489.41,502.69c-0.45-0.53-0.86-1.08-1.24-1.63l0.82-0.57c0.36,0.53,0.76,1.05,1.18,1.56L1489.41,502.69z
	 M1563.57,499.51l-0.88-0.48c0.312-0.568,0.586-1.156,0.82-1.76l0.93,0.37c-0.259,0.644-0.556,1.272-0.89,1.88L1563.57,499.51z
	 M1487.1,499.3c-0.32-0.609-0.604-1.237-0.85-1.88l0.94-0.35c0.225,0.605,0.493,1.193,0.8,1.76L1487.1,499.3z M1565.1,495.67
	l-1-0.24c0.153-0.621,0.256-1.253,0.31-1.89l1,0.08c-0.081,0.697-0.219,1.385-0.41,2.06L1565.1,495.67z M1485.7,495.44
	c-0.151-0.658-0.255-1.327-0.31-2l1-0.08c0.048,0.643,0.145,1.282,0.29,1.91L1485.7,495.44z M1564.47,491.61
	c-0.042-0.639-0.129-1.274-0.26-1.9l1-0.21c0.142,0.676,0.236,1.361,0.28,2.05L1564.47,491.61z M1486.39,491.4l-1-0.08
	c0.06-0.673,0.164-1.341,0.31-2l1,0.22c-0.166,0.614-0.29,1.239-0.37,1.87L1486.39,491.4z M1563.68,487.86
	c-0.224-0.608-0.485-1.203-0.78-1.78l0.89-0.45c0.314,0.608,0.588,1.236,0.82,1.88L1563.68,487.86z M1487.24,487.65l-0.94-0.35
	c0.244-0.644,0.528-1.271,0.85-1.88l0.89,0.47c-0.328,0.569-0.616,1.16-0.86,1.77L1487.24,487.65z M1561.91,484.41
	c-0.35-0.52-0.75-1.05-1.17-1.56l0.77-0.63c0.442,0.522,0.853,1.069,1.23,1.64L1561.91,484.41z M1489.05,484.23l-0.83-0.57
	c0.38-0.55,0.8-1.1,1.24-1.62l0.77,0.64c-0.44,0.496-0.851,1.017-1.23,1.56L1489.05,484.23z M1559.43,481.41
	c-0.45-0.46-0.93-0.91-1.44-1.34l0.66-0.76c0.52,0.45,1,0.92,1.49,1.39L1559.43,481.41z M1491.56,481.25l-0.71-0.71
	c0.47-0.47,1-0.93,1.5-1.38l0.65,0.76c-0.57,0.44-1,0.89-1.5,1.34L1491.56,481.25z M1556.46,478.84c-0.51-0.38-1.05-0.76-1.61-1.13
	l0.54-0.83c0.59,0.38,1.14,0.77,1.67,1.16L1556.46,478.84z M1494.54,478.7l-0.59-0.8c0.53-0.39,1.09-0.78,1.67-1.15l0.54,0.84
	c-0.6,0.367-1.16,0.74-1.68,1.12L1494.54,478.7z M1553.19,476.7c-0.59-0.35-1.17-0.66-1.76-1l0.46-0.89c0.6,0.313,1.19,0.647,1.77,1
	L1553.19,476.7z M1497.85,476.56l-0.5-0.86c0.59-0.34,1.18-0.66,1.79-1l0.45,0.89c-0.627,0.333-1.227,0.66-1.8,0.98L1497.85,476.56z
	 M1549.65,474.88c-0.59-0.27-1.2-0.53-1.81-0.78l0.37-0.93c0.63,0.26,1.25,0.52,1.86,0.8L1549.65,474.88z M1501.37,474.78l-0.4-0.91
	c0.6-0.28,1.23-0.54,1.86-0.79l0.37,0.93c-0.68,0.25-1.29,0.51-1.89,0.78L1501.37,474.78z M1545.98,473.4
	c-0.61-0.22-1.24-0.43-1.87-0.63l0.29-0.95c0.65,0.2,1.29,0.41,1.92,0.64L1545.98,473.4z M1505.05,473.32l-0.33-0.95
	c0.627-0.22,1.267-0.43,1.92-0.63l0.29,1c-0.69,0.16-1.32,0.37-1.93,0.59L1505.05,473.32z M1542.21,472.21l-1.93-0.49l0.23-1
	c0.66,0.16,1.31,0.32,2,0.5L1542.21,472.21z M1508.84,472.15l-0.26-1l2-0.49l0.23,1c-0.72,0.167-1.397,0.333-2.03,0.5
	L1508.84,472.15z M1538.34,471.3c-0.667-0.127-1.333-0.247-2-0.36l0.17-1c0.667,0.107,1.333,0.227,2,0.36L1538.34,471.3z
	 M1512.7,471.25l-0.2-1c0.66-0.13,1.32-0.25,2-0.36l0.16,1L1512.7,471.25z M1534.43,470.64l-2-0.23l0.1-1
	c0.67,0.07,1.34,0.15,2,0.24L1534.43,470.64z M1516.61,470.64l-0.13-1c0.67-0.09,1.33-0.17,2-0.23l0.1,1
	c-0.72,0.05-1.37,0.12-2.03,0.21L1516.61,470.64z M1530.48,470.26c-0.667-0.053-1.333-0.093-2-0.12v-1c0.68,0,1.35,0.07,2,0.12
	V470.26z M1520.56,470.26l-0.07-1l2-0.11v1c-0.67-0.01-1.33,0.02-1.99,0.07L1520.56,470.26z M1526.56,470.1h-2v-1h2V470.1z"/>
<path d="M1596.11,475.81h-1v-1h2v1H1596.11z M1593.11,475.75c-0.667,0-1.333-0.04-2-0.12l0.07-1c0.667,0.053,1.333,0.093,2,0.12
	L1593.11,475.75z M1599.11,475.75v-1l2-0.12l0.07,1L1599.11,475.75z M1589.05,475.46c-0.67-0.07-1.34-0.14-2-0.23l0.13-1l2,0.23
	L1589.05,475.46z M1603.13,475.46l-0.1-1c0.66-0.07,1.31-0.15,2-0.24l0.13,1c-0.62,0.07-1.29,0.16-1.96,0.22L1603.13,475.46z
	 M1585.05,474.94l-2-0.36l0.19-1c0.65,0.13,1.3,0.25,2,0.35L1585.05,474.94z M1607.12,474.94l-0.16-1l2-0.36l0.2,1L1607.12,474.94z
	 M1581.12,474.17c-0.66-0.16-1.31-0.32-2-0.5l0.26-1c0.667,0.173,1.307,0.333,1.92,0.48L1581.12,474.17z M1611.12,474.17l-0.23-1
	c0.64-0.15,1.29-0.31,1.92-0.48l0.26,1c-0.61,0.11-1.27,0.31-1.92,0.43L1611.12,474.17z M1577.24,473.17
	c-0.65-0.2-1.28-0.41-1.91-0.63l0.33-0.94c0.62,0.22,1.24,0.42,1.88,0.62L1577.24,473.17z M1615.01,473.17l-0.3-0.95
	c0.64-0.2,1.26-0.41,1.88-0.62l0.33,0.94c-0.6,0.1-1.24,0.31-1.92,0.51L1615.01,473.17z M1573.43,471.86
	c-0.63-0.25-1.25-0.51-1.86-0.79l0.41-0.91c0.6,0.27,1.21,0.53,1.82,0.77L1573.43,471.86z M1618.81,471.86l-0.37-0.93
	c0.62-0.25,1.23-0.51,1.82-0.78l0.42,0.91c-0.58,0.13-1.2,0.39-1.84,0.65L1618.81,471.86z M1569.75,470.23
	c-0.61-0.31-1.21-0.63-1.79-1l0.5-0.87c0.57,0.33,1.15,0.64,1.74,0.94L1569.75,470.23z M1622.5,470.18l-0.46-0.89
	c0.59-0.3,1.17-0.61,1.74-0.94l0.5,0.87c-0.55,0.18-1.15,0.5-1.75,0.78L1622.5,470.18z M1625.71,468.35l-0.54-0.85
	c0.57-0.36,1.11-0.73,1.63-1.11l0.59,0.81c-0.51,0.24-1.06,0.62-1.65,1L1625.71,468.35z M1566.23,468.22
	c-0.58-0.38-1.14-0.77-1.67-1.16l0.6-0.8c0.51,0.38,1,0.75,1.61,1.12L1566.23,468.22z M1629,465.8l-0.64-0.76
	c0.51-0.43,1-0.87,1.45-1.32l0.7,0.71C1630.06,464.9,1629.55,465.36,1629,465.8z M1563,465.65c-0.53-0.45-1-0.92-1.5-1.38l0.7-0.71
	c0.45,0.45,0.93,0.89,1.45,1.33L1563,465.65z M1631.93,462.95l-0.76-0.66c0.429-0.49,0.83-1.004,1.2-1.54l0.82,0.58
	c-0.391,0.578-0.811,1.135-1.26,1.67V462.95z M1560.11,462.77c-0.45-0.53-0.86-1.08-1.24-1.63l0.83-0.57
	c0.36,0.541,0.755,1.059,1.18,1.55L1560.11,462.77z M1634.27,459.58l-0.88-0.47c0.312-0.568,0.586-1.156,0.82-1.76l0.94,0.37
	C1634.896,458.358,1634.602,458.979,1634.27,459.58L1634.27,459.58z M1557.81,459.38c-0.326-0.606-0.61-1.234-0.85-1.88l0.93-0.35
	c0.231,0.602,0.499,1.19,0.8,1.76L1557.81,459.38z M1635.81,455.75l-1-0.24c0.153-0.624,0.257-1.259,0.31-1.9l1,0.09
	c-0.067,0.691-0.184,1.376-0.35,2.05L1635.81,455.75z M1556.4,455.52c-0.146-0.659-0.25-1.327-0.31-2l1-0.07
	c0.052,0.639,0.149,1.274,0.29,1.9L1556.4,455.52z M1635.17,451.69c-0.041-0.639-0.128-1.274-0.26-1.9l1-0.21
	c0.144,0.675,0.237,1.361,0.28,2.05L1635.17,451.69z M1557.09,451.48l-1-0.08c0.052-0.674,0.156-1.342,0.31-2l1,0.23
	c-0.16,0.608-0.277,1.226-0.35,1.85L1557.09,451.48z M1634.38,447.93c-0.224-0.605-0.485-1.196-0.78-1.77l0.89-0.46
	c0.316,0.612,0.593,1.243,0.83,1.89L1634.38,447.93z M1557.94,447.73l-0.94-0.35c0.243-0.646,0.531-1.274,0.86-1.88l0.88,0.47
	c-0.321,0.566-0.602,1.154-0.84,1.76L1557.94,447.73z M1632.61,444.49c-0.362-0.541-0.752-1.061-1.17-1.56l0.77-0.64
	c0.438,0.525,0.848,1.073,1.23,1.64L1632.61,444.49z M1559.75,444.31l-0.83-0.57c0.38-0.55,0.8-1.09,1.24-1.63l0.77,0.65
	c-0.435,0.494-0.842,1.012-1.22,1.55H1559.75z M1630.13,441.49c-0.45-0.46-0.93-0.91-1.43-1.34l0.65-0.76
	c0.52,0.45,1,0.92,1.49,1.39L1630.13,441.49z M1562.26,441.33l-0.71-0.72c0.47-0.46,1-0.93,1.51-1.37l0.64,0.76
	c-0.54,0.43-1.03,0.88-1.48,1.33H1562.26z M1627.16,438.92c-0.51-0.38-1-0.76-1.61-1.13l0.55-0.83c0.58,0.38,1.13,0.76,1.66,1.16
	L1627.16,438.92z M1565.24,438.78l-0.59-0.8c0.53-0.39,1.09-0.78,1.67-1.15l0.55,0.84c-0.61,0.33-1.15,0.73-1.67,1.11
	L1565.24,438.78z M1623.9,436.78c-0.6-0.34-1.18-0.65-1.77-0.95l0.46-0.89c0.6,0.31,1.2,0.63,1.77,1L1623.9,436.78z M1568.55,436.65
	l-0.49-0.87c0.58-0.33,1.17-0.65,1.78-0.95l0.45,0.89c-0.614,0.293-1.207,0.6-1.78,0.92L1568.55,436.65z M1620.35,434.97
	c-0.59-0.27-1.2-0.53-1.81-0.78l0.37-0.93c0.63,0.25,1.25,0.52,1.86,0.8L1620.35,434.97z M1572.07,434.87l-0.4-0.92
	c0.607-0.267,1.227-0.527,1.86-0.78l0.37,0.93c-0.66,0.23-1.27,0.49-1.9,0.76L1572.07,434.87z M1616.68,433.49
	c-0.61-0.23-1.24-0.43-1.87-0.63l0.3-1l1.91,0.64L1616.68,433.49z M1575.75,433.4l-0.33-0.94c0.627-0.22,1.267-0.43,1.92-0.63
	l0.29,1c-0.63,0.17-1.3,0.35-1.92,0.56L1575.75,433.4z M1612.91,432.3l-1.93-0.49l0.23-1c0.66,0.16,1.31,0.32,2,0.5L1612.91,432.3z
	 M1579.54,432.24l-0.26-1l2-0.49l0.23,1c-0.707,0.167-1.377,0.327-2.01,0.48L1579.54,432.24z M1609.05,431.39
	c-0.65-0.13-1.3-0.25-2-0.36l0.17-1l2,0.37L1609.05,431.39z M1583.4,431.34l-0.19-1c0.667-0.127,1.333-0.247,2-0.36l0.16,1
	c-0.71,0.11-1.37,0.22-2.01,0.35L1583.4,431.34z M1605.13,430.73c-0.65-0.09-1.31-0.17-2-0.23l0.1-1c0.67,0.07,1.34,0.15,2,0.24
	L1605.13,430.73z M1587.31,430.73l-0.13-1c0.67-0.09,1.33-0.17,2-0.24l0.11,1c-0.7,0.04-1.36,0.11-2.02,0.2L1587.31,430.73z
	 M1601.18,430.35l-2-0.12v-1l2,0.12V430.35z M1591.26,430.35l-0.07-1l2-0.11v1c-0.65-0.03-1.31,0-1.97,0.05L1591.26,430.35z
	 M1597.26,430.19h-2v-1h2V430.19z"/>
<path d="M1553.36,246.2c-7.7,0-15.4-1.69-21.25-5.08s-8.94-7.79-8.94-12.55s3.18-9.21,8.95-12.54c11.71-6.75,30.76-6.74,42.46,0
	c5.76,3.33,8.93,7.78,8.93,12.55s-3.18,9.21-8.94,12.54l0,0C1568.72,244.52,1561,246.2,1553.36,246.2z M1553.36,211.96
	c-7.49,0-15,1.65-20.7,4.94c-5.44,3.14-8.44,7.28-8.45,11.67s3,8.54,8.44,11.69c11.42,6.6,30,6.61,41.46,0l0,0
	c5.44-3.14,8.44-7.29,8.44-11.68s-3-8.53-8.43-11.68c-5.76-3.29-13.28-4.9-20.8-4.9L1553.36,211.96z"/>
<path d="M1548.2,474.58l-38.38-28.85l0.06-0.31c0-0.23,4.8-23.51,4.81-32.59c0-7.25-2.72-23-4.94-30.87
	c-12.55-44.15-5-91.73,22.33-141.44l0.88,0.49c-27.24,49.46-34.72,96.79-22.25,140.68c2.24,7.89,5,23.81,5,31.14
	c0,8.6-4.2,29.67-4.77,32.48l37.35,28.07l12-7.11l35.26-70.22c-0.43-2.1-4.19-20.32-4.27-27.11c-0.11-8.77,2.29-26.93,4.34-36.12
	c13.54-60.55,6.5-98.46-21.53-115.91l0.53-0.85c28.43,17.7,35.62,56,22,117c-2,9.08-4.42,27.43-4.32,35.89
	c0.08,7,4.25,26.89,4.29,27.09v0.17l-0.07,0.15L1561,467L1548.2,474.58z"/>
<path d="M1553.86,408.1h-1v-2h1V408.1z M1553.86,404.1h-1v-2h1V404.1z M1553.86,400.1h-1v-2h1V400.1z M1553.86,396.1h-1v-2h1V396.1z
	 M1553.86,392.1h-1v-2h1V392.1z M1553.86,388.1h-1v-2h1V388.1z M1553.86,384.1h-1v-2h1V384.1z M1553.86,380.1h-1v-2h1V380.1z
	 M1553.86,376.1h-1v-2h1V376.1z M1553.86,372.1h-1v-2h1V372.1z M1553.86,368.1h-1v-2h1V368.1z M1553.86,364.1h-1v-2h1V364.1z
	 M1553.86,360.1h-1v-2h1V360.1z M1553.86,356.1h-1v-2h1V356.1z M1553.86,352.1h-1v-2h1V352.1z M1553.86,348.1h-1v-2h1V348.1z
	 M1553.86,344.1h-1v-2h1V344.1z M1553.86,340.1h-1v-2h1V340.1z M1553.86,336.1h-1v-2h1V336.1z M1553.86,332.1h-1v-2h1V332.1z
	 M1553.86,328.1h-1v-2h1V328.1z M1553.86,324.1h-1v-2h1V324.1z M1553.86,320.1h-1v-2h1V320.1z M1553.86,316.1h-1v-2h1V316.1z
	 M1553.86,312.1h-1v-2h1V312.1z M1553.86,308.1h-1v-2h1V308.1z M1553.86,304.1h-1v-2h1V304.1z M1553.86,300.1h-1v-2h1V300.1z
	 M1553.86,296.1h-1v-2h1V296.1z M1553.86,292.1h-1v-2h1V292.1z M1553.86,288.1h-1v-2h1V288.1z M1553.86,284.1h-1v-2h1V284.1z
	 M1553.86,280.1h-1v-2h1V280.1z M1553.86,276.1h-1v-2h1V276.1z M1553.86,272.1h-1v-2h1V272.1z M1553.86,268.1h-1v-2h1V268.1z
	 M1553.86,264.1h-1v-2h1V264.1z M1553.86,260.1h-1v-2h1V260.1z M1553.86,256.1h-1v-2h1V256.1z M1553.86,252.1h-1v-2h1V252.1z
	 M1553.86,248.1h-1v-2h1V248.1z M1553.86,244.1h-1v-2h1V244.1z M1553.86,240.1h-1v-2h1V240.1z M1553.86,236.1h-1v-2h1V236.1z
	 M1553.86,232.1h-1v-2h1V232.1z M1553.86,228.1h-1v-2h1V228.1z M1553.86,224.1h-1v-2h1V224.1z M1553.86,220.1h-1v-2h1V220.1z
	 M1553.86,216.1h-1v-2h1V216.1z M1553.86,212.1h-1v-2h1V212.1z M1553.86,208.1h-1v-2h1V208.1z M1553.86,204.1h-1v-2h1V204.1z
	 M1553.86,200.1h-1v-2h1V200.1z"/>
<path d="M1526,493.15l-1-0.32l0.63-1.9l1,0.32L1526,493.15z M1527.26,489.35l-1-0.31l0.63-1.9l1,0.31L1527.26,489.35z
	 M1528.53,485.56l-1-0.32l0.63-1.9l1,0.32L1528.53,485.56z M1529.79,481.76l-1-0.31l0.63-1.9l1,0.31L1529.79,481.76z
	 M1531.05,477.97l-1-0.32l0.64-1.9l1,0.32L1531.05,477.97z M1532.32,474.17l-0.95-0.32L1532,472l1,0.31L1532.32,474.17z
	 M1533.58,470.38l-0.95-0.32l0.64-1.9l0.94,0.32L1533.58,470.38z M1534.85,466.58l-0.95-0.32l0.63-1.89l1,0.31L1534.85,466.58z
	 M1536.11,462.79l-1-0.32l0.63-1.9l1,0.32L1536.11,462.79z M1537.37,458.99l-1-0.32l0.64-1.89l1,0.31L1537.37,458.99z
	 M1538.64,455.2l-1-0.32l0.63-1.9l1,0.32L1538.64,455.2z M1595.95,452.87l-0.6-0.6l0.71-0.71l0.6,0.61L1595.95,452.87z
	 M1539.95,451.4l-1-0.32l0.63-1.89l1,0.31L1539.95,451.4z M1593.95,450.86l-1.42-1.42l0.71-0.71l1.41,1.42L1593.95,450.86z
	 M1591.12,448.02l-1.41-1.41l0.71-0.71l1.41,1.42L1591.12,448.02z M1541.18,447.61l-1-0.32l0.63-1.9l1,0.32L1541.18,447.61z
	 M1588.3,445.19l-1.42-1.41l0.71-0.71l1.41,1.42L1588.3,445.19z M1542.44,443.81l-1-0.32l0.63-1.89l0.95,0.31L1542.44,443.81z
	 M1585.44,442.36l-1.41-1.41l0.7-0.71l1.42,1.42L1585.44,442.36z M1543.71,440l-1-0.32l0.64-1.9l0.95,0.32L1543.71,440z
	 M1582.65,439.51l-1.41-1.41l0.71-0.71l1.41,1.41L1582.65,439.51z M1579.83,436.68l-1.41-1.42l0.7-0.7l1.42,1.41L1579.83,436.68z
	 M1544.98,436.2l-1-0.32l0.63-1.89l0.95,0.31L1544.98,436.2z M1576.98,433.85l-1.41-1.42l0.71-0.7l1.41,1.41L1576.98,433.85z
	 M1546.22,432.41l-1-0.32l0.63-1.9l0.95,0.32L1546.22,432.41z M1574.16,431.02l-1.42-1.42l0.71-0.7l1.41,1.41L1574.16,431.02z
	 M1547.48,428.61l-0.94-0.32l0.63-1.89l1,0.31L1547.48,428.61z M1571.33,428.19l-1.41-1.42l0.71-0.71l1.41,1.42L1571.33,428.19z
	 M1568.51,425.36l-1.42-1.42l0.71-0.71l1.41,1.42L1568.51,425.36z M1548.75,424.81l-1-0.31l0.63-1.9l1,0.32L1548.75,424.81z
	 M1565.68,422.52l-1.41-1.41l0.71-0.71l1.41,1.42L1565.68,422.52z M1550,421l-1-0.32l0.64-1.89l1,0.31L1550,421z M1562.85,419.67
	l-1.42-1.41l0.71-0.71l1.41,1.41L1562.85,419.67z M1551.27,417.21l-1-0.32l0.63-1.9l1,0.32L1551.27,417.21z M1560.02,416.84
	l-1.41-1.41l0.7-0.71l1.42,1.41L1560.02,416.84z M1557.19,414.01l-1.41-1.42l0.71-0.7l1.41,1.41L1557.19,414.01z M1552.53,413.41
	l-1-0.32l0.63-1.89l1,0.31L1552.53,413.41z M1554.37,411.18l-1.39-1.4l0.34-0.34l-0.47-0.14l0.25-0.8l2,2L1554.37,411.18z"/>
<circle class="st1" cx="1494.69" cy="268.15" r="24.72"/>
<path d="M1494.7,293.38c-1.364,0-2.725-0.114-4.07-0.34c-13.747-2.242-23.074-15.203-20.832-28.95
	c2.242-13.747,15.203-23.074,28.95-20.832s23.074,15.203,20.832,28.95c0,0.001,0,0.001,0,0.002l0,0
	C1517.58,284.401,1507.054,293.357,1494.7,293.38z M1494.64,243.92c-13.382,0.047-24.191,10.934-24.144,24.316
	s10.934,24.191,24.316,24.144c11.844-0.042,21.922-8.64,23.828-20.33l0,0c2.14-13.199-6.807-25.639-20-27.81
	C1497.317,244.027,1495.98,243.92,1494.64,243.92L1494.64,243.92z"/>
<circle class="st2" cx="1494.69" cy="268.15" r="6.18"/>
<path d="M1494.69,274.83c-3.695-0.008-6.684-3.009-6.676-6.704c0.001-0.354,0.029-0.707,0.086-1.056
	c0.7-3.622,4.205-5.991,7.827-5.29c3.473,0.672,5.82,3.934,5.353,7.44l0,0C1500.755,272.453,1497.965,274.828,1494.69,274.83z
	 M1494.69,262.47c-2.778,0.007-5.146,2.019-5.6,4.76c-0.506,3.096,1.594,6.016,4.69,6.522c3.096,0.506,6.016-1.594,6.522-4.69
	c0.506-3.096-1.594-6.016-4.69-6.522c0,0-0.001,0-0.002,0c-0.308-0.048-0.619-0.072-0.93-0.07H1494.69z"/>
<path class="st0" d="M1603.15,139.23c-0.45-25.59-20-46.67-45.56-47.1c-25.57-0.384-46.63,19.992-47.09,45.56
	c-0.41,20.24,15.17,40.79,19.53,46.45c3.93,5.11,8.36,9.79,14.52,11.67l34,10.37c7.18,2.19,13.43-2.76,15.81-9.88
	C1598.53,183.88,1603.66,168.82,1603.15,139.23z"/>
<path d="M1582,207.21c-1.201-0.008-2.394-0.193-3.54-0.55l-34-10.37c-6.52-2-11.13-7.1-14.78-11.84
	c-16.57-21.55-19.82-37.33-19.63-46.77c0.516-25.516,21.299-45.957,46.82-46.05h0.78c25.37,0.42,45.59,21.33,46.05,47.59
	c0.51,29.43-4.59,44.67-8.69,56.92l-0.1,0.32C1592.92,202.24,1588.08,207.21,1582,207.21z M1556.82,92.63
	c-24.976,0.093-45.315,20.099-45.82,45.07c-0.19,9.28,3,24.82,19.43,46.14c3.55,4.61,8,9.59,14.27,11.49l34,10.38
	c5.24,1.6,12.24-0.71,15.2-9.57l0.1-0.31c4.08-12.18,9.14-27.33,8.64-56.59c-0.45-25.73-20.24-46.2-45.07-46.61L1556.82,92.63z"/>
<circle class="st0" cx="1556.83" cy="138.29" r="46.16"/>
<path d="M1556.83,185c-25.77,0-46.66-20.89-46.66-46.66c0-25.77,20.89-46.66,46.66-46.66c25.77,0,46.66,20.89,46.66,46.66
	C1603.462,164.098,1582.588,184.972,1556.83,185z M1556.83,92.68c-25.217,0-45.66,20.443-45.66,45.66
	c0,25.217,20.443,45.66,45.66,45.66c25.217,0,45.66-20.443,45.66-45.66c0-25.225-20.435-45.682-45.66-45.71V92.68z"/>
<circle class="st1" cx="1494.69" cy="268.15" r="24.72"/>
<path d="M1494.69,293.37c-13.934,0.006-25.234-11.286-25.24-25.22c-0.006-13.934,11.286-25.234,25.22-25.24
	c13.934-0.006,25.234,11.286,25.24,25.22c0,0.007,0,0.013,0,0.02C1519.893,282.072,1508.612,293.353,1494.69,293.37z
	 M1494.69,243.92c-13.382-0.006-24.234,10.838-24.24,24.22c-0.006,13.382,10.838,24.234,24.22,24.24
	c13.382,0.006,24.234-10.838,24.24-24.22c0-0.003,0-0.007,0-0.01C1518.893,254.779,1508.061,243.942,1494.69,243.92z"/>
<circle class="st1" cx="1499.53" cy="427.76" r="17.31"/>
<path d="M1499.53,445.56c-9.836,0.005-17.814-7.964-17.82-17.8s7.964-17.814,17.8-17.82s17.814,7.964,17.82,17.8
	c0,0.007,0,0.013,0,0.02C1517.319,437.586,1509.356,445.549,1499.53,445.56z M1499.53,410.95c-9.284-0.005-16.814,7.516-16.82,16.8
	s7.516,16.814,16.8,16.82s16.814-7.516,16.82-16.8c0-0.003,0-0.007,0-0.01c-0.038-9.256-7.544-16.744-16.8-16.76V410.95z"/>
<circle class="st2" cx="1499.53" cy="427.76" r="6.18"/>
<path d="M1499.53,434.44c-3.689,0-6.68-2.991-6.68-6.68s2.991-6.68,6.68-6.68c3.689,0,6.68,2.991,6.68,6.68
	C1506.205,431.447,1503.217,434.435,1499.53,434.44z M1499.53,422.08c-3.137,0-5.68,2.543-5.68,5.68s2.543,5.68,5.68,5.68
	s5.68-2.543,5.68-5.68S1502.667,422.08,1499.53,422.08C1499.53,422.08,1499.53,422.08,1499.53,422.08L1499.53,422.08z"/>
<circle class="st1" cx="1508.23" cy="545.91" r="9.89"/>
<path d="M1508.23,556.3c-5.738,0-10.39-4.652-10.39-10.39s4.652-10.39,10.39-10.39c5.738,0,10.39,4.652,10.39,10.39
	C1518.615,551.646,1513.966,556.294,1508.23,556.3z M1508.23,536.52c-5.186,0-9.39,4.204-9.39,9.39s4.204,9.39,9.39,9.39
	c5.186,0,9.39-4.204,9.39-9.39C1517.615,540.726,1513.414,536.526,1508.23,536.52L1508.23,536.52z"/>
<circle class="st2" cx="1508.23" cy="545.91" r="6.18"/>
<path d="M1508.23,552.59c-3.689,0-6.68-2.991-6.68-6.68s2.991-6.68,6.68-6.68c3.689,0,6.68,2.991,6.68,6.68
	C1514.905,549.597,1511.917,552.585,1508.23,552.59z M1508.23,540.23c-3.137,0-5.68,2.543-5.68,5.68s2.543,5.68,5.68,5.68
	c3.137,0,5.68-2.543,5.68-5.68C1513.905,542.775,1511.365,540.235,1508.23,540.23L1508.23,540.23z"/>
<circle class="st1" cx="1499.53" cy="427.76" r="17.31"/>
<path d="M1499.53,445.56c-9.836,0.005-17.814-7.964-17.82-17.8s7.964-17.814,17.8-17.82s17.814,7.964,17.82,17.8
	c0,0.007,0,0.013,0,0.02C1517.319,437.586,1509.356,445.549,1499.53,445.56z M1499.53,410.95c-9.284-0.005-16.814,7.516-16.82,16.8
	s7.516,16.814,16.8,16.82s16.814-7.516,16.82-16.8c0-0.003,0-0.007,0-0.01c-0.038-9.256-7.544-16.744-16.8-16.76V410.95z"/>
<circle class="st1" cx="1508.23" cy="545.91" r="9.89"/>
<path d="M1508.23,556.3L1508.23,556.3c-5.738,0-10.39-4.652-10.39-10.39s4.652-10.39,10.39-10.39l0,0
	c5.738,0,10.39,4.652,10.39,10.39S1513.968,556.3,1508.23,556.3z M1508.23,536.52c-5.186,0-9.39,4.204-9.39,9.39
	s4.204,9.39,9.39,9.39l0,0c5.186,0,9.39-4.204,9.39-9.39S1513.416,536.52,1508.23,536.52z"/>
<polygon points="1507.73,545.95 1499.03,427.8 1494.19,268.17 1495.19,268.13 1500.03,427.74 1508.73,545.88 "/>
<circle class="st2" cx="1499.53" cy="427.76" r="6.18"/>
<path d="M1499.53,434.44c-3.689,0-6.68-2.991-6.68-6.68s2.991-6.68,6.68-6.68c3.689,0,6.68,2.991,6.68,6.68
	C1506.205,431.447,1503.217,434.435,1499.53,434.44z M1499.53,422.08c-3.137,0-5.68,2.543-5.68,5.68s2.543,5.68,5.68,5.68
	s5.68-2.543,5.68-5.68S1502.667,422.08,1499.53,422.08C1499.53,422.08,1499.53,422.08,1499.53,422.08L1499.53,422.08z"/>
<circle class="st2" cx="1494.69" cy="268.15" r="6.18"/>
<path d="M1494.69,274.83c-3.689,0-6.68-2.991-6.68-6.68s2.991-6.68,6.68-6.68c3.689,0,6.68,2.991,6.68,6.68
	C1501.365,271.837,1498.377,274.825,1494.69,274.83z M1494.69,262.47c-3.137,0-5.68,2.543-5.68,5.68s2.543,5.68,5.68,5.68
	s5.68-2.543,5.68-5.68C1500.365,265.015,1497.825,262.475,1494.69,262.47z"/>
<circle class="st2" cx="1508.23" cy="545.91" r="6.18"/>
<path d="M1508.23,552.59L1508.23,552.59c-3.689,0.005-6.684-2.981-6.69-6.67c-0.005-3.689,2.981-6.684,6.67-6.69
	c0.007,0,0.013,0,0.02,0l0,0c3.687,0.005,6.675,2.993,6.68,6.68l0,0C1514.905,549.597,1511.917,552.585,1508.23,552.59z
	 M1508.23,540.23c-1.501-0.001-2.941,0.596-4,1.66c-2.22,2.216-2.224,5.812-0.007,8.033c1.062,1.064,2.504,1.664,4.007,1.667l0,0
	c3.137,0.005,5.684-2.534,5.689-5.671c0.005-3.137-2.534-5.684-5.671-5.689C1508.242,540.23,1508.236,540.23,1508.23,540.23z"/>
<polygon points="1517.57,620.99 1507.7,615.29 1499.35,595.88 1495.48,578.69 1495.82,557.73 1508.36,545.06 1522.61,573.99 
	1522.89,596.81 1521.89,596.82 1521.61,574.12 1508.09,546.76 1496.81,558.15 1496.48,578.59 1500.3,595.57 1508.48,614.59 
	1516.59,619.27 1516.92,580.95 1517.92,580.96 "/>
<polygon points="1620.82,560.47 1610.94,554.77 1602.6,535.36 1598.73,518.16 1599.06,497.21 1611.61,484.54 1625.86,513.47 
	1626.14,536.29 1625.14,536.3 1624.86,513.59 1611.34,486.24 1600.06,497.63 1599.73,518.06 1603.55,535.05 1611.73,554.07 
	1619.84,558.75 1620.17,520.43 1621.17,520.44 "/>
<circle class="st2" cx="1596.38" cy="452.52" r="6.18"/>
<path d="M1596.38,459.2c-3.689,0-6.68-2.991-6.68-6.68s2.991-6.68,6.68-6.68c3.689,0,6.68,2.991,6.68,6.68
	C1603.055,456.207,1600.067,459.195,1596.38,459.2z M1596.38,446.84c-3.137,0-5.68,2.543-5.68,5.68s2.543,5.68,5.68,5.68
	s5.68-2.543,5.68-5.68C1602.055,449.385,1599.515,446.845,1596.38,446.84L1596.38,446.84z"/>
<circle class="st2" cx="1525.6" cy="492.99" r="6.18"/>
<path d="M1525.6,499.67c-3.689,0-6.68-2.991-6.68-6.68s2.991-6.68,6.68-6.68c3.689,0,6.68,2.991,6.68,6.68
	C1532.275,496.677,1529.287,499.665,1525.6,499.67z M1525.6,487.31c-3.137,0-5.68,2.543-5.68,5.68s2.543,5.68,5.68,5.68
	s5.68-2.543,5.68-5.68C1531.275,489.855,1528.735,487.315,1525.6,487.31L1525.6,487.31z"/>
<circle class="st1" cx="231.74" cy="251.24" r="20.02"/>
<path d="M231.74,271.77c-11.338,0.006-20.534-9.182-20.54-20.52c-0.006-11.338,9.182-20.534,20.52-20.54
	c11.338-0.006,20.534,9.182,20.54,20.52c0,0.003,0,0.007,0,0.01C252.249,262.57,243.07,271.753,231.74,271.77z M231.74,231.77
	c-10.786-0.006-19.534,8.734-19.54,19.52s8.734,19.534,19.52,19.54s19.534-8.734,19.54-19.52c0-0.007,0-0.013,0-0.02
	c0.011-10.793-8.727-19.553-19.52-19.57V231.77z"/>
<circle class="st1" cx="380.9" cy="251.24" r="20.02"/>
<path d="M380.9,271.77c-11.338,0.006-20.534-9.182-20.54-20.52s9.182-20.534,20.52-20.54s20.534,9.182,20.54,20.52
	c0,0.003,0,0.007,0,0.01C401.409,262.57,392.23,271.753,380.9,271.77z M380.9,231.77c-10.786-0.006-19.534,8.734-19.54,19.52
	c-0.006,10.786,8.734,19.534,19.52,19.54s19.534-8.734,19.54-19.52c0-0.007,0-0.013,0-0.02c0.011-10.793-8.727-19.553-19.52-19.57
	V231.77z"/>
<circle class="st1" cx="386.01" cy="389.21" r="16.02"/>
<path d="M386,405.73c-9.124,0-16.52-7.396-16.52-16.52s7.396-16.52,16.52-16.52s16.52,7.396,16.52,16.52c0,0,0,0,0,0
	C402.509,398.329,395.119,405.719,386,405.73z M386,373.73c-8.571,0-15.52,6.949-15.52,15.52c0,8.571,6.949,15.52,15.52,15.52
	c8.571,0,15.52-6.949,15.52-15.52c0-0.003,0-0.007,0-0.01c0.006-8.577-6.943-15.534-15.52-15.54l0,0V373.73z"/>
<circle class="st1" cx="226.21" cy="389.21" r="16.02"/>
<path d="M226.21,405.73c-9.124,0-16.52-7.396-16.52-16.52c0-9.124,7.396-16.52,16.52-16.52c9.124,0,16.52,7.396,16.52,16.52l0,0
	C242.719,398.329,235.329,405.719,226.21,405.73z M226.21,373.73c-8.571,0-15.52,6.949-15.52,15.52c0,8.571,6.949,15.52,15.52,15.52
	s15.52-6.949,15.52-15.52c0-0.003,0-0.007,0-0.01c0.006-8.577-6.943-15.534-15.52-15.54h0V373.73z"/>
<circle class="st1" cx="199.53" cy="530.3" r="10.68"/>
<path d="M199.53,541.48c-6.175,0-11.18-5.005-11.18-11.18s5.005-11.18,11.18-11.18s11.18,5.005,11.18,11.18l0,0
	C210.699,536.47,205.7,541.469,199.53,541.48z M199.53,520.12c-5.622,0-10.18,4.558-10.18,10.18s4.558,10.18,10.18,10.18
	s10.18-4.558,10.18-10.18l0,0C209.699,524.682,205.148,520.131,199.53,520.12z"/>
<circle class="st2" cx="199.53" cy="530.3" r="6.67"/>
<path d="M199.53,537.47c-3.96-0.005-7.166-3.22-7.16-7.18c0.006-3.96,3.22-7.166,7.18-7.16c3.956,0.005,7.16,3.214,7.16,7.17
	C206.704,534.261,203.491,537.47,199.53,537.47z M199.53,524.13c-3.408,0.005-6.166,2.772-6.16,6.18
	c0.006,3.408,2.772,6.166,6.18,6.16c3.404-0.005,6.16-2.766,6.16-6.17C205.704,526.891,202.939,524.13,199.53,524.13L199.53,524.13z
	"/>
<circle class="st1" cx="412.62" cy="530.3" r="10.68"/>
<path d="M412.62,541.48c-6.175,0-11.18-5.005-11.18-11.18c0-6.175,5.005-11.18,11.18-11.18c6.175,0,11.18,5.005,11.18,11.18l0,0
	C423.789,536.47,418.79,541.469,412.62,541.48z M412.62,520.12c-5.622,0-10.18,4.558-10.18,10.18c0,5.622,4.558,10.18,10.18,10.18
	c5.622,0,10.18-4.558,10.18-10.18l0,0C422.789,524.682,418.238,520.131,412.62,520.12z"/>
<circle class="st2" cx="412.62" cy="530.3" r="6.67"/>
<path d="M412.62,537.47c-3.96-0.005-7.166-3.22-7.16-7.18s3.22-7.166,7.18-7.16c3.956,0.005,7.16,3.214,7.16,7.17
	C419.794,534.261,416.581,537.47,412.62,537.47z M412.62,524.13c-3.408,0.005-6.166,2.772-6.16,6.18s2.772,6.166,6.18,6.16
	c3.404-0.005,6.16-2.766,6.16-6.17C418.794,526.891,416.029,524.13,412.62,524.13L412.62,524.13z"/>
<rect x="305.93" y="198.99" width="1" height="256.05"/>
<circle class="st1" cx="262.93" cy="491.9" r="42.71"/>
<path d="M262.93,535.12c-23.87,0.006-43.224-19.34-43.23-43.21c-0.006-23.87,19.34-43.224,43.21-43.23s43.224,19.34,43.23,43.21
	c0,0.003,0,0.007,0,0.01C306.118,515.757,286.787,535.092,262.93,535.12z M262.93,449.69c-23.317-0.006-42.224,18.893-42.23,42.21
	s18.893,42.224,42.21,42.23s42.224-18.893,42.23-42.21c0-0.007,0-0.013,0-0.02C305.112,468.599,286.23,449.718,262.93,449.69z"/>
<line class="st6" x1="262.93" y1="491.9" x2="306.43" y2="455.04"/>
<rect x="256.167" y="472.969" transform="matrix(0.7632 -0.6461 0.6461 0.7632 -238.5174 296.039)" width="57.02" height="1"/>
<circle class="st2" cx="262.93" cy="491.9" r="6.67"/>
<path d="M262.93,499.08c-3.965,0-7.18-3.215-7.18-7.18s3.215-7.18,7.18-7.18c3.965,0,7.18,3.215,7.18,7.18l0,0
	C270.11,495.865,266.895,499.08,262.93,499.08z M262.93,485.73c-3.413,0-6.18,2.767-6.18,6.18s2.767,6.18,6.18,6.18
	s6.18-2.767,6.18-6.18c0-0.003,0-0.007,0-0.01C269.104,488.491,266.339,485.73,262.93,485.73L262.93,485.73z"/>
<circle class="st1" cx="274.95" cy="694.53" r="24.03"/>
<path d="M275,719.06c-13.548,0.006-24.534-10.972-24.54-24.52c-0.006-13.548,10.972-24.534,24.52-24.54s24.534,10.972,24.54,24.52
	c0,0.003,0,0.007,0,0.01C299.503,708.067,288.537,719.038,275,719.06z M275,671c-12.995-0.006-23.534,10.525-23.54,23.52
	c-0.006,12.995,10.525,23.534,23.52,23.54s23.534-10.525,23.54-23.52c0-0.003,0-0.007,0-0.01
	C298.503,681.546,287.984,671.022,275,671z"/>
<polygon points="274.49,910.69 274.4,694.58 262.43,491.93 263.43,491.87 275.4,694.55 275.49,910.69 "/>
<circle class="st2" cx="274.95" cy="694.53" r="6.67"/>
<path d="M275,701.71c-3.965,0.005-7.184-3.205-7.19-7.17c-0.006-3.965,3.205-7.185,7.17-7.19c3.965-0.005,7.184,3.205,7.19,7.17
	c0,0.003,0,0.007,0,0.01C282.165,698.489,278.959,701.699,275,701.71z M275,688.36c-3.413-0.005-6.184,2.757-6.19,6.17
	c-0.006,3.413,2.757,6.184,6.17,6.19s6.184-2.757,6.19-6.17c0-0.007,0-0.013,0-0.02C281.165,691.125,278.405,688.365,275,688.36
	L275,688.36z"/>
<circle class="st2" cx="274.99" cy="910.69" r="6.67"/>
<path d="M275,917.87c-3.965,0.005-7.184-3.205-7.19-7.17c-0.006-3.965,3.205-7.185,7.17-7.19c3.965-0.005,7.184,3.205,7.19,7.17
	c0,0.003,0,0.007,0,0.01C282.165,914.649,278.959,917.859,275,917.87z M275,904.52c-3.413-0.005-6.184,2.757-6.19,6.17
	c-0.006,3.413,2.757,6.184,6.17,6.19s6.184-2.757,6.19-6.17c0-0.007,0-0.013,0-0.02C281.164,907.285,278.405,904.526,275,904.52z"/>
<path class="st0" d="M255.78,924.33h32.05c4.418,0,8,3.582,8,8v5.36c0,4.418-3.582,8-8,8h-32.05c-4.418,0-8-3.582-8-8v-5.36
	C247.78,927.912,251.362,924.33,255.78,924.33z"/>
<path d="M287.83,946.19h-32c-4.692-0.005-8.494-3.808-8.5-8.5v-5.36c0.006-4.692,3.808-8.495,8.5-8.5h32
	c4.692,0.005,8.494,3.808,8.5,8.5v5.36C296.324,942.382,292.522,946.185,287.83,946.19z M255.83,924.83
	c-4.14,0.005-7.494,3.36-7.5,7.5v5.36c0.011,4.138,3.362,7.489,7.5,7.5h32c4.14-0.005,7.494-3.36,7.5-7.5v-5.36
	c0-4.142-3.358-7.5-7.5-7.5l0,0H255.83z"/>
<path d="M280.28,513.38h-0.55v-1c0.641,0.028,1.283,0.004,1.92-0.07l0.11,1C281.268,513.362,280.774,513.386,280.28,513.38z
	 M277.68,513.16c-0.674-0.114-1.342-0.264-2-0.45l0.27-1c0.64,0.17,1.28,0.32,1.9,0.42L277.68,513.16z M283.85,512.89l-0.28-1
	c0.611-0.177,1.204-0.411,1.77-0.7l0.45,0.9C285.168,512.413,284.519,512.681,283.85,512.89z M273.74,512.08
	c-0.62-0.24-1.25-0.5-1.88-0.8l0.42-0.9c0.61,0.28,1.22,0.54,1.81,0.76L273.74,512.08z M287.56,511l-0.6-0.8
	c0.508-0.386,0.983-0.814,1.42-1.28l0.73,0.68C288.632,510.108,288.114,510.576,287.56,511z M270.05,510.33
	c-0.58-0.32-1.16-0.66-1.75-1l0.53-0.85c0.57,0.35,1.14,0.69,1.7,1L270.05,510.33z M266.61,508.19c-0.54-0.38-1.09-0.78-1.63-1.2
	l0.61-0.79c0.533,0.407,1.063,0.797,1.59,1.17L266.61,508.19z M290.4,508l-0.83-0.56c0.371-0.533,0.705-1.091,1-1.67l0.89,0.45
	C291.147,506.837,290.793,507.431,290.4,508z M263.4,505.75c-0.513-0.42-1.023-0.86-1.53-1.32l0.67-0.74c0.5,0.45,1,0.88,1.5,1.3
	L263.4,505.75z M292.23,504.33l-0.94-0.34c0.22-0.6,0.42-1.22,0.59-1.87l1,0.26c-0.179,0.661-0.392,1.312-0.64,1.95H292.23z
	 M260.4,503.05c-0.48-0.46-1-0.94-1.42-1.43l0.72-0.69c0.46,0.48,0.93,0.95,1.4,1.4L260.4,503.05z M293.28,500.38l-1-0.17
	c0.11-0.63,0.2-1.29,0.27-1.95l1,0.11c-0.05,0.68-0.14,1.36-0.26,2.01L293.28,500.38z M257.6,500.15c-0.45-0.49-0.89-1-1.33-1.51
	L257,498c0.43,0.5,0.87,1,1.31,1.49L257.6,500.15z M255,497.09c-0.41-0.52-0.83-1-1.24-1.59l0.79-0.61
	c0.41,0.54,0.82,1.06,1.23,1.57L255,497.09z M293.75,496.35l-1-0.05c0-0.61,0-1.23,0-1.86v-0.12h1v0.12
	c0.03,0.65,0.02,1.29-0.01,1.91H293.75z M252.56,493.88c-0.39-0.53-0.78-1.08-1.16-1.64l0.83-0.57c0.37,0.55,0.75,1.1,1.14,1.63
	L252.56,493.88z M292.74,492.35c0-0.65-0.08-1.31-0.14-2l1-0.09c0.067,0.667,0.117,1.333,0.15,2L292.74,492.35z M250.28,490.56
	c-0.36-0.56-0.72-1.12-1.07-1.7l0.85-0.52c0.35,0.57,0.7,1.13,1.06,1.68L250.28,490.56z M292.38,488.41c-0.09-0.65-0.19-1.3-0.3-2
	l1-0.17c0.11,0.67,0.21,1.34,0.3,2L292.38,488.41z M248.17,487.14l-1-1.75l0.87-0.49c0.33,0.59,0.65,1.17,1,1.73L248.17,487.14z
	 M291.72,484.5c-0.13-0.64-0.27-1.29-0.42-1.94l1-0.23c0.16,0.66,0.3,1.32,0.43,2L291.72,484.5z M246.23,483.62
	c-0.32-0.6-0.62-1.2-0.92-1.79l0.9-0.45c0.29,0.59,0.59,1.18,0.9,1.78L246.23,483.62z M290.81,480.62
	c-0.17-0.64-0.35-1.27-0.54-1.92l1-0.28c0.19,0.65,0.37,1.29,0.55,1.94L290.81,480.62z M244.43,480c-0.28-0.61-0.56-1.22-0.82-1.83
	l0.91-0.4c0.27,0.6,0.54,1.21,0.82,1.81L244.43,480z M289.66,476.82c-0.2-0.62-0.42-1.25-0.64-1.88l0.94-0.34
	c0.23,0.64,0.45,1.27,0.65,1.91L289.66,476.82z M242.82,476.31c-0.25-0.62-0.5-1.25-0.73-1.87l0.93-0.35
	c0.23,0.61,0.48,1.23,0.73,1.85L242.82,476.31z M288.33,473.08c-0.24-0.62-0.49-1.23-0.75-1.85l0.93-0.38
	c0.26,0.62,0.51,1.25,0.75,1.87L288.33,473.08z M241.4,472.55c-0.23-0.64-0.44-1.27-0.64-1.91l1-0.3c0.2,0.62,0.41,1.25,0.63,1.88
	L241.4,472.55z M286.8,469.41c-0.27-0.61-0.54-1.21-0.83-1.81l0.91-0.43c0.28,0.61,0.56,1.22,0.83,1.83L286.8,469.41z
	 M240.17,468.72c-0.19-0.66-0.37-1.3-0.54-2l1-0.25c0.17,0.64,0.34,1.27,0.53,1.92L240.17,468.72z M285.1,465.81
	c-0.3-0.59-0.6-1.18-0.91-1.77l0.88-0.46c0.32,0.59,0.62,1.19,0.92,1.78L285.1,465.81z M239.16,464.81
	c-0.147-0.667-0.287-1.333-0.42-2l1-0.19c0.13,0.64,0.26,1.29,0.41,1.94L239.16,464.81z M283.74,463.21c-0.32-0.59-0.64-1.17-1-1.74
	l0.87-0.5c0.33,0.58,0.66,1.17,1,1.76L283.74,463.21z M238.39,460.85c-0.11-0.68-0.2-1.34-0.28-2l1-0.12c0.08,0.64,0.17,1.3,0.28,2
	L238.39,460.85z M281.76,459.76l-1.05-1.69l0.84-0.53c0.36,0.56,0.71,1.13,1.07,1.7L281.76,459.76z M237.9,456.84
	c-0.05-0.69-0.09-1.36-0.12-2h1c0,0.667,0.04,1.333,0.12,2H237.9z M279.61,456.41c-0.37-0.55-0.75-1.09-1.13-1.63l0.81-0.58
	c0.39,0.54,0.77,1.09,1.15,1.65L279.61,456.41z M277.31,453.18c-0.4-0.54-0.81-1.06-1.22-1.58l0.79-0.62
	c0.41,0.52,0.82,1.05,1.23,1.6L277.31,453.18z M238.75,452.81h-1c0-0.69,0-1.37,0.08-2l1,0.07c-0.04,0.62-0.07,1.28-0.08,1.95
	V452.81z M274.83,450.07c-0.43-0.52-0.86-1-1.3-1.5l0.75-0.67c0.44,0.5,0.88,1,1.32,1.52L274.83,450.07z M239,448.89l-1-0.12
	c0.093-0.667,0.203-1.333,0.33-2l1,0.2C239.2,447.58,239.1,448.23,239,448.89z M272.18,447.12c-0.46-0.48-0.92-0.95-1.39-1.41
	l0.7-0.71c0.48,0.46,0.95,0.94,1.42,1.44L272.18,447.12z M239.78,445.05l-1-0.27c0.183-0.657,0.4-1.305,0.65-1.94l0.93,0.37
	c-0.221,0.603-0.411,1.217-0.57,1.84L239.78,445.05z M269.36,444.34c-0.49-0.46-1-0.89-1.48-1.32l0.64-0.76
	c0.51,0.43,1,0.88,1.51,1.34L269.36,444.34z M266.36,441.77c-0.53-0.42-1.06-0.81-1.58-1.19l0.58-0.82c0.54,0.39,1.08,0.8,1.61,1.22
	L266.36,441.77z M241.23,441.45l-0.88-0.48c0.33-0.605,0.698-1.19,1.1-1.75l0.81,0.6C241.879,440.339,241.535,440.883,241.23,441.45
	L241.23,441.45z M263.14,439.45c-0.56-0.36-1.12-0.693-1.68-1l0.49-0.87c0.58,0.33,1.16,0.68,1.73,1.05L263.14,439.45z
	 M243.51,438.36l-0.7-0.72c0.494-0.489,1.033-0.931,1.61-1.32l0.56,0.82c-0.524,0.368-1.016,0.779-1.47,1.23L243.51,438.36z
	 M259.72,437.51c-0.61-0.29-1.21-0.56-1.8-0.8l0.38-0.93c0.61,0.25,1.23,0.53,1.86,0.83L259.72,437.51z M246.65,436.22l-0.41-0.92
	c0.646-0.281,1.315-0.505,2-0.67l0.24,1c-0.628,0.14-1.241,0.341-1.83,0.6L246.65,436.22z M256.08,436.06
	c-0.621-0.194-1.252-0.354-1.89-0.48l0.19-1c0.65,0.13,1.32,0.3,2,0.5L256.08,436.06z M252.27,435.32
	c-0.639-0.045-1.281-0.045-1.92,0l-0.07-1c0.689-0.05,1.381-0.05,2.07,0L252.27,435.32z"/>
<circle class="st1" cx="349.83" cy="491.9" r="42.71"/>
<path d="M349.83,535.12c-23.87,0.028-43.242-19.3-43.27-43.17c-0.028-23.87,19.3-43.242,43.17-43.27s43.242,19.3,43.27,43.17
	c0,0.017,0,0.033,0,0.05C392.978,515.741,373.671,535.07,349.83,535.12z M349.83,449.69c-23.317-0.028-42.242,18.853-42.27,42.17
	s18.853,42.242,42.17,42.27s42.242-18.853,42.27-42.17c0-0.02,0-0.04,0-0.06C391.973,468.615,373.115,449.74,349.83,449.69z"/>
<line class="st6" x1="349.83" y1="491.9" x2="306.43" y2="455.04"/>
<rect x="327.632" y="444.961" transform="matrix(0.6473 -0.7622 0.7622 0.6473 -245.1322 417.0768)" width="1" height="56.94"/>
<circle class="st2" cx="349.83" cy="491.9" r="6.67"/>
<path d="M349.83,499.08c-3.965,0.006-7.184-3.205-7.19-7.17c-0.006-3.965,3.205-7.184,7.17-7.19c3.965-0.006,7.184,3.205,7.19,7.17
	c0,0.003,0,0.007,0,0.01C356.995,495.859,353.789,499.069,349.83,499.08z M349.83,485.73c-3.413-0.006-6.184,2.757-6.19,6.17
	s2.757,6.184,6.17,6.19s6.184-2.757,6.19-6.17c0-0.007,0-0.013,0-0.02C355.994,488.495,353.235,485.736,349.83,485.73L349.83,485.73
	z"/>
<circle class="st1" cx="337.82" cy="694.53" r="24.03"/>
<path d="M337.82,719.06c-13.548,0.006-24.534-10.972-24.54-24.52c-0.006-13.548,10.972-24.534,24.52-24.54
	s24.534,10.972,24.54,24.52c0,0.003,0,0.007,0,0.01C362.323,708.067,351.357,719.038,337.82,719.06z M337.82,671
	c-12.995-0.006-23.534,10.525-23.54,23.52c-0.006,12.995,10.525,23.534,23.52,23.54s23.534-10.525,23.54-23.52
	c0-0.003,0-0.007,0-0.01C361.323,681.546,350.805,671.022,337.82,671z"/>
<polygon points="338.27,910.69 337.27,910.69 337.36,694.58 349.33,491.87 350.33,491.93 338.35,694.61 "/>
<circle class="st2" cx="337.82" cy="694.53" r="6.67"/>
<path d="M337.82,701.71c-3.965,0.005-7.184-3.205-7.19-7.17c-0.006-3.965,3.205-7.185,7.17-7.19c3.965-0.005,7.184,3.205,7.19,7.17
	c0,0.003,0,0.007,0,0.01C344.985,698.489,341.779,701.699,337.82,701.71z M337.82,688.36c-3.413-0.005-6.184,2.757-6.19,6.17
	c-0.006,3.413,2.757,6.184,6.17,6.19s6.184-2.757,6.19-6.17c0-0.007,0-0.013,0-0.02C343.985,691.125,341.225,688.365,337.82,688.36
	L337.82,688.36z"/>
<circle class="st2" cx="337.77" cy="910.69" r="6.67"/>
<path d="M337.77,917.87c-3.965,0-7.18-3.215-7.18-7.18c0-3.965,3.215-7.18,7.18-7.18c3.965,0,7.18,3.215,7.18,7.18l0,0
	C344.95,914.655,341.735,917.87,337.77,917.87z M337.77,904.52c-3.413,0-6.18,2.767-6.18,6.18c0,3.413,2.767,6.18,6.18,6.18
	s6.18-2.767,6.18-6.18c0-0.003,0-0.007,0-0.01C343.944,907.281,341.179,904.52,337.77,904.52z"/>
<path class="st0" d="M356.98,945.68h-32.05c-4.418,0-8-3.582-8-8v-5.36c0-4.418,3.582-8,8-8h32.05c4.418,0,8,3.582,8,8v5.36
	C364.98,942.098,361.398,945.68,356.98,945.68z"/>
<path d="M357,946.19h-32.07c-4.692-0.005-8.494-3.808-8.5-8.5v-5.36c0.006-4.692,3.808-8.495,8.5-8.5H357
	c4.692,0.005,8.494,3.808,8.5,8.5v5.36C365.494,942.382,361.692,946.185,357,946.19z M324.95,924.83c-4.142,0-7.5,3.358-7.5,7.5l0,0
	v5.36c0.006,4.14,3.36,7.495,7.5,7.5H357c4.14-0.005,7.494-3.36,7.5-7.5v-5.36c0-4.142-3.358-7.5-7.5-7.5l0,0H324.95z"/>
<path d="M332.48,513.38c-0.508,0.001-1.016-0.029-1.52-0.09l0.11-1c0.638,0.069,1.279,0.093,1.92,0.07v1L332.48,513.38z
	 M335.08,513.16l-0.16-1c0.62-0.1,1.25-0.25,1.89-0.42l0.27,1C336.421,512.916,335.754,513.056,335.08,513.16L335.08,513.16z
	 M328.92,512.89c-0.672-0.192-1.325-0.447-1.95-0.76l0.45-0.9c0.567,0.287,1.16,0.522,1.77,0.7L328.92,512.89z M339.02,512.08
	l-0.35-0.94c0.6-0.22,1.2-0.48,1.81-0.76l0.42,0.9c-0.63,0.3-1.26,0.56-1.9,0.8H339.02z M325.2,511
	c-0.559-0.418-1.077-0.887-1.55-1.4l0.73-0.68c0.437,0.466,0.912,0.894,1.42,1.28L325.2,511z M342.71,510.33l-0.48-0.87
	c0.56-0.31,1.13-0.65,1.7-1l0.53,0.85c-0.58,0.39-1.17,0.69-1.75,1.05L342.71,510.33z M346.15,508.19l-0.57-0.82
	c0.533-0.373,1.063-0.763,1.59-1.17l0.61,0.79c-0.54,0.45-1.09,0.85-1.63,1.23L346.15,508.19z M322.36,508
	c-0.368-0.573-0.702-1.167-1-1.78l0.89-0.45c0.295,0.579,0.629,1.137,1,1.67L322.36,508z M349.36,505.76l-0.65-0.77
	c0.5-0.42,1-0.85,1.5-1.3l0.67,0.74C350.37,504.89,349.86,505.33,349.36,505.76z M320.52,504.33c-0.23-0.62-0.43-1.28-0.61-1.95
	l1-0.26c0.17,0.65,0.36,1.27,0.58,1.87L320.52,504.33z M352.35,503.05l-0.7-0.72c0.47-0.45,0.94-0.92,1.4-1.41l0.72,0.7
	C353.3,502.11,352.83,502.59,352.35,503.05L352.35,503.05z M319.47,500.38c-0.11-0.65-0.21-1.33-0.29-2l1-0.11
	c0.07,0.66,0.16,1.32,0.28,1.95L319.47,500.38z M355.15,500.15l-0.74-0.67c0.44-0.49,0.88-1,1.31-1.5l0.76,0.65
	C356,499.15,355.6,499.65,355.15,500.15L355.15,500.15z M357.77,497.08l-0.78-0.62c0.41-0.51,0.82-1,1.23-1.57l0.79,0.61
	C358.6,496,358.19,496.57,357.77,497.08L357.77,497.08z M319,496.35c0-0.62,0-1.26,0-1.91v-0.12h1v0.11c0,0.64,0,1.26,0,1.87
	L319,496.35z M360.18,493.89l-0.81-0.59c0.39-0.53,0.77-1.07,1.15-1.63l0.82,0.57c-0.34,0.56-0.74,1.11-1.13,1.65H360.18z
	 M320,492.35l-1-0.05c0-0.66,0.08-1.33,0.15-2l1,0.1C320.11,491,320.06,491.7,320,492.35z M362.46,490.56l-0.84-0.54
	c0.36-0.55,0.71-1.11,1.06-1.68l0.85,0.52c-0.32,0.58-0.68,1.14-1.04,1.7H362.46z M320.36,488.41l-1-0.13c0.09-0.66,0.19-1.33,0.3-2
	l1,0.17c-0.08,0.66-0.18,1.31-0.27,1.96H320.36z M364.57,487.14l-0.87-0.51c0.34-0.57,0.66-1.14,1-1.73l0.87,0.49L364.57,487.14z
	 M321.02,484.5l-1-0.2c0.13-0.65,0.28-1.31,0.43-2l1,0.23c-0.13,0.68-0.27,1.33-0.4,1.97H321.02z M366.51,483.62l-0.88-0.47
	c0.307-0.587,0.607-1.177,0.9-1.77l0.9,0.44c-0.27,0.6-0.57,1.18-0.89,1.8H366.51z M321.93,480.62l-1-0.25
	c0.17-0.65,0.35-1.29,0.54-1.94l1,0.28c-0.16,0.66-0.34,1.29-0.47,1.92L321.93,480.62z M368.3,480l-0.91-0.42l0.82-1.81l0.92,0.39
	c-0.24,0.63-0.52,1.24-0.8,1.84H368.3z M323.07,476.82l-1-0.31c0.2-0.64,0.42-1.27,0.65-1.91l0.94,0.34
	c-0.14,0.64-0.36,1.27-0.56,1.89L323.07,476.82z M369.91,476.31L369,476c0.25-0.62,0.5-1.24,0.73-1.85l0.93,0.35
	c-0.22,0.57-0.47,1.2-0.72,1.82L369.91,476.31z M324.41,473.08l-0.94-0.36c0.24-0.62,0.49-1.25,0.75-1.87l0.93,0.38
	c-0.23,0.63-0.48,1.24-0.71,1.86L324.41,473.08z M371.33,472.55l-0.94-0.33c0.22-0.627,0.43-1.257,0.63-1.89l0.95,0.31
	c-0.17,0.65-0.38,1.28-0.61,1.92L371.33,472.55z M326,469.42l-0.91-0.41c0.267-0.613,0.547-1.223,0.84-1.83l0.9,0.43
	C326.5,468.21,326.23,468.81,326,469.42z M372.63,468.72l-1-0.27c0.19-0.65,0.36-1.28,0.53-1.92l1,0.25
	c-0.16,0.65-0.38,1.29-0.57,1.94H372.63z M327.7,465.82l-0.89-0.45c0.3-0.59,0.6-1.19,0.92-1.78l0.88,0.46
	c-0.35,0.59-0.61,1.18-0.95,1.77H327.7z M373.64,464.82l-1-0.22c0.15-0.65,0.28-1.3,0.41-1.94l1,0.19c-0.16,0.65-0.3,1.31-0.45,1.97
	H373.64z M329,463.23l-0.88-0.48c0.32-0.59,0.65-1.18,1-1.76l0.87,0.5C329.66,462.06,329.34,462.64,329,463.23z M374.35,460.87
	l-1-0.16c0.11-0.66,0.2-1.32,0.28-2l1,0.12c-0.06,0.69-0.15,1.36-0.26,2.04L374.35,460.87z M331,459.78l-0.85-0.52
	c0.35-0.57,0.7-1.14,1.06-1.7l0.84,0.53L331,459.78z M374.86,456.86l-1-0.08c0.053-0.667,0.093-1.333,0.12-2h1
	C375,455.5,374.91,456.17,374.86,456.86z M333.15,456.43l-0.83-0.56c0.38-0.56,0.76-1.11,1.14-1.65l0.82,0.58
	C333.9,455.34,333.52,455.88,333.15,456.43z M335.45,453.2l-0.8-0.6c0.41-0.55,0.82-1.08,1.24-1.6l0.78,0.62
	C336.26,452.14,335.85,452.66,335.45,453.2L335.45,453.2z M374.01,452.83c0-0.67,0-1.33-0.08-2l1-0.07c0.05,0.66,0.07,1.34,0.08,2
	L374.01,452.83z M337.93,450.09l-0.77-0.65c0.44-0.52,0.88-1,1.32-1.52l0.75,0.67C338.79,449.08,338.36,449.58,337.93,450.09z
	 M373.75,448.89c-0.09-0.66-0.19-1.31-0.32-1.94l1-0.19c0.12,0.65,0.23,1.32,0.32,2L373.75,448.89z M340.57,447.13l-0.72-0.69
	c0.46-0.49,0.93-1,1.41-1.44l0.7,0.71C341.5,446.17,341,446.64,340.57,447.13L340.57,447.13z M372.97,445.05
	c-0.175-0.624-0.382-1.238-0.62-1.84l0.93-0.37c0.24,0.61,0.46,1.26,0.66,1.94L372.97,445.05z M343.39,444.34l-0.67-0.74
	c0.5-0.46,1-0.91,1.51-1.34l0.64,0.76C344.38,443.45,343.88,443.88,343.39,444.34z M346.39,441.77l-0.62-0.79
	c0.54-0.42,1.07-0.83,1.61-1.22l0.59,0.82c-0.51,0.42-1.04,0.77-1.56,1.19H346.39z M371.51,441.45c-0.295-0.569-0.629-1.117-1-1.64
	l0.81-0.59c0.402,0.56,0.77,1.145,1.1,1.75L371.51,441.45z M349.6,439.45l-0.54-0.84c0.57-0.37,1.15-0.72,1.73-1.05l0.49,0.87
	c-0.547,0.327-1.1,0.67-1.66,1.03L349.6,439.45z M369.23,438.35c-0.452-0.447-0.944-0.852-1.47-1.21l0.56-0.83
	c0.574,0.396,1.113,0.841,1.61,1.33L369.23,438.35z M353,437.52l-0.44-0.9c0.63-0.3,1.25-0.58,1.86-0.83l0.37,0.93
	C354.25,437,353.65,437.23,353,437.52z M366.07,436.23c-0.582-0.261-1.188-0.466-1.81-0.61l0.24-1c0.685,0.165,1.354,0.389,2,0.67
	L366.07,436.23z M356.64,436.07l-0.29-1c0.67-0.2,1.34-0.37,2-0.5l0.19,1c-0.628,0.133-1.249,0.3-1.86,0.5L356.64,436.07z
	 M360.45,435.33l-0.08-1c0.689-0.055,1.381-0.055,2.07,0l-0.07,1c-0.626-0.038-1.254-0.038-1.88,0H360.45z"/>
<polygon points="198.6,605.04 188.03,562.19 198.73,530.05 225.72,389.12 231.26,250.74 381.38,250.74 381.4,251.23 386.51,389.19 
	413.21,530.28 402.53,551.68 402.53,572.64 401.53,572.64 401.53,551.45 412.17,530.14 385.52,389.31 380.42,251.74 232.22,251.74 
	226.71,389.23 199.7,530.3 189.07,562.23 199.57,604.8 "/>
<polygon points="210.26,572.64 209.26,572.64 209.26,551.68 198.76,530.43 199.66,529.99 210.26,551.45 "/>
<polygon points="413.18,605.05 412.21,604.8 423.09,562.01 412.22,530.37 413.16,530.05 424.13,561.96 424.09,562.11 "/>
<circle class="st2" cx="231.74" cy="251.24" r="6.67"/>
<path d="M231.74,258.42c-3.965,0-7.18-3.215-7.18-7.18s3.215-7.18,7.18-7.18s7.18,3.215,7.18,7.18v0
	C238.92,255.205,235.705,258.42,231.74,258.42z M231.74,245.07c-3.413,0-6.18,2.767-6.18,6.18c0,3.413,2.767,6.18,6.18,6.18
	s6.18-2.767,6.18-6.18c0-0.003,0-0.007,0-0.01C237.914,247.831,235.149,245.07,231.74,245.07z"/>
<circle class="st2" cx="226.21" cy="389.21" r="6.67"/>
<path d="M226.21,396.39c-3.965,0-7.18-3.215-7.18-7.18s3.215-7.18,7.18-7.18c3.965,0,7.18,3.215,7.18,7.18l0,0
	C233.39,393.175,230.175,396.39,226.21,396.39z M226.21,383.04c-3.413,0-6.18,2.767-6.18,6.18s2.767,6.18,6.18,6.18
	s6.18-2.767,6.18-6.18c0-0.003,0-0.007,0-0.01c0.017-3.413-2.737-6.193-6.15-6.21c-0.01,0-0.02,0-0.03,0V383.04z"/>
<circle class="st2" cx="386.01" cy="389.21" r="6.67"/>
<path d="M386,396.39c-3.965,0-7.18-3.215-7.18-7.18c0-3.965,3.215-7.18,7.18-7.18c3.965,0,7.18,3.215,7.18,7.18l0,0
	C393.18,393.175,389.965,396.39,386,396.39z M386,383c-3.413,0-6.18,2.767-6.18,6.18s2.767,6.18,6.18,6.18s6.18-2.767,6.18-6.18
	c0-0.003,0-0.007,0-0.01C392.174,385.761,389.409,383,386,383z"/>
<circle class="st2" cx="380.9" cy="251.24" r="6.67"/>
<path d="M380.9,258.42c-3.965,0-7.18-3.215-7.18-7.18c0-3.965,3.215-7.18,7.18-7.18c3.965,0,7.18,3.215,7.18,7.18v0
	C388.08,255.205,384.865,258.42,380.9,258.42z M380.9,245.07c-3.413,0-6.18,2.767-6.18,6.18c0,3.413,2.767,6.18,6.18,6.18
	s6.18-2.767,6.18-6.18c0-0.003,0-0.007,0-0.01C387.074,247.831,384.309,245.07,380.9,245.07z"/>
<ellipse class="st0" cx="306.34" cy="310.89" rx="53.39" ry="80.09"/>
<path d="M306.34,391.48c-29.72,0-53.89-36.15-53.89-80.59s24.17-80.58,53.89-80.58s53.89,36.15,53.89,80.58
	S336.05,391.48,306.34,391.48z M306.34,231.31c-29.17,0-52.89,35.7-52.89,79.58s23.72,79.59,52.89,79.59s52.89-35.7,52.89-79.59
	S335.5,231.31,306.34,231.31L306.34,231.31z"/>
<path class="st0" d="M341.34,371.37c-3.87-21.26-18.07-37-35-37s-31.14,15.74-35,37"/>
<path d="M340.85,371.46c-3.92-21.55-18.11-36.59-34.51-36.59s-30.59,15-34.51,36.59l-1-0.18c4-22,18.61-37.41,35.5-37.41
	s31.48,15.38,35.49,37.41L340.85,371.46z"/>
<rect x="305.84" y="334.37" width="1" height="56.61"/>
<path class="st0" d="M284.63,177.69c0.002-5.276,1.953-10.366,5.48-14.29c-10.758-5.064-18.484-14.923-20.83-26.58l2.9,30.3
	c1.74,18.18,16.4,32,33.9,32C294.241,199.12,284.641,189.529,284.63,177.69z"/>
<path d="M306.08,199.64c-17.84,0-32.62-14-34.4-32.47l-2.9-30.3l1-0.14c2.316,11.511,9.935,21.251,20.55,26.27l0.6,0.29l-0.44,0.5
	c-7.721,8.595-7.012,21.822,1.583,29.543c3.847,3.455,8.836,5.364,14.007,5.357V199.64z M270.31,142.37l2.37,24.71
	c1.35,14.08,10.44,25.45,22.63,29.73c-10.547-5.921-14.297-19.27-8.376-29.817c0.681-1.214,1.477-2.36,2.376-3.423
	C280.486,159.21,273.682,151.617,270.31,142.37z"/>
<path class="st0" d="M322,163.4c7.909,8.798,7.188,22.341-1.609,30.25c-3.95,3.551-9.079,5.508-14.391,5.49
	c17.5,0,32.16-13.84,33.9-32l2.9-30.3C340.452,148.482,332.74,158.33,322,163.4z"/>
<path d="M306.08,199.64v-1c11.554,0.015,20.932-9.339,20.947-20.893c0.007-5.171-1.902-10.161-5.357-14.007l-0.45-0.5l0.61-0.29
	c10.606-5.007,18.227-14.726,20.56-26.22l1,0.14l-2.9,30.3C338.7,185.68,323.91,199.64,306.08,199.64z M322.85,163.57
	c7.811,9.234,6.657,23.053-2.577,30.864c-1.063,0.899-2.209,1.695-3.423,2.376c12.19-4.28,21.28-15.65,22.63-29.73l2.37-24.71
	C338.478,151.617,331.674,159.21,322.85,163.57L322.85,163.57z"/>
<path class="st0" d="M342.88,136.82c0.487-2.433,0.732-4.909,0.73-7.39c0-0.33,0-0.67,0-1c0,0.85-0.07,1.7-0.15,2.55L342.88,136.82z
	"/>
<path d="M343.37,136.92l-1-0.14l0.56-5.84c0.08-0.76,0.12-1.56,0.15-2.52h1v0.31c0,0.23,0,0.47,0,0.7
	C344.089,131.944,343.851,134.453,343.37,136.92z"/>
<path class="st0" d="M268.57,128.43c0,0.33,0,0.67,0,1c-0.002,2.481,0.243,4.957,0.73,7.39l-0.56-5.84
	C268.647,130.127,268.59,129.277,268.57,128.43z"/>
<path d="M268.79,136.92c-0.491-2.466-0.739-4.975-0.74-7.49c0-0.23,0-0.47,0-0.7v-0.31h1c0,1,0.07,1.77,0.15,2.52l0.56,5.84
	L268.79,136.92z"/>
<path class="st0" d="M290.11,163.4c7.854-8.817,21.368-9.598,30.186-1.744c0.615,0.547,1.197,1.13,1.744,1.744
	c10.76-5.065,18.489-14.922,20.84-26.58l0.56-5.84c0.08-0.85,0.12-1.7,0.15-2.55c-0.677-20.711-18.014-36.952-38.725-36.275
	c-19.761,0.645-35.63,16.514-36.275,36.275c0,0.847,0.05,1.697,0.15,2.55l0.56,5.84C271.642,148.473,279.359,158.331,290.11,163.4z"
	/>
<path d="M290.24,164l-0.34-0.16c-10.894-5.141-18.719-15.124-21.11-26.93l-0.57-5.89c-0.07-0.77-0.12-1.59-0.15-2.58
	c0-20.987,17.013-38,38-38s38,17.013,38,38c0,1-0.08,1.83-0.15,2.61l-0.56,5.84c-2.38,11.831-10.21,21.841-21.12,27l-0.34,0.16
	l-0.25-0.27c-7.655-8.61-20.84-9.385-29.45-1.73c-0.61,0.542-1.188,1.12-1.73,1.73L290.24,164z M306.08,155.73
	c6.102,0.001,11.93,2.536,16.09,7c10.435-5.058,17.913-14.695,20.22-26.06l0.55-5.79c0.08-0.76,0.12-1.56,0.15-2.52
	c0-20.435-16.565-37-37-37s-37,16.565-37,37c0,0.94,0.07,1.74,0.15,2.49l0.56,5.84c2.318,11.342,9.79,20.956,20.21,26
	c4.164-4.44,9.983-6.956,16.07-6.95V155.73z"/>
<path class="st0" d="M327.53,177.69c-0.012-5.284-1.982-10.375-5.53-14.29c-10.114,4.746-21.816,4.746-31.93,0
	c-7.894,8.826-7.139,22.38,1.686,30.274s22.38,7.139,30.274-1.686c3.517-3.932,5.461-9.022,5.46-14.298L327.53,177.69z"/>
<path d="M306.08,199.64c-12.106,0.019-21.935-9.779-21.955-21.885c-0.009-5.421,1.992-10.652,5.615-14.685l0.25-0.28l0.34,0.16
	c9.978,4.68,21.522,4.68,31.5,0l0.34-0.16l0.25,0.28c8.091,9.005,7.35,22.864-1.655,30.955
	C316.732,197.648,311.501,199.649,306.08,199.64L306.08,199.64z M290.24,164c-7.615,8.748-6.696,22.013,2.053,29.627
	s22.013,6.696,29.627-2.053c6.88-7.904,6.88-19.671,0-27.575C311.861,168.6,300.299,168.6,290.24,164z"/>
<path class="st0" d="M306.08,156.24c-6.111-0.007-11.934,2.598-16,7.16c10.114,4.746,21.816,4.746,31.93,0
	C317.962,158.853,312.167,156.249,306.08,156.24z"/>
<path d="M306.08,167.46c-5.595,0.014-11.122-1.219-16.18-3.61l-0.61-0.28l0.45-0.5c8.036-9.024,21.867-9.825,30.891-1.789
	c0.63,0.561,1.228,1.158,1.789,1.789l0.45,0.5l-0.61,0.28C317.202,166.241,311.675,167.474,306.08,167.46z M291,163.24
	c9.63,4.293,20.63,4.293,30.26,0c-7.931-8.356-21.134-8.701-29.49-0.77C291.506,162.72,291.25,162.977,291,163.24z"/>
<rect x="926.38" width="1.25" height="1038"/>
<rect x="463.79" width="1.25" height="1038"/>
<rect x="1390.02" width="1.25" height="1038"/>
<rect x="463.72" y="518.38" width="463.29" height="1.25"/>
<circle class="st2" cx="743.44" cy="422.65" r="16.09"/>
<path d="M743.44,439.36c-9.234,0.006-16.724-7.476-16.73-16.71s7.476-16.724,16.71-16.73c9.234-0.005,16.724,7.476,16.73,16.71
	c0,0.007,0,0.013,0,0.02C760.133,431.872,752.662,439.343,743.44,439.36z M743.44,407.18c-8.544-0.006-15.474,6.916-15.48,15.46
	s6.916,15.474,15.46,15.48c8.544,0.005,15.474-6.916,15.48-15.46c0-0.003,0-0.007,0-0.01
	C758.889,414.115,751.975,407.197,743.44,407.18z"/>
</svg>
