<svg xmlns="http://www.w3.org/2000/svg" viewBox="0 0 288 288"><g fill="none" fill-rule="evenodd"><path fill="#FFF" d="M0 0h288v288H0z"/><path d="M76.212 135.72c-3.024 0-4.392-1.728-4.392-4.248v-1.008c0-3.888 2.448-9.216 6.552-12.744h4.824c-2.88 3.024-4.608 5.544-5.4 8.928 1.944.432 2.808 1.872 2.808 3.816v1.008c0 2.52-1.368 4.248-4.392 4.248zm-14.544 0c-3.024 0-4.392-1.728-4.392-4.248v-1.008c0-3.888 2.448-9.216 6.552-12.744h4.824c-2.88 3.024-4.608 5.544-5.4 8.928 1.944.432 2.808 1.872 2.808 3.816v1.008c0 2.52-1.368 4.248-4.392 4.248zM126.54 171h-6.336l-5.04-14.832H94.86L89.82 171H83.7l17.568-50.256h7.704L126.54 171zm-12.888-20.16l-8.496-24.48h-.36L96.3 150.84h17.352zm34.488 21.024c-10.44 0-16.56-7.56-16.56-19.44 0-11.88 6.12-19.44 16.56-19.44 7.344 0 11.736 3.6 13.896 8.712l-4.824 2.448c-1.368-3.816-4.536-6.048-9.072-6.048-6.84 0-10.368 4.68-10.368 11.16v6.336c0 6.48 3.528 11.16 10.368 11.16 4.68 0 8.064-2.232 10.08-6.48l4.176 2.808c-2.376 5.328-7.2 8.784-14.256 8.784zm35.928 0c-10.08 0-16.704-7.632-16.704-19.44 0-11.808 6.624-19.44 16.704-19.44 9.936 0 16.056 7.632 16.056 18.144v2.736h-26.712v1.728c0 6.408 4.104 11.232 11.016 11.232 4.68 0 8.28-2.304 10.224-6.408l4.104 2.952c-2.376 5.04-7.704 8.496-14.688 8.496zm0-34.056c-6.264 0-10.656 4.752-10.656 11.232v.504h20.52v-.792c0-6.552-3.96-10.944-9.864-10.944zM226.332 117c3.024 0 4.392 1.728 4.392 4.248v1.008c0 3.888-2.448 9.216-6.552 12.744h-4.824c2.88-3.024 4.608-5.544 5.4-8.928-1.944-.432-2.808-1.872-2.808-3.816v-1.008c0-2.52 1.368-4.248 4.392-4.248zm-14.472 0c3.024 0 4.392 1.728 4.392 4.248v1.008c0 3.888-2.448 9.216-6.552 12.744h-4.824c2.88-3.024 4.608-5.544 5.4-8.928-1.944-.432-2.808-1.872-2.808-3.816v-1.008c0-2.52 1.368-4.248 4.392-4.248z" fill="#3D3D3D"/></g></svg>