<svg data-name="Layer 1" xmlns="http://www.w3.org/2000/svg" viewBox="0 0 288 288"><path fill="#fff" d="M0 0h288v288H0z"/><path d="M74.8 132.67v-5.55h7.78V82.86H74.8v-5.55H97v5.55h-7.76v44.26H97v5.55zm34.34-55.36h22.77c9.12 0 14.75 5.63 14.75 14.28 0 8.24-5.31 11.18-9 11.73v.48c4 .24 10.86 3.65 10.86 12.85s-6.1 16-14.27 16h-25.11zm6.67 24h15.3c5.24 0 8.41-2.77 8.41-7.69v-2.7c0-4.92-3.17-7.69-8.41-7.69h-15.3zm0 25.54h16.41c5.72 0 9.21-3 9.21-8.57v-2.69c0-5.55-3.49-8.57-9.21-8.57h-16.41zm45.12-49.54h8.88l15.87 29.82h.39l16-29.82h8.56v55.36h-6.5V86h-.4L199 95.31l-13.24 24.11-13.25-24.11-4.68-9.31h-.39v46.64h-6.51zm-86.36 79.31h20.86c14.67 0 24.35 9.28 24.35 27.68S110.1 212 95.43 212H74.57zm20.86 44.65c7.14 0 11.58-3.89 11.58-12.69V180c0-8.8-4.44-12.69-11.58-12.69h-8.81v34zm33.78-47.99H141v24h.39c1.19-4.6 5.79-7.93 11.19-7.93 10.55 0 16 7.61 16 21.73s-5.47 21.81-16 21.81c-5.4 0-10-3.41-11.19-7.93H141v7h-11.79zm27.12 41.49v-7.22c0-5.24-3.25-8.65-7.69-8.65S141 181.2 141 185v12.3c0 3.81 3.25 6.11 7.69 6.11s7.64-3.41 7.64-8.64zM215.66 212h-39.19v-10.89l17.06-14.59c6.18-5.32 8.33-8.41 8.33-13.09v-1.11c0-4.2-3.73-6.35-7.3-6.35-5.24 0-7.77 3.57-8.88 7.78l-10.39-4c2.45-7.69 8.88-14.12 20.38-14.12 12 0 18.88 7.06 18.88 16.66s-6.83 15.31-14.76 21.57L189.48 202h26.18z" fill="#171717"/></svg>