<svg xmlns="http://www.w3.org/2000/svg" xmlns:xlink="http://www.w3.org/1999/xlink" viewBox="0 0 288 288"><defs><style>.cls-1,.cls-5,.cls-6,.cls-8{fill:none;}.cls-1,.cls-8{stroke:#e0e0e0;}.cls-1,.cls-10,.cls-6,.cls-8{stroke-miterlimit:10;}.cls-1{stroke-width:0.5px;}.cls-2{isolation:isolate;}.cls-3{clip-path:url(#clip-path);}.cls-10,.cls-4{fill:#fff;}.cls-5{stroke:#a6c8ff;stroke-linejoin:round;stroke-width:24px;}.cls-5,.cls-7{mix-blend-mode:multiply;}.cls-10,.cls-6{stroke:#d12771;stroke-width:3px;}.cls-9{clip-path:url(#clip-path-2);}</style><clipPath id="clip-path"><rect class="cls-1" x="-316" width="288" height="288"/></clipPath><clipPath id="clip-path-2"><rect class="cls-1" width="288" height="288"/></clipPath></defs><title>Artboard 28</title><g class="cls-2"><g id="Graphics"><g class="cls-3"><rect class="cls-4" x="-460" y="-144" width="576" height="576"/><path class="cls-5" d="M452,816C80.86,816-220,515.14-220,144S80.86-528,452-528"/><path class="cls-6" d="M452,816C80.86,816-220,515.14-220,144S80.86-528,452-528"/><g class="cls-7"><line class="cls-1" x1="20" y1="-144" x2="20" y2="432"/><line class="cls-1" x1="68" y1="-144" x2="68" y2="432"/><line class="cls-1" x1="116" y1="-144" x2="116" y2="432"/><line class="cls-1" x1="116" x2="-460"/><line class="cls-8" x1="116" y1="48" x2="-460" y2="48"/><line class="cls-8" x1="116" y1="96" x2="-460" y2="96"/><line class="cls-8" x1="116" y1="144" x2="-460" y2="144"/><line class="cls-8" x1="116" y1="192" x2="-460" y2="192"/><line class="cls-8" x1="116" y1="240" x2="-460" y2="240"/><line class="cls-1" x1="116" y1="288" x2="-460" y2="288"/></g></g><rect class="cls-1" x="-316" width="288" height="288"/><g class="cls-9"><rect class="cls-4" x="-144" y="-144" width="576" height="576"/><path class="cls-5" d="M752,832C380.86,832,80,531.14,80,160S380.86-512,752-512"/><path class="cls-6" d="M752,832C380.86,832,80,531.14,80,160S380.86-512,752-512"/><rect class="cls-10" x="74" y="154" width="12" height="12"/><g class="cls-7"><line class="cls-1" y1="-144" y2="432"/><line class="cls-8" x1="48" y1="-144" x2="48" y2="432"/><line class="cls-8" x1="96" y1="-144" x2="96" y2="432"/><line class="cls-8" x1="144" y1="-144" x2="144" y2="432"/><line class="cls-8" x1="192" y1="-144" x2="192" y2="432"/><line class="cls-8" x1="240" y1="-144" x2="240" y2="432"/><line class="cls-1" x1="288" y1="-144" x2="288" y2="432"/><line class="cls-1" x1="432" x2="-144"/><line class="cls-8" x1="432" y1="48" x2="-144" y2="48"/><line class="cls-8" x1="432" y1="96" x2="-144" y2="96"/><line class="cls-8" x1="432" y1="144" x2="-144" y2="144"/><line class="cls-8" x1="432" y1="192" x2="-144" y2="192"/><line class="cls-8" x1="432" y1="240" x2="-144" y2="240"/><line class="cls-1" x1="432" y1="288" x2="-144" y2="288"/></g></g><rect class="cls-1" width="288" height="288"/></g></g></svg>