<svg xmlns="http://www.w3.org/2000/svg" xmlns:xlink="http://www.w3.org/1999/xlink" viewBox="0 0 928 522"><defs><style>.cls-1{fill:#fff;}.cls-2{fill:url(#linear-gradient);}.cls-26,.cls-3{fill:none;}.cls-26,.cls-3,.cls-4{stroke:#d12771;stroke-miterlimit:10;stroke-width:0.91px;}.cls-25,.cls-4{fill:#d0e2ff;}.cls-5{fill:#fdfeff;}.cls-6{fill:#fbfcff;}.cls-7{fill:#f8fbff;}.cls-8{fill:#f6f9ff;}.cls-9{fill:#f4f8ff;}.cls-10{fill:#f2f7ff;}.cls-11{fill:#eff5ff;}.cls-12{fill:#edf4ff;}.cls-13{fill:#ebf3ff;}.cls-14{fill:#e9f1ff;}.cls-15{fill:#e6f0ff;}.cls-16{fill:#e4eeff;}.cls-17{fill:#e2edff;}.cls-18{fill:#e0ecff;}.cls-19{fill:#ddeaff;}.cls-20{fill:#dbe9ff;}.cls-21{fill:#d9e8ff;}.cls-22{fill:#d7e6ff;}.cls-23{fill:#d4e5ff;}.cls-24{fill:#d2e3ff;}.cls-26{stroke-dasharray:9.4 9.4;}</style><linearGradient id="linear-gradient" x1="431.38" y1="317.51" x2="496.63" y2="204.49" gradientUnits="userSpaceOnUse"><stop offset="0" stop-color="#d0e2ff" stop-opacity="0"/><stop offset="1" stop-color="#d0e2ff"/></linearGradient></defs><g id="Layer_3" data-name="Layer 3"><rect class="cls-1" width="928" height="522"/><polygon class="cls-2" points="333.5 261 464 185.66 594.5 261 464 336.34 333.5 261"/><polyline class="cls-3" points="333.5 261 464 185.66 594.5 261 464 336.34"/><polygon class="cls-4" points="29 261 159.5 185.66 290 261 159.5 336.34 29 261"/><path class="cls-1" d="M621.94,253l132.71-76.62c7.65-4.41,20.05-4.41,27.7,0L915.06,253c7.65,4.42,7.65,11.58,0,16L782.35,345.62c-7.65,4.41-20.05,4.41-27.7,0L621.94,269C614.29,264.58,614.29,257.42,621.94,253Z"/><path class="cls-5" d="M625,253.06l129.77-74.93c7.6-4.38,19.92-4.38,27.52,0L912,253.06c7.6,4.38,7.6,11.5,0,15.88L782.26,343.87c-7.6,4.39-19.92,4.39-27.52,0L625,268.94C617.37,264.56,617.37,257.44,625,253.06Z"/><path class="cls-6" d="M628,253.11l126.85-73.23c7.54-4.36,19.78-4.36,27.32,0L909,253.11c7.54,4.36,7.54,11.42,0,15.78L782.16,342.12c-7.54,4.36-19.78,4.36-27.32,0L628,268.89C620.45,264.53,620.45,257.47,628,253.11Z"/><path class="cls-7" d="M631,253.17l123.92-71.54c7.49-4.33,19.63-4.33,27.12,0L906,253.17c7.49,4.32,7.49,11.34,0,15.66L782.06,340.37c-7.49,4.33-19.63,4.33-27.12,0L631,268.83C623.53,264.51,623.53,257.49,631,253.17Z"/><path class="cls-8" d="M634.05,253.23l121-69.86c7.43-4.29,19.49-4.29,26.92,0l121,69.86c7.44,4.29,7.44,11.25,0,15.54L782,338.63c-7.43,4.29-19.49,4.29-26.92,0l-121-69.86C626.61,264.48,626.61,257.52,634.05,253.23Z"/><path class="cls-9" d="M637.07,253.28l118.07-68.16c7.38-4.26,19.34-4.26,26.73,0l118.06,68.16c7.38,4.27,7.38,11.17,0,15.44L781.87,336.88c-7.39,4.26-19.35,4.26-26.73,0L637.07,268.72C629.69,264.45,629.69,257.55,637.07,253.28Z"/><path class="cls-10" d="M640.1,253.34l115.13-66.47c7.33-4.23,19.21-4.23,26.54,0L896.9,253.34c7.33,4.23,7.33,11.09,0,15.32L781.77,335.13c-7.33,4.23-19.21,4.23-26.54,0L640.1,268.66C632.77,264.43,632.77,257.57,640.1,253.34Z"/><path class="cls-11" d="M643.12,253.4l112.21-64.79c7.27-4.19,19.07-4.19,26.34,0L893.88,253.4c7.27,4.2,7.27,11,0,15.2L781.67,333.39c-7.27,4.2-19.07,4.2-26.34,0L643.12,268.6C635.85,264.4,635.85,257.6,643.12,253.4Z"/><path class="cls-12" d="M646.15,253.45l109.28-63.09c7.22-4.17,18.92-4.17,26.14,0l109.28,63.09c7.22,4.17,7.22,10.93,0,15.1L781.57,331.64c-7.22,4.17-18.92,4.17-26.14,0L646.15,268.55C638.93,264.38,638.93,257.62,646.15,253.45Z"/><path class="cls-13" d="M649.18,253.51l106.35-61.4c7.16-4.14,18.78-4.14,25.94,0l106.35,61.4c7.17,4.14,7.17,10.84,0,15l-106.35,61.4c-7.16,4.14-18.78,4.14-25.94,0l-106.35-61.4C642,264.35,642,257.65,649.18,253.51Z"/><path class="cls-14" d="M652.2,253.57l103.42-59.71c7.12-4.11,18.64-4.11,25.76,0L884.8,253.57c7.11,4.1,7.11,10.76,0,14.86L781.38,328.14c-7.12,4.11-18.64,4.11-25.76,0L652.2,268.43C645.09,264.33,645.09,257.67,652.2,253.57Z"/><path class="cls-15" d="M655.23,253.62l100.49-58c7.06-4.07,18.5-4.07,25.56,0l100.49,58c7.06,4.08,7.06,10.68,0,14.76l-100.49,58c-7.06,4.07-18.5,4.07-25.56,0l-100.49-58C648.17,264.3,648.17,257.7,655.23,253.62Z"/><path class="cls-16" d="M658.25,253.68l97.57-56.33c7-4,18.36-4,25.36,0l97.57,56.33c7,4,7,10.6,0,14.64l-97.57,56.33c-7,4-18.36,4-25.36,0l-97.57-56.33C651.25,264.28,651.25,257.72,658.25,253.68Z"/><path class="cls-17" d="M661.28,253.74l94.64-54.64c7-4,18.21-4,25.16,0l94.64,54.64c6.95,4,6.95,10.51,0,14.52L781.08,322.9c-7,4-18.21,4-25.16,0l-94.64-54.64C654.33,264.25,654.33,257.75,661.28,253.74Z"/><path class="cls-18" d="M664.31,253.79,756,200.84c6.89-4,18.07-4,25,0l91.71,52.95c6.9,4,6.9,10.44,0,14.42l-91.71,53c-6.89,4-18.07,4-25,0l-91.71-53C657.41,264.23,657.41,257.77,664.31,253.79Z"/><path class="cls-19" d="M667.33,253.85l88.78-51.26c6.84-4,17.94-4,24.78,0l88.78,51.26c6.84,4,6.84,10.35,0,14.3l-88.78,51.26c-6.84,3.95-17.94,3.95-24.78,0l-88.78-51.26C660.49,264.2,660.49,257.8,667.33,253.85Z"/><path class="cls-20" d="M670.36,253.91l85.85-49.57c6.79-3.92,17.79-3.92,24.58,0l85.85,49.57c6.79,3.91,6.79,10.27,0,14.19l-85.85,49.56c-6.79,3.92-17.79,3.92-24.58,0L670.36,268.1C663.57,264.18,663.57,257.82,670.36,253.91Z"/><path class="cls-21" d="M673.39,254l82.92-47.87c6.73-3.89,17.65-3.89,24.38,0L863.61,254c6.74,3.89,6.74,10.19,0,14.08l-82.92,47.87c-6.73,3.89-17.65,3.89-24.38,0L673.39,268C666.65,264.15,666.65,257.85,673.39,254Z"/><path class="cls-22" d="M676.41,254l80-46.19c6.68-3.85,17.5-3.85,24.18,0l80,46.19c6.68,3.85,6.68,10.11,0,14l-80,46.19c-6.68,3.85-17.5,3.85-24.18,0l-80-46.19C669.73,264.13,669.73,257.87,676.41,254Z"/><path class="cls-23" d="M679.44,254.07l77.06-44.49c6.63-3.82,17.37-3.82,24,0l77.06,44.49c6.63,3.83,6.63,10,0,13.86L780.5,312.42c-6.63,3.82-17.37,3.82-24,0l-77.06-44.49C672.81,264.1,672.81,257.9,679.44,254.07Z"/><path class="cls-24" d="M682.46,254.13l74.14-42.8c6.57-3.8,17.23-3.8,23.8,0l74.14,42.8c6.57,3.79,6.57,9.95,0,13.74l-74.14,42.8c-6.57,3.8-17.23,3.8-23.8,0l-74.14-42.8C675.89,264.08,675.89,257.92,682.46,254.13Z"/><path class="cls-25" d="M685.49,254.19l71.21-41.12c6.52-3.76,17.08-3.76,23.6,0l71.21,41.12c6.52,3.76,6.52,9.86,0,13.62L780.3,308.93c-6.52,3.76-17.08,3.76-23.6,0l-71.21-41.12C679,264.05,679,258,685.49,254.19Z"/><polyline class="cls-3" points="642.19 263.42 638 261 642.19 258.58"/><line class="cls-26" x1="650.33" y1="253.88" x2="760.24" y2="190.42"/><polyline class="cls-3" points="764.31 188.07 768.5 185.66 772.69 188.07"/><line class="cls-26" x1="780.83" y1="192.77" x2="890.74" y2="256.23"/><polyline class="cls-3" points="894.81 258.58 899 261 894.81 263.42"/><line class="cls-26" x1="886.67" y1="268.12" x2="776.76" y2="331.58"/><polyline class="cls-3" points="772.69 333.93 768.5 336.34 764.31 333.93"/><line class="cls-26" x1="756.17" y1="329.23" x2="646.26" y2="265.77"/></g></svg>