<svg width="289" height="289" viewBox="0 0 289 289" fill="none" xmlns="http://www.w3.org/2000/svg">
<path d="M0.730103 0.578125H288.73V288.578H0.730103V0.578125Z" fill="white"/>
<rect width="48" height="48" transform="translate(191.23 137.927)" fill="white" style="mix-blend-mode:multiply"/>
<path d="M239.23 161.927C239.23 175.182 228.485 185.927 215.23 185.927C201.975 185.927 191.23 175.182 191.23 161.927C191.23 148.672 201.975 137.927 215.23 137.927C228.485 137.927 239.23 148.672 239.23 161.927Z" fill="white"/>
<path d="M239.23 161.927C239.23 175.182 228.485 185.927 215.23 185.927C201.975 185.927 191.23 175.182 191.23 161.927C191.23 148.672 201.975 137.927 215.23 137.927C228.485 137.927 239.23 148.672 239.23 161.927Z" fill="#F2F4F8"/>
<path fill-rule="evenodd" clip-rule="evenodd" d="M215.23 184.927C227.933 184.927 238.23 174.629 238.23 161.927C238.23 149.224 227.933 138.927 215.23 138.927C202.528 138.927 192.23 149.224 192.23 161.927C192.23 174.629 202.528 184.927 215.23 184.927ZM215.23 185.927C228.485 185.927 239.23 175.182 239.23 161.927C239.23 148.672 228.485 137.927 215.23 137.927C201.975 137.927 191.23 148.672 191.23 161.927C191.23 175.182 201.975 185.927 215.23 185.927Z" fill="#878D96"/>
<rect width="24" height="24" transform="translate(203.23 149.927)" fill="white" style="mix-blend-mode:multiply"/>
<path d="M215.23 152.927C215.972 152.927 216.697 153.147 217.313 153.559C217.93 153.971 218.411 154.556 218.695 155.242C218.978 155.927 219.053 156.681 218.908 157.408C218.763 158.136 218.406 158.804 217.882 159.328C217.357 159.853 216.689 160.21 215.962 160.355C215.234 160.499 214.48 160.425 213.795 160.141C213.11 159.857 212.524 159.377 212.112 158.76C211.7 158.143 211.48 157.418 211.48 156.677C211.48 155.682 211.875 154.728 212.578 154.025C213.282 153.322 214.236 152.927 215.23 152.927ZM215.23 151.427C214.192 151.427 213.177 151.735 212.313 152.312C211.45 152.888 210.777 153.708 210.38 154.668C209.982 155.627 209.878 156.683 210.081 157.701C210.284 158.719 210.784 159.655 211.518 160.389C212.252 161.123 213.187 161.623 214.206 161.826C215.224 162.028 216.28 161.924 217.239 161.527C218.199 161.13 219.018 160.457 219.595 159.594C220.172 158.73 220.48 157.715 220.48 156.677C220.48 155.284 219.927 153.949 218.942 152.964C217.958 151.98 216.622 151.427 215.23 151.427Z" fill="black"/>
<path d="M222.73 172.427H221.23V168.677C221.23 168.184 221.133 167.697 220.945 167.242C220.756 166.787 220.48 166.373 220.132 166.025C219.784 165.677 219.37 165.401 218.915 165.212C218.46 165.024 217.973 164.927 217.48 164.927H212.98C211.986 164.927 211.032 165.322 210.328 166.025C209.625 166.728 209.23 167.682 209.23 168.677V172.427H207.73V168.677C207.73 167.284 208.283 165.949 209.268 164.964C210.252 163.98 211.588 163.427 212.98 163.427H217.48C218.872 163.427 220.208 163.98 221.192 164.964C222.177 165.949 222.73 167.284 222.73 168.677V172.427Z" fill="black"/>
<path d="M259.345 207.927H258.379C257.161 207.927 256.587 207.283 256.587 206.163V197.567H258.379V206.499H259.345V207.927Z" fill="black"/>
<path d="M251.575 208.095C249.419 208.095 248.131 206.597 248.131 204.259C248.131 201.949 249.377 200.451 251.519 200.451C253.801 200.451 254.851 202.131 254.851 204.133V204.721H249.993V204.903C249.993 205.953 250.595 206.667 251.771 206.667C252.653 206.667 253.185 206.247 253.633 205.673L254.599 206.751C253.997 207.577 252.933 208.095 251.575 208.095ZM251.547 201.795C250.609 201.795 249.993 202.495 249.993 203.503V203.615H252.989V203.489C252.989 202.481 252.471 201.795 251.547 201.795Z" fill="black"/>
<path d="M240.066 207.927V197.567H241.858V201.823H241.914C242.18 200.983 242.964 200.451 243.93 200.451C245.778 200.451 246.8 201.823 246.8 204.259C246.8 206.709 245.778 208.095 243.93 208.095C242.964 208.095 242.194 207.535 241.914 206.709H241.858V207.927H240.066ZM243.356 206.611C244.28 206.611 244.924 205.939 244.924 204.903V203.643C244.924 202.607 244.28 201.921 243.356 201.921C242.502 201.921 241.858 202.383 241.858 203.097V205.421C241.858 206.177 242.502 206.611 243.356 206.611Z" fill="black"/>
<path d="M233.892 208.095C232.408 208.095 231.568 207.241 231.568 205.939C231.568 204.441 232.702 203.699 234.69 203.699H235.936V203.167C235.936 202.355 235.53 201.879 234.578 201.879C233.738 201.879 233.262 202.299 232.912 202.803L231.848 201.851C232.38 201.011 233.234 200.451 234.704 200.451C236.678 200.451 237.728 201.389 237.728 203.055V206.499H238.456V207.927H237.462C236.692 207.927 236.216 207.423 236.104 206.667H236.02C235.782 207.605 234.984 208.095 233.892 208.095ZM234.494 206.793C235.292 206.793 235.936 206.429 235.936 205.743V204.777H234.788C233.85 204.777 233.388 205.099 233.388 205.673V205.911C233.388 206.499 233.794 206.793 234.494 206.793Z" fill="black"/>
<path d="M230.569 207.927H229.603C228.385 207.927 227.811 207.283 227.811 206.163V197.567H229.603V206.499H230.569V207.927Z" fill="black"/>
<path d="M220.046 204.483L221.32 200.619H223L220.06 209.229C219.696 210.279 219.178 210.727 217.974 210.727H216.896V209.299H218.212L218.548 208.277L215.93 200.619H217.708L218.982 204.483L219.458 206.331H219.542L220.046 204.483Z" fill="black"/>
<path d="M212.867 207.927H211.075V200.619H212.867V202.131H212.937C213.119 201.361 213.707 200.619 214.869 200.619H215.261V202.313H214.701C213.497 202.313 212.867 202.649 212.867 203.447V207.927Z" fill="black"/>
<path d="M204.901 208.095C203.417 208.095 202.577 207.241 202.577 205.939C202.577 204.441 203.711 203.699 205.699 203.699H206.945V203.167C206.945 202.355 206.539 201.879 205.587 201.879C204.747 201.879 204.271 202.299 203.921 202.803L202.857 201.851C203.389 201.011 204.243 200.451 205.713 200.451C207.687 200.451 208.737 201.389 208.737 203.055V206.499H209.465V207.927H208.471C207.701 207.927 207.225 207.423 207.113 206.667H207.029C206.791 207.605 205.993 208.095 204.901 208.095ZM205.503 206.793C206.301 206.793 206.945 206.429 206.945 205.743V204.777H205.797C204.859 204.777 204.397 205.099 204.397 205.673V205.911C204.397 206.499 204.803 206.793 205.503 206.793Z" fill="black"/>
<path d="M192.299 207.927H190.507V200.619H192.299V201.837H192.369C192.649 201.067 193.237 200.451 194.329 200.451C195.323 200.451 196.093 200.941 196.443 201.921H196.471C196.737 201.109 197.549 200.451 198.711 200.451C200.139 200.451 200.951 201.487 200.951 203.307V207.927H199.159V203.489C199.159 202.439 198.781 201.921 197.983 201.921C197.283 201.921 196.625 202.313 196.625 203.097V207.927H194.833V203.489C194.833 202.439 194.455 201.921 193.657 201.921C192.971 201.921 192.299 202.313 192.299 203.097V207.927Z" fill="black"/>
<path d="M187.374 199.555C186.632 199.555 186.324 199.177 186.324 198.659V198.379C186.324 197.861 186.632 197.483 187.374 197.483C188.102 197.483 188.424 197.861 188.424 198.379V198.659C188.424 199.177 188.102 199.555 187.374 199.555ZM186.478 207.927V200.619H188.27V207.927H186.478Z" fill="black"/>
<path d="M182.614 207.927H180.822V200.619H182.614V202.131H182.684C182.866 201.361 183.454 200.619 184.616 200.619H185.008V202.313H184.448C183.244 202.313 182.614 202.649 182.614 203.447V207.927Z" fill="black"/>
<path d="M173.79 207.927H171.942V198.155H176.338C178.144 198.155 179.236 199.373 179.236 201.179C179.236 202.999 178.144 204.203 176.338 204.203H173.79V207.927ZM173.79 199.765V202.607H176.17C176.884 202.607 177.318 202.215 177.318 201.501V200.857C177.318 200.143 176.884 199.765 176.17 199.765H173.79Z" fill="black"/>
<path d="M262.606 225.927H261.206C260.436 225.927 260.016 225.437 260.016 224.737V219.683H258.826V218.703H259.498C259.974 218.703 260.128 218.535 260.128 218.045V216.701H261.136V218.703H262.718V219.683H261.136V224.947H262.606V225.927Z" fill="black"/>
<path d="M251.459 225.927L254.133 222.287L251.571 218.703H252.887L254.721 221.391H254.763L256.667 218.703H257.913L255.365 222.203L257.969 225.927H256.653L254.777 223.099H254.735L252.705 225.927H251.459Z" fill="black"/>
<path d="M247.391 226.095C245.431 226.095 244.143 224.611 244.143 222.315C244.143 220.019 245.431 218.535 247.391 218.535C249.323 218.535 250.513 220.019 250.513 222.063V222.595H245.319V222.931C245.319 224.177 246.117 225.115 247.461 225.115C248.371 225.115 249.071 224.667 249.449 223.869L250.247 224.443C249.785 225.423 248.749 226.095 247.391 226.095ZM247.391 219.473C246.173 219.473 245.319 220.397 245.319 221.657V221.755H249.309V221.601C249.309 220.327 248.539 219.473 247.391 219.473Z" fill="black"/>
<path d="M242.658 225.927H241.258C240.488 225.927 240.068 225.437 240.068 224.737V219.683H238.878V218.703H239.55C240.026 218.703 240.18 218.535 240.18 218.045V216.701H241.188V218.703H242.77V219.683H241.188V224.947H242.658V225.927Z" fill="black"/>
<path d="M231.749 223.617L233.499 218.703H234.605L231.371 227.607C231.049 228.475 230.755 228.727 229.691 228.727H229.117V227.747H230.251L230.797 226.207L228.095 218.703H229.215L230.951 223.617L231.287 224.793H231.357L231.749 223.617Z" fill="black"/>
<path d="M224.729 225.927H223.609V218.703H224.729V220.033H224.799C225.051 219.347 225.709 218.703 226.885 218.703H227.319V219.823H226.661C225.457 219.823 224.729 220.341 224.729 221.027V225.927Z" fill="black"/>
<path d="M221.851 225.927H221.221C220.395 225.927 220.059 225.423 219.975 224.751H219.905C219.597 225.633 218.827 226.095 217.819 226.095C216.293 226.095 215.397 225.255 215.397 223.911C215.397 222.553 216.377 221.797 218.477 221.797H219.905V221.083C219.905 220.061 219.345 219.501 218.197 219.501C217.329 219.501 216.755 219.921 216.363 220.579L215.691 219.949C216.083 219.179 216.951 218.535 218.253 218.535C219.989 218.535 221.025 219.445 221.025 220.971V224.947H221.851V225.927ZM218.001 225.143C219.107 225.143 219.905 224.569 219.905 223.827V222.637H218.421C217.147 222.637 216.573 223.029 216.573 223.729V224.023C216.573 224.737 217.133 225.143 218.001 225.143Z" fill="black"/>
<path d="M212.31 225.927V224.751H212.254C211.82 225.647 211.134 226.095 210.14 226.095C208.334 226.095 207.2 224.625 207.2 222.315C207.2 220.005 208.334 218.535 210.14 218.535C211.134 218.535 211.876 218.969 212.254 219.879H212.31V215.567H213.43V225.927H212.31ZM210.448 225.087C211.47 225.087 212.31 224.555 212.31 223.617V220.929C212.31 220.131 211.47 219.543 210.448 219.543C209.188 219.543 208.404 220.411 208.404 221.699V222.931C208.404 224.219 209.188 225.087 210.448 225.087Z" fill="black"/>
<path d="M200.693 225.927H199.573V218.703H200.693V219.879H200.749C201.099 219.067 201.715 218.535 202.793 218.535C204.277 218.535 205.215 219.543 205.215 221.293V225.927H204.095V221.489C204.095 220.201 203.535 219.543 202.457 219.543C201.561 219.543 200.693 219.991 200.693 220.915V225.927Z" fill="black"/>
<path d="M194.309 226.095C192.377 226.095 191.047 224.611 191.047 222.315C191.047 220.019 192.377 218.535 194.309 218.535C196.241 218.535 197.571 220.019 197.571 222.315C197.571 224.611 196.241 226.095 194.309 226.095ZM194.309 225.101C195.513 225.101 196.367 224.359 196.367 222.833V221.797C196.367 220.271 195.513 219.529 194.309 219.529C193.105 219.529 192.251 220.271 192.251 221.797V222.833C192.251 224.359 193.105 225.101 194.309 225.101Z" fill="black"/>
<path d="M187.148 226.095C185.118 226.095 183.928 224.625 183.928 222.315C183.928 220.005 185.118 218.535 187.148 218.535C188.576 218.535 189.43 219.235 189.85 220.229L188.912 220.705C188.646 219.963 188.03 219.529 187.148 219.529C185.818 219.529 185.132 220.439 185.132 221.699V222.931C185.132 224.191 185.818 225.101 187.148 225.101C188.058 225.101 188.716 224.667 189.108 223.841L189.92 224.387C189.458 225.423 188.52 226.095 187.148 226.095Z" fill="black"/>
<path d="M179.332 226.095C177.372 226.095 176.084 224.611 176.084 222.315C176.084 220.019 177.372 218.535 179.332 218.535C181.264 218.535 182.454 220.019 182.454 222.063V222.595H177.26V222.931C177.26 224.177 178.058 225.115 179.402 225.115C180.312 225.115 181.012 224.667 181.39 223.869L182.188 224.443C181.726 225.423 180.69 226.095 179.332 226.095ZM179.332 219.473C178.114 219.473 177.26 220.397 177.26 221.657V221.755H181.25V221.601C181.25 220.327 180.48 219.473 179.332 219.473Z" fill="black"/>
<path d="M171.177 226.095C169.609 226.095 168.503 225.451 167.719 224.387L168.587 223.659C169.273 224.569 170.085 225.059 171.219 225.059C172.619 225.059 173.375 224.331 173.375 223.211C173.375 222.287 172.857 221.825 171.569 221.531L170.771 221.349C168.993 220.943 168.013 220.159 168.013 218.661C168.013 216.925 169.329 215.987 171.247 215.987C172.717 215.987 173.753 216.547 174.481 217.583L173.599 218.227C173.067 217.485 172.325 217.023 171.191 217.023C169.945 217.023 169.175 217.569 169.175 218.619C169.175 219.543 169.777 219.963 171.009 220.243L171.807 220.425C173.711 220.859 174.537 221.699 174.537 223.155C174.537 224.947 173.277 226.095 171.177 226.095Z" fill="black"/>
<rect width="48" height="48" transform="translate(48.2301 73)" fill="white" style="mix-blend-mode:multiply"/>
<path d="M96.2301 97C96.2301 110.255 85.4849 121 72.2301 121C58.9753 121 48.2301 110.255 48.2301 97C48.2301 83.7452 58.9753 73 72.2301 73C85.4849 73 96.2301 83.7452 96.2301 97Z" fill="white"/>
<path d="M96.2301 97C96.2301 110.255 85.4849 121 72.2301 121C58.9753 121 48.2301 110.255 48.2301 97C48.2301 83.7452 58.9753 73 72.2301 73C85.4849 73 96.2301 83.7452 96.2301 97Z" fill="#F2F4F8"/>
<path fill-rule="evenodd" clip-rule="evenodd" d="M72.2301 120C84.9327 120 95.2301 109.703 95.2301 97C95.2301 84.2975 84.9327 74 72.2301 74C59.5276 74 49.2301 84.2975 49.2301 97C49.2301 109.703 59.5276 120 72.2301 120ZM72.2301 121C85.4849 121 96.2301 110.255 96.2301 97C96.2301 83.7452 85.4849 73 72.2301 73C58.9753 73 48.2301 83.7452 48.2301 97C48.2301 110.255 58.9753 121 72.2301 121Z" fill="#878D96"/>
<rect width="24" height="24" transform="translate(60.2301 85)" fill="white" style="mix-blend-mode:multiply"/>
<path d="M72.2301 88C72.9718 88 73.6968 88.2199 74.3135 88.632C74.9302 89.044 75.4108 89.6297 75.6947 90.3149C75.9785 91.0002 76.0527 91.7542 75.908 92.4816C75.7634 93.209 75.4062 93.8772 74.8818 94.4017C74.3573 94.9261 73.6891 95.2833 72.9617 95.4279C72.2343 95.5726 71.4803 95.4984 70.795 95.2145C70.1098 94.9307 69.5241 94.4501 69.1121 93.8334C68.7 93.2167 68.4801 92.4917 68.4801 91.75C68.4801 90.7554 68.8752 89.8016 69.5785 89.0983C70.2817 88.3951 71.2355 88 72.2301 88ZM72.2301 86.5C71.1918 86.5 70.1767 86.8079 69.3134 87.3848C68.45 87.9617 67.7771 88.7816 67.3797 89.7409C66.9824 90.7002 66.8784 91.7558 67.081 92.7742C67.2836 93.7926 67.7836 94.7281 68.5178 95.4623C69.252 96.1965 70.1875 96.6965 71.2059 96.8991C72.2243 97.1017 73.2799 96.9977 74.2392 96.6004C75.1985 96.203 76.0184 95.5301 76.5953 94.6667C77.1722 93.8034 77.4801 92.7884 77.4801 91.75C77.4801 90.3576 76.927 89.0223 75.9424 88.0377C74.9578 87.0531 73.6225 86.5 72.2301 86.5Z" fill="black"/>
<path d="M79.7301 107.5H78.2301V103.75C78.2301 103.258 78.1331 102.77 77.9447 102.315C77.7562 101.86 77.48 101.447 77.1318 101.098C76.7835 100.75 76.3701 100.474 75.9152 100.285C75.4602 100.097 74.9726 100 74.4801 100H69.9801C68.9855 100 68.0317 100.395 67.3285 101.098C66.6252 101.802 66.2301 102.755 66.2301 103.75V107.5H64.7301V103.75C64.7301 102.358 65.2832 101.022 66.2678 100.038C67.2524 99.0531 68.5877 98.5 69.9801 98.5H74.4801C75.8725 98.5 77.2078 99.0531 78.1924 100.038C79.177 101.022 79.7301 102.358 79.7301 103.75V107.5Z" fill="black"/>
<path d="M116.345 143H115.379C114.161 143 113.587 142.356 113.587 141.236V132.64H115.379V141.572H116.345V143Z" fill="black"/>
<path d="M108.575 143.168C106.419 143.168 105.131 141.67 105.131 139.332C105.131 137.022 106.377 135.524 108.519 135.524C110.801 135.524 111.851 137.204 111.851 139.206V139.794H106.993V139.976C106.993 141.026 107.595 141.74 108.771 141.74C109.653 141.74 110.185 141.32 110.633 140.746L111.599 141.824C110.997 142.65 109.933 143.168 108.575 143.168ZM108.547 136.868C107.609 136.868 106.993 137.568 106.993 138.576V138.688H109.989V138.562C109.989 137.554 109.471 136.868 108.547 136.868Z" fill="black"/>
<path d="M97.0663 143V132.64H98.8583V136.896H98.9143C99.1803 136.056 99.9643 135.524 100.93 135.524C102.778 135.524 103.8 136.896 103.8 139.332C103.8 141.782 102.778 143.168 100.93 143.168C99.9643 143.168 99.1943 142.608 98.9143 141.782H98.8583V143H97.0663ZM100.356 141.684C101.28 141.684 101.924 141.012 101.924 139.976V138.716C101.924 137.68 101.28 136.994 100.356 136.994C99.5023 136.994 98.8583 137.456 98.8583 138.17V140.494C98.8583 141.25 99.5023 141.684 100.356 141.684Z" fill="black"/>
<path d="M90.8919 143.168C89.4079 143.168 88.5679 142.314 88.5679 141.012C88.5679 139.514 89.7019 138.772 91.6899 138.772H92.9359V138.24C92.9359 137.428 92.5299 136.952 91.5779 136.952C90.7379 136.952 90.2619 137.372 89.9119 137.876L88.8479 136.924C89.3799 136.084 90.2339 135.524 91.7039 135.524C93.6779 135.524 94.7279 136.462 94.7279 138.128V141.572H95.4559V143H94.4619C93.6919 143 93.2159 142.496 93.1039 141.74H93.0199C92.7819 142.678 91.9839 143.168 90.8919 143.168ZM91.4939 141.866C92.2919 141.866 92.9359 141.502 92.9359 140.816V139.85H91.7879C90.8499 139.85 90.3879 140.172 90.3879 140.746V140.984C90.3879 141.572 90.7939 141.866 91.4939 141.866Z" fill="black"/>
<path d="M87.5687 143H86.6027C85.3847 143 84.8107 142.356 84.8107 141.236V132.64H86.6027V141.572H87.5687V143Z" fill="black"/>
<path d="M77.0463 139.556L78.3203 135.692H80.0003L77.0603 144.302C76.6963 145.352 76.1783 145.8 74.9743 145.8H73.8963V144.372H75.2123L75.5483 143.35L72.9303 135.692H74.7083L75.9823 139.556L76.4583 141.404H76.5423L77.0463 139.556Z" fill="black"/>
<path d="M69.8668 143H68.0748V135.692H69.8668V137.204H69.9368C70.1188 136.434 70.7068 135.692 71.8688 135.692H72.2608V137.386H71.7008C70.4968 137.386 69.8668 137.722 69.8668 138.52V143Z" fill="black"/>
<path d="M61.9005 143.168C60.4165 143.168 59.5765 142.314 59.5765 141.012C59.5765 139.514 60.7105 138.772 62.6985 138.772H63.9445V138.24C63.9445 137.428 63.5385 136.952 62.5865 136.952C61.7465 136.952 61.2705 137.372 60.9205 137.876L59.8565 136.924C60.3885 136.084 61.2425 135.524 62.7125 135.524C64.6865 135.524 65.7365 136.462 65.7365 138.128V141.572H66.4645V143H65.4705C64.7005 143 64.2245 142.496 64.1125 141.74H64.0285C63.7905 142.678 62.9925 143.168 61.9005 143.168ZM62.5025 141.866C63.3005 141.866 63.9445 141.502 63.9445 140.816V139.85H62.7965C61.8585 139.85 61.3965 140.172 61.3965 140.746V140.984C61.3965 141.572 61.8025 141.866 62.5025 141.866Z" fill="black"/>
<path d="M49.2988 143H47.5068V135.692H49.2988V136.91H49.3688C49.6488 136.14 50.2368 135.524 51.3288 135.524C52.3228 135.524 53.0928 136.014 53.4428 136.994H53.4708C53.7368 136.182 54.5488 135.524 55.7108 135.524C57.1388 135.524 57.9508 136.56 57.9508 138.38V143H56.1588V138.562C56.1588 137.512 55.7808 136.994 54.9828 136.994C54.2828 136.994 53.6248 137.386 53.6248 138.17V143H51.8328V138.562C51.8328 137.512 51.4548 136.994 50.6568 136.994C49.9708 136.994 49.2988 137.386 49.2988 138.17V143Z" fill="black"/>
<path d="M44.3736 134.628C43.6316 134.628 43.3236 134.25 43.3236 133.732V133.452C43.3236 132.934 43.6316 132.556 44.3736 132.556C45.1016 132.556 45.4236 132.934 45.4236 133.452V133.732C45.4236 134.25 45.1016 134.628 44.3736 134.628ZM43.4776 143V135.692H45.2696V143H43.4776Z" fill="black"/>
<path d="M39.6135 143H37.8215V135.692H39.6135V137.204H39.6835C39.8655 136.434 40.4535 135.692 41.6155 135.692H42.0075V137.386H41.4475C40.2435 137.386 39.6135 137.722 39.6135 138.52V143Z" fill="black"/>
<path d="M30.7895 143H28.9415V133.228H33.3375C35.1435 133.228 36.2355 134.446 36.2355 136.252C36.2355 138.072 35.1435 139.276 33.3375 139.276H30.7895V143ZM30.7895 134.838V137.68H33.1695C33.8835 137.68 34.3175 137.288 34.3175 136.574V135.93C34.3175 135.216 33.8835 134.838 33.1695 134.838H30.7895Z" fill="black"/>
<path d="M119.606 161H118.206C117.436 161 117.016 160.51 117.016 159.81V154.756H115.826V153.776H116.498C116.974 153.776 117.128 153.608 117.128 153.118V151.774H118.136V153.776H119.718V154.756H118.136V160.02H119.606V161Z" fill="black"/>
<path d="M108.459 161L111.133 157.36L108.571 153.776H109.887L111.721 156.464H111.763L113.667 153.776H114.913L112.365 157.276L114.969 161H113.653L111.777 158.172H111.735L109.705 161H108.459Z" fill="black"/>
<path d="M104.391 161.168C102.431 161.168 101.143 159.684 101.143 157.388C101.143 155.092 102.431 153.608 104.391 153.608C106.323 153.608 107.513 155.092 107.513 157.136V157.668H102.319V158.004C102.319 159.25 103.117 160.188 104.461 160.188C105.371 160.188 106.071 159.74 106.449 158.942L107.247 159.516C106.785 160.496 105.749 161.168 104.391 161.168ZM104.391 154.546C103.173 154.546 102.319 155.47 102.319 156.73V156.828H106.309V156.674C106.309 155.4 105.539 154.546 104.391 154.546Z" fill="black"/>
<path d="M99.6577 161H98.2577C97.4877 161 97.0677 160.51 97.0677 159.81V154.756H95.8777V153.776H96.5497C97.0257 153.776 97.1797 153.608 97.1797 153.118V151.774H98.1877V153.776H99.7697V154.756H98.1877V160.02H99.6577V161Z" fill="black"/>
<path d="M88.7488 158.69L90.4988 153.776H91.6049L88.3708 162.68C88.0488 163.548 87.7548 163.8 86.6908 163.8H86.1168V162.82H87.2508L87.7969 161.28L85.0948 153.776H86.2149L87.9509 158.69L88.2868 159.866H88.3568L88.7488 158.69Z" fill="black"/>
<path d="M81.7295 161H80.6095V153.776H81.7295V155.106H81.7995C82.0515 154.42 82.7095 153.776 83.8855 153.776H84.3195V154.896H83.6615C82.4575 154.896 81.7295 155.414 81.7295 156.1V161Z" fill="black"/>
<path d="M78.851 161H78.221C77.395 161 77.059 160.496 76.975 159.824H76.905C76.597 160.706 75.827 161.168 74.819 161.168C73.293 161.168 72.397 160.328 72.397 158.984C72.397 157.626 73.377 156.87 75.477 156.87H76.905V156.156C76.905 155.134 76.345 154.574 75.197 154.574C74.329 154.574 73.755 154.994 73.363 155.652L72.691 155.022C73.083 154.252 73.951 153.608 75.253 153.608C76.989 153.608 78.025 154.518 78.025 156.044V160.02H78.851V161ZM75.001 160.216C76.107 160.216 76.905 159.642 76.905 158.9V157.71H75.421C74.147 157.71 73.573 158.102 73.573 158.802V159.096C73.573 159.81 74.133 160.216 75.001 160.216Z" fill="black"/>
<path d="M69.3098 161V159.824H69.2538C68.8198 160.72 68.1338 161.168 67.1398 161.168C65.3338 161.168 64.1998 159.698 64.1998 157.388C64.1998 155.078 65.3338 153.608 67.1398 153.608C68.1338 153.608 68.8758 154.042 69.2538 154.952H69.3098V150.64H70.4298V161H69.3098ZM67.4478 160.16C68.4698 160.16 69.3098 159.628 69.3098 158.69V156.002C69.3098 155.204 68.4698 154.616 67.4478 154.616C66.1878 154.616 65.4038 155.484 65.4038 156.772V158.004C65.4038 159.292 66.1878 160.16 67.4478 160.16Z" fill="black"/>
<path d="M57.6928 161H56.5728V153.776H57.6928V154.952H57.7488C58.0988 154.14 58.7148 153.608 59.7928 153.608C61.2768 153.608 62.2148 154.616 62.2148 156.366V161H61.0948V156.562C61.0948 155.274 60.5348 154.616 59.4568 154.616C58.5608 154.616 57.6928 155.064 57.6928 155.988V161Z" fill="black"/>
<path d="M51.3089 161.168C49.3769 161.168 48.0469 159.684 48.0469 157.388C48.0469 155.092 49.3769 153.608 51.3089 153.608C53.2409 153.608 54.5709 155.092 54.5709 157.388C54.5709 159.684 53.2409 161.168 51.3089 161.168ZM51.3089 160.174C52.5129 160.174 53.3669 159.432 53.3669 157.906V156.87C53.3669 155.344 52.5129 154.602 51.3089 154.602C50.1049 154.602 49.2509 155.344 49.2509 156.87V157.906C49.2509 159.432 50.1049 160.174 51.3089 160.174Z" fill="black"/>
<path d="M44.1479 161.168C42.1179 161.168 40.9279 159.698 40.9279 157.388C40.9279 155.078 42.1179 153.608 44.1479 153.608C45.5759 153.608 46.4299 154.308 46.8499 155.302L45.9119 155.778C45.6459 155.036 45.0299 154.602 44.1479 154.602C42.8179 154.602 42.1319 155.512 42.1319 156.772V158.004C42.1319 159.264 42.8179 160.174 44.1479 160.174C45.0579 160.174 45.7159 159.74 46.1079 158.914L46.9199 159.46C46.4579 160.496 45.5199 161.168 44.1479 161.168Z" fill="black"/>
<path d="M36.3322 161.168C34.3722 161.168 33.0842 159.684 33.0842 157.388C33.0842 155.092 34.3722 153.608 36.3322 153.608C38.2642 153.608 39.4542 155.092 39.4542 157.136V157.668H34.2602V158.004C34.2602 159.25 35.0582 160.188 36.4022 160.188C37.3122 160.188 38.0122 159.74 38.3902 158.942L39.1882 159.516C38.7262 160.496 37.6902 161.168 36.3322 161.168ZM36.3322 154.546C35.1142 154.546 34.2602 155.47 34.2602 156.73V156.828H38.2502V156.674C38.2502 155.4 37.4802 154.546 36.3322 154.546Z" fill="black"/>
<path d="M28.1775 161.168C26.6095 161.168 25.5035 160.524 24.7195 159.46L25.5875 158.732C26.2735 159.642 27.0855 160.132 28.2195 160.132C29.6195 160.132 30.3755 159.404 30.3755 158.284C30.3755 157.36 29.8575 156.898 28.5695 156.604L27.7715 156.422C25.9935 156.016 25.0135 155.232 25.0135 153.734C25.0135 151.998 26.3295 151.06 28.2475 151.06C29.7175 151.06 30.7535 151.62 31.4815 152.656L30.5995 153.3C30.0675 152.558 29.3255 152.096 28.1915 152.096C26.9455 152.096 26.1755 152.642 26.1755 153.692C26.1755 154.616 26.7775 155.036 28.0095 155.316L28.8075 155.498C30.7115 155.932 31.5375 156.772 31.5375 158.228C31.5375 160.02 30.2775 161.168 28.1775 161.168Z" fill="black"/>
<path fill-rule="evenodd" clip-rule="evenodd" d="M143.77 97.5H96.2301V96.5H144.77V161.845H186.23V159.458L191.23 162.345L186.23 165.231V162.845H143.77V97.5Z" fill="black"/>
</svg>
