<svg xmlns="http://www.w3.org/2000/svg" viewBox="0 0 928 464"><defs><style>.cls-1,.cls-2{fill:none;stroke-linecap:round;stroke-miterlimit:10;}.cls-1{stroke:#262626;}.cls-2{stroke:#525252;}</style></defs><title>Artboard 66 copy 2_Export</title><g id="Layer_3" data-name="Layer 3"><rect width="928" height="464"/><line class="cls-1" x1="29" x2="29" y2="464"/><line class="cls-1" x1="493" x2="493" y2="464"/><line class="cls-1" x1="261" x2="261" y2="464"/><line class="cls-1" x1="725" x2="725" y2="464"/><line class="cls-1" x1="145" x2="145" y2="464"/><line class="cls-1" x1="609" x2="609" y2="464"/><line class="cls-1" x1="377" x2="377" y2="464"/><line class="cls-1" x1="841" x2="841" y2="464"/><line class="cls-1" x1="87" x2="87" y2="464"/><line class="cls-1" x1="551" x2="551" y2="464"/><line class="cls-1" x1="319" x2="319" y2="464"/><line class="cls-1" x1="783" x2="783" y2="464"/><line class="cls-1" x1="203" x2="203" y2="464"/><line class="cls-1" x1="667" x2="667" y2="464"/><line class="cls-1" x1="435" x2="435" y2="464"/><line class="cls-1" x1="899" x2="899" y2="464"/><line class="cls-1" x1="14.5" x2="14.5" y2="464"/><line class="cls-1" x1="478.5" x2="478.5" y2="464"/><line class="cls-1" x1="246.5" x2="246.5" y2="464"/><line class="cls-1" x1="710.5" x2="710.5" y2="464"/><line class="cls-1" x1="130.5" x2="130.5" y2="464"/><line class="cls-1" x1="594.5" x2="594.5" y2="464"/><line class="cls-1" x1="362.5" x2="362.5" y2="464"/><line class="cls-1" x1="826.5" x2="826.5" y2="464"/><line class="cls-1" x1="72.5" x2="72.5" y2="464"/><line class="cls-1" x1="536.5" x2="536.5" y2="464"/><line class="cls-1" x1="304.5" x2="304.5" y2="464"/><line class="cls-1" x1="768.5" x2="768.5" y2="464"/><line class="cls-1" x1="188.5" x2="188.5" y2="464"/><line class="cls-1" x1="652.5" x2="652.5" y2="464"/><line class="cls-1" x1="420.5" x2="420.5" y2="464"/><line class="cls-1" x1="884.5" x2="884.5" y2="464"/><line class="cls-1" x1="43.5" x2="43.5" y2="464"/><line class="cls-1" x1="507.5" x2="507.5" y2="464"/><line class="cls-1" x1="275.5" x2="275.5" y2="464"/><line class="cls-1" x1="739.5" x2="739.5" y2="464"/><line class="cls-1" x1="159.5" x2="159.5" y2="464"/><line class="cls-1" x1="623.5" x2="623.5" y2="464"/><line class="cls-1" x1="391.5" x2="391.5" y2="464"/><line class="cls-1" x1="855.5" x2="855.5" y2="464"/><line class="cls-1" x1="101.5" x2="101.5" y2="464"/><line class="cls-1" x1="565.5" x2="565.5" y2="464"/><line class="cls-1" x1="333.5" x2="333.5" y2="464"/><line class="cls-1" x1="797.5" x2="797.5" y2="464"/><line class="cls-1" x1="217.5" x2="217.5" y2="464"/><line class="cls-1" x1="681.5" x2="681.5" y2="464"/><line class="cls-1" x1="449.5" x2="449.5" y2="464"/><line class="cls-1" x1="913.5" x2="913.5" y2="464"/><line class="cls-1" x1="7.25" x2="7.25" y2="464"/><line class="cls-1" x1="471.25" x2="471.25" y2="464"/><line class="cls-1" x1="239.25" x2="239.25" y2="464"/><line class="cls-1" x1="703.25" x2="703.25" y2="464"/><line class="cls-1" x1="123.25" x2="123.25" y2="464"/><line class="cls-1" x1="587.25" x2="587.25" y2="464"/><line class="cls-1" x1="355.25" x2="355.25" y2="464"/><line class="cls-1" x1="819.25" x2="819.25" y2="464"/><line class="cls-1" x1="65.25" x2="65.25" y2="464"/><line class="cls-1" x1="529.25" x2="529.25" y2="464"/><line class="cls-1" x1="297.25" x2="297.25" y2="464"/><line class="cls-1" x1="761.25" x2="761.25" y2="464"/><line class="cls-1" x1="181.25" x2="181.25" y2="464"/><line class="cls-1" x1="645.25" x2="645.25" y2="464"/><line class="cls-1" x1="413.25" x2="413.25" y2="464"/><line class="cls-1" x1="877.25" x2="877.25" y2="464"/><line class="cls-1" x1="36.25" x2="36.25" y2="464"/><line class="cls-1" x1="500.25" x2="500.25" y2="464"/><line class="cls-1" x1="268.25" x2="268.25" y2="464"/><line class="cls-1" x1="732.25" x2="732.25" y2="464"/><line class="cls-1" x1="152.25" x2="152.25" y2="464"/><line class="cls-1" x1="616.25" x2="616.25" y2="464"/><line class="cls-1" x1="384.25" x2="384.25" y2="464"/><line class="cls-1" x1="848.25" x2="848.25" y2="464"/><line class="cls-1" x1="94.25" x2="94.25" y2="464"/><line class="cls-1" x1="558.25" x2="558.25" y2="464"/><line class="cls-1" x1="326.25" x2="326.25" y2="464"/><line class="cls-1" x1="790.25" x2="790.25" y2="464"/><line class="cls-1" x1="210.25" x2="210.25" y2="464"/><line class="cls-1" x1="674.25" x2="674.25" y2="464"/><line class="cls-1" x1="442.25" x2="442.25" y2="464"/><line class="cls-1" x1="906.25" x2="906.25" y2="464"/><line class="cls-1" x1="21.75" x2="21.75" y2="464"/><line class="cls-1" x1="485.75" x2="485.75" y2="464"/><line class="cls-1" x1="253.75" x2="253.75" y2="464"/><line class="cls-1" x1="717.75" x2="717.75" y2="464"/><line class="cls-1" x1="137.75" x2="137.75" y2="464"/><line class="cls-1" x1="601.75" x2="601.75" y2="464"/><line class="cls-1" x1="369.75" x2="369.75" y2="464"/><line class="cls-1" x1="833.75" x2="833.75" y2="464"/><line class="cls-1" x1="79.75" x2="79.75" y2="464"/><line class="cls-1" x1="543.75" x2="543.75" y2="464"/><line class="cls-1" x1="311.75" x2="311.75" y2="464"/><line class="cls-1" x1="775.75" x2="775.75" y2="464"/><line class="cls-1" x1="195.75" x2="195.75" y2="464"/><line class="cls-1" x1="659.75" x2="659.75" y2="464"/><line class="cls-1" x1="427.75" x2="427.75" y2="464"/><line class="cls-1" x1="891.75" x2="891.75" y2="464"/><line class="cls-1" x1="50.75" x2="50.75" y2="464"/><line class="cls-1" x1="514.75" x2="514.75" y2="464"/><line class="cls-1" x1="282.75" x2="282.75" y2="464"/><line class="cls-1" x1="746.75" x2="746.75" y2="464"/><line class="cls-1" x1="166.75" x2="166.75" y2="464"/><line class="cls-1" x1="630.75" x2="630.75" y2="464"/><line class="cls-1" x1="398.75" x2="398.75" y2="464"/><line class="cls-1" x1="862.75" x2="862.75" y2="464"/><line class="cls-1" x1="108.75" x2="108.75" y2="464"/><line class="cls-1" x1="572.75" x2="572.75" y2="464"/><line class="cls-1" x1="340.75" x2="340.75" y2="464"/><line class="cls-1" x1="804.75" x2="804.75" y2="464"/><line class="cls-1" x1="224.75" x2="224.75" y2="464"/><line class="cls-1" x1="688.75" x2="688.75" y2="464"/><line class="cls-1" x1="456.75" x2="456.75" y2="464"/><line class="cls-1" x1="920.75" x2="920.75" y2="464"/><line class="cls-1" y1="39.454" x2="68.336"/><line class="cls-1" y1="47.825" x2="82.836"/><line class="cls-1" y1="56.197" x2="97.336"/><line class="cls-1" y1="64.568" x2="111.836"/><line class="cls-1" y1="72.94" x2="126.336"/><line class="cls-1" y1="81.312" x2="140.836"/><line class="cls-1" x1="155.336" y2="89.683"/><line class="cls-1" y1="106.426" x2="184.336"/><line class="cls-1" y1="114.798" x2="198.836"/><line class="cls-1" y1="123.169" x2="213.336"/><line class="cls-1" y1="131.541" x2="227.836"/><line class="cls-1" y1="139.913" x2="242.336"/><line class="cls-1" y1="148.284" x2="256.836"/><line class="cls-1" y1="156.656" x2="271.336"/><line class="cls-1" y1="173.399" x2="300.336"/><line class="cls-1" y1="181.771" x2="314.836"/><line class="cls-1" x1="329.336" y2="190.142"/><line class="cls-1" y1="198.514" x2="343.836"/><line class="cls-1" y1="206.885" x2="358.336"/><line class="cls-1" y1="215.257" x2="372.836"/><line class="cls-1" y1="223.628" x2="387.336"/><line class="cls-1" y1="240.372" x2="416.336"/><line class="cls-1" y1="248.743" x2="430.836"/><line class="cls-1" x1="445.336" y2="257.115"/><line class="cls-1" y1="265.486" x2="459.836"/><line class="cls-1" y1="273.858" x2="474.336"/><line class="cls-1" y1="282.23" x2="488.836"/><line class="cls-1" y1="290.601" x2="503.336"/><line class="cls-1" y1="307.344" x2="532.336"/><line class="cls-1" x1="546.836" y2="315.716"/><line class="cls-1" y1="324.087" x2="561.336"/><line class="cls-1" y1="332.459" x2="575.836"/><line class="cls-1" y1="340.831" x2="590.336"/><line class="cls-1" y1="349.202" x2="604.836"/><line class="cls-1" x1="619.336" y2="357.574"/><line class="cls-1" y1="374.317" x2="648.336"/><line class="cls-1" x1="662.836" y2="382.688"/><line class="cls-1" y1="391.06" x2="677.336"/><line class="cls-1" y1="399.432" x2="691.836"/><line class="cls-1" y1="407.803" x2="706.336"/><line class="cls-1" y1="416.175" x2="720.836"/><line class="cls-1" x1="735.336" y2="424.546"/><line class="cls-1" x1="764.336" y2="441.29"/><line class="cls-1" y1="449.661" x2="778.836"/><line class="cls-1" y1="458.033" x2="793.336"/><line class="cls-1" x1="807.836" x2="4.164" y2="464"/><line class="cls-1" x1="18.664" y1="464" x2="822.336"/><line class="cls-1" x1="836.836" x2="33.164" y2="464"/><line class="cls-1" x1="47.664" y1="464" x2="851.336"/><line class="cls-1" x1="76.664" y1="464" x2="880.336"/><line class="cls-1" x1="91.164" y1="464" x2="894.836"/><line class="cls-1" x1="909.336" x2="105.664" y2="464"/><line class="cls-1" x1="120.164" y1="464" x2="923.836"/><line class="cls-1" x1="134.664" y1="464" x2="928" y2="5.967"/><line class="cls-1" x1="149.164" y1="464" x2="928" y2="14.339"/><line class="cls-1" x1="163.664" y1="464" x2="928" y2="22.711"/><line class="cls-1" x1="192.664" y1="464" x2="928" y2="39.454"/><line class="cls-1" x1="207.164" y1="464" x2="928" y2="47.825"/><line class="cls-1" x1="928" y1="56.197" x2="221.664" y2="464"/><line class="cls-1" x1="236.164" y1="464" x2="928" y2="64.568"/><line class="cls-1" x1="928" y1="72.94" x2="250.664" y2="464"/><line class="cls-1" x1="265.164" y1="464" x2="928" y2="81.312"/><line class="cls-1" x1="279.664" y1="464" x2="928" y2="89.683"/><line class="cls-1" x1="308.664" y1="464" x2="928" y2="106.426"/><line class="cls-1" x1="323.164" y1="464" x2="928" y2="114.798"/><line class="cls-1" x1="337.664" y1="464" x2="928" y2="123.169"/><line class="cls-1" x1="352.164" y1="464" x2="928" y2="131.541"/><line class="cls-1" x1="928" y1="139.913" x2="366.664" y2="464"/><line class="cls-1" x1="381.164" y1="464" x2="928" y2="148.284"/><line class="cls-1" x1="395.664" y1="464" x2="928" y2="156.656"/><line class="cls-1" x1="424.664" y1="464" x2="928" y2="173.399"/><line class="cls-1" x1="928" y1="181.771" x2="439.164" y2="464"/><line class="cls-1" x1="453.664" y1="464" x2="928" y2="190.142"/><line class="cls-1" x1="928" y1="198.514" x2="468.164" y2="464"/><line class="cls-1" x1="482.664" y1="464" x2="928" y2="206.885"/><line class="cls-1" x1="497.164" y1="464" x2="928" y2="215.257"/><line class="cls-1" x1="928" y1="223.628" x2="511.664" y2="464"/><line class="cls-1" x1="928" y1="240.372" x2="540.664" y2="464"/><line class="cls-1" x1="555.164" y1="464" x2="928" y2="248.743"/><line class="cls-1" x1="569.664" y1="464" x2="928" y2="257.115"/><line class="cls-1" x1="584.164" y1="464" x2="928" y2="265.486"/><line class="cls-1" x1="598.664" y1="464" x2="928" y2="273.858"/><line class="cls-1" x1="928" y1="282.229" x2="613.164" y2="464"/><line class="cls-1" x1="627.664" y1="464" x2="928" y2="290.601"/><line class="cls-1" x1="928" y1="307.344" x2="656.664" y2="464"/><line class="cls-1" x1="671.164" y1="464" x2="928" y2="315.716"/><line class="cls-1" x1="928" y1="324.087" x2="685.664" y2="464"/><line class="cls-1" x1="700.164" y1="464" x2="928" y2="332.459"/><line class="cls-1" x1="714.664" y1="464" x2="928" y2="340.831"/><line class="cls-1" x1="928" y1="349.202" x2="729.164" y2="464"/><line class="cls-1" x1="743.664" y1="464" x2="928" y2="357.574"/><line class="cls-1" x1="772.664" y1="464" x2="928" y2="374.317"/><line class="cls-1" x1="787.164" y1="464" x2="928" y2="382.688"/><line class="cls-1" x1="928" y1="391.06" x2="801.664" y2="464"/><line class="cls-1" x1="816.164" y1="464" x2="928" y2="399.432"/><line class="cls-1" x1="928" y1="407.803" x2="830.664" y2="464"/><line class="cls-1" x1="845.164" y1="464" x2="928" y2="416.175"/><line class="cls-1" x1="859.664" y1="464" x2="928" y2="424.546"/><line class="cls-1" x1="888.664" y1="464" x2="928" y2="441.289"/><line class="cls-1" x1="928" y1="449.661" x2="903.164" y2="464"/><line class="cls-1" x1="917.664" y1="464" x2="928" y2="458.033"/><line class="cls-1" y1="22.711" x2="39.336"/><line class="cls-1" y1="14.339" x2="24.836"/><line class="cls-1" y1="5.967" x2="10.336"/><line class="cls-1" x1="859.664" x2="928" y2="39.454"/><line class="cls-1" x1="845.164" x2="928" y2="47.825"/><line class="cls-1" x1="830.664" x2="928" y2="56.197"/><line class="cls-1" x1="816.164" x2="928" y2="64.568"/><line class="cls-1" x1="801.664" x2="928" y2="72.94"/><line class="cls-1" x1="787.164" x2="928" y2="81.312"/><line class="cls-1" x1="928" y1="89.683" x2="772.664"/><line class="cls-1" x1="743.664" x2="928" y2="106.426"/><line class="cls-1" x1="729.164" x2="928" y2="114.798"/><line class="cls-1" x1="714.664" x2="928" y2="123.169"/><line class="cls-1" x1="700.164" x2="928" y2="131.541"/><line class="cls-1" x1="685.664" x2="928" y2="139.913"/><line class="cls-1" x1="671.164" x2="928" y2="148.284"/><line class="cls-1" x1="656.664" x2="928" y2="156.656"/><line class="cls-1" x1="627.664" x2="928" y2="173.399"/><line class="cls-1" x1="613.164" x2="928" y2="181.771"/><line class="cls-1" x1="928" y1="190.142" x2="598.664"/><line class="cls-1" x1="584.164" x2="928" y2="198.514"/><line class="cls-1" x1="569.664" x2="928" y2="206.885"/><line class="cls-1" x1="555.164" x2="928" y2="215.257"/><line class="cls-1" x1="540.664" x2="928" y2="223.628"/><line class="cls-1" x1="511.664" x2="928" y2="240.372"/><line class="cls-1" x1="497.164" x2="928" y2="248.743"/><line class="cls-1" x1="928" y1="257.115" x2="482.664"/><line class="cls-1" x1="468.164" x2="928" y2="265.486"/><line class="cls-1" x1="453.664" x2="928" y2="273.858"/><line class="cls-1" x1="439.164" x2="928" y2="282.23"/><line class="cls-1" x1="424.664" x2="928" y2="290.601"/><line class="cls-1" x1="395.664" x2="928" y2="307.344"/><line class="cls-1" x1="928" y1="315.716" x2="381.164"/><line class="cls-1" x1="366.664" x2="928" y2="324.087"/><line class="cls-1" x1="352.164" x2="928" y2="332.459"/><line class="cls-1" x1="337.664" x2="928" y2="340.831"/><line class="cls-1" x1="323.164" x2="928" y2="349.202"/><line class="cls-1" x1="928" y1="357.574" x2="308.664"/><line class="cls-1" x1="279.664" x2="928" y2="374.317"/><line class="cls-1" x1="928" y1="382.688" x2="265.164"/><line class="cls-1" x1="250.664" x2="928" y2="391.06"/><line class="cls-1" x1="236.164" x2="928" y2="399.432"/><line class="cls-1" x1="221.664" x2="928" y2="407.803"/><line class="cls-1" x1="207.164" x2="928" y2="416.175"/><line class="cls-1" x1="928" y1="424.546" x2="192.664"/><line class="cls-1" x1="928" y1="441.29" x2="163.664"/><line class="cls-1" x1="149.164" x2="928" y2="449.661"/><line class="cls-1" x1="134.664" x2="928" y2="458.033"/><line class="cls-1" x1="923.835" y1="464" x2="120.164"/><line class="cls-1" x1="105.664" x2="909.336" y2="464"/><line class="cls-1" x1="894.835" y1="464" x2="91.164"/><line class="cls-1" x1="76.664" x2="880.336" y2="464"/><line class="cls-1" x1="47.664" x2="851.336" y2="464"/><line class="cls-1" x1="33.164" x2="836.836" y2="464"/><line class="cls-1" x1="822.336" y1="464" x2="18.664"/><line class="cls-1" x1="4.164" x2="807.836" y2="464"/><line class="cls-1" y1="5.967" x2="793.336" y2="464"/><line class="cls-1" y1="14.339" x2="778.836" y2="464"/><line class="cls-1" y1="22.711" x2="764.336" y2="464"/><line class="cls-1" y1="39.454" x2="735.336" y2="464"/><line class="cls-1" y1="47.825" x2="720.836" y2="464"/><line class="cls-1" x1="706.336" y1="464" y2="56.197"/><line class="cls-1" y1="64.568" x2="691.836" y2="464"/><line class="cls-1" x1="677.336" y1="464" y2="72.94"/><line class="cls-1" y1="81.312" x2="662.836" y2="464"/><line class="cls-1" y1="89.683" x2="648.336" y2="464"/><line class="cls-1" y1="106.426" x2="619.336" y2="464"/><line class="cls-1" y1="114.798" x2="604.836" y2="464"/><line class="cls-1" y1="123.169" x2="590.336" y2="464"/><line class="cls-1" y1="131.541" x2="575.836" y2="464"/><line class="cls-1" x1="561.336" y1="464" y2="139.913"/><line class="cls-1" y1="148.284" x2="546.836" y2="464"/><line class="cls-1" y1="156.656" x2="532.336" y2="464"/><line class="cls-1" y1="173.399" x2="503.336" y2="464"/><line class="cls-1" x1="488.836" y1="464" y2="181.771"/><line class="cls-1" y1="190.142" x2="474.336" y2="464"/><line class="cls-1" x1="459.836" y1="464" y2="198.514"/><line class="cls-1" y1="206.885" x2="445.336" y2="464"/><line class="cls-1" y1="215.257" x2="430.836" y2="464"/><line class="cls-1" x1="416.336" y1="464" y2="223.628"/><line class="cls-1" x1="387.336" y1="464" y2="240.372"/><line class="cls-1" y1="248.743" x2="372.836" y2="464"/><line class="cls-1" y1="257.115" x2="358.336" y2="464"/><line class="cls-1" y1="265.486" x2="343.836" y2="464"/><line class="cls-1" y1="273.858" x2="329.336" y2="464"/><line class="cls-1" x1="314.836" y1="464" y2="282.229"/><line class="cls-1" y1="290.601" x2="300.336" y2="464"/><line class="cls-1" x1="271.336" y1="464" y2="307.344"/><line class="cls-1" y1="315.716" x2="256.836" y2="464"/><line class="cls-1" x1="242.336" y1="464" y2="324.087"/><line class="cls-1" y1="332.459" x2="227.836" y2="464"/><line class="cls-1" y1="340.831" x2="213.336" y2="464"/><line class="cls-1" x1="198.836" y1="464" y2="349.202"/><line class="cls-1" y1="357.574" x2="184.336" y2="464"/><line class="cls-1" y1="374.317" x2="155.336" y2="464"/><line class="cls-1" y1="382.688" x2="140.836" y2="464"/><line class="cls-1" x1="126.336" y1="464" y2="391.06"/><line class="cls-1" y1="399.432" x2="111.836" y2="464"/><line class="cls-1" x1="97.336" y1="464" y2="407.803"/><line class="cls-1" y1="416.175" x2="82.836" y2="464"/><line class="cls-1" y1="424.546" x2="68.336" y2="464"/><line class="cls-1" y1="441.289" x2="39.336" y2="464"/><line class="cls-1" x1="24.836" y1="464" y2="449.661"/><line class="cls-1" y1="458.033" x2="10.336" y2="464"/><line class="cls-1" x1="928" y1="22.711" x2="888.664"/><line class="cls-1" x1="928" y1="14.339" x2="903.164"/><line class="cls-1" x1="928" y1="5.967" x2="917.664"/><line class="cls-2" x1="758.164" x2="928" y2="98.055"/><line class="cls-2" x1="642.164" x2="928" y2="165.027"/><line class="cls-2" x1="526.164" x2="928" y2="232"/><line class="cls-2" x1="928" y1="298.973" x2="410.164"/><line class="cls-2" x1="294.164" x2="928" y2="365.945"/><line class="cls-2" x1="178.164" x2="928" y2="432.918"/><line class="cls-2" x1="62.164" x2="865.836" y2="464"/><line class="cls-2" x1="749.836" y1="464" y2="31.082"/><line class="cls-2" x1="633.836" y1="464" y2="98.055"/><line class="cls-2" y1="165.027" x2="517.836" y2="464"/><line class="cls-2" y1="232" x2="401.836" y2="464"/><line class="cls-2" y1="298.973" x2="285.836" y2="464"/><line class="cls-2" x1="169.836" y1="464" y2="365.945"/><line class="cls-2" x1="53.836" y1="464" y2="432.918"/><line class="cls-2" x1="464" x2="464" y2="464"/><line class="cls-2" x1="232" x2="232" y2="464"/><line class="cls-2" x1="696" x2="696" y2="464"/><line class="cls-2" x1="116" x2="116" y2="464"/><line class="cls-2" x1="580" x2="580" y2="464"/><line class="cls-2" x1="348" x2="348" y2="464"/><line class="cls-2" x1="812" x2="812" y2="464"/><line class="cls-2" x1="58" x2="58" y2="464"/><line class="cls-2" x1="522" x2="522" y2="464"/><line class="cls-2" x1="290" x2="290" y2="464"/><line class="cls-2" x1="754" x2="754" y2="464"/><line class="cls-2" x1="174" x2="174" y2="464"/><line class="cls-2" x1="638" x2="638" y2="464"/><line class="cls-2" x1="406" x2="406" y2="464"/><line class="cls-2" x1="870" x2="870" y2="464"/><line class="cls-2" y1="98.055" x2="169.836"/><line class="cls-2" y1="165.027" x2="285.836"/><line class="cls-2" y1="232" x2="401.836"/><line class="cls-2" x1="517.836" y2="298.973"/><line class="cls-2" y1="365.945" x2="633.836"/><line class="cls-2" y1="432.918" x2="749.836"/><line class="cls-2" x1="62.164" y1="464" x2="865.836"/><line class="cls-2" x1="928" y1="31.082" x2="178.164" y2="464"/><line class="cls-2" x1="928" y1="98.055" x2="294.164" y2="464"/><line class="cls-2" x1="410.164" y1="464" x2="928" y2="165.027"/><line class="cls-2" x1="526.164" y1="464" x2="928" y2="232"/><line class="cls-2" x1="642.164" y1="464" x2="928" y2="298.973"/><line class="cls-2" x1="928" y1="365.945" x2="758.164" y2="464"/><line class="cls-2" x1="928" y1="432.918" x2="874.164" y2="464"/><line class="cls-2" y1="31.082" x2="53.836"/><line class="cls-2" x1="928" y1="31.082" x2="874.164"/></g></svg>