<svg xmlns="http://www.w3.org/2000/svg" xmlns:xlink="http://www.w3.org/1999/xlink" viewBox="0 0 448 448"><defs><style>.cls-1,.cls-10,.cls-4,.cls-5,.cls-9{fill:none;}.cls-2{clip-path:url(#clip-path);}.cls-11,.cls-3{fill:#fff;}.cls-4{stroke:#f4f4f4;}.cls-4,.cls-5,.cls-9{stroke-linecap:round;}.cls-10,.cls-11,.cls-4,.cls-5,.cls-9{stroke-miterlimit:10;}.cls-5{stroke:#e0e0e0;}.cls-6{fill:#a6c8ff;}.cls-7{clip-path:url(#clip-path-2);}.cls-8{opacity:0.5;}.cls-9{stroke:#78a9ff;}.cls-10,.cls-11{stroke:#d12771;}</style><clipPath id="clip-path"><rect class="cls-1" width="448" height="448"/></clipPath><clipPath id="clip-path-2"><path class="cls-1" d="M367.092,0H235.831A442.931,442.931,0,0,1,238,44.924c0,69.245-9.635,116.652-56,154.551-57.742,47.2-121.2,75.518-121.2,121.246l.005,16.165c0,11.7,7.732,23.4,23.2,32.332,30.928,17.856,81.072,17.856,112,0l168-96.995c15.464-8.928,23.2-20.63,23.2-32.332V224.336c0-73.951-23.049-74.292-23.049-129.787C364.148,41.576,366.847,3.366,367.092,0Z"/></clipPath></defs><title>Artboard 2 copy 40_Export_Two</title><g id="Layer_3" data-name="Layer 3"><g class="cls-2"><rect class="cls-3" width="448" height="448"/><line class="cls-4" x1="14" x2="14" y2="448"/><line class="cls-4" x1="28" x2="28" y2="448"/><line class="cls-4" x1="42" x2="42" y2="448"/><line class="cls-4" x1="56" x2="56" y2="448"/><line class="cls-4" x1="70" x2="70" y2="448"/><line class="cls-4" x1="84" x2="84" y2="448"/><line class="cls-4" x1="98" x2="98" y2="448"/><line class="cls-4" x1="126" x2="126" y2="448"/><line class="cls-4" x1="140" x2="140" y2="448"/><line class="cls-4" x1="154" x2="154" y2="448"/><line class="cls-4" x1="168" x2="168" y2="448"/><line class="cls-4" x1="182" x2="182" y2="448"/><line class="cls-4" x1="196" x2="196" y2="448"/><line class="cls-4" x1="210" x2="210" y2="448"/><line class="cls-4" x1="238" x2="238" y2="448"/><line class="cls-4" x1="252" x2="252" y2="448"/><line class="cls-4" x1="266" x2="266" y2="448"/><line class="cls-4" x1="280" x2="280" y2="448"/><line class="cls-4" x1="294" x2="294" y2="448"/><line class="cls-4" x1="308" x2="308" y2="448"/><line class="cls-4" x1="322" x2="322" y2="448"/><line class="cls-4" x1="350" x2="350" y2="448"/><line class="cls-4" x1="364" x2="364" y2="448"/><line class="cls-4" x1="378" x2="378" y2="448"/><line class="cls-4" x1="392" x2="392" y2="448"/><line class="cls-4" x1="406" x2="406" y2="448"/><line class="cls-4" x1="420" x2="420" y2="448"/><line class="cls-4" x1="434" x2="434" y2="448"/><line class="cls-4" x1="88.021" y1="448" x2="448" y2="240.166"/><line class="cls-4" x1="116.021" y1="448" x2="448" y2="256.332"/><line class="cls-4" x1="144.021" y1="448" x2="448" y2="272.497"/><line class="cls-4" x1="172.021" y1="448" x2="448" y2="288.663"/><line class="cls-4" x1="200.021" y1="448" x2="448" y2="304.829"/><line class="cls-4" x1="228.021" y1="448" x2="448" y2="320.995"/><line class="cls-4" x1="256.021" y1="448" x2="448" y2="337.161"/><line class="cls-4" x1="312.021" y1="448" x2="448" y2="369.492"/><line class="cls-4" x1="340.021" y1="448" x2="448" y2="385.658"/><line class="cls-4" x1="368.021" y1="448" x2="448" y2="401.824"/><line class="cls-4" x1="396.021" y1="448" x2="448" y2="417.99"/><line class="cls-4" x1="396.021" y1="448" x2="448" y2="417.99"/><line class="cls-4" x1="424.021" y1="448" x2="448" y2="434.155"/><line class="cls-4" x1="172.021" y1="448" x2="448" y2="288.663"/><line class="cls-4" x1="359.979" y2="207.834"/><line class="cls-4" x1="331.979" y2="191.668"/><line class="cls-4" x1="303.979" y2="175.503"/><line class="cls-4" x1="275.979" y2="159.337"/><line class="cls-4" x1="247.979" y2="143.171"/><line class="cls-4" x1="219.979" y2="127.005"/><line class="cls-4" x1="191.979" y2="110.839"/><line class="cls-4" x1="135.979" y2="78.508"/><line class="cls-4" x1="107.979" y2="62.342"/><line class="cls-4" x1="79.979" y2="46.176"/><line class="cls-4" x1="51.979" y2="30.01"/><line class="cls-4" x1="51.979" y2="30.01"/><line class="cls-4" x1="23.979" y2="13.845"/><line class="cls-4" x1="275.979" y2="159.337"/><line class="cls-4" x1="32.021" y1="448" x2="448" y2="207.834"/><line class="cls-4" x1="4.021" y1="448" x2="448" y2="191.668"/><line class="cls-4" y1="434.155" x2="448" y2="175.503"/><line class="cls-4" y1="417.99" x2="448" y2="159.337"/><line class="cls-4" y1="401.824" x2="448" y2="143.171"/><line class="cls-4" y1="385.658" x2="448" y2="127.005"/><line class="cls-4" y1="369.492" x2="448" y2="110.839"/><line class="cls-4" y1="337.161" x2="448" y2="78.508"/><line class="cls-4" y1="320.995" x2="448" y2="62.342"/><line class="cls-4" y1="304.829" x2="448" y2="46.176"/><line class="cls-4" y1="288.663" x2="448" y2="30.01"/><line class="cls-4" y1="272.497" x2="448" y2="13.845"/><line class="cls-4" y1="256.332" x2="443.979"/><line class="cls-4" y1="240.166" x2="415.979"/><line class="cls-4" x1="359.979" y1="448" y2="240.166"/><line class="cls-4" x1="331.979" y1="448" y2="256.332"/><line class="cls-4" x1="303.979" y1="448" y2="272.497"/><line class="cls-4" x1="275.979" y1="448" y2="288.663"/><line class="cls-4" x1="247.979" y1="448" y2="304.829"/><line class="cls-4" x1="219.979" y1="448" y2="320.995"/><line class="cls-4" x1="191.979" y1="448" y2="337.161"/><line class="cls-4" x1="135.979" y1="448" y2="369.492"/><line class="cls-4" x1="107.979" y1="448" y2="385.658"/><line class="cls-4" x1="79.979" y1="448" y2="401.824"/><line class="cls-4" x1="51.979" y1="448" y2="417.99"/><line class="cls-4" x1="51.979" y1="448" y2="417.99"/><line class="cls-4" x1="23.979" y1="448" y2="434.155"/><line class="cls-4" x1="275.979" y1="448" y2="288.663"/><line class="cls-4" x1="88.021" x2="448" y2="207.834"/><line class="cls-4" x1="116.021" x2="448" y2="191.668"/><line class="cls-4" x1="144.021" x2="448" y2="175.503"/><line class="cls-4" x1="172.021" x2="448" y2="159.337"/><line class="cls-4" x1="200.021" x2="448" y2="143.171"/><line class="cls-4" x1="228.021" x2="448" y2="127.005"/><line class="cls-4" x1="256.021" x2="448" y2="110.839"/><line class="cls-4" x1="312.021" x2="448" y2="78.508"/><line class="cls-4" x1="340.021" x2="448" y2="62.342"/><line class="cls-4" x1="368.021" x2="448" y2="46.176"/><line class="cls-4" x1="396.021" x2="448" y2="30.01"/><line class="cls-4" x1="396.021" x2="448" y2="30.01"/><line class="cls-4" x1="424.021" x2="448" y2="13.845"/><line class="cls-4" x1="172.021" x2="448" y2="159.337"/><line class="cls-4" x1="415.979" y1="448" y2="207.834"/><line class="cls-4" x1="443.979" y1="448" y2="191.668"/><line class="cls-4" x1="448" y1="434.155" y2="175.503"/><line class="cls-4" x1="448" y1="417.99" y2="159.337"/><line class="cls-4" x1="448" y1="401.824" y2="143.171"/><line class="cls-4" x1="448" y1="385.658" y2="127.005"/><line class="cls-4" x1="448" y1="369.492" y2="110.839"/><line class="cls-4" x1="448" y1="337.161" y2="78.508"/><line class="cls-4" x1="448" y1="320.995" y2="62.342"/><line class="cls-4" x1="448" y1="304.829" y2="46.176"/><line class="cls-4" x1="448" y1="288.663" y2="30.01"/><line class="cls-4" x1="448" y1="272.497" y2="13.845"/><line class="cls-4" x1="448" y1="256.332" x2="4.021"/><line class="cls-4" x1="448" y1="240.166" x2="32.021"/><line class="cls-5" x1="163.979" y1="448" y2="353.326"/><line class="cls-5" x1="284.021" x2="448" y2="94.674"/><line class="cls-5" x1="387.979" y1="448" y2="224"/><line class="cls-5" x1="448" y1="353.326" y2="94.674"/><line class="cls-5" x1="448" y1="224" x2="60.021"/><line class="cls-5" x1="284.021" y1="448" x2="448" y2="353.326"/><line class="cls-5" x1="163.979" y2="94.674"/><line class="cls-5" x1="60.021" y1="448" x2="448" y2="224"/><line class="cls-5" y1="353.326" x2="448" y2="94.674"/><line class="cls-5" y1="224" x2="387.979"/><line class="cls-5" x1="112" x2="112" y2="448"/><line class="cls-5" x1="224" x2="224" y2="448"/><line class="cls-5" x1="336" x2="336" y2="448"/><path class="cls-6" d="M367.092,0H235.831A442.931,442.931,0,0,1,238,44.924c0,69.245-9.635,116.652-56,154.551-57.742,47.2-121.2,75.518-121.2,121.246l.005,16.165c0,11.7,7.732,23.4,23.2,32.332,30.928,17.856,81.072,17.856,112,0l168-96.995c15.464-8.928,23.2-20.63,23.2-32.332V224.336c0-73.951-23.049-74.292-23.049-129.787C364.148,41.576,366.847,3.366,367.092,0Z"/><g class="cls-7"><g class="cls-8"><line class="cls-9" x1="70" x2="70" y2="448"/><line class="cls-9" x1="84" x2="84" y2="448"/><line class="cls-9" x1="98" x2="98" y2="448"/><line class="cls-9" x1="126" x2="126" y2="448"/><line class="cls-9" x1="140" x2="140" y2="448"/><line class="cls-9" x1="154" x2="154" y2="448"/><line class="cls-9" x1="168" x2="168" y2="448"/><line class="cls-9" x1="182" x2="182" y2="448"/><line class="cls-9" x1="196" x2="196" y2="448"/><line class="cls-9" x1="210" x2="210" y2="448"/><line class="cls-9" x1="238" x2="238" y2="448"/><line class="cls-9" x1="252" x2="252" y2="448"/><line class="cls-9" x1="266" x2="266" y2="448"/><line class="cls-9" x1="280" x2="280" y2="448"/><line class="cls-9" x1="294" x2="294" y2="448"/><line class="cls-9" x1="308" x2="308" y2="448"/><line class="cls-9" x1="322" x2="322" y2="448"/><line class="cls-9" x1="350" x2="350" y2="448"/><line class="cls-9" x1="364" x2="364" y2="448"/><line class="cls-9" x1="378" x2="378" y2="448"/><line class="cls-9" x1="359.979" y2="207.834"/><line class="cls-9" x1="331.979" y2="191.668"/><line class="cls-9" x1="303.979" y2="175.503"/><line class="cls-9" x1="275.979" y2="159.337"/><line class="cls-9" x1="247.979" y2="143.171"/><line class="cls-9" x1="275.979" y2="159.337"/><line class="cls-9" x1="32.021" y1="448" x2="448" y2="207.834"/><line class="cls-9" x1="4.021" y1="448" x2="448" y2="191.668"/><line class="cls-9" y1="434.155" x2="448" y2="175.503"/><line class="cls-9" y1="417.99" x2="448" y2="159.337"/><line class="cls-9" y1="401.824" x2="448" y2="143.171"/><line class="cls-9" y1="385.658" x2="448" y2="127.005"/><line class="cls-9" y1="369.492" x2="448" y2="110.839"/><line class="cls-9" y1="337.161" x2="448" y2="78.508"/><line class="cls-9" y1="320.995" x2="448" y2="62.342"/><line class="cls-9" y1="304.829" x2="448" y2="46.176"/><line class="cls-9" y1="288.663" x2="448" y2="30.01"/><line class="cls-9" y1="272.497" x2="448" y2="13.845"/><line class="cls-9" y1="256.332" x2="443.979"/><line class="cls-9" y1="240.166" x2="415.979"/><line class="cls-9" x1="359.979" y1="448" y2="240.166"/><line class="cls-9" x1="331.979" y1="448" y2="256.332"/><line class="cls-9" x1="303.979" y1="448" y2="272.497"/><line class="cls-9" x1="275.979" y1="448" y2="288.663"/><line class="cls-9" x1="247.979" y1="448" y2="304.829"/><line class="cls-9" x1="219.979" y1="448" y2="320.995"/><line class="cls-9" x1="275.979" y1="448" y2="288.663"/><line class="cls-9" x1="88.021" x2="448" y2="207.834"/><line class="cls-9" x1="116.021" x2="448" y2="191.668"/><line class="cls-9" x1="144.021" x2="448" y2="175.503"/><line class="cls-9" x1="172.021" x2="448" y2="159.337"/><line class="cls-9" x1="200.021" x2="448" y2="143.171"/><line class="cls-9" x1="228.021" x2="448" y2="127.005"/><line class="cls-9" x1="256.021" x2="448" y2="110.839"/><line class="cls-9" x1="312.021" x2="448" y2="78.508"/><line class="cls-9" x1="340.021" x2="448" y2="62.342"/><line class="cls-9" x1="172.021" x2="448" y2="159.337"/><line class="cls-9" x1="415.979" y1="448" y2="207.834"/><line class="cls-9" x1="443.979" y1="448" y2="191.668"/><line class="cls-9" x1="448" y1="434.155" y2="175.503"/><line class="cls-9" x1="448" y1="417.99" y2="159.337"/><line class="cls-9" x1="448" y1="401.824" y2="143.171"/><line class="cls-9" x1="448" y1="385.658" y2="127.005"/><line class="cls-9" x1="448" y1="369.492" y2="110.839"/><line class="cls-9" x1="448" y1="337.161" y2="78.508"/><line class="cls-9" x1="448" y1="320.995" y2="62.342"/><line class="cls-9" x1="448" y1="304.829" y2="46.176"/><line class="cls-9" x1="448" y1="288.663" y2="30.01"/><line class="cls-9" x1="448" y1="272.497" y2="13.845"/><line class="cls-9" x1="448" y1="256.332" x2="4.021"/><line class="cls-9" x1="448" y1="240.166" x2="32.021"/></g><line class="cls-9" x1="284.021" x2="448" y2="94.674"/><line class="cls-9" x1="387.979" y1="448" y2="224"/><line class="cls-9" x1="448" y1="353.326" y2="94.674"/><line class="cls-9" x1="448" y1="224" x2="60.021"/><line class="cls-9" y1="353.326" x2="448" y2="94.674"/><line class="cls-9" y1="224" x2="387.979"/><line class="cls-9" x1="112" x2="112" y2="448"/><line class="cls-9" x1="224" x2="224" y2="448"/><line class="cls-9" x1="336" x2="336" y2="448"/></g><path class="cls-10" d="M387.2,224.336c0-73.95-23.049-74.292-23.049-129.787"/><path class="cls-10" d="M237.971,39.63q.027,2.61.028,5.294c0,69.244-9.635,116.652-56,154.551-57.742,47.2-121.2,75.518-121.2,121.246"/><line class="cls-10" x1="126.059" y1="248.147" x2="237.999" y2="151.298"/><rect class="cls-11" x="180.001" y="197.747" width="4" height="4"/><rect class="cls-11" x="235.999" y="149.254" width="4" height="4"/><rect class="cls-11" x="124" y="246.248" width="4" height="4"/><line class="cls-10" x1="60.8" y1="322.973" x2="60.8" y2="264.415"/><rect class="cls-11" x="58.8" y="318.721" width="4" height="4"/><line class="cls-10" x1="237.974" y1="39.63" x2="237.974" y2="102.741"/><rect class="cls-11" x="235.64" y="35.565" width="4.667" height="4.667"/><line class="cls-10" x1="364" y1="94.697" x2="364" y2="159.063"/><rect class="cls-11" x="361.667" y="92.34" width="4.667" height="4.667"/><line class="cls-10" x1="387.197" y1="224.131" x2="387.197" y2="159.337"/><rect class="cls-11" x="385.197" y="222.131" width="4" height="4" transform="translate(774.393 448.262) rotate(180)"/><rect class="cls-11" x="58.8" y="262.415" width="4" height="4"/><rect class="cls-11" x="385.197" y="157.337" width="4" height="4" transform="translate(774.393 318.674) rotate(180)"/><rect class="cls-11" x="362" y="157.337" width="4" height="4" transform="translate(728 318.674) rotate(180)"/><rect class="cls-11" x="235.999" y="100.741" width="4" height="4"/></g></g></svg>