<svg xmlns="http://www.w3.org/2000/svg" viewBox="0 0 288 288"><defs><style>.cls-1{fill:#fff;}.cls-2,.cls-3,.cls-4,.cls-5,.cls-6{fill:none;}.cls-2,.cls-5{stroke:#f4f4f4;}.cls-2,.cls-3{stroke-linecap:round;stroke-miterlimit:10;}.cls-3{stroke:#e0e0e0;}.cls-4{stroke:#d12771;}.cls-4,.cls-5{stroke-linejoin:round;}.cls-5{stroke-width:2.139px;}.cls-7{fill:#d12771;}</style></defs><title>Artboard 2 copy 10_Export</title><g id="Layer_3" data-name="Layer 3"><rect class="cls-1" width="288" height="288"/><line class="cls-2" x1="9" x2="9" y2="288"/><line class="cls-2" x1="18" x2="18" y2="288"/><line class="cls-2" x1="27" x2="27" y2="288"/><line class="cls-2" x1="36" x2="36" y2="288"/><line class="cls-2" x1="45" x2="45" y2="288"/><line class="cls-2" x1="54" x2="54" y2="288"/><line class="cls-2" x1="63" x2="63" y2="288"/><line class="cls-2" x1="81" x2="81" y2="288"/><line class="cls-2" x1="90" x2="90" y2="288"/><line class="cls-2" x1="99" x2="99" y2="288"/><line class="cls-2" x1="108" x2="108" y2="288"/><line class="cls-2" x1="117" x2="117" y2="288"/><line class="cls-2" x1="126" x2="126" y2="288"/><line class="cls-2" x1="135" x2="135" y2="288"/><line class="cls-2" x1="153" x2="153" y2="288"/><line class="cls-2" x1="162" x2="162" y2="288"/><line class="cls-2" x1="171" x2="171" y2="288"/><line class="cls-2" x1="180" x2="180" y2="288"/><line class="cls-2" x1="189" x2="189" y2="288"/><line class="cls-2" x1="198" x2="198" y2="288"/><line class="cls-2" x1="207" x2="207" y2="288"/><line class="cls-2" x1="225" x2="225" y2="288"/><line class="cls-2" x1="234" x2="234" y2="288"/><line class="cls-2" x1="243" x2="243" y2="288"/><line class="cls-2" x1="252" x2="252" y2="288"/><line class="cls-2" x1="261" x2="261" y2="288"/><line class="cls-2" x1="270" x2="270" y2="288"/><line class="cls-2" x1="279" x2="279" y2="288"/><line class="cls-2" x1="56.585" y1="288" x2="288" y2="154.392"/><line class="cls-2" x1="74.585" y1="288" x2="288" y2="164.785"/><line class="cls-2" x1="92.585" y1="288" x2="288" y2="175.177"/><line class="cls-2" x1="110.585" y1="288" x2="288" y2="185.569"/><line class="cls-2" x1="128.585" y1="288" x2="288" y2="195.962"/><line class="cls-2" x1="146.585" y1="288" x2="288" y2="206.354"/><line class="cls-2" x1="164.585" y1="288" x2="288" y2="216.746"/><line class="cls-2" x1="200.585" y1="288" x2="288" y2="237.531"/><line class="cls-2" x1="218.585" y1="288" x2="288" y2="247.923"/><line class="cls-2" x1="236.585" y1="288" x2="288" y2="258.315"/><line class="cls-2" x1="254.585" y1="288" x2="288" y2="268.708"/><line class="cls-2" x1="254.585" y1="288" x2="288" y2="268.708"/><line class="cls-2" x1="272.585" y1="288" x2="288" y2="279.1"/><line class="cls-2" x1="110.585" y1="288" x2="288" y2="185.569"/><line class="cls-2" x1="231.415" y2="133.608"/><line class="cls-2" x1="213.415" y2="123.215"/><line class="cls-2" x1="195.415" y2="112.823"/><line class="cls-2" x1="177.415" y2="102.431"/><line class="cls-2" x1="159.415" y2="92.038"/><line class="cls-2" x1="141.415" y2="81.646"/><line class="cls-2" x1="123.415" y2="71.254"/><line class="cls-2" x1="87.415" y2="50.469"/><line class="cls-2" x1="69.415" y2="40.077"/><line class="cls-2" x1="51.415" y2="29.685"/><line class="cls-2" x1="33.415" y2="19.292"/><line class="cls-2" x1="33.415" y2="19.292"/><line class="cls-2" x1="15.415" y2="8.9"/><line class="cls-2" x1="177.415" y2="102.431"/><line class="cls-2" x1="20.585" y1="288" x2="288" y2="133.608"/><line class="cls-2" x1="2.585" y1="288" x2="288" y2="123.215"/><line class="cls-2" y1="279.1" x2="288" y2="112.823"/><line class="cls-2" y1="268.708" x2="288" y2="102.431"/><line class="cls-2" y1="258.315" x2="288" y2="92.038"/><line class="cls-2" y1="247.923" x2="288" y2="81.646"/><line class="cls-2" y1="237.531" x2="288" y2="71.254"/><line class="cls-2" y1="216.746" x2="288" y2="50.469"/><line class="cls-2" y1="206.354" x2="288" y2="40.077"/><line class="cls-2" y1="195.962" x2="288" y2="29.685"/><line class="cls-2" y1="185.569" x2="288" y2="19.292"/><line class="cls-2" y1="175.177" x2="288" y2="8.9"/><line class="cls-2" y1="164.785" x2="285.415"/><line class="cls-2" y1="154.392" x2="267.415"/><line class="cls-2" x1="231.415" y1="288" y2="154.392"/><line class="cls-2" x1="213.415" y1="288" y2="164.785"/><line class="cls-2" x1="195.415" y1="288" y2="175.177"/><line class="cls-2" x1="177.415" y1="288" y2="185.569"/><line class="cls-2" x1="159.415" y1="288" y2="195.962"/><line class="cls-2" x1="141.415" y1="288" y2="206.354"/><line class="cls-2" x1="123.415" y1="288" y2="216.746"/><line class="cls-2" x1="87.415" y1="288" y2="237.531"/><line class="cls-2" x1="69.415" y1="288" y2="247.923"/><line class="cls-2" x1="51.415" y1="288" y2="258.315"/><line class="cls-2" x1="33.415" y1="288" y2="268.708"/><line class="cls-2" x1="33.415" y1="288" y2="268.708"/><line class="cls-2" x1="15.415" y1="288" y2="279.1"/><line class="cls-2" x1="177.415" y1="288" y2="185.569"/><line class="cls-2" x1="56.585" x2="288" y2="133.608"/><line class="cls-2" x1="74.585" x2="288" y2="123.215"/><line class="cls-2" x1="92.585" x2="288" y2="112.823"/><line class="cls-2" x1="110.585" x2="288" y2="102.431"/><line class="cls-2" x1="128.585" x2="288" y2="92.038"/><line class="cls-2" x1="146.585" x2="288" y2="81.646"/><line class="cls-2" x1="164.585" x2="288" y2="71.254"/><line class="cls-2" x1="200.585" x2="288" y2="50.469"/><line class="cls-2" x1="218.585" x2="288" y2="40.077"/><line class="cls-2" x1="236.585" x2="288" y2="29.685"/><line class="cls-2" x1="254.585" x2="288" y2="19.292"/><line class="cls-2" x1="254.585" x2="288" y2="19.292"/><line class="cls-2" x1="272.585" x2="288" y2="8.9"/><line class="cls-2" x1="110.585" x2="288" y2="102.431"/><line class="cls-2" x1="267.415" y1="288" y2="133.608"/><line class="cls-2" x1="285.415" y1="288" y2="123.215"/><line class="cls-2" x1="288" y1="279.1" y2="112.823"/><line class="cls-2" x1="288" y1="268.708" y2="102.431"/><line class="cls-2" x1="288" y1="258.315" y2="92.038"/><line class="cls-2" x1="288" y1="247.923" y2="81.646"/><line class="cls-2" x1="288" y1="237.531" y2="71.254"/><line class="cls-2" x1="288" y1="216.746" y2="50.469"/><line class="cls-2" x1="288" y1="206.354" y2="40.077"/><line class="cls-2" x1="288" y1="195.962" y2="29.685"/><line class="cls-2" x1="288" y1="185.569" y2="19.292"/><line class="cls-2" x1="288" y1="175.177" y2="8.9"/><line class="cls-2" x1="288" y1="164.785" x2="2.585"/><line class="cls-2" x1="288" y1="154.392" x2="20.585"/><line class="cls-3" x1="105.415" y1="288" y2="227.138"/><line class="cls-3" x1="182.585" x2="288" y2="60.862"/><line class="cls-3" x1="249.415" y1="288" y2="144"/><line class="cls-3" x1="288" y1="227.138" y2="60.862"/><line class="cls-3" x1="288" y1="144" x2="38.585"/><line class="cls-3" x1="182.585" y1="288" x2="288" y2="227.138"/><line class="cls-3" x1="105.415" y2="60.862"/><line class="cls-3" x1="38.585" y1="288" x2="288" y2="144"/><line class="cls-3" y1="227.138" x2="288" y2="60.862"/><line class="cls-3" y1="144" x2="249.415"/><line class="cls-3" x1="72" x2="72" y2="288"/><line class="cls-3" x1="144" x2="144" y2="288"/><line class="cls-3" x1="216" x2="216" y2="288"/><rect class="cls-4" x="60.826" y="60.881" width="166.264" height="166.264"/><circle cx="144.017" cy="144.013" r="83.132"/><path id="strategy" class="cls-5" d="M96.418,188.58m8.914-59.423H129.1M99.39,164.811h35.654M108.3,135.1v14.856L99.39,173.724l2.97,5.943h29.712l2.971-5.943-8.914-23.769V135.1M102.36,179.667v8.913m29.712-8.913v8.913m-20.8-83.192h11.884V99.446H111.274Zm0,5.942h11.884m2.971,11.885v-5.943l2.972-5.942-2.972-5.942H108.3l-2.972,5.942,2.972,5.942v5.943M149.9,141.042h5.944m-5.944,8.913h5.944m-5.944,8.914h5.944m20.8,15.231,2.97-9.293-11.884-20.794,17.827,2.971,2.971-5.942L170.7,126.186h-5.942v-8.914l-8.633,7.29c-3.863,3.863-6.225,8.181-6.225,17.832v22.425l2.974,9.28M96.419,188.58H191.5m-5.942,0v-2.975a11.919,11.919,0,0,0-11.885-11.884H155.842a11.919,11.919,0,0,0-11.884,11.884v2.975"/><rect class="cls-6" x="96.419" y="96.474" width="95.078" height="95.078"/><path class="cls-7" d="M61.905,244.606v-.876h2.4v-6.755h-.084l-2.112,1.967-.588-.635,2.22-2.077h1.572v7.5h2.208v.876Z"/><path class="cls-7" d="M74.529,244.606H68.937v-1.032l2.8-2.519a6.359,6.359,0,0,0,1.008-1.134,2.156,2.156,0,0,0,.4-1.231v-.143a1.626,1.626,0,0,0-.4-1.171,1.557,1.557,0,0,0-1.176-.413,1.659,1.659,0,0,0-1.182.39,2.358,2.358,0,0,0-.618,1.038l-.9-.336a3.576,3.576,0,0,1,.33-.727,2.451,2.451,0,0,1,1.32-1.073,3.515,3.515,0,0,1,2.184.012,2.285,2.285,0,0,1,.816.5,2.174,2.174,0,0,1,.5.768,2.647,2.647,0,0,1,.174.973,2.86,2.86,0,0,1-.138.9,3.534,3.534,0,0,1-.384.805,5.248,5.248,0,0,1-.588.75,9.52,9.52,0,0,1-.762.725l-2.34,2.04h4.548Z"/><path class="cls-7" d="M78.885,244.75a4.023,4.023,0,0,1-1.284-.186,2.649,2.649,0,0,1-.918-.509,2.1,2.1,0,0,1-.552-.769,2.456,2.456,0,0,1-.186-.96,1.933,1.933,0,0,1,.468-1.368,2.533,2.533,0,0,1,1.236-.708v-.1a2.165,2.165,0,0,1-1.062-.738,1.964,1.964,0,0,1-.39-1.229,1.865,1.865,0,0,1,.708-1.531,3.729,3.729,0,0,1,3.96,0,1.865,1.865,0,0,1,.708,1.531,1.964,1.964,0,0,1-.39,1.229,2.165,2.165,0,0,1-1.062.738v.1a2.533,2.533,0,0,1,1.236.708,1.933,1.933,0,0,1,.468,1.368,2.456,2.456,0,0,1-.186.96,2.07,2.07,0,0,1-.558.769,2.725,2.725,0,0,1-.918.509A3.967,3.967,0,0,1,78.885,244.75Zm0-.852a2.2,2.2,0,0,0,1.392-.4,1.34,1.34,0,0,0,.5-1.116v-.265a1.342,1.342,0,0,0-.5-1.115,2.66,2.66,0,0,0-2.8,0,1.342,1.342,0,0,0-.5,1.115v.265a1.34,1.34,0,0,0,.5,1.116A2.2,2.2,0,0,0,78.885,243.9Zm0-4.1a1.917,1.917,0,0,0,1.242-.349,1.21,1.21,0,0,0,.426-1v-.168a1.2,1.2,0,0,0-.438-1,2.348,2.348,0,0,0-2.46,0,1.2,1.2,0,0,0-.438,1v.168a1.21,1.21,0,0,0,.426,1A1.917,1.917,0,0,0,78.885,239.8Z"/><path class="cls-7" d="M90.417,244.606l2.3-3.143-2.244-3.049h1.152l.936,1.309.744,1.032h.048l.72-1.032L95,238.414h1.1l-2.268,3.036,2.328,3.156H95.013l-1.044-1.452-.708-.983h-.048l-.684.983-1.008,1.452Z"/><path class="cls-7" d="M105.105,244.606v-.876h2.4v-6.755h-.084l-2.112,1.967-.588-.635,2.22-2.077h1.572v7.5h2.208v.876Z"/><path class="cls-7" d="M117.728,244.606h-5.592v-1.032l2.8-2.519a6.359,6.359,0,0,0,1.008-1.134,2.156,2.156,0,0,0,.4-1.231v-.143a1.626,1.626,0,0,0-.4-1.171,1.557,1.557,0,0,0-1.176-.413,1.659,1.659,0,0,0-1.182.39,2.358,2.358,0,0,0-.618,1.038l-.9-.336a3.576,3.576,0,0,1,.33-.727,2.451,2.451,0,0,1,1.32-1.073,3.515,3.515,0,0,1,2.184.012,2.285,2.285,0,0,1,.816.5,2.174,2.174,0,0,1,.5.768,2.647,2.647,0,0,1,.174.973,2.86,2.86,0,0,1-.138.9,3.534,3.534,0,0,1-.384.805,5.248,5.248,0,0,1-.588.75,9.52,9.52,0,0,1-.762.725l-2.34,2.04h4.548Z"/><path class="cls-7" d="M122.084,244.75a4.023,4.023,0,0,1-1.284-.186,2.649,2.649,0,0,1-.918-.509,2.1,2.1,0,0,1-.552-.769,2.456,2.456,0,0,1-.186-.96,1.933,1.933,0,0,1,.468-1.368,2.533,2.533,0,0,1,1.236-.708v-.1a2.165,2.165,0,0,1-1.062-.738,1.964,1.964,0,0,1-.39-1.229,1.865,1.865,0,0,1,.708-1.531,3.729,3.729,0,0,1,3.96,0,1.865,1.865,0,0,1,.708,1.531,1.964,1.964,0,0,1-.39,1.229,2.165,2.165,0,0,1-1.062.738v.1a2.533,2.533,0,0,1,1.236.708,1.933,1.933,0,0,1,.468,1.368,2.456,2.456,0,0,1-.186.96,2.07,2.07,0,0,1-.558.769,2.725,2.725,0,0,1-.918.509A3.967,3.967,0,0,1,122.084,244.75Zm0-.852a2.2,2.2,0,0,0,1.392-.4,1.34,1.34,0,0,0,.5-1.116v-.265a1.342,1.342,0,0,0-.5-1.115,2.66,2.66,0,0,0-2.8,0,1.342,1.342,0,0,0-.5,1.115v.265a1.34,1.34,0,0,0,.5,1.116A2.2,2.2,0,0,0,122.084,243.9Zm0-4.1a1.917,1.917,0,0,0,1.242-.349,1.21,1.21,0,0,0,.426-1v-.168a1.2,1.2,0,0,0-.438-1,2.348,2.348,0,0,0-2.46,0,1.2,1.2,0,0,0-.438,1v.168a1.21,1.21,0,0,0,.426,1A1.917,1.917,0,0,0,122.084,239.8Z"/><path class="cls-7" d="M126.824,238.414h.96v1.009h.048a2.005,2.005,0,0,1,1.908-1.153,2.108,2.108,0,0,1,1.782.852,4.762,4.762,0,0,1,0,4.776,2.1,2.1,0,0,1-1.782.852,2.007,2.007,0,0,1-1.908-1.151h-.048v3.408h-.96Zm2.544,5.484a1.666,1.666,0,0,0,1.3-.509,1.935,1.935,0,0,0,.462-1.351v-1.056a1.933,1.933,0,0,0-.462-1.349,1.668,1.668,0,0,0-1.3-.511,2.176,2.176,0,0,0-.612.084,1.6,1.6,0,0,0-.5.246,1.206,1.206,0,0,0-.342.4,1.134,1.134,0,0,0-.126.546v2.231a1.136,1.136,0,0,0,.126.547,1.21,1.21,0,0,0,.342.4,1.519,1.519,0,0,0,.5.246A2.176,2.176,0,0,0,129.368,243.9Z"/><path class="cls-7" d="M133.616,244.606l2.3-3.143-2.244-3.049h1.152l.936,1.309.744,1.032h.048l.72-1.032.924-1.309h1.1l-2.268,3.036,2.328,3.156h-1.152l-1.044-1.452-.708-.983h-.048l-.684.983-1.008,1.452Z"/></g></svg>