<svg xmlns="http://www.w3.org/2000/svg" xmlns:xlink="http://www.w3.org/1999/xlink" viewBox="0 0 928 522"><defs><style>.cls-1,.cls-12,.cls-3,.cls-6{fill:none;}.cls-2{fill:#fff;}.cls-3{stroke:#e0e0e0;}.cls-12,.cls-3,.cls-6{stroke-miterlimit:10;}.cls-4{fill:#d0e2ff;}.cls-5{clip-path:url(#clip-path);}.cls-6{stroke:#a6c8ff;}.cls-7{fill:#4589ff;}.cls-8{fill:url(#linear-gradient);}.cls-9{fill:url(#linear-gradient-2);}.cls-10{fill:url(#linear-gradient-3);}.cls-11{fill:url(#linear-gradient-4);}.cls-12{stroke:#d12771;stroke-linecap:square;}.cls-13{fill:#d12771;}</style><clipPath id="clip-path"><path class="cls-1" d="M723.8,251,467.465,103.007a7.654,7.654,0,0,0-6.928,0L204.2,251a2.433,2.433,0,0,0-1.435,2v8a2.436,2.436,0,0,0,1.435,2L460.537,410.994a7.66,7.66,0,0,0,6.928,0L723.8,263a2.436,2.436,0,0,0,1.435-2v-8A2.433,2.433,0,0,0,723.8,251Z"/></clipPath><linearGradient id="linear-gradient" x1="260.222" y1="307.827" x2="667.779" y2="307.827" gradientUnits="userSpaceOnUse"><stop offset="0.48" stop-color="#78a9ff"/><stop offset="0.52" stop-color="#a6c8ff"/></linearGradient><linearGradient id="linear-gradient-2" x1="319.703" y1="282.656" x2="608.298" y2="282.656" gradientUnits="userSpaceOnUse"><stop offset="0.45" stop-color="#78a9ff"/><stop offset="0.55" stop-color="#a6c8ff"/></linearGradient><linearGradient id="linear-gradient-3" x1="383.243" y1="256.314" x2="544.758" y2="256.314" gradientUnits="userSpaceOnUse"><stop offset="0.4" stop-color="#78a9ff"/><stop offset="0.6" stop-color="#a6c8ff"/></linearGradient><linearGradient id="linear-gradient-4" x1="202.769" y1="332.411" x2="725.232" y2="332.411" gradientUnits="userSpaceOnUse"><stop offset="0.495" stop-color="#78a9ff"/><stop offset="0.505" stop-color="#a6c8ff"/></linearGradient></defs><title>Artboard 74_Export_Two</title><g id="Layer_3" data-name="Layer 3"><rect class="cls-2" width="928" height="522"/><line class="cls-3" x1="152.245" y1="265" x2="470.928" y2="81.008"/><line class="cls-3" x1="159.173" y1="269" x2="477.856" y2="85.008"/><line class="cls-3" x1="166.1" y1="272.999" x2="484.784" y2="89.007"/><line class="cls-3" x1="173.028" y1="276.999" x2="491.712" y2="93.007"/><line class="cls-3" x1="179.956" y1="280.999" x2="498.64" y2="97.007"/><line class="cls-3" x1="186.884" y1="284.999" x2="505.568" y2="101.007"/><line class="cls-3" x1="193.812" y1="288.999" x2="512.496" y2="105.007"/><line class="cls-3" x1="200.74" y1="292.999" x2="519.424" y2="109.007"/><line class="cls-3" x1="207.668" y1="296.998" x2="526.352" y2="113.006"/><line class="cls-3" x1="214.596" y1="300.998" x2="533.28" y2="117.006"/><line class="cls-3" x1="221.524" y1="304.998" x2="540.207" y2="121.006"/><line class="cls-3" x1="228.452" y1="308.998" x2="547.135" y2="125.006"/><line class="cls-3" x1="235.38" y1="312.998" x2="554.063" y2="129.006"/><line class="cls-3" x1="242.307" y1="316.998" x2="560.991" y2="133.005"/><line class="cls-3" x1="249.235" y1="320.997" x2="567.919" y2="137.005"/><line class="cls-3" x1="256.163" y1="324.997" x2="574.847" y2="141.005"/><line class="cls-3" x1="263.091" y1="328.997" x2="581.775" y2="145.005"/><line class="cls-3" x1="270.019" y1="332.997" x2="588.703" y2="149.005"/><line class="cls-3" x1="276.947" y1="336.997" x2="595.631" y2="153.005"/><line class="cls-3" x1="283.875" y1="340.997" x2="602.559" y2="157.004"/><line class="cls-3" x1="290.803" y1="344.996" x2="609.486" y2="161.004"/><line class="cls-3" x1="297.731" y1="348.996" x2="616.414" y2="165.004"/><line class="cls-3" x1="304.659" y1="352.996" x2="623.342" y2="169.004"/><line class="cls-3" x1="311.587" y1="356.996" x2="630.27" y2="173.004"/><line class="cls-3" x1="318.514" y1="360.996" x2="637.198" y2="177.004"/><line class="cls-3" x1="325.442" y1="364.996" x2="644.126" y2="181.003"/><line class="cls-3" x1="332.37" y1="368.995" x2="651.054" y2="185.003"/><line class="cls-3" x1="339.298" y1="372.995" x2="657.982" y2="189.003"/><line class="cls-3" x1="346.226" y1="376.995" x2="664.91" y2="193.003"/><line class="cls-3" x1="353.154" y1="380.995" x2="671.838" y2="197.003"/><line class="cls-3" x1="360.082" y1="384.995" x2="678.766" y2="201.003"/><line class="cls-3" x1="367.01" y1="388.995" x2="685.693" y2="205.002"/><line class="cls-3" x1="373.938" y1="392.994" x2="692.621" y2="209.002"/><line class="cls-3" x1="380.866" y1="396.994" x2="699.549" y2="213.002"/><line class="cls-3" x1="387.793" y1="400.994" x2="706.477" y2="217.002"/><line class="cls-3" x1="394.721" y1="404.994" x2="713.405" y2="221.002"/><line class="cls-3" x1="401.649" y1="408.994" x2="720.333" y2="225.002"/><line class="cls-3" x1="408.577" y1="412.993" x2="727.261" y2="229.001"/><line class="cls-3" x1="415.505" y1="416.993" x2="734.189" y2="233.001"/><line class="cls-3" x1="422.433" y1="420.993" x2="741.117" y2="237.001"/><line class="cls-3" x1="429.361" y1="424.993" x2="748.045" y2="241.001"/><line class="cls-3" x1="436.289" y1="428.993" x2="754.973" y2="245.001"/><line class="cls-3" x1="443.217" y1="432.993" x2="761.9" y2="249.001"/><line class="cls-3" x1="450.145" y1="436.992" x2="768.828" y2="253"/><line class="cls-3" x1="457.073" y1="440.992" x2="775.756" y2="257"/><line class="cls-3" x1="470.928" y1="440.992" x2="152.245" y2="257"/><line class="cls-3" x1="477.856" y1="436.992" x2="159.173" y2="253"/><line class="cls-3" x1="484.784" y1="432.993" x2="166.1" y2="249.001"/><line class="cls-3" x1="491.712" y1="428.993" x2="173.028" y2="245.001"/><line class="cls-3" x1="498.64" y1="424.993" x2="179.956" y2="241.001"/><line class="cls-3" x1="505.568" y1="420.993" x2="186.884" y2="237.001"/><line class="cls-3" x1="512.496" y1="416.993" x2="193.812" y2="233.001"/><line class="cls-3" x1="519.424" y1="412.993" x2="200.74" y2="229.001"/><line class="cls-3" x1="526.352" y1="408.994" x2="207.668" y2="225.002"/><line class="cls-3" x1="533.28" y1="404.994" x2="214.596" y2="221.002"/><line class="cls-3" x1="540.207" y1="400.994" x2="221.524" y2="217.002"/><line class="cls-3" x1="547.135" y1="396.994" x2="228.452" y2="213.002"/><line class="cls-3" x1="554.063" y1="392.994" x2="235.38" y2="209.002"/><line class="cls-3" x1="560.991" y1="388.995" x2="242.307" y2="205.002"/><line class="cls-3" x1="567.919" y1="384.995" x2="249.235" y2="201.003"/><line class="cls-3" x1="574.847" y1="380.995" x2="256.163" y2="197.003"/><line class="cls-3" x1="581.775" y1="376.995" x2="263.091" y2="193.003"/><line class="cls-3" x1="588.703" y1="372.995" x2="270.019" y2="189.003"/><line class="cls-3" x1="595.631" y1="368.995" x2="276.947" y2="185.003"/><line class="cls-3" x1="602.559" y1="364.996" x2="283.875" y2="181.003"/><line class="cls-3" x1="609.486" y1="360.996" x2="290.803" y2="177.004"/><line class="cls-3" x1="616.414" y1="356.996" x2="297.731" y2="173.004"/><line class="cls-3" x1="623.342" y1="352.996" x2="304.659" y2="169.004"/><line class="cls-3" x1="630.27" y1="348.996" x2="311.587" y2="165.004"/><line class="cls-3" x1="637.198" y1="344.996" x2="318.514" y2="161.004"/><line class="cls-3" x1="644.126" y1="340.997" x2="325.442" y2="157.004"/><line class="cls-3" x1="651.054" y1="336.997" x2="332.37" y2="153.005"/><line class="cls-3" x1="657.982" y1="332.997" x2="339.298" y2="149.005"/><line class="cls-3" x1="664.91" y1="328.997" x2="346.226" y2="145.005"/><line class="cls-3" x1="671.838" y1="324.997" x2="353.154" y2="141.005"/><line class="cls-3" x1="678.766" y1="320.997" x2="360.082" y2="137.005"/><line class="cls-3" x1="685.693" y1="316.998" x2="367.01" y2="133.005"/><line class="cls-3" x1="692.621" y1="312.998" x2="373.938" y2="129.006"/><line class="cls-3" x1="699.549" y1="308.998" x2="380.866" y2="125.006"/><line class="cls-3" x1="706.477" y1="304.998" x2="387.793" y2="121.006"/><line class="cls-3" x1="713.405" y1="300.998" x2="394.721" y2="117.006"/><line class="cls-3" x1="720.333" y1="296.998" x2="401.649" y2="113.006"/><line class="cls-3" x1="727.261" y1="292.999" x2="408.577" y2="109.007"/><line class="cls-3" x1="734.189" y1="288.999" x2="415.505" y2="105.007"/><line class="cls-3" x1="741.117" y1="284.999" x2="422.433" y2="101.007"/><line class="cls-3" x1="748.045" y1="280.999" x2="429.361" y2="97.007"/><line class="cls-3" x1="754.973" y1="276.999" x2="436.289" y2="93.007"/><line class="cls-3" x1="761.9" y1="272.999" x2="443.217" y2="89.007"/><line class="cls-3" x1="768.828" y1="269" x2="450.145" y2="85.008"/><line class="cls-3" x1="775.756" y1="265" x2="457.073" y2="81.008"/><polygon class="cls-3" points="145.317 261 464 444.992 782.684 261 464 77.008 145.317 261"/><path class="cls-4" d="M723.8,251,467.465,103.007a7.654,7.654,0,0,0-6.928,0L204.2,251a2.433,2.433,0,0,0-1.435,2v8a2.436,2.436,0,0,0,1.435,2L460.537,410.994a7.66,7.66,0,0,0,6.928,0L723.8,263a2.436,2.436,0,0,0,1.435-2v-8A2.433,2.433,0,0,0,723.8,251Z"/><g class="cls-5"><line class="cls-6" x1="152.245" y1="265" x2="470.928" y2="81.008"/><line class="cls-6" x1="159.173" y1="269" x2="477.856" y2="85.008"/><line class="cls-6" x1="166.1" y1="272.999" x2="484.784" y2="89.007"/><line class="cls-6" x1="173.028" y1="276.999" x2="491.712" y2="93.007"/><line class="cls-6" x1="179.956" y1="280.999" x2="498.64" y2="97.007"/><line class="cls-6" x1="186.884" y1="284.999" x2="505.568" y2="101.007"/><line class="cls-6" x1="193.812" y1="288.999" x2="512.496" y2="105.007"/><line class="cls-6" x1="200.74" y1="292.999" x2="519.424" y2="109.007"/><line class="cls-6" x1="207.668" y1="296.998" x2="526.352" y2="113.006"/><line class="cls-6" x1="214.596" y1="300.998" x2="533.28" y2="117.006"/><line class="cls-6" x1="221.524" y1="304.998" x2="540.207" y2="121.006"/><line class="cls-6" x1="228.452" y1="308.998" x2="547.135" y2="125.006"/><line class="cls-6" x1="235.38" y1="312.998" x2="554.063" y2="129.006"/><line class="cls-6" x1="242.307" y1="316.998" x2="560.991" y2="133.005"/><line class="cls-6" x1="249.235" y1="320.997" x2="567.919" y2="137.005"/><line class="cls-6" x1="256.163" y1="324.997" x2="574.847" y2="141.005"/><line class="cls-6" x1="263.091" y1="328.997" x2="581.775" y2="145.005"/><line class="cls-6" x1="270.019" y1="332.997" x2="588.703" y2="149.005"/><line class="cls-6" x1="276.947" y1="336.997" x2="595.631" y2="153.005"/><line class="cls-6" x1="283.875" y1="340.997" x2="602.559" y2="157.004"/><line class="cls-6" x1="290.803" y1="344.996" x2="609.486" y2="161.004"/><line class="cls-6" x1="297.731" y1="348.996" x2="616.414" y2="165.004"/><line class="cls-6" x1="304.659" y1="352.996" x2="623.342" y2="169.004"/><line class="cls-6" x1="311.587" y1="356.996" x2="630.27" y2="173.004"/><line class="cls-6" x1="318.514" y1="360.996" x2="637.198" y2="177.004"/><line class="cls-6" x1="325.442" y1="364.996" x2="644.126" y2="181.003"/><line class="cls-6" x1="332.37" y1="368.995" x2="651.054" y2="185.003"/><line class="cls-6" x1="339.298" y1="372.995" x2="657.982" y2="189.003"/><line class="cls-6" x1="346.226" y1="376.995" x2="664.91" y2="193.003"/><line class="cls-6" x1="353.154" y1="380.995" x2="671.838" y2="197.003"/><line class="cls-6" x1="360.082" y1="384.995" x2="678.766" y2="201.003"/><line class="cls-6" x1="367.01" y1="388.995" x2="685.693" y2="205.002"/><line class="cls-6" x1="373.938" y1="392.994" x2="692.621" y2="209.002"/><line class="cls-6" x1="380.866" y1="396.994" x2="699.549" y2="213.002"/><line class="cls-6" x1="387.793" y1="400.994" x2="706.477" y2="217.002"/><line class="cls-6" x1="394.721" y1="404.994" x2="713.405" y2="221.002"/><line class="cls-6" x1="401.649" y1="408.994" x2="720.333" y2="225.002"/><line class="cls-6" x1="408.577" y1="412.993" x2="727.261" y2="229.001"/><line class="cls-6" x1="415.505" y1="416.993" x2="734.189" y2="233.001"/><line class="cls-6" x1="422.433" y1="420.993" x2="741.117" y2="237.001"/><line class="cls-6" x1="429.361" y1="424.993" x2="748.045" y2="241.001"/><line class="cls-6" x1="436.289" y1="428.993" x2="754.973" y2="245.001"/><line class="cls-6" x1="443.217" y1="432.993" x2="761.9" y2="249.001"/><line class="cls-6" x1="450.145" y1="436.992" x2="768.828" y2="253"/><line class="cls-6" x1="457.073" y1="440.992" x2="775.756" y2="257"/><line class="cls-6" x1="470.928" y1="440.992" x2="152.245" y2="257"/><line class="cls-6" x1="477.856" y1="436.992" x2="159.173" y2="253"/><line class="cls-6" x1="484.784" y1="432.993" x2="166.1" y2="249.001"/><line class="cls-6" x1="491.712" y1="428.993" x2="173.028" y2="245.001"/><line class="cls-6" x1="498.64" y1="424.993" x2="179.956" y2="241.001"/><line class="cls-6" x1="505.568" y1="420.993" x2="186.884" y2="237.001"/><line class="cls-6" x1="512.496" y1="416.993" x2="193.812" y2="233.001"/><line class="cls-6" x1="519.424" y1="412.993" x2="200.74" y2="229.001"/><line class="cls-6" x1="526.352" y1="408.994" x2="207.668" y2="225.002"/><line class="cls-6" x1="533.28" y1="404.994" x2="214.596" y2="221.002"/><line class="cls-6" x1="540.207" y1="400.994" x2="221.524" y2="217.002"/><line class="cls-6" x1="547.135" y1="396.994" x2="228.452" y2="213.002"/><line class="cls-6" x1="554.063" y1="392.994" x2="235.38" y2="209.002"/><line class="cls-6" x1="560.991" y1="388.995" x2="242.307" y2="205.002"/><line class="cls-6" x1="567.919" y1="384.995" x2="249.235" y2="201.003"/><line class="cls-6" x1="574.847" y1="380.995" x2="256.163" y2="197.003"/><line class="cls-6" x1="581.775" y1="376.995" x2="263.091" y2="193.003"/><line class="cls-6" x1="588.703" y1="372.995" x2="270.019" y2="189.003"/><line class="cls-6" x1="595.631" y1="368.995" x2="276.947" y2="185.003"/><line class="cls-6" x1="602.559" y1="364.996" x2="283.875" y2="181.003"/><line class="cls-6" x1="609.486" y1="360.996" x2="290.803" y2="177.004"/><line class="cls-6" x1="616.414" y1="356.996" x2="297.731" y2="173.004"/><line class="cls-6" x1="623.342" y1="352.996" x2="304.659" y2="169.004"/><line class="cls-6" x1="630.27" y1="348.996" x2="311.587" y2="165.004"/><line class="cls-6" x1="637.198" y1="344.996" x2="318.514" y2="161.004"/><line class="cls-6" x1="644.126" y1="340.997" x2="325.442" y2="157.004"/><line class="cls-6" x1="651.054" y1="336.997" x2="332.37" y2="153.005"/><line class="cls-6" x1="657.982" y1="332.997" x2="339.298" y2="149.005"/><line class="cls-6" x1="664.91" y1="328.997" x2="346.226" y2="145.005"/><line class="cls-6" x1="671.838" y1="324.997" x2="353.154" y2="141.005"/><line class="cls-6" x1="678.766" y1="320.997" x2="360.082" y2="137.005"/><line class="cls-6" x1="685.693" y1="316.998" x2="367.01" y2="133.005"/><line class="cls-6" x1="692.621" y1="312.998" x2="373.938" y2="129.006"/><line class="cls-6" x1="699.549" y1="308.998" x2="380.866" y2="125.006"/><line class="cls-6" x1="706.477" y1="304.998" x2="387.793" y2="121.006"/><line class="cls-6" x1="713.405" y1="300.998" x2="394.721" y2="117.006"/><line class="cls-6" x1="720.333" y1="296.998" x2="401.649" y2="113.006"/><line class="cls-6" x1="727.261" y1="292.999" x2="408.577" y2="109.007"/><line class="cls-6" x1="734.189" y1="288.999" x2="415.505" y2="105.007"/><line class="cls-6" x1="741.117" y1="284.999" x2="422.433" y2="101.007"/><line class="cls-6" x1="748.045" y1="280.999" x2="429.361" y2="97.007"/><line class="cls-6" x1="754.973" y1="276.999" x2="436.289" y2="93.007"/><line class="cls-6" x1="761.9" y1="272.999" x2="443.217" y2="89.007"/><line class="cls-6" x1="768.828" y1="269" x2="450.145" y2="85.008"/><line class="cls-6" x1="775.756" y1="265" x2="457.073" y2="81.008"/><polygon class="cls-6" points="145.317 261 464 444.992 782.684 261 464 77.008 145.317 261"/></g><path d="M805.967,258.824v-2.193h-5.392v-1.183l4.672-7.792h2v7.856h1.616v1.119h-1.616v2.193Zm-4.128-3.312h4.128V248.7h-.08Z"/><path d="M819.792,257.5h-.065a3.817,3.817,0,0,1-.312.562,2.059,2.059,0,0,1-.456.491,2.13,2.13,0,0,1-.656.341,2.874,2.874,0,0,1-.9.127,2.613,2.613,0,0,1-2.032-.824,3.332,3.332,0,0,1-.752-2.328v-5.3h1.28v5.083q0,2.229,1.889,2.229a2.873,2.873,0,0,0,.743-.1,2.065,2.065,0,0,0,.64-.289,1.448,1.448,0,0,0,.448-.489,1.427,1.427,0,0,0,.169-.713v-5.725h1.279v8.256h-1.279Z"/><path d="M823.791,258.824v-8.256h1.28V251.9h.064a2.693,2.693,0,0,1,.856-1.108,2.417,2.417,0,0,1,1.48-.412,2.592,2.592,0,0,1,2.024.824,3.354,3.354,0,0,1,.744,2.328v5.3h-1.28v-5.083q0-2.229-1.872-2.229a2.919,2.919,0,0,0-.744.1,2.141,2.141,0,0,0-.648.289,1.428,1.428,0,0,0-.456.488,1.4,1.4,0,0,0-.168.7v5.74Z"/><path d="M833.519,248.631a.784.784,0,0,1-.6-.2.736.736,0,0,1-.184-.52V247.7a.736.736,0,0,1,.184-.52,1,1,0,0,1,1.2,0,.736.736,0,0,1,.184.52v.208a.736.736,0,0,1-.184.52A.784.784,0,0,1,833.519,248.631Zm-.64,1.937h1.28v8.256h-1.28Z"/><path d="M838.7,258.824a1.312,1.312,0,0,1-1.016-.375,1.4,1.4,0,0,1-.344-.983V251.7h-1.36v-1.136h.768a.752.752,0,0,0,.568-.168.875.875,0,0,0,.152-.584V248.28h1.152v2.288h1.808V251.7h-1.808v5.984h1.68v1.136Z"/><path d="M844.975,259.016a3.864,3.864,0,0,1-1.928-.44,4.379,4.379,0,0,1-1.336-1.176l.912-.736a3.6,3.6,0,0,0,1.072.936,2.786,2.786,0,0,0,1.376.327,2.042,2.042,0,0,0,1.272-.351,1.28,1.28,0,0,0,.144-1.817,1.916,1.916,0,0,0-1.128-.471l-.656-.1a5.524,5.524,0,0,1-1.056-.248,2.952,2.952,0,0,1-.84-.448,1.916,1.916,0,0,1-.56-.7,2.252,2.252,0,0,1-.2-.991,2.375,2.375,0,0,1,.224-1.064,2.127,2.127,0,0,1,.616-.76,2.69,2.69,0,0,1,.936-.456,4.3,4.3,0,0,1,1.168-.152,3.656,3.656,0,0,1,1.688.352,3.8,3.8,0,0,1,1.192.976l-.848.768a2.54,2.54,0,0,0-.8-.7,2.577,2.577,0,0,0-1.328-.312,1.834,1.834,0,0,0-1.208.344,1.16,1.16,0,0,0-.408.936.98.98,0,0,0,.408.88,3.048,3.048,0,0,0,1.176.4l.64.1a3.432,3.432,0,0,1,1.952.792,2.081,2.081,0,0,1,.576,1.528,2.337,2.337,0,0,1-.816,1.888A3.366,3.366,0,0,1,844.975,259.016Z"/><path d="M808.5,314.822h-7.328v-1.376l3.648-3.361a8.025,8.025,0,0,0,1.312-1.532,2.961,2.961,0,0,0,.528-1.629v-.192a2.2,2.2,0,0,0-.512-1.509,1.966,1.966,0,0,0-1.552-.577,2.572,2.572,0,0,0-.9.143,2.043,2.043,0,0,0-.664.4,2.259,2.259,0,0,0-.464.6,3.686,3.686,0,0,0-.3.745l-1.2-.464a4.812,4.812,0,0,1,.44-.968,3.243,3.243,0,0,1,1.728-1.419,4.571,4.571,0,0,1,2.872.019,2.866,2.866,0,0,1,1.736,1.694,3.557,3.557,0,0,1,.232,1.311,3.887,3.887,0,0,1-.183,1.215,4.821,4.821,0,0,1-.5,1.064,6.487,6.487,0,0,1-.776.983q-.455.478-.984.959l-3.008,2.71H808.5Z"/><path d="M819.792,313.493h-.065a3.817,3.817,0,0,1-.312.562,2.059,2.059,0,0,1-.456.491,2.13,2.13,0,0,1-.656.341,2.874,2.874,0,0,1-.9.127,2.613,2.613,0,0,1-2.032-.824,3.332,3.332,0,0,1-.752-2.328v-5.3h1.28v5.083q0,2.229,1.889,2.228a2.872,2.872,0,0,0,.743-.1,2.088,2.088,0,0,0,.64-.289,1.448,1.448,0,0,0,.448-.489,1.428,1.428,0,0,0,.169-.714v-5.724h1.279v8.256h-1.279Z"/><path d="M823.791,314.822v-8.256h1.28v1.328h.064a2.693,2.693,0,0,1,.856-1.108,2.417,2.417,0,0,1,1.48-.413,2.593,2.593,0,0,1,2.024.825,3.352,3.352,0,0,1,.744,2.328v5.3h-1.28v-5.083q0-2.23-1.872-2.229a2.875,2.875,0,0,0-.744.1,2.141,2.141,0,0,0-.648.289,1.428,1.428,0,0,0-.456.488,1.4,1.4,0,0,0-.168.7v5.741Z"/><path d="M833.519,304.629a.784.784,0,0,1-.6-.2.738.738,0,0,1-.184-.52V303.7a.736.736,0,0,1,.184-.52,1,1,0,0,1,1.2,0,.736.736,0,0,1,.184.52v.208a.738.738,0,0,1-.184.52A.784.784,0,0,1,833.519,304.629Zm-.64,1.937h1.28v8.256h-1.28Z"/><path d="M838.7,314.822a1.312,1.312,0,0,1-1.016-.375,1.4,1.4,0,0,1-.344-.983V307.7h-1.36v-1.136h.768a.752.752,0,0,0,.568-.168.875.875,0,0,0,.152-.584v-1.536h1.152v2.288h1.808V307.7h-1.808v5.984h1.68v1.136Z"/><path d="M844.975,315.014a3.864,3.864,0,0,1-1.928-.44,4.379,4.379,0,0,1-1.336-1.176l.912-.736a3.6,3.6,0,0,0,1.072.936,2.786,2.786,0,0,0,1.376.327,2.042,2.042,0,0,0,1.272-.351,1.28,1.28,0,0,0,.144-1.817,1.91,1.91,0,0,0-1.128-.471l-.656-.1a5.524,5.524,0,0,1-1.056-.248,2.977,2.977,0,0,1-.84-.448,1.916,1.916,0,0,1-.56-.7,2.252,2.252,0,0,1-.2-.991,2.375,2.375,0,0,1,.224-1.064,2.127,2.127,0,0,1,.616-.76,2.672,2.672,0,0,1,.936-.456,4.294,4.294,0,0,1,1.168-.153,3.655,3.655,0,0,1,1.688.353,3.786,3.786,0,0,1,1.192.976l-.848.768a2.54,2.54,0,0,0-.8-.7,2.577,2.577,0,0,0-1.328-.313,1.834,1.834,0,0,0-1.208.345,1.16,1.16,0,0,0-.408.936.977.977,0,0,0,.408.879,3.03,3.03,0,0,0,1.176.4l.64.1a3.432,3.432,0,0,1,1.952.792,2.081,2.081,0,0,1,.576,1.528,2.337,2.337,0,0,1-.816,1.888A3.366,3.366,0,0,1,844.975,315.014Z"/><path d="M804.767,407.01a3.161,3.161,0,0,1-2.92-1.52,10.3,10.3,0,0,1,0-8.512,3.564,3.564,0,0,1,5.841,0,10.315,10.315,0,0,1,0,8.512A3.163,3.163,0,0,1,804.767,407.01Zm0-1.184a2.179,2.179,0,0,0,1.12-.271,2.071,2.071,0,0,0,.752-.766,3.773,3.773,0,0,0,.424-1.164,7.432,7.432,0,0,0,.136-1.482v-1.818a7.443,7.443,0,0,0-.136-1.483,3.792,3.792,0,0,0-.424-1.164,2.079,2.079,0,0,0-.752-.766,2.458,2.458,0,0,0-2.24,0,2.076,2.076,0,0,0-.751.766,3.793,3.793,0,0,0-.425,1.164,7.443,7.443,0,0,0-.136,1.483v1.818a7.432,7.432,0,0,0,.136,1.482,3.773,3.773,0,0,0,.425,1.164,2.069,2.069,0,0,0,.751.766A2.184,2.184,0,0,0,804.767,405.826Z"/><path d="M811.743,407.01a.856.856,0,0,1-.976-.929v-.208a.977.977,0,1,1,1.952,0v.208a.856.856,0,0,1-.976.929Z"/><path d="M821.887,396.833h-4.9l-.32,4.257h.112a3.476,3.476,0,0,1,.9-.9,2.47,2.47,0,0,1,1.384-.336,3.584,3.584,0,0,1,1.328.24,3.139,3.139,0,0,1,1.056.68,3.04,3.04,0,0,1,.7,1.08,4.015,4.015,0,0,1,.248,1.456,4.228,4.228,0,0,1-.256,1.5,3.255,3.255,0,0,1-.744,1.168,3.421,3.421,0,0,1-1.184.76,4.308,4.308,0,0,1-1.576.272,4.4,4.4,0,0,1-1.24-.158,3.666,3.666,0,0,1-.952-.426,3.877,3.877,0,0,1-.728-.6,6.108,6.108,0,0,1-.568-.7l1.008-.767a4.808,4.808,0,0,0,.44.607,2.576,2.576,0,0,0,.512.465,2.177,2.177,0,0,0,.648.3,3.272,3.272,0,0,0,.88.1,2.326,2.326,0,0,0,1.744-.61,2.368,2.368,0,0,0,.592-1.718v-.161a2.371,2.371,0,0,0-.592-1.718,2.325,2.325,0,0,0-1.744-.609,2.243,2.243,0,0,0-1.208.279,4.006,4.006,0,0,0-.792.664l-1.136-.16.4-6.143h5.984Z"/><path d="M833.743,405.489h-.065a3.817,3.817,0,0,1-.312.562,2.055,2.055,0,0,1-.455.491,2.147,2.147,0,0,1-.657.341,2.869,2.869,0,0,1-.9.127,2.611,2.611,0,0,1-2.031-.824,3.328,3.328,0,0,1-.753-2.328v-5.3h1.28v5.083q0,2.229,1.889,2.228a2.861,2.861,0,0,0,.743-.095,2.054,2.054,0,0,0,.64-.289,1.448,1.448,0,0,0,.448-.489,1.418,1.418,0,0,0,.169-.714v-5.724h1.279v8.256h-1.279Z"/><path d="M837.742,406.818v-8.256h1.28v1.328h.064a2.693,2.693,0,0,1,.856-1.108,2.419,2.419,0,0,1,1.48-.413,2.593,2.593,0,0,1,2.024.825,3.354,3.354,0,0,1,.744,2.328v5.3h-1.28v-5.083q0-2.231-1.872-2.229a2.875,2.875,0,0,0-.744.1,2.141,2.141,0,0,0-.648.289,1.428,1.428,0,0,0-.456.488,1.4,1.4,0,0,0-.168.7v5.741Z"/><path d="M847.47,396.625a.784.784,0,0,1-.6-.2.743.743,0,0,1-.184-.52V395.7a.741.741,0,0,1,.184-.52,1,1,0,0,1,1.2,0,.736.736,0,0,1,.184.52v.208a.738.738,0,0,1-.184.52A.783.783,0,0,1,847.47,396.625Zm-.64,1.937h1.28v8.256h-1.28Z"/><path d="M852.654,406.818a1.312,1.312,0,0,1-1.016-.375,1.4,1.4,0,0,1-.344-.983V399.7h-1.36v-1.136h.768a.752.752,0,0,0,.568-.168.869.869,0,0,0,.152-.584v-1.536h1.152v2.288h1.808V399.7h-1.808v5.984h1.68v1.136Z"/><path d="M858.926,407.01a3.86,3.86,0,0,1-1.927-.44,4.379,4.379,0,0,1-1.336-1.176l.911-.736a3.607,3.607,0,0,0,1.072.936,2.792,2.792,0,0,0,1.376.327,2.042,2.042,0,0,0,1.272-.351,1.28,1.28,0,0,0,.144-1.817,1.916,1.916,0,0,0-1.127-.471l-.657-.1a5.513,5.513,0,0,1-1.055-.248,2.958,2.958,0,0,1-.841-.448,1.937,1.937,0,0,1-.56-.7,2.266,2.266,0,0,1-.2-.991,2.375,2.375,0,0,1,.224-1.064,2.135,2.135,0,0,1,.615-.76,2.689,2.689,0,0,1,.936-.456,4.3,4.3,0,0,1,1.168-.153,3.653,3.653,0,0,1,1.688.353,3.775,3.775,0,0,1,1.192.976l-.847.768a2.544,2.544,0,0,0-.8-.7,2.574,2.574,0,0,0-1.328-.313,1.838,1.838,0,0,0-1.208.345,1.16,1.16,0,0,0-.408.936.98.98,0,0,0,.408.88,3.054,3.054,0,0,0,1.176.4l.641.1a3.428,3.428,0,0,1,1.951.792,2.077,2.077,0,0,1,.576,1.528,2.339,2.339,0,0,1-.815,1.888A3.369,3.369,0,0,1,858.926,407.01Z"/><path d="M801.375,362.82v-1.184h3.12v-8.992h-.112l-2.816,2.624-.784-.849,2.96-2.767h2.1v9.984h2.88v1.184Z"/><path d="M819.792,361.491h-.065a3.869,3.869,0,0,1-.312.562,2.059,2.059,0,0,1-.456.491,2.13,2.13,0,0,1-.656.341,2.874,2.874,0,0,1-.9.127,2.613,2.613,0,0,1-2.032-.824,3.332,3.332,0,0,1-.752-2.328v-5.3h1.28v5.083q0,2.229,1.889,2.228a2.872,2.872,0,0,0,.743-.1,2.088,2.088,0,0,0,.64-.289,1.458,1.458,0,0,0,.448-.489,1.428,1.428,0,0,0,.169-.714v-5.724h1.279v8.256h-1.279Z"/><path d="M823.791,362.82v-8.256h1.28v1.328h.064a2.7,2.7,0,0,1,.856-1.109,2.424,2.424,0,0,1,1.48-.412,2.593,2.593,0,0,1,2.024.825,3.352,3.352,0,0,1,.744,2.328v5.3h-1.28v-5.083q0-2.231-1.872-2.229a2.875,2.875,0,0,0-.744.1,2.141,2.141,0,0,0-.648.289,1.428,1.428,0,0,0-.456.488,1.4,1.4,0,0,0-.168.7v5.741Z"/><path d="M833.519,352.627a.784.784,0,0,1-.6-.2.738.738,0,0,1-.184-.52V351.7a.735.735,0,0,1,.184-.519,1,1,0,0,1,1.2,0,.735.735,0,0,1,.184.519v.209a.738.738,0,0,1-.184.52A.784.784,0,0,1,833.519,352.627Zm-.64,1.937h1.28v8.256h-1.28Z"/><path d="M838.7,362.82a1.312,1.312,0,0,1-1.016-.375,1.4,1.4,0,0,1-.344-.983V355.7h-1.36v-1.135h.768a.752.752,0,0,0,.568-.168.877.877,0,0,0,.152-.584v-1.536h1.152v2.288h1.808V355.7h-1.808v5.985h1.68v1.136Z"/><path class="cls-7" d="M464,183.376c10.3,0,19.959,2.306,27.212,6.493l41.568,24c7.079,4.088,10.978,9.462,10.978,15.134s-3.9,11.046-10.978,15.133l-41.568,24c-7.252,4.188-16.916,6.493-27.212,6.493s-19.959-2.3-27.211-6.493l-41.568-24c-7.079-4.087-10.978-9.462-10.978-15.133s3.9-11.046,10.978-15.134l41.567-24c7.253-4.187,16.917-6.493,27.212-6.493m0-1c-10.03,0-20.059,2.209-27.712,6.627l-41.567,24c-15.3,8.837-15.3,23.163,0,32l41.568,24c7.652,4.418,17.682,6.627,27.711,6.627s20.06-2.209,27.712-6.627l41.568-24c15.3-8.836,15.3-23.162,0-32l-41.568-24c-7.653-4.418-17.682-6.627-27.712-6.627Z"/><path class="cls-7" d="M464,154.691a27.171,27.171,0,0,1,13.356,3.179l124.7,72c3.378,1.951,5.239,4.484,5.239,7.134s-1.861,5.183-5.239,7.134l-124.7,72a29.646,29.646,0,0,1-26.712,0l-124.7-72c-3.378-1.951-5.239-4.484-5.239-7.134s1.861-5.183,5.239-7.134l124.7-72A27.171,27.171,0,0,1,464,154.691m0-1A28.323,28.323,0,0,0,450.145,157l-124.7,72c-7.652,4.418-7.652,11.582,0,16l124.7,72a30.632,30.632,0,0,0,27.712,0l124.7-72c7.652-4.418,7.652-11.582,0-16l-124.7-72A28.323,28.323,0,0,0,464,153.691Z"/><path class="cls-7" d="M464,128.349a13.08,13.08,0,0,1,6.428,1.523L664.41,241.867c1.528.883,2.369,2,2.369,3.134s-.841,2.252-2.369,3.134l-193.981,112a14.327,14.327,0,0,1-12.856,0L263.591,248.135c-1.528-.882-2.369-2-2.369-3.134s.841-2.251,2.369-3.134L457.573,129.872A13.08,13.08,0,0,1,464,128.349m0-1a14.158,14.158,0,0,0-6.928,1.657L263.091,241c-3.826,2.209-3.826,5.791,0,8L457.073,361a15.312,15.312,0,0,0,13.856,0L664.91,249c3.826-2.209,3.826-5.791,0-8L470.929,129.006A14.158,14.158,0,0,0,464,127.349Z"/><path class="cls-7" d="M464,103.178a6.116,6.116,0,0,1,2.964.7L723.3,251.867c.594.343.935.756.935,1.133s-.341.792-.935,1.135L466.965,402.128a6.676,6.676,0,0,1-5.928,0L204.7,254.135c-.594-.343-.935-.757-.935-1.135s.341-.79.935-1.133L461.037,103.873a6.116,6.116,0,0,1,2.964-.7m0-1a7.082,7.082,0,0,0-3.464.829L204.2,251c-1.913,1.1-1.913,2.895,0,4L460.537,402.994a7.66,7.66,0,0,0,6.928,0L723.8,255c1.913-1.105,1.913-2.9,0-4L467.465,103.007a7.085,7.085,0,0,0-3.464-.829Z"/><path class="cls-8" d="M667.779,245c0,1.447-.956,2.895-2.869,4L470.929,361a15.314,15.314,0,0,1-13.856,0L263.091,249c-1.913-1.105-2.87-2.553-2.869-4v8c0,1.447.956,2.895,2.869,4L457.073,369a15.314,15.314,0,0,0,13.856,0L664.91,257c1.913-1.1,2.87-2.553,2.869-4Z"/><path class="cls-9" d="M608.3,237c0,2.895-1.914,5.79-5.739,8l-124.7,72c-7.653,4.418-20.06,4.418-27.712,0l-124.7-72c-3.825-2.209-5.739-5.1-5.739-8v8c0,2.895,1.914,5.79,5.739,8l124.7,72c7.652,4.418,20.059,4.418,27.712,0l124.7-72c3.825-2.209,5.738-5.1,5.739-8Z"/><path class="cls-10" d="M544.758,229c0,5.791-3.826,11.582-11.478,16l-41.568,24c-15.305,8.836-40.118,8.836-55.423,0l-41.568-24c-7.652-4.418-11.478-10.209-11.478-16v8c0,5.791,3.826,11.582,11.478,16l41.568,24c15.305,8.836,40.118,8.836,55.423,0l41.568-24c7.652-4.418,11.478-10.209,11.478-16Z"/><path class="cls-11" d="M723.8,255,467.465,402.994a7.66,7.66,0,0,1-6.928,0L204.2,255a2.436,2.436,0,0,1-1.435-2v8a2.436,2.436,0,0,0,1.435,2L460.537,410.994a7.66,7.66,0,0,0,6.928,0L723.8,263a2.436,2.436,0,0,0,1.435-2v-8A2.437,2.437,0,0,1,723.8,255Z"/><line class="cls-12" x1="502.821" y1="253" x2="791.593" y2="253"/><line class="cls-12" x1="483.596" y1="308.998" x2="791.963" y2="308.998"/><line class="cls-12" x1="473.798" y1="356.996" x2="791.963" y2="356.996"/><line class="cls-12" x1="468.9" y1="400.994" x2="791.963" y2="400.994"/><polygon class="cls-1" points="464.001 348.996 477.857 356.996 464.001 364.996 450.145 356.996 464.001 348.996"/><path class="cls-13" d="M464,352.339a13.08,13.08,0,0,1,6.428,1.523c1.528.882,2.369,2,2.369,3.134s-.841,2.251-2.369,3.134a14.327,14.327,0,0,1-12.856,0c-1.528-.883-2.37-2-2.37-3.134s.842-2.252,2.37-3.134A13.08,13.08,0,0,1,464,352.339m0-1A14.169,14.169,0,0,0,457.073,353c-3.826,2.209-3.826,5.791,0,8a15.312,15.312,0,0,0,13.856,0c3.826-2.209,3.826-5.791,0-8A14.169,14.169,0,0,0,464,351.339Z"/><polygon class="cls-1" points="464.001 396.994 470.929 400.994 464.001 404.994 457.073 400.994 464.001 396.994"/><path class="cls-13" d="M464,399.166a6.127,6.127,0,0,1,2.964.694c.594.343.935.756.935,1.134s-.341.791-.935,1.134a6.676,6.676,0,0,1-5.928,0c-.594-.343-.935-.756-.935-1.134s.341-.791.935-1.134a6.127,6.127,0,0,1,2.964-.694m0-1a7.081,7.081,0,0,0-3.464.828c-1.913,1.1-1.913,2.895,0,4a7.66,7.66,0,0,0,6.928,0c1.913-1.105,1.913-2.9,0-4a7.084,7.084,0,0,0-3.464-.828Z"/><polygon class="cls-1" points="464.001 292.999 491.713 308.998 464.001 324.997 436.289 308.998 464.001 292.999"/><path class="cls-13" d="M464,298.685a27.171,27.171,0,0,1,13.356,3.179c3.378,1.951,5.239,4.484,5.239,7.134s-1.861,5.183-5.239,7.134a29.646,29.646,0,0,1-26.712,0c-3.379-1.951-5.239-4.485-5.239-7.134s1.86-5.183,5.239-7.134A27.171,27.171,0,0,1,464,298.685m0-1A28.323,28.323,0,0,0,450.145,301c-7.652,4.418-7.652,11.582,0,16a30.632,30.632,0,0,0,27.712,0c7.652-4.418,7.652-11.582,0-16A28.323,28.323,0,0,0,464,297.685Z"/><polygon class="cls-1" points="464 221.002 519.424 253 464 284.999 408.577 253 464 221.002"/><path class="cls-13" d="M464,231.374c10.3,0,19.96,2.306,27.212,6.493,7.08,4.087,10.979,9.462,10.979,15.133s-3.9,11.046-10.979,15.134c-7.252,4.187-16.916,6.493-27.212,6.493s-19.959-2.306-27.211-6.493c-7.08-4.088-10.979-9.462-10.979-15.134s3.9-11.046,10.979-15.133c7.252-4.187,16.916-6.493,27.211-6.493m0-1c-10.029,0-20.059,2.209-27.711,6.627-15.305,8.836-15.305,23.162,0,32,7.652,4.417,17.682,6.627,27.711,6.627s20.06-2.21,27.712-6.627c15.305-8.837,15.305-23.163,0-32-7.652-4.418-17.682-6.627-27.712-6.627Z"/></g></svg>