<svg xmlns="http://www.w3.org/2000/svg" viewBox="0 0 288 288"><defs><style>.cls-1,.cls-4{fill:#fff;}.cls-2,.cls-3{fill:none;stroke-linejoin:round;}.cls-2{stroke:#e0e0e0;}.cls-2,.cls-3,.cls-4{stroke-width:2px;}.cls-3,.cls-4{stroke:#d12771;}.cls-4{stroke-miterlimit:10;}</style></defs><title>Artboard 2 copy 16_Export</title><g id="Layer_3" data-name="Layer 3"><rect class="cls-1" width="288" height="288"/><polyline class="cls-2" points="52.351 298.329 52.351 56.405 471.226 298.243"/><path class="cls-2" d="M471.378,540.168c0-133.564-93.769-295.977-209.439-362.759S52.5,164.765,52.5,298.329"/><line class="cls-2" x1="52.351" y1="56.405" x2="113.768" y2="162.784"/><polyline class="cls-2" points="104.711 298.329 104.711 26.175 523.586 268.013"/><path class="cls-2" d="M523.738,509.938c0-133.564-93.769-295.977-209.438-362.759S104.861,134.535,104.861,268.1"/><line class="cls-2" x1="104.711" y1="26.175" x2="166.129" y2="132.554"/><line class="cls-3" x1="113.768" y1="162.784" x2="200.729" y2="313.404"/><line class="cls-3" x1="166.129" y1="132.554" x2="270.528" y2="313.379"/><line class="cls-3" x1="113.768" y1="162.784" x2="166.129" y2="132.554"/><rect class="cls-4" x="109.844" y="158.74" width="8" height="8"/><rect class="cls-4" x="162.129" y="128.554" width="8" height="8"/></g></svg>