<svg version="1.1" id="Layer_1" xmlns="http://www.w3.org/2000/svg" x="0" y="0" viewBox="0 0 448 448" xml:space="preserve"><style>.st3,.st4{fill:none;stroke:#6ea2ff;stroke-miterlimit:10;stroke-width:.25}.st4{stroke:#f675a2}.st6{fill:#888}</style><path fill="#fff" d="M0 0h448v448H0z"/><path d="M32.6 128.3v191.5h383.5V128.3H32.6zm368 176H47.8V143.7h352.8v160.6z" fill="#e9f0ff"/><path d="M32.3 143.7H416M32.3 304.3H416m-15.4 15.5V128.2M47.8 319.8V128.2M136 319.8V128.3M91.9 319.8V128.3m88.2 191.5V128.3m88.2 191.5V128.3m88.2 191.5V128.3m-44.1 191.5V128.3m-88.2 176V143.7M32.6 128.2h383.5v191.6H32.6z" fill="none" stroke="#6ea2ff" stroke-miterlimit="10"/><path class="st3" d="M400.6 149.9H47.8"/><path class="st4" d="M400.6 156H47.8"/><path class="st3" d="M400.6 162.2H47.8m352.8 6.2H47.8m352.8 6.2H47.8m352.8 6.1H47.8m352.8 6.2H47.8m352.8 6.2H47.8m352.8 6.2H47.8m352.8 6.2H47.8m352.8 6.1H47.8m352.8 6.2H47.8"/><path class="st4" d="M400.6 224H47.8"/><path class="st3" d="M400.6 230.2H47.8m352.8 6.2H47.8m352.8 6.1H47.8m352.8 6.2H47.8m352.8 6.2H47.8m352.8 6.2H47.8m352.8 6.2H47.8m352.8 6.1H47.8m352.8 6.2H47.8m352.8 6.2H47.8m352.8 6.2H47.8m352.8 6.2H47.8"/><path d="M32.3 216.3H40v7.7h-7.7zM40 224h7.7v7.7H40zm360.6-7.7h7.7v7.7h-7.7zm7.7 7.7h7.7v7.7h-7.7zm-192-95.7h7.7v7.7h-7.7zm7.7 7.7h7.7v7.7H224zm-7.7 168.3h7.7v7.7h-7.7zm7.7 7.7h7.7v7.7H224z" fill="#6ea2ff"/><path class="st6" d="M55.2 143.8v9c-.1 1.9-1.7 3.4-3.6 3.4-1.6-.1-2.9-1.2-3.3-2.8l1.3-.3c.1 1.1 1 1.8 2.1 1.8 1.3 0 2-.8 2-2.3v-7.5h-4.2v-1.3h5.7zm2.3 7.7c0-2.9 1.7-4.7 4.1-4.7s4.1 1.9 4.1 4.7-1.7 4.7-4.1 4.7-4.1-1.8-4.1-4.7zm6.7.7v-1.3c0-1.9-1.1-2.8-2.6-2.8s-2.6.9-2.6 2.8v1.3c0 1.9 1.1 2.8 2.6 2.8s2.6-.9 2.6-2.8zm3.6-8.1v-.2c0-.5.3-.8.8-.8s.9.3.9.8v.2c0 .5-.3.8-.9.8-.4.1-.8-.2-.8-.6v-.2zm.2 2.9h1.4v9H68v-9zm4.4 9v-9h1.4v1.5h.1c.4-1.1 1.4-1.7 2.6-1.7 1.9 0 3 1.3 3 3.4v5.8H78v-5.6c0-1.6-.7-2.4-2.1-2.4-1.1 0-2.2.6-2.2 1.7v6.3h-1.3zm16 0c-.8.1-1.4-.5-1.5-1.3v-6.5h-1.5V147h.8c.6 0 .8-.2.8-.8v-1.7h1.3v2.5h2v1.2h-2v6.6h1.8v1.2h-1.7zm4.2-12.9H94v5.4c.4-1.1 1.4-1.7 2.6-1.7 1.8 0 3 1.3 3 3.4v5.8h-1.4v-5.6c0-1.6-.7-2.4-2-2.4-1.1 0-2.2.6-2.2 1.7v6.3h-1.4v-12.9zm9.2 8.4c0-2.9 1.6-4.7 4.1-4.7s3.9 1.9 3.9 4.4v.7h-6.5v.4c-.1 1.4 1 2.6 2.4 2.7h.3c1.1 0 2.1-.6 2.5-1.5l1 .7c-.7 1.3-2.1 2.1-3.6 2.1-2.5-.1-4.1-1.9-4.1-4.8zm1.5-.8v.1h5v-.2c.1-1.3-.8-2.5-2.1-2.6h-.3c-1.4 0-2.6 1.1-2.6 2.5v.2zm12.9-3.7h1.4v1.5h.1c.4-1.1 1.5-1.8 2.6-1.7 2.3 0 3.7 1.8 3.7 4.7 0 2.9-1.4 4.7-3.7 4.7-1.1.1-2.2-.6-2.6-1.7h-.1v5h-1.4V147zm6.3 5.3v-1.5c.1-1.4-.9-2.6-2.2-2.7h-.3c-1.3 0-2.3.7-2.3 1.7v3.4c0 1.2 1 1.8 2.3 1.8 1.4.1 2.5-1 2.6-2.4-.1-.1-.1-.2-.1-.3zm3.9 3.7v-9h1.4v1.7h.1c.4-1.1 1.5-1.7 2.6-1.7h.5v1.4h-.8c-1.5 0-2.4.6-2.4 1.5v6.1h-1.4zm5.7-4.5c0-2.9 1.6-4.7 4.1-4.7s3.9 1.9 3.9 4.4v.7h-6.5v.4c-.1 1.4 1 2.6 2.4 2.7h.3c1.1 0 2-.6 2.5-1.5l1 .7c-.7 1.3-2.1 2.1-3.6 2.1-2.5-.1-4.1-1.9-4.1-4.8zm1.4-.8v.1h5v-.2c.1-1.3-.8-2.5-2.1-2.6h-.3c-1.4 0-2.6 1.1-2.6 2.5v.2zm8.8 5.3v-9h1.4v1.5h.1c.3-1 1.3-1.7 2.4-1.7 1.2-.1 2.3.6 2.8 1.8.4-1.2 1.5-1.9 2.8-1.8 1.8 0 2.9 1.3 2.9 3.4v5.8h-1.4v-5.5c0-1.6-.6-2.4-2-2.4-1.1 0-2.1.6-2.1 1.7v6.3h-1.4v-5.6c0-1.6-.6-2.4-2-2.4-1.1 0-2.1.6-2.1 1.7v6.3h-1.4zm15.2-11.9v-.2c0-.5.3-.8.9-.8s.9.3.9.8v.2c0 .4-.3.8-.7.8h-.2c-.7 0-.9-.3-.9-.8zm.1 2.9h1.4v9h-1.4v-9zm3.7 4.5c0-2.9 1.6-4.7 4.1-4.7s3.9 1.9 3.9 4.4v.7h-6.5v.4c-.1 1.4 1 2.6 2.4 2.7h.3c1.1 0 2-.6 2.5-1.5l1 .7c-.7 1.3-2.1 2.1-3.6 2.1-2.5-.1-4.1-1.9-4.1-4.8zm1.5-.8v.1h5v-.2c.1-1.3-.8-2.5-2.1-2.6h-.3c-1.4 0-2.6 1.1-2.6 2.5v.2zm8.8 5.3v-9h1.4v1.7h.1c.4-1.1 1.5-1.7 2.6-1.7h.5v1.4h-.8c-1.5 0-2.4.6-2.4 1.5v6.1h-1.4zm5.7-4.5c0-2.9 1.6-4.7 4.1-4.7s3.9 1.9 3.9 4.4v.7h-6.5v.4c-.1 1.4 1 2.6 2.4 2.7h.3c1.1 0 2-.6 2.5-1.5l1 .7c-.7 1.3-2.1 2.1-3.6 2.1-2.5-.1-4.1-1.9-4.1-4.8zm1.4-.8v.1h5v-.2c.1-1.3-.8-2.5-2.1-2.6h-.3c-1.4 0-2.6 1.1-2.6 2.5v.2zM48.6 174.1c0-2.9 1.5-4.7 4-4.7 1.5-.1 2.9.7 3.4 2.1l-1.2.6c-.3-.9-1.2-1.5-2.2-1.5-1.3-.1-2.5 1-2.5 2.3v1.9c-.2 1.3.8 2.5 2.1 2.7h.4c1.1 0 2-.6 2.5-1.6l1 .7c-.6 1.4-2 2.2-3.5 2.1-2.5.1-4-1.7-4-4.6zm8.7 0c0-2.9 1.7-4.7 4.1-4.7s4.1 1.9 4.1 4.7-1.7 4.7-4.1 4.7-4.1-1.8-4.1-4.7zm6.6.7v-1.3c0-1.9-1.1-2.8-2.6-2.8s-2.6.9-2.6 2.8v1.3c0 1.9 1.1 2.8 2.6 2.8s2.6-.9 2.6-2.8zm7.1 7.5c-2.8 0-4-.8-4-2.2 0-.9.6-1.6 1.4-1.8v-.2c-.5-.2-.8-.7-.8-1.3 0-.9.7-1.3 1.6-1.6v-.1c-1.1-.5-1.7-1.6-1.7-2.8 0-1.7 1.4-3.1 3.1-3.1h.3c.6 0 1.2.1 1.7.4v-.2c0-.7.3-1.2 1-1.2H75v1.2h-1.7v.6c.7.6 1 1.4 1 2.3 0 1.7-1.4 3.1-3.1 3.1h-.3c-.3 0-.6 0-.9-.1-.6.2-1.2.5-1.2 1s.6.7 1.4.7h1.9c2.2 0 3.2.9 3.2 2.4.1 2.1-1.4 2.9-4.3 2.9zm1.2-3.8h-3c-.5.2-.9.7-.8 1.2 0 .8.6 1.4 2 1.4h1.3c1.6 0 2.5-.5 2.5-1.5-.1-.6-.6-1-2-1.1zm.7-5.7v-.5c0-1.2-.8-1.8-2-1.8s-1.9.6-1.9 1.8v.5c0 1.2.8 1.8 1.9 1.8s2-.7 2-1.8zm4.1 5.8v-9h1.4v1.5h.1c.4-1.1 1.4-1.8 2.5-1.7 1.9 0 3 1.3 3 3.4v5.8h-1.4V173c0-1.6-.7-2.4-2.1-2.4-1.1 0-2.2.6-2.2 1.7v6.3H77zm9.8-11.9v-.2c0-.5.3-.8.9-.8s.8.3.8.8v.2c0 .4-.3.8-.7.8h-.2c-.6 0-.8-.3-.8-.8zm.1 2.9h1.4v9h-1.4v-9zm6.4 9c-.8.1-1.4-.5-1.5-1.3v-6.5h-1.5v-1.2h.8c.6 0 .8-.2.8-.8v-1.7h1.3v2.5h2v1.2h-2v6.6H95v1.2h-1.7zm4-11.9v-.2c0-.5.3-.8.8-.8s.9.3.9.8v.2c0 .5-.3.8-.9.8-.4.1-.8-.2-.8-.6v-.2zm.2 2.9h1.4v9h-1.4v-9zm6.3 9l-3.2-9h1.4l1.6 4.5 1 3.1h.1l1-3.1 1.6-4.5h1.3l-3.2 9h-1.6zm5.8-4.5c0-2.9 1.6-4.7 4.1-4.7s3.9 1.9 3.9 4.4v.7h-6.5v.4c-.1 1.4 1 2.6 2.4 2.7h.3c1.1 0 2.1-.6 2.5-1.6l1 .7c-.7 1.3-2.1 2.2-3.6 2.1-2.5 0-4.1-1.8-4.1-4.7zm1.5-.8v.1h5v-.2c.1-1.3-.8-2.5-2.1-2.6h-.3c-1.4 0-2.6 1.1-2.6 2.5v.2zm12.3.8c0-2.9 1.5-4.7 4-4.7 1.5-.1 2.8.7 3.4 2.1l-1.2.6c-.3-.9-1.2-1.5-2.2-1.5-1.3-.1-2.5 1-2.5 2.3v1.9c-.2 1.3.8 2.5 2.1 2.7h.4c1.1 0 2-.6 2.5-1.6l1 .7c-.6 1.4-2 2.2-3.5 2.1-2.5.1-4-1.7-4-4.6zm8.7 0c0-2.9 1.7-4.7 4.1-4.7s4.1 1.9 4.1 4.7-1.7 4.7-4.1 4.7-4.1-1.8-4.1-4.7zm6.6.7v-1.3c0-1.9-1.1-2.8-2.6-2.8s-2.6.9-2.6 2.8v1.3c0 1.9 1.1 2.8 2.6 2.8s2.6-.9 2.6-2.8zm3.8 3.8v-9h1.4v1.5h.1c.3-1 1.3-1.7 2.4-1.7 1.2-.1 2.3.7 2.8 1.8.4-1.2 1.5-1.9 2.7-1.8 1.8 0 2.9 1.3 2.9 3.4v5.8h-1.4V173c0-1.6-.6-2.4-2-2.4-1.1 0-2.1.6-2.1 1.7v6.3H148V173c0-1.6-.6-2.4-1.9-2.4-1.1 0-2.2.6-2.2 1.7v6.3h-1.4zm15.3 0v-9h1.4v1.5h.1c.3-1 1.3-1.7 2.4-1.7 1.2-.1 2.3.7 2.8 1.8.4-1.2 1.5-1.9 2.8-1.8 1.8 0 2.9 1.3 2.9 3.4v5.8h-1.4V173c0-1.6-.6-2.4-2-2.4-1.1 0-2.1.6-2.1 1.7v6.3h-1.4V173c0-1.6-.6-2.4-1.9-2.4-1.1 0-2.1.6-2.1 1.7v6.3h-1.5zm14.6-4.5c0-2.9 1.6-4.7 4.1-4.7s3.9 1.9 3.9 4.4v.7h-6.5v.4c-.1 1.4 1 2.6 2.4 2.7h.3c1.1 0 2.1-.6 2.5-1.6l1 .7c-.7 1.3-2.1 2.2-3.6 2.1-2.5 0-4.1-1.8-4.1-4.7zm1.5-.8v.1h5v-.2c.1-1.3-.8-2.5-2.1-2.6h-.3c-1.4 0-2.6 1.1-2.6 2.5v.2zm8.8 5.3v-9h1.4v1.7h.1c.4-1.1 1.5-1.7 2.6-1.7h.5v1.4h-.8c-1.5 0-2.4.6-2.4 1.5v6.1h-1.4zm5.7-4.5c0-2.9 1.5-4.7 4-4.7 1.5-.1 2.8.7 3.4 2.1l-1.2.6c-.3-.9-1.2-1.5-2.2-1.5-1.3-.1-2.5 1-2.5 2.3v1.9c-.2 1.3.8 2.5 2.1 2.7h.4c1.1 0 2-.6 2.4-1.6l1 .7c-.6 1.4-2 2.2-3.5 2.1-2.4.1-3.9-1.7-3.9-4.6zm8.7 0c0-2.9 1.6-4.7 4.1-4.7s3.9 1.9 3.9 4.4v.7h-6.5v.4c-.1 1.4 1 2.6 2.4 2.7h.3c1.1 0 2.1-.6 2.5-1.6l1 .7c-.7 1.3-2.1 2.2-3.6 2.1-2.5 0-4.1-1.8-4.1-4.7zm1.4-.8v.1h5v-.2c.1-1.3-.8-2.5-2.1-2.6h-.3c-1.4 0-2.6 1.1-2.6 2.5v.2zM48.6 196.7c0-2.9 1.6-4.7 4.1-4.7s3.9 1.9 3.9 4.4v.7h-6.5v.4c-.1 1.4 1 2.6 2.4 2.7h.3c1.1 0 2.1-.6 2.5-1.5l1 .7c-.7 1.3-2.1 2.2-3.6 2.1-2.5-.1-4.1-1.9-4.1-4.8zm1.5-.8v.1h5v-.2c.1-1.3-.8-2.5-2.1-2.6h-.3c-1.4 0-2.6 1.1-2.6 2.5v.2zm10.6 5.3l-3.2-9H59l1.6 4.5 1 3.1h.1l1-3.1 1.6-4.5h1.3l-3.2 9h-1.7zm5.8-4.5c0-2.9 1.6-4.7 4.1-4.7s3.9 1.9 3.9 4.4v.7H68v.4c-.1 1.4 1 2.6 2.4 2.7h.3c1.1 0 2-.6 2.5-1.5l1 .7c-.7 1.3-2.1 2.1-3.6 2.1-2.5-.1-4.1-1.9-4.1-4.8zm1.5-.8v.1h5v-.2c.1-1.3-.8-2.5-2.1-2.6h-.3c-1.4 0-2.6 1.1-2.6 2.5v.2zm8.8 5.3v-9h1.4v1.5h.1c.4-1.1 1.4-1.7 2.6-1.7 1.8 0 3 1.3 3 3.5v5.8h-1.4v-5.6c0-1.6-.7-2.4-2-2.4-1.1 0-2.2.6-2.2 1.7v6.3l-1.5-.1zm11.9 0c-.8.1-1.4-.5-1.5-1.3v-6.5h-1.5v-1.2h.8c.6 0 .8-.2.8-.8v-1.7h1.3v2.5h2v1.2h-2v6.6h1.8v1.2h-1.7zm7.6-4.5c0-2.9 1.7-4.7 4.1-4.7s4.1 1.9 4.1 4.7-1.7 4.7-4.1 4.7-4.1-1.8-4.1-4.7zm6.7.7v-1.3c0-1.9-1.1-2.8-2.6-2.8s-2.6.9-2.6 2.8v1.3c0 1.9 1.1 2.8 2.6 2.8s2.6-.9 2.6-2.8zm4.2-4h-1.5v-1.2h1.5v-1.8c-.1-1 .6-2 1.6-2.1h1.8v1.2h-2v2.7h1.9v1.2h-1.9v7.8h-1.4v-7.8zm11.3 7.8c-.8.1-1.4-.5-1.5-1.3v-6.5h-1.5v-1.2h.8c.6 0 .8-.2.8-.8v-1.7h1.3v2.5h2v1.2h-2v6.6h1.8v1.2h-1.7zm4.2-12.9h1.4v5.4h.1c.4-1.1 1.4-1.7 2.6-1.7 1.8 0 3 1.3 3 3.5v5.8h-1.4v-5.5c0-1.6-.7-2.4-2-2.4-1.1 0-2.2.6-2.2 1.7v6.3h-1.4l-.1-13.1zm9.2 8.4c0-2.9 1.6-4.7 4.1-4.7s3.9 1.9 3.9 4.4v.7h-6.5v.4c-.1 1.4 1 2.6 2.4 2.7h.3c1.1 0 2-.6 2.5-1.5l1 .7c-.7 1.3-2.1 2.1-3.6 2.1-2.5-.1-4.1-1.9-4.1-4.8zm1.5-.8v.1h5v-.2c.1-1.3-.8-2.5-2.1-2.6h-.3c-1.4 0-2.6 1.1-2.6 2.5v.2zm18.5-3.7h1.4l-4 11.1c-.4 1.1-.8 1.4-2.1 1.4h-.7v-1.2h1.4l.7-1.9-3.4-9.4h1.4l2.2 6.1.4 1.5h.1l.5-1.5 2.1-6.1zm2.4 4.5c0-2.9 1.6-4.7 4.1-4.7s3.9 1.9 3.9 4.4v.7h-6.5v.4c-.1 1.4 1 2.6 2.4 2.7h.3c1.1 0 2-.6 2.5-1.5l1 .7c-.7 1.3-2.1 2.1-3.6 2.1-2.5-.1-4.1-1.9-4.1-4.8zm1.5-.8v.1h5v-.2c.1-1.3-.8-2.5-2.1-2.6h-.3c-1.4 0-2.6 1.1-2.6 2.5v.2zm15.3 5.3c-.8.1-1.5-.5-1.6-1.3v-.1h-.1c-.4 1.1-1.5 1.8-2.6 1.7-1.9 0-3-1-3-2.7s1.2-2.6 3.9-2.6h1.8v-.9c0-1.3-.7-2-2.1-2-1 0-1.9.5-2.3 1.3l-.8-.8c.6-1.2 1.9-1.8 3.2-1.8 2.2 0 3.5 1.1 3.5 3v5h1v1.2h-.9zm-1.6-2.6v-1.5h-1.9c-1.6 0-2.3.5-2.3 1.4v.4c0 .9.7 1.4 1.8 1.4 1.4 0 2.4-.7 2.4-1.7zm4.4 2.6v-9h1.4v1.7h.1c.4-1.1 1.5-1.7 2.6-1.7h.6v1.4h-.8c-1.5 0-2.4.6-2.4 1.5v6.1h-1.5zm4.9-.8v-.2c0-.6.5-1.1 1.1-1.1.6 0 1.1.5 1.1 1.1v.2c0 .6-.5 1.1-1.1 1.1-.7 0-1.1-.5-1.1-1.1zM50.9 223.8h-1.5v-12.2h4.9c1.9 0 3.5 1.6 3.4 3.6 0 1.5-1 2.8-2.4 3.3l2.8 5.4h-1.7l-2.6-5.2h-2.9v5.1zm3.4-6.5c.9.1 1.7-.5 1.8-1.4v-1.2c.1-.9-.6-1.7-1.5-1.8h-3.7v4.4h3.4zm5.2 2c0-2.9 1.6-4.7 4.1-4.7s3.9 1.9 3.9 4.4v.7H61v.4c-.1 1.4 1 2.6 2.4 2.7h.3c1.1 0 2.1-.6 2.5-1.6l1 .7c-.7 1.3-2.1 2.1-3.6 2.1-2.5 0-4.1-1.8-4.1-4.7zm1.5-.8l5 .1v-.2c.1-1.3-.8-2.5-2.1-2.6h-.3c-1.4 0-2.6 1.1-2.6 2.5v.2zm12 9.1c-2.8 0-4-.8-4-2.2-.1-.9.6-1.7 1.5-1.8v-.2c-.5-.2-.8-.7-.8-1.3 0-.9.7-1.3 1.6-1.6v-.1c-1.1-.5-1.7-1.6-1.7-2.8 0-1.7 1.3-3.1 3-3.1h.4c.6 0 1.2.1 1.7.4v-.2c0-.7.3-1.2 1-1.2H77v1.2h-1.7v.6c.7.6 1 1.4 1 2.3 0 1.7-1.3 3.1-3.1 3.1h-.3c-.3 0-.6 0-.9-.1-.6.2-1.2.5-1.2 1s.6.7 1.4.7h1.9c2.2 0 3.2.9 3.2 2.4.1 2-1.3 2.9-4.3 2.9zm1.2-3.8h-3c-.5.2-.9.7-.8 1.2 0 .8.5 1.4 2 1.4h1.3c1.6 0 2.5-.5 2.5-1.5-.1-.7-.6-1.2-2-1.1zm.7-5.8v-.5c0-1.2-.8-1.8-1.9-1.8s-1.9.6-1.9 1.8v.5c0 1.2.8 1.8 1.9 1.8s1.9-.7 1.9-1.8zm4-6.1v-.2c0-.5.3-.8.8-.8s.9.3.9.8v.2c0 .5-.3.8-.9.8-.4.1-.8-.2-.8-.6v-.2zm.1 2.9h1.4v9H79v-9zm3.6 7.5l1-.8c.6.9 1.6 1.4 2.7 1.4 1.2 0 1.9-.5 1.9-1.5 0-.7-.4-1.2-1.6-1.4l-.7-.1c-1.7-.2-2.9-.9-2.9-2.6 0-1.7 1.4-2.7 3.2-2.7 1.2-.1 2.4.5 3.2 1.5l-.9.8c-.6-.7-1.4-1.1-2.4-1.1-1.2 0-1.8.5-1.8 1.4 0 .9.6 1.2 1.7 1.4l.7.1c2 .3 2.8 1.2 2.8 2.5 0 1.8-1.3 2.8-3.3 2.8-1.5.1-2.8-.6-3.6-1.7zm11.2 1.5c-.8.1-1.4-.5-1.5-1.2V216h-1.5v-1.2h.8c.6 0 .8-.2.8-.8v-1.7h1.3v2.5h2v1.2h-2v6.6h1.8v1.2h-1.7zm3.4-4.5c0-2.9 1.6-4.7 4.1-4.7s3.9 1.9 3.9 4.4v.7h-6.5v.4c-.1 1.4 1 2.6 2.4 2.7h.3c1.1 0 2.1-.6 2.5-1.6l1 .7c-.7 1.3-2.1 2.1-3.6 2.1-2.5 0-4.1-1.8-4.1-4.7zm1.5-.8l5 .1v-.2c.1-1.3-.8-2.5-2.1-2.6h-.3c-1.4 0-2.6 1.1-2.6 2.5v.2zm8.8 5.3v-9h1.4v1.7h.1c.4-1.1 1.5-1.7 2.6-1.7h.6v1.4h-.8c-1.5 0-2.4.6-2.4 1.5v6.1h-1.5zm12.6 0c-.8.1-1.4-.5-1.5-1.3V216h-1.5v-1.2h.8c.6 0 .8-.2.8-.8v-1.7h1.3v2.5h2v1.2h-2v6.6h1.8v1.2h-1.7zm3.4-4.5c0-2.9 1.7-4.7 4.1-4.7 2.4 0 4.1 1.9 4.1 4.7s-1.7 4.7-4.1 4.7-4.1-1.8-4.1-4.7zm6.6.7v-1.3c0-1.9-1.1-2.8-2.6-2.8s-2.6.9-2.6 2.8v1.3c0 1.9 1.1 2.8 2.6 2.8s2.6-.9 2.6-2.8zm9.6 2.4c-.5 1.1-1.6 1.7-2.7 1.7-2.3 0-3.7-1.8-3.7-4.7 0-2.9 1.4-4.7 3.7-4.7 1.2-.1 2.2.6 2.6 1.7h.1V211h1.4v12.9h-1.4v-1.5zm0-1.5v-3.4c0-1-1-1.7-2.3-1.7-1.4-.1-2.5 1-2.6 2.4v1.8c-.1 1.4.9 2.6 2.2 2.7h.3c1.3.1 2.4-.6 2.4-1.8zm10.9 2.9c-.8.1-1.5-.5-1.6-1.3v-.1c-.4 1.1-1.5 1.8-2.6 1.7-1.9 0-3-1-3-2.7s1.2-2.6 3.9-2.6h1.8v-.9c0-1.3-.7-2-2.1-2-1 0-1.9.5-2.3 1.4l-.8-.8c.6-1.2 1.9-1.8 3.2-1.8 2.2 0 3.5 1.1 3.5 3v5h1v1.2l-1-.1zm-1.6-2.6v-1.5h-1.9c-1.6 0-2.3.5-2.3 1.4v.4c0 .9.7 1.4 1.8 1.4 1.4 0 2.4-.8 2.4-1.7zm9.9-6.4h1.4l-4 11.1c-.4 1.1-.8 1.4-2.1 1.4h-.7v-1.2h1.4l.7-1.9-3.4-9.4h1.4l2.2 6.1.4 1.5h.1l.5-1.5 2.1-6.1zm2 8.2v-.2c0-.6.5-1.1 1.1-1.1.6 0 1.1.5 1.1 1.1v.2c0 .6-.5 1.1-1.1 1.1-.6 0-1.1-.5-1.1-1.1zM270 149.9c-.4 0-.7-.3-.8-.7v-3.3h-.8v-.6h.4c.3 0 .4-.1.4-.4v-.9h.7v1.3h1v.6h-1v3.4h.9v.6h-.8zm2.1-6.7h.7v2.8c.2-.5.7-.9 1.3-.9 1 0 1.6.6 1.6 1.8v3h-.7V147c0-.8-.4-1.3-1-1.3s-1.1.3-1.1.9v3.2h-.7l-.1-6.6zm5 .5v-.1c0-.2.1-.4.5-.4s.4.2.4.4v.1c0 .2-.1.4-.4.4s-.5-.1-.5-.4zm.1 1.5h.8v4.6h-.7l-.1-4.6zm2.3 4.7v-4.6h.7v.8c.2-.5.7-.9 1.3-.9 1 0 1.5.6 1.5 1.8v3h-.7v-3c0-.8-.4-1.3-1-1.3s-1.1.3-1.1.9v3.2l-.7.1zm5.1-6.7h.7v4.2l.7-.8 1.3-1.4h.9l-1.7 1.8 1.9 2.8h-.9l-1.5-2.4-.7.7v1.7h-.7v-6.6zm10.9 6.7h-4.1v-.8l2.1-1.9c.6-.4.9-1.1 1-1.8v-.1c.1-.6-.4-1.1-.9-1.2h-.2c-.6 0-1.2.4-1.3 1.1l-.7-.3c.2-.9 1.1-1.5 2-1.5 1-.1 1.8.6 1.9 1.6v.3c-.1 1-.6 1.8-1.4 2.4l-1.7 1.5h3.3v.7zm1.1-3.2c0-2.1.7-3.2 2.2-3.2s2.2 1.2 2.2 3.2-.7 3.2-2.2 3.2-2.2-1.1-2.2-3.2zm3.6.5v-1c0-1.2-.4-2.1-1.4-2.1s-1.4.9-1.4 2.1v1c0 1.2.4 2.1 1.4 2.1s1.4-.9 1.4-2.1zm2.1 2.7v-.7h1.8v-5.1h-.1l-1.6 1.5-.4-.5 1.7-1.6h1.2v5.6h1.6v.7l-4.2.1zm5.1-1.8c0-.8.5-1.4 1.3-1.6v-.1c-.7-.2-1.1-.8-1.1-1.5 0-1 .7-1.6 2-1.6s2 .6 2 1.6c0 .7-.4 1.3-1.1 1.5v.1c.8.1 1.3.8 1.3 1.6 0 1-.8 1.8-2.2 1.8s-2.2-.7-2.2-1.8zm3.6 0v-.1c0-.7-.5-1.1-1.4-1.1s-1.4.4-1.4 1.1v.2c0 .7.5 1.1 1.4 1.1s1.4-.4 1.4-1.2zm-.2-2.9v-.1c0-.6-.4-1-1.2-1s-1.2.4-1.2 1v.1c0 .6.4 1 1.2 1s1.2-.3 1.2-1zM269 155.9h1l1.8 3.4 1.8-3.4h1v6.3h-.7v-5.3l-.5 1.1-1.5 2.7-1.5-2.7-.5-1.1v5.3h-.9v-6.3zm10.6 6.3c-.4 0-.8-.3-.8-.7v-.1c-.2.6-.7.9-1.3.9-.7.1-1.4-.4-1.5-1.2v-.2c0-.9.6-1.4 2-1.4h.9v-.5c0-.6-.4-1-1.1-1-.5 0-.9.3-1.2.7l-.4-.4c.3-.6 1-.9 1.6-.9 1.1 0 1.8.6 1.8 1.6v2.6h.5v.6h-.5zm-.8-1.4v-.8h-1c-.8 0-1.2.3-1.2.7v.2c0 .5.4.7.9.7.8 0 1.3-.3 1.3-.8zm2.3 1.4v-4.6h.7v.9c.2-.5.8-.9 1.4-.9h.3v.7h-.5c-.8 0-1.2.3-1.2.8v3.1h-.7zm2.9-2.4c0-1.5.8-2.4 2.1-2.4.8-.1 1.4.4 1.7 1.1l-.6.3c-.2-.5-.6-.8-1.1-.8-.7 0-1.3.5-1.3 1.2v1c-.1.7.4 1.3 1.1 1.4h.2c.5 0 1-.3 1.3-.8l.5.4c-.3.7-1 1.1-1.8 1.1-1.3 0-2.1-1-2.1-2.5zm4.9-4.3h.7v2.8c.2-.5.7-.9 1.3-.9 1 0 1.6.6 1.6 1.8v3h-.7v-2.9c0-.8-.4-1.2-1-1.2s-1.1.3-1.1.9v3.2h-.7l-.1-6.7zm7.2 6.7v-.7h1.8v-5.1h-.1l-1.6 1.5-.4-.5 1.7-1.6h1.2v5.6h1.6v.7h-4.2zm7.2 0h-1c1.2-.7 2.1-1.9 2.4-3.3-.3.6-.9.9-1.5.9-1 0-1.8-.7-1.9-1.7v-.2c0-1.1.8-2 1.9-2.1h.2c1.3 0 2.1.9 2.1 2.4-.1 1.6-.9 3.1-2.2 4zm1.5-4.4c.1-.8-.5-1.4-1.2-1.5s-1.4.5-1.4 1.2v.3c-.1.7.5 1.4 1.2 1.4.7.1 1.4-.5 1.4-1.2v-.2zm1.7 2v-.7h4.6v.7h-4.6zm9.7 2.4h-4.1v-.8l2-1.9c.6-.4.9-1.1 1-1.8v-.1c.1-.6-.4-1.1-1-1.2h-.2c-.6 0-1.2.4-1.3 1.1l-.7-.3c.2-.9 1.1-1.5 2-1.5 1-.2 1.9.5 2 1.4v.4c-.1 1-.6 1.8-1.4 2.4l-1.7 1.5h3.3l.1.8zm5.4 0h-4.1v-.8l2-1.9c.6-.4.9-1.1 1-1.8v-.1c.1-.6-.4-1.1-1-1.2h-.2c-.6 0-1.2.4-1.3 1.1l-.7-.3c.2-.9 1.1-1.5 2-1.5 1-.1 1.8.6 1.9 1.6v.3c-.1 1-.6 1.8-1.4 2.4l-1.7 1.5h3.3l.2.7zM269 174.5v-6.3h.8v5.6h2.7v.7H269zm7.8 0c-.4 0-.8-.3-.8-.7v-.1c-.2.6-.7.9-1.3.9-.8.1-1.4-.4-1.5-1.2v-.2c0-.9.6-1.4 2-1.4h.9v-.5c0-.6-.4-1-1.1-1-.5 0-.9.3-1.2.7l-.4-.4c.3-.6 1-.9 1.6-.9 1.1 0 1.8.6 1.8 1.6v2.6h.5v.6h-.5zm-.8-1.4v-.8h-1c-.8 0-1.2.2-1.2.7v.2c0 .5.4.7.9.7.8 0 1.3-.3 1.3-.8zm1.8.6l.5-.4c.3.4.8.7 1.4.7.6 0 1-.3 1-.8s-.2-.6-.8-.7l-.4-.1c-.9-.1-1.5-.5-1.5-1.3s.7-1.4 1.7-1.4c.6 0 1.2.3 1.6.8l-.5.4c-.3-.4-.7-.6-1.2-.6-.6 0-.9.3-.9.7s.3.6.9.7h.4c1 .1 1.4.6 1.4 1.3 0 .9-.7 1.5-1.7 1.5-.7.1-1.4-.2-1.9-.8zm8.5.8l-2.1-6.3h.8l1 3.2.7 2.4.7-2.4 1-3.2h.8l-2.1 6.3h-.8zm3.3-2.4c0-1.5.8-2.4 2.1-2.4 1.1 0 2 .9 2 2v.7h-3.3v.2c0 .8.6 1.4 1.4 1.4.6 0 1.1-.3 1.3-.8l.5.4c-.4.7-1.1 1.1-1.8 1.1-1.3-.1-2.2-1.1-2.2-2.6zm.8-.4l2.6.1v-.1c.1-.7-.4-1.3-1.1-1.4h-.1c-.7 0-1.3.5-1.4 1.3v.1zm6.2 4.7c-1.5 0-2-.4-2-1.1 0-.4.3-.8.7-.9v-.1c-.3-.1-.4-.4-.4-.6 0-.5.3-.7.8-.8-.6-.3-.9-.8-.9-1.4 0-.9.7-1.6 1.6-1.6h.2c.3 0 .6.1.9.2v-.1c0-.4.2-.6.5-.6h.7v.6h-.9v.3c.3.3.5.7.5 1.2 0 .9-.7 1.6-1.6 1.6h-.7c-.3.1-.6.2-.6.5s.3.4.7.4h1c1.1 0 1.6.5 1.6 1.2.2.7-.6 1.2-2.1 1.2zm.6-2h-1.5c-.3.1-.4.3-.4.6 0 .4.3.7 1 .7h.7c.8 0 1.3-.2 1.3-.8s-.4-.5-1.1-.5zm.4-3v-.2c0-.6-.4-.9-1-.9s-1 .3-1 .9v.2c0 .6.4.9 1 .9s1-.3 1-.9zm5.4 3.1c-.4 0-.8-.3-.8-.7v-.1c-.2.6-.7.9-1.3.9-.8.1-1.4-.4-1.5-1.2v-.2c0-.9.6-1.4 2-1.4h.9v-.5c0-.6-.4-1-1.1-1-.5 0-.9.3-1.2.7l-.4-.4c.3-.6 1-.9 1.6-.9 1.1 0 1.8.6 1.8 1.6v2.6h.5v.6h-.5zm-.9-1.4v-.8h-1c-.8 0-1.2.2-1.2.7v.2c0 .5.4.7.9.7.9 0 1.4-.3 1.3-.8zm1.9.6l.5-.4c.3.4.8.7 1.4.7.6 0 1-.3 1-.8s-.2-.6-.8-.7l-.4-.1c-.9-.1-1.5-.5-1.5-1.3s.7-1.4 1.7-1.4c.6 0 1.2.3 1.6.8l-.5.4c-.3-.4-.7-.6-1.2-.6-.6 0-.9.3-.9.7s.3.6.9.7h.4c1 .1 1.4.6 1.4 1.3 0 .9-.7 1.5-1.7 1.5-.8.1-1.5-.2-1.9-.8zm5.8.2v.1c-.1.6-.3 1.2-.8 1.6h-.6c.3-.3.6-.7.7-1.1-.2 0-.4-.3-.4-.5v-.1c0-.3.2-.6.6-.6.3.1.5.3.5.6zm5.2-3.3l-.8-1.4v5.2h-.7v-6.3h.9l2.3 3.8.8 1.4v-5.2h.7v6.3h-.9l-2.3-3.8zm6.2 3.9l-2.1-6.3h.9l1 3.2.7 2.4.7-2.4 1-3.2h.8l-2.1 6.3h-.9zm-39.5 122.9v.6h3c-.1-.2-.1-.3-.2-.6h-2.8zm6.7.6v-.6h-2.8l-.2.6zm-3.5.6h-1.5l.2.6h1.5l-.2-.6"/><path class="st6" d="M286.5 299.2l.2-.6h-1.5l-.2.6zm-2.6 1.2h2.2l.2-.6h-2.6c.1.2.1.3.2.6m-2.2.5h1.7v.6h-1.7zm5 0h1.7v.6h-1.7zm-5-1.1h1.7v.6h-1.7zm5 0h1.7v.6h-1.7zm-5-1.2h1.7v.6h-1.7zm5 0h1.7v.6h-1.7zm-6.2 3.5h2.8v.6h-2.8zm0 1.2h2.8v.6h-2.8zm-6.1-2.4h1.7v.6h-1.7zm0-3.5h1.7v.6h-1.7zm-4.5 3.5h1.7v.6h-1.7zm0-1.1h1.7v.6h-1.7zm0-1.2h1.7v.6h-1.7zm0-1.2h1.7v.6h-1.7zm-1.1 4.7h3.9v.6h-3.9zm0 1.2h3.9v.6h-3.9zm0-8.2h3.9v.6h-3.9zm0 1.1h3.9v.6h-3.9zm11.7-1.1v.6h3.4c-.1-.3-.1-.4-.2-.6h-3.2zm0 1.1v.6h3.8l-.2-.6h-3.6zm9-1.1h-3.1l-.2.6h3.3zm0 1.7v-.6H286l-.2.6zm-2.8 5.3h2.8v.6h-2.8zm0 1.2h2.8v.6h-2.8zm-1.7.6l.2-.6h-.4c.1.1.2.6.2.6m-.3-1.2h.8l.2-.6h-1.1c0 .3 0 .4.1.6m-.4-1.1h1.5l.2-.6h-1.9l.2.6m-5.1-1.8h-4.9v.6h5.3c0-.3-.2-.5-.4-.6m-1.5 1.8h2.3c0-.2 0-.4-.1-.6h-2.2v.6zm-4.5 1.1h6.4c.1-.2.2-.4.2-.6h-6.7v.6zm0 1.2h4.5c.6 0 1.1-.2 1.5-.6h-6v.6zm1.2-4.7h4.9c.2-.2.3-.4.5-.6h-5.3l-.1.6zm3.3-1.2h2.2c0-.2.1-.4.1-.6h-2.2v.6zm-4.5-2.9v.6h6c-.4-.4-.9-.6-1.5-.6h-4.5zm0 1.7h6.7c0-.2-.1-.4-.2-.6h-6.4v.6z"/></svg>