<svg xmlns="http://www.w3.org/2000/svg" viewBox="0 0 256 256"><defs><style>.cls-1{fill:#fff;}.cls-2{fill:#ffd7d9;}.cls-3{fill:none;stroke:#9ef0f0;stroke-miterlimit:10;stroke-width:8px;}.cls-4{fill:#3ddbd9;}.cls-5{fill:#9ef0f0;}.cls-6{fill:#08bdba;}.cls-7{fill:#8a3ffc;}.cls-8{fill:#e8daff;}.cls-9{fill:#6fdc8c;}.cls-10{fill:#004144;}</style></defs><title>flat-7</title><g id="Layer_2" data-name="Layer 2"><g id="Layer_1-2" data-name="Layer 1"><rect class="cls-1" width="256" height="256"/><path class="cls-2" d="M152,32a16,16,0,1,1-16,16,16,16,0,0,1,16-16m0-8a24,24,0,1,0,24,24,24,24,0,0,0-24-24Z"/><polyline class="cls-3" points="104.01 208.01 56 208 32 168 56 128 104.01 128.01"/><circle class="cls-4" cx="32" cy="168" r="16"/><circle class="cls-5" cx="56" cy="128" r="16"/><circle class="cls-4" cx="104.01" cy="128.01" r="16"/><circle class="cls-6" cx="56" cy="208" r="16"/><circle class="cls-5" cx="104.01" cy="208.01" r="16"/><circle class="cls-7" cx="127.99" cy="167.99" r="15.99"/><polyline class="cls-3" points="200 128 224 168 200 208 151.99 207.99 128.01 168.01"/><circle class="cls-4" cx="224" cy="168" r="16"/><circle class="cls-4" cx="200" cy="208" r="16"/><circle class="cls-6" cx="151.99" cy="207.99" r="16"/><circle class="cls-5" cx="200" cy="128" r="16"/><circle class="cls-8" cx="151.99" cy="127.99" r="15.99"/><circle class="cls-4" cx="128.01" cy="168.01" r="16"/><polyline class="cls-3" points="79.99 88.01 103.96 47.99 151.97 48 175.97 88 151.97 128"/><circle class="cls-5" cx="175.97" cy="88" r="16"/><circle class="cls-6" cx="151.97" cy="128" r="16"/><circle class="cls-9" cx="151.97" cy="48" r="16"/><circle class="cls-4" cx="103.96" cy="47.99" r="16"/><circle class="cls-5" cx="79.99" cy="88.01" r="16"/><circle class="cls-6" cx="152" cy="48" r="16"/><circle class="cls-10" cx="152" cy="48" r="8"/></g></g></svg>