<svg xmlns="http://www.w3.org/2000/svg" viewBox="0 0 288 288"><g fill="none" fill-rule="evenodd"><path fill="#FFF" d="M0 0h288v288H0z"/><g stroke="#DCDCDC" stroke-linecap="square" stroke-width=".5"><path d="M52.615 51.615v183.77m17.229-183.77v183.77M58.358 51.615v183.77m17.228-183.77v183.77M64.1 51.615v183.77m17.23-183.77v183.77m5.742-183.77v183.77m5.743-183.77v183.77m5.743-183.77v183.77m5.742-183.77v183.77m5.743-183.77v183.77m5.743-183.77v183.77m5.743-183.77v183.77m5.743-183.77v183.77m5.742-183.77v183.77m5.743-183.77v183.77m5.743-183.77v183.77m5.743-183.77v183.77m5.743-183.77v183.77m5.742-183.77v183.77m5.743-183.77v183.77m5.743-183.77v183.77m5.743-183.77v183.77m5.743-183.77v183.77m5.742-183.77v183.77m5.743-183.77v183.77m5.743-183.77v183.77m5.742-183.77v183.77m5.744-183.77v183.77m5.742-183.77v183.77m5.744-183.77v183.77m5.742-183.77v183.77m5.743-183.77v183.77M236.385 51.615H52.615m183.77 17.229H52.615m183.77-11.486H52.615m183.77 17.228H52.615M236.385 63.1H52.615m183.77 17.23H52.615m183.77 5.742H52.615m183.77 5.743H52.615m183.77 5.743H52.615m183.77 5.742H52.615m183.77 5.743H52.615m183.77 5.743H52.615m183.77 5.743H52.615m183.77 5.743H52.615m183.77 5.742H52.615m183.77 5.743H52.615m183.77 5.743H52.615m183.77 5.743H52.615m183.77 5.743H52.615m183.77 5.742H52.615m183.77 5.743H52.615m183.77 5.743H52.615m183.77 5.743H52.615m183.77 5.743H52.615m183.77 5.742H52.615m183.77 5.743H52.615m183.77 5.743H52.615m183.77 5.742H52.615m183.77 5.744H52.615m183.77 5.742H52.615m183.77 5.744H52.615m183.77 5.742H52.615m183.77 5.743H52.615"/></g><path d="M50.64 34.12c-.833 0-1.442-.317-1.825-.95s-.575-1.52-.575-2.66c0-1.14.192-2.027.575-2.66.383-.633.992-.95 1.825-.95s1.442.317 1.825.95.575 1.52.575 2.66c0 1.14-.192 2.027-.575 2.66-.383.633-.992.95-1.825.95zm0-.73c.273 0 .507-.057.7-.17a1.3 1.3 0 00.47-.48 2.4 2.4 0 00.265-.73 4.7 4.7 0 00.085-.93v-1.14a4.7 4.7 0 00-.085-.93 2.389 2.389 0 00-.265-.73 1.3 1.3 0 00-.47-.48 1.361 1.361 0 00-.7-.17c-.273 0-.507.057-.7.17a1.3 1.3 0 00-.47.48 2.4 2.4 0 00-.265.73 4.7 4.7 0 00-.085.93v1.14c0 .34.028.65.085.93a2.4 2.4 0 00.265.73 1.3 1.3 0 00.47.48c.193.113.427.17.7.17zm4.36.73c-.213 0-.368-.053-.465-.16a.601.601 0 01-.145-.42v-.13c0-.173.048-.313.145-.42.097-.107.252-.16.465-.16.213 0 .368.053.465.16a.601.601 0 01.145.42v.13a.601.601 0 01-.145.42c-.097.107-.252.16-.465.16zm3.11-.12l2.67-6.26H57.8v1.3h-.75v-2.02h4.58v.74L59.01 34h-.9zm9.58 0h-4.58v-.86l2.28-2.1c.327-.3.6-.618.82-.955.22-.337.33-.675.33-1.015v-.12c0-.387-.107-.7-.32-.94-.213-.24-.537-.36-.97-.36-.213 0-.4.03-.56.09-.16.06-.298.143-.415.25a1.395 1.395 0 00-.29.375 2.293 2.293 0 00-.185.465l-.75-.29c.067-.207.158-.408.275-.605a2.07 2.07 0 011.08-.895c.25-.093.545-.14.885-.14.34 0 .643.05.91.15.267.1.49.24.67.42.18.18.318.393.415.64.097.247.145.52.145.82 0 .273-.038.527-.115.76a2.96 2.96 0 01-.315.665c-.133.21-.295.415-.485.615s-.395.4-.615.6l-1.88 1.69h3.67V34zm68.95.12c-.833 0-1.442-.317-1.825-.95s-.575-1.52-.575-2.66c0-1.14.192-2.027.575-2.66.383-.633.992-.95 1.825-.95s1.442.317 1.825.95.575 1.52.575 2.66c0 1.14-.192 2.027-.575 2.66-.383.633-.992.95-1.825.95zm0-.73c.273 0 .507-.057.7-.17a1.3 1.3 0 00.47-.48 2.4 2.4 0 00.265-.73 4.7 4.7 0 00.085-.93v-1.14a4.7 4.7 0 00-.085-.93 2.389 2.389 0 00-.265-.73 1.3 1.3 0 00-.47-.48 1.361 1.361 0 00-.7-.17c-.273 0-.507.057-.7.17a1.3 1.3 0 00-.47.48 2.4 2.4 0 00-.265.73 4.7 4.7 0 00-.085.93v1.14c0 .34.028.65.085.93a2.4 2.4 0 00.265.73 1.3 1.3 0 00.47.48c.193.113.427.17.7.17zm4.36.73c-.213 0-.368-.053-.465-.16a.601.601 0 01-.145-.42v-.13c0-.173.048-.313.145-.42.097-.107.252-.16.465-.16.213 0 .368.053.465.16a.601.601 0 01.145.42v.13a.601.601 0 01-.145.42c-.097.107-.252.16-.465.16zm3.11-.12l2.67-6.26h-2.98v1.3h-.75v-2.02h4.58v.74L145.01 34h-.9zm9.58 0h-4.58v-.86l2.28-2.1c.327-.3.6-.618.82-.955.22-.337.33-.675.33-1.015v-.12c0-.387-.107-.7-.32-.94-.213-.24-.537-.36-.97-.36-.213 0-.4.03-.56.09-.16.06-.298.143-.415.25a1.395 1.395 0 00-.29.375 2.293 2.293 0 00-.185.465l-.75-.29c.067-.207.158-.408.275-.605a2.07 2.07 0 011.08-.895c.25-.093.545-.14.885-.14.34 0 .643.05.91.15.267.1.49.24.67.42.18.18.318.393.415.64.097.247.145.52.145.82 0 .273-.038.527-.115.76a2.96 2.96 0 01-.315.665 4.04 4.04 0 01-.485.615c-.19.2-.395.4-.615.6l-1.88 1.69h3.67V34zm68.95.12c-.833 0-1.442-.317-1.825-.95s-.575-1.52-.575-2.66c0-1.14.192-2.027.575-2.66.383-.633.992-.95 1.825-.95s1.442.317 1.825.95.575 1.52.575 2.66c0 1.14-.192 2.027-.575 2.66-.383.633-.992.95-1.825.95zm0-.73c.273 0 .507-.057.7-.17a1.3 1.3 0 00.47-.48 2.4 2.4 0 00.265-.73 4.7 4.7 0 00.085-.93v-1.14a4.7 4.7 0 00-.085-.93 2.389 2.389 0 00-.265-.73 1.3 1.3 0 00-.47-.48 1.361 1.361 0 00-.7-.17c-.273 0-.507.057-.7.17a1.3 1.3 0 00-.47.48 2.4 2.4 0 00-.265.73 4.7 4.7 0 00-.085.93v1.14c0 .34.028.65.085.93a2.4 2.4 0 00.265.73 1.3 1.3 0 00.47.48c.193.113.427.17.7.17zm4.36.73c-.213 0-.368-.053-.465-.16a.601.601 0 01-.145-.42v-.13c0-.173.048-.313.145-.42.097-.107.252-.16.465-.16.213 0 .368.053.465.16a.601.601 0 01.145.42v.13a.601.601 0 01-.145.42c-.097.107-.252.16-.465.16zm3.11-.12l2.67-6.26h-2.98v1.3h-.75v-2.02h4.58v.74L231.01 34h-.9zm9.58 0h-4.58v-.86l2.28-2.1c.327-.3.6-.618.82-.955.22-.337.33-.675.33-1.015v-.12c0-.387-.107-.7-.32-.94-.213-.24-.537-.36-.97-.36-.213 0-.4.03-.56.09-.16.06-.298.143-.415.25a1.395 1.395 0 00-.29.375 2.293 2.293 0 00-.185.465l-.75-.29c.067-.207.158-.408.275-.605a2.07 2.07 0 011.08-.895c.25-.093.545-.14.885-.14.34 0 .643.05.91.15.267.1.49.24.67.42.18.18.318.393.415.64.097.247.145.52.145.82 0 .273-.038.527-.115.76a2.96 2.96 0 01-.315.665 4.04 4.04 0 01-.485.615c-.19.2-.395.4-.615.6l-1.88 1.69h3.67V34zm17.95 38.12c-.833 0-1.442-.317-1.825-.95s-.575-1.52-.575-2.66c0-1.14.192-2.027.575-2.66.383-.633.992-.95 1.825-.95s1.442.317 1.825.95.575 1.52.575 2.66c0 1.14-.192 2.027-.575 2.66-.383.633-.992.95-1.825.95zm0-.73c.273 0 .507-.057.7-.17a1.3 1.3 0 00.47-.48 2.4 2.4 0 00.265-.73 4.7 4.7 0 00.085-.93v-1.14a4.7 4.7 0 00-.085-.93 2.389 2.389 0 00-.265-.73 1.3 1.3 0 00-.47-.48 1.361 1.361 0 00-.7-.17c-.273 0-.507.057-.7.17a1.3 1.3 0 00-.47.48 2.4 2.4 0 00-.265.73 4.7 4.7 0 00-.085.93v1.14c0 .34.028.65.085.93a2.4 2.4 0 00.265.73 1.3 1.3 0 00.47.48c.193.113.427.17.7.17zm4.36.73c-.213 0-.368-.053-.465-.16a.601.601 0 01-.145-.42v-.13c0-.173.048-.313.145-.42.097-.107.252-.16.465-.16.213 0 .368.053.465.16a.601.601 0 01.145.42v.13a.601.601 0 01-.145.42c-.097.107-.252.16-.465.16zm3.11-.12l2.67-6.26h-2.98v1.3h-.75v-2.02h4.58v.74L266.01 72h-.9zm9.58 0h-4.58v-.86l2.28-2.1c.327-.3.6-.618.82-.955.22-.337.33-.675.33-1.015v-.12c0-.387-.107-.7-.32-.94-.213-.24-.537-.36-.97-.36-.213 0-.4.03-.56.09-.16.06-.298.143-.415.25a1.395 1.395 0 00-.29.375 2.293 2.293 0 00-.185.465l-.75-.29c.067-.207.158-.408.275-.605a2.07 2.07 0 011.08-.895c.25-.093.545-.14.885-.14.34 0 .643.05.91.15.267.1.49.24.67.42.18.18.318.393.415.64.097.247.145.52.145.82 0 .273-.038.527-.115.76a2.96 2.96 0 01-.315.665 4.04 4.04 0 01-.485.615c-.19.2-.395.4-.615.6l-1.88 1.69h3.67V72zm-17.05 92.12c-.833 0-1.442-.317-1.825-.95s-.575-1.52-.575-2.66c0-1.14.192-2.027.575-2.66.383-.633.992-.95 1.825-.95s1.442.317 1.825.95.575 1.52.575 2.66c0 1.14-.192 2.027-.575 2.66-.383.633-.992.95-1.825.95zm0-.73c.273 0 .507-.057.7-.17a1.3 1.3 0 00.47-.48 2.4 2.4 0 00.265-.73 4.7 4.7 0 00.085-.93v-1.14a4.7 4.7 0 00-.085-.93 2.389 2.389 0 00-.265-.73 1.3 1.3 0 00-.47-.48 1.361 1.361 0 00-.7-.17c-.273 0-.507.057-.7.17a1.3 1.3 0 00-.47.48 2.4 2.4 0 00-.265.73 4.7 4.7 0 00-.085.93v1.14c0 .34.028.65.085.93a2.4 2.4 0 00.265.73 1.3 1.3 0 00.47.48c.193.113.427.17.7.17zm4.36.73c-.213 0-.368-.053-.465-.16a.601.601 0 01-.145-.42v-.13c0-.173.048-.313.145-.42.097-.107.252-.16.465-.16.213 0 .368.053.465.16a.601.601 0 01.145.42v.13a.601.601 0 01-.145.42c-.097.107-.252.16-.465.16zm3.11-.12l2.67-6.26h-2.98v1.3h-.75v-2.02h4.58v.74l-2.62 6.24h-.9zm9.58 0h-4.58v-.86l2.28-2.1c.327-.3.6-.618.82-.955.22-.337.33-.675.33-1.015v-.12c0-.387-.107-.7-.32-.94-.213-.24-.537-.36-.97-.36-.213 0-.4.03-.56.09-.16.06-.298.143-.415.25a1.395 1.395 0 00-.29.375 2.293 2.293 0 00-.185.465l-.75-.29c.067-.207.158-.408.275-.605a2.07 2.07 0 011.08-.895c.25-.093.545-.14.885-.14.34 0 .643.05.91.15.267.1.49.24.67.42.18.18.318.393.415.64.097.247.145.52.145.82 0 .273-.038.527-.115.76a2.96 2.96 0 01-.315.665 4.04 4.04 0 01-.485.615c-.19.2-.395.4-.615.6l-1.88 1.69h3.67v.74zm-17.05 28.12c-.833 0-1.442-.317-1.825-.95s-.575-1.52-.575-2.66c0-1.14.192-2.027.575-2.66.383-.633.992-.95 1.825-.95s1.442.317 1.825.95.575 1.52.575 2.66c0 1.14-.192 2.027-.575 2.66-.383.633-.992.95-1.825.95zm0-.73c.273 0 .507-.057.7-.17a1.3 1.3 0 00.47-.48 2.4 2.4 0 00.265-.73 4.7 4.7 0 00.085-.93v-1.14a4.7 4.7 0 00-.085-.93 2.389 2.389 0 00-.265-.73 1.3 1.3 0 00-.47-.48 1.361 1.361 0 00-.7-.17c-.273 0-.507.057-.7.17a1.3 1.3 0 00-.47.48 2.4 2.4 0 00-.265.73 4.7 4.7 0 00-.085.93v1.14c0 .34.028.65.085.93a2.4 2.4 0 00.265.73 1.3 1.3 0 00.47.48c.193.113.427.17.7.17zm4.36.73c-.213 0-.368-.053-.465-.16a.601.601 0 01-.145-.42v-.13c0-.173.048-.313.145-.42.097-.107.252-.16.465-.16.213 0 .368.053.465.16a.601.601 0 01.145.42v.13a.601.601 0 01-.145.42c-.097.107-.252.16-.465.16zm3.11-.12l2.67-6.26h-2.98v1.3h-.75v-2.02h4.58v.74l-2.62 6.24h-.9zm9.58 0h-4.58v-.86l2.28-2.1c.327-.3.6-.618.82-.955.22-.337.33-.675.33-1.015v-.12c0-.387-.107-.7-.32-.94-.213-.24-.537-.36-.97-.36-.213 0-.4.03-.56.09-.16.06-.298.143-.415.25a1.395 1.395 0 00-.29.375 2.293 2.293 0 00-.185.465l-.75-.29c.067-.207.158-.408.275-.605a2.07 2.07 0 011.08-.895c.25-.093.545-.14.885-.14.34 0 .643.05.91.15.267.1.49.24.67.42.18.18.318.393.415.64.097.247.145.52.145.82 0 .273-.038.527-.115.76a2.96 2.96 0 01-.315.665 4.04 4.04 0 01-.485.615c-.19.2-.395.4-.615.6l-1.88 1.69h3.67v.74zm-17.05 29.12c-.833 0-1.442-.317-1.825-.95s-.575-1.52-.575-2.66c0-1.14.192-2.027.575-2.66.383-.633.992-.95 1.825-.95s1.442.317 1.825.95.575 1.52.575 2.66c0 1.14-.192 2.027-.575 2.66-.383.633-.992.95-1.825.95zm0-.73c.273 0 .507-.057.7-.17a1.3 1.3 0 00.47-.48 2.4 2.4 0 00.265-.73 4.7 4.7 0 00.085-.93v-1.14a4.7 4.7 0 00-.085-.93 2.389 2.389 0 00-.265-.73 1.3 1.3 0 00-.47-.48 1.361 1.361 0 00-.7-.17c-.273 0-.507.057-.7.17a1.3 1.3 0 00-.47.48 2.4 2.4 0 00-.265.73 4.7 4.7 0 00-.085.93v1.14c0 .34.028.65.085.93a2.4 2.4 0 00.265.73 1.3 1.3 0 00.47.48c.193.113.427.17.7.17zm4.36.73c-.213 0-.368-.053-.465-.16a.601.601 0 01-.145-.42v-.13c0-.173.048-.313.145-.42.097-.107.252-.16.465-.16.213 0 .368.053.465.16a.601.601 0 01.145.42v.13a.601.601 0 01-.145.42c-.097.107-.252.16-.465.16zm3.11-.12l2.67-6.26h-2.98v1.3h-.75v-2.02h4.58v.74l-2.62 6.24h-.9zm9.58 0h-4.58v-.86l2.28-2.1c.327-.3.6-.618.82-.955.22-.337.33-.675.33-1.015v-.12c0-.387-.107-.7-.32-.94-.213-.24-.537-.36-.97-.36-.213 0-.4.03-.56.09-.16.06-.298.143-.415.25a1.395 1.395 0 00-.29.375 2.293 2.293 0 00-.185.465l-.75-.29c.067-.207.158-.408.275-.605a2.07 2.07 0 011.08-.895c.25-.093.545-.14.885-.14.34 0 .643.05.91.15.267.1.49.24.67.42.18.18.318.393.415.64.097.247.145.52.145.82 0 .273-.038.527-.115.76a2.96 2.96 0 01-.315.665 4.04 4.04 0 01-.485.615c-.19.2-.395.4-.615.6l-1.88 1.69h3.67v.74z" fill="#767676"/><path d="M52.5 235.5h184v-184h-184z"/><path d="M219.25 187.433H69.75c-5.198 0-9.43-4.232-9.43-9.435v-15.18h168.36v15.18c0 5.203-4.232 9.435-9.43 9.435M69.75 70.818h149.5c5.198 0 9.43 4.232 9.43 9.43v78.435H60.32V80.248c0-5.198 4.232-9.43 9.43-9.43m149.5-4.135H69.75c-7.48 0-13.57 6.09-13.57 13.565v97.75c0 7.48 6.09 13.57 13.57 13.57h72.68v24.615h-38.18v4.135h80.5v-4.135h-38.18v-24.615h72.68c7.48 0 13.57-6.09 13.57-13.57v-97.75c0-7.475-6.09-13.565-13.57-13.565" fill="#000"/><path d="M56 39v210M249.5 66.5h-210m210 92h-210m210 28.7h-210m210 28.8h-210m189-177v210M142.2 39v210M60.5 39v210m189-178h-210m210 92h-210m210 28.8h-210m210 28.7h-210M233 39v210M146.8 39v210" stroke="#97C1FF" stroke-width=".5" stroke-linecap="square"/></g></svg>