<svg xmlns="http://www.w3.org/2000/svg" xmlns:xlink="http://www.w3.org/1999/xlink" viewBox="0 0 288 288"><defs><style>.cls-1{fill:none;}.cls-2{isolation:isolate;}.cls-3{clip-path:url(#clip-path);}.cls-10,.cls-4,.cls-5,.cls-6,.cls-7,.cls-8,.cls-9{opacity:0.6;}.cls-4{fill:url(#linear-gradient);}.cls-5{fill:url(#linear-gradient-2);}.cls-6{fill:url(#linear-gradient-3);}.cls-7{fill:url(#linear-gradient-4);}.cls-8{fill:url(#linear-gradient-5);}.cls-9{fill:url(#linear-gradient-6);}.cls-10{fill:url(#linear-gradient-7);}.cls-11{opacity:0.4;mix-blend-mode:multiply;fill:url(#linear-gradient-8);}.cls-12{fill:#be95ff;}</style><clipPath id="clip-path"><rect class="cls-1" width="288" height="288"/></clipPath><linearGradient id="linear-gradient" x1="103.11" y1="186.13" x2="560.98" y2="-46.64" gradientUnits="userSpaceOnUse"><stop offset="0" stop-color="#bb8eff"/><stop offset="0.29" stop-color="#8080ff"/><stop offset="0.78" stop-color="#256bff"/><stop offset="1" stop-color="#0062ff"/></linearGradient><linearGradient id="linear-gradient-2" x1="102.95" y1="188.08" x2="560.83" y2="-44.69" xlink:href="#linear-gradient"/><linearGradient id="linear-gradient-3" x1="102.78" y1="190.03" x2="560.65" y2="-42.74" xlink:href="#linear-gradient"/><linearGradient id="linear-gradient-4" x1="103.38" y1="190.23" x2="553.78" y2="-38.74" xlink:href="#linear-gradient"/><linearGradient id="linear-gradient-5" x1="102.68" y1="192.45" x2="553.91" y2="-36.94" xlink:href="#linear-gradient"/><linearGradient id="linear-gradient-6" x1="102.17" y1="194.57" x2="552.57" y2="-34.4" xlink:href="#linear-gradient"/><linearGradient id="linear-gradient-7" x1="101.56" y1="196.75" x2="551.99" y2="-32.24" xlink:href="#linear-gradient"/><linearGradient id="linear-gradient-8" x1="131.71" y1="208.25" x2="156.3" y2="183.66" gradientUnits="userSpaceOnUse"><stop offset="0" stop-color="#bb8eff"/><stop offset="0.29" stop-color="#8080ff" stop-opacity="0.87"/><stop offset="0.78" stop-color="#256bff" stop-opacity="0.68"/><stop offset="1" stop-color="#0062ff" stop-opacity="0.6"/></linearGradient></defs><g class="cls-2"><g id="Layer_3" data-name="Layer 3"><rect width="288" height="288"/><g class="cls-3"><polygon class="cls-4" points="261 14.09 261 97.23 353.48 150.62 353.48 67.48 261 14.09"/><polygon class="cls-5" points="234 29.68 234 112.82 326.48 166.22 326.48 83.07 234 29.68"/><polygon class="cls-6" points="207 45.27 207 128.41 299.48 181.8 299.48 98.66 207 45.27"/><polygon class="cls-7" points="180 60.86 180 144 270 195.95 270 112.81 180 60.86"/><polygon class="cls-8" points="153 76.44 153 159.58 243 211.54 243.27 128.56 153 76.44"/><polygon class="cls-9" points="126 92.03 126 175.17 216 227.13 216 143.99 126 92.03"/><polygon class="cls-10" points="99 107.62 99 190.76 189 242.72 189 159.58 99 107.62"/><polygon class="cls-11" points="135 169.97 135 211.54 153 221.94 153 180.37 135 169.97"/><polygon class="cls-12" points="153 180.37 135 169.97 54 216.74 36 206.35 36 237.52 90 237.52 72 227.13 153 180.37"/></g></g></g></svg>