<svg xmlns="http://www.w3.org/2000/svg" xmlns:xlink="http://www.w3.org/1999/xlink" viewBox="0 0 288 288"><defs><path id="a" d="M0 184h184V0H0z"/></defs><g fill="none" fill-rule="evenodd"><path fill="#FFF" d="M0 0h288v288H0z"/><g stroke="#DCDCDC" stroke-linecap="square" stroke-width=".5"><path d="M52.115 52.115v183.77m17.229-183.77v183.77M57.858 52.115v183.77m17.228-183.77v183.77M63.6 52.115v183.77m17.23-183.77v183.77m5.742-183.77v183.77m5.743-183.77v183.77m5.743-183.77v183.77m5.742-183.77v183.77m5.743-183.77v183.77m5.743-183.77v183.77m5.743-183.77v183.77m5.743-183.77v183.77m5.742-183.77v183.77m5.743-183.77v183.77M144 52.115v183.77m5.743-183.77v183.77m5.743-183.77v183.77m5.742-183.77v183.77m5.743-183.77v183.77m5.743-183.77v183.77m5.743-183.77v183.77m5.743-183.77v183.77m5.742-183.77v183.77m5.743-183.77v183.77m5.743-183.77v183.77m5.742-183.77v183.77m5.744-183.77v183.77m5.742-183.77v183.77m5.744-183.77v183.77m5.742-183.77v183.77m5.743-183.77v183.77M235.885 52.115H52.115m183.77 17.229H52.115m183.77-11.486H52.115m183.77 17.228H52.115M235.885 63.6H52.115m183.77 17.23H52.115m183.77 5.742H52.115m183.77 5.743H52.115m183.77 5.743H52.115m183.77 5.742H52.115m183.77 5.743H52.115m183.77 5.743H52.115m183.77 5.743H52.115m183.77 5.743H52.115m183.77 5.742H52.115m183.77 5.743H52.115M235.885 144H52.115m183.77 5.743H52.115m183.77 5.743H52.115m183.77 5.742H52.115m183.77 5.743H52.115m183.77 5.743H52.115m183.77 5.743H52.115m183.77 5.743H52.115m183.77 5.742H52.115m183.77 5.743H52.115m183.77 5.743H52.115m183.77 5.742H52.115m183.77 5.744H52.115m183.77 5.742H52.115m183.77 5.744H52.115m183.77 5.742H52.115m183.77 5.743H52.115"/></g><path d="M52 52h184v184H52V52zm5.75 5.75v172.5h172.5V57.75H57.75z" fill="#97C1FF" fill-rule="nonzero" opacity=".6"/><g transform="translate(52 52)"><path d="M164.83 86.463l-15.75-27.232 10.569-6.1 15.772 27.226-10.591 6.106zM137.51 61.13l-8.596-2.087 2.496-8.482 27.007-15.582 6.095 10.568L137.51 61.13zm-15.117 13.484l-10.223-17.71c4.588-1.553 9.832.304 12.351 4.674 2.524 4.37 1.518 9.821-2.128 13.036zm.8-59.938l10.574-6.101 15.479 26.921-10.563 6.09-15.49-26.91zm56.85 65.406l-16.807-29.015 5.14-2.972a2.05 2.05 0 00.966-1.26 2.041 2.041 0 00-.207-1.564l-8.17-14.15a2.063 2.063 0 00-2.824-.76l-5.307 3.06-16.514-28.71a2.084 2.084 0 00-1.26-.966c-.54-.132-1.103-.07-1.569.207l-14.156 8.17a2.071 2.071 0 00-.765 2.824l16.52 28.71-6.47 3.731c-.46.265-.804.696-.954 1.208l-2.242 7.624c-1.731-1.627-3.807-2.869-6.164-3.501-3.772-.995-7.694-.49-11.057 1.46A2.056 2.056 0 00107.45 57l5.078 8.804-4.307 2.49 2.07 3.582 4.312-2.49 5.342 9.269a2.07 2.07 0 001.26.966c.172.04.356.069.534.069.356 0 .719-.092 1.035-.282 5.692-3.283 8.263-9.844 6.831-15.939l7.734 1.875c.16.04.322.063.488.063.357 0 .72-.098 1.03-.282l6.635-3.83 16.79 29.032a2.063 2.063 0 001.788 1.035c.357 0 .708-.092 1.036-.281l14.179-8.171c.477-.27.822-.725.966-1.26a2.108 2.108 0 00-.207-1.57zm-46.754 94.209l-2.076-3.582c20.948-12.144 33.46-32.97 33.465-55.712h4.146c-.006 24.23-13.294 46.397-35.535 59.294m-30.143-81.174l-9.78 17.037a2.38 2.38 0 000 2.381l8.717 15.163a2.405 2.405 0 002.081 1.201h8.504c.173-1.736.26-3.496.26-5.272a52.3 52.3 0 00-9.782-30.51zM12.86 101.18a52.235 52.235 0 00-5.037 22.448c0 18.681 9.798 35.115 24.524 44.436l8.579-14.835a2.4 2.4 0 000-2.392l-5.239-9.08c-1.53-2.633-1.04-5.934 1.18-8.032l7.928-7.452a2.386 2.386 0 00.437-2.944l-5.916-10.247a2.39 2.39 0 00-2.076-1.196H22.836a6.556 6.556 0 01-5.652-3.26l-4.324-7.446zm23.069 68.965a53.907 53.907 0 007.101 3.1l27.525-26.117c.817-.77.995-1.984.437-2.95l-20.97-36.426a6.513 6.513 0 011.196-8.044l13.8-12.725c.81-.759.995-1.972.431-2.938l-7.463-12.92c-18.216.816-34.052 10.959-42.838 25.754l5.618 9.671a2.395 2.395 0 002.07 1.19H37.24a6.566 6.566 0 015.664 3.272l5.91 10.247a6.525 6.525 0 01-1.178 8.032l-7.93 7.458a2.37 2.37 0 00-.436 2.938l5.238 9.08a6.53 6.53 0 010 6.532l-8.58 14.846zm11.672 4.468a52.608 52.608 0 0012.777 1.564c25.76 0 47.253-18.636 51.71-43.137h-7.924a6.566 6.566 0 01-5.675-3.277l-8.711-15.157a6.554 6.554 0 01-.006-6.515l10.62-18.492c-9.16-10.758-22.58-17.796-37.622-18.475l6.262 10.85a6.499 6.499 0 01-1.196 8.04l-13.8 12.73a2.39 2.39 0 00-.432 2.944l20.97 36.426a6.5 6.5 0 01-1.172 8.015l-25.8 24.484zm12.777 5.71a56.487 56.487 0 01-17.193-2.668 2.059 2.059 0 01-.569-.184 56.417 56.417 0 01-10.287-4.589 2.371 2.371 0 01-.299-.138 2.272 2.272 0 01-.27-.19c-16.784-9.85-28.083-28.094-28.083-48.926 0-31.263 25.438-56.701 56.7-56.701 31.258 0 56.696 25.438 56.696 56.7 0 31.258-25.438 56.696-56.695 56.696zM60.431 11.5l2.6-2.599c.81-.81.81-2.122 0-2.933a2.072 2.072 0 00-2.933 0l-2.6 2.6-2.598-2.6a2.072 2.072 0 00-2.933 0 2.082 2.082 0 000 2.933l2.6 2.599-2.6 2.599a2.082 2.082 0 000 2.933 2.082 2.082 0 002.933 0l2.599-2.6 2.599 2.6a2.082 2.082 0 002.932 0 2.072 2.072 0 000-2.933L60.431 11.5zm-46 34.5l2.6-2.599c.81-.81.81-2.122 0-2.933a2.072 2.072 0 00-2.933 0l-2.6 2.6-2.598-2.6a2.072 2.072 0 00-2.933 0 2.082 2.082 0 000 2.933L8.567 46l-2.6 2.599a2.082 2.082 0 000 2.933 2.082 2.082 0 002.933 0l2.599-2.6 2.599 2.6a2.082 2.082 0 002.932 0 2.072 2.072 0 000-2.933L14.431 46z" fill="#000"/><mask id="b" fill="#fff"><use xlink:href="#a"/></mask><path mask="url(#b)" d="M0 184h184V0H0z"/></g></g></svg>