<svg xmlns="http://www.w3.org/2000/svg" xmlns:xlink="http://www.w3.org/1999/xlink" viewBox="0 0 288 288"><defs><style>.cls-1,.cls-5,.cls-6,.cls-9{fill:none;}.cls-1,.cls-9{stroke:#e0e0e0;}.cls-1,.cls-6,.cls-7,.cls-9{stroke-miterlimit:10;}.cls-1{stroke-width:0.5px;}.cls-2{isolation:isolate;}.cls-3{clip-path:url(#clip-path);}.cls-4,.cls-7{fill:#fff;}.cls-5{stroke:#a6c8ff;stroke-linejoin:round;stroke-width:24px;}.cls-5,.cls-8{mix-blend-mode:multiply;}.cls-6,.cls-7{stroke:#d12771;stroke-width:3px;}.cls-10{clip-path:url(#clip-path-2);}</style><clipPath id="clip-path"><rect class="cls-1" width="288" height="288"/></clipPath><clipPath id="clip-path-2"><rect class="cls-1" x="316" width="288" height="288"/></clipPath></defs><title>Artboard 31</title><g class="cls-2"><g id="Graphics"><g class="cls-3"><rect class="cls-4" x="-144" y="-144" width="576" height="576"/><path class="cls-5" d="M768,816C396.86,816,96,515.14,96,144S396.86-528,768-528"/><path class="cls-6" d="M768,816C396.86,816,96,515.14,96,144S396.86-528,768-528"/><rect class="cls-7" x="90" y="138" width="12" height="12"/><g class="cls-8"><line class="cls-1" y1="-144" y2="432"/><line class="cls-9" x1="48" y1="-144" x2="48" y2="432"/><line class="cls-9" x1="96" y1="-144" x2="96" y2="432"/><line class="cls-9" x1="144" y1="-144" x2="144" y2="432"/><line class="cls-9" x1="192" y1="-144" x2="192" y2="432"/><line class="cls-9" x1="240" y1="-144" x2="240" y2="432"/><line class="cls-1" x1="288" y1="-144" x2="288" y2="432"/><line class="cls-1" x1="432" x2="-144"/><line class="cls-9" x1="432" y1="48" x2="-144" y2="48"/><line class="cls-9" x1="432" y1="96" x2="-144" y2="96"/><line class="cls-9" x1="432" y1="144" x2="-144" y2="144"/><line class="cls-9" x1="432" y1="192" x2="-144" y2="192"/><line class="cls-9" x1="432" y1="240" x2="-144" y2="240"/><line class="cls-1" x1="432" y1="288" x2="-144" y2="288"/></g></g><rect class="cls-1" width="288" height="288"/><g class="cls-10"><rect class="cls-4" x="172" y="-144" width="576" height="576"/><g class="cls-8"><line class="cls-1" x1="172" y1="-144" x2="172" y2="432"/><line class="cls-1" x1="220" y1="-144" x2="220" y2="432"/><line class="cls-1" x1="268" y1="-144" x2="268" y2="432"/><line class="cls-1" x1="748" x2="172"/><line class="cls-9" x1="748" y1="48" x2="172" y2="48"/><line class="cls-9" x1="748" y1="96" x2="172" y2="96"/><line class="cls-9" x1="748" y1="144" x2="172" y2="144"/><line class="cls-9" x1="748" y1="192" x2="172" y2="192"/><line class="cls-9" x1="748" y1="240" x2="172" y2="240"/><line class="cls-1" x1="748" y1="288" x2="172" y2="288"/></g></g><rect class="cls-1" x="316" width="288" height="288"/></g></g></svg>