<svg xmlns="http://www.w3.org/2000/svg" viewBox="0 0 288 288"><g fill="none" fill-rule="evenodd"><path fill="#FFF" d="M0 0h288v288H0z"/><path d="M54.8 103.056H42.368V138h-4.704v-34.944H25.232v-4.144H54.8v4.144zm8.232-.728c-1.904 0-2.744-1.008-2.744-2.52v-.728c0-1.512.84-2.52 2.744-2.52 1.904 0 2.744 1.008 2.744 2.52v.728c0 1.512-.84 2.52-2.744 2.52zM60.792 138v-28.896h4.48V138h-4.48zm25.984 0h-5.6c-3.08 0-4.76-1.96-4.76-4.76v-20.216h-4.76v-3.92h2.688c1.904 0 2.52-.672 2.52-2.632v-5.376h4.032v8.008h6.328v3.92h-6.328v21.056h5.88V138zm16.408 0h-3.976c-3.08 0-4.76-1.96-4.76-4.648V96.56h4.48v37.52h4.256V138zm17.36.672c-7.84 0-12.992-5.936-12.992-15.12s5.152-15.12 12.992-15.12c7.728 0 12.488 5.936 12.488 14.112v2.128h-20.776v1.344c0 4.984 3.192 8.736 8.568 8.736 3.64 0 6.44-1.792 7.952-4.984l3.192 2.296c-1.848 3.92-5.992 6.608-11.424 6.608zm0-26.488c-4.872 0-8.288 3.696-8.288 8.736v.392h15.96v-.616c0-5.096-3.08-8.512-7.672-8.512z" fill="#3D3D3D"/><path d="M40.184 198.672c-6.272 0-10.696-2.576-13.832-6.832l3.472-2.912c2.744 3.64 5.992 5.6 10.528 5.6 5.6 0 8.624-2.912 8.624-7.392 0-3.696-2.072-5.544-7.224-6.72l-3.192-.728c-7.112-1.624-11.032-4.76-11.032-10.752 0-6.944 5.264-10.696 12.936-10.696 5.88 0 10.024 2.24 12.936 6.384l-3.528 2.576c-2.128-2.968-5.096-4.816-9.632-4.816-4.984 0-8.064 2.184-8.064 6.384 0 3.696 2.408 5.376 7.336 6.496l3.192.728c7.616 1.736 10.92 5.096 10.92 10.92 0 7.168-5.04 11.76-13.44 11.76zm38.92-.672v-4.704h-.224c-1.12 2.744-3.304 5.376-8.12 5.376-5.936 0-9.744-4.032-9.744-11.032v-18.536h4.48v17.752c0 5.152 2.296 7.784 6.608 7.784 3.528 0 7-1.736 7-5.544v-19.992h4.48V198h-4.48zm14 0v-41.44h4.48v17.248h.224c1.512-3.64 4.48-5.376 8.456-5.376 7.224 0 11.76 5.88 11.76 15.12 0 9.24-4.536 15.12-11.76 15.12-3.976 0-6.72-1.792-8.456-5.376h-.224V198h-4.48z" fill="#8C8C8C"/><path d="M105.032 194.64c5.04 0 8.176-3.472 8.176-8.624v-4.928c0-5.152-3.136-8.624-8.176-8.624-4.088 0-7.448 2.352-7.448 5.544v10.752c0 3.752 3.36 5.88 7.448 5.88z" fill="#FFF"/><path d="M137.232 198h-5.6c-3.08 0-4.76-1.96-4.76-4.76v-20.216h-4.76v-3.92h2.688c1.904 0 2.52-.672 2.52-2.632v-5.376h4.032v8.008h6.328v3.92h-6.328v21.056h5.88V198zm9.912-35.672c-1.904 0-2.744-1.008-2.744-2.52v-.728c0-1.512.84-2.52 2.744-2.52 1.904 0 2.744 1.008 2.744 2.52v.728c0 1.512-.84 2.52-2.744 2.52zM144.904 198v-28.896h4.48V198zm25.984 0h-5.6c-3.08 0-4.76-1.96-4.76-4.76v-20.216h-4.76v-3.92h2.688c1.904 0 2.52-.672 2.52-2.632v-5.376h4.032v8.008h6.328v3.92h-6.328v21.056h5.88V198zm16.408 0h-3.976c-3.08 0-4.76-1.96-4.76-4.648V156.56h4.48v37.52h4.256V198zm17.36.672c-7.84 0-12.992-5.936-12.992-15.12s5.152-15.12 12.992-15.12c7.728 0 12.488 5.936 12.488 14.112v2.128h-20.776v1.344c0 4.984 3.192 8.736 8.568 8.736 3.64 0 6.44-1.792 7.952-4.984l3.192 2.296c-1.848 3.92-5.992 6.608-11.424 6.608z" fill="#8C8C8C"/><path d="M204.656 172.184c-4.872 0-8.288 3.696-8.288 8.736v.392h15.96v-.616c0-5.096-3.08-8.512-7.672-8.512z" fill="#FFF"/></g></svg>