<svg xmlns="http://www.w3.org/2000/svg" viewBox="0 0 32 32"><defs><linearGradient id="hg66gz6gra" x1="1371.133" y1="1342.195" x2="1354.533" y2="1342.195" gradientTransform="translate(-1348.365 -1315.195)" gradientUnits="userSpaceOnUse"><stop offset=".4"/><stop offset="1" stop-opacity="0"/></linearGradient><linearGradient id="do9v10kudc" y1="32" x2="32" gradientUnits="userSpaceOnUse"><stop offset=".1" stop-color="#6fdc8c"/><stop offset=".9" stop-color="#009d9a"/></linearGradient><mask id="bwlkalp85b" x="0" y="0" width="32" height="32" maskUnits="userSpaceOnUse"><path d="M26 4.02H6a2 2 0 0 0-2 2V26a2 2 0 0 0 2 2h15.725v-2H6V6.02h20v5.985h2V6.02a2 2 0 0 0-2-2z" fill="#fff"/><path fill="url(#hg66gz6gra)" d="M6 25h17v4H6z"/></mask></defs><g data-name="Layer 2"><g data-name="Dark theme icons"><g mask="url(#bwlkalp85b)"><path fill="url(#do9v10kudc)" d="M0 0h32v32H0z"/></g><path d="M26 18h-8.17l2.59-2.59L19 14l-5 5 5 5 1.41-1.41L17.83 20H26v8h2v-8a2 2 0 0 0-2-2z" fill="#f4f4f4"/></g></g></svg>