<svg xmlns="http://www.w3.org/2000/svg" viewBox="0 0 32 32"><defs><linearGradient id="bh8a6anjza" x1="3559.976" y1="2889.976" x2="3559.976" y2="2879.976" gradientTransform="translate(-3547.976 -2859.976)" gradientUnits="userSpaceOnUse"><stop offset=".1"/><stop offset="1" stop-opacity="0"/></linearGradient><linearGradient id="z38r4r5kbc" y1="32" x2="32" gradientUnits="userSpaceOnUse"><stop offset=".1" stop-color="#ff7eb6"/><stop offset=".9" stop-color="#a56eff"/></linearGradient><mask id="q2b3331nkb" x="0" y="0" width="32" height="32" maskUnits="userSpaceOnUse"><path d="M28 11h-6V7a3 3 0 0 0-3-3h-6a3 3 0 0 0-3 3v4H4a1 1 0 0 0-.988 1.152l1.869 12.153A1.99 1.99 0 0 0 6.858 26H16v-2H6.858L5.166 13H28zM12 7a1 1 0 0 1 1-1h6a1 1 0 0 1 1 1v4h-8z" fill="#fff"/><path transform="rotate(-90 12 25)" fill="url(#bh8a6anjza)" d="M10 20h4v10h-4z"/></mask></defs><g data-name="Layer 2"><g data-name="Dark theme icons"><g mask="url(#q2b3331nkb)"><path fill="url(#z38r4r5kbc)" d="M0 0h32v32H0z"/></g><path fill="#f4f4f4" d="M17 24h4v4h-4zm7 0h4v4h-4zm-7-7h4v4h-4zm7 0h4v4h-4z"/></g></g></svg>