<svg xmlns="http://www.w3.org/2000/svg" xmlns:xlink="http://www.w3.org/1999/xlink" viewBox="0 0 32 32"><defs><style>.cls-1{fill:#fff;}.cls-2{fill:none;}.cls-3{fill:url(#linear-gradient);}.cls-4{mask:url(#mask);}.cls-5{fill:url(#linear-gradient-2);}.cls-6{fill:#f4f4f4;}</style><linearGradient id="linear-gradient" x1="-3363.5" y1="3831.5" x2="-3354.5" y2="3831.5" gradientTransform="translate(3365 -3810)" gradientUnits="userSpaceOnUse"><stop offset="0.2"/><stop offset="1" stop-opacity="0"/></linearGradient><mask id="mask" x="0" y="0" width="32" height="32" maskUnits="userSpaceOnUse"><path class="cls-1" d="M27,8H6.828l3.586-3.586L9,3,3,9l6,6,1.414-1.414L6.828,10H27V26H7V18.036H5V26a2,2,0,0,0,2,2H27a2,2,0,0,0,2-2V10A2,2,0,0,0,27,8Z"/><rect id="_Transparent_Rectangle_" data-name="&lt;Transparent Rectangle&gt;" class="cls-2" width="32" height="32"/><rect class="cls-3" x="1.5" y="17.5" width="9" height="8" transform="translate(27.5 15.5) rotate(90)"/></mask><linearGradient id="linear-gradient-2" y1="32" x2="32" gradientUnits="userSpaceOnUse"><stop offset="0.1" stop-color="#be95ff"/><stop offset="0.9" stop-color="#4589ff"/></linearGradient></defs><g id="Layer_2" data-name="Layer 2"><g id="Dark_theme_icons" data-name="Dark theme icons"><g class="cls-4"><rect class="cls-5" width="32" height="32"/></g><polygon class="cls-6" points="21 17 18 17 18 14 16 14 16 17 13 17 13 19 16 19 16 22 18 22 18 19 21 19 21 17"/></g></g></svg>