<svg xmlns="http://www.w3.org/2000/svg" viewBox="0 0 32 32"><defs><linearGradient id="2htat60w9a" x1="8.222" y1="6.222" x2="23.778" y2="21.778" gradientUnits="userSpaceOnUse"><stop offset=".3" stop-opacity="0"/><stop offset=".68"/></linearGradient><linearGradient id="lwoqegxgob" x1="811" y1="6784" x2="825" y2="6784" gradientTransform="translate(-804 -6758)" gradientUnits="userSpaceOnUse"><stop offset=".1"/><stop offset="1" stop-opacity="0"/></linearGradient><linearGradient id="14p5cfvghd" y1="32" x2="32" gradientUnits="userSpaceOnUse"><stop offset=".1" stop-color="#3ddbd9"/><stop offset=".9" stop-color="#4589ff"/></linearGradient><mask id="tyntl25csc" x="0" y="0" width="32" height="32" maskUnits="userSpaceOnUse"><path d="M16 6a8.024 8.024 0 0 1 7.865 6.493l.259 1.346 1.349.244A5.5 5.5 0 0 1 24.508 25H7.5a5.5 5.5 0 0 1-.969-10.917l1.349-.244.259-1.346A8.025 8.025 0 0 1 16 6m0-2a10.024 10.024 0 0 0-9.83 8.115A7.5 7.5 0 0 0 7.491 27h17.017a7.5 7.5 0 0 0 1.321-14.885A10.024 10.024 0 0 0 15.988 4z" fill="#fff"/><circle cx="16" cy="14" r="11" fill="url(#2htat60w9a)"/><path d="M20 12h12v17H20z"/><path transform="rotate(180 14 26)" fill="url(#lwoqegxgob)" d="M7 24h14v4H7z"/></mask></defs><g data-name="Layer 2"><g data-name="Dark theme icons"><g mask="url(#tyntl25csc)"><path fill="url(#14p5cfvghd)" d="M0 0h32v32H0z"/></g><path d="M25.5 14H17l2.414-2.586L18 10l-5 5 5 5 1.414-1.414L17 16h8.5a4.5 4.5 0 0 1 0 9H21v2h4.5a6.5 6.5 0 0 0 0-13z" fill="#f4f4f4"/></g></g></svg>