<svg xmlns="http://www.w3.org/2000/svg" xmlns:xlink="http://www.w3.org/1999/xlink" viewBox="0 0 32 32"><defs><linearGradient id="z2uv2on5fb" x1="8" y1="8.006" x2="17" y2="8.006" gradientUnits="userSpaceOnUse"><stop offset=".3"/><stop offset=".9" stop-opacity="0"/></linearGradient><linearGradient id="uep5e6s31a" x1="-2725.5" y1="-1512.494" x2="-2716.5" y2="-1512.494" gradientTransform="translate(2748 1529)" gradientUnits="userSpaceOnUse"><stop offset=".4"/><stop offset="1" stop-opacity="0"/></linearGradient><linearGradient id="sm84w6nfjc" x1="-4248" y1="1250.506" x2="-4239" y2="1250.506" gradientTransform="translate(4254 -1228)" xlink:href="#uep5e6s31a"/><linearGradient id="43diijwvee" y1="32" x2="32" gradientUnits="userSpaceOnUse"><stop offset=".1" stop-color="#6fdc8c"/><stop offset=".9" stop-color="#009d9a"/></linearGradient><mask id="mmk4s0xfcd" x="0" y="0" width="32" height="32" maskUnits="userSpaceOnUse"><path d="M14 24.006 8 24a4.008 4.008 0 0 1-4-4v-4h2v4a2 2 0 0 0 2 2h6zM24 24h-2v-2h2a2 2 0 0 0 2-2v-6.994h2V20a4.008 4.008 0 0 1-4 4zM9 7.003h11v2H9z" fill="#fff"/><path fill="url(#z2uv2on5fb)" d="M8 6.006h9v4H8z"/><path transform="rotate(90 27 16.506)" fill="url(#uep5e6s31a)" d="M22.5 14.506h9v4h-9z"/><path transform="rotate(180 10.5 22.506)" fill="url(#sm84w6nfjc)" d="M6 20.006h9v5H6z"/></mask></defs><g data-name="Layer 2"><g data-name="Dark theme icons"><g mask="url(#mmk4s0xfcd)"><path fill="url(#43diijwvee)" d="M0 0h32v32H0z"/></g><path d="M17 16h-2v2h-1a2 2 0 0 0-2 2v2a2 2 0 0 0 2 2h4v2h-6v2h3v2h2v-2h1a2 2 0 0 0 2-2v-2.006a2 2 0 0 0-2-2h-4v-2h6V18h-3zM6.234 9H9V7H5.4a1.977 1.977 0 0 1 .309-2.414 2.048 2.048 0 0 1 2.829 0L9.95 3.172a4.1 4.1 0 0 0-5.657 0A3.971 3.971 0 0 0 3.121 6a4.016 4.016 0 0 0 .141 1H2v2h2.212a2.719 2.719 0 0 1-.406 2.052A2.276 2.276 0 0 1 2 12v2h8v-2H5.567a4.627 4.627 0 0 0 .667-3zM27 7.414l3.707-3.707-1.414-1.414L26 5.586l-3.293-3.293-1.414 1.414L25 7.414V9h-3v2h3v3h2v-3h3V9h-3V7.414z" fill="#f4f4f4"/></g></g></svg>