<svg xmlns="http://www.w3.org/2000/svg" xmlns:xlink="http://www.w3.org/1999/xlink" viewBox="0 0 32 32"><defs><linearGradient id="022_svg__a" x1="85" y1="-27.5" x2="93" y2="-27.5" gradientTransform="translate(-80 47)" gradientUnits="userSpaceOnUse"><stop offset=".001" stop-opacity="0"/><stop offset=".7"/></linearGradient><linearGradient id="022_svg__b" x1="-618" y1="7007.5" x2="-610" y2="7007.5" gradientTransform="translate(637 -6988)" xlink:href="#022_svg__a"/><linearGradient id="022_svg__d" y1="32" x2="32" gradientUnits="userSpaceOnUse"><stop offset=".1" stop-color="#3ddbd9"/><stop offset=".9" stop-color="#4589ff"/></linearGradient><mask id="022_svg__c" x="0" y="0" width="32" height="32" maskUnits="userSpaceOnUse"><path d="M24.8 9.136a8.994 8.994 0 00-17.6 0A6.5 6.5 0 008.5 22H12v-2H8.5a4.5 4.5 0 01-.356-8.981l.816-.064.1-.812a6.994 6.994 0 0113.884 0l.1.812.816.064A4.5 4.5 0 0123.5 20H20v2h3.5a6.5 6.5 0 001.3-12.864z" fill="#fff"/><path fill="url(#022_svg__a)" d="M5 16h8v7H5z" data-name="Gradients (black)"/><path transform="rotate(180 23 19.5)" fill="url(#022_svg__b)" d="M19 16h8v7h-8z" data-name="Gradients (black)"/></mask></defs><g data-name="Layer 2"><g data-name="Dark theme icons"><g mask="url(#022_svg__c)"><path fill="url(#022_svg__d)" d="M0 0h32v32H0z"/></g><path fill="#f4f4f4" d="M17 26.17V14h-2v12.17l-2.59-2.58L11 25l5 5 5-5-1.41-1.41L17 26.17z"/></g></g></svg>