<svg xmlns="http://www.w3.org/2000/svg" xmlns:xlink="http://www.w3.org/1999/xlink" viewBox="0 0 32 32"><defs><linearGradient id="xcuqf1qxka" x1="13" y1="7.5" x2="26" y2="7.5" gradientUnits="userSpaceOnUse"><stop offset=".4"/><stop offset="1" stop-opacity="0"/></linearGradient><linearGradient id="28iybl9bsb" x1="-3754.5" y1="3561" x2="-3741.5" y2="3561" gradientTransform="translate(3772.5 -3541.5)" xlink:href="#xcuqf1qxka"/><linearGradient id="9lv438aurc" x1="-201" y1="7339.5" x2="-188" y2="7339.5" gradientTransform="translate(207 -7315)" xlink:href="#xcuqf1qxka"/><linearGradient id="hotdhswivd" x1="3577.5" y1="3795" x2="3590.5" y2="3795" gradientTransform="translate(-3576.5 -3782.5)" xlink:href="#xcuqf1qxka"/><linearGradient id="3wm1q4l8hf" y1="32" x2="32" gradientUnits="userSpaceOnUse"><stop offset=".1" stop-color="#ff7eb6"/><stop offset=".9" stop-color="#a56eff"/></linearGradient><mask id="la1eoe97be" x="0" y="0" width="32" height="32" maskUnits="userSpaceOnUse"><path d="M0 0h32v32H0z"/><path d="M16 3a13 13 0 1 0 13 13A13.015 13.015 0 0 0 16 3zm0 24a11 11 0 1 1 11-11 11.013 11.013 0 0 1-11 11z" fill="#fff"/><path fill="url(#xcuqf1qxka)" d="M13 2h13v11H13z"/><path transform="rotate(90 24.5 19.5)" fill="url(#28iybl9bsb)" d="M18 14h13v11H18z"/><path transform="rotate(180 12.5 24.5)" fill="url(#9lv438aurc)" d="M6 19h13v11H6z"/><path transform="rotate(-90 7.5 12.5)" fill="url(#hotdhswivd)" d="M1 7h13v11H1z"/></mask></defs><g data-name="Layer 2"><g data-name="Dark theme icons"><g mask="url(#la1eoe97be)"><path fill="url(#3wm1q4l8hf)" d="M0 0h32v32H0z"/></g><path d="M17 6h-2V2h2zm0 20h-2v4h2zm13-9v-2h-4v2zM6 17v-2H2v2zm10 1a2 2 0 0 0 2-2 2 2 0 0 0-2-2 2 2 0 0 0-2 2 2 2 0 0 0 2 2z" fill="#f4f4f4"/></g></g></svg>