<svg xmlns="http://www.w3.org/2000/svg" viewBox="0 0 32 32"><defs><linearGradient id="mo2xurvdna" x1="72.5" y1="-22.523" x2="82.658" y2="-22.523" gradientTransform="translate(-66.5 49.5)" gradientUnits="userSpaceOnUse"><stop offset=".001" stop-opacity="0"/><stop offset=".7"/></linearGradient><linearGradient id="14xv6qocrc" y1="32" x2="32" gradientUnits="userSpaceOnUse"><stop offset=".1" stop-color="#6fdc8c"/><stop offset=".9" stop-color="#009d9a"/></linearGradient><mask id="48x445b2cb" x="0" y="0" width="32" height="32" maskUnits="userSpaceOnUse"><path d="M26 3.977h-4v-2h-2v2h-8v-2h-2v2H6a2 2 0 0 0-2 2v20a2 2 0 0 0 2 2h10v-2H6v-20h4v2h2v-2h8v2h2v-2h4V10h2V5.977a2 2 0 0 0-2-2z" fill="#fff"/><path fill="url(#mo2xurvdna)" d="M6 24.977h10.158v4H6z" data-name="Gradients (black)"/></mask></defs><g data-name="Layer 2"><g data-name="Dark theme icons"><g mask="url(#48x445b2cb)"><path fill="url(#14xv6qocrc)" d="M0 0h32v32H0z"/></g><path d="M27 12v2h1v4a3 3 0 0 1-6 0v-4h1v-2h-3v6a5.009 5.009 0 0 0 4 4.9V24a4 4 0 0 1-8 0v-2.184a3 3 0 1 0-2 0V24a6 6 0 0 0 12 0v-1.1a5.009 5.009 0 0 0 4-4.9v-6zm-12 6a1 1 0 1 1-1 1 1 1 0 0 1 1-1z" fill="#f4f4f4"/></g></g></svg>