<svg xmlns="http://www.w3.org/2000/svg" viewBox="0 0 32 32"><defs><linearGradient id="038_svg__a" x1="74.5" y1="-24" x2="85.5" y2="-24" gradientTransform="translate(-66.5 49.5)" gradientUnits="userSpaceOnUse"><stop offset=".001" stop-opacity="0"/><stop offset=".83"/></linearGradient><linearGradient id="038_svg__c" y1="32" x2="32" gradientUnits="userSpaceOnUse"><stop offset=".1" stop-color="#ff7eb6"/><stop offset=".9" stop-color="#a56eff"/></linearGradient><mask id="038_svg__b" x="0" y="0" width="32" height="32" maskUnits="userSpaceOnUse"><path d="M26 4a2 2 0 00-2-2H8a2 2 0 00-2 2v22a2 2 0 002 2h10v-2H8v-6h18zM8 4h16v6H8zm0 14v-6h16v6z" fill="#fff"/><path fill="url(#038_svg__a)" d="M8 22h11v7H8z" data-name="Gradients (black)"/></mask></defs><g data-name="Layer 2"><g data-name="Dark theme icons"><g mask="url(#038_svg__b)"><path fill="url(#038_svg__c)" d="M0 0h32v32H0z"/></g><path fill="#f4f4f4" d="M24 26h2v4h-2zM20 24h2v6h-2zM28 21h2v9h-2z"/><circle cx="11" cy="23" r="1" fill="#f4f4f4"/><circle cx="11" cy="15" r="1" fill="#f4f4f4"/><circle cx="11" cy="7" r="1" fill="#f4f4f4"/></g></g></svg>