<svg xmlns="http://www.w3.org/2000/svg" xmlns:xlink="http://www.w3.org/1999/xlink" viewBox="0 0 32 32"><defs><linearGradient id="xhsnrvf1pa" x1="74.5" y1="-22.5" x2="89.5" y2="-22.5" gradientTransform="translate(-66.5 49.5)" gradientUnits="userSpaceOnUse"><stop offset=".001" stop-opacity="0"/><stop offset=".8"/></linearGradient><linearGradient id="1iji4p0u1b" x1="74.5" y1="-30.5" x2="89.5" y2="-30.5" xlink:href="#xhsnrvf1pa"/><linearGradient id="2g2rulodjd" y1="32" x2="32" gradientUnits="userSpaceOnUse"><stop offset=".1" stop-color="#6fdc8c"/><stop offset=".9" stop-color="#009d9a"/></linearGradient><mask id="m54jvl2xjc" x="0" y="0" width="32" height="32" maskUnits="userSpaceOnUse"><path d="M26 12V4a2 2 0 0 0-2-2H8a2 2 0 0 0-2 2v22a2 2 0 0 0 2 2h14v-2H8v-6h14v-2H8v-6zM8 10V4h16v6z" fill="#fff"/><path fill="url(#xhsnrvf1pa)" d="M8 25h15v4H8z" data-name="Gradients (black)"/><path fill="url(#1iji4p0u1b)" d="M8 17h15v4H8z" data-name="Gradients (black)"/></mask></defs><g data-name="Layer 2"><g data-name="Dark theme icons"><g mask="url(#m54jvl2xjc)"><path fill="url(#2g2rulodjd)" d="M0 0h32v32H0z"/></g><circle cx="11" cy="23" r="1" fill="#f4f4f4"/><circle cx="11" cy="15" r="1" fill="#f4f4f4"/><circle cx="11" cy="7" r="1" fill="#f4f4f4"/><path d="M29 18h-3v-2h-2v2h-1a2 2 0 0 0-2 2v2a2 2 0 0 0 2 2h4v2h-6v2h3v2h2v-2h1a2 2 0 0 0 2-2v-2.006a2 2 0 0 0-2-2h-4v-2h6z" fill="#f4f4f4"/></g></g></svg>