<svg xmlns="http://www.w3.org/2000/svg" viewBox="0 0 32 32"><defs><linearGradient id="uxh96wj9ra" x1="-6.928" y1="12" x2="30.928" y2="33.856" gradientUnits="userSpaceOnUse"><stop offset=".3"/><stop offset=".7" stop-opacity="0"/></linearGradient><linearGradient id="x10i60y0uc" y1="32" x2="32" gradientUnits="userSpaceOnUse"><stop offset=".1" stop-color="#be95ff"/><stop offset=".9" stop-color="#4589ff"/></linearGradient><mask id="y8h4kgg0vb" x="0" y="0" width="32" height="32" maskUnits="userSpaceOnUse"><path d="M16 30A14.015 14.015 0 0 1 2 16h2a12 12 0 1 0 22.4-6l1.731-1A14 14 0 0 1 16 30z" fill="#fff"/><path fill="url(#uxh96wj9ra)" d="M0 0v32h32L0 0z"/></mask></defs><g data-name="Layer 2"><g data-name="Dark theme icons"><g mask="url(#y8h4kgg0vb)"><path fill="url(#x10i60y0uc)" d="M0 0h32v32H0z"/></g><path d="M16 2A13.975 13.975 0 0 0 4 8.788V4H2v8h8v-2H5.612a12 12 0 0 1 18.873-2.485L25.9 6.1A13.9 13.9 0 0 0 16 2z" fill="#f4f4f4"/></g></g></svg>