<svg xmlns="http://www.w3.org/2000/svg" viewBox="0 0 32 32"><defs><linearGradient id="wvctdnzhla" x1="2533.901" y1="3105.711" x2="2540.901" y2="3105.711" gradientTransform="translate(-2520.151 -3084.211)" gradientUnits="userSpaceOnUse"><stop offset=".2"/><stop offset="1" stop-color="#231f20" stop-opacity="0"/></linearGradient><linearGradient id="50lef8ddcc" y1="32" x2="32" gradientUnits="userSpaceOnUse"><stop offset=".1" stop-color="#be95ff"/><stop offset=".9" stop-color="#4589ff"/></linearGradient><mask id="zlsjjwku9b" x="0" y="0" width="32" height="32" maskUnits="userSpaceOnUse"><path d="M15 16h-4a5.006 5.006 0 0 0-5 5v7h2v-7a3 3 0 0 1 3-3h4a3 3 0 0 1 3 3v3h2v-3a5.006 5.006 0 0 0-5-5z" fill="#f3f3f3"/><path d="M22 2H4v2h4v5a5 5 0 0 0 10 0V4h4zm-9 10a3 3 0 0 1-3-3V8h6v1a3 3 0 0 1-3 3zm3-6h-6V4h6z" fill="#f2f2f2"/><path d="M5 6a1 1 0 0 0-1 1v6h2V7a1 1 0 0 0-1-1z" fill="#f2f2f2"/><path transform="rotate(-90 17.25 21.5)" fill="url(#wvctdnzhla)" d="M13.75 16.75h7v9.5h-7z"/></mask></defs><g data-name="Layer 2"><g data-name="Dark theme icons"><path fill="#f4f4f4" d="M21 22h2v8h-2zm5-4h2v12h-2zm-10 7h2v5h-2z"/><g mask="url(#zlsjjwku9b)"><path fill="url(#50lef8ddcc)" d="M0 0h32v32H0z"/></g></g></g></svg>