<svg xmlns="http://www.w3.org/2000/svg" viewBox="0 0 32 32"><defs><linearGradient id="s2qlq53tra" x1="-5485.835" y1="2135.387" x2="-5501.387" y2="2119.835" gradientTransform="rotate(90 -1683 3832)" gradientUnits="userSpaceOnUse"><stop offset="0" stop-color="#f4f4f4" stop-opacity=".45"/><stop offset="1" stop-color="#f4f4f4" stop-opacity=".15"/></linearGradient><linearGradient id="1y656ku9sb" x1="-5512.099" y1="2130.676" x2="-5497.128" y2="2145.651" gradientTransform="rotate(90 -1683 3832)" gradientUnits="userSpaceOnUse"><stop offset=".1" stop-color="#00b9b5"/><stop offset=".9" stop-color="#0062ff"/></linearGradient></defs><g data-name="Layer 2"><g data-name="Dark theme icons"><path fill="none" d="M32 0v32H0V0z"/><path d="M19 30a11 11 0 0 0 4.175-21.175 11 11 0 0 1-14.35 14.35A11 11 0 0 0 19 30z" fill="url(#s2qlq53tra)"/><path d="M19 8a10.96 10.96 0 0 1 4.175.825 11 11 0 1 0-14.35 14.35A11 11 0 0 1 19 8z" fill="url(#1y656ku9sb)"/><path d="M24 13a10.96 10.96 0 0 0-.825-4.175 11 11 0 0 0-14.35 14.35A11 11 0 0 0 24 13z" fill="#f4f4f4"/></g></g></svg>