<svg xmlns="http://www.w3.org/2000/svg" viewBox="0 0 32 32"><defs><linearGradient id="3i4fzifh1a" x1="7" y1="28.5" x2="26" y2="28.5" gradientUnits="userSpaceOnUse"><stop offset=".1"/><stop offset=".8" stop-opacity="0"/></linearGradient><linearGradient id="84whr3b6sc" y1="32" x2="32" gradientUnits="userSpaceOnUse"><stop offset=".1" stop-color="#be95ff"/><stop offset=".9" stop-color="#4589ff"/></linearGradient><mask id="660wzid47b" x="0" y="0" width="32" height="32" maskUnits="userSpaceOnUse"><path d="M26 2H8a2 2 0 0 0-2 2v4H4v2h2v5H4v2h2v5H4v2h6v-2H8v-5h2v-2H8v-5h2V8H8V4h18v24H8v2h18a2 2 0 0 0 2-2V4a2 2 0 0 0-2-2z" fill="#fff"/><path fill="url(#3i4fzifh1a)" d="M7 26h19v5H7z"/><path fill="#fff" d="M6 24h2v6H6z"/></mask></defs><g data-name="Layer 2"><g data-name="Dark theme icons"><g mask="url(#660wzid47b)"><path fill="url(#84whr3b6sc)" d="M0 0h32v32H0z"/></g><path fill="#f4f4f4" d="M14 8h8v2h-8zm0 7h8v2h-8zm0 7h8v2h-8z"/></g></g></svg>