<svg xmlns="http://www.w3.org/2000/svg" viewBox="0 0 32 32"><defs><linearGradient id="s1hb1kmgfa" x1="18.946" y1="7.054" x2="18.946" y2="21.053" gradientTransform="translate(-10.446 3.946)" gradientUnits="userSpaceOnUse"><stop offset=".2" stop-opacity="0"/><stop offset=".9"/></linearGradient><linearGradient id="ly76jqblbb" x1="29.446" y1="7.054" x2="29.446" y2="21.064" gradientTransform="translate(-10.446 3.946)" gradientUnits="userSpaceOnUse"><stop offset=".101" stop-opacity="0"/><stop offset=".65"/></linearGradient><linearGradient id="cmtvn1di7c" x1="35.446" y1="7.054" x2="35.446" y2="21.064" gradientTransform="translate(-10.446 3.946)" gradientUnits="userSpaceOnUse"><stop offset="0" stop-opacity="0"/><stop offset=".35"/></linearGradient><linearGradient id="xb4a9mvlbe" y1="32" x2="32" gradientUnits="userSpaceOnUse"><stop offset=".1" stop-color="#6fdc8c"/><stop offset=".9" stop-color="#009d9a"/></linearGradient><mask id="v3ff4b0god" x="0" y="0" width="32" height="32" maskUnits="userSpaceOnUse"><path d="m27.342 6.06-11-4a1 1 0 0 0-.684 0l-11 4A1 1 0 0 0 4 7v3a1 1 0 0 0 1 1h1v13h2V11h4v13h2V11h4v13h2V11h4v7h2v-7h1a1 1 0 0 0 1-1V7a1 1 0 0 0-.658-.94zM26 9H6V7.7l10-3.636L26 7.7z" fill="#fff"/><path fill="url(#s1hb1kmgfa)" d="M1 11h15v13.999H1z"/><path fill="url(#ly76jqblbb)" d="M17 11h4v14.01h-4z"/><path fill="url(#cmtvn1di7c)" d="M23 11h4v14.01h-4z"/><path fill="#fff" d="M2 28h16v2H2zm2-4h14v2H4z"/></mask></defs><g data-name="Layer 2"><g data-name="Dark theme icons"><g mask="url(#v3ff4b0god)"><path fill="url(#xb4a9mvlbe)" d="M0 0h32v32H0z"/></g><path d="M29 20h-3v-2h-2v2h-1a2 2 0 0 0-2 2v2a2 2 0 0 0 2 2h4v2h-6v2h3v2h2v-2h1a2 2 0 0 0 2-2v-2a2 2 0 0 0-2-2h-4v-2h6z" fill="#f4f4f4"/></g></g></svg>