<svg xmlns="http://www.w3.org/2000/svg" viewBox="0 0 32 32"><defs><linearGradient id="f2psecl2pa" x1="294.926" y1="7162.641" x2="299.963" y2="7162.641" gradientTransform="matrix(1.585 0 0 .671 -454.594 -4783.257)" gradientUnits="userSpaceOnUse"><stop offset=".2"/><stop offset=".95" stop-opacity="0"/></linearGradient><linearGradient id="23vsvxzhnc" x1=".032" y1="31.817" x2="31.966" y2="-.117" gradientTransform="translate(.001 .15)" gradientUnits="userSpaceOnUse"><stop offset=".1" stop-color="#3ddbd9"/><stop offset=".9" stop-color="#4589ff"/></linearGradient><mask id="ov0tuv0eub" x="0" y="0" width="32" height="32" maskUnits="userSpaceOnUse"><path d="M28.469 14.071A2.018 2.018 0 0 0 30 12.132V8a2 2 0 0 0-2-1.995H4A2 2 0 0 0 2 8v5a1 1 0 0 0 1 1 2 2 0 0 1 0 4 1 1 0 0 0-1 1v5a2 2 0 0 0 2 2h24.01a2 2 0 0 0 2-2v-4.132a2.018 2.018 0 0 0-1.531-1.939 2 2 0 0 1 0-3.858zM28 19.868V24H13v-3h-2v3H4v-4.126a4 4 0 0 0 0-7.748V8h7v3h2V8h15l-.061 4.148a4 4 0 0 0 .061 7.72z" fill="#fff"/><path transform="rotate(.114 25.657 24.602)" d="M20.01 20.011h10.981v8.978H20.01z"/><path transform="rotate(-179.881 17 25.5)" fill="url(#f2psecl2pa)" d="M13.007 22.008h7.986v6.983h-7.986z"/><path d="m29 16-5 5h7v-4.996L29 16z"/><path fill="#fff" d="M11 13h2v6h-2z"/></mask></defs><g data-name="Layer 2"><g data-name="Dark theme icons"><g mask="url(#ov0tuv0eub)"><path transform="rotate(.119 15.905 15.872)" fill="url(#23vsvxzhnc)" d="M.033.033h31.934v31.934H.033z"/></g><path fill="#f4f4f4" d="m25 28 7-7-1.414-1.414L25 25.172l-2.586-2.586L21 24l4 4z"/></g></g></svg>