<svg xmlns="http://www.w3.org/2000/svg" xmlns:xlink="http://www.w3.org/1999/xlink" viewBox="0 0 32 32"><defs><linearGradient id="g6epx8tnya" x1="2427" y1="-3276.5" x2="2438" y2="-3276.5" gradientTransform="translate(-2428 3294)" gradientUnits="userSpaceOnUse"><stop offset=".137"/><stop offset="1" stop-opacity="0"/></linearGradient><linearGradient id="8ai4br7p6b" x1="3038" y1="2446.5" x2="3049" y2="2446.5" gradientTransform="translate(-3018 -2432)" xlink:href="#g6epx8tnya"/><linearGradient id="6hrcmg8hkd" y1="32" x2="32" gradientUnits="userSpaceOnUse"><stop offset=".1" stop-color="#be95ff"/><stop offset=".9" stop-color="#4589ff"/></linearGradient><mask id="p2dzudsevc" x="0" y="0" width="32" height="32" maskUnits="userSpaceOnUse"><circle cx="15" cy="6" r="1" fill="#f3f3f3"/><path d="M11 6H6a1 1 0 0 0-1 1v17m16 2h5a1 1 0 0 0 1-1V8" fill="none" stroke="#fff" stroke-miterlimit="10" stroke-width="2"/><path transform="rotate(-90 4.5 17.5)" fill="url(#g6epx8tnya)" d="M-1 15h11v5H-1z"/><path transform="rotate(90 25.5 14.5)" fill="url(#8ai4br7p6b)" d="M20 11h11v7H20z"/><circle cx="7" cy="26" r="1" fill="#f3f3f3"/><path d="M4 30h16a2 2 0 0 0 2-2v-4a2 2 0 0 0-2-2H4a2 2 0 0 0-2 2v4a2 2 0 0 0 2 2zm0-6h16v4H4zM28 2H12a2 2 0 0 0-2 2v4a2 2 0 0 0 2 2h16a2 2 0 0 0 2-2V4a2 2 0 0 0-2-2zm0 6H12V4h16z" fill="#fff"/></mask></defs><g data-name="Layer 2"><g data-name="Dark theme icons"><g mask="url(#p2dzudsevc)"><path fill="url(#6hrcmg8hkd)" d="M0 0h32v32H0z"/></g><path fill="#f4f4f4" d="M12 13h9v2h-9zm0 4h6v2h-6z"/></g></g></svg>