<svg xmlns="http://www.w3.org/2000/svg" viewBox="0 0 32 32"><defs><linearGradient id="obqln159ka" x1="16.004" y1="22.997" x2="30.002" y2="22.997" gradientUnits="userSpaceOnUse"><stop offset="0" stop-color="#f4f4f4" stop-opacity=".45"/><stop offset="1" stop-color="#f4f4f4" stop-opacity=".15"/></linearGradient><linearGradient id="ydizgajp8b" x1="16.002" y1="8.997" x2="25.904" y2="8.997" gradientUnits="userSpaceOnUse"><stop offset="0" stop-color="#f4f4f4" stop-opacity=".15"/><stop offset="1" stop-color="#f4f4f4" stop-opacity=".45"/></linearGradient><linearGradient id="m4x4197alc" x1="19.142" y1="5.476" x2="2.976" y2="30.068" gradientUnits="userSpaceOnUse"><stop offset="0" stop-color="#ba8dff"/><stop offset="1" stop-color="#418bff"/></linearGradient></defs><g data-name="Layer 2"><g data-name="Dark theme icons"><path fill="none" d="M0 0h32v32H0z"/><path d="M16 30a14 14 0 0 0 14-14H16" fill="url(#obqln159ka)"/><path d="M16.006 2v14l9.9-9.9a13.953 13.953 0 0 0-9.9-4.1z" fill="url(#ydizgajp8b)"/><path d="M25.9 6.1 16 16h14a13.953 13.953 0 0 0-4.1-9.9z" fill="#f4f4f4"/><path d="M16 2a14 14 0 0 0 0 28z" fill="url(#m4x4197alc)"/></g></g></svg>