<svg xmlns="http://www.w3.org/2000/svg" viewBox="0 0 32 32"><defs><linearGradient id="b8qkbamq6a" x1="18.5" y1="22.5" x2="29.5" y2="11.5" gradientUnits="userSpaceOnUse"><stop offset=".5"/><stop offset=".95" stop-opacity="0"/></linearGradient><linearGradient id="ryn542l21c" y1="32" x2="32" gradientUnits="userSpaceOnUse"><stop offset=".1" stop-color="#be95ff"/><stop offset=".9" stop-color="#4589ff"/></linearGradient><mask id="u765hgopkb" x="0" y="0" width="32" height="32" maskUnits="userSpaceOnUse"><path d="M27.79 6.238a7.495 7.495 0 0 0-10.684 0l-1.1 1.127-1.112-1.127a7.5 7.5 0 0 0-10.685 0 7.733 7.733 0 0 0 0 10.824L16 28.994l1.425-1.426-11.78-11.923a5.708 5.708 0 0 1 0-7.99 5.479 5.479 0 0 1 7.814 0l2.553 2.587 2.529-2.587a5.479 5.479 0 0 1 7.814 0 5.708 5.708 0 0 1 0 7.99l-6.314 6.4 1.426 1.426 6.323-6.4a7.733 7.733 0 0 0 0-10.833z" fill="#f2f2f2"/><path fill="url(#b8qkbamq6a)" d="m27 9 4 5-10 11-5-5L27 9z"/></mask></defs><g data-name="Layer 2"><g data-name="Dark theme icons"><g mask="url(#u765hgopkb)"><path fill="url(#ryn542l21c)" d="M0 0h32v32H0z"/></g><path fill="#f4f4f4" d="M28 20h-4v-4h-2v4h-4v2h4v4h2v-4h4v-2z"/></g></g></svg>