<svg xmlns="http://www.w3.org/2000/svg" viewBox="0 0 32 32"><defs><linearGradient id="131_svg__a" x1="28" y1="9" x2="28" y2="17" gradientUnits="userSpaceOnUse"><stop offset=".15" stop-opacity="0"/><stop offset=".8"/></linearGradient><linearGradient id="131_svg__b" x1="7.25" y1="31.25" x2="16.75" y2="21.75" gradientUnits="userSpaceOnUse"><stop offset=".4" stop-opacity="0"/><stop offset=".8"/></linearGradient><linearGradient id="131_svg__d" y1="32" x2="32" gradientUnits="userSpaceOnUse"><stop offset=".1" stop-color="#3ddbd9"/><stop offset=".9" stop-color="#4589ff"/></linearGradient><mask id="131_svg__c" x="0" y="0" width="32" height="32" maskUnits="userSpaceOnUse"><path d="M26.223 3.582a8.8 8.8 0 00-5.967-1.649 9.027 9.027 0 00-7.868 11.611L2 23.933v6h6l10.388-10.389A9 9 0 0030 10.933a9.067 9.067 0 00-3.777-7.351zm-9 1.436a6.705 6.705 0 014-1.085 7.01 7.01 0 015.991 10.235 7.132 7.132 0 01-8.443 3.4l-.948-.287-.847.847-9.8 9.8H4v-3.167l2.207-2.207 1.379 1.379L9 22.518 7.621 21.14l1.586-1.586 1.379 1.379L12 19.518l-1.378-1.378 3.178-3.181.847-.848-.347-1.146a7.027 7.027 0 012.922-7.947z" fill="#fff"/><circle cx="22" cy="9.933" r="2" fill="#fff"/><path fill-rule="evenodd" d="M29 17l-11 7-6-4 8-5 9 2z"/><path fill="url(#131_svg__a)" d="M25 9h6v8h-6z"/><path fill="url(#131_svg__b)" fill-rule="evenodd" d="M16 21h-5l-6 8h11v-8z"/></mask></defs><g data-name="Layer 2"><g data-name="Dark theme icons"><g mask="url(#131_svg__c)"><path fill="url(#131_svg__d)" d="M0 0h32v32H0z"/></g><path fill="#f4f4f4" d="M17 26h4v4h-4zM24 26h4v4h-4zM17 19h4v4h-4zM24 19h4v4h-4z"/></g></g></svg>