<svg xmlns="http://www.w3.org/2000/svg" xmlns:xlink="http://www.w3.org/1999/xlink" viewBox="0 0 32 32"><defs><style>.cls-1{fill:#fff;}.cls-2,.cls-4{fill-rule:evenodd;}.cls-3{fill:url(#linear-gradient);}.cls-4{fill:url(#linear-gradient-2);}.cls-5{mask:url(#mask);}.cls-6{fill:url(#linear-gradient-3);}.cls-7{fill:#f4f4f4;}</style><linearGradient id="linear-gradient" x1="28" y1="9" x2="28" y2="17" gradientUnits="userSpaceOnUse"><stop offset="0.15" stop-opacity="0"/><stop offset="0.8"/></linearGradient><linearGradient id="linear-gradient-2" x1="7.25" y1="31.25" x2="16.75" y2="21.75" gradientUnits="userSpaceOnUse"><stop offset="0.4" stop-opacity="0"/><stop offset="0.8"/></linearGradient><mask id="mask" x="0" y="0" width="32" height="32" maskUnits="userSpaceOnUse"><path class="cls-1" d="M26.223,3.582a8.8,8.8,0,0,0-5.967-1.649,9.027,9.027,0,0,0-7.868,11.611L2,23.933v6H8L18.388,19.544A9,9,0,0,0,30,10.933,9.067,9.067,0,0,0,26.223,3.582Zm-9,1.436a6.705,6.705,0,0,1,4-1.085,7.01,7.01,0,0,1,5.991,10.235,7.132,7.132,0,0,1-8.443,3.4l-.948-.287-.847.847-9.8,9.8H4V24.761l2.207-2.207,1.379,1.379L9,22.518,7.621,21.14l1.586-1.586,1.379,1.379L12,19.518,10.622,18.14,13.8,14.959l.847-.848L14.3,12.965a7.027,7.027,0,0,1,2.922-7.947Z"/><circle class="cls-1" cx="22" cy="9.933" r="2"/><polygon class="cls-2" points="29 17 18 24 12 20 20 15 29 17"/><rect class="cls-3" x="25" y="9" width="6" height="8"/><polygon class="cls-4" points="16 21 11 21 5 29 16 29 16 21"/></mask><linearGradient id="linear-gradient-3" y1="32" x2="32" gradientUnits="userSpaceOnUse"><stop offset="0.1" stop-color="#3ddbd9"/><stop offset="0.9" stop-color="#4589ff"/></linearGradient></defs><g id="Layer_2" data-name="Layer 2"><g id="Dark_theme_icons" data-name="Dark theme icons"><g class="cls-5"><rect class="cls-6" width="32" height="32"/></g><rect class="cls-7" x="17" y="26" width="4" height="4"/><rect class="cls-7" x="24" y="26" width="4" height="4"/><rect class="cls-7" x="17" y="19" width="4" height="4"/><rect class="cls-7" x="24" y="19" width="4" height="4"/></g></g></svg>