<svg xmlns="http://www.w3.org/2000/svg" viewBox="0 0 32 32"><defs><linearGradient id="nsajnqnlga" x1="216.732" y1="-1771.608" x2="202.865" y2="-1785.474" gradientTransform="rotate(45 -2043.356 -1126.12)" gradientUnits="userSpaceOnUse"><stop offset=".05" stop-opacity="0"/><stop offset=".75"/></linearGradient><linearGradient id="2gyyv6b3ec" y1="32" x2="32" gradientUnits="userSpaceOnUse"><stop offset=".1" stop-color="#ff7eb6"/><stop offset=".9" stop-color="#a56eff"/></linearGradient><mask id="nsush4xn6b" x="0" y="0" width="32" height="32" maskUnits="userSpaceOnUse"><path d="m29.707 28.293-7.259-7.259A11 11 0 1 0 5.2 7.405l1.6 1.2a9 9 0 1 1 0 10.8l-1.6 1.2a10.988 10.988 0 0 0 15.834 1.842l7.259 7.259z" fill="#fff"/><path transform="rotate(-90 11.194 5.77)" fill="url(#nsajnqnlga)" d="M6.7-4.036h8.99v19.61H6.7z"/></mask></defs><g data-name="Layer 2"><g data-name="Dark theme icons"><g mask="url(#nsush4xn6b)"><path data-name="Color" fill="url(#2gyyv6b3ec)" d="M0 0h32v32H0z"/></g><path d="M14 12a2 2 0 1 1-2 2 2 2 0 0 1 2-2m0-2a4 4 0 1 0 4 4 4 4 0 0 0-4-4zm15 2a2 2 0 1 0 2 2 2 2 0 0 0-2-2zM4 12a2 2 0 1 0 2 2 2 2 0 0 0-2-2z" fill="#f4f4f4"/></g></g></svg>