<svg id="_507Unassigned" data-name="507Unassigned" xmlns="http://www.w3.org/2000/svg" viewBox="0 0 32 32"><defs><linearGradient id="260a1artfa" x1="-3042" y1="21" x2="-3069" y2="21" gradientTransform="matrix(1 0 0 -1 3069 42)" gradientUnits="userSpaceOnUse"><stop offset=".172" stop-opacity="0"/><stop offset=".6"/></linearGradient><linearGradient id="83qlgb5xuc" x1="1952" y1="32" x2="1984" y2="0" gradientTransform="translate(-1952)" gradientUnits="userSpaceOnUse"><stop offset=".1" stop-color="#be95ff"/><stop offset=".9" stop-color="#4589ff"/></linearGradient><mask id="8eyx8z9tmb" x="0" y="0" width="32" height="32" maskUnits="userSpaceOnUse"><path d="M16 27C9.791 27 3.399 22.497 1.13 16.526l-.064-.166a1 1 0 0 1 1.866-.72l.066.171C4.989 21.052 10.577 25 15.999 25s11.011-3.948 13-9.184l.065-.171a1 1 0 0 1 1.87.71l-.065.171C28.601 22.497 22.209 27 16 27z" style="fill:#fff;stroke-width:0"/><path transform="rotate(180 13.5 21)" style="fill:url(#260a1artfa);stroke-width:0" d="M0 14h27v14H0z"/><path style="fill:#000;stroke-width:0" d="M26 14h6v14h-6z"/><path d="m29.066 16.357-.065-.171c-1.99-5.238-7.578-9.187-13-9.187s-11.011 3.948-13 9.184l-.066.173a1 1 0 1 1-1.869-.715l.065-.171C3.398 9.501 9.791 4.998 16 4.998s12.602 4.503 14.87 10.474l.064.168" style="fill:#fff;stroke-width:0"/></mask></defs><g style="mask:url(#8eyx8z9tmb)"><path style="fill:url(#83qlgb5xuc);stroke-width:0" d="M0 0h32v32H0z"/></g><circle cx="16" cy="16" r="2" style="fill:#f4f4f4;stroke-width:0"/><circle cx="28" cy="4" r="2" style="fill:#f4f4f4;stroke-width:0"/><circle cx="4" cy="4" r="2" style="fill:#f4f4f4;stroke-width:0"/><path d="M16 10c-3.309 0-6 2.691-6 6s2.691 6 6 6 6-2.691 6-6-2.691-6-6-6zm0 10c-2.206 0-4-1.794-4-4s1.794-4 4-4 4 1.794 4 4-1.794 4-4 4z" style="fill:#f4f4f4;stroke-width:0"/><circle cx="4.01" cy="28" r="2" style="fill:#f4f4f4;stroke-width:0"/><path d="M28 23v3.574c0 .769-.449 1.479-1.145 1.808l-.855.405-.856-.405A2.008 2.008 0 0 1 24 26.575v-3.574h4M30 21h-8v5.574c0 1.538.898 2.958 2.289 3.615L26 31l1.711-.811A4.016 4.016 0 0 0 30 26.574V21z" style="fill:#f4f4f4;stroke-width:0"/></svg>