<svg id="_金融商品適合性チェック支援AI" data-name="金融商品適合性チェック支援AI" xmlns="http://www.w3.org/2000/svg" xmlns:xlink="http://www.w3.org/1999/xlink" viewBox="0 0 32 32"><defs><linearGradient id="pg5jiw52fa" x1="2213.377" y1="-4523.81" x2="2224.968" y2="-4520.704" gradientTransform="rotate(165 815.356 -2394.8)" gradientUnits="userSpaceOnUse"><stop offset=".2"/><stop offset=".8" stop-opacity="0"/></linearGradient><linearGradient id="obo4fzsnlc" x1="-797.903" y1="-850.6" x2="-782.956" y2="-846.596" gradientTransform="translate(815.975 863.535)" xlink:href="#pg5jiw52fa"/><linearGradient id="ctmsio3isb" x1="1182.969" y1="-7595.345" x2="1182.969" y2="-7607.345" gradientTransform="matrix(1 0 0 -1 -1166.969 -7597.345)" gradientUnits="userSpaceOnUse"><stop offset=".2"/><stop offset="1" stop-opacity="0"/></linearGradient><linearGradient id="xkzlfkujed" x1="714.969" y1="-5375.345" x2="714.969" y2="-5387.345" gradientTransform="matrix(1 0 0 -1 -687.969 -5362.345)" xlink:href="#ctmsio3isb"/><linearGradient id="bfv7936one" x1="-839.281" y1="-654.968" x2="-839.281" y2="-659.968" gradientTransform="matrix(1 0 0 1.353 866.192 900.799)" gradientUnits="userSpaceOnUse"><stop offset=".1" stop-opacity="0"/><stop offset=".8"/></linearGradient><linearGradient id="wk8uygig8g" x1="-.001" y1="32.001" x2="31.999" y2=".001" gradientTransform="translate(.001 -.001)" gradientUnits="userSpaceOnUse"><stop offset=".1" stop-color="#be95ff"/><stop offset=".9" stop-color="#4589ff"/></linearGradient><mask id="ye6djcds6f" x="0" y="0" width="35.091" height="32" maskUnits="userSpaceOnUse"><path d="M16 30C8.28 30 2 23.72 2 16h2c0 6.617 5.383 12 12 12s12-5.383 12-12c0-.726-.065-1.452-.193-2.159l1.968-.357c.15.825.226 1.672.226 2.517 0 7.72-6.28 14-14 14zM24.485 7.515A11.92 11.92 0 0 0 16 4c-1.6 0-3.152.31-4.615.919l-.77-1.846A13.923 13.923 0 0 1 16 2c3.74 0 7.255 1.456 9.899 4.101l-1.414 1.414z" style="fill:#fff"/><path style="fill:url(#pg5jiw52fa)" d="M4 16h12v15H4z"/><path transform="rotate(45 25.545 14.938)" style="fill:url(#obo4fzsnlc)" d="M19.545 7.438h12v15h-12z"/><path transform="rotate(-90 16 4)" style="fill:url(#ctmsio3isb)" d="M13-2h6v12h-6z"/><path style="fill:url(#xkzlfkujed)" d="M22 13h10v12H22z"/><g><path style="fill:#fff" d="m16 23.414-4.707-4.707 1.414-1.414L16 20.586 27.954 8.632l1.414 1.414L16 23.414z"/><path transform="rotate(45 26.91 11.105)" style="fill:url(#bfv7936one)" d="M24.911 7.722h4v6.766h-4z"/></g></mask></defs><g style="mask:url(#ye6djcds6f)"><path style="fill:url(#wk8uygig8g)" d="M0 0h32v32H0z"/></g><path d="m12.707 8.707-1.414-1.414L7 11.586 4.414 9l4.293-4.293-1.414-1.414-5 5a.999.999 0 0 0 0 1.414l7 7 1.414-1.414L8.414 13l4.293-4.293z" style="fill:#f4f4f4"/></svg>