<svg id="AIOpsForIBMZ" xmlns="http://www.w3.org/2000/svg" viewBox="0 0 32 32"><defs><linearGradient id="yx9nei1mwa" x1="-4736" y1="7917" x2="-4728" y2="7917" gradientTransform="rotate(-180 -2357.5 3961)" gradientUnits="userSpaceOnUse"><stop offset="0" stop-opacity="0"/><stop offset=".8"/></linearGradient><linearGradient id="9s5srkz9nb" x1="-7624.518" y1="8442.179" x2="-7617.518" y2="8442.179" gradientTransform="translate(7633.518 -8415.179)" gradientUnits="userSpaceOnUse"><stop offset="0" stop-opacity="0"/><stop offset=".8"/></linearGradient><linearGradient id="cz27rks6bd" x1="0" y1="2" x2="32" y2="34" gradientTransform="matrix(1 0 0 -1 0 34)" gradientUnits="userSpaceOnUse"><stop offset=".1" stop-color="#be95ff"/><stop offset=".9" stop-color="#4589ff"/></linearGradient><mask id="5ivpfhp6bc" x="0" y="0" width="32" height="32" maskUnits="userSpaceOnUse"><path d="M29 18h-2v-7c0-2.757-2.243-5-5-5h-8V4h8c3.859 0 7 3.14 7 7v7z" style="fill:#fff"/><path d="M21 3h-8v4h8V3z" style="fill:url(#yx9nei1mwa)"/><path d="M15 28h-5c-3.859 0-7-3.141-7-7v-1h2v1c0 2.757 2.243 5 5 5h5v2z" style="fill:#fff"/><path d="M9 29h7v-4H9v4z" style="fill:url(#9s5srkz9nb)"/><path d="M11 2H5.017A2.02 2.02 0 0 0 3 4.017V16c0 1.103.897 2 2 2h6c1.103 0 2-.897 2-2V4c0-1.103-.897-2-2-2zm0 6.004L5.647 4H11v4.004zm-.668 1.997-5.329 3.997.011-7.975 5.318 3.978zM5.666 16l5.335-4.001V16H5.666z" style="fill:#fff"/></mask></defs><path style="fill:none" d="M0 0h32v32H0z"/><g style="mask:url(#5ivpfhp6bc)"><path d="M0 0h32v32H0V0z" style="fill:url(#cz27rks6bd)"/></g><path style="fill:#f4f4f4" d="M30 23v-2h-4v2h.994v5H26v2h4v-2h-1.006v-5H30zM18.099 30l.587-2h3.583l.621 2H25l-2.794-9h-3.564l-2.641 9H18.1zm2.054-7h.564l.931 3h-2.376l.88-3z"/></svg>