<svg id="AIOpsInsights" xmlns="http://www.w3.org/2000/svg" xmlns:xlink="http://www.w3.org/1999/xlink" viewBox="0 0 32 32"><defs><linearGradient id="ae8dtsncta" x1="2.153" y1="13.672" x2="8.613" y2="16.685" gradientUnits="userSpaceOnUse"><stop offset=".1" stop-opacity="0"/><stop offset=".7"/></linearGradient><linearGradient id="609dwjaztb" x1="168.153" y1="-4303.328" x2="174.613" y2="-4300.315" gradientTransform="rotate(-180 99 -2142.5)" xlink:href="#ae8dtsncta"/><linearGradient id="svps2dz1bd" x1="0" y1="32" x2="32" y2="0" gradientUnits="userSpaceOnUse"><stop offset=".1" stop-color="#be95ff"/><stop offset=".9" stop-color="#4589ff"/></linearGradient><mask id="jrqykjwncc" x="0" y="0" width="32" height="32" maskUnits="userSpaceOnUse"><path d="M26 15h-2v2h2c1.103 0 2 .897 2 2v5c0 1.103-.897 2-2 2H10v2h16c2.206 0 4-1.794 4-4v-5c0-2.206-1.794-4-4-4zM4 13V8c0-1.103.897-2 2-2h16V4H6C3.794 4 2 5.794 2 8v5c0 2.206 1.794 4 4 4h2v-2H6c-1.103 0-2-.897-2-2z" style="fill:#fff"/><path style="fill:url(#ae8dtsncta)" d="M2 18h6v-6l-4-1-2 3v4z"/><path style="fill:url(#609dwjaztb)" d="M30 14h-6v6l4 1 2-3v-4z"/></mask></defs><g style="mask:url(#jrqykjwncc)"><path style="fill:url(#svps2dz1bd)" d="M0 0h32v32H0z"/></g><path d="M14 24a1 1 0 0 1-.961-.725L11.246 17H8v-2h4a1 1 0 0 1 .961.725L14 19.36l3.039-10.635a1 1 0 0 1 1.922 0L20.754 15H24v2h-4a1 1 0 0 1-.961-.725L18 12.64l-3.039 10.635A1 1 0 0 1 14 24z" style="fill:#f4f4f4"/><circle cx="27" cy="5" r="3" style="fill:#f4f4f4"/><path style="fill:#f4f4f4" d="M5.5 23 2 30h7l-3.5-7z"/></svg>