<svg xmlns="http://www.w3.org/2000/svg" xmlns:xlink="http://www.w3.org/1999/xlink" viewBox="0 0 128 128">
  <defs>
    <mask id="f96b0406-af91-4d21-a001-780f2c448d2b" x="0" y="0" width="128" height="128" maskUnits="userSpaceOnUse">
      <g>
        <path d="M37.616,88l-3.4-11.288H18.373L14.973,88H4.5l15.64-47.464H32.925L48.36,88ZM26.4,49.92h-.339L20.82,67.94H31.7Z" fill="#fff"/>
        <path d="M53.121,88V79.772H59.24V48.764H53.121V40.536H75.7v8.228H69.577V79.772H75.7V88Z" fill="#fff"/>
        <path d="M123.771,88H111.8L101.536,70.524h-.2L91.336,88H80.184L95.416,63.452,80.932,40.536H92.968l9.248,16.048h.2L111.8,40.536h11.152l-14.62,23.12Z" fill="#fff"/>
      </g>
    </mask>
    <linearGradient id="f6526cf0-ce1c-414c-9e16-49214b41a850" y1="128" x2="128" gradientUnits="userSpaceOnUse">
      <stop offset="0.1" stop-color="#6fdc8c"/>
      <stop offset="0.9" stop-color="#009d9a"/>
    </linearGradient>
  </defs>
  <g id="ae5cedcb-ffa6-4242-9d7a-415ae36fcae0" data-name="Layer 2">
    <g id="bb79d489-565c-4e79-9fd1-0325cc16cd82" data-name="Build icon here">
      <g mask="url(#f96b0406-af91-4d21-a001-780f2c448d2b)">
        <rect width="128" height="128" fill="url(#f6526cf0-ce1c-414c-9e16-49214b41a850)"/>
      </g>
    </g>
  </g>
</svg>
