<svg xmlns="http://www.w3.org/2000/svg" viewBox="0 0 32 32"><defs><linearGradient id="oadibdigia" x1="6" y1="26" x2="16" y2="16" gradientTransform="rotate(44.995 11 21)" gradientUnits="userSpaceOnUse"><stop offset="0" stop-color="#f4f4f4" stop-opacity=".45"/><stop offset="1" stop-color="#f4f4f4" stop-opacity=".15"/></linearGradient><linearGradient id="0rbwnmuneb" x1="13.172" y1="18.828" x2="28.828" y2="3.172" gradientUnits="userSpaceOnUse"><stop offset="0" stop-color="#43d1cf"/><stop offset="1" stop-color="#418bff"/></linearGradient></defs><g data-name="Layer 2"><g data-name="Dark theme icons"><path fill="none" d="M0 0h32v32H0z"/><path transform="rotate(-44.995 11 21)" fill="url(#oadibdigia)" d="M3.929 17h14.142v8H3.929z"/><circle cx="6" cy="6" r="4" fill="#f4f4f4"/><circle cx="26" cy="26" r="4" fill="#f4f4f4"/><circle cx="6" cy="26" r="4" fill="#f4f4f4"/><path d="M16 20a4 4 0 0 1-2.828-6.829l10-10a4 4 0 1 1 5.656 5.658l-10 10A3.99 3.99 0 0 1 16 20z" fill="url(#0rbwnmuneb)"/><circle cx="26" cy="6" r="4" fill="#f4f4f4"/></g></g></svg>