<svg id="IBMApplicationModernizationAccelerator" xmlns="http://www.w3.org/2000/svg" xmlns:xlink="http://www.w3.org/1999/xlink" viewBox="0 0 32 32"><defs><linearGradient id="qcuk4aa9la" x1="44.198" y1="278.549" x2="49.716" y2="278.549" gradientTransform="matrix(1.378 0 0 .984 -50.224 -269.915)" gradientUnits="userSpaceOnUse"><stop offset=".148" stop-opacity="0"/><stop offset=".777"/></linearGradient><linearGradient id="fv7ackbtsb" x1="-7.154" y1="911.291" x2="-4.252" y2="911.291" gradientTransform="matrix(1.378 0 0 .984 29.86 -880.43)" xlink:href="#qcuk4aa9la"/><linearGradient id="0botvw1b7d" x1="-.836" y1="32.836" x2="31.624" y2=".376" gradientTransform="rotate(-90 15.997 16)" gradientUnits="userSpaceOnUse"><stop offset=".1" stop-color="#3ddbd9"/><stop offset=".9" stop-color="#4589ff"/></linearGradient><mask id="js1lvdeioc" x="0" y="-.817" width="32" height="32.817" maskUnits="userSpaceOnUse"><path d="M28.658 18.922C29.996 18.62 31 17.427 31 16s-1.004-2.621-2.342-2.922A12.943 12.943 0 0 0 16 3a12.89 12.89 0 0 0-5.417 1.179l.834 1.818A10.907 10.907 0 0 1 16 5c5.105 0 9.46 3.455 10.668 8.326A3.021 3.021 0 0 0 25.181 15H20v2h5.181a3.021 3.021 0 0 0 1.487 1.674A10.955 10.955 0 0 1 16 27c-1.259 0-2.493-.21-3.667-.625l-.667 1.885c1.388.491 2.846.74 4.333.74a12.943 12.943 0 0 0 12.658-10.078zM27 16a1.001 1.001 0 1 1 1 1c-.551 0-1-.448-1-1z" style="fill:#fff"/><path transform="rotate(149.27 14.497 4.092)" style="fill:url(#qcuk4aa9la)" d="M10.694.642H18.3v6.899h-7.606z"/><path transform="rotate(-180 22 16)" style="fill:url(#fv7ackbtsb)" d="M20 14h4v4h-4z"/></mask></defs><path style="fill:none" d="M0 0h32v32H0z"/><g style="mask:url(#js1lvdeioc)"><path transform="rotate(90 16 16)" style="fill:url(#0botvw1b7d)" d="M0 0h32v32H0z"/></g><path d="M11 25a2.96 2.96 0 0 0-.384-1.438l3.57-4.017a3.95 3.95 0 0 0 1.813.455c2.206 0 4-1.794 4-4s-1.794-4-4-4c-.656 0-1.267.174-1.813.455l-3.57-4.017A2.96 2.96 0 0 0 11 7c0-1.654-1.346-3-3-3S5 5.346 5 7s1.346 3 3 3c.4 0 .78-.082 1.129-.225l3.551 3.996A3.977 3.977 0 0 0 12.141 15H5.722c-.346-.595-.984-1-1.723-1a2 2 0 0 0 0 4c.738 0 1.376-.405 1.723-1h6.419c.115.442.29.86.539 1.229l-3.551 3.996A2.968 2.968 0 0 0 8 22c-1.654 0-3 1.346-3 3s1.346 3 3 3 3-1.346 3-3zM7 7a1.001 1.001 0 1 1 1 1c-.551 0-1-.448-1-1zm7 9c0-1.103.897-2 2-2s2 .897 2 2-.897 2-2 2-2-.897-2-2zm-7 9a1.001 1.001 0 1 1 1 1c-.551 0-1-.448-1-1z" style="fill:#f4f4f4"/></svg>