<svg id="AskHR" xmlns="http://www.w3.org/2000/svg" viewBox="0 0 32 32"><defs><linearGradient id="y8m93bf75a" x1="-147.915" y1="-24.453" x2="-137.915" y2="-24.453" gradientTransform="translate(153.903 49.5)" gradientUnits="userSpaceOnUse"><stop offset="0" stop-opacity="0"/><stop offset=".83"/></linearGradient><linearGradient id="vf6zyiyneb" x1="40.511" y1="-607.459" x2="47.418" y2="-607.459" gradientTransform="translate(-17.923 622.995)" gradientUnits="userSpaceOnUse"><stop offset="0" stop-opacity="0"/><stop offset=".6"/></linearGradient><linearGradient id="l6n1eqyk4d" x1="0" y1="32" x2="32" y2="0" gradientUnits="userSpaceOnUse"><stop offset=".1" stop-color="#c592ff"/><stop offset=".9" stop-color="#238aff"/></linearGradient><mask id="ednf4etsbc" x="0" y="0" width="32" height="32" maskUnits="userSpaceOnUse"><path d="M14.988 26.047H6.993a4.01 4.01 0 0 1-4.005-4.005v-9.993a4.005 4.005 0 0 1 4.001-4.001h3.999v2H6.989a2.003 2.003 0 0 0-2.001 2.001v9.993c0 1.106.899 2.005 2.005 2.005h7.995v2z" style="fill:#fff"/><path style="fill:url(#y8m93bf75a)" d="M5.988 23.047h10v4h-10z" id="Gradients_black_" data-name="Gradients (black)"/><path d="m15.679 31.048-1.732-1 3.465-6h5.572a2.007 2.007 0 0 0 2.005-2.005v-7.992h2v7.992a4.01 4.01 0 0 1-4.005 4.005h-4.417l-2.887 5z" style="fill:#fff"/><path transform="rotate(-90 26.041 15.536)" style="fill:url(#vf6zyiyneb)" d="M22.588 13.536h6.907v4h-6.907z"/></mask></defs><path style="fill:none" d="M0 0h32v32H0z"/><g style="mask:url(#ednf4etsbc)"><path style="fill:url(#l6n1eqyk4d)" d="M0 0h32v32H0z"/></g><path d="M19.482 8.281h-3.494v3.757h-1.997V2.869h1.997v3.652h3.494V2.869h1.996v9.169h-1.996V8.281zM25.495 12.038h-1.997V2.869h4.348c1.694 0 2.772 1.182 2.772 2.93 0 1.235-.552 2.22-1.669 2.64l1.8 3.6h-2.221l-1.602-3.363h-1.432v3.363zm2.102-5.044c.591 0 .959-.315.959-.906V5.51c0-.591-.368-.906-.959-.906h-2.101v2.391h2.101z" style="fill:#f3f3f3"/></svg>