<svg id="AskIBM" xmlns="http://www.w3.org/2000/svg" xmlns:xlink="http://www.w3.org/1999/xlink" viewBox="0 0 32 32"><defs><linearGradient id="qatok0rn3a" x1="-5866.136" y1="-12139.594" x2="-5871.647" y2="-12130.05" gradientTransform="rotate(123.531 192.918 7391.646) scale(1 -.957)" gradientUnits="userSpaceOnUse"><stop offset=".205"/><stop offset=".8" stop-opacity="0"/></linearGradient><linearGradient id="7zg4ystb9b" x1="-5959.924" y1="-12091.533" x2="-5965.434" y2="-12081.99" gradientTransform="rotate(3.531 184406.05 102578.372) scale(1 -.957)" xlink:href="#qatok0rn3a"/><linearGradient id="o57we72bfc" x1="-5873.073" y1="-12031.768" x2="-5878.583" y2="-12022.224" gradientTransform="rotate(-116.469 -6482.383 3942.381) scale(1 -.957)" xlink:href="#qatok0rn3a"/><linearGradient id="4vpm5ooy0e" x1="0" y1="32" x2="32" y2="0" gradientUnits="userSpaceOnUse"><stop offset=".1" stop-color="#9ac6fd"/><stop offset=".901" stop-color="#2588fd"/></linearGradient><mask id="3r6wirjoyd" x="-2.402" y="-.071" width="34.402" height="35.071" maskUnits="userSpaceOnUse"><path d="M2.69 22.924A15.035 15.035 0 0 1 1 16C1 7.729 7.729 1 16 1v2C8.832 3 3 8.832 3 16c0 2.117.493 4.136 1.464 6l-1.773.924zM16.033 30.995c-5.285 0-10.415-2.793-13.15-7.734l1.75-.969c3.471 6.271 11.397 8.549 17.668 5.08a12.857 12.857 0 0 0 4.541-4.186l1.667 1.104a15.046 15.046 0 0 1-5.239 4.832 14.91 14.91 0 0 1-7.237 1.873zM28.914 23.61l-1.722-1.018a12.915 12.915 0 0 0 1.396-9.851 12.914 12.914 0 0 0-5.979-7.953 12.833 12.833 0 0 0-5.91-1.79L16.804 1c2.39.127 4.749.841 6.822 2.065a14.898 14.898 0 0 1 6.898 9.177c.999 3.88.427 7.917-1.61 11.367z" style="fill:#fff"/><path style="fill:url(#qatok0rn3a)" d="m16.014-.071-.009 5.777 9.912 7.859 5.524-8.336L23.644.061l-7.63-.132z"/><path style="fill:url(#7zg4ystb9b)" d="m1.299 24.301 5.007-2.88 1.85-12.513-9.982-.616-.576 9.336 3.701 6.673z"/><path style="fill:url(#o57we72bfc)" d="m30.629 24.289-4.998-2.896-11.762 4.655L18.326 35l8.374-4.169 3.929-6.542z"/></mask></defs><g style="mask:url(#3r6wirjoyd)"><path style="fill:url(#4vpm5ooy0e)" d="M0 0h32v32H0z"/></g><path d="M23.33 17.605 20 14.5v4.55a2 2 0 1 0 4 0 1.915 1.915 0 0 0-.67-1.445zM8 19.05a2 2 0 1 0 4 0V14.5l-3.33 3.105A1.93 1.93 0 0 0 8 19.05zM15.5 11a1.5 1.5 0 1 0-3.001.001A1.5 1.5 0 0 0 15.5 11zM18 9.5a1.5 1.5 0 1 0 .001 3.001A1.5 1.5 0 0 0 18 9.5zM18.5 20.5a2.5 2.5 0 1 1-5 0h5zm0-5a2.5 2.5 0 1 0-5 0h5zm-5 3.5h5v-2h-5v2z" style="fill:#f4f4f4"/><path style="fill:none" d="M0 0h32v32H0z"/></svg>