<svg id="AskIBM" xmlns="http://www.w3.org/2000/svg" xmlns:xlink="http://www.w3.org/1999/xlink" viewBox="0 0 32 32"><defs><linearGradient id="1dae3dzgwa" x1="-3415.4" y1="-5455.434" x2="-3421.467" y2="-5444.925" gradientTransform="rotate(19.376 13519.702 12639.83) scale(1 -.957)" gradientUnits="userSpaceOnUse"><stop offset=".205"/><stop offset=".8" stop-opacity="0"/></linearGradient><linearGradient id="0ei00o1neb" x1="1431.073" y1="-9434.598" x2="1425.006" y2="-9424.09" gradientTransform="rotate(-79.416 -4693.016 5370.492) scale(1 -.957)" xlink:href="#1dae3dzgwa"/><linearGradient id="6wjlclfm0c" x1="-5857.224" y1="-12132.194" x2="-5862.734" y2="-12122.651" gradientTransform="matrix(-.70356 .71064 .68008 .6733 4146.873 12336.262)" xlink:href="#1dae3dzgwa"/><linearGradient id="50cp7kn4ve" x1="0" y1="32" x2="32" y2="0" gradientUnits="userSpaceOnUse"><stop offset=".1" stop-color="#9ac6fd"/><stop offset=".901" stop-color="#2588fd"/></linearGradient><mask id="ywv15e7x1d" x="-3.019" y="-1.448" width="35.019" height="33.448" maskUnits="userSpaceOnUse"><path d="M2.69 22.924A15.035 15.035 0 0 1 1 16C1 7.729 7.729 1 16 1v2C8.832 3 3 8.832 3 16c0 2.117.493 4.136 1.464 6l-1.773.924z" style="fill:#fff"/><path style="fill:url(#1dae3dzgwa)" d="m-1.819 22.092 6.576 2.312 4.762-13.541L.085 7.545l-3.104 8.825 1.2 5.722z"/><path d="M16.033 30.995c-5.285 0-10.415-2.793-13.15-7.734l1.75-.969c3.471 6.271 11.397 8.549 17.668 5.08a12.857 12.857 0 0 0 4.541-4.186l1.667 1.104a15.046 15.046 0 0 1-5.239 4.832 14.91 14.91 0 0 1-7.237 1.873z" style="fill:#fff"/><path style="fill:url(#0ei00o1neb)" d="m28.667 29.489 1.28-6.852L15.837 20 14 29.83l9.195 1.719 5.472-2.06z"/><path d="m28.914 23.61-1.722-1.018a12.915 12.915 0 0 0 1.396-9.851 12.914 12.914 0 0 0-5.979-7.953 12.833 12.833 0 0 0-5.91-1.79L16.804 1c2.39.127 4.749.841 6.822 2.065a14.898 14.898 0 0 1 6.898 9.177c.999 3.88.427 7.917-1.61 11.367z" style="fill:#fff"/><path style="fill:url(#6wjlclfm0c)" d="m16.961-1.448-1.129 5.665 8.2 9.632 7.036-7.107L24.42.161l-7.459-1.609z"/></mask></defs><g style="mask:url(#ywv15e7x1d)"><path style="fill:url(#50cp7kn4ve)" d="M0 0h32v32H0z"/></g><path d="M23.33 17.605 20 14.5v4.55a2 2 0 1 0 4 0 1.915 1.915 0 0 0-.67-1.445zM8 19.05a2 2 0 1 0 4 0V14.5l-3.33 3.105A1.93 1.93 0 0 0 8 19.05zM15.5 11a1.5 1.5 0 1 0-3.001.001A1.5 1.5 0 0 0 15.5 11zM18 9.5a1.5 1.5 0 1 0 .001 3.001A1.5 1.5 0 0 0 18 9.5zM18.5 20.5a2.5 2.5 0 1 1-5 0h5zm0-5a2.5 2.5 0 1 0-5 0h5zm-5 3.5h5v-2h-5v2z" style="fill:#f4f4f4"/><path style="fill:none" d="M0 0h32v32H0z"/></svg>