<svg xmlns="http://www.w3.org/2000/svg" viewBox="0 0 32 32"><defs><linearGradient id="j9b090ra9a" x1="244.5" y1="-594.5" x2="251.5" y2="-594.5" gradientTransform="translate(-226.999 619)" gradientUnits="userSpaceOnUse"><stop offset=".001" stop-opacity="0"/><stop offset=".83"/></linearGradient><linearGradient id="5xg4kv7blc" y1="32" x2="32" gradientUnits="userSpaceOnUse"><stop offset=".1" stop-color="#3ddbd9"/><stop offset=".9" stop-color="#4589ff"/></linearGradient><mask id="94yb00fqxb" x="0" y="0" width="32" height="32" maskUnits="userSpaceOnUse"><path d="M20 30H7a2 2 0 0 1-2-2V4a2 2 0 0 1 2-2h13v2H7v24h13v-6h2v6a2 2 0 0 1-2 2z" fill="#fff"/><path transform="rotate(-90 21 24.5)" fill="url(#j9b090ra9a)" d="M17.5 22.5h7v4h-7z" data-name="Gradients (black)"/><circle cx="13.5" cy="24.5" r="1.5" fill="#fff"/></mask></defs><g data-name="Layer 2"><g data-name="Dark theme icons"><g mask="url(#94yb00fqxb)"><path fill="url(#5xg4kv7blc)" d="M0 0h32v32H0z"/></g><path d="m27.447 9.105-6-3a1 1 0 0 0-.894 0l-6 3A1 1 0 0 0 14 10v7a1 1 0 0 0 .553.895l6 3a1 1 0 0 0 .894 0l6-3A1 1 0 0 0 28 17v-7a1 1 0 0 0-.553-.895zM21 8.118 24.764 10 21 11.882 17.236 10zm-5 3.5 4 2v4.764l-4-2zm6 6.764v-4.764l4-2v4.764z" fill="#f4f4f4"/></g></g></svg>