<?xml version="1.0" encoding="UTF-8"?>
<svg id="uuid-9f4f3f4c-9c01-4544-8d2e-d9b4b268a000" data-name="Build icon here" xmlns="http://www.w3.org/2000/svg" xmlns:xlink="http://www.w3.org/1999/xlink" viewBox="0 0 32 32">
  <defs>
    <linearGradient id="uuid-6802af13-5513-4855-a500-2e5c387628d7" x1="-136.231" y1="-46.129" x2="-130.978" y2="-46.129" gradientTransform="translate(146.302 61.297)" gradientUnits="userSpaceOnUse">
      <stop offset="0" stop-color="#000" stop-opacity="0"/>
      <stop offset=".83" stop-color="#000"/>
    </linearGradient>
    <linearGradient id="uuid-b4ca0df9-6b7a-455e-94a5-2ea3292033c0" x1="-2061.56" y1="-1171.328" x2="-2057.443" y2="-1171.328" gradientTransform="translate(2088.444 1183.995)" xlink:href="#uuid-6802af13-5513-4855-a500-2e5c387628d7"/>
    <mask id="uuid-49fd15c6-b89d-4cde-977e-c4ab55d8cc02" data-name="mask" x="0" y="0" width="32" height="32" maskUnits="userSpaceOnUse">
      <g>
        <path d="M20.107,30.04l-1.73,1-4.04-7h-1.38c-2.42,0-4.44-1.72-4.9-4h-1.1c-2.76,0-5-2.24-5-5v-3C1.957,7.07,5.987,3.04,10.957,3.04h5.041v2h-5.041c-3.52,0-6.44,2.61-6.92,6h1.92c.55,0,1-.45,1-1v-1h2v1c0,1.66-1.35,3-3,3h-2v2c0,1.65,1.34,3,3,3h1.1c.26-1.27.99-2.36,2.01-3.08.82-.58,1.81-.92,2.89-.92h1v2h-1c-1.38,0-2.53.93-2.89,2.19-.12.44-.15.92-.05,1.42.28,1.42,1.61,2.39,3.06,2.39h1.26c.76,0,1.45.43,1.79,1.11l3.98,6.89Z" fill="#fff" stroke-width="0"/>
        <g id="uuid-7c90e7f8-2149-4b07-b9f3-689aada6af25" data-name="Gradients (black)">
          <rect x="10.071" y="11.929" width="5.252" height="6.478" fill="url(#uuid-6802af13-5513-4855-a500-2e5c387628d7)" stroke-width="0"/>
        </g>
        <path d="M29.999,12.03v1c0,1.91-.76,3.63-2,4.89v2.11c0,2.76-2.24,5-5,5h-1v-2h1c1.66,0,3-1.34,3-3v-.68c-.91.43-1.92.68-3,.68h-3v-2h3c2.76,0,5-2.24,5-5v-1c0-.65-.07-1.3-.21-1.92h2.04c.11.62.17,1.26.17,1.92Z" fill="#fff" stroke-width="0"/>
        <g id="uuid-0d4b75e1-1cf6-4c07-83fe-fcb52b817f35" data-name="Gradients (black)">
          <rect x="26.885" y="10.611" width="4.116" height="4.112" transform="translate(16.276 41.61) rotate(-90)" fill="url(#uuid-b4ca0df9-6b7a-455e-94a5-2ea3292033c0)" stroke-width="0"/>
        </g>
        <rect x="26.881" y="9.023" width="4.287" height="1.878" fill="#000" stroke-width="0"/>
      </g>
    </mask>
    <linearGradient id="uuid-fbadd2c0-4432-44cf-a738-4da7292fdd40" x1="0" y1="32" x2="32" y2="0" gradientUnits="userSpaceOnUse">
      <stop offset=".1" stop-color="#be95ff"/>
      <stop offset=".9" stop-color="#4589ff"/>
    </linearGradient>
  </defs>
  <g mask="url(#uuid-49fd15c6-b89d-4cde-977e-c4ab55d8cc02)">
    <rect width="32" height="32" fill="url(#uuid-fbadd2c0-4432-44cf-a738-4da7292fdd40)" stroke-width="0"/>
  </g>
  <path d="M26.03,2.016c-2.206,0-4,1.794-4,4,0,.009.002.016.003.025l-5.649,1.532c-.359-.341-.841-.553-1.375-.553-1.105,0-2,.896-2,2s.895,2,2,2c.941,0,1.724-.652,1.938-1.527l5.615-1.523c.102.18.215.349.342.51l-2.635,3.558c-.082-.01-.162-.025-.246-.025-1.105,0-2,.895-2,2s.895,2,2,2,2-.895,2-2c0-.274-.056-.535-.155-.773l2.619-3.536c.476.2.997.311,1.545.311,2.206,0,4-1.794,4-4s-1.794-4-4-4ZM26.03,8.016c-1.103,0-2-.897-2-2s.897-2,2-2,2,.897,2,2-.897,2-2,2Z" fill="#f4f4f4" stroke-width="0"/>
</svg>