<svg xmlns="http://www.w3.org/2000/svg" viewBox="0 0 32 32"><defs><linearGradient id="p9bzf2g7aa" x1="10.001" y1="27.1" x2="22.999" y2="20.9" gradientUnits="userSpaceOnUse"><stop offset=".15" stop-opacity="0"/><stop offset=".55"/></linearGradient><linearGradient id="rkj5jvs81c" y1="32" x2="32" gradientUnits="userSpaceOnUse"><stop offset=".1" stop-color="#ff7eb6"/><stop offset=".9" stop-color="#a56eff"/></linearGradient><mask id="rnj2zh330b" x="0" y="0" width="32" height="32" maskUnits="userSpaceOnUse"><path d="M26 7h-4a4 4 0 0 1-4-4V2h2v1a2 2 0 0 0 2 2h4zM9 10h2v2H9zm0 4h2v2H9zm4-2h2v2h-2z" fill="#fff"/><path d="M9 28a5.006 5.006 0 0 1-5-5V11a7 7 0 0 1 10.774-5.9l7.969 4.98A6.974 6.974 0 0 1 26 16h-2a4.98 4.98 0 0 0-2.323-4.224L13.7 6.794A5 5 0 0 0 6 11v12a3 3 0 0 0 3 3 2.971 2.971 0 0 0 1.306-.3l10.852-5.191.863 1.8L11.173 27.5A4.939 4.939 0 0 1 9 28z" fill="#fff"/><path fill="url(#p9bzf2g7aa)" d="m22 19 2 4-13 6-2-4 13-6z"/></mask></defs><g data-name="Layer 2"><g data-name="Dark theme icons"><g mask="url(#rnj2zh330b)"><path fill="url(#rkj5jvs81c)" d="M0 0h32v32H0z"/></g><path fill="#f4f4f4" d="m23 25.18-2.59-2.59L19 24l4 4 7-7-1.41-1.41L23 25.18z"/></g></g></svg>