<svg id="Business_Automation_Insights" data-name="Business Automation Insights" xmlns="http://www.w3.org/2000/svg" viewBox="0 0 32 32"><defs><linearGradient id="6uqs3ibrma" x1="3" y1="12" x2="28" y2="12" gradientUnits="userSpaceOnUse"><stop offset=".6" stop-color="#fff"/><stop offset=".634" stop-color="#f6f6f6"/><stop offset=".689" stop-color="#dedede"/><stop offset=".759" stop-color="#b6b6b6"/><stop offset=".841" stop-color="#7f7f7f"/><stop offset=".932" stop-color="#393939"/><stop offset="1"/></linearGradient><linearGradient id="aidybylquc" x1="-1090" y1="32" x2="-1122" gradientTransform="matrix(1 0 0 -1 1122 32)" gradientUnits="userSpaceOnUse"><stop offset=".1" stop-color="#3ddbd9"/><stop offset=".9" stop-color="#4589ff"/></linearGradient><mask id="bqan0ssp3b" x="0" y="0" width="32" height="32" maskUnits="userSpaceOnUse"><path style="fill:url(#6uqs3ibrma)" d="M3 11h25v2H3z"/><path d="M28 2H4a2 2 0 0 0-2 2v24a2 2 0 0 0 2 2h24a2 2 0 0 0 2-2V4a2 2 0 0 0-2-2zM4 28V4h8v8h2V4h14v24z" style="fill:#fff"/></mask></defs><g style="mask:url(#bqan0ssp3b)"><path transform="rotate(180 16 16)" style="fill:url(#aidybylquc)" d="M0 0h32v32H0z"/></g><path style="fill:#f4f4f4" d="M24 21h2v5h-2zM20 16h2v10h-2zM11 26a5.006 5.006 0 0 1-5-5h2a3 3 0 1 0 3-3v-2a5 5 0 0 1 0 10z"/></svg>