<svg id="CarbonReactNative" xmlns="http://www.w3.org/2000/svg" viewBox="0 0 32 32"><defs><linearGradient id="ra2wc7vnqa" x1="20.5" y1="28" x2="20.5" y2="19" gradientUnits="userSpaceOnUse"><stop offset="0" stop-opacity="0"/><stop offset=".6"/></linearGradient><linearGradient id="yq5bk0dkzc" y1="32" x2="32" gradientUnits="userSpaceOnUse"><stop offset=".1" stop-color="#3ddbd9"/><stop offset=".9" stop-color="#4589ff"/></linearGradient><mask id="tlwxat7eob" x="0" y="0" width="32" height="32" maskUnits="userSpaceOnUse"><path d="M19 30H6a2 2 0 0 1-2-2V4a2 2 0 0 1 2-2h13v2H6v24h13v-8h2v8a2 2 0 0 1-2 2z" style="fill:#fff"/><circle cx="12.5" cy="24.5" r="1.5" style="fill:#fff"/><path style="fill:url(#ra2wc7vnqa)" d="M17 19h7v9h-7z"/></mask></defs><g style="mask:url(#tlwxat7eob)"><path style="fill:url(#yq5bk0dkzc)" d="M0 0h32v32H0z"/></g><path d="M20 22a1 1 0 0 1-.5-.136l-6-3.5a1 1 0 0 1-.5-.864v-7a1 1 0 0 1 .5-.864l6-3.5a1 1 0 0 1 1.008 0l6 3.5a1 1 0 0 1 .5.864v7a1 1 0 0 1-.5.864l-6 3.5A1 1 0 0 1 20 22zm-5-5.074 5 2.916 5-2.916v-5.852l-5-2.916-5 2.916zM32 14h-2V8.074l-5.5-3.21 1-1.728 6 3.5a1 1 0 0 1 .5.864z" style="fill:#f4f4f4"/></svg>