<svg id="b968fe3f-4c68-427b-84ee-e476390a365e" data-name="Build icon here" xmlns="http://www.w3.org/2000/svg" xmlns:xlink="http://www.w3.org/1999/xlink" viewBox="0 0 32 32">
  <defs>
    <linearGradient id="ef8c7c85-519b-4c0b-a3fb-fb4baaf7d91d" x1="-5346.409" y1="-1703.428" x2="-5341.409" y2="-1703.428" gradientTransform="translate(5364.909 1720.928)" gradientUnits="userSpaceOnUse">
      <stop offset="0" stop-opacity="0"/>
      <stop offset="0.7"/>
    </linearGradient>
    <mask id="a96d8d68-1a20-431b-84e7-2de4342c1890" x="0" y="0" width="32" height="32" maskUnits="userSpaceOnUse">
      <g>
        <path d="M21.493,14.13l-8.5-4.815a1,1,0,0,0-.986,0l-8.5,4.815A1,1,0,0,0,3,15V25a1,1,0,0,0,.507.87l8.5,4.815.986-1.74L5,24.417V15.583l7.5-4.249L20,15.583V19h2V15A1,1,0,0,0,21.493,14.13Z" fill="#fff"/>
        <rect x="18.5" y="15.5" width="5" height="4" transform="translate(38.5 -3.5) rotate(90)" fill="url(#ef8c7c85-519b-4c0b-a3fb-fb4baaf7d91d)"/>
      </g>
    </mask>
    <linearGradient id="a76b6fbf-0234-4745-a3d9-3aaaa80ebd03" y1="32" x2="32" gradientUnits="userSpaceOnUse">
      <stop offset="0.1" stop-color="#3ddbd9"/>
      <stop offset="0.9" stop-color="#4589ff"/>
    </linearGradient>
  </defs>
  <rect width="32" height="32" fill="none"/>
  <g>
    <g mask="url(#a96d8d68-1a20-431b-84e7-2de4342c1890)">
      <rect width="32" height="32" fill="url(#a76b6fbf-0234-4745-a3d9-3aaaa80ebd03)"/>
    </g>
    <g>
      <path d="M25,15h2V7a1,1,0,0,0-.507-.87l-8.5-4.815a1,1,0,0,0-.986,0L8.507,6.13l.986,1.74L17.5,3.334,25,7.583Z" fill="#f4f4f4"/>
      <rect x="24" y="20" width="6" height="2" fill="#f4f4f4"/>
      <circle cx="21" cy="21" r="1" fill="#f4f4f4"/>
      <rect x="24" y="28" width="6" height="2" fill="#f4f4f4"/>
      <circle cx="21" cy="29" r="1" fill="#f4f4f4"/>
      <rect x="20" y="24" width="6" height="2" fill="#f4f4f4"/>
      <circle cx="29" cy="25" r="1" fill="#f4f4f4"/>
    </g>
  </g>
</svg>
