<svg id="CICS_Performance_Analyzer" data-name="CICS Performance Analyzer" xmlns="http://www.w3.org/2000/svg" xmlns:xlink="http://www.w3.org/1999/xlink" viewBox="0 0 32 32"><defs><linearGradient id="linear-gradient" x1="2067.5" y1="-5248.5" x2="2073.5" y2="-5248.5" gradientTransform="translate(-2053.5 5274.5)" gradientUnits="userSpaceOnUse"><stop offset="0" stop-opacity="0"/><stop offset=".9"/></linearGradient><linearGradient id="linear-gradient-2" y1="-5255.5" y2="-5255.5" gradientTransform="translate(-2046.5 5281.5)" xlink:href="#linear-gradient"/><linearGradient id="linear-gradient-3" y1="-5241.5" y2="-5241.5" gradientTransform="translate(-2060.5 5267.5)" xlink:href="#linear-gradient"/><linearGradient id="linear-gradient-4" x1="0" y1="32" x2="32" y2="0" gradientUnits="userSpaceOnUse"><stop offset=".1" stop-color="#3ddbd9"/><stop offset=".9" stop-color="#4589ff"/></linearGradient><style></style><mask id="mask" y="0" width="32" height="32" maskUnits="userSpaceOnUse"><path style="fill:#fff" d="M23 20h2v8h-2zM9 14h2v14H9zM16 22h2v6h-2z"/><path transform="rotate(90 17 26)" style="fill:url(#linear-gradient)" d="M14 24h6v4h-6z"/><path transform="rotate(90 24 26)" style="fill:url(#linear-gradient-2)" d="M21 24h6v4h-6z"/><path transform="rotate(90 10 26)" style="fill:url(#linear-gradient-3)" d="M7 24h6v4H7z"/><path d="M4 2H2v26a2 2 0 0 0 2 2h26v-2H4V2z" style="fill:#fff"/></mask></defs><g style="mask:url(#mask)"><path style="fill:url(#linear-gradient-4)" d="M0 0h32v32H0z"/></g><circle cx="23" cy="9" r="2" style="fill:#f4f4f4"/><path d="M18 10h-2V8c0-3.309 2.691-6 6-6h4v2h-4c-2.206 0-4 1.794-4 4v2zM24 16h-4v-2h4c2.206 0 4-1.794 4-4V8h2v2c0 3.309-2.691 6-6 6z" style="fill:#f4f4f4"/></svg>