<svg id="CICS_Interdependency_Analyzer" data-name="CICS Interdependency Analyzer" xmlns="http://www.w3.org/2000/svg" xmlns:xlink="http://www.w3.org/1999/xlink" viewBox="0 0 32 32"><defs><linearGradient id="linear-gradient" x1="302.462" y1="-99.706" x2="302.462" y2="-104.706" gradientTransform="translate(-282.962 122.206)" gradientUnits="userSpaceOnUse"><stop offset="0" stop-opacity="0"/><stop offset=".9"/></linearGradient><linearGradient id="linear-gradient-2" x1="131.664" y1="319.294" x2="131.664" y2="313.294" gradientTransform="translate(-119.664 -296.294)" xlink:href="#linear-gradient"/><linearGradient id="linear-gradient-3" x1="16" y1="24" x2="16" y2="15" gradientUnits="userSpaceOnUse"><stop offset=".2" stop-opacity="0"/><stop offset=".8"/></linearGradient><linearGradient id="linear-gradient-4" x1="0" y1="32" x2="32" y2="0" gradientUnits="userSpaceOnUse"><stop offset=".1" stop-color="#3ddbd9"/><stop offset=".9" stop-color="#4589ff"/></linearGradient><style></style><mask id="mask" x="0" y="0" width="32" height="32" maskUnits="userSpaceOnUse"><path d="M27 24h-2v-3H7v3H5v-3c0-1.103.897-2 2-2h18c1.103 0 2 .897 2 2v3z" style="fill:#fff"/><path style="fill:none;stroke:#fff;stroke-miterlimit:10;stroke-width:2px" d="M16 24v-8"/><path transform="rotate(-90 19.5 20)" style="fill:url(#linear-gradient)" d="M14.5 17.5h10v5h-10z"/><path transform="rotate(90 12 20)" style="fill:url(#linear-gradient-2)" d="M7 17h10v6H7z"/><path style="fill:url(#linear-gradient-3)" d="M15 15h2v9h-2z"/></mask></defs><g style="mask:url(#mask)"><path style="fill:url(#linear-gradient-4)" d="M0 0h32v32H0z"/></g><circle cx="16" cy="28" r="2" style="fill:#f4f4f4"/><circle cx="6" cy="28" r="2" style="fill:#f4f4f4"/><circle cx="26" cy="28" r="2" style="fill:#f4f4f4"/><circle cx="16" cy="9" r="2" style="fill:#f4f4f4"/><path d="M11 10H9V8c0-3.309 2.691-6 6-6h4v2h-4c-2.206 0-4 1.794-4 4v2zM17 16h-4v-2h4c2.206 0 4-1.794 4-4V8h2v2c0 3.309-2.691 6-6 6z" style="fill:#f4f4f4"/></svg>
