<?xml version="1.0" encoding="UTF-8"?>
<svg id="uuid-e2a07e26-18ff-456a-ab60-5cbd3ac532ea" data-name="Build icon here" xmlns="http://www.w3.org/2000/svg" xmlns:xlink="http://www.w3.org/1999/xlink" viewBox="0 0 32 32">
  <defs>
    <linearGradient id="uuid-752cf729-5626-4199-b367-52f93c0441be" x1="16" y1="32" x2="16" y2="4" gradientTransform="translate(0 34) scale(1 -1)" gradientUnits="userSpaceOnUse">
      <stop offset="0" stop-color="#f4f4f4" stop-opacity=".45"/>
      <stop offset="1" stop-color="#f4f4f4" stop-opacity=".2"/>
    </linearGradient>
    <linearGradient id="uuid-090b081b-983e-45ce-9b4d-e07f2fc23016" x1="4.651" y1="9.55" x2="21.55" y2="26.45" gradientTransform="translate(0 34) scale(1 -1)" gradientUnits="userSpaceOnUse">
      <stop offset=".1" stop-color="#00b7b3"/>
      <stop offset=".9" stop-color="#0062fc"/>
    </linearGradient>
  </defs>
  <path d="M0,0h32v32H0V0Z" fill="none" stroke-width="0"/>
  <circle cx="16" cy="16" r="14" fill="url(#uuid-752cf729-5626-4199-b367-52f93c0441be)" stroke-width="0"/>
  <path d="M16,30c-7.732,0-14-6.268-14-14S8.268,2,16,2" fill="url(#uuid-090b081b-983e-45ce-9b4d-e07f2fc23016)" stroke-width="0"/>
  <path d="M20.49,17.86l6.51-1.86-6.51-1.86,3.288-5.918-5.918,3.288-1.86-6.51-1.86,6.51-5.918-3.288,3.288,5.918-6.51,1.86,6.51,1.86-3.288,5.918,5.918-3.288,1.86,6.51,1.86-6.51,5.918,3.288-3.288-5.918Z" fill="#f4f4f4" stroke-width="0"/>
</svg>