<svg id="CICSTransactionGateway" xmlns="http://www.w3.org/2000/svg" xmlns:xlink="http://www.w3.org/1999/xlink" viewBox="0 0 32 32"><defs><linearGradient id="puoxbnceza" x1="-1403.686" y1="-75.513" x2="-1390.652" y2="-62.479" gradientTransform="matrix(1.071 0 0 -.953 1524.718 -52.068)" gradientUnits="userSpaceOnUse"><stop offset=".3" stop-opacity="0"/><stop offset=".75"/></linearGradient><linearGradient id="kf0husxyhb" x1="60.117" y1="-3208.543" x2="73.151" y2="-3195.509" gradientTransform="matrix(1.071 0 0 -.953 -67.382 -3034.575)" xlink:href="#puoxbnceza"/><linearGradient id="37lsrt43pd" x1="0" y1="32" x2="32" y2="0" gradientUnits="userSpaceOnUse"><stop offset=".1" stop-color="#3ddbd9"/><stop offset=".9" stop-color="#4589ff"/></linearGradient><mask id="gp2jgq9mic" x="-3.951" y="3" width="39.903" height="26.004" maskUnits="userSpaceOnUse"><path d="M23 29.004H8c-3.86 0-7-3.141-7-7a6.91 6.91 0 0 1 2.057-4.949A6.946 6.946 0 0 1 8 15.005h2v2H8a4.966 4.966 0 0 0-3.533 1.467A4.93 4.93 0 0 0 3 22.004c0 2.757 2.243 5 5 5h15v2zM24 17h-2v-2h2a4.964 4.964 0 0 0 3.533-1.467A4.933 4.933 0 0 0 29 10c0-2.757-2.243-5-5-5H9V3h15c3.859 0 7 3.14 7 7 0 1.879-.73 3.637-2.056 4.95A6.946 6.946 0 0 1 24 17z" style="fill:#fff"/><path transform="rotate(-165.98 28 13.718)" style="fill:url(#puoxbnceza)" d="M21.452 7.119h13.095v13.199H21.452z"/><path transform="rotate(14.02 3.999 18.488)" style="fill:url(#kf0husxyhb)" d="M-2.548 11.89h13.095v13.199H-2.548z"/></mask></defs><g style="mask:url(#gp2jgq9mic)"><path style="fill:url(#37lsrt43pd)" d="M0 0h32v32H0z"/></g><circle cx="4" cy="4" r="2" style="fill:#f4f4f4"/><circle cx="28" cy="28" r="2" style="fill:#f4f4f4"/><circle cx="16" cy="16" r="2" style="fill:#f4f4f4"/><path d="M11 17H9v-2c0-3.309 2.691-6 6-6h4v2h-4c-2.206 0-4 1.794-4 4v2zM17 23h-4v-2h4c2.206 0 4-1.794 4-4v-2h2v2c0 3.309-2.691 6-6 6z" style="fill:#f4f4f4"/></svg>