<svg id="CICS_Configuration_Manager" data-name="CICS Configuration Manager" xmlns="http://www.w3.org/2000/svg" viewBox="0 0 32 32"><defs><linearGradient id="linear-gradient" x1="1173.5" y1="-1280" x2="1173.5" y2="-1289" gradientTransform="matrix(1 0 0 -1 -1158 -1257)" gradientUnits="userSpaceOnUse"><stop offset=".3"/><stop offset=".9" stop-opacity="0"/></linearGradient><linearGradient id="linear-gradient-2" x1="-29.247" y1=".388" x2="-17.247" y2="12.388" gradientTransform="matrix(1 0 0 -1 39.247 22.388)" gradientUnits="userSpaceOnUse"><stop offset=".3" stop-opacity="0"/><stop offset=".75"/></linearGradient><linearGradient id="linear-gradient-3" x1="0" y1="32" x2="32" y2="0" gradientUnits="userSpaceOnUse"><stop offset=".1" stop-color="#3ddbd9"/><stop offset=".9" stop-color="#4589ff"/></linearGradient><style></style><mask id="mask" x="0" y="0" width="32" height="32" maskUnits="userSpaceOnUse"><path d="M16 22c-3.364 0-6-2.636-6-6s2.636-6 6-6 6 2.636 6 6-2.636 6-6 6zm0-10c-2.28 0-4 1.72-4 4s1.72 4 4 4 4-1.72 4-4-1.72-4-4-4z" style="fill:#fff"/><path d="m29.305 11.044-2.36-4.088a2 2 0 0 0-2.373-.894l-2.434.823a11.067 11.067 0 0 0-1.312-.758l-.504-2.519A2 2 0 0 0 18.361 2H13.64a2 2 0 0 0-1.961 1.608l-.504 2.519c-.459.225-.906.469-1.326.753L7.43 6.062a2 2 0 0 0-2.373.894l-2.36 4.088a2 2 0 0 0 .412 2.502l1.931 1.697c-.017.251-.038.501-.038.757 0 .258.01.513.028.766l-1.921 1.688a2 2 0 0 0-.412 2.502l2.36 4.088a2 2 0 0 0 2.373.894l2.434-.823c.418.281.856.535 1.312.758l.504 2.518a2 2 0 0 0 1.961 1.608h6.36v-2h-6.36l-.71-3.551a9.1 9.1 0 0 1-2.695-1.571l-3.447 1.166-2.36-4.088 2.725-2.395a8.932 8.932 0 0 1-.007-3.128l-2.718-2.389L6.79 7.955l3.427 1.159a9.016 9.016 0 0 1 2.714-1.564l.71-3.551h4.721l.71 3.551a9.112 9.112 0 0 1 2.695 1.571l3.447-1.166 2.335 4.044 1.758-.956z" style="fill:#fff"/><path transform="rotate(90 15.5 27.5)" style="fill:url(#linear-gradient)" d="M11 23h9v9h-9z"/><path transform="rotate(90 16 16)" style="fill:url(#linear-gradient-2)" d="M10 10h12v12H10z"/></mask></defs><g style="mask:url(#mask)"><path style="fill:url(#linear-gradient-3)" d="M0 0h32v32H0z"/></g><circle cx="23" cy="23" r="2" style="fill:#f4f4f4"/><path d="M18 24h-2v-2c0-3.309 2.691-6 6-6h4v2h-4c-2.206 0-4 1.794-4 4v2zM24 30h-4v-2h4c2.206 0 4-1.794 4-4v-2h2v2c0 3.309-2.691 6-6 6z" style="fill:#f4f4f4"/></svg>