<svg id="ClientDeliveryNetworkPrimary" xmlns="http://www.w3.org/2000/svg" viewBox="0 0 32 32"><defs><linearGradient id="vs1bw0g2ua" x1="1297.115" y1="-1779.673" x2="1304.615" y2="-1779.673" gradientTransform="translate(-1284.851 1803.949)" gradientUnits="userSpaceOnUse"><stop offset=".1" stop-opacity="0"/><stop offset=".7"/></linearGradient><linearGradient id="mqp4mcfoqc" x1="0" y1="32" x2="32" y2="0" gradientUnits="userSpaceOnUse"><stop offset=".1" stop-color="#6fdc8c"/><stop offset=".9" stop-color="#009d9a"/></linearGradient><mask id="s5agp3h73b" x="0" y="0" width="32" height="32" maskUnits="userSpaceOnUse"><path d="M27.016 16.015H17.014v-4.989h-2v4.989H5.016c-1.103 0-2 .897-2 2v11h2v-11h9.998v11.011h2V18.015h10.002v11.011h2V18.015c0-1.103-.897-2-2-2z" style="fill:#fff"/><path d="M1.016 26.025h6.011v5H1.016zM25.016 26.035h6v4.991h-6zM13.016 26.035h6v4.991h-6z"/><path transform="rotate(90 16.014 24.276)" style="fill:url(#vs1bw0g2ua)" d="M12.264 10.298h7.5v27.955h-7.5z"/></mask></defs><g style="mask:url(#s5agp3h73b)"><path style="fill:url(#mqp4mcfoqc)" d="M0 0h32v32H0z"/></g><path d="M16.017 9.025c-2.206 0-4-1.794-4-4s1.794-4 4-4 4 1.794 4 4-1.794 4-4 4zm0-6c-1.103 0-2 .897-2 2s.897 2 2 2 2-.897 2-2-.897-2-2-2z" style="fill:#f4f4f4"/><circle cx="4.036" cy="29.02" r="2" style="fill:#f4f4f4"/><circle cx="28.036" cy="29.031" r="2" style="fill:#f4f4f4"/><circle cx="16.036" cy="29.02" r="2" style="fill:#f4f4f4"/></svg>