<svg id="ClientSignals" xmlns="http://www.w3.org/2000/svg" xmlns:xlink="http://www.w3.org/1999/xlink" viewBox="0 0 32 32"><defs><linearGradient id="y8saq6evua" x1="-3513.589" y1="1270.394" x2="-3513.589" y2="1265.931" gradientTransform="matrix(0 -1 -1 0 1288.931 -3503.589)" gradientUnits="userSpaceOnUse"><stop offset="0" stop-opacity="0"/><stop offset=".83"/></linearGradient><linearGradient id="74e4jr9tfb" x1="-5379.924" y1="1654.988" x2="-5379.924" y2="1650.525" gradientTransform="matrix(0 -1.603 -.946 0 1574.119 -8616.565)" xlink:href="#y8saq6evua"/><linearGradient id="g6v4pxe6pd" x1="0" y1="2" x2="32" y2="34" gradientTransform="matrix(1 0 0 -1 0 34)" gradientUnits="userSpaceOnUse"><stop offset=".1" stop-color="#9ac6fd"/><stop offset=".901" stop-color="#2588fd"/></linearGradient><mask id="wip79wrmnc" x="0" y="0" width="32" height="32" maskUnits="userSpaceOnUse"><path d="M5 17.999a1 1 0 0 1-.961-.725l-1.793-6.275H1v-2h2a1 1 0 0 1 .961.725L5 13.359 8.039 2.724a1 1 0 0 1 1.922 0l1.793 6.275H26v2H11a1 1 0 0 1-.961-.725L9 6.639 5.961 17.274a1 1 0 0 1-.961.725z" style="fill:#fff"/><path d="M18.653 11.999H12l1.947-4.025 4.706.025v4z"/><path transform="rotate(180 20.768 10)" style="fill:url(#y8saq6evua)" d="M18.537 8H23v4h-4.463z"/><path transform="rotate(24.684 11.41 8.533)" style="fill:url(#74e4jr9tfb)" d="M9.3 5.328h4.22v6.413H9.3z"/></mask></defs><g style="mask:url(#wip79wrmnc)"><path style="fill:url(#g6v4pxe6pd)" d="M0 0h32v32H0z"/></g><path d="M27 21v-1a1 1 0 0 1 2 0v10h2V20c0-1.654-1.346-3-3-3-.537 0-1.034.153-1.471.401A2.994 2.994 0 0 0 24 16c-.537 0-1.034.153-1.471.401A2.994 2.994 0 0 0 20 15c-.352 0-.686.072-1 .185V10c0-1.654-1.346-3-3-3s-3 1.346-3 3v11.104l-2.235-1.529A2.981 2.981 0 0 0 9.001 19c-1.654 0-3 1.346-3 3 0 .804.313 1.559.883 2.126L13.323 30l1.348-1.478-6.379-5.818A.99.99 0 0 1 8 22a1.001 1.001 0 0 1 1.6-.801l5.4 3.696V9.999a1.001 1.001 0 0 1 2 0v11h2v-3c0-.551.449-1 1-1s1 .449 1 1v3h2v-2a1.001 1.001 0 0 1 2 0v2h2z" style="fill:#f4f4f4"/><path style="fill:none" d="M0 0h32v32H0z"/></svg>