<svg xmlns="http://www.w3.org/2000/svg" viewBox="0 0 32 32"><defs><linearGradient id="0i9je719aa" x1="3698.976" y1="2764.024" x2="3698.976" y2="2754.024" gradientTransform="translate(-3680.976 -2735.024)" gradientUnits="userSpaceOnUse"><stop offset=".2"/><stop offset="1" stop-opacity="0"/></linearGradient><linearGradient id="2bkt1j6chc" y1="32" x2="32" gradientUnits="userSpaceOnUse"><stop offset=".1" stop-color="#3ddbd9"/><stop offset=".9" stop-color="#4589ff"/></linearGradient><mask id="ap1flryx1b" x="0" y="0" width="32" height="32" maskUnits="userSpaceOnUse"><path d="M22 25H4a2 2 0 0 1-2-2V8a2 2 0 0 1 2-2h22a1 1 0 0 1 .673 1.74L15.028 18.326l-7.741-6.47 1.282-1.536 6.4 5.354L23.413 8H4v15h18z" fill="#fff"/><path transform="rotate(-90 18 24)" fill="url(#0i9je719aa)" d="M16 19h4v10h-4z"/></mask></defs><g data-name="Layer 2"><g data-name="Dark theme icons"><g mask="url(#ap1flryx1b)"><path fill="url(#2bkt1j6chc)" d="M0 0h32v32H0z"/></g><path fill="#f4f4f4" d="M25 17.83V28h2V17.83l2.59 2.58L31 19l-5-5-5 5 1.41 1.41L25 17.83z"/></g></g></svg>