<svg id="CloudContainers" xmlns="http://www.w3.org/2000/svg" viewBox="0 0 32 32"><defs><linearGradient id="fkgqlw7xra" x1="27" y1="23" x2="27" y2="11" gradientUnits="userSpaceOnUse"><stop offset=".1" stop-opacity="0"/><stop offset=".9"/></linearGradient><linearGradient id="w8tvn1p9uc" y1="32" x2="32" gradientUnits="userSpaceOnUse"><stop offset=".1" stop-color="#f875a4"/><stop offset=".9" stop-color="#a770fd"/></linearGradient><mask id="lc2qsdbdob" x="0" y="0" width="32" height="32" maskUnits="userSpaceOnUse"><path d="M26 28H6a2 2 0 0 1-2-2V6a2 2 0 0 1 2-2h10v2H6v20h20V12h2v14a2 2 0 0 1-2 2z" style="fill:#fff"/><path style="fill:url(#fkgqlw7xra)" d="M24 11h6v12h-6z"/></mask></defs><g style="mask:url(#lc2qsdbdob)"><path style="fill:url(#w8tvn1p9uc)" d="M0 0h32v32H0z"/></g><path d="M17 15V9H9v14h14v-8zm-6-4h4v4h-4zm4 10h-4v-4h4zm6 0h-4v-4h4z" style="fill:#f4f4f4"/><path d="M28 12h-8V4h8zm-6-2h4V6h-4z" style="fill:#f4f4f4"/></svg>