<svg id="CloudSecurityComplianceCenter" xmlns="http://www.w3.org/2000/svg" viewBox="0 0 32 32"><defs><linearGradient id="sejx3uf9la" x1="89" y1="-24.5" x2="100" y2="-24.5" gradientTransform="translate(-80 47)" gradientUnits="userSpaceOnUse"><stop offset=".001" stop-opacity="0"/><stop offset=".8"/></linearGradient><linearGradient id="gjfr478ytc" y1="32" x2="32" gradientUnits="userSpaceOnUse"><stop offset=".1" stop-color="#3ddbd9"/><stop offset=".9" stop-color="#4589ff"/></linearGradient><mask id="zwmm62ncxb" x="0" y="0" width="32" height="32" maskUnits="userSpaceOnUse"><path d="M16 4a9 9 0 0 0-8.8 7.136A6.5 6.5 0 0 0 8.5 24H19v-2H8.5a4.5 4.5 0 0 1-.356-8.981l.816-.064.1-.812A7 7 0 0 1 23 13h2a9.01 9.01 0 0 0-9-9z" style="fill:#fff"/><path style="fill:url(#sejx3uf9la)" d="M9 19h11v7H9z"/></mask></defs><g style="mask:url(#zwmm62ncxb)"><path id="Color" style="fill:url(#gjfr478ytc)" d="M0 0h32v32H0z"/></g><path d="m25 28-2.139-1.013A5.021 5.021 0 0 1 20 22.468V16h10v6.468a5.021 5.021 0 0 1-2.861 4.519zm-3-10v4.468a3.012 3.012 0 0 0 1.717 2.711l1.283.607 1.283-.607A3.012 3.012 0 0 0 28 22.468V18z" style="fill:#f4f4f4"/></svg>