<svg id="CloudHyperProtectVirtualServers" xmlns="http://www.w3.org/2000/svg" viewBox="0 0 32 32"><defs><linearGradient id="yr49fwhema" x1="3644.899" y1="-3336.097" x2="3654.101" y2="-3336.097" gradientTransform="translate(-3622.5 3351.097)" gradientUnits="userSpaceOnUse"><stop offset="0" stop-opacity="0"/><stop offset=".83"/></linearGradient><linearGradient id="618ox7gwmc" x1="0" y1="32" x2="32" y2="0" gradientUnits="userSpaceOnUse"><stop offset=".1" stop-color="#4589ff"/><stop offset=".9" stop-color="#33b1ff"/></linearGradient><mask id="0cxlljbosb" x="0" y="0" width="32" height="32" maskUnits="userSpaceOnUse"><path d="M26 29h-8c-1.103 0-2-.897-2-2V5c0-1.103.897-2 2-2h8c1.103 0 2 .897 2 2v22c0 1.103-.897 2-2 2zM18 5v22h8.001V5H18zM12 3H4c-1.103 0-2 .897-2 2v22c0 1.103.897 2 2 2h8c1.103 0 2-.897 2-2V5c0-1.103-.897-2-2-2zm0 6.919L5.851 5H12v4.919zM11.399 12 4 17.919V6.081L11.399 12zM12 14.08v11.839l-7.4-5.92 7.4-5.92zm-8 8.001L10.148 27H4v-4.919z" style="fill:#fff;stroke-width:0"/><path transform="rotate(90 27 15)" style="fill:url(#yr49fwhema);stroke-width:0" d="M22.4 13h9.202v4H22.4z" id="Gradients_black_" data-name="Gradients (black)"/><path style="stroke-width:0" d="M20 19h9v11h-9z"/></mask></defs><g style="mask:url(#0cxlljbosb)"><path style="fill:url(#618ox7gwmc);stroke-width:0" d="M0 0h32v32H0z"/></g><path d="m27 31-2.139-1.013A5.022 5.022 0 0 1 22 25.467v-6.468h10v6.468a5.023 5.023 0 0 1-2.861 4.52L27 31zm-3-10v4.468c0 1.153.674 2.218 1.717 2.711l1.283.607 1.283-.607A3.012 3.012 0 0 0 30 25.468V21h-6z" style="fill:#f4f4f4;stroke-width:0"/></svg>