<svg xmlns="http://www.w3.org/2000/svg" viewBox="0 0 32 32"><defs><linearGradient id="oeh4buqdoa" x1="28" y1="22" x2="28" y2="11" gradientUnits="userSpaceOnUse"><stop offset="0" stop-opacity="0"/><stop offset=".9"/></linearGradient><linearGradient id="1p3d774okb" x1="-3208" y1="636" x2="-3176" y2="604" gradientTransform="matrix(0 -1 -1 0 636 -3176)" gradientUnits="userSpaceOnUse"><stop offset=".1" stop-color="#3ddbd9"/><stop offset=".9" stop-color="#4589ff"/></linearGradient><mask id="xtvvhbccgc" x="0" y="0" width="32" height="32" maskUnits="userSpaceOnUse"><path d="M16 31a1 1 0 0 1-.5-.136l-12-7A1 1 0 0 1 3 23V9a1 1 0 0 1 .5-.864l12-7a1 1 0 0 1 1.008 0l12 7L27.5 9.864 16 3.158 5 9.574v12.852l11 6.417 11-6.417V12h2v11a1 1 0 0 1-.5.864l-12 7A1 1 0 0 1 16 31z" fill="#fff"/><path fill="url(#oeh4buqdoa)" d="M26 11h4v11h-4z"/></mask></defs><g data-name="Layer 2"><g data-name="Dark theme icons"><g fill="url(#1p3d774okb)" mask="url(#xtvvhbccgc)"><path d="M0 0h32v32H0z"/><path d="M0 0h32v32H0z"/></g><path d="M16 20a4 4 0 1 1 4-4 4 4 0 0 1-4 4zm0-6a2 2 0 1 0 2 2 2 2 0 0 0-2-2z" fill="#f4f4f4"/><circle cx="23" cy="12" r="2" fill="#f4f4f4"/><circle cx="9" cy="20" r="2" fill="#f4f4f4"/></g></g></svg>