<svg id="CloudTraining" xmlns="http://www.w3.org/2000/svg" viewBox="0 0 32 32"><defs><linearGradient id="uruamklkwa" x1="4" y1="23.5" x2="21" y2="23.5" gradientTransform="rotate(-180 12.5 23.5)" gradientUnits="userSpaceOnUse"><stop offset="0" stop-opacity="0"/><stop offset=".6"/></linearGradient><linearGradient id="v0fbmobljb" x1="15" x2="27" y2="12" gradientUnits="userSpaceOnUse"><stop offset=".2" stop-opacity="0"/><stop offset=".74"/></linearGradient><linearGradient id="6badhfhupd" y1="32" x2="32" gradientUnits="userSpaceOnUse"><stop offset=".1" stop-color="#3ddbd9"/><stop offset=".9" stop-color="#4589ff"/></linearGradient><mask id="ou82utkzac" x="0" y="0" width="32" height="32" maskUnits="userSpaceOnUse"><path style="fill:#fff" d="M15.988 2H16h-.012zM20 23H7.5a5.5 5.5 0 0 1-.969-10.917l1.349-.244.259-1.346A8 8 0 0 1 23.731 10H25.8a10.005 10.005 0 0 0-19.627.115A7.5 7.5 0 0 0 7.491 25H20z"/><path transform="rotate(180 12.5 23.5)" style="fill:url(#uruamklkwa)" d="M4 21h17v5H4z"/><path style="fill:url(#v0fbmobljb)" d="M14 1h14v10H14z"/></mask></defs><g style="mask:url(#ou82utkzac)"><path style="fill:url(#6badhfhupd)" d="M0 0h32v32H0z"/></g><path d="M24 24h-4a5.006 5.006 0 0 0-5 5v1h2v-1a3 3 0 0 1 3-3h4a3 3 0 0 1 3 3v1h2v-1a5.006 5.006 0 0 0-5-5zM31 10H13v2h4v5a5 5 0 0 0 10 0v-5h4zm-9 10a3 3 0 0 1-3-3v-1h6v1a3 3 0 0 1-3 3zm3-6h-6v-2h6z" style="fill:#f4f4f4"/><path d="M14 14a1 1 0 0 0-1 1v6h2v-6a1 1 0 0 0-1-1z" style="fill:#f4f4f4"/></svg>