<svg xmlns="http://www.w3.org/2000/svg" xmlns:xlink="http://www.w3.org/1999/xlink" viewBox="0 0 32 32"><defs><linearGradient id="vz6k2s6ofa" x1="85" y1="-27.5" x2="93" y2="-27.5" gradientTransform="translate(-80 47)" gradientUnits="userSpaceOnUse"><stop offset=".001" stop-opacity="0"/><stop offset=".7"/></linearGradient><linearGradient id="ae4vr6dvzb" x1="-768" y1="7007.5" x2="-760" y2="7007.5" gradientTransform="translate(787 -6988)" xlink:href="#vz6k2s6ofa"/><linearGradient id="nkiv5e2vnd" y1="32" x2="32" gradientUnits="userSpaceOnUse"><stop offset=".1" stop-color="#3ddbd9"/><stop offset=".9" stop-color="#4589ff"/></linearGradient><mask id="vbtso2gwpc" x="0" y="0" width="32" height="32" maskUnits="userSpaceOnUse"><path d="M24.8 9.136a8.994 8.994 0 0 0-17.6 0A6.5 6.5 0 0 0 8.5 22H12v-2H8.5a4.5 4.5 0 0 1-.356-8.981l.816-.064.1-.812a6.994 6.994 0 0 1 13.884 0l.1.812.816.064A4.5 4.5 0 0 1 23.5 20H20v2h3.5a6.5 6.5 0 0 0 1.3-12.864z" fill="#fff"/><path fill="url(#vz6k2s6ofa)" d="M5 16h8v7H5z" data-name="Gradients (black)"/><path transform="rotate(180 23 19.5)" fill="url(#ae4vr6dvzb)" d="M19 16h8v7h-8z" data-name="Gradients (black)"/></mask></defs><g data-name="Layer 2"><g data-name="Dark theme icons"><g mask="url(#vbtso2gwpc)"><path fill="url(#nkiv5e2vnd)" d="M0 0h32v32H0z"/></g><path d="M22 24a2.925 2.925 0 0 0-.471.048l-3.3-6.056A2.974 2.974 0 0 0 19 16a3 3 0 0 0-6 0 2.974 2.974 0 0 0 .774 1.992l-3.3 6.056A2.925 2.925 0 0 0 10 24a3 3 0 1 0 3 3 2.974 2.974 0 0 0-.774-1.992l3.3-6.056a2.335 2.335 0 0 0 .942 0l3.3 6.056A2.974 2.974 0 0 0 19 27a3 3 0 1 0 3-3zm-6-9a1 1 0 1 1-1 1 1 1 0 0 1 1-1zm-6 13a1 1 0 1 1 1-1 1 1 0 0 1-1 1zm12 0a1 1 0 1 1 1-1 1 1 0 0 1-1 1z" fill="#f4f4f4"/></g></g></svg>