<svg xmlns="http://www.w3.org/2000/svg" xmlns:xlink="http://www.w3.org/1999/xlink" viewBox="0 0 32 32">
  <defs>
    <linearGradient id="b2031cdd-c26d-480d-a7c7-a0cab6a461ec" x1="20.5" y1="12" x2="20.5" y2="2" gradientUnits="userSpaceOnUse">
      <stop offset="0.05" stop-color="#fff" stop-opacity="0"/>
      <stop offset="0.5" stop-color="#fff"/>
    </linearGradient>
    <mask id="ac9030c1-14df-4234-a791-f4e82f78edf5" x="0" y="0" width="32" height="32" maskUnits="userSpaceOnUse">
      <g>
        <path d="M28,30H13a2,2,0,0,1-2-2V24a2,2,0,0,1,2-2H28a2,2,0,0,1,2,2v4A2,2,0,0,1,28,30ZM13,24v4H28V24Z" fill="#fff"/>
        <path d="M28,20H13a2,2,0,0,1-2-2V14a2,2,0,0,1,2-2H28a2,2,0,0,1,2,2v4A2,2,0,0,1,28,20ZM13,14v4H28V14Z" fill="#fff"/>
        <path d="M30,12H28V6H19.586l-2-2H13v8H11V4a2,2,0,0,1,2-2h5.414l2,2H28a2,2,0,0,1,2,2Z" fill="url(#b2031cdd-c26d-480d-a7c7-a0cab6a461ec)"/>
      </g>
    </mask>
    <linearGradient id="b227c3a1-8d4d-49f9-94fd-8502d4e0778c" y1="32" x2="32" gradientUnits="userSpaceOnUse">
      <stop offset="0.1" stop-color="#be95ff"/>
      <stop offset="0.9" stop-color="#4589ff"/>
    </linearGradient>
  </defs>
  <g id="ac565582-1e27-4c02-855f-edd7811e350f" data-name="Layer 2">
    <g id="b111ce07-cbc3-4d0e-a690-22a740602228" data-name="Build icon here">
      <g>
        <g mask="url(#ac9030c1-14df-4234-a791-f4e82f78edf5)">
          <rect width="32" height="32" fill="url(#b227c3a1-8d4d-49f9-94fd-8502d4e0778c)"/>
        </g>
        <circle cx="16" cy="26" r="1" fill="#f4f4f4"/>
        <path d="M9,7V5H4V2H2V25a2,2,0,0,0,2,2H9V25H4V17H9V15H4V7Z" fill="#f4f4f4"/>
      </g>
    </g>
  </g>
</svg>
