<svg xmlns="http://www.w3.org/2000/svg" viewBox="0 0 128 128"><defs><linearGradient id="CloudDatabasesRabbit_svg__b" y1="128" x2="128" gradientUnits="userSpaceOnUse"><stop offset=".1" stop-color="#ee5396"/><stop offset=".899" stop-color="#fa4d56"/></linearGradient><mask id="CloudDatabasesRabbit_svg__a" x="0" y="0" width="128" height="128" maskUnits="userSpaceOnUse"><path d="M27.891 96H15.746V31.783h28.981a21.418 21.418 0 017.914 1.381 16.014 16.014 0 015.933 4 18.243 18.243 0 013.77 6.3 23.868 23.868 0 011.336 8.187 21.1 21.1 0 01-2.992 11.408 16.294 16.294 0 01-8.969 6.807L64.875 96H51.352L39.391 71.25h-11.5zm15.64-34.961a7.776 7.776 0 005.52-1.885 7 7 0 002.023-5.383v-4.232a6.857 6.857 0 00-2.023-5.339 7.912 7.912 0 00-5.52-1.84h-15.64v18.679zM110.508 96a8.252 8.252 0 01-6.117-2.254 10.361 10.361 0 01-2.809-6.027h-.551a11.26 11.26 0 01-4.875 7.039 16.641 16.641 0 01-9.109 2.342q-7.359 0-11.317-3.848a13.686 13.686 0 01-3.957-10.272q0-7.424 5.336-11.05t15.184-3.621h8.187v-3.5a8.678 8.678 0 00-2.117-6.255q-2.115-2.209-6.808-2.209a11.27 11.27 0 00-6.668 1.8 17.678 17.678 0 00-4.282 4.277l-6.992-6.293a20.336 20.336 0 017.087-6.711q4.419-2.546 11.684-2.547 9.75 0 14.812 4.406t5.059 12.666v22.58h4.785V96zM91 88.547a12.366 12.366 0 006.715-1.735 5.665 5.665 0 002.761-5.117v-6.3h-7.542q-9.2 0-9.2 5.851v1.551a5.077 5.077 0 001.887 4.34A8.827 8.827 0 0091 88.547z" fill="#fff"/></mask></defs><g data-name="Layer 2"><g mask="url(#CloudDatabasesRabbit_svg__a)" data-name="Light theme icons"><path fill="url(#CloudDatabasesRabbit_svg__b)" d="M0 0h128v128H0z"/></g></g></svg>