<svg data-name="Build icon here" xmlns="http://www.w3.org/2000/svg" viewBox="0 0 32 32"><defs><linearGradient id="pe6o4umyea" x1="6159" y1="-6506.5" x2="6166" y2="-6506.5" gradientTransform="translate(-6155 6523)" gradientUnits="userSpaceOnUse"><stop offset=".2"/><stop offset=".99" stop-opacity="0"/></linearGradient><linearGradient id="hw1ldzsmib" x1="6142" y1="-6505.5" x2="6149" y2="-6505.5" gradientTransform="translate(-6121 6521)" gradientUnits="userSpaceOnUse"><stop offset=".01" stop-opacity="0"/><stop offset=".8"/></linearGradient><linearGradient id="vck1ychs2d" y1="32" x2="32" gradientUnits="userSpaceOnUse"><stop offset=".1" stop-color="#3ddbd9"/><stop offset=".9" stop-color="#4589ff"/></linearGradient><mask id="6b42k3tioc" x="0" y="0" width="32" height="32" maskUnits="userSpaceOnUse"><path d="M26 22a4 4 0 0 0-3.858 3H8a4 4 0 0 1 0-8h2v-2H8a6 6 0 0 0 0 12h14.142A3.993 3.993 0 1 0 26 22zm0 6a2 2 0 1 1 2-2 2 2 0 0 1-2 2zM6 10a4 4 0 0 0 3.858-3H24a4 4 0 0 1 0 8h-2v2h2a6 6 0 0 0 0-12H9.858A3.993 3.993 0 1 0 6 10zm0-6a2 2 0 1 1-2 2 2 2 0 0 1 2-2z" fill="#fff"/><path transform="rotate(180 7.5 16.5)" fill="url(#pe6o4umyea)" d="M4 12h7v9H4z"/><path transform="rotate(180 24.5 15.5)" fill="url(#hw1ldzsmib)" d="M21 11h7v9h-7z"/></mask></defs><g mask="url(#6b42k3tioc)"><path fill="url(#vck1ychs2d)" d="M0 0h32v32H0z"/></g><path fill="#f4f4f4" d="M10 13h2v6h-2zm9-3v2h-6v-2zm0 10v2h-6v-2zm1-7h2v6h-2z"/></svg>