<svg xmlns="http://www.w3.org/2000/svg" xmlns:xlink="http://www.w3.org/1999/xlink" viewBox="0 0 32 32"><defs><style>.cls-1{fill:#fff;}.cls-2{fill:url(#linear-gradient);}.cls-3{mask:url(#mask);}.cls-4{fill:url(#linear-gradient-2);}.cls-5{fill:#f4f4f4;}</style><linearGradient id="linear-gradient" x1="827.5" y1="4690.5" x2="838.5" y2="4690.5" gradientTransform="translate(-823.5 -4669.5)" gradientUnits="userSpaceOnUse"><stop offset="0.1"/><stop offset="0.888" stop-opacity="0"/></linearGradient><mask id="mask" x="0" y="0" width="32" height="32" maskUnits="userSpaceOnUse"><circle id="node" class="cls-1" cx="7" cy="25" r="1"/><path id="storage" class="cls-1" d="M28,20H26v2h2v6H4V22H14V20H4a2,2,0,0,0-2,2v6a2,2,0,0,0,2,2H28a2,2,0,0,0,2-2V22A2,2,0,0,0,28,20Z"/><rect class="cls-2" x="4" y="19" width="11" height="4" transform="translate(19 42) rotate(180)"/></mask><linearGradient id="linear-gradient-2" y1="32" x2="32" gradientUnits="userSpaceOnUse"><stop offset="0.1" stop-color="#be95ff"/><stop offset="0.9" stop-color="#4589ff"/></linearGradient></defs><g id="Layer_2" data-name="Layer 2"><g id="Dark_theme_icons" data-name="Dark theme icons"><g class="cls-3"><rect class="cls-4" width="32" height="32"/></g><path id="data" class="cls-5" d="M18,10H10V2h8ZM12,8h4V4H12Z"/><path class="cls-5" d="M22,14H16v8h8V16h6V8H22Zm0,6H18V16h4Zm6-10v4H24V10Z"/></g></g></svg>