<svg id="CloudBackupForClassic" xmlns="http://www.w3.org/2000/svg" viewBox="0 0 32 32"><defs><linearGradient id="j03lqvvpaa" x1="72.499" y1="-27" x2="83.499" y2="-27" gradientTransform="translate(-66.5 49.5)" gradientUnits="userSpaceOnUse"><stop offset="0" stop-opacity="0"/><stop offset=".83"/></linearGradient><linearGradient id="eihdkx1d6c" x1="0" y1="32" x2="32" y2="0" gradientUnits="userSpaceOnUse"><stop offset=".1" stop-color="#34de82"/><stop offset=".9" stop-color="#009f9a"/></linearGradient><mask id="n3glv4234b" x="0" y="0" width="32" height="32" maskUnits="userSpaceOnUse"><path d="M6 20h10v-2H6v-6h18V4a2 2 0 0 0-2-2H6a2 2 0 0 0-2 2v22a2 2 0 0 0 2 2h10v-2H6v-6zM6 4h16v6H6V4z" style="fill:#fff;stroke-width:0"/><path style="fill:url(#j03lqvvpaa);stroke-width:0" d="M5.999 16h11v13h-11z" id="Gradients_black_" data-name="Gradients (black)"/></mask></defs><g style="mask:url(#n3glv4234b)"><path id="Color" style="fill:url(#eihdkx1d6c);stroke-width:0" d="M0 0h32v32H0z"/></g><circle cx="9" cy="23" r="1" style="fill:#f3f3f3;stroke-width:0"/><circle cx="9" cy="15" r="1" style="fill:#f3f3f3;stroke-width:0"/><circle cx="9" cy="7" r="1" style="fill:#f3f3f3;stroke-width:0"/><path style="fill:#f3f3f3;stroke-width:0" d="M20 27h6v2h-6zM20 17h6v2h-6zM17 20h2v6h-2zM27 20h2v6h-2z"/></svg>