<svg xmlns="http://www.w3.org/2000/svg" xmlns:xlink="http://www.w3.org/1999/xlink" viewBox="0 0 32 32"><defs><style>.cls-1{fill:#fff;}.cls-2{fill:url(#linear-gradient);}.cls-3{mask:url(#mask);}.cls-4{fill:url(#linear-gradient-2);}.cls-5{fill:#f4f4f4;}</style><linearGradient id="linear-gradient" x1="-3490" y1="3842" x2="-3490" y2="3827" gradientTransform="translate(3500.5 -3807.5)" gradientUnits="userSpaceOnUse"><stop offset="0.5"/><stop offset="1" stop-opacity="0"/></linearGradient><mask id="mask" x="0" y="0" width="32" height="32" maskUnits="userSpaceOnUse"><path class="cls-1" d="M22,28H6a2,2,0,0,1-2-2V10A2,2,0,0,1,6,8H22a2,2,0,0,1,2,2V26A2,2,0,0,1,22,28ZM6,26H22l0-16L6,10Z"/><path class="cls-1" d="M28,22H26l0-2H28L28,4,12,4l0,2H10V4a2.006,2.006,0,0,1,2-2H28a2.006,2.006,0,0,1,2,2V20A2.006,2.006,0,0,1,28,22Z"/><rect class="cls-2" x="8.5" y="19.5" width="4" height="15" transform="translate(37.5 16.5) rotate(90)"/><rect x="3" y="20" width="4" height="9.078"/></mask><linearGradient id="linear-gradient-2" y1="32" x2="32" gradientUnits="userSpaceOnUse"><stop offset="0.1" stop-color="#3ddbd9"/><stop offset="0.9" stop-color="#4589ff"/></linearGradient></defs><g id="Layer_2" data-name="Layer 2"><g id="Dark_theme_icons" data-name="Dark theme icons"><g class="cls-3"><rect id="Color" class="cls-4" width="32" height="32"/></g><polygon class="cls-5" points="4.451 29.012 15.999 17.412 15.999 22.007 18 22 18 14 10 14 10 15.992 14.585 15.999 3.037 27.6 4.451 29.012"/></g></g></svg>