<svg id="CloudBackupServiceVPC" xmlns="http://www.w3.org/2000/svg" viewBox="0 0 32 32"><defs><linearGradient id="kiq8f7p2oa" x1="74.5" y1="-27" x2="85.5" y2="-27" gradientTransform="translate(-66.5 49.5)" gradientUnits="userSpaceOnUse"><stop offset=".001" stop-opacity="0"/><stop offset=".7"/></linearGradient><linearGradient id="vipvu41mcc" y1="32" x2="32" gradientUnits="userSpaceOnUse"><stop offset=".1" stop-color="#ff7eb6"/><stop offset=".9" stop-color="#a56eff"/></linearGradient><mask id="m16fmqpzob" x="0" y="0" width="32" height="32" maskUnits="userSpaceOnUse"><path d="M6 20h12v-2H6v-6h18V4a2 2 0 0 0-2-2H6a2 2 0 0 0-2 2v22a2 2 0 0 0 2 2h12v-2H6zM6 4h16v6H6z" style="fill:#fff"/><path style="fill:url(#kiq8f7p2oa)" d="M8 16h11v13H8z" id="Gradients_black_" data-name="Gradients (black)"/></mask></defs><g style="mask:url(#m16fmqpzob)"><path id="Color" style="fill:url(#vipvu41mcc)" d="M0 0h32v32H0z"/></g><circle cx="9" cy="23" r="1" style="fill:#f4f4f4"/><circle cx="9" cy="15" r="1" style="fill:#f4f4f4"/><circle cx="9" cy="7" r="1" style="fill:#f4f4f4"/><path d="M30 15h-7v7h2v-3.576a4.993 4.993 0 1 1-5.536 1.04L18.05 18.05A7.006 7.006 0 1 0 26.587 17H30z" style="fill:#f4f4f4"/></svg>