<svg xmlns="http://www.w3.org/2000/svg" viewBox="0 0 32 32"><defs><linearGradient id="CloudDedicatedHost_svg__a" x1="5550" y1="-576" x2="5550" y2="-583" gradientTransform="translate(-5534 592)" gradientUnits="userSpaceOnUse"><stop offset=".3" stop-color="#fff"/><stop offset="1" stop-color="#fff" stop-opacity="0"/></linearGradient><linearGradient id="CloudDedicatedHost_svg__c" y1="32" x2="32" gradientUnits="userSpaceOnUse"><stop offset=".1" stop-color="#3ddbd9"/><stop offset=".9" stop-color="#4589ff"/></linearGradient><mask id="CloudDedicatedHost_svg__b" x="0" y="0" width="32" height="32" maskUnits="userSpaceOnUse"><circle cx="9" cy="6" r="1" fill="#fff"/><path d="M26 2H6a2 2 0 00-2 2v4a2 2 0 002 2h20a2 2 0 002-2V4a2 2 0 00-2-2zm0 6H6V4h20z" fill="#fff"/><path transform="rotate(180 16 12.5)" fill="url(#CloudDedicatedHost_svg__a)" d="M15 9h2v7h-2z"/><path fill="#fff" d="M17 28v-2h-2v2H4v2h24v-2H17z"/></mask></defs><g data-name="Layer 2"><g data-name="Dark theme icons"><g mask="url(#CloudDedicatedHost_svg__b)"><path fill="url(#CloudDedicatedHost_svg__c)" d="M0 0h32v32H0z"/></g><circle cx="9" cy="20" r="1" fill="#f4f4f4"/><path d="M6 24h20a2 2 0 002-2v-4a2 2 0 00-2-2H6a2 2 0 00-2 2v4a2 2 0 002 2zm0-6h20v4H6z" fill="#f4f4f4"/></g></g></svg>