<svg xmlns="http://www.w3.org/2000/svg" xmlns:xlink="http://www.w3.org/1999/xlink" viewBox="0 0 32 32"><defs><linearGradient id="CloudSchematics_svg__a" x1="14" y1="6" x2="23" y2="6" gradientUnits="userSpaceOnUse"><stop offset="0" stop-opacity="0"/><stop offset=".9"/></linearGradient><linearGradient id="CloudSchematics_svg__b" x1="-684" y1="7454" x2="-675" y2="7454" gradientTransform="translate(693 -7428)" xlink:href="#CloudSchematics_svg__a"/><linearGradient id="CloudSchematics_svg__d" y1="32" x2="32" gradientUnits="userSpaceOnUse"><stop offset=".1" stop-color="#3ddbd9"/><stop offset=".9" stop-color="#4589ff"/></linearGradient><mask id="CloudSchematics_svg__c" x="0" y="0" width="32" height="32" maskUnits="userSpaceOnUse"><path d="M27 22v-3a4.006 4.006 0 00-4-4H9a2 2 0 01-2-2V9.858A4 4 0 009.858 7H22V5H9.858A3.992 3.992 0 105 9.858V13a4.006 4.006 0 004 4h14a2 2 0 012 2v3h-3v3H10v2h12v3h8v-8zM4 6a2 2 0 112 2 2 2 0 01-2-2zm24 22h-4v-4h4z" fill="#fff"/><path fill="url(#CloudSchematics_svg__a)" d="M14 4h9v4h-9z"/><path transform="rotate(180 13.5 26)" fill="url(#CloudSchematics_svg__b)" d="M9 24h9v4H9z"/></mask></defs><g data-name="Layer 2"><g data-name="Dark theme icons"><g mask="url(#CloudSchematics_svg__c)"><path fill="url(#CloudSchematics_svg__d)" d="M0 0h32v32H0z"/></g><path d="M26 10a4 4 0 114-4 4 4 0 01-4 4zm0-6a2 2 0 102 2 2 2 0 00-2-2zM6 30a4 4 0 114-4 4 4 0 01-4 4zm0-6a2 2 0 102 2 2 2 0 00-2-2z" fill="#f4f4f4"/></g></g></svg>