<svg data-name="Build icon here" xmlns="http://www.w3.org/2000/svg" viewBox="0 0 32 32"><defs><linearGradient id="ghg5n0nz0a" x1="15.993" y1="28.257" x2="29.007" y2="20.743" gradientUnits="userSpaceOnUse"><stop offset=".15" stop-opacity="0"/><stop offset=".5"/></linearGradient><linearGradient id="seeka21ztb" x1="1236.5" y1="-6256.501" x2="1248.5" y2="-6256.501" gradientTransform="translate(-1238.5 6271.5)" gradientUnits="userSpaceOnUse"><stop offset="0" stop-opacity="0"/><stop offset=".9"/></linearGradient><linearGradient id="li9gds4cld" y1="32" x2="32" gradientUnits="userSpaceOnUse"><stop offset=".1" stop-color="#be95ff"/><stop offset=".9" stop-color="#4589ff"/></linearGradient><mask id="aew2dq112c" x="0" y="0" width="32" height="32" maskUnits="userSpaceOnUse"><path d="m17 30-5-2.887a8.023 8.023 0 0 1-4-6.928V10a2 2 0 0 1 2-2h15v2H10v10.185a6.016 6.016 0 0 0 3 5.2l4 2.309 7.5-4.33 1 1.733z" fill="#fff"/><path fill="url(#ghg5n0nz0a)" d="M17 19h11v11H17z"/><path d="M5 20H3V5a2 2 0 0 1 2-2h14v2H5z" fill="#fff"/><path transform="rotate(90 4 15)" fill="url(#seeka21ztb)" d="M-2 13h12v4H-2z"/></mask></defs><g mask="url(#aew2dq112c)"><path fill="url(#li9gds4cld)" d="M0 0h32v32H0z"/></g><path fill="#f4f4f4" d="M20 21h8v2h-8zm0-4h8v2h-8zm0-4h8v2h-8zm-5 8h2v2h-2zm0-4h2v2h-2zm0-4h2v2h-2z"/></svg>