<svg id="CloudClusterNetworkForVPC" xmlns="http://www.w3.org/2000/svg" xmlns:xlink="http://www.w3.org/1999/xlink" viewBox="0 0 32 32"><defs><linearGradient id="l65xaufwib" x1="18" y1="16.5" x2="25" y2="16.5" gradientUnits="userSpaceOnUse"><stop offset=".2"/><stop offset=".846" stop-opacity="0"/></linearGradient><linearGradient id="s5riior5na" x1="5.232" y1="8.598" x2="11.232" y2="8.598" gradientTransform="matrix(1.194 0 0 1 -2.204 -.254)" gradientUnits="userSpaceOnUse"><stop offset=".2"/><stop offset=".9" stop-opacity="0"/></linearGradient><linearGradient id="vrqz77spvc" x1="-.866" y1="16.317" x2="5.134" y2="16.317" gradientTransform="matrix(1.194 0 0 1 5.407 8.036)" xlink:href="#s5riior5na"/><linearGradient id="wp4kb5zc6e" x1="-86" y1="-6250" x2="-118" y2="-6218" gradientTransform="translate(118 6250)" gradientUnits="userSpaceOnUse"><stop offset=".1" stop-color="#a56eff"/><stop offset=".9" stop-color="#ff7eb6"/></linearGradient><mask id="bp4ce4kdnd" x="0" y="0" width="32" height="32" maskUnits="userSpaceOnUse"><path d="M7 11.008 5.272 10l3.864-6.504A1 1 0 0 1 10 3h9v2h-8.426L7 11.008zM7.728 21.992 6 23l3.136 5.504A1 1 0 0 0 10 29h9v-2h-8.426l-2.847-5.008zM19 15h7v2h-7z" style="fill:#fff"/><path style="fill:url(#l65xaufwib)" d="M18 14h7v5h-7z"/><path transform="rotate(-60 7.626 8.344)" style="fill:url(#s5riior5na)" d="M4.044 5.844h7.165v5H4.044z"/><path transform="rotate(60 7.956 24.353)" style="fill:url(#vrqz77spvc)" d="M4.374 21.853h7.165v5H4.374z"/></mask></defs><g style="mask:url(#bp4ce4kdnd)"><path style="fill:url(#wp4kb5zc6e)" d="M0 0h32v32H0z"/></g><path d="M14.61 13.05C13.85 11.26 12.07 10 10 10s-3.85 1.26-4.61 3.05A3.999 3.999 0 0 0 6 21h8a3.999 3.999 0 0 0 .61-7.95zM14 19H6c-1.1 0-2-.9-2-2 0-.74.41-1.4 1.02-1.74.29-.17.62-.26.98-.26h1c0-.76.29-1.47.77-2 .55-.61 1.35-1 2.23-1s1.68.39 2.23 1c.48.53.77 1.24.77 2h1c.36 0 .69.09.98.26.61.34 1.02 1 1.02 1.74 0 1.1-.9 2-2 2zM25 3h2v2h-2zM21 3h2v2h-2zM25 27h2v2h-2zM28 15h2v2h-2zM21 27h2v2h-2z" style="fill:#f4f4f4"/></svg>