<svg xmlns="http://www.w3.org/2000/svg" xmlns:xlink="http://www.w3.org/1999/xlink" viewBox="0 0 32 32"><defs><style>.cls-1{fill:#fff;}.cls-2{fill:#f2f2f2;}.cls-3{fill:url(#linear-gradient);}.cls-4{mask:url(#mask);}.cls-5{fill:url(#linear-gradient-2);}.cls-6{fill:#f4f4f4;}</style><linearGradient id="linear-gradient" x1="25.5" y1="24" x2="25.5" y2="17" gradientUnits="userSpaceOnUse"><stop offset="0.2"/><stop offset="1" stop-opacity="0"/></linearGradient><mask id="mask" x="0" y="0" width="32" height="32" maskUnits="userSpaceOnUse"><path class="cls-1" d="M27,23H25V18a1,1,0,0,0-1-1H8a3,3,0,0,1-3-3V12H7v2a1,1,0,0,0,1,1H24a3,3,0,0,1,3,3Z"/><path class="cls-2" d="M12,22v8h8V22Zm6,6H14V24h4Z"/><path class="cls-2" d="M26,2a4,4,0,1,0,4,4A4,4,0,0,0,26,2Zm0,6a2,2,0,1,1,2-2A2,2,0,0,1,26,8Z"/><path class="cls-2" d="M16,2a4,4,0,1,0,4,4A4,4,0,0,0,16,2Zm0,6a2,2,0,1,1,2-2A2,2,0,0,1,16,8Z"/><path class="cls-2" d="M6,22a4,4,0,1,0,4,4A4,4,0,0,0,6,22Zm0,6a2,2,0,1,1,2-2A2,2,0,0,1,6,28Z"/><rect class="cls-3" x="23" y="17" width="5" height="7"/></mask><linearGradient id="linear-gradient-2" y1="32" x2="32" gradientUnits="userSpaceOnUse"><stop offset="0.1" stop-color="#ff7eb6"/><stop offset="0.9" stop-color="#a56eff"/></linearGradient></defs><g id="Layer_2" data-name="Layer 2"><g id="Dark_theme_icons" data-name="Dark theme icons"><g class="cls-4"><rect class="cls-5" width="32" height="32"/></g><path class="cls-6" d="M10,10V2H2v8ZM4,8V4H8V8Z"/><path class="cls-6" d="M26,22a4,4,0,1,0,4,4A4,4,0,0,0,26,22Zm0,6a2,2,0,1,1,2-2A2,2,0,0,1,26,28Z"/></g></g></svg>