<svg xmlns="http://www.w3.org/2000/svg" viewBox="0 0 32 32"><defs><linearGradient id="a2of2y7uma" x1="6.604" y1="28.604" x2="18.604" y2="16.604" gradientUnits="userSpaceOnUse"><stop offset=".61" stop-color="#fff"/><stop offset=".85" stop-color="#fff" stop-opacity="0"/></linearGradient><linearGradient id="kj04lar3wc" y1="32" x2="32" gradientUnits="userSpaceOnUse"><stop offset=".1" stop-color="#3ddbd9"/><stop offset=".9" stop-color="#4589ff"/></linearGradient><mask id="231jhuv2bb" x="0" y="0" width="32" height="32" maskUnits="userSpaceOnUse"><path d="M14.726 14.1A7 7 0 1 1 27.705 13h2.064a9 9 0 1 0-17.376.606L2 24v6h6l-.828-2H4v-3.172z" fill="#fff"/><circle cx="22" cy="10" r="2" fill="#fff"/><path fill="url(#a2of2y7uma)" d="m18.586 16.586-4.793 4.793L12.414 20 11 21.414l1.379 1.379-1.586 1.586L9.414 23 8 24.414l1.379 1.379-2.793 2.793L8 30l12-12-1.414-1.414z"/></mask></defs><g data-name="Layer 2"><g data-name="Build icon here"><g mask="url(#231jhuv2bb)"><path fill="url(#kj04lar3wc)" d="M0 0h32v32H0z"/></g><path fill="#f4f4f4" d="M19 23h4v4h-4zm7 0h4v4h-4zm-7-7h4v4h-4zm7 0h4v4h-4z"/></g></g></svg>