<svg xmlns="http://www.w3.org/2000/svg" viewBox="0 0 32 32"><defs><linearGradient id="jro3q0lm5a" x1="6" y1="24.5" x2="27" y2="24.5" gradientUnits="userSpaceOnUse"><stop offset=".1" stop-opacity="0"/><stop offset=".65"/></linearGradient><linearGradient id="jl9y87ywqb" x1="12.72" y1="27.967" x2="12.72" y2="16" gradientUnits="userSpaceOnUse"><stop offset="0" stop-color="#fff" stop-opacity=".05"/><stop offset=".8" stop-color="#fff"/></linearGradient><linearGradient id="xx5ekz9rkc" x1="6.474" y1="6.616" x2="12.215" y2="3.564" gradientUnits="userSpaceOnUse"><stop offset=".5"/><stop offset=".95" stop-opacity="0"/></linearGradient><linearGradient id="2gnxhki6fd" x1="3.331" y1="14.324" x2="6.28" y2="6.221" gradientUnits="userSpaceOnUse"><stop offset=".05" stop-opacity="0"/><stop offset=".62"/></linearGradient><linearGradient id="3w8grlemjf" y1="32" x2="32" gradientUnits="userSpaceOnUse"><stop offset=".1" stop-color="#3ddbd9"/><stop offset=".9" stop-color="#4589ff"/></linearGradient><mask id="xdo5bs04ve" x="0" y="0" width="32" height="32" maskUnits="userSpaceOnUse"><path d="M30 16a13.99 13.99 0 1 0-4.1 9.9l-1.414-1.414A11.992 11.992 0 0 1 4.049 17h25.9c.024-.332.051-.662.051-1zM4.051 15A12.011 12.011 0 0 1 12.79 4.449 24.336 24.336 0 0 0 10.037 15zm7.982 0a21.788 21.788 0 0 1 3.3-10.956 5.11 5.11 0 0 1 1.342 0A21.788 21.788 0 0 1 19.967 15zm9.93 0A24.322 24.322 0 0 0 19.21 4.449 12.011 12.011 0 0 1 27.949 15z" fill="#fff"/><path fill="url(#jro3q0lm5a)" d="M6 18h21v13H6z"/><path d="M15.441 27.967A21.7 21.7 0 0 1 12 16h-2a24.135 24.135 0 0 0 2.824 11.56 11.994 11.994 0 0 0 2.617.407z" fill="url(#jl9y87ywqb)"/><path d="M7.818 7.589a13.466 13.466 0 0 1 4.873-3.03l-1.075-2.121a14.182 14.182 0 0 0-5.563 3.386z" fill="url(#xx5ekz9rkc)"/><path d="M5.816 6.052a14.284 14.284 0 0 0-3.9 7.757l2.471.382a11.755 11.755 0 0 1 3.2-6.373z" fill="url(#2gnxhki6fd)"/><path transform="rotate(-45 6.82 6.82)" d="M6.567 5.565h.506v2.509h-.506z"/></mask></defs><g data-name="Layer 2"><g data-name="Dark theme icons"><g mask="url(#xdo5bs04ve)"><path fill="url(#3w8grlemjf)" d="M0 0h32v32H0z"/></g><circle cx="21" cy="21" r="2" fill="#f4f4f4"/><circle cx="7" cy="7" r="2" fill="#f4f4f4"/><path d="M27 31a4 4 0 1 1 4-4 4 4 0 0 1-4 4zm0-6a2 2 0 1 0 2 2 2 2 0 0 0-2-2z" fill="#f4f4f4"/></g></g></svg>