<svg xmlns="http://www.w3.org/2000/svg" xmlns:xlink="http://www.w3.org/1999/xlink" viewBox="0 0 32 32">
  <defs>
    <linearGradient id="fd207bae-e2f2-4c7e-8a6b-e76ab1941927" x1="15" y1="16" x2="15" y2="9" gradientUnits="userSpaceOnUse">
      <stop offset="0.3"/>
      <stop offset="1" stop-opacity="0"/>
    </linearGradient>
    <linearGradient id="fdcbd047-bcee-47a4-878e-a4295cc0a9b8" x1="27" y1="27" x2="27" y2="20" gradientUnits="userSpaceOnUse">
      <stop offset="0" stop-opacity="0"/>
      <stop offset="0.7"/>
    </linearGradient>
    <mask id="b0af6c52-7ad2-471c-9cf2-124003684916" x="0" y="0" width="32" height="32" maskUnits="userSpaceOnUse">
      <path d="M12,30a4,4,0,0,1-4-4V20h2v6a2,2,0,0,0,4,0V6a4,4,0,0,1,8,0v9H20V6a2,2,0,0,0-4,0V26A4,4,0,0,1,12,30Z" fill="#fff"/>
      <path d="M10,15H8V6A2,2,0,0,0,4,6v6H2V6a4,4,0,0,1,8,0Z" fill="#fff"/>
      <path d="M24,30a4,4,0,0,1-4-4V20h2v6a2,2,0,0,0,4,0V21h2v5A4,4,0,0,1,24,30Z" fill="#fff"/>
      <path d="M11,16H7V9h4ZM23,9H19v7h4Z" fill="url(#fd207bae-e2f2-4c7e-8a6b-e76ab1941927)"/>
      <rect x="25" y="20" width="4" height="7" fill="url(#fdcbd047-bcee-47a4-878e-a4295cc0a9b8)"/>
    </mask>
    <linearGradient id="febe3cd3-e6c5-4aa8-869d-9c1a7a310b13" y1="32" x2="32" gradientUnits="userSpaceOnUse">
      <stop offset="0.1" stop-color="#3ddbd9"/>
      <stop offset="0.9" stop-color="#4589ff"/>
    </linearGradient>
  </defs>
  <g id="e051eaf1-81e1-4d51-97b8-79aaa4d0ffd2" data-name="Layer 2">
    <g id="aaaa2f92-4889-45f1-9d68-dc3468b6204e" data-name="Build icon here">
      <g>
        <g mask="url(#b0af6c52-7ad2-471c-9cf2-124003684916)">
          <rect width="32" height="32" fill="url(#febe3cd3-e6c5-4aa8-869d-9c1a7a310b13)"/>
        </g>
        <polygon points="27.17 15 19 15 19 17 27.17 17 24.59 19.59 26 21 31 16 26 11 24.59 12.41 27.17 15" fill="#f4f4f4"/>
        <rect x="2" y="15" width="9" height="2" fill="#f4f4f4"/>
      </g>
    </g>
  </g>
</svg>
