<svg xmlns="http://www.w3.org/2000/svg" viewBox="0 0 32 32"><defs><linearGradient id="kwwz3469ea" x1="1329.405" y1="1044.356" x2="1333.642" y2="1044.356" gradientTransform="matrix(1.193 0 0 1 -1570.422 -1035.05)" gradientUnits="userSpaceOnUse"><stop offset=".13"/><stop offset="1" stop-opacity="0"/></linearGradient><linearGradient id="bwk46im9vc" y1="32" x2="32" gradientUnits="userSpaceOnUse"><stop offset=".1" stop-color="#3ddbd9"/><stop offset=".9" stop-color="#4589ff"/></linearGradient><mask id="h06umum1ub" x="0" y="0" width="32" height="32" maskUnits="userSpaceOnUse"><path d="m30.441 14.651-3.372-3.372 2.024-2.023-1.349-1.349-2.023 2.024-3.372-3.372a1.908 1.908 0 0 0-2.7 0l-3.37 3.372 1.349 1.348L21 7.907 29.093 16 21 24.093 12.907 16l1.679-1.678-1.349-1.349-1.678 1.678a1.908 1.908 0 0 0 0 2.7l8.092 8.092a1.908 1.908 0 0 0 2.7 0l8.092-8.092a1.908 1.908 0 0 0-.002-2.7z" fill="#fff"/><path transform="rotate(-45 18.306 9.306)" fill="url(#kwwz3469ea)" d="M15.478 7.41h5.657v3.793h-5.657z"/></mask></defs><g data-name="Layer 2"><g data-name="Dark theme icons"><g mask="url(#h06umum1ub)"><path fill="url(#bwk46im9vc)" d="M0 0h32v32H0z"/></g><path d="M13.237 21.856 11 24.093 2.907 16 11 7.907 19.093 16l-1.679 1.678 1.349 1.349 1.678-1.678a1.908 1.908 0 0 0 0-2.7l-8.092-8.09a1.908 1.908 0 0 0-2.7 0l-8.09 8.092a1.908 1.908 0 0 0 0 2.7l3.372 3.372-2.024 2.021 1.349 1.349 2.023-2.024 3.372 3.372a1.908 1.908 0 0 0 2.7 0l2.235-2.241z" fill="#f4f4f4"/></g></g></svg>