<svg id="SecretsManager" xmlns="http://www.w3.org/2000/svg" viewBox="0 0 32 32"><defs><linearGradient id="0nhv5ln25a" x1="2685.677" y1="-1652.963" x2="2698.018" y2="-1652.963" gradientTransform="matrix(1.172 0 0 .703 -3129.428 1185.299)" gradientUnits="userSpaceOnUse"><stop offset=".179"/><stop offset=".964" stop-opacity="0"/></linearGradient><linearGradient id="jtnjapf3lc" x1="0" y1="32" x2="32" y2="0" gradientUnits="userSpaceOnUse"><stop offset=".1" stop-color="#3ddbd9"/><stop offset=".9" stop-color="#4589ff"/></linearGradient><mask id="6glzydrfvb" x="0" y="0" width="32" height="32" maskUnits="userSpaceOnUse"><path d="M16 30C8.28 30 2 23.72 2 16S8.28 2 16 2s14 6.28 14 14-6.28 14-14 14zm0-26C9.383 4 4 9.383 4 16s5.383 12 12 12 12-5.383 12-12S22.617 4 16 4z" style="fill:#fff"/><path transform="rotate(113.227 24.267 22.543)" style="fill:url(#0nhv5ln25a)" d="M16.651 17.62h15.232v9.848H16.651z" id="Gradients_black_" data-name="Gradients (black)"/><path style="fill:#fff" d="M26 15h6v2h-6z"/></mask></defs><path style="fill:none" d="M0 0h32v32H0z"/><g style="fill:none;mask:url(#6glzydrfvb)"><path style="fill:url(#jtnjapf3lc)" d="M0 0h32v32H0z"/></g><path d="M20 16c0-.74-.215-1.424-.567-2.019l3.274-3.274-1.414-1.414-3.274 3.274C17.424 12.216 16.739 12 16 12s-1.424.215-2.019.567l-3.274-3.274-1.414 1.414 3.274 3.274C12.216 14.576 12 15.261 12 16s.215 1.424.567 2.019l-3.274 3.274 1.414 1.414 3.274-3.274c.595.351 1.28.567 2.019.567s1.424-.215 2.019-.567l3.274 3.274 1.414-1.414-3.274-3.274A3.96 3.96 0 0 0 20 16zm-4 2c-1.103 0-2-.897-2-2s.897-2 2-2 2 .897 2 2-.897 2-2 2z" style="fill:#f4f4f4"/></svg>