<svg data-name="Build icon here" xmlns="http://www.w3.org/2000/svg" viewBox="0 0 32 32"><defs><linearGradient id="oblst6ecya" x1="8" y1="5" x2="21" y2="5" gradientUnits="userSpaceOnUse"><stop offset="0" stop-opacity="0"/><stop offset=".7"/></linearGradient><linearGradient id="4tx0p6e7zc" x1="-3387.353" y1="32" x2="-3417.471" gradientTransform="matrix(1.063 0 0 -1 3631.063 32)" gradientUnits="userSpaceOnUse"><stop offset=".1" stop-color="#ff7eb6"/><stop offset=".9" stop-color="#a56eff"/></linearGradient><mask id="x3fffvu84b" x="0" y="0" width="32" height="32" maskUnits="userSpaceOnUse"><path d="M28 16v6H4V6h16V4H4a2 2 0 0 0-2 2v16a2 2 0 0 0 2 2h8v4H8v2h16v-2h-4v-4h8a2 2 0 0 0 2-2v-6zM18 28h-4v-4h4z" fill="#fff"/><path fill="url(#oblst6ecya)" d="M8 3h13v4H8z"/></mask></defs><g mask="url(#x3fffvu84b)"><path transform="rotate(180 16 16)" fill="url(#4tx0p6e7zc)" d="M0 0h32v32H0z"/></g><path d="M11 10.938h4.891l1.693 5.906a1 1 0 0 0 1.881 0l2.822-9.938.941 3.375a1.133 1.133 0 0 0 .94.657H30V9.062h-5.079l-1.693-5.906a.935.935 0 0 0-.941-.656 1.022 1.022 0 0 0-.94.656l-2.822 9.938-.941-3.375a1.133 1.133 0 0 0-.941-.657H11v1.876z" fill="#f4f4f4"/></svg>