<svg xmlns="http://www.w3.org/2000/svg" viewBox="0 0 32 32"><defs><linearGradient id="cf4fg7l5ka" x1="89" y1="-24.5" x2="100" y2="-24.5" gradientTransform="translate(-80 47)" gradientUnits="userSpaceOnUse"><stop offset=".001" stop-opacity="0"/><stop offset=".8"/></linearGradient><linearGradient id="ixmfzt3zwc" y1="32" x2="32" gradientUnits="userSpaceOnUse"><stop offset=".1" stop-color="#3ddbd9"/><stop offset=".9" stop-color="#4589ff"/></linearGradient><mask id="wb0e6joigb" x="0" y="0" width="32" height="32" maskUnits="userSpaceOnUse"><path d="M16 4a9 9 0 0 0-8.8 7.136A6.5 6.5 0 0 0 8.5 24H19v-2H8.5a4.5 4.5 0 0 1-.356-8.981l.816-.064.1-.812A7 7 0 0 1 23 13h2a9.01 9.01 0 0 0-9-9z" fill="#fff"/><path fill="url(#cf4fg7l5ka)" d="M9 19h11v7H9z"/></mask></defs><g data-name="Layer 2"><g data-name="Dark theme icons"><g mask="url(#wb0e6joigb)"><path fill="url(#ixmfzt3zwc)" d="M0 0h32v32H0z"/></g><path fill="#f4f4f4" d="M19 23h4v4h-4zm7 0h4v4h-4zm-7-7h4v4h-4zm7 0h4v4h-4z"/></g></g></svg>