<svg id="CloudAppID" xmlns="http://www.w3.org/2000/svg" viewBox="0 0 32 32"><defs><linearGradient id="3psocby7ia" x1="842.75" y1="-23.25" x2="827.25" y2="-7.75" gradientTransform="translate(-810 39)" gradientUnits="userSpaceOnUse"><stop offset=".263" stop-opacity="0"/><stop offset=".82"/></linearGradient><linearGradient id="917sgf1idb" x1="-496.5" y1="-271.5" x2="-496.5" y2="-246.5" gradientTransform="translate(511 267)" gradientUnits="userSpaceOnUse"><stop offset=".119" stop-opacity="0"/><stop offset=".526"/></linearGradient><linearGradient id="prhci3x5vd" data-name="IBM gradient 1 dark" x1="0" y1="32" x2="32" y2="0" gradientUnits="userSpaceOnUse"><stop offset=".1" stop-color="#3ddbd9"/><stop offset=".9" stop-color="#4589ff"/></linearGradient><mask id="37igwpdjoc" x="2" y="0" width="31" height="31" maskUnits="userSpaceOnUse"><circle cx="17" cy="16" r="13" style="fill:none;stroke:#fff;stroke-miterlimit:10;stroke-width:2px"/><path transform="rotate(180 25 23.5)" style="fill:url(#3psocby7ia)" d="M17 16h16v15H17z"/><path transform="rotate(90 14.5 8)" style="fill:url(#917sgf1idb)" d="M6.5-4.5h16v25h-16z"/></mask></defs><path style="fill:none" d="M0 0h32v32H0z"/><g style="mask:url(#37igwpdjoc)"><path style="fill:url(#prhci3x5vd)" d="M0 0h32v32H0z"/></g><path d="M20 18h-6a3 3 0 0 0-3 3v2h2v-2a1 1 0 0 1 1-1h6a1 1 0 0 1 1 1v2h2v-2a3 3 0 0 0-3-3zM17 17a4 4 0 1 0 0-8 4 4 0 0 0 0 8zm0-6a2 2 0 1 1 .001 3.999A2 2 0 0 1 17 11zM6 14l-2.139-1.013A5.022 5.022 0 0 1 1 8.467V2h10v6.468a5.023 5.023 0 0 1-2.861 4.52L6 14.001zM3 4v4.468c0 1.153.674 2.218 1.717 2.711L6 11.786l1.283-.607A3.012 3.012 0 0 0 9 8.468V4H3z" style="fill:#f4f4f4"/></svg>