<svg xmlns="http://www.w3.org/2000/svg" viewBox="0 0 32 32"><defs><linearGradient id="d9q5cqtx5a" x1="-58.495" y1="-147.5" x2="-48.495" y2="-147.5" gradientTransform="translate(75.495 170.505)" gradientUnits="userSpaceOnUse"><stop offset=".3"/><stop offset="1" stop-opacity="0"/></linearGradient><linearGradient id="4bjb7jcatc" y1="32" x2="32" gradientUnits="userSpaceOnUse"><stop offset=".1" stop-color="#ff7eb6"/><stop offset=".9" stop-color="#a56eff"/></linearGradient><mask id="1cdiobh0mb" x="0" y="0" width="32" height="32" maskUnits="userSpaceOnUse"><path d="M8 11V9H4a2 2 0 0 0-2 2v17.005a2 2 0 0 0 2 2h17a2 2 0 0 0 2-2v-9h-2v9H4V11" fill="#fff"/><path transform="rotate(90 22 23.005)" fill="url(#d9q5cqtx5a)" d="M17 21.005h10v4H17z"/></mask></defs><g data-name="Layer 2"><g data-name="Build icon here"><g mask="url(#1cdiobh0mb)"><path fill="url(#4bjb7jcatc)" d="M0 0h32v32H0z"/></g><path d="M20 13h-7a2 2 0 0 1-2-2V4a2 2 0 0 1 2-2h7a2 2 0 0 1 2 2v7a2 2 0 0 1-2 2zm-7-9v7h7V4zm15 17h-3a2 2 0 0 1-2-2v-3a2 2 0 0 1 2-2h3a2 2 0 0 1 2 2v3a2 2 0 0 1-2 2zm-3-5v3h3v-3zm-10 9h-5a2 2 0 0 1-2-2v-5a2 2 0 0 1 2-2h5a2 2 0 0 1 2 2v5a2 2 0 0 1-2 2zm-5-7v5h5v-5z" fill="#f4f4f4"/></g></g></svg>