<svg xmlns="http://www.w3.org/2000/svg" xmlns:xlink="http://www.w3.org/1999/xlink" viewBox="0 0 128 128"><defs><style>.cls-1{fill:#fff;}.cls-2{mask:url(#mask);}.cls-3{fill:url(#linear-gradient);}</style><mask id="mask" x="0" y="0" width="128" height="128" maskUnits="userSpaceOnUse"><path class="cls-1" d="M26.234,96H14.09V31.781H43.07a21.373,21.373,0,0,1,7.914,1.383,16.061,16.061,0,0,1,5.934,4,18.271,18.271,0,0,1,3.77,6.305,23.868,23.868,0,0,1,1.335,8.187,21.091,21.091,0,0,1-2.992,11.406,16.281,16.281,0,0,1-8.969,6.809L63.219,96H49.7L37.734,71.25h-11.5ZM41.875,61.039a7.775,7.775,0,0,0,5.52-1.883,7.009,7.009,0,0,0,2.023-5.383V49.539A6.857,6.857,0,0,0,47.4,44.2a7.9,7.9,0,0,0-5.52-1.84H26.234V61.039Z"/><path class="cls-1" d="M102.871,88h-.461a12.266,12.266,0,0,1-4.875,6.621A14.351,14.351,0,0,1,89.16,97.1q-9.1,0-13.937-6.532T70.4,71.9q0-12.058,4.828-18.539T89.16,46.871a14.556,14.556,0,0,1,8.375,2.441,12.076,12.076,0,0,1,4.875,6.579h.461V27.922h11.774V96H102.871Zm-9.937-.644a11.926,11.926,0,0,0,7.086-2.024,6.683,6.683,0,0,0,2.851-5.8V64.258a6.662,6.662,0,0,0-2.851-5.61,11.577,11.577,0,0,0-7.086-2.117,9.551,9.551,0,0,0-7.407,3.082,11.769,11.769,0,0,0-2.8,8.235v8.281a11.586,11.586,0,0,0,2.8,8.187A9.61,9.61,0,0,0,92.934,87.352Z"/></mask><linearGradient id="linear-gradient" y1="128" x2="128" gradientUnits="userSpaceOnUse"><stop offset="0.1" stop-color="#fa4d56"/><stop offset="0.9" stop-color="#da1e28"/></linearGradient></defs><g id="Layer_2" data-name="Layer 2"><g id="Light_theme_icons" data-name="Light theme icons"><g class="cls-2"><rect id="Color" class="cls-3" width="128" height="128"/></g></g></g></svg>