<svg xmlns="http://www.w3.org/2000/svg" viewBox="0 0 32 32"><defs><linearGradient id="dsxqn118ra" x1="20.25" y1="7.75" x2="29.75" y2="17.25" gradientUnits="userSpaceOnUse"><stop offset=".309"/><stop offset=".66" stop-opacity="0"/></linearGradient><linearGradient id="rb22utndtb" x1="19.5" y1="18" x2="19.5" y2="2" gradientUnits="userSpaceOnUse"><stop offset=".314" stop-color="#fff" stop-opacity="0"/><stop offset=".689" stop-color="#fff"/></linearGradient><linearGradient id="0wb467ohvd" x1="-1160" y1="1130" x2="-1128" y2="1098" gradientTransform="translate(1160 -1098)" gradientUnits="userSpaceOnUse"><stop offset=".1" stop-color="#ff7eb6"/><stop offset=".9" stop-color="#a56eff"/></linearGradient><mask id="hshgzmbcdc" x="0" y="0" width="32" height="32" maskUnits="userSpaceOnUse"><path d="M23.76 8.05A6.326 6.326 0 0 0 23 8v2a3.657 3.657 0 0 1 1 .13A4 4 0 0 1 23 18H9a4 4 0 0 1-1-7.87A3.657 3.657 0 0 1 9 10h1a5.98 5.98 0 0 1 6-6V2a7.994 7.994 0 0 0-7.76 6.05A6 6 0 0 0 9 20h14a6 6 0 0 0 .76-11.95z" fill="#fff"/><path fill="url(#dsxqn118ra)" d="M21 7h8v11h-8z"/><path d="m16 2-1 1 1 1a6 6 0 0 1 0 12v2a8 8 0 0 0 0-16z" fill="url(#rb22utndtb)"/></mask></defs><g data-name="Layer 2"><g data-name="Build icon here"><g mask="url(#hshgzmbcdc)"><path fill="url(#0wb467ohvd)" d="M0 0h32v32H0z"/></g><circle cx="8" cy="26" r="1" fill="#f4f4f4"/><path d="M5 30h22a2 2 0 0 0 2-2v-4a2 2 0 0 0-2-2H5a2 2 0 0 0-2 2v4a2 2 0 0 0 2 2zm0-6h22v4H5z" fill="#f4f4f4"/></g></g></svg>