<svg xmlns="http://www.w3.org/2000/svg" viewBox="0 0 32 32"><defs><linearGradient id="1uonv6xpea" x1="-533.5" y1="6792.5" x2="-513.5" y2="6792.5" gradientTransform="translate(539.5 -6769.5)" gradientUnits="userSpaceOnUse"><stop offset="0" stop-opacity="0"/><stop offset=".4"/><stop offset=".6"/><stop offset="1" stop-opacity="0"/></linearGradient><linearGradient id="zmobpzvmkc" y1="32" x2="32" gradientUnits="userSpaceOnUse"><stop offset=".1" stop-color="#be95ff"/><stop offset=".9" stop-color="#4589ff"/></linearGradient><mask id="20bzk6jalb" x="0" y="0" width="32" height="32" maskUnits="userSpaceOnUse"><path d="M26 22H6a2 2 0 0 0-2 2v4a2 2 0 0 0 2 2h20a2 2 0 0 0 2-2v-4a2 2 0 0 0-2-2zm0 6H6v-4h20zm0-26H6a2 2 0 0 0-2 2v4a2 2 0 0 0 2 2h20a2 2 0 0 0 2-2V4a2 2 0 0 0-2-2zm0 6H6V4h20z" fill="#fff"/><path transform="rotate(180 16 23)" fill="url(#1uonv6xpea)" d="M6 21h20v4H6z"/></mask></defs><g data-name="Layer 2"><g data-name="Dark theme icons"><g mask="url(#20bzk6jalb)"><path fill="url(#zmobpzvmkc)" d="M0 0h32v32H0z"/></g><circle cx="23" cy="26" r="1" fill="#f4f4f4"/><circle cx="9" cy="6" r="1" fill="#f4f4f4"/><path fill="#f4f4f4" d="M17 26V15.828l2.586 2.586L21 17l-5-5-5 5 1.414 1.414L15 15.828V26h2z"/></g></g></svg>