<svg xmlns="http://www.w3.org/2000/svg" viewBox="0 0 32 32"><defs><linearGradient id="r2tk3vp46a" x1="28" y1="22" x2="28" y2="11" gradientUnits="userSpaceOnUse"><stop offset="0" stop-opacity="0"/><stop offset=".9"/></linearGradient><linearGradient id="yr89ntgp0c" x1="-3733" y1="111" x2="-3701" y2="79" gradientTransform="matrix(1 0 0 -1 3733 111)" gradientUnits="userSpaceOnUse"><stop offset=".1" stop-color="#3ddbd9"/><stop offset=".9" stop-color="#4589ff"/></linearGradient><mask id="p6k4nc4pvb" x="0" y="0" width="32" height="32" maskUnits="userSpaceOnUse"><path d="M16 31a1 1 0 0 1-.5-.136l-12-7A1 1 0 0 1 3 23V9a1 1 0 0 1 .5-.864l12-7a1 1 0 0 1 1.008 0l12 7L27.5 9.864 16 3.158 5 9.574v12.852l11 6.417 11-6.417V12h2v11a1 1 0 0 1-.5.864l-12 7A1 1 0 0 1 16 31z" fill="#fff"/><path fill="url(#r2tk3vp46a)" d="M26 11h4v11h-4z"/></mask></defs><g data-name="Layer 2"><g data-name="Dark theme icons"><g mask="url(#p6k4nc4pvb)"><path transform="rotate(-90 16 16)" fill="url(#yr89ntgp0c)" d="M0 0h32v32H0z"/></g><path d="M16 23a.994.994 0 0 1-.515-.143l-5-3A1 1 0 0 1 10 19v-6a1 1 0 0 1 .485-.857l5-3a1 1 0 0 1 1.03 0l5 3A1 1 0 0 1 22 13v6a1 1 0 0 1-.485.857l-5 3A.994.994 0 0 1 16 23zm-4-4.566 4 2.4 4-2.4v-4.868l-4-2.4-4 2.4z" fill="#f4f4f4"/></g></g></svg>