<svg id="CloudSecurity" xmlns="http://www.w3.org/2000/svg" viewBox="0 0 32 32"><defs><linearGradient id="zt7vgmf0ra" x1="13" y1="29" x2="31" y2="11" gradientUnits="userSpaceOnUse"><stop offset=".098" stop-opacity="0"/><stop offset=".45"/></linearGradient><linearGradient id="frz6l1i9tc" x1="0" y1="32" x2="32" y2="0" gradientUnits="userSpaceOnUse"><stop offset=".1" stop-color="#00deda"/><stop offset=".9" stop-color="#238aff"/></linearGradient><mask id="a9n3odohqb" x="0" y="0" width="32" height="32" maskUnits="userSpaceOnUse"><path d="M24 4v14.298a9.023 9.023 0 0 1-4.5 7.794L15 28.69l-4.5-2.598A9.025 9.025 0 0 1 6 18.298V4h18m0-2H6a2 2 0 0 0-2 2v14.298a11 11 0 0 0 5.5 9.526l5.5 3.175 5.5-3.175a10.998 10.998 0 0 0 5.5-9.526V4a2 2 0 0 0-2-2z" style="fill:#fff;stroke-width:0"/><path style="fill:url(#zt7vgmf0ra);stroke-width:0" d="M15 9h14v22H15z"/></mask></defs><g style="mask:url(#a9n3odohqb)"><path style="fill:url(#frz6l1i9tc);stroke-width:0" d="M0 0h32v32H0z"/></g><path d="M26 23h-8c-2.206 0-4-1.794-4-4a4.008 4.008 0 0 1 3.08-3.894C17.502 12.774 19.548 11 22 11s4.498 1.774 4.92 4.106A4.008 4.008 0 0 1 30 19c0 2.206-1.794 4-4 4zm-8-2h8c1.103 0 2-.897 2-2s-.897-2-2-2h-1v-1c0-1.654-1.346-3-3-3s-3 1.346-3 3v1h-1c-1.103 0-2 .897-2 2s.897 2 2 2z" style="fill:#f4f4f4;stroke-width:0"/></svg>