<svg id="CloudSandbox" xmlns="http://www.w3.org/2000/svg" viewBox="0 0 32 32"><defs><linearGradient id="uc8gyxdnwa" x1="1509.576" y1="-1552.59" x2="1523.576" y2="-1552.59" gradientTransform="translate(-1488.076 1564.59)" gradientUnits="userSpaceOnUse"><stop offset=".1" stop-opacity="0"/><stop offset=".924"/></linearGradient><linearGradient id="dkjp7nzevb" x1="-1566.424" y1="-1441.59" x2="-1552.424" y2="-1441.59" gradientTransform="translate(1562.924 1453.59)" gradientUnits="userSpaceOnUse"><stop offset=".1" stop-opacity="0"/><stop offset=".916"/></linearGradient><linearGradient id="fgb45af18d" x1="0" y1="32" x2="32" y2="0" gradientUnits="userSpaceOnUse"><stop offset=".1" stop-color="#ff7eb6"/><stop offset=".9" stop-color="#a56eff"/></linearGradient><mask id="tnpgksb6zc" x="0" y="0" width="32" height="32" maskUnits="userSpaceOnUse"><path d="M30 18h-2V4H3V2h25c1.103 0 2 .897 2 2v14zM17 30H4c-1.103 0-2-.897-2-2V6h2v22h13v2zM20 20h2v2h-2zM28 20h2v2h-2zM28 24h2v2h-2zM28 28h2v2h-2zM20 28h2v2h-2zM24 24h2v2h-2z" style="fill:#fff"/><path transform="rotate(90 28.5 12)" style="fill:url(#uc8gyxdnwa)" d="M21.5 9.5h14v5h-14z"/><path transform="rotate(-90 3.5 12)" style="fill:url(#dkjp7nzevb)" d="M-3.5 9.5h14v5h-14z"/></mask></defs><path style="fill:none" d="M0 0h32v32H0z"/><g style="mask:url(#tnpgksb6zc)"><path style="fill:url(#fgb45af18d)" d="M0 0h32v32H0z"/></g><path d="M22.92 15a6.947 6.947 0 0 0-1.322-3.184l1.405-1.405-1.414-1.414-1.405 1.405A6.957 6.957 0 0 0 17 9.08V7h-2v2.08a6.947 6.947 0 0 0-3.184 1.322l-1.23-1.23-.177-.177-1.414 1.414.177.177 1.23 1.23A6.962 6.962 0 0 0 9.08 15H7v2h2.08a6.947 6.947 0 0 0 1.322 3.184L9.016 21.57l1.414 1.414 1.386-1.386A6.957 6.957 0 0 0 15 22.92V25h2v-4.101A5.006 5.006 0 0 1 11 16c0-2.757 2.243-5 5-5a5.006 5.006 0 0 1 4.899 6H25v-2h-2.08z" style="fill:#f4f4f4"/></svg>