<svg xmlns="http://www.w3.org/2000/svg" viewBox="0 0 32 32"><defs><linearGradient id="5bdm1gleja" x1="26" y1="26" x2="26" y2="4" gradientUnits="userSpaceOnUse"><stop offset=".5" stop-opacity="0"/><stop offset=".9"/></linearGradient><linearGradient id="dj8g209bvc" y1="32" x2="32" gradientUnits="userSpaceOnUse"><stop offset=".1" stop-color="#3ddbd9"/><stop offset=".9" stop-color="#4589ff"/></linearGradient><mask id="0n8hg2pzyb" x="0" y="0" width="32" height="32" maskUnits="userSpaceOnUse"><path d="M25 5v23H7V7h3v3h12V4a2 2 0 0 0-2-2h-8a2 2 0 0 0-2 2v1H7a2 2 0 0 0-2 2v21a2 2 0 0 0 2 2h18a2 2 0 0 0 2-2V5zM12 4h8v4h-8z" fill="#fff"/><path fill="url(#5bdm1gleja)" d="M24 4h4v22h-4z"/></mask></defs><g data-name="Layer 2"><g data-name="Dark theme icons"><g mask="url(#0n8hg2pzyb)"><path fill="url(#dj8g209bvc)" d="M0 0h32v32H0z"/></g><path fill="#f4f4f4" d="M15 20h2v4h-2zm5-2h2v6h-2zm-10-4h2v10h-2z"/></g></g></svg>