<svg id="IBMCompiledCodeCoverage" xmlns="http://www.w3.org/2000/svg" viewBox="0 0 32 32"><defs><linearGradient id="yupnvtrq9a" x1="1536.404" y1="269.671" x2="1549.404" y2="269.671" gradientTransform="matrix(1.03 0 0 .848 -1577.326 -203.977)" gradientUnits="userSpaceOnUse"><stop offset=".1" stop-opacity="0"/><stop offset=".9"/></linearGradient><linearGradient id="wu25dtasmc" x1="0" y1="32" x2="32" y2="0" gradientUnits="userSpaceOnUse"><stop offset=".1" stop-color="#be95ff"/><stop offset=".9" stop-color="#4589ff"/></linearGradient><mask id="pds4c2cpdb" x="0" y="0" width="32" height="32" maskUnits="userSpaceOnUse"><path d="m15.486 30.864-11.99-6.988A1 1 0 0 1 3 23.012V9h2v13.438l11.494 6.699-1.008 1.728zM12.992 13.017l-2-.002L11 4.337a1 1 0 0 1 .501-.866l4.02-2.313a1.004 1.004 0 0 1 1.002.002l11.98 6.975a.999.999 0 0 1 .497.864v4h-2V9.574L16.017 3.179l-3.018 1.736-.007 8.101z" style="fill:#fff"/><path style="fill:#fff" d="M7 6h2v10H7z"/><path transform="rotate(30 12.138 24.76)" style="fill:url(#yupnvtrq9a)" d="M5.442 20.519h13.392v8.482H5.442z"/></mask></defs><path style="fill:none" d="M0 0h32v32H0z"/><g style="mask:url(#pds4c2cpdb)"><path style="fill:url(#wu25dtasmc)" d="M0 0h32v32H0z"/></g><path style="fill:#f4f4f4" d="M26.999 21.875h-1.998l3.001-6.016H30l-3.001 6.016zM20.999 29.859h-2l3.017-6.015h1.999l-3.016 6.015zM22 15.648c-1.844 0-2.99 1.334-2.99 3.482s1.146 3.482 2.99 3.482 2.99-1.334 2.99-3.482-1.146-3.482-2.99-3.482zm1.046 3.921c0 .854-.381 1.344-1.046 1.344s-1.046-.49-1.046-1.344v-.878c0-.854.381-1.344 1.046-1.344s1.046.49 1.046 1.344v.878zM27 23.107c-1.844 0-2.99 1.334-2.99 3.482S25.156 30.07 27 30.07s2.99-1.333 2.99-3.481-1.146-3.482-2.99-3.482zm1.046 3.921c0 .854-.381 1.344-1.046 1.344s-1.046-.49-1.046-1.344v-.878c0-.854.381-1.344 1.046-1.344s1.046.49 1.046 1.344v.878z"/></svg>