<svg id="ConcertSecureCoder" xmlns="http://www.w3.org/2000/svg" xmlns:xlink="http://www.w3.org/1999/xlink" viewBox="0 0 32 32"><defs><linearGradient id="3pgjrqutda" x1="244.146" y1="37.519" x2="249.278" y2="37.519" gradientTransform="rotate(30 217.983 -1238.03) scale(2.707 -1.679)" gradientUnits="userSpaceOnUse"><stop offset=".1" stop-opacity="0"/><stop offset=".7"/></linearGradient><linearGradient id="vtj3xclh6b" x1="283.492" y1="-72.378" x2="288.624" y2="-72.378" gradientTransform="rotate(-30 675.159 1360.53) scale(2.707 1.679)" xlink:href="#3pgjrqutda"/><linearGradient id="a65td6y9rc" x1="493.755" y1="266.345" x2="497.452" y2="266.137" gradientTransform="rotate(150 737.73 50.38) scale(2.707 1.679)" xlink:href="#3pgjrqutda"/><linearGradient id="cvvruxj4kd" x1="531.808" y1="160.06" x2="535.504" y2="159.851" gradientTransform="rotate(-150 769.615 68.62) scale(2.707 -1.679)" xlink:href="#3pgjrqutda"/><linearGradient id="zw76178egf" x1="-1090" y1="32" x2="-1122" y2="0" gradientTransform="matrix(1 0 0 -1 1122 32)" gradientUnits="userSpaceOnUse"><stop offset=".1" stop-color="#3ddad8"/><stop offset=".9" stop-color="#4588ff"/></linearGradient><mask id="c6n68cswoe" x="0" y="0" width="32" height="32" maskUnits="userSpaceOnUse"><path d="M16 30C8.28 30 2 23.72 2 16S8.28 2 16 2a13.86 13.86 0 0 1 8.616 2.965L23.384 6.54A11.877 11.877 0 0 0 16 4C9.383 4 4 9.383 4 16s5.383 12 12 12c2.705 0 5.259-.878 7.384-2.54l1.232 1.576A13.868 13.868 0 0 1 16 30z" style="fill:#fff"/><path style="fill:url(#3pgjrqutda)" d="M14 1h12v7H14z"/><path style="fill:url(#vtj3xclh6b)" d="M14 24h12v7H14z"/><path d="M20 26a10.013 10.013 0 0 1-7.453-3.333l1.49-1.334A8.012 8.012 0 0 0 20 24c4.411 0 8-3.589 8-8s-3.589-8-8-8a8.012 8.012 0 0 0-5.963 2.667l-1.49-1.334A10.013 10.013 0 0 1 20 6c5.514 0 10 4.486 10 10s-4.486 10-10 10z" style="fill:#fff"/><path style="fill:url(#a65td6y9rc)" d="M12 5h8l4 6H12V5z"/><path style="fill:url(#cvvruxj4kd)" d="M12 27h8l4-6H12v6z"/></mask></defs><g style="mask:url(#c6n68cswoe)"><path transform="rotate(180 16 16)" style="fill:url(#zw76178egf)" d="M0 0h32v32H0z"/></g><path d="m22.17 16.088-2.58 2.58 1.41 1.42 4-4-4-4-1.42 1.41 2.59 2.59zm-12.34 0 2.58-2.58-1.41-1.42-4 4 4 4 1.42-1.41-2.59-2.59zM13.74 20.659 16.328 11l1.932.518-2.588 9.659-1.932-.518z" style="fill:#f4f4f4"/></svg>