<svg id="ConsultingAdvantage" xmlns="http://www.w3.org/2000/svg" xmlns:xlink="http://www.w3.org/1999/xlink" viewBox="0 0 32 32"><defs><linearGradient id="boa0090hna" x1="1138.418" y1="-8034.255" x2="1132.351" y2="-8023.746" gradientTransform="rotate(-60 -6056.918 4823.185) scale(1 -.957)" gradientUnits="userSpaceOnUse"><stop offset=".205"/><stop offset=".8" stop-opacity="0"/></linearGradient><linearGradient id="29wyshnh2b" x1="-581.344" y1="5.028" x2="-586.661" y2="14.237" gradientTransform="matrix(-1 0 0 1 -560 0)" xlink:href="#boa0090hna"/><linearGradient id="dsuw3i9ctc" x1="-658.142" y1="-27.666" x2="-663.459" y2="-18.457" gradientTransform="matrix(-1.09 0 0 1.114 -713.759 34.295)" xlink:href="#boa0090hna"/><linearGradient id="n2htdxb7he" x1="0" y1="32" x2="32" y2="0" gradientUnits="userSpaceOnUse"><stop offset=".1" stop-color="#be95ff"/><stop offset=".9" stop-color="#4589ff"/></linearGradient><mask id="vvzqd6wvhd" x="-1.439" y="0" width="33.439" height="32" maskUnits="userSpaceOnUse"><path d="M16.004 3v2c-.56 0-1.12.04-1.66.13-5.28.79-9.34 5.37-9.34 10.87h-2c0-6.23 4.41-11.45 10.27-12.71.88-.19 1.8-.29 2.73-.29zM27.004 16.004c0-4.046-2.202-7.579-5.464-9.49l1.007-1.725c3.855 2.258 6.458 6.434 6.458 11.215 0 2.724-.845 5.252-2.283 7.343l-1.742-1.006a10.932 10.932 0 0 0 2.025-6.338zM16.004 27.004c1.984 0 3.843-.536 5.452-1.459l.991 1.735a12.906 12.906 0 0 1-6.443 1.724c-5.159 0-9.613-3.028-11.711-7.394l1.735-1.001c1.747 3.769 5.556 6.396 9.977 6.396z" style="fill:#fff"/><path style="fill:url(#boa0090hna)" d="m20.726 31.398 3.486-6.037-12.431-7.177-5.001 8.661 8.101 4.677 5.845-.124z"/><path style="fill:url(#29wyshnh2b)" d="M20.002 3.99H29V17h-8.998z"/><path transform="rotate(-122.701 7.31 9.556)" style="fill:url(#dsuw3i9ctc)" d="M2.405 2.307h9.812v14.498H2.405z"/><g><path d="M19.004 18h-6a3 3 0 0 0-3 3v2h2v-2a1 1 0 0 1 1-1h6a1 1 0 0 1 1 1v2h2v-2a3 3 0 0 0-3-3zM16.004 17a4 4 0 1 0 0-8 4 4 0 0 0 0 8zm0-6a2 2 0 1 1 .001 3.999A2 2 0 0 1 16.004 11z" style="fill:#fff"/></g></mask></defs><path style="fill:none" d="M0 0h32v32H0z"/><g style="mask:url(#vvzqd6wvhd)"><path style="fill:url(#n2htdxb7he)" d="M0 0h32v32H0z"/></g><circle cx="20" cy="3.997" r="1.997" style="fill:#f4f4f4"/><path style="fill:#f4f4f4" d="M22 25.006h3.994V29H22zM7 19H1l2.999-5L7 19z"/></svg>