<svg id="ContentServices" xmlns="http://www.w3.org/2000/svg" viewBox="0 0 32 32"><defs><linearGradient id="khzwye2zra" x1="-2659.438" y1="-3084.446" x2="-2649.438" y2="-3084.446" gradientTransform="matrix(1 0 0 -1 2683.438 -3071.011)" gradientUnits="userSpaceOnUse"><stop offset=".1"/><stop offset=".8" stop-opacity="0"/></linearGradient><linearGradient id="h8pdiye2tb" x1="-5566.817" y1="335.643" x2="-5556.817" y2="335.643" gradientTransform="matrix(.699 0 0 -3.181 3905.888 1084.017)" gradientUnits="userSpaceOnUse"><stop offset=".405"/><stop offset=".8" stop-opacity="0"/></linearGradient><linearGradient id="4ucbcva4rd" x1="0" y1="32" x2="32" y2="0" gradientUnits="userSpaceOnUse"><stop offset=".1" stop-color="#3ddbd9"/><stop offset=".9" stop-color="#4589ff"/></linearGradient><mask id="sxcx7pu21c" x="2" y="2" width="29" height="26" maskUnits="userSpaceOnUse"><path d="M6 24H4V4h7.172l4 4H28v10h2V8a2 2 0 0 0-2-2H16l-3.414-3.414A2 2 0 0 0 11.172 2H4a2 2 0 0 0-2 2v20a2 2 0 0 0 2 2h2v-2z" style="fill:#fff"/><path d="M19 26h-9V12h4v4a2 2 0 0 0 2 2h6v-2.414l-5-5A2 2 0 0 0 15.586 10H10a2 2 0 0 0-2 2v14a2 2 0 0 0 2 2h9v-2zm-3-10v-3.586L19.586 16H16z" style="fill:#fff"/><path transform="rotate(-90 29 13.435)" style="fill:url(#khzwye2zra)" d="M24 11.435h10v4H24z"/><path transform="rotate(-135 19.365 16.36)" style="fill:url(#h8pdiye2tb)" d="M15.871 9.998h6.988v12.724h-6.988z"/></mask></defs><g style="mask:url(#sxcx7pu21c)"><path style="fill:url(#4ucbcva4rd)" d="M0 0h32v32H0z"/></g><path style="fill:none" d="M0 0h32v32H0z"/><path d="m26 32-2.139-1.012A5.025 5.025 0 0 1 21 26.467v-6.468h10v6.468a5.022 5.022 0 0 1-2.861 4.52L26 32zm-1.283-2.82 1.283.607 1.283-.607A3.013 3.013 0 0 0 29 26.468V22h-6v4.468c0 1.154.674 2.219 1.717 2.712z" style="fill:#f2f2f2"/></svg>