<svg id="ContinuousDelivery" xmlns="http://www.w3.org/2000/svg" xmlns:xlink="http://www.w3.org/1999/xlink" viewBox="0 0 32 32"><defs><linearGradient id="w1jkcmc3ga" x1="3.319" y1="20.616" x2="3.319" y2="8.616" gradientUnits="userSpaceOnUse"><stop offset=".2"/><stop offset="1" stop-opacity="0"/></linearGradient><linearGradient id="s6rjitarob" x1="-864.583" y1="-5677.006" x2="-864.583" y2="-5689.006" gradientTransform="translate(893.167 5701.011)" xlink:href="#w1jkcmc3ga"/><linearGradient id="tprj2slchd" x1="0" y1="32" x2="32" y2="0" gradientUnits="userSpaceOnUse"><stop offset=".1" stop-color="#3ddbd9"/><stop offset=".9" stop-color="#4589ff"/></linearGradient><mask id="s1hckn3rgc" x=".319" y="1.004" width="31.264" height="30" maskUnits="userSpaceOnUse"><path d="M2.671 22.904a14.842 14.842 0 0 1-1.672-6.9c0-8.26 6.719-14.989 14.979-15l.003 2C8.823 3.013 3 8.845 3 16.004c0 2.114.487 4.126 1.448 5.98l-1.775.92zM16.021 31.004l-.003-2c7.158-.009 12.981-5.841 12.981-13 0-1.518-.262-3.011-.78-4.439l1.88-.682c.597 1.647.9 3.37.9 5.121 0 8.261-6.719 14.99-14.979 15z" style="fill:#fff"/><path style="fill:url(#w1jkcmc3ga)" d="M.319 8.616h6v12h-6z"/><path d="M.319 20.297h6v3.085h-6z"/><path transform="rotate(180 28.584 18.006)" style="fill:url(#s6rjitarob)" d="M25.583 12.006h6v12h-6z"/><path d="M25.583 9.215h6V12.3h-6z"/></mask></defs><g style="mask:url(#s1hckn3rgc)"><path style="fill:url(#tprj2slchd)" d="M0 0h32v32H0z"/></g><path d="M18.727 18.997h-5.455a1.274 1.274 0 0 1-1.273-1.272V12.27c0-.702.571-1.273 1.273-1.273h5.455c.702 0 1.272.571 1.272 1.273v5.455c0 .702-.571 1.272-1.272 1.272zm-4.728-2h4v-4h-4v4z" style="fill:#f4f4f4"/><path d="m28.707 6.77-4.708-4.708v-.064h-.064L23 1.063l-.935.935h-.066v.066l-4.752 4.752 1.414 1.414 3.338-3.338v16.11h-12V10h-2v11.362c0 .904.736 1.64 1.64 1.64h12.72c.904 0 1.64-.736 1.64-1.64V4.89l3.294 3.294 1.414-1.414z" style="fill:#f4f4f4"/></svg>