<svg id="ContentNavigatorSync" xmlns="http://www.w3.org/2000/svg" xmlns:xlink="http://www.w3.org/1999/xlink" viewBox="0 0 32 32"><defs><linearGradient id="py7r7bgl9a" x1="2530.411" y1="-3794.338" x2="2545.725" y2="-3794.338" gradientTransform="matrix(.54164 .54164 .7071 -.7071 1310.719 -4038.713)" gradientUnits="userSpaceOnUse"><stop offset=".393"/><stop offset="1" stop-opacity="0"/></linearGradient><linearGradient id="2bu3msrngb" x1="4520.46" y1="7224.551" x2="4535.774" y2="7224.551" gradientTransform="matrix(-.54164 -.54164 -.7071 .7071 7590.617 -2642.467)" xlink:href="#py7r7bgl9a"/><linearGradient id="rhg2xwqpcd" x1="0" y1="32" x2="32" y2="0" gradientUnits="userSpaceOnUse"><stop offset=".1" stop-color="#00deda"/><stop offset=".9" stop-color="#238aff"/></linearGradient><mask id="vouh2caecc" x="0" y="0" width="32" height="32" maskUnits="userSpaceOnUse"><path transform="rotate(45 12.829 19.172)" d="M10.828 17.172h4v4h-4z"/><path transform="rotate(45 19 19.171)" d="M17 17.172h4v4h-4z"/><path d="M27.023 24.632 27 24.614V23h-7v2h3.914A11.91 11.91 0 0 1 16 28C9.383 28 4 22.617 4 16H2c0 7.72 6.28 14 14 14 3.348 0 6.501-1.181 9-3.288V30h2v-5.342c.007-.009.016-.017.023-.027zM16 2a13.988 13.988 0 0 0-9 3.302V2H5v7h7V7H8.08c2.178-1.916 4.986-3 7.92-3 6.617 0 12 5.383 12 12h2c0-7.72-6.28-14-14-14z" style="fill:#fff"/><g><path id="TopMask" d="m4.613 26.135 4.95-4.95-6.5-6.5-2.829 2.829 4.379 8.621z" style="fill:url(#py7r7bgl9a)"/><path id="TopMask-2" data-name="TopMask" d="m27.247 6.273-4.95 4.95 6.5 6.5 2.828-2.828-4.379-8.621z" style="fill:url(#2bu3msrngb)"/></g></mask></defs><g style="mask:url(#vouh2caecc)"><path style="fill:url(#rhg2xwqpcd)" d="M0 0h32v32H0z"/></g><circle cx="3" cy="12" r="1" style="fill:#f3f3f3"/><circle cx="29" cy="20" r="1" style="fill:#f3f3f3"/><path d="M13 11a1 1 0 0 0-1 1v8a1 1 0 0 0 1 1h6a1 1 0 0 0 1-1v-6l-3-3h-4zm5 8h-4v-6h2v2h2v4z" style="fill:#f3f3f3"/></svg>