<svg id="CriticaTrust" xmlns="http://www.w3.org/2000/svg" viewBox="0 0 32 32"><defs><linearGradient id="vx88vlwsia" x1="7" y1="5.61" x2="16" y2="5.61" gradientTransform="matrix(1 0 0 -1 0 32.11)" gradientUnits="userSpaceOnUse"><stop offset="0" stop-opacity="0"/><stop offset=".9"/></linearGradient><linearGradient id="7twt91jq4b" x1="-774" y1="922.39" x2="-764" y2="922.39" gradientTransform="matrix(-1 0 0 1 -750 -916.89)" gradientUnits="userSpaceOnUse"><stop offset="0" stop-opacity="0"/><stop offset=".694"/></linearGradient><linearGradient id="tqmutwlzjd" x1="0" y1="32" x2="32" y2="0" gradientUnits="userSpaceOnUse"><stop offset=".1" stop-color="#00deda"/><stop offset=".9" stop-color="#238aff"/></linearGradient><mask id="mmfkrq92xc" x="0" y="0" width="32" height="32" maskUnits="userSpaceOnUse"><g id="_2f6oru19nd" data-name="2f6oru19nd"><path d="M28 18h-2v-7c0-2.757-2.243-5-5-5h-7V4h7c3.86 0 7 3.14 7 7v7zM15 28h-5c-3.86 0-7-3.14-7-7v-6h2v6c0 2.757 2.243 5 5 5h5v2z" style="fill:#fff"/><path d="M7 24h9v5H7v-5z" style="fill:url(#vx88vlwsia)"/><path d="M24 8H14V3h10v5z" style="fill:url(#7twt91jq4b)"/><path d="m9.046 12-.743-2.367-3.663.013L3.915 12H1.999L5 2h3l3.005 10H9.046zM6.588 3.719H6.25L4.999 7.99h3L6.587 3.719zM12 12v-1.515h1V3.539h-1V1.994h4v1.545h-1v6.946h1V12h-4z" style="fill:#fff"/></g></mask></defs><path style="fill:none" d="M0 0h32v32H0z"/><g style="mask:url(#mmfkrq92xc)"><path style="fill:url(#tqmutwlzjd)" d="M0 0h32v32H0z"/></g><path style="fill:#f3f3f3" d="m23 27.18-2.59-2.59L19 26l4 4 7-7-1.41-1.41L23 27.18z"/></svg>