<svg id="DataShift" xmlns="http://www.w3.org/2000/svg" xmlns:xlink="http://www.w3.org/1999/xlink" viewBox="0 0 32 32"><defs><linearGradient id="mflefgdt3a" x1="4106.389" y1="-2602.736" x2="4112.36" y2="-2602.736" gradientTransform="translate(-4087.303 2609.472)" gradientUnits="userSpaceOnUse"><stop offset=".078" stop-opacity="0"/><stop offset=".9"/></linearGradient><linearGradient id="tgwgx94xeb" x1="27.924" y1="10.243" x2="33.895" y2="10.243" gradientTransform="translate(-21.147 15.012)" xlink:href="#mflefgdt3a"/><linearGradient id="bdzc3t7e8c" x1="-519.587" y1="3725.418" x2="-509.284" y2="3715.115" gradientTransform="translate(526.973 -3706.757)" gradientUnits="userSpaceOnUse"><stop offset=".241" stop-opacity="0"/><stop offset=".712"/></linearGradient><linearGradient id="b8lwt692ge" x1="0" y1="32" x2="32" y2="0" gradientUnits="userSpaceOnUse"><stop offset=".1" stop-color="#3ddbd9"/><stop offset=".9" stop-color="#4589ff"/></linearGradient><mask id="yocdu09p4d" x="0" y="0" width="32" height="32" maskUnits="userSpaceOnUse"><path d="M14.447 11.003V11h-1.535V8h1.535v-.003A3.498 3.498 0 0 0 14.416 1a3.5 3.5 0 0 0-3.5 3.5l.003.033h-.003V6h-3V4.533h-.003l.003-.033a3.5 3.5 0 1 0-7 0 3.5 3.5 0 0 0 3.469 3.497V8h1.528v3H4.385v.003A3.498 3.498 0 0 0 4.416 18a3.5 3.5 0 0 0 3.5-3.5l-.003-.033h.003v-1.463h3v1.463h.003l-.003.033a3.5 3.5 0 1 0 7 0 3.5 3.5 0 0 0-3.469-3.497zM12.916 4.5a1.5 1.5 0 1 1 1.5 1.5h-1.5V4.5zm-10 0a1.5 1.5 0 0 1 3 0V6h-1.5a1.5 1.5 0 0 1-1.5-1.5zm3 10a1.5 1.5 0 1 1-1.5-1.5h1.496v.003h.004V14.5zm4.996-3.497h-3v-3h3v3zM14.416 16a1.5 1.5 0 0 1-1.5-1.5V13h1.5a1.5 1.5 0 0 1 0 3zM26.028 6.681a6.4 6.4 0 0 0-4.309-1.701h-1.788v2h1.788c1.076 0 2.149.425 2.946 1.166.807.749 1.25 1.73 1.25 2.764v1.071h2V10.91c0-1.595-.671-3.097-1.888-4.229z" style="fill:#fff"/><path transform="rotate(180 22.072 6.737)" style="fill:url(#mflefgdt3a)" d="M19.087 2.806h5.971v7.862h-5.971z"/><path d="M5.807 25.311a6.4 6.4 0 0 0 4.309 1.701h1.788v-2h-1.788a4.375 4.375 0 0 1-2.946-1.166c-.807-.749-1.25-1.73-1.25-2.764v-1.071h-2v1.071c0 1.595.671 3.097 1.888 4.229z" style="fill:#fff"/><path style="fill:url(#tgwgx94xeb)" d="M6.778 21.323h5.971v7.862H6.778z"/><path transform="rotate(90 12.922 13.155)" style="fill:url(#bdzc3t7e8c)" d="M7.917 8.15h10.01v10.01H7.917z"/></mask></defs><path style="fill:none" d="M0 0h32v32H0z"/><g style="mask:url(#yocdu09p4d)"><path style="fill:url(#b8lwt692ge)" d="M0 0h32v32H0z"/></g><path d="M27.447 24.003V24h-1.535v-3h1.535v-.003A3.498 3.498 0 0 0 27.416 14a3.5 3.5 0 0 0-3.5 3.5l.003.033h-.003V19h-3v-1.467h-.003l.003-.033a3.5 3.5 0 1 0-7 0 3.5 3.5 0 0 0 3.469 3.497V21h1.528v3h-1.528v.003A3.498 3.498 0 0 0 17.416 31a3.5 3.5 0 0 0 3.5-3.5l-.003-.033h.003v-1.463h3v1.463h.003l-.003.033a3.5 3.5 0 1 0 7 0 3.5 3.5 0 0 0-3.469-3.497zM25.916 17.5a1.5 1.5 0 1 1 1.5 1.5h-1.5v-1.5zm-10 0a1.5 1.5 0 0 1 3 0V19h-1.5a1.5 1.5 0 0 1-1.5-1.5zm3 10a1.5 1.5 0 1 1-1.5-1.5h1.496v.003h.004V27.5zm4.996-3.497h-3v-3h3v3zM27.416 29a1.5 1.5 0 0 1-1.5-1.5V26h1.5a1.5 1.5 0 0 1 0 3z" style="fill:#f4f4f4"/></svg>