<svg id="DataCollectionComponent" xmlns="http://www.w3.org/2000/svg" viewBox="0 0 32 32"><defs><linearGradient id="94ycy3n9ra" x1="1879.292" y1="-1377.931" x2="1887.589" y2="-1377.931" gradientTransform="matrix(1 0 0 -1 -1863.425 -1361.79)" gradientUnits="userSpaceOnUse"><stop offset="0" stop-opacity="0"/><stop offset=".9"/></linearGradient><linearGradient id="xk62x7duec" y1="32" x2="32" gradientUnits="userSpaceOnUse"><stop offset=".1" stop-color="#be95ff"/><stop offset=".9" stop-color="#4589ff"/></linearGradient><mask id="5m9unb0r6b" x="0" y="0" width="32" height="32" maskUnits="userSpaceOnUse"><path style="fill:#fff" d="M7 11h17v2H7zM7 19h17v2H7z"/><path style="fill:url(#94ycy3n9ra)" d="M15.867 9.133h8.297V23.15h-8.297z"/><path d="M24 29H8a2 2 0 0 1-2-2V5a2 2 0 0 1 2-2h16a2 2 0 0 1 2 2v22a2 2 0 0 1-2 2zM8 5v22h16V5z" style="fill:#fff"/></mask></defs><g style="mask:url(#5m9unb0r6b)"><path style="fill:url(#xk62x7duec)" d="M0 0h32v32H0z"/></g><circle cx="11" cy="8" r="1" style="fill:#f4f4f4"/><circle cx="11" cy="16" r="1" style="fill:#f4f4f4"/><circle cx="11" cy="24" r="1" style="fill:#f4f4f4"/></svg>