<svg id="Db2" xmlns="http://www.w3.org/2000/svg" xmlns:xlink="http://www.w3.org/1999/xlink" viewBox="0 0 32 32"><defs><linearGradient id="84c4ghgqkc" x1="258" y1="290" x2="290" y2="258" gradientTransform="matrix(1 0 0 -1 -258 290)" gradientUnits="userSpaceOnUse"><stop offset=".1" stop-color="#3dd9d7"/><stop offset=".9" stop-color="#4687fd"/></linearGradient><linearGradient id="wntzkxh6ea" x1="20" y1="14.816" x2="20" y2="10.082" gradientUnits="userSpaceOnUse"><stop offset="0" stop-color="#f4f4f4"/><stop offset="1" stop-color="#f4f4f4" stop-opacity="0"/></linearGradient><linearGradient id="8zw147f5jd" x1="0" y1="93.816" x2="0" y2="89.082" gradientTransform="rotate(-180 6 55.5)" xlink:href="#wntzkxh6ea"/><mask id="ea6c9l9xnb" x="4" y="2" width="24" height="28" maskUnits="userSpaceOnUse"><path d="M26 4v4H6V4h20m0-2H6a2 2 0 0 0-2 2v4a2 2 0 0 0 2 2h20a2 2 0 0 0 2-2V4a2 2 0 0 0-2-2zM26 24v4H6v-4h20m0-2H6a2 2 0 0 0-2 2v4a2 2 0 0 0 2 2h20a2 2 0 0 0 2-2v-4a2 2 0 0 0-2-2z" style="fill:#fff"/></mask></defs><g style="mask:url(#ea6c9l9xnb)"><path transform="rotate(-90 16 16)" style="fill:url(#84c4ghgqkc)" d="M0 0h32v32H0z"/></g><circle cx="9" cy="6" r="1" style="fill:#f4f4f4"/><circle cx="23" cy="26" r="1" style="fill:#f4f4f4"/><path d="M22 10v2.999A2.002 2.002 0 0 1 19.999 15H16v2h3.999A4.006 4.006 0 0 0 24 12.999V10h-2z" style="fill:url(#wntzkxh6ea)"/><path d="M10 22v-2.999c0-1.104.897-2.001 2.001-2.001H16v-2h-3.999A4.006 4.006 0 0 0 8 19.001V22h2z" style="fill:url(#8zw147f5jd)"/></svg>