<svg id="Db2Mirrorfori" xmlns="http://www.w3.org/2000/svg" viewBox="0 0 32 32"><defs><linearGradient id="kgck0p5gba" x1="1.4" y1="9.906" x2="16.663" y2="1.094" gradientUnits="userSpaceOnUse"><stop offset=".4"/><stop offset=".85" stop-opacity="0"/></linearGradient><linearGradient id="4f1imajygc" x1="700.922" y1="32" x2="732.922" y2="0" gradientTransform="matrix(1 0 0 -1 -700.922 32)" gradientUnits="userSpaceOnUse"><stop offset=".1" stop-color="#3ddad8"/><stop offset=".9" stop-color="#4588ff"/></linearGradient><mask id="7zk40ohhmb" x="2.031" y="0" width="27" height="31" maskUnits="userSpaceOnUse"><path d="M16.031 31a.996.996 0 0 1-.504-.136l-12-7A1 1 0 0 1 3.031 23V12.017h2v10.409l11 6.417 11-6.417V9.574l-11-6.416L4.535 9.864 3.527 8.136l12-7a.999.999 0 0 1 1.008 0l12 7a.998.998 0 0 1 .496.864v14a1 1 0 0 1-.496.864l-12 7a.996.996 0 0 1-.504.136z" style="fill:#fff"/><path style="fill:url(#kgck0p5gba)" d="M2.031 0h14v11h-14z"/><circle cx="4.017" cy="8.983" r="1" style="fill:#fff"/></mask></defs><g style="mask:url(#7zk40ohhmb)"><path transform="rotate(180 16 16)" style="fill:url(#4f1imajygc)" d="M0 0h32v32H0z"/></g><path d="M11.02 9.98h4.17L13.6 8.39l1.42-1.41 4 4-4 4-1.41-1.41 1.58-1.59h-4.17v8h-2v-8a2 2 0 0 1 2-2zM21.02 21.98h-4.17l1.59 1.59-1.42 1.41-4-4 4-4 1.41 1.41-1.58 1.59h4.17v-8h2v8a2 2 0 0 1-2 2z" style="fill:#f4f4f4"/></svg>