<svg id="DependencyBasedBuild" xmlns="http://www.w3.org/2000/svg" viewBox="0 0 32 32"><defs><linearGradient id="kglrnp8tea" x1="1536.404" y1="269.671" x2="1549.404" y2="269.671" gradientTransform="matrix(1.03 0 0 .848 -1577.326 -203.977)" gradientUnits="userSpaceOnUse"><stop offset=".1" stop-opacity="0"/><stop offset=".9"/></linearGradient><linearGradient id="qit1s3frvc" x1="-4270" y1="4272" x2="-4238" y2="4304" gradientTransform="matrix(1 0 0 -1 4270 4304)" gradientUnits="userSpaceOnUse"><stop offset=".1" stop-color="#c590ff"/><stop offset=".9" stop-color="#2887ff"/></linearGradient><mask id="mukttbp1xb" x="0" y="0" width="32" height="32" maskUnits="userSpaceOnUse"><path d="M15.486 30.864 3.5 23.876a1 1 0 0 1-.5-.864V9h2v13.438l11.494 6.7zM12.992 13.017h-2L11 4.337a1 1 0 0 1 .5-.866l4.02-2.313a1 1 0 0 1 1 0L28.5 8.136A1 1 0 0 1 29 9v4h-2V9.575L16.017 3.18 13 4.917z" style="fill:#fff"/><path style="fill:#fff" d="M7 6h2v10H7z"/><path transform="rotate(30 12.138 24.76)" style="fill:url(#kglrnp8tea)" d="M5.442 20.519h13.392v8.482H5.442z"/></mask></defs><g style="mask:url(#mukttbp1xb)"><path style="fill:url(#qit1s3frvc)" d="M0 0h32v32H0z"/></g><path d="M29 23.988V20a2 2 0 0 0-2-2h-4.009v-2.01h-6v6H19V26a2 2 0 0 0 2 2h3.989v1.989h6v-6zm-10.009-6h2v2h-2zM21 26v-4.01h1.991V20H27v3.989h-2.011V26zm7.989 1.989h-2v-2h2z" style="fill:#f2f2f2"/></svg>