<svg data-name="Build icon here" xmlns="http://www.w3.org/2000/svg" viewBox="0 0 32 32"><defs><linearGradient id="gw8q421rja" x1="1523.772" y1="226.639" x2="1536.772" y2="226.639" gradientTransform="matrix(1.03 0 0 .848 -1565.313 -167.477)" gradientUnits="userSpaceOnUse"><stop offset=".1" stop-opacity="0"/><stop offset=".9"/></linearGradient><linearGradient id="3mj53165zc" x1="-4352" y1="4384" x2="-4384" y2="4416" gradientTransform="matrix(1 0 0 -1 4384 4416)" gradientUnits="userSpaceOnUse"><stop offset=".1" stop-color="#be95ff"/><stop offset=".9" stop-color="#4589ff"/></linearGradient><mask id="fpzxq5152b" x="0" y="0" width="32" height="32" maskUnits="userSpaceOnUse"><g fill="#fff"><path d="M14.486 30.864 2.5 23.876a1 1 0 0 1-.5-.864V9h2v13.438l11.494 6.7zm-2.494-17.847h-2L10 4.337a1 1 0 0 1 .5-.866l4.02-2.313a1 1 0 0 1 1 0L27.5 8.136A1 1 0 0 1 28 9v4h-2V9.575L15.017 3.18 12 4.917z"/><path d="M6 6h2v10H6z"/></g><path transform="rotate(30 11.138 24.76)" fill="url(#gw8q421rja)" d="M4.442 20.519h13.392v8.482H4.442z"/></mask></defs><g mask="url(#fpzxq5152b)"><path transform="rotate(90 16 16)" fill="url(#3mj53165zc)" d="M0 0h32v32H0z"/></g><path d="M28 22h-4v-4a2 2 0 0 0-2-2h-4a2 2 0 0 0-2 2v4a2 2 0 0 0 2 2h4v4a2 2 0 0 0 2 2h4a2 2 0 0 0 2-2v-4a2 2 0 0 0-2-2zm-10 0v-4h4v4zm10 6h-4v-4h4z" fill="#f4f4f4"/></svg>