<svg id="DevOpsControlforHCL" xmlns="http://www.w3.org/2000/svg" xmlns:xlink="http://www.w3.org/1999/xlink" viewBox="0 0 32 32"><defs><linearGradient id="poys74aa0a" x1="20.661" y1="9.726" x2="23.009" y2="3.275" gradientUnits="userSpaceOnUse"><stop offset=".08" stop-color="#fff" stop-opacity="0"/><stop offset=".503" stop-color="#fff"/></linearGradient><linearGradient id="2nbjq17vkb" x1="44.531" y1="3717.142" x2="47.529" y2="3710.712" gradientTransform="rotate(-180 28.053 1869.724)" xlink:href="#poys74aa0a"/><linearGradient id="qd48ryt97c" x1="52.636" y1="3717.142" x2="55.634" y2="3710.712" gradientTransform="matrix(1 0 0 -1 -32.211 3739.447)" xlink:href="#poys74aa0a"/><linearGradient id="jee6hjr40d" x1="44.425" y1="9.695" x2="47.423" y2="3.265" gradientTransform="matrix(-1 0 0 1 56.105 0)" xlink:href="#poys74aa0a"/><linearGradient id="a6felxlcqf" x1="-1090" y1="32" x2="-1122" y2="0" gradientTransform="matrix(1 0 0 -1 1122 32)" gradientUnits="userSpaceOnUse"><stop offset=".1" stop-color="#b990ff"/><stop offset=".9" stop-color="#4584ff"/></linearGradient><mask id="7ha2tizg1e" x="0" y="0" width="32" height="32" maskUnits="userSpaceOnUse"><path d="m19.895 9.447-1.789-.895 1.724-3.447A1.986 1.986 0 0 1 21.619 4h3.382v2h-3.382l-1.724 3.447z" style="fill:url(#poys74aa0a)"/><path d="M27 8c-1.654 0-3-1.346-3-3s1.346-3 3-3 3 1.346 3 3-1.346 3-3 3zm0-4a1 1 0 1 0 0 2 1 1 0 0 0 0-2z" style="fill:#fff"/><path d="m12.105 22.553 1.789.895-1.724 3.447A1.986 1.986 0 0 1 10.381 28H6.999v-2h3.382l1.724-3.447z" style="fill:url(#2nbjq17vkb)"/><path d="M5 24c1.654 0 3 1.346 3 3s-1.346 3-3 3-3-1.346-3-3 1.346-3 3-3zm0 4a1 1 0 1 0 0-2 1 1 0 0 0 0 2z" style="fill:#fff"/><path d="m19.895 22.553-1.789.895 1.724 3.447A1.986 1.986 0 0 0 21.619 28h3.382v-2h-3.382l-1.724-3.447z" style="fill:url(#qd48ryt97c)"/><path d="M30 27c0 1.654-1.346 3-3 3s-3-1.346-3-3 1.346-3 3-3 3 1.346 3 3zm-2 0a1 1 0 1 0-2 0 1 1 0 0 0 2 0z" style="fill:#fff"/><path d="M12.211 9.447 14 8.552l-1.724-3.447A1.986 1.986 0 0 0 10.487 4H7.105v2h3.382l1.724 3.447z" style="fill:url(#jee6hjr40d)"/><path d="M2 5c0-1.654 1.346-3 3-3s3 1.346 3 3-1.346 3-3 3-3-1.346-3-3zm2 0a1 1 0 1 0 2 0 1 1 0 0 0-2 0z" style="fill:#fff"/></mask></defs><path style="fill:none" d="M0 0h32v32H0z"/><g style="mask:url(#7ha2tizg1e)"><path transform="rotate(180 16 16)" style="fill:url(#a6felxlcqf)" d="M0 0h32v32H0z"/></g><path d="M16 10c3.308 0 6 2.692 6 6s-2.692 6-6 6-6-2.692-6-6 2.692-6 6-6m0-2a8 8 0 1 0 0 16 8 8 0 0 0 0-16z" style="fill:#f4f4f4"/><path style="fill:#f4f4f4" d="m15.005 16.178-1.561-1.622L12 16l3 3 5-5-1.41-1.443-3.585 3.621z"/></svg>