<svg id="DevOpsAutomationBuild" xmlns="http://www.w3.org/2000/svg" viewBox="0 0 32 32"><defs><linearGradient id="cp2gyr6q6a" x1="-1703.687" y1="-2009.248" x2="-1699.298" y2="-2009.248" gradientTransform="matrix(0 -1 -1 0 -2004.935 -1685.969)" gradientUnits="userSpaceOnUse"><stop offset="0" stop-opacity="0"/><stop offset=".88"/></linearGradient><linearGradient id="6xffiqu43c" x1="0" y1="32" x2="32" y2="0" gradientUnits="userSpaceOnUse"><stop offset=".1" stop-color="#be95ff"/><stop offset=".9" stop-color="#4589ff"/></linearGradient><mask id="yia9ym4mhb" x="0" y="0" width="32" height="32" maskUnits="userSpaceOnUse"><path d="m30.414 23.337-8.748-8.758a9.89 9.89 0 0 0 .35-2.579c0-5.514-4.486-10-10-10a9.932 9.932 0 0 0-5.509 1.663l6.923 6.923a2 2 0 1 1-2.828 2.828L3.679 6.491A9.942 9.942 0 0 0 2.016 12c0 5.514 4.486 10 10 10 .893 0 1.755-.127 2.579-.35l8.749 8.759a1.999 1.999 0 0 0 2.828 0l4.242-4.244a1.999 1.999 0 0 0 0-2.828zm-5.656 5.658-1.869-1.868.006-.006-7.756-7.756a7.946 7.946 0 0 1-3.122.635c-4.411 0-8-3.589-8-8 0-.715.1-1.406.279-2.065l4.893 4.893c.755.756 1.76 1.172 2.828 1.172s2.073-.416 2.828-1.172c.755-.755 1.172-1.76 1.172-2.828s-.417-2.073-1.172-2.828L9.952 4.279A7.862 7.862 0 0 1 12.017 4c4.411 0 8 3.589 8 8a7.963 7.963 0 0 1-.635 3.122l3.976 3.977-.006.006 5.649 5.647-4.242 4.244z" style="fill:#fff;stroke-width:0"/><path style="fill:url(#cp2gyr6q6a);stroke-width:0" d="m.276 17.718-.08-4.389 6.997.03L8.429 17.7l-8.153.018z"/><path style="stroke-width:0" d="m7.853 14.421-2.689-.809-3.824.165.036-7.883 6.848-.069 2 6-2.371 2.596z"/></mask></defs><g style="mask:url(#yia9ym4mhb)"><path style="fill:url(#6xffiqu43c);stroke-width:0" d="M0 0h32v32H0z"/></g><circle cx="5" cy="10" r="3" style="fill:#f4f4f4;stroke-width:0"/></svg>