<svg id="DevOpsAutomationClearCase" xmlns="http://www.w3.org/2000/svg" viewBox="0 0 32 32"><defs><linearGradient id="8vf4sly5ra" x1="-434.365" y1="-98.583" x2="-427.995" y2="-98.583" gradientTransform="translate(434.191 113.398)" gradientUnits="userSpaceOnUse"><stop offset=".2"/><stop offset="1" stop-opacity="0"/></linearGradient><linearGradient id="3o1xz652uc" x1="0" y1="32" x2="32" y2="0" gradientUnits="userSpaceOnUse"><stop offset=".1" stop-color="#be95ff"/><stop offset=".9" stop-color="#4589ff"/></linearGradient><mask id="lrv8uk2uib" x="0" y="0" width="32" height="32" maskUnits="userSpaceOnUse"><path d="M28 5.985H16l-3.41-3.41c-.37-.38-.88-.59-1.41-.59H4c-1.1 0-2 .9-2 2V10l.01 18h2L4 14v-4h7.172l4 4H28l-.009 7v5H16.006l.01 2h11.975c1.11 0 2-.89 2-2v-4L30 14V7.985a2 2 0 0 0-2-2zM16 12l-3.414-3.414A2 2 0 0 0 11.172 8H4V3.985h7.18l4 4H28V12H16z" style="fill:#fff;stroke-width:0"/><path transform="rotate(-90 3.011 14.815)" style="fill:url(#8vf4sly5ra);stroke-width:0" d="M-.174 12.614h6.37v4.402h-6.37z"/><path style="stroke-width:0" d="M1.011 17.719h8V31h-8z"/></mask></defs><g style="mask:url(#lrv8uk2uib)"><path style="fill:url(#3o1xz652uc);stroke-width:0" d="M0 0h32v32H0z"/></g><path d="M12.011 22.02h-1v-2.5c0-1.93-1.57-3.5-3.5-3.5s-3.5 1.57-3.5 3.5v2.5h-1a1 1 0 0 0-1 1v6a1 1 0 0 0 1 1h9a1 1 0 0 0 1-1v-6a1 1 0 0 0-1-1zm-4.5-4c.827 0 1.5.673 1.5 1.5v2.5h-3v-2.5c0-.827.673-1.5 1.5-1.5zm3.5 10h-7v-4h7v4z" style="fill:#f4f4f4;stroke-width:0"/></svg>