<svg id="DevOpsAutomationRelease" xmlns="http://www.w3.org/2000/svg" xmlns:xlink="http://www.w3.org/1999/xlink" viewBox="0 0 32 32"><defs><linearGradient id="nqyje26jia" x1="-2244.692" y1="-1435.141" x2="-2247.677" y2="-1435.141" gradientTransform="matrix(1.49822 -.77326 -.30728 -.59538 2932.751 -2583.359)" gradientUnits="userSpaceOnUse"><stop offset="0"/><stop offset="1" stop-opacity="0"/></linearGradient><linearGradient id="k4sfm4dr1b" x1="-1943.521" y1="-1826.142" x2="-1946.507" y2="-1826.142" gradientTransform="rotate(-152.701 -1478.4 -1008.837) scale(1.686 .67)" xlink:href="#nqyje26jia"/><linearGradient id="fw2mcav4id" x1="0" y1="32" x2="32" y2="0" gradientUnits="userSpaceOnUse"><stop offset=".1" stop-color="#be95ff"/><stop offset=".9" stop-color="#4589ff"/></linearGradient><mask id="cxxkypaduc" x="0" y="0" width="32" height="32" maskUnits="userSpaceOnUse"><path d="M28.982 10.756c-.001-.006 0-.012-.002-.018a.998.998 0 0 0-.446-.626c-.032-.02-.067-.03-.1-.045L16.513 3.111a.999.999 0 0 0-1.008 0L3.504 10.116l-.01.008-.011.005c-.046.028-.083.065-.123.1-.023.02-.051.036-.072.058a.993.993 0 0 0-.153.206c-.009.017-.013.036-.021.053a.985.985 0 0 0-.073.189c-.007.028-.006.057-.011.086-.009.052-.021.104-.021.159v13.003c0 .379.214.725.553.895l12 5.997c.014.007.031.004.045.011.129.057.264.095.402.095s.273-.038.402-.095c.015-.007.032-.004.047-.011l12-6.015a1 1 0 0 0 .552-.894V10.963a.955.955 0 0 0-.027-.207zm-17.973 4.846 4 1.994v4.747l-4-1.994v-4.747zm6 1.994 4-1.994v4.767l-4 1.994v-4.767zm-1-12.464 9.889 5.77-9.89 4.957-9.899-4.947 9.899-5.78zm-11 7.466 4 1.999v6.371a1 1 0 0 0 .554.895l5.446 2.715v3.785l-10-4.998V12.598zm12 15.763v-3.763l5.446-2.715a1 1 0 0 0 .554-.895v-6.393l4-2v10.754l-10 5.012z" style="fill:#fff;stroke-width:0"/><path d="m6.045 7.41 4.493-2.513 1.597 3.352-4.493 2.513L6.045 7.41z" style="fill:url(#nqyje26jia);stroke-width:0"/><path d="m25.961 7.41-4.493-2.513-1.597 3.352 4.493 2.513 1.597-3.352z" style="fill:url(#k4sfm4dr1b);stroke-width:0"/><path style="stroke-width:0" d="m19.871 8.25-7.736.249-1.654-3.641 5.536-2.359 5.677 2.177-1.823 3.574z"/></mask></defs><g style="mask:url(#cxxkypaduc)"><path style="fill:url(#fw2mcav4id);stroke-width:0" d="M0 0h32v32H0z"/></g><path style="fill:#f4f4f4;stroke-width:0" d="m21.216 6.293-4.207-4.207V2h-.086l-.914-.914-.914.914h-.086v.086l-4.208 4.207 1.414 1.414 2.794-2.793V12h2V4.914l2.793 2.793 1.414-1.414z"/></svg>