<svg id="DevOpsAutomationVelocity" xmlns="http://www.w3.org/2000/svg" xmlns:xlink="http://www.w3.org/1999/xlink" viewBox="0 0 32 32"><defs><linearGradient id="rc88ikmj5a" x1="-850.502" y1="1137.334" x2="-856.435" y2="1137.334" gradientTransform="rotate(134.533 -690.6 -285.604) scale(1.12 -.879)" gradientUnits="userSpaceOnUse"><stop offset="0"/><stop offset="1" stop-opacity="0"/></linearGradient><linearGradient id="guqwkesjlb" x1="-2433.042" y1="1825.879" x2="-2438.975" y2="1825.879" gradientTransform="matrix(-.79839 -.78548 -.61646 .6266 -813.867 -3052.214)" xlink:href="#rc88ikmj5a"/><linearGradient id="v7l4rgnh8d" x1="0" y1="32" x2="32" y2="0" gradientUnits="userSpaceOnUse"><stop offset=".1" stop-color="#be95ff"/><stop offset=".9" stop-color="#4589ff"/></linearGradient><mask id="96z6sgdzic" x="-1.235" y="-.464" width="33.235" height="32.853" maskUnits="userSpaceOnUse"><path style="fill:#fff;stroke-width:0" d="m9.655 29.762-1.414-1.414 12.376-12.376L8.322 3.677l1.414-1.414 13.709 13.709-13.79 13.79z"/><path style="fill:#fff;stroke-width:0" d="m2.692 29.72-1.414-1.414 12.334-12.334L1.319 3.679l1.414-1.414L16.44 15.972 2.692 29.72z"/><path d="m8.506 25.039-4.872 4.952-2.507-2.467 4.872-4.952 2.507 2.467z" style="fill:url(#rc88ikmj5a);stroke-width:0"/><path transform="rotate(-45 1.237 29.992)" style="stroke-width:0" d="M-.458 28.297h3.389v3.389H-.458z"/><path d="M6.114 9.201 1.162 4.329l2.466-2.507L8.58 6.694 6.113 9.201z" style="fill:url(#guqwkesjlb);stroke-width:0"/><path transform="rotate(45 1.162 1.931)" style="stroke-width:0" d="M-.533.237h3.389v3.389H-.533z"/></mask></defs><g style="mask:url(#96z6sgdzic)"><path style="fill:url(#v7l4rgnh8d);stroke-width:0" d="M0 0h32v32H0z"/></g><path style="fill:#f4f4f4;stroke-width:0" d="m16.73 29.696-1.414-1.414 12.31-12.31L15.293 3.639l1.414-1.415 13.747 13.748L16.73 29.696z"/></svg>