<svg id="DevOpsAutomationPlan" xmlns="http://www.w3.org/2000/svg" xmlns:xlink="http://www.w3.org/1999/xlink" viewBox="0 0 32 32"><defs><linearGradient id="eus0wt2yia" x1="-2649.362" y1="1749.308" x2="-2658.652" y2="1749.308" gradientTransform="matrix(-.41296 -.21591 -.46333 .88619 -272.155 -2116.274)" gradientUnits="userSpaceOnUse"><stop offset="0"/><stop offset="1" stop-opacity="0"/></linearGradient><linearGradient id="tsw4sdrbnb" x1="-2896.432" y1="2781.198" x2="-2905.721" y2="2781.198" gradientTransform="rotate(-148.868 -415.109 -971.12) scale(.447 -.577)" xlink:href="#eus0wt2yia"/><linearGradient id="brfspdighd" x1="0" y1="32" x2="32" y2="0" gradientUnits="userSpaceOnUse"><stop offset=".1" stop-color="#be95ff"/><stop offset=".9" stop-color="#4589ff"/></linearGradient><mask id="9dnjcp3nqc" x="0" y="0" width="32" height="32" maskUnits="userSpaceOnUse"><path d="m30.499 7.084-7-3.98c-.31-.17-.68-.17-.99 0l-6.53 3.7-4.73-2.7-.94 1.76.85.48 3.84 2.2v17.69l-3.73-2.13-.94 1.76 5.15 2.95c.31.18.69.18 1 0l6.52-3.71 6.51 3.71a1 1 0 0 0 1.5-.86v-20a1 1 0 0 0-.51-.87zm-8.49 16.28-5.01 2.85V8.524l5.01-2.83v17.67zm7 2.86-5-2.85V5.694l5 2.84v17.69z" style="fill:#fff;stroke-width:0"/><path style="stroke-width:0" d="M10.82 7 9 6.468V2.574l3.499 1.171L10.82 7zM10.309 26.641l-2.437-.076V22.25l3.928 1.78-1.491 2.611z"/><path d="m14.395 9.773-4.011-2.097 1.853-3.545 4.011 2.097-1.853 3.545z" style="fill:url(#eus0wt2yia);stroke-width:0"/><path d="m14.159 28.371-3.717-2.245 1.192-1.974 3.717 2.245-1.192 1.974z" style="fill:url(#tsw4sdrbnb);stroke-width:0"/></mask></defs><g style="mask:url(#9dnjcp3nqc)"><path style="fill:url(#brfspdighd);stroke-width:0" d="M0 0h32v32H0z"/></g><path d="M2 28.975a.999.999 0 0 1-1-1V7.95a1 1 0 0 1 .506-.87l7-3.975A1.002 1.002 0 0 1 10 3.974v20.025a1 1 0 0 1-.506.87l-7 3.975a1 1 0 0 1-.494.13zM3 8.532v17.725l5-2.839V5.693L3 8.532z" style="fill:#f4f4f4;stroke-width:0"/></svg>