<svg id="DevOpsAutomationCode" xmlns="http://www.w3.org/2000/svg" xmlns:xlink="http://www.w3.org/1999/xlink" viewBox="0 0 32 32"><defs><linearGradient id="kxqwfhqcka" x1="-1142.985" y1="-5740.003" x2="-1135.985" y2="-5740.003" gradientTransform="translate(1167.482 5757.489)" gradientUnits="userSpaceOnUse"><stop offset="0" stop-opacity="0"/><stop offset=".7"/></linearGradient><linearGradient id="vdoqfvc3sb" x1="-1142.985" y1="-6837.076" x2="-1135.985" y2="-6837.076" gradientTransform="matrix(1 0 0 -1 1143.483 -6819.59)" xlink:href="#kxqwfhqcka"/><linearGradient id="h4zjbe0jgd" x1="0" y1="32" x2="32" y2="0" gradientUnits="userSpaceOnUse"><stop offset=".1" stop-color="#be95ff"/><stop offset=".9" stop-color="#4589ff"/></linearGradient><mask id="lgdlyzsdhc" x="-.003" y="0" width="32.003" height="32" maskUnits="userSpaceOnUse"><path d="M26.996 18.993v5.992h-2v2h2c1.103 0 2-.897 2-2v-5.992c0-1.103.897-2 2-2v-2c-2.206 0-4 1.794-4 4z" style="fill:#fff;stroke-width:0"/><path transform="rotate(-90 27.997 17.485)" style="fill:url(#kxqwfhqcka);stroke-width:0" d="M24.497 13.485h7v8h-7z"/><path d="M28.997 12.977V6.985c0-1.122-.879-2-2-2h-2v2h2v5.992c0 2.206 1.794 4 4 4v-2c-1.103 0-2-.897-2-2z" style="fill:#fff;stroke-width:0"/><g><path d="M4.997 24.985v-5.992c0-2.206-1.794-4-4-4v2c1.103 0 2 .897 2 2v5.992c0 1.103.897 2 2 2h2v-2h-2z" style="fill:#fff;stroke-width:0"/><path transform="rotate(-90 3.998 17.486)" style="fill:url(#vdoqfvc3sb);stroke-width:0" d="M.497 13.485h7v8h-7z"/><path d="M6.997 6.985v-2h-2c-1.103 0-2 .897-2 2v5.992c0 1.103-.897 2-2 2v2c2.206 0 4-1.794 4-4V6.985h2z" style="fill:#fff;stroke-width:0"/></g></mask></defs><g style="mask:url(#lgdlyzsdhc)"><path style="fill:url(#h4zjbe0jgd);stroke-width:0" d="M0 0h32v32H0z"/></g><path style="fill:#f4f4f4;stroke-width:0" d="M13.991 9.98h9v2h-9zM9.008 9.98h3v2h-3zM9.008 14.98h3v2h-3zM9.008 19.99h3v2h-3zM13.991 19.99h9v2h-9zM13.991 14.98h9v2h-9z"/></svg>