<svg id="DevOpsAutomationModelArchitect" xmlns="http://www.w3.org/2000/svg" viewBox="0 0 32 32"><defs><linearGradient id="ryjokqwgea" x1="-6706.973" y1="1717.724" x2="-6689.473" y2="1735.224" gradientTransform="matrix(1 0 0 -1 6723.727 1747.888)" gradientUnits="userSpaceOnUse"><stop offset=".3" stop-opacity="0"/><stop offset=".9"/></linearGradient><linearGradient id="1bncrn1b8c" x1="0" y1="32" x2="32" y2="0" gradientUnits="userSpaceOnUse"><stop offset=".1" stop-color="#be95ff"/><stop offset=".9" stop-color="#4589ff"/></linearGradient><mask id="ci111a3c8b" x="0" y="0" width="33.004" height="32" maskUnits="userSpaceOnUse"><path d="M16 30C8.28 30 2 23.72 2 16S8.28 2 16 2s14 6.28 14 14-6.28 14-14 14zm0-26C9.383 4 4 9.383 4 16s5.383 12 12 12 12-5.383 12-12S22.617 4 16 4z" style="fill:#fff;stroke-width:0"/><path transform="rotate(-180 25.504 21.413)" style="fill:url(#ryjokqwgea);stroke-width:0" d="M18.004 11.414h15v20h-15z"/><path style="stroke-width:0" d="M15.983 25.011h2.301v6.236h-2.301z"/></mask></defs><g style="mask:url(#ci111a3c8b)"><path style="fill:url(#1bncrn1b8c);stroke-width:0" d="M0 0h32v32H0z"/></g><path d="m20.044 29.277 1.919-.564-2.274-7.722h1.315v-2H19.1l-1.054-3.579c1.167-.699 1.958-1.964 1.958-3.421 0-1.858-1.28-3.411-3-3.858V5.991h-2v2.142c-1.72.447-3 2-3 3.858a3.99 3.99 0 0 0 1.687 3.251l-1.437 3.749h-2.25v2h1.483l-1.398 3.646 1.867.716 1.672-4.362h3.975l2.44 8.287zM16.004 9.99c1.103 0 2 .897 2 2s-.897 2-2 2-2-.897-2-2 .897-2 2-2zm-1.609 9 1.167-3.045c.147.016.29.045.442.045.042 0 .082-.011.124-.012l.887 3.012h-2.62z" style="fill:#f4f4f4;stroke-width:0"/></svg>