<svg id="ContinuousDelivery" xmlns="http://www.w3.org/2000/svg" viewBox="0 0 32 32"><defs><linearGradient id="j1lrnrfk4a" x1="-94" y1="-78.5" x2="-84" y2="-78.5" gradientTransform="translate(110 82)" gradientUnits="userSpaceOnUse"><stop offset="0" stop-opacity="0"/><stop offset=".9"/></linearGradient><linearGradient id="niufpxbevc" x1="0" y1="32" x2="32" y2="0" gradientUnits="userSpaceOnUse"><stop offset=".1" stop-color="#bd94ff"/><stop offset=".9" stop-color="#4588ff"/></linearGradient><mask id="fnj5g7547b" x="4" y="1" width="24" height="29" maskUnits="userSpaceOnUse"><path d="M6 16v1c0 3.3 1.8 6.4 4.8 7.9l5.2 2.8 5.2-2.8c3-1.5 4.8-4.6 4.8-7.9V4h-9V2h9c1.1 0 2 .9 2 2v13c0 4.1-2.2 7.8-5.8 9.7L16 30l-6.2-3.3C6.2 24.8 4 21.1 4 17v-1" style="fill:#fff"/><path transform="rotate(180 21 3.5)" style="fill:url(#j1lrnrfk4a)" d="M16 1h10v5H16z"/></mask></defs><g style="mask:url(#fnj5g7547b)"><path style="fill:url(#niufpxbevc)" d="M0 0h32v32H0z"/></g><path d="m12.81 6-1.468 1.414L14.026 10H6.152c-1.144 0-2.076-.897-2.076-2s.932-2 2.076-2H8V4H6.152C3.862 4 2 5.794 2 8s1.862 4 4.152 4h7.874l-2.684 2.586L12.81 16 18 11l-5.19-5z" style="fill:#f4f4f4"/></svg>