<svg xmlns="http://www.w3.org/2000/svg" xmlns:xlink="http://www.w3.org/1999/xlink" viewBox="0 0 32 32"><defs><style>.cls-1{fill:#fff;}.cls-2{fill:url(#linear-gradient);}.cls-3{fill:url(#linear-gradient-2);}.cls-4{mask:url(#mask);}.cls-5{fill:url(#linear-gradient-3);}.cls-6{fill:#f4f4f4;}</style><linearGradient id="linear-gradient" x1="3508.5" y1="2295.49" x2="3516.5" y2="2295.49" gradientTransform="matrix(0, -1, -1, 0, 2316.49, 3535.5)" gradientUnits="userSpaceOnUse"><stop offset="0" stop-opacity="0"/><stop offset="0.87"/></linearGradient><linearGradient id="linear-gradient-2" x1="13.25" y1="19.25" x2="21.75" y2="10.75" gradientUnits="userSpaceOnUse"><stop offset="0.4"/><stop offset="0.85" stop-opacity="0"/></linearGradient><mask id="mask" x="0" y="0" width="32" height="32" maskUnits="userSpaceOnUse"><path class="cls-1" d="M27,12H20.58l-4.208,7.364-1.736-.992L19.42,10H27a3,3,0,0,1,3,3v6a2,2,0,0,1-2,2v7a2,2,0,0,1-2,2H22a2,2,0,0,1-2-2V20h2v8h4V19h2V13A1,1,0,0,0,27,12Z"/><path class="cls-1" d="M20,5a4,4,0,1,1,4,4A4,4,0,0,1,20,5Zm2,0a2,2,0,1,0,2-2A2,2,0,0,0,22,5Z"/><rect class="cls-2" x="19" y="19" width="4" height="8"/><rect class="cls-3" x="14" y="10" width="7" height="10"/></mask><linearGradient id="linear-gradient-3" y1="32" x2="32" gradientUnits="userSpaceOnUse"><stop offset="0.1" stop-color="#3ddbd9"/><stop offset="0.9" stop-color="#4589ff"/></linearGradient></defs><g id="Layer_2" data-name="Layer 2"><g id="Dark_theme_icons" data-name="Dark theme icons"><g class="cls-4"><rect class="cls-5" width="32" height="32"/></g><path class="cls-6" d="M4,5A4,4,0,1,1,8,9,4,4,0,0,1,4,5ZM6,5A2,2,0,1,0,8,3,2,2,0,0,0,6,5Z"/><path class="cls-6" d="M5,12h6.42l4.208,7.364,1.736-.992L12.58,10H5a3,3,0,0,0-3,3v6a2,2,0,0,0,2,2v7a2,2,0,0,0,2,2h4a2,2,0,0,0,2-2V21H10v7H6V19H4V13A1,1,0,0,1,5,12Z"/></g></g></svg>