<svg id="Build_icon_here" data-name="Build icon here" xmlns="http://www.w3.org/2000/svg" viewBox="0 0 32 32"><defs><linearGradient id="td3asto1ta" x1="13" y1="5" x2="26" y2="5" gradientUnits="userSpaceOnUse"><stop offset=".3"/><stop offset="1" stop-opacity="0"/></linearGradient><linearGradient id="9m5u4v0zic" x1="-3243.706" y1="32" x2="-3273.824" gradientTransform="matrix(1.063 0 0 -1 3478.438 32)" gradientUnits="userSpaceOnUse"><stop offset=".1" stop-color="#3ddbd9"/><stop offset=".9" stop-color="#4589ff"/></linearGradient><mask id="5kd8fup51b" x="0" y="0" width="32" height="32" maskUnits="userSpaceOnUse"><path d="M4 4h24a2 2 0 0 1 2 2v16a2 2 0 0 1-2 2h-8v4h4v2H8v-2h4v-4H4a2 2 0 0 1-2-2V6a2 2 0 0 1 2-2zm10 24h4v-4h-4zM4 22h24V6H4z" style="fill:#fff"/><path style="fill:url(#td3asto1ta)" d="M13 3h13v4H13z"/></mask></defs><g style="mask:url(#5kd8fup51b)"><path transform="rotate(180 16 16)" style="fill:url(#9m5u4v0zic)" d="M0 0h32v32H0z"/></g><path style="fill:#f4f4f4" d="M17 14.17V2h-2v12.17l-2.59-2.58L11 13l5 5 5-5-1.41-1.41L17 14.17z"/></svg>