<svg id="EndToEndMonitoring" xmlns="http://www.w3.org/2000/svg" xmlns:xlink="http://www.w3.org/1999/xlink" viewBox="0 0 32 32"><defs><linearGradient id="06791jslda" x1="7" y1="16" x2="14" y2="16" gradientUnits="userSpaceOnUse"><stop offset=".08" stop-opacity="0"/><stop offset=".65"/></linearGradient><linearGradient id="gnyivjhyoc" x1="116" y1="16" x2="123" y2="16" gradientTransform="translate(-98)" xlink:href="#06791jslda"/><linearGradient id="1c2xrlzrdb" x1="103.835" y1="35.724" x2="101.304" y2="30.192" gradientTransform="matrix(.71167 .75012 -.3939 1.35593 -46.485 -110.288)" gradientUnits="userSpaceOnUse"><stop offset=".48"/><stop offset=".9" stop-opacity="0"/></linearGradient><linearGradient id="nugclea5ud" x1="231.677" y1="-.137" x2="229.146" y2="-5.669" gradientTransform="matrix(.71167 .75012 -.3939 1.35593 -146.591 -148.253)" xlink:href="#1c2xrlzrdb"/><linearGradient id="iy2bnvh9be" x1="234.942" y1="6.033" x2="232.41" y2=".501" gradientTransform="matrix(.71167 -.75012 -.3939 -1.35593 -146.556 191.067)" xlink:href="#1c2xrlzrdb"/><linearGradient id="1kpoxey9rf" x1="100.571" y1="29.555" x2="98.039" y2="24.022" gradientTransform="matrix(.71167 -.75012 -.3939 -1.35593 -46.663 131.474)" xlink:href="#1c2xrlzrdb"/><linearGradient id="0b36u9sm9h" x1="0" y1="32" x2="32" y2="0" gradientUnits="userSpaceOnUse"><stop offset="0" stop-color="#3ddbd9"/><stop offset="1" stop-color="#4589ff"/></linearGradient><mask id="4k3sevgkng" x="0" y="0" width="32" height="32" maskUnits="userSpaceOnUse"><path d="M28 13a2.99 2.99 0 0 0-2.816 2h-7.499l3.844-7.048c.155.025.31.048.472.048a3 3 0 1 0-3-3c0 .769.298 1.463.773 1.993l-3.773 6.918-3.773-6.918A2.98 2.98 0 0 0 13.001 5a3 3 0 1 0-3 3c.162 0 .317-.023.472-.048L14.317 15H6.818a2.99 2.99 0 0 0-2.816-2 3 3 0 1 0 0 6 2.99 2.99 0 0 0 2.816-2h7.499l-3.844 7.048a2.938 2.938 0 0 0-.472-.048 3 3 0 1 0 3 3 2.98 2.98 0 0 0-.773-1.994l3.773-6.918 3.773 6.918A2.976 2.976 0 0 0 19.001 27a3 3 0 1 0 3-3c-.162 0-.317.023-.472.048L17.685 17h7.499A2.99 2.99 0 0 0 28 19a3 3 0 1 0 0-6zm-6-9c.551 0 1 .449 1 1s-.449 1-1 1-1-.449-1-1 .449-1 1-1zM4 17c-.551 0-1-.449-1-1s.449-1 1-1 1 .449 1 1-.449 1-1 1zm6 11c-.551 0-1-.449-1-1s.449-1 1-1 1 .449 1 1-.449 1-1 1z" style="fill:#fff"/><path style="fill:url(#06791jslda)" d="M7 14h7v4H7z"/><path transform="rotate(180 21.5 16)" style="fill:url(#gnyivjhyoc)" d="M18 14h7v4h-7z"/><path transform="rotate(-28.955 13.536 11.342)" style="fill:url(#1c2xrlzrdb)" d="M12.074 6.827h2.923v9.03h-2.923z"/><path transform="rotate(151.045 18.536 20.658)" style="fill:url(#nugclea5ud)" d="M17.074 16.143h2.923v9.03h-2.923z"/><path transform="rotate(-151.045 18.464 11.342)" style="fill:url(#iy2bnvh9be)" d="M17.003 6.827h2.923v9.03h-2.923z"/><path transform="rotate(28.955 13.464 20.658)" style="fill:url(#1kpoxey9rf)" d="M12.003 16.143h2.923v9.03h-2.923z"/><path d="M13 13h6v6h-6z"/></mask></defs><path style="fill:none" d="M0 0h32v32H0z"/><g style="mask:url(#4k3sevgkng)"><path style="fill:url(#0b36u9sm9h)" d="M0 0h32v32H0z"/></g><path d="M20 20h-8v-8h8v8zm-6-2h4v-4h-4v4z" style="fill:#f4f4f4"/></svg>