<svg id="EngineeringLifecycleOptimizationEngineering_Insights" data-name="EngineeringLifecycleOptimizationEngineering Insights" xmlns="http://www.w3.org/2000/svg" xmlns:xlink="http://www.w3.org/1999/xlink" viewBox="0 0 32 32"><defs><linearGradient id="hm0euefrsa" x1=".078" y1="14.06" x2="18.926" y2="24.942" gradientUnits="userSpaceOnUse"><stop offset=".6" stop-color="#fff"/><stop offset=".92" stop-color="#fff" stop-opacity="0"/></linearGradient><linearGradient id="8jr4vok8kb" x1="6.855" y1="13.953" x2="25.61" y2="3.125" gradientUnits="userSpaceOnUse"><stop offset=".08" stop-color="#fff" stop-opacity="0"/><stop offset=".4" stop-color="#fff"/></linearGradient><linearGradient id="ctd9teej7c" x1="22.248" y1="30.864" x2="22.248" y2="9" xlink:href="#hm0euefrsa"/><linearGradient id="r8vqnr2nre" x1="-5763" y1="-1919" x2="-5731" y2="-1951" gradientTransform="matrix(1 0 0 -1 5763 -1919)" gradientUnits="userSpaceOnUse"><stop offset=".1" stop-color="#be95ff"/><stop offset=".9" stop-color="#4589ff"/></linearGradient><mask id="yw8a6wvg2d" x="0" y="0" width="32" height="32" maskUnits="userSpaceOnUse"><path d="m15.5 30.864-12-7A1 1 0 0 1 3 23V9h2v13.426l11.5 6.71z" style="fill:url(#hm0euefrsa)"/><path d="M27.5 9.864 16 3.158 4.5 9.864l-1-1.728 12-7a1 1 0 0 1 1.008 0l12 7z" style="fill:url(#8jr4vok8kb)"/><path d="m16.5 30.864-1-1.728 11.5-6.71V9h2v14a1 1 0 0 1-.5.864z" style="fill:url(#ctd9teej7c)"/></mask></defs><g style="mask:url(#yw8a6wvg2d)"><path id="Color" transform="rotate(-90 16 16)" style="fill:url(#r8vqnr2nre)" d="M0 0h32v32H0z"/></g><path d="M20 15.967c-.1 0-.186.021-.28.028l-.883-2.635a3.007 3.007 0 1 0-4.646-1.307l-2.717 2.324a2.96 2.96 0 0 0-1.47-.4 3 3 0 1 0 2.411 4.768l3.6 1.076c0 .05-.015.1-.015.147a4 4 0 1 0 4-4zm-3.007-5.956a1 1 0 1 1-1 1 1 1 0 0 1 1.001-1zm-6.989 7.965a1 1 0 1 1 1-1 1 1 0 0 1-.999 1zm2.985-1.147a2.972 2.972 0 0 0-.2-.946l2.686-2.3a2.97 2.97 0 0 0 1.467.421l.876 2.615a4 4 0 0 0-1.23 1.284zM20 21.967a2 2 0 1 1 2-2 2 2 0 0 1-2 2z" style="fill:#f4f4f4"/></svg>