<svg id="EngineeringSystemsDesignRhapsodySN1" xmlns="http://www.w3.org/2000/svg" xmlns:xlink="http://www.w3.org/1999/xlink" viewBox="0 0 32 32"><defs><linearGradient id="lgd6uxgw0a" x1="-88" y1="-80" x2="-79" y2="-80" gradientTransform="translate(99 85)" gradientUnits="userSpaceOnUse"><stop offset="0" stop-opacity="0"/><stop offset=".9"/></linearGradient><linearGradient id="kazcgamfkb" x1="3583" y1="2350.5" x2="3592" y2="2350.5" gradientTransform="translate(-3577 -2325)" xlink:href="#lgd6uxgw0a"/><linearGradient id="pmjoxp0jwd" x1="0" y1="32" x2="32" y2="0" gradientUnits="userSpaceOnUse"><stop offset=".1" stop-color="#be95ff"/><stop offset=".9" stop-color="#4589ff"/></linearGradient><mask id="8cyjd00vhc" x="0" y="0" width="32" height="32" maskUnits="userSpaceOnUse"><path d="M25 27h-4c-1.103 0-2-.897-2-2v-4c0-1.103.897-2 2-2h4c1.103 0 2 .897 2 2v4c0 1.103-.897 2-2 2zm-4-6h-.002L21 25h4v-4h-4zM14 27h-4c-3.86 0-7-3.14-7-7v-2h2v2c0 2.757 2.243 5 5 5h4v2zM27 13v-2c0-3.86-3.14-7-7-7h-8v2h8c2.757 0 5 2.243 5 5v2h2zM25 15h2v2h-2zM29 19h2v2h-2zM29 23h2v2h-2zM15 21h2v2h-2zM15 25h2v2h-2zM15 29h2v2h-2zM19 29h2v2h-2z" style="fill:#fff"/><path transform="rotate(180 15.5 5)" style="fill:url(#lgd6uxgw0a)" d="M11 3h9v4h-9z"/><path style="fill:url(#kazcgamfkb)" d="M6 23h9v5H6z"/></mask></defs><g style="mask:url(#8cyjd00vhc)"><path style="fill:url(#pmjoxp0jwd)" d="M0 0h32v32H0z"/></g><path d="M10 8V4a2 2 0 0 0-2-2H2v13h2v-5h1.48l2.34 5H10l-2.33-5H8a2 2 0 0 0 2-2zM4 4h4v4H4V4z" style="fill:#f4f4f4"/></svg>