<svg id="EnterpriseRecords" xmlns="http://www.w3.org/2000/svg" viewBox="0 0 32 32"><defs><linearGradient id="5f9wmjol0a" x1="29" y1="25" x2="29" y2="10" gradientUnits="userSpaceOnUse"><stop offset=".1"/><stop offset=".9" stop-opacity="0"/></linearGradient><linearGradient id="u2qhlaq6mc" x1="-1090" y1="32" x2="-1122" gradientTransform="matrix(1 0 0 -1 1122 32)" gradientUnits="userSpaceOnUse"><stop offset=".1" stop-color="#3ddbd9"/><stop offset=".9" stop-color="#4589ff"/></linearGradient><mask id="blg371jkzb" x="0" y="0" width="32" height="32" maskUnits="userSpaceOnUse"><path d="M10 27H4a2 2 0 0 1-2-2V5a2 2 0 0 1 2-2h7.586A1.986 1.986 0 0 1 13 3.586L16.414 7H28a2 2 0 0 1 2 2v15h-2V9H15.586l-4-4H4v20h6z" style="fill:#fff"/><path style="fill:url(#5f9wmjol0a)" d="M27 10h4v15h-4z"/></mask></defs><g style="mask:url(#blg371jkzb)"><path transform="rotate(180 16 16)" style="fill:url(#u2qhlaq6mc)" d="M0 0h32v32H0z"/></g><path d="M24 20v-3a4 4 0 0 0-8 0v3a2 2 0 0 0-2 2v6a2 2 0 0 0 2 2h8a2 2 0 0 0 2-2v-6a2 2 0 0 0-2-2zm-6-3a2 2 0 0 1 4 0v3h-4zm6 11h-8v-6h8z" style="fill:#f4f4f4"/></svg>