<svg xmlns="http://www.w3.org/2000/svg" xmlns:xlink="http://www.w3.org/1999/xlink" viewBox="0 0 32 32"><defs><linearGradient id="i0z4wob3pa" x1="10" y1="27" x2="10" y2="18" gradientUnits="userSpaceOnUse"><stop offset=".2"/><stop offset=".95" stop-opacity="0"/></linearGradient><linearGradient id="obbiha5r6b" x1="-1255.5" y1="2412.5" x2="-1255.5" y2="2403.5" gradientTransform="translate(1278 -2398)" xlink:href="#i0z4wob3pa"/><linearGradient id="cmcwhly4fd" y1="32" x2="32" gradientUnits="userSpaceOnUse"><stop offset=".1" stop-color="#be95ff"/><stop offset=".9" stop-color="#4589ff"/></linearGradient><mask id="9xq8zhxyjc" x="0" y="0" width="32" height="32" maskUnits="userSpaceOnUse"><path d="m27.994 22.337-1.414-1.414-2.122 2.122-1.414-1.415 2.122-2.121-1.415-1.409-2.121 2.116-5.318-5.316a7.957 7.957 0 0 0 1.619-3.9H26V9h-8.069A8 8 0 1 0 9 17.931V26h2v-8.069a7.946 7.946 0 0 0 3.9-1.619l10.973 10.975 1.414-1.414-1.414-1.414zM10 16a6 6 0 1 1 6-6 6.006 6.006 0 0 1-6 6z" fill="#fff"/><path fill="url(#i0z4wob3pa)" d="M8 18h4v9H8z"/><path transform="rotate(-90 22.5 10)" fill="url(#obbiha5r6b)" d="M20.5 5.5h4v9h-4z"/></mask></defs><g data-name="Layer 2"><g data-name="Dark theme icons"><g mask="url(#9xq8zhxyjc)"><path fill="url(#cmcwhly4fd)" d="M0 0h32v32H0z"/></g><circle cx="10" cy="10" r="2" fill="#f4f4f4"/><circle cx="10" cy="28" r="2" fill="#f4f4f4"/><circle cx="28" cy="10" r="2" fill="#f4f4f4"/></g></g></svg>