<svg id="ePricer" xmlns="http://www.w3.org/2000/svg" xmlns:xlink="http://www.w3.org/1999/xlink" viewBox="0 0 32 32"><defs><linearGradient id="bm4879o6ra" x1="-3385.978" y1="-5136.616" x2="-3392.283" y2="-5150.137" gradientTransform="rotate(-120 -203.64 -3545.633)" gradientUnits="userSpaceOnUse"><stop offset=".285"/><stop offset=".7" stop-opacity="0"/></linearGradient><linearGradient id="izt4n8oq5b" x1="27.592" y1="16.28" x2="21.287" y2="2.76" gradientTransform="translate(-1.49 2.127)" xlink:href="#bm4879o6ra"/><linearGradient id="ofcsvfdyxc" x1="2591.172" y1="-5686.308" x2="2584.868" y2="-5699.829" gradientTransform="rotate(128.689 -71.573 -3452.39)" xlink:href="#bm4879o6ra"/><linearGradient id="s6aus3za9e" y1="32" x2="32" gradientUnits="userSpaceOnUse"><stop offset=".1" stop-color="#3ddbd9"/><stop offset=".9" stop-color="#4589ff"/></linearGradient><mask id="ujb9vy98zd" x="-2.479" y="0" width="34.479" height="32.476" maskUnits="userSpaceOnUse"><path d="M4.147 23.422a13.987 13.987 0 0 1 2.906-18.2l1.279 1.536a11.988 11.988 0 0 0-2.493 15.6zM16 29.989a13.841 13.841 0 0 1-6.33-1.508l.906-1.783a12.01 12.01 0 0 0 16.789-6.858l1.9.638A13.978 13.978 0 0 1 16 29.989zM27.808 13.846A12.018 12.018 0 0 0 12.209 4.6l-.632-1.9a14.02 14.02 0 0 1 18.2 10.792z" style="fill:#fff"/><path style="fill:url(#bm4879o6ra)" d="m-2.479 7.275 8 13.856 7.794-4.5L7.985 7.4l.757-.743-1.089-1.805-.955.319-1.383-2.396-7.794 4.5z"/><path style="fill:url(#izt4n8oq5b)" d="M30.95 7.147h-16v9h10.849l.142.645 2.422-.061.249-.584h2.338v-9z"/><path style="fill:url(#ofcsvfdyxc)" d="m15.664 32.476 7.465-10.493-7.025-5.626-6.595 8.235-.739-.291-1.457 2.029.15.817-1.361 1.699 9.562 3.63z"/></mask></defs><g style="mask:url(#ujb9vy98zd)"><path id="Color" style="fill:url(#s6aus3za9e)" d="M0 0h32v32H0z"/></g><path d="M19.921 21.992h-6.964a2 2 0 0 1-2-2v-8.003a2 2 0 0 1 2-2h5.967a2 2 0 0 1 2 2v5h-7.965v3h6.961zm-6.963-7h5.963v-3h-5.964z" style="fill:#f4f4f4"/><circle cx="8.012" cy="5.965" r="2" style="fill:#f4f4f4"/><circle cx="8.012" cy="25.965" r="2" style="fill:#f4f4f4"/><circle cx="28.996" cy="15.965" r="2" style="fill:#f4f4f4"/></svg>