<svg id="EventStreams" xmlns="http://www.w3.org/2000/svg" xmlns:xlink="http://www.w3.org/1999/xlink" viewBox="0 0 32 32"><defs><linearGradient id="j8jewuakla" x1="801.658" y1="780.68" x2="801.658" y2="771.68" gradientTransform="matrix(1.117 0 0 .906 -875.029 -692.617)" gradientUnits="userSpaceOnUse"><stop offset="0" stop-opacity="0"/><stop offset=".66"/></linearGradient><linearGradient id="hqrh7711mb" x1="-884.216" y1="2881.145" x2="-884.216" y2="2872.145" gradientTransform="matrix(1.117 0 0 .906 999.656 -2584.763)" xlink:href="#j8jewuakla"/><linearGradient id="z2pdwiq4ld" x1="0" y1="32" x2="32" y2="0" gradientUnits="userSpaceOnUse"><stop offset=".1" stop-color="#3ddbd9"/><stop offset=".9" stop-color="#4589ff"/></linearGradient><mask id="cy1nkdqiec" x="0" y="0" width="32" height="32" maskUnits="userSpaceOnUse"><path d="M4.267 23.831A10.927 10.927 0 0 1 1 16.01c0-6.065 4.935-11 11-11s11 4.935 11 11h-2c0-4.962-4.038-9-9-9s-9 4.038-9 9.001c0 2.421.949 4.694 2.673 6.399l-1.406 1.422z" style="fill:#fff"/><path transform="rotate(133.375 20.41 10.544)" style="fill:url(#j8jewuakla)" d="M17.618 6.467h5.585v8.153h-5.585z"/><path d="M20 27.02c-6.065 0-11-4.935-11-11l2-.01c0 4.972 4.038 9.01 9 9.01s9-4.038 9-9a8.932 8.932 0 0 0-2.637-6.353l1.414-1.414A10.912 10.912 0 0 1 31 16.02c0 6.065-4.935 11-11 11z" style="fill:#fff"/><path transform="rotate(-45 23.55 15.021)" d="M20.431 11.901h6.239v6.239h-6.239z"/><path transform="rotate(-45 12 21.262)" style="fill:url(#hqrh7711mb)" d="M9.208 17.186h5.585v8.153H9.208z"/><path transform="rotate(-45 8.16 17.794)" d="M4.684 15.037h6.952v5.514H4.684z"/></mask></defs><g style="mask:url(#cy1nkdqiec)"><path style="fill:url(#z2pdwiq4ld)" d="M0 0h32v32H0z"/></g><circle cx="24" cy="5.016" r="2" style="fill:#f4f4f4"/><circle cx="8" cy="26.996" r="2" style="fill:#f4f4f4"/><path d="M16.014 20.842a1.993 1.993 0 0 1-1.414-.585l-2.828-2.829c-.378-.377-.586-.879-.586-1.414s.208-1.036.586-1.414l2.828-2.829a2.003 2.003 0 0 1 2.828 0l2.829 2.829c.378.378.586.88.586 1.414s-.208 1.037-.586 1.414l-2.828 2.829c-.39.39-.902.585-1.415.585zm0-7.656-2.829 2.829 2.828 2.829 2.83-2.83-2.829-2.827z" style="fill:#f4f4f4"/></svg>