<svg xmlns="http://www.w3.org/2000/svg" xmlns:xlink="http://www.w3.org/1999/xlink" viewBox="0 0 32 32"><defs><linearGradient id="f2yvwrlnab" x1="11" y1="11" x2="21" y2="21" gradientUnits="userSpaceOnUse"><stop offset=".2" stop-opacity="0"/><stop offset=".78"/></linearGradient><linearGradient id="x4k4xiv1la" x1="-2722.069" y1="-2388.154" x2="-2722.069" y2="-2395.209" gradientTransform="matrix(1 0 0 1.134 2736.069 2735.07)" gradientUnits="userSpaceOnUse"><stop offset=".15"/><stop offset=".9" stop-opacity="0"/></linearGradient><linearGradient id="lie0kd6uuc" x1="-293.069" y1="-105.004" x2="-293.069" y2="-112.059" gradientTransform="matrix(1 0 0 1.134 316.069 137.07)" xlink:href="#x4k4xiv1la"/><linearGradient id="1mvhne429e" y1="32" x2="32" gradientUnits="userSpaceOnUse"><stop offset=".1" stop-color="#3ddbd9"/><stop offset=".9" stop-color="#4589ff"/></linearGradient><mask id="ehlwysnsbd" x="0" y="0" width="32" height="32" maskUnits="userSpaceOnUse"><path transform="rotate(-45.001 13.267 13.268)" fill="#fff" d="M12.268 5.161h2v16.213h-2z"/><path fill="url(#f2yvwrlnab)" d="M11 11h10v10H11z"/><path fill="#fff" d="M22 9h2v8h-2zM9 22h8v2H9z"/><path transform="rotate(-90 14 23)" fill="url(#x4k4xiv1la)" d="M12 19h4v8h-4z"/><path fill="url(#lie0kd6uuc)" d="M21 10h4v8h-4z"/><path d="M23 30a7 7 0 1 1 7-7 7.008 7.008 0 0 1-7 7zm0-12a5 5 0 1 0 5 5 5.006 5.006 0 0 0-5-5z" fill="#fff"/></mask></defs><g data-name="Layer 2"><g data-name="Build icon here"><g mask="url(#ehlwysnsbd)"><path fill="url(#1mvhne429e)" d="M0 0h32v32H0z"/></g><path d="M4 7a3 3 0 1 1 3-3 3 3 0 0 1-3 3zm0-4a1 1 0 1 0 1 1 1 1 0 0 0-1-1zm19 4a3 3 0 1 1 3-3 3 3 0 0 1-3 3zm0-4a1 1 0 1 0 1 1 1 1 0 0 0-1-1zM4 26a3 3 0 1 1 3-3 3 3 0 0 1-3 3zm0-4a1 1 0 1 0 1 1 1 1 0 0 0-1-1z" fill="#f4f4f4"/></g></g></svg>