<svg xmlns="http://www.w3.org/2000/svg" viewBox="0 0 32 32"><defs><linearGradient id="wzjq7qe27a" x1=".75" y1="11.25" x2="18.25" y2="28.75" gradientUnits="userSpaceOnUse"><stop offset=".25"/><stop offset=".65" stop-opacity="0"/></linearGradient><linearGradient id="7z9oswqvtc" x1="-198" y1="32" x2="-230" gradientTransform="matrix(1 0 0 -1 230 32)" gradientUnits="userSpaceOnUse"><stop offset=".1" stop-color="#3ddbd9"/><stop offset=".9" stop-color="#4589ff"/></linearGradient><mask id="i2g7yz5dbb" x="0" y="0" width="32" height="32" maskUnits="userSpaceOnUse"><path d="M16 27c6.208 0 12.6-4.5 14.869-10.474l.064-.166a1 1 0 1 0-1.866-.719l-.067.171A14.669 14.669 0 0 1 16 25a14.667 14.667 0 0 1-13-9.184l-.065-.17a1 1 0 0 0-1.87.709l.065.171C3.4 22.5 9.791 27 16 27z" fill="#fff"/><path fill="url(#wzjq7qe27a)" d="M0 12h19v16H0z"/><path d="m2.934 16.357.066-.17A14.666 14.666 0 0 1 16 7a14.668 14.668 0 0 1 13 9.184l.066.173a1 1 0 1 0 1.868-.714l-.065-.171C28.6 9.5 22.209 5 16 5S3.4 9.5 1.13 15.474l-.064.169" fill="#fff"/></mask></defs><g data-name="Layer 2"><g data-name="Dark theme icons"><g mask="url(#i2g7yz5dbb)"><path transform="rotate(180 16 16)" fill="url(#7z9oswqvtc)" d="M0 0h32v32H0z"/></g><path d="M16 10a6 6 0 1 0 6 6 6.007 6.007 0 0 0-6-6zm0 10a4 4 0 1 1 4-4 4 4 0 0 1-4 4z" fill="#f4f4f4"/></g></g></svg>