<svg id="FaultAnalyzerForZOS" xmlns="http://www.w3.org/2000/svg" viewBox="0 0 32 32"><defs><linearGradient id="0y2g1p017a" x1="1536.404" y1="269.671" x2="1549.404" y2="269.671" gradientTransform="matrix(1.03 0 0 .848 -1577.326 -203.977)" gradientUnits="userSpaceOnUse"><stop offset=".1" stop-opacity="0"/><stop offset=".9"/></linearGradient><linearGradient id="funyf1wyyc" x1="-4270" y1="4272" x2="-4238" y2="4304" gradientTransform="matrix(1 0 0 -1 4270 4304)" gradientUnits="userSpaceOnUse"><stop offset=".1" stop-color="#c590ff"/><stop offset=".9" stop-color="#2887ff"/></linearGradient><mask id="8bdcaxuqtb" x="0" y="0" width="32" height="32" maskUnits="userSpaceOnUse"><path d="M15.486 30.864 3.5 23.876a1 1 0 0 1-.5-.864V9h2v13.438l11.494 6.7zM12.992 13.017h-2L11 4.337a1 1 0 0 1 .5-.866l4.02-2.313a1 1 0 0 1 1 0L28.5 8.136A1 1 0 0 1 29 9v4h-2V9.575L16.017 3.18 13 4.917z" style="fill:#fff"/><path style="fill:#fff" d="M7 6h2v10H7z"/><path transform="rotate(30 12.138 24.76)" style="fill:url(#0y2g1p017a)" d="M5.442 20.519h13.392v8.482H5.442z"/></mask></defs><g style="mask:url(#8bdcaxuqtb)"><path style="fill:url(#funyf1wyyc)" d="M0 0h32v32H0z"/></g><path d="m30.21 28.79-3.61-3.61a7 7 0 1 0-1.42 1.42l3.61 3.61zM16 21a5 5 0 1 1 5 5 5 5 0 0 1-5-5z" style="fill:#f3f3f3" id="Fault_Analyzer" data-name="Fault Analyzer"/><path style="fill:#f3f3f3" d="m22.198 23.606-2.383-2.383-1.281 1.28-1.414-1.415 2.695-2.694 2.382 2.383 1.271-1.272 1.415 1.413-2.685 2.688z"/></svg>