<svg id="WebMethodsAPIControlPlane" xmlns="http://www.w3.org/2000/svg" viewBox="0 0 32 32"><defs><linearGradient id="u29qrjlsca" x1="6.75" y1="10.25" x2="15.25" y2="18.75" gradientUnits="userSpaceOnUse"><stop offset=".25" stop-opacity="0"/><stop offset=".7"/></linearGradient><linearGradient id="hbyls7779b" x1="16.75" y1="18.75" x2="25.25" y2="10.25" gradientUnits="userSpaceOnUse"><stop offset=".3"/><stop offset=".75" stop-opacity="0"/></linearGradient><linearGradient id="9cp450fimd" x1="0" y1="32" x2="32" y2="0" gradientUnits="userSpaceOnUse"><stop offset=".1" stop-color="#3ddbd9"/><stop offset=".9" stop-color="#4589ff"/></linearGradient><mask id="v2ukjkvmoc" x="0" y="0" width="32" height="32" maskUnits="userSpaceOnUse"><path d="M22 17H10c-2.757 0-5-2.271-5-5.061 0-2.493 1.78-4.5 4.181-4.876.817-2.852 3.711-5.057 6.819-5.057s6.002 2.205 6.819 5.057c2.4.376 4.181 2.383 4.181 4.876C27 14.729 24.757 17 22 17zM10 9c-1.71 0-3 1.264-3 2.939C7 13.655 8.317 15 10 15h12c1.683 0 3-1.345 3-3.061C25 10.263 23.71 9 22 9h-.867l-.123-.858c-.32-2.241-2.615-4.135-5.01-4.135s-4.689 1.894-5.01 4.135L10.867 9H10z" style="fill:#fff"/><path style="fill:url(#u29qrjlsca)" d="M6 11h10v7H6z"/><path style="fill:url(#hbyls7779b)" d="M16 11h10v7H16z"/></mask></defs><path style="fill:none" d="M0 0h32v32H0z"/><g style="mask:url(#v2ukjkvmoc)"><path style="fill:url(#9cp450fimd)" d="M0 0h32v32H0z"/></g><path d="M23 20a2.96 2.96 0 0 0-1.319.319l.026-.026L17 15.586v-5.172l2.293 2.293 1.414-1.414L16 6.586l-4.707 4.707 1.414 1.414L15 10.414v5.172l-4.707 4.707.026.026A2.957 2.957 0 0 0 9 20c-1.654 0-3 1.346-3 3s1.346 3 3 3 3-1.346 3-3a2.96 2.96 0 0 0-.319-1.319l.026.026L15 18.414v5.77A2.996 2.996 0 0 0 13 27c0 1.654 1.346 3 3 3s3-1.346 3-3a2.996 2.996 0 0 0-2-2.816v-5.77l3.293 3.293.026-.026A2.96 2.96 0 0 0 20 23c0 1.654 1.346 3 3 3s3-1.346 3-3-1.346-3-3-3zM9 24a1.001 1.001 0 0 1 0-2 1.001 1.001 0 0 1 0 2zm7 4a1.001 1.001 0 0 1 0-2 1.001 1.001 0 0 1 0 2zm7-4a1 1 0 1 1 0-2 1 1 0 0 1 0 2z" style="fill:#f4f4f4"/></svg>