<svg id="FeedbackHub" xmlns="http://www.w3.org/2000/svg" viewBox="0 0 32 32"><defs><linearGradient id="wfre2regta" x1="-147.903" y1="-25.5" x2="-137.903" y2="-25.5" gradientTransform="translate(153.903 49.5)" gradientUnits="userSpaceOnUse"><stop offset="0" stop-opacity="0"/><stop offset=".83"/></linearGradient><linearGradient id="7jsksbi74b" x1="38.5" y1="-607.447" x2="48.5" y2="-607.447" gradientTransform="translate(-17.447 623.447)" gradientUnits="userSpaceOnUse"><stop offset="0" stop-opacity="0"/><stop offset=".6"/></linearGradient><linearGradient id="383l510tzd" x1="0" y1="32" x2="32" y2="0" gradientUnits="userSpaceOnUse"><stop offset=".1" stop-color="#c592ff"/><stop offset=".9" stop-color="#238aff"/></linearGradient><mask id="1d5jf4wxrc" x="0" y="0" width="32" height="32" maskUnits="userSpaceOnUse"><path d="M15 25H7.005A4.005 4.005 0 0 1 3 20.995v-9.993a4.001 4.001 0 0 1 4.001-4.001H15v2H7.001A2.001 2.001 0 0 0 5 11.002v9.993C5 22.103 5.898 23 7.005 23H15v2z" style="fill:#fff"/><path style="fill:url(#wfre2regta)" d="M6 22h10v4H6z" id="Gradients_black_" data-name="Gradients (black)"/><path d="m15.69 30-1.732-1 3.465-6h5.572A2.005 2.005 0 0 0 25 20.995v-8.992h2v8.992A4.005 4.005 0 0 1 22.995 25h-4.417l-2.887 5z" style="fill:#fff"/><path transform="rotate(-90 26.053 16)" style="fill:url(#7jsksbi74b)" d="M21.053 14h10v4h-10z"/></mask></defs><g style="mask:url(#1d5jf4wxrc)"><path style="fill:url(#383l510tzd)" d="M0 0h32v32H0z"/></g><circle cx="18.002" cy="4.002" r="1.002" style="fill:#f3f3f3"/><path style="fill:#f3f3f3" d="M21.008 3h8.016v2.004h-8.016z"/><circle cx="18.002" cy="11.998" r="1.002" style="fill:#f3f3f3"/><path style="fill:#f3f3f3" d="M21.008 10.996h8.016V13h-8.016z"/><circle cx="28.022" cy="8" r="1.002" style="fill:#f3f3f3"/><path style="fill:#f3f3f3" d="M17 6.998h8.016v2.004H17z"/></svg>