<svg id="GuardiumDataSecurityCenter" xmlns="http://www.w3.org/2000/svg" viewBox="0 0 32 32"><defs><linearGradient id="agxjt0l3sa" x1="6.006" y1="25.8" x2="27.006" y2="25.8" gradientUnits="userSpaceOnUse"><stop offset=".1" stop-opacity="0"/><stop offset=".75"/></linearGradient><linearGradient id="yl53mz3aab" x1="16.886" y1="24.382" x2="28.571" y2="17.635" gradientUnits="userSpaceOnUse"><stop offset=".206"/><stop offset=".708" stop-opacity="0"/></linearGradient><linearGradient id="657v0voi3d" x1="-.042" y1="32.014" x2="31.986" y2="-.014" gradientUnits="userSpaceOnUse"><stop offset=".2" stop-color="#a56eff"/><stop offset=".8" stop-color="#82cfff"/></linearGradient><mask id="k2cxxjo6qc" x="-.056" y="0" width="32.056" height="32.006" maskUnits="userSpaceOnUse"><path d="M15.994 29c-4.962 0-9-4.038-9-9V7.618l9-4.5 11 5.5V6.382l-11-5.5-11 5.5V20c0 6.065 4.935 11 11 11s11-4.935 11-11h-2c0 4.962-4.038 9-9 9z" style="fill:#fff;stroke-width:0"/><path style="fill:url(#agxjt0l3sa);stroke-width:0" d="M6.006 19.594h21v12.412h-21z"/><path d="m19.007 7-5.521 3.133-.479.262v2.323l6-3.451 5.981 3.018-.015 6.962c0 2.62-2.224 4.81-4.972 4.81h-1v2h1c3.852 0 6.972-3.088 6.972-6.808l.017-8.19L19.007 7z" style="fill:#fff;stroke-width:0"/><path d="M26.33 17.99h-7.988v8.914h1.309c5.042 0 9.126-4.042 9.126-8.912l-2.448-.002z" style="fill:url(#yl53mz3aab);stroke-width:0"/></mask></defs><path style="fill:none;stroke-width:0" d="M0 0h32v32H0z"/><g style="mask:url(#k2cxxjo6qc)"><path style="fill:url(#657v0voi3d);stroke-width:0" d="M-.056 0H32v32H-.056z"/></g><path d="m18.992 21.098-3.991-2.305v-4.608l3.991-2.304 3.99 2.304v4.608l-3.99 2.305zm-1.991-3.459 1.991 1.149 1.99-1.149V15.34l-1.99-1.149-1.991 1.149v2.299z" style="fill:#f4f4f4;stroke-width:0"/></svg>