<svg id="GuardiumDataSecurityPostureManagement" xmlns="http://www.w3.org/2000/svg" viewBox="0 0 32 32"><defs><linearGradient id="vkz9qszqza" x1="6" y1="25.5" x2="27" y2="25.5" gradientUnits="userSpaceOnUse"><stop offset=".1" stop-opacity="0"/><stop offset=".75"/></linearGradient><linearGradient id="wmn7aekb5c" x1="0" y1="32" x2="32" y2="0" gradientUnits="userSpaceOnUse"><stop offset=".2" stop-color="#a56eff"/><stop offset=".8" stop-color="#82cfff"/></linearGradient><mask id="f28ztsczub" x="0" y="0" width="32" height="32" maskUnits="userSpaceOnUse"><path d="M15 29c-4.962 0-9-4.038-9-9V7.618l9-4.5 11 5.5V6.382l-11-5.5-11 5.5V20c0 6.065 4.935 11 11 11s11-4.935 11-11h-2c0 4.962-4.038 9-9 9z" style="fill:#fff;stroke-width:0"/><path style="fill:url(#vkz9qszqza);stroke-width:0" d="M6 19h21v13H6z"/></mask></defs><path style="fill:none;stroke-width:0" d="M0 0h32v32H0z"/><g style="mask:url(#f28ztsczub)"><path style="fill:url(#wmn7aekb5c);stroke-width:0" d="M0 0h32v32H0z"/></g><path d="M25.5 24H18c-2.206 0-4-1.794-4-4s1.794-4 4-4h.083c1.065-1.345 2.351-2 3.917-2 2.086 0 3.92 1.29 4.654 3.203A3.467 3.467 0 0 1 29 20.5c0 1.93-1.57 3.5-3.5 3.5zM18 18c-1.103 0-2 .897-2 2s.897 2 2 2h7.5c.827 0 1.5-.673 1.5-1.5 0-.743-.538-1.363-1.278-1.474l-.661-.099-.162-.649A2.986 2.986 0 0 0 22 16c-1.046 0-1.844.483-2.588 1.566l-.298.434H18z" style="fill:#f4f4f4;stroke-width:0"/></svg>