<svg xmlns="http://www.w3.org/2000/svg" xmlns:xlink="http://www.w3.org/1999/xlink" viewBox="0 0 32 32">
  <defs>
    <linearGradient id="e1e52ae3-97cb-4445-a796-5345b4c162e0" x1="2041.5" y1="-5068.5" x2="2052.5" y2="-5068.5" gradientTransform="translate(-2023 5088)" gradientUnits="userSpaceOnUse">
      <stop offset="0" stop-opacity="0"/>
      <stop offset="0.9"/>
    </linearGradient>
    <mask id="a9b12112-b51d-4a4c-9a4d-3e40bb85e87c" x="0" y="0" width="32" height="32" maskUnits="userSpaceOnUse">
      <g>
        <rect x="13" y="6" width="4" height="2" fill="#fff"/>
        <path d="M15,28H7V4H23V24h2V4a2,2,0,0,0-2-2H7A2,2,0,0,0,5,4V28a2,2,0,0,0,2,2h8Z" fill="#fff"/>
        <path d="M15,12a4,4,0,1,0,4,4A4,4,0,0,0,15,12Zm0,6a2,2,0,1,1,2-2A2,2,0,0,1,15,18Z" fill="#fff"/>
        <path d="M19,21H12a3,3,0,0,0-3,3v2h2V24a1,1,0,0,1,1-1h7Z" fill="#fff"/>
        <rect x="18.5" y="17.5" width="11" height="4" transform="translate(43.5 -4.5) rotate(90)" fill="url(#e1e52ae3-97cb-4445-a796-5345b4c162e0)"/>
      </g>
    </mask>
    <linearGradient id="a1de71b9-2d94-46f4-9acc-7b8b37b1ec88" y1="32" x2="32" gradientUnits="userSpaceOnUse">
      <stop offset="0.1" stop-color="#3ddbd9"/>
      <stop offset="0.9" stop-color="#be95ff"/>
    </linearGradient>
  </defs>
  <g id="f3a1a36f-e149-4533-ad22-38c1733e47d6" data-name="Layer 2">
    <g id="f9163ac2-974a-40e4-8ecd-2d55dbefd6aa" data-name="Build icon here">
      <g>
        <g mask="url(#a9b12112-b51d-4a4c-9a4d-3e40bb85e87c)">
          <rect width="32" height="32" fill="url(#a1de71b9-2d94-46f4-9acc-7b8b37b1ec88)"/>
        </g>
        <polygon points="22 28.18 19.41 25.59 18 27 22 31 29 24 27.59 22.59 22 28.18" fill="#f4f4f4"/>
      </g>
    </g>
  </g>
</svg>
