<svg xmlns="http://www.w3.org/2000/svg" viewBox="0 0 32 32"><defs><linearGradient id="73y10qnuca" x1="2044.5" y1="-5069.5" x2="2057.5" y2="-5069.5" gradientTransform="translate(-2026 5093)" gradientUnits="userSpaceOnUse"><stop offset="0" stop-opacity="0"/><stop offset=".8"/></linearGradient><linearGradient id="383b422myc" y1="32" x2="32" gradientUnits="userSpaceOnUse"><stop offset=".1" stop-color="#3ddbd9"/><stop offset=".9" stop-color="#be95ff"/></linearGradient><mask id="73nw5l3znb" x="0" y="0" width="32" height="32" maskUnits="userSpaceOnUse"><path fill="#fff" d="M14 6h4v2h-4z"/><path d="M17 28H8V4h16v25h2V4a2 2 0 0 0-2-2H8a2 2 0 0 0-2 2v24a2 2 0 0 0 2 2h9l1-1z" fill="#fff"/><path transform="rotate(90 25 23.5)" fill="url(#73y10qnuca)" d="M18.5 21.5h13v4h-13z"/><path fill="#fff" d="M17 28h8v2h-8z"/></mask></defs><g data-name="Layer 2"><g data-name="Build icon here"><g mask="url(#73nw5l3znb)"><path fill="url(#383b422myc)" d="M0 0h32v32H0z"/></g><path d="M19 21h-6a3 3 0 0 0-3 3v2h2v-2a1 1 0 0 1 1-1h6a1 1 0 0 1 1 1v2h2v-2a3 3 0 0 0-3-3zm-3-9a4 4 0 1 0 4 4 4 4 0 0 0-4-4zm0 6a2 2 0 1 1 2-2 2 2 0 0 1-2 2z" fill="#f4f4f4"/></g></g></svg>