<svg id="HMCMobile" xmlns="http://www.w3.org/2000/svg" viewBox="0 0 32 32"><defs><linearGradient id="8gp3ba61da" x1="3647.757" y1="-3336.097" x2="3656.958" y2="-3336.097" gradientTransform="translate(-3625.357 3353.954)" gradientUnits="userSpaceOnUse"><stop offset="0" stop-opacity="0"/><stop offset=".83"/></linearGradient><linearGradient id="re9fnpukkc" x1="0" y1="32" x2="32" y2="0" gradientUnits="userSpaceOnUse"><stop offset=".1" stop-color="#be95ff"/><stop offset=".9" stop-color="#4589ff"/></linearGradient><mask id="xs40wdyw7b" x="0" y="0" width="32" height="32" maskUnits="userSpaceOnUse"><path d="M26 29h-8c-1.103 0-2-.897-2-2V5c0-1.103.897-2 2-2h8c1.103 0 2 .897 2 2v22c0 1.103-.897 2-2 2zM18 5v22h8.001V5H18zM12 3H4c-1.103 0-2 .897-2 2v22c0 1.103.897 2 2 2h8c1.103 0 2-.897 2-2V5c0-1.103-.897-2-2-2zm0 6.92L5.85 5H12v4.92zM11.399 12 4 17.92V6.08L11.399 12zM12 14.08v11.841L4.6 20l7.4-5.92zm-8.001 8 6.15 4.92h-6.15v-4.92z" style="fill:#fff"/><path transform="rotate(90 27 17.858)" style="fill:url(#8gp3ba61da)" d="M22.4 15.858h9.202v4H22.4z" id="Gradients_black_" data-name="Gradients (black)"/><path d="M20 22.302h9V30h-9z"/></mask></defs><g style="mask:url(#xs40wdyw7b)"><path style="fill:url(#re9fnpukkc)" d="M0 0h32v32H0z"/></g><path style="fill:#f4f4f4" d="m25 27.18-2.59-2.59L21 26l4 4 7-7-1.41-1.41L25 27.18z"/></svg>