<svg id="HybridCloudMeshGateway" xmlns="http://www.w3.org/2000/svg" viewBox="0 0 32 32"><defs><linearGradient id="gfxon8og1a" x1="2721.958" y1="-9022.195" x2="2730.958" y2="-9022.195" gradientTransform="translate(-2709.458 9040.695)" gradientUnits="userSpaceOnUse"><stop offset="0" stop-opacity="0"/><stop offset=".6"/></linearGradient><linearGradient id="df48vaeg0b" x1="-1459" y1="461" x2="-1459" y2="451" gradientTransform="translate(1474 -440)" gradientUnits="userSpaceOnUse"><stop offset=".2" stop-color="#fff"/><stop offset=".7" stop-color="#fff" stop-opacity="0"/></linearGradient><linearGradient id="g63jlue9zd" x1="0" y1="32" x2="32" y2="0" gradientUnits="userSpaceOnUse"><stop offset=".1" stop-color="#3ddbd9"/><stop offset=".9" stop-color="#4589ff"/></linearGradient><mask id="iea3t1m8ic" x="0" y="0" width="32" height="32" maskUnits="userSpaceOnUse"><path d="M14 28h-4v-2h4l.003-5.007c0-1.602.624-3.107 1.757-4.239A5.957 5.957 0 0 1 19.996 15h.005l-.002 2h-.003a3.97 3.97 0 0 0-2.822 1.168 3.966 3.966 0 0 0-1.171 2.825v5.005A2.005 2.005 0 0 1 14 28z" style="fill:#fff;stroke-width:0"/><path transform="rotate(-90 17 18.5)" style="fill:url(#gfxon8og1a);stroke-width:0" d="M12.5 14.5h9v8h-9z"/><path d="M19.996 17c-1.6 0-3.104-.623-4.236-1.754a5.954 5.954 0 0 1-1.757-4.239V6.002L10 6V4h4c1.104 0 2.002.898 2.002 2.002v5.005a3.97 3.97 0 0 0 1.172 2.825A3.97 3.97 0 0 0 19.996 15h.003l.002 2h-.005z" style="fill:#fff;stroke-width:0"/><path transform="rotate(90 15 16)" style="fill:url(#df48vaeg0b);stroke-width:0" d="M14 11h2v10h-2z"/></mask></defs><path style="fill:none;stroke-width:0" d="M0 0h32v32H0z"/><g style="mask:url(#iea3t1m8ic)"><path style="fill:url(#g63jlue9zd);stroke-width:0" d="M0 0h32v32H0z"/></g><path d="M22 16c0-2.206 1.794-4 4-4s4 1.794 4 4-1.794 4-4 4-4-1.794-4-4zm6 0c0-1.103-.897-2-2-2s-2 .897-2 2 .897 2 2 2 2-.897 2-2zM5 8C3.346 8 2 6.654 2 5s1.346-3 3-3 3 1.346 3 3-1.346 3-3 3zm0-4a1.001 1.001 0 0 0 0 2 1.001 1.001 0 0 0 0-2zM5 19c-1.654 0-3-1.346-3-3s1.346-3 3-3 3 1.346 3 3-1.346 3-3 3zm0-4a1.001 1.001 0 0 0 0 2 1.001 1.001 0 0 0 0-2zM5 30c-1.654 0-3-1.346-3-3s1.346-3 3-3 3 1.346 3 3-1.346 3-3 3zm0-4a1.001 1.001 0 0 0 0 2 1.001 1.001 0 0 0 0-2z" style="fill:#f4f4f4;stroke-width:0"/></svg>