<svg id="HyperProtectOfflineSigningOrchestrator" xmlns="http://www.w3.org/2000/svg" viewBox="0 0 32 32"><defs><linearGradient id="8x9ah0t4ba" x1="3089.758" y1="7.547" x2="3093.997" y2="7.547" gradientTransform="rotate(-180 1553.998 16.802)" gradientUnits="userSpaceOnUse"><stop offset=".067"/><stop offset="1" stop-opacity="0"/></linearGradient><linearGradient id="73n4gh44ab" x1="4793.315" y1="-3014.172" x2="4797.315" y2="-3014.172" gradientTransform="rotate(-45 6825.04 4370.646) scale(1.06 1.169)" gradientUnits="userSpaceOnUse"><stop offset=".063"/><stop offset="1" stop-opacity="0"/></linearGradient><linearGradient id="vh29lf5q6c" x1="3537.862" y1="-3498.396" x2="3541.997" y2="-3498.396" gradientTransform="translate(-3523.997 3504.396)" gradientUnits="userSpaceOnUse"><stop offset=".046"/><stop offset="1" stop-opacity="0"/></linearGradient><linearGradient id="f375k48yze" x1="0" y1="2" x2="32" y2="34" gradientTransform="matrix(1 0 0 -1 0 34)" gradientUnits="userSpaceOnUse"><stop offset=".1" stop-color="#4589ff"/><stop offset=".9" stop-color="#33b1ff"/></linearGradient><mask id="1lgtdqr40d" x="0" y="0" width="32" height="32" maskUnits="userSpaceOnUse"><path d="M30 2h-8v3h-8v2h8v1.586L9.293 21.293l1.414 1.414L23.414 10H30V2zm-2 6h-4V4h4v4zM18 25H9.858c-.447-1.72-2-3-3.858-3-2.206 0-4 1.794-4 4s1.794 4 4 4c1.858 0 3.411-1.28 3.858-3H18v-2zM6 28c-1.103 0-2-.897-2-2s.897-2 2-2 2 .897 2 2-.897 2-2 2z" style="fill:#fff;stroke-width:0"/><path d="M18.239 27.44H14v-2.767h4.239v2.767z" style="fill:url(#8x9ah0t4ba);stroke-width:0"/><path d="m8.973 21.313 2.998-2.998 1.653 1.653-2.998 2.998-1.653-1.653z" style="fill:url(#73n4gh44ab);stroke-width:0"/><path d="M13.864 4h4.135v4h-4.135V4z" style="fill:url(#vh29lf5q6c);stroke-width:0"/></mask></defs><path d="m25 31-2.139-1.013A5.021 5.021 0 0 1 20 25.467V19h10v6.467a5.023 5.023 0 0 1-2.861 4.52L25 31zm-3-10v4.468c0 1.153.674 2.218 1.717 2.711l1.283.607 1.283-.607A3.011 3.011 0 0 0 28 25.468V21h-6zM2 5h10v2H2zM2 9h6v2H2z" style="fill:#f4f4f4;stroke-width:0"/><circle cx="11" cy="10" r="1" style="fill:#f4f4f4;stroke-width:0"/><path transform="rotate(180 9 2)" style="fill:#f4f4f4;stroke-width:0" d="M6 1h6v2H6z"/><circle cx="3" cy="2" r="1" style="fill:#f4f4f4;stroke-width:0"/><g style="mask:url(#1lgtdqr40d)"><path d="M0 0h32v32H0V0z" style="fill:url(#f375k48yze);stroke-width:0"/></g></svg>