<svg id="HyperProtectConfidentialContainerforRedHatVirtualizationSolutions" xmlns="http://www.w3.org/2000/svg" viewBox="0 0 32 32"><defs><linearGradient id="zgongbw6ka" x1="10" y1="4.854" x2="19" y2="4.854" gradientTransform="matrix(1 0 0 -1 0 33.354)" gradientUnits="userSpaceOnUse"><stop offset="0" stop-opacity="0"/><stop offset=".784"/></linearGradient><linearGradient id="yfygx8in5c" x1="0" y1="1.354" x2="32" y2="33.354" gradientTransform="matrix(1 0 0 -1 0 33.354)" gradientUnits="userSpaceOnUse"><stop offset=".1" stop-color="#c592ff"/><stop offset=".9" stop-color="#ff364f"/></linearGradient><mask id="8lt20nhvqb" x="0" y="0" width="32" height="32" maskUnits="userSpaceOnUse"><g id="xt0klyqcxb"><path d="M16 2C8.27 2 2 8.27 2 16s6.27 14 14 14c.68 0 1.35-.05 2-.14v-2.03c-.65.11-1.32.17-2 .17-6.63 0-12-5.37-12-12S9.37 4 16 4s12 5.37 12 12c0 .34-.01.67-.04 1h2c.03-.33.04-.66.04-1 0-7.73-6.27-14-14-14z" style="fill:#fff"/><path d="M10 26h9v5h-9v-5z" style="fill:url(#zgongbw6ka)"/></g></mask></defs><g style="mask:url(#8lt20nhvqb)"><path d="M0 0h32v32H0V0z" style="fill:url(#yfygx8in5c)"/></g><path d="M19 19v6.467a5.02 5.02 0 0 0 2.861 4.52L24 31l2.139-1.013A5.023 5.023 0 0 0 29 25.467V19H19zm8 6.468a3.011 3.011 0 0 1-1.717 2.711L24 28.786l-1.283-.607A3.012 3.012 0 0 1 21 25.468V21h6v4.468z" style="fill:#f4f4f4"/><path d="M17 10h-2a5 5 0 0 0-5 5v7h7v-5h5v-7h-5zm-2 2v3h-3a3 3 0 0 1 3-3zm0 8h-3v-3h3v3zm5-5h-3v-3h3v3z" style="fill:#f4f4f4"/></svg>