<svg id="iAccelNav" xmlns="http://www.w3.org/2000/svg" viewBox="0 0 32 32"><defs><linearGradient id="cppwothcaa" x1="5734.449" y1="-1342.906" x2="5734.449" y2="-1352.906" gradientTransform="translate(-5704.449 1365.906)" gradientUnits="userSpaceOnUse"><stop offset=".1"/><stop offset="1" stop-opacity="0"/></linearGradient><linearGradient id="701sxx8exc" x1="0" y1="32" x2="32" y2="0" gradientUnits="userSpaceOnUse"><stop offset=".1" stop-color="#be95ff"/><stop offset=".9" stop-color="#4589ff"/></linearGradient><mask id="za98z7itxb" x="0" y="0" width="32" height="32" maskUnits="userSpaceOnUse"><path d="M29 14v11h-2.142c-.447-1.72-1.999-3-3.858-3s-3.411 1.28-3.858 3H17V8h2V6h-3a1 1 0 0 0-1 1v4H6a1 1 0 0 0-.868.504l-4 7A1.003 1.003 0 0 0 1 19v5c0 1.654 1.346 3 3 3h1.142c.447 1.72 1.999 3 3.858 3s3.411-1.28 3.858-3h6.284c.447 1.72 1.999 3 3.858 3s3.411-1.28 3.858-3H30a1 1 0 0 0 1-1V14h-2zm-14 4h-2v-5h2v5zm-8.42-5H11v5H3.723l2.857-5zM9 28c-1.103 0-2-.897-2-2s.897-2 2-2 2 .897 2 2-.897 2-2 2zm0-6c-1.859 0-3.411 1.28-3.858 3H4c-.552 0-1-.449-1-1v-4h12v5h-2.142c-.447-1.72-1.999-3-3.858-3zm14 6c-1.103 0-2-.897-2-2s.897-2 2-2 2 .897 2 2-.897 2-2 2z" style="fill:#fff"/><path transform="rotate(180 30 18)" style="fill:url(#cppwothcaa)" d="M28 13h4v10h-4z"/></mask></defs><path style="fill:none" d="M0 0h32v32H0z"/><g style="mask:url(#za98z7itxb)"><path style="fill:url(#701sxx8exc)" d="M0 0h32v32H0z"/></g><path d="M26 2a5 5 0 0 0-3.891 8.14L26 15l3.891-4.86A5 5 0 0 0 26 2zm0 7a2 2 0 1 1 0-4 2 2 0 0 1 0 4z" style="fill:#f4f4f4"/></svg>