<svg xmlns="http://www.w3.org/2000/svg" viewBox="0 0 32 32"><defs><linearGradient id="xwdhip0nla" x1="9" y1="30" x2="9" y2="2" gradientUnits="userSpaceOnUse"><stop offset="0" stop-color="#f4f4f4" stop-opacity=".15"/><stop offset="1" stop-color="#f4f4f4" stop-opacity=".45"/></linearGradient><linearGradient id="nf2whqatvb" x1="-450.84" y1="-4425.202" x2="-426.94" y2="-4425.202" gradientTransform="rotate(45 -5571 -1652)" gradientUnits="userSpaceOnUse"><stop offset=".1" stop-color="#4587fd"/><stop offset=".289" stop-color="#4183fa"/><stop offset=".484" stop-color="#3477f1"/><stop offset=".683" stop-color="#2063e2"/><stop offset=".883" stop-color="#0347ce"/><stop offset=".9" stop-color="#04c"/></linearGradient></defs><g data-name="Layer 2"><g data-name="Dark theme icons"><path d="M16 30v-6a8 8 0 1 1 0-16V2a14 14 0 0 0 0 28z" fill="url(#xwdhip0nla)"/><path d="M16 30v-6a8 8 0 0 0 0-16V2a14 14 0 0 1 0 28z" fill="url(#nf2whqatvb)"/><circle cx="16" cy="5" r="3" fill="#f4f4f4"/><path d="M16 11a3 3 0 0 0-3 3v13a3 3 0 0 0 6 0V14a3 3 0 0 0-3-3z" fill="#f4f4f4"/><path fill="none" d="M0 0h32v32H0z"/></g></g></svg>