<svg id="IBM_Z_Open_Automation_Utilities" data-name="IBM Z Open Automation Utilities" xmlns="http://www.w3.org/2000/svg" xmlns:xlink="http://www.w3.org/1999/xlink" viewBox="0 0 32 32"><defs><linearGradient id="qnww18d3aa" x1="2543.168" y1="-5657.44" x2="2558.115" y2="-5653.435" gradientTransform="rotate(120 -354.871 -3546.494)" gradientUnits="userSpaceOnUse"><stop offset=".2"/><stop offset=".8" stop-opacity="0"/></linearGradient><linearGradient id="metkwzdwdb" x1="-3624.778" y1="-5014.426" x2="-3609.832" y2="-5010.421" gradientTransform="rotate(-120 -353.6 -3545.664)" xlink:href="#qnww18d3aa"/><linearGradient id="j626pcx3cc" x1="16.014" y1="4.37" x2="30.96" y2="8.375" gradientTransform="translate(-1.49 2.127)" xlink:href="#qnww18d3aa"/><linearGradient id="ucqgkjvi9e" y1="32" x2="32" gradientUnits="userSpaceOnUse"><stop offset=".1" stop-color="#3ddbd9"/><stop offset=".9" stop-color="#4589ff"/></linearGradient><mask id="wkcxgxx0rd" x="-.001" y="0" width="32.001" height="32" maskUnits="userSpaceOnUse"><path d="M16 30a14 14 0 1 1 14-14 14.015 14.015 0 0 1-14 14zm0-26a12 12 0 1 0 12 12A12.013 12.013 0 0 0 16 4z" style="fill:#fff"/><path style="fill:url(#qnww18d3aa)" d="m21.999 32 6.988-8.5-12.99-7.5-6 10.393L21.999 32z"/><path style="fill:url(#metkwzdwdb)" d="m-.001 13 3.007 10.5L15.997 16l-6-10.392L-.001 13z"/><path style="fill:url(#j626pcx3cc)" d="M15.997 1h12v15h-12z"/></mask></defs><g style="mask:url(#wkcxgxx0rd)"><path style="fill:url(#ucqgkjvi9e)" d="M0 0h32v32H0z"/></g><path style="fill:#f4f4f4" d="M15 19h8v2h-8z"/><path style="fill:#f1f1f1" d="M7.586 12.414 11.166 16l-3.582 3.587L9 21l5-5-5-5-1.414 1.414z"/></svg>