<svg id="SecurityQRadar_SOAR" data-name="SecurityQRadar+SOAR" xmlns="http://www.w3.org/2000/svg" viewBox="0 0 32 32"><defs><linearGradient id="q1qmik7kea" x1="8" y1="29.606" x2="8" y2="1.606" gradientTransform="matrix(1 0 0 -1 0 33.606)" gradientUnits="userSpaceOnUse"><stop offset=".19" stop-opacity="0"/><stop offset=".57"/></linearGradient><linearGradient id="54evlpe1sc" x1="32" y1="1.606" x2="0" y2="33.606" gradientTransform="matrix(1 0 0 -1 0 33.606)" gradientUnits="userSpaceOnUse"><stop offset=".2" stop-color="#82cfff"/><stop offset=".8" stop-color="#a56eff"/></linearGradient><mask id="ntqfmmkn0b" x="0" y="0" width="32" height="32" maskUnits="userSpaceOnUse"><g id="pl26iqx8ob"><path d="M16 30C8.28 30 2 23.72 2 16S8.28 2 16 2s14 6.28 14 14-6.28 14-14 14zm0-26C9.383 4 4 9.383 4 16s5.383 12 12 12 12-5.383 12-12S22.617 4 16 4z" style="fill:#fff;stroke-width:0"/><path d="M0 4h16v28H0V4z" style="fill:url(#q1qmik7kea);stroke-width:0"/><path d="M32 32H16V16l16 16z" style="stroke-width:0"/></g></mask></defs><path style="fill:none;stroke-width:0" d="M0 0h32v32H0z"/><g style="mask:url(#ntqfmmkn0b)"><path d="M0 0h32v32H0V0z" style="fill:url(#54evlpe1sc);stroke-width:0"/></g><path d="M11.584 18.414V21h2v-6h-6v2h2.586l-4.585 4.584c-.39.39-.585.903-.585 1.415s.195 1.027.586 1.417l2.291 2.291 1.414-1.414L7 22.998l4.584-4.583zm7.83 3.169-2.291-2.291-1.414 1.414L18 23.001l-4.584 4.583v-2.586h-2v6h6v-2H14.83l4.584-4.583a2.001 2.001 0 0 0 .003-2.83l-.003-.003z" style="fill:#f4f4f4;stroke-width:0"/></svg>