<svg id="IBM_Security_QRadar_SOAR" data-name="IBM Security QRadar+ SOAR" xmlns="http://www.w3.org/2000/svg" viewBox="0 0 32 32"><defs><linearGradient id="0s2tb30f7a" x1="8" y1="4" x2="8" y2="32" gradientUnits="userSpaceOnUse"><stop offset=".19" stop-opacity="0"/><stop offset=".57"/></linearGradient><linearGradient id="1b6r8pvmnc" x1="32" y1="32" x2="0" y2="0" gradientUnits="userSpaceOnUse"><stop offset="0" stop-color="#33b1ff"/><stop offset=".118" stop-color="#37abfe"/><stop offset=".271" stop-color="#439afe"/><stop offset=".445" stop-color="#587ffd"/><stop offset=".633" stop-color="#755afc"/><stop offset=".75" stop-color="#8a3ffc"/></linearGradient><linearGradient id="h7zofud1ld" x1="28" y1="26" x2="28" y2="17" gradientUnits="userSpaceOnUse"><stop offset="0" stop-color="#30b0ff"/><stop offset="1" stop-color="#33b1ff" stop-opacity="0"/></linearGradient><mask id="pl26iqx8ob" x="0" y="0" width="32" height="32" maskUnits="userSpaceOnUse"><path d="M16 30C8.28 30 2 23.72 2 16S8.28 2 16 2s14 6.28 14 14-6.28 14-14 14zm0-26C9.383 4 4 9.383 4 16s5.383 12 12 12 12-5.383 12-12S22.617 4 16 4z" style="fill:#fff"/><path style="fill:url(#0s2tb30f7a)" d="M0 4h16v28H0z"/><path d="M32 32H16V16l16 16z"/></mask></defs><g style="mask:url(#pl26iqx8ob)"><path style="fill:url(#1b6r8pvmnc)" d="M0 0h32v32H0z"/><path style="fill:#8a3ffc" d="M0 7h10v25H0z"/><path style="fill:url(#h7zofud1ld)" d="M24 17h8v9h-8z"/></g><path d="M11.584 18.414V21h2v-6h-6v2h2.586l-4.585 4.584c-.39.39-.585.903-.585 1.415s.195 1.027.586 1.417l2.291 2.291 1.414-1.414L7 22.998l4.584-4.583zM19.414 21.583l-2.291-2.291-1.414 1.414L18 23.001l-4.584 4.583v-2.586h-2v6h6v-2H14.83l4.584-4.583a2.001 2.001 0 0 0 0-2.833z" style="fill:#f4f4f4"/></svg>