<svg id="ILOGCPLEXOptimizationStudio" xmlns="http://www.w3.org/2000/svg" viewBox="0 0 32 32"><defs><linearGradient id="6hmbbgye5a" x1="16" y1="25.927" x2="16" y2="5.927" gradientUnits="userSpaceOnUse"><stop offset=".077" stop-opacity="0"/><stop offset=".236"/><stop offset=".719"/><stop offset=".9" stop-opacity="0"/></linearGradient><linearGradient id="m140pm1pgc" x1="0" y1="31.927" x2="32" y2="-.073" gradientUnits="userSpaceOnUse"><stop offset=".1" stop-color="#00deda"/><stop offset=".9" stop-color="#238aff"/></linearGradient><mask id="b19ak46mgb" x="0" y="-.073" width="32" height="32" maskUnits="userSpaceOnUse"><path d="M4 16.927H2v-11c0-1.103.897-2 2-2h26v2H4v11zM28 27.927H2v-2h26v-11h2v11c0 1.103-.897 2-2 2z" style="fill:#fff"/><path style="fill:url(#6hmbbgye5a)" d="M0 5.927h32v20H0z"/></mask></defs><g style="mask:url(#b19ak46mgb)"><path style="fill:url(#m140pm1pgc)" d="M0-.073h32v32H0z"/></g><path d="M1 16.471c0-2.289 1.173-3.549 2.996-3.549 1.241 0 2.037.504 2.531 1.59l-1.27.659c-.175-.562-.534-.94-1.261-.94-.862 0-1.434.582-1.434 1.648v1.086c0 1.067.572 1.648 1.434 1.648.727 0 1.144-.456 1.348-1.009l1.203.699c-.504 1.028-1.31 1.619-2.551 1.619C2.173 19.922 1 18.759 1 16.471zM7.572 19.805v-6.768h3.2c1.261 0 2.056.882 2.056 2.162s-.795 2.162-2.056 2.162H9.047v2.443H7.573zm1.474-3.723h1.551c.436 0 .708-.232.708-.669v-.426c0-.437-.272-.669-.708-.669H9.046v1.765zM13.93 19.805v-6.768h1.474v5.459h2.579v1.309H13.93zM19.068 19.805v-6.768h4.605v1.309h-3.131v1.387h2.686v1.299h-2.686v1.465h3.131v1.309h-4.605zM26.531 16.305l-2.065-3.267h1.716l1.319 2.288h.029l1.338-2.288h1.59l-2.084 3.297 2.2 3.471h-1.706l-1.464-2.492h-.03l-1.425 2.492h-1.59l2.172-3.5z" style="fill:#f4f4f4"/></svg>