<svg id="ImageTemplateForVPC" xmlns="http://www.w3.org/2000/svg" xmlns:xlink="http://www.w3.org/1999/xlink" viewBox="0 0 32 32"><defs><linearGradient id="s3dcgd0tba" x1="11" y1="3" x2="25" y2="3" gradientUnits="userSpaceOnUse"><stop offset=".2"/><stop offset=".9" stop-opacity="0"/></linearGradient><linearGradient id="2m5zd1ko7b" x1="2896" y1="-71" x2="2909" y2="-71" gradientTransform="translate(-2889 100)" xlink:href="#s3dcgd0tba"/><linearGradient id="exih5s9ojd" x1="0" y1="32" x2="32" y2="0" gradientUnits="userSpaceOnUse"><stop offset=".1" stop-color="#ad6bff"/><stop offset=".9" stop-color="#ff74b7"/></linearGradient><mask id="7swjzdacfc" x="0" y="0" width="32" height="32" maskUnits="userSpaceOnUse"><path d="M13 19H9a2 2 0 0 0-2 2v2a2 2 0 0 0 2 2h4a2 2 0 0 0 2-2v-2a2 2 0 0 0-2-2zm0 4H9v-2h4v2z" style="fill:#fff"/><path d="M28 30H4c-1.103 0-2-.897-2-2V16h2v12h24V4H11V2h17c1.103 0 2 .897 2 2v24c0 1.103-.897 2-2 2z" style="fill:#fff"/><path d="M23 7h-4a2 2 0 0 0-2 2v2a2 2 0 0 0 2 2h4a2 2 0 0 0 2-2V9a2 2 0 0 0-2-2zm0 4h-4V9h4v2z" style="fill:#fff"/><path style="fill:url(#s3dcgd0tba)" d="M11 1h14v4H11z"/><path transform="rotate(180 13.5 29)" style="fill:url(#2m5zd1ko7b)" d="M7 27h13v4H7z"/><path d="M19 16h12v15H19z"/></mask></defs><path style="fill:none" d="M0 0h32v32H0z"/><g style="mask:url(#7swjzdacfc)"><path style="fill:url(#exih5s9ojd)" d="M0 0h32v32H0z"/></g><path style="fill:#f4f4f4" d="M0 10h5v2H0z"/><path transform="rotate(90 11 2.5)" style="fill:#f4f4f4" d="M8.5 1.5h5v2h-5z"/><path transform="rotate(45 4.525 4.525)" style="fill:#f4f4f4" d="M2.025 3.525h5v2h-5z"/><path d="M13 7H9a2 2 0 0 0-2 2v6a2 2 0 0 0 2 2h4a2 2 0 0 0 2-2V9a2 2 0 0 0-2-2zm0 8H9V9h4v6zM30 25c0-.552-.111-1.074-.278-1.572l1.84-1.062-1-1.732-1.839 1.062A4.972 4.972 0 0 0 26 20.102v-2.101h-2v2.101a4.983 4.983 0 0 0-2.723 1.594l-1.839-1.062-1 1.732 1.84 1.062C20.112 23.925 20 24.447 20 25s.111 1.074.278 1.572l-1.84 1.062 1 1.732 1.839-1.062A4.972 4.972 0 0 0 24 29.898v2.101h2v-2.101a4.983 4.983 0 0 0 2.723-1.594l1.839 1.062 1-1.732-1.84-1.062A4.936 4.936 0 0 0 30 25zm-5 3c-1.654 0-3-1.346-3-3s1.346-3 3-3 3 1.346 3 3-1.346 3-3 3z" style="fill:#f4f4f4"/></svg>