<svg xmlns="http://www.w3.org/2000/svg" viewBox="0 0 32 32"><defs><linearGradient id="xzxiikp6ra" x1="1867.999" y1="-2263.03" x2="1877.999" y2="-2263.03" gradientTransform="matrix(1.4 0 0 1 -2598.542 2280.438)" gradientUnits="userSpaceOnUse"><stop offset=".062" stop-opacity="0"/><stop offset=".569"/></linearGradient><linearGradient id="cj2wpxst0b" x1="15.214" y1="8.488" x2="25.195" y2="3.3" gradientUnits="userSpaceOnUse"><stop offset=".029" stop-opacity="0"/><stop offset=".635"/></linearGradient><linearGradient id="lrast6l1hd" y1="32" x2="32" gradientUnits="userSpaceOnUse"><stop offset=".1" stop-color="#be95ff"/><stop offset=".9" stop-color="#4589ff"/></linearGradient><mask id="y16w61xzoc" x="0" y="0" width="32" height="32" maskUnits="userSpaceOnUse"><path transform="rotate(-27.309 16.273 7.656)" fill="#fff" d="M6.861 6.657h18.822v2H6.861z"/><path d="M27.854 6.714a2.018 2.018 0 0 1-.074.2l-8.654 16.72 1.78.912 8.651-16.717-1.694-1.106z" fill="#fff"/><path transform="rotate(117.31 23.156 17.408)" fill="url(#xzxiikp6ra)" d="M16.157 15.408h13.997v4H16.157z" data-name="Gradients (black)"/><path d="M12 30a10 10 0 1 1 10-10 10.011 10.011 0 0 1-10 10zm0-18a8 8 0 1 0 8 8 8.009 8.009 0 0 0-8-8z" fill="#fff"/><path fill="url(#cj2wpxst0b)" d="m26 6-2-5-10 5 2 4 10-4z"/><path d="M26 10a4 4 0 1 1 4-4 4 4 0 0 1-4 4zm0-6a2 2 0 1 0 2 2 2 2 0 0 0-2-2z" fill="#fff"/></mask></defs><g data-name="Layer 2"><g data-name="Dark theme icons"><g mask="url(#y16w61xzoc)"><path fill="url(#lrast6l1hd)" d="M0 0h32v32H0z"/></g><path d="M12 24a4 4 0 1 1 4-4 4 4 0 0 1-4 4zm0-6a2 2 0 1 0 2 2 2 2 0 0 0-2-2z" fill="#f4f4f4"/></g></g></svg>