<svg xmlns="http://www.w3.org/2000/svg" viewBox="0 0 32 32"><defs><linearGradient id="cmpxf6y8ga" x1="4.777" y1="25.449" x2="11.973" y2="12.984" gradientUnits="userSpaceOnUse"><stop offset=".2" stop-opacity="0"/><stop offset=".6"/></linearGradient><linearGradient id="m64eislmfb" x1="17.777" y1="21.449" x2="24.973" y2="8.984" gradientTransform="rotate(180 22 16)" gradientUnits="userSpaceOnUse"><stop offset=".25" stop-opacity="0"/><stop offset=".6"/></linearGradient><linearGradient id="gxbyazi1ud" y1="32" x2="32" gradientUnits="userSpaceOnUse"><stop offset=".1" stop-color="#be95ff"/><stop offset=".9" stop-color="#4589ff"/></linearGradient><mask id="rzzeef3opc" x="0" y="0" width="32" height="32" maskUnits="userSpaceOnUse"><path d="m4.667 28 5.712-10.709-1.787-.9L4 25V2H2v26a2 2 0 0 0 2 2h26v-2z" fill="#fff"/><path d="M26 6a3.983 3.983 0 0 0-2.618 7l-2.9 5.794 1.786.9 2.893-5.785A4 4 0 1 0 26 6zm0 6a2 2 0 1 1 2-2 2 2 0 0 1-2 2z" fill="#fff"/><path fill="url(#cmpxf6y8ga)" d="M12 13H5L4 25h8V13z"/><path fill="url(#m64eislmfb)" d="M19 23h7l1-12h-8v12z"/></mask></defs><g data-name="Layer 2"><g data-name="Dark theme icons"><g mask="url(#rzzeef3opc)"><path fill="url(#gxbyazi1ud)" d="M0 0h32v32H0z"/></g><path d="M20 18a3.978 3.978 0 0 0-2.229.681l-3.225-2.868A3.961 3.961 0 0 0 15 14a4.005 4.005 0 1 0-1.771 3.319l3.225 2.869A3.954 3.954 0 0 0 16 22a4 4 0 1 0 4-4zm-9-2a2 2 0 1 1 2-2 2 2 0 0 1-2 2zm9 8a2 2 0 1 1 2-2 2 2 0 0 1-2 2z" fill="#f4f4f4"/></g></g></svg>