<svg xmlns="http://www.w3.org/2000/svg" xmlns:xlink="http://www.w3.org/1999/xlink" viewBox="0 0 32 32"><defs><style>.cls-1{fill:#fff;}.cls-2{fill:url(#linear-gradient);}.cls-3{fill:url(#linear-gradient-2);}.cls-4{fill:url(#linear-gradient-3);}.cls-5{fill:url(#linear-gradient-4);}.cls-6{mask:url(#mask);}.cls-7{fill:url(#linear-gradient-5);}.cls-8{fill:#f4f4f4;}</style><linearGradient id="linear-gradient" x1="16.024" y1="32" x2="16.024" y2="27" gradientUnits="userSpaceOnUse"><stop offset="0.2"/><stop offset="1" stop-opacity="0"/></linearGradient><linearGradient id="linear-gradient-2" x1="819.976" y1="3230" x2="819.976" y2="3225" gradientTransform="translate(-808 -3225)" xlink:href="#linear-gradient"/><linearGradient id="linear-gradient-3" x1="2023.964" y1="1244.024" x2="2023.964" y2="1239.024" gradientTransform="translate(-1994.464 -1221.512)" xlink:href="#linear-gradient"/><linearGradient id="linear-gradient-4" x1="-1196.048" y1="2017.976" x2="-1196.048" y2="2012.976" gradientTransform="translate(1198.548 -1999.5)" xlink:href="#linear-gradient"/><mask id="mask" x="0" y="0" width="32" height="32" maskUnits="userSpaceOnUse"><path class="cls-1" d="M31,19H26V14H24V24H8V8H18V6H13V1H11V6H8A2,2,0,0,0,6,8v3H1v2H6v6H1v2H6v3a2,2,0,0,0,2,2h3v5h2V26h6v5h2V26h3a2,2,0,0,0,2-2V21h5Z"/><rect class="cls-2" x="10" y="27" width="12.048" height="5"/><rect class="cls-3" x="9.952" width="4.048" height="5" transform="translate(23.952 5) rotate(180)"/><rect class="cls-4" x="27.488" y="17.512" width="4.024" height="5" transform="translate(9.488 49.512) rotate(-90)"/><rect class="cls-5" x="-3.524" y="13.476" width="12.048" height="5" transform="translate(18.476 13.476) rotate(90)"/></mask><linearGradient id="linear-gradient-5" y1="32" x2="32" gradientUnits="userSpaceOnUse"><stop offset="0.1" stop-color="#be95ff"/><stop offset="0.9" stop-color="#4589ff"/></linearGradient></defs><g id="Layer_2" data-name="Layer 2"><g id="Dark_theme_icons" data-name="Dark theme icons"><g class="cls-6"><rect class="cls-7" width="32" height="32"/></g><path class="cls-8" d="M26,1.99a4,4,0,0,0-4,4,3.944,3.944,0,0,0,.567,2.019L19.586,10.99H11v10H21V12.4l2.981-2.98A3.956,3.956,0,0,0,26,9.99a4,4,0,0,0,0-8Zm-7,17H13v-6h6Zm7-11a2,2,0,1,1,2-2A2,2,0,0,1,26,7.99Z"/></g></g></svg>