<svg xmlns="http://www.w3.org/2000/svg" xmlns:xlink="http://www.w3.org/1999/xlink" viewBox="0 0 32 32"><defs><linearGradient id="ev9hzxsfna" x1="16.024" y1="32" x2="16.024" y2="27" gradientUnits="userSpaceOnUse"><stop offset=".2"/><stop offset="1" stop-opacity="0"/></linearGradient><linearGradient id="2wnkl0x68b" x1="969.976" y1="3230" x2="969.976" y2="3225" gradientTransform="translate(-958 -3225)" xlink:href="#ev9hzxsfna"/><linearGradient id="diz792ox7c" x1="2098.964" y1="1169.024" x2="2098.964" y2="1164.024" gradientTransform="translate(-2069.464 -1146.512)" xlink:href="#ev9hzxsfna"/><linearGradient id="k46e5b4i8d" x1="-1121.048" y1="2092.976" x2="-1121.048" y2="2087.976" gradientTransform="translate(1123.548 -2074.5)" xlink:href="#ev9hzxsfna"/><linearGradient id="s0gmuitztf" y1="32" x2="32" gradientUnits="userSpaceOnUse"><stop offset=".1" stop-color="#be95ff"/><stop offset=".9" stop-color="#4589ff"/></linearGradient><mask id="j6wa6mjy9e" x="0" y="0" width="32" height="32" maskUnits="userSpaceOnUse"><path d="M31 19h-5v-3h-2v8H8V8h8V6h-3V1h-2v5H8a2 2 0 0 0-2 2v3H1v2h5v6H1v2h5v3a2 2 0 0 0 2 2h3v5h2v-5h6v5h2v-5h3a2 2 0 0 0 2-2v-3h5z" fill="#fff"/><path fill="url(#ev9hzxsfna)" d="M10 27h12.048v5H10z"/><path transform="rotate(180 11.976 2.5)" fill="url(#2wnkl0x68b)" d="M9.952 0H14v5H9.952z"/><path transform="rotate(-90 29.5 20.012)" fill="url(#diz792ox7c)" d="M27.488 17.512h4.024v5h-4.024z"/><path transform="rotate(90 2.5 15.976)" fill="url(#k46e5b4i8d)" d="M-3.524 13.476H8.524v5H-3.524z"/></mask></defs><g data-name="Layer 2"><g data-name="Dark theme icons"><g mask="url(#j6wa6mjy9e)"><path fill="url(#s0gmuitztf)" d="M0 0h32v32H0z"/></g><path d="M21 20.99H11v-10h10zm-8-2h6v-6h-6zm18-6h-2a10.012 10.012 0 0 0-10-10v-2a12.013 12.013 0 0 1 12 12z" fill="#f4f4f4"/><path d="M26 12.99h-2a5.006 5.006 0 0 0-5-5v-2a7.009 7.009 0 0 1 7 7z" fill="#f4f4f4"/></g></g></svg>