<svg xmlns="http://www.w3.org/2000/svg" viewBox="0 0 32 32"><g data-name="Layer 2"><g data-name="Dark theme icons"><path d="M3.892 20.414v-.46a1.771 1.771 0 012.023-1.84 1.771 1.771 0 012.023 1.84v.46a1.771 1.771 0 01-2.023 1.839 1.771 1.771 0 01-2.023-1.839zM11.067 9.928h3.4v13.36c0 2.138-1.035 3.311-3.4 3.311H9.273v-2.644h1.794zm-.276-2.967v-.5c0-.966.6-1.679 1.978-1.679s1.977.713 1.977 1.679v.5c0 .966-.6 1.679-1.977 1.679s-1.978-.713-1.978-1.679zM16.656 20.114l2-2.023a4.2 4.2 0 003.2 1.54c1.334 0 1.792-.436 1.792-1.149 0-.6-.367-.9-1.218-1.012l-1.311-.161c-2.736-.345-4.069-1.54-4.069-3.725 0-2.323 1.816-3.932 4.69-3.932a6.067 6.067 0 014.921 1.885l-1.954 2a4.034 4.034 0 00-2.785-1.237c-1.15 0-1.61.414-1.61 1.012 0 .644.277.989 1.265 1.127l1.358.184c2.621.344 3.977 1.54 3.977 3.633 0 2.322-2.069 4.024-5.174 4.024a6.3 6.3 0 01-5.082-2.166z" fill="#f4f4f4"/><path fill="none" d="M0 0h32v32H0z"/></g></g></svg>