<svg xmlns="http://www.w3.org/2000/svg" viewBox="0 0 32 32"><defs><linearGradient id="95fhy63e5a" x1="-1176.001" y1="26.39" x2="-1187.999" y2="5.61" gradientTransform="matrix(-1 0 0 1 -1166 0)" gradientUnits="userSpaceOnUse"><stop offset="0" stop-color="#f4f4f4" stop-opacity=".15"/><stop offset="1" stop-color="#f4f4f4" stop-opacity=".45"/></linearGradient><linearGradient id="e4ox5a614b" x1="7" y1="23.771" x2="7" y2="7.915" gradientUnits="userSpaceOnUse"><stop offset=".1" stop-color="#00b9b5"/><stop offset=".9" stop-color="#0062ff"/></linearGradient></defs><g data-name="Layer 2"><g data-name="Dark theme icons"><path fill="none" d="M0 0h32v32H0z"/><path d="M16 28a12 12 0 1 1 12-12 12.013 12.013 0 0 1-12 12zm0-18a6 6 0 1 0 6 6 6.007 6.007 0 0 0-6-6z" fill="url(#95fhy63e5a)"/><circle data-name="White Ellipse Right Bottom" cx="25" cy="25" r="3" fill="#f4f4f4"/><path data-name="Teal40 Blue60 Gradient Bar" d="M10 7H4v18a3 3 0 0 0 6 0v-.125z" fill="url(#e4ox5a614b)"/><circle data-name="White Ellipse Top Left" cx="7" cy="7" r="3" fill="#f4f4f4"/></g></g></svg>