<svg id="Lighthouse" xmlns="http://www.w3.org/2000/svg" viewBox="0 0 32 32"><defs><linearGradient id="ic5r5o8dfa" x1="12.093" y1="20.256" x2="19.381" y2="16.048" gradientUnits="userSpaceOnUse"><stop offset=".25" stop-color="#fff"/><stop offset=".9"/></linearGradient><linearGradient id="wrw77kyk9b" x1="11.419" y1="25.645" x2="19.964" y2="20.711" gradientUnits="userSpaceOnUse"><stop offset=".22" stop-color="#fff"/><stop offset=".9"/></linearGradient><linearGradient id="6739pyh94d" y1="32" x2="32" gradientUnits="userSpaceOnUse"><stop offset=".1" stop-color="#3ddbd9"/><stop offset=".9" stop-color="#4589ff"/></linearGradient><mask id="ueplpktpec" x="0" y="0" width="32" height="32" maskUnits="userSpaceOnUse"><path style="fill:none;stroke-miterlimit:10;stroke-width:2px;stroke:url(#ic5r5o8dfa)" d="m19.381 16.048-7.288 4.208"/><path style="fill:none;stroke-miterlimit:10;stroke-width:2px;stroke:url(#wrw77kyk9b)" d="m19.964 20.711-8.545 4.934"/><path style="fill:none;stroke:#fff;stroke-miterlimit:10;stroke-width:2px" d="m19 13 2 16H11l2-16h6zM13 13V5l3-2 3 2v8M22 8H10M8 29h16"/></mask></defs><g style="mask:url(#ueplpktpec)"><path style="fill:url(#6739pyh94d)" d="M0 0h32v32H0z"/></g><path style="fill:#f4f4f4" d="M1 10h6v2H1z"/><path transform="rotate(-45 6.172 16.829)" style="fill:#f4f4f4" d="M3.172 15.828h6v2h-6z"/><path style="fill:#f4f4f4" d="M25 10h6v2h-6z"/><path transform="rotate(-45 25.828 16.828)" style="fill:#f4f4f4" d="M24.828 13.828h2v6h-2z"/></svg>