<svg id="MaaS360DiagnosticTool" xmlns="http://www.w3.org/2000/svg" xmlns:xlink="http://www.w3.org/1999/xlink" viewBox="0 0 32 32"><defs><linearGradient id="ip1jzn1hua" x1="15.981" y1="29.977" x2="27.573" y2="23.284" gradientTransform="rotate(30.253 21.777 26.63)" gradientUnits="userSpaceOnUse"><stop offset=".2" stop-opacity="0"/><stop offset=".9"/></linearGradient><linearGradient id="usptlfik7b" x1="-425.726" y1="2557.683" x2="-414.133" y2="2550.99" gradientTransform="rotate(-149.747 -549.363 1221.717)" xlink:href="#ip1jzn1hua"/><linearGradient id="zsu909d51d" x1="1024.432" y1="1075" x2="1056.432" y2="1043" gradientTransform="matrix(1 0 0 -1 -1024.432 1075)" gradientUnits="userSpaceOnUse"><stop offset=".2" stop-color="#a56eff"/><stop offset=".8" stop-color="#82cfff"/></linearGradient><mask id="gz9tquh04c" x="0" y="0" width="32" height="32" maskUnits="userSpaceOnUse"><path d="M26.801 22.542 16 28.843 5 22.426V12H3v11c0 .355.189.685.496.864l12 7a.999.999 0 0 0 1.008 0l10.297-6.007v-2.315z" style="fill:#fff"/><path transform="rotate(-30.253 21.776 26.63)" style="fill:url(#ip1jzn1hua)" d="M15.089 25.53h13.376v2.2H15.089z"/><path d="m28.504 8.136-12-7a.999.999 0 0 0-1.008 0L5.199 7.143v2.315L16 3.157l11 6.417V20h2V9c0-.355-.189-.685-.496-.864z" style="fill:#fff"/><path transform="rotate(-30.253 10.223 5.37)" style="fill:url(#usptlfik7b)" d="M3.535 4.27h13.376v2.2H3.535z"/></mask></defs><path style="fill:none" d="M0 0h32v32H0z"/><g style="mask:url(#gz9tquh04c)"><path transform="rotate(-90 16 16)" style="fill:url(#zsu909d51d)" d="M0 0h32v32H0z"/></g><path d="m22.707 21.293-2.822-2.822A5.961 5.961 0 0 0 21 15c0-3.309-2.691-6-6-6s-6 2.691-6 6 2.691 6 6 6c1.294 0 2.49-.416 3.471-1.115l2.822 2.822 1.414-1.414zM11 15c0-2.206 1.794-4 4-4s4 1.794 4 4-1.794 4-4 4-4-1.794-4-4z" style="fill:#f4f4f4"/></svg>