<svg id="SecurityMaaS360" xmlns="http://www.w3.org/2000/svg" xmlns:xlink="http://www.w3.org/1999/xlink" viewBox="0 0 32 32"><defs><linearGradient id="r6axvusfja" x1="1347.846" y1="-1077.045" x2="1353.716" y2="-1080.299" gradientTransform="matrix(-1.08987 .04972 .04974 -1.02733 1536.875 -1170.816)" gradientUnits="userSpaceOnUse"><stop offset=".12"/><stop offset=".9" stop-opacity="0"/></linearGradient><linearGradient id="tg691e5snb" x1="2621.847" y1="-6523.059" x2="2627.717" y2="-6526.313" gradientTransform="matrix(1.12683 .0513 .02297 -1.1101 -2798.925 -7353.372)" xlink:href="#r6axvusfja"/><linearGradient id="7xtzub2ihc" x1="2716.711" y1="-6481.983" x2="2722.581" y2="-6485.237" gradientTransform="matrix(-.79091 -.97956 -1.3384 .60914 -6498.796 6630.463)" xlink:href="#r6axvusfja"/><linearGradient id="l4hbbuxgme" x1="0" y1="32" x2="32" y2="0" gradientUnits="userSpaceOnUse"><stop offset=".2" stop-color="#a56eff"/><stop offset=".8" stop-color="#82cfff"/></linearGradient><mask id="8qiypyaild" x="0" y="0" width="32" height="32" maskUnits="userSpaceOnUse"><path d="M27 21h2V9a1 1 0 0 0-.496-.864l-8.118-4.735-1 1.732L27 9.574V21zM23.738 24.329 16 28.843 5.866 22.931l-.967 1.752 10.597 6.182a.996.996 0 0 0 1.008 0l8.234-4.803-1-1.732zM14.506 1.714 3.496 8.136A.998.998 0 0 0 3 9v9h2V9.574l10.469-6.106-.963-1.754z" style="fill:#fff;stroke-width:0"/><path style="fill:url(#r6axvusfja);stroke-width:0" d="m6.903 5.6 7.377-4.32 1.458 2.588-7.377 4.32L6.903 5.6z"/><path style="fill:url(#tg691e5snb);stroke-width:0" d="m13.043 26.556-7.339-4.652-1.699 2.8 7.338 4.652 1.7-2.8z"/><path style="fill:url(#7xtzub2ihc);stroke-width:0" d="m25.228 12.869.014 8.825 4.617-.152-.014-8.824-4.617.151z"/></mask></defs><g style="mask:url(#8qiypyaild)"><path id="Color" style="fill:url(#l4hbbuxgme);stroke-width:0" d="M0 0h32v32H0z"/></g><path d="M27 20a1.98 1.98 0 0 0-.992.273l-5.009-2.892V13.69a.998.998 0 0 0-.5-.866l-3.5-2.021V4.722c.595-.346 1-.984 1-1.723a2 2 0 1 0-4 0c0 .738.405 1.376 1 1.723v6.081l-3.5 2.021a1 1 0 0 0-.5.866v3.691l-5.008 2.892A1.978 1.978 0 0 0 4.999 20a2 2 0 1 0 2 2l4.696-2.711 3.804 2.197a1.003 1.003 0 0 0 1 0l3.804-2.196 4.696 2.711a2 2 0 1 0 2-2zm-8-2.268-3 1.732-3-1.732v-3.465l3-1.732 3 1.732v3.465z" style="fill:#f4f4f4;stroke-width:0"/></svg>