<svg id="MaaS360Security" xmlns="http://www.w3.org/2000/svg" xmlns:xlink="http://www.w3.org/1999/xlink" viewBox="0 0 32 32"><defs><linearGradient id="nf65beznka" x1="15.981" y1="29.977" x2="27.573" y2="23.284" gradientTransform="rotate(30.253 21.777 26.63)" gradientUnits="userSpaceOnUse"><stop offset=".2" stop-opacity="0"/><stop offset=".9"/></linearGradient><linearGradient id="uasuzo3uub" x1="-425.726" y1="2557.683" x2="-414.133" y2="2550.99" gradientTransform="rotate(-149.747 -549.363 1221.717)" xlink:href="#nf65beznka"/><linearGradient id="brk1rwoe6d" x1="1024.432" y1="1075" x2="1056.432" y2="1043" gradientTransform="matrix(1 0 0 -1 -1024.432 1075)" gradientUnits="userSpaceOnUse"><stop offset=".2" stop-color="#a56eff"/><stop offset=".8" stop-color="#82cfff"/></linearGradient><mask id="rog4vm4sec" x="0" y="0" width="32" height="32" maskUnits="userSpaceOnUse"><path d="M26.801 22.542 16 28.843 5 22.426V12H3v11c0 .355.189.685.496.864l12 7a.999.999 0 0 0 1.008 0l10.297-6.007v-2.315z" style="fill:#fff;stroke-width:0"/><path transform="rotate(-30.253 21.776 26.63)" style="fill:url(#nf65beznka);stroke-width:0" d="M15.089 25.53h13.376v2.2H15.089z"/><path d="m28.504 8.136-12-7a.999.999 0 0 0-1.008 0L5.199 7.143v2.315L16 3.157l11 6.417V20h2V9c0-.355-.189-.685-.496-.864z" style="fill:#fff;stroke-width:0"/><path transform="rotate(-30.253 10.223 5.37)" style="fill:url(#uasuzo3uub);stroke-width:0" d="M3.535 4.27h13.376v2.2H3.535z"/></mask></defs><path style="fill:none;stroke-width:0" d="M0 0h32v32H0z"/><path d="m16 10.236 4 2V18c0 2.206-1.794 4-4 4s-4-1.794-4-4v-5.764l4-2M16 8l-6 3v7c0 3.31 2.692 6 6 6s6-2.69 6-6v-7l-6-3z" style="fill:#f4f4f4;stroke-width:0"/><g style="mask:url(#rog4vm4sec)"><path transform="rotate(-90 16 16)" style="fill:url(#brk1rwoe6d);stroke-width:0" d="M0 0h32v32H0z"/></g></svg>