<svg id="MaaS360Tasks" xmlns="http://www.w3.org/2000/svg" xmlns:xlink="http://www.w3.org/1999/xlink" viewBox="0 0 32 32"><defs><linearGradient id="o7zndcfyda" x1="15.981" y1="29.977" x2="27.573" y2="23.284" gradientTransform="rotate(30.253 21.777 26.63)" gradientUnits="userSpaceOnUse"><stop offset=".2" stop-opacity="0"/><stop offset=".9"/></linearGradient><linearGradient id="t3liolknjb" x1="-425.726" y1="2557.683" x2="-414.133" y2="2550.99" gradientTransform="rotate(-149.747 -549.363 1221.717)" xlink:href="#o7zndcfyda"/><linearGradient id="5th3pg0d0d" x1="1024.432" y1="1075" x2="1056.432" y2="1043" gradientTransform="matrix(1 0 0 -1 -1024.432 1075)" gradientUnits="userSpaceOnUse"><stop offset=".2" stop-color="#a56eff"/><stop offset=".8" stop-color="#82cfff"/></linearGradient><mask id="ev385xbqzc" x="0" y="0" width="32" height="32" maskUnits="userSpaceOnUse"><path d="M26.801 22.542 16 28.843 5 22.426V12H3v11c0 .355.189.685.496.864l12 7a.999.999 0 0 0 1.008 0l10.297-6.007v-2.315z" style="fill:#fff;stroke-width:0"/><path transform="rotate(-30.253 21.776 26.63)" style="fill:url(#o7zndcfyda);stroke-width:0" d="M15.089 25.53h13.376v2.2H15.089z"/><path d="m28.504 8.136-12-7a.999.999 0 0 0-1.008 0L5.199 7.143v2.315L16 3.157l11 6.417V20h2V9c0-.355-.189-.685-.496-.864z" style="fill:#fff;stroke-width:0"/><path transform="rotate(-30.253 10.223 5.37)" style="fill:url(#t3liolknjb);stroke-width:0" d="M3.535 4.27h13.376v2.2H3.535z"/></mask></defs><path style="fill:none;stroke-width:0" d="M0 0h32v32H0z"/><path style="fill:#f4f4f4;stroke-width:0" d="m14 18.18-3.59-3.59L9 16l5 5 9-9-1.41-1.419L14 18.18z"/><g style="mask:url(#ev385xbqzc)"><path transform="rotate(-90 16 16)" style="fill:url(#5th3pg0d0d);stroke-width:0" d="M0 0h32v32H0z"/></g></svg>