<svg id="MacAtIBM" xmlns="http://www.w3.org/2000/svg" viewBox="0 0 32 32"><defs><linearGradient id="4qnntpdp0a" x1="1061" y1="-6491" x2="1067" y2="-6491" gradientTransform="translate(-1041 6512)" gradientUnits="userSpaceOnUse"><stop offset="0" stop-opacity="0"/><stop offset=".8"/></linearGradient><linearGradient id="2ae44rx9dc" x1="0" y1="32" x2="32" y2="0" gradientUnits="userSpaceOnUse"><stop offset=".1" stop-color="#3ddbd9"/><stop offset=".9" stop-color="#4589ff"/></linearGradient><mask id="asoy4gyw8b" x="0" y="0" width="32" height="32" maskUnits="userSpaceOnUse"><path d="M11 22H5c-1.103 0-2-.897-2-2V5c0-1.103.897-2 2-2h22c1.103 0 2 .897 2 2v15c0 2-2 2-2 2h-6v-2h6V5H5v15h6v2z" style="fill:#fff;stroke-width:0"/><path transform="rotate(-180 23 21)" style="fill:url(#4qnntpdp0a);stroke-width:0" d="M20 19h6v4h-6z"/></mask></defs><g style="mask:url(#asoy4gyw8b)"><path style="fill:url(#2ae44rx9dc);stroke-width:0" d="M0 0h32v32H0z"/></g><path style="fill:#f4f4f4;stroke-width:0" d="M17 27.17V16h-2v11.17l-2.59-2.58L11 26l5 5 5-5-1.41-1.41L17 27.17z"/></svg>