<svg xmlns="http://www.w3.org/2000/svg" viewBox="0 0 32 32"><defs><linearGradient id="e36qln2x2a" x1="74.5" y1="-24.5" x2="84.5" y2="-24.5" gradientTransform="translate(-66.5 49.5)" gradientUnits="userSpaceOnUse"><stop offset=".001" stop-opacity="0"/><stop offset=".83"/></linearGradient><linearGradient id="kr04cpe1tc" y1="32" x2="32" gradientUnits="userSpaceOnUse"><stop offset=".1" stop-color="#be95ff"/><stop offset=".9" stop-color="#4589ff"/></linearGradient><mask id="ugmg4hsvdb" x="0" y="0" width="32" height="32" maskUnits="userSpaceOnUse"><path d="M17 24H4V10h24v8h2v-8a2 2 0 0 0-2-2h-6V4a2 2 0 0 0-2-2h-8a2 2 0 0 0-2 2v4H4a2 2 0 0 0-2 2v14a2 2 0 0 0 2 2h13zM12 4h8v4h-8z" fill="#fff"/><path fill="url(#e36qln2x2a)" d="M8 23h10v4H8z" data-name="Gradients (black)"/></mask></defs><g data-name="Layer 2"><g data-name="Dark theme icons"><g mask="url(#ugmg4hsvdb)"><path fill="url(#kr04cpe1tc)" d="M0 0h32v32H0z"/></g><path fill="#f4f4f4" d="M20 26h7.172l-2.586 2.586L26 30l5-5-5-5-1.414 1.414L27.172 24H20v2zm2-8h-7.172l2.586-2.586L16 14l-5 5 5 5 1.414-1.414L14.828 20H22v-2z"/></g></g></svg>