<svg xmlns="http://www.w3.org/2000/svg" viewBox="0 0 32 32"><defs><linearGradient id="a2ofa5tlaa" x1="74.5" y1="-24.5" x2="84.5" y2="-24.5" gradientTransform="translate(-66.5 49.5)" gradientUnits="userSpaceOnUse"><stop offset=".001" stop-opacity="0"/><stop offset=".83"/></linearGradient><linearGradient id="x5j9refb8c" y1="32" x2="32" gradientUnits="userSpaceOnUse"><stop offset=".1" stop-color="#be95ff"/><stop offset=".9" stop-color="#4589ff"/></linearGradient><mask id="0d1swy5jvb" x="0" y="0" width="32" height="32" maskUnits="userSpaceOnUse"><path d="M17 24H4V10h24v5h2v-5a2 2 0 0 0-2-2h-6V4a2 2 0 0 0-2-2h-8a2 2 0 0 0-2 2v4H4a2 2 0 0 0-2 2v14a2 2 0 0 0 2 2h13zM12 4h8v4h-8z" fill="#fff"/><path fill="url(#a2ofa5tlaa)" d="M8 23h10v4H8z" data-name="Gradients (black)"/></mask></defs><g data-name="Layer 2"><g data-name="Dark theme icons"><g mask="url(#0d1swy5jvb)"><path fill="url(#x5j9refb8c)" d="M0 0h32v32H0z"/></g><path fill="#f4f4f4" d="M16 17h2v2h-2zm5 0h9v2h-9zm-5 5h2v2h-2zm5 0h9v2h-9zm-5 5h2v2h-2zm5 0h9v2h-9z"/></g></g></svg>