<svg xmlns="http://www.w3.org/2000/svg" xmlns:xlink="http://www.w3.org/1999/xlink" viewBox="0 0 32 32"><defs><linearGradient id="l7r4g3xb3a" x1="356" y1="3037" x2="365" y2="3037" gradientTransform="translate(-351.999 -3026)" gradientUnits="userSpaceOnUse"><stop offset=".2"/><stop offset="1" stop-opacity="0"/></linearGradient><linearGradient id="u768mrqgvc" x1="-17" y1="3037" x2="-9" y2="3037" gradientTransform="matrix(1 0 0 -1 36 3048)" xlink:href="#l7r4g3xb3a"/><linearGradient id="5hah3yccfb" x1="-1329.5" y1="1691.999" x2="-1322.5" y2="1691.999" gradientTransform="translate(1336.501 -1668.499)" gradientUnits="userSpaceOnUse"><stop offset=".1"/><stop offset="1" stop-opacity="0"/></linearGradient><linearGradient id="p7pw3arm9d" x1="-1329.5" y1="1680.999" x2="-1322.5" y2="1680.999" gradientTransform="translate(1347.501 -1657.499)" xlink:href="#5hah3yccfb"/><linearGradient id="2cs2ftxywf" x1="-648" y1="32" x2="-680" gradientTransform="matrix(1 0 0 -1 680 32)" gradientUnits="userSpaceOnUse"><stop offset=".1" stop-color="#be95ff"/><stop offset=".9" stop-color="#4589ff"/></linearGradient><mask id="6vqmsmco0e" x="0" y="0" width="32" height="32" maskUnits="userSpaceOnUse"><path d="M8 9a4 4 0 1 1 4-4 4 4 0 0 1-4 4zm0-6a2 2 0 1 0 2 2 2 2 0 0 0-2-2zm16 6a4 4 0 1 1 4-4 4 4 0 0 1-4 4zm0-6a2 2 0 1 0 2 2 2 2 0 0 0-2-2zM10 28H6v-9H4v-6a1 1 0 0 1 1-1h7v-2H5a3 3 0 0 0-3 3v6a2 2 0 0 0 2 2v7a2 2 0 0 0 2 2h4a2 2 0 0 0 2-2v-7h-2zm17-18h-7v2h7a1 1 0 0 1 1 1v6h-2v9h-4v-7h-2v7a2 2 0 0 0 2 2h4a2 2 0 0 0 2-2v-7a2 2 0 0 0 2-2v-6a3 3 0 0 0-3-3z" fill="#fff"/><path transform="rotate(180 8.5 11)" fill="url(#l7r4g3xb3a)" d="M4 9h9v4H4z"/><path fill="url(#u768mrqgvc)" d="M19 9h8v4h-8z"/><path transform="rotate(90 10.5 23.5)" fill="url(#5hah3yccfb)" d="M7 21h7v5H7z"/><path transform="rotate(90 21.5 23.5)" fill="url(#p7pw3arm9d)" d="M18 21h7v5h-7z"/></mask></defs><g data-name="Layer 2"><g data-name="Dark theme icons"><g mask="url(#6vqmsmco0e)"><path transform="rotate(180 16 16)" fill="url(#2cs2ftxywf)" d="M0 0h32v32H0z"/></g><circle cx="16" cy="15" r="2" fill="#f4f4f4"/><path d="M23.234 14.564a8 8 0 0 0-14.468 0L8.559 15l.207.436a8 8 0 0 0 14.468 0l.207-.436zM16 19a4 4 0 1 1 4-4 4 4 0 0 1-4 4z" fill="#f4f4f4"/></g></g></svg>