<svg xmlns="http://www.w3.org/2000/svg" xmlns:xlink="http://www.w3.org/1999/xlink" viewBox="0 0 32 32"><defs><linearGradient id="9i6ekgrt4a" x1="8" y1="26.5" x2="17" y2="26.5" gradientUnits="userSpaceOnUse"><stop offset="0" stop-opacity="0"/><stop offset=".9"/></linearGradient><linearGradient id="vqq9i3h9rb" x1="202" y1="3033.5" x2="211" y2="3033.5" gradientTransform="translate(-189 -3028)" xlink:href="#9i6ekgrt4a"/><linearGradient id="16m133nkvd" y1="32" x2="32" gradientUnits="userSpaceOnUse"><stop offset=".1" stop-color="#be95ff"/><stop offset=".9" stop-color="#4589ff"/></linearGradient><mask id="38xj9hrrtc" x="0" y="0" width="32" height="32" maskUnits="userSpaceOnUse"><path d="M28 12h-2v-1a5.006 5.006 0 0 0-5-5h-7V4h7a7.008 7.008 0 0 1 7 7zM16 28h-5a7.008 7.008 0 0 1-7-7v-1h2v1a5.006 5.006 0 0 0 5 5h5z" fill="#fff"/><path fill="url(#9i6ekgrt4a)" d="M8 24h9v5H8z"/><path transform="rotate(180 17.5 5.5)" fill="url(#vqq9i3h9rb)" d="M13 3h9v5h-9z"/></mask></defs><g data-name="Layer 2"><g data-name="Dark theme icons"><g mask="url(#38xj9hrrtc)"><path fill="url(#16m133nkvd)" d="M0 0h32v32H0z"/></g><path d="M20 31a1 1 0 0 1-.961-.725L17.246 24H14v-2h4a1 1 0 0 1 .961.725L20 26.36l3.039-10.635a1 1 0 0 1 1.922 0L26.754 22H30v2h-4a1 1 0 0 1-.961-.725L24 19.64l-3.039 10.635A1 1 0 0 1 20 31zM2 14v2h2v-2a1 1 0 0 1 1-1h6a1 1 0 0 1 1 1v2h2v-2a3 3 0 0 0-3-3H5a3 3 0 0 0-3 3zM8 2a4 4 0 1 0 4 4 4 4 0 0 0-4-4zm0 6a2 2 0 1 1 2-2 2 2 0 0 1-2 2z" fill="#f4f4f4"/></g></g></svg>