<svg id="MaximoRenewables" xmlns="http://www.w3.org/2000/svg" viewBox="0 0 32 32"><defs><linearGradient id="sz9533qd6a" x1="5" y1="16.507" x2="27" y2="16.507" gradientUnits="userSpaceOnUse"><stop offset="0" stop-opacity="0"/><stop offset=".25"/><stop offset=".75"/><stop offset="1" stop-opacity="0"/></linearGradient><linearGradient id="ruaniy1mwc" x1="0" y1="32" x2="32" y2="0" gradientUnits="userSpaceOnUse"><stop offset=".1" stop-color="#34de82"/><stop offset=".9" stop-color="#009f9a"/></linearGradient><mask id="8sej2935vb" x="0" y="0" width="32" height="32" maskUnits="userSpaceOnUse"><path d="M12 5h11.333C26.463 5 29 7.462 29 10.5S26.463 16 23.333 16h-1.889M20 27H8.667C5.537 27 3 24.538 3 21.5S5.537 16 8.667 16h1.889" style="fill:none;stroke:#fff;stroke-miterlimit:10;stroke-width:2px"/><path style="fill:url(#sz9533qd6a)" d="M5 10.013h22V23H5z"/></mask></defs><path style="fill:none" d="M0 0h32v32H0z"/><g style="mask:url(#8sej2935vb)"><path style="fill:url(#ruaniy1mwc)" d="M0 0h32v32H0z"/></g><path d="M6 9C3.794 9 2 7.206 2 5s1.794-4 4-4 4 1.794 4 4-1.794 4-4 4zm0-6c-1.103 0-2 .897-2 2s.897 2 2 2 2-.897 2-2-.897-2-2-2zM24 25h2v5h-2zM28 23h2v7h-2zM18.995 15.013h-4.267l3.174-5.5-1.732-1-4.907 8.5h6l-3.176 5.5 1.732 1 4.909-8.5h-1.733z" style="fill:#f3f3f3"/></svg>