<svg xmlns="http://www.w3.org/2000/svg" viewBox="0 0 32 32"><defs><linearGradient id="skq1fjiawa" x1="10" y1="5" x2="27" y2="5" gradientUnits="userSpaceOnUse"><stop offset=".41" stop-opacity="0"/><stop offset=".85"/></linearGradient><linearGradient id="8zgqbfk3db" x1="13.565" y1="18.98" x2="27.578" y2="10.89" gradientTransform="rotate(34.709 20.572 14.935)" gradientUnits="userSpaceOnUse"><stop offset=".3"/><stop offset=".8" stop-opacity="0"/></linearGradient><linearGradient id="oymf6lccqd" y1="32" x2="32" gradientUnits="userSpaceOnUse"><stop offset=".1" stop-color="#be95ff"/><stop offset=".9" stop-color="#4589ff"/></linearGradient><mask id="q7o3ulv1jc" x="0" y="0" width="32" height="32" maskUnits="userSpaceOnUse"><path fill="#fff" d="m16.439 16.294-1.097 3.193 13.144-9.104-2.346-.808-9.701 6.719zM25.028 6 26.5 4h-16l2.721 2h11.807z"/><path fill="url(#skq1fjiawa)" d="M10 3h17v4H10z"/><path transform="rotate(-34.709 20.571 14.934)" fill="url(#8zgqbfk3db)" d="M12.577 13.435h15.989v3H12.577z"/><path d="M10.5 6A6.5 6.5 0 1 1 4 12.5 6.508 6.508 0 0 1 10.5 6m0-2a8.5 8.5 0 1 0 8.5 8.5A8.5 8.5 0 0 0 10.5 4zm16 2A1.5 1.5 0 1 1 25 7.5 1.5 1.5 0 0 1 26.5 6m0-2A3.5 3.5 0 1 0 30 7.5 3.5 3.5 0 0 0 26.5 4z" fill="#fff"/><path d="M10.5 11A1.5 1.5 0 1 1 9 12.5a1.5 1.5 0 0 1 1.5-1.5m0-2a3.5 3.5 0 1 0 3.5 3.5A3.5 3.5 0 0 0 10.5 9z" fill="#fff"/></mask></defs><g data-name="Layer 2"><g data-name="Dark theme icons"><g mask="url(#q7o3ulv1jc)"><path fill="url(#oymf6lccqd)" d="M0 0h32v32H0z"/></g><path d="M28 26a1.979 1.979 0 0 0-.849.2l-2.338-1.619a3.195 3.195 0 0 0 0-2.154l2.338-1.627A1.979 1.979 0 0 0 28 21a2 2 0 1 0-2-2c0 .054.012.1.016.157l-2.342 1.622A3.464 3.464 0 0 0 21.5 20a3.5 3.5 0 0 0 0 7 3.464 3.464 0 0 0 2.174-.779l2.342 1.622c0 .053-.016.1-.016.157a2 2 0 1 0 2-2zm-6.5-1a1.5 1.5 0 1 1 1.5-1.5 1.5 1.5 0 0 1-1.5 1.5z" fill="#f4f4f4"/></g></g></svg>