<svg id="testdana" xmlns="http://www.w3.org/2000/svg" viewBox="0 0 32 32"><defs><linearGradient id="0mrj4z1xta" x1="89.74" y1="-42.345" x2="78.74" y2="-42.345" gradientTransform="matrix(0 .69 -1 0 -18.074 -48.843)" gradientUnits="userSpaceOnUse"><stop offset=".2"/><stop offset=".9" stop-opacity="0"/></linearGradient><linearGradient id="bnvjdsk8ec" x1="0" y1="32" x2="32" y2="0" gradientUnits="userSpaceOnUse"><stop offset=".1" stop-color="#be95ff"/><stop offset=".9" stop-color="#4589ff"/></linearGradient><mask id="ekweavs08b" x="2" y="2.002" width="26.541" height="26" maskUnits="userSpaceOnUse"><path d="M11 12.002v3h3v2h-3v3H9v-3H6v-2h3v-3h2zm4.832-9.748 11.277 7.622L26 11.54 15 4.102 4 11.537v14.465h9v2H4a2 2 0 0 1-2-2V11.537c0-.669.334-1.293.891-1.664l11.277-7.619a1.5 1.5 0 0 1 1.664 0z" style="fill:#fff"/><path d="M11 12.002v3h3v2h-3v3H9v-3H6v-2h3v-3h2zm4.832-9.748 11.277 7.622L26 11.54 15 4.102 4 11.537v14.465h9v2H4a2 2 0 0 1-2-2V11.537c0-.669.334-1.293.891-1.664l11.277-7.619a1.5 1.5 0 0 1 1.664 0z" style="fill:#fff"/><path transform="rotate(-57 24.27 9.259)" style="fill:url(#0mrj4z1xta)" d="M22.271 5.465h4v7.587h-4z"/></mask></defs><path style="fill:none" d="M0 0h32v32H0z"/><g style="mask:url(#ekweavs08b)"><path style="fill:url(#bnvjdsk8ec)" d="M0 0h32v32H0z"/></g><circle cx="19" cy="16.002" r="2" style="fill:#f4f4f4"/><circle cx="27" cy="16.002" r="2" style="fill:#f4f4f4"/><path d="M28.001 19.002h-3.535l-1.465 2.197-1.465-2.197h-3.535a2.002 2.002 0 0 0-1.999 1.999v4.001H18v5h2v-5h-1.998v-4h2.464l2.535 3.803 2.535-3.803H28v4h2v-4.001a2.002 2.002 0 0 0-1.999-1.999z" style="fill:#f4f4f4"/><path style="fill:#f4f4f4" d="M26 25.002h2v5h-2z"/></svg>