<svg id="MerlinMain" xmlns="http://www.w3.org/2000/svg" xmlns:xlink="http://www.w3.org/1999/xlink" viewBox="0 0 32 32"><defs><linearGradient id="464fc8iq3a" x1="1917.219" y1="1346.796" x2="1930.219" y2="1346.796" gradientTransform="matrix(1.014 0 0 .41 -1940.954 -526.05)" gradientUnits="userSpaceOnUse"><stop offset=".1" stop-opacity="0"/><stop offset=".9"/></linearGradient><linearGradient id="wpkvxv2nqb" x1="896.738" y1="-6592.601" x2="909.738" y2="-6592.601" gradientTransform="matrix(.792 0 0 .302 -704.914 1993.143)" xlink:href="#464fc8iq3a"/><linearGradient id="c562unm31d" x1="-980" y1="32" x2="-948" gradientTransform="matrix(1 0 0 -1 980 32)" gradientUnits="userSpaceOnUse"><stop offset=".1" stop-color="#3ddbd9"/><stop offset=".9" stop-color="#4589ff"/></linearGradient><mask id="lup07x7fwc" x="0" y="0" width="32" height="32" maskUnits="userSpaceOnUse"><path d="M29 18h-2V9.574L16 3.158 6.5 8.7l-1-1.73 10-5.834a1 1 0 0 1 1.008 0l12 7A1 1 0 0 1 29 9zM15.5 30.864l-12-7A1 1 0 0 1 3 23V12h2v10.426l11.5 6.71zM5 9a1 1 0 1 1-1-1 1 1 0 0 1 1 1z" style="fill:#fff"/><path transform="rotate(30 10.616 26.461)" style="fill:url(#464fc8iq3a)" d="M4.022 24.41H17.21v4.102H4.022z"/><path transform="rotate(150 10.327 5.43)" style="fill:url(#wpkvxv2nqb)" d="M5.18 3.922h10.294v3.015H5.18z"/></mask></defs><g style="mask:url(#lup07x7fwc)"><path transform="rotate(-180 16 16)" style="fill:url(#c562unm31d)" d="M0 0h32v32H0z"/></g><path transform="rotate(-45 17.5 17.5)" style="fill:#f4f4f4" d="M16.5 15.379h2v4.243h-2z"/><path transform="rotate(-45 24.5 24.5)" style="fill:#f4f4f4" d="M23.5 18.136h2v12.728h-2z"/><path d="M20 13a1 1 0 1 1-1-1 1 1 0 0 1 1 1zM14 19a1 1 0 1 1-1-1 1 1 0 0 1 1 1zM14 13a1 1 0 1 1-1-1 1 1 0 0 1 1 1z" style="fill:#f4f4f4"/></svg>