<svg xmlns="http://www.w3.org/2000/svg" viewBox="0 0 32 32"><defs><linearGradient id="aj18fhgc5a" x1="17" y1="27.5" x2="31" y2="27.5" gradientUnits="userSpaceOnUse"><stop offset="0" stop-opacity="0"/><stop offset=".9"/></linearGradient><linearGradient id="6p4yuyxijc" y1="32" x2="32" gradientUnits="userSpaceOnUse"><stop offset=".1" stop-color="#3ddbd9"/><stop offset=".9" stop-color="#4589ff"/></linearGradient><mask id="jwgnmxnoub" x="0" y="0" width="32" height="32" maskUnits="userSpaceOnUse"><path d="M18 23h-2v-2a3 3 0 0 0-3-3H9a3 3 0 0 0-3 3v2H4v-2a5.006 5.006 0 0 1 5-5h4a5.006 5.006 0 0 1 5 5zM11 6a3 3 0 1 1-3 3 3 3 0 0 1 3-3m0-2a5 5 0 1 0 5 5 5 5 0 0 0-5-5z" fill="#fff"/><path d="M2 24h18v3H2z"/><path fill="#fff" d="M2 26h28v2H2z"/><path fill="url(#aj18fhgc5a)" d="M17 25h14v5H17z"/></mask></defs><g data-name="Layer 2"><g data-name="Dark theme"><g mask="url(#jwgnmxnoub)"><path fill="url(#6p4yuyxijc)" d="M0 0h32v32H0z"/></g><path d="M31.966 11.741a1 1 0 0 0-1.225-.707l-3.086.826L24 7l-1 .268 1.458 5.448-2.766.74L20 11.206l-1 .268.934 3.488a1 1 0 0 0 .965.742.972.972 0 0 0 .259-.035l10.1-2.7a1 1 0 0 0 .708-1.228z" fill="#f4f4f4"/></g></g></svg>