<svg xmlns="http://www.w3.org/2000/svg" viewBox="0 0 32 32"><defs><linearGradient id="o7esnibtza" x1="8" y1="9.5" x2="25" y2="9.5" gradientUnits="userSpaceOnUse"><stop offset="0" stop-opacity="0"/><stop offset=".5"/></linearGradient><linearGradient id="26u9ywremc" y1="32" x2="32" gradientUnits="userSpaceOnUse"><stop offset=".1" stop-color="#3ddbd9"/><stop offset=".9" stop-color="#4589ff"/></linearGradient><mask id="0faqn48rab" x="0" y="0" width="32" height="32" maskUnits="userSpaceOnUse"><path d="M19 4H9a5.006 5.006 0 0 0-5 5v12a4.99 4.99 0 0 0 3.582 4.77L5.769 30h2.176l1.714-4h8.682l1.714 4h2.176l-1.813-4.23A4.99 4.99 0 0 0 24 21V9a5.006 5.006 0 0 0-5-5zM9 6h10a3 3 0 0 1 2.816 2H6.184A3 3 0 0 1 9 6zm13 14h-3v2h2.816A3 3 0 0 1 19 24H9a3 3 0 0 1-2.816-2H9v-2H6v-2h16zm0-4H6v-6h16z" fill="#fff"/><path fill="url(#o7esnibtza)" d="M8 3h17v13H8z"/></mask></defs><g data-name="Layer 2"><g data-name="Dark theme"><g mask="url(#0faqn48rab)"><path fill="url(#26u9ywremc)" d="M0 0h32v32H0z"/></g><path d="M24 1a6 6 0 1 0 6 6 6.006 6.006 0 0 0-6-6zm1.5 9.088-2.625-2.622V3h2.25v3.534L27.089 8.5z" fill="#f4f4f4"/></g></g></svg>