<svg xmlns="http://www.w3.org/2000/svg" viewBox="0 0 32 32"><defs><linearGradient id="090tlksyva" x1="21" y1="20" x2="21" y2="6" gradientUnits="userSpaceOnUse"><stop offset=".4"/><stop offset=".9" stop-opacity="0"/></linearGradient><linearGradient id="wy9udb8rqc" y1="32" x2="32" gradientUnits="userSpaceOnUse"><stop offset=".1" stop-color="#3ddbd9"/><stop offset=".9" stop-color="#4589ff"/></linearGradient><mask id="5f684drbrb" x="0" y="0" width="32" height="32" maskUnits="userSpaceOnUse"><circle cx="7" cy="26" r="2" fill="#f4f4f4"/><path d="M10 21V6h4v12h2V6h4v12h2V6h4v12h2V6.005a2.005 2.005 0 0 0-2-2H4.005a2.005 2.005 0 0 0-2.005 2V20a2.005 2.005 0 0 0 2.005 2h6zm-6-1V6h4v14z" fill="#f4f4f4"/><path fill="url(#090tlksyva)" d="M13 6h16v14H13z"/></mask></defs><g data-name="Layer 2"><g data-name="Dark theme"><g mask="url(#5f684drbrb)"><path fill="url(#wy9udb8rqc)" d="M0 0h32v32H0z"/></g><path d="M14 26v-7h14v7zm5-11h4v2h-4zm9 2h-3v-2a2 2 0 0 0-2-2h-4a2 2 0 0 0-2 2v2h-3a2 2 0 0 0-2 2v7a2 2 0 0 0 2 2h14a2 2 0 0 0 2-2v-7a2 2 0 0 0-2-2z" fill="#f4f4f4" fill-rule="evenodd"/></g></g></svg>