<svg id="ModelBuilderforVision" xmlns="http://www.w3.org/2000/svg" viewBox="0 0 32 32"><defs><linearGradient id="j7hm18h3ia" x1="-843.392" y1="-3270.971" x2="-839.569" y2="-3273.179" gradientTransform="matrix(.75555 .49998 -.43626 .86606 -774.19 3282.51)" gradientUnits="userSpaceOnUse"><stop offset=".2"/><stop offset="1" stop-opacity="0"/></linearGradient><linearGradient id="2e632x2jtc" x1="0" y1="32" x2="32" y2="0" gradientUnits="userSpaceOnUse"><stop offset=".1" stop-color="#3ddad8"/><stop offset=".9" stop-color="#4588ff"/></linearGradient><mask id="85m8s8fj4b" x="0" y="0" width="32" height="32" maskUnits="userSpaceOnUse"><path d="m26.488 8.136-12-7a.999.999 0 0 0-1.008 0l-12 7A1 1 0 0 0 .984 9v14c0 .355.189.685.496.864l12 7a.999.999 0 0 0 1.008 0l12-7a1 1 0 0 0 .496-.864V9c0-.355-.189-.685-.496-.864zM13.984 3.158 24 9l-10.016 5.842L3.969 9l10.015-5.842zm-11 7.583 10 5.833v11.685l-10-5.833V10.741zm12 17.518V16.574l10-5.833v11.685l-10 5.833z" style="fill:#fff"/><path d="M29 29h-9l-3-5 2-8 1.615-1.158L23 14h6v15z"/><path transform="rotate(146.728 17.399 28.07)" style="fill:url(#j7hm18h3ia)" d="M15.472 26.521h3.852v3.098h-3.852z"/></mask></defs><g style="mask:url(#85m8s8fj4b)"><path style="fill:url(#2e632x2jtc)" d="M0 0h32v32H0z"/></g><circle cx="24.441" cy="22" r="2" style="fill:#f4f4f4"/><path d="M31.675 21.564c-1.324-2.782-4.164-4.579-7.234-4.579s-5.91 1.797-7.234 4.579l-.208.436.208.436c1.324 2.782 4.164 4.579 7.234 4.579s5.91-1.797 7.234-4.579l.208-.436-.208-.436zM24.441 26c-2.206 0-4-1.794-4-4s1.794-4 4-4 4 1.794 4 4-1.794 4-4 4z" style="fill:#f4f4f4"/></svg>