<svg data-name="Build icon here" xmlns="http://www.w3.org/2000/svg" viewBox="0 0 128 128"><path d="M8.488 75.859v-1.2c0-2.76 1.68-4.8 5.282-4.8s5.277 2.039 5.277 4.8v1.2c0 2.76-1.68 4.8-5.277 4.8s-5.282-2.04-5.282-4.8zM27.211 80V48.5h8.879v5.34h.359c1.141-3.3 3.781-6.061 8.762-6.061 6.418 0 9.84 4.561 9.84 12.481V80h-8.883V60.98c0-4.019-1.137-6-4.379-6-2.879 0-5.7 1.5-5.7 4.622V80zm33.777-15.779c0-9.959 5.282-16.44 14.758-16.44 10.442 0 14.641 7.561 14.641 16.08V66.5H70.168v.48c0 4.141 2.219 6.78 6.961 6.78 3.719 0 5.758-1.74 7.738-3.78l4.442 5.52c-2.821 3.24-7.442 5.221-13.2 5.221-9.66 0-15.121-6.421-15.121-16.5zm9.18-3.42v.48h11.039v-.541c0-3.84-1.738-6.42-5.281-6.42s-5.758 2.58-5.758 6.48zM107.727 80c-6.122 0-9.36-3.18-9.36-9.18V55.4h-4.441v-6.9h2.222c2.4 0 3.118-1.2 3.118-3.361v-5.157h7.98V48.5h6.238v6.9h-6.238v17.7h5.762V80z" fill="#f4f4f4"/><path fill="none" d="M0 0h128v128H0z"/></svg>