<svg id="Build_icon_here" data-name="Build icon here" xmlns="http://www.w3.org/2000/svg" viewBox="0 0 32 32"><defs><linearGradient id="190nldg0sa" x1="-7880.498" y1="968.766" x2="-7875.034" y2="978.23" gradientTransform="rotate(-90 -4412 -3460.498)" gradientUnits="userSpaceOnUse"><stop offset=".16" stop-opacity="0"/><stop offset=".6"/></linearGradient><linearGradient id="9fspa86l2c" y1="32" x2="32" gradientUnits="userSpaceOnUse"><stop offset=".1" stop-color="#3ddbd9"/><stop offset=".9" stop-color="#4589ff"/></linearGradient><mask id="qmc6kidkzb" x="0" y="0" width="32" height="32" maskUnits="userSpaceOnUse"><path d="M24 13a4 4 0 0 0 4-4h-2a2 2 0 0 1-2 2h-3V8a2 2 0 0 1 2-2h3V4h-3a4 4 0 0 0-4 4v3h-6V8a4 4 0 0 0-4-4H8a4 4 0 0 0-4 4v1a4 4 0 0 0 4 4h3v6H8a4 4 0 0 0-4 4v1a4 4 0 0 0 4 4h1a4 4 0 0 0 4-4v-3h6v3a4 4 0 0 0 4 4h1a4 4 0 0 0 4-4v-1a4 4 0 0 0-4-4h-3v-6zM11 24a2 2 0 0 1-2 2H8a2 2 0 0 1-2-2v-1a2 2 0 0 1 2-2h3zm0-13H8a2 2 0 0 1-2-2V8a2 2 0 0 1 2-2h1a2 2 0 0 1 2 2zm8 8h-6v-6h6zm5 2a2 2 0 0 1 2 2v1a2 2 0 0 1-2 2h-1a2 2 0 0 1-2-2v-3z" style="fill:#f4f4f4"/><path style="fill:url(#190nldg0sa)" d="M27 3v4l-6 4h-2l-2-8h10z"/></mask></defs><g style="mask:url(#qmc6kidkzb)"><path style="fill:url(#9fspa86l2c)" d="M0 0h32v32H0z"/></g><circle cx="27.5" cy="3.5" r="3.5" style="fill:#f4f4f4"/></svg>