<svg id="Omegamon" xmlns="http://www.w3.org/2000/svg" viewBox="0 0 32 32"><defs><linearGradient id="9yprijgyqa" x1="15.5" y1="9.5" x2="21.5" y2="9.5" gradientTransform="translate(2.5 -1.5)" gradientUnits="userSpaceOnUse"><stop offset=".1" stop-opacity="0"/><stop offset=".8"/></linearGradient><linearGradient id="huihcdsx8b" x1="24.5" y1="1.5" x2="31.5" y2="1.5" gradientTransform="translate(1 16)" gradientUnits="userSpaceOnUse"><stop offset=".05" stop-opacity="0"/><stop offset=".8"/></linearGradient><linearGradient id="848mnxzbld" x1="0" y1="32" x2="32" y2="0" gradientUnits="userSpaceOnUse"><stop offset=".1" stop-color="#3ddbd9"/><stop offset=".9" stop-color="#4589ff"/></linearGradient><mask id="7dblu79pdc" x="0" y="0" width="32" height="32" maskUnits="userSpaceOnUse"><path d="M6 20H4c-1.103 0-2-.897-2-2V5c0-1.103.897-2 2-2h16c1.103 0 2 .897 2 2v6h-2V5H4v13h2v2z" style="fill:#fff"/><path transform="rotate(90 21 8)" style="fill:url(#9yprijgyqa)" d="M18 6h6v4h-6z"/><path d="M14.013 29H10c-1.103 0-2-.897-2-2V12c0-1.103.897-2 2-2h18c1.103 0 2 .897 2 2v8h-2v-8H10v15h4.013v2z" style="fill:#fff"/><path transform="rotate(90 29 17.5)" style="fill:url(#huihcdsx8b)" d="M25.5 15.5h7v4h-7z"/></mask></defs><path style="fill:none" d="M0 0h32v32H0z"/><g style="fill:none;mask:url(#7dblu79pdc)"><path style="fill:url(#848mnxzbld)" d="M0 0h32v32H0z"/></g><path d="M20 30a.998.998 0 0 1-.948-.684L17.28 24h-3.279v-2h4c.431 0 .812.275.948.684l1.052 3.154 3.052-9.154a1 1 0 0 1 1.896 0L26.721 22H30v2h-4a.998.998 0 0 1-.948-.684L24 20.162l-3.052 9.154A1 1 0 0 1 20 30z" style="fill:#f4f4f4"/></svg>