<svg id="Onsite" xmlns="http://www.w3.org/2000/svg" viewBox="0 0 32 32"><defs><linearGradient id="zbc7ooyaza" x1="-3570" y1="-2865" x2="-3570" y2="-2855" gradientTransform="translate(3591 2873)" gradientUnits="userSpaceOnUse"><stop offset="0" stop-opacity="0"/><stop offset=".83"/></linearGradient><linearGradient id="pj9c16zclc" x1="0" y1="32" x2="32" y2="0" gradientUnits="userSpaceOnUse"><stop offset=".1" stop-color="#be95ff"/><stop offset=".9" stop-color="#4589ff"/></linearGradient><mask id="xifr2lq8lb" x="0" y="0" width="32" height="32" maskUnits="userSpaceOnUse"><path d="M26 14H6a2.002 2.002 0 0 1-2-2V4a2.002 2.002 0 0 1 2-2h20a2.002 2.002 0 0 1 2 2v8a2.002 2.002 0 0 1-2 2zM6 4v8h20V4H6z" style="fill:#fff"/><path transform="rotate(-90 21 13)" style="fill:url(#zbc7ooyaza)" d="M19 8h4v10h-4z"/><path transform="rotate(-90 27 13)" d="M25 11h4v4h-4z"/></mask></defs><path style="fill:none" d="M0 0h32v32H0z"/><g style="mask:url(#xifr2lq8lb)"><path style="fill:url(#pj9c16zclc)" d="M0 0h32v32H0z"/></g><path d="M10 30H8v-3H4v3H2v-3a2.002 2.002 0 0 1 2-2h4a2.002 2.002 0 0 1 2 2v3zM30 30h-2v-3h-4v3h-2v-3a2.002 2.002 0 0 1 2-2h4a2.002 2.002 0 0 1 2 2v3zM20 30h-2v-3h-4v3h-2v-3a2.002 2.002 0 0 1 2-2h4a2.002 2.002 0 0 1 2 2v3z" style="fill:#f4f4f4"/><circle cx="16" cy="22" r="2" style="fill:#f4f4f4"/><circle cx="6" cy="22" r="2" style="fill:#f4f4f4"/><circle cx="26" cy="22" r="2" style="fill:#f4f4f4"/><circle cx="21" cy="18" r="2" style="fill:#f4f4f4"/><circle cx="11" cy="18" r="2" style="fill:#f4f4f4"/><path id="_Transparent_Rectangle_" data-name="Transparent Rectangle" style="fill:none" d="M0 0h32v32H0z"/></svg>