<svg id="OpenShiftContainerPlatformVPCRegulatedIndustries" xmlns="http://www.w3.org/2000/svg" viewBox="0 0 32 32"><defs><linearGradient id="ru9ybs6hna" x1="6.523" y1="26" x2="14.227" y2="26" gradientUnits="userSpaceOnUse"><stop offset=".1" stop-opacity="0"/><stop offset=".8"/></linearGradient><linearGradient id="xlt2y5aujc" x1="0" y1="32" x2="32" y2="0" gradientUnits="userSpaceOnUse"><stop offset=".1" stop-color="#ff7eb6"/><stop offset=".9" stop-color="#a56eff"/></linearGradient><mask id="lwgdho52jb" x="0" y="0" width="32" height="32" maskUnits="userSpaceOnUse"><path d="M16 30C8.28 30 2 23.72 2 16S8.28 2 16 2s14 6.28 14 14-6.28 14-14 14zm0-26C9.383 4 4 9.383 4 16s5.383 12 12 12 12-5.383 12-12S22.617 4 16 4z" style="fill:#fff"/><path style="fill:url(#ru9ybs6hna)" d="M6.523 20h7.704v12H6.523z"/><path d="M14 11h17v20H14z"/><path d="M28.98 21h-13c-1.103 0-2-.897-2-2v-4c0-1.103.897-2 2-2h13c1.103 0 2 .897 2 2v4c0 1.103-.897 2-2 2zm-13-6v4h13.001v-4H15.98z" style="fill:#fff"/></mask></defs><g style="mask:url(#lwgdho52jb)"><path id="Color" style="fill:url(#xlt2y5aujc)" d="M0 0h32v32H0z"/></g><path d="M28.98 31h-13c-1.103 0-2-.897-2-2v-4c0-1.103.897-2 2-2h13c1.103 0 2 .897 2 2v4c0 1.103-.897 2-2 2zm-13-6v4h13.001v-4H15.98z" style="fill:#f4f4f4"/><circle cx="18.98" cy="27" r="1" style="fill:#f4f4f4"/></svg>