<svg xmlns="http://www.w3.org/2000/svg" viewBox="0 0 32 32"><defs><linearGradient id="OpenLabs_svg__a" x1="3177.8" y1="2882.123" x2="3190.8" y2="2882.123" gradientTransform="translate(-3164.8 -2871.623)" gradientUnits="userSpaceOnUse"><stop offset=".15"/><stop offset=".8" stop-color="#231f20" stop-opacity="0"/></linearGradient><linearGradient id="OpenLabs_svg__c" y1="32" x2="32" gradientUnits="userSpaceOnUse"><stop offset=".1" stop-color="#3ddbd9"/><stop offset=".9" stop-color="#4589ff"/></linearGradient><mask id="OpenLabs_svg__b" x="0" y="0" width="32" height="32" maskUnits="userSpaceOnUse"><path d="M15 22c0-1.839 1.107-2.865 2.178-3.857A7.2 7.2 0 0020 12a8 8 0 00-16 0 7.189 7.189 0 002.814 6.141C7.889 19.134 9 20.16 9 22H7c0-.919-.528-1.449-1.541-2.384A9.181 9.181 0 012 12a10 10 0 0120 0 9.191 9.191 0 01-3.465 7.614C17.526 20.55 17 21.08 17 22z" fill="#fff"/><path transform="rotate(-90 19.5 10.5)" fill="url(#OpenLabs_svg__a)" d="M13 3h13v15H13z"/><path fill="#fff" d="M7 24h10v2H7zM9 28h6v2H9z"/><path d="M13 16h14v16H13z"/></mask></defs><g data-name="Layer 2"><g data-name="Dark theme icons"><g mask="url(#OpenLabs_svg__b)"><path fill="url(#OpenLabs_svg__c)" d="M0 0h32v32H0z"/></g><path fill="#f4f4f4" d="M29.17 21l-2.58 2.58L28 25l4-4-4-4-1.42 1.41L29.17 21zM16.83 21l2.58-2.58L18 17l-4 4 4 4 1.42-1.41L16.83 21zM20.74 25.57l2.588-9.659 1.932.518-2.588 9.66z"/></g></g></svg>