<svg id="OPLStudio" xmlns="http://www.w3.org/2000/svg" viewBox="0 0 32 32"><defs><linearGradient id="zfb9dq7qra" x1="16" y1="26" x2="16" y2="6" gradientUnits="userSpaceOnUse"><stop offset=".078" stop-opacity="0"/><stop offset=".217"/><stop offset=".704"/><stop offset=".9" stop-opacity="0"/></linearGradient><linearGradient id="u8mwgcsuac" x1="0" y1="32" x2="32" y2="0" gradientUnits="userSpaceOnUse"><stop offset=".1" stop-color="#00deda"/><stop offset=".9" stop-color="#238aff"/></linearGradient><mask id="zlyu7a0l3b" x="0" y="0" width="32" height="32" maskUnits="userSpaceOnUse"><path d="M4 17H2V6c0-1.103.897-2 2-2h26v2H4v11zM28 28H2v-2h26V15h2v11c0 1.103-.897 2-2 2z" style="fill:#fff"/><path style="fill:url(#zfb9dq7qra)" d="M0 6h32v20H0z"/></mask></defs><g style="mask:url(#zlyu7a0l3b)"><path style="fill:url(#u8mwgcsuac)" d="M0 0h32v32H0z"/></g><path d="M3.586 16.188c0-3.187 1.641-4.853 4.128-4.853s4.127 1.667 4.127 4.853-1.641 4.853-4.127 4.853-4.128-1.668-4.128-4.853zm6.091.699v-1.398c0-1.493-.74-2.34-1.963-2.34s-1.964.847-1.964 2.34v1.398c0 1.492.74 2.34 1.964 2.34s1.963-.848 1.963-2.34zM13.548 20.88v-9.385h4.437c1.748 0 2.85 1.224 2.85 2.999s-1.102 2.998-2.85 2.998h-2.393v3.388h-2.044zm2.043-5.163h2.151c.604 0 .981-.323.981-.928v-.591c0-.605-.377-.928-.981-.928h-2.151v2.447zM22.366 20.88v-9.385h2.044v7.57h3.576v1.815h-5.62z" style="fill:#f4f4f4"/></svg>