<svg data-name="Build icon here" xmlns="http://www.w3.org/2000/svg" xmlns:xlink="http://www.w3.org/1999/xlink" viewBox="0 0 32 32"><defs><linearGradient id="dy5p174jma" x1="9" y1="7.5" x2="23" y2="7.5" gradientUnits="userSpaceOnUse"><stop offset=".1"/><stop offset=".7" stop-opacity="0"/></linearGradient><linearGradient id="1kbk24subb" x1="-59.262" y1="-73.239" x2="-45.262" y2="-73.239" gradientTransform="translate(76.762 89.238)" xlink:href="#dy5p174jma"/><linearGradient id="34z7ubgx1c" x1="-136.001" y1="7.5" x2="-122" y2="7.5" gradientTransform="translate(145 17)" xlink:href="#dy5p174jma"/><linearGradient id="2aaw444bmd" x1="-59.262" y1="71.762" x2="-45.262" y2="71.762" gradientTransform="translate(59.762 -55.762)" xlink:href="#dy5p174jma"/><linearGradient id="12dcwi97sf" y1="32" x2="32" gradientUnits="userSpaceOnUse"><stop offset=".1" stop-color="#ff7eb6"/><stop offset=".9" stop-color="#a56eff"/></linearGradient><mask id="0o58hv70ae" x="0" y="0" width="32" height="32" maskUnits="userSpaceOnUse"><path d="M10 9.058A16.972 16.972 0 0 1 23 3v2a15.01 15.01 0 0 0-13 7.524zM22.942 10A16.972 16.972 0 0 1 29 23h-2a15.01 15.01 0 0 0-7.524-13zM22 22.942A16.972 16.972 0 0 1 9 29v-2a15.01 15.01 0 0 0 13-7.524zM9.057 22A16.972 16.972 0 0 1 3 9h2a15.01 15.01 0 0 0 7.524 13z" fill="#f4f4f4"/><path fill="url(#dy5p174jma)" d="M9 2h14v11H9z"/><path transform="rotate(90 24.5 16)" fill="url(#1kbk24subb)" d="M17.5 10.5h14v11h-14z"/><path transform="rotate(180 16 24.5)" fill="url(#34z7ubgx1c)" d="M8.999 19H23v11H8.999z"/><path transform="rotate(-90 7.499 16)" fill="url(#2aaw444bmd)" d="M.499 10.5h14v11h-14z"/></mask></defs><g mask="url(#0o58hv70ae)"><path fill="url(#12dcwi97sf)" d="M0 0h32v32H0z"/></g><path d="M28 2a2 2 0 1 0 2 2 2 2 0 0 0-2-2zM4 2a2 2 0 1 0 2 2 2 2 0 0 0-2-2zm24 24a2 2 0 1 0 2 2 2 2 0 0 0-2-2zM4 26a2 2 0 1 0 2 2 2 2 0 0 0-2-2zm12-5a5 5 0 1 1 5-5 5.006 5.006 0 0 1-5 5zm0-8a3 3 0 1 0 3 3 3 3 0 0 0-3-3z" fill="#f4f4f4"/></svg>