<svg id="Bluepay" xmlns="http://www.w3.org/2000/svg" xmlns:xlink="http://www.w3.org/1999/xlink" viewBox="0 0 32 32"><defs><linearGradient id="xpjyfx58ba" x1="-89" y1="-80.5" x2="-79" y2="-80.5" gradientTransform="translate(100 86)" gradientUnits="userSpaceOnUse"><stop offset="0" stop-opacity="0"/><stop offset=".9"/></linearGradient><linearGradient id="jkn5m2ewjb" x1="-1144" y1="6636.5" x2="-1134" y2="6636.5" gradientTransform="translate(1154 -6610)" xlink:href="#xpjyfx58ba"/><linearGradient id="behz0w0wad" x1="0" y1="32" x2="32" y2="0" gradientUnits="userSpaceOnUse"><stop offset=".1" stop-color="#6fdc8c"/><stop offset=".9" stop-color="#009d9a"/></linearGradient><mask id="7d40s8oxgc" x="0" y="3" width="28" height="26" maskUnits="userSpaceOnUse"><path d="M5 26V15.828l-3.586 3.586L0 18l6-6 6 6-1.414 1.414L7 15.828V26h12v2H7a2.002 2.002 0 0 1-2-2zM28 12V6a2.002 2.002 0 0 0-2-2H12v2h14v6" style="fill:#fff"/><path transform="rotate(180 16 5.5)" style="fill:url(#xpjyfx58ba)" d="M11 3h10v5H11z"/><path style="fill:url(#jkn5m2ewjb)" d="M10 24h10v5H10z"/></mask></defs><path style="fill:none" d="M0 0h32v32H0z"/><g style="mask:url(#7d40s8oxgc)"><path style="fill:url(#behz0w0wad)" d="M0 0h32v32H0z"/></g><path style="fill:#f4f4f4" d="M2 2h8v2H2zM2 6h5v2H2zM31 18h-3v-2h-2v2h-1a2 2 0 0 0-1.997 1.997v2.006A2 2 0 0 0 25 24l4-.003.003 2.003H23v2h3v2h2v-2h1.003A2 2 0 0 0 31 26.003v-2.006A2 2 0 0 0 29.003 22l-4 .003L25 20h6v-2z"/></svg>