<svg id="PowerwithVPClandingzone" xmlns="http://www.w3.org/2000/svg" xmlns:xlink="http://www.w3.org/1999/xlink" viewBox="0 0 32 32"><defs><linearGradient id="azk5kxqu9a" x1="-1755.167" y1="-2416.191" x2="-1755.167" y2="-2435.806" gradientTransform="matrix(1.06 0 0 -.491 1867.675 -1184.867)" gradientUnits="userSpaceOnUse"><stop offset="0"/><stop offset=".8" stop-opacity="0"/></linearGradient><linearGradient id="ihz2pmhxnb" x1="428.543" y1="-6683.231" x2="428.543" y2="-6702.847" gradientTransform="matrix(1.06 0 0 .515 -445.967 3470.824)" xlink:href="#azk5kxqu9a"/><linearGradient id="12vk6nqewc" x1="-836.639" y1="-2828.659" x2="-836.639" y2="-2838.533" gradientTransform="matrix(1.06 0 0 -.669 913.644 -1876.439)" xlink:href="#azk5kxqu9a"/><linearGradient id="pkmor0h0md" x1="-1881.881" y1="-2704.999" x2="-1881.881" y2="-2712.593" gradientTransform="matrix(1.06 0 0 .669 2004.258 1839.023)" xlink:href="#azk5kxqu9a"/><linearGradient id="6q3zf8gkne" x1="-1855.802" y1="-3280.998" x2="-1855.802" y2="-3288.593" gradientTransform="matrix(1.06 0 0 .669 1979.905 2201.128)" xlink:href="#azk5kxqu9a"/><linearGradient id="mub9x2t11g" x1="0" y1="32" x2="32" y2="0" gradientUnits="userSpaceOnUse"><stop offset=".1" stop-color="#3ddbd9"/><stop offset=".9" stop-color="#4589ff"/></linearGradient><mask id="2usf5t8bjf" x="0" y="0" width="32" height="32" maskUnits="userSpaceOnUse"><path d="M15.982 30c-7.72 0-14-6.28-14-14s6.281-14 14-14 14 6.28 14 14-6.28 14-14 14zm0-26c-6.617 0-12 5.383-12 12s5.383 12 12 12 12-5.383 12-12-5.383-12-12-12z" style="fill:#fff"/><path d="M30.691 30.708H11.729l3-8.708 10.465.011 5.577-.021-.08 8.718zM6.982 20l-6 5.494V6.807l6 5.015V20zM16.003 1h14.999v13.032H16.003z"/><path transform="rotate(-135 7.943 6.787)" style="fill:url(#azk5kxqu9a)" d="M4.764 1.97h6.357v9.635H4.764z"/><path transform="rotate(135 8.106 25.344)" style="fill:url(#ihz2pmhxnb)" d="M4.928 20.295h6.357v10.098H4.928z"/><path transform="rotate(180 27.161 18.863)" style="fill:url(#12vk6nqewc)" d="M23.982 15.561h6.357v6.604h-6.357z"/><path transform="rotate(-70.79 10.262 27.195)" style="fill:url(#pkmor0h0md)" d="M7.084 24.655h6.357v5.08H7.084z"/><path d="M8.982 20.98h-6c-1.103 0-2-.897-2-2v-6c0-1.103.897-2 2-2h6c1.103 0 2 .897 2 2v6c0 1.103-.897 2-2 2zm-6-8v6h6.001v-6H2.982z" style="fill:#fff"/><path transform="rotate(-90 13.543 4.032)" style="fill:url(#6q3zf8gkne)" d="M10.364 1.492h6.357v5.08h-6.357z"/><path d="M27.984 7c0-.37-.067-.721-.161-1.062l1.857-1.072-1-1.732L26.833 4.2a3.991 3.991 0 0 0-1.849-1.058V1h-2v2.142A3.991 3.991 0 0 0 21.135 4.2l-1.847-1.066-1 1.732 1.857 1.072c-.094.34-.161.692-.161 1.062s.067.721.161 1.062l-1.857 1.072 1 1.732L21.135 9.8c.5.509 1.138.873 1.849 1.058V13h2v-2.142A3.991 3.991 0 0 0 26.833 9.8l1.847 1.066 1-1.732-1.857-1.072c.094-.34.161-.692.161-1.062zm-4 2c-1.103 0-2-.897-2-2s.897-2 2-2 2 .897 2 2-.897 2-2 2z" style="fill:#fff"/></mask></defs><g style="mask:url(#2usf5t8bjf)"><path style="fill:url(#mub9x2t11g)" d="M0 0h32v32H0z"/></g><path d="M29 31H16c-1.103 0-2-.897-2-2v-4c0-1.103.897-2 2-2h13c1.103 0 2 .897 2 2v4c0 1.103-.897 2-2 2zm-13-6v4h13.001v-4H16z" style="fill:#f4f4f4"/><circle cx="19" cy="27" r="1" style="fill:#f4f4f4"/></svg>