<svg id="PowerVSI" xmlns="http://www.w3.org/2000/svg" xmlns:xlink="http://www.w3.org/1999/xlink" viewBox="0 0 32 32"><defs><linearGradient id="uu9hogtnea" x1="18.936" y1="-1509.97" x2="22.687" y2="-1495.971" gradientTransform="matrix(1 0 0 -1 0 -1482)" gradientUnits="userSpaceOnUse"><stop offset=".29" stop-opacity="0"/><stop offset=".87"/></linearGradient><linearGradient id="lpeg68z0ac" x1="-565.064" y1="-760.97" x2="-561.313" y2="-746.971" gradientTransform="matrix(-1 0 0 1 -552 765)" xlink:href="#uu9hogtnea"/><linearGradient id="mzq0d9biob" x1="-1146.122" y1="27.5" x2="-1130.807" y2="27.5" gradientTransform="matrix(-1 0 0 1 -1122 0)" gradientUnits="userSpaceOnUse"><stop offset=".393"/><stop offset="1" stop-opacity="0"/></linearGradient><linearGradient id="zmger7bngd" x1="7.878" y1="-1486.5" x2="23.193" y2="-1486.5" gradientTransform="matrix(1 0 0 -1 0 -1482)" xlink:href="#mzq0d9biob"/><linearGradient id="8d6mq9c6qf" y1="32" x2="32" gradientUnits="userSpaceOnUse"><stop offset=".1" stop-color="#3ddbd9"/><stop offset=".9" stop-color="#4589ff"/></linearGradient><mask id="mjwgxoz61e" x="0" y="0" width="32" height="32" maskUnits="userSpaceOnUse"><path d="M9.1 17h-2a3.4 3.4 0 0 1-.1-1 8.963 8.963 0 0 1 9-9 9.156 9.156 0 0 1 5.8 2.1l-1.3 1.5A7.057 7.057 0 0 0 16 9a6.957 6.957 0 0 0-7 7 3.4 3.4 0 0 0 .1 1z" style="fill:#fff"/><path d="M13 4.4a10.323 10.323 0 0 1 3-.4 12.021 12.021 0 0 1 8.5 20.5l1.4 1.4A14 14 0 0 0 16 2a15.263 15.263 0 0 0-3 .3zM19 27.6a15.438 15.438 0 0 1-3 .4A12.021 12.021 0 0 1 7.5 7.5L6.1 6.1A14 14 0 0 0 16 30a15.263 15.263 0 0 0 3-.3z" style="fill:#fff"/><path d="M23 16a6.957 6.957 0 0 1-7 7 6.622 6.622 0 0 1-4.5-1.7l-1.3 1.5a9.156 9.156 0 0 0 5.8 2.1 8.963 8.963 0 0 0 9-9 3.4 3.4 0 0 0-.1-1h-2A4.484 4.484 0 0 1 23 16z" style="fill:#fff"/><path id="RightMask" d="m22 14-6 9 8 2 2-11z" style="fill:url(#uu9hogtnea)"/><path id="LeftMask" d="m10 18 6-9-8-2-2 11z" style="fill:url(#lpeg68z0ac)"/><path id="BottomMask" d="M8 24v7h12v-4z" style="fill:url(#mzq0d9biob)"/><path id="TopMask" d="M24 8V1H12v4z" style="fill:url(#zmger7bngd)"/></mask></defs><g style="mask:url(#mjwgxoz61e)"><path style="fill:url(#8d6mq9c6qf)" d="M0 0h32v32H0z"/></g><path id="SolidStroke" d="M16 14a2 2 0 1 1-2 2 2.006 2.006 0 0 1 2-2zM9 4a.945.945 0 0 1 1 1 .945.945 0 0 1-1 1 .945.945 0 0 1-1-1 .945.945 0 0 1 1-1zm14 22a1 1 0 1 1-1 1 .945.945 0 0 1 1-1zm0-15a1 1 0 1 1-1 1 .945.945 0 0 1 1-1zM9 19a1 1 0 0 1 0 2 1 1 0 0 1 0-2z" style="fill:#f4f4f4"/></svg>