<svg id="PowerEnterprisePoolsMeteredCapacityIntegration" xmlns="http://www.w3.org/2000/svg" xmlns:xlink="http://www.w3.org/1999/xlink" viewBox="0 0 32 32"><defs><linearGradient id="u08yannhxa" x1="-3324.71" y1="-658.595" x2="-3309.396" y2="-658.595" gradientTransform="rotate(-180 -1650.291 -315.546)" gradientUnits="userSpaceOnUse"><stop offset=".393"/><stop offset="1" stop-opacity="0"/></linearGradient><linearGradient id="14hovk595b" x1="180.467" y1="3231.595" x2="195.781" y2="3231.595" gradientTransform="translate(-172.582 -3227.093)" xlink:href="#u08yannhxa"/><linearGradient id="7zcc11vl7d" x1="0" y1="2" x2="32" y2="34" gradientTransform="matrix(1 0 0 -1 0 34)" gradientUnits="userSpaceOnUse"><stop offset=".1" stop-color="#3ddbd9"/><stop offset=".9" stop-color="#4589ff"/></linearGradient><mask id="6vm8q655nc" x="0" y="0" width="32" height="32" maskUnits="userSpaceOnUse"><g id="iqnzgowk5d"><path d="M13.006 4.402c1-.3 2-.4 3-.4 6.6 0 12 5.4 12 12 0 3.3-1.3 6.3-3.5 8.5l1.4 1.4c2.5-2.5 4.1-6 4.1-9.9 0-7.7-6.3-14-14-14-1 0-2 .1-3 .3v2.1zm6 23.2c-1 .2-2 .4-3 .4-6.6 0-12-5.4-12-12 0-3.3 1.3-6.3 3.5-8.5l-1.4-1.4c-2.5 2.5-4.1 6-4.1 9.9 0 7.7 6.3 14 14 14 1 0 2-.1 3-.3v-2.1z" style="fill:#fff;stroke-width:0"/><path id="BottomMask" d="M8.006 24.002v7h12v-4l-12-3z" style="fill:url(#u08yannhxa);stroke-width:0"/><path id="TopMask" d="M24.006 8.002v-7h-12v4l12 3z" style="fill:url(#14hovk595b);stroke-width:0"/></g><path d="M15 16h2v4h2a2 2 0 0 1 2 2v3h-2v-3h-2v3h-2v-3h-2v3h-2v-3a2 2 0 0 1 2-2h2v-4z" style="fill:#fff;stroke-width:0"/></mask></defs><path style="fill:none;stroke-width:0" d="M0 0h32v32H0z"/><g style="mask:url(#6vm8q655nc)"><path d="M0 0h32v32H0V0z" style="fill:url(#7zcc11vl7d);stroke-width:0"/></g><path d="M23.006 26.007a1 1 0 0 1 0 2 1 1 0 0 1 0-2zM9.006 4.007a1 1 0 0 1 0 2 1 1 0 0 1 0-2zM20.92 10.106C20.498 7.774 18.452 6 16 6s-4.498 1.774-4.92 4.106A4.008 4.008 0 0 0 8 14c0 2.206 1.794 4 4 4h1v-2h-1c-1.103 0-2-.897-2-2s.897-2 2-2h1v-1c0-1.654 1.346-3 3-3s3 1.346 3 3v1h1c1.103 0 2 .897 2 2s-.897 2-2 2h-1v2h1c2.206 0 4-1.794 4-4a4.008 4.008 0 0 0-3.08-3.894z" style="fill:#f4f4f4;stroke-width:0"/></svg>