<svg xmlns="http://www.w3.org/2000/svg" xmlns:xlink="http://www.w3.org/1999/xlink" viewBox="0 0 32 32">
  <defs>
    <linearGradient id="f6125992-751d-4b06-be20-d1e5e6406859" x1="24" y1="16" x2="32" y2="8" gradientUnits="userSpaceOnUse">
      <stop offset="0.25" stop-opacity="0"/>
      <stop offset="0.7"/>
    </linearGradient>
    <linearGradient id="ea3cd3b9-c1de-4da8-bb8c-5d2089f47c1f" y1="24" x2="8" y2="16" gradientUnits="userSpaceOnUse">
      <stop offset="0.3"/>
      <stop offset="0.75" stop-opacity="0"/>
    </linearGradient>
    <mask id="e0ebdf08-932f-464e-8973-57f1e74c855a" x="0" y="0" width="32" height="32" maskUnits="userSpaceOnUse">
      <g>
        <g>
          <path d="M5.047,15C5.016,15.336,5,15.67,5,16s.016.664.047,1L1.023,21.023l1.415,1.415,4.729-4.729a8.823,8.823,0,0,1,0-3.417l-2.56-2.56,1-1.732,1-1.732,3.5.938A9.009,9.009,0,0,1,13.062,7.5L14,4h4.012V2H14a2,2,0,0,0-1.932,1.482l-.68,2.539a10.9,10.9,0,0,0-1.724,1l-2.539-.68a2,2,0,0,0-2.25.932L3.875,9l-1,1.732a2,2,0,0,0,.318,2.414Z" fill="#fff"/>
          <path d="M26.953,17c.031-.336.047-.67.047-1s-.016-.664-.047-1l4.029-4.029L29.568,9.557l-4.735,4.735a8.823,8.823,0,0,1,0,3.417l2.559,2.559-1,1.732-1,1.733-3.5-.939A8.974,8.974,0,0,1,18.938,24.5L18,28H14v2h4a2,2,0,0,0,1.932-1.482l.68-2.539a10.89,10.89,0,0,0,1.723-.995l2.54.68a1.961,1.961,0,0,0,.517.069,2,2,0,0,0,1.732-1l1-1.733,1-1.732a2,2,0,0,0-.317-2.414Z" fill="#fff"/>
        </g>
        <rect x="24" y="8" width="8" height="8" fill="url(#f6125992-751d-4b06-be20-d1e5e6406859)"/>
        <rect y="16" width="8" height="8" fill="url(#ea3cd3b9-c1de-4da8-bb8c-5d2089f47c1f)"/>
      </g>
      <path d="M16,22a6,6,0,1,1,6-6A6.006,6.006,0,0,1,16,22Zm0-10a4,4,0,1,0,4,4A4,4,0,0,0,16,12Z" fill="#fff"/>
    </mask>
    <linearGradient id="b55dcbae-f499-438a-9111-41605f3234ef" y1="32" x2="32" gradientUnits="userSpaceOnUse">
      <stop offset="0.1" stop-color="#3ddbd9"/>
      <stop offset="0.9" stop-color="#4589ff"/>
    </linearGradient>
  </defs>
  <g id="e04724b8-9594-4bfd-a4c8-40b6bcc0867d" data-name="Layer 2">
    <g id="ff362bfe-1908-4c15-96dc-206def758d9a" data-name="Dark theme icons">
      <g>
        <g mask="url(#e0ebdf08-932f-464e-8973-57f1e74c855a)">
          <rect width="32" height="32" fill="url(#b55dcbae-f499-438a-9111-41605f3234ef)"/>
        </g>
        <polygon points="14 24 6.828 24 9.414 21.414 8 20 3 25 8 30 9.414 28.586 6.828 26 14 26 14 24" fill="#f4f4f4"/>
        <polygon points="18 8 25.172 8 22.586 10.586 24 12 29 7 24 2 22.586 3.414 25.172 6 18 6 18 8" fill="#f4f4f4"/>
      </g>
    </g>
  </g>
</svg>
