<svg xmlns="http://www.w3.org/2000/svg" viewBox="0 0 32 32"><defs><linearGradient id="PrivateCloud_svg__a" x1="24" y1="16" x2="32" y2="8" gradientUnits="userSpaceOnUse"><stop offset=".25" stop-opacity="0"/><stop offset=".7"/></linearGradient><linearGradient id="PrivateCloud_svg__b" y1="24" x2="8" y2="16" gradientUnits="userSpaceOnUse"><stop offset=".3"/><stop offset=".75" stop-opacity="0"/></linearGradient><linearGradient id="PrivateCloud_svg__d" y1="32" x2="32" gradientUnits="userSpaceOnUse"><stop offset=".1" stop-color="#3ddbd9"/><stop offset=".9" stop-color="#4589ff"/></linearGradient><mask id="PrivateCloud_svg__c" x="0" y="0" width="32" height="32" maskUnits="userSpaceOnUse"><path d="M5.047 15a10.893 10.893 0 000 2l-4.024 4.023 1.415 1.415 4.729-4.729a8.823 8.823 0 010-3.417l-2.56-2.56 1-1.732 1-1.732 3.5.938A9.009 9.009 0 0113.062 7.5L14 4h4.012V2H14a2 2 0 00-1.932 1.482l-.68 2.539a10.9 10.9 0 00-1.724 1l-2.539-.68a2 2 0 00-2.25.932L3.875 9l-1 1.732a2 2 0 00.318 2.414zM26.953 17a10.893 10.893 0 000-2l4.029-4.029-1.414-1.414-4.735 4.735a8.823 8.823 0 010 3.417l2.559 2.559-1 1.732-1 1.733-3.5-.939a8.974 8.974 0 01-2.954 1.706L18 28h-4v2h4a2 2 0 001.932-1.482l.68-2.539a10.89 10.89 0 001.723-.995l2.54.68a1.961 1.961 0 00.517.069 2 2 0 001.732-1l1-1.733 1-1.732a2 2 0 00-.317-2.414z" fill="#fff"/><path fill="url(#PrivateCloud_svg__a)" d="M24 8h8v8h-8z"/><path fill="url(#PrivateCloud_svg__b)" d="M0 16h8v8H0z"/></mask></defs><g data-name="Layer 2"><g data-name="Dark theme icons"><g mask="url(#PrivateCloud_svg__c)"><path fill="url(#PrivateCloud_svg__d)" d="M0 0h32v32H0z"/></g><path d="M16 21a5 5 0 115-5 5.006 5.006 0 01-5 5zm0-8a3 3 0 103 3 3 3 0 00-3-3zM14 24H6.828l2.586-2.586L8 20l-5 5 5 5 1.414-1.414L6.828 26H14v-2zM18 8h7.172l-2.586 2.586L24 12l5-5-5-5-1.414 1.414L25.172 6H18v2z" fill="#f4f4f4"/></g></g></svg>