<svg id="PromptLab" xmlns="http://www.w3.org/2000/svg" viewBox="0 0 32 32"><defs><linearGradient id="hj2lhmsega" x1="-144.903" y1="-25.5" x2="-134.903" y2="-25.5" gradientTransform="translate(153.903 49.5)" gradientUnits="userSpaceOnUse"><stop offset="0" stop-opacity="0"/><stop offset=".83"/></linearGradient><linearGradient id="117mytp7ic" x1="0" y1="31.999" x2="32" y2="0" gradientUnits="userSpaceOnUse"><stop offset=".1" stop-color="#c592ff"/><stop offset=".9" stop-color="#238aff"/></linearGradient><mask id="ndds9vabmb" x="0" y="0" width="32" height="32" maskUnits="userSpaceOnUse"><path d="M8 20.995V18H6v2.995A4.01 4.01 0 0 0 10.005 25H18v-2h-7.995A2.007 2.007 0 0 1 8 20.995z" style="fill:#fff"/><path style="fill:url(#hj2lhmsega)" d="M9 22h10v4H9z" id="Gradients_black_" data-name="Gradients (black)"/><path d="M30 11c0-2.206-1.794-4-4-4h-2v2h2c1.103 0 2 .897 2 2v9.995A2.007 2.007 0 0 1 25.995 23h-5.572l-3.465 6 1.732 1 2.887-5h4.417a4.01 4.01 0 0 0 4.005-4.005V11z" style="fill:#fff"/></mask></defs><g style="mask:url(#ndds9vabmb)"><path style="fill:url(#117mytp7ic)" d="M0 0h32v32H0z"/></g><circle cx="7" cy="8" r="1" style="fill:#f3f3f3"/><circle cx="11" cy="8" r="1" style="fill:#f3f3f3"/><circle cx="15" cy="8" r="1" style="fill:#f3f3f3"/><path d="M6 14H3.505c-.404 0-.783-.158-1.067-.446a1.486 1.486 0 0 1-.431-1.072L2 3.498a1.513 1.513 0 0 1 1.502-1.497H6v2H4l.007 8H6v2zm-1.993-1.518v.012-.012zM18.502 14H16v-2h1.993L18 4h-2V2h2.498c.819 0 1.493.666 1.502 1.485v8.997c.006.402-.147.783-.432 1.071a1.483 1.483 0 0 1-1.066.446zm-.616-10.491v.002-.002z" style="fill:#f3f3f3"/></svg>