<svg id="Build_icon_here" data-name="Build icon here" xmlns="http://www.w3.org/2000/svg" xmlns:xlink="http://www.w3.org/1999/xlink" viewBox="0 0 32 32">
  <defs>
    <linearGradient id="linear-gradient" x1="16" y1="28" x2="16" y2="11" gradientUnits="userSpaceOnUse">
      <stop offset="0.5" stop-color="#fff"/>
      <stop offset="0.56" stop-color="#fbfbfb"/>
      <stop offset="0.623" stop-color="#eee"/>
      <stop offset="0.686" stop-color="#dadada"/>
      <stop offset="0.75" stop-color="#bcbcbc"/>
      <stop offset="0.815" stop-color="#979797"/>
      <stop offset="0.88" stop-color="#696969"/>
      <stop offset="0.945" stop-color="#343434"/>
      <stop offset="1"/>
    </linearGradient>
    <mask id="mask" x="0" y="0" width="32" height="32" maskUnits="userSpaceOnUse">
      <path d="M30,23H24.858A4,4,0,0,0,22,20.142V11H20v9.142A4,4,0,0,0,17.142,23H2v2H17.142a3.981,3.981,0,0,0,7.716,0H30Zm-9,3a2,2,0,1,1,2-2A2,2,0,0,1,21,26Z" style="fill: url(#linear-gradient)"/>
      <circle cx="21" cy="8" r="3" style="fill: #f4f4f4"/>
    </mask>
    <linearGradient id="linear-gradient-2" y1="32" x2="32" gradientUnits="userSpaceOnUse">
      <stop offset="0.1" stop-color="#3ddbd9"/>
      <stop offset="0.9" stop-color="#4589ff"/>
    </linearGradient>
  </defs>
  <g>
    <g style="mask: url(#mask)">
      <rect width="32" height="32" style="fill: url(#linear-gradient-2)"/>
    </g>
    <g>
      <path d="M13,4H5V7H2V9H5v3h8V9h3V7H13Zm-2,6H7V6h4Z" style="fill: #f4f4f4"/>
      <rect x="26" y="7" width="4" height="2" style="fill: #f4f4f4"/>
    </g>
  </g>
</svg>
