<svg id="RhapsodySystemsEngineering" xmlns="http://www.w3.org/2000/svg" xmlns:xlink="http://www.w3.org/1999/xlink" viewBox="0 0 32 32"><defs><linearGradient id="m0vewbiyxa" x1="-88" y1="-80" x2="-79" y2="-80" gradientTransform="translate(99 85)" gradientUnits="userSpaceOnUse"><stop offset="0" stop-opacity="0"/><stop offset=".9"/></linearGradient><linearGradient id="06m9o8l2kb" x1="3582.918" y1="2351" x2="3592" y2="2351" gradientTransform="translate(-3577 -2325)" xlink:href="#m0vewbiyxa"/><linearGradient id="ls3oykmpxd" x1="0" y1="32" x2="32" y2="0" gradientUnits="userSpaceOnUse"><stop offset=".1" stop-color="#be95ff"/><stop offset=".9" stop-color="#4589ff"/></linearGradient><mask id="j4shfxuwec" x="0" y="0" width="32" height="32" maskUnits="userSpaceOnUse"><path d="M14 27h-4c-3.86 0-7-3.14-7-7v-2h2v2c0 2.757 2.243 5 5 5h4v2zM27 13v-2c0-3.86-3.14-7-7-7h-8v2h8c2.757 0 5 2.243 5 5v2h2z" style="fill:#fff;stroke-width:0"/><path transform="rotate(180 15.5 5)" style="fill:url(#m0vewbiyxa);stroke-width:0" d="M11 3h9v4h-9z"/><path style="fill:url(#06m9o8l2kb);stroke-width:0" d="M5.918 24H15v4H5.918z"/><path d="m29.447 18.105-6-3a1 1 0 0 0-.895 0l-6 3c-.339.17-.553.516-.553.895v7c0 .379.214.725.553.895l6 3a1.005 1.005 0 0 0 .894 0l6-3c.339-.17.553-.516.553-.895v-7c0-.379-.214-.725-.553-.895zM23 17.118 26.764 19 23 20.882 19.236 19 23 17.118zm-5 3.5 4 2v4.764l-4-2v-4.764zm6 6.764v-4.764l4-2v4.764l-4 2z" style="fill:#fff;stroke-width:0"/></mask></defs><path style="fill:none;stroke-width:0" d="M0 0h32v32H0z"/><g style="mask:url(#j4shfxuwec)"><path style="fill:url(#ls3oykmpxd);stroke-width:0" d="M0 0h32v32H0z"/></g><path d="M10 8V4a2 2 0 0 0-2-2H2v13h2v-5h1.48l2.34 5H10l-2.33-5H8a2 2 0 0 0 2-2zM4 4h4v4H4V4z" style="fill:#f4f4f4;stroke-width:0"/></svg>