<svg data-name="Build icon here" xmlns="http://www.w3.org/2000/svg" viewBox="0 0 32 32"><defs><linearGradient id="9twglbftna" x1="-407.189" y1="-106.146" x2="-400.189" y2="-106.146" gradientTransform="translate(419.689 133.646)" gradientUnits="userSpaceOnUse"><stop offset="0" stop-opacity="0"/><stop offset=".85"/></linearGradient><linearGradient id="c7wsxxwy5c" y1="32" x2="32" gradientUnits="userSpaceOnUse"><stop offset=".1" stop-color="#3ddbd9"/><stop offset=".9" stop-color="#4589ff"/></linearGradient><mask id="m0k0xt06db" x="0" y="0" width="32" height="32" maskUnits="userSpaceOnUse"><path d="M26 20h-5v-2h1a2 2 0 0 0 2-2v-4h2v-2h-2V8a2 2 0 0 0-2-2h-2V2h-2v4h-4V2h-2v4h-2a2 2 0 0 0-2 2v2H6v2h2v4a2 2 0 0 0 2 2h1v2H6a2 2 0 0 0-2 2v8h2v-8h20v8h2v-8a2 2 0 0 0-2-2zM10 8h12v8H10zm3 10h6v2h-6z" fill="#fff"/><path transform="rotate(90 16 27.5)" fill="url(#9twglbftna)" d="M12.5 14.5h7v26h-7z"/></mask></defs><g mask="url(#m0k0xt06db)"><path fill="url(#c7wsxxwy5c)" d="M0 0h32v32H0z"/></g><path fill="#f4f4f4" d="M18 10h2v2h-2zm-6 0h2v2h-2z"/></svg>