<svg id="RoboticProcessAutomationControlCenter" xmlns="http://www.w3.org/2000/svg" viewBox="0 0 32 32"><defs><linearGradient id="wad0anbifa" x1="12.5" y1="30" x2="12.5" y2="1" gradientUnits="userSpaceOnUse"><stop offset=".04" stop-color="#fff" stop-opacity="0"/><stop offset=".3" stop-color="#fff"/></linearGradient><linearGradient id="ba36w2ituc" y1="32" x2="32" gradientUnits="userSpaceOnUse"><stop offset=".101" stop-color="#ff7eb6"/><stop offset=".9" stop-color="#a56eff"/></linearGradient><mask id="sillslv7tb" x="0" y="0" width="32" height="32" maskUnits="userSpaceOnUse"><path d="M23 8h-2V6a2 2 0 0 0-2-2h-2V1h-2v3h-3V1h-2v3H8a2 2 0 0 0-2 2v2H4v2h2v4a2 2 0 0 0 2 2h1v2H4a2 2 0 0 0-2 2v10h2V20h14v-4h1a2 2 0 0 0 2-2v-4h2zm-7 10h-5v-2h5zm-8-4V6h11v8z" style="fill:url(#wad0anbifa)"/><path style="fill:#fff" d="M10 8h2v2h-2zM15 8h2v2h-2z"/></mask></defs><g style="mask:url(#sillslv7tb)"><path style="fill:url(#ba36w2ituc)" d="M0 0h32v32H0z"/></g><path d="M20 30a1 1 0 0 1-.894-.553L17.382 26H14v-2h4a1 1 0 0 1 .894.553L20 26.764l3.106-6.211a1 1 0 0 1 1.788 0L26.618 24H30v2h-4a1 1 0 0 1-.894-.553L24 23.236l-3.106 6.211A1 1 0 0 1 20 30z" style="fill:#f4f4f4"/></svg>