<svg id="SaferPayments" xmlns="http://www.w3.org/2000/svg" viewBox="0 0 32 32"><defs><linearGradient id="x5lyjsr2da" x1="5" y1="25" x2="22" y2="25" gradientUnits="userSpaceOnUse"><stop offset=".3" stop-opacity="0"/><stop offset=".9"/></linearGradient><linearGradient id="2x7nfpphnc" y1="32" x2="32" gradientUnits="userSpaceOnUse"><stop offset=".1" stop-color="#be95ff"/><stop offset=".9" stop-color="#4589ff"/></linearGradient><mask id="s3d90kgcob" x="0" y="0" width="32" height="32" maskUnits="userSpaceOnUse"><path style="fill:#fff" d="M6 20h8v2H6z"/><path d="M21 24H4V13h24v3.01h2V8a2 2 0 0 0-2-2H4a2 2 0 0 0-2 2v16a2 2 0 0 0 2 2h17zM4 8h24v3H4z" style="fill:#fff"/><path style="fill:url(#x5lyjsr2da)" d="M5 23h17v4H5z"/></mask></defs><g style="mask:url(#s3d90kgcob)"><path style="fill:url(#2x7nfpphnc)" d="M0 0h32v32H0z"/></g><path style="fill:#f4f4f4" d="m25 25.18-2.59-2.59L21 24l4 4 7-7-1.41-1.41L25 25.18z"/></svg>