<?xml version="1.0" encoding="UTF-8"?>
<svg id="uuid-969c611a-297e-449f-a9ec-99051ddf14a3" data-name="Build icon here" xmlns="http://www.w3.org/2000/svg" xmlns:xlink="http://www.w3.org/1999/xlink" viewBox="0 0 32 32">
  <defs>
    <linearGradient id="uuid-8d6d34b7-4bc4-44a7-96c9-0c44ffeb1967" x1="-3687.498" y1="-2793.502" x2="-3687.498" y2="-2787.502" gradientTransform="translate(3696.495 2804.5)" gradientUnits="userSpaceOnUse">
      <stop offset="0" stop-color="#000" stop-opacity="0"/>
      <stop offset=".83" stop-color="#000"/>
    </linearGradient>
    <linearGradient id="uuid-0fef5543-10c0-415b-8a32-134246a704fe" x1="-3687.498" y1="-2990.574" x2="-3687.498" y2="-2984.574" gradientTransform="translate(3710.498 -2973.577) scale(1 -1)" xlink:href="#uuid-8d6d34b7-4bc4-44a7-96c9-0c44ffeb1967"/>
    <mask id="uuid-6f6038e4-d686-45d2-8a42-95ff322d1e89" data-name="mask" x="0" y="0" width="32" height="32" maskUnits="userSpaceOnUse">
      <g>
        <path d="M11.812,12.998h-4.812c-2.76.003-4.997,2.24-5,5v4h2v-4c.002-1.656,1.344-2.998,3-3h4.812v-2Z" fill="#fff"/>
        <path d="M20.176,12.998h4.789c2.76.003,4.997,2.24,5,5v4h-2v-4c-.002-1.656-1.344-2.998-3-3h-4.789v-2Z" fill="#fff"/>
        <path d="M17,18.995h-3.002c-2.76.003-4.997,2.24-5,5v5.005h2v-5.005c.002-1.656,1.344-2.998,3-3h3.002v-2Z" fill="#fff"/>
        <path d="M15,18.995h3c2.76.003,4.997,2.24,5,5v5.005h-2v-5.005c-.002-1.656-1.344-2.998-3-3h-3v-2Z" fill="#fff"/>
        <rect x="6.998" y="10.998" width="4" height="6" transform="translate(-5 22.995) rotate(-90)" fill="url(#uuid-8d6d34b7-4bc4-44a7-96c9-0c44ffeb1967)"/>
        <rect x="21" y="10.998" width="4" height="6" transform="translate(9.002 36.998) rotate(-90)" fill="url(#uuid-0fef5543-10c0-415b-8a32-134246a704fe)"/>
        <circle cx="8.998" cy="7" r="3" fill="none" stroke="#fff" stroke-miterlimit="10" stroke-width="2"/>
        <circle cx="23" cy="7" r="3" fill="none" stroke="#fff" stroke-miterlimit="10" stroke-width="2"/>
        <circle cx="15.998" cy="13.998" r="3" fill="none" stroke="#fff" stroke-miterlimit="10" stroke-width="2"/>
      </g>
    </mask>
    <linearGradient id="uuid-ac04ff29-8382-4470-9b1a-a7914e094747" x1="0" y1="32" x2="32" y2="0" gradientUnits="userSpaceOnUse">
      <stop offset=".1" stop-color="#a6c8ff"/>
      <stop offset=".9" stop-color="#4589ff"/>
    </linearGradient>
  </defs>
  <rect x="0" width="32" height="32" fill="none"/>
  <g>
    <g mask="url(#uuid-6f6038e4-d686-45d2-8a42-95ff322d1e89)">
      <rect width="32" height="32" fill="url(#uuid-ac04ff29-8382-4470-9b1a-a7914e094747)"/>
    </g>
    <path d="M17.38,23.6c-.415,0-.829.161-1.145.484l-.236.243-.238-.243c-.316-.322-.73-.484-1.145-.484s-.829.161-1.145.484c-.631.645-.631,1.693,0,2.338l2.528,2.579,2.525-2.579c.631-.645.631-1.693,0-2.338-.316-.322-.73-.484-1.145-.484h0Z" fill="#f4f4f4"/>
  </g>
</svg>