<svg xmlns="http://www.w3.org/2000/svg" viewBox="0 0 32 32"><defs><linearGradient id="87xq1z9wsa" x1="6" y1="25.5" x2="27" y2="25.5" gradientUnits="userSpaceOnUse"><stop offset=".1" stop-opacity="0"/><stop offset=".75"/></linearGradient><linearGradient id="s4fedb1e8c" y1="32" x2="32" gradientUnits="userSpaceOnUse"><stop offset=".2" stop-color="#8a3ffc"/><stop offset=".8" stop-color="#30b0ff"/></linearGradient><mask id="m6phg81znb" x="0" y="0" width="32" height="32" maskUnits="userSpaceOnUse"><path d="M15 29a9.011 9.011 0 0 1-9-9V7.618l9-4.5 11 5.5V6.382l-11-5.5-11 5.5V20a11 11 0 0 0 22 0h-2a9.011 9.011 0 0 1-9 9z" fill="#fff"/><path fill="url(#87xq1z9wsa)" d="M6 19h21v13H6z"/></mask></defs><g data-name="Layer 2"><g data-name="Dark theme icons"><g mask="url(#m6phg81znb)"><path fill="url(#s4fedb1e8c)" d="M0 0h32v32H0z"/></g><g fill="#f4f4f4"><circle cx="20" cy="19" r="2"/><path d="M28.749 18.473a9.729 9.729 0 0 0-17.5 0L11 19l.251.527a9.729 9.729 0 0 0 17.5 0L29 19zM20 23.838A4.838 4.838 0 1 1 24.838 19 4.843 4.843 0 0 1 20 23.838z"/></g></g></g></svg>