<svg xmlns="http://www.w3.org/2000/svg" viewBox="0 0 32 32"><defs><linearGradient id="f216ld44aa" x1="6" y1="25.5" x2="27" y2="25.5" gradientUnits="userSpaceOnUse"><stop offset=".1" stop-opacity="0"/><stop offset=".75"/></linearGradient><linearGradient id="1mj7jobguc" y1="32" x2="32" gradientUnits="userSpaceOnUse"><stop offset=".2" stop-color="#8a3ffc"/><stop offset=".8" stop-color="#30b0ff"/></linearGradient><mask id="k3el5sy9fb" x="0" y="0" width="32" height="32" maskUnits="userSpaceOnUse"><path d="M15 29a9.011 9.011 0 0 1-9-9V7.618l9-4.5 11 5.5V6.382l-11-5.5-11 5.5V20a11 11 0 0 0 22 0h-2a9.011 9.011 0 0 1-9 9z" fill="#fff"/><path fill="url(#f216ld44aa)" d="M6 19h21v13H6z"/></mask></defs><g data-name="Layer 2"><g data-name="Dark theme icons"><g mask="url(#k3el5sy9fb)"><path fill="url(#1mj7jobguc)" d="M0 0h32v32H0z"/></g><path d="m27.17 20-2.58 2.58L26 24l4-4-4-4-1.42 1.41L27.17 20zm-12.34 0 2.58-2.58L16 16l-4 4 4 4 1.42-1.41L14.83 20zm3.91 4.57 2.588-9.659 1.932.518-2.588 9.66z" fill="#f4f4f4"/></g></g></svg>