<svg xmlns="http://www.w3.org/2000/svg" xmlns:xlink="http://www.w3.org/1999/xlink" viewBox="0 0 32 32">
  <defs>
    <linearGradient id="bb14d075-e12b-4af2-bab9-7f568619a9a8" x1="6" y1="25.5" x2="27" y2="25.5" gradientUnits="userSpaceOnUse">
      <stop offset="0.1" stop-opacity="0"/>
      <stop offset="0.75"/>
    </linearGradient>
    <mask id="b6dc5513-5560-42b6-8946-8f4f96ba00e3" x="0" y="0" width="32" height="32" maskUnits="userSpaceOnUse">
      <g>
        <path d="M15,29a9.011,9.011,0,0,1-9-9V7.618l9-4.5,11,5.5V6.382L15,.882,4,6.382V20a11,11,0,0,0,22,0H24A9.011,9.011,0,0,1,15,29Z" fill="#fff"/>
        <rect x="6" y="19" width="21" height="13" fill="url(#bb14d075-e12b-4af2-bab9-7f568619a9a8)"/>
      </g>
    </mask>
    <linearGradient id="eede54e1-84e5-42fb-bc92-bf98a81729c5" y1="32" x2="32" gradientUnits="userSpaceOnUse">
      <stop offset="0.2" stop-color="#8a3ffc"/>
      <stop offset="0.8" stop-color="#30b0ff"/>
    </linearGradient>
  </defs>
  <g id="a9f94152-bb45-492f-8e4a-d7b4fd660d6a" data-name="Layer 2">
    <g id="f6f56d2c-8098-49bc-86d0-86e3c1f45494" data-name="Dark theme icons">
      <g>
        <g mask="url(#b6dc5513-5560-42b6-8946-8f4f96ba00e3)">
          <rect width="32" height="32" fill="url(#eede54e1-84e5-42fb-bc92-bf98a81729c5)"/>
        </g>
        <path d="M16,14H26a2,2,0,0,1,2,2v6a2,2,0,0,1-2,2H23.577l-1.731,3-1.733-1,2.31-4H26V16H16v6h3v2H16a2,2,0,0,1-2-2V16A2,2,0,0,1,16,14Z" fill="#f4f4f4"/>
      </g>
    </g>
  </g>
</svg>
