<svg xmlns="http://www.w3.org/2000/svg" viewBox="0 0 32 32"><defs><linearGradient id="fjbgtqtj3a" x1="6" y1="25.5" x2="27" y2="25.5" gradientUnits="userSpaceOnUse"><stop offset=".1" stop-opacity="0"/><stop offset=".75"/></linearGradient><linearGradient id="vu9rterb2c" y1="32" x2="32" gradientUnits="userSpaceOnUse"><stop offset=".2" stop-color="#8a3ffc"/><stop offset=".8" stop-color="#30b0ff"/></linearGradient><mask id="m1ppo5xyqb" x="0" y="0" width="32" height="32" maskUnits="userSpaceOnUse"><path d="M15 29a9.011 9.011 0 0 1-9-9V7.618l9-4.5 11 5.5V6.382l-11-5.5-11 5.5V20a11 11 0 0 0 22 0h-2a9.011 9.011 0 0 1-9 9z" fill="#fff"/><path fill="url(#fjbgtqtj3a)" d="M6 19h21v13H6z"/></mask></defs><g data-name="Layer 2"><g data-name="Dark theme icons"><g mask="url(#m1ppo5xyqb)"><path fill="url(#vu9rterb2c)" d="M0 0h32v32H0z"/></g><g fill="#f4f4f4"><circle cx="16" cy="13" r="2"/><circle cx="24" cy="13" r="2"/><path d="M27 22h-2v-4h-2.465L20 21.8 17.465 18H15v4h-2v-4a2 2 0 0 1 2-2h3.535L20 18.2l1.465-2.2H25a2 2 0 0 1 2 2zm-12 0h2v5h-2zm8 0h2v5h-2z"/></g></g></g></svg>