<svg xmlns="http://www.w3.org/2000/svg" viewBox="0 0 32 32"><defs><linearGradient id="5cllf9pera" x1="6" y1="25.5" x2="27" y2="25.5" gradientUnits="userSpaceOnUse"><stop offset=".1" stop-opacity="0"/><stop offset=".75"/></linearGradient><linearGradient id="pcj7lvkpkc" y1="32" x2="32" gradientUnits="userSpaceOnUse"><stop offset=".2" stop-color="#8a3ffc"/><stop offset=".8" stop-color="#30b0ff"/></linearGradient><mask id="87q3onmnub" x="0" y="0" width="32" height="32" maskUnits="userSpaceOnUse"><path d="M15 29a9.011 9.011 0 0 1-9-9V7.618l9-4.5 11 5.5V6.382l-11-5.5-11 5.5V20a11 11 0 0 0 22 0h-2a9.011 9.011 0 0 1-9 9z" fill="#fff"/><path fill="url(#5cllf9pera)" d="M6 19h21v13H6z"/></mask></defs><g data-name="Layer 2"><g data-name="Dark theme icons"><g mask="url(#87q3onmnub)"><path fill="url(#pcj7lvkpkc)" d="M0 0h32v32H0z"/></g><path d="M26.766 15.258A4.211 4.211 0 0 0 21 15.034a4.211 4.211 0 0 0-5.766.224 4.318 4.318 0 0 0 0 6.044L21 27.141l5.766-5.841a4.318 4.318 0 0 0 0-6.042zM25.342 19.9 21 24.294l-4.34-4.4a2.309 2.309 0 0 1 0-3.234 2.263 2.263 0 0 1 3.156 0L21 17.87v-.005.005l1.181-1.207a2.263 2.263 0 0 1 3.156 0 2.309 2.309 0 0 1 .005 3.237z" fill="#f4f4f4"/></g></g></svg>