<svg id="SecurityandComplianceCenter" xmlns="http://www.w3.org/2000/svg" xmlns:xlink="http://www.w3.org/1999/xlink" viewBox="0 0 32 32"><defs><linearGradient id="kdveqve7ba" x1="-2751.198" y1="497.517" x2="-2754.198" y2="497.517" gradientTransform="translate(2771.198 -482.017)" gradientUnits="userSpaceOnUse"><stop offset=".1" stop-opacity="0"/><stop offset=".8"/></linearGradient><linearGradient id="s7h39t7yhb" x1="-746.198" y1="-2354.481" x2="-739.198" y2="-2354.481" gradientTransform="translate(765.198 2368.981)" xlink:href="#kdveqve7ba"/><linearGradient id="0bgvfn65qc" x1="-750.198" y1="-2359.981" x2="-738.198" y2="-2359.981" gradientTransform="translate(772.198 2372.981)" xlink:href="#kdveqve7ba"/><linearGradient id="92wfx8ejpe" x1="-2454" y1="-2422" x2="-2422" y2="-2454" gradientTransform="matrix(1 0 0 -1 2454 -2422)" gradientUnits="userSpaceOnUse"><stop offset=".1" stop-color="#3ddbd9"/><stop offset=".9" stop-color="#4589ff"/></linearGradient><mask id="655a162pbd" x="0" y="0" width="32" height="32" maskUnits="userSpaceOnUse"><path d="M29.976 16c0-3.739-1.456-7.255-4.101-9.899S19.715 2 15.976 2 8.721 3.456 6.077 6.101c-5.459 5.459-5.459 14.34 0 19.798A14.044 14.044 0 0 0 16 29.995v-2.001a12.04 12.04 0 0 1-8.509-3.51c-4.679-4.679-4.679-12.292 0-16.971 2.267-2.267 5.28-3.515 8.485-3.515s6.219 1.248 8.485 3.515 3.515 5.28 3.515 8.485c0 1.308-.218 2.58-.618 3.786l1.897.632c.467-1.408.722-2.892.722-4.418z" style="fill:#fff"/><path d="M24.7 13.675a8.94 8.94 0 0 0-4.193-5.465 8.942 8.942 0 0 0-6.83-.899 8.971 8.971 0 0 0-5.461 4.195 8.98 8.98 0 0 0-.903 6.828c1.077 4.016 4.722 6.66 8.695 6.661v-1.998c-3.09-.001-5.926-2.058-6.763-5.181a7.01 7.01 0 0 1 4.95-8.574 6.958 6.958 0 0 1 5.312.699 6.954 6.954 0 0 1 3.261 4.25c.359 1.342.275 2.732-.154 4.013l1.909.636a8.959 8.959 0 0 0 .176-5.167z" style="fill:#fff"/><path d="M14 16c0-1.103.897-2 2-2s2 .897 2 2a2 2 0 0 1-.111.63l1.889.63c.133-.398.222-.817.222-1.259a4 4 0 1 0-4 4v-2c-1.103 0-2-.897-2-2z" style="fill:#fff"/><path transform="rotate(-90 18.5 15.5)" style="fill:url(#kdveqve7ba)" d="M17 14h3v3h-3z"/><path transform="rotate(90 22.5 14.5)" style="fill:url(#s7h39t7yhb)" d="M19 12h7v5h-7z"/><path transform="rotate(90 28 13)" style="fill:url(#0bgvfn65qc)" d="M22 10h12v6H22z"/><path d="M25 19h6v4h-6zM20 18h5v5h-5zM17 17h3v6h-3z"/></mask></defs><path style="fill:none" d="M0 0h32v32H0z"/><path id="uuid-5583044b-ff24-4e27-9054-24043addfc06" d="m25 31.001-2.139-1.013A5.022 5.022 0 0 1 20 25.468V19h10v6.468a5.023 5.023 0 0 1-2.861 4.52L25 31.001zm-3-10v4.468c0 1.153.674 2.218 1.717 2.711l1.283.607 1.283-.607A3.012 3.012 0 0 0 28 25.469v-4.468h-6z" style="fill:#f4f4f4"/><g style="mask:url(#655a162pbd)"><path transform="rotate(-90 16 16)" style="fill:url(#92wfx8ejpe)" d="M0 0h32v32H0z"/></g></svg>