<svg xmlns="http://www.w3.org/2000/svg" viewBox="0 0 32 32"><defs><linearGradient id="dmnlyptida" x1="6" y1="25.5" x2="27" y2="25.5" gradientUnits="userSpaceOnUse"><stop offset=".1" stop-opacity="0"/><stop offset=".75"/></linearGradient><linearGradient id="fpzbr9otjc" y1="32" x2="32" gradientUnits="userSpaceOnUse"><stop offset=".2" stop-color="#8a3ffc"/><stop offset=".8" stop-color="#30b0ff"/></linearGradient><mask id="7esvg8re7b" x="0" y="0" width="32" height="32" maskUnits="userSpaceOnUse"><path d="M15 29a9.011 9.011 0 0 1-9-9V7.618l9-4.5 11 5.5V6.382l-11-5.5-11 5.5V20a11 11 0 0 0 22 0h-2a9.011 9.011 0 0 1-9 9z" fill="#fff"/><path fill="url(#dmnlyptida)" d="M6 19h21v13H6z"/></mask></defs><g data-name="Layer 2"><g data-name="Dark theme icons"><g mask="url(#7esvg8re7b)"><path fill="url(#fpzbr9otjc)" d="M0 0h32v32H0z"/></g><path d="M25 20a2.964 2.964 0 0 0-1.855.661L21 19.422v-1.606a3 3 0 1 0-2 0v1.606l-2.145 1.239A2.964 2.964 0 0 0 15 20a3 3 0 1 0 3 3 2.937 2.937 0 0 0-.075-.647L20 21.155l2.075 1.2A2.937 2.937 0 0 0 22 23a3 3 0 1 0 3-3zm-10 4a1 1 0 1 1 1-1 1 1 0 0 1-1 1zm5-10a1 1 0 1 1-1 1 1 1 0 0 1 1-1zm5 10a1 1 0 1 1 1-1 1 1 0 0 1-1 1z" fill="#f4f4f4"/></g></g></svg>