<svg xmlns="http://www.w3.org/2000/svg" xmlns:xlink="http://www.w3.org/1999/xlink" viewBox="0 0 32 32">
  <defs>
    <linearGradient id="e7aee6ba-943b-4153-9dee-39cbfd6f9bbf" x1="6" y1="25.5" x2="27" y2="25.5" gradientUnits="userSpaceOnUse">
      <stop offset="0.1" stop-opacity="0"/>
      <stop offset="0.75"/>
    </linearGradient>
    <mask id="f0fe0e3e-e68d-42ec-841e-f02e0f3f5848" x="0" y="0" width="32" height="32" maskUnits="userSpaceOnUse">
      <g>
        <path d="M15,29a9.011,9.011,0,0,1-9-9V7.618l9-4.5,11,5.5V6.382L15,.882,4,6.382V20a11,11,0,0,0,22,0H24A9.011,9.011,0,0,1,15,29Z" fill="#fff"/>
        <rect x="6" y="19" width="21" height="13" fill="url(#e7aee6ba-943b-4153-9dee-39cbfd6f9bbf)"/>
      </g>
    </mask>
    <linearGradient id="ee5ba309-87e3-47b1-b6b9-c04de795d9e8" y1="32" x2="32" gradientUnits="userSpaceOnUse">
      <stop offset="0.2" stop-color="#8a3ffc"/>
      <stop offset="0.8" stop-color="#30b0ff"/>
    </linearGradient>
  </defs>
  <g id="b0d8afa8-66c7-4756-83a1-6a3459ccae5a" data-name="Layer 2">
    <g id="a469e69e-dfc8-4509-8473-1b3c8bde8295" data-name="Dark theme icons">
      <g>
        <g mask="url(#f0fe0e3e-e68d-42ec-841e-f02e0f3f5848)">
          <rect width="32" height="32" fill="url(#ee5ba309-87e3-47b1-b6b9-c04de795d9e8)"/>
        </g>
        <path d="M26,20a4.907,4.907,0,0,0-.278-1.571l1.84-1.063-1-1.732L24.723,16.7A4.979,4.979,0,0,0,22,15.1V13H20v2.1a4.979,4.979,0,0,0-2.723,1.6l-1.839-1.062-1,1.732,1.84,1.063a4.581,4.581,0,0,0,0,3.143l-1.84,1.062,1,1.732L17.277,23.3A4.979,4.979,0,0,0,20,24.9V27h2V24.9a4.979,4.979,0,0,0,2.723-1.6l1.839,1.062,1-1.732-1.84-1.062A4.913,4.913,0,0,0,26,20Zm-5,3a3,3,0,1,1,3-3A3,3,0,0,1,21,23Z" fill="#f4f4f4"/>
      </g>
    </g>
  </g>
</svg>
