<svg xmlns="http://www.w3.org/2000/svg" xmlns:xlink="http://www.w3.org/1999/xlink" viewBox="0 0 32 32">
  <defs>
    <linearGradient id="b48074c7-2f6d-40b3-84a3-4916bc55c85b" x1="6" y1="25.5" x2="27" y2="25.5" gradientUnits="userSpaceOnUse">
      <stop offset="0.1" stop-opacity="0"/>
      <stop offset="0.75"/>
    </linearGradient>
    <mask id="ee5afe35-acc1-4683-88d4-dc0b46eac1f3" x="0" y="0" width="32" height="32" maskUnits="userSpaceOnUse">
      <g>
        <path d="M15,29a9.011,9.011,0,0,1-9-9V7.618l9-4.5,11,5.5V6.382L15,.882,4,6.382V20a11,11,0,0,0,22,0H24A9.011,9.011,0,0,1,15,29Z" fill="#fff"/>
        <rect x="6" y="19" width="21" height="13" fill="url(#b48074c7-2f6d-40b3-84a3-4916bc55c85b)"/>
      </g>
    </mask>
    <linearGradient id="ee628fb7-282a-4ede-afcd-6158435c3327" y1="32" x2="32" gradientUnits="userSpaceOnUse">
      <stop offset="0.2" stop-color="#8a3ffc"/>
      <stop offset="0.8" stop-color="#30b0ff"/>
    </linearGradient>
  </defs>
  <g id="be2fd637-acec-4c7e-ae80-64babf3ceab5" data-name="Layer 2">
    <g id="e295dc04-53c5-4f13-a2ef-7230c20d8648" data-name="Dark theme icons">
      <g>
        <g mask="url(#ee5afe35-acc1-4683-88d4-dc0b46eac1f3)">
          <rect width="32" height="32" fill="url(#ee628fb7-282a-4ede-afcd-6158435c3327)"/>
        </g>
        <rect x="16" y="21" width="4" height="4" fill="#f4f4f4"/>
        <rect x="23" y="21" width="4" height="4" fill="#f4f4f4"/>
        <rect x="16" y="14" width="4" height="4" fill="#f4f4f4"/>
        <rect x="23" y="14" width="4" height="4" fill="#f4f4f4"/>
      </g>
    </g>
  </g>
</svg>
