<svg xmlns="http://www.w3.org/2000/svg" viewBox="0 0 32 32"><defs><linearGradient id="pwdysbpnja" x1="6" y1="25.5" x2="27" y2="25.5" gradientUnits="userSpaceOnUse"><stop offset=".1" stop-opacity="0"/><stop offset=".75"/></linearGradient><linearGradient id="b54yfs7hxc" y1="32" x2="32" gradientUnits="userSpaceOnUse"><stop offset=".2" stop-color="#8a3ffc"/><stop offset=".8" stop-color="#30b0ff"/></linearGradient><mask id="m19tvsbckb" x="0" y="0" width="32" height="32" maskUnits="userSpaceOnUse"><path d="M15 29a9.011 9.011 0 0 1-9-9V7.618l9-4.5 11 5.5V6.382l-11-5.5-11 5.5V20a11 11 0 0 0 22 0h-2a9.011 9.011 0 0 1-9 9z" fill="#fff"/><path fill="url(#pwdysbpnja)" d="M6 19h21v13H6z"/></mask></defs><g data-name="Layer 2"><g data-name="Dark theme icons"><g mask="url(#m19tvsbckb)"><path fill="url(#b54yfs7hxc)" d="M0 0h32v32H0z"/></g><path d="M26 12h-8a2 2 0 0 0-2 2v10a2 2 0 0 0 2 2h8a2 2 0 0 0 2-2V14a2 2 0 0 0-2-2zm-4 2a2.5 2.5 0 1 1-2.5 2.5A2.5 2.5 0 0 1 22 14zm4 10h-8v-2a2 2 0 0 1 2-2h4a2 2 0 0 1 2 2z" fill="#f4f4f4"/></g></g></svg>