<svg xmlns="http://www.w3.org/2000/svg" viewBox="0 0 32 32"><defs><linearGradient id="czu9np7cja" x1="6" y1="25.5" x2="27" y2="25.5" gradientUnits="userSpaceOnUse"><stop offset=".1" stop-opacity="0"/><stop offset=".75"/></linearGradient><linearGradient id="vqhibwhaec" y1="32" x2="32" gradientUnits="userSpaceOnUse"><stop offset=".2" stop-color="#8a3ffc"/><stop offset=".8" stop-color="#30b0ff"/></linearGradient><mask id="4240zbkogb" x="0" y="0" width="32" height="32" maskUnits="userSpaceOnUse"><path d="M15 29a9.011 9.011 0 0 1-9-9V7.618l9-4.5 11 5.5V6.382l-11-5.5-11 5.5V20a11 11 0 0 0 22 0h-2a9.011 9.011 0 0 1-9 9z" fill="#fff"/><path fill="url(#czu9np7cja)" d="M6 19h21v13H6z"/></mask></defs><g data-name="Layer 2"><g data-name="Dark theme icons"><g mask="url(#4240zbkogb)"><path fill="url(#vqhibwhaec)" d="M0 0h32v32H0z"/></g><path d="M28 20a7 7 0 1 0-7 7v-2a5 5 0 1 1 5-5 4.9 4.9 0 0 1-.844 2.742l-3.449-3.449a1 1 0 0 0-1.414 1.414L26.586 27 28 25.586l-1.4-1.4A6.931 6.931 0 0 0 28 20z" fill="#f4f4f4"/></g></g></svg>