<svg xmlns="http://www.w3.org/2000/svg" viewBox="0 0 32 32"><defs><linearGradient id="mpcp5ms5ja" x1="7" y1="25.5" x2="28" y2="25.5" gradientUnits="userSpaceOnUse"><stop offset=".1" stop-opacity="0"/><stop offset=".75"/></linearGradient><linearGradient id="zuya7x1j0c" y1="32" x2="32" gradientUnits="userSpaceOnUse"><stop offset=".2" stop-color="#8a3ffc"/><stop offset=".8" stop-color="#30b0ff"/></linearGradient><mask id="n0s6c970db" x="0" y="0" width="32" height="32" maskUnits="userSpaceOnUse"><path d="M16 29a9.011 9.011 0 0 1-9-9V7.618l9-4.5 11 5.5V6.382l-11-5.5-11 5.5V20a11 11 0 0 0 22 0h-2a9.011 9.011 0 0 1-9 9z" fill="#fff"/><path fill="url(#mpcp5ms5ja)" d="M7 19h21v13H7z"/></mask></defs><g data-name="Layer 2"><g data-name="Dark theme icons"><g mask="url(#n0s6c970db)"><path fill="url(#zuya7x1j0c)" d="M0 0h32v32H0z"/></g><path d="M23 13a7 7 0 0 0-6 3.413V13h-2v7h6.445v-2h-3.021a4.993 4.993 0 1 1 1.04 5.536L18.05 24.95A7 7 0 1 0 23 13z" fill="#f4f4f4"/></g></g></svg>