<svg xmlns="http://www.w3.org/2000/svg" xmlns:xlink="http://www.w3.org/1999/xlink" viewBox="0 0 32 32">
  <defs>
    <linearGradient id="fc0c9d7d-3187-4008-8f4b-621beb0f2cce" x1="6" y1="25.5" x2="27" y2="25.5" gradientUnits="userSpaceOnUse">
      <stop offset="0.1" stop-opacity="0"/>
      <stop offset="0.75"/>
    </linearGradient>
    <mask id="ee7c482d-49d0-4c2c-a57c-16789cbc0757" x="0" y="0" width="32" height="32" maskUnits="userSpaceOnUse">
      <g>
        <path d="M15,29a9.011,9.011,0,0,1-9-9V7.618l9-4.5,11,5.5V6.382L15,.882,4,6.382V20a11,11,0,0,0,22,0H24A9.011,9.011,0,0,1,15,29Z" fill="#fff"/>
        <rect x="6" y="19" width="21" height="13" fill="url(#fc0c9d7d-3187-4008-8f4b-621beb0f2cce)"/>
      </g>
    </mask>
    <linearGradient id="a7c464ae-51ab-432a-b129-a4024483f460" y1="32" x2="32" gradientUnits="userSpaceOnUse">
      <stop offset="0.2" stop-color="#8a3ffc"/>
      <stop offset="0.8" stop-color="#30b0ff"/>
    </linearGradient>
  </defs>
  <g id="bb129a62-821b-4cc0-87d2-afdc9785a70a" data-name="Layer 2">
    <g id="f043cbf0-184d-4ac4-b8de-49300db583be" data-name="Dark theme icons">
      <g>
        <g mask="url(#ee7c482d-49d0-4c2c-a57c-16789cbc0757)">
          <rect width="32" height="32" fill="url(#a7c464ae-51ab-432a-b129-a4024483f460)"/>
        </g>
        <g>
          <circle cx="16" cy="16.002" r="1" fill="#f4f4f4"/>
          <rect x="19" y="15" width="8" height="2.004" fill="#f4f4f4"/>
          <circle cx="16" cy="23.998" r="1" fill="#f4f4f4"/>
          <rect x="19" y="22.996" width="8" height="2.004" fill="#f4f4f4"/>
          <g>
            <circle cx="26" cy="20" r="1" fill="#f4f4f4"/>
            <rect x="15" y="18.998" width="8" height="2.004" fill="#f4f4f4"/>
          </g>
        </g>
      </g>
    </g>
  </g>
</svg>
