<svg id="QRadarUserBehaviorAnalytics" xmlns="http://www.w3.org/2000/svg" viewBox="0 0 32 32"><defs><linearGradient id="scskkne3ua" x1="6" y1="25.5" x2="27" y2="25.5" gradientUnits="userSpaceOnUse"><stop offset=".1" stop-opacity="0"/><stop offset=".75"/></linearGradient><linearGradient id="ous5rlw6zc" x1="0" y1="32" x2="32" y2="0" gradientUnits="userSpaceOnUse"><stop offset=".2" stop-color="#a56eff"/><stop offset=".8" stop-color="#82cfff"/></linearGradient><mask id="a51wn8qiub" x="0" y="0" width="32" height="32" maskUnits="userSpaceOnUse"><path d="M15 29c-4.962 0-9-4.038-9-9V7.618l9-4.5 11 5.5V6.382l-11-5.5-11 5.5V20c0 6.065 4.935 11 11 11s11-4.935 11-11h-2c0 4.962-4.038 9-9 9z" style="fill:#fff;stroke-width:0"/><path style="fill:url(#scskkne3ua);stroke-width:0" d="M6 19h21v13H6z"/></mask></defs><path style="fill:none;stroke-width:0" d="M0 0h32v32H0z"/><g style="mask:url(#a51wn8qiub)"><path style="fill:url(#ous5rlw6zc);stroke-width:0" d="M0 0h32v32H0z"/></g><path style="fill:#f4f4f4;stroke-width:0" d="M22 22h2v5h-2zM18 24h2v3h-2zM26 18h2v9h-2z"/><g><path d="M21 20h-6v3h-2v-3c0-1.103.897-2 2-2h6v2zM17.5 17c-1.93 0-3.5-1.57-3.5-3.5s1.57-3.5 3.5-3.5 3.5 1.57 3.5 3.5-1.57 3.5-3.5 3.5zm0-5c-.827 0-1.5.673-1.5 1.5s.673 1.5 1.5 1.5 1.5-.673 1.5-1.5-.673-1.5-1.5-1.5z" style="fill:#f4f4f4;stroke-width:0"/></g></svg>