<svg id="SecurityCases" xmlns="http://www.w3.org/2000/svg" viewBox="0 0 32 32"><defs><linearGradient id="dm4jgbptsa" x1="6" y1="25.5" x2="27" y2="25.5" gradientUnits="userSpaceOnUse"><stop offset=".1" stop-opacity="0"/><stop offset=".75"/></linearGradient><linearGradient id="c1f1p22yuc" x1="0" y1="32" x2="32" y2="0" gradientUnits="userSpaceOnUse"><stop offset=".2" stop-color="#a56eff"/><stop offset=".8" stop-color="#82cfff"/></linearGradient><mask id="zp7a283rwb" x="0" y="0" width="32" height="32" maskUnits="userSpaceOnUse"><path d="M15 29c-4.962 0-9-4.038-9-9V7.618l9-4.5 11 5.5V6.382l-11-5.5-11 5.5V20c0 6.065 4.935 11 11 11s11-4.935 11-11h-2c0 4.962-4.038 9-9 9z" style="fill:#fff;stroke-width:0"/><path style="fill:url(#dm4jgbptsa);stroke-width:0" d="M6 19h21v13H6z"/></mask></defs><path style="fill:none;stroke-width:0" d="M0 0h32v32H0z"/><g style="mask:url(#zp7a283rwb)"><path style="fill:url(#c1f1p22yuc);stroke-width:0" d="M0 0h32v32H0z"/></g><path d="M28 25H15a1 1 0 0 1-1-1V13a1 1 0 0 1 1-1h4c.265 0 .52.105.707.293L21.414 14H28a1 1 0 0 1 1 1v9a1 1 0 0 1-1 1zm-12-2h11v-7h-6a.997.997 0 0 1-.707-.293L18.586 14H16v9z" style="fill:#f4f4f4;stroke-width:0"/></svg>