<svg id="SecurityVerify" xmlns="http://www.w3.org/2000/svg" viewBox="0 0 32 32"><defs><linearGradient id="tykqrajera" x1="6" y1="25.5" x2="27" y2="25.5" gradientUnits="userSpaceOnUse"><stop offset=".1" stop-opacity="0"/><stop offset=".75"/></linearGradient><linearGradient id="3egto2r2ec" x1="0" y1="32" x2="32" y2="0" gradientUnits="userSpaceOnUse"><stop offset=".2" stop-color="#a56eff"/><stop offset=".8" stop-color="#82cfff"/></linearGradient><mask id="jk85tt5g9b" x="0" y="0" width="32" height="32" maskUnits="userSpaceOnUse"><path d="M15 29c-4.962 0-9-4.038-9-9V7.618l9-4.5 11 5.5V6.382l-11-5.5-11 5.5V20c0 6.065 4.935 11 11 11s11-4.935 11-11h-2c0 4.962-4.038 9-9 9z" style="fill:#fff;stroke-width:0"/><path style="fill:url(#tykqrajera);stroke-width:0" d="M6 19h21v13H6z"/></mask></defs><path style="fill:none;stroke-width:0" d="M0 0h32v32H0z"/><g style="mask:url(#jk85tt5g9b)"><path style="fill:url(#3egto2r2ec);stroke-width:0" d="M0 0h32v32H0z"/></g><path d="M20 27c-4.411 0-8-3.589-8-8s3.589-8 8-8 8 3.589 8 8-3.589 8-8 8zm0-14c-3.309 0-6 2.691-6 6s2.691 6 6 6 6-2.691 6-6-2.691-6-6-6z" style="fill:#f4f4f4;stroke-width:0"/><path style="fill:#f4f4f4;stroke-width:0" d="M19 19.586 17.414 18 16 19.414l3 3 5-5L22.586 16 19 19.586z"/></svg>