<svg xmlns="http://www.w3.org/2000/svg" viewBox="0 0 32 32"><defs><linearGradient id="SecurityVerify_svg__a" x1="6" y1="25.5" x2="27" y2="25.5" gradientUnits="userSpaceOnUse"><stop offset=".1" stop-opacity="0"/><stop offset=".75"/></linearGradient><linearGradient id="SecurityVerify_svg__c" y1="32" x2="32" gradientUnits="userSpaceOnUse"><stop offset=".2" stop-color="#8a3ffc"/><stop offset=".8" stop-color="#30b0ff"/></linearGradient><mask id="SecurityVerify_svg__b" x="0" y="0" width="32" height="32" maskUnits="userSpaceOnUse"><path d="M15 29a9.011 9.011 0 01-9-9V7.618l9-4.5 11 5.5V6.382l-11-5.5-11 5.5V20a11 11 0 0022 0h-2a9.011 9.011 0 01-9 9z" fill="#fff"/><path fill="url(#SecurityVerify_svg__a)" d="M6 19h21v13H6z"/></mask></defs><g data-name="Layer 2"><g data-name="Dark theme icons"><g mask="url(#SecurityVerify_svg__b)"><path fill="url(#SecurityVerify_svg__c)" d="M0 0h32v32H0z"/></g><path d="M20 27a8 8 0 118-8 8.009 8.009 0 01-8 8zm0-14a6 6 0 106 6 6.006 6.006 0 00-6-6z" fill="#f4f4f4"/><path fill="#f4f4f4" d="M19 19.586L17.414 18 16 19.414l3 3 5-5L22.586 16 19 19.586z"/></g></g></svg>