<svg id="SoftwareSupport" xmlns="http://www.w3.org/2000/svg" xmlns:xlink="http://www.w3.org/1999/xlink" viewBox="0 0 32 32"><defs><linearGradient id="cwib8d2eta" x1="8" y1="7.5" x2="17" y2="7.5" gradientTransform="matrix(1 0 0 -1 0 34)" gradientUnits="userSpaceOnUse"><stop offset="0" stop-opacity="0"/><stop offset=".9"/></linearGradient><linearGradient id="9db7rc6wab" x1="-2096" y1="1160.5" x2="-2087" y2="1160.5" gradientTransform="matrix(-1 0 0 1 -2074 -1155)" xlink:href="#cwib8d2eta"/><linearGradient id="8eo9wtvqrd" x1="0" y1="32" x2="32" y2="0" gradientUnits="userSpaceOnUse"><stop offset=".1" stop-color="#ff74b7"/><stop offset=".9" stop-color="#ad6bff"/></linearGradient><mask id="2losk1i7ac" x="0" y="0" width="32" height="32" maskUnits="userSpaceOnUse"><g id="_1e0oeskkac" data-name="1e0oeskkac"><path d="M28 12h-2v-1c0-2.757-2.243-5-5-5h-7V4h7c3.86 0 7 3.14 7 7v1zM16 28h-5c-3.86 0-7-3.14-7-7v-1h2v1c0 2.757 2.243 5 5 5h5v2z" style="fill:#fff"/><path d="M8 24h9v5H8v-5z" style="fill:url(#cwib8d2eta)"/><path d="M22 8h-9V3h9v5z" style="fill:url(#9db7rc6wab)"/></g></mask></defs><g style="mask:url(#2losk1i7ac)"><path style="fill:url(#8eo9wtvqrd)" d="M0 0h32v32H0z"/></g><path d="M2 14v2h2v-2a1 1 0 0 1 1-1h6a1 1 0 0 1 1 1v2h2v-2a3 3 0 0 0-3-3H5a3 3 0 0 0-3 3zM8 2a4 4 0 1 0 0 8 4 4 0 0 0 0-8zm0 6a2 2 0 0 1-.091-3.999h.089A2 2 0 0 1 7.999 8zM27 25h-6a3 3 0 0 0-3 3v2h2v-2a1 1 0 0 1 1-1h6a1 1 0 0 1 1 1v2h2v-2a3 3 0 0 0-3-3zM24 24v-2a2 2 0 0 1 0-4c.553 0 1.039.237 1.4.6l1.4-1.4c-.721-.727-1.695-1.2-2.8-1.2a4 4 0 0 0 0 8zM27 23h-1a1 1 0 0 1 0-2h1v-2h2v2a2 2 0 0 1-2 2z" style="fill:#f4f4f4"/></svg>