<svg id="zSoftCap" xmlns="http://www.w3.org/2000/svg" viewBox="0 0 32 32"><defs><linearGradient id="l4a5xxo0ta" x1="-769.874" y1="23.129" x2="-761.135" y2="23.129" gradientTransform="matrix(0 -1 -1 0 52.129 -749.874)" gradientUnits="userSpaceOnUse"><stop offset=".2"/><stop offset=".9" stop-opacity="0"/></linearGradient><linearGradient id="h1yg37oeec" x1="0" y1="32" x2="32" y2="0" gradientUnits="userSpaceOnUse"><stop offset=".1" stop-color="#be95ff"/><stop offset=".9" stop-color="#4589ff"/></linearGradient><mask id="oh1jtm8tab" x="0" y="0" width="32" height="32" maskUnits="userSpaceOnUse"><path d="M13 3H4a2 2 0 0 0-2 2v22a2 2 0 0 0 2 2h9a2 2 0 0 0 2-2V5a2 2 0 0 0-2-2zm0 7.037L6.075 5H13v5.037zM4.7 20l8.3-6.036v12.073l-8.3-6.036zm7.6-8L4 18.036V5.964L12.3 12zM4 21.963 10.925 27H4v-5.037zM19 29h-2V5a2 2 0 0 1 2-2h9a2 2 0 0 1 2 2v14h-2V5h-9v24z" style="fill:#fff"/><path d="M27 20.001v-8.74h4v8.74h-4z" style="fill:url(#l4a5xxo0ta)"/></mask></defs><path style="fill:none" d="M0 0h32v32H0z"/><g style="mask:url(#oh1jtm8tab)"><path style="fill:url(#h1yg37oeec)" d="M0 0h32v32H0z"/></g><path style="fill:#f4f4f4" d="m25 26.185-2.59-2.59-1.41 1.41 4 4 7-7-1.41-1.41-5.59 5.59z"/></svg>