<svg xmlns="http://www.w3.org/2000/svg" xmlns:xlink="http://www.w3.org/1999/xlink" viewBox="0 0 32 32">
  <defs>
    <linearGradient id="fd11d461-7b1c-46ed-ae45-368d48c24b5b" x1="13" y1="26" x2="24" y2="26" gradientUnits="userSpaceOnUse">
      <stop offset="0.3" stop-color="#fff"/>
      <stop offset="0.8" stop-color="#fff" stop-opacity="0"/>
    </linearGradient>
    <linearGradient id="efe5db41-7e37-4dd8-a055-ec4fb0b8ff7d" x1="13" y1="6" x2="24" y2="6" xlink:href="#fd11d461-7b1c-46ed-ae45-368d48c24b5b"/>
    <linearGradient id="bdd78cf2-cb6a-4089-8b91-1b0754efb3e2" x1="19" y1="16" x2="30" y2="16" xlink:href="#fd11d461-7b1c-46ed-ae45-368d48c24b5b"/>
    <mask id="ad9c827c-1cb1-41e7-9a99-42a6f604df94" x="0" y="0" width="32" height="32" maskUnits="userSpaceOnUse">
      <rect x="13" y="25" width="11" height="2" fill="url(#fd11d461-7b1c-46ed-ae45-368d48c24b5b)"/>
      <rect x="13" y="5" width="11" height="2" fill="url(#efe5db41-7e37-4dd8-a055-ec4fb0b8ff7d)"/>
      <rect x="19" y="15" width="11" height="2" fill="url(#bdd78cf2-cb6a-4089-8b91-1b0754efb3e2)"/>
      <path d="M23.864,28.5,22.136,27.5,28.842,16,22.136,4.5,23.864,3.5l7,12a1,1,0,0,1,0,1.008Z" fill="#fff"/>
    </mask>
    <linearGradient id="e576b8d9-42d5-4d1f-b23d-2ef86db61fde" y1="32" x2="32" gradientUnits="userSpaceOnUse">
      <stop offset="0.1" stop-color="#82cfff"/>
      <stop offset="0.9" stop-color="#ee5396"/>
    </linearGradient>
  </defs>
  <g id="a0265a1f-5a7b-4eb6-b630-312ccca27a1d" data-name="Layer 2">
    <g id="b9af067c-ec93-4d56-b1b3-9a42185b6291" data-name="Dark theme icons">
      <g>
        <g mask="url(#ad9c827c-1cb1-41e7-9a99-42a6f604df94)">
          <rect width="32" height="32" fill="url(#e576b8d9-42d5-4d1f-b23d-2ef86db61fde)"/>
        </g>
        <circle cx="3" cy="16" r="2" fill="#f4f4f4"/>
        <circle cx="15" cy="16" r="2" fill="#f4f4f4"/>
        <circle cx="9" cy="6" r="2" fill="#f4f4f4"/>
        <circle cx="9" cy="26" r="2" fill="#f4f4f4"/>
      </g>
    </g>
  </g>
</svg>
