<svg xmlns="http://www.w3.org/2000/svg" xmlns:xlink="http://www.w3.org/1999/xlink" viewBox="0 0 32 32"><defs><linearGradient id="t59h430koa" x1="8" y1="24" x2="8" y2="8" gradientUnits="userSpaceOnUse"><stop offset=".1"/><stop offset=".7" stop-opacity="0"/></linearGradient><linearGradient id="67lm8pdj9c" x1="-4548" y1="-6698" x2="-4548" y2="-6714" gradientTransform="rotate(180 -2262 -3345)" xlink:href="#t59h430koa"/><linearGradient id="44ecqdn1vb" x1="28" y1="28" x2="28" y2="10" gradientUnits="userSpaceOnUse"><stop offset=".05"/><stop offset=".5" stop-opacity="0"/></linearGradient><linearGradient id="4idys3r6xd" x1="-4568" y1="-6692" x2="-4568" y2="-6710" gradientTransform="translate(4572 6714)" xlink:href="#44ecqdn1vb"/><linearGradient id="wxcgzrpvff" y1="32" x2="32" gradientUnits="userSpaceOnUse"><stop offset=".1" stop-color="#3ddbd9"/><stop offset=".9" stop-color="#4589ff"/></linearGradient><mask id="hepmdjbcpe" x="0" y="0" width="32" height="32" maskUnits="userSpaceOnUse"><path d="M16 31a1 1 0 0 1-.5-.136l-12-7A1 1 0 0 1 3 23V5h2v17.426l11 6.416 7-4.083V9h2v16.333a1 1 0 0 1-.5.864l-8 4.667A1 1 0 0 1 16 31z" fill="#fff"/><path d="M29 27h-2V9.574L16 3.158 9 7.241V23H7V6.667a1 1 0 0 1 .5-.867l8-4.667a1 1 0 0 1 1.008 0l12 7A1 1 0 0 1 29 9z" fill="#fff"/><path fill="url(#t59h430koa)" d="M10 8H6v14l1 1 3 1V8z"/><path fill="url(#67lm8pdj9c)" d="M22 24h4V10l-1-1-3-1v16z"/><path fill="url(#44ecqdn1vb)" d="M26 10h4v18h-4z"/><path transform="rotate(180 4 13)" fill="url(#4idys3r6xd)" d="M2 4h4v18H2z"/></mask></defs><g data-name="Layer 2"><g data-name="Build icon here"><g mask="url(#hepmdjbcpe)"><path fill="url(#wxcgzrpvff)" d="M0 0h32v32H0z"/></g><path d="M20 16a3.958 3.958 0 0 0-.161-1.061l1.861-1.074-1-1.732-1.851 1.067A3.991 3.991 0 0 0 17 12.141V10h-2v2.142a3.991 3.991 0 0 0-1.849 1.058L11.3 12.133l-1 1.732 1.857 1.073a3.58 3.58 0 0 0 0 2.123L10.3 18.133l1 1.732 1.851-1.065A3.991 3.991 0 0 0 15 19.857V22h2v-2.143a3.991 3.991 0 0 0 1.849-1.057l1.851 1.065 1-1.732-1.857-1.072A3.971 3.971 0 0 0 20 16zm-4 2a2 2 0 1 1 2-2 2 2 0 0 1-2 2z" fill="#f4f4f4"/></g></g></svg>