<svg xmlns="http://www.w3.org/2000/svg" xmlns:xlink="http://www.w3.org/1999/xlink" viewBox="0 0 32 32">
  <defs>
    <linearGradient id="e390d146-9daa-4bc6-81c1-a3d357d94f08" x1="6.061" y1="16" x2="31.061" y2="16" gradientUnits="userSpaceOnUse">
      <stop offset="0" stop-color="#fff" stop-opacity="0"/>
      <stop offset="0.4" stop-color="#fff"/>
    </linearGradient>
    <mask id="be237dfd-16dc-4eb2-b36d-de7efde43eed" x="0" y="0" width="32" height="32" maskUnits="userSpaceOnUse">
      <path d="M23.061,29h-17V27H22.487L28.9,16,22.487,5H6.061V3h17a1,1,0,0,1,.864.5l7,12a1,1,0,0,1,0,1.008l-7,12A1,1,0,0,1,23.061,29Z" fill="url(#e390d146-9daa-4bc6-81c1-a3d357d94f08)"/>
    </mask>
    <linearGradient id="b5639e88-1f26-4d79-911a-3e327bb9d07b" y1="32" x2="32" gradientUnits="userSpaceOnUse">
      <stop offset="0.1" stop-color="#be95ff"/>
      <stop offset="0.9" stop-color="#fa4d56"/>
    </linearGradient>
  </defs>
  <g id="adf12f5f-1288-4df4-a7ff-8bd61ede55d6" data-name="Layer 2">
    <g id="ba19c874-7624-496f-ab34-12d530af0d03" data-name="Dark theme icons">
      <g>
        <g mask="url(#be237dfd-16dc-4eb2-b36d-de7efde43eed)">
          <rect width="32" height="32" fill="url(#b5639e88-1f26-4d79-911a-3e327bb9d07b)"/>
        </g>
        <path d="M16,21a5,5,0,1,1,5-5A5.006,5.006,0,0,1,16,21Zm0-8a3,3,0,1,0,3,3A3,3,0,0,0,16,13Z" fill="#f4f4f4"/>
        <circle cx="3" cy="16" r="2" fill="#f4f4f4"/>
      </g>
    </g>
  </g>
</svg>
