<svg xmlns="http://www.w3.org/2000/svg" xmlns:xlink="http://www.w3.org/1999/xlink" viewBox="0 0 32 32">
  <defs>
    <linearGradient id="b6c2f2fa-62d1-4069-8534-c40a9fc8ec01" x1="26.54" y1="16.261" x2="5.625" y2="4.185" gradientUnits="userSpaceOnUse">
      <stop offset="0.25" stop-color="#fff" stop-opacity="0"/>
      <stop offset="0.55" stop-color="#fff"/>
    </linearGradient>
    <linearGradient id="a9c204af-6b0b-42e9-b6a4-c3659871c2cf" x1="26.375" y1="27.815" x2="5.46" y2="15.739" gradientUnits="userSpaceOnUse">
      <stop offset="0.45" stop-color="#fff"/>
      <stop offset="0.75" stop-color="#fff" stop-opacity="0"/>
    </linearGradient>
    <mask id="e521698a-bdb3-49dd-9419-087d50ab86fe" x="0" y="0" width="32" height="32" maskUnits="userSpaceOnUse">
      <path d="M5,12V9.574L16,3.158,27,9.574V12h2V9a1,1,0,0,0-.5-.864l-12-7a1,1,0,0,0-1.008,0l-12,7A1,1,0,0,0,3,9v3Z" fill="url(#b6c2f2fa-62d1-4069-8534-c40a9fc8ec01)"/>
      <path d="M27,20v2.426L16,28.842,5,22.426V20H3v3a1,1,0,0,0,.5.864l12,7a1,1,0,0,0,1.008,0l12-7A1,1,0,0,0,29,23V20Z" fill="url(#a9c204af-6b0b-42e9-b6a4-c3659871c2cf)"/>
      <path d="M27,18H21a2,2,0,0,1-2-2V10a2,2,0,0,1,2-2h6a2,2,0,0,1,2,2v6A2,2,0,0,1,27,18Zm-6-8v6h6V10Z" fill="#fff"/>
    </mask>
    <linearGradient id="e537bfff-0e08-4d0f-9141-5a4b309cacb7" y1="32" x2="32" gradientUnits="userSpaceOnUse">
      <stop offset="0.1" stop-color="#82cfff"/>
      <stop offset="0.9" stop-color="#ee5396"/>
    </linearGradient>
  </defs>
  <g id="aaa7e436-0ff9-46a5-8e56-cf81266f38b2" data-name="Layer 2">
    <g id="a6e89b43-8de1-4b83-8ffb-b18bdd864cdb" data-name="Dark theme icons">
      <g>
        <g mask="url(#e521698a-bdb3-49dd-9419-087d50ab86fe)">
          <rect width="32" height="32" fill="url(#e537bfff-0e08-4d0f-9141-5a4b309cacb7)"/>
        </g>
        <path d="M11,24H5a2,2,0,0,1-2-2V16a2,2,0,0,1,2-2h6a2,2,0,0,1,2,2v6A2,2,0,0,1,11,24ZM5,16v6h6V16Z" fill="#f4f4f4"/>
      </g>
    </g>
  </g>
</svg>
