<svg xmlns="http://www.w3.org/2000/svg" xmlns:xlink="http://www.w3.org/1999/xlink" viewBox="0 0 32 32">
  <defs>
    <linearGradient id="f22deff3-9435-48db-8f3e-86005a90c728" x1="22.248" y1="30.864" x2="22.248" y2="9" gradientUnits="userSpaceOnUse">
      <stop offset="0.55" stop-color="#fff"/>
      <stop offset="0.85" stop-color="#fff" stop-opacity="0"/>
    </linearGradient>
    <linearGradient id="b873f3fd-b4c9-40d2-a272-85aa635dacbe" x1="0.078" y1="14.06" x2="18.926" y2="24.942" gradientUnits="userSpaceOnUse">
      <stop offset="0.61" stop-color="#fff"/>
      <stop offset="0.9" stop-color="#fff" stop-opacity="0"/>
    </linearGradient>
    <linearGradient id="ace99877-3d40-4197-9557-da3b02ad9ab7" x1="5.761" y1="12.059" x2="22.352" y2="2.48" gradientUnits="userSpaceOnUse">
      <stop offset="0.1" stop-color="#fff" stop-opacity="0"/>
      <stop offset="0.45" stop-color="#fff"/>
    </linearGradient>
    <mask id="adc70b7e-2a82-410d-a9be-8eaafc0a75c2" x="0" y="0" width="32" height="32" maskUnits="userSpaceOnUse">
      <path d="M16.5,30.864,15.5,29.136,27,22.426V9h2V23a1,1,0,0,1-.5.864Z" fill="url(#f22deff3-9435-48db-8f3e-86005a90c728)"/>
      <path d="M15.5,30.864l-12-7A1,1,0,0,1,3,23V9H5V22.426l11.5,6.71Z" fill="url(#b873f3fd-b4c9-40d2-a272-85aa635dacbe)"/>
      <path d="M24.152,5.6,16.5,1.136a1,1,0,0,0-1.008,0l-12,7L4.5,9.864,16,3.158l7.144,4.167Z" fill="url(#ace99877-3d40-4197-9557-da3b02ad9ab7)"/>
    </mask>
    <linearGradient id="a74a6c5c-5c4a-4e76-bfbc-06292da58f6b" x1="2462" y1="422" x2="2494" y2="390" gradientTransform="matrix(1, 0, 0, -1, -2462, 422)" gradientUnits="userSpaceOnUse">
      <stop offset="0.1" stop-color="#82cfff"/>
      <stop offset="0.9" stop-color="#a56eff"/>
    </linearGradient>
  </defs>
  <g id="b8503d06-889e-4fdc-a50b-fe70f2a06faa" data-name="Layer 2">
    <g id="a77fd0e0-a9b1-48f4-bfa8-bb0beeadaba6" data-name="Dark theme icons">
      <g>
        <g mask="url(#adc70b7e-2a82-410d-a9be-8eaafc0a75c2)">
          <rect width="32" height="32" transform="translate(0 32) rotate(-90)" fill="url(#a74a6c5c-5c4a-4e76-bfbc-06292da58f6b)"/>
        </g>
        <path d="M28,6a3,3,0,0,0-3,3,2.943,2.943,0,0,0,.057.559L20,12.509,16.5,10.47a1,1,0,0,0-1.008,0l-4,2.333a1,1,0,0,0-.5.864v4.666a1,1,0,0,0,.5.864l4,2.333a1,1,0,0,0,1.008,0l4-2.333a1,1,0,0,0,.5-.864V14.241l5.074-2.96A2.972,2.972,0,0,0,28,12a3,3,0,0,0,0-6ZM19,17.759l-3,1.75-3-1.75V14.241l3-1.75,3,1.75ZM28,10a1,1,0,1,1,1-1A1,1,0,0,1,28,10Z" fill="#f4f4f4"/>
      </g>
    </g>
  </g>
</svg>
