<svg xmlns="http://www.w3.org/2000/svg" xmlns:xlink="http://www.w3.org/1999/xlink" viewBox="0 0 32 32"><defs><linearGradient id="wb7wdiscga" x1="2" y1="16" x2="16" y2="16" gradientUnits="userSpaceOnUse"><stop offset=".3" stop-color="#fff"/><stop offset=".6" stop-color="#fff" stop-opacity="0"/></linearGradient><linearGradient id="3srp4h5xxb" x1="791.528" y1="469.515" x2="805.537" y2="469.453" gradientTransform="rotate(179.998 409.034 239.712)" xlink:href="#wb7wdiscga"/><linearGradient id="nxm8dpga9c" x1="791.528" y1="-437.515" x2="805.537" y2="-437.453" gradientTransform="rotate(-90 638.794 181.787)" xlink:href="#wb7wdiscga"/><linearGradient id="1wvwrbtzde" x1="2734" y1="32" x2="2702" gradientTransform="matrix(1 0 0 -1 -2702 32)" gradientUnits="userSpaceOnUse"><stop offset=".1" stop-color="#d4bbff"/><stop offset=".9" stop-color="#a56eff"/></linearGradient><mask id="ya9f9mnp7d" x="0" y="0" width="32" height="32" maskUnits="userSpaceOnUse"><path fill="url(#wb7wdiscga)" d="M2 15h14v2H2z"/><path d="M18 21h-4.667a1 1 0 0 1-.863-.5l-2.334-4a1 1 0 0 1 0-1.008l2.334-4a1 1 0 0 1 .863-.5H18a1 1 0 0 1 .864.5l2.333 4a1 1 0 0 1 0 1.008l-2.333 4A1 1 0 0 1 18 21zm-4.092-2h3.518l1.75-3-1.75-3h-3.518l-1.75 3z" fill="#fff"/><path transform="rotate(-59.742 19.527 9.954)" fill="url(#3srp4h5xxb)" d="M12.527 8.954h14v2h-14z"/><path transform="rotate(-30.257 19.526 22.047)" fill="url(#nxm8dpga9c)" d="M18.527 15.046h2v14h-2z"/></mask></defs><g data-name="Layer 2"><g data-name="Dark theme icons"><g mask="url(#ya9f9mnp7d)"><path transform="rotate(180 16 16)" fill="url(#1wvwrbtzde)" d="M0 0h32v32H0z"/></g><circle cx="28" cy="16" r="2" fill="#f4f4f4"/><circle cx="10" cy="26" r="2" fill="#f4f4f4"/><circle cx="10" cy="6" r="2" fill="#f4f4f4"/></g></g></svg>