<svg xmlns="http://www.w3.org/2000/svg" viewBox="0 0 32 32"><defs><linearGradient id="vhpn693f3a" x1="22.248" y1="30.864" x2="22.248" y2="9" gradientUnits="userSpaceOnUse"><stop offset=".55" stop-color="#fff"/><stop offset=".85" stop-color="#fff" stop-opacity="0"/></linearGradient><linearGradient id="hsiexggmmb" x1=".078" y1="14.06" x2="18.926" y2="24.942" gradientUnits="userSpaceOnUse"><stop offset=".61" stop-color="#fff"/><stop offset=".9" stop-color="#fff" stop-opacity="0"/></linearGradient><linearGradient id="wacavqrf4c" x1="5.761" y1="12.059" x2="22.352" y2="2.48" gradientUnits="userSpaceOnUse"><stop offset=".1" stop-color="#fff" stop-opacity="0"/><stop offset=".45" stop-color="#fff"/></linearGradient><linearGradient id="bj62xxgk9e" x1="2462" y1="422" x2="2494" y2="390" gradientTransform="matrix(1 0 0 -1 -2462 422)" gradientUnits="userSpaceOnUse"><stop offset=".1" stop-color="#82cfff"/><stop offset=".9" stop-color="#a56eff"/></linearGradient><mask id="trtbrb7kbd" x="0" y="0" width="32" height="32" maskUnits="userSpaceOnUse"><path d="m16.5 30.864-1-1.728 11.5-6.71V9h2v14a1 1 0 0 1-.5.864z" fill="url(#vhpn693f3a)"/><path d="m15.5 30.864-12-7A1 1 0 0 1 3 23V9h2v13.426l11.5 6.71z" fill="url(#hsiexggmmb)"/><path d="M24.152 5.6 16.5 1.136a1 1 0 0 0-1.008 0l-12 7L4.5 9.864 16 3.158l7.144 4.167z" fill="url(#wacavqrf4c)"/></mask></defs><g data-name="Layer 2"><g data-name="Dark theme icons"><g mask="url(#trtbrb7kbd)"><path transform="rotate(-90 16 16)" fill="url(#bj62xxgk9e)" d="M0 0h32v32H0z"/></g><path d="M28 6a3 3 0 0 0-3 3 2.943 2.943 0 0 0 .057.559L20 12.509l-3.5-2.039a1 1 0 0 0-1.008 0l-4 2.333a1 1 0 0 0-.5.864v4.666a1 1 0 0 0 .5.864l4 2.333a1 1 0 0 0 1.008 0l4-2.333a1 1 0 0 0 .5-.864v-4.092l5.074-2.96A2.972 2.972 0 0 0 28 12a3 3 0 0 0 0-6zm-9 11.759-3 1.75-3-1.75v-3.518l3-1.75 3 1.75zM28 10a1 1 0 1 1 1-1 1 1 0 0 1-1 1z" fill="#f4f4f4"/></g></g></svg>