<svg xmlns="http://www.w3.org/2000/svg" viewBox="0 0 32 32"><defs><linearGradient id="ylpoxic6xa" x1="26.54" y1="16.261" x2="5.625" y2="4.185" gradientUnits="userSpaceOnUse"><stop offset=".25" stop-color="#fff" stop-opacity="0"/><stop offset=".55" stop-color="#fff"/></linearGradient><linearGradient id="lyr5sdr9jb" x1="26.375" y1="27.815" x2="5.46" y2="15.739" gradientUnits="userSpaceOnUse"><stop offset=".45" stop-color="#fff"/><stop offset=".75" stop-color="#fff" stop-opacity="0"/></linearGradient><linearGradient id="9ytm6z6gmd" y1="32" x2="32" gradientUnits="userSpaceOnUse"><stop offset=".1" stop-color="#82cfff"/><stop offset=".9" stop-color="#ee5396"/></linearGradient><mask id="oagrl45n2c" x="0" y="0" width="32" height="32" maskUnits="userSpaceOnUse"><path d="M5 12V9.574l11-6.416 11 6.416V12h2V9a1 1 0 0 0-.5-.864l-12-7a1 1 0 0 0-1.008 0l-12 7A1 1 0 0 0 3 9v3z" fill="url(#ylpoxic6xa)"/><path d="M27 20v2.426l-11 6.416-11-6.416V20H3v3a1 1 0 0 0 .5.864l12 7a1 1 0 0 0 1.008 0l12-7A1 1 0 0 0 29 23v-3z" fill="url(#lyr5sdr9jb)"/><path d="M27 18h-6a2 2 0 0 1-2-2v-6a2 2 0 0 1 2-2h6a2 2 0 0 1 2 2v6a2 2 0 0 1-2 2zm-6-8v6h6v-6z" fill="#fff"/></mask></defs><g data-name="Layer 2"><g data-name="Dark theme icons"><g mask="url(#oagrl45n2c)"><path fill="url(#9ytm6z6gmd)" d="M0 0h32v32H0z"/></g><path d="M11 24H5a2 2 0 0 1-2-2v-6a2 2 0 0 1 2-2h6a2 2 0 0 1 2 2v6a2 2 0 0 1-2 2zm-6-8v6h6v-6z" fill="#f4f4f4"/></g></g></svg>