<svg xmlns="http://www.w3.org/2000/svg" xmlns:xlink="http://www.w3.org/1999/xlink" viewBox="0 0 32 32"><defs><linearGradient id="eou8qi7sra" x1="2.027" y1="19.953" x2="22.973" y2="32.047" gradientUnits="userSpaceOnUse"><stop offset=".4"/><stop offset=".63" stop-opacity="0"/></linearGradient><linearGradient id="k9adv9v0ib" x1="2.027" y1="-400.047" x2="22.973" y2="-387.953" gradientTransform="matrix(1 0 0 -1 0 -388)" xlink:href="#eou8qi7sra"/><linearGradient id="zbrleogj6d" y1="32" x2="32" gradientUnits="userSpaceOnUse"><stop offset=".1" stop-color="#ff7eb6"/><stop offset=".9" stop-color="#a56eff"/></linearGradient><mask id="apmo0ylenc" x="0" y="0" width="32" height="32" maskUnits="userSpaceOnUse"><path d="M27 15H13.816a3 3 0 1 0 0 2H27v5.426l-11 6.416-11.5-6.706-1 1.728 12 7a1 1 0 0 0 1.008 0l12-7A1 1 0 0 0 29 23v-6a2 2 0 0 0-2-2zm-16 2a1 1 0 1 1 1-1 1 1 0 0 1-1 1z" fill="#f4f4f4"/><path d="M27.5 9.864 16 3.158 4.5 9.864l-1-1.728 12-7a1 1 0 0 1 1.008 0l12 7z" fill="#fff"/><path fill="url(#eou8qi7sra)" d="M2 20h21v12H2z"/><path fill="url(#k9adv9v0ib)" d="M2 0h21v12H2z"/></mask></defs><g data-name="Layer 2"><g data-name="Dark theme icons"><g mask="url(#apmo0ylenc)"><path fill="url(#zbrleogj6d)" d="M0 0h32v32H0z"/></g><path d="M17 24H5a2 2 0 0 1-2-2V10a2 2 0 0 1 2-2h12a2 2 0 0 1 2 2v3h-2v-3H5v12h12v-3h2v3a2 2 0 0 1-2 2z" fill="#f4f4f4"/></g></g></svg>