<svg xmlns="http://www.w3.org/2000/svg" xmlns:xlink="http://www.w3.org/1999/xlink" viewBox="0 0 32 32">
  <defs>
    <linearGradient id="f1e47c31-95f1-4f40-8229-9b32d1115fe9" x1="14.157" y1="26.817" x2="30.839" y2="17.185" gradientUnits="userSpaceOnUse">
      <stop offset="0.28" stop-color="#fff" stop-opacity="0"/>
      <stop offset="0.55" stop-color="#fff"/>
    </linearGradient>
    <linearGradient id="f8804ab8-ded5-41b8-bb7a-9e2347de0687" x1="452.157" y1="-387.183" x2="468.839" y2="-396.815" gradientTransform="translate(470 -382) rotate(180)" xlink:href="#f1e47c31-95f1-4f40-8229-9b32d1115fe9"/>
    <mask id="fbd2416e-92f9-4bed-ba26-9fdfc8b53e16" x="0" y="0" width="32" height="32" maskUnits="userSpaceOnUse">
      <path d="M16.5,30.864,15.5,29.136,27,22.426V14h2v9a1,1,0,0,1-.5.864Z" fill="url(#f1e47c31-95f1-4f40-8229-9b32d1115fe9)"/>
      <path d="M5,18H3V9a1,1,0,0,1,.5-.864l12-7L16.5,2.864,5,9.574Z" fill="url(#f8804ab8-ded5-41b8-bb7a-9e2347de0687)"/>
      <path d="M28,6a3,3,0,0,0-3,3,2.943,2.943,0,0,0,.057.559L5.926,20.719A2.972,2.972,0,0,0,4,20a3,3,0,1,0,3,3,2.943,2.943,0,0,0-.057-.559l19.131-11.16A2.972,2.972,0,0,0,28,12a3,3,0,0,0,0-6ZM4,24a1,1,0,1,1,1-1A1,1,0,0,1,4,24ZM28,10a1,1,0,1,1,1-1A1,1,0,0,1,28,10Z" fill="#fff"/>
    </mask>
    <linearGradient id="a562cc74-0ef4-4dce-9865-82f99da51318" x1="975" y1="855" x2="943" y2="823" gradientTransform="translate(-943 -823)" gradientUnits="userSpaceOnUse">
      <stop offset="0.1" stop-color="#d4bbff"/>
      <stop offset="0.9" stop-color="#a56eff"/>
    </linearGradient>
  </defs>
  <g id="a5b9c5bd-1809-4747-acb3-e1b63aed16b1" data-name="Layer 2">
    <g id="b4ae012a-1a85-4abb-8c25-db1aefa22c1f" data-name="Dark theme icons">
      <g>
        <g mask="url(#fbd2416e-92f9-4bed-ba26-9fdfc8b53e16)">
          <rect width="32" height="32" transform="translate(32 0) rotate(90)" fill="url(#a562cc74-0ef4-4dce-9865-82f99da51318)"/>
        </g>
        <path d="M16,10.011a1.009,1.009,0,0,1-.5-.136l-3-1.75a1,1,0,0,1-.5-.864v-3.5a1,1,0,0,1,.5-.864l3-1.75a1,1,0,0,1,1.008,0l3,1.75a1,1,0,0,1,.5.864v3.5a1,1,0,0,1-.5.864l-3,1.75A1.009,1.009,0,0,1,16,10.011ZM14,6.687l2,1.166,2-1.166V4.335L16,3.169,14,4.335Z" fill="#f4f4f4"/>
        <path d="M16,31.011a1.009,1.009,0,0,1-.5-.136l-3-1.75a1,1,0,0,1-.5-.864v-3.5a1,1,0,0,1,.5-.864l3-1.75a1,1,0,0,1,1.008,0l3,1.75a1,1,0,0,1,.5.864v3.5a1,1,0,0,1-.5.864l-3,1.75A1.009,1.009,0,0,1,16,31.011Zm-2-3.324,2,1.166,2-1.166V25.335l-2-1.166-2,1.166Z" fill="#f4f4f4"/>
      </g>
    </g>
  </g>
</svg>
