<svg xmlns="http://www.w3.org/2000/svg" xmlns:xlink="http://www.w3.org/1999/xlink" viewBox="0 0 32 32">
  <defs>
    <linearGradient id="b385f606-b7d4-447b-b13a-078d6cd451d9" x1="8" y1="24" x2="8" y2="8" gradientUnits="userSpaceOnUse">
      <stop offset="0.1"/>
      <stop offset="0.7" stop-opacity="0"/>
    </linearGradient>
    <linearGradient id="fe48c6ba-5e5a-4453-8c97-fc01d10d4309" x1="-4784" y1="-6698" x2="-4784" y2="-6714" gradientTransform="translate(-4760 -6690) rotate(180)" xlink:href="#b385f606-b7d4-447b-b13a-078d6cd451d9"/>
    <linearGradient id="b96b9278-9af3-441c-8510-8a8231e879da" x1="28" y1="28" x2="28" y2="10" gradientUnits="userSpaceOnUse">
      <stop offset="0.05"/>
      <stop offset="0.5" stop-opacity="0"/>
    </linearGradient>
    <linearGradient id="b3cb28b6-4bd8-4f06-b4ee-7aa199c45dd8" x1="-4804" y1="-6692" x2="-4804" y2="-6710" gradientTransform="translate(4808 6714)" xlink:href="#b96b9278-9af3-441c-8510-8a8231e879da"/>
    <mask id="b4a40f1a-635b-4b41-9868-234cb6d2a1bc" x="0" y="0" width="32" height="32" maskUnits="userSpaceOnUse">
      <path d="M16,31a1,1,0,0,1-.5-.136l-12-7A1,1,0,0,1,3,23V5H5V22.426l11,6.416,7-4.083V9h2V25.333a1,1,0,0,1-.5.864l-8,4.667A1,1,0,0,1,16,31Z" fill="#fff"/>
      <path d="M29,27H27V9.574L16,3.158,9,7.241V23H7V6.667A1,1,0,0,1,7.5,5.8l8-4.667a1,1,0,0,1,1.008,0l12,7A1,1,0,0,1,29,9Z" fill="#fff"/>
      <polygon points="10 8 6 8 6 22 7 23 10 24 10 8" fill="url(#b385f606-b7d4-447b-b13a-078d6cd451d9)"/>
      <polygon points="22 24 26 24 26 10 25 9 22 8 22 24" fill="url(#fe48c6ba-5e5a-4453-8c97-fc01d10d4309)"/>
      <rect x="26" y="10" width="4" height="18" fill="url(#b96b9278-9af3-441c-8510-8a8231e879da)"/>
      <rect x="2" y="4" width="4" height="18" transform="translate(8 26) rotate(180)" fill="url(#b3cb28b6-4bd8-4f06-b4ee-7aa199c45dd8)"/>
    </mask>
    <linearGradient id="a58abea6-11e3-4b72-a292-56394cf3aae2" y1="32" x2="32" gradientUnits="userSpaceOnUse">
      <stop offset="0.1" stop-color="#3ddbd9"/>
      <stop offset="0.9" stop-color="#4589ff"/>
    </linearGradient>
  </defs>
  <g id="aa52519c-3a28-4e9a-b069-ac4689381889" data-name="Layer 2">
    <g id="be91b00b-f13d-4129-9b0e-872b6e52e4d3" data-name="dark theme">
      <g>
        <g mask="url(#b4a40f1a-635b-4b41-9868-234cb6d2a1bc)">
          <rect width="32" height="32" fill="url(#a58abea6-11e3-4b72-a292-56394cf3aae2)"/>
        </g>
        <polygon points="21 15 17 15 17 11 15 11 15 15 11 15 11 17 15 17 15 21 17 21 17 17 21 17 21 15" fill="#f4f4f4"/>
      </g>
    </g>
  </g>
</svg>
