<svg id="SpotHub" xmlns="http://www.w3.org/2000/svg" xmlns:xlink="http://www.w3.org/1999/xlink" viewBox="0 0 32 32"><defs><linearGradient id="o0vg8t1taa" x1="8.897" y1="24.641" x2="13.296" y2="19.969" gradientUnits="userSpaceOnUse"><stop offset=".05" stop-opacity="0"/><stop offset=".65"/></linearGradient><linearGradient id="2aoot9jvvb" x1="-4.103" y1="24.641" x2=".296" y2="19.969" gradientTransform="matrix(-1 0 0 1 19 0)" xlink:href="#o0vg8t1taa"/><linearGradient id="gcuvb7g08c" x1="5.418" y1="14.63" x2="17.689" y2="20.352" gradientUnits="userSpaceOnUse"><stop offset=".2" stop-color="#fff"/><stop offset=".9" stop-color="#fff" stop-opacity="0"/></linearGradient><linearGradient id="kj65k9ue0e" x1="0" y1="32" x2="32" y2="0" gradientUnits="userSpaceOnUse"><stop offset=".1" stop-color="#a6c8ff"/><stop offset=".9" stop-color="#4589ff"/></linearGradient><mask id="m0dc8360wd" x="0" y="0" width="32" height="32" maskUnits="userSpaceOnUse"><path d="M16 30c-5.131 0-9-2.149-9-5s3.869-5 9-5 9 2.149 9 5-3.869 5-9 5zm0-8c-4.007 0-7 1.584-7 3s2.993 3 7 3 7-1.584 7-3-2.993-3-7-3z" style="fill:#fff"/><path style="fill:url(#o0vg8t1taa)" d="M5 25v-2l8-4h1v6H5z"/><path d="M13 19h6v6h-6z"/><path style="fill:url(#2aoot9jvvb)" d="M27 25v-2l-8-4h-1v6h9z"/><path d="M14.977 24.153 8.86 16.814a9.383 9.383 0 0 1-1.859-5.578l2-.002a7.339 7.339 0 0 0 1.431 4.343l6.083 7.295-1.537 1.281z" style="fill:url(#gcuvb7g08c)"/><path d="M16 2c-4.963 0-9 4.143-9 9.235l1 1 1-1C9 7.245 12.141 4 16 4s7 3.246 7 7.234a7.342 7.342 0 0 1-1.422 4.333l-7.156 9.207L16 26.001l7.169-9.223A9.357 9.357 0 0 0 25 11.236c0-5.092-4.037-9.235-9-9.235z" style="fill:#fff"/></mask></defs><g style="mask:url(#m0dc8360wd)"><path style="fill:url(#kj65k9ue0e)" d="M0 0h32v32H0z"/></g><path d="M16 15c-2.206 0-4-1.794-4-4s1.794-4 4-4 4 1.794 4 4-1.794 4-4 4zm0-6c-1.103 0-2 .897-2 2s.897 2 2 2 2-.897 2-2-.897-2-2-2z" style="fill:#f4f4f4"/></svg>