<svg id="SPSSStatisticsCleanUtility" xmlns="http://www.w3.org/2000/svg" xmlns:xlink="http://www.w3.org/1999/xlink" viewBox="0 0 32 32"><defs><linearGradient id="v9izt0a68a" x1="-201.882" y1="8" x2="-192.882" y2="8" gradientTransform="matrix(1 0 0 -1 208 34)" gradientUnits="userSpaceOnUse"><stop offset="0" stop-opacity="0"/><stop offset=".8"/></linearGradient><linearGradient id="4gblprug9b" x1="-5020" y1="8190" x2="-5012" y2="8190" gradientTransform="matrix(-1 0 0 1 -4997 -8185)" xlink:href="#v9izt0a68a"/><linearGradient id="q9duve71gd" data-name="New Gradient Swatch 2" x1="0" y1="2" x2="32" y2="34" gradientTransform="matrix(1 0 0 -1 0 34)" gradientUnits="userSpaceOnUse"><stop offset=".1" stop-color="#ba8dff"/><stop offset=".9" stop-color="#418bff"/></linearGradient><mask id="9lpkfssllc" x="0" y="0" width="32" height="32" maskUnits="userSpaceOnUse"><path d="M29 16h-2v-5a5.006 5.006 0 0 0-5-5h-6V4h6a7.008 7.008 0 0 1 7 7v5zM15 28h-5a7.008 7.008 0 0 1-7-7v-2h2v2a5.006 5.006 0 0 0 5 5h5v2z" style="fill:#fff"/><path d="M6.118 23h9v6h-9v-6z" style="fill:url(#v9izt0a68a)"/><path d="M23 7h-8V3h8v4z" style="fill:url(#4gblprug9b)"/><path d="M14 16H4a1.002 1.002 0 0 1-.707-1.707L7.586 10 3.293 5.707A1 1 0 0 1 4 4h10v2H6.414l3.293 3.293a.999.999 0 0 1 0 1.414L6.414 14H14v2z" style="fill:#fff"/></mask></defs><g style="mask:url(#9lpkfssllc)"><path d="M0 0h32v32H0V0z" style="fill:url(#q9duve71gd)"/></g><path d="m21 21 1.414 1.414L19.828 25H27c1.103 0 2-.897 2-2s-.897-2-2-2h-2v-2h2c2.206 0 4 1.794 4 4s-1.794 4-4 4h-7.172l2.586 2.586L21 31l-5-5 5-5z" style="fill:#f4f4f4"/></svg>