<svg xmlns="http://www.w3.org/2000/svg" xmlns:xlink="http://www.w3.org/1999/xlink" viewBox="0 0 32 32"><defs><linearGradient id="695j1h1yka" x1="8" y1="26.5" x2="17" y2="26.5" gradientUnits="userSpaceOnUse"><stop offset="0" stop-opacity="0"/><stop offset=".9"/></linearGradient><linearGradient id="x21wlbjb4b" x1="952" y1="7441.5" x2="961" y2="7441.5" gradientTransform="translate(-939 -7436)" xlink:href="#695j1h1yka"/><linearGradient id="dyyp8sygqd" y1="32" x2="32" gradientUnits="userSpaceOnUse"><stop offset=".1" stop-color="#3ddbd9"/><stop offset=".9" stop-color="#4589ff"/></linearGradient><mask id="pgworcsk2c" x="0" y="0" width="32" height="32" maskUnits="userSpaceOnUse"><path d="M26 12h-2v-1a5.006 5.006 0 0 0-5-5h-5V4h5a7.008 7.008 0 0 1 7 7zM16 28h-5a7.008 7.008 0 0 1-7-7v-1h2v1a5.006 5.006 0 0 0 5 5h5z" fill="#fff"/><path fill="url(#695j1h1yka)" d="M8 24h9v5H8z"/><path transform="rotate(180 17.5 5.5)" fill="url(#x21wlbjb4b)" d="M13 3h9v5h-9z"/></mask></defs><g data-name="Layer 2"><g data-name="Dark theme icons"><g mask="url(#pgworcsk2c)"><path fill="url(#dyyp8sygqd)" d="M0 0h32v32H0z"/></g><path d="M2 14v2h2v-2a1 1 0 0 1 1-1h6a1 1 0 0 1 1 1v2h2v-2a3 3 0 0 0-3-3H5a3 3 0 0 0-3 3zM8 2a4 4 0 1 0 4 4 4 4 0 0 0-4-4zm0 6a2 2 0 1 1 2-2 2 2 0 0 1-2 2zm10 20v2h2v-2a1 1 0 0 1 1-1h6a1 1 0 0 1 1 1v2h2v-2a3 3 0 0 0-3-3h-6a3 3 0 0 0-3 3zm6-12a4 4 0 1 0 4 4 4 4 0 0 0-4-4zm0 6a2 2 0 1 1 2-2 2 2 0 0 1-2 2z" fill="#f4f4f4"/></g></g></svg>