<svg xmlns="http://www.w3.org/2000/svg" viewBox="0 0 32 32"><defs><linearGradient id="5kgrtd3upa" x1="19.402" y1="29.964" x2="28.598" y2="14.036" gradientUnits="userSpaceOnUse"><stop offset=".22" stop-opacity="0"/><stop offset=".7"/></linearGradient><linearGradient id="4ts63pedsb" x1="-2053" y1="627" x2="-2069" y2="643" gradientTransform="translate(2070 -626)" gradientUnits="userSpaceOnUse"><stop offset=".5"/><stop offset=".9" stop-opacity="0"/></linearGradient><linearGradient id="hwfwa1l74d" y1="32" x2="32" gradientUnits="userSpaceOnUse"><stop offset=".1" stop-color="#3ddbd9"/><stop offset=".9" stop-color="#4589ff"/></linearGradient><mask id="8f728lrkgc" x="0" y="0" width="32" height="32" maskUnits="userSpaceOnUse"><path d="M16 30a14 14 0 1 1 14-14 14.015 14.015 0 0 1-14 14zm0-26a12 12 0 1 0 12 12A12.013 12.013 0 0 0 16 4z" fill="#fff"/><path fill="url(#5kgrtd3upa)" d="M16 16h16v12H16z"/><path transform="rotate(180 9 9)" fill="url(#4ts63pedsb)" d="M0 2h18v14H0z"/></mask></defs><g data-name="Layer 2"><g data-name="Dark theme icons"><g mask="url(#8f728lrkgc)"><path fill="url(#hwfwa1l74d)" d="M0 0h32v32H0z"/></g><path fill="#f4f4f4" d="M2 8h7v2H2zm0 4h4v2H2zm17 6h-6a3 3 0 0 0-3 3v2h2v-2a1 1 0 0 1 1-1h6a1 1 0 0 1 1 1v2h2v-2a3 3 0 0 0-3-3zm-3-1a4 4 0 1 0-4-4 4 4 0 0 0 4 4zm0-6a2 2 0 1 1-2 2 2 2 0 0 1 2-2z"/></g></g></svg>