<svg id="StorageServiceForNetAppONTAP" xmlns="http://www.w3.org/2000/svg" viewBox="0 0 32 32"><defs><linearGradient id="0drnpcifha" x1="4035.618" y1="14.624" x2="4042.858" y2="7.383" gradientTransform="matrix(-1 0 0 1 4045.997 -.003)" gradientUnits="userSpaceOnUse"><stop offset=".1" stop-color="#fff" stop-opacity="0"/><stop offset=".151" stop-color="#fff" stop-opacity=".039"/><stop offset=".237" stop-color="#fff" stop-opacity=".143"/><stop offset=".349" stop-color="#fff" stop-opacity=".313"/><stop offset=".481" stop-color="#fff" stop-opacity=".548"/><stop offset=".628" stop-color="#fff" stop-opacity=".845"/><stop offset=".7" stop-color="#fff"/></linearGradient><linearGradient id="83km6x3y8b" x1="4017.136" y1="24.624" x2="4024.377" y2="17.383" gradientTransform="matrix(-1 0 0 1 4045.997 -.003)" gradientUnits="userSpaceOnUse"><stop offset=".3" stop-color="#fff"/><stop offset=".372" stop-color="#fff" stop-opacity=".845"/><stop offset=".519" stop-color="#fff" stop-opacity=".548"/><stop offset=".651" stop-color="#fff" stop-opacity=".313"/><stop offset=".763" stop-color="#fff" stop-opacity=".143"/><stop offset=".849" stop-color="#fff" stop-opacity=".039"/><stop offset=".9" stop-color="#fff" stop-opacity="0"/></linearGradient><linearGradient id="eb49fqqv0c" x1="4018.997" y1="16.003" x2="4021.997" y2="16.003" gradientTransform="matrix(1 0 0 -1 -3994.997 32.002)" gradientUnits="userSpaceOnUse"><stop offset="0" stop-opacity="0"/><stop offset=".8"/></linearGradient><linearGradient id="g60tsnmghd" x1="4037.997" y1="16.003" x2="4040.997" y2="16.003" gradientTransform="matrix(1 0 0 -1 -4032.997 32.002)" gradientUnits="userSpaceOnUse"><stop offset=".2"/><stop offset="1" stop-opacity="0"/></linearGradient><linearGradient id="n4y9u6kdmf" x1="0" y1="32" x2="32" y2="0" gradientUnits="userSpaceOnUse"><stop offset=".1" stop-color="#ff7eb6"/><stop offset=".9" stop-color="#a56eff"/></linearGradient><mask id="nlyhy2f9be" x="2" y="2" width="28" height="28" maskUnits="userSpaceOnUse"><path d="M8 17v-2c-2.206 0-4-1.794-4-4s1.794-4 4-4V5c-3.309 0-6 2.691-6 6s2.691 6 6 6z" style="fill:url(#0drnpcifha)"/><path d="M24 27c3.309 0 6-2.691 6-6s-2.691-6-6-6v2c2.206 0 4 1.794 4 4s-1.794 4-4 4v2z" style="fill:url(#83km6x3y8b)"/><path d="M26 10c2.206 0 4-1.794 4-4s-1.794-4-4-4c-1.859 0-3.411 1.28-3.858 3H8L7 6l1 1h14.142c.447 1.72 1.999 3 3.858 3zm-2-4c0-1.103.897-2 2-2s2 .897 2 2-.897 2-2 2-2-.897-2-2zM2 26c0 2.206 1.794 4 4 4 1.859 0 3.411-1.279 3.858-3H24l1-1-1-1H9.858C9.411 23.279 7.859 22 6 22c-2.206 0-4 1.794-4 4zm2 0c0-1.103.897-2 2-2s2 .897 2 2-.897 2-2 2-2-.897-2-2z" style="fill:#fff"/><path transform="rotate(180 25.5 16)" style="fill:url(#eb49fqqv0c)" d="M24 12h3v8h-3z"/><path transform="rotate(180 6.5 16)" style="fill:url(#g60tsnmghd)" d="M5 12h3v8H5z"/></mask></defs><g style="mask:url(#nlyhy2f9be)"><path style="fill:url(#n4y9u6kdmf)" d="M0 0h32v32H0z"/></g><path d="M12.25 22A4.255 4.255 0 0 1 8 17.75a4.268 4.268 0 0 1 2.783-3.986C11.52 11.551 13.624 10 16 10s4.479 1.55 5.217 3.764A4.266 4.266 0 0 1 24 17.75c0 2.286-1.859 4.192-4.144 4.25H12.25zM16 12a3.51 3.51 0 0 0-3.421 2.774l-.135.642-.643.131A2.259 2.259 0 0 0 10 17.75 2.252 2.252 0 0 0 12.25 20h7.582C21.017 19.97 22 18.96 22 17.75a2.258 2.258 0 0 0-1.8-2.203l-.643-.131-.135-.642A3.511 3.511 0 0 0 16 12z" style="fill:#f4f4f4"/></svg>