<svg id="StorageCeph" xmlns="http://www.w3.org/2000/svg" xmlns:xlink="http://www.w3.org/1999/xlink" viewBox="0 0 32 32"><defs><linearGradient id="dre7oa5c0a" x1="-1733.953" y1="-612.31" x2="-1719.679" y2="-604.395" gradientTransform="matrix(.491 0 0 1.343 855.461 836.843)" gradientUnits="userSpaceOnUse"><stop offset=".148" stop-opacity="0"/><stop offset=".777"/></linearGradient><linearGradient id="qai2tm76nb" x1="1786.056" y1="-3387.623" x2="1800.33" y2="-3379.707" gradientTransform="matrix(.491 0 0 1.343 -856.086 4557.237)" xlink:href="#dre7oa5c0a"/><linearGradient id="5uoyd63o8c" x1="-1568.253" y1="-3412.911" x2="-1553.979" y2="-3404.996" gradientTransform="matrix(.518 0 0 1.294 819.261 4437.396)" xlink:href="#dre7oa5c0a"/><linearGradient id="nrym11dfsd" x1="1924.565" y1="-628.222" x2="1938.839" y2="-620.306" gradientTransform="matrix(.518 0 0 1.37 -978.691 860.995)" xlink:href="#dre7oa5c0a"/><linearGradient id="py7orhyo3f" x1="0" y1="32" x2="32" y2="0" gradientUnits="userSpaceOnUse"><stop offset=".1" stop-color="#3ddbd9"/><stop offset=".9" stop-color="#4589ff"/></linearGradient><mask id="xczm7ewgte" x="1" y="2" width="30" height="28" maskUnits="userSpaceOnUse"><path d="m26 22.407-10 5.455-9.052-4.938-1 1.733 9.574 5.222a1 1 0 0 0 .958 0l11-6a1 1 0 0 0 .521-.878v-7h-2v6.406zM26.69 7.692 16.479 2.123a1 1 0 0 0-.958 0l-11 6A1 1 0 0 0 4 9.001v7h2V9.595l10-5.456 9.312 5.08 1.378-1.527z" style="fill:#fff"/><g><path style="fill:none;stroke:#fff;stroke-linejoin:round;stroke-width:2px" d="M6.625 21H1M31 11h-5.625"/><path style="fill:none;stroke:#fff;stroke-linecap:round;stroke-linejoin:round;stroke-width:2px" d="M25.375 11 6.625 21"/><path transform="rotate(-24.299 8 19.732)" style="fill:url(#dre7oa5c0a)" d="M3.829 17.716h8.343v4.029H3.829z"/><path transform="rotate(159.112 23.95 12.447)" style="fill:url(#qai2tm76nb)" d="M19.779 10.432h8.343v4.029h-8.343z"/><path transform="rotate(-20.888 15.999 15.79)" d="M10.907 12.29h10.187v7H10.907z"/><path transform="rotate(-151.559 10 25.76)" style="fill:url(#5uoyd63o8c)" d="M5.594 23.819h8.813v3.882H5.594z"/><path transform="rotate(28.441 22.677 5.999)" style="fill:url(#nrym11dfsd)" d="M18.27 3.946h8.813v4.109H18.27z"/></g></mask></defs><path style="fill:none" d="M0 0h32v32H0z"/><g style="mask:url(#xczm7ewgte)"><path style="fill:url(#py7orhyo3f)" d="M0 0h32v32H0z"/></g><path d="M21 13.691v4.619c0 .357-.19.688-.5.866l-4 2.31a.998.998 0 0 1-1 0l-4-2.31a1 1 0 0 1-.5-.866v-4.619c0-.357.19-.688.5-.866l4-2.31a.998.998 0 0 1 1 0l4 2.31a1 1 0 0 1 .5.866zm-2 4.042v-3.465l-3-1.732-3 1.732v3.465l3 1.732 3-1.732z" style="fill:#f4f4f4"/></svg>