<svg id="SysdigSecure" xmlns="http://www.w3.org/2000/svg" viewBox="0 0 32 32"><defs><linearGradient id="qqsi3kovea" x1="2107.435" y1="2105.709" x2="2117.654" y2="2105.709" gradientTransform="translate(-2098.537 -2101.679)" gradientUnits="userSpaceOnUse"><stop offset="0" stop-opacity="0"/><stop offset=".8"/></linearGradient><linearGradient id="syz8u2ycsc" x1="0" y1="32" x2="32" y2="0" gradientUnits="userSpaceOnUse"><stop offset=".1" stop-color="#be95ff"/><stop offset=".9" stop-color="#4589ff"/></linearGradient><mask id="3rkua6mbib" x="0" y="0" width="32" height="32" maskUnits="userSpaceOnUse"><path d="M3.974 2.972h24a2 2 0 0 1 2 2v16a2 2 0 0 1-2 2h-8v4h4v2h-16v-2h4v-4h-8a2 2 0 0 1-2-2v-16a2 2 0 0 1 2-2zm10 24h4v-4h-4v4zm-10-6h24v-16h-24v16z" style="fill:#fff;stroke-width:0"/><path style="fill:#000;stroke-width:0" d="M19.05 1.189h11.273v13.796H19.05z"/><path style="fill:url(#qqsi3kovea);stroke-width:0" d="M8.898 1.963h10.22v4.136H8.898z"/></mask></defs><g style="mask:url(#3rkua6mbib)"><path style="fill:url(#syz8u2ycsc);stroke-width:0" d="M0 0h32v32H0z"/></g><path d="m23.977 13.997-2.139-1.013a5.022 5.022 0 0 1-2.861-4.52V1.997h10v6.468a5.023 5.023 0 0 1-2.861 4.52l-2.139 1.013zm-3-10v4.468c0 1.153.674 2.218 1.717 2.711l1.283.607 1.283-.607a3.012 3.012 0 0 0 1.717-2.711V3.997h-6z" style="fill:#f4f4f4;stroke-width:0"/></svg>