<svg id="Targetprocess" xmlns="http://www.w3.org/2000/svg" viewBox="0 0 32 32"><defs><linearGradient id="akd169tyfa" x1="-73.522" y1="-2588.012" x2="-73.522" y2="-2596.262" gradientTransform="translate(98.147 2602.929)" gradientUnits="userSpaceOnUse"><stop offset="0" stop-opacity="0"/><stop offset=".892"/></linearGradient><linearGradient id="jls1x01vsc" x1="0" y1="2" x2="32" y2="34" gradientTransform="matrix(1 0 0 -1 0 34)" gradientUnits="userSpaceOnUse"><stop offset=".1" stop-color="#c592ff"/><stop offset=".9" stop-color="#238aff"/></linearGradient><mask id="jo7tyfexeb" x="0" y="0" width="32" height="32" maskUnits="userSpaceOnUse"><path d="M15 2C8.383 2 3 7.383 3 14s5.383 12 12 12h.165l-3.293 3.293 1.414 1.414L18.993 25l-5.707-5.707-1.414 1.414L15.165 24H15C9.486 24 5 19.514 5 14S9.486 4 15 4s10 4.486 10 10h2c0-6.617-5.383-12-12-12z" style="fill:#fff"/><path transform="rotate(180 24.625 10.792)" style="fill:url(#akd169tyfa)" d="M21.417 6.667h6.417v8.25h-6.417z"/></mask></defs><path style="fill:none" d="M0 0h32v32H0z"/><g style="mask:url(#jo7tyfexeb)"><path d="M0 0h32v32H0V0z" style="fill:url(#jls1x01vsc)"/></g><path transform="rotate(-90 18 17)" style="fill:#f2f2f2" d="M17 16h2v2h-2z"/><path transform="rotate(-90 23 17)" style="fill:#f2f2f2" d="M22 16h2v2h-2z"/><path transform="rotate(-90 28 17)" style="fill:#f2f2f2" d="M27 16h2v2h-2z"/><path transform="rotate(-90 23 22)" style="fill:#f2f2f2" d="M22 21h2v2h-2z"/><path transform="rotate(-90 28 22)" style="fill:#f2f2f2" d="M27 21h2v2h-2z"/><path transform="rotate(-90 28 27)" style="fill:#f2f2f2" d="M27 26h2v2h-2z"/></svg>