<svg id="ToolboxMail" xmlns="http://www.w3.org/2000/svg" viewBox="0 0 32 32"><defs><linearGradient id="4usgwfp5ua" x1="71.618" y1="-24.5" x2="81.618" y2="-24.5" gradientTransform="translate(-66.5 49.5)" gradientUnits="userSpaceOnUse"><stop offset="0" stop-opacity="0"/><stop offset=".83"/></linearGradient><linearGradient id="8u38n5ma6c" x1="0" y1="32" x2="32" y2="0" gradientUnits="userSpaceOnUse"><stop offset=".1" stop-color="#c590ff"/><stop offset=".9" stop-color="#2887ff"/></linearGradient><mask id="ghy4ryf80b" x="0" y="0" width="32" height="32" maskUnits="userSpaceOnUse"><path d="M15 24H4V10h24v8h2v-8c0-1.103-.897-2-2-2h-6V4c0-1.103-.897-2-2-2h-8c-1.103 0-2 .897-2 2v4H4c-1.103 0-2 .897-2 2v14c0 1.103.897 2 2 2h11v-2zM12 4h8v4h-8V4z" style="fill:#fff;stroke-width:0"/><path style="fill:url(#4usgwfp5ua);stroke-width:0" d="M5.118 23h10v4h-10z" id="Gradients_black_" data-name="Gradients (black)"/><path style="stroke-width:0" d="M26.144 14.994h5.062v4.729h-5.062z"/></mask></defs><g style="mask:url(#ghy4ryf80b)"><path style="fill:url(#8u38n5ma6c);stroke-width:0" d="M0 0h32v32H0z"/></g><path d="M29 30H15a1 1 0 0 1-1-1V18.996a.989.989 0 0 1 .369-.772 1 1 0 0 1 .606-.224c.009 0 .021.002.027 0h14.002a.99.99 0 0 1 .805.414.99.99 0 0 1 .19.597v9.988a1 1 0 0 1-1 1zm-13-2h12v-7.057l-5.419 3.87a1 1 0 0 1-1.162 0L16 20.943V28zm2.12-8L22 22.771 25.88 20h-7.76z" style="fill:#f3f3f3;stroke-width:0"/></svg>