<svg id="ToolboxSettings" xmlns="http://www.w3.org/2000/svg" viewBox="0 0 32 32"><defs><linearGradient id="usgea7y17a" x1="73.488" y1="-24.5" x2="83.488" y2="-24.5" gradientTransform="translate(-66.5 49.5)" gradientUnits="userSpaceOnUse"><stop offset="0" stop-opacity="0"/><stop offset=".83"/></linearGradient><linearGradient id="jfngy1c7nc" x1="0" y1="32" x2="32" y2="0" gradientUnits="userSpaceOnUse"><stop offset=".1" stop-color="#c590ff"/><stop offset=".9" stop-color="#2887ff"/></linearGradient><mask id="eovkceiyyb" x="0" y="0" width="32" height="32" maskUnits="userSpaceOnUse"><path d="M16 24H4V10h24v8h2v-8c0-1.103-.897-2-2-2h-6V4c0-1.103-.897-2-2-2h-8c-1.103 0-2 .897-2 2v4H4c-1.103 0-2 .897-2 2v14c0 1.103.897 2 2 2h12v-2zM12 4h8v4h-8V4z" style="fill:#fff;stroke-width:0"/><path style="fill:url(#usgea7y17a);stroke-width:0" d="M6.988 23h10v4h-10z" id="Gradients_black_" data-name="Gradients (black)"/><path style="stroke-width:0" d="M26.983 15.996h3.998v4h-3.998z"/></mask></defs><g style="mask:url(#eovkceiyyb)"><path style="fill:url(#jfngy1c7nc);stroke-width:0" d="M0 0h32v32H0z"/></g><path d="M28 24.003c0-.552-.111-1.074-.278-1.572l1.84-1.062-1-1.732-1.839 1.062A4.972 4.972 0 0 0 24 19.105v-2.101h-2v2.101a4.983 4.983 0 0 0-2.723 1.594l-1.839-1.062-1 1.732 1.84 1.062c-.166.497-.278 1.019-.278 1.572s.111 1.074.278 1.572l-1.84 1.062 1 1.732 1.839-1.062A4.972 4.972 0 0 0 22 28.901v2.101h2v-2.101a4.983 4.983 0 0 0 2.723-1.594l1.839 1.062 1-1.732-1.84-1.062A4.936 4.936 0 0 0 28 24.003zm-5 3c-1.654 0-3-1.346-3-3s1.346-3 3-3 3 1.346 3 3-1.346 3-3 3z" style="fill:#f3f3f3;stroke-width:0"/></svg>