<svg id="ToolboxChat" xmlns="http://www.w3.org/2000/svg" viewBox="0 0 32 32"><defs><linearGradient id="5autj0nzra" x1="73.594" y1="-24.5" x2="83.594" y2="-24.5" gradientTransform="translate(-66.5 49.5)" gradientUnits="userSpaceOnUse"><stop offset="0" stop-opacity="0"/><stop offset=".83"/></linearGradient><linearGradient id="xp9u52bvrc" x1="0" y1="32" x2="32" y2="0" gradientUnits="userSpaceOnUse"><stop offset=".1" stop-color="#c590ff"/><stop offset=".9" stop-color="#2887ff"/></linearGradient><mask id="lhkbsqt09b" x="0" y="0" width="32" height="32" maskUnits="userSpaceOnUse"><path d="M17 24H4V10h24v8h2v-8c0-1.103-.897-2-2-2h-6V4c0-1.103-.897-2-2-2h-8c-1.103 0-2 .897-2 2v4H4c-1.103 0-2 .897-2 2v14c0 1.103.897 2 2 2h13v-2zM12 4h8v4h-8V4z" style="fill:#fff;stroke-width:0"/><path style="fill:url(#5autj0nzra);stroke-width:0" d="M7.094 23h10v4h-10z" id="Gradients_black_" data-name="Gradients (black)"/><path style="stroke-width:0" d="M26.835 15.006h4.659v4.059h-4.659z"/></mask></defs><g style="mask:url(#lhkbsqt09b)"><path style="fill:url(#xp9u52bvrc);stroke-width:0" d="M0 0h32v32H0z"/></g><path d="M18.001 17.982h9.998c1.104 0 2.001.897 2.001 2.001v5.998a2.002 2.002 0 0 1-2.001 2.001h-2.422l-1.731 3-1.732-1 2.31-4h3.577v-6h-10v6h3v2h-2.999a2.002 2.002 0 0 1-2.001-2.001v-5.998c0-1.104.897-2.001 2.001-2.001z" style="fill:#f3f3f3;stroke-width:0"/></svg>