<svg id="ToolboxLearning" xmlns="http://www.w3.org/2000/svg" viewBox="0 0 32 32"><defs><linearGradient id="0e5979b8ia" x1="72.536" y1="-24.449" x2="82.536" y2="-24.449" gradientTransform="translate(-66.5 49.5)" gradientUnits="userSpaceOnUse"><stop offset="0" stop-opacity="0"/><stop offset=".83"/></linearGradient><linearGradient id="2bmy5jkquc" x1=".036" y1="32.051" x2="32.036" y2=".051" gradientUnits="userSpaceOnUse"><stop offset=".1" stop-color="#c592ff"/><stop offset=".9" stop-color="#238aff"/></linearGradient><mask id="f7mbrg13ib" x=".036" y=".051" width="32" height="32" maskUnits="userSpaceOnUse"><path d="M15.736 24.051h-11.7v-14h24v8h2v-8c0-1.103-.897-2-2-2h-6v-4c0-1.103-.897-2-2-2h-8c-1.103 0-2 .897-2 2v4h-6c-1.103 0-2 .897-2 2v14c0 1.103.897 2 2 2h11.7v-2zm-3.7-20h8v4h-8v-4z" style="fill:#fff"/><path style="fill:url(#0e5979b8ia)" d="M6.036 23.051h10v4h-10z" id="Gradients__x28_black_x29_"/><path d="M27.019 15.051h3.998v4h-3.998z"/></mask></defs><path style="fill:none" d="M0 0h32v32H0z"/><g style="mask:url(#f7mbrg13ib)"><path style="fill:url(#2bmy5jkquc)" d="M.036.051h32v32h-32z"/></g><path d="M19.028 27.059h-2v-4.012a.994.994 0 0 1 1-.988c.552 0 1 .442 1 .988v4.012z" style="fill:#f4f4f4"/><path d="M17.028 18.061v2h3v4c.01.34.06.67.16.99.18.7.56 1.33 1.06 1.83.73.73 1.73 1.18 2.83 1.18 1.86 0 3.35-1.3 3.8-3.01.09-.32.14-.65.15-.99v-4h3v-2h-14zm9 6c-.06 1.06-.87 1.98-1.95 1.98s-1.99-.91-2.05-1.98v-1h4v1zm0-3h-4v-1h4v1z" style="fill:#f4f4f4"/></svg>