<svg id="ToolboxCalendar" xmlns="http://www.w3.org/2000/svg" viewBox="0 0 32 32"><defs><linearGradient id="zb69f1mvpa" x1="71.829" y1="-24.482" x2="81.829" y2="-24.482" gradientTransform="translate(-66.5 49.5)" gradientUnits="userSpaceOnUse"><stop offset="0" stop-opacity="0"/><stop offset=".83"/></linearGradient><linearGradient id="8yroj89x9c" x1="0" y1="32" x2="32" y2="0" gradientUnits="userSpaceOnUse"><stop offset=".1" stop-color="#c590ff"/><stop offset=".9" stop-color="#2887ff"/></linearGradient><mask id="fpxt9ih9wb" x="0" y="0" width="32" height="32" maskUnits="userSpaceOnUse"><path d="M15 24.018H4v-14h24v8h2v-8c0-1.103-.897-2-2-2h-6v-4c0-1.103-.897-2-2-2h-8c-1.103 0-2 .897-2 2v4H4c-1.103 0-2 .897-2 2v14c0 1.103.897 2 2 2h11v-2zm-3-20h8v4h-8v-4z" style="fill:#fff;stroke-width:0"/><path style="fill:url(#zb69f1mvpa);stroke-width:0" d="M5.329 23.018h10v4h-10z" id="Gradients_black_" data-name="Gradients (black)"/><path style="stroke-width:0" d="M26.6 14.018h4.282v5.474H26.6z"/></mask></defs><g style="mask:url(#fpxt9ih9wb)"><path style="fill:url(#8yroj89x9c);stroke-width:0" d="M0 0h32v32H0z"/></g><path d="M28.976 18.006h-2.95v-2.009h-2.023v2.009h-3.994v-2.009h-2.023v2.009h-3.009a1 1 0 0 0-1 1v10a1 1 0 0 0 1 1h14a1 1 0 0 0 1-1v-10a1 1 0 0 0-1-1zm-1 10h-12v-8h2.009v1.991h2.023v-1.991h3.994v1.991h2.023v-1.991h1.95v8z" style="fill:#f3f3f3;stroke-width:0"/></svg>