<svg id="TravelIBM" xmlns="http://www.w3.org/2000/svg" viewBox="0 0 32 32"><defs><linearGradient id="kidn45b1oa" x1="1061.627" y1="-1045.284" x2="1085.372" y2="-1031.574" gradientTransform="matrix(1 0 0 -1 -1049.928 -1026.93)" gradientUnits="userSpaceOnUse"><stop offset=".4" stop-opacity="0"/><stop offset=".75"/></linearGradient><linearGradient id="5t8wgynitb" x1="-2067" y1="-6015.072" x2="-2086" y2="-6034.072" gradientTransform="matrix(1 0 0 -1 2085.072 -6004.072)" gradientUnits="userSpaceOnUse"><stop offset=".25"/><stop offset=".6" stop-opacity="0"/></linearGradient><linearGradient id="8b34ictzad" x1="1094" y1="-1062" x2="1062" y2="-1030" gradientTransform="matrix(1 0 0 -1 -1062 -1030)" gradientUnits="userSpaceOnUse"><stop offset=".1" stop-color="#6fdc8c"/><stop offset=".9" stop-color="#009d9a"/></linearGradient><mask id="pa8ibryzkc" x="0" y="0" width="32" height="32.001" maskUnits="userSpaceOnUse"><path d="M16.071 30c-7.72 0-14-6.28-14-14s6.28-14 14-14 14 6.28 14 14-6.28 14-14 14zm0-2c6.617 0 12-5.383 12-12s-5.383-12-12-12-12 5.383-12 12 5.383 12 12 12z" style="fill:#fff;stroke-width:0"/><path transform="rotate(90 23.571 11.499)" style="fill:url(#kidn45b1oa);stroke-width:0" d="M12.071 3.999h23v15h-23z"/><path transform="rotate(-90 8.572 20.5)" style="fill:url(#5t8wgynitb);stroke-width:0" d="M-2.928 13h23v15h-23z"/><path style="fill:#000;stroke-width:0" d="M16.071 18h14v13h-14zM2.071 1h14v13h-14z"/></mask></defs><g style="mask:url(#pa8ibryzkc)"><path transform="rotate(90 16 16)" style="fill:url(#8b34ictzad);stroke-width:0" d="M0 0h32v32H0z"/></g><path d="m11.071 8.5 6 2.5V9l-6-3V3a1 1 0 0 0-2 0v3l-6 3v2l6-2.5V14l-3 2v1l4-1 4 1v-1l-3-2V8.5z" style="fill:#f4f4f4;fill-rule:evenodd;stroke-width:0"/><path d="M28.071 18h-3v-2h-2v2h-1a2 2 0 0 0-1.997 1.997v2.007a2 2 0 0 0 1.997 1.997l4-.003.003 2.003h-6.003v2h3v2h2v-2h1.003a2 2 0 0 0 1.997-1.997v-2.007A2 2 0 0 0 26.074 22l-4 .003L22.071 20h6v-2z" style="fill:#f4f4f4;stroke-width:0"/></svg>