<svg id="Build_icon_here" data-name="Build icon here" xmlns="http://www.w3.org/2000/svg" xmlns:xlink="http://www.w3.org/1999/xlink" viewBox="0 0 32 32"><defs><linearGradient id="jd1dnkkcbb" x1="79" y1="-19" x2="87" y2="-19" gradientTransform="matrix(0 -1 -1 0 -16 110)" gradientUnits="userSpaceOnUse"><stop offset=".17"/><stop offset="1" stop-opacity="0"/></linearGradient><linearGradient id="6a5fiw4gba" y1="2" x2="32" y2="34" gradientTransform="matrix(1 0 0 -1 0 34)" gradientUnits="userSpaceOnUse"><stop offset=".1" stop-color="#be95ff"/><stop offset=".9" stop-color="#4589ff"/></linearGradient><linearGradient id="thf8t26hld" y1="32" x2="32" y2="0" xlink:href="#6a5fiw4gba"/><mask id="4mbn82qhjc" x="0" y="0" width="32" height="32" maskUnits="userSpaceOnUse"><path d="M30 30H7v-9a2 2 0 0 1 2-2h4a2 2 0 0 1 2 2v7h13V4H16v12H4v14H2V16a2 2 0 0 1 2-2h10V4a2 2 0 0 1 2-2h12a2 2 0 0 1 2 2zM9 28h4v-7H9z" style="fill:#fff"/><path style="fill:url(#jd1dnkkcbb)" d="M1 23h4v8H1z"/></mask></defs><g style="mask:url(#4mbn82qhjc)"><path style="fill:url(#6a5fiw4gba)" d="M0 0h32v32H0z"/><path id="_Transparent_Rectangle_" data-name="Transparent Rectangle" style="fill:url(#thf8t26hld)" d="M0 0h32v32H0z"/></g><path style="fill:#f4f4f4" d="M18 8h2v2h-2zm6 0h2v2h-2zm-6 6h2v2h-2zm6 0h2v2h-2zm-6 6h2v2h-2zm6 0h2v2h-2zM2 10h5v2H2zm8-8h2v5h-2z"/><path transform="rotate(-45 6.5 6.5)" style="fill:#f4f4f4" d="M5.5 3.964h2v5.071h-2z"/></svg>