<svg id="Build_icon_here" data-name="Build icon here" xmlns="http://www.w3.org/2000/svg" xmlns:xlink="http://www.w3.org/1999/xlink" viewBox="0 0 32 32"><defs><linearGradient id="jorp9l9jia" x1="117.998" y1="-78.005" x2="122.998" y2="-78.005" gradientTransform="matrix(1 0 0 -1 -97.498 -58.505)" gradientUnits="userSpaceOnUse"><stop offset=".2" stop-color="#fff"/><stop offset="1" stop-color="#fff" stop-opacity=".2"/></linearGradient><linearGradient id="z59l6gdohb" x1="123.998" y1="-84.005" x2="128.998" y2="-84.005" gradientTransform="matrix(1 0 0 -1 -109.498 -58.505)" xlink:href="#jorp9l9jia"/><linearGradient id="mxgr8k2tnd" y1="2" x2="32" y2="34" gradientTransform="matrix(1 0 0 -1 0 34)" gradientUnits="userSpaceOnUse"><stop offset=".1" stop-color="#be95ff"/><stop offset=".9" stop-color="#4589ff"/></linearGradient><mask id="g5ds89gy8c" x="0" y="0" width="32" height="32" maskUnits="userSpaceOnUse"><path d="M18 7v4h-4V7h4m-6-2v8h8V5zM8 16v4H4v-4h4m-6-2v8h8v-8z" style="fill:#fff"/><path transform="rotate(90 23 19.5)" style="fill:url(#jorp9l9jia)" d="M20.5 18.5h5v2h-5z"/><path transform="rotate(90 17 25.5)" style="fill:url(#z59l6gdohb)" d="M14.5 24.5h5v2h-5z"/><path d="M22 10v6h-6v6h-6v8h20V10zm0 18H12v-4h10zm6 0h-4v-4h4zm0-6H18v-4h10zm0-6h-4v-4h4z" style="fill:#fff"/></mask></defs><g style="mask:url(#g5ds89gy8c)"><path style="fill:url(#mxgr8k2tnd)" d="M0 0h32v32H0z"/></g><path d="M8 4v4H4V4h4M2 2v8h8V2z" style="fill:#f4f4f4"/></svg>