<svg id="Build_icon_here" data-name="Build icon here" xmlns="http://www.w3.org/2000/svg" viewBox="0 0 32 32"><defs><linearGradient id="b6ihpqf9ka" x1="5" y1="29" x2="25" y2="29" gradientUnits="userSpaceOnUse"><stop offset=".1"/><stop offset=".6" stop-opacity="0"/></linearGradient><linearGradient id="y0khe3n1wc" y1="32" x2="32" gradientUnits="userSpaceOnUse"><stop offset=".1" stop-color="#be95ff"/><stop offset=".9" stop-color="#4589ff"/></linearGradient><mask id="qeufb1w3lb" x="0" y="0" width="32" height="32" maskUnits="userSpaceOnUse"><path style="fill:#fff" d="M9 23h2v2H9zm12 0h2v2h-2zM9 18h2v2H9zm12 0h2v2h-2zM9 13h2v2H9zm6 10h2v2h-2zm0-5h2v2h-2zm0-5h2v2h-2zm6 0h2v2h-2z"/><path d="M26 30H6v-2h20V4H6v24H4V4a2 2 0 0 1 2-2h20a2 2 0 0 1 2 2v24a2 2 0 0 1-2 2z" style="fill:#fff"/><path style="fill:url(#b6ihpqf9ka)" d="m6 28 19-1v4H5l1-3z"/></mask></defs><g style="mask:url(#qeufb1w3lb)"><path style="fill:url(#y0khe3n1wc)" d="M0 0h32v32H0z"/></g><path style="fill:#f4f4f4" d="M9 7h14v3H9z"/></svg>