<svg id="Build_icon_here" data-name="Build icon here" xmlns="http://www.w3.org/2000/svg" xmlns:xlink="http://www.w3.org/1999/xlink" viewBox="0 0 32 32"><defs><linearGradient id="0n3y1opqla" x1="2067.5" y1="-5248.5" x2="2073.5" y2="-5248.5" gradientTransform="translate(-2053.5 5274.5)" gradientUnits="userSpaceOnUse"><stop offset="0" stop-opacity="0"/><stop offset=".9"/></linearGradient><linearGradient id="jjuysu1g1b" y1="-5255.5" y2="-5255.5" gradientTransform="translate(-2046.5 5281.5)" xlink:href="#0n3y1opqla"/><linearGradient id="4s3ywxhh7c" y1="-5241.5" y2="-5241.5" gradientTransform="translate(-2060.5 5267.5)" xlink:href="#0n3y1opqla"/><linearGradient id="4yo6a7kj7e" y1="32" x2="32" gradientUnits="userSpaceOnUse"><stop offset=".1" stop-color="#be95ff"/><stop offset=".9" stop-color="#4589ff"/></linearGradient><mask id="kdff49iljd" x="0" y="0" width="32" height="32" maskUnits="userSpaceOnUse"><path style="fill:#fff" d="M16 18h2v10h-2zm7-3h2v13h-2zM9 21h2v7H9z"/><path transform="rotate(90 17 26)" style="fill:url(#0n3y1opqla)" d="M14 24h6v4h-6z"/><path transform="rotate(90 24 26)" style="fill:url(#jjuysu1g1b)" d="M21 24h6v4h-6z"/><path transform="rotate(90 10 26)" style="fill:url(#4s3ywxhh7c)" d="M7 24h6v4H7z"/><path d="M4 2H2v26a2 2 0 0 0 2 2h26v-2H4z" style="fill:#fff"/></mask></defs><g style="mask:url(#kdff49iljd)"><path style="fill:url(#4yo6a7kj7e)" d="M0 0h32v32H0z"/></g><path style="fill:#f4f4f4" d="M28 2h-6v2h4.586L19 11.586l-4-4-8.707 8.707 1.414 1.414L15 10.414l4 4 9-9V10h2V2h-2z"/></svg>