<svg xmlns="http://www.w3.org/2000/svg" xmlns:xlink="http://www.w3.org/1999/xlink" viewBox="0 0 32 32">
  <defs>
    <linearGradient id="fd61f77f-4d8a-47b1-a661-3ffb18379b50" x1="4237.64" y1="3359.859" x2="4237.64" y2="3369.226" gradientTransform="translate(-4224.14 -3337.859)" gradientUnits="userSpaceOnUse">
      <stop offset="0" stop-opacity="0"/>
      <stop offset="0.9"/>
    </linearGradient>
    <mask id="f25e8867-abdb-491a-8df8-f46e3189f744" x="0" y="0" width="32" height="32" maskUnits="userSpaceOnUse">
      <g>
        <path d="M27,6a2,2,0,0,0-2-2H5A2,2,0,0,0,3,6V26a2,2,0,0,0,2,2H17V26H5V6H25v7h2Z" fill="#fff" fill-rule="evenodd"/>
        <rect x="9" y="20" width="6" height="2" fill="#fff"/>
        <rect x="9" y="15" width="12" height="2" fill="#fff"/>
        <path d="M21,10v2H9V10Z" fill="#fff" fill-rule="evenodd"/>
        <rect x="11" y="22" width="5" height="9" transform="translate(-13 40) rotate(-90)" fill="url(#fd61f77f-4d8a-47b1-a661-3ffb18379b50)"/>
      </g>
    </mask>
    <linearGradient id="f9c6c9e0-b80a-4eca-b9f5-4bb02def490e" y1="32" x2="32" gradientUnits="userSpaceOnUse">
      <stop offset="0.1" stop-color="#3ddbd9"/>
      <stop offset="0.9" stop-color="#4589ff"/>
    </linearGradient>
  </defs>
  <g id="ba88af7d-9730-4db8-9bb0-3f45c742727a" data-name="Layer 2">
    <g id="ab771022-34da-4394-acc2-d18d26cfebe5" data-name="Dark theme">
      <g>
        <g mask="url(#f25e8867-abdb-491a-8df8-f46e3189f744)">
          <rect width="32" height="32" fill="url(#f9c6c9e0-b80a-4eca-b9f5-4bb02def490e)"/>
        </g>
        <path d="M25,23l5,2V23l-5-2.5V18a1,1,0,0,0-2,0v2.5L18,23v2l5-2v3.5L21,28v1l3-1,3,1V28l-2-1.5Z" fill="#f4f4f4" fill-rule="evenodd"/>
      </g>
    </g>
  </g>
</svg>
