<svg xmlns="http://www.w3.org/2000/svg" viewBox="0 0 32 32"><defs><linearGradient id="jr1d0pyo0a" x1="6" y1="24.5" x2="27" y2="24.5" gradientUnits="userSpaceOnUse"><stop offset=".1" stop-opacity="0"/><stop offset=".6"/></linearGradient><linearGradient id="zj594pnnab" x1="12.72" y1="27.967" x2="12.72" y2="16" gradientUnits="userSpaceOnUse"><stop offset="0" stop-color="#fff" stop-opacity=".05"/><stop offset=".8" stop-color="#fff"/></linearGradient><linearGradient id="3brkjaqtxd" y1="32" x2="32" gradientUnits="userSpaceOnUse"><stop offset=".1" stop-color="#3ddbd9"/><stop offset=".9" stop-color="#4589ff"/></linearGradient><mask id="p01crer8bc" x="0" y="0" width="32" height="32" maskUnits="userSpaceOnUse"><path d="M16 2a14 14 0 1 0 9.9 23.9l-1.414-1.414A11.992 11.992 0 0 1 4.049 17H30v-1A14 14 0 0 0 16 2zM4.051 15A12.011 12.011 0 0 1 12.79 4.449 24.336 24.336 0 0 0 10.037 15zm7.982 0a21.788 21.788 0 0 1 3.3-10.956 5.11 5.11 0 0 1 1.342 0A21.788 21.788 0 0 1 19.967 15zm9.93 0A24.322 24.322 0 0 0 19.21 4.449 12.011 12.011 0 0 1 27.949 15z" fill="#fff"/><path fill="url(#jr1d0pyo0a)" d="M6 18h21v13H6z"/><path d="M15.441 27.967A21.7 21.7 0 0 1 12 16h-2a24.135 24.135 0 0 0 2.824 11.56 11.994 11.994 0 0 0 2.617.407z" fill="url(#zj594pnnab)"/></mask></defs><g data-name="Layer 2"><g data-name="Dark theme"><g mask="url(#p01crer8bc)"><path fill="url(#3brkjaqtxd)" d="M0 0h32v32H0z"/></g><path d="m25 25 5 2v-2l-5-2.5V20a1 1 0 0 0-2 0v2.5L18 25v2l5-2v3.5L21 30v1l3-1 3 1v-1l-2-1.5z" fill="#f4f4f4" fill-rule="evenodd"/></g></g></svg>