<svg xmlns="http://www.w3.org/2000/svg" xmlns:xlink="http://www.w3.org/1999/xlink" viewBox="0 0 32 32">
  <defs>
    <linearGradient id="bcdce1e6-f390-4dea-990d-8bb3ac0e1c42" x1="8" y1="9.5" x2="25" y2="9.5" gradientUnits="userSpaceOnUse">
      <stop offset="0" stop-opacity="0"/>
      <stop offset="0.5"/>
    </linearGradient>
    <mask id="fde1715b-19c6-472a-976f-87c10acb6575" x="0" y="0" width="32" height="32" maskUnits="userSpaceOnUse">
      <g>
        <path d="M19,4H9A5.006,5.006,0,0,0,4,9V21a4.99,4.99,0,0,0,3.582,4.77L5.769,30H7.945l1.714-4h8.682l1.714,4h2.176l-1.813-4.23A4.99,4.99,0,0,0,24,21V9A5.006,5.006,0,0,0,19,4ZM9,6H19a3,3,0,0,1,2.816,2H6.184A3,3,0,0,1,9,6ZM22,20H19v2h2.816A3,3,0,0,1,19,24H9a3,3,0,0,1-2.816-2H9V20H6V18H22Zm0-4H6V10H22Z" fill="#fff"/>
        <rect x="8" y="3" width="17" height="13" fill="url(#bcdce1e6-f390-4dea-990d-8bb3ac0e1c42)"/>
      </g>
    </mask>
    <linearGradient id="bf2b542d-8589-4897-bc42-3b4b2d976f8d" y1="32" x2="32" gradientUnits="userSpaceOnUse">
      <stop offset="0.1" stop-color="#3ddbd9"/>
      <stop offset="0.9" stop-color="#4589ff"/>
    </linearGradient>
  </defs>
  <g id="ac153ca8-5936-4042-850b-97a26e4c9d2b" data-name="Layer 2">
    <g id="fa9a6143-ab4f-41a4-8519-a6dfe7b542df" data-name="Dark theme">
      <g>
        <g mask="url(#fde1715b-19c6-472a-976f-87c10acb6575)">
          <rect width="32" height="32" fill="url(#bf2b542d-8589-4897-bc42-3b4b2d976f8d)"/>
        </g>
        <path d="M24,1a6,6,0,1,0,6,6A6.006,6.006,0,0,0,24,1Zm1.5,9.088L22.875,7.466V3h2.25V6.534L27.089,8.5Z" fill="#f4f4f4"/>
      </g>
    </g>
  </g>
</svg>
