<svg id="ImagesVPC" xmlns="http://www.w3.org/2000/svg" viewBox="0 0 32 32"><defs><linearGradient id="e171eptqwa" x1="29" y1="17.51" x2="29" y2="6.01" gradientUnits="userSpaceOnUse"><stop offset=".1"/><stop offset=".9" stop-opacity="0"/></linearGradient><linearGradient id="2lxrjs8xpc" x1="0" y1="32" x2="32" y2="0" gradientUnits="userSpaceOnUse"><stop offset=".1" stop-color="#6fdc8c"/><stop offset=".9" stop-color="#009d9a"/></linearGradient><mask id="963z9rhdnb" x="0" y="0" width="32" height="32" maskUnits="userSpaceOnUse"><path d="M30 20H3.996A1.998 1.998 0 0 1 2 18.004V5.996C2 4.895 2.895 4 3.996 4h24.009c1.101 0 1.996.896 1.996 1.996V17h-2V5.996L3.997 6l.004 12.004 26-.004v2zM2 22h28v2H2zM2 26h28v2H2z" style="fill:#fff"/><path style="fill:url(#e171eptqwa)" d="M27 6.01h4v11.5h-4z"/></mask></defs><g style="mask:url(#963z9rhdnb)"><path id="Color" style="fill:url(#2lxrjs8xpc)" d="M0 0h32v32H0z"/></g><path d="M16 16c-2.206 0-4-1.794-4-4s1.794-4 4-4 4 1.794 4 4-1.794 4-4 4zm0-6c-1.103 0-2 .897-2 2s.897 2 2 2 2-.897 2-2-.897-2-2-2zM24 10a2 2 0 1 0-.001 3.999A2 2 0 0 0 24 10zM8 10a2 2 0 1 0-.001 3.999A2 2 0 0 0 8 10z" style="fill:#f4f4f4"/></svg>