<svg id="unassigned60" xmlns="http://www.w3.org/2000/svg" xmlns:xlink="http://www.w3.org/1999/xlink" viewBox="0 0 32 32"><defs><linearGradient id="rw1j5xdlqa" x1="2067.5" y1="-5248.5" x2="2073.5" y2="-5248.5" gradientTransform="translate(-2053.5 5274.5)" gradientUnits="userSpaceOnUse"><stop offset="0" stop-opacity="0"/><stop offset=".9"/></linearGradient><linearGradient id="dj4pxgov6b" y1="-5241.5" y2="-5241.5" gradientTransform="translate(-2060.5 5267.5)" xlink:href="#rw1j5xdlqa"/><linearGradient id="1qa8kq7mic" y1="-5255.5" y2="-5255.5" gradientTransform="translate(-2046.5 5281.5)" xlink:href="#rw1j5xdlqa"/><linearGradient id="ky7g4jmv2e" x1="0" y1="32" x2="32" y2="0" gradientUnits="userSpaceOnUse"><stop offset=".1" stop-color="#3fd9d7"/><stop offset=".9" stop-color="#4587fd"/></linearGradient><mask id="zxhgu872jd" x="0" y="0" width="32" height="32" maskUnits="userSpaceOnUse"><path style="fill:#fff" d="M16 18h2v10h-2zM23 21h2v7h-2z"/><path transform="rotate(90 17 26)" style="fill:url(#rw1j5xdlqa)" d="M14 24h6v4h-6z"/><path style="fill:#fff" d="M9 15h2v13H9z"/><path transform="rotate(90 10 26)" style="fill:url(#dj4pxgov6b)" d="M7 24h6v4H7z"/><path transform="rotate(90 24 26)" style="fill:url(#1qa8kq7mic)" d="M21 24h6v4h-6z"/><path d="M4 2H2v26a2 2 0 0 0 2 2h26v-2H4V2z" style="fill:#fff"/></mask></defs><path style="fill:none" d="M0 0h32v32H0z"/><g style="mask:url(#zxhgu872jd)"><path style="fill:url(#ky7g4jmv2e)" d="M0 0h32v32H0z"/></g><path d="M29.911 13.936 23.628 2.371a.718.718 0 0 0-1.257 0l-6.283 11.565a.721.721 0 0 0 .632 1.065h12.56a.719.719 0 0 0 .631-1.065zM22.249 6h1.5v4h-1.5V6zm.75 7a1 1 0 1 1 0-2 1 1 0 0 1 0 2z" style="fill:#f2f2f2"/></svg>