<svg id="ProductName" xmlns="http://www.w3.org/2000/svg" viewBox="0 0 32 32"><defs><linearGradient id="fjk6sah0sa" x1="37.449" y1="75.15" x2="47.108" y2="77.738" gradientTransform="matrix(1.08043 -.25885 .2895 .96614 -50.371 -42.55)" gradientUnits="userSpaceOnUse"><stop offset=".01" stop-opacity="0"/><stop offset=".75"/></linearGradient><linearGradient id="qt31lynhhc" x1="0" y1="32" x2="32" y2="0" gradientUnits="userSpaceOnUse"><stop offset="0" stop-color="#3ddbd9"/><stop offset="1" stop-color="#4589ff"/></linearGradient><mask id="a2h80hcmlb" x="0" y="0" width="32" height="32" maskUnits="userSpaceOnUse"><path id="GradientStroke1" d="M21.704 23A7.009 7.009 0 0 0 15 18H9a7.009 7.009 0 0 0-7 7v5h2v-5a5.006 5.006 0 0 1 5-5h6a5.002 5.002 0 0 1 4.576 3h2.128z" style="fill:#fff"/><path id="Fade" transform="rotate(30 17.428 20.346)" style="fill:url(#fjk6sah0sa)" d="M11.836 16.847H23.02v7H11.836z"/><path id="GradientStroke2" d="M12 2a7 7 0 1 0 0 14 7 7 0 0 0 0-14zm0 12a5 5 0 0 1-5-5 5.006 5.006 0 0 1 5-5 5 5 0 0 1 0 10z" style="fill:#fff"/></mask></defs><path style="fill:none" d="M0 0h32v32H0z"/><g style="mask:url(#a2h80hcmlb)"><path style="fill:url(#qt31lynhhc)" d="M0 0h32v32H0z"/></g><path d="M26 22c-1.859 0-3.411 1.28-3.858 3H10v5h2v-3h2v3h2v-3h6.142c.447 1.72 1.999 3 3.858 3 2.206 0 4-1.794 4-4s-1.794-4-4-4zm0 6c-1.103 0-2-.897-2-2s.897-2 2-2 2 .897 2 2-.897 2-2 2z" style="fill:#f4f4f4"/></svg>