<svg id="unassigned" xmlns="http://www.w3.org/2000/svg" viewBox="0 0 32 32"><defs><linearGradient id="p2kipz2cka" x1="6" y1="25.5" x2="27" y2="25.5" gradientUnits="userSpaceOnUse"><stop offset=".1" stop-opacity="0"/><stop offset=".75"/></linearGradient><linearGradient id="x8i7vw9xvc" x1="0" y1="32" x2="32" y2="0" gradientUnits="userSpaceOnUse"><stop offset=".2" stop-color="#a56eff"/><stop offset=".8" stop-color="#82cfff"/></linearGradient><mask id="rwa4ey996b" x="0" y="0" width="32" height="32" maskUnits="userSpaceOnUse"><path d="M15 29c-4.962 0-9-4.038-9-9V7.618l9-4.5 11 5.5V6.382l-11-5.5-11 5.5V20c0 6.065 4.935 11 11 11s11-4.935 11-11h-2c0 4.962-4.038 9-9 9z" style="fill:#fff;stroke-width:0"/><path style="fill:url(#p2kipz2cka);stroke-width:0" d="M6 19h21v13H6z"/></mask></defs><path style="fill:none;stroke-width:0" d="M0 0h32v32H0z"/><g style="mask:url(#rwa4ey996b)"><path style="fill:url(#x8i7vw9xvc);stroke-width:0" d="M0 0h32v32H0z"/></g><path d="M25 21c-.462 0-.895.113-1.286.3l-2.281-2.281A3.96 3.96 0 0 0 22 17c0-2.206-1.794-4-4-4s-4 1.794-4 4 1.794 4 4 4c.74 0 1.424-.215 2.019-.567l2.281 2.281c-.187.391-.3.824-.3 1.286a3 3 0 1 0 3-3zm-9-4c0-1.103.897-2 2-2s2 .897 2 2-.897 2-2 2-2-.897-2-2z" style="fill:#f4f4f4;stroke-width:0"/></svg>