<svg id="unassignedlight" xmlns="http://www.w3.org/2000/svg" viewBox="0 0 32 32"><defs><linearGradient id="d56k4hxzfa" x1="6" y1="25.5" x2="27" y2="25.5" gradientUnits="userSpaceOnUse"><stop offset=".1" stop-opacity="0"/><stop offset=".75"/></linearGradient><linearGradient id="hpegusf79c" x1="0" y1="32" x2="32" y2="0" gradientUnits="userSpaceOnUse"><stop offset=".2" stop-color="#a56eff"/><stop offset=".8" stop-color="#82cfff"/></linearGradient><mask id="luys2ffx0b" x="0" y="0" width="32" height="32" maskUnits="userSpaceOnUse"><path d="M15 29c-4.962 0-9-4.038-9-9V7.618l9-4.5 11 5.5V6.382l-11-5.5-11 5.5V20c0 6.065 4.935 11 11 11s11-4.935 11-11h-2c0 4.962-4.038 9-9 9z" style="fill:#fff;stroke-width:0"/><path style="fill:url(#d56k4hxzfa);stroke-width:0" d="M6 19h21v13H6z"/></mask></defs><path style="fill:none;stroke-width:0" d="M0 0h32v32H0z"/><g style="mask:url(#luys2ffx0b)"><path style="fill:url(#hpegusf79c);stroke-width:0" d="M0 0h32v32H0z"/></g><path style="fill:#f4f4f4;stroke-width:0" d="M17 15h9v2h-9zM19 19h9v2h-9zM17 23h9v2h-9z"/></svg>