<svg id="unassigned" xmlns="http://www.w3.org/2000/svg" viewBox="0 0 32 32"><defs><linearGradient id="h1nfqzvp2a" x1="37.449" y1="75.15" x2="47.108" y2="77.738" gradientTransform="matrix(1.08043 -.25885 .2895 .96614 -50.371 -42.55)" gradientUnits="userSpaceOnUse"><stop offset=".01" stop-opacity="0"/><stop offset=".75"/></linearGradient><linearGradient id="12tp13tqgc" x1="0" y1="32" x2="32" y2="0" gradientUnits="userSpaceOnUse"><stop offset="0" stop-color="#3ddbd9"/><stop offset="1" stop-color="#4589ff"/></linearGradient><mask id="3t7gy1omjb" x="0" y="0" width="32" height="32" maskUnits="userSpaceOnUse"><path id="GradientStroke1" d="M21.704 23A7.009 7.009 0 0 0 15 18H9a7.009 7.009 0 0 0-7 7v5h2v-5a5.006 5.006 0 0 1 5-5h6a5.002 5.002 0 0 1 4.576 3h2.128z" style="fill:#fff"/><path id="Fade" transform="rotate(30 17.428 20.346)" style="fill:url(#h1nfqzvp2a)" d="M11.836 16.847H23.02v7H11.836z"/><path id="GradientStroke2" d="M12 2a7 7 0 1 0 0 14 7 7 0 0 0 0-14zm0 12a5 5 0 0 1-5-5 5.006 5.006 0 0 1 5-5 5 5 0 0 1 0 10z" style="fill:#fff"/></mask></defs><path style="fill:none" d="M0 0h32v32H0z"/><g style="mask:url(#3t7gy1omjb)"><path style="fill:url(#12tp13tqgc)" d="M0 0h32v32H0z"/></g><path style="fill:#f4f4f4" d="m23 27.18-2.59-2.59L19 26l4 4 7-7-1.41-1.41L23 27.18z"/></svg>