<svg id="unassigned" xmlns="http://www.w3.org/2000/svg" viewBox="0 0 32 32"><defs><linearGradient id="i56j33vzaa" x1="6" y1="25.5" x2="27" y2="25.5" gradientUnits="userSpaceOnUse"><stop offset=".1" stop-opacity="0"/><stop offset=".75"/></linearGradient><linearGradient id="ywbqohs4sc" x1="0" y1="32" x2="32" y2="0" gradientUnits="userSpaceOnUse"><stop offset=".2" stop-color="#a56eff"/><stop offset=".8" stop-color="#82cfff"/></linearGradient><mask id="52bq84nrkb" x="0" y="0" width="32" height="32" maskUnits="userSpaceOnUse"><path d="M15 29c-4.962 0-9-4.038-9-9V7.618l9-4.5 11 5.5V6.382l-11-5.5-11 5.5V20c0 6.065 4.935 11 11 11s11-4.935 11-11h-2c0 4.962-4.038 9-9 9z" style="fill:#fff"/><path style="fill:url(#i56j33vzaa)" d="M6 19h21v13H6z"/></mask></defs><path style="fill:none" d="M0 0h32v32H0z"/><g style="mask:url(#52bq84nrkb)"><path style="fill:url(#ywbqohs4sc)" d="M0 0h32v32H0z"/></g><path d="M24.976 22.337c-.305 0-.591.074-.849.196l-2.338-1.619c.111-.341.187-.699.187-1.077s-.076-.736-.187-1.077l2.338-1.619c.259.122.544.196.849.196a2 2 0 1 0-2-2c0 .054.012.104.016.157l-2.342 1.622a3.462 3.462 0 0 0-2.174-.779c-1.93 0-3.5 1.57-3.5 3.5s1.57 3.5 3.5 3.5c.825 0 1.575-.299 2.174-.779l2.342 1.622c-.004.053-.016.103-.016.157a2 2 0 1 0 2-2zm-6.5-1c-.827 0-1.5-.673-1.5-1.5s.673-1.5 1.5-1.5 1.5.673 1.5 1.5-.673 1.5-1.5 1.5z" style="fill:#f4f4f4"/></svg>