<svg id="unassigned" xmlns="http://www.w3.org/2000/svg" viewBox="0 0 32 32"><defs><linearGradient id="8gi9l7dqwa" x1="28" y1="22" x2="28" y2="10" gradientUnits="userSpaceOnUse"><stop offset=".1"/><stop offset=".9" stop-opacity="0"/></linearGradient><linearGradient id="tl558yfc0c" x1="-1090" y1="32" x2="-1122" y2="0" gradientTransform="matrix(1 0 0 -1 1122 32)" gradientUnits="userSpaceOnUse"><stop offset="0" stop-color="#3ddbd9"/><stop offset="1" stop-color="#4589ff"/></linearGradient><mask id="kc2jrganwb" x="0" y="0" width="32" height="32" maskUnits="userSpaceOnUse"><path d="M8 27H4c-1.103 0-2-.897-2-2V5c0-1.103.897-2 2-2h7.586c.534 0 1.036.208 1.414.586L16.414 7H27c1.103 0 2 .897 2 2v12h-2V9H15.586l-4-4H4v20h4v2z" style="fill:#fff"/><path style="fill:url(#8gi9l7dqwa)" d="M26 10h4v12h-4z"/></mask></defs><path style="fill:none" d="M0 0h32v32H0z"/><g style="mask:url(#kc2jrganwb)"><path transform="rotate(180 16 16)" style="fill:url(#tl558yfc0c)" d="M0 0h32v32H0z"/></g><path d="M28 22c-1.858 0-3.411 1.28-3.858 3H12v5h2v-3h2v3h2v-3h6.142c.447 1.72 2 3 3.858 3 2.206 0 4-1.794 4-4s-1.794-4-4-4zm0 6c-1.103 0-2-.897-2-2s.897-2 2-2 2 .897 2 2-.897 2-2 2z" style="fill:#f4f4f4"/></svg>