<svg id="unassigned" xmlns="http://www.w3.org/2000/svg" viewBox="0 0 32 32"><defs><linearGradient id="usw350zcca" x1="6.604" y1="28.604" x2="18.604" y2="16.604" gradientUnits="userSpaceOnUse"><stop offset=".61" stop-color="#fff"/><stop offset=".85" stop-color="#fff" stop-opacity="0"/></linearGradient><linearGradient id="3tiugwokzc" x1="0" y1="32" x2="32" y2="0" gradientUnits="userSpaceOnUse"><stop offset=".1" stop-color="#3ddbd9"/><stop offset=".9" stop-color="#4589ff"/></linearGradient><mask id="zk37d8k2sb" x="0" y="0" width="32" height="32" maskUnits="userSpaceOnUse"><path d="m14.726 14.102-.002-.003A6.964 6.964 0 0 1 14 11c0-3.86 3.14-7 7-7s7 3.14 7 7c0 .695-.105 1.366-.295 2h2.064A9.03 9.03 0 0 0 30 11a9 9 0 0 0-18 0c0 .908.143 1.78.393 2.606L2 24v6h6l-.828-2H4v-3.172l10.726-10.727z" style="fill:#fff"/><circle cx="22" cy="10" r="2" style="fill:#fff"/><path style="fill:url(#usw350zcca)" d="m18.586 16.586-4.793 4.793L12.414 20 11 21.414l1.379 1.379-1.586 1.586L9.414 23 8 24.414l1.379 1.379-2.793 2.793L8 30l12-12-1.414-1.414z"/></mask></defs><path style="fill:none" d="M0 0h32v32H0z"/><g style="mask:url(#zk37d8k2sb)"><path style="fill:url(#3tiugwokzc)" d="M0 0h32v32H0z"/></g><path d="M27 25h-6a3 3 0 0 0-3 3v2h2v-2a1 1 0 0 1 1-1h6a1 1 0 0 1 1 1v2h2v-2a3 3 0 0 0-3-3zM24 24a4 4 0 1 0 0-8 4 4 0 0 0 0 8zm0-6a2 2 0 1 1 .001 3.999A2 2 0 0 1 24 18z" style="fill:#f4f4f4"/></svg>