<svg id="unassigned" xmlns="http://www.w3.org/2000/svg" viewBox="0 0 32 32"><defs><linearGradient id="rlu81k6nna" x1="-2956.412" y1="1134.229" x2="-2956.412" y2="1141.978" gradientTransform="matrix(0 -1 -1 0 1146.23 -2940.412)" gradientUnits="userSpaceOnUse"><stop offset=".2"/><stop offset="1" stop-opacity="0"/></linearGradient><linearGradient id="3t1hq25epc" x1="0" y1="1.606" x2="32" y2="33.606" gradientTransform="matrix(1 0 0 -1 0 33.606)" gradientUnits="userSpaceOnUse"><stop offset=".1" stop-color="#3ddbd9"/><stop offset=".9" stop-color="#4589ff"/></linearGradient><mask id="u8rimhpt2b" x="0" y="0" width="32" height="32" maskUnits="userSpaceOnUse"><g id="kyi26lvqpb"><path d="M16.037 2c-3.742 0-7.26 1.458-9.904 4.105l-.706.707 3.903 3.904 1.414-1.414L8.283 6.84a11.895 11.895 0 0 1 6.754-2.797v3.956h2V4.05a11.938 11.938 0 0 1 6.741 2.795l-2.791 2.791 1.414 1.414 2.791-2.791a11.938 11.938 0 0 1 2.795 6.74h-3.949v2h3.949a11.938 11.938 0 0 1-2.795 6.741l-2.791-2.79-1.414 1.414 2.791 2.79a11.938 11.938 0 0 1-6.74 2.795V24h-2v3.952a11.92 11.92 0 0 1-6.736-2.802l2.978-2.978-1.414-1.414-2.979 2.979A11.94 11.94 0 0 1 4.079 17h6.958v-2h-9v1c0 7.72 6.28 14 14 14s14-6.28 14-14-6.281-14-14-14z" style="fill:#fff;stroke-width:0"/><path d="M4.252 18v-4h7.749v4H4.252z" style="fill:url(#rlu81k6nna);stroke-width:0"/></g></mask></defs><g style="mask:url(#u8rimhpt2b)"><path d="M0 0h32v32H0V0z" style="fill:url(#3t1hq25epc);stroke-width:0"/></g><path d="M16.037 20c-2.206 0-4-1.794-4-4s1.794-4 4-4 4 1.794 4 4-1.794 4-4 4zm0-6c-1.103 0-2 .897-2 2s.897 2 2 2 2-.897 2-2-.897-2-2-2z" style="fill:#f4f4f4;stroke-width:0"/></svg>