<svg id="unassigned64" xmlns="http://www.w3.org/2000/svg" viewBox="0 0 32 32"><defs><linearGradient id="nk8mw956ca" x1="-3008.157" y1="-6983.641" x2="-3000.157" y2="-6983.641" gradientTransform="matrix(.755 0 0 -1 2282.341 -6956.755)" gradientUnits="userSpaceOnUse"><stop offset="0" stop-opacity="0"/><stop offset=".8"/></linearGradient><linearGradient id="hgyk2qmm7c" x1="0" y1="32" x2="32" y2="0" gradientUnits="userSpaceOnUse"><stop offset=".1" stop-color="#6eda8a"/><stop offset=".9" stop-color="#019b98"/></linearGradient><mask id="bjzmd5thub" x="0" y="0" width="32" height="32" maskUnits="userSpaceOnUse"><path d="M21 2c-4.663 0-8.647 2.921-10.245 7.025A6.995 6.995 0 0 0 5 6H2v3c0 3.86 3.14 7 7 7h1v9.049a9.922 9.922 0 0 0-6.071 2.88l1.414 1.414A7.948 7.948 0 0 1 11 27a7.993 7.993 0 0 1 6.651 3.556l1.662-1.112A9.984 9.984 0 0 0 12 25.062V16h1c6.065 0 11-4.935 11-11V2h-3zM9 14c-2.757 0-5-2.243-5-5V8h1c2.757 0 5 2.243 5 5v1H9zm4 0h-1v-1c0-4.962 4.038-9 9-9h1v1c0 4.962-4.038 9-9 9z" style="fill:#fff"/><path d="m17.477 25.763 2.983 3.072-1.704 2.371-2.445-1.296 1.166-4.147z"/><path transform="rotate(15.685 14.297 26.886)" style="fill:url(#nk8mw956ca)" d="M11.278 24.886h6.04v4h-6.04z"/></mask></defs><path style="fill:none" d="M0 0h32v32H0z"/><g style="mask:url(#bjzmd5thub)"><path style="fill:url(#hgyk2qmm7c)" d="M0 0h32v32H0z"/></g><path d="M28 18a2.995 2.995 0 0 0-2.816 2H17v2h8.184A2.995 2.995 0 0 0 28 24c1.654 0 3-1.346 3-3s-1.346-3-3-3zm0 4a1.001 1.001 0 0 1 0-2 1.001 1.001 0 0 1 0 2zM19 25c-1.654 0-3 1.346-3 3s1.346 3 3 3a2.995 2.995 0 0 0 2.816-2H30v-2h-8.184A2.995 2.995 0 0 0 19 25zm0 4a1.001 1.001 0 0 1 0-2 1.001 1.001 0 0 1 0 2z" style="fill:#f2f2f2"/></svg>