<svg id="unassigned" xmlns="http://www.w3.org/2000/svg" viewBox="0 0 32 32"><defs><linearGradient id="z1kngmeh7a" x1="32.5" y1="33.5" x2="32.5" y2="25.5" gradientTransform="translate(-3.5 -3.5)" gradientUnits="userSpaceOnUse"><stop offset=".1"/><stop offset=".9" stop-opacity="0"/></linearGradient><linearGradient id="evqnn4deqc" x1="0" y1="32" x2="32" y2="0" gradientUnits="userSpaceOnUse"><stop offset="0" stop-color="#3ddbd9"/><stop offset="1" stop-color="#4589ff"/></linearGradient><mask id="8plyi7381b" x="0" y="0" width="32" height="32" maskUnits="userSpaceOnUse"><path d="M25 30H4c-1.103 0-2-.897-2-2v-6c0-1.103.897-2 2-2h24c1.103 0 2 .897 2 2v7h-2v-7H4v6h21v2z" style="fill:#fff"/><path style="fill:url(#z1kngmeh7a)" d="M27 22h4v8h-4z"/></mask></defs><path style="fill:none" d="M0 0h32v32H0z"/><g style="mask:url(#8plyi7381b)"><path style="fill:url(#evqnn4deqc)" d="M0 0h32v32H0z"/></g><circle cx="7" cy="25" r="1" style="fill:#f4f4f4"/><path d="M13.858 10c-.447-1.72-2-3-3.858-3-2.206 0-4 1.794-4 4s1.794 4 4 4c1.858 0 3.411-1.28 3.858-3H20v3h2v-3h2v3h2v-5H13.858zM10 13c-1.103 0-2-.897-2-2s.897-2 2-2 2 .897 2 2-.897 2-2 2z" style="fill:#f4f4f4"/></svg>