<svg id="unassigned" xmlns="http://www.w3.org/2000/svg" viewBox="0 0 32 32"><defs><linearGradient id="ja9jz2tu6a" x1="6" y1="25.5" x2="27" y2="25.5" gradientUnits="userSpaceOnUse"><stop offset=".1" stop-opacity="0"/><stop offset=".75"/></linearGradient><linearGradient id="f2nwdr0hmc" x1="0" y1="32" x2="32" y2="0" gradientUnits="userSpaceOnUse"><stop offset=".2" stop-color="#a56eff"/><stop offset=".8" stop-color="#82cfff"/></linearGradient><mask id="52cpvcvkqb" x="0" y="0" width="32" height="32" maskUnits="userSpaceOnUse"><path d="M15 29c-4.962 0-9-4.038-9-9V7.618l9-4.5 11 5.5V6.382l-11-5.5-11 5.5V20c0 6.065 4.935 11 11 11s11-4.935 11-11h-2c0 4.962-4.038 9-9 9z" style="fill:#fff;stroke-width:0"/><path style="fill:url(#ja9jz2tu6a);stroke-width:0" d="M6 19h21v13H6z"/></mask></defs><path style="fill:none;stroke-width:0" d="M0 0h32v32H0z"/><g style="mask:url(#52cpvcvkqb)"><path style="fill:url(#f2nwdr0hmc);stroke-width:0" d="M0 0h32v32H0z"/></g><path d="M30 21v-2h-3v-1c0-.182-.035-.355-.054-.532l2.761-2.761-1.414-1.414-2.065 2.065C25.343 13.947 23.785 13 22 13s-3.343.948-4.228 2.358l-2.065-2.065-1.414 1.414 2.761 2.761c-.019.177-.054.35-.054.532v1h-3v2h3c0 .479.089.932.215 1.371l-2.922 2.922 1.414 1.414 2.494-2.494C19.119 25.296 20.472 26 22 26s2.881-.704 3.799-1.787l2.494 2.494 1.414-1.414-2.922-2.922c.126-.439.215-.892.215-1.371h3zm-8 3c-1.654 0-3-1.346-3-3v-3c0-1.654 1.346-3 3-3s3 1.346 3 3v3c0 1.654-1.346 3-3 3z" style="fill:#f4f4f4;stroke-width:0"/></svg>