<svg id="unassigned24" xmlns="http://www.w3.org/2000/svg" viewBox="0 0 32 32"><defs><linearGradient id="xngy3tqs7a" x1="6" y1="25.5" x2="27" y2="25.5" gradientUnits="userSpaceOnUse"><stop offset=".1" stop-opacity="0"/><stop offset=".75"/></linearGradient><linearGradient id="0a3sfxil6c" x1="0" y1="32" x2="32" y2="0" gradientUnits="userSpaceOnUse"><stop offset=".2" stop-color="#a56eff"/><stop offset=".8" stop-color="#82cfff"/></linearGradient><mask id="pkw473n2pb" x="0" y="0" width="32" height="32" maskUnits="userSpaceOnUse"><path d="M15 29c-4.962 0-9-4.038-9-9V7.618l9-4.5 11 5.5V6.382l-11-5.5-11 5.5V20c0 6.065 4.935 11 11 11s11-4.935 11-11h-2c0 4.962-4.038 9-9 9z" style="fill:#fff"/><path style="fill:url(#xngy3tqs7a)" d="M6 19h21v13H6z"/></mask></defs><path style="fill:none" d="M0 0h32v32H0z"/><g style="mask:url(#pkw473n2pb)"><path style="fill:url(#0a3sfxil6c)" d="M0 0h32v32H0z"/></g><path style="fill:#f4f4f4" d="M22 13v2h2.8L18 22.4V20h-2v6h6v-2h-2.8l6.8-7.4V19h2v-6h-6z"/></svg>