<svg id="unassigneddark" xmlns="http://www.w3.org/2000/svg" viewBox="0 0 32 32"><defs><linearGradient id="mpwvsvq9ha" x1="3" y1="11" x2="28" y2="11" gradientUnits="userSpaceOnUse"><stop offset=".5" stop-color="#fff"/><stop offset="1" stop-color="#fff" stop-opacity="0"/></linearGradient><linearGradient id="7jbul4d5xc" x1=".362" y1="31.638" x2="31.63" y2=".37" gradientUnits="userSpaceOnUse"><stop offset=".1" stop-color="#be95ff"/><stop offset=".9" stop-color="#4589ff"/></linearGradient><mask id="gpg9jo1odb" x="0" y="0" width="32" height="32" maskUnits="userSpaceOnUse"><circle cx="6" cy="8" r="1" style="fill:#fff;stroke-width:0"/><circle cx="9" cy="8" r="1" style="fill:#fff;stroke-width:0"/><path d="M28 4H4c-1.103 0-2 .897-2 2v20c0 1.103.897 2 2 2h3v-2H4V6h24v9.971h2V6c0-1.103-.897-2-2-2z" style="fill:#fff;stroke-width:0"/><path style="fill:url(#mpwvsvq9ha);stroke-width:0" d="M3 10h25v2H3z"/></mask></defs><g style="mask:url(#gpg9jo1odb)"><path style="fill:url(#7jbul4d5xc);stroke-width:0" d="M0 0h32v32H0z"/></g><path d="M25.523 19c-1.731 0-3.865 1.878-5.023 3.044C19.342 20.879 17.208 19 15.477 19 13.008 19 11 21.019 11 23.5s2.008 4.5 4.477 4.5c1.731 0 3.865-1.878 5.023-3.044C21.658 26.121 23.792 28 25.523 28 27.992 28 30 25.981 30 23.5S27.992 19 25.523 19zm-10.046 7C14.111 26 13 24.879 13 23.5s1.111-2.5 2.477-2.5c.837 0 2.473 1.321 3.648 2.5-1.175 1.179-2.811 2.5-3.648 2.5zm10.046 0c-.837 0-2.473-1.321-3.648-2.5 1.175-1.179 2.811-2.5 3.648-2.5C26.889 21 28 22.121 28 23.5S26.889 26 25.523 26z" style="fill:#f4f4f4;stroke-width:0"/><g style="opacity:.5"><path style="fill:none;stroke-width:0" d="M0 0h32v32H0z"/></g></svg>