<svg id="UnstructuredDataProcessor" xmlns="http://www.w3.org/2000/svg" viewBox="0 0 32 32"><defs><linearGradient id="j5buoaohca" x1="27" y1="17" x2="27" y2="9" gradientUnits="userSpaceOnUse"><stop offset="0" stop-opacity="0"/><stop offset=".8"/></linearGradient><linearGradient id="emxxz0bpfc" x1="0" y1="1.606" x2="32" y2="33.606" gradientTransform="matrix(1 0 0 -1 0 33.606)" gradientUnits="userSpaceOnUse"><stop offset=".1" stop-color="#3ddbd9"/><stop offset=".9" stop-color="#4589ff"/></linearGradient><mask id="90llz2hvsb" x="0" y="0" width="32" height="32" maskUnits="userSpaceOnUse"><path d="M19.999 29.998h-8c-1.103 0-2-.897-2-2v-4.465L4.89 20.127a1.996 1.996 0 0 1-.891-1.664v-4.465h2v4.465l5.109 3.406c.558.372.891.994.891 1.664v4.465h8v-4.465c0-.67.333-1.292.891-1.664l5.109-3.406V10H28v8.463c0 .67-.334 1.292-.892 1.664l-5.109 3.406v4.465c0 1.102-.897 2-2 2z" style="fill:#fff"/><path style="fill:url(#j5buoaohca)" d="M25 9h4v8h-4z"/></mask></defs><path style="fill:none" d="M0 0h32v32H0z"/><g style="mask:url(#90llz2hvsb)"><path d="M0 0h32v32H0V0z" style="fill:url(#emxxz0bpfc)"/></g><path d="M14 19h7v-7h-7v7zm2-5h3v3h-3v-3zM3.382 12h9.236L8 2.764 3.382 12zm3.236-2L8 7.236 9.382 10H6.618zM22 2c-2.206 0-4 1.794-4 4s1.794 4 4 4 4-1.794 4-4-1.794-4-4-4zm0 6c-1.103 0-2-.897-2-2s.897-2 2-2 2 .897 2 2-.897 2-2 2z" style="fill:#f4f4f4"/></svg>