<svg id="VirtualDevAndTestForZOS" xmlns="http://www.w3.org/2000/svg" viewBox="0 0 32 32"><defs><linearGradient id="xzc5uh32ia" x1="1536.404" y1="269.671" x2="1549.404" y2="269.671" gradientTransform="matrix(1.03 0 0 .848 -1577.326 -203.977)" gradientUnits="userSpaceOnUse"><stop offset=".1" stop-opacity="0"/><stop offset=".9"/></linearGradient><linearGradient id="g3xa9jw90c" x1="-4278" y1="4310" x2="-4310" y2="4342" gradientTransform="matrix(1 0 0 -1 4310 4342)" gradientUnits="userSpaceOnUse"><stop offset=".1" stop-color="#c590ff"/><stop offset=".9" stop-color="#2887ff"/></linearGradient><mask id="dbmrni7gpb" x="0" y="0" width="32" height="32" maskUnits="userSpaceOnUse"><path d="m15.486 30.864-11.99-6.988A1 1 0 0 1 3 23.012V9h2v13.438l11.494 6.699-1.008 1.728zM12.992 13.017l-2-.002L11 4.337a1 1 0 0 1 .501-.866l4.02-2.313a1.004 1.004 0 0 1 1.002.002l11.98 6.975a.999.999 0 0 1 .497.864v4h-2V9.574L16.017 3.18l-3.018 1.736-.007 8.101z" style="fill:#fff"/><path style="fill:#fff" d="M7 6h2v10H7z"/><path transform="rotate(30 12.138 24.76)" style="fill:url(#xzc5uh32ia)" d="M5.442 20.519h13.392v8.482H5.442z"/></mask></defs><g style="mask:url(#dbmrni7gpb)"><path transform="rotate(90 16 16)" style="fill:url(#g3xa9jw90c)" d="M0 0h32v32H0z"/></g><circle cx="29" cy="29" r="2" style="fill:#f0f0f0"/><path d="M19 22c-1.654 0-3-1.346-3-3s1.346-3 3-3 3 1.346 3 3-1.346 3-3 3zm0-4a1.001 1.001 0 0 0 0 2 1.001 1.001 0 0 0 0-2z" style="fill:#f0f0f0"/><g><path d="M30.99 24.013v.02h-2v-.02c0-2.76-2.24-5-5-5v-2c3.86 0 7 3.14 7 7zM23.99 29.013v2c-3.86 0-7-3.14-7-7h2c0 2.76 2.25 5 5 5z" style="fill:#f3f3f3"/></g></svg>