<svg id="VSCodeWindowResizer" xmlns="http://www.w3.org/2000/svg" xmlns:xlink="http://www.w3.org/1999/xlink" viewBox="0 0 32 32"><defs><linearGradient id="6oigk4zjka" x1="-63" y1="23" x2="-63" y2="14.5" gradientTransform="translate(92 -2.5)" gradientUnits="userSpaceOnUse"><stop offset=".1" stop-opacity="0"/><stop offset=".9"/></linearGradient><linearGradient id="vmbgi3ycjb" x1="-89" y1="21" x2="-89" y2="12.5" gradientTransform="translate(92 -1)" xlink:href="#6oigk4zjka"/><linearGradient id="n2ejqb6k8d" x1="0" y1="32" x2="32" y2="0" gradientUnits="userSpaceOnUse"><stop offset="0" stop-color="#4589ff"/><stop offset="1" stop-color="#a6c8ff"/></linearGradient><mask id="rk4etncg9c" x="0" y="0" width="32" height="32" maskUnits="userSpaceOnUse"><circle cx="20" cy="8" r="1" style="fill:#fff"/><circle cx="23" cy="8" r="1" style="fill:#fff"/><circle cx="26" cy="8" r="1" style="fill:#fff"/><path d="M10 4v22H4V12H2v14a2.002 2.002 0 0 0 2 2h18v-2H12V12h16v8h2V6a2.002 2.002 0 0 0-2-2H10zm18 6H12V6h16v4z" style="fill:#fff"/><path transform="rotate(180 29 16.25)" style="fill:url(#6oigk4zjka)" d="M27 12h4v8.5h-4z"/><path style="fill:url(#vmbgi3ycjb)" d="M1 11.5h4V20H1z"/></mask></defs><path style="fill:none" d="M0 0h32v32H0z"/><g style="mask:url(#rk4etncg9c)"><path style="fill:url(#n2ejqb6k8d)" d="M0 0h32v32H0z"/></g><path d="M4 10H2V6c0-1.103.897-2 2-2h4v2H4v4zM28 28h-4v-2h4v-4h2v4c0 1.103-.897 2-2 2z" style="fill:#f4f4f4"/></svg>