<svg xmlns="http://www.w3.org/2000/svg" viewBox="0 0 32 32"><defs><linearGradient id="WatsonTalentAssessments_svg__a" x1="-2065.5" y1="1552.501" x2="-2054.5" y2="1552.501" gradientTransform="rotate(90 -250 1827.5)" gradientUnits="userSpaceOnUse"><stop offset="0" stop-opacity="0"/><stop offset=".8"/></linearGradient><linearGradient id="WatsonTalentAssessments_svg__c" x1="-1548" y1="32" x2="-1580" gradientTransform="matrix(1 0 0 -1 1580 32)" gradientUnits="userSpaceOnUse"><stop offset=".1" stop-color="#be95ff"/><stop offset=".9" stop-color="#4589ff"/></linearGradient><mask id="WatsonTalentAssessments_svg__b" x="0" y="0" width="32" height="32" maskUnits="userSpaceOnUse"><path fill="#fff" d="M11 15h10v2H11zM11 20h5v2h-5z"/><path d="M25.7 9.3l-7-7A.912.912 0 0018 2H8a2 2 0 00-2 2v24a2 2 0 002 2h8v-2H8V4h8v6a2 2 0 002 2h6v10h2V10a.913.913 0 00-.3-.7zM18 10V4.4l5.6 5.6z" fill="#fff"/><path fill="url(#WatsonTalentAssessments_svg__a)" d="M22.999 12h4v11h-4z"/></mask></defs><g data-name="Layer 2"><g data-name="Dark theme icons"><g mask="url(#WatsonTalentAssessments_svg__b)"><path transform="rotate(180 16 16)" fill="url(#WatsonTalentAssessments_svg__c)" d="M0 0h32v32H0z"/></g><path fill="#f4f4f4" d="M23 27.18l-2.59-2.59L19 26l4 4 7-7-1.41-1.41L23 27.18z"/></g></g></svg>