<svg id="watsonx" xmlns="http://www.w3.org/2000/svg" viewBox="0 0 32 32"><defs><linearGradient id="8913t7g6za" x1="1196.653" y1="2930.892" x2="1209.953" y2="2912.832" gradientTransform="matrix(.8312 .55596 -.27409 .40979 -188.767 -1860.755)" gradientUnits="userSpaceOnUse"><stop offset=".3"/><stop offset="1" stop-opacity="0"/></linearGradient><linearGradient id="woevpxiuib" x1="1299.261" y1="2844.072" x2="1310.351" y2="2829.012" gradientTransform="rotate(146.223 440.869 -882.286) scale(1 -.493)" gradientUnits="userSpaceOnUse"><stop offset=".3"/><stop offset=".9" stop-opacity="0"/></linearGradient><linearGradient id="je2bg9iagc" x1="-4885.16" y1="-20230.559" x2="-4871.86" y2="-20248.618" gradientTransform="rotate(-146.223 -911.421 -5714.55) scale(1 .493)" gradientUnits="userSpaceOnUse"><stop offset=".32"/><stop offset=".354" stop-opacity=".798"/><stop offset=".7" stop-opacity="0"/></linearGradient><linearGradient id="2co5q30b1e" x1="0" y1="32" x2="32" y2="0" gradientUnits="userSpaceOnUse"><stop offset=".1" stop-color="#be95ff"/><stop offset=".9" stop-color="#4589ff"/></linearGradient><mask id="brch21jdod" x="0" y="0" width="32" height="32" maskUnits="userSpaceOnUse"><path d="M16 1A14.915 14.915 0 0 0 5.502 5.286l1.4 1.429A12.922 12.922 0 0 1 16 3.001c.977 0 1.929.109 2.845.315-3.402.921-5.916 4.026-5.916 7.715 0 .782.118 1.537.328 2.252a7.978 7.978 0 0 0-2.188-.312c-3.704 0-6.819 2.534-7.726 5.957a12.954 12.954 0 0 1-.345-2.927c0-2.117.492-4.134 1.462-5.996l-1.773-.924A15.037 15.037 0 0 0 .999 16c0 8.271 6.729 15 15 15 3.949 0 7.678-1.522 10.498-4.286l-1.4-1.428A12.926 12.926 0 0 1 15.999 29c-3.648 0-6.945-1.516-9.309-3.945a5.959 5.959 0 0 1-1.621-4.086c0-3.309 2.691-6 6-6a6.006 6.006 0 0 1 5.897 7.107l1.967.367a7.971 7.971 0 0 0-.192-3.726 7.976 7.976 0 0 0 2.187.312c3.71 0 6.829-2.542 7.73-5.974.22.947.34 1.931.34 2.944 0 2.117-.492 4.134-1.462 5.995l1.773.924a15.034 15.034 0 0 0 1.688-6.919c0-8.271-6.729-15-15-15zm4.93 16.03c-3.309 0-6-2.692-6-6s2.691-6 6-6 6 2.691 6 6-2.691 6-6 6z" style="fill:#fff;stroke-width:0"/><path style="fill:url(#8913t7g6za);stroke-width:0" d="M8 9 0 0h16l2.305 3.305L8 9z"/><path style="fill:url(#woevpxiuib);stroke-width:0" d="m12 31 4.386-9L6 21 2 31h10z"/><path style="fill:url(#je2bg9iagc);stroke-width:0" d="m24 23 8 9H16l-2.305-3.305L24 23z"/><path style="stroke-width:0" d="M16 31h-4.283L15 22h2l-1 9z"/></mask></defs><g style="mask:url(#brch21jdod)"><path style="fill:url(#2co5q30b1e);stroke-width:0" d="M0 0h32v32H0z"/></g><circle cx="6" cy="6" r="2" style="fill:#f4f4f4;stroke-width:0"/><circle cx="26" cy="26" r="2" style="fill:#f4f4f4;stroke-width:0"/><path d="M16 31c-2.757 0-5-2.243-5-5s2.243-5 5-5 5 2.243 5 5-2.243 5-5 5zm0-8c-1.654 0-3 1.346-3 3s1.346 3 3 3 3-1.346 3-3-1.346-3-3-3z" style="fill:#f4f4f4;stroke-width:0"/></svg>