<svg id="watsonxDataIntelligence" xmlns="http://www.w3.org/2000/svg" viewBox="0 0 32 32"><defs><linearGradient id="hyh9ipjd5a" x1="-558.757" y1="580.036" x2="-549.261" y2="580.036" gradientTransform="matrix(-.19017 -.6882 -.78267 .21627 368.176 -500.372)" gradientUnits="userSpaceOnUse"><stop offset=".15"/><stop offset=".8" stop-color="#231f20" stop-opacity="0"/></linearGradient><linearGradient id="5tylrlg3ab" x1="-5041.107" y1="-9098" x2="-5033.107" y2="-9098" gradientTransform="translate(5052.107 9123)" gradientUnits="userSpaceOnUse"><stop offset="0" stop-opacity="0"/><stop offset=".8"/></linearGradient><linearGradient id="5ea86gixrd" x1="-564" y1="-204" x2="-532" y2="-236" gradientTransform="translate(564 236)" gradientUnits="userSpaceOnUse"><stop offset=".1" stop-color="#be95ff"/><stop offset=".9" stop-color="#4589ff"/></linearGradient><mask id="zt1m5xxw9c" x="0" y="0" width="32" height="32" maskUnits="userSpaceOnUse"><g id="jv2fi8bh2c"><path d="M16.991 21.997c0-1.839 1.107-2.865 2.178-3.857 1.379-1.279 2.822-2.619 2.822-6.143 0-4.411-3.589-8-8-8s-8 3.589-8 8c0 3.521 1.431 4.863 2.814 6.141 1.075.993 2.186 2.019 2.186 3.859h-2c0-.919-.528-1.449-1.541-2.384-1.46-1.348-3.459-3.216-3.459-7.616 0-5.514 4.486-10 10-10s10 4.486 10 10c0 4.4-2.01 6.266-3.465 7.614-1.009.935-1.535 1.466-1.535 2.386h-2z" style="fill:#fff"/><path d="M14.536 11.045 12.73 4.51l11.74-3.244 1.806 6.535-11.74 3.244z" style="fill:url(#hyh9ipjd5a)"/><path d="M8.991 23.997h10v2h-10v-2zm2 4h6v2h-6v-2z" style="fill:#fff"/><path d="m14.991 23 11.088-.01.16-15.496-11.636 3.222L14.991 23z"/><path d="M11 23h8v4h-8v-4z" style="fill:url(#5tylrlg3ab)"/></g></mask></defs><path style="fill:none" d="M0 0h32v32H0z"/><g style="mask:url(#zt1m5xxw9c)"><path d="M0 0h32v32H0V0z" style="fill:url(#5ea86gixrd)"/></g><path d="M22 7v.01C21.93 7 21.85 7 21.77 7H22z"/><path d="M18 24h7v2h-7v-2zm2 4h3v2h-3v-2zm5-6h-2c0-1.056.412-2.049 1.159-2.795l.524-.523A4.474 4.474 0 0 0 26 15.5c0-2.481-2.019-4.5-4.5-4.5S17 13.019 17 15.5a4.47 4.47 0 0 0 1.318 3.182l.525.524A3.92 3.92 0 0 1 20 21.999h-2c0-.521-.203-1.011-.571-1.379l-.525-.524A6.457 6.457 0 0 1 15 15.499c0-3.584 2.916-6.5 6.5-6.5s6.5 2.916 6.5 6.5a6.46 6.46 0 0 1-1.903 4.596l-.524.523a1.941 1.941 0 0 0-.572 1.38V22z" style="fill:#f4f4f4"/></svg>