<svg id="watsonxDataIntelligence" xmlns="http://www.w3.org/2000/svg" xmlns:xlink="http://www.w3.org/1999/xlink" viewBox="0 0 32 32"><defs><linearGradient id="mcil0hvm2a" x1="1542.021" y1="291.996" x2="1555.021" y2="291.996" gradientTransform="matrix(.371 0 0 .73 -553.485 -206.791)" gradientUnits="userSpaceOnUse"><stop offset="0" stop-opacity="0"/><stop offset=".832"/></linearGradient><linearGradient id="q715uo6rtb" x1="-5041.107" y1="9132" x2="-5033.107" y2="9132" gradientTransform="matrix(1 0 0 -1 5052.107 9157)" gradientUnits="userSpaceOnUse"><stop offset="0" stop-opacity="0"/><stop offset=".8"/></linearGradient><linearGradient id="ug2xdbrb9c" x1="0" y1="32" x2="32" y2="0" gradientUnits="userSpaceOnUse"><stop offset=".1" stop-color="#c592ff"/><stop offset=".9" stop-color="#238aff"/></linearGradient><linearGradient id="t7tu2aibke" x1="0" y1="16" x2="32" y2="16" xlink:href="#ug2xdbrb9c"/><mask id="ytw7rqk0yd" x="0" y="0" width="32" height="32" maskUnits="userSpaceOnUse"><path style="fill:#fff" d="M9 23.997h10v2H9zM11 27.997h6v2h-6zM14 3.997c2.954 0 5.529 1.615 6.913 4.003h2.242C21.609 4.472 18.092 1.997 14 1.997c-5.514 0-10 4.486-10 10 0 4.401 2 6.268 3.459 7.616C8.471 20.547 9 21.078 9 21.997h2c0-1.84-1.111-2.866-2.186-3.859C7.43 16.86 6 15.519 6 11.997c0-4.411 3.589-8 8-8z"/><path transform="rotate(74.56 20.604 6.333)" style="fill:url(#mcil0hvm2a)" d="M18.194 2.684h4.82v7.299h-4.82z"/><path d="M11 23h8v4h-8v-4z" style="fill:url(#q715uo6rtb)"/></mask></defs><path style="fill:none" d="M0 0h32v32H0z"/><g style="mask:url(#ytw7rqk0yd)"><path style="fill:url(#ug2xdbrb9c)" d="M0 0h32v32H0z"/><path d="M0 0h32v32H0V0z" style="fill:url(#t7tu2aibke)"/></g><path d="M18 24h7v2h-7v-2zm2 4h3v2h-3v-2zm5-6h-2c0-1.056.412-2.049 1.159-2.795l.524-.523A4.474 4.474 0 0 0 26 15.5c0-2.481-2.019-4.5-4.5-4.5S17 13.019 17 15.5a4.47 4.47 0 0 0 1.318 3.182l.525.524A3.92 3.92 0 0 1 20 21.999h-2c0-.521-.203-1.011-.571-1.379l-.525-.524A6.457 6.457 0 0 1 15 15.499c0-3.584 2.916-6.5 6.5-6.5s6.5 2.916 6.5 6.5a6.46 6.46 0 0 1-1.903 4.596l-.524.523a1.941 1.941 0 0 0-.572 1.38V22z" style="fill:#f2f2f2"/></svg>