<svg xmlns="http://www.w3.org/2000/svg" xmlns:xlink="http://www.w3.org/1999/xlink" viewBox="0 0 32 32"><defs><style>.cls-1{fill:#fff;}.cls-2{fill:url(#linear-gradient);}.cls-3{mask:url(#mask);}.cls-4{fill:url(#linear-gradient-2);}.cls-5{fill:#f4f4f4;}</style><linearGradient id="linear-gradient" x1="16" y1="33" x2="16" y2="28" gradientUnits="userSpaceOnUse"><stop offset="0.3"/><stop offset="1" stop-opacity="0"/></linearGradient><mask id="mask" x="0" y="0" width="32" height="33" maskUnits="userSpaceOnUse"><path class="cls-1" d="M23,32H21V28a3,3,0,0,0-3-3H14a3,3,0,0,0-3,3v4H9V28a5.006,5.006,0,0,1,5-5h4a5.006,5.006,0,0,1,5,5Z"/><path class="cls-1" d="M16,13a3,3,0,1,1-3,3,3,3,0,0,1,3-3m0-2a5,5,0,1,0,5,5A5,5,0,0,0,16,11Z"/><rect class="cls-2" x="8" y="28" width="16" height="5"/></mask><linearGradient id="linear-gradient-2" y1="32" x2="32" gradientUnits="userSpaceOnUse"><stop offset="0.1" stop-color="#be95ff"/><stop offset="0.9" stop-color="#4589ff"/></linearGradient></defs><g id="Layer_2" data-name="Layer 2"><g id="Dark_theme_icons" data-name="Dark theme icons"><g class="cls-3"><rect class="cls-4" width="32" height="32"/></g><path class="cls-5" d="M30,16l-4,4-1.4-1.4L27.2,16l-2.6-2.6L26,12Z"/><path class="cls-5" d="M16,2l4,4L18.6,7.4,16,4.8,13.4,7.4,12,6Z"/><path class="cls-5" d="M2,16l4-4,1.4,1.4L4.8,16l2.6,2.6L6,20Z"/></g></g></svg>