<svg id="watsonxCodeAssistantforZ" xmlns="http://www.w3.org/2000/svg" viewBox="0 0 32 32"><defs><linearGradient id="j9f800rsxa" x1="28" y1="-2653.751" x2="28" y2="-2663.543" gradientTransform="matrix(1 0 0 -1 0 -2644.877)" gradientUnits="userSpaceOnUse"><stop offset="0" stop-opacity="0"/><stop offset=".805"/></linearGradient><linearGradient id="ldfa8r96zc" x1="0" y1="32" x2="32" y2="0" gradientUnits="userSpaceOnUse"><stop offset=".1" stop-color="#bd94ff"/><stop offset=".9" stop-color="#4588ff"/></linearGradient><mask id="uv46dn0m5b" x="0" y="0" width="32" height="32" maskUnits="userSpaceOnUse"><path d="M27.019 3h-9.038c-1.092 0-1.98.889-1.98 1.981V19h2l-.02-14 9.02-.019v13.047h2V4.981A1.983 1.983 0 0 0 27.02 3z" style="fill:#fff;stroke-width:0"/><path style="fill:url(#j9f800rsxa);stroke-width:0" d="M26.554 8.874h2.891v9.791h-2.891z"/><path d="M12 3H3a2 2 0 0 0-2 2v22a2 2 0 0 0 2 2h9a2 2 0 0 0 2-2V5a2 2 0 0 0-2-2zm0 7.037L5.075 5H12v5.037zM3.7 20l8.3-6.036v12.073l-8.3-6.036zm7.6-8L3 18.036V5.964L11.3 12zM3 21.963 9.925 27H3v-5.037z" style="fill:#fff;stroke-width:0"/></mask></defs><g style="mask:url(#uv46dn0m5b)"><path style="fill:url(#ldfa8r96zc);stroke-width:0" d="M0 0h32v32H0z"/></g><path style="fill:#f4f4f4;stroke-width:0" d="m29.17 25-2.58 2.58L28 29l4-4-4-4-1.42 1.41L29.17 25zM17.83 25l2.58-2.58L19 21l-4 4 4 4 1.42-1.41L17.83 25zM23 30l-1.915-.577L24 20l1.915.577L23 30z"/></svg>