<svg id="WatsonStudio" xmlns="http://www.w3.org/2000/svg" xmlns:xlink="http://www.w3.org/1999/xlink" viewBox="0 0 32 32"><defs><linearGradient id="linear-gradient" x1="-136.231" y1="-46.129" x2="-130.978" y2="-46.129" gradientTransform="translate(146.302 61.297)" gradientUnits="userSpaceOnUse"><stop offset="0" stop-opacity="0"/><stop offset=".83"/></linearGradient><linearGradient id="linear-gradient-2" x1="-2061.56" y1="-1171.328" x2="-2057.443" y2="-1171.328" gradientTransform="translate(2088.444 1183.995)" xlink:href="#linear-gradient"/><linearGradient id="linear-gradient-3" x1="0" y1="32" x2="32" y2="0" gradientUnits="userSpaceOnUse"><stop offset=".1" stop-color="#be95ff"/><stop offset=".9" stop-color="#4589ff"/></linearGradient><style></style><mask id="mask" width="32" height="32" maskUnits="userSpaceOnUse"><path d="m20.107 30.04-1.73 1-4.04-7h-1.38a5 5 0 0 1-4.9-4h-1.1c-2.76 0-5-2.24-5-5v-3a9 9 0 0 1 9-9h5.041v2h-5.041c-3.52 0-6.44 2.61-6.92 6h1.92c.55 0 1-.45 1-1v-1h2v1c0 1.66-1.35 3-3 3h-2v2c0 1.65 1.34 3 3 3h1.1c.26-1.27.99-2.36 2.01-3.08.82-.58 1.81-.92 2.89-.92h1v2h-1c-1.38 0-2.53.93-2.89 2.19-.12.44-.15.92-.05 1.42.28 1.42 1.61 2.39 3.06 2.39h1.26a2 2 0 0 1 1.79 1.11l3.98 6.89z" style="fill:#fff"/><path style="fill:url(#linear-gradient)" d="M10.071 11.929h5.252v6.478h-5.252z" id="Gradients__black_" data-name="Gradients (black)"/><path d="M29.999 12.03v1c0 1.91-.76 3.63-2 4.89v2.11c0 2.76-2.24 5-5 5h-1v-2h1c1.66 0 3-1.34 3-3v-.68c-.91.43-1.92.68-3 .68h-3v-2h3c2.76 0 5-2.24 5-5v-1c0-.65-.07-1.3-.21-1.92h2.04c.11.62.17 1.26.17 1.92z" style="fill:#fff"/><path transform="rotate(-90 28.943 12.667)" style="fill:url(#linear-gradient-2)" d="M26.885 10.611h4.116v4.112h-4.116z" id="Gradients__black_-2" data-name="Gradients (black)"/><path d="M26.881 9.023h4.287v1.878h-4.287z"/></mask></defs><g style="mask:url(#mask)"><path style="fill:url(#linear-gradient-3)" d="M0 0h32v32H0z"/></g><path d="M26.03 2.016c-2.206 0-4 1.794-4 4 0 .009.002.016.003.025l-5.649 1.532a1.99 1.99 0 0 0-1.375-.553 2 2 0 0 0 0 4c.941 0 1.724-.652 1.938-1.527l5.615-1.523c.102.18.215.349.342.51l-2.635 3.558c-.082-.01-.162-.025-.246-.025a2 2 0 1 0 1.845 1.227l2.619-3.536a4.004 4.004 0 0 0 5.545-3.689c0-2.206-1.794-4-4-4zm0 6c-1.103 0-2-.897-2-2s.897-2 2-2 2 .897 2 2-.897 2-2 2z" style="fill:#f4f4f4"/></svg>