<svg xmlns="http://www.w3.org/2000/svg" viewBox="0 0 32 32"><defs><linearGradient id="o8n6730e0a" x1="-4845.903" y1="-4718.5" x2="-4837.903" y2="-4718.5" gradientTransform="matrix(1 0 0 -1 4862.903 -4697.5)" gradientUnits="userSpaceOnUse"><stop offset=".001" stop-opacity="0"/><stop offset=".83"/></linearGradient><linearGradient id="h7rxzznrsc" y1="32" x2="32" gradientUnits="userSpaceOnUse"><stop offset=".1" stop-color="#be95ff"/><stop offset=".9" stop-color="#4589ff"/></linearGradient><mask id="kc504ni2wb" x="0" y="0" width="32" height="32" maskUnits="userSpaceOnUse"><circle cx="8.5" cy="17.5" r="1.5" fill="#fff"/><circle cx="15.5" cy="17.5" r="1.5" fill="#fff"/><path d="M15.446 20.359a4.439 4.439 0 0 1-6.892 0L7 21.648a6.491 6.491 0 0 0 10 0z" fill="#fff"/><path d="M10.113 26H5a1 1 0 0 1-1-1V14a1 1 0 0 1 1-1h5v-2H5a3 3 0 0 0-3 3v11a3 3 0 0 0 3 3h3.958l2.31 4L13 31zM20 18v7a1 1 0 0 1-1 1h-5v2h5a3 3 0 0 0 3-3v-7z" fill="#fff"/><path transform="rotate(-90 21 21)" fill="url(#o8n6730e0a)" d="M17 19h8v4h-8z"/></mask></defs><g data-name="Layer 2"><g data-name="Layer 1"><g mask="url(#kc504ni2wb)"><path fill="url(#h7rxzznrsc)" d="M0 0h32v32H0z"/></g><g fill="#f4f4f4"><circle cx="23.992" cy="5" r="1"/><circle cx="18.992" cy="5" r="1"/><path d="M23.947 10a3.494 3.494 0 0 0-4.894 0l-1.4-1.429a5.491 5.491 0 0 1 7.69 0z"/><path d="M15 0h13a2 2 0 0 1 2 2v10a2 2 0 0 1-2 2h-3.536l-1.732 3L21 16l2.31-4H28V2H15v10h5v2h-5a2 2 0 0 1-2-2V2a2 2 0 0 1 2-2z"/></g></g></g></svg>