<svg xmlns="http://www.w3.org/2000/svg" viewBox="0 0 32 32"><defs><linearGradient id="630gkytpqa" x1="4.618" y1="18.089" x2="11.083" y2="6.893" gradientUnits="userSpaceOnUse"><stop offset=".2" stop-opacity="0"/><stop offset=".9"/></linearGradient><linearGradient id="wp47v0mfhc" x1="-4360" y1="-516" x2="-4328" y2="-548" gradientTransform="matrix(1 0 0 -1 4360 -516)" gradientUnits="userSpaceOnUse"><stop offset=".1" stop-color="#be95ff"/><stop offset=".9" stop-color="#4589ff"/></linearGradient><mask id="xg1p7ie1eb" x="0" y="0" width="32" height="32" maskUnits="userSpaceOnUse"><path d="m29.878 15.521-6-11A1 1 0 0 0 23 4H9v2h13.406l5.455 10-5.455 10H9.594L4.139 16l4.938-9.052-1.733-1-5.222 9.573a1 1 0 0 0 0 .958l6 11A1 1 0 0 0 9 28h14a1 1 0 0 0 .878-.521l6-11a1 1 0 0 0 0-.958z" fill="#fff"/><path fill="url(#630gkytpqa)" d="M13 8 6 5 1 16h11l1-8z"/></mask></defs><g data-name="Layer 2"><g data-name="Dark theme icons"><g mask="url(#xg1p7ie1eb)"><path transform="rotate(-90 16 16)" fill="url(#wp47v0mfhc)" d="M0 0h32v32H0z"/></g><path d="m16 14-4 4-1.4-1.4 2.6-2.6-2.6-2.6L12 10zm0 4 4 4 1.4-1.4-2.6-2.6 2.6-2.6L20 14z" fill="#f4f4f4"/></g></g></svg>