<svg id="watsonxBIAssistant" xmlns="http://www.w3.org/2000/svg" xmlns:xlink="http://www.w3.org/1999/xlink" viewBox="0 0 32 32"><defs><linearGradient id="wccnq1z0ca" x1="-3.825" y1="26.509" x2="-.431" y2="23.115" gradientTransform="matrix(.58897 .70676 -.58903 .70682 18.874 7.96)" gradientUnits="userSpaceOnUse"><stop offset="0" stop-opacity="0"/><stop offset=".935"/></linearGradient><linearGradient id="i6bo3qdzgb" x1="4.661" y1="34.994" x2="8.055" y2="31.6" gradientTransform="matrix(.58897 .70676 -.58903 .70682 18.874 -16.04)" xlink:href="#wccnq1z0ca"/><linearGradient id="wk0r2u342c" x1="8.668" y1="21.668" x2="11.668" y2="18.668" gradientTransform="matrix(.82532 .7074 -.82518 .70725 17.667 -.533)" gradientUnits="userSpaceOnUse"><stop offset="0" stop-opacity="0"/><stop offset=".75"/></linearGradient><linearGradient id="kxdhy61h5e" x1="0" y1="32" x2="32" y2="0" gradientUnits="userSpaceOnUse"><stop offset=".1" stop-color="#be95ff"/><stop offset=".9" stop-color="#4589ff"/></linearGradient><mask id="wy99anhipd" x="0" y="0" width="32" height="32" maskUnits="userSpaceOnUse"><path style="fill:#fff;stroke-width:0" d="M1.072 23H8v2H1.072zM1.062 11H9v2H1.062z"/><path d="M19 24c0 2.76-2.24 5-5 5a5.002 5.002 0 0 1-3-9l-1.42-1.42A6.932 6.932 0 0 0 7 24c0 3.87 3.13 7 7 7s7-3.13 7-7h-2z" style="fill:#fff;stroke-width:0"/><path transform="rotate(180 3 24)" style="fill:url(#wccnq1z0ca);stroke-width:0" d="M1 22h4v4H1z"/><path transform="rotate(180 3 12)" style="fill:url(#i6bo3qdzgb);stroke-width:0" d="M1 10h4v4H1z"/><path transform="rotate(-45 9.418 20.918)" style="fill:url(#wk0r2u342c);stroke-width:0" d="M6.943 19.034h4.95v3.768h-4.95z"/></mask></defs><g style="mask:url(#wy99anhipd)"><path style="fill:url(#kxdhy61h5e);stroke-width:0" d="M0 0h32v32H0z"/></g><path d="M21 21c-5.514 0-10-4.486-10-10S15.486 1 21 1s10 4.486 10 10-4.486 10-10 10zm0-18c-4.411 0-8 3.589-8 8s3.589 8 8 8 8-3.589 8-8-3.589-8-8-8z" style="fill:#f4f4f4;stroke-width:0"/></svg>