<svg xmlns="http://www.w3.org/2000/svg" xmlns:xlink="http://www.w3.org/1999/xlink" viewBox="0 0 32 32">
  <defs>
    <linearGradient id="bb810af5-9d70-422d-991a-4049e51dc215" x1="-408" y1="5784" x2="-402" y2="5784" gradientTransform="translate(5787 417) rotate(90)" gradientUnits="userSpaceOnUse">
      <stop offset="0" stop-opacity="0"/>
      <stop offset="0.8"/>
    </linearGradient>
    <mask id="f005d632-2d18-4cd5-9df0-574ad6a00922" x="0" y="0" width="32" height="32" maskUnits="userSpaceOnUse">
      <path d="M12,1,10.586,2.414,13.172,5H4A2,2,0,0,0,2,7v7H4V7h9.172L10.586,9.586,12,11l5-5Z" fill="#fff"/>
      <rect x="19" y="2" width="8" height="2" fill="#fff"/>
      <rect x="22" y="6" width="8" height="2" fill="#fff"/>
      <rect x="22" y="10" width="8" height="2" fill="#fff"/>
      <rect x="19" y="14" width="8" height="2" fill="#fff"/>
      <rect x="22" y="18" width="8" height="2" fill="#fff"/>
      <rect x="1" y="9" width="4" height="6" fill="url(#bb810af5-9d70-422d-991a-4049e51dc215)"/>
    </mask>
    <linearGradient id="b7c73dca-cdb0-4589-ae2c-37dca0789926" x1="-855.076" y1="-737" x2="-823.076" y2="-705" gradientTransform="translate(855.076 737)" gradientUnits="userSpaceOnUse">
      <stop offset="0.1" stop-color="#be95ff"/>
      <stop offset="0.9" stop-color="#4589ff"/>
    </linearGradient>
  </defs>
  <g id="b6ff66d4-f64f-4253-88f7-eef4f7e9cb6d" data-name="Layer 2">
    <g id="f84d5412-3e15-425f-8919-68f9481535f7" data-name="Layer 1">
      <g>
        <g>
          <g mask="url(#f005d632-2d18-4cd5-9df0-574ad6a00922)">
            <rect width="32" height="32" transform="translate(0 32) rotate(-90)" fill="url(#b7c73dca-cdb0-4589-ae2c-37dca0789926)"/>
          </g>
          <rect x="6" y="19" width="5" height="2" fill="#f4f4f4"/>
          <rect x="6" y="23" width="5" height="2" fill="#f4f4f4"/>
        </g>
        <path d="M13,30H4a2,2,0,0,1-2-2V17a2,2,0,0,1,2-2h9a2,2,0,0,1,2,2V28A2,2,0,0,1,13,30ZM4,17V28h9V17Z" fill="#f4f4f4"/>
      </g>
    </g>
  </g>
</svg>
