<svg id="WatsonOrders" xmlns="http://www.w3.org/2000/svg" xmlns:xlink="http://www.w3.org/1999/xlink" viewBox="0 0 32 32"><defs><linearGradient id="6yk6w8qkba" x1="-201" y1="26" x2="-193" y2="26" gradientTransform="translate(208)" gradientUnits="userSpaceOnUse"><stop offset="0" stop-opacity="0"/><stop offset=".8"/></linearGradient><linearGradient id="abg3d2ljbb" x1="-3015" y1="-7110.75" x2="-3006" y2="-7110.75" gradientTransform="translate(3030 7116.5)" xlink:href="#6yk6w8qkba"/><linearGradient id="z7zc48f10d" y1="32" x2="32" gradientUnits="userSpaceOnUse"><stop offset=".1" stop-color="#be95ff"/><stop offset=".9" stop-color="#4589ff"/></linearGradient><mask id="xj662o0v7c" x="0" y="0" width="32" height="32" maskUnits="userSpaceOnUse"><path d="M28 13h-2v-2a5.006 5.006 0 0 0-5-5h-5V4h5a7.008 7.008 0 0 1 7 7zM14 28h-3a7.008 7.008 0 0 1-7-7v-4h2v4a5.006 5.006 0 0 0 5 5h3z" style="fill:#fff"/><path style="fill:url(#6yk6w8qkba)" d="M7 23h8v6H7z"/><path transform="rotate(180 19.5 5.75)" style="fill:url(#abg3d2ljbb)" d="M15 3h9v5.5h-9z"/></mask></defs><g style="mask:url(#xj662o0v7c)"><path style="fill:url(#z7zc48f10d)" d="M0 0h32v32H0z"/></g><path d="M14 10h-3v2h3a2 2 0 0 0 2-2V4a2 2 0 0 0-2-2H4a2 2 0 0 0-2 2v6a2 2 0 0 0 2 2h2.423l1.731 3 1.733-1-2.31-4H4V4h10v6zM22 20h3v2h-3zM22 24h3v2h-3z" style="fill:#f4f4f4"/><path d="M27 30h-5v-2h5V18h-7v8.893a3.082 3.082 0 0 1-2.5 3.066A3 3 0 0 1 14 27v-3h2v3a1 1 0 0 0 1.176.986A1.086 1.086 0 0 0 18 26.893V16h11v12a2 2 0 0 1-2 2z" style="fill:#f4f4f4"/></svg>