<svg id="WaziDeploy" xmlns="http://www.w3.org/2000/svg" viewBox="0 0 32 32"><defs><linearGradient id="a7ceg5ptia" x1="1536.404" y1="269.671" x2="1549.404" y2="269.671" gradientTransform="matrix(1.03 0 0 .848 -1577.326 -203.977)" gradientUnits="userSpaceOnUse"><stop offset=".1" stop-opacity="0"/><stop offset=".9"/></linearGradient><linearGradient id="h9s4pg3aic" x1="-4270" y1="4272" x2="-4238" y2="4304" gradientTransform="matrix(1 0 0 -1 4270 4304)" gradientUnits="userSpaceOnUse"><stop offset=".1" stop-color="#c590ff"/><stop offset=".9" stop-color="#2887ff"/></linearGradient><mask id="3p44l5b3ob" x="0" y="0" width="32" height="32" maskUnits="userSpaceOnUse"><path d="m15.486 30.864-11.99-6.988A1 1 0 0 1 3 23.012V9h2v13.438l11.494 6.699-1.008 1.728zM12.992 13.017l-2-.002L11 4.337a1 1 0 0 1 .501-.866l4.02-2.313a1.004 1.004 0 0 1 1.002.002l11.98 6.975a.999.999 0 0 1 .497.864v4h-2V9.574L16.017 3.179l-3.018 1.736-.007 8.101z" style="fill:#fff"/><path style="fill:#fff" d="M7 6h2v10H7z"/><path transform="rotate(30 12.138 24.76)" style="fill:url(#a7ceg5ptia)" d="M5.442 20.519h13.392v8.482H5.442z"/></mask></defs><g style="mask:url(#3p44l5b3ob)"><path style="fill:url(#h9s4pg3aic)" d="M0 0h32v32H0z"/></g><path d="m26.978 23.017-1.414 1.414 1.573 1.573h-7.136v-3.147c1.72-.447 3-2 3-3.858 0-2.206-1.794-4-4-4s-4 1.794-4 4c0 1.858 1.28 3.411 3 3.858v3.147c0 1.1.9 2 2 2h7.127l-1.556 1.556 1.414 1.414 3.975-3.975-3.982-3.982zM17 18.999c0-1.103.897-2 2-2s2 .897 2 2-.897 2-2 2-2-.897-2-2z" style="fill:#f4f4f4"/></svg>