<svg id="WebMethodsManagedFileTransfer" xmlns="http://www.w3.org/2000/svg" xmlns:xlink="http://www.w3.org/1999/xlink" viewBox="0 0 32 32"><defs><linearGradient id="1zh0zwozta" x1="-1922.331" y1="-12.493" x2="-1911.812" y2="-9.675" gradientTransform="scale(-1 1) rotate(-22.462 -928.042 -4788.352)" gradientUnits="userSpaceOnUse"><stop offset=".3"/><stop offset="1" stop-opacity="0"/></linearGradient><linearGradient id="wdwu0xmu0b" x1="3559.077" y1="-3641.935" x2="3569.596" y2="-3639.116" gradientTransform="scale(1 -1) rotate(-81.178 3897.675 245.115)" xlink:href="#1zh0zwozta"/><linearGradient id="cztjrn0v3c" x1="-2090.873" y1="-6597.871" x2="-2080.354" y2="-6595.052" gradientTransform="scale(1 -1) rotate(34.756 -11533.11 65.71)" xlink:href="#1zh0zwozta"/><linearGradient id="1qleuu8dge" x1="-1090" y1="32" x2="-1122" y2="0" gradientTransform="matrix(1 0 0 -1 1122 32)" gradientUnits="userSpaceOnUse"><stop offset=".1" stop-color="#41d7d5"/><stop offset=".9" stop-color="#4685fb"/></linearGradient><mask id="m200fyhj4d" x="0" y="0" width="32.211" height="32" maskUnits="userSpaceOnUse"><path d="M5.429 8.108C9.778 1.73 18.505.08 24.883 4.429s8.028 13.076 3.679 19.454-13.076 8.028-19.454 3.679S1.08 14.486 5.429 8.108zm1.652 1.127c-3.728 5.467-2.314 12.947 3.153 16.675s12.947 2.314 16.675-3.153S29.223 9.81 23.756 6.082 10.809 3.769 7.081 9.235z" style="fill:#fff"/><path style="fill:url(#1zh0zwozta)" d="M11.994 1 22.56 2.167l-1.318 3.356L11 6.569 11.994 1z"/><path style="fill:url(#wdwu0xmu0b)" d="M6.489 27.253 2 17.617 5.552 17l6.213 8.21-5.276 2.043z"/><path style="fill:url(#cztjrn0v3c)" d="m32.211 19.8-6.702 8.251-2.109-2.925 4.667-9.177 4.144 3.851z"/><path transform="rotate(-151.251 23.078 4.769)" d="M21.763 3.17h2.63v3.196h-2.63z"/><path d="M20.521 3.309c.932-1.367 2.803-1.721 4.17-.789s1.721 2.803.789 4.17-2.803 1.721-4.17.789-1.721-2.803-.789-4.17zm1.653 1.127a1.001 1.001 0 1 0 1.655 1.127 1.001 1.001 0 0 0-1.655-1.127z" style="fill:#fff"/><path transform="rotate(-91.251 4.442 15.99)" d="M3.441 13.99h2v4h-2z"/><path d="M1.52 14.308c.932-1.367 2.803-1.721 4.17-.789s1.721 2.803.789 4.17-2.803 1.721-4.17.789-1.721-2.803-.789-4.17zm1.653 1.128a1.001 1.001 0 1 0 1.655 1.127 1.001 1.001 0 0 0-1.655-1.127z" style="fill:#fff"/><path transform="rotate(-121.251 22.685 26.712)" d="M21.185 25.212h3v3h-3z"/><path d="M20.521 25.309c.932-1.367 2.803-1.721 4.17-.789s1.721 2.803.789 4.17-2.803 1.721-4.17.789-1.721-2.803-.789-4.17zm1.653 1.127a1.001 1.001 0 1 0 1.655 1.127 1.001 1.001 0 0 0-1.655-1.127z" style="fill:#fff"/></mask></defs><path style="fill:none" d="M0 0h32v32H0z"/><g style="mask:url(#m200fyhj4d)"><path transform="rotate(180 16 16)" style="fill:url(#1qleuu8dge)" d="M0 0h32v32H0z"/></g><path d="M18 9.003 13.265 9C12.567 9 12 9.558 12 10.244v10.514c0 .685.568 1.243 1.265 1.243h7.465c.698 0 1.265-.558 1.265-1.242l.004-7.76-4-3.996zM14 20v-9h2.993l.008 3.004h3L19.995 20h-5.994z" style="fill:#f4f4f4"/></svg>