<svg id="WebMethodsDeveloperPortal" xmlns="http://www.w3.org/2000/svg" xmlns:xlink="http://www.w3.org/1999/xlink" viewBox="0 0 32 32"><defs><linearGradient id="2s9xjmkqwa" x1="-4707.511" y1="-5019.42" x2="-4699.511" y2="-5019.42" gradientTransform="matrix(1 0 0 -1.409 4707.783 -7058.359)" gradientUnits="userSpaceOnUse"><stop offset="0" stop-opacity="0"/><stop offset=".83"/></linearGradient><linearGradient id="lmc09vngvb" x1="-1516.848" y1="-4964.747" x2="-1508.848" y2="-4964.747" gradientTransform="matrix(1 0 0 -1.409 1541.109 -6976.908)" xlink:href="#2s9xjmkqwa"/><linearGradient id="q3hjgmkj2d" x1="0" y1="32" x2="32" y2="0" gradientUnits="userSpaceOnUse"><stop offset=".1" stop-color="#41d7d5"/><stop offset=".9" stop-color="#4685fb"/></linearGradient><mask id="t35j3vr89c" x="0" y="0" width="32" height="32" maskUnits="userSpaceOnUse"><path d="M9.732 5.775A11.932 11.932 0 0 1 16 4c6.617 0 12 5.383 12 12 0 1.955-.455 3.818-1.351 5.538l1.773.925A14.037 14.037 0 0 0 30 16.001c0-7.72-6.28-14-14-14a13.93 13.93 0 0 0-7.698 2.31M22.271 26.231A11.907 11.907 0 0 1 16 28C9.383 28 4 22.617 4 16c0-1.927.467-3.842 1.351-5.538l-1.773-.925A14.037 14.037 0 0 0 2 15.999c0 7.72 6.28 14 14 14 2.762 0 5.405-.804 7.692-2.313" style="fill:#fff"/><path d="M25 22a2.96 2.96 0 0 0-1.319.319l.026-.026-2.121-2.121-1.414 1.414 2.121 2.121.026-.026A2.96 2.96 0 0 0 22 25c0 1.654 1.346 3 3 3s3-1.346 3-3-1.346-3-3-3zm0 4c-.551 0-1-.449-1-1s.449-1 1-1 1 .449 1 1-.449 1-1 1zM7 10a2.96 2.96 0 0 0 1.319-.319l-.026.026 2.121 2.121 1.414-1.414-2.121-2.121-.026.026C9.879 7.919 10 7.475 10 7c0-1.654-1.346-3-3-3S4 5.346 4 7s1.346 3 3 3zm0-4c.551 0 1 .449 1 1s-.449 1-1 1-1-.449-1-1 .449-1 1-1z" style="fill:#fff"/><path transform="rotate(-70.251 4.272 14)" style="fill:url(#2s9xjmkqwa)" d="M.272 11.182h8v5.636h-8z"/><path transform="rotate(104.659 28.262 18.417)" style="fill:url(#lmc09vngvb)" d="M24.261 15.599h8v5.636h-8z"/></mask></defs><path style="fill:none" d="M0 0h32v32H0z"/><g style="mask:url(#t35j3vr89c)"><path style="fill:url(#q3hjgmkj2d)" d="M0 0h32v32H0z"/></g><path d="M16 21c-2.757 0-5-2.243-5-5s2.243-5 5-5 5 2.243 5 5-2.243 5-5 5zm0-8c-1.654 0-3 1.346-3 3s1.346 3 3 3 3-1.346 3-3-1.346-3-3-3z" style="fill:#f4f4f4"/></svg>