<svg id="installer" xmlns="http://www.w3.org/2000/svg" viewBox="0 0 32 32"><defs><linearGradient id="nf9l42stqa" x1="33.567" y1="-13.102" x2="33.567" y2="-22.496" gradientTransform="translate(-17.567 24.102)" gradientUnits="userSpaceOnUse"><stop offset=".072" stop-opacity="0"/><stop offset=".894"/></linearGradient><linearGradient id="ictrnxm9wc" x1="0" y1="32" x2="32" y2="0" gradientUnits="userSpaceOnUse"><stop offset=".1" stop-color="#3ddbd9"/><stop offset=".9" stop-color="#4589ff"/></linearGradient><mask id="ptst9tf79b" x="0" y="0" width="32" height="32" maskUnits="userSpaceOnUse"><path style="fill:#fff;stroke-width:0" d="M24.573 12.58 17 20.154V2h-2v18.154L7.427 12.58l-1.414 1.414L16 23.982l9.987-9.988-1.414-1.414z"/><path style="fill:url(#nf9l42stqa);stroke-width:0" d="M12.5 1.606h7V11h-7z"/></mask></defs><g style="mask:url(#ptst9tf79b)"><path style="fill:url(#ictrnxm9wc);stroke-width:0" d="M0 0h32v32H0z"/></g><path d="M26 24v4H6v-4H4v4a2 2 0 0 0 2 2h20a2 2 0 0 0 2-2v-4h-2z" style="fill:#f4f4f4;stroke-width:0"/></svg>