<?xml version="1.0" encoding="utf-8"?>
<!-- Generator: Adobe Illustrator 26.3.1, SVG Export Plug-In . SVG Version: 6.00 Build 0)  -->
<svg version="1.1" id="websphere" xmlns="http://www.w3.org/2000/svg" xmlns:xlink="http://www.w3.org/1999/xlink" x="0px" y="0px"
	 viewBox="0 0 32 32" style="enable-background:new 0 0 32 32;" xml:space="preserve">
<style type="text/css">
	.st0{fill:#FFFFFF;filter:url(#Adobe_OpacityMaskFilter);}
	.st1{fill:url(#SVGID_1_);}
	.st2{fill:url(#SVGID_00000026851401687328299620000018052886808065246887_);}
	.st3{fill:url(#SVGID_00000172442828574922820510000005753019958437587870_);}
	.st4{fill:#FFFFFF;}
	.st5{fill:url(#SVGID_00000039117665274568467030000015909591734140979873_);}
	.st6{mask:url(#nrlxbuplke_00000012469511242931045290000017938313382339325356_);}
	.st7{fill:url(#SVGID_00000090284008229209029120000015439489250264411820_);}
	.st8{fill:#F4F4F4;}
</style>
<defs>
	<filter id="Adobe_OpacityMaskFilter" filterUnits="userSpaceOnUse" x="0" y="0" width="32" height="32">
		<feColorMatrix  type="matrix" values="1 0 0 0 0  0 1 0 0 0  0 0 1 0 0  0 0 0 1 0"/>
	</filter>
</defs>
<mask maskUnits="userSpaceOnUse" x="0" y="0" width="32" height="32" id="nrlxbuplke_00000012469511242931045290000017938313382339325356_">
	<path class="st0" d="M16,22c-5.2,0-10.1-1.5-13.6-4.1l1.2-1.6C6.7,18.7,11.2,20,16,20s9.3-1.3,12.3-3.7l1.2,1.6
		C26.1,20.5,21.2,22,16,22z M28.3,15.7C25.3,13.3,20.8,12,16,12s-9.3,1.3-12.3,3.7l-1.2-1.6C5.9,11.5,10.8,10,16,10
		s10.1,1.5,13.5,4.1C29.5,14.1,28.3,15.7,28.3,15.7z"/>
	
		<linearGradient id="SVGID_1_" gradientUnits="userSpaceOnUse" x1="12.43" y1="-49.5" x2="3.312" y2="-49.5" gradientTransform="matrix(1 0 0 -1 0 -30)">
		<stop  offset="4.600000e-02" style="stop-color:#000000;stop-opacity:0"/>
		<stop  offset="0.82" style="stop-color:#000000;stop-opacity:0.9"/>
	</linearGradient>
	<path class="st1" d="M3,16h10v7H3V16z"/>
	
		<linearGradient id="SVGID_00000095300413468396910180000016451011810868337294_" gradientUnits="userSpaceOnUse" x1="-1852.5129" y1="1057.412" x2="-1860.719" y2="1057.412" gradientTransform="matrix(-1 0 0 1 -1832 -1044.412)">
		<stop  offset="4.600000e-02" style="stop-color:#000000;stop-opacity:0"/>
		<stop  offset="0.82" style="stop-color:#000000;stop-opacity:0.9"/>
	</linearGradient>
	<path style="fill:url(#SVGID_00000095300413468396910180000016451011810868337294_);" d="M29,16h-9v-6h9V16z"/>
	
		<linearGradient id="SVGID_00000016764771434332196500000005215807980719259823_" gradientUnits="userSpaceOnUse" x1="-5592.1206" y1="157.3749" x2="-5581.6206" y2="139.1882" gradientTransform="matrix(-0.7071 0.7071 -0.7071 -0.7071 -3826.3186 4074.0891)">
		<stop  offset="0.15" style="stop-color:#000000"/>
		<stop  offset="0.49" style="stop-color:#FFFFFF"/>
	</linearGradient>
	<path style="fill:url(#SVGID_00000016764771434332196500000005215807980719259823_);" d="M16,30c-2,0-4-0.4-5.8-1.3l0.8-1.8
		c4.5,2.1,10,1.1,13.5-2.4c4.7-4.7,4.7-12.3,0-17l1.4-1.4c5.5,5.5,5.5,14.3,0,19.8C23.2,28.6,19.6,30,16,30z"/>
	<path class="st4" d="M15,3h2v26h-2V3z"/>
	
		<linearGradient id="SVGID_00000167369506764736839040000017884562616985293971_" gradientUnits="userSpaceOnUse" x1="-4125.582" y1="7422.1899" x2="-4115.0811" y2="7404.0024" gradientTransform="matrix(0.7071 -0.7071 0.7071 0.7071 -2315.6809 -8142.0884)">
		<stop  offset="0.15" style="stop-color:#000000"/>
		<stop  offset="0.49" style="stop-color:#FFFFFF"/>
	</linearGradient>
	<path style="fill:url(#SVGID_00000167369506764736839040000017884562616985293971_);" d="M6.1,25.9c-5.5-5.5-5.5-14.3,0-19.8
		C10.2,2,16.6,0.8,21.9,3.3L21,5.1C16.5,3,11,4,7.5,7.5c-4.7,4.7-4.7,12.3,0,17C7.5,24.5,6.1,25.9,6.1,25.9z"/>
</mask>
<g class="st6">
	
		<linearGradient id="SVGID_00000153703757387256089050000010694036832391071150_" gradientUnits="userSpaceOnUse" x1="-9.094947e-13" y1="-62" x2="32" y2="-30" gradientTransform="matrix(1 0 0 -1 0 -30)">
		<stop  offset="0.1" style="stop-color:#BE95FF"/>
		<stop  offset="0.9" style="stop-color:#4589FF"/>
	</linearGradient>
	<path style="fill:url(#SVGID_00000153703757387256089050000010694036832391071150_);" d="M0,0h32v32H0V0z"/>
</g>
<circle class="st8" cx="25" cy="6" r="2"/>
<circle class="st8" cx="7" cy="26" r="2"/>
</svg>
