<svg id="zBatchNetworkAnalyzer" xmlns="http://www.w3.org/2000/svg" viewBox="0 0 32 32"><defs><linearGradient id="v7mgjvopca" x1="104.52" y1="-50.129" x2="113.52" y2="-50.129" gradientTransform="translate(-80.02 68.629)" gradientUnits="userSpaceOnUse"><stop offset=".206"/><stop offset=".9" stop-opacity="0"/></linearGradient><linearGradient id="l7mdz606ac" x1="0" y1="32" x2="32" y2="0" gradientUnits="userSpaceOnUse"><stop offset=".1" stop-color="#bd94ff"/><stop offset=".9" stop-color="#4588ff"/></linearGradient><mask id="kpjr4g2jwb" x="0" y="0" width="32" height="32" maskUnits="userSpaceOnUse"><path d="M13 3H4a2 2 0 0 0-2 2v22a2 2 0 0 0 2 2h9a2 2 0 0 0 2-2V5a2 2 0 0 0-2-2zm0 7.037L6.075 5H13v5.037zM4.7 20l8.3-6.036v12.073l-8.3-6.036zm7.6-8L4 18.036V5.964L12.3 12zM4 21.963 10.925 27H4v-5.037zM19 17h-2V5a2 2 0 0 1 2-2h9a2 2 0 0 1 2 2v16h-2V5h-9v12z" style="fill:#fff;stroke-width:0"/><path transform="rotate(-90 29 18.5)" style="fill:url(#v7mgjvopca);stroke-width:0" d="M24.5 16.5h9v4h-9z"/></mask></defs><g style="mask:url(#kpjr4g2jwb)"><path style="fill:url(#l7mdz606ac);stroke-width:0" d="M0 0h32v32H0z"/></g><path style="fill:#f4f4f4;stroke-width:0" d="M17 19h9v2h-9zM19 23h9v2h-9zM21 27h9v2h-9z"/></svg>