<svg data-name="Build icon here" xmlns="http://www.w3.org/2000/svg" viewBox="0 0 32 32"><defs><linearGradient id="6nrt3hq3ca" x1="1523.772" y1="226.639" x2="1536.772" y2="226.639" gradientTransform="matrix(1.03 0 0 .848 -1565.313 -167.477)" gradientUnits="userSpaceOnUse"><stop offset=".1" stop-opacity="0"/><stop offset=".9"/></linearGradient><linearGradient id="fx95jaybwc" x1="-4352" y1="4384" x2="-4384" y2="4416" gradientTransform="matrix(1 0 0 -1 4384 4416)" gradientUnits="userSpaceOnUse"><stop offset=".1" stop-color="#be95ff"/><stop offset=".9" stop-color="#4589ff"/></linearGradient><mask id="nh2ct83hzb" x="0" y="0" width="32" height="32" maskUnits="userSpaceOnUse"><g fill="#fff"><path d="M14.486 30.864 2.5 23.876a1 1 0 0 1-.5-.864V9h2v13.438l11.494 6.7zm-2.494-17.847h-2L10 4.337a1 1 0 0 1 .5-.866l4.02-2.313a1 1 0 0 1 1 0L27.5 8.136A1 1 0 0 1 28 9v4h-2V9.575L15.017 3.18 12 4.917z"/><path d="M6 6h2v10H6z"/></g><path transform="rotate(30 11.138 24.76)" fill="url(#6nrt3hq3ca)" d="M4.442 20.519h13.392v8.482H4.442z"/></mask></defs><g mask="url(#nh2ct83hzb)"><path transform="rotate(90 16 16)" fill="url(#fx95jaybwc)" d="M0 0h32v32H0z"/></g><path d="M27 25a3 3 0 0 0-2.818 2.006l-2.1.016A.394.394 0 0 1 22 26.75v-7.5c0-.151.058-.249 0-.25h2.181a3 3 0 1 0 0-2H22a2.138 2.138 0 0 0-2 2.25V22h-2.184a3 3 0 1 0 0 2H20v2.75A2.139 2.139 0 0 0 22 29h2.184A2.995 2.995 0 1 0 27 25zm0-8a1 1 0 1 1-1 1 1 1 0 0 1 1-1zm-12 7a1 1 0 1 1 1-1 1 1 0 0 1-1 1zm12 5a1 1 0 1 1 1-1 1 1 0 0 1-1 1z" fill="#f4f4f4"/></svg>