<svg data-name="Build icon here" xmlns="http://www.w3.org/2000/svg" viewBox="0 0 32 32"><defs><linearGradient id="u6wn4fq4ha" x1="1524.612" y1="226.05" x2="1537.612" y2="226.05" gradientTransform="matrix(1.03 0 0 .848 -1565.179 -166.977)" gradientUnits="userSpaceOnUse"><stop offset=".1" stop-opacity="0"/><stop offset=".9"/></linearGradient><linearGradient id="xp98fj48ac" x1="-4352" y1="4384" x2="-4384" y2="4416" gradientTransform="matrix(1 0 0 -1 4384 4416)" gradientUnits="userSpaceOnUse"><stop offset=".1" stop-color="#be95ff"/><stop offset=".9" stop-color="#4589ff"/></linearGradient><mask id="veazxfc14b" x="0" y="0" width="32" height="32" maskUnits="userSpaceOnUse"><g fill="#fff"><path d="M15.486 30.864 3.5 23.876a1 1 0 0 1-.5-.864V9h2v13.438l11.494 6.7zm-2.494-17.847h-2L11 4.337a1 1 0 0 1 .5-.866l4.02-2.313a1 1 0 0 1 1 0L28.5 8.136A1 1 0 0 1 29 9v4h-2V9.575L16.017 3.18 13 4.917z"/><path d="M7 6h2v10H7z"/></g><path transform="rotate(30 12.138 24.76)" fill="url(#u6wn4fq4ha)" d="M5.442 20.519h13.392v8.482H5.442z"/></mask></defs><g mask="url(#veazxfc14b)"><path transform="rotate(90 16 16)" fill="url(#xp98fj48ac)" d="M0 0h32v32H0z"/></g><path d="M28 30h-8a2 2 0 0 1-2-2v-3h2v3h8v-3h2v3a2 2 0 0 1-2 2zm-3-12.17V25h-2v-7.17l-2.59 2.58L19 19l5-5 5 5-1.41 1.41L25 17.83z" fill="#f4f4f4"/></svg>