<svg xmlns="http://www.w3.org/2000/svg" viewBox="0 0 32 32"><defs><linearGradient id="ZDevOpsCode_svg__a" x1="866.529" y1="107.263" x2="879.529" y2="107.263" gradientTransform="matrix(1.03 0 0 .848 -887.236 -66.221)" gradientUnits="userSpaceOnUse"><stop offset=".1" stop-opacity="0"/><stop offset=".9"/></linearGradient><linearGradient id="ZDevOpsCode_svg__c" x1="-5812" y1="5844" x2="-5844" y2="5876" gradientTransform="matrix(1 0 0 -1 5844 5876)" gradientUnits="userSpaceOnUse"><stop offset=".1" stop-color="#be95ff"/><stop offset=".9" stop-color="#4589ff"/></linearGradient><mask id="ZDevOpsCode_svg__b" x="0" y="0" width="32" height="32" maskUnits="userSpaceOnUse"><path d="M15.486 30.864L3.5 23.876a1 1 0 01-.5-.864V9h2v13.438l11.494 6.7zM12.992 13.017h-2L11 4.337a1 1 0 01.5-.866l4.02-2.313a1 1 0 011 0L28.5 8.136A1 1 0 0129 9v4h-2V9.575L16.017 3.18 13 4.917z" fill="#fff"/><path fill="#fff" d="M7 6h2v10H7z"/><path transform="rotate(30 12.138 24.76)" fill="url(#ZDevOpsCode_svg__a)" d="M5.442 20.519h13.392v8.482H5.442z"/></mask></defs><g data-name="Layer 2"><g data-name="Dark theme icons"><g mask="url(#ZDevOpsCode_svg__b)"><path transform="rotate(90 16 16)" fill="url(#ZDevOpsCode_svg__c)" d="M0 0h32v32H0z"/></g><path fill="#f4f4f4" d="M26 17l-1.414 1.414L28.171 22l-3.585 3.586L26 27l5-5-5-5zM20 17l1.414 1.414L17.829 22l3.585 3.586L20 27l-5-5 5-5z"/></g></g></svg>