<svg xmlns="http://www.w3.org/2000/svg" viewBox="0 0 32 32"><defs><linearGradient id="6nlb7nh1ba" x1="16.257" y1="7.823" x2="23.448" y2="11.975" gradientUnits="userSpaceOnUse"><stop offset=".1" stop-opacity="0"/><stop offset=".7"/></linearGradient><linearGradient id="p5be40rl5b" x1="11.046" y1="17.367" x2="3.855" y2="13.215" gradientTransform="rotate(180 9.799 18.697)" gradientUnits="userSpaceOnUse"><stop offset=".3"/><stop offset=".9" stop-opacity="0"/></linearGradient><linearGradient id="x0nl5gwk2d" y1="32" x2="32" gradientUnits="userSpaceOnUse"><stop offset=".1" stop-color="#3ddbd9"/><stop offset=".9" stop-color="#4589ff"/></linearGradient><mask id="33cm9r0svc" x="0" y="0" width="32" height="32" maskUnits="userSpaceOnUse"><path d="m28.5 8.136-12-7a1 1 0 0 0-1.008 0l-12 7A1 1 0 0 0 3 9v14a1 1 0 0 0 .5.864l12 7a1 1 0 0 0 1.008 0l12-7A1 1 0 0 0 29 23V9a1 1 0 0 0-.5-.864zM27 22.426l-11 6.416-7-4.083V12.241l7-4.083 5.274 3.076 1.008-1.728-5.782-3.37a1 1 0 0 0-1.008 0L7.5 10.8a1 1 0 0 0-.5.864v11.928l-2-1.166V9.574l11-6.416 7 4.083v12.518l-7 4.083-5.274-3.076-1.008 1.728 5.778 3.37a1 1 0 0 0 1.008 0l8-4.667a1 1 0 0 0 .5-.864V8.408l2 1.166z" fill="#fff"/><path fill="url(#6nlb7nh1ba)" d="M22.672 8.624v4.694L15 10l3-4 4.672 2.624z"/><path fill="url(#p5be40rl5b)" d="M9.328 23.376v-4.694L17 22l-3 4-4.672-2.624z"/></mask></defs><g data-name="Layer 2"><g data-name="Dark theme icons"><g mask="url(#33cm9r0svc)"><path fill="url(#x0nl5gwk2d)" d="M0 0h32v32H0z"/></g><path d="M16 20a4 4 0 1 1 4-4 4 4 0 0 1-4 4zm0-6a2 2 0 1 0 2 2 2 2 0 0 0-2-2z" fill="#f4f4f4"/></g></g></svg>