<svg xmlns="http://www.w3.org/2000/svg" viewBox="0 0 32 32"><defs><linearGradient id="b1lwqg320a" x1="482.097" y1="422.903" x2="492.5" y2="422.903" gradientTransform="translate(-462.299 -405.105)" gradientUnits="userSpaceOnUse"><stop offset=".001" stop-opacity="0"/><stop offset=".83"/></linearGradient><linearGradient id="69t2efxs4c" y1="32" x2="32" gradientUnits="userSpaceOnUse"><stop offset=".1" stop-color="#be95ff"/><stop offset=".9" stop-color="#4589ff"/></linearGradient><mask id="sjqurt0g2b" x="0" y="0" width="32" height="32" maskUnits="userSpaceOnUse"><path d="M24 2H4a2 2 0 0 0-2 2v22a2 2 0 0 0 2 2h11V4h9v18h2V4a2 2 0 0 0-2-2zM12.633 12.173 4 23.945V5.11zM4.974 26 13 15.055V26zM13 9.89 5.8 4H13z" fill="#fff"/><path transform="rotate(90 25 17.799)" fill="url(#b1lwqg320a)" d="M19.798 15.799h10.403v4H19.798z" data-name="Gradients (black)"/></mask></defs><g data-name="Layer 2"><g data-name="Dark theme icons"><g mask="url(#sjqurt0g2b)"><path fill="url(#69t2efxs4c)" d="M0 0h32v32H0z"/></g><path fill="#f4f4f4" d="M23 26.59 20.41 24 19 25.41l4 4 7-7L28.59 21 23 26.59z"/></g></g></svg>