<svg id="ZOpenDebug" xmlns="http://www.w3.org/2000/svg" viewBox="0 0 32 32"><defs><linearGradient id="cztoq2mz7a" x1="1536.404" y1="269.671" x2="1549.404" y2="269.671" gradientTransform="matrix(1.03 0 0 .848 -1577.326 -203.977)" gradientUnits="userSpaceOnUse"><stop offset=".1" stop-opacity="0"/><stop offset=".9"/></linearGradient><linearGradient id="wmdpa5lq5c" x1="-4270" y1="4272" x2="-4238" y2="4304" gradientTransform="matrix(1 0 0 -1 4270 4304)" gradientUnits="userSpaceOnUse"><stop offset=".1" stop-color="#c590ff"/><stop offset=".9" stop-color="#2887ff"/></linearGradient><mask id="yaq0udmaeb" x="0" y="0" width="32" height="32" maskUnits="userSpaceOnUse"><path d="M15.486 30.864 3.5 23.876a1 1 0 0 1-.5-.864V9h2v13.438l11.494 6.7zM12.992 13.017h-2L11 4.337a1 1 0 0 1 .5-.866l4.02-2.313a1 1 0 0 1 1 0L28.5 8.136A1 1 0 0 1 29 9v4h-2V9.575L16.017 3.18 13 4.917z" style="fill:#fff"/><path style="fill:#fff" d="M7 6h2v10H7z"/><path transform="rotate(30 12.138 24.76)" style="fill:url(#cztoq2mz7a)" d="M5.442 20.519h13.392v8.482H5.442z"/></mask></defs><g style="mask:url(#yaq0udmaeb)"><path style="fill:url(#wmdpa5lq5c)" d="M0 0h32v32H0z"/></g><path d="M31 24v-2h-3v-1a4.915 4.915 0 0 0-.054-.532l2.761-2.761-1.414-1.414-2.065 2.065a4.969 4.969 0 0 0-8.456 0l-2.065-2.065-1.414 1.414 2.761 2.761A4.915 4.915 0 0 0 18 21v1h-3v2h3a4.937 4.937 0 0 0 .215 1.371l-2.922 2.922 1.414 1.414 2.493-2.494a4.932 4.932 0 0 0 7.6 0l2.494 2.494 1.414-1.414-2.922-2.922A4.937 4.937 0 0 0 28 24zm-8 3a3 3 0 0 1-3-3v-3a3 3 0 0 1 6 0v3a3 3 0 0 1-3 3z" style="fill:#f3f3f3"/></svg>