<svg id="ZProvisioning" xmlns="http://www.w3.org/2000/svg" xmlns:xlink="http://www.w3.org/1999/xlink" viewBox="0 0 32 32"><defs><linearGradient id="z1vzyz6oka" x1="28" y1="8.999" x2="22" y2="5.5" gradientTransform="rotate(59.744 25 7.25)" gradientUnits="userSpaceOnUse"><stop offset=".1" stop-opacity="0"/><stop offset=".8"/></linearGradient><linearGradient id="vm5kjj3mpb" x1="16" y1="30" x2="22" y2="26.499" gradientTransform="rotate(30.258 19 28.251)" xlink:href="#z1vzyz6oka"/><linearGradient id="3rtsqukppc" x1="4" y1="16" x2="4" y2="9" gradientUnits="userSpaceOnUse"><stop offset=".2"/><stop offset=".9" stop-opacity="0"/></linearGradient><linearGradient id="m9gypjrz0e" x1="-5763" y1="-1919" x2="-5731" y2="-1951" gradientTransform="matrix(1 0 0 -1 5763 -1919)" gradientUnits="userSpaceOnUse"><stop offset=".1" stop-color="#3ddbd9"/><stop offset=".9" stop-color="#4589ff"/></linearGradient><mask id="e92copy66d" x="0" y="0" width="32" height="32" maskUnits="userSpaceOnUse"><path d="M16 31a1 1 0 0 1-.5-.137l-12-7A1 1 0 0 1 3 23V9a1 1 0 0 1 .5-.864l12-7a1 1 0 0 1 1.008 0l12 7A1 1 0 0 1 29 9v14a1 1 0 0 1-.5.863l-12 7A1 1 0 0 1 16 31zM5 22.425l11 6.417 11-6.417V9.574L16 3.157 5 9.574z" style="fill:#fff"/><path transform="rotate(-59.744 25 7.25)" style="fill:url(#z1vzyz6oka)" d="M23 3.776h4v6.946h-4z"/><path transform="rotate(-30.258 19.001 28.25)" style="fill:url(#vm5kjj3mpb)" d="M15.527 26.249h6.946v4h-6.946z"/><path style="fill:url(#3rtsqukppc)" d="M2 9h4v7H2z"/></mask></defs><g style="mask:url(#e92copy66d)"><path id="Color" transform="rotate(-90 16 16)" style="fill:url(#m9gypjrz0e)" d="M0 0h32v32H0z"/></g><path style="fill:#f4f4f4" d="M10 17h4v4h-4zM17 17h4v4h-4zM17 10h4v4h-4z"/><path style="fill:#f4f4f4" d="M10 17h4v4h-4zM17 17h4v4h-4zM17 10h4v4h-4z"/></svg>