<svg id="ZResiliencyInsights" xmlns="http://www.w3.org/2000/svg" xmlns:xlink="http://www.w3.org/1999/xlink" viewBox="0 0 32 32"><defs><linearGradient id="olayyrctwa" x1="35" y1="-103.5" x2="41.149" y2="-103.5" gradientTransform="translate(-33.575 113.575)" gradientUnits="userSpaceOnUse"><stop offset="0" stop-opacity="0"/><stop offset=".8"/></linearGradient><linearGradient id="vau7752cvb" x1="52.5" y1="-12" x2="58.645" y2="-12" gradientTransform="translate(-46.5 38.5)" xlink:href="#olayyrctwa"/><linearGradient id="fz0oq18kyc" x1="-1543.851" y1="-2023.809" x2="-1537.798" y2="-2023.809" gradientTransform="matrix(1 0 0 -1 1568.634 -2000.983)" xlink:href="#olayyrctwa"/><linearGradient id="v32hnwxuxd" x1="-1968.5" y1="1489.998" x2="-1962.322" y2="1489.998" gradientTransform="matrix(1 0 0 -1 1988.322 1494.498)" xlink:href="#olayyrctwa"/><linearGradient id="gr7c20lxjf" x1="0" y1="32" x2="32" y2="0" gradientUnits="userSpaceOnUse"><stop offset=".1" stop-color="#3ddbd9"/><stop offset=".9" stop-color="#4589ff"/></linearGradient><mask id="0kymz0s7te" x="0" y="0" width="32" height="32" maskUnits="userSpaceOnUse"><path d="M5 12H3V7.001A4.006 4.006 0 0 1 7.001 3H11v2H7.001A2.002 2.002 0 0 0 5 7.001V12z" style="fill:#fff;stroke-width:0"/><path transform="rotate(90 4.5 10.075)" style="fill:url(#olayyrctwa);stroke-width:0" d="M1.425 7.575h6.15v5h-6.15z"/><path d="M12 28H7.001A4.006 4.006 0 0 1 3 23.999V21h2v2.999C5 25.103 5.897 26 7.001 26H12v2z" style="fill:#fff;stroke-width:0"/><path style="fill:url(#vau7752cvb);stroke-width:0" d="M6 24h6.145v5H6z"/><g><path d="M22 28h2.999A4.006 4.006 0 0 0 29 23.999V20h-2v3.999A2.002 2.002 0 0 1 24.999 26H22v2z" style="fill:#fff;stroke-width:0"/><path transform="rotate(-90 27.809 22.827)" style="fill:url(#fz0oq18kyc);stroke-width:0" d="M24.783 20.327h6.053v5h-6.053z"/></g><g><path d="M27 11h2V7.001A4.006 4.006 0 0 0 24.999 3H20v2h4.999C26.103 5 27 5.897 27 7.001V11z" style="fill:#fff;stroke-width:0"/><path transform="rotate(-180 22.911 4.5)" style="fill:url(#v32hnwxuxd);stroke-width:0" d="M19.822 2H26v5h-6.178z"/></g></mask></defs><g style="mask:url(#0kymz0s7te)"><path style="fill:url(#gr7c20lxjf);stroke-width:0" d="M0 0h32v32H0z"/></g><path d="M16 6c-1.103 0-2-.897-2-2s.897-2 2-2 2 .897 2 2-.897 2-2 2zM2 14h4v4H2zM28 18l3-4h-6l3 4zM13 25h6v2h-6zM15 29h2v2h-2zM19 23h-2c0-1.76.996-2.815 2.051-3.935.223-.235.455-.482.691-.749A4.998 4.998 0 0 0 16 10c-2.757 0-5 2.243-5 5 0 1.222.447 2.399 1.258 3.315.235.267.468.514.69.749C14.003 20.183 15 21.24 15 23h-2c0-.923-.517-1.514-1.506-2.563-.237-.25-.484-.513-.734-.796A6.996 6.996 0 0 1 9 15c0-3.86 3.14-7 7-7s7 3.14 7 7c0 1.71-.625 3.358-1.76 4.642-.25.282-.498.545-.734.796C19.517 21.488 19 22.079 19 23z" style="fill:#f4f4f4;stroke-width:0"/></svg>