<svg id="ZSoftwareMigrationToolkit" xmlns="http://www.w3.org/2000/svg" viewBox="0 0 32 32"><defs><linearGradient id="1alync1tda" x1="934.391" y1="-396.955" x2="926.979" y2="-396.955" gradientTransform="translate(-910.979 402.955)" gradientUnits="userSpaceOnUse"><stop offset=".1" stop-opacity="0"/><stop offset="1"/></linearGradient><linearGradient id="fyzzlve91c" x1="0" y1="32" x2="32" y2="0" gradientUnits="userSpaceOnUse"><stop offset=".1" stop-color="#be95ff"/><stop offset=".9" stop-color="#4589ff"/></linearGradient><mask id="wz8ugi187b" x="0" y="0" width="32" height="32" maskUnits="userSpaceOnUse"><path d="M16 5a2 2 0 0 0-2 2v18H8v2h6a2 2 0 0 0 2-2V7h9V5h-9z" style="fill:#fff"/><path transform="rotate(180 19.706 6)" style="fill:url(#1alync1tda)" d="M16 2h7.412v8H16z"/><path d="M6 22a4 4 0 1 0 0 8 4 4 0 0 0 0-8zm0 6a2 2 0 1 1 0-4 2 2 0 0 1 0 4zM27 2a4 4 0 1 0 0 8 4 4 0 0 0 0-8zm0 6a2 2 0 1 1 0-4 2 2 0 0 1 0 4z" style="fill:#fff"/><g><path d="M4.017 3H10a1 1 0 0 1 1 1v12a1 1 0 0 1-1 1H4a1 1 0 0 1-1-1V4.017C3 3.456 3.456 3 4.017 3z" style="fill:none;stroke:#fff;stroke-miterlimit:10;stroke-width:2px"/><path style="fill:none;stroke:#fff;stroke-linejoin:round;stroke-width:2px" d="M3 4.017 11 10l-8 6"/></g></mask></defs><g style="mask:url(#wz8ugi187b)"><path style="fill:url(#fyzzlve91c)" d="M0 0h32v32H0z"/></g><path style="fill:#f4f4f4" d="M31 23v-2h-4v2h.994v5H27v2h4v-2h-1.006v-5H31zM19.119 30l.582-2h3.555l.616 2h2.093l-2.772-9h-3.536l-2.62 9h2.083zm2.038-7h.56l.924 3h-2.357l.873-3z"/></svg>