<svg id="zXplore" xmlns="http://www.w3.org/2000/svg" xmlns:xlink="http://www.w3.org/1999/xlink" viewBox="0 0 32 32"><defs><linearGradient id="47s1zmeqya" x1="391.641" y1="137.341" x2="397.932" y2="137.341" gradientTransform="matrix(-.55644 -.55654 .74306 -.74328 137.532 341.163)" gradientUnits="userSpaceOnUse"><stop offset=".1" stop-opacity="0"/><stop offset="1"/></linearGradient><linearGradient id="lxz61nvdmb" x1="389.55" y1="136.93" x2="395.841" y2="136.93" gradientTransform="matrix(.55644 .55654 -.74306 .74328 -104.339 -307.97)" xlink:href="#47s1zmeqya"/><linearGradient id="83xogfc4kd" x1="0" y1="32" x2="32" y2="0" gradientUnits="userSpaceOnUse"><stop offset=".1" stop-color="#be95ff"/><stop offset=".9" stop-color="#4589ff"/></linearGradient><mask id="0nn09aigac" x="0" y="0" width="32" height="32" maskUnits="userSpaceOnUse"><path d="M28 29H4a1.002 1.002 0 0 1-.707-1.707l13-13 1.414 1.414L6.414 27h19.172l-8.293-8.293 1.414-1.414 10 10A1 1 0 0 1 28 29zM13.293 14.707l-10-10A1 1 0 0 1 4 3h13v2H6.414l8.293 8.293-1.414 1.414z" style="fill:#fff"/><path style="fill:url(#47s1zmeqya)" d="m19.745 16.149 3.505 3.488-2.991 2.993-3.509-3.492 2.995-2.989z"/><path style="fill:url(#lxz61nvdmb)" d="m12.591 15.576-3.505-3.489 2.991-2.992 3.508 3.492-2.994 2.989z"/></mask></defs><g style="mask:url(#0nn09aigac)"><path style="fill:url(#83xogfc4kd)" d="M0 0h32v32H0z"/></g><path style="fill:#f4f4f4" d="M20 3v2h5.586L19 11.586 20.414 13 27 6.414V12h2V3h-9z"/></svg>