<svg xmlns="http://www.w3.org/2000/svg" viewBox="0 0 288 288"><g fill="none" fill-rule="evenodd"><path fill="#FFF" d="M0 0h288v288H0z"/><path d="M59.3 125.68l-8.6-4.98v-1.6l8.6-4.98v1.66l-7.1 4.02v.16l7.1 4.02v1.7zm3.6 4.32v-14.32h1.6v1.68h.08c.66-1.26 1.74-1.92 3.18-1.92 2.52 0 4.04 2.02 4.04 5.4 0 3.38-1.52 5.4-4.04 5.4-1.44 0-2.52-.66-3.18-1.92h-.08V130h-1.6zm4.24-5.18c1.86 0 2.94-1.24 2.94-3.1v-1.76c0-1.86-1.08-3.1-2.94-3.1-1.42 0-2.64.74-2.64 2.12v3.72c0 1.38 1.22 2.12 2.64 2.12zm88.62-6.26h-9.52v-1.36h9.52v1.36zm0 4h-9.52v-1.36h9.52v1.36zm7.66-5.82l2.3-5.54h1.34l-1.06 5.54h-2.58zm-4.8 0l2.3-5.54h1.34l-1.06 5.54h-2.58zm17.02-3.34c-.92 0-1.26-.44-1.26-1.02v-.32c0-.58.34-1.02 1.26-1.02.92 0 1.26.44 1.26 1.02v.32c0 .58-.34 1.02-1.26 1.02zm-4.52 12.6v-1.36h3.72v-7.6h-3.72v-1.36h5.32v8.96h3.48V126h-8.8zm11.78 0v-14.8h1.6v6.16h.08c.66-1.26 1.74-1.92 3.18-1.92 2.52 0 4.04 2.02 4.04 5.4 0 3.38-1.52 5.4-4.04 5.4-1.44 0-2.52-.66-3.18-1.92h-.08V126h-1.6zm4.24-1.18c1.86 0 2.94-1.24 2.94-3.1v-1.76c0-1.86-1.08-3.1-2.94-3.1-1.42 0-2.64.74-2.64 2.12v3.72c0 1.38 1.22 2.12 2.64 2.12zm8.42 1.18h-1.48v-10.32h1.48v1.2h.08c.32-.8.84-1.44 1.98-1.44 1.18 0 1.76.66 1.88 1.62h.06c.38-.94 1.02-1.62 2.24-1.62 1.68 0 2.12 1.22 2.12 3.4V126h-1.48v-6.9c0-1.76-.3-2.34-1.26-2.34-.84 0-1.44.56-1.44 1.66V126h-1.48v-6.9c0-1.76-.3-2.34-1.24-2.34-.86 0-1.46.56-1.46 1.66V126zm18.34-5.24h-5.8v-1.68h5.8v1.68zM59.52 152H55.5c-1.56 0-2.28-.98-2.28-2.36v-6.6h-3.44v-1.36h2.56c.68 0 .94-.24.94-.94v-2.7h1.54v3.64h4.7v1.36h-4.7v7.6h4.7V152zm9.08-6l1.74-4.32h1.6l-5.12 12.58c-.48 1.18-1.08 1.74-2.64 1.74h-1.52v-1.36h2.4l1.16-2.84-4.16-10.12h1.64l1.74 4.32 1.54 3.92h.08L68.6 146zm6.3 10v-14.32h1.6v1.68h.08c.66-1.26 1.74-1.92 3.18-1.92 2.52 0 4.04 2.02 4.04 5.4 0 3.38-1.52 5.4-4.04 5.4-1.44 0-2.52-.66-3.18-1.92h-.08V156h-1.6zm4.24-5.18c1.86 0 2.94-1.24 2.94-3.1v-1.76c0-1.86-1.08-3.1-2.94-3.1-1.42 0-2.64.74-2.64 2.12v3.72c0 1.38 1.22 2.12 2.64 2.12zm12.04 1.42c-2.96 0-4.84-2.12-4.84-5.38 0-3.3 1.94-5.42 4.74-5.42 2.78 0 4.58 2.12 4.58 5.04v.76h-7.64v.48c0 1.82 1.22 3.14 3.16 3.14 1.38 0 2.42-.68 2.96-1.8l1.18.8c-.62 1.38-2.1 2.38-4.14 2.38zm-.1-9.48c-1.76 0-3.06 1.34-3.06 3.14v.14h5.92v-.22c0-1.82-1.16-3.06-2.86-3.06zm14.82 4h-5.8v-1.68h5.8v1.68zm5.66 5.24h-1.48v-10.32h1.48v1.2h.08c.32-.8.84-1.44 1.98-1.44 1.18 0 1.76.66 1.88 1.62h.06c.38-.94 1.02-1.62 2.24-1.62 1.68 0 2.12 1.22 2.12 3.4V152h-1.48v-6.9c0-1.76-.3-2.34-1.26-2.34-.84 0-1.44.56-1.44 1.66V152h-1.48v-6.9c0-1.76-.3-2.34-1.24-2.34-.86 0-1.46.56-1.46 1.66V152zm15.44.24c-2.9 0-4.68-2.12-4.68-5.4 0-3.28 1.78-5.4 4.68-5.4 2.9 0 4.68 2.12 4.68 5.4 0 3.28-1.78 5.4-4.68 5.4zm0-1.38c1.78 0 2.98-1.06 2.98-3.28v-1.48c0-2.22-1.2-3.28-2.98-3.28s-2.98 1.06-2.98 3.28v1.48c0 2.22 1.2 3.28 2.98 3.28zm9.56 1.14h-1.6v-10.32h1.6v1.68h.08c.44-1.02 1.24-1.92 2.94-1.92 2.16 0 3.58 1.44 3.58 3.94V152h-1.6v-6.34c0-1.88-.86-2.8-2.44-2.8-1.28 0-2.56.62-2.56 1.98V152zm14.44.24c-2.9 0-4.68-2.12-4.68-5.4 0-3.28 1.78-5.4 4.68-5.4 2.9 0 4.68 2.12 4.68 5.4 0 3.28-1.78 5.4-4.68 5.4zm0-1.38c1.78 0 2.98-1.06 2.98-3.28v-1.48c0-2.22-1.2-3.28-2.98-3.28s-2.98 1.06-2.98 3.28v1.48c0 2.22 1.2 3.28 2.98 3.28zm12.98-8.12l1.06-5.54h2.58l-2.3 5.54h-1.34zm-4.8 0l1.06-5.54h2.58l-2.3 5.54h-1.34zm11.52 8.94v-1.66l7.1-4.02v-.16l-7.1-4.02v-1.7l8.6 4.98v1.6l-8.6 4.98zm-27.4 26l-8.6-4.98v-1.6l8.6-4.98v1.66l-7.1 4.02v.16l7.1 4.02v1.7zm4.94 3.08h-1.44l6.96-17.96h1.44l-6.96 17.96zM158.9 182v-14.32h1.6v1.68h.08c.66-1.26 1.74-1.92 3.18-1.92 2.52 0 4.04 2.02 4.04 5.4 0 3.38-1.52 5.4-4.04 5.4-1.44 0-2.52-.66-3.18-1.92h-.08V182h-1.6zm4.24-5.18c1.86 0 2.94-1.24 2.94-3.1v-1.76c0-1.86-1.08-3.1-2.94-3.1-1.42 0-2.64.74-2.64 2.12v3.72c0 1.38 1.22 2.12 2.64 2.12zm7.56.86v-1.66l7.1-4.02v-.16l-7.1-4.02v-1.7l8.6 4.98v1.6l-8.6 4.98z" fill="#0062FF"/><path d="M91.36 126.24c-2.96 0-4.68-2.14-4.68-5.4 0-3.28 1.74-5.4 4.66-5.4 2 0 3.24.98 3.82 2.38l-1.28.68c-.38-1.06-1.26-1.68-2.54-1.68-1.88 0-2.94 1.32-2.94 3.14v1.76c0 1.82 1.04 3.14 2.98 3.14 1.38 0 2.28-.68 2.8-1.8l1.14.78c-.6 1.38-1.9 2.4-3.96 2.4zm7.24-.24v-1.36h3.6v-12.08h-3.6v-1.36h5.2v13.44h3.6V126zm21.4 0h-1.1c-1.24 0-1.72-.72-1.84-1.68h-.1c-.44 1.18-1.42 1.92-3.1 1.92-2.16 0-3.54-1.2-3.54-3.14 0-1.9 1.34-3 4.44-3h2.2v-1.02c0-1.5-.9-2.28-2.46-2.28-1.38 0-2.22.58-2.76 1.52l-1.08-.8c.52-1.08 1.84-2.08 3.94-2.08 2.42 0 3.96 1.3 3.96 3.48v5.68H120v1.4z" fill="#00BAB6"/><path d="M114.14 124.9c1.64 0 2.82-.84 2.82-1.9v-1.7h-2.2c-1.9 0-2.76.56-2.76 1.56v.42c0 1.06.82 1.62 2.14 1.62z" fill="#FFF"/><path d="M127.12 126.24c-2.16 0-3.7-.8-4.78-2.02l1.08-.94c.98 1.04 2.1 1.62 3.74 1.62 1.6 0 2.74-.56 2.74-1.78 0-1.08-.88-1.36-1.82-1.5l-1.62-.24c-1.46-.22-3.54-.62-3.54-2.86 0-2.06 1.76-3.08 4.16-3.08 1.86 0 3.22.62 4.2 1.66l-1.04.98c-.48-.58-1.4-1.3-3.22-1.3-1.62 0-2.52.58-2.52 1.64 0 1.08.9 1.36 1.82 1.5l1.62.24c1.48.22 3.54.62 3.54 2.86 0 2.04-1.72 3.22-4.36 3.22zm12 0c-2.16 0-3.7-.8-4.78-2.02l1.08-.94c.98 1.04 2.1 1.62 3.74 1.62 1.6 0 2.74-.56 2.74-1.78 0-1.08-.88-1.36-1.82-1.5l-1.62-.24c-1.46-.22-3.54-.62-3.54-2.86 0-2.06 1.76-3.08 4.16-3.08 1.86 0 3.22.62 4.2 1.66l-1.04.98c-.48-.58-1.4-1.3-3.22-1.3-1.62 0-2.52.58-2.52 1.64 0 1.08.9 1.36 1.82 1.5l1.62.24c1.48.22 3.54.62 3.54 2.86 0 2.04-1.72 3.22-4.36 3.22z" fill="#00BAB6"/><path d="M187.36 152.24c-2.96 0-4.68-2.14-4.68-5.4 0-3.28 1.74-5.4 4.66-5.4 2 0 3.24.98 3.82 2.38l-1.28.68c-.38-1.06-1.26-1.68-2.54-1.68-1.88 0-2.94 1.32-2.94 3.14v1.76c0 1.82 1.04 3.14 2.98 3.14 1.38 0 2.28-.68 2.8-1.8l1.14.78c-.6 1.38-1.9 2.4-3.96 2.4zm11.64 0c-2.9 0-4.68-2.12-4.68-5.4 0-3.28 1.78-5.4 4.68-5.4 2.9 0 4.68 2.12 4.68 5.4 0 3.28-1.78 5.4-4.68 5.4z" fill="#3D3D3D"/><path d="M199 150.86c1.78 0 2.98-1.06 2.98-3.28v-1.48c0-2.22-1.2-3.28-2.98-3.28s-2.98 1.06-2.98 3.28v1.48c0 2.22 1.2 3.28 2.98 3.28z" fill="#FFF"/><path d="M213.5 152v-1.68h-.08c-.66 1.26-1.74 1.92-3.18 1.92-2.52 0-4.04-2.02-4.04-5.4 0-3.38 1.52-5.4 4.04-5.4 1.44 0 2.52.66 3.18 1.92h.08v-6.16h1.6V152h-1.6z" fill="#3D3D3D"/><path d="M210.86 150.82c1.42 0 2.64-.74 2.64-2.12v-3.72c0-1.38-1.22-2.12-2.64-2.12-1.86 0-2.94 1.24-2.94 3.1v1.76c0 1.86 1.08 3.1 2.94 3.1z" fill="#FFF"/><path d="M223.18 152.24c-2.96 0-4.84-2.12-4.84-5.38 0-3.3 1.94-5.42 4.74-5.42 2.78 0 4.58 2.12 4.58 5.04v.76h-7.64v.48c0 1.82 1.22 3.14 3.16 3.14 1.38 0 2.42-.68 2.96-1.8l1.18.8c-.62 1.38-2.1 2.38-4.14 2.38z" fill="#3D3D3D"/><path d="M223.08 142.76c-1.76 0-3.06 1.34-3.06 3.14v.14h5.92v-.22c0-1.82-1.16-3.06-2.86-3.06z" fill="#FFF"/><path d="M55.12 178.24c-2.16 0-3.7-.8-4.78-2.02l1.08-.94c.98 1.04 2.1 1.62 3.74 1.62 1.6 0 2.74-.56 2.74-1.78 0-1.08-.88-1.36-1.82-1.5l-1.62-.24c-1.46-.22-3.54-.62-3.54-2.86 0-2.06 1.76-3.08 4.16-3.08 1.86 0 3.22.62 4.2 1.66l-1.04.98c-.48-.58-1.4-1.3-3.22-1.3-1.62 0-2.52.58-2.52 1.64 0 1.08.9 1.36 1.82 1.5l1.62.24c1.48.22 3.54.62 3.54 2.86 0 2.04-1.72 3.22-4.36 3.22zm9.44-.24h-1.6v-10.32h1.6v1.68h.08c.44-1.02 1.24-1.92 2.94-1.92 2.16 0 3.58 1.44 3.58 3.94V178h-1.6v-6.34c0-1.88-.86-2.8-2.44-2.8-1.28 0-2.56.62-2.56 1.98V178zm15.08-12.6c-.92 0-1.26-.44-1.26-1.02v-.32c0-.58.34-1.02 1.26-1.02.92 0 1.26.44 1.26 1.02v.32c0 .58-.34 1.02-1.26 1.02zM75.12 178v-1.36h3.72v-7.6h-3.72v-1.36h5.32v8.96h3.48V178zm11.78 4v-14.32h1.6v1.68h.08c.66-1.26 1.74-1.92 3.18-1.92 2.52 0 4.04 2.02 4.04 5.4 0 3.38-1.52 5.4-4.04 5.4-1.44 0-2.52-.66-3.18-1.92h-.08V182h-1.6z" fill="#3D3D3D"/><path d="M91.14 176.82c1.86 0 2.94-1.24 2.94-3.1v-1.76c0-1.86-1.08-3.1-2.94-3.1-1.42 0-2.64.74-2.64 2.12v3.72c0 1.38 1.22 2.12 2.64 2.12z" fill="#FFF"/><path d="M98.9 182v-14.32h1.6v1.68h.08c.66-1.26 1.74-1.92 3.18-1.92 2.52 0 4.04 2.02 4.04 5.4 0 3.38-1.52 5.4-4.04 5.4-1.44 0-2.52-.66-3.18-1.92h-.08V182h-1.6z" fill="#3D3D3D"/><path d="M103.14 176.82c1.86 0 2.94-1.24 2.94-3.1v-1.76c0-1.86-1.08-3.1-2.94-3.1-1.42 0-2.64.74-2.64 2.12v3.72c0 1.38 1.22 2.12 2.64 2.12z" fill="#FFF"/><path d="M115.18 178.24c-2.96 0-4.84-2.12-4.84-5.38 0-3.3 1.94-5.42 4.74-5.42 2.78 0 4.58 2.12 4.58 5.04v.76h-7.64v.48c0 1.82 1.22 3.14 3.16 3.14 1.38 0 2.42-.68 2.96-1.8l1.18.8c-.62 1.38-2.1 2.38-4.14 2.38z" fill="#3D3D3D"/><path d="M115.08 168.76c-1.76 0-3.06 1.34-3.06 3.14v.14h5.92v-.22c0-1.82-1.16-3.06-2.86-3.06z" fill="#FFF"/><path d="M131.52 178h-4.02c-1.56 0-2.28-.98-2.28-2.36v-6.6h-3.44v-1.36h2.56c.68 0 .94-.24.94-.94v-2.7h1.54v3.64h4.7v1.36h-4.7v7.6h4.7V178z" fill="#3D3D3D"/></g></svg>