<svg xmlns="http://www.w3.org/2000/svg" viewBox="0 0 448 248"><g fill="none" fill-rule="evenodd"><path fill="#FFF" d="M0 0h448v248H0z"/><path fill="#F3F3F3" d="M16 70h416v153H16z"/><path d="M27.528 95H26.04l-2.72-11.168h1.424l1.2 5.376.928 4.176h.032l1.04-4.176 1.408-5.376h1.536l1.36 5.376 1.04 4.16h.048l.96-4.16 1.264-5.376h1.376L34.072 95h-1.488l-1.456-5.568-1.024-4.096h-.032l-1.056 4.096L27.528 95zm11.728-10.192c-.544 0-.784-.288-.784-.72v-.208c0-.432.24-.72.784-.72s.784.288.784.72v.208c0 .432-.24.72-.784.72zM38.616 95v-8.256h1.28V95h-1.28zm7.424 0h-1.6c-.88 0-1.36-.56-1.36-1.36v-5.776h-1.36v-1.12h.768c.544 0 .72-.192.72-.752v-1.536h1.152v2.288h1.808v1.12H44.36v6.016h1.68V95zm2.192 0V83.16h1.28v4.928h.064c.4-.928 1.104-1.536 2.336-1.536 1.696 0 2.768 1.152 2.768 3.152V95H53.4v-5.072c0-1.472-.64-2.224-1.872-2.224-1.024 0-2.016.512-2.016 1.568V95h-1.28zm16.032 0h-1.488l-2.72-11.168h1.424l1.2 5.376.928 4.176h.032l1.04-4.176 1.408-5.376h1.536l1.36 5.376 1.04 4.16h.048l.96-4.16 1.264-5.376h1.376L70.808 95H69.32l-1.456-5.568-1.024-4.096h-.032l-1.056 4.096L64.264 95zm17.648 0h-.72c-.944 0-1.328-.576-1.424-1.344h-.08c-.352 1.008-1.232 1.536-2.384 1.536-1.744 0-2.768-.96-2.768-2.496 0-1.552 1.12-2.416 3.52-2.416h1.632v-.816c0-1.168-.64-1.808-1.952-1.808-.992 0-1.648.48-2.096 1.232l-.768-.72c.448-.88 1.44-1.616 2.928-1.616 1.984 0 3.168 1.04 3.168 2.784v4.544h.944V95zm-4.4-.896c1.264 0 2.176-.656 2.176-1.504v-1.36h-1.696c-1.456 0-2.112.448-2.112 1.248v.336c0 .816.64 1.28 1.632 1.28zM87.16 95h-1.6c-.88 0-1.36-.56-1.36-1.36v-5.776h-1.36v-1.12h.768c.544 0 .72-.192.72-.752v-1.536h1.152v2.288h1.808v1.12H85.48v6.016h1.68V95zm4.672.192c-1.52 0-2.528-.64-3.264-1.616l.912-.736c.64.8 1.408 1.264 2.448 1.264 1.088 0 1.728-.496 1.728-1.344 0-.64-.352-1.136-1.44-1.296l-.656-.096c-1.52-.224-2.656-.848-2.656-2.384 0-1.632 1.264-2.432 2.944-2.432 1.328 0 2.208.496 2.88 1.328l-.848.768c-.368-.512-1.072-1.008-2.128-1.008s-1.616.496-1.616 1.28c0 .8.56 1.12 1.584 1.28l.64.096c1.824.272 2.528 1.072 2.528 2.32 0 1.6-1.168 2.576-3.056 2.576zm8.432 0c-2.208 0-3.728-1.696-3.728-4.32 0-2.624 1.52-4.32 3.728-4.32s3.728 1.696 3.728 4.32c0 2.624-1.52 4.32-3.728 4.32zm0-1.136c1.376 0 2.352-.848 2.352-2.592V90.28c0-1.744-.976-2.592-2.352-2.592s-2.352.848-2.352 2.592v1.184c0 1.744.976 2.592 2.352 2.592zm7.12.944h-1.28v-8.256h1.28v1.344h.064c.4-.928 1.104-1.536 2.336-1.536 1.696 0 2.768 1.152 2.768 3.152V95h-1.28v-5.072c0-1.472-.64-2.224-1.872-2.224-1.024 0-2.016.512-2.016 1.568V95zm8.624-1.872c.672 0 .976.384.976.944v.224c0 .864-.544 2.048-1.456 2.832h-1.072c.64-.672 1.024-1.232 1.2-1.984-.432-.096-.624-.416-.624-.848v-.224c0-.56.304-.944.976-.944zM126.744 95h-1.6c-.88 0-1.36-.56-1.36-1.36v-5.776h-1.36v-1.12h.768c.544 0 .72-.192.72-.752v-1.536h1.152v2.288h1.808v1.12h-1.808v6.016h1.68V95zm2.832-10.192c-.544 0-.784-.288-.784-.72v-.208c0-.432.24-.72.784-.72s.784.288.784.72v.208c0 .432-.24.72-.784.72zM128.936 95v-8.256h1.28V95h-1.28zm5.28 0h-1.28v-8.256h1.28v1.344h.064c.368-.848.944-1.536 2.224-1.536 1.088 0 2.08.496 2.528 1.68h.032c.304-.896 1.104-1.68 2.512-1.68 1.68 0 2.688 1.152 2.688 3.152V95h-1.28v-5.072c0-1.456-.56-2.224-1.808-2.224-1.008 0-1.936.512-1.936 1.568V95h-1.28v-5.072c0-1.472-.56-2.224-1.776-2.224-1.008 0-1.968.512-1.968 1.568V95zm15.792.192c-2.24 0-3.712-1.696-3.712-4.32 0-2.624 1.472-4.32 3.712-4.32 2.208 0 3.568 1.696 3.568 4.032v.608h-5.936v.384c0 1.424.912 2.496 2.448 2.496 1.04 0 1.84-.512 2.272-1.424l.912.656c-.528 1.12-1.712 1.888-3.264 1.888zm0-7.568c-1.392 0-2.368 1.056-2.368 2.496v.112h4.56v-.176c0-1.456-.88-2.432-2.192-2.432zm11.936 7.568c-1.52 0-2.528-.64-3.264-1.616l.912-.736c.64.8 1.408 1.264 2.448 1.264 1.088 0 1.728-.496 1.728-1.344 0-.64-.352-1.136-1.44-1.296l-.656-.096c-1.52-.224-2.656-.848-2.656-2.384 0-1.632 1.264-2.432 2.944-2.432 1.328 0 2.208.496 2.88 1.328l-.848.768c-.368-.512-1.072-1.008-2.128-1.008s-1.616.496-1.616 1.28c0 .8.56 1.12 1.584 1.28l.64.096c1.824.272 2.528 1.072 2.528 2.32 0 1.6-1.168 2.576-3.056 2.576zm5.312 3.008V86.744h1.28v1.344h.064c.432-1.04 1.28-1.536 2.416-1.536 2.064 0 3.36 1.68 3.36 4.32 0 2.64-1.296 4.32-3.36 4.32-1.136 0-1.92-.512-2.416-1.536h-.064V98.2h-1.28zm3.408-4.16c1.44 0 2.336-.992 2.336-2.464v-1.408c0-1.472-.896-2.464-2.336-2.464-1.168 0-2.128.672-2.128 1.584v3.072c0 1.072.96 1.68 2.128 1.68zm8.976 1.152c-2.24 0-3.712-1.696-3.712-4.32 0-2.624 1.472-4.32 3.712-4.32 2.208 0 3.568 1.696 3.568 4.032v.608h-5.936v.384c0 1.424.912 2.496 2.448 2.496 1.04 0 1.84-.512 2.272-1.424l.912.656c-.528 1.12-1.712 1.888-3.264 1.888zm0-7.568c-1.392 0-2.368 1.056-2.368 2.496v.112h4.56v-.176c0-1.456-.88-2.432-2.192-2.432zM186.6 95h-1.28v-8.256h1.28v1.344h.064c.4-.928 1.104-1.536 2.336-1.536 1.696 0 2.768 1.152 2.768 3.152V95h-1.28v-5.072c0-1.472-.64-2.224-1.872-2.224-1.024 0-2.016.512-2.016 1.568V95zm11.232 0h-1.6c-.88 0-1.36-.56-1.36-1.36v-5.776h-1.36v-1.12h.768c.544 0 .72-.192.72-.752v-1.536h1.152v2.288h1.808v1.12h-1.808v6.016h1.68V95zm9.088.192c-2.208 0-3.728-1.696-3.728-4.32 0-2.624 1.52-4.32 3.728-4.32s3.728 1.696 3.728 4.32c0 2.624-1.52 4.32-3.728 4.32zm0-1.136c1.376 0 2.352-.848 2.352-2.592V90.28c0-1.744-.976-2.592-2.352-2.592s-2.352.848-2.352 2.592v1.184c0 1.744.976 2.592 2.352 2.592zm7.12.944h-1.28v-8.256h1.28v1.344h.064c.4-.928 1.104-1.536 2.336-1.536 1.696 0 2.768 1.152 2.768 3.152V95h-1.28v-5.072c0-1.472-.64-2.224-1.872-2.224-1.024 0-2.016.512-2.016 1.568V95zm12.864 0h-1.28v-8.256h1.28v1.52h.08c.288-.784 1.04-1.52 2.384-1.52h.496v1.28h-.752c-1.376 0-2.208.592-2.208 1.376V95zm7.616.192c-2.24 0-3.712-1.696-3.712-4.32 0-2.624 1.472-4.32 3.712-4.32 2.208 0 3.568 1.696 3.568 4.032v.608h-5.936v.384c0 1.424.912 2.496 2.448 2.496 1.04 0 1.84-.512 2.272-1.424l.912.656c-.528 1.12-1.712 1.888-3.264 1.888zm0-7.568c-1.392 0-2.368 1.056-2.368 2.496v.112h4.56v-.176c0-1.456-.88-2.432-2.192-2.432zm8.16 7.568c-1.52 0-2.528-.64-3.264-1.616l.912-.736c.64.8 1.408 1.264 2.448 1.264 1.088 0 1.728-.496 1.728-1.344 0-.64-.352-1.136-1.44-1.296l-.656-.096c-1.52-.224-2.656-.848-2.656-2.384 0-1.632 1.264-2.432 2.944-2.432 1.328 0 2.208.496 2.88 1.328l-.848.768c-.368-.512-1.072-1.008-2.128-1.008s-1.616.496-1.616 1.28c0 .8.56 1.12 1.584 1.28l.64.096c1.824.272 2.528 1.072 2.528 2.32 0 1.6-1.168 2.576-3.056 2.576zm8.416 0c-2.24 0-3.712-1.696-3.712-4.32 0-2.624 1.472-4.32 3.712-4.32 2.208 0 3.568 1.696 3.568 4.032v.608h-5.936v.384c0 1.424.912 2.496 2.448 2.496 1.04 0 1.84-.512 2.272-1.424l.912.656c-.528 1.12-1.712 1.888-3.264 1.888zm0-7.568c-1.392 0-2.368 1.056-2.368 2.496v.112h4.56v-.176c0-1.456-.88-2.432-2.192-2.432zm12.4 7.376h-.72c-.944 0-1.328-.576-1.424-1.344h-.08c-.352 1.008-1.232 1.536-2.384 1.536-1.744 0-2.768-.96-2.768-2.496 0-1.552 1.12-2.416 3.52-2.416h1.632v-.816c0-1.168-.64-1.808-1.952-1.808-.992 0-1.648.48-2.096 1.232l-.768-.72c.448-.88 1.44-1.616 2.928-1.616 1.984 0 3.168 1.04 3.168 2.784v4.544h.944V95zm-4.4-.896c1.264 0 2.176-.656 2.176-1.504v-1.36h-1.696c-1.456 0-2.112.448-2.112 1.248v.336c0 .816.64 1.28 1.632 1.28zM266.6 95h-1.28v-8.256h1.28v1.52h.08c.288-.784 1.04-1.52 2.384-1.52h.496v1.28h-.752c-1.376 0-2.208.592-2.208 1.376V95zm7.584.192c-2.32 0-3.68-1.68-3.68-4.32 0-2.64 1.36-4.32 3.68-4.32 1.632 0 2.608.8 3.088 1.936l-1.072.544c-.304-.848-1.008-1.344-2.016-1.344-1.52 0-2.304 1.04-2.304 2.48v1.408c0 1.44.784 2.48 2.304 2.48 1.04 0 1.792-.496 2.24-1.44l.928.624c-.528 1.184-1.6 1.952-3.168 1.952zM279.16 95V83.16h1.28v4.928h.064c.4-.928 1.104-1.536 2.336-1.536 1.696 0 2.768 1.152 2.768 3.152V95h-1.28v-5.072c0-1.472-.64-2.224-1.872-2.224-1.024 0-2.016.512-2.016 1.568V95h-1.28zm9.728-10.192c-.544 0-.784-.288-.784-.72v-.208c0-.432.24-.72.784-.72s.784.288.784.72v.208c0 .432-.24.72-.784.72zM288.248 95v-8.256h1.28V95h-1.28zm5.28 0h-1.28v-8.256h1.28v1.344h.064c.4-.928 1.104-1.536 2.336-1.536 1.696 0 2.768 1.152 2.768 3.152V95h-1.28v-5.072c0-1.472-.64-2.224-1.872-2.224-1.024 0-2.016.512-2.016 1.568V95zm14.768.912c0 1.696-1.344 2.48-4 2.48-2.576 0-3.632-.736-3.632-2.032 0-.896.496-1.376 1.312-1.6v-.176c-.464-.224-.736-.592-.736-1.152 0-.832.592-1.232 1.424-1.44v-.064c-.976-.464-1.552-1.376-1.552-2.528 0-1.68 1.232-2.848 3.104-2.848.592 0 1.12.112 1.568.32v-.144c0-.64.272-1.104.96-1.104h1.232v1.12h-1.568v.528c.592.512.944 1.248.944 2.128 0 1.68-1.232 2.848-3.12 2.848-.272 0-.56-.032-.8-.08-.544.144-1.088.416-1.088.928 0 .496.512.624 1.264.624h1.76c2.048 0 2.928.832 2.928 2.192zm-1.2.096c0-.656-.432-1.088-1.712-1.088h-2.752c-.528.24-.768.608-.768 1.12 0 .72.496 1.312 1.792 1.312h1.184c1.424 0 2.256-.448 2.256-1.344zm-2.864-4.784c1.088 0 1.776-.512 1.776-1.6v-.448c0-1.088-.688-1.6-1.776-1.6s-1.776.512-1.776 1.6v.448c0 1.088.688 1.6 1.776 1.6zM313.56 95V83.16h1.28v4.928h.064c.4-.928 1.104-1.536 2.336-1.536 1.696 0 2.768 1.152 2.768 3.152V95h-1.28v-5.072c0-1.472-.64-2.224-1.872-2.224-1.024 0-2.016.512-2.016 1.568V95h-1.28zm15.808 0h-.72c-.944 0-1.328-.576-1.424-1.344h-.08c-.352 1.008-1.232 1.536-2.384 1.536-1.744 0-2.768-.96-2.768-2.496 0-1.552 1.12-2.416 3.52-2.416h1.632v-.816c0-1.168-.64-1.808-1.952-1.808-.992 0-1.648.48-2.096 1.232l-.768-.72c.448-.88 1.44-1.616 2.928-1.616 1.984 0 3.168 1.04 3.168 2.784v4.544h.944V95zm-4.4-.896c1.264 0 2.176-.656 2.176-1.504v-1.36h-1.696c-1.456 0-2.112.448-2.112 1.248v.336c0 .816.64 1.28 1.632 1.28zm8.704 1.088c-1.52 0-2.528-.64-3.264-1.616l.912-.736c.64.8 1.408 1.264 2.448 1.264 1.088 0 1.728-.496 1.728-1.344 0-.64-.352-1.136-1.44-1.296l-.656-.096c-1.52-.224-2.656-.848-2.656-2.384 0-1.632 1.264-2.432 2.944-2.432 1.328 0 2.208.496 2.88 1.328l-.848.768c-.368-.512-1.072-1.008-2.128-1.008s-1.616.496-1.616 1.28c0 .8.56 1.12 1.584 1.28l.64.096c1.824.272 2.528 1.072 2.528 2.32 0 1.6-1.168 2.576-3.056 2.576zM24.36 119v-11.84h1.28v4.928h.064c.432-1.04 1.28-1.536 2.416-1.536 2.064 0 3.36 1.68 3.36 4.32 0 2.64-1.296 4.32-3.36 4.32-1.136 0-1.92-.512-2.416-1.536h-.064V119h-1.28zm3.408-.96c1.44 0 2.336-.992 2.336-2.464v-1.408c0-1.472-.896-2.464-2.336-2.464-1.168 0-2.128.672-2.128 1.584v3.072c0 1.072.96 1.68 2.128 1.68zm8.976 1.152c-2.24 0-3.712-1.696-3.712-4.32 0-2.624 1.472-4.32 3.712-4.32 2.208 0 3.568 1.696 3.568 4.032v.608h-5.936v.384c0 1.424.912 2.496 2.448 2.496 1.04 0 1.84-.512 2.272-1.424l.912.656c-.528 1.12-1.712 1.888-3.264 1.888zm0-7.568c-1.392 0-2.368 1.056-2.368 2.496v.112h4.56v-.176c0-1.456-.88-2.432-2.192-2.432zm8.784 7.568c-2.24 0-3.712-1.696-3.712-4.32 0-2.624 1.472-4.32 3.712-4.32 2.208 0 3.568 1.696 3.568 4.032v.608H43.16v.384c0 1.424.912 2.496 2.448 2.496 1.04 0 1.84-.512 2.272-1.424l.912.656c-.528 1.12-1.712 1.888-3.264 1.888zm0-7.568c-1.392 0-2.368 1.056-2.368 2.496v.112h4.56v-.176c0-1.456-.88-2.432-2.192-2.432zm6.96 7.376h-1.28v-8.256h1.28v1.344h.064c.4-.928 1.104-1.536 2.336-1.536 1.696 0 2.768 1.152 2.768 3.152V119h-1.28v-5.072c0-1.472-.64-2.224-1.872-2.224-1.024 0-2.016.512-2.016 1.568V119zm12.864 0h-1.28v-8.256h1.28v1.52h.08c.288-.784 1.04-1.52 2.384-1.52h.496v1.28h-.752c-1.376 0-2.208.592-2.208 1.376v5.6zm7.616.192c-2.24 0-3.712-1.696-3.712-4.32 0-2.624 1.472-4.32 3.712-4.32 2.208 0 3.568 1.696 3.568 4.032v.608H70.6v.384c0 1.424.912 2.496 2.448 2.496 1.04 0 1.84-.512 2.272-1.424l.912.656c-.528 1.12-1.712 1.888-3.264 1.888zm0-7.568c-1.392 0-2.368 1.056-2.368 2.496v.112h4.56v-.176c0-1.456-.88-2.432-2.192-2.432zM83.928 119v-1.344h-.064c-.496 1.024-1.28 1.536-2.416 1.536-2.064 0-3.36-1.68-3.36-4.32 0-2.64 1.296-4.32 3.36-4.32 1.136 0 1.984.496 2.416 1.536h.064v-4.928h1.28V119h-1.28zm-2.128-.96c1.168 0 2.128-.608 2.128-1.68v-3.072c0-.912-.96-1.584-2.128-1.584-1.44 0-2.336.992-2.336 2.464v1.408c0 1.472.896 2.464 2.336 2.464zm11.216.96v-1.344h-.064c-.32.784-.944 1.536-2.32 1.536-1.696 0-2.784-1.152-2.784-3.152v-5.296h1.28v5.072c0 1.472.656 2.224 1.888 2.224 1.008 0 2-.496 2-1.584v-5.712h1.28V119h-1.28zm7.072.192c-2.32 0-3.68-1.68-3.68-4.32 0-2.64 1.36-4.32 3.68-4.32 1.632 0 2.608.8 3.088 1.936l-1.072.544c-.304-.848-1.008-1.344-2.016-1.344-1.52 0-2.304 1.04-2.304 2.48v1.408c0 1.44.784 2.48 2.304 2.48 1.04 0 1.792-.496 2.24-1.44l.928.624c-.528 1.184-1.6 1.952-3.168 1.952zm7.984 0c-2.24 0-3.712-1.696-3.712-4.32 0-2.624 1.472-4.32 3.712-4.32 2.208 0 3.568 1.696 3.568 4.032v.608h-5.936v.384c0 1.424.912 2.496 2.448 2.496 1.04 0 1.84-.512 2.272-1.424l.912.656c-.528 1.12-1.712 1.888-3.264 1.888zm0-7.568c-1.392 0-2.368 1.056-2.368 2.496v.112h4.56v-.176c0-1.456-.88-2.432-2.192-2.432zm10.96 7.376v-1.344h-.064c-.496 1.024-1.28 1.536-2.416 1.536-2.064 0-3.36-1.68-3.36-4.32 0-2.64 1.296-4.32 3.36-4.32 1.136 0 1.984.496 2.416 1.536h.064v-4.928h1.28V119h-1.28zm-2.128-.96c1.168 0 2.128-.608 2.128-1.68v-3.072c0-.912-.96-1.584-2.128-1.584-1.44 0-2.336.992-2.336 2.464v1.408c0 1.472.896 2.464 2.336 2.464zm9.904.96v-11.84h1.28v4.928h.064c.432-1.04 1.28-1.536 2.416-1.536 2.064 0 3.36 1.68 3.36 4.32 0 2.64-1.296 4.32-3.36 4.32-1.136 0-1.92-.512-2.416-1.536h-.064V119h-1.28zm3.408-.96c1.44 0 2.336-.992 2.336-2.464v-1.408c0-1.472-.896-2.464-2.336-2.464-1.168 0-2.128.672-2.128 1.584v3.072c0 1.072.96 1.68 2.128 1.68zm8.88-1.68l2-5.616h1.264l-3.696 10.176c-.368.992-.704 1.28-1.92 1.28h-.656v-1.12h1.296l.624-1.76-3.088-8.576h1.28l1.984 5.616.384 1.344h.08l.448-1.344zm11.552 2.64h-1.44l4.272-10.016h-4.768v2.08h-1.2v-3.232h7.328v1.184L150.648 119zm13.328-11.168v1.184h-4.896l-.32 4.256h.112c.528-.752 1.12-1.232 2.288-1.232 1.92 0 3.328 1.296 3.328 3.456 0 2.176-1.408 3.696-3.76 3.696-1.856 0-2.816-.944-3.488-1.904l1.008-.768c.576.88 1.136 1.472 2.48 1.472 1.52 0 2.336-.848 2.336-2.32v-.16c0-1.472-.816-2.32-2.336-2.32-1.024 0-1.536.432-2 .944l-1.136-.16.4-6.144h5.984zM169.768 119h-1.232l7.744-11.168h1.232L169.768 119zm-.592-5.024c-1.616 0-2.528-1.12-2.528-3.168s.912-3.168 2.528-3.168 2.528 1.12 2.528 3.168-.912 3.168-2.528 3.168zm0-.832c.928 0 1.376-.64 1.376-1.856v-.96c0-1.216-.448-1.856-1.376-1.856-.928 0-1.376.64-1.376 1.856v.96c0 1.216.448 1.856 1.376 1.856zm7.696 6.048c-1.616 0-2.528-1.12-2.528-3.168s.912-3.168 2.528-3.168 2.528 1.12 2.528 3.168-.912 3.168-2.528 3.168zm0-.832c.928 0 1.376-.64 1.376-1.856v-.96c0-1.216-.448-1.856-1.376-1.856-.928 0-1.376.64-1.376 1.856v.96c0 1.216.448 1.856 1.376 1.856zm5.744-1.232c.672 0 .976.384.976.944v.224c0 .864-.544 2.048-1.456 2.832h-1.072c.64-.672 1.024-1.232 1.2-1.984-.432-.096-.624-.416-.624-.848v-.224c0-.56.304-.944.976-.944zm7.312 1.872v-11.84h1.28v4.928h.064c.432-1.04 1.28-1.536 2.416-1.536 2.064 0 3.36 1.68 3.36 4.32 0 2.64-1.296 4.32-3.36 4.32-1.136 0-1.92-.512-2.416-1.536h-.064V119h-1.28zm3.408-.96c1.44 0 2.336-.992 2.336-2.464v-1.408c0-1.472-.896-2.464-2.336-2.464-1.168 0-2.128.672-2.128 1.584v3.072c0 1.072.96 1.68 2.128 1.68zm8.976 1.152c-2.24 0-3.712-1.696-3.712-4.32 0-2.624 1.472-4.32 3.712-4.32 2.208 0 3.568 1.696 3.568 4.032v.608h-5.936v.384c0 1.424.912 2.496 2.448 2.496 1.04 0 1.84-.512 2.272-1.424l.912.656c-.528 1.12-1.712 1.888-3.264 1.888zm0-7.568c-1.392 0-2.368 1.056-2.368 2.496v.112h4.56v-.176c0-1.456-.88-2.432-2.192-2.432zm8.752 7.568c-2.32 0-3.68-1.68-3.68-4.32 0-2.64 1.36-4.32 3.68-4.32 1.632 0 2.608.8 3.088 1.936l-1.072.544c-.304-.848-1.008-1.344-2.016-1.344-1.52 0-2.304 1.04-2.304 2.48v1.408c0 1.44.784 2.48 2.304 2.48 1.04 0 1.792-.496 2.24-1.44l.928.624c-.528 1.184-1.6 1.952-3.168 1.952zM222.76 119h-.72c-.944 0-1.328-.576-1.424-1.344h-.08c-.352 1.008-1.232 1.536-2.384 1.536-1.744 0-2.768-.96-2.768-2.496 0-1.552 1.12-2.416 3.52-2.416h1.632v-.816c0-1.168-.64-1.808-1.952-1.808-.992 0-1.648.48-2.096 1.232l-.768-.72c.448-.88 1.44-1.616 2.928-1.616 1.984 0 3.168 1.04 3.168 2.784v4.544h.944V119zm-4.4-.896c1.264 0 2.176-.656 2.176-1.504v-1.36h-1.696c-1.456 0-2.112.448-2.112 1.248v.336c0 .816.64 1.28 1.632 1.28zm11.312.896v-1.344h-.064c-.32.784-.944 1.536-2.32 1.536-1.696 0-2.784-1.152-2.784-3.152v-5.296h1.28v5.072c0 1.472.656 2.224 1.888 2.224 1.008 0 2-.496 2-1.584v-5.712h1.28V119h-1.28zm6.48.192c-1.52 0-2.528-.64-3.264-1.616l.912-.736c.64.8 1.408 1.264 2.448 1.264 1.088 0 1.728-.496 1.728-1.344 0-.64-.352-1.136-1.44-1.296l-.656-.096c-1.52-.224-2.656-.848-2.656-2.384 0-1.632 1.264-2.432 2.944-2.432 1.328 0 2.208.496 2.88 1.328l-.848.768c-.368-.512-1.072-1.008-2.128-1.008s-1.616.496-1.616 1.28c0 .8.56 1.12 1.584 1.28l.64.096c1.824.272 2.528 1.072 2.528 2.32 0 1.6-1.168 2.576-3.056 2.576zm8.416 0c-2.24 0-3.712-1.696-3.712-4.32 0-2.624 1.472-4.32 3.712-4.32 2.208 0 3.568 1.696 3.568 4.032v.608H242.2v.384c0 1.424.912 2.496 2.448 2.496 1.04 0 1.84-.512 2.272-1.424l.912.656c-.528 1.12-1.712 1.888-3.264 1.888zm0-7.568c-1.392 0-2.368 1.056-2.368 2.496v.112h4.56v-.176c0-1.456-.88-2.432-2.192-2.432zM257.192 119h-1.488l-2.72-11.168h1.424l1.2 5.376.928 4.176h.032l1.04-4.176 1.408-5.376h1.536l1.36 5.376 1.04 4.16H263l.96-4.16 1.264-5.376h1.376L263.736 119h-1.488l-1.456-5.568-1.024-4.096h-.032l-1.056 4.096-1.488 5.568zm17.648 0h-.72c-.944 0-1.328-.576-1.424-1.344h-.08c-.352 1.008-1.232 1.536-2.384 1.536-1.744 0-2.768-.96-2.768-2.496 0-1.552 1.12-2.416 3.52-2.416h1.632v-.816c0-1.168-.64-1.808-1.952-1.808-.992 0-1.648.48-2.096 1.232l-.768-.72c.448-.88 1.44-1.616 2.928-1.616 1.984 0 3.168 1.04 3.168 2.784v4.544h.944V119zm-4.4-.896c1.264 0 2.176-.656 2.176-1.504v-1.36h-1.696c-1.456 0-2.112.448-2.112 1.248v.336c0 .816.64 1.28 1.632 1.28zm9.648.896h-1.6c-.88 0-1.36-.56-1.36-1.36v-5.776h-1.36v-1.12h.768c.544 0 .72-.192.72-.752v-1.536h1.152v2.288h1.808v1.12h-1.808v6.016h1.68V119zm4.672.192c-1.52 0-2.528-.64-3.264-1.616l.912-.736c.64.8 1.408 1.264 2.448 1.264 1.088 0 1.728-.496 1.728-1.344 0-.64-.352-1.136-1.44-1.296l-.656-.096c-1.52-.224-2.656-.848-2.656-2.384 0-1.632 1.264-2.432 2.944-2.432 1.328 0 2.208.496 2.88 1.328l-.848.768c-.368-.512-1.072-1.008-2.128-1.008s-1.616.496-1.616 1.28c0 .8.56 1.12 1.584 1.28l.64.096c1.824.272 2.528 1.072 2.528 2.32 0 1.6-1.168 2.576-3.056 2.576zm8.432 0c-2.208 0-3.728-1.696-3.728-4.32 0-2.624 1.52-4.32 3.728-4.32s3.728 1.696 3.728 4.32c0 2.624-1.52 4.32-3.728 4.32zm0-1.136c1.376 0 2.352-.848 2.352-2.592v-1.184c0-1.744-.976-2.592-2.352-2.592s-2.352.848-2.352 2.592v1.184c0 1.744.976 2.592 2.352 2.592zm7.12.944h-1.28v-8.256h1.28v1.344h.064c.4-.928 1.104-1.536 2.336-1.536 1.696 0 2.768 1.152 2.768 3.152V119h-1.28v-5.072c0-1.472-.64-2.224-1.872-2.224-1.024 0-2.016.512-2.016 1.568V119zm14.688.192c-2.24 0-3.712-1.696-3.712-4.32 0-2.624 1.472-4.32 3.712-4.32 2.208 0 3.568 1.696 3.568 4.032v.608h-5.936v.384c0 1.424.912 2.496 2.448 2.496 1.04 0 1.84-.512 2.272-1.424l.912.656c-.528 1.12-1.712 1.888-3.264 1.888zm0-7.568c-1.392 0-2.368 1.056-2.368 2.496v.112h4.56v-.176c0-1.456-.88-2.432-2.192-2.432zm6.96 7.376h-1.28v-8.256h1.28v1.344h.064c.4-.928 1.104-1.536 2.336-1.536 1.696 0 2.768 1.152 2.768 3.152V119h-1.28v-5.072c0-1.472-.64-2.224-1.872-2.224-1.024 0-2.016.512-2.016 1.568V119zm14.528 0h-.72c-.944 0-1.328-.576-1.424-1.344h-.08c-.352 1.008-1.232 1.536-2.384 1.536-1.744 0-2.768-.96-2.768-2.496 0-1.552 1.12-2.416 3.52-2.416h1.632v-.816c0-1.168-.64-1.808-1.952-1.808-.992 0-1.648.48-2.096 1.232l-.768-.72c.448-.88 1.44-1.616 2.928-1.616 1.984 0 3.168 1.04 3.168 2.784v4.544h.944V119zm-4.4-.896c1.264 0 2.176-.656 2.176-1.504v-1.36h-1.696c-1.456 0-2.112.448-2.112 1.248v.336c0 .816.64 1.28 1.632 1.28zm6.224.896v-11.84h1.28v4.928h.064c.432-1.04 1.28-1.536 2.416-1.536 2.064 0 3.36 1.68 3.36 4.32 0 2.64-1.296 4.32-3.36 4.32-1.136 0-1.92-.512-2.416-1.536h-.064V119h-1.28zm3.408-.96c1.44 0 2.336-.992 2.336-2.464v-1.408c0-1.472-.896-2.464-2.336-2.464-1.168 0-2.128.672-2.128 1.584v3.072c0 1.072.96 1.68 2.128 1.68zm8.368.96h-1.136c-.88 0-1.36-.56-1.36-1.328V107.16h1.28v10.72h1.216V119zm4.96.192c-2.24 0-3.712-1.696-3.712-4.32 0-2.624 1.472-4.32 3.712-4.32 2.208 0 3.568 1.696 3.568 4.032v.608h-5.936v.384c0 1.424.912 2.496 2.448 2.496 1.04 0 1.84-.512 2.272-1.424l.912.656c-.528 1.12-1.712 1.888-3.264 1.888zm0-7.568c-1.392 0-2.368 1.056-2.368 2.496v.112h4.56v-.176c0-1.456-.88-2.432-2.192-2.432zm8.16 7.568c-1.52 0-2.528-.64-3.264-1.616l.912-.736c.64.8 1.408 1.264 2.448 1.264 1.088 0 1.728-.496 1.728-1.344 0-.64-.352-1.136-1.44-1.296l-.656-.096c-1.52-.224-2.656-.848-2.656-2.384 0-1.632 1.264-2.432 2.944-2.432 1.328 0 2.208.496 2.88 1.328l-.848.768c-.368-.512-1.072-1.008-2.128-1.008s-1.616.496-1.616 1.28c0 .8.56 1.12 1.584 1.28l.64.096c1.824.272 2.528 1.072 2.528 2.32 0 1.6-1.168 2.576-3.056 2.576zm-335.744 24c-2.24 0-3.712-1.696-3.712-4.32 0-2.624 1.472-4.32 3.712-4.32 2.208 0 3.568 1.696 3.568 4.032v.608h-5.936v.384c0 1.424.912 2.496 2.448 2.496 1.04 0 1.84-.512 2.272-1.424l.912.656c-.528 1.12-1.712 1.888-3.264 1.888zm0-7.568c-1.392 0-2.368 1.056-2.368 2.496v.112h4.56v-.176c0-1.456-.88-2.432-2.192-2.432zm12.4 7.376h-.72c-.944 0-1.328-.576-1.424-1.344h-.08c-.352 1.008-1.232 1.536-2.384 1.536-1.744 0-2.768-.96-2.768-2.496 0-1.552 1.12-2.416 3.52-2.416h1.632v-.816c0-1.168-.64-1.808-1.952-1.808-.992 0-1.648.48-2.096 1.232l-.768-.72c.448-.88 1.44-1.616 2.928-1.616 1.984 0 3.168 1.04 3.168 2.784v4.544h.944V143zm-4.4-.896c1.264 0 2.176-.656 2.176-1.504v-1.36h-1.696c-1.456 0-2.112.448-2.112 1.248v.336c0 .816.64 1.28 1.632 1.28zm8.704 1.088c-1.52 0-2.528-.64-3.264-1.616l.912-.736c.64.8 1.408 1.264 2.448 1.264 1.088 0 1.728-.496 1.728-1.344 0-.64-.352-1.136-1.44-1.296l-.656-.096c-1.52-.224-2.656-.848-2.656-2.384 0-1.632 1.264-2.432 2.944-2.432 1.328 0 2.208.496 2.88 1.328l-.848.768c-.368-.512-1.072-1.008-2.128-1.008s-1.616.496-1.616 1.28c0 .8.56 1.12 1.584 1.28l.64.096c1.824.272 2.528 1.072 2.528 2.32 0 1.6-1.168 2.576-3.056 2.576zm8.112-2.832l2-5.616h1.264l-3.696 10.176c-.368.992-.704 1.28-1.92 1.28h-.656v-1.12h1.296l.624-1.76-3.088-8.576h1.28l1.984 5.616.384 1.344h.08l.448-1.344zM67.672 143h-.72c-.944 0-1.328-.576-1.424-1.344h-.08c-.352 1.008-1.232 1.536-2.384 1.536-1.744 0-2.768-.96-2.768-2.496 0-1.552 1.12-2.416 3.52-2.416h1.632v-.816c0-1.168-.64-1.808-1.952-1.808-.992 0-1.648.48-2.096 1.232l-.768-.72c.448-.88 1.44-1.616 2.928-1.616 1.984 0 3.168 1.04 3.168 2.784v4.544h.944V143zm-4.4-.896c1.264 0 2.176-.656 2.176-1.504v-1.36h-1.696c-1.456 0-2.112.448-2.112 1.248v.336c0 .816.64 1.28 1.632 1.28zm9.296 1.088c-2.32 0-3.68-1.68-3.68-4.32 0-2.64 1.36-4.32 3.68-4.32 1.632 0 2.608.8 3.088 1.936l-1.072.544c-.304-.848-1.008-1.344-2.016-1.344-1.52 0-2.304 1.04-2.304 2.48v1.408c0 1.44.784 2.48 2.304 2.48 1.04 0 1.792-.496 2.24-1.44l.928.624c-.528 1.184-1.6 1.952-3.168 1.952zm7.952 0c-2.32 0-3.68-1.68-3.68-4.32 0-2.64 1.36-4.32 3.68-4.32 1.632 0 2.608.8 3.088 1.936l-1.072.544c-.304-.848-1.008-1.344-2.016-1.344-1.52 0-2.304 1.04-2.304 2.48v1.408c0 1.44.784 2.48 2.304 2.48 1.04 0 1.792-.496 2.24-1.44l.928.624c-.528 1.184-1.6 1.952-3.168 1.952zm7.984 0c-2.24 0-3.712-1.696-3.712-4.32 0-2.624 1.472-4.32 3.712-4.32 2.208 0 3.568 1.696 3.568 4.032v.608h-5.936v.384c0 1.424.912 2.496 2.448 2.496 1.04 0 1.84-.512 2.272-1.424l.912.656c-.528 1.12-1.712 1.888-3.264 1.888zm0-7.568c-1.392 0-2.368 1.056-2.368 2.496v.112h4.56v-.176c0-1.456-.88-2.432-2.192-2.432zm8.16 7.568c-1.52 0-2.528-.64-3.264-1.616l.912-.736c.64.8 1.408 1.264 2.448 1.264 1.088 0 1.728-.496 1.728-1.344 0-.64-.352-1.136-1.44-1.296l-.656-.096c-1.52-.224-2.656-.848-2.656-2.384 0-1.632 1.264-2.432 2.944-2.432 1.328 0 2.208.496 2.88 1.328l-.848.768c-.368-.512-1.072-1.008-2.128-1.008s-1.616.496-1.616 1.28c0 .8.56 1.12 1.584 1.28l.64.096c1.824.272 2.528 1.072 2.528 2.32 0 1.6-1.168 2.576-3.056 2.576zm7.696 0c-1.52 0-2.528-.64-3.264-1.616l.912-.736c.64.8 1.408 1.264 2.448 1.264 1.088 0 1.728-.496 1.728-1.344 0-.64-.352-1.136-1.44-1.296l-.656-.096c-1.52-.224-2.656-.848-2.656-2.384 0-1.632 1.264-2.432 2.944-2.432 1.328 0 2.208.496 2.88 1.328l-.848.768c-.368-.512-1.072-1.008-2.128-1.008s-1.616.496-1.616 1.28c0 .8.56 1.12 1.584 1.28l.64.096c1.824.272 2.528 1.072 2.528 2.32 0 1.6-1.168 2.576-3.056 2.576zm12.512-.192h-1.6c-.88 0-1.36-.56-1.36-1.36v-5.776h-1.36v-1.12h.768c.544 0 .72-.192.72-.752v-1.536h1.152v2.288H117v1.12h-1.808v6.016h1.68V143zm5.248.192c-2.208 0-3.728-1.696-3.728-4.32 0-2.624 1.52-4.32 3.728-4.32s3.728 1.696 3.728 4.32c0 2.624-1.52 4.32-3.728 4.32zm0-1.136c1.376 0 2.352-.848 2.352-2.592v-1.184c0-1.744-.976-2.592-2.352-2.592s-2.352.848-2.352 2.592v1.184c0 1.744.976 2.592 2.352 2.592zm14.896.944v-1.344h-.064c-.496 1.024-1.28 1.536-2.416 1.536-2.064 0-3.36-1.68-3.36-4.32 0-2.64 1.296-4.32 3.36-4.32 1.136 0 1.984.496 2.416 1.536h.064v-4.928h1.28V143h-1.28zm-2.128-.96c1.168 0 2.128-.608 2.128-1.68v-3.072c0-.912-.96-1.584-2.128-1.584-1.44 0-2.336.992-2.336 2.464v1.408c0 1.472.896 2.464 2.336 2.464zm9.232 1.152c-2.24 0-3.712-1.696-3.712-4.32 0-2.624 1.472-4.32 3.712-4.32 2.208 0 3.568 1.696 3.568 4.032v.608h-5.936v.384c0 1.424.912 2.496 2.448 2.496 1.04 0 1.84-.512 2.272-1.424l.912.656c-.528 1.12-1.712 1.888-3.264 1.888zm0-7.568c-1.392 0-2.368 1.056-2.368 2.496v.112h4.56v-.176c0-1.456-.88-2.432-2.192-2.432zm8.752 7.568c-2.32 0-3.68-1.68-3.68-4.32 0-2.64 1.36-4.32 3.68-4.32 1.632 0 2.608.8 3.088 1.936l-1.072.544c-.304-.848-1.008-1.344-2.016-1.344-1.52 0-2.304 1.04-2.304 2.48v1.408c0 1.44.784 2.48 2.304 2.48 1.04 0 1.792-.496 2.24-1.44l.928.624c-.528 1.184-1.6 1.952-3.168 1.952zm5.616-10.384c-.544 0-.784-.288-.784-.72v-.208c0-.432.24-.72.784-.72s.784.288.784.72v.208c0 .432-.24.72-.784.72zm-.64 10.192v-8.256h1.28V143h-1.28zm9.28 0v-1.344h-.064c-.496 1.024-1.28 1.536-2.416 1.536-2.064 0-3.36-1.68-3.36-4.32 0-2.64 1.296-4.32 3.36-4.32 1.136 0 1.984.496 2.416 1.536h.064v-4.928h1.28V143h-1.28zm-2.128-.96c1.168 0 2.128-.608 2.128-1.68v-3.072c0-.912-.96-1.584-2.128-1.584-1.44 0-2.336.992-2.336 2.464v1.408c0 1.472.896 2.464 2.336 2.464zm9.232 1.152c-2.24 0-3.712-1.696-3.712-4.32 0-2.624 1.472-4.32 3.712-4.32 2.208 0 3.568 1.696 3.568 4.032v.608h-5.936v.384c0 1.424.912 2.496 2.448 2.496 1.04 0 1.84-.512 2.272-1.424l.912.656c-.528 1.12-1.712 1.888-3.264 1.888zm0-7.568c-1.392 0-2.368 1.056-2.368 2.496v.112h4.56v-.176c0-1.456-.88-2.432-2.192-2.432zm8.16 7.568c-1.52 0-2.528-.64-3.264-1.616l.912-.736c.64.8 1.408 1.264 2.448 1.264 1.088 0 1.728-.496 1.728-1.344 0-.64-.352-1.136-1.44-1.296l-.656-.096c-1.52-.224-2.656-.848-2.656-2.384 0-1.632 1.264-2.432 2.944-2.432 1.328 0 2.208.496 2.88 1.328l-.848.768c-.368-.512-1.072-1.008-2.128-1.008s-1.616.496-1.616 1.28c0 .8.56 1.12 1.584 1.28l.64.096c1.824.272 2.528 1.072 2.528 2.32 0 1.6-1.168 2.576-3.056 2.576zm12.208 0c-2.208 0-3.728-1.696-3.728-4.32 0-2.624 1.52-4.32 3.728-4.32s3.728 1.696 3.728 4.32c0 2.624-1.52 4.32-3.728 4.32zm0-1.136c1.376 0 2.352-.848 2.352-2.592v-1.184c0-1.744-.976-2.592-2.352-2.592s-2.352.848-2.352 2.592v1.184c0 1.744.976 2.592 2.352 2.592zm6.192.944v-7.136h-1.344v-1.12h1.344v-1.664c0-1.136.592-1.92 1.808-1.92h1.248v1.12h-1.776v2.464h1.776v1.12h-1.776V143h-1.28zm9.856 0l-2.208-8.256h1.248l.88 3.568.88 3.616h.032l1.008-3.616 1.04-3.568h1.136l1.072 3.568 1.024 3.616h.032l.848-3.616.896-3.568h1.2L217.544 143h-1.584l-1.152-3.968-.72-2.512h-.032l-.704 2.512L212.2 143h-1.552zm11.584-10.192c-.544 0-.784-.288-.784-.72v-.208c0-.432.24-.72.784-.72s.784.288.784.72v.208c0 .432-.24.72-.784.72zm-.64 10.192v-8.256h1.28V143h-1.28zm6.48.192c-1.52 0-2.528-.64-3.264-1.616l.912-.736c.64.8 1.408 1.264 2.448 1.264 1.088 0 1.728-.496 1.728-1.344 0-.64-.352-1.136-1.44-1.296l-.656-.096c-1.52-.224-2.656-.848-2.656-2.384 0-1.632 1.264-2.432 2.944-2.432 1.328 0 2.208.496 2.88 1.328l-.848.768c-.368-.512-1.072-1.008-2.128-1.008s-1.616.496-1.616 1.28c0 .8.56 1.12 1.584 1.28l.64.096c1.824.272 2.528 1.072 2.528 2.32 0 1.6-1.168 2.576-3.056 2.576zm10.592-.192v-1.344h-.064c-.496 1.024-1.28 1.536-2.416 1.536-2.064 0-3.36-1.68-3.36-4.32 0-2.64 1.296-4.32 3.36-4.32 1.136 0 1.984.496 2.416 1.536h.064v-4.928h1.28V143h-1.28zm-2.128-.96c1.168 0 2.128-.608 2.128-1.68v-3.072c0-.912-.96-1.584-2.128-1.584-1.44 0-2.336.992-2.336 2.464v1.408c0 1.472.896 2.464 2.336 2.464zm9.248 1.152c-2.208 0-3.728-1.696-3.728-4.32 0-2.624 1.52-4.32 3.728-4.32s3.728 1.696 3.728 4.32c0 2.624-1.52 4.32-3.728 4.32zm0-1.136c1.376 0 2.352-.848 2.352-2.592v-1.184c0-1.744-.976-2.592-2.352-2.592s-2.352.848-2.352 2.592v1.184c0 1.744.976 2.592 2.352 2.592zm7.12.944h-1.28v-8.256h1.28v1.344h.064c.368-.848.944-1.536 2.224-1.536 1.088 0 2.08.496 2.528 1.68h.032c.304-.896 1.104-1.68 2.512-1.68 1.68 0 2.688 1.152 2.688 3.152V143h-1.28v-5.072c0-1.456-.56-2.224-1.808-2.224-1.008 0-1.936.512-1.936 1.568V143h-1.28v-5.072c0-1.472-.56-2.224-1.776-2.224-1.008 0-1.968.512-1.968 1.568V143zm23.184 0h-.72c-.944 0-1.328-.576-1.424-1.344h-.08c-.352 1.008-1.232 1.536-2.384 1.536-1.744 0-2.768-.96-2.768-2.496 0-1.552 1.12-2.416 3.52-2.416h1.632v-.816c0-1.168-.64-1.808-1.952-1.808-.992 0-1.648.48-2.096 1.232l-.768-.72c.448-.88 1.44-1.616 2.928-1.616 1.984 0 3.168 1.04 3.168 2.784v4.544h.944V143zm-4.4-.896c1.264 0 2.176-.656 2.176-1.504v-1.36h-1.696c-1.456 0-2.112.448-2.112 1.248v.336c0 .816.64 1.28 1.632 1.28zm7.504.896h-1.28v-8.256h1.28v1.344h.064c.4-.928 1.104-1.536 2.336-1.536 1.696 0 2.768 1.152 2.768 3.152V143h-1.28v-5.072c0-1.472-.64-2.224-1.872-2.224-1.024 0-2.016.512-2.016 1.568V143zm13.088 0v-1.344h-.064c-.496 1.024-1.28 1.536-2.416 1.536-2.064 0-3.36-1.68-3.36-4.32 0-2.64 1.296-4.32 3.36-4.32 1.136 0 1.984.496 2.416 1.536h.064v-4.928h1.28V143h-1.28zm-2.128-.96c1.168 0 2.128-.608 2.128-1.68v-3.072c0-.912-.96-1.584-2.128-1.584-1.44 0-2.336.992-2.336 2.464v1.408c0 1.472.896 2.464 2.336 2.464zm12.4.96h-1.136c-.88 0-1.36-.56-1.36-1.328V131.16h1.28v10.72h1.216V143zm4.96.192c-2.24 0-3.712-1.696-3.712-4.32 0-2.624 1.472-4.32 3.712-4.32 2.208 0 3.568 1.696 3.568 4.032v.608h-5.936v.384c0 1.424.912 2.496 2.448 2.496 1.04 0 1.84-.512 2.272-1.424l.912.656c-.528 1.12-1.712 1.888-3.264 1.888zm0-7.568c-1.392 0-2.368 1.056-2.368 2.496v.112h4.56v-.176c0-1.456-.88-2.432-2.192-2.432zm12.4 7.376h-.72c-.944 0-1.328-.576-1.424-1.344h-.08c-.352 1.008-1.232 1.536-2.384 1.536-1.744 0-2.768-.96-2.768-2.496 0-1.552 1.12-2.416 3.52-2.416h1.632v-.816c0-1.168-.64-1.808-1.952-1.808-.992 0-1.648.48-2.096 1.232l-.768-.72c.448-.88 1.44-1.616 2.928-1.616 1.984 0 3.168 1.04 3.168 2.784v4.544h.944V143zm-4.4-.896c1.264 0 2.176-.656 2.176-1.504v-1.36h-1.696c-1.456 0-2.112.448-2.112 1.248v.336c0 .816.64 1.28 1.632 1.28zm7.504.896h-1.28v-8.256h1.28v1.52h.08c.288-.784 1.04-1.52 2.384-1.52h.496v1.28h-.752c-1.376 0-2.208.592-2.208 1.376v5.6zm5.872 0h-1.28v-8.256h1.28v1.344h.064c.4-.928 1.104-1.536 2.336-1.536 1.696 0 2.768 1.152 2.768 3.152V143h-1.28v-5.072c0-1.472-.64-2.224-1.872-2.224-1.024 0-2.016.512-2.016 1.568V143zm8.448-10.192c-.544 0-.784-.288-.784-.72v-.208c0-.432.24-.72.784-.72s.784.288.784.72v.208c0 .432-.24.72-.784.72zm-.64 10.192v-8.256h1.28V143h-1.28zm5.28 0h-1.28v-8.256h1.28v1.344h.064c.4-.928 1.104-1.536 2.336-1.536 1.696 0 2.768 1.152 2.768 3.152V143h-1.28v-5.072c0-1.472-.64-2.224-1.872-2.224-1.024 0-2.016.512-2.016 1.568V143zm14.768.912c0 1.696-1.344 2.48-4 2.48-2.576 0-3.632-.736-3.632-2.032 0-.896.496-1.376 1.312-1.6v-.176c-.464-.224-.736-.592-.736-1.152 0-.832.592-1.232 1.424-1.44v-.064c-.976-.464-1.552-1.376-1.552-2.528 0-1.68 1.232-2.848 3.104-2.848.592 0 1.12.112 1.568.32v-.144c0-.64.272-1.104.96-1.104h1.232v1.12h-1.568v.528c.592.512.944 1.248.944 2.128 0 1.68-1.232 2.848-3.12 2.848-.272 0-.56-.032-.8-.08-.544.144-1.088.416-1.088.928 0 .496.512.624 1.264.624h1.76c2.048 0 2.928.832 2.928 2.192zm-1.2.096c0-.656-.432-1.088-1.712-1.088h-2.752c-.528.24-.768.608-.768 1.12 0 .72.496 1.312 1.792 1.312h1.184c1.424 0 2.256-.448 2.256-1.344zm-2.864-4.784c1.088 0 1.776-.512 1.776-1.6v-.448c0-1.088-.688-1.6-1.776-1.6s-1.776.512-1.776 1.6v.448c0 1.088.688 1.6 1.776 1.6zm8.032 3.968c-1.52 0-2.528-.64-3.264-1.616l.912-.736c.64.8 1.408 1.264 2.448 1.264 1.088 0 1.728-.496 1.728-1.344 0-.64-.352-1.136-1.44-1.296l-.656-.096c-1.52-.224-2.656-.848-2.656-2.384 0-1.632 1.264-2.432 2.944-2.432 1.328 0 2.208.496 2.88 1.328l-.848.768c-.368-.512-1.072-1.008-2.128-1.008s-1.616.496-1.616 1.28c0 .8.56 1.12 1.584 1.28l.64.096c1.824.272 2.528 1.072 2.528 2.32 0 1.6-1.168 2.576-3.056 2.576zM24.36 167v-11.84h1.28v4.928h.064c.432-1.04 1.28-1.536 2.416-1.536 2.064 0 3.36 1.68 3.36 4.32 0 2.64-1.296 4.32-3.36 4.32-1.136 0-1.92-.512-2.416-1.536h-.064V167h-1.28zm3.408-.96c1.44 0 2.336-.992 2.336-2.464v-1.408c0-1.472-.896-2.464-2.336-2.464-1.168 0-2.128.672-2.128 1.584v3.072c0 1.072.96 1.68 2.128 1.68zm10.96.96v-1.344h-.064c-.32.784-.944 1.536-2.32 1.536-1.696 0-2.784-1.152-2.784-3.152v-5.296h1.28v5.072c0 1.472.656 2.224 1.888 2.224 1.008 0 2-.496 2-1.584v-5.712h1.28V167h-1.28zm4.64-10.192c-.544 0-.784-.288-.784-.72v-.208c0-.432.24-.72.784-.72s.784.288.784.72v.208c0 .432-.24.72-.784.72zM42.728 167v-8.256h1.28V167h-1.28zm6.496 0h-1.136c-.88 0-1.36-.56-1.36-1.328V155.16h1.28v10.72h1.216V167zm5.2 0h-1.6c-.88 0-1.36-.56-1.36-1.36v-5.776h-1.36v-1.12h.768c.544 0 .72-.192.72-.752v-1.536h1.152v2.288h1.808v1.12h-1.808v6.016h1.68V167zm11.056 0v-1.344h-.064c-.32.784-.944 1.536-2.32 1.536-1.696 0-2.784-1.152-2.784-3.152v-5.296h1.28v5.072c0 1.472.656 2.224 1.888 2.224 1.008 0 2-.496 2-1.584v-5.712h1.28V167h-1.28zm4 3.2v-11.456h1.28v1.344h.064c.432-1.04 1.28-1.536 2.416-1.536 2.064 0 3.36 1.68 3.36 4.32 0 2.64-1.296 4.32-3.36 4.32-1.136 0-1.92-.512-2.416-1.536h-.064v4.544h-1.28zm3.408-4.16c1.44 0 2.336-.992 2.336-2.464v-1.408c0-1.472-.896-2.464-2.336-2.464-1.168 0-2.128.672-2.128 1.584v3.072c0 1.072.96 1.68 2.128 1.68zm9.648.96v-11.84h1.28v4.928h.064c.432-1.04 1.28-1.536 2.416-1.536 2.064 0 3.36 1.68 3.36 4.32 0 2.64-1.296 4.32-3.36 4.32-1.136 0-1.92-.512-2.416-1.536h-.064V167h-1.28zm3.408-.96c1.44 0 2.336-.992 2.336-2.464v-1.408c0-1.472-.896-2.464-2.336-2.464-1.168 0-2.128.672-2.128 1.584v3.072c0 1.072.96 1.68 2.128 1.68zm8.88-1.68l2-5.616h1.264l-3.696 10.176c-.368.992-.704 1.28-1.92 1.28h-.656v-1.12h1.296l.624-1.76-3.088-8.576h1.28l1.984 5.616.384 1.344h.08l.448-1.344zm11.84 2.64h-1.488l-2.72-11.168h1.424l1.2 5.376.928 4.176h.032l1.04-4.176 1.408-5.376h1.536l1.36 5.376 1.04 4.16h.048l.96-4.16 1.264-5.376h1.376L113.208 167h-1.488l-1.456-5.568-1.024-4.096h-.032l-1.056 4.096-1.488 5.568zm13.968.192c-2.208 0-3.728-1.696-3.728-4.32 0-2.624 1.52-4.32 3.728-4.32s3.728 1.696 3.728 4.32c0 2.624-1.52 4.32-3.728 4.32zm0-1.136c1.376 0 2.352-.848 2.352-2.592v-1.184c0-1.744-.976-2.592-2.352-2.592s-2.352.848-2.352 2.592v1.184c0 1.744.976 2.592 2.352 2.592zm8.96 1.136c-2.208 0-3.728-1.696-3.728-4.32 0-2.624 1.52-4.32 3.728-4.32s3.728 1.696 3.728 4.32c0 2.624-1.52 4.32-3.728 4.32zm0-1.136c1.376 0 2.352-.848 2.352-2.592v-1.184c0-1.744-.976-2.592-2.352-2.592s-2.352.848-2.352 2.592v1.184c0 1.744.976 2.592 2.352 2.592zm11.12.944v-1.344h-.064c-.496 1.024-1.28 1.536-2.416 1.536-2.064 0-3.36-1.68-3.36-4.32 0-2.64 1.296-4.32 3.36-4.32 1.136 0 1.984.496 2.416 1.536h.064v-4.928h1.28V167h-1.28zm-2.128-.96c1.168 0 2.128-.608 2.128-1.68v-3.072c0-.912-.96-1.584-2.128-1.584-1.44 0-2.336.992-2.336 2.464v1.408c0 1.472.896 2.464 2.336 2.464zm8.608 1.152c-1.52 0-2.528-.64-3.264-1.616l.912-.736c.64.8 1.408 1.264 2.448 1.264 1.088 0 1.728-.496 1.728-1.344 0-.64-.352-1.136-1.44-1.296l-.656-.096c-1.52-.224-2.656-.848-2.656-2.384 0-1.632 1.264-2.432 2.944-2.432 1.328 0 2.208.496 2.88 1.328l-.848.768c-.368-.512-1.072-1.008-2.128-1.008s-1.616.496-1.616 1.28c0 .8.56 1.12 1.584 1.28l.64.096c1.824.272 2.528 1.072 2.528 2.32 0 1.6-1.168 2.576-3.056 2.576zm5.952-10.384c-.544 0-.784-.288-.784-.72v-.208c0-.432.24-.72.784-.72s.784.288.784.72v.208c0 .432-.24.72-.784.72zm-.64 10.192v-8.256h1.28V167h-1.28zm9.28 0v-1.344h-.064c-.496 1.024-1.28 1.536-2.416 1.536-2.064 0-3.36-1.68-3.36-4.32 0-2.64 1.296-4.32 3.36-4.32 1.136 0 1.984.496 2.416 1.536h.064v-4.928h1.28V167h-1.28zm-2.128-.96c1.168 0 2.128-.608 2.128-1.68v-3.072c0-.912-.96-1.584-2.128-1.584-1.44 0-2.336.992-2.336 2.464v1.408c0 1.472.896 2.464 2.336 2.464zm9.232 1.152c-2.24 0-3.712-1.696-3.712-4.32 0-2.624 1.472-4.32 3.712-4.32 2.208 0 3.568 1.696 3.568 4.032v.608h-5.936v.384c0 1.424.912 2.496 2.448 2.496 1.04 0 1.84-.512 2.272-1.424l.912.656c-.528 1.12-1.712 1.888-3.264 1.888zm0-7.568c-1.392 0-2.368 1.056-2.368 2.496v.112h4.56v-.176c0-1.456-.88-2.432-2.192-2.432zm6.176-4.624c.672 0 .976.384.976.944v.224c0 .864-.544 2.048-1.456 2.832h-1.072c.64-.672 1.024-1.232 1.2-1.984-.432-.096-.624-.416-.624-.848v-.224c0-.56.304-.944.976-.944zm5.152 12.192c-1.52 0-2.528-.64-3.264-1.616l.912-.736c.64.8 1.408 1.264 2.448 1.264 1.088 0 1.728-.496 1.728-1.344 0-.64-.352-1.136-1.44-1.296l-.656-.096c-1.52-.224-2.656-.848-2.656-2.384 0-1.632 1.264-2.432 2.944-2.432 1.328 0 2.208.496 2.88 1.328l-.848.768c-.368-.512-1.072-1.008-2.128-1.008s-1.616.496-1.616 1.28c0 .8.56 1.12 1.584 1.28l.64.096c1.824.272 2.528 1.072 2.528 2.32 0 1.6-1.168 2.576-3.056 2.576zm12.208 0c-2.208 0-3.728-1.696-3.728-4.32 0-2.624 1.52-4.32 3.728-4.32s3.728 1.696 3.728 4.32c0 2.624-1.52 4.32-3.728 4.32zm0-1.136c1.376 0 2.352-.848 2.352-2.592v-1.184c0-1.744-.976-2.592-2.352-2.592s-2.352.848-2.352 2.592v1.184c0 1.744.976 2.592 2.352 2.592zm7.104.944l-2.208-8.256h1.248l.88 3.568.88 3.616h.032l1.008-3.616 1.04-3.568h1.136l1.072 3.568 1.024 3.616h.032l.848-3.616.896-3.568h1.2L206.424 167h-1.584l-1.152-3.968-.72-2.512h-.032l-.704 2.512L201.08 167h-1.552zm12.224 0h-1.28v-8.256h1.28v1.344h.064c.4-.928 1.104-1.536 2.336-1.536 1.696 0 2.768 1.152 2.768 3.152V167h-1.28v-5.072c0-1.472-.64-2.224-1.872-2.224-1.024 0-2.016.512-2.016 1.568V167zm14.688.192c-2.24 0-3.712-1.696-3.712-4.32 0-2.624 1.472-4.32 3.712-4.32 2.208 0 3.568 1.696 3.568 4.032v.608h-5.936v.384c0 1.424.912 2.496 2.448 2.496 1.04 0 1.84-.512 2.272-1.424l.912.656c-.528 1.12-1.712 1.888-3.264 1.888zm0-7.568c-1.392 0-2.368 1.056-2.368 2.496v.112h4.56v-.176c0-1.456-.88-2.432-2.192-2.432zM233.4 167h-1.28v-8.256h1.28v1.344h.064c.368-.848.944-1.536 2.224-1.536 1.088 0 2.08.496 2.528 1.68h.032c.304-.896 1.104-1.68 2.512-1.68 1.68 0 2.688 1.152 2.688 3.152V167h-1.28v-5.072c0-1.456-.56-2.224-1.808-2.224-1.008 0-1.936.512-1.936 1.568V167h-1.28v-5.072c0-1.472-.56-2.224-1.776-2.224-1.008 0-1.968.512-1.968 1.568V167zm12.688 3.2v-11.456h1.28v1.344h.064c.432-1.04 1.28-1.536 2.416-1.536 2.064 0 3.36 1.68 3.36 4.32 0 2.64-1.296 4.32-3.36 4.32-1.136 0-1.92-.512-2.416-1.536h-.064v4.544h-1.28zm3.408-4.16c1.44 0 2.336-.992 2.336-2.464v-1.408c0-1.472-.896-2.464-2.336-2.464-1.168 0-2.128.672-2.128 1.584v3.072c0 1.072.96 1.68 2.128 1.68zm8.368.96h-1.136c-.88 0-1.36-.56-1.36-1.328V155.16h1.28v10.72h1.216V167zm4.976.192c-2.208 0-3.728-1.696-3.728-4.32 0-2.624 1.52-4.32 3.728-4.32s3.728 1.696 3.728 4.32c0 2.624-1.52 4.32-3.728 4.32zm0-1.136c1.376 0 2.352-.848 2.352-2.592v-1.184c0-1.744-.976-2.592-2.352-2.592s-2.352.848-2.352 2.592v1.184c0 1.744.976 2.592 2.352 2.592zm8.848-1.696l2-5.616h1.264l-3.696 10.176c-.368.992-.704 1.28-1.92 1.28h-.656v-1.12h1.296l.624-1.76-3.088-8.576h1.28l1.984 5.616.384 1.344h.08l.448-1.344zm7.92 2.832c-2.24 0-3.712-1.696-3.712-4.32 0-2.624 1.472-4.32 3.712-4.32 2.208 0 3.568 1.696 3.568 4.032v.608h-5.936v.384c0 1.424.912 2.496 2.448 2.496 1.04 0 1.84-.512 2.272-1.424l.912.656c-.528 1.12-1.712 1.888-3.264 1.888zm0-7.568c-1.392 0-2.368 1.056-2.368 2.496v.112h4.56v-.176c0-1.456-.88-2.432-2.192-2.432zm8.784 7.568c-2.24 0-3.712-1.696-3.712-4.32 0-2.624 1.472-4.32 3.712-4.32 2.208 0 3.568 1.696 3.568 4.032v.608h-5.936v.384c0 1.424.912 2.496 2.448 2.496 1.04 0 1.84-.512 2.272-1.424l.912.656c-.528 1.12-1.712 1.888-3.264 1.888zm0-7.568c-1.392 0-2.368 1.056-2.368 2.496v.112h4.56v-.176c0-1.456-.88-2.432-2.192-2.432zm8.16 7.568c-1.52 0-2.528-.64-3.264-1.616l.912-.736c.64.8 1.408 1.264 2.448 1.264 1.088 0 1.728-.496 1.728-1.344 0-.64-.352-1.136-1.44-1.296l-.656-.096c-1.52-.224-2.656-.848-2.656-2.384 0-1.632 1.264-2.432 2.944-2.432 1.328 0 2.208.496 2.88 1.328l-.848.768c-.368-.512-1.072-1.008-2.128-1.008s-1.616.496-1.616 1.28c0 .8.56 1.12 1.584 1.28l.64.096c1.824.272 2.528 1.072 2.528 2.32 0 1.6-1.168 2.576-3.056 2.576zm6.048 0c-.672 0-.976-.384-.976-.928v-.208c0-.544.304-.928.976-.928.672 0 .976.384.976.928v.208c0 .544-.304.928-.976.928z" fill="#3D3D3D"/><path d="M370 72v152" stroke="#A4A4A4" stroke-width="2" stroke-linecap="square" stroke-dasharray="4,5"/></g></svg>