<svg xmlns="http://www.w3.org/2000/svg" viewBox="0 0 1920 1080.32"><defs><style>.cls-3{fill:none;stroke:#dcdcdc;stroke-miterlimit:10;stroke-width:1.28px}</style></defs><path fill="#fff" d="M0 0h1920v1080.32H0z" id="BG"/><g id="grid_padding" data-name="grid + padding"><path d="M1282 861.77H638v-644h644zm-20-624H658v604h604z" transform="translate(0 .32)" fill="#f3f3f3"/><path class="cls-3" d="M637.99 218.23h644.02v644.02H637.99zM1282.01 540.24H637.99M960 218.23v644.02M1282.01 379.23H637.99M1282.01 701.25H637.99M798.99 218.23v644.02M1121.01 218.23v644.02M1282.01 298.73H637.99M1282.01 459.74H637.99M1282.01 620.74H637.99M1282.01 781.75H637.99M718.49 218.23v644.02M879.5 218.23v644.02M1040.5 218.23v644.02M1201.51 218.23v644.02M1282.01 258.48H637.99M1282.01 338.98H637.99M1282.01 419.49H637.99M1282.01 499.99H637.99M1282.01 580.49H637.99M1282.01 660.99H637.99M1282.01 741.5H637.99M1282.01 822H637.99M678.24 218.23v644.02M758.74 218.23v644.02M839.25 218.23v644.02M919.75 218.23v644.02M1000.25 218.23v644.02M1080.75 218.23v644.02M1161.26 218.23v644.02M1241.76 218.23v644.02M1282.01 238.35H637.99M1282.01 278.61H637.99M1282.01 318.86H637.99M1282.01 359.11H637.99M1282.01 399.36H637.99M1282.01 439.61H637.99M1282.01 479.86H637.99M1282.01 520.11H637.99M1282.01 560.37H637.99M1282.01 600.62H637.99M1282.01 640.87H637.99M1282.01 681.12H637.99M1282.01 721.37H637.99M1282.01 761.62H637.99M1282.01 801.87H637.99M1282.01 842.12H637.99M658.12 218.23v644.02M698.37 218.23v644.02M738.62 218.23v644.02M778.87 218.23v644.02M819.12 218.23v644.02M859.37 218.23v644.02M899.62 218.23v644.02M939.87 218.23v644.02M980.13 218.23v644.02M1020.38 218.23v644.02M1060.63 218.23v644.02M1100.88 218.23v644.02M1141.13 218.23v644.02M1181.38 218.23v644.02M1221.63 218.23v644.02M1261.88 218.23v644.02"/></g></svg>