<?xml version="1.0" encoding="UTF-8"?>
<svg width="288px" height="288px" viewBox="0 0 288 288" version="1.1" xmlns="http://www.w3.org/2000/svg" xmlns:xlink="http://www.w3.org/1999/xlink">
    <!-- Generator: Sketch 51.3 (57544) - http://www.bohemiancoding.com/sketch -->
    <title>Group 99</title>
    <desc>Created with Sketch.</desc>
    <defs></defs>
    <g id="Desktop" stroke="none" stroke-width="1" fill="none" fill-rule="evenodd">
        <g id="Icons-Copy-5" transform="translate(-673.000000, -19657.000000)">
            <g id="Group-99" transform="translate(673.000000, 19657.000000)">
                <rect id="Rectangle-5-Copy-81" fill="#000000" x="0" y="0" width="288" height="288"></rect>
                <g id="Group-Copy-2" transform="translate(64.000000, 112.000000)" fill-rule="nonzero">
                    <polygon id="Rectangle-path" fill="#6E32C9" points="0 59.6078431 31.1198428 59.6078431 31.1198428 64 0 64"></polygon>
                    <polygon id="Rectangle-path" fill="#054ADA" points="0 51.1372549 31.1198428 51.1372549 31.1198428 55.5294118 0 55.5294118"></polygon>
                    <polygon id="Rectangle-path" fill="#00BAB6" points="9.11591356 42.6666667 22.3182711 42.6666667 22.3182711 47.0588235 9.11591356 47.0588235"></polygon>
                    <polygon id="Rectangle-path" fill="#3DBB61" points="9.11591356 34.1960784 22.3182711 34.1960784 22.3182711 38.5882353 9.11591356 38.5882353"></polygon>
                    <polygon id="Rectangle-path" fill="#FDD13A" points="9.11591356 25.7254902 22.3182711 25.7254902 22.3182711 30.1176471 9.11591356 30.1176471"></polygon>
                    <polygon id="Rectangle-path" fill="#FC7B1E" points="9.11591356 17.254902 22.3182711 17.254902 22.3182711 21.6470588 9.11591356 21.6470588"></polygon>
                    <polygon id="Rectangle-path" fill="#E02730" points="0 8.47058824 31.1198428 8.47058824 31.1198428 12.8627451 0 12.8627451"></polygon>
                    <rect id="Rectangle-path" fill="#FA75A6" x="0" y="0" width="31.1198428" height="4.39215686"></rect>
                    <path d="M35.8349705,55.5294118 L83.7214184,55.5294118 C84.5303111,54.171836 85.1369806,52.6944742 85.5009823,51.1372549 L35.8349705,51.1372549 L35.8349705,55.5294118 Z" id="Shape" fill="#054ADA"></path>
                    <path d="M79.5806602,34.1960784 L44.3222004,34.1960784 L44.3222004,38.5882353 L83.3005894,38.5882353 C82.2897391,36.9112299 81.0362846,35.4338681 79.5806602,34.1960784 Z" id="Shape" fill="#3DBB61"></path>
                    <path d="M44.3222004,25.7254902 L44.3222004,30.1176471 L79.5806602,30.1176471 C81.0767186,28.8798574 82.3301731,27.4024955 83.3005894,25.7254902 L44.3222004,25.7254902 Z" id="Shape" fill="#FDD13A"></path>
                    <path d="M83.7214184,8.47058824 L35.8349705,8.47058824 L35.8349705,12.8627451 L85.5009823,12.8627451 C85.096536,11.3055258 84.4898664,9.82816399 83.7214184,8.47058824 Z" id="Shape" fill="#E02730"></path>
                    <path d="M69.018982,0 L35.8349705,0 L35.8349705,4.39215686 L80.4715128,4.39215686 C77.4768581,1.67700535 73.4300274,0 69.018982,0 Z" id="Shape" fill="#FA75A6"></path>
                    <polygon id="Rectangle-path" fill="#FC7B1E" points="44.3222004 17.254902 57.524558 17.254902 57.524558 21.6470588 44.3222004 21.6470588"></polygon>
                    <path d="M71.0412574,21.6470588 L84.8984938,21.6470588 C85.3001528,20.2495544 85.5009823,18.7721925 85.5009823,17.254902 L71.0412574,17.254902 L71.0412574,21.6470588 Z" id="Shape" fill="#FC7B1E"></path>
                    <polygon id="Rectangle-path" fill="#00BAB6" points="44.3222004 42.6666667 57.524558 42.6666667 57.524558 47.0588235 44.3222004 47.0588235"></polygon>
                    <path d="M71.0412574,42.6666667 L71.0412574,47.0588235 L85.5009823,47.0588235 C85.5009823,45.541533 85.3001528,44.0641711 84.8984938,42.6666667 L71.0412574,42.6666667 Z" id="Shape" fill="#00BAB6"></path>
                    <path d="M35.8349705,63.9600713 L69.018982,64 C73.4704957,64 77.4768581,62.3229947 80.4715128,59.6078431 L35.8349705,59.6078431 L35.8349705,63.9600713 Z" id="Shape" fill="#6E32C9"></path>
                    <polygon id="Rectangle-path" fill="#6E32C9" points="88.9587426 59.6078431 111.277014 59.6078431 111.277014 64 88.9587426 64"></polygon>
                    <polygon id="Rectangle-path" fill="#054ADA" points="88.9587426 51.1372549 111.277014 51.1372549 111.277014 55.5294118 88.9587426 55.5294118"></polygon>
                    <polygon id="Rectangle-path" fill="#00BAB6" points="97.7603143 42.6666667 110.962672 42.6666667 110.962672 47.0588235 97.7603143 47.0588235"></polygon>
                    <polygon id="Rectangle-path" fill="#3DBB61" points="97.7603143 34.1960784 110.962672 34.1960784 110.962672 38.5882353 97.7603143 38.5882353"></polygon>
                    <polygon id="Shape" fill="#E02730" points="117.289809 8.47058824 88.9587426 8.47058824 88.9587426 12.8627451 118.821218 12.8627451"></polygon>
                    <polygon id="Shape" fill="#FA75A6" points="114.454313 0 88.9587426 0 88.9587426 4.39215686 115.992141 4.39215686"></polygon>
                    <polygon id="Rectangle-path" fill="#6E32C9" points="137.681729 59.6078431 160 59.6078431 160 64 137.681729 64"></polygon>
                    <polygon id="Rectangle-path" fill="#054ADA" points="137.681729 51.1372549 160 51.1372549 160 55.5294118 137.681729 55.5294118"></polygon>
                    <polygon id="Rectangle-path" fill="#00BAB6" points="137.681729 42.6666667 150.884086 42.6666667 150.884086 47.0588235 137.681729 47.0588235"></polygon>
                    <polygon id="Rectangle-path" fill="#3DBB61" points="137.681729 34.1960784 150.884086 34.1960784 150.884086 38.5882353 137.681729 38.5882353"></polygon>
                    <polygon id="Shape" fill="#FDD13A" points="137.8389 30.1176471 151.198428 30.1176471 151.198428 25.7254902 137.8389 25.7254902 137.8389 25.7254902 125.734357 25.7254902 124.479371 29.2791444 123.224385 25.7254902 111.119843 25.7254902 111.119843 25.7254902 97.7603143 25.7254902 97.7603143 30.1176471 111.119843 30.1176471 111.119843 26.0848485 112.536763 30.1176471 136.42198 30.1176471 137.8389 26.0848485"></polygon>
                    <polygon id="Shape" fill="#FC7B1E" points="151.51277 17.254902 128.856873 17.254902 127.308448 21.6470588 151.51277 21.6470588"></polygon>
                    <polygon id="Shape" fill="#FA75A6" points="134.504429 0 132.966601 4.39215686 160 4.39215686 160 0"></polygon>
                    <polygon id="Shape" fill="#6E32C9" points="124.479371 64 126.051081 59.6078431 122.907662 59.6078431"></polygon>
                    <polygon id="Shape" fill="#054ADA" points="121.665731 55.5294118 127.607353 55.5294118 129.194499 51.1372549 120.078585 51.1372549"></polygon>
                    <polygon id="Shape" fill="#00BAB6" points="118.831358 47.0588235 130.756068 47.0588235 132.337917 42.6666667 117.249509 42.6666667"></polygon>
                    <polygon id="Shape" fill="#3DBB61" points="115.628039 38.5882353 133.330704 38.5882353 134.852652 34.1960784 114.10609 34.1960784"></polygon>
                    <polygon id="Shape" fill="#FC7B1E" points="97.7603143 21.6470588 121.964637 21.6470588 120.416212 17.254902 97.7603143 17.254902"></polygon>
                    <polygon id="Shape" fill="#E02730" points="130.137525 12.8627451 160 12.8627451 160 8.47058824 131.668934 8.47058824"></polygon>
                </g>
            </g>
        </g>
    </g>
</svg>