<?xml version="1.0" encoding="UTF-8"?>
<svg width="288px" height="288px" viewBox="0 0 288 288" version="1.1" xmlns="http://www.w3.org/2000/svg" xmlns:xlink="http://www.w3.org/1999/xlink">
    <!-- Generator: Sketch 51.3 (57544) - http://www.bohemiancoding.com/sketch -->
    <title>Group 23</title>
    <desc>Created with Sketch.</desc>
    <defs></defs>
    <g id="Desktop" stroke="none" stroke-width="1" fill="none" fill-rule="evenodd">
        <g id="Icons-Copy-5" transform="translate(-672.000000, -17730.000000)">
            <g id="Group-23" transform="translate(672.000000, 17730.000000)">
                <rect id="Rectangle-5-Copy-12" fill="#FFFFFF" x="0" y="0" width="288" height="288"></rect>
                <g id="Group-3-Copy-6" transform="translate(26.000000, 32.000000)">
                    <polygon id="Clip-2" points="0 0 242.418019 0 242.418019 223.074641 0 223.074641"></polygon>
                    <path d="M189.675262,224 L189.675262,77.198758 L214.435961,97.3244617 L242.418563,63.6080117 L196.991146,22.4896441 C191.558602,17.5739584 185.312699,13.6486164 178.537243,10.8915959 L151.763806,0 C151.763806,0 147.171806,25.3973453 121.209553,25.3973453 C95.2440388,25.3973453 90.655301,0 90.655301,0 L63.8818641,10.8915959 C57.104233,13.6486164 50.8605049,17.5728666 45.4290485,22.4896441 L-0.00054368932,63.6080117 L27.9809709,97.3244617 L52.7416699,78.4817279 L52.7416699,224 L189.675262,224 Z" id="Fill-1" fill="#000000"></path>
                </g>
                <g id="Group-5-Copy-2" transform="translate(109.000000, 87.000000)" fill="#F3F3F3">
                    <polygon id="Fill-1" points="0 0 0 5.96153846 4.4 5.96153846 4.4 25.0384615 0 25.0384615 0 31 15 31 15 25.0384615 10.6 25.0384615 10.6 5.96153846 15 5.96153846 15 0"></polygon>
                    <polygon id="Fill-2" points="66.0253563 0 61.0001954 14.9038462 55.9746437 0 44 0 44 5.96153846 48.2988506 5.96153846 48.3013908 25.0384615 44 25.0384615 44.0025402 31 54.3563218 31 54.3502644 11.525641 61.0001954 31 67.6376207 11.525641 67.6436782 31 78 31 78 25.0384615 73.7036897 25.0384615 73.7036897 5.96153846 78 5.96153846 78 0"></polygon>
                    <path d="M27.5179599,12.4978493 L34.0668783,12.4978493 L34.0668783,5.96157668 L27.5179599,5.96157668 L27.5179599,12.4978493 Z M27.5179599,25.038622 L34.0668783,25.038622 L34.0668783,18.4808877 L27.5179599,18.4808877 L27.5179599,25.038622 Z M41,8.15901384 C41,3.66140168 37.3457035,0.00238463067 32.8545346,0.00238463067 L17,0 L17,5.96157668 L21.3659456,5.96157668 L21.3659456,25.038622 L17,25.038622 L17,31 L32.8545346,30.9918525 C37.3457035,30.9918525 41,27.3328355 41,22.8352233 C41,19.8490695 39.3718992,17.1039622 36.7513396,15.6713953 L36.4324271,15.4969199 L36.7513396,15.3224444 C39.3718992,13.8900762 41,11.1451676 41,8.15901384 Z" id="Fill-3"></path>
                </g>
            </g>
        </g>
    </g>
</svg>