<?xml version="1.0" encoding="utf-8"?>
<!-- Generator: Adobe Illustrator 20.0.0, SVG Export Plug-In . SVG Version: 6.00 Build 0)  -->
<svg version="1.1" id="Layer_1" xmlns="http://www.w3.org/2000/svg" xmlns:xlink="http://www.w3.org/1999/xlink" x="0px" y="0px"
	 width="1281.5px" height="720.1px" viewBox="0 0 1281.5 720.1" style="enable-background:new 0 0 1281.5 720.1;"
	 xml:space="preserve">
<style type="text/css">
	.st0{fill:#FFFFFF;}
	.st1{fill:#6E32C9;}
	.st2{fill:#054ADA;}
	.st3{fill:#00BAB6;}
	.st4{fill:#3DBB61;}
	.st5{fill:#FDD13A;}
	.st6{fill:#FC7B1E;}
	.st7{fill:#E02730;}
	.st8{fill:#FA75A6;}
</style>
<title>Group 132</title>
<desc>Created with Sketch.</desc>
<g id="Desktop">
	<g id="Icons-Copy-4" transform="translate(-352.000000, -11657.000000)">
		<g id="Group-132" transform="translate(352.000000, 11657.000000)">
			<rect id="Rectangle-12" class="st0" width="1281.5" height="720.1"/>
			<g id="Group" transform="translate(210.000000, 159.000000)">
				<polygon id="Rectangle-path" class="st1" points="79.7,322.4 216.5,322.4 216.5,341.8 79.7,341.8 				"/>
				<polygon id="Rectangle-path_1_" class="st2" points="79.7,285.2 216.5,285.2 216.5,304.5 79.7,304.5 				"/>
				<polygon id="Rectangle-path_2_" class="st3" points="119.8,248 177.8,248 177.8,267.3 119.8,267.3 				"/>
				<polygon id="Rectangle-path_3_" class="st4" points="119.8,210.7 177.8,210.7 177.8,230 119.8,230 				"/>
				<polygon id="Rectangle-path_4_" class="st5" points="119.8,173.5 177.8,173.5 177.8,192.8 119.8,192.8 				"/>
				<polygon id="Rectangle-path_5_" class="st6" points="119.8,136.2 177.8,136.2 177.8,155.5 119.8,155.5 				"/>
				<polygon id="Rectangle-path_6_" class="st7" points="79.7,97.6 216.5,97.6 216.5,116.9 79.7,116.9 				"/>
				<rect id="Rectangle-path_7_" x="79.7" y="60.3" class="st8" width="136.8" height="19.3"/>
				<path id="Shape" class="st2" d="M237.3,304.5h210.6c3.6-6,6.2-12.5,7.8-19.3H237.3V304.5z"/>
				<path id="Shape_1_" class="st4" d="M429.6,210.7h-155V230H446C441.5,222.6,436,216.1,429.6,210.7z"/>
				<path id="Shape_2_" class="st5" d="M274.6,173.5v19.3h155c6.6-5.4,12.1-11.9,16.4-19.3H274.6z"/>
				<path id="Shape_3_" class="st7" d="M447.8,97.6H237.3v19.3h218.4C453.9,110.1,451.2,103.6,447.8,97.6z"/>
				<path id="Shape_4_" class="st8" d="M383.2,60.3H237.3v19.3h196.3C420.4,67.7,402.6,60.3,383.2,60.3z"/>
				<polygon id="Rectangle-path_8_" class="st6" points="274.6,136.2 332.6,136.2 332.6,155.5 274.6,155.5 				"/>
				<path id="Shape_5_" class="st6" d="M392.1,155.5H453c1.8-6.1,2.6-12.6,2.6-19.3h-63.6V155.5z"/>
				<polygon id="Rectangle-path_9_" class="st3" points="274.6,248 332.6,248 332.6,267.3 274.6,267.3 				"/>
				<path id="Shape_6_" class="st3" d="M392.1,248v19.3h63.6c0-6.7-0.9-13.2-2.6-19.3H392.1z"/>
				<path id="Shape_7_" class="st1" d="M237.3,341.6l145.9,0.2c19.6,0,37.2-7.4,50.4-19.3H237.3V341.6z"/>
				<polygon id="Rectangle-path_10_" class="st1" points="470.9,322.4 569,322.4 569,341.8 470.9,341.8 				"/>
				<polygon id="Rectangle-path_11_" class="st2" points="470.9,285.2 569,285.2 569,304.5 470.9,304.5 				"/>
				<polygon id="Rectangle-path_12_" class="st3" points="509.6,248 567.6,248 567.6,267.3 509.6,267.3 				"/>
				<polygon id="Rectangle-path_13_" class="st4" points="509.6,210.7 567.6,210.7 567.6,230 509.6,230 				"/>
				<polygon id="Shape_8_" class="st7" points="595.4,97.6 470.9,97.6 470.9,116.9 602.2,116.9 				"/>
				<polygon id="Shape_9_" class="st8" points="583,60.3 470.9,60.3 470.9,79.7 589.7,79.7 				"/>
				<polygon id="Rectangle-path_14_" class="st1" points="685.1,322.4 783.2,322.4 783.2,341.8 685.1,341.8 				"/>
				<polygon id="Rectangle-path_15_" class="st2" points="685.1,285.2 783.2,285.2 783.2,304.5 685.1,304.5 				"/>
				<polygon id="Rectangle-path_16_" class="st3" points="685.1,248 743.2,248 743.2,267.3 685.1,267.3 				"/>
				<polygon id="Rectangle-path_17_" class="st4" points="685.1,210.7 743.2,210.7 743.2,230 685.1,230 				"/>
				<polygon id="Shape_10_" class="st5" points="685.8,192.8 744.5,192.8 744.5,173.5 685.8,173.5 685.8,173.5 632.6,173.5 
					627,189.1 621.5,173.5 568.3,173.5 568.3,173.5 509.6,173.5 509.6,192.8 568.3,192.8 568.3,175 574.5,192.8 679.6,192.8 
					685.8,175 				"/>
				<polygon id="Shape_11_" class="st6" points="745.9,136.2 646.3,136.2 639.5,155.5 745.9,155.5 				"/>
				<polygon id="Shape_12_" class="st8" points="671.1,60.3 664.4,79.7 783.2,79.7 783.2,60.3 				"/>
				<polygon id="Shape_13_" class="st1" points="627,341.8 634,322.4 620.1,322.4 				"/>
				<polygon id="Shape_14_" class="st2" points="614.7,304.5 640.8,304.5 647.8,285.2 607.7,285.2 				"/>
				<polygon id="Shape_15_" class="st3" points="602.2,267.3 654.6,267.3 661.6,248 595.3,248 				"/>
				<polygon id="Shape_16_" class="st4" points="588.1,230 666,230 672.7,210.7 581.4,210.7 				"/>
				<polygon id="Shape_17_" class="st6" points="509.6,155.5 616,155.5 609.2,136.2 509.6,136.2 				"/>
				<polygon id="Shape_18_" class="st7" points="651.9,116.9 783.2,116.9 783.2,97.6 658.7,97.6 				"/>
			</g>
		</g>
	</g>
</g>
</svg>
