<?xml version="1.0" encoding="UTF-8"?>
<svg width="288px" height="288px" viewBox="0 0 288 288" version="1.1" xmlns="http://www.w3.org/2000/svg" xmlns:xlink="http://www.w3.org/1999/xlink">
    <!-- Generator: Sketch 51.3 (57544) - http://www.bohemiancoding.com/sketch -->
    <title>Group 51</title>
    <desc>Created with Sketch.</desc>
    <defs></defs>
    <g id="Desktop" stroke="none" stroke-width="1" fill="none" fill-rule="evenodd">
        <g id="Icons-Copy-2" transform="translate(-991.000000, -3615.000000)">
            <g id="Group-51" transform="translate(991.000000, 3615.000000)">
                <rect id="Rectangle-5-Copy-10" fill="#B9BFC7" x="0" y="0" width="288" height="288"></rect>
                <g id="Group-53-Copy-2" transform="translate(60.000000, 120.000000)" fill="#000000">
                    <path d="M30,31.5 C30,34.814 27.314,37.5 24,37.5 C20.686,37.5 18,34.814 18,31.5 C18,28.186 20.686,25.5 24,25.5 C27.314,25.5 30,28.186 30,31.5" id="Fill-1"></path>
                    <path d="M24,45 C16.544,45 10.5,38.956 10.5,31.5 C10.5,24.044 16.544,18 24,18 C31.456,18 37.5,24.044 37.5,31.5 C37.5,38.956 31.456,45 24,45 M24,15 C13.2086667,15 3.95133333,21.8046667 0,31.5 C3.95133333,41.1953333 13.2086667,48 24,48 C34.7913333,48 44.0486667,41.1953333 48,31.5 C44.0486667,21.8046667 34.7913333,15 24,15" id="Fill-3"></path>
                    <g id="Group-7" transform="translate(1.333333, 0.000133)">
                        <path d="M22.6666667,-0.000133333333 C13.0666667,-0.000133333333 4.68266667,5.42653333 0.166666667,13.4998667 L0.166666667,17.9998667 C5.54133333,11.5838667 13.6246667,7.49986667 22.6666667,7.49986667 C31.7086667,7.49986667 39.792,11.5838667 45.1666667,17.9998667 L45.1666667,13.4998667 C40.6506667,5.42653333 32.2666667,-0.000133333333 22.6666667,-0.000133333333" id="Fill-5"></path>
                    </g>
                    <path d="M82.8580667,6.36653333 C82.8580667,8.8472 80.8474,10.8585333 78.3667333,10.8585333 C75.8860667,10.8585333 73.8747333,8.8472 73.8747333,6.36653333 C73.8747333,3.88586667 75.8860667,1.8752 78.3667333,1.8752 C80.8474,1.8752 82.8580667,3.88586667 82.8580667,6.36653333" id="Fill-8"></path>
                    <path d="M94.125,6.36653333 C94.125,8.8472 92.1136667,10.8585333 89.6336667,10.8585333 C87.1523333,10.8585333 85.1416667,8.8472 85.1416667,6.36653333 C85.1416667,3.88586667 87.1523333,1.8752 89.6336667,1.8752 C92.1136667,1.8752 94.125,3.88586667 94.125,6.36653333" id="Fill-10"></path>
                    <path d="M58.9752667,23.6103333 L74.2499333,16.8583333 L69.0999333,33.2116667 C68.1226,36.125 65.6592667,38.9836667 61.4999333,38.9836667 C57.1699333,38.9836667 53.6252667,35.449 53.6252667,31.119 C53.6252667,27.451 55.8799333,24.999 58.9752667,23.6103333" id="Fill-12"></path>
                    <path d="M109.024733,23.6103333 L93.7500667,16.8583333 L98.9000667,33.2116667 C99.8774,36.125 102.3534,38.983 106.526067,38.983 C106.5294,38.983 106.532067,38.9836667 106.534733,38.9836667 C110.864733,38.9836667 114.374733,35.449 114.374733,31.119 C114.374733,27.451 112.120067,24.999 109.024733,23.6103333" id="Fill-14"></path>
                    <path d="M92.8333333,18.375 C91.2766667,15.059 87.9046667,12.7496667 84,12.7496667 C80.092,12.7496667 76.742,15.0556667 75.1873333,18.375 L92.8333333,18.375 Z" id="Fill-16"></path>
                    <polygon id="Fill-18" points="93.7486667 28.125 74.25 28.125 74.25 22.875 93.75 22.875"></polygon>
                    <polygon id="Fill-20" points="93.7486667 37.875 74.25 37.875 74.25 32.625 93.75 32.625"></polygon>
                    <g id="Group-24" transform="translate(74.666667, 42.000133)">
                        <path d="M0.520866667,0.374866667 C2.07753333,3.69086667 5.44886667,6.0002 9.3542,6.0002 C13.2622,6.0002 16.6115333,3.6942 18.1668667,0.374866667 L0.520866667,0.374866667 Z" id="Fill-22"></path>
                    </g>
                    <polygon id="Fill-25" points="142.5052 46.875 143.579867 43.7816667 141.429867 43.7816667"></polygon>
                    <polygon id="Fill-27" points="140.442733 40.9700667 144.5674 40.9700667 145.652733 37.8767333 139.356733 37.8767333"></polygon>
                    <polygon id="Fill-29" points="138.3698 35.0648 146.640467 35.0648 147.726467 31.9714667 137.2838 31.9714667"></polygon>
                    <polygon id="Fill-31" points="136.2962 29.1598667 148.713533 29.1598667 149.799533 26.0665333 135.2102 26.0665333"></polygon>
                    <polygon id="Fill-33" points="123.945933 17.3496 140.657267 17.3496 139.581933 14.2562667 123.945933 14.2562667"></polygon>
                    <g id="Group-37" transform="translate(146.000000, 8.000133)">
                        <polygon id="Fill-35" points="0.4056 3.4442 21.2502667 3.4442 21.2502667 0.350866667 1.48093333 0.350866667"></polygon>
                    </g>
                    <polygon id="Fill-38" points="149.534533 2.44633333 148.4592 5.53966667 167.249867 5.53966667 167.249867 2.44633333"></polygon>
                    <polygon id="Fill-40" points="117.76 46.8748 133.225333 46.8748 133.225333 43.7814667 117.76 43.7814667"></polygon>
                    <polygon id="Fill-42" points="117.76 40.9701333 133.225333 40.9701333 133.225333 37.8768 117.76 37.8768"></polygon>
                    <polygon id="Fill-43" points="123.946 35.0648 133.225333 35.0648 133.225333 31.9714667 123.946 31.9714667"></polygon>
                    <polygon id="Fill-44" points="123.946 29.1601333 133.225333 29.1601333 133.225333 26.0668 123.946 26.0668"></polygon>
                    <polygon id="Fill-45" points="161.0638 14.2565333 145.4278 14.2565333 144.352467 17.3498667 161.0638 17.3498667"></polygon>
                    <polygon id="Fill-46" points="151.784667 29.1594667 161.064 29.1594667 161.064 26.0661333 151.784667 26.0661333"></polygon>
                    <polygon id="Fill-47" points="151.784667 35.0648 161.064 35.0648 161.064 31.9714667 151.784667 31.9714667"></polygon>
                    <polygon id="Fill-48" points="151.784667 40.9701333 167.25 40.9701333 167.25 37.8768 151.784667 37.8768"></polygon>
                    <polygon id="Fill-49" points="151.784667 46.8748 167.25 46.8748 167.25 43.7814667 151.784667 43.7814667"></polygon>
                    <polygon id="Fill-50" points="138.604133 11.4443333 137.5288 8.351 117.759467 8.351 117.759467 11.4443333"></polygon>
                    <polygon id="Fill-51" points="136.5508 5.5394 135.475467 2.44606667 117.759467 2.44606667 117.759467 5.5394"></polygon>
                    <polygon id="Fill-52" points="151.784533 23.2546 161.063867 23.2546 161.063867 20.1612667 151.784533 20.1612667 143.374533 20.1612667 142.5052 22.6619333 141.6352 20.1612667 123.945867 20.1612667 123.945867 23.2546 133.2252 23.2546 133.2252 20.4119333 134.2232 23.2546 150.786533 23.2546 151.784533 20.4126"></polygon>
                </g>
            </g>
        </g>
    </g>
</svg>