<?xml version="1.0" encoding="UTF-8"?>
<svg width="288px" height="288px" viewBox="0 0 288 288" version="1.1" xmlns="http://www.w3.org/2000/svg" xmlns:xlink="http://www.w3.org/1999/xlink">
    <!-- Generator: Sketch 51.3 (57544) - http://www.bohemiancoding.com/sketch -->
    <title>Group 41</title>
    <desc>Created with Sketch.</desc>
    <defs></defs>
    <g id="Desktop" stroke="none" stroke-width="1" fill="none" fill-rule="evenodd">
        <g id="Icons-Copy-4" transform="translate(-353.000000, -16027.000000)">
            <g id="Group-41" transform="translate(353.000000, 16027.000000)">
                <g id="Group-74" fill="#FFFFFF">
                    <polygon id="Background" points="0 0 288 0 288 288 0 288"></polygon>
                </g>
                <g id="Group-5" transform="translate(65.000000, 112.000000)" fill="#000000">
                    <polygon id="Fill-1" points="0 -8.05881381e-14 0 12.9305703 8.88692219 12.9305703 8.88692219 50.9141205 0 50.9141205 0 63.8446908 37.2283214 63.8446908 37.2283214 50.9141205 22.2173055 50.9141205 22.2173055 12.9305703 36.2700549 12.9305703 36.2700549 2.93571075e-13"></polygon>
                    <polygon id="Fill-2" points="132.777095 0 122.778451 29.7209796 112.779408 0 87.5818194 0 87.5818194 12.8523155 96.3805774 12.8523155 96.3857769 50.6059923 87.5818194 50.6059923 87.5866189 63.4583079 109.579314 63.4583079 109.579314 25.3029962 122.778451 64.6632124 135.976789 25.3029962 135.976789 63.4583079 157.974684 63.4583079 157.974684 50.6059923 149.180725 50.6059923 149.180725 12.8523155 157.974684 12.8523155 157.974684 0"></polygon>
                    <path d="M57.1426351,25.4130155 L69.5267237,25.4130155 L69.5267237,12.8865255 L57.1426351,12.8865255 L57.1426351,25.4130155 Z M57.1426351,50.8700757 L69.5267237,50.8700757 L69.5267237,38.3435858 L57.1426351,38.3435858 L57.1426351,50.8700757 Z M84.3077327,16.9948102 C84.3077327,7.61125693 76.7877945,0.00484896386 67.5113131,0.00484896386 L35.1964321,0 L35.1964321,12.9305703 L43.9851401,12.9305703 L43.9851401,50.9141205 L35.1964321,50.9141205 L35.1964321,63.8446908 L67.5113131,63.8277194 C76.7877945,63.8277194 84.3077327,56.2209073 84.3077327,46.8377582 C84.3077327,40.3995464 80.7666823,34.798185 75.5473882,31.9162842 C80.7666823,29.0343833 84.3077327,23.4330219 84.3077327,16.9948102 Z" id="Fill-3"></path>
                </g>
            </g>
        </g>
    </g>
</svg>