<svg xmlns="http://www.w3.org/2000/svg" viewBox="0 0 608 342"><defs><style>.a{fill:#fff;}.b{isolation:isolate;}.c{fill:#171717;}.d{fill:#6f6f6f;}.e,.f{fill:none;}.e{stroke:#000;}.f{stroke:#0f62fe;}</style></defs><rect class="a" width="608" height="342"/><g class="b"><path class="c" d="M167.57,56.19a4.25,4.25,0,0,1-3.44-1.48,6.49,6.49,0,0,1-1.25-4.29,8.78,8.78,0,0,1,.32-2.48,4.92,4.92,0,0,1,.93-1.81A3.86,3.86,0,0,1,165.61,45a4.89,4.89,0,0,1,2-.38,4.45,4.45,0,0,1,2.44.63,4.27,4.27,0,0,1,1.54,1.88L170,48a2.79,2.79,0,0,0-.89-1.27,2.81,2.81,0,0,0-3.6.41,3.72,3.72,0,0,0-.74,2.44v1.71a3.7,3.7,0,0,0,.74,2.44,2.81,2.81,0,0,0,3.67.36,3,3,0,0,0,.93-1.33l1.46.88A4.51,4.51,0,0,1,170,55.51,4.31,4.31,0,0,1,167.57,56.19Z"/><path class="c" d="M173.39,44.16h1.75v4.9h.08a2.64,2.64,0,0,1,.82-1.12,2.32,2.32,0,0,1,1.51-.45,2.46,2.46,0,0,1,2,.84,3.57,3.57,0,0,1,.72,2.39V56h-1.75V50.93c0-1.29-.52-1.94-1.57-1.94a2.5,2.5,0,0,0-.66.09,2,2,0,0,0-.58.26,1.26,1.26,0,0,0-.41.45,1.28,1.28,0,0,0-.15.63V56h-1.75Z"/><path class="c" d="M188.77,56a1.4,1.4,0,0,1-1.06-.39,1.85,1.85,0,0,1-.45-1h-.08a2,2,0,0,1-.88,1.18,2.82,2.82,0,0,1-1.55.4,2.74,2.74,0,0,1-2-.67,2.42,2.42,0,0,1-.7-1.81,2.14,2.14,0,0,1,.91-1.87,4.61,4.61,0,0,1,2.65-.62h1.5v-.71a1.59,1.59,0,0,0-.42-1.18,1.74,1.74,0,0,0-1.29-.42,2.1,2.1,0,0,0-1.2.32,3.09,3.09,0,0,0-.79.82l-1-.95a3.42,3.42,0,0,1,1.17-1.16,3.81,3.81,0,0,1,2-.45,3.68,3.68,0,0,1,2.48.75,2.69,2.69,0,0,1,.86,2.16v4.18h.88V56Zm-3.52-1.14a2.33,2.33,0,0,0,1.34-.36,1.12,1.12,0,0,0,.53-1v-1.2h-1.47c-1.21,0-1.81.37-1.81,1.12v.28a.94.94,0,0,0,.38.84A1.66,1.66,0,0,0,185.25,54.86Z"/><path class="c" d="M191.46,56V47.68h1.74v1.6h.08a2.21,2.21,0,0,1,.74-1.12,2.3,2.3,0,0,1,1.55-.48H196v1.68h-.69a3,3,0,0,0-1.59.34,1.07,1.07,0,0,0-.55,1V56Z"/><path class="c" d="M200,56a1.64,1.64,0,0,1-1.84-1.81V49.1h-1.29V47.68h.7a.76.76,0,0,0,.6-.19,1,1,0,0,0,.17-.63V45.41h1.57v2.27h1.74V49.1h-1.74v5.48h1.61V56Z"/><path class="c" d="M211.54,46.43V56h-1.81V46.43H206.4v-1.6h8.46v1.6Z"/><path class="c" d="M217.38,46.19a1.08,1.08,0,0,1-.8-.25.93.93,0,0,1-.25-.66V45a.93.93,0,0,1,.25-.66,1.08,1.08,0,0,1,.8-.25,1,1,0,0,1,.78.25.92.92,0,0,1,.24.66v.27a.92.92,0,0,1-.24.66A1,1,0,0,1,217.38,46.19Zm-.88,1.49h1.74V56H216.5Z"/><path class="c" d="M223,56a1.87,1.87,0,0,1-1.38-.47,1.83,1.83,0,0,1-.46-1.34V49.1h-1.3V47.68h.71a.76.76,0,0,0,.6-.19,1,1,0,0,0,.17-.63V45.41h1.56v2.27h1.75V49.1h-1.75v5.48h1.62V56Z"/><path class="c" d="M228.35,56a1.73,1.73,0,0,1-1.33-.46,1.71,1.71,0,0,1-.44-1.27V44.16h1.74V54.58h1.15V56Z"/><path class="c" d="M234.4,56.19a4,4,0,0,1-1.6-.3,3.37,3.37,0,0,1-1.2-.87,3.84,3.84,0,0,1-.76-1.38,6.13,6.13,0,0,1,0-3.6,3.84,3.84,0,0,1,.76-1.38,3.5,3.5,0,0,1,1.2-.87,4,4,0,0,1,1.6-.3,3.73,3.73,0,0,1,1.61.32,3.19,3.19,0,0,1,1.16.89,3.7,3.7,0,0,1,.69,1.32,5.27,5.27,0,0,1,.23,1.61v.66h-5.71v.27a2.19,2.19,0,0,0,.57,1.56,2.1,2.1,0,0,0,1.62.62,2.39,2.39,0,0,0,1.3-.34,3,3,0,0,0,.9-.9l1,1a3.31,3.31,0,0,1-1.34,1.22A4.33,4.33,0,0,1,234.4,56.19Zm0-7.34a2.08,2.08,0,0,0-.83.16,1.81,1.81,0,0,0-.64.45,2,2,0,0,0-.4.68,2.5,2.5,0,0,0-.15.88v.12h3.87V51a2.32,2.32,0,0,0-.49-1.55A1.69,1.69,0,0,0,234.4,48.85Z"/></g><g class="b"><path class="d" d="M205.6,225.14a2.74,2.74,0,0,1-1.32-.29,2.47,2.47,0,0,1-.91-.85,3.85,3.85,0,0,1-.53-1.35,10,10,0,0,1,0-3.67,3.91,3.91,0,0,1,.53-1.36,2.47,2.47,0,0,1,.91-.85,3.15,3.15,0,0,1,2.64,0,2.47,2.47,0,0,1,.91.85,3.91,3.91,0,0,1,.53,1.36,10,10,0,0,1,0,3.67,3.85,3.85,0,0,1-.53,1.35,2.47,2.47,0,0,1-.91.85A2.74,2.74,0,0,1,205.6,225.14Zm0-.87a1.76,1.76,0,0,0,.86-.2,1.58,1.58,0,0,0,.59-.56,3.16,3.16,0,0,0,.33-.87,5.69,5.69,0,0,0,.1-1.14v-1.37a5.69,5.69,0,0,0-.1-1.14,3.11,3.11,0,0,0-.33-.88,1.67,1.67,0,0,0-.59-.56,2,2,0,0,0-1.72,0,1.67,1.67,0,0,0-.59.56,3.11,3.11,0,0,0-.33.88,5.69,5.69,0,0,0-.1,1.14v1.37a5.69,5.69,0,0,0,.1,1.14,3.16,3.16,0,0,0,.33.87,1.58,1.58,0,0,0,.59.56A1.76,1.76,0,0,0,205.6,224.27Zm0-2.75a.8.8,0,0,1-.58-.17.56.56,0,0,1-.16-.41v-.26a.56.56,0,0,1,.16-.41,1.07,1.07,0,0,1,1.16,0,.56.56,0,0,1,.16.41v.26a.56.56,0,0,1-.16.41A.8.8,0,0,1,205.6,221.52Z"/></g><g class="b"><path class="d" d="M198.44,195h-5.59v-1l2.8-2.52a6.56,6.56,0,0,0,1-1.14,2.14,2.14,0,0,0,.39-1.23v-.14a1.65,1.65,0,0,0-.39-1.17,1.56,1.56,0,0,0-1.18-.41,1.65,1.65,0,0,0-1.18.39,2.35,2.35,0,0,0-.62,1l-.9-.33a3.65,3.65,0,0,1,.33-.73,2.86,2.86,0,0,1,.53-.63,2.61,2.61,0,0,1,.79-.44,3.2,3.2,0,0,1,1.07-.17,3.15,3.15,0,0,1,1.11.18,2.31,2.31,0,0,1,.82.5,2.18,2.18,0,0,1,.5.77,2.58,2.58,0,0,1,.18,1,2.93,2.93,0,0,1-.14.9,3.73,3.73,0,0,1-.38.81,6.44,6.44,0,0,1-.59.75c-.23.24-.48.48-.76.72l-2.34,2h4.54Z"/><path class="d" d="M205.21,187.5h-3.74l-.24,3.2h.08a2.56,2.56,0,0,1,.7-.66,1.88,1.88,0,0,1,1.05-.25,2.8,2.8,0,0,1,1,.18,2.11,2.11,0,0,1,.8.51,2.26,2.26,0,0,1,.52.81,2.77,2.77,0,0,1,.2,1.08,3.1,3.1,0,0,1-.2,1.12,2.25,2.25,0,0,1-.56.88,2.77,2.77,0,0,1-.9.57,3.21,3.21,0,0,1-1.2.2,3.35,3.35,0,0,1-.94-.12,2.56,2.56,0,0,1-.73-.32,2.87,2.87,0,0,1-.56-.46,3.49,3.49,0,0,1-.43-.52l.75-.58c.11.17.23.32.34.46a2,2,0,0,0,.41.35,1.69,1.69,0,0,0,.51.23,2.26,2.26,0,0,0,.67.09,1.8,1.8,0,0,0,1.33-.47,1.75,1.75,0,0,0,.46-1.3v-.09a1.73,1.73,0,0,0-.47-1.3,1.82,1.82,0,0,0-1.34-.47,1.73,1.73,0,0,0-.93.21,2.85,2.85,0,0,0-.61.5l-.85-.12.3-4.61h4.56Z"/></g><g class="b"><path class="d" d="M196,150.5h-3.74l-.24,3.2h.08a2.56,2.56,0,0,1,.7-.66,1.88,1.88,0,0,1,1.05-.25,2.8,2.8,0,0,1,1,.18,2.11,2.11,0,0,1,.8.51,2.26,2.26,0,0,1,.52.81,2.77,2.77,0,0,1,.2,1.08,3.1,3.1,0,0,1-.2,1.12,2.25,2.25,0,0,1-.56.88,2.77,2.77,0,0,1-.9.57,3.21,3.21,0,0,1-1.2.2,3.35,3.35,0,0,1-.94-.12,2.56,2.56,0,0,1-.73-.32,2.87,2.87,0,0,1-.56-.46,3.49,3.49,0,0,1-.43-.52l.75-.58c.11.17.23.32.34.46a2,2,0,0,0,.41.35,1.69,1.69,0,0,0,.51.23,2.26,2.26,0,0,0,.67.09,1.8,1.8,0,0,0,1.33-.47,1.75,1.75,0,0,0,.46-1.3v-.09a1.73,1.73,0,0,0-.47-1.3,1.82,1.82,0,0,0-1.34-.47,1.73,1.73,0,0,0-.93.21,2.85,2.85,0,0,0-.61.5l-.85-.12.3-4.61H196Z"/><path class="d" d="M200.8,158.14a2.74,2.74,0,0,1-1.32-.29,2.47,2.47,0,0,1-.91-.85,3.85,3.85,0,0,1-.53-1.35,10,10,0,0,1,0-3.67,3.91,3.91,0,0,1,.53-1.36,2.47,2.47,0,0,1,.91-.85,3.15,3.15,0,0,1,2.64,0,2.47,2.47,0,0,1,.91.85,3.91,3.91,0,0,1,.53,1.36,10,10,0,0,1,0,3.67A3.85,3.85,0,0,1,203,157a2.47,2.47,0,0,1-.91.85A2.74,2.74,0,0,1,200.8,158.14Zm0-.87a1.76,1.76,0,0,0,.86-.2,1.58,1.58,0,0,0,.59-.56,3.16,3.16,0,0,0,.33-.87,5.69,5.69,0,0,0,.1-1.14v-1.37a5.69,5.69,0,0,0-.1-1.14,3.11,3.11,0,0,0-.33-.88,1.67,1.67,0,0,0-.59-.56,2,2,0,0,0-1.72,0,1.67,1.67,0,0,0-.59.56,3.11,3.11,0,0,0-.33.88,5.69,5.69,0,0,0-.1,1.14v1.37a5.69,5.69,0,0,0,.1,1.14,3.16,3.16,0,0,0,.33.87,1.58,1.58,0,0,0,.59.56A1.76,1.76,0,0,0,200.8,157.27Zm0-2.75a.8.8,0,0,1-.58-.17.56.56,0,0,1-.16-.41v-.26a.56.56,0,0,1,.16-.41,1.07,1.07,0,0,1,1.16,0,.56.56,0,0,1,.16.41v.26a.56.56,0,0,1-.16.41A.8.8,0,0,1,200.8,154.52Z"/></g><g class="b"><path class="d" d="M193.08,121l3.27-7.5h-3.67v1.56h-.9v-2.44h5.59v.89L194.16,121Z"/><path class="d" d="M204.21,113.5h-3.74l-.24,3.2h.08a2.56,2.56,0,0,1,.7-.66,1.88,1.88,0,0,1,1.05-.25,2.8,2.8,0,0,1,1,.18,2.11,2.11,0,0,1,.8.51,2.26,2.26,0,0,1,.52.81,2.77,2.77,0,0,1,.2,1.08,3.1,3.1,0,0,1-.2,1.12,2.25,2.25,0,0,1-.56.88,2.77,2.77,0,0,1-.9.57,3.21,3.21,0,0,1-1.2.2,3.35,3.35,0,0,1-.94-.12,2.56,2.56,0,0,1-.73-.32,2.87,2.87,0,0,1-.56-.46,3.49,3.49,0,0,1-.43-.52l.75-.58c.11.17.23.32.34.46a2,2,0,0,0,.41.35,1.69,1.69,0,0,0,.51.23,2.26,2.26,0,0,0,.67.09,1.8,1.8,0,0,0,1.33-.47,1.75,1.75,0,0,0,.46-1.3v-.09a1.73,1.73,0,0,0-.47-1.3,1.82,1.82,0,0,0-1.34-.47,1.73,1.73,0,0,0-.93.21,2.85,2.85,0,0,0-.61.5l-.85-.12.3-4.61h4.56Z"/></g><g class="b"><path class="d" d="M185,86v-.88h2.4V78.37h-.08l-2.12,2-.58-.64,2.22-2.08h1.57v7.5h2.21V86Z"/><path class="d" d="M194.8,86.14a2.74,2.74,0,0,1-1.32-.29,2.47,2.47,0,0,1-.91-.85,3.85,3.85,0,0,1-.53-1.35A10,10,0,0,1,192,80a3.91,3.91,0,0,1,.53-1.36,2.47,2.47,0,0,1,.91-.85,3.15,3.15,0,0,1,2.64,0,2.47,2.47,0,0,1,.91.85,3.91,3.91,0,0,1,.53,1.36,10,10,0,0,1,0,3.67A3.85,3.85,0,0,1,197,85a2.47,2.47,0,0,1-.91.85A2.74,2.74,0,0,1,194.8,86.14Zm0-.87a1.76,1.76,0,0,0,.86-.2,1.58,1.58,0,0,0,.59-.56,3.16,3.16,0,0,0,.33-.87,5.69,5.69,0,0,0,.1-1.14V81.13a5.69,5.69,0,0,0-.1-1.14,3.11,3.11,0,0,0-.33-.88,1.67,1.67,0,0,0-.59-.56,2,2,0,0,0-1.72,0,1.67,1.67,0,0,0-.59.56A3.11,3.11,0,0,0,193,80a5.69,5.69,0,0,0-.1,1.14V82.5a5.69,5.69,0,0,0,.1,1.14,3.16,3.16,0,0,0,.33.87,1.58,1.58,0,0,0,.59.56A1.76,1.76,0,0,0,194.8,85.27Zm0-2.75a.8.8,0,0,1-.58-.17.56.56,0,0,1-.16-.41v-.26a.56.56,0,0,1,.16-.41,1.07,1.07,0,0,1,1.16,0,.56.56,0,0,1,.16.41v.26a.56.56,0,0,1-.16.41A.8.8,0,0,1,194.8,82.52Z"/><path class="d" d="M202,86.14a2.74,2.74,0,0,1-1.32-.29,2.47,2.47,0,0,1-.91-.85,3.85,3.85,0,0,1-.53-1.35,10,10,0,0,1,0-3.67,3.91,3.91,0,0,1,.53-1.36,2.47,2.47,0,0,1,.91-.85,3.15,3.15,0,0,1,2.64,0,2.47,2.47,0,0,1,.91.85,3.91,3.91,0,0,1,.53,1.36,10,10,0,0,1,0,3.67,3.85,3.85,0,0,1-.53,1.35,2.47,2.47,0,0,1-.91.85A2.74,2.74,0,0,1,202,86.14Zm0-.87a1.76,1.76,0,0,0,.86-.2,1.58,1.58,0,0,0,.59-.56,3.16,3.16,0,0,0,.33-.87,5.69,5.69,0,0,0,.1-1.14V81.13a5.69,5.69,0,0,0-.1-1.14,3.11,3.11,0,0,0-.33-.88,1.67,1.67,0,0,0-.59-.56,2,2,0,0,0-1.72,0,1.67,1.67,0,0,0-.59.56,3.11,3.11,0,0,0-.33.88,5.69,5.69,0,0,0-.1,1.14V82.5a5.69,5.69,0,0,0,.1,1.14,3.16,3.16,0,0,0,.33.87,1.58,1.58,0,0,0,.59.56A1.76,1.76,0,0,0,202,85.27Zm0-2.75a.8.8,0,0,1-.58-.17.56.56,0,0,1-.16-.41v-.26a.56.56,0,0,1,.16-.41,1.07,1.07,0,0,1,1.16,0,.56.56,0,0,1,.16.41v.26a.56.56,0,0,1-.16.41A.8.8,0,0,1,202,82.52Z"/></g><g class="b"><path class="c" d="M164.39,171.13v-1.36l4.14-2.48-4.14-2.47v-1.37l5.14,3.26H173v1.16h-3.47Z"/><path class="c" d="M169.2,156.11a.56.56,0,0,0-.3-.48.92.92,0,0,0-.41-.07.86.86,0,0,0-.78.38,2,2,0,0,0-.25,1.1,1.39,1.39,0,0,0,.45,1.17,1.5,1.5,0,0,0,.74.25v1a1.82,1.82,0,0,1-1.62-.75,3,3,0,0,1-.46-1.68,3.41,3.41,0,0,1,.42-1.79,1.44,1.44,0,0,1,1.32-.69h3.61a.45.45,0,0,0,.27-.07.32.32,0,0,0,.1-.28c0-.05,0-.1,0-.16l0-.19H173a2.42,2.42,0,0,1,.09.38,3.44,3.44,0,0,1,0,.35.86.86,0,0,1-.38.79,1.37,1.37,0,0,1-.58.18,2.94,2.94,0,0,1,1,2.26,2,2,0,0,1-.53,1.43,1.92,1.92,0,0,1-2.68,0,2.66,2.66,0,0,1-.59-1.43Zm2.85,2.22a1.19,1.19,0,0,0,.26-.79,2.37,2.37,0,0,0-.25-1.07,1.45,1.45,0,0,0-1.4-.88h-.85a2.06,2.06,0,0,1,.21.49,4.79,4.79,0,0,1,.11.6l.09.64a2.41,2.41,0,0,0,.24.86.91.91,0,0,0,.87.49A.84.84,0,0,0,172.05,158.33Z"/><path class="c" d="M166.72,153.4V152l2.21-1.45-2.21-1.45,0-1.29,3,2.12,3.22-2.21v1.35l-2.36,1.56,2.36,1.51v1.33l-3.22-2.21Z"/><path class="c" d="M164.39,146.8v-1.07h1.2v1.07Zm2.36,0v-1.07H173v1.07Z"/><path class="c" d="M171,143.51a1.49,1.49,0,0,0,.81-.27,1.7,1.7,0,0,0,.51-1.41,2.1,2.1,0,0,0-.26-1.05.83.83,0,0,0-.78-.46.67.67,0,0,0-.62.37,5.19,5.19,0,0,0-.3.91l-.21.86a4.3,4.3,0,0,1-.44,1.2,1.34,1.34,0,0,1-1.19.69,1.81,1.81,0,0,1-1.44-.65,2.6,2.6,0,0,1-.55-1.75,2.44,2.44,0,0,1,.83-2.07,1.75,1.75,0,0,1,1.14-.39v1a1.15,1.15,0,0,0-.65.26,1.66,1.66,0,0,0-.41,1.28,1.52,1.52,0,0,0,.23.93.71.71,0,0,0,.6.32.73.73,0,0,0,.65-.42,2.59,2.59,0,0,0,.26-.7l.17-.71a5.5,5.5,0,0,1,.53-1.55,1.42,1.42,0,0,1,1.27-.62,2,2,0,0,1,1.45.64,2.76,2.76,0,0,1,.61,2,2.62,2.62,0,0,1-.64,2,2.29,2.29,0,0,1-1.57.63Z"/><path class="c" d="M166.72,134.8v-1h.9a2.85,2.85,0,0,1-.8-.94,2.51,2.51,0,0,1-.24-1.11,1.81,1.81,0,0,1,.94-1.8,3.16,3.16,0,0,1,1.45-.26h4v1.07h-4a2.16,2.16,0,0,0-.92.17,1,1,0,0,0-.59,1,2.12,2.12,0,0,0,.08.62,1.71,1.71,0,0,0,.51.76,1.63,1.63,0,0,0,.65.34,4.42,4.42,0,0,0,.94.08H173v1.05Z"/><path class="c" d="M169.2,124.77a.56.56,0,0,0-.3-.49.92.92,0,0,0-.41-.07.86.86,0,0,0-.78.38,2,2,0,0,0-.25,1.1,1.39,1.39,0,0,0,.45,1.17,1.5,1.5,0,0,0,.74.25v1a1.79,1.79,0,0,1-1.62-.75,3,3,0,0,1-.46-1.67,3.43,3.43,0,0,1,.42-1.8,1.44,1.44,0,0,1,1.32-.69h3.61a.54.54,0,0,0,.27-.06.36.36,0,0,0,.1-.29s0-.1,0-.16l0-.18H173a2.35,2.35,0,0,1,.09.37c0,.09,0,.21,0,.35a.85.85,0,0,1-.38.79,1.52,1.52,0,0,1-.58.19,2.68,2.68,0,0,1,.73.92,2.83,2.83,0,0,1,.31,1.33,2,2,0,0,1-.53,1.43,1.92,1.92,0,0,1-2.68,0,2.66,2.66,0,0,1-.59-1.43Zm2.85,2.22a1.23,1.23,0,0,0,.26-.79,2.44,2.44,0,0,0-.25-1.08,1.45,1.45,0,0,0-1.4-.88h-.85a2,2,0,0,1,.21.5,4.34,4.34,0,0,1,.11.59l.09.64a2.41,2.41,0,0,0,.24.86.91.91,0,0,0,.87.49A.86.86,0,0,0,172.05,127Z"/><path class="c" d="M166.72,121.46v-1h.9a3.33,3.33,0,0,1-.68-.68,2,2,0,0,1-.36-1.18,1.92,1.92,0,0,1,.37-1.21,2,2,0,0,1,.62-.47,2.29,2.29,0,0,1-.74-.82,2.34,2.34,0,0,1-.25-1.07,1.74,1.74,0,0,1,.92-1.72,2.9,2.9,0,0,1,1.32-.25H173v1.1h-4.36a1,1,0,0,0-.86.31,1.24,1.24,0,0,0-.24.77,1.52,1.52,0,0,0,.42,1.07,1.87,1.87,0,0,0,1.39.44H173v1.08h-4.1a2.18,2.18,0,0,0-.93.15.94.94,0,0,0-.44.9,1.54,1.54,0,0,0,.47,1.08,2.22,2.22,0,0,0,1.67.49H173v1.06Z"/><path class="c" d="M166.9,107.58a2.46,2.46,0,0,1,.81-1,2.78,2.78,0,0,1,1.11-.41,6.56,6.56,0,0,1,1.38-.1v4.57a2.73,2.73,0,0,0,1.54-.45,1.5,1.5,0,0,0,.57-1.3,1.7,1.7,0,0,0-.54-1.31,1.8,1.8,0,0,0-.74-.38v-1a2.3,2.3,0,0,1,.77.27,3,3,0,0,1,.7.52,2.46,2.46,0,0,1,.63,1.18,3.7,3.7,0,0,1,.09.85,2.62,2.62,0,0,1-.85,2,3.33,3.33,0,0,1-2.39.81,3.58,3.58,0,0,1-2.45-.82,2.67,2.67,0,0,1-.95-2.13A2.86,2.86,0,0,1,166.9,107.58Zm2.46-.37a2.73,2.73,0,0,0-1.09.29,1.53,1.53,0,0,0-.77,1.44,1.6,1.6,0,0,0,.53,1.21,2,2,0,0,0,1.33.51Z"/></g><g class="b"><path class="d" d="M228.26,294.14a3.17,3.17,0,0,1-1.57-.37,3.4,3.4,0,0,1-1.12-1l.7-.58a3,3,0,0,0,.86.87,2.1,2.1,0,0,0,1.13.31c1.14,0,1.71-.54,1.71-1.6a1.38,1.38,0,0,0-.32-1,2.09,2.09,0,0,0-1.08-.53l-.62-.16a3.32,3.32,0,0,1-1.63-.81,2.09,2.09,0,0,1-.52-1.5,2,2,0,0,1,.7-1.69,2.82,2.82,0,0,1,1.85-.57,3.13,3.13,0,0,1,1.47.32,3,3,0,0,1,1,1l-.7.51a2.45,2.45,0,0,0-.74-.76,2,2,0,0,0-1.1-.26,1.81,1.81,0,0,0-1.17.33,1.36,1.36,0,0,0-.4,1.1,1.22,1.22,0,0,0,.33.92,2.33,2.33,0,0,0,1.06.49l.62.16a4.65,4.65,0,0,1,1,.34,2.11,2.11,0,0,1,.67.49,1.75,1.75,0,0,1,.37.67,3.54,3.54,0,0,1,.11.91,2.29,2.29,0,0,1-.7,1.81A2.84,2.84,0,0,1,228.26,294.14Z"/><path class="d" d="M234.45,294.14a2.73,2.73,0,0,1-1-.18,2,2,0,0,1-.81-.57,3,3,0,0,1-.53-1,5.82,5.82,0,0,1,0-2.95,2.92,2.92,0,0,1,.53-1,2,2,0,0,1,.81-.58,2.73,2.73,0,0,1,1-.18,2.64,2.64,0,0,1,1,.18,1.9,1.9,0,0,1,.77.58,2.88,2.88,0,0,1,.48,1,5.27,5.27,0,0,1,.18,1.47v.23h-4v.4a1.93,1.93,0,0,0,.42,1.36,1.47,1.47,0,0,0,1.14.45,1.63,1.63,0,0,0,1.65-1.08l.62.46a2.56,2.56,0,0,1-.84,1A2.46,2.46,0,0,1,234.45,294.14Zm0-5.71a1.46,1.46,0,0,0-1.15.47,2,2,0,0,0-.41,1.38v.16h3v-.16C235.89,289.05,235.41,288.43,234.45,288.43Z"/><path class="d" d="M238.28,294v-6.19h.91V289h.12a1.74,1.74,0,0,1,.54-.85,1.54,1.54,0,0,1,1-.3h.33v.92h-.6a1.6,1.6,0,0,0-1,.29,1,1,0,0,0-.37.86V294Z"/><path class="d" d="M242.72,286.31c-.38,0-.56-.17-.56-.49v-.2c0-.32.18-.49.56-.49s.57.17.57.49v.2C243.29,286.14,243.1,286.31,242.72,286.31Zm-.45,1.5h.91V294h-.91Z"/><path class="d" d="M247.11,294.14a2.83,2.83,0,0,1-1-.18,2,2,0,0,1-.8-.57,3,3,0,0,1-.53-1,5.82,5.82,0,0,1,0-2.95,2.92,2.92,0,0,1,.53-1,2,2,0,0,1,.8-.58,2.83,2.83,0,0,1,1-.18,2.64,2.64,0,0,1,1,.18,1.8,1.8,0,0,1,.76.58,2.88,2.88,0,0,1,.49,1,5.3,5.3,0,0,1,.17,1.47v.23h-4v.4a1.93,1.93,0,0,0,.42,1.36,1.45,1.45,0,0,0,1.14.45,1.76,1.76,0,0,0,1-.27,1.81,1.81,0,0,0,.63-.81l.62.46a2.5,2.5,0,0,1-.85,1A2.41,2.41,0,0,1,247.11,294.14Zm0-5.71a1.46,1.46,0,0,0-1.15.47,2,2,0,0,0-.41,1.38v.16h3v-.16C248.55,289.05,248.07,288.43,247.11,288.43Z"/><path class="d" d="M252.66,294.14a2.6,2.6,0,0,1-1.32-.31,2.92,2.92,0,0,1-.93-.86l.64-.53a2.58,2.58,0,0,0,.7.7,1.65,1.65,0,0,0,.91.24,1.26,1.26,0,0,0,.85-.27.94.94,0,0,0,.32-.78,1.06,1.06,0,0,0-.2-.66,1.26,1.26,0,0,0-.76-.35l-.47-.08a2.7,2.7,0,0,1-1.33-.56,1.53,1.53,0,0,1-.44-1.2,2.14,2.14,0,0,1,.14-.81,1.49,1.49,0,0,1,.41-.57,1.71,1.71,0,0,1,.63-.32,2.87,2.87,0,0,1,.8-.1,2.6,2.6,0,0,1,1.17.24,2.43,2.43,0,0,1,.82.72l-.59.54a1.66,1.66,0,0,0-.54-.51,1.51,1.51,0,0,0-.86-.23c-.73,0-1.09.34-1.09,1a.85.85,0,0,0,.23.67,1.54,1.54,0,0,0,.76.3l.47.09a2.36,2.36,0,0,1,1.34.58,1.57,1.57,0,0,1,.4,1.14,1.87,1.87,0,0,1-.52,1.41A2.12,2.12,0,0,1,252.66,294.14Z"/><path class="d" d="M258.75,294v-6.19h.92v1h.11a1.48,1.48,0,0,1,1.59-1.16,1.61,1.61,0,0,1,1.3.57,2.62,2.62,0,0,1,.48,1.74v4h-.92v-4a1.84,1.84,0,0,0-.3-1.14,1.12,1.12,0,0,0-.95-.4,1.34,1.34,0,0,0-.93.34,1.17,1.17,0,0,0-.38.95V294Z"/><path class="d" d="M268.82,294a.79.79,0,0,1-.89-.9V293h-.12a1.49,1.49,0,0,1-.57.87,1.68,1.68,0,0,1-1,.29,1.79,1.79,0,0,1-1.34-.45,1.85,1.85,0,0,1-.45-1.35A1.72,1.72,0,0,1,265,291a2.64,2.64,0,0,1,1.79-.51h1.11v-.68a1.45,1.45,0,0,0-.3-1,1.28,1.28,0,0,0-1-.32,1.44,1.44,0,0,0-.87.23,2,2,0,0,0-.57.68l-.54-.51a2.12,2.12,0,0,1,.77-.84,2.23,2.23,0,0,1,1.25-.34,2.28,2.28,0,0,1,1.6.51,2,2,0,0,1,.54,1.5v3.51h.63v.8Zm-2.34-.66a1.58,1.58,0,0,0,.58-.11,1.32,1.32,0,0,0,.46-.28,1.14,1.14,0,0,0,.3-.39,1,1,0,0,0,.11-.46v-.93h-1.14a1.81,1.81,0,0,0-1.05.24.8.8,0,0,0-.33.69v.33a.83.83,0,0,0,.29.69A1.23,1.23,0,0,0,266.48,293.34Z"/><path class="d" d="M270.7,294v-6.19h.92v1h.12a1.76,1.76,0,0,1,.52-.87,1.54,1.54,0,0,1,1-.29,1.67,1.67,0,0,1,1,.29,1.64,1.64,0,0,1,.6.87H275a1.66,1.66,0,0,1,.6-.87,1.84,1.84,0,0,1,1.08-.29,1.57,1.57,0,0,1,1.27.57,2.62,2.62,0,0,1,.48,1.74v4h-.91v-4a1.92,1.92,0,0,0-.29-1.14,1.05,1.05,0,0,0-.91-.4,1.25,1.25,0,0,0-.9.34,1.2,1.2,0,0,0-.37.95V294h-.91v-4a1.84,1.84,0,0,0-.3-1.14,1,1,0,0,0-.9-.4,1.29,1.29,0,0,0-.91.34,1.23,1.23,0,0,0-.36.95V294Z"/><path class="d" d="M282.26,294.14a2.79,2.79,0,0,1-1-.18,2,2,0,0,1-.8-.57,2.84,2.84,0,0,1-.53-1,5.82,5.82,0,0,1,0-2.95,2.76,2.76,0,0,1,.53-1,2,2,0,0,1,.8-.58,2.79,2.79,0,0,1,1-.18,2.64,2.64,0,0,1,1,.18,1.87,1.87,0,0,1,.76.58,2.88,2.88,0,0,1,.49,1,5.71,5.71,0,0,1,.17,1.47v.23h-4v.4a2,2,0,0,0,.41,1.36,1.49,1.49,0,0,0,1.15.45,1.76,1.76,0,0,0,1-.27,1.79,1.79,0,0,0,.62-.81l.63.46a2.58,2.58,0,0,1-.85,1A2.41,2.41,0,0,1,282.26,294.14Zm0-5.71a1.44,1.44,0,0,0-1.15.47,2,2,0,0,0-.41,1.38v.16h3v-.16C283.7,289.05,283.22,288.43,282.26,288.43Z"/></g><g class="b"><path class="d" d="M218.77,241l-.71-2.39h-2.94l-.7,2.39h-1l2.57-8.38h1.33l2.57,8.38Zm-2.12-7.31h-.11l-1.18,4.05h2.46Z"/></g><g class="b"><path class="d" d="M252.06,232.62h2.84a2.35,2.35,0,0,1,1.69.59,2.07,2.07,0,0,1,.61,1.57,1.8,1.8,0,0,1-.36,1.19,2,2,0,0,1-.94.61v0a2.31,2.31,0,0,1,1.16.63,1.84,1.84,0,0,1,.46,1.34,2.75,2.75,0,0,1-.17.95,2.14,2.14,0,0,1-.48.76,2.05,2.05,0,0,1-.72.51,2,2,0,0,1-.89.19h-3.2Zm2.73,3.64a1.57,1.57,0,0,0,1-.28,1,1,0,0,0,.36-.86v-.47a1,1,0,0,0-.36-.86,1.57,1.57,0,0,0-1-.29h-1.73v2.76Zm.17,3.86a1.7,1.7,0,0,0,1.09-.31,1.14,1.14,0,0,0,.4-1v-.49a1.13,1.13,0,0,0-.4-1,1.65,1.65,0,0,0-1.09-.32h-1.9v3Z"/></g><g class="b"><path class="d" d="M292.88,241.14a2.57,2.57,0,0,1-2.29-1.11,5.79,5.79,0,0,1-.75-3.22,5.73,5.73,0,0,1,.75-3.21,2.56,2.56,0,0,1,2.29-1.12,2.71,2.71,0,0,1,1,.16,2.14,2.14,0,0,1,.72.42,2.61,2.61,0,0,1,.51.59c.13.22.25.44.36.67l-.87.39a3.11,3.11,0,0,0-.25-.52,2.08,2.08,0,0,0-.34-.43,1.51,1.51,0,0,0-.47-.3,1.81,1.81,0,0,0-.65-.1,1.66,1.66,0,0,0-1.49.75,3.75,3.75,0,0,0-.48,2v1.37a3.69,3.69,0,0,0,.48,2,1.64,1.64,0,0,0,1.49.76,1.8,1.8,0,0,0,.65-.11,1.49,1.49,0,0,0,.47-.29,2.15,2.15,0,0,0,.34-.44,2.78,2.78,0,0,0,.25-.52l.87.4c-.11.23-.23.45-.36.67a2.85,2.85,0,0,1-.51.59,2.53,2.53,0,0,1-.72.42A3,3,0,0,1,292.88,241.14Z"/></g><g class="b"><path class="d" d="M329.14,232.62h2.34a2.64,2.64,0,0,1,2.29,1.06,6.83,6.83,0,0,1,0,6.26,2.62,2.62,0,0,1-2.29,1.06h-2.34Zm2.29,7.5a1.77,1.77,0,0,0,1.52-.69,3.3,3.3,0,0,0,.51-2v-1.3a3.27,3.27,0,0,0-.51-2,1.76,1.76,0,0,0-1.52-.7h-1.28v6.62Z"/></g><g class="b"><path class="d" d="M367.08,241v-8.38h5.16v.88h-4.15v2.82h4v.88h-4v2.92h4.15V241Z"/></g><g class="b"><path class="d" d="M405.08,241v-8.38h5.28v.88h-4.27v2.82H410v.88h-3.91V241Z"/></g><g class="b"><path class="d" d="M448.33,239.88h-.06a4.23,4.23,0,0,1-.25.47,1.56,1.56,0,0,1-.37.4,2.07,2.07,0,0,1-.53.29,2.39,2.39,0,0,1-.75.1,2.2,2.2,0,0,1-2-1.1,6.13,6.13,0,0,1-.67-3.17,6,6,0,0,1,.73-3.27,2.5,2.5,0,0,1,2.26-1.12,2.88,2.88,0,0,1,1,.16,2.23,2.23,0,0,1,.74.42,2.61,2.61,0,0,1,.51.59,3.78,3.78,0,0,1,.33.67l-.86.39a3.11,3.11,0,0,0-.25-.52,1.76,1.76,0,0,0-.33-.43,1.45,1.45,0,0,0-.48-.3,1.79,1.79,0,0,0-.64-.1,1.64,1.64,0,0,0-1.49.75,3.85,3.85,0,0,0-.47,2v1.29a5.9,5.9,0,0,0,.1,1.16,3,3,0,0,0,.31.91,1.64,1.64,0,0,0,.58.59,1.7,1.7,0,0,0,.87.21,1.64,1.64,0,0,0,1.27-.49,1.77,1.77,0,0,0,.46-1.27v-.87h-1.77v-.8h2.7V241h-.93Z"/></g><g class="b"><path class="c" d="M298.64,263h-1.4l3-4.42-2.85-4.19h1.45l2.17,3.3,2.16-3.3h1.38l-2.85,4.19,3,4.42h-1.44L301,259.46Z"/><path class="c" d="M312.47,259.2a.56.56,0,0,0,.49-.3.92.92,0,0,0,.07-.41.86.86,0,0,0-.38-.78,2,2,0,0,0-1.1-.25,1.39,1.39,0,0,0-1.17.45,1.5,1.5,0,0,0-.25.74h-1a1.82,1.82,0,0,1,.75-1.62,3,3,0,0,1,1.68-.46,3.41,3.41,0,0,1,1.79.42,1.44,1.44,0,0,1,.69,1.32v3.61a.54.54,0,0,0,.06.27.36.36,0,0,0,.29.1h.16l.18,0V263a2.35,2.35,0,0,1-.37.09H314a.85.85,0,0,1-.79-.38,1.52,1.52,0,0,1-.19-.58,2.68,2.68,0,0,1-.92.73,2.83,2.83,0,0,1-1.33.31,2,2,0,0,1-1.43-.53,1.92,1.92,0,0,1,0-2.68,2.66,2.66,0,0,1,1.43-.59Zm-2.22,2.85a1.23,1.23,0,0,0,.79.26,2.38,2.38,0,0,0,1.08-.25,1.45,1.45,0,0,0,.88-1.4v-.85a2,2,0,0,1-.5.21,4.34,4.34,0,0,1-.59.11l-.64.09a2.41,2.41,0,0,0-.86.24.91.91,0,0,0-.49.87A.86.86,0,0,0,310.25,262.05Z"/><path class="c" d="M315.19,256.72h1.36l1.44,2.21,1.46-2.21,1.29,0-2.12,3,2.21,3.22h-1.35l-1.56-2.36L316.41,263h-1.33l2.21-3.22Z"/><path class="c" d="M321.79,254.39h1.07v1.2h-1.07Zm0,2.36h1.07V263h-1.07Z"/><path class="c" d="M325.08,261a1.49,1.49,0,0,0,.27.81,1.7,1.7,0,0,0,1.41.51,2.1,2.1,0,0,0,1.05-.26.85.85,0,0,0,.46-.78.69.69,0,0,0-.37-.62,5.19,5.19,0,0,0-.91-.3l-.86-.21a4.3,4.3,0,0,1-1.2-.44,1.34,1.34,0,0,1-.69-1.19,1.81,1.81,0,0,1,.65-1.44,2.6,2.6,0,0,1,1.75-.55,2.44,2.44,0,0,1,2.07.83,1.75,1.75,0,0,1,.39,1.14h-1a1.15,1.15,0,0,0-.26-.65,1.67,1.67,0,0,0-1.29-.41,1.51,1.51,0,0,0-.92.23.71.71,0,0,0-.32.6.73.73,0,0,0,.42.65,2.46,2.46,0,0,0,.7.26l.71.17a5.5,5.5,0,0,1,1.55.53,1.42,1.42,0,0,1,.62,1.27,2,2,0,0,1-.64,1.45,2.77,2.77,0,0,1-2,.61,2.61,2.61,0,0,1-2-.64,2.35,2.35,0,0,1-.64-1.57Z"/><path class="c" d="M333.79,256.72h1v.9a2.76,2.76,0,0,1,.94-.8,2.51,2.51,0,0,1,1.11-.24,1.81,1.81,0,0,1,1.8.94,3.3,3.3,0,0,1,.26,1.45v4h-1.07v-4a2.16,2.16,0,0,0-.17-.92,1,1,0,0,0-1-.59,2.12,2.12,0,0,0-.62.08,1.66,1.66,0,0,0-.76.51,1.63,1.63,0,0,0-.34.65,4.42,4.42,0,0,0-.08.94V263h-1Z"/><path class="c" d="M343.82,259.2a.58.58,0,0,0,.49-.3.92.92,0,0,0,.07-.41.86.86,0,0,0-.38-.78,2,2,0,0,0-1.1-.25,1.39,1.39,0,0,0-1.17.45,1.5,1.5,0,0,0-.25.74h-1a1.8,1.8,0,0,1,.76-1.62,3,3,0,0,1,1.67-.46,3.43,3.43,0,0,1,1.8.42,1.44,1.44,0,0,1,.68,1.32v3.61a.54.54,0,0,0,.07.27.36.36,0,0,0,.29.1h.15l.19,0V263a2.35,2.35,0,0,1-.37.09h-.35a.87.87,0,0,1-.8-.38,1.73,1.73,0,0,1-.18-.58,2.68,2.68,0,0,1-.92.73,2.86,2.86,0,0,1-1.33.31,2,2,0,0,1-1.43-.53,1.92,1.92,0,0,1,0-2.68,2.63,2.63,0,0,1,1.43-.59Zm-2.22,2.85a1.21,1.21,0,0,0,.79.26,2.44,2.44,0,0,0,1.08-.25,1.45,1.45,0,0,0,.88-1.4v-.85a2.15,2.15,0,0,1-.5.21,4.34,4.34,0,0,1-.59.11l-.64.09a2.41,2.41,0,0,0-.86.24.91.91,0,0,0-.49.87A.86.86,0,0,0,341.6,262.05Z"/><path class="c" d="M347.13,256.72h1.05v.9a3.33,3.33,0,0,1,.68-.68,2,2,0,0,1,1.18-.36,1.92,1.92,0,0,1,1.21.37,2,2,0,0,1,.46.62,2.32,2.32,0,0,1,.83-.74,2.34,2.34,0,0,1,1.07-.25,1.74,1.74,0,0,1,1.72.92,3,3,0,0,1,.25,1.32V263h-1.1v-4.36a1,1,0,0,0-.31-.86,1.24,1.24,0,0,0-.77-.24,1.52,1.52,0,0,0-1.07.42,1.83,1.83,0,0,0-.45,1.39V263h-1.07v-4.1a2.18,2.18,0,0,0-.15-.93.94.94,0,0,0-.9-.44,1.54,1.54,0,0,0-1.08.47,2.22,2.22,0,0,0-.49,1.67V263h-1.06Z"/><path class="c" d="M361,256.9a2.32,2.32,0,0,1,.95.81,2.79,2.79,0,0,1,.42,1.11,6.56,6.56,0,0,1,.1,1.38H357.9a2.73,2.73,0,0,0,.45,1.54,1.5,1.5,0,0,0,1.3.57,1.7,1.7,0,0,0,1.31-.54,1.8,1.8,0,0,0,.38-.74h1a2.3,2.3,0,0,1-.27.77,3,3,0,0,1-.52.7,2.46,2.46,0,0,1-1.18.63,3.72,3.72,0,0,1-.86.09,2.61,2.61,0,0,1-2-.85,3.33,3.33,0,0,1-.81-2.39,3.58,3.58,0,0,1,.82-2.45,2.67,2.67,0,0,1,2.13-.95A2.79,2.79,0,0,1,361,256.9Zm.38,2.46a2.73,2.73,0,0,0-.29-1.09,1.53,1.53,0,0,0-1.44-.77,1.6,1.6,0,0,0-1.21.53,2,2,0,0,0-.51,1.33Z"/></g><path class="e" d="M222.5,292.9a.75.75,0,0,1-.7.7h-6.6a.68.68,0,0,1-.7-.7v-6.5a.75.75,0,0,1,.7-.7h6.6a.68.68,0,0,1,.7.7Z"/><line class="f" x1="253.4" y1="75.6" x2="253.4" y2="224"/><line class="f" x1="291.7" y1="75.6" x2="291.7" y2="224"/><line class="f" x1="330.2" y1="75.6" x2="330.2" y2="224"/><line class="f" x1="368.7" y1="75.6" x2="368.7" y2="224"/><line class="f" x1="407" y1="75.6" x2="407" y2="224"/><line class="f" x1="445.4" y1="75.6" x2="445.4" y2="224"/><line class="f" x1="215" y1="75.6" x2="215" y2="224"/><line class="f" x1="215" y1="75.9" x2="445.4" y2="75.9"/><line class="f" x1="215" y1="112.9" x2="445.4" y2="112.9"/><line class="f" x1="215" y1="149.8" x2="445.4" y2="149.8"/><line class="f" x1="215" y1="186.7" x2="445.4" y2="186.7"/><line class="f" x1="215" y1="223.6" x2="445.4" y2="223.6"/></svg>