<svg xmlns="http://www.w3.org/2000/svg" xmlns:xlink="http://www.w3.org/1999/xlink" viewBox="0 0 288 288"><defs><style>.cls-1{fill:none;}.cls-2{fill:#d5d9e0;}.cls-3{fill:#343a3f;}.cls-4{fill:url(#linear-gradient);}.cls-5{fill:#fff;}.cls-6{clip-path:url(#clip-path);}.cls-7{fill:#4d5358;}.cls-8{fill:#f2f4f8;}.cls-9{opacity:0.5;fill:url(#linear-gradient-2);}.cls-10{fill:#838e93;}.cls-11{fill:#50565b;}.cls-12{fill:#006478;}.cls-13{fill:#fff0b4;}.cls-14{clip-path:url(#clip-path-2);}.cls-15{clip-path:url(#clip-path-3);}.cls-16{clip-path:url(#clip-path-4);}</style><linearGradient id="linear-gradient" x1="6835.8" y1="605.48" x2="6851.93" y2="585.06" gradientTransform="translate(4108.89 -5613.24) rotate(119.61)" gradientUnits="userSpaceOnUse"><stop offset="0" stop-color="#373d42"/><stop offset="1" stop-color="#13171a"/></linearGradient><clipPath id="clip-path"><rect class="cls-1" width="288" height="288"/></clipPath><linearGradient id="linear-gradient-2" x1="204.81" y1="2.38" x2="226.83" y2="2.38" gradientUnits="userSpaceOnUse"><stop offset="0.3" stop-color="#171717"/><stop offset="0.72" stop-color="#171717" stop-opacity="0.92"/><stop offset="0.87" stop-color="#171717" stop-opacity="0.62"/><stop offset="0.98" stop-color="#171717" stop-opacity="0.11"/><stop offset="1" stop-color="#171717" stop-opacity="0"/></linearGradient><clipPath id="clip-path-2"><path id="SVGID" class="cls-2" d="M216.08,51.64l9.37-5.58v0a.93.93,0,0,0,.54-.76l-.4-.39-.43.39-9.09,5.33a2.83,2.83,0,0,1-2.58,0l-19.3-11c-.35-.2-.59-.25-.59-.52l.06.79a.93.93,0,0,0,.54.74L213.79,52h1a2.73,2.73,0,0,0,1.29-.31"/></clipPath><clipPath id="clip-path-3"><path id="SVGID-2" data-name="SVGID" class="cls-3" d="M215.4,51.64l9.37-5.58v0a.93.93,0,0,0,.54-.76l.09-.83c0,.27-.11.36-.47.57h0l-9.54,5.59a2.83,2.83,0,0,1-2.58,0l-19.3-11c-.35-.2-.59-.25-.59-.52l.06.79a.93.93,0,0,0,.54.74l19.3,11a2.86,2.86,0,0,0,2.58,0"/></clipPath><clipPath id="clip-path-4"><path id="SVGID-3" data-name="SVGID" class="cls-4" d="M223.34,44.23a.13.13,0,0,0,0-.25l-17.9-10.24a.47.47,0,0,0-.43,0l-9.54,5.6c-.12.07-.12.18,0,.25l17.91,10.24a.5.5,0,0,0,.43,0Z"/></clipPath></defs><g id="Layer_3" data-name="Layer 3"><rect class="cls-5" width="288" height="288"/><g class="cls-6"><polygon class="cls-2" points="157 251.92 193 251.92 301 189.57 301 148 157 251.92"/><polygon class="cls-7" points="157 251.92 157 211.85 0 128.34 0 161.28 157 251.92"/><polygon class="cls-3" points="157 211.85 157 251.92 301 168.78 301 148 157 211.85"/><polygon class="cls-8" points="157 231.14 301 148 301 0 0 0 0 140.5 157 231.14"/><path class="cls-2" d="M166,12.9C154.89,36.11,63,66.71,51.25,92.14h80.13l3,1.6-17.37,18.69s6,.66,10.5-1.92S144.16,103,144.16,103H152l7.36,3.87-17.59,18.92s6,.66,10.51-1.92,16.61-7.5,16.61-7.5h8.51l26,13.65L193,174h63l45-26V90.84Z"/><path class="cls-3" d="M171.34,79.46l4.1-15-16.73-9.67L149.9,101l.25.21-7.73,10.51c-2.22,2.27-7.15,5.55-7.7,8.68l-.09.46c.9,3.36,3.55,4.59,6.18,4.92a12.2,12.2,0,0,0,9.29-2.9l12.52-10.48a5.38,5.38,0,0,0,2.72-4.7l-.57-4.79.09,0C165.6,100.62,171.34,79.46,171.34,79.46Z"/><path class="cls-3" d="M140.34,94.26l-.57-4.79.09,0c.74-2.24,6.48-23.4,6.48-23.4l4.1-15-16.73-9.67-8.82,46.17.26.22-7.74,10.5c-2.21,2.27-7.14,5.55-7.7,8.68l-.08.46c.9,3.36,3.54,4.59,6.18,4.92a12.18,12.18,0,0,0,9.28-2.9L137.61,99A5.39,5.39,0,0,0,140.34,94.26Z"/><path class="cls-3" d="M232.23-26.12l-8.34,65.67a.14.14,0,0,0,.2.15l8.82-4.41a.13.13,0,0,0,.08-.11l8.22-64.94C241.91-35.23,232.94-31.59,232.23-26.12Z"/><path class="cls-7" d="M190.29,4.26,228.52,39l3-19.91,0-.19h0l6.16-47.49C239.79-35.82,190.29,4.26,190.29,4.26Z"/><polygon class="cls-2" points="176 -1.29 215.46 26.5 216.39 -5.49 176 -1.29"/><path class="cls-2" d="M226.83-22.95C224.14-13.67,215,8.52,212.1,12.5a25.57,25.57,0,0,1-5.72,3.62c-.37.17-1.2,0-1.57.2L219,27.7S214.7,18,217.29,8C220.44-4,226.48-20.29,226.83-22.95Z"/><path class="cls-9" d="M226.83-22.95C224.14-13.67,215,8.52,212.1,12.5a25.57,25.57,0,0,1-5.72,3.62c-.37.17-1.2,0-1.57.2L219,27.7S214.7,18,217.29,8C220.44-4,226.48-20.29,226.83-22.95Z"/><polygon class="cls-7" points="49 7.7 49 7.7 49 7.7 49 90.84 51.25 92.14 51.25 92.14 51.25 92.14 121.02 51.86 190.75 92.14 190.75 172.68 193 173.98 265 132.41 265.01 49.27 49 7.7"/><polygon class="cls-5" points="49 7.7 193 90.84 265.01 49.27 121 -33.86 49 7.7"/><polyline class="cls-2" points="195.19 83.39 200.72 83.39 226.65 68.12 215.67 61.78"/><polygon class="cls-3" points="156.34 41.34 109.23 12.81 145.14 -3.5 194.62 22.48 156.34 41.34"/><path class="cls-10" d="M181.41,26.48l0,0s0,0,0,0Z"/><path class="cls-8" d="M202.75-5.2c-1,1.2-2.22,8.84-2.22,8.84-.51,2-25.14,11.94-25.14,11.94-5.39-.42-9.35-3.4-14.75-3.64a26.41,26.41,0,0,0-2.72,2.44c-.69.69-1.34,1.41-2,2.14A10.67,10.67,0,0,1,154.85,18a24.22,24.22,0,0,0-1.49,2.6c-.15.27-.35.45-.32.32l-.67.68c-.38.34-.85.7-1.28,1.09l.36,1a2.47,2.47,0,0,0,1,.15.86.86,0,0,0,.23-.05l0,.05c1,1.61,1.91,1.39,3.44.5a23,23,0,0,1,2.36-.9c-.25.07.9-.31,1.84-.57l-.23.19c-1,.78-1.83,1.71-2.72,2.56L156.15,27a2.84,2.84,0,0,1-.3.45A6.17,6.17,0,0,0,157,28a3.2,3.2,0,0,0,2.5-.31,10.39,10.39,0,0,1,2-1.55s.86-.52,1.66-.9c.6-.31,1.21-.6,1.77-.88,2.16.19,4.31,1,6.46,1.34l.16,0c1.48.24,7.82-1.15,9.29-1.63h0c5.51-1.36,21.23-5.92,24.91-7.64l1.1-.52c1.81-.87,3.79-1.49,5.08-3.14a38.9,38.9,0,0,0,2.95-4.51c.68-1.33,1.45-2.62,2-4,0-.07,1.55-4.2,1.58-4.27Z"/><polygon class="cls-11" points="194.62 22.48 194.62 23.6 156.75 42.3 156.37 41.16 194.62 22.48"/><polygon class="cls-12" points="193.46 81.91 218.32 67.46 200.31 57.06 175.44 71.51 193.46 81.91"/><polygon class="cls-13" points="193.47 78.4 218.34 63.95 200.32 53.54 175.45 68 193.47 78.4"/><polygon class="cls-12" points="194.6 82.57 219.47 68.12 218.32 67.46 193.46 81.91 194.6 82.57"/><path class="cls-12" d="M194.6,83.2l24.87-14.45a3.23,3.23,0,0,1-1.14-1.29L193.45,81.91a3.11,3.11,0,0,0,1.15,1.29"/><path class="cls-13" d="M218.9,64.58,194,79a1.37,1.37,0,0,0-.45,1.2,2.89,2.89,0,0,0,1,2.34l24.87-14.45a2.89,2.89,0,0,1-1-2.34,1.37,1.37,0,0,1,.45-1.2"/><polygon class="cls-13" points="194.61 79.06 219.48 64.61 218.34 63.95 193.47 78.4 194.61 79.06"/><path class="cls-11" d="M218.41,63.91,193.53,78.36a1,1,0,0,1,1.08.08L219.48,64a1,1,0,0,0-1.07-.08"/><path class="cls-12" d="M218.41,63.91,193.53,78.36l-.06,0L218.34,64l.07,0"/><path class="cls-11" d="M218.41,63.91,194,78.09,175.45,67.38l24.87-14.45L219.49,64a1,1,0,0,0-1.08-.08"/><path class="cls-3" d="M175.44,71.51v.63L194.6,83.2a3.11,3.11,0,0,1-1.15-1.29Z"/><path class="cls-12" d="M195.17,82.6,220,68.15a.54.54,0,0,1-.57,0L194.6,82.57a.52.52,0,0,0,.57,0"/><path class="cls-13" d="M218.9,64.58,194,79a.56.56,0,0,1,.58,0l24.87-14.45a.53.53,0,0,0-.58,0"/><path class="cls-8" d="M175.45,68c.28.16.43,1.12.42,2s-.15,1.67-.43,1.51l18,10.4,1.15.66a2.89,2.89,0,0,1-1-2.34c0-1,.46-1.5,1-1.17l-1.14-.66Z"/><path class="cls-3" d="M175.45,67.37V68l18,10.4a1,1,0,0,1,1.14,0Z"/><path class="cls-5" d="M194.61,79.06c-.57-.33-1,.19-1,1.17a2.89,2.89,0,0,0,1,2.34c.56.33,1-.19,1-1.16a3,3,0,0,0-1-2.35"/><path class="cls-13" d="M195.17,82.6,220,68.15A1.36,1.36,0,0,0,220.5,67a2.93,2.93,0,0,0-1-2.35L194.61,79.06a3,3,0,0,1,1,2.35,1.36,1.36,0,0,1-.46,1.19"/><path class="cls-3" d="M194.61,78.44a1,1,0,0,0-1.14,0l1.14.66a3,3,0,0,1,1,2.35c0,1-.47,1.49-1,1.16l-1.15-.66a3.11,3.11,0,0,0,1.15,1.29c.93.54,1.68-.1,1.69-1.41a4.17,4.17,0,0,0-1.68-3.35"/><path class="cls-3" d="M194.61,78.44,219.48,64a4.17,4.17,0,0,1,1.68,3.35,1.65,1.65,0,0,1-.63,1.49L195.67,83.28a1.69,1.69,0,0,0,.62-1.49,4.17,4.17,0,0,0-1.68-3.35"/><ellipse class="cls-2" cx="224.7" cy="45.31" rx="1.29" ry="0.74"/><path id="SVGID-4" data-name="SVGID" class="cls-2" d="M216.08,51.64l9.37-5.58v0a.93.93,0,0,0,.54-.76l-.4-.39-.43.39-9.09,5.33a2.83,2.83,0,0,1-2.58,0l-19.3-11c-.35-.2-.59-.25-.59-.52l.06.79a.93.93,0,0,0,.54.74L213.79,52h1a2.73,2.73,0,0,0,1.29-.31"/><g class="cls-14"><rect class="cls-2" x="201.97" y="26.05" width="15.77" height="32.74" transform="translate(54.77 190.03) rotate(-55.01)"/></g><path id="SVGID-5" data-name="SVGID" class="cls-3" d="M215.4,51.64l9.37-5.58v0a.93.93,0,0,0,.54-.76l.09-.83c0,.27-.11.36-.47.57h0l-9.54,5.59a2.83,2.83,0,0,1-2.58,0l-19.3-11c-.35-.2-.59-.25-.59-.52l.06.79a.93.93,0,0,0,.54.74l19.3,11a2.86,2.86,0,0,0,2.58,0"/><g class="cls-15"><rect class="cls-3" x="201.29" y="26.05" width="15.77" height="32.74" transform="translate(54.48 189.47) rotate(-55.01)"/></g><path class="cls-8" d="M224.87,45.28a.79.79,0,0,0,0-1.5l-19.3-11a2.83,2.83,0,0,0-2.58,0l-9.54,5.59a.79.79,0,0,0,0,1.49l19.3,11a2.83,2.83,0,0,0,2.58,0Z"/><path id="SVGID-6" data-name="SVGID" class="cls-4" d="M223.34,44.23a.13.13,0,0,0,0-.25l-17.9-10.24a.47.47,0,0,0-.43,0l-9.54,5.6c-.12.07-.12.18,0,.25l17.91,10.24a.5.5,0,0,0,.43,0Z"/><g class="cls-16"><rect class="cls-3" x="204.37" y="28.39" width="10.06" height="26.79" transform="translate(69.61 203.19) rotate(-60.39)"/></g><polygon class="cls-11" points="143.94 1.49 157.63 40.72 156.75 42.3 142.75 2.42 143.94 1.49"/><polygon class="cls-3" points="109.64 13.79 156.75 42.3 142.75 2.42 95.03 -25.13 109.64 13.79"/><polyline class="cls-2" points="156.75 42.3 184.48 42.3 185.31 41.82 171.7 34.92"/><polygon class="cls-2" points="194.62 22.95 194.62 23.6 156.75 42.3 157.88 42.3 195.75 23.6 194.62 22.95"/></g></g></svg>