<svg xmlns="http://www.w3.org/2000/svg" xmlns:xlink="http://www.w3.org/1999/xlink" viewBox="0 0 448 448"><defs><style>.cls-1,.cls-14,.cls-3,.cls-4,.cls-9{fill:none;}.cls-2{clip-path:url(#clip-path);}.cls-3{stroke:#f4f4f4;}.cls-3,.cls-4{stroke-miterlimit:10;stroke-width:1.556px;}.cls-4{stroke:#e0e0e0;}.cls-5{fill:#697077;}.cls-6{fill:url(#linear-gradient);}.cls-7{fill:url(#linear-gradient-2);}.cls-8{fill:#343a3f;}.cls-9{stroke:#697077;}.cls-14,.cls-9{stroke-linecap:round;stroke-linejoin:round;stroke-width:6px;}.cls-10{fill:#121619;}.cls-11{fill:#dde1e6;}.cls-12{fill:url(#linear-gradient-3);}.cls-13{fill:url(#radial-gradient);}.cls-14{stroke:#fff;}.cls-15{fill:url(#linear-gradient-4);}.cls-16{fill:url(#linear-gradient-5);}</style><clipPath id="clip-path"><rect class="cls-1" width="448" height="448"/></clipPath><linearGradient id="linear-gradient" x1="60.8" y1="191.44" x2="387.197" y2="191.44" gradientUnits="userSpaceOnUse"><stop offset="0.564" stop-color="#fff"/><stop offset="0.766" stop-color="#dde1e6"/></linearGradient><linearGradient id="linear-gradient-2" x1="279.294" y1="277.642" x2="367.04" y2="429.622" gradientUnits="userSpaceOnUse"><stop offset="0" stop-color="#343a3f"/><stop offset="1" stop-color="#697077"/></linearGradient><linearGradient id="linear-gradient-3" x1="60.805" y1="303.437" x2="387.197" y2="303.437" gradientUnits="userSpaceOnUse"><stop offset="0.114" stop-color="#dde1e6"/><stop offset="0.395" stop-color="#a2a9b0"/></linearGradient><radialGradient id="radial-gradient" cx="90.748" cy="278.761" r="137.727" gradientUnits="userSpaceOnUse"><stop offset="0.39" stop-color="#fff"/><stop offset="1" stop-color="#dde1e6"/></radialGradient><linearGradient id="linear-gradient-4" x1="235.928" y1="45.318" x2="368.667" y2="45.318" gradientUnits="userSpaceOnUse"><stop offset="0.14" stop-color="#08bdba"/><stop offset="0.554" stop-color="#009d9a"/></linearGradient><linearGradient id="linear-gradient-5" x1="235.804" y1="29.151" x2="368.667" y2="29.151" gradientUnits="userSpaceOnUse"><stop offset="0.14" stop-color="#161616"/><stop offset="0.554"/></linearGradient></defs><title>Artboard 2 copy 39</title><g id="Layer_3" data-name="Layer 3"><g class="cls-2"><line class="cls-3" x1="462.001" y1="426.067" x2="406.001" y2="458.399"/><line class="cls-3" x1="462.001" y1="409.901" x2="378.004" y2="458.4"/><line class="cls-3" x1="462.001" y1="393.735" x2="350" y2="458.399"/><line class="cls-3" x1="462.001" y1="377.569" x2="322.006" y2="458.402"/><line class="cls-3" x1="462.001" y1="361.404" x2="294.007" y2="458.403"/><line class="cls-3" x1="462.001" y1="329.072" x2="238.009" y2="458.404"/><line class="cls-3" x1="462.001" y1="312.906" x2="210.01" y2="458.405"/><line class="cls-3" x1="462.001" y1="296.74" x2="182" y2="458.399"/><line class="cls-3" x1="462.001" y1="280.574" x2="154.012" y2="458.406"/><line class="cls-3" x1="462.001" y1="264.408" x2="126.013" y2="458.407"/><line class="cls-3" x1="462.001" y1="248.242" x2="98.015" y2="458.407"/><line class="cls-3" x1="462.001" y1="232.077" x2="70.016" y2="458.408"/><line class="cls-3" x1="462.001" y1="199.745" x2="13.982" y2="458.409"/><line class="cls-3" x1="462.001" y1="183.579" x2="-14.001" y2="458.399"/><line class="cls-3" x1="462.001" y1="167.413" x2="-14.001" y2="442.233"/><line class="cls-3" x1="462.001" y1="151.247" x2="-14.001" y2="426.067"/><line class="cls-3" x1="462.001" y1="135.081" x2="-14.001" y2="409.901"/><line class="cls-3" x1="462.001" y1="118.915" x2="-14.001" y2="393.735"/><line class="cls-3" x1="462.001" y1="102.75" x2="-14.001" y2="377.569"/><line class="cls-3" x1="462.001" y1="70.418" x2="-14.001" y2="345.238"/><line class="cls-3" x1="462.001" y1="54.252" x2="-14.001" y2="329.072"/><line class="cls-3" x1="462.001" y1="38.086" x2="-14.001" y2="312.906"/><line class="cls-3" x1="462.001" y1="21.92" x2="-14.001" y2="296.74"/><line class="cls-3" x1="462.001" y1="5.754" x2="-14.001" y2="280.574"/><line class="cls-3" x1="462.001" y1="-10.411" x2="-14.001" y2="264.408"/><line class="cls-3" x1="434.001" y1="-10.411" x2="-14.001" y2="248.242"/><line class="cls-3" x1="378.004" y1="-10.413" x2="-14.001" y2="215.911"/><line class="cls-3" x1="350" y1="-10.411" x2="-14.001" y2="199.745"/><line class="cls-3" x1="322" y1="-10.411" x2="-14.001" y2="183.579"/><line class="cls-3" x1="294" y1="-10.411" x2="-14.001" y2="167.413"/><line class="cls-3" x1="266.008" y1="-10.416" x2="-14.001" y2="151.247"/><line class="cls-3" x1="238.002" y1="-10.411" x2="-14.001" y2="135.081"/><line class="cls-3" x1="210" y1="-10.41" x2="-14.001" y2="118.915"/><line class="cls-3" x1="153.999" y1="-10.41" x2="-14.001" y2="86.584"/><line class="cls-3" x1="125.998" y1="-10.41" x2="-14.001" y2="70.418"/><line class="cls-3" x1="97.998" y1="-10.41" x2="-14.001" y2="54.252"/><line class="cls-3" x1="69.997" y1="-10.41" x2="-14.001" y2="38.086"/><line class="cls-3" x1="41.997" y1="-10.41" x2="-14.001" y2="21.92"/><line class="cls-3" x1="-14.001" y1="426.067" x2="42.017" y2="458.409"/><line class="cls-3" x1="-14.001" y1="409.901" x2="70.016" y2="458.408"/><line class="cls-3" x1="-14.001" y1="393.735" x2="98.015" y2="458.407"/><line class="cls-3" x1="-14.001" y1="377.569" x2="126.013" y2="458.407"/><line class="cls-3" x1="-14.001" y1="361.404" x2="154.012" y2="458.406"/><line class="cls-3" x1="-14.001" y1="329.072" x2="210.01" y2="458.405"/><line class="cls-3" x1="-14.001" y1="312.906" x2="238.009" y2="458.404"/><line class="cls-3" x1="-14.001" y1="296.74" x2="266.008" y2="458.403"/><line class="cls-3" x1="-14.001" y1="280.574" x2="294.007" y2="458.403"/><line class="cls-3" x1="-14.001" y1="264.408" x2="322.006" y2="458.402"/><line class="cls-3" x1="-14.001" y1="248.242" x2="350" y2="458.399"/><line class="cls-3" x1="-14.001" y1="232.077" x2="378.004" y2="458.4"/><line class="cls-3" x1="-14.001" y1="199.745" x2="434.001" y2="458.399"/><line class="cls-3" x1="-14.001" y1="183.579" x2="462.001" y2="458.399"/><line class="cls-3" x1="-14.001" y1="167.413" x2="462.001" y2="442.233"/><line class="cls-3" x1="-14.001" y1="151.247" x2="462.001" y2="426.067"/><line class="cls-3" x1="-14.001" y1="135.081" x2="462.001" y2="409.901"/><line class="cls-3" x1="-14.001" y1="118.915" x2="462.001" y2="393.735"/><line class="cls-3" x1="-14.001" y1="102.75" x2="462.001" y2="377.569"/><line class="cls-3" x1="-14.001" y1="70.418" x2="462.001" y2="345.238"/><line class="cls-3" x1="-14.001" y1="54.252" x2="462.001" y2="329.072"/><line class="cls-3" x1="-14.001" y1="38.086" x2="462.001" y2="312.906"/><line class="cls-3" x1="-14.001" y1="21.92" x2="462.001" y2="296.74"/><line class="cls-3" x1="-14.001" y1="5.754" x2="462.001" y2="280.574"/><line class="cls-3" x1="-14.001" y1="-10.411" x2="462.001" y2="264.408"/><line class="cls-3" x1="14.018" y1="-10.401" x2="462.001" y2="248.242"/><line class="cls-3" x1="69.997" y1="-10.41" x2="462.001" y2="215.911"/><line class="cls-3" x1="97.998" y1="-10.41" x2="462.001" y2="199.745"/><line class="cls-3" x1="125.998" y1="-10.41" x2="462.001" y2="183.579"/><line class="cls-3" x1="153.999" y1="-10.41" x2="462.001" y2="167.413"/><line class="cls-3" x1="181.999" y1="-10.41" x2="462.001" y2="151.247"/><line class="cls-3" x1="210" y1="-10.41" x2="462.001" y2="135.081"/><line class="cls-3" x1="238.002" y1="-10.411" x2="462.001" y2="118.915"/><line class="cls-3" x1="294" y1="-10.411" x2="462.001" y2="86.584"/><line class="cls-3" x1="322" y1="-10.411" x2="462.001" y2="70.418"/><line class="cls-3" x1="350" y1="-10.411" x2="462.001" y2="54.252"/><line class="cls-3" x1="378.004" y1="-10.413" x2="462.001" y2="38.086"/><line class="cls-3" x1="406.001" y1="-10.411" x2="462.001" y2="21.92"/><line class="cls-3" x1="14.001" y1="-10.401" x2="14.001" y2="458.399"/><line class="cls-3" x1="28.001" y1="-10.401" x2="28.001" y2="458.399"/><line class="cls-3" x1="42.001" y1="-10.401" x2="42.001" y2="458.399"/><line class="cls-3" x1="56.001" y1="-10.401" x2="56.001" y2="458.399"/><line class="cls-3" x1="70.001" y1="-10.401" x2="70.001" y2="458.399"/><line class="cls-3" x1="84.001" y1="-10.401" x2="84.001" y2="458.399"/><line class="cls-3" x1="98.001" y1="-10.401" x2="98.001" y2="458.399"/><line class="cls-3" x1="126.001" y1="-10.401" x2="126.001" y2="458.399"/><line class="cls-3" x1="140.001" y1="-10.401" x2="140.001" y2="458.399"/><line class="cls-3" x1="154.001" y1="-10.401" x2="154.001" y2="458.399"/><line class="cls-3" x1="168.001" y1="-10.401" x2="168.001" y2="458.399"/><line class="cls-3" x1="182.001" y1="-10.401" x2="182.001" y2="458.399"/><line class="cls-3" x1="196.001" y1="-10.401" x2="196.001" y2="458.399"/><line class="cls-3" x1="210.001" y1="-10.401" x2="210.001" y2="458.399"/><line class="cls-3" x1="238.001" y1="-10.401" x2="238.001" y2="458.399"/><line class="cls-3" x1="252.001" y1="-10.401" x2="252.001" y2="458.399"/><line class="cls-3" x1="266.001" y1="-10.401" x2="266.001" y2="458.399"/><line class="cls-3" x1="280.001" y1="-10.401" x2="280.001" y2="458.399"/><line class="cls-3" x1="294.001" y1="-10.401" x2="294.001" y2="458.399"/><line class="cls-3" x1="308.001" y1="-10.401" x2="308.001" y2="458.399"/><line class="cls-3" x1="322.001" y1="-10.401" x2="322.001" y2="458.399"/><line class="cls-3" x1="350.001" y1="-10.401" x2="350.001" y2="458.399"/><line class="cls-3" x1="364.001" y1="-10.401" x2="364.001" y2="458.399"/><line class="cls-3" x1="378.001" y1="-10.401" x2="378.001" y2="458.399"/><line class="cls-3" x1="392.001" y1="-10.401" x2="392.001" y2="458.399"/><line class="cls-3" x1="406.001" y1="-10.401" x2="406.001" y2="458.399"/><line class="cls-3" x1="420.001" y1="-10.401" x2="420.001" y2="458.399"/><line class="cls-3" x1="434.001" y1="-10.401" x2="434.001" y2="458.399"/><line class="cls-4" x1="462.001" y1="345.241" x2="266.008" y2="458.407"/><line class="cls-4" x1="462.001" y1="215.914" x2="42.017" y2="458.412"/><line class="cls-4" x1="462.001" y1="86.587" x2="-14.001" y2="361.407"/><line class="cls-4" x1="406.001" y1="-10.408" x2="-14.001" y2="232.08"/><line class="cls-4" x1="181.999" y1="-10.406" x2="-14.001" y2="102.753"/><line class="cls-4" x1="112.001" y1="-10.397" x2="112.001" y2="458.402"/><line class="cls-4" x1="224.001" y1="-10.397" x2="224.001" y2="458.402"/><line class="cls-4" x1="336.001" y1="-10.397" x2="336.001" y2="458.402"/><line class="cls-4" x1="-14.001" y1="345.241" x2="182" y2="458.402"/><line class="cls-4" x1="-14.001" y1="215.914" x2="406.001" y2="458.402"/><line class="cls-4" x1="-14.001" y1="86.587" x2="462.001" y2="361.407"/><line class="cls-4" x1="41.997" y1="-10.406" x2="462.001" y2="232.08"/><line class="cls-4" x1="266.008" y1="-10.412" x2="462.001" y2="102.753"/></g><rect class="cls-5" width="448" height="448"/><path class="cls-6" d="M368.667,0H235.8A442.578,442.578,0,0,1,238,45.193c0,69.244-9.635,116.652-56,154.552-57.742,47.2-121.2,75.518-121.2,121.246l.005,16.164c0,11.7,7.732,23.4,23.2,32.332,30.928,17.856,81.072,17.856,112,0l168-96.994c15.464-8.929,23.2-20.63,23.2-32.333V224.605c0-73.95-21.641-70.081-21.641-125.576S368.667,0,368.667,0Z"/><polygon class="cls-7" points="448 223.348 373.334 223.348 140.001 382.879 448 382.879 448 223.348"/><path class="cls-8" d="M290.067,121.616c-6.292-19.641-42.761-31.231-48.136-21.923l-6.179,20.52-13.537,36.965-15.626,22.2-16.034,17.978L166.45,216.015,143.594,231.12l-22.173,14.2L107.167,255.6l-10.215,7.616,87.929,64.191L210,345.238Z"/><path class="cls-9" d="M137.572,232.976c28.878-16.961,64.854-14.4,104.994,3.05"/><path class="cls-9" d="M171.984,207.716c24.043,4.647,49.226,39.266,56.245,64.547"/><path class="cls-9" d="M171.984,207.716c24.416-11.231,52.017-11.989,85.361.633"/><path class="cls-9" d="M199.756,183.105c14.908,12.068,33.488,39.065,42.81,52.921"/><path class="cls-9" d="M199.756,183.105c20.489-7.552,45.019-7.027,75.348-3.727"/><path class="cls-9" d="M218.734,155.154c12.69,17.553,25.5,40.189,38.611,53.195"/><path class="cls-9" d="M229.784,126.121c5.892,19.757,22.159,40.65,45.32,53.257"/><path class="cls-9" d="M218.734,155.154c19.378-2.146,49.476-1.516,68.284-3.465"/><path class="cls-1" d="M84,369.487V353.321s3.812-54.405,56-89.642S254,179.256,255.408,113.2"/><path class="cls-10" d="M236.705,83.822l-.055-.032C232.743,132.8,219.2,169.339,182,199.745c-30.054,24.567-61.652,44.018-85.049,63.472,23.506-19.493,78.41-45.029,110.137-76.756,20.93-20.931,35.626-48.19,37.686-83.439C239.054,97.083,236.36,90.432,236.705,83.822Z"/><path class="cls-10" d="M364,256.326c15.439-8.913,23.168-20.592,23.193-32.274-.109-73.37-21.638-69.668-21.638-125.023q0-6.231.052-12.238l0,.063-.093.036c-.8,8.868-7.057,17.6-18.789,24.376-18.215,10.516-44.615,13.419-67.359,8.717l-3.235-.72c0,40.746-27.919,70.166-42.641,103.415-25.921,58.543-24.383,97.444-23.488,122.56Z"/><polygon class="cls-1" points="364 126.999 322 151.247 322 199.745 364 175.496 364 126.999"/><ellipse class="cls-11" cx="343" cy="163.372" rx="29.698" ry="17.146" transform="translate(30.016 378.733) rotate(-60)"/><path class="cls-12" d="M60.805,337.156c0,11.7,7.732,23.4,23.2,32.331,30.928,17.856,81.072,17.856,112,0l168-96.995c15.464-8.928,23.2-20.63,23.2-32.331V224c0,11.7-7.732,23.4-23.2,32.332L196,353.321c-30.928,17.857-81.072,17.857-112,0-15.464-8.928-23.2-20.629-23.2-32.33Z"/><path class="cls-13" d="M60.805,320.991c0,11.7,7.732,23.4,23.2,32.331,30.928,17.856,81.072,17.856,112,0l14-8.084c0-55.8-79.153-99.773-113.214-81.883C75.322,281.231,60.8,299.119,60.8,320.991"/><path class="cls-14" d="M137.184,233.251c28.438-10.63,70.661,2.865,91.045,39.012"/><path class="cls-14" d="M171.984,207.716c24.017-5.506,54.366,12.094,70.582,28.31"/><path class="cls-14" d="M199.756,183.105c15.22,1.35,38.245,9.6,57.589,25.244"/><path class="cls-14" d="M229.784,126.121c3.417,11.243,35.247,24.13,57.234,25.568"/><path class="cls-14" d="M275.1,179.378c-24.011-7.3-43.36-15.287-56.37-24.224"/><path class="cls-15" d="M237.983,52.478c-.513,9.848,5.74,19.792,18.76,27.309,25.051,14.464,65.669,14.464,90.72,0,12.522-7.229,18.784-16.7,18.789-26.177L368.667,0H235.928C238.193,21.921,237.983,52.478,237.983,52.478Z"/><path class="cls-16" d="M237.3,19.593c.383,9.99,5.823,20.078,19.031,27.7,25.415,14.673,66.619,14.673,92.033,0,12.7-7.333,19.114-16.944,19.119-26.556L368.667,0H235.8C236.242,4.9,237.019,14,237.3,19.593Z"/></g></svg>