<svg id="Layer_1" data-name="Layer 1" xmlns="http://www.w3.org/2000/svg" width="288" height="288" viewBox="0 0 288 288">
  <title>dont barchart of sales</title>
  <g id="design">
    <g id="Dataviz-Design">
      <g id="Group-14">
        <g id="Group-16">
          <polygon id="Fill-1" points="0 288 288 288 288 0 0 0 0 288" fill="#fefefe" fill-rule="evenodd"/>
          <g id="Barchart-of-sales-di" style="isolation: isolate">
            <g style="isolation: isolate">
              <path d="M49.43,66.26H55a3.34,3.34,0,0,1,2.46.88,3.2,3.2,0,0,1,.89,2.36,3.27,3.27,0,0,1-.2,1.2,2.48,2.48,0,0,1-.5.81,2,2,0,0,1-.7.46,2.61,2.61,0,0,1-.78.19v.11a2.89,2.89,0,0,1,.84.18,2.67,2.67,0,0,1,.85.51,2.94,2.94,0,0,1,.67.9,3,3,0,0,1,.27,1.34,4.21,4.21,0,0,1-.24,1.43,3.76,3.76,0,0,1-.68,1.15,3.17,3.17,0,0,1-1,.76,3,3,0,0,1-1.3.28H49.43Zm2,5.31h3.15a1.62,1.62,0,0,0,1.17-.39,1.43,1.43,0,0,0,.42-1.11V69.5a1.44,1.44,0,0,0-.42-1.11A1.62,1.62,0,0,0,54.61,68H51.46Zm0,5.51H55a1.76,1.76,0,0,0,1.24-.42,1.52,1.52,0,0,0,.45-1.18v-.62a1.55,1.55,0,0,0-.45-1.19A1.8,1.8,0,0,0,55,73.26h-3.5Z"/>
              <path d="M68.2,78.82A1.51,1.51,0,0,1,67,78.38a1.94,1.94,0,0,1-.51-1.12h-.09a2.29,2.29,0,0,1-1,1.33,3.22,3.22,0,0,1-1.74.45,3.1,3.1,0,0,1-2.25-.76,2.69,2.69,0,0,1-.78-2,2.39,2.39,0,0,1,1-2.11,5.23,5.23,0,0,1,3-.7h1.69v-.79a1.8,1.8,0,0,0-.47-1.33,2,2,0,0,0-1.46-.47,2.34,2.34,0,0,0-1.35.36,3.36,3.36,0,0,0-.88.92L61,71.06a3.74,3.74,0,0,1,1.32-1.3,4.23,4.23,0,0,1,2.21-.51,4.15,4.15,0,0,1,2.79.84,3.06,3.06,0,0,1,1,2.43v4.7h1v1.6Zm-4-1.28a2.64,2.64,0,0,0,1.52-.4,1.26,1.26,0,0,0,.59-1.09V74.7H64.69c-1.35,0-2,.42-2,1.26v.32a1.12,1.12,0,0,0,.42,1A1.9,1.9,0,0,0,64.24,77.54Z"/>
              <path d="M71.43,78.82V69.46h2v1.8h.09A2.52,2.52,0,0,1,74.31,70a2.59,2.59,0,0,1,1.74-.54h.52v1.89H75.8a3.48,3.48,0,0,0-1.79.38,1.21,1.21,0,0,0-.62,1.12v6Z"/>
              <path d="M82.05,79a4.67,4.67,0,0,1-1.81-.34,3.72,3.72,0,0,1-1.33-1,4.69,4.69,0,0,1-.83-1.55,6.78,6.78,0,0,1-.28-2,6.71,6.71,0,0,1,.28-2,4.6,4.6,0,0,1,.83-1.55,3.6,3.6,0,0,1,1.33-1,4.5,4.5,0,0,1,1.81-.34,3.93,3.93,0,0,1,2.3.63,3.55,3.55,0,0,1,1.31,1.67L84,72.31a2,2,0,0,0-.69-1,2.05,2.05,0,0,0-1.3-.39,2,2,0,0,0-1.63.68,2.66,2.66,0,0,0-.55,1.75V75a2.66,2.66,0,0,0,.55,1.75,2,2,0,0,0,1.63.67A2.1,2.1,0,0,0,83.42,77a2.93,2.93,0,0,0,.82-1.13l1.49.8a3.72,3.72,0,0,1-1.4,1.77A4.07,4.07,0,0,1,82.05,79Z"/>
              <path d="M87.81,65.5h2V71h.09a3.12,3.12,0,0,1,.92-1.26,2.63,2.63,0,0,1,1.7-.5,2.8,2.8,0,0,1,2.25.94,4.07,4.07,0,0,1,.8,2.69v5.94h-2v-5.7c0-1.46-.58-2.18-1.76-2.18a2.76,2.76,0,0,0-.75.1,2,2,0,0,0-.65.29,1.49,1.49,0,0,0-.46.51,1.35,1.35,0,0,0-.17.7v6.28h-2Z"/>
              <path d="M105.3,78.82a1.53,1.53,0,0,1-1.19-.44,2,2,0,0,1-.5-1.12h-.09a2.29,2.29,0,0,1-1,1.33,3.23,3.23,0,0,1-1.75.45,3.07,3.07,0,0,1-2.24-.76,2.69,2.69,0,0,1-.78-2,2.39,2.39,0,0,1,1-2.11,5.19,5.19,0,0,1,3-.7h1.7v-.79a1.8,1.8,0,0,0-.47-1.33,2,2,0,0,0-1.46-.47,2.34,2.34,0,0,0-1.35.36,3.22,3.22,0,0,0-.88.92l-1.17-1.07a3.79,3.79,0,0,1,1.31-1.3,4.27,4.27,0,0,1,2.22-.51,4.15,4.15,0,0,1,2.79.84,3.09,3.09,0,0,1,1,2.43v4.7h1v1.6Zm-4-1.28a2.61,2.61,0,0,0,1.51-.4,1.25,1.25,0,0,0,.6-1.09V74.7h-1.66c-1.36,0-2,.42-2,1.26v.32a1.12,1.12,0,0,0,.42,1A1.9,1.9,0,0,0,101.34,77.54Z"/>
              <path d="M108.52,78.82V69.46h2v1.8h.09a2.47,2.47,0,0,1,2.58-1.8h.52v1.89h-.77a3.48,3.48,0,0,0-1.79.38,1.22,1.22,0,0,0-.63,1.12v6Z"/>
              <path d="M118.28,78.82a2.05,2.05,0,0,1-1.55-.53,2,2,0,0,1-.52-1.5V71.06h-1.46v-1.6h.79a.89.89,0,0,0,.68-.21,1.12,1.12,0,0,0,.19-.71V66.91h1.76v2.55h2v1.6h-2v6.16H120v1.6Z"/>
              <path d="M130.57,79a4.58,4.58,0,0,1-1.77-.34,3.83,3.83,0,0,1-1.36-1,4.57,4.57,0,0,1-.86-1.55,6.77,6.77,0,0,1,0-4,4.48,4.48,0,0,1,.86-1.55,3.71,3.71,0,0,1,1.36-1,4.4,4.4,0,0,1,1.77-.34,4.48,4.48,0,0,1,1.78.34,3.67,3.67,0,0,1,1.35,1,4.5,4.5,0,0,1,.87,1.55,7,7,0,0,1,0,4,4.59,4.59,0,0,1-.87,1.55,3.79,3.79,0,0,1-1.35,1A4.67,4.67,0,0,1,130.57,79Zm0-1.64a2.19,2.19,0,0,0,1.62-.62,2.52,2.52,0,0,0,.61-1.85V73.35a2.52,2.52,0,0,0-.61-1.85,2.43,2.43,0,0,0-3.24,0,2.52,2.52,0,0,0-.61,1.85v1.58a2.52,2.52,0,0,0,.61,1.85A2.19,2.19,0,0,0,130.57,77.4Z"/>
              <path d="M137.63,71.06h-1.42v-1.6h1.42V67.91a2.54,2.54,0,0,1,.59-1.77A2.34,2.34,0,0,1,140,65.5h1.55v1.6h-2v2.36h2v1.6h-2v7.76h-2Z"/>
              <path d="M150.88,79a4.85,4.85,0,0,1-2.24-.47,4.72,4.72,0,0,1-1.56-1.3l1.26-1.15a3.94,3.94,0,0,0,1.16,1,3,3,0,0,0,1.48.35,2.08,2.08,0,0,0,1.29-.33,1.19,1.19,0,0,0,.13-1.69,1.71,1.71,0,0,0-1-.41l-.86-.1a4.43,4.43,0,0,1-2.26-.84,2.34,2.34,0,0,1-.82-2,2.8,2.8,0,0,1,.25-1.22,2.7,2.7,0,0,1,.71-.9,3.58,3.58,0,0,1,1.1-.57,4.86,4.86,0,0,1,1.41-.19,4.78,4.78,0,0,1,2.07.39,4.85,4.85,0,0,1,1.43,1.1l-1.21,1.15a3.22,3.22,0,0,0-.94-.74,2.83,2.83,0,0,0-1.35-.32,1.86,1.86,0,0,0-1.19.32,1.06,1.06,0,0,0-.39.85,1,1,0,0,0,.34.81,2.56,2.56,0,0,0,1.1.4l.86.1a4.13,4.13,0,0,1,2.26.91,2.37,2.37,0,0,1,.71,1.81,2.78,2.78,0,0,1-.26,1.24,2.69,2.69,0,0,1-.74.94,3.43,3.43,0,0,1-1.17.61A4.92,4.92,0,0,1,150.88,79Z"/>
              <path d="M163.85,78.82a1.51,1.51,0,0,1-1.18-.44,1.94,1.94,0,0,1-.51-1.12h-.09a2.29,2.29,0,0,1-1,1.33,3.22,3.22,0,0,1-1.74.45,3.1,3.1,0,0,1-2.25-.76,2.69,2.69,0,0,1-.78-2,2.39,2.39,0,0,1,1-2.11,5.23,5.23,0,0,1,3-.7H162v-.79a1.8,1.8,0,0,0-.47-1.33,2,2,0,0,0-1.46-.47,2.34,2.34,0,0,0-1.35.36,3.36,3.36,0,0,0-.88.92l-1.17-1.07a3.74,3.74,0,0,1,1.32-1.3,4.23,4.23,0,0,1,2.21-.51,4.15,4.15,0,0,1,2.79.84,3.06,3.06,0,0,1,1,2.43v4.7h1v1.6Zm-4-1.28a2.64,2.64,0,0,0,1.52-.4,1.26,1.26,0,0,0,.59-1.09V74.7h-1.66c-1.35,0-2,.42-2,1.26v.32a1.12,1.12,0,0,0,.42,1A1.9,1.9,0,0,0,159.89,77.54Z"/>
              <path d="M169.07,78.82a2,2,0,0,1-1.5-.51,2,2,0,0,1-.49-1.43V65.5h2V77.22h1.29v1.6Z"/>
              <path d="M176.08,79a4.59,4.59,0,0,1-1.8-.34,3.92,3.92,0,0,1-1.36-1,4.55,4.55,0,0,1-.85-1.55,7,7,0,0,1,0-4,4.46,4.46,0,0,1,.85-1.55,3.79,3.79,0,0,1,1.36-1,4.41,4.41,0,0,1,1.8-.34,4.25,4.25,0,0,1,1.8.36,3.53,3.53,0,0,1,1.31,1,4.2,4.2,0,0,1,.78,1.48,5.93,5.93,0,0,1,.26,1.82v.74h-6.42V75a2.46,2.46,0,0,0,.64,1.76,2.34,2.34,0,0,0,1.82.69,2.6,2.6,0,0,0,1.46-.38,3.24,3.24,0,0,0,1-1l1.15,1.13a3.68,3.68,0,0,1-1.51,1.38A4.85,4.85,0,0,1,176.08,79Zm0-8.26a2.34,2.34,0,0,0-.93.18,2,2,0,0,0-.72.5,2.39,2.39,0,0,0-.46.77,2.87,2.87,0,0,0-.16,1v.12h4.35v-.18a2.61,2.61,0,0,0-.55-1.74A1.94,1.94,0,0,0,176.08,70.78Z"/>
              <path d="M185.58,79a4.81,4.81,0,0,1-2.23-.47,4.76,4.76,0,0,1-1.57-1.3L183,76.12a4.07,4.07,0,0,0,1.16,1,3,3,0,0,0,1.49.35,2.06,2.06,0,0,0,1.28-.33,1.1,1.1,0,0,0,.43-.93,1.07,1.07,0,0,0-.3-.76,1.67,1.67,0,0,0-1-.41l-.87-.1a4.43,4.43,0,0,1-2.26-.84,2.37,2.37,0,0,1-.82-2,2.8,2.8,0,0,1,.26-1.22,2.47,2.47,0,0,1,.71-.9,3.52,3.52,0,0,1,1.09-.57,4.88,4.88,0,0,1,1.42-.19,4.73,4.73,0,0,1,2.06.39,4.85,4.85,0,0,1,1.43,1.1l-1.21,1.15a3.09,3.09,0,0,0-.94-.74,2.79,2.79,0,0,0-1.34-.32,1.89,1.89,0,0,0-1.2.32A1.06,1.06,0,0,0,184,72a1,1,0,0,0,.35.81,2.46,2.46,0,0,0,1.09.4l.87.1a4.2,4.2,0,0,1,2.26.91,2.4,2.4,0,0,1,.71,1.81,2.93,2.93,0,0,1-.26,1.24,2.84,2.84,0,0,1-.75.94,3.25,3.25,0,0,1-1.17.61A4.92,4.92,0,0,1,185.58,79Z"/>
            </g>
            <g style="isolation: isolate">
              <path d="M55.17,100.27h-.09a2.57,2.57,0,0,1-1,1.3,2.84,2.84,0,0,1-1.63.47,3.25,3.25,0,0,1-2.75-1.29,7.2,7.2,0,0,1,0-7.22,3.27,3.27,0,0,1,2.75-1.28,2.84,2.84,0,0,1,1.63.46,2.53,2.53,0,0,1,1,1.3h.09V88.5h2v13.32h-2Zm-2.12.08a2.54,2.54,0,0,0,1.51-.44,1.37,1.37,0,0,0,.61-1.17v-3.2a1.35,1.35,0,0,0-.61-1.16,2.54,2.54,0,0,0-1.51-.44,2.12,2.12,0,0,0-1.64.66,2.41,2.41,0,0,0-.61,1.73V98a2.45,2.45,0,0,0,.61,1.74A2.12,2.12,0,0,0,53.05,100.35Z"/>
              <path d="M61.13,90.79a1.19,1.19,0,0,1-.89-.29,1,1,0,0,1-.28-.74v-.3a1,1,0,0,1,.28-.74,1.19,1.19,0,0,1,.89-.29,1.16,1.16,0,0,1,.88.29,1,1,0,0,1,.27.74v.3a1,1,0,0,1-.27.74A1.16,1.16,0,0,1,61.13,90.79Zm-1,1.67h2v9.36h-2Z"/>
              <path d="M67.14,101.82,64,92.46H65.9l1.42,4.27,1,3.27h.11l1-3.27,1.46-4.27h1.87l-3.22,9.36Z"/>
              <path d="M75.51,90.79a1.2,1.2,0,0,1-.89-.29,1,1,0,0,1-.28-.74v-.3a1,1,0,0,1,.28-.74,1.2,1.2,0,0,1,.89-.29,1.16,1.16,0,0,1,.88.29,1,1,0,0,1,.27.74v.3a1,1,0,0,1-.27.74A1.16,1.16,0,0,1,75.51,90.79Zm-1,1.67h2v9.36h-2Z"/>
              <path d="M85.38,100.27h-.09a2.62,2.62,0,0,1-1,1.3,2.89,2.89,0,0,1-1.63.47,3.26,3.26,0,0,1-2.76-1.29,7.2,7.2,0,0,1,0-7.22,3.27,3.27,0,0,1,2.76-1.28,2.88,2.88,0,0,1,1.63.46,2.58,2.58,0,0,1,1,1.3h.09V88.5h2v13.32h-2Zm-2.13.08a2.54,2.54,0,0,0,1.51-.44,1.38,1.38,0,0,0,.62-1.17v-3.2a1.36,1.36,0,0,0-.62-1.16,2.54,2.54,0,0,0-1.51-.44,2.14,2.14,0,0,0-1.64.66A2.45,2.45,0,0,0,81,96.33V98a2.49,2.49,0,0,0,.61,1.74A2.14,2.14,0,0,0,83.25,100.35Z"/>
              <path d="M94,102a4.59,4.59,0,0,1-1.8-.34,3.92,3.92,0,0,1-1.36-1A4.55,4.55,0,0,1,90,99.17a7,7,0,0,1,0-4,4.46,4.46,0,0,1,.85-1.55,3.79,3.79,0,0,1,1.36-1,4.41,4.41,0,0,1,1.8-.34,4.25,4.25,0,0,1,1.8.36,3.53,3.53,0,0,1,1.31,1,4.2,4.2,0,0,1,.78,1.48,5.93,5.93,0,0,1,.26,1.82v.74H91.75V98a2.46,2.46,0,0,0,.64,1.76,2.34,2.34,0,0,0,1.82.69,2.6,2.6,0,0,0,1.46-.38,3.24,3.24,0,0,0,1-1l1.15,1.13a3.68,3.68,0,0,1-1.51,1.38A4.85,4.85,0,0,1,94,102Zm0-8.26a2.34,2.34,0,0,0-.93.18,2,2,0,0,0-.72.5,2.39,2.39,0,0,0-.46.77,2.87,2.87,0,0,0-.16,1v.12H96.1v-.18a2.61,2.61,0,0,0-.55-1.74A1.94,1.94,0,0,0,94,93.78Z"/>
              <path d="M106.44,100.27h-.09a2.62,2.62,0,0,1-1,1.3,2.89,2.89,0,0,1-1.63.47,3.26,3.26,0,0,1-2.76-1.29,7.2,7.2,0,0,1,0-7.22,3.27,3.27,0,0,1,2.76-1.28,2.88,2.88,0,0,1,1.63.46,2.58,2.58,0,0,1,1,1.3h.09V88.5h2v13.32h-2Zm-2.13.08a2.54,2.54,0,0,0,1.51-.44,1.38,1.38,0,0,0,.62-1.17v-3.2a1.36,1.36,0,0,0-.62-1.16,2.54,2.54,0,0,0-1.51-.44,2.14,2.14,0,0,0-1.64.66,2.45,2.45,0,0,0-.61,1.73V98a2.49,2.49,0,0,0,.61,1.74A2.14,2.14,0,0,0,104.31,100.35Z"/>
              <path d="M115.85,88.5h2V94h.09a2.53,2.53,0,0,1,1-1.3,2.84,2.84,0,0,1,1.63-.46,3.24,3.24,0,0,1,2.75,1.28,7.2,7.2,0,0,1,0,7.22,3.23,3.23,0,0,1-2.75,1.29,2.84,2.84,0,0,1-1.63-.47,2.57,2.57,0,0,1-1-1.3h-.09v1.55h-2Zm4.09,11.85a2.12,2.12,0,0,0,1.63-.66,2.45,2.45,0,0,0,.62-1.74V96.33a2.41,2.41,0,0,0-.62-1.73,2.12,2.12,0,0,0-1.63-.66,2.55,2.55,0,0,0-1.52.44,1.38,1.38,0,0,0-.61,1.16v3.2a1.39,1.39,0,0,0,.61,1.17A2.55,2.55,0,0,0,119.94,100.35Z"/>
              <path d="M132.32,92.46h1.89l-3.94,11.22a4,4,0,0,1-.37.8,2,2,0,0,1-.49.54,1.72,1.72,0,0,1-.67.3,3.76,3.76,0,0,1-.94.1h-1.13v-1.6h1.58l.54-1.58-3.4-9.78h2L129.22,98l.54,2h.09l.6-2Z"/>
              <path d="M140.62,101.82V89.26h8v1.8h-6v3.49h5.45v1.8h-5.45V100h6v1.8Z"/>
              <path d="M157,100.27h-.07a3,3,0,0,1-.33.67,2.17,2.17,0,0,1-.52.57,2.72,2.72,0,0,1-.76.39,3.44,3.44,0,0,1-1,.14,2.81,2.81,0,0,1-2.26-.94,4,4,0,0,1-.8-2.68v-6h2v5.71c0,1.45.6,2.18,1.8,2.18a3,3,0,0,0,.73-.1,2.1,2.1,0,0,0,.64-.3,1.44,1.44,0,0,0,.45-.5,1.42,1.42,0,0,0,.17-.72V92.46h2v9.36h-2Z"/>
              <path d="M162,101.82V92.46h2v1.8H164a2.47,2.47,0,0,1,2.58-1.8h.52v1.89h-.77a3.48,3.48,0,0,0-1.79.38,1.22,1.22,0,0,0-.63,1.12v6Z"/>
              <path d="M172.66,102a4.67,4.67,0,0,1-1.78-.34,3.92,3.92,0,0,1-1.36-1,4.57,4.57,0,0,1-.86-1.55,6.77,6.77,0,0,1,0-4,4.48,4.48,0,0,1,.86-1.55,3.79,3.79,0,0,1,1.36-1,4.8,4.8,0,0,1,3.55,0,3.71,3.71,0,0,1,1.36,1,4.48,4.48,0,0,1,.86,1.55,6.77,6.77,0,0,1,0,4,4.57,4.57,0,0,1-.86,1.55,3.83,3.83,0,0,1-1.36,1A4.65,4.65,0,0,1,172.66,102Zm0-1.64a2.19,2.19,0,0,0,1.62-.62,2.56,2.56,0,0,0,.61-1.85V96.35a2.56,2.56,0,0,0-.61-1.85,2.19,2.19,0,0,0-1.62-.62,2.16,2.16,0,0,0-1.62.62,2.52,2.52,0,0,0-.62,1.85v1.58a2.52,2.52,0,0,0,.62,1.85A2.16,2.16,0,0,0,172.66,100.4Z"/>
              <path d="M179.33,92.46h2V94h.09a2.51,2.51,0,0,1,1-1.3,2.88,2.88,0,0,1,1.63-.46,3.27,3.27,0,0,1,2.76,1.28,7.2,7.2,0,0,1,0,7.22A3.26,3.26,0,0,1,184,102a2.89,2.89,0,0,1-1.63-.47,2.55,2.55,0,0,1-1-1.3h-.09v5.15h-2Zm4.09,7.89a2.14,2.14,0,0,0,1.64-.66,2.45,2.45,0,0,0,.61-1.74V96.33a2.41,2.41,0,0,0-.61-1.73,2.14,2.14,0,0,0-1.64-.66,2.54,2.54,0,0,0-1.51.44,1.35,1.35,0,0,0-.61,1.16v3.2a1.37,1.37,0,0,0,.61,1.17A2.54,2.54,0,0,0,183.42,100.35Z"/>
              <path d="M193.86,102a4.66,4.66,0,0,1-1.8-.34,3.79,3.79,0,0,1-1.35-1,4.57,4.57,0,0,1-.86-1.55,6.77,6.77,0,0,1-.29-2,6.7,6.7,0,0,1,.29-2,4.48,4.48,0,0,1,.86-1.55,3.67,3.67,0,0,1,1.35-1,4.48,4.48,0,0,1,1.8-.34,4.3,4.3,0,0,1,1.81.36,3.57,3.57,0,0,1,1.3,1,4.38,4.38,0,0,1,.79,1.48,6.25,6.25,0,0,1,.26,1.82v.74h-6.43V98a2.46,2.46,0,0,0,.64,1.76,2.38,2.38,0,0,0,1.83.69,2.63,2.63,0,0,0,1.46-.38,3.22,3.22,0,0,0,1-1l1.15,1.13a3.62,3.62,0,0,1-1.51,1.38A4.82,4.82,0,0,1,193.86,102Zm0-8.26a2.34,2.34,0,0,0-.93.18,2,2,0,0,0-.72.5,2.39,2.39,0,0,0-.46.77,3.13,3.13,0,0,0-.16,1v.12H196v-.18a2.62,2.62,0,0,0-.56-1.74A1.92,1.92,0,0,0,193.86,93.78Z"/>
              <path d="M207.25,101.82a1.55,1.55,0,0,1-1.19-.44,2,2,0,0,1-.5-1.12h-.09a2.29,2.29,0,0,1-1,1.33,3.23,3.23,0,0,1-1.75.45,3.07,3.07,0,0,1-2.24-.76,2.69,2.69,0,0,1-.78-2,2.39,2.39,0,0,1,1-2.11,5.21,5.21,0,0,1,3-.7h1.69v-.79a1.8,1.8,0,0,0-.47-1.33,2,2,0,0,0-1.46-.47,2.34,2.34,0,0,0-1.35.36,3.22,3.22,0,0,0-.88.92l-1.17-1.07a3.79,3.79,0,0,1,1.31-1.3,4.29,4.29,0,0,1,2.22-.51,4.15,4.15,0,0,1,2.79.84,3.06,3.06,0,0,1,1,2.43v4.7h1v1.6Zm-4-1.28a2.61,2.61,0,0,0,1.51-.4,1.25,1.25,0,0,0,.6-1.09V97.7h-1.66c-1.36,0-2,.42-2,1.26v.32a1.12,1.12,0,0,0,.42,1A1.9,1.9,0,0,0,203.29,100.54Z"/>
              <path d="M210.47,101.82V92.46h2V94h.09a3.12,3.12,0,0,1,.92-1.26,2.61,2.61,0,0,1,1.7-.5,2.77,2.77,0,0,1,2.24.94,4,4,0,0,1,.81,2.69v5.94h-2V96.13c0-1.46-.58-2.19-1.76-2.19a2.76,2.76,0,0,0-.75.1,2,2,0,0,0-.65.29,1.49,1.49,0,0,0-.46.51,1.37,1.37,0,0,0-.17.72v6.26Z"/>
              <path d="M222.32,99.32a1.35,1.35,0,0,1,1,.34,1.27,1.27,0,0,1,.32.88v.29a4.14,4.14,0,0,1-.48,1.85,4.86,4.86,0,0,1-1.28,1.63h-1.46a9,9,0,0,0,1-1.12,3.87,3.87,0,0,0,.58-1.21,1.07,1.07,0,0,1-.7-.4,1.2,1.2,0,0,1-.24-.75v-.29a1.23,1.23,0,0,1,.33-.88A1.32,1.32,0,0,1,222.32,99.32Z"/>
            </g>
            <g style="isolation: isolate">
              <path d="M57.28,124.82l-1.14-3.4H51.45l-1.1,3.4H48.28l4.28-12.56h2.56l4.28,12.56Zm-3.44-10.69h-.09l-1.82,5.54h3.71Z"/>
              <path d="M64.37,125a4.51,4.51,0,0,1-3.8-1.77l1.26-1.15a4.07,4.07,0,0,0,1.16,1,3,3,0,0,0,1.49.35,2.06,2.06,0,0,0,1.28-.33,1.1,1.1,0,0,0,.43-.93,1.07,1.07,0,0,0-.3-.76,1.68,1.68,0,0,0-1-.41l-.86-.1a4.43,4.43,0,0,1-2.26-.84,2.37,2.37,0,0,1-.82-2,2.8,2.8,0,0,1,.26-1.22,2.47,2.47,0,0,1,.71-.9,3.52,3.52,0,0,1,1.09-.57,4.88,4.88,0,0,1,1.42-.19,4.73,4.73,0,0,1,2.06.39,4.85,4.85,0,0,1,1.43,1.1l-1.21,1.15a3.09,3.09,0,0,0-.94-.74,2.79,2.79,0,0,0-1.34-.32,1.89,1.89,0,0,0-1.2.32,1.06,1.06,0,0,0-.39.85,1,1,0,0,0,.35.81,2.46,2.46,0,0,0,1.09.4l.87.1a4.2,4.2,0,0,1,2.26.91,2.4,2.4,0,0,1,.71,1.81,2.93,2.93,0,0,1-.26,1.24,2.84,2.84,0,0,1-.75.94,3.34,3.34,0,0,1-1.17.61A4.92,4.92,0,0,1,64.37,125Z"/>
              <path d="M71.48,113.79a1.19,1.19,0,0,1-.89-.29,1,1,0,0,1-.28-.74v-.3a1,1,0,0,1,.28-.74,1.19,1.19,0,0,1,.89-.29,1.16,1.16,0,0,1,.88.29,1,1,0,0,1,.27.74v.3a1,1,0,0,1-.27.74A1.16,1.16,0,0,1,71.48,113.79Zm-1,1.67h2v9.36h-2Z"/>
              <path d="M82.31,124.82a1.51,1.51,0,0,1-1.18-.44,1.94,1.94,0,0,1-.51-1.12h-.09a2.29,2.29,0,0,1-1,1.33,3.22,3.22,0,0,1-1.74.45,3.07,3.07,0,0,1-2.24-.76,2.66,2.66,0,0,1-.79-2,2.39,2.39,0,0,1,1-2.11,5.23,5.23,0,0,1,3-.7h1.69v-.79a1.76,1.76,0,0,0-.47-1.33,2,2,0,0,0-1.45-.47,2.29,2.29,0,0,0-1.35.36,3.25,3.25,0,0,0-.89.92l-1.17-1.07a3.74,3.74,0,0,1,1.32-1.3,4.23,4.23,0,0,1,2.21-.51,4.15,4.15,0,0,1,2.79.84,3.06,3.06,0,0,1,1,2.43v4.7h1v1.6Zm-4-1.28a2.64,2.64,0,0,0,1.52-.4,1.26,1.26,0,0,0,.59-1.09V120.7H78.81q-2,0-2,1.26v.32a1.12,1.12,0,0,0,.42,1A1.92,1.92,0,0,0,78.35,123.54Z"/>
              <path d="M85.54,124.82v-9.36h2V117h.09a3.06,3.06,0,0,1,.93-1.26,2.59,2.59,0,0,1,1.7-.5,2.78,2.78,0,0,1,2.24.94,4.07,4.07,0,0,1,.8,2.69v5.94h-2v-5.69q0-2.19-1.77-2.19a2.64,2.64,0,0,0-.74.1,2,2,0,0,0-.66.29,1.6,1.6,0,0,0-.46.51,1.47,1.47,0,0,0-.17.72v6.26Z"/>
              <path d="M107.48,124.82a1.53,1.53,0,0,1-1.19-.44,1.93,1.93,0,0,1-.5-1.12h-.09a2.29,2.29,0,0,1-1,1.33A3.25,3.25,0,0,1,103,125a3.07,3.07,0,0,1-2.24-.76,2.69,2.69,0,0,1-.78-2,2.38,2.38,0,0,1,1-2.11,5.23,5.23,0,0,1,3-.7h1.69v-.79a1.79,1.79,0,0,0-.46-1.33,2,2,0,0,0-1.46-.47,2.34,2.34,0,0,0-1.35.36,3.22,3.22,0,0,0-.88.92l-1.17-1.07a3.79,3.79,0,0,1,1.31-1.3,4.23,4.23,0,0,1,2.21-.51,4.12,4.12,0,0,1,2.79.84,3.06,3.06,0,0,1,1,2.43v4.7h1v1.6Zm-4-1.28a2.63,2.63,0,0,0,1.51-.4,1.24,1.24,0,0,0,.59-1.09V120.7H104q-2,0-2,1.26v.32a1.12,1.12,0,0,0,.43,1A1.9,1.9,0,0,0,103.52,123.54Z"/>
              <path d="M110.7,124.82v-9.36h2V117h.09a3.24,3.24,0,0,1,.93-1.26,2.59,2.59,0,0,1,1.7-.5,2.77,2.77,0,0,1,2.24.94,4.07,4.07,0,0,1,.8,2.69v5.94h-2v-5.69c0-1.46-.59-2.19-1.76-2.19a2.66,2.66,0,0,0-.75.1,2,2,0,0,0-.66.29,1.72,1.72,0,0,0-.46.51,1.47,1.47,0,0,0-.17.72v6.26Z"/>
              <path d="M127.22,123.27h-.09a2.55,2.55,0,0,1-1,1.3,2.89,2.89,0,0,1-1.63.47,3.26,3.26,0,0,1-2.76-1.29,7.2,7.2,0,0,1,0-7.22,3.27,3.27,0,0,1,2.76-1.28,2.88,2.88,0,0,1,1.63.46,2.51,2.51,0,0,1,1,1.3h.09V111.5h2v13.32h-2Zm-2.12.08a2.54,2.54,0,0,0,1.51-.44,1.37,1.37,0,0,0,.61-1.17v-3.2a1.35,1.35,0,0,0-.61-1.16,2.54,2.54,0,0,0-1.51-.44,2.14,2.14,0,0,0-1.64.66,2.41,2.41,0,0,0-.61,1.73V121a2.45,2.45,0,0,0,.61,1.74A2.14,2.14,0,0,0,125.1,123.35Z"/>
              <path d="M144.63,124.82l-1.13-3.4h-4.7l-1.1,3.4h-2.07l4.28-12.56h2.56l4.28,12.56Zm-3.44-10.69h-.09l-1.82,5.54H143Z"/>
              <path d="M148.75,124.82v-9.36h2V117h.09a4.83,4.83,0,0,1,.35-.68,2.32,2.32,0,0,1,.51-.57,2.24,2.24,0,0,1,.7-.38,3,3,0,0,1,.95-.13,3.11,3.11,0,0,1,1.69.46,2.77,2.77,0,0,1,1.08,1.44h0a2.75,2.75,0,0,1,1-1.34,2.9,2.9,0,0,1,1.86-.56,2.67,2.67,0,0,1,2.18.94,4.18,4.18,0,0,1,.77,2.69v5.94h-2v-5.7a2.65,2.65,0,0,0-.42-1.63,1.51,1.51,0,0,0-1.31-.55,2.46,2.46,0,0,0-.72.1,1.68,1.68,0,0,0-.6.29,1.63,1.63,0,0,0-.43.51,1.57,1.57,0,0,0-.16.7v6.28h-2v-5.7c0-1.46-.57-2.18-1.71-2.18a2.44,2.44,0,0,0-.71.1,1.77,1.77,0,0,0-.62.29,1.5,1.5,0,0,0-.43.51,1.45,1.45,0,0,0-.17.7v6.28Z"/>
              <path d="M168.5,125a4.62,4.62,0,0,1-1.8-.34,3.79,3.79,0,0,1-1.35-1,4.41,4.41,0,0,1-.86-1.55,7.22,7.22,0,0,1,0-4,4.32,4.32,0,0,1,.86-1.55,3.67,3.67,0,0,1,1.35-1,4.45,4.45,0,0,1,1.8-.34,4.33,4.33,0,0,1,1.81.36,3.57,3.57,0,0,1,1.3,1,4.2,4.2,0,0,1,.78,1.48,5.93,5.93,0,0,1,.27,1.82v.74h-6.43v.3a2.46,2.46,0,0,0,.64,1.76,2.35,2.35,0,0,0,1.83.69,2.57,2.57,0,0,0,1.45-.38,3.24,3.24,0,0,0,1-1l1.15,1.13a3.68,3.68,0,0,1-1.51,1.38A4.85,4.85,0,0,1,168.5,125Zm0-8.26a2.34,2.34,0,0,0-.93.18,2,2,0,0,0-.72.5,2.39,2.39,0,0,0-.46.77,2.87,2.87,0,0,0-.16,1v.12h4.35v-.18a2.61,2.61,0,0,0-.55-1.74A1.93,1.93,0,0,0,168.5,116.78Z"/>
              <path d="M175,124.82v-9.36h2v1.8h.09a2.52,2.52,0,0,1,.83-1.26,2.6,2.6,0,0,1,1.75-.54h.52v1.89h-.77a3.52,3.52,0,0,0-1.8.38,1.23,1.23,0,0,0-.62,1.12v6Z"/>
              <path d="M183.11,113.79a1.22,1.22,0,0,1-.89-.29,1,1,0,0,1-.28-.74v-.3a1,1,0,0,1,.28-.74,1.22,1.22,0,0,1,.89-.29,1.2,1.2,0,0,1,.89.29,1.08,1.08,0,0,1,.26.74v.3a1.08,1.08,0,0,1-.26.74A1.2,1.2,0,0,1,183.11,113.79Zm-1,1.67h2v9.36h-2Z"/>
              <path d="M190.71,125a4.66,4.66,0,0,1-1.8-.34,3.63,3.63,0,0,1-1.33-1,4.52,4.52,0,0,1-.83-1.55,6.77,6.77,0,0,1-.29-2,6.7,6.7,0,0,1,.29-2,4.43,4.43,0,0,1,.83-1.55,3.52,3.52,0,0,1,1.33-1,4.48,4.48,0,0,1,1.8-.34,3.93,3.93,0,0,1,2.3.63,3.64,3.64,0,0,1,1.32,1.67l-1.62.76a2.08,2.08,0,0,0-.7-1,2,2,0,0,0-1.3-.39,2,2,0,0,0-1.63.68,2.66,2.66,0,0,0-.55,1.75V121a2.66,2.66,0,0,0,.55,1.75,2,2,0,0,0,1.63.67,2.14,2.14,0,0,0,1.38-.42,2.91,2.91,0,0,0,.81-1.13l1.5.8a3.68,3.68,0,0,1-1.41,1.77A4,4,0,0,1,190.71,125Z"/>
              <path d="M203.33,124.82a1.52,1.52,0,0,1-1.19-.44,1.94,1.94,0,0,1-.51-1.12h-.09a2.29,2.29,0,0,1-1,1.33,3.22,3.22,0,0,1-1.74.45,3.07,3.07,0,0,1-2.24-.76,2.7,2.7,0,0,1-.79-2,2.39,2.39,0,0,1,1-2.11,5.23,5.23,0,0,1,3-.7h1.69v-.79a1.76,1.76,0,0,0-.47-1.33,1.93,1.93,0,0,0-1.45-.47,2.29,2.29,0,0,0-1.35.36,3.25,3.25,0,0,0-.89.92l-1.17-1.07a3.82,3.82,0,0,1,1.32-1.3,4.23,4.23,0,0,1,2.21-.51,4.15,4.15,0,0,1,2.79.84,3.06,3.06,0,0,1,1,2.43v4.7h1v1.6Zm-4-1.28a2.63,2.63,0,0,0,1.51-.4,1.26,1.26,0,0,0,.59-1.09V120.7h-1.65q-2,0-2,1.26v.32a1.1,1.1,0,0,0,.43,1A1.88,1.88,0,0,0,199.37,123.54Z"/>
              <path d="M206.55,124.82v-9.36h2V117h.09a3.06,3.06,0,0,1,.93-1.26,2.59,2.59,0,0,1,1.7-.5,2.77,2.77,0,0,1,2.24.94,4.07,4.07,0,0,1,.8,2.69v5.94h-2v-5.69q0-2.19-1.77-2.19a2.64,2.64,0,0,0-.74.1,2,2,0,0,0-.66.29,1.72,1.72,0,0,0-.46.51,1.47,1.47,0,0,0-.17.72v6.26Z"/>
            </g>
            <g style="isolation: isolate">
              <path d="M49.29,147.82v-9.36h2V140h.09a3.36,3.36,0,0,1,.35-.68,2.28,2.28,0,0,1,.5-.57,2.24,2.24,0,0,1,.7-.38,3,3,0,0,1,1-.13,3.08,3.08,0,0,1,1.69.46,2.77,2.77,0,0,1,1.08,1.44h.06a2.69,2.69,0,0,1,1-1.34,2.89,2.89,0,0,1,1.85-.56,2.66,2.66,0,0,1,2.18.94,4.13,4.13,0,0,1,.77,2.69v5.94h-2v-5.7a2.72,2.72,0,0,0-.41-1.63,1.55,1.55,0,0,0-1.32-.55,2.46,2.46,0,0,0-.72.1,1.76,1.76,0,0,0-.6.29,1.74,1.74,0,0,0-.42.51,1.45,1.45,0,0,0-.16.7v6.28h-2v-5.7c0-1.46-.57-2.18-1.71-2.18a2.48,2.48,0,0,0-.71.1,1.86,1.86,0,0,0-.62.29,1.63,1.63,0,0,0-.43.51,1.45,1.45,0,0,0-.16.7v6.28Z"/>
              <path d="M72.22,147.82a1.53,1.53,0,0,1-1.19-.44,1.87,1.87,0,0,1-.5-1.12h-.09a2.41,2.41,0,0,1-1,1.33,3.25,3.25,0,0,1-1.75.45,3.07,3.07,0,0,1-2.24-.76,2.69,2.69,0,0,1-.78-2,2.38,2.38,0,0,1,1-2.11,5.23,5.23,0,0,1,3-.7h1.69v-.79a1.79,1.79,0,0,0-.46-1.33,2,2,0,0,0-1.46-.47,2.34,2.34,0,0,0-1.35.36,3.09,3.09,0,0,0-.88.92L65,140.06a3.71,3.71,0,0,1,1.31-1.3,4.23,4.23,0,0,1,2.21-.51,4.12,4.12,0,0,1,2.79.84,3.06,3.06,0,0,1,1,2.43v4.7h1v1.6Zm-4-1.28a2.63,2.63,0,0,0,1.51-.4,1.26,1.26,0,0,0,.59-1.09V143.7H68.71q-2,0-2,1.26v.32a1.1,1.1,0,0,0,.43.95A1.88,1.88,0,0,0,68.26,146.54Z"/>
              <path d="M75.44,147.82v-9.36h2v1.8h.09a2.52,2.52,0,0,1,.83-1.26,2.59,2.59,0,0,1,1.74-.54h.53v1.89h-.78a3.5,3.5,0,0,0-1.79.38,1.23,1.23,0,0,0-.62,1.12v6Z"/>
              <path d="M82.53,134.5h2v8.17h.09l1.3-1.67,2.25-2.54h2.29l-3.28,3.62,3.67,5.74H88.47l-2.68-4.46-1.3,1.4v3.06h-2Z"/>
              <path d="M95.87,148a4.66,4.66,0,0,1-1.8-.34,3.7,3.7,0,0,1-1.35-1,4.43,4.43,0,0,1-.86-1.54,6.77,6.77,0,0,1-.29-2,6.7,6.7,0,0,1,.29-2,4.48,4.48,0,0,1,.86-1.55,3.67,3.67,0,0,1,1.35-1,4.48,4.48,0,0,1,1.8-.34,4.3,4.3,0,0,1,1.81.36,3.49,3.49,0,0,1,1.3,1,4.38,4.38,0,0,1,.79,1.48,6.25,6.25,0,0,1,.26,1.82v.74H93.6v.3a2.46,2.46,0,0,0,.64,1.76,2.38,2.38,0,0,0,1.83.69,2.63,2.63,0,0,0,1.46-.38,3.25,3.25,0,0,0,1-1l1.16,1.14a3.71,3.71,0,0,1-1.52,1.38A4.82,4.82,0,0,1,95.87,148Zm0-8.26a2.34,2.34,0,0,0-.93.18,2,2,0,0,0-.72.5,2.39,2.39,0,0,0-.46.77,3.13,3.13,0,0,0-.16,1v.12H98v-.18a2.62,2.62,0,0,0-.56-1.74A1.92,1.92,0,0,0,95.87,139.78Z"/>
              <path d="M105,147.82a1.85,1.85,0,0,1-2.07-2v-5.73h-1.45v-1.6h.79a.87.87,0,0,0,.67-.21,1.06,1.06,0,0,0,.19-.71v-1.63h1.77v2.55h2v1.6h-2v6.16h1.81v1.6Z"/>
              <path d="M110.38,145.32a1.31,1.31,0,0,1,1,.34,1.25,1.25,0,0,1,.32.88v.29a4.14,4.14,0,0,1-.48,1.85,4.86,4.86,0,0,1-1.28,1.63h-1.46a9,9,0,0,0,1-1.12A3.87,3.87,0,0,0,110,148a1.07,1.07,0,0,1-.7-.4,1.2,1.2,0,0,1-.24-.75v-.29a1.22,1.22,0,0,1,.33-.88A1.28,1.28,0,0,1,110.38,145.32Z"/>
              <path d="M122.65,148a4.66,4.66,0,0,1-1.8-.34,3.55,3.55,0,0,1-1.33-1,4.38,4.38,0,0,1-.83-1.54,6.77,6.77,0,0,1-.29-2,6.7,6.7,0,0,1,.29-2,4.43,4.43,0,0,1,.83-1.55,3.52,3.52,0,0,1,1.33-1,4.48,4.48,0,0,1,1.8-.34,3.94,3.94,0,0,1,2.31.63,3.62,3.62,0,0,1,1.31,1.67l-1.62.76a2,2,0,0,0-.69-1,2.06,2.06,0,0,0-1.31-.39,2,2,0,0,0-1.63.68,2.71,2.71,0,0,0-.55,1.75V144a2.71,2.71,0,0,0,.55,1.75,2,2,0,0,0,1.63.67A2.11,2.11,0,0,0,124,146a3,3,0,0,0,.82-1.13l1.49.79a3.7,3.7,0,0,1-1.4,1.78A4.1,4.1,0,0,1,122.65,148Z"/>
              <path d="M134.08,146.27H134a3.78,3.78,0,0,1-.33.67,2.36,2.36,0,0,1-.52.57,2.58,2.58,0,0,1-.76.38,3.17,3.17,0,0,1-1,.15,2.81,2.81,0,0,1-2.26-.94,4,4,0,0,1-.8-2.68v-6h2v5.71c0,1.45.6,2.18,1.8,2.18a3,3,0,0,0,.74-.1,2.22,2.22,0,0,0,.64-.3,1.44,1.44,0,0,0,.45-.5,1.53,1.53,0,0,0,.17-.72v-6.27h2v9.36h-2Z"/>
              <path d="M139.05,147.82v-9.36h2v1.8h.09a2.52,2.52,0,0,1,.83-1.26,2.6,2.6,0,0,1,1.75-.54h.52v1.89h-.78a3.5,3.5,0,0,0-1.79.38,1.23,1.23,0,0,0-.62,1.12v6Z"/>
              <path d="M146.14,147.82v-9.36h2v1.8h.09a2.47,2.47,0,0,1,2.58-1.8h.52v1.89h-.77a3.55,3.55,0,0,0-1.8.38,1.23,1.23,0,0,0-.62,1.12v6Z"/>
              <path d="M156.82,148a4.59,4.59,0,0,1-1.8-.34,3.7,3.7,0,0,1-1.35-1,4.28,4.28,0,0,1-.86-1.54,7,7,0,0,1,0-4,4.32,4.32,0,0,1,.86-1.55,3.67,3.67,0,0,1,1.35-1,4.41,4.41,0,0,1,1.8-.34,4.25,4.25,0,0,1,1.8.36,3.53,3.53,0,0,1,1.31,1,4.2,4.2,0,0,1,.78,1.48,5.93,5.93,0,0,1,.26,1.82v.74h-6.42v.3a2.46,2.46,0,0,0,.64,1.76,2.34,2.34,0,0,0,1.82.69,2.58,2.58,0,0,0,1.46-.38,3.28,3.28,0,0,0,1-1l1.15,1.14a3.68,3.68,0,0,1-1.51,1.38A4.85,4.85,0,0,1,156.82,148Zm0-8.26a2.34,2.34,0,0,0-.93.18,2,2,0,0,0-.72.5,2.39,2.39,0,0,0-.46.77,2.87,2.87,0,0,0-.16,1v.12h4.35v-.18a2.61,2.61,0,0,0-.55-1.74A1.94,1.94,0,0,0,156.82,139.78Z"/>
              <path d="M163.35,147.82v-9.36h2V140h.09a3.15,3.15,0,0,1,.93-1.26,2.59,2.59,0,0,1,1.7-.5,2.77,2.77,0,0,1,2.24.94,4.07,4.07,0,0,1,.8,2.69v5.94h-2v-5.69c0-1.46-.59-2.19-1.76-2.19a2.66,2.66,0,0,0-.75.1,2,2,0,0,0-.66.29,1.72,1.72,0,0,0-.46.51,1.47,1.47,0,0,0-.17.72v6.26Z"/>
              <path d="M176.58,147.82a2.07,2.07,0,0,1-1.55-.53,2,2,0,0,1-.52-1.5v-5.73h-1.46v-1.6h.79a.89.89,0,0,0,.68-.21,1.12,1.12,0,0,0,.19-.71v-1.63h1.76v2.55h2v1.6h-2v6.16h1.82v1.6Z"/>
              <path d="M190.94,138.46h1.89l-3.94,11.22a4.26,4.26,0,0,1-.37.8,2.11,2.11,0,0,1-.48.54,1.83,1.83,0,0,1-.68.3,3.66,3.66,0,0,1-.94.1h-1.13v-1.6h1.59l.54-1.58L184,138.46h2l1.88,5.51.54,2h.09l.59-2Z"/>
              <path d="M198.21,148a4.57,4.57,0,0,1-1.79-.34,3.82,3.82,0,0,1-1.36-1,4.41,4.41,0,0,1-.85-1.54,7,7,0,0,1,0-4,4.46,4.46,0,0,1,.85-1.55,3.79,3.79,0,0,1,1.36-1,4.4,4.4,0,0,1,1.79-.34,4.27,4.27,0,0,1,1.81.36,3.53,3.53,0,0,1,1.31,1,4.2,4.2,0,0,1,.78,1.48,5.93,5.93,0,0,1,.26,1.82v.74H196v.3a2.46,2.46,0,0,0,.64,1.76,2.34,2.34,0,0,0,1.82.69,2.6,2.6,0,0,0,1.46-.38,3.28,3.28,0,0,0,1-1l1.15,1.14a3.68,3.68,0,0,1-1.51,1.38A4.86,4.86,0,0,1,198.21,148Zm0-8.26a2.32,2.32,0,0,0-.92.18,2,2,0,0,0-.72.5,2.39,2.39,0,0,0-.46.77,2.87,2.87,0,0,0-.16,1v.12h4.35v-.18a2.61,2.61,0,0,0-.55-1.74A2,2,0,0,0,198.21,139.78Z"/>
              <path d="M211.61,147.82a1.52,1.52,0,0,1-1.19-.44,1.87,1.87,0,0,1-.5-1.12h-.09a2.38,2.38,0,0,1-1,1.33,3.22,3.22,0,0,1-1.74.45,3.07,3.07,0,0,1-2.24-.76,2.7,2.7,0,0,1-.79-2,2.39,2.39,0,0,1,1-2.11,5.23,5.23,0,0,1,3-.7h1.69v-.79a1.79,1.79,0,0,0-.46-1.33,2,2,0,0,0-1.46-.47,2.29,2.29,0,0,0-1.35.36,3.25,3.25,0,0,0-.89.92l-1.17-1.07a3.82,3.82,0,0,1,1.32-1.3,4.23,4.23,0,0,1,2.21-.51,4.13,4.13,0,0,1,2.79.84,3.06,3.06,0,0,1,1,2.43v4.7h1v1.6Zm-4-1.28a2.63,2.63,0,0,0,1.51-.4,1.26,1.26,0,0,0,.59-1.09V143.7H208.1q-2,0-2,1.26v.32a1.1,1.1,0,0,0,.43.95A1.88,1.88,0,0,0,207.65,146.54Z"/>
              <path d="M214.83,147.82v-9.36h2v1.8h.09a2.52,2.52,0,0,1,.83-1.26,2.6,2.6,0,0,1,1.75-.54H220v1.89h-.78a3.5,3.5,0,0,0-1.79.38,1.23,1.23,0,0,0-.62,1.12v6Z"/>
            </g>
          </g>
        </g>
      </g>
    </g>
  </g>
</svg>
