<svg id="Layer_1" data-name="Layer 1" xmlns="http://www.w3.org/2000/svg" width="288" height="288" viewBox="0 0 288 288">
  <title>dos revenue by market</title>
  <g id="design">
    <g id="Dataviz-Design">
      <g id="Group-26">
        <g id="Group-24">
          <g id="Group-27">
            <polygon id="Fill-1" points="0 288 288 288 288 0 0 0 0 288" fill="#fefefe" fill-rule="evenodd"/>
            <g id="Revenue-by-market-_c" data-name="Revenue-by-market-(c" style="isolation: isolate">
              <g style="isolation: isolate">
                <path d="M50.63,79.25h-2V66.68H54a3.52,3.52,0,0,1,2.67,1,4.39,4.39,0,0,1,.35,5A3.29,3.29,0,0,1,55.2,74l2.72,5.3H55.65l-2.52-5.08h-2.5Zm3.24-6.79a1.67,1.67,0,0,0,1.2-.4,1.51,1.51,0,0,0,.44-1.16V70a1.48,1.48,0,0,0-.44-1.15,1.68,1.68,0,0,0-1.2-.41H50.63v4Z"/>
                <path d="M63.84,79.46a4.48,4.48,0,0,1-1.8-.34,3.79,3.79,0,0,1-1.35-1,4.48,4.48,0,0,1-.86-1.55,7.22,7.22,0,0,1,0-4A4.57,4.57,0,0,1,60.69,71,3.79,3.79,0,0,1,62,70a4.48,4.48,0,0,1,1.8-.34,4.3,4.3,0,0,1,1.81.36A3.49,3.49,0,0,1,67,71a4.38,4.38,0,0,1,.79,1.48A6.3,6.3,0,0,1,68,74.33v.74H61.57v.3a2.53,2.53,0,0,0,.64,1.77,2.41,2.41,0,0,0,1.83.68,2.71,2.71,0,0,0,1.46-.37,3.25,3.25,0,0,0,1-1l1.16,1.14A3.85,3.85,0,0,1,66.14,79,4.94,4.94,0,0,1,63.84,79.46Zm0-8.26a2.34,2.34,0,0,0-.93.18,2.16,2.16,0,0,0-.72.5,2.51,2.51,0,0,0-.46.78,3.11,3.11,0,0,0-.16,1v.12h4.36v-.18a2.57,2.57,0,0,0-.56-1.73A1.89,1.89,0,0,0,63.84,71.2Z"/>
                <path d="M72.25,79.25l-3.19-9.36h2l1.42,4.26.95,3.28h.11l1-3.28,1.46-4.26h1.87l-3.22,9.36Z"/>
                <path d="M83.15,79.46a4.48,4.48,0,0,1-1.8-.34,4,4,0,0,1-1.35-1,4.46,4.46,0,0,1-.85-1.55,7,7,0,0,1,0-4A4.55,4.55,0,0,1,80,71a4,4,0,0,1,1.35-1,4.48,4.48,0,0,1,1.8-.34A4.27,4.27,0,0,1,85,70a3.53,3.53,0,0,1,1.31,1,4.2,4.2,0,0,1,.78,1.48,6,6,0,0,1,.26,1.82v.74H80.89v.3a2.49,2.49,0,0,0,.64,1.77,2.38,2.38,0,0,0,1.82.68,2.68,2.68,0,0,0,1.46-.37,3.28,3.28,0,0,0,1-1L87,77.57A3.82,3.82,0,0,1,85.46,79,5,5,0,0,1,83.15,79.46Zm0-8.26a2.32,2.32,0,0,0-.92.18,2.16,2.16,0,0,0-.72.5,2.33,2.33,0,0,0-.46.78,2.86,2.86,0,0,0-.16,1v.12h4.35v-.18a2.57,2.57,0,0,0-.55-1.73A1.93,1.93,0,0,0,83.15,71.2Z"/>
                <path d="M89.69,79.25V69.89h2v1.54h.09a3.06,3.06,0,0,1,.93-1.26,2.65,2.65,0,0,1,1.7-.5,2.77,2.77,0,0,1,2.24.94,4.08,4.08,0,0,1,.8,2.7v5.94h-2V73.56c0-1.47-.59-2.2-1.76-2.2a3.08,3.08,0,0,0-.75.1,2.22,2.22,0,0,0-.66.3,1.57,1.57,0,0,0-.46.5,1.53,1.53,0,0,0-.17.72v6.27Z"/>
                <path d="M106,77.7h-.08a2.91,2.91,0,0,1-.33.66,2.17,2.17,0,0,1-.52.57,2.59,2.59,0,0,1-.76.39,3.42,3.42,0,0,1-1,.14,2.81,2.81,0,0,1-2.26-.93,4,4,0,0,1-.8-2.69v-6h2v5.7c0,1.45.6,2.18,1.8,2.18a2.64,2.64,0,0,0,.74-.1,2,2,0,0,0,.64-.3,1.67,1.67,0,0,0,.45-.5,1.47,1.47,0,0,0,.17-.72V69.89h2v9.36h-2Z"/>
                <path d="M114.64,79.46a4.41,4.41,0,0,1-1.8-.34,3.79,3.79,0,0,1-1.35-1,4.32,4.32,0,0,1-.86-1.55,7,7,0,0,1,0-4,4.41,4.41,0,0,1,.86-1.55,3.79,3.79,0,0,1,1.35-1,4.41,4.41,0,0,1,1.8-.34,4.25,4.25,0,0,1,1.8.36,3.53,3.53,0,0,1,1.31,1,4.2,4.2,0,0,1,.78,1.48,6,6,0,0,1,.26,1.82v.74h-6.42v.3a2.49,2.49,0,0,0,.64,1.77,2.38,2.38,0,0,0,1.82.68,2.66,2.66,0,0,0,1.46-.37,3.28,3.28,0,0,0,1-1l1.15,1.14A3.82,3.82,0,0,1,116.94,79,5,5,0,0,1,114.64,79.46Zm0-8.26a2.34,2.34,0,0,0-.93.18,2.16,2.16,0,0,0-.72.5,2.33,2.33,0,0,0-.46.78,2.86,2.86,0,0,0-.16,1v.12h4.35v-.18a2.57,2.57,0,0,0-.55-1.73A1.92,1.92,0,0,0,114.64,71.2Z"/>
                <path d="M125.62,65.93h2v5.5h.09a2.57,2.57,0,0,1,1-1.3,2.84,2.84,0,0,1,1.63-.46A3.25,3.25,0,0,1,133.05,71a7.18,7.18,0,0,1,0,7.21,3.25,3.25,0,0,1-2.75,1.29,2.77,2.77,0,0,1-1.63-.47,2.58,2.58,0,0,1-1-1.29h-.09v1.55h-2Zm4.08,11.84a2.12,2.12,0,0,0,1.64-.66,2.42,2.42,0,0,0,.61-1.73V73.76a2.45,2.45,0,0,0-.61-1.74,2.12,2.12,0,0,0-1.64-.66,2.54,2.54,0,0,0-1.51.44,1.37,1.37,0,0,0-.61,1.16v3.21a1.37,1.37,0,0,0,.61,1.16A2.54,2.54,0,0,0,129.7,77.77Z"/>
                <path d="M142.09,69.89H144L140,81.1a3.5,3.5,0,0,1-.37.8,1.78,1.78,0,0,1-1.16.85,4.14,4.14,0,0,1-.93.1h-1.14V81.24H138l.54-1.58-3.4-9.77h2l1.87,5.5.54,2h.09l.59-2Z"/>
                <path d="M150.24,79.25V69.89h2v1.54h.09a4.37,4.37,0,0,1,.35-.68,2.28,2.28,0,0,1,1.21-1,3,3,0,0,1,.94-.13,3.15,3.15,0,0,1,1.7.47,2.69,2.69,0,0,1,1.08,1.44h.05a2.73,2.73,0,0,1,1-1.35,3,3,0,0,1,1.86-.56,2.64,2.64,0,0,1,2.17.94,4.14,4.14,0,0,1,.78,2.7v5.94h-2V73.54a2.67,2.67,0,0,0-.42-1.63,1.51,1.51,0,0,0-1.31-.55,2.84,2.84,0,0,0-.72.1,2,2,0,0,0-.61.3,1.58,1.58,0,0,0-.42.5,1.47,1.47,0,0,0-.16.7v6.29h-2V73.54c0-1.45-.57-2.18-1.71-2.18a2.83,2.83,0,0,0-.71.1,2,2,0,0,0-.62.3,1.52,1.52,0,0,0-.44.5,1.6,1.6,0,0,0-.16.7v6.29Z"/>
                <path d="M173.17,79.25A1.55,1.55,0,0,1,172,78.8a2,2,0,0,1-.5-1.12h-.09a2.29,2.29,0,0,1-1,1.33,3.23,3.23,0,0,1-1.75.45,3.13,3.13,0,0,1-2.24-.75,2.73,2.73,0,0,1-.78-2,2.37,2.37,0,0,1,1-2.1,5.22,5.22,0,0,1,3-.71h1.69v-.79a1.81,1.81,0,0,0-.47-1.33,2,2,0,0,0-1.46-.47,2.34,2.34,0,0,0-1.35.36,3.22,3.22,0,0,0-.88.92L166,71.49a3.73,3.73,0,0,1,1.31-1.31,4.29,4.29,0,0,1,2.22-.51,4.1,4.1,0,0,1,2.79.85,3,3,0,0,1,1,2.43v4.69h1v1.61Zm-4-1.28a2.61,2.61,0,0,0,1.51-.41,1.25,1.25,0,0,0,.6-1.09V75.12h-1.66c-1.35,0-2,.42-2,1.26v.33a1.1,1.1,0,0,0,.42.94A1.9,1.9,0,0,0,169.21,78Z"/>
                <path d="M176.39,79.25V69.89h2v1.8h.09a2.5,2.5,0,0,1,.82-1.26,2.62,2.62,0,0,1,1.75-.54h.52v1.89h-.77a3.49,3.49,0,0,0-1.79.37,1.23,1.23,0,0,0-.62,1.12v6Z"/>
                <path d="M183.49,65.93h2V74.1h.09l1.29-1.68,2.25-2.53h2.29l-3.28,3.61,3.68,5.75h-2.34l-2.69-4.47-1.29,1.41v3.06h-2Z"/>
                <path d="M196.82,79.46a4.48,4.48,0,0,1-1.8-.34,4,4,0,0,1-1.35-1,4.46,4.46,0,0,1-.85-1.55,7,7,0,0,1,0-4,4.55,4.55,0,0,1,.85-1.55A4,4,0,0,1,195,70a4.48,4.48,0,0,1,1.8-.34,4.27,4.27,0,0,1,1.81.36,3.53,3.53,0,0,1,1.31,1,4.2,4.2,0,0,1,.78,1.48,6.3,6.3,0,0,1,.26,1.82v.74h-6.42v.3a2.49,2.49,0,0,0,.64,1.77,2.38,2.38,0,0,0,1.82.68,2.68,2.68,0,0,0,1.46-.37,3.28,3.28,0,0,0,1-1l1.15,1.14A3.82,3.82,0,0,1,199.13,79,5,5,0,0,1,196.82,79.46Zm0-8.26a2.32,2.32,0,0,0-.92.18,2.16,2.16,0,0,0-.72.5,2.33,2.33,0,0,0-.46.78,2.86,2.86,0,0,0-.16,1v.12h4.35v-.18a2.52,2.52,0,0,0-.56-1.73A1.89,1.89,0,0,0,196.82,71.2Z"/>
                <path d="M206,79.25a2.07,2.07,0,0,1-1.55-.54,2,2,0,0,1-.52-1.5V71.49h-1.46v-1.6h.79a.89.89,0,0,0,.68-.22,1.08,1.08,0,0,0,.19-.7V67.33h1.76v2.56h2v1.6h-2v6.15h1.82v1.61Z"/>
              </g>
              <g style="isolation: isolate">
                <path d="M48.18,96.65a12.83,12.83,0,0,1,.24-2.52,12.33,12.33,0,0,1,.68-2.25,10,10,0,0,1,1-1.89,7,7,0,0,1,1.26-1.42h1.86a8.91,8.91,0,0,0-1.33,1.53,9.34,9.34,0,0,0-1,1.8,10.18,10.18,0,0,0-.64,2A9.47,9.47,0,0,0,50,95.93v1.44a9.54,9.54,0,0,0,.23,2,10.64,10.64,0,0,0,.64,2,9.73,9.73,0,0,0,1,1.81,8.48,8.48,0,0,0,1.33,1.52H51.38a7.33,7.33,0,0,1-1.26-1.42,10.63,10.63,0,0,1-1-1.89,12.83,12.83,0,0,1-.68-2.25A13,13,0,0,1,48.18,96.65Z"/>
                <path d="M58.31,102.46a4.48,4.48,0,0,1-1.8-.34,3.72,3.72,0,0,1-1.33-1,4.6,4.6,0,0,1-.83-1.55,7.46,7.46,0,0,1,0-4A4.69,4.69,0,0,1,55.18,94a3.72,3.72,0,0,1,1.33-1,4.48,4.48,0,0,1,1.8-.34,3.94,3.94,0,0,1,2.31.63A3.6,3.6,0,0,1,61.93,95l-1.62.76a2,2,0,0,0-.69-1,2.12,2.12,0,0,0-1.31-.38,2,2,0,0,0-1.62.67,2.66,2.66,0,0,0-.55,1.75V98.4a2.66,2.66,0,0,0,.55,1.75,2,2,0,0,0,1.62.67,2.11,2.11,0,0,0,1.38-.42,3,3,0,0,0,.82-1.12l1.49.79a3.72,3.72,0,0,1-1.4,1.77A4,4,0,0,1,58.31,102.46Z"/>
                <path d="M69.74,100.7h-.07a2.91,2.91,0,0,1-.33.66,2.17,2.17,0,0,1-.52.57,2.72,2.72,0,0,1-.76.39,3.44,3.44,0,0,1-1,.14,2.8,2.8,0,0,1-2.25-.93A4,4,0,0,1,64,98.84v-6h2v5.7c0,1.45.6,2.18,1.8,2.18a2.57,2.57,0,0,0,.73-.1,1.89,1.89,0,0,0,.64-.3,1.44,1.44,0,0,0,.45-.5,1.37,1.37,0,0,0,.17-.72V92.89h2v9.36h-2Z"/>
                <path d="M74.71,102.25V92.89h2v1.8h.09a2.47,2.47,0,0,1,2.58-1.8h.52v1.89h-.77a3.49,3.49,0,0,0-1.79.37,1.24,1.24,0,0,0-.63,1.12v6Z"/>
                <path d="M81.8,102.25V92.89h2v1.8h.09a2.5,2.5,0,0,1,.82-1.26,2.62,2.62,0,0,1,1.75-.54H87v1.89h-.77a3.49,3.49,0,0,0-1.79.37,1.23,1.23,0,0,0-.62,1.12v6Z"/>
                <path d="M92.48,102.46a4.48,4.48,0,0,1-1.8-.34,3.79,3.79,0,0,1-1.35-1,4.48,4.48,0,0,1-.86-1.55,7.22,7.22,0,0,1,0-4A4.57,4.57,0,0,1,89.33,94a3.79,3.79,0,0,1,1.35-1,4.48,4.48,0,0,1,1.8-.34,4.3,4.3,0,0,1,1.81.36,3.57,3.57,0,0,1,1.3,1,4.2,4.2,0,0,1,.78,1.48,6,6,0,0,1,.27,1.82v.74H90.21v.3a2.49,2.49,0,0,0,.64,1.77,2.38,2.38,0,0,0,1.83.68,2.65,2.65,0,0,0,1.45-.37,3.18,3.18,0,0,0,1-1l1.15,1.14A3.75,3.75,0,0,1,94.78,102,5,5,0,0,1,92.48,102.46Zm0-8.26a2.34,2.34,0,0,0-.93.18,2.16,2.16,0,0,0-.72.5,2.33,2.33,0,0,0-.46.78,2.86,2.86,0,0,0-.16,1v.12h4.36v-.18A2.57,2.57,0,0,0,94,94.86,1.89,1.89,0,0,0,92.48,94.2Z"/>
                <path d="M99,102.25V92.89h2v1.54h.09a3.24,3.24,0,0,1,.93-1.26,2.65,2.65,0,0,1,1.7-.5,2.77,2.77,0,0,1,2.24.94,4,4,0,0,1,.8,2.7v5.94h-2V96.56c0-1.47-.59-2.2-1.76-2.2a3.22,3.22,0,0,0-.75.1,2.47,2.47,0,0,0-.66.3A1.46,1.46,0,0,0,101,96v6.27Z"/>
                <path d="M112.24,102.25a1.85,1.85,0,0,1-2.07-2V94.49h-1.46v-1.6h.8a.88.88,0,0,0,.67-.22,1,1,0,0,0,.19-.7V90.33h1.76v2.56h2v1.6h-2v6.15H114v1.61Z"/>
                <path d="M126.61,92.89h1.89l-4,11.21a3.5,3.5,0,0,1-.37.8,1.78,1.78,0,0,1-1.16.85,4.14,4.14,0,0,1-.93.1H121v-1.61h1.59l.54-1.58-3.4-9.77h2l1.87,5.5.54,2h.09l.59-2Z"/>
                <path d="M133.88,102.46a4.45,4.45,0,0,1-1.8-.34,3.79,3.79,0,0,1-1.35-1,4.32,4.32,0,0,1-.86-1.55,7.22,7.22,0,0,1,0-4,4.41,4.41,0,0,1,.86-1.55,3.79,3.79,0,0,1,1.35-1,4.45,4.45,0,0,1,1.8-.34,4.33,4.33,0,0,1,1.81.36,3.57,3.57,0,0,1,1.3,1,4.2,4.2,0,0,1,.78,1.48,6,6,0,0,1,.27,1.82v.74h-6.43v.3a2.49,2.49,0,0,0,.64,1.77,2.38,2.38,0,0,0,1.83.68,2.65,2.65,0,0,0,1.45-.37,3.18,3.18,0,0,0,1-1l1.15,1.14a3.75,3.75,0,0,1-1.51,1.38A5,5,0,0,1,133.88,102.46Zm0-8.26a2.34,2.34,0,0,0-.93.18,2.16,2.16,0,0,0-.72.5,2.33,2.33,0,0,0-.46.78,2.86,2.86,0,0,0-.16,1v.12H136v-.18a2.57,2.57,0,0,0-.56-1.73A1.91,1.91,0,0,0,133.88,94.2Z"/>
                <path d="M147.27,102.25a1.54,1.54,0,0,1-1.19-.45,2,2,0,0,1-.5-1.12h-.09a2.29,2.29,0,0,1-1,1.33,3.23,3.23,0,0,1-1.75.45,3.11,3.11,0,0,1-2.24-.75,2.73,2.73,0,0,1-.78-2,2.39,2.39,0,0,1,1-2.1,5.25,5.25,0,0,1,3-.71h1.7v-.79a1.81,1.81,0,0,0-.47-1.33,2,2,0,0,0-1.46-.47,2.34,2.34,0,0,0-1.35.36,3.22,3.22,0,0,0-.88.92l-1.17-1.06a3.73,3.73,0,0,1,1.31-1.31,4.27,4.27,0,0,1,2.22-.51,4.1,4.1,0,0,1,2.79.85,3.06,3.06,0,0,1,1,2.43v4.69h1v1.61Zm-4-1.28a2.61,2.61,0,0,0,1.51-.41,1.25,1.25,0,0,0,.6-1.09V98.12h-1.66c-1.36,0-2,.42-2,1.26v.33a1.1,1.1,0,0,0,.42.94A1.9,1.9,0,0,0,143.31,101Z"/>
                <path d="M150.49,102.25V92.89h2v1.8h.09a2.47,2.47,0,0,1,2.58-1.8h.52v1.89h-.77a3.49,3.49,0,0,0-1.79.37,1.24,1.24,0,0,0-.63,1.12v6Z"/>
                <path d="M161.09,96.65a13,13,0,0,1-.24,2.52,12.82,12.82,0,0,1-.67,2.25,10.63,10.63,0,0,1-1,1.89,7.05,7.05,0,0,1-1.27,1.42H156a8.89,8.89,0,0,0,1.33-1.52,11,11,0,0,0,1-1.81,11.4,11.4,0,0,0,.63-2,9,9,0,0,0,.23-2V95.93a8.89,8.89,0,0,0-.23-2.05,10.88,10.88,0,0,0-.63-2,10.54,10.54,0,0,0-1-1.8A9.37,9.37,0,0,0,156,88.57h1.85A6.79,6.79,0,0,1,159.16,90a10,10,0,0,1,1,1.89,12.33,12.33,0,0,1,.67,2.25A12.83,12.83,0,0,1,161.09,96.65Z"/>
              </g>
            </g>
          </g>
        </g>
      </g>
    </g>
  </g>
</svg>
