<svg xmlns="http://www.w3.org/2000/svg" xmlns:xlink="http://www.w3.org/1999/xlink" viewBox="0 0 288 288"><defs><linearGradient x1="20.838%" y1="93.126%" x2="78.302%" y2="6.54%" id="b"><stop stop-color="#BD1250" offset="0%"/><stop stop-color="#00812E" offset="100%"/></linearGradient><path d="M17.25 30.28c-.8.828-.782 2.127.035 2.938a2.069 2.069 0 002.92-.04C36.427 16.583 57.415 7.82 80.92 7.82h.322c22.068.075 43.832 9.424 59.72 25.645.402.42.937.627 1.471.627a2.04 2.04 0 001.45-.598 2.063 2.063 0 00.04-2.921C127.265 13.564 104.42 3.755 81.259 3.674c-24.73.138-46.914 9.12-64.009 26.605M8.217 65.74a2.071 2.071 0 103.455 2.283c11.92-18.089 32-42.141 68.638-42.141 25.41 0 48.939 12.684 62.94 33.942a2.082 2.082 0 002.863.587 2.076 2.076 0 00.593-2.87c-14.772-22.413-39.59-35.8-66.396-35.8-38.64 0-59.65 25.111-72.093 44m23.523-.868c-1.104 1.374-2.311 2.978-3.622 4.726-5.796 7.728-13.743 18.314-23.156 22.126a2.07 2.07 0 101.552 3.841c10.483-4.25 18.826-15.37 24.916-23.489 1.282-1.696 2.46-3.266 3.536-4.605C44.78 55.228 56.367 43.285 80.31 43.285c31.7 0 51.319 23.788 51.319 45.828 0 9.815-.995 14.179-1.966 18.4-.903 3.956-1.766 7.687-1.766 15.105 0 11.89 2.525 19.877 15.393 25.478a2.063 2.063 0 002.72-1.07 2.06 2.06 0 00-1.07-2.725c-9.763-4.255-12.897-9.522-12.897-21.683 0-6.952.805-10.46 1.656-14.18.972-4.237 2.076-9.044 2.076-19.325 0-24.035-21.206-49.974-55.465-49.974-25.777 0-38.128 12.713-48.57 25.731m10.126 16.612C32.252 97.761 18.475 110.446 5.02 115.42a2.08 2.08 0 00-1.225 2.662 2.084 2.084 0 002.662 1.225c20.637-7.63 34.132-27.52 38.968-35.713 5.043-8.533 16.278-22.84 34.885-22.84 22.075 0 33.839 19.137 33.839 32.954 0 7.688-1.27 13.742-2.501 19.602-1.041 4.95-2.019 9.636-2.019 14.616 0 11.5 3.968 26.766 22.845 34.19.248.097.506.149.76.149.821 0 1.603-.5 1.925-1.317a2.078 2.078 0 00-1.167-2.685c-16.715-6.567-20.222-20.125-20.222-30.337 0-4.554.937-9.028 1.931-13.766 1.214-5.784 2.588-12.339 2.588-20.452 0-17.917-15.26-37.1-37.979-37.1-20.66 0-32.953 15.583-38.444 24.875m107.697-11.81a2.077 2.077 0 00-1 2.754c4.065 8.677 4.629 16.272 4.629 23.184 0 12.725-3.215 25.018-8.39 32.096a2.08 2.08 0 00.449 2.899c.368.27.799.396 1.219.396.638 0 1.265-.293 1.673-.85 5.67-7.746 9.194-20.988 9.194-34.541 0-7.038-.603-15.502-5.02-24.938a2.081 2.081 0 00-1.874-1.201 2.02 2.02 0 00-.88.2M52.337 98.016c-3.663 5.502-7.125 10.7-10.776 14.265-10.465 10.23-21.43 16.388-33.655 22.822a2.07 2.07 0 101.926 3.663c12.518-6.59 23.76-12.903 34.621-23.518 3.962-3.875 7.538-9.251 11.328-14.938 7.199-10.805 14.634-21.977 24.53-21.977 11.137 0 17.146 9.453 17.146 18.354 0 14.6-11.644 27.916-18.578 34.558-13.197 12.621-26.336 23.057-42.574 33.833a2.078 2.078 0 00-.586 2.869 2.07 2.07 0 001.73.926c.392 0 .794-.11 1.145-.345 16.456-10.914 29.762-21.494 43.142-34.293 7.418-7.09 19.855-21.408 19.855-37.548 0-11.051-7.964-22.5-21.28-22.5-12.11 0-20.178 12.121-27.975 23.828m26.26-.724c-13.633 25.599-38.91 44.77-57.712 56.344a2.071 2.071 0 102.174 3.525c19.233-11.84 45.12-31.51 59.19-57.925a2.065 2.065 0 00-.851-2.8 2.051 2.051 0 00-.972-.248 2.07 2.07 0 00-1.828 1.104m15.07 37.317c-1.322 3.318-2.11 7.66-2.11 11.593 0 10.746 6.866 21.625 17.912 28.382a2.058 2.058 0 002.846-.684 2.061 2.061 0 00-.685-2.841c-9.82-6.02-15.933-15.542-15.933-24.857 0-2.657.477-6.694 1.817-10.069a2.08 2.08 0 00-1.155-2.69 2.153 2.153 0 00-.754-.139c-.828 0-1.615.483-1.938 1.305m-41.152 38.434a2.077 2.077 0 00.557 2.875c.95.62 2.237.385 2.875-.564 4.658-6.9 9.068-11.172 16.664-11.172 8.263 0 12.69 7.388 13.311 14.26.098 1.075 1 1.88 2.065 1.88.057 0 .12-.006.184-.011a2.061 2.061 0 001.874-2.243c-.776-8.683-6.572-18.032-17.434-18.032-9.942 0-15.537 6.25-20.096 13.007" id="a"/></defs><g fill="none" fill-rule="evenodd"><path fill="#FFF" d="M0 0h288v288H0z"/><path d="M52 236h184V52H52z"/><g transform="translate(63.5 52)"><mask id="c" fill="#fff"><use xlink:href="#a"/></mask><path d="M17.25 30.28c-.8.828-.782 2.127.035 2.938a2.069 2.069 0 002.92-.04C36.427 16.583 57.415 7.82 80.92 7.82h.322c22.068.075 43.832 9.424 59.72 25.645.402.42.937.627 1.471.627a2.04 2.04 0 001.45-.598 2.063 2.063 0 00.04-2.921C127.265 13.564 104.42 3.755 81.259 3.674c-24.73.138-46.914 9.12-64.009 26.605M8.217 65.74a2.071 2.071 0 103.455 2.283c11.92-18.089 32-42.141 68.638-42.141 25.41 0 48.939 12.684 62.94 33.942a2.082 2.082 0 002.863.587 2.076 2.076 0 00.593-2.87c-14.772-22.413-39.59-35.8-66.396-35.8-38.64 0-59.65 25.111-72.093 44m23.523-.868c-1.104 1.374-2.311 2.978-3.622 4.726-5.796 7.728-13.743 18.314-23.156 22.126a2.07 2.07 0 101.552 3.841c10.483-4.25 18.826-15.37 24.916-23.489 1.282-1.696 2.46-3.266 3.536-4.605C44.78 55.228 56.367 43.285 80.31 43.285c31.7 0 51.319 23.788 51.319 45.828 0 9.815-.995 14.179-1.966 18.4-.903 3.956-1.766 7.687-1.766 15.105 0 11.89 2.525 19.877 15.393 25.478a2.063 2.063 0 002.72-1.07 2.06 2.06 0 00-1.07-2.725c-9.763-4.255-12.897-9.522-12.897-21.683 0-6.952.805-10.46 1.656-14.18.972-4.237 2.076-9.044 2.076-19.325 0-24.035-21.206-49.974-55.465-49.974-25.777 0-38.128 12.713-48.57 25.731m10.126 16.612C32.252 97.761 18.475 110.446 5.02 115.42a2.08 2.08 0 00-1.225 2.662 2.084 2.084 0 002.662 1.225c20.637-7.63 34.132-27.52 38.968-35.713 5.043-8.533 16.278-22.84 34.885-22.84 22.075 0 33.839 19.137 33.839 32.954 0 7.688-1.27 13.742-2.501 19.602-1.041 4.95-2.019 9.636-2.019 14.616 0 11.5 3.968 26.766 22.845 34.19.248.097.506.149.76.149.821 0 1.603-.5 1.925-1.317a2.078 2.078 0 00-1.167-2.685c-16.715-6.567-20.222-20.125-20.222-30.337 0-4.554.937-9.028 1.931-13.766 1.214-5.784 2.588-12.339 2.588-20.452 0-17.917-15.26-37.1-37.979-37.1-20.66 0-32.953 15.583-38.444 24.875m107.697-11.81a2.077 2.077 0 00-1 2.754c4.065 8.677 4.629 16.272 4.629 23.184 0 12.725-3.215 25.018-8.39 32.096a2.08 2.08 0 00.449 2.899c.368.27.799.396 1.219.396.638 0 1.265-.293 1.673-.85 5.67-7.746 9.194-20.988 9.194-34.541 0-7.038-.603-15.502-5.02-24.938a2.081 2.081 0 00-1.874-1.201 2.02 2.02 0 00-.88.2M52.337 98.016c-3.663 5.502-7.125 10.7-10.776 14.265-10.465 10.23-21.43 16.388-33.655 22.822a2.07 2.07 0 101.926 3.663c12.518-6.59 23.76-12.903 34.621-23.518 3.962-3.875 7.538-9.251 11.328-14.938 7.199-10.805 14.634-21.977 24.53-21.977 11.137 0 17.146 9.453 17.146 18.354 0 14.6-11.644 27.916-18.578 34.558-13.197 12.621-26.336 23.057-42.574 33.833a2.078 2.078 0 00-.586 2.869 2.07 2.07 0 001.73.926c.392 0 .794-.11 1.145-.345 16.456-10.914 29.762-21.494 43.142-34.293 7.418-7.09 19.855-21.408 19.855-37.548 0-11.051-7.964-22.5-21.28-22.5-12.11 0-20.178 12.121-27.975 23.828m26.26-.724c-13.633 25.599-38.91 44.77-57.712 56.344a2.071 2.071 0 102.174 3.525c19.233-11.84 45.12-31.51 59.19-57.925a2.065 2.065 0 00-.851-2.8 2.051 2.051 0 00-.972-.248 2.07 2.07 0 00-1.828 1.104m15.07 37.317c-1.322 3.318-2.11 7.66-2.11 11.593 0 10.746 6.866 21.625 17.912 28.382a2.058 2.058 0 002.846-.684 2.061 2.061 0 00-.685-2.841c-9.82-6.02-15.933-15.542-15.933-24.857 0-2.657.477-6.694 1.817-10.069a2.08 2.08 0 00-1.155-2.69 2.153 2.153 0 00-.754-.139c-.828 0-1.615.483-1.938 1.305m-41.152 38.434a2.077 2.077 0 00.557 2.875c.95.62 2.237.385 2.875-.564 4.658-6.9 9.068-11.172 16.664-11.172 8.263 0 12.69 7.388 13.311 14.26.098 1.075 1 1.88 2.065 1.88.057 0 .12-.006.184-.011a2.061 2.061 0 001.874-2.243c-.776-8.683-6.572-18.032-17.434-18.032-9.942 0-15.537 6.25-20.096 13.007" fill="url(#b)" mask="url(#c)"/></g></g></svg>