<?xml version="1.0" encoding="UTF-8"?>
<svg width="288px" height="288px" viewBox="0 0 288 288" version="1.1" xmlns="http://www.w3.org/2000/svg" xmlns:xlink="http://www.w3.org/1999/xlink">
    <!-- Generator: Sketch 51.2 (57519) - http://www.bohemiancoding.com/sketch -->
    <title>Group 3</title>
    <desc>Created with Sketch.</desc>
    <defs>
        <path d="M45.0972547,22.3864929 L42.090771,19.3729265 L25.7698598,35.7322867 L18.0389019,27.9831161 L15.0324182,30.9966825 L25.7698598,41.7594194 L45.0972547,22.3864929 Z M30.0648364,0 C13.5291764,0 0,13.5610486 0,30.1356635 C0,46.7102784 13.5291764,60.271327 30.0648364,60.271327 C46.6004965,60.271327 60.1296729,46.7102784 60.1296729,30.1356635 C60.1296729,13.5610486 46.6004965,0 30.0648364,0 Z M30.0648364,55.9662322 C15.8914136,55.9662322 4.29497664,44.3424763 4.29497664,30.1356635 C4.29497664,15.9288507 15.8914136,4.30509479 30.0648364,4.30509479 C44.2382593,4.30509479 55.8346963,15.9288507 55.8346963,30.1356635 C55.8346963,44.3424763 44.2382593,55.9662322 30.0648364,55.9662322 Z" id="path-1"></path>
        <path d="M25.778673,15.0729849 C25.778673,11.5053079 28.6640493,8.61313423 32.2233413,8.61313423 C35.7826333,8.61313423 38.6680096,11.5053079 38.6680096,15.0729849 C38.6680096,16.7862438 37.9890197,18.4293321 36.7804099,19.6407891 C35.5718002,20.8522461 33.9325736,21.5328356 32.2233413,21.5328356 C28.6640493,21.5328356 25.778673,18.6406619 25.778673,15.0729849 Z M32.2233413,12.9197014 C31.0369106,12.9197014 30.0751185,13.8837592 30.0751185,15.0729849 C30.0751185,16.2622106 31.0369106,17.2262685 32.2233413,17.2262685 C33.409772,17.2262685 34.371564,16.2622106 34.371564,15.0729849 C34.371564,13.8837592 33.409772,12.9197014 32.2233413,12.9197014 Z M47.583134,-6.83963696e-16 L3.97421209,-6.83963696e-16 C1.77931536,-3.55271368e-15 0,1.78350709 0,3.98357458 L0,47.6952308 C-1.90800509e-15,48.7517405 0.418710429,49.7649783 1.16401977,50.5120434 C1.90932912,51.2591086 2.92018551,51.6788054 3.97421209,51.6788054 L47.583134,51.6788054 C48.6371606,51.6788054 49.648017,51.2591086 50.3933263,50.5120434 C51.1386356,49.7649783 51.5573461,48.7517405 51.5573461,47.6952308 L51.5573461,3.98357458 C51.5573461,1.78350709 49.7780307,-3.55271368e-15 47.583134,-6.83963696e-16 Z M47.2609006,4.30656712 L47.2609006,37.3164041 L39.2265475,29.2631236 C38.4206707,28.4544491 37.3271286,28.0000649 36.1868123,28.0000649 C35.0464959,28.0000649 33.9529539,28.4544491 33.1470771,29.2631236 L30.0751185,32.4069176 L18.2598934,20.6499893 C17.4540166,19.8413149 16.3604746,19.3869307 15.2201582,19.3869307 C14.0798418,19.3869307 12.9862998,19.8413149 12.180423,20.6499893 L4.29644551,28.55254 L4.29644551,4.30656712 L47.2609006,4.30656712 Z M4.29644551,47.3722383 L4.29644551,34.6247996 L15.2094171,23.6861191 L26.9601955,35.4645802 C27.7660723,36.2732547 28.8596144,36.7276389 29.9999307,36.7276389 C31.1402471,36.7276389 32.2337891,36.2732547 33.0396659,35.4645802 L36.1760712,32.2992534 L47.2609006,43.4101965 L47.2609006,47.3722383 L4.29644551,47.3722383 Z" id="path-3"></path>
        <path d="M0.100693092,57.273063 L57.1964266,0.177329439 L60.2405884,3.22149116 L3.14485481,60.3172247 L0.100693092,57.273063 Z M55.3877005,36.4035626 L47.3560942,33.1532161 C45.7602039,32.5092533 43.9349326,32.8819437 42.7175195,34.1003369 L38.0574698,38.7283138 C36.174366,38.4144122 34.3451357,37.8346368 32.6243244,37.0062759 L29.4460417,40.192046 C32.2411408,41.773181 35.3213878,42.7828386 38.5084424,43.1625614 L39.5392368,43.2917143 L45.7025282,37.1569542 L53.7985592,40.4073008 L53.7985592,51.772751 C53.7996269,52.3667403 53.5557739,52.9347704 53.1247247,53.3423786 C52.6936755,53.7499868 52.1137481,53.9609388 51.5222216,53.9252984 C41.8556427,53.6998474 32.4714026,50.6143257 24.5497683,45.0568031 L21.5862344,48.0703695 C28.6299961,53.4947889 38.2292689,57.4554761 51.3289476,58.2088677 L51.6510709,58.2088677 C55.209146,58.2088677 58.0935358,55.3176828 58.0935358,51.7512255 L58.0935358,40.4073008 C58.0952397,38.6430564 57.0228885,37.0563325 55.3877005,36.4035626 Z M6.5538162,8.89400693 C6.50576453,8.29391452 6.71062073,7.70107433 7.11867816,7.2593341 C7.52673559,6.81759386 8.10070029,6.56732594 8.70130452,6.56925575 L20.0400428,6.56925575 L23.2612753,14.6843594 L17.1838834,20.8621704 L17.3127327,21.8953932 C17.8566718,25.0335016 18.9161625,28.0594361 20.4480656,30.8499903 L23.5833986,27.7072712 C22.7675226,25.998521 22.1548637,24.199563 21.7580335,22.3474281 L26.3321836,17.7194512 C27.5657237,16.4911751 27.9387598,14.638597 27.2770785,13.0268979 L24.0343711,4.97637068 C23.3831354,3.3373305 21.8001408,2.26245307 20.0400428,2.26416096 L8.70130452,2.26416096 C6.90353274,2.25885664 5.18532244,3.00674449 3.96186494,4.3271036 C2.73840744,5.64746271 2.12100201,7.42017857 2.25883956,9.21688904 C2.99999902,19.8375667 6.55057454,30.0685904 12.5453086,38.8574666 L15.5517923,35.8439003 C10.2496613,27.8054599 7.1468251,18.5121362 6.5538162,8.89400693 Z" id="path-5"></path>
        <path d="M0,53.8136848 L55.8346963,53.8136848 L55.8346963,58.1187796 L0,58.1187796 L0,53.8136848 Z M48.1340179,15.0678318 C49.8096578,13.3861767 49.8096578,10.6618675 48.1340179,8.98021247 L40.4331248,1.26117752 C38.7545423,-0.416277744 36.0383956,-0.416277744 34.3598131,1.26117752 L2.14748832,33.5493884 L2.14748832,47.3560427 L15.9216931,47.3560427 L48.1340179,15.0678318 Z M37.3944288,4.30294224 L45.0972547,12.0239145 L38.6547897,18.4815567 L30.9523934,10.7610149 L37.3944288,4.30294224 Z M6.44246495,43.0509479 L6.44246495,35.3321282 L27.9158449,13.8051475 L35.6180265,21.5254739 L14.1431433,43.0509479 L6.44246495,43.0509479 Z" id="path-7"></path>
    </defs>
    <g id="Page-1" stroke="none" stroke-width="1" fill="none" fill-rule="evenodd">
        <g id="Typography_Mobile_320px-Copy-6" transform="translate(-16.000000, -702.000000)">
            <g id="Group-3" transform="translate(16.000000, 702.000000)">
                <rect id="Rectangle-3-Copy-4" fill="#FFFFFF" x="0" y="0" width="288" height="288"></rect>
                <g id="Group-7" transform="translate(58.000000, 60.000000)">
                    <g id="icon/status/checkmark/32" transform="translate(1.000000, 100.118483)">
                        <g id="checkmark" transform="translate(4.294977, 4.305095)">
                            <mask id="mask-2" fill="white">
                                <use xlink:href="#path-1"></use>
                            </mask>
                            <use id="Mask" fill="#000000" fill-rule="nonzero" xlink:href="#path-1"></use>
                        </g>
                        <rect id="transparent-rectangle" x="0" y="0" width="68.7196262" height="68.8815166"></rect>
                    </g>
                    <g id="image" transform="translate(112.070093, 108.928910)">
                        <mask id="mask-4" fill="white">
                            <use xlink:href="#path-3"></use>
                        </mask>
                        <use id="Mask" fill="#000000" fill-rule="nonzero" xlink:href="#path-3"></use>
                    </g>
                    <g id="Group" transform="translate(1.000000, 0.000000)">
                        <g id="phone--off" transform="translate(4.183625, 4.193481)">
                            <mask id="mask-6" fill="white">
                                <use xlink:href="#path-5"></use>
                            </mask>
                            <use id="Mask" fill="#000000" fill-rule="nonzero" xlink:href="#path-5"></use>
                        </g>
                        <rect id="transparent-rectangle" x="0" y="0" width="68.7196262" height="68.8815166"></rect>
                    </g>
                    <g id="icon/formatting/image/32" transform="translate(103.280374, 0.000000)">
                        <g id="edit" transform="translate(6.442465, 4.305095)">
                            <mask id="mask-8" fill="white">
                                <use xlink:href="#path-7"></use>
                            </mask>
                            <use id="Mask" fill="#000000" fill-rule="nonzero" xlink:href="#path-7"></use>
                        </g>
                        <rect id="transparent-rectangle" x="0" y="0" width="68.7196262" height="68.8815166"></rect>
                    </g>
                    <path d="M34.7593458,-13.6161137 L34.7593458,83.2985782" id="Path-3" stroke="#97C1FF" transform="translate(34.759346, 34.841232) rotate(45.000000) translate(-34.759346, -34.841232) "></path>
                    <path d="M130.049065,-8.81042654 L130.049065,55.2654028" id="Path-3" stroke="#97C1FF" transform="translate(130.049065, 23.227488) rotate(45.000000) translate(-130.049065, -23.227488) "></path>
                    <path d="M143.633178,5.60663507 L143.633178,36.8436019" id="Path-3" stroke="#97C1FF" transform="translate(143.633178, 21.225118) scale(-1, 1) rotate(45.000000) translate(-143.633178, -21.225118) "></path>
                    <path d="M38.9556075,115.336493 L38.9556075,155.383886" id="Path-3" stroke="#97C1FF" transform="translate(38.955607, 135.360190) scale(1, -1) rotate(135.000000) translate(-38.955607, -135.360190) "></path>
                    <path d="M120.661215,119.341232 L120.661215,153.781991" id="Path-3" stroke="#97C1FF" transform="translate(120.661215, 136.561611) scale(1, -1) rotate(135.000000) translate(-120.661215, -136.561611) "></path>
                    <path d="M134.044393,119.341232 L134.044393,153.781991" id="Path-3" stroke="#97C1FF" transform="translate(134.044393, 136.561611) scale(-1, -1) rotate(135.000000) translate(-134.044393, -136.561611) "></path>
                    <path d="M27.7686916,125.748815 L27.7686916,152.981043" id="Path-3" stroke="#97C1FF" transform="translate(27.768692, 139.364929) scale(-1, -1) rotate(135.000000) translate(-27.768692, -139.364929) "></path>
                </g>
            </g>
        </g>
    </g>
</svg>