<svg id="Layer_1" data-name="Layer 1" xmlns="http://www.w3.org/2000/svg" xmlns:xlink="http://www.w3.org/1999/xlink" viewBox="0 0 448 448"><defs><style>.cls-1{fill:url(#linear-gradient);}.cls-2{fill:none;stroke:#f3f3f3;stroke-miterlimit:10;}.cls-3{fill:#f3f3f3;}</style><linearGradient id="linear-gradient" x1="89.33" y1="358.67" x2="358.67" y2="89.33" gradientUnits="userSpaceOnUse"><stop offset="0.1" stop-color="#fa75a6"/><stop offset="0.9" stop-color="#a970ff"/></linearGradient></defs><title>Artboard 5 copy 122</title><rect width="448" height="448"/><rect class="cls-1" x="89.33" y="89.33" width="269.34" height="269.34"/><line class="cls-2" x1="233.86" y1="214.14" x2="327.78" y2="120.22"/><rect class="cls-3" x="327.28" y="116.97" width="1" height="6.5" transform="translate(11 266.99) rotate(-45)"/><line class="cls-2" x1="214.14" y1="233.86" x2="120.22" y2="327.78"/><rect class="cls-3" x="119.72" y="324.53" width="1" height="6.5" transform="translate(-196.54 180.96) rotate(-44.99)"/><path class="cls-3" d="M218.49,228.42v-1.64h-4v-.89l3.5-5.84h1.5v5.89h1.21v.84h-1.21v1.64Zm-3.09-2.48h3.09v-5.11h-.06Z"/><path class="cls-3" d="M227.16,220.94h-3.67l-.24,3.19h.09a1.86,1.86,0,0,1,1.71-.93,2.4,2.4,0,0,1,2.5,2.59,2.62,2.62,0,0,1-2.82,2.77,3,3,0,0,1-2.61-1.42l.75-.58a2,2,0,0,0,1.86,1.1,1.57,1.57,0,0,0,1.75-1.73v-.12a1.57,1.57,0,0,0-1.75-1.74,1.83,1.83,0,0,0-1.5.7l-.85-.11.3-4.61h4.48Z"/><path class="cls-3" d="M229.18,222a2,2,0,1,1,2,2.06A2,2,0,0,1,229.18,222Zm3.19,0a1.18,1.18,0,1,0-1.17,1.29A1.19,1.19,0,0,0,232.37,222Z"/></svg>