<svg data-name="Layer 1" xmlns="http://www.w3.org/2000/svg" xmlns:xlink="http://www.w3.org/1999/xlink" viewBox="0 0 288 288"><defs><linearGradient id="b" x1="50.94" y1="232.66" x2="232.82" y2="50.78" gradientUnits="userSpaceOnUse"><stop offset=".1" stop-color="#00bab6"/><stop offset=".9" stop-color="#0062ff"/></linearGradient><linearGradient id="a" x1="4254.17" y1="-7543.94" x2="4300.05" y2="-7543.94" gradientTransform="translate(-4133.11 7687.94)" gradientUnits="userSpaceOnUse"><stop offset="0" stop-color="#fff" stop-opacity="0"/><stop offset=".7" stop-color="#fff"/></linearGradient><linearGradient id="c" x1="160.93" y1="117.07" x2="206.8" y2="117.07" gradientTransform="translate(-80 47)" xlink:href="#a"/><linearGradient id="d" x1="4723.54" y1="-7434.92" x2="4769.41" y2="-7434.92" gradientTransform="translate(-4562.34 7598.99)" xlink:href="#a"/></defs><path fill="#fff" d="M0 0h288v288H0z"/><path d="M187 178.4h-20.06v-11.46H187a25.79 25.79 0 002-51.5l-4.68-.37-.56-4.65a40.1 40.1 0 00-79.61 0l-.57 4.65-4.67.37a25.79 25.79 0 002 51.5h20.06v11.46H101a37.26 37.26 0 01-7.46-73.76 51.58 51.58 0 01100.93 0A37.26 37.26 0 01187 178.4zm-37.27 23.92v-69.79h-11.46v69.79l-14.85-14.8-8.09 8.09L144 224.28l28.67-28.67-8.08-8.09z" fill="url(#b)"/><path transform="rotate(-90 144 144)" fill="url(#a)" d="M121.07 123.93h45.87v40.14h-45.87z" data-name="Gradients (black)"/><path fill="url(#c)" d="M80.93 144h45.87v40.14H80.93z" data-name="Gradients (black)"/><path transform="rotate(180 184.14 164.07)" fill="url(#d)" d="M161.2 144h45.87v40.14H161.2z" data-name="Gradients (black)"/></svg>