<svg id="Layer_1" data-name="Layer 1" xmlns="http://www.w3.org/2000/svg" xmlns:xlink="http://www.w3.org/1999/xlink" viewBox="0 0 288 288"><defs><style>.cls-1{fill:#fff;}.cls-2{fill:url(#linear-gradient);}.cls-3{fill:url(#linear-gradient-2);}.cls-4{fill:url(#linear-gradient-3);}.cls-5{fill:url(#linear-gradient-4);}</style><linearGradient id="linear-gradient" x1="50.94" y1="232.66" x2="232.82" y2="50.78" gradientUnits="userSpaceOnUse"><stop offset="0.1" stop-color="#00bab6"/><stop offset="0.9" stop-color="#0062ff"/></linearGradient><linearGradient id="linear-gradient-2" x1="4254.17" y1="-7543.94" x2="4300.05" y2="-7543.94" gradientTransform="translate(-4133.11 7687.94)" gradientUnits="userSpaceOnUse"><stop offset="0" stop-color="#fff" stop-opacity="0"/><stop offset="0.7" stop-color="#fff"/></linearGradient><linearGradient id="linear-gradient-3" x1="160.93" y1="117.07" x2="206.8" y2="117.07" gradientTransform="translate(-80 47)" xlink:href="#linear-gradient-2"/><linearGradient id="linear-gradient-4" x1="4723.54" y1="-7434.92" x2="4769.41" y2="-7434.92" gradientTransform="translate(-4562.34 7598.99)" xlink:href="#linear-gradient-2"/></defs><title>Artboard 18 copy 5</title><rect class="cls-1" width="288" height="288"/><path class="cls-2" d="M187,178.4H166.94V166.94H187a25.79,25.79,0,0,0,2-51.5l-4.68-.37-.56-4.65a40.1,40.1,0,0,0-79.61,0l-.57,4.65-4.67.37a25.79,25.79,0,0,0,2,51.5h20.06V178.4H101a37.26,37.26,0,0,1-7.46-73.76,51.58,51.58,0,0,1,100.93,0A37.26,37.26,0,0,1,187,178.4Zm-37.27,23.92V132.53H138.27v69.79l-14.85-14.8-8.09,8.09L144,224.28l28.67-28.67-8.08-8.09Z"/><g id="Gradients_black_" data-name="Gradients (black)"><rect class="cls-3" x="121.07" y="123.93" width="45.87" height="40.14" transform="translate(0 288) rotate(-90)"/></g><g id="Gradients_black_2" data-name="Gradients (black)"><rect class="cls-4" x="80.93" y="144" width="45.87" height="40.14"/></g><g id="Gradients_black_3" data-name="Gradients (black)"><rect class="cls-5" x="161.2" y="144" width="45.87" height="40.14" transform="translate(368.28 328.14) rotate(180)"/></g></svg>