<svg id="Layer_1" data-name="Layer 1" xmlns="http://www.w3.org/2000/svg" viewBox="0 0 288 288"><defs><style>.cls-1{fill:none;stroke-miterlimit:10;stroke:#3d3d3d}</style></defs><path d="M0 0h288v288H0z"/><path class="cls-1" d="M52 52h5.75v184H52zm5.75 0h5.75v184h-5.75zm5.75 0h5.75v184H63.5zm5.75 0H75v184h-5.75zM75 52h5.75v184H75zm5.75 0h5.75v184h-5.75zm5.75 0h5.75v184H86.5zm5.75 0H98v184h-5.75zM98 52h5.75v184H98zm5.75 0h5.75v184h-5.75zm5.75 0h5.75v184h-5.75zm5.75 0H121v184h-5.75zm5.75 0h5.75v184H121zm5.75 0h5.75v184h-5.75zm5.75 0h5.75v184h-5.75zm5.75 0H144v184h-5.75zm5.75 0h5.75v184H144zm5.75 0h5.75v184h-5.75zm5.75 0h5.75v184h-5.75zm5.75 0H167v184h-5.75zm5.75 0h5.75v184H167zm5.75 0h5.75v184h-5.75zm5.75 0h5.75v184h-5.75zm5.75 0H190v184h-5.75zm5.75 0h5.75v184H190zm5.75 0h5.75v184h-5.75zm5.75 0h5.75v184h-5.75zm5.75 0H213v184h-5.75zm5.75 0h5.75v184H213zm5.75 0h5.75v184h-5.75zm5.75 0h5.75v184h-5.75zm5.75 0H236v184h-5.75z"/><path class="cls-1" transform="rotate(90 144 54.88)" d="M141.13-37.12h5.75v184h-5.75z"/><path class="cls-1" transform="rotate(90 144 60.63)" d="M141.13-31.37h5.75v184h-5.75z"/><path class="cls-1" transform="rotate(90 144 66.38)" d="M141.13-25.62h5.75v184h-5.75z"/><path class="cls-1" transform="rotate(90 144 72.13)" d="M141.13-19.87h5.75v184h-5.75z"/><path class="cls-1" transform="rotate(90 144 77.88)" d="M141.13-14.12h5.75v184h-5.75z"/><path class="cls-1" transform="rotate(90 144 83.63)" d="M141.13-8.37h5.75v184h-5.75z"/><path class="cls-1" transform="rotate(90 144 89.38)" d="M141.13-2.62h5.75v184h-5.75z"/><path class="cls-1" transform="rotate(90 144 95.13)" d="M141.13 3.13h5.75v184h-5.75z"/><path class="cls-1" transform="rotate(90 144 100.88)" d="M141.13 8.88h5.75v184h-5.75z"/><path class="cls-1" transform="rotate(90 144 106.63)" d="M141.13 14.63h5.75v184h-5.75z"/><path class="cls-1" transform="rotate(90 144 112.38)" d="M141.13 20.38h5.75v184h-5.75z"/><path class="cls-1" transform="rotate(90 144 118.13)" d="M141.13 26.13h5.75v184h-5.75z"/><path class="cls-1" transform="rotate(90 144 123.88)" d="M141.13 31.88h5.75v184h-5.75z"/><path class="cls-1" transform="rotate(90 144 129.63)" d="M141.13 37.63h5.75v184h-5.75z"/><path class="cls-1" transform="rotate(90 144 135.38)" d="M141.13 43.38h5.75v184h-5.75z"/><path class="cls-1" transform="rotate(90 144 141.13)" d="M141.13 49.13h5.75v184h-5.75z"/><path class="cls-1" transform="rotate(90 144 146.87)" d="M141.13 54.88h5.75v184h-5.75z"/><path class="cls-1" transform="rotate(90 144 152.62)" d="M141.13 60.63h5.75v184h-5.75z"/><path class="cls-1" transform="rotate(90 144 158.37)" d="M141.13 66.38h5.75v184h-5.75z"/><path class="cls-1" transform="rotate(90 144 164.12)" d="M141.13 72.13h5.75v184h-5.75z"/><path class="cls-1" transform="rotate(90 144 169.87)" d="M141.13 77.88h5.75v184h-5.75z"/><path class="cls-1" transform="rotate(90 144 175.62)" d="M141.13 83.63h5.75v184h-5.75z"/><path class="cls-1" transform="rotate(90 144 181.37)" d="M141.13 89.38h5.75v184h-5.75z"/><path class="cls-1" transform="rotate(90 144 187.12)" d="M141.13 95.13h5.75v184h-5.75z"/><path class="cls-1" transform="rotate(90 144 192.87)" d="M141.13 100.88h5.75v184h-5.75z"/><path class="cls-1" transform="rotate(90 144 198.62)" d="M141.13 106.63h5.75v184h-5.75z"/><path class="cls-1" transform="rotate(90 144 204.37)" d="M141.13 112.38h5.75v184h-5.75z"/><path class="cls-1" transform="rotate(90 144 210.12)" d="M141.13 118.13h5.75v184h-5.75z"/><path class="cls-1" transform="rotate(90 144 215.87)" d="M141.13 123.88h5.75v184h-5.75z"/><path class="cls-1" transform="rotate(90 144 221.62)" d="M141.13 129.63h5.75v184h-5.75z"/><path class="cls-1" transform="rotate(90 144 227.37)" d="M141.13 135.38h5.75v184h-5.75z"/><path class="cls-1" transform="rotate(90 144 233.12)" d="M141.13 141.13h5.75v184h-5.75z"/><path d="M155.5 86.5a68.9 68.9 0 00-14.67 1.57 40.27 40.27 0 01-52.76 52.76A69 69 0 10155.5 86.5z" stroke="#f3f3f3" fill="none" stroke-miterlimit="10"/><circle cx="103.75" cy="103.75" r="40.25" fill="#f3f3f3"/></svg>