<svg version="1.1" id="Layer_1" xmlns="http://www.w3.org/2000/svg" x="0" y="0" viewBox="0 0 288 288" xml:space="preserve"><style>.st3{fill:none}.st4{fill:#f3f3f3}</style><path fill="#171717" d="M0 0h288v288H0z"/><path d="M132 47h24v2h-24v-2zm0 9h24v2h-24v-2zm0-18h24v2h-24v-2z" fill="#a4a4a4"/><path fill="#0062ff" d="M112 80h64v64h-64z"/><path class="st3" d="M128 96h32v32h-32z"/><path class="st4" d="M133.2 122.8c4.4 4.2 11.3 4.2 15.6-.2 4.2-4.3 4.2-11.1 0-15.4l-15.6 15.6z"/><linearGradient id="SVGID_1_" gradientUnits="userSpaceOnUse" x1="133.048" y1="174.009" x2="152.578" y2="189.649" gradientTransform="matrix(1 0 0 -1 0 288)"><stop offset=".1" stop-color="#20d5d2"/><stop offset=".9" stop-color="#0072c3"/></linearGradient><path d="M154.8 101.2c-4.4-4.2-11.3-4.1-15.6.2-4.2 4.3-4.2 11.1 0 15.4l15.6-15.6z" fill="url(#SVGID_1_)"/><linearGradient id="SVGID_2_" gradientUnits="userSpaceOnUse" x1="139.03" y1="96.682" x2="154.89" y2="116.692" gradientTransform="matrix(1 0 0 -1 0 288)"><stop offset="0" stop-color="#171717"/><stop offset="1" stop-color="#565656"/></linearGradient><path d="M140 188v-8h8v8h-8zm16-8v-8h-8v8h8z" fill="url(#SVGID_2_)"/><path class="st4" d="M148 180h8v8h-8z"/><linearGradient id="SVGID_3_" gradientUnits="userSpaceOnUse" x1="130.792" y1="129.152" x2="149.563" y2="102.292" gradientTransform="matrix(1 0 0 -1 0 288)"><stop offset="0" stop-color="#fa75a6"/><stop offset="1" stop-color="#a970ff"/></linearGradient><path fill="url(#SVGID_3_)" d="M132 164h16v16h-16z"/><path class="st3" d="M128 160h32v32h-32zm0 64h32v32h-32z"/><linearGradient id="SVGID_4_" gradientUnits="userSpaceOnUse" x1="144" y1="41.085" x2="157.83" y2="41.085" gradientTransform="matrix(1 0 0 -1 0 288)"><stop offset="0" stop-color="#f3f3f3" stop-opacity=".4"/><stop offset="1" stop-color="#f3f3f3" stop-opacity=".1"/></linearGradient><path d="M144 253.8c7.6 0 13.8-6.2 13.8-13.8H144" fill="url(#SVGID_4_)"/><linearGradient id="SVGID_5_" gradientUnits="userSpaceOnUse" x1="143.99" y1="54.92" x2="153.78" y2="54.92" gradientTransform="matrix(1 0 0 -1 0 288)"><stop offset="0" stop-color="#f3f3f3" stop-opacity=".1"/><stop offset="1" stop-color="#f3f3f3" stop-opacity=".4"/></linearGradient><path d="M144 226.2V240l9.8-9.8c-2.6-2.6-6.1-4-9.8-4z" fill="url(#SVGID_5_)"/><path class="st4" d="M153.8 230.2L144 240h13.8c0-3.7-1.4-7.2-4-9.8z"/><path class="st3" d="M128 224h32v32h-32z"/><linearGradient id="SVGID_6_" gradientUnits="userSpaceOnUse" x1="144" y1="41" x2="158" y2="41" gradientTransform="matrix(1 0 0 -1 0 288)"><stop offset="0" stop-color="#565656"/><stop offset="1" stop-color="#171717"/></linearGradient><path d="M144 254c7.7 0 14-6.3 14-14h-14" fill="url(#SVGID_6_)"/><linearGradient id="SVGID_7_" gradientUnits="userSpaceOnUse" x1="143.98" y1="55" x2="153.89" y2="55" gradientTransform="matrix(1 0 0 -1 0 288)"><stop offset="0" stop-color="#171717"/><stop offset="1" stop-color="#565656"/></linearGradient><path d="M144 226v14l9.9-9.9c-2.6-2.6-6.2-4.1-9.9-4.1z" fill="url(#SVGID_7_)"/><path class="st4" d="M153.9 230.1L144 240h14c0-3.7-1.5-7.3-4.1-9.9z"/><linearGradient id="SVGID_8_" gradientUnits="userSpaceOnUse" x1="147.138" y1="58.514" x2="130.968" y2="33.924" gradientTransform="matrix(1 0 0 -1 0 288)"><stop offset="0" stop-color="#bb8eff"/><stop offset="1" stop-color="#418cff"/></linearGradient><path d="M144 240v-14c-7.7 0-14 6.3-14 14s6.3 14 14 14v-14z" fill="url(#SVGID_8_)"/><linearGradient id="SVGID_9_" gradientUnits="userSpaceOnUse" x1="147.138" y1="58.514" x2="130.968" y2="33.924" gradientTransform="matrix(1 0 0 -1 0 288)"><stop offset="0" stop-color="#bb8eff"/><stop offset="1" stop-color="#418cff"/></linearGradient><path d="M144 240v-14c-7.7 0-14 6.3-14 14s6.3 14 14 14v-14z" fill="url(#SVGID_9_)"/></svg>