<svg id="Layer_1" data-name="Layer 1" xmlns="http://www.w3.org/2000/svg" viewBox="0 0 928 522"><defs><style>.cls-1,.cls-2,.cls-3{fill:none;}.cls-1{stroke:#3d3d3d;}.cls-1,.cls-3{stroke-miterlimit:10;}.cls-3{stroke:#f3f3f3;}.cls-4{fill:#f3f3f3;}</style></defs><title>Artboard 2 copy 14</title><rect width="928" height="522"/><rect class="cls-1" x="307" y="104" width="9.81" height="314"/><rect class="cls-1" x="316.81" y="104" width="9.81" height="314"/><rect class="cls-1" x="326.62" y="104" width="9.81" height="314"/><rect class="cls-1" x="336.44" y="104" width="9.81" height="314"/><rect class="cls-1" x="346.25" y="104" width="9.81" height="314"/><rect class="cls-1" x="356.06" y="104" width="9.81" height="314"/><rect class="cls-1" x="365.87" y="104" width="9.81" height="314"/><rect class="cls-1" x="375.69" y="104" width="9.81" height="314"/><rect class="cls-1" x="385.5" y="104" width="9.81" height="314"/><rect class="cls-1" x="395.31" y="104" width="9.81" height="314"/><rect class="cls-1" x="405.12" y="104" width="9.81" height="314"/><rect class="cls-1" x="414.94" y="104" width="9.81" height="314"/><rect class="cls-1" x="424.75" y="104" width="9.81" height="314"/><rect class="cls-1" x="434.56" y="104" width="9.81" height="314"/><rect class="cls-1" x="444.37" y="104" width="9.81" height="314"/><rect class="cls-1" x="454.19" y="104" width="9.81" height="314"/><rect class="cls-1" x="464" y="104" width="9.81" height="314"/><rect class="cls-1" x="473.81" y="104" width="9.81" height="314"/><rect class="cls-1" x="483.62" y="104" width="9.81" height="314"/><rect class="cls-1" x="493.44" y="104" width="9.81" height="314"/><rect class="cls-1" x="503.25" y="104" width="9.81" height="314"/><rect class="cls-1" x="513.06" y="104" width="9.81" height="314"/><rect class="cls-1" x="522.87" y="104" width="9.81" height="314"/><rect class="cls-1" x="532.69" y="104" width="9.81" height="314"/><rect class="cls-1" x="542.5" y="104" width="9.81" height="314"/><rect class="cls-1" x="552.31" y="104" width="9.81" height="314"/><rect class="cls-1" x="562.12" y="104" width="9.81" height="314"/><rect class="cls-1" x="571.94" y="104" width="9.81" height="314"/><rect class="cls-1" x="581.75" y="104" width="9.81" height="314"/><rect class="cls-1" x="591.56" y="104" width="9.81" height="314"/><rect class="cls-1" x="601.37" y="104" width="9.81" height="314"/><rect class="cls-1" x="611.19" y="104" width="9.81" height="314"/><rect class="cls-1" x="459.09" y="-48.09" width="9.81" height="314" transform="translate(572.91 -355.09) rotate(90)"/><rect class="cls-1" x="459.09" y="-38.28" width="9.81" height="314" transform="translate(582.72 -345.28) rotate(90)"/><rect class="cls-1" x="459.09" y="-28.47" width="9.81" height="314" transform="translate(592.53 -335.47) rotate(90)"/><rect class="cls-1" x="459.09" y="-18.66" width="9.81" height="314" transform="translate(602.34 -325.66) rotate(90)"/><rect class="cls-1" x="459.09" y="-8.84" width="9.81" height="314" transform="translate(612.16 -315.84) rotate(90)"/><rect class="cls-1" x="459.09" y="0.97" width="9.81" height="314" transform="translate(621.97 -306.03) rotate(90)"/><rect class="cls-1" x="459.09" y="10.78" width="9.81" height="314" transform="translate(631.78 -296.22) rotate(90)"/><rect class="cls-1" x="459.09" y="20.59" width="9.81" height="314" transform="translate(641.59 -286.41) rotate(90)"/><rect class="cls-1" x="459.09" y="30.41" width="9.81" height="314" transform="translate(651.41 -276.59) rotate(90)"/><rect class="cls-1" x="459.09" y="40.22" width="9.81" height="314" transform="translate(661.22 -266.78) rotate(90)"/><rect class="cls-1" x="459.09" y="50.03" width="9.81" height="314" transform="translate(671.03 -256.97) rotate(90)"/><rect class="cls-1" x="459.09" y="59.84" width="9.81" height="314" transform="translate(680.84 -247.16) rotate(90)"/><rect class="cls-1" x="459.09" y="69.66" width="9.81" height="314" transform="translate(690.66 -237.34) rotate(90)"/><rect class="cls-1" x="459.09" y="79.47" width="9.81" height="314" transform="translate(700.47 -227.53) rotate(90)"/><rect class="cls-1" x="459.09" y="89.28" width="9.81" height="314" transform="translate(710.28 -217.72) rotate(90)"/><rect class="cls-1" x="459.09" y="99.09" width="9.81" height="314" transform="translate(720.09 -207.91) rotate(90)"/><rect class="cls-1" x="459.09" y="108.91" width="9.81" height="314" transform="translate(729.91 -198.09) rotate(90)"/><rect class="cls-1" x="459.09" y="118.72" width="9.81" height="314" transform="translate(739.72 -188.28) rotate(90)"/><rect class="cls-1" x="459.09" y="128.53" width="9.81" height="314" transform="translate(749.53 -178.47) rotate(90)"/><rect class="cls-1" x="459.09" y="138.34" width="9.81" height="314" transform="translate(759.34 -168.66) rotate(90)"/><rect class="cls-1" x="459.09" y="148.16" width="9.81" height="314" transform="translate(769.16 -158.84) rotate(90)"/><rect class="cls-1" x="459.09" y="157.97" width="9.81" height="314" transform="translate(778.97 -149.03) rotate(90)"/><rect class="cls-1" x="459.09" y="167.78" width="9.81" height="314" transform="translate(788.78 -139.22) rotate(90)"/><rect class="cls-1" x="459.09" y="177.59" width="9.81" height="314" transform="translate(798.59 -129.41) rotate(90)"/><rect class="cls-1" x="459.09" y="187.41" width="9.81" height="314" transform="translate(808.41 -119.59) rotate(90)"/><rect class="cls-1" x="459.09" y="197.22" width="9.81" height="314" transform="translate(818.22 -109.78) rotate(90)"/><rect class="cls-1" x="459.09" y="207.03" width="9.81" height="314" transform="translate(828.03 -99.97) rotate(90)"/><rect class="cls-1" x="459.09" y="216.84" width="9.81" height="314" transform="translate(837.84 -90.16) rotate(90)"/><rect class="cls-1" x="459.09" y="226.66" width="9.81" height="314" transform="translate(847.66 -80.34) rotate(90)"/><rect class="cls-1" x="459.09" y="236.47" width="9.81" height="314" transform="translate(857.47 -70.53) rotate(90)"/><rect class="cls-1" x="459.09" y="246.28" width="9.81" height="314" transform="translate(867.28 -60.72) rotate(90)"/><rect class="cls-1" x="459.09" y="256.09" width="9.81" height="314" transform="translate(877.09 -50.91) rotate(90)"/><rect class="cls-2" x="307" y="104" width="314" height="314"/><path class="cls-3" d="M483.62,162.88a118,118,0,0,0-25,2.67,68.72,68.72,0,0,1-90,90,117.76,117.76,0,1,0,115.07-92.71Z"/><rect class="cls-2" x="307" y="104" width="314" height="314"/><circle class="cls-4" cx="395.31" cy="192.31" r="68.69"/></svg>