<?xml version="1.0" encoding="utf-8"?>
<!-- Generator: Adobe Illustrator 22.1.0, SVG Export Plug-In . SVG Version: 6.00 Build 0)  -->
<svg version="1.1" id="Layer_1" xmlns="http://www.w3.org/2000/svg" xmlns:xlink="http://www.w3.org/1999/xlink" x="0px" y="0px"
	 viewBox="0 0 928 152" style="enable-background:new 0 0 928 152;" xml:space="preserve">
<style type="text/css">
	.st0{fill:#FFFFFF;}
	.st1{enable-background:new    ;}
	.st2{fill:#171717;}
	.st3{fill:url(#Rectangle-Copy-16_1_);}
</style>
<title>Group 8 Copy</title>
<desc>Created with Sketch.</desc>
<g id="Desktop">
	<g id="Icons-Copy-2" transform="translate(-351.000000, -20593.000000)">
		<g id="Group-8-Copy" transform="translate(351.000000, 20593.000000)">
			<polygon id="Rectangle-Copy-33" class="st0" points="0,0 928,0 928,152 0,152 			"/>
			<g class="st1">
				<path class="st2" d="M64.4,108.7L64.4,108.7c-0.4,0.8-0.9,1.5-2.3,1.5c-2.1,0-3.2-1.8-3.2-5c0-3.3,1.1-5.1,3.5-5.1
					c1.8,0,2.6,1.1,3,2.1l-1,0.5c-0.4-0.9-0.8-1.6-2-1.6c-1.6,0-2.3,1.3-2.3,3.2v1.5c0,2,0.6,3.3,2.2,3.3c1.3,0,2-0.9,2-2.1v-1h-2.1
					v-0.9h3.2v4.8h-1.1V108.7z"/>
				<path class="st2" d="M67.7,109h2.1v-5.3h-2.1v-1h3.2v1.8H71c0.3-1,0.9-1.8,2.4-1.8h1v1.1H73c-1.4,0-2.2,0.9-2.2,2v3.1h2.8v1h-6
					V109z"/>
				<path class="st2" d="M81.9,110c-0.9,0-1.2-0.5-1.3-1.2h-0.1c-0.3,0.8-1,1.3-2.2,1.3c-1.5,0-2.5-0.8-2.5-2.2
					c0-1.3,0.9-2.1,3.1-2.1h1.5v-0.7c0-1.1-0.6-1.6-1.7-1.6c-1,0-1.6,0.4-1.9,1.1l-0.8-0.6c0.4-0.8,1.3-1.5,2.8-1.5
					c1.7,0,2.8,0.9,2.8,2.4v4h1v1H81.9z M80.6,107.9v-1.2H79c-1.3,0-1.9,0.4-1.9,1.1v0.3c0,0.7,0.6,1.1,1.5,1.1
					C79.7,109.2,80.6,108.6,80.6,107.9z"/>
				<path class="st2" d="M89.9,102.8H91l-3.6,8.8c-0.3,0.8-0.8,1.2-1.8,1.2h-1.1v-1h1.7l0.8-2l-2.9-7.1h1.1l1.2,3l1.1,2.7h0.1
					l1.1-2.7L89.9,102.8z"/>
				<path class="st2" d="M101.4,110v-1h2.8v-7.9h-0.1l-2.5,2.3l-0.7-0.7l2.6-2.4h1.8v8.8h2.6v1H101.4z"/>
				<path class="st2" d="M109.4,105.1c0-3.2,1-5.1,3.4-5.1s3.4,1.9,3.4,5.1s-1,5.1-3.4,5.1S109.4,108.3,109.4,105.1z M115,105.9
					v-1.6c0-2-0.6-3.2-2.2-3.2s-2.2,1.3-2.2,3.2v1.6c0,2,0.6,3.2,2.2,3.2S115,107.9,115,105.9z M111.9,105.3V105
					c0-0.4,0.2-0.7,0.9-0.7c0.6,0,0.9,0.3,0.9,0.7v0.3c0,0.4-0.2,0.7-0.9,0.7C112.1,105.9,111.9,105.6,111.9,105.3z"/>
				<path class="st2" d="M117.8,105.1c0-3.2,1-5.1,3.4-5.1s3.4,1.9,3.4,5.1s-1,5.1-3.4,5.1S117.8,108.3,117.8,105.1z M123.4,105.9
					v-1.6c0-2-0.6-3.2-2.2-3.2s-2.2,1.3-2.2,3.2v1.6c0,2,0.6,3.2,2.2,3.2S123.4,107.9,123.4,105.9z M120.3,105.3V105
					c0-0.4,0.2-0.7,0.9-0.7c0.6,0,0.9,0.3,0.9,0.7v0.3c0,0.4-0.2,0.7-0.9,0.7C120.5,105.9,120.3,105.6,120.3,105.3z"/>
				<path class="st2" d="M129,108.1h1.8l-1.6,3.9h-0.9L129,108.1z"/>
				<path class="st2" d="M146,104.4c1.4,0,2-0.7,2-1.6v-0.1c0-1-0.7-1.6-1.8-1.6c-1,0-1.7,0.5-2.1,1.2l-0.9-0.7
					c0.5-0.8,1.4-1.6,3-1.6c1.7,0,3,0.9,3,2.5c0,1.3-0.8,2-1.9,2.3v0.1c1.1,0.2,2.1,1,2.1,2.5c0,1.7-1.3,2.8-3.4,2.8
					c-1.7,0-2.6-0.8-3.2-1.7l0.9-0.7c0.5,0.8,1.1,1.3,2.3,1.3c1.4,0,2.1-0.7,2.1-1.8v-0.1c0-1.1-0.7-1.8-2.2-1.8h-1.2v-1H146z"/>
				<path class="st2" d="M151.4,105.1c0-3.2,1-5.1,3.4-5.1s3.4,1.9,3.4,5.1s-1,5.1-3.4,5.1S151.4,108.3,151.4,105.1z M157,105.9
					v-1.6c0-2-0.6-3.2-2.2-3.2s-2.2,1.3-2.2,3.2v1.6c0,2,0.6,3.2,2.2,3.2S157,107.9,157,105.9z M153.9,105.3V105
					c0-0.4,0.2-0.7,0.9-0.7c0.6,0,0.9,0.3,0.9,0.7v0.3c0,0.4-0.2,0.7-0.9,0.7C154.1,105.9,153.9,105.6,153.9,105.3z"/>
				<path class="st2" d="M161.5,105.8h1l-2.2,4.2h-1L161.5,105.8z M159.3,102.5c0-1.6,0.9-2.5,2.1-2.5s2.1,0.8,2.1,2.5
					s-0.9,2.5-2.1,2.5S159.3,104.2,159.3,102.5z M162.5,102.9v-0.7c0-0.9-0.5-1.4-1.1-1.4s-1.1,0.5-1.1,1.4v0.7
					c0,0.9,0.5,1.4,1.1,1.4S162.5,103.8,162.5,102.9z M162.9,107.7c0-1.6,0.9-2.5,2.1-2.5c1.2,0,2.1,0.8,2.1,2.5
					c0,1.6-0.9,2.5-2.1,2.5C163.8,110.2,162.9,109.3,162.9,107.7z M166.1,100.2h1l-2.2,4.2h-1L166.1,100.2z M166.1,108v-0.7
					c0-0.9-0.5-1.4-1.1-1.4s-1.1,0.5-1.1,1.4v0.7c0,0.9,0.5,1.4,1.1,1.4S166.1,108.9,166.1,108z"/>
				<path class="st2" d="M176.7,106.4c0-2.3,1.2-3.8,3.3-3.8c2,0,3.3,1.5,3.3,3.8c0,2.3-1.2,3.8-3.3,3.8
					C177.9,110.2,176.7,108.7,176.7,106.4z M182.1,106.9v-1c0-1.6-0.8-2.3-2.1-2.3s-2.1,0.7-2.1,2.3v1c0,1.6,0.8,2.3,2.1,2.3
					S182.1,108.5,182.1,106.9z"/>
				<path class="st2" d="M185.5,102.8h1.1v1.2h0.1c0.5-0.9,1.2-1.3,2.2-1.3c1.8,0,2.8,1.4,2.8,3.8s-1.1,3.8-2.8,3.8
					c-1,0-1.8-0.5-2.2-1.3h-0.1v4h-1.1V102.8z M190.5,107v-1.2c0-1.3-0.8-2.2-2.1-2.2c-1,0-1.8,0.5-1.8,1.5v2.6c0,1,0.9,1.5,1.8,1.5
					C189.8,109.2,190.5,108.3,190.5,107z"/>
				<path class="st2" d="M199.5,110c-0.9,0-1.2-0.5-1.3-1.2h-0.1c-0.3,0.8-1,1.3-2.2,1.3c-1.5,0-2.5-0.8-2.5-2.2
					c0-1.3,0.9-2.1,3.1-2.1h1.5v-0.7c0-1.1-0.6-1.6-1.7-1.6c-1,0-1.6,0.4-1.9,1.1l-0.8-0.6c0.4-0.8,1.3-1.5,2.8-1.5
					c1.7,0,2.8,0.9,2.8,2.4v4h1v1H199.5z M198.2,107.9v-1.2h-1.5c-1.3,0-1.9,0.4-1.9,1.1v0.3c0,0.7,0.6,1.1,1.5,1.1
					C197.3,109.2,198.2,108.6,198.2,107.9z"/>
				<path class="st2" d="M202.2,106.4c0-2.3,1.2-3.8,3.3-3.8c1.4,0,2.3,0.7,2.7,1.7l-0.9,0.5c-0.3-0.7-0.9-1.2-1.8-1.2
					c-1.3,0-2.1,0.9-2.1,2.2v1.2c0,1.3,0.7,2.2,2.1,2.2c1,0,1.6-0.5,2-1.3l0.8,0.5c-0.4,1-1.3,1.7-2.8,1.7
					C203.4,110.2,202.2,108.7,202.2,106.4z"/>
				<path class="st2" d="M210.9,109h2.6v-5.3h-2.6v-1h3.7v6.3h2.4v1h-6.2V109z M213.1,100.5v-0.2c0-0.4,0.2-0.7,0.9-0.7
					c0.6,0,0.9,0.3,0.9,0.7v0.2c0,0.4-0.2,0.7-0.9,0.7C213.4,101.2,213.1,100.9,213.1,100.5z"/>
				<path class="st2" d="M222.3,110c-1.1,0-1.6-0.7-1.6-1.7v-4.6h-2.4v-1h1.8c0.5,0,0.7-0.2,0.7-0.7v-1.9h1.1v2.5h3.3v1h-3.3v5.3
					h3.3v1H222.3z"/>
				<path class="st2" d="M232.7,102.8h1.1l-3.6,8.8c-0.3,0.8-0.8,1.2-1.8,1.2h-1.1v-1h1.7l0.8-2l-2.9-7.1h1.1l1.2,3l1.1,2.7h0.1
					l1.1-2.7L232.7,102.8z"/>
			</g>
			<g class="st1">
				<path class="st2" d="M708.4,108.7L708.4,108.7c-0.4,0.8-0.9,1.5-2.3,1.5c-2.1,0-3.2-1.8-3.2-5c0-3.3,1.1-5.1,3.5-5.1
					c1.8,0,2.6,1.1,3,2.1l-1,0.5c-0.3-0.9-0.8-1.6-2-1.6c-1.6,0-2.3,1.3-2.3,3.2v1.5c0,2,0.6,3.3,2.2,3.3c1.3,0,2-0.9,2-2.1v-1h-2.1
					v-0.9h3.2v4.8h-1.1V108.7z"/>
				<path class="st2" d="M711.7,109h2.1v-5.3h-2.1v-1h3.2v1.8h0.1c0.3-1,0.9-1.8,2.4-1.8h1v1.1H717c-1.4,0-2.2,0.9-2.2,2v3.1h2.8v1
					h-6V109z"/>
				<path class="st2" d="M725.9,110c-0.9,0-1.2-0.5-1.3-1.2h-0.1c-0.3,0.8-1,1.3-2.2,1.3c-1.5,0-2.5-0.8-2.5-2.2
					c0-1.3,0.9-2.1,3.1-2.1h1.5v-0.7c0-1.1-0.6-1.6-1.7-1.6c-1,0-1.6,0.4-1.9,1.1l-0.8-0.6c0.4-0.8,1.3-1.5,2.8-1.5
					c1.7,0,2.8,0.9,2.8,2.4v4h1v1H725.9z M724.6,107.9v-1.2H723c-1.3,0-1.9,0.4-1.9,1.1v0.3c0,0.7,0.6,1.1,1.5,1.1
					C723.7,109.2,724.6,108.6,724.6,107.9z"/>
				<path class="st2" d="M733.9,102.8h1.1l-3.6,8.8c-0.3,0.8-0.8,1.2-1.8,1.2h-1.1v-1h1.7l0.8-2l-2.9-7.1h1.1l1.2,3l1.1,2.7h0.1
					l1.1-2.7L733.9,102.8z"/>
				<path class="st2" d="M745.4,110v-1h2.8v-7.9h-0.1l-2.5,2.3l-0.7-0.7l2.6-2.4h1.8v8.8h2.6v1H745.4z"/>
				<path class="st2" d="M753.4,105.1c0-3.2,1-5.1,3.4-5.1c2.4,0,3.4,1.9,3.4,5.1s-1,5.1-3.4,5.1
					C754.4,110.2,753.4,108.3,753.4,105.1z M759,105.9v-1.6c0-2-0.6-3.2-2.2-3.2c-1.6,0-2.2,1.3-2.2,3.2v1.6c0,2,0.6,3.2,2.2,3.2
					C758.3,109.1,759,107.9,759,105.9z M755.9,105.3V105c0-0.4,0.2-0.7,0.9-0.7s0.9,0.3,0.9,0.7v0.3c0,0.4-0.2,0.7-0.9,0.7
					S755.9,105.6,755.9,105.3z"/>
				<path class="st2" d="M761.8,105.1c0-3.2,1-5.1,3.4-5.1s3.4,1.9,3.4,5.1s-1,5.1-3.4,5.1S761.8,108.3,761.8,105.1z M767.4,105.9
					v-1.6c0-2-0.6-3.2-2.2-3.2s-2.2,1.3-2.2,3.2v1.6c0,2,0.6,3.2,2.2,3.2S767.4,107.9,767.4,105.9z M764.3,105.3V105
					c0-0.4,0.2-0.7,0.9-0.7c0.6,0,0.9,0.3,0.9,0.7v0.3c0,0.4-0.2,0.7-0.9,0.7C764.5,105.9,764.3,105.6,764.3,105.3z"/>
				<path class="st2" d="M773,108.1h1.8l-1.6,3.9h-0.9L773,108.1z"/>
				<path class="st2" d="M793.2,101.2h-4.4l-0.3,3.7h0.1c0.5-0.7,1-1.1,2-1.1c1.7,0,3,1.1,3,3c0,1.9-1.2,3.2-3.3,3.2
					c-1.7,0-2.5-0.8-3.1-1.7l0.9-0.7c0.5,0.8,1.1,1.3,2.3,1.3c1.3,0,2.1-0.8,2.1-2.1V107c0-1.3-0.8-2.1-2.1-2.1
					c-0.9,0-1.4,0.4-1.8,0.8l-1-0.1l0.4-5.4h5.3V101.2z"/>
				<path class="st2" d="M797.1,105.8h1l-2.2,4.2h-1L797.1,105.8z M794.9,102.5c0-1.6,0.9-2.5,2.1-2.5s2.1,0.8,2.1,2.5
					s-0.9,2.5-2.1,2.5S794.9,104.2,794.9,102.5z M798.1,102.9v-0.7c0-0.9-0.5-1.4-1.1-1.4c-0.7,0-1.1,0.5-1.1,1.4v0.7
					c0,0.9,0.5,1.4,1.1,1.4C797.6,104.3,798.1,103.8,798.1,102.9z M798.5,107.7c0-1.6,0.9-2.5,2.1-2.5s2.1,0.8,2.1,2.5
					c0,1.6-0.9,2.5-2.1,2.5S798.5,109.3,798.5,107.7z M801.7,100.2h1l-2.2,4.2h-1L801.7,100.2z M801.7,108v-0.7
					c0-0.9-0.5-1.4-1.1-1.4c-0.7,0-1.1,0.5-1.1,1.4v0.7c0,0.9,0.5,1.4,1.1,1.4C801.3,109.4,801.7,108.9,801.7,108z"/>
				<path class="st2" d="M812.3,106.4c0-2.3,1.2-3.8,3.3-3.8s3.3,1.5,3.3,3.8c0,2.3-1.2,3.8-3.3,3.8S812.3,108.7,812.3,106.4z
					 M817.7,106.9v-1c0-1.6-0.8-2.3-2.1-2.3c-1.2,0-2.1,0.7-2.1,2.3v1c0,1.6,0.8,2.3,2.1,2.3C816.8,109.2,817.7,108.5,817.7,106.9z"
					/>
				<path class="st2" d="M821.1,102.8h1.1v1.2h0.1c0.5-0.9,1.2-1.3,2.2-1.3c1.8,0,2.8,1.4,2.8,3.8s-1.1,3.8-2.8,3.8
					c-1,0-1.8-0.5-2.2-1.3h-0.1v4h-1.1V102.8z M826.1,107v-1.2c0-1.3-0.8-2.2-2.1-2.2c-1,0-1.8,0.5-1.8,1.5v2.6c0,1,0.9,1.5,1.8,1.5
					C825.4,109.2,826.1,108.3,826.1,107z"/>
				<path class="st2" d="M835.1,110c-0.9,0-1.2-0.5-1.3-1.2h-0.1c-0.3,0.8-1,1.3-2.2,1.3c-1.5,0-2.5-0.8-2.5-2.2
					c0-1.3,0.9-2.1,3.1-2.1h1.5v-0.7c0-1.1-0.6-1.6-1.7-1.6c-1,0-1.6,0.4-1.9,1.1l-0.8-0.6c0.4-0.8,1.3-1.5,2.8-1.5
					c1.7,0,2.8,0.9,2.8,2.4v4h1v1H835.1z M833.8,107.9v-1.2h-1.5c-1.3,0-1.9,0.4-1.9,1.1v0.3c0,0.7,0.6,1.1,1.5,1.1
					C832.9,109.2,833.8,108.6,833.8,107.9z"/>
				<path class="st2" d="M837.8,106.4c0-2.3,1.2-3.8,3.3-3.8c1.4,0,2.3,0.7,2.7,1.7l-0.9,0.5c-0.3-0.7-0.9-1.2-1.8-1.2
					c-1.3,0-2.1,0.9-2.1,2.2v1.2c0,1.3,0.7,2.2,2.1,2.2c1,0,1.6-0.5,2-1.3l0.8,0.5c-0.4,1-1.3,1.7-2.8,1.7
					C839,110.2,837.8,108.7,837.8,106.4z"/>
				<path class="st2" d="M846.5,109h2.6v-5.3h-2.6v-1h3.7v6.3h2.4v1h-6.2V109z M848.7,100.5v-0.2c0-0.4,0.2-0.7,0.9-0.7
					c0.6,0,0.9,0.3,0.9,0.7v0.2c0,0.4-0.2,0.7-0.9,0.7C849,101.2,848.7,100.9,848.7,100.5z"/>
				<path class="st2" d="M857.9,110c-1.1,0-1.6-0.7-1.6-1.7v-4.6h-2.4v-1h1.8c0.5,0,0.7-0.2,0.7-0.7v-1.9h1.1v2.5h3.3v1h-3.3v5.3
					h3.3v1H857.9z"/>
				<path class="st2" d="M868.3,102.8h1.1l-3.6,8.8c-0.3,0.8-0.8,1.2-1.8,1.2h-1.1v-1h1.7l0.8-2l-2.9-7.1h1.1l1.2,3l1.1,2.7h0.1
					l1.1-2.7L868.3,102.8z"/>
			</g>
			
				<linearGradient id="Rectangle-Copy-16_1_" gradientUnits="userSpaceOnUse" x1="-3369.8435" y1="4392.2085" x2="-3370.8435" y2="4392.2085" gradientTransform="matrix(812 0 0 -24 2737183 105489)">
				<stop  offset="0" style="stop-color:#171717;stop-opacity:5.000000e-02"/>
				<stop  offset="1" style="stop-color:#171717;stop-opacity:0.3"/>
			</linearGradient>
			<rect id="Rectangle-Copy-16" x="58" y="64" class="st3" width="812" height="24"/>
		</g>
	</g>
</g>
</svg>
