<svg id="a954e81a-843e-4c74-87d7-31adfe0b908b" data-name="Layer 1" xmlns="http://www.w3.org/2000/svg" viewBox="0 0 288 288">
  <rect width="288" height="288" fill="#fff"/>
  <path d="M190.231,213c-14.2,0-24.386-9.647-26.8-24.654h-1.608c-4.288,18.223-19.831,27.87-41.269,27.87-28.138,0-43.681-16.615-43.681-41,0-29.746,23.047-43.949,60.3-43.949h22.242v-8.843c0-13.667-6.7-22.242-23.314-22.242-15.811,0-24.118,8.039-30.282,16.614l-23.582-20.9c11.255-16.615,27.334-26.8,56.812-26.8,39.661,0,60.027,18.223,60.027,51.452v61.635h13.131V213Zm-30.818-42.609V153.777H140.119c-15.275,0-23.315,5.627-23.315,15.81v4.02c0,10.183,6.7,15.007,18.491,15.007C148.426,188.614,159.413,183.254,159.413,170.391Z" fill="none" stroke="#000" stroke-width="3"/>
</svg>
