<svg id="Layer_1" data-name="Layer 1" xmlns="http://www.w3.org/2000/svg" viewBox="0 0 288 288"><defs><style>.cls-1{fill:#fff;}.cls-2{fill:none;}.cls-3{fill:#171717;}</style></defs><title>Artboard 18 copy 60</title><rect class="cls-1" width="288" height="288"/><rect class="cls-2" x="53.36" y="53.36" width="181.27" height="181.27"/><rect class="cls-2" x="53.36" y="53.36" width="181.27" height="181.27"/><rect class="cls-2" x="53.36" y="53.36" width="181.27" height="181.27"/><path class="cls-3" d="M62.88,114.7H83c16.23,0,25.56,10.61,25.56,31.64S99.25,178,83,178H62.88Zm20.23,58.48c12.42,0,19.67-8.61,19.67-22.67v-8.34c0-14-7.25-22.66-19.67-22.66H68.33v53.67Z"/><path class="cls-3" d="M123.25,114.7H148c9.89,0,15.87,6,15.87,16,0,8.79-5,12.69-9.7,13.78v.36c5.89.73,12.15,5.44,12.15,15.33,0,10.42-6.35,17.86-16,17.86h-27Zm5.44,28h18.77c6.89,0,10.61-4.17,10.61-9.89v-3.44c0-5.8-3.72-9.88-10.61-9.88H128.69Zm0,30.46h20.13c7.61,0,11.69-4.62,11.69-11.24v-3.35c0-6.53-4.08-11.16-11.69-11.16H128.69Z"/><path class="cls-3" d="M222.24,168.29H222c-2.27,6.44-8.8,10.79-18.59,10.79-15.6,0-25.57-11.34-25.57-32.74s9.88-32.73,25.93-32.73c10.79,0,18.32,5.44,22.13,13.51l-4.45,2.63c-3.08-7-9.33-11.24-17.68-11.24-12.24,0-20.13,8.88-20.13,23.94v7.7c0,15.15,7.8,24,20.59,24,9.61,0,17.77-5.08,17.77-15.41v-7.62H207.19v-4.72h20.13V178h-5.08Z"/></svg>