<svg id="Layer_1" data-name="Layer 1" xmlns="http://www.w3.org/2000/svg" viewBox="0 0 288 288"><defs><style>.cls-1{fill:#fff;}.cls-2{fill:none;}.cls-3{fill:#171717;}</style></defs><title>Artboard 18 copy 69</title><rect class="cls-1" width="288" height="288"/><rect class="cls-2" x="53.36" y="53.36" width="181.27" height="181.27"/><path class="cls-3" d="M58.87,170.56v-2.15c0-4.95,2.32-8.61,7.29-8.61s7.28,3.66,7.28,8.61v2.15c0,4.95-2.31,8.61-7.28,8.61S58.87,175.51,58.87,170.56Z"/><path class="cls-3" d="M84.7,121.48H97V131h.42c1.24-6.24,6-10.76,11.67-10.76,11,0,16.72,10.33,16.72,29.49s-5.71,29.6-16.72,29.6c-5.63,0-10.43-4.63-11.67-10.77H97v31H84.7ZM113,154.63v-9.79c0-7.11-3.39-11.74-8-11.74s-8,3.13-8,8.29v16.68c0,5.17,3.4,8.29,8,8.29S113,161.73,113,154.63Z"/><path class="cls-3" d="M135,98.34h12.25v32.72h.5c1.57-5.92,5.21-10.87,12.08-10.87,8.86,0,13.58,8.18,13.58,22.39V178H161.19V143.87c0-7.21-1.58-10.77-6.05-10.77-4,0-7.86,2.69-7.86,8.29V178H135Z"/><path class="cls-3" d="M184.36,121.48h12.25V131H197c1.24-6.24,6-10.76,11.67-10.76,11,0,16.72,10.33,16.72,29.49s-5.71,29.6-16.72,29.6c-5.63,0-10.43-4.63-11.67-10.77h-.42v31H184.36Zm28.31,33.15v-9.79c0-7.11-3.39-11.74-8-11.74s-8,3.13-8,8.29v16.68c0,5.17,3.4,8.29,8,8.29S212.67,161.73,212.67,154.63Z"/></svg>