<?xml version="1.0" encoding="utf-8"?>
<!-- Generator: Adobe Illustrator 23.0.4, SVG Export Plug-In . SVG Version: 6.00 Build 0)  -->
<svg version="1.1" id="Layer_1" xmlns="http://www.w3.org/2000/svg" xmlns:xlink="http://www.w3.org/1999/xlink" x="0px" y="0px"
	 viewBox="0 0 288 288" style="enable-background:new 0 0 288 288;" xml:space="preserve">
<style type="text/css">
	.st0{fill:#FFFFFF;}
	.st1{fill:url(#SVGID_1_);}
	.st2{fill:url(#SVGID_2_);}
	.st3{fill:url(#SVGID_3_);}
	.st4{fill:url(#SVGID_4_);}
	.st5{fill:url(#SVGID_5_);}
	.st6{fill:url(#SVGID_6_);}
	.st7{fill:#061F80;}
</style>
<title>Artboard 18 copy 106</title>
<rect class="st0" width="288" height="288"/>
<linearGradient id="SVGID_1_" gradientUnits="userSpaceOnUse" x1="81.0263" y1="83.0263" x2="206.9737" y2="208.9737" gradientTransform="matrix(1 0 0 -1 0 290)">
	<stop  offset="0" style="stop-color:#F7F1FF"/>
	<stop  offset="1" style="stop-color:#E3F6FF"/>
</linearGradient>
<path class="st1" d="M93,76.1H195c9.4,0,17,7.6,17,17V195c0,9.4-7.6,17-17,17H93c-9.4,0-17-7.6-17-17V93
	C76.1,83.7,83.7,76.1,93,76.1z"/>
<g>
	
		<linearGradient id="SVGID_2_" gradientUnits="userSpaceOnUse" x1="75.535" y1="106.3857" x2="182.9572" y2="213.808" gradientTransform="matrix(1 0 0 -1 0 290)">
		<stop  offset="1.000000e-02" style="stop-color:#A66EFA"/>
		<stop  offset="0.1" style="stop-color:#A66EFA"/>
		<stop  offset="0.9" style="stop-color:#0062FF"/>
	</linearGradient>
	<polygon class="st2" points="130.4,127.1 168.7,107.2 171.8,98 171.8,98 115,127.4 	"/>
	
		<linearGradient id="SVGID_3_" gradientUnits="userSpaceOnUse" x1="104.1333" y1="77.1625" x2="212.0603" y2="185.0896" gradientTransform="matrix(1 0 0 -1 0 290)">
		<stop  offset="0.1" style="stop-color:#A66EFA"/>
		<stop  offset="0.9" style="stop-color:#0062FF"/>
	</linearGradient>
	<polygon class="st3" points="161,157.7 160.7,173.1 190.1,116.3 190.1,116.3 180.8,119.3 	"/>
	<g id="Gradients_black_">
		
			<linearGradient id="SVGID_4_" gradientUnits="userSpaceOnUse" x1="-113.1196" y1="-1734.2386" x2="-79.143" y2="-1734.2386" gradientTransform="matrix(0.8873 -0.4611 -0.4611 -0.8873 -555.1152 -1473.4569)">
			<stop  offset="3.000000e-02" style="stop-color:#EBF4FF;stop-opacity:0"/>
			<stop  offset="9.000000e-02" style="stop-color:#EBF4FF;stop-opacity:7.000000e-02"/>
			<stop  offset="0.21" style="stop-color:#EBF4FF;stop-opacity:0.24"/>
			<stop  offset="0.38" style="stop-color:#EAF4FF;stop-opacity:0.52"/>
			<stop  offset="0.58" style="stop-color:#E9F4FF;stop-opacity:0.9"/>
			<stop  offset="0.64" style="stop-color:#E9F4FF"/>
			<stop  offset="1" style="stop-color:#E8F5FF"/>
		</linearGradient>
		<polygon class="st4" points="141.2,111.5 171.4,95.7 177.7,107.8 147.4,123.5 		"/>
	</g>
	<g id="Gradients_black_2">
		
			<linearGradient id="SVGID_5_" gradientUnits="userSpaceOnUse" x1="-5394.1138" y1="3420.9104" x2="-5360.144" y2="3420.9104" gradientTransform="matrix(-0.6423 1.244 0.8885 0.4588 -6324.3979 5266.6914)">
			<stop  offset="6.000000e-02" style="stop-color:#E9F4FF;stop-opacity:0"/>
			<stop  offset="0.11" style="stop-color:#E9F4FF;stop-opacity:5.000000e-02"/>
			<stop  offset="0.19" style="stop-color:#EAF4FF;stop-opacity:0.18"/>
			<stop  offset="0.3" style="stop-color:#EAF4FF;stop-opacity:0.39"/>
			<stop  offset="0.43" style="stop-color:#EBF4FF;stop-opacity:0.68"/>
			<stop  offset="0.57" style="stop-color:#ECF4FF"/>
			<stop  offset="1" style="stop-color:#EEF3FF"/>
		</linearGradient>
		<polygon class="st5" points="185.2,130.8 163.4,173.1 151.4,166.9 173.2,124.6 		"/>
	</g>
	
		<linearGradient id="SVGID_6_" gradientUnits="userSpaceOnUse" x1="89.3962" y1="91.3587" x2="197.5035" y2="199.466" gradientTransform="matrix(1 0 0 -1 0 290)">
		<stop  offset="0.1" style="stop-color:#A66EFA"/>
		<stop  offset="0.9" style="stop-color:#0062FF"/>
	</linearGradient>
	<path class="st6" d="M178,123.6c-7.5,0-13.6-6.1-13.6-13.6s6.1-13.6,13.6-13.6s13.6,6.1,13.6,13.6c0,0,0,0,0,0
		C191.6,117.5,185.5,123.6,178,123.6z M178,103.2c-3.8,0-6.8,3-6.8,6.8c0,3.8,3,6.8,6.8,6.8c3.8,0,6.8-3,6.8-6.8c0,0,0,0,0,0
		C184.7,106.3,181.7,103.3,178,103.2L178,103.2z M130.4,191.5c-18.8,0-34-15.3-33.9-34c0-18.8,15.3-34,34-33.9
		c18.8,0,34,15.3,33.9,34c0,0,0,0,0,0.1C164.4,176.4,149.2,191.6,130.4,191.5L130.4,191.5z M130.4,130.4c-15,0-27.2,12.2-27.2,27.2
		c0,15,12.2,27.2,27.2,27.2s27.2-12.2,27.2-27.2l0,0C157.5,142.6,145.4,130.5,130.4,130.4L130.4,130.4z"/>
	<path class="st7" d="M130.4,171.2c-7.5,0-13.6-6.1-13.6-13.6c0-7.5,6.1-13.6,13.6-13.6c7.5,0,13.6,6.1,13.6,13.6c0,0,0,0,0,0
		C144,165.2,137.9,171.2,130.4,171.2z M130.4,150.8c-3.8,0-6.8,3-6.8,6.8c0,3.8,3,6.8,6.8,6.8c3.8,0,6.8-3,6.8-6.8
		C137.2,153.9,134.1,150.9,130.4,150.8L130.4,150.8z"/>
</g>
</svg>
