<svg id="Layer_1" data-name="Layer 1" xmlns="http://www.w3.org/2000/svg" xmlns:xlink="http://www.w3.org/1999/xlink" viewBox="0 0 288 288"><defs><style>.cls-1{fill:#fff;}.cls-2{fill:#ddd;}.cls-3,.cls-4{fill:none;}.cls-3{stroke:#0062ff;stroke-miterlimit:10;}.cls-5{fill:#061f80;}.cls-6{fill:#f3f3f3;}.cls-7{fill:url(#linear-gradient);}.cls-8{fill:url(#linear-gradient-2);}.cls-9{fill:url(#linear-gradient-3);}.cls-10{fill:url(#linear-gradient-4);}</style><linearGradient id="linear-gradient" x1="-2419.58" y1="7297.93" x2="-2388.92" y2="7297.93" gradientTransform="translate(-2317.14 7387.83) rotate(180)" gradientUnits="userSpaceOnUse"><stop offset="0" stop-color="#bb8eff"/><stop offset="1" stop-color="#418cff"/></linearGradient><linearGradient id="linear-gradient-2" x1="-2534.23" y1="7297.93" x2="-2503.57" y2="7297.93" xlink:href="#linear-gradient"/><linearGradient id="linear-gradient-3" x1="-2419.58" y1="7190.95" x2="-2388.92" y2="7190.95" xlink:href="#linear-gradient"/><linearGradient id="linear-gradient-4" x1="-2534.23" y1="7190.95" x2="-2503.57" y2="7190.95" xlink:href="#linear-gradient"/></defs><title>Artboard 18 copy 105</title><rect class="cls-1" width="288" height="288"/><path class="cls-2" d="M223.39,115.12h3a37.8,37.8,0,0,0,0-50.43h-3v-3a37.81,37.81,0,0,0-50.44,0v3h-3a37.8,37.8,0,0,0,0,50.43h3v3a37.81,37.81,0,0,0,50.44,0Z"/><polygon class="cls-2" points="115.05 64.69 108.74 64.69 108.74 58.38 58.3 58.38 58.3 64.69 52 64.69 52 115.13 58.3 115.13 58.3 121.43 108.74 121.43 108.74 115.13 115.05 115.13 115.05 64.69"/><rect x="52" y="165.36" width="63.05" height="63.05"/><rect x="160.34" y="159.05" width="75.66" height="75.66" rx="37.83"/><rect class="cls-3" x="52" y="58.38" width="63.05" height="63.05"/><line class="cls-3" x1="52" y1="64.69" x2="115.05" y2="64.69"/><line class="cls-3" x1="52" y1="115.12" x2="115.05" y2="115.12"/><line class="cls-3" x1="58.31" y1="58.38" x2="58.31" y2="121.43"/><line class="cls-3" x1="108.74" y1="58.38" x2="108.74" y2="121.43"/><rect class="cls-3" x="166.65" y="58.38" width="63.05" height="63.05"/><line class="cls-3" x1="166.65" y1="64.69" x2="229.7" y2="64.69"/><line class="cls-3" x1="166.65" y1="115.12" x2="229.7" y2="115.12"/><line class="cls-3" x1="172.95" y1="58.38" x2="172.95" y2="121.43"/><line class="cls-3" x1="223.39" y1="58.38" x2="223.39" y2="121.43"/><rect class="cls-4" x="58.31" y="64.69" width="50.44" height="50.44" transform="translate(167.05 179.81) rotate(180)"/><polygon class="cls-5" points="64.61 80.45 64.61 108.82 78.79 94.64 64.61 80.45"/><rect class="cls-4" x="172.95" y="64.69" width="50.44" height="50.44" transform="translate(396.34 179.81) rotate(180)"/><polygon class="cls-5" points="179.26 80.45 179.26 108.82 193.44 94.64 179.26 80.45"/><rect class="cls-4" x="58.31" y="171.66" width="50.44" height="50.44" transform="translate(167.05 393.76) rotate(180)"/><polygon class="cls-6" points="64.61 187.43 64.61 215.79 78.79 201.61 64.61 187.43"/><rect class="cls-4" x="172.95" y="171.66" width="50.44" height="50.44" transform="translate(396.34 393.76) rotate(180)"/><polygon class="cls-6" points="179.26 187.43 179.26 215.79 193.44 201.61 179.26 187.43"/><polygon class="cls-7" points="64.61 108.82 102.44 108.82 102.44 70.99 64.61 108.82"/><polygon class="cls-8" points="179.26 108.82 217.09 108.82 217.09 70.99 179.26 108.82"/><polygon class="cls-9" points="64.61 215.79 102.44 215.79 102.44 177.97 64.61 215.79"/><polygon class="cls-10" points="179.26 215.79 217.09 215.79 217.09 177.97 179.26 215.79"/></svg>