<svg xmlns="http://www.w3.org/2000/svg" viewBox="0 0 288 288"><path fill="#fff" d="M0 0h288v288H0z"/><linearGradient id="a" gradientUnits="userSpaceOnUse" x1="81.026" y1="83.026" x2="206.974" y2="208.974" gradientTransform="matrix(1 0 0 -1 0 290)"><stop offset="0" stop-color="#f7f1ff"/><stop offset="1" stop-color="#e3f6ff"/></linearGradient><path d="M93 76.1h102c9.4 0 17 7.6 17 17V195c0 9.4-7.6 17-17 17H93c-9.4 0-17-7.6-17-17V93c.1-9.3 7.7-16.9 17-16.9z" fill="url(#a)"/><linearGradient id="b" gradientUnits="userSpaceOnUse" x1="75.535" y1="106.386" x2="182.957" y2="213.808" gradientTransform="matrix(1 0 0 -1 0 290)"><stop offset=".01" stop-color="#a66efa"/><stop offset=".1" stop-color="#a66efa"/><stop offset=".9" stop-color="#0062ff"/></linearGradient><path fill="url(#b)" d="M130.4 127.1l38.3-19.9 3.1-9.2-56.8 29.4z"/><linearGradient id="c" gradientUnits="userSpaceOnUse" x1="104.133" y1="77.162" x2="212.06" y2="185.09" gradientTransform="matrix(1 0 0 -1 0 290)"><stop offset=".1" stop-color="#a66efa"/><stop offset=".9" stop-color="#0062ff"/></linearGradient><path fill="url(#c)" d="M161 157.7l-.3 15.4 29.4-56.8-9.3 3z"/><linearGradient id="d" gradientUnits="userSpaceOnUse" x1="-113.12" y1="-1734.239" x2="-79.143" y2="-1734.239" gradientTransform="scale(1 -1) rotate(27.459 -3293.088 -399.317)"><stop offset=".03" stop-color="#ebf4ff" stop-opacity="0"/><stop offset=".09" stop-color="#ebf4ff" stop-opacity=".07"/><stop offset=".21" stop-color="#ebf4ff" stop-opacity=".24"/><stop offset=".38" stop-color="#eaf4ff" stop-opacity=".52"/><stop offset=".58" stop-color="#e9f4ff" stop-opacity=".9"/><stop offset=".64" stop-color="#e9f4ff"/><stop offset="1" stop-color="#e8f5ff"/></linearGradient><path fill="url(#d)" d="M141.2 111.5l30.2-15.8 6.3 12.1-30.3 15.7z"/><linearGradient id="e" gradientUnits="userSpaceOnUse" x1="-5394.114" y1="3420.91" x2="-5360.144" y2="3420.91" gradientTransform="matrix(-.6423 1.244 .8885 .4588 -6324.398 5266.691)"><stop offset=".06" stop-color="#e9f4ff" stop-opacity="0"/><stop offset=".11" stop-color="#e9f4ff" stop-opacity=".05"/><stop offset=".19" stop-color="#eaf4ff" stop-opacity=".18"/><stop offset=".3" stop-color="#eaf4ff" stop-opacity=".39"/><stop offset=".43" stop-color="#ebf4ff" stop-opacity=".68"/><stop offset=".57" stop-color="#ecf4ff"/><stop offset="1" stop-color="#eef3ff"/></linearGradient><path fill="url(#e)" d="M185.2 130.8l-21.8 42.3-12-6.2 21.8-42.3z"/><linearGradient id="f" gradientUnits="userSpaceOnUse" x1="89.396" y1="91.359" x2="197.504" y2="199.466" gradientTransform="matrix(1 0 0 -1 0 290)"><stop offset=".1" stop-color="#a66efa"/><stop offset=".9" stop-color="#0062ff"/></linearGradient><path d="M178 123.6c-7.5 0-13.6-6.1-13.6-13.6s6.1-13.6 13.6-13.6 13.6 6.1 13.6 13.6-6.1 13.6-13.6 13.6zm0-20.4c-3.8 0-6.8 3-6.8 6.8s3 6.8 6.8 6.8 6.8-3 6.8-6.8c-.1-3.7-3.1-6.7-6.8-6.8zm-47.6 88.3c-18.8 0-34-15.3-33.9-34 0-18.8 15.3-34 34-33.9 18.8 0 34 15.3 33.9 34v.1c0 18.7-15.2 33.9-34 33.8zm0-61.1c-15 0-27.2 12.2-27.2 27.2s12.2 27.2 27.2 27.2 27.2-12.2 27.2-27.2c-.1-15-12.2-27.1-27.2-27.2z" fill="url(#f)"/><path d="M130.4 171.2c-7.5 0-13.6-6.1-13.6-13.6s6.1-13.6 13.6-13.6 13.6 6.1 13.6 13.6c0 7.6-6.1 13.6-13.6 13.6zm0-20.4c-3.8 0-6.8 3-6.8 6.8s3 6.8 6.8 6.8 6.8-3 6.8-6.8c0-3.7-3.1-6.7-6.8-6.8z" fill="#061f80"/></svg>