<svg version="1.1" id="Layer_1" xmlns="http://www.w3.org/2000/svg" x="0" y="0" viewBox="0 0 928 522" xml:space="preserve"><style>.st1{fill:none;stroke:#97c1ff;stroke-miterlimit:10}.st3{fill:#f975a5}.st4{fill:#ffd0e2}.st5{fill:#0062ff}.st10{fill:#061f80}</style><path id="Rectangle-3" fill="#fff" d="M0 0h928v522H0z"/><path class="st1" d="M560.51 165.51V141.9"/><path d="M368.51 165.51v192h192v-192h-192zm180 180h-168v-168h168v168z" fill="#dbdbdb"/><path class="st3" d="M548.51 249.51h12v12h-12z"/><path class="st4" d="M560.51 249.51h47.51v24h-47.51z"/><path class="st5" d="M560.51 261.51h12v12h-12zm12-12h12v12h-12zm12 12h12v12h-12z"/><path fill-rule="evenodd" clip-rule="evenodd" fill="#0062ff" d="M596.51 249.51h11.5l.5 12h-12z"/><path class="st1" d="M596.51 203.89v115.27m-24-153.65v192m-12-168V381.9m-192-240v240m216-24.39h-240m204-192h-204"/><path fill="none" d="M368.5 165.51h192v192h-192z"/><linearGradient id="SVGID_1_" gradientUnits="userSpaceOnUse" x1="403.425" y1="208.645" x2="465.587" y2="316.317" gradientTransform="matrix(1 0 0 -1 .004 523.991)"><stop offset="0" stop-color="#171717" stop-opacity=".3"/><stop offset="1" stop-color="#171717" stop-opacity=".05"/></linearGradient><path fill="url(#SVGID_1_)" d="M383.533 303.86l59.992-108.006 41.962 23.307-59.993 108.007z"/><linearGradient id="SVGID_2_" gradientUnits="userSpaceOnUse" x1="525.57" y1="208.616" x2="463.409" y2="316.288" gradientTransform="matrix(1 0 0 -1 .024 524.007)"><stop offset=".1" stop-color="#a970ff"/><stop offset=".9" stop-color="#fa75a6"/></linearGradient><path fill="url(#SVGID_2_)" d="M443.536 219.205l41.962-23.307 59.992 108.007-41.961 23.307z"/><circle class="st10" cx="464.51" cy="207.51" r="24"/><circle class="st10" cx="404.51" cy="315.51" r="24"/><circle class="st10" cx="524.51" cy="315.51" r="24"/><path d="M625.8 259.52v-1.92H621v-1l4.23-6.82h1.71v6.89h1.46v1h-1.46v1.92l-1.14-.07zm-3.8-2.88h3.77v-6l-3.77 6zm7.76 2.88l2.69-3.67-2.62-3.56h1.35l1.09 1.53.87 1.21h.05l.84-1.21 1.08-1.53h1.29l-2.65 3.55 2.72 3.68h-1.34l-1.22-1.69-.83-1.15H633l-.8 1.15-1.18 1.69h-1.26zM604 175.51h-6.5v-1.2l3.26-2.94a4 4 0 001.64-2.76v-.17a1.66 1.66 0 00-1.83-1.85 2 2 0 00-2.1 1.67l-1.05-.39a3.12 3.12 0 013.18-2.3 2.74 2.74 0 013 2.83c0 1.48-.89 2.58-2.19 3.71l-2.73 2.38H604v1.02zm1.76 0l2.69-3.67-2.62-3.55h1.35l1.09 1.52.87 1.21h.05l.84-1.21 1.08-1.52h1.29l-2.65 3.54 2.72 3.68h-1.34l-1.22-1.69-.83-1.15H609l-.79 1.15-1.18 1.69h-1.27z" fill="#6f6f6f"/><path class="st3" d="M548.51 165.51h12v12h-12z"/><path class="st4" d="M560.51 165.51h24v24h-24z"/><path class="st5" d="M560.51 177.51h12v12h-12zm12-12h12v12h-12z"/><path class="st1" d="M584.51 165.51h-36m12 0v24m-216-47.61h240v240h-240z"/><circle cx="464.51" cy="261.51" r="144" fill="none" stroke="#0062ff" stroke-miterlimit="10"/></svg>