<svg xmlns="http://www.w3.org/2000/svg" viewBox="0 0 288 288"><path fill="#fff" d="M0 0h288v288H0z"/><linearGradient id="a" gradientUnits="userSpaceOnUse" x1="81.026" y1="83.026" x2="206.974" y2="208.974" gradientTransform="matrix(1 0 0 -1 0 290)"><stop offset="0" stop-color="#8a3ffc"/><stop offset="1" stop-color="#ee538b"/></linearGradient><path d="M93 76.1h102c9.4 0 17 7.6 17 17V195c0 9.4-7.6 17-17 17H93c-9.4 0-17-7.6-17-17V93c.1-9.3 7.7-16.9 17-16.9z" fill="url(#a)"/><linearGradient id="b" gradientUnits="userSpaceOnUse" x1="144" y1="122.215" x2="191.606" y2="122.215" gradientTransform="matrix(1 0 0 -1 0 290)"><stop offset="0" stop-color="#f3f3f3" stop-opacity=".05"/><stop offset="1" stop-color="#f3f3f3" stop-opacity=".3"/></linearGradient><path d="M144 191.6v-20.4c15 0 27.1-12.1 27.2-27.1h20.4c0 26.2-21.3 47.5-47.6 47.5z" fill="url(#b)"/><path fill="none" d="M89.6 89.6h108.7v108.7H89.6z"/><linearGradient id="c" gradientUnits="userSpaceOnUse" x1="120.215" y1="98.43" x2="120.215" y2="193.57" gradientTransform="matrix(1 0 0 -1 0 290)"><stop offset="0" stop-color="#f3f3f3" stop-opacity=".9"/><stop offset="1" stop-color="#f3f3f3" stop-opacity=".5"/></linearGradient><path d="M144 191.6c-26.3 0-47.6-21.3-47.6-47.6s21.3-47.6 47.6-47.6v20.4c-15 0-27.2 12.2-27.2 27.2s12.2 27.2 27.2 27.2v20.4z" fill="url(#c)"/><path fill="#f3f3f3" d="M144 96.4h47.6V144H144z"/></svg>