<svg id="b3bbfde8-ea39-4d7c-8ed8-ef35583aaa95" data-name="Layer 1" xmlns="http://www.w3.org/2000/svg" xmlns:xlink="http://www.w3.org/1999/xlink" viewBox="0 0 448 448">
  <defs>
    <linearGradient id="b8835fdf-3620-4c77-95a1-b8d6e2e95c05" x1="-2336.971" y1="1810.75" x2="-2303.324" y2="1810.75" gradientTransform="matrix(1.063, 0, 0, -1, 2589.001, 2004.5)" gradientUnits="userSpaceOnUse">
      <stop offset="0.001" stop-opacity="0"/>
      <stop offset="0.7"/>
    </linearGradient>
    <mask id="ac615d9a-0d73-47fa-8262-072569a291f3" x="70.219" y="180" width="88" height="88" maskUnits="userSpaceOnUse">
      <g>
        <path d="M81.219,191h66a5.5,5.5,0,0,1,5.5,5.5v44a5.5,5.5,0,0,1-5.5,5.5h-22v11h11v5.5h-44V257h11V246h-22a5.5,5.5,0,0,1-5.5-5.5v-44A5.5,5.5,0,0,1,81.219,191Zm27.5,66h11V246h-11Zm-27.5-16.5h66v-44h-66Z" fill="#fff"/>
        <g id="fcd8fe98-b4b0-4e4e-80db-33c4cf678e14" data-name="Gradients (black)">
          <rect x="105.969" y="188.25" width="35.751" height="11" transform="translate(247.689 387.5) rotate(-180)" fill="url(#b8835fdf-3620-4c77-95a1-b8d6e2e95c05)"/>
        </g>
      </g>
    </mask>
    <linearGradient id="beee97ae-1e9e-4090-a91f-d53b75eefee5" x1="-7306.676" y1="268" x2="-7389.5" y2="180" gradientTransform="matrix(1.063, 0, 0, -1, 7921.562, 448)" gradientUnits="userSpaceOnUse">
      <stop offset="0.1" stop-color="#08bdba"/>
      <stop offset="0.9" stop-color="#0f62fe"/>
    </linearGradient>
  </defs>
  <rect width="448" height="448" fill="#fff"/>
  <g>
    <path id="ba00a26b-70c3-454e-b3a5-bc5ed7a1e8b7" data-name="IBM®" d="M206.257,251.375h31.1v4.444h-31.1Zm0-4.039h31.1v-4.443h-31.1Zm8.886-8.482h13.329v-4.443H215.143Zm0-8.482h13.329v-4.443H215.143Zm0-8.482h13.329v-4.443H215.143Zm13.329-12.926H215.143v4.443h13.329Zm-22.215-4.039h31.1v-4.443h-31.1Zm0-8.482h31.1V192h-31.1ZM241.8,247.336h47.406A16.83,16.83,0,0,0,291,242.893H241.8Zm43.7-21.407H250.688v4.443H289.2A17.032,17.032,0,0,0,285.5,225.929Zm-34.809-8.482v4.443H285.5a17.065,17.065,0,0,0,3.706-4.443Zm38.52-16.965H241.8v4.443H291A16.844,16.844,0,0,0,289.208,200.482ZM274.519,192H241.8v4.443h44.161A16.9,16.9,0,0,0,274.519,192Zm-23.831,21.407h13.329v-4.443H250.688Zm25.85,0h14.351a16.989,16.989,0,0,0,.594-4.443H276.538Zm-25.85,25.447h13.329v-4.443H250.688Zm25.85-4.443v4.443h14.945a17,17,0,0,0-.594-4.443ZM241.8,255.819h32.717a16.836,16.836,0,0,0,11.444-4.444H241.8Zm88.854,0,1.551-4.444h-3.089Zm-2.955-8.483h5.924l1.56-4.443h-9.044Zm-2.978-8.482H336.6l1.56-4.443h-15Zm-2.978-8.482h17.836l1.56-4.443H320.185ZM304,213.407h24l-1.545-4.443H304Zm32.262-8.482h29.941v-4.443h-28.4Zm4.5-12.925-1.545,4.443h26.991V192Zm-45.643,63.819h22.216v-4.444H295.118Zm0-8.483h22.216v-4.443H295.118ZM304,238.854h13.33v-4.443H304Zm0-8.482h13.33v-4.443H304Zm53.317-21.408h-22.46l-1.545,4.443h24.005ZM343.992,221.89h13.329v-4.443H331.912l-1.249,3.591-1.249-3.591H304v4.443h13.33v-4.083l1.433,4.083h23.792l1.433-4.083Zm13.329,4.039H343.992v4.443h13.329Zm-13.329,12.925h13.329v-4.443H343.992Zm0,8.482h22.215v-4.443H343.992Zm0,8.483h22.215v-4.444H343.992ZM325.06,204.925l-1.545-4.443h-28.4v4.443Zm-2.95-8.482L320.565,192H295.118v4.443ZM371,252.5a3.395,3.395,0,1,1,3.393,3.5A3.406,3.406,0,0,1,371,252.5Zm5.989.221v-.441a2.6,2.6,0,0,0-5.192,0v.441a2.6,2.6,0,0,0,5.192,0Zm-3.1,1.578h-.866v-3.546h1.612a1.076,1.076,0,0,1,1.2,1.12,1.05,1.05,0,0,1-.645,1.069l.8,1.357h-.95l-.662-1.222h-.492Zm.645-1.866c.271,0,.424-.119.424-.374v-.254c0-.255-.153-.373-.424-.373h-.645v1Z"/>
    <g>
      <g mask="url(#ac615d9a-0d73-47fa-8262-072569a291f3)">
        <rect x="70.219" y="180" width="88" height="88" transform="translate(228.437 448) rotate(180)" fill="url(#beee97ae-1e9e-4090-a91f-d53b75eefee5)"/>
      </g>
      <polygon points="116.969 218.968 116.969 185.5 111.469 185.5 111.469 218.968 104.346 211.873 100.469 215.75 114.219 229.5 127.969 215.75 124.091 211.873 116.969 218.968" fill="#001d6c"/>
    </g>
  </g>
</svg>
