<svg xmlns="http://www.w3.org/2000/svg" viewBox="0 0 288 288"><g fill="none" fill-rule="evenodd"><path fill="#FFF" d="M0 0h288v288H0z"/><path d="M125.689 121.534a4.16 4.16 0 00-4.154 4.154 4.16 4.16 0 004.154 4.156 4.158 4.158 0 004.154-4.156 4.159 4.159 0 00-4.154-4.154m0 12.497c-4.598 0-8.342-3.741-8.342-8.343 0-4.598 3.744-8.342 8.342-8.342 4.6 0 8.341 3.744 8.341 8.342 0 4.602-3.741 8.343-8.341 8.343m0 25.19a4.16 4.16 0 00-4.154 4.154 4.16 4.16 0 004.154 4.156 4.16 4.16 0 004.154-4.156 4.159 4.159 0 00-4.154-4.154m0 12.498c-4.598 0-8.342-3.742-8.342-8.344 0-4.6 3.744-8.341 8.342-8.341 4.6 0 8.341 3.741 8.341 8.341 0 4.602-3.741 8.344-8.341 8.344" fill="#006AFF"/><path fill="#924CFC" d="M142.406 127.75h27.219v-4.188h-27.219zm0 37.752h27.219v-4.187h-27.219z"/><path d="M161.282 140.345a4.16 4.16 0 00-4.154 4.154 4.16 4.16 0 004.154 4.156 4.16 4.16 0 004.154-4.156 4.16 4.16 0 00-4.154-4.154m0 12.497c-4.6 0-8.341-3.741-8.341-8.343 0-4.598 3.741-8.342 8.341-8.342s8.342 3.744 8.342 8.342c0 4.602-3.742 8.343-8.342 8.343" fill="#006AFF"/><path fill="#00BAB6" d="M119.375 146.56h27.219v-4.187h-27.219z"/></g></svg>