<svg id="Layer_1" data-name="Layer 1" xmlns="http://www.w3.org/2000/svg" width="288" height="441" viewBox="0 0 288 441"><defs><style>.cls-1{fill:#c83531;}.cls-2{fill:#c13a65;}.cls-3{fill:#7e4af3;}.cls-4{fill:#2165f6;}.cls-5{fill:#2d71bd;}.cls-6{fill:#357b78;}.cls-7{fill:#3d7d41;}.cls-8{isolation:isolate;}.cls-9{fill:#786e42;}.cls-10{fill:#6d7288;}.cls-11{fill:#2e6dd7;}.cls-12{fill:#526eb6;}.cls-13{fill:#6e6d72;}.cls-14{fill:#886a2e;}.cls-15{fill:#7f6d61;}.cls-16{fill:#3273b8;}.cls-17{fill:#3273b6;}.cls-18{fill:#3b72bb;}.cls-19{fill:#826947;}.cls-20{fill:#c63731;}.cls-21{fill:#bd4341;}.cls-22{fill:#387981;}.cls-23{fill:#377981;}.cls-24{fill:#3d7982;}.cls-25{fill:#4a7881;}.cls-26{fill:#585858;}.cls-27{fill:#616161;}.cls-28{fill:#69686b;}.cls-29{fill:#565656;}.cls-30{fill:#595959;}</style></defs><g id="design"><g id="sm-320px-4-column-"><g id="Group-B"><g id="normal"><g id="Group-2"><rect id="Rectangle" class="cls-1" width="41.34" height="41.14"/><rect id="Rectangle-Copy-13" class="cls-2" x="41.14" width="41.34" height="41.14"/><rect id="Rectangle-Copy-14" class="cls-3" x="82.29" width="41.34" height="41.14"/><rect id="Rectangle-Copy-16" class="cls-4" x="123.43" width="41.34" height="41.14"/><rect id="Rectangle-Copy-17" class="cls-5" x="164.57" width="41.34" height="41.14"/><rect id="Rectangle-Copy-18" class="cls-6" x="205.71" width="41.34" height="41.14"/><rect id="Rectangle-Copy-19" class="cls-7" x="246.86" width="41.14" height="41.14"/></g><g id="Trichromatic-_Normal" data-name="Trichromatic-(Normal" class="cls-8"><g class="cls-8"><path d="M5.49,54.25,3.74,63H2.6l1.75-8.75h-3l.2-1h7.1l-.2,1Z"/><path d="M7.67,63l1.46-7.22h1.08L9.9,57.22H10a3.83,3.83,0,0,1,.33-.53,2.86,2.86,0,0,1,.46-.46,2.58,2.58,0,0,1,.59-.33,2.39,2.39,0,0,1,.79-.12h.45l-.21,1.1h-.51A2.48,2.48,0,0,0,11,57a2.08,2.08,0,0,0-.66.4,2.14,2.14,0,0,0-.46.58,2.46,2.46,0,0,0-.24.69L8.75,63Z"/><path d="M14,63a1,1,0,0,1-.74-.25.85.85,0,0,1-.24-.63,1.61,1.61,0,0,1,0-.34l1.2-6H15.3L14,62.05h1l-.18,1Zm1.19-8.92a.59.59,0,0,1-.46-.15.47.47,0,0,1-.13-.34.57.57,0,0,1,0-.12,1.6,1.6,0,0,1,0-.27.62.62,0,0,1,.23-.41.77.77,0,0,1,.52-.15.59.59,0,0,1,.46.15.47.47,0,0,1,.13.34.57.57,0,0,1,0,.12,1.6,1.6,0,0,1,0,.27.62.62,0,0,1-.23.41A.77.77,0,0,1,15.15,54.08Z"/><path d="M19.26,63.17A2.68,2.68,0,0,1,18.17,63a2.16,2.16,0,0,1-.82-.6,2.78,2.78,0,0,1-.52-.94,3.76,3.76,0,0,1-.18-1.21,6.41,6.41,0,0,1,.24-1.77A4.57,4.57,0,0,1,17.6,57a3.52,3.52,0,0,1,1.11-1,3,3,0,0,1,1.48-.36,2.45,2.45,0,0,1,1.57.47,2.22,2.22,0,0,1,.82,1.21l-.89.4a1.49,1.49,0,0,0-1.53-1.13,1.88,1.88,0,0,0-1.41.55A2.9,2.9,0,0,0,18,58.63l-.24,1.18a3,3,0,0,0,0,.33c0,.12,0,.22,0,.3a1.93,1.93,0,0,0,.41,1.28,1.53,1.53,0,0,0,1.25.5,1.68,1.68,0,0,0,1-.3,3.29,3.29,0,0,0,.87-1.12l.86.42a3.61,3.61,0,0,1-1.16,1.44A2.79,2.79,0,0,1,19.26,63.17Z"/><path d="M25.38,52.64h1.08l-.92,4.56h.07a3.05,3.05,0,0,1,.9-1.2,2.12,2.12,0,0,1,1.31-.39,1.78,1.78,0,0,1,1.4.53,2.16,2.16,0,0,1,.46,1.47c0,.13,0,.28,0,.43s0,.33-.08.51l-.7,3.5h1l-.18,1h-1a1,1,0,0,1-.65-.2.74.74,0,0,1-.25-.61v-.13a.75.75,0,0,1,0-.17l.67-3.34a3,3,0,0,0,.06-.42c0-.13,0-.24,0-.32a1.35,1.35,0,0,0-.26-.92,1,1,0,0,0-.84-.3,1.82,1.82,0,0,0-1.33.57,3.26,3.26,0,0,0-.62.87,3.43,3.43,0,0,0-.33.94l-.82,4H23.3Z"/><path d="M31.21,63l1.45-7.22h1.08l-.31,1.44h.07a3.93,3.93,0,0,1,.34-.53,2.79,2.79,0,0,1,.45-.46,2.65,2.65,0,0,1,.6-.33,2.28,2.28,0,0,1,.78-.12h.45l-.21,1.1h-.5a2.4,2.4,0,0,0-.89.15,2.13,2.13,0,0,0-.67.4,2.11,2.11,0,0,0-.45.58,2.49,2.49,0,0,0-.25.69L32.28,63Z"/><path d="M39,63.17A2.69,2.69,0,0,1,38,63a2.22,2.22,0,0,1-.82-.56,2.7,2.7,0,0,1-.54-.92,4,4,0,0,1-.2-1.3,5.29,5.29,0,0,1,.28-1.74A4.66,4.66,0,0,1,37.45,57a3.77,3.77,0,0,1,1.18-1,3,3,0,0,1,1.51-.38,2.75,2.75,0,0,1,1,.19,2.14,2.14,0,0,1,.83.56,2.71,2.71,0,0,1,.54.93,3.89,3.89,0,0,1,.19,1.29,5.65,5.65,0,0,1-.27,1.74,4.93,4.93,0,0,1-.76,1.46,3.8,3.8,0,0,1-1.18,1A3.11,3.11,0,0,1,39,63.17Zm.14-1a2,2,0,0,0,1.4-.58A3.11,3.11,0,0,0,41.4,60l.21-1.05a4,4,0,0,0,.07-.64A1.76,1.76,0,0,0,41.25,57,1.61,1.61,0,0,0,40,56.56a2,2,0,0,0-1.4.58,3,3,0,0,0-.84,1.69l-.21,1.05a3.1,3.1,0,0,0-.07.63,1.81,1.81,0,0,0,.42,1.24A1.64,1.64,0,0,0,39.16,62.22Z"/><path d="M43.93,63l1.46-7.22h1.08l-.3,1.42h.07a3.13,3.13,0,0,1,.89-1.2,2.1,2.1,0,0,1,1.31-.39,1.61,1.61,0,0,1,1.18.42,1.91,1.91,0,0,1,.5,1.17h.08a3,3,0,0,1,.91-1.2,2.29,2.29,0,0,1,1.35-.39,1.7,1.7,0,0,1,1.36.52,2.11,2.11,0,0,1,.46,1.47,5.17,5.17,0,0,1-.1.93l-.7,3.52h1l-.18,1h-1a1.07,1.07,0,0,1-.67-.2.7.7,0,0,1-.25-.6,1.6,1.6,0,0,1,0-.32l.67-3.35a3.65,3.65,0,0,0,.09-.77,1.32,1.32,0,0,0-.26-.88,1.12,1.12,0,0,0-.85-.29,1.68,1.68,0,0,0-1.22.57,3,3,0,0,0-.58.86A3.89,3.89,0,0,0,50,59l-.82,4H48.08L49,58.55a3.86,3.86,0,0,0,.09-.81c0-.77-.34-1.15-1-1.15a1.62,1.62,0,0,0-.69.15,1.88,1.88,0,0,0-.56.41,3.54,3.54,0,0,0-.64.89,4,4,0,0,0-.34.93L45,63Z"/><path d="M61.42,63a.94.94,0,0,1-.71-.24.89.89,0,0,1-.23-.63,1.82,1.82,0,0,1,0-.38l.07-.32h0a3.61,3.61,0,0,1-1,1.32,2.17,2.17,0,0,1-1.35.42,2,2,0,0,1-1.59-.74,3,3,0,0,1-.61-2,6.94,6.94,0,0,1,.22-1.65,5.77,5.77,0,0,1,.65-1.55A3.67,3.67,0,0,1,58,56.06a2.7,2.7,0,0,1,1.56-.45,2.59,2.59,0,0,1,.63.08,2,2,0,0,1,.56.25,2.19,2.19,0,0,1,.44.42,1.66,1.66,0,0,1,.26.59h.06l.24-1.17H62.8l-1.26,6.27h1l-.19,1Zm-2.93-.81a1.86,1.86,0,0,0,.84-.19,2.77,2.77,0,0,0,.69-.53,3.29,3.29,0,0,0,.58-.78,4.24,4.24,0,0,0,.33-.95l.29-1.47a1.74,1.74,0,0,0,0-.64A1.15,1.15,0,0,0,61,57.1a1.32,1.32,0,0,0-.53-.37,2,2,0,0,0-.81-.14,2,2,0,0,0-1.46.57,3.12,3.12,0,0,0-.78,1.63l-.21,1.05a3.7,3.7,0,0,0-.07.71,1.91,1.91,0,0,0,.35,1.19A1.21,1.21,0,0,0,58.49,62.19Z"/><path d="M65.37,63a1,1,0,0,1-.74-.25.85.85,0,0,1-.24-.63,1.61,1.61,0,0,1,0-.34l1-5.05H64.39l.18-.95h.54a.71.71,0,0,0,.53-.16,1.17,1.17,0,0,0,.2-.53l.27-1.32h1l-.39,2h1.53l-.19.95H66.53l-1.08,5.32h1.41l-.18,1Z"/><path d="M69.63,63a1,1,0,0,1-.73-.25.86.86,0,0,1-.25-.63,1.74,1.74,0,0,1,0-.34l1.2-6H71l-1.26,6.27h1l-.18,1Zm1.19-8.92a.58.58,0,0,1-.45-.15.47.47,0,0,1-.13-.34v-.12s0-.14.05-.27a.72.72,0,0,1,.23-.41.82.82,0,0,1,.53-.15.57.57,0,0,1,.45.15.48.48,0,0,1,.14.34s0,.07,0,.12,0,.14,0,.27a.67.67,0,0,1-.23.41A.8.8,0,0,1,70.82,54.08Z"/><path d="M74.94,63.17a2.73,2.73,0,0,1-1.1-.21,2.32,2.32,0,0,1-.82-.6,2.94,2.94,0,0,1-.51-.94,3.49,3.49,0,0,1-.19-1.21,6.06,6.06,0,0,1,.25-1.77A4.57,4.57,0,0,1,73.28,57a3.31,3.31,0,0,1,1.11-1,3,3,0,0,1,1.48-.36,2.47,2.47,0,0,1,1.57.47,2.22,2.22,0,0,1,.82,1.21l-.9.4a1.47,1.47,0,0,0-1.52-1.13,1.88,1.88,0,0,0-1.41.55,2.9,2.9,0,0,0-.73,1.52l-.24,1.18a1.66,1.66,0,0,0,0,.33c0,.12,0,.22,0,.3a1.93,1.93,0,0,0,.41,1.28,1.51,1.51,0,0,0,1.24.5,1.72,1.72,0,0,0,1-.3,3.29,3.29,0,0,0,.87-1.12l.86.42a3.54,3.54,0,0,1-1.17,1.44A2.74,2.74,0,0,1,74.94,63.17Z"/></g><g class="cls-8"><path d="M82.84,60.23a9.52,9.52,0,0,1,.32-2.48,10.08,10.08,0,0,1,2.08-4,10.43,10.43,0,0,1,1.43-1.4h1.07a10.18,10.18,0,0,0-1.26,1.2,11.51,11.51,0,0,0-1.06,1.38,10.25,10.25,0,0,0-.8,1.44,7.39,7.39,0,0,0-.47,1.45L83.92,59a6.29,6.29,0,0,0-.13,1.32,8.55,8.55,0,0,0,.36,2.48,7.13,7.13,0,0,0,1,2.1h-.93a6.8,6.8,0,0,1-1-2A8.34,8.34,0,0,1,82.84,60.23Z"/><path d="M90.5,57.12l-.77-2.34h-.07L88,63H86.91l2-9.77h1.32l2.13,5.88.77,2.34h.07l1.63-8.22H95.9l-2,9.77H92.62Z"/><path d="M99.23,63.17a2.76,2.76,0,0,1-1-.19,2.22,2.22,0,0,1-.82-.56,2.7,2.7,0,0,1-.54-.92,4,4,0,0,1-.19-1.3,5.56,5.56,0,0,1,.27-1.74A4.87,4.87,0,0,1,97.66,57a3.77,3.77,0,0,1,1.18-1,3,3,0,0,1,1.51-.38,2.75,2.75,0,0,1,1,.19,2.07,2.07,0,0,1,.83.56,2.56,2.56,0,0,1,.54.93,3.88,3.88,0,0,1,.2,1.29,5.66,5.66,0,0,1-.28,1.74,4.71,4.71,0,0,1-.76,1.46,3.8,3.8,0,0,1-1.18,1A3.08,3.08,0,0,1,99.23,63.17Zm.14-1a2,2,0,0,0,1.4-.58,3.11,3.11,0,0,0,.84-1.69l.21-1.05a3.12,3.12,0,0,0,.07-.64,1.76,1.76,0,0,0-.43-1.23,1.61,1.61,0,0,0-1.25-.47,2,2,0,0,0-1.4.58A3,3,0,0,0,98,58.83l-.21,1.05a3.1,3.1,0,0,0-.07.63,1.77,1.77,0,0,0,.43,1.24A1.61,1.61,0,0,0,99.37,62.22Z"/><path d="M104.15,63l1.45-7.22h1.08l-.31,1.44h.07a3.93,3.93,0,0,1,.34-.53,2.79,2.79,0,0,1,.45-.46,2.65,2.65,0,0,1,.6-.33,2.28,2.28,0,0,1,.78-.12h.45l-.21,1.1h-.5a2.4,2.4,0,0,0-.89.15,2.13,2.13,0,0,0-.67.4,1.93,1.93,0,0,0-.45.58,2.49,2.49,0,0,0-.25.69l-.87,4.3Z"/><path d="M109.24,63l1.46-7.22h1.08l-.3,1.42h.07a3.13,3.13,0,0,1,.89-1.2,2.1,2.1,0,0,1,1.31-.39,1.61,1.61,0,0,1,1.18.42,1.91,1.91,0,0,1,.5,1.17h.08a3,3,0,0,1,.91-1.2,2.29,2.29,0,0,1,1.35-.39,1.7,1.7,0,0,1,1.36.52,2.11,2.11,0,0,1,.46,1.47,5.17,5.17,0,0,1-.1.93l-.7,3.52h1l-.18,1h-1a1.07,1.07,0,0,1-.67-.2.7.7,0,0,1-.25-.6,1.6,1.6,0,0,1,0-.32l.67-3.35a3.65,3.65,0,0,0,.09-.77,1.32,1.32,0,0,0-.26-.88,1.12,1.12,0,0,0-.85-.29,1.68,1.68,0,0,0-1.22.57,3,3,0,0,0-.58.86,3.89,3.89,0,0,0-.31.95l-.82,4h-1.07l.89-4.45a3.86,3.86,0,0,0,.09-.81c0-.77-.34-1.15-1-1.15a1.62,1.62,0,0,0-.69.15,1.88,1.88,0,0,0-.56.41,3.54,3.54,0,0,0-.64.89,4,4,0,0,0-.34.93l-.81,4Z"/><path d="M126.73,63a.94.94,0,0,1-.71-.24.89.89,0,0,1-.23-.63,1.82,1.82,0,0,1,0-.38l.07-.32h0a3.61,3.61,0,0,1-1,1.32,2.17,2.17,0,0,1-1.35.42,2,2,0,0,1-1.59-.74,3,3,0,0,1-.61-2,6.94,6.94,0,0,1,.22-1.65,5.77,5.77,0,0,1,.65-1.55,3.67,3.67,0,0,1,1.1-1.15,2.7,2.7,0,0,1,1.56-.45,2.59,2.59,0,0,1,.63.08,2,2,0,0,1,.56.25,2.19,2.19,0,0,1,.44.42,1.66,1.66,0,0,1,.26.59h.06l.24-1.17h1.07l-1.26,6.27h1l-.19,1Zm-2.93-.81a1.86,1.86,0,0,0,.84-.19,2.77,2.77,0,0,0,.69-.53,3.29,3.29,0,0,0,.58-.78,4.24,4.24,0,0,0,.33-.95l.29-1.47a1.74,1.74,0,0,0,0-.64,1.15,1.15,0,0,0-.26-.53,1.32,1.32,0,0,0-.53-.37,2,2,0,0,0-.81-.14,2,2,0,0,0-1.46.57,3.12,3.12,0,0,0-.78,1.63l-.21,1.05a3.7,3.7,0,0,0-.07.71,1.91,1.91,0,0,0,.35,1.19A1.21,1.21,0,0,0,123.8,62.19Z"/><path d="M130.46,63a1,1,0,0,1-.73-.25.86.86,0,0,1-.25-.63,1.74,1.74,0,0,1,.05-.34l1.83-9.14h1.08l-1.89,9.41h1.09l-.18,1Z"/><path d="M136.3,57.05a9.17,9.17,0,0,1-.32,2.48,10.08,10.08,0,0,1-2.08,4,10.43,10.43,0,0,1-1.43,1.4H131.4a11.07,11.07,0,0,0,1.26-1.21,9.85,9.85,0,0,0,1.06-1.37,10.35,10.35,0,0,0,.8-1.45,7,7,0,0,0,.47-1.45l.24-1.19a6.94,6.94,0,0,0,.12-1.31,8.5,8.5,0,0,0-.36-2.48,7.13,7.13,0,0,0-1.05-2.1h.94a7.12,7.12,0,0,1,1,2A8.18,8.18,0,0,1,136.3,57.05Z"/></g></g></g><g id="redblindness"><g id="Group-3"><rect id="Rectangle-2" data-name="Rectangle" class="cls-9" y="93" width="41.34" height="41.14"/><rect id="Rectangle-Copy-13-2" data-name="Rectangle-Copy-13" class="cls-10" x="41.14" y="93" width="41.14" height="41.14"/><rect id="Rectangle-Copy-14-2" data-name="Rectangle-Copy-14" class="cls-11" x="82.29" y="93" width="41.34" height="41.14"/><rect id="Rectangle-Copy-16-2" data-name="Rectangle-Copy-16" class="cls-11" x="123.43" y="93" width="41.34" height="41.14"/><rect id="Rectangle-Copy-17-2" data-name="Rectangle-Copy-17" class="cls-12" x="164.57" y="93" width="41.34" height="41.14"/><rect id="Rectangle-Copy-18-2" data-name="Rectangle-Copy-18" class="cls-13" x="205.71" y="93" width="41.34" height="41.14"/><rect id="Rectangle-Copy-19-2" data-name="Rectangle-Copy-19" class="cls-9" x="246.86" y="93" width="41.14" height="41.14"/></g><g id="Protanopia-_Red-blin" data-name="Protanopia-(Red-blin" class="cls-8"><g class="cls-8"><path d="M.55,156l2-9.77H6a3.32,3.32,0,0,1,1.11.17,1.92,1.92,0,0,1,.75.49,1.9,1.9,0,0,1,.43.74,3.14,3.14,0,0,1,.13.94,3.42,3.42,0,0,1-.23,1.28,3.06,3.06,0,0,1-.65,1,2.9,2.9,0,0,1-1,.7,3.66,3.66,0,0,1-1.36.25H2.52L1.68,156Zm2.18-5.19H5.31a1.84,1.84,0,0,0,1.16-.36,1.62,1.62,0,0,0,.6-1c.07-.31.11-.53.13-.66a1.59,1.59,0,0,0,0-.36,1.1,1.1,0,0,0-.3-.82,1.36,1.36,0,0,0-1-.31H3.43Z"/><path d="M8.6,156l1.45-7.22h1.08l-.31,1.44h.07a3.93,3.93,0,0,1,.34-.53,2.79,2.79,0,0,1,.45-.46,2.65,2.65,0,0,1,.6-.33,2.28,2.28,0,0,1,.78-.12h.45l-.21,1.1h-.5a2.4,2.4,0,0,0-.89.15,2.13,2.13,0,0,0-.67.4,2.11,2.11,0,0,0-.45.58,2.49,2.49,0,0,0-.25.69L9.67,156Z"/><path d="M16.41,156.17a2.76,2.76,0,0,1-1.05-.19,2.22,2.22,0,0,1-.82-.56,2.7,2.7,0,0,1-.54-.92,4,4,0,0,1-.2-1.3,5.56,5.56,0,0,1,.28-1.74,4.66,4.66,0,0,1,.76-1.47A3.77,3.77,0,0,1,16,149a3,3,0,0,1,1.51-.38,2.75,2.75,0,0,1,1,.19,2.14,2.14,0,0,1,.83.56,2.56,2.56,0,0,1,.54.93,3.89,3.89,0,0,1,.19,1.29,5.65,5.65,0,0,1-.27,1.74,4.93,4.93,0,0,1-.76,1.46,3.8,3.8,0,0,1-1.18,1A3.11,3.11,0,0,1,16.41,156.17Zm.14-.95a2,2,0,0,0,1.4-.58,3.11,3.11,0,0,0,.84-1.69l.21-1a4,4,0,0,0,.07-.64,1.76,1.76,0,0,0-.43-1.23,1.61,1.61,0,0,0-1.25-.47,2,2,0,0,0-1.4.58,3,3,0,0,0-.84,1.69l-.21,1a3.1,3.1,0,0,0-.07.63,1.81,1.81,0,0,0,.42,1.24A1.64,1.64,0,0,0,16.55,155.22Z"/><path d="M22.65,156a1,1,0,0,1-.73-.25.82.82,0,0,1-.25-.63,2.75,2.75,0,0,1,0-.34l1-5.05H21.67l.18-.95h.55a.67.67,0,0,0,.52-.16,1.16,1.16,0,0,0,.21-.53l.26-1.32h1l-.39,2h1.52l-.18.95H23.81l-1.07,5.32h1.41L24,156Z"/><path d="M31.28,156a.94.94,0,0,1-.71-.24.89.89,0,0,1-.23-.63,1.82,1.82,0,0,1,0-.38l.07-.32h0a3.51,3.51,0,0,1-1,1.32,2.12,2.12,0,0,1-1.34.42,2,2,0,0,1-1.6-.74,3.1,3.1,0,0,1-.6-2,6.46,6.46,0,0,1,.22-1.65,5.47,5.47,0,0,1,.65-1.55,3.67,3.67,0,0,1,1.1-1.15,2.8,2.8,0,0,1,2.19-.37,2,2,0,0,1,.56.25,1.91,1.91,0,0,1,.43.42,1.68,1.68,0,0,1,.27.59h.06l.23-1.17h1.08l-1.26,6.27h1l-.18.95Zm-2.93-.81a1.86,1.86,0,0,0,.84-.19,2.77,2.77,0,0,0,.69-.53,3.29,3.29,0,0,0,.58-.78,4.24,4.24,0,0,0,.33-.95l.29-1.47a1.54,1.54,0,0,0,0-.64,1,1,0,0,0-.25-.53,1.4,1.4,0,0,0-.53-.37,2,2,0,0,0-.81-.14,2,2,0,0,0-1.46.57,3.12,3.12,0,0,0-.78,1.63l-.21,1.05a3.7,3.7,0,0,0-.07.71,1.85,1.85,0,0,0,.35,1.19A1.21,1.21,0,0,0,28.35,155.19Z"/><path d="M33.82,156l1.46-7.22h1.08l-.3,1.42h.07A3.16,3.16,0,0,1,37,149a2.12,2.12,0,0,1,1.31-.39,1.78,1.78,0,0,1,1.4.53,2.21,2.21,0,0,1,.46,1.47c0,.13,0,.28,0,.43s0,.33-.08.51l-.7,3.5h1l-.18.95h-1a1,1,0,0,1-.65-.2.71.71,0,0,1-.25-.61v-.13a.75.75,0,0,1,0-.17l.67-3.34a3,3,0,0,0,.06-.42c0-.13,0-.24,0-.32a1.35,1.35,0,0,0-.26-.92,1,1,0,0,0-.84-.3,1.82,1.82,0,0,0-1.33.57,3.26,3.26,0,0,0-.62.87,3.85,3.85,0,0,0-.34.94l-.81,4Z"/><path d="M44.52,156.17a2.76,2.76,0,0,1-1.05-.19,2.22,2.22,0,0,1-.82-.56,2.7,2.7,0,0,1-.54-.92,4,4,0,0,1-.19-1.3,5.56,5.56,0,0,1,.27-1.74A4.66,4.66,0,0,1,43,150a3.77,3.77,0,0,1,1.18-1,3,3,0,0,1,1.51-.38,2.75,2.75,0,0,1,1,.19,2.14,2.14,0,0,1,.83.56,2.56,2.56,0,0,1,.54.93,3.89,3.89,0,0,1,.19,1.29,5.65,5.65,0,0,1-.27,1.74,4.93,4.93,0,0,1-.76,1.46,3.8,3.8,0,0,1-1.18,1A3.11,3.11,0,0,1,44.52,156.17Zm.14-.95a2,2,0,0,0,1.4-.58A3.11,3.11,0,0,0,46.9,153l.21-1a3.12,3.12,0,0,0,.07-.64,1.76,1.76,0,0,0-.43-1.23,1.61,1.61,0,0,0-1.25-.47,2,2,0,0,0-1.4.58,3,3,0,0,0-.84,1.69l-.21,1a3.1,3.1,0,0,0-.07.63,1.77,1.77,0,0,0,.43,1.24A1.61,1.61,0,0,0,44.66,155.22Z"/><path d="M50.89,148.78H52l-.32,1.56h0a3.79,3.79,0,0,1,1-1.32,2.21,2.21,0,0,1,1.35-.41,2,2,0,0,1,1.59.73,3.13,3.13,0,0,1,.6,2A6.77,6.77,0,0,1,56,153a5.84,5.84,0,0,1-.65,1.56,3.78,3.78,0,0,1-1.1,1.15,2.75,2.75,0,0,1-1.56.45,2.18,2.18,0,0,1-.63-.09,1.68,1.68,0,0,1-.56-.25,1.6,1.6,0,0,1-.7-1h-.06l-.8,4H48.87Zm1.71,6.41a1.93,1.93,0,0,0,1.45-.58,3,3,0,0,0,.79-1.62l.21-1.05a4.85,4.85,0,0,0,.07-.71,2,2,0,0,0-.33-1.18,1.2,1.2,0,0,0-1.06-.46,1.7,1.7,0,0,0-.83.19,3.32,3.32,0,0,0-.68.52,3.2,3.2,0,0,0-.57.77,3.36,3.36,0,0,0-.34,1L51,153.51a1.55,1.55,0,0,0,0,.64,1.12,1.12,0,0,0,.25.54,1.28,1.28,0,0,0,.53.36A2.16,2.16,0,0,0,52.6,155.19Z"/><path d="M58.63,156a1,1,0,0,1-.73-.25.82.82,0,0,1-.25-.63,2.75,2.75,0,0,1,0-.34l1.21-6H60l-1.26,6.27h1l-.18.95Zm1.19-8.92a.58.58,0,0,1-.45-.15.48.48,0,0,1-.14-.34s0-.07,0-.12,0-.14,0-.27a.67.67,0,0,1,.23-.41.8.8,0,0,1,.53-.15.58.58,0,0,1,.45.15.47.47,0,0,1,.13.34v.12c0,.05,0,.14-.05.27a.72.72,0,0,1-.23.41A.82.82,0,0,1,59.82,147.08Z"/><path d="M66.75,156a1,1,0,0,1-.71-.24.89.89,0,0,1-.23-.63,1.89,1.89,0,0,1,0-.38l.07-.32h-.05a3.61,3.61,0,0,1-1,1.32,2.12,2.12,0,0,1-1.34.42,2,2,0,0,1-1.6-.74,3.1,3.1,0,0,1-.6-2,6.91,6.91,0,0,1,.21-1.65,5.8,5.8,0,0,1,.66-1.55,3.53,3.53,0,0,1,1.09-1.15,2.76,2.76,0,0,1,1.57-.45,2.72,2.72,0,0,1,.63.08,2.18,2.18,0,0,1,.56.25,2.14,2.14,0,0,1,.43.42,1.88,1.88,0,0,1,.27.59h0l.24-1.17h1.08l-1.26,6.27h1l-.18.95Zm-2.92-.81a1.92,1.92,0,0,0,.84-.19,2.56,2.56,0,0,0,.68-.53,3,3,0,0,0,.58-.78,3.44,3.44,0,0,0,.33-.95l.3-1.47a1.73,1.73,0,0,0,0-.64,1.13,1.13,0,0,0-.25-.53,1.4,1.4,0,0,0-.53-.37,2,2,0,0,0-.82-.14,2,2,0,0,0-1.45.57,3.05,3.05,0,0,0-.79,1.63l-.21,1.05a4.73,4.73,0,0,0-.07.71,1.91,1.91,0,0,0,.35,1.19A1.24,1.24,0,0,0,63.83,155.19Z"/></g><g class="cls-8"><path d="M73.16,153.23a9.11,9.11,0,0,1,.33-2.48,10.74,10.74,0,0,1,.85-2.18,10.06,10.06,0,0,1,1.22-1.81,11.08,11.08,0,0,1,1.44-1.4h1.06a11.82,11.82,0,0,0-1.26,1.2,11.42,11.42,0,0,0-1,1.38,9.33,9.33,0,0,0-.8,1.44,6.78,6.78,0,0,0-.47,1.45L74.24,152a7,7,0,0,0-.12,1.32,8.55,8.55,0,0,0,.36,2.48,6.68,6.68,0,0,0,1,2.1h-.94a6.79,6.79,0,0,1-1-2A8.08,8.08,0,0,1,73.16,153.23Z"/><path d="M78.37,156H77.24l2-9.77h3.48a3.32,3.32,0,0,1,1.11.17A1.83,1.83,0,0,1,85,147.64a3.07,3.07,0,0,1,.14.93,3.23,3.23,0,0,1-.19,1.08,3.17,3.17,0,0,1-.51.94,3,3,0,0,1-.8.7,2.94,2.94,0,0,1-1.07.41L84,156H82.75l-1.33-4.19H79.21ZM82,150.82a1.84,1.84,0,0,0,1.16-.36,1.65,1.65,0,0,0,.6-1c.07-.32.11-.54.14-.67a2.4,2.4,0,0,0,0-.37,1.16,1.16,0,0,0-.29-.81,1.41,1.41,0,0,0-1-.32H80.12l-.7,3.57Z"/><path d="M88.44,156.17a2.64,2.64,0,0,1-2-.77,3.26,3.26,0,0,1-.71-2.26,5.42,5.42,0,0,1,.27-1.71,4.68,4.68,0,0,1,.77-1.45,3.81,3.81,0,0,1,1.19-1,3.38,3.38,0,0,1,2.43-.25,2.22,2.22,0,0,1,.74.36,1.64,1.64,0,0,1,.51.6,1.79,1.79,0,0,1,.19.86,1.89,1.89,0,0,1-1.22,1.77,9.66,9.66,0,0,1-3.76.6,3.11,3.11,0,0,0,0,.32v.27a1.73,1.73,0,0,0,.44,1.24,1.68,1.68,0,0,0,1.28.47,2.46,2.46,0,0,0,1.24-.32,3.48,3.48,0,0,0,1-.83l.7.62A3.87,3.87,0,0,1,90,155.84,3.81,3.81,0,0,1,88.44,156.17Zm.94-6.64a2.05,2.05,0,0,0-.81.16,2.16,2.16,0,0,0-.69.43,2.33,2.33,0,0,0-.51.67,3.18,3.18,0,0,0-.32.88l-.08.41q1.16,0,1.89-.15a4.67,4.67,0,0,0,1.14-.29,1.21,1.21,0,0,0,.56-.46,1.3,1.3,0,0,0,.15-.65.85.85,0,0,0-.12-.48.86.86,0,0,0-.29-.31,1.28,1.28,0,0,0-.43-.16A2.72,2.72,0,0,0,89.38,149.53Z"/><path d="M98.29,156a.93.93,0,0,1-.7-.24.85.85,0,0,1-.23-.63,1.82,1.82,0,0,1,0-.38l.07-.32h0a3.51,3.51,0,0,1-1,1.32,2.12,2.12,0,0,1-1.34.42,2,2,0,0,1-1.6-.74,3.1,3.1,0,0,1-.6-2,6.46,6.46,0,0,1,.22-1.65,5.47,5.47,0,0,1,.65-1.55,3.56,3.56,0,0,1,1.1-1.15,2.8,2.8,0,0,1,2.19-.37,2.18,2.18,0,0,1,.56.25,1.91,1.91,0,0,1,.43.42,1.88,1.88,0,0,1,.27.59h0l.87-4.31h1.08l-1.89,9.41h1l-.18.95Zm-2.91-.81a1.67,1.67,0,0,0,.83-.2,2.74,2.74,0,0,0,.68-.52,3.06,3.06,0,0,0,.58-.77,3.39,3.39,0,0,0,.33-1l.3-1.47a1.73,1.73,0,0,0,0-.64,1.13,1.13,0,0,0-.25-.53,1.4,1.4,0,0,0-.53-.37,2,2,0,0,0-.81-.14,2,2,0,0,0-1.46.57,3.12,3.12,0,0,0-.78,1.63l-.21,1.05a3.7,3.7,0,0,0-.07.71,2.05,2.05,0,0,0,.32,1.18A1.24,1.24,0,0,0,95.38,155.19Z"/><path d="M106.23,145.64h1.08l-1,4.7h0a3.79,3.79,0,0,1,1-1.32,2.23,2.23,0,0,1,1.35-.41,2,2,0,0,1,1.59.73,3.13,3.13,0,0,1,.61,2,6.79,6.79,0,0,1-.22,1.64,5.84,5.84,0,0,1-.65,1.56,3.78,3.78,0,0,1-1.1,1.15,2.72,2.72,0,0,1-1.56.45,2.18,2.18,0,0,1-.63-.09,1.78,1.78,0,0,1-.56-.25,1.6,1.6,0,0,1-.7-1h-.06l-.24,1.18h-1.07Zm1.08,9.55a2,2,0,0,0,1.46-.58,3.08,3.08,0,0,0,.78-1.62l.21-1.05a3.78,3.78,0,0,0,.07-.71,2,2,0,0,0-.33-1.18,1.2,1.2,0,0,0-1.06-.46,1.72,1.72,0,0,0-.83.19,3.62,3.62,0,0,0-.68.52,3.49,3.49,0,0,0-.57.77,3.69,3.69,0,0,0-.34,1l-.29,1.47a1.74,1.74,0,0,0,0,.64,1.05,1.05,0,0,0,.26.54,1.24,1.24,0,0,0,.52.36A2.16,2.16,0,0,0,107.31,155.19Z"/><path d="M113.34,156a1,1,0,0,1-.73-.25.82.82,0,0,1-.25-.63,1.74,1.74,0,0,1,0-.34l1.83-9.14h1.08l-1.89,9.41h1.09l-.18.95Z"/><path d="M117,156a1,1,0,0,1-.74-.25.85.85,0,0,1-.24-.63,1.61,1.61,0,0,1,0-.34l1.21-6h1.07l-1.26,6.27h1L118,156Zm1.19-8.92a.59.59,0,0,1-.46-.15.51.51,0,0,1-.13-.34.57.57,0,0,1,0-.12,1.6,1.6,0,0,1,0-.27.62.62,0,0,1,.23-.41.77.77,0,0,1,.52-.15.59.59,0,0,1,.46.15.47.47,0,0,1,.13.34.57.57,0,0,1,0,.12c0,.05,0,.14,0,.27a.68.68,0,0,1-.24.41A.77.77,0,0,1,118.23,147.08Z"/><path d="M119.54,156l1.46-7.22h1.08l-.29,1.42h.06a3.16,3.16,0,0,1,.91-1.2,2.12,2.12,0,0,1,1.31-.39,1.78,1.78,0,0,1,1.4.53,2.21,2.21,0,0,1,.46,1.47c0,.13,0,.28,0,.43s0,.33-.08.51l-.7,3.5h1L126,156h-1a1,1,0,0,1-.65-.2.71.71,0,0,1-.25-.61v-.13a.75.75,0,0,1,0-.17l.67-3.34a3,3,0,0,0,.06-.42c0-.13,0-.24,0-.32a1.35,1.35,0,0,0-.26-.92,1,1,0,0,0-.84-.3,1.82,1.82,0,0,0-1.33.57,3.26,3.26,0,0,0-.62.87,3.43,3.43,0,0,0-.33.94l-.82,4Z"/><path d="M133.07,156a1,1,0,0,1-.71-.24.89.89,0,0,1-.23-.63,2.9,2.9,0,0,1,0-.38l.07-.32h0a3.61,3.61,0,0,1-1,1.32,2.15,2.15,0,0,1-1.35.42,2,2,0,0,1-1.59-.74,3.1,3.1,0,0,1-.6-2,6.91,6.91,0,0,1,.21-1.65,5.77,5.77,0,0,1,.65-1.55,3.67,3.67,0,0,1,1.1-1.15,2.75,2.75,0,0,1,1.56-.45,2.59,2.59,0,0,1,.63.08,1.91,1.91,0,0,1,.56.25,2,2,0,0,1,.44.42,1.66,1.66,0,0,1,.26.59h.06l.87-4.31h1.07l-1.88,9.41h1L134,156Zm-2.91-.81a1.73,1.73,0,0,0,.83-.2,2.93,2.93,0,0,0,.68-.52,3.27,3.27,0,0,0,.57-.77,3.74,3.74,0,0,0,.34-1l.29-1.47a1.74,1.74,0,0,0,0-.64,1.13,1.13,0,0,0-.25-.53,1.44,1.44,0,0,0-.54-.37,2,2,0,0,0-.81-.14,2,2,0,0,0-1.46.57,3.12,3.12,0,0,0-.78,1.63l-.21,1.05a3.7,3.7,0,0,0-.07.71,2,2,0,0,0,.33,1.18A1.23,1.23,0,0,0,130.16,155.19Z"/><path d="M135.62,156l1.45-7.22h1.08l-.29,1.42h.07a3.05,3.05,0,0,1,.9-1.2,2.14,2.14,0,0,1,1.31-.39,1.78,1.78,0,0,1,1.4.53,2.16,2.16,0,0,1,.46,1.47c0,.13,0,.28,0,.43a3.35,3.35,0,0,1-.08.51l-.7,3.5h1L142,156h-1a1,1,0,0,1-.65-.2.74.74,0,0,1-.25-.61v-.13a.75.75,0,0,1,0-.17l.67-3.34a3,3,0,0,0,.06-.42c0-.13,0-.24,0-.32a1.4,1.4,0,0,0-.26-.92,1.08,1.08,0,0,0-.85-.3,1.82,1.82,0,0,0-1.33.57,3.5,3.5,0,0,0-.62.87,3.43,3.43,0,0,0-.33.94l-.82,4Z"/><path d="M146.44,156.17a2.64,2.64,0,0,1-2-.77,3.26,3.26,0,0,1-.71-2.26,5.42,5.42,0,0,1,.27-1.71,4.68,4.68,0,0,1,.77-1.45,3.81,3.81,0,0,1,1.19-1,3.38,3.38,0,0,1,2.43-.25,2.22,2.22,0,0,1,.74.36,1.64,1.64,0,0,1,.51.6,1.79,1.79,0,0,1,.19.86,1.89,1.89,0,0,1-1.22,1.77,9.66,9.66,0,0,1-3.76.6,3.11,3.11,0,0,0,0,.32v.27a1.73,1.73,0,0,0,.44,1.24,1.68,1.68,0,0,0,1.28.47,2.46,2.46,0,0,0,1.24-.32,3.48,3.48,0,0,0,1-.83l.7.62a3.69,3.69,0,0,1-3,1.48Zm.94-6.64a2.05,2.05,0,0,0-.81.16,2,2,0,0,0-.68.43,2.19,2.19,0,0,0-.52.67,3.18,3.18,0,0,0-.32.88l-.08.41q1.16,0,1.89-.15a4.67,4.67,0,0,0,1.14-.29,1.21,1.21,0,0,0,.56-.46,1.3,1.3,0,0,0,.15-.65.85.85,0,0,0-.12-.48.86.86,0,0,0-.29-.31,1.28,1.28,0,0,0-.43-.16A2.72,2.72,0,0,0,147.38,149.53Z"/><path d="M153.1,156.17a3.64,3.64,0,0,1-1.57-.35,2.9,2.9,0,0,1-1.16-1l.74-.66a2.81,2.81,0,0,0,.87.76,2.29,2.29,0,0,0,1.12.27,2,2,0,0,0,1.18-.34,1.18,1.18,0,0,0,.46-1,.91.91,0,0,0-.22-.62,1.43,1.43,0,0,0-.84-.38l-.55-.11a5.62,5.62,0,0,1-.76-.22,2,2,0,0,1-.62-.35,1.41,1.41,0,0,1-.4-.53,1.79,1.79,0,0,1-.15-.77,2.3,2.3,0,0,1,.16-.86,2,2,0,0,1,.5-.73,2.32,2.32,0,0,1,.84-.5,3.65,3.65,0,0,1,2.54.08,2.71,2.71,0,0,1,1,.8l-.74.66a2,2,0,0,0-.64-.56,2.15,2.15,0,0,0-1.05-.22,1.69,1.69,0,0,0-1.17.35,1.13,1.13,0,0,0-.37.88.87.87,0,0,0,.22.62,1.49,1.49,0,0,0,.83.37l.54.11a4.42,4.42,0,0,1,.8.23,1.88,1.88,0,0,1,.6.36,1.59,1.59,0,0,1,.4.55,2,2,0,0,1,.14.77,2.31,2.31,0,0,1-.21,1,2,2,0,0,1-.56.74,2.54,2.54,0,0,1-.84.47A3.33,3.33,0,0,1,153.1,156.17Z"/><path d="M159.61,156.17a3.64,3.64,0,0,1-1.57-.35,2.9,2.9,0,0,1-1.16-1l.74-.66a2.81,2.81,0,0,0,.87.76,2.29,2.29,0,0,0,1.12.27,2,2,0,0,0,1.18-.34,1.18,1.18,0,0,0,.46-1,.91.91,0,0,0-.22-.62,1.43,1.43,0,0,0-.84-.38l-.55-.11a5.62,5.62,0,0,1-.76-.22,2,2,0,0,1-.62-.35,1.41,1.41,0,0,1-.4-.53,1.79,1.79,0,0,1-.15-.77,2.3,2.3,0,0,1,.16-.86,2,2,0,0,1,.5-.73,2.32,2.32,0,0,1,.84-.5,3.65,3.65,0,0,1,2.54.08,2.71,2.71,0,0,1,1,.8l-.74.66a2,2,0,0,0-.64-.56,2.15,2.15,0,0,0-1-.22,1.69,1.69,0,0,0-1.17.35,1.13,1.13,0,0,0-.37.88.87.87,0,0,0,.22.62,1.49,1.49,0,0,0,.83.37l.54.11a4.42,4.42,0,0,1,.8.23,1.88,1.88,0,0,1,.6.36,1.59,1.59,0,0,1,.4.55,2,2,0,0,1,.14.77,2.31,2.31,0,0,1-.21,1,2,2,0,0,1-.56.74,2.54,2.54,0,0,1-.84.47A3.33,3.33,0,0,1,159.61,156.17Z"/><path d="M167.12,150.05a9.17,9.17,0,0,1-.33,2.48,10.74,10.74,0,0,1-.85,2.18,10.1,10.1,0,0,1-1.23,1.81,10.43,10.43,0,0,1-1.43,1.4h-1.06a13,13,0,0,0,1.26-1.21,10.59,10.59,0,0,0,1.05-1.37,9.42,9.42,0,0,0,.8-1.45,6.44,6.44,0,0,0,.47-1.45l.24-1.19a6.94,6.94,0,0,0,.12-1.31,8.5,8.5,0,0,0-.36-2.48,6.68,6.68,0,0,0-1.05-2.1h.94a6.86,6.86,0,0,1,1,2A8.18,8.18,0,0,1,167.12,150.05Z"/></g></g></g><g id="greenblindness"><g id="Group-3-Copy"><rect id="Rectangle-3" data-name="Rectangle" class="cls-14" y="186" width="41.34" height="41.14"/><rect id="Rectangle-Copy-13-3" data-name="Rectangle-Copy-13" class="cls-15" x="41.14" y="186" width="41.34" height="41.14"/><rect id="Rectangle-Copy-14-3" data-name="Rectangle-Copy-14" class="cls-16" x="82.29" y="186" width="41.34" height="41.14"/><rect id="Rectangle-Copy-16-3" data-name="Rectangle-Copy-16" class="cls-17" x="123.43" y="186" width="41.34" height="41.14"/><rect id="Rectangle-Copy-17-3" data-name="Rectangle-Copy-17" class="cls-18" x="164.57" y="186" width="41.34" height="41.14"/><rect id="Rectangle-Copy-18-3" data-name="Rectangle-Copy-18" class="cls-13" x="205.71" y="186" width="41.34" height="41.14"/><rect id="Rectangle-Copy-19-3" data-name="Rectangle-Copy-19" class="cls-19" x="246.86" y="186" width="41.14" height="41.14"/></g><g id="Deuteranopia-_Green" data-name="Deuteranopia-(Green" class="cls-8"><g class="cls-8"><path d="M2.51,239.23H5.38a3.17,3.17,0,0,1,2.45,1A4,4,0,0,1,8.72,243a7.77,7.77,0,0,1-.32,2.21,6,6,0,0,1-.94,1.91,4.86,4.86,0,0,1-1.54,1.35,4.15,4.15,0,0,1-2.07.51H.55ZM3.88,248A3.08,3.08,0,0,0,6,247.2,4,4,0,0,0,7.17,245l.29-1.46a4.12,4.12,0,0,0,.09-.86,2.36,2.36,0,0,0-.61-1.77,2.16,2.16,0,0,0-1.62-.61H3.43L1.89,248Z"/><path d="M12.54,249.17a2.61,2.61,0,0,1-2-.77,3.21,3.21,0,0,1-.72-2.26,5.15,5.15,0,0,1,.28-1.71,4.68,4.68,0,0,1,.77-1.45,3.7,3.7,0,0,1,1.19-1,3.16,3.16,0,0,1,1.54-.37,3.24,3.24,0,0,1,.89.12,2.32,2.32,0,0,1,.74.36,1.85,1.85,0,0,1,.51.6,1.91,1.91,0,0,1,.19.86,1.88,1.88,0,0,1-1.23,1.77,9.63,9.63,0,0,1-3.76.6,3.16,3.16,0,0,0,0,.32,2.62,2.62,0,0,0,0,.27,1.77,1.77,0,0,0,.44,1.24,1.69,1.69,0,0,0,1.28.47,2.46,2.46,0,0,0,1.24-.32,3.52,3.52,0,0,0,1-.83l.7.62a3.73,3.73,0,0,1-3,1.48Zm.94-6.64a2,2,0,0,0-.8.16,2.06,2.06,0,0,0-.69.43,2.55,2.55,0,0,0-.52.67,3.17,3.17,0,0,0-.31.88l-.09.41a18.59,18.59,0,0,0,1.89-.15,4.44,4.44,0,0,0,1.14-.29,1.19,1.19,0,0,0,.57-.46,1.42,1.42,0,0,0,.14-.65,1,1,0,0,0-.11-.48,1,1,0,0,0-.29-.31,1.47,1.47,0,0,0-.43-.16A2.73,2.73,0,0,0,13.48,242.53Z"/><path d="M19.24,241.78l-.9,4.45a3.12,3.12,0,0,0-.06.41c0,.14,0,.25,0,.33a1.47,1.47,0,0,0,.24.91,1.05,1.05,0,0,0,.84.31,1.74,1.74,0,0,0,1.3-.58,3.48,3.48,0,0,0,.63-.9,3.64,3.64,0,0,0,.32-.9l.81-4h1.08l-1.26,6.27h1l-.18.95h-1a.87.87,0,0,1-.69-.25.85.85,0,0,1-.23-.63,2.77,2.77,0,0,1,0-.41l0-.14h-.07a3,3,0,0,1-.89,1.21,2.07,2.07,0,0,1-1.28.39,1.74,1.74,0,0,1-1.38-.53,2.18,2.18,0,0,1-.47-1.47c0-.13,0-.28,0-.44s0-.32.08-.5l.9-4.45Z"/><path d="M26.05,249a1,1,0,0,1-.73-.25.82.82,0,0,1-.25-.63,1.74,1.74,0,0,1,.05-.34l1-5.05H25.07l.19-.95h.54a.71.71,0,0,0,.53-.16,1.17,1.17,0,0,0,.2-.53l.27-1.32h1l-.39,2h1.52l-.18.95H27.22l-1.08,5.32h1.41l-.18.95Z"/><path d="M32,249.17a2.64,2.64,0,0,1-2-.77,3.21,3.21,0,0,1-.71-2.26,5.42,5.42,0,0,1,.27-1.71,4.68,4.68,0,0,1,.77-1.45,3.81,3.81,0,0,1,1.19-1,3.38,3.38,0,0,1,2.43-.25,2.32,2.32,0,0,1,.74.36,1.85,1.85,0,0,1,.51.6,1.79,1.79,0,0,1,.19.86,1.88,1.88,0,0,1-1.23,1.77,9.61,9.61,0,0,1-3.75.6,1.65,1.65,0,0,0,0,.32c0,.1,0,.19,0,.27a1.77,1.77,0,0,0,.44,1.24,1.71,1.71,0,0,0,1.29.47,2.42,2.42,0,0,0,1.23-.32,3.52,3.52,0,0,0,1-.83l.7.62a3.73,3.73,0,0,1-3,1.48Zm.93-6.64a2,2,0,0,0-.8.16,2.06,2.06,0,0,0-.69.43,2.55,2.55,0,0,0-.52.67,3.17,3.17,0,0,0-.31.88l-.08.41q1.15,0,1.89-.15a4.67,4.67,0,0,0,1.14-.29,1.21,1.21,0,0,0,.56-.46,1.42,1.42,0,0,0,.14-.65.85.85,0,0,0-.11-.48.86.86,0,0,0-.29-.31,1.37,1.37,0,0,0-.43-.16A2.73,2.73,0,0,0,32.91,242.53Z"/><path d="M36.22,249l1.45-7.22h1.08l-.31,1.44h.07a5.24,5.24,0,0,1,.34-.53,2.79,2.79,0,0,1,.45-.46,2.89,2.89,0,0,1,.6-.33,2.28,2.28,0,0,1,.78-.12h.45l-.21,1.1h-.5a2.44,2.44,0,0,0-.89.15,2.13,2.13,0,0,0-.67.4,2.11,2.11,0,0,0-.45.58,2.49,2.49,0,0,0-.25.69L37.3,249Z"/><path d="M46.79,249a.94.94,0,0,1-.71-.24.89.89,0,0,1-.23-.63,1.82,1.82,0,0,1,0-.38l.07-.32h0a3.61,3.61,0,0,1-1,1.32,2.17,2.17,0,0,1-1.35.42,2,2,0,0,1-1.59-.74,3,3,0,0,1-.61-2,6.94,6.94,0,0,1,.22-1.65,5.77,5.77,0,0,1,.65-1.55,3.67,3.67,0,0,1,1.1-1.15,2.7,2.7,0,0,1,1.56-.45,2.59,2.59,0,0,1,.63.08,2,2,0,0,1,.56.25,2.19,2.19,0,0,1,.44.42,1.66,1.66,0,0,1,.26.59h.06l.24-1.17h1.07l-1.26,6.27h1l-.19.95Zm-2.93-.81a1.86,1.86,0,0,0,.84-.19,2.77,2.77,0,0,0,.69-.53,3.29,3.29,0,0,0,.58-.78,4.24,4.24,0,0,0,.33-.95l.29-1.47a1.74,1.74,0,0,0,0-.64,1.15,1.15,0,0,0-.26-.53,1.32,1.32,0,0,0-.53-.37,2,2,0,0,0-.81-.14,2,2,0,0,0-1.46.57,3.12,3.12,0,0,0-.78,1.63l-.21,1.05a3.7,3.7,0,0,0-.07.71,1.91,1.91,0,0,0,.35,1.19A1.21,1.21,0,0,0,43.86,248.19Z"/><path d="M49.34,249l1.45-7.22h1.08l-.29,1.42h.07a3.05,3.05,0,0,1,.9-1.2,2.12,2.12,0,0,1,1.31-.39,1.78,1.78,0,0,1,1.4.53,2.16,2.16,0,0,1,.46,1.47c0,.13,0,.28,0,.43s0,.33-.08.51l-.7,3.5h1l-.18.95h-1a1,1,0,0,1-.65-.2.74.74,0,0,1-.25-.61v-.13a.75.75,0,0,1,0-.17l.67-3.34a3,3,0,0,0,.06-.42c0-.13,0-.24,0-.32a1.35,1.35,0,0,0-.26-.92,1,1,0,0,0-.84-.3,1.82,1.82,0,0,0-1.33.57,3.26,3.26,0,0,0-.62.87,3.43,3.43,0,0,0-.33.94l-.82,4Z"/><path d="M60,249.17A2.76,2.76,0,0,1,59,249a2.22,2.22,0,0,1-.82-.56,2.7,2.7,0,0,1-.54-.92,4,4,0,0,1-.19-1.3,5.56,5.56,0,0,1,.27-1.74,4.87,4.87,0,0,1,.76-1.47,3.77,3.77,0,0,1,1.18-1,3,3,0,0,1,1.51-.38,2.75,2.75,0,0,1,1,.19,2.07,2.07,0,0,1,.83.56,2.56,2.56,0,0,1,.54.93,3.88,3.88,0,0,1,.2,1.29,5.66,5.66,0,0,1-.28,1.74,4.71,4.71,0,0,1-.76,1.46,3.8,3.8,0,0,1-1.18,1A3.08,3.08,0,0,1,60,249.17Zm.14-.95a2,2,0,0,0,1.4-.58,3.11,3.11,0,0,0,.84-1.69l.21-1a3.12,3.12,0,0,0,.07-.64,1.76,1.76,0,0,0-.43-1.23,1.61,1.61,0,0,0-1.25-.47,2,2,0,0,0-1.4.58,3,3,0,0,0-.84,1.69l-.21,1a3.1,3.1,0,0,0-.07.63,1.77,1.77,0,0,0,.43,1.24A1.61,1.61,0,0,0,60.17,248.22Z"/><path d="M66.4,241.78h1.08l-.32,1.56h0a3.79,3.79,0,0,1,1-1.32,2.21,2.21,0,0,1,1.35-.41,2,2,0,0,1,1.59.73,3.13,3.13,0,0,1,.6,2,6.77,6.77,0,0,1-.21,1.64,5.84,5.84,0,0,1-.65,1.56,3.78,3.78,0,0,1-1.1,1.15,2.75,2.75,0,0,1-1.56.45,2.18,2.18,0,0,1-.63-.09,1.78,1.78,0,0,1-.56-.25,1.6,1.6,0,0,1-.7-1h-.06l-.8,4H64.38Zm1.71,6.41a1.93,1.93,0,0,0,1.45-.58,3,3,0,0,0,.79-1.62l.21-1.05a3.78,3.78,0,0,0,.07-.71,2,2,0,0,0-.33-1.18,1.2,1.2,0,0,0-1.06-.46,1.72,1.72,0,0,0-.83.19,3.62,3.62,0,0,0-.68.52,3.49,3.49,0,0,0-.57.77,3.69,3.69,0,0,0-.34,1l-.29,1.47a1.74,1.74,0,0,0,0,.64,1.05,1.05,0,0,0,.26.54,1.24,1.24,0,0,0,.52.36A2.16,2.16,0,0,0,68.11,248.19Z"/><path d="M74.14,249a1,1,0,0,1-.73-.25.82.82,0,0,1-.25-.63,1.74,1.74,0,0,1,0-.34l1.2-6h1.08l-1.26,6.27h1l-.18.95Zm1.19-8.92a.58.58,0,0,1-.45-.15.47.47,0,0,1-.13-.34v-.12c0-.05,0-.14,0-.27a.72.72,0,0,1,.23-.41.8.8,0,0,1,.53-.15.58.58,0,0,1,.45.15.48.48,0,0,1,.14.34s0,.07,0,.12,0,.14,0,.27a.72.72,0,0,1-.23.41A.8.8,0,0,1,75.33,240.08Z"/><path d="M82.26,249a.93.93,0,0,1-.7-.24.85.85,0,0,1-.23-.63,1.82,1.82,0,0,1,0-.38l.07-.32h0a3.51,3.51,0,0,1-1,1.32,2.12,2.12,0,0,1-1.34.42,2,2,0,0,1-1.6-.74,3.1,3.1,0,0,1-.6-2,6.46,6.46,0,0,1,.22-1.65,5.47,5.47,0,0,1,.65-1.55,3.56,3.56,0,0,1,1.1-1.15,2.8,2.8,0,0,1,2.19-.37,2.18,2.18,0,0,1,.56.25,1.91,1.91,0,0,1,.43.42,1.88,1.88,0,0,1,.27.59h0l.24-1.17h1.08l-1.26,6.27h1l-.18.95Zm-2.92-.81a1.92,1.92,0,0,0,.84-.19,2.56,2.56,0,0,0,.68-.53,2.83,2.83,0,0,0,.58-.78,3.44,3.44,0,0,0,.33-.95l.3-1.47a1.73,1.73,0,0,0,0-.64,1.13,1.13,0,0,0-.25-.53,1.4,1.4,0,0,0-.53-.37,2,2,0,0,0-.82-.14,2,2,0,0,0-1.45.57,3.12,3.12,0,0,0-.78,1.63L78,245.84a3.76,3.76,0,0,0-.08.71,1.91,1.91,0,0,0,.35,1.19A1.24,1.24,0,0,0,79.34,248.19Z"/></g><g class="cls-8"><path d="M88.68,246.23a9.11,9.11,0,0,1,.32-2.48,10.74,10.74,0,0,1,.85-2.18,10.1,10.1,0,0,1,1.23-1.81,10.43,10.43,0,0,1,1.43-1.4h1.07a10.18,10.18,0,0,0-1.26,1.2,10.56,10.56,0,0,0-1.06,1.38,10.25,10.25,0,0,0-.8,1.44,6.78,6.78,0,0,0-.47,1.45L89.75,245a7,7,0,0,0-.12,1.32,8.55,8.55,0,0,0,.36,2.48,6.68,6.68,0,0,0,1.05,2.1H90.1a6.79,6.79,0,0,1-1-2A8.08,8.08,0,0,1,88.68,246.23Z"/><path d="M99,247.57h-.06a2.66,2.66,0,0,1-.41.62,2.74,2.74,0,0,1-.6.51,3.06,3.06,0,0,1-.8.34,3.37,3.37,0,0,1-1,.13,3.27,3.27,0,0,1-1.27-.25,2.77,2.77,0,0,1-1-.75A3.51,3.51,0,0,1,93.2,247a5.73,5.73,0,0,1-.23-1.68,8.36,8.36,0,0,1,.33-2.36,6.47,6.47,0,0,1,.94-2,4.88,4.88,0,0,1,1.53-1.37,4.23,4.23,0,0,1,2.09-.51,3.62,3.62,0,0,1,2.13.6,2.87,2.87,0,0,1,1.17,1.63l-1,.46a2.32,2.32,0,0,0-2.42-1.67,2.91,2.91,0,0,0-2.09.82,4.16,4.16,0,0,0-1.14,2.26l-.3,1.46a4.78,4.78,0,0,0-.08.84,2.91,2.91,0,0,0,.61,2,2.16,2.16,0,0,0,1.74.71,3,3,0,0,0,1-.16,2.68,2.68,0,0,0,.83-.45,2.6,2.6,0,0,0,.65-.74,3.24,3.24,0,0,0,.39-1l.15-.77H97.36l.22-1h3.18l-1,5H98.67Z"/><path d="M102,249l1.46-7.22h1.08l-.31,1.44h.07a3.83,3.83,0,0,1,.33-.53,2.86,2.86,0,0,1,.46-.46,2.58,2.58,0,0,1,.59-.33,2.39,2.39,0,0,1,.79-.12h.45l-.21,1.1h-.51a2.48,2.48,0,0,0-.89.15,2.08,2.08,0,0,0-.66.4,2.14,2.14,0,0,0-.46.58,2.46,2.46,0,0,0-.24.69L103,249Z"/><path d="M109.9,249.17a2.64,2.64,0,0,1-2-.77,3.26,3.26,0,0,1-.71-2.26,5.42,5.42,0,0,1,.27-1.71,4.68,4.68,0,0,1,.77-1.45,3.81,3.81,0,0,1,1.19-1,3.38,3.38,0,0,1,2.43-.25,2.22,2.22,0,0,1,.74.36,1.64,1.64,0,0,1,.51.6,1.79,1.79,0,0,1,.19.86,1.87,1.87,0,0,1-1.22,1.77,9.66,9.66,0,0,1-3.76.6,3.11,3.11,0,0,0,0,.32v.27a1.77,1.77,0,0,0,.44,1.24,1.68,1.68,0,0,0,1.28.47,2.46,2.46,0,0,0,1.24-.32,3.48,3.48,0,0,0,1-.83l.7.62a3.85,3.85,0,0,1-1.43,1.15A3.89,3.89,0,0,1,109.9,249.17Zm.94-6.64a2.05,2.05,0,0,0-.81.16,2.12,2.12,0,0,0-.68.43,2.35,2.35,0,0,0-.52.67,3.18,3.18,0,0,0-.32.88l-.08.41q1.16,0,1.89-.15a4.44,4.44,0,0,0,1.14-.29,1.16,1.16,0,0,0,.56-.46,1.3,1.3,0,0,0,.15-.65,1,1,0,0,0-.11-.48,1,1,0,0,0-.3-.31,1.28,1.28,0,0,0-.43-.16A2.63,2.63,0,0,0,110.84,242.53Z"/><path d="M117.05,249.17a2.61,2.61,0,0,1-2-.77,3.21,3.21,0,0,1-.72-2.26,5.15,5.15,0,0,1,.28-1.71,4.68,4.68,0,0,1,.77-1.45,3.7,3.7,0,0,1,1.19-1,3.16,3.16,0,0,1,1.54-.37,3.24,3.24,0,0,1,.89.12,2.32,2.32,0,0,1,.74.36,1.85,1.85,0,0,1,.51.6,1.91,1.91,0,0,1,.19.86,1.88,1.88,0,0,1-1.23,1.77,9.63,9.63,0,0,1-3.76.6,1.66,1.66,0,0,0,0,.32,2.62,2.62,0,0,0,0,.27,1.77,1.77,0,0,0,.44,1.24,1.69,1.69,0,0,0,1.28.47,2.46,2.46,0,0,0,1.24-.32,3.52,3.52,0,0,0,1-.83l.7.62a3.73,3.73,0,0,1-3,1.48Zm.94-6.64a2,2,0,0,0-.8.16,2.06,2.06,0,0,0-.69.43,2.55,2.55,0,0,0-.52.67,3.17,3.17,0,0,0-.31.88l-.09.41a18.59,18.59,0,0,0,1.89-.15,4.44,4.44,0,0,0,1.14-.29,1.11,1.11,0,0,0,.56-.46,1.3,1.3,0,0,0,.15-.65,1,1,0,0,0-.11-.48,1,1,0,0,0-.29-.31,1.47,1.47,0,0,0-.43-.16A2.73,2.73,0,0,0,118,242.53Z"/><path d="M121.3,249l1.45-7.22h1.08l-.29,1.42h.07a3.05,3.05,0,0,1,.9-1.2,2.12,2.12,0,0,1,1.31-.39,1.78,1.78,0,0,1,1.4.53,2.16,2.16,0,0,1,.46,1.47c0,.13,0,.28,0,.43s0,.33-.08.51l-.7,3.5h1l-.18.95h-1a1,1,0,0,1-.65-.2.74.74,0,0,1-.25-.61v-.13a.75.75,0,0,1,0-.17l.67-3.34a3,3,0,0,0,.06-.42c0-.13,0-.24,0-.32a1.35,1.35,0,0,0-.26-.92,1,1,0,0,0-.84-.3,1.82,1.82,0,0,0-1.33.57,3.26,3.26,0,0,0-.62.87,3.43,3.43,0,0,0-.33.94l-.82,4Z"/><path d="M134.59,238.64h1.08l-.95,4.7h0a3.68,3.68,0,0,1,1-1.32,2.18,2.18,0,0,1,1.34-.41,2,2,0,0,1,1.6.73,3.13,3.13,0,0,1,.6,2,6.33,6.33,0,0,1-.22,1.64,5.53,5.53,0,0,1-.65,1.56,3.78,3.78,0,0,1-1.1,1.15,2.7,2.7,0,0,1-1.56.45,2.28,2.28,0,0,1-.63-.09,1.88,1.88,0,0,1-.56-.25,1.56,1.56,0,0,1-.43-.42,1.78,1.78,0,0,1-.27-.59h-.06l-.23,1.18h-1.08Zm1.08,9.55a2,2,0,0,0,1.46-.58,3.08,3.08,0,0,0,.78-1.62l.21-1.05a3.78,3.78,0,0,0,.07-.71,2,2,0,0,0-.33-1.18,1.2,1.2,0,0,0-1.05-.46,1.74,1.74,0,0,0-.84.19,4,4,0,0,0-.68.52,3.49,3.49,0,0,0-.57.77,3.69,3.69,0,0,0-.34,1l-.29,1.47a1.54,1.54,0,0,0,0,.64,1,1,0,0,0,.25.54,1.24,1.24,0,0,0,.52.36A2.19,2.19,0,0,0,135.67,248.19Z"/><path d="M141.71,249a1,1,0,0,1-.74-.25.85.85,0,0,1-.24-.63,1.61,1.61,0,0,1,0-.34l1.83-9.14h1.08l-1.89,9.41h1.09l-.18.95Z"/><path d="M145.4,249a1,1,0,0,1-.73-.25.82.82,0,0,1-.25-.63,2.75,2.75,0,0,1,0-.34l1.21-6h1.08l-1.26,6.27h1l-.18.95Zm1.19-8.92a.58.58,0,0,1-.45-.15.48.48,0,0,1-.14-.34s0-.07,0-.12,0-.14.05-.27a.72.72,0,0,1,.23-.41.8.8,0,0,1,.53-.15.58.58,0,0,1,.45.15.48.48,0,0,1,.14.34s0,.07,0,.12,0,.14-.05.27a.72.72,0,0,1-.23.41A.8.8,0,0,1,146.59,240.08Z"/><path d="M147.91,249l1.46-7.22h1.07l-.29,1.42h.07a3.05,3.05,0,0,1,.9-1.2,2.14,2.14,0,0,1,1.31-.39,1.77,1.77,0,0,1,1.4.53,2.16,2.16,0,0,1,.46,1.47,3.24,3.24,0,0,1,0,.43c0,.16,0,.33-.07.51l-.7,3.5h1l-.19.95h-1a1,1,0,0,1-.65-.2.74.74,0,0,1-.24-.61v-.13a.75.75,0,0,1,0-.17l.67-3.34a3,3,0,0,0,0-.42c0-.13,0-.24,0-.32a1.4,1.4,0,0,0-.26-.92,1.08,1.08,0,0,0-.85-.3,1.83,1.83,0,0,0-1.33.57,3.5,3.5,0,0,0-.62.87,4.25,4.25,0,0,0-.33.94l-.81,4Z"/><path d="M161.43,249a.93.93,0,0,1-.7-.24.85.85,0,0,1-.23-.63,1.82,1.82,0,0,1,0-.38l.07-.32h-.05a3.5,3.5,0,0,1-1,1.32,2.12,2.12,0,0,1-1.34.42,2,2,0,0,1-1.6-.74,3.1,3.1,0,0,1-.6-2,6.46,6.46,0,0,1,.22-1.65,5.47,5.47,0,0,1,.65-1.55,3.56,3.56,0,0,1,1.1-1.15,2.8,2.8,0,0,1,2.19-.37,2.18,2.18,0,0,1,.56.25,1.91,1.91,0,0,1,.43.42,1.88,1.88,0,0,1,.27.59h.05l.87-4.31h1.08l-1.89,9.41h1l-.18.95Zm-2.91-.81a1.67,1.67,0,0,0,.83-.2,2.74,2.74,0,0,0,.68-.52,3.06,3.06,0,0,0,.58-.77,3.39,3.39,0,0,0,.33-1l.3-1.47a1.73,1.73,0,0,0,0-.64,1.13,1.13,0,0,0-.25-.53,1.4,1.4,0,0,0-.53-.37,2,2,0,0,0-.82-.14,2,2,0,0,0-1.45.57,3,3,0,0,0-.78,1.63l-.21,1.05a3.76,3.76,0,0,0-.08.71,2,2,0,0,0,.33,1.18A1.24,1.24,0,0,0,158.52,248.19Z"/><path d="M164,249l1.46-7.22h1.07l-.29,1.42h.07a3.05,3.05,0,0,1,.9-1.2,2.14,2.14,0,0,1,1.31-.39,1.77,1.77,0,0,1,1.4.53,2.16,2.16,0,0,1,.47,1.47,3.34,3.34,0,0,1,0,.43c0,.16,0,.33-.07.51l-.7,3.5h1l-.18.95h-1a1,1,0,0,1-.65-.2.74.74,0,0,1-.24-.61v-.13a.75.75,0,0,1,0-.17l.67-3.34a3,3,0,0,0,.06-.42c0-.13,0-.24,0-.32a1.4,1.4,0,0,0-.26-.92,1.07,1.07,0,0,0-.85-.3,1.85,1.85,0,0,0-1.33.57,3.47,3.47,0,0,0-.61.87,3.85,3.85,0,0,0-.34.94l-.81,4Z"/><path d="M174.8,249.17a2.6,2.6,0,0,1-2-.77,3.21,3.21,0,0,1-.72-2.26,5.15,5.15,0,0,1,.28-1.71,4.48,4.48,0,0,1,.77-1.45,3.7,3.7,0,0,1,1.19-1,3.35,3.35,0,0,1,2.42-.25,2.37,2.37,0,0,1,.75.36,1.85,1.85,0,0,1,.51.6,1.91,1.91,0,0,1,.19.86,1.88,1.88,0,0,1-1.23,1.77,9.66,9.66,0,0,1-3.76.6,1.66,1.66,0,0,0,0,.32,2.62,2.62,0,0,0,0,.27,1.77,1.77,0,0,0,.44,1.24,1.69,1.69,0,0,0,1.28.47,2.46,2.46,0,0,0,1.24-.32,3.48,3.48,0,0,0,1-.83l.7.62a3.77,3.77,0,0,1-1.43,1.15A3.86,3.86,0,0,1,174.8,249.17Zm.94-6.64a2,2,0,0,0-.8.16,2.06,2.06,0,0,0-.69.43,2.55,2.55,0,0,0-.52.67,3.17,3.17,0,0,0-.31.88l-.09.41a18.59,18.59,0,0,0,1.89-.15,4.44,4.44,0,0,0,1.14-.29,1.11,1.11,0,0,0,.56-.46,1.3,1.3,0,0,0,.15-.65,1,1,0,0,0-.11-.48.89.89,0,0,0-.3-.31,1.31,1.31,0,0,0-.42-.16A2.83,2.83,0,0,0,175.74,242.53Z"/><path d="M181.47,249.17a3.61,3.61,0,0,1-1.57-.35,2.83,2.83,0,0,1-1.16-1l.74-.66a2.6,2.6,0,0,0,.87.76,2.26,2.26,0,0,0,1.12.27,2,2,0,0,0,1.17-.34,1.18,1.18,0,0,0,.46-1,1,1,0,0,0-.21-.62,1.5,1.5,0,0,0-.85-.38l-.55-.11a5.62,5.62,0,0,1-.76-.22,1.91,1.91,0,0,1-.61-.35,1.43,1.43,0,0,1-.41-.53,1.79,1.79,0,0,1-.15-.77,2.52,2.52,0,0,1,.16-.86,2.12,2.12,0,0,1,.5-.73,2.32,2.32,0,0,1,.84-.5,3.28,3.28,0,0,1,1.18-.19,3.19,3.19,0,0,1,1.37.27,2.79,2.79,0,0,1,1,.8l-.74.66a2,2,0,0,0-.65-.56,2.15,2.15,0,0,0-1-.22,1.69,1.69,0,0,0-1.17.35,1.17,1.17,0,0,0-.37.88.87.87,0,0,0,.22.62,1.49,1.49,0,0,0,.83.37l.55.11a4.31,4.31,0,0,1,.79.23,1.93,1.93,0,0,1,.61.36,1.45,1.45,0,0,1,.39.55,2,2,0,0,1,.14.77,2.47,2.47,0,0,1-.2,1,2.17,2.17,0,0,1-.56.74,2.59,2.59,0,0,1-.85.47A3.32,3.32,0,0,1,181.47,249.17Z"/><path d="M188,249.17a3.61,3.61,0,0,1-1.57-.35,2.83,2.83,0,0,1-1.16-1l.74-.66a2.6,2.6,0,0,0,.87.76,2.26,2.26,0,0,0,1.12.27,2,2,0,0,0,1.17-.34,1.18,1.18,0,0,0,.46-1,1,1,0,0,0-.21-.62,1.5,1.5,0,0,0-.85-.38l-.55-.11a5.62,5.62,0,0,1-.76-.22,2.08,2.08,0,0,1-.62-.35,1.52,1.52,0,0,1-.4-.53,1.79,1.79,0,0,1-.15-.77,2.52,2.52,0,0,1,.16-.86,2.12,2.12,0,0,1,.5-.73,2.32,2.32,0,0,1,.84-.5,3.28,3.28,0,0,1,1.18-.19,3.19,3.19,0,0,1,1.37.27,2.79,2.79,0,0,1,1,.8l-.74.66a2,2,0,0,0-.65-.56,2.15,2.15,0,0,0-1.05-.22,1.69,1.69,0,0,0-1.17.35,1.17,1.17,0,0,0-.37.88.87.87,0,0,0,.22.62,1.49,1.49,0,0,0,.83.37l.55.11a4.31,4.31,0,0,1,.79.23,1.93,1.93,0,0,1,.61.36,1.45,1.45,0,0,1,.39.55,2,2,0,0,1,.14.77,2.47,2.47,0,0,1-.2,1,2.3,2.3,0,0,1-.56.74,2.59,2.59,0,0,1-.85.47A3.32,3.32,0,0,1,188,249.17Z"/><path d="M195.48,243.05a9.58,9.58,0,0,1-.32,2.48,10.76,10.76,0,0,1-.86,2.18,10.06,10.06,0,0,1-1.22,1.81,10,10,0,0,1-1.44,1.4h-1.06a11.07,11.07,0,0,0,1.26-1.21,11.65,11.65,0,0,0,1.06-1.37,10.35,10.35,0,0,0,.8-1.45,6.94,6.94,0,0,0,.46-1.45l.24-1.19a6.19,6.19,0,0,0,.13-1.31,8.18,8.18,0,0,0-.37-2.48,6.68,6.68,0,0,0-1-2.1h.94a7.13,7.13,0,0,1,1,2A8.45,8.45,0,0,1,195.48,243.05Z"/></g></g></g><g id="blueblindness"><g id="Group-3-Copy-2"><rect id="Rectangle-4" data-name="Rectangle" class="cls-20" y="279" width="41.34" height="41.14"/><rect id="Rectangle-Copy-13-4" data-name="Rectangle-Copy-13" class="cls-21" x="41.14" y="279" width="41.34" height="41.14"/><rect id="Rectangle-Copy-14-4" data-name="Rectangle-Copy-14" class="cls-13" x="82.29" y="279" width="41.34" height="41.14"/><rect id="Rectangle-Copy-16-4" data-name="Rectangle-Copy-16" class="cls-22" x="123.43" y="279" width="41.34" height="41.14"/><rect id="Rectangle-Copy-17-4" data-name="Rectangle-Copy-17" class="cls-23" x="164.57" y="279" width="41.34" height="41.14"/><rect id="Rectangle-Copy-18-4" data-name="Rectangle-Copy-18" class="cls-24" x="205.71" y="279" width="41.34" height="41.14"/><rect id="Rectangle-Copy-19-4" data-name="Rectangle-Copy-19" class="cls-25" x="246.86" y="279" width="41.14" height="41.14"/></g><g id="Tritanopia-_Blue-bli" data-name="Tritanopia-(Blue-bli" class="cls-8"><g class="cls-8"><path d="M5.49,333.25,3.74,342H2.6l1.75-8.75h-3l.2-1h7.1l-.2,1Z"/><path d="M7.67,342l1.46-7.22h1.08l-.31,1.44H10a3.83,3.83,0,0,1,.33-.53,2.86,2.86,0,0,1,.46-.46,2.58,2.58,0,0,1,.59-.33,2.39,2.39,0,0,1,.79-.12h.45l-.21,1.1h-.51A2.48,2.48,0,0,0,11,336a2.08,2.08,0,0,0-.66.4,2.14,2.14,0,0,0-.46.58,2.46,2.46,0,0,0-.24.69L8.75,342Z"/><path d="M14,342a1,1,0,0,1-.74-.25.85.85,0,0,1-.24-.63,1.61,1.61,0,0,1,0-.34l1.2-6H15.3L14,341.05h1l-.18.95Zm1.19-8.92a.59.59,0,0,1-.46-.15.47.47,0,0,1-.13-.34.57.57,0,0,1,0-.12,1.6,1.6,0,0,1,0-.27.62.62,0,0,1,.23-.41.77.77,0,0,1,.52-.15.59.59,0,0,1,.46.15.47.47,0,0,1,.13.34.57.57,0,0,1,0,.12,1.6,1.6,0,0,1,0,.27.62.62,0,0,1-.23.41A.77.77,0,0,1,15.15,333.08Z"/><path d="M17.86,342a1,1,0,0,1-.73-.25.86.86,0,0,1-.25-.63,1.74,1.74,0,0,1,.05-.34l1-5H16.88l.19-1h.54a.71.71,0,0,0,.53-.16,1.17,1.17,0,0,0,.2-.53l.27-1.32h1l-.39,2h1.52l-.18,1H19L18,341.05h1.41l-.18.95Z"/><path d="M26.49,342a.94.94,0,0,1-.71-.24.89.89,0,0,1-.23-.63,1.82,1.82,0,0,1,0-.38l.07-.32h0a3.61,3.61,0,0,1-1,1.32,2.17,2.17,0,0,1-1.35.42,2,2,0,0,1-1.59-.74,3,3,0,0,1-.61-2,6.94,6.94,0,0,1,.22-1.65,5.77,5.77,0,0,1,.65-1.55,3.67,3.67,0,0,1,1.1-1.15,2.7,2.7,0,0,1,1.56-.45,2.59,2.59,0,0,1,.63.08,2,2,0,0,1,.56.25,2.19,2.19,0,0,1,.44.42,1.66,1.66,0,0,1,.26.59h.06l.24-1.17h1.07l-1.26,6.27h1l-.19.95Zm-2.93-.81a1.86,1.86,0,0,0,.84-.19,2.77,2.77,0,0,0,.69-.53,3.29,3.29,0,0,0,.58-.78,4.24,4.24,0,0,0,.33-.95l.29-1.47a1.74,1.74,0,0,0,0-.64,1.15,1.15,0,0,0-.26-.53,1.32,1.32,0,0,0-.53-.37,2,2,0,0,0-.81-.14,2,2,0,0,0-1.46.57,3.12,3.12,0,0,0-.78,1.63l-.21,1a3.7,3.7,0,0,0-.07.71,1.91,1.91,0,0,0,.35,1.19A1.21,1.21,0,0,0,23.56,341.19Z"/><path d="M29,342l1.45-7.22h1.08l-.29,1.42h.07a3.05,3.05,0,0,1,.9-1.2,2.14,2.14,0,0,1,1.31-.39,1.78,1.78,0,0,1,1.4.53,2.16,2.16,0,0,1,.46,1.47c0,.13,0,.28,0,.43s0,.33-.08.51l-.7,3.5h1l-.18.95h-1a1,1,0,0,1-.65-.2.74.74,0,0,1-.25-.61v-.13a.75.75,0,0,1,0-.17l.67-3.34a3,3,0,0,0,.06-.42c0-.13,0-.24,0-.32a1.35,1.35,0,0,0-.26-.92,1,1,0,0,0-.84-.3,1.82,1.82,0,0,0-1.33.57,3.26,3.26,0,0,0-.62.87,3.43,3.43,0,0,0-.33.94l-.82,4Z"/><path d="M39.73,342.17a2.76,2.76,0,0,1-1-.19,2.22,2.22,0,0,1-.82-.56,2.7,2.7,0,0,1-.54-.92,4,4,0,0,1-.19-1.3,5.56,5.56,0,0,1,.27-1.74,4.87,4.87,0,0,1,.76-1.47,3.77,3.77,0,0,1,1.18-1,3,3,0,0,1,1.51-.38,2.75,2.75,0,0,1,1,.19,2.07,2.07,0,0,1,.83.56,2.56,2.56,0,0,1,.54.93,3.88,3.88,0,0,1,.2,1.29,5.66,5.66,0,0,1-.28,1.74,4.71,4.71,0,0,1-.76,1.46,3.8,3.8,0,0,1-1.18,1A3.08,3.08,0,0,1,39.73,342.17Zm.14-.95a2,2,0,0,0,1.4-.58,3.11,3.11,0,0,0,.84-1.69l.21-1.05a3.12,3.12,0,0,0,.07-.64A1.76,1.76,0,0,0,42,336a1.61,1.61,0,0,0-1.25-.47,2,2,0,0,0-1.4.58,3,3,0,0,0-.84,1.69l-.21,1.05a3.1,3.1,0,0,0-.07.63,1.77,1.77,0,0,0,.43,1.24A1.61,1.61,0,0,0,39.87,341.22Z"/><path d="M46.1,334.78h1.08l-.32,1.56h0a3.79,3.79,0,0,1,1-1.32,2.23,2.23,0,0,1,1.35-.41,2,2,0,0,1,1.59.73,3.13,3.13,0,0,1,.61,2,6.79,6.79,0,0,1-.22,1.64,5.84,5.84,0,0,1-.65,1.56,3.78,3.78,0,0,1-1.1,1.15,2.72,2.72,0,0,1-1.56.45,2.18,2.18,0,0,1-.63-.09,1.78,1.78,0,0,1-.56-.25,1.6,1.6,0,0,1-.7-1H46l-.8,4H44.09Zm1.71,6.41a2,2,0,0,0,1.46-.58,3.08,3.08,0,0,0,.78-1.62l.21-1.05a3.78,3.78,0,0,0,.07-.71,2,2,0,0,0-.33-1.18,1.2,1.2,0,0,0-1.06-.46,1.72,1.72,0,0,0-.83.19,3.62,3.62,0,0,0-.68.52,3.49,3.49,0,0,0-.57.77,3.69,3.69,0,0,0-.34,1l-.29,1.47a1.74,1.74,0,0,0,0,.64,1.05,1.05,0,0,0,.26.54,1.24,1.24,0,0,0,.52.36A2.16,2.16,0,0,0,47.81,341.19Z"/><path d="M53.84,342a1,1,0,0,1-.73-.25.82.82,0,0,1-.25-.63,1.74,1.74,0,0,1,0-.34l1.2-6h1.08l-1.26,6.27h1l-.18.95ZM55,333.08a.58.58,0,0,1-.45-.15.47.47,0,0,1-.13-.34v-.12c0-.05,0-.14,0-.27a.72.72,0,0,1,.23-.41.8.8,0,0,1,.53-.15.58.58,0,0,1,.45.15.48.48,0,0,1,.14.34s0,.07,0,.12,0,.14-.05.27a.72.72,0,0,1-.23.41A.8.8,0,0,1,55,333.08Z"/><path d="M62,342a.93.93,0,0,1-.7-.24.85.85,0,0,1-.23-.63,1.82,1.82,0,0,1,0-.38l.07-.32h0a3.51,3.51,0,0,1-1,1.32,2.12,2.12,0,0,1-1.34.42,2,2,0,0,1-1.6-.74,3.1,3.1,0,0,1-.6-2,6.46,6.46,0,0,1,.22-1.65,5.47,5.47,0,0,1,.65-1.55,3.56,3.56,0,0,1,1.1-1.15,2.8,2.8,0,0,1,2.19-.37,2.18,2.18,0,0,1,.56.25,1.91,1.91,0,0,1,.43.42A1.88,1.88,0,0,1,62,336H62l.24-1.17h1.08l-1.26,6.27h1l-.18.95ZM59,341.19a1.92,1.92,0,0,0,.84-.19,2.56,2.56,0,0,0,.68-.53,2.83,2.83,0,0,0,.58-.78,3.44,3.44,0,0,0,.33-.95l.3-1.47a1.73,1.73,0,0,0,0-.64,1.13,1.13,0,0,0-.25-.53,1.4,1.4,0,0,0-.53-.37,2,2,0,0,0-.81-.14,2,2,0,0,0-1.46.57,3.12,3.12,0,0,0-.78,1.63l-.21,1a3.7,3.7,0,0,0-.07.71,1.85,1.85,0,0,0,.35,1.19A1.21,1.21,0,0,0,59,341.19Z"/></g><g class="cls-8"><path d="M68.38,339.23a9.11,9.11,0,0,1,.32-2.48,10.74,10.74,0,0,1,.85-2.18,10.1,10.1,0,0,1,1.23-1.81,10.43,10.43,0,0,1,1.43-1.4h1.07a10.18,10.18,0,0,0-1.26,1.2A10.56,10.56,0,0,0,71,333.94a10.25,10.25,0,0,0-.8,1.44,7.39,7.39,0,0,0-.47,1.45L69.45,338a7,7,0,0,0-.12,1.32,8.55,8.55,0,0,0,.36,2.48,6.68,6.68,0,0,0,1,2.1H69.8a6.79,6.79,0,0,1-1-2A8.08,8.08,0,0,1,68.38,339.23Z"/><path d="M74.41,332.23H78a2.47,2.47,0,0,1,1.73.56,2,2,0,0,1,.61,1.52,2.72,2.72,0,0,1-.14.86,2.41,2.41,0,0,1-.38.75,2.62,2.62,0,0,1-1.47.94l0,.07a2,2,0,0,1,1,.57,1.71,1.71,0,0,1,.37,1.17,3.33,3.33,0,0,1-.25,1.29,3.2,3.2,0,0,1-.67,1.05,3.12,3.12,0,0,1-2.27,1H72.45ZM76.55,341a1.93,1.93,0,0,0,1.23-.39,1.79,1.79,0,0,0,.66-1.17c0-.25.08-.42.1-.54a1.8,1.8,0,0,0,0-.27,1,1,0,0,0-.37-.85,1.61,1.61,0,0,0-1.06-.3H74.48l-.7,3.52Zm.49-4.5a2.37,2.37,0,0,0,1.3-.32,1.58,1.58,0,0,0,.66-1.07,3.79,3.79,0,0,0,.09-.49c0-.12,0-.21,0-.28a1,1,0,0,0-.31-.78,1.34,1.34,0,0,0-.94-.29H75.32l-.64,3.23Z"/><path d="M82.38,342a1,1,0,0,1-.74-.25.85.85,0,0,1-.24-.63,1.61,1.61,0,0,1,0-.34l1.83-9.14h1.08l-1.89,9.41h1.09l-.18.95Z"/><path d="M87.33,334.78l-.89,4.45a3.12,3.12,0,0,0-.06.41c0,.14,0,.25,0,.33a1.47,1.47,0,0,0,.24.91,1,1,0,0,0,.83.31,1.76,1.76,0,0,0,1.31-.58,3.48,3.48,0,0,0,.63-.9,4.69,4.69,0,0,0,.32-.9l.81-4h1.08l-1.26,6.27h1l-.18.95h-1a.87.87,0,0,1-.69-.25.85.85,0,0,1-.24-.63,2,2,0,0,1,.06-.41l0-.14h-.07a3,3,0,0,1-.9,1.21,2,2,0,0,1-1.27.39,1.76,1.76,0,0,1-1.39-.53,2.18,2.18,0,0,1-.46-1.47c0-.13,0-.28,0-.44a3.23,3.23,0,0,1,.08-.5l.89-4.45Z"/><path d="M95.66,342.17a2.6,2.6,0,0,1-2-.77,3.21,3.21,0,0,1-.72-2.26,5.42,5.42,0,0,1,.27-1.71A4.9,4.9,0,0,1,94,336a3.92,3.92,0,0,1,1.19-1,3.23,3.23,0,0,1,1.55-.37,3.17,3.17,0,0,1,.88.12,2.37,2.37,0,0,1,.75.36,1.85,1.85,0,0,1,.51.6,1.91,1.91,0,0,1,.19.86,1.88,1.88,0,0,1-1.23,1.77,9.66,9.66,0,0,1-3.76.6,1.66,1.66,0,0,0,0,.32,2.62,2.62,0,0,0,0,.27,1.77,1.77,0,0,0,.44,1.24,1.68,1.68,0,0,0,1.28.47A2.46,2.46,0,0,0,97,340.9a3.48,3.48,0,0,0,1-.83l.7.62a3.77,3.77,0,0,1-1.43,1.15A3.89,3.89,0,0,1,95.66,342.17Zm.94-6.64a2.05,2.05,0,0,0-.81.16,2.12,2.12,0,0,0-.68.43,2.55,2.55,0,0,0-.52.67,3.17,3.17,0,0,0-.31.88l-.09.41a18.59,18.59,0,0,0,1.89-.15,4.44,4.44,0,0,0,1.14-.29,1.16,1.16,0,0,0,.56-.46,1.3,1.3,0,0,0,.15-.65,1,1,0,0,0-.11-.48.89.89,0,0,0-.3-.31,1.31,1.31,0,0,0-.42-.16A2.83,2.83,0,0,0,96.6,335.53Z"/><path d="M105.29,331.64h1.08l-1,4.7h0a3.68,3.68,0,0,1,1-1.32,2.18,2.18,0,0,1,1.34-.41,2,2,0,0,1,1.6.73,3.13,3.13,0,0,1,.6,2,6.33,6.33,0,0,1-.22,1.64,5.53,5.53,0,0,1-.65,1.56,3.78,3.78,0,0,1-1.1,1.15,2.7,2.7,0,0,1-1.56.45,2.18,2.18,0,0,1-.63-.09,1.78,1.78,0,0,1-.56-.25,1.56,1.56,0,0,1-.43-.42,1.6,1.6,0,0,1-.27-.59h-.06l-.23,1.18h-1.08Zm1.08,9.55a2,2,0,0,0,1.46-.58,3.08,3.08,0,0,0,.78-1.62l.21-1.05a3.78,3.78,0,0,0,.07-.71,2,2,0,0,0-.33-1.18,1.2,1.2,0,0,0-1-.46,1.74,1.74,0,0,0-.84.19,3.62,3.62,0,0,0-.68.52,3.49,3.49,0,0,0-.57.77,3.69,3.69,0,0,0-.34,1l-.29,1.47a1.54,1.54,0,0,0,0,.64,1,1,0,0,0,.25.54,1.24,1.24,0,0,0,.52.36A2.16,2.16,0,0,0,106.37,341.19Z"/><path d="M112.41,342a1,1,0,0,1-.74-.25.85.85,0,0,1-.24-.63,1.61,1.61,0,0,1,0-.34l1.83-9.14h1.08l-1.89,9.41h1.09l-.18.95Z"/><path d="M116.1,342a1,1,0,0,1-.73-.25.82.82,0,0,1-.25-.63,2.75,2.75,0,0,1,0-.34l1.21-6h1.08l-1.26,6.27h1L117,342Zm1.19-8.92a.57.57,0,0,1-.45-.15.48.48,0,0,1-.14-.34s0-.07,0-.12a1.6,1.6,0,0,1,.05-.27.67.67,0,0,1,.23-.41.8.8,0,0,1,.53-.15.58.58,0,0,1,.45.15.47.47,0,0,1,.13.34v.12c0,.05,0,.14,0,.27a.72.72,0,0,1-.23.41A.82.82,0,0,1,117.29,333.08Z"/><path d="M118.61,342l1.45-7.22h1.08l-.29,1.42h.07a3.05,3.05,0,0,1,.9-1.2,2.14,2.14,0,0,1,1.31-.39,1.78,1.78,0,0,1,1.4.53,2.16,2.16,0,0,1,.46,1.47c0,.13,0,.28,0,.43a3.35,3.35,0,0,1-.08.51l-.7,3.5h1L125,342h-1a1,1,0,0,1-.65-.2.74.74,0,0,1-.24-.61v-.13a.62.62,0,0,1,0-.17l.67-3.34a3,3,0,0,0,.06-.42c0-.13,0-.24,0-.32a1.4,1.4,0,0,0-.26-.92,1.08,1.08,0,0,0-.85-.3,1.82,1.82,0,0,0-1.33.57,3.5,3.5,0,0,0-.62.87,3.79,3.79,0,0,0-.33.94l-.81,4Z"/><path d="M132.13,342a1,1,0,0,1-.71-.24.89.89,0,0,1-.23-.63,2.9,2.9,0,0,1,0-.38l.07-.32h0a3.61,3.61,0,0,1-1,1.32,2.15,2.15,0,0,1-1.35.42,2,2,0,0,1-1.59-.74,3.1,3.1,0,0,1-.6-2,6.91,6.91,0,0,1,.21-1.65,6.12,6.12,0,0,1,.65-1.55,3.67,3.67,0,0,1,1.1-1.15,2.75,2.75,0,0,1,1.56-.45,2.59,2.59,0,0,1,.63.08,1.91,1.91,0,0,1,.56.25,2,2,0,0,1,.44.42,1.66,1.66,0,0,1,.26.59h.06l.87-4.31h1.08l-1.89,9.41h1l-.18.95Zm-2.91-.81a1.7,1.7,0,0,0,.83-.2,2.74,2.74,0,0,0,.68-.52,3,3,0,0,0,.57-.77,3.4,3.4,0,0,0,.34-1l.29-1.47a1.55,1.55,0,0,0,0-.64,1.13,1.13,0,0,0-.25-.53,1.36,1.36,0,0,0-.54-.37,2.22,2.22,0,0,0-2.26.43,3.05,3.05,0,0,0-.79,1.63l-.21,1a4.73,4.73,0,0,0-.07.71,2,2,0,0,0,.33,1.18A1.23,1.23,0,0,0,129.22,341.19Z"/><path d="M134.68,342l1.45-7.22h1.08l-.29,1.42H137a3.05,3.05,0,0,1,.9-1.2,2.14,2.14,0,0,1,1.31-.39,1.77,1.77,0,0,1,1.4.53,2.16,2.16,0,0,1,.46,1.47,3.24,3.24,0,0,1,0,.43,3.35,3.35,0,0,1-.08.51l-.7,3.5h1l-.19.95h-1a1,1,0,0,1-.65-.2.74.74,0,0,1-.24-.61v-.13s0-.09,0-.17l.68-3.34a3,3,0,0,0,.05-.42c0-.13,0-.24,0-.32a1.4,1.4,0,0,0-.26-.92,1.08,1.08,0,0,0-.85-.3,1.83,1.83,0,0,0-1.33.57,3.5,3.5,0,0,0-.62.87,3.79,3.79,0,0,0-.33.94l-.81,4Z"/><path d="M145.5,342.17a2.64,2.64,0,0,1-2-.77,3.26,3.26,0,0,1-.71-2.26,5.42,5.42,0,0,1,.27-1.71,4.9,4.9,0,0,1,.77-1.45,3.81,3.81,0,0,1,1.19-1,3.38,3.38,0,0,1,2.43-.25,2.22,2.22,0,0,1,.74.36,1.77,1.77,0,0,1,.52.6,1.91,1.91,0,0,1,.18.86,1.87,1.87,0,0,1-1.22,1.77,9.66,9.66,0,0,1-3.76.6,1.66,1.66,0,0,0,0,.32,2.62,2.62,0,0,0,0,.27,1.77,1.77,0,0,0,.44,1.24,1.68,1.68,0,0,0,1.28.47,2.46,2.46,0,0,0,1.24-.32,3.48,3.48,0,0,0,1-.83l.7.62a3.85,3.85,0,0,1-1.43,1.15A3.89,3.89,0,0,1,145.5,342.17Zm.94-6.64a2.05,2.05,0,0,0-.81.16,2.12,2.12,0,0,0-.68.43,2.35,2.35,0,0,0-.52.67,3.18,3.18,0,0,0-.32.88l-.08.41a18.84,18.84,0,0,0,1.89-.15,4.44,4.44,0,0,0,1.14-.29,1.16,1.16,0,0,0,.56-.46,1.3,1.3,0,0,0,.15-.65,1,1,0,0,0-.11-.48,1,1,0,0,0-.3-.31,1.31,1.31,0,0,0-.42-.16A2.83,2.83,0,0,0,146.44,335.53Z"/><path d="M152.16,342.17a3.57,3.57,0,0,1-1.56-.35,2.86,2.86,0,0,1-1.17-1l.75-.66a2.67,2.67,0,0,0,.86.76,2.29,2.29,0,0,0,1.12.27,2,2,0,0,0,1.18-.34,1.18,1.18,0,0,0,.46-1,.91.91,0,0,0-.22-.62,1.43,1.43,0,0,0-.84-.38l-.55-.11a5.62,5.62,0,0,1-.76-.22,2.08,2.08,0,0,1-.62-.35,1.41,1.41,0,0,1-.4-.53,1.79,1.79,0,0,1-.15-.77,2.3,2.3,0,0,1,.16-.86,2,2,0,0,1,.5-.73,2.32,2.32,0,0,1,.84-.5,3.68,3.68,0,0,1,2.55.08,2.79,2.79,0,0,1,1,.8l-.75.66a2,2,0,0,0-.64-.56,2.15,2.15,0,0,0-1.05-.22,1.69,1.69,0,0,0-1.17.35,1.13,1.13,0,0,0-.37.88.87.87,0,0,0,.22.62,1.49,1.49,0,0,0,.83.37l.55.11a4.31,4.31,0,0,1,.79.23,2,2,0,0,1,.61.36,1.71,1.71,0,0,1,.39.55,2,2,0,0,1,.14.77,2.31,2.31,0,0,1-.21,1,2.14,2.14,0,0,1-.55.74,2.7,2.7,0,0,1-.85.47A3.33,3.33,0,0,1,152.16,342.17Z"/><path d="M158.67,342.17a3.57,3.57,0,0,1-1.56-.35,2.86,2.86,0,0,1-1.17-1l.75-.66a2.67,2.67,0,0,0,.86.76,2.29,2.29,0,0,0,1.12.27,2,2,0,0,0,1.18-.34,1.18,1.18,0,0,0,.46-1,1,1,0,0,0-.21-.62,1.5,1.5,0,0,0-.85-.38l-.55-.11a5.62,5.62,0,0,1-.76-.22,2.08,2.08,0,0,1-.62-.35,1.52,1.52,0,0,1-.4-.53,1.79,1.79,0,0,1-.15-.77,2.3,2.3,0,0,1,.16-.86,2,2,0,0,1,.5-.73,2.32,2.32,0,0,1,.84-.5,3.68,3.68,0,0,1,2.55.08,2.79,2.79,0,0,1,1,.8l-.75.66a1.85,1.85,0,0,0-.64-.56,2.15,2.15,0,0,0-1-.22,1.69,1.69,0,0,0-1.17.35,1.13,1.13,0,0,0-.37.88.87.87,0,0,0,.22.62,1.49,1.49,0,0,0,.83.37l.55.11a4.31,4.31,0,0,1,.79.23,1.93,1.93,0,0,1,.61.36,1.57,1.57,0,0,1,.39.55,2,2,0,0,1,.14.77,2.47,2.47,0,0,1-.2,1,2.19,2.19,0,0,1-.57.74,2.54,2.54,0,0,1-.84.47A3.33,3.33,0,0,1,158.67,342.17Z"/><path d="M166.18,336.05a9.58,9.58,0,0,1-.32,2.48,10.76,10.76,0,0,1-.86,2.18,10.06,10.06,0,0,1-1.22,1.81,10,10,0,0,1-1.44,1.4h-1.06a11.07,11.07,0,0,0,1.26-1.21,10.59,10.59,0,0,0,1.05-1.37,9.42,9.42,0,0,0,.8-1.45,6.44,6.44,0,0,0,.47-1.45l.24-1.19a6.93,6.93,0,0,0,.13-1.31,8.51,8.51,0,0,0-.37-2.48,6.68,6.68,0,0,0-1.05-2.1h.94a6.86,6.86,0,0,1,1,2A8.18,8.18,0,0,1,166.18,336.05Z"/></g></g></g><g id="allcolorblindness"><g id="Group-3-Copy-3"><rect id="Rectangle-5" data-name="Rectangle" class="cls-26" y="372" width="41.34" height="41.14"/><rect id="Rectangle-Copy-13-5" data-name="Rectangle-Copy-13" class="cls-27" x="41.14" y="372" width="41.34" height="41.14"/><rect id="Rectangle-Copy-14-5" data-name="Rectangle-Copy-14" class="cls-28" x="82.29" y="372" width="41.34" height="41.14"/><rect id="Rectangle-Copy-16-5" data-name="Rectangle-Copy-16" class="cls-29" x="123.43" y="372" width="41.34" height="41.14"/><rect id="Rectangle-Copy-17-5" data-name="Rectangle-Copy-17" class="cls-30" x="164.57" y="372" width="41.34" height="41.14"/><rect id="Rectangle-Copy-18-5" data-name="Rectangle-Copy-18" class="cls-29" x="205.71" y="372" width="41.34" height="41.14"/><rect id="Rectangle-Copy-19-5" data-name="Rectangle-Copy-19" class="cls-30" x="246.86" y="372" width="41.14" height="41.14"/></g><g id="Monochromacy-_All-co" data-name="Monochromacy-(All-co" class="cls-8"><g class="cls-8"><path d="M9.52,426.8H9.45l-1.13,1.63-3,4.25-1.39-4.25-.52-1.62H3.3L1.67,435H.55l2-9.77H4l1.65,5.3h0l3.68-5.3h1.58L9,435H7.85Z"/><path d="M14.27,435.17a2.69,2.69,0,0,1-1-.19,2.22,2.22,0,0,1-.82-.56,2.7,2.7,0,0,1-.54-.92,4,4,0,0,1-.2-1.3,5.29,5.29,0,0,1,.28-1.74A4.66,4.66,0,0,1,12.7,429a3.74,3.74,0,0,1,1.17-1,3,3,0,0,1,1.52-.38,2.75,2.75,0,0,1,1,.19,2,2,0,0,1,.82.56,2.56,2.56,0,0,1,.54.93,3.88,3.88,0,0,1,.2,1.29,5.65,5.65,0,0,1-.27,1.74,4.73,4.73,0,0,1-.77,1.46,3.66,3.66,0,0,1-1.17,1A3.11,3.11,0,0,1,14.27,435.17Zm.14-.95a2,2,0,0,0,1.4-.58,3.11,3.11,0,0,0,.84-1.69l.21-1.05a4,4,0,0,0,.07-.64A1.81,1.81,0,0,0,16.5,429a1.62,1.62,0,0,0-1.25-.47,2,2,0,0,0-1.4.58,3,3,0,0,0-.84,1.69l-.21,1.05a3.1,3.1,0,0,0-.07.63,1.81,1.81,0,0,0,.42,1.24A1.64,1.64,0,0,0,14.41,434.22Z"/><path d="M19.18,435l1.46-7.22h1.07l-.29,1.42h.07a3.05,3.05,0,0,1,.9-1.2,2.14,2.14,0,0,1,1.31-.39,1.77,1.77,0,0,1,1.4.53,2.16,2.16,0,0,1,.46,1.47,3.24,3.24,0,0,1,0,.43c0,.16,0,.33-.07.51l-.7,3.5h1l-.18.95h-1a1,1,0,0,1-.65-.2.74.74,0,0,1-.24-.61v-.13a.75.75,0,0,1,0-.17l.67-3.34a3,3,0,0,0,.05-.42c0-.13,0-.24,0-.32a1.4,1.4,0,0,0-.26-.92,1.07,1.07,0,0,0-.85-.3,1.83,1.83,0,0,0-1.33.57,3.23,3.23,0,0,0-.61.87,3.85,3.85,0,0,0-.34.94l-.81,4Z"/><path d="M29.88,435.17a2.69,2.69,0,0,1-1.05-.19,2.14,2.14,0,0,1-.82-.56,2.7,2.7,0,0,1-.54-.92,4,4,0,0,1-.2-1.3,5.56,5.56,0,0,1,.27-1.74,4.89,4.89,0,0,1,.77-1.47,3.74,3.74,0,0,1,1.17-1,3,3,0,0,1,1.52-.38,2.75,2.75,0,0,1,1,.19,2,2,0,0,1,.82.56,2.56,2.56,0,0,1,.54.93,3.88,3.88,0,0,1,.2,1.29,5.65,5.65,0,0,1-.27,1.74,5,5,0,0,1-.77,1.46,3.77,3.77,0,0,1-1.17,1A3.11,3.11,0,0,1,29.88,435.17Zm.14-.95a2,2,0,0,0,1.4-.58,3.11,3.11,0,0,0,.84-1.69l.21-1.05a4,4,0,0,0,.07-.64,1.81,1.81,0,0,0-.43-1.23,1.62,1.62,0,0,0-1.25-.47,2,2,0,0,0-1.4.58,2.92,2.92,0,0,0-.84,1.69l-.21,1.05a3.1,3.1,0,0,0-.07.63,1.81,1.81,0,0,0,.42,1.24A1.63,1.63,0,0,0,30,434.22Z"/><path d="M37.59,435.17a2.73,2.73,0,0,1-1.1-.21,2.32,2.32,0,0,1-.82-.6,3,3,0,0,1-.52-.94,3.76,3.76,0,0,1-.18-1.21,6.06,6.06,0,0,1,.25-1.77,4.77,4.77,0,0,1,.7-1.47A3.44,3.44,0,0,1,37,428a3,3,0,0,1,1.47-.36,2.48,2.48,0,0,1,1.58.47,2.27,2.27,0,0,1,.82,1.21l-.9.4a1.47,1.47,0,0,0-1.52-1.13,1.88,1.88,0,0,0-1.41.55,2.9,2.9,0,0,0-.74,1.52l-.23,1.18a2.88,2.88,0,0,0,0,.33c0,.12,0,.22,0,.3a1.93,1.93,0,0,0,.41,1.28,1.51,1.51,0,0,0,1.24.5,1.66,1.66,0,0,0,1-.3,3.18,3.18,0,0,0,.88-1.12l.85.42a3.52,3.52,0,0,1-1.16,1.44A2.76,2.76,0,0,1,37.59,435.17Z"/><path d="M43.71,424.64h1.08l-.93,4.56h.07a3.05,3.05,0,0,1,.9-1.2,2.14,2.14,0,0,1,1.31-.39,1.75,1.75,0,0,1,1.4.53,2.16,2.16,0,0,1,.47,1.47,3.34,3.34,0,0,1,0,.43c0,.16,0,.33-.07.51l-.7,3.5h1l-.18.95H47a1,1,0,0,1-.66-.2.74.74,0,0,1-.24-.61v-.13a.75.75,0,0,1,0-.17l.67-3.34a3,3,0,0,0,.06-.42c0-.13,0-.24,0-.32a1.4,1.4,0,0,0-.26-.92,1.06,1.06,0,0,0-.85-.3,1.85,1.85,0,0,0-1.33.57,3.47,3.47,0,0,0-.61.87,3.85,3.85,0,0,0-.34.94l-.81,4H41.62Z"/><path d="M49.53,435,51,427.78h1.08l-.31,1.44h.07a3.83,3.83,0,0,1,.33-.53,2.86,2.86,0,0,1,.46-.46,2.58,2.58,0,0,1,.59-.33,2.39,2.39,0,0,1,.79-.12h.45l-.21,1.1h-.51a2.48,2.48,0,0,0-.89.15,2.08,2.08,0,0,0-.66.4,2.14,2.14,0,0,0-.46.58,2.46,2.46,0,0,0-.24.69l-.87,4.3Z"/><path d="M57.34,435.17a2.76,2.76,0,0,1-1.05-.19,2.31,2.31,0,0,1-.82-.56,2.85,2.85,0,0,1-.53-.92,3.7,3.7,0,0,1-.2-1.3,5.56,5.56,0,0,1,.27-1.74,4.67,4.67,0,0,1,.77-1.47A3.63,3.63,0,0,1,57,428a3,3,0,0,1,1.51-.38,2.8,2.8,0,0,1,1,.19,2.11,2.11,0,0,1,.82.56,2.56,2.56,0,0,1,.54.93,3.88,3.88,0,0,1,.2,1.29,5.37,5.37,0,0,1-.28,1.74,4.71,4.71,0,0,1-.76,1.46,3.8,3.8,0,0,1-1.18,1A3.08,3.08,0,0,1,57.34,435.17Zm.14-.95a2,2,0,0,0,1.4-.58,3.11,3.11,0,0,0,.84-1.69l.21-1.05a3.12,3.12,0,0,0,.07-.64,1.8,1.8,0,0,0-.42-1.23,1.64,1.64,0,0,0-1.26-.47,2,2,0,0,0-1.4.58,3,3,0,0,0-.84,1.69l-.21,1.05a4,4,0,0,0-.07.63,1.81,1.81,0,0,0,.43,1.24A1.61,1.61,0,0,0,57.48,434.22Z"/><path d="M62.26,435l1.45-7.22h1.08l-.29,1.42h.07a3.13,3.13,0,0,1,.89-1.2,2.08,2.08,0,0,1,1.31-.39,1.58,1.58,0,0,1,1.17.42,1.86,1.86,0,0,1,.5,1.17h.09a2.81,2.81,0,0,1,.91-1.2,2.24,2.24,0,0,1,1.34-.39,1.72,1.72,0,0,1,1.37.52,2.15,2.15,0,0,1,.45,1.47,4.4,4.4,0,0,1-.1.93l-.7,3.52h1l-.18.95h-1a1.1,1.1,0,0,1-.68-.2.73.73,0,0,1-.25-.6,3,3,0,0,1,0-.32l.68-3.35a4.38,4.38,0,0,0,.08-.77,1.32,1.32,0,0,0-.26-.88,1.09,1.09,0,0,0-.85-.29,1.68,1.68,0,0,0-1.21.57,2.77,2.77,0,0,0-.58.86,3.94,3.94,0,0,0-.32,1l-.81,4H66.4l.9-4.45a4.63,4.63,0,0,0,.08-.81c0-.77-.34-1.15-1-1.15a1.57,1.57,0,0,0-.68.15,1.76,1.76,0,0,0-.56.41,3.57,3.57,0,0,0-.65.89,3.49,3.49,0,0,0-.33.93l-.82,4Z"/><path d="M79.74,435a.93.93,0,0,1-.7-.24.85.85,0,0,1-.23-.63,1.82,1.82,0,0,1,0-.38l.07-.32h0a3.51,3.51,0,0,1-1,1.32,2.12,2.12,0,0,1-1.34.42,2,2,0,0,1-1.6-.74,3.1,3.1,0,0,1-.6-2,6.46,6.46,0,0,1,.22-1.65,5.47,5.47,0,0,1,.65-1.55,3.56,3.56,0,0,1,1.1-1.15,2.8,2.8,0,0,1,2.19-.37,2.18,2.18,0,0,1,.56.25,1.91,1.91,0,0,1,.43.42,1.88,1.88,0,0,1,.27.59h0l.24-1.17h1.08l-1.26,6.27h1l-.18.95Zm-2.92-.81a1.92,1.92,0,0,0,.84-.19,2.56,2.56,0,0,0,.68-.53,2.83,2.83,0,0,0,.58-.78,3.44,3.44,0,0,0,.33-.95l.3-1.47a1.73,1.73,0,0,0,0-.64,1.13,1.13,0,0,0-.25-.53,1.4,1.4,0,0,0-.53-.37,2,2,0,0,0-.82-.14,2,2,0,0,0-1.45.57,3.12,3.12,0,0,0-.78,1.63l-.21,1a3.76,3.76,0,0,0-.08.71,1.91,1.91,0,0,0,.35,1.19A1.24,1.24,0,0,0,76.82,434.19Z"/><path d="M85.09,435.17A2.73,2.73,0,0,1,84,435a2.32,2.32,0,0,1-.82-.6,2.94,2.94,0,0,1-.51-.94,3.49,3.49,0,0,1-.19-1.21,6.06,6.06,0,0,1,.25-1.77,4.57,4.57,0,0,1,.71-1.47,3.31,3.31,0,0,1,1.11-1,3,3,0,0,1,1.48-.36,2.47,2.47,0,0,1,1.57.47,2.22,2.22,0,0,1,.82,1.21l-.9.4A1.47,1.47,0,0,0,86,428.56a1.88,1.88,0,0,0-1.41.55,2.9,2.9,0,0,0-.73,1.52l-.24,1.18a2.88,2.88,0,0,0,0,.33c0,.12,0,.22,0,.3a1.93,1.93,0,0,0,.41,1.28,1.51,1.51,0,0,0,1.24.5,1.72,1.72,0,0,0,1-.3,3.29,3.29,0,0,0,.87-1.12l.86.42a3.54,3.54,0,0,1-1.17,1.44A2.74,2.74,0,0,1,85.09,435.17Z"/><path d="M94.75,427.78H95.9L91,436.64a2.88,2.88,0,0,1-.68.89,1.33,1.33,0,0,1-.87.27H88.34l.18-.92h1.3l.9-1.66-1.15-7.44h1.05l.53,3.57.3,2.63h.07l1.3-2.63Z"/></g><g class="cls-8"><path d="M99.76,432.23a9.11,9.11,0,0,1,.33-2.48,10.74,10.74,0,0,1,.85-2.18,9.61,9.61,0,0,1,1.23-1.81,10.43,10.43,0,0,1,1.43-1.4h1.06a11.82,11.82,0,0,0-1.26,1.2,11.42,11.42,0,0,0-1.05,1.38,9.33,9.33,0,0,0-.8,1.44,6.78,6.78,0,0,0-.47,1.45l-.24,1.19a7,7,0,0,0-.12,1.32,8.55,8.55,0,0,0,.36,2.48,6.68,6.68,0,0,0,1,2.1h-.94a6.79,6.79,0,0,1-1-2A8.08,8.08,0,0,1,99.76,432.23Z"/><path d="M109.79,435l-.37-2.88h-3.79L104.12,435h-1.21l5.23-9.77h1.49L111,435Zm-1.08-8.69h-.07l-2.49,4.78h3.16Z"/><path d="M113.71,435a1,1,0,0,1-.74-.25.85.85,0,0,1-.24-.63,1.61,1.61,0,0,1,0-.34l1.83-9.14h1.08l-1.89,9.41h1.09l-.18.95Z"/><path d="M117.31,435a1,1,0,0,1-.74-.25.85.85,0,0,1-.24-.63,1.61,1.61,0,0,1,0-.34l1.83-9.14h1.08l-1.89,9.41h1.09l-.18.95Z"/><path d="M125.92,435.17a2.7,2.7,0,0,1-1.1-.21,2.16,2.16,0,0,1-.82-.6,2.78,2.78,0,0,1-.52-.94,3.76,3.76,0,0,1-.18-1.21,6.41,6.41,0,0,1,.24-1.77,4.78,4.78,0,0,1,.71-1.47,3.52,3.52,0,0,1,1.11-1,3,3,0,0,1,1.48-.36,2.49,2.49,0,0,1,1.58.47,2.26,2.26,0,0,1,.81,1.21l-.89.4a1.48,1.48,0,0,0-1.53-1.13,1.88,1.88,0,0,0-1.41.55,3,3,0,0,0-.73,1.52l-.24,1.18a3,3,0,0,0,0,.33c0,.12,0,.22,0,.3a1.92,1.92,0,0,0,.4,1.28,1.53,1.53,0,0,0,1.25.5,1.68,1.68,0,0,0,1-.3,3.29,3.29,0,0,0,.88-1.12l.85.42a3.61,3.61,0,0,1-1.16,1.44A2.78,2.78,0,0,1,125.92,435.17Z"/><path d="M132.64,435.17a2.69,2.69,0,0,1-1-.19,2.22,2.22,0,0,1-.82-.56,2.7,2.7,0,0,1-.54-.92,4,4,0,0,1-.2-1.3,5.56,5.56,0,0,1,.27-1.74,4.89,4.89,0,0,1,.77-1.47,3.74,3.74,0,0,1,1.17-1,3,3,0,0,1,1.52-.38,2.75,2.75,0,0,1,1,.19,2,2,0,0,1,.82.56,2.56,2.56,0,0,1,.54.93,3.88,3.88,0,0,1,.2,1.29,5.65,5.65,0,0,1-.27,1.74,5,5,0,0,1-.77,1.46,3.77,3.77,0,0,1-1.17,1A3.11,3.11,0,0,1,132.64,435.17Zm.14-.95a2,2,0,0,0,1.4-.58A3.11,3.11,0,0,0,135,432l.21-1.05a4,4,0,0,0,.07-.64,1.81,1.81,0,0,0-.43-1.23,1.62,1.62,0,0,0-1.25-.47,2,2,0,0,0-1.4.58,2.92,2.92,0,0,0-.84,1.69l-.21,1.05a3.1,3.1,0,0,0-.07.63,1.81,1.81,0,0,0,.42,1.24A1.64,1.64,0,0,0,132.78,434.22Z"/><path d="M138.74,435a1,1,0,0,1-.74-.25.85.85,0,0,1-.24-.63,1.61,1.61,0,0,1,0-.34l1.84-9.14h1.07l-1.89,9.41h1.1l-.19.95Z"/><path d="M144,435.17A2.76,2.76,0,0,1,143,435a2.22,2.22,0,0,1-.82-.56,2.7,2.7,0,0,1-.54-.92,4,4,0,0,1-.19-1.3,5.56,5.56,0,0,1,.27-1.74,4.87,4.87,0,0,1,.76-1.47,3.77,3.77,0,0,1,1.18-1,3,3,0,0,1,1.51-.38,2.75,2.75,0,0,1,1,.19,2.07,2.07,0,0,1,.83.56,2.56,2.56,0,0,1,.54.93,3.89,3.89,0,0,1,.19,1.29,5.65,5.65,0,0,1-.27,1.74,4.71,4.71,0,0,1-.76,1.46,3.8,3.8,0,0,1-1.18,1A3.08,3.08,0,0,1,144,435.17Zm.14-.95a2,2,0,0,0,1.4-.58,3.11,3.11,0,0,0,.84-1.69l.21-1.05a3.12,3.12,0,0,0,.07-.64,1.76,1.76,0,0,0-.43-1.23,1.61,1.61,0,0,0-1.25-.47,2,2,0,0,0-1.4.58,3,3,0,0,0-.84,1.69l-.21,1.05a3.1,3.1,0,0,0-.07.63,1.77,1.77,0,0,0,.43,1.24A1.61,1.61,0,0,0,144.17,434.22Z"/><path d="M149,435l1.45-7.22h1.08l-.31,1.44h.07a3.93,3.93,0,0,1,.34-.53,2.79,2.79,0,0,1,.45-.46,2.65,2.65,0,0,1,.6-.33,2.28,2.28,0,0,1,.78-.12h.45l-.21,1.1h-.5a2.4,2.4,0,0,0-.89.15,2.13,2.13,0,0,0-.67.4,1.93,1.93,0,0,0-.45.58,2.49,2.49,0,0,0-.25.69L150,435Z"/><path d="M159.43,424.64h1.08l-.95,4.7h0a3.79,3.79,0,0,1,1-1.32,2.23,2.23,0,0,1,1.35-.41,2,2,0,0,1,1.59.73,3.13,3.13,0,0,1,.6,2,6.77,6.77,0,0,1-.21,1.64,5.84,5.84,0,0,1-.65,1.56,3.78,3.78,0,0,1-1.1,1.15,2.75,2.75,0,0,1-1.56.45,2.18,2.18,0,0,1-.63-.09,1.68,1.68,0,0,1-.56-.25,1.6,1.6,0,0,1-.7-1h-.06l-.24,1.18h-1.08Zm1.08,9.55a1.93,1.93,0,0,0,1.45-.58,3,3,0,0,0,.79-1.62l.21-1.05a3.78,3.78,0,0,0,.07-.71,2,2,0,0,0-.33-1.18,1.2,1.2,0,0,0-1.06-.46,1.72,1.72,0,0,0-.83.19,3.62,3.62,0,0,0-.68.52,3.49,3.49,0,0,0-.57.77,3.69,3.69,0,0,0-.34,1l-.29,1.47a1.74,1.74,0,0,0,0,.64,1.05,1.05,0,0,0,.26.54,1.24,1.24,0,0,0,.52.36A2.16,2.16,0,0,0,160.51,434.19Z"/><path d="M166.54,435a1,1,0,0,1-.73-.25.82.82,0,0,1-.25-.63,2.75,2.75,0,0,1,0-.34l1.84-9.14h1.08l-1.89,9.41h1.09l-.18.95Z"/><path d="M170.24,435a1,1,0,0,1-.74-.25.85.85,0,0,1-.24-.63,1.61,1.61,0,0,1,0-.34l1.2-6h1.08l-1.26,6.27h1l-.18.95Zm1.19-8.92a.59.59,0,0,1-.46-.15.47.47,0,0,1-.13-.34.57.57,0,0,1,0-.12,1.6,1.6,0,0,1,.05-.27.62.62,0,0,1,.23-.41.77.77,0,0,1,.52-.15.59.59,0,0,1,.46.15.47.47,0,0,1,.13.34.57.57,0,0,1,0,.12,1.6,1.6,0,0,1,0,.27.62.62,0,0,1-.23.41A.77.77,0,0,1,171.43,426.08Z"/><path d="M172.74,435l1.46-7.22h1.08l-.3,1.42h.07A3.16,3.16,0,0,1,176,428a2.12,2.12,0,0,1,1.31-.39,1.78,1.78,0,0,1,1.4.53,2.21,2.21,0,0,1,.46,1.47c0,.13,0,.28,0,.43s0,.33-.08.51l-.7,3.5h1l-.18.95h-1a1,1,0,0,1-.65-.2.71.71,0,0,1-.25-.61v-.13a.75.75,0,0,1,0-.17l.67-3.34a3,3,0,0,0,.06-.42c0-.13,0-.24,0-.32a1.35,1.35,0,0,0-.26-.92,1,1,0,0,0-.84-.3,1.82,1.82,0,0,0-1.33.57,3.26,3.26,0,0,0-.62.87,3.85,3.85,0,0,0-.34.94l-.81,4Z"/><path d="M186.27,435a.94.94,0,0,1-.71-.24.89.89,0,0,1-.23-.63,1.82,1.82,0,0,1,0-.38l.07-.32h0a3.61,3.61,0,0,1-1,1.32,2.17,2.17,0,0,1-1.35.42,2,2,0,0,1-1.59-.74,3,3,0,0,1-.61-2,6.94,6.94,0,0,1,.22-1.65,5.77,5.77,0,0,1,.65-1.55,3.67,3.67,0,0,1,1.1-1.15,2.7,2.7,0,0,1,1.56-.45,2.59,2.59,0,0,1,.63.08,2,2,0,0,1,.56.25,2.19,2.19,0,0,1,.44.42,1.66,1.66,0,0,1,.26.59h.06l.87-4.31h1.07l-1.89,9.41h1l-.19.95Zm-2.91-.81a1.73,1.73,0,0,0,.83-.2,2.93,2.93,0,0,0,.68-.52,3.27,3.27,0,0,0,.57-.77,3.74,3.74,0,0,0,.34-1l.29-1.47a1.74,1.74,0,0,0,0-.64,1.15,1.15,0,0,0-.26-.53,1.32,1.32,0,0,0-.53-.37,2,2,0,0,0-.81-.14,2,2,0,0,0-1.46.57,3.12,3.12,0,0,0-.78,1.63l-.21,1a3.7,3.7,0,0,0-.07.71,2,2,0,0,0,.33,1.18A1.23,1.23,0,0,0,183.36,434.19Z"/><path d="M188.82,435l1.45-7.22h1.08l-.29,1.42h.07a3.05,3.05,0,0,1,.9-1.2,2.14,2.14,0,0,1,1.31-.39,1.78,1.78,0,0,1,1.4.53,2.16,2.16,0,0,1,.46,1.47c0,.13,0,.28,0,.43a3.35,3.35,0,0,1-.08.51l-.7,3.5h1l-.18.95h-1a1,1,0,0,1-.65-.2.74.74,0,0,1-.25-.61v-.13a.75.75,0,0,1,0-.17l.67-3.34a3,3,0,0,0,.06-.42c0-.13,0-.24,0-.32a1.35,1.35,0,0,0-.26-.92,1,1,0,0,0-.84-.3,1.82,1.82,0,0,0-1.33.57,3.5,3.5,0,0,0-.62.87,3.43,3.43,0,0,0-.33.94l-.82,4Z"/><path d="M199.64,435.17a2.64,2.64,0,0,1-2-.77,3.26,3.26,0,0,1-.71-2.26,5.42,5.42,0,0,1,.27-1.71A4.68,4.68,0,0,1,198,429a3.81,3.81,0,0,1,1.19-1,3.38,3.38,0,0,1,2.43-.25,2.22,2.22,0,0,1,.74.36,1.64,1.64,0,0,1,.51.6,1.79,1.79,0,0,1,.19.86,1.89,1.89,0,0,1-1.22,1.77,9.66,9.66,0,0,1-3.76.6,3.11,3.11,0,0,0,0,.32v.27a1.73,1.73,0,0,0,.44,1.24,1.68,1.68,0,0,0,1.28.47,2.46,2.46,0,0,0,1.24-.32,3.48,3.48,0,0,0,1-.83l.7.62a3.87,3.87,0,0,1-1.44,1.15A3.81,3.81,0,0,1,199.64,435.17Zm.94-6.64a2.05,2.05,0,0,0-.81.16,2.16,2.16,0,0,0-.69.43,2.33,2.33,0,0,0-.51.67,3.18,3.18,0,0,0-.32.88l-.08.41q1.16,0,1.89-.15a4.67,4.67,0,0,0,1.14-.29,1.21,1.21,0,0,0,.56-.46,1.3,1.3,0,0,0,.15-.65.85.85,0,0,0-.12-.48.86.86,0,0,0-.29-.31,1.28,1.28,0,0,0-.43-.16A2.72,2.72,0,0,0,200.58,428.53Z"/><path d="M206.3,435.17a3.64,3.64,0,0,1-1.57-.35,2.9,2.9,0,0,1-1.16-1l.74-.66a2.7,2.7,0,0,0,.87.76,2.29,2.29,0,0,0,1.12.27,2,2,0,0,0,1.18-.34,1.18,1.18,0,0,0,.46-1,.91.91,0,0,0-.22-.62,1.43,1.43,0,0,0-.84-.38l-.55-.11a5.23,5.23,0,0,1-.76-.22,2,2,0,0,1-.62-.35,1.54,1.54,0,0,1-.41-.53,2,2,0,0,1-.14-.77,2.3,2.3,0,0,1,.16-.86,2,2,0,0,1,.5-.73,2.32,2.32,0,0,1,.84-.5,3.65,3.65,0,0,1,2.54.08,2.71,2.71,0,0,1,1,.8l-.74.66a2,2,0,0,0-.64-.56,2.15,2.15,0,0,0-1-.22,1.69,1.69,0,0,0-1.17.35,1.13,1.13,0,0,0-.37.88.87.87,0,0,0,.22.62,1.49,1.49,0,0,0,.83.37l.54.11a4.09,4.09,0,0,1,.79.23,1.83,1.83,0,0,1,.61.36,1.59,1.59,0,0,1,.4.55,2,2,0,0,1,.14.77,2.31,2.31,0,0,1-.21,1,2,2,0,0,1-.56.74,2.65,2.65,0,0,1-.84.47A3.38,3.38,0,0,1,206.3,435.17Z"/><path d="M212.81,435.17a3.64,3.64,0,0,1-1.57-.35,2.9,2.9,0,0,1-1.16-1l.74-.66a2.81,2.81,0,0,0,.87.76,2.29,2.29,0,0,0,1.12.27,2,2,0,0,0,1.18-.34,1.18,1.18,0,0,0,.46-1,.91.91,0,0,0-.22-.62,1.43,1.43,0,0,0-.84-.38l-.55-.11a5.62,5.62,0,0,1-.76-.22,2,2,0,0,1-.62-.35,1.54,1.54,0,0,1-.41-.53,2,2,0,0,1-.14-.77,2.3,2.3,0,0,1,.16-.86,2,2,0,0,1,.5-.73,2.32,2.32,0,0,1,.84-.5,3.65,3.65,0,0,1,2.54.08,2.71,2.71,0,0,1,1,.8l-.74.66a2,2,0,0,0-.64-.56,2.15,2.15,0,0,0-1.05-.22,1.69,1.69,0,0,0-1.17.35,1.13,1.13,0,0,0-.37.88.91.91,0,0,0,.21.62,1.57,1.57,0,0,0,.84.37l.54.11a4.09,4.09,0,0,1,.79.23,1.83,1.83,0,0,1,.61.36,1.59,1.59,0,0,1,.4.55,2,2,0,0,1,.14.77,2.31,2.31,0,0,1-.21,1,2,2,0,0,1-.56.74,2.54,2.54,0,0,1-.84.47A3.38,3.38,0,0,1,212.81,435.17Z"/><path d="M220.32,429.05a9.17,9.17,0,0,1-.33,2.48,10.74,10.74,0,0,1-.85,2.18,10.06,10.06,0,0,1-1.22,1.81,11.08,11.08,0,0,1-1.44,1.4h-1.06a13,13,0,0,0,1.26-1.21,10.59,10.59,0,0,0,1-1.37,10.35,10.35,0,0,0,.8-1.45,6.44,6.44,0,0,0,.47-1.45l.24-1.19a6.94,6.94,0,0,0,.12-1.31,8.5,8.5,0,0,0-.36-2.48,6.68,6.68,0,0,0-1.05-2.1h.94a6.86,6.86,0,0,1,1,2A8.18,8.18,0,0,1,220.32,429.05Z"/></g></g></g></g></g></g></svg>