<?xml version="1.0" encoding="UTF-8"?>
<svg width="288px" height="288px" viewBox="0 0 288 288" version="1.1" xmlns="http://www.w3.org/2000/svg" xmlns:xlink="http://www.w3.org/1999/xlink">
    <!-- Generator: Sketch 51.3 (57544) - http://www.bohemiancoding.com/sketch -->
    <title>Group 12</title>
    <desc>Created with Sketch.</desc>
    <defs></defs>
    <g id="Page-1" stroke="none" stroke-width="1" fill="none" fill-rule="evenodd">
        <g id="Grid_Desktop_1312px-Copy" transform="translate(-672.000000, -7885.000000)">
            <g id="Group-12" transform="translate(672.000000, 7885.000000)">
                <polygon id="Fill-1" fill="#FFFFFF" points="0 288 288 288 288 0 0 0"></polygon>
                <polygon id="Fill-2" fill="#EDF4FF" points="64.024 215.951 84.024 215.951 84.024 72 64.024 72"></polygon>
                <polygon id="Fill-3" fill="#EDF4FF" points="203.976 215.951 223.976 215.951 223.976 72 203.976 72"></polygon>
                <path d="M143.9999,223.9298 L143.9999,64.0218" id="Stroke-4" stroke="#6EA6FF"></path>
                <path d="M104.0121,223.9298 L104.0121,64.0218" id="Stroke-5" stroke="#6EA6FF"></path>
                <path d="M84.0243,215.9513 L84.0243,72.0003" id="Stroke-6" stroke="#6EA6FF"></path>
                <path d="M183.9877,223.9298 L183.9877,64.0218" id="Stroke-7" stroke="#6EA6FF"></path>
                <path d="M203.976,215.9513 L203.976,72.0003" id="Stroke-8" stroke="#6EA6FF"></path>
                <polygon id="Stroke-9" stroke="#6EA6FF" points="64.024 215.951 223.976 215.951 223.976 72 64.024 72"></polygon>
                <path d="M64.0243,223.9298 L64.0243,64.0218" id="Stroke-10" stroke="#6EA6FF"></path>
                <path d="M223.976,223.9298 L223.976,64.0218" id="Stroke-11" stroke="#6EA6FF"></path>
            </g>
        </g>
    </g>
</svg>