<svg xmlns="http://www.w3.org/2000/svg" xmlns:xlink="http://www.w3.org/1999/xlink" viewBox="0 0 32 32"><defs><path d="M16 8a6 6 0 00-6 6v8a6 6 0 1012 0v-8a6 6 0 00-6-6zm0 18a4 4 0 01-4-4h8a4 4 0 01-4 4zm4-6h-8v-4h8v4zm-8-6a4 4 0 118 0h-8zm18.66 3.21L24 11v9.1a4 4 0 108 0 3.83 3.83 0 00-1.34-2.89zM28 22a2 2 0 01-2-1.9v-4.5l3.3 3.07c.437.347.694.872.7 1.43a2 2 0 01-2 1.9zM0 20.1a4 4 0 108 0V11l-6.66 6.21A3.83 3.83 0 000 20.1zm2.66-1.39L6 15.6v4.5a2 2 0 11-4 0 1.85 1.85 0 01.66-1.39zM11.5 2a1.5 1.5 0 110 3 1.5 1.5 0 010-3zm0-2a3.5 3.5 0 100 7 3.5 3.5 0 000-7zm9 2a1.5 1.5 0 110 3 1.5 1.5 0 010-3zm0-2a3.5 3.5 0 100 7 3.5 3.5 0 000-7z" id="a"/></defs><g fill="none" fill-rule="evenodd"><use fill="#000" fill-rule="nonzero" xlink:href="#a"/><path d="M0-2h32v32H0z"/></g></svg>