<svg width="32px" xmlns="http://www.w3.org/2000/svg" viewBox="0 0 32 32"><g fill="#171717" fill-rule="evenodd"><path d="M11.907 20.837a3.969 3.969 0 107.937 0 3.969 3.969 0 00-7.937 0"/><path d="M0 20.837c2.614 6.414 8.737 10.915 15.876 10.915 7.138 0 13.263-4.5 15.876-10.915-2.613-6.414-8.738-10.915-15.876-10.915C8.737 9.922 2.614 14.423 0 20.837m6.945 0a8.93 8.93 0 1117.862.001 8.93 8.93 0 01-17.862 0"/><path d="M15.876 0c6.351 0 11.897 3.59 14.884 8.93v2.977a19.365 19.365 0 00-14.884-6.946A19.364 19.364 0 00.992 11.907V8.93C3.98 3.59 9.525 0 15.876 0"/></g></svg>
