<?xml version="1.0" encoding="UTF-8"?>
<svg width="448px" height="248px" viewBox="0 0 448 248" version="1.1" xmlns="http://www.w3.org/2000/svg" xmlns:xlink="http://www.w3.org/1999/xlink">
    <!-- Generator: Sketch 51.2 (57519) - http://www.bohemiancoding.com/sketch -->
    <title>Hyphen &amp; En Dash - wrong_Desktop</title>
    <desc>Created with Sketch.</desc>
    <defs></defs>
    <g id="Page-1" stroke="none" stroke-width="1" fill="none" fill-rule="evenodd">
        <g id="Type-Basics-Copy" transform="translate(-832.000000, -6261.000000)">
            <g id="Hyphen-&amp;-En-Dash---wrong_Desktop" transform="translate(832.000000, 6261.000000)">
                <rect id="Rectangle-16-Copy-163" fill="#FFFFFF" x="0" y="0" width="448" height="248"></rect>
                <path d="M135.94,69 L133.06,69 L133.06,50.424 L135.94,50.424 L135.94,53.448 L136.084,53.448 C136.984,51.36 138.568,49.992 141.34,49.992 C145.156,49.992 147.568,52.584 147.568,57.084 L147.568,69 L144.688,69 L144.688,57.588 C144.688,54.276 143.248,52.584 140.476,52.584 C138.172,52.584 135.94,53.736 135.94,56.112 L135.94,69 Z M160.528,69.432 C155.56,69.432 152.14,65.616 152.14,59.712 C152.14,53.808 155.56,49.992 160.528,49.992 C165.496,49.992 168.916,53.808 168.916,59.712 C168.916,65.616 165.496,69.432 160.528,69.432 Z M160.528,66.876 C163.624,66.876 165.82,64.968 165.82,61.044 L165.82,58.38 C165.82,54.456 163.624,52.548 160.528,52.548 C157.432,52.548 155.236,54.456 155.236,58.38 L155.236,61.044 C155.236,64.968 157.432,66.876 160.528,66.876 Z M176.548,69 L173.668,69 L173.668,50.424 L176.548,50.424 L176.548,53.448 L176.692,53.448 C177.592,51.36 179.176,49.992 181.948,49.992 C185.764,49.992 188.176,52.584 188.176,57.084 L188.176,69 L185.296,69 L185.296,57.588 C185.296,54.276 183.856,52.584 181.084,52.584 C178.78,52.584 176.548,53.736 176.548,56.112 L176.548,69 Z M215.284,76.2 L215.284,50.424 L218.164,50.424 L218.164,53.448 L218.308,53.448 C219.28,51.108 221.188,49.992 223.744,49.992 C228.388,49.992 231.304,53.772 231.304,59.712 C231.304,65.652 228.388,69.432 223.744,69.432 C221.188,69.432 219.424,68.28 218.308,65.976 L218.164,65.976 L218.164,76.2 L215.284,76.2 Z M222.952,66.84 C226.192,66.84 228.208,64.608 228.208,61.296 L228.208,58.128 C228.208,54.816 226.192,52.584 222.952,52.584 C220.324,52.584 218.164,54.096 218.164,56.148 L218.164,63.06 C218.164,65.472 220.324,66.84 222.952,66.84 Z M239.044,69 L236.164,69 L236.164,50.424 L239.044,50.424 L239.044,53.844 L239.224,53.844 C239.872,52.08 241.564,50.424 244.588,50.424 L245.704,50.424 L245.704,53.304 L244.012,53.304 C240.916,53.304 239.044,54.636 239.044,56.4 L239.044,69 Z M256.216,69.432 C251.248,69.432 247.828,65.616 247.828,59.712 C247.828,53.808 251.248,49.992 256.216,49.992 C261.184,49.992 264.604,53.808 264.604,59.712 C264.604,65.616 261.184,69.432 256.216,69.432 Z M256.216,66.876 C259.312,66.876 261.508,64.968 261.508,61.044 L261.508,58.38 C261.508,54.456 259.312,52.548 256.216,52.548 C253.12,52.548 250.924,54.456 250.924,58.38 L250.924,61.044 C250.924,64.968 253.12,66.876 256.216,66.876 Z M270.148,69 L270.148,52.944 L267.124,52.944 L267.124,50.424 L270.148,50.424 L270.148,46.68 C270.148,44.124 271.48,42.36 274.216,42.36 L277.024,42.36 L277.024,44.88 L273.028,44.88 L273.028,50.424 L283.432,50.424 L283.432,69 L280.552,69 L280.552,52.944 L273.028,52.944 L273.028,69 L270.148,69 Z M281.992,46.068 C280.768,46.068 280.228,45.42 280.228,44.448 L280.228,43.98 C280.228,43.008 280.768,42.36 281.992,42.36 C283.216,42.36 283.756,43.008 283.756,43.98 L283.756,44.448 C283.756,45.42 283.216,46.068 281.992,46.068 Z M297.256,69 L293.656,69 C291.676,69 290.596,67.74 290.596,65.94 L290.596,52.944 L287.536,52.944 L287.536,50.424 L289.264,50.424 C290.488,50.424 290.884,49.992 290.884,48.732 L290.884,45.276 L293.476,45.276 L293.476,50.424 L297.544,50.424 L297.544,52.944 L293.476,52.944 L293.476,66.48 L297.256,66.48 L297.256,69 Z M149.188,100.088 C149.188,107.54 144.256,113.372 140.224,116 L136.336,116 C141.7,112.076 144.688,108.8 146.056,102.968 L145.876,102.896 C144.688,104.948 142.888,106.496 139.828,106.496 C135.508,106.496 132.412,103.508 132.412,98.756 C132.412,93.824 135.724,90.44 140.764,90.44 C145.984,90.44 149.188,94.112 149.188,100.088 Z M140.8,103.94 C144.112,103.94 146.056,102.032 146.056,98.648 L146.056,98.36 C146.056,94.976 144.112,93.068 140.8,93.068 C137.488,93.068 135.544,94.976 135.544,98.36 L135.544,98.648 C135.544,102.032 137.488,103.94 140.8,103.94 Z M156.856,101.636 C155.344,101.636 154.66,100.772 154.66,99.548 L154.66,99.08 C154.66,97.856 155.344,96.992 156.856,96.992 C158.368,96.992 159.052,97.856 159.052,99.08 L159.052,99.548 C159.052,100.772 158.368,101.636 156.856,101.636 Z M156.856,116.432 C155.344,116.432 154.66,115.568 154.66,114.344 L154.66,113.876 C154.66,112.652 155.344,111.788 156.856,111.788 C158.368,111.788 159.052,112.652 159.052,113.876 L159.052,114.344 C159.052,115.568 158.368,116.432 156.856,116.432 Z M172.912,116.432 C166.9,116.432 164.272,111.644 164.272,103.436 C164.272,95.228 166.9,90.44 172.912,90.44 C178.924,90.44 181.552,95.228 181.552,103.436 C181.552,111.644 178.924,116.432 172.912,116.432 Z M172.912,113.804 C176.836,113.804 178.384,110.348 178.384,105.488 L178.384,101.384 C178.384,96.524 176.836,93.068 172.912,93.068 C168.988,93.068 167.44,96.524 167.44,101.384 L167.44,105.488 C167.44,110.348 168.988,113.804 172.912,113.804 Z M194.512,116.432 C188.5,116.432 185.872,111.644 185.872,103.436 C185.872,95.228 188.5,90.44 194.512,90.44 C200.524,90.44 203.152,95.228 203.152,103.436 C203.152,111.644 200.524,116.432 194.512,116.432 Z M194.512,113.804 C198.436,113.804 199.984,110.348 199.984,105.488 L199.984,101.384 C199.984,96.524 198.436,93.068 194.512,93.068 C190.588,93.068 189.04,96.524 189.04,101.384 L189.04,105.488 C189.04,110.348 190.588,113.804 194.512,113.804 Z M237.604,90.872 L237.604,93.536 L226.588,93.536 L225.868,103.112 L226.12,103.112 C227.308,101.42 228.64,100.34 231.268,100.34 C235.588,100.34 238.756,103.256 238.756,108.116 C238.756,113.012 235.588,116.432 230.296,116.432 C226.12,116.432 223.96,114.308 222.448,112.148 L224.716,110.42 C226.012,112.4 227.272,113.732 230.296,113.732 C233.716,113.732 235.552,111.824 235.552,108.512 L235.552,108.152 C235.552,104.84 233.716,102.932 230.296,102.932 C227.992,102.932 226.84,103.904 225.796,105.056 L223.24,104.696 L224.14,90.872 L237.604,90.872 Z M246.532,101.636 C245.02,101.636 244.336,100.772 244.336,99.548 L244.336,99.08 C244.336,97.856 245.02,96.992 246.532,96.992 C248.044,96.992 248.728,97.856 248.728,99.08 L248.728,99.548 C248.728,100.772 248.044,101.636 246.532,101.636 Z M246.532,116.432 C245.02,116.432 244.336,115.568 244.336,114.344 L244.336,113.876 C244.336,112.652 245.02,111.788 246.532,111.788 C248.044,111.788 248.728,112.652 248.728,113.876 L248.728,114.344 C248.728,115.568 248.044,116.432 246.532,116.432 Z M262.588,116.432 C256.576,116.432 253.948,111.644 253.948,103.436 C253.948,95.228 256.576,90.44 262.588,90.44 C268.6,90.44 271.228,95.228 271.228,103.436 C271.228,111.644 268.6,116.432 262.588,116.432 Z M262.588,113.804 C266.512,113.804 268.06,110.348 268.06,105.488 L268.06,101.384 C268.06,96.524 266.512,93.068 262.588,93.068 C258.664,93.068 257.116,96.524 257.116,101.384 L257.116,105.488 C257.116,110.348 258.664,113.804 262.588,113.804 Z M284.188,116.432 C278.176,116.432 275.548,111.644 275.548,103.436 C275.548,95.228 278.176,90.44 284.188,90.44 C290.2,90.44 292.828,95.228 292.828,103.436 C292.828,111.644 290.2,116.432 284.188,116.432 Z M284.188,113.804 C288.112,113.804 289.66,110.348 289.66,105.488 L289.66,101.384 C289.66,96.524 288.112,93.068 284.188,93.068 C280.264,93.068 278.716,96.524 278.716,101.384 L278.716,105.488 C278.716,110.348 280.264,113.804 284.188,113.804 Z M133.348,163 L133.348,137.872 L137.38,137.872 L144.58,151.408 L144.76,151.408 L151.996,137.872 L155.884,137.872 L155.884,163 L152.932,163 L152.932,141.832 L152.752,141.832 L150.628,146.044 L144.616,156.988 L138.604,146.044 L136.48,141.832 L136.3,141.832 L136.3,163 L133.348,163 Z M177.412,163 L175.792,163 C173.668,163 172.804,161.704 172.588,159.976 L172.408,159.976 C171.616,162.244 169.636,163.432 167.044,163.432 C163.12,163.432 160.816,161.272 160.816,157.816 C160.816,154.324 163.336,152.38 168.736,152.38 L172.408,152.38 L172.408,150.544 C172.408,147.916 170.968,146.476 168.016,146.476 C165.784,146.476 164.308,147.556 163.3,149.248 L161.572,147.628 C162.58,145.648 164.812,143.992 168.16,143.992 C172.624,143.992 175.288,146.332 175.288,150.256 L175.288,160.48 L177.412,160.48 L177.412,163 Z M167.512,160.984 C170.356,160.984 172.408,159.508 172.408,157.6 L172.408,154.54 L168.592,154.54 C165.316,154.54 163.84,155.548 163.84,157.348 L163.84,158.104 C163.84,159.94 165.28,160.984 167.512,160.984 Z M188.284,157.06 L192.784,144.424 L195.628,144.424 L187.312,167.32 C186.484,169.552 185.728,170.2 182.992,170.2 L181.516,170.2 L181.516,167.68 L184.432,167.68 L185.836,163.72 L178.888,144.424 L181.768,144.424 L186.232,157.06 L187.096,160.084 L187.276,160.084 L188.284,157.06 Z M223.924,160.336 L223.924,163 L207.436,163 L207.436,159.904 L215.644,152.344 C217.984,150.184 219.784,147.664 219.784,145.252 L219.784,144.82 C219.784,142.048 218.236,140.14 215.14,140.14 C212.044,140.14 210.604,142.012 209.92,144.388 L207.22,143.344 C208.192,140.392 210.424,137.44 215.284,137.44 C220.18,137.44 222.988,140.464 222.988,144.748 C222.988,148.636 220.684,151.372 217.48,154.252 L210.712,160.336 L223.924,160.336 Z M232.996,148.528 L235.732,148.528 C239.116,148.528 240.844,146.764 240.844,144.352 L240.844,144.1 C240.844,141.472 239.008,140.14 236.344,140.14 C233.752,140.14 232.204,141.364 231.16,143.272 L228.928,141.544 C230.188,139.528 232.384,137.44 236.416,137.44 C240.664,137.44 244.048,139.708 244.048,143.776 C244.048,147.016 241.888,148.96 239.224,149.644 L239.224,149.788 C241.924,150.328 244.516,152.344 244.516,156.124 C244.516,160.444 241.096,163.432 235.984,163.432 C231.628,163.432 229.396,161.308 227.848,159.148 L230.116,157.42 C231.412,159.4 232.888,160.732 235.948,160.732 C239.476,160.732 241.348,159.04 241.348,156.088 L241.348,155.8 C241.348,152.848 239.476,151.156 235.948,151.156 L232.996,151.156 L232.996,148.528 Z M281.488,160.336 L281.488,163 L265,163 L265,159.904 L273.208,152.344 C275.548,150.184 277.348,147.664 277.348,145.252 L277.348,144.82 C277.348,142.048 275.8,140.14 272.704,140.14 C269.608,140.14 268.168,142.012 267.484,144.388 L264.784,143.344 C265.756,140.392 267.988,137.44 272.848,137.44 C277.744,137.44 280.552,140.464 280.552,144.748 C280.552,148.636 278.248,151.372 275.044,154.252 L268.276,160.336 L281.488,160.336 Z M294.7,163.432 C288.976,163.432 285.988,160.3 285.988,156.16 C285.988,152.74 288.04,150.76 291.064,149.932 L291.064,149.644 C288.436,148.744 286.744,146.62 286.744,143.74 C286.744,139.924 289.696,137.44 294.7,137.44 C299.704,137.44 302.656,139.924 302.656,143.74 C302.656,146.62 300.964,148.744 298.336,149.644 L298.336,149.932 C301.36,150.76 303.412,152.74 303.412,156.16 C303.412,160.3 300.424,163.432 294.7,163.432 Z M294.7,160.804 C298.192,160.804 300.208,159.148 300.208,156.304 L300.208,155.548 C300.208,152.704 298.192,151.048 294.7,151.048 C291.208,151.048 289.192,152.704 289.192,155.548 L289.192,156.304 C289.192,159.148 291.208,160.804 294.7,160.804 Z M294.7,148.528 C297.832,148.528 299.524,147.124 299.524,144.568 L299.524,144.028 C299.524,141.472 297.832,140.068 294.7,140.068 C291.568,140.068 289.876,141.472 289.876,144.028 L289.876,144.568 C289.876,147.124 291.568,148.528 294.7,148.528 Z M149.692,210 L133.168,210 L133.168,207.336 L140.188,207.336 L140.188,187.104 L139.936,187.104 L133.6,193.008 L131.836,191.1 L138.496,184.872 L143.212,184.872 L143.212,207.336 L149.692,207.336 L149.692,210 Z M170.788,194.088 C170.788,201.54 165.856,207.372 161.824,210 L157.936,210 C163.3,206.076 166.288,202.8 167.656,196.968 L167.476,196.896 C166.288,198.948 164.488,200.496 161.428,200.496 C157.108,200.496 154.012,197.508 154.012,192.756 C154.012,187.824 157.324,184.44 162.364,184.44 C167.584,184.44 170.788,188.112 170.788,194.088 Z M162.4,197.94 C165.712,197.94 167.656,196.032 167.656,192.648 L167.656,192.36 C167.656,188.976 165.712,187.068 162.4,187.068 C159.088,187.068 157.144,188.976 157.144,192.36 L157.144,192.648 C157.144,196.032 159.088,197.94 162.4,197.94 Z M184,210.432 C178.276,210.432 175.288,207.3 175.288,203.16 C175.288,199.74 177.34,197.76 180.364,196.932 L180.364,196.644 C177.736,195.744 176.044,193.62 176.044,190.74 C176.044,186.924 178.996,184.44 184,184.44 C189.004,184.44 191.956,186.924 191.956,190.74 C191.956,193.62 190.264,195.744 187.636,196.644 L187.636,196.932 C190.66,197.76 192.712,199.74 192.712,203.16 C192.712,207.3 189.724,210.432 184,210.432 Z M184,207.804 C187.492,207.804 189.508,206.148 189.508,203.304 L189.508,202.548 C189.508,199.704 187.492,198.048 184,198.048 C180.508,198.048 178.492,199.704 178.492,202.548 L178.492,203.304 C178.492,206.148 180.508,207.804 184,207.804 Z M184,195.528 C187.132,195.528 188.824,194.124 188.824,191.568 L188.824,191.028 C188.824,188.472 187.132,187.068 184,187.068 C180.868,187.068 179.176,188.472 179.176,191.028 L179.176,191.568 C179.176,194.124 180.868,195.528 184,195.528 Z M205.6,210.432 C199.588,210.432 196.96,205.644 196.96,197.436 C196.96,189.228 199.588,184.44 205.6,184.44 C211.612,184.44 214.24,189.228 214.24,197.436 C214.24,205.644 211.612,210.432 205.6,210.432 Z M205.6,207.804 C209.524,207.804 211.072,204.348 211.072,199.488 L211.072,195.384 C211.072,190.524 209.524,187.068 205.6,187.068 C201.676,187.068 200.128,190.524 200.128,195.384 L200.128,199.488 C200.128,204.348 201.676,207.804 205.6,207.804 Z M249.952,207.336 L249.952,210 L233.464,210 L233.464,206.904 L241.672,199.344 C244.012,197.184 245.812,194.664 245.812,192.252 L245.812,191.82 C245.812,189.048 244.264,187.14 241.168,187.14 C238.072,187.14 236.632,189.012 235.948,191.388 L233.248,190.344 C234.22,187.392 236.452,184.44 241.312,184.44 C246.208,184.44 249.016,187.464 249.016,191.748 C249.016,195.636 246.712,198.372 243.508,201.252 L236.74,207.336 L249.952,207.336 Z M263.164,210.432 C257.152,210.432 254.524,205.644 254.524,197.436 C254.524,189.228 257.152,184.44 263.164,184.44 C269.176,184.44 271.804,189.228 271.804,197.436 C271.804,205.644 269.176,210.432 263.164,210.432 Z M263.164,207.804 C267.088,207.804 268.636,204.348 268.636,199.488 L268.636,195.384 C268.636,190.524 267.088,187.068 263.164,187.068 C259.24,187.068 257.692,190.524 257.692,195.384 L257.692,199.488 C257.692,204.348 259.24,207.804 263.164,207.804 Z M293.656,210 L277.132,210 L277.132,207.336 L284.152,207.336 L284.152,187.104 L283.9,187.104 L277.564,193.008 L275.8,191.1 L282.46,184.872 L287.176,184.872 L287.176,207.336 L293.656,207.336 L293.656,210 Z M306.4,210.432 C301.18,210.432 297.976,206.76 297.976,200.784 C297.976,193.332 302.908,187.5 306.94,184.872 L310.828,184.872 C305.464,188.796 302.476,192.072 301.108,197.904 L301.288,197.976 C302.476,195.924 304.276,194.376 307.336,194.376 C311.656,194.376 314.752,197.364 314.752,202.116 C314.752,207.048 311.44,210.432 306.4,210.432 Z M306.364,207.804 C309.676,207.804 311.62,205.896 311.62,202.512 L311.62,202.224 C311.62,198.84 309.676,196.932 306.364,196.932 C303.052,196.932 301.108,198.84 301.108,202.224 L301.108,202.512 C301.108,205.896 303.052,207.804 306.364,207.804 Z" id="non–proﬁt-9:00-5:00" fill="#3D3D3D"></path>
                <polygon id="Path" fill="#D12765" points="210.928 59.424 192.352 59.424 192.352 56.688 210.928 56.688"></polygon>
                <polygon id="Path" fill="#D12765" points="217.192 106.604 207.796 106.604 207.796 103.508 217.192 103.508"></polygon>
                <polygon id="Path" fill="#D12765" points="259.816 153.604 250.42 153.604 250.42 150.508 259.816 150.508"></polygon>
                <polygon id="Path" fill="#D12765" points="228.28 200.604 218.884 200.604 218.884 197.508 228.28 197.508"></polygon>
                <rect id="Rectangle-path" x="16" y="16" width="24" height="24"></rect>
                <g id="Icon" transform="translate(22.750000, 22.750000)" fill="#FFFFFF" fill-rule="nonzero">
                    <polygon id="Shape" points="6.3075 5.25 10.5 1.0575 9.4425 0 5.25 4.1925 1.0575 0 0 1.0575 4.1925 5.25 0 9.4425 1.0575 10.5 5.25 6.3075 9.4425 10.5 10.5 9.4425"></polygon>
                </g>
            </g>
        </g>
    </g>
</svg>