<?xml version="1.0" encoding="utf-8"?>
<!-- Generator: Adobe Illustrator 22.1.0, SVG Export Plug-In . SVG Version: 6.00 Build 0)  -->
<svg version="1.1" id="Layer_1" xmlns="http://www.w3.org/2000/svg" xmlns:xlink="http://www.w3.org/1999/xlink" x="0px" y="0px"
	 viewBox="0 0 928 176" style="enable-background:new 0 0 928 176;" xml:space="preserve">
<style type="text/css">
	.st0{fill:#FFFFFF;}
	.st1{fill:#3D3D3D;}
</style>
<title>Group 40</title>
<desc>Created with Sketch.</desc>
<rect id="Rectangle-16-Copy-156" class="st0" width="928" height="176"/>
<g>
	<path class="st1" d="M60.3,115v-5h7.1V69.8h-7.1v-5h20.2v5h-7.1V110h7.1v5H60.3z"/>
	<path class="st1" d="M99.3,65.2v1c0,3.9-2.4,9.2-6.6,12.7H88c2.9-3,4.6-5.5,5.4-8.9c-1.9-0.4-2.8-1.9-2.8-3.8v-1
		c0-2.5,1.4-4.2,4.4-4.2S99.3,62.7,99.3,65.2z"/>
	<path class="st1" d="M107.7,115V77.8h5.8v6h0.3c1.7-3.8,4.2-6.9,10-6.9c4.9,0,9.4,2.2,11.4,7.6h0.1c1.4-4,5-7.6,11.3-7.6
		c7.6,0,12.1,5.2,12.1,14.2V115h-5.8V92.2c0-6.6-2.5-10-8.1-10c-4.5,0-8.7,2.3-8.7,7.1V115h-5.8V92.2c0-6.6-2.5-10-8-10
		c-4.5,0-8.9,2.3-8.9,7.1V115H107.7z"/>
	<path class="st1" d="M184.8,96.4c0-11.8,6.6-19.4,16.7-19.4c9.9,0,16.1,7.6,16.1,18.1v2.7h-26.7v1.7c0,6.4,4.1,11.2,11,11.2
		c4.7,0,8.3-2.3,10.2-6.4l4.1,3c-2.4,5-7.7,8.5-14.7,8.5C191.4,115.9,184.8,108.2,184.8,96.4z M190.9,93v0.5h20.5v-0.8
		c0-6.6-4-10.9-9.9-10.9C195.2,81.8,190.9,86.6,190.9,93z"/>
	<path class="st1" d="M254.1,115c-4.2,0-6-2.6-6.4-6h-0.4c-1.6,4.5-5.5,6.9-10.7,6.9c-7.8,0-12.5-4.3-12.5-11.2
		c0-7,5-10.9,15.8-10.9h7.3v-3.7c0-5.3-2.9-8.1-8.8-8.1c-4.5,0-7.4,2.2-9.4,5.5l-3.5-3.2c2-4,6.5-7.3,13.2-7.3
		c8.9,0,14.3,4.7,14.3,12.5V110h4.2v5H254.1z M247.3,104.2v-6.1h-7.6c-6.6,0-9.5,2-9.5,5.6v1.5c0,3.7,2.9,5.8,7.3,5.8
		C243.2,111,247.3,108,247.3,104.2z"/>
	<path class="st1" d="M262,108.6l4.1-3.3c2.9,3.6,6.3,5.7,11,5.7c4.9,0,7.8-2.2,7.8-6c0-2.9-1.6-5.1-6.5-5.8l-3-0.4
		c-6.8-1-12-3.8-12-10.7c0-7.3,5.7-10.9,13.2-10.9c6,0,9.9,2.2,13,6l-3.8,3.5c-1.7-2.3-4.8-4.5-9.6-4.5s-7.3,2.2-7.3,5.8
		c0,3.6,2.5,5,7.1,5.8l2.9,0.4c8.2,1.2,11.4,4.8,11.4,10.4c0,7.2-5.3,11.6-13.8,11.6C269.8,115.9,265.3,113,262,108.6z"/>
	<path class="st1" d="M299.9,65.9V65c0-1.9,1.1-3.2,3.5-3.2S307,63,307,65v0.9c0,1.9-1.1,3.2-3.5,3.2S299.9,67.8,299.9,65.9z
		 M300.6,77.8h5.8V115h-5.8V77.8z"/>
	<path class="st1" d="M315.8,96.4c0-11.8,6.6-19.4,16.7-19.4c9.9,0,16.1,7.6,16.1,18.1v2.7h-26.7v1.7c0,6.4,4.1,11.2,11,11.2
		c4.7,0,8.3-2.3,10.2-6.4l4.1,3c-2.4,5-7.7,8.5-14.7,8.5C322.5,115.9,315.8,108.2,315.8,96.4z M321.9,93v0.5h20.5v-0.8
		c0-6.6-4-10.9-9.9-10.9C326.3,81.8,321.9,86.6,321.9,93z"/>
	<path class="st1" d="M358.1,115V77.8h5.8v6.8h0.4c1.3-3.5,4.7-6.8,10.7-6.8h2.2v5.8h-3.4c-6.2,0-9.9,2.7-9.9,6.2V115H358.1z"/>
	<path class="st1" d="M409.7,115c-4,0-6.1-2.5-6.1-6.1v-26h-6.1v-5h3.5c2.4,0,3.2-0.9,3.2-3.4v-6.9h5.2v10.3h8.1v5h-8.1V110h7.6v5
		H409.7z"/>
	<path class="st1" d="M423.8,96.4c0-11.8,6.8-19.4,16.8-19.4c9.9,0,16.8,7.6,16.8,19.4s-6.8,19.4-16.8,19.4
		C430.6,115.9,423.8,108.2,423.8,96.4z M451.1,99.1v-5.3c0-7.8-4.4-11.7-10.6-11.7c-6.2,0-10.6,3.8-10.6,11.7v5.3
		c0,7.8,4.4,11.7,10.6,11.7C446.7,110.8,451.1,106.9,451.1,99.1z"/>
	<path class="st1" d="M483.8,115V77.8h5.8v6.8h0.4c1.3-3.5,4.7-6.8,10.7-6.8h2.2v5.8h-3.4c-6.2,0-9.9,2.7-9.9,6.2V115H483.8z"/>
	<path class="st1" d="M507.1,96.4c0-11.8,6.6-19.4,16.7-19.4c9.9,0,16.1,7.6,16.1,18.1v2.7h-26.7v1.7c0,6.4,4.1,11.2,11,11.2
		c4.7,0,8.3-2.3,10.2-6.4l4.1,3c-2.4,5-7.7,8.5-14.7,8.5C513.8,115.9,507.1,108.2,507.1,96.4z M513.2,93v0.5h20.5v-0.8
		c0-6.6-4-10.9-9.9-10.9C517.6,81.8,513.2,86.6,513.2,93z"/>
	<path class="st1" d="M576.4,115c-4.2,0-6-2.6-6.4-6h-0.4c-1.6,4.5-5.5,6.9-10.7,6.9c-7.8,0-12.5-4.3-12.5-11.2
		c0-7,5-10.9,15.8-10.9h7.3v-3.7c0-5.3-2.9-8.1-8.8-8.1c-4.5,0-7.4,2.2-9.4,5.5l-3.5-3.2c2-4,6.5-7.3,13.2-7.3
		c8.9,0,14.3,4.7,14.3,12.5V110h4.2v5H576.4z M569.6,104.2v-6.1H562c-6.6,0-9.5,2-9.5,5.6v1.5c0,3.7,2.9,5.8,7.3,5.8
		C565.5,111,569.6,108,569.6,104.2z"/>
	<path class="st1" d="M611.6,109h-0.3c-2.2,4.6-5.8,6.9-10.9,6.9c-9.3,0-15.1-7.6-15.1-19.4S591.2,77,600.5,77
		c5.1,0,8.9,2.2,10.9,6.9h0.3V61.7h5.8V115h-5.8V109z M611.6,103.1V89.3c0-4.1-4.3-7.1-9.6-7.1c-6.5,0-10.5,4.5-10.5,11.1v6.3
		c0,6.6,4,11.1,10.5,11.1C607.3,110.7,611.6,107.9,611.6,103.1z"/>
	<path class="st1" d="M628.9,111.7v-0.9c0-2.4,1.4-4.2,4.4-4.2s4.4,1.7,4.4,4.2v0.9c0,2.4-1.4,4.2-4.4,4.2S628.9,114.1,628.9,111.7z
		"/>
</g>
</svg>
