<svg xmlns="http://www.w3.org/2000/svg" viewBox="0 0 288 288"><g fill="none" fill-rule="evenodd"><path fill="#FFF" d="M0 0h288v288H0z"/><path d="M54.8 103.056H42.368V138h-4.704v-34.944H25.232v-4.144H54.8v4.144zm8.232-.728c-1.904 0-2.744-1.008-2.744-2.52v-.728c0-1.512.84-2.52 2.744-2.52 1.904 0 2.744 1.008 2.744 2.52v.728c0 1.512-.84 2.52-2.744 2.52zM60.792 138v-28.896h4.48V138h-4.48zm25.984 0h-5.6c-3.08 0-4.76-1.96-4.76-4.76v-20.216h-4.76v-3.92h2.688c1.904 0 2.52-.672 2.52-2.632v-5.376h4.032v8.008h6.328v3.92h-6.328v21.056h5.88V138zm16.408 0h-3.976c-3.08 0-4.76-1.96-4.76-4.648V96.56h4.48v37.52h4.256V138zm17.36.672c-7.84 0-12.992-5.936-12.992-15.12s5.152-15.12 12.992-15.12c7.728 0 12.488 5.936 12.488 14.112v2.128h-20.776v1.344c0 4.984 3.192 8.736 8.568 8.736 3.64 0 6.44-1.792 7.952-4.984l3.192 2.296c-1.848 3.92-5.992 6.608-11.424 6.608zm0-26.488c-4.872 0-8.288 3.696-8.288 8.736v.392h15.96v-.616c0-5.096-3.08-8.512-7.672-8.512zM154.088 138V98.912h16.072c6.44 0 10.416 3.976 10.416 10.08 0 5.824-3.752 7.896-6.328 8.288v.336c2.8.168 7.672 2.576 7.672 9.072 0 6.44-4.312 11.312-10.08 11.312h-17.752zm4.704-18.144v14h11.592c4.032 0 6.496-2.128 6.496-6.048v-1.904c0-3.92-2.464-6.048-6.496-6.048h-11.592zm0-16.8v12.768H169.6c3.696 0 5.936-1.96 5.936-5.432v-1.904c0-3.472-2.24-5.432-5.936-5.432h-10.808zm33.656-.728c-1.904 0-2.744-1.008-2.744-2.52v-.728c0-1.512.84-2.52 2.744-2.52 1.904 0 2.744 1.008 2.744 2.52v.728c0 1.512-.84 2.52-2.744 2.52zM190.208 138v-28.896h4.48V138h-4.48zm38.36 3.192c0 5.936-4.704 8.68-14 8.68-9.016 0-12.712-2.576-12.712-7.112 0-3.136 1.736-4.816 4.592-5.6v-.616c-1.624-.784-2.576-2.072-2.576-4.032 0-2.912 2.072-4.312 4.984-5.04v-.224c-3.416-1.624-5.432-4.816-5.432-8.848 0-5.88 4.312-9.968 10.864-9.968 2.072 0 3.92.392 5.488 1.12v-.504c0-2.24.952-3.864 3.36-3.864h4.312v3.92h-5.488v1.848c2.072 1.792 3.304 4.368 3.304 7.448 0 5.88-4.312 9.968-10.92 9.968-.952 0-1.96-.112-2.8-.28-1.904.504-3.808 1.456-3.808 3.248 0 1.736 1.792 2.184 4.424 2.184h6.16c7.168 0 10.248 2.912 10.248 7.672zm-4.2.336c0-2.296-1.512-3.808-5.992-3.808h-9.632c-1.848.84-2.688 2.128-2.688 3.92 0 2.52 1.736 4.592 6.272 4.592h4.144c4.984 0 7.896-1.568 7.896-4.704zm-10.024-16.744c3.808 0 6.216-1.792 6.216-5.6v-1.568c0-3.808-2.408-5.6-6.216-5.6-3.808 0-6.216 1.792-6.216 5.6v1.568c0 3.808 2.408 5.6 6.216 5.6zm-179.94 61.648c-4.032 0-6.876-1.656-8.892-4.392l2.232-1.872c1.764 2.34 3.852 3.6 6.768 3.6 3.6 0 5.544-1.872 5.544-4.752 0-2.376-1.332-3.564-4.644-4.32l-2.052-.468c-4.572-1.044-7.092-3.06-7.092-6.912 0-4.464 3.384-6.876 8.316-6.876 3.78 0 6.444 1.44 8.316 4.104l-2.268 1.656c-1.368-1.908-3.276-3.096-6.192-3.096-3.204 0-5.184 1.404-5.184 4.104 0 2.376 1.548 3.456 4.716 4.176l2.052.468c4.896 1.116 7.02 3.276 7.02 7.02 0 4.608-3.24 7.56-8.64 7.56zm25.02-.432v-3.024h-.144c-.72 1.764-2.124 3.456-5.22 3.456-3.816 0-6.264-2.592-6.264-7.092v-11.916h2.88v11.412c0 3.312 1.476 5.004 4.248 5.004 2.268 0 4.5-1.116 4.5-3.564v-12.852h2.88V186h-2.88zm9 0v-26.64h2.88v11.088h.144c.972-2.34 2.88-3.456 5.436-3.456 4.644 0 7.56 3.78 7.56 9.72 0 5.94-2.916 9.72-7.56 9.72-2.556 0-4.32-1.152-5.436-3.456h-.144V186h-2.88zm7.668-2.16c3.24 0 5.256-2.232 5.256-5.544v-3.168c0-3.312-2.016-5.544-5.256-5.544-2.628 0-4.788 1.512-4.788 3.564v6.912c0 2.412 2.16 3.78 4.788 3.78zM97.008 186h-3.6c-1.98 0-3.06-1.26-3.06-3.06v-12.996h-3.06v-2.52h1.728c1.224 0 1.62-.432 1.62-1.692v-3.456h2.592v5.148h4.068v2.52h-4.068v13.536h3.78V186zm6.372-22.932c-1.224 0-1.764-.648-1.764-1.62v-.468c0-.972.54-1.62 1.764-1.62s1.764.648 1.764 1.62v.468c0 .972-.54 1.62-1.764 1.62zM101.94 186v-18.576h2.88V186h-2.88zm16.704 0h-3.6c-1.98 0-3.06-1.26-3.06-3.06v-12.996h-3.06v-2.52h1.728c1.224 0 1.62-.432 1.62-1.692v-3.456h2.592v5.148h4.068v2.52h-4.068v13.536h3.78V186zm10.548 0h-2.556c-1.98 0-3.06-1.26-3.06-2.988V159.36h2.88v24.12h2.736V186zm11.16.432c-5.04 0-8.352-3.816-8.352-9.72 0-5.904 3.312-9.72 8.352-9.72 4.968 0 8.028 3.816 8.028 9.072v1.368h-13.356v.864c0 3.204 2.052 5.616 5.508 5.616 2.34 0 4.14-1.152 5.112-3.204l2.052 1.476c-1.188 2.52-3.852 4.248-7.344 4.248zm0-17.028c-3.132 0-5.328 2.376-5.328 5.616v.252h10.26v-.396c0-3.276-1.98-5.472-4.932-5.472z" fill="#3D3D3D"/></g></svg>