<svg version="1.1" id="Layer_1" xmlns="http://www.w3.org/2000/svg" x="0" y="0" viewBox="0 0 288 288" xml:space="preserve"><style>.st1{fill:#e9f0ff}.st2{fill:none;stroke:#6ea2ff;stroke-miterlimit:10}.st3{fill:#6ea2ff}</style><path fill="#fff" d="M-.1.4h288v288H-.1z"/><path transform="rotate(90 143.9 221.439)" class="st1" d="M138.1 93.4h11.5v256h-11.5z"/><path class="st2" d="M143.9 215.7V73.1"/><path class="st1" d="M260.4 61.6h11.5v165.6h-11.5z"/><path class="st3" d="M260.4 138.6h5.8v5.8h-5.8zm5.7 5.8h5.8v5.8h-5.8z"/><path class="st1" d="M15.9 61.6h11.5v165.6H15.9z"/><path class="st3" d="M15.9 138.6h5.8v5.8h-5.8zm5.8 5.8h5.8v5.8h-5.8z"/><path transform="rotate(90 143.9 67.31)" class="st1" d="M138.1-60.7h11.5v256h-11.5z"/><path transform="rotate(90 141.02 64.431)" class="st3" d="M138.1 61.6h5.8v5.8h-5.8z"/><path transform="rotate(90 146.78 70.19)" class="st3" d="M143.9 67.3h5.8v5.8h-5.8z"/><path transform="rotate(90 141.02 218.559)" class="st3" d="M138.1 215.7h5.8v5.8h-5.8z"/><path transform="rotate(90 146.78 224.319)" class="st3" d="M143.9 221.4h5.8v5.8h-5.8z"/><path class="st2" d="M15.9 73.1h256m-256 142.6h256M260.4 61.6v165.6M27.4 61.6v165.6M15.9 61.6h256v165.6h-256zm69.8 165.6V61.6M56.5 227.2V61.6m58.3 165.6V61.6m87.3 165.6V61.6M173 227.2V61.6m58.3 165.6V61.6"/></svg>