<svg version="1.1" id="Layer_1" xmlns="http://www.w3.org/2000/svg" x="0" y="0" viewBox="0 0 288 288" xml:space="preserve"><style>.st0{fill:#fff}.st2{fill:#e9f0ff}.st3{fill:#6ea2ff}</style><path class="st0" d="M0 0h288v288H0z"/><path d="M152.6 259.4V135.8h-17.2v123.6l-9 5.5v7.1h35.2v-7.1zM16 141.3h256m-248.1-5.5v5.5m17.2-5.5v5.5m17.1-5.5v5.5m17.2-5.5v5.5m17.1-5.5v5.5m17.2-5.5v5.5m17.1-5.5v5.5m17.2-5.5v5.5m17.2-5.5v5.5m17.1-5.5v5.5m17.2-5.5v5.5m17.1-5.5v5.5m17.2-5.5v5.5m17.1-5.5v5.5m17.2-5.5v5.5" fill="none" stroke="#bebebe" stroke-miterlimit="10"/><path class="st0" d="M16 61.2h256v74.7H16z"/><path class="st2" d="M16 61.2h4.5v74.7H16zm251.5 0h4.5v74.7h-4.5zm-128 0h9v74.7h-9z"/><path class="st2" d="M16 61.2h256v4.5H16zm0 70.2h256v4.5H16z"/><path class="st3" d="M16 96.3h4.5v4.5H16zm251.5 0h4.5v4.5h-4.5zM141.8 61.2h4.5v4.5h-4.5zM139.5 94h4.5v4.5h-4.5zm4.5 4.5h4.5v4.5H144z"/><path class="st2" d="M201.3 61.2h9v74.7h-9z"/><path class="st3" d="M201.3 94h4.5v4.5h-4.5zm4.5 4.5h4.5v4.5h-4.5z"/><path class="st2" d="M77.8 61.2h9v74.7h-9z"/><path class="st3" d="M77.8 94h4.5v4.5h-4.5zm4.4 4.5h4.5v4.5h-4.5zm59.6 32.9h4.5v4.5h-4.5z"/><path d="M16 61.2h256v74.7H16zm4.5 74.6V61.2M144 93V61.2M205.8 93V61.2M82.2 93V61.2m61.8 74.6V104m61.8 31.8V104M82.2 135.8V105m185.3 30.8V61.2M16 65.7h256M16 131.4h256" fill="none" stroke="#6ea2ff" stroke-miterlimit="10"/></svg>