<svg version="1.1" id="Layer_1" xmlns="http://www.w3.org/2000/svg" x="0" y="0" viewBox="0 0 288 646" xml:space="preserve"><style>.st1{fill:none;stroke:#dcdcdc;stroke-linecap:square}.st3{fill:#3d3d3d}</style><g id="Rectangle-2-Copy-37"><path id="path-1_1_" fill="#fff" d="M0 0h288v646H0z"/></g><g id="Group-16"><path class="st1" d="M58.5.8v611.6M50.5.8v611.6M42.5.8v611.6M34.5.8v611.6M26.5.8v611.6M18.5.8v611.6M122.5.8v611.6M114.5.8v611.6M106.5.8v611.6M98.5.8v611.6M90.5.8v611.6M82.5.8v611.6M74.5.8v611.6M66.5.8v611.6M186.5.8v611.6M178.5.8v611.6M170.5.8v611.6M162.5.8v611.6M154.5.8v611.6M146.5.8v611.6M250.5.8v611.6M242.5.8v611.6M234.5.8v611.6M226.5.8v611.6M218.5.8v611.6M210.5.8v611.6M202.5.8v611.6M194.5.8v611.6M138.5.8v611.6M130.5.8v611.6M258.5.8v611.6M10.5.8v611.6M2.5.8v611.6" transform="translate(14 16)" id="Line-7"/></g><g transform="translate(16 15)" id="Group-17"><path id="Line-8" class="st1" d="M.9 120.9h255"/><path id="Line-8-Copy" class="st1" d="M.9 128.9h255"/><path id="Line-8-Copy-2" class="st1" d="M.9 136.9h255"/><path id="Line-8-Copy-3" class="st1" d="M.9 144.8h255"/><path id="Line-8-Copy-4" class="st1" d="M.9 152.8h255"/><path id="Line-8-Copy-5" class="st1" d="M.9 160.8h255"/><path id="Line-8-Copy-6" class="st1" d="M.9 168.7h255"/><path id="Line-8-Copy-7" class="st1" d="M.9 176.7h255"/><path id="Line-8-Copy-8" class="st1" d="M.9 184.7h255"/><path id="Line-8-Copy-9" class="st1" d="M.9 192.6h255"/><path id="Line-8-Copy-10" class="st1" d="M.9 200.6h255"/><path id="Line-8-Copy-11" class="st1" d="M.9 208.6h255"/><path id="Line-8-Copy-12" class="st1" d="M.9 216.6h255"/><path id="Line-8-Copy-13" class="st1" d="M.9 224.5h255"/><path id="Line-8-Copy-14" class="st1" d="M.9 232.5h255"/><path id="Line-8-Copy-15" class="st1" d="M.9 240.5h255"/><path id="Line-8-Copy-16" class="st1" d="M.9 248.4h255"/><path id="Line-8-Copy-17" class="st1" d="M.9 256.4h255"/><path id="Line-8-Copy-18" class="st1" d="M.9 264.4h255"/><path id="Line-8-Copy-19" class="st1" d="M.9 272.3h255"/><path id="Line-8-Copy-20" class="st1" d="M.9 280.3h255"/><path id="Line-8-Copy-21" class="st1" d="M.9 288.3h255"/><path id="Line-8-Copy-22" class="st1" d="M.9 296.2h255"/><path id="Line-8-Copy-7_1_" class="st1" d="M.9 1.4h255"/><path id="Line-8-Copy-8_1_" class="st1" d="M.9 9.4h255"/><path id="Line-8-Copy-9_1_" class="st1" d="M.9 17.3h255"/><path id="Line-8-Copy-10_1_" class="st1" d="M.9 25.3h255"/><path id="Line-8-Copy-11_1_" class="st1" d="M.9 33.3h255"/><path id="Line-8-Copy-12_1_" class="st1" d="M.9 41.2h255"/><path id="Line-8-Copy-13_1_" class="st1" d="M.9 49.2h255"/><path id="Line-8-Copy-14_1_" class="st1" d="M.9 57.2h255"/><path id="Line-8-Copy-15_1_" class="st1" d="M.9 65.2h255"/><path id="Line-8-Copy-16_1_" class="st1" d="M.9 73.1h255"/><path id="Line-8-Copy-17_1_" class="st1" d="M.9 81.1h255"/><path id="Line-8-Copy-18_1_" class="st1" d="M.9 89.1h255"/><path id="Line-8-Copy-19_1_" class="st1" d="M.9 97h255"/><path id="Line-8-Copy-20_1_" class="st1" d="M.9 105h255"/><path id="Line-8-Copy-21_1_" class="st1" d="M.9 113h255"/><path id="Line-8-Copy-23" class="st1" d="M.9 304.2h255"/><path id="Line-8-Copy-24" class="st1" d="M.9 312.2h255"/><path id="Line-8-Copy-25" class="st1" d="M.9 320.1h255"/><path id="Line-8-Copy-26" class="st1" d="M.9 328.1h255"/><path id="Line-8-Copy-27" class="st1" d="M.9 336.1h255"/><path id="Line-8-Copy-28" class="st1" d="M.9 344.1h255"/><path id="Line-8-Copy-29" class="st1" d="M.9 352h255"/><path id="Line-8-Copy-30" class="st1" d="M.9 360h255"/><path id="Line-8-Copy-31" class="st1" d="M.9 368h255"/><path id="Line-8-Copy-32" class="st1" d="M.9 376h255"/><path id="Line-8-Copy-48" class="st1" d="M.9 494h255"/><path id="Line-8-Copy-33" class="st1" d="M.9 384h255"/><path id="Line-8-Copy-49" class="st1" d="M.9 502h255"/><path id="Line-8-Copy-34" class="st1" d="M.9 392h255"/><path id="Line-8-Copy-50" class="st1" d="M.9 510h255"/><path id="Line-8-Copy-35" class="st1" d="M.9 400h255"/><path id="Line-8-Copy-51" class="st1" d="M.9 518h255"/><path id="Line-8-Copy-36" class="st1" d="M.9 408h255"/><path id="Line-8-Copy-52" class="st1" d="M.9 526h255"/><path id="Line-8-Copy-37" class="st1" d="M.9 416h255"/><path id="Line-8-Copy-53" class="st1" d="M.9 534h255"/><path id="Line-8-Copy-38" class="st1" d="M.9 424h255"/><path id="Line-8-Copy-54" class="st1" d="M.9 542h255"/><path id="Line-8-Copy-39" class="st1" d="M.9 432h255"/><path id="Line-8-Copy-55" class="st1" d="M.9 550h255"/><path id="Line-8-Copy-40" class="st1" d="M.9 440h255"/><path id="Line-8-Copy-56" class="st1" d="M.9 558h255"/><path id="Line-8-Copy-41" class="st1" d="M.9 448h255"/><path id="Line-8-Copy-57" class="st1" d="M.9 566h255"/><path id="Line-8-Copy-42" class="st1" d="M.9 456h255"/><path id="Line-8-Copy-58" class="st1" d="M.9 574h255"/><path id="Line-8-Copy-43" class="st1" d="M.9 464h255"/><path id="Line-8-Copy-59" class="st1" d="M.9 582h255"/><path id="Line-8-Copy-44" class="st1" d="M.9 472h255"/><path id="Line-8-Copy-60" class="st1" d="M.9 590h255"/><path id="Line-8-Copy-45" class="st1" d="M.9 480h255"/><path id="Line-8-Copy-61" class="st1" d="M1 598h255"/><path id="Line-8-Copy-46" class="st1" d="M.9 487h255"/><path id="Line-8-Copy-62" class="st1" d="M1 606h255"/><path id="Line-8-Copy-64" class="st1" d="M1 614h255"/></g><path d="M64 127.5h25v24.9H64zm0 47.8h33v32.9H64zm0 55.8h49v48.8H64zm0 71.7h65v64.8H64zm0-215.2h17v16.9H64zm0-32h9v9.1h-9zm0 334.9h81v81H64zm0 104h97v95H64z" fill="#b3e6ff"/><path class="st3" d="M81.6 64.2v-1.3h2.3V57h-.1L82 59.2l-1-.8 2.1-2.5h2.4V63h1.9v1.3h-5.8v-.1zM90 61l-2-3h1.8l1.2 2 1.3-2.1H94L91.9 61l2.1 3.2h-1.8L90.9 62l-1.3 2.2H88l2-3.2zm5 35.1h-5.8v-1.5l2.6-2.3c.9-.8 1.3-1.4 1.3-2.1V90c0-.7-.6-1.1-1.2-1.1-.9 0-1.3.6-1.5 1.2l-1.4-.5c.4-1.1 1.3-2.1 3-2.1 1.8 0 2.8 1.1 2.8 2.5s-.9 2.3-2.1 3.2l-1.8 1.5H95v1.4zm3-3.2l-2-3.1h1.8l1.3 2.1 1.3-2.1h1.6l-2.1 3.1 2.1 3.2h-1.8l-1.3-2.2-1.3 2.2H96l2-3.2zm1.6 38c1 0 1.4-.4 1.4-1v-.1c0-.7-.5-1.1-1.2-1.1s-1.3.4-1.7 1l-1-.9c.6-.8 1.4-1.4 2.8-1.4 1.7 0 2.8.8 2.8 2.2 0 1.1-.7 1.7-1.6 1.9v.1c1 .2 1.8.9 1.8 2 0 1.5-1.2 2.5-3.1 2.5-1.6 0-2.4-.7-3-1.6l1.2-.9c.4.7.9 1.2 1.8 1.2s1.4-.5 1.4-1.3v-.1c0-.8-.6-1.2-1.6-1.2h-.8v-1.3h.8zm6.4 1.9l-2.1-3.1h1.8l1.3 2.1 1.3-2.1h1.6l-2.1 3.1 2.1 3.2h-1.8l-1.3-2.2-1.3 2.2h-1.6l2.1-3.2zm2.6 50.9v-1.6h-3.8v-1.3l3.3-5.4h2v5.5h1.1v1.2h-1.1v1.6h-1.5zm-2.4-2.8h2.5v-4h-.1l-2.4 4zm7.8-.3l-2.1-3.1h1.8l1.3 2.1 1.3-2.1h1.6l-2.1 3.1 2.1 3.2h-1.8l-1.3-2.2-1.3 2.2h-1.6l2.1-3.2zM121.1 236.4c0-2.4 1.6-4.3 3-5.2h2.1c-2 1.4-3.1 2.5-3.5 4.2h.1c.3-.6.8-1.2 1.9-1.2 1.4 0 2.4 1 2.4 2.6 0 1.7-1.2 2.9-3 2.9-1.9 0-3-1.3-3-3.3zm4.4.6v-.2c0-.9-.5-1.4-1.4-1.4s-1.4.5-1.4 1.4v.2c0 .9.5 1.4 1.4 1.4s1.4-.5 1.4-1.4zm4.5-.7l-2.1-3.1h1.8l1.3 2.1 1.3-2.1h1.6l-2.1 3.1 2.1 3.2h-1.8l-1.3-2.2-1.3 2.2h-1.6l2.1-3.2zM137 309c0-1.1.7-1.8 1.7-2v-.1c-.8-.3-1.4-.9-1.4-1.9 0-1.3 1-2.2 2.8-2.2s2.8.9 2.8 2.2c0 1-.6 1.6-1.4 1.9v.1c1 .3 1.7 1 1.7 2 0 1.4-1.1 2.4-3.1 2.4s-3.1-1-3.1-2.4zm4.5 0v-.3c0-.7-.5-1.2-1.4-1.2s-1.4.4-1.4 1.2v.3c0 .7.5 1.2 1.4 1.2s1.4-.5 1.4-1.2zm-.1-3.8v-.2c0-.7-.5-1.1-1.3-1.1s-1.3.4-1.3 1.1v.2c0 .7.5 1.1 1.3 1.1s1.3-.4 1.3-1.1zm4.6 2.9l-2-3.1h1.8l1.3 2.1 1.3-2.1h1.6l-2.1 3.1 2.1 3.2h-1.8l-1.3-2.2-1.3 2.2H144l2-3.2zM153.6 399v-1.3h2.3v-5.9h-.1L154 394l-1-.8 2.1-2.5h2.4v7.1h1.9v1.3h-5.8v-.1zm6.6-4.2c0-2.7 1-4.3 3.1-4.3s3.1 1.6 3.1 4.3-1 4.3-3.1 4.3-3.1-1.6-3.1-4.3zm4.5.8v-1.5c0-1.4-.4-2.2-1.4-2.2s-1.4.9-1.4 2.2v1.5c0 1.4.4 2.2 1.4 2.2s1.4-.9 1.4-2.2zm4.5.2l-2.1-3.1h1.8l1.3 2.1 1.3-2.1h1.6l-2.1 3.1 2.1 3.2h-1.8l-1.3-2.2-1.3 2.2h-1.6l2.1-3.2zM169.6 502v-1.3h2.3v-5.9h-.1L170 497l-1-.8 2.1-2.5h2.4v7.1h1.9v1.3h-5.8v-.1zm12.6 0h-5.8v-1.5l2.6-2.3c.9-.8 1.3-1.4 1.3-2.1v-.1c0-.7-.6-1.1-1.2-1.1-.9 0-1.3.6-1.5 1.2l-1.4-.5c.4-1.1 1.3-2.1 3-2.1 1.8 0 2.8 1.1 2.8 2.5s-.9 2.3-2.1 3.2l-1.8 1.5h4.1v1.3zm3-3.2l-2.1-3.1h1.8l1.3 2.1 1.3-2.1h1.6l-2.1 3.1 2.1 3.2h-1.8l-1.3-2.2-1.3 2.2h-1.6l2.1-3.2z"/></svg>