<?xml version="1.0" encoding="utf-8"?>
<!-- Generator: Adobe Illustrator 22.1.0, SVG Export Plug-In . SVG Version: 6.00 Build 0)  -->
<svg version="1.1" id="Layer_1" xmlns="http://www.w3.org/2000/svg" xmlns:xlink="http://www.w3.org/1999/xlink" x="0px" y="0px"
	 viewBox="0 0 288 646" style="enable-background:new 0 0 288 646;" xml:space="preserve">
<style type="text/css">
	.st0{fill:#FFFFFF;}
	.st1{fill:none;stroke:#DCDCDC;stroke-linecap:square;}
	.st2{fill:#B3E6FF;}
	.st3{fill:#3D3D3D;}
</style>
<title>Group 7</title>
<desc>Created with Sketch.</desc>
<g id="Rectangle-2-Copy-37">
	<rect id="path-1_1_" class="st0" width="288" height="646"/>
</g>
<g id="Group-16">
	<g id="Line-7" transform="translate(14.000000, 16.000000)">
		<path class="st1" d="M58.5,0.8v611.6"/>
		<path class="st1" d="M50.5,0.8v611.6"/>
		<path class="st1" d="M42.5,0.8v611.6"/>
		<path class="st1" d="M34.5,0.8v611.6"/>
		<path class="st1" d="M26.5,0.8v611.6"/>
		<path class="st1" d="M18.5,0.8v611.6"/>
		<path class="st1" d="M122.5,0.8v611.6"/>
		<path class="st1" d="M114.5,0.8v611.6"/>
		<path class="st1" d="M106.5,0.8v611.6"/>
		<path class="st1" d="M98.5,0.8v611.6"/>
		<path class="st1" d="M90.5,0.8v611.6"/>
		<path class="st1" d="M82.5,0.8v611.6"/>
		<path class="st1" d="M74.5,0.8v611.6"/>
		<path class="st1" d="M66.5,0.8v611.6"/>
		<path class="st1" d="M186.5,0.8v611.6"/>
		<path class="st1" d="M178.5,0.8v611.6"/>
		<path class="st1" d="M170.5,0.8v611.6"/>
		<path class="st1" d="M162.5,0.8v611.6"/>
		<path class="st1" d="M154.5,0.8v611.6"/>
		<path class="st1" d="M146.5,0.8v611.6"/>
		<path class="st1" d="M250.5,0.8v611.6"/>
		<path class="st1" d="M242.5,0.8v611.6"/>
		<path class="st1" d="M234.5,0.8v611.6"/>
		<path class="st1" d="M226.5,0.8v611.6"/>
		<path class="st1" d="M218.5,0.8v611.6"/>
		<path class="st1" d="M210.5,0.8v611.6"/>
		<path class="st1" d="M202.5,0.8v611.6"/>
		<path class="st1" d="M194.5,0.8v611.6"/>
		<path class="st1" d="M138.5,0.8v611.6"/>
		<path class="st1" d="M130.5,0.8v611.6"/>
		<path class="st1" d="M258.5,0.8v611.6"/>
		<path class="st1" d="M10.5,0.8v611.6"/>
		<path class="st1" d="M2.5,0.8v611.6"/>
	</g>
</g>
<g id="Group-17">
	<g transform="translate(16.000000, 15.000000)">
		<path id="Line-8" class="st1" d="M0.9,120.9h255"/>
		<path id="Line-8-Copy" class="st1" d="M0.9,128.9h255"/>
		<path id="Line-8-Copy-2" class="st1" d="M0.9,136.9h255"/>
		<path id="Line-8-Copy-3" class="st1" d="M0.9,144.8h255"/>
		<path id="Line-8-Copy-4" class="st1" d="M0.9,152.8h255"/>
		<path id="Line-8-Copy-5" class="st1" d="M0.9,160.8h255"/>
		<path id="Line-8-Copy-6" class="st1" d="M0.9,168.7h255"/>
		<path id="Line-8-Copy-7" class="st1" d="M0.9,176.7h255"/>
		<path id="Line-8-Copy-8" class="st1" d="M0.9,184.7h255"/>
		<path id="Line-8-Copy-9" class="st1" d="M0.9,192.6h255"/>
		<path id="Line-8-Copy-10" class="st1" d="M0.9,200.6h255"/>
		<path id="Line-8-Copy-11" class="st1" d="M0.9,208.6h255"/>
		<path id="Line-8-Copy-12" class="st1" d="M0.9,216.6h255"/>
		<path id="Line-8-Copy-13" class="st1" d="M0.9,224.5h255"/>
		<path id="Line-8-Copy-14" class="st1" d="M0.9,232.5h255"/>
		<path id="Line-8-Copy-15" class="st1" d="M0.9,240.5h255"/>
		<path id="Line-8-Copy-16" class="st1" d="M0.9,248.4h255"/>
		<path id="Line-8-Copy-17" class="st1" d="M0.9,256.4h255"/>
		<path id="Line-8-Copy-18" class="st1" d="M0.9,264.4h255"/>
		<path id="Line-8-Copy-19" class="st1" d="M0.9,272.3h255"/>
		<path id="Line-8-Copy-20" class="st1" d="M0.9,280.3h255"/>
		<path id="Line-8-Copy-21" class="st1" d="M0.9,288.3h255"/>
		<path id="Line-8-Copy-22" class="st1" d="M0.9,296.2h255"/>
		<path id="Line-8-Copy-7_1_" class="st1" d="M0.9,1.4h255"/>
		<path id="Line-8-Copy-8_1_" class="st1" d="M0.9,9.4h255"/>
		<path id="Line-8-Copy-9_1_" class="st1" d="M0.9,17.3h255"/>
		<path id="Line-8-Copy-10_1_" class="st1" d="M0.9,25.3h255"/>
		<path id="Line-8-Copy-11_1_" class="st1" d="M0.9,33.3h255"/>
		<path id="Line-8-Copy-12_1_" class="st1" d="M0.9,41.2h255"/>
		<path id="Line-8-Copy-13_1_" class="st1" d="M0.9,49.2h255"/>
		<path id="Line-8-Copy-14_1_" class="st1" d="M0.9,57.2h255"/>
		<path id="Line-8-Copy-15_1_" class="st1" d="M0.9,65.2h255"/>
		<path id="Line-8-Copy-16_1_" class="st1" d="M0.9,73.1h255"/>
		<path id="Line-8-Copy-17_1_" class="st1" d="M0.9,81.1h255"/>
		<path id="Line-8-Copy-18_1_" class="st1" d="M0.9,89.1h255"/>
		<path id="Line-8-Copy-19_1_" class="st1" d="M0.9,97h255"/>
		<path id="Line-8-Copy-20_1_" class="st1" d="M0.9,105h255"/>
		<path id="Line-8-Copy-21_1_" class="st1" d="M0.9,113h255"/>
		<path id="Line-8-Copy-23" class="st1" d="M0.9,304.2h255"/>
		<path id="Line-8-Copy-24" class="st1" d="M0.9,312.2h255"/>
		<path id="Line-8-Copy-25" class="st1" d="M0.9,320.1h255"/>
		<path id="Line-8-Copy-26" class="st1" d="M0.9,328.1h255"/>
		<path id="Line-8-Copy-27" class="st1" d="M0.9,336.1h255"/>
		<path id="Line-8-Copy-28" class="st1" d="M0.9,344.1h255"/>
		<path id="Line-8-Copy-29" class="st1" d="M0.9,352h255"/>
		<path id="Line-8-Copy-30" class="st1" d="M0.9,360h255"/>
		<path id="Line-8-Copy-31" class="st1" d="M0.9,368h255"/>
		<path id="Line-8-Copy-32" class="st1" d="M0.9,376h255"/>
		<path id="Line-8-Copy-48" class="st1" d="M0.9,494h255"/>
		<path id="Line-8-Copy-33" class="st1" d="M0.9,384h255"/>
		<path id="Line-8-Copy-49" class="st1" d="M0.9,502h255"/>
		<path id="Line-8-Copy-34" class="st1" d="M0.9,392h255"/>
		<path id="Line-8-Copy-50" class="st1" d="M0.9,510h255"/>
		<path id="Line-8-Copy-35" class="st1" d="M0.9,400h255"/>
		<path id="Line-8-Copy-51" class="st1" d="M0.9,518h255"/>
		<path id="Line-8-Copy-36" class="st1" d="M0.9,408h255"/>
		<path id="Line-8-Copy-52" class="st1" d="M0.9,526h255"/>
		<path id="Line-8-Copy-37" class="st1" d="M0.9,416h255"/>
		<path id="Line-8-Copy-53" class="st1" d="M0.9,534h255"/>
		<path id="Line-8-Copy-38" class="st1" d="M0.9,424h255"/>
		<path id="Line-8-Copy-54" class="st1" d="M0.9,542h255"/>
		<path id="Line-8-Copy-39" class="st1" d="M0.9,432h255"/>
		<path id="Line-8-Copy-55" class="st1" d="M0.9,550h255"/>
		<path id="Line-8-Copy-40" class="st1" d="M0.9,440h255"/>
		<path id="Line-8-Copy-56" class="st1" d="M0.9,558h255"/>
		<path id="Line-8-Copy-41" class="st1" d="M0.9,448h255"/>
		<path id="Line-8-Copy-57" class="st1" d="M0.9,566h255"/>
		<path id="Line-8-Copy-42" class="st1" d="M0.9,456h255"/>
		<path id="Line-8-Copy-58" class="st1" d="M0.9,574h255"/>
		<path id="Line-8-Copy-43" class="st1" d="M0.9,464h255"/>
		<path id="Line-8-Copy-59" class="st1" d="M0.9,582h255"/>
		<path id="Line-8-Copy-44" class="st1" d="M0.9,472h255"/>
		<path id="Line-8-Copy-60" class="st1" d="M0.9,590h255"/>
		<path id="Line-8-Copy-45" class="st1" d="M0.9,480h255"/>
		<path id="Line-8-Copy-61" class="st1" d="M1,598h255"/>
		<path id="Line-8-Copy-46" class="st1" d="M0.9,487h255"/>
		<path id="Line-8-Copy-62" class="st1" d="M1,606h255"/>
		<path id="Line-8-Copy-64" class="st1" d="M1,614h255"/>
	</g>
</g>
<rect x="64" y="127.5" class="st2" width="25" height="24.9"/>
<rect x="64" y="175.3" class="st2" width="33" height="32.9"/>
<rect x="64" y="231.1" class="st2" width="49" height="48.8"/>
<rect x="64" y="302.8" class="st2" width="65" height="64.8"/>
<rect x="64" y="87.6" class="st2" width="17" height="16.9"/>
<g>
	<rect x="64" y="55.6" class="st2" width="9" height="9.1"/>
</g>
<rect x="64" y="390.5" class="st2" width="81" height="81"/>
<rect x="64" y="494.5" class="st2" width="97" height="95"/>
<g>
	<path class="st3" d="M81.6,64.2v-1.3h2.3V57h-0.1L82,59.2l-1-0.8l2.1-2.5h2.4V63h1.9v1.3h-5.8V64.2z"/>
	<path class="st3" d="M90,61l-2-3h1.8l1.2,2l0,0l1.3-2.1H94L91.9,61l2.1,3.2h-1.8L90.9,62l0,0l-1.3,2.2H88L90,61z"/>
</g>
<g>
	<path class="st3" d="M95,96.1h-5.8v-1.5l2.6-2.3c0.9-0.8,1.3-1.4,1.3-2.1V90c0-0.7-0.6-1.1-1.2-1.1c-0.9,0-1.3,0.6-1.5,1.2L89,89.6
		c0.4-1.1,1.3-2.1,3-2.1c1.8,0,2.8,1.1,2.8,2.5s-0.9,2.3-2.1,3.2l-1.8,1.5H95V96.1z"/>
	<path class="st3" d="M98,92.9l-2-3.1h1.8l1.3,2.1l0,0l1.3-2.1h1.6l-2.1,3.1l2.1,3.2h-1.8l-1.3-2.2l0,0l-1.3,2.2H96L98,92.9z"/>
</g>
<g>
	<path class="st3" d="M99.6,130.9c1,0,1.4-0.4,1.4-1v-0.1c0-0.7-0.5-1.1-1.2-1.1s-1.3,0.4-1.7,1l-1-0.9c0.6-0.8,1.4-1.4,2.8-1.4
		c1.7,0,2.8,0.8,2.8,2.2c0,1.1-0.7,1.7-1.6,1.9v0.1c1,0.2,1.8,0.9,1.8,2c0,1.5-1.2,2.5-3.1,2.5c-1.6,0-2.4-0.7-3-1.6l1.2-0.9
		c0.4,0.7,0.9,1.2,1.8,1.2s1.4-0.5,1.4-1.3v-0.1c0-0.8-0.6-1.2-1.6-1.2h-0.8v-1.3L99.6,130.9L99.6,130.9z"/>
	<path class="st3" d="M106,132.8l-2.1-3.1h1.8l1.3,2.1l0,0l1.3-2.1h1.6l-2.1,3.1l2.1,3.2h-1.8l-1.3-2.2l0,0l-1.3,2.2h-1.6L106,132.8
		z"/>
</g>
<g>
	<path class="st3" d="M108.6,183.7v-1.6h-3.8v-1.3l3.3-5.4h2v5.5h1.1v1.2h-1.1v1.6H108.6z M106.2,180.9h2.5v-4h-0.1L106.2,180.9z"/>
	<path class="st3" d="M114,180.6l-2.1-3.1h1.8l1.3,2.1l0,0l1.3-2.1h1.6l-2.1,3.1l2.1,3.2h-1.8l-1.3-2.2l0,0l-1.3,2.2h-1.6L114,180.6
		z"/>
</g>
<g>
	<path class="st3" d="M121.1,236.4c0-2.4,1.6-4.3,3-5.2h2.1c-2,1.4-3.1,2.5-3.5,4.2h0.1c0.3-0.6,0.8-1.2,1.9-1.2
		c1.4,0,2.4,1,2.4,2.6c0,1.7-1.2,2.9-3,2.9C122.2,239.7,121.1,238.4,121.1,236.4z M125.5,237v-0.2c0-0.9-0.5-1.4-1.4-1.4
		s-1.4,0.5-1.4,1.4v0.2c0,0.9,0.5,1.4,1.4,1.4S125.5,237.9,125.5,237z"/>
	<path class="st3" d="M130,236.3l-2.1-3.1h1.8l1.3,2.1l0,0l1.3-2.1h1.6l-2.1,3.1l2.1,3.2h-1.8l-1.3-2.2l0,0l-1.3,2.2h-1.6L130,236.3
		z"/>
</g>
<g>
	<path class="st3" d="M137,309c0-1.1,0.7-1.8,1.7-2v-0.1c-0.8-0.3-1.4-0.9-1.4-1.9c0-1.3,1-2.2,2.8-2.2s2.8,0.9,2.8,2.2
		c0,1-0.6,1.6-1.4,1.9v0.1c1,0.3,1.7,1,1.7,2c0,1.4-1.1,2.4-3.1,2.4S137,310.4,137,309z M141.5,309v-0.3c0-0.7-0.5-1.2-1.4-1.2
		s-1.4,0.4-1.4,1.2v0.3c0,0.7,0.5,1.2,1.4,1.2S141.5,309.7,141.5,309z M141.4,305.2V305c0-0.7-0.5-1.1-1.3-1.1s-1.3,0.4-1.3,1.1v0.2
		c0,0.7,0.5,1.1,1.3,1.1C140.9,306.3,141.4,305.9,141.4,305.2z"/>
	<path class="st3" d="M146,308.1l-2-3.1h1.8l1.3,2.1l0,0l1.3-2.1h1.6l-2.1,3.1l2.1,3.2h-1.8l-1.3-2.2l0,0l-1.3,2.2H144L146,308.1z"
		/>
</g>
<g>
	<path class="st3" d="M153.6,399v-1.3h2.3v-5.9h-0.1L154,394l-1-0.8l2.1-2.5h2.4v7.1h1.9v1.3h-5.8V399z"/>
	<path class="st3" d="M160.2,394.8c0-2.7,1-4.3,3.1-4.3s3.1,1.6,3.1,4.3s-1,4.3-3.1,4.3S160.2,397.5,160.2,394.8z M164.7,395.6v-1.5
		c0-1.4-0.4-2.2-1.4-2.2s-1.4,0.9-1.4,2.2v1.5c0,1.4,0.4,2.2,1.4,2.2S164.7,396.9,164.7,395.6z"/>
	<path class="st3" d="M169.2,395.8l-2.1-3.1h1.8l1.3,2.1l0,0l1.3-2.1h1.6l-2.1,3.1l2.1,3.2h-1.8l-1.3-2.2l0,0l-1.3,2.2h-1.6
		L169.2,395.8z"/>
</g>
<g>
	<path class="st3" d="M169.6,502v-1.3h2.3v-5.9h-0.1L170,497l-1-0.8l2.1-2.5h2.4v7.1h1.9v1.3h-5.8V502z"/>
	<path class="st3" d="M182.2,502h-5.8v-1.5l2.6-2.3c0.9-0.8,1.3-1.4,1.3-2.1V496c0-0.7-0.6-1.1-1.2-1.1c-0.9,0-1.3,0.6-1.5,1.2
		l-1.4-0.5c0.4-1.1,1.3-2.1,3-2.1c1.8,0,2.8,1.1,2.8,2.5s-0.9,2.3-2.1,3.2l-1.8,1.5h4.1L182.2,502L182.2,502z"/>
	<path class="st3" d="M185.2,498.8l-2.1-3.1h1.8l1.3,2.1l0,0l1.3-2.1h1.6l-2.1,3.1l2.1,3.2h-1.8l-1.3-2.2l0,0l-1.3,2.2h-1.6
		L185.2,498.8z"/>
</g>
</svg>
