<svg xmlns="http://www.w3.org/2000/svg" xmlns:xlink="http://www.w3.org/1999/xlink" width="32" height="14" version="1.1" viewBox="0 0 32 14"><title>NPM</title><desc>Created with Sketch.</desc><g id="Symbols" fill="none" fill-rule="evenodd" stroke="none" stroke-width="1"><g id="icon-/-card-/-npm-/-01-enabled" fill="#000" transform="translate(0.000000, -10.000000)"><g id="NPM" transform="translate(0.000000, 10.000000)"><path id="Fill-1" d="M0,0.0004 L0,11.0004 L9,11.0004 L9,13.0004 L16,13.0004 L16,11.0004 L32,11.0004 L32,0.0004 L0,0.0004 Z M2,2.0004 L30,2.0004 L30,9.0004 L16,9.0004 L14,9.0004 L14,11.0004 L11,11.0004 L11,9.0004 L9,9.0004 L2,9.0004 L2,2.0004 Z"/><polygon id="Fill-2" points="5 9 7 9 7 4 5 4"/><polygon id="Fill-3" points="9 9 11 9 11 2 9 2"/><polygon id="Fill-4" points="14 7 16 7 16 4 14 4"/><polygon id="Fill-5" points="17 9 19 9 19 2 17 2"/><polygon id="Fill-6" points="23 9 25 9 25 4 23 4"/><polygon id="Fill-7" points="27 9 29 9 29 4 27 4"/></g></g></g></svg>