<?xml version="1.0" encoding="UTF-8"?>
<svg width="40px" height="22px" viewBox="0 0 40 22" version="1.1" xmlns="http://www.w3.org/2000/svg" xmlns:xlink="http://www.w3.org/1999/xlink">
    <!-- Generator: Sketch 60 (88103) - https://sketch.com -->
    <title>Icon</title>
    <desc>Created with Sketch.</desc>
    <defs>
        <filter x="-3.8%" y="-7.5%" width="107.5%" height="115.0%" filterUnits="objectBoundingBox" id="filter-1">
            <feOffset dx="0" dy="2" in="SourceAlpha" result="shadowOffsetOuter1"></feOffset>
            <feGaussianBlur stdDeviation="2" in="shadowOffsetOuter1" result="shadowBlurOuter1"></feGaussianBlur>
            <feColorMatrix values="0 0 0 0 0   0 0 0 0 0   0 0 0 0 0  0 0 0 0.5 0" type="matrix" in="shadowBlurOuter1" result="shadowMatrixOuter1"></feColorMatrix>
            <feMerge>
                <feMergeNode in="shadowMatrixOuter1"></feMergeNode>
                <feMergeNode in="SourceGraphic"></feMergeNode>
            </feMerge>
        </filter>
    </defs>
    <g id="Version-1" stroke="none" stroke-width="1" fill="none" fill-rule="evenodd">
        <g id="IDL-Resources" transform="translate(-347.000000, -4377.000000)" fill="#000000">
            <g id="card-01-copy" filter="url(#filter-1)" transform="translate(336.000000, 4255.000000)">
                <g id="icon-/-card-/-npm-/-01-enabled" transform="translate(15.000000, 114.000000)">
                    <g id="NPM" transform="translate(0.000000, 10.000000)">
                        <path d="M0,0.0004 L0,11.0004 L9,11.0004 L9,13.0004 L16,13.0004 L16,11.0004 L32,11.0004 L32,0.0004 L0,0.0004 Z M2,2.0004 L30,2.0004 L30,9.0004 L16,9.0004 L14,9.0004 L14,11.0004 L11,11.0004 L11,9.0004 L9,9.0004 L2,9.0004 L2,2.0004 Z" id="Fill-1"></path>
                        <polygon id="Fill-2" points="5 9 7 9 7 4 5 4"></polygon>
                        <polygon id="Fill-3" points="9 9 11 9 11 2 9 2"></polygon>
                        <polygon id="Fill-4" points="14 7 16 7 16 4 14 4"></polygon>
                        <polygon id="Fill-5" points="17 9 19 9 19 2 17 2"></polygon>
                        <polygon id="Fill-6" points="23 9 25 9 25 4 23 4"></polygon>
                        <polygon id="Fill-7" points="27 9 29 9 29 4 27 4"></polygon>
                    </g>
                </g>
            </g>
        </g>
    </g>
</svg>