<svg width="32px" version="1.1" id="Layer_1" xmlns="http://www.w3.org/2000/svg" x="0" y="0" viewBox="0 0 210 210" xml:space="preserve"><style>.st1{fill:#fff}</style><path d="M0 128.3h210v70H105V210H58.3v-11.7H0v-70zm11.7 58.4H35v-35h11.7v35h11.7V140H11.7v46.7zM70 140v58.3h23.3v-11.7h23.3V140H70zm23.3 11.7H105V175H93.3v-23.3zm35-11.7v46.7h23.3v-35h11.7v35H175v-35h11.7v35h11.7V140h-70.1z" fill="#cb3837"/><path class="st1" d="M11.7 186.7H35v-35h11.7v35h11.6V140H11.7zM70 140v58.3h23.3v-11.7h23.3V140H70zm35 35H93.3v-23.3H105V175zM128.3 140v46.7h23.4v-35h11.6v35H175v-35h11.7v35h11.6V140z"/></svg>