<svg xmlns="http://www.w3.org/2000/svg" viewBox="0 0 288 288"><g fill="none" fill-rule="evenodd"><path fill="#FFF" d="M0 0h288v288H0z"/><path d="M80.048 137.88h-5.184v-20.16h5.184v20.16zm-12.744 0H62.12v-20.16h5.184v20.16zm159.336 0h-5.184v-20.16h5.184v20.16zm-12.744 0h-5.184v-20.16h5.184v20.16z" fill="#D12765"/><path fill="#3D3D3D" d="M127.064 171h-6.336l-5.04-14.832H95.384L90.344 171h-6.12l17.568-50.256h7.704z"/><path fill="#FFF" d="M114.176 150.84l-8.496-24.48h-.36l-8.496 24.48z"/><path d="M148.664 171.864c-10.44 0-16.56-7.56-16.56-19.44 0-11.88 6.12-19.44 16.56-19.44 7.344 0 11.736 3.6 13.896 8.712l-4.824 2.448c-1.368-3.816-4.536-6.048-9.072-6.048-6.84 0-10.368 4.68-10.368 11.16v6.336c0 6.48 3.528 11.16 10.368 11.16 4.68 0 8.064-2.232 10.08-6.48l4.176 2.808c-2.376 5.328-7.2 8.784-14.256 8.784zm35.928 0c-10.08 0-16.704-7.632-16.704-19.44 0-11.808 6.624-19.44 16.704-19.44 9.936 0 16.056 7.632 16.056 18.144v2.736h-26.712v1.728c0 6.408 4.104 11.232 11.016 11.232 4.68 0 8.28-2.304 10.224-6.408l4.104 2.952c-2.376 5.04-7.704 8.496-14.688 8.496z" fill="#3D3D3D"/><path d="M184.592 137.808c-6.264 0-10.656 4.752-10.656 11.232v.504h20.52v-.792c0-6.552-3.96-10.944-9.864-10.944z" fill="#FFF"/></g></svg>