<svg xmlns="http://www.w3.org/2000/svg" viewBox="0 0 448 248"><g fill="none" fill-rule="evenodd"><path fill="#FFF" d="M0 0h448v248H0z"/><path d="M25.488 95V83.832h3.744c2.784 0 4.576 1.856 4.576 5.584 0 3.728-1.792 5.584-4.576 5.584h-3.744zm1.344-1.184h2.4c1.84 0 3.136-1.28 3.136-3.488v-1.824c0-2.208-1.296-3.488-3.136-3.488h-2.4v8.8zM39.2 95.192c-2.24 0-3.712-1.696-3.712-4.32 0-2.624 1.472-4.32 3.712-4.32 2.208 0 3.568 1.696 3.568 4.032v.608h-5.936v.384c0 1.424.912 2.496 2.448 2.496 1.04 0 1.84-.512 2.272-1.424l.912.656c-.528 1.12-1.712 1.888-3.264 1.888zm0-7.568c-1.392 0-2.368 1.056-2.368 2.496v.112h4.56v-.176c0-1.456-.88-2.432-2.192-2.432zm8.16 7.568c-1.52 0-2.528-.64-3.264-1.616l.912-.736c.64.8 1.408 1.264 2.448 1.264 1.088 0 1.728-.496 1.728-1.344 0-.64-.352-1.136-1.44-1.296l-.656-.096c-1.52-.224-2.656-.848-2.656-2.384 0-1.632 1.264-2.432 2.944-2.432 1.328 0 2.208.496 2.88 1.328l-.848.768c-.368-.512-1.072-1.008-2.128-1.008s-1.616.496-1.616 1.28c0 .8.56 1.12 1.584 1.28l.64.096c1.824.272 2.528 1.072 2.528 2.32 0 1.6-1.168 2.576-3.056 2.576zm5.952-10.384c-.544 0-.784-.288-.784-.72v-.208c0-.432.24-.72.784-.72s.784.288.784.72v.208c0 .432-.24.72-.784.72zM52.672 95v-8.256h1.28V95h-1.28zm10.96.912c0 1.696-1.344 2.48-4 2.48-2.576 0-3.632-.736-3.632-2.032 0-.896.496-1.376 1.312-1.6v-.176c-.464-.224-.736-.592-.736-1.152 0-.832.592-1.232 1.424-1.44v-.064c-.976-.464-1.552-1.376-1.552-2.528 0-1.68 1.232-2.848 3.104-2.848.592 0 1.12.112 1.568.32v-.144c0-.64.272-1.104.96-1.104h1.232v1.12h-1.568v.528c.592.512.944 1.248.944 2.128 0 1.68-1.232 2.848-3.12 2.848-.272 0-.56-.032-.8-.08-.544.144-1.088.416-1.088.928 0 .496.512.624 1.264.624h1.76c2.048 0 2.928.832 2.928 2.192zm-1.2.096c0-.656-.432-1.088-1.712-1.088h-2.752c-.528.24-.768.608-.768 1.12 0 .72.496 1.312 1.792 1.312h1.184c1.424 0 2.256-.448 2.256-1.344zm-2.864-4.784c1.088 0 1.776-.512 1.776-1.6v-.448c0-1.088-.688-1.6-1.776-1.6s-1.776.512-1.776 1.6v.448c0 1.088.688 1.6 1.776 1.6zM66.4 95h-1.28v-8.256h1.28v1.344h.064c.4-.928 1.104-1.536 2.336-1.536 1.696 0 2.768 1.152 2.768 3.152V95h-1.28v-5.072c0-1.472-.64-2.224-1.872-2.224-1.024 0-2.016.512-2.016 1.568V95zm15.008 0h-1.6c-.88 0-1.36-.56-1.36-1.36v-5.776h-1.36v-1.12h.768c.544 0 .72-.192.72-.752v-1.536h1.152v2.288h1.808v1.12h-1.808v6.016h1.68V95zm2.192 0V83.16h1.28v4.928h.064c.4-.928 1.104-1.536 2.336-1.536 1.696 0 2.768 1.152 2.768 3.152V95h-1.28v-5.072c0-1.472-.64-2.224-1.872-2.224-1.024 0-2.016.512-2.016 1.568V95H83.6zm9.728-10.192c-.544 0-.784-.288-.784-.72v-.208c0-.432.24-.72.784-.72s.784.288.784.72v.208c0 .432-.24.72-.784.72zM92.688 95v-8.256h1.28V95h-1.28zm5.28 0h-1.28v-8.256h1.28v1.344h.064c.4-.928 1.104-1.536 2.336-1.536 1.696 0 2.768 1.152 2.768 3.152V95h-1.28v-5.072c0-1.472-.64-2.224-1.872-2.224-1.024 0-2.016.512-2.016 1.568V95zm7.808 0V83.16h1.28v7.504h.064l1.264-1.408 2.336-2.512h1.552l-3.056 3.264 3.36 4.992h-1.552l-2.736-4.208-1.232 1.264V95h-1.28zm9.072-10.192c-.544 0-.784-.288-.784-.72v-.208c0-.432.24-.72.784-.72s.784.288.784.72v.208c0 .432-.24.72-.784.72zM114.208 95v-8.256h1.28V95h-1.28zm5.28 0h-1.28v-8.256h1.28v1.344h.064c.4-.928 1.104-1.536 2.336-1.536 1.696 0 2.768 1.152 2.768 3.152V95h-1.28v-5.072c0-1.472-.64-2.224-1.872-2.224-1.024 0-2.016.512-2.016 1.568V95zm14.768.912c0 1.696-1.344 2.48-4 2.48-2.576 0-3.632-.736-3.632-2.032 0-.896.496-1.376 1.312-1.6v-.176c-.464-.224-.736-.592-.736-1.152 0-.832.592-1.232 1.424-1.44v-.064c-.976-.464-1.552-1.376-1.552-2.528 0-1.68 1.232-2.848 3.104-2.848.592 0 1.12.112 1.568.32v-.144c0-.64.272-1.104.96-1.104h1.232v1.12h-1.568v.528c.592.512.944 1.248.944 2.128 0 1.68-1.232 2.848-3.12 2.848-.272 0-.56-.032-.8-.08-.544.144-1.088.416-1.088.928 0 .496.512.624 1.264.624h1.76c2.048 0 2.928.832 2.928 2.192zm-1.2.096c0-.656-.432-1.088-1.712-1.088h-2.752c-.528.24-.768.608-.768 1.12 0 .72.496 1.312 1.792 1.312h1.184c1.424 0 2.256-.448 2.256-1.344zm-2.864-4.784c1.088 0 1.776-.512 1.776-1.6v-.448c0-1.088-.688-1.6-1.776-1.6s-1.776.512-1.776 1.6v.448c0 1.088.688 1.6 1.776 1.6zm9.968-6.416c-.544 0-.784-.288-.784-.72v-.208c0-.432.24-.72.784-.72s.784.288.784.72v.208c0 .432-.24.72-.784.72zM139.52 95v-8.256h1.28V95h-1.28zm6.48.192c-1.52 0-2.528-.64-3.264-1.616l.912-.736c.64.8 1.408 1.264 2.448 1.264 1.088 0 1.728-.496 1.728-1.344 0-.64-.352-1.136-1.44-1.296l-.656-.096c-1.52-.224-2.656-.848-2.656-2.384 0-1.632 1.264-2.432 2.944-2.432 1.328 0 2.208.496 2.88 1.328l-.848.768c-.368-.512-1.072-1.008-2.128-1.008s-1.616.496-1.616 1.28c0 .8.56 1.12 1.584 1.28l.64.096c1.824.272 2.528 1.072 2.528 2.32 0 1.6-1.168 2.576-3.056 2.576zM161.808 95h-.72c-.944 0-1.328-.576-1.424-1.344h-.08c-.352 1.008-1.232 1.536-2.384 1.536-1.744 0-2.768-.96-2.768-2.496 0-1.552 1.12-2.416 3.52-2.416h1.632v-.816c0-1.168-.64-1.808-1.952-1.808-.992 0-1.648.48-2.096 1.232l-.768-.72c.448-.88 1.44-1.616 2.928-1.616 1.984 0 3.168 1.04 3.168 2.784v4.544h.944V95zm-4.4-.896c1.264 0 2.176-.656 2.176-1.504v-1.36h-1.696c-1.456 0-2.112.448-2.112 1.248v.336c0 .816.64 1.28 1.632 1.28zm10 4.096V86.744h1.28v1.344h.064c.432-1.04 1.28-1.536 2.416-1.536 2.064 0 3.36 1.68 3.36 4.32 0 2.64-1.296 4.32-3.36 4.32-1.136 0-1.92-.512-2.416-1.536h-.064V98.2h-1.28zm3.408-4.16c1.44 0 2.336-.992 2.336-2.464v-1.408c0-1.472-.896-2.464-2.336-2.464-1.168 0-2.128.672-2.128 1.584v3.072c0 1.072.96 1.68 2.128 1.68zm7.152.96h-1.28v-8.256h1.28v1.52h.08c.288-.784 1.04-1.52 2.384-1.52h.496v1.28h-.752c-1.376 0-2.208.592-2.208 1.376V95zm7.632.192c-2.208 0-3.728-1.696-3.728-4.32 0-2.624 1.52-4.32 3.728-4.32s3.728 1.696 3.728 4.32c0 2.624-1.52 4.32-3.728 4.32zm0-1.136c1.376 0 2.352-.848 2.352-2.592V90.28c0-1.744-.976-2.592-2.352-2.592s-2.352.848-2.352 2.592v1.184c0 1.744.976 2.592 2.352 2.592zm9.024.944h-1.488l-2.896-8.256h1.28l1.44 4.096.896 2.816h.08l.896-2.816 1.472-4.096h1.232L194.624 95zm7.536.192c-2.24 0-3.712-1.696-3.712-4.32 0-2.624 1.472-4.32 3.712-4.32 2.208 0 3.568 1.696 3.568 4.032v.608h-5.936v.384c0 1.424.912 2.496 2.448 2.496 1.04 0 1.84-.512 2.272-1.424l.912.656c-.528 1.12-1.712 1.888-3.264 1.888zm0-7.568c-1.392 0-2.368 1.056-2.368 2.496v.112h4.56v-.176c0-1.456-.88-2.432-2.192-2.432zM209.12 95h-1.28v-8.256h1.28v1.344h.064c.4-.928 1.104-1.536 2.336-1.536 1.696 0 2.768 1.152 2.768 3.152V95h-1.28v-5.072c0-1.472-.64-2.224-1.872-2.224-1.024 0-2.016.512-2.016 1.568V95zm12.928 0l-2.208-8.256h1.248l.88 3.568.88 3.616h.032l1.008-3.616 1.04-3.568h1.136l1.072 3.568 1.024 3.616h.032l.848-3.616.896-3.568h1.2L228.944 95h-1.584l-1.152-3.968-.72-2.512h-.032l-.704 2.512L223.6 95h-1.552zm17.52 0h-.72c-.944 0-1.328-.576-1.424-1.344h-.08c-.352 1.008-1.232 1.536-2.384 1.536-1.744 0-2.768-.96-2.768-2.496 0-1.552 1.12-2.416 3.52-2.416h1.632v-.816c0-1.168-.64-1.808-1.952-1.808-.992 0-1.648.48-2.096 1.232l-.768-.72c.448-.88 1.44-1.616 2.928-1.616 1.984 0 3.168 1.04 3.168 2.784v4.544h.944V95zm-4.4-.896c1.264 0 2.176-.656 2.176-1.504v-1.36h-1.696c-1.456 0-2.112.448-2.112 1.248v.336c0 .816.64 1.28 1.632 1.28zm9.232-1.744l2-5.616h1.264l-3.696 10.176c-.368.992-.704 1.28-1.92 1.28h-.656v-1.12h1.296l.624-1.76-3.088-8.576h1.28l1.984 5.616.384 1.344h.08l.448-1.344zm11.792 2.832c-2.208 0-3.728-1.696-3.728-4.32 0-2.624 1.52-4.32 3.728-4.32s3.728 1.696 3.728 4.32c0 2.624-1.52 4.32-3.728 4.32zm0-1.136c1.376 0 2.352-.848 2.352-2.592V90.28c0-1.744-.976-2.592-2.352-2.592s-2.352.848-2.352 2.592v1.184c0 1.744.976 2.592 2.352 2.592zm6.192.944v-7.136h-1.344v-1.12h1.344V85.08c0-1.136.592-1.92 1.808-1.92h1.248v1.12h-1.776v2.464h1.776v1.12h-1.776V95h-1.28zm11.584.192c-2.32 0-3.68-1.68-3.68-4.32 0-2.64 1.36-4.32 3.68-4.32 1.632 0 2.608.8 3.088 1.936l-1.072.544c-.304-.848-1.008-1.344-2.016-1.344-1.52 0-2.304 1.04-2.304 2.48v1.408c0 1.44.784 2.48 2.304 2.48 1.04 0 1.792-.496 2.24-1.44l.928.624c-.528 1.184-1.6 1.952-3.168 1.952zm8 0c-2.208 0-3.728-1.696-3.728-4.32 0-2.624 1.52-4.32 3.728-4.32s3.728 1.696 3.728 4.32c0 2.624-1.52 4.32-3.728 4.32zm0-1.136c1.376 0 2.352-.848 2.352-2.592V90.28c0-1.744-.976-2.592-2.352-2.592s-2.352.848-2.352 2.592v1.184c0 1.744.976 2.592 2.352 2.592zm7.12.944h-1.28v-8.256h1.28v1.344h.064c.368-.848.944-1.536 2.224-1.536 1.088 0 2.08.496 2.528 1.68h.032c.304-.896 1.104-1.68 2.512-1.68 1.68 0 2.688 1.152 2.688 3.152V95h-1.28v-5.072c0-1.456-.56-2.224-1.808-2.224-1.008 0-1.936.512-1.936 1.568V95h-1.28v-5.072c0-1.472-.56-2.224-1.776-2.224-1.008 0-1.968.512-1.968 1.568V95zm13.328-10.192c-.544 0-.784-.288-.784-.72v-.208c0-.432.24-.72.784-.72s.784.288.784.72v.208c0 .432-.24.72-.784.72zM301.776 95v-8.256h1.28V95h-1.28zm5.28 0h-1.28v-8.256h1.28v1.344h.064c.4-.928 1.104-1.536 2.336-1.536 1.696 0 2.768 1.152 2.768 3.152V95h-1.28v-5.072c0-1.472-.64-2.224-1.872-2.224-1.024 0-2.016.512-2.016 1.568V95zm14.768.912c0 1.696-1.344 2.48-4 2.48-2.576 0-3.632-.736-3.632-2.032 0-.896.496-1.376 1.312-1.6v-.176c-.464-.224-.736-.592-.736-1.152 0-.832.592-1.232 1.424-1.44v-.064c-.976-.464-1.552-1.376-1.552-2.528 0-1.68 1.232-2.848 3.104-2.848.592 0 1.12.112 1.568.32v-.144c0-.64.272-1.104.96-1.104h1.232v1.12h-1.568v.528c.592.512.944 1.248.944 2.128 0 1.68-1.232 2.848-3.12 2.848-.272 0-.56-.032-.8-.08-.544.144-1.088.416-1.088.928 0 .496.512.624 1.264.624h1.76c2.048 0 2.928.832 2.928 2.192zm-1.2.096c0-.656-.432-1.088-1.712-1.088h-2.752c-.528.24-.768.608-.768 1.12 0 .72.496 1.312 1.792 1.312h1.184c1.424 0 2.256-.448 2.256-1.344zm-2.864-4.784c1.088 0 1.776-.512 1.776-1.6v-.448c0-1.088-.688-1.6-1.776-1.6s-1.776.512-1.776 1.6v.448c0 1.088.688 1.6 1.776 1.6zM28.784 119h-1.6c-.88 0-1.36-.56-1.36-1.36v-5.776h-1.36v-1.12h.768c.544 0 .72-.192.72-.752v-1.536h1.152v2.288h1.808v1.12h-1.808v6.016h1.68V119zm5.248.192c-2.208 0-3.728-1.696-3.728-4.32 0-2.624 1.52-4.32 3.728-4.32s3.728 1.696 3.728 4.32c0 2.624-1.52 4.32-3.728 4.32zm0-1.136c1.376 0 2.352-.848 2.352-2.592v-1.184c0-1.744-.976-2.592-2.352-2.592s-2.352.848-2.352 2.592v1.184c0 1.744.976 2.592 2.352 2.592zm9.616.944v-11.84h1.28v4.928h.064c.432-1.04 1.28-1.536 2.416-1.536 2.064 0 3.36 1.68 3.36 4.32 0 2.64-1.296 4.32-3.36 4.32-1.136 0-1.92-.512-2.416-1.536h-.064V119h-1.28zm3.408-.96c1.44 0 2.336-.992 2.336-2.464v-1.408c0-1.472-.896-2.464-2.336-2.464-1.168 0-2.128.672-2.128 1.584v3.072c0 1.072.96 1.68 2.128 1.68zm8.976 1.152c-2.24 0-3.712-1.696-3.712-4.32 0-2.624 1.472-4.32 3.712-4.32 2.208 0 3.568 1.696 3.568 4.032v.608h-5.936v.384c0 1.424.912 2.496 2.448 2.496 1.04 0 1.84-.512 2.272-1.424l.912.656c-.528 1.12-1.712 1.888-3.264 1.888zm0-7.568c-1.392 0-2.368 1.056-2.368 2.496v.112h4.56v-.176c0-1.456-.88-2.432-2.192-2.432zM65.136 119h-1.6c-.88 0-1.36-.56-1.36-1.36v-5.776h-1.36v-1.12h.768c.544 0 .72-.192.72-.752v-1.536h1.152v2.288h1.808v1.12h-1.808v6.016h1.68V119zm5.472 0h-1.6c-.88 0-1.36-.56-1.36-1.36v-5.776h-1.36v-1.12h.768c.544 0 .72-.192.72-.752v-1.536h1.152v2.288h1.808v1.12h-1.808v6.016h1.68V119zm5.232.192c-2.24 0-3.712-1.696-3.712-4.32 0-2.624 1.472-4.32 3.712-4.32 2.208 0 3.568 1.696 3.568 4.032v.608h-5.936v.384c0 1.424.912 2.496 2.448 2.496 1.04 0 1.84-.512 2.272-1.424l.912.656c-.528 1.12-1.712 1.888-3.264 1.888zm0-7.568c-1.392 0-2.368 1.056-2.368 2.496v.112h4.56v-.176c0-1.456-.88-2.432-2.192-2.432zM82.8 119h-1.28v-8.256h1.28v1.52h.08c.288-.784 1.04-1.52 2.384-1.52h.496v1.28h-.752c-1.376 0-2.208.592-2.208 1.376v5.6zm10.848.192c-1.52 0-2.528-.64-3.264-1.616l.912-.736c.64.8 1.408 1.264 2.448 1.264 1.088 0 1.728-.496 1.728-1.344 0-.64-.352-1.136-1.44-1.296l-.656-.096c-1.52-.224-2.656-.848-2.656-2.384 0-1.632 1.264-2.432 2.944-2.432 1.328 0 2.208.496 2.88 1.328l-.848.768c-.368-.512-1.072-1.008-2.128-1.008s-1.616.496-1.616 1.28c0 .8.56 1.12 1.584 1.28l.64.096c1.824.272 2.528 1.072 2.528 2.32 0 1.6-1.168 2.576-3.056 2.576zm8.432 0c-2.208 0-3.728-1.696-3.728-4.32 0-2.624 1.52-4.32 3.728-4.32s3.728 1.696 3.728 4.32c0 2.624-1.52 4.32-3.728 4.32zm0-1.136c1.376 0 2.352-.848 2.352-2.592v-1.184c0-1.744-.976-2.592-2.352-2.592s-2.352.848-2.352 2.592v1.184c0 1.744.976 2.592 2.352 2.592zm8.336.944h-1.136c-.88 0-1.36-.56-1.36-1.328V107.16h1.28v10.72h1.216V119zm6.944 0v-1.344h-.064c-.32.784-.944 1.536-2.32 1.536-1.696 0-2.784-1.152-2.784-3.152v-5.296h1.28v5.072c0 1.472.656 2.224 1.888 2.224 1.008 0 2-.496 2-1.584v-5.712h1.28V119h-1.28zm7.424 0h-1.6c-.88 0-1.36-.56-1.36-1.36v-5.776h-1.36v-1.12h.768c.544 0 .72-.192.72-.752v-1.536h1.152v2.288h1.808v1.12h-1.808v6.016h1.68V119zm2.832-10.192c-.544 0-.784-.288-.784-.72v-.208c0-.432.24-.72.784-.72s.784.288.784.72v.208c0 .432-.24.72-.784.72zm-.64 10.192v-8.256h1.28V119h-1.28zm7.12.192c-2.208 0-3.728-1.696-3.728-4.32 0-2.624 1.52-4.32 3.728-4.32s3.728 1.696 3.728 4.32c0 2.624-1.52 4.32-3.728 4.32zm0-1.136c1.376 0 2.352-.848 2.352-2.592v-1.184c0-1.744-.976-2.592-2.352-2.592s-2.352.848-2.352 2.592v1.184c0 1.744.976 2.592 2.352 2.592zm7.12.944h-1.28v-8.256h1.28v1.344h.064c.4-.928 1.104-1.536 2.336-1.536 1.696 0 2.768 1.152 2.768 3.152V119h-1.28v-5.072c0-1.472-.64-2.224-1.872-2.224-1.024 0-2.016.512-2.016 1.568V119zm10.288.192c-1.52 0-2.528-.64-3.264-1.616l.912-.736c.64.8 1.408 1.264 2.448 1.264 1.088 0 1.728-.496 1.728-1.344 0-.64-.352-1.136-1.44-1.296l-.656-.096c-1.52-.224-2.656-.848-2.656-2.384 0-1.632 1.264-2.432 2.944-2.432 1.328 0 2.208.496 2.88 1.328l-.848.768c-.368-.512-1.072-1.008-2.128-1.008s-1.616.496-1.616 1.28c0 .8.56 1.12 1.584 1.28l.64.096c1.824.272 2.528 1.072 2.528 2.32 0 1.6-1.168 2.576-3.056 2.576zm9.728-10.384c-.544 0-.784-.288-.784-.72v-.208c0-.432.24-.72.784-.72s.784.288.784.72v.208c0 .432-.24.72-.784.72zm-.64 10.192v-8.256h1.28V119h-1.28zm5.28 0h-1.28v-8.256h1.28v1.344h.064c.4-.928 1.104-1.536 2.336-1.536 1.696 0 2.768 1.152 2.768 3.152V119h-1.28v-5.072c0-1.472-.64-2.224-1.872-2.224-1.024 0-2.016.512-2.016 1.568V119zm14.08 0h-1.136c-.88 0-1.36-.56-1.36-1.328V107.16h1.28v10.72h1.216V119zm4.96.192c-2.24 0-3.712-1.696-3.712-4.32 0-2.624 1.472-4.32 3.712-4.32 2.208 0 3.568 1.696 3.568 4.032v.608h-5.936v.384c0 1.424.912 2.496 2.448 2.496 1.04 0 1.84-.512 2.272-1.424l.912.656c-.528 1.12-1.712 1.888-3.264 1.888zm0-7.568c-1.392 0-2.368 1.056-2.368 2.496v.112h4.56v-.176c0-1.456-.88-2.432-2.192-2.432zm8.16 7.568c-1.52 0-2.528-.64-3.264-1.616l.912-.736c.64.8 1.408 1.264 2.448 1.264 1.088 0 1.728-.496 1.728-1.344 0-.64-.352-1.136-1.44-1.296l-.656-.096c-1.52-.224-2.656-.848-2.656-2.384 0-1.632 1.264-2.432 2.944-2.432 1.328 0 2.208.496 2.88 1.328l-.848.768c-.368-.512-1.072-1.008-2.128-1.008s-1.616.496-1.616 1.28c0 .8.56 1.12 1.584 1.28l.64.096c1.824.272 2.528 1.072 2.528 2.32 0 1.6-1.168 2.576-3.056 2.576zm7.696 0c-1.52 0-2.528-.64-3.264-1.616l.912-.736c.64.8 1.408 1.264 2.448 1.264 1.088 0 1.728-.496 1.728-1.344 0-.64-.352-1.136-1.44-1.296l-.656-.096c-1.52-.224-2.656-.848-2.656-2.384 0-1.632 1.264-2.432 2.944-2.432 1.328 0 2.208.496 2.88 1.328l-.848.768c-.368-.512-1.072-1.008-2.128-1.008s-1.616.496-1.616 1.28c0 .8.56 1.12 1.584 1.28l.64.096c1.824.272 2.528 1.072 2.528 2.32 0 1.6-1.168 2.576-3.056 2.576zM213.28 119h-1.6c-.88 0-1.36-.56-1.36-1.36v-5.776h-1.36v-1.12h.768c.544 0 .72-.192.72-.752v-1.536h1.152v2.288h1.808v1.12H211.6v6.016h1.68V119zm2.832-10.192c-.544 0-.784-.288-.784-.72v-.208c0-.432.24-.72.784-.72s.784.288.784.72v.208c0 .432-.24.72-.784.72zm-.64 10.192v-8.256h1.28V119h-1.28zm5.28 0h-1.28v-8.256h1.28v1.344h.064c.368-.848.944-1.536 2.224-1.536 1.088 0 2.08.496 2.528 1.68h.032c.304-.896 1.104-1.68 2.512-1.68 1.68 0 2.688 1.152 2.688 3.152V119h-1.28v-5.072c0-1.456-.56-2.224-1.808-2.224-1.008 0-1.936.512-1.936 1.568V119h-1.28v-5.072c0-1.472-.56-2.224-1.776-2.224-1.008 0-1.968.512-1.968 1.568V119zm15.792.192c-2.24 0-3.712-1.696-3.712-4.32 0-2.624 1.472-4.32 3.712-4.32 2.208 0 3.568 1.696 3.568 4.032v.608h-5.936v.384c0 1.424.912 2.496 2.448 2.496 1.04 0 1.84-.512 2.272-1.424l.912.656c-.528 1.12-1.712 1.888-3.264 1.888zm0-7.568c-1.392 0-2.368 1.056-2.368 2.496v.112h4.56v-.176c0-1.456-.88-2.432-2.192-2.432zm6.176 7.568c-.672 0-.976-.384-.976-.928v-.208c0-.544.304-.928.976-.928.672 0 .976.384.976.928v.208c0 .544-.304.928-.976.928zm11.392-.192h-4.48v-1.12h1.568v-8.928h-1.568v-1.12h4.48v1.12h-1.568v8.928h1.568V119zm2.448 0v-11.168h4.592c1.84 0 2.976 1.136 2.976 2.88 0 1.664-1.072 2.256-1.808 2.368v.096c.8.048 2.192.736 2.192 2.592 0 1.84-1.232 3.232-2.88 3.232h-5.072zm1.344-5.184v4h3.312c1.152 0 1.856-.608 1.856-1.728v-.544c0-1.12-.704-1.728-1.856-1.728h-3.312zm0-4.8v3.648h3.088c1.056 0 1.696-.56 1.696-1.552v-.544c0-.992-.64-1.552-1.696-1.552h-3.088zm9.104 9.984v-11.168h1.792l3.2 6.016h.08l3.216-6.016h1.728V119h-1.312v-9.408h-.08l-.944 1.872-2.672 4.864-2.672-4.864-.944-1.872h-.08V119h-1.312zm16.64 0v-11.84h1.28v4.928h.064c.4-.928 1.104-1.536 2.336-1.536 1.696 0 2.768 1.152 2.768 3.152V119h-1.28v-5.072c0-1.472-.64-2.224-1.872-2.224-1.024 0-2.016.512-2.016 1.568V119h-1.28zm15.808 0h-.72c-.944 0-1.328-.576-1.424-1.344h-.08c-.352 1.008-1.232 1.536-2.384 1.536-1.744 0-2.768-.96-2.768-2.496 0-1.552 1.12-2.416 3.52-2.416h1.632v-.816c0-1.168-.64-1.808-1.952-1.808-.992 0-1.648.48-2.096 1.232l-.768-.72c.448-.88 1.44-1.616 2.928-1.616 1.984 0 3.168 1.04 3.168 2.784v4.544h.944V119zm-4.4-.896c1.264 0 2.176-.656 2.176-1.504v-1.36h-1.696c-1.456 0-2.112.448-2.112 1.248v.336c0 .816.64 1.28 1.632 1.28zm8.704 1.088c-1.52 0-2.528-.64-3.264-1.616l.912-.736c.64.8 1.408 1.264 2.448 1.264 1.088 0 1.728-.496 1.728-1.344 0-.64-.352-1.136-1.44-1.296l-.656-.096c-1.52-.224-2.656-.848-2.656-2.384 0-1.632 1.264-2.432 2.944-2.432 1.328 0 2.208.496 2.88 1.328l-.848.768c-.368-.512-1.072-1.008-2.128-1.008s-1.616.496-1.616 1.28c0 .8.56 1.12 1.584 1.28l.64.096c1.824.272 2.528 1.072 2.528 2.32 0 1.6-1.168 2.576-3.056 2.576zM26.64 143h-1.28v-8.256h1.28v1.52h.08c.288-.784 1.04-1.52 2.384-1.52h.496v1.28h-.752c-1.376 0-2.208.592-2.208 1.376v5.6zm7.616.192c-2.24 0-3.712-1.696-3.712-4.32 0-2.624 1.472-4.32 3.712-4.32 2.208 0 3.568 1.696 3.568 4.032v.608h-5.936v.384c0 1.424.912 2.496 2.448 2.496 1.04 0 1.84-.512 2.272-1.424l.912.656c-.528 1.12-1.712 1.888-3.264 1.888zm0-7.568c-1.392 0-2.368 1.056-2.368 2.496v.112h4.56v-.176c0-1.456-.88-2.432-2.192-2.432zm13.312 3.12h-8.256v-1.216h8.256v1.216zm5.2 4.448c-2.24 0-3.712-1.696-3.712-4.32 0-2.624 1.472-4.32 3.712-4.32 2.208 0 3.568 1.696 3.568 4.032v.608H50.4v.384c0 1.424.912 2.496 2.448 2.496 1.04 0 1.84-.512 2.272-1.424l.912.656c-.528 1.12-1.712 1.888-3.264 1.888zm0-7.568c-1.392 0-2.368 1.056-2.368 2.496v.112h4.56v-.176c0-1.456-.88-2.432-2.192-2.432zm6.96 7.376h-1.28v-8.256h1.28v1.344h.064c.4-.928 1.104-1.536 2.336-1.536 1.696 0 2.768 1.152 2.768 3.152V143h-1.28v-5.072c0-1.472-.64-2.224-1.872-2.224-1.024 0-2.016.512-2.016 1.568V143zm10.992 0h-1.488l-2.896-8.256h1.28l1.44 4.096.896 2.816h.08l.896-2.816 1.472-4.096h1.232L70.72 143zm5.2-10.192c-.544 0-.784-.288-.784-.72v-.208c0-.432.24-.72.784-.72s.784.288.784.72v.208c0 .432-.24.72-.784.72zM75.28 143v-8.256h1.28V143h-1.28zm6.48.192c-1.52 0-2.528-.64-3.264-1.616l.912-.736c.64.8 1.408 1.264 2.448 1.264 1.088 0 1.728-.496 1.728-1.344 0-.64-.352-1.136-1.44-1.296l-.656-.096c-1.52-.224-2.656-.848-2.656-2.384 0-1.632 1.264-2.432 2.944-2.432 1.328 0 2.208.496 2.88 1.328l-.848.768c-.368-.512-1.072-1.008-2.128-1.008s-1.616.496-1.616 1.28c0 .8.56 1.12 1.584 1.28l.64.096c1.824.272 2.528 1.072 2.528 2.32 0 1.6-1.168 2.576-3.056 2.576zm5.952-10.384c-.544 0-.784-.288-.784-.72v-.208c0-.432.24-.72.784-.72s.784.288.784.72v.208c0 .432-.24.72-.784.72zM87.072 143v-8.256h1.28V143h-1.28zm7.12.192c-2.208 0-3.728-1.696-3.728-4.32 0-2.624 1.52-4.32 3.728-4.32s3.728 1.696 3.728 4.32c0 2.624-1.52 4.32-3.728 4.32zm0-1.136c1.376 0 2.352-.848 2.352-2.592v-1.184c0-1.744-.976-2.592-2.352-2.592s-2.352.848-2.352 2.592v1.184c0 1.744.976 2.592 2.352 2.592zm7.12.944h-1.28v-8.256h1.28v1.344h.064c.4-.928 1.104-1.536 2.336-1.536 1.696 0 2.768 1.152 2.768 3.152V143h-1.28v-5.072c0-1.472-.64-2.224-1.872-2.224-1.024 0-2.016.512-2.016 1.568V143zm10.912.192c-2.24 0-3.712-1.696-3.712-4.32 0-2.624 1.472-4.32 3.712-4.32 2.208 0 3.568 1.696 3.568 4.032v.608h-5.936v.384c0 1.424.912 2.496 2.448 2.496 1.04 0 1.84-.512 2.272-1.424l.912.656c-.528 1.12-1.712 1.888-3.264 1.888zm0-7.568c-1.392 0-2.368 1.056-2.368 2.496v.112h4.56v-.176c0-1.456-.88-2.432-2.192-2.432zm10.96 7.376v-1.344h-.064c-.496 1.024-1.28 1.536-2.416 1.536-2.064 0-3.36-1.68-3.36-4.32 0-2.64 1.296-4.32 3.36-4.32 1.136 0 1.984.496 2.416 1.536h.064v-4.928h1.28V143h-1.28zm-2.128-.96c1.168 0 2.128-.608 2.128-1.68v-3.072c0-.912-.96-1.584-2.128-1.584-1.44 0-2.336.992-2.336 2.464v1.408c0 1.472.896 2.464 2.336 2.464zm15.184.96v-1.344h-.064c-.496 1.024-1.28 1.536-2.416 1.536-2.064 0-3.36-1.68-3.36-4.32 0-2.64 1.296-4.32 3.36-4.32 1.136 0 1.984.496 2.416 1.536h.064v-4.928h1.28V143h-1.28zm-2.128-.96c1.168 0 2.128-.608 2.128-1.68v-3.072c0-.912-.96-1.584-2.128-1.584-1.44 0-2.336.992-2.336 2.464v1.408c0 1.472.896 2.464 2.336 2.464zm9.232 1.152c-2.24 0-3.712-1.696-3.712-4.32 0-2.624 1.472-4.32 3.712-4.32 2.208 0 3.568 1.696 3.568 4.032v.608h-5.936v.384c0 1.424.912 2.496 2.448 2.496 1.04 0 1.84-.512 2.272-1.424l.912.656c-.528 1.12-1.712 1.888-3.264 1.888zm0-7.568c-1.392 0-2.368 1.056-2.368 2.496v.112h4.56v-.176c0-1.456-.88-2.432-2.192-2.432zm8.16 7.568c-1.52 0-2.528-.64-3.264-1.616l.912-.736c.64.8 1.408 1.264 2.448 1.264 1.088 0 1.728-.496 1.728-1.344 0-.64-.352-1.136-1.44-1.296l-.656-.096c-1.52-.224-2.656-.848-2.656-2.384 0-1.632 1.264-2.432 2.944-2.432 1.328 0 2.208.496 2.88 1.328l-.848.768c-.368-.512-1.072-1.008-2.128-1.008s-1.616.496-1.616 1.28c0 .8.56 1.12 1.584 1.28l.64.096c1.824.272 2.528 1.072 2.528 2.32 0 1.6-1.168 2.576-3.056 2.576zm5.952-10.384c-.544 0-.784-.288-.784-.72v-.208c0-.432.24-.72.784-.72s.784.288.784.72v.208c0 .432-.24.72-.784.72zm-.64 10.192v-8.256h1.28V143h-1.28zm10.96.912c0 1.696-1.344 2.48-4 2.48-2.576 0-3.632-.736-3.632-2.032 0-.896.496-1.376 1.312-1.6v-.176c-.464-.224-.736-.592-.736-1.152 0-.832.592-1.232 1.424-1.44v-.064c-.976-.464-1.552-1.376-1.552-2.528 0-1.68 1.232-2.848 3.104-2.848.592 0 1.12.112 1.568.32v-.144c0-.64.272-1.104.96-1.104h1.232v1.12h-1.568v.528c.592.512.944 1.248.944 2.128 0 1.68-1.232 2.848-3.12 2.848-.272 0-.56-.032-.8-.08-.544.144-1.088.416-1.088.928 0 .496.512.624 1.264.624h1.76c2.048 0 2.928.832 2.928 2.192zm-1.2.096c0-.656-.432-1.088-1.712-1.088h-2.752c-.528.24-.768.608-.768 1.12 0 .72.496 1.312 1.792 1.312h1.184c1.424 0 2.256-.448 2.256-1.344zm-2.864-4.784c1.088 0 1.776-.512 1.776-1.6v-.448c0-1.088-.688-1.6-1.776-1.6s-1.776.512-1.776 1.6v.448c0 1.088.688 1.6 1.776 1.6zm6.832 3.776h-1.28v-8.256h1.28v1.344h.064c.4-.928 1.104-1.536 2.336-1.536 1.696 0 2.768 1.152 2.768 3.152V143h-1.28v-5.072c0-1.472-.64-2.224-1.872-2.224-1.024 0-2.016.512-2.016 1.568V143zm15.008 0h-1.6c-.88 0-1.36-.56-1.36-1.36v-5.776h-1.36v-1.12H182c.544 0 .72-.192.72-.752v-1.536h1.152v2.288h1.808v1.12h-1.808v6.016h1.68V143zm2.192 0v-11.84h1.28v4.928h.064c.4-.928 1.104-1.536 2.336-1.536 1.696 0 2.768 1.152 2.768 3.152V143h-1.28v-5.072c0-1.472-.64-2.224-1.872-2.224-1.024 0-2.016.512-2.016 1.568V143h-1.28zm9.728-10.192c-.544 0-.784-.288-.784-.72v-.208c0-.432.24-.72.784-.72s.784.288.784.72v.208c0 .432-.24.72-.784.72zm-.64 10.192v-8.256h1.28V143h-1.28zm5.28 0h-1.28v-8.256h1.28v1.344h.064c.4-.928 1.104-1.536 2.336-1.536 1.696 0 2.768 1.152 2.768 3.152V143H206v-5.072c0-1.472-.64-2.224-1.872-2.224-1.024 0-2.016.512-2.016 1.568V143zm7.808 0v-11.84h1.28v7.504h.064l1.264-1.408 2.336-2.512h1.552l-3.056 3.264 3.36 4.992h-1.552l-2.736-4.208-1.232 1.264V143h-1.28zm9.072-10.192c-.544 0-.784-.288-.784-.72v-.208c0-.432.24-.72.784-.72s.784.288.784.72v.208c0 .432-.24.72-.784.72zm-.64 10.192v-8.256h1.28V143h-1.28zm5.28 0h-1.28v-8.256h1.28v1.344h.064c.4-.928 1.104-1.536 2.336-1.536 1.696 0 2.768 1.152 2.768 3.152V143h-1.28v-5.072c0-1.472-.64-2.224-1.872-2.224-1.024 0-2.016.512-2.016 1.568V143zm14.768.912c0 1.696-1.344 2.48-4 2.48-2.576 0-3.632-.736-3.632-2.032 0-.896.496-1.376 1.312-1.6v-.176c-.464-.224-.736-.592-.736-1.152 0-.832.592-1.232 1.424-1.44v-.064c-.976-.464-1.552-1.376-1.552-2.528 0-1.68 1.232-2.848 3.104-2.848.592 0 1.12.112 1.568.32v-.144c0-.64.272-1.104.96-1.104h1.232v1.12h-1.568v.528c.592.512.944 1.248.944 2.128 0 1.68-1.232 2.848-3.12 2.848-.272 0-.56-.032-.8-.08-.544.144-1.088.416-1.088.928 0 .496.512.624 1.264.624h1.76c2.048 0 2.928.832 2.928 2.192zm-1.2.096c0-.656-.432-1.088-1.712-1.088h-2.752c-.528.24-.768.608-.768 1.12 0 .72.496 1.312 1.792 1.312h1.184c1.424 0 2.256-.448 2.256-1.344zm-2.864-4.784c1.088 0 1.776-.512 1.776-1.6v-.448c0-1.088-.688-1.6-1.776-1.6s-1.776.512-1.776 1.6v.448c0 1.088.688 1.6 1.776 1.6zm6.576 1.904c.672 0 .976.384.976.944v.224c0 .864-.544 2.048-1.456 2.832h-1.072c.64-.672 1.024-1.232 1.2-1.984-.432-.096-.624-.416-.624-.848v-.224c0-.56.304-.944.976-.944zm10.384 2.064c-2.32 0-3.68-1.68-3.68-4.32 0-2.64 1.36-4.32 3.68-4.32 1.632 0 2.608.8 3.088 1.936l-1.072.544c-.304-.848-1.008-1.344-2.016-1.344-1.52 0-2.304 1.04-2.304 2.48v1.408c0 1.44.784 2.48 2.304 2.48 1.04 0 1.792-.496 2.24-1.44l.928.624c-.528 1.184-1.6 1.952-3.168 1.952zm6.256-.192h-1.28v-8.256h1.28v1.52h.08c.288-.784 1.04-1.52 2.384-1.52h.496v1.28h-.752c-1.376 0-2.208.592-2.208 1.376v5.6zm7.616.192c-2.24 0-3.712-1.696-3.712-4.32 0-2.624 1.472-4.32 3.712-4.32 2.208 0 3.568 1.696 3.568 4.032v.608H262.8v.384c0 1.424.912 2.496 2.448 2.496 1.04 0 1.84-.512 2.272-1.424l.912.656c-.528 1.12-1.712 1.888-3.264 1.888zm0-7.568c-1.392 0-2.368 1.056-2.368 2.496v.112h4.56v-.176c0-1.456-.88-2.432-2.192-2.432zm12.4 7.376h-.72c-.944 0-1.328-.576-1.424-1.344h-.08c-.352 1.008-1.232 1.536-2.384 1.536-1.744 0-2.768-.96-2.768-2.496 0-1.552 1.12-2.416 3.52-2.416h1.632v-.816c0-1.168-.64-1.808-1.952-1.808-.992 0-1.648.48-2.096 1.232l-.768-.72c.448-.88 1.44-1.616 2.928-1.616 1.984 0 3.168 1.04 3.168 2.784v4.544h.944V143zm-4.4-.896c1.264 0 2.176-.656 2.176-1.504v-1.36h-1.696c-1.456 0-2.112.448-2.112 1.248v.336c0 .816.64 1.28 1.632 1.28zm9.648.896h-1.6c-.88 0-1.36-.56-1.36-1.36v-5.776h-1.36v-1.12h.768c.544 0 .72-.192.72-.752v-1.536h1.152v2.288h1.808v1.12h-1.808v6.016h1.68V143zm5.232.192c-2.24 0-3.712-1.696-3.712-4.32 0-2.624 1.472-4.32 3.712-4.32 2.208 0 3.568 1.696 3.568 4.032v.608h-5.936v.384c0 1.424.912 2.496 2.448 2.496 1.04 0 1.84-.512 2.272-1.424l.912.656c-.528 1.12-1.712 1.888-3.264 1.888zm0-7.568c-1.392 0-2.368 1.056-2.368 2.496v.112h4.56v-.176c0-1.456-.88-2.432-2.192-2.432zm10.96 7.376v-1.344h-.064c-.496 1.024-1.28 1.536-2.416 1.536-2.064 0-3.36-1.68-3.36-4.32 0-2.64 1.296-4.32 3.36-4.32 1.136 0 1.984.496 2.416 1.536h.064v-4.928h1.28V143h-1.28zm-2.128-.96c1.168 0 2.128-.608 2.128-1.68v-3.072c0-.912-.96-1.584-2.128-1.584-1.44 0-2.336.992-2.336 2.464v1.408c0 1.472.896 2.464 2.336 2.464zm16.624.96h-.72c-.944 0-1.328-.576-1.424-1.344h-.08c-.352 1.008-1.232 1.536-2.384 1.536-1.744 0-2.768-.96-2.768-2.496 0-1.552 1.12-2.416 3.52-2.416h1.632v-.816c0-1.168-.64-1.808-1.952-1.808-.992 0-1.648.48-2.096 1.232l-.768-.72c.448-.88 1.44-1.616 2.928-1.616 1.984 0 3.168 1.04 3.168 2.784v4.544h.944V143zm-4.4-.896c1.264 0 2.176-.656 2.176-1.504v-1.36h-1.696c-1.456 0-2.112.448-2.112 1.248v.336c0 .816.64 1.28 1.632 1.28zM25.808 167v-7.136h-1.344v-1.12h1.344v-1.664c0-1.136.592-1.92 1.808-1.92h1.248v1.12h-1.776v2.464h1.776v1.12h-1.776V167h-1.28zm6.016 0h-1.28v-8.256h1.28v1.52h.08c.288-.784 1.04-1.52 2.384-1.52h.496v1.28h-.752c-1.376 0-2.208.592-2.208 1.376v5.6zm11.248 0h-.72c-.944 0-1.328-.576-1.424-1.344h-.08c-.352 1.008-1.232 1.536-2.384 1.536-1.744 0-2.768-.96-2.768-2.496 0-1.552 1.12-2.416 3.52-2.416h1.632v-.816c0-1.168-.64-1.808-1.952-1.808-.992 0-1.648.48-2.096 1.232l-.768-.72c.448-.88 1.44-1.616 2.928-1.616 1.984 0 3.168 1.04 3.168 2.784v4.544h.944V167zm-4.4-.896c1.264 0 2.176-.656 2.176-1.504v-1.36h-1.696c-1.456 0-2.112.448-2.112 1.248v.336c0 .816.64 1.28 1.632 1.28zm7.504.896h-1.28v-8.256h1.28v1.344h.064c.368-.848.944-1.536 2.224-1.536 1.088 0 2.08.496 2.528 1.68h.032c.304-.896 1.104-1.68 2.512-1.68 1.68 0 2.688 1.152 2.688 3.152V167h-1.28v-5.072c0-1.456-.56-2.224-1.808-2.224-1.008 0-1.936.512-1.936 1.568V167h-1.28v-5.072c0-1.472-.56-2.224-1.776-2.224-1.008 0-1.968.512-1.968 1.568V167zm15.792.192c-2.24 0-3.712-1.696-3.712-4.32 0-2.624 1.472-4.32 3.712-4.32 2.208 0 3.568 1.696 3.568 4.032v.608H59.6v.384c0 1.424.912 2.496 2.448 2.496 1.04 0 1.84-.512 2.272-1.424l.912.656c-.528 1.12-1.712 1.888-3.264 1.888zm0-7.568c-1.392 0-2.368 1.056-2.368 2.496v.112h4.56v-.176c0-1.456-.88-2.432-2.192-2.432zM68.912 167l-2.208-8.256h1.248l.88 3.568.88 3.616h.032l1.008-3.616 1.04-3.568h1.136L74 162.312l1.024 3.616h.032l.848-3.616.896-3.568H78L75.808 167h-1.584l-1.152-3.968-.72-2.512h-.032l-.704 2.512L70.464 167h-1.552zm13.984.192c-2.208 0-3.728-1.696-3.728-4.32 0-2.624 1.52-4.32 3.728-4.32s3.728 1.696 3.728 4.32c0 2.624-1.52 4.32-3.728 4.32zm0-1.136c1.376 0 2.352-.848 2.352-2.592v-1.184c0-1.744-.976-2.592-2.352-2.592s-2.352.848-2.352 2.592v1.184c0 1.744.976 2.592 2.352 2.592zm7.12.944h-1.28v-8.256h1.28v1.52h.08c.288-.784 1.04-1.52 2.384-1.52h.496v1.28h-.752c-1.376 0-2.208.592-2.208 1.376v5.6zm4.592 0v-11.84h1.28v7.504h.064l1.264-1.408 2.336-2.512h1.552l-3.056 3.264 3.36 4.992h-1.552l-2.736-4.208-1.232 1.264V167h-1.28zm12.656 0v-7.136h-1.344v-1.12h1.344v-1.664c0-1.136.592-1.92 1.808-1.92h1.248v1.12h-1.776v2.464h1.776v1.12h-1.776V167h-1.28zm7.792.192c-2.208 0-3.728-1.696-3.728-4.32 0-2.624 1.52-4.32 3.728-4.32s3.728 1.696 3.728 4.32c0 2.624-1.52 4.32-3.728 4.32zm0-1.136c1.376 0 2.352-.848 2.352-2.592v-1.184c0-1.744-.976-2.592-2.352-2.592s-2.352.848-2.352 2.592v1.184c0 1.744.976 2.592 2.352 2.592zm7.12.944h-1.28v-8.256h1.28v1.52h.08c.288-.784 1.04-1.52 2.384-1.52h.496v1.28h-.752c-1.376 0-2.208.592-2.208 1.376v5.6zm10.848.192c-1.52 0-2.528-.64-3.264-1.616l.912-.736c.64.8 1.408 1.264 2.448 1.264 1.088 0 1.728-.496 1.728-1.344 0-.64-.352-1.136-1.44-1.296l-.656-.096c-1.52-.224-2.656-.848-2.656-2.384 0-1.632 1.264-2.432 2.944-2.432 1.328 0 2.208.496 2.88 1.328l-.848.768c-.368-.512-1.072-1.008-2.128-1.008s-1.616.496-1.616 1.28c0 .8.56 1.12 1.584 1.28l.64.096c1.824.272 2.528 1.072 2.528 2.32 0 1.6-1.168 2.576-3.056 2.576zm5.312 3.008v-11.456h1.28v1.344h.064c.432-1.04 1.28-1.536 2.416-1.536 2.064 0 3.36 1.68 3.36 4.32 0 2.64-1.296 4.32-3.36 4.32-1.136 0-1.92-.512-2.416-1.536h-.064v4.544h-1.28zm3.408-4.16c1.44 0 2.336-.992 2.336-2.464v-1.408c0-1.472-.896-2.464-2.336-2.464-1.168 0-2.128.672-2.128 1.584v3.072c0 1.072.96 1.68 2.128 1.68zm8.976 1.152c-2.24 0-3.712-1.696-3.712-4.32 0-2.624 1.472-4.32 3.712-4.32 2.208 0 3.568 1.696 3.568 4.032v.608h-5.936v.384c0 1.424.912 2.496 2.448 2.496 1.04 0 1.84-.512 2.272-1.424l.912.656c-.528 1.12-1.712 1.888-3.264 1.888zm0-7.568c-1.392 0-2.368 1.056-2.368 2.496v.112h4.56v-.176c0-1.456-.88-2.432-2.192-2.432zm8.784 7.568c-2.24 0-3.712-1.696-3.712-4.32 0-2.624 1.472-4.32 3.712-4.32 2.208 0 3.568 1.696 3.568 4.032v.608h-5.936v.384c0 1.424.912 2.496 2.448 2.496 1.04 0 1.84-.512 2.272-1.424l.912.656c-.528 1.12-1.712 1.888-3.264 1.888zm0-7.568c-1.392 0-2.368 1.056-2.368 2.496v.112h4.56v-.176c0-1.456-.88-2.432-2.192-2.432zm10.96 7.376v-1.344h-.064c-.496 1.024-1.28 1.536-2.416 1.536-2.064 0-3.36-1.68-3.36-4.32 0-2.64 1.296-4.32 3.36-4.32 1.136 0 1.984.496 2.416 1.536h.064v-4.928h1.28V167h-1.28zm-2.128-.96c1.168 0 2.128-.608 2.128-1.68v-3.072c0-.912-.96-1.584-2.128-1.584-1.44 0-2.336.992-2.336 2.464v1.408c0 1.472.896 2.464 2.336 2.464zm16.624.96h-.72c-.944 0-1.328-.576-1.424-1.344h-.08c-.352 1.008-1.232 1.536-2.384 1.536-1.744 0-2.768-.96-2.768-2.496 0-1.552 1.12-2.416 3.52-2.416h1.632v-.816c0-1.168-.64-1.808-1.952-1.808-.992 0-1.648.48-2.096 1.232l-.768-.72c.448-.88 1.44-1.616 2.928-1.616 1.984 0 3.168 1.04 3.168 2.784v4.544h.944V167zm-4.4-.896c1.264 0 2.176-.656 2.176-1.504v-1.36h-1.696c-1.456 0-2.112.448-2.112 1.248v.336c0 .816.64 1.28 1.632 1.28zm7.504.896h-1.28v-8.256h1.28v1.344h.064c.4-.928 1.104-1.536 2.336-1.536 1.696 0 2.768 1.152 2.768 3.152V167h-1.28v-5.072c0-1.472-.64-2.224-1.872-2.224-1.024 0-2.016.512-2.016 1.568V167zm13.088 0v-1.344h-.064c-.496 1.024-1.28 1.536-2.416 1.536-2.064 0-3.36-1.68-3.36-4.32 0-2.64 1.296-4.32 3.36-4.32 1.136 0 1.984.496 2.416 1.536h.064v-4.928h1.28V167h-1.28zm-2.128-.96c1.168 0 2.128-.608 2.128-1.68v-3.072c0-.912-.96-1.584-2.128-1.584-1.44 0-2.336.992-2.336 2.464v1.408c0 1.472.896 2.464 2.336 2.464zm12.384 1.152c-1.52 0-2.528-.64-3.264-1.616l.912-.736c.64.8 1.408 1.264 2.448 1.264 1.088 0 1.728-.496 1.728-1.344 0-.64-.352-1.136-1.44-1.296l-.656-.096c-1.52-.224-2.656-.848-2.656-2.384 0-1.632 1.264-2.432 2.944-2.432 1.328 0 2.208.496 2.88 1.328l-.848.768c-.368-.512-1.072-1.008-2.128-1.008s-1.616.496-1.616 1.28c0 .8.56 1.12 1.584 1.28l.64.096c1.824.272 2.528 1.072 2.528 2.32 0 1.6-1.168 2.576-3.056 2.576zm8.384 0c-2.32 0-3.68-1.68-3.68-4.32 0-2.64 1.36-4.32 3.68-4.32 1.632 0 2.608.8 3.088 1.936l-1.072.544c-.304-.848-1.008-1.344-2.016-1.344-1.52 0-2.304 1.04-2.304 2.48v1.408c0 1.44.784 2.48 2.304 2.48 1.04 0 1.792-.496 2.24-1.44l.928.624c-.528 1.184-1.6 1.952-3.168 1.952zm11.696-.192h-.72c-.944 0-1.328-.576-1.424-1.344h-.08c-.352 1.008-1.232 1.536-2.384 1.536-1.744 0-2.768-.96-2.768-2.496 0-1.552 1.12-2.416 3.52-2.416h1.632v-.816c0-1.168-.64-1.808-1.952-1.808-.992 0-1.648.48-2.096 1.232l-.768-.72c.448-.88 1.44-1.616 2.928-1.616 1.984 0 3.168 1.04 3.168 2.784v4.544h.944V167zm-4.4-.896c1.264 0 2.176-.656 2.176-1.504v-1.36h-1.696c-1.456 0-2.112.448-2.112 1.248v.336c0 .816.64 1.28 1.632 1.28zm8.72.896h-1.136c-.88 0-1.36-.56-1.36-1.328V155.16h1.28v10.72h1.216V167zm4.96.192c-2.24 0-3.712-1.696-3.712-4.32 0-2.624 1.472-4.32 3.712-4.32 2.208 0 3.568 1.696 3.568 4.032v.608H238.4v.384c0 1.424.912 2.496 2.448 2.496 1.04 0 1.84-.512 2.272-1.424l.912.656c-.528 1.12-1.712 1.888-3.264 1.888zm0-7.568c-1.392 0-2.368 1.056-2.368 2.496v.112h4.56v-.176c0-1.456-.88-2.432-2.192-2.432zm12.576 7.568c-2.208 0-3.728-1.696-3.728-4.32 0-2.624 1.52-4.32 3.728-4.32s3.728 1.696 3.728 4.32c0 2.624-1.52 4.32-3.728 4.32zm0-1.136c1.376 0 2.352-.848 2.352-2.592v-1.184c0-1.744-.976-2.592-2.352-2.592s-2.352.848-2.352 2.592v1.184c0 1.744.976 2.592 2.352 2.592zm6.192.944v-7.136h-1.344v-1.12h1.344v-1.664c0-1.136.592-1.92 1.808-1.92h1.248v1.12h-1.776v2.464h1.776v1.12h-1.776V167h-1.28zm15.232 0h-.72c-.944 0-1.328-.576-1.424-1.344h-.08c-.352 1.008-1.232 1.536-2.384 1.536-1.744 0-2.768-.96-2.768-2.496 0-1.552 1.12-2.416 3.52-2.416h1.632v-.816c0-1.168-.64-1.808-1.952-1.808-.992 0-1.648.48-2.096 1.232l-.768-.72c.448-.88 1.44-1.616 2.928-1.616 1.984 0 3.168 1.04 3.168 2.784v4.544h.944V167zm-4.4-.896c1.264 0 2.176-.656 2.176-1.504v-1.36h-1.696c-1.456 0-2.112.448-2.112 1.248v.336c0 .816.64 1.28 1.632 1.28zm12.496.896h-1.136c-.88 0-1.36-.56-1.36-1.328V155.16h1.28v10.72h1.216V167zm8.576 0h-.72c-.944 0-1.328-.576-1.424-1.344h-.08c-.352 1.008-1.232 1.536-2.384 1.536-1.744 0-2.768-.96-2.768-2.496 0-1.552 1.12-2.416 3.52-2.416h1.632v-.816c0-1.168-.64-1.808-1.952-1.808-.992 0-1.648.48-2.096 1.232l-.768-.72c.448-.88 1.44-1.616 2.928-1.616 1.984 0 3.168 1.04 3.168 2.784v4.544h.944V167zm-4.4-.896c1.264 0 2.176-.656 2.176-1.504v-1.36h-1.696c-1.456 0-2.112.448-2.112 1.248v.336c0 .816.64 1.28 1.632 1.28zm7.504.896h-1.28v-8.256h1.28v1.52h.08c.288-.784 1.04-1.52 2.384-1.52h.496v1.28h-.752c-1.376 0-2.208.592-2.208 1.376v5.6zm11.184.912c0 1.696-1.344 2.48-4 2.48-2.576 0-3.632-.736-3.632-2.032 0-.896.496-1.376 1.312-1.6v-.176c-.464-.224-.736-.592-.736-1.152 0-.832.592-1.232 1.424-1.44v-.064c-.976-.464-1.552-1.376-1.552-2.528 0-1.68 1.232-2.848 3.104-2.848.592 0 1.12.112 1.568.32v-.144c0-.64.272-1.104.96-1.104h1.232v1.12h-1.568v.528c.592.512.944 1.248.944 2.128 0 1.68-1.232 2.848-3.12 2.848-.272 0-.56-.032-.8-.08-.544.144-1.088.416-1.088.928 0 .496.512.624 1.264.624h1.76c2.048 0 2.928.832 2.928 2.192zm-1.2.096c0-.656-.432-1.088-1.712-1.088h-2.752c-.528.24-.768.608-.768 1.12 0 .72.496 1.312 1.792 1.312h1.184c1.424 0 2.256-.448 2.256-1.344zm-2.864-4.784c1.088 0 1.776-.512 1.776-1.6v-.448c0-1.088-.688-1.6-1.776-1.6s-1.776.512-1.776 1.6v.448c0 1.088.688 1.6 1.776 1.6zm8.56 3.968c-2.24 0-3.712-1.696-3.712-4.32 0-2.624 1.472-4.32 3.712-4.32 2.208 0 3.568 1.696 3.568 4.032v.608h-5.936v.384c0 1.424.912 2.496 2.448 2.496 1.04 0 1.84-.512 2.272-1.424l.912.656c-.528 1.12-1.712 1.888-3.264 1.888zm0-7.568c-1.392 0-2.368 1.056-2.368 2.496v.112h4.56v-.176c0-1.456-.88-2.432-2.192-2.432zM27.84 191.192c-1.52 0-2.528-.64-3.264-1.616l.912-.736c.64.8 1.408 1.264 2.448 1.264 1.088 0 1.728-.496 1.728-1.344 0-.64-.352-1.136-1.44-1.296l-.656-.096c-1.52-.224-2.656-.848-2.656-2.384 0-1.632 1.264-2.432 2.944-2.432 1.328 0 2.208.496 2.88 1.328l-.848.768c-.368-.512-1.072-1.008-2.128-1.008s-1.616.496-1.616 1.28c0 .8.56 1.12 1.584 1.28l.64.096c1.824.272 2.528 1.072 2.528 2.32 0 1.6-1.168 2.576-3.056 2.576zm8.384 0c-2.32 0-3.68-1.68-3.68-4.32 0-2.64 1.36-4.32 3.68-4.32 1.632 0 2.608.8 3.088 1.936l-1.072.544c-.304-.848-1.008-1.344-2.016-1.344-1.52 0-2.304 1.04-2.304 2.48v1.408c0 1.44.784 2.48 2.304 2.48 1.04 0 1.792-.496 2.24-1.44l.928.624c-.528 1.184-1.6 1.952-3.168 1.952zM47.92 191h-.72c-.944 0-1.328-.576-1.424-1.344h-.08c-.352 1.008-1.232 1.536-2.384 1.536-1.744 0-2.768-.96-2.768-2.496 0-1.552 1.12-2.416 3.52-2.416h1.632v-.816c0-1.168-.64-1.808-1.952-1.808-.992 0-1.648.48-2.096 1.232l-.768-.72c.448-.88 1.44-1.616 2.928-1.616 1.984 0 3.168 1.04 3.168 2.784v4.544h.944V191zm-4.4-.896c1.264 0 2.176-.656 2.176-1.504v-1.36H44c-1.456 0-2.112.448-2.112 1.248v.336c0 .816.64 1.28 1.632 1.28zm8.72.896h-1.136c-.88 0-1.36-.56-1.36-1.328V179.16h1.28v10.72h1.216V191zm4.96.192c-2.24 0-3.712-1.696-3.712-4.32 0-2.624 1.472-4.32 3.712-4.32 2.208 0 3.568 1.696 3.568 4.032v.608h-5.936v.384c0 1.424.912 2.496 2.448 2.496 1.04 0 1.84-.512 2.272-1.424l.912.656c-.528 1.12-1.712 1.888-3.264 1.888zm0-7.568c-1.392 0-2.368 1.056-2.368 2.496v.112h4.56v-.176c0-1.456-.88-2.432-2.192-2.432zM67.936 191h-1.28v-8.256h1.28v1.344H68c.368-.848.944-1.536 2.224-1.536 1.088 0 2.08.496 2.528 1.68h.032c.304-.896 1.104-1.68 2.512-1.68 1.68 0 2.688 1.152 2.688 3.152V191h-1.28v-5.072c0-1.456-.56-2.224-1.808-2.224-1.008 0-1.936.512-1.936 1.568V191h-1.28v-5.072c0-1.472-.56-2.224-1.776-2.224-1.008 0-1.968.512-1.968 1.568V191zm15.808.192c-2.208 0-3.728-1.696-3.728-4.32 0-2.624 1.52-4.32 3.728-4.32s3.728 1.696 3.728 4.32c0 2.624-1.52 4.32-3.728 4.32zm0-1.136c1.376 0 2.352-.848 2.352-2.592v-1.184c0-1.744-.976-2.592-2.352-2.592s-2.352.848-2.352 2.592v1.184c0 1.744.976 2.592 2.352 2.592zm11.12.944v-1.344H94.8c-.496 1.024-1.28 1.536-2.416 1.536-2.064 0-3.36-1.68-3.36-4.32 0-2.64 1.296-4.32 3.36-4.32 1.136 0 1.984.496 2.416 1.536h.064v-4.928h1.28V191h-1.28zm-2.128-.96c1.168 0 2.128-.608 2.128-1.68v-3.072c0-.912-.96-1.584-2.128-1.584-1.44 0-2.336.992-2.336 2.464v1.408c0 1.472.896 2.464 2.336 2.464zm9.232 1.152c-2.24 0-3.712-1.696-3.712-4.32 0-2.624 1.472-4.32 3.712-4.32 2.208 0 3.568 1.696 3.568 4.032v.608H99.6v.384c0 1.424.912 2.496 2.448 2.496 1.04 0 1.84-.512 2.272-1.424l.912.656c-.528 1.12-1.712 1.888-3.264 1.888zm0-7.568c-1.392 0-2.368 1.056-2.368 2.496v.112h4.56v-.176c0-1.456-.88-2.432-2.192-2.432zm6.96 7.376h-1.28v-8.256h1.28v1.52h.08c.288-.784 1.04-1.52 2.384-1.52h.496v1.28h-.752c-1.376 0-2.208.592-2.208 1.376v5.6zm5.872 0h-1.28v-8.256h1.28v1.344h.064c.4-.928 1.104-1.536 2.336-1.536 1.696 0 2.768 1.152 2.768 3.152V191h-1.28v-5.072c0-1.472-.64-2.224-1.872-2.224-1.024 0-2.016.512-2.016 1.568V191zm14.688.192c-2.24 0-3.712-1.696-3.712-4.32 0-2.624 1.472-4.32 3.712-4.32 2.208 0 3.568 1.696 3.568 4.032v.608h-5.936v.384c0 1.424.912 2.496 2.448 2.496 1.04 0 1.84-.512 2.272-1.424l.912.656c-.528 1.12-1.712 1.888-3.264 1.888zm0-7.568c-1.392 0-2.368 1.056-2.368 2.496v.112h4.56v-.176c0-1.456-.88-2.432-2.192-2.432zm6.96 7.376h-1.28v-8.256h1.28v1.344h.064c.4-.928 1.104-1.536 2.336-1.536 1.696 0 2.768 1.152 2.768 3.152V191h-1.28v-5.072c0-1.472-.64-2.224-1.872-2.224-1.024 0-2.016.512-2.016 1.568V191zm11.232 0h-1.6c-.88 0-1.36-.56-1.36-1.36v-5.776h-1.36v-1.12h.768c.544 0 .72-.192.72-.752v-1.536H146v2.288h1.808v1.12H146v6.016h1.68V191zm5.232.192c-2.24 0-3.712-1.696-3.712-4.32 0-2.624 1.472-4.32 3.712-4.32 2.208 0 3.568 1.696 3.568 4.032v.608h-5.936v.384c0 1.424.912 2.496 2.448 2.496 1.04 0 1.84-.512 2.272-1.424l.912.656c-.528 1.12-1.712 1.888-3.264 1.888zm0-7.568c-1.392 0-2.368 1.056-2.368 2.496v.112h4.56v-.176c0-1.456-.88-2.432-2.192-2.432zm6.96 7.376h-1.28v-8.256h1.28v1.52h.08c.288-.784 1.04-1.52 2.384-1.52h.496v1.28h-.752c-1.376 0-2.208.592-2.208 1.376v5.6zm4.592 3.2v-11.456h1.28v1.344h.064c.432-1.04 1.28-1.536 2.416-1.536 2.064 0 3.36 1.68 3.36 4.32 0 2.64-1.296 4.32-3.36 4.32-1.136 0-1.92-.512-2.416-1.536h-.064v4.544h-1.28zm3.408-4.16c1.44 0 2.336-.992 2.336-2.464v-1.408c0-1.472-.896-2.464-2.336-2.464-1.168 0-2.128.672-2.128 1.584v3.072c0 1.072.96 1.68 2.128 1.68zm7.152.96h-1.28v-8.256h1.28v1.52h.08c.288-.784 1.04-1.52 2.384-1.52h.496v1.28h-.752c-1.376 0-2.208.592-2.208 1.376v5.6zm5.232-10.192c-.544 0-.784-.288-.784-.72v-.208c0-.432.24-.72.784-.72s.784.288.784.72v.208c0 .432-.24.72-.784.72zm-.64 10.192v-8.256h1.28V191h-1.28zm6.48.192c-1.52 0-2.528-.64-3.264-1.616l.912-.736c.64.8 1.408 1.264 2.448 1.264 1.088 0 1.728-.496 1.728-1.344 0-.64-.352-1.136-1.44-1.296l-.656-.096c-1.52-.224-2.656-.848-2.656-2.384 0-1.632 1.264-2.432 2.944-2.432 1.328 0 2.208.496 2.88 1.328l-.848.768c-.368-.512-1.072-1.008-2.128-1.008s-1.616.496-1.616 1.28c0 .8.56 1.12 1.584 1.28l.64.096c1.824.272 2.528 1.072 2.528 2.32 0 1.6-1.168 2.576-3.056 2.576zm8.416 0c-2.24 0-3.712-1.696-3.712-4.32 0-2.624 1.472-4.32 3.712-4.32 2.208 0 3.568 1.696 3.568 4.032v.608h-5.936v.384c0 1.424.912 2.496 2.448 2.496 1.04 0 1.84-.512 2.272-1.424l.912.656c-.528 1.12-1.712 1.888-3.264 1.888zm0-7.568c-1.392 0-2.368 1.056-2.368 2.496v.112h4.56v-.176c0-1.456-.88-2.432-2.192-2.432zm6.176 7.568c-.672 0-.976-.384-.976-.928v-.208c0-.544.304-.928.976-.928.672 0 .976.384.976.928v.208c0 .544-.304.928-.976.928z" fill="#3D3D3D"/></g></svg>