<?xml version="1.0" encoding="utf-8"?>
<!-- Generator: Adobe Illustrator 20.0.0, SVG Export Plug-In . SVG Version: 6.00 Build 0)  -->
<svg version="1.0" id="Layer_1" xmlns="http://www.w3.org/2000/svg" xmlns:xlink="http://www.w3.org/1999/xlink" x="0px" y="0px"
	 width="464px" height="464px" viewBox="0 0 464 464" style="enable-background:new 0 0 464 464;" xml:space="preserve">
<style type="text/css">
	.st0{fill:#FFFFFF;}
</style>
<title>Rectangle Copy 5</title>
<desc>Created with Sketch.</desc>
<g>
	<g>
		<g>
			<path id="SVGID_1_" class="st0" d="M225.7,212.4c3.1,0,5.7-2.5,5.7-5.7s-2.5-5.7-5.7-5.7c-3.1,0-5.7,2.5-5.7,5.7
				S222.6,212.4,225.7,212.4"/>
		</g>
	</g>
	<g>
		<g>
			<path id="SVGID_3_" class="st0" d="M239.9,212.4c3.1,0,5.7-2.5,5.7-5.7s-2.5-5.7-5.7-5.7c-3.1,0-5.7,2.5-5.7,5.7
				S236.8,212.4,239.9,212.4"/>
		</g>
	</g>
	<g>
		<g>
			<path id="SVGID_5_" class="st0" d="M201.3,228.5c-3.9,1.7-6.7,4.8-6.7,9.5c0,5.5,4.5,9.9,9.9,9.9c5.2,0,8.3-3.6,9.6-7.3l6.5-20.6
				L201.3,228.5z"/>
		</g>
	</g>
	<g>
		<g>
			<path id="SVGID_7_" class="st0" d="M264.3,228.5l-19.2-8.5l6.5,20.6c1.2,3.7,4.3,7.3,9.6,7.3l0,0c5.5,0,9.9-4.5,9.9-9.9
				C271.1,233.3,268.2,230.3,264.3,228.5"/>
		</g>
	</g>
	<g>
		<g>
			<path id="SVGID_9_" class="st0" d="M221.7,221.9h22.2c-2-4.2-6.2-7.1-11.1-7.1C227.9,214.8,223.7,217.7,221.7,221.9"/>
		</g>
	</g>
	<g>
		<g>
			<rect id="SVGID_11_" x="220.5" y="227.6" class="st0" width="24.6" height="6.6"/>
		</g>
	</g>
	<g>
		<g>
			<rect id="SVGID_13_" x="220.5" y="239.9" class="st0" width="24.6" height="6.6"/>
		</g>
	</g>
	<g>
		<g>
			<path id="SVGID_15_" class="st0" d="M232.8,259.2c4.9,0,9.1-2.9,11.1-7.1h-22.2C223.7,256.3,227.9,259.2,232.8,259.2"/>
		</g>
	</g>
</g>
<g>
	<g>
		<g>
			<path id="SVGID_17_" class="st0" d="M232.9,180c4.1,0,7.5-3.4,7.5-7.5c0-4.2-3.3-7.5-7.5-7.5c-4.1,0-7.5,3.4-7.5,7.5
				S228.7,180,232.9,180"/>
		</g>
	</g>
	<g>
		<g>
			<path id="SVGID_19_" class="st0" d="M232.9,193.2c13.4,0,25-8.6,29.9-20.8c-4.9-12.2-16.5-20.8-29.9-20.8s-25,8.6-29.9,20.8
				C207.9,184.6,219.4,193.2,232.9,193.2 M232.9,155.4c9.3,0,16.8,7.6,16.8,17s-7.5,17-16.8,17s-16.8-7.6-16.8-17
				C216,163,223.6,155.4,232.9,155.4"/>
		</g>
	</g>
	<g>
		<g>
			<path id="SVGID_21_" class="st0" d="M232.9,142.2c11.3,0,21.3,5.1,28,13.2v-5.7c-5.6-10.2-16.1-17-28-17c-12,0-22.4,6.8-28,17
				v5.7C211.5,147.4,221.6,142.2,232.9,142.2"/>
		</g>
	</g>
</g>
<g>
	<g>
		<g>
			<g>
				<g>
					<rect id="SVGID_23_" x="202" y="318" class="st0" width="19.3" height="3.5"/>
				</g>
			</g>
			<g>
				<g>
					<rect id="SVGID_25_" x="202" y="310.5" class="st0" width="19.3" height="3.5"/>
				</g>
			</g>
			<g>
				<g>
					<rect id="SVGID_27_" x="209.7" y="303.1" class="st0" width="11.6" height="3.5"/>
				</g>
			</g>
			<g>
				<g>
					<rect id="SVGID_29_" x="209.7" y="295.7" class="st0" width="11.6" height="3.5"/>
				</g>
			</g>
			<g>
				<g>
					<rect id="SVGID_31_" x="244.4" y="318" class="st0" width="19.3" height="3.5"/>
				</g>
			</g>
			<g>
				<g>
					<rect id="SVGID_33_" x="244.4" y="310.5" class="st0" width="19.3" height="3.5"/>
				</g>
			</g>
			<g>
				<g>
					<rect id="SVGID_35_" x="244.4" y="303.1" class="st0" width="11.6" height="3.5"/>
				</g>
			</g>
			<g>
				<g>
					<rect id="SVGID_37_" x="244.4" y="295.7" class="st0" width="11.6" height="3.5"/>
				</g>
			</g>
			<g>
				<g>
					<polygon id="SVGID_39_" class="st0" points="244.4,291.8 255.9,291.8 255.9,288.3 244.4,288.3 234.3,288.3 233.1,291.8 
						243.2,291.8 244.4,288.4 					"/>
				</g>
			</g>
			<g>
				<g>
					<polygon id="SVGID_41_" class="st0" points="231.4,288.3 221.3,288.3 209.7,288.3 209.7,291.8 221.3,291.8 221.3,288.4 
						222.5,291.8 232.6,291.8 					"/>
				</g>
			</g>
			<g>
				<g>
					<polygon id="SVGID_43_" class="st0" points="255.9,280.8 236.8,280.8 235.6,284.4 255.9,284.4 					"/>
				</g>
			</g>
			<g>
				<g>
					<polygon id="SVGID_45_" class="st0" points="240.7,269.5 263.6,269.5 263.6,266 241.9,266 					"/>
				</g>
			</g>
			<g>
				<g>
					<polygon id="SVGID_47_" class="st0" points="232.8,321.5 234.1,318 231.6,318 					"/>
				</g>
			</g>
			<g>
				<g>
					<polygon id="SVGID_49_" class="st0" points="230.2,314.1 235.4,314.1 236.7,310.5 229,310.5 					"/>
				</g>
			</g>
			<g>
				<g>
					<polygon id="SVGID_51_" class="st0" points="227.6,306.6 238,306.6 239.3,303.1 226.4,303.1 					"/>
				</g>
			</g>
			<g>
				<g>
					<polygon id="SVGID_53_" class="st0" points="225,299.2 240.6,299.2 241.8,295.7 223.8,295.7 					"/>
				</g>
			</g>
			<g>
				<g>
					<polygon id="SVGID_55_" class="st0" points="228.8,280.8 209.7,280.8 209.7,284.4 230,284.4 					"/>
				</g>
			</g>
			<g>
				<g>
					<polygon id="SVGID_57_" class="st0" points="238.2,276.9 263.6,276.9 263.6,273.4 239.4,273.4 					"/>
				</g>
			</g>
			<g>
				<g>
					<polygon id="SVGID_59_" class="st0" points="202,276.9 227.5,276.9 226.3,273.4 202,273.4 					"/>
				</g>
			</g>
			<g>
				<g>
					<polygon id="SVGID_61_" class="st0" points="202,266 202,269.5 224.9,269.5 223.7,266 					"/>
				</g>
			</g>
		</g>
	</g>
</g>
</svg>
