<svg id="Layer_1" data-name="Layer 1" xmlns="http://www.w3.org/2000/svg" viewBox="0 0 288 288"><defs><style>.cls-1{fill:#fff}.cls-2{fill:#e9f0ff}.cls-3{fill:#6ea2ff}.cls-4{fill:none;stroke:#6ea2ff;stroke-miterlimit:10}</style></defs><path class="cls-1" d="M-.16.02h288v288h-288z"/><path class="cls-1" d="M101.17 16.02h85.33v256h-85.33z"/><path class="cls-2" d="M101.17 140.66h85.33v6.72h-85.33zm0-124.64h85.33v6.72h-85.33zm0 249.29h85.33v6.72h-85.33z"/><path class="cls-2" d="M101.17 16.02h6.72v256h-6.72z"/><path class="cls-2" d="M101.17 171.82h85.33v6.72h-85.33z"/><path class="cls-2" transform="rotate(180 183.145 144.025)" d="M179.78 16.02h6.72v256h-6.72z"/><path class="cls-2" d="M101.17 109.5h85.33v6.72h-85.33z"/><path class="cls-3" d="M101.17 141.78h2.24v2.24h-2.24zm2.24 2.24h2.24v2.24h-2.24zm2.24-2.24h2.24v2.24h-2.24z"/><path class="cls-2" d="M101.17 78.34h85.33v6.72h-85.33z"/><path class="cls-3" transform="rotate(180 185.385 142.905)" d="M184.26 141.78h2.24v2.24h-2.24z"/><path class="cls-3" transform="rotate(180 183.145 145.145)" d="M182.02 144.02h2.24v2.24h-2.24z"/><path class="cls-3" transform="rotate(180 180.905 142.905)" d="M179.78 141.78h2.24v2.24h-2.24z"/><path class="cls-2" d="M101.17 202.98h85.33v6.72h-85.33zm0-155.8h85.33v6.72h-85.33zm0 186.96h85.33v6.72h-85.33z"/><path class="cls-4" d="M101.17 81.7h85.33m-85.33 124.64h85.33m-85.33 31.16h85.33m-85.33-62.32h85.33m-85.33-62.32h85.33m-78.61 31.16h71.89m-78.61-93.48h85.33m-78.61 93.48h71.89"/><path class="cls-2" transform="rotate(90 143.835 144.025)" d="M22.56 140.66h242.56v6.72H22.56z"/><path class="cls-3" d="M141.6 16.02h2.24v2.24h-2.24zm2.24 2.24h2.24v2.24h-2.24zm-2.24 2.24h2.24v2.24h-2.24zm0 244.81h2.24v2.24h-2.24zm2.24 2.23h2.24v2.24h-2.24zm-2.24 2.24h2.24v2.24h-2.24z"/><path class="cls-4" d="M101.17 16.02h85.33v256h-85.33zm6.72 256v-256m71.89 256v-256m-78.61 6.72h85.33m-85.33 242.57h85.33m-42.66 0V22.74"/><path class="cls-2" d="M140.48 233.03h6.72v8.96h-6.72z"/><path class="cls-3" d="M141.6 234.14h2.24v2.24h-2.24zm2.24 2.24h2.24v2.24h-2.24zm-2.24 2.24h2.24v2.24h-2.24z"/><path class="cls-2" d="M140.48 201.87h6.72v8.96h-6.72z"/><path class="cls-3" d="M141.6 202.98h2.24v2.24h-2.24zm2.24 2.24h2.24v2.24h-2.24zm-2.24 2.24h2.24v2.24h-2.24z"/><path class="cls-2" d="M140.48 170.71h6.72v8.96h-6.72z"/><path class="cls-3" d="M141.6 171.82h2.24v2.24h-2.24zm2.24 2.24h2.24v2.24h-2.24zm-2.24 2.24h2.24v2.24h-2.24z"/><path class="cls-2" transform="rotate(90 143.835 144.025)" d="M140.48 139.55h6.72v8.96h-6.72z"/><path class="cls-3" transform="rotate(90 146.08 142.9)" d="M144.96 141.78h2.24v2.24h-2.24z"/><path class="cls-3" transform="rotate(90 143.84 145.14)" d="M142.72 144.02h2.24v2.24h-2.24z"/><path class="cls-3" transform="rotate(90 141.6 142.9)" d="M140.48 141.78h2.24v2.24h-2.24z"/><path class="cls-2" d="M140.48 108.39h6.72v8.96h-6.72z"/><path class="cls-3" d="M141.6 109.5h2.24v2.24h-2.24zm2.24 2.24h2.24v2.24h-2.24zm-2.24 2.24h2.24v2.24h-2.24z"/><path class="cls-2" d="M140.48 77.23h6.72v8.96h-6.72z"/><path class="cls-3" d="M141.6 78.34h2.24v2.24h-2.24zm2.24 2.24h2.24v2.24h-2.24zm-2.24 2.24h2.24v2.24h-2.24z"/><path class="cls-2" d="M140.48 46.07h6.72v8.96h-6.72z"/><path class="cls-3" d="M141.6 47.18h2.24v2.24h-2.24zm2.24 2.24h2.24v2.24h-2.24zm-2.24 2.24h2.24v2.24h-2.24z"/></svg>