<?xml version="1.0" encoding="UTF-8"?>
<svg width="928px" height="304px" viewBox="0 0 928 304" version="1.1" xmlns="http://www.w3.org/2000/svg" xmlns:xlink="http://www.w3.org/1999/xlink">
    <!-- Generator: Sketch 51.2 (57519) - http://www.bohemiancoding.com/sketch -->
    <title>Group 25</title>
    <desc>Created with Sketch.</desc>
    <defs></defs>
    <g id="Page-1" stroke="none" stroke-width="1" fill="none" fill-rule="evenodd">
        <g id="Type-Basics-Copy" transform="translate(-352.000000, -5716.000000)">
            <g id="Group-25" transform="translate(352.000000, 5716.000000)">
                <rect id="Rectangle-16-Copy-174" fill="#FFFFFF" x="0" y="0" width="928" height="304"></rect>
                <path d="M70.84,88 L70.84,79.152 L60.956,79.152 L60.956,88 L58.604,88 L58.604,68.456 L60.956,68.456 L60.956,77.08 L70.84,77.08 L70.84,68.456 L73.192,68.456 L73.192,88 L70.84,88 Z M83.636,88.336 C79.772,88.336 77.112,85.368 77.112,80.776 C77.112,76.184 79.772,73.216 83.636,73.216 C87.5,73.216 90.16,76.184 90.16,80.776 C90.16,85.368 87.5,88.336 83.636,88.336 Z M83.636,86.348 C86.044,86.348 87.752,84.864 87.752,81.812 L87.752,79.74 C87.752,76.688 86.044,75.204 83.636,75.204 C81.228,75.204 79.52,76.688 79.52,79.74 L79.52,81.812 C79.52,84.864 81.228,86.348 83.636,86.348 Z M96.068,88 L92.204,73.552 L94.388,73.552 L95.928,79.796 L97.468,86.124 L97.524,86.124 L99.288,79.796 L101.108,73.552 L103.096,73.552 L104.972,79.796 L106.764,86.124 L106.82,86.124 L108.304,79.796 L109.872,73.552 L111.972,73.552 L108.136,88 L105.364,88 L103.348,81.056 L102.088,76.66 L102.032,76.66 L100.8,81.056 L98.784,88 L96.068,88 Z M127.204,88.336 C123.144,88.336 120.764,85.396 120.764,80.776 C120.764,76.156 123.144,73.216 127.204,73.216 C130.06,73.216 131.768,74.616 132.608,76.604 L130.732,77.556 C130.2,76.072 128.968,75.204 127.204,75.204 C124.544,75.204 123.172,77.024 123.172,79.544 L123.172,82.008 C123.172,84.528 124.544,86.348 127.204,86.348 C129.024,86.348 130.34,85.48 131.124,83.828 L132.748,84.92 C131.824,86.992 129.948,88.336 127.204,88.336 Z M147.672,88 L146.412,88 C144.76,88 144.088,86.992 143.92,85.648 L143.78,85.648 C143.164,87.412 141.624,88.336 139.608,88.336 C136.556,88.336 134.764,86.656 134.764,83.968 C134.764,81.252 136.724,79.74 140.924,79.74 L143.78,79.74 L143.78,78.312 C143.78,76.268 142.66,75.148 140.364,75.148 C138.628,75.148 137.48,75.988 136.696,77.304 L135.352,76.044 C136.136,74.504 137.872,73.216 140.476,73.216 C143.948,73.216 146.02,75.036 146.02,78.088 L146.02,86.04 L147.672,86.04 L147.672,88 Z M139.972,86.432 C142.184,86.432 143.78,85.284 143.78,83.8 L143.78,81.42 L140.812,81.42 C138.264,81.42 137.116,82.204 137.116,83.604 L137.116,84.192 C137.116,85.62 138.236,86.432 139.972,86.432 Z M153.104,88 L150.864,88 L150.864,73.552 L153.104,73.552 L153.104,75.904 L153.216,75.904 C153.916,74.28 155.148,73.216 157.304,73.216 C160.272,73.216 162.148,75.232 162.148,78.732 L162.148,88 L159.908,88 L159.908,79.124 C159.908,76.548 158.788,75.232 156.632,75.232 C154.84,75.232 153.104,76.128 153.104,77.976 L153.104,88 Z M178.836,88.336 C174.972,88.336 172.312,85.368 172.312,80.776 C172.312,76.184 174.972,73.216 178.836,73.216 C182.7,73.216 185.36,76.184 185.36,80.776 C185.36,85.368 182.7,88.336 178.836,88.336 Z M178.836,86.348 C181.244,86.348 182.952,84.864 182.952,81.812 L182.952,79.74 C182.952,76.688 181.244,75.204 178.836,75.204 C176.428,75.204 174.72,76.688 174.72,79.74 L174.72,81.812 C174.72,84.864 176.428,86.348 178.836,86.348 Z M191.296,88 L189.056,88 L189.056,73.552 L191.296,73.552 L191.296,76.212 L191.436,76.212 C191.94,74.84 193.256,73.552 195.608,73.552 L196.476,73.552 L196.476,75.792 L195.16,75.792 C192.752,75.792 191.296,76.828 191.296,78.2 L191.296,88 Z M210.868,89.596 C210.868,92.564 208.516,93.936 203.868,93.936 C199.36,93.936 197.512,92.648 197.512,90.38 C197.512,88.812 198.38,87.972 199.808,87.58 L199.808,87.272 C198.996,86.88 198.52,86.236 198.52,85.256 C198.52,83.8 199.556,83.1 201.012,82.736 L201.012,82.624 C199.304,81.812 198.296,80.216 198.296,78.2 C198.296,75.26 200.452,73.216 203.728,73.216 C204.764,73.216 205.688,73.412 206.472,73.776 L206.472,73.524 C206.472,72.404 206.948,71.592 208.152,71.592 L210.308,71.592 L210.308,73.552 L207.564,73.552 L207.564,74.476 C208.6,75.372 209.216,76.66 209.216,78.2 C209.216,81.14 207.06,83.184 203.756,83.184 C203.28,83.184 202.776,83.128 202.356,83.044 C201.404,83.296 200.452,83.772 200.452,84.668 C200.452,85.536 201.348,85.76 202.664,85.76 L205.744,85.76 C209.328,85.76 210.868,87.216 210.868,89.596 Z M208.768,89.764 C208.768,88.616 208.012,87.86 205.772,87.86 L200.956,87.86 C200.032,88.28 199.612,88.924 199.612,89.82 C199.612,91.08 200.48,92.116 202.748,92.116 L204.82,92.116 C207.312,92.116 208.768,91.332 208.768,89.764 Z M203.756,81.392 C205.66,81.392 206.864,80.496 206.864,78.592 L206.864,77.808 C206.864,75.904 205.66,75.008 203.756,75.008 C201.852,75.008 200.648,75.904 200.648,77.808 L200.648,78.592 C200.648,80.496 201.852,81.392 203.756,81.392 Z M225.148,88 L223.888,88 C222.236,88 221.564,86.992 221.396,85.648 L221.256,85.648 C220.64,87.412 219.1,88.336 217.084,88.336 C214.032,88.336 212.24,86.656 212.24,83.968 C212.24,81.252 214.2,79.74 218.4,79.74 L221.256,79.74 L221.256,78.312 C221.256,76.268 220.136,75.148 217.84,75.148 C216.104,75.148 214.956,75.988 214.172,77.304 L212.828,76.044 C213.612,74.504 215.348,73.216 217.952,73.216 C221.424,73.216 223.496,75.036 223.496,78.088 L223.496,86.04 L225.148,86.04 L225.148,88 Z M217.448,86.432 C219.66,86.432 221.256,85.284 221.256,83.8 L221.256,81.42 L218.288,81.42 C215.74,81.42 214.592,82.204 214.592,83.604 L214.592,84.192 C214.592,85.62 215.712,86.432 217.448,86.432 Z M230.58,88 L228.34,88 L228.34,73.552 L230.58,73.552 L230.58,75.904 L230.692,75.904 C231.392,74.28 232.624,73.216 234.78,73.216 C237.748,73.216 239.624,75.232 239.624,78.732 L239.624,88 L237.384,88 L237.384,79.124 C237.384,76.548 236.264,75.232 234.108,75.232 C232.316,75.232 230.58,76.128 230.58,77.976 L230.58,88 Z M245.364,70.164 C244.412,70.164 243.992,69.66 243.992,68.904 L243.992,68.54 C243.992,67.784 244.412,67.28 245.364,67.28 C246.316,67.28 246.736,67.784 246.736,68.54 L246.736,68.904 C246.736,69.66 246.316,70.164 245.364,70.164 Z M244.244,88 L244.244,73.552 L246.484,73.552 L246.484,88 L244.244,88 Z M260.932,88 L249.788,88 L249.788,86.124 L257.992,75.512 L250.04,75.512 L250.04,73.552 L260.708,73.552 L260.708,75.232 L252.336,86.04 L260.932,86.04 L260.932,88 Z M275.996,88 L274.736,88 C273.084,88 272.412,86.992 272.244,85.648 L272.104,85.648 C271.488,87.412 269.948,88.336 267.932,88.336 C264.88,88.336 263.088,86.656 263.088,83.968 C263.088,81.252 265.048,79.74 269.248,79.74 L272.104,79.74 L272.104,78.312 C272.104,76.268 270.984,75.148 268.688,75.148 C266.952,75.148 265.804,75.988 265.02,77.304 L263.676,76.044 C264.46,74.504 266.196,73.216 268.8,73.216 C272.272,73.216 274.344,75.036 274.344,78.088 L274.344,86.04 L275.996,86.04 L275.996,88 Z M268.296,86.432 C270.508,86.432 272.104,85.284 272.104,83.8 L272.104,81.42 L269.136,81.42 C266.588,81.42 265.44,82.204 265.44,83.604 L265.44,84.192 C265.44,85.62 266.56,86.432 268.296,86.432 Z M285.18,88 L282.38,88 C280.84,88 280,87.02 280,85.62 L280,75.512 L277.62,75.512 L277.62,73.552 L278.964,73.552 C279.916,73.552 280.224,73.216 280.224,72.236 L280.224,69.548 L282.24,69.548 L282.24,73.552 L285.404,73.552 L285.404,75.512 L282.24,75.512 L282.24,86.04 L285.18,86.04 L285.18,88 Z M290.136,70.164 C289.184,70.164 288.764,69.66 288.764,68.904 L288.764,68.54 C288.764,67.784 289.184,67.28 290.136,67.28 C291.088,67.28 291.508,67.784 291.508,68.54 L291.508,68.904 C291.508,69.66 291.088,70.164 290.136,70.164 Z M289.016,88 L289.016,73.552 L291.256,73.552 L291.256,88 L289.016,88 Z M301.476,88.336 C297.612,88.336 294.952,85.368 294.952,80.776 C294.952,76.184 297.612,73.216 301.476,73.216 C305.34,73.216 308,76.184 308,80.776 C308,85.368 305.34,88.336 301.476,88.336 Z M301.476,86.348 C303.884,86.348 305.592,84.864 305.592,81.812 L305.592,79.74 C305.592,76.688 303.884,75.204 301.476,75.204 C299.068,75.204 297.36,76.688 297.36,79.74 L297.36,81.812 C297.36,84.864 299.068,86.348 301.476,86.348 Z M313.936,88 L311.696,88 L311.696,73.552 L313.936,73.552 L313.936,75.904 L314.048,75.904 C314.748,74.28 315.98,73.216 318.136,73.216 C321.104,73.216 322.98,75.232 322.98,78.732 L322.98,88 L320.74,88 L320.74,79.124 C320.74,76.548 319.62,75.232 317.464,75.232 C315.672,75.232 313.936,76.128 313.936,77.976 L313.936,88 Z M331.94,88.336 C329.28,88.336 327.516,87.216 326.228,85.508 L327.824,84.22 C328.944,85.62 330.288,86.432 332.108,86.432 C334.012,86.432 335.132,85.564 335.132,84.08 C335.132,82.96 334.516,82.092 332.612,81.812 L331.464,81.644 C328.804,81.252 326.816,80.16 326.816,77.472 C326.816,74.616 329.028,73.216 331.968,73.216 C334.292,73.216 335.832,74.084 337.008,75.54 L335.524,76.884 C334.88,75.988 333.648,75.12 331.8,75.12 C329.952,75.12 328.972,75.988 328.972,77.36 C328.972,78.76 329.952,79.32 331.744,79.6 L332.864,79.768 C336.056,80.244 337.288,81.644 337.288,83.828 C337.288,86.628 335.244,88.336 331.94,88.336 Z M357.868,88.336 C354.004,88.336 351.344,85.368 351.344,80.776 C351.344,76.184 354.004,73.216 357.868,73.216 C361.732,73.216 364.392,76.184 364.392,80.776 C364.392,85.368 361.732,88.336 357.868,88.336 Z M357.868,86.348 C360.276,86.348 361.984,84.864 361.984,81.812 L361.984,79.74 C361.984,76.688 360.276,75.204 357.868,75.204 C355.46,75.204 353.752,76.688 353.752,79.74 L353.752,81.812 C353.752,84.864 355.46,86.348 357.868,86.348 Z M368.704,88 L368.704,75.512 L366.352,75.512 L366.352,73.552 L368.704,73.552 L368.704,70.64 C368.704,68.652 369.74,67.28 371.868,67.28 L374.052,67.28 L374.052,69.24 L370.944,69.24 L370.944,73.552 L374.052,73.552 L374.052,75.512 L370.944,75.512 L370.944,88 L368.704,88 Z M395.36,88 L394.1,88 C392.448,88 391.776,86.992 391.608,85.648 L391.468,85.648 C390.852,87.412 389.312,88.336 387.296,88.336 C384.244,88.336 382.452,86.656 382.452,83.968 C382.452,81.252 384.412,79.74 388.612,79.74 L391.468,79.74 L391.468,78.312 C391.468,76.268 390.348,75.148 388.052,75.148 C386.316,75.148 385.168,75.988 384.384,77.304 L383.04,76.044 C383.824,74.504 385.56,73.216 388.164,73.216 C391.636,73.216 393.708,75.036 393.708,78.088 L393.708,86.04 L395.36,86.04 L395.36,88 Z M387.66,86.432 C389.872,86.432 391.468,85.284 391.468,83.8 L391.468,81.42 L388.5,81.42 C385.952,81.42 384.804,82.204 384.804,83.604 L384.804,84.192 C384.804,85.62 385.924,86.432 387.66,86.432 Z M400.792,88 L398.552,88 L398.552,73.552 L400.792,73.552 L400.792,75.904 L400.904,75.904 C401.604,74.28 402.836,73.216 404.992,73.216 C407.96,73.216 409.836,75.232 409.836,78.732 L409.836,88 L407.596,88 L407.596,79.124 C407.596,76.548 406.476,75.232 404.32,75.232 C402.528,75.232 400.792,76.128 400.792,77.976 L400.792,88 Z M419.636,83.38 L423.136,73.552 L425.348,73.552 L418.88,91.36 C418.236,93.096 417.648,93.6 415.52,93.6 L414.372,93.6 L414.372,91.64 L416.64,91.64 L417.732,88.56 L412.328,73.552 L414.568,73.552 L418.04,83.38 L418.712,85.732 L418.852,85.732 L419.636,83.38 Z M439.152,88.336 C436.492,88.336 434.728,87.216 433.44,85.508 L435.036,84.22 C436.156,85.62 437.5,86.432 439.32,86.432 C441.224,86.432 442.344,85.564 442.344,84.08 C442.344,82.96 441.728,82.092 439.824,81.812 L438.676,81.644 C436.016,81.252 434.028,80.16 434.028,77.472 C434.028,74.616 436.24,73.216 439.18,73.216 C441.504,73.216 443.044,74.084 444.22,75.54 L442.736,76.884 C442.092,75.988 440.86,75.12 439.012,75.12 C437.164,75.12 436.184,75.988 436.184,77.36 C436.184,78.76 437.164,79.32 438.956,79.6 L440.076,79.768 C443.268,80.244 444.5,81.644 444.5,83.828 C444.5,86.628 442.456,88.336 439.152,88.336 Z M449.568,70.164 C448.616,70.164 448.196,69.66 448.196,68.904 L448.196,68.54 C448.196,67.784 448.616,67.28 449.568,67.28 C450.52,67.28 450.94,67.784 450.94,68.54 L450.94,68.904 C450.94,69.66 450.52,70.164 449.568,70.164 Z M448.448,88 L448.448,73.552 L450.688,73.552 L450.688,88 L448.448,88 Z M465.136,88 L453.992,88 L453.992,86.124 L462.196,75.512 L454.244,75.512 L454.244,73.552 L464.912,73.552 L464.912,75.232 L456.54,86.04 L465.136,86.04 L465.136,88 Z M473.592,88.336 C469.672,88.336 467.096,85.368 467.096,80.776 C467.096,76.184 469.672,73.216 473.592,73.216 C477.456,73.216 479.836,76.184 479.836,80.272 L479.836,81.336 L469.448,81.336 L469.448,82.008 C469.448,84.5 471.044,86.376 473.732,86.376 C475.552,86.376 476.952,85.48 477.708,83.884 L479.304,85.032 C478.38,86.992 476.308,88.336 473.592,88.336 Z M473.592,75.092 C471.156,75.092 469.448,76.94 469.448,79.46 L469.448,79.656 L477.428,79.656 L477.428,79.348 C477.428,76.8 475.888,75.092 473.592,75.092 Z M504.504,88 L504.504,85.648 L504.392,85.648 C503.524,87.44 502.152,88.336 500.164,88.336 C496.552,88.336 494.284,85.396 494.284,80.776 C494.284,76.156 496.552,73.216 500.164,73.216 C502.152,73.216 503.636,74.084 504.392,75.904 L504.504,75.904 L504.504,67.28 L506.744,67.28 L506.744,88 L504.504,88 Z M500.78,86.32 C502.824,86.32 504.504,85.256 504.504,83.38 L504.504,78.004 C504.504,76.408 502.824,75.232 500.78,75.232 C498.26,75.232 496.692,76.968 496.692,79.544 L496.692,82.008 C496.692,84.584 498.26,86.32 500.78,86.32 Z M516.936,88.336 C513.016,88.336 510.44,85.368 510.44,80.776 C510.44,76.184 513.016,73.216 516.936,73.216 C520.8,73.216 523.18,76.184 523.18,80.272 L523.18,81.336 L512.792,81.336 L512.792,82.008 C512.792,84.5 514.388,86.376 517.076,86.376 C518.896,86.376 520.296,85.48 521.052,83.884 L522.648,85.032 C521.724,86.992 519.652,88.336 516.936,88.336 Z M516.936,75.092 C514.5,75.092 512.792,76.94 512.792,79.46 L512.792,79.656 L520.772,79.656 L520.772,79.348 C520.772,76.8 519.232,75.092 516.936,75.092 Z M538.636,88 L537.376,88 C535.724,88 535.052,86.992 534.884,85.648 L534.744,85.648 C534.128,87.412 532.588,88.336 530.572,88.336 C527.52,88.336 525.728,86.656 525.728,83.968 C525.728,81.252 527.688,79.74 531.888,79.74 L534.744,79.74 L534.744,78.312 C534.744,76.268 533.624,75.148 531.328,75.148 C529.592,75.148 528.444,75.988 527.66,77.304 L526.316,76.044 C527.1,74.504 528.836,73.216 531.44,73.216 C534.912,73.216 536.984,75.036 536.984,78.088 L536.984,86.04 L538.636,86.04 L538.636,88 Z M530.936,86.432 C533.148,86.432 534.744,85.284 534.744,83.8 L534.744,81.42 L531.776,81.42 C529.228,81.42 528.08,82.204 528.08,83.604 L528.08,84.192 C528.08,85.62 529.2,86.432 530.936,86.432 Z M546.196,88 L544.208,88 C542.668,88 541.828,87.02 541.828,85.676 L541.828,67.28 L544.068,67.28 L544.068,86.04 L546.196,86.04 L546.196,88 Z M558.404,88 L554.54,73.552 L556.724,73.552 L558.264,79.796 L559.804,86.124 L559.86,86.124 L561.624,79.796 L563.444,73.552 L565.432,73.552 L567.308,79.796 L569.1,86.124 L569.156,86.124 L570.64,79.796 L572.208,73.552 L574.308,73.552 L570.472,88 L567.7,88 L565.684,81.056 L564.424,76.66 L564.368,76.66 L563.136,81.056 L561.12,88 L558.404,88 Z M578.676,70.164 C577.724,70.164 577.304,69.66 577.304,68.904 L577.304,68.54 C577.304,67.784 577.724,67.28 578.676,67.28 C579.628,67.28 580.048,67.784 580.048,68.54 L580.048,68.904 C580.048,69.66 579.628,70.164 578.676,70.164 Z M577.556,88 L577.556,73.552 L579.796,73.552 L579.796,88 L577.556,88 Z M590.548,88 L587.748,88 C586.208,88 585.368,87.02 585.368,85.62 L585.368,75.512 L582.988,75.512 L582.988,73.552 L584.332,73.552 C585.284,73.552 585.592,73.216 585.592,72.236 L585.592,69.548 L587.608,69.548 L587.608,73.552 L590.772,73.552 L590.772,75.512 L587.608,75.512 L587.608,86.04 L590.548,86.04 L590.548,88 Z M594.384,88 L594.384,67.28 L596.624,67.28 L596.624,75.904 L596.736,75.904 C597.436,74.28 598.668,73.216 600.824,73.216 C603.792,73.216 605.668,75.232 605.668,78.732 L605.668,88 L603.428,88 L603.428,79.124 C603.428,76.548 602.308,75.232 600.152,75.232 C598.36,75.232 596.624,76.128 596.624,77.976 L596.624,88 L594.384,88 Z M628.656,88 L627.396,88 C625.744,88 625.072,86.992 624.904,85.648 L624.764,85.648 C624.148,87.412 622.608,88.336 620.592,88.336 C617.54,88.336 615.748,86.656 615.748,83.968 C615.748,81.252 617.708,79.74 621.908,79.74 L624.764,79.74 L624.764,78.312 C624.764,76.268 623.644,75.148 621.348,75.148 C619.612,75.148 618.464,75.988 617.68,77.304 L616.336,76.044 C617.12,74.504 618.856,73.216 621.46,73.216 C624.932,73.216 627.004,75.036 627.004,78.088 L627.004,86.04 L628.656,86.04 L628.656,88 Z M620.956,86.432 C623.168,86.432 624.764,85.284 624.764,83.8 L624.764,81.42 L621.796,81.42 C619.248,81.42 618.1,82.204 618.1,83.604 L618.1,84.192 C618.1,85.62 619.22,86.432 620.956,86.432 Z M647.696,88 L647.696,85.648 L647.584,85.648 C646.716,87.44 645.344,88.336 643.356,88.336 C639.744,88.336 637.476,85.396 637.476,80.776 C637.476,76.156 639.744,73.216 643.356,73.216 C645.344,73.216 646.828,74.084 647.584,75.904 L647.696,75.904 L647.696,67.28 L649.936,67.28 L649.936,88 L647.696,88 Z M643.972,86.32 C646.016,86.32 647.696,85.256 647.696,83.38 L647.696,78.004 C647.696,76.408 646.016,75.232 643.972,75.232 C641.452,75.232 639.884,76.968 639.884,79.544 L639.884,82.008 C639.884,84.584 641.452,86.32 643.972,86.32 Z M660.1,83.38 L663.6,73.552 L665.812,73.552 L659.344,91.36 C658.7,93.096 658.112,93.6 655.984,93.6 L654.836,93.6 L654.836,91.64 L657.104,91.64 L658.196,88.56 L652.792,73.552 L655.032,73.552 L658.504,83.38 L659.176,85.732 L659.316,85.732 L660.1,83.38 Z M670.908,88 L668.668,88 L668.668,73.552 L670.908,73.552 L670.908,75.904 L671.02,75.904 C671.72,74.28 672.952,73.216 675.108,73.216 C678.076,73.216 679.952,75.232 679.952,78.732 L679.952,88 L677.712,88 L677.712,79.124 C677.712,76.548 676.592,75.232 674.436,75.232 C672.644,75.232 670.908,76.128 670.908,77.976 L670.908,88 Z M696.332,88 L695.072,88 C693.42,88 692.748,86.992 692.58,85.648 L692.44,85.648 C691.824,87.412 690.284,88.336 688.268,88.336 C685.216,88.336 683.424,86.656 683.424,83.968 C683.424,81.252 685.384,79.74 689.584,79.74 L692.44,79.74 L692.44,78.312 C692.44,76.268 691.32,75.148 689.024,75.148 C687.288,75.148 686.14,75.988 685.356,77.304 L684.012,76.044 C684.796,74.504 686.532,73.216 689.136,73.216 C692.608,73.216 694.68,75.036 694.68,78.088 L694.68,86.04 L696.332,86.04 L696.332,88 Z M688.632,86.432 C690.844,86.432 692.44,85.284 692.44,83.8 L692.44,81.42 L689.472,81.42 C686.924,81.42 685.776,82.204 685.776,83.604 L685.776,84.192 C685.776,85.62 686.896,86.432 688.632,86.432 Z M701.764,88 L699.524,88 L699.524,73.552 L701.764,73.552 L701.764,75.904 L701.876,75.904 C702.52,74.42 703.528,73.216 705.768,73.216 C707.672,73.216 709.408,74.084 710.192,76.156 L710.248,76.156 C710.78,74.588 712.18,73.216 714.644,73.216 C717.584,73.216 719.348,75.232 719.348,78.732 L719.348,88 L717.108,88 L717.108,79.124 C717.108,76.576 716.128,75.232 713.944,75.232 C712.18,75.232 710.556,76.128 710.556,77.976 L710.556,88 L708.316,88 L708.316,79.124 C708.316,76.548 707.336,75.232 705.208,75.232 C703.444,75.232 701.764,76.128 701.764,77.976 L701.764,88 Z M725.088,70.164 C724.136,70.164 723.716,69.66 723.716,68.904 L723.716,68.54 C723.716,67.784 724.136,67.28 725.088,67.28 C726.04,67.28 726.46,67.784 726.46,68.54 L726.46,68.904 C726.46,69.66 726.04,70.164 725.088,70.164 Z M723.968,88 L723.968,73.552 L726.208,73.552 L726.208,88 L723.968,88 Z M736.344,88.336 C732.284,88.336 729.904,85.396 729.904,80.776 C729.904,76.156 732.284,73.216 736.344,73.216 C739.2,73.216 740.908,74.616 741.748,76.604 L739.872,77.556 C739.34,76.072 738.108,75.204 736.344,75.204 C733.684,75.204 732.312,77.024 732.312,79.544 L732.312,82.008 C732.312,84.528 733.684,86.348 736.344,86.348 C738.164,86.348 739.48,85.48 740.264,83.828 L741.888,84.92 C740.964,86.992 739.088,88.336 736.344,88.336 Z M763.84,89.596 C763.84,92.564 761.488,93.936 756.84,93.936 C752.332,93.936 750.484,92.648 750.484,90.38 C750.484,88.812 751.352,87.972 752.78,87.58 L752.78,87.272 C751.968,86.88 751.492,86.236 751.492,85.256 C751.492,83.8 752.528,83.1 753.984,82.736 L753.984,82.624 C752.276,81.812 751.268,80.216 751.268,78.2 C751.268,75.26 753.424,73.216 756.7,73.216 C757.736,73.216 758.66,73.412 759.444,73.776 L759.444,73.524 C759.444,72.404 759.92,71.592 761.124,71.592 L763.28,71.592 L763.28,73.552 L760.536,73.552 L760.536,74.476 C761.572,75.372 762.188,76.66 762.188,78.2 C762.188,81.14 760.032,83.184 756.728,83.184 C756.252,83.184 755.748,83.128 755.328,83.044 C754.376,83.296 753.424,83.772 753.424,84.668 C753.424,85.536 754.32,85.76 755.636,85.76 L758.716,85.76 C762.3,85.76 763.84,87.216 763.84,89.596 Z M761.74,89.764 C761.74,88.616 760.984,87.86 758.744,87.86 L753.928,87.86 C753.004,88.28 752.584,88.924 752.584,89.82 C752.584,91.08 753.452,92.116 755.72,92.116 L757.792,92.116 C760.284,92.116 761.74,91.332 761.74,89.764 Z M756.728,81.392 C758.632,81.392 759.836,80.496 759.836,78.592 L759.836,77.808 C759.836,75.904 758.632,75.008 756.728,75.008 C754.824,75.008 753.62,75.904 753.62,77.808 L753.62,78.592 C753.62,80.496 754.824,81.392 756.728,81.392 Z M770.812,88 L768.824,88 C767.284,88 766.444,87.02 766.444,85.676 L766.444,67.28 L768.684,67.28 L768.684,86.04 L770.812,86.04 L770.812,88 Z M779.52,88.336 C775.656,88.336 772.996,85.368 772.996,80.776 C772.996,76.184 775.656,73.216 779.52,73.216 C783.384,73.216 786.044,76.184 786.044,80.776 C786.044,85.368 783.384,88.336 779.52,88.336 Z M779.52,86.348 C781.928,86.348 783.636,84.864 783.636,81.812 L783.636,79.74 C783.636,76.688 781.928,75.204 779.52,75.204 C777.112,75.204 775.404,76.688 775.404,79.74 L775.404,81.812 C775.404,84.864 777.112,86.348 779.52,86.348 Z M789.74,88 L789.74,67.28 L791.98,67.28 L791.98,75.904 L792.092,75.904 C792.848,74.084 794.332,73.216 796.32,73.216 C799.932,73.216 802.2,76.156 802.2,80.776 C802.2,85.396 799.932,88.336 796.32,88.336 C794.332,88.336 792.96,87.44 792.092,85.648 L791.98,85.648 L791.98,88 L789.74,88 Z M795.704,86.32 C798.224,86.32 799.792,84.584 799.792,82.008 L799.792,79.544 C799.792,76.968 798.224,75.232 795.704,75.232 C793.66,75.232 791.98,76.408 791.98,78.004 L791.98,83.38 C791.98,85.256 793.66,86.32 795.704,86.32 Z M817.74,88 L816.48,88 C814.828,88 814.156,86.992 813.988,85.648 L813.848,85.648 C813.232,87.412 811.692,88.336 809.676,88.336 C806.624,88.336 804.832,86.656 804.832,83.968 C804.832,81.252 806.792,79.74 810.992,79.74 L813.848,79.74 L813.848,78.312 C813.848,76.268 812.728,75.148 810.432,75.148 C808.696,75.148 807.548,75.988 806.764,77.304 L805.42,76.044 C806.204,74.504 807.94,73.216 810.544,73.216 C814.016,73.216 816.088,75.036 816.088,78.088 L816.088,86.04 L817.74,86.04 L817.74,88 Z M810.04,86.432 C812.252,86.432 813.848,85.284 813.848,83.8 L813.848,81.42 L810.88,81.42 C808.332,81.42 807.184,82.204 807.184,83.604 L807.184,84.192 C807.184,85.62 808.304,86.432 810.04,86.432 Z M825.3,88 L823.312,88 C821.772,88 820.932,87.02 820.932,85.676 L820.932,67.28 L823.172,67.28 L823.172,86.04 L825.3,86.04 L825.3,88 Z M845.124,88.336 C843.948,88.336 843.416,87.664 843.416,86.712 L843.416,86.348 C843.416,85.396 843.948,84.724 845.124,84.724 C846.3,84.724 846.832,85.396 846.832,86.348 L846.832,86.712 C846.832,87.664 846.3,88.336 845.124,88.336 Z M837.676,88.336 C836.5,88.336 835.968,87.664 835.968,86.712 L835.968,86.348 C835.968,85.396 836.5,84.724 837.676,84.724 C838.852,84.724 839.384,85.396 839.384,86.348 L839.384,86.712 C839.384,87.664 838.852,88.336 837.676,88.336 Z M830.256,88.336 C829.08,88.336 828.548,87.664 828.548,86.712 L828.548,86.348 C828.548,85.396 829.08,84.724 830.256,84.724 C831.432,84.724 831.964,85.396 831.964,86.348 L831.964,86.712 C831.964,87.664 831.432,88.336 830.256,88.336 Z M70.84,162 L70.84,153.152 L60.956,153.152 L60.956,162 L58.604,162 L58.604,142.456 L60.956,142.456 L60.956,151.08 L70.84,151.08 L70.84,142.456 L73.192,142.456 L73.192,162 L70.84,162 Z M83.636,162.336 C79.772,162.336 77.112,159.368 77.112,154.776 C77.112,150.184 79.772,147.216 83.636,147.216 C87.5,147.216 90.16,150.184 90.16,154.776 C90.16,159.368 87.5,162.336 83.636,162.336 Z M83.636,160.348 C86.044,160.348 87.752,158.864 87.752,155.812 L87.752,153.74 C87.752,150.688 86.044,149.204 83.636,149.204 C81.228,149.204 79.52,150.688 79.52,153.74 L79.52,155.812 C79.52,158.864 81.228,160.348 83.636,160.348 Z M96.068,162 L92.204,147.552 L94.388,147.552 L95.928,153.796 L97.468,160.124 L97.524,160.124 L99.288,153.796 L101.108,147.552 L103.096,147.552 L104.972,153.796 L106.764,160.124 L106.82,160.124 L108.304,153.796 L109.872,147.552 L111.972,147.552 L108.136,162 L105.364,162 L103.348,155.056 L102.088,150.66 L102.032,150.66 L100.8,155.056 L98.784,162 L96.068,162 Z M127.204,162.336 C123.144,162.336 120.764,159.396 120.764,154.776 C120.764,150.156 123.144,147.216 127.204,147.216 C130.06,147.216 131.768,148.616 132.608,150.604 L130.732,151.556 C130.2,150.072 128.968,149.204 127.204,149.204 C124.544,149.204 123.172,151.024 123.172,153.544 L123.172,156.008 C123.172,158.528 124.544,160.348 127.204,160.348 C129.024,160.348 130.34,159.48 131.124,157.828 L132.748,158.92 C131.824,160.992 129.948,162.336 127.204,162.336 Z M147.672,162 L146.412,162 C144.76,162 144.088,160.992 143.92,159.648 L143.78,159.648 C143.164,161.412 141.624,162.336 139.608,162.336 C136.556,162.336 134.764,160.656 134.764,157.968 C134.764,155.252 136.724,153.74 140.924,153.74 L143.78,153.74 L143.78,152.312 C143.78,150.268 142.66,149.148 140.364,149.148 C138.628,149.148 137.48,149.988 136.696,151.304 L135.352,150.044 C136.136,148.504 137.872,147.216 140.476,147.216 C143.948,147.216 146.02,149.036 146.02,152.088 L146.02,160.04 L147.672,160.04 L147.672,162 Z M139.972,160.432 C142.184,160.432 143.78,159.284 143.78,157.8 L143.78,155.42 L140.812,155.42 C138.264,155.42 137.116,156.204 137.116,157.604 L137.116,158.192 C137.116,159.62 138.236,160.432 139.972,160.432 Z M153.104,162 L150.864,162 L150.864,147.552 L153.104,147.552 L153.104,149.904 L153.216,149.904 C153.916,148.28 155.148,147.216 157.304,147.216 C160.272,147.216 162.148,149.232 162.148,152.732 L162.148,162 L159.908,162 L159.908,153.124 C159.908,150.548 158.788,149.232 156.632,149.232 C154.84,149.232 153.104,150.128 153.104,151.976 L153.104,162 Z M178.836,162.336 C174.972,162.336 172.312,159.368 172.312,154.776 C172.312,150.184 174.972,147.216 178.836,147.216 C182.7,147.216 185.36,150.184 185.36,154.776 C185.36,159.368 182.7,162.336 178.836,162.336 Z M178.836,160.348 C181.244,160.348 182.952,158.864 182.952,155.812 L182.952,153.74 C182.952,150.688 181.244,149.204 178.836,149.204 C176.428,149.204 174.72,150.688 174.72,153.74 L174.72,155.812 C174.72,158.864 176.428,160.348 178.836,160.348 Z M191.296,162 L189.056,162 L189.056,147.552 L191.296,147.552 L191.296,150.212 L191.436,150.212 C191.94,148.84 193.256,147.552 195.608,147.552 L196.476,147.552 L196.476,149.792 L195.16,149.792 C192.752,149.792 191.296,150.828 191.296,152.2 L191.296,162 Z M210.868,163.596 C210.868,166.564 208.516,167.936 203.868,167.936 C199.36,167.936 197.512,166.648 197.512,164.38 C197.512,162.812 198.38,161.972 199.808,161.58 L199.808,161.272 C198.996,160.88 198.52,160.236 198.52,159.256 C198.52,157.8 199.556,157.1 201.012,156.736 L201.012,156.624 C199.304,155.812 198.296,154.216 198.296,152.2 C198.296,149.26 200.452,147.216 203.728,147.216 C204.764,147.216 205.688,147.412 206.472,147.776 L206.472,147.524 C206.472,146.404 206.948,145.592 208.152,145.592 L210.308,145.592 L210.308,147.552 L207.564,147.552 L207.564,148.476 C208.6,149.372 209.216,150.66 209.216,152.2 C209.216,155.14 207.06,157.184 203.756,157.184 C203.28,157.184 202.776,157.128 202.356,157.044 C201.404,157.296 200.452,157.772 200.452,158.668 C200.452,159.536 201.348,159.76 202.664,159.76 L205.744,159.76 C209.328,159.76 210.868,161.216 210.868,163.596 Z M208.768,163.764 C208.768,162.616 208.012,161.86 205.772,161.86 L200.956,161.86 C200.032,162.28 199.612,162.924 199.612,163.82 C199.612,165.08 200.48,166.116 202.748,166.116 L204.82,166.116 C207.312,166.116 208.768,165.332 208.768,163.764 Z M203.756,155.392 C205.66,155.392 206.864,154.496 206.864,152.592 L206.864,151.808 C206.864,149.904 205.66,149.008 203.756,149.008 C201.852,149.008 200.648,149.904 200.648,151.808 L200.648,152.592 C200.648,154.496 201.852,155.392 203.756,155.392 Z M225.148,162 L223.888,162 C222.236,162 221.564,160.992 221.396,159.648 L221.256,159.648 C220.64,161.412 219.1,162.336 217.084,162.336 C214.032,162.336 212.24,160.656 212.24,157.968 C212.24,155.252 214.2,153.74 218.4,153.74 L221.256,153.74 L221.256,152.312 C221.256,150.268 220.136,149.148 217.84,149.148 C216.104,149.148 214.956,149.988 214.172,151.304 L212.828,150.044 C213.612,148.504 215.348,147.216 217.952,147.216 C221.424,147.216 223.496,149.036 223.496,152.088 L223.496,160.04 L225.148,160.04 L225.148,162 Z M217.448,160.432 C219.66,160.432 221.256,159.284 221.256,157.8 L221.256,155.42 L218.288,155.42 C215.74,155.42 214.592,156.204 214.592,157.604 L214.592,158.192 C214.592,159.62 215.712,160.432 217.448,160.432 Z M230.58,162 L228.34,162 L228.34,147.552 L230.58,147.552 L230.58,149.904 L230.692,149.904 C231.392,148.28 232.624,147.216 234.78,147.216 C237.748,147.216 239.624,149.232 239.624,152.732 L239.624,162 L237.384,162 L237.384,153.124 C237.384,150.548 236.264,149.232 234.108,149.232 C232.316,149.232 230.58,150.128 230.58,151.976 L230.58,162 Z M245.364,144.164 C244.412,144.164 243.992,143.66 243.992,142.904 L243.992,142.54 C243.992,141.784 244.412,141.28 245.364,141.28 C246.316,141.28 246.736,141.784 246.736,142.54 L246.736,142.904 C246.736,143.66 246.316,144.164 245.364,144.164 Z M244.244,162 L244.244,147.552 L246.484,147.552 L246.484,162 L244.244,162 Z M260.932,162 L249.788,162 L249.788,160.124 L257.992,149.512 L250.04,149.512 L250.04,147.552 L260.708,147.552 L260.708,149.232 L252.336,160.04 L260.932,160.04 L260.932,162 Z M275.996,162 L274.736,162 C273.084,162 272.412,160.992 272.244,159.648 L272.104,159.648 C271.488,161.412 269.948,162.336 267.932,162.336 C264.88,162.336 263.088,160.656 263.088,157.968 C263.088,155.252 265.048,153.74 269.248,153.74 L272.104,153.74 L272.104,152.312 C272.104,150.268 270.984,149.148 268.688,149.148 C266.952,149.148 265.804,149.988 265.02,151.304 L263.676,150.044 C264.46,148.504 266.196,147.216 268.8,147.216 C272.272,147.216 274.344,149.036 274.344,152.088 L274.344,160.04 L275.996,160.04 L275.996,162 Z M268.296,160.432 C270.508,160.432 272.104,159.284 272.104,157.8 L272.104,155.42 L269.136,155.42 C266.588,155.42 265.44,156.204 265.44,157.604 L265.44,158.192 C265.44,159.62 266.56,160.432 268.296,160.432 Z M285.18,162 L282.38,162 C280.84,162 280,161.02 280,159.62 L280,149.512 L277.62,149.512 L277.62,147.552 L278.964,147.552 C279.916,147.552 280.224,147.216 280.224,146.236 L280.224,143.548 L282.24,143.548 L282.24,147.552 L285.404,147.552 L285.404,149.512 L282.24,149.512 L282.24,160.04 L285.18,160.04 L285.18,162 Z M290.136,144.164 C289.184,144.164 288.764,143.66 288.764,142.904 L288.764,142.54 C288.764,141.784 289.184,141.28 290.136,141.28 C291.088,141.28 291.508,141.784 291.508,142.54 L291.508,142.904 C291.508,143.66 291.088,144.164 290.136,144.164 Z M289.016,162 L289.016,147.552 L291.256,147.552 L291.256,162 L289.016,162 Z M301.476,162.336 C297.612,162.336 294.952,159.368 294.952,154.776 C294.952,150.184 297.612,147.216 301.476,147.216 C305.34,147.216 308,150.184 308,154.776 C308,159.368 305.34,162.336 301.476,162.336 Z M301.476,160.348 C303.884,160.348 305.592,158.864 305.592,155.812 L305.592,153.74 C305.592,150.688 303.884,149.204 301.476,149.204 C299.068,149.204 297.36,150.688 297.36,153.74 L297.36,155.812 C297.36,158.864 299.068,160.348 301.476,160.348 Z M313.936,162 L311.696,162 L311.696,147.552 L313.936,147.552 L313.936,149.904 L314.048,149.904 C314.748,148.28 315.98,147.216 318.136,147.216 C321.104,147.216 322.98,149.232 322.98,152.732 L322.98,162 L320.74,162 L320.74,153.124 C320.74,150.548 319.62,149.232 317.464,149.232 C315.672,149.232 313.936,150.128 313.936,151.976 L313.936,162 Z M331.94,162.336 C329.28,162.336 327.516,161.216 326.228,159.508 L327.824,158.22 C328.944,159.62 330.288,160.432 332.108,160.432 C334.012,160.432 335.132,159.564 335.132,158.08 C335.132,156.96 334.516,156.092 332.612,155.812 L331.464,155.644 C328.804,155.252 326.816,154.16 326.816,151.472 C326.816,148.616 329.028,147.216 331.968,147.216 C334.292,147.216 335.832,148.084 337.008,149.54 L335.524,150.884 C334.88,149.988 333.648,149.12 331.8,149.12 C329.952,149.12 328.972,149.988 328.972,151.36 C328.972,152.76 329.952,153.32 331.744,153.6 L332.864,153.768 C336.056,154.244 337.288,155.644 337.288,157.828 C337.288,160.628 335.244,162.336 331.94,162.336 Z M369.04,162.336 C365.176,162.336 362.516,159.368 362.516,154.776 C362.516,150.184 365.176,147.216 369.04,147.216 C372.904,147.216 375.564,150.184 375.564,154.776 C375.564,159.368 372.904,162.336 369.04,162.336 Z M369.04,160.348 C371.448,160.348 373.156,158.864 373.156,155.812 L373.156,153.74 C373.156,150.688 371.448,149.204 369.04,149.204 C366.632,149.204 364.924,150.688 364.924,153.74 L364.924,155.812 C364.924,158.864 366.632,160.348 369.04,160.348 Z M379.876,162 L379.876,149.512 L377.524,149.512 L377.524,147.552 L379.876,147.552 L379.876,144.64 C379.876,142.652 380.912,141.28 383.04,141.28 L385.224,141.28 L385.224,143.24 L382.116,143.24 L382.116,147.552 L385.224,147.552 L385.224,149.512 L382.116,149.512 L382.116,162 L379.876,162 Z M406.532,162 L405.272,162 C403.62,162 402.948,160.992 402.78,159.648 L402.64,159.648 C402.024,161.412 400.484,162.336 398.468,162.336 C395.416,162.336 393.624,160.656 393.624,157.968 C393.624,155.252 395.584,153.74 399.784,153.74 L402.64,153.74 L402.64,152.312 C402.64,150.268 401.52,149.148 399.224,149.148 C397.488,149.148 396.34,149.988 395.556,151.304 L394.212,150.044 C394.996,148.504 396.732,147.216 399.336,147.216 C402.808,147.216 404.88,149.036 404.88,152.088 L404.88,160.04 L406.532,160.04 L406.532,162 Z M398.832,160.432 C401.044,160.432 402.64,159.284 402.64,157.8 L402.64,155.42 L399.672,155.42 C397.124,155.42 395.976,156.204 395.976,157.604 L395.976,158.192 C395.976,159.62 397.096,160.432 398.832,160.432 Z M411.964,162 L409.724,162 L409.724,147.552 L411.964,147.552 L411.964,149.904 L412.076,149.904 C412.776,148.28 414.008,147.216 416.164,147.216 C419.132,147.216 421.008,149.232 421.008,152.732 L421.008,162 L418.768,162 L418.768,153.124 C418.768,150.548 417.648,149.232 415.492,149.232 C413.7,149.232 411.964,150.128 411.964,151.976 L411.964,162 Z M430.808,157.38 L434.308,147.552 L436.52,147.552 L430.052,165.36 C429.408,167.096 428.82,167.6 426.692,167.6 L425.544,167.6 L425.544,165.64 L427.812,165.64 L428.904,162.56 L423.5,147.552 L425.74,147.552 L429.212,157.38 L429.884,159.732 L430.024,159.732 L430.808,157.38 Z M450.324,162.336 C447.664,162.336 445.9,161.216 444.612,159.508 L446.208,158.22 C447.328,159.62 448.672,160.432 450.492,160.432 C452.396,160.432 453.516,159.564 453.516,158.08 C453.516,156.96 452.9,156.092 450.996,155.812 L449.848,155.644 C447.188,155.252 445.2,154.16 445.2,151.472 C445.2,148.616 447.412,147.216 450.352,147.216 C452.676,147.216 454.216,148.084 455.392,149.54 L453.908,150.884 C453.264,149.988 452.032,149.12 450.184,149.12 C448.336,149.12 447.356,149.988 447.356,151.36 C447.356,152.76 448.336,153.32 450.128,153.6 L451.248,153.768 C454.44,154.244 455.672,155.644 455.672,157.828 C455.672,160.628 453.628,162.336 450.324,162.336 Z M460.74,144.164 C459.788,144.164 459.368,143.66 459.368,142.904 L459.368,142.54 C459.368,141.784 459.788,141.28 460.74,141.28 C461.692,141.28 462.112,141.784 462.112,142.54 L462.112,142.904 C462.112,143.66 461.692,144.164 460.74,144.164 Z M459.62,162 L459.62,147.552 L461.86,147.552 L461.86,162 L459.62,162 Z M476.308,162 L465.164,162 L465.164,160.124 L473.368,149.512 L465.416,149.512 L465.416,147.552 L476.084,147.552 L476.084,149.232 L467.712,160.04 L476.308,160.04 L476.308,162 Z M484.764,162.336 C480.844,162.336 478.268,159.368 478.268,154.776 C478.268,150.184 480.844,147.216 484.764,147.216 C488.628,147.216 491.008,150.184 491.008,154.272 L491.008,155.336 L480.62,155.336 L480.62,156.008 C480.62,158.5 482.216,160.376 484.904,160.376 C486.724,160.376 488.124,159.48 488.88,157.884 L490.476,159.032 C489.552,160.992 487.48,162.336 484.764,162.336 Z M484.764,149.092 C482.328,149.092 480.62,150.94 480.62,153.46 L480.62,153.656 L488.6,153.656 L488.6,153.348 C488.6,150.8 487.06,149.092 484.764,149.092 Z M526.848,162 L526.848,159.648 L526.736,159.648 C525.868,161.44 524.496,162.336 522.508,162.336 C518.896,162.336 516.628,159.396 516.628,154.776 C516.628,150.156 518.896,147.216 522.508,147.216 C524.496,147.216 525.98,148.084 526.736,149.904 L526.848,149.904 L526.848,141.28 L529.088,141.28 L529.088,162 L526.848,162 Z M523.124,160.32 C525.168,160.32 526.848,159.256 526.848,157.38 L526.848,152.004 C526.848,150.408 525.168,149.232 523.124,149.232 C520.604,149.232 519.036,150.968 519.036,153.544 L519.036,156.008 C519.036,158.584 520.604,160.32 523.124,160.32 Z M539.28,162.336 C535.36,162.336 532.784,159.368 532.784,154.776 C532.784,150.184 535.36,147.216 539.28,147.216 C543.144,147.216 545.524,150.184 545.524,154.272 L545.524,155.336 L535.136,155.336 L535.136,156.008 C535.136,158.5 536.732,160.376 539.42,160.376 C541.24,160.376 542.64,159.48 543.396,157.884 L544.992,159.032 C544.068,160.992 541.996,162.336 539.28,162.336 Z M539.28,149.092 C536.844,149.092 535.136,150.94 535.136,153.46 L535.136,153.656 L543.116,153.656 L543.116,153.348 C543.116,150.8 541.576,149.092 539.28,149.092 Z M560.98,162 L559.72,162 C558.068,162 557.396,160.992 557.228,159.648 L557.088,159.648 C556.472,161.412 554.932,162.336 552.916,162.336 C549.864,162.336 548.072,160.656 548.072,157.968 C548.072,155.252 550.032,153.74 554.232,153.74 L557.088,153.74 L557.088,152.312 C557.088,150.268 555.968,149.148 553.672,149.148 C551.936,149.148 550.788,149.988 550.004,151.304 L548.66,150.044 C549.444,148.504 551.18,147.216 553.784,147.216 C557.256,147.216 559.328,149.036 559.328,152.088 L559.328,160.04 L560.98,160.04 L560.98,162 Z M553.28,160.432 C555.492,160.432 557.088,159.284 557.088,157.8 L557.088,155.42 L554.12,155.42 C551.572,155.42 550.424,156.204 550.424,157.604 L550.424,158.192 C550.424,159.62 551.544,160.432 553.28,160.432 Z M568.54,162 L566.552,162 C565.012,162 564.172,161.02 564.172,159.676 L564.172,141.28 L566.412,141.28 L566.412,160.04 L568.54,160.04 L568.54,162 Z M580.748,162 L576.884,147.552 L579.068,147.552 L580.608,153.796 L582.148,160.124 L582.204,160.124 L583.968,153.796 L585.788,147.552 L587.776,147.552 L589.652,153.796 L591.444,160.124 L591.5,160.124 L592.984,153.796 L594.552,147.552 L596.652,147.552 L592.816,162 L590.044,162 L588.028,155.056 L586.768,150.66 L586.712,150.66 L585.48,155.056 L583.464,162 L580.748,162 Z M601.02,144.164 C600.068,144.164 599.648,143.66 599.648,142.904 L599.648,142.54 C599.648,141.784 600.068,141.28 601.02,141.28 C601.972,141.28 602.392,141.784 602.392,142.54 L602.392,142.904 C602.392,143.66 601.972,144.164 601.02,144.164 Z M599.9,162 L599.9,147.552 L602.14,147.552 L602.14,162 L599.9,162 Z M612.892,162 L610.092,162 C608.552,162 607.712,161.02 607.712,159.62 L607.712,149.512 L605.332,149.512 L605.332,147.552 L606.676,147.552 C607.628,147.552 607.936,147.216 607.936,146.236 L607.936,143.548 L609.952,143.548 L609.952,147.552 L613.116,147.552 L613.116,149.512 L609.952,149.512 L609.952,160.04 L612.892,160.04 L612.892,162 Z M616.728,162 L616.728,141.28 L618.968,141.28 L618.968,149.904 L619.08,149.904 C619.78,148.28 621.012,147.216 623.168,147.216 C626.136,147.216 628.012,149.232 628.012,152.732 L628.012,162 L625.772,162 L625.772,153.124 C625.772,150.548 624.652,149.232 622.496,149.232 C620.704,149.232 618.968,150.128 618.968,151.976 L618.968,162 L616.728,162 Z M651,162 L649.74,162 C648.088,162 647.416,160.992 647.248,159.648 L647.108,159.648 C646.492,161.412 644.952,162.336 642.936,162.336 C639.884,162.336 638.092,160.656 638.092,157.968 C638.092,155.252 640.052,153.74 644.252,153.74 L647.108,153.74 L647.108,152.312 C647.108,150.268 645.988,149.148 643.692,149.148 C641.956,149.148 640.808,149.988 640.024,151.304 L638.68,150.044 C639.464,148.504 641.2,147.216 643.804,147.216 C647.276,147.216 649.348,149.036 649.348,152.088 L649.348,160.04 L651,160.04 L651,162 Z M643.3,160.432 C645.512,160.432 647.108,159.284 647.108,157.8 L647.108,155.42 L644.14,155.42 C641.592,155.42 640.444,156.204 640.444,157.604 L640.444,158.192 C640.444,159.62 641.564,160.432 643.3,160.432 Z M670.04,162 L670.04,159.648 L669.928,159.648 C669.06,161.44 667.688,162.336 665.7,162.336 C662.088,162.336 659.82,159.396 659.82,154.776 C659.82,150.156 662.088,147.216 665.7,147.216 C667.688,147.216 669.172,148.084 669.928,149.904 L670.04,149.904 L670.04,141.28 L672.28,141.28 L672.28,162 L670.04,162 Z M666.316,160.32 C668.36,160.32 670.04,159.256 670.04,157.38 L670.04,152.004 C670.04,150.408 668.36,149.232 666.316,149.232 C663.796,149.232 662.228,150.968 662.228,153.544 L662.228,156.008 C662.228,158.584 663.796,160.32 666.316,160.32 Z M682.444,157.38 L685.944,147.552 L688.156,147.552 L681.688,165.36 C681.044,167.096 680.456,167.6 678.328,167.6 L677.18,167.6 L677.18,165.64 L679.448,165.64 L680.54,162.56 L675.136,147.552 L677.376,147.552 L680.848,157.38 L681.52,159.732 L681.66,159.732 L682.444,157.38 Z M693.252,162 L691.012,162 L691.012,147.552 L693.252,147.552 L693.252,149.904 L693.364,149.904 C694.064,148.28 695.296,147.216 697.452,147.216 C700.42,147.216 702.296,149.232 702.296,152.732 L702.296,162 L700.056,162 L700.056,153.124 C700.056,150.548 698.936,149.232 696.78,149.232 C694.988,149.232 693.252,150.128 693.252,151.976 L693.252,162 Z M718.676,162 L717.416,162 C715.764,162 715.092,160.992 714.924,159.648 L714.784,159.648 C714.168,161.412 712.628,162.336 710.612,162.336 C707.56,162.336 705.768,160.656 705.768,157.968 C705.768,155.252 707.728,153.74 711.928,153.74 L714.784,153.74 L714.784,152.312 C714.784,150.268 713.664,149.148 711.368,149.148 C709.632,149.148 708.484,149.988 707.7,151.304 L706.356,150.044 C707.14,148.504 708.876,147.216 711.48,147.216 C714.952,147.216 717.024,149.036 717.024,152.088 L717.024,160.04 L718.676,160.04 L718.676,162 Z M710.976,160.432 C713.188,160.432 714.784,159.284 714.784,157.8 L714.784,155.42 L711.816,155.42 C709.268,155.42 708.12,156.204 708.12,157.604 L708.12,158.192 C708.12,159.62 709.24,160.432 710.976,160.432 Z M724.108,162 L721.868,162 L721.868,147.552 L724.108,147.552 L724.108,149.904 L724.22,149.904 C724.864,148.42 725.872,147.216 728.112,147.216 C730.016,147.216 731.752,148.084 732.536,150.156 L732.592,150.156 C733.124,148.588 734.524,147.216 736.988,147.216 C739.928,147.216 741.692,149.232 741.692,152.732 L741.692,162 L739.452,162 L739.452,153.124 C739.452,150.576 738.472,149.232 736.288,149.232 C734.524,149.232 732.9,150.128 732.9,151.976 L732.9,162 L730.66,162 L730.66,153.124 C730.66,150.548 729.68,149.232 727.552,149.232 C725.788,149.232 724.108,150.128 724.108,151.976 L724.108,162 Z M747.432,144.164 C746.48,144.164 746.06,143.66 746.06,142.904 L746.06,142.54 C746.06,141.784 746.48,141.28 747.432,141.28 C748.384,141.28 748.804,141.784 748.804,142.54 L748.804,142.904 C748.804,143.66 748.384,144.164 747.432,144.164 Z M746.312,162 L746.312,147.552 L748.552,147.552 L748.552,162 L746.312,162 Z M758.688,162.336 C754.628,162.336 752.248,159.396 752.248,154.776 C752.248,150.156 754.628,147.216 758.688,147.216 C761.544,147.216 763.252,148.616 764.092,150.604 L762.216,151.556 C761.684,150.072 760.452,149.204 758.688,149.204 C756.028,149.204 754.656,151.024 754.656,153.544 L754.656,156.008 C754.656,158.528 756.028,160.348 758.688,160.348 C760.508,160.348 761.824,159.48 762.608,157.828 L764.232,158.92 C763.308,160.992 761.432,162.336 758.688,162.336 Z M786.184,163.596 C786.184,166.564 783.832,167.936 779.184,167.936 C774.676,167.936 772.828,166.648 772.828,164.38 C772.828,162.812 773.696,161.972 775.124,161.58 L775.124,161.272 C774.312,160.88 773.836,160.236 773.836,159.256 C773.836,157.8 774.872,157.1 776.328,156.736 L776.328,156.624 C774.62,155.812 773.612,154.216 773.612,152.2 C773.612,149.26 775.768,147.216 779.044,147.216 C780.08,147.216 781.004,147.412 781.788,147.776 L781.788,147.524 C781.788,146.404 782.264,145.592 783.468,145.592 L785.624,145.592 L785.624,147.552 L782.88,147.552 L782.88,148.476 C783.916,149.372 784.532,150.66 784.532,152.2 C784.532,155.14 782.376,157.184 779.072,157.184 C778.596,157.184 778.092,157.128 777.672,157.044 C776.72,157.296 775.768,157.772 775.768,158.668 C775.768,159.536 776.664,159.76 777.98,159.76 L781.06,159.76 C784.644,159.76 786.184,161.216 786.184,163.596 Z M784.084,163.764 C784.084,162.616 783.328,161.86 781.088,161.86 L776.272,161.86 C775.348,162.28 774.928,162.924 774.928,163.82 C774.928,165.08 775.796,166.116 778.064,166.116 L780.136,166.116 C782.628,166.116 784.084,165.332 784.084,163.764 Z M779.072,155.392 C780.976,155.392 782.18,154.496 782.18,152.592 L782.18,151.808 C782.18,149.904 780.976,149.008 779.072,149.008 C777.168,149.008 775.964,149.904 775.964,151.808 L775.964,152.592 C775.964,154.496 777.168,155.392 779.072,155.392 Z M793.156,162 L791.168,162 C789.628,162 788.788,161.02 788.788,159.676 L788.788,141.28 L791.028,141.28 L791.028,160.04 L793.156,160.04 L793.156,162 Z M801.864,162.336 C798,162.336 795.34,159.368 795.34,154.776 C795.34,150.184 798,147.216 801.864,147.216 C805.728,147.216 808.388,150.184 808.388,154.776 C808.388,159.368 805.728,162.336 801.864,162.336 Z M801.864,160.348 C804.272,160.348 805.98,158.864 805.98,155.812 L805.98,153.74 C805.98,150.688 804.272,149.204 801.864,149.204 C799.456,149.204 797.748,150.688 797.748,153.74 L797.748,155.812 C797.748,158.864 799.456,160.348 801.864,160.348 Z M812.084,162 L812.084,141.28 L814.324,141.28 L814.324,149.904 L814.436,149.904 C815.192,148.084 816.676,147.216 818.664,147.216 C822.276,147.216 824.544,150.156 824.544,154.776 C824.544,159.396 822.276,162.336 818.664,162.336 C816.676,162.336 815.304,161.44 814.436,159.648 L814.324,159.648 L814.324,162 L812.084,162 Z M818.048,160.32 C820.568,160.32 822.136,158.584 822.136,156.008 L822.136,153.544 C822.136,150.968 820.568,149.232 818.048,149.232 C816.004,149.232 814.324,150.408 814.324,152.004 L814.324,157.38 C814.324,159.256 816.004,160.32 818.048,160.32 Z M840.084,162 L838.824,162 C837.172,162 836.5,160.992 836.332,159.648 L836.192,159.648 C835.576,161.412 834.036,162.336 832.02,162.336 C828.968,162.336 827.176,160.656 827.176,157.968 C827.176,155.252 829.136,153.74 833.336,153.74 L836.192,153.74 L836.192,152.312 C836.192,150.268 835.072,149.148 832.776,149.148 C831.04,149.148 829.892,149.988 829.108,151.304 L827.764,150.044 C828.548,148.504 830.284,147.216 832.888,147.216 C836.36,147.216 838.432,149.036 838.432,152.088 L838.432,160.04 L840.084,160.04 L840.084,162 Z M832.384,160.432 C834.596,160.432 836.192,159.284 836.192,157.8 L836.192,155.42 L833.224,155.42 C830.676,155.42 829.528,156.204 829.528,157.604 L829.528,158.192 C829.528,159.62 830.648,160.432 832.384,160.432 Z M847.644,162 L845.656,162 C844.116,162 843.276,161.02 843.276,159.676 L843.276,141.28 L845.516,141.28 L845.516,160.04 L847.644,160.04 L847.644,162 Z M867.468,162.336 C866.292,162.336 865.76,161.664 865.76,160.712 L865.76,160.348 C865.76,159.396 866.292,158.724 867.468,158.724 C868.644,158.724 869.176,159.396 869.176,160.348 L869.176,160.712 C869.176,161.664 868.644,162.336 867.468,162.336 Z M860.02,162.336 C858.844,162.336 858.312,161.664 858.312,160.712 L858.312,160.348 C858.312,159.396 858.844,158.724 860.02,158.724 C861.196,158.724 861.728,159.396 861.728,160.348 L861.728,160.712 C861.728,161.664 861.196,162.336 860.02,162.336 Z M852.6,162.336 C851.424,162.336 850.892,161.664 850.892,160.712 L850.892,160.348 C850.892,159.396 851.424,158.724 852.6,158.724 C853.776,158.724 854.308,159.396 854.308,160.348 L854.308,160.712 C854.308,161.664 853.776,162.336 852.6,162.336 Z M70.84,236 L70.84,227.152 L60.956,227.152 L60.956,236 L58.604,236 L58.604,216.456 L60.956,216.456 L60.956,225.08 L70.84,225.08 L70.84,216.456 L73.192,216.456 L73.192,236 L70.84,236 Z M83.636,236.336 C79.772,236.336 77.112,233.368 77.112,228.776 C77.112,224.184 79.772,221.216 83.636,221.216 C87.5,221.216 90.16,224.184 90.16,228.776 C90.16,233.368 87.5,236.336 83.636,236.336 Z M83.636,234.348 C86.044,234.348 87.752,232.864 87.752,229.812 L87.752,227.74 C87.752,224.688 86.044,223.204 83.636,223.204 C81.228,223.204 79.52,224.688 79.52,227.74 L79.52,229.812 C79.52,232.864 81.228,234.348 83.636,234.348 Z M96.068,236 L92.204,221.552 L94.388,221.552 L95.928,227.796 L97.468,234.124 L97.524,234.124 L99.288,227.796 L101.108,221.552 L103.096,221.552 L104.972,227.796 L106.764,234.124 L106.82,234.124 L108.304,227.796 L109.872,221.552 L111.972,221.552 L108.136,236 L105.364,236 L103.348,229.056 L102.088,224.66 L102.032,224.66 L100.8,229.056 L98.784,236 L96.068,236 Z M127.204,236.336 C123.144,236.336 120.764,233.396 120.764,228.776 C120.764,224.156 123.144,221.216 127.204,221.216 C130.06,221.216 131.768,222.616 132.608,224.604 L130.732,225.556 C130.2,224.072 128.968,223.204 127.204,223.204 C124.544,223.204 123.172,225.024 123.172,227.544 L123.172,230.008 C123.172,232.528 124.544,234.348 127.204,234.348 C129.024,234.348 130.34,233.48 131.124,231.828 L132.748,232.92 C131.824,234.992 129.948,236.336 127.204,236.336 Z M147.672,236 L146.412,236 C144.76,236 144.088,234.992 143.92,233.648 L143.78,233.648 C143.164,235.412 141.624,236.336 139.608,236.336 C136.556,236.336 134.764,234.656 134.764,231.968 C134.764,229.252 136.724,227.74 140.924,227.74 L143.78,227.74 L143.78,226.312 C143.78,224.268 142.66,223.148 140.364,223.148 C138.628,223.148 137.48,223.988 136.696,225.304 L135.352,224.044 C136.136,222.504 137.872,221.216 140.476,221.216 C143.948,221.216 146.02,223.036 146.02,226.088 L146.02,234.04 L147.672,234.04 L147.672,236 Z M139.972,234.432 C142.184,234.432 143.78,233.284 143.78,231.8 L143.78,229.42 L140.812,229.42 C138.264,229.42 137.116,230.204 137.116,231.604 L137.116,232.192 C137.116,233.62 138.236,234.432 139.972,234.432 Z M153.104,236 L150.864,236 L150.864,221.552 L153.104,221.552 L153.104,223.904 L153.216,223.904 C153.916,222.28 155.148,221.216 157.304,221.216 C160.272,221.216 162.148,223.232 162.148,226.732 L162.148,236 L159.908,236 L159.908,227.124 C159.908,224.548 158.788,223.232 156.632,223.232 C154.84,223.232 153.104,224.128 153.104,225.976 L153.104,236 Z M178.836,236.336 C174.972,236.336 172.312,233.368 172.312,228.776 C172.312,224.184 174.972,221.216 178.836,221.216 C182.7,221.216 185.36,224.184 185.36,228.776 C185.36,233.368 182.7,236.336 178.836,236.336 Z M178.836,234.348 C181.244,234.348 182.952,232.864 182.952,229.812 L182.952,227.74 C182.952,224.688 181.244,223.204 178.836,223.204 C176.428,223.204 174.72,224.688 174.72,227.74 L174.72,229.812 C174.72,232.864 176.428,234.348 178.836,234.348 Z M191.296,236 L189.056,236 L189.056,221.552 L191.296,221.552 L191.296,224.212 L191.436,224.212 C191.94,222.84 193.256,221.552 195.608,221.552 L196.476,221.552 L196.476,223.792 L195.16,223.792 C192.752,223.792 191.296,224.828 191.296,226.2 L191.296,236 Z M210.868,237.596 C210.868,240.564 208.516,241.936 203.868,241.936 C199.36,241.936 197.512,240.648 197.512,238.38 C197.512,236.812 198.38,235.972 199.808,235.58 L199.808,235.272 C198.996,234.88 198.52,234.236 198.52,233.256 C198.52,231.8 199.556,231.1 201.012,230.736 L201.012,230.624 C199.304,229.812 198.296,228.216 198.296,226.2 C198.296,223.26 200.452,221.216 203.728,221.216 C204.764,221.216 205.688,221.412 206.472,221.776 L206.472,221.524 C206.472,220.404 206.948,219.592 208.152,219.592 L210.308,219.592 L210.308,221.552 L207.564,221.552 L207.564,222.476 C208.6,223.372 209.216,224.66 209.216,226.2 C209.216,229.14 207.06,231.184 203.756,231.184 C203.28,231.184 202.776,231.128 202.356,231.044 C201.404,231.296 200.452,231.772 200.452,232.668 C200.452,233.536 201.348,233.76 202.664,233.76 L205.744,233.76 C209.328,233.76 210.868,235.216 210.868,237.596 Z M208.768,237.764 C208.768,236.616 208.012,235.86 205.772,235.86 L200.956,235.86 C200.032,236.28 199.612,236.924 199.612,237.82 C199.612,239.08 200.48,240.116 202.748,240.116 L204.82,240.116 C207.312,240.116 208.768,239.332 208.768,237.764 Z M203.756,229.392 C205.66,229.392 206.864,228.496 206.864,226.592 L206.864,225.808 C206.864,223.904 205.66,223.008 203.756,223.008 C201.852,223.008 200.648,223.904 200.648,225.808 L200.648,226.592 C200.648,228.496 201.852,229.392 203.756,229.392 Z M225.148,236 L223.888,236 C222.236,236 221.564,234.992 221.396,233.648 L221.256,233.648 C220.64,235.412 219.1,236.336 217.084,236.336 C214.032,236.336 212.24,234.656 212.24,231.968 C212.24,229.252 214.2,227.74 218.4,227.74 L221.256,227.74 L221.256,226.312 C221.256,224.268 220.136,223.148 217.84,223.148 C216.104,223.148 214.956,223.988 214.172,225.304 L212.828,224.044 C213.612,222.504 215.348,221.216 217.952,221.216 C221.424,221.216 223.496,223.036 223.496,226.088 L223.496,234.04 L225.148,234.04 L225.148,236 Z M217.448,234.432 C219.66,234.432 221.256,233.284 221.256,231.8 L221.256,229.42 L218.288,229.42 C215.74,229.42 214.592,230.204 214.592,231.604 L214.592,232.192 C214.592,233.62 215.712,234.432 217.448,234.432 Z M230.58,236 L228.34,236 L228.34,221.552 L230.58,221.552 L230.58,223.904 L230.692,223.904 C231.392,222.28 232.624,221.216 234.78,221.216 C237.748,221.216 239.624,223.232 239.624,226.732 L239.624,236 L237.384,236 L237.384,227.124 C237.384,224.548 236.264,223.232 234.108,223.232 C232.316,223.232 230.58,224.128 230.58,225.976 L230.58,236 Z M245.364,218.164 C244.412,218.164 243.992,217.66 243.992,216.904 L243.992,216.54 C243.992,215.784 244.412,215.28 245.364,215.28 C246.316,215.28 246.736,215.784 246.736,216.54 L246.736,216.904 C246.736,217.66 246.316,218.164 245.364,218.164 Z M244.244,236 L244.244,221.552 L246.484,221.552 L246.484,236 L244.244,236 Z M260.932,236 L249.788,236 L249.788,234.124 L257.992,223.512 L250.04,223.512 L250.04,221.552 L260.708,221.552 L260.708,223.232 L252.336,234.04 L260.932,234.04 L260.932,236 Z M275.996,236 L274.736,236 C273.084,236 272.412,234.992 272.244,233.648 L272.104,233.648 C271.488,235.412 269.948,236.336 267.932,236.336 C264.88,236.336 263.088,234.656 263.088,231.968 C263.088,229.252 265.048,227.74 269.248,227.74 L272.104,227.74 L272.104,226.312 C272.104,224.268 270.984,223.148 268.688,223.148 C266.952,223.148 265.804,223.988 265.02,225.304 L263.676,224.044 C264.46,222.504 266.196,221.216 268.8,221.216 C272.272,221.216 274.344,223.036 274.344,226.088 L274.344,234.04 L275.996,234.04 L275.996,236 Z M268.296,234.432 C270.508,234.432 272.104,233.284 272.104,231.8 L272.104,229.42 L269.136,229.42 C266.588,229.42 265.44,230.204 265.44,231.604 L265.44,232.192 C265.44,233.62 266.56,234.432 268.296,234.432 Z M285.18,236 L282.38,236 C280.84,236 280,235.02 280,233.62 L280,223.512 L277.62,223.512 L277.62,221.552 L278.964,221.552 C279.916,221.552 280.224,221.216 280.224,220.236 L280.224,217.548 L282.24,217.548 L282.24,221.552 L285.404,221.552 L285.404,223.512 L282.24,223.512 L282.24,234.04 L285.18,234.04 L285.18,236 Z M290.136,218.164 C289.184,218.164 288.764,217.66 288.764,216.904 L288.764,216.54 C288.764,215.784 289.184,215.28 290.136,215.28 C291.088,215.28 291.508,215.784 291.508,216.54 L291.508,216.904 C291.508,217.66 291.088,218.164 290.136,218.164 Z M289.016,236 L289.016,221.552 L291.256,221.552 L291.256,236 L289.016,236 Z M301.476,236.336 C297.612,236.336 294.952,233.368 294.952,228.776 C294.952,224.184 297.612,221.216 301.476,221.216 C305.34,221.216 308,224.184 308,228.776 C308,233.368 305.34,236.336 301.476,236.336 Z M301.476,234.348 C303.884,234.348 305.592,232.864 305.592,229.812 L305.592,227.74 C305.592,224.688 303.884,223.204 301.476,223.204 C299.068,223.204 297.36,224.688 297.36,227.74 L297.36,229.812 C297.36,232.864 299.068,234.348 301.476,234.348 Z M313.936,236 L311.696,236 L311.696,221.552 L313.936,221.552 L313.936,223.904 L314.048,223.904 C314.748,222.28 315.98,221.216 318.136,221.216 C321.104,221.216 322.98,223.232 322.98,226.732 L322.98,236 L320.74,236 L320.74,227.124 C320.74,224.548 319.62,223.232 317.464,223.232 C315.672,223.232 313.936,224.128 313.936,225.976 L313.936,236 Z M331.94,236.336 C329.28,236.336 327.516,235.216 326.228,233.508 L327.824,232.22 C328.944,233.62 330.288,234.432 332.108,234.432 C334.012,234.432 335.132,233.564 335.132,232.08 C335.132,230.96 334.516,230.092 332.612,229.812 L331.464,229.644 C328.804,229.252 326.816,228.16 326.816,225.472 C326.816,222.616 329.028,221.216 331.968,221.216 C334.292,221.216 335.832,222.084 337.008,223.54 L335.524,224.884 C334.88,223.988 333.648,223.12 331.8,223.12 C329.952,223.12 328.972,223.988 328.972,225.36 C328.972,226.76 329.952,227.32 331.744,227.6 L332.864,227.768 C336.056,228.244 337.288,229.644 337.288,231.828 C337.288,234.628 335.244,236.336 331.94,236.336 Z M363.16,236.336 C359.296,236.336 356.636,233.368 356.636,228.776 C356.636,224.184 359.296,221.216 363.16,221.216 C367.024,221.216 369.684,224.184 369.684,228.776 C369.684,233.368 367.024,236.336 363.16,236.336 Z M363.16,234.348 C365.568,234.348 367.276,232.864 367.276,229.812 L367.276,227.74 C367.276,224.688 365.568,223.204 363.16,223.204 C360.752,223.204 359.044,224.688 359.044,227.74 L359.044,229.812 C359.044,232.864 360.752,234.348 363.16,234.348 Z M373.996,236 L373.996,223.512 L371.644,223.512 L371.644,221.552 L373.996,221.552 L373.996,218.64 C373.996,216.652 375.032,215.28 377.16,215.28 L379.344,215.28 L379.344,217.24 L376.236,217.24 L376.236,221.552 L379.344,221.552 L379.344,223.512 L376.236,223.512 L376.236,236 L373.996,236 Z M400.652,236 L399.392,236 C397.74,236 397.068,234.992 396.9,233.648 L396.76,233.648 C396.144,235.412 394.604,236.336 392.588,236.336 C389.536,236.336 387.744,234.656 387.744,231.968 C387.744,229.252 389.704,227.74 393.904,227.74 L396.76,227.74 L396.76,226.312 C396.76,224.268 395.64,223.148 393.344,223.148 C391.608,223.148 390.46,223.988 389.676,225.304 L388.332,224.044 C389.116,222.504 390.852,221.216 393.456,221.216 C396.928,221.216 399,223.036 399,226.088 L399,234.04 L400.652,234.04 L400.652,236 Z M392.952,234.432 C395.164,234.432 396.76,233.284 396.76,231.8 L396.76,229.42 L393.792,229.42 C391.244,229.42 390.096,230.204 390.096,231.604 L390.096,232.192 C390.096,233.62 391.216,234.432 392.952,234.432 Z M406.084,236 L403.844,236 L403.844,221.552 L406.084,221.552 L406.084,223.904 L406.196,223.904 C406.896,222.28 408.128,221.216 410.284,221.216 C413.252,221.216 415.128,223.232 415.128,226.732 L415.128,236 L412.888,236 L412.888,227.124 C412.888,224.548 411.768,223.232 409.612,223.232 C407.82,223.232 406.084,224.128 406.084,225.976 L406.084,236 Z M424.928,231.38 L428.428,221.552 L430.64,221.552 L424.172,239.36 C423.528,241.096 422.94,241.6 420.812,241.6 L419.664,241.6 L419.664,239.64 L421.932,239.64 L423.024,236.56 L417.62,221.552 L419.86,221.552 L423.332,231.38 L424.004,233.732 L424.144,233.732 L424.928,231.38 Z M444.444,236.336 C441.784,236.336 440.02,235.216 438.732,233.508 L440.328,232.22 C441.448,233.62 442.792,234.432 444.612,234.432 C446.516,234.432 447.636,233.564 447.636,232.08 C447.636,230.96 447.02,230.092 445.116,229.812 L443.968,229.644 C441.308,229.252 439.32,228.16 439.32,225.472 C439.32,222.616 441.532,221.216 444.472,221.216 C446.796,221.216 448.336,222.084 449.512,223.54 L448.028,224.884 C447.384,223.988 446.152,223.12 444.304,223.12 C442.456,223.12 441.476,223.988 441.476,225.36 C441.476,226.76 442.456,227.32 444.248,227.6 L445.368,227.768 C448.56,228.244 449.792,229.644 449.792,231.828 C449.792,234.628 447.748,236.336 444.444,236.336 Z M454.86,218.164 C453.908,218.164 453.488,217.66 453.488,216.904 L453.488,216.54 C453.488,215.784 453.908,215.28 454.86,215.28 C455.812,215.28 456.232,215.784 456.232,216.54 L456.232,216.904 C456.232,217.66 455.812,218.164 454.86,218.164 Z M453.74,236 L453.74,221.552 L455.98,221.552 L455.98,236 L453.74,236 Z M470.428,236 L459.284,236 L459.284,234.124 L467.488,223.512 L459.536,223.512 L459.536,221.552 L470.204,221.552 L470.204,223.232 L461.832,234.04 L470.428,234.04 L470.428,236 Z M478.884,236.336 C474.964,236.336 472.388,233.368 472.388,228.776 C472.388,224.184 474.964,221.216 478.884,221.216 C482.748,221.216 485.128,224.184 485.128,228.272 L485.128,229.336 L474.74,229.336 L474.74,230.008 C474.74,232.5 476.336,234.376 479.024,234.376 C480.844,234.376 482.244,233.48 483,231.884 L484.596,233.032 C483.672,234.992 481.6,236.336 478.884,236.336 Z M478.884,223.092 C476.448,223.092 474.74,224.94 474.74,227.46 L474.74,227.656 L482.72,227.656 L482.72,227.348 C482.72,224.8 481.18,223.092 478.884,223.092 Z M515.088,236 L515.088,233.648 L514.976,233.648 C514.108,235.44 512.736,236.336 510.748,236.336 C507.136,236.336 504.868,233.396 504.868,228.776 C504.868,224.156 507.136,221.216 510.748,221.216 C512.736,221.216 514.22,222.084 514.976,223.904 L515.088,223.904 L515.088,215.28 L517.328,215.28 L517.328,236 L515.088,236 Z M511.364,234.32 C513.408,234.32 515.088,233.256 515.088,231.38 L515.088,226.004 C515.088,224.408 513.408,223.232 511.364,223.232 C508.844,223.232 507.276,224.968 507.276,227.544 L507.276,230.008 C507.276,232.584 508.844,234.32 511.364,234.32 Z M527.52,236.336 C523.6,236.336 521.024,233.368 521.024,228.776 C521.024,224.184 523.6,221.216 527.52,221.216 C531.384,221.216 533.764,224.184 533.764,228.272 L533.764,229.336 L523.376,229.336 L523.376,230.008 C523.376,232.5 524.972,234.376 527.66,234.376 C529.48,234.376 530.88,233.48 531.636,231.884 L533.232,233.032 C532.308,234.992 530.236,236.336 527.52,236.336 Z M527.52,223.092 C525.084,223.092 523.376,224.94 523.376,227.46 L523.376,227.656 L531.356,227.656 L531.356,227.348 C531.356,224.8 529.816,223.092 527.52,223.092 Z M549.22,236 L547.96,236 C546.308,236 545.636,234.992 545.468,233.648 L545.328,233.648 C544.712,235.412 543.172,236.336 541.156,236.336 C538.104,236.336 536.312,234.656 536.312,231.968 C536.312,229.252 538.272,227.74 542.472,227.74 L545.328,227.74 L545.328,226.312 C545.328,224.268 544.208,223.148 541.912,223.148 C540.176,223.148 539.028,223.988 538.244,225.304 L536.9,224.044 C537.684,222.504 539.42,221.216 542.024,221.216 C545.496,221.216 547.568,223.036 547.568,226.088 L547.568,234.04 L549.22,234.04 L549.22,236 Z M541.52,234.432 C543.732,234.432 545.328,233.284 545.328,231.8 L545.328,229.42 L542.36,229.42 C539.812,229.42 538.664,230.204 538.664,231.604 L538.664,232.192 C538.664,233.62 539.784,234.432 541.52,234.432 Z M556.78,236 L554.792,236 C553.252,236 552.412,235.02 552.412,233.676 L552.412,215.28 L554.652,215.28 L554.652,234.04 L556.78,234.04 L556.78,236 Z M568.988,236 L565.124,221.552 L567.308,221.552 L568.848,227.796 L570.388,234.124 L570.444,234.124 L572.208,227.796 L574.028,221.552 L576.016,221.552 L577.892,227.796 L579.684,234.124 L579.74,234.124 L581.224,227.796 L582.792,221.552 L584.892,221.552 L581.056,236 L578.284,236 L576.268,229.056 L575.008,224.66 L574.952,224.66 L573.72,229.056 L571.704,236 L568.988,236 Z M589.26,218.164 C588.308,218.164 587.888,217.66 587.888,216.904 L587.888,216.54 C587.888,215.784 588.308,215.28 589.26,215.28 C590.212,215.28 590.632,215.784 590.632,216.54 L590.632,216.904 C590.632,217.66 590.212,218.164 589.26,218.164 Z M588.14,236 L588.14,221.552 L590.38,221.552 L590.38,236 L588.14,236 Z M601.132,236 L598.332,236 C596.792,236 595.952,235.02 595.952,233.62 L595.952,223.512 L593.572,223.512 L593.572,221.552 L594.916,221.552 C595.868,221.552 596.176,221.216 596.176,220.236 L596.176,217.548 L598.192,217.548 L598.192,221.552 L601.356,221.552 L601.356,223.512 L598.192,223.512 L598.192,234.04 L601.132,234.04 L601.132,236 Z M604.968,236 L604.968,215.28 L607.208,215.28 L607.208,223.904 L607.32,223.904 C608.02,222.28 609.252,221.216 611.408,221.216 C614.376,221.216 616.252,223.232 616.252,226.732 L616.252,236 L614.012,236 L614.012,227.124 C614.012,224.548 612.892,223.232 610.736,223.232 C608.944,223.232 607.208,224.128 607.208,225.976 L607.208,236 L604.968,236 Z M639.24,236 L637.98,236 C636.328,236 635.656,234.992 635.488,233.648 L635.348,233.648 C634.732,235.412 633.192,236.336 631.176,236.336 C628.124,236.336 626.332,234.656 626.332,231.968 C626.332,229.252 628.292,227.74 632.492,227.74 L635.348,227.74 L635.348,226.312 C635.348,224.268 634.228,223.148 631.932,223.148 C630.196,223.148 629.048,223.988 628.264,225.304 L626.92,224.044 C627.704,222.504 629.44,221.216 632.044,221.216 C635.516,221.216 637.588,223.036 637.588,226.088 L637.588,234.04 L639.24,234.04 L639.24,236 Z M631.54,234.432 C633.752,234.432 635.348,233.284 635.348,231.8 L635.348,229.42 L632.38,229.42 C629.832,229.42 628.684,230.204 628.684,231.604 L628.684,232.192 C628.684,233.62 629.804,234.432 631.54,234.432 Z M658.28,236 L658.28,233.648 L658.168,233.648 C657.3,235.44 655.928,236.336 653.94,236.336 C650.328,236.336 648.06,233.396 648.06,228.776 C648.06,224.156 650.328,221.216 653.94,221.216 C655.928,221.216 657.412,222.084 658.168,223.904 L658.28,223.904 L658.28,215.28 L660.52,215.28 L660.52,236 L658.28,236 Z M654.556,234.32 C656.6,234.32 658.28,233.256 658.28,231.38 L658.28,226.004 C658.28,224.408 656.6,223.232 654.556,223.232 C652.036,223.232 650.468,224.968 650.468,227.544 L650.468,230.008 C650.468,232.584 652.036,234.32 654.556,234.32 Z M670.684,231.38 L674.184,221.552 L676.396,221.552 L669.928,239.36 C669.284,241.096 668.696,241.6 666.568,241.6 L665.42,241.6 L665.42,239.64 L667.688,239.64 L668.78,236.56 L663.376,221.552 L665.616,221.552 L669.088,231.38 L669.76,233.732 L669.9,233.732 L670.684,231.38 Z M681.492,236 L679.252,236 L679.252,221.552 L681.492,221.552 L681.492,223.904 L681.604,223.904 C682.304,222.28 683.536,221.216 685.692,221.216 C688.66,221.216 690.536,223.232 690.536,226.732 L690.536,236 L688.296,236 L688.296,227.124 C688.296,224.548 687.176,223.232 685.02,223.232 C683.228,223.232 681.492,224.128 681.492,225.976 L681.492,236 Z M706.916,236 L705.656,236 C704.004,236 703.332,234.992 703.164,233.648 L703.024,233.648 C702.408,235.412 700.868,236.336 698.852,236.336 C695.8,236.336 694.008,234.656 694.008,231.968 C694.008,229.252 695.968,227.74 700.168,227.74 L703.024,227.74 L703.024,226.312 C703.024,224.268 701.904,223.148 699.608,223.148 C697.872,223.148 696.724,223.988 695.94,225.304 L694.596,224.044 C695.38,222.504 697.116,221.216 699.72,221.216 C703.192,221.216 705.264,223.036 705.264,226.088 L705.264,234.04 L706.916,234.04 L706.916,236 Z M699.216,234.432 C701.428,234.432 703.024,233.284 703.024,231.8 L703.024,229.42 L700.056,229.42 C697.508,229.42 696.36,230.204 696.36,231.604 L696.36,232.192 C696.36,233.62 697.48,234.432 699.216,234.432 Z M712.348,236 L710.108,236 L710.108,221.552 L712.348,221.552 L712.348,223.904 L712.46,223.904 C713.104,222.42 714.112,221.216 716.352,221.216 C718.256,221.216 719.992,222.084 720.776,224.156 L720.832,224.156 C721.364,222.588 722.764,221.216 725.228,221.216 C728.168,221.216 729.932,223.232 729.932,226.732 L729.932,236 L727.692,236 L727.692,227.124 C727.692,224.576 726.712,223.232 724.528,223.232 C722.764,223.232 721.14,224.128 721.14,225.976 L721.14,236 L718.9,236 L718.9,227.124 C718.9,224.548 717.92,223.232 715.792,223.232 C714.028,223.232 712.348,224.128 712.348,225.976 L712.348,236 Z M735.672,218.164 C734.72,218.164 734.3,217.66 734.3,216.904 L734.3,216.54 C734.3,215.784 734.72,215.28 735.672,215.28 C736.624,215.28 737.044,215.784 737.044,216.54 L737.044,216.904 C737.044,217.66 736.624,218.164 735.672,218.164 Z M734.552,236 L734.552,221.552 L736.792,221.552 L736.792,236 L734.552,236 Z M746.928,236.336 C742.868,236.336 740.488,233.396 740.488,228.776 C740.488,224.156 742.868,221.216 746.928,221.216 C749.784,221.216 751.492,222.616 752.332,224.604 L750.456,225.556 C749.924,224.072 748.692,223.204 746.928,223.204 C744.268,223.204 742.896,225.024 742.896,227.544 L742.896,230.008 C742.896,232.528 744.268,234.348 746.928,234.348 C748.748,234.348 750.064,233.48 750.848,231.828 L752.472,232.92 C751.548,234.992 749.672,236.336 746.928,236.336 Z M774.424,237.596 C774.424,240.564 772.072,241.936 767.424,241.936 C762.916,241.936 761.068,240.648 761.068,238.38 C761.068,236.812 761.936,235.972 763.364,235.58 L763.364,235.272 C762.552,234.88 762.076,234.236 762.076,233.256 C762.076,231.8 763.112,231.1 764.568,230.736 L764.568,230.624 C762.86,229.812 761.852,228.216 761.852,226.2 C761.852,223.26 764.008,221.216 767.284,221.216 C768.32,221.216 769.244,221.412 770.028,221.776 L770.028,221.524 C770.028,220.404 770.504,219.592 771.708,219.592 L773.864,219.592 L773.864,221.552 L771.12,221.552 L771.12,222.476 C772.156,223.372 772.772,224.66 772.772,226.2 C772.772,229.14 770.616,231.184 767.312,231.184 C766.836,231.184 766.332,231.128 765.912,231.044 C764.96,231.296 764.008,231.772 764.008,232.668 C764.008,233.536 764.904,233.76 766.22,233.76 L769.3,233.76 C772.884,233.76 774.424,235.216 774.424,237.596 Z M772.324,237.764 C772.324,236.616 771.568,235.86 769.328,235.86 L764.512,235.86 C763.588,236.28 763.168,236.924 763.168,237.82 C763.168,239.08 764.036,240.116 766.304,240.116 L768.376,240.116 C770.868,240.116 772.324,239.332 772.324,237.764 Z M767.312,229.392 C769.216,229.392 770.42,228.496 770.42,226.592 L770.42,225.808 C770.42,223.904 769.216,223.008 767.312,223.008 C765.408,223.008 764.204,223.904 764.204,225.808 L764.204,226.592 C764.204,228.496 765.408,229.392 767.312,229.392 Z M781.396,236 L779.408,236 C777.868,236 777.028,235.02 777.028,233.676 L777.028,215.28 L779.268,215.28 L779.268,234.04 L781.396,234.04 L781.396,236 Z M790.104,236.336 C786.24,236.336 783.58,233.368 783.58,228.776 C783.58,224.184 786.24,221.216 790.104,221.216 C793.968,221.216 796.628,224.184 796.628,228.776 C796.628,233.368 793.968,236.336 790.104,236.336 Z M790.104,234.348 C792.512,234.348 794.22,232.864 794.22,229.812 L794.22,227.74 C794.22,224.688 792.512,223.204 790.104,223.204 C787.696,223.204 785.988,224.688 785.988,227.74 L785.988,229.812 C785.988,232.864 787.696,234.348 790.104,234.348 Z M800.324,236 L800.324,215.28 L802.564,215.28 L802.564,223.904 L802.676,223.904 C803.432,222.084 804.916,221.216 806.904,221.216 C810.516,221.216 812.784,224.156 812.784,228.776 C812.784,233.396 810.516,236.336 806.904,236.336 C804.916,236.336 803.544,235.44 802.676,233.648 L802.564,233.648 L802.564,236 L800.324,236 Z M806.288,234.32 C808.808,234.32 810.376,232.584 810.376,230.008 L810.376,227.544 C810.376,224.968 808.808,223.232 806.288,223.232 C804.244,223.232 802.564,224.408 802.564,226.004 L802.564,231.38 C802.564,233.256 804.244,234.32 806.288,234.32 Z M828.324,236 L827.064,236 C825.412,236 824.74,234.992 824.572,233.648 L824.432,233.648 C823.816,235.412 822.276,236.336 820.26,236.336 C817.208,236.336 815.416,234.656 815.416,231.968 C815.416,229.252 817.376,227.74 821.576,227.74 L824.432,227.74 L824.432,226.312 C824.432,224.268 823.312,223.148 821.016,223.148 C819.28,223.148 818.132,223.988 817.348,225.304 L816.004,224.044 C816.788,222.504 818.524,221.216 821.128,221.216 C824.6,221.216 826.672,223.036 826.672,226.088 L826.672,234.04 L828.324,234.04 L828.324,236 Z M820.624,234.432 C822.836,234.432 824.432,233.284 824.432,231.8 L824.432,229.42 L821.464,229.42 C818.916,229.42 817.768,230.204 817.768,231.604 L817.768,232.192 C817.768,233.62 818.888,234.432 820.624,234.432 Z M835.884,236 L833.896,236 C832.356,236 831.516,235.02 831.516,233.676 L831.516,215.28 L833.756,215.28 L833.756,234.04 L835.884,234.04 L835.884,236 Z M855.708,236.336 C854.532,236.336 854,235.664 854,234.712 L854,234.348 C854,233.396 854.532,232.724 855.708,232.724 C856.884,232.724 857.416,233.396 857.416,234.348 L857.416,234.712 C857.416,235.664 856.884,236.336 855.708,236.336 Z M848.26,236.336 C847.084,236.336 846.552,235.664 846.552,234.712 L846.552,234.348 C846.552,233.396 847.084,232.724 848.26,232.724 C849.436,232.724 849.968,233.396 849.968,234.348 L849.968,234.712 C849.968,235.664 849.436,236.336 848.26,236.336 Z M840.84,236.336 C839.664,236.336 839.132,235.664 839.132,234.712 L839.132,234.348 C839.132,233.396 839.664,232.724 840.84,232.724 C842.016,232.724 842.548,233.396 842.548,234.348 L842.548,234.712 C842.548,235.664 842.016,236.336 840.84,236.336 Z" id="How-can-organization" fill="#3D3D3D"></path>
                <polygon id="Path" fill="#D12765" points="347.816 80.692 340.508 80.692 340.508 78.284 347.816 78.284"></polygon>
                <polygon id="Path" fill="#D12765" points="490.672 80.692 483.364 80.692 483.364 78.284 490.672 78.284"></polygon>
                <polygon id="Path" fill="#D12765" points="347.816 154.692 340.508 154.692 340.508 152.284 347.816 152.284"></polygon>
                <polygon id="Path" fill="#D12765" points="358.988 154.692 351.68 154.692 351.68 152.284 358.988 152.284"></polygon>
                <polygon id="Path" fill="#D12765" points="501.844 154.692 494.536 154.692 494.536 152.284 501.844 152.284"></polygon>
                <polygon id="Path" fill="#D12765" points="513.016 154.692 505.708 154.692 505.708 152.284 513.016 152.284"></polygon>
                <polygon id="Path" fill="#D12765" points="354.032 228.552 339.584 228.552 339.584 226.424 354.032 226.424"></polygon>
                <polygon id="Path" fill="#D12765" points="502.18 228.552 487.732 228.552 487.732 226.424 502.18 226.424"></polygon>
            </g>
        </g>
    </g>
</svg>