<svg xmlns="http://www.w3.org/2000/svg" viewBox="0 0 288 144"><g fill="none" fill-rule="evenodd"><path fill="#FFF" d="M0 0h288v144H0z"/><path d="M37.2 66.024h-5.328V81h-2.016V66.024h-5.328v-1.776H37.2v1.776zM39.101 81V63.24h1.92v7.392h.096c.6-1.392 1.656-2.304 3.504-2.304 2.544 0 4.152 1.728 4.152 4.728V81h-1.92v-7.608c0-2.208-.96-3.336-2.808-3.336-1.536 0-3.024.768-3.024 2.352V81h-1.92zm13.926-15.288c-.816 0-1.176-.432-1.176-1.08v-.312c0-.648.36-1.08 1.176-1.08s1.176.432 1.176 1.08v.312c0 .648-.36 1.08-1.176 1.08zM52.067 81V68.616h1.92V81h-1.92zm9.053.288c-2.28 0-3.792-.96-4.896-2.424l1.368-1.104c.96 1.2 2.112 1.896 3.672 1.896 1.632 0 2.592-.744 2.592-2.016 0-.96-.528-1.704-2.16-1.944l-.984-.144c-2.28-.336-3.984-1.272-3.984-3.576 0-2.448 1.896-3.648 4.416-3.648 1.992 0 3.312.744 4.32 1.992l-1.272 1.152c-.552-.768-1.608-1.512-3.192-1.512s-2.424.744-2.424 1.92c0 1.2.84 1.68 2.376 1.92l.96.144c2.736.408 3.792 1.608 3.792 3.48 0 2.4-1.752 3.864-4.584 3.864zm13.259-15.576c-.816 0-1.176-.432-1.176-1.08v-.312c0-.648.36-1.08 1.176-1.08s1.176.432 1.176 1.08v.312c0 .648-.36 1.08-1.176 1.08zM73.419 81V68.616h1.92V81h-1.92zm9.053.288c-2.28 0-3.792-.96-4.896-2.424l1.368-1.104c.96 1.2 2.112 1.896 3.672 1.896 1.632 0 2.592-.744 2.592-2.016 0-.96-.528-1.704-2.16-1.944l-.984-.144c-2.28-.336-3.984-1.272-3.984-3.576 0-2.448 1.896-3.648 4.416-3.648 1.992 0 3.312.744 4.32 1.992l-1.272 1.152c-.552-.768-1.608-1.512-3.192-1.512s-2.424.744-2.424 1.92c0 1.2.84 1.68 2.376 1.92l.96.144c2.736.408 3.792 1.608 3.792 3.48 0 2.4-1.752 3.864-4.584 3.864zm19.93-.288v-2.016h-.095c-.48 1.176-1.416 2.304-3.48 2.304-2.544 0-4.176-1.728-4.176-4.728v-7.944h1.92v7.608c0 2.208.984 3.336 2.832 3.336 1.512 0 3-.744 3-2.376v-8.568h1.92V81h-1.92zm7.254 0h-1.92V68.616h1.92v2.016h.096c.6-1.392 1.656-2.304 3.504-2.304 2.544 0 4.152 1.728 4.152 4.728V81h-1.92v-7.608c0-2.208-.96-3.336-2.808-3.336-1.536 0-3.024.768-3.024 2.352V81zm15.653.288c-3.48 0-5.52-2.52-5.52-6.48 0-3.96 2.04-6.48 5.52-6.48 2.448 0 3.912 1.2 4.632 2.904l-1.608.816c-.456-1.272-1.512-2.016-3.024-2.016-2.28 0-3.456 1.56-3.456 3.72v2.112c0 2.16 1.176 3.72 3.456 3.72 1.56 0 2.688-.744 3.36-2.16l1.392.936c-.792 1.776-2.4 2.928-4.752 2.928zm11.334 0c-3.312 0-5.592-2.544-5.592-6.48 0-3.936 2.28-6.48 5.592-6.48s5.592 2.544 5.592 6.48c0 3.936-2.28 6.48-5.592 6.48zm0-1.704c2.064 0 3.528-1.272 3.528-3.888V73.92c0-2.616-1.464-3.888-3.528-3.888s-3.528 1.272-3.528 3.888v1.776c0 2.616 1.464 3.888 3.528 3.888zM146.656 81h-1.92V68.616h1.92v2.016h.096c.552-1.272 1.416-2.304 3.336-2.304 1.632 0 3.12.744 3.792 2.52h.048c.456-1.344 1.656-2.52 3.768-2.52 2.52 0 4.032 1.728 4.032 4.728V81h-1.92v-7.608c0-2.184-.84-3.336-2.712-3.336-1.512 0-2.904.768-2.904 2.352V81h-1.92v-7.608c0-2.208-.84-3.336-2.664-3.336-1.512 0-2.952.768-2.952 2.352V81zm19.037 0V70.296h-2.016v-1.68h2.016V66.12c0-1.704.888-2.88 2.712-2.88h1.872v1.68h-2.664v3.696h2.664v1.68h-2.664V81h-1.92zm11.022.288c-3.312 0-5.592-2.544-5.592-6.48 0-3.936 2.28-6.48 5.592-6.48s5.592 2.544 5.592 6.48c0 3.936-2.28 6.48-5.592 6.48zm0-1.704c2.064 0 3.528-1.272 3.528-3.888V73.92c0-2.616-1.464-3.888-3.528-3.888s-3.528 1.272-3.528 3.888v1.776c0 2.616 1.464 3.888 3.528 3.888zM186.728 81h-1.92V68.616h1.92v2.28h.12c.432-1.176 1.56-2.28 3.576-2.28h.744v1.92h-1.128c-2.064 0-3.312.888-3.312 2.064V81zm11.453 0h-2.4c-1.32 0-2.04-.84-2.04-2.04v-8.664h-2.04v-1.68h1.152c.816 0 1.08-.288 1.08-1.128v-2.304h1.728v3.432h2.712v1.68h-2.712v9.024h2.52V81zm12.702 0h-1.08c-1.416 0-1.992-.864-2.136-2.016h-.12c-.528 1.512-1.848 2.304-3.576 2.304-2.616 0-4.152-1.44-4.152-3.744 0-2.328 1.68-3.624 5.28-3.624h2.448v-1.224c0-1.752-.96-2.712-2.928-2.712-1.488 0-2.472.72-3.144 1.848l-1.152-1.08c.672-1.32 2.16-2.424 4.392-2.424 2.976 0 4.752 1.56 4.752 4.176v6.816h1.416V81zm-6.6-1.344c1.896 0 3.264-.984 3.264-2.256v-2.04h-2.544c-2.184 0-3.168.672-3.168 1.872v.504c0 1.224.96 1.92 2.448 1.92zM212.952 81V63.24h1.92v7.392h.096c.648-1.56 1.92-2.304 3.624-2.304 3.096 0 5.04 2.52 5.04 6.48 0 3.96-1.944 6.48-5.04 6.48-1.704 0-2.88-.768-3.624-2.304h-.096V81h-1.92zm5.112-1.44c2.16 0 3.504-1.488 3.504-3.696v-2.112c0-2.208-1.344-3.696-3.504-3.696-1.752 0-3.192 1.008-3.192 2.376v4.608c0 1.608 1.44 2.52 3.192 2.52zM229.949 81h-1.704c-1.32 0-2.04-.84-2.04-1.992V63.24h1.92v16.08h1.824V81zm6.774.288c-3.36 0-5.568-2.544-5.568-6.48 0-3.936 2.208-6.48 5.568-6.48 3.312 0 5.352 2.544 5.352 6.048v.912h-8.904v.576c0 2.136 1.368 3.744 3.672 3.744 1.56 0 2.76-.768 3.408-2.136l1.368.984c-.792 1.68-2.568 2.832-4.896 2.832zm0-11.352c-2.088 0-3.552 1.584-3.552 3.744v.168h6.84v-.264c0-2.184-1.32-3.648-3.288-3.648zm8.597 11.352c-1.008 0-1.464-.576-1.464-1.392v-.312c0-.816.456-1.392 1.464-1.392s1.464.576 1.464 1.392v.312c0 .816-.456 1.392-1.464 1.392z" fill="#3D3D3D"/></g></svg>