<svg xmlns="http://www.w3.org/2000/svg" viewBox="0 0 928 176"><g fill="none" fill-rule="evenodd"><path fill="#FFF" d="M0 0h928v176H0z"/><path d="M95.6 70.072H79.616V115h-6.048V70.072H57.584v-5.328H95.6v5.328zM101.304 115V61.72h5.76v22.176h.288c1.8-4.176 4.968-6.912 10.512-6.912 7.632 0 12.456 5.184 12.456 14.184V115h-5.76V92.176c0-6.624-2.88-10.008-8.424-10.008-4.608 0-9.072 2.304-9.072 7.056V115h-5.76zm41.776-45.864c-2.448 0-3.528-1.296-3.528-3.24v-.936c0-1.944 1.08-3.24 3.528-3.24s3.528 1.296 3.528 3.24v.936c0 1.944-1.08 3.24-3.528 3.24zM140.2 115V77.848h5.76V115h-5.76zm27.16.864c-6.84 0-11.376-2.88-14.688-7.272l4.104-3.312c2.88 3.6 6.336 5.688 11.016 5.688 4.896 0 7.776-2.232 7.776-6.048 0-2.88-1.584-5.112-6.48-5.832l-2.952-.432c-6.84-1.008-11.952-3.816-11.952-10.728 0-7.344 5.688-10.944 13.248-10.944 5.976 0 9.936 2.232 12.96 5.976l-3.816 3.456c-1.656-2.304-4.824-4.536-9.576-4.536-4.752 0-7.272 2.232-7.272 5.76 0 3.6 2.52 5.04 7.128 5.76l2.88.432c8.208 1.224 11.376 4.824 11.376 10.44 0 7.2-5.256 11.592-13.752 11.592zm39.776-46.728c-2.448 0-3.528-1.296-3.528-3.24v-.936c0-1.944 1.08-3.24 3.528-3.24s3.528 1.296 3.528 3.24v.936c0 1.944-1.08 3.24-3.528 3.24zM204.256 115V77.848h5.76V115h-5.76zm27.16.864c-6.84 0-11.376-2.88-14.688-7.272l4.104-3.312c2.88 3.6 6.336 5.688 11.016 5.688 4.896 0 7.776-2.232 7.776-6.048 0-2.88-1.584-5.112-6.48-5.832l-2.952-.432c-6.84-1.008-11.952-3.816-11.952-10.728 0-7.344 5.688-10.944 13.248-10.944 5.976 0 9.936 2.232 12.96 5.976l-3.816 3.456c-1.656-2.304-4.824-4.536-9.576-4.536-4.752 0-7.272 2.232-7.272 5.76 0 3.6 2.52 5.04 7.128 5.76l2.88.432c8.208 1.224 11.376 4.824 11.376 10.44 0 7.2-5.256 11.592-13.752 11.592zm59.792-.864v-6.048h-.288c-1.44 3.528-4.248 6.912-10.44 6.912-7.632 0-12.528-5.184-12.528-14.184V77.848h5.76v22.824c0 6.624 2.952 10.008 8.496 10.008 4.536 0 9-2.232 9-7.128V77.848h5.76V115h-5.76zm21.76 0h-5.76V77.848h5.76v6.048h.288c1.8-4.176 4.968-6.912 10.512-6.912 7.632 0 12.456 5.184 12.456 14.184V115h-5.76V92.176c0-6.624-2.88-10.008-8.424-10.008-4.608 0-9.072 2.304-9.072 7.056V115zm46.96.864c-10.44 0-16.56-7.56-16.56-19.44 0-11.88 6.12-19.44 16.56-19.44 7.344 0 11.736 3.6 13.896 8.712L369 88.144c-1.368-3.816-4.536-6.048-9.072-6.048-6.84 0-10.368 4.68-10.368 11.16v6.336c0 6.48 3.528 11.16 10.368 11.16 4.68 0 8.064-2.232 10.08-6.48l4.176 2.808c-2.376 5.328-7.2 8.784-14.256 8.784zm34 0c-9.936 0-16.776-7.632-16.776-19.44 0-11.808 6.84-19.44 16.776-19.44s16.776 7.632 16.776 19.44c0 11.808-6.84 19.44-16.776 19.44zm0-5.112c6.192 0 10.584-3.816 10.584-11.664V93.76c0-7.848-4.392-11.664-10.584-11.664-6.192 0-10.584 3.816-10.584 11.664v5.328c0 7.848 4.392 11.664 10.584 11.664zm30.04 4.248h-5.76V77.848h5.76v6.048h.288c1.656-3.816 4.248-6.912 10.008-6.912 4.896 0 9.36 2.232 11.376 7.56h.144c1.368-4.032 4.968-7.56 11.304-7.56 7.56 0 12.096 5.184 12.096 14.184V115h-5.76V92.176c0-6.552-2.52-10.008-8.136-10.008-4.536 0-8.712 2.304-8.712 7.056V115h-5.76V92.176c0-6.624-2.52-10.008-7.992-10.008-4.536 0-8.856 2.304-8.856 7.056V115zm57.112 0V82.888h-6.048v-5.04h6.048V70.36c0-5.112 2.664-8.64 8.136-8.64h5.616v5.04h-7.992v11.088h7.992v5.04h-7.992V115h-5.76zm33.064.864c-9.936 0-16.776-7.632-16.776-19.44 0-11.808 6.84-19.44 16.776-19.44s16.776 7.632 16.776 19.44c0 11.808-6.84 19.44-16.776 19.44zm0-5.112c6.192 0 10.584-3.816 10.584-11.664V93.76c0-7.848-4.392-11.664-10.584-11.664-6.192 0-10.584 3.816-10.584 11.664v5.328c0 7.848 4.392 11.664 10.584 11.664zm30.04 4.248h-5.76V77.848h5.76v6.84h.36c1.296-3.528 4.68-6.84 10.728-6.84h2.232v5.76h-3.384c-6.192 0-9.936 2.664-9.936 6.192V115zm34.36 0h-7.2c-3.96 0-6.12-2.52-6.12-6.12V82.888h-6.12v-5.04h3.456c2.448 0 3.24-.864 3.24-3.384v-6.912h5.184v10.296h8.136v5.04h-8.136v27.072h7.56V115zm38.104 0h-3.24c-4.248 0-5.976-2.592-6.408-6.048h-.36c-1.584 4.536-5.544 6.912-10.728 6.912-7.848 0-12.456-4.32-12.456-11.232 0-6.984 5.04-10.872 15.84-10.872h7.344v-3.672c0-5.256-2.88-8.136-8.784-8.136-4.464 0-7.416 2.16-9.432 5.544l-3.456-3.24c2.016-3.96 6.48-7.272 13.176-7.272 8.928 0 14.256 4.68 14.256 12.528v20.448h4.248V115zm-19.8-4.032c5.688 0 9.792-2.952 9.792-6.768v-6.12h-7.632c-6.552 0-9.504 2.016-9.504 5.616v1.512c0 3.672 2.88 5.76 7.344 5.76zM622.856 115V61.72h5.76v22.176h.288c1.944-4.68 5.76-6.912 10.872-6.912 9.288 0 15.12 7.56 15.12 19.44 0 11.88-5.832 19.44-15.12 19.44-5.112 0-8.64-2.304-10.872-6.912h-.288V115h-5.76zm15.336-4.32c6.48 0 10.512-4.464 10.512-11.088v-6.336c0-6.624-4.032-11.088-10.512-11.088-5.256 0-9.576 3.024-9.576 7.128v13.824c0 4.824 4.32 7.56 9.576 7.56zm35.656 4.32h-5.112c-3.96 0-6.12-2.52-6.12-5.976V61.72h5.76v48.24h5.472V115zm20.32.864c-10.08 0-16.704-7.632-16.704-19.44 0-11.808 6.624-19.44 16.704-19.44 9.936 0 16.056 7.632 16.056 18.144v2.736h-26.712v1.728c0 6.408 4.104 11.232 11.016 11.232 4.68 0 8.28-2.304 10.224-6.408l4.104 2.952c-2.376 5.04-7.704 8.496-14.688 8.496zm0-34.056c-6.264 0-10.656 4.752-10.656 11.232v.504h20.52v-.792c0-6.552-3.96-10.944-9.864-10.944zm25.792 34.056c-3.024 0-4.392-1.728-4.392-4.176v-.936c0-2.448 1.368-4.176 4.392-4.176s4.392 1.728 4.392 4.176v.936c0 2.448-1.368 4.176-4.392 4.176z" fill="#3D3D3D"/></g></svg>