<svg xmlns="http://www.w3.org/2000/svg" viewBox="0 0 32 32"><g fill="none"><path fill="#152600" d="M1 1h30v29H1z"/><path d="M0 0v31h32V0H0zm1.641 1.632h28.718v27.736H1.641V1.632z" fill="#87EC00"/><path d="M10.47 9.996H7.143A.154.154 0 017 9.847l.214-1.696a.154.154 0 01.143-.148h8.145c.04-.01.082.003.11.033.03.03.042.074.033.115l.142 1.696a.127.127 0 01-.032.116.116.116 0 01-.11.033h-3.043v11.856a.154.154 0 01-.143.148h-1.775a.154.154 0 01-.142-.148V9.996h-.072zm8.851 6.331l2.987-4.207a.239.239 0 01.182-.14h1.99c.142 0 .142.074.07.148-.499.667-2.622 3.392-3.335 4.273v.148l3.755 5.229c.072.074 0 .148-.07.148h-2.235a.24.24 0 01-.175-.148c-.641-.881-2.266-3.294-3.121-4.496v4.496a.127.127 0 01-.032.115.116.116 0 01-.111.033h-1.878a.116.116 0 01-.11-.033.127.127 0 01-.033-.115V8.15a.127.127 0 01.032-.115.116.116 0 01.111-.033h1.846a.154.154 0 01.143.148v8.176h-.016z" fill="#87EC00"/></g></svg>