<?xml version="1.0" encoding="utf-8"?>
<!-- Generator: Adobe Illustrator 22.1.0, SVG Export Plug-In . SVG Version: 6.00 Build 0)  -->
<svg version="1.1" id="Layer_1" xmlns="http://www.w3.org/2000/svg" xmlns:xlink="http://www.w3.org/1999/xlink" x="0px" y="0px"
	 viewBox="0 0 288 288" style="enable-background:new 0 0 288 288;" xml:space="preserve">
<style type="text/css">
	.st0{fill:#171717;}
	.st1{fill:#A4A4A4;}
	.st2{fill:#0062FF;}
	.st3{fill:none;}
	.st4{fill:#F3F3F3;}
	.st5{fill:url(#SVGID_1_);}
	.st6{fill:url(#SVGID_2_);}
	.st7{fill:url(#SVGID_3_);}
	.st8{fill:url(#SVGID_4_);}
	.st9{fill:url(#SVGID_5_);}
	.st10{fill:url(#SVGID_6_);}
	.st11{fill:url(#SVGID_7_);}
	.st12{fill:url(#SVGID_8_);}
	.st13{fill:url(#SVGID_9_);}
</style>
<title>Artboard 18 copy 51</title>
<rect class="st0" width="288" height="288"/>
<path class="st1" d="M132,47h24v2h-24V47z M132,56h24v2h-24V56z M132,38h24v2h-24V38z"/>
<rect x="112" y="80" class="st2" width="64" height="64"/>
<rect x="128" y="96" class="st3" width="32" height="32"/>
<path class="st4" d="M133.2,122.8c4.4,4.2,11.3,4.2,15.6-0.2c4.2-4.3,4.2-11.1,0-15.4L133.2,122.8z"/>
<linearGradient id="SVGID_1_" gradientUnits="userSpaceOnUse" x1="133.0485" y1="174.0094" x2="152.5785" y2="189.6494" gradientTransform="matrix(1 0 0 -1 0 288)">
	<stop  offset="0.1" style="stop-color:#20D5D2"/>
	<stop  offset="0.9" style="stop-color:#0072C3"/>
</linearGradient>
<path class="st5" d="M154.8,101.2c-4.4-4.2-11.3-4.1-15.6,0.2c-4.2,4.3-4.2,11.1,0,15.4L154.8,101.2z"/>
<linearGradient id="SVGID_2_" gradientUnits="userSpaceOnUse" x1="139.0296" y1="96.6824" x2="154.8896" y2="116.6924" gradientTransform="matrix(1 0 0 -1 0 288)">
	<stop  offset="0" style="stop-color:#171717"/>
	<stop  offset="1" style="stop-color:#565656"/>
</linearGradient>
<path class="st6" d="M140,188v-8h8v8H140z M156,180v-8h-8v8H156z"/>
<rect x="148" y="180" class="st4" width="8" height="8"/>
<linearGradient id="SVGID_3_" gradientUnits="userSpaceOnUse" x1="130.7925" y1="129.1517" x2="149.5625" y2="102.2917" gradientTransform="matrix(1 0 0 -1 0 288)">
	<stop  offset="0" style="stop-color:#FA75A6"/>
	<stop  offset="1" style="stop-color:#A970FF"/>
</linearGradient>
<rect x="132" y="164" class="st7" width="16" height="16"/>
<rect x="128" y="160" class="st3" width="32" height="32"/>
<rect x="128" y="224" class="st3" width="32" height="32"/>
<linearGradient id="SVGID_4_" gradientUnits="userSpaceOnUse" x1="144" y1="41.085" x2="157.83" y2="41.085" gradientTransform="matrix(1 0 0 -1 0 288)">
	<stop  offset="0" style="stop-color:#F3F3F3;stop-opacity:0.4"/>
	<stop  offset="1" style="stop-color:#F3F3F3;stop-opacity:0.1"/>
</linearGradient>
<path class="st8" d="M144,253.8L144,253.8c7.6,0,13.8-6.2,13.8-13.8H144"/>
<linearGradient id="SVGID_5_" gradientUnits="userSpaceOnUse" x1="143.99" y1="54.92" x2="153.78" y2="54.92" gradientTransform="matrix(1 0 0 -1 0 288)">
	<stop  offset="0" style="stop-color:#F3F3F3;stop-opacity:0.1"/>
	<stop  offset="1" style="stop-color:#F3F3F3;stop-opacity:0.4"/>
</linearGradient>
<path class="st9" d="M144,226.2V240l0,0l9.8-9.8C151.2,227.6,147.7,226.2,144,226.2z"/>
<path class="st4" d="M153.8,230.2L144,240h13.8C157.8,236.3,156.4,232.8,153.8,230.2z"/>
<rect x="128" y="224" class="st3" width="32" height="32"/>
<linearGradient id="SVGID_6_" gradientUnits="userSpaceOnUse" x1="144" y1="41" x2="158" y2="41" gradientTransform="matrix(1 0 0 -1 0 288)">
	<stop  offset="0" style="stop-color:#565656"/>
	<stop  offset="1" style="stop-color:#171717"/>
</linearGradient>
<path class="st10" d="M144,254L144,254c7.7,0,14-6.3,14-14h-14"/>
<linearGradient id="SVGID_7_" gradientUnits="userSpaceOnUse" x1="143.98" y1="55" x2="153.89" y2="55" gradientTransform="matrix(1 0 0 -1 0 288)">
	<stop  offset="0" style="stop-color:#171717"/>
	<stop  offset="1" style="stop-color:#565656"/>
</linearGradient>
<path class="st11" d="M144,226v14l0,0l9.9-9.9C151.3,227.5,147.7,226,144,226z"/>
<path class="st4" d="M153.9,230.1L144,240h14C158,236.3,156.5,232.7,153.9,230.1z"/>
<linearGradient id="SVGID_8_" gradientUnits="userSpaceOnUse" x1="147.1384" y1="58.5145" x2="130.9684" y2="33.9244" gradientTransform="matrix(1 0 0 -1 0 288)">
	<stop  offset="0" style="stop-color:#BB8EFF"/>
	<stop  offset="1" style="stop-color:#418CFF"/>
</linearGradient>
<path class="st12" d="M144,240v-14c-7.7,0-14,6.3-14,14l0,0c0,7.7,6.3,14,14,14V240z"/>
<linearGradient id="SVGID_9_" gradientUnits="userSpaceOnUse" x1="147.1384" y1="58.5145" x2="130.9684" y2="33.9244" gradientTransform="matrix(1 0 0 -1 0 288)">
	<stop  offset="0" style="stop-color:#BB8EFF"/>
	<stop  offset="1" style="stop-color:#418CFF"/>
</linearGradient>
<path class="st13" d="M144,240v-14c-7.7,0-14,6.3-14,14l0,0c0,7.7,6.3,14,14,14V240z"/>
</svg>
