<?xml version="1.0" encoding="utf-8"?>
<!-- Generator: Adobe Illustrator 22.1.0, SVG Export Plug-In . SVG Version: 6.00 Build 0)  -->
<svg version="1.1" id="Layer_1" xmlns="http://www.w3.org/2000/svg" xmlns:xlink="http://www.w3.org/1999/xlink" x="0px" y="0px"
	 viewBox="0 0 448 448" style="enable-background:new 0 0 448 448;" xml:space="preserve">
<style type="text/css">
	.st0{fill:#FFFFFF;}
	.st1{fill:#E9F0FF;}
	.st2{fill:none;stroke:#6EA2FF;stroke-miterlimit:10;}
	.st3{fill:none;stroke:#6EA2FF;stroke-width:0.25;stroke-miterlimit:10;}
	.st4{fill:none;stroke:#F675A2;stroke-width:0.25;stroke-miterlimit:10;}
	.st5{fill:#888888;}
</style>
<title>BaselineGrid</title>
<rect class="st0" width="448" height="448"/>
<g>
	<path class="st1" d="M32.4,128.3v191.5h383.5V128.3H32.4z M403.6,307.4H44.5V140.6h359.1V307.4z"/>
	<line class="st2" x1="32.1" y1="140.6" x2="415.9" y2="140.6"/>
	<line class="st2" x1="32.1" y1="307.4" x2="415.9" y2="307.4"/>
	<line class="st2" x1="403.6" y1="319.8" x2="403.6" y2="128.2"/>
	<line class="st2" x1="44.5" y1="319.8" x2="44.5" y2="128.2"/>
	<line class="st2" x1="134.3" y1="319.8" x2="134.3" y2="128.3"/>
	<line class="st2" x1="89.4" y1="319.8" x2="89.4" y2="128.3"/>
	<line class="st2" x1="179.2" y1="319.8" x2="179.2" y2="128.3"/>
	<line class="st2" x1="269" y1="319.8" x2="269" y2="128.3"/>
	<line class="st2" x1="358.8" y1="319.8" x2="358.8" y2="128.3"/>
	<line class="st2" x1="313.9" y1="319.8" x2="313.9" y2="128.3"/>
	<line class="st2" x1="224.1" y1="319.8" x2="224.1" y2="128.3"/>
	<rect x="32.4" y="128.2" class="st2" width="383.5" height="191.6"/>
	<line class="st3" x1="415.9" y1="134.4" x2="32.1" y2="134.4"/>
	<line class="st3" x1="415.9" y1="146.8" x2="32.1" y2="146.8"/>
	<line class="st4" x1="415.9" y1="152.9" x2="32.1" y2="152.9"/>
	<line class="st3" x1="415.9" y1="159.1" x2="32.1" y2="159.1"/>
	<line class="st3" x1="415.9" y1="165.3" x2="32.1" y2="165.3"/>
	<line class="st3" x1="415.9" y1="171.5" x2="32.1" y2="171.5"/>
	<line class="st3" x1="415.9" y1="177.7" x2="32.1" y2="177.7"/>
	<line class="st3" x1="415.9" y1="183.8" x2="32.1" y2="183.8"/>
	<line class="st3" x1="415.9" y1="190" x2="32.1" y2="190"/>
	<line class="st3" x1="415.9" y1="196.2" x2="32.1" y2="196.2"/>
	<line class="st3" x1="415.9" y1="202.4" x2="32.1" y2="202.4"/>
	<line class="st3" x1="415.9" y1="208.6" x2="32.1" y2="208.6"/>
	<line class="st3" x1="415.9" y1="214.7" x2="32.1" y2="214.7"/>
	<line class="st4" x1="415.9" y1="220.9" x2="32.1" y2="220.9"/>
	<line class="st3" x1="415.9" y1="227.1" x2="32.1" y2="227.1"/>
	<line class="st3" x1="415.9" y1="233.3" x2="32.1" y2="233.3"/>
	<line class="st3" x1="415.9" y1="239.5" x2="32.1" y2="239.5"/>
	<line class="st3" x1="415.9" y1="245.6" x2="32.1" y2="245.6"/>
	<line class="st3" x1="415.9" y1="251.8" x2="32.1" y2="251.8"/>
	<line class="st3" x1="415.9" y1="258" x2="32.1" y2="258"/>
	<line class="st3" x1="415.9" y1="264.2" x2="32.1" y2="264.2"/>
	<line class="st3" x1="415.9" y1="270.3" x2="32.1" y2="270.3"/>
	<line class="st3" x1="415.9" y1="276.5" x2="32.1" y2="276.5"/>
	<line class="st3" x1="415.9" y1="282.7" x2="32.1" y2="282.7"/>
	<line class="st3" x1="415.9" y1="288.9" x2="32.1" y2="288.9"/>
	<line class="st3" x1="415.9" y1="295.1" x2="32.1" y2="295.1"/>
	<line class="st3" x1="415.9" y1="301.2" x2="32.1" y2="301.2"/>
	<line class="st3" x1="415.9" y1="313.6" x2="32.1" y2="313.6"/>
	<path class="st5" d="M270.8,146.8c-0.4,0-0.7-0.3-0.8-0.6c0,0,0-0.1,0-0.1v-3.2h-0.8v-0.6h0.4c0.3,0,0.4-0.1,0.4-0.4v-0.9h0.6v1.3
		h1v0.6h-1v3.4h1v0.6H270.8z"/>
	<path class="st5" d="M272.9,140.1h0.7v2.8l0,0c0.2-0.5,0.7-0.9,1.3-0.9c1,0,1.6,0.6,1.6,1.8v3h-0.7v-2.9c0-0.8-0.4-1.3-1.1-1.3
		s-1.1,0.3-1.1,0.9v3.2h-0.7L272.9,140.1z"/>
	<path class="st5" d="M277.9,140.6v-0.1c0-0.2,0.1-0.4,0.4-0.4s0.4,0.2,0.4,0.4v0.1c0,0.2-0.1,0.4-0.4,0.4S277.9,140.9,277.9,140.6z
		 M278,142.1h0.7v4.6H278V142.1z"/>
	<path class="st5" d="M280.2,146.8v-4.6h0.8v0.8l0,0c0.2-0.5,0.7-0.9,1.3-0.9c1,0,1.6,0.6,1.6,1.8v3h-0.7v-2.9
		c0-0.8-0.4-1.3-1.1-1.3s-1.1,0.3-1.1,0.9v3.2L280.2,146.8z"/>
	<path class="st5" d="M285.4,140.1h0.7v4.2l0,0l0.7-0.8l1.3-1.4h0.9l-1.7,1.8l1.9,2.8h-0.9l-1.5-2.4l-0.7,0.7v1.7h-0.7L285.4,140.1z
		"/>
	<path class="st5" d="M296.3,146.8h-4.1V146l2-1.9c0.6-0.4,0.9-1.1,1-1.8v-0.1c0.1-0.6-0.4-1.1-1-1.2c-0.1,0-0.1,0-0.2,0
		c-0.6,0-1.2,0.4-1.3,1.1l-0.7-0.3c0.2-0.9,1.1-1.5,2-1.5c1-0.1,1.8,0.6,1.9,1.6c0,0.1,0,0.2,0,0.3c-0.1,1-0.6,1.8-1.4,2.4l-1.6,1.5
		h3.3L296.3,146.8z"/>
	<path class="st5" d="M297.4,143.6c0-2.1,0.7-3.2,2.2-3.2s2.2,1.2,2.2,3.2s-0.7,3.2-2.2,3.2S297.4,145.7,297.4,143.6z M300.9,144.1
		v-1c0-1.2-0.4-2.1-1.4-2.1s-1.4,0.9-1.4,2.1v1c0,1.2,0.4,2.1,1.4,2.1S300.9,145.4,300.9,144.1L300.9,144.1z"/>
	<path class="st5" d="M303.1,146.8v-0.7h1.8V141h-0.1l-1.6,1.5l-0.4-0.5l1.7-1.6h1.2v5.6h1.6v0.7H303.1z"/>
	<path class="st5" d="M308.2,145.1c0-0.8,0.5-1.4,1.3-1.6v-0.1c-0.7-0.2-1.1-0.8-1.1-1.5c0-1,0.7-1.6,2-1.6s2,0.6,2,1.6
		c0,0.7-0.4,1.3-1.1,1.5v0.1c0.8,0.1,1.3,0.8,1.3,1.6c0,1-0.7,1.8-2.2,1.8S308.2,146.1,308.2,145.1z M311.7,145.1v-0.2
		c0-0.7-0.5-1.1-1.4-1.1s-1.4,0.4-1.4,1.1v0.2c0,0.7,0.5,1.1,1.4,1.1S311.7,145.8,311.7,145.1L311.7,145.1z M311.6,142.1V142
		c0-0.6-0.4-1-1.2-1s-1.2,0.4-1.2,1v0.1c0,0.6,0.4,1,1.2,1S311.6,142.8,311.6,142.1L311.6,142.1z"/>
	<path class="st5" d="M269.8,152.8h1l1.8,3.4h0l1.8-3.4h1v6.3h-0.7v-5.3h0l-0.5,1.1l-1.5,2.7l-1.5-2.7l-0.5-1.1l0,0v5.3h-0.7
		L269.8,152.8z"/>
	<path class="st5" d="M280.4,159.1c-0.4,0-0.8-0.3-0.8-0.7c0,0,0,0,0,0l0,0c-0.2,0.6-0.7,0.9-1.3,0.9c-0.7,0.1-1.4-0.4-1.5-1.2
		c0-0.1,0-0.2,0-0.2c0-0.9,0.6-1.4,2-1.4h0.9v-0.5c0-0.6-0.4-1-1.1-1c-0.5,0-0.9,0.3-1.2,0.7l-0.4-0.4c0.3-0.6,1-0.9,1.6-0.9
		c1.1,0,1.8,0.6,1.8,1.6v2.6h0.5v0.6L280.4,159.1z M279.6,157.7v-0.8h-1c-0.8,0-1.2,0.3-1.2,0.7v0.2c0,0.5,0.4,0.7,0.9,0.7
		C279,158.6,279.6,158.2,279.6,157.7L279.6,157.7z"/>
	<path class="st5" d="M281.8,159.1v-4.6h0.7v0.9h0c0.2-0.6,0.8-0.9,1.3-0.9h0.3v0.7h-0.4c-0.8,0-1.2,0.3-1.2,0.8v3.1H281.8z"/>
	<path class="st5" d="M284.8,156.7c0-1.5,0.8-2.4,2.1-2.4c0.8-0.1,1.5,0.4,1.7,1.1l-0.6,0.3c-0.2-0.5-0.6-0.8-1.1-0.8
		c-0.7,0-1.3,0.5-1.3,1.2c0,0.1,0,0.1,0,0.2v0.8c-0.1,0.7,0.4,1.3,1.1,1.4c0.1,0,0.1,0,0.2,0c0.5,0,1.1-0.3,1.3-0.8l0.5,0.4
		c-0.3,0.7-1,1.1-1.8,1.1C285.5,159.2,284.8,158.2,284.8,156.7z"/>
	<path class="st5" d="M289.6,152.4h0.7v2.8l0,0c0.2-0.5,0.7-0.9,1.3-0.9c1,0,1.6,0.6,1.6,1.8v3h-0.7v-2.9c0-0.8-0.4-1.3-1.1-1.3
		s-1.1,0.3-1.1,0.9v3.2h-0.7L289.6,152.4z"/>
	<path class="st5" d="M296.9,159.1v-0.7h1.8v-5.1h-0.1l-1.6,1.5l-0.4-0.5l1.7-1.6h1.2v5.6h1.6v0.7H296.9z"/>
	<path class="st5" d="M304.1,159.1h-1c1.2-0.7,2.1-1.9,2.4-3.3l0,0c-0.3,0.6-0.9,0.9-1.5,0.9c-1,0-1.8-0.7-1.9-1.7
		c0-0.1,0-0.1,0-0.2c0-1.1,0.8-2,1.9-2.1c0.1,0,0.1,0,0.2,0c1.3,0,2.1,0.9,2.1,2.4C306.2,156.7,305.4,158.2,304.1,159.1z
		 M305.5,154.7L305.5,154.7c0-0.8-0.6-1.4-1.3-1.4s-1.3,0.6-1.3,1.3c0,0,0,0,0,0v0.1c0,0.7,0.6,1.3,1.3,1.3
		C304.9,156,305.5,155.5,305.5,154.7C305.5,154.7,305.5,154.7,305.5,154.7z"/>
	<path class="st5" d="M307.2,156.7V156h4.6v0.7H307.2z"/>
	<path class="st5" d="M317,159.1h-4.1v-0.8l2-1.9c0.6-0.4,0.9-1.1,1-1.8v-0.1c0.1-0.6-0.4-1.1-0.9-1.2c-0.1,0-0.1,0-0.2,0
		c-0.6,0-1.2,0.4-1.3,1.1l-0.7-0.3c0.2-0.9,1.1-1.5,2-1.5c1-0.1,1.8,0.6,1.9,1.6c0,0.1,0,0.2,0,0.3c-0.1,1-0.6,1.8-1.4,2.4l-1.7,1.5
		h3.4V159.1z"/>
	<path class="st5" d="M322.4,159.1h-4.1v-0.8l2-1.9c0.6-0.4,0.9-1.1,1-1.8v-0.1c0.1-0.6-0.4-1.1-0.9-1.2c-0.1,0-0.1,0-0.2,0
		c-0.6,0-1.2,0.4-1.3,1.1l-0.7-0.3c0.2-0.9,1.1-1.5,2-1.5c1-0.1,1.8,0.6,1.9,1.6c0,0.1,0,0.2,0,0.3c-0.1,1-0.6,1.8-1.4,2.4l-1.7,1.5
		h3.3L322.4,159.1z"/>
	<path class="st5" d="M269.8,171.4v-6.3h0.8v5.6h2.7v0.7H269.8z"/>
	<path class="st5" d="M277.6,171.4c-0.4,0-0.8-0.3-0.8-0.7c0,0,0,0,0-0.1l0,0c-0.2,0.6-0.7,0.9-1.3,0.9c-0.7,0.1-1.4-0.4-1.5-1.2
		c0-0.1,0-0.2,0-0.2c0-0.9,0.6-1.4,2-1.4h0.9v-0.5c0-0.6-0.4-1-1.1-1c-0.5,0-0.9,0.3-1.2,0.7l-0.4-0.4c0.3-0.6,1-0.9,1.6-0.9
		c1.1,0,1.8,0.6,1.8,1.6v2.6h0.5v0.6L277.6,171.4z M276.8,170v-0.8h-1c-0.8,0-1.2,0.3-1.2,0.7v0.2c0,0.5,0.4,0.7,0.9,0.7
		S276.8,170.5,276.8,170L276.8,170z"/>
	<path class="st5" d="M278.6,170.6l0.5-0.4c0.3,0.4,0.8,0.7,1.4,0.7c0.6,0,1-0.3,1-0.8c0-0.5-0.2-0.6-0.8-0.7l-0.4-0.1
		c-0.9-0.1-1.5-0.5-1.5-1.3s0.7-1.4,1.7-1.4c0.6,0,1.2,0.3,1.6,0.8l-0.5,0.4c-0.3-0.4-0.7-0.6-1.2-0.6c-0.6,0-0.9,0.3-0.9,0.7
		s0.3,0.6,0.9,0.7h0.4c1,0.1,1.4,0.6,1.4,1.3c0,0.9-0.7,1.4-1.7,1.4C279.7,171.5,279,171.2,278.6,170.6z"/>
	<path class="st5" d="M287,171.4l-2-6.3h0.8l1,3.2l0.7,2.4l0,0l0.7-2.4l1-3.2h0.8l-2,6.3H287z"/>
	<path class="st5" d="M290.4,169c0-1.5,0.8-2.4,2.1-2.4c1.1,0,2,0.9,2,2c0,0.1,0,0.2,0,0.3v0.4h-3.3v0.2c-0.1,0.7,0.5,1.4,1.2,1.4
		c0,0,0.1,0,0.1,0c0.6,0,1.1-0.3,1.3-0.8l0.5,0.4c-0.4,0.7-1.1,1.1-1.8,1.1c-1.2,0-2.1-1-2.1-2.2C290.4,169.2,290.4,169.1,290.4,169
		z M291.2,168.6L291.2,168.6l2.6,0.1v-0.1c0.1-0.7-0.4-1.3-1.1-1.4c0,0-0.1,0-0.1,0C291.8,167.2,291.2,167.8,291.2,168.6
		C291.2,168.5,291.2,168.6,291.2,168.6L291.2,168.6z"/>
	<path class="st5" d="M297.4,173.3c-1.5,0-2-0.4-2-1.1c0-0.4,0.3-0.8,0.7-0.9v-0.1c-0.3-0.1-0.4-0.4-0.4-0.6c0-0.5,0.3-0.7,0.8-0.8
		l0,0c-0.6-0.3-0.9-0.8-0.9-1.4c0-0.9,0.7-1.6,1.6-1.6c0.1,0,0.1,0,0.2,0c0.3,0,0.6,0.1,0.9,0.2v-0.1c0-0.4,0.1-0.6,0.5-0.6h0.7v0.6
		h-0.9v0.3c0.3,0.3,0.5,0.7,0.5,1.2c0,0.9-0.7,1.6-1.6,1.6c-0.1,0-0.1,0-0.2,0c-0.1,0-0.3,0-0.5,0c-0.3,0.1-0.6,0.2-0.6,0.5
		c0,0.3,0.3,0.4,0.7,0.4h1c1.2,0,1.6,0.5,1.6,1.2C299.6,172.8,298.9,173.3,297.4,173.3z M298,171.3h-1.5c-0.3,0.1-0.4,0.4-0.4,0.6
		c0,0.4,0.3,0.7,1,0.7h0.7c0.8,0,1.3-0.2,1.3-0.8S298.7,171.3,298,171.3L298,171.3z M298.3,168.3V168c0-0.6-0.4-0.9-1-0.9
		s-1,0.3-1,0.9v0.2c0,0.6,0.4,0.9,1,0.9S298.3,169,298.3,168.3L298.3,168.3z"/>
	<path class="st5" d="M303.8,171.4c-0.4,0-0.8-0.3-0.8-0.7c0,0,0,0,0-0.1l0,0c-0.2,0.6-0.7,0.9-1.3,0.9c-0.7,0.1-1.4-0.4-1.5-1.2
		c0-0.1,0-0.2,0-0.2c0-0.9,0.6-1.4,2-1.4h0.9v-0.5c0-0.6-0.4-1-1.1-1c-0.5,0-0.9,0.3-1.2,0.7l-0.4-0.4c0.3-0.6,1-0.9,1.6-0.9
		c1.1,0,1.8,0.6,1.8,1.6v2.6h0.5v0.6L303.8,171.4z M302.9,170v-0.8H302c-0.8,0-1.2,0.3-1.2,0.7v0.2c0,0.5,0.4,0.7,0.9,0.7
		S303,170.5,302.9,170L302.9,170z"/>
	<path class="st5" d="M304.8,170.6l0.5-0.4c0.3,0.4,0.8,0.7,1.4,0.7c0.6,0,1-0.3,1-0.8c0-0.5-0.2-0.6-0.8-0.7l-0.4-0.1
		c-0.9-0.1-1.5-0.5-1.5-1.3s0.7-1.4,1.7-1.4c0.6,0,1.2,0.3,1.6,0.8l-0.5,0.4c-0.3-0.4-0.7-0.6-1.2-0.6c-0.6,0-0.9,0.3-0.9,0.7
		s0.3,0.6,0.9,0.7h0.4c1,0.1,1.4,0.6,1.4,1.3c0,0.9-0.7,1.4-1.7,1.4C305.9,171.5,305.2,171.2,304.8,170.6z"/>
	<path class="st5" d="M310.6,170.8v0.1c0,0.6-0.3,1.2-0.8,1.6h-0.6c0.3-0.3,0.6-0.7,0.7-1.1c-0.2,0-0.4-0.3-0.4-0.5v-0.1
		c0-0.3,0.2-0.5,0.6-0.5C310.3,170.3,310.6,170.5,310.6,170.8L310.6,170.8L310.6,170.8z"/>
	<path class="st5" d="M315.7,167.5l-0.8-1.4l0,0v5.2h-0.7v-6.3h0.9l2.3,3.8l0.8,1.4l0,0v-5.2h0.7v6.3H318L315.7,167.5z"/>
	<path class="st5" d="M322,171.4l-2.1-6.3h0.8l1,3.2l0.7,2.4h0l0.7-2.4l1-3.2h0.8l-2.1,6.3H322z"/>
	<path class="st5" d="M51.9,140.7v9c0,1.9-1.6,3.4-3.6,3.4c-1.6,0-3-1.2-3.3-2.8l1.3-0.3c0.1,1.1,1,1.8,2.1,1.8c1.3,0,2-0.8,2-2.3
		V142h-4.2v-1.3L51.9,140.7z"/>
	<path class="st5" d="M54.2,148.4c0-2.9,1.7-4.7,4.1-4.7s4.1,1.9,4.1,4.7s-1.7,4.7-4.1,4.7S54.2,151.3,54.2,148.4z M60.9,149.1v-1.3
		c0-1.9-1.1-2.8-2.6-2.8s-2.6,0.9-2.6,2.8v1.3c0,1.9,1.1,2.8,2.6,2.8S60.9,151,60.9,149.1L60.9,149.1z"/>
	<path class="st5" d="M64.6,141v-0.2c0-0.5,0.3-0.8,0.9-0.8s0.9,0.3,0.9,0.8v0.2c0,0.5-0.3,0.8-0.9,0.8S64.6,141.5,64.6,141z
		 M64.7,143.9h1.4v9h-1.4V143.9z"/>
	<path class="st5" d="M69.1,152.9v-9h1.4v1.5h0.1c0.4-1.1,1.4-1.8,2.6-1.7c1.9,0,3,1.3,3,3.4v5.8h-1.4v-5.6c0-1.6-0.7-2.4-2-2.4
		c-1.1,0-2.2,0.6-2.2,1.7v6.3L69.1,152.9z"/>
	<path class="st5" d="M85.2,152.9c-0.8,0.1-1.4-0.5-1.5-1.3c0-0.1,0-0.2,0-0.2v-6.3h-1.5v-1.2H83c0.6,0,0.8-0.2,0.8-0.8v-1.7H85v2.5
		h2v1.2h-2v6.6h1.9v1.2L85.2,152.9z"/>
	<path class="st5" d="M89.3,140h1.4v5.4h0.1c0.4-1.1,1.4-1.7,2.6-1.7c1.9,0,3,1.3,3,3.4v5.8H95v-5.6c0-1.6-0.7-2.4-2-2.4
		c-1.1,0-2.2,0.6-2.2,1.7v6.3h-1.5V140z"/>
	<path class="st5" d="M98.6,148.4c0-2.9,1.6-4.7,4.1-4.7s3.9,1.9,3.9,4.4v0.7H100v0.4c-0.1,1.4,1,2.6,2.4,2.7c0.1,0,0.2,0,0.3,0
		c1.1,0,2.1-0.6,2.5-1.5l1,0.7c-0.7,1.3-2.1,2.2-3.6,2.1C100.2,153.2,98.6,151.3,98.6,148.4z M100,147.6v0.1h5v-0.1
		c0.1-1.3-0.8-2.5-2.1-2.6c-0.1,0-0.2,0-0.3,0c-1.4,0-2.6,1.1-2.6,2.5C100,147.5,100,147.5,100,147.6z"/>
	<path class="st5" d="M113,143.9h1.4v1.5h0.1c0.4-1.1,1.5-1.8,2.6-1.7c2.3,0,3.7,1.8,3.7,4.7s-1.4,4.7-3.7,4.7
		c-1.1,0.1-2.2-0.6-2.6-1.7h-0.1v5H113V143.9z M119.3,149.2v-1.5c0.1-1.4-0.9-2.6-2.2-2.7c-0.1,0-0.2,0-0.3,0
		c-1.3,0-2.3,0.7-2.3,1.7v3.4c0,1.2,1.1,1.8,2.3,1.8c1.4,0,2.5-1,2.5-2.4C119.3,149.4,119.3,149.3,119.3,149.2L119.3,149.2z"/>
	<path class="st5" d="M123.1,152.9v-9h1.4v1.6h0.1c0.4-1.1,1.5-1.7,2.6-1.7h0.5v1.4h-0.8c-1.5,0-2.4,0.6-2.4,1.5v6.1L123.1,152.9z"
		/>
	<path class="st5" d="M128.8,148.4c0-2.9,1.6-4.7,4.1-4.7s3.9,1.9,3.9,4.4v0.7h-6.5v0.4c-0.1,1.4,1,2.6,2.4,2.7c0.1,0,0.2,0,0.3,0
		c1.1,0,2.1-0.6,2.5-1.5l1,0.7c-0.7,1.3-2.1,2.1-3.6,2.1C130.4,153.2,128.8,151.3,128.8,148.4z M130.3,147.6v0.1h5v-0.1
		c0.1-1.3-0.8-2.5-2.1-2.6c-0.1,0-0.2,0-0.3,0c-1.4,0-2.6,1.1-2.6,2.5C130.3,147.5,130.3,147.5,130.3,147.6L130.3,147.6z"/>
	<path class="st5" d="M139.1,152.9v-9h1.4v1.5h0.1c0.3-1,1.3-1.7,2.4-1.7c1.2-0.1,2.4,0.7,2.8,1.8l0,0c0.4-1.2,1.5-1.9,2.8-1.8
		c1.8,0,2.9,1.3,2.9,3.4v5.8H150v-5.6c0-1.6-0.6-2.4-2-2.4c-1.1,0-2.1,0.6-2.1,1.7v6.3h-1.4v-5.5c0-1.6-0.6-2.4-1.9-2.4
		c-1.1,0-2.1,0.6-2.1,1.7v6.3L139.1,152.9z"/>
	<path class="st5" d="M154.2,141v-0.2c0-0.5,0.3-0.8,0.9-0.8s0.9,0.3,0.9,0.8v0.2c0,0.4-0.3,0.8-0.7,0.8c-0.1,0-0.1,0-0.2,0
		C154.4,141.8,154.2,141.5,154.2,141z M154.4,143.9h1.4v9h-1.4V143.9z"/>
	<path class="st5" d="M158.1,148.4c0-2.9,1.6-4.7,4.1-4.7s3.9,1.9,3.9,4.4v0.7h-6.5v0.4c-0.1,1.4,1,2.6,2.4,2.7c0.1,0,0.2,0,0.3,0
		c1.1,0,2.1-0.6,2.5-1.5l1,0.7c-0.7,1.3-2.1,2.1-3.6,2.1C159.7,153.2,158.1,151.3,158.1,148.4z M159.5,147.6v0.1h5v-0.1
		c0.1-1.3-0.8-2.5-2.1-2.6c-0.1,0-0.2,0-0.3,0c-1.4,0-2.6,1.1-2.6,2.5C159.5,147.5,159.5,147.5,159.5,147.6L159.5,147.6z"/>
	<path class="st5" d="M168.3,152.9v-9h1.4v1.6h0.1c0.4-1.1,1.5-1.7,2.6-1.7h0.6v1.4h-0.8c-1.5,0-2.4,0.6-2.4,1.5v6.1L168.3,152.9z"
		/>
	<path class="st5" d="M174,148.4c0-2.9,1.6-4.7,4.1-4.7s3.9,1.9,3.9,4.4v0.7h-6.5v0.4c-0.1,1.4,1,2.6,2.4,2.7c0.1,0,0.2,0,0.3,0
		c1.1,0,2-0.6,2.5-1.5l1,0.7c-0.7,1.3-2.1,2.1-3.6,2.1C175.6,153.2,174,151.3,174,148.4z M175.5,147.6v0.1h5v-0.1
		c0.1-1.3-0.8-2.5-2.1-2.6c-0.1,0-0.2,0-0.3,0c-1.4,0-2.6,1.1-2.6,2.5C175.5,147.5,175.5,147.5,175.5,147.6L175.5,147.6z"/>
	<path class="st5" d="M45.3,171c0-2.9,1.5-4.7,4-4.7c1.5-0.1,2.8,0.8,3.4,2.1l-1.2,0.6c-0.3-0.9-1.2-1.5-2.2-1.5
		c-1.3-0.1-2.5,1-2.5,2.3c0,0.1,0,0.3,0,0.4v1.5c-0.2,1.3,0.8,2.5,2.1,2.7c0.1,0,0.3,0,0.4,0c1.1,0,2-0.6,2.5-1.6l1,0.7
		c-0.6,1.4-2,2.2-3.5,2.1C46.8,175.8,45.3,173.9,45.3,171z"/>
	<path class="st5" d="M54,171c0-2.9,1.7-4.7,4.1-4.7s4.1,1.9,4.1,4.7s-1.7,4.7-4.1,4.7S54,173.9,54,171z M60.7,171.7v-1.3
		c0-1.9-1.1-2.8-2.6-2.8s-2.6,0.9-2.6,2.8v1.3c0,1.9,1.1,2.8,2.6,2.8S60.7,173.6,60.7,171.7L60.7,171.7z"/>
	<path class="st5" d="M67.7,179.3c-2.8,0-4-0.8-4-2.2c0-0.9,0.6-1.6,1.4-1.8v-0.2c-0.5-0.2-0.8-0.7-0.8-1.3c0-0.9,0.7-1.3,1.6-1.6
		v-0.1c-1.1-0.5-1.7-1.6-1.7-2.8c0-1.7,1.3-3.1,3.1-3.1c0.1,0,0.2,0,0.3,0c0.6,0,1.2,0.1,1.7,0.4v-0.2c0-0.7,0.3-1.2,1.1-1.2h1.3
		v1.2H70v0.6c0.7,0.6,1,1.4,1,2.3c0,1.7-1.3,3.1-3,3.2c-0.1,0-0.2,0-0.3,0c-0.3,0-0.6,0-0.9-0.1c-0.6,0.2-1.2,0.5-1.2,1
		c0,0.5,0.6,0.7,1.4,0.7h1.9c2.2,0,3.2,0.9,3.2,2.4C72.1,178.4,70.6,179.3,67.7,179.3z M68.9,175.5h-3c-0.5,0.2-0.9,0.7-0.8,1.2
		c0,0.8,0.5,1.4,2,1.4h1.3c1.6,0,2.5-0.5,2.5-1.5C70.8,175.9,70.3,175.5,68.9,175.5z M69.6,169.7v-0.5c0-1.2-0.8-1.8-1.9-1.8
		s-1.9,0.6-1.9,1.8v0.5c0,1.2,0.8,1.8,1.9,1.8S69.6,170.9,69.6,169.7z"/>
	<path class="st5" d="M73.7,175.6v-9h1.4v1.5h0.1c0.4-1.1,1.4-1.7,2.6-1.7c1.8,0,3,1.3,3,3.5v5.8h-1.4V170c0-1.6-0.7-2.4-2-2.4
		c-1.1,0-2.2,0.6-2.2,1.7v6.3H73.7z"/>
	<path class="st5" d="M83.5,163.6v-0.2c0-0.5,0.3-0.8,0.8-0.8s0.9,0.3,0.9,0.8v0.2c0,0.5-0.3,0.8-0.9,0.8c-0.4,0.1-0.8-0.2-0.8-0.6
		C83.5,163.7,83.5,163.6,83.5,163.6z M83.7,166.5h1.4v9h-1.4V166.5z"/>
	<path class="st5" d="M90,175.6c-0.8,0.1-1.4-0.5-1.5-1.2c0-0.1,0-0.2,0-0.2v-6.3h-1.5v-1.2h0.8c0.6,0,0.8-0.2,0.8-0.8V164H90v2.5h2
		v1.2h-2v6.6h1.8v1.2H90z"/>
	<path class="st5" d="M94,163.6v-0.2c0-0.5,0.3-0.8,0.9-0.8s0.9,0.3,0.9,0.8v0.2c0,0.5-0.3,0.8-0.9,0.8S94,164.1,94,163.6z
		 M94.2,166.5h1.4v9h-1.4V166.5z"/>
	<path class="st5" d="M100.6,175.6l-3.2-9h1.4l1.6,4.5l1,3.1h0.1l1-3.1l1.6-4.5h1.3l-3.2,9H100.6z"/>
	<path class="st5" d="M106.4,171c0-2.9,1.6-4.7,4.1-4.7s3.9,1.9,3.9,4.4v0.7h-6.5v0.4c-0.1,1.4,1,2.6,2.4,2.7c0.1,0,0.2,0,0.3,0
		c1.1,0,2.1-0.6,2.5-1.6l1,0.7c-0.7,1.3-2.1,2.1-3.6,2.1C108,175.8,106.4,173.9,106.4,171z M107.8,170.2v0.1h5v-0.2
		c0.1-1.3-0.8-2.5-2.1-2.6c-0.1,0-0.2,0-0.3,0c-1.4,0-2.6,1.1-2.6,2.5C107.8,170.1,107.8,170.1,107.8,170.2z"/>
	<path class="st5" d="M120.1,171c0-2.9,1.5-4.7,4-4.7c1.5-0.1,2.8,0.8,3.4,2.1l-1.2,0.6c-0.3-0.9-1.2-1.5-2.2-1.5
		c-1.3-0.1-2.5,1-2.5,2.3c0,0.1,0,0.3,0,0.4v1.5c-0.2,1.3,0.8,2.5,2.1,2.7c0.1,0,0.3,0,0.4,0c1.1,0,2-0.6,2.4-1.6l1,0.7
		c-0.6,1.4-2,2.2-3.5,2.1C121.6,175.8,120.1,173.9,120.1,171z"/>
	<path class="st5" d="M128.8,171c0-2.9,1.7-4.7,4.1-4.7s4.1,1.9,4.1,4.7s-1.7,4.7-4.1,4.7S128.8,173.9,128.8,171z M135.4,171.7v-1.3
		c0-1.9-1.1-2.8-2.6-2.8s-2.6,0.9-2.6,2.8v1.3c0,1.9,1.1,2.8,2.6,2.8S135.4,173.6,135.4,171.7z"/>
	<path class="st5" d="M139.3,175.6v-9h1.4v1.5h0.1c0.3-1,1.3-1.7,2.4-1.7c1.2-0.1,2.3,0.7,2.8,1.8l0,0c0.4-1.2,1.5-1.9,2.8-1.8
		c1.8,0,2.9,1.3,2.9,3.5v5.8h-1.4V170c0-1.6-0.6-2.4-2-2.4c-1.1,0-2.1,0.6-2.1,1.7v6.3h-1.4V170c0-1.6-0.6-2.4-1.9-2.4
		c-1.1,0-2.1,0.6-2.1,1.7v6.3H139.3z"/>
	<path class="st5" d="M154.5,175.6v-9h1.4v1.5h0.1c0.3-1,1.3-1.7,2.4-1.7c1.2-0.1,2.3,0.7,2.8,1.8l0,0c0.4-1.2,1.5-1.9,2.8-1.8
		c1.8,0,2.9,1.3,2.9,3.5v5.8h-1.4V170c0-1.6-0.6-2.4-2-2.4c-1.1,0-2.1,0.6-2.1,1.7v6.3H160V170c0-1.6-0.6-2.4-1.9-2.4
		c-1.1,0-2.1,0.6-2.1,1.7v6.3H154.5z"/>
	<path class="st5" d="M169.1,171c0-2.9,1.6-4.7,4.1-4.7s3.9,1.9,3.9,4.4v0.7h-6.5v0.4c-0.1,1.4,1,2.6,2.4,2.7c0.1,0,0.2,0,0.3,0
		c1.1,0,2.1-0.6,2.5-1.6l1,0.7c-0.7,1.3-2.1,2.1-3.6,2.1C170.8,175.8,169.1,173.9,169.1,171z M170.6,170.2v0.1h5v-0.2
		c0.1-1.3-0.8-2.5-2.1-2.6c-0.1,0-0.2,0-0.3,0c-1.4,0-2.6,1.1-2.6,2.5C170.6,170.1,170.6,170.1,170.6,170.2z"/>
	<path class="st5" d="M179.4,175.6v-9h1.4v1.7h0.1c0.4-1.1,1.5-1.7,2.6-1.7h0.5v1.4h-0.8c-1.5,0-2.4,0.6-2.4,1.5v6.1H179.4z"/>
	<path class="st5" d="M185.1,171c0-2.9,1.5-4.7,4-4.7c1.5-0.1,2.8,0.8,3.4,2.1l-1.2,0.6c-0.3-0.9-1.2-1.5-2.2-1.5
		c-1.3-0.1-2.5,1-2.5,2.3c0,0.1,0,0.3,0,0.4v1.5c-0.2,1.3,0.8,2.5,2.1,2.7c0.1,0,0.3,0,0.4,0c1.1,0,2-0.6,2.4-1.6l1,0.7
		c-0.6,1.4-2,2.2-3.5,2.1C186.6,175.8,185.1,173.9,185.1,171z"/>
	<path class="st5" d="M193.8,171c0-2.9,1.6-4.7,4.1-4.7s3.9,1.9,3.9,4.4v0.7h-6.5v0.4c-0.1,1.4,1,2.6,2.4,2.7c0.1,0,0.2,0,0.3,0
		c1.1,0,2.1-0.6,2.5-1.6l1,0.7c-0.7,1.3-2.1,2.1-3.6,2.1C195.4,175.8,193.8,173.9,193.8,171z M195.3,170.2v0.1h5v-0.2
		c0.1-1.3-0.8-2.5-2.1-2.6c-0.1,0-0.2,0-0.3,0c-1.4,0-2.6,1.1-2.6,2.5C195.3,170.1,195.3,170.1,195.3,170.2z"/>
	<path class="st5" d="M45.3,193.6c0-2.9,1.6-4.7,4.1-4.7s3.9,1.9,3.9,4.4v0.7h-6.5v0.4c-0.1,1.4,1,2.6,2.4,2.7c0.1,0,0.2,0,0.3,0
		c1.1,0.1,2.1-0.5,2.5-1.5l1,0.7c-0.7,1.3-2.1,2.1-3.6,2.1C46.9,198.4,45.3,196.5,45.3,193.6z M46.8,192.8v0.1h5v-0.2
		c0.1-1.3-0.8-2.5-2.1-2.6c-0.1,0-0.2,0-0.3,0c-1.4,0-2.6,1.1-2.6,2.5C46.8,192.6,46.8,192.7,46.8,192.8L46.8,192.8z"/>
	<path class="st5" d="M57.5,198.1l-3.2-9h1.4l1.6,4.4l1,3.1h0.1l1-3.1l1.6-4.5h1.3l-3.2,9L57.5,198.1z"/>
	<path class="st5" d="M63.3,193.6c0-2.9,1.6-4.7,4.1-4.7s3.9,1.9,3.9,4.4v0.7h-6.5v0.4c-0.1,1.4,1,2.6,2.4,2.7c0.1,0,0.2,0,0.3,0
		c1.1,0,2-0.5,2.5-1.5l1,0.7c-0.7,1.3-2.1,2.1-3.6,2.1C64.9,198.4,63.3,196.5,63.3,193.6z M64.7,192.8v0.1h5v-0.2
		c0.1-1.3-0.8-2.5-2.1-2.6c-0.1,0-0.2,0-0.3,0c-1.4,0-2.6,1.1-2.6,2.5C64.7,192.6,64.7,192.7,64.7,192.8L64.7,192.8z"/>
	<path class="st5" d="M73.5,198.1v-9h1.4v1.4H75c0.4-1.1,1.4-1.7,2.6-1.7c1.8,0,3,1.3,3,3.5v5.8h-1.4v-5.6c0-1.6-0.7-2.4-2-2.4
		c-1.1,0-2.2,0.6-2.2,1.7v6.3L73.5,198.1z"/>
	<path class="st5" d="M85.5,198.1c-0.8,0.1-1.4-0.5-1.5-1.3c0-0.1,0-0.1,0-0.2v-6.3h-1.5v-1.2h0.8c0.6,0,0.8-0.2,0.8-0.8v-1.7h1.3
		v2.5h2v1.2h-2v6.6h1.8v1.2L85.5,198.1z"/>
	<path class="st5" d="M93.1,193.6c0-2.9,1.7-4.7,4.1-4.7s4.1,1.9,4.1,4.7s-1.7,4.7-4.1,4.7S93.1,196.5,93.1,193.6z M99.7,194.2V193
		c0-1.9-1.1-2.8-2.6-2.8s-2.6,0.9-2.6,2.8v1.3c0,1.9,1.1,2.8,2.6,2.8S99.7,196.2,99.7,194.2L99.7,194.2z"/>
	<path class="st5" d="M103.9,190.3h-1.5v-1.2h1.5v-1.8c-0.1-1,0.6-2,1.6-2.1c0.1,0,0.3,0,0.4,0h1.4v1.2h-1.9v2.7h1.9v1.2h-1.9v7.8
		h-1.4L103.9,190.3z"/>
	<path class="st5" d="M115.2,198.1c-0.8,0.1-1.4-0.5-1.5-1.2c0-0.1,0-0.2,0-0.2v-6.3h-1.5v-1.2h0.8c0.6,0,0.8-0.2,0.8-0.8v-1.7h1.3
		v2.5h2v1.2h-2v6.6h1.8v1.2L115.2,198.1z"/>
	<path class="st5" d="M119.4,185.2h1.4v5.4h0.1c0.4-1.1,1.4-1.7,2.6-1.7c1.8,0,3,1.3,3,3.5v5.8H125v-5.6c0-1.6-0.7-2.4-2-2.4
		c-1.1,0-2.2,0.6-2.2,1.7v6.3h-1.4L119.4,185.2z"/>
	<path class="st5" d="M128.7,193.6c0-2.9,1.6-4.7,4.1-4.7s3.9,1.9,3.9,4.4v0.7h-6.5v0.4c-0.1,1.4,1,2.6,2.4,2.7c0.1,0,0.2,0,0.3,0
		c1.1,0,2.1-0.6,2.5-1.5l1,0.7c-0.7,1.3-2.1,2.1-3.6,2.1C130.3,198.4,128.7,196.5,128.7,193.6z M130.1,192.8v0.1h5v-0.2
		c0.1-1.3-0.8-2.5-2.1-2.6c-0.1,0-0.2,0-0.3,0c-1.4,0-2.6,1.1-2.6,2.5C130.1,192.6,130.1,192.7,130.1,192.8L130.1,192.8z"/>
	<path class="st5" d="M148.6,189.1h1.4l-4,11.1c-0.4,1.1-0.8,1.4-2.1,1.4h-0.7v-1.2h1.4l0.7-1.9l-3.4-9.4h1.4l2.2,6.1l0.4,1.5h0.1
		l0.5-1.5L148.6,189.1z"/>
	<path class="st5" d="M151,193.6c0-2.9,1.6-4.7,4.1-4.7s3.9,1.9,3.9,4.4v0.7h-6.5v0.4c-0.1,1.4,1,2.6,2.4,2.7c0.1,0,0.2,0,0.3,0
		c1.1,0,2-0.6,2.5-1.5l1,0.7c-0.7,1.3-2.1,2.1-3.6,2.1C152.6,198.4,151,196.5,151,193.6z M152.5,192.8v0.1h5v-0.2
		c0.1-1.3-0.8-2.5-2.1-2.6c-0.1,0-0.2,0-0.3,0c-1.4,0-2.6,1.2-2.6,2.6C152.5,192.7,152.5,192.7,152.5,192.8L152.5,192.8z"/>
	<path class="st5" d="M167.9,198.1c-0.8,0.1-1.5-0.5-1.5-1.3c0,0,0-0.1,0-0.1h-0.1c-0.4,1.1-1.5,1.8-2.6,1.7c-1.9,0-3-1-3-2.7
		s1.2-2.6,3.9-2.6h1.8v-0.9c0-1.3-0.7-2-2.1-2c-1,0-1.8,0.5-2.3,1.3l-0.8-0.8c0.6-1.2,1.9-1.8,3.2-1.8c2.2,0,3.5,1.1,3.5,3v5h1v1.2
		L167.9,198.1z M166.2,195.5V194h-1.9c-1.6,0-2.3,0.5-2.3,1.4v0.4c0,0.9,0.7,1.4,1.8,1.4C165.2,197.2,166.2,196.4,166.2,195.5z"/>
	<path class="st5" d="M170.7,198.1v-9h1.4v1.7h0.1c0.4-1.1,1.5-1.7,2.6-1.7h0.5v1.4h-0.8c-1.5,0-2.4,0.6-2.4,1.5v6.1L170.7,198.1z"
		/>
	<path class="st5" d="M175.5,197.3v-0.2c0-0.6,0.5-1.1,1.1-1.1c0.6,0,1.1,0.5,1.1,1.1v0.2c0,0.6-0.5,1.1-1.1,1.1
		C176,198.4,175.5,197.9,175.5,197.3z"/>
	<path class="st5" d="M47.6,220.7h-1.5v-12.2H51c1.9,0,3.5,1.6,3.5,3.5c0,1.5-1,2.9-2.5,3.3l2.8,5.4h-1.7l-2.6-5.2h-2.9V220.7z
		 M51,214.2c0.9,0.1,1.7-0.5,1.8-1.4c0-0.1,0-0.2,0-0.3v-0.9c0.1-0.9-0.6-1.7-1.5-1.8c-0.1,0-0.2,0-0.3,0h-3.4v4.4L51,214.2z"/>
	<path class="st5" d="M56.3,216.2c0-2.9,1.6-4.7,4.1-4.7s3.9,1.8,3.9,4.4v0.7h-6.5v0.4c-0.1,1.4,1,2.6,2.4,2.7c0.1,0,0.2,0,0.3,0
		c1.1,0,2-0.6,2.5-1.6l1,0.7c-0.7,1.3-2.1,2.1-3.6,2.1C57.9,221,56.3,219.1,56.3,216.2z M57.7,215.4v0.1h5v-0.2
		c0.1-1.3-0.8-2.5-2.1-2.6c-0.1,0-0.2,0-0.3,0c-1.4,0-2.6,1.1-2.6,2.5C57.7,215.3,57.7,215.3,57.7,215.4L57.7,215.4z"/>
	<path class="st5" d="M69.8,224.5c-2.8,0-4-0.8-4-2.2c0-0.9,0.6-1.6,1.4-1.8v-0.2c-0.5-0.2-0.8-0.7-0.8-1.3c0-0.9,0.6-1.3,1.6-1.6
		v-0.1c-1.1-0.5-1.7-1.6-1.7-2.8c0-1.7,1.3-3.1,3.1-3.1c0.1,0,0.2,0,0.3,0c0.6,0,1.2,0.1,1.7,0.4v-0.2c0-0.7,0.3-1.2,1-1.2h1.3v1.2
		h-1.7v0.6c0.7,0.6,1,1.4,1,2.3c0,1.7-1.4,3.1-3.1,3.1c-0.1,0-0.2,0-0.3,0c-0.3,0-0.6,0-0.9-0.1c-0.6,0.2-1.2,0.5-1.2,1
		s0.6,0.7,1.4,0.7h1.9c2.2,0,3.2,0.9,3.2,2.4C74.1,223.6,72.7,224.5,69.8,224.5z M71,220.7h-3c-0.5,0.2-0.9,0.7-0.8,1.2
		c0,0.8,0.5,1.4,2,1.4h1.3c1.6,0,2.5-0.5,2.5-1.5C72.8,221.1,72.4,220.7,71,220.7L71,220.7z M71.6,214.9v-0.5c0-1.2-0.8-1.7-1.9-1.7
		s-1.9,0.6-1.9,1.7v0.5c0,1.2,0.8,1.8,1.9,1.8S71.6,216.1,71.6,214.9z"/>
	<path class="st5" d="M75.6,208.8v-0.2c0-0.5,0.3-0.8,0.9-0.8s0.9,0.3,0.9,0.8v0.2c0,0.5-0.3,0.8-0.9,0.8S75.6,209.3,75.6,208.8z
		 M75.8,211.7h1.4v9h-1.4V211.7z"/>
	<path class="st5" d="M79.3,219.2l1-0.8c0.6,0.9,1.6,1.4,2.7,1.4c1.2,0,1.9-0.5,1.9-1.5c0-0.7-0.4-1.2-1.6-1.4l-0.7-0.1
		c-1.7-0.2-2.9-0.9-2.9-2.6c0-1.7,1.4-2.7,3.2-2.7c1.2,0,2.3,0.5,3.1,1.5l-0.9,0.8c-0.5-0.7-1.4-1.1-2.3-1.1c-1.2,0-1.8,0.5-1.8,1.4
		s0.6,1.2,1.7,1.4l0.7,0.1c2,0.3,2.8,1.2,2.8,2.5c0,1.8-1.3,2.8-3.3,2.8C81.4,221,80.1,220.3,79.3,219.2z"/>
	<path class="st5" d="M90.5,220.7c-0.8,0.1-1.4-0.5-1.5-1.3c0-0.1,0-0.2,0-0.2v-6.3h-1.5v-1.2h0.8c0.6,0,0.8-0.2,0.8-0.8v-1.7h1.3
		v2.5h2v1.2h-2v6.6h1.8v1.2L90.5,220.7z"/>
	<path class="st5" d="M94,216.2c0-2.9,1.6-4.7,4.1-4.7s3.9,1.8,3.9,4.4v0.7h-6.5v0.4c-0.1,1.4,1,2.6,2.4,2.7c0.1,0,0.2,0,0.3,0
		c1.1,0,2.1-0.6,2.5-1.6l1,0.7c-0.7,1.4-2.1,2.2-3.6,2.1C95.6,221,94,219.1,94,216.2z M95.5,215.4v0.1h5v-0.2
		c0.1-1.3-0.8-2.5-2.1-2.6c-0.1,0-0.2,0-0.3,0c-1.4,0-2.6,1.1-2.7,2.5C95.4,215.2,95.4,215.3,95.5,215.4L95.5,215.4z"/>
	<path class="st5" d="M104.2,220.7v-9h1.4v1.7h0.1c0.4-1.1,1.5-1.7,2.6-1.7h0.5v1.4H108c-1.5,0-2.4,0.6-2.4,1.5v6.1L104.2,220.7z"/>
	<path class="st5" d="M116.8,220.7c-0.8,0.1-1.4-0.5-1.5-1.2c0-0.1,0-0.2,0-0.2v-6.3h-1.5v-1.2h0.8c0.6,0,0.8-0.2,0.8-0.8v-1.7h1.3
		v2.5h2v1.2h-2v6.6h1.8v1.2L116.8,220.7z"/>
	<path class="st5" d="M120.2,216.2c0-2.9,1.7-4.7,4.1-4.7s4.1,1.8,4.1,4.7s-1.7,4.7-4.1,4.7S120.2,219.1,120.2,216.2z M126.8,216.9
		v-1.3c0-1.9-1.1-2.8-2.6-2.8s-2.6,0.9-2.6,2.8v1.3c0,1.9,1.1,2.8,2.6,2.8S126.8,218.8,126.8,216.9z"/>
	<path class="st5" d="M136.4,219.3L136.4,219.3c-0.5,1.1-1.6,1.7-2.7,1.7c-2.2,0-3.7-1.8-3.7-4.7s1.4-4.7,3.7-4.7
		c1.2-0.1,2.2,0.6,2.6,1.7h0.1v-5.4h1.4v12.9h-1.4V219.3z M136.4,217.9v-3.4c0-1-1.1-1.7-2.3-1.7c-1.4-0.1-2.5,1-2.6,2.3
		c0,0.1,0,0.2,0,0.3v1.5c-0.1,1.4,0.9,2.6,2.2,2.7c0.1,0,0.2,0,0.3,0C135.4,219.7,136.4,219,136.4,217.9z"/>
	<path class="st5" d="M147.4,220.7c-0.8,0.1-1.5-0.5-1.5-1.3c0,0,0-0.1,0-0.1h-0.1c-0.4,1.1-1.5,1.8-2.6,1.7c-1.9,0-3-1.1-3-2.7
		s1.2-2.6,3.9-2.6h1.8v-0.9c0-1.3-0.7-2-2.1-2c-1,0-1.8,0.5-2.3,1.3l-0.8-0.8c0.6-1.2,1.9-1.8,3.2-1.8c2.2,0,3.5,1.1,3.5,3v5h1v1.2
		L147.4,220.7z M145.7,218.1v-1.5h-1.9c-1.6,0-2.3,0.5-2.3,1.4v0.4c0,0.9,0.7,1.4,1.8,1.4C144.7,219.8,145.7,219,145.7,218.1z"/>
	<path class="st5" d="M155.6,211.7h1.4l-4,11.1c-0.4,1.1-0.8,1.4-2.1,1.4h-0.7V223h1.4l0.7-1.9l-3.4-9.4h1.4l2.2,6.1l0.4,1.5h0.1
		l0.5-1.5L155.6,211.7z"/>
	<path class="st5" d="M157.6,219.9v-0.2c0-0.6,0.5-1.1,1.1-1.1c0.6,0,1.1,0.5,1.1,1.1v0.2c0,0.6-0.5,1.1-1.1,1.1
		C158.1,221,157.7,220.5,157.6,219.9z"/>
	<path class="st5" d="M282.4,300.5v0.6h3c-0.1-0.2-0.1-0.3-0.2-0.6H282.4z"/>
	<polygon class="st5" points="289.1,301 289.1,300.5 286.3,300.5 286.1,301 	"/>
	<path class="st5" d="M285.6,301.6h-1.5l0.2,0.6h1.5C285.7,302.2,285.6,301.7,285.6,301.6"/>
	<polygon class="st5" points="287.2,302.2 287.4,301.6 285.9,301.6 285.8,302.2 	"/>
	<path class="st5" d="M284.6,303.4h2.2l0.2-0.6h-2.6C284.5,303,284.5,303.1,284.6,303.4"/>
	<rect x="282.4" y="304" class="st5" width="1.7" height="0.6"/>
	<rect x="287.4" y="304" class="st5" width="1.7" height="0.6"/>
	<rect x="282.4" y="302.8" class="st5" width="1.7" height="0.6"/>
	<rect x="287.4" y="302.8" class="st5" width="1.7" height="0.6"/>
	<rect x="282.4" y="301.6" class="st5" width="1.7" height="0.6"/>
	<rect x="287.4" y="301.6" class="st5" width="1.7" height="0.6"/>
	<rect x="281.2" y="305.2" class="st5" width="2.8" height="0.6"/>
	<rect x="281.2" y="306.3" class="st5" width="2.8" height="0.6"/>
	<rect x="275.1" y="304" class="st5" width="1.7" height="0.6"/>
	<rect x="275.1" y="300.5" class="st5" width="1.7" height="0.6"/>
	<rect x="270.6" y="304" class="st5" width="1.7" height="0.6"/>
	<rect x="270.6" y="302.8" class="st5" width="1.7" height="0.6"/>
	<rect x="270.6" y="301.6" class="st5" width="1.7" height="0.6"/>
	<rect x="270.6" y="300.5" class="st5" width="1.7" height="0.6"/>
	<rect x="269.5" y="305.2" class="st5" width="3.9" height="0.6"/>
	<rect x="269.5" y="306.3" class="st5" width="3.9" height="0.6"/>
	<rect x="269.5" y="298.1" class="st5" width="3.9" height="0.6"/>
	<rect x="269.5" y="299.3" class="st5" width="3.9" height="0.6"/>
	<path class="st5" d="M281.2,298.1v0.6h3.4c-0.1-0.3-0.1-0.4-0.2-0.6H281.2z"/>
	<path class="st5" d="M281.2,299.3v0.6h3.8c-0.1-0.3-0.1-0.3-0.2-0.6H281.2z"/>
	<polygon class="st5" points="290.2,298.1 287.1,298.1 286.9,298.7 290.2,298.7 	"/>
	<polygon class="st5" points="290.2,299.9 290.2,299.3 286.7,299.3 286.5,299.9 	"/>
	<rect x="287.4" y="305.2" class="st5" width="2.8" height="0.6"/>
	<rect x="287.4" y="306.3" class="st5" width="2.8" height="0.6"/>
	<path class="st5" d="M285.7,306.9l0.2-0.6h-0.4C285.6,306.5,285.7,306.9,285.7,306.9"/>
	<path class="st5" d="M285.4,305.7h0.8l0.2-0.6h-1.1C285.3,305.4,285.3,305.5,285.4,305.7"/>
	<path class="st5" d="M285,304.6h1.5l0.2-0.6h-1.9C284.9,304.3,284.9,304.3,285,304.6"/>
	<path class="st5" d="M279.9,302.8h-4.9v0.6h5.3C280.3,303.2,280.1,303,279.9,302.8"/>
	<path class="st5" d="M278.4,304.6h2.2c0-0.2,0-0.4-0.1-0.6h-2.2V304.6z"/>
	<path class="st5" d="M274,305.7h6.4c0.1-0.2,0.2-0.4,0.2-0.6H274V305.7z"/>
	<path class="st5" d="M274,306.9h4.5c0.6,0,1.1-0.2,1.5-0.6h-6L274,306.9z"/>
	<path class="st5" d="M275.1,302.2h4.9c0.2-0.2,0.3-0.4,0.5-0.6h-5.3L275.1,302.2z"/>
	<path class="st5" d="M278.4,301h2.2c0-0.2,0.1-0.4,0.1-0.6h-2.2V301z"/>
	<path class="st5" d="M274,298.1v0.6h6c-0.4-0.4-0.9-0.6-1.5-0.6H274z"/>
	<path class="st5" d="M274,299.9h6.7c0-0.2-0.1-0.4-0.2-0.6H274V299.9z"/>
</g>
</svg>
