<?xml version="1.0" encoding="utf-8"?>
<!-- Generator: Adobe Illustrator 20.0.0, SVG Export Plug-In . SVG Version: 6.00 Build 0)  -->
<svg version="1.1" id="Layer_1" xmlns="http://www.w3.org/2000/svg" xmlns:xlink="http://www.w3.org/1999/xlink" x="0px" y="0px"
	 width="1297.8px" height="730px" viewBox="0 0 1297.8 730" style="enable-background:new 0 0 1297.8 730;" xml:space="preserve">
<style type="text/css">
	.st0{fill:#FFFFFF;}
	.st1{fill:#FFCFE1;stroke:#FFCFE1;}
	.st2{fill:none;stroke:#97C1FF;}
	.st3{fill:none;stroke:#A4A4A4;}
	.st4{fill:#565656;}
</style>
<title>Group 32</title>
<desc>Created with Sketch.</desc>
<g id="Page-1">
	<g id="_x32_x-Grid-UI" transform="translate(-352.000000, -5575.000000)">
		<g id="Group-32" transform="translate(352.000000, 5575.000000)">
			<g id="Margins">
				<rect id="BG" class="st0" width="1297.8" height="730"/>
				<g id="animation" transform="translate(55.000000, 64.000000)">
					<g id="margins" transform="translate(0.000000, 19.000000)">
						<rect id="margin" x="1154" y="33.8" class="st1" width="12.6" height="524.4"/>
						<rect id="margin_1_" x="22.6" y="33.8" class="st1" width="12.6" height="524.4"/>
					</g>
					<g id="columns" transform="translate(10.000000, 20.000000)">
						<rect id="Rectangle-17-Copy-487" x="25.2" y="452.3" class="st2" width="69.9" height="104.9"/>
						<rect id="Rectangle-17-Copy-488" x="95.1" y="452.3" class="st2" width="69.9" height="104.9"/>
						<rect id="Rectangle-17-Copy-489" x="165" y="452.3" class="st2" width="69.9" height="104.9"/>
						<rect id="Rectangle-17-Copy-490" x="235" y="452.3" class="st2" width="69.9" height="104.9"/>
						<rect id="Rectangle-17-Copy-491" x="304.9" y="452.3" class="st2" width="69.9" height="104.9"/>
						<rect id="Rectangle-17-Copy-492" x="374.8" y="452.3" class="st2" width="69.9" height="104.9"/>
						<rect id="Rectangle-17-Copy-493" x="444.7" y="452.3" class="st2" width="69.9" height="104.9"/>
						<rect id="Rectangle-17-Copy-494" x="514.7" y="452.3" class="st2" width="69.9" height="104.9"/>
						<rect id="Rectangle-17-Copy-495" x="584.6" y="452.3" class="st2" width="69.9" height="104.9"/>
						<rect id="Rectangle-17-Copy-496" x="654.5" y="452.3" class="st2" width="69.9" height="104.9"/>
						<rect id="Rectangle-17-Copy-497" x="724.4" y="452.3" class="st2" width="69.9" height="104.9"/>
						<rect id="Rectangle-17-Copy-498" x="794.4" y="452.3" class="st2" width="69.9" height="104.9"/>
						<rect id="Rectangle-17-Copy-499" x="864.3" y="452.3" class="st2" width="69.9" height="104.9"/>
						<rect id="Rectangle-17-Copy-500" x="934.2" y="452.3" class="st2" width="69.9" height="104.9"/>
						<rect id="Rectangle-17-Copy-501" x="1004.1" y="452.3" class="st2" width="69.9" height="104.9"/>
						<rect id="Rectangle-17-Copy-502" x="1074.1" y="452.3" class="st2" width="69.9" height="104.9"/>
						<rect id="Rectangle-17-Copy-487_1_" x="25.2" y="347.4" class="st2" width="139.8" height="104.9"/>
						<rect id="Rectangle-17-Copy-487_2_" x="165" y="347.4" class="st2" width="139.8" height="104.9"/>
						<rect id="Rectangle-17-Copy-487_3_" x="304.9" y="347.4" class="st2" width="139.8" height="104.9"/>
						<rect id="Rectangle-17-Copy-487_4_" x="444.7" y="347.4" class="st2" width="139.8" height="104.9"/>
						<rect id="Rectangle-17-Copy-487_5_" x="584.6" y="347.4" class="st2" width="139.8" height="104.9"/>
						<rect id="Rectangle-17-Copy-487_6_" x="724.4" y="347.4" class="st2" width="139.8" height="104.9"/>
						<rect id="Rectangle-17-Copy-487_7_" x="864.3" y="347.4" class="st2" width="139.8" height="104.9"/>
						<rect id="Rectangle-17-Copy-487_8_" x="1004.1" y="347.4" class="st2" width="139.8" height="104.9"/>
						<rect id="Rectangle-17-Copy-487_9_" x="864.3" y="242.5" class="st2" width="279.7" height="104.9"/>
						<rect id="Rectangle-17-Copy-487_10_" x="584.6" y="242.5" class="st2" width="279.7" height="104.9"/>
						<rect id="Rectangle-17-Copy-487_11_" x="304.9" y="242.5" class="st2" width="279.7" height="104.9"/>
						<rect id="Rectangle-17-Copy-487_12_" x="25.2" y="242.5" class="st2" width="279.7" height="104.9"/>
						<rect id="Rectangle-17-Copy-487_13_" x="25.2" y="137.7" class="st2" width="559.4" height="104.9"/>
						<rect id="Rectangle-17-Copy-487_14_" x="584.6" y="137.7" class="st2" width="559.4" height="104.9"/>
						<rect id="Rectangle-17-Copy-487_15_" x="25.2" y="32.8" class="st2" width="1118.8" height="104.9"/>
					</g>
					<g id="browser">
						<rect id="Frame" x="22.6" y="52.8" class="st3" width="1143.9" height="524.4"/>
						<path id="Rectangle-2-Copy-25" class="st4" d="M25.5,25.5h1138.3c2,0,3.5,1.6,3.5,3.5v24.4H21.9V29
							C21.9,27.1,23.5,25.5,25.5,25.5z"/>
						<ellipse id="Oval-5-Copy-18" class="st0" cx="40.1" cy="39.5" rx="4.2" ry="4.2"/>
						<ellipse id="Oval-5-Copy-19" class="st0" cx="56.9" cy="39.5" rx="4.2" ry="4.2"/>
					</g>
				</g>
			</g>
		</g>
	</g>
</g>
</svg>
