<?xml version="1.0" encoding="utf-8"?>
<!-- Generator: Adobe Illustrator 20.0.0, SVG Export Plug-In . SVG Version: 6.00 Build 0)  -->
<svg version="1.1" id="Layer_1" xmlns="http://www.w3.org/2000/svg" xmlns:xlink="http://www.w3.org/1999/xlink" x="0px" y="0px"
	 width="1563.3px" height="879.4px" viewBox="0 0 1563.3 879.4" style="enable-background:new 0 0 1563.3 879.4;"
	 xml:space="preserve">
<style type="text/css">
	.st0{fill:#FFFFFF;}
	.st1{fill:none;stroke:#97C1FF;}
	.st2{fill:none;stroke:#EDF4FF;stroke-width:10;}
	.st3{fill:#FFCFE1;stroke:#FFCFE1;}
	.st4{fill:none;stroke:#A4A4A4;}
	.st5{fill:#565656;}
</style>
<title>Group 33 Copy</title>
<desc>Created with Sketch.</desc>
<g id="Page-1">
	<g id="Group-33-Copy">
		<polygon id="BG" class="st0" points="0,0 1563.3,0 1563.3,879.4 0,879.4 		"/>
		<g id="containers" transform="translate(75.000000, 104.000000)">
			<g id="Rectangle-17-Copy-527">
				<rect x="50.5" y="70.4" class="st1" width="1314" height="84.3"/>
				<rect x="59.7" y="79.6" class="st2" width="1295.4" height="65.6"/>
			</g>
			<g id="Rectangle-17-Copy-525">
				<rect x="50.5" y="188.2" class="st1" width="640.2" height="84.3"/>
				<rect x="59.7" y="197.5" class="st2" width="621.7" height="65.6"/>
			</g>
			<g id="Rectangle-17-Copy-526">
				<rect x="724.4" y="188.2" class="st1" width="640.2" height="84.3"/>
				<rect x="733.6" y="197.5" class="st2" width="621.7" height="65.6"/>
			</g>
			<g id="Rectangle-17-Copy-521">
				<rect x="50.5" y="306.2" class="st1" width="303.2" height="84.3"/>
				<rect x="59.7" y="315.5" class="st2" width="284.8" height="65.6"/>
			</g>
			<g id="Rectangle-17-Copy-522">
				<rect x="387.5" y="306.2" class="st1" width="303.2" height="84.3"/>
				<rect x="396.6" y="315.5" class="st2" width="284.8" height="65.6"/>
			</g>
			<g id="Rectangle-17-Copy-523">
				<rect x="724.4" y="306.2" class="st1" width="303.2" height="84.3"/>
				<rect x="733.6" y="315.5" class="st2" width="284.8" height="65.6"/>
			</g>
			<g id="Rectangle-17-Copy-524">
				<rect x="1061.3" y="306.2" class="st1" width="303.2" height="84.3"/>
				<rect x="1070.5" y="315.5" class="st2" width="284.8" height="65.6"/>
			</g>
			<g id="Group-42" transform="translate(0.000000, 210.000000)">
				<g id="Rectangle-17-Copy-513">
					<rect x="50.5" y="214.1" class="st1" width="134.7" height="84.3"/>
					<rect x="59.7" y="223.4" class="st2" width="116.2" height="65.6"/>
				</g>
				<g id="Rectangle-17-Copy-514">
					<rect x="218.9" y="214.1" class="st1" width="134.7" height="84.3"/>
					<rect x="228.2" y="223.4" class="st2" width="116.2" height="65.6"/>
				</g>
				<g id="Rectangle-17-Copy-515">
					<rect x="387.5" y="214.1" class="st1" width="134.7" height="84.3"/>
					<rect x="396.6" y="223.4" class="st2" width="116.2" height="65.6"/>
				</g>
				<g id="Rectangle-17-Copy-516">
					<rect x="555.9" y="214.1" class="st1" width="134.7" height="84.3"/>
					<rect x="565.2" y="223.4" class="st2" width="116.2" height="65.6"/>
				</g>
				<g id="Rectangle-17-Copy-517">
					<rect x="724.4" y="214.1" class="st1" width="134.7" height="84.3"/>
					<rect x="733.6" y="223.4" class="st2" width="116.2" height="65.6"/>
				</g>
				<g id="Rectangle-17-Copy-518">
					<rect x="892.8" y="214.1" class="st1" width="134.7" height="84.3"/>
					<rect x="902.1" y="223.4" class="st2" width="116.2" height="65.6"/>
				</g>
				<g id="Rectangle-17-Copy-519">
					<rect x="1061.3" y="214.1" class="st1" width="134.7" height="84.3"/>
					<rect x="1070.5" y="223.4" class="st2" width="116.2" height="65.6"/>
				</g>
				<g id="Rectangle-17-Copy-520">
					<rect x="1229.7" y="214.1" class="st1" width="134.7" height="84.3"/>
					<rect x="1239" y="223.4" class="st2" width="116.2" height="65.6"/>
				</g>
			</g>
			<g id="Group-41" transform="translate(0.000000, 280.000000)">
				<g id="Rectangle-17-Copy-488">
					<path class="st1" d="M134.7,262.1h50.6v84.3h-50.6V262.1z"/>
					<path class="st2" d="M144,271.4V337h32v-65.6H144z"/>
				</g>
				<g id="Rectangle-17-Copy-489">
					<path class="st1" d="M218.9,262.1h50.6v84.3h-50.6V262.1z"/>
					<path class="st2" d="M228.2,271.4V337h32v-65.6H228.2z"/>
				</g>
				<g id="Rectangle-17-Copy-490">
					<path class="st1" d="M303.2,262.1h50.6v84.3h-50.6V262.1z"/>
					<path class="st2" d="M312.5,271.4V337h32v-65.6H312.5z"/>
				</g>
				<g id="Rectangle-17-Copy-491">
					<path class="st1" d="M387.5,262.1H438v84.3h-50.6V262.1z"/>
					<path class="st2" d="M396.6,271.4V337h32v-65.6H396.6z"/>
				</g>
				<g id="Rectangle-17-Copy-492">
					<path class="st1" d="M471.6,262.1h50.6v84.3h-50.6V262.1z"/>
					<path class="st2" d="M480.9,271.4V337h32v-65.6H480.9z"/>
				</g>
				<g id="Rectangle-17-Copy-493">
					<path class="st1" d="M555.9,262.1h50.6v84.3h-50.6V262.1z"/>
					<path class="st2" d="M565.2,271.4V337h32v-65.6H565.2z"/>
				</g>
				<g id="Rectangle-17-Copy-494">
					<path class="st1" d="M640.1,262.1h50.6v84.3h-50.6L640.1,262.1L640.1,262.1z"/>
					<path class="st2" d="M649.4,271.4V337h32v-65.6H649.4z"/>
				</g>
				<g id="Rectangle-17-Copy-495">
					<path class="st1" d="M724.4,262.1H775v84.3h-50.6V262.1z"/>
					<path class="st2" d="M733.6,271.4V337h32v-65.6H733.6z"/>
				</g>
				<g id="Rectangle-17-Copy-496">
					<path class="st1" d="M808.5,262.1h50.6v84.3h-50.6V262.1z"/>
					<path class="st2" d="M817.8,271.4V337h32v-65.6H817.8z"/>
				</g>
				<g id="Rectangle-17-Copy-497">
					<path class="st1" d="M892.8,262.1h50.6v84.3h-50.6V262.1z"/>
					<path class="st2" d="M902.1,271.4V337h32v-65.6H902.1z"/>
				</g>
				<g id="Rectangle-17-Copy-498">
					<path class="st1" d="M977.1,262.1h50.6v84.3h-50.6V262.1z"/>
					<path class="st2" d="M986.4,271.4V337h32v-65.6H986.4z"/>
				</g>
				<g id="Rectangle-17-Copy-499">
					<path class="st1" d="M1061.3,262.1h50.5v84.3h-50.6v-84.3H1061.3z"/>
					<path class="st2" d="M1070.5,271.4V337h32v-65.6H1070.5z"/>
				</g>
				<g id="Rectangle-17-Copy-487">
					<path class="st1" d="M50.5,262.1h50.6v84.3H50.5V262.1z"/>
					<path class="st2" d="M59.7,271.4V337h32v-65.6H59.7z"/>
				</g>
				<g id="Rectangle-17-Copy-500">
					<path class="st1" d="M1145.5,262.1h50.6v84.3h-50.6V262.1z"/>
					<path class="st2" d="M1154.8,271.4V337h32v-65.6H1154.8z"/>
				</g>
				<g id="Rectangle-17-Copy-501">
					<path class="st1" d="M1229.7,262.1h50.6v84.3h-50.6V262.1z"/>
					<path class="st2" d="M1239,271.4V337h32v-65.6H1239z"/>
				</g>
				<g id="Rectangle-17-Copy-502">
					<path class="st1" d="M1314,262.1h50.6v84.3H1314V262.1z"/>
					<path class="st2" d="M1323.2,271.4V337h32v-65.6H1323.2z"/>
				</g>
			</g>
		</g>
		<g id="margins" transform="translate(55.000000, 83.000000)">
			<rect id="margin" x="1401.3" y="57.7" class="st3" width="15.2" height="631.7"/>
			<rect id="margin_1_" x="38.4" y="57.7" class="st3" width="15.2" height="631.7"/>
		</g>
		<g id="browser" transform="translate(55.000000, 64.000000)">
			<rect id="Frame" x="38.4" y="76.7" class="st4" width="1378" height="631.7"/>
			<path id="Rectangle-2-Copy-25" class="st5" d="M41.9,43.8h1371.2c2.3,0,4.3,2,4.3,4.3v29.4H37.7V48.1
				C37.7,45.7,39.6,43.8,41.9,43.8z"/>
			<ellipse id="Oval-5-Copy-18" class="st0" cx="59.5" cy="60.7" rx="5" ry="5"/>
			<ellipse id="Oval-5-Copy-19" class="st0" cx="79.7" cy="60.7" rx="5" ry="5"/>
		</g>
	</g>
</g>
</svg>
