<?xml version="1.0" encoding="utf-8"?>
<!-- Generator: Adobe Illustrator 20.0.0, SVG Export Plug-In . SVG Version: 6.00 Build 0)  -->
<svg version="1.1" id="Layer_1" xmlns="http://www.w3.org/2000/svg" xmlns:xlink="http://www.w3.org/1999/xlink" x="0px" y="0px"
	 width="1260.4px" height="709px" viewBox="0 0 1260.4 709" style="enable-background:new 0 0 1260.4 709;" xml:space="preserve">
<style type="text/css">
	.st0{fill:#FFFFFF;}
	.st1{fill:none;stroke:#97C1FF;}
	.st2{fill:none;stroke:#A4A4A4;}
	.st3{fill:#565656;}
</style>
<title>Columns Copy 3</title>
<desc>Created with Sketch.</desc>
<g id="Page-1">
	<g id="_x32_x-Grid-UI" transform="translate(-352.000000, -3450.000000)">
		<g id="Columns-Copy-3" transform="translate(352.000000, 3450.000000)">
			<rect id="BG" class="st0" width="1260.4" height="709"/>
			<g id="animation" transform="translate(64.000000, 64.000000)">
				<g id="columns" transform="translate(1.000000, 20.000000)">
					<rect id="Rectangle-17-Copy-487" x="22.6" y="436.9" class="st1" width="67.9" height="101.9"/>
					<rect id="Rectangle-17-Copy-488" x="90.5" y="436.9" class="st1" width="67.9" height="101.9"/>
					<rect id="Rectangle-17-Copy-489" x="158.4" y="436.9" class="st1" width="67.9" height="101.9"/>
					<rect id="Rectangle-17-Copy-490" x="226.3" y="436.9" class="st1" width="67.9" height="101.9"/>
					<rect id="Rectangle-17-Copy-491" x="294.3" y="436.9" class="st1" width="67.9" height="101.9"/>
					<rect id="Rectangle-17-Copy-492" x="362.2" y="436.9" class="st1" width="67.9" height="101.9"/>
					<rect id="Rectangle-17-Copy-493" x="430.1" y="436.9" class="st1" width="67.9" height="101.9"/>
					<rect id="Rectangle-17-Copy-494" x="498" y="436.9" class="st1" width="67.9" height="101.9"/>
					<rect id="Rectangle-17-Copy-495" x="565.9" y="436.9" class="st1" width="67.9" height="101.9"/>
					<rect id="Rectangle-17-Copy-496" x="633.8" y="436.9" class="st1" width="67.9" height="101.9"/>
					<rect id="Rectangle-17-Copy-497" x="701.7" y="436.9" class="st1" width="67.9" height="101.9"/>
					<rect id="Rectangle-17-Copy-498" x="769.6" y="436.9" class="st1" width="67.9" height="101.9"/>
					<rect id="Rectangle-17-Copy-499" x="837.5" y="436.9" class="st1" width="67.9" height="101.9"/>
					<rect id="Rectangle-17-Copy-500" x="905.5" y="436.9" class="st1" width="67.9" height="101.9"/>
					<rect id="Rectangle-17-Copy-501" x="973.4" y="436.9" class="st1" width="67.9" height="101.9"/>
					<rect id="Rectangle-17-Copy-502" x="1041.3" y="436.9" class="st1" width="67.9" height="101.9"/>
					<rect id="Rectangle-17-Copy-487_1_" x="22.6" y="335" class="st1" width="135.8" height="101.9"/>
					<rect id="Rectangle-17-Copy-487_2_" x="158.4" y="335" class="st1" width="135.8" height="101.9"/>
					<rect id="Rectangle-17-Copy-487_3_" x="294.3" y="335" class="st1" width="135.8" height="101.9"/>
					<rect id="Rectangle-17-Copy-487_4_" x="430.1" y="335" class="st1" width="135.8" height="101.9"/>
					<rect id="Rectangle-17-Copy-487_5_" x="565.9" y="335" class="st1" width="135.8" height="101.9"/>
					<rect id="Rectangle-17-Copy-487_6_" x="701.7" y="335" class="st1" width="135.8" height="101.9"/>
					<rect id="Rectangle-17-Copy-487_7_" x="837.5" y="335" class="st1" width="135.8" height="101.9"/>
					<rect id="Rectangle-17-Copy-487_8_" x="973.4" y="335" class="st1" width="135.8" height="101.9"/>
					<rect id="Rectangle-17-Copy-487_9_" x="837.5" y="233.1" class="st1" width="271.6" height="101.9"/>
					<rect id="Rectangle-17-Copy-487_10_" x="565.9" y="233.1" class="st1" width="271.6" height="101.9"/>
					<rect id="Rectangle-17-Copy-487_11_" x="294.3" y="233.1" class="st1" width="271.6" height="101.9"/>
					<rect id="Rectangle-17-Copy-487_12_" x="22.6" y="233.1" class="st1" width="271.6" height="101.9"/>
					<rect id="Rectangle-17-Copy-487_13_" x="22.6" y="131.3" class="st1" width="543.3" height="101.9"/>
					<rect id="Rectangle-17-Copy-487_14_" x="565.9" y="131.3" class="st1" width="543.3" height="101.9"/>
					<rect id="Rectangle-17-Copy-487_15_" x="22.6" y="29.4" class="st1" width="1086.6" height="101.9"/>
				</g>
				<g id="browser">
					<rect id="Rectangle-17-Copy-487_16_" x="23.6" y="49.4" class="st2" width="1086.6" height="509.3"/>
					<path id="Rectangle-2-Copy-25" class="st3" d="M26.4,22.9h1081.1c1.9,0,3.4,1.5,3.4,3.4V50H22.9V26.4
						C22.9,24.5,24.5,22.9,26.4,22.9z"/>
					<ellipse id="Oval-5-Copy-18" class="st0" cx="40.6" cy="36.5" rx="4.1" ry="4.1"/>
					<ellipse id="Oval-5-Copy-19" class="st0" cx="56.9" cy="36.5" rx="4.1" ry="4.1"/>
				</g>
			</g>
		</g>
	</g>
</g>
</svg>
