<?xml version="1.0" encoding="UTF-8"?>
<svg width="288px" height="288px" viewBox="0 0 288 288" version="1.1" xmlns="http://www.w3.org/2000/svg" xmlns:xlink="http://www.w3.org/1999/xlink">
    <!-- Generator: Sketch 51.3 (57544) - http://www.bohemiancoding.com/sketch -->
    <title>Group 15</title>
    <desc>Created with Sketch.</desc>
    <defs></defs>
    <g id="Page-1" stroke="none" stroke-width="1" fill="none" fill-rule="evenodd">
        <g id="Grid_Desktop_1312px-Copy" transform="translate(-352.000000, -7885.000000)">
            <g id="Group-15" transform="translate(352.000000, 7885.000000)">
                <polygon id="Fill-1" fill="#FFFFFF" points="0 288 288 288 288 0 0 0"></polygon>
                <polygon id="Fill-2" fill="#EDF4FF" points="64 215.951 84 215.951 84 72 64 72"></polygon>
                <polygon id="Fill-3" fill="#EDF4FF" points="203.952 215.951 223.952 215.951 223.952 72 203.952 72"></polygon>
                <path d="M143.9757,223.9299 L143.9757,64.0219 L143.9757,223.9299 Z" id="Fill-4" fill="#EDF4FF"></path>
                <path d="M143.976,223.9298 L143.976,64.0218" id="Stroke-5" stroke="#6EA6FF"></path>
                <path d="M113.9877,223.9299 L113.9877,64.0219 L113.9877,223.9299 Z" id="Fill-6" fill="#EDF4FF"></path>
                <path d="M113.9877,223.9298 L113.9877,64.0218" id="Stroke-7" stroke="#6EA6FF"></path>
                <path d="M173.9637,223.9299 L173.9637,64.0219 L173.9637,223.9299 Z" id="Fill-8" fill="#EDF4FF"></path>
                <path d="M173.9638,223.9298 L173.9638,64.0218" id="Stroke-9" stroke="#6EA6FF"></path>
                <polygon id="Stroke-10" stroke="#6EA6FF" points="64 215.951 223.952 215.951 223.952 72 64 72"></polygon>
                <path d="M83.9997,223.9515 L83.9997,63.9995 L83.9997,223.9515 Z" id="Fill-11" fill="#EDF4FF"></path>
                <path d="M83.9999,223.9513 L83.9999,64.0003" id="Stroke-12" stroke="#6EA6FF"></path>
                <path d="M203.9517,223.9515 L203.9517,63.9995 L203.9517,223.9515 Z" id="Fill-13" fill="#EDF4FF"></path>
                <path d="M203.9516,223.9513 L203.9516,64.0003" id="Stroke-14" stroke="#6EA6FF"></path>
            </g>
        </g>
    </g>
</svg>