<?xml version="1.0" encoding="UTF-8"?>
<svg width="288px" height="288px" viewBox="0 0 288 288" version="1.1" xmlns="http://www.w3.org/2000/svg" xmlns:xlink="http://www.w3.org/1999/xlink">
    <!-- Generator: Sketch 51.2 (57519) - http://www.bohemiancoding.com/sketch -->
    <title>Group 9</title>
    <desc>Created with Sketch.</desc>
    <defs></defs>
    <g id="Page-1" stroke="none" stroke-width="1" fill="none" fill-rule="evenodd">
        <g id="Typography_Mobile_320px-Copy-2" transform="translate(-14.000000, -4081.000000)">
            <g id="Group-9" transform="translate(14.000000, 4081.000000)">
                <rect id="Rectangle-16-Copy-165" fill="#FFFFFF" x="0" y="0" width="288" height="288"></rect>
                <rect id="Rectangle-16-Copy-187" fill="#FFCFE1" transform="translate(46.000000, 258.000000) scale(1, -1) translate(-46.000000, -258.000000) " x="18" y="246" width="56" height="24"></rect>
                <path d="M25.488,95 L25.488,83.832 L30.08,83.832 C31.92,83.832 33.056,84.968 33.056,86.712 C33.056,88.376 31.984,88.968 31.248,89.08 L31.248,89.176 C32.048,89.224 33.44,89.912 33.44,91.768 C33.44,93.608 32.208,95 30.56,95 L25.488,95 Z M26.832,89.816 L26.832,93.816 L30.144,93.816 C31.296,93.816 32,93.208 32,92.088 L32,91.544 C32,90.424 31.296,89.816 30.144,89.816 L26.832,89.816 Z M26.832,85.016 L26.832,88.664 L29.92,88.664 C30.976,88.664 31.616,88.104 31.616,87.112 L31.616,86.568 C31.616,85.576 30.976,85.016 29.92,85.016 L26.832,85.016 Z M40.896,95 L40.896,93.656 L40.832,93.656 C40.512,94.44 39.888,95.192 38.512,95.192 C36.816,95.192 35.728,94.04 35.728,92.04 L35.728,86.744 L37.008,86.744 L37.008,91.816 C37.008,93.288 37.664,94.04 38.896,94.04 C39.904,94.04 40.896,93.544 40.896,92.456 L40.896,86.744 L42.176,86.744 L42.176,95 L40.896,95 Z M45.536,84.808 C44.992,84.808 44.752,84.52 44.752,84.088 L44.752,83.88 C44.752,83.448 44.992,83.16 45.536,83.16 C46.08,83.16 46.32,83.448 46.32,83.88 L46.32,84.088 C46.32,84.52 46.08,84.808 45.536,84.808 Z M44.896,95 L44.896,86.744 L46.176,86.744 L46.176,95 L44.896,95 Z M51.392,95 L50.256,95 C49.376,95 48.896,94.44 48.896,93.672 L48.896,83.16 L50.176,83.16 L50.176,93.88 L51.392,93.88 L51.392,95 Z M58.528,95 L58.528,93.656 L58.464,93.656 C57.968,94.68 57.184,95.192 56.048,95.192 C53.984,95.192 52.688,93.512 52.688,90.872 C52.688,88.232 53.984,86.552 56.048,86.552 C57.184,86.552 58.032,87.048 58.464,88.088 L58.528,88.088 L58.528,83.16 L59.808,83.16 L59.808,95 L58.528,95 Z M56.4,94.04 C57.568,94.04 58.528,93.432 58.528,92.36 L58.528,89.288 C58.528,88.376 57.568,87.704 56.4,87.704 C54.96,87.704 54.064,88.696 54.064,90.168 L54.064,91.576 C54.064,93.048 54.96,94.04 56.4,94.04 Z M69.424,95.192 C67.216,95.192 65.696,93.496 65.696,90.872 C65.696,88.248 67.216,86.552 69.424,86.552 C71.632,86.552 73.152,88.248 73.152,90.872 C73.152,93.496 71.632,95.192 69.424,95.192 Z M69.424,94.056 C70.8,94.056 71.776,93.208 71.776,91.464 L71.776,90.28 C71.776,88.536 70.8,87.688 69.424,87.688 C68.048,87.688 67.072,88.536 67.072,90.28 L67.072,91.464 C67.072,93.208 68.048,94.056 69.424,94.056 Z M76.544,95 L75.264,95 L75.264,86.744 L76.544,86.744 L76.544,88.088 L76.608,88.088 C77.008,87.16 77.712,86.552 78.944,86.552 C80.64,86.552 81.712,87.704 81.712,89.704 L81.712,95 L80.432,95 L80.432,89.928 C80.432,88.456 79.792,87.704 78.56,87.704 C77.536,87.704 76.544,88.216 76.544,89.272 L76.544,95 Z M91.552,95 L89.952,95 C89.072,95 88.592,94.44 88.592,93.64 L88.592,87.864 L87.232,87.864 L87.232,86.744 L88,86.744 C88.544,86.744 88.72,86.552 88.72,85.992 L88.72,84.456 L89.872,84.456 L89.872,86.744 L91.68,86.744 L91.68,87.864 L89.872,87.864 L89.872,93.88 L91.552,93.88 L91.552,95 Z M93.744,95 L93.744,83.16 L95.024,83.16 L95.024,88.088 L95.088,88.088 C95.488,87.16 96.192,86.552 97.424,86.552 C99.12,86.552 100.192,87.704 100.192,89.704 L100.192,95 L98.912,95 L98.912,89.928 C98.912,88.456 98.272,87.704 97.04,87.704 C96.016,87.704 95.024,88.216 95.024,89.272 L95.024,95 L93.744,95 Z M105.936,95.192 C103.696,95.192 102.224,93.496 102.224,90.872 C102.224,88.248 103.696,86.552 105.936,86.552 C108.144,86.552 109.504,88.248 109.504,90.584 L109.504,91.192 L103.568,91.192 L103.568,91.576 C103.568,93 104.48,94.072 106.016,94.072 C107.056,94.072 107.856,93.56 108.288,92.648 L109.2,93.304 C108.672,94.424 107.488,95.192 105.936,95.192 Z M105.936,87.624 C104.544,87.624 103.568,88.68 103.568,90.12 L103.568,90.232 L108.128,90.232 L108.128,90.056 C108.128,88.6 107.248,87.624 105.936,87.624 Z M123.92,95 L122.512,95 L121.392,91.704 L116.88,91.704 L115.76,95 L114.4,95 L118.304,83.832 L120.016,83.832 L123.92,95 Z M121.056,90.52 L119.168,85.08 L119.088,85.08 L117.2,90.52 L121.056,90.52 Z M129.728,95 L125.248,95 L125.248,93.88 L126.816,93.88 L126.816,84.952 L125.248,84.952 L125.248,83.832 L129.728,83.832 L129.728,84.952 L128.16,84.952 L128.16,93.88 L129.728,93.88 L129.728,95 Z M135.824,98.2 L135.824,86.744 L137.104,86.744 L137.104,88.088 L137.168,88.088 C137.6,87.048 138.448,86.552 139.584,86.552 C141.648,86.552 142.944,88.232 142.944,90.872 C142.944,93.512 141.648,95.192 139.584,95.192 C138.448,95.192 137.664,94.68 137.168,93.656 L137.104,93.656 L137.104,98.2 L135.824,98.2 Z M139.232,94.04 C140.672,94.04 141.568,93.048 141.568,91.576 L141.568,90.168 C141.568,88.696 140.672,87.704 139.232,87.704 C138.064,87.704 137.104,88.376 137.104,89.288 L137.104,92.36 C137.104,93.432 138.064,94.04 139.232,94.04 Z M147.6,95 L146.464,95 C145.584,95 145.104,94.44 145.104,93.672 L145.104,83.16 L146.384,83.16 L146.384,93.88 L147.6,93.88 L147.6,95 Z M156.176,95 L155.456,95 C154.512,95 154.128,94.424 154.032,93.656 L153.952,93.656 C153.6,94.664 152.72,95.192 151.568,95.192 C149.824,95.192 148.8,94.232 148.8,92.696 C148.8,91.144 149.92,90.28 152.32,90.28 L153.952,90.28 L153.952,89.464 C153.952,88.296 153.312,87.656 152,87.656 C151.008,87.656 150.352,88.136 149.904,88.888 L149.136,88.168 C149.584,87.288 150.576,86.552 152.064,86.552 C154.048,86.552 155.232,87.592 155.232,89.336 L155.232,93.88 L156.176,93.88 L156.176,95 Z M151.776,94.104 C153.04,94.104 153.952,93.448 153.952,92.6 L153.952,91.24 L152.256,91.24 C150.8,91.24 150.144,91.688 150.144,92.488 L150.144,92.824 C150.144,93.64 150.784,94.104 151.776,94.104 Z M161.424,95 L159.824,95 C158.944,95 158.464,94.44 158.464,93.64 L158.464,87.864 L157.104,87.864 L157.104,86.744 L157.872,86.744 C158.416,86.744 158.592,86.552 158.592,85.992 L158.592,84.456 L159.744,84.456 L159.744,86.744 L161.552,86.744 L161.552,87.864 L159.744,87.864 L159.744,93.88 L161.424,93.88 L161.424,95 Z M163.904,95 L163.904,87.864 L162.56,87.864 L162.56,86.744 L163.904,86.744 L163.904,85.08 C163.904,83.944 164.496,83.16 165.712,83.16 L166.96,83.16 L166.96,84.28 L165.184,84.28 L165.184,86.744 L166.96,86.744 L166.96,87.864 L165.184,87.864 L165.184,95 L163.904,95 Z M171.696,95.192 C169.488,95.192 167.968,93.496 167.968,90.872 C167.968,88.248 169.488,86.552 171.696,86.552 C173.904,86.552 175.424,88.248 175.424,90.872 C175.424,93.496 173.904,95.192 171.696,95.192 Z M171.696,94.056 C173.072,94.056 174.048,93.208 174.048,91.464 L174.048,90.28 C174.048,88.536 173.072,87.688 171.696,87.688 C170.32,87.688 169.344,88.536 169.344,90.28 L169.344,91.464 C169.344,93.208 170.32,94.056 171.696,94.056 Z M178.816,95 L177.536,95 L177.536,86.744 L178.816,86.744 L178.816,88.264 L178.896,88.264 C179.184,87.48 179.936,86.744 181.28,86.744 L181.776,86.744 L181.776,88.024 L181.024,88.024 C179.648,88.024 178.816,88.616 178.816,89.4 L178.816,95 Z M184.688,95 L183.408,95 L183.408,86.744 L184.688,86.744 L184.688,88.088 L184.752,88.088 C185.12,87.24 185.696,86.552 186.976,86.552 C188.064,86.552 189.056,87.048 189.504,88.232 L189.536,88.232 C189.84,87.336 190.64,86.552 192.048,86.552 C193.728,86.552 194.736,87.704 194.736,89.704 L194.736,95 L193.456,95 L193.456,89.928 C193.456,88.472 192.896,87.704 191.648,87.704 C190.64,87.704 189.712,88.216 189.712,89.272 L189.712,95 L188.432,95 L188.432,89.928 C188.432,88.456 187.872,87.704 186.656,87.704 C185.648,87.704 184.688,88.216 184.688,89.272 L184.688,95 Z M201.6,95 L201.6,87.864 L200.256,87.864 L200.256,86.744 L201.6,86.744 L201.6,85.08 C201.6,83.944 202.192,83.16 203.408,83.16 L204.656,83.16 L204.656,84.28 L202.88,84.28 L202.88,86.744 L204.656,86.744 L204.656,87.864 L202.88,87.864 L202.88,95 L201.6,95 Z M209.392,95.192 C207.184,95.192 205.664,93.496 205.664,90.872 C205.664,88.248 207.184,86.552 209.392,86.552 C211.6,86.552 213.12,88.248 213.12,90.872 C213.12,93.496 211.6,95.192 209.392,95.192 Z M209.392,94.056 C210.768,94.056 211.744,93.208 211.744,91.464 L211.744,90.28 C211.744,88.536 210.768,87.688 209.392,87.688 C208.016,87.688 207.04,88.536 207.04,90.28 L207.04,91.464 C207.04,93.208 208.016,94.056 209.392,94.056 Z M216.512,95 L215.232,95 L215.232,86.744 L216.512,86.744 L216.512,88.264 L216.592,88.264 C216.88,87.48 217.632,86.744 218.976,86.744 L219.472,86.744 L219.472,88.024 L218.72,88.024 C217.344,88.024 216.512,88.616 216.512,89.4 L216.512,95 Z M25.36,119 L25.36,107.16 L26.64,107.16 L26.64,112.088 L26.704,112.088 C27.136,111.048 27.984,110.552 29.12,110.552 C31.184,110.552 32.48,112.232 32.48,114.872 C32.48,117.512 31.184,119.192 29.12,119.192 C27.984,119.192 27.2,118.68 26.704,117.656 L26.64,117.656 L26.64,119 L25.36,119 Z M28.768,118.04 C30.208,118.04 31.104,117.048 31.104,115.576 L31.104,114.168 C31.104,112.696 30.208,111.704 28.768,111.704 C27.6,111.704 26.64,112.376 26.64,113.288 L26.64,116.36 C26.64,117.432 27.6,118.04 28.768,118.04 Z M39.728,119 L39.728,117.656 L39.664,117.656 C39.344,118.44 38.72,119.192 37.344,119.192 C35.648,119.192 34.56,118.04 34.56,116.04 L34.56,110.744 L35.84,110.744 L35.84,115.816 C35.84,117.288 36.496,118.04 37.728,118.04 C38.736,118.04 39.728,117.544 39.728,116.456 L39.728,110.744 L41.008,110.744 L41.008,119 L39.728,119 Z M46.208,119.192 C44.688,119.192 43.68,118.552 42.944,117.576 L43.856,116.84 C44.496,117.64 45.264,118.104 46.304,118.104 C47.392,118.104 48.032,117.608 48.032,116.76 C48.032,116.12 47.68,115.624 46.592,115.464 L45.936,115.368 C44.416,115.144 43.28,114.52 43.28,112.984 C43.28,111.352 44.544,110.552 46.224,110.552 C47.552,110.552 48.432,111.048 49.104,111.88 L48.256,112.648 C47.888,112.136 47.184,111.64 46.128,111.64 C45.072,111.64 44.512,112.136 44.512,112.92 C44.512,113.72 45.072,114.04 46.096,114.2 L46.736,114.296 C48.56,114.568 49.264,115.368 49.264,116.616 C49.264,118.216 48.096,119.192 46.208,119.192 Z M52.16,108.808 C51.616,108.808 51.376,108.52 51.376,108.088 L51.376,107.88 C51.376,107.448 51.616,107.16 52.16,107.16 C52.704,107.16 52.944,107.448 52.944,107.88 L52.944,108.088 C52.944,108.52 52.704,108.808 52.16,108.808 Z M51.52,119 L51.52,110.744 L52.8,110.744 L52.8,119 L51.52,119 Z M56.8,119 L55.52,119 L55.52,110.744 L56.8,110.744 L56.8,112.088 L56.864,112.088 C57.264,111.16 57.968,110.552 59.2,110.552 C60.896,110.552 61.968,111.704 61.968,113.704 L61.968,119 L60.688,119 L60.688,113.928 C60.688,112.456 60.048,111.704 58.816,111.704 C57.792,111.704 56.8,112.216 56.8,113.272 L56.8,119 Z M67.712,119.192 C65.472,119.192 64,117.496 64,114.872 C64,112.248 65.472,110.552 67.712,110.552 C69.92,110.552 71.28,112.248 71.28,114.584 L71.28,115.192 L65.344,115.192 L65.344,115.576 C65.344,117 66.256,118.072 67.792,118.072 C68.832,118.072 69.632,117.56 70.064,116.648 L70.976,117.304 C70.448,118.424 69.264,119.192 67.712,119.192 Z M67.712,111.624 C66.32,111.624 65.344,112.68 65.344,114.12 L65.344,114.232 L69.904,114.232 L69.904,114.056 C69.904,112.6 69.024,111.624 67.712,111.624 Z M75.872,119.192 C74.352,119.192 73.344,118.552 72.608,117.576 L73.52,116.84 C74.16,117.64 74.928,118.104 75.968,118.104 C77.056,118.104 77.696,117.608 77.696,116.76 C77.696,116.12 77.344,115.624 76.256,115.464 L75.6,115.368 C74.08,115.144 72.944,114.52 72.944,112.984 C72.944,111.352 74.208,110.552 75.888,110.552 C77.216,110.552 78.096,111.048 78.768,111.88 L77.92,112.648 C77.552,112.136 76.848,111.64 75.792,111.64 C74.736,111.64 74.176,112.136 74.176,112.92 C74.176,113.72 74.736,114.04 75.76,114.2 L76.4,114.296 C78.224,114.568 78.928,115.368 78.928,116.616 C78.928,118.216 77.76,119.192 75.872,119.192 Z M83.568,119.192 C82.048,119.192 81.04,118.552 80.304,117.576 L81.216,116.84 C81.856,117.64 82.624,118.104 83.664,118.104 C84.752,118.104 85.392,117.608 85.392,116.76 C85.392,116.12 85.04,115.624 83.952,115.464 L83.296,115.368 C81.776,115.144 80.64,114.52 80.64,112.984 C80.64,111.352 81.904,110.552 83.584,110.552 C84.912,110.552 85.792,111.048 86.464,111.88 L85.616,112.648 C85.248,112.136 84.544,111.64 83.488,111.64 C82.432,111.64 81.872,112.136 81.872,112.92 C81.872,113.72 82.432,114.04 83.456,114.2 L84.096,114.296 C85.92,114.568 86.624,115.368 86.624,116.616 C86.624,118.216 85.456,119.192 83.568,119.192 Z M89.616,119.192 C88.944,119.192 88.64,118.808 88.64,118.264 L88.64,118.056 C88.64,117.512 88.944,117.128 89.616,117.128 C90.288,117.128 90.592,117.512 90.592,118.056 L90.592,118.264 C90.592,118.808 90.288,119.192 89.616,119.192 Z M100.096,119 L98.608,119 L95.888,107.832 L97.312,107.832 L98.512,113.208 L99.44,117.384 L99.472,117.384 L100.512,113.208 L101.92,107.832 L103.456,107.832 L104.816,113.208 L105.856,117.368 L105.904,117.368 L106.864,113.208 L108.128,107.832 L109.504,107.832 L106.64,119 L105.152,119 L103.696,113.432 L102.672,109.336 L102.64,109.336 L101.584,113.432 L100.096,119 Z M117.744,119 L117.024,119 C116.08,119 115.696,118.424 115.6,117.656 L115.52,117.656 C115.168,118.664 114.288,119.192 113.136,119.192 C111.392,119.192 110.368,118.232 110.368,116.696 C110.368,115.144 111.488,114.28 113.888,114.28 L115.52,114.28 L115.52,113.464 C115.52,112.296 114.88,111.656 113.568,111.656 C112.576,111.656 111.92,112.136 111.472,112.888 L110.704,112.168 C111.152,111.288 112.144,110.552 113.632,110.552 C115.616,110.552 116.8,111.592 116.8,113.336 L116.8,117.88 L117.744,117.88 L117.744,119 Z M113.344,118.104 C114.608,118.104 115.52,117.448 115.52,116.6 L115.52,115.24 L113.824,115.24 C112.368,115.24 111.712,115.688 111.712,116.488 L111.712,116.824 C111.712,117.64 112.352,118.104 113.344,118.104 Z M122.992,119 L121.392,119 C120.512,119 120.032,118.44 120.032,117.64 L120.032,111.864 L118.672,111.864 L118.672,110.744 L119.44,110.744 C119.984,110.744 120.16,110.552 120.16,109.992 L120.16,108.456 L121.312,108.456 L121.312,110.744 L123.12,110.744 L123.12,111.864 L121.312,111.864 L121.312,117.88 L122.992,117.88 L122.992,119 Z M127.664,119.192 C126.144,119.192 125.136,118.552 124.4,117.576 L125.312,116.84 C125.952,117.64 126.72,118.104 127.76,118.104 C128.848,118.104 129.488,117.608 129.488,116.76 C129.488,116.12 129.136,115.624 128.048,115.464 L127.392,115.368 C125.872,115.144 124.736,114.52 124.736,112.984 C124.736,111.352 126,110.552 127.68,110.552 C129.008,110.552 129.888,111.048 130.56,111.88 L129.712,112.648 C129.344,112.136 128.64,111.64 127.584,111.64 C126.528,111.64 125.968,112.136 125.968,112.92 C125.968,113.72 126.528,114.04 127.552,114.2 L128.192,114.296 C130.016,114.568 130.72,115.368 130.72,116.616 C130.72,118.216 129.552,119.192 127.664,119.192 Z M136.096,119.192 C133.888,119.192 132.368,117.496 132.368,114.872 C132.368,112.248 133.888,110.552 136.096,110.552 C138.304,110.552 139.824,112.248 139.824,114.872 C139.824,117.496 138.304,119.192 136.096,119.192 Z M136.096,118.056 C137.472,118.056 138.448,117.208 138.448,115.464 L138.448,114.28 C138.448,112.536 137.472,111.688 136.096,111.688 C134.72,111.688 133.744,112.536 133.744,114.28 L133.744,115.464 C133.744,117.208 134.72,118.056 136.096,118.056 Z M143.216,119 L141.936,119 L141.936,110.744 L143.216,110.744 L143.216,112.088 L143.28,112.088 C143.68,111.16 144.384,110.552 145.616,110.552 C147.312,110.552 148.384,111.704 148.384,113.704 L148.384,119 L147.104,119 L147.104,113.928 C147.104,112.456 146.464,111.704 145.232,111.704 C144.208,111.704 143.216,112.216 143.216,113.272 L143.216,119 Z M157.92,119.192 C155.712,119.192 154.192,117.496 154.192,114.872 C154.192,112.248 155.712,110.552 157.92,110.552 C160.128,110.552 161.648,112.248 161.648,114.872 C161.648,117.496 160.128,119.192 157.92,119.192 Z M157.92,118.056 C159.296,118.056 160.272,117.208 160.272,115.464 L160.272,114.28 C160.272,112.536 159.296,111.688 157.92,111.688 C156.544,111.688 155.568,112.536 155.568,114.28 L155.568,115.464 C155.568,117.208 156.544,118.056 157.92,118.056 Z M165.04,119 L163.76,119 L163.76,110.744 L165.04,110.744 L165.04,112.088 L165.104,112.088 C165.504,111.16 166.208,110.552 167.44,110.552 C169.136,110.552 170.208,111.704 170.208,113.704 L170.208,119 L168.928,119 L168.928,113.928 C168.928,112.456 168.288,111.704 167.056,111.704 C166.032,111.704 165.04,112.216 165.04,113.272 L165.04,119 Z M180.048,119 L178.448,119 C177.568,119 177.088,118.44 177.088,117.64 L177.088,111.864 L175.728,111.864 L175.728,110.744 L176.496,110.744 C177.04,110.744 177.216,110.552 177.216,109.992 L177.216,108.456 L178.368,108.456 L178.368,110.744 L180.176,110.744 L180.176,111.864 L178.368,111.864 L178.368,117.88 L180.048,117.88 L180.048,119 Z M182.24,119 L182.24,107.16 L183.52,107.16 L183.52,112.088 L183.584,112.088 C183.984,111.16 184.688,110.552 185.92,110.552 C187.616,110.552 188.688,111.704 188.688,113.704 L188.688,119 L187.408,119 L187.408,113.928 C187.408,112.456 186.768,111.704 185.536,111.704 C184.512,111.704 183.52,112.216 183.52,113.272 L183.52,119 L182.24,119 Z M194.432,119.192 C192.192,119.192 190.72,117.496 190.72,114.872 C190.72,112.248 192.192,110.552 194.432,110.552 C196.64,110.552 198,112.248 198,114.584 L198,115.192 L192.064,115.192 L192.064,115.576 C192.064,117 192.976,118.072 194.512,118.072 C195.552,118.072 196.352,117.56 196.784,116.648 L197.696,117.304 C197.168,118.424 195.984,119.192 194.432,119.192 Z M194.432,111.624 C193.04,111.624 192.064,112.68 192.064,114.12 L192.064,114.232 L196.624,114.232 L196.624,114.056 C196.624,112.6 195.744,111.624 194.432,111.624 Z M207.968,119 L203.488,119 L203.488,117.88 L205.056,117.88 L205.056,108.952 L203.488,108.952 L203.488,107.832 L207.968,107.832 L207.968,108.952 L206.4,108.952 L206.4,117.88 L207.968,117.88 L207.968,119 Z M210.416,119 L210.416,107.832 L215.008,107.832 C216.848,107.832 217.984,108.968 217.984,110.712 C217.984,112.376 216.912,112.968 216.176,113.08 L216.176,113.176 C216.976,113.224 218.368,113.912 218.368,115.768 C218.368,117.608 217.136,119 215.488,119 L210.416,119 Z M211.76,113.816 L211.76,117.816 L215.072,117.816 C216.224,117.816 216.928,117.208 216.928,116.088 L216.928,115.544 C216.928,114.424 216.224,113.816 215.072,113.816 L211.76,113.816 Z M211.76,109.016 L211.76,112.664 L214.848,112.664 C215.904,112.664 216.544,112.104 216.544,111.112 L216.544,110.568 C216.544,109.576 215.904,109.016 214.848,109.016 L211.76,109.016 Z M220.864,119 L220.864,107.832 L222.656,107.832 L225.856,113.848 L225.936,113.848 L229.152,107.832 L230.88,107.832 L230.88,119 L229.568,119 L229.568,109.592 L229.488,109.592 L228.544,111.464 L225.872,116.328 L223.2,111.464 L222.256,109.592 L222.176,109.592 L222.176,119 L220.864,119 Z M29.424,143.192 C26.608,143.192 24.928,141.208 24.928,137.48 C24.928,133.752 26.608,131.64 29.424,131.64 C31.28,131.64 32.56,132.536 33.264,134.088 L32.176,134.744 C31.728,133.592 30.8,132.84 29.424,132.84 C27.504,132.84 26.368,134.36 26.368,136.648 L26.368,138.312 C26.368,140.6 27.504,141.992 29.424,141.992 C30.848,141.992 31.824,141.192 32.272,139.976 L33.344,140.648 C32.64,142.216 31.28,143.192 29.424,143.192 Z M37.792,143 L36.656,143 C35.776,143 35.296,142.44 35.296,141.672 L35.296,131.16 L36.576,131.16 L36.576,141.88 L37.792,141.88 L37.792,143 Z M42.768,143.192 C40.56,143.192 39.04,141.496 39.04,138.872 C39.04,136.248 40.56,134.552 42.768,134.552 C44.976,134.552 46.496,136.248 46.496,138.872 C46.496,141.496 44.976,143.192 42.768,143.192 Z M42.768,142.056 C44.144,142.056 45.12,141.208 45.12,139.464 L45.12,138.28 C45.12,136.536 44.144,135.688 42.768,135.688 C41.392,135.688 40.416,136.536 40.416,138.28 L40.416,139.464 C40.416,141.208 41.392,142.056 42.768,142.056 Z M53.696,143 L53.696,141.656 L53.632,141.656 C53.312,142.44 52.688,143.192 51.312,143.192 C49.616,143.192 48.528,142.04 48.528,140.04 L48.528,134.744 L49.808,134.744 L49.808,139.816 C49.808,141.288 50.464,142.04 51.696,142.04 C52.704,142.04 53.696,141.544 53.696,140.456 L53.696,134.744 L54.976,134.744 L54.976,143 L53.696,143 Z M62.976,143 L62.976,141.656 L62.912,141.656 C62.416,142.68 61.632,143.192 60.496,143.192 C58.432,143.192 57.136,141.512 57.136,138.872 C57.136,136.232 58.432,134.552 60.496,134.552 C61.632,134.552 62.48,135.048 62.912,136.088 L62.976,136.088 L62.976,131.16 L64.256,131.16 L64.256,143 L62.976,143 Z M60.848,142.04 C62.016,142.04 62.976,141.432 62.976,140.36 L62.976,137.288 C62.976,136.376 62.016,135.704 60.848,135.704 C59.408,135.704 58.512,136.696 58.512,138.168 L58.512,139.576 C58.512,141.048 59.408,142.04 60.848,142.04 Z M77.472,143 L76.752,143 C75.808,143 75.424,142.424 75.328,141.656 L75.248,141.656 C74.896,142.664 74.016,143.192 72.864,143.192 C71.12,143.192 70.096,142.232 70.096,140.696 C70.096,139.144 71.216,138.28 73.616,138.28 L75.248,138.28 L75.248,137.464 C75.248,136.296 74.608,135.656 73.296,135.656 C72.304,135.656 71.648,136.136 71.2,136.888 L70.432,136.168 C70.88,135.288 71.872,134.552 73.36,134.552 C75.344,134.552 76.528,135.592 76.528,137.336 L76.528,141.88 L77.472,141.88 L77.472,143 Z M73.072,142.104 C74.336,142.104 75.248,141.448 75.248,140.6 L75.248,139.24 L73.552,139.24 C72.096,139.24 71.44,139.688 71.44,140.488 L71.44,140.824 C71.44,141.64 72.08,142.104 73.072,142.104 Z M81.792,143 L80.656,143 C79.776,143 79.296,142.44 79.296,141.672 L79.296,131.16 L80.576,131.16 L80.576,141.88 L81.792,141.88 L81.792,143 Z M86.064,143 L84.928,143 C84.048,143 83.568,142.44 83.568,141.672 L83.568,131.16 L84.848,131.16 L84.848,141.88 L86.064,141.88 L86.064,143 Z M91.04,143.192 C88.832,143.192 87.312,141.496 87.312,138.872 C87.312,136.248 88.832,134.552 91.04,134.552 C93.248,134.552 94.768,136.248 94.768,138.872 C94.768,141.496 93.248,143.192 91.04,143.192 Z M91.04,142.056 C92.416,142.056 93.392,141.208 93.392,139.464 L93.392,138.28 C93.392,136.536 92.416,135.688 91.04,135.688 C89.664,135.688 88.688,136.536 88.688,138.28 L88.688,139.464 C88.688,141.208 89.664,142.056 91.04,142.056 Z M98.144,143 L95.936,134.744 L97.184,134.744 L98.064,138.312 L98.944,141.928 L98.976,141.928 L99.984,138.312 L101.024,134.744 L102.16,134.744 L103.232,138.312 L104.256,141.928 L104.288,141.928 L105.136,138.312 L106.032,134.744 L107.232,134.744 L105.04,143 L103.456,143 L102.304,139.032 L101.584,136.52 L101.552,136.52 L100.848,139.032 L99.696,143 L98.144,143 Z M111.536,143.192 C110.016,143.192 109.008,142.552 108.272,141.576 L109.184,140.84 C109.824,141.64 110.592,142.104 111.632,142.104 C112.72,142.104 113.36,141.608 113.36,140.76 C113.36,140.12 113.008,139.624 111.92,139.464 L111.264,139.368 C109.744,139.144 108.608,138.52 108.608,136.984 C108.608,135.352 109.872,134.552 111.552,134.552 C112.88,134.552 113.76,135.048 114.432,135.88 L113.584,136.648 C113.216,136.136 112.512,135.64 111.456,135.64 C110.4,135.64 109.84,136.136 109.84,136.92 C109.84,137.72 110.4,138.04 111.424,138.2 L112.064,138.296 C113.888,138.568 114.592,139.368 114.592,140.616 C114.592,142.216 113.424,143.192 111.536,143.192 Z M123.712,140.36 L125.712,134.744 L126.976,134.744 L123.28,144.92 C122.912,145.912 122.576,146.2 121.36,146.2 L120.704,146.2 L120.704,145.08 L122,145.08 L122.624,143.32 L119.536,134.744 L120.816,134.744 L122.8,140.36 L123.184,141.704 L123.264,141.704 L123.712,140.36 Z M131.648,143.192 C129.44,143.192 127.92,141.496 127.92,138.872 C127.92,136.248 129.44,134.552 131.648,134.552 C133.856,134.552 135.376,136.248 135.376,138.872 C135.376,141.496 133.856,143.192 131.648,143.192 Z M131.648,142.056 C133.024,142.056 134,141.208 134,139.464 L134,138.28 C134,136.536 133.024,135.688 131.648,135.688 C130.272,135.688 129.296,136.536 129.296,138.28 L129.296,139.464 C129.296,141.208 130.272,142.056 131.648,142.056 Z M142.576,143 L142.576,141.656 L142.512,141.656 C142.192,142.44 141.568,143.192 140.192,143.192 C138.496,143.192 137.408,142.04 137.408,140.04 L137.408,134.744 L138.688,134.744 L138.688,139.816 C138.688,141.288 139.344,142.04 140.576,142.04 C141.584,142.04 142.576,141.544 142.576,140.456 L142.576,134.744 L143.856,134.744 L143.856,143 L142.576,143 Z M153.776,143 L152.176,143 C151.296,143 150.816,142.44 150.816,141.64 L150.816,135.864 L149.456,135.864 L149.456,134.744 L150.224,134.744 C150.768,134.744 150.944,134.552 150.944,133.992 L150.944,132.456 L152.096,132.456 L152.096,134.744 L153.904,134.744 L153.904,135.864 L152.096,135.864 L152.096,141.88 L153.776,141.88 L153.776,143 Z M159.024,143.192 C156.816,143.192 155.296,141.496 155.296,138.872 C155.296,136.248 156.816,134.552 159.024,134.552 C161.232,134.552 162.752,136.248 162.752,138.872 C162.752,141.496 161.232,143.192 159.024,143.192 Z M159.024,142.056 C160.4,142.056 161.376,141.208 161.376,139.464 L161.376,138.28 C161.376,136.536 160.4,135.688 159.024,135.688 C157.648,135.688 156.672,136.536 156.672,138.28 L156.672,139.464 C156.672,141.208 157.648,142.056 159.024,142.056 Z M169.28,132.808 C168.736,132.808 168.496,132.52 168.496,132.088 L168.496,131.88 C168.496,131.448 168.736,131.16 169.28,131.16 C169.824,131.16 170.064,131.448 170.064,131.88 L170.064,132.088 C170.064,132.52 169.824,132.808 169.28,132.808 Z M168.64,143 L168.64,134.744 L169.92,134.744 L169.92,143 L168.64,143 Z M173.92,143 L172.64,143 L172.64,134.744 L173.92,134.744 L173.92,136.088 L173.984,136.088 C174.384,135.16 175.088,134.552 176.32,134.552 C178.016,134.552 179.088,135.704 179.088,137.704 L179.088,143 L177.808,143 L177.808,137.928 C177.808,136.456 177.168,135.704 175.936,135.704 C174.912,135.704 173.92,136.216 173.92,137.272 L173.92,143 Z M185.152,143 L183.552,143 C182.672,143 182.192,142.44 182.192,141.64 L182.192,135.864 L180.832,135.864 L180.832,134.744 L181.6,134.744 C182.144,134.744 182.32,134.552 182.32,133.992 L182.32,132.456 L183.472,132.456 L183.472,134.744 L185.28,134.744 L185.28,135.864 L183.472,135.864 L183.472,141.88 L185.152,141.88 L185.152,143 Z M190.384,143.192 C188.144,143.192 186.672,141.496 186.672,138.872 C186.672,136.248 188.144,134.552 190.384,134.552 C192.592,134.552 193.952,136.248 193.952,138.584 L193.952,139.192 L188.016,139.192 L188.016,139.576 C188.016,141 188.928,142.072 190.464,142.072 C191.504,142.072 192.304,141.56 192.736,140.648 L193.648,141.304 C193.12,142.424 191.936,143.192 190.384,143.192 Z M190.384,135.624 C188.992,135.624 188.016,136.68 188.016,138.12 L188.016,138.232 L192.576,138.232 L192.576,138.056 C192.576,136.6 191.696,135.624 190.384,135.624 Z M203.024,143.912 C203.024,145.608 201.68,146.392 199.024,146.392 C196.448,146.392 195.392,145.656 195.392,144.36 C195.392,143.464 195.888,142.984 196.704,142.76 L196.704,142.584 C196.24,142.36 195.968,141.992 195.968,141.432 C195.968,140.6 196.56,140.2 197.392,139.992 L197.392,139.928 C196.416,139.464 195.84,138.552 195.84,137.4 C195.84,135.72 197.072,134.552 198.944,134.552 C199.536,134.552 200.064,134.664 200.512,134.872 L200.512,134.728 C200.512,134.088 200.784,133.624 201.472,133.624 L202.704,133.624 L202.704,134.744 L201.136,134.744 L201.136,135.272 C201.728,135.784 202.08,136.52 202.08,137.4 C202.08,139.08 200.848,140.248 198.96,140.248 C198.688,140.248 198.4,140.216 198.16,140.168 C197.616,140.312 197.072,140.584 197.072,141.096 C197.072,141.592 197.584,141.72 198.336,141.72 L200.096,141.72 C202.144,141.72 203.024,142.552 203.024,143.912 Z M201.824,144.008 C201.824,143.352 201.392,142.92 200.112,142.92 L197.36,142.92 C196.832,143.16 196.592,143.528 196.592,144.04 C196.592,144.76 197.088,145.352 198.384,145.352 L199.568,145.352 C200.992,145.352 201.824,144.904 201.824,144.008 Z M198.96,139.224 C200.048,139.224 200.736,138.712 200.736,137.624 L200.736,137.176 C200.736,136.088 200.048,135.576 198.96,135.576 C197.872,135.576 197.184,136.088 197.184,137.176 L197.184,137.624 C197.184,138.712 197.872,139.224 198.96,139.224 Z M205.792,143 L204.512,143 L204.512,134.744 L205.792,134.744 L205.792,136.264 L205.872,136.264 C206.16,135.48 206.912,134.744 208.256,134.744 L208.752,134.744 L208.752,136.024 L208,136.024 C206.624,136.024 205.792,136.616 205.792,137.4 L205.792,143 Z M217.04,143 L216.32,143 C215.376,143 214.992,142.424 214.896,141.656 L214.816,141.656 C214.464,142.664 213.584,143.192 212.432,143.192 C210.688,143.192 209.664,142.232 209.664,140.696 C209.664,139.144 210.784,138.28 213.184,138.28 L214.816,138.28 L214.816,137.464 C214.816,136.296 214.176,135.656 212.864,135.656 C211.872,135.656 211.216,136.136 210.768,136.888 L210,136.168 C210.448,135.288 211.44,134.552 212.928,134.552 C214.912,134.552 216.096,135.592 216.096,137.336 L216.096,141.88 L217.04,141.88 L217.04,143 Z M212.64,142.104 C213.904,142.104 214.816,141.448 214.816,140.6 L214.816,139.24 L213.12,139.24 C211.664,139.24 211.008,139.688 211.008,140.488 L211.008,140.824 C211.008,141.64 211.648,142.104 212.64,142.104 Z M222.288,143 L220.688,143 C219.808,143 219.328,142.44 219.328,141.64 L219.328,135.864 L217.968,135.864 L217.968,134.744 L218.736,134.744 C219.28,134.744 219.456,134.552 219.456,133.992 L219.456,132.456 L220.608,132.456 L220.608,134.744 L222.416,134.744 L222.416,135.864 L220.608,135.864 L220.608,141.88 L222.288,141.88 L222.288,143 Z M227.52,143.192 C225.28,143.192 223.808,141.496 223.808,138.872 C223.808,136.248 225.28,134.552 227.52,134.552 C229.728,134.552 231.088,136.248 231.088,138.584 L231.088,139.192 L225.152,139.192 L225.152,139.576 C225.152,141 226.064,142.072 227.6,142.072 C228.64,142.072 229.44,141.56 229.872,140.648 L230.784,141.304 C230.256,142.424 229.072,143.192 227.52,143.192 Z M227.52,135.624 C226.128,135.624 225.152,136.68 225.152,138.12 L225.152,138.232 L229.712,138.232 L229.712,138.056 C229.712,136.6 228.832,135.624 227.52,135.624 Z M28.784,167 L27.184,167 C26.304,167 25.824,166.44 25.824,165.64 L25.824,159.864 L24.464,159.864 L24.464,158.744 L25.232,158.744 C25.776,158.744 25.952,158.552 25.952,157.992 L25.952,156.456 L27.104,156.456 L27.104,158.744 L28.912,158.744 L28.912,159.864 L27.104,159.864 L27.104,165.88 L28.784,165.88 L28.784,167 Z M30.976,167 L30.976,155.16 L32.256,155.16 L32.256,160.088 L32.32,160.088 C32.72,159.16 33.424,158.552 34.656,158.552 C36.352,158.552 37.424,159.704 37.424,161.704 L37.424,167 L36.144,167 L36.144,161.928 C36.144,160.456 35.504,159.704 34.272,159.704 C33.248,159.704 32.256,160.216 32.256,161.272 L32.256,167 L30.976,167 Z M43.168,167.192 C40.928,167.192 39.456,165.496 39.456,162.872 C39.456,160.248 40.928,158.552 43.168,158.552 C45.376,158.552 46.736,160.248 46.736,162.584 L46.736,163.192 L40.8,163.192 L40.8,163.576 C40.8,165 41.712,166.072 43.248,166.072 C44.288,166.072 45.088,165.56 45.52,164.648 L46.432,165.304 C45.904,166.424 44.72,167.192 43.168,167.192 Z M43.168,159.624 C41.776,159.624 40.8,160.68 40.8,162.12 L40.8,162.232 L45.36,162.232 L45.36,162.056 C45.36,160.6 44.48,159.624 43.168,159.624 Z M53.968,167 L51.76,158.744 L53.008,158.744 L53.888,162.312 L54.768,165.928 L54.8,165.928 L55.808,162.312 L56.848,158.744 L57.984,158.744 L59.056,162.312 L60.08,165.928 L60.112,165.928 L60.96,162.312 L61.856,158.744 L63.056,158.744 L60.864,167 L59.28,167 L58.128,163.032 L57.408,160.52 L57.376,160.52 L56.672,163.032 L55.52,167 L53.968,167 Z M67.952,167.192 C65.744,167.192 64.224,165.496 64.224,162.872 C64.224,160.248 65.744,158.552 67.952,158.552 C70.16,158.552 71.68,160.248 71.68,162.872 C71.68,165.496 70.16,167.192 67.952,167.192 Z M67.952,166.056 C69.328,166.056 70.304,165.208 70.304,163.464 L70.304,162.28 C70.304,160.536 69.328,159.688 67.952,159.688 C66.576,159.688 65.6,160.536 65.6,162.28 L65.6,163.464 C65.6,165.208 66.576,166.056 67.952,166.056 Z M75.072,167 L73.792,167 L73.792,158.744 L75.072,158.744 L75.072,160.264 L75.152,160.264 C75.44,159.48 76.192,158.744 77.536,158.744 L78.032,158.744 L78.032,160.024 L77.28,160.024 C75.904,160.024 75.072,160.616 75.072,161.4 L75.072,167 Z M82.16,167 L81.024,167 C80.144,167 79.664,166.44 79.664,165.672 L79.664,155.16 L80.944,155.16 L80.944,165.88 L82.16,165.88 L82.16,167 Z M89.296,167 L89.296,165.656 L89.232,165.656 C88.736,166.68 87.952,167.192 86.816,167.192 C84.752,167.192 83.456,165.512 83.456,162.872 C83.456,160.232 84.752,158.552 86.816,158.552 C87.952,158.552 88.8,159.048 89.232,160.088 L89.296,160.088 L89.296,155.16 L90.576,155.16 L90.576,167 L89.296,167 Z M87.168,166.04 C88.336,166.04 89.296,165.432 89.296,164.36 L89.296,161.288 C89.296,160.376 88.336,159.704 87.168,159.704 C85.728,159.704 84.832,160.696 84.832,162.168 L84.832,163.576 C84.832,165.048 85.728,166.04 87.168,166.04 Z M94.448,159.64 L93.296,159.64 L93.296,155.16 L94.448,155.16 L94.448,159.64 Z M99.648,167.192 C98.128,167.192 97.12,166.552 96.384,165.576 L97.296,164.84 C97.936,165.64 98.704,166.104 99.744,166.104 C100.832,166.104 101.472,165.608 101.472,164.76 C101.472,164.12 101.12,163.624 100.032,163.464 L99.376,163.368 C97.856,163.144 96.72,162.52 96.72,160.984 C96.72,159.352 97.984,158.552 99.664,158.552 C100.992,158.552 101.872,159.048 102.544,159.88 L101.696,160.648 C101.328,160.136 100.624,159.64 99.568,159.64 C98.512,159.64 97.952,160.136 97.952,160.92 C97.952,161.72 98.512,162.04 99.536,162.2 L100.176,162.296 C102,162.568 102.704,163.368 102.704,164.616 C102.704,166.216 101.536,167.192 99.648,167.192 Z M110.016,167 L108.736,167 L108.736,158.744 L110.016,158.744 L110.016,160.088 L110.08,160.088 C110.448,159.24 111.024,158.552 112.304,158.552 C113.392,158.552 114.384,159.048 114.832,160.232 L114.864,160.232 C115.168,159.336 115.968,158.552 117.376,158.552 C119.056,158.552 120.064,159.704 120.064,161.704 L120.064,167 L118.784,167 L118.784,161.928 C118.784,160.472 118.224,159.704 116.976,159.704 C115.968,159.704 115.04,160.216 115.04,161.272 L115.04,167 L113.76,167 L113.76,161.928 C113.76,160.456 113.2,159.704 111.984,159.704 C110.976,159.704 110.016,160.216 110.016,161.272 L110.016,167 Z M125.824,167.192 C123.616,167.192 122.096,165.496 122.096,162.872 C122.096,160.248 123.616,158.552 125.824,158.552 C128.032,158.552 129.552,160.248 129.552,162.872 C129.552,165.496 128.032,167.192 125.824,167.192 Z M125.824,166.056 C127.2,166.056 128.176,165.208 128.176,163.464 L128.176,162.28 C128.176,160.536 127.2,159.688 125.824,159.688 C124.448,159.688 123.472,160.536 123.472,162.28 L123.472,163.464 C123.472,165.208 124.448,166.056 125.824,166.056 Z M134.144,167.192 C132.624,167.192 131.616,166.552 130.88,165.576 L131.792,164.84 C132.432,165.64 133.2,166.104 134.24,166.104 C135.328,166.104 135.968,165.608 135.968,164.76 C135.968,164.12 135.616,163.624 134.528,163.464 L133.872,163.368 C132.352,163.144 131.216,162.52 131.216,160.984 C131.216,159.352 132.48,158.552 134.16,158.552 C135.488,158.552 136.368,159.048 137.04,159.88 L136.192,160.648 C135.824,160.136 135.12,159.64 134.064,159.64 C133.008,159.64 132.448,160.136 132.448,160.92 C132.448,161.72 133.008,162.04 134.032,162.2 L134.672,162.296 C136.496,162.568 137.2,163.368 137.2,164.616 C137.2,166.216 136.032,167.192 134.144,167.192 Z M142.768,167 L141.168,167 C140.288,167 139.808,166.44 139.808,165.64 L139.808,159.864 L138.448,159.864 L138.448,158.744 L139.216,158.744 C139.76,158.744 139.936,158.552 139.936,157.992 L139.936,156.456 L141.088,156.456 L141.088,158.744 L142.896,158.744 L142.896,159.864 L141.088,159.864 L141.088,165.88 L142.768,165.88 L142.768,167 Z M148.736,170.2 L148.736,158.744 L150.016,158.744 L150.016,160.088 L150.08,160.088 C150.512,159.048 151.36,158.552 152.496,158.552 C154.56,158.552 155.856,160.232 155.856,162.872 C155.856,165.512 154.56,167.192 152.496,167.192 C151.36,167.192 150.576,166.68 150.08,165.656 L150.016,165.656 L150.016,170.2 L148.736,170.2 Z M152.144,166.04 C153.584,166.04 154.48,165.048 154.48,163.576 L154.48,162.168 C154.48,160.696 153.584,159.704 152.144,159.704 C150.976,159.704 150.016,160.376 150.016,161.288 L150.016,164.36 C150.016,165.432 150.976,166.04 152.144,166.04 Z M161.136,167.192 C158.928,167.192 157.408,165.496 157.408,162.872 C157.408,160.248 158.928,158.552 161.136,158.552 C163.344,158.552 164.864,160.248 164.864,162.872 C164.864,165.496 163.344,167.192 161.136,167.192 Z M161.136,166.056 C162.512,166.056 163.488,165.208 163.488,163.464 L163.488,162.28 C163.488,160.536 162.512,159.688 161.136,159.688 C159.76,159.688 158.784,160.536 158.784,162.28 L158.784,163.464 C158.784,165.208 159.76,166.056 161.136,166.056 Z M168.24,167 L166.032,158.744 L167.28,158.744 L168.16,162.312 L169.04,165.928 L169.072,165.928 L170.08,162.312 L171.12,158.744 L172.256,158.744 L173.328,162.312 L174.352,165.928 L174.384,165.928 L175.232,162.312 L176.128,158.744 L177.328,158.744 L175.136,167 L173.552,167 L172.4,163.032 L171.68,160.52 L171.648,160.52 L170.944,163.032 L169.792,167 L168.24,167 Z M182.208,167.192 C179.968,167.192 178.496,165.496 178.496,162.872 C178.496,160.248 179.968,158.552 182.208,158.552 C184.416,158.552 185.776,160.248 185.776,162.584 L185.776,163.192 L179.84,163.192 L179.84,163.576 C179.84,165 180.752,166.072 182.288,166.072 C183.328,166.072 184.128,165.56 184.56,164.648 L185.472,165.304 C184.944,166.424 183.76,167.192 182.208,167.192 Z M182.208,159.624 C180.816,159.624 179.84,160.68 179.84,162.12 L179.84,162.232 L184.4,162.232 L184.4,162.056 C184.4,160.6 183.52,159.624 182.208,159.624 Z M189.168,167 L187.888,167 L187.888,158.744 L189.168,158.744 L189.168,160.264 L189.248,160.264 C189.536,159.48 190.288,158.744 191.632,158.744 L192.128,158.744 L192.128,160.024 L191.376,160.024 C190,160.024 189.168,160.616 189.168,161.4 L189.168,167 Z M194.272,167 L194.272,159.864 L192.928,159.864 L192.928,158.744 L194.272,158.744 L194.272,157.08 C194.272,155.944 194.864,155.16 196.08,155.16 L197.328,155.16 L197.328,156.28 L195.552,156.28 L195.552,158.744 L197.328,158.744 L197.328,159.864 L195.552,159.864 L195.552,167 L194.272,167 Z M204.096,167 L204.096,165.656 L204.032,165.656 C203.712,166.44 203.088,167.192 201.712,167.192 C200.016,167.192 198.928,166.04 198.928,164.04 L198.928,158.744 L200.208,158.744 L200.208,163.816 C200.208,165.288 200.864,166.04 202.096,166.04 C203.104,166.04 204.096,165.544 204.096,164.456 L204.096,158.744 L205.376,158.744 L205.376,167 L204.096,167 Z M210.592,167 L209.456,167 C208.576,167 208.096,166.44 208.096,165.672 L208.096,155.16 L209.376,155.16 L209.376,165.88 L210.592,165.88 L210.592,167 Z M224.752,167 L223.344,167 L222.224,163.704 L217.712,163.704 L216.592,167 L215.232,167 L219.136,155.832 L220.848,155.832 L224.752,167 Z M221.888,162.52 L220,157.08 L219.92,157.08 L218.032,162.52 L221.888,162.52 Z M230.56,167 L226.08,167 L226.08,165.88 L227.648,165.88 L227.648,156.952 L226.08,156.952 L226.08,155.832 L230.56,155.832 L230.56,156.952 L228.992,156.952 L228.992,165.88 L230.56,165.88 L230.56,167 Z M26,180.808 C25.456,180.808 25.216,180.52 25.216,180.088 L25.216,179.88 C25.216,179.448 25.456,179.16 26,179.16 C26.544,179.16 26.784,179.448 26.784,179.88 L26.784,180.088 C26.784,180.52 26.544,180.808 26,180.808 Z M25.36,191 L25.36,182.744 L26.64,182.744 L26.64,191 L25.36,191 Z M30.64,191 L29.36,191 L29.36,182.744 L30.64,182.744 L30.64,184.088 L30.704,184.088 C31.104,183.16 31.808,182.552 33.04,182.552 C34.736,182.552 35.808,183.704 35.808,185.704 L35.808,191 L34.528,191 L34.528,185.928 C34.528,184.456 33.888,183.704 32.656,183.704 C31.632,183.704 30.64,184.216 30.64,185.272 L30.64,191 Z M41.872,191 L40.272,191 C39.392,191 38.912,190.44 38.912,189.64 L38.912,183.864 L37.552,183.864 L37.552,182.744 L38.32,182.744 C38.864,182.744 39.04,182.552 39.04,181.992 L39.04,180.456 L40.192,180.456 L40.192,182.744 L42,182.744 L42,183.864 L40.192,183.864 L40.192,189.88 L41.872,189.88 L41.872,191 Z M47.12,191.192 C44.912,191.192 43.392,189.496 43.392,186.872 C43.392,184.248 44.912,182.552 47.12,182.552 C49.328,182.552 50.848,184.248 50.848,186.872 C50.848,189.496 49.328,191.192 47.12,191.192 Z M47.12,190.056 C48.496,190.056 49.472,189.208 49.472,187.464 L49.472,186.28 C49.472,184.536 48.496,183.688 47.12,183.688 C45.744,183.688 44.768,184.536 44.768,186.28 L44.768,187.464 C44.768,189.208 45.744,190.056 47.12,190.056 Z M59.824,188.36 L61.824,182.744 L63.088,182.744 L59.392,192.92 C59.024,193.912 58.688,194.2 57.472,194.2 L56.816,194.2 L56.816,193.08 L58.112,193.08 L58.736,191.32 L55.648,182.744 L56.928,182.744 L58.912,188.36 L59.296,189.704 L59.376,189.704 L59.824,188.36 Z M67.76,191.192 C65.552,191.192 64.032,189.496 64.032,186.872 C64.032,184.248 65.552,182.552 67.76,182.552 C69.968,182.552 71.488,184.248 71.488,186.872 C71.488,189.496 69.968,191.192 67.76,191.192 Z M67.76,190.056 C69.136,190.056 70.112,189.208 70.112,187.464 L70.112,186.28 C70.112,184.536 69.136,183.688 67.76,183.688 C66.384,183.688 65.408,184.536 65.408,186.28 L65.408,187.464 C65.408,189.208 66.384,190.056 67.76,190.056 Z M78.688,191 L78.688,189.656 L78.624,189.656 C78.304,190.44 77.68,191.192 76.304,191.192 C74.608,191.192 73.52,190.04 73.52,188.04 L73.52,182.744 L74.8,182.744 L74.8,187.816 C74.8,189.288 75.456,190.04 76.688,190.04 C77.696,190.04 78.688,189.544 78.688,188.456 L78.688,182.744 L79.968,182.744 L79.968,191 L78.688,191 Z M83.968,191 L82.688,191 L82.688,182.744 L83.968,182.744 L83.968,184.264 L84.048,184.264 C84.336,183.48 85.088,182.744 86.432,182.744 L86.928,182.744 L86.928,184.024 L86.176,184.024 C84.8,184.024 83.968,184.616 83.968,185.4 L83.968,191 Z M99.056,191 L98.336,191 C97.392,191 97.008,190.424 96.912,189.656 L96.832,189.656 C96.48,190.664 95.6,191.192 94.448,191.192 C92.704,191.192 91.68,190.232 91.68,188.696 C91.68,187.144 92.8,186.28 95.2,186.28 L96.832,186.28 L96.832,185.464 C96.832,184.296 96.192,183.656 94.88,183.656 C93.888,183.656 93.232,184.136 92.784,184.888 L92.016,184.168 C92.464,183.288 93.456,182.552 94.944,182.552 C96.928,182.552 98.112,183.592 98.112,185.336 L98.112,189.88 L99.056,189.88 L99.056,191 Z M94.656,190.104 C95.92,190.104 96.832,189.448 96.832,188.6 L96.832,187.24 L95.136,187.24 C93.68,187.24 93.024,187.688 93.024,188.488 L93.024,188.824 C93.024,189.64 93.664,190.104 94.656,190.104 Z M100.88,194.2 L100.88,182.744 L102.16,182.744 L102.16,184.088 L102.224,184.088 C102.656,183.048 103.504,182.552 104.64,182.552 C106.704,182.552 108,184.232 108,186.872 C108,189.512 106.704,191.192 104.64,191.192 C103.504,191.192 102.72,190.68 102.224,189.656 L102.16,189.656 L102.16,194.2 L100.88,194.2 Z M104.288,190.04 C105.728,190.04 106.624,189.048 106.624,187.576 L106.624,186.168 C106.624,184.696 105.728,183.704 104.288,183.704 C103.12,183.704 102.16,184.376 102.16,185.288 L102.16,188.36 C102.16,189.432 103.12,190.04 104.288,190.04 Z M110.16,194.2 L110.16,182.744 L111.44,182.744 L111.44,184.088 L111.504,184.088 C111.936,183.048 112.784,182.552 113.92,182.552 C115.984,182.552 117.28,184.232 117.28,186.872 C117.28,189.512 115.984,191.192 113.92,191.192 C112.784,191.192 112,190.68 111.504,189.656 L111.44,189.656 L111.44,194.2 L110.16,194.2 Z M113.568,190.04 C115.008,190.04 115.904,189.048 115.904,187.576 L115.904,186.168 C115.904,184.696 115.008,183.704 113.568,183.704 C112.4,183.704 111.44,184.376 111.44,185.288 L111.44,188.36 C111.44,189.432 112.4,190.04 113.568,190.04 Z M121.936,191 L120.8,191 C119.92,191 119.44,190.44 119.44,189.672 L119.44,179.16 L120.72,179.16 L120.72,189.88 L121.936,189.88 L121.936,191 Z M124.432,180.808 C123.888,180.808 123.648,180.52 123.648,180.088 L123.648,179.88 C123.648,179.448 123.888,179.16 124.432,179.16 C124.976,179.16 125.216,179.448 125.216,179.88 L125.216,180.088 C125.216,180.52 124.976,180.808 124.432,180.808 Z M123.792,191 L123.792,182.744 L125.072,182.744 L125.072,191 L123.792,191 Z M130.864,191.192 C128.544,191.192 127.184,189.512 127.184,186.872 C127.184,184.232 128.544,182.552 130.864,182.552 C132.496,182.552 133.472,183.352 133.952,184.488 L132.88,185.032 C132.576,184.184 131.872,183.688 130.864,183.688 C129.344,183.688 128.56,184.728 128.56,186.168 L128.56,187.576 C128.56,189.016 129.344,190.056 130.864,190.056 C131.904,190.056 132.656,189.56 133.104,188.616 L134.032,189.24 C133.504,190.424 132.432,191.192 130.864,191.192 Z M142.56,191 L141.84,191 C140.896,191 140.512,190.424 140.416,189.656 L140.336,189.656 C139.984,190.664 139.104,191.192 137.952,191.192 C136.208,191.192 135.184,190.232 135.184,188.696 C135.184,187.144 136.304,186.28 138.704,186.28 L140.336,186.28 L140.336,185.464 C140.336,184.296 139.696,183.656 138.384,183.656 C137.392,183.656 136.736,184.136 136.288,184.888 L135.52,184.168 C135.968,183.288 136.96,182.552 138.448,182.552 C140.432,182.552 141.616,183.592 141.616,185.336 L141.616,189.88 L142.56,189.88 L142.56,191 Z M138.16,190.104 C139.424,190.104 140.336,189.448 140.336,188.6 L140.336,187.24 L138.64,187.24 C137.184,187.24 136.528,187.688 136.528,188.488 L136.528,188.824 C136.528,189.64 137.168,190.104 138.16,190.104 Z M147.808,191 L146.208,191 C145.328,191 144.848,190.44 144.848,189.64 L144.848,183.864 L143.488,183.864 L143.488,182.744 L144.256,182.744 C144.8,182.744 144.976,182.552 144.976,181.992 L144.976,180.456 L146.128,180.456 L146.128,182.744 L147.936,182.744 L147.936,183.864 L146.128,183.864 L146.128,189.88 L147.808,189.88 L147.808,191 Z M150.64,180.808 C150.096,180.808 149.856,180.52 149.856,180.088 L149.856,179.88 C149.856,179.448 150.096,179.16 150.64,179.16 C151.184,179.16 151.424,179.448 151.424,179.88 L151.424,180.088 C151.424,180.52 151.184,180.808 150.64,180.808 Z M150,191 L150,182.744 L151.28,182.744 L151.28,191 L150,191 Z M157.12,191.192 C154.912,191.192 153.392,189.496 153.392,186.872 C153.392,184.248 154.912,182.552 157.12,182.552 C159.328,182.552 160.848,184.248 160.848,186.872 C160.848,189.496 159.328,191.192 157.12,191.192 Z M157.12,190.056 C158.496,190.056 159.472,189.208 159.472,187.464 L159.472,186.28 C159.472,184.536 158.496,183.688 157.12,183.688 C155.744,183.688 154.768,184.536 154.768,186.28 L154.768,187.464 C154.768,189.208 155.744,190.056 157.12,190.056 Z M164.24,191 L162.96,191 L162.96,182.744 L164.24,182.744 L164.24,184.088 L164.304,184.088 C164.704,183.16 165.408,182.552 166.64,182.552 C168.336,182.552 169.408,183.704 169.408,185.704 L169.408,191 L168.128,191 L168.128,185.928 C168.128,184.456 167.488,183.704 166.256,183.704 C165.232,183.704 164.24,184.216 164.24,185.272 L164.24,191 Z M182.544,191 L181.824,191 C180.88,191 180.496,190.424 180.4,189.656 L180.32,189.656 C179.968,190.664 179.088,191.192 177.936,191.192 C176.192,191.192 175.168,190.232 175.168,188.696 C175.168,187.144 176.288,186.28 178.688,186.28 L180.32,186.28 L180.32,185.464 C180.32,184.296 179.68,183.656 178.368,183.656 C177.376,183.656 176.72,184.136 176.272,184.888 L175.504,184.168 C175.952,183.288 176.944,182.552 178.432,182.552 C180.416,182.552 181.6,183.592 181.6,185.336 L181.6,189.88 L182.544,189.88 L182.544,191 Z M178.144,190.104 C179.408,190.104 180.32,189.448 180.32,188.6 L180.32,187.24 L178.624,187.24 C177.168,187.24 176.512,187.688 176.512,188.488 L176.512,188.824 C176.512,189.64 177.152,190.104 178.144,190.104 Z M185.648,191 L184.368,191 L184.368,182.744 L185.648,182.744 L185.648,184.088 L185.712,184.088 C186.112,183.16 186.816,182.552 188.048,182.552 C189.744,182.552 190.816,183.704 190.816,185.704 L190.816,191 L189.536,191 L189.536,185.928 C189.536,184.456 188.896,183.704 187.664,183.704 C186.64,183.704 185.648,184.216 185.648,185.272 L185.648,191 Z M198.736,191 L198.736,189.656 L198.672,189.656 C198.176,190.68 197.392,191.192 196.256,191.192 C194.192,191.192 192.896,189.512 192.896,186.872 C192.896,184.232 194.192,182.552 196.256,182.552 C197.392,182.552 198.24,183.048 198.672,184.088 L198.736,184.088 L198.736,179.16 L200.016,179.16 L200.016,191 L198.736,191 Z M196.608,190.04 C197.776,190.04 198.736,189.432 198.736,188.36 L198.736,185.288 C198.736,184.376 197.776,183.704 196.608,183.704 C195.168,183.704 194.272,184.696 194.272,186.168 L194.272,187.576 C194.272,189.048 195.168,190.04 196.608,190.04 Z M27.84,215.192 C26.32,215.192 25.312,214.552 24.576,213.576 L25.488,212.84 C26.128,213.64 26.896,214.104 27.936,214.104 C29.024,214.104 29.664,213.608 29.664,212.76 C29.664,212.12 29.312,211.624 28.224,211.464 L27.568,211.368 C26.048,211.144 24.912,210.52 24.912,208.984 C24.912,207.352 26.176,206.552 27.856,206.552 C29.184,206.552 30.064,207.048 30.736,207.88 L29.888,208.648 C29.52,208.136 28.816,207.64 27.76,207.64 C26.704,207.64 26.144,208.136 26.144,208.92 C26.144,209.72 26.704,210.04 27.728,210.2 L28.368,210.296 C30.192,210.568 30.896,211.368 30.896,212.616 C30.896,214.216 29.728,215.192 27.84,215.192 Z M36.464,215 L34.864,215 C33.984,215 33.504,214.44 33.504,213.64 L33.504,207.864 L32.144,207.864 L32.144,206.744 L32.912,206.744 C33.456,206.744 33.632,206.552 33.632,205.992 L33.632,204.456 L34.784,204.456 L34.784,206.744 L36.592,206.744 L36.592,207.864 L34.784,207.864 L34.784,213.88 L36.464,213.88 L36.464,215 Z M41.712,215.192 C39.504,215.192 37.984,213.496 37.984,210.872 C37.984,208.248 39.504,206.552 41.712,206.552 C43.92,206.552 45.44,208.248 45.44,210.872 C45.44,213.496 43.92,215.192 41.712,215.192 Z M41.712,214.056 C43.088,214.056 44.064,213.208 44.064,211.464 L44.064,210.28 C44.064,208.536 43.088,207.688 41.712,207.688 C40.336,207.688 39.36,208.536 39.36,210.28 L39.36,211.464 C39.36,213.208 40.336,214.056 41.712,214.056 Z M48.832,215 L47.552,215 L47.552,206.744 L48.832,206.744 L48.832,208.264 L48.912,208.264 C49.2,207.48 49.952,206.744 51.296,206.744 L51.792,206.744 L51.792,208.024 L51.04,208.024 C49.664,208.024 48.832,208.616 48.832,209.4 L48.832,215 Z M56.448,215.192 C54.208,215.192 52.736,213.496 52.736,210.872 C52.736,208.248 54.208,206.552 56.448,206.552 C58.656,206.552 60.016,208.248 60.016,210.584 L60.016,211.192 L54.08,211.192 L54.08,211.576 C54.08,213 54.992,214.072 56.528,214.072 C57.568,214.072 58.368,213.56 58.8,212.648 L59.712,213.304 C59.184,214.424 58,215.192 56.448,215.192 Z M56.448,207.624 C55.056,207.624 54.08,208.68 54.08,210.12 L54.08,210.232 L58.64,210.232 L58.64,210.056 C58.64,208.6 57.76,207.624 56.448,207.624 Z M62.624,213.128 C63.296,213.128 63.6,213.512 63.6,214.072 L63.6,214.296 C63.6,215.16 63.056,216.344 62.144,217.128 L61.072,217.128 C61.712,216.456 62.096,215.896 62.272,215.144 C61.84,215.048 61.648,214.728 61.648,214.296 L61.648,214.072 C61.648,213.512 61.952,213.128 62.624,213.128 Z M73.36,215 L71.76,215 C70.88,215 70.4,214.44 70.4,213.64 L70.4,207.864 L69.04,207.864 L69.04,206.744 L69.808,206.744 C70.352,206.744 70.528,206.552 70.528,205.992 L70.528,204.456 L71.68,204.456 L71.68,206.744 L73.488,206.744 L73.488,207.864 L71.68,207.864 L71.68,213.88 L73.36,213.88 L73.36,215 Z M76.832,215 L75.552,215 L75.552,206.744 L76.832,206.744 L76.832,208.264 L76.912,208.264 C77.2,207.48 77.952,206.744 79.296,206.744 L79.792,206.744 L79.792,208.024 L79.04,208.024 C77.664,208.024 76.832,208.616 76.832,209.4 L76.832,215 Z M88.08,215 L87.36,215 C86.416,215 86.032,214.424 85.936,213.656 L85.856,213.656 C85.504,214.664 84.624,215.192 83.472,215.192 C81.728,215.192 80.704,214.232 80.704,212.696 C80.704,211.144 81.824,210.28 84.224,210.28 L85.856,210.28 L85.856,209.464 C85.856,208.296 85.216,207.656 83.904,207.656 C82.912,207.656 82.256,208.136 81.808,208.888 L81.04,208.168 C81.488,207.288 82.48,206.552 83.968,206.552 C85.952,206.552 87.136,207.592 87.136,209.336 L87.136,213.88 L88.08,213.88 L88.08,215 Z M83.68,214.104 C84.944,214.104 85.856,213.448 85.856,212.6 L85.856,211.24 L84.16,211.24 C82.704,211.24 82.048,211.688 82.048,212.488 L82.048,212.824 C82.048,213.64 82.688,214.104 83.68,214.104 Z M90.544,204.808 C90,204.808 89.76,204.52 89.76,204.088 L89.76,203.88 C89.76,203.448 90,203.16 90.544,203.16 C91.088,203.16 91.328,203.448 91.328,203.88 L91.328,204.088 C91.328,204.52 91.088,204.808 90.544,204.808 Z M89.904,215 L89.904,206.744 L91.184,206.744 L91.184,215 L89.904,215 Z M95.184,215 L93.904,215 L93.904,206.744 L95.184,206.744 L95.184,208.088 L95.248,208.088 C95.648,207.16 96.352,206.552 97.584,206.552 C99.28,206.552 100.352,207.704 100.352,209.704 L100.352,215 L99.072,215 L99.072,209.928 C99.072,208.456 98.432,207.704 97.2,207.704 C96.176,207.704 95.184,208.216 95.184,209.272 L95.184,215 Z M113.488,215 L112.768,215 C111.824,215 111.44,214.424 111.344,213.656 L111.264,213.656 C110.912,214.664 110.032,215.192 108.88,215.192 C107.136,215.192 106.112,214.232 106.112,212.696 C106.112,211.144 107.232,210.28 109.632,210.28 L111.264,210.28 L111.264,209.464 C111.264,208.296 110.624,207.656 109.312,207.656 C108.32,207.656 107.664,208.136 107.216,208.888 L106.448,208.168 C106.896,207.288 107.888,206.552 109.376,206.552 C111.36,206.552 112.544,207.592 112.544,209.336 L112.544,213.88 L113.488,213.88 L113.488,215 Z M109.088,214.104 C110.352,214.104 111.264,213.448 111.264,212.6 L111.264,211.24 L109.568,211.24 C108.112,211.24 107.456,211.688 107.456,212.488 L107.456,212.824 C107.456,213.64 108.096,214.104 109.088,214.104 Z M116.592,215 L115.312,215 L115.312,206.744 L116.592,206.744 L116.592,208.088 L116.656,208.088 C117.056,207.16 117.76,206.552 118.992,206.552 C120.688,206.552 121.76,207.704 121.76,209.704 L121.76,215 L120.48,215 L120.48,209.928 C120.48,208.456 119.84,207.704 118.608,207.704 C117.584,207.704 116.592,208.216 116.592,209.272 L116.592,215 Z M129.68,215 L129.68,213.656 L129.616,213.656 C129.12,214.68 128.336,215.192 127.2,215.192 C125.136,215.192 123.84,213.512 123.84,210.872 C123.84,208.232 125.136,206.552 127.2,206.552 C128.336,206.552 129.184,207.048 129.616,208.088 L129.68,208.088 L129.68,203.16 L130.96,203.16 L130.96,215 L129.68,215 Z M127.552,214.04 C128.72,214.04 129.68,213.432 129.68,212.36 L129.68,209.288 C129.68,208.376 128.72,207.704 127.552,207.704 C126.112,207.704 125.216,208.696 125.216,210.168 L125.216,211.576 C125.216,213.048 126.112,214.04 127.552,214.04 Z M138.736,215 L137.456,215 L137.456,206.744 L138.736,206.744 L138.736,208.088 L138.8,208.088 C139.168,207.24 139.744,206.552 141.024,206.552 C142.112,206.552 143.104,207.048 143.552,208.232 L143.584,208.232 C143.888,207.336 144.688,206.552 146.096,206.552 C147.776,206.552 148.784,207.704 148.784,209.704 L148.784,215 L147.504,215 L147.504,209.928 C147.504,208.472 146.944,207.704 145.696,207.704 C144.688,207.704 143.76,208.216 143.76,209.272 L143.76,215 L142.48,215 L142.48,209.928 C142.48,208.456 141.92,207.704 140.704,207.704 C139.696,207.704 138.736,208.216 138.736,209.272 L138.736,215 Z M158.144,215 L157.424,215 C156.48,215 156.096,214.424 156,213.656 L155.92,213.656 C155.568,214.664 154.688,215.192 153.536,215.192 C151.792,215.192 150.768,214.232 150.768,212.696 C150.768,211.144 151.888,210.28 154.288,210.28 L155.92,210.28 L155.92,209.464 C155.92,208.296 155.28,207.656 153.968,207.656 C152.976,207.656 152.32,208.136 151.872,208.888 L151.104,208.168 C151.552,207.288 152.544,206.552 154.032,206.552 C156.016,206.552 157.2,207.592 157.2,209.336 L157.2,213.88 L158.144,213.88 L158.144,215 Z M153.744,214.104 C155.008,214.104 155.92,213.448 155.92,212.6 L155.92,211.24 L154.224,211.24 C152.768,211.24 152.112,211.688 152.112,212.488 L152.112,212.824 C152.112,213.64 152.752,214.104 153.744,214.104 Z M161.248,215 L159.968,215 L159.968,206.744 L161.248,206.744 L161.248,208.088 L161.312,208.088 C161.712,207.16 162.416,206.552 163.648,206.552 C165.344,206.552 166.416,207.704 166.416,209.704 L166.416,215 L165.136,215 L165.136,209.928 C165.136,208.456 164.496,207.704 163.264,207.704 C162.24,207.704 161.248,208.216 161.248,209.272 L161.248,215 Z M175.776,215 L175.056,215 C174.112,215 173.728,214.424 173.632,213.656 L173.552,213.656 C173.2,214.664 172.32,215.192 171.168,215.192 C169.424,215.192 168.4,214.232 168.4,212.696 C168.4,211.144 169.52,210.28 171.92,210.28 L173.552,210.28 L173.552,209.464 C173.552,208.296 172.912,207.656 171.6,207.656 C170.608,207.656 169.952,208.136 169.504,208.888 L168.736,208.168 C169.184,207.288 170.176,206.552 171.664,206.552 C173.648,206.552 174.832,207.592 174.832,209.336 L174.832,213.88 L175.776,213.88 L175.776,215 Z M171.376,214.104 C172.64,214.104 173.552,213.448 173.552,212.6 L173.552,211.24 L171.856,211.24 C170.4,211.24 169.744,211.688 169.744,212.488 L169.744,212.824 C169.744,213.64 170.384,214.104 171.376,214.104 Z M184.56,215.912 C184.56,217.608 183.216,218.392 180.56,218.392 C177.984,218.392 176.928,217.656 176.928,216.36 C176.928,215.464 177.424,214.984 178.24,214.76 L178.24,214.584 C177.776,214.36 177.504,213.992 177.504,213.432 C177.504,212.6 178.096,212.2 178.928,211.992 L178.928,211.928 C177.952,211.464 177.376,210.552 177.376,209.4 C177.376,207.72 178.608,206.552 180.48,206.552 C181.072,206.552 181.6,206.664 182.048,206.872 L182.048,206.728 C182.048,206.088 182.32,205.624 183.008,205.624 L184.24,205.624 L184.24,206.744 L182.672,206.744 L182.672,207.272 C183.264,207.784 183.616,208.52 183.616,209.4 C183.616,211.08 182.384,212.248 180.496,212.248 C180.224,212.248 179.936,212.216 179.696,212.168 C179.152,212.312 178.608,212.584 178.608,213.096 C178.608,213.592 179.12,213.72 179.872,213.72 L181.632,213.72 C183.68,213.72 184.56,214.552 184.56,215.912 Z M183.36,216.008 C183.36,215.352 182.928,214.92 181.648,214.92 L178.896,214.92 C178.368,215.16 178.128,215.528 178.128,216.04 C178.128,216.76 178.624,217.352 179.92,217.352 L181.104,217.352 C182.528,217.352 183.36,216.904 183.36,216.008 Z M180.496,211.224 C181.584,211.224 182.272,210.712 182.272,209.624 L182.272,209.176 C182.272,208.088 181.584,207.576 180.496,207.576 C179.408,207.576 178.72,208.088 178.72,209.176 L178.72,209.624 C178.72,210.712 179.408,211.224 180.496,211.224 Z M189.056,215.192 C186.816,215.192 185.344,213.496 185.344,210.872 C185.344,208.248 186.816,206.552 189.056,206.552 C191.264,206.552 192.624,208.248 192.624,210.584 L192.624,211.192 L186.688,211.192 L186.688,211.576 C186.688,213 187.6,214.072 189.136,214.072 C190.176,214.072 190.976,213.56 191.408,212.648 L192.32,213.304 C191.792,214.424 190.608,215.192 189.056,215.192 Z M189.056,207.624 C187.664,207.624 186.688,208.68 186.688,210.12 L186.688,210.232 L191.248,210.232 L191.248,210.056 C191.248,208.6 190.368,207.624 189.056,207.624 Z M201.6,212.36 L203.6,206.744 L204.864,206.744 L201.168,216.92 C200.8,217.912 200.464,218.2 199.248,218.2 L198.592,218.2 L198.592,217.08 L199.888,217.08 L200.512,215.32 L197.424,206.744 L198.704,206.744 L200.688,212.36 L201.072,213.704 L201.152,213.704 L201.6,212.36 Z M209.536,215.192 C207.328,215.192 205.808,213.496 205.808,210.872 C205.808,208.248 207.328,206.552 209.536,206.552 C211.744,206.552 213.264,208.248 213.264,210.872 C213.264,213.496 211.744,215.192 209.536,215.192 Z M209.536,214.056 C210.912,214.056 211.888,213.208 211.888,211.464 L211.888,210.28 C211.888,208.536 210.912,207.688 209.536,207.688 C208.16,207.688 207.184,208.536 207.184,210.28 L207.184,211.464 C207.184,213.208 208.16,214.056 209.536,214.056 Z M220.464,215 L220.464,213.656 L220.4,213.656 C220.08,214.44 219.456,215.192 218.08,215.192 C216.384,215.192 215.296,214.04 215.296,212.04 L215.296,206.744 L216.576,206.744 L216.576,211.816 C216.576,213.288 217.232,214.04 218.464,214.04 C219.472,214.04 220.464,213.544 220.464,212.456 L220.464,206.744 L221.744,206.744 L221.744,215 L220.464,215 Z M225.744,215 L224.464,215 L224.464,206.744 L225.744,206.744 L225.744,208.264 L225.824,208.264 C226.112,207.48 226.864,206.744 228.208,206.744 L228.704,206.744 L228.704,208.024 L227.952,208.024 C226.576,208.024 225.744,208.616 225.744,209.4 L225.744,215 Z M30.64,239 L30.64,237.656 L30.576,237.656 C30.08,238.68 29.296,239.192 28.16,239.192 C26.096,239.192 24.8,237.512 24.8,234.872 C24.8,232.232 26.096,230.552 28.16,230.552 C29.296,230.552 30.144,231.048 30.576,232.088 L30.64,232.088 L30.64,227.16 L31.92,227.16 L31.92,239 L30.64,239 Z M28.512,238.04 C29.68,238.04 30.64,237.432 30.64,236.36 L30.64,233.288 C30.64,232.376 29.68,231.704 28.512,231.704 C27.072,231.704 26.176,232.696 26.176,234.168 L26.176,235.576 C26.176,237.048 27.072,238.04 28.512,238.04 Z M41.36,239 L40.64,239 C39.696,239 39.312,238.424 39.216,237.656 L39.136,237.656 C38.784,238.664 37.904,239.192 36.752,239.192 C35.008,239.192 33.984,238.232 33.984,236.696 C33.984,235.144 35.104,234.28 37.504,234.28 L39.136,234.28 L39.136,233.464 C39.136,232.296 38.496,231.656 37.184,231.656 C36.192,231.656 35.536,232.136 35.088,232.888 L34.32,232.168 C34.768,231.288 35.76,230.552 37.248,230.552 C39.232,230.552 40.416,231.592 40.416,233.336 L40.416,237.88 L41.36,237.88 L41.36,239 Z M36.96,238.104 C38.224,238.104 39.136,237.448 39.136,236.6 L39.136,235.24 L37.44,235.24 C35.984,235.24 35.328,235.688 35.328,236.488 L35.328,236.824 C35.328,237.64 35.968,238.104 36.96,238.104 Z M46.608,239 L45.008,239 C44.128,239 43.648,238.44 43.648,237.64 L43.648,231.864 L42.288,231.864 L42.288,230.744 L43.056,230.744 C43.6,230.744 43.776,230.552 43.776,229.992 L43.776,228.456 L44.928,228.456 L44.928,230.744 L46.736,230.744 L46.736,231.864 L44.928,231.864 L44.928,237.88 L46.608,237.88 L46.608,239 Z M55.52,239 L54.8,239 C53.856,239 53.472,238.424 53.376,237.656 L53.296,237.656 C52.944,238.664 52.064,239.192 50.912,239.192 C49.168,239.192 48.144,238.232 48.144,236.696 C48.144,235.144 49.264,234.28 51.664,234.28 L53.296,234.28 L53.296,233.464 C53.296,232.296 52.656,231.656 51.344,231.656 C50.352,231.656 49.696,232.136 49.248,232.888 L48.48,232.168 C48.928,231.288 49.92,230.552 51.408,230.552 C53.392,230.552 54.576,231.592 54.576,233.336 L54.576,237.88 L55.52,237.88 L55.52,239 Z M51.12,238.104 C52.384,238.104 53.296,237.448 53.296,236.6 L53.296,235.24 L51.6,235.24 C50.144,235.24 49.488,235.688 49.488,236.488 L49.488,236.824 C49.488,237.64 50.128,238.104 51.12,238.104 Z M61.76,228.808 C61.216,228.808 60.976,228.52 60.976,228.088 L60.976,227.88 C60.976,227.448 61.216,227.16 61.76,227.16 C62.304,227.16 62.544,227.448 62.544,227.88 L62.544,228.088 C62.544,228.52 62.304,228.808 61.76,228.808 Z M61.12,239 L61.12,230.744 L62.4,230.744 L62.4,239 L61.12,239 Z M66.4,239 L65.12,239 L65.12,230.744 L66.4,230.744 L66.4,232.088 L66.464,232.088 C66.864,231.16 67.568,230.552 68.8,230.552 C70.496,230.552 71.568,231.704 71.568,233.704 L71.568,239 L70.288,239 L70.288,233.928 C70.288,232.456 69.648,231.704 68.416,231.704 C67.392,231.704 66.4,232.216 66.4,233.272 L66.4,239 Z M81.408,239 L79.808,239 C78.928,239 78.448,238.44 78.448,237.64 L78.448,231.864 L77.088,231.864 L77.088,230.744 L77.856,230.744 C78.4,230.744 78.576,230.552 78.576,229.992 L78.576,228.456 L79.728,228.456 L79.728,230.744 L81.536,230.744 L81.536,231.864 L79.728,231.864 L79.728,237.88 L81.408,237.88 L81.408,239 Z M83.6,239 L83.6,227.16 L84.88,227.16 L84.88,232.088 L84.944,232.088 C85.344,231.16 86.048,230.552 87.28,230.552 C88.976,230.552 90.048,231.704 90.048,233.704 L90.048,239 L88.768,239 L88.768,233.928 C88.768,232.456 88.128,231.704 86.896,231.704 C85.872,231.704 84.88,232.216 84.88,233.272 L84.88,239 L83.6,239 Z M95.792,239.192 C93.552,239.192 92.08,237.496 92.08,234.872 C92.08,232.248 93.552,230.552 95.792,230.552 C98,230.552 99.36,232.248 99.36,234.584 L99.36,235.192 L93.424,235.192 L93.424,235.576 C93.424,237 94.336,238.072 95.872,238.072 C96.912,238.072 97.712,237.56 98.144,236.648 L99.056,237.304 C98.528,238.424 97.344,239.192 95.792,239.192 Z M95.792,231.624 C94.4,231.624 93.424,232.68 93.424,234.12 L93.424,234.232 L97.984,234.232 L97.984,234.056 C97.984,232.6 97.104,231.624 95.792,231.624 Z M106.528,239 L105.248,239 L105.248,230.744 L106.528,230.744 L106.528,232.088 L106.592,232.088 C106.96,231.24 107.536,230.552 108.816,230.552 C109.904,230.552 110.896,231.048 111.344,232.232 L111.376,232.232 C111.68,231.336 112.48,230.552 113.888,230.552 C115.568,230.552 116.576,231.704 116.576,233.704 L116.576,239 L115.296,239 L115.296,233.928 C115.296,232.472 114.736,231.704 113.488,231.704 C112.48,231.704 111.552,232.216 111.552,233.272 L111.552,239 L110.272,239 L110.272,233.928 C110.272,232.456 109.712,231.704 108.496,231.704 C107.488,231.704 106.528,232.216 106.528,233.272 L106.528,239 Z M122.336,239.192 C120.128,239.192 118.608,237.496 118.608,234.872 C118.608,232.248 120.128,230.552 122.336,230.552 C124.544,230.552 126.064,232.248 126.064,234.872 C126.064,237.496 124.544,239.192 122.336,239.192 Z M122.336,238.056 C123.712,238.056 124.688,237.208 124.688,235.464 L124.688,234.28 C124.688,232.536 123.712,231.688 122.336,231.688 C120.96,231.688 119.984,232.536 119.984,234.28 L119.984,235.464 C119.984,237.208 120.96,238.056 122.336,238.056 Z M130.656,239.192 C129.136,239.192 128.128,238.552 127.392,237.576 L128.304,236.84 C128.944,237.64 129.712,238.104 130.752,238.104 C131.84,238.104 132.48,237.608 132.48,236.76 C132.48,236.12 132.128,235.624 131.04,235.464 L130.384,235.368 C128.864,235.144 127.728,234.52 127.728,232.984 C127.728,231.352 128.992,230.552 130.672,230.552 C132,230.552 132.88,231.048 133.552,231.88 L132.704,232.648 C132.336,232.136 131.632,231.64 130.576,231.64 C129.52,231.64 128.96,232.136 128.96,232.92 C128.96,233.72 129.52,234.04 130.544,234.2 L131.184,234.296 C133.008,234.568 133.712,235.368 133.712,236.616 C133.712,238.216 132.544,239.192 130.656,239.192 Z M139.28,239 L137.68,239 C136.8,239 136.32,238.44 136.32,237.64 L136.32,231.864 L134.96,231.864 L134.96,230.744 L135.728,230.744 C136.272,230.744 136.448,230.552 136.448,229.992 L136.448,228.456 L137.6,228.456 L137.6,230.744 L139.408,230.744 L139.408,231.864 L137.6,231.864 L137.6,237.88 L139.28,237.88 L139.28,239 Z M147.728,239.192 C146.208,239.192 145.2,238.552 144.464,237.576 L145.376,236.84 C146.016,237.64 146.784,238.104 147.824,238.104 C148.912,238.104 149.552,237.608 149.552,236.76 C149.552,236.12 149.2,235.624 148.112,235.464 L147.456,235.368 C145.936,235.144 144.8,234.52 144.8,232.984 C144.8,231.352 146.064,230.552 147.744,230.552 C149.072,230.552 149.952,231.048 150.624,231.88 L149.776,232.648 C149.408,232.136 148.704,231.64 147.648,231.64 C146.592,231.64 146.032,232.136 146.032,232.92 C146.032,233.72 146.592,234.04 147.616,234.2 L148.256,234.296 C150.08,234.568 150.784,235.368 150.784,236.616 C150.784,238.216 149.616,239.192 147.728,239.192 Z M156.144,239.192 C153.904,239.192 152.432,237.496 152.432,234.872 C152.432,232.248 153.904,230.552 156.144,230.552 C158.352,230.552 159.712,232.248 159.712,234.584 L159.712,235.192 L153.776,235.192 L153.776,235.576 C153.776,237 154.688,238.072 156.224,238.072 C157.264,238.072 158.064,237.56 158.496,236.648 L159.408,237.304 C158.88,238.424 157.696,239.192 156.144,239.192 Z M156.144,231.624 C154.752,231.624 153.776,232.68 153.776,234.12 L153.776,234.232 L158.336,234.232 L158.336,234.056 C158.336,232.6 157.456,231.624 156.144,231.624 Z M164.896,239.192 C162.576,239.192 161.216,237.512 161.216,234.872 C161.216,232.232 162.576,230.552 164.896,230.552 C166.528,230.552 167.504,231.352 167.984,232.488 L166.912,233.032 C166.608,232.184 165.904,231.688 164.896,231.688 C163.376,231.688 162.592,232.728 162.592,234.168 L162.592,235.576 C162.592,237.016 163.376,238.056 164.896,238.056 C165.936,238.056 166.688,237.56 167.136,236.616 L168.064,237.24 C167.536,238.424 166.464,239.192 164.896,239.192 Z M174.96,239 L174.96,237.656 L174.896,237.656 C174.576,238.44 173.952,239.192 172.576,239.192 C170.88,239.192 169.792,238.04 169.792,236.04 L169.792,230.744 L171.072,230.744 L171.072,235.816 C171.072,237.288 171.728,238.04 172.96,238.04 C173.968,238.04 174.96,237.544 174.96,236.456 L174.96,230.744 L176.24,230.744 L176.24,239 L174.96,239 Z M180.24,239 L178.96,239 L178.96,230.744 L180.24,230.744 L180.24,232.264 L180.32,232.264 C180.608,231.48 181.36,230.744 182.704,230.744 L183.2,230.744 L183.2,232.024 L182.448,232.024 C181.072,232.024 180.24,232.616 180.24,233.4 L180.24,239 Z M187.856,239.192 C185.616,239.192 184.144,237.496 184.144,234.872 C184.144,232.248 185.616,230.552 187.856,230.552 C190.064,230.552 191.424,232.248 191.424,234.584 L191.424,235.192 L185.488,235.192 L185.488,235.576 C185.488,237 186.4,238.072 187.936,238.072 C188.976,238.072 189.776,237.56 190.208,236.648 L191.12,237.304 C190.592,238.424 189.408,239.192 187.856,239.192 Z M187.856,231.624 C186.464,231.624 185.488,232.68 185.488,234.12 L185.488,234.232 L190.048,234.232 L190.048,234.056 C190.048,232.6 189.168,231.624 187.856,231.624 Z M28.432,263.192 C26.112,263.192 24.752,261.512 24.752,258.872 C24.752,256.232 26.112,254.552 28.432,254.552 C30.064,254.552 31.04,255.352 31.52,256.488 L30.448,257.032 C30.144,256.184 29.44,255.688 28.432,255.688 C26.912,255.688 26.128,256.728 26.128,258.168 L26.128,259.576 C26.128,261.016 26.912,262.056 28.432,262.056 C29.472,262.056 30.224,261.56 30.672,260.616 L31.6,261.24 C31.072,262.424 30,263.192 28.432,263.192 Z M35.904,263 L34.768,263 C33.888,263 33.408,262.44 33.408,261.672 L33.408,251.16 L34.688,251.16 L34.688,261.88 L35.904,261.88 L35.904,263 Z M40.88,263.192 C38.672,263.192 37.152,261.496 37.152,258.872 C37.152,256.248 38.672,254.552 40.88,254.552 C43.088,254.552 44.608,256.248 44.608,258.872 C44.608,261.496 43.088,263.192 40.88,263.192 Z M40.88,262.056 C42.256,262.056 43.232,261.208 43.232,259.464 L43.232,258.28 C43.232,256.536 42.256,255.688 40.88,255.688 C39.504,255.688 38.528,256.536 38.528,258.28 L38.528,259.464 C38.528,261.208 39.504,262.056 40.88,262.056 Z M51.808,263 L51.808,261.656 L51.744,261.656 C51.424,262.44 50.8,263.192 49.424,263.192 C47.728,263.192 46.64,262.04 46.64,260.04 L46.64,254.744 L47.92,254.744 L47.92,259.816 C47.92,261.288 48.576,262.04 49.808,262.04 C50.816,262.04 51.808,261.544 51.808,260.456 L51.808,254.744 L53.088,254.744 L53.088,263 L51.808,263 Z M61.088,263 L61.088,261.656 L61.024,261.656 C60.528,262.68 59.744,263.192 58.608,263.192 C56.544,263.192 55.248,261.512 55.248,258.872 C55.248,256.232 56.544,254.552 58.608,254.552 C59.744,254.552 60.592,255.048 61.024,256.088 L61.088,256.088 L61.088,251.16 L62.368,251.16 L62.368,263 L61.088,263 Z M58.96,262.04 C60.128,262.04 61.088,261.432 61.088,260.36 L61.088,257.288 C61.088,256.376 60.128,255.704 58.96,255.704 C57.52,255.704 56.624,256.696 56.624,258.168 L56.624,259.576 C56.624,261.048 57.52,262.04 58.96,262.04 Z M65.904,263.192 C65.232,263.192 64.928,262.808 64.928,262.264 L64.928,262.056 C64.928,261.512 65.232,261.128 65.904,261.128 C66.576,261.128 66.88,261.512 66.88,262.056 L66.88,262.264 C66.88,262.808 66.576,263.192 65.904,263.192 Z" id="Build-on-the-AI-plat-Copy" fill="#3D3D3D"></path>
            </g>
        </g>
    </g>
</svg>