<?xml version="1.0" encoding="UTF-8"?>
<svg width="288px" height="288px" viewBox="0 0 288 288" version="1.1" xmlns="http://www.w3.org/2000/svg" xmlns:xlink="http://www.w3.org/1999/xlink">
    <!-- Generator: Sketch 51.3 (57544) - http://www.bohemiancoding.com/sketch -->
    <title>Group 21</title>
    <desc>Created with Sketch.</desc>
    <defs></defs>
    <g id="Page-1" stroke="none" stroke-width="1" fill="none" fill-rule="evenodd">
        <g id="Grid_Desktop_1312px-Copy" transform="translate(-672.000000, -9513.000000)">
            <g id="Group-40" transform="translate(672.000000, 9513.000000)">
                <g id="Group-21">
                    <polygon id="Fill-1" fill="#FFFFFF" points="0 288 288 288 288 0 0 0"></polygon>
                    <polygon id="Fill-2" fill="#EDF4FF" points="94.012 215.951 114.012 215.951 114.012 72 94.012 72"></polygon>
                    <polygon id="Fill-3" fill="#EDF4FF" points="134.024 215.951 154.024 215.951 154.024 72 134.024 72"></polygon>
                    <polygon id="Fill-4" fill="#EDF4FF" points="173.988 215.951 193.988 215.951 193.988 72 173.988 72"></polygon>
                    <path d="M143.9998,215.9513 L143.9998,72.0003" id="Stroke-5" stroke="#6EA6FF"></path>
                    <path d="M104.0121,215.9513 L104.0121,72.0003" id="Stroke-6" stroke="#6EA6FF"></path>
                    <path d="M183.9876,215.9513 L183.9876,72.0003" id="Stroke-7" stroke="#6EA6FF"></path>
                    <polygon id="Stroke-8" stroke="#6EA6FF" points="64.024 215.951 223.976 215.951 223.976 72 64.024 72"></polygon>
                    <path d="M94.0121,227.9406 L64.0241,227.9406" id="Stroke-9" stroke="#A4A4A4"></path>
                    <path d="M94.0121,222.9406 L94.0121,232.9406" id="Stroke-10" stroke="#A4A4A4"></path>
                    <path d="M64.0243,222.9406 L64.0243,232.9406" id="Stroke-11" stroke="#A4A4A4"></path>
                    <path d="M134.0243,227.9406 L114.0123,227.9406" id="Stroke-12" stroke="#A4A4A4"></path>
                    <path d="M134.0243,222.9406 L134.0243,232.9406" id="Stroke-13" stroke="#A4A4A4"></path>
                    <path d="M114.0121,222.9406 L114.0121,232.9406" id="Stroke-14" stroke="#A4A4A4"></path>
                    <path d="M173.9876,227.9406 L154.0246,227.9406" id="Stroke-15" stroke="#A4A4A4"></path>
                    <path d="M173.9876,222.9406 L173.9876,232.9406" id="Stroke-16" stroke="#A4A4A4"></path>
                    <path d="M154.0243,222.9406 L154.0243,232.9406" id="Stroke-17" stroke="#A4A4A4"></path>
                    <path d="M223.9759,227.9406 L193.9999,227.9406" id="Stroke-18" stroke="#A4A4A4"></path>
                    <path d="M223.9759,222.9406 L223.9759,232.9406" id="Stroke-19" stroke="#A4A4A4"></path>
                    <path d="M193.9998,222.9406 L193.9998,232.9406" id="Stroke-20" stroke="#A4A4A4"></path>
                </g>
            </g>
        </g>
    </g>
</svg>