<svg xmlns="http://www.w3.org/2000/svg" viewBox="0 0 288 144"><g fill="none" fill-rule="evenodd"><path fill="#FFF" d="M0 0h288v144H0z"/><path d="M32.16 81h-6.72v-1.68h2.352V65.928H25.44v-1.68h6.72v1.68h-2.352V79.32h2.352V81zm4.824-18c1.008 0 1.464.576 1.464 1.416v.336c0 1.296-.816 3.072-2.184 4.248h-1.608c.96-1.008 1.536-1.848 1.8-2.976-.648-.144-.936-.624-.936-1.272v-.336c0-.84.456-1.416 1.464-1.416zm5.4 18V64.248h2.688l4.8 9.024h.12l4.824-9.024h2.592V81H55.44V66.888h-.12l-1.416 2.808-4.008 7.296-4.008-7.296-1.416-2.808h-.12V81h-1.968zm35.64 0v-7.584h-8.472V81h-2.016V64.248h2.016v7.392h8.472v-7.392h2.016V81h-2.016zm19.08 0h-2.112l-1.68-4.944h-6.768L84.864 81h-2.04l5.856-16.752h2.568L97.104 81zm-4.296-6.72l-2.832-8.16h-.12l-2.832 8.16h5.784zm9.096-.48V81h-2.016V64.248h6.672c2.928 0 4.68 1.704 4.68 4.752 0 2.448-1.176 4.104-3.36 4.608L111.72 81h-2.28l-3.624-7.2h-3.912zm0-1.728h4.656c1.584 0 2.52-.864 2.52-2.4v-1.248c0-1.536-.936-2.4-2.52-2.4h-4.656v6.048zM115.248 81V64.248h5.616c4.176 0 6.864 2.784 6.864 8.376S125.04 81 120.864 81h-5.616zm2.016-1.776h3.6c2.76 0 4.704-1.92 4.704-5.232v-2.736c0-3.312-1.944-5.232-4.704-5.232h-3.6v13.2zM141.576 81h-10.224V64.248h10.224v1.776h-8.208v5.616h7.728v1.776h-7.728v5.808h8.208V81zm5.784-7.2V81h-2.016V64.248h6.672c2.928 0 4.68 1.704 4.68 4.752 0 2.448-1.176 4.104-3.36 4.608l3.84 7.392h-2.28l-3.624-7.2h-3.912zm0-1.728h4.656c1.584 0 2.52-.864 2.52-2.4v-1.248c0-1.536-.936-2.4-2.52-2.4h-4.656v6.048zm29.976-6.048h-5.328V81h-2.016V66.024h-5.328v-1.776h12.672v1.776zm8.544 15.264c-4.32 0-7.104-3.048-7.104-8.664s2.784-8.664 7.104-8.664 7.104 3.048 7.104 8.664-2.784 8.664-7.104 8.664zm0-1.8c2.904 0 4.944-2.16 4.944-5.472v-2.784c0-3.312-2.04-5.472-4.944-5.472s-4.944 2.16-4.944 5.472v2.784c0 3.312 2.04 5.472 4.944 5.472zm18.408-5.688V81h-2.016V64.248h6.672c2.928 0 4.68 1.704 4.68 4.752 0 2.448-1.176 4.104-3.36 4.608l3.84 7.392h-2.28l-3.624-7.2h-3.912zm0-1.728h4.656c1.584 0 2.52-.864 2.52-2.4v-1.248c0-1.536-.936-2.4-2.52-2.4h-4.656v6.048zM227.856 81h-10.224V64.248h10.224v1.776h-8.208v5.616h7.728v1.776h-7.728v5.808h8.208V81zm16.368 0h-2.112l-1.68-4.944h-6.768L231.984 81h-2.04l5.856-16.752h2.568L244.224 81zm-4.296-6.72l-2.832-8.16h-.12l-2.832 8.16h5.784zm7.08 6.72V64.248h5.616c4.176 0 6.864 2.784 6.864 8.376S256.8 81 252.624 81h-5.616zm2.016-1.776h3.6c2.76 0 4.704-1.92 4.704-5.232v-2.736c0-3.312-1.944-5.232-4.704-5.232h-3.6v13.2zm14.4 2.064c-1.008 0-1.464-.576-1.464-1.392v-.312c0-.816.456-1.392 1.464-1.392s1.464.576 1.464 1.392v.312c0 .816-.456 1.392-1.464 1.392z" fill="#3D3D3D"/></g></svg>