<?xml version="1.0" encoding="UTF-8"?>
<svg width="464px" height="464px" viewBox="0 0 464 464" version="1.1" xmlns="http://www.w3.org/2000/svg" xmlns:xlink="http://www.w3.org/1999/xlink">
    <!-- Generator: Sketch 49.3 (51167) - http://www.bohemiancoding.com/sketch -->
    <title>Rectangle Copy 9</title>
    <desc>Created with Sketch.</desc>
    <defs></defs>
    <g id="Page-1" stroke="none" stroke-width="1" fill="none" fill-rule="evenodd">
        <g transform="translate(-4185.000000, 0.000000)" fill="#FFFFFF">
            <g id="IBM-Cloud" transform="translate(4297.000000, 212.000000)">
                <path d="M27.0954824,33.66686 L37.6074824,33.66686 C41.2667765,33.66686 43.5030118,31.75166 43.5030118,28.22786 L43.5030118,26.51426 C43.5030118,22.99046 41.2667765,21.07526 37.6074824,21.07526 L27.0954824,21.07526 L27.0954824,33.66686 Z M27.0954824,17.44646 L36.8959529,17.44646 C40.2503059,17.44646 42.2832471,15.68666 42.2832471,12.56186 L42.2832471,10.84826 C42.2832471,7.72766 40.2503059,5.96366 36.8959529,5.96366 L27.0954824,5.96366 L27.0954824,17.44646 Z M22.8263059,2.23406 L37.4084235,2.23406 C43.2446588,2.23406 46.8531294,5.81246 46.8531294,11.30186 C46.8531294,16.53926 43.4521882,18.40406 41.1143059,18.75686 L41.1143059,19.05926 C43.6554824,19.21046 48.0728941,21.37766 48.0728941,27.21986 C48.0728941,33.01166 44.1637176,37.39646 38.9288941,37.39646 L22.8263059,37.39646 L22.8263059,2.23406 Z M0,2 L14,2 L14,5.61204013 L9.0970816,5.61204013 L9.0970816,34.3879599 L14,34.3879599 L14,38 L0,38 L0,34.3879599 L4.89874926,34.3879599 L4.89874926,5.61204013 L0,5.61204013 L0,2 Z M83.5976941,7.77554 L83.3435765,7.77554 L80.3449882,13.66814 L71.8616941,28.98134 L63.4292235,13.66814 L60.4348706,7.82594 L60.1807529,7.82594 L60.1807529,37.39394 L56.0132235,37.39394 L56.0132235,2.23574 L61.6038118,2.23574 L71.7642824,21.17354 L71.9633412,21.17354 L82.1746353,2.23574 L87.7609882,2.23574 L87.7609882,37.39394 L83.5976941,37.39394 L83.5976941,7.77554 Z M105.010071,20.0681 C105.010071,8.1779 111.155482,1.6301 120.706071,1.6301 C127.207247,1.6301 131.374776,4.2509 133.962541,9.8915 L127.308894,13.3187 C126.394071,10.3955 124.5136,8.4299 120.706071,8.4299 C116.187012,8.4299 113.188424,11.4539 113.188424,16.9937 L113.188424,22.6343 C113.188424,28.1783 116.187012,31.1981 120.706071,31.1981 C124.5136,31.1981 126.699012,28.8293 127.766306,25.9607 L134.064188,29.5895 C131.4256,34.9277 127.207247,38.0021 120.706071,38.0021 C111.155482,38.0021 105.010071,31.9541 105.010071,20.0681 Z M146.527388,37.3952 C141.398447,37.3952 139.060565,34.8248 139.060565,30.1418 L139.060565,0.1202 L146.578212,0.1202 L146.578212,31.6034 L149.932565,31.6034 L149.932565,37.3952 L146.527388,37.3952 Z M198.870965,32.96336 L198.616847,32.96336 C197.702024,35.63036 195.516612,37.99916 191.150024,37.99916 C185.716141,37.99916 182.8192,34.22336 182.8192,27.57056 L182.8192,10.95116 L190.336847,10.95116 L190.336847,26.91956 C190.336847,30.14096 191.404141,31.95536 194.148612,31.95536 C196.486494,31.95536 198.870965,30.64496 198.870965,28.12916 L198.870965,10.95116 L206.388612,10.95116 L206.388612,37.39436 L198.870965,37.39436 L198.870965,32.96336 Z M169.951953,26.86622 L169.951953,21.47762 C169.951953,18.15122 168.223953,16.24022 165.280424,16.24022 C162.332659,16.24022 160.604659,18.15122 160.604659,21.47762 L160.604659,26.86622 C160.604659,30.19262 162.332659,32.10782 165.280424,32.10782 C168.223953,32.10782 169.951953,30.19262 169.951953,26.86622 M152.782071,24.14882 C152.782071,15.63542 157.457835,10.34342 165.280424,10.34342 C173.103012,10.34342 177.774541,15.63542 177.774541,24.14882 C177.774541,32.65802 173.103012,38.00042 165.280424,38.00042 C157.457835,38.00042 152.782071,32.65802 152.782071,24.14882 M229.771247,28.07624 L229.771247,20.26844 C229.771247,17.84924 227.687482,16.38764 224.841365,16.38764 C221.999482,16.38764 219.915718,18.55484 219.915718,21.88124 L219.915718,26.46344 C219.915718,29.78984 221.999482,31.95284 224.841365,31.95284 C227.687482,31.95284 229.771247,30.49544 229.771247,28.07624 Z M229.771247,32.96504 L229.517129,32.96504 C228.754776,35.83364 225.807012,38.00084 222.355247,38.00084 C215.599953,38.00084 212.093129,33.11204 212.093129,24.14504 C212.093129,15.18224 215.599953,10.34384 222.355247,10.34384 C225.807012,10.34384 228.754776,12.46064 229.517129,15.38384 L229.771247,15.38384 L229.771247,0.12104 L237.288894,0.12104 L237.288894,37.39604 L229.771247,37.39604 L229.771247,32.96504 Z"></path>
            </g>
        </g>
    </g>
</svg>