<svg id="Layer_1" data-name="Layer 1" xmlns="http://www.w3.org/2000/svg" viewBox="0 0 288 288"><defs><style>.cls-1{fill:none;stroke:#3d3d3d;stroke-miterlimit:10;}.cls-2{fill:#f3f3f3;}</style></defs><title>Artboard 18 copy 80</title><rect width="288" height="288"/><rect class="cls-1" x="52" y="52" width="5.75" height="184"/><rect class="cls-1" x="57.75" y="52" width="5.75" height="184"/><rect class="cls-1" x="63.5" y="52" width="5.75" height="184"/><rect class="cls-1" x="69.25" y="52" width="5.75" height="184"/><rect class="cls-1" x="75" y="52" width="5.75" height="184"/><rect class="cls-1" x="80.75" y="52" width="5.75" height="184"/><rect class="cls-1" x="86.5" y="52" width="5.75" height="184"/><rect class="cls-1" x="92.25" y="52" width="5.75" height="184"/><rect class="cls-1" x="98" y="52" width="5.75" height="184"/><rect class="cls-1" x="103.75" y="52" width="5.75" height="184"/><rect class="cls-1" x="109.5" y="52" width="5.75" height="184"/><rect class="cls-1" x="115.25" y="52" width="5.75" height="184"/><rect class="cls-1" x="121" y="52" width="5.75" height="184"/><rect class="cls-1" x="126.75" y="52" width="5.75" height="184"/><rect class="cls-1" x="132.5" y="52" width="5.75" height="184"/><rect class="cls-1" x="138.25" y="52" width="5.75" height="184"/><rect class="cls-1" x="144" y="52" width="5.75" height="184"/><rect class="cls-1" x="149.75" y="52" width="5.75" height="184"/><rect class="cls-1" x="155.5" y="52" width="5.75" height="184"/><rect class="cls-1" x="161.25" y="52" width="5.75" height="184"/><rect class="cls-1" x="167" y="52" width="5.75" height="184"/><rect class="cls-1" x="172.75" y="52" width="5.75" height="184"/><rect class="cls-1" x="178.5" y="52" width="5.75" height="184"/><rect class="cls-1" x="184.25" y="52" width="5.75" height="184"/><rect class="cls-1" x="190" y="52" width="5.75" height="184"/><rect class="cls-1" x="195.75" y="52" width="5.75" height="184"/><rect class="cls-1" x="201.5" y="52" width="5.75" height="184"/><rect class="cls-1" x="207.25" y="52" width="5.75" height="184"/><rect class="cls-1" x="213" y="52" width="5.75" height="184"/><rect class="cls-1" x="218.75" y="52" width="5.75" height="184"/><rect class="cls-1" x="224.5" y="52" width="5.75" height="184"/><rect class="cls-1" x="230.25" y="52" width="5.75" height="184"/><rect class="cls-1" x="141.13" y="-37.12" width="5.75" height="184" transform="translate(198.88 -89.12) rotate(90)"/><rect class="cls-1" x="141.13" y="-31.37" width="5.75" height="184" transform="translate(204.63 -83.37) rotate(90)"/><rect class="cls-1" x="141.13" y="-25.62" width="5.75" height="184" transform="translate(210.38 -77.62) rotate(90)"/><rect class="cls-1" x="141.13" y="-19.87" width="5.75" height="184" transform="translate(216.13 -71.87) rotate(90)"/><rect class="cls-1" x="141.13" y="-14.12" width="5.75" height="184" transform="translate(221.88 -66.12) rotate(90)"/><rect class="cls-1" x="141.13" y="-8.37" width="5.75" height="184" transform="translate(227.63 -60.37) rotate(90)"/><rect class="cls-1" x="141.13" y="-2.62" width="5.75" height="184" transform="translate(233.38 -54.62) rotate(90)"/><rect class="cls-1" x="141.13" y="3.13" width="5.75" height="184" transform="translate(239.13 -48.87) rotate(90)"/><rect class="cls-1" x="141.13" y="8.88" width="5.75" height="184" transform="translate(244.88 -43.12) rotate(90)"/><rect class="cls-1" x="141.13" y="14.63" width="5.75" height="184" transform="translate(250.63 -37.37) rotate(90)"/><rect class="cls-1" x="141.13" y="20.38" width="5.75" height="184" transform="translate(256.38 -31.62) rotate(90)"/><rect class="cls-1" x="141.13" y="26.13" width="5.75" height="184" transform="translate(262.13 -25.87) rotate(90)"/><rect class="cls-1" x="141.13" y="31.88" width="5.75" height="184" transform="translate(267.88 -20.12) rotate(90)"/><rect class="cls-1" x="141.13" y="37.63" width="5.75" height="184" transform="translate(273.63 -14.37) rotate(90)"/><rect class="cls-1" x="141.13" y="43.38" width="5.75" height="184" transform="translate(279.38 -8.62) rotate(90)"/><rect class="cls-1" x="141.13" y="49.13" width="5.75" height="184" transform="translate(285.13 -2.87) rotate(90)"/><rect class="cls-1" x="141.13" y="54.88" width="5.75" height="184" transform="translate(290.87 2.87) rotate(90)"/><rect class="cls-1" x="141.13" y="60.63" width="5.75" height="184" transform="translate(296.62 8.62) rotate(90)"/><rect class="cls-1" x="141.13" y="66.38" width="5.75" height="184" transform="translate(302.37 14.37) rotate(90)"/><rect class="cls-1" x="141.13" y="72.13" width="5.75" height="184" transform="translate(308.12 20.12) rotate(90)"/><rect class="cls-1" x="141.13" y="77.88" width="5.75" height="184" transform="translate(313.87 25.87) rotate(90)"/><rect class="cls-1" x="141.13" y="83.63" width="5.75" height="184" transform="translate(319.62 31.62) rotate(90)"/><rect class="cls-1" x="141.13" y="89.38" width="5.75" height="184" transform="translate(325.37 37.37) rotate(90)"/><rect class="cls-1" x="141.13" y="95.13" width="5.75" height="184" transform="translate(331.12 43.12) rotate(90)"/><rect class="cls-1" x="141.13" y="100.88" width="5.75" height="184" transform="translate(336.87 48.87) rotate(90)"/><rect class="cls-1" x="141.13" y="106.63" width="5.75" height="184" transform="translate(342.62 54.62) rotate(90)"/><rect class="cls-1" x="141.13" y="112.38" width="5.75" height="184" transform="translate(348.37 60.37) rotate(90)"/><rect class="cls-1" x="141.13" y="118.13" width="5.75" height="184" transform="translate(354.12 66.12) rotate(90)"/><rect class="cls-1" x="141.13" y="123.88" width="5.75" height="184" transform="translate(359.87 71.87) rotate(90)"/><rect class="cls-1" x="141.13" y="129.63" width="5.75" height="184" transform="translate(365.62 77.62) rotate(90)"/><rect class="cls-1" x="141.13" y="135.38" width="5.75" height="184" transform="translate(371.37 83.37) rotate(90)"/><rect class="cls-1" x="141.13" y="141.13" width="5.75" height="184" transform="translate(377.12 89.12) rotate(90)"/><path class="cls-2" d="M64.76,114.79H88.55c16.74,0,27.77,10.58,27.77,31.57s-11,31.56-27.77,31.56H64.76Zm23.79,50.92c8.14,0,13.21-4.43,13.21-14.47v-9.77c0-10-5.07-14.47-13.21-14.47h-10v38.71Z"/><path class="cls-2" d="M127.09,111h13.38V138.4h.46c1.35-5.25,6.6-9.05,12.75-9.05,12,0,18.27,8.68,18.27,24.78S165.71,179,153.68,179c-6.15,0-11.4-3.89-12.75-9h-.46v8H127.09ZM158,158.29v-8.23c0-6-3.71-9.86-8.77-9.86s-8.78,2.63-8.78,7v14c0,4.34,3.71,7,8.78,7S158,164.27,158,158.29Z"/><path class="cls-2" d="M225.68,177.92H181V165.53l19.45-16.64c7.05-6.06,9.49-9.59,9.49-14.93V132.7c0-4.8-4.25-7.24-8.32-7.24-6,0-8.86,4.07-10.13,8.87l-11.85-4.53c2.81-8.77,10.13-16.1,23.25-16.1,13.66,0,21.53,8,21.53,19s-7.78,17.45-16.83,24.6l-11.76,9.23h29.85Z"/></svg>