<svg id="Layer_1" data-name="Layer 1" xmlns="http://www.w3.org/2000/svg" xmlns:xlink="http://www.w3.org/1999/xlink" viewBox="0 0 288 288"><defs><style>.cls-1{fill:#fff;}.cls-2{fill:none;}.cls-3{fill:url(#linear-gradient);}.cls-4{fill:url(#linear-gradient-2);}.cls-5{fill:url(#linear-gradient-3);}.cls-6{fill:url(#linear-gradient-4);}</style><linearGradient id="linear-gradient" x1="89.53" y1="176.75" x2="61.62" y2="176.75" gradientUnits="userSpaceOnUse"><stop offset="0.1" stop-color="#fa75a6"/><stop offset="0.9" stop-color="#a970ff"/></linearGradient><linearGradient id="linear-gradient-2" x1="134.58" y1="163.51" x2="98.73" y2="163.51" xlink:href="#linear-gradient"/><linearGradient id="linear-gradient-3" x1="136.48" y1="83.8" x2="109.2" y2="83.8" xlink:href="#linear-gradient"/><linearGradient id="linear-gradient-4" x1="220.39" y1="147.65" x2="149.65" y2="147.65" xlink:href="#linear-gradient"/></defs><title>Artboard 18 copy 71</title><rect class="cls-1" width="288" height="288"/><rect class="cls-2" x="53.22" y="53.29" width="181.42" height="181.42"/><rect class="cls-2" x="53.22" y="53.29" width="181.34" height="181.34"/><rect class="cls-2" x="53.26" y="53.33" width="181.27" height="181.27"/><path class="cls-3" d="M61.62,178.34v-3.17c0-7.3,4.44-12.69,13.95-12.69s14,5.39,14,12.69v3.17c0,7.29-4.44,12.69-14,12.69S61.62,185.63,61.62,178.34Z"/><path class="cls-4" d="M111.11,106h23.47v92.15c0,14.76-7.14,22.85-23.47,22.85H98.73V202.76h12.38Z"/><path class="cls-5" d="M109.2,85.55V82.06c0-6.66,4.13-11.58,13.64-11.58s13.64,4.92,13.64,11.58v3.49c0,6.66-4.12,11.58-13.64,11.58S109.2,92.21,109.2,85.55Z"/><path class="cls-6" d="M149.65,176.27l13.8-14c5.87,6.5,13,10.62,22,10.62,9.2,0,12.37-3,12.37-7.93,0-4.12-2.53-6.18-8.4-7l-9-1.12c-18.88-2.38-28.08-10.62-28.08-25.69,0-16,12.53-27.13,32.36-27.13,17.45,0,25.54,4.77,33.94,13l-13.48,13.8c-5.23-5.23-12.21-8.56-19.19-8.56-7.93,0-11.1,2.85-11.1,7,0,4.44,1.9,6.81,8.72,7.77l9.36,1.27c18.08,2.38,27.44,10.63,27.44,25.06,0,16-14.28,27.76-35.69,27.76C168.68,191.19,158.21,185.79,149.65,176.27Z"/></svg>