<svg id="Layer_1" data-name="Layer 1" xmlns="http://www.w3.org/2000/svg" xmlns:xlink="http://www.w3.org/1999/xlink" viewBox="0 0 288 288"><defs><style>.cls-1{fill:#fff;}.cls-2{fill:#051b75;}.cls-3{fill:url(#linear-gradient);}.cls-4{fill:url(#linear-gradient-2);}</style><linearGradient id="linear-gradient" x1="200.82" y1="182.4" x2="200.82" y2="150.94" gradientUnits="userSpaceOnUse"><stop offset="0.2" stop-color="#fff"/><stop offset="1" stop-color="#fff" stop-opacity="0"/></linearGradient><linearGradient id="linear-gradient-2" x1="68.05" y1="248.61" x2="248.63" y2="68.04" gradientUnits="userSpaceOnUse"><stop offset="0.1" stop-color="#ee538b"/><stop offset="0.9" stop-color="#8a3ffc"/></linearGradient></defs><title>Artboard 18 copy 2</title><rect class="cls-1" width="288" height="288"/><path class="cls-2" d="M195.6,155.46V182.4h11.47V155.46a17.2,17.2,0,0,0-17.2-17.2H98.13a5.72,5.72,0,0,1-5.73-5.73V109.59h17.2V63.72H63.73v45.87h17.2v22.94a17.2,17.2,0,0,0,17.2,17.2h91.74A5.73,5.73,0,0,1,195.6,155.46ZM75.19,98.13V75.19H98.13V98.13Z"/><rect class="cls-3" x="191.31" y="150.94" width="19.02" height="31.46"/><path class="cls-4" d="M86.66,189.87a11.47,11.47,0,1,1-11.47,11.47,11.46,11.46,0,0,1,11.47-11.47m0-11.47a22.94,22.94,0,1,0,22.94,22.94A22.93,22.93,0,0,0,86.66,178.4ZM144,75.19a11.47,11.47,0,1,1-11.47,11.47A11.48,11.48,0,0,1,144,75.19m0-11.47a22.94,22.94,0,1,0,22.94,22.94A22.94,22.94,0,0,0,144,63.72Zm57.34,11.47a11.47,11.47,0,1,1-11.47,11.47,11.48,11.48,0,0,1,11.47-11.47m0-11.47a22.94,22.94,0,1,0,22.93,22.94A22.94,22.94,0,0,0,201.34,63.72ZM155.47,189.87V212.8H132.53V189.87h22.94m11.47-11.47H121.06v45.87h45.88Zm34.4,11.47a11.47,11.47,0,1,1-11.47,11.47,11.47,11.47,0,0,1,11.47-11.47m0-11.47a22.94,22.94,0,1,0,22.93,22.94A22.94,22.94,0,0,0,201.34,178.4Z"/></svg>