<svg id="Layer_1" data-name="Layer 1" xmlns="http://www.w3.org/2000/svg" xmlns:xlink="http://www.w3.org/1999/xlink" viewBox="0 0 288 288"><defs><style>.cls-1{fill:#fff;}.cls-2{fill:url(#linear-gradient);}.cls-3{fill:url(#linear-gradient-2);}.cls-4{fill:url(#linear-gradient-3);}.cls-5{fill:#051b75;}</style><linearGradient id="linear-gradient" x1="51.98" y1="-7377.4" x2="235.55" y2="-7194.77" gradientTransform="matrix(1, 0, 0, -1, 0, -7141.85)" gradientUnits="userSpaceOnUse"><stop offset="0.1" stop-color="#ee538b"/><stop offset="0.9" stop-color="#8a3ffc"/></linearGradient><linearGradient id="linear-gradient-2" x1="7295.6" y1="1412.15" x2="7415.53" y2="1412.15" gradientTransform="translate(-4058.59 -6055.65) rotate(45)" gradientUnits="userSpaceOnUse"><stop offset="0.04" stop-color="#fff" stop-opacity="0"/><stop offset="0.2" stop-color="#fff"/><stop offset="0.8" stop-color="#fff"/><stop offset="0.96" stop-color="#fff" stop-opacity="0"/></linearGradient><linearGradient id="linear-gradient-3" x1="-10277.48" y1="9017.08" x2="-10157.56" y2="9017.08" gradientTransform="translate(992.83 -13456.79) rotate(-45)" xlink:href="#linear-gradient-2"/></defs><title>Artboard 18 copy</title><rect class="cls-1" width="288" height="288"/><path class="cls-2" d="M102.2,193.9l-8.1-8.1L117,162.9l8.1,8.1ZM125.1,117,102.2,94.1l-8.1,8.1L117,125.1Zm68.8,68.8L171,162.9l-8.1,8.1,22.9,22.9Zm0-83.6-8.1-8.1L162.9,117l8.1,8.1Z"/><polygon class="cls-3" points="179.6 193.2 94.8 108.4 108.4 94.8 193.2 179.6 179.6 193.2"/><polygon class="cls-4" points="193.2 108.4 108.4 193.2 94.8 179.6 179.6 94.8 193.2 108.4"/><path class="cls-5" d="M144,178.4A34.4,34.4,0,1,1,178.4,144h0A34.4,34.4,0,0,1,144,178.4Zm0-57.3A22.9,22.9,0,1,0,166.9,144,22.9,22.9,0,0,0,144,121.1Z"/><path class="cls-5" d="M86.7,224.3a22.9,22.9,0,1,1,22.9-22.9A22.9,22.9,0,0,1,86.7,224.3Zm0-34.4a11.5,11.5,0,1,0,11.5,11.5A11.5,11.5,0,0,0,86.7,189.9Z"/><path class="cls-5" d="M201.3,224.3a22.9,22.9,0,1,1,22.9-22.9A22.9,22.9,0,0,1,201.3,224.3Zm0-34.4a11.5,11.5,0,1,0,11.5,11.5A11.5,11.5,0,0,0,201.3,189.9Z"/><path class="cls-5" d="M86.7,109.6a23,23,0,1,1,22.9-23h0A23,23,0,0,1,86.7,109.6Zm0-34.4A11.5,11.5,0,1,0,98.2,86.7h0A11.57,11.57,0,0,0,86.7,75.2Z"/><path class="cls-5" d="M201.3,109.6a22.9,22.9,0,1,1,22.9-22.9A22.9,22.9,0,0,1,201.3,109.6Zm0-34.4a11.5,11.5,0,1,0,11.5,11.5A11.5,11.5,0,0,0,201.3,75.2Z"/></svg>