<svg id="Layer_1" data-name="Layer 1" xmlns="http://www.w3.org/2000/svg" xmlns:xlink="http://www.w3.org/1999/xlink" viewBox="0 0 288 288"><defs><style>.cls-1{fill:#fff;}.cls-2{fill:url(#linear-gradient);}.cls-3{fill:#a970ff;}.cls-4{fill:url(#linear-gradient-2);}.cls-5{fill:url(#linear-gradient-3);}.cls-6{fill:url(#linear-gradient-4);}</style><linearGradient id="linear-gradient" x1="65.42" y1="248.39" x2="247.15" y2="66.65" gradientUnits="userSpaceOnUse"><stop offset="0.1" stop-color="#00bab6"/><stop offset="0.9" stop-color="#0062ff"/></linearGradient><linearGradient id="linear-gradient-2" x1="63.45" y1="144.14" x2="138.27" y2="144.14" gradientUnits="userSpaceOnUse"><stop offset="0.1" stop-color="#fff"/><stop offset="0.9" stop-color="#fff" stop-opacity="0"/></linearGradient><linearGradient id="linear-gradient-3" x1="149.53" y1="95.26" x2="224.35" y2="95.26" gradientTransform="translate(0.4 -2.86)" xlink:href="#linear-gradient-2"/><linearGradient id="linear-gradient-4" x1="149.53" y1="-7.96" x2="224.35" y2="-7.96" gradientTransform="translate(0.4 203.56)" xlink:href="#linear-gradient-2"/></defs><title>Artboard 18 copy 7</title><rect class="cls-1" width="288" height="288"/><path class="cls-2" d="M224.28,98.13h-86V86.66h86Zm0,91.74h-86v11.47h86ZM63.72,149.73h86V138.27h-86Z"/><path class="cls-3" d="M98.13,115.33a22.94,22.94,0,1,1,22.93-22.94A23,23,0,0,1,98.13,115.33Zm0-34.4A11.47,11.47,0,1,0,109.6,92.39,11.47,11.47,0,0,0,98.13,80.93Z"/><path class="cls-3" d="M98.13,218.54a22.94,22.94,0,1,1,22.93-22.93A23,23,0,0,1,98.13,218.54Zm0-34.4a11.47,11.47,0,1,0,11.47,11.47A11.48,11.48,0,0,0,98.13,184.14Z"/><path class="cls-3" d="M189.87,166.94A22.94,22.94,0,1,1,212.81,144,23,23,0,0,1,189.87,166.94Zm0-34.41A11.47,11.47,0,1,0,201.34,144,11.49,11.49,0,0,0,189.87,132.53Z"/><rect class="cls-4" x="63.45" y="125.5" width="74.81" height="37.27"/><rect class="cls-5" x="149.94" y="73.76" width="74.81" height="37.27" transform="translate(374.68 184.79) rotate(180)"/><rect class="cls-6" x="149.94" y="176.97" width="74.81" height="37.27" transform="translate(374.68 391.21) rotate(180)"/></svg>