<?xml version="1.0" encoding="UTF-8"?>
<svg width="288px" height="288px" viewBox="0 0 288 288" version="1.1" xmlns="http://www.w3.org/2000/svg" xmlns:xlink="http://www.w3.org/1999/xlink">
    <!-- Generator: Sketch 51.3 (57544) - http://www.bohemiancoding.com/sketch -->
    <title>Interactive text - Do</title>
    <desc>Created with Sketch.</desc>
    <defs></defs>
    <g id="Page-1" stroke="none" stroke-width="1" fill="none" fill-rule="evenodd">
        <g id="Type-Specs" transform="translate(-352.000000, -981.000000)">
            <g id="Interactive-text---Do" transform="translate(352.000000, 981.000000)">
                <rect id="Rectangle-16-Copy-150" fill="#FFFFFF" x="0" y="0" width="288" height="288"></rect>
                <g id="Group-10" transform="translate(106.000000, 129.000000)">
                    <path d="M11.376,24 L2.232,24 L2.232,7.248 L4.248,7.248 L4.248,22.224 L11.376,22.224 L11.376,24 Z M15.024,8.712 C14.208,8.712 13.848,8.28 13.848,7.632 L13.848,7.32 C13.848,6.672 14.208,6.24 15.024,6.24 C15.84,6.24 16.2,6.672 16.2,7.32 L16.2,7.632 C16.2,8.28 15.84,8.712 15.024,8.712 Z M14.064,24 L14.064,11.616 L15.984,11.616 L15.984,24 L14.064,24 Z M21.984,24 L20.064,24 L20.064,11.616 L21.984,11.616 L21.984,13.632 L22.08,13.632 C22.68,12.24 23.736,11.328 25.584,11.328 C28.128,11.328 29.736,13.056 29.736,16.056 L29.736,24 L27.816,24 L27.816,16.392 C27.816,14.184 26.856,13.056 25.008,13.056 C23.472,13.056 21.984,13.824 21.984,15.408 L21.984,24 Z M33.696,24 L33.696,6.24 L35.616,6.24 L35.616,17.496 L35.712,17.496 L37.608,15.384 L41.112,11.616 L43.44,11.616 L38.856,16.512 L43.896,24 L41.568,24 L37.464,17.688 L35.616,19.584 L35.616,24 L33.696,24 Z" id="Link" fill="#0062FF"></path>
                    <g id="arrow-right" transform="translate(53.000000, 3.000000)">
                        <g id="artwork" transform="translate(1.500000, 3.000000)" fill="#0062FF" fill-rule="nonzero">
                            <polygon id="Shape" points="9.5325 0.2175 8.4675 1.2825 15.4425 8.25 0 8.25 0 9.75 15.4425 9.75 8.4675 16.7175 9.5325 17.7825 18.3075 9"></polygon>
                        </g>
                        <g id="transparent_box">
                            <rect id="Rectangle-path" x="0" y="0" width="24" height="24"></rect>
                        </g>
                    </g>
                </g>
            </g>
        </g>
    </g>
</svg>