<?xml version="1.0" encoding="UTF-8"?>
<svg width="288px" height="288px" viewBox="0 0 288 288" version="1.1" xmlns="http://www.w3.org/2000/svg" xmlns:xlink="http://www.w3.org/1999/xlink">
    <!-- Generator: Sketch 51.2 (57519) - http://www.bohemiancoding.com/sketch -->
    <title>Group 11</title>
    <desc>Created with Sketch.</desc>
    <defs></defs>
    <g id="Page-1" stroke="none" stroke-width="1" fill="none" fill-rule="evenodd">
        <g id="Type-Basics-Copy" transform="translate(-672.000000, -2981.000000)">
            <g id="Group-11" transform="translate(672.000000, 2981.000000)">
                <g id="Group-4-Copy" fill="#FFFFFF">
                    <rect id="Rectangle-16-Copy-171" x="0" y="0" width="288" height="288"></rect>
                </g>
                <path d="M26.604,93 L26.604,73.456 L34.64,73.456 C37.86,73.456 39.848,75.444 39.848,78.496 C39.848,81.408 37.972,82.444 36.684,82.64 L36.684,82.808 C38.084,82.892 40.52,84.096 40.52,87.344 C40.52,90.564 38.364,93 35.48,93 L26.604,93 Z M28.956,83.928 L28.956,90.928 L34.752,90.928 C36.768,90.928 38,89.864 38,87.904 L38,86.952 C38,84.992 36.768,83.928 34.752,83.928 L28.956,83.928 Z M28.956,75.528 L28.956,81.912 L34.36,81.912 C36.208,81.912 37.328,80.932 37.328,79.196 L37.328,78.244 C37.328,76.508 36.208,75.528 34.36,75.528 L28.956,75.528 Z M49.032,93 L47.044,93 C45.504,93 44.664,92.02 44.664,90.676 L44.664,72.28 L46.904,72.28 L46.904,91.04 L49.032,91.04 L49.032,93 Z M57.74,93.336 C53.876,93.336 51.216,90.368 51.216,85.776 C51.216,81.184 53.876,78.216 57.74,78.216 C61.604,78.216 64.264,81.184 64.264,85.776 C64.264,90.368 61.604,93.336 57.74,93.336 Z M57.74,91.348 C60.148,91.348 61.856,89.864 61.856,86.812 L61.856,84.74 C61.856,81.688 60.148,80.204 57.74,80.204 C55.332,80.204 53.624,81.688 53.624,84.74 L53.624,86.812 C53.624,89.864 55.332,91.348 57.74,91.348 Z M73.336,93.336 C69.276,93.336 66.896,90.396 66.896,85.776 C66.896,81.156 69.276,78.216 73.336,78.216 C76.192,78.216 77.9,79.616 78.74,81.604 L76.864,82.556 C76.332,81.072 75.1,80.204 73.336,80.204 C70.676,80.204 69.304,82.024 69.304,84.544 L69.304,87.008 C69.304,89.528 70.676,91.348 73.336,91.348 C75.156,91.348 76.472,90.48 77.256,88.828 L78.88,89.92 C77.956,91.992 76.08,93.336 73.336,93.336 Z M82.044,93 L82.044,72.28 L84.284,72.28 L84.284,85.412 L84.396,85.412 L86.608,82.948 L90.696,78.552 L93.412,78.552 L88.064,84.264 L93.944,93 L91.228,93 L86.44,85.636 L84.284,87.848 L84.284,93 L82.044,93 Z M102.176,93.336 C98.116,93.336 95.736,90.396 95.736,85.776 C95.736,81.156 98.116,78.216 102.176,78.216 C105.032,78.216 106.74,79.616 107.58,81.604 L105.704,82.556 C105.172,81.072 103.94,80.204 102.176,80.204 C99.516,80.204 98.144,82.024 98.144,84.544 L98.144,87.008 C98.144,89.528 99.516,91.348 102.176,91.348 C103.996,91.348 105.312,90.48 106.096,88.828 L107.72,89.92 C106.796,91.992 104.92,93.336 102.176,93.336 Z M110.884,93 L110.884,72.28 L113.124,72.28 L113.124,80.904 L113.236,80.904 C113.936,79.28 115.168,78.216 117.324,78.216 C120.292,78.216 122.168,80.232 122.168,83.732 L122.168,93 L119.928,93 L119.928,84.124 C119.928,81.548 118.808,80.232 116.652,80.232 C114.86,80.232 113.124,81.128 113.124,82.976 L113.124,93 L110.884,93 Z M138.548,93 L137.288,93 C135.636,93 134.964,91.992 134.796,90.648 L134.656,90.648 C134.04,92.412 132.5,93.336 130.484,93.336 C127.432,93.336 125.64,91.656 125.64,88.968 C125.64,86.252 127.6,84.74 131.8,84.74 L134.656,84.74 L134.656,83.312 C134.656,81.268 133.536,80.148 131.24,80.148 C129.504,80.148 128.356,80.988 127.572,82.304 L126.228,81.044 C127.012,79.504 128.748,78.216 131.352,78.216 C134.824,78.216 136.896,80.036 136.896,83.088 L136.896,91.04 L138.548,91.04 L138.548,93 Z M130.848,91.432 C133.06,91.432 134.656,90.284 134.656,88.8 L134.656,86.42 L131.688,86.42 C129.14,86.42 127.992,87.204 127.992,88.604 L127.992,89.192 C127.992,90.62 129.112,91.432 130.848,91.432 Z M142.86,75.164 C141.908,75.164 141.488,74.66 141.488,73.904 L141.488,73.54 C141.488,72.784 141.908,72.28 142.86,72.28 C143.812,72.28 144.232,72.784 144.232,73.54 L144.232,73.904 C144.232,74.66 143.812,75.164 142.86,75.164 Z M141.74,93 L141.74,78.552 L143.98,78.552 L143.98,93 L141.74,93 Z M150.98,93 L148.74,93 L148.74,78.552 L150.98,78.552 L150.98,80.904 L151.092,80.904 C151.792,79.28 153.024,78.216 155.18,78.216 C158.148,78.216 160.024,80.232 160.024,83.732 L160.024,93 L157.784,93 L157.784,84.124 C157.784,81.548 156.664,80.232 154.508,80.232 C152.716,80.232 150.98,81.128 150.98,82.976 L150.98,93 Z M176.628,93.336 C172.568,93.336 170.188,90.396 170.188,85.776 C170.188,81.156 172.568,78.216 176.628,78.216 C179.484,78.216 181.192,79.616 182.032,81.604 L180.156,82.556 C179.624,81.072 178.392,80.204 176.628,80.204 C173.968,80.204 172.596,82.024 172.596,84.544 L172.596,87.008 C172.596,89.528 173.968,91.348 176.628,91.348 C178.448,91.348 179.764,90.48 180.548,88.828 L182.172,89.92 C181.248,91.992 179.372,93.336 176.628,93.336 Z M197.096,93 L195.836,93 C194.184,93 193.512,91.992 193.344,90.648 L193.204,90.648 C192.588,92.412 191.048,93.336 189.032,93.336 C185.98,93.336 184.188,91.656 184.188,88.968 C184.188,86.252 186.148,84.74 190.348,84.74 L193.204,84.74 L193.204,83.312 C193.204,81.268 192.084,80.148 189.788,80.148 C188.052,80.148 186.904,80.988 186.12,82.304 L184.776,81.044 C185.56,79.504 187.296,78.216 189.9,78.216 C193.372,78.216 195.444,80.036 195.444,83.088 L195.444,91.04 L197.096,91.04 L197.096,93 Z M189.396,91.432 C191.608,91.432 193.204,90.284 193.204,88.8 L193.204,86.42 L190.236,86.42 C187.688,86.42 186.54,87.204 186.54,88.604 L186.54,89.192 C186.54,90.62 187.66,91.432 189.396,91.432 Z M202.528,93 L200.288,93 L200.288,78.552 L202.528,78.552 L202.528,80.904 L202.64,80.904 C203.34,79.28 204.572,78.216 206.728,78.216 C209.696,78.216 211.572,80.232 211.572,83.732 L211.572,93 L209.332,93 L209.332,84.124 C209.332,81.548 208.212,80.232 206.056,80.232 C204.264,80.232 202.528,81.128 202.528,82.976 L202.528,93 Z M232.04,93 L232.04,90.648 L231.928,90.648 C231.06,92.44 229.688,93.336 227.7,93.336 C224.088,93.336 221.82,90.396 221.82,85.776 C221.82,81.156 224.088,78.216 227.7,78.216 C229.688,78.216 231.172,79.084 231.928,80.904 L232.04,80.904 L232.04,72.28 L234.28,72.28 L234.28,93 L232.04,93 Z M228.316,91.32 C230.36,91.32 232.04,90.256 232.04,88.38 L232.04,83.004 C232.04,81.408 230.36,80.232 228.316,80.232 C225.796,80.232 224.228,81.968 224.228,84.544 L224.228,87.008 C224.228,89.584 225.796,91.32 228.316,91.32 Z M244.5,93.336 C240.636,93.336 237.976,90.368 237.976,85.776 C237.976,81.184 240.636,78.216 244.5,78.216 C248.364,78.216 251.024,81.184 251.024,85.776 C251.024,90.368 248.364,93.336 244.5,93.336 Z M244.5,91.348 C246.908,91.348 248.616,89.864 248.616,86.812 L248.616,84.74 C248.616,81.688 246.908,80.204 244.5,80.204 C242.092,80.204 240.384,81.688 240.384,84.74 L240.384,86.812 C240.384,89.864 242.092,91.348 244.5,91.348 Z M27.164,137 L27.164,124.512 L24.812,124.512 L24.812,122.552 L27.164,122.552 L27.164,119.64 C27.164,117.652 28.2,116.28 30.328,116.28 L32.512,116.28 L32.512,118.24 L29.404,118.24 L29.404,122.552 L32.512,122.552 L32.512,124.512 L29.404,124.512 L29.404,137 L27.164,137 Z M40.912,137.336 C37.048,137.336 34.388,134.368 34.388,129.776 C34.388,125.184 37.048,122.216 40.912,122.216 C44.776,122.216 47.436,125.184 47.436,129.776 C47.436,134.368 44.776,137.336 40.912,137.336 Z M40.912,135.348 C43.32,135.348 45.028,133.864 45.028,130.812 L45.028,128.74 C45.028,125.688 43.32,124.204 40.912,124.204 C38.504,124.204 36.796,125.688 36.796,128.74 L36.796,130.812 C36.796,133.864 38.504,135.348 40.912,135.348 Z M53.372,137 L51.132,137 L51.132,122.552 L53.372,122.552 L53.372,125.212 L53.512,125.212 C54.016,123.84 55.332,122.552 57.684,122.552 L58.552,122.552 L58.552,124.792 L57.236,124.792 C54.828,124.792 53.372,125.828 53.372,127.2 L53.372,137 Z M68.016,137 L68.016,116.28 L70.256,116.28 L70.256,124.904 L70.368,124.904 C71.124,123.084 72.608,122.216 74.596,122.216 C78.208,122.216 80.476,125.156 80.476,129.776 C80.476,134.396 78.208,137.336 74.596,137.336 C72.608,137.336 71.236,136.44 70.368,134.648 L70.256,134.648 L70.256,137 L68.016,137 Z M73.98,135.32 C76.5,135.32 78.068,133.584 78.068,131.008 L78.068,128.544 C78.068,125.968 76.5,124.232 73.98,124.232 C71.936,124.232 70.256,125.408 70.256,127.004 L70.256,132.38 C70.256,134.256 71.936,135.32 73.98,135.32 Z M93.16,137 L93.16,134.648 L93.048,134.648 C92.488,136.02 91.396,137.336 88.988,137.336 C86.02,137.336 84.116,135.32 84.116,131.82 L84.116,122.552 L86.356,122.552 L86.356,131.428 C86.356,134.004 87.504,135.32 89.66,135.32 C91.424,135.32 93.16,134.452 93.16,132.548 L93.16,122.552 L95.4,122.552 L95.4,137 L93.16,137 Z M104.5,137.336 C101.84,137.336 100.076,136.216 98.788,134.508 L100.384,133.22 C101.504,134.62 102.848,135.432 104.668,135.432 C106.572,135.432 107.692,134.564 107.692,133.08 C107.692,131.96 107.076,131.092 105.172,130.812 L104.024,130.644 C101.364,130.252 99.376,129.16 99.376,126.472 C99.376,123.616 101.588,122.216 104.528,122.216 C106.852,122.216 108.392,123.084 109.568,124.54 L108.084,125.884 C107.44,124.988 106.208,124.12 104.36,124.12 C102.512,124.12 101.532,124.988 101.532,126.36 C101.532,127.76 102.512,128.32 104.304,128.6 L105.424,128.768 C108.616,129.244 109.848,130.644 109.848,132.828 C109.848,135.628 107.804,137.336 104.5,137.336 Z M114.916,119.164 C113.964,119.164 113.544,118.66 113.544,117.904 L113.544,117.54 C113.544,116.784 113.964,116.28 114.916,116.28 C115.868,116.28 116.288,116.784 116.288,117.54 L116.288,117.904 C116.288,118.66 115.868,119.164 114.916,119.164 Z M113.796,137 L113.796,122.552 L116.036,122.552 L116.036,137 L113.796,137 Z M123.036,137 L120.796,137 L120.796,122.552 L123.036,122.552 L123.036,124.904 L123.148,124.904 C123.848,123.28 125.08,122.216 127.236,122.216 C130.204,122.216 132.08,124.232 132.08,127.732 L132.08,137 L129.84,137 L129.84,128.124 C129.84,125.548 128.72,124.232 126.564,124.232 C124.772,124.232 123.036,125.128 123.036,126.976 L123.036,137 Z M142.132,137.336 C138.212,137.336 135.636,134.368 135.636,129.776 C135.636,125.184 138.212,122.216 142.132,122.216 C145.996,122.216 148.376,125.184 148.376,129.272 L148.376,130.336 L137.988,130.336 L137.988,131.008 C137.988,133.5 139.584,135.376 142.272,135.376 C144.092,135.376 145.492,134.48 146.248,132.884 L147.844,134.032 C146.92,135.992 144.848,137.336 142.132,137.336 Z M142.132,124.092 C139.696,124.092 137.988,125.94 137.988,128.46 L137.988,128.656 L145.968,128.656 L145.968,128.348 C145.968,125.8 144.428,124.092 142.132,124.092 Z M156.412,137.336 C153.752,137.336 151.988,136.216 150.7,134.508 L152.296,133.22 C153.416,134.62 154.76,135.432 156.58,135.432 C158.484,135.432 159.604,134.564 159.604,133.08 C159.604,131.96 158.988,131.092 157.084,130.812 L155.936,130.644 C153.276,130.252 151.288,129.16 151.288,126.472 C151.288,123.616 153.5,122.216 156.44,122.216 C158.764,122.216 160.304,123.084 161.48,124.54 L159.996,125.884 C159.352,124.988 158.12,124.12 156.272,124.12 C154.424,124.12 153.444,124.988 153.444,126.36 C153.444,127.76 154.424,128.32 156.216,128.6 L157.336,128.768 C160.528,129.244 161.76,130.644 161.76,132.828 C161.76,135.628 159.716,137.336 156.412,137.336 Z M170.048,137.336 C167.388,137.336 165.624,136.216 164.336,134.508 L165.932,133.22 C167.052,134.62 168.396,135.432 170.216,135.432 C172.12,135.432 173.24,134.564 173.24,133.08 C173.24,131.96 172.624,131.092 170.72,130.812 L169.572,130.644 C166.912,130.252 164.924,129.16 164.924,126.472 C164.924,123.616 167.136,122.216 170.076,122.216 C172.4,122.216 173.94,123.084 175.116,124.54 L173.632,125.884 C172.988,124.988 171.756,124.12 169.908,124.12 C168.06,124.12 167.08,124.988 167.08,126.36 C167.08,127.76 168.06,128.32 169.852,128.6 L170.972,128.768 C174.164,129.244 175.396,130.644 175.396,132.828 C175.396,135.628 173.352,137.336 170.048,137.336 Z M188.304,137 L184.44,122.552 L186.624,122.552 L188.164,128.796 L189.704,135.124 L189.76,135.124 L191.524,128.796 L193.344,122.552 L195.332,122.552 L197.208,128.796 L199,135.124 L199.056,135.124 L200.54,128.796 L202.108,122.552 L204.208,122.552 L200.372,137 L197.6,137 L195.584,130.056 L194.324,125.66 L194.268,125.66 L193.036,130.056 L191.02,137 L188.304,137 Z M207.456,137 L207.456,116.28 L209.696,116.28 L209.696,124.904 L209.808,124.904 C210.508,123.28 211.74,122.216 213.896,122.216 C216.864,122.216 218.74,124.232 218.74,127.732 L218.74,137 L216.5,137 L216.5,128.124 C216.5,125.548 215.38,124.232 213.224,124.232 C211.432,124.232 209.696,125.128 209.696,126.976 L209.696,137 L207.456,137 Z M235.12,137 L233.86,137 C232.208,137 231.536,135.992 231.368,134.648 L231.228,134.648 C230.612,136.412 229.072,137.336 227.056,137.336 C224.004,137.336 222.212,135.656 222.212,132.968 C222.212,130.252 224.172,128.74 228.372,128.74 L231.228,128.74 L231.228,127.312 C231.228,125.268 230.108,124.148 227.812,124.148 C226.076,124.148 224.928,124.988 224.144,126.304 L222.8,125.044 C223.584,123.504 225.32,122.216 227.924,122.216 C231.396,122.216 233.468,124.036 233.468,127.088 L233.468,135.04 L235.12,135.04 L235.12,137 Z M227.42,135.432 C229.632,135.432 231.228,134.284 231.228,132.8 L231.228,130.42 L228.26,130.42 C225.712,130.42 224.564,131.204 224.564,132.604 L224.564,133.192 C224.564,134.62 225.684,135.432 227.42,135.432 Z M244.304,137 L241.504,137 C239.964,137 239.124,136.02 239.124,134.62 L239.124,124.512 L236.744,124.512 L236.744,122.552 L238.088,122.552 C239.04,122.552 239.348,122.216 239.348,121.236 L239.348,118.548 L241.364,118.548 L241.364,122.552 L244.528,122.552 L244.528,124.512 L241.364,124.512 L241.364,135.04 L244.304,135.04 L244.304,137 Z M32.372,181 L29.572,181 C28.032,181 27.192,180.02 27.192,178.62 L27.192,168.512 L24.812,168.512 L24.812,166.552 L26.156,166.552 C27.108,166.552 27.416,166.216 27.416,165.236 L27.416,162.548 L29.432,162.548 L29.432,166.552 L32.596,166.552 L32.596,168.512 L29.432,168.512 L29.432,179.04 L32.372,179.04 L32.372,181 Z M36.208,181 L36.208,160.28 L38.448,160.28 L38.448,168.904 L38.56,168.904 C39.26,167.28 40.492,166.216 42.648,166.216 C45.616,166.216 47.492,168.232 47.492,171.732 L47.492,181 L45.252,181 L45.252,172.124 C45.252,169.548 44.132,168.232 41.976,168.232 C40.184,168.232 38.448,169.128 38.448,170.976 L38.448,181 L36.208,181 Z M57.544,181.336 C53.624,181.336 51.048,178.368 51.048,173.776 C51.048,169.184 53.624,166.216 57.544,166.216 C61.408,166.216 63.788,169.184 63.788,173.272 L63.788,174.336 L53.4,174.336 L53.4,175.008 C53.4,177.5 54.996,179.376 57.684,179.376 C59.504,179.376 60.904,178.48 61.66,176.884 L63.256,178.032 C62.332,179.992 60.26,181.336 57.544,181.336 Z M57.544,168.092 C55.108,168.092 53.4,169.94 53.4,172.46 L53.4,172.656 L61.38,172.656 L61.38,172.348 C61.38,169.8 59.84,168.092 57.544,168.092 Z M75.212,163.164 C74.26,163.164 73.84,162.66 73.84,161.904 L73.84,161.54 C73.84,160.784 74.26,160.28 75.212,160.28 C76.164,160.28 76.584,160.784 76.584,161.54 L76.584,161.904 C76.584,162.66 76.164,163.164 75.212,163.164 Z M74.092,181 L74.092,166.552 L76.332,166.552 L76.332,181 L74.092,181 Z M83.332,181 L81.092,181 L81.092,166.552 L83.332,166.552 L83.332,168.904 L83.444,168.904 C84.144,167.28 85.376,166.216 87.532,166.216 C90.5,166.216 92.376,168.232 92.376,171.732 L92.376,181 L90.136,181 L90.136,172.124 C90.136,169.548 89.016,168.232 86.86,168.232 C85.068,168.232 83.332,169.128 83.332,170.976 L83.332,181 Z M102.988,181 L100.188,181 C98.648,181 97.808,180.02 97.808,178.62 L97.808,168.512 L95.428,168.512 L95.428,166.552 L96.772,166.552 C97.724,166.552 98.032,166.216 98.032,165.236 L98.032,162.548 L100.048,162.548 L100.048,166.552 L103.212,166.552 L103.212,168.512 L100.048,168.512 L100.048,179.04 L102.988,179.04 L102.988,181 Z M112.256,181.336 C108.336,181.336 105.76,178.368 105.76,173.776 C105.76,169.184 108.336,166.216 112.256,166.216 C116.12,166.216 118.5,169.184 118.5,173.272 L118.5,174.336 L108.112,174.336 L108.112,175.008 C108.112,177.5 109.708,179.376 112.396,179.376 C114.216,179.376 115.616,178.48 116.372,176.884 L117.968,178.032 C117.044,179.992 114.972,181.336 112.256,181.336 Z M112.256,168.092 C109.82,168.092 108.112,169.94 108.112,172.46 L108.112,172.656 L116.092,172.656 L116.092,172.348 C116.092,169.8 114.552,168.092 112.256,168.092 Z M124.436,181 L122.196,181 L122.196,166.552 L124.436,166.552 L124.436,169.212 L124.576,169.212 C125.08,167.84 126.396,166.552 128.748,166.552 L129.616,166.552 L129.616,168.792 L128.3,168.792 C125.892,168.792 124.436,169.828 124.436,171.2 L124.436,181 Z M134.712,181 L132.472,181 L132.472,166.552 L134.712,166.552 L134.712,168.904 L134.824,168.904 C135.524,167.28 136.756,166.216 138.912,166.216 C141.88,166.216 143.756,168.232 143.756,171.732 L143.756,181 L141.516,181 L141.516,172.124 C141.516,169.548 140.396,168.232 138.24,168.232 C136.448,168.232 134.712,169.128 134.712,170.976 L134.712,181 Z M153.808,181.336 C149.888,181.336 147.312,178.368 147.312,173.776 C147.312,169.184 149.888,166.216 153.808,166.216 C157.672,166.216 160.052,169.184 160.052,173.272 L160.052,174.336 L149.664,174.336 L149.664,175.008 C149.664,177.5 151.26,179.376 153.948,179.376 C155.768,179.376 157.168,178.48 157.924,176.884 L159.52,178.032 C158.596,179.992 156.524,181.336 153.808,181.336 Z M153.808,168.092 C151.372,168.092 149.664,169.94 149.664,172.46 L149.664,172.656 L157.644,172.656 L157.644,172.348 C157.644,169.8 156.104,168.092 153.808,168.092 Z M169.74,181 L166.94,181 C165.4,181 164.56,180.02 164.56,178.62 L164.56,168.512 L162.18,168.512 L162.18,166.552 L163.524,166.552 C164.476,166.552 164.784,166.216 164.784,165.236 L164.784,162.548 L166.8,162.548 L166.8,166.552 L169.964,166.552 L169.964,168.512 L166.8,168.512 L166.8,179.04 L169.74,179.04 L169.74,181 Z M189.424,181 L189.424,178.648 L189.312,178.648 C188.444,180.44 187.072,181.336 185.084,181.336 C181.472,181.336 179.204,178.396 179.204,173.776 C179.204,169.156 181.472,166.216 185.084,166.216 C187.072,166.216 188.556,167.084 189.312,168.904 L189.424,168.904 L189.424,160.28 L191.664,160.28 L191.664,181 L189.424,181 Z M185.7,179.32 C187.744,179.32 189.424,178.256 189.424,176.38 L189.424,171.004 C189.424,169.408 187.744,168.232 185.7,168.232 C183.18,168.232 181.612,169.968 181.612,172.544 L181.612,175.008 C181.612,177.584 183.18,179.32 185.7,179.32 Z M197.544,163.164 C196.592,163.164 196.172,162.66 196.172,161.904 L196.172,161.54 C196.172,160.784 196.592,160.28 197.544,160.28 C198.496,160.28 198.916,160.784 198.916,161.54 L198.916,161.904 C198.916,162.66 198.496,163.164 197.544,163.164 Z M196.424,181 L196.424,166.552 L198.664,166.552 L198.664,181 L196.424,181 Z M212.664,181 L212.664,178.648 L212.552,178.648 C211.684,180.44 210.312,181.336 208.324,181.336 C204.712,181.336 202.444,178.396 202.444,173.776 C202.444,169.156 204.712,166.216 208.324,166.216 C210.312,166.216 211.796,167.084 212.552,168.904 L212.664,168.904 L212.664,160.28 L214.904,160.28 L214.904,181 L212.664,181 Z M208.94,179.32 C210.984,179.32 212.664,178.256 212.664,176.38 L212.664,171.004 C212.664,169.408 210.984,168.232 208.94,168.232 C206.42,168.232 204.852,169.968 204.852,172.544 L204.852,175.008 C204.852,177.584 206.42,179.32 208.94,179.32 Z M227.056,181 L227.056,168.512 L224.704,168.512 L224.704,166.552 L227.056,166.552 L227.056,163.64 C227.056,161.652 228.092,160.28 230.22,160.28 L232.404,160.28 L232.404,162.24 L229.296,162.24 L229.296,166.552 L232.404,166.552 L232.404,168.512 L229.296,168.512 L229.296,181 L227.056,181 Z M240.804,181.336 C236.94,181.336 234.28,178.368 234.28,173.776 C234.28,169.184 236.94,166.216 240.804,166.216 C244.668,166.216 247.328,169.184 247.328,173.776 C247.328,178.368 244.668,181.336 240.804,181.336 Z M240.804,179.348 C243.212,179.348 244.92,177.864 244.92,174.812 L244.92,172.74 C244.92,169.688 243.212,168.204 240.804,168.204 C238.396,168.204 236.688,169.688 236.688,172.74 L236.688,174.812 C236.688,177.864 238.396,179.348 240.804,179.348 Z M253.264,181 L251.024,181 L251.024,166.552 L253.264,166.552 L253.264,169.212 L253.404,169.212 C253.908,167.84 255.224,166.552 257.576,166.552 L258.444,166.552 L258.444,168.792 L257.128,168.792 C254.72,168.792 253.264,169.828 253.264,171.2 L253.264,181 Z M31.756,225.336 C27.696,225.336 25.316,222.396 25.316,217.776 C25.316,213.156 27.696,210.216 31.756,210.216 C34.612,210.216 36.32,211.616 37.16,213.604 L35.284,214.556 C34.752,213.072 33.52,212.204 31.756,212.204 C29.096,212.204 27.724,214.024 27.724,216.544 L27.724,219.008 C27.724,221.528 29.096,223.348 31.756,223.348 C33.576,223.348 34.892,222.48 35.676,220.828 L37.3,221.92 C36.376,223.992 34.5,225.336 31.756,225.336 Z M45.924,225.336 C42.06,225.336 39.4,222.368 39.4,217.776 C39.4,213.184 42.06,210.216 45.924,210.216 C49.788,210.216 52.448,213.184 52.448,217.776 C52.448,222.368 49.788,225.336 45.924,225.336 Z M45.924,223.348 C48.332,223.348 50.04,221.864 50.04,218.812 L50.04,216.74 C50.04,213.688 48.332,212.204 45.924,212.204 C43.516,212.204 41.808,213.688 41.808,216.74 L41.808,218.812 C41.808,221.864 43.516,223.348 45.924,223.348 Z M58.384,225 L56.144,225 L56.144,210.552 L58.384,210.552 L58.384,212.904 L58.496,212.904 C59.14,211.42 60.148,210.216 62.388,210.216 C64.292,210.216 66.028,211.084 66.812,213.156 L66.868,213.156 C67.4,211.588 68.8,210.216 71.264,210.216 C74.204,210.216 75.968,212.232 75.968,215.732 L75.968,225 L73.728,225 L73.728,216.124 C73.728,213.576 72.748,212.232 70.564,212.232 C68.8,212.232 67.176,213.128 67.176,214.976 L67.176,225 L64.936,225 L64.936,216.124 C64.936,213.548 63.956,212.232 61.828,212.232 C60.064,212.232 58.384,213.128 58.384,214.976 L58.384,225 Z M82.828,225 L80.588,225 L80.588,210.552 L82.828,210.552 L82.828,212.904 L82.94,212.904 C83.584,211.42 84.592,210.216 86.832,210.216 C88.736,210.216 90.472,211.084 91.256,213.156 L91.312,213.156 C91.844,211.588 93.244,210.216 95.708,210.216 C98.648,210.216 100.412,212.232 100.412,215.732 L100.412,225 L98.172,225 L98.172,216.124 C98.172,213.576 97.192,212.232 95.008,212.232 C93.244,212.232 91.62,213.128 91.62,214.976 L91.62,225 L89.38,225 L89.38,216.124 C89.38,213.548 88.4,212.232 86.272,212.232 C84.508,212.232 82.828,213.128 82.828,214.976 L82.828,225 Z M113.936,225 L113.936,222.648 L113.824,222.648 C113.264,224.02 112.172,225.336 109.764,225.336 C106.796,225.336 104.892,223.32 104.892,219.82 L104.892,210.552 L107.132,210.552 L107.132,219.428 C107.132,222.004 108.28,223.32 110.436,223.32 C112.2,223.32 113.936,222.452 113.936,220.548 L113.936,210.552 L116.176,210.552 L116.176,225 L113.936,225 Z M123.176,225 L120.936,225 L120.936,210.552 L123.176,210.552 L123.176,212.904 L123.288,212.904 C123.988,211.28 125.22,210.216 127.376,210.216 C130.344,210.216 132.22,212.232 132.22,215.732 L132.22,225 L129.98,225 L129.98,216.124 C129.98,213.548 128.86,212.232 126.704,212.232 C124.912,212.232 123.176,213.128 123.176,214.976 L123.176,225 Z M137.96,207.164 C137.008,207.164 136.588,206.66 136.588,205.904 L136.588,205.54 C136.588,204.784 137.008,204.28 137.96,204.28 C138.912,204.28 139.332,204.784 139.332,205.54 L139.332,205.904 C139.332,206.66 138.912,207.164 137.96,207.164 Z M136.84,225 L136.84,210.552 L139.08,210.552 L139.08,225 L136.84,225 Z M149.216,225.336 C145.156,225.336 142.776,222.396 142.776,217.776 C142.776,213.156 145.156,210.216 149.216,210.216 C152.072,210.216 153.78,211.616 154.62,213.604 L152.744,214.556 C152.212,213.072 150.98,212.204 149.216,212.204 C146.556,212.204 145.184,214.024 145.184,216.544 L145.184,219.008 C145.184,221.528 146.556,223.348 149.216,223.348 C151.036,223.348 152.352,222.48 153.136,220.828 L154.76,221.92 C153.836,223.992 151.96,225.336 149.216,225.336 Z M169.684,225 L168.424,225 C166.772,225 166.1,223.992 165.932,222.648 L165.792,222.648 C165.176,224.412 163.636,225.336 161.62,225.336 C158.568,225.336 156.776,223.656 156.776,220.968 C156.776,218.252 158.736,216.74 162.936,216.74 L165.792,216.74 L165.792,215.312 C165.792,213.268 164.672,212.148 162.376,212.148 C160.64,212.148 159.492,212.988 158.708,214.304 L157.364,213.044 C158.148,211.504 159.884,210.216 162.488,210.216 C165.96,210.216 168.032,212.036 168.032,215.088 L168.032,223.04 L169.684,223.04 L169.684,225 Z M161.984,223.432 C164.196,223.432 165.792,222.284 165.792,220.8 L165.792,218.42 L162.824,218.42 C160.276,218.42 159.128,219.204 159.128,220.604 L159.128,221.192 C159.128,222.62 160.248,223.432 161.984,223.432 Z M178.868,225 L176.068,225 C174.528,225 173.688,224.02 173.688,222.62 L173.688,212.512 L171.308,212.512 L171.308,210.552 L172.652,210.552 C173.604,210.552 173.912,210.216 173.912,209.236 L173.912,206.548 L175.928,206.548 L175.928,210.552 L179.092,210.552 L179.092,212.512 L175.928,212.512 L175.928,223.04 L178.868,223.04 L178.868,225 Z M183.824,207.164 C182.872,207.164 182.452,206.66 182.452,205.904 L182.452,205.54 C182.452,204.784 182.872,204.28 183.824,204.28 C184.776,204.28 185.196,204.784 185.196,205.54 L185.196,205.904 C185.196,206.66 184.776,207.164 183.824,207.164 Z M182.704,225 L182.704,210.552 L184.944,210.552 L184.944,225 L182.704,225 Z M195.164,225.336 C191.3,225.336 188.64,222.368 188.64,217.776 C188.64,213.184 191.3,210.216 195.164,210.216 C199.028,210.216 201.688,213.184 201.688,217.776 C201.688,222.368 199.028,225.336 195.164,225.336 Z M195.164,223.348 C197.572,223.348 199.28,221.864 199.28,218.812 L199.28,216.74 C199.28,213.688 197.572,212.204 195.164,212.204 C192.756,212.204 191.048,213.688 191.048,216.74 L191.048,218.812 C191.048,221.864 192.756,223.348 195.164,223.348 Z M207.624,225 L205.384,225 L205.384,210.552 L207.624,210.552 L207.624,212.904 L207.736,212.904 C208.436,211.28 209.668,210.216 211.824,210.216 C214.792,210.216 216.668,212.232 216.668,215.732 L216.668,225 L214.428,225 L214.428,216.124 C214.428,213.548 213.308,212.232 211.152,212.232 C209.36,212.232 207.624,213.128 207.624,214.976 L207.624,225 Z M222.716,225.336 C221.54,225.336 221.008,224.664 221.008,223.712 L221.008,223.348 C221.008,222.396 221.54,221.724 222.716,221.724 C223.892,221.724 224.424,222.396 224.424,223.348 L224.424,223.712 C224.424,224.664 223.892,225.336 222.716,225.336 Z" id="Blockchain-can-do-fo-Copy" fill="#3D3D3D"></path>
            </g>
        </g>
    </g>
</svg>