<?xml version="1.0" encoding="utf-8"?>
<!-- Generator: Adobe Illustrator 22.1.0, SVG Export Plug-In . SVG Version: 6.00 Build 0)  -->
<svg version="1.1" id="Layer_1" xmlns="http://www.w3.org/2000/svg" xmlns:xlink="http://www.w3.org/1999/xlink" x="0px" y="0px"
	 viewBox="0 0 288 288" style="enable-background:new 0 0 288 288;" xml:space="preserve">
<style type="text/css">
	.st0{fill:#FFFFFF;}
	.st1{fill:#E9F0FF;}
	.st2{fill:none;stroke:#6EA2FF;stroke-miterlimit:10;}
	.st3{fill:#6EA2FF;}
</style>
<g>
	<rect x="-0.1" y="0.4" class="st0" width="288" height="288"/>
	
		<rect x="138.1" y="93.4" transform="matrix(-1.836970e-16 1 -1 -1.836970e-16 365.3381 77.5395)" class="st1" width="11.5" height="256"/>
	<line class="st2" x1="143.9" y1="215.7" x2="143.9" y2="73.1"/>
	<rect x="260.4" y="61.6" class="st1" width="11.5" height="165.6"/>
	<g>
		<rect x="260.4" y="138.6" class="st3" width="5.8" height="5.8"/>
		<rect x="266.1" y="144.4" class="st3" width="5.8" height="5.8"/>
	</g>
	<rect x="15.9" y="61.6" class="st1" width="11.5" height="165.6"/>
	<g>
		<rect x="15.9" y="138.6" class="st3" width="5.8" height="5.8"/>
		<rect x="21.7" y="144.4" class="st3" width="5.8" height="5.8"/>
	</g>
	
		<rect x="138.1" y="-60.7" transform="matrix(-1.836970e-16 1 -1 -1.836970e-16 211.2102 -76.5884)" class="st1" width="11.5" height="256"/>
	<g>
		
			<rect x="138.1" y="61.6" transform="matrix(-1.836970e-16 1 -1 -1.836970e-16 205.4506 -76.5884)" class="st3" width="5.8" height="5.8"/>
		
			<rect x="143.9" y="67.3" transform="matrix(-1.836970e-16 1 -1 -1.836970e-16 216.9698 -76.5884)" class="st3" width="5.8" height="5.8"/>
	</g>
	<g>
		
			<rect x="138.1" y="215.7" transform="matrix(-1.836970e-16 1 -1 -1.836970e-16 359.5785 77.5395)" class="st3" width="5.8" height="5.8"/>
		
			<rect x="143.9" y="221.4" transform="matrix(-1.836970e-16 1 -1 -1.836970e-16 371.0977 77.5395)" class="st3" width="5.8" height="5.8"/>
	</g>
	<line class="st2" x1="15.9" y1="73.1" x2="271.9" y2="73.1"/>
	<line class="st2" x1="15.9" y1="215.7" x2="271.9" y2="215.7"/>
	<line class="st2" x1="260.4" y1="61.6" x2="260.4" y2="227.2"/>
	<line class="st2" x1="27.4" y1="61.6" x2="27.4" y2="227.2"/>
	<rect x="15.9" y="61.6" class="st2" width="256" height="165.6"/>
	<line class="st2" x1="85.7" y1="227.2" x2="85.7" y2="61.6"/>
	<line class="st2" x1="56.5" y1="227.2" x2="56.5" y2="61.6"/>
	<line class="st2" x1="114.8" y1="227.2" x2="114.8" y2="61.6"/>
	<line class="st2" x1="202.1" y1="227.2" x2="202.1" y2="61.6"/>
	<line class="st2" x1="173" y1="227.2" x2="173" y2="61.6"/>
	<line class="st2" x1="231.3" y1="227.2" x2="231.3" y2="61.6"/>
</g>
</svg>
