<?xml version="1.0" encoding="utf-8"?>
<!-- Generator: Adobe Illustrator 22.1.0, SVG Export Plug-In . SVG Version: 6.00 Build 0)  -->
<svg version="1.1" id="Layer_1" xmlns="http://www.w3.org/2000/svg" xmlns:xlink="http://www.w3.org/1999/xlink" x="0px" y="0px"
	 viewBox="0 0 928 522" style="enable-background:new 0 0 928 522;" xml:space="preserve">
<style type="text/css">
	.st0{fill:#FFFFFF;}
	.st1{fill:none;stroke:#A0A0A0;stroke-linecap:round;stroke-miterlimit:10;}
	.st2{fill:none;stroke:#A0A0A0;stroke-linecap:round;stroke-miterlimit:10;stroke-dasharray:0,7.9594;}
	.st3{fill:none;stroke:#A0A0A0;stroke-linecap:round;stroke-miterlimit:10;stroke-dasharray:0,7.9608;}
	.st4{fill:#6EA2FF;}
	.st5{fill:none;stroke:#565656;stroke-miterlimit:10;}
	.st6{fill:#565656;}
	.st7{fill:#3D3D3D;}
</style>
<rect class="st0" width="928" height="522"/>
<g>
	<g>
		<g>
			<line class="st1" x1="842.2" y1="419.9" x2="842.2" y2="419.9"/>
			<line class="st2" x1="834.3" y1="419.9" x2="121.9" y2="419.9"/>
			<line class="st1" x1="117.9" y1="419.9" x2="117.9" y2="419.9"/>
		</g>
	</g>
	<g>
		<g>
			<line class="st1" x1="684" y1="64" x2="684" y2="64"/>
			<line class="st3" x1="677.3" y1="68.2" x2="121.3" y2="417.8"/>
			<line class="st1" x1="117.9" y1="419.9" x2="117.9" y2="419.9"/>
		</g>
	</g>
	<polygon class="st4" points="163.2,419.9 153.3,413.6 153.3,397.7 163.2,404 	"/>
	<polygon class="st4" points="208.5,419.9 188.7,407.3 188.7,375.5 208.5,388 	"/>
	<polygon class="st4" points="299,419.9 259.5,394.7 259.5,331 299,356.2 	"/>
	<polygon class="st4" points="480.1,419.9 401,369.6 401,242 480.1,292.4 	"/>
	<polygon class="st4" points="842.2,419.9 684,319.2 684,64 842.2,164.8 	"/>
	<polygon class="st4" points="842.2,419.9 763.1,369.6 763.1,114.4 842.2,164.8 	"/>
	<polygon class="st4" points="480.1,419.9 440.5,394.7 440.5,267.2 480.1,292.4 	"/>
	<polygon class="st4" points="299,419.9 279.2,407.3 279.2,343.6 299,356.2 	"/>
	<polygon class="st4" points="208.5,419.9 198.6,413.6 198.6,381.7 208.5,388 	"/>
	<polygon class="st4" points="163.2,419.9 158.2,416.8 158.2,400.8 163.2,404 	"/>
	<line class="st5" x1="117.9" y1="419.9" x2="762.8" y2="242"/>
	<polygon class="st4" points="158.2,416.8 158.2,400.8 163.2,404 163.2,419.9 	"/>
	<polygon class="st4" points="198.6,413.6 198.6,381.7 208.5,388 208.5,419.9 	"/>
	<polygon class="st4" points="279.2,407.3 279.2,343.6 299,356.2 299,419.9 	"/>
	<polygon class="st4" points="440.5,394.7 440.5,267.2 480.1,292.4 480.1,419.9 	"/>
	<polygon class="st4" points="763.1,369.6 763.1,114.4 842.2,164.8 842.2,419.9 	"/>
</g>
<path class="st6" d="M96.9,428.8c-1.7,0-3-1.3-3-3c0-1.7,1.3-3,3-3c1.7,0,3,1.3,3,3c0,0.8-0.3,1.6-0.9,2.1
	C98.4,428.4,97.7,428.8,96.9,428.8z M96.9,421.3c-2.5,0-4.5,2-4.5,4.5c0,2.5,2,4.5,4.5,4.5s4.5-2,4.5-4.5
	C101.4,423.3,99.3,421.3,96.9,421.3z M96.9,432.5c-4,0-8.2-2.9-9.7-6.8c1.5-3.8,5.7-6.8,9.7-6.8s8.2,2.9,9.7,6.8
	C105,429.6,100.8,432.5,96.9,432.5z M108.1,425.5c-1.8-4.7-6.2-7.8-11.2-8c-5,0.2-9.4,3.3-11.2,8c-0.1,0.2-0.1,0.3,0,0.5
	c1.8,4.7,6.2,7.8,11.2,8c5-0.2,9.4-3.3,11.2-8C108.1,425.8,108.1,425.7,108.1,425.5z"/>
<g>
	<g>
		<path class="st7" d="M150.6,458h-5.5v-1l2.7-2.5c0.8-0.7,1.4-1.6,1.4-2.4v-0.1c0-0.9-0.5-1.6-1.5-1.6c-1,0-1.5,0.6-1.7,1.4
			l-0.9-0.3c0.3-1,1.1-2,2.7-2c1.6,0,2.6,1,2.6,2.4c0,1.3-0.8,2.2-1.8,3.2l-2.3,2h4.4V458z"/>
		<path class="st7" d="M152.4,458v-6.2h1v1h0c0.3-0.6,0.7-1.2,1.7-1.2c0.8,0,1.6,0.4,1.9,1.3h0c0.2-0.7,0.8-1.3,1.9-1.3
			c1.3,0,2,0.9,2,2.4v4h-1v-3.8c0-1.1-0.4-1.7-1.4-1.7c-0.8,0-1.5,0.4-1.5,1.2v4.3h-1v-3.8c0-1.1-0.4-1.7-1.3-1.7
			c-0.8,0-1.5,0.4-1.5,1.2v4.3H152.4z"/>
		<path class="st7" d="M162.9,458v-6.2h1v1h0c0.3-0.6,0.7-1.2,1.7-1.2c0.8,0,1.6,0.4,1.9,1.3h0c0.2-0.7,0.8-1.3,1.9-1.3
			c1.3,0,2,0.9,2,2.4v4h-1v-3.8c0-1.1-0.4-1.7-1.4-1.7c-0.8,0-1.5,0.4-1.5,1.2v4.3h-1v-3.8c0-1.1-0.4-1.7-1.3-1.7
			c-0.8,0-1.5,0.4-1.5,1.2v4.3H162.9z"/>
	</g>
	<g>
		<path class="st7" d="M189,458v-1.6h-4v-0.9l3.5-5.8h1.5v5.9h1.2v0.8H190v1.6H189z M185.9,455.5h3.1v-5.1h-0.1L185.9,455.5z"/>
		<path class="st7" d="M192.7,458v-6.2h1v1h0c0.3-0.6,0.7-1.2,1.7-1.2c0.8,0,1.6,0.4,1.9,1.3h0c0.2-0.7,0.8-1.3,1.9-1.3
			c1.3,0,2,0.9,2,2.4v4h-1v-3.8c0-1.1-0.4-1.7-1.4-1.7c-0.8,0-1.5,0.4-1.5,1.2v4.3h-1v-3.8c0-1.1-0.4-1.7-1.3-1.7
			c-0.8,0-1.5,0.4-1.5,1.2v4.3H192.7z"/>
		<path class="st7" d="M203.2,458v-6.2h1v1h0c0.3-0.6,0.7-1.2,1.7-1.2c0.8,0,1.6,0.4,1.9,1.3h0c0.2-0.7,0.8-1.3,1.9-1.3
			c1.3,0,2,0.9,2,2.4v4h-1v-3.8c0-1.1-0.4-1.7-1.4-1.7c-0.8,0-1.5,0.4-1.5,1.2v4.3h-1v-3.8c0-1.1-0.4-1.7-1.3-1.7
			c-0.8,0-1.5,0.4-1.5,1.2v4.3H203.2z"/>
	</g>
	<g>
		<path class="st7" d="M265.8,455.7c0-1.1,0.7-1.8,1.7-2.1v-0.1c-0.9-0.3-1.4-1-1.4-2c0-1.3,1-2.1,2.7-2.1s2.7,0.8,2.7,2.1
			c0,1-0.6,1.7-1.4,2v0.1c1,0.3,1.7,0.9,1.7,2.1c0,1.4-1,2.4-2.9,2.4C266.8,458.1,265.8,457.1,265.8,455.7z M270.6,455.8v-0.3
			c0-0.9-0.7-1.5-1.8-1.5c-1.2,0-1.8,0.6-1.8,1.5v0.3c0,0.9,0.7,1.5,1.8,1.5C269.9,457.3,270.6,456.7,270.6,455.8z M270.4,451.9
			v-0.2c0-0.9-0.6-1.3-1.6-1.3s-1.6,0.5-1.6,1.3v0.2c0,0.9,0.6,1.3,1.6,1.3S270.4,452.7,270.4,451.9z"/>
		<path class="st7" d="M273.4,458v-6.2h1v1h0c0.3-0.6,0.7-1.2,1.7-1.2c0.8,0,1.6,0.4,1.9,1.3h0c0.2-0.7,0.8-1.3,1.9-1.3
			c1.3,0,2,0.9,2,2.4v4h-1v-3.8c0-1.1-0.4-1.7-1.4-1.7c-0.8,0-1.5,0.4-1.5,1.2v4.3h-1v-3.8c0-1.1-0.4-1.7-1.3-1.7
			c-0.8,0-1.5,0.4-1.5,1.2v4.3H273.4z"/>
		<path class="st7" d="M283.8,458v-6.2h1v1h0c0.3-0.6,0.7-1.2,1.7-1.2c0.8,0,1.6,0.4,1.9,1.3h0c0.2-0.7,0.8-1.3,1.9-1.3
			c1.3,0,2,0.9,2,2.4v4h-1v-3.8c0-1.1-0.4-1.7-1.4-1.7c-0.8,0-1.5,0.4-1.5,1.2v4.3h-1v-3.8c0-1.1-0.4-1.7-1.3-1.7
			c-0.8,0-1.5,0.4-1.5,1.2v4.3H283.8z"/>
	</g>
	<g>
		<path class="st7" d="M423.9,458v-0.9h2.3v-6.7h-0.1l-2.1,2l-0.6-0.6l2.2-2.1h1.6v7.5h2.2v0.9H423.9z"/>
		<path class="st7" d="M430.9,454.9c0-2.5,1.6-4.4,3-5.3h1.3c-1.8,1.3-2.8,2.4-3.2,4.3l0.1,0c0.4-0.7,1-1.2,2-1.2
			c1.4,0,2.5,1,2.5,2.6c0,1.6-1.1,2.8-2.8,2.8C431.9,458.1,430.9,456.9,430.9,454.9z M435.4,455.5L435.4,455.5
			c0-1.2-0.6-1.9-1.8-1.9c-1.1,0-1.8,0.6-1.8,1.8v0.1c0,1.1,0.6,1.8,1.8,1.8C434.8,457.3,435.4,456.6,435.4,455.5z"/>
		<path class="st7" d="M438.3,458v-6.2h1v1h0c0.3-0.6,0.7-1.2,1.7-1.2c0.8,0,1.6,0.4,1.9,1.3h0c0.2-0.7,0.8-1.3,1.9-1.3
			c1.3,0,2,0.9,2,2.4v4h-1v-3.8c0-1.1-0.4-1.7-1.4-1.7c-0.8,0-1.5,0.4-1.5,1.2v4.3h-1v-3.8c0-1.1-0.4-1.7-1.3-1.7
			c-0.8,0-1.5,0.4-1.5,1.2v4.3H438.3z"/>
		<path class="st7" d="M448.7,458v-6.2h1v1h0c0.3-0.6,0.7-1.2,1.7-1.2c0.8,0,1.6,0.4,1.9,1.3h0c0.2-0.7,0.8-1.3,1.9-1.3
			c1.3,0,2,0.9,2,2.4v4h-1v-3.8c0-1.1-0.4-1.7-1.4-1.7c-0.8,0-1.5,0.4-1.5,1.2v4.3h-1v-3.8c0-1.1-0.4-1.7-1.3-1.7
			c-0.8,0-1.5,0.4-1.5,1.2v4.3H448.7z"/>
	</g>
	<g>
		<path class="st7" d="M748.6,453.2c1.1,0,1.7-0.6,1.7-1.4v-0.1c0-0.9-0.6-1.3-1.5-1.3c-0.9,0-1.4,0.4-1.7,1l-0.7-0.6
			c0.4-0.7,1.2-1.4,2.5-1.4c1.4,0,2.5,0.8,2.5,2.1c0,1.1-0.7,1.7-1.6,2v0c0.9,0.2,1.8,0.9,1.8,2.1c0,1.4-1.1,2.4-2.8,2.4
			c-1.5,0-2.2-0.7-2.7-1.4l0.8-0.6c0.4,0.7,0.9,1.1,1.9,1.1c1.2,0,1.8-0.6,1.8-1.5v-0.1c0-1-0.6-1.5-1.8-1.5h-1v-0.9H748.6z"/>
		<path class="st7" d="M759,458h-5.5v-1l2.7-2.5c0.8-0.7,1.4-1.6,1.4-2.4v-0.1c0-0.9-0.5-1.6-1.5-1.6c-1,0-1.5,0.6-1.7,1.4l-0.9-0.3
			c0.3-1,1.1-2,2.7-2c1.6,0,2.6,1,2.6,2.4c0,1.3-0.8,2.2-1.8,3.2l-2.3,2h4.4V458z"/>
		<path class="st7" d="M760.9,458v-6.2h1v1h0c0.3-0.6,0.7-1.2,1.7-1.2c0.8,0,1.6,0.4,1.9,1.3h0c0.2-0.7,0.8-1.3,1.9-1.3
			c1.3,0,2,0.9,2,2.4v4h-1v-3.8c0-1.1-0.4-1.7-1.4-1.7c-0.8,0-1.5,0.4-1.5,1.2v4.3h-1v-3.8c0-1.1-0.4-1.7-1.3-1.7
			c-0.8,0-1.5,0.4-1.5,1.2v4.3H760.9z"/>
		<path class="st7" d="M771.3,458v-6.2h1v1h0c0.3-0.6,0.7-1.2,1.7-1.2c0.8,0,1.6,0.4,1.9,1.3h0c0.2-0.7,0.8-1.3,1.9-1.3
			c1.3,0,2,0.9,2,2.4v4h-1v-3.8c0-1.1-0.4-1.7-1.4-1.7c-0.8,0-1.5,0.4-1.5,1.2v4.3h-1v-3.8c0-1.1-0.4-1.7-1.3-1.7
			c-0.8,0-1.5,0.4-1.5,1.2v4.3H771.3z"/>
	</g>
</g>
</svg>
