<?xml version="1.0" encoding="utf-8"?>
<!-- Generator: Adobe Illustrator 22.1.0, SVG Export Plug-In . SVG Version: 6.00 Build 0)  -->
<svg version="1.1" id="Layer_1" xmlns="http://www.w3.org/2000/svg" xmlns:xlink="http://www.w3.org/1999/xlink" x="0px" y="0px"
	 viewBox="0 0 288 288" style="enable-background:new 0 0 288 288;" xml:space="preserve">
<style type="text/css">
	.st0{fill:#FFFFFF;}
	.st1{fill:none;stroke:#BEBEBE;stroke-miterlimit:10;}
	.st2{fill:#E9F0FF;}
	.st3{fill:#6EA2FF;}
	.st4{fill:none;stroke:#6EA2FF;stroke-miterlimit:10;}
</style>
<g>
	<rect x="0.2" y="-0.2" class="st0" width="288" height="288"/>
	<g>
		<polygon class="st1" points="206.4,193.1 206.4,131.4 197.9,131.4 197.9,193.1 193.4,195.9 193.4,199.5 197.3,199.5 207,199.5 
			211,199.5 211,195.9 		"/>
		<g>
			<line class="st1" x1="138.2" y1="134.1" x2="266.2" y2="134.1"/>
			<line class="st1" x1="193.6" y1="131.4" x2="193.6" y2="134.1"/>
			<line class="st1" x1="202.2" y1="131.4" x2="202.2" y2="134.1"/>
			<line class="st1" x1="210.7" y1="131.4" x2="210.7" y2="134.1"/>
			<line class="st1" x1="219.3" y1="131.4" x2="219.3" y2="134.1"/>
			<line class="st1" x1="227.9" y1="131.4" x2="227.9" y2="134.1"/>
			<line class="st1" x1="236.5" y1="131.4" x2="236.5" y2="134.1"/>
			<line class="st1" x1="245" y1="131.4" x2="245" y2="134.1"/>
			<line class="st1" x1="253.6" y1="131.4" x2="253.6" y2="134.1"/>
			<line class="st1" x1="262.2" y1="131.4" x2="262.2" y2="134.1"/>
			<rect x="138.2" y="94" class="st0" width="128" height="37.3"/>
			<rect x="263.9" y="94" class="st2" width="2.2" height="37.3"/>
			<rect x="199.9" y="94" class="st2" width="4.5" height="37.3"/>
			<rect x="138.2" y="94" class="st2" width="128" height="2.2"/>
			<rect x="138.2" y="129.1" class="st2" width="128" height="2.2"/>
			<g>
				<rect x="263.9" y="111.6" class="st3" width="2.2" height="2.2"/>
			</g>
			<g>
				<rect x="201" y="94" class="st3" width="2.2" height="2.2"/>
			</g>
			<g>
				<g>
					<rect x="199.9" y="110.5" class="st3" width="2.2" height="2.2"/>
				</g>
				<g>
					<rect x="202.2" y="112.7" class="st3" width="2.2" height="2.2"/>
				</g>
			</g>
			<rect x="230.8" y="94" class="st2" width="4.5" height="37.3"/>
			<g>
				<g>
					<rect x="230.8" y="110.5" class="st3" width="2.2" height="2.2"/>
				</g>
				<g>
					<rect x="233" y="112.7" class="st3" width="2.2" height="2.2"/>
				</g>
			</g>
			<rect x="169" y="94" class="st2" width="4.5" height="37.3"/>
			<g>
				<g>
					<rect x="169" y="110.5" class="st3" width="2.2" height="2.2"/>
				</g>
				<g>
					<rect x="171.3" y="112.7" class="st3" width="2.2" height="2.2"/>
				</g>
			</g>
			<g>
				<rect x="201" y="129.1" class="st3" width="2.2" height="2.2"/>
			</g>
			<rect x="138.2" y="94" class="st4" width="128" height="37.3"/>
			<line class="st4" x1="202.2" y1="110" x2="202.2" y2="94"/>
			<line class="st4" x1="233" y1="110" x2="233" y2="94"/>
			<line class="st4" x1="171.3" y1="110" x2="171.3" y2="94.5"/>
			<line class="st4" x1="202.2" y1="131.4" x2="202.2" y2="115.4"/>
			<line class="st4" x1="233" y1="131.4" x2="233" y2="115.4"/>
			<line class="st4" x1="171.3" y1="131.4" x2="171.3" y2="115.9"/>
			<line class="st4" x1="263.9" y1="131.4" x2="263.9" y2="94"/>
			<line class="st4" x1="138.2" y1="96.3" x2="266.2" y2="96.3"/>
			<line class="st4" x1="138.2" y1="129.1" x2="266.2" y2="129.1"/>
		</g>
		<rect x="101.5" y="15.8" class="st0" width="85.3" height="256"/>
		<rect x="101.5" y="15.8" class="st2" width="85.3" height="6.7"/>
		<rect x="101.5" y="265.1" class="st2" width="85.3" height="6.7"/>
		<rect x="101.5" y="140.5" class="st2" width="85.3" height="6.7"/>
		<rect x="140.8" y="15.8" class="st2" width="6.7" height="256"/>
		<rect x="101.5" y="15.8" class="st2" width="6.7" height="256"/>
		<rect x="180.2" y="15.9" class="st2" width="6.7" height="256"/>
		<g>
			<g>
				<rect x="101.5" y="141.6" class="st3" width="2.2" height="2.2"/>
				<rect x="103.8" y="143.8" class="st3" width="2.2" height="2.2"/>
			</g>
			<g>
				<rect x="106" y="141.6" class="st3" width="2.2" height="2.2"/>
			</g>
		</g>
		<g>
			<g>
				<rect x="184.7" y="141.6" class="st3" width="2.2" height="2.2"/>
				<rect x="182.4" y="143.9" class="st3" width="2.2" height="2.2"/>
			</g>
			<g>
				<rect x="180.2" y="141.6" class="st3" width="2.2" height="2.2"/>
			</g>
		</g>
		<line class="st4" x1="101.5" y1="22.6" x2="186.9" y2="22.6"/>
		<line class="st4" x1="101.5" y1="265.1" x2="186.9" y2="265.1"/>
		<rect x="101.5" y="171.6" class="st2" width="85.3" height="6.7"/>
		<rect x="101.5" y="109.3" class="st2" width="85.3" height="6.7"/>
		<rect x="101.5" y="78.2" class="st2" width="85.3" height="6.7"/>
		<rect x="101.5" y="47" class="st2" width="85.3" height="6.7"/>
		<g>
			<g>
				<rect x="142" y="15.8" class="st3" width="2.2" height="2.2"/>
				<rect x="144.2" y="18.1" class="st3" width="2.2" height="2.2"/>
			</g>
			<g>
				<rect x="142" y="20.3" class="st3" width="2.2" height="2.2"/>
			</g>
		</g>
		<rect x="101.5" y="202.8" class="st2" width="85.3" height="6.7"/>
		<rect x="101.5" y="234" class="st2" width="85.3" height="6.7"/>
		<line class="st4" x1="101.5" y1="81.5" x2="186.9" y2="81.5"/>
		<line class="st4" x1="101.5" y1="206.2" x2="186.9" y2="206.2"/>
		<line class="st4" x1="101.5" y1="237.3" x2="186.9" y2="237.3"/>
		<line class="st4" x1="101.5" y1="175" x2="186.9" y2="175"/>
		<line class="st4" x1="101.5" y1="112.7" x2="186.9" y2="112.7"/>
		<line class="st4" x1="108.2" y1="143.8" x2="180.1" y2="143.8"/>
		<line class="st4" x1="101.5" y1="50.4" x2="186.9" y2="50.4"/>
		<rect x="101.5" y="15.8" class="st4" width="85.3" height="256"/>
		<line class="st4" x1="144.2" y1="265.1" x2="144.2" y2="22.6"/>
		<line class="st4" x1="108.2" y1="271.8" x2="108.2" y2="15.8"/>
		<line class="st4" x1="180.1" y1="271.8" x2="180.1" y2="15.8"/>
		<g>
			<rect x="140.8" y="46.5" class="st2" width="6.7" height="7.8"/>
			<g>
				<g>
					<rect x="142" y="47" class="st3" width="2.2" height="2.2"/>
					<rect x="144.2" y="49.2" class="st3" width="2.2" height="2.2"/>
				</g>
				<g>
					<rect x="142" y="51.5" class="st3" width="2.2" height="2.2"/>
				</g>
			</g>
		</g>
		<g>
			<rect x="140.8" y="77.6" class="st2" width="6.7" height="7.8"/>
			<g>
				<g>
					<rect x="142" y="78.2" class="st3" width="2.2" height="2.2"/>
					<rect x="144.2" y="80.4" class="st3" width="2.2" height="2.2"/>
				</g>
				<g>
					<rect x="142" y="82.6" class="st3" width="2.2" height="2.2"/>
				</g>
			</g>
		</g>
		<g>
			<rect x="140.8" y="108.8" class="st2" width="6.7" height="7.8"/>
			<g>
				<g>
					<rect x="142" y="109.4" class="st3" width="2.2" height="2.2"/>
					<rect x="144.2" y="111.6" class="st3" width="2.2" height="2.2"/>
				</g>
				<g>
					<rect x="142" y="113.8" class="st3" width="2.2" height="2.2"/>
				</g>
			</g>
		</g>
		<g>
			<rect x="140.8" y="171.1" class="st2" width="6.7" height="7.8"/>
			<g>
				<g>
					<rect x="142" y="171.6" class="st3" width="2.2" height="2.2"/>
					<rect x="144.2" y="173.8" class="st3" width="2.2" height="2.2"/>
				</g>
				<g>
					<rect x="142" y="176.1" class="st3" width="2.2" height="2.2"/>
				</g>
			</g>
		</g>
		<g>
			<rect x="140.8" y="202.3" class="st2" width="6.7" height="7.8"/>
			<g>
				<g>
					<rect x="142" y="202.8" class="st3" width="2.2" height="2.2"/>
					<rect x="144.2" y="205" class="st3" width="2.2" height="2.2"/>
				</g>
				<g>
					<rect x="142" y="207.3" class="st3" width="2.2" height="2.2"/>
				</g>
			</g>
		</g>
		<g>
			<rect x="140.8" y="233.4" class="st2" width="6.7" height="7.8"/>
			<g>
				<g>
					<rect x="142" y="234" class="st3" width="2.2" height="2.2"/>
					<rect x="144.2" y="236.2" class="st3" width="2.2" height="2.2"/>
				</g>
				<g>
					<rect x="142" y="238.4" class="st3" width="2.2" height="2.2"/>
				</g>
			</g>
		</g>
		<g>
			<g>
				<g>
					<rect x="142" y="265.1" class="st3" width="2.2" height="2.2"/>
					<rect x="144.2" y="267.4" class="st3" width="2.2" height="2.2"/>
				</g>
				<g>
					<rect x="142" y="269.6" class="st3" width="2.2" height="2.2"/>
				</g>
			</g>
		</g>
		<g>
			<rect x="140.2" y="140.4" class="st2" width="7.8" height="6.7"/>
			<g>
				<g>
					<rect x="145.3" y="141.6" class="st3" width="2.2" height="2.2"/>
					<rect x="143.1" y="143.9" class="st3" width="2.2" height="2.2"/>
				</g>
				<g>
					<rect x="140.9" y="141.6" class="st3" width="2.2" height="2.2"/>
				</g>
			</g>
		</g>
		<g>
			<rect x="22.2" y="127.1" class="st0" width="99.5" height="64.4"/>
			<rect x="22.2" y="187" class="st2" width="99.5" height="4.5"/>
			<line class="st4" x1="72" y1="187" x2="72" y2="131.6"/>
			<rect x="117.3" y="127.1" class="st2" width="4.5" height="64.4"/>
			<g>
				<rect x="117.3" y="157" class="st3" width="2.2" height="2.2"/>
				<rect x="119.5" y="159.3" class="st3" width="2.2" height="2.2"/>
			</g>
			<rect x="22.2" y="127.1" class="st2" width="4.5" height="64.4"/>
			<g>
				<rect x="22.2" y="157" class="st3" width="2.2" height="2.2"/>
				<rect x="24.5" y="159.3" class="st3" width="2.2" height="2.2"/>
			</g>
			<rect x="22.2" y="127" class="st2" width="99.5" height="4.5"/>
			<g>
				<rect x="69.8" y="127" class="st3" width="2.2" height="2.2"/>
				<rect x="72" y="129.3" class="st3" width="2.2" height="2.2"/>
			</g>
			<g>
				<rect x="69.8" y="187" class="st3" width="2.2" height="2.2"/>
				<rect x="72.1" y="189.3" class="st3" width="2.2" height="2.2"/>
			</g>
			<line class="st4" x1="22.2" y1="131.6" x2="121.7" y2="131.6"/>
			<line class="st4" x1="22.2" y1="187" x2="121.7" y2="187"/>
			<line class="st4" x1="117.3" y1="127.1" x2="117.3" y2="191.5"/>
			<line class="st4" x1="26.7" y1="127.1" x2="26.7" y2="191.5"/>
			<rect x="22.2" y="127.1" class="st4" width="99.5" height="64.4"/>
			<line class="st4" x1="49.3" y1="191.5" x2="49.3" y2="127.1"/>
			<line class="st4" x1="38" y1="191.5" x2="38" y2="127.1"/>
			<line class="st4" x1="60.7" y1="191.5" x2="60.7" y2="127.1"/>
			<line class="st4" x1="94.6" y1="191.5" x2="94.6" y2="127.1"/>
			<line class="st4" x1="83.3" y1="191.5" x2="83.3" y2="127.1"/>
			<line class="st4" x1="105.9" y1="191.5" x2="105.9" y2="127.1"/>
		</g>
	</g>
</g>
</svg>
