<?xml version="1.0" encoding="utf-8"?>
<!-- Generator: Adobe Illustrator 20.0.0, SVG Export Plug-In . SVG Version: 6.00 Build 0)  -->
<svg version="1.1" id="Layer_1" xmlns="http://www.w3.org/2000/svg" xmlns:xlink="http://www.w3.org/1999/xlink" x="0px" y="0px"
	 width="1139.1px" height="1139.1px" viewBox="0 0 1139.1 1139.1" style="enable-background:new 0 0 1139.1 1139.1;"
	 xml:space="preserve">
<style type="text/css">
	.st0{fill:#FFFFFF;}
	.st1{fill:#E6D6FF;}
	.st2{fill:#252525;}
	.st3{fill:#171717;}
	.st4{fill:none;stroke:#A4A4A4;stroke-linecap:square;}
</style>
<title>mono-vs-sans</title>
<desc>Created with Sketch.</desc>
<g id="Page-1">
	<g id="Grid-Copy" transform="translate(-221.000000, -564.000000)">
		<g id="mono-vs-sans" transform="translate(221.000000, 564.000000)">
			<polygon id="Fill-3" class="st0" points="0,1139.1 1139.1,1139.1 1139.1,0 0,0 			"/>
			<g id="Group-30" transform="translate(60.000000, 79.000000)">
				<g id="Group-28" transform="translate(1.610932, 0.868633)">
					<g id="Group-9">
						<polygon id="Fill-1" class="st1" points="13.8,377.6 211.1,377.6 211.1,18 13.8,18 						"/>
						<polygon id="Fill-2" class="st1" points="212.1,377.6 409.3,377.6 409.3,18 212.1,18 						"/>
						<polygon id="Fill-3_1_" class="st1" points="410.4,377.6 606.5,377.6 606.5,18 410.4,18 						"/>
						<polygon id="Fill-4" class="st1" points="607.6,377.6 806,377.6 806,18 607.6,18 						"/>
						<polygon id="Fill-4-Copy" class="st1" points="805.9,377.6 1003.1,377.6 1003.1,18 805.9,18 						"/>
						<g id="Group" transform="translate(8.221865, 302.758713)">
							<path id="_x36_00" class="st2" d="M20.9,103.8c-2.5,0-4-1.7-4-4.6c0-3.5,2.3-6.3,4.3-7.6H23c-2.6,1.9-4,3.4-4.6,6.2l0.1,0
								c0.6-1,1.4-1.7,2.9-1.7c2.1,0,3.5,1.4,3.5,3.7C24.8,102.2,23.3,103.8,20.9,103.8z M20.8,102.6c1.6,0,2.5-0.9,2.5-2.5v-0.1
								c0-1.6-0.9-2.5-2.5-2.5s-2.5,0.9-2.5,2.5v0.1C18.3,101.7,19.3,102.6,20.8,102.6z M31.1,103.8c-2.9,0-4.1-2.3-4.1-6.2
								s1.3-6.2,4.1-6.2s4.1,2.3,4.1,6.2S34,103.8,31.1,103.8z M31.1,102.6c1.9,0,2.6-1.6,2.6-4v-2c0-2.3-0.7-4-2.6-4
								c-1.9,0-2.6,1.6-2.6,4v2C28.5,100.9,29.3,102.6,31.1,102.6z M41.4,103.8c-2.9,0-4.1-2.3-4.1-6.2s1.3-6.2,4.1-6.2
								s4.1,2.3,4.1,6.2S44.3,103.8,41.4,103.8z M41.4,102.6c1.9,0,2.6-1.6,2.6-4v-2c0-2.3-0.7-4-2.6-4s-2.6,1.6-2.6,4v2
								C38.8,100.9,39.5,102.6,41.4,102.6z"/>
							<path id="_x36_00_1_" class="st2" d="M219.3,103.8c-2.5,0-4-1.7-4-4.6c0-3.5,2.3-6.3,4.3-7.6h1.9c-2.6,1.9-4,3.4-4.6,6.2
								l0.1,0c0.6-1,1.4-1.7,2.9-1.7c2.1,0,3.5,1.4,3.5,3.7C223.3,102.2,221.7,103.8,219.3,103.8z M219.3,102.6
								c1.6,0,2.5-0.9,2.5-2.5v-0.1c0-1.6-0.9-2.5-2.5-2.5c-1.6,0-2.5,0.9-2.5,2.5v0.1C216.8,101.7,217.7,102.6,219.3,102.6z
								 M229.5,103.8c-2.9,0-4.1-2.3-4.1-6.2s1.3-6.2,4.1-6.2c2.9,0,4.1,2.3,4.1,6.2S232.4,103.8,229.5,103.8z M229.5,102.6
								c1.9,0,2.6-1.6,2.6-4v-2c0-2.3-0.7-4-2.6-4s-2.6,1.6-2.6,4v2C226.9,100.9,227.7,102.6,229.5,102.6z M239.8,103.8
								c-2.9,0-4.1-2.3-4.1-6.2s1.3-6.2,4.1-6.2c2.9,0,4.1,2.3,4.1,6.2S242.7,103.8,239.8,103.8z M239.8,102.6c1.9,0,2.6-1.6,2.6-4
								v-2c0-2.3-0.7-4-2.6-4s-2.6,1.6-2.6,4v2C237.2,100.9,238,102.6,239.8,102.6z"/>
							<path id="_x36_00_2_" class="st2" d="M417.7,103.8c-2.5,0-4-1.7-4-4.6c0-3.5,2.3-6.3,4.3-7.6h1.9c-2.6,1.9-4,3.4-4.6,6.2
								l0.1,0c0.6-1,1.4-1.7,2.9-1.7c2.1,0,3.5,1.4,3.5,3.7C421.7,102.2,420.1,103.8,417.7,103.8z M417.7,102.6
								c1.6,0,2.5-0.9,2.5-2.5v-0.1c0-1.6-0.9-2.5-2.5-2.5s-2.5,0.9-2.5,2.5v0.1C415.2,101.7,416.1,102.6,417.7,102.6z M428,103.8
								c-2.9,0-4.1-2.3-4.1-6.2s1.3-6.2,4.1-6.2c2.9,0,4.1,2.3,4.1,6.2S430.8,103.8,428,103.8z M428,102.6c1.9,0,2.6-1.6,2.6-4v-2
								c0-2.3-0.7-4-2.6-4c-1.9,0-2.6,1.6-2.6,4v2C425.4,100.9,426.1,102.6,428,102.6z M438.3,103.8c-2.9,0-4.1-2.3-4.1-6.2
								s1.3-6.2,4.1-6.2s4.1,2.3,4.1,6.2S441.1,103.8,438.3,103.8z M438.3,102.6c1.9,0,2.6-1.6,2.6-4v-2c0-2.3-0.7-4-2.6-4
								c-1.9,0-2.6,1.6-2.6,4v2C435.6,100.9,436.4,102.6,438.3,102.6z"/>
							<path id="_x36_00_3_" class="st2" d="M614.9,103.8c-2.5,0-4-1.7-4-4.6c0-3.5,2.3-6.3,4.3-7.6h1.9c-2.6,1.9-4,3.4-4.6,6.2
								l0.1,0c0.6-1,1.4-1.7,2.9-1.7c2.1,0,3.5,1.4,3.5,3.7C618.9,102.2,617.3,103.8,614.9,103.8z M614.9,102.6
								c1.6,0,2.5-0.9,2.5-2.5v-0.1c0-1.6-0.9-2.5-2.5-2.5c-1.6,0-2.5,0.9-2.5,2.5v0.1C612.4,101.7,613.3,102.6,614.9,102.6z
								 M625.2,103.8c-2.9,0-4.1-2.3-4.1-6.2s1.3-6.2,4.1-6.2c2.9,0,4.1,2.3,4.1,6.2S628,103.8,625.2,103.8z M625.2,102.6
								c1.9,0,2.6-1.6,2.6-4v-2c0-2.3-0.7-4-2.6-4c-1.9,0-2.6,1.6-2.6,4v2C622.5,100.9,623.3,102.6,625.2,102.6z M635.4,103.8
								c-2.9,0-4.1-2.3-4.1-6.2s1.3-6.2,4.1-6.2s4.1,2.3,4.1,6.2S638.3,103.8,635.4,103.8z M635.4,102.6c1.9,0,2.6-1.6,2.6-4v-2
								c0-2.3-0.7-4-2.6-4s-2.6,1.6-2.6,4v2C632.8,100.9,633.6,102.6,635.4,102.6z"/>
							<path id="_x36_00_4_" class="st2" d="M813.3,103.8c-2.5,0-4-1.7-4-4.6c0-3.5,2.3-6.3,4.3-7.6h1.9c-2.6,1.9-4,3.4-4.6,6.2
								l0.1,0c0.6-1,1.4-1.7,2.9-1.7c2.1,0,3.5,1.4,3.5,3.7C817.3,102.2,815.7,103.8,813.3,103.8z M813.3,102.6
								c1.6,0,2.5-0.9,2.5-2.5v-0.1c0-1.6-0.9-2.5-2.5-2.5c-1.6,0-2.5,0.9-2.5,2.5v0.1C810.8,101.7,811.7,102.6,813.3,102.6z
								 M823.6,103.8c-2.9,0-4.1-2.3-4.1-6.2s1.3-6.2,4.1-6.2c2.9,0,4.1,2.3,4.1,6.2S826.4,103.8,823.6,103.8z M823.6,102.6
								c1.9,0,2.6-1.6,2.6-4v-2c0-2.3-0.7-4-2.6-4s-2.6,1.6-2.6,4v2C821,100.9,821.7,102.6,823.6,102.6z M833.9,103.8
								c-2.9,0-4.1-2.3-4.1-6.2s1.3-6.2,4.1-6.2s4.1,2.3,4.1,6.2S836.7,103.8,833.9,103.8z M833.9,102.6c1.9,0,2.6-1.6,2.6-4v-2
								c0-2.3-0.7-4-2.6-4s-2.6,1.6-2.6,4v2C831.3,100.9,832,102.6,833.9,102.6z"/>
						</g>
					</g>
				</g>
				<path id="Fill-48-Copy" class="st3" d="M164.1,197.3v-37.1c0-45.5-14.4-75.1-50.6-75.1s-50.6,29.6-50.6,75.1v37.1
					c0,45.5,14.4,75.1,50.6,75.1S164.1,242.8,164.1,197.3 M100.5,307.2v-12c-46.3-6.2-66.6-48.4-66.6-116.4
					c0-74.1,24.2-117.4,79.6-117.4c55.5,0,79.6,43.2,79.6,117.4c0,67.9-20.6,110.2-66.6,116.4v28.3h49.3v22.1h-38.2
					C112.2,345.5,100.5,329.6,100.5,307.2"/>
				<path id="Fill-49-Copy" class="st3" d="M243.9,231.8V124.1H270v103.1c0,30.6,14,45.5,39.8,45.5c20.9,0,41.8-10.1,41.8-32.2
					V124.1h26.1v167.8h-26.1v-27.3h-1.3c-7.2,16.6-20.2,31.2-48,31.2C267,295.8,243.9,272.4,243.9,231.8"/>
				<path id="Fill-50-Copy" class="st3" d="M497.5,70.4v-5.2c0-9.4,5.5-16.6,20.6-16.6c15,0,20.6,7.2,20.6,16.6v5.2
					c0,9.4-5.5,16.6-20.6,16.6C503,87,497.5,79.8,497.5,70.4z M444.3,269.7H505V146.1h-60.7V124h86.8v145.6h56.8v22.1H444.3V269.7z"
					/>
				<polygon id="Fill-51-Copy" class="st3" points="635.8,269.2 694.6,269.2 694.6,72.8 635.8,72.8 635.8,50.7 720.7,50.7 
					720.7,269.2 779.5,269.2 779.5,291.3 635.8,291.3 				"/>
				<polygon id="Fill-51-Copy-2" class="st3" points="834.1,269.2 892.9,269.2 892.9,72.8 834.1,72.8 834.1,50.7 919,50.7 
					919,269.2 977.7,269.2 977.7,291.3 834.1,291.3 				"/>
				<path id="Line-2" class="st4" d="M213.2,19.5v388.3"/>
				<path id="Line-2-Copy-2" class="st4" d="M411.5,19.5v388.3"/>
				<path id="Line-2-Copy-3" class="st4" d="M608.7,19.5v388.3"/>
				<path id="Line-2-Copy-4" class="st4" d="M807.5,19.5v388.3"/>
				<path id="Line-2-Copy-11" class="st4" d="M1004.7,19.5v388.3"/>
				<path id="Line-2-Copy" class="st4" d="M15.1,19.5v388.3"/>
			</g>
			<g id="Group-31" transform="translate(59.000000, 504.000000)">
				<g id="Group-13">
					<polygon id="Fill-37-Copy" class="st1" points="14.3,473.6 259.4,473.6 259.4,113.3 14.3,113.3 					"/>
					<polygon id="Fill-39-Copy" class="st1" points="260.5,473.6 460.8,473.6 460.8,113.3 260.5,113.3 					"/>
					<polygon id="Fill-40-Copy" class="st1" points="461.9,473.6 554.6,473.6 554.6,113.3 461.9,113.3 					"/>
					<polygon id="Fill-41-Copy" class="st1" points="555.6,473.6 655.8,473.6 655.8,113.3 555.6,113.3 					"/>
					<polygon id="Fill-41-Copy-2" class="st1" points="656.9,473.6 757,473.6 757,113.3 656.9,113.3 					"/>
					<path id="_x37_08" class="st2" d="M28.8,502.8h-1.5l4.6-10.7h-5.1v2.2h-1.3v-3.5h7.9v1.3L28.8,502.8z M39.7,503
						c-2.9,0-4.1-2.3-4.1-6.2c0-3.9,1.3-6.2,4.1-6.2s4.1,2.3,4.1,6.2C43.8,500.7,42.6,503,39.7,503z M39.7,501.7
						c1.9,0,2.6-1.6,2.6-4v-2c0-2.3-0.7-4-2.6-4s-2.6,1.6-2.6,4v2C37.1,500.1,37.8,501.7,39.7,501.7z M50,503
						c-2.7,0-4.1-1.5-4.1-3.5c0-1.6,1-2.6,2.4-3v-0.1c-1.3-0.4-2.1-1.4-2.1-2.8c0-1.8,1.4-3,3.8-3c2.4,0,3.8,1.2,3.8,3
						c0,1.4-0.8,2.4-2.1,2.8v0.1c1.4,0.4,2.4,1.3,2.4,3C54.2,501.5,52.7,503,50,503z M50,501.7c1.7,0,2.6-0.8,2.6-2.1v-0.4
						c0-1.4-1-2.1-2.6-2.1c-1.7,0-2.6,0.8-2.6,2.1v0.4C47.4,500.9,48.3,501.7,50,501.7z M50,495.9c1.5,0,2.3-0.7,2.3-1.9v-0.3
						c0-1.2-0.8-1.9-2.3-1.9c-1.5,0-2.3,0.7-2.3,1.9v0.3C47.7,495.2,48.5,495.9,50,495.9z"/>
					<path id="_x35_68" class="st2" d="M277.8,490.8v1.3h-5.2l-0.3,4.6h0.1c0.6-0.8,1.2-1.3,2.5-1.3c2.1,0,3.6,1.4,3.6,3.7
						c0,2.3-1.5,4-4,4c-2,0-3-1-3.7-2l1.1-0.8c0.6,0.9,1.2,1.6,2.7,1.6c1.6,0,2.5-0.9,2.5-2.5V499c0-1.6-0.9-2.5-2.5-2.5
						c-1.1,0-1.6,0.5-2.1,1l-1.2-0.2l0.4-6.6H277.8z M284.7,503c-2.5,0-4-1.7-4-4.6c0-3.5,2.3-6.3,4.3-7.6h1.9
						c-2.6,1.9-4,3.4-4.6,6.2l0.1,0c0.6-1,1.4-1.7,2.9-1.7c2.1,0,3.5,1.4,3.5,3.7C288.7,501.4,287.1,503,284.7,503z M284.7,501.7
						c1.6,0,2.5-0.9,2.5-2.5v-0.1c0-1.6-0.9-2.5-2.5-2.5c-1.6,0-2.5,0.9-2.5,2.5v0.1C282.2,500.8,283.1,501.7,284.7,501.7z M295,503
						c-2.7,0-4.1-1.5-4.1-3.5c0-1.6,1-2.6,2.4-3v-0.1c-1.3-0.4-2.1-1.4-2.1-2.8c0-1.8,1.4-3,3.8-3s3.8,1.2,3.8,3
						c0,1.4-0.8,2.4-2.1,2.8v0.1c1.4,0.4,2.4,1.3,2.4,3C299.1,501.5,297.7,503,295,503z M295,501.7c1.7,0,2.6-0.8,2.6-2.1v-0.4
						c0-1.4-1-2.1-2.6-2.1s-2.6,0.8-2.6,2.1v0.4C292.3,500.9,293.3,501.7,295,501.7z M295,495.9c1.5,0,2.3-0.7,2.3-1.9v-0.3
						c0-1.2-0.8-1.9-2.3-1.9s-2.3,0.7-2.3,1.9v0.3C292.7,495.2,293.5,495.9,295,495.9z"/>
					<path id="_x32_50" class="st2" d="M479.2,501.5v1.3h-7.9v-1.5l3.9-3.6c1.1-1,2-2.2,2-3.4v-0.2c0-1.3-0.7-2.2-2.2-2.2
						c-1.5,0-2.2,0.9-2.5,2l-1.3-0.5c0.5-1.4,1.5-2.8,3.8-2.8c2.3,0,3.7,1.4,3.7,3.5c0,1.9-1.1,3.2-2.6,4.5l-3.2,2.9H479.2z
						 M488.9,490.8v1.3h-5.2l-0.3,4.6h0.1c0.6-0.8,1.2-1.3,2.5-1.3c2.1,0,3.6,1.4,3.6,3.7c0,2.3-1.5,4-4,4c-2,0-3-1-3.7-2l1.1-0.8
						c0.6,0.9,1.2,1.6,2.7,1.6c1.6,0,2.5-0.9,2.5-2.5V499c0-1.6-0.9-2.5-2.5-2.5c-1.1,0-1.6,0.5-2.1,1l-1.2-0.2l0.4-6.6H488.9z
						 M495.8,503c-2.9,0-4.1-2.3-4.1-6.2c0-3.9,1.3-6.2,4.1-6.2s4.1,2.3,4.1,6.2C499.9,500.7,498.7,503,495.8,503z M495.8,501.7
						c1.9,0,2.6-1.6,2.6-4v-2c0-2.3-0.7-4-2.6-4c-1.9,0-2.6,1.6-2.6,4v2C493.2,500.1,494,501.7,495.8,501.7z"/>
					<path id="_x32_72" class="st2" d="M573.6,501.5v1.3h-7.9v-1.5l3.9-3.6c1.1-1,2-2.2,2-3.4v-0.2c0-1.3-0.7-2.2-2.2-2.2
						c-1.5,0-2.2,0.9-2.5,2l-1.3-0.5c0.5-1.4,1.5-2.8,3.8-2.8c2.3,0,3.7,1.4,3.7,3.5c0,1.9-1.1,3.2-2.6,4.5l-3.2,2.9H573.6z
						 M579.3,502.8h-1.5l4.6-10.7h-5.1v2.2h-1.3v-3.5h7.9v1.3L579.3,502.8z M594.1,501.5v1.3h-7.9v-1.5l3.9-3.6c1.1-1,2-2.2,2-3.4
						v-0.2c0-1.3-0.7-2.2-2.2-2.2c-1.5,0-2.2,0.9-2.5,2l-1.3-0.5c0.5-1.4,1.5-2.8,3.8-2.8c2.3,0,3.7,1.4,3.7,3.5
						c0,1.9-1.1,3.2-2.6,4.5l-3.2,2.9H594.1z"/>
					<path id="_x32_72_1_" class="st2" d="M675.2,501.5v1.3h-7.9v-1.5l3.9-3.6c1.1-1,2-2.2,2-3.4v-0.2c0-1.3-0.7-2.2-2.2-2.2
						c-1.5,0-2.2,0.9-2.5,2l-1.3-0.5c0.5-1.4,1.5-2.8,3.8-2.8c2.3,0,3.7,1.4,3.7,3.5c0,1.9-1.1,3.2-2.6,4.5l-3.2,2.9H675.2z
						 M680.9,502.8h-1.5l4.6-10.7h-5.1v2.2h-1.3v-3.5h7.9v1.3L680.9,502.8z M695.8,501.5v1.3h-7.9v-1.5l3.9-3.6c1.1-1,2-2.2,2-3.4
						v-0.2c0-1.3-0.7-2.2-2.2-2.2c-1.5,0-2.2,0.9-2.5,2l-1.3-0.5c0.5-1.4,1.5-2.8,3.8-2.8c2.3,0,3.7,1.4,3.7,3.5
						c0,1.9-1.1,3.2-2.6,4.5l-3.2,2.9H695.8z"/>
					<path id="Fill-43-Copy" class="st3" d="M204.2,291.1v-38.4c0-45.7-28.2-75.4-68.3-75.4c-40.1,0-68.3,29.8-68.3,75.4v38.4
						c0,45.7,28.2,75.4,68.3,75.4C176,366.6,204.2,336.8,204.2,291.1z M187,441.7h-34.1c-18.2,0-27.9-11.6-27.9-27.1v-23.5
						c-53.4-5-87.2-46.7-87.2-119.1c0-77.4,38.5-119.5,98.1-119.5s98.1,42,98.1,119.5c0,70.5-31.8,111.5-82.6,118.5v28.1H187V441.7z
						"/>
					<path id="Fill-44-Copy" class="st3" d="M398,360.4h-1.3c-6.6,16.2-19.6,31.8-48.1,31.8c-35.1,0-57.7-23.8-57.7-65.2V217.4h26.5
						v104.9c0,30.4,13.6,46,39.1,46c20.9,0,41.4-10.3,41.4-32.8V217.4h26.5v170.7H398V360.4z"/>
					<path id="Fill-45-Copy" class="st3" d="M494.7,388h26.5V217.3h-26.5V388z M491.7,162.3V158c0-8.9,5-14.9,16.2-14.9
						s16.2,6,16.2,14.9v4.3c0,8.9-5,14.9-16.2,14.9S491.7,171.3,491.7,162.3z"/>
					<path id="Fill-46-Copy" class="st3" d="M615.8,388c-18.2,0-28.2-11.6-28.2-27.5V143.1h26.5v221.7h25.2V388H615.8z"/>
					<path id="Fill-46-Copy-2" class="st3" d="M717,388c-18.2,0-28.2-11.6-28.2-27.5V143.1h26.5v221.7h25.2V388H717z"/>
					<path id="Line-2-Copy-5" class="st4" d="M14.9,113.8v389.1"/>
					<path id="Line-2-Copy-6" class="st4" d="M259.9,113.8v389.1"/>
					<path id="Line-2-Copy-7" class="st4" d="M461.3,113.8v389.1"/>
					<path id="Line-2-Copy-8" class="st4" d="M555.1,113.8v389.1"/>
					<path id="Line-2-Copy-9" class="st4" d="M656.3,113.8v389.1"/>
					<path id="Line-2-Copy-10" class="st4" d="M757.6,113.8v389.1"/>
				</g>
			</g>
		</g>
	</g>
</g>
</svg>
