<?xml version="1.0" encoding="UTF-8"?>
<svg width="448px" height="248px" viewBox="0 0 448 248" version="1.1" xmlns="http://www.w3.org/2000/svg" xmlns:xlink="http://www.w3.org/1999/xlink">
    <!-- Generator: Sketch 51.2 (57519) - http://www.bohemiancoding.com/sketch -->
    <title>Group 28</title>
    <desc>Created with Sketch.</desc>
    <defs></defs>
    <g id="Page-1" stroke="none" stroke-width="1" fill="none" fill-rule="evenodd">
        <g id="Type-Basics-Copy" transform="translate(-353.000000, -7873.000000)">
            <g id="Group-28" transform="translate(353.000000, 7873.000000)">
                <rect id="Rectangle-16-Copy-161" fill="#FFFFFF" x="0" y="0" width="448" height="248"></rect>
                <path d="M28.528,95 L27.04,95 L24.32,83.832 L25.744,83.832 L26.944,89.208 L27.872,93.384 L27.904,93.384 L28.944,89.208 L30.352,83.832 L31.888,83.832 L33.248,89.208 L34.288,93.368 L34.336,93.368 L35.296,89.208 L36.56,83.832 L37.936,83.832 L35.072,95 L33.584,95 L32.128,89.432 L31.104,85.336 L31.072,85.336 L30.016,89.432 L28.528,95 Z M46.176,95 L45.456,95 C44.512,95 44.128,94.424 44.032,93.656 L43.952,93.656 C43.6,94.664 42.72,95.192 41.568,95.192 C39.824,95.192 38.8,94.232 38.8,92.696 C38.8,91.144 39.92,90.28 42.32,90.28 L43.952,90.28 L43.952,89.464 C43.952,88.296 43.312,87.656 42,87.656 C41.008,87.656 40.352,88.136 39.904,88.888 L39.136,88.168 C39.584,87.288 40.576,86.552 42.064,86.552 C44.048,86.552 45.232,87.592 45.232,89.336 L45.232,93.88 L46.176,93.88 L46.176,95 Z M41.776,94.104 C43.04,94.104 43.952,93.448 43.952,92.6 L43.952,91.24 L42.256,91.24 C40.8,91.24 40.144,91.688 40.144,92.488 L40.144,92.824 C40.144,93.64 40.784,94.104 41.776,94.104 Z M51.424,95 L49.824,95 C48.944,95 48.464,94.44 48.464,93.64 L48.464,87.864 L47.104,87.864 L47.104,86.744 L47.872,86.744 C48.416,86.744 48.592,86.552 48.592,85.992 L48.592,84.456 L49.744,84.456 L49.744,86.744 L51.552,86.744 L51.552,87.864 L49.744,87.864 L49.744,93.88 L51.424,93.88 L51.424,95 Z M56.096,95.192 C54.576,95.192 53.568,94.552 52.832,93.576 L53.744,92.84 C54.384,93.64 55.152,94.104 56.192,94.104 C57.28,94.104 57.92,93.608 57.92,92.76 C57.92,92.12 57.568,91.624 56.48,91.464 L55.824,91.368 C54.304,91.144 53.168,90.52 53.168,88.984 C53.168,87.352 54.432,86.552 56.112,86.552 C57.44,86.552 58.32,87.048 58.992,87.88 L58.144,88.648 C57.776,88.136 57.072,87.64 56.016,87.64 C54.96,87.64 54.4,88.136 54.4,88.92 C54.4,89.72 54.96,90.04 55.984,90.2 L56.624,90.296 C58.448,90.568 59.152,91.368 59.152,92.616 C59.152,94.216 57.984,95.192 56.096,95.192 Z M64.528,95.192 C62.32,95.192 60.8,93.496 60.8,90.872 C60.8,88.248 62.32,86.552 64.528,86.552 C66.736,86.552 68.256,88.248 68.256,90.872 C68.256,93.496 66.736,95.192 64.528,95.192 Z M64.528,94.056 C65.904,94.056 66.88,93.208 66.88,91.464 L66.88,90.28 C66.88,88.536 65.904,87.688 64.528,87.688 C63.152,87.688 62.176,88.536 62.176,90.28 L62.176,91.464 C62.176,93.208 63.152,94.056 64.528,94.056 Z M71.648,95 L70.368,95 L70.368,86.744 L71.648,86.744 L71.648,88.088 L71.712,88.088 C72.112,87.16 72.816,86.552 74.048,86.552 C75.744,86.552 76.816,87.704 76.816,89.704 L76.816,95 L75.536,95 L75.536,89.928 C75.536,88.456 74.896,87.704 73.664,87.704 C72.64,87.704 71.648,88.216 71.648,89.272 L71.648,95 Z M90.192,95.912 C90.192,97.608 88.848,98.392 86.192,98.392 C83.616,98.392 82.56,97.656 82.56,96.36 C82.56,95.464 83.056,94.984 83.872,94.76 L83.872,94.584 C83.408,94.36 83.136,93.992 83.136,93.432 C83.136,92.6 83.728,92.2 84.56,91.992 L84.56,91.928 C83.584,91.464 83.008,90.552 83.008,89.4 C83.008,87.72 84.24,86.552 86.112,86.552 C86.704,86.552 87.232,86.664 87.68,86.872 L87.68,86.728 C87.68,86.088 87.952,85.624 88.64,85.624 L89.872,85.624 L89.872,86.744 L88.304,86.744 L88.304,87.272 C88.896,87.784 89.248,88.52 89.248,89.4 C89.248,91.08 88.016,92.248 86.128,92.248 C85.856,92.248 85.568,92.216 85.328,92.168 C84.784,92.312 84.24,92.584 84.24,93.096 C84.24,93.592 84.752,93.72 85.504,93.72 L87.264,93.72 C89.312,93.72 90.192,94.552 90.192,95.912 Z M88.992,96.008 C88.992,95.352 88.56,94.92 87.28,94.92 L84.528,94.92 C84,95.16 83.76,95.528 83.76,96.04 C83.76,96.76 84.256,97.352 85.552,97.352 L86.736,97.352 C88.16,97.352 88.992,96.904 88.992,96.008 Z M86.128,91.224 C87.216,91.224 87.904,90.712 87.904,89.624 L87.904,89.176 C87.904,88.088 87.216,87.576 86.128,87.576 C85.04,87.576 84.352,88.088 84.352,89.176 L84.352,89.624 C84.352,90.712 85.04,91.224 86.128,91.224 Z M92.32,84.808 C91.776,84.808 91.536,84.52 91.536,84.088 L91.536,83.88 C91.536,83.448 91.776,83.16 92.32,83.16 C92.864,83.16 93.104,83.448 93.104,83.88 L93.104,84.088 C93.104,84.52 92.864,84.808 92.32,84.808 Z M91.68,95 L91.68,86.744 L92.96,86.744 L92.96,95 L91.68,95 Z M98.992,95 L97.504,95 L94.608,86.744 L95.888,86.744 L97.328,90.84 L98.224,93.656 L98.304,93.656 L99.2,90.84 L100.672,86.744 L101.904,86.744 L98.992,95 Z M106.528,95.192 C104.288,95.192 102.816,93.496 102.816,90.872 C102.816,88.248 104.288,86.552 106.528,86.552 C108.736,86.552 110.096,88.248 110.096,90.584 L110.096,91.192 L104.16,91.192 L104.16,91.576 C104.16,93 105.072,94.072 106.608,94.072 C107.648,94.072 108.448,93.56 108.88,92.648 L109.792,93.304 C109.264,94.424 108.08,95.192 106.528,95.192 Z M106.528,87.624 C105.136,87.624 104.16,88.68 104.16,90.12 L104.16,90.232 L108.72,90.232 L108.72,90.056 C108.72,88.6 107.84,87.624 106.528,87.624 Z M114.688,95.192 C113.168,95.192 112.16,94.552 111.424,93.576 L112.336,92.84 C112.976,93.64 113.744,94.104 114.784,94.104 C115.872,94.104 116.512,93.608 116.512,92.76 C116.512,92.12 116.16,91.624 115.072,91.464 L114.416,91.368 C112.896,91.144 111.76,90.52 111.76,88.984 C111.76,87.352 113.024,86.552 114.704,86.552 C116.032,86.552 116.912,87.048 117.584,87.88 L116.736,88.648 C116.368,88.136 115.664,87.64 114.608,87.64 C113.552,87.64 112.992,88.136 112.992,88.92 C112.992,89.72 113.552,90.04 114.576,90.2 L115.216,90.296 C117.04,90.568 117.744,91.368 117.744,92.616 C117.744,94.216 116.576,95.192 114.688,95.192 Z M126.864,92.36 L128.864,86.744 L130.128,86.744 L126.432,96.92 C126.064,97.912 125.728,98.2 124.512,98.2 L123.856,98.2 L123.856,97.08 L125.152,97.08 L125.776,95.32 L122.688,86.744 L123.968,86.744 L125.952,92.36 L126.336,93.704 L126.416,93.704 L126.864,92.36 Z M134.8,95.192 C132.592,95.192 131.072,93.496 131.072,90.872 C131.072,88.248 132.592,86.552 134.8,86.552 C137.008,86.552 138.528,88.248 138.528,90.872 C138.528,93.496 137.008,95.192 134.8,95.192 Z M134.8,94.056 C136.176,94.056 137.152,93.208 137.152,91.464 L137.152,90.28 C137.152,88.536 136.176,87.688 134.8,87.688 C133.424,87.688 132.448,88.536 132.448,90.28 L132.448,91.464 C132.448,93.208 133.424,94.056 134.8,94.056 Z M145.728,95 L145.728,93.656 L145.664,93.656 C145.344,94.44 144.72,95.192 143.344,95.192 C141.648,95.192 140.56,94.04 140.56,92.04 L140.56,86.744 L141.84,86.744 L141.84,91.816 C141.84,93.288 142.496,94.04 143.728,94.04 C144.736,94.04 145.728,93.544 145.728,92.456 L145.728,86.744 L147.008,86.744 L147.008,95 L145.728,95 Z M151.008,95 L149.728,95 L149.728,86.744 L151.008,86.744 L151.008,88.264 L151.088,88.264 C151.376,87.48 152.128,86.744 153.472,86.744 L153.968,86.744 L153.968,88.024 L153.216,88.024 C151.84,88.024 151.008,88.616 151.008,89.4 L151.008,95 Z M159.376,95 L159.376,83.16 L160.656,83.16 L160.656,88.088 L160.72,88.088 C161.152,87.048 162,86.552 163.136,86.552 C165.2,86.552 166.496,88.232 166.496,90.872 C166.496,93.512 165.2,95.192 163.136,95.192 C162,95.192 161.216,94.68 160.72,93.656 L160.656,93.656 L160.656,95 L159.376,95 Z M162.784,94.04 C164.224,94.04 165.12,93.048 165.12,91.576 L165.12,90.168 C165.12,88.696 164.224,87.704 162.784,87.704 C161.616,87.704 160.656,88.376 160.656,89.288 L160.656,92.36 C160.656,93.432 161.616,94.04 162.784,94.04 Z M173.744,95 L173.744,93.656 L173.68,93.656 C173.36,94.44 172.736,95.192 171.36,95.192 C169.664,95.192 168.576,94.04 168.576,92.04 L168.576,86.744 L169.856,86.744 L169.856,91.816 C169.856,93.288 170.512,94.04 171.744,94.04 C172.752,94.04 173.744,93.544 173.744,92.456 L173.744,86.744 L175.024,86.744 L175.024,95 L173.744,95 Z M180.224,95.192 C178.704,95.192 177.696,94.552 176.96,93.576 L177.872,92.84 C178.512,93.64 179.28,94.104 180.32,94.104 C181.408,94.104 182.048,93.608 182.048,92.76 C182.048,92.12 181.696,91.624 180.608,91.464 L179.952,91.368 C178.432,91.144 177.296,90.52 177.296,88.984 C177.296,87.352 178.56,86.552 180.24,86.552 C181.568,86.552 182.448,87.048 183.12,87.88 L182.272,88.648 C181.904,88.136 181.2,87.64 180.144,87.64 C179.088,87.64 178.528,88.136 178.528,88.92 C178.528,89.72 179.088,90.04 180.112,90.2 L180.752,90.296 C182.576,90.568 183.28,91.368 183.28,92.616 C183.28,94.216 182.112,95.192 180.224,95.192 Z M186.176,84.808 C185.632,84.808 185.392,84.52 185.392,84.088 L185.392,83.88 C185.392,83.448 185.632,83.16 186.176,83.16 C186.72,83.16 186.96,83.448 186.96,83.88 L186.96,84.088 C186.96,84.52 186.72,84.808 186.176,84.808 Z M185.536,95 L185.536,86.744 L186.816,86.744 L186.816,95 L185.536,95 Z M190.816,95 L189.536,95 L189.536,86.744 L190.816,86.744 L190.816,88.088 L190.88,88.088 C191.28,87.16 191.984,86.552 193.216,86.552 C194.912,86.552 195.984,87.704 195.984,89.704 L195.984,95 L194.704,95 L194.704,89.928 C194.704,88.456 194.064,87.704 192.832,87.704 C191.808,87.704 190.816,88.216 190.816,89.272 L190.816,95 Z M201.728,95.192 C199.488,95.192 198.016,93.496 198.016,90.872 C198.016,88.248 199.488,86.552 201.728,86.552 C203.936,86.552 205.296,88.248 205.296,90.584 L205.296,91.192 L199.36,91.192 L199.36,91.576 C199.36,93 200.272,94.072 201.808,94.072 C202.848,94.072 203.648,93.56 204.08,92.648 L204.992,93.304 C204.464,94.424 203.28,95.192 201.728,95.192 Z M201.728,87.624 C200.336,87.624 199.36,88.68 199.36,90.12 L199.36,90.232 L203.92,90.232 L203.92,90.056 C203.92,88.6 203.04,87.624 201.728,87.624 Z M209.888,95.192 C208.368,95.192 207.36,94.552 206.624,93.576 L207.536,92.84 C208.176,93.64 208.944,94.104 209.984,94.104 C211.072,94.104 211.712,93.608 211.712,92.76 C211.712,92.12 211.36,91.624 210.272,91.464 L209.616,91.368 C208.096,91.144 206.96,90.52 206.96,88.984 C206.96,87.352 208.224,86.552 209.904,86.552 C211.232,86.552 212.112,87.048 212.784,87.88 L211.936,88.648 C211.568,88.136 210.864,87.64 209.808,87.64 C208.752,87.64 208.192,88.136 208.192,88.92 C208.192,89.72 208.752,90.04 209.776,90.2 L210.416,90.296 C212.24,90.568 212.944,91.368 212.944,92.616 C212.944,94.216 211.776,95.192 209.888,95.192 Z M217.584,95.192 C216.064,95.192 215.056,94.552 214.32,93.576 L215.232,92.84 C215.872,93.64 216.64,94.104 217.68,94.104 C218.768,94.104 219.408,93.608 219.408,92.76 C219.408,92.12 219.056,91.624 217.968,91.464 L217.312,91.368 C215.792,91.144 214.656,90.52 214.656,88.984 C214.656,87.352 215.92,86.552 217.6,86.552 C218.928,86.552 219.808,87.048 220.48,87.88 L219.632,88.648 C219.264,88.136 218.56,87.64 217.504,87.64 C216.448,87.64 215.888,88.136 215.888,88.92 C215.888,89.72 216.448,90.04 217.472,90.2 L218.112,90.296 C219.936,90.568 220.64,91.368 220.64,92.616 C220.64,94.216 219.472,95.192 217.584,95.192 Z M231.952,95 L231.952,93.656 L231.888,93.656 C231.392,94.68 230.608,95.192 229.472,95.192 C227.408,95.192 226.112,93.512 226.112,90.872 C226.112,88.232 227.408,86.552 229.472,86.552 C230.608,86.552 231.456,87.048 231.888,88.088 L231.952,88.088 L231.952,83.16 L233.232,83.16 L233.232,95 L231.952,95 Z M229.824,94.04 C230.992,94.04 231.952,93.432 231.952,92.36 L231.952,89.288 C231.952,88.376 230.992,87.704 229.824,87.704 C228.384,87.704 227.488,88.696 227.488,90.168 L227.488,91.576 C227.488,93.048 228.384,94.04 229.824,94.04 Z M236.592,84.808 C236.048,84.808 235.808,84.52 235.808,84.088 L235.808,83.88 C235.808,83.448 236.048,83.16 236.592,83.16 C237.136,83.16 237.376,83.448 237.376,83.88 L237.376,84.088 C237.376,84.52 237.136,84.808 236.592,84.808 Z M235.952,95 L235.952,86.744 L237.232,86.744 L237.232,95 L235.952,95 Z M242.432,95.192 C240.912,95.192 239.904,94.552 239.168,93.576 L240.08,92.84 C240.72,93.64 241.488,94.104 242.528,94.104 C243.616,94.104 244.256,93.608 244.256,92.76 C244.256,92.12 243.904,91.624 242.816,91.464 L242.16,91.368 C240.64,91.144 239.504,90.52 239.504,88.984 C239.504,87.352 240.768,86.552 242.448,86.552 C243.776,86.552 244.656,87.048 245.328,87.88 L244.48,88.648 C244.112,88.136 243.408,87.64 242.352,87.64 C241.296,87.64 240.736,88.136 240.736,88.92 C240.736,89.72 241.296,90.04 242.32,90.2 L242.96,90.296 C244.784,90.568 245.488,91.368 245.488,92.616 C245.488,94.216 244.32,95.192 242.432,95.192 Z M251.056,95 L249.456,95 C248.576,95 248.096,94.44 248.096,93.64 L248.096,87.864 L246.736,87.864 L246.736,86.744 L247.504,86.744 C248.048,86.744 248.224,86.552 248.224,85.992 L248.224,84.456 L249.376,84.456 L249.376,86.744 L251.184,86.744 L251.184,87.864 L249.376,87.864 L249.376,93.88 L251.056,93.88 L251.056,95 Z M253.888,84.808 C253.344,84.808 253.104,84.52 253.104,84.088 L253.104,83.88 C253.104,83.448 253.344,83.16 253.888,83.16 C254.432,83.16 254.672,83.448 254.672,83.88 L254.672,84.088 C254.672,84.52 254.432,84.808 253.888,84.808 Z M253.248,95 L253.248,86.744 L254.528,86.744 L254.528,95 L253.248,95 Z M258.528,95 L257.248,95 L257.248,86.744 L258.528,86.744 L258.528,88.088 L258.592,88.088 C258.992,87.16 259.696,86.552 260.928,86.552 C262.624,86.552 263.696,87.704 263.696,89.704 L263.696,95 L262.416,95 L262.416,89.928 C262.416,88.456 261.776,87.704 260.544,87.704 C259.52,87.704 258.528,88.216 258.528,89.272 L258.528,95 Z M269.408,95.192 C267.088,95.192 265.728,93.512 265.728,90.872 C265.728,88.232 267.088,86.552 269.408,86.552 C271.04,86.552 272.016,87.352 272.496,88.488 L271.424,89.032 C271.12,88.184 270.416,87.688 269.408,87.688 C267.888,87.688 267.104,88.728 267.104,90.168 L267.104,91.576 C267.104,93.016 267.888,94.056 269.408,94.056 C270.448,94.056 271.2,93.56 271.648,92.616 L272.576,93.24 C272.048,94.424 270.976,95.192 269.408,95.192 Z M277.808,95 L276.208,95 C275.328,95 274.848,94.44 274.848,93.64 L274.848,87.864 L273.488,87.864 L273.488,86.744 L274.256,86.744 C274.8,86.744 274.976,86.552 274.976,85.992 L274.976,84.456 L276.128,84.456 L276.128,86.744 L277.936,86.744 L277.936,87.864 L276.128,87.864 L276.128,93.88 L277.808,93.88 L277.808,95 Z M290.496,95 L289.776,95 C288.832,95 288.448,94.424 288.352,93.656 L288.272,93.656 C287.92,94.664 287.04,95.192 285.888,95.192 C284.144,95.192 283.12,94.232 283.12,92.696 C283.12,91.144 284.24,90.28 286.64,90.28 L288.272,90.28 L288.272,89.464 C288.272,88.296 287.632,87.656 286.32,87.656 C285.328,87.656 284.672,88.136 284.224,88.888 L283.456,88.168 C283.904,87.288 284.896,86.552 286.384,86.552 C288.368,86.552 289.552,87.592 289.552,89.336 L289.552,93.88 L290.496,93.88 L290.496,95 Z M286.096,94.104 C287.36,94.104 288.272,93.448 288.272,92.6 L288.272,91.24 L286.576,91.24 C285.12,91.24 284.464,91.688 284.464,92.488 L284.464,92.824 C284.464,93.64 285.104,94.104 286.096,94.104 Z M297.6,95 L297.6,93.656 L297.536,93.656 C297.04,94.68 296.256,95.192 295.12,95.192 C293.056,95.192 291.76,93.512 291.76,90.872 C291.76,88.232 293.056,86.552 295.12,86.552 C296.256,86.552 297.104,87.048 297.536,88.088 L297.6,88.088 L297.6,83.16 L298.88,83.16 L298.88,95 L297.6,95 Z M295.472,94.04 C296.64,94.04 297.6,93.432 297.6,92.36 L297.6,89.288 C297.6,88.376 296.64,87.704 295.472,87.704 C294.032,87.704 293.136,88.696 293.136,90.168 L293.136,91.576 C293.136,93.048 294.032,94.04 295.472,94.04 Z M304.912,95 L303.424,95 L300.528,86.744 L301.808,86.744 L303.248,90.84 L304.144,93.656 L304.224,93.656 L305.12,90.84 L306.592,86.744 L307.824,86.744 L304.912,95 Z M316.048,95 L315.328,95 C314.384,95 314,94.424 313.904,93.656 L313.824,93.656 C313.472,94.664 312.592,95.192 311.44,95.192 C309.696,95.192 308.672,94.232 308.672,92.696 C308.672,91.144 309.792,90.28 312.192,90.28 L313.824,90.28 L313.824,89.464 C313.824,88.296 313.184,87.656 311.872,87.656 C310.88,87.656 310.224,88.136 309.776,88.888 L309.008,88.168 C309.456,87.288 310.448,86.552 311.936,86.552 C313.92,86.552 315.104,87.592 315.104,89.336 L315.104,93.88 L316.048,93.88 L316.048,95 Z M311.648,94.104 C312.912,94.104 313.824,93.448 313.824,92.6 L313.824,91.24 L312.128,91.24 C310.672,91.24 310.016,91.688 310.016,92.488 L310.016,92.824 C310.016,93.64 310.656,94.104 311.648,94.104 Z M319.152,95 L317.872,95 L317.872,86.744 L319.152,86.744 L319.152,88.088 L319.216,88.088 C319.616,87.16 320.32,86.552 321.552,86.552 C323.248,86.552 324.32,87.704 324.32,89.704 L324.32,95 L323.04,95 L323.04,89.928 C323.04,88.456 322.4,87.704 321.168,87.704 C320.144,87.704 319.152,88.216 319.152,89.272 L319.152,95 Z M330.384,95 L328.784,95 C327.904,95 327.424,94.44 327.424,93.64 L327.424,87.864 L326.064,87.864 L326.064,86.744 L326.832,86.744 C327.376,86.744 327.552,86.552 327.552,85.992 L327.552,84.456 L328.704,84.456 L328.704,86.744 L330.512,86.744 L330.512,87.864 L328.704,87.864 L328.704,93.88 L330.384,93.88 L330.384,95 Z M339.296,95 L338.576,95 C337.632,95 337.248,94.424 337.152,93.656 L337.072,93.656 C336.72,94.664 335.84,95.192 334.688,95.192 C332.944,95.192 331.92,94.232 331.92,92.696 C331.92,91.144 333.04,90.28 335.44,90.28 L337.072,90.28 L337.072,89.464 C337.072,88.296 336.432,87.656 335.12,87.656 C334.128,87.656 333.472,88.136 333.024,88.888 L332.256,88.168 C332.704,87.288 333.696,86.552 335.184,86.552 C337.168,86.552 338.352,87.592 338.352,89.336 L338.352,93.88 L339.296,93.88 L339.296,95 Z M334.896,94.104 C336.16,94.104 337.072,93.448 337.072,92.6 L337.072,91.24 L335.376,91.24 C333.92,91.24 333.264,91.688 333.264,92.488 L333.264,92.824 C333.264,93.64 333.904,94.104 334.896,94.104 Z M348.08,95.912 C348.08,97.608 346.736,98.392 344.08,98.392 C341.504,98.392 340.448,97.656 340.448,96.36 C340.448,95.464 340.944,94.984 341.76,94.76 L341.76,94.584 C341.296,94.36 341.024,93.992 341.024,93.432 C341.024,92.6 341.616,92.2 342.448,91.992 L342.448,91.928 C341.472,91.464 340.896,90.552 340.896,89.4 C340.896,87.72 342.128,86.552 344,86.552 C344.592,86.552 345.12,86.664 345.568,86.872 L345.568,86.728 C345.568,86.088 345.84,85.624 346.528,85.624 L347.76,85.624 L347.76,86.744 L346.192,86.744 L346.192,87.272 C346.784,87.784 347.136,88.52 347.136,89.4 C347.136,91.08 345.904,92.248 344.016,92.248 C343.744,92.248 343.456,92.216 343.216,92.168 C342.672,92.312 342.128,92.584 342.128,93.096 C342.128,93.592 342.64,93.72 343.392,93.72 L345.152,93.72 C347.2,93.72 348.08,94.552 348.08,95.912 Z M346.88,96.008 C346.88,95.352 346.448,94.92 345.168,94.92 L342.416,94.92 C341.888,95.16 341.648,95.528 341.648,96.04 C341.648,96.76 342.144,97.352 343.44,97.352 L344.624,97.352 C346.048,97.352 346.88,96.904 346.88,96.008 Z M344.016,91.224 C345.104,91.224 345.792,90.712 345.792,89.624 L345.792,89.176 C345.792,88.088 345.104,87.576 344.016,87.576 C342.928,87.576 342.24,88.088 342.24,89.176 L342.24,89.624 C342.24,90.712 342.928,91.224 344.016,91.224 Z M352.576,95.192 C350.336,95.192 348.864,93.496 348.864,90.872 C348.864,88.248 350.336,86.552 352.576,86.552 C354.784,86.552 356.144,88.248 356.144,90.584 L356.144,91.192 L350.208,91.192 L350.208,91.576 C350.208,93 351.12,94.072 352.656,94.072 C353.696,94.072 354.496,93.56 354.928,92.648 L355.84,93.304 C355.312,94.424 354.128,95.192 352.576,95.192 Z M352.576,87.624 C351.184,87.624 350.208,88.68 350.208,90.12 L350.208,90.232 L354.768,90.232 L354.768,90.056 C354.768,88.6 353.888,87.624 352.576,87.624 Z M360.736,95.192 C359.216,95.192 358.208,94.552 357.472,93.576 L358.384,92.84 C359.024,93.64 359.792,94.104 360.832,94.104 C361.92,94.104 362.56,93.608 362.56,92.76 C362.56,92.12 362.208,91.624 361.12,91.464 L360.464,91.368 C358.944,91.144 357.808,90.52 357.808,88.984 C357.808,87.352 359.072,86.552 360.752,86.552 C362.08,86.552 362.96,87.048 363.632,87.88 L362.784,88.648 C362.416,88.136 361.712,87.64 360.656,87.64 C359.6,87.64 359.04,88.136 359.04,88.92 C359.04,89.72 359.6,90.04 360.624,90.2 L361.264,90.296 C363.088,90.568 363.792,91.368 363.792,92.616 C363.792,94.216 362.624,95.192 360.736,95.192 Z M366.784,95.192 C366.112,95.192 365.808,94.808 365.808,94.264 L365.808,94.056 C365.808,93.512 366.112,93.128 366.784,93.128 C367.456,93.128 367.76,93.512 367.76,94.056 L367.76,94.264 C367.76,94.808 367.456,95.192 366.784,95.192 Z M25.488,119 L25.488,107.832 L30.08,107.832 C31.92,107.832 33.056,108.968 33.056,110.712 C33.056,112.376 31.984,112.968 31.248,113.08 L31.248,113.176 C32.048,113.224 33.44,113.912 33.44,115.768 C33.44,117.608 32.208,119 30.56,119 L25.488,119 Z M26.832,113.816 L26.832,117.816 L30.144,117.816 C31.296,117.816 32,117.208 32,116.088 L32,115.544 C32,114.424 31.296,113.816 30.144,113.816 L26.832,113.816 Z M26.832,109.016 L26.832,112.664 L29.92,112.664 C30.976,112.664 31.616,112.104 31.616,111.112 L31.616,110.568 C31.616,109.576 30.976,109.016 29.92,109.016 L26.832,109.016 Z M38.912,119.192 C36.672,119.192 35.2,117.496 35.2,114.872 C35.2,112.248 36.672,110.552 38.912,110.552 C41.12,110.552 42.48,112.248 42.48,114.584 L42.48,115.192 L36.544,115.192 L36.544,115.576 C36.544,117 37.456,118.072 38.992,118.072 C40.032,118.072 40.832,117.56 41.264,116.648 L42.176,117.304 C41.648,118.424 40.464,119.192 38.912,119.192 Z M38.912,111.624 C37.52,111.624 36.544,112.68 36.544,114.12 L36.544,114.232 L41.104,114.232 L41.104,114.056 C41.104,112.6 40.224,111.624 38.912,111.624 Z M47.6,116.36 L49.6,110.744 L50.864,110.744 L47.168,120.92 C46.8,121.912 46.464,122.2 45.248,122.2 L44.592,122.2 L44.592,121.08 L45.888,121.08 L46.512,119.32 L43.424,110.744 L44.704,110.744 L46.688,116.36 L47.072,117.704 L47.152,117.704 L47.6,116.36 Z M55.536,119.192 C53.328,119.192 51.808,117.496 51.808,114.872 C51.808,112.248 53.328,110.552 55.536,110.552 C57.744,110.552 59.264,112.248 59.264,114.872 C59.264,117.496 57.744,119.192 55.536,119.192 Z M55.536,118.056 C56.912,118.056 57.888,117.208 57.888,115.464 L57.888,114.28 C57.888,112.536 56.912,111.688 55.536,111.688 C54.16,111.688 53.184,112.536 53.184,114.28 L53.184,115.464 C53.184,117.208 54.16,118.056 55.536,118.056 Z M62.656,119 L61.376,119 L61.376,110.744 L62.656,110.744 L62.656,112.088 L62.72,112.088 C63.12,111.16 63.824,110.552 65.056,110.552 C66.752,110.552 67.824,111.704 67.824,113.704 L67.824,119 L66.544,119 L66.544,113.928 C66.544,112.456 65.904,111.704 64.672,111.704 C63.648,111.704 62.656,112.216 62.656,113.272 L62.656,119 Z M75.744,119 L75.744,117.656 L75.68,117.656 C75.184,118.68 74.4,119.192 73.264,119.192 C71.2,119.192 69.904,117.512 69.904,114.872 C69.904,112.232 71.2,110.552 73.264,110.552 C74.4,110.552 75.248,111.048 75.68,112.088 L75.744,112.088 L75.744,107.16 L77.024,107.16 L77.024,119 L75.744,119 Z M73.616,118.04 C74.784,118.04 75.744,117.432 75.744,116.36 L75.744,113.288 C75.744,112.376 74.784,111.704 73.616,111.704 C72.176,111.704 71.28,112.696 71.28,114.168 L71.28,115.576 C71.28,117.048 72.176,118.04 73.616,118.04 Z M86.64,119.192 C84.432,119.192 82.912,117.496 82.912,114.872 C82.912,112.248 84.432,110.552 86.64,110.552 C88.848,110.552 90.368,112.248 90.368,114.872 C90.368,117.496 88.848,119.192 86.64,119.192 Z M86.64,118.056 C88.016,118.056 88.992,117.208 88.992,115.464 L88.992,114.28 C88.992,112.536 88.016,111.688 86.64,111.688 C85.264,111.688 84.288,112.536 84.288,114.28 L84.288,115.464 C84.288,117.208 85.264,118.056 86.64,118.056 Z M92.48,122.2 L92.48,110.744 L93.76,110.744 L93.76,112.088 L93.824,112.088 C94.256,111.048 95.104,110.552 96.24,110.552 C98.304,110.552 99.6,112.232 99.6,114.872 C99.6,117.512 98.304,119.192 96.24,119.192 C95.104,119.192 94.32,118.68 93.824,117.656 L93.76,117.656 L93.76,122.2 L92.48,122.2 Z M95.888,118.04 C97.328,118.04 98.224,117.048 98.224,115.576 L98.224,114.168 C98.224,112.696 97.328,111.704 95.888,111.704 C94.72,111.704 93.76,112.376 93.76,113.288 L93.76,116.36 C93.76,117.432 94.72,118.04 95.888,118.04 Z M105.088,119 L103.488,119 C102.608,119 102.128,118.44 102.128,117.64 L102.128,111.864 L100.768,111.864 L100.768,110.744 L101.536,110.744 C102.08,110.744 102.256,110.552 102.256,109.992 L102.256,108.456 L103.408,108.456 L103.408,110.744 L105.216,110.744 L105.216,111.864 L103.408,111.864 L103.408,117.88 L105.088,117.88 L105.088,119 Z M107.92,108.808 C107.376,108.808 107.136,108.52 107.136,108.088 L107.136,107.88 C107.136,107.448 107.376,107.16 107.92,107.16 C108.464,107.16 108.704,107.448 108.704,107.88 L108.704,108.088 C108.704,108.52 108.464,108.808 107.92,108.808 Z M107.28,119 L107.28,110.744 L108.56,110.744 L108.56,119 L107.28,119 Z M112.56,119 L111.28,119 L111.28,110.744 L112.56,110.744 L112.56,112.088 L112.624,112.088 C112.992,111.24 113.568,110.552 114.848,110.552 C115.936,110.552 116.928,111.048 117.376,112.232 L117.408,112.232 C117.712,111.336 118.512,110.552 119.92,110.552 C121.6,110.552 122.608,111.704 122.608,113.704 L122.608,119 L121.328,119 L121.328,113.928 C121.328,112.472 120.768,111.704 119.52,111.704 C118.512,111.704 117.584,112.216 117.584,113.272 L117.584,119 L116.304,119 L116.304,113.928 C116.304,112.456 115.744,111.704 114.528,111.704 C113.52,111.704 112.56,112.216 112.56,113.272 L112.56,119 Z M125.888,108.808 C125.344,108.808 125.104,108.52 125.104,108.088 L125.104,107.88 C125.104,107.448 125.344,107.16 125.888,107.16 C126.432,107.16 126.672,107.448 126.672,107.88 L126.672,108.088 C126.672,108.52 126.432,108.808 125.888,108.808 Z M125.248,119 L125.248,110.744 L126.528,110.744 L126.528,119 L125.248,119 Z M134.784,119 L128.416,119 L128.416,117.928 L133.104,111.864 L128.56,111.864 L128.56,110.744 L134.656,110.744 L134.656,111.704 L129.872,117.88 L134.784,117.88 L134.784,119 Z M137.312,108.808 C136.768,108.808 136.528,108.52 136.528,108.088 L136.528,107.88 C136.528,107.448 136.768,107.16 137.312,107.16 C137.856,107.16 138.096,107.448 138.096,107.88 L138.096,108.088 C138.096,108.52 137.856,108.808 137.312,108.808 Z M136.672,119 L136.672,110.744 L137.952,110.744 L137.952,119 L136.672,119 Z M141.952,119 L140.672,119 L140.672,110.744 L141.952,110.744 L141.952,112.088 L142.016,112.088 C142.416,111.16 143.12,110.552 144.352,110.552 C146.048,110.552 147.12,111.704 147.12,113.704 L147.12,119 L145.84,119 L145.84,113.928 C145.84,112.456 145.2,111.704 143.968,111.704 C142.944,111.704 141.952,112.216 141.952,113.272 L141.952,119 Z M156.72,119.912 C156.72,121.608 155.376,122.392 152.72,122.392 C150.144,122.392 149.088,121.656 149.088,120.36 C149.088,119.464 149.584,118.984 150.4,118.76 L150.4,118.584 C149.936,118.36 149.664,117.992 149.664,117.432 C149.664,116.6 150.256,116.2 151.088,115.992 L151.088,115.928 C150.112,115.464 149.536,114.552 149.536,113.4 C149.536,111.72 150.768,110.552 152.64,110.552 C153.232,110.552 153.76,110.664 154.208,110.872 L154.208,110.728 C154.208,110.088 154.48,109.624 155.168,109.624 L156.4,109.624 L156.4,110.744 L154.832,110.744 L154.832,111.272 C155.424,111.784 155.776,112.52 155.776,113.4 C155.776,115.08 154.544,116.248 152.656,116.248 C152.384,116.248 152.096,116.216 151.856,116.168 C151.312,116.312 150.768,116.584 150.768,117.096 C150.768,117.592 151.28,117.72 152.032,117.72 L153.792,117.72 C155.84,117.72 156.72,118.552 156.72,119.912 Z M155.52,120.008 C155.52,119.352 155.088,118.92 153.808,118.92 L151.056,118.92 C150.528,119.16 150.288,119.528 150.288,120.04 C150.288,120.76 150.784,121.352 152.08,121.352 L153.264,121.352 C154.688,121.352 155.52,120.904 155.52,120.008 Z M152.656,115.224 C153.744,115.224 154.432,114.712 154.432,113.624 L154.432,113.176 C154.432,112.088 153.744,111.576 152.656,111.576 C151.568,111.576 150.88,112.088 150.88,113.176 L150.88,113.624 C150.88,114.712 151.568,115.224 152.656,115.224 Z M165.408,119 L163.808,119 C162.928,119 162.448,118.44 162.448,117.64 L162.448,111.864 L161.088,111.864 L161.088,110.744 L161.856,110.744 C162.4,110.744 162.576,110.552 162.576,109.992 L162.576,108.456 L163.728,108.456 L163.728,110.744 L165.536,110.744 L165.536,111.864 L163.728,111.864 L163.728,117.88 L165.408,117.88 L165.408,119 Z M167.6,119 L167.6,107.16 L168.88,107.16 L168.88,112.088 L168.944,112.088 C169.344,111.16 170.048,110.552 171.28,110.552 C172.976,110.552 174.048,111.704 174.048,113.704 L174.048,119 L172.768,119 L172.768,113.928 C172.768,112.456 172.128,111.704 170.896,111.704 C169.872,111.704 168.88,112.216 168.88,113.272 L168.88,119 L167.6,119 Z M179.792,119.192 C177.552,119.192 176.08,117.496 176.08,114.872 C176.08,112.248 177.552,110.552 179.792,110.552 C182,110.552 183.36,112.248 183.36,114.584 L183.36,115.192 L177.424,115.192 L177.424,115.576 C177.424,117 178.336,118.072 179.872,118.072 C180.912,118.072 181.712,117.56 182.144,116.648 L183.056,117.304 C182.528,118.424 181.344,119.192 179.792,119.192 Z M179.792,111.624 C178.4,111.624 177.424,112.68 177.424,114.12 L177.424,114.232 L181.984,114.232 L181.984,114.056 C181.984,112.6 181.104,111.624 179.792,111.624 Z M192.672,119 L191.072,119 C190.192,119 189.712,118.44 189.712,117.64 L189.712,111.864 L188.352,111.864 L188.352,110.744 L189.12,110.744 C189.664,110.744 189.84,110.552 189.84,109.992 L189.84,108.456 L190.992,108.456 L190.992,110.744 L192.8,110.744 L192.8,111.864 L190.992,111.864 L190.992,117.88 L192.672,117.88 L192.672,119 Z M201.584,119 L200.864,119 C199.92,119 199.536,118.424 199.44,117.656 L199.36,117.656 C199.008,118.664 198.128,119.192 196.976,119.192 C195.232,119.192 194.208,118.232 194.208,116.696 C194.208,115.144 195.328,114.28 197.728,114.28 L199.36,114.28 L199.36,113.464 C199.36,112.296 198.72,111.656 197.408,111.656 C196.416,111.656 195.76,112.136 195.312,112.888 L194.544,112.168 C194.992,111.288 195.984,110.552 197.472,110.552 C199.456,110.552 200.64,111.592 200.64,113.336 L200.64,117.88 L201.584,117.88 L201.584,119 Z M197.184,118.104 C198.448,118.104 199.36,117.448 199.36,116.6 L199.36,115.24 L197.664,115.24 C196.208,115.24 195.552,115.688 195.552,116.488 L195.552,116.824 C195.552,117.64 196.192,118.104 197.184,118.104 Z M205.888,119.192 C204.368,119.192 203.36,118.552 202.624,117.576 L203.536,116.84 C204.176,117.64 204.944,118.104 205.984,118.104 C207.072,118.104 207.712,117.608 207.712,116.76 C207.712,116.12 207.36,115.624 206.272,115.464 L205.616,115.368 C204.096,115.144 202.96,114.52 202.96,112.984 C202.96,111.352 204.224,110.552 205.904,110.552 C207.232,110.552 208.112,111.048 208.784,111.88 L207.936,112.648 C207.568,112.136 206.864,111.64 205.808,111.64 C204.752,111.64 204.192,112.136 204.192,112.92 C204.192,113.72 204.752,114.04 205.776,114.2 L206.416,114.296 C208.24,114.568 208.944,115.368 208.944,116.616 C208.944,118.216 207.776,119.192 205.888,119.192 Z M211.2,119 L211.2,107.16 L212.48,107.16 L212.48,114.664 L212.544,114.664 L213.808,113.256 L216.144,110.744 L217.696,110.744 L214.64,114.008 L218,119 L216.448,119 L213.712,114.792 L212.48,116.056 L212.48,119 L211.2,119 Z M221.952,119.192 C220.432,119.192 219.424,118.552 218.688,117.576 L219.6,116.84 C220.24,117.64 221.008,118.104 222.048,118.104 C223.136,118.104 223.776,117.608 223.776,116.76 C223.776,116.12 223.424,115.624 222.336,115.464 L221.68,115.368 C220.16,115.144 219.024,114.52 219.024,112.984 C219.024,111.352 220.288,110.552 221.968,110.552 C223.296,110.552 224.176,111.048 224.848,111.88 L224,112.648 C223.632,112.136 222.928,111.64 221.872,111.64 C220.816,111.64 220.256,112.136 220.256,112.92 C220.256,113.72 220.816,114.04 221.84,114.2 L222.48,114.296 C224.304,114.568 225.008,115.368 225.008,116.616 C225.008,118.216 223.84,119.192 221.952,119.192 Z M234.128,116.36 L236.128,110.744 L237.392,110.744 L233.696,120.92 C233.328,121.912 232.992,122.2 231.776,122.2 L231.12,122.2 L231.12,121.08 L232.416,121.08 L233.04,119.32 L229.952,110.744 L231.232,110.744 L233.216,116.36 L233.6,117.704 L233.68,117.704 L234.128,116.36 Z M242.064,119.192 C239.856,119.192 238.336,117.496 238.336,114.872 C238.336,112.248 239.856,110.552 242.064,110.552 C244.272,110.552 245.792,112.248 245.792,114.872 C245.792,117.496 244.272,119.192 242.064,119.192 Z M242.064,118.056 C243.44,118.056 244.416,117.208 244.416,115.464 L244.416,114.28 C244.416,112.536 243.44,111.688 242.064,111.688 C240.688,111.688 239.712,112.536 239.712,114.28 L239.712,115.464 C239.712,117.208 240.688,118.056 242.064,118.056 Z M252.992,119 L252.992,117.656 L252.928,117.656 C252.608,118.44 251.984,119.192 250.608,119.192 C248.912,119.192 247.824,118.04 247.824,116.04 L247.824,110.744 L249.104,110.744 L249.104,115.816 C249.104,117.288 249.76,118.04 250.992,118.04 C252,118.04 252.992,117.544 252.992,116.456 L252.992,110.744 L254.272,110.744 L254.272,119 L252.992,119 Z M267.488,119 L266.768,119 C265.824,119 265.44,118.424 265.344,117.656 L265.264,117.656 C264.912,118.664 264.032,119.192 262.88,119.192 C261.136,119.192 260.112,118.232 260.112,116.696 C260.112,115.144 261.232,114.28 263.632,114.28 L265.264,114.28 L265.264,113.464 C265.264,112.296 264.624,111.656 263.312,111.656 C262.32,111.656 261.664,112.136 261.216,112.888 L260.448,112.168 C260.896,111.288 261.888,110.552 263.376,110.552 C265.36,110.552 266.544,111.592 266.544,113.336 L266.544,117.88 L267.488,117.88 L267.488,119 Z M263.088,118.104 C264.352,118.104 265.264,117.448 265.264,116.6 L265.264,115.24 L263.568,115.24 C262.112,115.24 261.456,115.688 261.456,116.488 L261.456,116.824 C261.456,117.64 262.096,118.104 263.088,118.104 Z M271.808,119 L270.672,119 C269.792,119 269.312,118.44 269.312,117.672 L269.312,107.16 L270.592,107.16 L270.592,117.88 L271.808,117.88 L271.808,119 Z M274.944,119 L273.664,119 L273.664,110.744 L274.944,110.744 L274.944,112.264 L275.024,112.264 C275.312,111.48 276.064,110.744 277.408,110.744 L277.904,110.744 L277.904,112.024 L277.152,112.024 C275.776,112.024 274.944,112.616 274.944,113.4 L274.944,119 Z M282.56,119.192 C280.32,119.192 278.848,117.496 278.848,114.872 C278.848,112.248 280.32,110.552 282.56,110.552 C284.768,110.552 286.128,112.248 286.128,114.584 L286.128,115.192 L280.192,115.192 L280.192,115.576 C280.192,117 281.104,118.072 282.64,118.072 C283.68,118.072 284.48,117.56 284.912,116.648 L285.824,117.304 C285.296,118.424 284.112,119.192 282.56,119.192 Z M282.56,111.624 C281.168,111.624 280.192,112.68 280.192,114.12 L280.192,114.232 L284.752,114.232 L284.752,114.056 C284.752,112.6 283.872,111.624 282.56,111.624 Z M294.96,119 L294.24,119 C293.296,119 292.912,118.424 292.816,117.656 L292.736,117.656 C292.384,118.664 291.504,119.192 290.352,119.192 C288.608,119.192 287.584,118.232 287.584,116.696 C287.584,115.144 288.704,114.28 291.104,114.28 L292.736,114.28 L292.736,113.464 C292.736,112.296 292.096,111.656 290.784,111.656 C289.792,111.656 289.136,112.136 288.688,112.888 L287.92,112.168 C288.368,111.288 289.36,110.552 290.848,110.552 C292.832,110.552 294.016,111.592 294.016,113.336 L294.016,117.88 L294.96,117.88 L294.96,119 Z M290.56,118.104 C291.824,118.104 292.736,117.448 292.736,116.6 L292.736,115.24 L291.04,115.24 C289.584,115.24 288.928,115.688 288.928,116.488 L288.928,116.824 C288.928,117.64 289.568,118.104 290.56,118.104 Z M302.064,119 L302.064,117.656 L302,117.656 C301.504,118.68 300.72,119.192 299.584,119.192 C297.52,119.192 296.224,117.512 296.224,114.872 C296.224,112.232 297.52,110.552 299.584,110.552 C300.72,110.552 301.568,111.048 302,112.088 L302.064,112.088 L302.064,107.16 L303.344,107.16 L303.344,119 L302.064,119 Z M299.936,118.04 C301.104,118.04 302.064,117.432 302.064,116.36 L302.064,113.288 C302.064,112.376 301.104,111.704 299.936,111.704 C298.496,111.704 297.6,112.696 297.6,114.168 L297.6,115.576 C297.6,117.048 298.496,118.04 299.936,118.04 Z M309.152,116.36 L311.152,110.744 L312.416,110.744 L308.72,120.92 C308.352,121.912 308.016,122.2 306.8,122.2 L306.144,122.2 L306.144,121.08 L307.44,121.08 L308.064,119.32 L304.976,110.744 L306.256,110.744 L308.24,116.36 L308.624,117.704 L308.704,117.704 L309.152,116.36 Z M323.104,119 L323.104,117.656 L323.04,117.656 C322.544,118.68 321.76,119.192 320.624,119.192 C318.56,119.192 317.264,117.512 317.264,114.872 C317.264,112.232 318.56,110.552 320.624,110.552 C321.76,110.552 322.608,111.048 323.04,112.088 L323.104,112.088 L323.104,107.16 L324.384,107.16 L324.384,119 L323.104,119 Z M320.976,118.04 C322.144,118.04 323.104,117.432 323.104,116.36 L323.104,113.288 C323.104,112.376 322.144,111.704 320.976,111.704 C319.536,111.704 318.64,112.696 318.64,114.168 L318.64,115.576 C318.64,117.048 319.536,118.04 320.976,118.04 Z M330.224,119.192 C328.016,119.192 326.496,117.496 326.496,114.872 C326.496,112.248 328.016,110.552 330.224,110.552 C332.432,110.552 333.952,112.248 333.952,114.872 C333.952,117.496 332.432,119.192 330.224,119.192 Z M330.224,118.056 C331.6,118.056 332.576,117.208 332.576,115.464 L332.576,114.28 C332.576,112.536 331.6,111.688 330.224,111.688 C328.848,111.688 327.872,112.536 327.872,114.28 L327.872,115.464 C327.872,117.208 328.848,118.056 330.224,118.056 Z M336.56,117.128 C337.232,117.128 337.536,117.512 337.536,118.072 L337.536,118.296 C337.536,119.16 336.992,120.344 336.08,121.128 L335.008,121.128 C335.648,120.456 336.032,119.896 336.208,119.144 C335.776,119.048 335.584,118.728 335.584,118.296 L335.584,118.072 C335.584,117.512 335.888,117.128 336.56,117.128 Z M352.4,119 L350.992,119 L349.872,115.704 L345.36,115.704 L344.24,119 L342.88,119 L346.784,107.832 L348.496,107.832 L352.4,119 Z M349.536,114.52 L347.648,109.08 L347.568,109.08 L345.68,114.52 L349.536,114.52 Z M358.208,119 L353.728,119 L353.728,117.88 L355.296,117.88 L355.296,108.952 L353.728,108.952 L353.728,107.832 L358.208,107.832 L358.208,108.952 L356.64,108.952 L356.64,117.88 L358.208,117.88 L358.208,119 Z M28.464,143.192 C26.224,143.192 24.752,141.496 24.752,138.872 C24.752,136.248 26.224,134.552 28.464,134.552 C30.672,134.552 32.032,136.248 32.032,138.584 L32.032,139.192 L26.096,139.192 L26.096,139.576 C26.096,141 27.008,142.072 28.544,142.072 C29.584,142.072 30.384,141.56 30.816,140.648 L31.728,141.304 C31.2,142.424 30.016,143.192 28.464,143.192 Z M28.464,135.624 C27.072,135.624 26.096,136.68 26.096,138.12 L26.096,138.232 L30.656,138.232 L30.656,138.056 C30.656,136.6 29.776,135.624 28.464,135.624 Z M35.424,143 L34.144,143 L34.144,134.744 L35.424,134.744 L35.424,136.088 L35.488,136.088 C35.888,135.16 36.592,134.552 37.824,134.552 C39.52,134.552 40.592,135.704 40.592,137.704 L40.592,143 L39.312,143 L39.312,137.928 C39.312,136.456 38.672,135.704 37.44,135.704 C36.416,135.704 35.424,136.216 35.424,137.272 L35.424,143 Z M49.952,143 L49.232,143 C48.288,143 47.904,142.424 47.808,141.656 L47.728,141.656 C47.376,142.664 46.496,143.192 45.344,143.192 C43.6,143.192 42.576,142.232 42.576,140.696 C42.576,139.144 43.696,138.28 46.096,138.28 L47.728,138.28 L47.728,137.464 C47.728,136.296 47.088,135.656 45.776,135.656 C44.784,135.656 44.128,136.136 43.68,136.888 L42.912,136.168 C43.36,135.288 44.352,134.552 45.84,134.552 C47.824,134.552 49.008,135.592 49.008,137.336 L49.008,141.88 L49.952,141.88 L49.952,143 Z M45.552,142.104 C46.816,142.104 47.728,141.448 47.728,140.6 L47.728,139.24 L46.032,139.24 C44.576,139.24 43.92,139.688 43.92,140.488 L43.92,140.824 C43.92,141.64 44.56,142.104 45.552,142.104 Z M51.776,143 L51.776,131.16 L53.056,131.16 L53.056,136.088 L53.12,136.088 C53.552,135.048 54.4,134.552 55.536,134.552 C57.6,134.552 58.896,136.232 58.896,138.872 C58.896,141.512 57.6,143.192 55.536,143.192 C54.4,143.192 53.616,142.68 53.12,141.656 L53.056,141.656 L53.056,143 L51.776,143 Z M55.184,142.04 C56.624,142.04 57.52,141.048 57.52,139.576 L57.52,138.168 C57.52,136.696 56.624,135.704 55.184,135.704 C54.016,135.704 53.056,136.376 53.056,137.288 L53.056,140.36 C53.056,141.432 54.016,142.04 55.184,142.04 Z M63.552,143 L62.416,143 C61.536,143 61.056,142.44 61.056,141.672 L61.056,131.16 L62.336,131.16 L62.336,141.88 L63.552,141.88 L63.552,143 Z M68.512,143.192 C66.272,143.192 64.8,141.496 64.8,138.872 C64.8,136.248 66.272,134.552 68.512,134.552 C70.72,134.552 72.08,136.248 72.08,138.584 L72.08,139.192 L66.144,139.192 L66.144,139.576 C66.144,141 67.056,142.072 68.592,142.072 C69.632,142.072 70.432,141.56 70.864,140.648 L71.776,141.304 C71.248,142.424 70.064,143.192 68.512,143.192 Z M68.512,135.624 C67.12,135.624 66.144,136.68 66.144,138.12 L66.144,138.232 L70.704,138.232 L70.704,138.056 C70.704,136.6 69.824,135.624 68.512,135.624 Z M76.672,143.192 C75.152,143.192 74.144,142.552 73.408,141.576 L74.32,140.84 C74.96,141.64 75.728,142.104 76.768,142.104 C77.856,142.104 78.496,141.608 78.496,140.76 C78.496,140.12 78.144,139.624 77.056,139.464 L76.4,139.368 C74.88,139.144 73.744,138.52 73.744,136.984 C73.744,135.352 75.008,134.552 76.688,134.552 C78.016,134.552 78.896,135.048 79.568,135.88 L78.72,136.648 C78.352,136.136 77.648,135.64 76.592,135.64 C75.536,135.64 74.976,136.136 74.976,136.92 C74.976,137.72 75.536,138.04 76.56,138.2 L77.2,138.296 C79.024,138.568 79.728,139.368 79.728,140.616 C79.728,142.216 78.56,143.192 76.672,143.192 Z M87.04,143 L85.76,143 L85.76,134.744 L87.04,134.744 L87.04,136.088 L87.104,136.088 C87.504,135.16 88.208,134.552 89.44,134.552 C91.136,134.552 92.208,135.704 92.208,137.704 L92.208,143 L90.928,143 L90.928,137.928 C90.928,136.456 90.288,135.704 89.056,135.704 C88.032,135.704 87.04,136.216 87.04,137.272 L87.04,143 Z M97.952,143.192 C95.712,143.192 94.24,141.496 94.24,138.872 C94.24,136.248 95.712,134.552 97.952,134.552 C100.16,134.552 101.52,136.248 101.52,138.584 L101.52,139.192 L95.584,139.192 L95.584,139.576 C95.584,141 96.496,142.072 98.032,142.072 C99.072,142.072 99.872,141.56 100.304,140.648 L101.216,141.304 C100.688,142.424 99.504,143.192 97.952,143.192 Z M97.952,135.624 C96.56,135.624 95.584,136.68 95.584,138.12 L95.584,138.232 L100.144,138.232 L100.144,138.056 C100.144,136.6 99.264,135.624 97.952,135.624 Z M104.896,143 L102.688,134.744 L103.936,134.744 L104.816,138.312 L105.696,141.928 L105.728,141.928 L106.736,138.312 L107.776,134.744 L108.912,134.744 L109.984,138.312 L111.008,141.928 L111.04,141.928 L111.888,138.312 L112.784,134.744 L113.984,134.744 L111.792,143 L110.208,143 L109.056,139.032 L108.336,136.52 L108.304,136.52 L107.6,139.032 L106.448,143 L104.896,143 Z M120.96,143 L118.752,134.744 L120,134.744 L120.88,138.312 L121.76,141.928 L121.792,141.928 L122.8,138.312 L123.84,134.744 L124.976,134.744 L126.048,138.312 L127.072,141.928 L127.104,141.928 L127.952,138.312 L128.848,134.744 L130.048,134.744 L127.856,143 L126.272,143 L125.12,139.032 L124.4,136.52 L124.368,136.52 L123.664,139.032 L122.512,143 L120.96,143 Z M138.48,143 L137.76,143 C136.816,143 136.432,142.424 136.336,141.656 L136.256,141.656 C135.904,142.664 135.024,143.192 133.872,143.192 C132.128,143.192 131.104,142.232 131.104,140.696 C131.104,139.144 132.224,138.28 134.624,138.28 L136.256,138.28 L136.256,137.464 C136.256,136.296 135.616,135.656 134.304,135.656 C133.312,135.656 132.656,136.136 132.208,136.888 L131.44,136.168 C131.888,135.288 132.88,134.552 134.368,134.552 C136.352,134.552 137.536,135.592 137.536,137.336 L137.536,141.88 L138.48,141.88 L138.48,143 Z M134.08,142.104 C135.344,142.104 136.256,141.448 136.256,140.6 L136.256,139.24 L134.56,139.24 C133.104,139.24 132.448,139.688 132.448,140.488 L132.448,140.824 C132.448,141.64 133.088,142.104 134.08,142.104 Z M143.312,140.36 L145.312,134.744 L146.576,134.744 L142.88,144.92 C142.512,145.912 142.176,146.2 140.96,146.2 L140.304,146.2 L140.304,145.08 L141.6,145.08 L142.224,143.32 L139.136,134.744 L140.416,134.744 L142.4,140.36 L142.784,141.704 L142.864,141.704 L143.312,140.36 Z M150.624,143.192 C149.104,143.192 148.096,142.552 147.36,141.576 L148.272,140.84 C148.912,141.64 149.68,142.104 150.72,142.104 C151.808,142.104 152.448,141.608 152.448,140.76 C152.448,140.12 152.096,139.624 151.008,139.464 L150.352,139.368 C148.832,139.144 147.696,138.52 147.696,136.984 C147.696,135.352 148.96,134.552 150.64,134.552 C151.968,134.552 152.848,135.048 153.52,135.88 L152.672,136.648 C152.304,136.136 151.6,135.64 150.544,135.64 C149.488,135.64 148.928,136.136 148.928,136.92 C148.928,137.72 149.488,138.04 150.512,138.2 L151.152,138.296 C152.976,138.568 153.68,139.368 153.68,140.616 C153.68,142.216 152.512,143.192 150.624,143.192 Z M162.832,143.192 C160.624,143.192 159.104,141.496 159.104,138.872 C159.104,136.248 160.624,134.552 162.832,134.552 C165.04,134.552 166.56,136.248 166.56,138.872 C166.56,141.496 165.04,143.192 162.832,143.192 Z M162.832,142.056 C164.208,142.056 165.184,141.208 165.184,139.464 L165.184,138.28 C165.184,136.536 164.208,135.688 162.832,135.688 C161.456,135.688 160.48,136.536 160.48,138.28 L160.48,139.464 C160.48,141.208 161.456,142.056 162.832,142.056 Z M169.024,143 L169.024,135.864 L167.68,135.864 L167.68,134.744 L169.024,134.744 L169.024,133.08 C169.024,131.944 169.616,131.16 170.832,131.16 L172.08,131.16 L172.08,132.28 L170.304,132.28 L170.304,134.744 L172.08,134.744 L172.08,135.864 L170.304,135.864 L170.304,143 L169.024,143 Z M182.816,143 L182.816,141.656 L182.752,141.656 C182.256,142.68 181.472,143.192 180.336,143.192 C178.272,143.192 176.976,141.512 176.976,138.872 C176.976,136.232 178.272,134.552 180.336,134.552 C181.472,134.552 182.32,135.048 182.752,136.088 L182.816,136.088 L182.816,131.16 L184.096,131.16 L184.096,143 L182.816,143 Z M180.688,142.04 C181.856,142.04 182.816,141.432 182.816,140.36 L182.816,137.288 C182.816,136.376 181.856,135.704 180.688,135.704 C179.248,135.704 178.352,136.696 178.352,138.168 L178.352,139.576 C178.352,141.048 179.248,142.04 180.688,142.04 Z M189.936,143.192 C187.728,143.192 186.208,141.496 186.208,138.872 C186.208,136.248 187.728,134.552 189.936,134.552 C192.144,134.552 193.664,136.248 193.664,138.872 C193.664,141.496 192.144,143.192 189.936,143.192 Z M189.936,142.056 C191.312,142.056 192.288,141.208 192.288,139.464 L192.288,138.28 C192.288,136.536 191.312,135.688 189.936,135.688 C188.56,135.688 187.584,136.536 187.584,138.28 L187.584,139.464 C187.584,141.208 188.56,142.056 189.936,142.056 Z M196.416,132.808 C195.872,132.808 195.632,132.52 195.632,132.088 L195.632,131.88 C195.632,131.448 195.872,131.16 196.416,131.16 C196.96,131.16 197.2,131.448 197.2,131.88 L197.2,132.088 C197.2,132.52 196.96,132.808 196.416,132.808 Z M195.776,143 L195.776,134.744 L197.056,134.744 L197.056,143 L195.776,143 Z M201.056,143 L199.776,143 L199.776,134.744 L201.056,134.744 L201.056,136.088 L201.12,136.088 C201.52,135.16 202.224,134.552 203.456,134.552 C205.152,134.552 206.224,135.704 206.224,137.704 L206.224,143 L204.944,143 L204.944,137.928 C204.944,136.456 204.304,135.704 203.072,135.704 C202.048,135.704 201.056,136.216 201.056,137.272 L201.056,143 Z M215.824,143.912 C215.824,145.608 214.48,146.392 211.824,146.392 C209.248,146.392 208.192,145.656 208.192,144.36 C208.192,143.464 208.688,142.984 209.504,142.76 L209.504,142.584 C209.04,142.36 208.768,141.992 208.768,141.432 C208.768,140.6 209.36,140.2 210.192,139.992 L210.192,139.928 C209.216,139.464 208.64,138.552 208.64,137.4 C208.64,135.72 209.872,134.552 211.744,134.552 C212.336,134.552 212.864,134.664 213.312,134.872 L213.312,134.728 C213.312,134.088 213.584,133.624 214.272,133.624 L215.504,133.624 L215.504,134.744 L213.936,134.744 L213.936,135.272 C214.528,135.784 214.88,136.52 214.88,137.4 C214.88,139.08 213.648,140.248 211.76,140.248 C211.488,140.248 211.2,140.216 210.96,140.168 C210.416,140.312 209.872,140.584 209.872,141.096 C209.872,141.592 210.384,141.72 211.136,141.72 L212.896,141.72 C214.944,141.72 215.824,142.552 215.824,143.912 Z M214.624,144.008 C214.624,143.352 214.192,142.92 212.912,142.92 L210.16,142.92 C209.632,143.16 209.392,143.528 209.392,144.04 C209.392,144.76 209.888,145.352 211.184,145.352 L212.368,145.352 C213.792,145.352 214.624,144.904 214.624,144.008 Z M211.76,139.224 C212.848,139.224 213.536,138.712 213.536,137.624 L213.536,137.176 C213.536,136.088 212.848,135.576 211.76,135.576 C210.672,135.576 209.984,136.088 209.984,137.176 L209.984,137.624 C209.984,138.712 210.672,139.224 211.76,139.224 Z M221.088,143 L221.088,131.16 L222.368,131.16 L222.368,136.088 L222.432,136.088 C222.864,135.048 223.712,134.552 224.848,134.552 C226.912,134.552 228.208,136.232 228.208,138.872 C228.208,141.512 226.912,143.192 224.848,143.192 C223.712,143.192 222.928,142.68 222.432,141.656 L222.368,141.656 L222.368,143 L221.088,143 Z M224.496,142.04 C225.936,142.04 226.832,141.048 226.832,139.576 L226.832,138.168 C226.832,136.696 225.936,135.704 224.496,135.704 C223.328,135.704 222.368,136.376 222.368,137.288 L222.368,140.36 C222.368,141.432 223.328,142.04 224.496,142.04 Z M235.456,143 L235.456,141.656 L235.392,141.656 C235.072,142.44 234.448,143.192 233.072,143.192 C231.376,143.192 230.288,142.04 230.288,140.04 L230.288,134.744 L231.568,134.744 L231.568,139.816 C231.568,141.288 232.224,142.04 233.456,142.04 C234.464,142.04 235.456,141.544 235.456,140.456 L235.456,134.744 L236.736,134.744 L236.736,143 L235.456,143 Z M241.936,143.192 C240.416,143.192 239.408,142.552 238.672,141.576 L239.584,140.84 C240.224,141.64 240.992,142.104 242.032,142.104 C243.12,142.104 243.76,141.608 243.76,140.76 C243.76,140.12 243.408,139.624 242.32,139.464 L241.664,139.368 C240.144,139.144 239.008,138.52 239.008,136.984 C239.008,135.352 240.272,134.552 241.952,134.552 C243.28,134.552 244.16,135.048 244.832,135.88 L243.984,136.648 C243.616,136.136 242.912,135.64 241.856,135.64 C240.8,135.64 240.24,136.136 240.24,136.92 C240.24,137.72 240.8,138.04 241.824,138.2 L242.464,138.296 C244.288,138.568 244.992,139.368 244.992,140.616 C244.992,142.216 243.824,143.192 241.936,143.192 Z M247.888,132.808 C247.344,132.808 247.104,132.52 247.104,132.088 L247.104,131.88 C247.104,131.448 247.344,131.16 247.888,131.16 C248.432,131.16 248.672,131.448 248.672,131.88 L248.672,132.088 C248.672,132.52 248.432,132.808 247.888,132.808 Z M247.248,143 L247.248,134.744 L248.528,134.744 L248.528,143 L247.248,143 Z M252.528,143 L251.248,143 L251.248,134.744 L252.528,134.744 L252.528,136.088 L252.592,136.088 C252.992,135.16 253.696,134.552 254.928,134.552 C256.624,134.552 257.696,135.704 257.696,137.704 L257.696,143 L256.416,143 L256.416,137.928 C256.416,136.456 255.776,135.704 254.544,135.704 C253.52,135.704 252.528,136.216 252.528,137.272 L252.528,143 Z M263.44,143.192 C261.2,143.192 259.728,141.496 259.728,138.872 C259.728,136.248 261.2,134.552 263.44,134.552 C265.648,134.552 267.008,136.248 267.008,138.584 L267.008,139.192 L261.072,139.192 L261.072,139.576 C261.072,141 261.984,142.072 263.52,142.072 C264.56,142.072 265.36,141.56 265.792,140.648 L266.704,141.304 C266.176,142.424 264.992,143.192 263.44,143.192 Z M263.44,135.624 C262.048,135.624 261.072,136.68 261.072,138.12 L261.072,138.232 L265.632,138.232 L265.632,138.056 C265.632,136.6 264.752,135.624 263.44,135.624 Z M271.6,143.192 C270.08,143.192 269.072,142.552 268.336,141.576 L269.248,140.84 C269.888,141.64 270.656,142.104 271.696,142.104 C272.784,142.104 273.424,141.608 273.424,140.76 C273.424,140.12 273.072,139.624 271.984,139.464 L271.328,139.368 C269.808,139.144 268.672,138.52 268.672,136.984 C268.672,135.352 269.936,134.552 271.616,134.552 C272.944,134.552 273.824,135.048 274.496,135.88 L273.648,136.648 C273.28,136.136 272.576,135.64 271.52,135.64 C270.464,135.64 269.904,136.136 269.904,136.92 C269.904,137.72 270.464,138.04 271.488,138.2 L272.128,138.296 C273.952,138.568 274.656,139.368 274.656,140.616 C274.656,142.216 273.488,143.192 271.6,143.192 Z M279.296,143.192 C277.776,143.192 276.768,142.552 276.032,141.576 L276.944,140.84 C277.584,141.64 278.352,142.104 279.392,142.104 C280.48,142.104 281.12,141.608 281.12,140.76 C281.12,140.12 280.768,139.624 279.68,139.464 L279.024,139.368 C277.504,139.144 276.368,138.52 276.368,136.984 C276.368,135.352 277.632,134.552 279.312,134.552 C280.64,134.552 281.52,135.048 282.192,135.88 L281.344,136.648 C280.976,136.136 280.272,135.64 279.216,135.64 C278.16,135.64 277.6,136.136 277.6,136.92 C277.6,137.72 278.16,138.04 279.184,138.2 L279.824,138.296 C281.648,138.568 282.352,139.368 282.352,140.616 C282.352,142.216 281.184,143.192 279.296,143.192 Z M285.344,143.192 C284.672,143.192 284.368,142.808 284.368,142.264 L284.368,142.056 C284.368,141.512 284.672,141.128 285.344,141.128 C286.016,141.128 286.32,141.512 286.32,142.056 L286.32,142.264 C286.32,142.808 286.016,143.192 285.344,143.192 Z M299.776,143 L299.776,137.944 L294.128,137.944 L294.128,143 L292.784,143 L292.784,131.832 L294.128,131.832 L294.128,136.76 L299.776,136.76 L299.776,131.832 L301.12,131.832 L301.12,143 L299.776,143 Z M307.072,143.192 C304.832,143.192 303.36,141.496 303.36,138.872 C303.36,136.248 304.832,134.552 307.072,134.552 C309.28,134.552 310.64,136.248 310.64,138.584 L310.64,139.192 L304.704,139.192 L304.704,139.576 C304.704,141 305.616,142.072 307.152,142.072 C308.192,142.072 308.992,141.56 309.424,140.648 L310.336,141.304 C309.808,142.424 308.624,143.192 307.072,143.192 Z M307.072,135.624 C305.68,135.624 304.704,136.68 304.704,138.12 L304.704,138.232 L309.264,138.232 L309.264,138.056 C309.264,136.6 308.384,135.624 307.072,135.624 Z M314.032,143 L312.752,143 L312.752,134.744 L314.032,134.744 L314.032,136.264 L314.112,136.264 C314.4,135.48 315.152,134.744 316.496,134.744 L316.992,134.744 L316.992,136.024 L316.24,136.024 C314.864,136.024 314.032,136.616 314.032,137.4 L314.032,143 Z M321.648,143.192 C319.408,143.192 317.936,141.496 317.936,138.872 C317.936,136.248 319.408,134.552 321.648,134.552 C323.856,134.552 325.216,136.248 325.216,138.584 L325.216,139.192 L319.28,139.192 L319.28,139.576 C319.28,141 320.192,142.072 321.728,142.072 C322.768,142.072 323.568,141.56 324,140.648 L324.912,141.304 C324.384,142.424 323.2,143.192 321.648,143.192 Z M321.648,135.624 C320.256,135.624 319.28,136.68 319.28,138.12 L319.28,138.232 L323.84,138.232 L323.84,138.056 C323.84,136.6 322.96,135.624 321.648,135.624 Z M337.824,143 L337.104,143 C336.16,143 335.776,142.424 335.68,141.656 L335.6,141.656 C335.248,142.664 334.368,143.192 333.216,143.192 C331.472,143.192 330.448,142.232 330.448,140.696 C330.448,139.144 331.568,138.28 333.968,138.28 L335.6,138.28 L335.6,137.464 C335.6,136.296 334.96,135.656 333.648,135.656 C332.656,135.656 332,136.136 331.552,136.888 L330.784,136.168 C331.232,135.288 332.224,134.552 333.712,134.552 C335.696,134.552 336.88,135.592 336.88,137.336 L336.88,141.88 L337.824,141.88 L337.824,143 Z M333.424,142.104 C334.688,142.104 335.6,141.448 335.6,140.6 L335.6,139.24 L333.904,139.24 C332.448,139.24 331.792,139.688 331.792,140.488 L331.792,140.824 C331.792,141.64 332.432,142.104 333.424,142.104 Z M340.928,143 L339.648,143 L339.648,134.744 L340.928,134.744 L340.928,136.264 L341.008,136.264 C341.296,135.48 342.048,134.744 343.392,134.744 L343.888,134.744 L343.888,136.024 L343.136,136.024 C341.76,136.024 340.928,136.616 340.928,137.4 L340.928,143 Z M348.544,143.192 C346.304,143.192 344.832,141.496 344.832,138.872 C344.832,136.248 346.304,134.552 348.544,134.552 C350.752,134.552 352.112,136.248 352.112,138.584 L352.112,139.192 L346.176,139.192 L346.176,139.576 C346.176,141 347.088,142.072 348.624,142.072 C349.664,142.072 350.464,141.56 350.896,140.648 L351.808,141.304 C351.28,142.424 350.096,143.192 348.544,143.192 Z M348.544,135.624 C347.152,135.624 346.176,136.68 346.176,138.12 L346.176,138.232 L350.736,138.232 L350.736,138.056 C350.736,136.6 349.856,135.624 348.544,135.624 Z M360.48,143.192 C358.96,143.192 357.952,142.552 357.216,141.576 L358.128,140.84 C358.768,141.64 359.536,142.104 360.576,142.104 C361.664,142.104 362.304,141.608 362.304,140.76 C362.304,140.12 361.952,139.624 360.864,139.464 L360.208,139.368 C358.688,139.144 357.552,138.52 357.552,136.984 C357.552,135.352 358.816,134.552 360.496,134.552 C361.824,134.552 362.704,135.048 363.376,135.88 L362.528,136.648 C362.16,136.136 361.456,135.64 360.4,135.64 C359.344,135.64 358.784,136.136 358.784,136.92 C358.784,137.72 359.344,138.04 360.368,138.2 L361.008,138.296 C362.832,138.568 363.536,139.368 363.536,140.616 C363.536,142.216 362.368,143.192 360.48,143.192 Z M366.432,132.808 C365.888,132.808 365.648,132.52 365.648,132.088 L365.648,131.88 C365.648,131.448 365.888,131.16 366.432,131.16 C366.976,131.16 367.216,131.448 367.216,131.88 L367.216,132.088 C367.216,132.52 366.976,132.808 366.432,132.808 Z M365.792,143 L365.792,134.744 L367.072,134.744 L367.072,143 L365.792,143 Z M368.768,143 L371.824,138.84 L368.896,134.744 L370.4,134.744 L372.496,137.816 L372.544,137.816 L374.72,134.744 L376.144,134.744 L373.232,138.744 L376.208,143 L374.704,143 L372.56,139.768 L372.512,139.768 L370.192,143 L368.768,143 Z M25.36,170.2 L25.36,158.744 L26.64,158.744 L26.64,160.088 L26.704,160.088 C27.136,159.048 27.984,158.552 29.12,158.552 C31.184,158.552 32.48,160.232 32.48,162.872 C32.48,165.512 31.184,167.192 29.12,167.192 C27.984,167.192 27.2,166.68 26.704,165.656 L26.64,165.656 L26.64,170.2 L25.36,170.2 Z M28.768,166.04 C30.208,166.04 31.104,165.048 31.104,163.576 L31.104,162.168 C31.104,160.696 30.208,159.704 28.768,159.704 C27.6,159.704 26.64,160.376 26.64,161.288 L26.64,164.36 C26.64,165.432 27.6,166.04 28.768,166.04 Z M37.76,167.192 C35.552,167.192 34.032,165.496 34.032,162.872 C34.032,160.248 35.552,158.552 37.76,158.552 C39.968,158.552 41.488,160.248 41.488,162.872 C41.488,165.496 39.968,167.192 37.76,167.192 Z M37.76,166.056 C39.136,166.056 40.112,165.208 40.112,163.464 L40.112,162.28 C40.112,160.536 39.136,159.688 37.76,159.688 C36.384,159.688 35.408,160.536 35.408,162.28 L35.408,163.464 C35.408,165.208 36.384,166.056 37.76,166.056 Z M44.864,167 L42.656,158.744 L43.904,158.744 L44.784,162.312 L45.664,165.928 L45.696,165.928 L46.704,162.312 L47.744,158.744 L48.88,158.744 L49.952,162.312 L50.976,165.928 L51.008,165.928 L51.856,162.312 L52.752,158.744 L53.952,158.744 L51.76,167 L50.176,167 L49.024,163.032 L48.304,160.52 L48.272,160.52 L47.568,163.032 L46.416,167 L44.864,167 Z M58.832,167.192 C56.592,167.192 55.12,165.496 55.12,162.872 C55.12,160.248 56.592,158.552 58.832,158.552 C61.04,158.552 62.4,160.248 62.4,162.584 L62.4,163.192 L56.464,163.192 L56.464,163.576 C56.464,165 57.376,166.072 58.912,166.072 C59.952,166.072 60.752,165.56 61.184,164.648 L62.096,165.304 C61.568,166.424 60.384,167.192 58.832,167.192 Z M58.832,159.624 C57.44,159.624 56.464,160.68 56.464,162.12 L56.464,162.232 L61.024,162.232 L61.024,162.056 C61.024,160.6 60.144,159.624 58.832,159.624 Z M65.792,167 L64.512,167 L64.512,158.744 L65.792,158.744 L65.792,160.264 L65.872,160.264 C66.16,159.48 66.912,158.744 68.256,158.744 L68.752,158.744 L68.752,160.024 L68,160.024 C66.624,160.024 65.792,160.616 65.792,161.4 L65.792,167 Z M70.896,167 L70.896,159.864 L69.552,159.864 L69.552,158.744 L70.896,158.744 L70.896,157.08 C70.896,155.944 71.488,155.16 72.704,155.16 L73.952,155.16 L73.952,156.28 L72.176,156.28 L72.176,158.744 L73.952,158.744 L73.952,159.864 L72.176,159.864 L72.176,167 L70.896,167 Z M80.72,167 L80.72,165.656 L80.656,165.656 C80.336,166.44 79.712,167.192 78.336,167.192 C76.64,167.192 75.552,166.04 75.552,164.04 L75.552,158.744 L76.832,158.744 L76.832,163.816 C76.832,165.288 77.488,166.04 78.72,166.04 C79.728,166.04 80.72,165.544 80.72,164.456 L80.72,158.744 L82,158.744 L82,167 L80.72,167 Z M87.216,167 L86.08,167 C85.2,167 84.72,166.44 84.72,165.672 L84.72,155.16 L86,155.16 L86,165.88 L87.216,165.88 L87.216,167 Z M94.192,167 L91.984,158.744 L93.232,158.744 L94.112,162.312 L94.992,165.928 L95.024,165.928 L96.032,162.312 L97.072,158.744 L98.208,158.744 L99.28,162.312 L100.304,165.928 L100.336,165.928 L101.184,162.312 L102.08,158.744 L103.28,158.744 L101.088,167 L99.504,167 L98.352,163.032 L97.632,160.52 L97.6,160.52 L96.896,163.032 L95.744,167 L94.192,167 Z M111.712,167 L110.992,167 C110.048,167 109.664,166.424 109.568,165.656 L109.488,165.656 C109.136,166.664 108.256,167.192 107.104,167.192 C105.36,167.192 104.336,166.232 104.336,164.696 C104.336,163.144 105.456,162.28 107.856,162.28 L109.488,162.28 L109.488,161.464 C109.488,160.296 108.848,159.656 107.536,159.656 C106.544,159.656 105.888,160.136 105.44,160.888 L104.672,160.168 C105.12,159.288 106.112,158.552 107.6,158.552 C109.584,158.552 110.768,159.592 110.768,161.336 L110.768,165.88 L111.712,165.88 L111.712,167 Z M107.312,166.104 C108.576,166.104 109.488,165.448 109.488,164.6 L109.488,163.24 L107.792,163.24 C106.336,163.24 105.68,163.688 105.68,164.488 L105.68,164.824 C105.68,165.64 106.32,166.104 107.312,166.104 Z M116.544,164.36 L118.544,158.744 L119.808,158.744 L116.112,168.92 C115.744,169.912 115.408,170.2 114.192,170.2 L113.536,170.2 L113.536,169.08 L114.832,169.08 L115.456,167.32 L112.368,158.744 L113.648,158.744 L115.632,164.36 L116.016,165.704 L116.096,165.704 L116.544,164.36 Z M123.856,167.192 C122.336,167.192 121.328,166.552 120.592,165.576 L121.504,164.84 C122.144,165.64 122.912,166.104 123.952,166.104 C125.04,166.104 125.68,165.608 125.68,164.76 C125.68,164.12 125.328,163.624 124.24,163.464 L123.584,163.368 C122.064,163.144 120.928,162.52 120.928,160.984 C120.928,159.352 122.192,158.552 123.872,158.552 C125.2,158.552 126.08,159.048 126.752,159.88 L125.904,160.648 C125.536,160.136 124.832,159.64 123.776,159.64 C122.72,159.64 122.16,160.136 122.16,160.92 C122.16,161.72 122.72,162.04 123.744,162.2 L124.384,162.296 C126.208,162.568 126.912,163.368 126.912,164.616 C126.912,166.216 125.744,167.192 123.856,167.192 Z M136.112,167 L134.624,167 L131.904,155.832 L133.328,155.832 L134.528,161.208 L135.456,165.384 L135.488,165.384 L136.528,161.208 L137.936,155.832 L139.472,155.832 L140.832,161.208 L141.872,165.368 L141.92,165.368 L142.88,161.208 L144.144,155.832 L145.52,155.832 L142.656,167 L141.168,167 L139.712,161.432 L138.688,157.336 L138.656,157.336 L137.6,161.432 L136.112,167 Z M153.76,167 L153.04,167 C152.096,167 151.712,166.424 151.616,165.656 L151.536,165.656 C151.184,166.664 150.304,167.192 149.152,167.192 C147.408,167.192 146.384,166.232 146.384,164.696 C146.384,163.144 147.504,162.28 149.904,162.28 L151.536,162.28 L151.536,161.464 C151.536,160.296 150.896,159.656 149.584,159.656 C148.592,159.656 147.936,160.136 147.488,160.888 L146.72,160.168 C147.168,159.288 148.16,158.552 149.648,158.552 C151.632,158.552 152.816,159.592 152.816,161.336 L152.816,165.88 L153.76,165.88 L153.76,167 Z M149.36,166.104 C150.624,166.104 151.536,165.448 151.536,164.6 L151.536,163.24 L149.84,163.24 C148.384,163.24 147.728,163.688 147.728,164.488 L147.728,164.824 C147.728,165.64 148.368,166.104 149.36,166.104 Z M159.008,167 L157.408,167 C156.528,167 156.048,166.44 156.048,165.64 L156.048,159.864 L154.688,159.864 L154.688,158.744 L155.456,158.744 C156,158.744 156.176,158.552 156.176,157.992 L156.176,156.456 L157.328,156.456 L157.328,158.744 L159.136,158.744 L159.136,159.864 L157.328,159.864 L157.328,165.88 L159.008,165.88 L159.008,167 Z M163.68,167.192 C162.16,167.192 161.152,166.552 160.416,165.576 L161.328,164.84 C161.968,165.64 162.736,166.104 163.776,166.104 C164.864,166.104 165.504,165.608 165.504,164.76 C165.504,164.12 165.152,163.624 164.064,163.464 L163.408,163.368 C161.888,163.144 160.752,162.52 160.752,160.984 C160.752,159.352 162.016,158.552 163.696,158.552 C165.024,158.552 165.904,159.048 166.576,159.88 L165.728,160.648 C165.36,160.136 164.656,159.64 163.6,159.64 C162.544,159.64 161.984,160.136 161.984,160.92 C161.984,161.72 162.544,162.04 163.568,162.2 L164.208,162.296 C166.032,162.568 166.736,163.368 166.736,164.616 C166.736,166.216 165.568,167.192 163.68,167.192 Z M172.112,167.192 C169.904,167.192 168.384,165.496 168.384,162.872 C168.384,160.248 169.904,158.552 172.112,158.552 C174.32,158.552 175.84,160.248 175.84,162.872 C175.84,165.496 174.32,167.192 172.112,167.192 Z M172.112,166.056 C173.488,166.056 174.464,165.208 174.464,163.464 L174.464,162.28 C174.464,160.536 173.488,159.688 172.112,159.688 C170.736,159.688 169.76,160.536 169.76,162.28 L169.76,163.464 C169.76,165.208 170.736,166.056 172.112,166.056 Z M179.232,167 L177.952,167 L177.952,158.744 L179.232,158.744 L179.232,160.088 L179.296,160.088 C179.696,159.16 180.4,158.552 181.632,158.552 C183.328,158.552 184.4,159.704 184.4,161.704 L184.4,167 L183.12,167 L183.12,161.928 C183.12,160.456 182.48,159.704 181.248,159.704 C180.224,159.704 179.232,160.216 179.232,161.272 L179.232,167 Z M193.888,167.192 C191.568,167.192 190.208,165.512 190.208,162.872 C190.208,160.232 191.568,158.552 193.888,158.552 C195.52,158.552 196.496,159.352 196.976,160.488 L195.904,161.032 C195.6,160.184 194.896,159.688 193.888,159.688 C192.368,159.688 191.584,160.728 191.584,162.168 L191.584,163.576 C191.584,165.016 192.368,166.056 193.888,166.056 C194.928,166.056 195.68,165.56 196.128,164.616 L197.056,165.24 C196.528,166.424 195.456,167.192 193.888,167.192 Z M205.584,167 L204.864,167 C203.92,167 203.536,166.424 203.44,165.656 L203.36,165.656 C203.008,166.664 202.128,167.192 200.976,167.192 C199.232,167.192 198.208,166.232 198.208,164.696 C198.208,163.144 199.328,162.28 201.728,162.28 L203.36,162.28 L203.36,161.464 C203.36,160.296 202.72,159.656 201.408,159.656 C200.416,159.656 199.76,160.136 199.312,160.888 L198.544,160.168 C198.992,159.288 199.984,158.552 201.472,158.552 C203.456,158.552 204.64,159.592 204.64,161.336 L204.64,165.88 L205.584,165.88 L205.584,167 Z M201.184,166.104 C202.448,166.104 203.36,165.448 203.36,164.6 L203.36,163.24 L201.664,163.24 C200.208,163.24 199.552,163.688 199.552,164.488 L199.552,164.824 C199.552,165.64 200.192,166.104 201.184,166.104 Z M208.688,167 L207.408,167 L207.408,158.744 L208.688,158.744 L208.688,160.088 L208.752,160.088 C209.152,159.16 209.856,158.552 211.088,158.552 C212.784,158.552 213.856,159.704 213.856,161.704 L213.856,167 L212.576,167 L212.576,161.928 C212.576,160.456 211.936,159.704 210.704,159.704 C209.68,159.704 208.688,160.216 208.688,161.272 L208.688,167 Z M220.912,156.808 C220.368,156.808 220.128,156.52 220.128,156.088 L220.128,155.88 C220.128,155.448 220.368,155.16 220.912,155.16 C221.456,155.16 221.696,155.448 221.696,155.88 L221.696,156.088 C221.696,156.52 221.456,156.808 220.912,156.808 Z M220.272,167 L220.272,158.744 L221.552,158.744 L221.552,167 L220.272,167 Z M225.552,167 L224.272,167 L224.272,158.744 L225.552,158.744 L225.552,160.088 L225.616,160.088 C225.984,159.24 226.56,158.552 227.84,158.552 C228.928,158.552 229.92,159.048 230.368,160.232 L230.4,160.232 C230.704,159.336 231.504,158.552 232.912,158.552 C234.592,158.552 235.6,159.704 235.6,161.704 L235.6,167 L234.32,167 L234.32,161.928 C234.32,160.472 233.76,159.704 232.512,159.704 C231.504,159.704 230.576,160.216 230.576,161.272 L230.576,167 L229.296,167 L229.296,161.928 C229.296,160.456 228.736,159.704 227.52,159.704 C226.512,159.704 225.552,160.216 225.552,161.272 L225.552,167 Z M238.24,170.2 L238.24,158.744 L239.52,158.744 L239.52,160.088 L239.584,160.088 C240.016,159.048 240.864,158.552 242,158.552 C244.064,158.552 245.36,160.232 245.36,162.872 C245.36,165.512 244.064,167.192 242,167.192 C240.864,167.192 240.08,166.68 239.584,165.656 L239.52,165.656 L239.52,170.2 L238.24,170.2 Z M241.648,166.04 C243.088,166.04 243.984,165.048 243.984,163.576 L243.984,162.168 C243.984,160.696 243.088,159.704 241.648,159.704 C240.48,159.704 239.52,160.376 239.52,161.288 L239.52,164.36 C239.52,165.432 240.48,166.04 241.648,166.04 Z M248.8,167 L247.52,167 L247.52,158.744 L248.8,158.744 L248.8,160.264 L248.88,160.264 C249.168,159.48 249.92,158.744 251.264,158.744 L251.76,158.744 L251.76,160.024 L251.008,160.024 C249.632,160.024 248.8,160.616 248.8,161.4 L248.8,167 Z M256.432,167.192 C254.224,167.192 252.704,165.496 252.704,162.872 C252.704,160.248 254.224,158.552 256.432,158.552 C258.64,158.552 260.16,160.248 260.16,162.872 C260.16,165.496 258.64,167.192 256.432,167.192 Z M256.432,166.056 C257.808,166.056 258.784,165.208 258.784,163.464 L258.784,162.28 C258.784,160.536 257.808,159.688 256.432,159.688 C255.056,159.688 254.08,160.536 254.08,162.28 L254.08,163.464 C254.08,165.208 255.056,166.056 256.432,166.056 Z M265.456,167 L263.968,167 L261.072,158.744 L262.352,158.744 L263.792,162.84 L264.688,165.656 L264.768,165.656 L265.664,162.84 L267.136,158.744 L268.368,158.744 L265.456,167 Z M272.992,167.192 C270.752,167.192 269.28,165.496 269.28,162.872 C269.28,160.248 270.752,158.552 272.992,158.552 C275.2,158.552 276.56,160.248 276.56,162.584 L276.56,163.192 L270.624,163.192 L270.624,163.576 C270.624,165 271.536,166.072 273.072,166.072 C274.112,166.072 274.912,165.56 275.344,164.648 L276.256,165.304 C275.728,166.424 274.544,167.192 272.992,167.192 Z M272.992,159.624 C271.6,159.624 270.624,160.68 270.624,162.12 L270.624,162.232 L275.184,162.232 L275.184,162.056 C275.184,160.6 274.304,159.624 272.992,159.624 Z M285.872,167 L284.272,167 C283.392,167 282.912,166.44 282.912,165.64 L282.912,159.864 L281.552,159.864 L281.552,158.744 L282.32,158.744 C282.864,158.744 283.04,158.552 283.04,157.992 L283.04,156.456 L284.192,156.456 L284.192,158.744 L286,158.744 L286,159.864 L284.192,159.864 L284.192,165.88 L285.872,165.88 L285.872,167 Z M288.064,167 L288.064,155.16 L289.344,155.16 L289.344,160.088 L289.408,160.088 C289.808,159.16 290.512,158.552 291.744,158.552 C293.44,158.552 294.512,159.704 294.512,161.704 L294.512,167 L293.232,167 L293.232,161.928 C293.232,160.456 292.592,159.704 291.36,159.704 C290.336,159.704 289.344,160.216 289.344,161.272 L289.344,167 L288.064,167 Z M300.256,167.192 C298.016,167.192 296.544,165.496 296.544,162.872 C296.544,160.248 298.016,158.552 300.256,158.552 C302.464,158.552 303.824,160.248 303.824,162.584 L303.824,163.192 L297.888,163.192 L297.888,163.576 C297.888,165 298.8,166.072 300.336,166.072 C301.376,166.072 302.176,165.56 302.608,164.648 L303.52,165.304 C302.992,166.424 301.808,167.192 300.256,167.192 Z M300.256,159.624 C298.864,159.624 297.888,160.68 297.888,162.12 L297.888,162.232 L302.448,162.232 L302.448,162.056 C302.448,160.6 301.568,159.624 300.256,159.624 Z M311.056,167 L308.848,158.744 L310.096,158.744 L310.976,162.312 L311.856,165.928 L311.888,165.928 L312.896,162.312 L313.936,158.744 L315.072,158.744 L316.144,162.312 L317.168,165.928 L317.2,165.928 L318.048,162.312 L318.944,158.744 L320.144,158.744 L317.952,167 L316.368,167 L315.216,163.032 L314.496,160.52 L314.464,160.52 L313.76,163.032 L312.608,167 L311.056,167 Z M328.576,167 L327.856,167 C326.912,167 326.528,166.424 326.432,165.656 L326.352,165.656 C326,166.664 325.12,167.192 323.968,167.192 C322.224,167.192 321.2,166.232 321.2,164.696 C321.2,163.144 322.32,162.28 324.72,162.28 L326.352,162.28 L326.352,161.464 C326.352,160.296 325.712,159.656 324.4,159.656 C323.408,159.656 322.752,160.136 322.304,160.888 L321.536,160.168 C321.984,159.288 322.976,158.552 324.464,158.552 C326.448,158.552 327.632,159.592 327.632,161.336 L327.632,165.88 L328.576,165.88 L328.576,167 Z M324.176,166.104 C325.44,166.104 326.352,165.448 326.352,164.6 L326.352,163.24 L324.656,163.24 C323.2,163.24 322.544,163.688 322.544,164.488 L322.544,164.824 C322.544,165.64 323.184,166.104 324.176,166.104 Z M333.408,164.36 L335.408,158.744 L336.672,158.744 L332.976,168.92 C332.608,169.912 332.272,170.2 331.056,170.2 L330.4,170.2 L330.4,169.08 L331.696,169.08 L332.32,167.32 L329.232,158.744 L330.512,158.744 L332.496,164.36 L332.88,165.704 L332.96,165.704 L333.408,164.36 Z M345.168,164.36 L347.168,158.744 L348.432,158.744 L344.736,168.92 C344.368,169.912 344.032,170.2 342.816,170.2 L342.16,170.2 L342.16,169.08 L343.456,169.08 L344.08,167.32 L340.992,158.744 L342.272,158.744 L344.256,164.36 L344.64,165.704 L344.72,165.704 L345.168,164.36 Z M353.104,167.192 C350.896,167.192 349.376,165.496 349.376,162.872 C349.376,160.248 350.896,158.552 353.104,158.552 C355.312,158.552 356.832,160.248 356.832,162.872 C356.832,165.496 355.312,167.192 353.104,167.192 Z M353.104,166.056 C354.48,166.056 355.456,165.208 355.456,163.464 L355.456,162.28 C355.456,160.536 354.48,159.688 353.104,159.688 C351.728,159.688 350.752,160.536 350.752,162.28 L350.752,163.464 C350.752,165.208 351.728,166.056 353.104,166.056 Z M364.032,167 L364.032,165.656 L363.968,165.656 C363.648,166.44 363.024,167.192 361.648,167.192 C359.952,167.192 358.864,166.04 358.864,164.04 L358.864,158.744 L360.144,158.744 L360.144,163.816 C360.144,165.288 360.8,166.04 362.032,166.04 C363.04,166.04 364.032,165.544 364.032,164.456 L364.032,158.744 L365.312,158.744 L365.312,167 L364.032,167 Z M369.312,167 L368.032,167 L368.032,158.744 L369.312,158.744 L369.312,160.264 L369.392,160.264 C369.68,159.48 370.432,158.744 371.776,158.744 L372.272,158.744 L372.272,160.024 L371.52,160.024 C370.144,160.024 369.312,160.616 369.312,161.4 L369.312,167 Z M28.48,191.192 C26.272,191.192 24.752,189.496 24.752,186.872 C24.752,184.248 26.272,182.552 28.48,182.552 C30.688,182.552 32.208,184.248 32.208,186.872 C32.208,189.496 30.688,191.192 28.48,191.192 Z M28.48,190.056 C29.856,190.056 30.832,189.208 30.832,187.464 L30.832,186.28 C30.832,184.536 29.856,183.688 28.48,183.688 C27.104,183.688 26.128,184.536 26.128,186.28 L26.128,187.464 C26.128,189.208 27.104,190.056 28.48,190.056 Z M35.6,191 L34.32,191 L34.32,182.744 L35.6,182.744 L35.6,184.264 L35.68,184.264 C35.968,183.48 36.72,182.744 38.064,182.744 L38.56,182.744 L38.56,184.024 L37.808,184.024 C36.432,184.024 35.6,184.616 35.6,185.4 L35.6,191 Z M46.784,191.912 C46.784,193.608 45.44,194.392 42.784,194.392 C40.208,194.392 39.152,193.656 39.152,192.36 C39.152,191.464 39.648,190.984 40.464,190.76 L40.464,190.584 C40,190.36 39.728,189.992 39.728,189.432 C39.728,188.6 40.32,188.2 41.152,187.992 L41.152,187.928 C40.176,187.464 39.6,186.552 39.6,185.4 C39.6,183.72 40.832,182.552 42.704,182.552 C43.296,182.552 43.824,182.664 44.272,182.872 L44.272,182.728 C44.272,182.088 44.544,181.624 45.232,181.624 L46.464,181.624 L46.464,182.744 L44.896,182.744 L44.896,183.272 C45.488,183.784 45.84,184.52 45.84,185.4 C45.84,187.08 44.608,188.248 42.72,188.248 C42.448,188.248 42.16,188.216 41.92,188.168 C41.376,188.312 40.832,188.584 40.832,189.096 C40.832,189.592 41.344,189.72 42.096,189.72 L43.856,189.72 C45.904,189.72 46.784,190.552 46.784,191.912 Z M45.584,192.008 C45.584,191.352 45.152,190.92 43.872,190.92 L41.12,190.92 C40.592,191.16 40.352,191.528 40.352,192.04 C40.352,192.76 40.848,193.352 42.144,193.352 L43.328,193.352 C44.752,193.352 45.584,192.904 45.584,192.008 Z M42.72,187.224 C43.808,187.224 44.496,186.712 44.496,185.624 L44.496,185.176 C44.496,184.088 43.808,183.576 42.72,183.576 C41.632,183.576 40.944,184.088 40.944,185.176 L40.944,185.624 C40.944,186.712 41.632,187.224 42.72,187.224 Z M54.944,191 L54.224,191 C53.28,191 52.896,190.424 52.8,189.656 L52.72,189.656 C52.368,190.664 51.488,191.192 50.336,191.192 C48.592,191.192 47.568,190.232 47.568,188.696 C47.568,187.144 48.688,186.28 51.088,186.28 L52.72,186.28 L52.72,185.464 C52.72,184.296 52.08,183.656 50.768,183.656 C49.776,183.656 49.12,184.136 48.672,184.888 L47.904,184.168 C48.352,183.288 49.344,182.552 50.832,182.552 C52.816,182.552 54,183.592 54,185.336 L54,189.88 L54.944,189.88 L54.944,191 Z M50.544,190.104 C51.808,190.104 52.72,189.448 52.72,188.6 L52.72,187.24 L51.024,187.24 C49.568,187.24 48.912,187.688 48.912,188.488 L48.912,188.824 C48.912,189.64 49.552,190.104 50.544,190.104 Z M58.048,191 L56.768,191 L56.768,182.744 L58.048,182.744 L58.048,184.088 L58.112,184.088 C58.512,183.16 59.216,182.552 60.448,182.552 C62.144,182.552 63.216,183.704 63.216,185.704 L63.216,191 L61.936,191 L61.936,185.928 C61.936,184.456 61.296,183.704 60.064,183.704 C59.04,183.704 58.048,184.216 58.048,185.272 L58.048,191 Z M66.496,180.808 C65.952,180.808 65.712,180.52 65.712,180.088 L65.712,179.88 C65.712,179.448 65.952,179.16 66.496,179.16 C67.04,179.16 67.28,179.448 67.28,179.88 L67.28,180.088 C67.28,180.52 67.04,180.808 66.496,180.808 Z M65.856,191 L65.856,182.744 L67.136,182.744 L67.136,191 L65.856,191 Z M75.392,191 L69.024,191 L69.024,189.928 L73.712,183.864 L69.168,183.864 L69.168,182.744 L75.264,182.744 L75.264,183.704 L70.48,189.88 L75.392,189.88 L75.392,191 Z M84,191 L83.28,191 C82.336,191 81.952,190.424 81.856,189.656 L81.776,189.656 C81.424,190.664 80.544,191.192 79.392,191.192 C77.648,191.192 76.624,190.232 76.624,188.696 C76.624,187.144 77.744,186.28 80.144,186.28 L81.776,186.28 L81.776,185.464 C81.776,184.296 81.136,183.656 79.824,183.656 C78.832,183.656 78.176,184.136 77.728,184.888 L76.96,184.168 C77.408,183.288 78.4,182.552 79.888,182.552 C81.872,182.552 83.056,183.592 83.056,185.336 L83.056,189.88 L84,189.88 L84,191 Z M79.6,190.104 C80.864,190.104 81.776,189.448 81.776,188.6 L81.776,187.24 L80.08,187.24 C78.624,187.24 77.968,187.688 77.968,188.488 L77.968,188.824 C77.968,189.64 78.608,190.104 79.6,190.104 Z M89.248,191 L87.648,191 C86.768,191 86.288,190.44 86.288,189.64 L86.288,183.864 L84.928,183.864 L84.928,182.744 L85.696,182.744 C86.24,182.744 86.416,182.552 86.416,181.992 L86.416,180.456 L87.568,180.456 L87.568,182.744 L89.376,182.744 L89.376,183.864 L87.568,183.864 L87.568,189.88 L89.248,189.88 L89.248,191 Z M92.08,180.808 C91.536,180.808 91.296,180.52 91.296,180.088 L91.296,179.88 C91.296,179.448 91.536,179.16 92.08,179.16 C92.624,179.16 92.864,179.448 92.864,179.88 L92.864,180.088 C92.864,180.52 92.624,180.808 92.08,180.808 Z M91.44,191 L91.44,182.744 L92.72,182.744 L92.72,191 L91.44,191 Z M98.56,191.192 C96.352,191.192 94.832,189.496 94.832,186.872 C94.832,184.248 96.352,182.552 98.56,182.552 C100.768,182.552 102.288,184.248 102.288,186.872 C102.288,189.496 100.768,191.192 98.56,191.192 Z M98.56,190.056 C99.936,190.056 100.912,189.208 100.912,187.464 L100.912,186.28 C100.912,184.536 99.936,183.688 98.56,183.688 C97.184,183.688 96.208,184.536 96.208,186.28 L96.208,187.464 C96.208,189.208 97.184,190.056 98.56,190.056 Z M105.68,191 L104.4,191 L104.4,182.744 L105.68,182.744 L105.68,184.088 L105.744,184.088 C106.144,183.16 106.848,182.552 108.08,182.552 C109.776,182.552 110.848,183.704 110.848,185.704 L110.848,191 L109.568,191 L109.568,185.928 C109.568,184.456 108.928,183.704 107.696,183.704 C106.672,183.704 105.68,184.216 105.68,185.272 L105.68,191 Z M118.544,191 L117.264,191 L117.264,182.744 L118.544,182.744 L118.544,184.264 L118.624,184.264 C118.912,183.48 119.664,182.744 121.008,182.744 L121.504,182.744 L121.504,184.024 L120.752,184.024 C119.376,184.024 118.544,184.616 118.544,185.4 L118.544,191 Z M128.224,191 L128.224,189.656 L128.16,189.656 C127.84,190.44 127.216,191.192 125.84,191.192 C124.144,191.192 123.056,190.04 123.056,188.04 L123.056,182.744 L124.336,182.744 L124.336,187.816 C124.336,189.288 124.992,190.04 126.224,190.04 C127.232,190.04 128.224,189.544 128.224,188.456 L128.224,182.744 L129.504,182.744 L129.504,191 L128.224,191 Z M133.504,191 L132.224,191 L132.224,182.744 L133.504,182.744 L133.504,184.088 L133.568,184.088 C133.968,183.16 134.672,182.552 135.904,182.552 C137.6,182.552 138.672,183.704 138.672,185.704 L138.672,191 L137.392,191 L137.392,185.928 C137.392,184.456 136.752,183.704 135.52,183.704 C134.496,183.704 133.504,184.216 133.504,185.272 L133.504,191 Z M143.792,191.192 C142.272,191.192 141.264,190.552 140.528,189.576 L141.44,188.84 C142.08,189.64 142.848,190.104 143.888,190.104 C144.976,190.104 145.616,189.608 145.616,188.76 C145.616,188.12 145.264,187.624 144.176,187.464 L143.52,187.368 C142,187.144 140.864,186.52 140.864,184.984 C140.864,183.352 142.128,182.552 143.808,182.552 C145.136,182.552 146.016,183.048 146.688,183.88 L145.84,184.648 C145.472,184.136 144.768,183.64 143.712,183.64 C142.656,183.64 142.096,184.136 142.096,184.92 C142.096,185.72 142.656,186.04 143.68,186.2 L144.32,186.296 C146.144,186.568 146.848,187.368 146.848,188.616 C146.848,190.216 145.68,191.192 143.792,191.192 Z M149.84,191.192 C149.168,191.192 148.864,190.808 148.864,190.264 L148.864,190.056 C148.864,189.512 149.168,189.128 149.84,189.128 C150.512,189.128 150.816,189.512 150.816,190.056 L150.816,190.264 C150.816,190.808 150.512,191.192 149.84,191.192 Z" id="Watson-gives-your-bu" fill="#3D3D3D"></path>
                <path d="M381.018025,85 C381.018025,88.5220571 381.018025,92.931643 381.018025,95.7394265 C381.018025,108.434764 366.261547,104.005728 366.261547,115.426158 C366.261547,122.067623 370.271449,126.777318 377.091483,126.777318 C383.911518,126.777318 389,131.443422 389,138.923878 C389,152.406853 379.986842,148.047167 379.986842,158.490583 C379.986842,159.619788 380.222702,168.180664 379.986842,169.184285 C378.793058,174.264042 375.077012,175.861028 370.271449,175.861028 C359.924888,175.861028 351,174.268627 351,189" id="Path-3-Copy" stroke="#565656" stroke-width="2" stroke-linecap="round"></path>
            </g>
        </g>
    </g>
</svg>