<?xml version="1.0" encoding="UTF-8"?>
<svg width="448px" height="248px" viewBox="0 0 448 248" version="1.1" xmlns="http://www.w3.org/2000/svg" xmlns:xlink="http://www.w3.org/1999/xlink">
    <!-- Generator: Sketch 51.2 (57519) - http://www.bohemiancoding.com/sketch -->
    <title>Group 31</title>
    <desc>Created with Sketch.</desc>
    <defs></defs>
    <g id="Page-1" stroke="none" stroke-width="1" fill="none" fill-rule="evenodd">
        <g id="Type-Basics-Copy" transform="translate(-353.000000, -8153.000000)">
            <g id="Group-31" transform="translate(353.000000, 8153.000000)">
                <rect id="Rectangle-16-Copy-162" fill="#FFFFFF" x="0" y="0" width="448" height="248"></rect>
                <path d="M25.488,95 L25.488,83.832 L29.232,83.832 C32.016,83.832 33.808,85.688 33.808,89.416 C33.808,93.144 32.016,95 29.232,95 L25.488,95 Z M26.832,93.816 L29.232,93.816 C31.072,93.816 32.368,92.536 32.368,90.328 L32.368,88.504 C32.368,86.296 31.072,85.016 29.232,85.016 L26.832,85.016 L26.832,93.816 Z M39.2,95.192 C36.96,95.192 35.488,93.496 35.488,90.872 C35.488,88.248 36.96,86.552 39.2,86.552 C41.408,86.552 42.768,88.248 42.768,90.584 L42.768,91.192 L36.832,91.192 L36.832,91.576 C36.832,93 37.744,94.072 39.28,94.072 C40.32,94.072 41.12,93.56 41.552,92.648 L42.464,93.304 C41.936,94.424 40.752,95.192 39.2,95.192 Z M39.2,87.624 C37.808,87.624 36.832,88.68 36.832,90.12 L36.832,90.232 L41.392,90.232 L41.392,90.056 C41.392,88.6 40.512,87.624 39.2,87.624 Z M47.36,95.192 C45.84,95.192 44.832,94.552 44.096,93.576 L45.008,92.84 C45.648,93.64 46.416,94.104 47.456,94.104 C48.544,94.104 49.184,93.608 49.184,92.76 C49.184,92.12 48.832,91.624 47.744,91.464 L47.088,91.368 C45.568,91.144 44.432,90.52 44.432,88.984 C44.432,87.352 45.696,86.552 47.376,86.552 C48.704,86.552 49.584,87.048 50.256,87.88 L49.408,88.648 C49.04,88.136 48.336,87.64 47.28,87.64 C46.224,87.64 45.664,88.136 45.664,88.92 C45.664,89.72 46.224,90.04 47.248,90.2 L47.888,90.296 C49.712,90.568 50.416,91.368 50.416,92.616 C50.416,94.216 49.248,95.192 47.36,95.192 Z M53.312,84.808 C52.768,84.808 52.528,84.52 52.528,84.088 L52.528,83.88 C52.528,83.448 52.768,83.16 53.312,83.16 C53.856,83.16 54.096,83.448 54.096,83.88 L54.096,84.088 C54.096,84.52 53.856,84.808 53.312,84.808 Z M52.672,95 L52.672,86.744 L53.952,86.744 L53.952,95 L52.672,95 Z M63.632,95.912 C63.632,97.608 62.288,98.392 59.632,98.392 C57.056,98.392 56,97.656 56,96.36 C56,95.464 56.496,94.984 57.312,94.76 L57.312,94.584 C56.848,94.36 56.576,93.992 56.576,93.432 C56.576,92.6 57.168,92.2 58,91.992 L58,91.928 C57.024,91.464 56.448,90.552 56.448,89.4 C56.448,87.72 57.68,86.552 59.552,86.552 C60.144,86.552 60.672,86.664 61.12,86.872 L61.12,86.728 C61.12,86.088 61.392,85.624 62.08,85.624 L63.312,85.624 L63.312,86.744 L61.744,86.744 L61.744,87.272 C62.336,87.784 62.688,88.52 62.688,89.4 C62.688,91.08 61.456,92.248 59.568,92.248 C59.296,92.248 59.008,92.216 58.768,92.168 C58.224,92.312 57.68,92.584 57.68,93.096 C57.68,93.592 58.192,93.72 58.944,93.72 L60.704,93.72 C62.752,93.72 63.632,94.552 63.632,95.912 Z M62.432,96.008 C62.432,95.352 62,94.92 60.72,94.92 L57.968,94.92 C57.44,95.16 57.2,95.528 57.2,96.04 C57.2,96.76 57.696,97.352 58.992,97.352 L60.176,97.352 C61.6,97.352 62.432,96.904 62.432,96.008 Z M59.568,91.224 C60.656,91.224 61.344,90.712 61.344,89.624 L61.344,89.176 C61.344,88.088 60.656,87.576 59.568,87.576 C58.48,87.576 57.792,88.088 57.792,89.176 L57.792,89.624 C57.792,90.712 58.48,91.224 59.568,91.224 Z M66.4,95 L65.12,95 L65.12,86.744 L66.4,86.744 L66.4,88.088 L66.464,88.088 C66.864,87.16 67.568,86.552 68.8,86.552 C70.496,86.552 71.568,87.704 71.568,89.704 L71.568,95 L70.288,95 L70.288,89.928 C70.288,88.456 69.648,87.704 68.416,87.704 C67.392,87.704 66.4,88.216 66.4,89.272 L66.4,95 Z M81.408,95 L79.808,95 C78.928,95 78.448,94.44 78.448,93.64 L78.448,87.864 L77.088,87.864 L77.088,86.744 L77.856,86.744 C78.4,86.744 78.576,86.552 78.576,85.992 L78.576,84.456 L79.728,84.456 L79.728,86.744 L81.536,86.744 L81.536,87.864 L79.728,87.864 L79.728,93.88 L81.408,93.88 L81.408,95 Z M83.6,95 L83.6,83.16 L84.88,83.16 L84.88,88.088 L84.944,88.088 C85.344,87.16 86.048,86.552 87.28,86.552 C88.976,86.552 90.048,87.704 90.048,89.704 L90.048,95 L88.768,95 L88.768,89.928 C88.768,88.456 88.128,87.704 86.896,87.704 C85.872,87.704 84.88,88.216 84.88,89.272 L84.88,95 L83.6,95 Z M93.328,84.808 C92.784,84.808 92.544,84.52 92.544,84.088 L92.544,83.88 C92.544,83.448 92.784,83.16 93.328,83.16 C93.872,83.16 94.112,83.448 94.112,83.88 L94.112,84.088 C94.112,84.52 93.872,84.808 93.328,84.808 Z M92.688,95 L92.688,86.744 L93.968,86.744 L93.968,95 L92.688,95 Z M97.968,95 L96.688,95 L96.688,86.744 L97.968,86.744 L97.968,88.088 L98.032,88.088 C98.432,87.16 99.136,86.552 100.368,86.552 C102.064,86.552 103.136,87.704 103.136,89.704 L103.136,95 L101.856,95 L101.856,89.928 C101.856,88.456 101.216,87.704 99.984,87.704 C98.96,87.704 97.968,88.216 97.968,89.272 L97.968,95 Z M105.776,95 L105.776,83.16 L107.056,83.16 L107.056,90.664 L107.12,90.664 L108.384,89.256 L110.72,86.744 L112.272,86.744 L109.216,90.008 L112.576,95 L111.024,95 L108.288,90.792 L107.056,92.056 L107.056,95 L105.776,95 Z M114.848,84.808 C114.304,84.808 114.064,84.52 114.064,84.088 L114.064,83.88 C114.064,83.448 114.304,83.16 114.848,83.16 C115.392,83.16 115.632,83.448 115.632,83.88 L115.632,84.088 C115.632,84.52 115.392,84.808 114.848,84.808 Z M114.208,95 L114.208,86.744 L115.488,86.744 L115.488,95 L114.208,95 Z M119.488,95 L118.208,95 L118.208,86.744 L119.488,86.744 L119.488,88.088 L119.552,88.088 C119.952,87.16 120.656,86.552 121.888,86.552 C123.584,86.552 124.656,87.704 124.656,89.704 L124.656,95 L123.376,95 L123.376,89.928 C123.376,88.456 122.736,87.704 121.504,87.704 C120.48,87.704 119.488,88.216 119.488,89.272 L119.488,95 Z M134.256,95.912 C134.256,97.608 132.912,98.392 130.256,98.392 C127.68,98.392 126.624,97.656 126.624,96.36 C126.624,95.464 127.12,94.984 127.936,94.76 L127.936,94.584 C127.472,94.36 127.2,93.992 127.2,93.432 C127.2,92.6 127.792,92.2 128.624,91.992 L128.624,91.928 C127.648,91.464 127.072,90.552 127.072,89.4 C127.072,87.72 128.304,86.552 130.176,86.552 C130.768,86.552 131.296,86.664 131.744,86.872 L131.744,86.728 C131.744,86.088 132.016,85.624 132.704,85.624 L133.936,85.624 L133.936,86.744 L132.368,86.744 L132.368,87.272 C132.96,87.784 133.312,88.52 133.312,89.4 C133.312,91.08 132.08,92.248 130.192,92.248 C129.92,92.248 129.632,92.216 129.392,92.168 C128.848,92.312 128.304,92.584 128.304,93.096 C128.304,93.592 128.816,93.72 129.568,93.72 L131.328,93.72 C133.376,93.72 134.256,94.552 134.256,95.912 Z M133.056,96.008 C133.056,95.352 132.624,94.92 131.344,94.92 L128.592,94.92 C128.064,95.16 127.824,95.528 127.824,96.04 C127.824,96.76 128.32,97.352 129.616,97.352 L130.8,97.352 C132.224,97.352 133.056,96.904 133.056,96.008 Z M130.192,91.224 C131.28,91.224 131.968,90.712 131.968,89.624 L131.968,89.176 C131.968,88.088 131.28,87.576 130.192,87.576 C129.104,87.576 128.416,88.088 128.416,89.176 L128.416,89.624 C128.416,90.712 129.104,91.224 130.192,91.224 Z M140.16,84.808 C139.616,84.808 139.376,84.52 139.376,84.088 L139.376,83.88 C139.376,83.448 139.616,83.16 140.16,83.16 C140.704,83.16 140.944,83.448 140.944,83.88 L140.944,84.088 C140.944,84.52 140.704,84.808 140.16,84.808 Z M139.52,95 L139.52,86.744 L140.8,86.744 L140.8,95 L139.52,95 Z M146,95.192 C144.48,95.192 143.472,94.552 142.736,93.576 L143.648,92.84 C144.288,93.64 145.056,94.104 146.096,94.104 C147.184,94.104 147.824,93.608 147.824,92.76 C147.824,92.12 147.472,91.624 146.384,91.464 L145.728,91.368 C144.208,91.144 143.072,90.52 143.072,88.984 C143.072,87.352 144.336,86.552 146.016,86.552 C147.344,86.552 148.224,87.048 148.896,87.88 L148.048,88.648 C147.68,88.136 146.976,87.64 145.92,87.64 C144.864,87.64 144.304,88.136 144.304,88.92 C144.304,89.72 144.864,90.04 145.888,90.2 L146.528,90.296 C148.352,90.568 149.056,91.368 149.056,92.616 C149.056,94.216 147.888,95.192 146,95.192 Z M161.808,95 L161.088,95 C160.144,95 159.76,94.424 159.664,93.656 L159.584,93.656 C159.232,94.664 158.352,95.192 157.2,95.192 C155.456,95.192 154.432,94.232 154.432,92.696 C154.432,91.144 155.552,90.28 157.952,90.28 L159.584,90.28 L159.584,89.464 C159.584,88.296 158.944,87.656 157.632,87.656 C156.64,87.656 155.984,88.136 155.536,88.888 L154.768,88.168 C155.216,87.288 156.208,86.552 157.696,86.552 C159.68,86.552 160.864,87.592 160.864,89.336 L160.864,93.88 L161.808,93.88 L161.808,95 Z M157.408,94.104 C158.672,94.104 159.584,93.448 159.584,92.6 L159.584,91.24 L157.888,91.24 C156.432,91.24 155.776,91.688 155.776,92.488 L155.776,92.824 C155.776,93.64 156.416,94.104 157.408,94.104 Z M167.408,98.2 L167.408,86.744 L168.688,86.744 L168.688,88.088 L168.752,88.088 C169.184,87.048 170.032,86.552 171.168,86.552 C173.232,86.552 174.528,88.232 174.528,90.872 C174.528,93.512 173.232,95.192 171.168,95.192 C170.032,95.192 169.248,94.68 168.752,93.656 L168.688,93.656 L168.688,98.2 L167.408,98.2 Z M170.816,94.04 C172.256,94.04 173.152,93.048 173.152,91.576 L173.152,90.168 C173.152,88.696 172.256,87.704 170.816,87.704 C169.648,87.704 168.688,88.376 168.688,89.288 L168.688,92.36 C168.688,93.432 169.648,94.04 170.816,94.04 Z M177.968,95 L176.688,95 L176.688,86.744 L177.968,86.744 L177.968,88.264 L178.048,88.264 C178.336,87.48 179.088,86.744 180.432,86.744 L180.928,86.744 L180.928,88.024 L180.176,88.024 C178.8,88.024 177.968,88.616 177.968,89.4 L177.968,95 Z M185.6,95.192 C183.392,95.192 181.872,93.496 181.872,90.872 C181.872,88.248 183.392,86.552 185.6,86.552 C187.808,86.552 189.328,88.248 189.328,90.872 C189.328,93.496 187.808,95.192 185.6,95.192 Z M185.6,94.056 C186.976,94.056 187.952,93.208 187.952,91.464 L187.952,90.28 C187.952,88.536 186.976,87.688 185.6,87.688 C184.224,87.688 183.248,88.536 183.248,90.28 L183.248,91.464 C183.248,93.208 184.224,94.056 185.6,94.056 Z M194.624,95 L193.136,95 L190.24,86.744 L191.52,86.744 L192.96,90.84 L193.856,93.656 L193.936,93.656 L194.832,90.84 L196.304,86.744 L197.536,86.744 L194.624,95 Z M202.16,95.192 C199.92,95.192 198.448,93.496 198.448,90.872 C198.448,88.248 199.92,86.552 202.16,86.552 C204.368,86.552 205.728,88.248 205.728,90.584 L205.728,91.192 L199.792,91.192 L199.792,91.576 C199.792,93 200.704,94.072 202.24,94.072 C203.28,94.072 204.08,93.56 204.512,92.648 L205.424,93.304 C204.896,94.424 203.712,95.192 202.16,95.192 Z M202.16,87.624 C200.768,87.624 199.792,88.68 199.792,90.12 L199.792,90.232 L204.352,90.232 L204.352,90.056 C204.352,88.6 203.472,87.624 202.16,87.624 Z M209.12,95 L207.84,95 L207.84,86.744 L209.12,86.744 L209.12,88.088 L209.184,88.088 C209.584,87.16 210.288,86.552 211.52,86.552 C213.216,86.552 214.288,87.704 214.288,89.704 L214.288,95 L213.008,95 L213.008,89.928 C213.008,88.456 212.368,87.704 211.136,87.704 C210.112,87.704 209.12,88.216 209.12,89.272 L209.12,95 Z M222.048,95 L219.84,86.744 L221.088,86.744 L221.968,90.312 L222.848,93.928 L222.88,93.928 L223.888,90.312 L224.928,86.744 L226.064,86.744 L227.136,90.312 L228.16,93.928 L228.192,93.928 L229.04,90.312 L229.936,86.744 L231.136,86.744 L228.944,95 L227.36,95 L226.208,91.032 L225.488,88.52 L225.456,88.52 L224.752,91.032 L223.6,95 L222.048,95 Z M239.568,95 L238.848,95 C237.904,95 237.52,94.424 237.424,93.656 L237.344,93.656 C236.992,94.664 236.112,95.192 234.96,95.192 C233.216,95.192 232.192,94.232 232.192,92.696 C232.192,91.144 233.312,90.28 235.712,90.28 L237.344,90.28 L237.344,89.464 C237.344,88.296 236.704,87.656 235.392,87.656 C234.4,87.656 233.744,88.136 233.296,88.888 L232.528,88.168 C232.976,87.288 233.968,86.552 235.456,86.552 C237.44,86.552 238.624,87.592 238.624,89.336 L238.624,93.88 L239.568,93.88 L239.568,95 Z M235.168,94.104 C236.432,94.104 237.344,93.448 237.344,92.6 L237.344,91.24 L235.648,91.24 C234.192,91.24 233.536,91.688 233.536,92.488 L233.536,92.824 C233.536,93.64 234.176,94.104 235.168,94.104 Z M244.4,92.36 L246.4,86.744 L247.664,86.744 L243.968,96.92 C243.6,97.912 243.264,98.2 242.048,98.2 L241.392,98.2 L241.392,97.08 L242.688,97.08 L243.312,95.32 L240.224,86.744 L241.504,86.744 L243.488,92.36 L243.872,93.704 L243.952,93.704 L244.4,92.36 Z M256.192,95.192 C253.984,95.192 252.464,93.496 252.464,90.872 C252.464,88.248 253.984,86.552 256.192,86.552 C258.4,86.552 259.92,88.248 259.92,90.872 C259.92,93.496 258.4,95.192 256.192,95.192 Z M256.192,94.056 C257.568,94.056 258.544,93.208 258.544,91.464 L258.544,90.28 C258.544,88.536 257.568,87.688 256.192,87.688 C254.816,87.688 253.84,88.536 253.84,90.28 L253.84,91.464 C253.84,93.208 254.816,94.056 256.192,94.056 Z M262.384,95 L262.384,87.864 L261.04,87.864 L261.04,86.744 L262.384,86.744 L262.384,85.08 C262.384,83.944 262.976,83.16 264.192,83.16 L265.44,83.16 L265.44,84.28 L263.664,84.28 L263.664,86.744 L265.44,86.744 L265.44,87.864 L263.664,87.864 L263.664,95 L262.384,95 Z M273.968,95.192 C271.648,95.192 270.288,93.512 270.288,90.872 C270.288,88.232 271.648,86.552 273.968,86.552 C275.6,86.552 276.576,87.352 277.056,88.488 L275.984,89.032 C275.68,88.184 274.976,87.688 273.968,87.688 C272.448,87.688 271.664,88.728 271.664,90.168 L271.664,91.576 C271.664,93.016 272.448,94.056 273.968,94.056 C275.008,94.056 275.76,93.56 276.208,92.616 L277.136,93.24 C276.608,94.424 275.536,95.192 273.968,95.192 Z M281.968,95.192 C279.76,95.192 278.24,93.496 278.24,90.872 C278.24,88.248 279.76,86.552 281.968,86.552 C284.176,86.552 285.696,88.248 285.696,90.872 C285.696,93.496 284.176,95.192 281.968,95.192 Z M281.968,94.056 C283.344,94.056 284.32,93.208 284.32,91.464 L284.32,90.28 C284.32,88.536 283.344,87.688 281.968,87.688 C280.592,87.688 279.616,88.536 279.616,90.28 L279.616,91.464 C279.616,93.208 280.592,94.056 281.968,94.056 Z M289.088,95 L287.808,95 L287.808,86.744 L289.088,86.744 L289.088,88.088 L289.152,88.088 C289.52,87.24 290.096,86.552 291.376,86.552 C292.464,86.552 293.456,87.048 293.904,88.232 L293.936,88.232 C294.24,87.336 295.04,86.552 296.448,86.552 C298.128,86.552 299.136,87.704 299.136,89.704 L299.136,95 L297.856,95 L297.856,89.928 C297.856,88.472 297.296,87.704 296.048,87.704 C295.04,87.704 294.112,88.216 294.112,89.272 L294.112,95 L292.832,95 L292.832,89.928 C292.832,88.456 292.272,87.704 291.056,87.704 C290.048,87.704 289.088,88.216 289.088,89.272 L289.088,95 Z M302.416,84.808 C301.872,84.808 301.632,84.52 301.632,84.088 L301.632,83.88 C301.632,83.448 301.872,83.16 302.416,83.16 C302.96,83.16 303.2,83.448 303.2,83.88 L303.2,84.088 C303.2,84.52 302.96,84.808 302.416,84.808 Z M301.776,95 L301.776,86.744 L303.056,86.744 L303.056,95 L301.776,95 Z M307.056,95 L305.776,95 L305.776,86.744 L307.056,86.744 L307.056,88.088 L307.12,88.088 C307.52,87.16 308.224,86.552 309.456,86.552 C311.152,86.552 312.224,87.704 312.224,89.704 L312.224,95 L310.944,95 L310.944,89.928 C310.944,88.456 310.304,87.704 309.072,87.704 C308.048,87.704 307.056,88.216 307.056,89.272 L307.056,95 Z M321.824,95.912 C321.824,97.608 320.48,98.392 317.824,98.392 C315.248,98.392 314.192,97.656 314.192,96.36 C314.192,95.464 314.688,94.984 315.504,94.76 L315.504,94.584 C315.04,94.36 314.768,93.992 314.768,93.432 C314.768,92.6 315.36,92.2 316.192,91.992 L316.192,91.928 C315.216,91.464 314.64,90.552 314.64,89.4 C314.64,87.72 315.872,86.552 317.744,86.552 C318.336,86.552 318.864,86.664 319.312,86.872 L319.312,86.728 C319.312,86.088 319.584,85.624 320.272,85.624 L321.504,85.624 L321.504,86.744 L319.936,86.744 L319.936,87.272 C320.528,87.784 320.88,88.52 320.88,89.4 C320.88,91.08 319.648,92.248 317.76,92.248 C317.488,92.248 317.2,92.216 316.96,92.168 C316.416,92.312 315.872,92.584 315.872,93.096 C315.872,93.592 316.384,93.72 317.136,93.72 L318.896,93.72 C320.944,93.72 321.824,94.552 321.824,95.912 Z M320.624,96.008 C320.624,95.352 320.192,94.92 318.912,94.92 L316.16,94.92 C315.632,95.16 315.392,95.528 315.392,96.04 C315.392,96.76 315.888,97.352 317.184,97.352 L318.368,97.352 C319.792,97.352 320.624,96.904 320.624,96.008 Z M317.76,91.224 C318.848,91.224 319.536,90.712 319.536,89.624 L319.536,89.176 C319.536,88.088 318.848,87.576 317.76,87.576 C316.672,87.576 315.984,88.088 315.984,89.176 L315.984,89.624 C315.984,90.712 316.672,91.224 317.76,91.224 Z M28.784,119 L27.184,119 C26.304,119 25.824,118.44 25.824,117.64 L25.824,111.864 L24.464,111.864 L24.464,110.744 L25.232,110.744 C25.776,110.744 25.952,110.552 25.952,109.992 L25.952,108.456 L27.104,108.456 L27.104,110.744 L28.912,110.744 L28.912,111.864 L27.104,111.864 L27.104,117.88 L28.784,117.88 L28.784,119 Z M34.032,119.192 C31.824,119.192 30.304,117.496 30.304,114.872 C30.304,112.248 31.824,110.552 34.032,110.552 C36.24,110.552 37.76,112.248 37.76,114.872 C37.76,117.496 36.24,119.192 34.032,119.192 Z M34.032,118.056 C35.408,118.056 36.384,117.208 36.384,115.464 L36.384,114.28 C36.384,112.536 35.408,111.688 34.032,111.688 C32.656,111.688 31.68,112.536 31.68,114.28 L31.68,115.464 C31.68,117.208 32.656,118.056 34.032,118.056 Z M43.648,119 L43.648,107.16 L44.928,107.16 L44.928,112.088 L44.992,112.088 C45.424,111.048 46.272,110.552 47.408,110.552 C49.472,110.552 50.768,112.232 50.768,114.872 C50.768,117.512 49.472,119.192 47.408,119.192 C46.272,119.192 45.488,118.68 44.992,117.656 L44.928,117.656 L44.928,119 L43.648,119 Z M47.056,118.04 C48.496,118.04 49.392,117.048 49.392,115.576 L49.392,114.168 C49.392,112.696 48.496,111.704 47.056,111.704 C45.888,111.704 44.928,112.376 44.928,113.288 L44.928,116.36 C44.928,117.432 45.888,118.04 47.056,118.04 Z M56.032,119.192 C53.792,119.192 52.32,117.496 52.32,114.872 C52.32,112.248 53.792,110.552 56.032,110.552 C58.24,110.552 59.6,112.248 59.6,114.584 L59.6,115.192 L53.664,115.192 L53.664,115.576 C53.664,117 54.576,118.072 56.112,118.072 C57.152,118.072 57.952,117.56 58.384,116.648 L59.296,117.304 C58.768,118.424 57.584,119.192 56.032,119.192 Z M56.032,111.624 C54.64,111.624 53.664,112.68 53.664,114.12 L53.664,114.232 L58.224,114.232 L58.224,114.056 C58.224,112.6 57.344,111.624 56.032,111.624 Z M65.136,119 L63.536,119 C62.656,119 62.176,118.44 62.176,117.64 L62.176,111.864 L60.816,111.864 L60.816,110.744 L61.584,110.744 C62.128,110.744 62.304,110.552 62.304,109.992 L62.304,108.456 L63.456,108.456 L63.456,110.744 L65.264,110.744 L65.264,111.864 L63.456,111.864 L63.456,117.88 L65.136,117.88 L65.136,119 Z M70.608,119 L69.008,119 C68.128,119 67.648,118.44 67.648,117.64 L67.648,111.864 L66.288,111.864 L66.288,110.744 L67.056,110.744 C67.6,110.744 67.776,110.552 67.776,109.992 L67.776,108.456 L68.928,108.456 L68.928,110.744 L70.736,110.744 L70.736,111.864 L68.928,111.864 L68.928,117.88 L70.608,117.88 L70.608,119 Z M75.84,119.192 C73.6,119.192 72.128,117.496 72.128,114.872 C72.128,112.248 73.6,110.552 75.84,110.552 C78.048,110.552 79.408,112.248 79.408,114.584 L79.408,115.192 L73.472,115.192 L73.472,115.576 C73.472,117 74.384,118.072 75.92,118.072 C76.96,118.072 77.76,117.56 78.192,116.648 L79.104,117.304 C78.576,118.424 77.392,119.192 75.84,119.192 Z M75.84,111.624 C74.448,111.624 73.472,112.68 73.472,114.12 L73.472,114.232 L78.032,114.232 L78.032,114.056 C78.032,112.6 77.152,111.624 75.84,111.624 Z M82.8,119 L81.52,119 L81.52,110.744 L82.8,110.744 L82.8,112.264 L82.88,112.264 C83.168,111.48 83.92,110.744 85.264,110.744 L85.76,110.744 L85.76,112.024 L85.008,112.024 C83.632,112.024 82.8,112.616 82.8,113.4 L82.8,119 Z M93.648,119.192 C92.128,119.192 91.12,118.552 90.384,117.576 L91.296,116.84 C91.936,117.64 92.704,118.104 93.744,118.104 C94.832,118.104 95.472,117.608 95.472,116.76 C95.472,116.12 95.12,115.624 94.032,115.464 L93.376,115.368 C91.856,115.144 90.72,114.52 90.72,112.984 C90.72,111.352 91.984,110.552 93.664,110.552 C94.992,110.552 95.872,111.048 96.544,111.88 L95.696,112.648 C95.328,112.136 94.624,111.64 93.568,111.64 C92.512,111.64 91.952,112.136 91.952,112.92 C91.952,113.72 92.512,114.04 93.536,114.2 L94.176,114.296 C96,114.568 96.704,115.368 96.704,116.616 C96.704,118.216 95.536,119.192 93.648,119.192 Z M102.08,119.192 C99.872,119.192 98.352,117.496 98.352,114.872 C98.352,112.248 99.872,110.552 102.08,110.552 C104.288,110.552 105.808,112.248 105.808,114.872 C105.808,117.496 104.288,119.192 102.08,119.192 Z M102.08,118.056 C103.456,118.056 104.432,117.208 104.432,115.464 L104.432,114.28 C104.432,112.536 103.456,111.688 102.08,111.688 C100.704,111.688 99.728,112.536 99.728,114.28 L99.728,115.464 C99.728,117.208 100.704,118.056 102.08,118.056 Z M110.416,119 L109.28,119 C108.4,119 107.92,118.44 107.92,117.672 L107.92,107.16 L109.2,107.16 L109.2,117.88 L110.416,117.88 L110.416,119 Z M117.36,119 L117.36,117.656 L117.296,117.656 C116.976,118.44 116.352,119.192 114.976,119.192 C113.28,119.192 112.192,118.04 112.192,116.04 L112.192,110.744 L113.472,110.744 L113.472,115.816 C113.472,117.288 114.128,118.04 115.36,118.04 C116.368,118.04 117.36,117.544 117.36,116.456 L117.36,110.744 L118.64,110.744 L118.64,119 L117.36,119 Z M124.784,119 L123.184,119 C122.304,119 121.824,118.44 121.824,117.64 L121.824,111.864 L120.464,111.864 L120.464,110.744 L121.232,110.744 C121.776,110.744 121.952,110.552 121.952,109.992 L121.952,108.456 L123.104,108.456 L123.104,110.744 L124.912,110.744 L124.912,111.864 L123.104,111.864 L123.104,117.88 L124.784,117.88 L124.784,119 Z M127.616,108.808 C127.072,108.808 126.832,108.52 126.832,108.088 L126.832,107.88 C126.832,107.448 127.072,107.16 127.616,107.16 C128.16,107.16 128.4,107.448 128.4,107.88 L128.4,108.088 C128.4,108.52 128.16,108.808 127.616,108.808 Z M126.976,119 L126.976,110.744 L128.256,110.744 L128.256,119 L126.976,119 Z M134.096,119.192 C131.888,119.192 130.368,117.496 130.368,114.872 C130.368,112.248 131.888,110.552 134.096,110.552 C136.304,110.552 137.824,112.248 137.824,114.872 C137.824,117.496 136.304,119.192 134.096,119.192 Z M134.096,118.056 C135.472,118.056 136.448,117.208 136.448,115.464 L136.448,114.28 C136.448,112.536 135.472,111.688 134.096,111.688 C132.72,111.688 131.744,112.536 131.744,114.28 L131.744,115.464 C131.744,117.208 132.72,118.056 134.096,118.056 Z M141.216,119 L139.936,119 L139.936,110.744 L141.216,110.744 L141.216,112.088 L141.28,112.088 C141.68,111.16 142.384,110.552 143.616,110.552 C145.312,110.552 146.384,111.704 146.384,113.704 L146.384,119 L145.104,119 L145.104,113.928 C145.104,112.456 144.464,111.704 143.232,111.704 C142.208,111.704 141.216,112.216 141.216,113.272 L141.216,119 Z M151.504,119.192 C149.984,119.192 148.976,118.552 148.24,117.576 L149.152,116.84 C149.792,117.64 150.56,118.104 151.6,118.104 C152.688,118.104 153.328,117.608 153.328,116.76 C153.328,116.12 152.976,115.624 151.888,115.464 L151.232,115.368 C149.712,115.144 148.576,114.52 148.576,112.984 C148.576,111.352 149.84,110.552 151.52,110.552 C152.848,110.552 153.728,111.048 154.4,111.88 L153.552,112.648 C153.184,112.136 152.48,111.64 151.424,111.64 C150.368,111.64 149.808,112.136 149.808,112.92 C149.808,113.72 150.368,114.04 151.392,114.2 L152.032,114.296 C153.856,114.568 154.56,115.368 154.56,116.616 C154.56,118.216 153.392,119.192 151.504,119.192 Z M161.232,108.808 C160.688,108.808 160.448,108.52 160.448,108.088 L160.448,107.88 C160.448,107.448 160.688,107.16 161.232,107.16 C161.776,107.16 162.016,107.448 162.016,107.88 L162.016,108.088 C162.016,108.52 161.776,108.808 161.232,108.808 Z M160.592,119 L160.592,110.744 L161.872,110.744 L161.872,119 L160.592,119 Z M165.872,119 L164.592,119 L164.592,110.744 L165.872,110.744 L165.872,112.088 L165.936,112.088 C166.336,111.16 167.04,110.552 168.272,110.552 C169.968,110.552 171.04,111.704 171.04,113.704 L171.04,119 L169.76,119 L169.76,113.928 C169.76,112.456 169.12,111.704 167.888,111.704 C166.864,111.704 165.872,112.216 165.872,113.272 L165.872,119 Z M179.952,119 L178.816,119 C177.936,119 177.456,118.44 177.456,117.672 L177.456,107.16 L178.736,107.16 L178.736,117.88 L179.952,117.88 L179.952,119 Z M184.912,119.192 C182.672,119.192 181.2,117.496 181.2,114.872 C181.2,112.248 182.672,110.552 184.912,110.552 C187.12,110.552 188.48,112.248 188.48,114.584 L188.48,115.192 L182.544,115.192 L182.544,115.576 C182.544,117 183.456,118.072 184.992,118.072 C186.032,118.072 186.832,117.56 187.264,116.648 L188.176,117.304 C187.648,118.424 186.464,119.192 184.912,119.192 Z M184.912,111.624 C183.52,111.624 182.544,112.68 182.544,114.12 L182.544,114.232 L187.104,114.232 L187.104,114.056 C187.104,112.6 186.224,111.624 184.912,111.624 Z M193.072,119.192 C191.552,119.192 190.544,118.552 189.808,117.576 L190.72,116.84 C191.36,117.64 192.128,118.104 193.168,118.104 C194.256,118.104 194.896,117.608 194.896,116.76 C194.896,116.12 194.544,115.624 193.456,115.464 L192.8,115.368 C191.28,115.144 190.144,114.52 190.144,112.984 C190.144,111.352 191.408,110.552 193.088,110.552 C194.416,110.552 195.296,111.048 195.968,111.88 L195.12,112.648 C194.752,112.136 194.048,111.64 192.992,111.64 C191.936,111.64 191.376,112.136 191.376,112.92 C191.376,113.72 191.936,114.04 192.96,114.2 L193.6,114.296 C195.424,114.568 196.128,115.368 196.128,116.616 C196.128,118.216 194.96,119.192 193.072,119.192 Z M200.768,119.192 C199.248,119.192 198.24,118.552 197.504,117.576 L198.416,116.84 C199.056,117.64 199.824,118.104 200.864,118.104 C201.952,118.104 202.592,117.608 202.592,116.76 C202.592,116.12 202.24,115.624 201.152,115.464 L200.496,115.368 C198.976,115.144 197.84,114.52 197.84,112.984 C197.84,111.352 199.104,110.552 200.784,110.552 C202.112,110.552 202.992,111.048 203.664,111.88 L202.816,112.648 C202.448,112.136 201.744,111.64 200.688,111.64 C199.632,111.64 199.072,112.136 199.072,112.92 C199.072,113.72 199.632,114.04 200.656,114.2 L201.296,114.296 C203.12,114.568 203.824,115.368 203.824,116.616 C203.824,118.216 202.656,119.192 200.768,119.192 Z M213.28,119 L211.68,119 C210.8,119 210.32,118.44 210.32,117.64 L210.32,111.864 L208.96,111.864 L208.96,110.744 L209.728,110.744 C210.272,110.744 210.448,110.552 210.448,109.992 L210.448,108.456 L211.6,108.456 L211.6,110.744 L213.408,110.744 L213.408,111.864 L211.6,111.864 L211.6,117.88 L213.28,117.88 L213.28,119 Z M216.112,108.808 C215.568,108.808 215.328,108.52 215.328,108.088 L215.328,107.88 C215.328,107.448 215.568,107.16 216.112,107.16 C216.656,107.16 216.896,107.448 216.896,107.88 L216.896,108.088 C216.896,108.52 216.656,108.808 216.112,108.808 Z M215.472,119 L215.472,110.744 L216.752,110.744 L216.752,119 L215.472,119 Z M220.752,119 L219.472,119 L219.472,110.744 L220.752,110.744 L220.752,112.088 L220.816,112.088 C221.184,111.24 221.76,110.552 223.04,110.552 C224.128,110.552 225.12,111.048 225.568,112.232 L225.6,112.232 C225.904,111.336 226.704,110.552 228.112,110.552 C229.792,110.552 230.8,111.704 230.8,113.704 L230.8,119 L229.52,119 L229.52,113.928 C229.52,112.472 228.96,111.704 227.712,111.704 C226.704,111.704 225.776,112.216 225.776,113.272 L225.776,119 L224.496,119 L224.496,113.928 C224.496,112.456 223.936,111.704 222.72,111.704 C221.712,111.704 220.752,112.216 220.752,113.272 L220.752,119 Z M236.544,119.192 C234.304,119.192 232.832,117.496 232.832,114.872 C232.832,112.248 234.304,110.552 236.544,110.552 C238.752,110.552 240.112,112.248 240.112,114.584 L240.112,115.192 L234.176,115.192 L234.176,115.576 C234.176,117 235.088,118.072 236.624,118.072 C237.664,118.072 238.464,117.56 238.896,116.648 L239.808,117.304 C239.28,118.424 238.096,119.192 236.544,119.192 Z M236.544,111.624 C235.152,111.624 234.176,112.68 234.176,114.12 L234.176,114.232 L238.736,114.232 L238.736,114.056 C238.736,112.6 237.856,111.624 236.544,111.624 Z M242.72,119.192 C242.048,119.192 241.744,118.808 241.744,118.264 L241.744,118.056 C241.744,117.512 242.048,117.128 242.72,117.128 C243.392,117.128 243.696,117.512 243.696,118.056 L243.696,118.264 C243.696,118.808 243.392,119.192 242.72,119.192 Z M254.112,119 L249.632,119 L249.632,117.88 L251.2,117.88 L251.2,108.952 L249.632,108.952 L249.632,107.832 L254.112,107.832 L254.112,108.952 L252.544,108.952 L252.544,117.88 L254.112,117.88 L254.112,119 Z M256.56,119 L256.56,107.832 L261.152,107.832 C262.992,107.832 264.128,108.968 264.128,110.712 C264.128,112.376 263.056,112.968 262.32,113.08 L262.32,113.176 C263.12,113.224 264.512,113.912 264.512,115.768 C264.512,117.608 263.28,119 261.632,119 L256.56,119 Z M257.904,113.816 L257.904,117.816 L261.216,117.816 C262.368,117.816 263.072,117.208 263.072,116.088 L263.072,115.544 C263.072,114.424 262.368,113.816 261.216,113.816 L257.904,113.816 Z M257.904,109.016 L257.904,112.664 L260.992,112.664 C262.048,112.664 262.688,112.104 262.688,111.112 L262.688,110.568 C262.688,109.576 262.048,109.016 260.992,109.016 L257.904,109.016 Z M267.008,119 L267.008,107.832 L268.8,107.832 L272,113.848 L272.08,113.848 L275.296,107.832 L277.024,107.832 L277.024,119 L275.712,119 L275.712,109.592 L275.632,109.592 L274.688,111.464 L272.016,116.328 L269.344,111.464 L268.4,109.592 L268.32,109.592 L268.32,119 L267.008,119 Z M283.648,119 L283.648,107.16 L284.928,107.16 L284.928,112.088 L284.992,112.088 C285.392,111.16 286.096,110.552 287.328,110.552 C289.024,110.552 290.096,111.704 290.096,113.704 L290.096,119 L288.816,119 L288.816,113.928 C288.816,112.456 288.176,111.704 286.944,111.704 C285.92,111.704 284.928,112.216 284.928,113.272 L284.928,119 L283.648,119 Z M299.456,119 L298.736,119 C297.792,119 297.408,118.424 297.312,117.656 L297.232,117.656 C296.88,118.664 296,119.192 294.848,119.192 C293.104,119.192 292.08,118.232 292.08,116.696 C292.08,115.144 293.2,114.28 295.6,114.28 L297.232,114.28 L297.232,113.464 C297.232,112.296 296.592,111.656 295.28,111.656 C294.288,111.656 293.632,112.136 293.184,112.888 L292.416,112.168 C292.864,111.288 293.856,110.552 295.344,110.552 C297.328,110.552 298.512,111.592 298.512,113.336 L298.512,117.88 L299.456,117.88 L299.456,119 Z M295.056,118.104 C296.32,118.104 297.232,117.448 297.232,116.6 L297.232,115.24 L295.536,115.24 C294.08,115.24 293.424,115.688 293.424,116.488 L293.424,116.824 C293.424,117.64 294.064,118.104 295.056,118.104 Z M303.76,119.192 C302.24,119.192 301.232,118.552 300.496,117.576 L301.408,116.84 C302.048,117.64 302.816,118.104 303.856,118.104 C304.944,118.104 305.584,117.608 305.584,116.76 C305.584,116.12 305.232,115.624 304.144,115.464 L303.488,115.368 C301.968,115.144 300.832,114.52 300.832,112.984 C300.832,111.352 302.096,110.552 303.776,110.552 C305.104,110.552 305.984,111.048 306.656,111.88 L305.808,112.648 C305.44,112.136 304.736,111.64 303.68,111.64 C302.624,111.64 302.064,112.136 302.064,112.92 C302.064,113.72 302.624,114.04 303.648,114.2 L304.288,114.296 C306.112,114.568 306.816,115.368 306.816,116.616 C306.816,118.216 305.648,119.192 303.76,119.192 Z M26.64,143 L25.36,143 L25.36,134.744 L26.64,134.744 L26.64,136.264 L26.72,136.264 C27.008,135.48 27.76,134.744 29.104,134.744 L29.6,134.744 L29.6,136.024 L28.848,136.024 C27.472,136.024 26.64,136.616 26.64,137.4 L26.64,143 Z M34.256,143.192 C32.016,143.192 30.544,141.496 30.544,138.872 C30.544,136.248 32.016,134.552 34.256,134.552 C36.464,134.552 37.824,136.248 37.824,138.584 L37.824,139.192 L31.888,139.192 L31.888,139.576 C31.888,141 32.8,142.072 34.336,142.072 C35.376,142.072 36.176,141.56 36.608,140.648 L37.52,141.304 C36.992,142.424 35.808,143.192 34.256,143.192 Z M34.256,135.624 C32.864,135.624 31.888,136.68 31.888,138.12 L31.888,138.232 L36.448,138.232 L36.448,138.056 C36.448,136.6 35.568,135.624 34.256,135.624 Z M47.568,138.744 L39.312,138.744 L39.312,137.528 L47.568,137.528 L47.568,138.744 Z M52.768,143.192 C50.528,143.192 49.056,141.496 49.056,138.872 C49.056,136.248 50.528,134.552 52.768,134.552 C54.976,134.552 56.336,136.248 56.336,138.584 L56.336,139.192 L50.4,139.192 L50.4,139.576 C50.4,141 51.312,142.072 52.848,142.072 C53.888,142.072 54.688,141.56 55.12,140.648 L56.032,141.304 C55.504,142.424 54.32,143.192 52.768,143.192 Z M52.768,135.624 C51.376,135.624 50.4,136.68 50.4,138.12 L50.4,138.232 L54.96,138.232 L54.96,138.056 C54.96,136.6 54.08,135.624 52.768,135.624 Z M59.728,143 L58.448,143 L58.448,134.744 L59.728,134.744 L59.728,136.088 L59.792,136.088 C60.192,135.16 60.896,134.552 62.128,134.552 C63.824,134.552 64.896,135.704 64.896,137.704 L64.896,143 L63.616,143 L63.616,137.928 C63.616,136.456 62.976,135.704 61.744,135.704 C60.72,135.704 59.728,136.216 59.728,137.272 L59.728,143 Z M70.72,143 L69.232,143 L66.336,134.744 L67.616,134.744 L69.056,138.84 L69.952,141.656 L70.032,141.656 L70.928,138.84 L72.4,134.744 L73.632,134.744 L70.72,143 Z M75.92,132.808 C75.376,132.808 75.136,132.52 75.136,132.088 L75.136,131.88 C75.136,131.448 75.376,131.16 75.92,131.16 C76.464,131.16 76.704,131.448 76.704,131.88 L76.704,132.088 C76.704,132.52 76.464,132.808 75.92,132.808 Z M75.28,143 L75.28,134.744 L76.56,134.744 L76.56,143 L75.28,143 Z M81.76,143.192 C80.24,143.192 79.232,142.552 78.496,141.576 L79.408,140.84 C80.048,141.64 80.816,142.104 81.856,142.104 C82.944,142.104 83.584,141.608 83.584,140.76 C83.584,140.12 83.232,139.624 82.144,139.464 L81.488,139.368 C79.968,139.144 78.832,138.52 78.832,136.984 C78.832,135.352 80.096,134.552 81.776,134.552 C83.104,134.552 83.984,135.048 84.656,135.88 L83.808,136.648 C83.44,136.136 82.736,135.64 81.68,135.64 C80.624,135.64 80.064,136.136 80.064,136.92 C80.064,137.72 80.624,138.04 81.648,138.2 L82.288,138.296 C84.112,138.568 84.816,139.368 84.816,140.616 C84.816,142.216 83.648,143.192 81.76,143.192 Z M87.712,132.808 C87.168,132.808 86.928,132.52 86.928,132.088 L86.928,131.88 C86.928,131.448 87.168,131.16 87.712,131.16 C88.256,131.16 88.496,131.448 88.496,131.88 L88.496,132.088 C88.496,132.52 88.256,132.808 87.712,132.808 Z M87.072,143 L87.072,134.744 L88.352,134.744 L88.352,143 L87.072,143 Z M94.192,143.192 C91.984,143.192 90.464,141.496 90.464,138.872 C90.464,136.248 91.984,134.552 94.192,134.552 C96.4,134.552 97.92,136.248 97.92,138.872 C97.92,141.496 96.4,143.192 94.192,143.192 Z M94.192,142.056 C95.568,142.056 96.544,141.208 96.544,139.464 L96.544,138.28 C96.544,136.536 95.568,135.688 94.192,135.688 C92.816,135.688 91.84,136.536 91.84,138.28 L91.84,139.464 C91.84,141.208 92.816,142.056 94.192,142.056 Z M101.312,143 L100.032,143 L100.032,134.744 L101.312,134.744 L101.312,136.088 L101.376,136.088 C101.776,135.16 102.48,134.552 103.712,134.552 C105.408,134.552 106.48,135.704 106.48,137.704 L106.48,143 L105.2,143 L105.2,137.928 C105.2,136.456 104.56,135.704 103.328,135.704 C102.304,135.704 101.312,136.216 101.312,137.272 L101.312,143 Z M112.224,143.192 C109.984,143.192 108.512,141.496 108.512,138.872 C108.512,136.248 109.984,134.552 112.224,134.552 C114.432,134.552 115.792,136.248 115.792,138.584 L115.792,139.192 L109.856,139.192 L109.856,139.576 C109.856,141 110.768,142.072 112.304,142.072 C113.344,142.072 114.144,141.56 114.576,140.648 L115.488,141.304 C114.96,142.424 113.776,143.192 112.224,143.192 Z M112.224,135.624 C110.832,135.624 109.856,136.68 109.856,138.12 L109.856,138.232 L114.416,138.232 L114.416,138.056 C114.416,136.6 113.536,135.624 112.224,135.624 Z M123.184,143 L123.184,141.656 L123.12,141.656 C122.624,142.68 121.84,143.192 120.704,143.192 C118.64,143.192 117.344,141.512 117.344,138.872 C117.344,136.232 118.64,134.552 120.704,134.552 C121.84,134.552 122.688,135.048 123.12,136.088 L123.184,136.088 L123.184,131.16 L124.464,131.16 L124.464,143 L123.184,143 Z M121.056,142.04 C122.224,142.04 123.184,141.432 123.184,140.36 L123.184,137.288 C123.184,136.376 122.224,135.704 121.056,135.704 C119.616,135.704 118.72,136.696 118.72,138.168 L118.72,139.576 C118.72,141.048 119.616,142.04 121.056,142.04 Z M136.24,143 L136.24,141.656 L136.176,141.656 C135.68,142.68 134.896,143.192 133.76,143.192 C131.696,143.192 130.4,141.512 130.4,138.872 C130.4,136.232 131.696,134.552 133.76,134.552 C134.896,134.552 135.744,135.048 136.176,136.088 L136.24,136.088 L136.24,131.16 L137.52,131.16 L137.52,143 L136.24,143 Z M134.112,142.04 C135.28,142.04 136.24,141.432 136.24,140.36 L136.24,137.288 C136.24,136.376 135.28,135.704 134.112,135.704 C132.672,135.704 131.776,136.696 131.776,138.168 L131.776,139.576 C131.776,141.048 132.672,142.04 134.112,142.04 Z M143.344,143.192 C141.104,143.192 139.632,141.496 139.632,138.872 C139.632,136.248 141.104,134.552 143.344,134.552 C145.552,134.552 146.912,136.248 146.912,138.584 L146.912,139.192 L140.976,139.192 L140.976,139.576 C140.976,141 141.888,142.072 143.424,142.072 C144.464,142.072 145.264,141.56 145.696,140.648 L146.608,141.304 C146.08,142.424 144.896,143.192 143.344,143.192 Z M143.344,135.624 C141.952,135.624 140.976,136.68 140.976,138.12 L140.976,138.232 L145.536,138.232 L145.536,138.056 C145.536,136.6 144.656,135.624 143.344,135.624 Z M151.504,143.192 C149.984,143.192 148.976,142.552 148.24,141.576 L149.152,140.84 C149.792,141.64 150.56,142.104 151.6,142.104 C152.688,142.104 153.328,141.608 153.328,140.76 C153.328,140.12 152.976,139.624 151.888,139.464 L151.232,139.368 C149.712,139.144 148.576,138.52 148.576,136.984 C148.576,135.352 149.84,134.552 151.52,134.552 C152.848,134.552 153.728,135.048 154.4,135.88 L153.552,136.648 C153.184,136.136 152.48,135.64 151.424,135.64 C150.368,135.64 149.808,136.136 149.808,136.92 C149.808,137.72 150.368,138.04 151.392,138.2 L152.032,138.296 C153.856,138.568 154.56,139.368 154.56,140.616 C154.56,142.216 153.392,143.192 151.504,143.192 Z M157.456,132.808 C156.912,132.808 156.672,132.52 156.672,132.088 L156.672,131.88 C156.672,131.448 156.912,131.16 157.456,131.16 C158,131.16 158.24,131.448 158.24,131.88 L158.24,132.088 C158.24,132.52 158,132.808 157.456,132.808 Z M156.816,143 L156.816,134.744 L158.096,134.744 L158.096,143 L156.816,143 Z M167.776,143.912 C167.776,145.608 166.432,146.392 163.776,146.392 C161.2,146.392 160.144,145.656 160.144,144.36 C160.144,143.464 160.64,142.984 161.456,142.76 L161.456,142.584 C160.992,142.36 160.72,141.992 160.72,141.432 C160.72,140.6 161.312,140.2 162.144,139.992 L162.144,139.928 C161.168,139.464 160.592,138.552 160.592,137.4 C160.592,135.72 161.824,134.552 163.696,134.552 C164.288,134.552 164.816,134.664 165.264,134.872 L165.264,134.728 C165.264,134.088 165.536,133.624 166.224,133.624 L167.456,133.624 L167.456,134.744 L165.888,134.744 L165.888,135.272 C166.48,135.784 166.832,136.52 166.832,137.4 C166.832,139.08 165.6,140.248 163.712,140.248 C163.44,140.248 163.152,140.216 162.912,140.168 C162.368,140.312 161.824,140.584 161.824,141.096 C161.824,141.592 162.336,141.72 163.088,141.72 L164.848,141.72 C166.896,141.72 167.776,142.552 167.776,143.912 Z M166.576,144.008 C166.576,143.352 166.144,142.92 164.864,142.92 L162.112,142.92 C161.584,143.16 161.344,143.528 161.344,144.04 C161.344,144.76 161.84,145.352 163.136,145.352 L164.32,145.352 C165.744,145.352 166.576,144.904 166.576,144.008 Z M163.712,139.224 C164.8,139.224 165.488,138.712 165.488,137.624 L165.488,137.176 C165.488,136.088 164.8,135.576 163.712,135.576 C162.624,135.576 161.936,136.088 161.936,137.176 L161.936,137.624 C161.936,138.712 162.624,139.224 163.712,139.224 Z M170.544,143 L169.264,143 L169.264,134.744 L170.544,134.744 L170.544,136.088 L170.608,136.088 C171.008,135.16 171.712,134.552 172.944,134.552 C174.64,134.552 175.712,135.704 175.712,137.704 L175.712,143 L174.432,143 L174.432,137.928 C174.432,136.456 173.792,135.704 172.56,135.704 C171.536,135.704 170.544,136.216 170.544,137.272 L170.544,143 Z M185.552,143 L183.952,143 C183.072,143 182.592,142.44 182.592,141.64 L182.592,135.864 L181.232,135.864 L181.232,134.744 L182,134.744 C182.544,134.744 182.72,134.552 182.72,133.992 L182.72,132.456 L183.872,132.456 L183.872,134.744 L185.68,134.744 L185.68,135.864 L183.872,135.864 L183.872,141.88 L185.552,141.88 L185.552,143 Z M187.744,143 L187.744,131.16 L189.024,131.16 L189.024,136.088 L189.088,136.088 C189.488,135.16 190.192,134.552 191.424,134.552 C193.12,134.552 194.192,135.704 194.192,137.704 L194.192,143 L192.912,143 L192.912,137.928 C192.912,136.456 192.272,135.704 191.04,135.704 C190.016,135.704 189.024,136.216 189.024,137.272 L189.024,143 L187.744,143 Z M197.472,132.808 C196.928,132.808 196.688,132.52 196.688,132.088 L196.688,131.88 C196.688,131.448 196.928,131.16 197.472,131.16 C198.016,131.16 198.256,131.448 198.256,131.88 L198.256,132.088 C198.256,132.52 198.016,132.808 197.472,132.808 Z M196.832,143 L196.832,134.744 L198.112,134.744 L198.112,143 L196.832,143 Z M202.112,143 L200.832,143 L200.832,134.744 L202.112,134.744 L202.112,136.088 L202.176,136.088 C202.576,135.16 203.28,134.552 204.512,134.552 C206.208,134.552 207.28,135.704 207.28,137.704 L207.28,143 L206,143 L206,137.928 C206,136.456 205.36,135.704 204.128,135.704 C203.104,135.704 202.112,136.216 202.112,137.272 L202.112,143 Z M209.92,143 L209.92,131.16 L211.2,131.16 L211.2,138.664 L211.264,138.664 L212.528,137.256 L214.864,134.744 L216.416,134.744 L213.36,138.008 L216.72,143 L215.168,143 L212.432,138.792 L211.2,140.056 L211.2,143 L209.92,143 Z M218.992,132.808 C218.448,132.808 218.208,132.52 218.208,132.088 L218.208,131.88 C218.208,131.448 218.448,131.16 218.992,131.16 C219.536,131.16 219.776,131.448 219.776,131.88 L219.776,132.088 C219.776,132.52 219.536,132.808 218.992,132.808 Z M218.352,143 L218.352,134.744 L219.632,134.744 L219.632,143 L218.352,143 Z M223.632,143 L222.352,143 L222.352,134.744 L223.632,134.744 L223.632,136.088 L223.696,136.088 C224.096,135.16 224.8,134.552 226.032,134.552 C227.728,134.552 228.8,135.704 228.8,137.704 L228.8,143 L227.52,143 L227.52,137.928 C227.52,136.456 226.88,135.704 225.648,135.704 C224.624,135.704 223.632,136.216 223.632,137.272 L223.632,143 Z M238.4,143.912 C238.4,145.608 237.056,146.392 234.4,146.392 C231.824,146.392 230.768,145.656 230.768,144.36 C230.768,143.464 231.264,142.984 232.08,142.76 L232.08,142.584 C231.616,142.36 231.344,141.992 231.344,141.432 C231.344,140.6 231.936,140.2 232.768,139.992 L232.768,139.928 C231.792,139.464 231.216,138.552 231.216,137.4 C231.216,135.72 232.448,134.552 234.32,134.552 C234.912,134.552 235.44,134.664 235.888,134.872 L235.888,134.728 C235.888,134.088 236.16,133.624 236.848,133.624 L238.08,133.624 L238.08,134.744 L236.512,134.744 L236.512,135.272 C237.104,135.784 237.456,136.52 237.456,137.4 C237.456,139.08 236.224,140.248 234.336,140.248 C234.064,140.248 233.776,140.216 233.536,140.168 C232.992,140.312 232.448,140.584 232.448,141.096 C232.448,141.592 232.96,141.72 233.712,141.72 L235.472,141.72 C237.52,141.72 238.4,142.552 238.4,143.912 Z M237.2,144.008 C237.2,143.352 236.768,142.92 235.488,142.92 L232.736,142.92 C232.208,143.16 231.968,143.528 231.968,144.04 C231.968,144.76 232.464,145.352 233.76,145.352 L234.944,145.352 C236.368,145.352 237.2,144.904 237.2,144.008 Z M234.336,139.224 C235.424,139.224 236.112,138.712 236.112,137.624 L236.112,137.176 C236.112,136.088 235.424,135.576 234.336,135.576 C233.248,135.576 232.56,136.088 232.56,137.176 L232.56,137.624 C232.56,138.712 233.248,139.224 234.336,139.224 Z M240.912,141.128 C241.584,141.128 241.888,141.512 241.888,142.072 L241.888,142.296 C241.888,143.16 241.344,144.344 240.432,145.128 L239.36,145.128 C240,144.456 240.384,143.896 240.56,143.144 C240.128,143.048 239.936,142.728 239.936,142.296 L239.936,142.072 C239.936,141.512 240.24,141.128 240.912,141.128 Z M251.296,143.192 C248.976,143.192 247.616,141.512 247.616,138.872 C247.616,136.232 248.976,134.552 251.296,134.552 C252.928,134.552 253.904,135.352 254.384,136.488 L253.312,137.032 C253.008,136.184 252.304,135.688 251.296,135.688 C249.776,135.688 248.992,136.728 248.992,138.168 L248.992,139.576 C248.992,141.016 249.776,142.056 251.296,142.056 C252.336,142.056 253.088,141.56 253.536,140.616 L254.464,141.24 C253.936,142.424 252.864,143.192 251.296,143.192 Z M257.552,143 L256.272,143 L256.272,134.744 L257.552,134.744 L257.552,136.264 L257.632,136.264 C257.92,135.48 258.672,134.744 260.016,134.744 L260.512,134.744 L260.512,136.024 L259.76,136.024 C258.384,136.024 257.552,136.616 257.552,137.4 L257.552,143 Z M265.168,143.192 C262.928,143.192 261.456,141.496 261.456,138.872 C261.456,136.248 262.928,134.552 265.168,134.552 C267.376,134.552 268.736,136.248 268.736,138.584 L268.736,139.192 L262.8,139.192 L262.8,139.576 C262.8,141 263.712,142.072 265.248,142.072 C266.288,142.072 267.088,141.56 267.52,140.648 L268.432,141.304 C267.904,142.424 266.72,143.192 265.168,143.192 Z M265.168,135.624 C263.776,135.624 262.8,136.68 262.8,138.12 L262.8,138.232 L267.36,138.232 L267.36,138.056 C267.36,136.6 266.48,135.624 265.168,135.624 Z M277.568,143 L276.848,143 C275.904,143 275.52,142.424 275.424,141.656 L275.344,141.656 C274.992,142.664 274.112,143.192 272.96,143.192 C271.216,143.192 270.192,142.232 270.192,140.696 C270.192,139.144 271.312,138.28 273.712,138.28 L275.344,138.28 L275.344,137.464 C275.344,136.296 274.704,135.656 273.392,135.656 C272.4,135.656 271.744,136.136 271.296,136.888 L270.528,136.168 C270.976,135.288 271.968,134.552 273.456,134.552 C275.44,134.552 276.624,135.592 276.624,137.336 L276.624,141.88 L277.568,141.88 L277.568,143 Z M273.168,142.104 C274.432,142.104 275.344,141.448 275.344,140.6 L275.344,139.24 L273.648,139.24 C272.192,139.24 271.536,139.688 271.536,140.488 L271.536,140.824 C271.536,141.64 272.176,142.104 273.168,142.104 Z M282.816,143 L281.216,143 C280.336,143 279.856,142.44 279.856,141.64 L279.856,135.864 L278.496,135.864 L278.496,134.744 L279.264,134.744 C279.808,134.744 279.984,134.552 279.984,133.992 L279.984,132.456 L281.136,132.456 L281.136,134.744 L282.944,134.744 L282.944,135.864 L281.136,135.864 L281.136,141.88 L282.816,141.88 L282.816,143 Z M288.048,143.192 C285.808,143.192 284.336,141.496 284.336,138.872 C284.336,136.248 285.808,134.552 288.048,134.552 C290.256,134.552 291.616,136.248 291.616,138.584 L291.616,139.192 L285.68,139.192 L285.68,139.576 C285.68,141 286.592,142.072 288.128,142.072 C289.168,142.072 289.968,141.56 290.4,140.648 L291.312,141.304 C290.784,142.424 289.6,143.192 288.048,143.192 Z M288.048,135.624 C286.656,135.624 285.68,136.68 285.68,138.12 L285.68,138.232 L290.24,138.232 L290.24,138.056 C290.24,136.6 289.36,135.624 288.048,135.624 Z M299.008,143 L299.008,141.656 L298.944,141.656 C298.448,142.68 297.664,143.192 296.528,143.192 C294.464,143.192 293.168,141.512 293.168,138.872 C293.168,136.232 294.464,134.552 296.528,134.552 C297.664,134.552 298.512,135.048 298.944,136.088 L299.008,136.088 L299.008,131.16 L300.288,131.16 L300.288,143 L299.008,143 Z M296.88,142.04 C298.048,142.04 299.008,141.432 299.008,140.36 L299.008,137.288 C299.008,136.376 298.048,135.704 296.88,135.704 C295.44,135.704 294.544,136.696 294.544,138.168 L294.544,139.576 C294.544,141.048 295.44,142.04 296.88,142.04 Z M313.504,143 L312.784,143 C311.84,143 311.456,142.424 311.36,141.656 L311.28,141.656 C310.928,142.664 310.048,143.192 308.896,143.192 C307.152,143.192 306.128,142.232 306.128,140.696 C306.128,139.144 307.248,138.28 309.648,138.28 L311.28,138.28 L311.28,137.464 C311.28,136.296 310.64,135.656 309.328,135.656 C308.336,135.656 307.68,136.136 307.232,136.888 L306.464,136.168 C306.912,135.288 307.904,134.552 309.392,134.552 C311.376,134.552 312.56,135.592 312.56,137.336 L312.56,141.88 L313.504,141.88 L313.504,143 Z M309.104,142.104 C310.368,142.104 311.28,141.448 311.28,140.6 L311.28,139.24 L309.584,139.24 C308.128,139.24 307.472,139.688 307.472,140.488 L307.472,140.824 C307.472,141.64 308.112,142.104 309.104,142.104 Z M25.808,167 L25.808,159.864 L24.464,159.864 L24.464,158.744 L25.808,158.744 L25.808,157.08 C25.808,155.944 26.4,155.16 27.616,155.16 L28.864,155.16 L28.864,156.28 L27.088,156.28 L27.088,158.744 L28.864,158.744 L28.864,159.864 L27.088,159.864 L27.088,167 L25.808,167 Z M31.824,167 L30.544,167 L30.544,158.744 L31.824,158.744 L31.824,160.264 L31.904,160.264 C32.192,159.48 32.944,158.744 34.288,158.744 L34.784,158.744 L34.784,160.024 L34.032,160.024 C32.656,160.024 31.824,160.616 31.824,161.4 L31.824,167 Z M43.072,167 L42.352,167 C41.408,167 41.024,166.424 40.928,165.656 L40.848,165.656 C40.496,166.664 39.616,167.192 38.464,167.192 C36.72,167.192 35.696,166.232 35.696,164.696 C35.696,163.144 36.816,162.28 39.216,162.28 L40.848,162.28 L40.848,161.464 C40.848,160.296 40.208,159.656 38.896,159.656 C37.904,159.656 37.248,160.136 36.8,160.888 L36.032,160.168 C36.48,159.288 37.472,158.552 38.96,158.552 C40.944,158.552 42.128,159.592 42.128,161.336 L42.128,165.88 L43.072,165.88 L43.072,167 Z M38.672,166.104 C39.936,166.104 40.848,165.448 40.848,164.6 L40.848,163.24 L39.152,163.24 C37.696,163.24 37.04,163.688 37.04,164.488 L37.04,164.824 C37.04,165.64 37.68,166.104 38.672,166.104 Z M46.176,167 L44.896,167 L44.896,158.744 L46.176,158.744 L46.176,160.088 L46.24,160.088 C46.608,159.24 47.184,158.552 48.464,158.552 C49.552,158.552 50.544,159.048 50.992,160.232 L51.024,160.232 C51.328,159.336 52.128,158.552 53.536,158.552 C55.216,158.552 56.224,159.704 56.224,161.704 L56.224,167 L54.944,167 L54.944,161.928 C54.944,160.472 54.384,159.704 53.136,159.704 C52.128,159.704 51.2,160.216 51.2,161.272 L51.2,167 L49.92,167 L49.92,161.928 C49.92,160.456 49.36,159.704 48.144,159.704 C47.136,159.704 46.176,160.216 46.176,161.272 L46.176,167 Z M61.968,167.192 C59.728,167.192 58.256,165.496 58.256,162.872 C58.256,160.248 59.728,158.552 61.968,158.552 C64.176,158.552 65.536,160.248 65.536,162.584 L65.536,163.192 L59.6,163.192 L59.6,163.576 C59.6,165 60.512,166.072 62.048,166.072 C63.088,166.072 63.888,165.56 64.32,164.648 L65.232,165.304 C64.704,166.424 63.52,167.192 61.968,167.192 Z M61.968,159.624 C60.576,159.624 59.6,160.68 59.6,162.12 L59.6,162.232 L64.16,162.232 L64.16,162.056 C64.16,160.6 63.28,159.624 61.968,159.624 Z M68.912,167 L66.704,158.744 L67.952,158.744 L68.832,162.312 L69.712,165.928 L69.744,165.928 L70.752,162.312 L71.792,158.744 L72.928,158.744 L74,162.312 L75.024,165.928 L75.056,165.928 L75.904,162.312 L76.8,158.744 L78,158.744 L75.808,167 L74.224,167 L73.072,163.032 L72.352,160.52 L72.32,160.52 L71.616,163.032 L70.464,167 L68.912,167 Z M82.896,167.192 C80.688,167.192 79.168,165.496 79.168,162.872 C79.168,160.248 80.688,158.552 82.896,158.552 C85.104,158.552 86.624,160.248 86.624,162.872 C86.624,165.496 85.104,167.192 82.896,167.192 Z M82.896,166.056 C84.272,166.056 85.248,165.208 85.248,163.464 L85.248,162.28 C85.248,160.536 84.272,159.688 82.896,159.688 C81.52,159.688 80.544,160.536 80.544,162.28 L80.544,163.464 C80.544,165.208 81.52,166.056 82.896,166.056 Z M90.016,167 L88.736,167 L88.736,158.744 L90.016,158.744 L90.016,160.264 L90.096,160.264 C90.384,159.48 91.136,158.744 92.48,158.744 L92.976,158.744 L92.976,160.024 L92.224,160.024 C90.848,160.024 90.016,160.616 90.016,161.4 L90.016,167 Z M94.608,167 L94.608,155.16 L95.888,155.16 L95.888,162.664 L95.952,162.664 L97.216,161.256 L99.552,158.744 L101.104,158.744 L98.048,162.008 L101.408,167 L99.856,167 L97.12,162.792 L95.888,164.056 L95.888,167 L94.608,167 Z M107.264,167 L107.264,159.864 L105.92,159.864 L105.92,158.744 L107.264,158.744 L107.264,157.08 C107.264,155.944 107.856,155.16 109.072,155.16 L110.32,155.16 L110.32,156.28 L108.544,156.28 L108.544,158.744 L110.32,158.744 L110.32,159.864 L108.544,159.864 L108.544,167 L107.264,167 Z M115.056,167.192 C112.848,167.192 111.328,165.496 111.328,162.872 C111.328,160.248 112.848,158.552 115.056,158.552 C117.264,158.552 118.784,160.248 118.784,162.872 C118.784,165.496 117.264,167.192 115.056,167.192 Z M115.056,166.056 C116.432,166.056 117.408,165.208 117.408,163.464 L117.408,162.28 C117.408,160.536 116.432,159.688 115.056,159.688 C113.68,159.688 112.704,160.536 112.704,162.28 L112.704,163.464 C112.704,165.208 113.68,166.056 115.056,166.056 Z M122.176,167 L120.896,167 L120.896,158.744 L122.176,158.744 L122.176,160.264 L122.256,160.264 C122.544,159.48 123.296,158.744 124.64,158.744 L125.136,158.744 L125.136,160.024 L124.384,160.024 C123.008,160.024 122.176,160.616 122.176,161.4 L122.176,167 Z M133.024,167.192 C131.504,167.192 130.496,166.552 129.76,165.576 L130.672,164.84 C131.312,165.64 132.08,166.104 133.12,166.104 C134.208,166.104 134.848,165.608 134.848,164.76 C134.848,164.12 134.496,163.624 133.408,163.464 L132.752,163.368 C131.232,163.144 130.096,162.52 130.096,160.984 C130.096,159.352 131.36,158.552 133.04,158.552 C134.368,158.552 135.248,159.048 135.92,159.88 L135.072,160.648 C134.704,160.136 134,159.64 132.944,159.64 C131.888,159.64 131.328,160.136 131.328,160.92 C131.328,161.72 131.888,162.04 132.912,162.2 L133.552,162.296 C135.376,162.568 136.08,163.368 136.08,164.616 C136.08,166.216 134.912,167.192 133.024,167.192 Z M138.336,170.2 L138.336,158.744 L139.616,158.744 L139.616,160.088 L139.68,160.088 C140.112,159.048 140.96,158.552 142.096,158.552 C144.16,158.552 145.456,160.232 145.456,162.872 C145.456,165.512 144.16,167.192 142.096,167.192 C140.96,167.192 140.176,166.68 139.68,165.656 L139.616,165.656 L139.616,170.2 L138.336,170.2 Z M141.744,166.04 C143.184,166.04 144.08,165.048 144.08,163.576 L144.08,162.168 C144.08,160.696 143.184,159.704 141.744,159.704 C140.576,159.704 139.616,160.376 139.616,161.288 L139.616,164.36 C139.616,165.432 140.576,166.04 141.744,166.04 Z M150.72,167.192 C148.48,167.192 147.008,165.496 147.008,162.872 C147.008,160.248 148.48,158.552 150.72,158.552 C152.928,158.552 154.288,160.248 154.288,162.584 L154.288,163.192 L148.352,163.192 L148.352,163.576 C148.352,165 149.264,166.072 150.8,166.072 C151.84,166.072 152.64,165.56 153.072,164.648 L153.984,165.304 C153.456,166.424 152.272,167.192 150.72,167.192 Z M150.72,159.624 C149.328,159.624 148.352,160.68 148.352,162.12 L148.352,162.232 L152.912,162.232 L152.912,162.056 C152.912,160.6 152.032,159.624 150.72,159.624 Z M159.504,167.192 C157.264,167.192 155.792,165.496 155.792,162.872 C155.792,160.248 157.264,158.552 159.504,158.552 C161.712,158.552 163.072,160.248 163.072,162.584 L163.072,163.192 L157.136,163.192 L157.136,163.576 C157.136,165 158.048,166.072 159.584,166.072 C160.624,166.072 161.424,165.56 161.856,164.648 L162.768,165.304 C162.24,166.424 161.056,167.192 159.504,167.192 Z M159.504,159.624 C158.112,159.624 157.136,160.68 157.136,162.12 L157.136,162.232 L161.696,162.232 L161.696,162.056 C161.696,160.6 160.816,159.624 159.504,159.624 Z M170.464,167 L170.464,165.656 L170.4,165.656 C169.904,166.68 169.12,167.192 167.984,167.192 C165.92,167.192 164.624,165.512 164.624,162.872 C164.624,160.232 165.92,158.552 167.984,158.552 C169.12,158.552 169.968,159.048 170.4,160.088 L170.464,160.088 L170.464,155.16 L171.744,155.16 L171.744,167 L170.464,167 Z M168.336,166.04 C169.504,166.04 170.464,165.432 170.464,164.36 L170.464,161.288 C170.464,160.376 169.504,159.704 168.336,159.704 C166.896,159.704 166,160.696 166,162.168 L166,163.576 C166,165.048 166.896,166.04 168.336,166.04 Z M184.96,167 L184.24,167 C183.296,167 182.912,166.424 182.816,165.656 L182.736,165.656 C182.384,166.664 181.504,167.192 180.352,167.192 C178.608,167.192 177.584,166.232 177.584,164.696 C177.584,163.144 178.704,162.28 181.104,162.28 L182.736,162.28 L182.736,161.464 C182.736,160.296 182.096,159.656 180.784,159.656 C179.792,159.656 179.136,160.136 178.688,160.888 L177.92,160.168 C178.368,159.288 179.36,158.552 180.848,158.552 C182.832,158.552 184.016,159.592 184.016,161.336 L184.016,165.88 L184.96,165.88 L184.96,167 Z M180.56,166.104 C181.824,166.104 182.736,165.448 182.736,164.6 L182.736,163.24 L181.04,163.24 C179.584,163.24 178.928,163.688 178.928,164.488 L178.928,164.824 C178.928,165.64 179.568,166.104 180.56,166.104 Z M188.064,167 L186.784,167 L186.784,158.744 L188.064,158.744 L188.064,160.088 L188.128,160.088 C188.528,159.16 189.232,158.552 190.464,158.552 C192.16,158.552 193.232,159.704 193.232,161.704 L193.232,167 L191.952,167 L191.952,161.928 C191.952,160.456 191.312,159.704 190.08,159.704 C189.056,159.704 188.064,160.216 188.064,161.272 L188.064,167 Z M201.152,167 L201.152,165.656 L201.088,165.656 C200.592,166.68 199.808,167.192 198.672,167.192 C196.608,167.192 195.312,165.512 195.312,162.872 C195.312,160.232 196.608,158.552 198.672,158.552 C199.808,158.552 200.656,159.048 201.088,160.088 L201.152,160.088 L201.152,155.16 L202.432,155.16 L202.432,167 L201.152,167 Z M199.024,166.04 C200.192,166.04 201.152,165.432 201.152,164.36 L201.152,161.288 C201.152,160.376 200.192,159.704 199.024,159.704 C197.584,159.704 196.688,160.696 196.688,162.168 L196.688,163.576 C196.688,165.048 197.584,166.04 199.024,166.04 Z M211.408,167.192 C209.888,167.192 208.88,166.552 208.144,165.576 L209.056,164.84 C209.696,165.64 210.464,166.104 211.504,166.104 C212.592,166.104 213.232,165.608 213.232,164.76 C213.232,164.12 212.88,163.624 211.792,163.464 L211.136,163.368 C209.616,163.144 208.48,162.52 208.48,160.984 C208.48,159.352 209.744,158.552 211.424,158.552 C212.752,158.552 213.632,159.048 214.304,159.88 L213.456,160.648 C213.088,160.136 212.384,159.64 211.328,159.64 C210.272,159.64 209.712,160.136 209.712,160.92 C209.712,161.72 210.272,162.04 211.296,162.2 L211.936,162.296 C213.76,162.568 214.464,163.368 214.464,164.616 C214.464,166.216 213.296,167.192 211.408,167.192 Z M219.792,167.192 C217.472,167.192 216.112,165.512 216.112,162.872 C216.112,160.232 217.472,158.552 219.792,158.552 C221.424,158.552 222.4,159.352 222.88,160.488 L221.808,161.032 C221.504,160.184 220.8,159.688 219.792,159.688 C218.272,159.688 217.488,160.728 217.488,162.168 L217.488,163.576 C217.488,165.016 218.272,166.056 219.792,166.056 C220.832,166.056 221.584,165.56 222.032,164.616 L222.96,165.24 C222.432,166.424 221.36,167.192 219.792,167.192 Z M231.488,167 L230.768,167 C229.824,167 229.44,166.424 229.344,165.656 L229.264,165.656 C228.912,166.664 228.032,167.192 226.88,167.192 C225.136,167.192 224.112,166.232 224.112,164.696 C224.112,163.144 225.232,162.28 227.632,162.28 L229.264,162.28 L229.264,161.464 C229.264,160.296 228.624,159.656 227.312,159.656 C226.32,159.656 225.664,160.136 225.216,160.888 L224.448,160.168 C224.896,159.288 225.888,158.552 227.376,158.552 C229.36,158.552 230.544,159.592 230.544,161.336 L230.544,165.88 L231.488,165.88 L231.488,167 Z M227.088,166.104 C228.352,166.104 229.264,165.448 229.264,164.6 L229.264,163.24 L227.568,163.24 C226.112,163.24 225.456,163.688 225.456,164.488 L225.456,164.824 C225.456,165.64 226.096,166.104 227.088,166.104 Z M235.808,167 L234.672,167 C233.792,167 233.312,166.44 233.312,165.672 L233.312,155.16 L234.592,155.16 L234.592,165.88 L235.808,165.88 L235.808,167 Z M240.768,167.192 C238.528,167.192 237.056,165.496 237.056,162.872 C237.056,160.248 238.528,158.552 240.768,158.552 C242.976,158.552 244.336,160.248 244.336,162.584 L244.336,163.192 L238.4,163.192 L238.4,163.576 C238.4,165 239.312,166.072 240.848,166.072 C241.888,166.072 242.688,165.56 243.12,164.648 L244.032,165.304 C243.504,166.424 242.32,167.192 240.768,167.192 Z M240.768,159.624 C239.376,159.624 238.4,160.68 238.4,162.12 L238.4,162.232 L242.96,162.232 L242.96,162.056 C242.96,160.6 242.08,159.624 240.768,159.624 Z M253.344,167.192 C251.136,167.192 249.616,165.496 249.616,162.872 C249.616,160.248 251.136,158.552 253.344,158.552 C255.552,158.552 257.072,160.248 257.072,162.872 C257.072,165.496 255.552,167.192 253.344,167.192 Z M253.344,166.056 C254.72,166.056 255.696,165.208 255.696,163.464 L255.696,162.28 C255.696,160.536 254.72,159.688 253.344,159.688 C251.968,159.688 250.992,160.536 250.992,162.28 L250.992,163.464 C250.992,165.208 251.968,166.056 253.344,166.056 Z M259.536,167 L259.536,159.864 L258.192,159.864 L258.192,158.744 L259.536,158.744 L259.536,157.08 C259.536,155.944 260.128,155.16 261.344,155.16 L262.592,155.16 L262.592,156.28 L260.816,156.28 L260.816,158.744 L262.592,158.744 L262.592,159.864 L260.816,159.864 L260.816,167 L259.536,167 Z M274.768,167 L274.048,167 C273.104,167 272.72,166.424 272.624,165.656 L272.544,165.656 C272.192,166.664 271.312,167.192 270.16,167.192 C268.416,167.192 267.392,166.232 267.392,164.696 C267.392,163.144 268.512,162.28 270.912,162.28 L272.544,162.28 L272.544,161.464 C272.544,160.296 271.904,159.656 270.592,159.656 C269.6,159.656 268.944,160.136 268.496,160.888 L267.728,160.168 C268.176,159.288 269.168,158.552 270.656,158.552 C272.64,158.552 273.824,159.592 273.824,161.336 L273.824,165.88 L274.768,165.88 L274.768,167 Z M270.368,166.104 C271.632,166.104 272.544,165.448 272.544,164.6 L272.544,163.24 L270.848,163.24 C269.392,163.24 268.736,163.688 268.736,164.488 L268.736,164.824 C268.736,165.64 269.376,166.104 270.368,166.104 Z M282.864,167 L281.728,167 C280.848,167 280.368,166.44 280.368,165.672 L280.368,155.16 L281.648,155.16 L281.648,165.88 L282.864,165.88 L282.864,167 Z M291.44,167 L290.72,167 C289.776,167 289.392,166.424 289.296,165.656 L289.216,165.656 C288.864,166.664 287.984,167.192 286.832,167.192 C285.088,167.192 284.064,166.232 284.064,164.696 C284.064,163.144 285.184,162.28 287.584,162.28 L289.216,162.28 L289.216,161.464 C289.216,160.296 288.576,159.656 287.264,159.656 C286.272,159.656 285.616,160.136 285.168,160.888 L284.4,160.168 C284.848,159.288 285.84,158.552 287.328,158.552 C289.312,158.552 290.496,159.592 290.496,161.336 L290.496,165.88 L291.44,165.88 L291.44,167 Z M287.04,166.104 C288.304,166.104 289.216,165.448 289.216,164.6 L289.216,163.24 L287.52,163.24 C286.064,163.24 285.408,163.688 285.408,164.488 L285.408,164.824 C285.408,165.64 286.048,166.104 287.04,166.104 Z M294.544,167 L293.264,167 L293.264,158.744 L294.544,158.744 L294.544,160.264 L294.624,160.264 C294.912,159.48 295.664,158.744 297.008,158.744 L297.504,158.744 L297.504,160.024 L296.752,160.024 C295.376,160.024 294.544,160.616 294.544,161.4 L294.544,167 Z M305.728,167.912 C305.728,169.608 304.384,170.392 301.728,170.392 C299.152,170.392 298.096,169.656 298.096,168.36 C298.096,167.464 298.592,166.984 299.408,166.76 L299.408,166.584 C298.944,166.36 298.672,165.992 298.672,165.432 C298.672,164.6 299.264,164.2 300.096,163.992 L300.096,163.928 C299.12,163.464 298.544,162.552 298.544,161.4 C298.544,159.72 299.776,158.552 301.648,158.552 C302.24,158.552 302.768,158.664 303.216,158.872 L303.216,158.728 C303.216,158.088 303.488,157.624 304.176,157.624 L305.408,157.624 L305.408,158.744 L303.84,158.744 L303.84,159.272 C304.432,159.784 304.784,160.52 304.784,161.4 C304.784,163.08 303.552,164.248 301.664,164.248 C301.392,164.248 301.104,164.216 300.864,164.168 C300.32,164.312 299.776,164.584 299.776,165.096 C299.776,165.592 300.288,165.72 301.04,165.72 L302.8,165.72 C304.848,165.72 305.728,166.552 305.728,167.912 Z M304.528,168.008 C304.528,167.352 304.096,166.92 302.816,166.92 L300.064,166.92 C299.536,167.16 299.296,167.528 299.296,168.04 C299.296,168.76 299.792,169.352 301.088,169.352 L302.272,169.352 C303.696,169.352 304.528,168.904 304.528,168.008 Z M301.664,163.224 C302.752,163.224 303.44,162.712 303.44,161.624 L303.44,161.176 C303.44,160.088 302.752,159.576 301.664,159.576 C300.576,159.576 299.888,160.088 299.888,161.176 L299.888,161.624 C299.888,162.712 300.576,163.224 301.664,163.224 Z M310.224,167.192 C307.984,167.192 306.512,165.496 306.512,162.872 C306.512,160.248 307.984,158.552 310.224,158.552 C312.432,158.552 313.792,160.248 313.792,162.584 L313.792,163.192 L307.856,163.192 L307.856,163.576 C307.856,165 308.768,166.072 310.304,166.072 C311.344,166.072 312.144,165.56 312.576,164.648 L313.488,165.304 C312.96,166.424 311.776,167.192 310.224,167.192 Z M310.224,159.624 C308.832,159.624 307.856,160.68 307.856,162.12 L307.856,162.232 L312.416,162.232 L312.416,162.056 C312.416,160.6 311.536,159.624 310.224,159.624 Z M27.84,191.192 C26.32,191.192 25.312,190.552 24.576,189.576 L25.488,188.84 C26.128,189.64 26.896,190.104 27.936,190.104 C29.024,190.104 29.664,189.608 29.664,188.76 C29.664,188.12 29.312,187.624 28.224,187.464 L27.568,187.368 C26.048,187.144 24.912,186.52 24.912,184.984 C24.912,183.352 26.176,182.552 27.856,182.552 C29.184,182.552 30.064,183.048 30.736,183.88 L29.888,184.648 C29.52,184.136 28.816,183.64 27.76,183.64 C26.704,183.64 26.144,184.136 26.144,184.92 C26.144,185.72 26.704,186.04 27.728,186.2 L28.368,186.296 C30.192,186.568 30.896,187.368 30.896,188.616 C30.896,190.216 29.728,191.192 27.84,191.192 Z M36.224,191.192 C33.904,191.192 32.544,189.512 32.544,186.872 C32.544,184.232 33.904,182.552 36.224,182.552 C37.856,182.552 38.832,183.352 39.312,184.488 L38.24,185.032 C37.936,184.184 37.232,183.688 36.224,183.688 C34.704,183.688 33.92,184.728 33.92,186.168 L33.92,187.576 C33.92,189.016 34.704,190.056 36.224,190.056 C37.264,190.056 38.016,189.56 38.464,188.616 L39.392,189.24 C38.864,190.424 37.792,191.192 36.224,191.192 Z M47.92,191 L47.2,191 C46.256,191 45.872,190.424 45.776,189.656 L45.696,189.656 C45.344,190.664 44.464,191.192 43.312,191.192 C41.568,191.192 40.544,190.232 40.544,188.696 C40.544,187.144 41.664,186.28 44.064,186.28 L45.696,186.28 L45.696,185.464 C45.696,184.296 45.056,183.656 43.744,183.656 C42.752,183.656 42.096,184.136 41.648,184.888 L40.88,184.168 C41.328,183.288 42.32,182.552 43.808,182.552 C45.792,182.552 46.976,183.592 46.976,185.336 L46.976,189.88 L47.92,189.88 L47.92,191 Z M43.52,190.104 C44.784,190.104 45.696,189.448 45.696,188.6 L45.696,187.24 L44,187.24 C42.544,187.24 41.888,187.688 41.888,188.488 L41.888,188.824 C41.888,189.64 42.528,190.104 43.52,190.104 Z M52.24,191 L51.104,191 C50.224,191 49.744,190.44 49.744,189.672 L49.744,179.16 L51.024,179.16 L51.024,189.88 L52.24,189.88 L52.24,191 Z M57.2,191.192 C54.96,191.192 53.488,189.496 53.488,186.872 C53.488,184.248 54.96,182.552 57.2,182.552 C59.408,182.552 60.768,184.248 60.768,186.584 L60.768,187.192 L54.832,187.192 L54.832,187.576 C54.832,189 55.744,190.072 57.28,190.072 C58.32,190.072 59.12,189.56 59.552,188.648 L60.464,189.304 C59.936,190.424 58.752,191.192 57.2,191.192 Z M57.2,183.624 C55.808,183.624 54.832,184.68 54.832,186.12 L54.832,186.232 L59.392,186.232 L59.392,186.056 C59.392,184.6 58.512,183.624 57.2,183.624 Z M67.936,191 L66.656,191 L66.656,182.744 L67.936,182.744 L67.936,184.088 L68,184.088 C68.368,183.24 68.944,182.552 70.224,182.552 C71.312,182.552 72.304,183.048 72.752,184.232 L72.784,184.232 C73.088,183.336 73.888,182.552 75.296,182.552 C76.976,182.552 77.984,183.704 77.984,185.704 L77.984,191 L76.704,191 L76.704,185.928 C76.704,184.472 76.144,183.704 74.896,183.704 C73.888,183.704 72.96,184.216 72.96,185.272 L72.96,191 L71.68,191 L71.68,185.928 C71.68,184.456 71.12,183.704 69.904,183.704 C68.896,183.704 67.936,184.216 67.936,185.272 L67.936,191 Z M83.744,191.192 C81.536,191.192 80.016,189.496 80.016,186.872 C80.016,184.248 81.536,182.552 83.744,182.552 C85.952,182.552 87.472,184.248 87.472,186.872 C87.472,189.496 85.952,191.192 83.744,191.192 Z M83.744,190.056 C85.12,190.056 86.096,189.208 86.096,187.464 L86.096,186.28 C86.096,184.536 85.12,183.688 83.744,183.688 C82.368,183.688 81.392,184.536 81.392,186.28 L81.392,187.464 C81.392,189.208 82.368,190.056 83.744,190.056 Z M94.864,191 L94.864,189.656 L94.8,189.656 C94.304,190.68 93.52,191.192 92.384,191.192 C90.32,191.192 89.024,189.512 89.024,186.872 C89.024,184.232 90.32,182.552 92.384,182.552 C93.52,182.552 94.368,183.048 94.8,184.088 L94.864,184.088 L94.864,179.16 L96.144,179.16 L96.144,191 L94.864,191 Z M92.736,190.04 C93.904,190.04 94.864,189.432 94.864,188.36 L94.864,185.288 C94.864,184.376 93.904,183.704 92.736,183.704 C91.296,183.704 90.4,184.696 90.4,186.168 L90.4,187.576 C90.4,189.048 91.296,190.04 92.736,190.04 Z M101.968,191.192 C99.728,191.192 98.256,189.496 98.256,186.872 C98.256,184.248 99.728,182.552 101.968,182.552 C104.176,182.552 105.536,184.248 105.536,186.584 L105.536,187.192 L99.6,187.192 L99.6,187.576 C99.6,189 100.512,190.072 102.048,190.072 C103.088,190.072 103.888,189.56 104.32,188.648 L105.232,189.304 C104.704,190.424 103.52,191.192 101.968,191.192 Z M101.968,183.624 C100.576,183.624 99.6,184.68 99.6,186.12 L99.6,186.232 L104.16,186.232 L104.16,186.056 C104.16,184.6 103.28,183.624 101.968,183.624 Z M108.928,191 L107.648,191 L107.648,182.744 L108.928,182.744 L108.928,184.264 L109.008,184.264 C109.296,183.48 110.048,182.744 111.392,182.744 L111.888,182.744 L111.888,184.024 L111.136,184.024 C109.76,184.024 108.928,184.616 108.928,185.4 L108.928,191 Z M114.8,191 L113.52,191 L113.52,182.744 L114.8,182.744 L114.8,184.088 L114.864,184.088 C115.264,183.16 115.968,182.552 117.2,182.552 C118.896,182.552 119.968,183.704 119.968,185.704 L119.968,191 L118.688,191 L118.688,185.928 C118.688,184.456 118.048,183.704 116.816,183.704 C115.792,183.704 114.8,184.216 114.8,185.272 L114.8,191 Z M129.488,191.192 C127.248,191.192 125.776,189.496 125.776,186.872 C125.776,184.248 127.248,182.552 129.488,182.552 C131.696,182.552 133.056,184.248 133.056,186.584 L133.056,187.192 L127.12,187.192 L127.12,187.576 C127.12,189 128.032,190.072 129.568,190.072 C130.608,190.072 131.408,189.56 131.84,188.648 L132.752,189.304 C132.224,190.424 131.04,191.192 129.488,191.192 Z M129.488,183.624 C128.096,183.624 127.12,184.68 127.12,186.12 L127.12,186.232 L131.68,186.232 L131.68,186.056 C131.68,184.6 130.8,183.624 129.488,183.624 Z M136.448,191 L135.168,191 L135.168,182.744 L136.448,182.744 L136.448,184.088 L136.512,184.088 C136.912,183.16 137.616,182.552 138.848,182.552 C140.544,182.552 141.616,183.704 141.616,185.704 L141.616,191 L140.336,191 L140.336,185.928 C140.336,184.456 139.696,183.704 138.464,183.704 C137.44,183.704 136.448,184.216 136.448,185.272 L136.448,191 Z M147.68,191 L146.08,191 C145.2,191 144.72,190.44 144.72,189.64 L144.72,183.864 L143.36,183.864 L143.36,182.744 L144.128,182.744 C144.672,182.744 144.848,182.552 144.848,181.992 L144.848,180.456 L146,180.456 L146,182.744 L147.808,182.744 L147.808,183.864 L146,183.864 L146,189.88 L147.68,189.88 L147.68,191 Z M152.912,191.192 C150.672,191.192 149.2,189.496 149.2,186.872 C149.2,184.248 150.672,182.552 152.912,182.552 C155.12,182.552 156.48,184.248 156.48,186.584 L156.48,187.192 L150.544,187.192 L150.544,187.576 C150.544,189 151.456,190.072 152.992,190.072 C154.032,190.072 154.832,189.56 155.264,188.648 L156.176,189.304 C155.648,190.424 154.464,191.192 152.912,191.192 Z M152.912,183.624 C151.52,183.624 150.544,184.68 150.544,186.12 L150.544,186.232 L155.104,186.232 L155.104,186.056 C155.104,184.6 154.224,183.624 152.912,183.624 Z M159.872,191 L158.592,191 L158.592,182.744 L159.872,182.744 L159.872,184.264 L159.952,184.264 C160.24,183.48 160.992,182.744 162.336,182.744 L162.832,182.744 L162.832,184.024 L162.08,184.024 C160.704,184.024 159.872,184.616 159.872,185.4 L159.872,191 Z M164.464,194.2 L164.464,182.744 L165.744,182.744 L165.744,184.088 L165.808,184.088 C166.24,183.048 167.088,182.552 168.224,182.552 C170.288,182.552 171.584,184.232 171.584,186.872 C171.584,189.512 170.288,191.192 168.224,191.192 C167.088,191.192 166.304,190.68 165.808,189.656 L165.744,189.656 L165.744,194.2 L164.464,194.2 Z M167.872,190.04 C169.312,190.04 170.208,189.048 170.208,187.576 L170.208,186.168 C170.208,184.696 169.312,183.704 167.872,183.704 C166.704,183.704 165.744,184.376 165.744,185.288 L165.744,188.36 C165.744,189.432 166.704,190.04 167.872,190.04 Z M175.024,191 L173.744,191 L173.744,182.744 L175.024,182.744 L175.024,184.264 L175.104,184.264 C175.392,183.48 176.144,182.744 177.488,182.744 L177.984,182.744 L177.984,184.024 L177.232,184.024 C175.856,184.024 175.024,184.616 175.024,185.4 L175.024,191 Z M180.256,180.808 C179.712,180.808 179.472,180.52 179.472,180.088 L179.472,179.88 C179.472,179.448 179.712,179.16 180.256,179.16 C180.8,179.16 181.04,179.448 181.04,179.88 L181.04,180.088 C181.04,180.52 180.8,180.808 180.256,180.808 Z M179.616,191 L179.616,182.744 L180.896,182.744 L180.896,191 L179.616,191 Z M186.096,191.192 C184.576,191.192 183.568,190.552 182.832,189.576 L183.744,188.84 C184.384,189.64 185.152,190.104 186.192,190.104 C187.28,190.104 187.92,189.608 187.92,188.76 C187.92,188.12 187.568,187.624 186.48,187.464 L185.824,187.368 C184.304,187.144 183.168,186.52 183.168,184.984 C183.168,183.352 184.432,182.552 186.112,182.552 C187.44,182.552 188.32,183.048 188.992,183.88 L188.144,184.648 C187.776,184.136 187.072,183.64 186.016,183.64 C184.96,183.64 184.4,184.136 184.4,184.92 C184.4,185.72 184.96,186.04 185.984,186.2 L186.624,186.296 C188.448,186.568 189.152,187.368 189.152,188.616 C189.152,190.216 187.984,191.192 186.096,191.192 Z M194.512,191.192 C192.272,191.192 190.8,189.496 190.8,186.872 C190.8,184.248 192.272,182.552 194.512,182.552 C196.72,182.552 198.08,184.248 198.08,186.584 L198.08,187.192 L192.144,187.192 L192.144,187.576 C192.144,189 193.056,190.072 194.592,190.072 C195.632,190.072 196.432,189.56 196.864,188.648 L197.776,189.304 C197.248,190.424 196.064,191.192 194.512,191.192 Z M194.512,183.624 C193.12,183.624 192.144,184.68 192.144,186.12 L192.144,186.232 L196.704,186.232 L196.704,186.056 C196.704,184.6 195.824,183.624 194.512,183.624 Z M200.688,191.192 C200.016,191.192 199.712,190.808 199.712,190.264 L199.712,190.056 C199.712,189.512 200.016,189.128 200.688,189.128 C201.36,189.128 201.664,189.512 201.664,190.056 L201.664,190.264 C201.664,190.808 201.36,191.192 200.688,191.192 Z" id="Design-thinking-is-a-Copy-3" fill="#3D3D3D"></path>
            </g>
        </g>
    </g>
</svg>