<?xml version="1.0" encoding="UTF-8"?>
<svg width="448px" height="248px" viewBox="0 0 448 248" version="1.1" xmlns="http://www.w3.org/2000/svg" xmlns:xlink="http://www.w3.org/1999/xlink">
    <!-- Generator: Sketch 51.2 (57519) - http://www.bohemiancoding.com/sketch -->
    <title>Group 30</title>
    <desc>Created with Sketch.</desc>
    <defs></defs>
    <g id="Page-1" stroke="none" stroke-width="1" fill="none" fill-rule="evenodd">
        <g id="Type-Basics-Copy" transform="translate(-833.000000, -8153.000000)">
            <g id="Group-30" transform="translate(833.000000, 8153.000000)">
                <rect id="Rectangle-16-Copy-166" fill="#FFFFFF" x="0" y="0" width="448" height="248"></rect>
                <rect id="Rectangle-16-Copy-187" fill="#FFCFE1" transform="translate(63.500000, 186.000000) scale(1, -1) translate(-63.500000, -186.000000) " x="20" y="174" width="87" height="24"></rect>
                <path d="M25.488,95 L25.488,83.832 L29.232,83.832 C32.016,83.832 33.808,85.688 33.808,89.416 C33.808,93.144 32.016,95 29.232,95 L25.488,95 Z M26.832,93.816 L29.232,93.816 C31.072,93.816 32.368,92.536 32.368,90.328 L32.368,88.504 C32.368,86.296 31.072,85.016 29.232,85.016 L26.832,85.016 L26.832,93.816 Z M39.2,95.192 C36.96,95.192 35.488,93.496 35.488,90.872 C35.488,88.248 36.96,86.552 39.2,86.552 C41.408,86.552 42.768,88.248 42.768,90.584 L42.768,91.192 L36.832,91.192 L36.832,91.576 C36.832,93 37.744,94.072 39.28,94.072 C40.32,94.072 41.12,93.56 41.552,92.648 L42.464,93.304 C41.936,94.424 40.752,95.192 39.2,95.192 Z M39.2,87.624 C37.808,87.624 36.832,88.68 36.832,90.12 L36.832,90.232 L41.392,90.232 L41.392,90.056 C41.392,88.6 40.512,87.624 39.2,87.624 Z M47.36,95.192 C45.84,95.192 44.832,94.552 44.096,93.576 L45.008,92.84 C45.648,93.64 46.416,94.104 47.456,94.104 C48.544,94.104 49.184,93.608 49.184,92.76 C49.184,92.12 48.832,91.624 47.744,91.464 L47.088,91.368 C45.568,91.144 44.432,90.52 44.432,88.984 C44.432,87.352 45.696,86.552 47.376,86.552 C48.704,86.552 49.584,87.048 50.256,87.88 L49.408,88.648 C49.04,88.136 48.336,87.64 47.28,87.64 C46.224,87.64 45.664,88.136 45.664,88.92 C45.664,89.72 46.224,90.04 47.248,90.2 L47.888,90.296 C49.712,90.568 50.416,91.368 50.416,92.616 C50.416,94.216 49.248,95.192 47.36,95.192 Z M53.312,84.808 C52.768,84.808 52.528,84.52 52.528,84.088 L52.528,83.88 C52.528,83.448 52.768,83.16 53.312,83.16 C53.856,83.16 54.096,83.448 54.096,83.88 L54.096,84.088 C54.096,84.52 53.856,84.808 53.312,84.808 Z M52.672,95 L52.672,86.744 L53.952,86.744 L53.952,95 L52.672,95 Z M63.632,95.912 C63.632,97.608 62.288,98.392 59.632,98.392 C57.056,98.392 56,97.656 56,96.36 C56,95.464 56.496,94.984 57.312,94.76 L57.312,94.584 C56.848,94.36 56.576,93.992 56.576,93.432 C56.576,92.6 57.168,92.2 58,91.992 L58,91.928 C57.024,91.464 56.448,90.552 56.448,89.4 C56.448,87.72 57.68,86.552 59.552,86.552 C60.144,86.552 60.672,86.664 61.12,86.872 L61.12,86.728 C61.12,86.088 61.392,85.624 62.08,85.624 L63.312,85.624 L63.312,86.744 L61.744,86.744 L61.744,87.272 C62.336,87.784 62.688,88.52 62.688,89.4 C62.688,91.08 61.456,92.248 59.568,92.248 C59.296,92.248 59.008,92.216 58.768,92.168 C58.224,92.312 57.68,92.584 57.68,93.096 C57.68,93.592 58.192,93.72 58.944,93.72 L60.704,93.72 C62.752,93.72 63.632,94.552 63.632,95.912 Z M62.432,96.008 C62.432,95.352 62,94.92 60.72,94.92 L57.968,94.92 C57.44,95.16 57.2,95.528 57.2,96.04 C57.2,96.76 57.696,97.352 58.992,97.352 L60.176,97.352 C61.6,97.352 62.432,96.904 62.432,96.008 Z M59.568,91.224 C60.656,91.224 61.344,90.712 61.344,89.624 L61.344,89.176 C61.344,88.088 60.656,87.576 59.568,87.576 C58.48,87.576 57.792,88.088 57.792,89.176 L57.792,89.624 C57.792,90.712 58.48,91.224 59.568,91.224 Z M66.4,95 L65.12,95 L65.12,86.744 L66.4,86.744 L66.4,88.088 L66.464,88.088 C66.864,87.16 67.568,86.552 68.8,86.552 C70.496,86.552 71.568,87.704 71.568,89.704 L71.568,95 L70.288,95 L70.288,89.928 C70.288,88.456 69.648,87.704 68.416,87.704 C67.392,87.704 66.4,88.216 66.4,89.272 L66.4,95 Z M81.408,95 L79.808,95 C78.928,95 78.448,94.44 78.448,93.64 L78.448,87.864 L77.088,87.864 L77.088,86.744 L77.856,86.744 C78.4,86.744 78.576,86.552 78.576,85.992 L78.576,84.456 L79.728,84.456 L79.728,86.744 L81.536,86.744 L81.536,87.864 L79.728,87.864 L79.728,93.88 L81.408,93.88 L81.408,95 Z M83.6,95 L83.6,83.16 L84.88,83.16 L84.88,88.088 L84.944,88.088 C85.344,87.16 86.048,86.552 87.28,86.552 C88.976,86.552 90.048,87.704 90.048,89.704 L90.048,95 L88.768,95 L88.768,89.928 C88.768,88.456 88.128,87.704 86.896,87.704 C85.872,87.704 84.88,88.216 84.88,89.272 L84.88,95 L83.6,95 Z M93.328,84.808 C92.784,84.808 92.544,84.52 92.544,84.088 L92.544,83.88 C92.544,83.448 92.784,83.16 93.328,83.16 C93.872,83.16 94.112,83.448 94.112,83.88 L94.112,84.088 C94.112,84.52 93.872,84.808 93.328,84.808 Z M92.688,95 L92.688,86.744 L93.968,86.744 L93.968,95 L92.688,95 Z M97.968,95 L96.688,95 L96.688,86.744 L97.968,86.744 L97.968,88.088 L98.032,88.088 C98.432,87.16 99.136,86.552 100.368,86.552 C102.064,86.552 103.136,87.704 103.136,89.704 L103.136,95 L101.856,95 L101.856,89.928 C101.856,88.456 101.216,87.704 99.984,87.704 C98.96,87.704 97.968,88.216 97.968,89.272 L97.968,95 Z M105.776,95 L105.776,83.16 L107.056,83.16 L107.056,90.664 L107.12,90.664 L108.384,89.256 L110.72,86.744 L112.272,86.744 L109.216,90.008 L112.576,95 L111.024,95 L108.288,90.792 L107.056,92.056 L107.056,95 L105.776,95 Z M114.848,84.808 C114.304,84.808 114.064,84.52 114.064,84.088 L114.064,83.88 C114.064,83.448 114.304,83.16 114.848,83.16 C115.392,83.16 115.632,83.448 115.632,83.88 L115.632,84.088 C115.632,84.52 115.392,84.808 114.848,84.808 Z M114.208,95 L114.208,86.744 L115.488,86.744 L115.488,95 L114.208,95 Z M119.488,95 L118.208,95 L118.208,86.744 L119.488,86.744 L119.488,88.088 L119.552,88.088 C119.952,87.16 120.656,86.552 121.888,86.552 C123.584,86.552 124.656,87.704 124.656,89.704 L124.656,95 L123.376,95 L123.376,89.928 C123.376,88.456 122.736,87.704 121.504,87.704 C120.48,87.704 119.488,88.216 119.488,89.272 L119.488,95 Z M134.256,95.912 C134.256,97.608 132.912,98.392 130.256,98.392 C127.68,98.392 126.624,97.656 126.624,96.36 C126.624,95.464 127.12,94.984 127.936,94.76 L127.936,94.584 C127.472,94.36 127.2,93.992 127.2,93.432 C127.2,92.6 127.792,92.2 128.624,91.992 L128.624,91.928 C127.648,91.464 127.072,90.552 127.072,89.4 C127.072,87.72 128.304,86.552 130.176,86.552 C130.768,86.552 131.296,86.664 131.744,86.872 L131.744,86.728 C131.744,86.088 132.016,85.624 132.704,85.624 L133.936,85.624 L133.936,86.744 L132.368,86.744 L132.368,87.272 C132.96,87.784 133.312,88.52 133.312,89.4 C133.312,91.08 132.08,92.248 130.192,92.248 C129.92,92.248 129.632,92.216 129.392,92.168 C128.848,92.312 128.304,92.584 128.304,93.096 C128.304,93.592 128.816,93.72 129.568,93.72 L131.328,93.72 C133.376,93.72 134.256,94.552 134.256,95.912 Z M133.056,96.008 C133.056,95.352 132.624,94.92 131.344,94.92 L128.592,94.92 C128.064,95.16 127.824,95.528 127.824,96.04 C127.824,96.76 128.32,97.352 129.616,97.352 L130.8,97.352 C132.224,97.352 133.056,96.904 133.056,96.008 Z M130.192,91.224 C131.28,91.224 131.968,90.712 131.968,89.624 L131.968,89.176 C131.968,88.088 131.28,87.576 130.192,87.576 C129.104,87.576 128.416,88.088 128.416,89.176 L128.416,89.624 C128.416,90.712 129.104,91.224 130.192,91.224 Z M140.16,84.808 C139.616,84.808 139.376,84.52 139.376,84.088 L139.376,83.88 C139.376,83.448 139.616,83.16 140.16,83.16 C140.704,83.16 140.944,83.448 140.944,83.88 L140.944,84.088 C140.944,84.52 140.704,84.808 140.16,84.808 Z M139.52,95 L139.52,86.744 L140.8,86.744 L140.8,95 L139.52,95 Z M146,95.192 C144.48,95.192 143.472,94.552 142.736,93.576 L143.648,92.84 C144.288,93.64 145.056,94.104 146.096,94.104 C147.184,94.104 147.824,93.608 147.824,92.76 C147.824,92.12 147.472,91.624 146.384,91.464 L145.728,91.368 C144.208,91.144 143.072,90.52 143.072,88.984 C143.072,87.352 144.336,86.552 146.016,86.552 C147.344,86.552 148.224,87.048 148.896,87.88 L148.048,88.648 C147.68,88.136 146.976,87.64 145.92,87.64 C144.864,87.64 144.304,88.136 144.304,88.92 C144.304,89.72 144.864,90.04 145.888,90.2 L146.528,90.296 C148.352,90.568 149.056,91.368 149.056,92.616 C149.056,94.216 147.888,95.192 146,95.192 Z M161.808,95 L161.088,95 C160.144,95 159.76,94.424 159.664,93.656 L159.584,93.656 C159.232,94.664 158.352,95.192 157.2,95.192 C155.456,95.192 154.432,94.232 154.432,92.696 C154.432,91.144 155.552,90.28 157.952,90.28 L159.584,90.28 L159.584,89.464 C159.584,88.296 158.944,87.656 157.632,87.656 C156.64,87.656 155.984,88.136 155.536,88.888 L154.768,88.168 C155.216,87.288 156.208,86.552 157.696,86.552 C159.68,86.552 160.864,87.592 160.864,89.336 L160.864,93.88 L161.808,93.88 L161.808,95 Z M157.408,94.104 C158.672,94.104 159.584,93.448 159.584,92.6 L159.584,91.24 L157.888,91.24 C156.432,91.24 155.776,91.688 155.776,92.488 L155.776,92.824 C155.776,93.64 156.416,94.104 157.408,94.104 Z M167.408,98.2 L167.408,86.744 L168.688,86.744 L168.688,88.088 L168.752,88.088 C169.184,87.048 170.032,86.552 171.168,86.552 C173.232,86.552 174.528,88.232 174.528,90.872 C174.528,93.512 173.232,95.192 171.168,95.192 C170.032,95.192 169.248,94.68 168.752,93.656 L168.688,93.656 L168.688,98.2 L167.408,98.2 Z M170.816,94.04 C172.256,94.04 173.152,93.048 173.152,91.576 L173.152,90.168 C173.152,88.696 172.256,87.704 170.816,87.704 C169.648,87.704 168.688,88.376 168.688,89.288 L168.688,92.36 C168.688,93.432 169.648,94.04 170.816,94.04 Z M177.968,95 L176.688,95 L176.688,86.744 L177.968,86.744 L177.968,88.264 L178.048,88.264 C178.336,87.48 179.088,86.744 180.432,86.744 L180.928,86.744 L180.928,88.024 L180.176,88.024 C178.8,88.024 177.968,88.616 177.968,89.4 L177.968,95 Z M185.6,95.192 C183.392,95.192 181.872,93.496 181.872,90.872 C181.872,88.248 183.392,86.552 185.6,86.552 C187.808,86.552 189.328,88.248 189.328,90.872 C189.328,93.496 187.808,95.192 185.6,95.192 Z M185.6,94.056 C186.976,94.056 187.952,93.208 187.952,91.464 L187.952,90.28 C187.952,88.536 186.976,87.688 185.6,87.688 C184.224,87.688 183.248,88.536 183.248,90.28 L183.248,91.464 C183.248,93.208 184.224,94.056 185.6,94.056 Z M194.624,95 L193.136,95 L190.24,86.744 L191.52,86.744 L192.96,90.84 L193.856,93.656 L193.936,93.656 L194.832,90.84 L196.304,86.744 L197.536,86.744 L194.624,95 Z M202.16,95.192 C199.92,95.192 198.448,93.496 198.448,90.872 C198.448,88.248 199.92,86.552 202.16,86.552 C204.368,86.552 205.728,88.248 205.728,90.584 L205.728,91.192 L199.792,91.192 L199.792,91.576 C199.792,93 200.704,94.072 202.24,94.072 C203.28,94.072 204.08,93.56 204.512,92.648 L205.424,93.304 C204.896,94.424 203.712,95.192 202.16,95.192 Z M202.16,87.624 C200.768,87.624 199.792,88.68 199.792,90.12 L199.792,90.232 L204.352,90.232 L204.352,90.056 C204.352,88.6 203.472,87.624 202.16,87.624 Z M209.12,95 L207.84,95 L207.84,86.744 L209.12,86.744 L209.12,88.088 L209.184,88.088 C209.584,87.16 210.288,86.552 211.52,86.552 C213.216,86.552 214.288,87.704 214.288,89.704 L214.288,95 L213.008,95 L213.008,89.928 C213.008,88.456 212.368,87.704 211.136,87.704 C210.112,87.704 209.12,88.216 209.12,89.272 L209.12,95 Z M222.048,95 L219.84,86.744 L221.088,86.744 L221.968,90.312 L222.848,93.928 L222.88,93.928 L223.888,90.312 L224.928,86.744 L226.064,86.744 L227.136,90.312 L228.16,93.928 L228.192,93.928 L229.04,90.312 L229.936,86.744 L231.136,86.744 L228.944,95 L227.36,95 L226.208,91.032 L225.488,88.52 L225.456,88.52 L224.752,91.032 L223.6,95 L222.048,95 Z M239.568,95 L238.848,95 C237.904,95 237.52,94.424 237.424,93.656 L237.344,93.656 C236.992,94.664 236.112,95.192 234.96,95.192 C233.216,95.192 232.192,94.232 232.192,92.696 C232.192,91.144 233.312,90.28 235.712,90.28 L237.344,90.28 L237.344,89.464 C237.344,88.296 236.704,87.656 235.392,87.656 C234.4,87.656 233.744,88.136 233.296,88.888 L232.528,88.168 C232.976,87.288 233.968,86.552 235.456,86.552 C237.44,86.552 238.624,87.592 238.624,89.336 L238.624,93.88 L239.568,93.88 L239.568,95 Z M235.168,94.104 C236.432,94.104 237.344,93.448 237.344,92.6 L237.344,91.24 L235.648,91.24 C234.192,91.24 233.536,91.688 233.536,92.488 L233.536,92.824 C233.536,93.64 234.176,94.104 235.168,94.104 Z M244.4,92.36 L246.4,86.744 L247.664,86.744 L243.968,96.92 C243.6,97.912 243.264,98.2 242.048,98.2 L241.392,98.2 L241.392,97.08 L242.688,97.08 L243.312,95.32 L240.224,86.744 L241.504,86.744 L243.488,92.36 L243.872,93.704 L243.952,93.704 L244.4,92.36 Z M256.192,95.192 C253.984,95.192 252.464,93.496 252.464,90.872 C252.464,88.248 253.984,86.552 256.192,86.552 C258.4,86.552 259.92,88.248 259.92,90.872 C259.92,93.496 258.4,95.192 256.192,95.192 Z M256.192,94.056 C257.568,94.056 258.544,93.208 258.544,91.464 L258.544,90.28 C258.544,88.536 257.568,87.688 256.192,87.688 C254.816,87.688 253.84,88.536 253.84,90.28 L253.84,91.464 C253.84,93.208 254.816,94.056 256.192,94.056 Z M262.384,95 L262.384,87.864 L261.04,87.864 L261.04,86.744 L262.384,86.744 L262.384,85.08 C262.384,83.944 262.976,83.16 264.192,83.16 L265.44,83.16 L265.44,84.28 L263.664,84.28 L263.664,86.744 L265.44,86.744 L265.44,87.864 L263.664,87.864 L263.664,95 L262.384,95 Z M273.968,95.192 C271.648,95.192 270.288,93.512 270.288,90.872 C270.288,88.232 271.648,86.552 273.968,86.552 C275.6,86.552 276.576,87.352 277.056,88.488 L275.984,89.032 C275.68,88.184 274.976,87.688 273.968,87.688 C272.448,87.688 271.664,88.728 271.664,90.168 L271.664,91.576 C271.664,93.016 272.448,94.056 273.968,94.056 C275.008,94.056 275.76,93.56 276.208,92.616 L277.136,93.24 C276.608,94.424 275.536,95.192 273.968,95.192 Z M281.968,95.192 C279.76,95.192 278.24,93.496 278.24,90.872 C278.24,88.248 279.76,86.552 281.968,86.552 C284.176,86.552 285.696,88.248 285.696,90.872 C285.696,93.496 284.176,95.192 281.968,95.192 Z M281.968,94.056 C283.344,94.056 284.32,93.208 284.32,91.464 L284.32,90.28 C284.32,88.536 283.344,87.688 281.968,87.688 C280.592,87.688 279.616,88.536 279.616,90.28 L279.616,91.464 C279.616,93.208 280.592,94.056 281.968,94.056 Z M289.088,95 L287.808,95 L287.808,86.744 L289.088,86.744 L289.088,88.088 L289.152,88.088 C289.52,87.24 290.096,86.552 291.376,86.552 C292.464,86.552 293.456,87.048 293.904,88.232 L293.936,88.232 C294.24,87.336 295.04,86.552 296.448,86.552 C298.128,86.552 299.136,87.704 299.136,89.704 L299.136,95 L297.856,95 L297.856,89.928 C297.856,88.472 297.296,87.704 296.048,87.704 C295.04,87.704 294.112,88.216 294.112,89.272 L294.112,95 L292.832,95 L292.832,89.928 C292.832,88.456 292.272,87.704 291.056,87.704 C290.048,87.704 289.088,88.216 289.088,89.272 L289.088,95 Z M302.416,84.808 C301.872,84.808 301.632,84.52 301.632,84.088 L301.632,83.88 C301.632,83.448 301.872,83.16 302.416,83.16 C302.96,83.16 303.2,83.448 303.2,83.88 L303.2,84.088 C303.2,84.52 302.96,84.808 302.416,84.808 Z M301.776,95 L301.776,86.744 L303.056,86.744 L303.056,95 L301.776,95 Z M307.056,95 L305.776,95 L305.776,86.744 L307.056,86.744 L307.056,88.088 L307.12,88.088 C307.52,87.16 308.224,86.552 309.456,86.552 C311.152,86.552 312.224,87.704 312.224,89.704 L312.224,95 L310.944,95 L310.944,89.928 C310.944,88.456 310.304,87.704 309.072,87.704 C308.048,87.704 307.056,88.216 307.056,89.272 L307.056,95 Z M321.824,95.912 C321.824,97.608 320.48,98.392 317.824,98.392 C315.248,98.392 314.192,97.656 314.192,96.36 C314.192,95.464 314.688,94.984 315.504,94.76 L315.504,94.584 C315.04,94.36 314.768,93.992 314.768,93.432 C314.768,92.6 315.36,92.2 316.192,91.992 L316.192,91.928 C315.216,91.464 314.64,90.552 314.64,89.4 C314.64,87.72 315.872,86.552 317.744,86.552 C318.336,86.552 318.864,86.664 319.312,86.872 L319.312,86.728 C319.312,86.088 319.584,85.624 320.272,85.624 L321.504,85.624 L321.504,86.744 L319.936,86.744 L319.936,87.272 C320.528,87.784 320.88,88.52 320.88,89.4 C320.88,91.08 319.648,92.248 317.76,92.248 C317.488,92.248 317.2,92.216 316.96,92.168 C316.416,92.312 315.872,92.584 315.872,93.096 C315.872,93.592 316.384,93.72 317.136,93.72 L318.896,93.72 C320.944,93.72 321.824,94.552 321.824,95.912 Z M320.624,96.008 C320.624,95.352 320.192,94.92 318.912,94.92 L316.16,94.92 C315.632,95.16 315.392,95.528 315.392,96.04 C315.392,96.76 315.888,97.352 317.184,97.352 L318.368,97.352 C319.792,97.352 320.624,96.904 320.624,96.008 Z M317.76,91.224 C318.848,91.224 319.536,90.712 319.536,89.624 L319.536,89.176 C319.536,88.088 318.848,87.576 317.76,87.576 C316.672,87.576 315.984,88.088 315.984,89.176 L315.984,89.624 C315.984,90.712 316.672,91.224 317.76,91.224 Z M330.512,95 L328.912,95 C328.032,95 327.552,94.44 327.552,93.64 L327.552,87.864 L326.192,87.864 L326.192,86.744 L326.96,86.744 C327.504,86.744 327.68,86.552 327.68,85.992 L327.68,84.456 L328.832,84.456 L328.832,86.744 L330.64,86.744 L330.64,87.864 L328.832,87.864 L328.832,93.88 L330.512,93.88 L330.512,95 Z M335.76,95.192 C333.552,95.192 332.032,93.496 332.032,90.872 C332.032,88.248 333.552,86.552 335.76,86.552 C337.968,86.552 339.488,88.248 339.488,90.872 C339.488,93.496 337.968,95.192 335.76,95.192 Z M335.76,94.056 C337.136,94.056 338.112,93.208 338.112,91.464 L338.112,90.28 C338.112,88.536 337.136,87.688 335.76,87.688 C334.384,87.688 333.408,88.536 333.408,90.28 L333.408,91.464 C333.408,93.208 334.384,94.056 335.76,94.056 Z M32.08,119 L31.36,119 C30.416,119 30.032,118.424 29.936,117.656 L29.856,117.656 C29.504,118.664 28.624,119.192 27.472,119.192 C25.728,119.192 24.704,118.232 24.704,116.696 C24.704,115.144 25.824,114.28 28.224,114.28 L29.856,114.28 L29.856,113.464 C29.856,112.296 29.216,111.656 27.904,111.656 C26.912,111.656 26.256,112.136 25.808,112.888 L25.04,112.168 C25.488,111.288 26.48,110.552 27.968,110.552 C29.952,110.552 31.136,111.592 31.136,113.336 L31.136,117.88 L32.08,117.88 L32.08,119 Z M27.68,118.104 C28.944,118.104 29.856,117.448 29.856,116.6 L29.856,115.24 L28.16,115.24 C26.704,115.24 26.048,115.688 26.048,116.488 L26.048,116.824 C26.048,117.64 26.688,118.104 27.68,118.104 Z M37.68,119 L37.68,107.16 L38.96,107.16 L38.96,112.088 L39.024,112.088 C39.456,111.048 40.304,110.552 41.44,110.552 C43.504,110.552 44.8,112.232 44.8,114.872 C44.8,117.512 43.504,119.192 41.44,119.192 C40.304,119.192 39.52,118.68 39.024,117.656 L38.96,117.656 L38.96,119 L37.68,119 Z M41.088,118.04 C42.528,118.04 43.424,117.048 43.424,115.576 L43.424,114.168 C43.424,112.696 42.528,111.704 41.088,111.704 C39.92,111.704 38.96,112.376 38.96,113.288 L38.96,116.36 C38.96,117.432 39.92,118.04 41.088,118.04 Z M50.064,119.192 C47.824,119.192 46.352,117.496 46.352,114.872 C46.352,112.248 47.824,110.552 50.064,110.552 C52.272,110.552 53.632,112.248 53.632,114.584 L53.632,115.192 L47.696,115.192 L47.696,115.576 C47.696,117 48.608,118.072 50.144,118.072 C51.184,118.072 51.984,117.56 52.416,116.648 L53.328,117.304 C52.8,118.424 51.616,119.192 50.064,119.192 Z M50.064,111.624 C48.672,111.624 47.696,112.68 47.696,114.12 L47.696,114.232 L52.256,114.232 L52.256,114.056 C52.256,112.6 51.376,111.624 50.064,111.624 Z M59.168,119 L57.568,119 C56.688,119 56.208,118.44 56.208,117.64 L56.208,111.864 L54.848,111.864 L54.848,110.744 L55.616,110.744 C56.16,110.744 56.336,110.552 56.336,109.992 L56.336,108.456 L57.488,108.456 L57.488,110.744 L59.296,110.744 L59.296,111.864 L57.488,111.864 L57.488,117.88 L59.168,117.88 L59.168,119 Z M64.64,119 L63.04,119 C62.16,119 61.68,118.44 61.68,117.64 L61.68,111.864 L60.32,111.864 L60.32,110.744 L61.088,110.744 C61.632,110.744 61.808,110.552 61.808,109.992 L61.808,108.456 L62.96,108.456 L62.96,110.744 L64.768,110.744 L64.768,111.864 L62.96,111.864 L62.96,117.88 L64.64,117.88 L64.64,119 Z M69.872,119.192 C67.632,119.192 66.16,117.496 66.16,114.872 C66.16,112.248 67.632,110.552 69.872,110.552 C72.08,110.552 73.44,112.248 73.44,114.584 L73.44,115.192 L67.504,115.192 L67.504,115.576 C67.504,117 68.416,118.072 69.952,118.072 C70.992,118.072 71.792,117.56 72.224,116.648 L73.136,117.304 C72.608,118.424 71.424,119.192 69.872,119.192 Z M69.872,111.624 C68.48,111.624 67.504,112.68 67.504,114.12 L67.504,114.232 L72.064,114.232 L72.064,114.056 C72.064,112.6 71.184,111.624 69.872,111.624 Z M76.832,119 L75.552,119 L75.552,110.744 L76.832,110.744 L76.832,112.264 L76.912,112.264 C77.2,111.48 77.952,110.744 79.296,110.744 L79.792,110.744 L79.792,112.024 L79.04,112.024 C77.664,112.024 76.832,112.616 76.832,113.4 L76.832,119 Z M87.68,119.192 C86.16,119.192 85.152,118.552 84.416,117.576 L85.328,116.84 C85.968,117.64 86.736,118.104 87.776,118.104 C88.864,118.104 89.504,117.608 89.504,116.76 C89.504,116.12 89.152,115.624 88.064,115.464 L87.408,115.368 C85.888,115.144 84.752,114.52 84.752,112.984 C84.752,111.352 86.016,110.552 87.696,110.552 C89.024,110.552 89.904,111.048 90.576,111.88 L89.728,112.648 C89.36,112.136 88.656,111.64 87.6,111.64 C86.544,111.64 85.984,112.136 85.984,112.92 C85.984,113.72 86.544,114.04 87.568,114.2 L88.208,114.296 C90.032,114.568 90.736,115.368 90.736,116.616 C90.736,118.216 89.568,119.192 87.68,119.192 Z M96.112,119.192 C93.904,119.192 92.384,117.496 92.384,114.872 C92.384,112.248 93.904,110.552 96.112,110.552 C98.32,110.552 99.84,112.248 99.84,114.872 C99.84,117.496 98.32,119.192 96.112,119.192 Z M96.112,118.056 C97.488,118.056 98.464,117.208 98.464,115.464 L98.464,114.28 C98.464,112.536 97.488,111.688 96.112,111.688 C94.736,111.688 93.76,112.536 93.76,114.28 L93.76,115.464 C93.76,117.208 94.736,118.056 96.112,118.056 Z M104.448,119 L103.312,119 C102.432,119 101.952,118.44 101.952,117.672 L101.952,107.16 L103.232,107.16 L103.232,117.88 L104.448,117.88 L104.448,119 Z M111.392,119 L111.392,117.656 L111.328,117.656 C111.008,118.44 110.384,119.192 109.008,119.192 C107.312,119.192 106.224,118.04 106.224,116.04 L106.224,110.744 L107.504,110.744 L107.504,115.816 C107.504,117.288 108.16,118.04 109.392,118.04 C110.4,118.04 111.392,117.544 111.392,116.456 L111.392,110.744 L112.672,110.744 L112.672,119 L111.392,119 Z M118.816,119 L117.216,119 C116.336,119 115.856,118.44 115.856,117.64 L115.856,111.864 L114.496,111.864 L114.496,110.744 L115.264,110.744 C115.808,110.744 115.984,110.552 115.984,109.992 L115.984,108.456 L117.136,108.456 L117.136,110.744 L118.944,110.744 L118.944,111.864 L117.136,111.864 L117.136,117.88 L118.816,117.88 L118.816,119 Z M121.648,108.808 C121.104,108.808 120.864,108.52 120.864,108.088 L120.864,107.88 C120.864,107.448 121.104,107.16 121.648,107.16 C122.192,107.16 122.432,107.448 122.432,107.88 L122.432,108.088 C122.432,108.52 122.192,108.808 121.648,108.808 Z M121.008,119 L121.008,110.744 L122.288,110.744 L122.288,119 L121.008,119 Z M128.128,119.192 C125.92,119.192 124.4,117.496 124.4,114.872 C124.4,112.248 125.92,110.552 128.128,110.552 C130.336,110.552 131.856,112.248 131.856,114.872 C131.856,117.496 130.336,119.192 128.128,119.192 Z M128.128,118.056 C129.504,118.056 130.48,117.208 130.48,115.464 L130.48,114.28 C130.48,112.536 129.504,111.688 128.128,111.688 C126.752,111.688 125.776,112.536 125.776,114.28 L125.776,115.464 C125.776,117.208 126.752,118.056 128.128,118.056 Z M135.248,119 L133.968,119 L133.968,110.744 L135.248,110.744 L135.248,112.088 L135.312,112.088 C135.712,111.16 136.416,110.552 137.648,110.552 C139.344,110.552 140.416,111.704 140.416,113.704 L140.416,119 L139.136,119 L139.136,113.928 C139.136,112.456 138.496,111.704 137.264,111.704 C136.24,111.704 135.248,112.216 135.248,113.272 L135.248,119 Z M147.472,108.808 C146.928,108.808 146.688,108.52 146.688,108.088 L146.688,107.88 C146.688,107.448 146.928,107.16 147.472,107.16 C148.016,107.16 148.256,107.448 148.256,107.88 L148.256,108.088 C148.256,108.52 148.016,108.808 147.472,108.808 Z M146.832,119 L146.832,110.744 L148.112,110.744 L148.112,119 L146.832,119 Z M152.112,119 L150.832,119 L150.832,110.744 L152.112,110.744 L152.112,112.088 L152.176,112.088 C152.576,111.16 153.28,110.552 154.512,110.552 C156.208,110.552 157.28,111.704 157.28,113.704 L157.28,119 L156,119 L156,113.928 C156,112.456 155.36,111.704 154.128,111.704 C153.104,111.704 152.112,112.216 152.112,113.272 L152.112,119 Z M166.192,119 L165.056,119 C164.176,119 163.696,118.44 163.696,117.672 L163.696,107.16 L164.976,107.16 L164.976,117.88 L166.192,117.88 L166.192,119 Z M171.152,119.192 C168.912,119.192 167.44,117.496 167.44,114.872 C167.44,112.248 168.912,110.552 171.152,110.552 C173.36,110.552 174.72,112.248 174.72,114.584 L174.72,115.192 L168.784,115.192 L168.784,115.576 C168.784,117 169.696,118.072 171.232,118.072 C172.272,118.072 173.072,117.56 173.504,116.648 L174.416,117.304 C173.888,118.424 172.704,119.192 171.152,119.192 Z M171.152,111.624 C169.76,111.624 168.784,112.68 168.784,114.12 L168.784,114.232 L173.344,114.232 L173.344,114.056 C173.344,112.6 172.464,111.624 171.152,111.624 Z M179.312,119.192 C177.792,119.192 176.784,118.552 176.048,117.576 L176.96,116.84 C177.6,117.64 178.368,118.104 179.408,118.104 C180.496,118.104 181.136,117.608 181.136,116.76 C181.136,116.12 180.784,115.624 179.696,115.464 L179.04,115.368 C177.52,115.144 176.384,114.52 176.384,112.984 C176.384,111.352 177.648,110.552 179.328,110.552 C180.656,110.552 181.536,111.048 182.208,111.88 L181.36,112.648 C180.992,112.136 180.288,111.64 179.232,111.64 C178.176,111.64 177.616,112.136 177.616,112.92 C177.616,113.72 178.176,114.04 179.2,114.2 L179.84,114.296 C181.664,114.568 182.368,115.368 182.368,116.616 C182.368,118.216 181.2,119.192 179.312,119.192 Z M187.008,119.192 C185.488,119.192 184.48,118.552 183.744,117.576 L184.656,116.84 C185.296,117.64 186.064,118.104 187.104,118.104 C188.192,118.104 188.832,117.608 188.832,116.76 C188.832,116.12 188.48,115.624 187.392,115.464 L186.736,115.368 C185.216,115.144 184.08,114.52 184.08,112.984 C184.08,111.352 185.344,110.552 187.024,110.552 C188.352,110.552 189.232,111.048 189.904,111.88 L189.056,112.648 C188.688,112.136 187.984,111.64 186.928,111.64 C185.872,111.64 185.312,112.136 185.312,112.92 C185.312,113.72 185.872,114.04 186.896,114.2 L187.536,114.296 C189.36,114.568 190.064,115.368 190.064,116.616 C190.064,118.216 188.896,119.192 187.008,119.192 Z M199.52,119 L197.92,119 C197.04,119 196.56,118.44 196.56,117.64 L196.56,111.864 L195.2,111.864 L195.2,110.744 L195.968,110.744 C196.512,110.744 196.688,110.552 196.688,109.992 L196.688,108.456 L197.84,108.456 L197.84,110.744 L199.648,110.744 L199.648,111.864 L197.84,111.864 L197.84,117.88 L199.52,117.88 L199.52,119 Z M202.352,108.808 C201.808,108.808 201.568,108.52 201.568,108.088 L201.568,107.88 C201.568,107.448 201.808,107.16 202.352,107.16 C202.896,107.16 203.136,107.448 203.136,107.88 L203.136,108.088 C203.136,108.52 202.896,108.808 202.352,108.808 Z M201.712,119 L201.712,110.744 L202.992,110.744 L202.992,119 L201.712,119 Z M206.992,119 L205.712,119 L205.712,110.744 L206.992,110.744 L206.992,112.088 L207.056,112.088 C207.424,111.24 208,110.552 209.28,110.552 C210.368,110.552 211.36,111.048 211.808,112.232 L211.84,112.232 C212.144,111.336 212.944,110.552 214.352,110.552 C216.032,110.552 217.04,111.704 217.04,113.704 L217.04,119 L215.76,119 L215.76,113.928 C215.76,112.472 215.2,111.704 213.952,111.704 C212.944,111.704 212.016,112.216 212.016,113.272 L212.016,119 L210.736,119 L210.736,113.928 C210.736,112.456 210.176,111.704 208.96,111.704 C207.952,111.704 206.992,112.216 206.992,113.272 L206.992,119 Z M222.784,119.192 C220.544,119.192 219.072,117.496 219.072,114.872 C219.072,112.248 220.544,110.552 222.784,110.552 C224.992,110.552 226.352,112.248 226.352,114.584 L226.352,115.192 L220.416,115.192 L220.416,115.576 C220.416,117 221.328,118.072 222.864,118.072 C223.904,118.072 224.704,117.56 225.136,116.648 L226.048,117.304 C225.52,118.424 224.336,119.192 222.784,119.192 Z M222.784,111.624 C221.392,111.624 220.416,112.68 220.416,114.12 L220.416,114.232 L224.976,114.232 L224.976,114.056 C224.976,112.6 224.096,111.624 222.784,111.624 Z M228.96,119.192 C228.288,119.192 227.984,118.808 227.984,118.264 L227.984,118.056 C227.984,117.512 228.288,117.128 228.96,117.128 C229.632,117.128 229.936,117.512 229.936,118.056 L229.936,118.264 C229.936,118.808 229.632,119.192 228.96,119.192 Z M240.352,119 L235.872,119 L235.872,117.88 L237.44,117.88 L237.44,108.952 L235.872,108.952 L235.872,107.832 L240.352,107.832 L240.352,108.952 L238.784,108.952 L238.784,117.88 L240.352,117.88 L240.352,119 Z M242.8,119 L242.8,107.832 L247.392,107.832 C249.232,107.832 250.368,108.968 250.368,110.712 C250.368,112.376 249.296,112.968 248.56,113.08 L248.56,113.176 C249.36,113.224 250.752,113.912 250.752,115.768 C250.752,117.608 249.52,119 247.872,119 L242.8,119 Z M244.144,113.816 L244.144,117.816 L247.456,117.816 C248.608,117.816 249.312,117.208 249.312,116.088 L249.312,115.544 C249.312,114.424 248.608,113.816 247.456,113.816 L244.144,113.816 Z M244.144,109.016 L244.144,112.664 L247.232,112.664 C248.288,112.664 248.928,112.104 248.928,111.112 L248.928,110.568 C248.928,109.576 248.288,109.016 247.232,109.016 L244.144,109.016 Z M253.248,119 L253.248,107.832 L255.04,107.832 L258.24,113.848 L258.32,113.848 L261.536,107.832 L263.264,107.832 L263.264,119 L261.952,119 L261.952,109.592 L261.872,109.592 L260.928,111.464 L258.256,116.328 L255.584,111.464 L254.64,109.592 L254.56,109.592 L254.56,119 L253.248,119 Z M269.888,119 L269.888,107.16 L271.168,107.16 L271.168,112.088 L271.232,112.088 C271.632,111.16 272.336,110.552 273.568,110.552 C275.264,110.552 276.336,111.704 276.336,113.704 L276.336,119 L275.056,119 L275.056,113.928 C275.056,112.456 274.416,111.704 273.184,111.704 C272.16,111.704 271.168,112.216 271.168,113.272 L271.168,119 L269.888,119 Z M285.696,119 L284.976,119 C284.032,119 283.648,118.424 283.552,117.656 L283.472,117.656 C283.12,118.664 282.24,119.192 281.088,119.192 C279.344,119.192 278.32,118.232 278.32,116.696 C278.32,115.144 279.44,114.28 281.84,114.28 L283.472,114.28 L283.472,113.464 C283.472,112.296 282.832,111.656 281.52,111.656 C280.528,111.656 279.872,112.136 279.424,112.888 L278.656,112.168 C279.104,111.288 280.096,110.552 281.584,110.552 C283.568,110.552 284.752,111.592 284.752,113.336 L284.752,117.88 L285.696,117.88 L285.696,119 Z M281.296,118.104 C282.56,118.104 283.472,117.448 283.472,116.6 L283.472,115.24 L281.776,115.24 C280.32,115.24 279.664,115.688 279.664,116.488 L279.664,116.824 C279.664,117.64 280.304,118.104 281.296,118.104 Z M290,119.192 C288.48,119.192 287.472,118.552 286.736,117.576 L287.648,116.84 C288.288,117.64 289.056,118.104 290.096,118.104 C291.184,118.104 291.824,117.608 291.824,116.76 C291.824,116.12 291.472,115.624 290.384,115.464 L289.728,115.368 C288.208,115.144 287.072,114.52 287.072,112.984 C287.072,111.352 288.336,110.552 290.016,110.552 C291.344,110.552 292.224,111.048 292.896,111.88 L292.048,112.648 C291.68,112.136 290.976,111.64 289.92,111.64 C288.864,111.64 288.304,112.136 288.304,112.92 C288.304,113.72 288.864,114.04 289.888,114.2 L290.528,114.296 C292.352,114.568 293.056,115.368 293.056,116.616 C293.056,118.216 291.888,119.192 290,119.192 Z M300.368,119 L299.088,119 L299.088,110.744 L300.368,110.744 L300.368,112.264 L300.448,112.264 C300.736,111.48 301.488,110.744 302.832,110.744 L303.328,110.744 L303.328,112.024 L302.576,112.024 C301.2,112.024 300.368,112.616 300.368,113.4 L300.368,119 Z M307.984,119.192 C305.744,119.192 304.272,117.496 304.272,114.872 C304.272,112.248 305.744,110.552 307.984,110.552 C310.192,110.552 311.552,112.248 311.552,114.584 L311.552,115.192 L305.616,115.192 L305.616,115.576 C305.616,117 306.528,118.072 308.064,118.072 C309.104,118.072 309.904,117.56 310.336,116.648 L311.248,117.304 C310.72,118.424 309.536,119.192 307.984,119.192 Z M307.984,111.624 C306.592,111.624 305.616,112.68 305.616,114.12 L305.616,114.232 L310.176,114.232 L310.176,114.056 C310.176,112.6 309.296,111.624 307.984,111.624 Z M317.744,114.824 L313.568,114.824 L313.568,113.448 L317.744,113.448 L317.744,114.824 Z M28.464,143.192 C26.224,143.192 24.752,141.496 24.752,138.872 C24.752,136.248 26.224,134.552 28.464,134.552 C30.672,134.552 32.032,136.248 32.032,138.584 L32.032,139.192 L26.096,139.192 L26.096,139.576 C26.096,141 27.008,142.072 28.544,142.072 C29.584,142.072 30.384,141.56 30.816,140.648 L31.728,141.304 C31.2,142.424 30.016,143.192 28.464,143.192 Z M28.464,135.624 C27.072,135.624 26.096,136.68 26.096,138.12 L26.096,138.232 L30.656,138.232 L30.656,138.056 C30.656,136.6 29.776,135.624 28.464,135.624 Z M35.424,143 L34.144,143 L34.144,134.744 L35.424,134.744 L35.424,136.088 L35.488,136.088 C35.888,135.16 36.592,134.552 37.824,134.552 C39.52,134.552 40.592,135.704 40.592,137.704 L40.592,143 L39.312,143 L39.312,137.928 C39.312,136.456 38.672,135.704 37.44,135.704 C36.416,135.704 35.424,136.216 35.424,137.272 L35.424,143 Z M46.416,143 L44.928,143 L42.032,134.744 L43.312,134.744 L44.752,138.84 L45.648,141.656 L45.728,141.656 L46.624,138.84 L48.096,134.744 L49.328,134.744 L46.416,143 Z M51.616,132.808 C51.072,132.808 50.832,132.52 50.832,132.088 L50.832,131.88 C50.832,131.448 51.072,131.16 51.616,131.16 C52.16,131.16 52.4,131.448 52.4,131.88 L52.4,132.088 C52.4,132.52 52.16,132.808 51.616,132.808 Z M50.976,143 L50.976,134.744 L52.256,134.744 L52.256,143 L50.976,143 Z M57.456,143.192 C55.936,143.192 54.928,142.552 54.192,141.576 L55.104,140.84 C55.744,141.64 56.512,142.104 57.552,142.104 C58.64,142.104 59.28,141.608 59.28,140.76 C59.28,140.12 58.928,139.624 57.84,139.464 L57.184,139.368 C55.664,139.144 54.528,138.52 54.528,136.984 C54.528,135.352 55.792,134.552 57.472,134.552 C58.8,134.552 59.68,135.048 60.352,135.88 L59.504,136.648 C59.136,136.136 58.432,135.64 57.376,135.64 C56.32,135.64 55.76,136.136 55.76,136.92 C55.76,137.72 56.32,138.04 57.344,138.2 L57.984,138.296 C59.808,138.568 60.512,139.368 60.512,140.616 C60.512,142.216 59.344,143.192 57.456,143.192 Z M63.408,132.808 C62.864,132.808 62.624,132.52 62.624,132.088 L62.624,131.88 C62.624,131.448 62.864,131.16 63.408,131.16 C63.952,131.16 64.192,131.448 64.192,131.88 L64.192,132.088 C64.192,132.52 63.952,132.808 63.408,132.808 Z M62.768,143 L62.768,134.744 L64.048,134.744 L64.048,143 L62.768,143 Z M69.888,143.192 C67.68,143.192 66.16,141.496 66.16,138.872 C66.16,136.248 67.68,134.552 69.888,134.552 C72.096,134.552 73.616,136.248 73.616,138.872 C73.616,141.496 72.096,143.192 69.888,143.192 Z M69.888,142.056 C71.264,142.056 72.24,141.208 72.24,139.464 L72.24,138.28 C72.24,136.536 71.264,135.688 69.888,135.688 C68.512,135.688 67.536,136.536 67.536,138.28 L67.536,139.464 C67.536,141.208 68.512,142.056 69.888,142.056 Z M77.008,143 L75.728,143 L75.728,134.744 L77.008,134.744 L77.008,136.088 L77.072,136.088 C77.472,135.16 78.176,134.552 79.408,134.552 C81.104,134.552 82.176,135.704 82.176,137.704 L82.176,143 L80.896,143 L80.896,137.928 C80.896,136.456 80.256,135.704 79.024,135.704 C78,135.704 77.008,136.216 77.008,137.272 L77.008,143 Z M87.92,143.192 C85.68,143.192 84.208,141.496 84.208,138.872 C84.208,136.248 85.68,134.552 87.92,134.552 C90.128,134.552 91.488,136.248 91.488,138.584 L91.488,139.192 L85.552,139.192 L85.552,139.576 C85.552,141 86.464,142.072 88,142.072 C89.04,142.072 89.84,141.56 90.272,140.648 L91.184,141.304 C90.656,142.424 89.472,143.192 87.92,143.192 Z M87.92,135.624 C86.528,135.624 85.552,136.68 85.552,138.12 L85.552,138.232 L90.112,138.232 L90.112,138.056 C90.112,136.6 89.232,135.624 87.92,135.624 Z M98.88,143 L98.88,141.656 L98.816,141.656 C98.32,142.68 97.536,143.192 96.4,143.192 C94.336,143.192 93.04,141.512 93.04,138.872 C93.04,136.232 94.336,134.552 96.4,134.552 C97.536,134.552 98.384,135.048 98.816,136.088 L98.88,136.088 L98.88,131.16 L100.16,131.16 L100.16,143 L98.88,143 Z M96.752,142.04 C97.92,142.04 98.88,141.432 98.88,140.36 L98.88,137.288 C98.88,136.376 97.92,135.704 96.752,135.704 C95.312,135.704 94.416,136.696 94.416,138.168 L94.416,139.576 C94.416,141.048 95.312,142.04 96.752,142.04 Z M111.936,143 L111.936,141.656 L111.872,141.656 C111.376,142.68 110.592,143.192 109.456,143.192 C107.392,143.192 106.096,141.512 106.096,138.872 C106.096,136.232 107.392,134.552 109.456,134.552 C110.592,134.552 111.44,135.048 111.872,136.088 L111.936,136.088 L111.936,131.16 L113.216,131.16 L113.216,143 L111.936,143 Z M109.808,142.04 C110.976,142.04 111.936,141.432 111.936,140.36 L111.936,137.288 C111.936,136.376 110.976,135.704 109.808,135.704 C108.368,135.704 107.472,136.696 107.472,138.168 L107.472,139.576 C107.472,141.048 108.368,142.04 109.808,142.04 Z M119.04,143.192 C116.8,143.192 115.328,141.496 115.328,138.872 C115.328,136.248 116.8,134.552 119.04,134.552 C121.248,134.552 122.608,136.248 122.608,138.584 L122.608,139.192 L116.672,139.192 L116.672,139.576 C116.672,141 117.584,142.072 119.12,142.072 C120.16,142.072 120.96,141.56 121.392,140.648 L122.304,141.304 C121.776,142.424 120.592,143.192 119.04,143.192 Z M119.04,135.624 C117.648,135.624 116.672,136.68 116.672,138.12 L116.672,138.232 L121.232,138.232 L121.232,138.056 C121.232,136.6 120.352,135.624 119.04,135.624 Z M127.2,143.192 C125.68,143.192 124.672,142.552 123.936,141.576 L124.848,140.84 C125.488,141.64 126.256,142.104 127.296,142.104 C128.384,142.104 129.024,141.608 129.024,140.76 C129.024,140.12 128.672,139.624 127.584,139.464 L126.928,139.368 C125.408,139.144 124.272,138.52 124.272,136.984 C124.272,135.352 125.536,134.552 127.216,134.552 C128.544,134.552 129.424,135.048 130.096,135.88 L129.248,136.648 C128.88,136.136 128.176,135.64 127.12,135.64 C126.064,135.64 125.504,136.136 125.504,136.92 C125.504,137.72 126.064,138.04 127.088,138.2 L127.728,138.296 C129.552,138.568 130.256,139.368 130.256,140.616 C130.256,142.216 129.088,143.192 127.2,143.192 Z M133.152,132.808 C132.608,132.808 132.368,132.52 132.368,132.088 L132.368,131.88 C132.368,131.448 132.608,131.16 133.152,131.16 C133.696,131.16 133.936,131.448 133.936,131.88 L133.936,132.088 C133.936,132.52 133.696,132.808 133.152,132.808 Z M132.512,143 L132.512,134.744 L133.792,134.744 L133.792,143 L132.512,143 Z M143.472,143.912 C143.472,145.608 142.128,146.392 139.472,146.392 C136.896,146.392 135.84,145.656 135.84,144.36 C135.84,143.464 136.336,142.984 137.152,142.76 L137.152,142.584 C136.688,142.36 136.416,141.992 136.416,141.432 C136.416,140.6 137.008,140.2 137.84,139.992 L137.84,139.928 C136.864,139.464 136.288,138.552 136.288,137.4 C136.288,135.72 137.52,134.552 139.392,134.552 C139.984,134.552 140.512,134.664 140.96,134.872 L140.96,134.728 C140.96,134.088 141.232,133.624 141.92,133.624 L143.152,133.624 L143.152,134.744 L141.584,134.744 L141.584,135.272 C142.176,135.784 142.528,136.52 142.528,137.4 C142.528,139.08 141.296,140.248 139.408,140.248 C139.136,140.248 138.848,140.216 138.608,140.168 C138.064,140.312 137.52,140.584 137.52,141.096 C137.52,141.592 138.032,141.72 138.784,141.72 L140.544,141.72 C142.592,141.72 143.472,142.552 143.472,143.912 Z M142.272,144.008 C142.272,143.352 141.84,142.92 140.56,142.92 L137.808,142.92 C137.28,143.16 137.04,143.528 137.04,144.04 C137.04,144.76 137.536,145.352 138.832,145.352 L140.016,145.352 C141.44,145.352 142.272,144.904 142.272,144.008 Z M139.408,139.224 C140.496,139.224 141.184,138.712 141.184,137.624 L141.184,137.176 C141.184,136.088 140.496,135.576 139.408,135.576 C138.32,135.576 137.632,136.088 137.632,137.176 L137.632,137.624 C137.632,138.712 138.32,139.224 139.408,139.224 Z M146.24,143 L144.96,143 L144.96,134.744 L146.24,134.744 L146.24,136.088 L146.304,136.088 C146.704,135.16 147.408,134.552 148.64,134.552 C150.336,134.552 151.408,135.704 151.408,137.704 L151.408,143 L150.128,143 L150.128,137.928 C150.128,136.456 149.488,135.704 148.256,135.704 C147.232,135.704 146.24,136.216 146.24,137.272 L146.24,143 Z M161.248,143 L159.648,143 C158.768,143 158.288,142.44 158.288,141.64 L158.288,135.864 L156.928,135.864 L156.928,134.744 L157.696,134.744 C158.24,134.744 158.416,134.552 158.416,133.992 L158.416,132.456 L159.568,132.456 L159.568,134.744 L161.376,134.744 L161.376,135.864 L159.568,135.864 L159.568,141.88 L161.248,141.88 L161.248,143 Z M163.44,143 L163.44,131.16 L164.72,131.16 L164.72,136.088 L164.784,136.088 C165.184,135.16 165.888,134.552 167.12,134.552 C168.816,134.552 169.888,135.704 169.888,137.704 L169.888,143 L168.608,143 L168.608,137.928 C168.608,136.456 167.968,135.704 166.736,135.704 C165.712,135.704 164.72,136.216 164.72,137.272 L164.72,143 L163.44,143 Z M173.168,132.808 C172.624,132.808 172.384,132.52 172.384,132.088 L172.384,131.88 C172.384,131.448 172.624,131.16 173.168,131.16 C173.712,131.16 173.952,131.448 173.952,131.88 L173.952,132.088 C173.952,132.52 173.712,132.808 173.168,132.808 Z M172.528,143 L172.528,134.744 L173.808,134.744 L173.808,143 L172.528,143 Z M177.808,143 L176.528,143 L176.528,134.744 L177.808,134.744 L177.808,136.088 L177.872,136.088 C178.272,135.16 178.976,134.552 180.208,134.552 C181.904,134.552 182.976,135.704 182.976,137.704 L182.976,143 L181.696,143 L181.696,137.928 C181.696,136.456 181.056,135.704 179.824,135.704 C178.8,135.704 177.808,136.216 177.808,137.272 L177.808,143 Z M185.616,143 L185.616,131.16 L186.896,131.16 L186.896,138.664 L186.96,138.664 L188.224,137.256 L190.56,134.744 L192.112,134.744 L189.056,138.008 L192.416,143 L190.864,143 L188.128,138.792 L186.896,140.056 L186.896,143 L185.616,143 Z M194.688,132.808 C194.144,132.808 193.904,132.52 193.904,132.088 L193.904,131.88 C193.904,131.448 194.144,131.16 194.688,131.16 C195.232,131.16 195.472,131.448 195.472,131.88 L195.472,132.088 C195.472,132.52 195.232,132.808 194.688,132.808 Z M194.048,143 L194.048,134.744 L195.328,134.744 L195.328,143 L194.048,143 Z M199.328,143 L198.048,143 L198.048,134.744 L199.328,134.744 L199.328,136.088 L199.392,136.088 C199.792,135.16 200.496,134.552 201.728,134.552 C203.424,134.552 204.496,135.704 204.496,137.704 L204.496,143 L203.216,143 L203.216,137.928 C203.216,136.456 202.576,135.704 201.344,135.704 C200.32,135.704 199.328,136.216 199.328,137.272 L199.328,143 Z M214.096,143.912 C214.096,145.608 212.752,146.392 210.096,146.392 C207.52,146.392 206.464,145.656 206.464,144.36 C206.464,143.464 206.96,142.984 207.776,142.76 L207.776,142.584 C207.312,142.36 207.04,141.992 207.04,141.432 C207.04,140.6 207.632,140.2 208.464,139.992 L208.464,139.928 C207.488,139.464 206.912,138.552 206.912,137.4 C206.912,135.72 208.144,134.552 210.016,134.552 C210.608,134.552 211.136,134.664 211.584,134.872 L211.584,134.728 C211.584,134.088 211.856,133.624 212.544,133.624 L213.776,133.624 L213.776,134.744 L212.208,134.744 L212.208,135.272 C212.8,135.784 213.152,136.52 213.152,137.4 C213.152,139.08 211.92,140.248 210.032,140.248 C209.76,140.248 209.472,140.216 209.232,140.168 C208.688,140.312 208.144,140.584 208.144,141.096 C208.144,141.592 208.656,141.72 209.408,141.72 L211.168,141.72 C213.216,141.72 214.096,142.552 214.096,143.912 Z M212.896,144.008 C212.896,143.352 212.464,142.92 211.184,142.92 L208.432,142.92 C207.904,143.16 207.664,143.528 207.664,144.04 C207.664,144.76 208.16,145.352 209.456,145.352 L210.64,145.352 C212.064,145.352 212.896,144.904 212.896,144.008 Z M210.032,139.224 C211.12,139.224 211.808,138.712 211.808,137.624 L211.808,137.176 C211.808,136.088 211.12,135.576 210.032,135.576 C208.944,135.576 208.256,136.088 208.256,137.176 L208.256,137.624 C208.256,138.712 208.944,139.224 210.032,139.224 Z M216.608,141.128 C217.28,141.128 217.584,141.512 217.584,142.072 L217.584,142.296 C217.584,143.16 217.04,144.344 216.128,145.128 L215.056,145.128 C215.696,144.456 216.08,143.896 216.256,143.144 C215.824,143.048 215.632,142.728 215.632,142.296 L215.632,142.072 C215.632,141.512 215.936,141.128 216.608,141.128 Z M226.992,143.192 C224.672,143.192 223.312,141.512 223.312,138.872 C223.312,136.232 224.672,134.552 226.992,134.552 C228.624,134.552 229.6,135.352 230.08,136.488 L229.008,137.032 C228.704,136.184 228,135.688 226.992,135.688 C225.472,135.688 224.688,136.728 224.688,138.168 L224.688,139.576 C224.688,141.016 225.472,142.056 226.992,142.056 C228.032,142.056 228.784,141.56 229.232,140.616 L230.16,141.24 C229.632,142.424 228.56,143.192 226.992,143.192 Z M233.248,143 L231.968,143 L231.968,134.744 L233.248,134.744 L233.248,136.264 L233.328,136.264 C233.616,135.48 234.368,134.744 235.712,134.744 L236.208,134.744 L236.208,136.024 L235.456,136.024 C234.08,136.024 233.248,136.616 233.248,137.4 L233.248,143 Z M240.864,143.192 C238.624,143.192 237.152,141.496 237.152,138.872 C237.152,136.248 238.624,134.552 240.864,134.552 C243.072,134.552 244.432,136.248 244.432,138.584 L244.432,139.192 L238.496,139.192 L238.496,139.576 C238.496,141 239.408,142.072 240.944,142.072 C241.984,142.072 242.784,141.56 243.216,140.648 L244.128,141.304 C243.6,142.424 242.416,143.192 240.864,143.192 Z M240.864,135.624 C239.472,135.624 238.496,136.68 238.496,138.12 L238.496,138.232 L243.056,138.232 L243.056,138.056 C243.056,136.6 242.176,135.624 240.864,135.624 Z M253.264,143 L252.544,143 C251.6,143 251.216,142.424 251.12,141.656 L251.04,141.656 C250.688,142.664 249.808,143.192 248.656,143.192 C246.912,143.192 245.888,142.232 245.888,140.696 C245.888,139.144 247.008,138.28 249.408,138.28 L251.04,138.28 L251.04,137.464 C251.04,136.296 250.4,135.656 249.088,135.656 C248.096,135.656 247.44,136.136 246.992,136.888 L246.224,136.168 C246.672,135.288 247.664,134.552 249.152,134.552 C251.136,134.552 252.32,135.592 252.32,137.336 L252.32,141.88 L253.264,141.88 L253.264,143 Z M248.864,142.104 C250.128,142.104 251.04,141.448 251.04,140.6 L251.04,139.24 L249.344,139.24 C247.888,139.24 247.232,139.688 247.232,140.488 L247.232,140.824 C247.232,141.64 247.872,142.104 248.864,142.104 Z M258.512,143 L256.912,143 C256.032,143 255.552,142.44 255.552,141.64 L255.552,135.864 L254.192,135.864 L254.192,134.744 L254.96,134.744 C255.504,134.744 255.68,134.552 255.68,133.992 L255.68,132.456 L256.832,132.456 L256.832,134.744 L258.64,134.744 L258.64,135.864 L256.832,135.864 L256.832,141.88 L258.512,141.88 L258.512,143 Z M263.744,143.192 C261.504,143.192 260.032,141.496 260.032,138.872 C260.032,136.248 261.504,134.552 263.744,134.552 C265.952,134.552 267.312,136.248 267.312,138.584 L267.312,139.192 L261.376,139.192 L261.376,139.576 C261.376,141 262.288,142.072 263.824,142.072 C264.864,142.072 265.664,141.56 266.096,140.648 L267.008,141.304 C266.48,142.424 265.296,143.192 263.744,143.192 Z M263.744,135.624 C262.352,135.624 261.376,136.68 261.376,138.12 L261.376,138.232 L265.936,138.232 L265.936,138.056 C265.936,136.6 265.056,135.624 263.744,135.624 Z M274.704,143 L274.704,141.656 L274.64,141.656 C274.144,142.68 273.36,143.192 272.224,143.192 C270.16,143.192 268.864,141.512 268.864,138.872 C268.864,136.232 270.16,134.552 272.224,134.552 C273.36,134.552 274.208,135.048 274.64,136.088 L274.704,136.088 L274.704,131.16 L275.984,131.16 L275.984,143 L274.704,143 Z M272.576,142.04 C273.744,142.04 274.704,141.432 274.704,140.36 L274.704,137.288 C274.704,136.376 273.744,135.704 272.576,135.704 C271.136,135.704 270.24,136.696 270.24,138.168 L270.24,139.576 C270.24,141.048 271.136,142.04 272.576,142.04 Z M289.2,143 L288.48,143 C287.536,143 287.152,142.424 287.056,141.656 L286.976,141.656 C286.624,142.664 285.744,143.192 284.592,143.192 C282.848,143.192 281.824,142.232 281.824,140.696 C281.824,139.144 282.944,138.28 285.344,138.28 L286.976,138.28 L286.976,137.464 C286.976,136.296 286.336,135.656 285.024,135.656 C284.032,135.656 283.376,136.136 282.928,136.888 L282.16,136.168 C282.608,135.288 283.6,134.552 285.088,134.552 C287.072,134.552 288.256,135.592 288.256,137.336 L288.256,141.88 L289.2,141.88 L289.2,143 Z M284.8,142.104 C286.064,142.104 286.976,141.448 286.976,140.6 L286.976,139.24 L285.28,139.24 C283.824,139.24 283.168,139.688 283.168,140.488 L283.168,140.824 C283.168,141.64 283.808,142.104 284.8,142.104 Z M295.248,143 L295.248,135.864 L293.904,135.864 L293.904,134.744 L295.248,134.744 L295.248,133.08 C295.248,131.944 295.84,131.16 297.056,131.16 L298.304,131.16 L298.304,132.28 L296.528,132.28 L296.528,134.744 L298.304,134.744 L298.304,135.864 L296.528,135.864 L296.528,143 L295.248,143 Z M301.264,143 L299.984,143 L299.984,134.744 L301.264,134.744 L301.264,136.264 L301.344,136.264 C301.632,135.48 302.384,134.744 303.728,134.744 L304.224,134.744 L304.224,136.024 L303.472,136.024 C302.096,136.024 301.264,136.616 301.264,137.4 L301.264,143 Z M312.512,143 L311.792,143 C310.848,143 310.464,142.424 310.368,141.656 L310.288,141.656 C309.936,142.664 309.056,143.192 307.904,143.192 C306.16,143.192 305.136,142.232 305.136,140.696 C305.136,139.144 306.256,138.28 308.656,138.28 L310.288,138.28 L310.288,137.464 C310.288,136.296 309.648,135.656 308.336,135.656 C307.344,135.656 306.688,136.136 306.24,136.888 L305.472,136.168 C305.92,135.288 306.912,134.552 308.4,134.552 C310.384,134.552 311.568,135.592 311.568,137.336 L311.568,141.88 L312.512,141.88 L312.512,143 Z M308.112,142.104 C309.376,142.104 310.288,141.448 310.288,140.6 L310.288,139.24 L308.592,139.24 C307.136,139.24 306.48,139.688 306.48,140.488 L306.48,140.824 C306.48,141.64 307.12,142.104 308.112,142.104 Z M315.616,143 L314.336,143 L314.336,134.744 L315.616,134.744 L315.616,136.088 L315.68,136.088 C316.048,135.24 316.624,134.552 317.904,134.552 C318.992,134.552 319.984,135.048 320.432,136.232 L320.464,136.232 C320.768,135.336 321.568,134.552 322.976,134.552 C324.656,134.552 325.664,135.704 325.664,137.704 L325.664,143 L324.384,143 L324.384,137.928 C324.384,136.472 323.824,135.704 322.576,135.704 C321.568,135.704 320.64,136.216 320.64,137.272 L320.64,143 L319.36,143 L319.36,137.928 C319.36,136.456 318.8,135.704 317.584,135.704 C316.576,135.704 315.616,136.216 315.616,137.272 L315.616,143 Z M331.408,143.192 C329.168,143.192 327.696,141.496 327.696,138.872 C327.696,136.248 329.168,134.552 331.408,134.552 C333.616,134.552 334.976,136.248 334.976,138.584 L334.976,139.192 L329.04,139.192 L329.04,139.576 C329.04,141 329.952,142.072 331.488,142.072 C332.528,142.072 333.328,141.56 333.76,140.648 L334.672,141.304 C334.144,142.424 332.96,143.192 331.408,143.192 Z M331.408,135.624 C330.016,135.624 329.04,136.68 329.04,138.12 L329.04,138.232 L333.6,138.232 L333.6,138.056 C333.6,136.6 332.72,135.624 331.408,135.624 Z M338.352,143 L336.144,134.744 L337.392,134.744 L338.272,138.312 L339.152,141.928 L339.184,141.928 L340.192,138.312 L341.232,134.744 L342.368,134.744 L343.44,138.312 L344.464,141.928 L344.496,141.928 L345.344,138.312 L346.24,134.744 L347.44,134.744 L345.248,143 L343.664,143 L342.512,139.032 L341.792,136.52 L341.76,136.52 L341.056,139.032 L339.904,143 L338.352,143 Z M352.336,143.192 C350.128,143.192 348.608,141.496 348.608,138.872 C348.608,136.248 350.128,134.552 352.336,134.552 C354.544,134.552 356.064,136.248 356.064,138.872 C356.064,141.496 354.544,143.192 352.336,143.192 Z M352.336,142.056 C353.712,142.056 354.688,141.208 354.688,139.464 L354.688,138.28 C354.688,136.536 353.712,135.688 352.336,135.688 C350.96,135.688 349.984,136.536 349.984,138.28 L349.984,139.464 C349.984,141.208 350.96,142.056 352.336,142.056 Z M359.456,143 L358.176,143 L358.176,134.744 L359.456,134.744 L359.456,136.264 L359.536,136.264 C359.824,135.48 360.576,134.744 361.92,134.744 L362.416,134.744 L362.416,136.024 L361.664,136.024 C360.288,136.024 359.456,136.616 359.456,137.4 L359.456,143 Z M364.048,143 L364.048,131.16 L365.328,131.16 L365.328,138.664 L365.392,138.664 L366.656,137.256 L368.992,134.744 L370.544,134.744 L367.488,138.008 L370.848,143 L369.296,143 L366.56,138.792 L365.328,140.056 L365.328,143 L364.048,143 Z M25.808,167 L25.808,159.864 L24.464,159.864 L24.464,158.744 L25.808,158.744 L25.808,157.08 C25.808,155.944 26.4,155.16 27.616,155.16 L28.864,155.16 L28.864,156.28 L27.088,156.28 L27.088,158.744 L28.864,158.744 L28.864,159.864 L27.088,159.864 L27.088,167 L25.808,167 Z M33.6,167.192 C31.392,167.192 29.872,165.496 29.872,162.872 C29.872,160.248 31.392,158.552 33.6,158.552 C35.808,158.552 37.328,160.248 37.328,162.872 C37.328,165.496 35.808,167.192 33.6,167.192 Z M33.6,166.056 C34.976,166.056 35.952,165.208 35.952,163.464 L35.952,162.28 C35.952,160.536 34.976,159.688 33.6,159.688 C32.224,159.688 31.248,160.536 31.248,162.28 L31.248,163.464 C31.248,165.208 32.224,166.056 33.6,166.056 Z M40.72,167 L39.44,167 L39.44,158.744 L40.72,158.744 L40.72,160.264 L40.8,160.264 C41.088,159.48 41.84,158.744 43.184,158.744 L43.68,158.744 L43.68,160.024 L42.928,160.024 C41.552,160.024 40.72,160.616 40.72,161.4 L40.72,167 Z M51.568,167.192 C50.048,167.192 49.04,166.552 48.304,165.576 L49.216,164.84 C49.856,165.64 50.624,166.104 51.664,166.104 C52.752,166.104 53.392,165.608 53.392,164.76 C53.392,164.12 53.04,163.624 51.952,163.464 L51.296,163.368 C49.776,163.144 48.64,162.52 48.64,160.984 C48.64,159.352 49.904,158.552 51.584,158.552 C52.912,158.552 53.792,159.048 54.464,159.88 L53.616,160.648 C53.248,160.136 52.544,159.64 51.488,159.64 C50.432,159.64 49.872,160.136 49.872,160.92 C49.872,161.72 50.432,162.04 51.456,162.2 L52.096,162.296 C53.92,162.568 54.624,163.368 54.624,164.616 C54.624,166.216 53.456,167.192 51.568,167.192 Z M56.88,170.2 L56.88,158.744 L58.16,158.744 L58.16,160.088 L58.224,160.088 C58.656,159.048 59.504,158.552 60.64,158.552 C62.704,158.552 64,160.232 64,162.872 C64,165.512 62.704,167.192 60.64,167.192 C59.504,167.192 58.72,166.68 58.224,165.656 L58.16,165.656 L58.16,170.2 L56.88,170.2 Z M60.288,166.04 C61.728,166.04 62.624,165.048 62.624,163.576 L62.624,162.168 C62.624,160.696 61.728,159.704 60.288,159.704 C59.12,159.704 58.16,160.376 58.16,161.288 L58.16,164.36 C58.16,165.432 59.12,166.04 60.288,166.04 Z M69.264,167.192 C67.024,167.192 65.552,165.496 65.552,162.872 C65.552,160.248 67.024,158.552 69.264,158.552 C71.472,158.552 72.832,160.248 72.832,162.584 L72.832,163.192 L66.896,163.192 L66.896,163.576 C66.896,165 67.808,166.072 69.344,166.072 C70.384,166.072 71.184,165.56 71.616,164.648 L72.528,165.304 C72,166.424 70.816,167.192 69.264,167.192 Z M69.264,159.624 C67.872,159.624 66.896,160.68 66.896,162.12 L66.896,162.232 L71.456,162.232 L71.456,162.056 C71.456,160.6 70.576,159.624 69.264,159.624 Z M78.048,167.192 C75.808,167.192 74.336,165.496 74.336,162.872 C74.336,160.248 75.808,158.552 78.048,158.552 C80.256,158.552 81.616,160.248 81.616,162.584 L81.616,163.192 L75.68,163.192 L75.68,163.576 C75.68,165 76.592,166.072 78.128,166.072 C79.168,166.072 79.968,165.56 80.4,164.648 L81.312,165.304 C80.784,166.424 79.6,167.192 78.048,167.192 Z M78.048,159.624 C76.656,159.624 75.68,160.68 75.68,162.12 L75.68,162.232 L80.24,162.232 L80.24,162.056 C80.24,160.6 79.36,159.624 78.048,159.624 Z M89.008,167 L89.008,165.656 L88.944,165.656 C88.448,166.68 87.664,167.192 86.528,167.192 C84.464,167.192 83.168,165.512 83.168,162.872 C83.168,160.232 84.464,158.552 86.528,158.552 C87.664,158.552 88.512,159.048 88.944,160.088 L89.008,160.088 L89.008,155.16 L90.288,155.16 L90.288,167 L89.008,167 Z M86.88,166.04 C88.048,166.04 89.008,165.432 89.008,164.36 L89.008,161.288 C89.008,160.376 88.048,159.704 86.88,159.704 C85.44,159.704 84.544,160.696 84.544,162.168 L84.544,163.576 C84.544,165.048 85.44,166.04 86.88,166.04 Z M103.504,167 L102.784,167 C101.84,167 101.456,166.424 101.36,165.656 L101.28,165.656 C100.928,166.664 100.048,167.192 98.896,167.192 C97.152,167.192 96.128,166.232 96.128,164.696 C96.128,163.144 97.248,162.28 99.648,162.28 L101.28,162.28 L101.28,161.464 C101.28,160.296 100.64,159.656 99.328,159.656 C98.336,159.656 97.68,160.136 97.232,160.888 L96.464,160.168 C96.912,159.288 97.904,158.552 99.392,158.552 C101.376,158.552 102.56,159.592 102.56,161.336 L102.56,165.88 L103.504,165.88 L103.504,167 Z M99.104,166.104 C100.368,166.104 101.28,165.448 101.28,164.6 L101.28,163.24 L99.584,163.24 C98.128,163.24 97.472,163.688 97.472,164.488 L97.472,164.824 C97.472,165.64 98.112,166.104 99.104,166.104 Z M106.608,167 L105.328,167 L105.328,158.744 L106.608,158.744 L106.608,160.088 L106.672,160.088 C107.072,159.16 107.776,158.552 109.008,158.552 C110.704,158.552 111.776,159.704 111.776,161.704 L111.776,167 L110.496,167 L110.496,161.928 C110.496,160.456 109.856,159.704 108.624,159.704 C107.6,159.704 106.608,160.216 106.608,161.272 L106.608,167 Z M119.696,167 L119.696,165.656 L119.632,165.656 C119.136,166.68 118.352,167.192 117.216,167.192 C115.152,167.192 113.856,165.512 113.856,162.872 C113.856,160.232 115.152,158.552 117.216,158.552 C118.352,158.552 119.2,159.048 119.632,160.088 L119.696,160.088 L119.696,155.16 L120.976,155.16 L120.976,167 L119.696,167 Z M117.568,166.04 C118.736,166.04 119.696,165.432 119.696,164.36 L119.696,161.288 C119.696,160.376 118.736,159.704 117.568,159.704 C116.128,159.704 115.232,160.696 115.232,162.168 L115.232,163.576 C115.232,165.048 116.128,166.04 117.568,166.04 Z M129.952,167.192 C128.432,167.192 127.424,166.552 126.688,165.576 L127.6,164.84 C128.24,165.64 129.008,166.104 130.048,166.104 C131.136,166.104 131.776,165.608 131.776,164.76 C131.776,164.12 131.424,163.624 130.336,163.464 L129.68,163.368 C128.16,163.144 127.024,162.52 127.024,160.984 C127.024,159.352 128.288,158.552 129.968,158.552 C131.296,158.552 132.176,159.048 132.848,159.88 L132,160.648 C131.632,160.136 130.928,159.64 129.872,159.64 C128.816,159.64 128.256,160.136 128.256,160.92 C128.256,161.72 128.816,162.04 129.84,162.2 L130.48,162.296 C132.304,162.568 133.008,163.368 133.008,164.616 C133.008,166.216 131.84,167.192 129.952,167.192 Z M138.336,167.192 C136.016,167.192 134.656,165.512 134.656,162.872 C134.656,160.232 136.016,158.552 138.336,158.552 C139.968,158.552 140.944,159.352 141.424,160.488 L140.352,161.032 C140.048,160.184 139.344,159.688 138.336,159.688 C136.816,159.688 136.032,160.728 136.032,162.168 L136.032,163.576 C136.032,165.016 136.816,166.056 138.336,166.056 C139.376,166.056 140.128,165.56 140.576,164.616 L141.504,165.24 C140.976,166.424 139.904,167.192 138.336,167.192 Z M150.032,167 L149.312,167 C148.368,167 147.984,166.424 147.888,165.656 L147.808,165.656 C147.456,166.664 146.576,167.192 145.424,167.192 C143.68,167.192 142.656,166.232 142.656,164.696 C142.656,163.144 143.776,162.28 146.176,162.28 L147.808,162.28 L147.808,161.464 C147.808,160.296 147.168,159.656 145.856,159.656 C144.864,159.656 144.208,160.136 143.76,160.888 L142.992,160.168 C143.44,159.288 144.432,158.552 145.92,158.552 C147.904,158.552 149.088,159.592 149.088,161.336 L149.088,165.88 L150.032,165.88 L150.032,167 Z M145.632,166.104 C146.896,166.104 147.808,165.448 147.808,164.6 L147.808,163.24 L146.112,163.24 C144.656,163.24 144,163.688 144,164.488 L144,164.824 C144,165.64 144.64,166.104 145.632,166.104 Z M154.352,167 L153.216,167 C152.336,167 151.856,166.44 151.856,165.672 L151.856,155.16 L153.136,155.16 L153.136,165.88 L154.352,165.88 L154.352,167 Z M159.312,167.192 C157.072,167.192 155.6,165.496 155.6,162.872 C155.6,160.248 157.072,158.552 159.312,158.552 C161.52,158.552 162.88,160.248 162.88,162.584 L162.88,163.192 L156.944,163.192 L156.944,163.576 C156.944,165 157.856,166.072 159.392,166.072 C160.432,166.072 161.232,165.56 161.664,164.648 L162.576,165.304 C162.048,166.424 160.864,167.192 159.312,167.192 Z M159.312,159.624 C157.92,159.624 156.944,160.68 156.944,162.12 L156.944,162.232 L161.504,162.232 L161.504,162.056 C161.504,160.6 160.624,159.624 159.312,159.624 Z M171.888,167.192 C169.68,167.192 168.16,165.496 168.16,162.872 C168.16,160.248 169.68,158.552 171.888,158.552 C174.096,158.552 175.616,160.248 175.616,162.872 C175.616,165.496 174.096,167.192 171.888,167.192 Z M171.888,166.056 C173.264,166.056 174.24,165.208 174.24,163.464 L174.24,162.28 C174.24,160.536 173.264,159.688 171.888,159.688 C170.512,159.688 169.536,160.536 169.536,162.28 L169.536,163.464 C169.536,165.208 170.512,166.056 171.888,166.056 Z M178.08,167 L178.08,159.864 L176.736,159.864 L176.736,158.744 L178.08,158.744 L178.08,157.08 C178.08,155.944 178.672,155.16 179.888,155.16 L181.136,155.16 L181.136,156.28 L179.36,156.28 L179.36,158.744 L181.136,158.744 L181.136,159.864 L179.36,159.864 L179.36,167 L178.08,167 Z M193.312,167 L192.592,167 C191.648,167 191.264,166.424 191.168,165.656 L191.088,165.656 C190.736,166.664 189.856,167.192 188.704,167.192 C186.96,167.192 185.936,166.232 185.936,164.696 C185.936,163.144 187.056,162.28 189.456,162.28 L191.088,162.28 L191.088,161.464 C191.088,160.296 190.448,159.656 189.136,159.656 C188.144,159.656 187.488,160.136 187.04,160.888 L186.272,160.168 C186.72,159.288 187.712,158.552 189.2,158.552 C191.184,158.552 192.368,159.592 192.368,161.336 L192.368,165.88 L193.312,165.88 L193.312,167 Z M188.912,166.104 C190.176,166.104 191.088,165.448 191.088,164.6 L191.088,163.24 L189.392,163.24 C187.936,163.24 187.28,163.688 187.28,164.488 L187.28,164.824 C187.28,165.64 187.92,166.104 188.912,166.104 Z M201.408,167 L200.272,167 C199.392,167 198.912,166.44 198.912,165.672 L198.912,155.16 L200.192,155.16 L200.192,165.88 L201.408,165.88 L201.408,167 Z M209.984,167 L209.264,167 C208.32,167 207.936,166.424 207.84,165.656 L207.76,165.656 C207.408,166.664 206.528,167.192 205.376,167.192 C203.632,167.192 202.608,166.232 202.608,164.696 C202.608,163.144 203.728,162.28 206.128,162.28 L207.76,162.28 L207.76,161.464 C207.76,160.296 207.12,159.656 205.808,159.656 C204.816,159.656 204.16,160.136 203.712,160.888 L202.944,160.168 C203.392,159.288 204.384,158.552 205.872,158.552 C207.856,158.552 209.04,159.592 209.04,161.336 L209.04,165.88 L209.984,165.88 L209.984,167 Z M205.584,166.104 C206.848,166.104 207.76,165.448 207.76,164.6 L207.76,163.24 L206.064,163.24 C204.608,163.24 203.952,163.688 203.952,164.488 L203.952,164.824 C203.952,165.64 204.592,166.104 205.584,166.104 Z M213.088,167 L211.808,167 L211.808,158.744 L213.088,158.744 L213.088,160.264 L213.168,160.264 C213.456,159.48 214.208,158.744 215.552,158.744 L216.048,158.744 L216.048,160.024 L215.296,160.024 C213.92,160.024 213.088,160.616 213.088,161.4 L213.088,167 Z M224.272,167.912 C224.272,169.608 222.928,170.392 220.272,170.392 C217.696,170.392 216.64,169.656 216.64,168.36 C216.64,167.464 217.136,166.984 217.952,166.76 L217.952,166.584 C217.488,166.36 217.216,165.992 217.216,165.432 C217.216,164.6 217.808,164.2 218.64,163.992 L218.64,163.928 C217.664,163.464 217.088,162.552 217.088,161.4 C217.088,159.72 218.32,158.552 220.192,158.552 C220.784,158.552 221.312,158.664 221.76,158.872 L221.76,158.728 C221.76,158.088 222.032,157.624 222.72,157.624 L223.952,157.624 L223.952,158.744 L222.384,158.744 L222.384,159.272 C222.976,159.784 223.328,160.52 223.328,161.4 C223.328,163.08 222.096,164.248 220.208,164.248 C219.936,164.248 219.648,164.216 219.408,164.168 C218.864,164.312 218.32,164.584 218.32,165.096 C218.32,165.592 218.832,165.72 219.584,165.72 L221.344,165.72 C223.392,165.72 224.272,166.552 224.272,167.912 Z M223.072,168.008 C223.072,167.352 222.64,166.92 221.36,166.92 L218.608,166.92 C218.08,167.16 217.84,167.528 217.84,168.04 C217.84,168.76 218.336,169.352 219.632,169.352 L220.816,169.352 C222.24,169.352 223.072,168.904 223.072,168.008 Z M220.208,163.224 C221.296,163.224 221.984,162.712 221.984,161.624 L221.984,161.176 C221.984,160.088 221.296,159.576 220.208,159.576 C219.12,159.576 218.432,160.088 218.432,161.176 L218.432,161.624 C218.432,162.712 219.12,163.224 220.208,163.224 Z M228.768,167.192 C226.528,167.192 225.056,165.496 225.056,162.872 C225.056,160.248 226.528,158.552 228.768,158.552 C230.976,158.552 232.336,160.248 232.336,162.584 L232.336,163.192 L226.4,163.192 L226.4,163.576 C226.4,165 227.312,166.072 228.848,166.072 C229.888,166.072 230.688,165.56 231.12,164.648 L232.032,165.304 C231.504,166.424 230.32,167.192 228.768,167.192 Z M228.768,159.624 C227.376,159.624 226.4,160.68 226.4,162.12 L226.4,162.232 L230.96,162.232 L230.96,162.056 C230.96,160.6 230.08,159.624 228.768,159.624 Z M240.704,167.192 C239.184,167.192 238.176,166.552 237.44,165.576 L238.352,164.84 C238.992,165.64 239.76,166.104 240.8,166.104 C241.888,166.104 242.528,165.608 242.528,164.76 C242.528,164.12 242.176,163.624 241.088,163.464 L240.432,163.368 C238.912,163.144 237.776,162.52 237.776,160.984 C237.776,159.352 239.04,158.552 240.72,158.552 C242.048,158.552 242.928,159.048 243.6,159.88 L242.752,160.648 C242.384,160.136 241.68,159.64 240.624,159.64 C239.568,159.64 239.008,160.136 239.008,160.92 C239.008,161.72 239.568,162.04 240.592,162.2 L241.232,162.296 C243.056,162.568 243.76,163.368 243.76,164.616 C243.76,166.216 242.592,167.192 240.704,167.192 Z M249.088,167.192 C246.768,167.192 245.408,165.512 245.408,162.872 C245.408,160.232 246.768,158.552 249.088,158.552 C250.72,158.552 251.696,159.352 252.176,160.488 L251.104,161.032 C250.8,160.184 250.096,159.688 249.088,159.688 C247.568,159.688 246.784,160.728 246.784,162.168 L246.784,163.576 C246.784,165.016 247.568,166.056 249.088,166.056 C250.128,166.056 250.88,165.56 251.328,164.616 L252.256,165.24 C251.728,166.424 250.656,167.192 249.088,167.192 Z M260.784,167 L260.064,167 C259.12,167 258.736,166.424 258.64,165.656 L258.56,165.656 C258.208,166.664 257.328,167.192 256.176,167.192 C254.432,167.192 253.408,166.232 253.408,164.696 C253.408,163.144 254.528,162.28 256.928,162.28 L258.56,162.28 L258.56,161.464 C258.56,160.296 257.92,159.656 256.608,159.656 C255.616,159.656 254.96,160.136 254.512,160.888 L253.744,160.168 C254.192,159.288 255.184,158.552 256.672,158.552 C258.656,158.552 259.84,159.592 259.84,161.336 L259.84,165.88 L260.784,165.88 L260.784,167 Z M256.384,166.104 C257.648,166.104 258.56,165.448 258.56,164.6 L258.56,163.24 L256.864,163.24 C255.408,163.24 254.752,163.688 254.752,164.488 L254.752,164.824 C254.752,165.64 255.392,166.104 256.384,166.104 Z M265.104,167 L263.968,167 C263.088,167 262.608,166.44 262.608,165.672 L262.608,155.16 L263.888,155.16 L263.888,165.88 L265.104,165.88 L265.104,167 Z M270.064,167.192 C267.824,167.192 266.352,165.496 266.352,162.872 C266.352,160.248 267.824,158.552 270.064,158.552 C272.272,158.552 273.632,160.248 273.632,162.584 L273.632,163.192 L267.696,163.192 L267.696,163.576 C267.696,165 268.608,166.072 270.144,166.072 C271.184,166.072 271.984,165.56 272.416,164.648 L273.328,165.304 C272.8,166.424 271.616,167.192 270.064,167.192 Z M270.064,159.624 C268.672,159.624 267.696,160.68 267.696,162.12 L267.696,162.232 L272.256,162.232 L272.256,162.056 C272.256,160.6 271.376,159.624 270.064,159.624 Z M280.8,167 L279.52,167 L279.52,158.744 L280.8,158.744 L280.8,160.088 L280.864,160.088 C281.232,159.24 281.808,158.552 283.088,158.552 C284.176,158.552 285.168,159.048 285.616,160.232 L285.648,160.232 C285.952,159.336 286.752,158.552 288.16,158.552 C289.84,158.552 290.848,159.704 290.848,161.704 L290.848,167 L289.568,167 L289.568,161.928 C289.568,160.472 289.008,159.704 287.76,159.704 C286.752,159.704 285.824,160.216 285.824,161.272 L285.824,167 L284.544,167 L284.544,161.928 C284.544,160.456 283.984,159.704 282.768,159.704 C281.76,159.704 280.8,160.216 280.8,161.272 L280.8,167 Z M296.608,167.192 C294.4,167.192 292.88,165.496 292.88,162.872 C292.88,160.248 294.4,158.552 296.608,158.552 C298.816,158.552 300.336,160.248 300.336,162.872 C300.336,165.496 298.816,167.192 296.608,167.192 Z M296.608,166.056 C297.984,166.056 298.96,165.208 298.96,163.464 L298.96,162.28 C298.96,160.536 297.984,159.688 296.608,159.688 C295.232,159.688 294.256,160.536 294.256,162.28 L294.256,163.464 C294.256,165.208 295.232,166.056 296.608,166.056 Z M307.728,167 L307.728,165.656 L307.664,165.656 C307.168,166.68 306.384,167.192 305.248,167.192 C303.184,167.192 301.888,165.512 301.888,162.872 C301.888,160.232 303.184,158.552 305.248,158.552 C306.384,158.552 307.232,159.048 307.664,160.088 L307.728,160.088 L307.728,155.16 L309.008,155.16 L309.008,167 L307.728,167 Z M305.6,166.04 C306.768,166.04 307.728,165.432 307.728,164.36 L307.728,161.288 C307.728,160.376 306.768,159.704 305.6,159.704 C304.16,159.704 303.264,160.696 303.264,162.168 L303.264,163.576 C303.264,165.048 304.16,166.04 305.6,166.04 Z M314.832,167.192 C312.592,167.192 311.12,165.496 311.12,162.872 C311.12,160.248 312.592,158.552 314.832,158.552 C317.04,158.552 318.4,160.248 318.4,162.584 L318.4,163.192 L312.464,163.192 L312.464,163.576 C312.464,165 313.376,166.072 314.912,166.072 C315.952,166.072 316.752,165.56 317.184,164.648 L318.096,165.304 C317.568,166.424 316.384,167.192 314.832,167.192 Z M314.832,159.624 C313.44,159.624 312.464,160.68 312.464,162.12 L312.464,162.232 L317.024,162.232 L317.024,162.056 C317.024,160.6 316.144,159.624 314.832,159.624 Z M321.792,167 L320.512,167 L320.512,158.744 L321.792,158.744 L321.792,160.264 L321.872,160.264 C322.16,159.48 322.912,158.744 324.256,158.744 L324.752,158.744 L324.752,160.024 L324,160.024 C322.624,160.024 321.792,160.616 321.792,161.4 L321.792,167 Z M327.664,167 L326.384,167 L326.384,158.744 L327.664,158.744 L327.664,160.088 L327.728,160.088 C328.128,159.16 328.832,158.552 330.064,158.552 C331.76,158.552 332.832,159.704 332.832,161.704 L332.832,167 L331.552,167 L331.552,161.928 C331.552,160.456 330.912,159.704 329.68,159.704 C328.656,159.704 327.664,160.216 327.664,161.272 L327.664,167 Z M28.464,191.192 C26.224,191.192 24.752,189.496 24.752,186.872 C24.752,184.248 26.224,182.552 28.464,182.552 C30.672,182.552 32.032,184.248 32.032,186.584 L32.032,187.192 L26.096,187.192 L26.096,187.576 C26.096,189 27.008,190.072 28.544,190.072 C29.584,190.072 30.384,189.56 30.816,188.648 L31.728,189.304 C31.2,190.424 30.016,191.192 28.464,191.192 Z M28.464,183.624 C27.072,183.624 26.096,184.68 26.096,186.12 L26.096,186.232 L30.656,186.232 L30.656,186.056 C30.656,184.6 29.776,183.624 28.464,183.624 Z M35.424,191 L34.144,191 L34.144,182.744 L35.424,182.744 L35.424,184.088 L35.488,184.088 C35.888,183.16 36.592,182.552 37.824,182.552 C39.52,182.552 40.592,183.704 40.592,185.704 L40.592,191 L39.312,191 L39.312,185.928 C39.312,184.456 38.672,183.704 37.44,183.704 C36.416,183.704 35.424,184.216 35.424,185.272 L35.424,191 Z M46.656,191 L45.056,191 C44.176,191 43.696,190.44 43.696,189.64 L43.696,183.864 L42.336,183.864 L42.336,182.744 L43.104,182.744 C43.648,182.744 43.824,182.552 43.824,181.992 L43.824,180.456 L44.976,180.456 L44.976,182.744 L46.784,182.744 L46.784,183.864 L44.976,183.864 L44.976,189.88 L46.656,189.88 L46.656,191 Z M51.888,191.192 C49.648,191.192 48.176,189.496 48.176,186.872 C48.176,184.248 49.648,182.552 51.888,182.552 C54.096,182.552 55.456,184.248 55.456,186.584 L55.456,187.192 L49.52,187.192 L49.52,187.576 C49.52,189 50.432,190.072 51.968,190.072 C53.008,190.072 53.808,189.56 54.24,188.648 L55.152,189.304 C54.624,190.424 53.44,191.192 51.888,191.192 Z M51.888,183.624 C50.496,183.624 49.52,184.68 49.52,186.12 L49.52,186.232 L54.08,186.232 L54.08,186.056 C54.08,184.6 53.2,183.624 51.888,183.624 Z M58.848,191 L57.568,191 L57.568,182.744 L58.848,182.744 L58.848,184.264 L58.928,184.264 C59.216,183.48 59.968,182.744 61.312,182.744 L61.808,182.744 L61.808,184.024 L61.056,184.024 C59.68,184.024 58.848,184.616 58.848,185.4 L58.848,191 Z M63.44,194.2 L63.44,182.744 L64.72,182.744 L64.72,184.088 L64.784,184.088 C65.216,183.048 66.064,182.552 67.2,182.552 C69.264,182.552 70.56,184.232 70.56,186.872 C70.56,189.512 69.264,191.192 67.2,191.192 C66.064,191.192 65.28,190.68 64.784,189.656 L64.72,189.656 L64.72,194.2 L63.44,194.2 Z M66.848,190.04 C68.288,190.04 69.184,189.048 69.184,187.576 L69.184,186.168 C69.184,184.696 68.288,183.704 66.848,183.704 C65.68,183.704 64.72,184.376 64.72,185.288 L64.72,188.36 C64.72,189.432 65.68,190.04 66.848,190.04 Z M74,191 L72.72,191 L72.72,182.744 L74,182.744 L74,184.264 L74.08,184.264 C74.368,183.48 75.12,182.744 76.464,182.744 L76.96,182.744 L76.96,184.024 L76.208,184.024 C74.832,184.024 74,184.616 74,185.4 L74,191 Z M79.232,180.808 C78.688,180.808 78.448,180.52 78.448,180.088 L78.448,179.88 C78.448,179.448 78.688,179.16 79.232,179.16 C79.776,179.16 80.016,179.448 80.016,179.88 L80.016,180.088 C80.016,180.52 79.776,180.808 79.232,180.808 Z M78.592,191 L78.592,182.744 L79.872,182.744 L79.872,191 L78.592,191 Z M85.072,191.192 C83.552,191.192 82.544,190.552 81.808,189.576 L82.72,188.84 C83.36,189.64 84.128,190.104 85.168,190.104 C86.256,190.104 86.896,189.608 86.896,188.76 C86.896,188.12 86.544,187.624 85.456,187.464 L84.8,187.368 C83.28,187.144 82.144,186.52 82.144,184.984 C82.144,183.352 83.408,182.552 85.088,182.552 C86.416,182.552 87.296,183.048 87.968,183.88 L87.12,184.648 C86.752,184.136 86.048,183.64 84.992,183.64 C83.936,183.64 83.376,184.136 83.376,184.92 C83.376,185.72 83.936,186.04 84.96,186.2 L85.6,186.296 C87.424,186.568 88.128,187.368 88.128,188.616 C88.128,190.216 86.96,191.192 85.072,191.192 Z M93.488,191.192 C91.248,191.192 89.776,189.496 89.776,186.872 C89.776,184.248 91.248,182.552 93.488,182.552 C95.696,182.552 97.056,184.248 97.056,186.584 L97.056,187.192 L91.12,187.192 L91.12,187.576 C91.12,189 92.032,190.072 93.568,190.072 C94.608,190.072 95.408,189.56 95.84,188.648 L96.752,189.304 C96.224,190.424 95.04,191.192 93.488,191.192 Z M93.488,183.624 C92.096,183.624 91.12,184.68 91.12,186.12 L91.12,186.232 L95.68,186.232 L95.68,186.056 C95.68,184.6 94.8,183.624 93.488,183.624 Z M99.664,191.192 C98.992,191.192 98.688,190.808 98.688,190.264 L98.688,190.056 C98.688,189.512 98.992,189.128 99.664,189.128 C100.336,189.128 100.64,189.512 100.64,190.056 L100.64,190.264 C100.64,190.808 100.336,191.192 99.664,191.192 Z" id="Design-thinking-is-a" fill="#3D3D3D"></path>
            </g>
        </g>
    </g>
</svg>