<?xml version="1.0" encoding="UTF-8"?>
<svg width="288px" height="432px" viewBox="0 0 288 432" version="1.1" xmlns="http://www.w3.org/2000/svg" xmlns:xlink="http://www.w3.org/1999/xlink">
    <!-- Generator: Sketch 51.2 (57519) - http://www.bohemiancoding.com/sketch -->
    <title>The Em dash - wrong_Mobile</title>
    <desc>Created with Sketch.</desc>
    <defs></defs>
    <g id="Page-1" stroke="none" stroke-width="1" fill="none" fill-rule="evenodd">
        <g id="Typography_Mobile_320px-Copy-2" transform="translate(-16.000000, -1036.000000)">
            <g id="The-Em-dash---wrong_Mobile" transform="translate(16.000000, 1036.000000)">
                <rect id="Rectangle-16-Copy-174" fill="#FFFFFF" x="0" y="0" width="288" height="432"></rect>
                <path d="M33.54,99 L33.54,93.312 L27.186,93.312 L27.186,99 L25.674,99 L25.674,86.436 L27.186,86.436 L27.186,91.98 L33.54,91.98 L33.54,86.436 L35.052,86.436 L35.052,99 L33.54,99 Z M41.766,99.216 C39.282,99.216 37.572,97.308 37.572,94.356 C37.572,91.404 39.282,89.496 41.766,89.496 C44.25,89.496 45.96,91.404 45.96,94.356 C45.96,97.308 44.25,99.216 41.766,99.216 Z M41.766,97.938 C43.314,97.938 44.412,96.984 44.412,95.022 L44.412,93.69 C44.412,91.728 43.314,90.774 41.766,90.774 C40.218,90.774 39.12,91.728 39.12,93.69 L39.12,95.022 C39.12,96.984 40.218,97.938 41.766,97.938 Z M49.848,99 L47.364,89.712 L48.768,89.712 L49.758,93.726 L50.748,97.794 L50.784,97.794 L51.918,93.726 L53.088,89.712 L54.366,89.712 L55.572,93.726 L56.724,97.794 L56.76,97.794 L57.714,93.726 L58.722,89.712 L60.072,89.712 L57.606,99 L55.824,99 L54.528,94.536 L53.718,91.71 L53.682,91.71 L52.89,94.536 L51.594,99 L49.848,99 Z M69.864,99.216 C67.254,99.216 65.724,97.326 65.724,94.356 C65.724,91.386 67.254,89.496 69.864,89.496 C71.7,89.496 72.798,90.396 73.338,91.674 L72.132,92.286 C71.79,91.332 70.998,90.774 69.864,90.774 C68.154,90.774 67.272,91.944 67.272,93.564 L67.272,95.148 C67.272,96.768 68.154,97.938 69.864,97.938 C71.034,97.938 71.88,97.38 72.384,96.318 L73.428,97.02 C72.834,98.352 71.628,99.216 69.864,99.216 Z M83.022,99 L82.212,99 C81.15,99 80.718,98.352 80.61,97.488 L80.52,97.488 C80.124,98.622 79.134,99.216 77.838,99.216 C75.876,99.216 74.724,98.136 74.724,96.408 C74.724,94.662 75.984,93.69 78.684,93.69 L80.52,93.69 L80.52,92.772 C80.52,91.458 79.8,90.738 78.324,90.738 C77.208,90.738 76.47,91.278 75.966,92.124 L75.102,91.314 C75.606,90.324 76.722,89.496 78.396,89.496 C80.628,89.496 81.96,90.666 81.96,92.628 L81.96,97.74 L83.022,97.74 L83.022,99 Z M78.072,97.992 C79.494,97.992 80.52,97.254 80.52,96.3 L80.52,94.77 L78.612,94.77 C76.974,94.77 76.236,95.274 76.236,96.174 L76.236,96.552 C76.236,97.47 76.956,97.992 78.072,97.992 Z M86.514,99 L85.074,99 L85.074,89.712 L86.514,89.712 L86.514,91.224 L86.586,91.224 C87.036,90.18 87.828,89.496 89.214,89.496 C91.122,89.496 92.328,90.792 92.328,93.042 L92.328,99 L90.888,99 L90.888,93.294 C90.888,91.638 90.168,90.792 88.782,90.792 C87.63,90.792 86.514,91.368 86.514,92.556 L86.514,99 Z M103.056,99.216 C100.572,99.216 98.862,97.308 98.862,94.356 C98.862,91.404 100.572,89.496 103.056,89.496 C105.54,89.496 107.25,91.404 107.25,94.356 C107.25,97.308 105.54,99.216 103.056,99.216 Z M103.056,97.938 C104.604,97.938 105.702,96.984 105.702,95.022 L105.702,93.69 C105.702,91.728 104.604,90.774 103.056,90.774 C101.508,90.774 100.41,91.728 100.41,93.69 L100.41,95.022 C100.41,96.984 101.508,97.938 103.056,97.938 Z M111.066,99 L109.626,99 L109.626,89.712 L111.066,89.712 L111.066,91.422 L111.156,91.422 C111.48,90.54 112.326,89.712 113.838,89.712 L114.396,89.712 L114.396,91.152 L113.55,91.152 C112.002,91.152 111.066,91.818 111.066,92.7 L111.066,99 Z M124.062,100.026 C124.062,101.934 122.55,102.816 119.562,102.816 C116.664,102.816 115.476,101.988 115.476,100.53 C115.476,99.522 116.034,98.982 116.952,98.73 L116.952,98.532 C116.43,98.28 116.124,97.866 116.124,97.236 C116.124,96.3 116.79,95.85 117.726,95.616 L117.726,95.544 C116.628,95.022 115.98,93.996 115.98,92.7 C115.98,90.81 117.366,89.496 119.472,89.496 C120.138,89.496 120.732,89.622 121.236,89.856 L121.236,89.694 C121.236,88.974 121.542,88.452 122.316,88.452 L123.702,88.452 L123.702,89.712 L121.938,89.712 L121.938,90.306 C122.604,90.882 123,91.71 123,92.7 C123,94.59 121.614,95.904 119.49,95.904 C119.184,95.904 118.86,95.868 118.59,95.814 C117.978,95.976 117.366,96.282 117.366,96.858 C117.366,97.416 117.942,97.56 118.788,97.56 L120.768,97.56 C123.072,97.56 124.062,98.496 124.062,100.026 Z M122.712,100.134 C122.712,99.396 122.226,98.91 120.786,98.91 L117.69,98.91 C117.096,99.18 116.826,99.594 116.826,100.17 C116.826,100.98 117.384,101.646 118.842,101.646 L120.174,101.646 C121.776,101.646 122.712,101.142 122.712,100.134 Z M119.49,94.752 C120.714,94.752 121.488,94.176 121.488,92.952 L121.488,92.448 C121.488,91.224 120.714,90.648 119.49,90.648 C118.266,90.648 117.492,91.224 117.492,92.448 L117.492,92.952 C117.492,94.176 118.266,94.752 119.49,94.752 Z M133.296,99 L132.486,99 C131.424,99 130.992,98.352 130.884,97.488 L130.794,97.488 C130.398,98.622 129.408,99.216 128.112,99.216 C126.15,99.216 124.998,98.136 124.998,96.408 C124.998,94.662 126.258,93.69 128.958,93.69 L130.794,93.69 L130.794,92.772 C130.794,91.458 130.074,90.738 128.598,90.738 C127.482,90.738 126.744,91.278 126.24,92.124 L125.376,91.314 C125.88,90.324 126.996,89.496 128.67,89.496 C130.902,89.496 132.234,90.666 132.234,92.628 L132.234,97.74 L133.296,97.74 L133.296,99 Z M128.346,97.992 C129.768,97.992 130.794,97.254 130.794,96.3 L130.794,94.77 L128.886,94.77 C127.248,94.77 126.51,95.274 126.51,96.174 L126.51,96.552 C126.51,97.47 127.23,97.992 128.346,97.992 Z M136.788,99 L135.348,99 L135.348,89.712 L136.788,89.712 L136.788,91.224 L136.86,91.224 C137.31,90.18 138.102,89.496 139.488,89.496 C141.396,89.496 142.602,90.792 142.602,93.042 L142.602,99 L141.162,99 L141.162,93.294 C141.162,91.638 140.442,90.792 139.056,90.792 C137.904,90.792 136.788,91.368 136.788,92.556 L136.788,99 Z M146.292,87.534 C145.68,87.534 145.41,87.21 145.41,86.724 L145.41,86.49 C145.41,86.004 145.68,85.68 146.292,85.68 C146.904,85.68 147.174,86.004 147.174,86.49 L147.174,86.724 C147.174,87.21 146.904,87.534 146.292,87.534 Z M145.572,99 L145.572,89.712 L147.012,89.712 L147.012,99 L145.572,99 Z M156.3,99 L149.136,99 L149.136,97.794 L154.41,90.972 L149.298,90.972 L149.298,89.712 L156.156,89.712 L156.156,90.792 L150.774,97.74 L156.3,97.74 L156.3,99 Z M165.984,99 L165.174,99 C164.112,99 163.68,98.352 163.572,97.488 L163.482,97.488 C163.086,98.622 162.096,99.216 160.8,99.216 C158.838,99.216 157.686,98.136 157.686,96.408 C157.686,94.662 158.946,93.69 161.646,93.69 L163.482,93.69 L163.482,92.772 C163.482,91.458 162.762,90.738 161.286,90.738 C160.17,90.738 159.432,91.278 158.928,92.124 L158.064,91.314 C158.568,90.324 159.684,89.496 161.358,89.496 C163.59,89.496 164.922,90.666 164.922,92.628 L164.922,97.74 L165.984,97.74 L165.984,99 Z M161.034,97.992 C162.456,97.992 163.482,97.254 163.482,96.3 L163.482,94.77 L161.574,94.77 C159.936,94.77 159.198,95.274 159.198,96.174 L159.198,96.552 C159.198,97.47 159.918,97.992 161.034,97.992 Z M171.888,99 L170.088,99 C169.098,99 168.558,98.37 168.558,97.47 L168.558,90.972 L167.028,90.972 L167.028,89.712 L167.892,89.712 C168.504,89.712 168.702,89.496 168.702,88.866 L168.702,87.138 L169.998,87.138 L169.998,89.712 L172.032,89.712 L172.032,90.972 L169.998,90.972 L169.998,97.74 L171.888,97.74 L171.888,99 Z M175.074,87.534 C174.462,87.534 174.192,87.21 174.192,86.724 L174.192,86.49 C174.192,86.004 174.462,85.68 175.074,85.68 C175.686,85.68 175.956,86.004 175.956,86.49 L175.956,86.724 C175.956,87.21 175.686,87.534 175.074,87.534 Z M174.354,99 L174.354,89.712 L175.794,89.712 L175.794,99 L174.354,99 Z M182.364,99.216 C179.88,99.216 178.17,97.308 178.17,94.356 C178.17,91.404 179.88,89.496 182.364,89.496 C184.848,89.496 186.558,91.404 186.558,94.356 C186.558,97.308 184.848,99.216 182.364,99.216 Z M182.364,97.938 C183.912,97.938 185.01,96.984 185.01,95.022 L185.01,93.69 C185.01,91.728 183.912,90.774 182.364,90.774 C180.816,90.774 179.718,91.728 179.718,93.69 L179.718,95.022 C179.718,96.984 180.816,97.938 182.364,97.938 Z M190.374,99 L188.934,99 L188.934,89.712 L190.374,89.712 L190.374,91.224 L190.446,91.224 C190.896,90.18 191.688,89.496 193.074,89.496 C194.982,89.496 196.188,90.792 196.188,93.042 L196.188,99 L194.748,99 L194.748,93.294 C194.748,91.638 194.028,90.792 192.642,90.792 C191.49,90.792 190.374,91.368 190.374,92.556 L190.374,99 Z M201.948,99.216 C200.238,99.216 199.104,98.496 198.276,97.398 L199.302,96.57 C200.022,97.47 200.886,97.992 202.056,97.992 C203.28,97.992 204,97.434 204,96.48 C204,95.76 203.604,95.202 202.38,95.022 L201.642,94.914 C199.932,94.662 198.654,93.96 198.654,92.232 C198.654,90.396 200.076,89.496 201.966,89.496 C203.46,89.496 204.45,90.054 205.206,90.99 L204.252,91.854 C203.838,91.278 203.046,90.72 201.858,90.72 C200.67,90.72 200.04,91.278 200.04,92.16 C200.04,93.06 200.67,93.42 201.822,93.6 L202.542,93.708 C204.594,94.014 205.386,94.914 205.386,96.318 C205.386,98.118 204.072,99.216 201.948,99.216 Z M218.616,99.216 C216.132,99.216 214.422,97.308 214.422,94.356 C214.422,91.404 216.132,89.496 218.616,89.496 C221.1,89.496 222.81,91.404 222.81,94.356 C222.81,97.308 221.1,99.216 218.616,99.216 Z M218.616,97.938 C220.164,97.938 221.262,96.984 221.262,95.022 L221.262,93.69 C221.262,91.728 220.164,90.774 218.616,90.774 C217.068,90.774 215.97,91.728 215.97,93.69 L215.97,95.022 C215.97,96.984 217.068,97.938 218.616,97.938 Z M225.69,99 L225.69,90.972 L224.178,90.972 L224.178,89.712 L225.69,89.712 L225.69,87.84 C225.69,86.562 226.356,85.68 227.724,85.68 L229.128,85.68 L229.128,86.94 L227.13,86.94 L227.13,89.712 L229.128,89.712 L229.128,90.972 L227.13,90.972 L227.13,99 L225.69,99 Z M33.09,123 L32.28,123 C31.218,123 30.786,122.352 30.678,121.488 L30.588,121.488 C30.192,122.622 29.202,123.216 27.906,123.216 C25.944,123.216 24.792,122.136 24.792,120.408 C24.792,118.662 26.052,117.69 28.752,117.69 L30.588,117.69 L30.588,116.772 C30.588,115.458 29.868,114.738 28.392,114.738 C27.276,114.738 26.538,115.278 26.034,116.124 L25.17,115.314 C25.674,114.324 26.79,113.496 28.464,113.496 C30.696,113.496 32.028,114.666 32.028,116.628 L32.028,121.74 L33.09,121.74 L33.09,123 Z M28.14,121.992 C29.562,121.992 30.588,121.254 30.588,120.3 L30.588,118.77 L28.68,118.77 C27.042,118.77 26.304,119.274 26.304,120.174 L26.304,120.552 C26.304,121.47 27.024,121.992 28.14,121.992 Z M36.582,123 L35.142,123 L35.142,113.712 L36.582,113.712 L36.582,115.224 L36.654,115.224 C37.104,114.18 37.896,113.496 39.282,113.496 C41.19,113.496 42.396,114.792 42.396,117.042 L42.396,123 L40.956,123 L40.956,117.294 C40.956,115.638 40.236,114.792 38.85,114.792 C37.698,114.792 36.582,115.368 36.582,116.556 L36.582,123 Z M48.84,120.03 L51.09,113.712 L52.512,113.712 L48.354,125.16 C47.94,126.276 47.562,126.6 46.194,126.6 L45.456,126.6 L45.456,125.34 L46.914,125.34 L47.616,123.36 L44.142,113.712 L45.582,113.712 L47.814,120.03 L48.246,121.542 L48.336,121.542 L48.84,120.03 Z M61.386,123.216 C59.676,123.216 58.542,122.496 57.714,121.398 L58.74,120.57 C59.46,121.47 60.324,121.992 61.494,121.992 C62.718,121.992 63.438,121.434 63.438,120.48 C63.438,119.76 63.042,119.202 61.818,119.022 L61.08,118.914 C59.37,118.662 58.092,117.96 58.092,116.232 C58.092,114.396 59.514,113.496 61.404,113.496 C62.898,113.496 63.888,114.054 64.644,114.99 L63.69,115.854 C63.276,115.278 62.484,114.72 61.296,114.72 C60.108,114.72 59.478,115.278 59.478,116.16 C59.478,117.06 60.108,117.42 61.26,117.6 L61.98,117.708 C64.032,118.014 64.824,118.914 64.824,120.318 C64.824,122.118 63.51,123.216 61.386,123.216 Z M68.082,111.534 C67.47,111.534 67.2,111.21 67.2,110.724 L67.2,110.49 C67.2,110.004 67.47,109.68 68.082,109.68 C68.694,109.68 68.964,110.004 68.964,110.49 L68.964,110.724 C68.964,111.21 68.694,111.534 68.082,111.534 Z M67.362,123 L67.362,113.712 L68.802,113.712 L68.802,123 L67.362,123 Z M78.09,123 L70.926,123 L70.926,121.794 L76.2,114.972 L71.088,114.972 L71.088,113.712 L77.946,113.712 L77.946,114.792 L72.564,121.74 L78.09,121.74 L78.09,123 Z M83.706,123.216 C81.186,123.216 79.53,121.308 79.53,118.356 C79.53,115.404 81.186,113.496 83.706,113.496 C86.19,113.496 87.72,115.404 87.72,118.032 L87.72,118.716 L81.042,118.716 L81.042,119.148 C81.042,120.75 82.068,121.956 83.796,121.956 C84.966,121.956 85.866,121.38 86.352,120.354 L87.378,121.092 C86.784,122.352 85.452,123.216 83.706,123.216 Z M83.706,114.702 C82.14,114.702 81.042,115.89 81.042,117.51 L81.042,117.636 L86.172,117.636 L86.172,117.438 C86.172,115.8 85.182,114.702 83.706,114.702 Z M103.218,123 L103.218,121.488 L103.146,121.488 C102.588,122.64 101.706,123.216 100.428,123.216 C98.106,123.216 96.648,121.326 96.648,118.356 C96.648,115.386 98.106,113.496 100.428,113.496 C101.706,113.496 102.66,114.054 103.146,115.224 L103.218,115.224 L103.218,109.68 L104.658,109.68 L104.658,123 L103.218,123 Z M100.824,121.92 C102.138,121.92 103.218,121.236 103.218,120.03 L103.218,116.574 C103.218,115.548 102.138,114.792 100.824,114.792 C99.204,114.792 98.196,115.908 98.196,117.564 L98.196,119.148 C98.196,120.804 99.204,121.92 100.824,121.92 Z M111.21,123.216 C108.69,123.216 107.034,121.308 107.034,118.356 C107.034,115.404 108.69,113.496 111.21,113.496 C113.694,113.496 115.224,115.404 115.224,118.032 L115.224,118.716 L108.546,118.716 L108.546,119.148 C108.546,120.75 109.572,121.956 111.3,121.956 C112.47,121.956 113.37,121.38 113.856,120.354 L114.882,121.092 C114.288,122.352 112.956,123.216 111.21,123.216 Z M111.21,114.702 C109.644,114.702 108.546,115.89 108.546,117.51 L108.546,117.636 L113.676,117.636 L113.676,117.438 C113.676,115.8 112.686,114.702 111.21,114.702 Z M125.16,123 L124.35,123 C123.288,123 122.856,122.352 122.748,121.488 L122.658,121.488 C122.262,122.622 121.272,123.216 119.976,123.216 C118.014,123.216 116.862,122.136 116.862,120.408 C116.862,118.662 118.122,117.69 120.822,117.69 L122.658,117.69 L122.658,116.772 C122.658,115.458 121.938,114.738 120.462,114.738 C119.346,114.738 118.608,115.278 118.104,116.124 L117.24,115.314 C117.744,114.324 118.86,113.496 120.534,113.496 C122.766,113.496 124.098,114.666 124.098,116.628 L124.098,121.74 L125.16,121.74 L125.16,123 Z M120.21,121.992 C121.632,121.992 122.658,121.254 122.658,120.3 L122.658,118.77 L120.75,118.77 C119.112,118.77 118.374,119.274 118.374,120.174 L118.374,120.552 C118.374,121.47 119.094,121.992 120.21,121.992 Z M130.02,123 L128.742,123 C127.752,123 127.212,122.37 127.212,121.506 L127.212,109.68 L128.652,109.68 L128.652,121.74 L130.02,121.74 L130.02,123 Z M137.868,123 L135.384,113.712 L136.788,113.712 L137.778,117.726 L138.768,121.794 L138.804,121.794 L139.938,117.726 L141.108,113.712 L142.386,113.712 L143.592,117.726 L144.744,121.794 L144.78,121.794 L145.734,117.726 L146.742,113.712 L148.092,113.712 L145.626,123 L143.844,123 L142.548,118.536 L141.738,115.71 L141.702,115.71 L140.91,118.536 L139.614,123 L137.868,123 Z M150.9,111.534 C150.288,111.534 150.018,111.21 150.018,110.724 L150.018,110.49 C150.018,110.004 150.288,109.68 150.9,109.68 C151.512,109.68 151.782,110.004 151.782,110.49 L151.782,110.724 C151.782,111.21 151.512,111.534 150.9,111.534 Z M150.18,123 L150.18,113.712 L151.62,113.712 L151.62,123 L150.18,123 Z M158.532,123 L156.732,123 C155.742,123 155.202,122.37 155.202,121.47 L155.202,114.972 L153.672,114.972 L153.672,113.712 L154.536,113.712 C155.148,113.712 155.346,113.496 155.346,112.866 L155.346,111.138 L156.642,111.138 L156.642,113.712 L158.676,113.712 L158.676,114.972 L156.642,114.972 L156.642,121.74 L158.532,121.74 L158.532,123 Z M160.998,123 L160.998,109.68 L162.438,109.68 L162.438,115.224 L162.51,115.224 C162.96,114.18 163.752,113.496 165.138,113.496 C167.046,113.496 168.252,114.792 168.252,117.042 L168.252,123 L166.812,123 L166.812,117.294 C166.812,115.638 166.092,114.792 164.706,114.792 C163.554,114.792 162.438,115.368 162.438,116.556 L162.438,123 L160.998,123 Z M183.03,123 L182.22,123 C181.158,123 180.726,122.352 180.618,121.488 L180.528,121.488 C180.132,122.622 179.142,123.216 177.846,123.216 C175.884,123.216 174.732,122.136 174.732,120.408 C174.732,118.662 175.992,117.69 178.692,117.69 L180.528,117.69 L180.528,116.772 C180.528,115.458 179.808,114.738 178.332,114.738 C177.216,114.738 176.478,115.278 175.974,116.124 L175.11,115.314 C175.614,114.324 176.73,113.496 178.404,113.496 C180.636,113.496 181.968,114.666 181.968,116.628 L181.968,121.74 L183.03,121.74 L183.03,123 Z M178.08,121.992 C179.502,121.992 180.528,121.254 180.528,120.3 L180.528,118.77 L178.62,118.77 C176.982,118.77 176.244,119.274 176.244,120.174 L176.244,120.552 C176.244,121.47 176.964,121.992 178.08,121.992 Z M195.27,123 L195.27,121.488 L195.198,121.488 C194.64,122.64 193.758,123.216 192.48,123.216 C190.158,123.216 188.7,121.326 188.7,118.356 C188.7,115.386 190.158,113.496 192.48,113.496 C193.758,113.496 194.712,114.054 195.198,115.224 L195.27,115.224 L195.27,109.68 L196.71,109.68 L196.71,123 L195.27,123 Z M192.876,121.92 C194.19,121.92 195.27,121.236 195.27,120.03 L195.27,116.574 C195.27,115.548 194.19,114.792 192.876,114.792 C191.256,114.792 190.248,115.908 190.248,117.564 L190.248,119.148 C190.248,120.804 191.256,121.92 192.876,121.92 Z M203.244,120.03 L205.494,113.712 L206.916,113.712 L202.758,125.16 C202.344,126.276 201.966,126.6 200.598,126.6 L199.86,126.6 L199.86,125.34 L201.318,125.34 L202.02,123.36 L198.546,113.712 L199.986,113.712 L202.218,120.03 L202.65,121.542 L202.74,121.542 L203.244,120.03 Z M210.192,123 L208.752,123 L208.752,113.712 L210.192,113.712 L210.192,115.224 L210.264,115.224 C210.714,114.18 211.506,113.496 212.892,113.496 C214.8,113.496 216.006,114.792 216.006,117.042 L216.006,123 L214.566,123 L214.566,117.294 C214.566,115.638 213.846,114.792 212.46,114.792 C211.308,114.792 210.192,115.368 210.192,116.556 L210.192,123 Z M226.536,123 L225.726,123 C224.664,123 224.232,122.352 224.124,121.488 L224.034,121.488 C223.638,122.622 222.648,123.216 221.352,123.216 C219.39,123.216 218.238,122.136 218.238,120.408 C218.238,118.662 219.498,117.69 222.198,117.69 L224.034,117.69 L224.034,116.772 C224.034,115.458 223.314,114.738 221.838,114.738 C220.722,114.738 219.984,115.278 219.48,116.124 L218.616,115.314 C219.12,114.324 220.236,113.496 221.91,113.496 C224.142,113.496 225.474,114.666 225.474,116.628 L225.474,121.74 L226.536,121.74 L226.536,123 Z M221.586,121.992 C223.008,121.992 224.034,121.254 224.034,120.3 L224.034,118.77 L222.126,118.77 C220.488,118.77 219.75,119.274 219.75,120.174 L219.75,120.552 C219.75,121.47 220.47,121.992 221.586,121.992 Z M230.028,123 L228.588,123 L228.588,113.712 L230.028,113.712 L230.028,115.224 L230.1,115.224 C230.514,114.27 231.162,113.496 232.602,113.496 C233.826,113.496 234.942,114.054 235.446,115.386 L235.482,115.386 C235.824,114.378 236.724,113.496 238.308,113.496 C240.198,113.496 241.332,114.792 241.332,117.042 L241.332,123 L239.892,123 L239.892,117.294 C239.892,115.656 239.262,114.792 237.858,114.792 C236.724,114.792 235.68,115.368 235.68,116.556 L235.68,123 L234.24,123 L234.24,117.294 C234.24,115.638 233.61,114.792 232.242,114.792 C231.108,114.792 230.028,115.368 230.028,116.556 L230.028,123 Z M245.022,111.534 C244.41,111.534 244.14,111.21 244.14,110.724 L244.14,110.49 C244.14,110.004 244.41,109.68 245.022,109.68 C245.634,109.68 245.904,110.004 245.904,110.49 L245.904,110.724 C245.904,111.21 245.634,111.534 245.022,111.534 Z M244.302,123 L244.302,113.712 L245.742,113.712 L245.742,123 L244.302,123 Z M252.258,123.216 C249.648,123.216 248.118,121.326 248.118,118.356 C248.118,115.386 249.648,113.496 252.258,113.496 C254.094,113.496 255.192,114.396 255.732,115.674 L254.526,116.286 C254.184,115.332 253.392,114.774 252.258,114.774 C250.548,114.774 249.666,115.944 249.666,117.564 L249.666,119.148 C249.666,120.768 250.548,121.938 252.258,121.938 C253.428,121.938 254.274,121.38 254.778,120.318 L255.822,121.02 C255.228,122.352 254.022,123.216 252.258,123.216 Z M33.36,148.026 C33.36,149.934 31.848,150.816 28.86,150.816 C25.962,150.816 24.774,149.988 24.774,148.53 C24.774,147.522 25.332,146.982 26.25,146.73 L26.25,146.532 C25.728,146.28 25.422,145.866 25.422,145.236 C25.422,144.3 26.088,143.85 27.024,143.616 L27.024,143.544 C25.926,143.022 25.278,141.996 25.278,140.7 C25.278,138.81 26.664,137.496 28.77,137.496 C29.436,137.496 30.03,137.622 30.534,137.856 L30.534,137.694 C30.534,136.974 30.84,136.452 31.614,136.452 L33,136.452 L33,137.712 L31.236,137.712 L31.236,138.306 C31.902,138.882 32.298,139.71 32.298,140.7 C32.298,142.59 30.912,143.904 28.788,143.904 C28.482,143.904 28.158,143.868 27.888,143.814 C27.276,143.976 26.664,144.282 26.664,144.858 C26.664,145.416 27.24,145.56 28.086,145.56 L30.066,145.56 C32.37,145.56 33.36,146.496 33.36,148.026 Z M32.01,148.134 C32.01,147.396 31.524,146.91 30.084,146.91 L26.988,146.91 C26.394,147.18 26.124,147.594 26.124,148.17 C26.124,148.98 26.682,149.646 28.14,149.646 L29.472,149.646 C31.074,149.646 32.01,149.142 32.01,148.134 Z M28.788,142.752 C30.012,142.752 30.786,142.176 30.786,140.952 L30.786,140.448 C30.786,139.224 30.012,138.648 28.788,138.648 C27.564,138.648 26.79,139.224 26.79,140.448 L26.79,140.952 C26.79,142.176 27.564,142.752 28.788,142.752 Z M37.842,147 L36.564,147 C35.574,147 35.034,146.37 35.034,145.506 L35.034,133.68 L36.474,133.68 L36.474,145.74 L37.842,145.74 L37.842,147 Z M43.44,147.216 C40.956,147.216 39.246,145.308 39.246,142.356 C39.246,139.404 40.956,137.496 43.44,137.496 C45.924,137.496 47.634,139.404 47.634,142.356 C47.634,145.308 45.924,147.216 43.44,147.216 Z M43.44,145.938 C44.988,145.938 46.086,144.984 46.086,143.022 L46.086,141.69 C46.086,139.728 44.988,138.774 43.44,138.774 C41.892,138.774 40.794,139.728 40.794,141.69 L40.794,143.022 C40.794,144.984 41.892,145.938 43.44,145.938 Z M50.01,147 L50.01,133.68 L51.45,133.68 L51.45,139.224 L51.522,139.224 C52.008,138.054 52.962,137.496 54.24,137.496 C56.562,137.496 58.02,139.386 58.02,142.356 C58.02,145.326 56.562,147.216 54.24,147.216 C52.962,147.216 52.08,146.64 51.522,145.488 L51.45,145.488 L51.45,147 L50.01,147 Z M53.844,145.92 C55.464,145.92 56.472,144.804 56.472,143.148 L56.472,141.564 C56.472,139.908 55.464,138.792 53.844,138.792 C52.53,138.792 51.45,139.548 51.45,140.574 L51.45,144.03 C51.45,145.236 52.53,145.92 53.844,145.92 Z M68.01,147 L67.2,147 C66.138,147 65.706,146.352 65.598,145.488 L65.508,145.488 C65.112,146.622 64.122,147.216 62.826,147.216 C60.864,147.216 59.712,146.136 59.712,144.408 C59.712,142.662 60.972,141.69 63.672,141.69 L65.508,141.69 L65.508,140.772 C65.508,139.458 64.788,138.738 63.312,138.738 C62.196,138.738 61.458,139.278 60.954,140.124 L60.09,139.314 C60.594,138.324 61.71,137.496 63.384,137.496 C65.616,137.496 66.948,138.666 66.948,140.628 L66.948,145.74 L68.01,145.74 L68.01,147 Z M63.06,145.992 C64.482,145.992 65.508,145.254 65.508,144.3 L65.508,142.77 L63.6,142.77 C61.962,142.77 61.224,143.274 61.224,144.174 L61.224,144.552 C61.224,145.47 61.944,145.992 63.06,145.992 Z M72.87,147 L71.592,147 C70.602,147 70.062,146.37 70.062,145.506 L70.062,133.68 L71.502,133.68 L71.502,145.74 L72.87,145.74 L72.87,147 Z M85.434,147.216 C84.678,147.216 84.336,146.784 84.336,146.172 L84.336,145.938 C84.336,145.326 84.678,144.894 85.434,144.894 C86.19,144.894 86.532,145.326 86.532,145.938 L86.532,146.172 C86.532,146.784 86.19,147.216 85.434,147.216 Z M80.646,147.216 C79.89,147.216 79.548,146.784 79.548,146.172 L79.548,145.938 C79.548,145.326 79.89,144.894 80.646,144.894 C81.402,144.894 81.744,145.326 81.744,145.938 L81.744,146.172 C81.744,146.784 81.402,147.216 80.646,147.216 Z M75.876,147.216 C75.12,147.216 74.778,146.784 74.778,146.172 L74.778,145.938 C74.778,145.326 75.12,144.894 75.876,144.894 C76.632,144.894 76.974,145.326 76.974,145.938 L76.974,146.172 C76.974,146.784 76.632,147.216 75.876,147.216 Z M33.54,195 L33.54,189.312 L27.186,189.312 L27.186,195 L25.674,195 L25.674,182.436 L27.186,182.436 L27.186,187.98 L33.54,187.98 L33.54,182.436 L35.052,182.436 L35.052,195 L33.54,195 Z M41.766,195.216 C39.282,195.216 37.572,193.308 37.572,190.356 C37.572,187.404 39.282,185.496 41.766,185.496 C44.25,185.496 45.96,187.404 45.96,190.356 C45.96,193.308 44.25,195.216 41.766,195.216 Z M41.766,193.938 C43.314,193.938 44.412,192.984 44.412,191.022 L44.412,189.69 C44.412,187.728 43.314,186.774 41.766,186.774 C40.218,186.774 39.12,187.728 39.12,189.69 L39.12,191.022 C39.12,192.984 40.218,193.938 41.766,193.938 Z M49.848,195 L47.364,185.712 L48.768,185.712 L49.758,189.726 L50.748,193.794 L50.784,193.794 L51.918,189.726 L53.088,185.712 L54.366,185.712 L55.572,189.726 L56.724,193.794 L56.76,193.794 L57.714,189.726 L58.722,185.712 L60.072,185.712 L57.606,195 L55.824,195 L54.528,190.536 L53.718,187.71 L53.682,187.71 L52.89,190.536 L51.594,195 L49.848,195 Z M69.864,195.216 C67.254,195.216 65.724,193.326 65.724,190.356 C65.724,187.386 67.254,185.496 69.864,185.496 C71.7,185.496 72.798,186.396 73.338,187.674 L72.132,188.286 C71.79,187.332 70.998,186.774 69.864,186.774 C68.154,186.774 67.272,187.944 67.272,189.564 L67.272,191.148 C67.272,192.768 68.154,193.938 69.864,193.938 C71.034,193.938 71.88,193.38 72.384,192.318 L73.428,193.02 C72.834,194.352 71.628,195.216 69.864,195.216 Z M83.022,195 L82.212,195 C81.15,195 80.718,194.352 80.61,193.488 L80.52,193.488 C80.124,194.622 79.134,195.216 77.838,195.216 C75.876,195.216 74.724,194.136 74.724,192.408 C74.724,190.662 75.984,189.69 78.684,189.69 L80.52,189.69 L80.52,188.772 C80.52,187.458 79.8,186.738 78.324,186.738 C77.208,186.738 76.47,187.278 75.966,188.124 L75.102,187.314 C75.606,186.324 76.722,185.496 78.396,185.496 C80.628,185.496 81.96,186.666 81.96,188.628 L81.96,193.74 L83.022,193.74 L83.022,195 Z M78.072,193.992 C79.494,193.992 80.52,193.254 80.52,192.3 L80.52,190.77 L78.612,190.77 C76.974,190.77 76.236,191.274 76.236,192.174 L76.236,192.552 C76.236,193.47 76.956,193.992 78.072,193.992 Z M86.514,195 L85.074,195 L85.074,185.712 L86.514,185.712 L86.514,187.224 L86.586,187.224 C87.036,186.18 87.828,185.496 89.214,185.496 C91.122,185.496 92.328,186.792 92.328,189.042 L92.328,195 L90.888,195 L90.888,189.294 C90.888,187.638 90.168,186.792 88.782,186.792 C87.63,186.792 86.514,187.368 86.514,188.556 L86.514,195 Z M103.056,195.216 C100.572,195.216 98.862,193.308 98.862,190.356 C98.862,187.404 100.572,185.496 103.056,185.496 C105.54,185.496 107.25,187.404 107.25,190.356 C107.25,193.308 105.54,195.216 103.056,195.216 Z M103.056,193.938 C104.604,193.938 105.702,192.984 105.702,191.022 L105.702,189.69 C105.702,187.728 104.604,186.774 103.056,186.774 C101.508,186.774 100.41,187.728 100.41,189.69 L100.41,191.022 C100.41,192.984 101.508,193.938 103.056,193.938 Z M111.066,195 L109.626,195 L109.626,185.712 L111.066,185.712 L111.066,187.422 L111.156,187.422 C111.48,186.54 112.326,185.712 113.838,185.712 L114.396,185.712 L114.396,187.152 L113.55,187.152 C112.002,187.152 111.066,187.818 111.066,188.7 L111.066,195 Z M124.062,196.026 C124.062,197.934 122.55,198.816 119.562,198.816 C116.664,198.816 115.476,197.988 115.476,196.53 C115.476,195.522 116.034,194.982 116.952,194.73 L116.952,194.532 C116.43,194.28 116.124,193.866 116.124,193.236 C116.124,192.3 116.79,191.85 117.726,191.616 L117.726,191.544 C116.628,191.022 115.98,189.996 115.98,188.7 C115.98,186.81 117.366,185.496 119.472,185.496 C120.138,185.496 120.732,185.622 121.236,185.856 L121.236,185.694 C121.236,184.974 121.542,184.452 122.316,184.452 L123.702,184.452 L123.702,185.712 L121.938,185.712 L121.938,186.306 C122.604,186.882 123,187.71 123,188.7 C123,190.59 121.614,191.904 119.49,191.904 C119.184,191.904 118.86,191.868 118.59,191.814 C117.978,191.976 117.366,192.282 117.366,192.858 C117.366,193.416 117.942,193.56 118.788,193.56 L120.768,193.56 C123.072,193.56 124.062,194.496 124.062,196.026 Z M122.712,196.134 C122.712,195.396 122.226,194.91 120.786,194.91 L117.69,194.91 C117.096,195.18 116.826,195.594 116.826,196.17 C116.826,196.98 117.384,197.646 118.842,197.646 L120.174,197.646 C121.776,197.646 122.712,197.142 122.712,196.134 Z M119.49,190.752 C120.714,190.752 121.488,190.176 121.488,188.952 L121.488,188.448 C121.488,187.224 120.714,186.648 119.49,186.648 C118.266,186.648 117.492,187.224 117.492,188.448 L117.492,188.952 C117.492,190.176 118.266,190.752 119.49,190.752 Z M133.296,195 L132.486,195 C131.424,195 130.992,194.352 130.884,193.488 L130.794,193.488 C130.398,194.622 129.408,195.216 128.112,195.216 C126.15,195.216 124.998,194.136 124.998,192.408 C124.998,190.662 126.258,189.69 128.958,189.69 L130.794,189.69 L130.794,188.772 C130.794,187.458 130.074,186.738 128.598,186.738 C127.482,186.738 126.744,187.278 126.24,188.124 L125.376,187.314 C125.88,186.324 126.996,185.496 128.67,185.496 C130.902,185.496 132.234,186.666 132.234,188.628 L132.234,193.74 L133.296,193.74 L133.296,195 Z M128.346,193.992 C129.768,193.992 130.794,193.254 130.794,192.3 L130.794,190.77 L128.886,190.77 C127.248,190.77 126.51,191.274 126.51,192.174 L126.51,192.552 C126.51,193.47 127.23,193.992 128.346,193.992 Z M136.788,195 L135.348,195 L135.348,185.712 L136.788,185.712 L136.788,187.224 L136.86,187.224 C137.31,186.18 138.102,185.496 139.488,185.496 C141.396,185.496 142.602,186.792 142.602,189.042 L142.602,195 L141.162,195 L141.162,189.294 C141.162,187.638 140.442,186.792 139.056,186.792 C137.904,186.792 136.788,187.368 136.788,188.556 L136.788,195 Z M146.292,183.534 C145.68,183.534 145.41,183.21 145.41,182.724 L145.41,182.49 C145.41,182.004 145.68,181.68 146.292,181.68 C146.904,181.68 147.174,182.004 147.174,182.49 L147.174,182.724 C147.174,183.21 146.904,183.534 146.292,183.534 Z M145.572,195 L145.572,185.712 L147.012,185.712 L147.012,195 L145.572,195 Z M156.3,195 L149.136,195 L149.136,193.794 L154.41,186.972 L149.298,186.972 L149.298,185.712 L156.156,185.712 L156.156,186.792 L150.774,193.74 L156.3,193.74 L156.3,195 Z M165.984,195 L165.174,195 C164.112,195 163.68,194.352 163.572,193.488 L163.482,193.488 C163.086,194.622 162.096,195.216 160.8,195.216 C158.838,195.216 157.686,194.136 157.686,192.408 C157.686,190.662 158.946,189.69 161.646,189.69 L163.482,189.69 L163.482,188.772 C163.482,187.458 162.762,186.738 161.286,186.738 C160.17,186.738 159.432,187.278 158.928,188.124 L158.064,187.314 C158.568,186.324 159.684,185.496 161.358,185.496 C163.59,185.496 164.922,186.666 164.922,188.628 L164.922,193.74 L165.984,193.74 L165.984,195 Z M161.034,193.992 C162.456,193.992 163.482,193.254 163.482,192.3 L163.482,190.77 L161.574,190.77 C159.936,190.77 159.198,191.274 159.198,192.174 L159.198,192.552 C159.198,193.47 159.918,193.992 161.034,193.992 Z M171.888,195 L170.088,195 C169.098,195 168.558,194.37 168.558,193.47 L168.558,186.972 L167.028,186.972 L167.028,185.712 L167.892,185.712 C168.504,185.712 168.702,185.496 168.702,184.866 L168.702,183.138 L169.998,183.138 L169.998,185.712 L172.032,185.712 L172.032,186.972 L169.998,186.972 L169.998,193.74 L171.888,193.74 L171.888,195 Z M175.074,183.534 C174.462,183.534 174.192,183.21 174.192,182.724 L174.192,182.49 C174.192,182.004 174.462,181.68 175.074,181.68 C175.686,181.68 175.956,182.004 175.956,182.49 L175.956,182.724 C175.956,183.21 175.686,183.534 175.074,183.534 Z M174.354,195 L174.354,185.712 L175.794,185.712 L175.794,195 L174.354,195 Z M182.364,195.216 C179.88,195.216 178.17,193.308 178.17,190.356 C178.17,187.404 179.88,185.496 182.364,185.496 C184.848,185.496 186.558,187.404 186.558,190.356 C186.558,193.308 184.848,195.216 182.364,195.216 Z M182.364,193.938 C183.912,193.938 185.01,192.984 185.01,191.022 L185.01,189.69 C185.01,187.728 183.912,186.774 182.364,186.774 C180.816,186.774 179.718,187.728 179.718,189.69 L179.718,191.022 C179.718,192.984 180.816,193.938 182.364,193.938 Z M190.374,195 L188.934,195 L188.934,185.712 L190.374,185.712 L190.374,187.224 L190.446,187.224 C190.896,186.18 191.688,185.496 193.074,185.496 C194.982,185.496 196.188,186.792 196.188,189.042 L196.188,195 L194.748,195 L194.748,189.294 C194.748,187.638 194.028,186.792 192.642,186.792 C191.49,186.792 190.374,187.368 190.374,188.556 L190.374,195 Z M201.948,195.216 C200.238,195.216 199.104,194.496 198.276,193.398 L199.302,192.57 C200.022,193.47 200.886,193.992 202.056,193.992 C203.28,193.992 204,193.434 204,192.48 C204,191.76 203.604,191.202 202.38,191.022 L201.642,190.914 C199.932,190.662 198.654,189.96 198.654,188.232 C198.654,186.396 200.076,185.496 201.966,185.496 C203.46,185.496 204.45,186.054 205.206,186.99 L204.252,187.854 C203.838,187.278 203.046,186.72 201.858,186.72 C200.67,186.72 200.04,187.278 200.04,188.16 C200.04,189.06 200.67,189.42 201.822,189.6 L202.542,189.708 C204.594,190.014 205.386,190.914 205.386,192.318 C205.386,194.118 204.072,195.216 201.948,195.216 Z M225.798,195.216 C223.314,195.216 221.604,193.308 221.604,190.356 C221.604,187.404 223.314,185.496 225.798,185.496 C228.282,185.496 229.992,187.404 229.992,190.356 C229.992,193.308 228.282,195.216 225.798,195.216 Z M225.798,193.938 C227.346,193.938 228.444,192.984 228.444,191.022 L228.444,189.69 C228.444,187.728 227.346,186.774 225.798,186.774 C224.25,186.774 223.152,187.728 223.152,189.69 L223.152,191.022 C223.152,192.984 224.25,193.938 225.798,193.938 Z M232.872,195 L232.872,186.972 L231.36,186.972 L231.36,185.712 L232.872,185.712 L232.872,183.84 C232.872,182.562 233.538,181.68 234.906,181.68 L236.31,181.68 L236.31,182.94 L234.312,182.94 L234.312,185.712 L236.31,185.712 L236.31,186.972 L234.312,186.972 L234.312,195 L232.872,195 Z M33.09,219 L32.28,219 C31.218,219 30.786,218.352 30.678,217.488 L30.588,217.488 C30.192,218.622 29.202,219.216 27.906,219.216 C25.944,219.216 24.792,218.136 24.792,216.408 C24.792,214.662 26.052,213.69 28.752,213.69 L30.588,213.69 L30.588,212.772 C30.588,211.458 29.868,210.738 28.392,210.738 C27.276,210.738 26.538,211.278 26.034,212.124 L25.17,211.314 C25.674,210.324 26.79,209.496 28.464,209.496 C30.696,209.496 32.028,210.666 32.028,212.628 L32.028,217.74 L33.09,217.74 L33.09,219 Z M28.14,217.992 C29.562,217.992 30.588,217.254 30.588,216.3 L30.588,214.77 L28.68,214.77 C27.042,214.77 26.304,215.274 26.304,216.174 L26.304,216.552 C26.304,217.47 27.024,217.992 28.14,217.992 Z M36.582,219 L35.142,219 L35.142,209.712 L36.582,209.712 L36.582,211.224 L36.654,211.224 C37.104,210.18 37.896,209.496 39.282,209.496 C41.19,209.496 42.396,210.792 42.396,213.042 L42.396,219 L40.956,219 L40.956,213.294 C40.956,211.638 40.236,210.792 38.85,210.792 C37.698,210.792 36.582,211.368 36.582,212.556 L36.582,219 Z M48.84,216.03 L51.09,209.712 L52.512,209.712 L48.354,221.16 C47.94,222.276 47.562,222.6 46.194,222.6 L45.456,222.6 L45.456,221.34 L46.914,221.34 L47.616,219.36 L44.142,209.712 L45.582,209.712 L47.814,216.03 L48.246,217.542 L48.336,217.542 L48.84,216.03 Z M61.386,219.216 C59.676,219.216 58.542,218.496 57.714,217.398 L58.74,216.57 C59.46,217.47 60.324,217.992 61.494,217.992 C62.718,217.992 63.438,217.434 63.438,216.48 C63.438,215.76 63.042,215.202 61.818,215.022 L61.08,214.914 C59.37,214.662 58.092,213.96 58.092,212.232 C58.092,210.396 59.514,209.496 61.404,209.496 C62.898,209.496 63.888,210.054 64.644,210.99 L63.69,211.854 C63.276,211.278 62.484,210.72 61.296,210.72 C60.108,210.72 59.478,211.278 59.478,212.16 C59.478,213.06 60.108,213.42 61.26,213.6 L61.98,213.708 C64.032,214.014 64.824,214.914 64.824,216.318 C64.824,218.118 63.51,219.216 61.386,219.216 Z M68.082,207.534 C67.47,207.534 67.2,207.21 67.2,206.724 L67.2,206.49 C67.2,206.004 67.47,205.68 68.082,205.68 C68.694,205.68 68.964,206.004 68.964,206.49 L68.964,206.724 C68.964,207.21 68.694,207.534 68.082,207.534 Z M67.362,219 L67.362,209.712 L68.802,209.712 L68.802,219 L67.362,219 Z M78.09,219 L70.926,219 L70.926,217.794 L76.2,210.972 L71.088,210.972 L71.088,209.712 L77.946,209.712 L77.946,210.792 L72.564,217.74 L78.09,217.74 L78.09,219 Z M83.706,219.216 C81.186,219.216 79.53,217.308 79.53,214.356 C79.53,211.404 81.186,209.496 83.706,209.496 C86.19,209.496 87.72,211.404 87.72,214.032 L87.72,214.716 L81.042,214.716 L81.042,215.148 C81.042,216.75 82.068,217.956 83.796,217.956 C84.966,217.956 85.866,217.38 86.352,216.354 L87.378,217.092 C86.784,218.352 85.452,219.216 83.706,219.216 Z M83.706,210.702 C82.14,210.702 81.042,211.89 81.042,213.51 L81.042,213.636 L86.172,213.636 L86.172,213.438 C86.172,211.8 85.182,210.702 83.706,210.702 Z M110.4,219 L110.4,217.488 L110.328,217.488 C109.77,218.64 108.888,219.216 107.61,219.216 C105.288,219.216 103.83,217.326 103.83,214.356 C103.83,211.386 105.288,209.496 107.61,209.496 C108.888,209.496 109.842,210.054 110.328,211.224 L110.4,211.224 L110.4,205.68 L111.84,205.68 L111.84,219 L110.4,219 Z M108.006,217.92 C109.32,217.92 110.4,217.236 110.4,216.03 L110.4,212.574 C110.4,211.548 109.32,210.792 108.006,210.792 C106.386,210.792 105.378,211.908 105.378,213.564 L105.378,215.148 C105.378,216.804 106.386,217.92 108.006,217.92 Z M118.392,219.216 C115.872,219.216 114.216,217.308 114.216,214.356 C114.216,211.404 115.872,209.496 118.392,209.496 C120.876,209.496 122.406,211.404 122.406,214.032 L122.406,214.716 L115.728,214.716 L115.728,215.148 C115.728,216.75 116.754,217.956 118.482,217.956 C119.652,217.956 120.552,217.38 121.038,216.354 L122.064,217.092 C121.47,218.352 120.138,219.216 118.392,219.216 Z M118.392,210.702 C116.826,210.702 115.728,211.89 115.728,213.51 L115.728,213.636 L120.858,213.636 L120.858,213.438 C120.858,211.8 119.868,210.702 118.392,210.702 Z M132.342,219 L131.532,219 C130.47,219 130.038,218.352 129.93,217.488 L129.84,217.488 C129.444,218.622 128.454,219.216 127.158,219.216 C125.196,219.216 124.044,218.136 124.044,216.408 C124.044,214.662 125.304,213.69 128.004,213.69 L129.84,213.69 L129.84,212.772 C129.84,211.458 129.12,210.738 127.644,210.738 C126.528,210.738 125.79,211.278 125.286,212.124 L124.422,211.314 C124.926,210.324 126.042,209.496 127.716,209.496 C129.948,209.496 131.28,210.666 131.28,212.628 L131.28,217.74 L132.342,217.74 L132.342,219 Z M127.392,217.992 C128.814,217.992 129.84,217.254 129.84,216.3 L129.84,214.77 L127.932,214.77 C126.294,214.77 125.556,215.274 125.556,216.174 L125.556,216.552 C125.556,217.47 126.276,217.992 127.392,217.992 Z M137.202,219 L135.924,219 C134.934,219 134.394,218.37 134.394,217.506 L134.394,205.68 L135.834,205.68 L135.834,217.74 L137.202,217.74 L137.202,219 Z M145.05,219 L142.566,209.712 L143.97,209.712 L144.96,213.726 L145.95,217.794 L145.986,217.794 L147.12,213.726 L148.29,209.712 L149.568,209.712 L150.774,213.726 L151.926,217.794 L151.962,217.794 L152.916,213.726 L153.924,209.712 L155.274,209.712 L152.808,219 L151.026,219 L149.73,214.536 L148.92,211.71 L148.884,211.71 L148.092,214.536 L146.796,219 L145.05,219 Z M158.082,207.534 C157.47,207.534 157.2,207.21 157.2,206.724 L157.2,206.49 C157.2,206.004 157.47,205.68 158.082,205.68 C158.694,205.68 158.964,206.004 158.964,206.49 L158.964,206.724 C158.964,207.21 158.694,207.534 158.082,207.534 Z M157.362,219 L157.362,209.712 L158.802,209.712 L158.802,219 L157.362,219 Z M165.714,219 L163.914,219 C162.924,219 162.384,218.37 162.384,217.47 L162.384,210.972 L160.854,210.972 L160.854,209.712 L161.718,209.712 C162.33,209.712 162.528,209.496 162.528,208.866 L162.528,207.138 L163.824,207.138 L163.824,209.712 L165.858,209.712 L165.858,210.972 L163.824,210.972 L163.824,217.74 L165.714,217.74 L165.714,219 Z M168.18,219 L168.18,205.68 L169.62,205.68 L169.62,211.224 L169.692,211.224 C170.142,210.18 170.934,209.496 172.32,209.496 C174.228,209.496 175.434,210.792 175.434,213.042 L175.434,219 L173.994,219 L173.994,213.294 C173.994,211.638 173.274,210.792 171.888,210.792 C170.736,210.792 169.62,211.368 169.62,212.556 L169.62,219 L168.18,219 Z M190.212,219 L189.402,219 C188.34,219 187.908,218.352 187.8,217.488 L187.71,217.488 C187.314,218.622 186.324,219.216 185.028,219.216 C183.066,219.216 181.914,218.136 181.914,216.408 C181.914,214.662 183.174,213.69 185.874,213.69 L187.71,213.69 L187.71,212.772 C187.71,211.458 186.99,210.738 185.514,210.738 C184.398,210.738 183.66,211.278 183.156,212.124 L182.292,211.314 C182.796,210.324 183.912,209.496 185.586,209.496 C187.818,209.496 189.15,210.666 189.15,212.628 L189.15,217.74 L190.212,217.74 L190.212,219 Z M185.262,217.992 C186.684,217.992 187.71,217.254 187.71,216.3 L187.71,214.77 L185.802,214.77 C184.164,214.77 183.426,215.274 183.426,216.174 L183.426,216.552 C183.426,217.47 184.146,217.992 185.262,217.992 Z M202.452,219 L202.452,217.488 L202.38,217.488 C201.822,218.64 200.94,219.216 199.662,219.216 C197.34,219.216 195.882,217.326 195.882,214.356 C195.882,211.386 197.34,209.496 199.662,209.496 C200.94,209.496 201.894,210.054 202.38,211.224 L202.452,211.224 L202.452,205.68 L203.892,205.68 L203.892,219 L202.452,219 Z M200.058,217.92 C201.372,217.92 202.452,217.236 202.452,216.03 L202.452,212.574 C202.452,211.548 201.372,210.792 200.058,210.792 C198.438,210.792 197.43,211.908 197.43,213.564 L197.43,215.148 C197.43,216.804 198.438,217.92 200.058,217.92 Z M210.426,216.03 L212.676,209.712 L214.098,209.712 L209.94,221.16 C209.526,222.276 209.148,222.6 207.78,222.6 L207.042,222.6 L207.042,221.34 L208.5,221.34 L209.202,219.36 L205.728,209.712 L207.168,209.712 L209.4,216.03 L209.832,217.542 L209.922,217.542 L210.426,216.03 Z M217.374,219 L215.934,219 L215.934,209.712 L217.374,209.712 L217.374,211.224 L217.446,211.224 C217.896,210.18 218.688,209.496 220.074,209.496 C221.982,209.496 223.188,210.792 223.188,213.042 L223.188,219 L221.748,219 L221.748,213.294 C221.748,211.638 221.028,210.792 219.642,210.792 C218.49,210.792 217.374,211.368 217.374,212.556 L217.374,219 Z M233.718,219 L232.908,219 C231.846,219 231.414,218.352 231.306,217.488 L231.216,217.488 C230.82,218.622 229.83,219.216 228.534,219.216 C226.572,219.216 225.42,218.136 225.42,216.408 C225.42,214.662 226.68,213.69 229.38,213.69 L231.216,213.69 L231.216,212.772 C231.216,211.458 230.496,210.738 229.02,210.738 C227.904,210.738 227.166,211.278 226.662,212.124 L225.798,211.314 C226.302,210.324 227.418,209.496 229.092,209.496 C231.324,209.496 232.656,210.666 232.656,212.628 L232.656,217.74 L233.718,217.74 L233.718,219 Z M228.768,217.992 C230.19,217.992 231.216,217.254 231.216,216.3 L231.216,214.77 L229.308,214.77 C227.67,214.77 226.932,215.274 226.932,216.174 L226.932,216.552 C226.932,217.47 227.652,217.992 228.768,217.992 Z M237.21,219 L235.77,219 L235.77,209.712 L237.21,209.712 L237.21,211.224 L237.282,211.224 C237.696,210.27 238.344,209.496 239.784,209.496 C241.008,209.496 242.124,210.054 242.628,211.386 L242.664,211.386 C243.006,210.378 243.906,209.496 245.49,209.496 C247.38,209.496 248.514,210.792 248.514,213.042 L248.514,219 L247.074,219 L247.074,213.294 C247.074,211.656 246.444,210.792 245.04,210.792 C243.906,210.792 242.862,211.368 242.862,212.556 L242.862,219 L241.422,219 L241.422,213.294 C241.422,211.638 240.792,210.792 239.424,210.792 C238.29,210.792 237.21,211.368 237.21,212.556 L237.21,219 Z M252.204,207.534 C251.592,207.534 251.322,207.21 251.322,206.724 L251.322,206.49 C251.322,206.004 251.592,205.68 252.204,205.68 C252.816,205.68 253.086,206.004 253.086,206.49 L253.086,206.724 C253.086,207.21 252.816,207.534 252.204,207.534 Z M251.484,219 L251.484,209.712 L252.924,209.712 L252.924,219 L251.484,219 Z M259.44,219.216 C256.83,219.216 255.3,217.326 255.3,214.356 C255.3,211.386 256.83,209.496 259.44,209.496 C261.276,209.496 262.374,210.396 262.914,211.674 L261.708,212.286 C261.366,211.332 260.574,210.774 259.44,210.774 C257.73,210.774 256.848,211.944 256.848,213.564 L256.848,215.148 C256.848,216.768 257.73,217.938 259.44,217.938 C260.61,217.938 261.456,217.38 261.96,216.318 L263.004,217.02 C262.41,218.352 261.204,219.216 259.44,219.216 Z M33.36,244.026 C33.36,245.934 31.848,246.816 28.86,246.816 C25.962,246.816 24.774,245.988 24.774,244.53 C24.774,243.522 25.332,242.982 26.25,242.73 L26.25,242.532 C25.728,242.28 25.422,241.866 25.422,241.236 C25.422,240.3 26.088,239.85 27.024,239.616 L27.024,239.544 C25.926,239.022 25.278,237.996 25.278,236.7 C25.278,234.81 26.664,233.496 28.77,233.496 C29.436,233.496 30.03,233.622 30.534,233.856 L30.534,233.694 C30.534,232.974 30.84,232.452 31.614,232.452 L33,232.452 L33,233.712 L31.236,233.712 L31.236,234.306 C31.902,234.882 32.298,235.71 32.298,236.7 C32.298,238.59 30.912,239.904 28.788,239.904 C28.482,239.904 28.158,239.868 27.888,239.814 C27.276,239.976 26.664,240.282 26.664,240.858 C26.664,241.416 27.24,241.56 28.086,241.56 L30.066,241.56 C32.37,241.56 33.36,242.496 33.36,244.026 Z M32.01,244.134 C32.01,243.396 31.524,242.91 30.084,242.91 L26.988,242.91 C26.394,243.18 26.124,243.594 26.124,244.17 C26.124,244.98 26.682,245.646 28.14,245.646 L29.472,245.646 C31.074,245.646 32.01,245.142 32.01,244.134 Z M28.788,238.752 C30.012,238.752 30.786,238.176 30.786,236.952 L30.786,236.448 C30.786,235.224 30.012,234.648 28.788,234.648 C27.564,234.648 26.79,235.224 26.79,236.448 L26.79,236.952 C26.79,238.176 27.564,238.752 28.788,238.752 Z M37.842,243 L36.564,243 C35.574,243 35.034,242.37 35.034,241.506 L35.034,229.68 L36.474,229.68 L36.474,241.74 L37.842,241.74 L37.842,243 Z M43.44,243.216 C40.956,243.216 39.246,241.308 39.246,238.356 C39.246,235.404 40.956,233.496 43.44,233.496 C45.924,233.496 47.634,235.404 47.634,238.356 C47.634,241.308 45.924,243.216 43.44,243.216 Z M43.44,241.938 C44.988,241.938 46.086,240.984 46.086,239.022 L46.086,237.69 C46.086,235.728 44.988,234.774 43.44,234.774 C41.892,234.774 40.794,235.728 40.794,237.69 L40.794,239.022 C40.794,240.984 41.892,241.938 43.44,241.938 Z M50.01,243 L50.01,229.68 L51.45,229.68 L51.45,235.224 L51.522,235.224 C52.008,234.054 52.962,233.496 54.24,233.496 C56.562,233.496 58.02,235.386 58.02,238.356 C58.02,241.326 56.562,243.216 54.24,243.216 C52.962,243.216 52.08,242.64 51.522,241.488 L51.45,241.488 L51.45,243 L50.01,243 Z M53.844,241.92 C55.464,241.92 56.472,240.804 56.472,239.148 L56.472,237.564 C56.472,235.908 55.464,234.792 53.844,234.792 C52.53,234.792 51.45,235.548 51.45,236.574 L51.45,240.03 C51.45,241.236 52.53,241.92 53.844,241.92 Z M68.01,243 L67.2,243 C66.138,243 65.706,242.352 65.598,241.488 L65.508,241.488 C65.112,242.622 64.122,243.216 62.826,243.216 C60.864,243.216 59.712,242.136 59.712,240.408 C59.712,238.662 60.972,237.69 63.672,237.69 L65.508,237.69 L65.508,236.772 C65.508,235.458 64.788,234.738 63.312,234.738 C62.196,234.738 61.458,235.278 60.954,236.124 L60.09,235.314 C60.594,234.324 61.71,233.496 63.384,233.496 C65.616,233.496 66.948,234.666 66.948,236.628 L66.948,241.74 L68.01,241.74 L68.01,243 Z M63.06,241.992 C64.482,241.992 65.508,241.254 65.508,240.3 L65.508,238.77 L63.6,238.77 C61.962,238.77 61.224,239.274 61.224,240.174 L61.224,240.552 C61.224,241.47 61.944,241.992 63.06,241.992 Z M72.87,243 L71.592,243 C70.602,243 70.062,242.37 70.062,241.506 L70.062,229.68 L71.502,229.68 L71.502,241.74 L72.87,241.74 L72.87,243 Z M85.434,243.216 C84.678,243.216 84.336,242.784 84.336,242.172 L84.336,241.938 C84.336,241.326 84.678,240.894 85.434,240.894 C86.19,240.894 86.532,241.326 86.532,241.938 L86.532,242.172 C86.532,242.784 86.19,243.216 85.434,243.216 Z M80.646,243.216 C79.89,243.216 79.548,242.784 79.548,242.172 L79.548,241.938 C79.548,241.326 79.89,240.894 80.646,240.894 C81.402,240.894 81.744,241.326 81.744,241.938 L81.744,242.172 C81.744,242.784 81.402,243.216 80.646,243.216 Z M75.876,243.216 C75.12,243.216 74.778,242.784 74.778,242.172 L74.778,241.938 C74.778,241.326 75.12,240.894 75.876,240.894 C76.632,240.894 76.974,241.326 76.974,241.938 L76.974,242.172 C76.974,242.784 76.632,243.216 75.876,243.216 Z M33.54,291 L33.54,285.312 L27.186,285.312 L27.186,291 L25.674,291 L25.674,278.436 L27.186,278.436 L27.186,283.98 L33.54,283.98 L33.54,278.436 L35.052,278.436 L35.052,291 L33.54,291 Z M41.766,291.216 C39.282,291.216 37.572,289.308 37.572,286.356 C37.572,283.404 39.282,281.496 41.766,281.496 C44.25,281.496 45.96,283.404 45.96,286.356 C45.96,289.308 44.25,291.216 41.766,291.216 Z M41.766,289.938 C43.314,289.938 44.412,288.984 44.412,287.022 L44.412,285.69 C44.412,283.728 43.314,282.774 41.766,282.774 C40.218,282.774 39.12,283.728 39.12,285.69 L39.12,287.022 C39.12,288.984 40.218,289.938 41.766,289.938 Z M49.848,291 L47.364,281.712 L48.768,281.712 L49.758,285.726 L50.748,289.794 L50.784,289.794 L51.918,285.726 L53.088,281.712 L54.366,281.712 L55.572,285.726 L56.724,289.794 L56.76,289.794 L57.714,285.726 L58.722,281.712 L60.072,281.712 L57.606,291 L55.824,291 L54.528,286.536 L53.718,283.71 L53.682,283.71 L52.89,286.536 L51.594,291 L49.848,291 Z M69.864,291.216 C67.254,291.216 65.724,289.326 65.724,286.356 C65.724,283.386 67.254,281.496 69.864,281.496 C71.7,281.496 72.798,282.396 73.338,283.674 L72.132,284.286 C71.79,283.332 70.998,282.774 69.864,282.774 C68.154,282.774 67.272,283.944 67.272,285.564 L67.272,287.148 C67.272,288.768 68.154,289.938 69.864,289.938 C71.034,289.938 71.88,289.38 72.384,288.318 L73.428,289.02 C72.834,290.352 71.628,291.216 69.864,291.216 Z M83.022,291 L82.212,291 C81.15,291 80.718,290.352 80.61,289.488 L80.52,289.488 C80.124,290.622 79.134,291.216 77.838,291.216 C75.876,291.216 74.724,290.136 74.724,288.408 C74.724,286.662 75.984,285.69 78.684,285.69 L80.52,285.69 L80.52,284.772 C80.52,283.458 79.8,282.738 78.324,282.738 C77.208,282.738 76.47,283.278 75.966,284.124 L75.102,283.314 C75.606,282.324 76.722,281.496 78.396,281.496 C80.628,281.496 81.96,282.666 81.96,284.628 L81.96,289.74 L83.022,289.74 L83.022,291 Z M78.072,289.992 C79.494,289.992 80.52,289.254 80.52,288.3 L80.52,286.77 L78.612,286.77 C76.974,286.77 76.236,287.274 76.236,288.174 L76.236,288.552 C76.236,289.47 76.956,289.992 78.072,289.992 Z M86.514,291 L85.074,291 L85.074,281.712 L86.514,281.712 L86.514,283.224 L86.586,283.224 C87.036,282.18 87.828,281.496 89.214,281.496 C91.122,281.496 92.328,282.792 92.328,285.042 L92.328,291 L90.888,291 L90.888,285.294 C90.888,283.638 90.168,282.792 88.782,282.792 C87.63,282.792 86.514,283.368 86.514,284.556 L86.514,291 Z M103.056,291.216 C100.572,291.216 98.862,289.308 98.862,286.356 C98.862,283.404 100.572,281.496 103.056,281.496 C105.54,281.496 107.25,283.404 107.25,286.356 C107.25,289.308 105.54,291.216 103.056,291.216 Z M103.056,289.938 C104.604,289.938 105.702,288.984 105.702,287.022 L105.702,285.69 C105.702,283.728 104.604,282.774 103.056,282.774 C101.508,282.774 100.41,283.728 100.41,285.69 L100.41,287.022 C100.41,288.984 101.508,289.938 103.056,289.938 Z M111.066,291 L109.626,291 L109.626,281.712 L111.066,281.712 L111.066,283.422 L111.156,283.422 C111.48,282.54 112.326,281.712 113.838,281.712 L114.396,281.712 L114.396,283.152 L113.55,283.152 C112.002,283.152 111.066,283.818 111.066,284.7 L111.066,291 Z M124.062,292.026 C124.062,293.934 122.55,294.816 119.562,294.816 C116.664,294.816 115.476,293.988 115.476,292.53 C115.476,291.522 116.034,290.982 116.952,290.73 L116.952,290.532 C116.43,290.28 116.124,289.866 116.124,289.236 C116.124,288.3 116.79,287.85 117.726,287.616 L117.726,287.544 C116.628,287.022 115.98,285.996 115.98,284.7 C115.98,282.81 117.366,281.496 119.472,281.496 C120.138,281.496 120.732,281.622 121.236,281.856 L121.236,281.694 C121.236,280.974 121.542,280.452 122.316,280.452 L123.702,280.452 L123.702,281.712 L121.938,281.712 L121.938,282.306 C122.604,282.882 123,283.71 123,284.7 C123,286.59 121.614,287.904 119.49,287.904 C119.184,287.904 118.86,287.868 118.59,287.814 C117.978,287.976 117.366,288.282 117.366,288.858 C117.366,289.416 117.942,289.56 118.788,289.56 L120.768,289.56 C123.072,289.56 124.062,290.496 124.062,292.026 Z M122.712,292.134 C122.712,291.396 122.226,290.91 120.786,290.91 L117.69,290.91 C117.096,291.18 116.826,291.594 116.826,292.17 C116.826,292.98 117.384,293.646 118.842,293.646 L120.174,293.646 C121.776,293.646 122.712,293.142 122.712,292.134 Z M119.49,286.752 C120.714,286.752 121.488,286.176 121.488,284.952 L121.488,284.448 C121.488,283.224 120.714,282.648 119.49,282.648 C118.266,282.648 117.492,283.224 117.492,284.448 L117.492,284.952 C117.492,286.176 118.266,286.752 119.49,286.752 Z M133.296,291 L132.486,291 C131.424,291 130.992,290.352 130.884,289.488 L130.794,289.488 C130.398,290.622 129.408,291.216 128.112,291.216 C126.15,291.216 124.998,290.136 124.998,288.408 C124.998,286.662 126.258,285.69 128.958,285.69 L130.794,285.69 L130.794,284.772 C130.794,283.458 130.074,282.738 128.598,282.738 C127.482,282.738 126.744,283.278 126.24,284.124 L125.376,283.314 C125.88,282.324 126.996,281.496 128.67,281.496 C130.902,281.496 132.234,282.666 132.234,284.628 L132.234,289.74 L133.296,289.74 L133.296,291 Z M128.346,289.992 C129.768,289.992 130.794,289.254 130.794,288.3 L130.794,286.77 L128.886,286.77 C127.248,286.77 126.51,287.274 126.51,288.174 L126.51,288.552 C126.51,289.47 127.23,289.992 128.346,289.992 Z M136.788,291 L135.348,291 L135.348,281.712 L136.788,281.712 L136.788,283.224 L136.86,283.224 C137.31,282.18 138.102,281.496 139.488,281.496 C141.396,281.496 142.602,282.792 142.602,285.042 L142.602,291 L141.162,291 L141.162,285.294 C141.162,283.638 140.442,282.792 139.056,282.792 C137.904,282.792 136.788,283.368 136.788,284.556 L136.788,291 Z M146.292,279.534 C145.68,279.534 145.41,279.21 145.41,278.724 L145.41,278.49 C145.41,278.004 145.68,277.68 146.292,277.68 C146.904,277.68 147.174,278.004 147.174,278.49 L147.174,278.724 C147.174,279.21 146.904,279.534 146.292,279.534 Z M145.572,291 L145.572,281.712 L147.012,281.712 L147.012,291 L145.572,291 Z M156.3,291 L149.136,291 L149.136,289.794 L154.41,282.972 L149.298,282.972 L149.298,281.712 L156.156,281.712 L156.156,282.792 L150.774,289.74 L156.3,289.74 L156.3,291 Z M165.984,291 L165.174,291 C164.112,291 163.68,290.352 163.572,289.488 L163.482,289.488 C163.086,290.622 162.096,291.216 160.8,291.216 C158.838,291.216 157.686,290.136 157.686,288.408 C157.686,286.662 158.946,285.69 161.646,285.69 L163.482,285.69 L163.482,284.772 C163.482,283.458 162.762,282.738 161.286,282.738 C160.17,282.738 159.432,283.278 158.928,284.124 L158.064,283.314 C158.568,282.324 159.684,281.496 161.358,281.496 C163.59,281.496 164.922,282.666 164.922,284.628 L164.922,289.74 L165.984,289.74 L165.984,291 Z M161.034,289.992 C162.456,289.992 163.482,289.254 163.482,288.3 L163.482,286.77 L161.574,286.77 C159.936,286.77 159.198,287.274 159.198,288.174 L159.198,288.552 C159.198,289.47 159.918,289.992 161.034,289.992 Z M171.888,291 L170.088,291 C169.098,291 168.558,290.37 168.558,289.47 L168.558,282.972 L167.028,282.972 L167.028,281.712 L167.892,281.712 C168.504,281.712 168.702,281.496 168.702,280.866 L168.702,279.138 L169.998,279.138 L169.998,281.712 L172.032,281.712 L172.032,282.972 L169.998,282.972 L169.998,289.74 L171.888,289.74 L171.888,291 Z M175.074,279.534 C174.462,279.534 174.192,279.21 174.192,278.724 L174.192,278.49 C174.192,278.004 174.462,277.68 175.074,277.68 C175.686,277.68 175.956,278.004 175.956,278.49 L175.956,278.724 C175.956,279.21 175.686,279.534 175.074,279.534 Z M174.354,291 L174.354,281.712 L175.794,281.712 L175.794,291 L174.354,291 Z M182.364,291.216 C179.88,291.216 178.17,289.308 178.17,286.356 C178.17,283.404 179.88,281.496 182.364,281.496 C184.848,281.496 186.558,283.404 186.558,286.356 C186.558,289.308 184.848,291.216 182.364,291.216 Z M182.364,289.938 C183.912,289.938 185.01,288.984 185.01,287.022 L185.01,285.69 C185.01,283.728 183.912,282.774 182.364,282.774 C180.816,282.774 179.718,283.728 179.718,285.69 L179.718,287.022 C179.718,288.984 180.816,289.938 182.364,289.938 Z M190.374,291 L188.934,291 L188.934,281.712 L190.374,281.712 L190.374,283.224 L190.446,283.224 C190.896,282.18 191.688,281.496 193.074,281.496 C194.982,281.496 196.188,282.792 196.188,285.042 L196.188,291 L194.748,291 L194.748,285.294 C194.748,283.638 194.028,282.792 192.642,282.792 C191.49,282.792 190.374,283.368 190.374,284.556 L190.374,291 Z M201.948,291.216 C200.238,291.216 199.104,290.496 198.276,289.398 L199.302,288.57 C200.022,289.47 200.886,289.992 202.056,289.992 C203.28,289.992 204,289.434 204,288.48 C204,287.76 203.604,287.202 202.38,287.022 L201.642,286.914 C199.932,286.662 198.654,285.96 198.654,284.232 C198.654,282.396 200.076,281.496 201.966,281.496 C203.46,281.496 204.45,282.054 205.206,282.99 L204.252,283.854 C203.838,283.278 203.046,282.72 201.858,282.72 C200.67,282.72 200.04,283.278 200.04,284.16 C200.04,285.06 200.67,285.42 201.822,285.6 L202.542,285.708 C204.594,286.014 205.386,286.914 205.386,288.318 C205.386,290.118 204.072,291.216 201.948,291.216 Z M222.018,291.216 C219.534,291.216 217.824,289.308 217.824,286.356 C217.824,283.404 219.534,281.496 222.018,281.496 C224.502,281.496 226.212,283.404 226.212,286.356 C226.212,289.308 224.502,291.216 222.018,291.216 Z M222.018,289.938 C223.566,289.938 224.664,288.984 224.664,287.022 L224.664,285.69 C224.664,283.728 223.566,282.774 222.018,282.774 C220.47,282.774 219.372,283.728 219.372,285.69 L219.372,287.022 C219.372,288.984 220.47,289.938 222.018,289.938 Z M229.092,291 L229.092,282.972 L227.58,282.972 L227.58,281.712 L229.092,281.712 L229.092,279.84 C229.092,278.562 229.758,277.68 231.126,277.68 L232.53,277.68 L232.53,278.94 L230.532,278.94 L230.532,281.712 L232.53,281.712 L232.53,282.972 L230.532,282.972 L230.532,291 L229.092,291 Z M33.09,315 L32.28,315 C31.218,315 30.786,314.352 30.678,313.488 L30.588,313.488 C30.192,314.622 29.202,315.216 27.906,315.216 C25.944,315.216 24.792,314.136 24.792,312.408 C24.792,310.662 26.052,309.69 28.752,309.69 L30.588,309.69 L30.588,308.772 C30.588,307.458 29.868,306.738 28.392,306.738 C27.276,306.738 26.538,307.278 26.034,308.124 L25.17,307.314 C25.674,306.324 26.79,305.496 28.464,305.496 C30.696,305.496 32.028,306.666 32.028,308.628 L32.028,313.74 L33.09,313.74 L33.09,315 Z M28.14,313.992 C29.562,313.992 30.588,313.254 30.588,312.3 L30.588,310.77 L28.68,310.77 C27.042,310.77 26.304,311.274 26.304,312.174 L26.304,312.552 C26.304,313.47 27.024,313.992 28.14,313.992 Z M36.582,315 L35.142,315 L35.142,305.712 L36.582,305.712 L36.582,307.224 L36.654,307.224 C37.104,306.18 37.896,305.496 39.282,305.496 C41.19,305.496 42.396,306.792 42.396,309.042 L42.396,315 L40.956,315 L40.956,309.294 C40.956,307.638 40.236,306.792 38.85,306.792 C37.698,306.792 36.582,307.368 36.582,308.556 L36.582,315 Z M48.84,312.03 L51.09,305.712 L52.512,305.712 L48.354,317.16 C47.94,318.276 47.562,318.6 46.194,318.6 L45.456,318.6 L45.456,317.34 L46.914,317.34 L47.616,315.36 L44.142,305.712 L45.582,305.712 L47.814,312.03 L48.246,313.542 L48.336,313.542 L48.84,312.03 Z M61.386,315.216 C59.676,315.216 58.542,314.496 57.714,313.398 L58.74,312.57 C59.46,313.47 60.324,313.992 61.494,313.992 C62.718,313.992 63.438,313.434 63.438,312.48 C63.438,311.76 63.042,311.202 61.818,311.022 L61.08,310.914 C59.37,310.662 58.092,309.96 58.092,308.232 C58.092,306.396 59.514,305.496 61.404,305.496 C62.898,305.496 63.888,306.054 64.644,306.99 L63.69,307.854 C63.276,307.278 62.484,306.72 61.296,306.72 C60.108,306.72 59.478,307.278 59.478,308.16 C59.478,309.06 60.108,309.42 61.26,309.6 L61.98,309.708 C64.032,310.014 64.824,310.914 64.824,312.318 C64.824,314.118 63.51,315.216 61.386,315.216 Z M68.082,303.534 C67.47,303.534 67.2,303.21 67.2,302.724 L67.2,302.49 C67.2,302.004 67.47,301.68 68.082,301.68 C68.694,301.68 68.964,302.004 68.964,302.49 L68.964,302.724 C68.964,303.21 68.694,303.534 68.082,303.534 Z M67.362,315 L67.362,305.712 L68.802,305.712 L68.802,315 L67.362,315 Z M78.09,315 L70.926,315 L70.926,313.794 L76.2,306.972 L71.088,306.972 L71.088,305.712 L77.946,305.712 L77.946,306.792 L72.564,313.74 L78.09,313.74 L78.09,315 Z M83.706,315.216 C81.186,315.216 79.53,313.308 79.53,310.356 C79.53,307.404 81.186,305.496 83.706,305.496 C86.19,305.496 87.72,307.404 87.72,310.032 L87.72,310.716 L81.042,310.716 L81.042,311.148 C81.042,312.75 82.068,313.956 83.796,313.956 C84.966,313.956 85.866,313.38 86.352,312.354 L87.378,313.092 C86.784,314.352 85.452,315.216 83.706,315.216 Z M83.706,306.702 C82.14,306.702 81.042,307.89 81.042,309.51 L81.042,309.636 L86.172,309.636 L86.172,309.438 C86.172,307.8 85.182,306.702 83.706,306.702 Z M106.62,315 L106.62,313.488 L106.548,313.488 C105.99,314.64 105.108,315.216 103.83,315.216 C101.508,315.216 100.05,313.326 100.05,310.356 C100.05,307.386 101.508,305.496 103.83,305.496 C105.108,305.496 106.062,306.054 106.548,307.224 L106.62,307.224 L106.62,301.68 L108.06,301.68 L108.06,315 L106.62,315 Z M104.226,313.92 C105.54,313.92 106.62,313.236 106.62,312.03 L106.62,308.574 C106.62,307.548 105.54,306.792 104.226,306.792 C102.606,306.792 101.598,307.908 101.598,309.564 L101.598,311.148 C101.598,312.804 102.606,313.92 104.226,313.92 Z M114.612,315.216 C112.092,315.216 110.436,313.308 110.436,310.356 C110.436,307.404 112.092,305.496 114.612,305.496 C117.096,305.496 118.626,307.404 118.626,310.032 L118.626,310.716 L111.948,310.716 L111.948,311.148 C111.948,312.75 112.974,313.956 114.702,313.956 C115.872,313.956 116.772,313.38 117.258,312.354 L118.284,313.092 C117.69,314.352 116.358,315.216 114.612,315.216 Z M114.612,306.702 C113.046,306.702 111.948,307.89 111.948,309.51 L111.948,309.636 L117.078,309.636 L117.078,309.438 C117.078,307.8 116.088,306.702 114.612,306.702 Z M128.562,315 L127.752,315 C126.69,315 126.258,314.352 126.15,313.488 L126.06,313.488 C125.664,314.622 124.674,315.216 123.378,315.216 C121.416,315.216 120.264,314.136 120.264,312.408 C120.264,310.662 121.524,309.69 124.224,309.69 L126.06,309.69 L126.06,308.772 C126.06,307.458 125.34,306.738 123.864,306.738 C122.748,306.738 122.01,307.278 121.506,308.124 L120.642,307.314 C121.146,306.324 122.262,305.496 123.936,305.496 C126.168,305.496 127.5,306.666 127.5,308.628 L127.5,313.74 L128.562,313.74 L128.562,315 Z M123.612,313.992 C125.034,313.992 126.06,313.254 126.06,312.3 L126.06,310.77 L124.152,310.77 C122.514,310.77 121.776,311.274 121.776,312.174 L121.776,312.552 C121.776,313.47 122.496,313.992 123.612,313.992 Z M133.422,315 L132.144,315 C131.154,315 130.614,314.37 130.614,313.506 L130.614,301.68 L132.054,301.68 L132.054,313.74 L133.422,313.74 L133.422,315 Z M141.27,315 L138.786,305.712 L140.19,305.712 L141.18,309.726 L142.17,313.794 L142.206,313.794 L143.34,309.726 L144.51,305.712 L145.788,305.712 L146.994,309.726 L148.146,313.794 L148.182,313.794 L149.136,309.726 L150.144,305.712 L151.494,305.712 L149.028,315 L147.246,315 L145.95,310.536 L145.14,307.71 L145.104,307.71 L144.312,310.536 L143.016,315 L141.27,315 Z M154.302,303.534 C153.69,303.534 153.42,303.21 153.42,302.724 L153.42,302.49 C153.42,302.004 153.69,301.68 154.302,301.68 C154.914,301.68 155.184,302.004 155.184,302.49 L155.184,302.724 C155.184,303.21 154.914,303.534 154.302,303.534 Z M153.582,315 L153.582,305.712 L155.022,305.712 L155.022,315 L153.582,315 Z M161.934,315 L160.134,315 C159.144,315 158.604,314.37 158.604,313.47 L158.604,306.972 L157.074,306.972 L157.074,305.712 L157.938,305.712 C158.55,305.712 158.748,305.496 158.748,304.866 L158.748,303.138 L160.044,303.138 L160.044,305.712 L162.078,305.712 L162.078,306.972 L160.044,306.972 L160.044,313.74 L161.934,313.74 L161.934,315 Z M164.4,315 L164.4,301.68 L165.84,301.68 L165.84,307.224 L165.912,307.224 C166.362,306.18 167.154,305.496 168.54,305.496 C170.448,305.496 171.654,306.792 171.654,309.042 L171.654,315 L170.214,315 L170.214,309.294 C170.214,307.638 169.494,306.792 168.108,306.792 C166.956,306.792 165.84,307.368 165.84,308.556 L165.84,315 L164.4,315 Z M186.432,315 L185.622,315 C184.56,315 184.128,314.352 184.02,313.488 L183.93,313.488 C183.534,314.622 182.544,315.216 181.248,315.216 C179.286,315.216 178.134,314.136 178.134,312.408 C178.134,310.662 179.394,309.69 182.094,309.69 L183.93,309.69 L183.93,308.772 C183.93,307.458 183.21,306.738 181.734,306.738 C180.618,306.738 179.88,307.278 179.376,308.124 L178.512,307.314 C179.016,306.324 180.132,305.496 181.806,305.496 C184.038,305.496 185.37,306.666 185.37,308.628 L185.37,313.74 L186.432,313.74 L186.432,315 Z M181.482,313.992 C182.904,313.992 183.93,313.254 183.93,312.3 L183.93,310.77 L182.022,310.77 C180.384,310.77 179.646,311.274 179.646,312.174 L179.646,312.552 C179.646,313.47 180.366,313.992 181.482,313.992 Z M198.672,315 L198.672,313.488 L198.6,313.488 C198.042,314.64 197.16,315.216 195.882,315.216 C193.56,315.216 192.102,313.326 192.102,310.356 C192.102,307.386 193.56,305.496 195.882,305.496 C197.16,305.496 198.114,306.054 198.6,307.224 L198.672,307.224 L198.672,301.68 L200.112,301.68 L200.112,315 L198.672,315 Z M196.278,313.92 C197.592,313.92 198.672,313.236 198.672,312.03 L198.672,308.574 C198.672,307.548 197.592,306.792 196.278,306.792 C194.658,306.792 193.65,307.908 193.65,309.564 L193.65,311.148 C193.65,312.804 194.658,313.92 196.278,313.92 Z M206.646,312.03 L208.896,305.712 L210.318,305.712 L206.16,317.16 C205.746,318.276 205.368,318.6 204,318.6 L203.262,318.6 L203.262,317.34 L204.72,317.34 L205.422,315.36 L201.948,305.712 L203.388,305.712 L205.62,312.03 L206.052,313.542 L206.142,313.542 L206.646,312.03 Z M213.594,315 L212.154,315 L212.154,305.712 L213.594,305.712 L213.594,307.224 L213.666,307.224 C214.116,306.18 214.908,305.496 216.294,305.496 C218.202,305.496 219.408,306.792 219.408,309.042 L219.408,315 L217.968,315 L217.968,309.294 C217.968,307.638 217.248,306.792 215.862,306.792 C214.71,306.792 213.594,307.368 213.594,308.556 L213.594,315 Z M229.938,315 L229.128,315 C228.066,315 227.634,314.352 227.526,313.488 L227.436,313.488 C227.04,314.622 226.05,315.216 224.754,315.216 C222.792,315.216 221.64,314.136 221.64,312.408 C221.64,310.662 222.9,309.69 225.6,309.69 L227.436,309.69 L227.436,308.772 C227.436,307.458 226.716,306.738 225.24,306.738 C224.124,306.738 223.386,307.278 222.882,308.124 L222.018,307.314 C222.522,306.324 223.638,305.496 225.312,305.496 C227.544,305.496 228.876,306.666 228.876,308.628 L228.876,313.74 L229.938,313.74 L229.938,315 Z M224.988,313.992 C226.41,313.992 227.436,313.254 227.436,312.3 L227.436,310.77 L225.528,310.77 C223.89,310.77 223.152,311.274 223.152,312.174 L223.152,312.552 C223.152,313.47 223.872,313.992 224.988,313.992 Z M233.43,315 L231.99,315 L231.99,305.712 L233.43,305.712 L233.43,307.224 L233.502,307.224 C233.916,306.27 234.564,305.496 236.004,305.496 C237.228,305.496 238.344,306.054 238.848,307.386 L238.884,307.386 C239.226,306.378 240.126,305.496 241.71,305.496 C243.6,305.496 244.734,306.792 244.734,309.042 L244.734,315 L243.294,315 L243.294,309.294 C243.294,307.656 242.664,306.792 241.26,306.792 C240.126,306.792 239.082,307.368 239.082,308.556 L239.082,315 L237.642,315 L237.642,309.294 C237.642,307.638 237.012,306.792 235.644,306.792 C234.51,306.792 233.43,307.368 233.43,308.556 L233.43,315 Z M248.424,303.534 C247.812,303.534 247.542,303.21 247.542,302.724 L247.542,302.49 C247.542,302.004 247.812,301.68 248.424,301.68 C249.036,301.68 249.306,302.004 249.306,302.49 L249.306,302.724 C249.306,303.21 249.036,303.534 248.424,303.534 Z M247.704,315 L247.704,305.712 L249.144,305.712 L249.144,315 L247.704,315 Z M255.66,315.216 C253.05,315.216 251.52,313.326 251.52,310.356 C251.52,307.386 253.05,305.496 255.66,305.496 C257.496,305.496 258.594,306.396 259.134,307.674 L257.928,308.286 C257.586,307.332 256.794,306.774 255.66,306.774 C253.95,306.774 253.068,307.944 253.068,309.564 L253.068,311.148 C253.068,312.768 253.95,313.938 255.66,313.938 C256.83,313.938 257.676,313.38 258.18,312.318 L259.224,313.02 C258.63,314.352 257.424,315.216 255.66,315.216 Z M33.36,340.026 C33.36,341.934 31.848,342.816 28.86,342.816 C25.962,342.816 24.774,341.988 24.774,340.53 C24.774,339.522 25.332,338.982 26.25,338.73 L26.25,338.532 C25.728,338.28 25.422,337.866 25.422,337.236 C25.422,336.3 26.088,335.85 27.024,335.616 L27.024,335.544 C25.926,335.022 25.278,333.996 25.278,332.7 C25.278,330.81 26.664,329.496 28.77,329.496 C29.436,329.496 30.03,329.622 30.534,329.856 L30.534,329.694 C30.534,328.974 30.84,328.452 31.614,328.452 L33,328.452 L33,329.712 L31.236,329.712 L31.236,330.306 C31.902,330.882 32.298,331.71 32.298,332.7 C32.298,334.59 30.912,335.904 28.788,335.904 C28.482,335.904 28.158,335.868 27.888,335.814 C27.276,335.976 26.664,336.282 26.664,336.858 C26.664,337.416 27.24,337.56 28.086,337.56 L30.066,337.56 C32.37,337.56 33.36,338.496 33.36,340.026 Z M32.01,340.134 C32.01,339.396 31.524,338.91 30.084,338.91 L26.988,338.91 C26.394,339.18 26.124,339.594 26.124,340.17 C26.124,340.98 26.682,341.646 28.14,341.646 L29.472,341.646 C31.074,341.646 32.01,341.142 32.01,340.134 Z M28.788,334.752 C30.012,334.752 30.786,334.176 30.786,332.952 L30.786,332.448 C30.786,331.224 30.012,330.648 28.788,330.648 C27.564,330.648 26.79,331.224 26.79,332.448 L26.79,332.952 C26.79,334.176 27.564,334.752 28.788,334.752 Z M37.842,339 L36.564,339 C35.574,339 35.034,338.37 35.034,337.506 L35.034,325.68 L36.474,325.68 L36.474,337.74 L37.842,337.74 L37.842,339 Z M43.44,339.216 C40.956,339.216 39.246,337.308 39.246,334.356 C39.246,331.404 40.956,329.496 43.44,329.496 C45.924,329.496 47.634,331.404 47.634,334.356 C47.634,337.308 45.924,339.216 43.44,339.216 Z M43.44,337.938 C44.988,337.938 46.086,336.984 46.086,335.022 L46.086,333.69 C46.086,331.728 44.988,330.774 43.44,330.774 C41.892,330.774 40.794,331.728 40.794,333.69 L40.794,335.022 C40.794,336.984 41.892,337.938 43.44,337.938 Z M50.01,339 L50.01,325.68 L51.45,325.68 L51.45,331.224 L51.522,331.224 C52.008,330.054 52.962,329.496 54.24,329.496 C56.562,329.496 58.02,331.386 58.02,334.356 C58.02,337.326 56.562,339.216 54.24,339.216 C52.962,339.216 52.08,338.64 51.522,337.488 L51.45,337.488 L51.45,339 L50.01,339 Z M53.844,337.92 C55.464,337.92 56.472,336.804 56.472,335.148 L56.472,333.564 C56.472,331.908 55.464,330.792 53.844,330.792 C52.53,330.792 51.45,331.548 51.45,332.574 L51.45,336.03 C51.45,337.236 52.53,337.92 53.844,337.92 Z M68.01,339 L67.2,339 C66.138,339 65.706,338.352 65.598,337.488 L65.508,337.488 C65.112,338.622 64.122,339.216 62.826,339.216 C60.864,339.216 59.712,338.136 59.712,336.408 C59.712,334.662 60.972,333.69 63.672,333.69 L65.508,333.69 L65.508,332.772 C65.508,331.458 64.788,330.738 63.312,330.738 C62.196,330.738 61.458,331.278 60.954,332.124 L60.09,331.314 C60.594,330.324 61.71,329.496 63.384,329.496 C65.616,329.496 66.948,330.666 66.948,332.628 L66.948,337.74 L68.01,337.74 L68.01,339 Z M63.06,337.992 C64.482,337.992 65.508,337.254 65.508,336.3 L65.508,334.77 L63.6,334.77 C61.962,334.77 61.224,335.274 61.224,336.174 L61.224,336.552 C61.224,337.47 61.944,337.992 63.06,337.992 Z M72.87,339 L71.592,339 C70.602,339 70.062,338.37 70.062,337.506 L70.062,325.68 L71.502,325.68 L71.502,337.74 L72.87,337.74 L72.87,339 Z M85.434,339.216 C84.678,339.216 84.336,338.784 84.336,338.172 L84.336,337.938 C84.336,337.326 84.678,336.894 85.434,336.894 C86.19,336.894 86.532,337.326 86.532,337.938 L86.532,338.172 C86.532,338.784 86.19,339.216 85.434,339.216 Z M80.646,339.216 C79.89,339.216 79.548,338.784 79.548,338.172 L79.548,337.938 C79.548,337.326 79.89,336.894 80.646,336.894 C81.402,336.894 81.744,337.326 81.744,337.938 L81.744,338.172 C81.744,338.784 81.402,339.216 80.646,339.216 Z M75.876,339.216 C75.12,339.216 74.778,338.784 74.778,338.172 L74.778,337.938 C74.778,337.326 75.12,336.894 75.876,336.894 C76.632,336.894 76.974,337.326 76.974,337.938 L76.974,338.172 C76.974,338.784 76.632,339.216 75.876,339.216 Z" id="How-can-organization" fill="#3D3D3D"></path>
                <polygon id="Path" fill="#D12765" points="212.334 94.302 207.636 94.302 207.636 92.754 212.334 92.754"></polygon>
                <polygon id="Path" fill="#D12765" points="94.506 118.302 89.808 118.302 89.808 116.754 94.506 116.754"></polygon>
                <polygon id="Path" fill="#D12765" points="212.334 190.302 207.636 190.302 207.636 188.754 212.334 188.754"></polygon>
                <polygon id="Path" fill="#D12765" points="219.516 190.302 214.818 190.302 214.818 188.754 219.516 188.754"></polygon>
                <polygon id="Path" fill="#D12765" points="94.506 214.302 89.808 214.302 89.808 212.754 94.506 212.754"></polygon>
                <polygon id="Path" fill="#D12765" points="101.688 214.302 96.99 214.302 96.99 212.754 101.688 212.754"></polygon>
                <polygon id="Path" fill="#D12765" points="216.33 286.212 207.042 286.212 207.042 284.844 216.33 284.844"></polygon>
                <polygon id="Path" fill="#D12765" points="98.502 310.212 89.214 310.212 89.214 308.844 98.502 308.844"></polygon>
            </g>
        </g>
    </g>
</svg>