<?xml version="1.0" encoding="UTF-8"?>
<svg width="288px" height="216px" viewBox="0 0 288 216" version="1.1" xmlns="http://www.w3.org/2000/svg" xmlns:xlink="http://www.w3.org/1999/xlink">
    <!-- Generator: Sketch 51.2 (57519) - http://www.bohemiancoding.com/sketch -->
    <title>The Em dash - right_Mobile</title>
    <desc>Created with Sketch.</desc>
    <defs></defs>
    <g id="Page-1" stroke="none" stroke-width="1" fill="none" fill-rule="evenodd">
        <g id="Typography_Mobile_320px-Copy-2" transform="translate(-16.000000, -804.000000)">
            <g id="The-Em-dash---right_Mobile" transform="translate(16.000000, 804.000000)">
                <rect fill="#FFFFFF" x="0" y="0" width="288" height="216"></rect>
                <path d="M33.54,91 L33.54,85.312 L27.186,85.312 L27.186,91 L25.674,91 L25.674,78.436 L27.186,78.436 L27.186,83.98 L33.54,83.98 L33.54,78.436 L35.052,78.436 L35.052,91 L33.54,91 Z M41.766,91.216 C39.282,91.216 37.572,89.308 37.572,86.356 C37.572,83.404 39.282,81.496 41.766,81.496 C44.25,81.496 45.96,83.404 45.96,86.356 C45.96,89.308 44.25,91.216 41.766,91.216 Z M41.766,89.938 C43.314,89.938 44.412,88.984 44.412,87.022 L44.412,85.69 C44.412,83.728 43.314,82.774 41.766,82.774 C40.218,82.774 39.12,83.728 39.12,85.69 L39.12,87.022 C39.12,88.984 40.218,89.938 41.766,89.938 Z M49.848,91 L47.364,81.712 L48.768,81.712 L49.758,85.726 L50.748,89.794 L50.784,89.794 L51.918,85.726 L53.088,81.712 L54.366,81.712 L55.572,85.726 L56.724,89.794 L56.76,89.794 L57.714,85.726 L58.722,81.712 L60.072,81.712 L57.606,91 L55.824,91 L54.528,86.536 L53.718,83.71 L53.682,83.71 L52.89,86.536 L51.594,91 L49.848,91 Z M69.864,91.216 C67.254,91.216 65.724,89.326 65.724,86.356 C65.724,83.386 67.254,81.496 69.864,81.496 C71.7,81.496 72.798,82.396 73.338,83.674 L72.132,84.286 C71.79,83.332 70.998,82.774 69.864,82.774 C68.154,82.774 67.272,83.944 67.272,85.564 L67.272,87.148 C67.272,88.768 68.154,89.938 69.864,89.938 C71.034,89.938 71.88,89.38 72.384,88.318 L73.428,89.02 C72.834,90.352 71.628,91.216 69.864,91.216 Z M83.022,91 L82.212,91 C81.15,91 80.718,90.352 80.61,89.488 L80.52,89.488 C80.124,90.622 79.134,91.216 77.838,91.216 C75.876,91.216 74.724,90.136 74.724,88.408 C74.724,86.662 75.984,85.69 78.684,85.69 L80.52,85.69 L80.52,84.772 C80.52,83.458 79.8,82.738 78.324,82.738 C77.208,82.738 76.47,83.278 75.966,84.124 L75.102,83.314 C75.606,82.324 76.722,81.496 78.396,81.496 C80.628,81.496 81.96,82.666 81.96,84.628 L81.96,89.74 L83.022,89.74 L83.022,91 Z M78.072,89.992 C79.494,89.992 80.52,89.254 80.52,88.3 L80.52,86.77 L78.612,86.77 C76.974,86.77 76.236,87.274 76.236,88.174 L76.236,88.552 C76.236,89.47 76.956,89.992 78.072,89.992 Z M86.514,91 L85.074,91 L85.074,81.712 L86.514,81.712 L86.514,83.224 L86.586,83.224 C87.036,82.18 87.828,81.496 89.214,81.496 C91.122,81.496 92.328,82.792 92.328,85.042 L92.328,91 L90.888,91 L90.888,85.294 C90.888,83.638 90.168,82.792 88.782,82.792 C87.63,82.792 86.514,83.368 86.514,84.556 L86.514,91 Z M103.056,91.216 C100.572,91.216 98.862,89.308 98.862,86.356 C98.862,83.404 100.572,81.496 103.056,81.496 C105.54,81.496 107.25,83.404 107.25,86.356 C107.25,89.308 105.54,91.216 103.056,91.216 Z M103.056,89.938 C104.604,89.938 105.702,88.984 105.702,87.022 L105.702,85.69 C105.702,83.728 104.604,82.774 103.056,82.774 C101.508,82.774 100.41,83.728 100.41,85.69 L100.41,87.022 C100.41,88.984 101.508,89.938 103.056,89.938 Z M111.066,91 L109.626,91 L109.626,81.712 L111.066,81.712 L111.066,83.422 L111.156,83.422 C111.48,82.54 112.326,81.712 113.838,81.712 L114.396,81.712 L114.396,83.152 L113.55,83.152 C112.002,83.152 111.066,83.818 111.066,84.7 L111.066,91 Z M124.062,92.026 C124.062,93.934 122.55,94.816 119.562,94.816 C116.664,94.816 115.476,93.988 115.476,92.53 C115.476,91.522 116.034,90.982 116.952,90.73 L116.952,90.532 C116.43,90.28 116.124,89.866 116.124,89.236 C116.124,88.3 116.79,87.85 117.726,87.616 L117.726,87.544 C116.628,87.022 115.98,85.996 115.98,84.7 C115.98,82.81 117.366,81.496 119.472,81.496 C120.138,81.496 120.732,81.622 121.236,81.856 L121.236,81.694 C121.236,80.974 121.542,80.452 122.316,80.452 L123.702,80.452 L123.702,81.712 L121.938,81.712 L121.938,82.306 C122.604,82.882 123,83.71 123,84.7 C123,86.59 121.614,87.904 119.49,87.904 C119.184,87.904 118.86,87.868 118.59,87.814 C117.978,87.976 117.366,88.282 117.366,88.858 C117.366,89.416 117.942,89.56 118.788,89.56 L120.768,89.56 C123.072,89.56 124.062,90.496 124.062,92.026 Z M122.712,92.134 C122.712,91.396 122.226,90.91 120.786,90.91 L117.69,90.91 C117.096,91.18 116.826,91.594 116.826,92.17 C116.826,92.98 117.384,93.646 118.842,93.646 L120.174,93.646 C121.776,93.646 122.712,93.142 122.712,92.134 Z M119.49,86.752 C120.714,86.752 121.488,86.176 121.488,84.952 L121.488,84.448 C121.488,83.224 120.714,82.648 119.49,82.648 C118.266,82.648 117.492,83.224 117.492,84.448 L117.492,84.952 C117.492,86.176 118.266,86.752 119.49,86.752 Z M133.296,91 L132.486,91 C131.424,91 130.992,90.352 130.884,89.488 L130.794,89.488 C130.398,90.622 129.408,91.216 128.112,91.216 C126.15,91.216 124.998,90.136 124.998,88.408 C124.998,86.662 126.258,85.69 128.958,85.69 L130.794,85.69 L130.794,84.772 C130.794,83.458 130.074,82.738 128.598,82.738 C127.482,82.738 126.744,83.278 126.24,84.124 L125.376,83.314 C125.88,82.324 126.996,81.496 128.67,81.496 C130.902,81.496 132.234,82.666 132.234,84.628 L132.234,89.74 L133.296,89.74 L133.296,91 Z M128.346,89.992 C129.768,89.992 130.794,89.254 130.794,88.3 L130.794,86.77 L128.886,86.77 C127.248,86.77 126.51,87.274 126.51,88.174 L126.51,88.552 C126.51,89.47 127.23,89.992 128.346,89.992 Z M136.788,91 L135.348,91 L135.348,81.712 L136.788,81.712 L136.788,83.224 L136.86,83.224 C137.31,82.18 138.102,81.496 139.488,81.496 C141.396,81.496 142.602,82.792 142.602,85.042 L142.602,91 L141.162,91 L141.162,85.294 C141.162,83.638 140.442,82.792 139.056,82.792 C137.904,82.792 136.788,83.368 136.788,84.556 L136.788,91 Z M146.292,79.534 C145.68,79.534 145.41,79.21 145.41,78.724 L145.41,78.49 C145.41,78.004 145.68,77.68 146.292,77.68 C146.904,77.68 147.174,78.004 147.174,78.49 L147.174,78.724 C147.174,79.21 146.904,79.534 146.292,79.534 Z M145.572,91 L145.572,81.712 L147.012,81.712 L147.012,91 L145.572,91 Z M156.3,91 L149.136,91 L149.136,89.794 L154.41,82.972 L149.298,82.972 L149.298,81.712 L156.156,81.712 L156.156,82.792 L150.774,89.74 L156.3,89.74 L156.3,91 Z M165.984,91 L165.174,91 C164.112,91 163.68,90.352 163.572,89.488 L163.482,89.488 C163.086,90.622 162.096,91.216 160.8,91.216 C158.838,91.216 157.686,90.136 157.686,88.408 C157.686,86.662 158.946,85.69 161.646,85.69 L163.482,85.69 L163.482,84.772 C163.482,83.458 162.762,82.738 161.286,82.738 C160.17,82.738 159.432,83.278 158.928,84.124 L158.064,83.314 C158.568,82.324 159.684,81.496 161.358,81.496 C163.59,81.496 164.922,82.666 164.922,84.628 L164.922,89.74 L165.984,89.74 L165.984,91 Z M161.034,89.992 C162.456,89.992 163.482,89.254 163.482,88.3 L163.482,86.77 L161.574,86.77 C159.936,86.77 159.198,87.274 159.198,88.174 L159.198,88.552 C159.198,89.47 159.918,89.992 161.034,89.992 Z M171.888,91 L170.088,91 C169.098,91 168.558,90.37 168.558,89.47 L168.558,82.972 L167.028,82.972 L167.028,81.712 L167.892,81.712 C168.504,81.712 168.702,81.496 168.702,80.866 L168.702,79.138 L169.998,79.138 L169.998,81.712 L172.032,81.712 L172.032,82.972 L169.998,82.972 L169.998,89.74 L171.888,89.74 L171.888,91 Z M175.074,79.534 C174.462,79.534 174.192,79.21 174.192,78.724 L174.192,78.49 C174.192,78.004 174.462,77.68 175.074,77.68 C175.686,77.68 175.956,78.004 175.956,78.49 L175.956,78.724 C175.956,79.21 175.686,79.534 175.074,79.534 Z M174.354,91 L174.354,81.712 L175.794,81.712 L175.794,91 L174.354,91 Z M182.364,91.216 C179.88,91.216 178.17,89.308 178.17,86.356 C178.17,83.404 179.88,81.496 182.364,81.496 C184.848,81.496 186.558,83.404 186.558,86.356 C186.558,89.308 184.848,91.216 182.364,91.216 Z M182.364,89.938 C183.912,89.938 185.01,88.984 185.01,87.022 L185.01,85.69 C185.01,83.728 183.912,82.774 182.364,82.774 C180.816,82.774 179.718,83.728 179.718,85.69 L179.718,87.022 C179.718,88.984 180.816,89.938 182.364,89.938 Z M190.374,91 L188.934,91 L188.934,81.712 L190.374,81.712 L190.374,83.224 L190.446,83.224 C190.896,82.18 191.688,81.496 193.074,81.496 C194.982,81.496 196.188,82.792 196.188,85.042 L196.188,91 L194.748,91 L194.748,85.294 C194.748,83.638 194.028,82.792 192.642,82.792 C191.49,82.792 190.374,83.368 190.374,84.556 L190.374,91 Z M201.948,91.216 C200.238,91.216 199.104,90.496 198.276,89.398 L199.302,88.57 C200.022,89.47 200.886,89.992 202.056,89.992 C203.28,89.992 204,89.434 204,88.48 C204,87.76 203.604,87.202 202.38,87.022 L201.642,86.914 C199.932,86.662 198.654,85.96 198.654,84.232 C198.654,82.396 200.076,81.496 201.966,81.496 C203.46,81.496 204.45,82.054 205.206,82.99 L204.252,83.854 C203.838,83.278 203.046,82.72 201.858,82.72 C200.67,82.72 200.04,83.278 200.04,84.16 C200.04,85.06 200.67,85.42 201.822,85.6 L202.542,85.708 C204.594,86.014 205.386,86.914 205.386,88.318 C205.386,90.118 204.072,91.216 201.948,91.216 Z M219.786,86.212 L207.042,86.212 L207.042,84.844 L219.786,84.844 L219.786,86.212 Z M225.474,91.216 C222.99,91.216 221.28,89.308 221.28,86.356 C221.28,83.404 222.99,81.496 225.474,81.496 C227.958,81.496 229.668,83.404 229.668,86.356 C229.668,89.308 227.958,91.216 225.474,91.216 Z M225.474,89.938 C227.022,89.938 228.12,88.984 228.12,87.022 L228.12,85.69 C228.12,83.728 227.022,82.774 225.474,82.774 C223.926,82.774 222.828,83.728 222.828,85.69 L222.828,87.022 C222.828,88.984 223.926,89.938 225.474,89.938 Z M232.548,91 L232.548,82.972 L231.036,82.972 L231.036,81.712 L232.548,81.712 L232.548,79.84 C232.548,78.562 233.214,77.68 234.582,77.68 L235.986,77.68 L235.986,78.94 L233.988,78.94 L233.988,81.712 L235.986,81.712 L235.986,82.972 L233.988,82.972 L233.988,91 L232.548,91 Z M33.09,115 L32.28,115 C31.218,115 30.786,114.352 30.678,113.488 L30.588,113.488 C30.192,114.622 29.202,115.216 27.906,115.216 C25.944,115.216 24.792,114.136 24.792,112.408 C24.792,110.662 26.052,109.69 28.752,109.69 L30.588,109.69 L30.588,108.772 C30.588,107.458 29.868,106.738 28.392,106.738 C27.276,106.738 26.538,107.278 26.034,108.124 L25.17,107.314 C25.674,106.324 26.79,105.496 28.464,105.496 C30.696,105.496 32.028,106.666 32.028,108.628 L32.028,113.74 L33.09,113.74 L33.09,115 Z M28.14,113.992 C29.562,113.992 30.588,113.254 30.588,112.3 L30.588,110.77 L28.68,110.77 C27.042,110.77 26.304,111.274 26.304,112.174 L26.304,112.552 C26.304,113.47 27.024,113.992 28.14,113.992 Z M36.582,115 L35.142,115 L35.142,105.712 L36.582,105.712 L36.582,107.224 L36.654,107.224 C37.104,106.18 37.896,105.496 39.282,105.496 C41.19,105.496 42.396,106.792 42.396,109.042 L42.396,115 L40.956,115 L40.956,109.294 C40.956,107.638 40.236,106.792 38.85,106.792 C37.698,106.792 36.582,107.368 36.582,108.556 L36.582,115 Z M48.84,112.03 L51.09,105.712 L52.512,105.712 L48.354,117.16 C47.94,118.276 47.562,118.6 46.194,118.6 L45.456,118.6 L45.456,117.34 L46.914,117.34 L47.616,115.36 L44.142,105.712 L45.582,105.712 L47.814,112.03 L48.246,113.542 L48.336,113.542 L48.84,112.03 Z M61.386,115.216 C59.676,115.216 58.542,114.496 57.714,113.398 L58.74,112.57 C59.46,113.47 60.324,113.992 61.494,113.992 C62.718,113.992 63.438,113.434 63.438,112.48 C63.438,111.76 63.042,111.202 61.818,111.022 L61.08,110.914 C59.37,110.662 58.092,109.96 58.092,108.232 C58.092,106.396 59.514,105.496 61.404,105.496 C62.898,105.496 63.888,106.054 64.644,106.99 L63.69,107.854 C63.276,107.278 62.484,106.72 61.296,106.72 C60.108,106.72 59.478,107.278 59.478,108.16 C59.478,109.06 60.108,109.42 61.26,109.6 L61.98,109.708 C64.032,110.014 64.824,110.914 64.824,112.318 C64.824,114.118 63.51,115.216 61.386,115.216 Z M68.082,103.534 C67.47,103.534 67.2,103.21 67.2,102.724 L67.2,102.49 C67.2,102.004 67.47,101.68 68.082,101.68 C68.694,101.68 68.964,102.004 68.964,102.49 L68.964,102.724 C68.964,103.21 68.694,103.534 68.082,103.534 Z M67.362,115 L67.362,105.712 L68.802,105.712 L68.802,115 L67.362,115 Z M78.09,115 L70.926,115 L70.926,113.794 L76.2,106.972 L71.088,106.972 L71.088,105.712 L77.946,105.712 L77.946,106.792 L72.564,113.74 L78.09,113.74 L78.09,115 Z M83.706,115.216 C81.186,115.216 79.53,113.308 79.53,110.356 C79.53,107.404 81.186,105.496 83.706,105.496 C86.19,105.496 87.72,107.404 87.72,110.032 L87.72,110.716 L81.042,110.716 L81.042,111.148 C81.042,112.75 82.068,113.956 83.796,113.956 C84.966,113.956 85.866,113.38 86.352,112.354 L87.378,113.092 C86.784,114.352 85.452,115.216 83.706,115.216 Z M83.706,106.702 C82.14,106.702 81.042,107.89 81.042,109.51 L81.042,109.636 L86.172,109.636 L86.172,109.438 C86.172,107.8 85.182,106.702 83.706,106.702 Z M101.958,110.212 L89.214,110.212 L89.214,108.844 L101.958,108.844 L101.958,110.212 Z M110.076,115 L110.076,113.488 L110.004,113.488 C109.446,114.64 108.564,115.216 107.286,115.216 C104.964,115.216 103.506,113.326 103.506,110.356 C103.506,107.386 104.964,105.496 107.286,105.496 C108.564,105.496 109.518,106.054 110.004,107.224 L110.076,107.224 L110.076,101.68 L111.516,101.68 L111.516,115 L110.076,115 Z M107.682,113.92 C108.996,113.92 110.076,113.236 110.076,112.03 L110.076,108.574 C110.076,107.548 108.996,106.792 107.682,106.792 C106.062,106.792 105.054,107.908 105.054,109.564 L105.054,111.148 C105.054,112.804 106.062,113.92 107.682,113.92 Z M118.068,115.216 C115.548,115.216 113.892,113.308 113.892,110.356 C113.892,107.404 115.548,105.496 118.068,105.496 C120.552,105.496 122.082,107.404 122.082,110.032 L122.082,110.716 L115.404,110.716 L115.404,111.148 C115.404,112.75 116.43,113.956 118.158,113.956 C119.328,113.956 120.228,113.38 120.714,112.354 L121.74,113.092 C121.146,114.352 119.814,115.216 118.068,115.216 Z M118.068,106.702 C116.502,106.702 115.404,107.89 115.404,109.51 L115.404,109.636 L120.534,109.636 L120.534,109.438 C120.534,107.8 119.544,106.702 118.068,106.702 Z M132.018,115 L131.208,115 C130.146,115 129.714,114.352 129.606,113.488 L129.516,113.488 C129.12,114.622 128.13,115.216 126.834,115.216 C124.872,115.216 123.72,114.136 123.72,112.408 C123.72,110.662 124.98,109.69 127.68,109.69 L129.516,109.69 L129.516,108.772 C129.516,107.458 128.796,106.738 127.32,106.738 C126.204,106.738 125.466,107.278 124.962,108.124 L124.098,107.314 C124.602,106.324 125.718,105.496 127.392,105.496 C129.624,105.496 130.956,106.666 130.956,108.628 L130.956,113.74 L132.018,113.74 L132.018,115 Z M127.068,113.992 C128.49,113.992 129.516,113.254 129.516,112.3 L129.516,110.77 L127.608,110.77 C125.97,110.77 125.232,111.274 125.232,112.174 L125.232,112.552 C125.232,113.47 125.952,113.992 127.068,113.992 Z M136.878,115 L135.6,115 C134.61,115 134.07,114.37 134.07,113.506 L134.07,101.68 L135.51,101.68 L135.51,113.74 L136.878,113.74 L136.878,115 Z M144.726,115 L142.242,105.712 L143.646,105.712 L144.636,109.726 L145.626,113.794 L145.662,113.794 L146.796,109.726 L147.966,105.712 L149.244,105.712 L150.45,109.726 L151.602,113.794 L151.638,113.794 L152.592,109.726 L153.6,105.712 L154.95,105.712 L152.484,115 L150.702,115 L149.406,110.536 L148.596,107.71 L148.56,107.71 L147.768,110.536 L146.472,115 L144.726,115 Z M157.758,103.534 C157.146,103.534 156.876,103.21 156.876,102.724 L156.876,102.49 C156.876,102.004 157.146,101.68 157.758,101.68 C158.37,101.68 158.64,102.004 158.64,102.49 L158.64,102.724 C158.64,103.21 158.37,103.534 157.758,103.534 Z M157.038,115 L157.038,105.712 L158.478,105.712 L158.478,115 L157.038,115 Z M165.39,115 L163.59,115 C162.6,115 162.06,114.37 162.06,113.47 L162.06,106.972 L160.53,106.972 L160.53,105.712 L161.394,105.712 C162.006,105.712 162.204,105.496 162.204,104.866 L162.204,103.138 L163.5,103.138 L163.5,105.712 L165.534,105.712 L165.534,106.972 L163.5,106.972 L163.5,113.74 L165.39,113.74 L165.39,115 Z M167.856,115 L167.856,101.68 L169.296,101.68 L169.296,107.224 L169.368,107.224 C169.818,106.18 170.61,105.496 171.996,105.496 C173.904,105.496 175.11,106.792 175.11,109.042 L175.11,115 L173.67,115 L173.67,109.294 C173.67,107.638 172.95,106.792 171.564,106.792 C170.412,106.792 169.296,107.368 169.296,108.556 L169.296,115 L167.856,115 Z M189.888,115 L189.078,115 C188.016,115 187.584,114.352 187.476,113.488 L187.386,113.488 C186.99,114.622 186,115.216 184.704,115.216 C182.742,115.216 181.59,114.136 181.59,112.408 C181.59,110.662 182.85,109.69 185.55,109.69 L187.386,109.69 L187.386,108.772 C187.386,107.458 186.666,106.738 185.19,106.738 C184.074,106.738 183.336,107.278 182.832,108.124 L181.968,107.314 C182.472,106.324 183.588,105.496 185.262,105.496 C187.494,105.496 188.826,106.666 188.826,108.628 L188.826,113.74 L189.888,113.74 L189.888,115 Z M184.938,113.992 C186.36,113.992 187.386,113.254 187.386,112.3 L187.386,110.77 L185.478,110.77 C183.84,110.77 183.102,111.274 183.102,112.174 L183.102,112.552 C183.102,113.47 183.822,113.992 184.938,113.992 Z M202.128,115 L202.128,113.488 L202.056,113.488 C201.498,114.64 200.616,115.216 199.338,115.216 C197.016,115.216 195.558,113.326 195.558,110.356 C195.558,107.386 197.016,105.496 199.338,105.496 C200.616,105.496 201.57,106.054 202.056,107.224 L202.128,107.224 L202.128,101.68 L203.568,101.68 L203.568,115 L202.128,115 Z M199.734,113.92 C201.048,113.92 202.128,113.236 202.128,112.03 L202.128,108.574 C202.128,107.548 201.048,106.792 199.734,106.792 C198.114,106.792 197.106,107.908 197.106,109.564 L197.106,111.148 C197.106,112.804 198.114,113.92 199.734,113.92 Z M210.102,112.03 L212.352,105.712 L213.774,105.712 L209.616,117.16 C209.202,118.276 208.824,118.6 207.456,118.6 L206.718,118.6 L206.718,117.34 L208.176,117.34 L208.878,115.36 L205.404,105.712 L206.844,105.712 L209.076,112.03 L209.508,113.542 L209.598,113.542 L210.102,112.03 Z M217.05,115 L215.61,115 L215.61,105.712 L217.05,105.712 L217.05,107.224 L217.122,107.224 C217.572,106.18 218.364,105.496 219.75,105.496 C221.658,105.496 222.864,106.792 222.864,109.042 L222.864,115 L221.424,115 L221.424,109.294 C221.424,107.638 220.704,106.792 219.318,106.792 C218.166,106.792 217.05,107.368 217.05,108.556 L217.05,115 Z M233.394,115 L232.584,115 C231.522,115 231.09,114.352 230.982,113.488 L230.892,113.488 C230.496,114.622 229.506,115.216 228.21,115.216 C226.248,115.216 225.096,114.136 225.096,112.408 C225.096,110.662 226.356,109.69 229.056,109.69 L230.892,109.69 L230.892,108.772 C230.892,107.458 230.172,106.738 228.696,106.738 C227.58,106.738 226.842,107.278 226.338,108.124 L225.474,107.314 C225.978,106.324 227.094,105.496 228.768,105.496 C231,105.496 232.332,106.666 232.332,108.628 L232.332,113.74 L233.394,113.74 L233.394,115 Z M228.444,113.992 C229.866,113.992 230.892,113.254 230.892,112.3 L230.892,110.77 L228.984,110.77 C227.346,110.77 226.608,111.274 226.608,112.174 L226.608,112.552 C226.608,113.47 227.328,113.992 228.444,113.992 Z M236.886,115 L235.446,115 L235.446,105.712 L236.886,105.712 L236.886,107.224 L236.958,107.224 C237.372,106.27 238.02,105.496 239.46,105.496 C240.684,105.496 241.8,106.054 242.304,107.386 L242.34,107.386 C242.682,106.378 243.582,105.496 245.166,105.496 C247.056,105.496 248.19,106.792 248.19,109.042 L248.19,115 L246.75,115 L246.75,109.294 C246.75,107.656 246.12,106.792 244.716,106.792 C243.582,106.792 242.538,107.368 242.538,108.556 L242.538,115 L241.098,115 L241.098,109.294 C241.098,107.638 240.468,106.792 239.1,106.792 C237.966,106.792 236.886,107.368 236.886,108.556 L236.886,115 Z M251.88,103.534 C251.268,103.534 250.998,103.21 250.998,102.724 L250.998,102.49 C250.998,102.004 251.268,101.68 251.88,101.68 C252.492,101.68 252.762,102.004 252.762,102.49 L252.762,102.724 C252.762,103.21 252.492,103.534 251.88,103.534 Z M251.16,115 L251.16,105.712 L252.6,105.712 L252.6,115 L251.16,115 Z M259.116,115.216 C256.506,115.216 254.976,113.326 254.976,110.356 C254.976,107.386 256.506,105.496 259.116,105.496 C260.952,105.496 262.05,106.396 262.59,107.674 L261.384,108.286 C261.042,107.332 260.25,106.774 259.116,106.774 C257.406,106.774 256.524,107.944 256.524,109.564 L256.524,111.148 C256.524,112.768 257.406,113.938 259.116,113.938 C260.286,113.938 261.132,113.38 261.636,112.318 L262.68,113.02 C262.086,114.352 260.88,115.216 259.116,115.216 Z M33.36,140.026 C33.36,141.934 31.848,142.816 28.86,142.816 C25.962,142.816 24.774,141.988 24.774,140.53 C24.774,139.522 25.332,138.982 26.25,138.73 L26.25,138.532 C25.728,138.28 25.422,137.866 25.422,137.236 C25.422,136.3 26.088,135.85 27.024,135.616 L27.024,135.544 C25.926,135.022 25.278,133.996 25.278,132.7 C25.278,130.81 26.664,129.496 28.77,129.496 C29.436,129.496 30.03,129.622 30.534,129.856 L30.534,129.694 C30.534,128.974 30.84,128.452 31.614,128.452 L33,128.452 L33,129.712 L31.236,129.712 L31.236,130.306 C31.902,130.882 32.298,131.71 32.298,132.7 C32.298,134.59 30.912,135.904 28.788,135.904 C28.482,135.904 28.158,135.868 27.888,135.814 C27.276,135.976 26.664,136.282 26.664,136.858 C26.664,137.416 27.24,137.56 28.086,137.56 L30.066,137.56 C32.37,137.56 33.36,138.496 33.36,140.026 Z M32.01,140.134 C32.01,139.396 31.524,138.91 30.084,138.91 L26.988,138.91 C26.394,139.18 26.124,139.594 26.124,140.17 C26.124,140.98 26.682,141.646 28.14,141.646 L29.472,141.646 C31.074,141.646 32.01,141.142 32.01,140.134 Z M28.788,134.752 C30.012,134.752 30.786,134.176 30.786,132.952 L30.786,132.448 C30.786,131.224 30.012,130.648 28.788,130.648 C27.564,130.648 26.79,131.224 26.79,132.448 L26.79,132.952 C26.79,134.176 27.564,134.752 28.788,134.752 Z M37.842,139 L36.564,139 C35.574,139 35.034,138.37 35.034,137.506 L35.034,125.68 L36.474,125.68 L36.474,137.74 L37.842,137.74 L37.842,139 Z M43.44,139.216 C40.956,139.216 39.246,137.308 39.246,134.356 C39.246,131.404 40.956,129.496 43.44,129.496 C45.924,129.496 47.634,131.404 47.634,134.356 C47.634,137.308 45.924,139.216 43.44,139.216 Z M43.44,137.938 C44.988,137.938 46.086,136.984 46.086,135.022 L46.086,133.69 C46.086,131.728 44.988,130.774 43.44,130.774 C41.892,130.774 40.794,131.728 40.794,133.69 L40.794,135.022 C40.794,136.984 41.892,137.938 43.44,137.938 Z M50.01,139 L50.01,125.68 L51.45,125.68 L51.45,131.224 L51.522,131.224 C52.008,130.054 52.962,129.496 54.24,129.496 C56.562,129.496 58.02,131.386 58.02,134.356 C58.02,137.326 56.562,139.216 54.24,139.216 C52.962,139.216 52.08,138.64 51.522,137.488 L51.45,137.488 L51.45,139 L50.01,139 Z M53.844,137.92 C55.464,137.92 56.472,136.804 56.472,135.148 L56.472,133.564 C56.472,131.908 55.464,130.792 53.844,130.792 C52.53,130.792 51.45,131.548 51.45,132.574 L51.45,136.03 C51.45,137.236 52.53,137.92 53.844,137.92 Z M68.01,139 L67.2,139 C66.138,139 65.706,138.352 65.598,137.488 L65.508,137.488 C65.112,138.622 64.122,139.216 62.826,139.216 C60.864,139.216 59.712,138.136 59.712,136.408 C59.712,134.662 60.972,133.69 63.672,133.69 L65.508,133.69 L65.508,132.772 C65.508,131.458 64.788,130.738 63.312,130.738 C62.196,130.738 61.458,131.278 60.954,132.124 L60.09,131.314 C60.594,130.324 61.71,129.496 63.384,129.496 C65.616,129.496 66.948,130.666 66.948,132.628 L66.948,137.74 L68.01,137.74 L68.01,139 Z M63.06,137.992 C64.482,137.992 65.508,137.254 65.508,136.3 L65.508,134.77 L63.6,134.77 C61.962,134.77 61.224,135.274 61.224,136.174 L61.224,136.552 C61.224,137.47 61.944,137.992 63.06,137.992 Z M72.87,139 L71.592,139 C70.602,139 70.062,138.37 70.062,137.506 L70.062,125.68 L71.502,125.68 L71.502,137.74 L72.87,137.74 L72.87,139 Z M85.434,139.216 C84.678,139.216 84.336,138.784 84.336,138.172 L84.336,137.938 C84.336,137.326 84.678,136.894 85.434,136.894 C86.19,136.894 86.532,137.326 86.532,137.938 L86.532,138.172 C86.532,138.784 86.19,139.216 85.434,139.216 Z M80.646,139.216 C79.89,139.216 79.548,138.784 79.548,138.172 L79.548,137.938 C79.548,137.326 79.89,136.894 80.646,136.894 C81.402,136.894 81.744,137.326 81.744,137.938 L81.744,138.172 C81.744,138.784 81.402,139.216 80.646,139.216 Z M75.876,139.216 C75.12,139.216 74.778,138.784 74.778,138.172 L74.778,137.938 C74.778,137.326 75.12,136.894 75.876,136.894 C76.632,136.894 76.974,137.326 76.974,137.938 L76.974,138.172 C76.974,138.784 76.632,139.216 75.876,139.216 Z" id="How-can-organization" fill="#3D3D3D"></path>
            </g>
        </g>
    </g>
</svg>