<svg xmlns="http://www.w3.org/2000/svg" viewBox="0 0 928 448"><g fill="none" fill-rule="evenodd"><path fill="#FFF" d="M0 0h928v448H0z"/><path d="M76.8 62.536h-7.992V85h-3.024V62.536h-7.992v-2.664H76.8v2.664zM80.652 85V58.36h2.88v11.088h.144c.9-2.088 2.484-3.456 5.256-3.456 3.816 0 6.228 2.592 6.228 7.092V85h-2.88V73.588c0-3.312-1.44-5.004-4.212-5.004-2.304 0-4.536 1.152-4.536 3.528V85h-2.88zm27.432.432c-5.04 0-8.352-3.816-8.352-9.72 0-5.904 3.312-9.72 8.352-9.72 4.968 0 8.028 3.816 8.028 9.072v1.368h-13.356v.864c0 3.204 2.052 5.616 5.508 5.616 2.34 0 4.14-1.152 5.112-3.204l2.052 1.476c-1.188 2.52-3.852 4.248-7.344 4.248zm0-17.028c-3.132 0-5.328 2.376-5.328 5.616v.252h10.26v-.396c0-3.276-1.98-5.472-4.932-5.472zm28.188 17.028c-5.22 0-8.28-3.78-8.28-9.72 0-5.94 3.06-9.72 8.28-9.72 3.672 0 5.868 1.8 6.948 4.356l-2.412 1.224c-.684-1.908-2.268-3.024-4.536-3.024-3.42 0-5.184 2.34-5.184 5.58v3.168c0 3.24 1.764 5.58 5.184 5.58 2.34 0 4.032-1.116 5.04-3.24l2.088 1.404c-1.188 2.664-3.6 4.392-7.128 4.392zm18 0c-4.968 0-8.388-3.816-8.388-9.72 0-5.904 3.42-9.72 8.388-9.72s8.388 3.816 8.388 9.72c0 5.904-3.42 9.72-8.388 9.72zm0-2.556c3.096 0 5.292-1.908 5.292-5.832V74.38c0-3.924-2.196-5.832-5.292-5.832-3.096 0-5.292 1.908-5.292 5.832v2.664c0 3.924 2.196 5.832 5.292 5.832zM170.292 85h-2.88V66.424h2.88v3.024h.144c.828-1.908 2.124-3.456 5.004-3.456 2.448 0 4.68 1.116 5.688 3.78h.072c.684-2.016 2.484-3.78 5.652-3.78 3.78 0 6.048 2.592 6.048 7.092V85h-2.88V73.588c0-3.276-1.26-5.004-4.068-5.004-2.268 0-4.356 1.152-4.356 3.528V85h-2.88V73.588c0-3.312-1.26-5.004-3.996-5.004-2.268 0-4.428 1.152-4.428 3.528V85zm28.548 7.2V66.424h2.88v3.024h.144c.972-2.34 2.88-3.456 5.436-3.456 4.644 0 7.56 3.78 7.56 9.72 0 5.94-2.916 9.72-7.56 9.72-2.556 0-4.32-1.152-5.436-3.456h-.144V92.2h-2.88zm7.668-9.36c3.24 0 5.256-2.232 5.256-5.544v-3.168c0-3.312-2.016-5.544-5.256-5.544-2.628 0-4.788 1.512-4.788 3.564v6.912c0 2.412 2.16 3.78 4.788 3.78zM234.84 85h-1.62c-2.124 0-2.988-1.296-3.204-3.024h-.18c-.792 2.268-2.772 3.456-5.364 3.456-3.924 0-6.228-2.16-6.228-5.616 0-3.492 2.52-5.436 7.92-5.436h3.672v-1.836c0-2.628-1.44-4.068-4.392-4.068-2.232 0-3.708 1.08-4.716 2.772L219 69.628c1.008-1.98 3.24-3.636 6.588-3.636 4.464 0 7.128 2.34 7.128 6.264V82.48h2.124V85zm-9.9-2.016c2.844 0 4.896-1.476 4.896-3.384v-3.06h-3.816c-3.276 0-4.752 1.008-4.752 2.808v.756c0 1.836 1.44 2.88 3.672 2.88zM241.824 85h-2.88V66.424h2.88v3.024h.144c.9-2.088 2.484-3.456 5.256-3.456 3.816 0 6.228 2.592 6.228 7.092V85h-2.88V73.588c0-3.312-1.44-5.004-4.212-5.004-2.304 0-4.536 1.152-4.536 3.528V85zm24.228-5.94l4.5-12.636h2.844L265.08 89.32c-.828 2.232-1.584 2.88-4.32 2.88h-1.476v-2.52h2.916l1.404-3.96-6.948-19.296h2.88L264 79.06l.864 3.024h.18l1.008-3.024zM300.684 85h-1.62c-2.124 0-2.988-1.296-3.204-3.024h-.18c-.792 2.268-2.772 3.456-5.364 3.456-3.924 0-6.228-2.16-6.228-5.616 0-3.492 2.52-5.436 7.92-5.436h3.672v-1.836c0-2.628-1.44-4.068-4.392-4.068-2.232 0-3.708 1.08-4.716 2.772l-1.728-1.62c1.008-1.98 3.24-3.636 6.588-3.636 4.464 0 7.128 2.34 7.128 6.264V82.48h2.124V85zm-9.9-2.016c2.844 0 4.896-1.476 4.896-3.384v-3.06h-3.816c-3.276 0-4.752 1.008-4.752 2.808v.756c0 1.836 1.44 2.88 3.672 2.88zM310.404 85h-2.556c-1.98 0-3.06-1.26-3.06-2.988V58.36h2.88v24.12h2.736V85zm9.756.432c-3.42 0-5.688-1.44-7.344-3.636l2.052-1.656c1.44 1.8 3.168 2.844 5.508 2.844 2.448 0 3.888-1.116 3.888-3.024 0-1.44-.792-2.556-3.24-2.916l-1.476-.216c-3.42-.504-5.976-1.908-5.976-5.364 0-3.672 2.844-5.472 6.624-5.472 2.988 0 4.968 1.116 6.48 2.988l-1.908 1.728c-.828-1.152-2.412-2.268-4.788-2.268-2.376 0-3.636 1.116-3.636 2.88 0 1.8 1.26 2.52 3.564 2.88l1.44.216c4.104.612 5.688 2.412 5.688 5.22 0 3.6-2.628 5.796-6.876 5.796zm18.972 0c-4.968 0-8.388-3.816-8.388-9.72 0-5.904 3.42-9.72 8.388-9.72s8.388 3.816 8.388 9.72c0 5.904-3.42 9.72-8.388 9.72zm0-2.556c3.096 0 5.292-1.908 5.292-5.832V74.38c0-3.924-2.196-5.832-5.292-5.832-3.096 0-5.292 1.908-5.292 5.832v2.664c0 3.924 2.196 5.832 5.292 5.832zm27.216 2.556c-3.42 0-5.688-1.44-7.344-3.636l2.052-1.656c1.44 1.8 3.168 2.844 5.508 2.844 2.448 0 3.888-1.116 3.888-3.024 0-1.44-.792-2.556-3.24-2.916l-1.476-.216c-3.42-.504-5.976-1.908-5.976-5.364 0-3.672 2.844-5.472 6.624-5.472 2.988 0 4.968 1.116 6.48 2.988l-1.908 1.728c-.828-1.152-2.412-2.268-4.788-2.268-2.376 0-3.636 1.116-3.636 2.88 0 1.8 1.26 2.52 3.564 2.88l1.44.216c4.104.612 5.688 2.412 5.688 5.22 0 3.6-2.628 5.796-6.876 5.796zm18.936 0c-5.04 0-8.352-3.816-8.352-9.72 0-5.904 3.312-9.72 8.352-9.72 4.968 0 8.028 3.816 8.028 9.072v1.368h-13.356v.864c0 3.204 2.052 5.616 5.508 5.616 2.34 0 4.14-1.152 5.112-3.204l2.052 1.476c-1.188 2.52-3.852 4.248-7.344 4.248zm0-17.028c-3.132 0-5.328 2.376-5.328 5.616v.252h10.26v-.396c0-3.276-1.98-5.472-4.932-5.472zM403.68 85h-2.556c-1.98 0-3.06-1.26-3.06-2.988V58.36h2.88v24.12h2.736V85zm11.16.432c-5.04 0-8.352-3.816-8.352-9.72 0-5.904 3.312-9.72 8.352-9.72 4.968 0 8.028 3.816 8.028 9.072v1.368h-13.356v.864c0 3.204 2.052 5.616 5.508 5.616 2.34 0 4.14-1.152 5.112-3.204l2.052 1.476c-1.188 2.52-3.852 4.248-7.344 4.248zm0-17.028c-3.132 0-5.328 2.376-5.328 5.616v.252h10.26v-.396c0-3.276-1.98-5.472-4.932-5.472zm19.692 17.028c-5.22 0-8.28-3.78-8.28-9.72 0-5.94 3.06-9.72 8.28-9.72 3.672 0 5.868 1.8 6.948 4.356l-2.412 1.224c-.684-1.908-2.268-3.024-4.536-3.024-3.42 0-5.184 2.34-5.184 5.58v3.168c0 3.24 1.764 5.58 5.184 5.58 2.34 0 4.032-1.116 5.04-3.24l2.088 1.404c-1.188 2.664-3.6 4.392-7.128 4.392zm18.9-.432h-3.6c-1.98 0-3.06-1.26-3.06-3.06V68.944h-3.06v-2.52h1.728c1.224 0 1.62-.432 1.62-1.692v-3.456h2.592v5.148h4.068v2.52h-4.068V82.48h3.78V85zm10.512.432c-3.42 0-5.688-1.44-7.344-3.636l2.052-1.656c1.44 1.8 3.168 2.844 5.508 2.844 2.448 0 3.888-1.116 3.888-3.024 0-1.44-.792-2.556-3.24-2.916l-1.476-.216c-3.42-.504-5.976-1.908-5.976-5.364 0-3.672 2.844-5.472 6.624-5.472 2.988 0 4.968 1.116 6.48 2.988l-1.908 1.728c-.828-1.152-2.412-2.268-4.788-2.268-2.376 0-3.636 1.116-3.636 2.88 0 1.8 1.26 2.52 3.564 2.88l1.44.216c4.104.612 5.688 2.412 5.688 5.22 0 3.6-2.628 5.796-6.876 5.796zm35.316-25.56v2.664h-11.016l-.72 9.576h.252c1.188-1.692 2.52-2.772 5.148-2.772 4.32 0 7.488 2.916 7.488 7.776 0 4.896-3.168 8.316-8.46 8.316-4.176 0-6.336-2.124-7.848-4.284l2.268-1.728c1.296 1.98 2.556 3.312 5.58 3.312 3.42 0 5.256-1.908 5.256-5.22v-.36c0-3.312-1.836-5.22-5.256-5.22-2.304 0-3.456.972-4.5 2.124l-2.556-.36.9-13.824h13.464zm14.472 25.56c-6.012 0-8.64-4.788-8.64-12.996s2.628-12.996 8.64-12.996c6.012 0 8.64 4.788 8.64 12.996s-2.628 12.996-8.64 12.996zm0-2.628c3.924 0 5.472-3.456 5.472-8.316v-4.104c0-4.86-1.548-8.316-5.472-8.316-3.924 0-5.472 3.456-5.472 8.316v4.104c0 4.86 1.548 8.316 5.472 8.316zm21.6 2.628c-6.012 0-8.64-4.788-8.64-12.996s2.628-12.996 8.64-12.996c6.012 0 8.64 4.788 8.64 12.996s-2.628 12.996-8.64 12.996zm0-2.628c3.924 0 5.472-3.456 5.472-8.316v-4.104c0-4.86-1.548-8.316-5.472-8.316-3.924 0-5.472 3.456-5.472 8.316v4.104c0 4.86 1.548 8.316 5.472 8.316zM566.868 85h-10.08v-2.52h3.528V62.392h-3.528v-2.52h10.08v2.52h-3.528V82.48h3.528V85zm5.508 0V59.872h10.332c4.14 0 6.696 2.556 6.696 6.48 0 3.744-2.412 5.076-4.068 5.328v.216c1.8.108 4.932 1.656 4.932 5.832 0 4.14-2.772 7.272-6.48 7.272h-11.412zm3.024-11.664v9h7.452c2.592 0 4.176-1.368 4.176-3.888v-1.224c0-2.52-1.584-3.888-4.176-3.888H575.4zm0-10.8v8.208h6.948c2.376 0 3.816-1.26 3.816-3.492v-1.224c0-2.232-1.44-3.492-3.816-3.492H575.4zM595.884 85V59.872h4.032l7.2 13.536h.18l7.236-13.536h3.888V85h-2.952V63.832h-.18l-2.124 4.212-6.012 10.944-6.012-10.944-2.124-4.212h-.18V85h-2.952zm35.928.432c-5.04 0-8.352-3.816-8.352-9.72 0-5.904 3.312-9.72 8.352-9.72 4.968 0 8.028 3.816 8.028 9.072v1.368h-13.356v.864c0 3.204 2.052 5.616 5.508 5.616 2.34 0 4.14-1.152 5.112-3.204l2.052 1.476c-1.188 2.52-3.852 4.248-7.344 4.248zm0-17.028c-3.132 0-5.328 2.376-5.328 5.616v.252h10.26v-.396c0-3.276-1.98-5.472-4.932-5.472zM647.472 85h-2.88V66.424h2.88v3.42h.18c.648-1.764 2.34-3.42 5.364-3.42h1.116v2.88h-1.692c-3.096 0-4.968 1.332-4.968 3.096V85zm15.912.432c-3.42 0-5.688-1.44-7.344-3.636l2.052-1.656c1.44 1.8 3.168 2.844 5.508 2.844 2.448 0 3.888-1.116 3.888-3.024 0-1.44-.792-2.556-3.24-2.916l-1.476-.216c-3.42-.504-5.976-1.908-5.976-5.364 0-3.672 2.844-5.472 6.624-5.472 2.988 0 4.968 1.116 6.48 2.988l-1.908 1.728c-.828-1.152-2.412-2.268-4.788-2.268-2.376 0-3.636 1.116-3.636 2.88 0 1.8 1.26 2.52 3.564 2.88l1.44.216c4.104.612 5.688 2.412 5.688 5.22 0 3.6-2.628 5.796-6.876 5.796zM61.068 132v-16.056h-3.024v-2.52h3.024v-3.744c0-2.556 1.332-4.32 4.068-4.32h2.808v2.52h-3.996v5.544h3.996v2.52h-3.996V132h-2.88zm17.532.432c-4.968 0-8.388-3.816-8.388-9.72 0-5.904 3.42-9.72 8.388-9.72s8.388 3.816 8.388 9.72c0 5.904-3.42 9.72-8.388 9.72zm0-2.556c3.096 0 5.292-1.908 5.292-5.832v-2.664c0-3.924-2.196-5.832-5.292-5.832-3.096 0-5.292 1.908-5.292 5.832v2.664c0 3.924 2.196 5.832 5.292 5.832zM94.62 132h-2.88v-18.576h2.88v3.42h.18c.648-1.764 2.34-3.42 5.364-3.42h1.116v2.88h-1.692c-3.096 0-4.968 1.332-4.968 3.096V132zm26.532 0h-3.6c-1.98 0-3.06-1.26-3.06-3.06v-12.996h-3.06v-2.52h1.728c1.224 0 1.62-.432 1.62-1.692v-3.456h2.592v5.148h4.068v2.52h-4.068v13.536h3.78V132zm4.932 0v-26.64h2.88v11.088h.144c.9-2.088 2.484-3.456 5.256-3.456 3.816 0 6.228 2.592 6.228 7.092V132h-2.88v-11.412c0-3.312-1.44-5.004-4.212-5.004-2.304 0-4.536 1.152-4.536 3.528V132h-2.88zm27.432.432c-5.04 0-8.352-3.816-8.352-9.72 0-5.904 3.312-9.72 8.352-9.72 4.968 0 8.028 3.816 8.028 9.072v1.368h-13.356v.864c0 3.204 2.052 5.616 5.508 5.616 2.34 0 4.14-1.152 5.112-3.204l2.052 1.476c-1.188 2.52-3.852 4.248-7.344 4.248zm0-17.028c-3.132 0-5.328 2.376-5.328 5.616v.252h10.26v-.396c0-3.276-1.98-5.472-4.932-5.472zM183.972 132h-10.08v-2.52h3.528v-20.088h-3.528v-2.52h10.08v2.52h-3.528v20.088h3.528V132zm5.508 0v-25.128h10.332c4.14 0 6.696 2.556 6.696 6.48 0 3.744-2.412 5.076-4.068 5.328v.216c1.8.108 4.932 1.656 4.932 5.832 0 4.14-2.772 7.272-6.48 7.272H189.48zm3.024-11.664v9h7.452c2.592 0 4.176-1.368 4.176-3.888v-1.224c0-2.52-1.584-3.888-4.176-3.888h-7.452zm0-10.8v8.208h6.948c2.376 0 3.816-1.26 3.816-3.492v-1.224c0-2.232-1.44-3.492-3.816-3.492h-6.948zM212.988 132v-25.128h4.032l7.2 13.536h.18l7.236-13.536h3.888V132h-2.952v-21.168h-.18l-2.124 4.212-6.012 10.944-6.012-10.944-2.124-4.212h-.18V132h-2.952zm46.584.432c-6.336 0-10.116-4.464-10.116-12.852s3.78-13.14 10.116-13.14c4.176 0 7.056 2.016 8.64 5.508l-2.448 1.476c-1.008-2.592-3.096-4.284-6.192-4.284-4.32 0-6.876 3.42-6.876 8.568v3.744c0 5.148 2.556 8.28 6.876 8.28 3.204 0 5.4-1.8 6.408-4.536l2.412 1.512c-1.584 3.528-4.644 5.724-8.82 5.724zm20.232 0c-4.968 0-8.388-3.816-8.388-9.72 0-5.904 3.42-9.72 8.388-9.72s8.388 3.816 8.388 9.72c0 5.904-3.42 9.72-8.388 9.72zm0-2.556c3.096 0 5.292-1.908 5.292-5.832v-2.664c0-3.924-2.196-5.832-5.292-5.832-3.096 0-5.292 1.908-5.292 5.832v2.664c0 3.924 2.196 5.832 5.292 5.832zm16.02 2.124h-2.88v-18.576h2.88v3.42h.18c.648-1.764 2.34-3.42 5.364-3.42h1.116v2.88h-1.692c-3.096 0-4.968 1.332-4.968 3.096V132zm10.332 7.2v-25.776h2.88v3.024h.144c.972-2.34 2.88-3.456 5.436-3.456 4.644 0 7.56 3.78 7.56 9.72 0 5.94-2.916 9.72-7.56 9.72-2.556 0-4.32-1.152-5.436-3.456h-.144V139.2h-2.88zm7.668-9.36c3.24 0 5.256-2.232 5.256-5.544v-3.168c0-3.312-2.016-5.544-5.256-5.544-2.628 0-4.788 1.512-4.788 3.564v6.912c0 2.412 2.16 3.78 4.788 3.78zm20.232 2.592c-4.968 0-8.388-3.816-8.388-9.72 0-5.904 3.42-9.72 8.388-9.72s8.388 3.816 8.388 9.72c0 5.904-3.42 9.72-8.388 9.72zm0-2.556c3.096 0 5.292-1.908 5.292-5.832v-2.664c0-3.924-2.196-5.832-5.292-5.832-3.096 0-5.292 1.908-5.292 5.832v2.664c0 3.924 2.196 5.832 5.292 5.832zm16.02 2.124h-2.88v-18.576h2.88v3.42h.18c.648-1.764 2.34-3.42 5.364-3.42h1.116v2.88h-1.692c-3.096 0-4.968 1.332-4.968 3.096V132zm25.308 0h-1.62c-2.124 0-2.988-1.296-3.204-3.024h-.18c-.792 2.268-2.772 3.456-5.364 3.456-3.924 0-6.228-2.16-6.228-5.616 0-3.492 2.52-5.436 7.92-5.436h3.672v-1.836c0-2.628-1.44-4.068-4.392-4.068-2.232 0-3.708 1.08-4.716 2.772l-1.728-1.62c1.008-1.98 3.24-3.636 6.588-3.636 4.464 0 7.128 2.34 7.128 6.264v10.224h2.124V132zm-9.9-2.016c2.844 0 4.896-1.476 4.896-3.384v-3.06h-3.816c-3.276 0-4.752 1.008-4.752 2.808v.756c0 1.836 1.44 2.88 3.672 2.88zM387.192 132h-3.6c-1.98 0-3.06-1.26-3.06-3.06v-12.996h-3.06v-2.52h1.728c1.224 0 1.62-.432 1.62-1.692v-3.456h2.592v5.148h4.068v2.52h-4.068v13.536h3.78V132zm11.772.432c-5.04 0-8.352-3.816-8.352-9.72 0-5.904 3.312-9.72 8.352-9.72 4.968 0 8.028 3.816 8.028 9.072v1.368h-13.356v.864c0 3.204 2.052 5.616 5.508 5.616 2.34 0 4.14-1.152 5.112-3.204l2.052 1.476c-1.188 2.52-3.852 4.248-7.344 4.248zm0-17.028c-3.132 0-5.328 2.376-5.328 5.616v.252h10.26v-.396c0-3.276-1.98-5.472-4.932-5.472zm28.62 17.028c-4.032 0-6.876-1.656-8.892-4.392l2.232-1.872c1.764 2.34 3.852 3.6 6.768 3.6 3.6 0 5.544-1.872 5.544-4.752 0-2.376-1.332-3.564-4.644-4.32l-2.052-.468c-4.572-1.044-7.092-3.06-7.092-6.912 0-4.464 3.384-6.876 8.316-6.876 3.78 0 6.444 1.44 8.316 4.104l-2.268 1.656c-1.368-1.908-3.276-3.096-6.192-3.096-3.204 0-5.184 1.404-5.184 4.104 0 2.376 1.548 3.456 4.716 4.176l2.052.468c4.896 1.116 7.02 3.276 7.02 7.02 0 4.608-3.24 7.56-8.64 7.56zm20.556 0c-5.04 0-8.352-3.816-8.352-9.72 0-5.904 3.312-9.72 8.352-9.72 4.968 0 8.028 3.816 8.028 9.072v1.368h-13.356v.864c0 3.204 2.052 5.616 5.508 5.616 2.34 0 4.14-1.152 5.112-3.204l2.052 1.476c-1.188 2.52-3.852 4.248-7.344 4.248zm0-17.028c-3.132 0-5.328 2.376-5.328 5.616v.252h10.26v-.396c0-3.276-1.98-5.472-4.932-5.472zM463.8 132h-2.88v-18.576h2.88v3.42h.18c.648-1.764 2.34-3.42 5.364-3.42h1.116v2.88h-1.692c-3.096 0-4.968 1.332-4.968 3.096V132zm18.144 0h-3.348l-6.516-18.576h2.88l3.24 9.216 2.016 6.336h.18l2.016-6.336 3.312-9.216h2.772L481.944 132zm11.7-22.932c-1.224 0-1.764-.648-1.764-1.62v-.468c0-.972.54-1.62 1.764-1.62s1.764.648 1.764 1.62v.468c0 .972-.54 1.62-1.764 1.62zM492.204 132v-18.576h2.88V132h-2.88zm15.912.432c-5.22 0-8.28-3.78-8.28-9.72 0-5.94 3.06-9.72 8.28-9.72 3.672 0 5.868 1.8 6.948 4.356l-2.412 1.224c-.684-1.908-2.268-3.024-4.536-3.024-3.42 0-5.184 2.34-5.184 5.58v3.168c0 3.24 1.764 5.58 5.184 5.58 2.34 0 4.032-1.116 5.04-3.24l2.088 1.404c-1.188 2.664-3.6 4.392-7.128 4.392zm17.964 0c-5.04 0-8.352-3.816-8.352-9.72 0-5.904 3.312-9.72 8.352-9.72 4.968 0 8.028 3.816 8.028 9.072v1.368h-13.356v.864c0 3.204 2.052 5.616 5.508 5.616 2.34 0 4.14-1.152 5.112-3.204l2.052 1.476c-1.188 2.52-3.852 4.248-7.344 4.248zm0-17.028c-3.132 0-5.328 2.376-5.328 5.616v.252h10.26v-.396c0-3.276-1.98-5.472-4.932-5.472zm30.42 17.028c-6.336 0-10.116-4.464-10.116-12.852s3.78-13.14 10.116-13.14c4.176 0 7.056 2.016 8.64 5.508l-2.448 1.476c-1.008-2.592-3.096-4.284-6.192-4.284-4.32 0-6.876 3.42-6.876 8.568v3.744c0 5.148 2.556 8.28 6.876 8.28 3.204 0 5.4-1.8 6.408-4.536l2.412 1.512c-1.584 3.528-4.644 5.724-8.82 5.724zm20.232 0c-4.968 0-8.388-3.816-8.388-9.72 0-5.904 3.42-9.72 8.388-9.72s8.388 3.816 8.388 9.72c0 5.904-3.42 9.72-8.388 9.72zm0-2.556c3.096 0 5.292-1.908 5.292-5.832v-2.664c0-3.924-2.196-5.832-5.292-5.832-3.096 0-5.292 1.908-5.292 5.832v2.664c0 3.924 2.196 5.832 5.292 5.832zm16.02 2.124h-2.88v-18.576h2.88v3.42h.18c.648-1.764 2.34-3.42 5.364-3.42h1.116v2.88h-1.692c-3.096 0-4.968 1.332-4.968 3.096V132zm10.332 7.2v-25.776h2.88v3.024h.144c.972-2.34 2.88-3.456 5.436-3.456 4.644 0 7.56 3.78 7.56 9.72 0 5.94-2.916 9.72-7.56 9.72-2.556 0-4.32-1.152-5.436-3.456h-.144V139.2h-2.88zm7.668-9.36c3.24 0 5.256-2.232 5.256-5.544v-3.168c0-3.312-2.016-5.544-5.256-5.544-2.628 0-4.788 1.512-4.788 3.564v6.912c0 2.412 2.16 3.78 4.788 3.78zm18.792 2.592c-3.42 0-5.688-1.44-7.344-3.636l2.052-1.656c1.44 1.8 3.168 2.844 5.508 2.844 2.448 0 3.888-1.116 3.888-3.024 0-1.44-.792-2.556-3.24-2.916l-1.476-.216c-3.42-.504-5.976-1.908-5.976-5.364 0-3.672 2.844-5.472 6.624-5.472 2.988 0 4.968 1.116 6.48 2.988l-1.908 1.728c-.828-1.152-2.412-2.268-4.788-2.268-2.376 0-3.636 1.116-3.636 2.88 0 1.8 1.26 2.52 3.564 2.88l1.44.216c4.104.612 5.688 2.412 5.688 5.22 0 3.6-2.628 5.796-6.876 5.796zm13.608-4.644c1.512 0 2.196.864 2.196 2.124v.504c0 1.944-1.224 4.608-3.276 6.372h-2.412c1.44-1.512 2.304-2.772 2.7-4.464-.972-.216-1.404-.936-1.404-1.908v-.504c0-1.26.684-2.124 2.196-2.124zM63.084 179l-4.968-18.576h2.808l1.98 8.028 1.98 8.136h.072l2.268-8.136 2.34-8.028h2.556l2.412 8.028 2.304 8.136h.072l1.908-8.136 2.016-8.028h2.7L78.6 179h-3.564l-2.592-8.928-1.62-5.652h-.072l-1.584 5.652L66.576 179h-3.492zm24.624 0v-26.64h2.88v11.088h.144c.9-2.088 2.484-3.456 5.256-3.456 3.816 0 6.228 2.592 6.228 7.092V179h-2.88v-11.412c0-3.312-1.44-5.004-4.212-5.004-2.304 0-4.536 1.152-4.536 3.528V179h-2.88zm21.888-22.932c-1.224 0-1.764-.648-1.764-1.62v-.468c0-.972.54-1.62 1.764-1.62s1.764.648 1.764 1.62v.468c0 .972-.54 1.62-1.764 1.62zM108.156 179v-18.576h2.88V179h-2.88zm15.912.432c-5.22 0-8.28-3.78-8.28-9.72 0-5.94 3.06-9.72 8.28-9.72 3.672 0 5.868 1.8 6.948 4.356l-2.412 1.224c-.684-1.908-2.268-3.024-4.536-3.024-3.42 0-5.184 2.34-5.184 5.58v3.168c0 3.24 1.764 5.58 5.184 5.58 2.34 0 4.032-1.116 5.04-3.24l2.088 1.404c-1.188 2.664-3.6 4.392-7.128 4.392zm11.196-.432v-26.64h2.88v11.088h.144c.9-2.088 2.484-3.456 5.256-3.456 3.816 0 6.228 2.592 6.228 7.092V179h-2.88v-11.412c0-3.312-1.44-5.004-4.212-5.004-2.304 0-4.536 1.152-4.536 3.528V179h-2.88zm28.944 0v-26.64h2.88v11.088h.144c.9-2.088 2.484-3.456 5.256-3.456 3.816 0 6.228 2.592 6.228 7.092V179h-2.88v-11.412c0-3.312-1.44-5.004-4.212-5.004-2.304 0-4.536 1.152-4.536 3.528V179h-2.88zm35.568 0h-1.62c-2.124 0-2.988-1.296-3.204-3.024h-.18c-.792 2.268-2.772 3.456-5.364 3.456-3.924 0-6.228-2.16-6.228-5.616 0-3.492 2.52-5.436 7.92-5.436h3.672v-1.836c0-2.628-1.44-4.068-4.392-4.068-2.232 0-3.708 1.08-4.716 2.772l-1.728-1.62c1.008-1.98 3.24-3.636 6.588-3.636 4.464 0 7.128 2.34 7.128 6.264v10.224h2.124V179zm-9.9-2.016c2.844 0 4.896-1.476 4.896-3.384v-3.06h-3.816c-3.276 0-4.752 1.008-4.752 2.808v.756c0 1.836 1.44 2.88 3.672 2.88zm19.584 2.448c-3.42 0-5.688-1.44-7.344-3.636l2.052-1.656c1.44 1.8 3.168 2.844 5.508 2.844 2.448 0 3.888-1.116 3.888-3.024 0-1.44-.792-2.556-3.24-2.916l-1.476-.216c-3.42-.504-5.976-1.908-5.976-5.364 0-3.672 2.844-5.472 6.624-5.472 2.988 0 4.968 1.116 6.48 2.988l-1.908 1.728c-.828-1.152-2.412-2.268-4.788-2.268-2.376 0-3.636 1.116-3.636 2.88 0 1.8 1.26 2.52 3.564 2.88l1.44.216c4.104.612 5.688 2.412 5.688 5.22 0 3.6-2.628 5.796-6.876 5.796zm20.448-.432v-26.64h2.88v11.088h.144c.972-2.34 2.88-3.456 5.436-3.456 4.644 0 7.56 3.78 7.56 9.72 0 5.94-2.916 9.72-7.56 9.72-2.556 0-4.32-1.152-5.436-3.456h-.144V179h-2.88zm7.668-2.16c3.24 0 5.256-2.232 5.256-5.544v-3.168c0-3.312-2.016-5.544-5.256-5.544-2.628 0-4.788 1.512-4.788 3.564v6.912c0 2.412 2.16 3.78 4.788 3.78zm20.196 2.592c-5.04 0-8.352-3.816-8.352-9.72 0-5.904 3.312-9.72 8.352-9.72 4.968 0 8.028 3.816 8.028 9.072v1.368h-13.356v.864c0 3.204 2.052 5.616 5.508 5.616 2.34 0 4.14-1.152 5.112-3.204l2.052 1.476c-1.188 2.52-3.852 4.248-7.344 4.248zm0-17.028c-3.132 0-5.328 2.376-5.328 5.616v.252h10.26v-.396c0-3.276-1.98-5.472-4.932-5.472zm19.764 17.028c-5.04 0-8.352-3.816-8.352-9.72 0-5.904 3.312-9.72 8.352-9.72 4.968 0 8.028 3.816 8.028 9.072v1.368h-13.356v.864c0 3.204 2.052 5.616 5.508 5.616 2.34 0 4.14-1.152 5.112-3.204l2.052 1.476c-1.188 2.52-3.852 4.248-7.344 4.248zm0-17.028c-3.132 0-5.328 2.376-5.328 5.616v.252h10.26v-.396c0-3.276-1.98-5.472-4.932-5.472zM293.196 179h-2.88v-18.576h2.88v3.024h.144c.9-2.088 2.484-3.456 5.256-3.456 3.816 0 6.228 2.592 6.228 7.092V179h-2.88v-11.412c0-3.312-1.44-5.004-4.212-5.004-2.304 0-4.536 1.152-4.536 3.528V179zm37.944 0v-3.024h-.144c-1.116 2.304-2.88 3.456-5.436 3.456-4.644 0-7.56-3.78-7.56-9.72 0-5.94 2.916-9.72 7.56-9.72 2.556 0 4.464 1.116 5.436 3.456h.144V152.36h2.88V179h-2.88zm-4.788-2.16c2.628 0 4.788-1.368 4.788-3.78v-6.912c0-2.052-2.16-3.564-4.788-3.564-3.24 0-5.256 2.232-5.256 5.544v3.168c0 3.312 2.016 5.544 5.256 5.544zm20.772 2.592c-5.04 0-8.352-3.816-8.352-9.72 0-5.904 3.312-9.72 8.352-9.72 4.968 0 8.028 3.816 8.028 9.072v1.368h-13.356v.864c0 3.204 2.052 5.616 5.508 5.616 2.34 0 4.14-1.152 5.112-3.204l2.052 1.476c-1.188 2.52-3.852 4.248-7.344 4.248zm0-17.028c-3.132 0-5.328 2.376-5.328 5.616v.252h10.26v-.396c0-3.276-1.98-5.472-4.932-5.472zm18.36 17.028c-3.42 0-5.688-1.44-7.344-3.636l2.052-1.656c1.44 1.8 3.168 2.844 5.508 2.844 2.448 0 3.888-1.116 3.888-3.024 0-1.44-.792-2.556-3.24-2.916l-1.476-.216c-3.42-.504-5.976-1.908-5.976-5.364 0-3.672 2.844-5.472 6.624-5.472 2.988 0 4.968 1.116 6.48 2.988l-1.908 1.728c-.828-1.152-2.412-2.268-4.788-2.268-2.376 0-3.636 1.116-3.636 2.88 0 1.8 1.26 2.52 3.564 2.88l1.44.216c4.104.612 5.688 2.412 5.688 5.22 0 3.6-2.628 5.796-6.876 5.796zm18.864 0c-5.22 0-8.28-3.78-8.28-9.72 0-5.94 3.06-9.72 8.28-9.72 3.672 0 5.868 1.8 6.948 4.356l-2.412 1.224c-.684-1.908-2.268-3.024-4.536-3.024-3.42 0-5.184 2.34-5.184 5.58v3.168c0 3.24 1.764 5.58 5.184 5.58 2.34 0 4.032-1.116 5.04-3.24l2.088 1.404c-1.188 2.664-3.6 4.392-7.128 4.392zm14.076-.432h-2.88v-18.576h2.88v3.42h.18c.648-1.764 2.34-3.42 5.364-3.42h1.116v2.88h-1.692c-3.096 0-4.968 1.332-4.968 3.096V179zm11.772-22.932c-1.224 0-1.764-.648-1.764-1.62v-.468c0-.972.54-1.62 1.764-1.62s1.764.648 1.764 1.62v.468c0 .972-.54 1.62-1.764 1.62zM408.756 179v-18.576h2.88V179h-2.88zm9 0v-26.64h2.88v11.088h.144c.972-2.34 2.88-3.456 5.436-3.456 4.644 0 7.56 3.78 7.56 9.72 0 5.94-2.916 9.72-7.56 9.72-2.556 0-4.32-1.152-5.436-3.456h-.144V179h-2.88zm7.668-2.16c3.24 0 5.256-2.232 5.256-5.544v-3.168c0-3.312-2.016-5.544-5.256-5.544-2.628 0-4.788 1.512-4.788 3.564v6.912c0 2.412 2.16 3.78 4.788 3.78zm20.196 2.592c-5.04 0-8.352-3.816-8.352-9.72 0-5.904 3.312-9.72 8.352-9.72 4.968 0 8.028 3.816 8.028 9.072v1.368h-13.356v.864c0 3.204 2.052 5.616 5.508 5.616 2.34 0 4.14-1.152 5.112-3.204l2.052 1.476c-1.188 2.52-3.852 4.248-7.344 4.248zm0-17.028c-3.132 0-5.328 2.376-5.328 5.616v.252h10.26v-.396c0-3.276-1.98-5.472-4.932-5.472zM470.28 179v-3.024h-.144c-1.116 2.304-2.88 3.456-5.436 3.456-4.644 0-7.56-3.78-7.56-9.72 0-5.94 2.916-9.72 7.56-9.72 2.556 0 4.464 1.116 5.436 3.456h.144V152.36h2.88V179h-2.88zm-4.788-2.16c2.628 0 4.788-1.368 4.788-3.78v-6.912c0-2.052-2.16-3.564-4.788-3.564-3.24 0-5.256 2.232-5.256 5.544v3.168c0 3.312 2.016 5.544 5.256 5.544zm37.404 2.16h-1.62c-2.124 0-2.988-1.296-3.204-3.024h-.18c-.792 2.268-2.772 3.456-5.364 3.456-3.924 0-6.228-2.16-6.228-5.616 0-3.492 2.52-5.436 7.92-5.436h3.672v-1.836c0-2.628-1.44-4.068-4.392-4.068-2.232 0-3.708 1.08-4.716 2.772l-1.728-1.62c1.008-1.98 3.24-3.636 6.588-3.636 4.464 0 7.128 2.34 7.128 6.264v10.224h2.124V179zm-9.9-2.016c2.844 0 4.896-1.476 4.896-3.384v-3.06h-3.816c-3.276 0-4.752 1.008-4.752 2.808v.756c0 1.836 1.44 2.88 3.672 2.88zm19.584 2.448c-3.42 0-5.688-1.44-7.344-3.636l2.052-1.656c1.44 1.8 3.168 2.844 5.508 2.844 2.448 0 3.888-1.116 3.888-3.024 0-1.44-.792-2.556-3.24-2.916l-1.476-.216c-3.42-.504-5.976-1.908-5.976-5.364 0-3.672 2.844-5.472 6.624-5.472 2.988 0 4.968 1.116 6.48 2.988l-1.908 1.728c-.828-1.152-2.412-2.268-4.788-2.268-2.376 0-3.636 1.116-3.636 2.88 0 1.8 1.26 2.52 3.564 2.88l1.44.216c4.104.612 5.688 2.412 5.688 5.22 0 3.6-2.628 5.796-6.876 5.796zm28.152-.432h-3.6c-1.98 0-3.06-1.26-3.06-3.06v-12.996h-3.06v-2.52h1.728c1.224 0 1.62-.432 1.62-1.692v-3.456h2.592v5.148h4.068v2.52h-4.068v13.536h3.78V179zm4.932 0v-26.64h2.88v11.088h.144c.9-2.088 2.484-3.456 5.256-3.456 3.816 0 6.228 2.592 6.228 7.092V179h-2.88v-11.412c0-3.312-1.44-5.004-4.212-5.004-2.304 0-4.536 1.152-4.536 3.528V179h-2.88zm27.432.432c-5.04 0-8.352-3.816-8.352-9.72 0-5.904 3.312-9.72 8.352-9.72 4.968 0 8.028 3.816 8.028 9.072v1.368h-13.356v.864c0 3.204 2.052 5.616 5.508 5.616 2.34 0 4.14-1.152 5.112-3.204l2.052 1.476c-1.188 2.52-3.852 4.248-7.344 4.248zm0-17.028c-3.132 0-5.328 2.376-5.328 5.616v.252h10.26v-.396c0-3.276-1.98-5.472-4.932-5.472zm28.188 17.028c-5.22 0-8.28-3.78-8.28-9.72 0-5.94 3.06-9.72 8.28-9.72 3.672 0 5.868 1.8 6.948 4.356l-2.412 1.224c-.684-1.908-2.268-3.024-4.536-3.024-3.42 0-5.184 2.34-5.184 5.58v3.168c0 3.24 1.764 5.58 5.184 5.58 2.34 0 4.032-1.116 5.04-3.24l2.088 1.404c-1.188 2.664-3.6 4.392-7.128 4.392zm18 0c-4.968 0-8.388-3.816-8.388-9.72 0-5.904 3.42-9.72 8.388-9.72s8.388 3.816 8.388 9.72c0 5.904-3.42 9.72-8.388 9.72zm0-2.556c3.096 0 5.292-1.908 5.292-5.832v-2.664c0-3.924-2.196-5.832-5.292-5.832-3.096 0-5.292 1.908-5.292 5.832v2.664c0 3.924 2.196 5.832 5.292 5.832zm16.02 2.124h-2.88v-18.576h2.88v3.42h.18c.648-1.764 2.34-3.42 5.364-3.42h1.116v2.88h-1.692c-3.096 0-4.968 1.332-4.968 3.096V179zm10.332 7.2v-25.776h2.88v3.024h.144c.972-2.34 2.88-3.456 5.436-3.456 4.644 0 7.56 3.78 7.56 9.72 0 5.94-2.916 9.72-7.56 9.72-2.556 0-4.32-1.152-5.436-3.456h-.144V186.2h-2.88zm7.668-9.36c3.24 0 5.256-2.232 5.256-5.544v-3.168c0-3.312-2.016-5.544-5.256-5.544-2.628 0-4.788 1.512-4.788 3.564v6.912c0 2.412 2.16 3.78 4.788 3.78zm20.232 2.592c-4.968 0-8.388-3.816-8.388-9.72 0-5.904 3.42-9.72 8.388-9.72s8.388 3.816 8.388 9.72c0 5.904-3.42 9.72-8.388 9.72zm0-2.556c3.096 0 5.292-1.908 5.292-5.832v-2.664c0-3.924-2.196-5.832-5.292-5.832-3.096 0-5.292 1.908-5.292 5.832v2.664c0 3.924 2.196 5.832 5.292 5.832zm22.32-7.272h-9.396v-3.096h9.396v3.096zM62.94 226h-2.88v-18.576h2.88v3.42h.18c.648-1.764 2.34-3.42 5.364-3.42H69.6v2.88h-1.692c-3.096 0-4.968 1.332-4.968 3.096V226zm25.308 0h-1.62c-2.124 0-2.988-1.296-3.204-3.024h-.18c-.792 2.268-2.772 3.456-5.364 3.456-3.924 0-6.228-2.16-6.228-5.616 0-3.492 2.52-5.436 7.92-5.436h3.672v-1.836c0-2.628-1.44-4.068-4.392-4.068-2.232 0-3.708 1.08-4.716 2.772l-1.728-1.62c1.008-1.98 3.24-3.636 6.588-3.636 4.464 0 7.128 2.34 7.128 6.264v10.224h2.124V226zm-9.9-2.016c2.844 0 4.896-1.476 4.896-3.384v-3.06h-3.816c-3.276 0-4.752 1.008-4.752 2.808v.756c0 1.836 1.44 2.88 3.672 2.88zM100.056 226h-3.6c-1.98 0-3.06-1.26-3.06-3.06v-12.996h-3.06v-2.52h1.728c1.224 0 1.62-.432 1.62-1.692v-3.456h2.592v5.148h4.068v2.52h-4.068v13.536h3.78V226zm11.772.432c-5.04 0-8.352-3.816-8.352-9.72 0-5.904 3.312-9.72 8.352-9.72 4.968 0 8.028 3.816 8.028 9.072v1.368H106.5v.864c0 3.204 2.052 5.616 5.508 5.616 2.34 0 4.14-1.152 5.112-3.204l2.052 1.476c-1.188 2.52-3.852 4.248-7.344 4.248zm0-17.028c-3.132 0-5.328 2.376-5.328 5.616v.252h10.26v-.396c0-3.276-1.98-5.472-4.932-5.472zm28.26 17.028c-5.04 0-8.352-3.816-8.352-9.72 0-5.904 3.312-9.72 8.352-9.72 4.968 0 8.028 3.816 8.028 9.072v1.368H134.76v.864c0 3.204 2.052 5.616 5.508 5.616 2.34 0 4.14-1.152 5.112-3.204l2.052 1.476c-1.188 2.52-3.852 4.248-7.344 4.248zm0-17.028c-3.132 0-5.328 2.376-5.328 5.616v.252h10.26v-.396c0-3.276-1.98-5.472-4.932-5.472zm24.66 23.796v-10.224h-.144c-1.116 2.304-2.88 3.456-5.436 3.456-4.644 0-7.56-3.78-7.56-9.72 0-5.94 2.916-9.72 7.56-9.72 2.556 0 4.464 1.116 5.436 3.456h.144v-3.024h2.88V233.2h-2.88zm-4.788-9.36c2.628 0 4.788-1.368 4.788-3.78v-6.912c0-2.052-2.16-3.564-4.788-3.564-3.24 0-5.256 2.232-5.256 5.544v3.168c0 3.312 2.016 5.544 5.256 5.544zm25.236 2.16v-3.024h-.144c-.72 1.764-2.124 3.456-5.22 3.456-3.816 0-6.264-2.592-6.264-7.092v-11.916h2.88v11.412c0 3.312 1.476 5.004 4.248 5.004 2.268 0 4.5-1.116 4.5-3.564v-12.852h2.88V226h-2.88zm10.44-22.932c-1.224 0-1.764-.648-1.764-1.62v-.468c0-.972.54-1.62 1.764-1.62s1.764.648 1.764 1.62v.468c0 .972-.54 1.62-1.764 1.62zM194.196 226v-18.576h2.88V226h-2.88zm16.452 0H207.3l-6.516-18.576h2.88l3.24 9.216 2.016 6.336h.18l2.016-6.336 3.312-9.216h2.772L210.648 226zm25.056 0h-1.62c-2.124 0-2.988-1.296-3.204-3.024h-.18c-.792 2.268-2.772 3.456-5.364 3.456-3.924 0-6.228-2.16-6.228-5.616 0-3.492 2.52-5.436 7.92-5.436h3.672v-1.836c0-2.628-1.44-4.068-4.392-4.068-2.232 0-3.708 1.08-4.716 2.772l-1.728-1.62c1.008-1.98 3.24-3.636 6.588-3.636 4.464 0 7.128 2.34 7.128 6.264v10.224h2.124V226zm-9.9-2.016c2.844 0 4.896-1.476 4.896-3.384v-3.06h-3.816c-3.276 0-4.752 1.008-4.752 2.808v.756c0 1.836 1.44 2.88 3.672 2.88zm19.62 2.016h-2.556c-1.98 0-3.06-1.26-3.06-2.988V199.36h2.88v24.12h2.736V226zm11.16.432c-5.04 0-8.352-3.816-8.352-9.72 0-5.904 3.312-9.72 8.352-9.72 4.968 0 8.028 3.816 8.028 9.072v1.368h-13.356v.864c0 3.204 2.052 5.616 5.508 5.616 2.34 0 4.14-1.152 5.112-3.204l2.052 1.476c-1.188 2.52-3.852 4.248-7.344 4.248zm0-17.028c-3.132 0-5.328 2.376-5.328 5.616v.252h10.26v-.396c0-3.276-1.98-5.472-4.932-5.472zM272.244 226h-2.88v-18.576h2.88v3.024h.144c.9-2.088 2.484-3.456 5.256-3.456 3.816 0 6.228 2.592 6.228 7.092V226h-2.88v-11.412c0-3.312-1.44-5.004-4.212-5.004-2.304 0-4.536 1.152-4.536 3.528V226zm25.272 0h-3.6c-1.98 0-3.06-1.26-3.06-3.06v-12.996h-3.06v-2.52h1.728c1.224 0 1.62-.432 1.62-1.692v-3.456h2.592v5.148h4.068v2.52h-4.068v13.536h3.78V226zm20.448.432c-4.968 0-8.388-3.816-8.388-9.72 0-5.904 3.42-9.72 8.388-9.72s8.388 3.816 8.388 9.72c0 5.904-3.42 9.72-8.388 9.72zm0-2.556c3.096 0 5.292-1.908 5.292-5.832v-2.664c0-3.924-2.196-5.832-5.292-5.832-3.096 0-5.292 1.908-5.292 5.832v2.664c0 3.924 2.196 5.832 5.292 5.832zM331.896 226v-16.056h-3.024v-2.52h3.024v-3.744c0-2.556 1.332-4.32 4.068-4.32h2.808v2.52h-3.996v5.544h3.996v2.52h-3.996V226h-2.88zm26.856 0h-3.6c-1.98 0-3.06-1.26-3.06-3.06v-12.996h-3.06v-2.52h1.728c1.224 0 1.62-.432 1.62-1.692v-3.456h2.592v5.148h4.068v2.52h-4.068v13.536h3.78V226zm4.932 0v-26.64h2.88v11.088h.144c.9-2.088 2.484-3.456 5.256-3.456 3.816 0 6.228 2.592 6.228 7.092V226h-2.88v-11.412c0-3.312-1.44-5.004-4.212-5.004-2.304 0-4.536 1.152-4.536 3.528V226h-2.88zm27.432.432c-5.04 0-8.352-3.816-8.352-9.72 0-5.904 3.312-9.72 8.352-9.72 4.968 0 8.028 3.816 8.028 9.072v1.368h-13.356v.864c0 3.204 2.052 5.616 5.508 5.616 2.34 0 4.14-1.152 5.112-3.204l2.052 1.476c-1.188 2.52-3.852 4.248-7.344 4.248zm0-17.028c-3.132 0-5.328 2.376-5.328 5.616v.252h10.26v-.396c0-3.276-1.98-5.472-4.932-5.472zM415.704 226h-3.024v-25.128h10.008c4.5 0 7.02 2.772 7.02 7.2 0 4.428-2.52 7.2-7.02 7.2h-6.984V226zm0-22.464v9.072h6.984c2.376 0 3.78-1.296 3.78-3.6v-1.872c0-2.304-1.404-3.6-3.78-3.6h-6.984zm24.768 22.896c-5.04 0-8.352-3.816-8.352-9.72 0-5.904 3.312-9.72 8.352-9.72 4.968 0 8.028 3.816 8.028 9.072v1.368h-13.356v.864c0 3.204 2.052 5.616 5.508 5.616 2.34 0 4.14-1.152 5.112-3.204l2.052 1.476c-1.188 2.52-3.852 4.248-7.344 4.248zm0-17.028c-3.132 0-5.328 2.376-5.328 5.616v.252h10.26v-.396c0-3.276-1.98-5.472-4.932-5.472zm27.9 16.596h-1.62c-2.124 0-2.988-1.296-3.204-3.024h-.18c-.792 2.268-2.772 3.456-5.364 3.456-3.924 0-6.228-2.16-6.228-5.616 0-3.492 2.52-5.436 7.92-5.436h3.672v-1.836c0-2.628-1.44-4.068-4.392-4.068-2.232 0-3.708 1.08-4.716 2.772l-1.728-1.62c1.008-1.98 3.24-3.636 6.588-3.636 4.464 0 7.128 2.34 7.128 6.264v10.224h2.124V226zm-9.9-2.016c2.844 0 4.896-1.476 4.896-3.384v-3.06h-3.816c-3.276 0-4.752 1.008-4.752 2.808v.756c0 1.836 1.44 2.88 3.672 2.88zm20.916 2.448c-5.22 0-8.28-3.78-8.28-9.72 0-5.94 3.06-9.72 8.28-9.72 3.672 0 5.868 1.8 6.948 4.356l-2.412 1.224c-.684-1.908-2.268-3.024-4.536-3.024-3.42 0-5.184 2.34-5.184 5.58v3.168c0 3.24 1.764 5.58 5.184 5.58 2.34 0 4.032-1.116 5.04-3.24l2.088 1.404c-1.188 2.664-3.6 4.392-7.128 4.392zm17.964 0c-5.04 0-8.352-3.816-8.352-9.72 0-5.904 3.312-9.72 8.352-9.72 4.968 0 8.028 3.816 8.028 9.072v1.368h-13.356v.864c0 3.204 2.052 5.616 5.508 5.616 2.34 0 4.14-1.152 5.112-3.204l2.052 1.476c-1.188 2.52-3.852 4.248-7.344 4.248zm0-17.028c-3.132 0-5.328 2.376-5.328 5.616v.252h10.26v-.396c0-3.276-1.98-5.472-4.932-5.472zm30.42 17.028c-6.336 0-10.116-4.464-10.116-12.852s3.78-13.14 10.116-13.14c4.176 0 7.056 2.016 8.64 5.508l-2.448 1.476c-1.008-2.592-3.096-4.284-6.192-4.284-4.32 0-6.876 3.42-6.876 8.568v3.744c0 5.148 2.556 8.28 6.876 8.28 3.204 0 5.4-1.8 6.408-4.536l2.412 1.512c-1.584 3.528-4.644 5.724-8.82 5.724zm20.232 0c-4.968 0-8.388-3.816-8.388-9.72 0-5.904 3.42-9.72 8.388-9.72s8.388 3.816 8.388 9.72c0 5.904-3.42 9.72-8.388 9.72zm0-2.556c3.096 0 5.292-1.908 5.292-5.832v-2.664c0-3.924-2.196-5.832-5.292-5.832-3.096 0-5.292 1.908-5.292 5.832v2.664c0 3.924 2.196 5.832 5.292 5.832zm16.02 2.124h-2.88v-18.576h2.88v3.42h.18c.648-1.764 2.34-3.42 5.364-3.42h1.116v2.88h-1.692c-3.096 0-4.968 1.332-4.968 3.096V226zm10.332 7.2v-25.776h2.88v3.024h.144c.972-2.34 2.88-3.456 5.436-3.456 4.644 0 7.56 3.78 7.56 9.72 0 5.94-2.916 9.72-7.56 9.72-2.556 0-4.32-1.152-5.436-3.456h-.144V233.2h-2.88zm7.668-9.36c3.24 0 5.256-2.232 5.256-5.544v-3.168c0-3.312-2.016-5.544-5.256-5.544-2.628 0-4.788 1.512-4.788 3.564v6.912c0 2.412 2.16 3.78 4.788 3.78zm18.792 2.592c-3.42 0-5.688-1.44-7.344-3.636l2.052-1.656c1.44 1.8 3.168 2.844 5.508 2.844 2.448 0 3.888-1.116 3.888-3.024 0-1.44-.792-2.556-3.24-2.916l-1.476-.216c-3.42-.504-5.976-1.908-5.976-5.364 0-3.672 2.844-5.472 6.624-5.472 2.988 0 4.968 1.116 6.48 2.988l-1.908 1.728c-.828-1.152-2.412-2.268-4.788-2.268-2.376 0-3.636 1.116-3.636 2.88 0 1.8 1.26 2.52 3.564 2.88l1.44.216c4.104.612 5.688 2.412 5.688 5.22 0 3.6-2.628 5.796-6.876 5.796zm13.608 0c-1.512 0-2.196-.864-2.196-2.088v-.468c0-1.224.684-2.088 2.196-2.088s2.196.864 2.196 2.088v.468c0 1.224-.684 2.088-2.196 2.088z" fill="#3D3D3D"/><path fill="#F3F3F3" d="M41 265h332v120H41zm348 0h332v120H389z"/><path d="M64.7 287.264h-3.108V296h-1.176v-8.736h-3.108v-1.036H64.7v1.036zM66.198 296v-10.36h1.12v4.312h.056c.35-.812.966-1.344 2.044-1.344 1.484 0 2.422 1.008 2.422 2.758V296h-1.12v-4.438c0-1.288-.56-1.946-1.638-1.946-.896 0-1.764.448-1.764 1.372V296h-1.12zm10.668.168c-1.96 0-3.248-1.484-3.248-3.78s1.288-3.78 3.248-3.78c1.932 0 3.122 1.484 3.122 3.528v.532h-5.194v.336c0 1.246.798 2.184 2.142 2.184.91 0 1.61-.448 1.988-1.246l.798.574c-.462.98-1.498 1.652-2.856 1.652zm0-6.622c-1.218 0-2.072.924-2.072 2.184v.098h3.99v-.154c0-1.274-.77-2.128-1.918-2.128zm10.962 6.622c-2.03 0-3.22-1.47-3.22-3.78 0-2.31 1.19-3.78 3.22-3.78 1.428 0 2.282.7 2.702 1.694l-.938.476c-.266-.742-.882-1.176-1.764-1.176-1.33 0-2.016.91-2.016 2.17v1.232c0 1.26.686 2.17 2.016 2.17.91 0 1.568-.434 1.96-1.26l.812.546c-.462 1.036-1.4 1.708-2.772 1.708zm7 0c-1.932 0-3.262-1.484-3.262-3.78s1.33-3.78 3.262-3.78 3.262 1.484 3.262 3.78-1.33 3.78-3.262 3.78zm0-.994c1.204 0 2.058-.742 2.058-2.268v-1.036c0-1.526-.854-2.268-2.058-2.268-1.204 0-2.058.742-2.058 2.268v1.036c0 1.526.854 2.268 2.058 2.268zm6.23.826h-1.12v-7.224h1.12v1.176h.056c.322-.742.826-1.344 1.946-1.344.952 0 1.82.434 2.212 1.47h.028c.266-.784.966-1.47 2.198-1.47 1.47 0 2.352 1.008 2.352 2.758V296h-1.12v-4.438c0-1.274-.49-1.946-1.582-1.946-.882 0-1.694.448-1.694 1.372V296h-1.12v-4.438c0-1.288-.49-1.946-1.554-1.946-.882 0-1.722.448-1.722 1.372V296zm11.102 2.8v-10.024h1.12v1.176h.056c.378-.91 1.12-1.344 2.114-1.344 1.806 0 2.94 1.47 2.94 3.78 0 2.31-1.134 3.78-2.94 3.78-.994 0-1.68-.448-2.114-1.344h-.056v3.976h-1.12zm2.982-3.64c1.26 0 2.044-.868 2.044-2.156v-1.232c0-1.288-.784-2.156-2.044-2.156-1.022 0-1.862.588-1.862 1.386v2.688c0 .938.84 1.47 1.862 1.47zm11.018.84h-.63c-.826 0-1.162-.504-1.246-1.176h-.07c-.308.882-1.078 1.344-2.086 1.344-1.526 0-2.422-.84-2.422-2.184 0-1.358.98-2.114 3.08-2.114h1.428v-.714c0-1.022-.56-1.582-1.708-1.582-.868 0-1.442.42-1.834 1.078l-.672-.63c.392-.77 1.26-1.414 2.562-1.414 1.736 0 2.772.91 2.772 2.436v3.976h.826v.98zm-3.85-.784c1.106 0 1.904-.574 1.904-1.316v-1.19h-1.484c-1.274 0-1.848.392-1.848 1.092v.294c0 .714.56 1.12 1.428 1.12zm6.566.784h-1.12v-7.224h1.12v1.176h.056c.35-.812.966-1.344 2.044-1.344 1.484 0 2.422 1.008 2.422 2.758V296h-1.12v-4.438c0-1.288-.56-1.946-1.638-1.946-.896 0-1.764.448-1.764 1.372V296zm9.422-2.31l1.75-4.914h1.106l-3.234 8.904c-.322.868-.616 1.12-1.68 1.12h-.574v-.98h1.134l.546-1.54-2.702-7.504h1.12l1.736 4.914.336 1.176h.07l.392-1.176zm13.468 2.31h-.63c-.826 0-1.162-.504-1.246-1.176h-.07c-.308.882-1.078 1.344-2.086 1.344-1.526 0-2.422-.84-2.422-2.184 0-1.358.98-2.114 3.08-2.114h1.428v-.714c0-1.022-.56-1.582-1.708-1.582-.868 0-1.442.42-1.834 1.078l-.672-.63c.392-.77 1.26-1.414 2.562-1.414 1.736 0 2.772.91 2.772 2.436v3.976h.826v.98zm-3.85-.784c1.106 0 1.904-.574 1.904-1.316v-1.19h-1.484c-1.274 0-1.848.392-1.848 1.092v.294c0 .714.56 1.12 1.428 1.12zm7.63.784h-.994c-.77 0-1.19-.49-1.19-1.162v-9.198h1.12v9.38h1.064v.98zm3.794.168c-1.33 0-2.212-.56-2.856-1.414l.798-.644c.56.7 1.232 1.106 2.142 1.106.952 0 1.512-.434 1.512-1.176 0-.56-.308-.994-1.26-1.134l-.574-.084c-1.33-.196-2.324-.742-2.324-2.086 0-1.428 1.106-2.128 2.576-2.128 1.162 0 1.932.434 2.52 1.162l-.742.672c-.322-.448-.938-.882-1.862-.882-.924 0-1.414.434-1.414 1.12 0 .7.49.98 1.386 1.12l.56.084c1.596.238 2.212.938 2.212 2.03 0 1.4-1.022 2.254-2.674 2.254zm7.378 0c-1.932 0-3.262-1.484-3.262-3.78s1.33-3.78 3.262-3.78 3.262 1.484 3.262 3.78-1.33 3.78-3.262 3.78zm0-.994c1.204 0 2.058-.742 2.058-2.268v-1.036c0-1.526-.854-2.268-2.058-2.268-1.204 0-2.058.742-2.058 2.268v1.036c0 1.526.854 2.268 2.058 2.268zm10.584.994c-1.33 0-2.212-.56-2.856-1.414l.798-.644c.56.7 1.232 1.106 2.142 1.106.952 0 1.512-.434 1.512-1.176 0-.56-.308-.994-1.26-1.134l-.574-.084c-1.33-.196-2.324-.742-2.324-2.086 0-1.428 1.106-2.128 2.576-2.128 1.162 0 1.932.434 2.52 1.162l-.742.672c-.322-.448-.938-.882-1.862-.882-.924 0-1.414.434-1.414 1.12 0 .7.49.98 1.386 1.12l.56.084c1.596.238 2.212.938 2.212 2.03 0 1.4-1.022 2.254-2.674 2.254zm7.364 0c-1.96 0-3.248-1.484-3.248-3.78s1.288-3.78 3.248-3.78c1.932 0 3.122 1.484 3.122 3.528v.532h-5.194v.336c0 1.246.798 2.184 2.142 2.184.91 0 1.61-.448 1.988-1.246l.798.574c-.462.98-1.498 1.652-2.856 1.652zm0-6.622c-1.218 0-2.072.924-2.072 2.184v.098h3.99v-.154c0-1.274-.77-2.128-1.918-2.128zM191.82 296h-.994c-.77 0-1.19-.49-1.19-1.162v-9.198h1.12v9.38h1.064v.98zm4.34.168c-1.96 0-3.248-1.484-3.248-3.78s1.288-3.78 3.248-3.78c1.932 0 3.122 1.484 3.122 3.528v.532h-5.194v.336c0 1.246.798 2.184 2.142 2.184.91 0 1.61-.448 1.988-1.246l.798.574c-.462.98-1.498 1.652-2.856 1.652zm0-6.622c-1.218 0-2.072.924-2.072 2.184v.098h3.99v-.154c0-1.274-.77-2.128-1.918-2.128zm7.658 6.622c-2.03 0-3.22-1.47-3.22-3.78 0-2.31 1.19-3.78 3.22-3.78 1.428 0 2.282.7 2.702 1.694l-.938.476c-.266-.742-.882-1.176-1.764-1.176-1.33 0-2.016.91-2.016 2.17v1.232c0 1.26.686 2.17 2.016 2.17.91 0 1.568-.434 1.96-1.26l.812.546c-.462 1.036-1.4 1.708-2.772 1.708zm7.35-.168h-1.4c-.77 0-1.19-.49-1.19-1.19v-5.054h-1.19v-.98h.672c.476 0 .63-.168.63-.658v-1.344h1.008v2.002h1.582v.98h-1.582v5.264h1.47v.98zm4.088.168c-1.33 0-2.212-.56-2.856-1.414l.798-.644c.56.7 1.232 1.106 2.142 1.106.952 0 1.512-.434 1.512-1.176 0-.56-.308-.994-1.26-1.134l-.574-.084c-1.33-.196-2.324-.742-2.324-2.086 0-1.428 1.106-2.128 2.576-2.128 1.162 0 1.932.434 2.52 1.162l-.742.672c-.322-.448-.938-.882-1.862-.882-.924 0-1.414.434-1.414 1.12 0 .7.49.98 1.386 1.12l.56.084c1.596.238 2.212.938 2.212 2.03 0 1.4-1.022 2.254-2.674 2.254zm13.734-9.94v1.036h-4.284l-.28 3.724h.098c.462-.658.98-1.078 2.002-1.078 1.68 0 2.912 1.134 2.912 3.024 0 1.904-1.232 3.234-3.29 3.234-1.624 0-2.464-.826-3.052-1.666l.882-.672c.504.77.994 1.288 2.17 1.288 1.33 0 2.044-.742 2.044-2.03v-.14c0-1.288-.714-2.03-2.044-2.03-.896 0-1.344.378-1.75.826l-.994-.14.35-5.376h5.236zm5.628 9.94c-2.338 0-3.36-1.862-3.36-5.054s1.022-5.054 3.36-5.054 3.36 1.862 3.36 5.054-1.022 5.054-3.36 5.054zm0-1.022c1.526 0 2.128-1.344 2.128-3.234v-1.596c0-1.89-.602-3.234-2.128-3.234-1.526 0-2.128 1.344-2.128 3.234v1.596c0 1.89.602 3.234 2.128 3.234zm8.4 1.022c-2.338 0-3.36-1.862-3.36-5.054s1.022-5.054 3.36-5.054 3.36 1.862 3.36 5.054-1.022 5.054-3.36 5.054zm0-1.022c1.526 0 2.128-1.344 2.128-3.234v-1.596c0-1.89-.602-3.234-2.128-3.234-1.526 0-2.128 1.344-2.128 3.234v1.596c0 1.89.602 3.234 2.128 3.234zm12.264.854h-3.92v-.98h1.372v-7.812h-1.372v-.98h3.92v.98h-1.372v7.812h1.372v.98zm2.142 0v-9.772h4.018c1.61 0 2.604.994 2.604 2.52 0 1.456-.938 1.974-1.582 2.072v.084c.7.042 1.918.644 1.918 2.268 0 1.61-1.078 2.828-2.52 2.828h-4.438zm1.176-4.536v3.5h2.898c1.008 0 1.624-.532 1.624-1.512v-.476c0-.98-.616-1.512-1.624-1.512H258.6zm0-4.2v3.192h2.702c.924 0 1.484-.49 1.484-1.358v-.476c0-.868-.56-1.358-1.484-1.358H258.6zm7.966 8.736v-9.772h1.568l2.8 5.264h.07l2.814-5.264h1.512V296h-1.148v-8.232h-.07l-.826 1.638-2.338 4.256-2.338-4.256-.826-1.638h-.07V296h-1.148zm13.972.168c-1.96 0-3.248-1.484-3.248-3.78s1.288-3.78 3.248-3.78c1.932 0 3.122 1.484 3.122 3.528v.532h-5.194v.336c0 1.246.798 2.184 2.142 2.184.91 0 1.61-.448 1.988-1.246l.798.574c-.462.98-1.498 1.652-2.856 1.652zm0-6.622c-1.218 0-2.072.924-2.072 2.184v.098h3.99v-.154c0-1.274-.77-2.128-1.918-2.128zm6.09 6.454h-1.12v-7.224h1.12v1.33h.07c.252-.686.91-1.33 2.086-1.33h.434v1.12h-.658c-1.204 0-1.932.518-1.932 1.204v4.9zm6.188.168c-1.33 0-2.212-.56-2.856-1.414l.798-.644c.56.7 1.232 1.106 2.142 1.106.952 0 1.512-.434 1.512-1.176 0-.56-.308-.994-1.26-1.134l-.574-.084c-1.33-.196-2.324-.742-2.324-2.086 0-1.428 1.106-2.128 2.576-2.128 1.162 0 1.932.434 2.52 1.162l-.742.672c-.322-.448-.938-.882-1.862-.882-.924 0-1.414.434-1.414 1.12 0 .7.49.98 1.386 1.12l.56.084c1.596.238 2.212.938 2.212 2.03 0 1.4-1.022 2.254-2.674 2.254zm8.344-.168v-6.244h-1.176v-.98h1.176v-1.456c0-.994.518-1.68 1.582-1.68h1.092v.98h-1.554v2.156h1.554v.98h-1.554V296h-1.12zm6.818.168c-1.932 0-3.262-1.484-3.262-3.78s1.33-3.78 3.262-3.78 3.262 1.484 3.262 3.78-1.33 3.78-3.262 3.78zm0-.994c1.204 0 2.058-.742 2.058-2.268v-1.036c0-1.526-.854-2.268-2.058-2.268-1.204 0-2.058.742-2.058 2.268v1.036c0 1.526.854 2.268 2.058 2.268zm6.23.826h-1.12v-7.224h1.12v1.33h.07c.252-.686.91-1.33 2.086-1.33h.434v1.12h-.658c-1.204 0-1.932.518-1.932 1.204v4.9zM61.186 316h-1.4c-.77 0-1.19-.49-1.19-1.19v-5.054h-1.19v-.98h.672c.476 0 .63-.168.63-.658v-1.344h1.008v2.002h1.582v.98h-1.582v5.264h1.47v.98zm1.918 0v-10.36h1.12v4.312h.056c.35-.812.966-1.344 2.044-1.344 1.484 0 2.422 1.008 2.422 2.758V316h-1.12v-4.438c0-1.288-.56-1.946-1.638-1.946-.896 0-1.764.448-1.764 1.372V316h-1.12zm10.668.168c-1.96 0-3.248-1.484-3.248-3.78s1.288-3.78 3.248-3.78c1.932 0 3.122 1.484 3.122 3.528v.532H71.7v.336c0 1.246.798 2.184 2.142 2.184.91 0 1.61-.448 1.988-1.246l.798.574c-.462.98-1.498 1.652-2.856 1.652zm0-6.622c-1.218 0-2.072.924-2.072 2.184v.098h3.99v-.154c0-1.274-.77-2.128-1.918-2.128zM85.616 316h-3.92v-.98h1.372v-7.812h-1.372v-.98h3.92v.98h-1.372v7.812h1.372v.98zm2.142 0v-9.772h4.018c1.61 0 2.604.994 2.604 2.52 0 1.456-.938 1.974-1.582 2.072v.084c.7.042 1.918.644 1.918 2.268 0 1.61-1.078 2.828-2.52 2.828h-4.438zm1.176-4.536v3.5h2.898c1.008 0 1.624-.532 1.624-1.512v-.476c0-.98-.616-1.512-1.624-1.512h-2.898zm0-4.2v3.192h2.702c.924 0 1.484-.49 1.484-1.358v-.476c0-.868-.56-1.358-1.484-1.358h-2.702zM96.9 316v-9.772h1.568l2.8 5.264h.07l2.814-5.264h1.512V316h-1.148v-8.232h-.07l-.826 1.638-2.338 4.256-2.338-4.256-.826-1.638h-.07V316H96.9zm18.116.168c-2.464 0-3.934-1.736-3.934-4.998 0-3.262 1.47-5.11 3.934-5.11 1.624 0 2.744.784 3.36 2.142l-.952.574c-.392-1.008-1.204-1.666-2.408-1.666-1.68 0-2.674 1.33-2.674 3.332v1.456c0 2.002.994 3.22 2.674 3.22 1.246 0 2.1-.7 2.492-1.764l.938.588c-.616 1.372-1.806 2.226-3.43 2.226zm7.868 0c-1.932 0-3.262-1.484-3.262-3.78s1.33-3.78 3.262-3.78 3.262 1.484 3.262 3.78-1.33 3.78-3.262 3.78zm0-.994c1.204 0 2.058-.742 2.058-2.268v-1.036c0-1.526-.854-2.268-2.058-2.268-1.204 0-2.058.742-2.058 2.268v1.036c0 1.526.854 2.268 2.058 2.268zm6.23.826h-1.12v-7.224h1.12v1.33h.07c.252-.686.91-1.33 2.086-1.33h.434v1.12h-.658c-1.204 0-1.932.518-1.932 1.204v4.9zm4.018 2.8v-10.024h1.12v1.176h.056c.378-.91 1.12-1.344 2.114-1.344 1.806 0 2.94 1.47 2.94 3.78 0 2.31-1.134 3.78-2.94 3.78-.994 0-1.68-.448-2.114-1.344h-.056v3.976h-1.12zm2.982-3.64c1.26 0 2.044-.868 2.044-2.156v-1.232c0-1.288-.784-2.156-2.044-2.156-1.022 0-1.862.588-1.862 1.386v2.688c0 .938.84 1.47 1.862 1.47zm7.868 1.008c-1.932 0-3.262-1.484-3.262-3.78s1.33-3.78 3.262-3.78 3.262 1.484 3.262 3.78-1.33 3.78-3.262 3.78zm0-.994c1.204 0 2.058-.742 2.058-2.268v-1.036c0-1.526-.854-2.268-2.058-2.268-1.204 0-2.058.742-2.058 2.268v1.036c0 1.526.854 2.268 2.058 2.268zm6.23.826h-1.12v-7.224h1.12v1.33h.07c.252-.686.91-1.33 2.086-1.33h.434v1.12h-.658c-1.204 0-1.932.518-1.932 1.204v4.9zm9.842 0h-.63c-.826 0-1.162-.504-1.246-1.176h-.07c-.308.882-1.078 1.344-2.086 1.344-1.526 0-2.422-.84-2.422-2.184 0-1.358.98-2.114 3.08-2.114h1.428v-.714c0-1.022-.56-1.582-1.708-1.582-.868 0-1.442.42-1.834 1.078l-.672-.63c.392-.77 1.26-1.414 2.562-1.414 1.736 0 2.772.91 2.772 2.436v3.976h.826v.98zm-3.85-.784c1.106 0 1.904-.574 1.904-1.316v-1.19h-1.484c-1.274 0-1.848.392-1.848 1.092v.294c0 .714.56 1.12 1.428 1.12zm8.442.784h-1.4c-.77 0-1.19-.49-1.19-1.19v-5.054h-1.19v-.98h.672c.476 0 .63-.168.63-.658v-1.344h1.008v2.002h1.582v.98h-1.582v5.264h1.47v.98zm4.578.168c-1.96 0-3.248-1.484-3.248-3.78s1.288-3.78 3.248-3.78c1.932 0 3.122 1.484 3.122 3.528v.532h-5.194v.336c0 1.246.798 2.184 2.142 2.184.91 0 1.61-.448 1.988-1.246l.798.574c-.462.98-1.498 1.652-2.856 1.652zm0-6.622c-1.218 0-2.072.924-2.072 2.184v.098h3.99v-.154c0-1.274-.77-2.128-1.918-2.128zm11.13 6.622c-1.568 0-2.674-.644-3.458-1.708l.868-.728c.686.91 1.498 1.4 2.632 1.4 1.4 0 2.156-.728 2.156-1.848 0-.924-.518-1.386-1.806-1.68l-.798-.182c-1.778-.406-2.758-1.19-2.758-2.688 0-1.736 1.316-2.674 3.234-2.674 1.47 0 2.506.56 3.234 1.596l-.882.644c-.532-.742-1.274-1.204-2.408-1.204-1.246 0-2.016.546-2.016 1.596 0 .924.602 1.344 1.834 1.624l.798.182c1.904.434 2.73 1.274 2.73 2.73 0 1.792-1.26 2.94-3.36 2.94zm7.994 0c-1.96 0-3.248-1.484-3.248-3.78s1.288-3.78 3.248-3.78c1.932 0 3.122 1.484 3.122 3.528v.532h-5.194v.336c0 1.246.798 2.184 2.142 2.184.91 0 1.61-.448 1.988-1.246l.798.574c-.462.98-1.498 1.652-2.856 1.652zm0-6.622c-1.218 0-2.072.924-2.072 2.184v.098h3.99v-.154c0-1.274-.77-2.128-1.918-2.128zm6.09 6.454h-1.12v-7.224h1.12v1.33h.07c.252-.686.91-1.33 2.086-1.33h.434v1.12h-.658c-1.204 0-1.932.518-1.932 1.204v4.9zm7.056 0h-1.302l-2.534-7.224h1.12l1.26 3.584.784 2.464h.07l.784-2.464 1.288-3.584h1.078L201.494 316zm4.55-8.918c-.476 0-.686-.252-.686-.63v-.182c0-.378.21-.63.686-.63.476 0 .686.252.686.63v.182c0 .378-.21.63-.686.63zm-.56 8.918v-7.224h1.12V316h-1.12zm6.188.168c-2.03 0-3.22-1.47-3.22-3.78 0-2.31 1.19-3.78 3.22-3.78 1.428 0 2.282.7 2.702 1.694l-.938.476c-.266-.742-.882-1.176-1.764-1.176-1.33 0-2.016.91-2.016 2.17v1.232c0 1.26.686 2.17 2.016 2.17.91 0 1.568-.434 1.96-1.26l.812.546c-.462 1.036-1.4 1.708-2.772 1.708zm6.986 0c-1.96 0-3.248-1.484-3.248-3.78s1.288-3.78 3.248-3.78c1.932 0 3.122 1.484 3.122 3.528v.532h-5.194v.336c0 1.246.798 2.184 2.142 2.184.91 0 1.61-.448 1.988-1.246l.798.574c-.462.98-1.498 1.652-2.856 1.652zm0-6.622c-1.218 0-2.072.924-2.072 2.184v.098h3.99v-.154c0-1.274-.77-2.128-1.918-2.128zm11.83 6.622c-2.464 0-3.934-1.736-3.934-4.998 0-3.262 1.47-5.11 3.934-5.11 1.624 0 2.744.784 3.36 2.142l-.952.574c-.392-1.008-1.204-1.666-2.408-1.666-1.68 0-2.674 1.33-2.674 3.332v1.456c0 2.002.994 3.22 2.674 3.22 1.246 0 2.1-.7 2.492-1.764l.938.588c-.616 1.372-1.806 2.226-3.43 2.226zm7.868 0c-1.932 0-3.262-1.484-3.262-3.78s1.33-3.78 3.262-3.78 3.262 1.484 3.262 3.78-1.33 3.78-3.262 3.78zm0-.994c1.204 0 2.058-.742 2.058-2.268v-1.036c0-1.526-.854-2.268-2.058-2.268-1.204 0-2.058.742-2.058 2.268v1.036c0 1.526.854 2.268 2.058 2.268zm6.23.826h-1.12v-7.224h1.12v1.33h.07c.252-.686.91-1.33 2.086-1.33h.434v1.12h-.658c-1.204 0-1.932.518-1.932 1.204v4.9zm4.018 2.8v-10.024h1.12v1.176h.056c.378-.91 1.12-1.344 2.114-1.344 1.806 0 2.94 1.47 2.94 3.78 0 2.31-1.134 3.78-2.94 3.78-.994 0-1.68-.448-2.114-1.344h-.056v3.976h-1.12zm2.982-3.64c1.26 0 2.044-.868 2.044-2.156v-1.232c0-1.288-.784-2.156-2.044-2.156-1.022 0-1.862.588-1.862 1.386v2.688c0 .938.84 1.47 1.862 1.47zm7.308 1.008c-1.33 0-2.212-.56-2.856-1.414l.798-.644c.56.7 1.232 1.106 2.142 1.106.952 0 1.512-.434 1.512-1.176 0-.56-.308-.994-1.26-1.134l-.574-.084c-1.33-.196-2.324-.742-2.324-2.086 0-1.428 1.106-2.128 2.576-2.128 1.162 0 1.932.434 2.52 1.162l-.742.672c-.322-.448-.938-.882-1.862-.882-.924 0-1.414.434-1.414 1.12 0 .7.49.98 1.386 1.12l.56.084c1.596.238 2.212.938 2.212 2.03 0 1.4-1.022 2.254-2.674 2.254zm5.292-1.806c.588 0 .854.336.854.826v.196c0 .756-.476 1.792-1.274 2.478h-.938c.56-.588.896-1.078 1.05-1.736-.378-.084-.546-.364-.546-.742v-.196c0-.49.266-.826.854-.826zM271.76 316l-1.932-7.224h1.092l.77 3.122.77 3.164h.028l.882-3.164.91-3.122h.994l.938 3.122.896 3.164h.028l.742-3.164.784-3.122h1.05L277.794 316h-1.386l-1.008-3.472-.63-2.198h-.028l-.616 2.198-1.008 3.472h-1.358zm9.576 0v-10.36h1.12v4.312h.056c.35-.812.966-1.344 2.044-1.344 1.484 0 2.422 1.008 2.422 2.758V316h-1.12v-4.438c0-1.288-.56-1.946-1.638-1.946-.896 0-1.764.448-1.764 1.372V316h-1.12zm8.512-8.918c-.476 0-.686-.252-.686-.63v-.182c0-.378.21-.63.686-.63.476 0 .686.252.686.63v.182c0 .378-.21.63-.686.63zm-.56 8.918v-7.224h1.12V316h-1.12zm6.188.168c-2.03 0-3.22-1.47-3.22-3.78 0-2.31 1.19-3.78 3.22-3.78 1.428 0 2.282.7 2.702 1.694l-.938.476c-.266-.742-.882-1.176-1.764-1.176-1.33 0-2.016.91-2.016 2.17v1.232c0 1.26.686 2.17 2.016 2.17.91 0 1.568-.434 1.96-1.26l.812.546c-.462 1.036-1.4 1.708-2.772 1.708zm4.354-.168v-10.36h1.12v4.312h.056c.35-.812.966-1.344 2.044-1.344 1.484 0 2.422 1.008 2.422 2.758V316h-1.12v-4.438c0-1.288-.56-1.946-1.638-1.946-.896 0-1.764.448-1.764 1.372V316h-1.12zm11.256 0v-10.36h1.12v4.312h.056c.35-.812.966-1.344 2.044-1.344 1.484 0 2.422 1.008 2.422 2.758V316h-1.12v-4.438c0-1.288-.56-1.946-1.638-1.946-.896 0-1.764.448-1.764 1.372V316h-1.12zm13.832 0h-.63c-.826 0-1.162-.504-1.246-1.176h-.07c-.308.882-1.078 1.344-2.086 1.344-1.526 0-2.422-.84-2.422-2.184 0-1.358.98-2.114 3.08-2.114h1.428v-.714c0-1.022-.56-1.582-1.708-1.582-.868 0-1.442.42-1.834 1.078l-.672-.63c.392-.77 1.26-1.414 2.562-1.414 1.736 0 2.772.91 2.772 2.436v3.976h.826v.98zm-3.85-.784c1.106 0 1.904-.574 1.904-1.316v-1.19h-1.484c-1.274 0-1.848.392-1.848 1.092v.294c0 .714.56 1.12 1.428 1.12zm7.616.952c-1.33 0-2.212-.56-2.856-1.414l.798-.644c.56.7 1.232 1.106 2.142 1.106.952 0 1.512-.434 1.512-1.176 0-.56-.308-.994-1.26-1.134l-.574-.084c-1.33-.196-2.324-.742-2.324-2.086 0-1.428 1.106-2.128 2.576-2.128 1.162 0 1.932.434 2.52 1.162l-.742.672c-.322-.448-.938-.882-1.862-.882-.924 0-1.414.434-1.414 1.12 0 .7.49.98 1.386 1.12l.56.084c1.596.238 2.212.938 2.212 2.03 0 1.4-1.022 2.254-2.674 2.254zM58.19 336v-10.36h1.12v4.312h.056c.378-.91 1.12-1.344 2.114-1.344 1.806 0 2.94 1.47 2.94 3.78 0 2.31-1.134 3.78-2.94 3.78-.994 0-1.68-.448-2.114-1.344h-.056V336h-1.12zm2.982-.84c1.26 0 2.044-.868 2.044-2.156v-1.232c0-1.288-.784-2.156-2.044-2.156-1.022 0-1.862.588-1.862 1.386v2.688c0 .938.84 1.47 1.862 1.47zm7.854 1.008c-1.96 0-3.248-1.484-3.248-3.78s1.288-3.78 3.248-3.78c1.932 0 3.122 1.484 3.122 3.528v.532h-5.194v.336c0 1.246.798 2.184 2.142 2.184.91 0 1.61-.448 1.988-1.246l.798.574c-.462.98-1.498 1.652-2.856 1.652zm0-6.622c-1.218 0-2.072.924-2.072 2.184v.098h3.99v-.154c0-1.274-.77-2.128-1.918-2.128zm7.686 6.622c-1.96 0-3.248-1.484-3.248-3.78s1.288-3.78 3.248-3.78c1.932 0 3.122 1.484 3.122 3.528v.532H74.64v.336c0 1.246.798 2.184 2.142 2.184.91 0 1.61-.448 1.988-1.246l.798.574c-.462.98-1.498 1.652-2.856 1.652zm0-6.622c-1.218 0-2.072.924-2.072 2.184v.098h3.99v-.154c0-1.274-.77-2.128-1.918-2.128zm6.09 6.454h-1.12v-7.224h1.12v1.176h.056c.35-.812.966-1.344 2.044-1.344 1.484 0 2.422 1.008 2.422 2.758V336h-1.12v-4.438c0-1.288-.56-1.946-1.638-1.946-.896 0-1.764.448-1.764 1.372V336zm14.756 0v-1.176h-.056c-.434.896-1.12 1.344-2.114 1.344-1.806 0-2.94-1.47-2.94-3.78 0-2.31 1.134-3.78 2.94-3.78.994 0 1.736.434 2.114 1.344h.056v-4.312h1.12V336h-1.12zm-1.862-.84c1.022 0 1.862-.532 1.862-1.47v-2.688c0-.798-.84-1.386-1.862-1.386-1.26 0-2.044.868-2.044 2.156v1.232c0 1.288.784 2.156 2.044 2.156zm8.078 1.008c-1.96 0-3.248-1.484-3.248-3.78s1.288-3.78 3.248-3.78c1.932 0 3.122 1.484 3.122 3.528v.532h-5.194v.336c0 1.246.798 2.184 2.142 2.184.91 0 1.61-.448 1.988-1.246l.798.574c-.462.98-1.498 1.652-2.856 1.652zm0-6.622c-1.218 0-2.072.924-2.072 2.184v.098h3.99v-.154c0-1.274-.77-2.128-1.918-2.128zm7.14 6.622c-1.33 0-2.212-.56-2.856-1.414l.798-.644c.56.7 1.232 1.106 2.142 1.106.952 0 1.512-.434 1.512-1.176 0-.56-.308-.994-1.26-1.134l-.574-.084c-1.33-.196-2.324-.742-2.324-2.086 0-1.428 1.106-2.128 2.576-2.128 1.162 0 1.932.434 2.52 1.162l-.742.672c-.322-.448-.938-.882-1.862-.882-.924 0-1.414.434-1.414 1.12 0 .7.49.98 1.386 1.12l.56.084c1.596.238 2.212.938 2.212 2.03 0 1.4-1.022 2.254-2.674 2.254zm7.336 0c-2.03 0-3.22-1.47-3.22-3.78 0-2.31 1.19-3.78 3.22-3.78 1.428 0 2.282.7 2.702 1.694l-.938.476c-.266-.742-.882-1.176-1.764-1.176-1.33 0-2.016.91-2.016 2.17v1.232c0 1.26.686 2.17 2.016 2.17.91 0 1.568-.434 1.96-1.26l.812.546c-.462 1.036-1.4 1.708-2.772 1.708zm5.474-.168h-1.12v-7.224h1.12v1.33h.07c.252-.686.91-1.33 2.086-1.33h.434v1.12h-.658c-1.204 0-1.932.518-1.932 1.204v4.9zm4.578-8.918c-.476 0-.686-.252-.686-.63v-.182c0-.378.21-.63.686-.63.476 0 .686.252.686.63v.182c0 .378-.21.63-.686.63zm-.56 8.918v-7.224h1.12V336h-1.12zm3.5 0v-10.36h1.12v4.312h.056c.378-.91 1.12-1.344 2.114-1.344 1.806 0 2.94 1.47 2.94 3.78 0 2.31-1.134 3.78-2.94 3.78-.994 0-1.68-.448-2.114-1.344h-.056V336h-1.12zm2.982-.84c1.26 0 2.044-.868 2.044-2.156v-1.232c0-1.288-.784-2.156-2.044-2.156-1.022 0-1.862.588-1.862 1.386v2.688c0 .938.84 1.47 1.862 1.47zm7.854 1.008c-1.96 0-3.248-1.484-3.248-3.78s1.288-3.78 3.248-3.78c1.932 0 3.122 1.484 3.122 3.528v.532h-5.194v.336c0 1.246.798 2.184 2.142 2.184.91 0 1.61-.448 1.988-1.246l.798.574c-.462.98-1.498 1.652-2.856 1.652zm0-6.622c-1.218 0-2.072.924-2.072 2.184v.098h3.99v-.154c0-1.274-.77-2.128-1.918-2.128zm9.59 6.454v-1.176h-.056c-.434.896-1.12 1.344-2.114 1.344-1.806 0-2.94-1.47-2.94-3.78 0-2.31 1.134-3.78 2.94-3.78.994 0 1.736.434 2.114 1.344h.056v-4.312h1.12V336h-1.12zm-1.862-.84c1.022 0 1.862-.532 1.862-1.47v-2.688c0-.798-.84-1.386-1.862-1.386-1.26 0-2.044.868-2.044 2.156v1.232c0 1.288.784 2.156 2.044 2.156zm14.546.84h-.63c-.826 0-1.162-.504-1.246-1.176h-.07c-.308.882-1.078 1.344-2.086 1.344-1.526 0-2.422-.84-2.422-2.184 0-1.358.98-2.114 3.08-2.114h1.428v-.714c0-1.022-.56-1.582-1.708-1.582-.868 0-1.442.42-1.834 1.078l-.672-.63c.392-.77 1.26-1.414 2.562-1.414 1.736 0 2.772.91 2.772 2.436v3.976h.826v.98zm-3.85-.784c1.106 0 1.904-.574 1.904-1.316v-1.19h-1.484c-1.274 0-1.848.392-1.848 1.092v.294c0 .714.56 1.12 1.428 1.12zm7.616.952c-1.33 0-2.212-.56-2.856-1.414l.798-.644c.56.7 1.232 1.106 2.142 1.106.952 0 1.512-.434 1.512-1.176 0-.56-.308-.994-1.26-1.134l-.574-.084c-1.33-.196-2.324-.742-2.324-2.086 0-1.428 1.106-2.128 2.576-2.128 1.162 0 1.932.434 2.52 1.162l-.742.672c-.322-.448-.938-.882-1.862-.882-.924 0-1.414.434-1.414 1.12 0 .7.49.98 1.386 1.12l.56.084c1.596.238 2.212.938 2.212 2.03 0 1.4-1.022 2.254-2.674 2.254zm10.948-.168h-1.4c-.77 0-1.19-.49-1.19-1.19v-5.054h-1.19v-.98h.672c.476 0 .63-.168.63-.658v-1.344h1.008v2.002h1.582v.98h-1.582v5.264h1.47v.98zm1.918 0v-10.36h1.12v4.312h.056c.35-.812.966-1.344 2.044-1.344 1.484 0 2.422 1.008 2.422 2.758V336h-1.12v-4.438c0-1.288-.56-1.946-1.638-1.946-.896 0-1.764.448-1.764 1.372V336h-1.12zm10.668.168c-1.96 0-3.248-1.484-3.248-3.78s1.288-3.78 3.248-3.78c1.932 0 3.122 1.484 3.122 3.528v.532h-5.194v.336c0 1.246.798 2.184 2.142 2.184.91 0 1.61-.448 1.988-1.246l.798.574c-.462.98-1.498 1.652-2.856 1.652zm0-6.622c-1.218 0-2.072.924-2.072 2.184v.098h3.99v-.154c0-1.274-.77-2.128-1.918-2.128zm10.962 6.622c-2.03 0-3.22-1.47-3.22-3.78 0-2.31 1.19-3.78 3.22-3.78 1.428 0 2.282.7 2.702 1.694l-.938.476c-.266-.742-.882-1.176-1.764-1.176-1.33 0-2.016.91-2.016 2.17v1.232c0 1.26.686 2.17 2.016 2.17.91 0 1.568-.434 1.96-1.26l.812.546c-.462 1.036-1.4 1.708-2.772 1.708zm7 0c-1.932 0-3.262-1.484-3.262-3.78s1.33-3.78 3.262-3.78 3.262 1.484 3.262 3.78-1.33 3.78-3.262 3.78zm0-.994c1.204 0 2.058-.742 2.058-2.268v-1.036c0-1.526-.854-2.268-2.058-2.268-1.204 0-2.058.742-2.058 2.268v1.036c0 1.526.854 2.268 2.058 2.268zm6.23.826h-1.12v-7.224h1.12v1.33h.07c.252-.686.91-1.33 2.086-1.33h.434v1.12h-.658c-1.204 0-1.932.518-1.932 1.204v4.9zm4.018 2.8v-10.024h1.12v1.176h.056c.378-.91 1.12-1.344 2.114-1.344 1.806 0 2.94 1.47 2.94 3.78 0 2.31-1.134 3.78-2.94 3.78-.994 0-1.68-.448-2.114-1.344h-.056v3.976h-1.12zm2.982-3.64c1.26 0 2.044-.868 2.044-2.156v-1.232c0-1.288-.784-2.156-2.044-2.156-1.022 0-1.862.588-1.862 1.386v2.688c0 .938.84 1.47 1.862 1.47zm7.868 1.008c-1.932 0-3.262-1.484-3.262-3.78s1.33-3.78 3.262-3.78 3.262 1.484 3.262 3.78-1.33 3.78-3.262 3.78zm0-.994c1.204 0 2.058-.742 2.058-2.268v-1.036c0-1.526-.854-2.268-2.058-2.268-1.204 0-2.058.742-2.058 2.268v1.036c0 1.526.854 2.268 2.058 2.268zm6.23.826h-1.12v-7.224h1.12v1.33h.07c.252-.686.91-1.33 2.086-1.33h.434v1.12h-.658c-1.204 0-1.932.518-1.932 1.204v4.9zm9.842 0h-.63c-.826 0-1.162-.504-1.246-1.176h-.07c-.308.882-1.078 1.344-2.086 1.344-1.526 0-2.422-.84-2.422-2.184 0-1.358.98-2.114 3.08-2.114h1.428v-.714c0-1.022-.56-1.582-1.708-1.582-.868 0-1.442.42-1.834 1.078l-.672-.63c.392-.77 1.26-1.414 2.562-1.414 1.736 0 2.772.91 2.772 2.436v3.976h.826v.98zm-3.85-.784c1.106 0 1.904-.574 1.904-1.316v-1.19h-1.484c-1.274 0-1.848.392-1.848 1.092v.294c0 .714.56 1.12 1.428 1.12zm8.442.784h-1.4c-.77 0-1.19-.49-1.19-1.19v-5.054h-1.19v-.98h.672c.476 0 .63-.168.63-.658v-1.344h1.008v2.002h1.582v.98h-1.582v5.264h1.47v.98zm4.578.168c-1.96 0-3.248-1.484-3.248-3.78s1.288-3.78 3.248-3.78c1.932 0 3.122 1.484 3.122 3.528v.532h-5.194v.336c0 1.246.798 2.184 2.142 2.184.91 0 1.61-.448 1.988-1.246l.798.574c-.462.98-1.498 1.652-2.856 1.652zm0-6.622c-1.218 0-2.072.924-2.072 2.184v.098h3.99v-.154c0-1.274-.77-2.128-1.918-2.128zm10.99 6.622c-1.96 0-3.248-1.484-3.248-3.78s1.288-3.78 3.248-3.78c1.932 0 3.122 1.484 3.122 3.528v.532h-5.194v.336c0 1.246.798 2.184 2.142 2.184.91 0 1.61-.448 1.988-1.246l.798.574c-.462.98-1.498 1.652-2.856 1.652zm0-6.622c-1.218 0-2.072.924-2.072 2.184v.098h3.99v-.154c0-1.274-.77-2.128-1.918-2.128zm9.59 9.254v-3.976h-.056c-.434.896-1.12 1.344-2.114 1.344-1.806 0-2.94-1.47-2.94-3.78 0-2.31 1.134-3.78 2.94-3.78.994 0 1.736.434 2.114 1.344h.056v-1.176h1.12V338.8h-1.12zm-1.862-3.64c1.022 0 1.862-.532 1.862-1.47v-2.688c0-.798-.84-1.386-1.862-1.386-1.26 0-2.044.868-2.044 2.156v1.232c0 1.288.784 2.156 2.044 2.156zm9.814.84v-1.176h-.056c-.28.686-.826 1.344-2.03 1.344-1.484 0-2.436-1.008-2.436-2.758v-4.634h1.12v4.438c0 1.288.574 1.946 1.652 1.946.882 0 1.75-.434 1.75-1.386v-4.998h1.12V336h-1.12zm4.06-8.918c-.476 0-.686-.252-.686-.63v-.182c0-.378.21-.63.686-.63.476 0 .686.252.686.63v.182c0 .378-.21.63-.686.63zm-.56 8.918v-7.224h1.12V336h-1.12zm6.398 0h-1.302l-2.534-7.224h1.12l1.26 3.584.784 2.464h.07l.784-2.464 1.288-3.584h1.078L294.384 336zm9.744 0h-.63c-.826 0-1.162-.504-1.246-1.176h-.07c-.308.882-1.078 1.344-2.086 1.344-1.526 0-2.422-.84-2.422-2.184 0-1.358.98-2.114 3.08-2.114h1.428v-.714c0-1.022-.56-1.582-1.708-1.582-.868 0-1.442.42-1.834 1.078l-.672-.63c.392-.77 1.26-1.414 2.562-1.414 1.736 0 2.772.91 2.772 2.436v3.976h.826v.98zm-3.85-.784c1.106 0 1.904-.574 1.904-1.316v-1.19h-1.484c-1.274 0-1.848.392-1.848 1.092v.294c0 .714.56 1.12 1.428 1.12zm7.63.784h-.994c-.77 0-1.19-.49-1.19-1.162v-9.198h1.12v9.38h1.064v.98zm4.34.168c-1.96 0-3.248-1.484-3.248-3.78s1.288-3.78 3.248-3.78c1.932 0 3.122 1.484 3.122 3.528v.532h-5.194v.336c0 1.246.798 2.184 2.142 2.184.91 0 1.61-.448 1.988-1.246l.798.574c-.462.98-1.498 1.652-2.856 1.652zm0-6.622c-1.218 0-2.072.924-2.072 2.184v.098h3.99v-.154c0-1.274-.77-2.128-1.918-2.128zm6.09 6.454h-1.12v-7.224h1.12v1.176h.056c.35-.812.966-1.344 2.044-1.344 1.484 0 2.422 1.008 2.422 2.758V336h-1.12v-4.438c0-1.288-.56-1.946-1.638-1.946-.896 0-1.764.448-1.764 1.372V336zm9.828 0h-1.4c-.77 0-1.19-.49-1.19-1.19v-5.054h-1.19v-.98h.672c.476 0 .63-.168.63-.658v-1.344h1.008v2.002h1.582v.98h-1.582v5.264h1.47v.98zM60.92 356.168c-1.932 0-3.262-1.484-3.262-3.78s1.33-3.78 3.262-3.78 3.262 1.484 3.262 3.78-1.33 3.78-3.262 3.78zm0-.994c1.204 0 2.058-.742 2.058-2.268v-1.036c0-1.526-.854-2.268-2.058-2.268-1.204 0-2.058.742-2.058 2.268v1.036c0 1.526.854 2.268 2.058 2.268zm5.418.826v-6.244h-1.176v-.98h1.176v-1.456c0-.994.518-1.68 1.582-1.68h1.092v.98h-1.554v2.156h1.554v.98h-1.554V356h-1.12zm10.444 0h-1.4c-.77 0-1.19-.49-1.19-1.19v-5.054h-1.19v-.98h.672c.476 0 .63-.168.63-.658v-1.344h1.008v2.002h1.582v.98h-1.582v5.264h1.47v.98zm1.918 0v-10.36h1.12v4.312h.056c.35-.812.966-1.344 2.044-1.344 1.484 0 2.422 1.008 2.422 2.758V356h-1.12v-4.438c0-1.288-.56-1.946-1.638-1.946-.896 0-1.764.448-1.764 1.372V356H78.7zm10.668.168c-1.96 0-3.248-1.484-3.248-3.78s1.288-3.78 3.248-3.78c1.932 0 3.122 1.484 3.122 3.528v.532h-5.194v.336c0 1.246.798 2.184 2.142 2.184.91 0 1.61-.448 1.988-1.246l.798.574c-.462.98-1.498 1.652-2.856 1.652zm0-6.622c-1.218 0-2.072.924-2.072 2.184v.098h3.99v-.154c0-1.274-.77-2.128-1.918-2.128zM98.93 356h-1.176v-9.772h3.892c1.75 0 2.73 1.078 2.73 2.8 0 1.722-.98 2.8-2.73 2.8H98.93V356zm0-8.736v3.528h2.716c.924 0 1.47-.504 1.47-1.4v-.728c0-.896-.546-1.4-1.47-1.4H98.93zm9.632 8.904c-1.96 0-3.248-1.484-3.248-3.78s1.288-3.78 3.248-3.78c1.932 0 3.122 1.484 3.122 3.528v.532h-5.194v.336c0 1.246.798 2.184 2.142 2.184.91 0 1.61-.448 1.988-1.246l.798.574c-.462.98-1.498 1.652-2.856 1.652zm0-6.622c-1.218 0-2.072.924-2.072 2.184v.098h3.99v-.154c0-1.274-.77-2.128-1.918-2.128zm10.85 6.454h-.63c-.826 0-1.162-.504-1.246-1.176h-.07c-.308.882-1.078 1.344-2.086 1.344-1.526 0-2.422-.84-2.422-2.184 0-1.358.98-2.114 3.08-2.114h1.428v-.714c0-1.022-.56-1.582-1.708-1.582-.868 0-1.442.42-1.834 1.078l-.672-.63c.392-.77 1.26-1.414 2.562-1.414 1.736 0 2.772.91 2.772 2.436v3.976h.826v.98zm-3.85-.784c1.106 0 1.904-.574 1.904-1.316v-1.19h-1.484c-1.274 0-1.848.392-1.848 1.092v.294c0 .714.56 1.12 1.428 1.12zm8.134.952c-2.03 0-3.22-1.47-3.22-3.78 0-2.31 1.19-3.78 3.22-3.78 1.428 0 2.282.7 2.702 1.694l-.938.476c-.266-.742-.882-1.176-1.764-1.176-1.33 0-2.016.91-2.016 2.17v1.232c0 1.26.686 2.17 2.016 2.17.91 0 1.568-.434 1.96-1.26l.812.546c-.462 1.036-1.4 1.708-2.772 1.708zm6.986 0c-1.96 0-3.248-1.484-3.248-3.78s1.288-3.78 3.248-3.78c1.932 0 3.122 1.484 3.122 3.528v.532h-5.194v.336c0 1.246.798 2.184 2.142 2.184.91 0 1.61-.448 1.988-1.246l.798.574c-.462.98-1.498 1.652-2.856 1.652zm0-6.622c-1.218 0-2.072.924-2.072 2.184v.098h3.99v-.154c0-1.274-.77-2.128-1.918-2.128zm11.83 6.622c-2.464 0-3.934-1.736-3.934-4.998 0-3.262 1.47-5.11 3.934-5.11 1.624 0 2.744.784 3.36 2.142l-.952.574c-.392-1.008-1.204-1.666-2.408-1.666-1.68 0-2.674 1.33-2.674 3.332v1.456c0 2.002.994 3.22 2.674 3.22 1.246 0 2.1-.7 2.492-1.764l.938.588c-.616 1.372-1.806 2.226-3.43 2.226zm7.868 0c-1.932 0-3.262-1.484-3.262-3.78s1.33-3.78 3.262-3.78 3.262 1.484 3.262 3.78-1.33 3.78-3.262 3.78zm0-.994c1.204 0 2.058-.742 2.058-2.268v-1.036c0-1.526-.854-2.268-2.058-2.268-1.204 0-2.058.742-2.058 2.268v1.036c0 1.526.854 2.268 2.058 2.268zm6.23.826h-1.12v-7.224h1.12v1.33h.07c.252-.686.91-1.33 2.086-1.33h.434v1.12h-.658c-1.204 0-1.932.518-1.932 1.204v4.9zm4.018 2.8v-10.024h1.12v1.176h.056c.378-.91 1.12-1.344 2.114-1.344 1.806 0 2.94 1.47 2.94 3.78 0 2.31-1.134 3.78-2.94 3.78-.994 0-1.68-.448-2.114-1.344h-.056v3.976h-1.12zm2.982-3.64c1.26 0 2.044-.868 2.044-2.156v-1.232c0-1.288-.784-2.156-2.044-2.156-1.022 0-1.862.588-1.862 1.386v2.688c0 .938.84 1.47 1.862 1.47zm7.308 1.008c-1.33 0-2.212-.56-2.856-1.414l.798-.644c.56.7 1.232 1.106 2.142 1.106.952 0 1.512-.434 1.512-1.176 0-.56-.308-.994-1.26-1.134l-.574-.084c-1.33-.196-2.324-.742-2.324-2.086 0-1.428 1.106-2.128 2.576-2.128 1.162 0 1.932.434 2.52 1.162l-.742.672c-.322-.448-.938-.882-1.862-.882-.924 0-1.414.434-1.414 1.12 0 .7.49.98 1.386 1.12l.56.084c1.596.238 2.212.938 2.212 2.03 0 1.4-1.022 2.254-2.674 2.254zM412.7 287.264h-3.108V296h-1.176v-8.736h-3.108v-1.036h7.392v1.036zm1.498 8.736v-10.36h1.12v4.312h.056c.35-.812.966-1.344 2.044-1.344 1.484 0 2.422 1.008 2.422 2.758V296h-1.12v-4.438c0-1.288-.56-1.946-1.638-1.946-.896 0-1.764.448-1.764 1.372V296h-1.12zm10.668.168c-1.96 0-3.248-1.484-3.248-3.78s1.288-3.78 3.248-3.78c1.932 0 3.122 1.484 3.122 3.528v.532h-5.194v.336c0 1.246.798 2.184 2.142 2.184.91 0 1.61-.448 1.988-1.246l.798.574c-.462.98-1.498 1.652-2.856 1.652zm0-6.622c-1.218 0-2.072.924-2.072 2.184v.098h3.99v-.154c0-1.274-.77-2.128-1.918-2.128zm10.962 6.622c-2.03 0-3.22-1.47-3.22-3.78 0-2.31 1.19-3.78 3.22-3.78 1.428 0 2.282.7 2.702 1.694l-.938.476c-.266-.742-.882-1.176-1.764-1.176-1.33 0-2.016.91-2.016 2.17v1.232c0 1.26.686 2.17 2.016 2.17.91 0 1.568-.434 1.96-1.26l.812.546c-.462 1.036-1.4 1.708-2.772 1.708zm7 0c-1.932 0-3.262-1.484-3.262-3.78s1.33-3.78 3.262-3.78 3.262 1.484 3.262 3.78-1.33 3.78-3.262 3.78zm0-.994c1.204 0 2.058-.742 2.058-2.268v-1.036c0-1.526-.854-2.268-2.058-2.268-1.204 0-2.058.742-2.058 2.268v1.036c0 1.526.854 2.268 2.058 2.268zm6.23.826h-1.12v-7.224h1.12v1.176h.056c.322-.742.826-1.344 1.946-1.344.952 0 1.82.434 2.212 1.47h.028c.266-.784.966-1.47 2.198-1.47 1.47 0 2.352 1.008 2.352 2.758V296h-1.12v-4.438c0-1.274-.49-1.946-1.582-1.946-.882 0-1.694.448-1.694 1.372V296h-1.12v-4.438c0-1.288-.49-1.946-1.554-1.946-.882 0-1.722.448-1.722 1.372V296zm11.102 2.8v-10.024h1.12v1.176h.056c.378-.91 1.12-1.344 2.114-1.344 1.806 0 2.94 1.47 2.94 3.78 0 2.31-1.134 3.78-2.94 3.78-.994 0-1.68-.448-2.114-1.344h-.056v3.976h-1.12zm2.982-3.64c1.26 0 2.044-.868 2.044-2.156v-1.232c0-1.288-.784-2.156-2.044-2.156-1.022 0-1.862.588-1.862 1.386v2.688c0 .938.84 1.47 1.862 1.47zm11.018.84h-.63c-.826 0-1.162-.504-1.246-1.176h-.07c-.308.882-1.078 1.344-2.086 1.344-1.526 0-2.422-.84-2.422-2.184 0-1.358.98-2.114 3.08-2.114h1.428v-.714c0-1.022-.56-1.582-1.708-1.582-.868 0-1.442.42-1.834 1.078l-.672-.63c.392-.77 1.26-1.414 2.562-1.414 1.736 0 2.772.91 2.772 2.436v3.976h.826v.98zm-3.85-.784c1.106 0 1.904-.574 1.904-1.316v-1.19h-1.484c-1.274 0-1.848.392-1.848 1.092v.294c0 .714.56 1.12 1.428 1.12zm6.566.784h-1.12v-7.224h1.12v1.176h.056c.35-.812.966-1.344 2.044-1.344 1.484 0 2.422 1.008 2.422 2.758V296h-1.12v-4.438c0-1.288-.56-1.946-1.638-1.946-.896 0-1.764.448-1.764 1.372V296zm9.422-2.31l1.75-4.914h1.106l-3.234 8.904c-.322.868-.616 1.12-1.68 1.12h-.574v-.98h1.134l.546-1.54-2.702-7.504h1.12l1.736 4.914.336 1.176h.07l.392-1.176zm13.468 2.31h-.63c-.826 0-1.162-.504-1.246-1.176h-.07c-.308.882-1.078 1.344-2.086 1.344-1.526 0-2.422-.84-2.422-2.184 0-1.358.98-2.114 3.08-2.114h1.428v-.714c0-1.022-.56-1.582-1.708-1.582-.868 0-1.442.42-1.834 1.078l-.672-.63c.392-.77 1.26-1.414 2.562-1.414 1.736 0 2.772.91 2.772 2.436v3.976h.826v.98zm-3.85-.784c1.106 0 1.904-.574 1.904-1.316v-1.19h-1.484c-1.274 0-1.848.392-1.848 1.092v.294c0 .714.56 1.12 1.428 1.12zm7.63.784h-.994c-.77 0-1.19-.49-1.19-1.162v-9.198h1.12v9.38h1.064v.98zm3.794.168c-1.33 0-2.212-.56-2.856-1.414l.798-.644c.56.7 1.232 1.106 2.142 1.106.952 0 1.512-.434 1.512-1.176 0-.56-.308-.994-1.26-1.134l-.574-.084c-1.33-.196-2.324-.742-2.324-2.086 0-1.428 1.106-2.128 2.576-2.128 1.162 0 1.932.434 2.52 1.162l-.742.672c-.322-.448-.938-.882-1.862-.882-.924 0-1.414.434-1.414 1.12 0 .7.49.98 1.386 1.12l.56.084c1.596.238 2.212.938 2.212 2.03 0 1.4-1.022 2.254-2.674 2.254zm7.378 0c-1.932 0-3.262-1.484-3.262-3.78s1.33-3.78 3.262-3.78 3.262 1.484 3.262 3.78-1.33 3.78-3.262 3.78zm0-.994c1.204 0 2.058-.742 2.058-2.268v-1.036c0-1.526-.854-2.268-2.058-2.268-1.204 0-2.058.742-2.058 2.268v1.036c0 1.526.854 2.268 2.058 2.268zm10.584.994c-1.33 0-2.212-.56-2.856-1.414l.798-.644c.56.7 1.232 1.106 2.142 1.106.952 0 1.512-.434 1.512-1.176 0-.56-.308-.994-1.26-1.134l-.574-.084c-1.33-.196-2.324-.742-2.324-2.086 0-1.428 1.106-2.128 2.576-2.128 1.162 0 1.932.434 2.52 1.162l-.742.672c-.322-.448-.938-.882-1.862-.882-.924 0-1.414.434-1.414 1.12 0 .7.49.98 1.386 1.12l.56.084c1.596.238 2.212.938 2.212 2.03 0 1.4-1.022 2.254-2.674 2.254zm7.364 0c-1.96 0-3.248-1.484-3.248-3.78s1.288-3.78 3.248-3.78c1.932 0 3.122 1.484 3.122 3.528v.532h-5.194v.336c0 1.246.798 2.184 2.142 2.184.91 0 1.61-.448 1.988-1.246l.798.574c-.462.98-1.498 1.652-2.856 1.652zm0-6.622c-1.218 0-2.072.924-2.072 2.184v.098h3.99v-.154c0-1.274-.77-2.128-1.918-2.128zM539.82 296h-.994c-.77 0-1.19-.49-1.19-1.162v-9.198h1.12v9.38h1.064v.98zm4.34.168c-1.96 0-3.248-1.484-3.248-3.78s1.288-3.78 3.248-3.78c1.932 0 3.122 1.484 3.122 3.528v.532h-5.194v.336c0 1.246.798 2.184 2.142 2.184.91 0 1.61-.448 1.988-1.246l.798.574c-.462.98-1.498 1.652-2.856 1.652zm0-6.622c-1.218 0-2.072.924-2.072 2.184v.098h3.99v-.154c0-1.274-.77-2.128-1.918-2.128zm7.658 6.622c-2.03 0-3.22-1.47-3.22-3.78 0-2.31 1.19-3.78 3.22-3.78 1.428 0 2.282.7 2.702 1.694l-.938.476c-.266-.742-.882-1.176-1.764-1.176-1.33 0-2.016.91-2.016 2.17v1.232c0 1.26.686 2.17 2.016 2.17.91 0 1.568-.434 1.96-1.26l.812.546c-.462 1.036-1.4 1.708-2.772 1.708zm7.35-.168h-1.4c-.77 0-1.19-.49-1.19-1.19v-5.054h-1.19v-.98h.672c.476 0 .63-.168.63-.658v-1.344h1.008v2.002h1.582v.98h-1.582v5.264h1.47v.98zm4.088.168c-1.33 0-2.212-.56-2.856-1.414l.798-.644c.56.7 1.232 1.106 2.142 1.106.952 0 1.512-.434 1.512-1.176 0-.56-.308-.994-1.26-1.134l-.574-.084c-1.33-.196-2.324-.742-2.324-2.086 0-1.428 1.106-2.128 2.576-2.128 1.162 0 1.932.434 2.52 1.162l-.742.672c-.322-.448-.938-.882-1.862-.882-.924 0-1.414.434-1.414 1.12 0 .7.49.98 1.386 1.12l.56.084c1.596.238 2.212.938 2.212 2.03 0 1.4-1.022 2.254-2.674 2.254zm13.734-9.94v1.036h-4.284l-.28 3.724h.098c.462-.658.98-1.078 2.002-1.078 1.68 0 2.912 1.134 2.912 3.024 0 1.904-1.232 3.234-3.29 3.234-1.624 0-2.464-.826-3.052-1.666l.882-.672c.504.77.994 1.288 2.17 1.288 1.33 0 2.044-.742 2.044-2.03v-.14c0-1.288-.714-2.03-2.044-2.03-.896 0-1.344.378-1.75.826l-.994-.14.35-5.376h5.236zm5.628 9.94c-2.338 0-3.36-1.862-3.36-5.054s1.022-5.054 3.36-5.054 3.36 1.862 3.36 5.054-1.022 5.054-3.36 5.054zm0-1.022c1.526 0 2.128-1.344 2.128-3.234v-1.596c0-1.89-.602-3.234-2.128-3.234-1.526 0-2.128 1.344-2.128 3.234v1.596c0 1.89.602 3.234 2.128 3.234zm8.4 1.022c-2.338 0-3.36-1.862-3.36-5.054s1.022-5.054 3.36-5.054 3.36 1.862 3.36 5.054-1.022 5.054-3.36 5.054zm0-1.022c1.526 0 2.128-1.344 2.128-3.234v-1.596c0-1.89-.602-3.234-2.128-3.234-1.526 0-2.128 1.344-2.128 3.234v1.596c0 1.89.602 3.234 2.128 3.234zm12.264.854h-3.92v-.98h1.372v-7.812h-1.372v-.98h3.92v.98h-1.372v7.812h1.372v.98zm2.142 0v-9.772h4.018c1.61 0 2.604.994 2.604 2.52 0 1.456-.938 1.974-1.582 2.072v.084c.7.042 1.918.644 1.918 2.268 0 1.61-1.078 2.828-2.52 2.828h-4.438zm1.176-4.536v3.5h2.898c1.008 0 1.624-.532 1.624-1.512v-.476c0-.98-.616-1.512-1.624-1.512H606.6zm0-4.2v3.192h2.702c.924 0 1.484-.49 1.484-1.358v-.476c0-.868-.56-1.358-1.484-1.358H606.6zm7.966 8.736v-9.772h1.568l2.8 5.264h.07l2.814-5.264h1.512V296h-1.148v-8.232h-.07l-.826 1.638-2.338 4.256-2.338-4.256-.826-1.638h-.07V296h-1.148zm13.972.168c-1.96 0-3.248-1.484-3.248-3.78s1.288-3.78 3.248-3.78c1.932 0 3.122 1.484 3.122 3.528v.532h-5.194v.336c0 1.246.798 2.184 2.142 2.184.91 0 1.61-.448 1.988-1.246l.798.574c-.462.98-1.498 1.652-2.856 1.652zm0-6.622c-1.218 0-2.072.924-2.072 2.184v.098h3.99v-.154c0-1.274-.77-2.128-1.918-2.128zm6.09 6.454h-1.12v-7.224h1.12v1.33h.07c.252-.686.91-1.33 2.086-1.33h.434v1.12h-.658c-1.204 0-1.932.518-1.932 1.204v4.9zm6.188.168c-1.33 0-2.212-.56-2.856-1.414l.798-.644c.56.7 1.232 1.106 2.142 1.106.952 0 1.512-.434 1.512-1.176 0-.56-.308-.994-1.26-1.134l-.574-.084c-1.33-.196-2.324-.742-2.324-2.086 0-1.428 1.106-2.128 2.576-2.128 1.162 0 1.932.434 2.52 1.162l-.742.672c-.322-.448-.938-.882-1.862-.882-.924 0-1.414.434-1.414 1.12 0 .7.49.98 1.386 1.12l.56.084c1.596.238 2.212.938 2.212 2.03 0 1.4-1.022 2.254-2.674 2.254zm8.344-.168v-6.244h-1.176v-.98h1.176v-1.456c0-.994.518-1.68 1.582-1.68h1.092v.98h-1.554v2.156h1.554v.98h-1.554V296h-1.12zm6.818.168c-1.932 0-3.262-1.484-3.262-3.78s1.33-3.78 3.262-3.78 3.262 1.484 3.262 3.78-1.33 3.78-3.262 3.78zm0-.994c1.204 0 2.058-.742 2.058-2.268v-1.036c0-1.526-.854-2.268-2.058-2.268-1.204 0-2.058.742-2.058 2.268v1.036c0 1.526.854 2.268 2.058 2.268zm6.23.826h-1.12v-7.224h1.12v1.33h.07c.252-.686.91-1.33 2.086-1.33h.434v1.12h-.658c-1.204 0-1.932.518-1.932 1.204v4.9zm-253.022 20h-1.4c-.77 0-1.19-.49-1.19-1.19v-5.054h-1.19v-.98h.672c.476 0 .63-.168.63-.658v-1.344h1.008v2.002h1.582v.98h-1.582v5.264h1.47v.98zm1.918 0v-10.36h1.12v4.312h.056c.35-.812.966-1.344 2.044-1.344 1.484 0 2.422 1.008 2.422 2.758V316h-1.12v-4.438c0-1.288-.56-1.946-1.638-1.946-.896 0-1.764.448-1.764 1.372V316h-1.12zm10.668.168c-1.96 0-3.248-1.484-3.248-3.78s1.288-3.78 3.248-3.78c1.932 0 3.122 1.484 3.122 3.528v.532H419.7v.336c0 1.246.798 2.184 2.142 2.184.91 0 1.61-.448 1.988-1.246l.798.574c-.462.98-1.498 1.652-2.856 1.652zm0-6.622c-1.218 0-2.072.924-2.072 2.184v.098h3.99v-.154c0-1.274-.77-2.128-1.918-2.128zM433.616 316h-3.92v-.98h1.372v-7.812h-1.372v-.98h3.92v.98h-1.372v7.812h1.372v.98zm2.142 0v-9.772h4.018c1.61 0 2.604.994 2.604 2.52 0 1.456-.938 1.974-1.582 2.072v.084c.7.042 1.918.644 1.918 2.268 0 1.61-1.078 2.828-2.52 2.828h-4.438zm1.176-4.536v3.5h2.898c1.008 0 1.624-.532 1.624-1.512v-.476c0-.98-.616-1.512-1.624-1.512h-2.898zm0-4.2v3.192h2.702c.924 0 1.484-.49 1.484-1.358v-.476c0-.868-.56-1.358-1.484-1.358h-2.702zM444.9 316v-9.772h1.568l2.8 5.264h.07l2.814-5.264h1.512V316h-1.148v-8.232h-.07l-.826 1.638-2.338 4.256-2.338-4.256-.826-1.638h-.07V316H444.9zm18.116.168c-2.464 0-3.934-1.736-3.934-4.998 0-3.262 1.47-5.11 3.934-5.11 1.624 0 2.744.784 3.36 2.142l-.952.574c-.392-1.008-1.204-1.666-2.408-1.666-1.68 0-2.674 1.33-2.674 3.332v1.456c0 2.002.994 3.22 2.674 3.22 1.246 0 2.1-.7 2.492-1.764l.938.588c-.616 1.372-1.806 2.226-3.43 2.226zm7.868 0c-1.932 0-3.262-1.484-3.262-3.78s1.33-3.78 3.262-3.78 3.262 1.484 3.262 3.78-1.33 3.78-3.262 3.78zm0-.994c1.204 0 2.058-.742 2.058-2.268v-1.036c0-1.526-.854-2.268-2.058-2.268-1.204 0-2.058.742-2.058 2.268v1.036c0 1.526.854 2.268 2.058 2.268zm6.23.826h-1.12v-7.224h1.12v1.33h.07c.252-.686.91-1.33 2.086-1.33h.434v1.12h-.658c-1.204 0-1.932.518-1.932 1.204v4.9zm4.018 2.8v-10.024h1.12v1.176h.056c.378-.91 1.12-1.344 2.114-1.344 1.806 0 2.94 1.47 2.94 3.78 0 2.31-1.134 3.78-2.94 3.78-.994 0-1.68-.448-2.114-1.344h-.056v3.976h-1.12zm2.982-3.64c1.26 0 2.044-.868 2.044-2.156v-1.232c0-1.288-.784-2.156-2.044-2.156-1.022 0-1.862.588-1.862 1.386v2.688c0 .938.84 1.47 1.862 1.47zm7.868 1.008c-1.932 0-3.262-1.484-3.262-3.78s1.33-3.78 3.262-3.78 3.262 1.484 3.262 3.78-1.33 3.78-3.262 3.78zm0-.994c1.204 0 2.058-.742 2.058-2.268v-1.036c0-1.526-.854-2.268-2.058-2.268-1.204 0-2.058.742-2.058 2.268v1.036c0 1.526.854 2.268 2.058 2.268zm6.23.826h-1.12v-7.224h1.12v1.33h.07c.252-.686.91-1.33 2.086-1.33h.434v1.12h-.658c-1.204 0-1.932.518-1.932 1.204v4.9zm9.842 0h-.63c-.826 0-1.162-.504-1.246-1.176h-.07c-.308.882-1.078 1.344-2.086 1.344-1.526 0-2.422-.84-2.422-2.184 0-1.358.98-2.114 3.08-2.114h1.428v-.714c0-1.022-.56-1.582-1.708-1.582-.868 0-1.442.42-1.834 1.078l-.672-.63c.392-.77 1.26-1.414 2.562-1.414 1.736 0 2.772.91 2.772 2.436v3.976h.826v.98zm-3.85-.784c1.106 0 1.904-.574 1.904-1.316v-1.19h-1.484c-1.274 0-1.848.392-1.848 1.092v.294c0 .714.56 1.12 1.428 1.12zm8.442.784h-1.4c-.77 0-1.19-.49-1.19-1.19v-5.054h-1.19v-.98h.672c.476 0 .63-.168.63-.658v-1.344h1.008v2.002h1.582v.98h-1.582v5.264h1.47v.98zm4.578.168c-1.96 0-3.248-1.484-3.248-3.78s1.288-3.78 3.248-3.78c1.932 0 3.122 1.484 3.122 3.528v.532h-5.194v.336c0 1.246.798 2.184 2.142 2.184.91 0 1.61-.448 1.988-1.246l.798.574c-.462.98-1.498 1.652-2.856 1.652zm0-6.622c-1.218 0-2.072.924-2.072 2.184v.098h3.99v-.154c0-1.274-.77-2.128-1.918-2.128zm11.13 6.622c-1.568 0-2.674-.644-3.458-1.708l.868-.728c.686.91 1.498 1.4 2.632 1.4 1.4 0 2.156-.728 2.156-1.848 0-.924-.518-1.386-1.806-1.68l-.798-.182c-1.778-.406-2.758-1.19-2.758-2.688 0-1.736 1.316-2.674 3.234-2.674 1.47 0 2.506.56 3.234 1.596l-.882.644c-.532-.742-1.274-1.204-2.408-1.204-1.246 0-2.016.546-2.016 1.596 0 .924.602 1.344 1.834 1.624l.798.182c1.904.434 2.73 1.274 2.73 2.73 0 1.792-1.26 2.94-3.36 2.94zm7.994 0c-1.96 0-3.248-1.484-3.248-3.78s1.288-3.78 3.248-3.78c1.932 0 3.122 1.484 3.122 3.528v.532h-5.194v.336c0 1.246.798 2.184 2.142 2.184.91 0 1.61-.448 1.988-1.246l.798.574c-.462.98-1.498 1.652-2.856 1.652zm0-6.622c-1.218 0-2.072.924-2.072 2.184v.098h3.99v-.154c0-1.274-.77-2.128-1.918-2.128zm6.09 6.454h-1.12v-7.224h1.12v1.33h.07c.252-.686.91-1.33 2.086-1.33h.434v1.12h-.658c-1.204 0-1.932.518-1.932 1.204v4.9zm7.056 0h-1.302l-2.534-7.224h1.12l1.26 3.584.784 2.464h.07l.784-2.464 1.288-3.584h1.078L549.494 316zm4.55-8.918c-.476 0-.686-.252-.686-.63v-.182c0-.378.21-.63.686-.63.476 0 .686.252.686.63v.182c0 .378-.21.63-.686.63zm-.56 8.918v-7.224h1.12V316h-1.12zm6.188.168c-2.03 0-3.22-1.47-3.22-3.78 0-2.31 1.19-3.78 3.22-3.78 1.428 0 2.282.7 2.702 1.694l-.938.476c-.266-.742-.882-1.176-1.764-1.176-1.33 0-2.016.91-2.016 2.17v1.232c0 1.26.686 2.17 2.016 2.17.91 0 1.568-.434 1.96-1.26l.812.546c-.462 1.036-1.4 1.708-2.772 1.708zm6.986 0c-1.96 0-3.248-1.484-3.248-3.78s1.288-3.78 3.248-3.78c1.932 0 3.122 1.484 3.122 3.528v.532h-5.194v.336c0 1.246.798 2.184 2.142 2.184.91 0 1.61-.448 1.988-1.246l.798.574c-.462.98-1.498 1.652-2.856 1.652zm0-6.622c-1.218 0-2.072.924-2.072 2.184v.098h3.99v-.154c0-1.274-.77-2.128-1.918-2.128zm11.83 6.622c-2.464 0-3.934-1.736-3.934-4.998 0-3.262 1.47-5.11 3.934-5.11 1.624 0 2.744.784 3.36 2.142l-.952.574c-.392-1.008-1.204-1.666-2.408-1.666-1.68 0-2.674 1.33-2.674 3.332v1.456c0 2.002.994 3.22 2.674 3.22 1.246 0 2.1-.7 2.492-1.764l.938.588c-.616 1.372-1.806 2.226-3.43 2.226zm7.868 0c-1.932 0-3.262-1.484-3.262-3.78s1.33-3.78 3.262-3.78 3.262 1.484 3.262 3.78-1.33 3.78-3.262 3.78zm0-.994c1.204 0 2.058-.742 2.058-2.268v-1.036c0-1.526-.854-2.268-2.058-2.268-1.204 0-2.058.742-2.058 2.268v1.036c0 1.526.854 2.268 2.058 2.268zm6.23.826h-1.12v-7.224h1.12v1.33h.07c.252-.686.91-1.33 2.086-1.33h.434v1.12h-.658c-1.204 0-1.932.518-1.932 1.204v4.9zm4.018 2.8v-10.024h1.12v1.176h.056c.378-.91 1.12-1.344 2.114-1.344 1.806 0 2.94 1.47 2.94 3.78 0 2.31-1.134 3.78-2.94 3.78-.994 0-1.68-.448-2.114-1.344h-.056v3.976h-1.12zm2.982-3.64c1.26 0 2.044-.868 2.044-2.156v-1.232c0-1.288-.784-2.156-2.044-2.156-1.022 0-1.862.588-1.862 1.386v2.688c0 .938.84 1.47 1.862 1.47zm7.308 1.008c-1.33 0-2.212-.56-2.856-1.414l.798-.644c.56.7 1.232 1.106 2.142 1.106.952 0 1.512-.434 1.512-1.176 0-.56-.308-.994-1.26-1.134l-.574-.084c-1.33-.196-2.324-.742-2.324-2.086 0-1.428 1.106-2.128 2.576-2.128 1.162 0 1.932.434 2.52 1.162l-.742.672c-.322-.448-.938-.882-1.862-.882-.924 0-1.414.434-1.414 1.12 0 .7.49.98 1.386 1.12l.56.084c1.596.238 2.212.938 2.212 2.03 0 1.4-1.022 2.254-2.674 2.254zm5.292-1.806c.588 0 .854.336.854.826v.196c0 .756-.476 1.792-1.274 2.478h-.938c.56-.588.896-1.078 1.05-1.736-.378-.084-.546-.364-.546-.742v-.196c0-.49.266-.826.854-.826zM619.76 316l-1.932-7.224h1.092l.77 3.122.77 3.164h.028l.882-3.164.91-3.122h.994l.938 3.122.896 3.164h.028l.742-3.164.784-3.122h1.05L625.794 316h-1.386l-1.008-3.472-.63-2.198h-.028l-.616 2.198-1.008 3.472h-1.358zm9.576 0v-10.36h1.12v4.312h.056c.35-.812.966-1.344 2.044-1.344 1.484 0 2.422 1.008 2.422 2.758V316h-1.12v-4.438c0-1.288-.56-1.946-1.638-1.946-.896 0-1.764.448-1.764 1.372V316h-1.12zm8.512-8.918c-.476 0-.686-.252-.686-.63v-.182c0-.378.21-.63.686-.63.476 0 .686.252.686.63v.182c0 .378-.21.63-.686.63zm-.56 8.918v-7.224h1.12V316h-1.12zm6.188.168c-2.03 0-3.22-1.47-3.22-3.78 0-2.31 1.19-3.78 3.22-3.78 1.428 0 2.282.7 2.702 1.694l-.938.476c-.266-.742-.882-1.176-1.764-1.176-1.33 0-2.016.91-2.016 2.17v1.232c0 1.26.686 2.17 2.016 2.17.91 0 1.568-.434 1.96-1.26l.812.546c-.462 1.036-1.4 1.708-2.772 1.708zm4.354-.168v-10.36h1.12v4.312h.056c.35-.812.966-1.344 2.044-1.344 1.484 0 2.422 1.008 2.422 2.758V316h-1.12v-4.438c0-1.288-.56-1.946-1.638-1.946-.896 0-1.764.448-1.764 1.372V316h-1.12zm11.256 0v-10.36h1.12v4.312h.056c.35-.812.966-1.344 2.044-1.344 1.484 0 2.422 1.008 2.422 2.758V316h-1.12v-4.438c0-1.288-.56-1.946-1.638-1.946-.896 0-1.764.448-1.764 1.372V316h-1.12zm13.832 0h-.63c-.826 0-1.162-.504-1.246-1.176h-.07c-.308.882-1.078 1.344-2.086 1.344-1.526 0-2.422-.84-2.422-2.184 0-1.358.98-2.114 3.08-2.114h1.428v-.714c0-1.022-.56-1.582-1.708-1.582-.868 0-1.442.42-1.834 1.078l-.672-.63c.392-.77 1.26-1.414 2.562-1.414 1.736 0 2.772.91 2.772 2.436v3.976h.826v.98zm-3.85-.784c1.106 0 1.904-.574 1.904-1.316v-1.19h-1.484c-1.274 0-1.848.392-1.848 1.092v.294c0 .714.56 1.12 1.428 1.12zm7.616.952c-1.33 0-2.212-.56-2.856-1.414l.798-.644c.56.7 1.232 1.106 2.142 1.106.952 0 1.512-.434 1.512-1.176 0-.56-.308-.994-1.26-1.134l-.574-.084c-1.33-.196-2.324-.742-2.324-2.086 0-1.428 1.106-2.128 2.576-2.128 1.162 0 1.932.434 2.52 1.162l-.742.672c-.322-.448-.938-.882-1.862-.882-.924 0-1.414.434-1.414 1.12 0 .7.49.98 1.386 1.12l.56.084c1.596.238 2.212.938 2.212 2.03 0 1.4-1.022 2.254-2.674 2.254zM406.19 336v-10.36h1.12v4.312h.056c.378-.91 1.12-1.344 2.114-1.344 1.806 0 2.94 1.47 2.94 3.78 0 2.31-1.134 3.78-2.94 3.78-.994 0-1.68-.448-2.114-1.344h-.056V336h-1.12zm2.982-.84c1.26 0 2.044-.868 2.044-2.156v-1.232c0-1.288-.784-2.156-2.044-2.156-1.022 0-1.862.588-1.862 1.386v2.688c0 .938.84 1.47 1.862 1.47zm7.854 1.008c-1.96 0-3.248-1.484-3.248-3.78s1.288-3.78 3.248-3.78c1.932 0 3.122 1.484 3.122 3.528v.532h-5.194v.336c0 1.246.798 2.184 2.142 2.184.91 0 1.61-.448 1.988-1.246l.798.574c-.462.98-1.498 1.652-2.856 1.652zm0-6.622c-1.218 0-2.072.924-2.072 2.184v.098h3.99v-.154c0-1.274-.77-2.128-1.918-2.128zm7.686 6.622c-1.96 0-3.248-1.484-3.248-3.78s1.288-3.78 3.248-3.78c1.932 0 3.122 1.484 3.122 3.528v.532h-5.194v.336c0 1.246.798 2.184 2.142 2.184.91 0 1.61-.448 1.988-1.246l.798.574c-.462.98-1.498 1.652-2.856 1.652zm0-6.622c-1.218 0-2.072.924-2.072 2.184v.098h3.99v-.154c0-1.274-.77-2.128-1.918-2.128zm6.09 6.454h-1.12v-7.224h1.12v1.176h.056c.35-.812.966-1.344 2.044-1.344 1.484 0 2.422 1.008 2.422 2.758V336h-1.12v-4.438c0-1.288-.56-1.946-1.638-1.946-.896 0-1.764.448-1.764 1.372V336zm14.756 0v-1.176h-.056c-.434.896-1.12 1.344-2.114 1.344-1.806 0-2.94-1.47-2.94-3.78 0-2.31 1.134-3.78 2.94-3.78.994 0 1.736.434 2.114 1.344h.056v-4.312h1.12V336h-1.12zm-1.862-.84c1.022 0 1.862-.532 1.862-1.47v-2.688c0-.798-.84-1.386-1.862-1.386-1.26 0-2.044.868-2.044 2.156v1.232c0 1.288.784 2.156 2.044 2.156zm8.078 1.008c-1.96 0-3.248-1.484-3.248-3.78s1.288-3.78 3.248-3.78c1.932 0 3.122 1.484 3.122 3.528v.532h-5.194v.336c0 1.246.798 2.184 2.142 2.184.91 0 1.61-.448 1.988-1.246l.798.574c-.462.98-1.498 1.652-2.856 1.652zm0-6.622c-1.218 0-2.072.924-2.072 2.184v.098h3.99v-.154c0-1.274-.77-2.128-1.918-2.128zm7.14 6.622c-1.33 0-2.212-.56-2.856-1.414l.798-.644c.56.7 1.232 1.106 2.142 1.106.952 0 1.512-.434 1.512-1.176 0-.56-.308-.994-1.26-1.134l-.574-.084c-1.33-.196-2.324-.742-2.324-2.086 0-1.428 1.106-2.128 2.576-2.128 1.162 0 1.932.434 2.52 1.162l-.742.672c-.322-.448-.938-.882-1.862-.882-.924 0-1.414.434-1.414 1.12 0 .7.49.98 1.386 1.12l.56.084c1.596.238 2.212.938 2.212 2.03 0 1.4-1.022 2.254-2.674 2.254zm7.336 0c-2.03 0-3.22-1.47-3.22-3.78 0-2.31 1.19-3.78 3.22-3.78 1.428 0 2.282.7 2.702 1.694l-.938.476c-.266-.742-.882-1.176-1.764-1.176-1.33 0-2.016.91-2.016 2.17v1.232c0 1.26.686 2.17 2.016 2.17.91 0 1.568-.434 1.96-1.26l.812.546c-.462 1.036-1.4 1.708-2.772 1.708zm5.474-.168h-1.12v-7.224h1.12v1.33h.07c.252-.686.91-1.33 2.086-1.33h.434v1.12h-.658c-1.204 0-1.932.518-1.932 1.204v4.9zm4.578-8.918c-.476 0-.686-.252-.686-.63v-.182c0-.378.21-.63.686-.63.476 0 .686.252.686.63v.182c0 .378-.21.63-.686.63zm-.56 8.918v-7.224h1.12V336h-1.12zm3.5 0v-10.36h1.12v4.312h.056c.378-.91 1.12-1.344 2.114-1.344 1.806 0 2.94 1.47 2.94 3.78 0 2.31-1.134 3.78-2.94 3.78-.994 0-1.68-.448-2.114-1.344h-.056V336h-1.12zm2.982-.84c1.26 0 2.044-.868 2.044-2.156v-1.232c0-1.288-.784-2.156-2.044-2.156-1.022 0-1.862.588-1.862 1.386v2.688c0 .938.84 1.47 1.862 1.47zm7.854 1.008c-1.96 0-3.248-1.484-3.248-3.78s1.288-3.78 3.248-3.78c1.932 0 3.122 1.484 3.122 3.528v.532h-5.194v.336c0 1.246.798 2.184 2.142 2.184.91 0 1.61-.448 1.988-1.246l.798.574c-.462.98-1.498 1.652-2.856 1.652zm0-6.622c-1.218 0-2.072.924-2.072 2.184v.098h3.99v-.154c0-1.274-.77-2.128-1.918-2.128zm9.59 6.454v-1.176h-.056c-.434.896-1.12 1.344-2.114 1.344-1.806 0-2.94-1.47-2.94-3.78 0-2.31 1.134-3.78 2.94-3.78.994 0 1.736.434 2.114 1.344h.056v-4.312h1.12V336h-1.12zm-1.862-.84c1.022 0 1.862-.532 1.862-1.47v-2.688c0-.798-.84-1.386-1.862-1.386-1.26 0-2.044.868-2.044 2.156v1.232c0 1.288.784 2.156 2.044 2.156zm14.546.84h-.63c-.826 0-1.162-.504-1.246-1.176h-.07c-.308.882-1.078 1.344-2.086 1.344-1.526 0-2.422-.84-2.422-2.184 0-1.358.98-2.114 3.08-2.114h1.428v-.714c0-1.022-.56-1.582-1.708-1.582-.868 0-1.442.42-1.834 1.078l-.672-.63c.392-.77 1.26-1.414 2.562-1.414 1.736 0 2.772.91 2.772 2.436v3.976h.826v.98zm-3.85-.784c1.106 0 1.904-.574 1.904-1.316v-1.19h-1.484c-1.274 0-1.848.392-1.848 1.092v.294c0 .714.56 1.12 1.428 1.12zm7.616.952c-1.33 0-2.212-.56-2.856-1.414l.798-.644c.56.7 1.232 1.106 2.142 1.106.952 0 1.512-.434 1.512-1.176 0-.56-.308-.994-1.26-1.134l-.574-.084c-1.33-.196-2.324-.742-2.324-2.086 0-1.428 1.106-2.128 2.576-2.128 1.162 0 1.932.434 2.52 1.162l-.742.672c-.322-.448-.938-.882-1.862-.882-.924 0-1.414.434-1.414 1.12 0 .7.49.98 1.386 1.12l.56.084c1.596.238 2.212.938 2.212 2.03 0 1.4-1.022 2.254-2.674 2.254zm10.948-.168h-1.4c-.77 0-1.19-.49-1.19-1.19v-5.054h-1.19v-.98h.672c.476 0 .63-.168.63-.658v-1.344h1.008v2.002h1.582v.98h-1.582v5.264h1.47v.98zm1.918 0v-10.36h1.12v4.312h.056c.35-.812.966-1.344 2.044-1.344 1.484 0 2.422 1.008 2.422 2.758V336h-1.12v-4.438c0-1.288-.56-1.946-1.638-1.946-.896 0-1.764.448-1.764 1.372V336h-1.12zm10.668.168c-1.96 0-3.248-1.484-3.248-3.78s1.288-3.78 3.248-3.78c1.932 0 3.122 1.484 3.122 3.528v.532h-5.194v.336c0 1.246.798 2.184 2.142 2.184.91 0 1.61-.448 1.988-1.246l.798.574c-.462.98-1.498 1.652-2.856 1.652zm0-6.622c-1.218 0-2.072.924-2.072 2.184v.098h3.99v-.154c0-1.274-.77-2.128-1.918-2.128zm10.962 6.622c-2.03 0-3.22-1.47-3.22-3.78 0-2.31 1.19-3.78 3.22-3.78 1.428 0 2.282.7 2.702 1.694l-.938.476c-.266-.742-.882-1.176-1.764-1.176-1.33 0-2.016.91-2.016 2.17v1.232c0 1.26.686 2.17 2.016 2.17.91 0 1.568-.434 1.96-1.26l.812.546c-.462 1.036-1.4 1.708-2.772 1.708zm7 0c-1.932 0-3.262-1.484-3.262-3.78s1.33-3.78 3.262-3.78 3.262 1.484 3.262 3.78-1.33 3.78-3.262 3.78zm0-.994c1.204 0 2.058-.742 2.058-2.268v-1.036c0-1.526-.854-2.268-2.058-2.268-1.204 0-2.058.742-2.058 2.268v1.036c0 1.526.854 2.268 2.058 2.268zm6.23.826h-1.12v-7.224h1.12v1.33h.07c.252-.686.91-1.33 2.086-1.33h.434v1.12h-.658c-1.204 0-1.932.518-1.932 1.204v4.9zm4.018 2.8v-10.024h1.12v1.176h.056c.378-.91 1.12-1.344 2.114-1.344 1.806 0 2.94 1.47 2.94 3.78 0 2.31-1.134 3.78-2.94 3.78-.994 0-1.68-.448-2.114-1.344h-.056v3.976h-1.12zm2.982-3.64c1.26 0 2.044-.868 2.044-2.156v-1.232c0-1.288-.784-2.156-2.044-2.156-1.022 0-1.862.588-1.862 1.386v2.688c0 .938.84 1.47 1.862 1.47zm7.868 1.008c-1.932 0-3.262-1.484-3.262-3.78s1.33-3.78 3.262-3.78 3.262 1.484 3.262 3.78-1.33 3.78-3.262 3.78zm0-.994c1.204 0 2.058-.742 2.058-2.268v-1.036c0-1.526-.854-2.268-2.058-2.268-1.204 0-2.058.742-2.058 2.268v1.036c0 1.526.854 2.268 2.058 2.268zm6.23.826h-1.12v-7.224h1.12v1.33h.07c.252-.686.91-1.33 2.086-1.33h.434v1.12h-.658c-1.204 0-1.932.518-1.932 1.204v4.9zm9.842 0h-.63c-.826 0-1.162-.504-1.246-1.176h-.07c-.308.882-1.078 1.344-2.086 1.344-1.526 0-2.422-.84-2.422-2.184 0-1.358.98-2.114 3.08-2.114h1.428v-.714c0-1.022-.56-1.582-1.708-1.582-.868 0-1.442.42-1.834 1.078l-.672-.63c.392-.77 1.26-1.414 2.562-1.414 1.736 0 2.772.91 2.772 2.436v3.976h.826v.98zm-3.85-.784c1.106 0 1.904-.574 1.904-1.316v-1.19h-1.484c-1.274 0-1.848.392-1.848 1.092v.294c0 .714.56 1.12 1.428 1.12zm8.442.784h-1.4c-.77 0-1.19-.49-1.19-1.19v-5.054h-1.19v-.98h.672c.476 0 .63-.168.63-.658v-1.344h1.008v2.002h1.582v.98h-1.582v5.264h1.47v.98zm4.578.168c-1.96 0-3.248-1.484-3.248-3.78s1.288-3.78 3.248-3.78c1.932 0 3.122 1.484 3.122 3.528v.532h-5.194v.336c0 1.246.798 2.184 2.142 2.184.91 0 1.61-.448 1.988-1.246l.798.574c-.462.98-1.498 1.652-2.856 1.652zm0-6.622c-1.218 0-2.072.924-2.072 2.184v.098h3.99v-.154c0-1.274-.77-2.128-1.918-2.128zm10.99 6.622c-1.96 0-3.248-1.484-3.248-3.78s1.288-3.78 3.248-3.78c1.932 0 3.122 1.484 3.122 3.528v.532h-5.194v.336c0 1.246.798 2.184 2.142 2.184.91 0 1.61-.448 1.988-1.246l.798.574c-.462.98-1.498 1.652-2.856 1.652zm0-6.622c-1.218 0-2.072.924-2.072 2.184v.098h3.99v-.154c0-1.274-.77-2.128-1.918-2.128zm9.59 9.254v-3.976h-.056c-.434.896-1.12 1.344-2.114 1.344-1.806 0-2.94-1.47-2.94-3.78 0-2.31 1.134-3.78 2.94-3.78.994 0 1.736.434 2.114 1.344h.056v-1.176h1.12V338.8h-1.12zm-1.862-3.64c1.022 0 1.862-.532 1.862-1.47v-2.688c0-.798-.84-1.386-1.862-1.386-1.26 0-2.044.868-2.044 2.156v1.232c0 1.288.784 2.156 2.044 2.156zm9.814.84v-1.176h-.056c-.28.686-.826 1.344-2.03 1.344-1.484 0-2.436-1.008-2.436-2.758v-4.634h1.12v4.438c0 1.288.574 1.946 1.652 1.946.882 0 1.75-.434 1.75-1.386v-4.998h1.12V336h-1.12zm4.06-8.918c-.476 0-.686-.252-.686-.63v-.182c0-.378.21-.63.686-.63.476 0 .686.252.686.63v.182c0 .378-.21.63-.686.63zm-.56 8.918v-7.224h1.12V336h-1.12zm6.398 0h-1.302l-2.534-7.224h1.12l1.26 3.584.784 2.464h.07l.784-2.464 1.288-3.584h1.078L642.384 336zm9.744 0h-.63c-.826 0-1.162-.504-1.246-1.176h-.07c-.308.882-1.078 1.344-2.086 1.344-1.526 0-2.422-.84-2.422-2.184 0-1.358.98-2.114 3.08-2.114h1.428v-.714c0-1.022-.56-1.582-1.708-1.582-.868 0-1.442.42-1.834 1.078l-.672-.63c.392-.77 1.26-1.414 2.562-1.414 1.736 0 2.772.91 2.772 2.436v3.976h.826v.98zm-3.85-.784c1.106 0 1.904-.574 1.904-1.316v-1.19h-1.484c-1.274 0-1.848.392-1.848 1.092v.294c0 .714.56 1.12 1.428 1.12zm7.63.784h-.994c-.77 0-1.19-.49-1.19-1.162v-9.198h1.12v9.38h1.064v.98zm4.34.168c-1.96 0-3.248-1.484-3.248-3.78s1.288-3.78 3.248-3.78c1.932 0 3.122 1.484 3.122 3.528v.532h-5.194v.336c0 1.246.798 2.184 2.142 2.184.91 0 1.61-.448 1.988-1.246l.798.574c-.462.98-1.498 1.652-2.856 1.652zm0-6.622c-1.218 0-2.072.924-2.072 2.184v.098h3.99v-.154c0-1.274-.77-2.128-1.918-2.128zm6.09 6.454h-1.12v-7.224h1.12v1.176h.056c.35-.812.966-1.344 2.044-1.344 1.484 0 2.422 1.008 2.422 2.758V336h-1.12v-4.438c0-1.288-.56-1.946-1.638-1.946-.896 0-1.764.448-1.764 1.372V336zm9.828 0h-1.4c-.77 0-1.19-.49-1.19-1.19v-5.054h-1.19v-.98h.672c.476 0 .63-.168.63-.658v-1.344h1.008v2.002h1.582v.98h-1.582v5.264h1.47v.98zM408.92 356.168c-1.932 0-3.262-1.484-3.262-3.78s1.33-3.78 3.262-3.78 3.262 1.484 3.262 3.78-1.33 3.78-3.262 3.78zm0-.994c1.204 0 2.058-.742 2.058-2.268v-1.036c0-1.526-.854-2.268-2.058-2.268-1.204 0-2.058.742-2.058 2.268v1.036c0 1.526.854 2.268 2.058 2.268zm5.418.826v-6.244h-1.176v-.98h1.176v-1.456c0-.994.518-1.68 1.582-1.68h1.092v.98h-1.554v2.156h1.554v.98h-1.554V356h-1.12zm10.444 0h-1.4c-.77 0-1.19-.49-1.19-1.19v-5.054h-1.19v-.98h.672c.476 0 .63-.168.63-.658v-1.344h1.008v2.002h1.582v.98h-1.582v5.264h1.47v.98zm1.918 0v-10.36h1.12v4.312h.056c.35-.812.966-1.344 2.044-1.344 1.484 0 2.422 1.008 2.422 2.758V356h-1.12v-4.438c0-1.288-.56-1.946-1.638-1.946-.896 0-1.764.448-1.764 1.372V356h-1.12zm10.668.168c-1.96 0-3.248-1.484-3.248-3.78s1.288-3.78 3.248-3.78c1.932 0 3.122 1.484 3.122 3.528v.532h-5.194v.336c0 1.246.798 2.184 2.142 2.184.91 0 1.61-.448 1.988-1.246l.798.574c-.462.98-1.498 1.652-2.856 1.652zm0-6.622c-1.218 0-2.072.924-2.072 2.184v.098h3.99v-.154c0-1.274-.77-2.128-1.918-2.128zM446.93 356h-1.176v-9.772h3.892c1.75 0 2.73 1.078 2.73 2.8 0 1.722-.98 2.8-2.73 2.8h-2.716V356zm0-8.736v3.528h2.716c.924 0 1.47-.504 1.47-1.4v-.728c0-.896-.546-1.4-1.47-1.4h-2.716zm9.632 8.904c-1.96 0-3.248-1.484-3.248-3.78s1.288-3.78 3.248-3.78c1.932 0 3.122 1.484 3.122 3.528v.532h-5.194v.336c0 1.246.798 2.184 2.142 2.184.91 0 1.61-.448 1.988-1.246l.798.574c-.462.98-1.498 1.652-2.856 1.652zm0-6.622c-1.218 0-2.072.924-2.072 2.184v.098h3.99v-.154c0-1.274-.77-2.128-1.918-2.128zm10.85 6.454h-.63c-.826 0-1.162-.504-1.246-1.176h-.07c-.308.882-1.078 1.344-2.086 1.344-1.526 0-2.422-.84-2.422-2.184 0-1.358.98-2.114 3.08-2.114h1.428v-.714c0-1.022-.56-1.582-1.708-1.582-.868 0-1.442.42-1.834 1.078l-.672-.63c.392-.77 1.26-1.414 2.562-1.414 1.736 0 2.772.91 2.772 2.436v3.976h.826v.98zm-3.85-.784c1.106 0 1.904-.574 1.904-1.316v-1.19h-1.484c-1.274 0-1.848.392-1.848 1.092v.294c0 .714.56 1.12 1.428 1.12zm8.134.952c-2.03 0-3.22-1.47-3.22-3.78 0-2.31 1.19-3.78 3.22-3.78 1.428 0 2.282.7 2.702 1.694l-.938.476c-.266-.742-.882-1.176-1.764-1.176-1.33 0-2.016.91-2.016 2.17v1.232c0 1.26.686 2.17 2.016 2.17.91 0 1.568-.434 1.96-1.26l.812.546c-.462 1.036-1.4 1.708-2.772 1.708zm6.986 0c-1.96 0-3.248-1.484-3.248-3.78s1.288-3.78 3.248-3.78c1.932 0 3.122 1.484 3.122 3.528v.532h-5.194v.336c0 1.246.798 2.184 2.142 2.184.91 0 1.61-.448 1.988-1.246l.798.574c-.462.98-1.498 1.652-2.856 1.652zm0-6.622c-1.218 0-2.072.924-2.072 2.184v.098h3.99v-.154c0-1.274-.77-2.128-1.918-2.128zm11.83 6.622c-2.464 0-3.934-1.736-3.934-4.998 0-3.262 1.47-5.11 3.934-5.11 1.624 0 2.744.784 3.36 2.142l-.952.574c-.392-1.008-1.204-1.666-2.408-1.666-1.68 0-2.674 1.33-2.674 3.332v1.456c0 2.002.994 3.22 2.674 3.22 1.246 0 2.1-.7 2.492-1.764l.938.588c-.616 1.372-1.806 2.226-3.43 2.226zm7.868 0c-1.932 0-3.262-1.484-3.262-3.78s1.33-3.78 3.262-3.78 3.262 1.484 3.262 3.78-1.33 3.78-3.262 3.78zm0-.994c1.204 0 2.058-.742 2.058-2.268v-1.036c0-1.526-.854-2.268-2.058-2.268-1.204 0-2.058.742-2.058 2.268v1.036c0 1.526.854 2.268 2.058 2.268zm6.23.826h-1.12v-7.224h1.12v1.33h.07c.252-.686.91-1.33 2.086-1.33h.434v1.12h-.658c-1.204 0-1.932.518-1.932 1.204v4.9zm4.018 2.8v-10.024h1.12v1.176h.056c.378-.91 1.12-1.344 2.114-1.344 1.806 0 2.94 1.47 2.94 3.78 0 2.31-1.134 3.78-2.94 3.78-.994 0-1.68-.448-2.114-1.344h-.056v3.976h-1.12zm2.982-3.64c1.26 0 2.044-.868 2.044-2.156v-1.232c0-1.288-.784-2.156-2.044-2.156-1.022 0-1.862.588-1.862 1.386v2.688c0 .938.84 1.47 1.862 1.47zm7.308 1.008c-1.33 0-2.212-.56-2.856-1.414l.798-.644c.56.7 1.232 1.106 2.142 1.106.952 0 1.512-.434 1.512-1.176 0-.56-.308-.994-1.26-1.134l-.574-.084c-1.33-.196-2.324-.742-2.324-2.086 0-1.428 1.106-2.128 2.576-2.128 1.162 0 1.932.434 2.52 1.162l-.742.672c-.322-.448-.938-.882-1.862-.882-.924 0-1.414.434-1.414 1.12 0 .7.49.98 1.386 1.12l.56.084c1.596.238 2.212.938 2.212 2.03 0 1.4-1.022 2.254-2.674 2.254zm7.924-4.536c0-2.702 1.106-5.054 2.534-6.272h1.064c-1.554 1.4-2.548 3.724-2.548 5.684v1.204c0 1.96 1.036 4.326 2.548 5.67h-1.064c-1.386-1.176-2.534-3.556-2.534-6.286zm8.274 4.536c-2.464 0-3.934-1.736-3.934-4.998 0-3.262 1.47-5.11 3.934-5.11 1.624 0 2.744.784 3.36 2.142l-.952.574c-.392-1.008-1.204-1.666-2.408-1.666-1.68 0-2.674 1.33-2.674 3.332v1.456c0 2.002.994 3.22 2.674 3.22 1.246 0 2.1-.7 2.492-1.764l.938.588c-.616 1.372-1.806 2.226-3.43 2.226zm7.994 0c-1.568 0-2.674-.644-3.458-1.708l.868-.728c.686.91 1.498 1.4 2.632 1.4 1.4 0 2.156-.728 2.156-1.848 0-.924-.518-1.386-1.806-1.68l-.798-.182c-1.778-.406-2.758-1.19-2.758-2.688 0-1.736 1.316-2.674 3.234-2.674 1.47 0 2.506.56 3.234 1.596l-.882.644c-.532-.742-1.274-1.204-2.408-1.204-1.246 0-2.016.546-2.016 1.596 0 .924.602 1.344 1.834 1.624l.798.182c1.904.434 2.73 1.274 2.73 2.73 0 1.792-1.26 2.94-3.36 2.94zm8.834 0c-2.464 0-3.934-1.736-3.934-4.998 0-3.262 1.47-5.11 3.934-5.11 1.624 0 2.744.784 3.36 2.142l-.952.574c-.392-1.008-1.204-1.666-2.408-1.666-1.68 0-2.674 1.33-2.674 3.332v1.456c0 2.002.994 3.22 2.674 3.22 1.246 0 2.1-.7 2.492-1.764l.938.588c-.616 1.372-1.806 2.226-3.43 2.226zm5.852 0c-.588 0-.854-.336-.854-.812v-.182c0-.476.266-.812.854-.812s.854.336.854.812v.182c0 .476-.266.812-.854.812zm5.432-4.536c0 2.73-1.148 5.11-2.534 6.286h-1.064c1.512-1.344 2.548-3.71 2.548-5.67v-1.204c0-1.96-.994-4.284-2.548-5.684h1.064c1.428 1.218 2.534 3.57 2.534 6.272z" fill="#3D3D3D"/><path d="M56 50v357" stroke="#24A249" stroke-width="2" stroke-linecap="square"/></g></svg>