<svg id="Layer_1" data-name="Layer 1" xmlns="http://www.w3.org/2000/svg" viewBox="0 0 288 288"><defs><style>.cls-1{fill:#fff;}.cls-2,.cls-3,.cls-5{fill:none;}.cls-2{stroke:#dcdcdc;}.cls-2,.cls-5{stroke-miterlimit:10;stroke-width:0.5px;}.cls-4{fill:#f3f3f3;}.cls-5{stroke:#3d3d3d;}</style></defs><title>Artboard 18 copy 90</title><rect class="cls-1" width="288" height="288"/><rect class="cls-2" x="53.36" y="53.36" width="5.66" height="181.2"/><rect class="cls-2" x="59.03" y="53.36" width="5.66" height="181.2"/><rect class="cls-2" x="64.69" y="53.36" width="5.66" height="181.2"/><rect class="cls-2" x="70.35" y="53.36" width="5.66" height="181.2"/><rect class="cls-2" x="76.01" y="53.36" width="5.66" height="181.2"/><rect class="cls-2" x="81.68" y="53.36" width="5.66" height="181.2"/><rect class="cls-2" x="87.34" y="53.36" width="5.66" height="181.2"/><rect class="cls-2" x="93" y="53.36" width="5.66" height="181.2"/><rect class="cls-2" x="98.66" y="53.36" width="5.66" height="181.2"/><rect class="cls-2" x="104.33" y="53.36" width="5.66" height="181.2"/><rect class="cls-2" x="109.99" y="53.36" width="5.66" height="181.2"/><rect class="cls-2" x="115.65" y="53.36" width="5.66" height="181.2"/><rect class="cls-2" x="121.31" y="53.36" width="5.66" height="181.2"/><rect class="cls-2" x="126.98" y="53.36" width="5.66" height="181.2"/><rect class="cls-2" x="132.64" y="53.36" width="5.66" height="181.2"/><rect class="cls-2" x="138.3" y="53.36" width="5.66" height="181.2"/><rect class="cls-2" x="143.96" y="53.36" width="5.66" height="181.2"/><rect class="cls-2" x="149.63" y="53.36" width="5.66" height="181.2"/><rect class="cls-2" x="155.29" y="53.36" width="5.66" height="181.2"/><rect class="cls-2" x="160.95" y="53.36" width="5.66" height="181.2"/><rect class="cls-2" x="166.61" y="53.36" width="5.66" height="181.2"/><rect class="cls-2" x="172.28" y="53.36" width="5.66" height="181.2"/><rect class="cls-2" x="177.94" y="53.36" width="5.66" height="181.2"/><rect class="cls-2" x="183.6" y="53.36" width="5.66" height="181.2"/><rect class="cls-2" x="189.26" y="53.36" width="5.66" height="181.2"/><rect class="cls-2" x="194.93" y="53.36" width="5.66" height="181.2"/><rect class="cls-2" x="200.59" y="53.36" width="5.66" height="181.2"/><rect class="cls-2" x="206.25" y="53.36" width="5.66" height="181.2"/><rect class="cls-2" x="211.91" y="53.36" width="5.66" height="181.2"/><rect class="cls-2" x="217.58" y="53.36" width="5.66" height="181.2"/><rect class="cls-2" x="223.24" y="53.36" width="5.66" height="181.2"/><rect class="cls-2" x="228.9" y="53.36" width="5.66" height="181.2"/><rect class="cls-2" x="141.13" y="-34.4" width="5.66" height="181.2" transform="translate(200.16 -87.77) rotate(90)"/><rect class="cls-2" x="141.13" y="-28.74" width="5.66" height="181.2" transform="translate(205.82 -82.11) rotate(90)"/><rect class="cls-2" x="141.13" y="-23.08" width="5.66" height="181.2" transform="translate(211.48 -76.44) rotate(90)"/><rect class="cls-2" x="141.13" y="-17.42" width="5.66" height="181.2" transform="translate(217.15 -70.78) rotate(90)"/><rect class="cls-2" x="141.13" y="-11.75" width="5.66" height="181.2" transform="translate(222.81 -65.12) rotate(90)"/><rect class="cls-2" x="141.13" y="-6.09" width="5.66" height="181.2" transform="translate(228.47 -59.46) rotate(90)"/><rect class="cls-2" x="141.13" y="-0.43" width="5.66" height="181.2" transform="translate(234.13 -53.79) rotate(90)"/><rect class="cls-2" x="141.13" y="5.23" width="5.66" height="181.2" transform="translate(239.8 -48.13) rotate(90)"/><rect class="cls-2" x="141.13" y="10.9" width="5.66" height="181.2" transform="translate(245.46 -42.47) rotate(90)"/><rect class="cls-2" x="141.13" y="16.56" width="5.66" height="181.2" transform="translate(251.12 -36.81) rotate(90)"/><rect class="cls-2" x="141.13" y="22.22" width="5.66" height="181.2" transform="translate(256.78 -31.14) rotate(90)"/><rect class="cls-2" x="141.13" y="27.88" width="5.66" height="181.2" transform="translate(262.45 -25.48) rotate(90)"/><rect class="cls-2" x="141.13" y="33.55" width="5.66" height="181.2" transform="translate(268.11 -19.82) rotate(90)"/><rect class="cls-2" x="141.13" y="39.21" width="5.66" height="181.2" transform="translate(273.77 -14.16) rotate(90)"/><rect class="cls-2" x="141.13" y="44.87" width="5.66" height="181.2" transform="translate(279.43 -8.49) rotate(90)"/><rect class="cls-2" x="141.13" y="50.53" width="5.66" height="181.2" transform="translate(285.1 -2.83) rotate(90)"/><rect class="cls-2" x="141.13" y="56.19" width="5.66" height="181.2" transform="translate(290.76 2.83) rotate(90)"/><rect class="cls-2" x="141.13" y="61.86" width="5.66" height="181.2" transform="translate(296.42 8.49) rotate(90)"/><rect class="cls-2" x="141.13" y="67.52" width="5.66" height="181.2" transform="translate(302.08 14.16) rotate(90)"/><rect class="cls-2" x="141.13" y="73.18" width="5.66" height="181.2" transform="translate(307.75 19.82) rotate(90)"/><rect class="cls-2" x="141.13" y="78.84" width="5.66" height="181.2" transform="translate(313.41 25.48) rotate(90)"/><rect class="cls-2" x="141.13" y="84.51" width="5.66" height="181.2" transform="translate(319.07 31.14) rotate(90)"/><rect class="cls-2" x="141.13" y="90.17" width="5.66" height="181.2" transform="translate(324.73 36.81) rotate(90)"/><rect class="cls-2" x="141.13" y="95.83" width="5.66" height="181.2" transform="translate(330.4 42.47) rotate(90)"/><rect class="cls-2" x="141.13" y="101.49" width="5.66" height="181.2" transform="translate(336.06 48.13) rotate(90)"/><rect class="cls-2" x="141.13" y="107.16" width="5.66" height="181.2" transform="translate(341.72 53.79) rotate(90)"/><rect class="cls-2" x="141.13" y="112.82" width="5.66" height="181.2" transform="translate(347.38 59.46) rotate(90)"/><rect class="cls-2" x="141.13" y="118.48" width="5.66" height="181.2" transform="translate(353.05 65.12) rotate(90)"/><rect class="cls-2" x="141.13" y="124.14" width="5.66" height="181.2" transform="translate(358.71 70.78) rotate(90)"/><rect class="cls-2" x="141.13" y="129.81" width="5.66" height="181.2" transform="translate(364.37 76.44) rotate(90)"/><rect class="cls-2" x="141.13" y="135.47" width="5.66" height="181.2" transform="translate(370.03 82.11) rotate(90)"/><rect class="cls-2" x="141.13" y="141.13" width="5.66" height="181.2" transform="translate(375.7 87.77) rotate(90)"/><rect x="76.01" y="76.01" width="135.9" height="135.9"/><rect class="cls-3" x="98.81" y="98.66" width="90.46" height="90.46"/><path class="cls-4" d="M104.42,129.29h11.89c8.37,0,13.89,5.29,13.89,15.78s-5.52,15.78-13.89,15.78H104.42Zm11.89,25.46c4.07,0,6.6-2.22,6.6-7.24v-4.88c0-5-2.53-7.24-6.6-7.24h-5v19.36Z"/><path class="cls-4" d="M135.58,127.39h6.69v13.7h.23a6.43,6.43,0,0,1,6.38-4.52c6,0,9.13,4.34,9.13,12.39s-3.12,12.44-9.13,12.44a6.49,6.49,0,0,1-6.38-4.53h-.23v4h-6.69ZM151.05,151v-4.12c0-3-1.86-4.93-4.39-4.93s-4.39,1.32-4.39,3.49v7c0,2.17,1.86,3.48,4.39,3.48S151.05,154,151.05,151Z"/><path class="cls-4" d="M184.88,160.85H162.53v-6.19l9.73-8.32c3.53-3,4.75-4.8,4.75-7.47v-.63c0-2.4-2.13-3.62-4.16-3.62-3,0-4.44,2-5.07,4.43l-5.92-2.26c1.4-4.38,5.06-8,11.62-8,6.83,0,10.76,4,10.76,9.5s-3.89,8.73-8.41,12.3L170,155.16h14.93Z"/><rect class="cls-5" x="98.66" y="98.66" width="90.6" height="90.6"/></svg>