<?xml version="1.0" encoding="utf-8"?>
<!-- Generator: Adobe Illustrator 22.1.0, SVG Export Plug-In . SVG Version: 6.00 Build 0)  -->
<svg version="1.1" id="Layer_1" xmlns="http://www.w3.org/2000/svg" xmlns:xlink="http://www.w3.org/1999/xlink" x="0px" y="0px"
	 viewBox="0 0 448 448" style="enable-background:new 0 0 448 448;" xml:space="preserve">
<style type="text/css">
	.st0{fill:#FFFFFF;}
	.st1{fill:none;}
	.st2{fill:url(#SVGID_1_);}
	.st3{fill:url(#SVGID_2_);}
	.st4{fill:url(#SVGID_3_);}
	.st5{fill:#F3F3F3;}
</style>
<title>Artboard 5 copy 30</title>
<rect class="st0" width="448" height="448"/>
<rect x="123.3" y="123.6" class="st1" width="201.7" height="201.8"/>
<rect x="123.3" y="123.6" class="st1" width="201.7" height="201.8"/>
<path d="M309.6,357c5.9-1,11.6-2.8,16.9-5.5c5.3-2.7,10.2-6.2,14.4-10.3c0.1-0.1,0.1-0.1,0.2-0.2c4.2-4.2,7.7-9.1,10.3-14.4
	c2.7-5.3,4.5-11,5.5-16.9c1-5.9,1.5-11.8,1.5-17.8c0.1-2.7,0.1-5.5,0.1-17.9v-99.6c0-12.4-0.1-15.1-0.1-17.9
	c-0.1-6-0.6-11.9-1.5-17.8c-1-5.9-2.8-11.6-5.5-16.9c-2.7-5.3-6.2-10.2-10.3-14.4l-0.2-0.2c-4.2-4.2-9.1-7.7-14.4-10.3
	c-5.3-2.7-11-4.5-16.9-5.5c-5.9-1-11.8-1.5-17.8-1.6c-2.7-0.1-5.5-0.1-17.9-0.1h-99.6c-12.4,0-15.1,0.1-17.9,0.1
	c-6,0.1-11.9,0.6-17.8,1.6c-5.9,1-11.6,2.8-16.9,5.5c-5.3,2.7-10.2,6.2-14.4,10.3l-0.2,0.2c-4.2,4.2-7.7,9.1-10.3,14.4
	c-2.7,5.3-4.5,11-5.5,16.9c-1,5.9-1.5,11.8-1.6,17.8c-0.1,2.7-0.1,5.4-0.1,17.9V274c0,12.4,0.1,15.1,0.1,17.9
	c0.1,6,0.6,11.9,1.6,17.8c1,5.9,2.8,11.6,5.5,16.9c2.7,5.3,6.2,10.2,10.3,14.4l0.2,0.2c4.2,4.2,9.1,7.7,14.4,10.3
	c5.3,2.7,11,4.5,16.9,5.5c5.9,1,11.8,1.5,17.8,1.5c2.7,0.1,5.4,0.1,17.9,0.1H274c12.4,0,15.1-0.1,17.9-0.1
	C297.8,358.5,303.7,358,309.6,357z"/>
<g>
	<linearGradient id="SVGID_1_" gradientUnits="userSpaceOnUse" x1="167.2578" y1="281.1972" x2="167.2578" y2="148.7988">
		<stop  offset="0.1" style="stop-color:#0072C3"/>
		<stop  offset="0.9" style="stop-color:#20D5D2"/>
	</linearGradient>
	<path class="st2" d="M167.3,148.8c-10.4,0-18.9,8.5-18.9,18.9v113.5h37.8V167.7C186.2,157.3,177.7,148.8,167.3,148.8z"/>
	<linearGradient id="SVGID_2_" gradientUnits="userSpaceOnUse" x1="224" y1="300.1112" x2="224" y2="167.7128">
		<stop  offset="0.1" style="stop-color:#20D5D2"/>
		<stop  offset="0.9" style="stop-color:#0072C3"/>
	</linearGradient>
	<path class="st3" d="M205.1,167.7v113.5c0,10.4,8.5,18.9,18.9,18.9s18.9-8.5,18.9-18.9V167.7H205.1z"/>
	<linearGradient id="SVGID_3_" gradientUnits="userSpaceOnUse" x1="280.7422" y1="281.1972" x2="280.7422" y2="148.7988">
		<stop  offset="0.1" style="stop-color:#0072C3"/>
		<stop  offset="0.9" style="stop-color:#20D5D2"/>
	</linearGradient>
	<path class="st4" d="M280.7,148.8c-10.4,0-18.9,8.5-18.9,18.9v113.5h37.8V167.7C299.7,157.3,291.2,148.8,280.7,148.8z"/>
	<circle class="st5" cx="224" cy="167.7" r="18.9"/>
	<circle class="st5" cx="280.7" cy="281.2" r="18.9"/>
	<circle class="st5" cx="167.3" cy="281.2" r="18.9"/>
</g>
</svg>
