<?xml version="1.0" encoding="utf-8"?>
<!-- Generator: Adobe Illustrator 20.0.0, SVG Export Plug-In . SVG Version: 6.00 Build 0)  -->
<svg version="1.1" id="Layer_1" xmlns="http://www.w3.org/2000/svg" xmlns:xlink="http://www.w3.org/1999/xlink" x="0px" y="0px"
	 width="1376px" height="773.2px" viewBox="0 0 1376 773.2" style="enable-background:new 0 0 1376 773.2;" xml:space="preserve">
<style type="text/css">
	.st0{fill:#FFFFFF;}
	.st1{fill:#F3F3F3;}
	.st2{fill:none;stroke:#97C1FF;}
	.st3{fill:#0F6FFF;}
	.st4{font-family:'IBMPlexSans';}
	.st5{font-size:23.6994px;}
	.st6{fill:#97C1FF;}
</style>
<title>Group 133</title>
<desc>Created with Sketch.</desc>
<g id="Desktop">
	<g id="Icons-Copy-4" transform="translate(-351.000000, -12467.000000)">
		<g id="Group-133" transform="translate(351.000000, 12467.000000)">
			<rect id="Rectangle-12-Copy-2" x="1.5" class="st0" width="1374.6" height="773.2"/>
			<rect id="Combined-Shape" x="1.5" y="108.1" class="st1" width="314" height="555.5"/>
			<rect id="Rectangle-12-Copy-4" x="1068" y="108.1" class="st1" width="308.1" height="555.5"/>
			<polygon id="Rectangle-12-Copy-2_1_" class="st1" points="0,0 1376,0 1376,130.3 0,130.3 			"/>
			<polygon id="Rectangle-12-Copy-3" class="st1" points="1.5,638.4 1376,638.4 1376,771.7 1.5,771.7 			"/>
			<g id="Group-19" transform="translate(212.000000, 89.000000)">
				<path id="Rectangle" class="st2" d="M689.3,43.6v167.4h167.4V43.6H689.3z"/>
				<path id="Rectangle-Copy-4" class="st2" d="M271.6,212.4v167.4h416.2V212.4H271.6z"/>
				<path id="Rectangle-Copy-2" class="st2" d="M689.3,381.3v167.4h167.4V381.3H689.3z"/>
				<path id="Rectangle-Copy" class="st2" d="M102.8,43.6v167.4h167.4V43.6H102.8z"/>
				<path id="Rectangle-Copy-3" class="st2" d="M102.8,381.3v167.4h167.4V381.3H102.8z"/>
				<text transform="matrix(1 0 0 1 113.8662 69.4897)" class="st3 st4 st5">x</text>
				<text transform="matrix(1 0 0 1 113.8662 407.2051)" class="st3 st4 st5">x</text>
				<text transform="matrix(1 0 0 1 701.9062 407.2051)" class="st3 st4 st5">x</text>
				<text transform="matrix(1 0 0 1 701.9062 69.4897)" class="st3 st4 st5">x</text>
				<path id="Line-2-Copy-7" class="st6" d="M186.4,210.9l-6.7,13.3h13.3L186.4,210.9z M185.7,223.5v53.3v0.7h1.5v-0.7v-53.3v-0.7
					h-1.5V223.5z"/>
				<path id="Line-2-Copy-8" class="st6" d="M187.5,379.9V315H186v64.9H187.5z M186,379.9h1.5V315H186V379.9z"/>
				<text transform="matrix(1 0 0 1 182.002 299.0781)" class="st3 st4 st5">x</text>
				<g id="Group" transform="translate(113.971326, 114.437683)">
					<polygon id="Rectangle-path" points="156.9,253.2 238.1,253.2 238.1,264.8 156.9,264.8 					"/>
					<polygon id="Rectangle-path_1_" points="156.9,231 238.1,231 238.1,242.6 156.9,242.6 					"/>
					<polygon id="Rectangle-path_2_" points="180.1,208.8 214.9,208.8 214.9,220.5 180.1,220.5 					"/>
					<polygon id="Rectangle-path_3_" points="180.1,186.6 214.9,186.6 214.9,198.3 180.1,198.3 					"/>
					<polygon id="Rectangle-path_4_" points="180.1,164.5 214.9,164.5 214.9,176.1 180.1,176.1 					"/>
					<polygon id="Rectangle-path_5_" points="180.1,142.3 214.9,142.3 214.9,153.9 180.1,153.9 					"/>
					<rect id="Rectangle-path_6_" x="156.9" y="120.1" width="81.2" height="11.6"/>
					<rect id="Rectangle-path_7_" x="156.9" y="97.9" width="81.2" height="11.6"/>
					<path id="Shape" d="M249.7,242.6h124.9c2.1-3.6,3.7-7.5,4.6-11.6H249.7V242.6z"/>
					<path id="Shape_1_" d="M364.9,186.6h-92v11.6h101.7C372,193.8,368.7,189.9,364.9,186.6z"/>
					<path id="Shape_2_" d="M272.9,164.5v11.6h92c3.9-3.3,7.2-7.2,9.7-11.6H272.9z"/>
					<path id="Shape_3_" d="M374.6,120.1H249.7v11.6h129.6C378.2,127.6,376.6,123.7,374.6,120.1z"/>
					<path id="Shape_4_" d="M336.2,97.9h-86.5v11.6h116.4C358.3,102.3,347.7,97.9,336.2,97.9z"/>
					<polygon id="Rectangle-path_8_" points="272.9,142.3 307.7,142.3 307.7,153.9 272.9,153.9 					"/>
					<path id="Shape_5_" d="M342.5,153.9h36.4c1.1-3.7,1.6-7.6,1.6-11.6h-38V153.9z"/>
					<polygon id="Rectangle-path_9_" points="272.9,208.8 307.7,208.8 307.7,220.5 272.9,220.5 					"/>
					<path id="Shape_6_" d="M342.5,208.8v11.6h38c0-4-0.5-7.9-1.6-11.6H342.5z"/>
					<path id="Shape_7_" d="M249.7,264.7l86.5,0.1c11.6,0,22-4.4,29.9-11.6H249.7V264.7z"/>
					<polygon id="Rectangle-path_10_" points="389,253.2 447,253.2 447,264.8 389,264.8 					"/>
					<polygon id="Rectangle-path_11_" points="389,231 447,231 447,242.6 389,242.6 					"/>
					<polygon id="Rectangle-path_12_" points="412.2,208.8 447,208.8 447,220.5 412.2,220.5 					"/>
					<polygon id="Rectangle-path_13_" points="412.2,186.6 447,186.6 447,198.3 412.2,198.3 					"/>
					<polygon id="Shape_8_" points="463.1,120.1 389,120.1 389,131.7 467.1,131.7 					"/>
					<polygon id="Shape_9_" points="455.4,97.9 389,97.9 389,109.5 459.4,109.5 					"/>
					<polygon id="Rectangle-path_14_" points="516.6,253.2 574.6,253.2 574.6,264.8 516.6,264.8 					"/>
					<polygon id="Rectangle-path_15_" points="516.6,231 574.6,231 574.6,242.6 516.6,242.6 					"/>
					<polygon id="Rectangle-path_16_" points="516.6,208.8 551.4,208.8 551.4,220.5 516.6,220.5 					"/>
					<polygon id="Rectangle-path_17_" points="516.6,186.6 551.4,186.6 551.4,198.3 516.6,198.3 					"/>
					<polygon id="Shape_10_" points="516.6,176.1 551.4,176.1 551.4,164.5 516.6,164.5 516.6,164.5 485.1,164.5 481.8,173.9 
						478.5,164.5 447,164.5 447,164.5 412.2,164.5 412.2,176.1 447,176.1 447,165.4 450.7,176.1 512.9,176.1 516.6,165.4 					"/>
					<polygon id="Shape_11_" points="551.4,142.3 492.8,142.3 488.8,153.9 551.4,153.9 					"/>
					<polygon id="Shape_12_" points="508.2,97.9 504.2,109.5 574.6,109.5 574.6,97.9 					"/>
					<polygon id="Shape_13_" points="481.8,264.7 485.8,253.2 477.8,253.2 					"/>
					<polygon id="Shape_14_" points="474.1,242.6 489.5,242.6 493.6,231 470,231 					"/>
					<polygon id="Shape_15_" points="466.3,220.5 497.3,220.5 501.4,208.8 462.2,208.8 					"/>
					<polygon id="Shape_16_" points="458.5,198.3 505.1,198.3 509.1,186.6 454.5,186.6 					"/>
					<polygon id="Shape_17_" points="412.2,153.9 474.8,153.9 470.8,142.3 412.2,142.3 					"/>
					<polygon id="Shape_18_" points="496.5,131.7 574.6,131.7 574.6,120.1 500.5,120.1 					"/>
				</g>
			</g>
		</g>
	</g>
</g>
</svg>
