<?xml version="1.0" encoding="UTF-8"?>
<svg width="288px" height="288px" viewBox="0 0 288 288" version="1.1" xmlns="http://www.w3.org/2000/svg" xmlns:xlink="http://www.w3.org/1999/xlink">
    <!-- Generator: Sketch 51.3 (57544) - http://www.bohemiancoding.com/sketch -->
    <title>Group 40</title>
    <desc>Created with Sketch.</desc>
    <defs></defs>
    <g id="Desktop" stroke="none" stroke-width="1" fill="none" fill-rule="evenodd">
        <g id="Icons-Copy-2" transform="translate(-672.000000, -7657.000000)">
            <g id="Group-40" transform="translate(672.000000, 7657.000000)">
                <g id="Group-74" fill="#FFFFFF">
                    <polygon id="Background" points="0 0 288 0 288 288 0 288"></polygon>
                </g>
                <g id="Group-26" transform="translate(44.000000, 120.000000)" fill="#000000">
                    <g id="Group-16" transform="translate(63.897959, 2.000000)">
                        <path d="M35.0408163,4.49966605 C35.0408163,6.98493506 32.7340805,9 29.8881375,9 C27.0421945,9 24.7346939,6.98493506 24.7346939,4.49966605 C24.7346939,2.01439703 27.0421945,0 29.8881375,0 C32.7340805,0 35.0408163,2.01439703 35.0408163,4.49966605" id="Fill-8"></path>
                        <path d="M48.4387755,4.49966605 C48.4387755,6.98493506 46.1312748,9 43.2860967,9 C40.4393889,9 38.1326531,6.98493506 38.1326531,4.49966605 C38.1326531,2.01439703 40.4393889,0 43.2860967,0 C46.1312748,0 48.4387755,2.01439703 48.4387755,4.49966605" id="Fill-10"></path>
                        <path d="M6.41613338,21.713752 L24.7346939,15 L18.558416,31.2606966 C17.3863223,34.1575268 14.4321026,37 9.44390872,37 C4.25103815,37 0,33.4853562 0,29.1798843 C0,25.5326624 2.70397048,23.0945522 6.41613338,21.713752" id="Fill-12"></path>
                        <path d="M66.757336,21.713752 L48.4387755,15 L54.6150534,31.2606966 C55.7871471,34.1575268 58.7565576,36.9993371 63.7607419,36.9993371 C63.7647395,36.9993371 63.7679375,37 63.7711356,37 C68.9640062,37 73.1734694,33.4853562 73.1734694,29.1798843 C73.1734694,25.5326624 70.4694989,23.0945522 66.757336,21.713752" id="Fill-14"></path>
                        <path d="M46.377551,17 C44.5592129,13.4631429 40.6203888,11 36.0593582,11 C31.494434,11 27.5813081,13.4595876 25.7653061,17 L46.377551,17 Z" id="Fill-16"></path>
                        <polygon id="Fill-18" points="48.4371547 26 24.7346939 26 24.7346939 21 48.4387755 21"></polygon>
                        <polygon id="Fill-20" points="48.4371547 35 24.7346939 35 24.7346939 30 48.4387755 30"></polygon>
                        <path d="M26.7959184,40 C28.6142565,42.9473809 32.5523018,45 37.1141112,45 C41.6790354,45 45.5913826,42.9503437 47.4081633,40 L26.7959184,40 Z" id="Fill-22"></path>
                    </g>
                    <polygon id="Fill-25" points="171.081952 46 172.112245 43 170.05102 43"></polygon>
                    <polygon id="Fill-27" points="169.234191 41 173.96045 41 175.204082 38 167.989796 38"></polygon>
                    <polygon id="Fill-29" points="166.184119 35 175.979146 35 177.265306 32 164.897959 32"></polygon>
                    <polygon id="Fill-31" points="164.140918 29 179.05296 29 180.357143 26 162.836735 26"></polygon>
                    <polygon id="Fill-33" points="149.438776 17 169.020408 17 167.760378 14 149.438776 14"></polygon>
                    <polygon id="Fill-35" points="175.799916 10.9369541 201.202104 10.9369541 201.202104 8.29919264 177.110363 8.29919264"></polygon>
                    <polygon id="Fill-38" points="179.593453 2 178.295918 5 200.969388 5 200.969388 2"></polygon>
                    <polygon id="Fill-40" points="142.22449 46 160.77551 46 160.77551 43 142.22449 43"></polygon>
                    <polygon id="Fill-42" points="142.22449 41 160.77551 41 160.77551 38 142.22449 38"></polygon>
                    <polygon id="Fill-43" points="149.438776 35 160.77551 35 160.77551 32 149.438776 32"></polygon>
                    <polygon id="Fill-44" points="149.438776 29 160.77551 29 160.77551 26 149.438776 26"></polygon>
                    <polygon id="Fill-45" points="192.72449 14 174.402887 14 173.142857 17 192.72449 17"></polygon>
                    <polygon id="Fill-46" points="182.418367 29 193.755102 29 193.755102 26 182.418367 26"></polygon>
                    <polygon id="Fill-47" points="182.418367 35 193.755102 35 193.755102 32 182.418367 32"></polygon>
                    <polygon id="Fill-48" points="182.418367 41 200.969388 41 200.969388 38 182.418367 38"></polygon>
                    <polygon id="Fill-49" points="182.418367 46 200.969388 46 200.969388 43 182.418367 43"></polygon>
                    <polygon id="Fill-50" points="166.959184 11 165.683172 8 142.22449 8 142.22449 11"></polygon>
                    <polygon id="Fill-51" points="164.897959 5 163.600471 2 142.22449 2 142.22449 5"></polygon>
                    <polygon id="Fill-52" points="182.676219 23 193.755102 23 193.755102 20 182.676219 20 172.635261 20 171.597337 22.4252155 170.558617 20 149.438776 20 149.438776 23 160.517658 23 160.517658 20.2431034 161.709201 23 181.484676 23 182.676219 20.24375"></polygon>
                    <g id="Group-23">
                        <path d="M36.0714286,31 C36.0714286,34.314 32.8418333,37 28.8571429,37 C24.8724524,37 21.6428571,34.314 21.6428571,31 C21.6428571,27.686 24.8724524,25 28.8571429,25 C32.8418333,25 36.0714286,27.686 36.0714286,31" id="Fill-1"></path>
                        <path d="M28.8571429,45 C19.8921905,45 12.625,38.956 12.625,31.5 C12.625,24.044 19.8921905,18 28.8571429,18 C37.8220952,18 45.0892857,24.044 45.0892857,31.5 C45.0892857,38.956 37.8220952,45 28.8571429,45 M28.8571429,15 C15.8818492,15 4.75100794,21.8046667 0,31.5 C4.75100794,41.1953333 15.8818492,48 28.8571429,48 C41.8324365,48 52.9632778,41.1953333 57.7142857,31.5 C52.9632778,21.8046667 41.8324365,15 28.8571429,15" id="Fill-3"></path>
                        <g id="Group-7" transform="translate(2.061224, 0.000000)">
                            <path d="M27.0709195,-0.000129938986 C15.6055889,-0.000129938986 5.5925335,5.28838679 0.199050879,13.1561924 L0.199050879,17.5416332 C6.61804362,11.2889692 16.2720113,7.30893802 27.0709195,7.30893802 C37.8698278,7.30893802 47.5237955,11.2889692 53.9427882,17.5416332 L53.9427882,13.1561924 C48.5493056,5.28838679 38.5362502,-0.000129938986 27.0709195,-0.000129938986" id="Fill-5"></path>
                        </g>
                    </g>
                </g>
            </g>
        </g>
    </g>
</svg>