<svg xmlns="http://www.w3.org/2000/svg" xmlns:xlink="http://www.w3.org/1999/xlink" viewBox="0 0 288 288"><defs><style>.cls-1,.cls-3,.cls-6,.cls-7{fill:none;}.cls-2{fill:#fff;}.cls-3{stroke:#e0e0e0;}.cls-3,.cls-6,.cls-7{stroke-miterlimit:10;}.cls-4{fill:#a6c8ff;}.cls-5{clip-path:url(#clip-path);}.cls-6{stroke:#78a9ff;}.cls-7{stroke:#d12771;stroke-linecap:round;}</style><clipPath id="clip-path"><path class="cls-1" d="M204,72l-.254.29A32,32,0,0,0,176,104v8a15.967,15.967,0,0,1-5.9,12.4,14.129,14.129,0,0,1-8.449,3.513A16.446,16.446,0,0,1,160,128H96a32,32,0,0,0-32,32,16,16,0,0,1-16,16H40v72H248V72Z"/></clipPath></defs><title>Artboard 32</title><g id="Graphics"><rect class="cls-2" width="288" height="288"/><rect class="cls-3" x="40" y="39.864" width="208" height="208"/><line class="cls-3" x1="48" y1="39.864" x2="48" y2="247.864"/><line class="cls-3" x1="56" y1="39.864" x2="56" y2="247.864"/><line class="cls-3" x1="64" y1="39.864" x2="64" y2="247.864"/><line class="cls-3" x1="72" y1="39.864" x2="72" y2="247.864"/><line class="cls-3" x1="80" y1="39.864" x2="80" y2="247.864"/><line class="cls-3" x1="88" y1="39.864" x2="88" y2="247.864"/><line class="cls-3" x1="96" y1="39.864" x2="96" y2="247.864"/><line class="cls-3" x1="104" y1="39.864" x2="104" y2="247.864"/><line class="cls-3" x1="112" y1="39.864" x2="112" y2="247.864"/><line class="cls-3" x1="120" y1="39.864" x2="120" y2="247.864"/><line class="cls-3" x1="128" y1="39.864" x2="128" y2="247.864"/><line class="cls-3" x1="136" y1="39.864" x2="136" y2="247.864"/><line class="cls-3" x1="144" y1="39.864" x2="144" y2="247.864"/><line class="cls-3" x1="152" y1="39.864" x2="152" y2="247.864"/><line class="cls-3" x1="160" y1="39.864" x2="160" y2="247.864"/><line class="cls-3" x1="168" y1="39.864" x2="168" y2="247.864"/><line class="cls-3" x1="176" y1="39.864" x2="176" y2="247.864"/><line class="cls-3" x1="184" y1="39.864" x2="184" y2="247.864"/><line class="cls-3" x1="192" y1="39.864" x2="192" y2="247.864"/><line class="cls-3" x1="200" y1="39.864" x2="200" y2="247.864"/><line class="cls-3" x1="208" y1="39.864" x2="208" y2="247.864"/><line class="cls-3" x1="216" y1="39.864" x2="216" y2="247.864"/><line class="cls-3" x1="224" y1="39.864" x2="224" y2="247.864"/><line class="cls-3" x1="232" y1="39.864" x2="232" y2="247.864"/><line class="cls-3" x1="240" y1="39.864" x2="240" y2="247.864"/><line class="cls-3" x1="248" y1="47.864" x2="40" y2="47.864"/><line class="cls-3" x1="248" y1="55.864" x2="40" y2="55.864"/><line class="cls-3" x1="248" y1="63.864" x2="40" y2="63.864"/><line class="cls-3" x1="248" y1="71.864" x2="40" y2="71.864"/><line class="cls-3" x1="248" y1="79.864" x2="40" y2="79.864"/><line class="cls-3" x1="248" y1="87.864" x2="40" y2="87.864"/><line class="cls-3" x1="248" y1="95.864" x2="40" y2="95.864"/><line class="cls-3" x1="248" y1="103.864" x2="40" y2="103.864"/><line class="cls-3" x1="248" y1="111.864" x2="40" y2="111.864"/><line class="cls-3" x1="248" y1="119.864" x2="40" y2="119.864"/><line class="cls-3" x1="248" y1="127.864" x2="40" y2="127.864"/><line class="cls-3" x1="248" y1="135.864" x2="40" y2="135.864"/><line class="cls-3" x1="248" y1="143.864" x2="40" y2="143.864"/><line class="cls-3" x1="248" y1="151.864" x2="40" y2="151.864"/><line class="cls-3" x1="248" y1="159.864" x2="40" y2="159.864"/><line class="cls-3" x1="248" y1="167.864" x2="40" y2="167.864"/><line class="cls-3" x1="40" y1="175.864" x2="248" y2="175.864"/><line class="cls-3" x1="40" y1="183.864" x2="248" y2="183.864"/><line class="cls-3" x1="248" y1="191.864" x2="40" y2="191.864"/><line class="cls-3" x1="248" y1="199.864" x2="40" y2="199.864"/><line class="cls-3" x1="248" y1="207.864" x2="40" y2="207.864"/><line class="cls-3" x1="248" y1="215.864" x2="40" y2="215.864"/><line class="cls-3" x1="248" y1="223.864" x2="40" y2="223.864"/><line class="cls-3" x1="248" y1="231.864" x2="40" y2="231.864"/><line class="cls-3" x1="248" y1="239.864" x2="40" y2="239.864"/><path class="cls-4" d="M204,72l-.254.29A32,32,0,0,0,176,104v8a15.967,15.967,0,0,1-5.9,12.4,14.129,14.129,0,0,1-8.449,3.513A16.446,16.446,0,0,1,160,128H96a32,32,0,0,0-32,32,16,16,0,0,1-16,16H40v72H248V72Z"/><g class="cls-5"><polyline class="cls-6" points="248 39.864 248 247.864 40 247.864 40 39.864"/><line class="cls-6" x1="48" y1="39.864" x2="48" y2="247.864"/><line class="cls-6" x1="56" y1="39.864" x2="56" y2="247.864"/><line class="cls-6" x1="64" y1="39.864" x2="64" y2="247.864"/><line class="cls-6" x1="72" y1="39.864" x2="72" y2="247.864"/><line class="cls-6" x1="80" y1="39.864" x2="80" y2="247.864"/><line class="cls-6" x1="88" y1="39.864" x2="88" y2="247.864"/><line class="cls-6" x1="96" y1="39.864" x2="96" y2="247.864"/><line class="cls-6" x1="104" y1="39.864" x2="104" y2="247.864"/><line class="cls-6" x1="112" y1="39.864" x2="112" y2="247.864"/><line class="cls-6" x1="120" y1="39.864" x2="120" y2="247.864"/><line class="cls-6" x1="128" y1="39.864" x2="128" y2="247.864"/><line class="cls-6" x1="136" y1="39.864" x2="136" y2="247.864"/><line class="cls-6" x1="144" y1="39.864" x2="144" y2="247.864"/><line class="cls-6" x1="152" y1="39.864" x2="152" y2="247.864"/><line class="cls-6" x1="160" y1="39.864" x2="160" y2="247.864"/><line class="cls-6" x1="168" y1="39.864" x2="168" y2="247.864"/><line class="cls-6" x1="176" y1="39.864" x2="176" y2="247.864"/><line class="cls-6" x1="184" y1="39.864" x2="184" y2="247.864"/><line class="cls-6" x1="192" y1="39.864" x2="192" y2="247.864"/><line class="cls-6" x1="200" y1="39.864" x2="200" y2="247.864"/><line class="cls-6" x1="208" y1="39.864" x2="208" y2="247.864"/><line class="cls-6" x1="216" y1="39.864" x2="216" y2="247.864"/><line class="cls-6" x1="224" y1="39.864" x2="224" y2="247.864"/><line class="cls-6" x1="232" y1="39.864" x2="232" y2="247.864"/><line class="cls-6" x1="240" y1="39.864" x2="240" y2="247.864"/><line class="cls-6" x1="248" y1="71.864" x2="40" y2="71.864"/><line class="cls-6" x1="248" y1="79.864" x2="40" y2="79.864"/><line class="cls-6" x1="248" y1="87.864" x2="40" y2="87.864"/><line class="cls-6" x1="248" y1="95.864" x2="40" y2="95.864"/><line class="cls-6" x1="248" y1="103.864" x2="40" y2="103.864"/><line class="cls-6" x1="248" y1="111.864" x2="40" y2="111.864"/><line class="cls-6" x1="248" y1="119.864" x2="40" y2="119.864"/><line class="cls-6" x1="248" y1="127.864" x2="40" y2="127.864"/><line class="cls-6" x1="248" y1="135.864" x2="40" y2="135.864"/><line class="cls-6" x1="248" y1="143.864" x2="40" y2="143.864"/><line class="cls-6" x1="248" y1="151.864" x2="40" y2="151.864"/><line class="cls-6" x1="248" y1="159.864" x2="40" y2="159.864"/><line class="cls-6" x1="248" y1="167.864" x2="40" y2="167.864"/><line class="cls-6" x1="40" y1="175.864" x2="248" y2="175.864"/><line class="cls-6" x1="40" y1="183.864" x2="248" y2="183.864"/><line class="cls-6" x1="248" y1="191.864" x2="40" y2="191.864"/><line class="cls-6" x1="248" y1="199.864" x2="40" y2="199.864"/><line class="cls-6" x1="248" y1="207.864" x2="40" y2="207.864"/><line class="cls-6" x1="248" y1="215.864" x2="40" y2="215.864"/><line class="cls-6" x1="248" y1="223.864" x2="40" y2="223.864"/><line class="cls-6" x1="248" y1="231.864" x2="40" y2="231.864"/><line class="cls-6" x1="248" y1="239.864" x2="40" y2="239.864"/></g><circle class="cls-7" cx="160" cy="112" r="16"/><path class="cls-7" d="M128,160a32,32,0,0,1-32,32"/><path class="cls-7" d="M96,192a32,32,0,0,1-32-32"/><path class="cls-7" d="M64,160a32,32,0,0,1,32-32"/><path class="cls-7" d="M96,128a32,32,0,0,1,32,32"/><path class="cls-7" d="M64,160a16,16,0,0,1-16,16"/><path class="cls-7" d="M48,176a16,16,0,0,1-16-16"/><path class="cls-7" d="M32,160a16,16,0,0,1,16-16"/><path class="cls-7" d="M48,144a16,16,0,0,1,16,16"/><circle class="cls-7" cx="208" cy="104" r="32"/></g></svg>