<?xml version="1.0" encoding="utf-8"?>
<!-- Generator: Adobe Illustrator 24.1.0, SVG Export Plug-In . SVG Version: 6.00 Build 0)  -->
<svg version="1.1" id="Layer_1" xmlns="http://www.w3.org/2000/svg" xmlns:xlink="http://www.w3.org/1999/xlink" x="0px" y="0px"
	 viewBox="0 0 288 288" style="enable-background:new 0 0 288 288;" xml:space="preserve">
<style type="text/css">
	.st0{fill-rule:evenodd;clip-rule:evenodd;fill:#FFFFFF;}
	.st1{enable-background:new    ;}
</style>
<desc>Created with Sketch.</desc>
<g id="design">
	<g id="Dataviz-Design---Basics" transform="translate(-672.000000, -1646.000000)">
		<g id="Group-16" transform="translate(672.000000, 1646.000000)">
			<polygon id="title" class="st0" points="0,0 288,0 288,288 0,288 			"/>
			<g class="st1">
				<path d="M49.5,65.8h4.6c0.9,0,1.7,0.3,2.2,0.8c0.5,0.5,0.8,1.2,0.8,2.1c0,0.4-0.1,0.8-0.2,1.1c-0.1,0.3-0.3,0.5-0.4,0.7
					c-0.2,0.2-0.4,0.3-0.6,0.4c-0.2,0.1-0.4,0.2-0.6,0.2v0.1c0.2,0,0.4,0.1,0.7,0.2c0.3,0.1,0.5,0.2,0.7,0.5
					c0.2,0.2,0.4,0.5,0.6,0.8c0.2,0.3,0.2,0.7,0.2,1.2c0,0.5-0.1,0.9-0.2,1.3s-0.3,0.7-0.6,1s-0.6,0.5-0.9,0.7
					C55.4,76.9,55,77,54.6,77h-5.1V65.8z M50.8,70.7h3.1c0.5,0,0.9-0.1,1.2-0.4c0.3-0.3,0.4-0.7,0.4-1.2v-0.5c0-0.5-0.1-0.9-0.4-1.2
					c-0.3-0.3-0.7-0.4-1.2-0.4h-3.1V70.7z M50.8,75.8h3.3c0.6,0,1-0.1,1.4-0.4c0.3-0.3,0.5-0.7,0.5-1.3v-0.5c0-0.6-0.2-1-0.5-1.3
					c-0.3-0.3-0.8-0.4-1.4-0.4h-3.3V75.8z"/>
				<path d="M66,77c-0.5,0-0.8-0.1-1-0.4s-0.3-0.6-0.4-1h-0.1c-0.2,0.5-0.5,0.9-0.9,1.2c-0.4,0.3-0.9,0.4-1.5,0.4
					c-0.9,0-1.6-0.2-2-0.7c-0.5-0.4-0.7-1.1-0.7-1.8c0-0.8,0.3-1.4,0.9-1.8c0.6-0.4,1.5-0.6,2.7-0.6h1.6v-0.8c0-0.6-0.2-1-0.5-1.3
					s-0.8-0.5-1.5-0.5c-0.5,0-0.9,0.1-1.3,0.3c-0.3,0.2-0.6,0.5-0.8,0.9l-0.8-0.7c0.2-0.4,0.6-0.8,1.1-1.1s1.1-0.5,1.9-0.5
					c1,0,1.8,0.2,2.3,0.7c0.6,0.5,0.8,1.2,0.8,2v4.5h0.9V77H66z M62.3,76.1c0.3,0,0.6,0,0.9-0.1s0.5-0.2,0.7-0.3s0.3-0.3,0.4-0.5
					c0.1-0.2,0.2-0.4,0.2-0.6v-1.4h-1.7c-0.7,0-1.3,0.1-1.6,0.3c-0.3,0.2-0.5,0.5-0.5,0.9v0.3c0,0.4,0.1,0.7,0.4,0.9
					C61.4,76,61.8,76.1,62.3,76.1z"/>
				<path d="M68.7,77v-8.3H70v1.5h0.1c0.1-0.4,0.4-0.7,0.8-1.1s0.9-0.5,1.6-0.5h0.5V70h-0.8c-0.7,0-1.2,0.1-1.6,0.4
					c-0.4,0.3-0.6,0.6-0.6,1V77H68.7z"/>
				<path d="M81.8,77.2c-0.6,0-1.1-0.1-1.6-0.3c-0.5-0.2-0.8-0.5-1.2-0.9c-0.3-0.4-0.6-0.8-0.7-1.4c-0.2-0.5-0.2-1.1-0.2-1.8
					s0.1-1.3,0.2-1.8c0.2-0.5,0.4-1,0.7-1.4c0.3-0.4,0.7-0.7,1.2-0.9c0.5-0.2,1-0.3,1.6-0.3c0.8,0,1.5,0.2,2,0.5
					c0.5,0.4,0.9,0.8,1.1,1.4L83.8,71c-0.1-0.4-0.4-0.8-0.7-1s-0.8-0.4-1.3-0.4c-0.4,0-0.7,0.1-1,0.2c-0.3,0.1-0.5,0.3-0.7,0.5
					s-0.3,0.5-0.4,0.8s-0.1,0.6-0.1,1v1.4c0,0.7,0.2,1.3,0.6,1.8c0.4,0.5,1,0.7,1.7,0.7c1,0,1.8-0.5,2.2-1.4l0.9,0.6
					c-0.3,0.6-0.7,1.1-1.2,1.4C83.2,77,82.6,77.2,81.8,77.2z"/>
				<path d="M86.9,65.2h1.3v4.9h0.1c0.2-0.5,0.5-0.8,0.9-1.1s0.9-0.4,1.5-0.4c0.9,0,1.5,0.3,2,0.8c0.5,0.5,0.7,1.3,0.7,2.3V77h-1.3
					v-5.1c0-1.5-0.6-2.2-1.9-2.2c-0.3,0-0.5,0-0.7,0.1c-0.2,0.1-0.5,0.2-0.6,0.3c-0.2,0.1-0.3,0.3-0.5,0.5c-0.1,0.2-0.2,0.4-0.2,0.7
					V77h-1.3V65.2z"/>
				<path d="M102.2,77c-0.5,0-0.8-0.1-1-0.4s-0.3-0.6-0.4-1h-0.1c-0.2,0.5-0.5,0.9-0.9,1.2c-0.4,0.3-0.9,0.4-1.5,0.4
					c-0.9,0-1.6-0.2-2-0.7c-0.5-0.4-0.7-1.1-0.7-1.8c0-0.8,0.3-1.4,0.9-1.8c0.6-0.4,1.5-0.6,2.7-0.6h1.6v-0.8c0-0.6-0.2-1-0.5-1.3
					s-0.8-0.5-1.5-0.5c-0.5,0-0.9,0.1-1.3,0.3c-0.3,0.2-0.6,0.5-0.8,0.9l-0.8-0.7c0.2-0.4,0.6-0.8,1.1-1.1s1.1-0.5,1.9-0.5
					c1,0,1.8,0.2,2.3,0.7c0.6,0.5,0.8,1.2,0.8,2v4.5h0.9V77H102.2z M98.5,76.1c0.3,0,0.6,0,0.9-0.1s0.5-0.2,0.7-0.3s0.3-0.3,0.4-0.5
					c0.1-0.2,0.2-0.4,0.2-0.6v-1.4H99c-0.7,0-1.3,0.1-1.6,0.3c-0.3,0.2-0.5,0.5-0.5,0.9v0.3c0,0.4,0.1,0.7,0.4,0.9
					C97.6,76,98,76.1,98.5,76.1z"/>
				<path d="M104.9,77v-8.3h1.3v1.5h0.1c0.1-0.4,0.4-0.7,0.8-1.1s0.9-0.5,1.6-0.5h0.5V70h-0.8c-0.7,0-1.2,0.1-1.6,0.4
					c-0.4,0.3-0.6,0.6-0.6,1V77H104.9z"/>
				<path d="M112.8,77c-0.4,0-0.8-0.1-1-0.4s-0.3-0.6-0.3-1v-5.8h-1.4v-1.1h0.8c0.3,0,0.5-0.1,0.6-0.2c0.1-0.1,0.2-0.3,0.2-0.6v-1.5
					h1.2v2.3h1.8v1.1h-1.8v6h1.7V77H112.8z"/>
				<path d="M123.9,77.2c-0.6,0-1.1-0.1-1.5-0.3c-0.5-0.2-0.9-0.5-1.2-0.9c-0.3-0.4-0.6-0.8-0.8-1.4c-0.2-0.5-0.3-1.1-0.3-1.8
					c0-0.7,0.1-1.2,0.3-1.8c0.2-0.5,0.4-1,0.8-1.4c0.3-0.4,0.7-0.7,1.2-0.9c0.5-0.2,1-0.3,1.5-0.3s1.1,0.1,1.5,0.3
					c0.5,0.2,0.8,0.5,1.2,0.9c0.3,0.4,0.6,0.8,0.8,1.4c0.2,0.5,0.3,1.1,0.3,1.8c0,0.7-0.1,1.3-0.3,1.8c-0.2,0.5-0.4,1-0.8,1.4
					c-0.3,0.4-0.7,0.7-1.2,0.9C124.9,77.1,124.4,77.2,123.9,77.2z M123.9,76.1c0.7,0,1.3-0.2,1.7-0.6s0.7-1.1,0.7-2v-1.2
					c0-0.9-0.2-1.5-0.7-2s-1-0.6-1.7-0.6s-1.3,0.2-1.7,0.6c-0.4,0.4-0.7,1.1-0.7,2v1.2c0,0.9,0.2,1.5,0.7,2
					C122.6,75.8,123.2,76.1,123.9,76.1z"/>
				<path d="M130.3,69.9h-1.3v-1.1h1.3v-1.7c0-0.6,0.1-1,0.4-1.4c0.3-0.4,0.8-0.5,1.4-0.5h1.2v1.1h-1.8v2.4h1.8v1.1h-1.8V77h-1.3
					V69.9z"/>
				<path d="M141.6,77.2c-0.8,0-1.4-0.1-1.9-0.4c-0.5-0.3-1-0.7-1.3-1.2l0.9-0.7c0.3,0.4,0.7,0.7,1.1,0.9c0.4,0.2,0.9,0.3,1.4,0.3
					c0.5,0,1-0.1,1.3-0.4s0.5-0.6,0.5-1c0-0.3-0.1-0.6-0.3-0.8c-0.2-0.2-0.6-0.4-1.1-0.5l-0.7-0.1c-0.4-0.1-0.7-0.1-1.1-0.2
					c-0.3-0.1-0.6-0.3-0.8-0.4c-0.2-0.2-0.4-0.4-0.6-0.7c-0.1-0.3-0.2-0.6-0.2-1c0-0.4,0.1-0.8,0.2-1.1c0.1-0.3,0.4-0.6,0.6-0.8
					c0.3-0.2,0.6-0.4,0.9-0.5c0.4-0.1,0.8-0.2,1.2-0.2c0.7,0,1.2,0.1,1.7,0.4c0.5,0.2,0.9,0.6,1.2,1l-0.8,0.8
					c-0.2-0.3-0.4-0.5-0.8-0.7s-0.8-0.3-1.3-0.3c-0.5,0-0.9,0.1-1.2,0.3c-0.3,0.2-0.4,0.5-0.4,0.9c0,0.4,0.1,0.7,0.4,0.9
					c0.3,0.2,0.7,0.3,1.2,0.4l0.6,0.1c0.9,0.1,1.6,0.4,2,0.8c0.4,0.4,0.6,0.9,0.6,1.5c0,0.8-0.3,1.4-0.8,1.9
					C143.3,77,142.5,77.2,141.6,77.2z"/>
				<path d="M153.1,77c-0.5,0-0.8-0.1-1-0.4s-0.3-0.6-0.4-1h-0.1c-0.2,0.5-0.5,0.9-0.9,1.2c-0.4,0.3-0.9,0.4-1.5,0.4
					c-0.9,0-1.6-0.2-2-0.7c-0.5-0.4-0.7-1.1-0.7-1.8c0-0.8,0.3-1.4,0.9-1.8c0.6-0.4,1.5-0.6,2.7-0.6h1.6v-0.8c0-0.6-0.2-1-0.5-1.3
					s-0.8-0.5-1.5-0.5c-0.5,0-0.9,0.1-1.3,0.3c-0.3,0.2-0.6,0.5-0.8,0.9l-0.8-0.7c0.2-0.4,0.6-0.8,1.1-1.1c0.5-0.3,1.1-0.5,1.9-0.5
					c1,0,1.8,0.2,2.3,0.7c0.6,0.5,0.8,1.2,0.8,2v4.5h0.9V77H153.1z M149.4,76.1c0.3,0,0.6,0,0.9-0.1c0.3-0.1,0.5-0.2,0.7-0.3
					s0.3-0.3,0.4-0.5c0.1-0.2,0.2-0.4,0.2-0.6v-1.4h-1.7c-0.7,0-1.3,0.1-1.6,0.3c-0.3,0.2-0.5,0.5-0.5,0.9v0.3
					c0,0.4,0.1,0.7,0.4,0.9C148.5,76,148.9,76.1,149.4,76.1z"/>
				<path d="M157.2,77c-0.4,0-0.8-0.1-1-0.4c-0.2-0.3-0.3-0.6-0.3-1V65.2h1.3v10.7h1.2V77H157.2z"/>
				<path d="M163.4,77.2c-0.6,0-1.1-0.1-1.5-0.3c-0.5-0.2-0.8-0.5-1.2-0.9c-0.3-0.4-0.6-0.8-0.8-1.4c-0.2-0.5-0.3-1.1-0.3-1.8
					c0-0.7,0.1-1.2,0.3-1.8c0.2-0.5,0.4-1,0.8-1.4c0.3-0.4,0.7-0.7,1.2-0.9c0.5-0.2,1-0.3,1.5-0.3c0.6,0,1.1,0.1,1.5,0.3
					c0.4,0.2,0.8,0.5,1.1,0.8c0.3,0.4,0.5,0.8,0.7,1.3s0.2,1,0.2,1.6v0.6h-5.9v0.4c0,0.4,0.1,0.7,0.2,1c0.1,0.3,0.3,0.6,0.5,0.8
					s0.5,0.4,0.8,0.5c0.3,0.1,0.6,0.2,1,0.2c0.5,0,1-0.1,1.4-0.4c0.4-0.2,0.7-0.6,0.9-1.1l0.9,0.7c-0.3,0.6-0.7,1-1.2,1.4
					C164.9,77,164.2,77.2,163.4,77.2z M163.4,69.6c-0.4,0-0.7,0.1-1,0.2s-0.5,0.3-0.7,0.5c-0.2,0.2-0.4,0.5-0.5,0.8
					c-0.1,0.3-0.2,0.6-0.2,1v0.1h4.6V72c0-0.7-0.2-1.3-0.6-1.8C164.6,69.8,164.1,69.6,163.4,69.6z"/>
				<path d="M171.8,77.2c-0.8,0-1.4-0.1-1.9-0.4c-0.5-0.3-1-0.7-1.3-1.2l0.9-0.7c0.3,0.4,0.7,0.7,1.1,0.9s0.9,0.3,1.4,0.3
					c0.5,0,1-0.1,1.3-0.4s0.5-0.6,0.5-1c0-0.3-0.1-0.6-0.3-0.8c-0.2-0.2-0.6-0.4-1.1-0.5l-0.7-0.1c-0.4-0.1-0.7-0.1-1.1-0.2
					c-0.3-0.1-0.6-0.3-0.8-0.4c-0.2-0.2-0.4-0.4-0.6-0.7c-0.1-0.3-0.2-0.6-0.2-1c0-0.4,0.1-0.8,0.2-1.1s0.4-0.6,0.6-0.8
					c0.3-0.2,0.6-0.4,0.9-0.5c0.4-0.1,0.8-0.2,1.2-0.2c0.7,0,1.2,0.1,1.7,0.4s0.9,0.6,1.2,1l-0.8,0.8c-0.2-0.3-0.4-0.5-0.8-0.7
					s-0.8-0.3-1.3-0.3c-0.5,0-0.9,0.1-1.2,0.3c-0.3,0.2-0.4,0.5-0.4,0.9c0,0.4,0.1,0.7,0.4,0.9c0.3,0.2,0.7,0.3,1.2,0.4l0.6,0.1
					c0.9,0.1,1.6,0.4,2,0.8c0.4,0.4,0.6,0.9,0.6,1.5c0,0.8-0.3,1.4-0.8,1.9C173.5,77,172.7,77.2,171.8,77.2z"/>
			</g>
			<g class="st1">
				<path d="M54.6,99.7L54.6,99.7c-0.6,1-1.4,1.5-2.5,1.5c-0.5,0-1-0.1-1.4-0.3c-0.4-0.2-0.8-0.5-1.1-0.9c-0.3-0.4-0.5-0.8-0.7-1.4
					c-0.2-0.5-0.2-1.1-0.2-1.8s0.1-1.3,0.2-1.8c0.2-0.5,0.4-1,0.7-1.4c0.3-0.4,0.6-0.7,1.1-0.9c0.4-0.2,0.9-0.3,1.4-0.3
					c0.6,0,1.1,0.1,1.5,0.4c0.4,0.2,0.7,0.6,0.9,1.1h0.1v-4.9h1.3V101h-1.3V99.7z M52.5,100.1c0.3,0,0.6,0,0.8-0.1s0.5-0.2,0.7-0.3
					c0.2-0.1,0.3-0.3,0.5-0.5c0.1-0.2,0.2-0.4,0.2-0.7v-3.1c0-0.2-0.1-0.4-0.2-0.6c-0.1-0.2-0.3-0.4-0.5-0.5
					c-0.2-0.1-0.4-0.2-0.7-0.3c-0.3-0.1-0.5-0.1-0.8-0.1c-0.7,0-1.3,0.2-1.7,0.7c-0.4,0.5-0.6,1.1-0.6,1.8v1.4
					c0,0.7,0.2,1.3,0.6,1.8C51.2,99.8,51.8,100.1,52.5,100.1z"/>
				<path d="M59.5,90.8c-0.3,0-0.5-0.1-0.6-0.2c-0.1-0.1-0.2-0.3-0.2-0.5v-0.2c0-0.2,0.1-0.4,0.2-0.5c0.1-0.1,0.3-0.2,0.6-0.2
					s0.5,0.1,0.6,0.2c0.1,0.1,0.2,0.3,0.2,0.5v0.2c0,0.2-0.1,0.4-0.2,0.5C59.9,90.7,59.7,90.8,59.5,90.8z M58.8,92.7h1.3v8.3h-1.3
					V92.7z"/>
				<path d="M64.8,101l-2.9-8.3h1.3l1.4,4.1l0.9,2.8h0.1l0.9-2.8l1.5-4.1h1.2l-2.9,8.3H64.8z"/>
				<path d="M71.7,90.8c-0.3,0-0.5-0.1-0.6-0.2c-0.1-0.1-0.2-0.3-0.2-0.5v-0.2c0-0.2,0.1-0.4,0.2-0.5c0.1-0.1,0.3-0.2,0.6-0.2
					s0.5,0.1,0.6,0.2c0.1,0.1,0.2,0.3,0.2,0.5v0.2c0,0.2-0.1,0.4-0.2,0.5C72.2,90.7,72,90.8,71.7,90.8z M71,92.7h1.3v8.3H71V92.7z"
					/>
				<path d="M80.5,99.7L80.5,99.7c-0.6,1-1.4,1.5-2.5,1.5c-0.5,0-1-0.1-1.4-0.3c-0.4-0.2-0.8-0.5-1.1-0.9c-0.3-0.4-0.5-0.8-0.7-1.4
					c-0.2-0.5-0.2-1.1-0.2-1.8s0.1-1.3,0.2-1.8c0.2-0.5,0.4-1,0.7-1.4c0.3-0.4,0.6-0.7,1.1-0.9c0.4-0.2,0.9-0.3,1.4-0.3
					c0.6,0,1.1,0.1,1.5,0.4c0.4,0.2,0.7,0.6,0.9,1.1h0.1v-4.9h1.3V101h-1.3V99.7z M78.4,100.1c0.3,0,0.6,0,0.8-0.1s0.5-0.2,0.7-0.3
					c0.2-0.1,0.3-0.3,0.5-0.5c0.1-0.2,0.2-0.4,0.2-0.7v-3.1c0-0.2-0.1-0.4-0.2-0.6c-0.1-0.2-0.3-0.4-0.5-0.5
					c-0.2-0.1-0.4-0.2-0.7-0.3c-0.3-0.1-0.5-0.1-0.8-0.1c-0.7,0-1.3,0.2-1.7,0.7c-0.4,0.5-0.6,1.1-0.6,1.8v1.4
					c0,0.7,0.2,1.3,0.6,1.8C77.1,99.8,77.6,100.1,78.4,100.1z"/>
				<path d="M87.8,101.2c-0.6,0-1.1-0.1-1.5-0.3c-0.5-0.2-0.8-0.5-1.2-0.9c-0.3-0.4-0.6-0.8-0.8-1.4c-0.2-0.5-0.3-1.1-0.3-1.8
					c0-0.7,0.1-1.2,0.3-1.8c0.2-0.5,0.4-1,0.8-1.4c0.3-0.4,0.7-0.7,1.2-0.9c0.5-0.2,1-0.3,1.5-0.3c0.6,0,1.1,0.1,1.5,0.3
					c0.4,0.2,0.8,0.5,1.1,0.8c0.3,0.4,0.5,0.8,0.7,1.3c0.2,0.5,0.2,1,0.2,1.6v0.6h-5.9v0.4c0,0.4,0.1,0.7,0.2,1
					c0.1,0.3,0.3,0.6,0.5,0.8s0.5,0.4,0.8,0.5c0.3,0.1,0.6,0.2,1,0.2c0.5,0,1-0.1,1.4-0.4c0.4-0.2,0.7-0.6,0.9-1.1l0.9,0.7
					c-0.3,0.6-0.7,1-1.2,1.4S88.6,101.2,87.8,101.2z M87.8,93.6c-0.4,0-0.7,0.1-1,0.2s-0.5,0.3-0.7,0.5c-0.2,0.2-0.4,0.5-0.5,0.8
					c-0.1,0.3-0.2,0.6-0.2,1v0.1H90V96c0-0.7-0.2-1.3-0.6-1.8C89,93.8,88.4,93.6,87.8,93.6z"/>
				<path d="M98.9,99.7L98.9,99.7c-0.6,1-1.4,1.5-2.5,1.5c-0.5,0-1-0.1-1.4-0.3c-0.4-0.2-0.8-0.5-1.1-0.9c-0.3-0.4-0.5-0.8-0.7-1.4
					c-0.2-0.5-0.2-1.1-0.2-1.8s0.1-1.3,0.2-1.8c0.2-0.5,0.4-1,0.7-1.4c0.3-0.4,0.6-0.7,1.1-0.9c0.4-0.2,0.9-0.3,1.4-0.3
					c0.6,0,1.1,0.1,1.5,0.4c0.4,0.2,0.7,0.6,0.9,1.1h0.1v-4.9h1.3V101h-1.3V99.7z M96.8,100.1c0.3,0,0.6,0,0.8-0.1s0.5-0.2,0.7-0.3
					c0.2-0.1,0.3-0.3,0.5-0.5c0.1-0.2,0.2-0.4,0.2-0.7v-3.1c0-0.2-0.1-0.4-0.2-0.6c-0.1-0.2-0.3-0.4-0.5-0.5
					c-0.2-0.1-0.4-0.2-0.7-0.3c-0.3-0.1-0.5-0.1-0.8-0.1c-0.7,0-1.3,0.2-1.7,0.7c-0.4,0.5-0.6,1.1-0.6,1.8v1.4
					c0,0.7,0.2,1.3,0.6,1.8C95.5,99.8,96.1,100.1,96.8,100.1z"/>
				<path d="M107,89.2h1.3v4.9h0.1c0.2-0.5,0.5-0.9,0.9-1.1c0.4-0.2,0.9-0.4,1.5-0.4c0.5,0,1,0.1,1.4,0.3c0.4,0.2,0.8,0.5,1.1,0.9
					c0.3,0.4,0.5,0.8,0.7,1.4c0.2,0.5,0.2,1.1,0.2,1.8s-0.1,1.3-0.2,1.8c-0.2,0.5-0.4,1-0.7,1.4c-0.3,0.4-0.6,0.7-1.1,0.9
					c-0.4,0.2-0.9,0.3-1.4,0.3c-1.1,0-1.9-0.5-2.4-1.5h-0.1v1.3H107V89.2z M110.4,100.1c0.7,0,1.3-0.2,1.7-0.7
					c0.4-0.5,0.6-1.1,0.6-1.8v-1.4c0-0.7-0.2-1.3-0.6-1.8c-0.4-0.5-1-0.7-1.7-0.7c-0.3,0-0.6,0-0.8,0.1c-0.3,0.1-0.5,0.2-0.7,0.3
					c-0.2,0.1-0.3,0.3-0.5,0.5c-0.1,0.2-0.2,0.4-0.2,0.6v3.1c0,0.3,0.1,0.5,0.2,0.7c0.1,0.2,0.3,0.4,0.5,0.5
					c0.2,0.1,0.4,0.3,0.7,0.3S110.2,100.1,110.4,100.1z"/>
				<path d="M121.5,92.7h1.3l-3.7,10.2c-0.1,0.2-0.2,0.5-0.3,0.6c-0.1,0.2-0.2,0.3-0.4,0.4c-0.1,0.1-0.3,0.2-0.5,0.2
					s-0.5,0.1-0.8,0.1h-0.7v-1.1h1.3l0.6-1.8l-3.1-8.6h1.3l2,5.6l0.4,1.3h0.1l0.4-1.3L121.5,92.7z"/>
				<path d="M128.7,101V89.8h6.8V91H130v3.7h5.2v1.2H130v3.9h5.5v1.2H128.7z"/>
				<path d="M143.1,99.7L143.1,99.7c-0.1,0.2-0.3,0.4-0.4,0.6c-0.1,0.2-0.3,0.3-0.5,0.5c-0.2,0.1-0.4,0.3-0.7,0.3
					c-0.3,0.1-0.6,0.1-0.9,0.1c-0.9,0-1.5-0.3-2-0.8c-0.5-0.5-0.8-1.3-0.8-2.3v-5.3h1.3v5.1c0,1.5,0.6,2.2,1.9,2.2
					c0.3,0,0.5,0,0.7-0.1c0.2-0.1,0.5-0.2,0.6-0.3c0.2-0.1,0.3-0.3,0.4-0.5c0.1-0.2,0.2-0.4,0.2-0.7v-5.7h1.3v8.3h-1.3V99.7z"/>
				<path d="M147.3,101v-8.3h1.3v1.5h0.1c0.1-0.4,0.4-0.7,0.8-1.1c0.4-0.3,0.9-0.5,1.6-0.5h0.5V94h-0.8c-0.7,0-1.2,0.1-1.6,0.4
					c-0.4,0.3-0.6,0.6-0.6,1v5.6H147.3z"/>
				<path d="M156.4,101.2c-0.6,0-1.1-0.1-1.5-0.3c-0.5-0.2-0.9-0.5-1.2-0.9c-0.3-0.4-0.6-0.8-0.8-1.4c-0.2-0.5-0.3-1.1-0.3-1.8
					c0-0.7,0.1-1.2,0.3-1.8c0.2-0.5,0.4-1,0.8-1.4c0.3-0.4,0.7-0.7,1.2-0.9c0.5-0.2,1-0.3,1.5-0.3s1.1,0.1,1.5,0.3
					c0.5,0.2,0.8,0.5,1.2,0.9c0.3,0.4,0.6,0.8,0.8,1.4c0.2,0.5,0.3,1.1,0.3,1.8c0,0.7-0.1,1.3-0.3,1.8c-0.2,0.5-0.4,1-0.8,1.4
					c-0.3,0.4-0.7,0.7-1.2,0.9C157.4,101.1,156.9,101.2,156.4,101.2z M156.4,100.1c0.7,0,1.3-0.2,1.7-0.6s0.7-1.1,0.7-2v-1.2
					c0-0.9-0.2-1.5-0.7-2s-1-0.6-1.7-0.6s-1.3,0.2-1.7,0.6c-0.4,0.4-0.7,1.1-0.7,2v1.2c0,0.9,0.2,1.5,0.7,2
					C155.1,99.8,155.7,100.1,156.4,100.1z"/>
				<path d="M162.4,92.7h1.3v1.3h0.1c0.2-0.5,0.5-0.9,0.9-1.1c0.4-0.2,0.9-0.4,1.5-0.4c0.5,0,1,0.1,1.4,0.3c0.4,0.2,0.8,0.5,1.1,0.9
					c0.3,0.4,0.5,0.8,0.7,1.4c0.2,0.5,0.2,1.1,0.2,1.8s-0.1,1.3-0.2,1.8c-0.2,0.5-0.4,1-0.7,1.4c-0.3,0.4-0.6,0.7-1.1,0.9
					c-0.4,0.2-0.9,0.3-1.4,0.3c-1.1,0-1.9-0.5-2.4-1.5h-0.1v4.5h-1.3V92.7z M165.8,100.1c0.7,0,1.3-0.2,1.7-0.7
					c0.4-0.5,0.6-1.1,0.6-1.8v-1.4c0-0.7-0.2-1.3-0.6-1.8c-0.4-0.5-1-0.7-1.7-0.7c-0.3,0-0.6,0-0.8,0.1c-0.3,0.1-0.5,0.2-0.7,0.3
					c-0.2,0.1-0.3,0.3-0.5,0.5s-0.2,0.4-0.2,0.6v3.1c0,0.3,0.1,0.5,0.2,0.7s0.3,0.4,0.5,0.5c0.2,0.1,0.4,0.3,0.7,0.3
					S165.5,100.1,165.8,100.1z"/>
				<path d="M175,101.2c-0.6,0-1.1-0.1-1.5-0.3c-0.5-0.2-0.8-0.5-1.2-0.9c-0.3-0.4-0.6-0.8-0.8-1.4c-0.2-0.5-0.3-1.1-0.3-1.8
					c0-0.7,0.1-1.2,0.3-1.8c0.2-0.5,0.4-1,0.8-1.4c0.3-0.4,0.7-0.7,1.2-0.9c0.5-0.2,1-0.3,1.5-0.3c0.6,0,1.1,0.1,1.5,0.3
					c0.4,0.2,0.8,0.5,1.1,0.8c0.3,0.4,0.5,0.8,0.7,1.3s0.2,1,0.2,1.6v0.6h-5.9v0.4c0,0.4,0.1,0.7,0.2,1c0.1,0.3,0.3,0.6,0.5,0.8
					s0.5,0.4,0.8,0.5c0.3,0.1,0.6,0.2,1,0.2c0.5,0,1-0.1,1.4-0.4c0.4-0.2,0.7-0.6,0.9-1.1l0.9,0.7c-0.3,0.6-0.7,1-1.2,1.4
					C176.4,101,175.7,101.2,175,101.2z M175,93.6c-0.4,0-0.7,0.1-1,0.2s-0.5,0.3-0.7,0.5c-0.2,0.2-0.4,0.5-0.5,0.8
					c-0.1,0.3-0.2,0.6-0.2,1v0.1h4.6V96c0-0.7-0.2-1.3-0.6-1.8C176.2,93.8,175.6,93.6,175,93.6z"/>
				<path d="M186.8,101c-0.5,0-0.8-0.1-1-0.4s-0.3-0.6-0.4-1h-0.1c-0.2,0.5-0.5,0.9-0.9,1.2c-0.4,0.3-0.9,0.4-1.5,0.4
					c-0.9,0-1.6-0.2-2-0.7c-0.5-0.4-0.7-1.1-0.7-1.8c0-0.8,0.3-1.4,0.9-1.8s1.5-0.6,2.7-0.6h1.6v-0.8c0-0.6-0.2-1-0.5-1.3
					s-0.8-0.5-1.5-0.5c-0.5,0-0.9,0.1-1.3,0.3c-0.3,0.2-0.6,0.5-0.8,0.9l-0.8-0.7c0.2-0.4,0.6-0.8,1.1-1.1c0.5-0.3,1.1-0.5,1.9-0.5
					c1,0,1.8,0.2,2.3,0.7c0.6,0.5,0.8,1.2,0.8,2v4.5h0.9v1.1H186.8z M183.1,100.1c0.3,0,0.6,0,0.9-0.1c0.3-0.1,0.5-0.2,0.7-0.3
					s0.3-0.3,0.4-0.5c0.1-0.2,0.2-0.4,0.2-0.6v-1.4h-1.7c-0.7,0-1.3,0.1-1.6,0.3c-0.3,0.2-0.5,0.5-0.5,0.9v0.3
					c0,0.4,0.1,0.7,0.4,0.9C182.2,100,182.6,100.1,183.1,100.1z"/>
				<path d="M189.5,101v-8.3h1.3v1.3h0.1c0.2-0.5,0.5-0.8,0.9-1.1s0.9-0.4,1.5-0.4c0.9,0,1.5,0.3,2,0.8c0.5,0.5,0.7,1.3,0.7,2.3v5.3
					h-1.3v-5.1c0-1.5-0.6-2.2-1.9-2.2c-0.3,0-0.5,0-0.7,0.1c-0.2,0.1-0.5,0.2-0.6,0.3c-0.2,0.1-0.3,0.3-0.5,0.5
					c-0.1,0.2-0.2,0.4-0.2,0.7v5.7H189.5z"/>
				<path d="M199.6,99.1c0.3,0,0.6,0.1,0.7,0.3c0.2,0.2,0.2,0.4,0.2,0.7v0.2c0,0.4-0.1,0.9-0.4,1.4s-0.6,1-1.1,1.4h-1.1
					c0.3-0.3,0.6-0.7,0.8-1s0.3-0.6,0.4-1c-0.2-0.1-0.4-0.2-0.5-0.3c-0.1-0.1-0.2-0.3-0.2-0.5v-0.2c0-0.3,0.1-0.5,0.2-0.7
					C199,99.2,199.3,99.1,199.6,99.1z"/>
			</g>
			<g class="st1">
				<path d="M56.5,125l-1.1-3.3h-4.5l-1.1,3.3h-1.4l3.9-11.2H54l3.9,11.2H56.5z M53.1,115.1L53.1,115.1l-2,5.4H55L53.1,115.1z"/>
				<path d="M62.3,125.2c-0.8,0-1.4-0.1-1.9-0.4c-0.5-0.3-1-0.7-1.3-1.2l0.9-0.7c0.3,0.4,0.7,0.7,1.1,0.9c0.4,0.2,0.9,0.3,1.4,0.3
					c0.5,0,1-0.1,1.3-0.4s0.5-0.6,0.5-1c0-0.3-0.1-0.6-0.3-0.8c-0.2-0.2-0.6-0.4-1.1-0.5l-0.7-0.1c-0.4-0.1-0.7-0.1-1.1-0.2
					c-0.3-0.1-0.6-0.3-0.8-0.4c-0.2-0.2-0.4-0.4-0.6-0.7c-0.1-0.3-0.2-0.6-0.2-1c0-0.4,0.1-0.8,0.2-1.1c0.1-0.3,0.4-0.6,0.6-0.8
					c0.3-0.2,0.6-0.4,0.9-0.5c0.4-0.1,0.8-0.2,1.2-0.2c0.7,0,1.2,0.1,1.7,0.4c0.5,0.2,0.9,0.6,1.2,1l-0.8,0.8
					c-0.2-0.3-0.4-0.5-0.8-0.7s-0.8-0.3-1.3-0.3c-0.5,0-0.9,0.1-1.2,0.3c-0.3,0.2-0.4,0.5-0.4,0.9c0,0.4,0.1,0.7,0.4,0.9
					c0.3,0.2,0.7,0.3,1.2,0.4l0.6,0.1c0.9,0.1,1.6,0.4,2,0.8c0.4,0.4,0.6,0.9,0.6,1.5c0,0.8-0.3,1.4-0.8,1.9
					C64,125,63.2,125.2,62.3,125.2z"/>
				<path d="M68.4,114.8c-0.3,0-0.5-0.1-0.6-0.2c-0.1-0.1-0.2-0.3-0.2-0.5v-0.2c0-0.2,0.1-0.4,0.2-0.5c0.1-0.1,0.3-0.2,0.6-0.2
					s0.5,0.1,0.6,0.2c0.1,0.1,0.2,0.3,0.2,0.5v0.2c0,0.2-0.1,0.4-0.2,0.5C68.9,114.7,68.7,114.8,68.4,114.8z M67.8,116.7H69v8.3
					h-1.3V116.7z"/>
				<path d="M77.9,125c-0.5,0-0.8-0.1-1-0.4s-0.3-0.6-0.4-1h-0.1c-0.2,0.5-0.5,0.9-0.9,1.2c-0.4,0.3-0.9,0.4-1.5,0.4
					c-0.9,0-1.6-0.2-2-0.7c-0.5-0.4-0.7-1.1-0.7-1.8c0-0.8,0.3-1.4,0.9-1.8c0.6-0.4,1.5-0.6,2.7-0.6h1.6v-0.8c0-0.6-0.2-1-0.5-1.3
					s-0.8-0.5-1.5-0.5c-0.5,0-0.9,0.1-1.3,0.3c-0.3,0.2-0.6,0.5-0.8,0.9l-0.8-0.7c0.2-0.4,0.6-0.8,1.1-1.1s1.1-0.5,1.9-0.5
					c1,0,1.8,0.2,2.3,0.7c0.6,0.5,0.8,1.2,0.8,2v4.5h0.9v1.1H77.9z M74.3,124.1c0.3,0,0.6,0,0.9-0.1s0.5-0.2,0.7-0.3
					s0.3-0.3,0.4-0.5c0.1-0.2,0.2-0.4,0.2-0.6v-1.4h-1.7c-0.7,0-1.3,0.1-1.6,0.3c-0.3,0.2-0.5,0.5-0.5,0.9v0.3
					c0,0.4,0.1,0.7,0.4,0.9C73.4,124,73.8,124.1,74.3,124.1z"/>
				<path d="M80.7,125v-8.3h1.3v1.3H82c0.2-0.5,0.5-0.8,0.9-1.1s0.9-0.4,1.5-0.4c0.9,0,1.5,0.3,2,0.8c0.5,0.5,0.7,1.3,0.7,2.3v5.3
					h-1.3v-5.1c0-1.5-0.6-2.2-1.9-2.2c-0.3,0-0.5,0-0.7,0.1c-0.2,0.1-0.5,0.2-0.6,0.3c-0.2,0.1-0.3,0.3-0.5,0.5
					c-0.1,0.2-0.2,0.4-0.2,0.7v5.7H80.7z"/>
				<path d="M99.9,125c-0.5,0-0.8-0.1-1-0.4s-0.3-0.6-0.4-1h-0.1c-0.2,0.5-0.5,0.9-0.9,1.2c-0.4,0.3-0.9,0.4-1.5,0.4
					c-0.9,0-1.6-0.2-2-0.7c-0.5-0.4-0.7-1.1-0.7-1.8c0-0.8,0.3-1.4,0.9-1.8c0.6-0.4,1.5-0.6,2.7-0.6h1.6v-0.8c0-0.6-0.2-1-0.5-1.3
					s-0.8-0.5-1.5-0.5c-0.5,0-0.9,0.1-1.3,0.3c-0.3,0.2-0.6,0.5-0.8,0.9l-0.8-0.7c0.2-0.4,0.6-0.8,1.1-1.1s1.1-0.5,1.9-0.5
					c1,0,1.8,0.2,2.3,0.7c0.6,0.5,0.8,1.2,0.8,2v4.5h0.9v1.1H99.9z M96.2,124.1c0.3,0,0.6,0,0.9-0.1s0.5-0.2,0.7-0.3
					s0.3-0.3,0.4-0.5c0.1-0.2,0.2-0.4,0.2-0.6v-1.4h-1.7c-0.7,0-1.3,0.1-1.6,0.3c-0.3,0.2-0.5,0.5-0.5,0.9v0.3
					c0,0.4,0.1,0.7,0.4,0.9C95.3,124,95.7,124.1,96.2,124.1z"/>
				<path d="M102.6,125v-8.3h1.3v1.3h0.1c0.2-0.5,0.5-0.8,0.9-1.1s0.9-0.4,1.5-0.4c0.9,0,1.5,0.3,2,0.8c0.5,0.5,0.7,1.3,0.7,2.3v5.3
					h-1.3v-5.1c0-1.5-0.6-2.2-1.9-2.2c-0.3,0-0.5,0-0.7,0.1c-0.2,0.1-0.5,0.2-0.6,0.3c-0.2,0.1-0.3,0.3-0.5,0.5
					c-0.1,0.2-0.2,0.4-0.2,0.7v5.7H102.6z"/>
				<path d="M117.1,123.7L117.1,123.7c-0.6,1-1.4,1.5-2.5,1.5c-0.5,0-1-0.1-1.4-0.3c-0.4-0.2-0.8-0.5-1.1-0.9
					c-0.3-0.4-0.5-0.8-0.7-1.4c-0.2-0.5-0.2-1.1-0.2-1.8s0.1-1.3,0.2-1.8c0.2-0.5,0.4-1,0.7-1.4c0.3-0.4,0.6-0.7,1.1-0.9
					c0.4-0.2,0.9-0.3,1.4-0.3c0.6,0,1.1,0.1,1.5,0.4c0.4,0.2,0.7,0.6,0.9,1.1h0.1v-4.9h1.3V125h-1.3V123.7z M115,124.1
					c0.3,0,0.6,0,0.8-0.1s0.5-0.2,0.7-0.3c0.2-0.1,0.3-0.3,0.5-0.5c0.1-0.2,0.2-0.4,0.2-0.7v-3.1c0-0.2-0.1-0.4-0.2-0.6
					c-0.1-0.2-0.3-0.4-0.5-0.5c-0.2-0.1-0.4-0.2-0.7-0.3c-0.3-0.1-0.5-0.1-0.8-0.1c-0.7,0-1.3,0.2-1.7,0.7c-0.4,0.5-0.6,1.1-0.6,1.8
					v1.4c0,0.7,0.2,1.3,0.6,1.8C113.7,123.8,114.3,124.1,115,124.1z"/>
				<path d="M132.4,125l-1.1-3.3h-4.5l-1.1,3.3h-1.4l3.9-11.2h1.7l3.9,11.2H132.4z M129,115.1L129,115.1l-2,5.4h3.9L129,115.1z"/>
				<path d="M135.7,125v-8.3h1.3v1.3h0.1c0.1-0.2,0.2-0.4,0.3-0.6c0.1-0.2,0.3-0.3,0.4-0.5c0.2-0.1,0.4-0.2,0.6-0.3
					c0.2-0.1,0.5-0.1,0.8-0.1c0.5,0,1,0.1,1.5,0.4c0.5,0.3,0.8,0.7,1,1.3h0c0.1-0.4,0.4-0.8,0.8-1.2c0.4-0.3,1-0.5,1.7-0.5
					c0.8,0,1.5,0.3,2,0.8c0.5,0.5,0.7,1.3,0.7,2.3v5.3h-1.3v-5.1c0-0.7-0.1-1.3-0.4-1.7c-0.3-0.4-0.7-0.6-1.4-0.6
					c-0.3,0-0.5,0-0.7,0.1c-0.2,0.1-0.4,0.2-0.6,0.3c-0.2,0.1-0.3,0.3-0.4,0.5c-0.1,0.2-0.2,0.4-0.2,0.7v5.7h-1.3v-5.1
					c0-0.7-0.1-1.3-0.4-1.7s-0.7-0.6-1.3-0.6c-0.3,0-0.5,0-0.7,0.1c-0.2,0.1-0.4,0.2-0.6,0.3c-0.2,0.1-0.3,0.3-0.4,0.5
					c-0.1,0.2-0.2,0.4-0.2,0.7v5.7H135.7z"/>
				<path d="M152.9,125.2c-0.6,0-1.1-0.1-1.5-0.3c-0.5-0.2-0.8-0.5-1.2-0.9c-0.3-0.4-0.6-0.8-0.8-1.4c-0.2-0.5-0.3-1.1-0.3-1.8
					c0-0.7,0.1-1.2,0.3-1.8c0.2-0.5,0.4-1,0.8-1.4c0.3-0.4,0.7-0.7,1.2-0.9c0.5-0.2,1-0.3,1.5-0.3c0.6,0,1.1,0.1,1.5,0.3
					c0.4,0.2,0.8,0.5,1.1,0.8c0.3,0.4,0.5,0.8,0.7,1.3s0.2,1,0.2,1.6v0.6h-5.9v0.4c0,0.4,0.1,0.7,0.2,1c0.1,0.3,0.3,0.6,0.5,0.8
					s0.5,0.4,0.8,0.5c0.3,0.1,0.6,0.2,1,0.2c0.5,0,1-0.1,1.4-0.4c0.4-0.2,0.7-0.6,0.9-1.1l0.9,0.7c-0.3,0.6-0.7,1-1.2,1.4
					C154.4,125,153.7,125.2,152.9,125.2z M152.9,117.6c-0.4,0-0.7,0.1-1,0.2s-0.5,0.3-0.7,0.5c-0.2,0.2-0.4,0.5-0.5,0.8
					c-0.1,0.3-0.2,0.6-0.2,1v0.1h4.6V120c0-0.7-0.2-1.3-0.6-1.8C154.1,117.8,153.6,117.6,152.9,117.6z"/>
				<path d="M158.8,125v-8.3h1.3v1.5h0.1c0.1-0.4,0.4-0.7,0.8-1.1c0.4-0.3,0.9-0.5,1.6-0.5h0.5v1.3h-0.8c-0.7,0-1.2,0.1-1.6,0.4
					c-0.4,0.3-0.6,0.6-0.6,1v5.6H158.8z"/>
				<path d="M165.5,114.8c-0.3,0-0.5-0.1-0.6-0.2c-0.1-0.1-0.2-0.3-0.2-0.5v-0.2c0-0.2,0.1-0.4,0.2-0.5c0.1-0.1,0.3-0.2,0.6-0.2
					s0.5,0.1,0.6,0.2c0.1,0.1,0.2,0.3,0.2,0.5v0.2c0,0.2-0.1,0.4-0.2,0.5C166,114.7,165.8,114.8,165.5,114.8z M164.8,116.7h1.3v8.3
					h-1.3V116.7z"/>
				<path d="M172.1,125.2c-0.6,0-1.1-0.1-1.6-0.3c-0.5-0.2-0.8-0.5-1.2-0.9c-0.3-0.4-0.6-0.8-0.7-1.4c-0.2-0.5-0.2-1.1-0.2-1.8
					s0.1-1.3,0.2-1.8c0.2-0.5,0.4-1,0.7-1.4c0.3-0.4,0.7-0.7,1.2-0.9c0.5-0.2,1-0.3,1.6-0.3c0.8,0,1.5,0.2,2,0.5s0.9,0.8,1.1,1.4
					l-1.1,0.5c-0.2-0.4-0.4-0.8-0.7-1c-0.3-0.2-0.8-0.4-1.3-0.4c-0.4,0-0.7,0.1-1,0.2c-0.3,0.1-0.5,0.3-0.7,0.5
					c-0.2,0.2-0.3,0.5-0.4,0.8s-0.1,0.6-0.1,1v1.4c0,0.7,0.2,1.3,0.6,1.8c0.4,0.5,1,0.7,1.7,0.7c1,0,1.8-0.5,2.2-1.4l0.9,0.6
					c-0.3,0.6-0.7,1.1-1.2,1.4C173.5,125,172.9,125.2,172.1,125.2z"/>
				<path d="M183.2,125c-0.5,0-0.8-0.1-1-0.4c-0.2-0.3-0.3-0.6-0.4-1h-0.1c-0.2,0.5-0.5,0.9-0.9,1.2c-0.4,0.3-0.9,0.4-1.5,0.4
					c-0.9,0-1.6-0.2-2-0.7c-0.5-0.4-0.7-1.1-0.7-1.8c0-0.8,0.3-1.4,0.9-1.8c0.6-0.4,1.5-0.6,2.7-0.6h1.6v-0.8c0-0.6-0.2-1-0.5-1.3
					c-0.3-0.3-0.8-0.5-1.5-0.5c-0.5,0-0.9,0.1-1.3,0.3c-0.3,0.2-0.6,0.5-0.8,0.9l-0.8-0.7c0.2-0.4,0.6-0.8,1.1-1.1s1.1-0.5,1.9-0.5
					c1,0,1.8,0.2,2.3,0.7c0.6,0.5,0.8,1.2,0.8,2v4.5h0.9v1.1H183.2z M179.6,124.1c0.3,0,0.6,0,0.9-0.1s0.5-0.2,0.7-0.3
					c0.2-0.1,0.3-0.3,0.4-0.5c0.1-0.2,0.2-0.4,0.2-0.6v-1.4H180c-0.7,0-1.3,0.1-1.6,0.3c-0.3,0.2-0.5,0.5-0.5,0.9v0.3
					c0,0.4,0.1,0.7,0.4,0.9C178.7,124,179.1,124.1,179.6,124.1z"/>
				<path d="M186,125v-8.3h1.3v1.3h0.1c0.2-0.5,0.5-0.8,0.9-1.1c0.4-0.3,0.9-0.4,1.5-0.4c0.9,0,1.5,0.3,2,0.8
					c0.5,0.5,0.7,1.3,0.7,2.3v5.3h-1.3v-5.1c0-1.5-0.6-2.2-1.9-2.2c-0.3,0-0.5,0-0.7,0.1c-0.2,0.1-0.5,0.2-0.6,0.3
					c-0.2,0.1-0.3,0.3-0.5,0.5c-0.1,0.2-0.2,0.4-0.2,0.7v5.7H186z"/>
			</g>
			<g class="st1">
				<path d="M49.4,149v-8.3h1.3v1.3h0.1c0.1-0.2,0.2-0.4,0.3-0.6c0.1-0.2,0.3-0.3,0.4-0.5c0.2-0.1,0.4-0.2,0.6-0.3
					c0.2-0.1,0.5-0.1,0.8-0.1c0.5,0,1,0.1,1.5,0.4c0.5,0.3,0.8,0.7,1,1.3h0c0.1-0.4,0.4-0.8,0.8-1.2c0.4-0.3,1-0.5,1.7-0.5
					c0.8,0,1.5,0.3,2,0.8c0.5,0.5,0.7,1.3,0.7,2.3v5.3h-1.3v-5.1c0-0.7-0.1-1.3-0.4-1.7s-0.7-0.6-1.4-0.6c-0.3,0-0.5,0-0.7,0.1
					c-0.2,0.1-0.4,0.2-0.6,0.3c-0.2,0.1-0.3,0.3-0.4,0.5c-0.1,0.2-0.2,0.4-0.2,0.7v5.7h-1.3v-5.1c0-0.7-0.1-1.3-0.4-1.7
					s-0.7-0.6-1.3-0.6c-0.3,0-0.5,0-0.7,0.1c-0.2,0.1-0.4,0.2-0.6,0.3c-0.2,0.1-0.3,0.3-0.4,0.5c-0.1,0.2-0.2,0.4-0.2,0.7v5.7H49.4z
					"/>
				<path d="M69.5,149c-0.5,0-0.8-0.1-1-0.4s-0.3-0.6-0.4-1H68c-0.2,0.5-0.5,0.9-0.9,1.2c-0.4,0.3-0.9,0.4-1.5,0.4
					c-0.9,0-1.6-0.2-2-0.7c-0.5-0.4-0.7-1.1-0.7-1.8c0-0.8,0.3-1.4,0.9-1.8c0.6-0.4,1.5-0.6,2.7-0.6H68v-0.8c0-0.6-0.2-1-0.5-1.3
					s-0.8-0.5-1.5-0.5c-0.5,0-0.9,0.1-1.3,0.3c-0.3,0.2-0.6,0.5-0.8,0.9l-0.8-0.7c0.2-0.4,0.6-0.8,1.1-1.1s1.1-0.5,1.9-0.5
					c1,0,1.8,0.2,2.3,0.7c0.6,0.5,0.8,1.2,0.8,2v4.5h0.9v1.1H69.5z M65.8,148.1c0.3,0,0.6,0,0.9-0.1s0.5-0.2,0.7-0.3
					s0.3-0.3,0.4-0.5c0.1-0.2,0.2-0.4,0.2-0.6v-1.4h-1.7c-0.7,0-1.3,0.1-1.6,0.3c-0.3,0.2-0.5,0.5-0.5,0.9v0.3
					c0,0.4,0.1,0.7,0.4,0.9C64.9,148,65.3,148.1,65.8,148.1z"/>
				<path d="M72.2,149v-8.3h1.3v1.5h0.1c0.1-0.4,0.4-0.7,0.8-1.1s0.9-0.5,1.6-0.5h0.5v1.3h-0.8c-0.7,0-1.2,0.1-1.6,0.4
					c-0.4,0.3-0.6,0.6-0.6,1v5.6H72.2z"/>
				<path d="M78.3,137.2h1.3v7.5h0.1l1.3-1.4l2.3-2.5h1.6l-3.1,3.3l3.4,5h-1.6l-2.7-4.2l-1.2,1.3v2.9h-1.3V137.2z"/>
				<path d="M89.7,149.2c-0.6,0-1.1-0.1-1.5-0.3c-0.5-0.2-0.8-0.5-1.2-0.9c-0.3-0.4-0.6-0.8-0.8-1.4c-0.2-0.5-0.3-1.1-0.3-1.8
					c0-0.7,0.1-1.2,0.3-1.8c0.2-0.5,0.4-1,0.8-1.4c0.3-0.4,0.7-0.7,1.2-0.9c0.5-0.2,1-0.3,1.5-0.3c0.6,0,1.1,0.1,1.5,0.3
					c0.4,0.2,0.8,0.5,1.1,0.8c0.3,0.4,0.5,0.8,0.7,1.3c0.2,0.5,0.2,1,0.2,1.6v0.6h-5.9v0.4c0,0.4,0.1,0.7,0.2,1
					c0.1,0.3,0.3,0.6,0.5,0.8s0.5,0.4,0.8,0.5c0.3,0.1,0.6,0.2,1,0.2c0.5,0,1-0.1,1.4-0.4c0.4-0.2,0.7-0.6,0.9-1.1l0.9,0.7
					c-0.3,0.6-0.7,1-1.2,1.4S90.5,149.2,89.7,149.2z M89.7,141.6c-0.4,0-0.7,0.1-1,0.2s-0.5,0.3-0.7,0.5c-0.2,0.2-0.4,0.5-0.5,0.8
					c-0.1,0.3-0.2,0.6-0.2,1v0.1h4.6V144c0-0.7-0.2-1.3-0.6-1.8C90.9,141.8,90.4,141.6,89.7,141.6z"/>
				<path d="M97.4,149c-0.4,0-0.8-0.1-1-0.4s-0.3-0.6-0.3-1v-5.8h-1.4v-1.1h0.8c0.3,0,0.5-0.1,0.6-0.2c0.1-0.1,0.2-0.3,0.2-0.6v-1.5
					h1.2v2.3h1.8v1.1h-1.8v6H99v1.1H97.4z"/>
				<path d="M102.2,147.1c0.3,0,0.6,0.1,0.7,0.3c0.2,0.2,0.2,0.4,0.2,0.7v0.2c0,0.4-0.1,0.9-0.4,1.4s-0.6,1-1.1,1.4h-1.1
					c0.3-0.3,0.6-0.7,0.8-1s0.3-0.6,0.4-1c-0.2-0.1-0.4-0.2-0.5-0.3c-0.1-0.1-0.2-0.3-0.2-0.5v-0.2c0-0.3,0.1-0.5,0.2-0.7
					C101.6,147.2,101.8,147.1,102.2,147.1z"/>
				<path d="M112.9,149.2c-0.6,0-1.1-0.1-1.6-0.3c-0.5-0.2-0.8-0.5-1.2-0.9c-0.3-0.4-0.6-0.8-0.7-1.4c-0.2-0.5-0.2-1.1-0.2-1.8
					s0.1-1.3,0.2-1.8c0.2-0.5,0.4-1,0.7-1.4c0.3-0.4,0.7-0.7,1.2-0.9c0.5-0.2,1-0.3,1.6-0.3c0.8,0,1.5,0.2,2,0.5
					c0.5,0.4,0.9,0.8,1.1,1.4l-1.1,0.5c-0.1-0.4-0.4-0.8-0.7-1s-0.8-0.4-1.3-0.4c-0.4,0-0.7,0.1-1,0.2c-0.3,0.1-0.5,0.3-0.7,0.5
					s-0.3,0.5-0.4,0.8s-0.1,0.6-0.1,1v1.4c0,0.7,0.2,1.3,0.6,1.8c0.4,0.5,1,0.7,1.7,0.7c1,0,1.8-0.5,2.2-1.4l0.9,0.6
					c-0.3,0.6-0.7,1.1-1.2,1.4C114.4,149,113.7,149.2,112.9,149.2z"/>
				<path d="M123.2,147.7L123.2,147.7c-0.1,0.2-0.3,0.4-0.4,0.6c-0.1,0.2-0.3,0.3-0.5,0.5c-0.2,0.1-0.4,0.3-0.7,0.3
					c-0.3,0.1-0.6,0.1-0.9,0.1c-0.9,0-1.5-0.3-2-0.8c-0.5-0.5-0.8-1.3-0.8-2.3v-5.3h1.3v5.1c0,1.5,0.6,2.2,1.9,2.2
					c0.3,0,0.5,0,0.7-0.1c0.2-0.1,0.5-0.2,0.6-0.3c0.2-0.1,0.3-0.3,0.4-0.5c0.1-0.2,0.2-0.4,0.2-0.7v-5.7h1.3v8.3h-1.3V147.7z"/>
				<path d="M127.3,149v-8.3h1.3v1.5h0.1c0.1-0.4,0.4-0.7,0.8-1.1s0.9-0.5,1.6-0.5h0.5v1.3h-0.8c-0.7,0-1.2,0.1-1.6,0.4
					c-0.4,0.3-0.6,0.6-0.6,1v5.6H127.3z"/>
				<path d="M133.4,149v-8.3h1.3v1.5h0.1c0.1-0.4,0.4-0.7,0.8-1.1s0.9-0.5,1.6-0.5h0.5v1.3h-0.8c-0.7,0-1.2,0.1-1.6,0.4
					c-0.4,0.3-0.6,0.6-0.6,1v5.6H133.4z"/>
				<path d="M142.4,149.2c-0.6,0-1.1-0.1-1.5-0.3c-0.5-0.2-0.8-0.5-1.2-0.9c-0.3-0.4-0.6-0.8-0.8-1.4c-0.2-0.5-0.3-1.1-0.3-1.8
					c0-0.7,0.1-1.2,0.3-1.8c0.2-0.5,0.4-1,0.8-1.4c0.3-0.4,0.7-0.7,1.2-0.9c0.5-0.2,1-0.3,1.5-0.3c0.6,0,1.1,0.1,1.5,0.3
					c0.4,0.2,0.8,0.5,1.1,0.8c0.3,0.4,0.5,0.8,0.7,1.3s0.2,1,0.2,1.6v0.6h-5.9v0.4c0,0.4,0.1,0.7,0.2,1c0.1,0.3,0.3,0.6,0.5,0.8
					s0.5,0.4,0.8,0.5c0.3,0.1,0.6,0.2,1,0.2c0.5,0,1-0.1,1.4-0.4c0.4-0.2,0.7-0.6,0.9-1.1l0.9,0.7c-0.3,0.6-0.7,1-1.2,1.4
					C143.9,149,143.2,149.2,142.4,149.2z M142.4,141.6c-0.4,0-0.7,0.1-1,0.2s-0.5,0.3-0.7,0.5c-0.2,0.2-0.4,0.5-0.5,0.8
					c-0.1,0.3-0.2,0.6-0.2,1v0.1h4.6V144c0-0.7-0.2-1.3-0.6-1.8C143.6,141.8,143.1,141.6,142.4,141.6z"/>
				<path d="M148.3,149v-8.3h1.3v1.3h0.1c0.2-0.5,0.5-0.8,0.9-1.1c0.4-0.3,0.9-0.4,1.5-0.4c0.9,0,1.5,0.3,2,0.8
					c0.5,0.5,0.7,1.3,0.7,2.3v5.3h-1.3v-5.1c0-1.5-0.6-2.2-1.9-2.2c-0.3,0-0.5,0-0.7,0.1c-0.2,0.1-0.5,0.2-0.6,0.3
					c-0.2,0.1-0.3,0.3-0.5,0.5c-0.1,0.2-0.2,0.4-0.2,0.7v5.7H148.3z"/>
				<path d="M159.4,149c-0.4,0-0.8-0.1-1-0.4c-0.2-0.2-0.3-0.6-0.3-1v-5.8h-1.4v-1.1h0.8c0.3,0,0.5-0.1,0.6-0.2
					c0.1-0.1,0.2-0.3,0.2-0.6v-1.5h1.2v2.3h1.8v1.1h-1.8v6h1.7v1.1H159.4z"/>
				<path d="M172.4,140.7h1.3l-3.7,10.2c-0.1,0.2-0.2,0.5-0.3,0.6c-0.1,0.2-0.2,0.3-0.4,0.4c-0.1,0.1-0.3,0.2-0.5,0.2
					c-0.2,0-0.5,0.1-0.8,0.1h-0.7v-1.1h1.3l0.6-1.8l-3.1-8.6h1.3l2,5.6l0.4,1.3h0.1l0.4-1.3L172.4,140.7z"/>
				<path d="M178.5,149.2c-0.6,0-1.1-0.1-1.5-0.3c-0.5-0.2-0.8-0.5-1.2-0.9c-0.3-0.4-0.6-0.8-0.8-1.4c-0.2-0.5-0.3-1.1-0.3-1.8
					c0-0.7,0.1-1.2,0.3-1.8c0.2-0.5,0.4-1,0.8-1.4c0.3-0.4,0.7-0.7,1.2-0.9c0.5-0.2,1-0.3,1.5-0.3c0.6,0,1.1,0.1,1.5,0.3
					c0.4,0.2,0.8,0.5,1.1,0.8c0.3,0.4,0.5,0.8,0.7,1.3c0.2,0.5,0.2,1,0.2,1.6v0.6h-5.9v0.4c0,0.4,0.1,0.7,0.2,1
					c0.1,0.3,0.3,0.6,0.5,0.8s0.5,0.4,0.8,0.5c0.3,0.1,0.6,0.2,1,0.2c0.5,0,1-0.1,1.4-0.4c0.4-0.2,0.7-0.6,0.9-1.1l0.9,0.7
					c-0.3,0.6-0.7,1-1.2,1.4C179.9,149,179.3,149.2,178.5,149.2z M178.5,141.6c-0.4,0-0.7,0.1-1,0.2s-0.5,0.3-0.7,0.5
					c-0.2,0.2-0.4,0.5-0.5,0.8c-0.1,0.3-0.2,0.6-0.2,1v0.1h4.6V144c0-0.7-0.2-1.3-0.6-1.8C179.7,141.8,179.2,141.6,178.5,141.6z"/>
				<path d="M190.3,149c-0.5,0-0.8-0.1-1-0.4s-0.3-0.6-0.4-1h-0.1c-0.2,0.5-0.5,0.9-0.9,1.2c-0.4,0.3-0.9,0.4-1.5,0.4
					c-0.9,0-1.6-0.2-2-0.7c-0.5-0.4-0.7-1.1-0.7-1.8c0-0.8,0.3-1.4,0.9-1.8c0.6-0.4,1.5-0.6,2.7-0.6h1.6v-0.8c0-0.6-0.2-1-0.5-1.3
					s-0.8-0.5-1.5-0.5c-0.5,0-0.9,0.1-1.3,0.3c-0.3,0.2-0.6,0.5-0.8,0.9l-0.8-0.7c0.2-0.4,0.6-0.8,1.1-1.1c0.5-0.3,1.1-0.5,1.9-0.5
					c1,0,1.8,0.2,2.3,0.7c0.6,0.5,0.8,1.2,0.8,2v4.5h0.9v1.1H190.3z M186.7,148.1c0.3,0,0.6,0,0.9-0.1c0.3-0.1,0.5-0.2,0.7-0.3
					s0.3-0.3,0.4-0.5c0.1-0.2,0.2-0.4,0.2-0.6v-1.4h-1.7c-0.7,0-1.3,0.1-1.6,0.3c-0.3,0.2-0.5,0.5-0.5,0.9v0.3
					c0,0.4,0.1,0.7,0.4,0.9C185.8,148,186.2,148.1,186.7,148.1z"/>
				<path d="M193.1,149v-8.3h1.3v1.5h0.1c0.1-0.4,0.4-0.7,0.8-1.1c0.4-0.3,0.9-0.5,1.6-0.5h0.5v1.3h-0.8c-0.7,0-1.2,0.1-1.6,0.4
					c-0.4,0.3-0.6,0.6-0.6,1v5.6H193.1z"/>
			</g>
		</g>
	</g>
</g>
</svg>
