<svg xmlns="http://www.w3.org/2000/svg" viewBox="0 0 288 288"><g fill="none" fill-rule="evenodd"><path fill="#FFF" d="M0 288h288V0H0z"/><path fill="#EDF4FF" d="M134 215.975h20V72.024h-20z"/><path d="M144 215.976V72.025" stroke="#6EA6FF"/><path fill="#EDF4FF" d="M89.012 215.975h20V72.024h-20z"/><path d="M99.012 215.976V72.025" stroke="#6EA6FF"/><path fill="#EDF4FF" d="M178.988 215.975h20V72.024h-20z"/><path d="M188.988 215.976V72.025M64.024 215.976h159.952V72.025H64.024z" stroke="#6EA6FF"/><path d="M89.018 227.965H64.024m24.994-5v10m-24.994-10v10m69.982-5h-24.994m24.994-5v10m-24.994-10v10m69.982-5H154m24.994-5v10m-24.994-10v10m69.982-5h-24.994m24.994-5v10m-24.994-10v10" stroke="#A4A4A4"/></g></svg>