<?xml version="1.0" encoding="UTF-8"?>
<svg width="448px" height="448px" viewBox="0 0 448 448" version="1.1" xmlns="http://www.w3.org/2000/svg" xmlns:xlink="http://www.w3.org/1999/xlink">
    <!-- Generator: Sketch 56.3 (81716) - https://sketch.com -->
    <title>Group 10</title>
    <desc>Created with Sketch.</desc>
    <g id="Desktop" stroke="none" stroke-width="1" fill="none" fill-rule="evenodd">
        <g id="App-Icons-Desktop-Copy-2" transform="translate(-833.000000, -5609.000000)">
            <g id="Group-10" transform="translate(833.000000, 5609.000000)">
                <rect id="Rectangle" fill="#FFFFFF" x="0" y="0" width="448" height="448"></rect>
                <rect id="Rectangle-Copy-221" fill="#BEBEBE" x="80" y="80" width="128" height="8"></rect>
                <rect id="Rectangle-Copy-229" fill="#BEBEBE" x="80" y="200" width="288" height="8"></rect>
                <rect id="Rectangle-Copy-225" fill="#BEBEBE" x="80" y="136" width="288" height="8"></rect>
                <rect id="Rectangle-Copy-230" fill="#BEBEBE" x="80" y="264" width="288" height="8"></rect>
                <rect id="Rectangle-Copy-232" fill="#BEBEBE" x="80" y="360" width="288" height="8"></rect>
                <rect id="Rectangle-Copy-222" fill="#BEBEBE" x="80" y="104" width="288" height="8"></rect>
                <rect id="Rectangle-Copy-231" fill="#BEBEBE" x="80" y="232" width="288" height="8"></rect>
                <rect id="Rectangle-Copy-226" fill="#BEBEBE" x="80" y="168" width="208" height="8"></rect>
                <rect id="Rectangle-Copy-233" fill="#BEBEBE" x="80" y="216" width="288" height="8"></rect>
                <rect id="Rectangle-Copy-227" fill="#BEBEBE" x="80" y="152" width="288" height="8"></rect>
                <rect id="Rectangle-Copy-234" fill="#BEBEBE" x="80" y="280" width="288" height="8"></rect>
                <rect id="Rectangle-Copy-240" fill="#BEBEBE" opacity="0.8" x="80" y="376" width="288" height="8"></rect>
                <rect id="Rectangle-Copy-237" fill="#BEBEBE" x="80" y="296" width="288" height="8"></rect>
                <rect id="Rectangle-Copy-241" fill="#BEBEBE" opacity="0.6" x="80" y="392" width="288" height="8"></rect>
                <rect id="Rectangle-Copy-238" fill="#BEBEBE" x="80" y="312" width="288" height="8"></rect>
                <rect id="Rectangle-Copy-242" fill="#BEBEBE" opacity="0.4" x="80" y="408" width="288" height="8"></rect>
                <rect id="Rectangle-Copy-239" fill="#BEBEBE" x="80" y="328" width="288" height="8"></rect>
                <rect id="Rectangle-Copy-243" fill="#BEBEBE" opacity="0.2" x="80" y="424" width="288" height="8"></rect>
                <rect id="Rectangle-Copy-224" fill="#BEBEBE" x="80" y="120" width="288" height="8"></rect>
                <rect id="Rectangle-Copy-235" fill="#BEBEBE" x="80" y="248" width="208" height="8"></rect>
                <rect id="Rectangle-Copy-228" fill="#BEBEBE" x="80" y="184" width="288" height="8"></rect>
                <rect id="Rectangle-Copy-236" fill="#BEBEBE" x="80" y="344" width="208" height="8"></rect>
            </g>
        </g>
    </g>
</svg>