<?xml version="1.0" encoding="utf-8"?>
<!-- Generator: Adobe Illustrator 23.0.6, SVG Export Plug-In . SVG Version: 6.00 Build 0)  -->
<svg version="1.1" id="Layer_1" xmlns="http://www.w3.org/2000/svg" xmlns:xlink="http://www.w3.org/1999/xlink" x="0px" y="0px"
	 viewBox="0 0 1920 1080" style="enable-background:new 0 0 1920 1080;" xml:space="preserve">
<style type="text/css">
	.st0{fill:#0062FF;}
	.st1{fill:none;stroke:#FFFFFF;stroke-width:2;stroke-miterlimit:10;}
	.st2{fill:#FFFFFF;}
</style>
<rect class="st0" width="1920" height="1080"/>
<line class="st1" x1="1863.5264" y1="56.0003" x2="1863.5264" y2="1023.7495"/>
<line class="st1" x1="959.9478" y1="56.0003" x2="959.9478" y2="1023.7495"/>
<line class="st1" x1="508.1585" y1="56.0003" x2="508.1585" y2="1023.7495"/>
<line class="st1" x1="282.2638" y1="56.0003" x2="282.2638" y2="1023.7495"/>
<line class="st1" x1="169.3165" y1="56.0003" x2="169.3165" y2="1023.7495"/>
<line class="st1" x1="56.3692" y1="56.0003" x2="56.3692" y2="1023.7495"/>
<line class="st1" x1="112.8428" y1="56.0003" x2="112.8428" y2="1023.7495"/>
<line class="st1" x1="84.606" y1="56.0003" x2="84.606" y2="1023.7495"/>
<g>
	<rect x="1016.317" y="1021.9507" class="st2" width="13.8503" height="1.7988"/>
	<rect x="1016.317" y="1018.1734" class="st2" width="13.8503" height="1.7987"/>
	<rect x="1020.2742" y="1014.3961" class="st2" width="5.9358" height="1.7987"/>
	<rect x="1020.2742" y="1010.6187" class="st2" width="5.9358" height="1.7987"/>
	<rect x="1020.2742" y="1006.8413" class="st2" width="5.9358" height="1.7988"/>
	<rect x="1020.2742" y="1003.064" class="st2" width="5.9358" height="1.7988"/>
	<rect x="1016.317" y="999.2866" class="st2" width="13.8503" height="1.7987"/>
	<rect x="1016.317" y="995.5093" class="st2" width="13.8503" height="1.7987"/>
	<path class="st2" d="M1032.1459,1021.9507v1.7988l0,0h14.5698v-0.0001c1.8658,0,3.5724-0.6777,4.8905-1.7987H1032.1459
		L1032.1459,1021.9507z"/>
	<path class="st2" d="M1032.1459,1018.1734v1.7987l0,0h21.1113c0.3231-0.5585,0.5771-1.1616,0.7496-1.7987H1032.1459
		L1032.1459,1018.1734z"/>
	<rect x="1036.1031" y="1014.3961" class="st2" width="5.9358" height="1.7987"/>
	<path class="st2" d="M1051.7395,1010.6187h-15.6364v1.7988h17.088C1052.8015,1011.7448,1052.3102,1011.1394,1051.7395,1010.6187z"
		/>
	<path class="st2" d="M1036.1031,1006.8413v1.7988h15.7012c0.5707-0.5208,1.062-1.1261,1.4517-1.7988H1036.1031z"/>
	<path class="st2" d="M1054.0068,1001.0854c-0.1725-0.6371-0.4265-1.2403-0.7496-1.7988h-21.1113l0,0v1.7988l0,0H1054.0068z"/>
	<path class="st2" d="M1051.6062,997.308c-1.3181-1.1209-3.0247-1.7987-4.8905-1.7987h-14.5698l0,0v1.7987l0,0H1051.6062z"/>
	<rect x="1036.1031" y="1003.064" class="st2" width="5.9358" height="1.7988"/>
	<path class="st2" d="M1047.6151,1004.8627h6.4353c0.1411-0.5769,0.22-1.1783,0.22-1.7988h-6.6553V1004.8627z"/>
	<path class="st2" d="M1047.6151,1014.3961v1.7987h6.6553c0-0.6205-0.0789-1.2219-0.22-1.7987H1047.6151z"/>
	<polygon class="st2" points="1067.0414,995.4995 1055.8893,995.4995 1055.8893,997.2982 1067.6654,997.2982 	"/>
	<rect x="1055.8893" y="1021.9501" class="st2" width="9.8964" height="1.7994"/>
	<rect x="1055.8893" y="1018.1714" class="st2" width="9.8964" height="1.7994"/>
	<rect x="1059.8478" y="1014.3928" class="st2" width="5.9379" height="1.7994"/>
	<rect x="1059.8478" y="1010.6142" class="st2" width="5.9379" height="1.7994"/>
	<rect x="1077.6615" y="1021.9501" class="st2" width="9.8965" height="1.7994"/>
	<rect x="1077.6615" y="1018.1714" class="st2" width="9.8965" height="1.7994"/>
	<rect x="1077.6615" y="1014.3928" class="st2" width="5.9379" height="1.7994"/>
	<rect x="1077.6615" y="1010.6142" class="st2" width="5.9379" height="1.7994"/>
	<polygon class="st2" points="1077.6615,1008.6349 1083.5994,1008.6349 1083.5994,1006.8355 1077.6615,1006.8355 
		1072.4692,1006.8355 1071.845,1008.6349 1077.0564,1008.6349 1077.6615,1006.9213 	"/>
	<polygon class="st2" points="1070.9779,1006.8355 1065.7856,1006.8355 1059.8478,1006.8355 1059.8478,1008.6349 
		1065.7856,1008.6349 1065.7856,1006.9213 1066.3906,1008.6349 1071.6022,1008.6349 	"/>
	<polygon class="st2" points="1083.5994,1003.0569 1073.7802,1003.0569 1073.1559,1004.8563 1083.5994,1004.8563 	"/>
	<polygon class="st2" points="1076.4019,995.4996 1075.7777,997.299 1087.558,997.299 1087.558,995.4996 	"/>
	<polygon class="st2" points="1071.7197,1023.7495 1072.3553,1021.9501 1071.0917,1021.9501 	"/>
	<polygon class="st2" points="1070.3929,1019.9708 1073.0542,1019.9708 1073.6895,1018.1714 1069.7577,1018.1714 	"/>
	<polygon class="st2" points="1069.0588,1016.1922 1074.3883,1016.1922 1075.0236,1014.3928 1068.4236,1014.3928 	"/>
	<polygon class="st2" points="1067.7247,1012.4135 1075.7223,1012.4135 1076.3577,1010.6142 1067.0895,1010.6142 	"/>
	<polygon class="st2" points="1059.8478,1004.8563 1070.2911,1004.8563 1069.667,1003.0569 1059.8478,1003.0569 	"/>
	<polygon class="st2" points="1074.4668,1001.0776 1087.558,1001.0776 1087.558,999.2782 1075.0911,999.2782 	"/>
	<polygon class="st2" points="1068.3561,999.2782 1055.8893,999.2782 1055.8893,1001.0776 1068.9803,1001.0776 	"/>
</g>
<path id="IBM_Services" class="st2" d="M1016.317,84.2515v-2.8332h3.9664V58.8343h-3.9664v-2.833h11.3325v2.833h-3.9664v22.5839
	h3.9664v2.8332H1016.317z M1033.8416,56.0013h11.6158c4.6544,0,7.528,2.8734,7.528,7.285c0,4.2092-2.7115,5.7069-4.5735,5.9902
	v0.2427c2.0238,0.1215,5.5448,1.8617,5.5448,6.5567c0,4.6543-3.1163,8.1755-7.2849,8.1755h-12.8302V56.0013z M1037.2413,68.2241
	h7.8114c2.6711,0,4.29-1.4166,4.29-3.9258v-1.3762c0-2.5092-1.6189-3.9258-4.29-3.9258h-7.8114V68.2241z M1037.2413,81.2565h8.3779
	c2.9141,0,4.6949-1.5381,4.6949-4.3713v-1.376c0-2.8332-1.7809-4.3711-4.6949-4.3711h-8.3779V81.2565z M1082.2476,60.4533h-0.2023
	l-2.3879,4.7353l-6.759,12.3038l-6.7185-12.3038l-2.3879-4.6949h-0.2023v23.7578h-3.319V56.0013h4.4521l8.0946,15.2179h0.162
	l8.135-15.2179h4.4521v28.2501h-3.319V60.4533z M1098.8007,80.1637l4.0471-4.0877c1.9025,2.145,4.3307,3.2378,7.0831,3.2378
	c2.9949,0,4.4517-1.3358,4.4517-3.3999c0-1.5379-0.6476-2.6711-3.2781-3.0353l-2.7926-0.3642
	c-5.9496-0.769-8.6613-3.6831-8.6613-8.4184c0-5.0593,3.9662-8.5805,10.604-8.5805c4.2494,0,7.4873,1.4166,9.7944,3.9665
	l-4.0878,4.1282c-1.3358-1.5783-3.157-2.6711-6.071-2.6711c-2.7524,0-4.0878,1.0522-4.0878,2.7522
	c0,1.9427,1.012,2.6713,3.3594,3.0355l2.7926,0.4451c5.7875,0.9309,8.5801,3.5212,8.5801,8.378
	c0,5.4235-3.9663,9.1874-11.0087,9.1874C1104.5883,84.7371,1101.2289,82.8348,1098.8007,80.1637z M1123.9747,73.607
	c0-6.7184,3.562-11.0895,9.9564-11.0895c7.0425,0,9.8756,5.0995,9.8756,10.8468v1.7808h-13.6395v0.3238
	c0,2.7926,1.4974,4.5734,4.6951,4.5734c2.509,0,3.8854-1.1737,5.2208-2.5499l2.9952,3.7235
	c-1.9025,2.1856-5.0188,3.5212-8.9043,3.5212C1127.6578,84.7371,1123.9747,80.4065,1123.9747,73.607z M1130.1672,71.3001v0.3238
	h7.447v-0.3642c0-2.5903-1.1737-4.3307-3.5616-4.3307S1130.1672,68.6693,1130.1672,71.3001z M1148.0563,84.2515V63.0031h5.9902
	v4.6138h0.2023c0.4855-2.3473,2.1044-4.6138,5.4235-4.6138h1.0522v5.5852h-1.4974c-3.4808,0-5.1805,0.769-5.1805,3.2379v12.4253
	H1148.0563z M1169.223,84.2515l-6.9612-21.2483h5.9089l2.6305,8.5803l1.9834,7.6898h0.3237l1.9833-7.6898l2.5497-8.5803h5.6665
	l-6.9617,21.2483H1169.223z M1185.9789,57.7819v-0.8903c0-1.7,1.0521-2.9545,3.4802-2.9545c2.4286,0,3.4808,1.2545,3.4808,2.9545
	v0.8903c0,1.7-1.0522,2.9547-3.4808,2.9547C1187.031,60.7366,1185.9789,59.4819,1185.9789,57.7819z M1186.4642,63.0031h5.9902
	v21.2483h-5.9902V63.0031z M1196.7039,73.607c0-6.7995,3.521-11.0895,9.9159-11.0895c4.29,0,7.2444,2.064,8.4993,5.5448
	l-4.8568,2.1046c-0.3644-1.6189-1.5381-2.9141-3.6425-2.9141c-2.4286,0-3.6831,1.7404-3.6831,4.4115v3.9665
	c0,2.6711,1.2545,4.4115,3.6831,4.4115c2.3879,0,3.3589-1.4975,3.9663-3.1974l4.6544,2.0238
	c-1.4166,4.0473-4.4521,5.8686-8.6207,5.8686C1200.2249,84.7371,1196.7039,80.4065,1196.7039,73.607z M1217.4261,73.607
	c0-6.7184,3.562-11.0895,9.9564-11.0895c7.0425,0,9.8757,5.0995,9.8757,10.8468v1.7808h-13.6396v0.3238
	c0,2.7926,1.4974,4.5734,4.6951,4.5734c2.509,0,3.8854-1.1737,5.2208-2.5499l2.9952,3.7235
	c-1.9025,2.1856-5.0188,3.5212-8.9043,3.5212C1221.1093,84.7371,1217.4261,80.4065,1217.4261,73.607z M1223.6187,71.3001v0.3238
	h7.447v-0.3642c0-2.5903-1.1736-4.3307-3.5616-4.3307C1225.1161,66.929,1223.6187,68.6693,1223.6187,71.3001z M1239.7673,80.9328
	l3.5214-3.5616c1.4974,1.6594,3.3187,2.7116,5.6255,2.7116c2.3477,0,3.157-0.7688,3.157-2.0236c0-1.0524-0.6476-1.5785-2.145-1.7808
	l-2.3071-0.2834c-4.8162-0.6071-7.1636-2.7117-7.1636-6.5567c0-4.0877,3.1973-6.9208,8.2563-6.9208
	c4.4521,0,6.5164,1.2141,8.6614,3.3187l-3.4402,3.5212c-1.3358-1.3356-3.1163-2.1856-4.8973-2.1856
	c-2.0236,0-2.8329,0.7286-2.8329,1.781c0,1.1331,0.4855,1.7402,2.2258,1.9831l2.3881,0.3238
	c4.6138,0.6071,7.0017,2.7116,7.0017,6.3947c0,4.0877-3.6425,7.0828-9.1066,7.0828
	C1244.624,84.7371,1241.9529,83.3609,1239.7673,80.9328z"/>
</svg>
