<svg id="Layer_1" data-name="Layer 1" xmlns="http://www.w3.org/2000/svg" viewBox="0 0 896 503.96"><defs><style>.cls-1{fill:none;stroke:#565656;stroke-miterlimit:10;stroke-width:2px;}.cls-2{fill:#fff;}</style></defs><title>Artboard 9 copy 6</title><rect x="0.01" width="895.96" height="503.98"/><line class="cls-1" x1="30.91" x2="30.91" y2="503.98"/><line class="cls-1" x1="447.99" x2="447.99" y2="503.98"/><line class="cls-1" x1="865.08" x2="865.08" y2="503.98"/><line class="cls-1" x1="895.97" y1="31.19" x2="0.01" y2="31.19"/><line class="cls-1" x1="895.97" y1="252.14" x2="0.01" y2="252.14"/><line class="cls-1" x1="895.97" y1="473.08" x2="0.01" y2="473.08"/><path class="cls-2" d="M453.87,34V45.14h-1.5V34h-4V32.62h9.48V34Z"/><path class="cls-2" d="M459.77,31.86h1.44v5.53h.07a2.63,2.63,0,0,1,2.62-1.72c1.9,0,3.11,1.29,3.11,3.53v5.94h-1.44V39.46c0-1.66-.72-2.5-2.1-2.5-1.15,0-2.26.57-2.26,1.76v6.42h-1.44Z"/><path class="cls-2" d="M469.28,40.51c0-2.94,1.65-4.84,4.16-4.84s4,1.9,4,4.52v.68h-6.65v.43a2.62,2.62,0,0,0,2.74,2.8,2.67,2.67,0,0,0,2.55-1.6l1,.74a3.88,3.88,0,0,1-3.66,2.12C470.93,45.36,469.28,43.46,469.28,40.51Zm1.51-.84v.12h5.11V39.6a2.47,2.47,0,0,0-2.46-2.73A2.63,2.63,0,0,0,470.79,39.67Z"/><path class="cls-2" d="M484,45.14V35.88h1.44v1.51h.07a2.63,2.63,0,0,1,2.62-1.72c1.9,0,3.1,1.29,3.1,3.53v5.94h-1.43V39.46c0-1.66-.72-2.5-2.1-2.5-1.15,0-2.26.57-2.26,1.76v6.42Z"/><path class="cls-2" d="M499.94,43.63h-.08a2.58,2.58,0,0,1-2.6,1.73c-1.9,0-3.12-1.29-3.12-3.54V35.88h1.43v5.69c0,1.65.74,2.5,2.12,2.5,1.13,0,2.25-.56,2.25-1.78V35.88h1.43v9.26h-1.43Z"/><path class="cls-2" d="M504.41,45.14V35.88h1.44v1.51h.07a2.5,2.5,0,0,1,2.5-1.72,2.84,2.84,0,0,1,2.83,1.88h0a2.78,2.78,0,0,1,2.82-1.88c1.88,0,3,1.29,3,3.53v5.94h-1.44V39.46c0-1.64-.62-2.5-2-2.5-1.13,0-2.17.57-2.17,1.76v6.42h-1.44V39.46c0-1.66-.63-2.5-2-2.5-1.13,0-2.21.57-2.21,1.76v6.42Z"/><path class="cls-2" d="M520.07,31.86h1.44v5.53h.07a2.71,2.71,0,0,1,2.71-1.72c2.32,0,3.77,1.88,3.77,4.84s-1.45,4.85-3.77,4.85a2.8,2.8,0,0,1-2.71-1.73h-.07v1.51h-1.44Zm6.44,9.44V39.72A2.52,2.52,0,0,0,523.9,37c-1.31,0-2.39.75-2.39,1.78v3.44c0,1.2,1.08,1.89,2.39,1.89A2.53,2.53,0,0,0,526.51,41.3Z"/><path class="cls-2" d="M529.79,40.51c0-2.94,1.66-4.84,4.17-4.84s4,1.9,4,4.52v.68H531.3v.43a2.62,2.62,0,0,0,2.75,2.8,2.67,2.67,0,0,0,2.54-1.6l1,.74A3.88,3.88,0,0,1,534,45.36C531.45,45.36,529.79,43.46,529.79,40.51Zm1.51-.84v.12h5.11V39.6A2.46,2.46,0,0,0,534,36.87,2.63,2.63,0,0,0,531.3,39.67Z"/><path class="cls-2" d="M540.32,45.14V35.88h1.44v1.71h.09a2.66,2.66,0,0,1,2.67-1.71h.56v1.44h-.85c-1.54,0-2.47.66-2.47,1.54v6.28Z"/><path class="cls-2" d="M550.46,40.51c0-2.94,1.7-4.84,4.18-4.84s4.18,1.9,4.18,4.84-1.71,4.85-4.18,4.85S550.46,43.46,550.46,40.51Zm6.81.67V39.85c0-2-1.09-2.91-2.63-2.91s-2.64,1-2.64,2.91v1.33c0,2,1.09,2.9,2.64,2.9S557.27,43.13,557.27,41.18Z"/><path class="cls-2" d="M561.58,37.14h-1.51V35.88h1.51V34a1.91,1.91,0,0,1,2-2.16H565v1.26h-2v2.76h2v1.26h-2v8h-1.43Z"/><path class="cls-2" d="M570.24,43.55l1-.83A3.36,3.36,0,0,0,574,44.14c1.22,0,1.94-.56,1.94-1.51,0-.72-.4-1.27-1.62-1.45l-.74-.11c-1.7-.25-3-1-3-2.67s1.41-2.73,3.3-2.73a3.84,3.84,0,0,1,3.23,1.49l-.95.86a2.89,2.89,0,0,0-2.39-1.13c-1.18,0-1.81.56-1.81,1.44s.63,1.25,1.77,1.43l.72.11c2,.3,2.84,1.2,2.84,2.6,0,1.79-1.31,2.89-3.43,2.89A4.3,4.3,0,0,1,570.24,43.55Z"/><path class="cls-2" d="M579.17,40.51c0-2.94,1.65-4.84,4.16-4.84s4,1.9,4,4.52v.68h-6.66v.43a2.62,2.62,0,0,0,2.74,2.8A2.67,2.67,0,0,0,586,42.5l1,.74a3.89,3.89,0,0,1-3.67,2.12C580.82,45.36,579.17,43.46,579.17,40.51Zm1.51-.84v.12h5.11V39.6a2.46,2.46,0,0,0-2.46-2.73A2.63,2.63,0,0,0,580.68,39.67Z"/><path class="cls-2" d="M589,40.51c0-3,1.52-4.84,4.12-4.84a3.48,3.48,0,0,1,3.47,2.17l-1.2.61a2.25,2.25,0,0,0-2.27-1.51,2.49,2.49,0,0,0-2.58,2.78V41.3a2.48,2.48,0,0,0,2.58,2.78,2.62,2.62,0,0,0,2.52-1.61l1,.7a3.65,3.65,0,0,1-3.56,2.19C590.54,45.36,589,43.47,589,40.51Z"/><path class="cls-2" d="M604.43,43.63h-.07a2.58,2.58,0,0,1-2.61,1.73c-1.9,0-3.12-1.29-3.12-3.54V35.88h1.44v5.69c0,1.65.73,2.5,2.11,2.5,1.13,0,2.25-.56,2.25-1.78V35.88h1.43v9.26h-1.43Z"/><path class="cls-2" d="M608.91,45.14V35.88h1.43v1.71h.1a2.65,2.65,0,0,1,2.67-1.71h.55v1.44h-.84c-1.54,0-2.48.66-2.48,1.54v6.28Z"/><path class="cls-2" d="M615.33,32.9v-.23c0-.48.27-.81.88-.81s.88.33.88.81v.23c0,.49-.27.81-.88.81S615.33,33.39,615.33,32.9Zm.16,3h1.44v9.26h-1.44Z"/><path class="cls-2" d="M622,45.14a1.41,1.41,0,0,1-1.52-1.52V37.14H619V35.88h.86c.61,0,.81-.21.81-.84V33.32h1.29v2.56h2v1.26h-2v6.75h1.89v1.25Z"/><path class="cls-2" d="M632,35.88h1.42L629.25,47.3c-.41,1.11-.79,1.43-2.15,1.43h-.74V47.48h1.46l.7-2-3.47-9.62h1.44l2.22,6.3.43,1.51h.09l.5-1.51Z"/><path class="cls-2" d="M448.83,66.13c0-2.94,1.65-4.84,4.17-4.84s4,1.9,4,4.52v.68h-6.66v.44a2.62,2.62,0,0,0,2.75,2.79,2.67,2.67,0,0,0,2.54-1.59l1,.73A3.89,3.89,0,0,1,453,71C450.48,71,448.83,69.08,448.83,66.13Zm1.51-.84v.13h5.11v-.2A2.46,2.46,0,0,0,453,62.49,2.63,2.63,0,0,0,450.34,65.29Z"/><path class="cls-2" d="M461.26,70.76,458,61.51h1.43l1.62,4.59,1,3.16h.09l1-3.16,1.65-4.59h1.38l-3.27,9.25Z"/><path class="cls-2" d="M467.22,66.13c0-2.94,1.65-4.84,4.16-4.84s4,1.9,4,4.52v.68h-6.66v.44a2.62,2.62,0,0,0,2.75,2.79A2.7,2.7,0,0,0,474,68.13l1,.73A3.88,3.88,0,0,1,471.38,71C468.87,71,467.22,69.08,467.22,66.13Zm1.5-.84v.13h5.12v-.2a2.47,2.47,0,0,0-2.46-2.73A2.64,2.64,0,0,0,468.72,65.29Z"/><path class="cls-2" d="M477.74,70.76V61.51h1.44V63h.07a2.63,2.63,0,0,1,2.62-1.72c1.9,0,3.11,1.29,3.11,3.53v5.94h-1.44V65.08c0-1.65-.72-2.5-2.1-2.5-1.15,0-2.26.58-2.26,1.76v6.42Z"/><path class="cls-2" d="M490,70.76a1.41,1.41,0,0,1-1.53-1.52V62.76h-1.52V61.51h.86c.61,0,.81-.22.81-.85V58.94h1.29v2.57h2v1.25h-2v6.75h1.88v1.25Z"/><path class="cls-2" d="M493.35,69.17l1-.83a3.36,3.36,0,0,0,2.75,1.42c1.22,0,1.94-.56,1.94-1.51,0-.71-.4-1.27-1.62-1.45l-.74-.11c-1.7-.25-3-1-3-2.67s1.41-2.73,3.3-2.73a3.87,3.87,0,0,1,3.23,1.49l-.95.86a2.89,2.89,0,0,0-2.39-1.13c-1.18,0-1.81.56-1.81,1.43s.63,1.26,1.77,1.44l.72.11c2,.31,2.84,1.2,2.84,2.6,0,1.8-1.31,2.89-3.43,2.89A4.32,4.32,0,0,1,493.35,69.17Z"/><path class="cls-2" d="M507.19,70.76V61.51h1.44V63h.07a2.5,2.5,0,0,1,2.5-1.72A2.85,2.85,0,0,1,514,63.17h0a2.78,2.78,0,0,1,2.82-1.88c1.88,0,3,1.29,3,3.53v5.94h-1.44V65.08c0-1.64-.62-2.5-2-2.5-1.13,0-2.17.58-2.17,1.76v6.42h-1.44V65.08c0-1.65-.63-2.5-2-2.5-1.13,0-2.21.58-2.21,1.76v6.42Z"/><path class="cls-2" d="M522.17,66.13c0-2.94,1.71-4.84,4.18-4.84s4.18,1.9,4.18,4.84S528.83,71,526.35,71,522.17,69.08,522.17,66.13Zm6.82.67V65.47c0-1.95-1.09-2.91-2.64-2.91s-2.64,1-2.64,2.91V66.8c0,2,1.1,2.91,2.64,2.91S529,68.75,529,66.8Z"/><path class="cls-2" d="M532.9,70.76V61.51h1.43V63h.08A2.61,2.61,0,0,1,537,61.29c1.9,0,3.1,1.29,3.1,3.53v5.94h-1.44V65.08c0-1.65-.71-2.5-2.1-2.5-1.14,0-2.26.58-2.26,1.76v6.42Z"/><path class="cls-2" d="M542.92,58.53v-.24c0-.48.27-.8.88-.8s.88.32.88.8v.24c0,.48-.27.81-.88.81S542.92,59,542.92,58.53Zm.16,3h1.44v9.25h-1.44Z"/><path class="cls-2" d="M549.61,70.76a1.41,1.41,0,0,1-1.52-1.52V62.76h-1.53V61.51h.86c.62,0,.81-.22.81-.85V58.94h1.3v2.57h2v1.25h-2v6.75h1.88v1.25Z"/><path class="cls-2" d="M553.11,66.13c0-2.94,1.71-4.84,4.18-4.84s4.18,1.9,4.18,4.84S559.77,71,557.29,71,553.11,69.08,553.11,66.13Zm6.82.67V65.47c0-1.95-1.09-2.91-2.64-2.91s-2.64,1-2.64,2.91V66.8c0,2,1.1,2.91,2.64,2.91S559.93,68.75,559.93,66.8Z"/><path class="cls-2" d="M563.84,70.76V61.51h1.43v1.7h.09a2.67,2.67,0,0,1,2.68-1.7h.55v1.43h-.84c-1.54,0-2.48.67-2.48,1.54v6.28Z"/><path class="cls-2" d="M569.65,66.13c0-2.94,1.65-4.84,4.16-4.84s4,1.9,4,4.52v.68h-6.65v.44a2.62,2.62,0,0,0,2.74,2.79,2.69,2.69,0,0,0,2.55-1.59l1,.73A3.88,3.88,0,0,1,573.81,71C571.3,71,569.65,69.08,569.65,66.13Zm1.51-.84v.13h5.11v-.2a2.47,2.47,0,0,0-2.46-2.73A2.63,2.63,0,0,0,571.16,65.29Z"/><path class="cls-2" d="M586.1,69.26H586A2.79,2.79,0,0,1,583.32,71c-2.32,0-3.77-1.88-3.77-4.85s1.45-4.84,3.77-4.84A2.72,2.72,0,0,1,586,63h.07V57.49h1.43V70.76H586.1Zm0-1.46V64.36c0-1-1.08-1.78-2.39-1.78a2.53,2.53,0,0,0-2.62,2.77v1.58a2.53,2.53,0,0,0,2.62,2.76C585,69.69,586.1,69,586.1,67.8Z"/><path class="cls-2" d="M594.81,57.49h1.44V63h.07A2.71,2.71,0,0,1,599,61.29c2.31,0,3.77,1.88,3.77,4.84S601.34,71,599,71a2.79,2.79,0,0,1-2.71-1.72h-.07v1.5h-1.44Zm6.45,9.44V65.35a2.53,2.53,0,0,0-2.63-2.77c-1.31,0-2.38.76-2.38,1.78V67.8c0,1.21,1.07,1.89,2.38,1.89A2.53,2.53,0,0,0,601.26,66.93Z"/><path class="cls-2" d="M610.83,61.51h1.42L608.1,72.92c-.41,1.11-.79,1.43-2.15,1.43h-.73V73.1h1.45l.7-2-3.47-9.61h1.44l2.22,6.29.43,1.51h.1l.5-1.51Z"/><path class="cls-2" d="M449.07,96.39V95.13h1.75v-10h-1.75V83.86h5v1.26h-1.76v10h1.76v1.26Z"/><path class="cls-2" d="M456.83,83.86H462a3.07,3.07,0,0,1,3.34,3.23,2.44,2.44,0,0,1-2,2.66v.11a2.72,2.72,0,0,1,2.46,2.9,3.37,3.37,0,0,1-3.23,3.63h-5.69Zm1.51,5.42h3.46a1.66,1.66,0,0,0,1.9-1.74v-.61a1.67,1.67,0,0,0-1.9-1.74h-3.46Zm0,5.78h3.71a1.84,1.84,0,0,0,2.09-1.94v-.61a1.84,1.84,0,0,0-2.09-1.93h-3.71Z"/><path class="cls-2" d="M468.54,83.86h2l3.59,6.75h.09l3.61-6.75h1.94V96.39h-1.47V85.84h-.09l-1.06,2.1-3,5.45-3-5.45-1.05-2.1H470V96.39h-1.48Z"/><path class="cls-2" d="M493.12,94.88h-.07a2.8,2.8,0,0,1-2.71,1.73c-2.32,0-3.77-1.89-3.77-4.85s1.45-4.85,3.77-4.85a2.71,2.71,0,0,1,2.71,1.73h.07V83.11h1.43V96.39h-1.43Zm0-1.45V90c0-1-1.08-1.77-2.39-1.77A2.53,2.53,0,0,0,488.11,91v1.58a2.53,2.53,0,0,0,2.62,2.76C492,95.31,493.12,94.63,493.12,93.43Z"/><path class="cls-2" d="M504.33,96.39a1.5,1.5,0,0,1-1.6-1.51h-.09A2.61,2.61,0,0,1,500,96.61c-2,0-3.1-1.08-3.1-2.8s1.25-2.71,3.94-2.71h1.83v-.92c0-1.31-.72-2-2.19-2a2.58,2.58,0,0,0-2.35,1.39l-.86-.81a3.52,3.52,0,0,1,3.29-1.82c2.22,0,3.55,1.17,3.55,3.13v5.09h1.06v1.26Zm-1.69-2.69V92.17h-1.9c-1.63,0-2.37.51-2.37,1.4V94c0,.91.72,1.43,1.83,1.43C501.62,95.38,502.64,94.65,502.64,93.7Z"/><path class="cls-2" d="M507,84.15v-.23c0-.49.28-.81.88-.81s.88.32.88.81v.23c0,.49-.27.81-.88.81S507,84.64,507,84.15Zm.17,3h1.43v9.26h-1.43Z"/><path class="cls-2" d="M513.19,96.39a1.41,1.41,0,0,1-1.53-1.49V83.11h1.44v12h1.36v1.26Z"/><path class="cls-2" d="M522.07,87.13h1.42l-4.15,11.41c-.41,1.11-.79,1.44-2.15,1.44h-.74V98.72h1.46l.7-2-3.47-9.62h1.44l2.22,6.3.43,1.51h.09l.5-1.51Z"/><path class="cls-2" d="M524.15,95.56v-.23a1.09,1.09,0,0,1,2.18,0v.23a1.09,1.09,0,0,1-2.18,0Z"/><path class="cls-2" d="M48.79,142.14l43.76-101H40.35V63.68H31.91V33h70.18v8.29L58.79,142.14Z"/><path class="cls-2" d="M124.44,87.59c0-37.35,12-56.42,36.88-56.42s36.89,19.07,36.89,56.42S186.18,144,161.32,144,124.44,124.94,124.44,87.59Zm63.92,7.35V80.24c0-25.47-8.59-40.95-27-40.95s-27,15.48-27,40.95v14.7c0,25.47,8.6,40.94,27,40.94S188.36,120.41,188.36,94.94Z"/><path class="cls-2" d="M223.69,33h42.67c17,0,27.35,10.32,27.35,27.51,0,15.16-8.6,21.88-16.72,23.76v.62c10.16,1.25,20.94,9.38,20.94,26.42,0,18-10.94,30.79-27.66,30.79H223.69Zm9.38,48.3h32.35c11.88,0,18.29-7.19,18.29-17V58.36c0-10-6.41-17-18.29-17H233.07Zm0,52.51h34.69c13.13,0,20.17-8,20.17-19.38v-5.78c0-11.26-7-19.23-20.17-19.23H233.07Z"/><path id="IBM_Security" data-name="IBM Security" class="cls-2" d="M30.91,473.05V470.9h3V453.75h-3V451.6h8.6v2.15h-3V470.9h3v2.15Zm13.3-21.45H53c3.53,0,5.72,2.18,5.72,5.53,0,3.2-2.06,4.34-3.48,4.55v.19a4.67,4.67,0,0,1,4.21,5c0,3.54-2.36,6.21-5.53,6.21H44.21Zm2.58,9.28h5.93c2,0,3.26-1.07,3.26-3v-1c0-1.91-1.23-3-3.26-3H46.79Zm0,9.9h6.36c2.22,0,3.57-1.17,3.57-3.32v-1c0-2.15-1.35-3.32-3.57-3.32H46.79ZM81,455h-.15L79,458.58l-5.13,9.34-5.1-9.34L67,455H66.8v18H64.28V451.6h3.38l6.14,11.56h.12L80.1,451.6h3.38v21.45H81Zm12.57,15,3.07-3.11A7,7,0,0,0,102,469.3c2.27,0,3.38-1,3.38-2.58,0-1.17-.49-2-2.49-2.3l-2.12-.28c-4.52-.58-6.58-2.8-6.58-6.39,0-3.84,3-6.52,8-6.52a9.54,9.54,0,0,1,7.44,3l-3.1,3.13a5.62,5.62,0,0,0-4.61-2c-2.09,0-3.11.8-3.11,2.09,0,1.48.77,2,2.55,2.31l2.12.33c4.4.71,6.52,2.68,6.52,6.36,0,4.12-3,7-8.36,7A10.44,10.44,0,0,1,93.53,470Zm19.11-5c0-5.1,2.7-8.42,7.56-8.42,5.34,0,7.49,3.87,7.49,8.23v1.36H117.34v.24c0,2.12,1.14,3.47,3.56,3.47a5.14,5.14,0,0,0,4-1.93l2.27,2.82a8.74,8.74,0,0,1-6.76,2.68C115.43,473.42,112.64,470.13,112.64,465Zm4.7-1.75v.24H123v-.27c0-2-.89-3.29-2.7-3.29S117.34,461.22,117.34,463.22ZM129.91,465c0-5.16,2.67-8.42,7.52-8.42,3.26,0,5.5,1.57,6.46,4.21l-3.69,1.6a2.68,2.68,0,0,0-2.77-2.22c-1.84,0-2.79,1.33-2.79,3.35v3c0,2,1,3.35,2.79,3.35s2.55-1.13,3-2.42L144,469c-1.08,3.08-3.38,4.46-6.55,4.46C132.58,473.42,129.91,470.13,129.91,465Zm26.42,5.38h-.15a4.4,4.4,0,0,1-4.52,3.07c-3.29,0-5-2.31-5-6.36V456.92h4.55v9.74c0,2,.64,3.07,2.3,3.07,1.42,0,2.86-.8,2.86-2.33V456.92h4.55v16.13h-4.55Zm8.79,2.7V456.92h4.55v3.5h.15a4,4,0,0,1,4.12-3.5h.8v4.24H173.6c-2.64,0-3.93.58-3.93,2.46v9.43Zm12-20.1v-.67c0-1.29.8-2.24,2.65-2.24s2.64.95,2.64,2.24V453c0,1.3-.8,2.25-2.64,2.25S177.16,454.25,177.16,453Zm.37,4h4.55v16.13h-4.55ZM192,473.05c-3.13,0-4.79-1.63-4.79-4.7v-7.9h-2.27v-3.53H186c1.23,0,1.6-.62,1.6-1.72v-2.64h4.09v4.36h3.19v3.53h-3.19v9.07h3v3.53Zm16-16.13h4.24L206,475.54c-.83,2.49-2.18,3.65-4.94,3.65h-2.83v-3.53h3l.56-1.78-5.66-17h4.52l2.36,7.53,1.17,4.67h.19l1.19-4.67Z"/><rect class="cls-2" x="810.99" y="471.68" width="10.51" height="1.37"/><rect class="cls-2" x="810.99" y="468.82" width="10.51" height="1.37"/><rect class="cls-2" x="813.99" y="465.95" width="4.51" height="1.37"/><rect class="cls-2" x="813.99" y="463.08" width="4.51" height="1.37"/><rect class="cls-2" x="813.99" y="460.21" width="4.51" height="1.37"/><rect class="cls-2" x="813.99" y="457.35" width="4.51" height="1.37"/><rect class="cls-2" x="810.99" y="454.48" width="10.51" height="1.37"/><rect class="cls-2" x="810.99" y="451.61" width="10.51" height="1.37"/><path class="cls-2" d="M823,471.68v1.37h11.06a5.7,5.7,0,0,0,3.71-1.37Z"/><path class="cls-2" d="M823,468.82v1.36h16a5.44,5.44,0,0,0,.57-1.36Z"/><rect class="cls-2" x="826.01" y="465.95" width="4.51" height="1.37"/><path class="cls-2" d="M837.88,463.08H826v1.37h13A5.57,5.57,0,0,0,837.88,463.08Z"/><path class="cls-2" d="M826,460.21v1.37h11.92a5.57,5.57,0,0,0,1.1-1.37Z"/><path class="cls-2" d="M839.6,455.84a5.44,5.44,0,0,0-.57-1.36H823v1.36H839.6Z"/><path class="cls-2" d="M837.78,453a5.65,5.65,0,0,0-3.71-1.37H823V453h14.77Z"/><rect class="cls-2" x="826.01" y="457.35" width="4.51" height="1.37"/><path class="cls-2" d="M834.75,458.71h4.89a6.1,6.1,0,0,0,.16-1.36h-5Z"/><path class="cls-2" d="M834.75,466v1.36h5a6.1,6.1,0,0,0-.16-1.36Z"/><polygon class="cls-2" points="849.5 451.6 841.03 451.6 841.03 452.97 849.97 452.97 849.5 451.6"/><rect class="cls-2" x="841.03" y="471.68" width="7.51" height="1.37"/><rect class="cls-2" x="841.03" y="468.81" width="7.51" height="1.37"/><rect class="cls-2" x="844.04" y="465.95" width="4.51" height="1.37"/><rect class="cls-2" x="844.04" y="463.08" width="4.51" height="1.37"/><rect class="cls-2" x="857.56" y="471.68" width="7.51" height="1.37"/><rect class="cls-2" x="857.56" y="468.81" width="7.51" height="1.37"/><rect class="cls-2" x="857.56" y="465.95" width="4.51" height="1.37"/><rect class="cls-2" x="857.56" y="463.08" width="4.51" height="1.37"/><polygon class="cls-2" points="857.56 461.57 862.07 461.57 862.07 460.21 857.56 460.21 853.62 460.21 853.15 461.57 857.1 461.57 857.56 460.27 857.56 461.57"/><polygon class="cls-2" points="852.49 460.21 848.55 460.21 844.04 460.21 844.04 461.57 848.55 461.57 848.55 460.27 849 461.57 852.96 461.57 852.49 460.21"/><polygon class="cls-2" points="862.07 457.34 854.62 457.34 854.14 458.71 862.07 458.71 862.07 457.34"/><polygon class="cls-2" points="856.61 451.6 856.13 452.97 865.08 452.97 865.08 451.6 856.61 451.6"/><polygon class="cls-2" points="853.05 473.05 853.53 471.68 852.57 471.68 853.05 473.05"/><polygon class="cls-2" points="852.04 470.18 854.06 470.18 854.55 468.81 851.56 468.81 852.04 470.18"/><polygon class="cls-2" points="851.03 467.31 855.08 467.31 855.56 465.95 850.55 465.95 851.03 467.31"/><polygon class="cls-2" points="850.02 464.44 856.09 464.44 856.57 463.08 849.54 463.08 850.02 464.44"/><polygon class="cls-2" points="844.04 458.71 851.97 458.71 851.49 457.34 844.04 457.34 844.04 458.71"/><polygon class="cls-2" points="855.14 455.84 865.08 455.84 865.08 454.47 855.61 454.47 855.14 455.84"/><polygon class="cls-2" points="850.5 454.47 841.03 454.47 841.03 455.84 850.97 455.84 850.5 454.47"/></svg>