<?xml version="1.0" encoding="utf-8"?>
<!-- Generator: Adobe Illustrator 22.1.0, SVG Export Plug-In . SVG Version: 6.00 Build 0)  -->
<svg version="1.1" id="Layer_1" xmlns="http://www.w3.org/2000/svg" xmlns:xlink="http://www.w3.org/1999/xlink" x="0px" y="0px"
	 viewBox="0 0 288 288" style="enable-background:new 0 0 288 288;" xml:space="preserve">
<style type="text/css">
	.st0{fill:#FFFFFF;}
	.st1{fill:url(#SVGID_1_);}
	.st2{fill:url(#SVGID_2_);}
	.st3{fill:#051B75;}
</style>
<title>Artboard 18 copy 3</title>
<rect class="st0" width="288" height="288"/>
<linearGradient id="SVGID_1_" gradientUnits="userSpaceOnUse" x1="86.66" y1="151.735" x2="201.34" y2="151.735" gradientTransform="matrix(1 0 0 -1 0 290)">
	<stop  offset="0.2579" style="stop-color:#A970FF"/>
	<stop  offset="0.702" style="stop-color:#0062FF"/>
</linearGradient>
<path class="st1" d="M201.3,166.9V75.2c0-6.3-5.1-11.5-11.5-11.5l0,0H98.1c-6.3,0-11.5,5.1-11.5,11.5v126.1
	c0,6.3,5.1,11.5,11.5,11.5l0,0h54.7v-11.5H98.1v-34.4H201.3z M98.1,75.2h91.7v34.4H98.1V75.2z M98.1,121.1h91.7v34.4H98.1V121.1z"/>
<g id="Gradients_black_">
	
		<linearGradient id="SVGID_2_" gradientUnits="userSpaceOnUse" x1="164.63" y1="131.275" x2="224.28" y2="131.275" gradientTransform="matrix(1 0 0 -1 -66.5 339.5)">
		<stop  offset="0" style="stop-color:#FFFFFF;stop-opacity:0"/>
		<stop  offset="0.83" style="stop-color:#FFFFFF"/>
	</linearGradient>
	<rect x="98.1" y="198.1" class="st2" width="59.7" height="20.2"/>
</g>
<circle class="st3" cx="115.3" cy="184.1" r="5.7"/>
<circle class="st3" cx="115.3" cy="138.3" r="5.7"/>
<circle class="st3" cx="115.3" cy="92.4" r="5.7"/>
<polygon class="st3" points="184.1,204.7 169.3,189.9 161.2,198 184.1,220.9 224.3,180.8 216.2,172.7 "/>
</svg>
