<svg id="Layer_1" data-name="Layer 1" xmlns="http://www.w3.org/2000/svg" xmlns:xlink="http://www.w3.org/1999/xlink" viewBox="0 0 288 288"><defs><style>.cls-1{fill:url(#linear-gradient);}.cls-2{fill:url(#linear-gradient-2);}.cls-3{fill:url(#linear-gradient-3);}.cls-4{fill:#f3f3f3;}</style><linearGradient id="linear-gradient" x1="50.94" y1="232.66" x2="232.82" y2="50.78" gradientUnits="userSpaceOnUse"><stop offset="0.1" stop-color="#20d5d2"/><stop offset="0.9" stop-color="#418cff"/></linearGradient><linearGradient id="linear-gradient-2" x1="160.93" y1="117.07" x2="206.8" y2="117.07" gradientTransform="translate(-80 47)" gradientUnits="userSpaceOnUse"><stop offset="0" stop-opacity="0"/><stop offset="0.7"/></linearGradient><linearGradient id="linear-gradient-3" x1="11937.79" y1="-13278.14" x2="11983.66" y2="-13278.14" gradientTransform="translate(-11776.58 13442.21)" xlink:href="#linear-gradient-2"/></defs><title>Artboard 18 copy 43</title><rect width="288" height="288"/><path class="cls-1" d="M187,178.4H166.94V166.94H187a25.79,25.79,0,0,0,2-51.5l-4.68-.37-.56-4.65a40.1,40.1,0,0,0-79.61,0l-.57,4.65-4.67.37a25.79,25.79,0,0,0,2,51.5h20.06V178.4H101a37.26,37.26,0,0,1-7.46-73.76,51.58,51.58,0,0,1,100.93,0A37.26,37.26,0,0,1,187,178.4Z"/><g id="Gradients_black_" data-name="Gradients (black)"><rect class="cls-2" x="80.93" y="144" width="45.87" height="40.14"/></g><g id="Gradients_black_2" data-name="Gradients (black)"><rect class="cls-3" x="161.2" y="144" width="45.87" height="40.14" transform="translate(368.28 328.14) rotate(180)"/></g><polygon class="cls-4" points="149.73 202.32 149.73 132.54 138.26 132.54 138.26 202.32 123.41 187.53 115.33 195.61 144 224.28 172.66 195.61 164.58 187.53 149.73 202.32"/></svg>