<svg id="Layer_1" data-name="Layer 1" xmlns="http://www.w3.org/2000/svg" xmlns:xlink="http://www.w3.org/1999/xlink" viewBox="0 0 288 288"><defs><style>.cls-1{fill:#fff;}.cls-2{fill:url(#linear-gradient);}.cls-3{fill:#051b75;}.cls-4{fill:url(#linear-gradient-2);}.cls-5{fill:url(#linear-gradient-3);}</style><linearGradient id="linear-gradient" x1="1877.35" y1="-5259.22" x2="1997.76" y2="-5259.22" gradientTransform="translate(-5166.83 -1802.36) rotate(90)" gradientUnits="userSpaceOnUse"><stop offset="0.1" stop-color="#418cff"/><stop offset="0.9" stop-color="#43d1cf"/></linearGradient><linearGradient id="linear-gradient-2" x1="1877.35" y1="-5362.43" x2="1997.76" y2="-5362.43" gradientTransform="translate(-5166.83 -1802.36) rotate(90)" gradientUnits="userSpaceOnUse"><stop offset="0" stop-color="#0062ff"/><stop offset="1" stop-color="#bb8eff"/></linearGradient><linearGradient id="linear-gradient-3" x1="-9670.87" y1="-5893.11" x2="-9550.45" y2="-5893.11" gradientTransform="translate(6037.1 -9458.27) rotate(-90)" gradientUnits="userSpaceOnUse"><stop offset="0" stop-color="#a970ff"/><stop offset="1" stop-color="#fa75a6"/></linearGradient></defs><title>Artboard 18 copy 20</title><rect class="cls-1" width="288" height="288"/><path class="cls-2" d="M109.59,92.19a17.2,17.2,0,0,0-34.4,0V195.4h34.4Z"/><rect class="cls-3" x="75.19" y="178.2" width="34.4" height="34.4" rx="17.2" ry="17.2" transform="translate(287.79 103.01) rotate(90)"/><path class="cls-4" d="M212.8,92.19a17.2,17.2,0,0,0-34.4,0V195.4h34.4Z"/><rect class="cls-3" x="178.4" y="178.2" width="34.4" height="34.4" rx="17.2" ry="17.2" transform="translate(390.99 -0.2) rotate(90)"/><path class="cls-5" d="M126.79,195.4a17.21,17.21,0,0,0,34.41,0V92.19H126.79Z"/><rect class="cls-3" x="126.79" y="74.99" width="34.4" height="34.4" rx="17.2" ry="17.2" transform="translate(51.81 236.18) rotate(-90)"/></svg>