<svg id="Layer_1" data-name="Layer 1" xmlns="http://www.w3.org/2000/svg" viewBox="0 0 928 522"><defs><linearGradient id="linear-gradient" x1="326.91" y1="311.38" x2="502.94" y2="311.38" gradientTransform="rotate(.01 9625.856 1889.92)" gradientUnits="userSpaceOnUse"><stop offset="0" stop-color="#f3f3f3" stop-opacity=".4"/><stop offset="1" stop-color="#f3f3f3" stop-opacity=".1"/></linearGradient><style>.cls-1{fill:none;stroke:#3d3d3d;stroke-miterlimit:10}</style></defs><path d="M405.13 221.77h-77.94v176h176l.05-78a98.12 98.12 0 01-98.11-98z"/><path d="M0 0h928v522H0z"/><path class="cls-1" d="M307 104h9.81v314H307zm9.81 0h9.81v314h-9.81zm9.81 0h9.81v314h-9.81zm9.82 0h9.81v314h-9.81zm9.81 0h9.81v314h-9.81zm9.81 0h9.81v314h-9.81zm9.81 0h9.81v314h-9.81zm9.82 0h9.81v314h-9.81zm9.81 0h9.81v314h-9.81zm9.81 0h9.81v314h-9.81zm9.81 0h9.81v314h-9.81zm9.82 0h9.81v314h-9.81zm9.81 0h9.81v314h-9.81zm9.81 0h9.81v314h-9.81zm9.81 0h9.81v314h-9.81zm9.82 0H464v314h-9.81zm9.81 0h9.81v314H464zm9.81 0h9.81v314h-9.81zm9.81 0h9.81v314h-9.81zm9.82 0h9.81v314h-9.81z"/><path class="cls-1" d="M503.25 104h9.81v314h-9.81zm9.81 0h9.81v314h-9.81zm9.81 0h9.81v314h-9.81zm9.82 0h9.81v314h-9.81zm9.81 0h9.81v314h-9.81zm9.81 0h9.81v314h-9.81zm9.81 0h9.81v314h-9.81zm9.82 0h9.81v314h-9.81zm9.81 0h9.81v314h-9.81zm9.81 0h9.81v314h-9.81zm9.81 0h9.81v314h-9.81zm9.82 0H621v314h-9.81z"/><path class="cls-1" transform="rotate(90 464 108.91)" d="M459.09-48.09h9.81v314h-9.81z"/><path class="cls-1" transform="rotate(90 464 118.72)" d="M459.09-38.28h9.81v314h-9.81z"/><path class="cls-1" transform="rotate(90 464 128.53)" d="M459.09-28.47h9.81v314h-9.81z"/><path class="cls-1" transform="rotate(90 464 138.34)" d="M459.09-18.66h9.81v314h-9.81z"/><path class="cls-1" transform="rotate(90 464 148.16)" d="M459.09-8.84h9.81v314h-9.81z"/><path class="cls-1" transform="rotate(90 464 157.97)" d="M459.09.97h9.81v314h-9.81z"/><path class="cls-1" transform="rotate(90 464 167.78)" d="M459.09 10.78h9.81v314h-9.81z"/><path class="cls-1" transform="rotate(90 464 177.59)" d="M459.09 20.59h9.81v314h-9.81z"/><path class="cls-1" transform="rotate(90 464 187.41)" d="M459.09 30.41h9.81v314h-9.81z"/><path class="cls-1" transform="rotate(90 464 197.22)" d="M459.09 40.22h9.81v314h-9.81z"/><path class="cls-1" transform="rotate(90 464 207.03)" d="M459.09 50.03h9.81v314h-9.81z"/><path class="cls-1" transform="rotate(90 464 216.84)" d="M459.09 59.84h9.81v314h-9.81z"/><path class="cls-1" transform="rotate(90 464 226.66)" d="M459.09 69.66h9.81v314h-9.81z"/><path class="cls-1" transform="rotate(90 464 236.47)" d="M459.09 79.47h9.81v314h-9.81z"/><path class="cls-1" transform="rotate(90 464 246.28)" d="M459.09 89.28h9.81v314h-9.81z"/><path class="cls-1" transform="rotate(90 464 256.09)" d="M459.09 99.09h9.81v314h-9.81z"/><path class="cls-1" transform="rotate(90 464 265.91)" d="M459.09 108.91h9.81v314h-9.81z"/><path class="cls-1" transform="rotate(90 464 275.72)" d="M459.09 118.72h9.81v314h-9.81z"/><path class="cls-1" transform="rotate(90 464 285.53)" d="M459.09 128.53h9.81v314h-9.81z"/><path class="cls-1" transform="rotate(90 464 295.34)" d="M459.09 138.34h9.81v314h-9.81z"/><path class="cls-1" transform="rotate(90 464 305.16)" d="M459.09 148.16h9.81v314h-9.81z"/><path class="cls-1" transform="rotate(90 464 314.97)" d="M459.09 157.97h9.81v314h-9.81z"/><path class="cls-1" transform="rotate(90 464 324.78)" d="M459.09 167.78h9.81v314h-9.81z"/><path class="cls-1" transform="rotate(90 464 334.59)" d="M459.09 177.59h9.81v314h-9.81z"/><path class="cls-1" transform="rotate(90 464 344.41)" d="M459.09 187.41h9.81v314h-9.81z"/><path class="cls-1" transform="rotate(90 464 354.22)" d="M459.09 197.22h9.81v314h-9.81z"/><path class="cls-1" transform="rotate(90 464 364.03)" d="M459.09 207.03h9.81v314h-9.81z"/><path class="cls-1" transform="rotate(90 464 373.84)" d="M459.09 216.84h9.81v314h-9.81z"/><path class="cls-1" transform="rotate(90 464 383.66)" d="M459.09 226.66h9.81v314h-9.81z"/><path class="cls-1" transform="rotate(90 464 393.47)" d="M459.09 236.47h9.81v314h-9.81z"/><path class="cls-1" transform="rotate(90 464 403.28)" d="M459.09 246.28h9.81v314h-9.81z"/><path class="cls-1" transform="rotate(90 464 413.09)" d="M459.09 256.09h9.81v314h-9.81z"/><path fill="none" d="M307 104h314v314H307z"/><path d="M503.25 123.62a98.14 98.14 0 00-98.13 98.13v0h98.13l-.06 98.08h.05a98.13 98.13 0 000-196.25z" stroke="#f3f3f3" stroke-miterlimit="10" fill="none"/><path d="M405.13 221.77h-77.94v176h176l.05-78a98.12 98.12 0 01-98.11-98z" fill="url(#linear-gradient)" stroke="#f3f3f3" stroke-miterlimit="10"/></svg>