<svg id="Layer_1" data-name="Layer 1" xmlns="http://www.w3.org/2000/svg" xmlns:xlink="http://www.w3.org/1999/xlink" viewBox="0 0 288 288"><defs><style>.cls-1,.cls-2{fill:none;stroke-miterlimit:10;}.cls-1{stroke:#3d3d3d;}.cls-2{stroke:#f3f3f3;}.cls-3{fill:url(#linear-gradient);}</style><linearGradient id="linear-gradient" x1="80.1" y1="155.12" x2="192.37" y2="65.19" gradientUnits="userSpaceOnUse"><stop offset="0" stop-color="#fa75a6"/><stop offset="1" stop-color="#a970ff"/></linearGradient></defs><title>Artboard 5 copy 5</title><rect width="288" height="288"/><rect class="cls-1" x="52" y="52" width="5.75" height="184"/><rect class="cls-1" x="57.75" y="52" width="5.75" height="184"/><rect class="cls-1" x="63.5" y="52" width="5.75" height="184"/><rect class="cls-1" x="69.25" y="52" width="5.75" height="184"/><rect class="cls-1" x="75" y="52" width="5.75" height="184"/><rect class="cls-1" x="80.75" y="52" width="5.75" height="184"/><rect class="cls-1" x="86.5" y="52" width="5.75" height="184"/><rect class="cls-1" x="92.25" y="52" width="5.75" height="184"/><rect class="cls-1" x="98" y="52" width="5.75" height="184"/><rect class="cls-1" x="103.75" y="52" width="5.75" height="184"/><rect class="cls-1" x="109.5" y="52" width="5.75" height="184"/><rect class="cls-1" x="115.25" y="52" width="5.75" height="184"/><rect class="cls-1" x="121" y="52" width="5.75" height="184"/><rect class="cls-1" x="126.75" y="52" width="5.75" height="184"/><rect class="cls-1" x="132.5" y="52" width="5.75" height="184"/><rect class="cls-1" x="138.25" y="52" width="5.75" height="184"/><rect class="cls-1" x="144" y="52" width="5.75" height="184"/><rect class="cls-1" x="149.75" y="52" width="5.75" height="184"/><rect class="cls-1" x="155.5" y="52" width="5.75" height="184"/><rect class="cls-1" x="161.25" y="52" width="5.75" height="184"/><rect class="cls-1" x="167" y="52" width="5.75" height="184"/><rect class="cls-1" x="172.75" y="52" width="5.75" height="184"/><rect class="cls-1" x="178.5" y="52" width="5.75" height="184"/><rect class="cls-1" x="184.25" y="52" width="5.75" height="184"/><rect class="cls-1" x="190" y="52" width="5.75" height="184"/><rect class="cls-1" x="195.75" y="52" width="5.75" height="184"/><rect class="cls-1" x="201.5" y="52" width="5.75" height="184"/><rect class="cls-1" x="207.25" y="52" width="5.75" height="184"/><rect class="cls-1" x="213" y="52" width="5.75" height="184"/><rect class="cls-1" x="218.75" y="52" width="5.75" height="184"/><rect class="cls-1" x="224.5" y="52" width="5.75" height="184"/><rect class="cls-1" x="230.25" y="52" width="5.75" height="184"/><rect class="cls-1" x="141.13" y="-37.12" width="5.75" height="184" transform="translate(198.88 -89.12) rotate(90)"/><rect class="cls-1" x="141.13" y="-31.37" width="5.75" height="184" transform="translate(204.63 -83.37) rotate(90)"/><rect class="cls-1" x="141.13" y="-25.62" width="5.75" height="184" transform="translate(210.38 -77.62) rotate(90)"/><rect class="cls-1" x="141.13" y="-19.87" width="5.75" height="184" transform="translate(216.13 -71.87) rotate(90)"/><rect class="cls-1" x="141.13" y="-14.12" width="5.75" height="184" transform="translate(221.88 -66.12) rotate(90)"/><rect class="cls-1" x="141.13" y="-8.37" width="5.75" height="184" transform="translate(227.63 -60.37) rotate(90)"/><rect class="cls-1" x="141.13" y="-2.62" width="5.75" height="184" transform="translate(233.38 -54.62) rotate(90)"/><rect class="cls-1" x="141.13" y="3.13" width="5.75" height="184" transform="translate(239.13 -48.87) rotate(90)"/><rect class="cls-1" x="141.13" y="8.88" width="5.75" height="184" transform="translate(244.88 -43.12) rotate(90)"/><rect class="cls-1" x="141.13" y="14.63" width="5.75" height="184" transform="translate(250.63 -37.37) rotate(90)"/><rect class="cls-1" x="141.13" y="20.38" width="5.75" height="184" transform="translate(256.38 -31.62) rotate(90)"/><rect class="cls-1" x="141.13" y="26.13" width="5.75" height="184" transform="translate(262.13 -25.87) rotate(90)"/><rect class="cls-1" x="141.13" y="31.88" width="5.75" height="184" transform="translate(267.88 -20.12) rotate(90)"/><rect class="cls-1" x="141.13" y="37.63" width="5.75" height="184" transform="translate(273.63 -14.37) rotate(90)"/><rect class="cls-1" x="141.13" y="43.38" width="5.75" height="184" transform="translate(279.38 -8.62) rotate(90)"/><rect class="cls-1" x="141.13" y="49.13" width="5.75" height="184" transform="translate(285.13 -2.87) rotate(90)"/><rect class="cls-1" x="141.13" y="54.88" width="5.75" height="184" transform="translate(290.87 2.87) rotate(90)"/><rect class="cls-1" x="141.13" y="60.63" width="5.75" height="184" transform="translate(296.62 8.62) rotate(90)"/><rect class="cls-1" x="141.13" y="66.38" width="5.75" height="184" transform="translate(302.37 14.37) rotate(90)"/><rect class="cls-1" x="141.13" y="72.13" width="5.75" height="184" transform="translate(308.12 20.12) rotate(90)"/><rect class="cls-1" x="141.13" y="77.88" width="5.75" height="184" transform="translate(313.87 25.87) rotate(90)"/><rect class="cls-1" x="141.13" y="83.63" width="5.75" height="184" transform="translate(319.62 31.62) rotate(90)"/><rect class="cls-1" x="141.13" y="89.38" width="5.75" height="184" transform="translate(325.37 37.37) rotate(90)"/><rect class="cls-1" x="141.13" y="95.13" width="5.75" height="184" transform="translate(331.12 43.12) rotate(90)"/><rect class="cls-1" x="141.13" y="100.88" width="5.75" height="184" transform="translate(336.87 48.87) rotate(90)"/><rect class="cls-1" x="141.13" y="106.63" width="5.75" height="184" transform="translate(342.62 54.62) rotate(90)"/><rect class="cls-1" x="141.13" y="112.38" width="5.75" height="184" transform="translate(348.37 60.37) rotate(90)"/><rect class="cls-1" x="141.13" y="118.13" width="5.75" height="184" transform="translate(354.12 66.12) rotate(90)"/><rect class="cls-1" x="141.13" y="123.88" width="5.75" height="184" transform="translate(359.87 71.87) rotate(90)"/><rect class="cls-1" x="141.13" y="129.63" width="5.75" height="184" transform="translate(365.62 77.62) rotate(90)"/><rect class="cls-1" x="141.13" y="135.38" width="5.75" height="184" transform="translate(371.37 83.37) rotate(90)"/><rect class="cls-1" x="141.13" y="141.13" width="5.75" height="184" transform="translate(377.12 89.12) rotate(90)"/><path class="cls-2" d="M82,206a63.24,63.24,0,0,0,89.43-89.43Z"/><path class="cls-3" d="M205.25,82a63.23,63.23,0,0,0-89.42,89.42Z"/></svg>