<svg id="Layer_1" data-name="Layer 1" xmlns="http://www.w3.org/2000/svg" viewBox="0 0 288 288"><defs><style>.cls-1{fill:#fff;}.cls-2{fill:#171717;}</style></defs><title>Artboard 18 copy 66</title><rect class="cls-1" width="288" height="288"/><path class="cls-2" d="M74.8,132.67v-5.55h7.78V82.86H74.8V77.31H97v5.55H89.24v44.26H97v5.55Z"/><path class="cls-2" d="M109.14,77.31h22.77c9.12,0,14.75,5.63,14.75,14.28,0,8.24-5.31,11.18-9,11.73v.48c4,.24,10.86,3.65,10.86,12.85s-6.1,16-14.27,16H109.14Zm6.67,24h15.3c5.24,0,8.41-2.77,8.41-7.69v-2.7c0-4.92-3.17-7.69-8.41-7.69h-15.3Zm0,25.54h16.41c5.72,0,9.21-3,9.21-8.57v-2.69c0-5.55-3.49-8.57-9.21-8.57H115.81Z"/><path class="cls-2" d="M160.93,77.31h8.88l15.87,29.82h.39l16-29.82h8.56v55.36h-6.5V86h-.4L199,95.31l-13.24,24.11L172.51,95.31,167.83,86h-.39v46.64h-6.51Z"/><path class="cls-2" d="M74.57,156.62H95.43c14.67,0,24.35,9.28,24.35,27.68S110.1,212,95.43,212H74.57Zm20.86,44.65c7.14,0,11.58-3.89,11.58-12.69V180c0-8.8-4.44-12.69-11.58-12.69H86.62v34Z"/><path class="cls-2" d="M129.21,153.28H141v24h.39c1.19-4.6,5.79-7.93,11.19-7.93,10.55,0,16,7.61,16,21.73s-5.47,21.81-16,21.81c-5.4,0-10-3.41-11.19-7.93H141v7H129.21Zm27.12,41.49v-7.22c0-5.24-3.25-8.65-7.69-8.65S141,181.2,141,185V197.3c0,3.81,3.25,6.11,7.69,6.11S156.33,200,156.33,194.77Z"/><path class="cls-2" d="M215.66,212H176.47V201.11l17.06-14.59c6.18-5.32,8.33-8.41,8.33-13.09v-1.11c0-4.2-3.73-6.35-7.3-6.35-5.24,0-7.77,3.57-8.88,7.78l-10.39-4c2.45-7.69,8.88-14.12,20.38-14.12,12,0,18.88,7.06,18.88,16.66s-6.83,15.31-14.76,21.57L189.48,202h26.18Z"/></svg>