<svg id="Layer_1" data-name="Layer 1" xmlns="http://www.w3.org/2000/svg" viewBox="0 0 288 288"><defs><style>.cls-1{fill:none;stroke:#3d3d3d;stroke-miterlimit:10;}.cls-2{fill:#f3f3f3;}</style></defs><title>Artboard 18 copy 79</title><rect width="288" height="288"/><rect class="cls-1" x="52" y="52" width="5.75" height="184"/><rect class="cls-1" x="57.75" y="52" width="5.75" height="184"/><rect class="cls-1" x="63.5" y="52" width="5.75" height="184"/><rect class="cls-1" x="69.25" y="52" width="5.75" height="184"/><rect class="cls-1" x="75" y="52" width="5.75" height="184"/><rect class="cls-1" x="80.75" y="52" width="5.75" height="184"/><rect class="cls-1" x="86.5" y="52" width="5.75" height="184"/><rect class="cls-1" x="92.25" y="52" width="5.75" height="184"/><rect class="cls-1" x="98" y="52" width="5.75" height="184"/><rect class="cls-1" x="103.75" y="52" width="5.75" height="184"/><rect class="cls-1" x="109.5" y="52" width="5.75" height="184"/><rect class="cls-1" x="115.25" y="52" width="5.75" height="184"/><rect class="cls-1" x="121" y="52" width="5.75" height="184"/><rect class="cls-1" x="126.75" y="52" width="5.75" height="184"/><rect class="cls-1" x="132.5" y="52" width="5.75" height="184"/><rect class="cls-1" x="138.25" y="52" width="5.75" height="184"/><rect class="cls-1" x="144" y="52" width="5.75" height="184"/><rect class="cls-1" x="149.75" y="52" width="5.75" height="184"/><rect class="cls-1" x="155.5" y="52" width="5.75" height="184"/><rect class="cls-1" x="161.25" y="52" width="5.75" height="184"/><rect class="cls-1" x="167" y="52" width="5.75" height="184"/><rect class="cls-1" x="172.75" y="52" width="5.75" height="184"/><rect class="cls-1" x="178.5" y="52" width="5.75" height="184"/><rect class="cls-1" x="184.25" y="52" width="5.75" height="184"/><rect class="cls-1" x="190" y="52" width="5.75" height="184"/><rect class="cls-1" x="195.75" y="52" width="5.75" height="184"/><rect class="cls-1" x="201.5" y="52" width="5.75" height="184"/><rect class="cls-1" x="207.25" y="52" width="5.75" height="184"/><rect class="cls-1" x="213" y="52" width="5.75" height="184"/><rect class="cls-1" x="218.75" y="52" width="5.75" height="184"/><rect class="cls-1" x="224.5" y="52" width="5.75" height="184"/><rect class="cls-1" x="230.25" y="52" width="5.75" height="184"/><rect class="cls-1" x="141.13" y="-37.12" width="5.75" height="184" transform="translate(198.88 -89.12) rotate(90)"/><rect class="cls-1" x="141.13" y="-31.37" width="5.75" height="184" transform="translate(204.63 -83.37) rotate(90)"/><rect class="cls-1" x="141.13" y="-25.62" width="5.75" height="184" transform="translate(210.38 -77.62) rotate(90)"/><rect class="cls-1" x="141.13" y="-19.87" width="5.75" height="184" transform="translate(216.13 -71.87) rotate(90)"/><rect class="cls-1" x="141.13" y="-14.12" width="5.75" height="184" transform="translate(221.88 -66.12) rotate(90)"/><rect class="cls-1" x="141.13" y="-8.37" width="5.75" height="184" transform="translate(227.63 -60.37) rotate(90)"/><rect class="cls-1" x="141.13" y="-2.62" width="5.75" height="184" transform="translate(233.38 -54.62) rotate(90)"/><rect class="cls-1" x="141.13" y="3.13" width="5.75" height="184" transform="translate(239.13 -48.87) rotate(90)"/><rect class="cls-1" x="141.13" y="8.88" width="5.75" height="184" transform="translate(244.88 -43.12) rotate(90)"/><rect class="cls-1" x="141.13" y="14.63" width="5.75" height="184" transform="translate(250.63 -37.37) rotate(90)"/><rect class="cls-1" x="141.13" y="20.38" width="5.75" height="184" transform="translate(256.38 -31.62) rotate(90)"/><rect class="cls-1" x="141.13" y="26.13" width="5.75" height="184" transform="translate(262.13 -25.87) rotate(90)"/><rect class="cls-1" x="141.13" y="31.88" width="5.75" height="184" transform="translate(267.88 -20.12) rotate(90)"/><rect class="cls-1" x="141.13" y="37.63" width="5.75" height="184" transform="translate(273.63 -14.37) rotate(90)"/><rect class="cls-1" x="141.13" y="43.38" width="5.75" height="184" transform="translate(279.38 -8.62) rotate(90)"/><rect class="cls-1" x="141.13" y="49.13" width="5.75" height="184" transform="translate(285.13 -2.87) rotate(90)"/><rect class="cls-1" x="141.13" y="54.88" width="5.75" height="184" transform="translate(290.87 2.87) rotate(90)"/><rect class="cls-1" x="141.13" y="60.63" width="5.75" height="184" transform="translate(296.62 8.62) rotate(90)"/><rect class="cls-1" x="141.13" y="66.38" width="5.75" height="184" transform="translate(302.37 14.37) rotate(90)"/><rect class="cls-1" x="141.13" y="72.13" width="5.75" height="184" transform="translate(308.12 20.12) rotate(90)"/><rect class="cls-1" x="141.13" y="77.88" width="5.75" height="184" transform="translate(313.87 25.87) rotate(90)"/><rect class="cls-1" x="141.13" y="83.63" width="5.75" height="184" transform="translate(319.62 31.62) rotate(90)"/><rect class="cls-1" x="141.13" y="89.38" width="5.75" height="184" transform="translate(325.37 37.37) rotate(90)"/><rect class="cls-1" x="141.13" y="95.13" width="5.75" height="184" transform="translate(331.12 43.12) rotate(90)"/><rect class="cls-1" x="141.13" y="100.88" width="5.75" height="184" transform="translate(336.87 48.87) rotate(90)"/><rect class="cls-1" x="141.13" y="106.63" width="5.75" height="184" transform="translate(342.62 54.62) rotate(90)"/><rect class="cls-1" x="141.13" y="112.38" width="5.75" height="184" transform="translate(348.37 60.37) rotate(90)"/><rect class="cls-1" x="141.13" y="118.13" width="5.75" height="184" transform="translate(354.12 66.12) rotate(90)"/><rect class="cls-1" x="141.13" y="123.88" width="5.75" height="184" transform="translate(359.87 71.87) rotate(90)"/><rect class="cls-1" x="141.13" y="129.63" width="5.75" height="184" transform="translate(365.62 77.62) rotate(90)"/><rect class="cls-1" x="141.13" y="135.38" width="5.75" height="184" transform="translate(371.37 83.37) rotate(90)"/><rect class="cls-1" x="141.13" y="141.13" width="5.75" height="184" transform="translate(377.12 89.12) rotate(90)"/><path class="cls-2" d="M61.82,178.37V175.2c0-7.29,4.44-12.69,13.95-12.69s14,5.4,14,12.69v3.17c0,7.3-4.44,12.69-14,12.69S61.82,185.67,61.82,178.37Z"/><path class="cls-2" d="M111.31,106.05h23.47V198.2c0,14.75-7.14,22.84-23.47,22.84H98.93V202.8h12.38ZM109.4,85.59V82.1c0-6.67,4.13-11.58,13.64-11.58s13.64,4.91,13.64,11.58v3.49c0,6.66-4.12,11.57-13.64,11.57S109.4,92.25,109.4,85.59Z"/><path class="cls-2" d="M149.85,176.31l13.8-13.95c5.87,6.5,13,10.62,22,10.62,9.2,0,12.37-3,12.37-7.93,0-4.12-2.53-6.19-8.4-7l-9-1.11c-18.88-2.38-28.08-10.62-28.08-25.69,0-16,12.53-27.13,32.36-27.13,17.45,0,25.54,4.76,33.94,13L205.36,131c-5.23-5.24-12.21-8.57-19.19-8.57-7.93,0-11.1,2.86-11.1,7,0,4.43,1.9,6.81,8.72,7.76l9.36,1.27c18.08,2.38,27.44,10.63,27.44,25.06,0,16-14.28,27.76-35.69,27.76C168.88,191.22,158.41,185.83,149.85,176.31Z"/></svg>