<svg id="Layer_1" data-name="Layer 1" xmlns="http://www.w3.org/2000/svg" viewBox="0 0 928 522"><defs><style>.cls-3,.cls-4{fill:none;stroke-miterlimit:10}.cls-3{stroke:#dcdcdc}.cls-4{stroke:#97c1ff;stroke-width:1.25px}</style></defs><path fill="#fff" d="M0 0h928v522H0z"/><path d="M307 104v314h314V104zm294.38 294.38H326.62V123.62h274.76z" fill="#f3f3f3" fill-rule="evenodd"/><path class="cls-3" d="M307 104h9.81v314H307zm9.81 0h9.81v314h-9.81zm9.82 0h9.81v314h-9.81zm9.81 0h9.81v314h-9.81zm9.81 0h9.81v314h-9.81zm9.81 0h9.81v314h-9.81zm9.82 0h9.81v314h-9.81zm9.81 0h9.81v314h-9.81zm9.81 0h9.81v314h-9.81zm9.81 0h9.81v314h-9.81zm9.82 0h9.81v314h-9.81zm9.81 0h9.81v314h-9.81zm9.81 0h9.81v314h-9.81zm9.81 0h9.81v314h-9.81zm9.82 0h9.81v314h-9.81zm9.81 0H464v314h-9.81zm9.81 0h9.81v314H464zm9.81 0h9.81v314h-9.81zm9.82 0h9.81v314h-9.81zm9.81 0h9.81v314h-9.81z"/><path class="cls-3" d="M503.25 104h9.81v314h-9.81zm9.81 0h9.81v314h-9.81zm9.82 0h9.81v314h-9.81zm9.81 0h9.81v314h-9.81zm9.81 0h9.81v314h-9.81zm9.81 0h9.81v314h-9.81zm9.82 0h9.81v314h-9.81zm9.81 0h9.81v314h-9.81zm9.81 0h9.81v314h-9.81zm9.81 0h9.81v314h-9.81zm9.82 0h9.81v314h-9.81zm9.81 0H621v314h-9.81z"/><path class="cls-3" transform="rotate(90 464 108.91)" d="M459.09-48.09h9.81v314h-9.81z"/><path class="cls-3" transform="rotate(90 464 118.72)" d="M459.09-38.28h9.81v314h-9.81z"/><path class="cls-3" transform="rotate(90 464 128.53)" d="M459.09-28.47h9.81v314h-9.81z"/><path class="cls-3" transform="rotate(90 464 138.34)" d="M459.09-18.66h9.81v314h-9.81z"/><path class="cls-3" transform="rotate(90 464 148.16)" d="M459.09-8.84h9.81v314h-9.81z"/><path class="cls-3" transform="rotate(90 464 157.97)" d="M459.09.97h9.81v314h-9.81z"/><path class="cls-3" transform="rotate(90 464 167.78)" d="M459.09 10.78h9.81v314h-9.81z"/><path class="cls-3" transform="rotate(90 464 177.59)" d="M459.09 20.59h9.81v314h-9.81z"/><path class="cls-3" transform="rotate(90 464 187.41)" d="M459.09 30.41h9.81v314h-9.81z"/><path class="cls-3" transform="rotate(90 464 197.22)" d="M459.09 40.22h9.81v314h-9.81z"/><path class="cls-3" transform="rotate(90 464 207.03)" d="M459.09 50.03h9.81v314h-9.81z"/><path class="cls-3" transform="rotate(90 464 216.84)" d="M459.09 59.84h9.81v314h-9.81z"/><path class="cls-3" transform="rotate(90 464 226.66)" d="M459.09 69.66h9.81v314h-9.81z"/><path class="cls-3" transform="rotate(90 464 236.47)" d="M459.09 79.47h9.81v314h-9.81z"/><path class="cls-3" transform="rotate(90 464 246.28)" d="M459.09 89.28h9.81v314h-9.81z"/><path class="cls-3" transform="rotate(90 464 256.09)" d="M459.09 99.09h9.81v314h-9.81z"/><path class="cls-3" transform="rotate(90 464 265.91)" d="M459.09 108.91h9.81v314h-9.81z"/><path class="cls-3" transform="rotate(90 464 275.72)" d="M459.09 118.72h9.81v314h-9.81z"/><path class="cls-3" transform="rotate(90 464 285.53)" d="M459.09 128.53h9.81v314h-9.81z"/><path class="cls-3" transform="rotate(90 464 295.34)" d="M459.09 138.34h9.81v314h-9.81z"/><path class="cls-3" transform="rotate(90 464 305.16)" d="M459.09 148.16h9.81v314h-9.81z"/><path class="cls-3" transform="rotate(90 464 314.97)" d="M459.09 157.97h9.81v314h-9.81z"/><path class="cls-3" transform="rotate(90 464 324.78)" d="M459.09 167.78h9.81v314h-9.81z"/><path class="cls-3" transform="rotate(90 464 334.59)" d="M459.09 177.59h9.81v314h-9.81z"/><path class="cls-3" transform="rotate(90 464 344.41)" d="M459.09 187.41h9.81v314h-9.81z"/><path class="cls-3" transform="rotate(90 464 354.22)" d="M459.09 197.22h9.81v314h-9.81z"/><path class="cls-3" transform="rotate(90 464 364.03)" d="M459.09 207.03h9.81v314h-9.81z"/><path class="cls-3" transform="rotate(90 464 373.84)" d="M459.09 216.84h9.81v314h-9.81z"/><path class="cls-3" transform="rotate(90 464 383.66)" d="M459.09 226.66h9.81v314h-9.81z"/><path class="cls-3" transform="rotate(90 464 393.47)" d="M459.09 236.47h9.81v314h-9.81z"/><path class="cls-3" transform="rotate(90 464 403.28)" d="M459.09 246.28h9.81v314h-9.81z"/><path class="cls-3" transform="rotate(90 464 413.09)" d="M459.09 256.09h9.81v314h-9.81z"/><circle class="cls-4" cx="464" cy="261" r="137.37" transform="rotate(-89.89 463.991 261)"/><path class="cls-4" d="M346.25 143.25h235.5v235.5h-235.5z"/><path class="cls-4" d="M365.88 123.62h196.25v274.75H365.88z"/><path class="cls-4" transform="rotate(90 464 261)" d="M365.88 123.62h196.25v274.75H365.88z"/></svg>