<?xml version="1.0" encoding="utf-8"?>
<!-- Generator: Adobe Illustrator 23.0.4, SVG Export Plug-In . SVG Version: 6.00 Build 0)  -->
<svg version="1.1" id="Layer_1" xmlns="http://www.w3.org/2000/svg" xmlns:xlink="http://www.w3.org/1999/xlink" x="0px" y="0px"
	 viewBox="0 0 288 288" style="enable-background:new 0 0 288 288;" xml:space="preserve">
<style type="text/css">
	.st0{fill:#FFFFFF;}
	.st1{fill:#051243;}
	.st2{fill:url(#SVGID_1_);}
	.st3{fill:url(#SVGID_2_);}
	.st4{fill:url(#SVGID_3_);}
	.st5{fill:#F3F3F3;}
</style>
<title>Artboard 18 copy 105</title>
<rect class="st0" width="288" height="288"/>
<path class="st1" d="M93,76.1H195c9.4,0,17,7.6,17,17V195c0,9.4-7.6,17-17,17H93c-9.4,0-17-7.6-17-17V93
	C76.1,83.7,83.7,76.1,93,76.1z"/>
<linearGradient id="SVGID_1_" gradientUnits="userSpaceOnUse" x1="167.7751" y1="98.4425" x2="167.7751" y2="193.5575" gradientTransform="matrix(1 0 0 -1 0 290)">
	<stop  offset="0" style="stop-color:#F3F3F3;stop-opacity:0.1"/>
	<stop  offset="1" style="stop-color:#F3F3F3;stop-opacity:0.4"/>
</linearGradient>
<path class="st2" d="M144,191.6c26.3,0,47.6-21.3,47.6-47.6c0-26.3-21.3-47.5-47.6-47.6V191.6z"/>
<linearGradient id="SVGID_2_" gradientUnits="userSpaceOnUse" x1="-7879.7212" y1="-7325.8877" x2="-7879.7212" y2="-7230.7725" gradientTransform="matrix(-1 0 0 1 -7759.5 7422.3301)">
	<stop  offset="0" style="stop-color:#F3F3F3;stop-opacity:0.1"/>
	<stop  offset="1" style="stop-color:#F3F3F3;stop-opacity:0.4"/>
</linearGradient>
<path class="st3" d="M144,96.4c-26.3,0-47.6,21.3-47.6,47.6s21.3,47.6,47.6,47.6V96.4z"/>
<linearGradient id="SVGID_3_" gradientUnits="userSpaceOnUse" x1="113.4248" y1="146" x2="174.5753" y2="146" gradientTransform="matrix(1 0 0 -1 0 290)">
	<stop  offset="0.1" style="stop-color:#A970FF"/>
	<stop  offset="0.9" style="stop-color:#FA75A6"/>
</linearGradient>
<circle class="st4" cx="144" cy="144" r="30.6"/>
<circle class="st5" cx="144" cy="144" r="10.2"/>
</svg>
