<svg id="Layer_1" data-name="Layer 1" xmlns="http://www.w3.org/2000/svg" xmlns:xlink="http://www.w3.org/1999/xlink" viewBox="0 0 288 288"><defs><style>.cls-1{fill:#fff;}.cls-2{fill:url(#linear-gradient);}.cls-3{fill:url(#linear-gradient-2);}.cls-4{fill:url(#linear-gradient-3);}.cls-5{fill:url(#linear-gradient-4);}.cls-6{fill:url(#linear-gradient-5);}.cls-7{fill:url(#linear-gradient-6);}.cls-8{fill:#061f80;}</style><linearGradient id="linear-gradient" x1="81.03" y1="206.97" x2="206.97" y2="81.03" gradientUnits="userSpaceOnUse"><stop offset="0" stop-color="#f7f1ff"/><stop offset="1" stop-color="#e3f6ff"/></linearGradient><linearGradient id="linear-gradient-2" x1="87.04" y1="176.91" x2="176.42" y2="87.53" gradientUnits="userSpaceOnUse"><stop offset="0.01" stop-color="#a66efa"/><stop offset="0.1" stop-color="#a66efa"/><stop offset="0.9" stop-color="#0062ff"/></linearGradient><linearGradient id="linear-gradient-3" x1="110.83" y1="201.22" x2="200.63" y2="111.42" gradientUnits="userSpaceOnUse"><stop offset="0.1" stop-color="#a66efa"/><stop offset="0.9" stop-color="#0062ff"/></linearGradient><linearGradient id="linear-gradient-4" x1="18.71" y1="1982.16" x2="46.98" y2="1982.16" gradientTransform="translate(123.87 -1866.81)" gradientUnits="userSpaceOnUse"><stop offset="0.03" stop-color="#ebf4ff" stop-opacity="0"/><stop offset="0.09" stop-color="#ebf4ff" stop-opacity="0.07"/><stop offset="0.21" stop-color="#ebf4ff" stop-opacity="0.24"/><stop offset="0.38" stop-color="#eaf4ff" stop-opacity="0.52"/><stop offset="0.58" stop-color="#e9f4ff" stop-opacity="0.9"/><stop offset="0.64" stop-color="#e9f4ff"/><stop offset="1" stop-color="#e8f5ff"/></linearGradient><linearGradient id="linear-gradient-5" x1="-5335.81" y1="-2617.68" x2="-5307.54" y2="-2617.68" gradientTransform="translate(7613.16 2765.66) scale(1.4 1)" gradientUnits="userSpaceOnUse"><stop offset="0.06" stop-color="#e9f4ff" stop-opacity="0"/><stop offset="0.11" stop-color="#e9f4ff" stop-opacity="0.05"/><stop offset="0.19" stop-color="#eaf4ff" stop-opacity="0.18"/><stop offset="0.3" stop-color="#eaf4ff" stop-opacity="0.39"/><stop offset="0.43" stop-color="#ebf4ff" stop-opacity="0.68"/><stop offset="0.57" stop-color="#ecf4ff"/><stop offset="1" stop-color="#eef3ff"/></linearGradient><linearGradient id="linear-gradient-6" x1="98.58" y1="189.42" x2="188.53" y2="99.47" xlink:href="#linear-gradient-3"/></defs><title>Artboard 18 copy 106</title><rect class="cls-1" width="288" height="288"/><rect class="cls-2" x="76.05" y="76.05" width="135.9" height="135.9" rx="16.99" ry="16.99"/><polygon class="cls-3" points="132.66 129.87 164.57 113.35 167.1 105.68 167.1 105.68 119.84 130.13 132.66 129.87"/><polygon class="cls-4" points="158.13 155.34 157.87 168.16 182.32 120.9 182.32 120.9 174.65 123.43 158.13 155.34"/><g id="Gradients_black_" data-name="Gradients (black)"><rect class="cls-5" x="142.66" y="109.69" width="28.39" height="11.31" transform="translate(-35.52 85.34) rotate(-27.46)"/></g><g id="Gradients_black_2" data-name="Gradients (black)"><rect class="cls-6" x="144.44" y="142.33" width="39.57" height="11.31" transform="translate(371.06 69.95) rotate(117.31)"/></g><path class="cls-7" d="M172.27,127a11.31,11.31,0,1,1,11.31-11.31A11.32,11.32,0,0,1,172.27,127Zm0-17a5.66,5.66,0,1,0,5.65,5.65A5.66,5.66,0,0,0,172.27,110.08Zm-39.58,73.49A28.27,28.27,0,1,1,161,155.31,28.3,28.3,0,0,1,132.69,183.57Zm0-50.88a22.62,22.62,0,1,0,22.62,22.62A22.64,22.64,0,0,0,132.69,132.69Z"/><path class="cls-8" d="M132.69,166.61A11.31,11.31,0,1,1,144,155.31,11.31,11.31,0,0,1,132.69,166.61Zm0-17a5.66,5.66,0,1,0,5.66,5.66A5.67,5.67,0,0,0,132.69,149.65Z"/></svg>