<?xml version="1.0" encoding="utf-8"?>
<!-- Generator: Adobe Illustrator 23.0.4, SVG Export Plug-In . SVG Version: 6.00 Build 0)  -->
<svg version="1.1" id="Layer_1" xmlns="http://www.w3.org/2000/svg" xmlns:xlink="http://www.w3.org/1999/xlink" x="0px" y="0px"
	 viewBox="0 0 608 240" style="enable-background:new 0 0 608 240;" xml:space="preserve">
<style type="text/css">
	.st0{fill-rule:evenodd;clip-rule:evenodd;fill:#FFFFFF;}
	.st1{enable-background:new    ;}
	.st2{fill:#393939;}
	.st3{fill:#8A3FFC;}
	.st4{fill:#0072C3;}
	.st5{fill:#D12765;}
	.st6{fill-rule:evenodd;clip-rule:evenodd;fill:#8A3FFC;}
	.st7{fill-rule:evenodd;clip-rule:evenodd;fill:#0072C3;}
	.st8{fill-rule:evenodd;clip-rule:evenodd;fill:#D12765;}
</style>
<title>Group 2</title>
<desc>Created with Sketch.</desc>
<g id="Desktop">
	<g id="Production-Copy-2" transform="translate(-352.000000, -6597.000000)">
		<g id="Group-2" transform="translate(352.000000, 6597.000000)">
			<rect id="Rectangle" class="st0" width="608" height="240"/>
			<g class="st1">
				<path class="st2" d="M143.9,124c-1,0-1.4-0.6-1.5-1.3h-0.1c-0.4,0.9-1.1,1.5-2.5,1.5c-1.7,0-2.8-1-2.8-2.5
					c0-1.5,1.1-2.4,3.6-2.4h1.8v-0.8c0-1.2-0.7-1.8-2-1.8c-1.1,0-1.8,0.5-2.2,1.2l-0.9-0.6c0.4-0.9,1.5-1.7,3.2-1.7
					c1.9,0,3.2,1,3.2,2.8v4.5h1.2v1.1H143.9z M142.4,121.6v-1.4h-1.8c-1.5,0-2.2,0.4-2.2,1.2v0.3c0,0.8,0.7,1.3,1.7,1.3
					C141.4,123.1,142.4,122.4,142.4,121.6z"/>
				<path class="st2" d="M147.1,115.7h1.3v1.3h0.1c0.5-1,1.4-1.5,2.5-1.5c2,0,3.2,1.6,3.2,4.3s-1.2,4.3-3.2,4.3
					c-1.2,0-2-0.5-2.5-1.5h-0.1v4.5h-1.3V115.7z M152.9,120.6v-1.4c0-1.5-0.9-2.5-2.4-2.5c-1.1,0-2.1,0.6-2.1,1.7v3
					c0,1.1,1,1.7,2.1,1.7C152,123.1,152.9,122.1,152.9,120.6z"/>
				<path class="st2" d="M156.7,115.7h1.3v1.3h0.1c0.5-1,1.4-1.5,2.5-1.5c2,0,3.2,1.6,3.2,4.3s-1.2,4.3-3.2,4.3
					c-1.2,0-2-0.5-2.5-1.5H158v4.5h-1.3V115.7z M162.5,120.6v-1.4c0-1.5-0.9-2.5-2.4-2.5c-1.1,0-2.1,0.6-2.1,1.7v3
					c0,1.1,1,1.7,2.1,1.7C161.6,123.1,162.5,122.1,162.5,120.6z"/>
				<path class="st2" d="M167.3,119.8v-1.3h4.6v1.3H167.3z"/>
				<path class="st2" d="M176.1,122.9h3v-6.1h-3v-1.1h4.3v7.2h2.8v1.1h-7V122.9z M178.7,113.1v-0.3c0-0.5,0.3-0.8,1-0.8s1,0.4,1,0.8
					v0.3c0,0.5-0.3,0.8-1,0.8S178.7,113.6,178.7,113.1z"/>
				<path class="st2" d="M185.3,119.9c0-2.6,1.4-4.3,3.7-4.3c1.6,0,2.6,0.8,3.1,1.9l-1,0.5c-0.3-0.8-1-1.3-2-1.3
					c-1.5,0-2.4,1.1-2.4,2.5v1.4c0,1.5,0.8,2.5,2.4,2.5c1.1,0,1.8-0.5,2.2-1.4l0.9,0.6c-0.5,1.1-1.5,1.9-3.2,1.9
					C186.7,124.2,185.3,122.5,185.3,119.9z"/>
				<path class="st2" d="M194.7,119.9c0-2.6,1.4-4.3,3.7-4.3c2.3,0,3.7,1.7,3.7,4.3s-1.4,4.3-3.7,4.3
					C196.1,124.2,194.7,122.5,194.7,119.9z M200.8,120.5v-1.2c0-1.8-1-2.6-2.4-2.6c-1.4,0-2.4,0.8-2.4,2.6v1.2c0,1.8,1,2.6,2.4,2.6
					C199.8,123.1,200.8,122.2,200.8,120.5z"/>
				<path class="st2" d="M204.8,124v-8.3h1.3v1.3h0.1c0.4-0.8,1-1.5,2.4-1.5c1.7,0,2.9,1.2,2.9,3.2v5.3H210v-5.1
					c0-1.5-0.7-2.2-2-2.2c-1,0-2,0.5-2,1.6v5.7H204.8z"/>
				<path class="st2" d="M215.3,119.8v-1.3h4.6v1.3H215.3z"/>
			</g>
			<g class="st1">
				<path class="st3" d="M229.2,122.7L229.2,122.7c-0.6,1-1.5,1.5-2.6,1.5c-2,0-3.2-1.6-3.2-4.3s1.2-4.3,3.2-4.3
					c1.2,0,2,0.5,2.5,1.5h0.1v-4.9h1.3V124h-1.3V122.7z M229.2,121.4v-3c0-1.1-1-1.7-2.1-1.7c-1.5,0-2.4,1-2.4,2.5v1.4
					c0,1.5,0.9,2.5,2.4,2.5C228.2,123.1,229.2,122.5,229.2,121.4z"/>
				<path class="st3" d="M239.9,124c-1,0-1.4-0.6-1.5-1.3h-0.1c-0.4,0.9-1.1,1.5-2.5,1.5c-1.7,0-2.8-1-2.8-2.5
					c0-1.5,1.1-2.4,3.6-2.4h1.8v-0.8c0-1.2-0.7-1.8-2-1.8c-1.1,0-1.8,0.5-2.2,1.2l-0.9-0.6c0.4-0.9,1.5-1.7,3.2-1.7
					c1.9,0,3.2,1,3.2,2.8v4.5h1.2v1.1H239.9z M238.4,121.6v-1.4h-1.8c-1.5,0-2.2,0.4-2.2,1.2v0.3c0,0.8,0.7,1.3,1.7,1.3
					C237.4,123.1,238.4,122.4,238.4,121.6z"/>
				<path class="st3" d="M242.8,122.9h2.4v-6.1h-2.4v-1.1h3.7v2.1h0.1c0.3-1.1,1.1-2.1,2.8-2.1h1.2v1.3H249c-1.6,0-2.5,1-2.5,2.3
					v3.6h3.2v1.1h-6.9V122.9z"/>
				<path class="st3" d="M252.9,112.2h1.3v7.5h0.1l1.4-1.4l2.8-2.5h1.6l-3.4,3.2l3.8,5h-1.6l-3.2-4.3l-1.4,1.3v3h-1.3V112.2z"/>
			</g>
			<g class="st1">
				<path class="st2" d="M263.3,119.8v-1.3h4.6v1.3H263.3z"/>
			</g>
			<g class="st1">
				<path class="st4" d="M271.7,124v-1.1h2.8v-9h-2.8v-1.1h6.9v1.1h-2.8v9h2.8v1.1H271.7z"/>
				<path class="st4" d="M281.4,112.8h3.8c1.9,0,3.1,1.1,3.1,2.9c0,1.3-0.7,2.1-1.7,2.4v0c1.2,0.3,2.2,1.1,2.2,2.6
					c0,1.8-1.3,3.2-3,3.2h-4.3V112.8z M285.1,117.7c1.1,0,1.8-0.5,1.8-1.5v-0.6c0-1-0.7-1.5-1.8-1.5h-2.3v3.7H285.1z M285.3,122.8
					c1.2,0,2-0.6,2-1.7v-0.7c0-1.1-0.8-1.7-2-1.7h-2.5v4H285.3z"/>
				<path class="st4" d="M296.9,118.4v-3.5h-0.1l-2.4,5.7l-2.4-5.7h-0.1v3.5v5.6h-1.2v-11.2h1.7l2,4.9h0.1l2-4.9h1.7V124h-1.2V118.4
					z"/>
				<path class="st4" d="M303.1,124l-3.3-11.2h1.4l1.6,5.6l1.2,4.2h0.1l1.2-4.2l1.6-5.6h1.4l-3.3,11.2H303.1z"/>
				<path class="st4" d="M309.9,119.9c0-2.6,1.6-4.3,3.8-4.3c2.2,0,3.7,1.7,3.7,4v0.6h-6.1v0.4c0,1.5,1,2.5,2.5,2.5
					c1.1,0,1.9-0.5,2.4-1.4l0.9,0.6c-0.5,1.1-1.7,1.9-3.3,1.9C311.4,124.2,309.9,122.5,309.9,119.9z M311.2,119.1v0.1h4.7v-0.2
					c0-1.5-0.9-2.4-2.3-2.4C312.3,116.6,311.2,117.7,311.2,119.1z"/>
				<path class="st4" d="M319.6,122.9h2.4v-6.1h-2.4v-1.1h3.7v2.1h0.1c0.3-1.1,1.1-2.1,2.8-2.1h1.2v1.3h-1.6c-1.6,0-2.5,1-2.5,2.3
					v3.6h3.2v1.1h-6.9V122.9z"/>
				<path class="st4" d="M329.7,122.9h3v-6.1h-3v-1.1h4.3v7.2h2.8v1.1h-7V122.9z M332.3,113.1v-0.3c0-0.5,0.3-0.8,1-0.8s1,0.4,1,0.8
					v0.3c0,0.5-0.3,0.8-1,0.8S332.3,113.6,332.3,113.1z"/>
				<path class="st4" d="M338.9,122.9h2.8v-6.1h-2.9v-1.1h2.9V114c0-1.1,0.6-1.9,1.8-1.9h2.8v1.1H343v2.5h3.3v1.1H343v6.1h2.9v1.1
					h-7V122.9z"/>
				<path class="st4" d="M354.7,115.7h1.3l-4.1,10.1c-0.4,0.9-0.9,1.4-2.1,1.4h-1.2v-1.1h1.9l0.9-2.3l-3.3-8.1h1.3l1.4,3.5l1.2,3.1
					h0.1l1.2-3.1L354.7,115.7z"/>
			</g>
			<g class="st1">
				<path class="st2" d="M359.3,119.8v-1.3h4.6v1.3H359.3z"/>
			</g>
			<g class="st1">
				<path class="st5" d="M375,124h-7.5v-1.4l3.7-3.4c1.1-1,1.9-2,1.9-3.2v-0.2c0-1.3-0.7-2.1-2.1-2.1c-1.4,0-2,0.8-2.4,1.9l-1.2-0.4
					c0.4-1.3,1.4-2.6,3.6-2.6c2.2,0,3.5,1.3,3.5,3.2c0,1.7-1,2.9-2.5,4.2l-3.1,2.7h6.1V124z"/>
				<path class="st5" d="M382,124v-2.2h-5.5v-1.2l4.8-7.8h2v7.9h1.7v1.1h-1.7v2.2H382z M377.7,120.7h4.3v-6.8H382L377.7,120.7z"/>
			</g>
			<g class="st1">
				<path class="st2" d="M392.9,125.8h-2c-3.2,0-4.3-2.2-4.3-6.6c0-4.9,1.3-6.6,3.8-6.6c2.6,0,3.6,1.7,3.6,4v6h-1.1v-0.9h-0.1
					c-0.2,0.5-0.7,1.1-1.6,1.1c-1.3,0-2.1-1.1-2.1-3.4c0-2.4,0.8-3.4,2.1-3.4c0.9,0,1.4,0.6,1.6,1.1h0.1v-0.4c0-1.8-0.7-2.9-2.4-2.9
					c-1.9,0-2.7,1.4-2.7,4.6v2.1c0,2.5,0.6,4.4,3.1,4.4h2V125.8z M392.9,120.5v-2.4c0-0.8-0.5-1.2-1.3-1.2c-0.9,0-1.4,0.6-1.4,2v1
					c0,1.4,0.5,2,1.4,2C392.4,121.8,392.9,121.3,392.9,120.5z"/>
				<path class="st2" d="M403.8,124h-7.5v-1.4l3.7-3.4c1.1-1,1.9-2,1.9-3.2v-0.2c0-1.3-0.7-2.1-2.1-2.1c-1.4,0-2,0.8-2.4,1.9
					l-1.2-0.4c0.4-1.3,1.4-2.6,3.6-2.6c2.2,0,3.5,1.3,3.5,3.2c0,1.7-1,2.9-2.5,4.2l-3.1,2.7h6.1V124z"/>
				<path class="st2" d="M405.8,124l3.1-4.2l-3-4.1h1.5l1.2,1.7l1,1.4h0.1l1-1.4l1.2-1.7h1.5l-3,4l3.1,4.2h-1.5l-1.4-1.9l-0.9-1.3
					h-0.1l-0.9,1.3l-1.3,1.9H405.8z"/>
				<path class="st2" d="M418,123.2v-0.3c0-0.5,0.3-1,1.2-1c0.9,0,1.2,0.4,1.2,1v0.3c0,0.5-0.3,1-1.2,1
					C418.3,124.1,418,123.7,418,123.2z"/>
				<path class="st2" d="M425.5,115.7h1.3v1.3h0.1c0.5-1,1.4-1.5,2.5-1.5c2,0,3.2,1.6,3.2,4.3s-1.2,4.3-3.2,4.3
					c-1.2,0-2-0.5-2.5-1.5h-0.1v4.5h-1.3V115.7z M431.3,120.6v-1.4c0-1.5-0.9-2.5-2.4-2.5c-1.1,0-2.1,0.6-2.1,1.7v3
					c0,1.1,1,1.7,2.1,1.7C430.4,123.1,431.3,122.1,431.3,120.6z"/>
				<path class="st2" d="M435.2,124v-8.3h1.3v1.3h0.1c0.4-0.8,1-1.5,2.4-1.5c1.7,0,2.9,1.2,2.9,3.2v5.3h-1.3v-5.1
					c0-1.5-0.7-2.2-2-2.2c-1,0-2,0.5-2,1.6v5.7H435.2z"/>
				<path class="st2" d="M448,127.4c-2.7,0-3.7-0.7-3.7-2c0-0.9,0.5-1.4,1.3-1.6v-0.2c-0.5-0.2-0.7-0.6-0.7-1.1
					c0-0.8,0.6-1.2,1.5-1.4v-0.1c-1-0.4-1.6-1.4-1.6-2.5c0-1.7,1.3-2.8,3.2-2.8c0.6,0,1.2,0.1,1.6,0.3v-0.1c0-0.6,0.3-1.1,1-1.1h1.5
					v1.1h-1.9v0.6c0.6,0.5,0.9,1.2,0.9,2.1c0,1.7-1.3,2.8-3.2,2.8c-0.3,0-0.5,0-0.8-0.1c-0.5,0.1-1.2,0.4-1.2,0.9
					c0,0.5,0.5,0.6,1.3,0.6h1.8c2.1,0,3,0.9,3,2.2C452.2,126.6,450.8,127.4,448,127.4z M449.2,123.9h-2.9c-0.5,0.2-0.8,0.6-0.8,1.1
					c0,0.7,0.5,1.3,1.9,1.3h1.2c1.5,0,2.4-0.5,2.4-1.4C451,124.4,450.5,123.9,449.2,123.9z M449.8,118.6v-0.5c0-1-0.6-1.6-1.9-1.6
					c-1.3,0-1.9,0.6-1.9,1.6v0.5c0,1,0.6,1.6,1.9,1.6C449.2,120.3,449.8,119.6,449.8,118.6z"/>
			</g>
			<g class="st1">
				<path class="st3" d="M212.1,168.5v7.5h-1v-7.5h-2.8v-0.9h6.6v0.9H212.1z"/>
				<path class="st3" d="M216.4,167.1h1v3.7h0c0.3-0.6,0.7-1.2,1.8-1.2c1.3,0,2.1,0.9,2.1,2.4v4h-1v-3.8c0-1.1-0.5-1.7-1.5-1.7
					c-0.8,0-1.5,0.4-1.5,1.2v4.3h-1V167.1z"/>
				<path class="st3" d="M223.2,172.9c0-2,1.2-3.2,2.8-3.2c1.7,0,2.7,1.3,2.7,3v0.5h-4.6v0.3c0,1.1,0.7,1.9,1.9,1.9
					c0.8,0,1.5-0.4,1.8-1.1l0.7,0.5c-0.4,0.8-1.3,1.4-2.5,1.4C224.3,176.1,223.2,174.9,223.2,172.9z M224.2,172.3L224.2,172.3
					l3.5,0.1v-0.1c0-1.1-0.7-1.8-1.7-1.8C225,170.5,224.2,171.3,224.2,172.3z"/>
				<path class="st3" d="M230.2,176v-6.2h0.9v0.7h0c0.2-0.5,0.5-0.9,1.2-0.9c0.7,0,1.1,0.4,1.1,1h0c0.2-0.6,0.6-1,1.3-1
					c1,0,1.3,0.7,1.3,2v4.3h-0.9v-4.1c0-1.1-0.2-1.4-0.8-1.4c-0.5,0-0.9,0.3-0.9,1v4.5h-0.9v-4.1c0-1.1-0.2-1.4-0.7-1.4
					c-0.5,0-0.9,0.3-0.9,1v4.5H230.2z"/>
				<path class="st3" d="M237.6,172.9c0-2,1.2-3.2,2.8-3.2c1.7,0,2.7,1.3,2.7,3v0.5h-4.6v0.3c0,1.1,0.7,1.9,1.9,1.9
					c0.8,0,1.5-0.4,1.8-1.1l0.7,0.5c-0.4,0.8-1.3,1.4-2.5,1.4C238.7,176.1,237.6,174.9,237.6,172.9z M238.6,172.3L238.6,172.3
					l3.5,0.1v-0.1c0-1.1-0.7-1.8-1.7-1.8C239.4,170.5,238.6,171.3,238.6,172.3z"/>
				<path class="st3" d="M252.4,176v-6.2h1v1h0c0.3-0.6,0.7-1.2,1.8-1.2c1.3,0,2.1,0.9,2.1,2.4v4h-1v-3.8c0-1.1-0.5-1.7-1.5-1.7
					c-0.8,0-1.5,0.4-1.5,1.2v4.3H252.4z"/>
				<path class="st3" d="M264.3,176c-0.7,0-1-0.4-1.1-1h-0.1c-0.3,0.7-0.9,1.2-1.9,1.2c-1.3,0-2.1-0.7-2.1-1.9
					c0-1.1,0.8-1.8,2.7-1.8h1.3v-0.6c0-0.9-0.5-1.4-1.5-1.4c-0.8,0-1.3,0.3-1.7,0.9l-0.6-0.5c0.3-0.6,1.1-1.2,2.4-1.2
					c1.5,0,2.4,0.8,2.4,2.1v3.4h0.9v0.8H264.3z M263.2,174.2v-1h-1.3c-1.1,0-1.7,0.3-1.7,0.9v0.3c0,0.6,0.5,1,1.3,1
					C262.5,175.3,263.2,174.8,263.2,174.2z"/>
				<path class="st3" d="M266.2,176v-6.2h0.9v0.7h0c0.2-0.5,0.5-0.9,1.2-0.9c0.7,0,1.1,0.4,1.1,1h0c0.2-0.6,0.6-1,1.3-1
					c1,0,1.3,0.7,1.3,2v4.3h-0.9v-4.1c0-1.1-0.2-1.4-0.8-1.4c-0.5,0-0.9,0.3-0.9,1v4.5h-0.9v-4.1c0-1.1-0.2-1.4-0.7-1.4
					c-0.5,0-0.9,0.3-0.9,1v4.5H266.2z"/>
				<path class="st3" d="M273.6,172.9c0-2,1.2-3.2,2.8-3.2c1.7,0,2.7,1.3,2.7,3v0.5h-4.6v0.3c0,1.1,0.7,1.9,1.9,1.9
					c0.8,0,1.5-0.4,1.8-1.1l0.7,0.5c-0.4,0.8-1.3,1.4-2.5,1.4C274.7,176.1,273.6,174.9,273.6,172.9z M274.6,172.3L274.6,172.3
					l3.5,0.1v-0.1c0-1.1-0.7-1.8-1.7-1.8C275.4,170.5,274.6,171.3,274.6,172.3z"/>
			</g>
			<g class="st1">
				<path class="st4" d="M290.8,70l-0.7-2.4h-2.9l-0.7,2.4h-1l2.6-8.4h1.3l2.6,8.4H290.8z M288.6,62.7h-0.1l-1.2,4h2.5L288.6,62.7z"
					/>
				<path class="st4" d="M293.3,63.8h1v1h0c0.4-0.8,1-1.2,1.9-1.2c1.5,0,2.4,1.2,2.4,3.2c0,2-0.9,3.2-2.4,3.2
					c-0.9,0-1.5-0.4-1.9-1.2h0v3.4h-1V63.8z M297.6,67.4v-1.1c0-1.1-0.6-1.9-1.8-1.9c-0.9,0-1.6,0.4-1.6,1.3V68
					c0,0.8,0.7,1.3,1.6,1.3C297,69.3,297.6,68.5,297.6,67.4z"/>
				<path class="st4" d="M300.5,63.8h1v1h0c0.4-0.8,1-1.2,1.9-1.2c1.5,0,2.4,1.2,2.4,3.2c0,2-0.9,3.2-2.4,3.2
					c-0.9,0-1.5-0.4-1.9-1.2h0v3.4h-1V63.8z M304.8,67.4v-1.1c0-1.1-0.6-1.9-1.8-1.9c-0.9,0-1.6,0.4-1.6,1.3V68
					c0,0.8,0.7,1.3,1.6,1.3C304.2,69.3,304.8,68.5,304.8,67.4z"/>
				<path class="st4" d="M315,70v-6.2h1v1h0c0.3-0.6,0.7-1.2,1.8-1.2c1.3,0,2.1,0.9,2.1,2.4v4h-1v-3.8c0-1.1-0.5-1.7-1.5-1.7
					c-0.8,0-1.5,0.4-1.5,1.2V70H315z"/>
				<path class="st4" d="M326.9,70c-0.7,0-1-0.4-1.1-1h-0.1c-0.3,0.7-0.9,1.2-1.9,1.2c-1.3,0-2.1-0.7-2.1-1.9c0-1.1,0.8-1.8,2.7-1.8
					h1.3v-0.6c0-0.9-0.5-1.4-1.5-1.4c-0.8,0-1.3,0.3-1.7,0.9l-0.6-0.5c0.3-0.6,1.1-1.2,2.4-1.2c1.5,0,2.4,0.8,2.4,2.1v3.4h0.9V70
					H326.9z M325.8,68.2v-1h-1.3c-1.1,0-1.7,0.3-1.7,0.9v0.3c0,0.6,0.5,1,1.3,1C325.1,69.3,325.8,68.8,325.8,68.2z"/>
				<path class="st4" d="M328.8,70v-6.2h0.9v0.7h0c0.2-0.5,0.5-0.9,1.2-0.9c0.7,0,1.1,0.4,1.1,1h0c0.2-0.6,0.6-1,1.3-1
					c1,0,1.3,0.7,1.3,2V70h-0.9v-4.1c0-1.1-0.2-1.4-0.8-1.4c-0.5,0-0.9,0.3-0.9,1V70h-0.9v-4.1c0-1.1-0.2-1.4-0.7-1.4
					c-0.5,0-0.9,0.3-0.9,1V70H328.8z"/>
				<path class="st4" d="M336.2,66.9c0-2,1.2-3.2,2.8-3.2c1.7,0,2.7,1.3,2.7,3v0.5h-4.6v0.3c0,1.1,0.7,1.9,1.9,1.9
					c0.8,0,1.5-0.4,1.8-1.1l0.7,0.5c-0.4,0.8-1.3,1.4-2.5,1.4C337.3,70.1,336.2,68.9,336.2,66.9z M337.2,66.3L337.2,66.3l3.5,0.1
					v-0.1c0-1.1-0.7-1.8-1.7-1.8C338,64.5,337.2,65.3,337.2,66.3z"/>
			</g>
			<g class="st1">
				<path class="st5" d="M344,176v-0.8h2.1v-6.8H344v-0.8h5.2v0.8h-2.1v6.8h2.1v0.8H344z"/>
				<path class="st5" d="M351.2,172.9c0-2,1-3.2,2.8-3.2c1.2,0,1.9,0.6,2.3,1.4l-0.8,0.4c-0.2-0.6-0.8-1-1.5-1
					c-1.1,0-1.8,0.8-1.8,1.9v1.1c0,1.1,0.6,1.9,1.8,1.9c0.8,0,1.4-0.4,1.7-1.1l0.7,0.5c-0.4,0.8-1.1,1.4-2.4,1.4
					C352.2,176.1,351.2,174.9,351.2,172.9z"/>
				<path class="st5" d="M358.2,172.9c0-2,1.1-3.2,2.8-3.2c1.7,0,2.8,1.3,2.8,3.2c0,2-1.1,3.2-2.8,3.2
					C359.3,176.1,358.2,174.9,358.2,172.9z M362.8,173.3v-0.9c0-1.3-0.7-2-1.8-2s-1.8,0.6-1.8,2v0.9c0,1.3,0.7,2,1.8,2
					S362.8,174.7,362.8,173.3z"/>
				<path class="st5" d="M365.8,176v-6.2h1v1h0c0.3-0.6,0.7-1.2,1.8-1.2c1.3,0,2.1,0.9,2.1,2.4v4h-1v-3.8c0-1.1-0.5-1.7-1.5-1.7
					c-0.8,0-1.5,0.4-1.5,1.2v4.3H365.8z"/>
				<path class="st5" d="M379.8,174.9l0.6-0.6c0.6,0.6,1.3,1,2.2,1c1,0,1.6-0.3,1.6-1.1c0-0.6-0.5-0.8-1.1-0.9l-1-0.1
					c-0.9-0.1-2.1-0.4-2.1-1.7c0-1.2,1.1-1.8,2.5-1.8c1.1,0,1.9,0.4,2.5,1l-0.6,0.6c-0.3-0.3-0.8-0.8-1.9-0.8c-1,0-1.5,0.3-1.5,1
					c0,0.6,0.5,0.8,1.1,0.9l1,0.1c0.9,0.1,2.1,0.4,2.1,1.7c0,1.2-1,1.9-2.6,1.9C381.4,176.1,380.5,175.7,379.8,174.9z"/>
				<path class="st5" d="M387.5,175.2h2.2v-4.6h-2.2v-0.8h3.2v5.4h2.1v0.8h-5.3V175.2z M389.4,167.8v-0.2c0-0.3,0.2-0.6,0.8-0.6
					c0.6,0,0.8,0.3,0.8,0.6v0.2c0,0.3-0.2,0.6-0.8,0.6C389.6,168.4,389.4,168.2,389.4,167.8z"/>
				<path class="st5" d="M394.4,176v-0.9l4-4.4h-3.9v-0.8h4.9v0.9l-4,4.4h4.1v0.8H394.4z"/>
				<path class="st5" d="M401.4,172.9c0-2,1.2-3.2,2.8-3.2c1.7,0,2.7,1.3,2.7,3v0.5h-4.6v0.3c0,1.1,0.7,1.9,1.9,1.9
					c0.8,0,1.5-0.4,1.8-1.1l0.7,0.5c-0.4,0.8-1.3,1.4-2.5,1.4C402.5,176.1,401.4,174.9,401.4,172.9z M402.4,172.3L402.4,172.3
					l3.5,0.1v-0.1c0-1.1-0.7-1.8-1.7-1.8C403.2,170.5,402.4,171.3,402.4,172.3z"/>
			</g>
			<rect x="243" y="132" class="st6" width="1" height="32"/>
			<rect id="Rectangle-Copy-2" x="314" y="76" class="st7" width="1" height="32"/>
			<rect id="Rectangle-Copy" x="375" y="132" class="st8" width="1" height="32"/>
		</g>
		<g id="Page">
		</g>
	</g>
</g>
</svg>
