<?xml version="1.0" encoding="UTF-8"?>
<svg width="288px" height="544px" viewBox="0 0 288 544" version="1.1" xmlns="http://www.w3.org/2000/svg" xmlns:xlink="http://www.w3.org/1999/xlink">
    <!-- Generator: Sketch 61 (89581) - https://sketch.com -->
    <title>12_TintsShades_1-mobile_1.svg</title>
    <desc>Created with Sketch.</desc>
    <defs>
        <polygon id="path-1" points="0 78.6206897 78.6206897 78.6206897 78.6206897 0 0 0"></polygon>
    </defs>
    <g id="12_TintsShades_1-mobile_1.svg" stroke="none" stroke-width="1" fill="none" fill-rule="evenodd">
        <rect id="Rectangle-3-Copy-80" fill="#FFFFFF" x="0" y="0" width="288" height="544"></rect>
        <g id="Group-2-Copy" transform="translate(44.000000, 42.000000)">
            <g id="Group-19-Copy-8" transform="translate(121.000000, 126.000000)">
                <polygon id="Fill-1" fill="#FFFFFF" points="0 78.6206897 78.6182328 78.6206897 78.6182328 0 0 0"></polygon>
                <polygon id="Fill-2" fill="#C1DFFF" points="30.6989224 19.6551724 47.8971983 19.6551724 47.8971983 2.45689655 30.6989224 2.45689655"></polygon>
                <polygon id="Fill-3" fill="#C1DFFF" points="2.44461207 76.1637931 19.6428879 76.1637931 19.6428879 58.9655172 2.44461207 58.9655172"></polygon>
                <polygon id="Fill-4" fill="#C1DFFF" points="58.9532328 47.9094828 76.1515086 47.9094828 76.1515086 30.7112069 58.9532328 30.7112069"></polygon>
                <polygon id="Fill-5" fill="#EBF4FF" points="39.2990431 61.1153017 30.7883534 75.856681 47.8097328 75.856681"></polygon>
                <polygon id="Fill-6" fill="#EBF4FF" points="2.44559483 46.3746595 19.4669741 46.3746595 10.9562845 31.6332802"></polygon>
                <polygon id="Fill-7" fill="#EBF4FF" points="59.1298836 16.8904267 76.1512629 16.8904267 67.6405733 2.15150431"></polygon>
                <g id="Group-18" fill="#0062FF">
                    <path d="M31.5834052,18.7584052 L47.0127155,18.7584052 L47.0127155,3.33155172 L31.5834052,3.33155172 L31.5834052,18.7584052 Z M47.8971983,20.5273707 L30.6989224,20.5273707 C30.21,20.5273707 29.8144397,20.1318103 29.8144397,19.6428879 L29.8144397,2.44461207 C29.8144397,1.95568966 30.21,1.56012931 30.6989224,1.56012931 L47.8971983,1.56012931 C48.3861207,1.56012931 48.781681,1.95568966 48.781681,2.44461207 L48.781681,19.6428879 C48.781681,20.1318103 48.3861207,20.5273707 47.8971983,20.5273707 L47.8971983,20.5273707 Z" id="Fill-8"></path>
                    <path d="M3.32909483,75.2670259 L18.7584052,75.2670259 L18.7584052,59.8401724 L3.32909483,59.8401724 L3.32909483,75.2670259 Z M19.6428879,77.0359914 L2.44461207,77.0359914 C1.95568966,77.0359914 1.56012931,76.640431 1.56012931,76.1515086 L1.56012931,58.9532328 C1.56012931,58.4643103 1.95568966,58.06875 2.44461207,58.06875 L19.6428879,58.06875 C20.1318103,58.06875 20.5273707,58.4643103 20.5273707,58.9532328 L20.5273707,76.1515086 C20.5273707,76.640431 20.1318103,77.0359914 19.6428879,77.0359914 L19.6428879,77.0359914 Z" id="Fill-10"></path>
                    <path d="M59.8377155,47.0127155 L75.2670259,47.0127155 L75.2670259,31.5858621 L59.8377155,31.5858621 L59.8377155,47.0127155 Z M76.1515086,48.781681 L58.9532328,48.781681 C58.4643103,48.781681 58.06875,48.3861207 58.06875,47.8971983 L58.06875,30.6989224 C58.06875,30.21 58.4643103,29.8144397 58.9532328,29.8144397 L76.1515086,29.8144397 C76.640431,29.8144397 77.0359914,30.21 77.0359914,30.6989224 L77.0359914,47.8971983 C77.0359914,48.3861207 76.640431,48.781681 76.1515086,48.781681 L76.1515086,48.781681 Z" id="Fill-11"></path>
                    <path d="M39.3361422,31.6229612 C35.0832543,31.6229612 31.6214871,35.0822716 31.6214871,39.3376164 C31.6214871,43.5905043 35.0832543,47.0498147 39.3361422,47.0498147 C43.5890302,47.0498147 47.0507974,43.5905043 47.0507974,39.3376164 C47.0507974,35.0822716 43.5890302,31.6229612 39.3361422,31.6229612 M39.3361422,48.8212371 C34.1078664,48.8212371 29.8525216,44.5658922 29.8525216,39.3376164 C29.8525216,34.1093405 34.1078664,29.8515388 39.3361422,29.8515388 C44.5644181,29.8515388 48.8197629,34.1093405 48.8197629,39.3376164 C48.8197629,44.5658922 44.5644181,48.8212371 39.3361422,48.8212371" id="Fill-12"></path>
                    <path d="M66.4384138,59.9192845 L66.1706121,58.172431 C66.6497069,58.1110086 67.1042328,58.4279483 67.1779397,58.9095 C67.2516466,59.3935086 66.9224224,59.8431207 66.4384138,59.9192845 L66.4384138,59.9192845 Z M71.1065172,60.5998448 C71.0106983,60.5998448 70.9124224,60.5851034 70.8141466,60.5531638 C70.3743621,60.3418707 70.1163879,59.7841552 70.327681,59.3419138 C70.5389741,58.9021293 70.9910431,58.6785517 71.4332845,58.8996724 L71.0500086,59.6957069 L71.4381983,58.8996724 C71.9025517,59.0544569 72.1212155,59.5433793 71.966431,60.0077328 C71.8435862,60.3738103 71.4824224,60.5998448 71.1065172,60.5998448 L71.1065172,60.5998448 Z M62.5196638,61.7054483 L61.8735,61.0961379 L61.3256121,60.4032931 C61.6941466,60.1010948 62.2469483,60.1354914 62.561431,60.4917414 C62.8759138,60.8479914 62.8636293,61.3762241 62.5196638,61.7054483 L62.5196638,61.7054483 Z M74.7525517,63.7471293 C74.4798362,63.7471293 74.2095776,63.6193707 74.0400517,63.3761379 L75.4871638,62.3614397 L74.7378103,62.82825 L75.4969914,62.3737241 C75.7574224,62.7791121 75.6517759,63.3245431 75.2537586,63.5948017 C75.0989741,63.6979914 74.9245345,63.7471293 74.7525517,63.7471293 L74.7525517,63.7471293 Z M60.1487586,65.3785086 L58.4461293,64.8945 C58.5812586,64.4252328 59.0726379,64.1451466 59.5394483,64.2876466 C60.0111724,64.420319 60.281431,64.9116983 60.1487586,65.3785086 L60.1487586,65.3785086 Z M76.1505259,68.4864828 C75.6640603,68.4864828 75.2660431,68.0909224 75.2660431,67.5995431 C75.2660431,67.5823448 75.2660431,67.5651466 75.2685,67.5454914 L75.2685,67.5381207 L75.2685,67.5381207 C75.3004397,67.078681 75.6837155,66.6904914 76.1505259,66.6904914 C76.6075086,66.6904914 76.9809569,67.0148017 77.0300948,67.4545862 L76.1505259,67.4545862 L77.0300948,67.4545862 C77.0325517,67.4595 77.0325517,67.4668707 77.0325517,67.4717845 L77.0374655,67.4717845 C77.0374655,67.4889828 77.0374655,67.5037241 77.0350086,67.5209224 C77.0350086,67.5332069 77.0374655,67.5430345 77.0374655,67.5528621 L77.0374655,67.5995431 C77.0374655,68.0909224 76.6394483,68.4864828 76.1505259,68.4864828 L76.1505259,68.4864828 Z M59.2913017,70.8819569 C58.927681,70.8819569 58.5935431,70.66575 58.4731552,70.2996724 C58.4657845,70.2775603 58.4461293,70.2112241 58.4387586,70.1866552 C58.3232845,69.714931 58.6107414,69.2358362 59.0849224,69.1154483 C59.5591034,69.002431 60.0381983,69.2849741 60.1561293,69.7591552 C60.2716034,70.2210517 60.0087155,70.712431 59.5517328,70.8451034 C59.4657414,70.8721293 59.3772931,70.8819569 59.2913017,70.8819569 L59.2913017,70.8819569 Z M74.7648362,73.1251034 C74.5903966,73.1251034 74.4135,73.0710517 74.2587155,72.9629483 C73.8582414,72.6828621 73.7624224,72.1300603 74.0400517,71.7320431 C74.317681,71.3389397 74.8680259,71.2160948 75.2660431,71.4814397 C75.6665172,71.7443276 75.7967328,72.2602759 75.5412155,72.6656638 C75.5338448,72.6804052 75.4994483,72.732 75.4896207,72.7442845 C75.3176379,72.992431 75.0449224,73.1251034 74.7648362,73.1251034 L74.7648362,73.1251034 Z M61.9250948,74.9554914 C61.7408276,74.9554914 61.5541034,74.894069 61.3944052,74.7663103 C61.3772069,74.751569 61.3206983,74.702431 61.3010431,74.6852328 C60.94725,74.3510948 60.9349655,73.7884655 61.2715603,73.4346724 C61.6081552,73.0808793 62.1683276,73.0685948 62.5221207,73.4051897 C62.8660862,73.7319569 62.9078534,74.2847586 62.5958276,74.6434655 C62.418931,74.8473879 62.1707845,74.9554914 61.9250948,74.9554914 L61.9250948,74.9554914 Z M71.0966897,76.2773017 C70.7232414,76.2773017 70.3743621,76.0365259 70.2539741,75.6606207 C70.1065603,75.1938103 70.3620776,74.6975172 70.8288879,74.5501034 C71.2637586,74.3265259 71.7551379,74.5255345 71.9738017,74.9604052 C72.1924655,75.3977328 71.9738017,75.9456207 71.5364741,76.1642845 C71.4971638,76.1839397 71.4111724,76.2183362 71.3669483,76.2330776 C71.2760431,76.2625603 71.1875948,76.2773017 71.0966897,76.2773017 L71.0966897,76.2773017 Z M66.3548793,76.9554052 C66.3131121,76.9554052 66.2688879,76.9504914 66.2271207,76.9455776 C66.2246638,76.9455776 66.1755259,76.93575 66.173069,76.93575 C65.6915172,76.8620431 65.3598362,76.4099741 65.4335431,75.9284224 C65.50725,75.4468707 65.959319,75.1151897 66.4433276,75.1888966 C66.9248793,75.2650603 67.2786724,75.7171293 67.2074224,76.198681 C67.1410862,76.6360086 66.7823793,76.9554052 66.3548793,76.9554052 L66.3548793,76.9554052 Z" id="Fill-13"></path>
                    <path d="M11.0435043,3.33032328 C6.79061638,3.33032328 3.32884914,6.78963362 3.32884914,11.0449784 C3.32884914,15.2978664 6.79061638,18.7571767 11.0435043,18.7571767 C15.2963922,18.7571767 18.7581595,15.2978664 18.7581595,11.0449784 C18.7581595,6.78963362 15.2963922,3.33032328 11.0435043,3.33032328 M11.0435043,20.5285991 C5.81522845,20.5285991 1.55988362,16.2732543 1.55988362,11.0449784 C1.55988362,5.81670259 5.81522845,1.55890086 11.0435043,1.55890086 C16.2717802,1.55890086 20.527125,5.81670259 20.527125,11.0449784 C20.527125,16.2732543 16.2717802,20.5285991 11.0435043,20.5285991" id="Fill-14"></path>
                    <path d="M32.3194914,75.2665345 L46.2771207,75.2665345 L39.2970776,63.1786034 L32.3194914,75.2665345 Z M47.8102241,77.0379569 L30.7863879,77.0379569 C30.4719052,77.0379569 30.1795345,76.8659741 30.0198362,76.5932586 C29.8625948,76.3205431 29.8625948,75.9839483 30.0198362,75.7112328 L38.5329828,60.9698534 C38.8474655,60.4219655 39.7491466,60.4219655 40.0636293,60.9698534 L48.574319,75.7112328 C48.7340172,75.9839483 48.7340172,76.3205431 48.574319,76.5932586 C48.4170776,76.8659741 48.1247069,77.0379569 47.8102241,77.0379569 L47.8102241,77.0379569 Z" id="Fill-15"></path>
                    <path d="M3.97648707,45.7837759 L17.9341164,45.7837759 L10.9565302,33.6958448 L3.97648707,45.7837759 Z M19.4672198,47.5551983 L2.44338362,47.5551983 C2.12890086,47.5551983 1.83653017,47.3832155 1.67928879,47.1105 C1.51959052,46.8377845 1.51959052,46.5011897 1.67928879,46.2284741 L10.1899784,31.4870948 C10.5044612,30.9392069 11.4061422,30.9392069 11.720625,31.4870948 L20.2337716,46.2284741 C20.3910129,46.5011897 20.3910129,46.8377845 20.2337716,47.1105 C20.0740733,47.3832155 19.7841595,47.5551983 19.4672198,47.5551983 L19.4672198,47.5551983 Z" id="Fill-16"></path>
                    <path d="M60.6612672,16.3010172 L74.6188966,16.3010172 L67.6413103,4.21308621 L60.6612672,16.3010172 Z M76.152,18.0724397 L59.1281638,18.0724397 C58.813681,18.0724397 58.5213103,17.9004569 58.364069,17.6277414 C58.2043707,17.3550259 58.2043707,17.018431 58.364069,16.7457155 L66.8747586,2.00433621 C67.1892414,1.45644828 68.0909224,1.45644828 68.4054052,2.00433621 L76.9185517,16.7457155 C77.0757931,17.018431 77.0757931,17.3550259 76.9185517,17.6277414 C76.7588534,17.9004569 76.4689397,18.0724397 76.152,18.0724397 L76.152,18.0724397 Z" id="Fill-17"></path>
                </g>
            </g>
            <g id="Group-19-Copy-9" transform="translate(0.000000, 126.000000)">
                <polygon id="Fill-1" fill="#FFFFFF" points="0 78.6206897 78.6182328 78.6206897 78.6182328 0 0 0"></polygon>
                <polygon id="Fill-2" fill="#C1DFFF" points="46.6810345 12.2844828 76.1637931 12.2844828 76.1637931 2.45689655 46.6810345 2.45689655"></polygon>
                <polygon id="Fill-5" fill="#C1DFFF" points="46.6810345 76.1637931 76.1637931 76.1637931 76.1637931 66.3362069 46.6810345 66.3362069"></polygon>
                <polygon id="Fill-8" fill="#EBF4FF" points="2.45689655 56.5086207 31.9396552 56.5086207 31.9396552 22.112069 2.45689655 22.112069"></polygon>
                <g id="Group-18">
                    <polygon id="Stroke-9" stroke="#000000" stroke-width="0.5" stroke-linecap="round" stroke-linejoin="round" points="2.45689655 56.5086207 31.9396552 56.5086207 31.9396552 22.112069 2.45689655 22.112069"></polygon>
                    <path d="M3.34137931,55.6265948 L31.0551724,55.6265948 L31.0551724,23.0014655 L3.34137931,23.0014655 L3.34137931,55.6265948 Z M31.9396552,57.3955603 L2.45689655,57.3955603 C1.96797414,57.3955603 1.57241379,57 1.57241379,56.5110776 L1.57241379,22.1145259 C1.57241379,21.6256034 1.96797414,21.2300431 2.45689655,21.2300431 L31.9396552,21.2300431 C32.4285776,21.2300431 32.8241379,21.6256034 32.8241379,22.1145259 L32.8241379,56.5110776 C32.8241379,57 32.4285776,57.3955603 31.9396552,57.3955603 L31.9396552,57.3955603 Z" id="Fill-11" fill="#0062FF"></path>
                    <path d="M47.5655172,11.4024569 L75.2768534,11.4024569 L75.2768534,3.3462931 L47.5655172,3.3462931 L47.5655172,11.4024569 Z M76.1637931,1.57487069 L46.6810345,1.57487069 C46.1921121,1.57487069 45.7940948,1.97043103 45.7940948,2.45935345 L45.7940948,6.48866379 L17.2081034,6.48866379 C16.719181,6.48866379 16.3236207,6.88422414 16.3236207,7.37314655 L16.3236207,22.1145259 L18.0925862,22.1145259 L18.0925862,8.25762931 L45.7940948,8.25762931 L45.7940948,12.2869397 C45.7940948,12.7758621 46.1921121,13.1714224 46.6810345,13.1714224 L76.1637931,13.1714224 C76.6527155,13.1714224 77.0482759,12.7758621 77.0482759,12.2869397 L77.0482759,2.45935345 C77.0482759,1.97043103 76.6527155,1.57487069 76.1637931,1.57487069 L76.1637931,1.57487069 Z" id="Fill-12" fill="#0062FF"></path>
                    <path d="M47.5655172,43.3421121 L75.2768534,43.3421121 L75.2768534,35.2859483 L47.5655172,35.2859483 L47.5655172,43.3421121 Z M76.1637931,33.5145259 L46.6810345,33.5145259 C46.1921121,33.5145259 45.7940948,33.9100862 45.7940948,34.3990086 L45.7940948,38.4307759 L31.9396552,38.4307759 L31.9396552,40.1997414 L45.7940948,40.1997414 L45.7940948,44.2265948 C45.7940948,44.7155172 46.1921121,45.1110776 46.6810345,45.1110776 L76.1637931,45.1110776 C76.6527155,45.1110776 77.0482759,44.7155172 77.0482759,44.2265948 L77.0482759,34.3990086 C77.0482759,33.9100862 76.6527155,33.5145259 76.1637931,33.5145259 L76.1637931,33.5145259 Z" id="Fill-13" fill="#0062FF"></path>
                    <path d="M47.5655172,75.2817672 L75.2768534,75.2817672 L75.2768534,67.2256034 L47.5655172,67.2256034 L47.5655172,75.2817672 Z M76.1637931,65.454181 L46.6810345,65.454181 C46.1921121,65.454181 45.7940948,65.8497414 45.7940948,66.3386638 L45.7940948,70.3679741 L18.0827586,70.3679741 L18.0827586,56.5110776 L16.3113362,56.5110776 L16.3113362,71.2524569 C16.3113362,71.7413793 16.7093534,72.1369397 17.1982759,72.1369397 L45.7940948,72.1369397 L45.7940948,76.16625 C45.7940948,76.6551724 46.1921121,77.0507328 46.6810345,77.0507328 L76.1637931,77.0507328 C76.6527155,77.0507328 77.0482759,76.6551724 77.0482759,76.16625 L77.0482759,66.3386638 C77.0482759,65.8497414 76.6527155,65.454181 76.1637931,65.454181 L76.1637931,65.454181 Z" id="Fill-14" fill="#0062FF"></path>
                    <polygon id="Fill-15" fill="#0062FF" points="7.38051724 32.8265948 27.0356897 32.8265948 27.0356897 31.0551724 7.38051724 31.0551724"></polygon>
                    <polygon id="Fill-16" fill="#0062FF" points="7.38051724 40.1948276 27.0356897 40.1948276 27.0356897 38.4234052 7.38051724 38.4234052"></polygon>
                    <polygon id="Fill-17" fill="#0062FF" points="7.38051724 47.5679741 27.0356897 47.5679741 27.0356897 45.7965517 7.38051724 45.7965517"></polygon>
                </g>
            </g>
            <g id="Group-18-Copy-3" transform="translate(121.000000, 0.000000)">
                <polygon id="Fill-1" fill="#FFFFFF" points="0 78.6206897 78.6206897 78.6206897 78.6206897 0 0 0"></polygon>
                <polygon id="Fill-2" fill="#C1DFFF" points="47.8207888 34.3965517 39.3100991 29.4827586 30.7994095 34.3965517 30.7994095 44.2241379 39.3100991 49.137931 47.8207888 44.2241379"></polygon>
                <g id="Group-17" transform="translate(4.913793, 2.456897)">
                    <path d="M40.5387931,7.35619397 C40.5387931,10.7491681 37.7895259,13.4984353 34.3965517,13.4984353 C31.0035776,13.4984353 28.2543103,10.7491681 28.2543103,7.35619397 C28.2543103,3.96321983 31.0035776,1.21395259 34.3965517,1.21395259 C37.7895259,1.21395259 40.5387931,3.96321983 40.5387931,7.35619397" id="Fill-3" fill="#EBF4FF"></path>
                    <path d="M40.5387931,66.3217112 C40.5387931,69.7146853 37.7895259,72.4639526 34.3965517,72.4639526 C31.0035776,72.4639526 28.2543103,69.7146853 28.2543103,66.3217112 C28.2543103,62.9287371 31.0035776,60.1794698 34.3965517,60.1794698 C37.7895259,60.1794698 40.5387931,62.9287371 40.5387931,66.3217112" id="Fill-5" fill="#EBF4FF"></path>
                    <path d="M15.0064784,22.0975733 C15.0064784,25.4905474 12.2547543,28.2398147 8.86423707,28.2398147 C5.47126293,28.2398147 2.72199569,25.4905474 2.72199569,22.0975733 C2.72199569,18.7045991 5.47126293,15.9553319 8.86423707,15.9553319 C12.2547543,15.9553319 15.0064784,18.7045991 15.0064784,22.0975733" id="Fill-7" fill="#EBF4FF"></path>
                    <path d="M66.0711078,22.0975733 C66.0711078,25.4905474 63.3218405,28.2398147 59.9288664,28.2398147 C56.5383491,28.2398147 53.786625,25.4905474 53.786625,22.0975733 C53.786625,18.7045991 56.5383491,15.9553319 59.9288664,15.9553319 C63.3218405,15.9553319 66.0711078,18.7045991 66.0711078,22.0975733" id="Fill-9" fill="#EBF4FF"></path>
                    <path d="M15.0064784,51.5803319 C15.0064784,54.973306 12.2547543,57.7225733 8.86423707,57.7225733 C5.47126293,57.7225733 2.72199569,54.973306 2.72199569,51.5803319 C2.72199569,48.1873578 5.47126293,45.4380905 8.86423707,45.4380905 C12.2547543,45.4380905 15.0064784,48.1873578 15.0064784,51.5803319" id="Fill-11" fill="#EBF4FF"></path>
                    <path d="M66.0711078,51.5803319 C66.0711078,54.973306 63.3218405,57.7225733 59.9288664,57.7225733 C56.5383491,57.7225733 53.786625,54.973306 53.786625,51.5803319 C53.786625,48.1873578 56.5383491,45.4380905 59.9288664,45.4380905 C63.3218405,45.4380905 66.0711078,48.1873578 66.0711078,51.5803319" id="Fill-13" fill="#EBF4FF"></path>
                    <path d="M59.9288664,56.964375 C57.0297284,56.964375 54.6711078,54.6057543 54.6711078,51.7066164 C54.6711078,48.8099353 57.0297284,46.4513147 59.9288664,46.4513147 C62.8280043,46.4513147 65.186625,48.8099353 65.186625,51.7066164 C65.186625,54.6057543 62.8280043,56.964375 59.9288664,56.964375 L59.9288664,56.964375 Z M39.9665819,62.212306 C38.8511509,60.7504526 37.1902888,59.7554095 35.2812802,59.5097198 L35.2812802,47.3038578 L42.9074871,42.8986422 L53.4524871,48.9892888 C53.098694,49.8246336 52.9021422,50.7459698 52.9021422,51.7066164 C52.9021422,52.6697198 53.098694,53.591056 53.4524871,54.4264009 L39.9665819,62.212306 Z M34.3967974,71.7057543 C31.4976595,71.7057543 29.1390388,69.3471336 29.1390388,66.4479957 C29.1390388,63.5513147 31.4976595,61.192694 34.3967974,61.192694 C37.2959353,61.192694 39.654556,63.5513147 39.654556,66.4479957 C39.654556,69.3471336 37.2959353,71.7057543 34.3967974,71.7057543 L34.3967974,71.7057543 Z M15.3435647,54.4264009 C15.6949009,53.591056 15.8914526,52.6697198 15.8914526,51.7066164 C15.8914526,50.7459698 15.6949009,49.8246336 15.3435647,48.9892888 L25.8861078,42.8986422 L33.5123147,47.3038578 L33.5123147,59.5097198 C31.603306,59.7554095 29.9399871,60.7504526 28.8270129,62.212306 L15.3435647,54.4264009 Z M8.86472845,56.964375 C5.96559052,56.964375 3.60696983,54.6057543 3.60696983,51.7066164 C3.60696983,48.8099353 5.96559052,46.4513147 8.86472845,46.4513147 C11.7638664,46.4513147 14.1224871,48.8099353 14.1224871,51.7066164 C14.1224871,54.6057543 11.7638664,56.964375 8.86472845,56.964375 L8.86472845,56.964375 Z M3.60696983,22.2238578 C3.60696983,19.3271767 5.96559052,16.968556 8.86472845,16.968556 C11.7638664,16.968556 14.1224871,19.3271767 14.1224871,22.2238578 C14.1224871,25.1229957 11.7638664,27.4816164 8.86472845,27.4816164 C5.96559052,27.4816164 3.60696983,25.1229957 3.60696983,22.2238578 L3.60696983,22.2238578 Z M9.74921121,44.7683405 L9.74921121,29.1645905 C11.6582198,28.9189009 13.3190819,27.9238578 14.4345129,26.4595474 L25.001625,32.5624784 L25.001625,41.3679957 L14.4345129,47.4733836 C13.3190819,46.0090733 11.6582198,45.0140302 9.74921121,44.7683405 L9.74921121,44.7683405 Z M28.8270129,11.7181681 C29.9399871,13.1824784 31.603306,14.1775216 33.5123147,14.4232112 L33.5123147,26.6266164 L25.8861078,31.0318319 L15.3435647,24.9436422 C15.6949009,24.1082974 15.8914526,23.1869612 15.8914526,22.2238578 C15.8914526,21.2632112 15.6949009,20.341875 15.3435647,19.5065302 L28.8270129,11.7181681 Z M34.3967974,2.22717672 C37.2959353,2.22717672 39.654556,4.58579741 39.654556,7.48247845 C39.654556,10.3816164 37.2959353,12.7402371 34.3967974,12.7402371 C31.4976595,12.7402371 29.1390388,10.3816164 29.1390388,7.48247845 C29.1390388,4.58579741 31.4976595,2.22717672 34.3967974,2.22717672 L34.3967974,2.22717672 Z M34.3967974,45.7707543 L26.7705905,41.3679957 L26.7705905,32.5624784 L34.3967974,28.1597198 L42.0230043,32.5624784 L42.0230043,41.3679957 L34.3967974,45.7707543 Z M53.4524871,19.5065302 C53.098694,20.341875 52.9021422,21.2632112 52.9021422,22.2238578 C52.9021422,23.1869612 53.098694,24.1082974 53.4524871,24.9436422 L42.9074871,31.0318319 L35.2812802,26.6266164 L35.2812802,14.4232112 C37.1902888,14.1775216 38.8511509,13.1824784 39.9665819,11.7181681 L53.4524871,19.5065302 Z M59.9288664,16.968556 C62.8280043,16.968556 65.186625,19.3271767 65.186625,22.2238578 C65.186625,25.1229957 62.8280043,27.4816164 59.9288664,27.4816164 C57.0297284,27.4816164 54.6711078,25.1229957 54.6711078,22.2238578 C54.6711078,19.3271767 57.0297284,16.968556 59.9288664,16.968556 L59.9288664,16.968556 Z M54.3590819,47.4733836 L43.7919698,41.3679957 L43.7919698,32.5624784 L54.3590819,26.4595474 C55.4745129,27.9238578 57.135375,28.9189009 59.0443836,29.1645905 L59.0443836,44.7683405 C57.135375,45.0140302 55.4745129,46.0090733 54.3590819,47.4733836 L54.3590819,47.4733836 Z M60.8133491,44.7683405 L60.8133491,29.1645905 C64.2677457,28.7223491 66.9555905,25.7961853 66.9555905,22.2238578 C66.9555905,18.3493319 63.8033922,15.1971336 59.9288664,15.1971336 C57.6513233,15.1971336 55.6440388,16.3027371 54.3590819,17.9881681 L40.8756336,10.2022629 C41.2269698,9.36446121 41.4235216,8.4455819 41.4235216,7.48247845 C41.4235216,3.60795259 38.2713233,0.45575431 34.3967974,0.45575431 C30.5222716,0.45575431 27.3700733,3.60795259 27.3700733,7.48247845 C27.3700733,8.4455819 27.566625,9.36446121 27.9179612,10.2022629 L14.432056,17.9881681 C13.1470991,16.3027371 11.1422716,15.1971336 8.86472845,15.1971336 C4.99020259,15.1971336 1.83800431,18.3493319 1.83800431,22.2238578 C1.83800431,25.7961853 4.52584914,28.7223491 7.98024569,29.1645905 L7.98024569,44.7683405 C4.52584914,45.2105819 1.83800431,48.1342888 1.83800431,51.7066164 C1.83800431,55.5835991 4.99020259,58.7357974 8.86472845,58.7357974 C11.1422716,58.7357974 13.1470991,57.630194 14.432056,55.9447629 L27.9179612,63.7306681 C27.566625,64.5660129 27.3700733,65.4873491 27.3700733,66.4479957 C27.3700733,70.3225216 30.5222716,73.4771767 34.3967974,73.4771767 C38.2713233,73.4771767 41.4235216,70.3225216 41.4235216,66.4479957 C41.4235216,65.4873491 41.2269698,64.5660129 40.8756336,63.7306681 L54.3590819,55.9447629 C55.6440388,57.630194 57.6513233,58.7357974 59.9288664,58.7357974 C63.8033922,58.7357974 66.9555905,55.5835991 66.9555905,51.7066164 C66.9555905,48.1342888 64.2677457,45.2105819 60.8133491,44.7683405 L60.8133491,44.7683405 Z" id="Fill-15" fill="#0062FF"></path>
                </g>
            </g>
            <g id="Group-9-Copy-5" transform="translate(0.000000, 0.000000)">
                <polygon id="Fill-1" fill="#FFFFFF" points="0 78.6206897 78.6206897 78.6206897 78.6206897 0 0 0"></polygon>
                <g id="Group-8" transform="translate(0.000000, 2.456897)">
                    <path d="M76.1193233,34.3965517 C76.1193233,54.7494828 59.618806,71.25 39.265875,71.25 C18.912944,71.25 2.41242672,54.7494828 2.41242672,34.3965517 L76.1193233,34.3965517 Z" id="Fill-2" fill="#EBF4FF"></path>
                    <path d="M34.9304353,34.3965517 L18.6166422,6.14224138 L18.6166422,6.13732759 C16.5921595,2.62396552 12.0591853,1.41025862 8.54828017,3.43719828 C5.037375,5.46659483 3.8236681,9.99465517 5.85060776,13.5080172 L5.85552155,13.5080172 L17.9164267,34.3965517" id="Fill-4" fill="#C1DFFF"></path>
                    <path d="M39.265875,70.4077759 C19.7286336,70.4077759 3.77846121,54.7499741 3.30673707,35.32575 L75.2250129,35.32575 C74.7532888,54.7499741 58.8031164,70.4077759 39.265875,70.4077759 L39.265875,70.4077759 Z M6.62109052,13.1104914 C6.61863362,13.1055776 6.61371983,13.1031207 6.61126293,13.0982069 C5.75380603,11.6044138 5.53022845,9.86247414 5.97738362,8.18932759 C6.42699569,6.50881034 7.49820259,5.11083621 8.99199569,4.24846552 C10.4857888,3.38609483 12.2326422,3.16006034 13.9107026,3.61212931 C15.5912198,4.05928448 16.989194,5.13049138 17.8515647,6.62182759 C17.8515647,6.62182759 17.8540216,6.62428448 17.8540216,6.62674138 L17.8515647,6.62674138 L33.398806,33.5543276 L18.4264784,33.5543276 L6.62109052,13.1104914 Z M76.1193233,33.5543276 L35.4404871,33.5543276 L19.3895819,5.757 C19.387125,5.75208621 19.387125,5.74471552 19.3846681,5.73980172 C18.2839784,3.8357069 16.5051853,2.47458621 14.3701422,1.89967241 C12.2350991,1.33212931 10.0116078,1.61712931 8.10751293,2.71781897 C6.2034181,3.81605172 4.84229741,5.59484483 4.26984052,7.72988793 C3.69738362,9.86738793 3.98729741,12.0908793 5.08307328,13.9925172 C5.08553017,13.997431 5.09290086,13.9998879 5.09535776,14.0048017 L16.3823405,33.5543276 L2.41242672,33.5543276 C1.92350431,33.5543276 1.52794397,33.9498879 1.52794397,34.4388103 C1.52794397,55.2487241 18.4559612,72.1791983 39.265875,72.1791983 C60.0757888,72.1791983 77.003806,55.2487241 77.003806,34.4388103 C77.003806,33.9498879 76.6082457,33.5543276 76.1193233,33.5543276 L76.1193233,33.5543276 Z" id="Fill-6" fill="#0062FF"></path>
                </g>
            </g>
        </g>
        <g id="Group-87-Copy" transform="translate(44.000000, 297.000000)">
            <g id="Group-11-Copy-2" transform="translate(121.517241, 126.586207)">
                <polygon id="Fill-1" fill="#FFFFFF" points="0 78.6206897 78.6182328 78.6206897 78.6182328 0 0 0"></polygon>
                <g id="Group-10" transform="translate(7.370690, 0.000000)">
                    <path d="M44.2236466,16.8911638 C44.2236466,25.0308621 37.6244224,31.6325431 29.4822672,31.6325431 C21.342569,31.6325431 14.7408879,25.0308621 14.7408879,16.8911638 C14.7408879,8.75146552 21.342569,2.14978448 29.4822672,2.14978448 C37.6244224,2.14978448 44.2236466,8.75146552 44.2236466,16.8911638" id="Fill-2" fill="#C1DFFF"></path>
                    <path d="M19.0537241,28.8181681 C15.7418276,25.8846336 13.8426466,21.648944 13.8426466,17.1995043 C13.8426466,8.5831681 20.8521724,1.57118534 29.4685086,1.57118534 C38.0848448,1.57118534 45.0943707,8.5831681 45.0943707,17.1995043 C45.0943707,21.648944 43.1951897,25.8846336 39.8832931,28.8181681 L38.7088966,27.4939009 C41.642431,24.8945043 43.3254052,21.1428233 43.3254052,17.1995043 C43.3254052,9.55609914 37.1094569,3.34260776 29.4685086,3.34260776 C21.8275603,3.34260776 15.6116121,9.55609914 15.6116121,17.1995043 C15.6116121,21.1428233 17.2945862,24.8945043 20.2281207,27.4939009 L19.0537241,28.8181681 Z" id="Fill-4" fill="#0062FF"></path>
                    <path d="M24.5601207,16.8911638 C24.5601207,13.9772845 26.5772328,11.9773707 29.4739138,11.9773707 C32.3730517,11.9773707 34.3901638,13.9772845 34.3901638,16.8911638 L34.3901638,36.5463362 L51.3796034,36.5463362 C56.9076207,36.5463362 61.4209397,40.3324138 61.4209397,45.8235776 L61.4209397,55.6757328 C61.4209397,67.2034914 58.2417155,75.856681 41.200681,75.856681 C29.3363276,75.856681 23.744431,70.8028448 16.3024914,62.3953448 C14.2264138,60.0465517 7.85076724,53.1426724 7.85076724,53.1426724 C5.80908621,50.8430172 2.45542241,47.3935345 2.45542241,46.337069 C2.45542241,43.1455603 10.3666293,41.3987069 14.2288707,44.364181 C17.2189138,46.6589224 24.5601207,54.9730603 24.5601207,54.9730603 L24.5601207,16.8911638 Z" id="Fill-6" fill="#EBF4FF"></path>
                    <path d="M8.51216379,52.8616034 C8.51462069,52.8640603 14.8878103,59.7679397 16.9638879,62.1167328 C24.0028966,70.06725 29.4940603,75.2783276 41.2011724,75.2783276 C57.2496207,75.2783276 60.5369483,67.5636724 60.5369483,55.984319 L60.5369483,46.1321638 C60.5369483,41.3461293 56.601,37.7394052 51.3800948,37.7394052 L34.3881983,37.7394052 C33.8992759,37.7394052 33.5037155,37.3438448 33.5037155,36.8524655 L33.5037155,17.1972931 C33.5037155,14.7895345 31.8846207,13.1704397 29.4744052,13.1704397 C27.0641897,13.1704397 25.4450948,14.7895345 25.4450948,17.1972931 L25.4450948,55.2791897 C25.4450948,55.6477241 25.2166034,55.9794052 24.8726379,56.1071638 C24.5286724,56.2373793 24.1380259,56.1415603 23.89725,55.8663879 C23.8235431,55.7828534 16.5781552,47.5891034 13.6913017,45.3705259 C11.4186724,43.6285862 7.33039655,43.7170345 4.93737931,44.8988017 C3.92268103,45.3975517 3.34285345,46.0363448 3.34285345,46.6456552 C3.48289655,47.3188448 5.95207759,50.0361724 7.27880172,51.495569 L8.51216379,52.8616034 Z M41.2011724,77.04975 C28.7520776,77.04975 22.9980259,71.6003534 15.6396207,63.2862155 C13.566,60.9447931 7.20263793,54.0482845 7.20263793,54.0482845 L5.96927586,52.6871638 C2.98168966,49.3973793 1.57143103,47.7291466 1.57143103,46.6456552 C1.57143103,45.3164741 2.49031034,44.13225 4.15608621,43.3116466 C7.07487931,41.8719052 11.8437155,41.7220345 14.7674224,43.9700948 C16.9663448,45.6555259 21.3371638,50.3825948 23.6736724,52.96725 L23.6736724,17.1972931 C23.6736724,13.7846638 26.059319,11.3990172 29.4744052,11.3990172 C32.8894914,11.3990172 35.2751379,13.7846638 35.2751379,17.1972931 L35.2751379,35.9679828 L51.3800948,35.9679828 C57.6083276,35.9679828 62.3083707,40.3363448 62.3083707,46.1321638 L62.3083707,55.984319 C62.3083707,66.9248793 59.7482845,77.04975 41.2011724,77.04975 L41.2011724,77.04975 Z" id="Fill-8" fill="#0062FF"></path>
                </g>
            </g>
            <g id="Group-25-Copy-3" transform="translate(0.965517, 126.586207)">
                <polygon id="Fill-1" fill="#FFFFFF" points="0 78.6206897 78.6182328 78.6206897 78.6182328 0 0 0"></polygon>
                <polygon id="Fill-2" fill="#EBF4FF" points="4.9137931 76.1637931 73.7068966 76.1637931 73.7068966 9.82758621 4.9137931 9.82758621"></polygon>
                <polygon id="Fill-3" fill="#C1DFFF" points="36.8534483 31.6325431 41.7672414 31.6325431 41.7672414 26.71875 36.8534483 26.71875"></polygon>
                <polygon id="Fill-4" fill="#FFFFFF" points="36.8534483 48.830819 41.7672414 48.830819 41.7672414 43.9170259 36.8534483 43.9170259"></polygon>
                <polygon id="Fill-5" fill="#FFFFFF" points="36.8534483 66.0290948 41.7672414 66.0290948 41.7672414 61.1153017 36.8534483 61.1153017"></polygon>
                <polygon id="Fill-6" fill="#C1DFFF" points="17.1982759 31.6325431 22.112069 31.6325431 22.112069 26.71875 17.1982759 26.71875"></polygon>
                <polygon id="Fill-7" fill="#C1DFFF" points="17.1982759 48.830819 22.112069 48.830819 22.112069 43.9170259 17.1982759 43.9170259"></polygon>
                <polygon id="Fill-8" fill="#FFFFFF" points="17.1982759 66.0290948 22.112069 66.0290948 22.112069 61.1153017 17.1982759 61.1153017"></polygon>
                <polygon id="Fill-9" fill="#FFFFFF" points="56.5061638 31.6325431 61.4199569 31.6325431 61.4199569 26.71875 56.5061638 26.71875"></polygon>
                <polygon id="Fill-10" fill="#C1DFFF" points="56.5061638 48.830819 61.4199569 48.830819 61.4199569 43.9170259 56.5061638 43.9170259"></polygon>
                <polygon id="Fill-11" fill="#C1DFFF" points="56.5061638 66.0290948 61.4199569 66.0290948 61.4199569 61.1153017 56.5061638 61.1153017"></polygon>
                <g id="Group-24">
                    <path d="M72.8211853,75.2783276 L5.79950431,75.2783276 L5.79950431,10.7135431 L18.7670043,10.7135431 L18.7670043,17.1972931 L20.5384267,17.1972931 L20.5384267,10.7135431 L38.4246336,10.7135431 L38.4246336,17.1972931 L40.196056,17.1972931 L40.196056,10.7135431 L58.0773491,10.7135431 L58.0773491,17.1972931 L59.8487716,17.1972931 L59.8487716,10.7135431 L72.8211853,10.7135431 L72.8211853,75.2783276 Z M73.7056681,8.94212069 L59.8487716,8.94212069 L59.8487716,2.45591379 L58.0773491,2.45591379 L58.0773491,8.94212069 L40.196056,8.94212069 L40.196056,2.45591379 L38.4246336,2.45591379 L38.4246336,8.94212069 L20.5384267,8.94212069 L20.5384267,2.45591379 L18.7670043,2.45591379 L18.7670043,8.94212069 L4.91256466,8.94212069 C4.42609914,8.94212069 4.0280819,9.33768103 4.0280819,9.82660345 L4.0280819,76.1628103 C4.0280819,76.6541897 4.42609914,77.04975 4.91256466,77.04975 L73.7056681,77.04975 C74.1945905,77.04975 74.5926078,76.6541897 74.5926078,76.1628103 L74.5926078,9.82660345 C74.5926078,9.33768103 74.1945905,8.94212069 73.7056681,8.94212069 L73.7056681,8.94212069 Z" id="Fill-12" fill="#0062FF"></path>
                    <mask id="mask-2" fill="white">
                        <use xlink:href="#path-1"></use>
                    </mask>
                    <g id="Clip-15"></g>
                    <path d="M37.737931,31.0551724 L40.8827586,31.0551724 L40.8827586,27.9128017 L37.737931,27.9128017 L37.737931,31.0551724 Z M41.7672414,32.8241379 L36.8534483,32.8241379 C36.3645259,32.8241379 35.9689655,32.4285776 35.9689655,31.9396552 L35.9689655,27.0258621 C35.9689655,26.5369397 36.3645259,26.1413793 36.8534483,26.1413793 L41.7672414,26.1413793 C42.2561638,26.1413793 42.6517241,26.5369397 42.6517241,27.0258621 L42.6517241,31.9396552 C42.6517241,32.4285776 42.2561638,32.8241379 41.7672414,32.8241379 L41.7672414,32.8241379 Z" id="Fill-14" fill="#0062FF" mask="url(#mask-2)"></path>
                    <path d="M37.737931,48.2534483 L40.8827586,48.2534483 L40.8827586,45.1110776 L37.737931,45.1110776 L37.737931,48.2534483 Z M41.7672414,50.0224138 L36.8534483,50.0224138 C36.3645259,50.0224138 35.9689655,49.6268534 35.9689655,49.137931 L35.9689655,44.2241379 C35.9689655,43.7352155 36.3645259,43.3396552 36.8534483,43.3396552 L41.7672414,43.3396552 C42.2561638,43.3396552 42.6517241,43.7352155 42.6517241,44.2241379 L42.6517241,49.137931 C42.6517241,49.6268534 42.2561638,50.0224138 41.7672414,50.0224138 L41.7672414,50.0224138 Z" id="Fill-16" fill="#0062FF" mask="url(#mask-2)"></path>
                    <path d="M37.737931,65.4517241 L40.8827586,65.4517241 L40.8827586,62.3093534 L37.737931,62.3093534 L37.737931,65.4517241 Z M41.7672414,67.2206897 L36.8534483,67.2206897 C36.3645259,67.2206897 35.9689655,66.8251293 35.9689655,66.3362069 L35.9689655,61.4224138 C35.9689655,60.9334914 36.3645259,60.537931 36.8534483,60.537931 L41.7672414,60.537931 C42.2561638,60.537931 42.6517241,60.9334914 42.6517241,61.4224138 L42.6517241,66.3362069 C42.6517241,66.8251293 42.2561638,67.2206897 41.7672414,67.2206897 L41.7672414,67.2206897 Z" id="Fill-17" fill="#0062FF" mask="url(#mask-2)"></path>
                    <path d="M18.0827586,31.0551724 L21.2275862,31.0551724 L21.2275862,27.9128017 L18.0827586,27.9128017 L18.0827586,31.0551724 Z M22.112069,32.8241379 L17.1982759,32.8241379 C16.7093534,32.8241379 16.3137931,32.4285776 16.3137931,31.9396552 L16.3137931,27.0258621 C16.3137931,26.5369397 16.7093534,26.1413793 17.1982759,26.1413793 L22.112069,26.1413793 C22.6009914,26.1413793 22.9965517,26.5369397 22.9965517,27.0258621 L22.9965517,31.9396552 C22.9965517,32.4285776 22.6009914,32.8241379 22.112069,32.8241379 L22.112069,32.8241379 Z" id="Fill-18" fill="#0062FF" mask="url(#mask-2)"></path>
                    <path d="M18.0827586,48.2534483 L21.2275862,48.2534483 L21.2275862,45.1110776 L18.0827586,45.1110776 L18.0827586,48.2534483 Z M22.112069,50.0224138 L17.1982759,50.0224138 C16.7093534,50.0224138 16.3137931,49.6268534 16.3137931,49.137931 L16.3137931,44.2241379 C16.3137931,43.7352155 16.7093534,43.3396552 17.1982759,43.3396552 L22.112069,43.3396552 C22.6009914,43.3396552 22.9965517,43.7352155 22.9965517,44.2241379 L22.9965517,49.137931 C22.9965517,49.6268534 22.6009914,50.0224138 22.112069,50.0224138 L22.112069,50.0224138 Z" id="Fill-19" fill="#0062FF" mask="url(#mask-2)"></path>
                    <path d="M18.0827586,65.4517241 L21.2275862,65.4517241 L21.2275862,62.3093534 L18.0827586,62.3093534 L18.0827586,65.4517241 Z M22.112069,67.2206897 L17.1982759,67.2206897 C16.7093534,67.2206897 16.3137931,66.8251293 16.3137931,66.3362069 L16.3137931,61.4224138 C16.3137931,60.9334914 16.7093534,60.537931 17.1982759,60.537931 L22.112069,60.537931 C22.6009914,60.537931 22.9965517,60.9334914 22.9965517,61.4224138 L22.9965517,66.3362069 C22.9965517,66.8251293 22.6009914,67.2206897 22.112069,67.2206897 L22.112069,67.2206897 Z" id="Fill-20" fill="#0062FF" mask="url(#mask-2)"></path>
                    <path d="M57.3906466,31.0551724 L60.5354741,31.0551724 L60.5354741,27.9128017 L57.3906466,27.9128017 L57.3906466,31.0551724 Z M61.4199569,32.8241379 L56.5061638,32.8241379 C56.0172414,32.8241379 55.621681,32.4285776 55.621681,31.9396552 L55.621681,27.0258621 C55.621681,26.5369397 56.0172414,26.1413793 56.5061638,26.1413793 L61.4199569,26.1413793 C61.9088793,26.1413793 62.3044397,26.5369397 62.3044397,27.0258621 L62.3044397,31.9396552 C62.3044397,32.4285776 61.9088793,32.8241379 61.4199569,32.8241379 L61.4199569,32.8241379 Z" id="Fill-21" fill="#0062FF" mask="url(#mask-2)"></path>
                    <path d="M57.3906466,48.2534483 L60.5354741,48.2534483 L60.5354741,45.1110776 L57.3906466,45.1110776 L57.3906466,48.2534483 Z M61.4199569,50.0224138 L56.5061638,50.0224138 C56.0172414,50.0224138 55.621681,49.6268534 55.621681,49.137931 L55.621681,44.2241379 C55.621681,43.7352155 56.0172414,43.3396552 56.5061638,43.3396552 L61.4199569,43.3396552 C61.9088793,43.3396552 62.3044397,43.7352155 62.3044397,44.2241379 L62.3044397,49.137931 C62.3044397,49.6268534 61.9088793,50.0224138 61.4199569,50.0224138 L61.4199569,50.0224138 Z" id="Fill-22" fill="#0062FF" mask="url(#mask-2)"></path>
                    <path d="M57.3906466,65.4517241 L60.5354741,65.4517241 L60.5354741,62.3093534 L57.3906466,62.3093534 L57.3906466,65.4517241 Z M61.4199569,67.2206897 L56.5061638,67.2206897 C56.0172414,67.2206897 55.621681,66.8251293 55.621681,66.3362069 L55.621681,61.4224138 C55.621681,60.9334914 56.0172414,60.537931 56.5061638,60.537931 L61.4199569,60.537931 C61.9088793,60.537931 62.3044397,60.9334914 62.3044397,61.4224138 L62.3044397,66.3362069 C62.3044397,66.8251293 61.9088793,67.2206897 61.4199569,67.2206897 L61.4199569,67.2206897 Z" id="Fill-23" fill="#0062FF" mask="url(#mask-2)"></path>
                </g>
            </g>
            <g id="Group-11-Copy-5" transform="translate(121.517241, 0.793103)">
                <polygon id="Fill-1" fill="#FFFFFF" points="0 78.6206897 78.6206897 78.6206897 78.6206897 0 0 0"></polygon>
                <g id="Group-10" transform="translate(0.000000, 4.913793)">
                    <path d="M25.8885647,35.7618491 C24.335806,34.2090905 23.5569698,32.1772371 23.5470507,30.1429267 C23.5373147,28.0865043 24.3186078,26.0251681 25.8885647,24.4527543 C27.4462371,22.8975388 29.4879181,22.1162457 31.5271422,22.1113089 C33.5786509,22.1064181 35.6326164,22.8901681 37.1976595,24.4527543 L39.2909353,26.5484871 L41.3842112,24.4527543 C42.9467974,22.892625 44.9933922,22.1113089 47.0375302,22.1113089 C49.084125,22.1113089 51.1307198,22.892625 52.693306,24.4527543 C54.2927457,26.052194 55.0715819,28.1577543 55.0347284,30.2534871 C54.997875,32.250944 54.2190388,34.2385733 52.693306,35.7618491 L39.2909353,49.1642198 L25.8885647,35.7618491 Z" id="Fill-2" fill="#EBF4FF"></path>
                    <path d="M69.5476164,41.5824828 C66.2258922,55.6482155 53.7964526,65.4708879 39.3253319,65.4708879 C22.959944,65.4708879 9.5428319,52.7367931 8.38317672,36.6637759 L11.9702457,40.2533017 L13.220806,39.0002845 L8.00972845,33.7892069 C7.66576293,33.4427845 7.10559052,33.4427845 6.7591681,33.7892069 L1.54809052,39.0002845 L2.79865086,40.2533017 L6.60438362,36.4451121 C7.66084914,53.6016207 21.9108491,67.2398534 39.3253319,67.2398534 C54.6219698,67.2398534 67.7565388,56.8570086 71.2699009,41.9903276 L69.5476164,41.5824828 Z" id="Fill-4" fill="#0062FF"></path>
                    <path d="M75.8591379,28.5759181 L72.0534052,32.3816509 C70.9969397,15.2275991 56.7469397,1.58936638 39.3324569,1.58936638 C24.035819,1.58936638 10.8987931,11.9722112 7.38543103,26.8388922 L9.11017241,27.2467371 C12.4318966,13.1810043 24.8613362,3.3583319 39.3324569,3.3583319 C55.6978448,3.3583319 69.1149569,16.0899698 70.2746121,32.165444 L66.6850862,28.5759181 L65.4345259,29.8289353 L70.6480603,35.0400129 C70.8200431,35.2119957 71.0460776,35.2979871 71.2721121,35.2979871 C71.5006034,35.2979871 71.724181,35.2119957 71.8986207,35.0400129 L77.1096983,29.8289353 L75.8591379,28.5759181 Z" id="Fill-6" fill="#0062FF"></path>
                    <path d="M26.5148276,35.1090517 L39.2906897,47.8824569 L52.0690086,35.1065948 C53.3785345,33.797069 54.1156034,32.0575862 54.15,30.2050862 C54.1843966,28.2567672 53.4448707,26.4263793 52.0690086,25.0480603 C49.3787069,22.3626724 44.698319,22.3626724 42.0104741,25.0480603 L39.9171983,27.1437931 C39.5855172,27.4754741 38.998319,27.4754741 38.6666379,27.1437931 L36.5733621,25.0480603 C35.2269828,23.7041379 33.440819,22.967069 31.5367241,22.967069 L31.5293534,22.967069 C29.6350862,22.9695259 27.8538362,23.7090517 26.5148276,25.0480603 C25.1635345,26.3993534 24.4240086,28.1978017 24.4313247,30.1092672 C24.4412069,31.9961638 25.1807328,33.7700431 26.5148276,35.1090517 M39.2906897,50.0175 C39.0646552,50.0175 38.8386207,49.9315086 38.6666379,49.7595259 L25.2642672,36.3596121 C25.2642672,36.3596121 25.2618103,36.3596121 25.2618103,36.3571552 C23.5984914,34.6889224 22.6746983,32.4752586 22.6623362,30.1190948 C22.6525862,27.7285345 23.5763793,25.4853879 25.2618103,23.7975 C26.9349569,22.1268103 29.1609052,21.2030172 31.5268966,21.1956466 L31.5367241,21.1956466 C33.9125431,21.1956466 36.1434052,22.1194397 37.8239224,23.7975 L39.2906897,25.2667241 L40.7599138,23.7975 C42.4379741,22.1194397 44.6688362,21.1956466 47.0397414,21.1956466 C49.4081897,21.1956466 51.6390517,22.1194397 53.319569,23.7975 C55.0393966,25.5173276 55.9607328,27.8022414 55.9189655,30.2394828 C55.8771983,32.5489655 54.9534052,34.723319 53.319569,36.3596121 L39.9171983,49.7595259 C39.7427586,49.9315086 39.5167241,50.0175 39.2906897,50.0175" id="Fill-8" fill="#0062FF"></path>
                </g>
            </g>
            <g id="Group-19-Copy-7" transform="translate(0.965517, 0.793103)">
                <polygon id="Fill-1" fill="#FFFFFF" points="0 78.6206897 78.6206897 78.6206897 78.6206897 0 0 0"></polygon>
                <g id="Group-18">
                    <path d="M61.4224138,32.0524267 L17.1982759,32.0524267 C9.09051724,32.0524267 2.45689655,25.418806 2.45689655,17.3110474 C2.45689655,9.2008319 9.09051724,2.5696681 17.1982759,2.5696681 L61.4224138,2.5696681 C69.5301724,2.5696681 76.1637931,9.2008319 76.1637931,17.3110474 C76.1637931,25.418806 69.5301724,32.0524267 61.4224138,32.0524267" id="Fill-2" fill="#EBF4FF"></path>
                    <path d="M61.4224138,76.1637931 L17.1982759,76.1637931 C9.09051724,76.1637931 2.45689655,69.5301724 2.45689655,61.4224138 C2.45689655,53.3146552 9.09051724,46.6810345 17.1982759,46.6810345 L61.4224138,46.6810345 C69.5301724,46.6810345 76.1637931,53.3146552 76.1637931,61.4224138 C76.1637931,69.5301724 69.5301724,76.1637931 61.4224138,76.1637931" id="Fill-4" fill="#C1DFFF"></path>
                    <path d="M24.5689655,17.1982759 C24.5689655,21.2693534 21.2693534,24.5689655 17.1982759,24.5689655 C13.1271983,24.5689655 9.82758621,21.2693534 9.82758621,17.1982759 C9.82758621,13.1271983 13.1271983,9.82758621 17.1982759,9.82758621 C21.2693534,9.82758621 24.5689655,13.1271983 24.5689655,17.1982759" id="Fill-6" fill="#FFFFFF"></path>
                    <path d="M68.7931034,61.4224138 C68.7931034,65.4934914 65.4934914,68.7931034 61.4224138,68.7931034 C57.3513362,68.7931034 54.0517241,65.4934914 54.0517241,61.4224138 C54.0517241,57.3513362 57.3513362,54.0517241 61.4224138,54.0517241 C65.4934914,54.0517241 68.7931034,57.3513362 68.7931034,61.4224138" id="Fill-8" fill="#FFFFFF"></path>
                    <path d="M17.1982759,3.39739655 C9.55732759,3.39739655 3.34137931,9.61088793 3.34137931,17.2542931 C3.34137931,24.8952414 9.55732759,31.1087328 17.1982759,31.1087328 L61.4224138,31.1087328 C69.0633621,31.1087328 75.2793103,24.8952414 75.2793103,17.2542931 C75.2793103,9.61088793 69.0633621,3.39739655 61.4224138,3.39739655 L17.1982759,3.39739655 Z M61.4224138,32.8801552 L17.1982759,32.8801552 C8.58193966,32.8801552 1.57241379,25.8681724 1.57241379,17.2542931 C1.57241379,8.6379569 8.58193966,1.62597414 17.1982759,1.62597414 L61.4224138,1.62597414 C70.03875,1.62597414 77.0482759,8.6379569 77.0482759,17.2542931 C77.0482759,25.8681724 70.03875,32.8801552 61.4224138,32.8801552 L61.4224138,32.8801552 Z" id="Fill-10" fill="#0062FF"></path>
                    <path d="M17.1982759,47.5112198 C9.55732759,47.5112198 3.34137931,53.7247112 3.34137931,61.3681164 C3.34137931,69.0090647 9.55732759,75.222556 17.1982759,75.222556 L61.4224138,75.222556 C69.0633621,75.222556 75.2793103,69.0090647 75.2793103,61.3681164 C75.2793103,53.7247112 69.0633621,47.5112198 61.4224138,47.5112198 L17.1982759,47.5112198 Z M61.4224138,76.9939784 L17.1982759,76.9939784 C8.58193966,76.9939784 1.57241379,69.9819957 1.57241379,61.3681164 C1.57241379,52.7517802 8.58193966,45.7397974 17.1982759,45.7397974 L61.4224138,45.7397974 C70.03875,45.7397974 77.0482759,52.7517802 77.0482759,61.3681164 C77.0482759,69.9819957 70.03875,76.9939784 61.4224138,76.9939784 L61.4224138,76.9939784 Z" id="Fill-12" fill="#0062FF"></path>
                    <path d="M17.1982759,10.7680862 C13.6210345,10.7680862 10.712069,13.6770517 10.712069,17.2542931 C10.712069,20.8315345 13.6210345,23.7380431 17.1982759,23.7380431 C20.7755172,23.7380431 23.6844828,20.8315345 23.6844828,17.2542931 C23.6844828,13.6770517 20.7755172,10.7680862 17.1982759,10.7680862 M17.1982759,25.5094655 C12.6456466,25.5094655 8.94310345,21.8044655 8.94310345,17.2542931 C8.94310345,12.7016638 12.6456466,8.99666379 17.1982759,8.99666379 C21.7509052,8.99666379 25.4534483,12.7016638 25.4534483,17.2542931 C25.4534483,21.8044655 21.7509052,25.5094655 17.1982759,25.5094655" id="Fill-14" fill="#0062FF"></path>
                    <path d="M61.4224138,54.9922241 C57.8451724,54.9922241 54.9362069,57.9011897 54.9362069,61.478431 C54.9362069,65.0556724 57.8451724,67.962181 61.4224138,67.962181 C64.9996552,67.962181 67.9086207,65.0556724 67.9086207,61.478431 C67.9086207,57.9011897 64.9996552,54.9922241 61.4224138,54.9922241 M61.4224138,69.7336034 C56.8697845,69.7336034 53.1672414,66.0286034 53.1672414,61.478431 C53.1672414,56.9258017 56.8697845,53.2208017 61.4224138,53.2208017 C65.9750431,53.2208017 69.6775862,56.9258017 69.6775862,61.478431 C69.6775862,66.0286034 65.9750431,69.7336034 61.4224138,69.7336034" id="Fill-16" fill="#0062FF"></path>
                </g>
            </g>
        </g>
    </g>
</svg>