<svg xmlns="http://www.w3.org/2000/svg" xmlns:xlink="http://www.w3.org/1999/xlink" viewBox="0 0 32 32"><defs><linearGradient id="002_svg__a" x1="15" y1="7" x2="30" y2="7" gradientUnits="userSpaceOnUse"><stop offset=".4" stop-color="#fff"/><stop offset="1" stop-color="#fff" stop-opacity="0"/></linearGradient><linearGradient id="002_svg__b" x1="15" y1="25" x2="30" y2="25" xlink:href="#002_svg__a"/><linearGradient id="002_svg__c" x1="54" y1="7048" x2="69" y2="7048" gradientTransform="rotate(180 35.5 3532)" xlink:href="#002_svg__a"/><linearGradient id="002_svg__e" y1="32" x2="32" gradientUnits="userSpaceOnUse"><stop offset=".1" stop-color="#08bdba"/><stop offset=".9" stop-color="#0f62fe"/></linearGradient><mask id="002_svg__d" x="0" y="0" width="32" height="32" maskUnits="userSpaceOnUse"><path fill="url(#002_svg__a)" d="M15 6h15v2H15z"/><path fill="url(#002_svg__b)" d="M15 24h15v2H15z"/><path fill="url(#002_svg__c)" d="M2 15h15v2H2z"/></mask></defs><g data-name="Layer 2"><g data-name="Light theme icons"><g mask="url(#002_svg__d)"><path fill="url(#002_svg__e)" d="M0 0h32v32H0z"/></g><path d="M8 11a4 4 0 114-4 4 4 0 01-4 4zm0-6a2 2 0 102 2 2 2 0 00-2-2zM8 29a4 4 0 114-4 4 4 0 01-4 4zm0-6a2 2 0 102 2 2 2 0 00-2-2zM24 20a4 4 0 114-4 4 4 0 01-4 4zm0-6a2 2 0 102 2 2 2 0 00-2-2z" fill="#001d6c"/></g></g></svg>