<svg xmlns="http://www.w3.org/2000/svg" xmlns:xlink="http://www.w3.org/1999/xlink" viewBox="0 0 32 32"><defs><linearGradient id="6l7q1b0dva" x1="-66" y1="7485" x2="-58" y2="7485" gradientTransform="matrix(1 0 0 -1 67 7498)" gradientUnits="userSpaceOnUse"><stop offset="0" stop-opacity="0"/><stop offset=".8"/></linearGradient><linearGradient id="wc37skhj5b" x1="-152" y1="7426.5" x2="-144" y2="7426.5" gradientTransform="matrix(1 0 0 -1 170 7432)" xlink:href="#6l7q1b0dva"/><linearGradient id="pp2gao75qc" x1="-78.5" y1="7364" x2="-71.5" y2="7364" gradientTransform="matrix(1 0 0 -1 101.5 7386.5)" xlink:href="#6l7q1b0dva"/><linearGradient id="ikeskym4pe" y1="32" x2="32" gradientUnits="userSpaceOnUse"><stop offset=".1" stop-color="#42be65"/><stop offset=".9" stop-color="#007d79"/></linearGradient><mask id="k20od9tstd" x="0" y="0" width="32" height="32" maskUnits="userSpaceOnUse"><path d="M28 10h-2V8a2 2 0 0 0-2-2h-5V4h5a4 4 0 0 1 4 4zm-4 18h-6v-2h6a2 2 0 0 0 2-2v-4h2v4a4 4 0 0 1-4 4zM6 16H4V8a4 4 0 0 1 4-4h1v2H8a2 2 0 0 0-2 2z" fill="#fff"/><path transform="rotate(90 5 13)" fill="url(#6l7q1b0dva)" d="M1 11h8v4H1z"/><path transform="rotate(180 22 5.5)" fill="url(#wc37skhj5b)" d="M18 3h8v5h-8z"/><path transform="rotate(-90 26.5 22.5)" fill="url(#pp2gao75qc)" d="M23 20h7v5h-7z"/></mask></defs><g data-name="Layer 2"><g data-name="Light theme icons"><g mask="url(#k20od9tstd)"><path fill="url(#ikeskym4pe)" d="M0 0h32v32H0z"/></g><path d="M29 14v4h-4v-4h4m2-2h-8v8h8v-8zM15 9a4 4 0 1 1 4-4 4 4 0 0 1-4 4zm0-6a2 2 0 1 0 2 2 2 2 0 0 0-2-2zM5 25h6a3 3 0 0 1 3 3v2h-2v-2a1 1 0 0 0-1-1H5a1 1 0 0 0-1 1v2H2v-2a3 3 0 0 1 3-3zm7-5a4 4 0 1 1-4-4 4 4 0 0 1 4 4zm-6 0a2 2 0 1 0 2-2 2 2 0 0 0-2 2z" fill="#001d6c"/></g></g></svg>