<svg xmlns="http://www.w3.org/2000/svg" xmlns:xlink="http://www.w3.org/1999/xlink" viewBox="0 0 32 32"><defs><linearGradient id="017_svg__a" x1="85" y1="-27.5" x2="93" y2="-27.5" gradientTransform="translate(-80 47)" gradientUnits="userSpaceOnUse"><stop offset=".001" stop-opacity="0"/><stop offset=".7"/></linearGradient><linearGradient id="017_svg__b" x1="-918" y1="7007.5" x2="-910" y2="7007.5" gradientTransform="translate(937 -6988)" xlink:href="#017_svg__a"/><linearGradient id="017_svg__d" y1="32" x2="32" gradientUnits="userSpaceOnUse"><stop offset=".1" stop-color="#08bdba"/><stop offset=".9" stop-color="#0f62fe"/></linearGradient><mask id="017_svg__c" x="0" y="0" width="32" height="32" maskUnits="userSpaceOnUse"><path d="M24.8 9.136a8.994 8.994 0 00-17.6 0A6.5 6.5 0 008.5 22H12v-2H8.5a4.5 4.5 0 01-.356-8.981l.816-.064.1-.812a6.994 6.994 0 0113.884 0l.1.812.816.064A4.5 4.5 0 0123.5 20H20v2h3.5a6.5 6.5 0 001.3-12.864z" fill="#fff"/><path fill="url(#017_svg__a)" d="M5 16h8v7H5z" data-name="Gradients (black)"/><path transform="rotate(180 23 19.5)" fill="url(#017_svg__b)" d="M19 16h8v7h-8z" data-name="Gradients (black)"/></mask></defs><g data-name="Layer 2"><g data-name="Light theme icons"><g mask="url(#017_svg__c)"><path fill="url(#017_svg__d)" d="M0 0h32v32H0z"/></g><path d="M24 24h-7v-4h3v-8h-8v8h3v4H8a2 2 0 00-2 2v4h2v-4h7v4h2v-4h7v4h2v-4a2 2 0 00-2-2zM14 14h4v4h-4z" fill="#001d6c"/></g></g></svg>