<svg xmlns="http://www.w3.org/2000/svg" xmlns:xlink="http://www.w3.org/1999/xlink" viewBox="0 0 32 32"><defs><linearGradient id="k2ftek5yla" x1="85" y1="-27.5" x2="93" y2="-27.5" gradientTransform="translate(-80 47)" gradientUnits="userSpaceOnUse"><stop offset=".001" stop-opacity="0"/><stop offset=".7"/></linearGradient><linearGradient id="losw7czabb" x1="-618" y1="7007.5" x2="-610" y2="7007.5" gradientTransform="translate(637 -6988)" xlink:href="#k2ftek5yla"/><linearGradient id="c503rnijed" y1="32" x2="32" gradientUnits="userSpaceOnUse"><stop offset=".1" stop-color="#08bdba"/><stop offset=".9" stop-color="#0f62fe"/></linearGradient><mask id="8l0ibs12wc" x="0" y="0" width="32" height="32" maskUnits="userSpaceOnUse"><path d="M24.8 9.136a8.994 8.994 0 0 0-17.6 0A6.5 6.5 0 0 0 8.5 22H12v-2H8.5a4.5 4.5 0 0 1-.356-8.981l.816-.064.1-.812a6.994 6.994 0 0 1 13.884 0l.1.812.816.064A4.5 4.5 0 0 1 23.5 20H20v2h3.5a6.5 6.5 0 0 0 1.3-12.864z" fill="#fff"/><path fill="url(#k2ftek5yla)" d="M5 16h8v7H5z" data-name="Gradients (black)"/><path transform="rotate(180 23 19.5)" fill="url(#losw7czabb)" d="M19 16h8v7h-8z" data-name="Gradients (black)"/></mask></defs><g data-name="Layer 2"><g data-name="Light theme icons"><g mask="url(#8l0ibs12wc)"><path fill="url(#c503rnijed)" d="M0 0h32v32H0z"/></g><path fill="#001d6c" d="M17 26.17V14h-2v12.17l-2.59-2.58L11 25l5 5 5-5-1.41-1.41L17 26.17z"/></g></g></svg>