<svg xmlns="http://www.w3.org/2000/svg" viewBox="0 0 32 32"><defs><linearGradient id="5rm94li4ea" x1="16" y1="7" x2="25" y2="16" gradientTransform="rotate(45 20.5 11.5)" gradientUnits="userSpaceOnUse"><stop offset=".1" stop-color="#fff"/><stop offset=".9"/></linearGradient><linearGradient id="p3dg647vbc" y1="32" x2="32" gradientUnits="userSpaceOnUse"><stop offset=".1" stop-color="#08bdba"/><stop offset=".9" stop-color="#0f62fe"/></linearGradient><mask id="xwz4sibktb" x="0" y="0" width="32" height="32" maskUnits="userSpaceOnUse"><path transform="rotate(-45 20.5 11.5)" fill="url(#5rm94li4ea)" d="M19.5 5.136h2v12.728h-2z"/><path d="M26 2a16.019 16.019 0 0 0-16 16v2H3a1 1 0 0 0-.707 1.707l8 8A1 1 0 0 0 12 29v-7h2A16.019 16.019 0 0 0 30 6V2zM10 26.586 5.414 22H10zM28 6a14.015 14.015 0 0 1-14 14h-2v-2A14.015 14.015 0 0 1 26 4h2z" fill="#fff"/></mask></defs><g data-name="Layer 2"><g data-name="Light theme icons"><circle cx="24" cy="7" r="1" fill="#001d6c"/><g mask="url(#xwz4sibktb)"><path fill="url(#p3dg647vbc)" d="M0 0h32v32H0z"/></g></g></g></svg>