<svg xmlns="http://www.w3.org/2000/svg" viewBox="0 0 32 32"><defs><linearGradient id="io07mj4i0a" x1="35.846" y1="12.393" x2="9.155" y2="27.803" gradientUnits="userSpaceOnUse"><stop offset=".35"/><stop offset=".92" stop-opacity="0"/></linearGradient><linearGradient id="vnh9yw0lvb" x1="756.839" y1="98.054" x2="775.503" y2="94.231" gradientTransform="matrix(-.969 .246 -.339 -1.338 793.506 -41.227)" gradientUnits="userSpaceOnUse"><stop offset=".29"/><stop offset=".8" stop-opacity="0"/></linearGradient><linearGradient id="i9jxeisr4d" y1="32" x2="32" gradientUnits="userSpaceOnUse"><stop offset=".1" stop-color="#a56eff"/><stop offset=".9" stop-color="#0f62fe"/></linearGradient><mask id="bgb1x75vvc" x="0" y="0" width="32" height="32" maskUnits="userSpaceOnUse"><path d="M15.976 30a14 14 0 0 1-9.9-23.9 14.046 14.046 0 0 1 13.537-3.621L19.1 4.41A12 12 0 0 0 7.5 24.485a12 12 0 1 0 16.97-16.97L25.875 6.1a14 14 0 0 1-9.9 23.9zm6.364-7.636a9.01 9.01 0 0 0 0-12.728l-1.414 1.414a7 7 0 1 1-3.137-1.812l.516-1.933a9.032 9.032 0 0 0-8.693 2.331A9 9 0 0 0 22.34 22.364z" fill="#fff"/><path fill="url(#io07mj4i0a)" d="M23 8V4h8v27H11v-5h10l5-7v-7l-3-4z"/><path fill="url(#vnh9yw0lvb)" d="M21 26H11v-6h9V8h3l3 4v7l-5 7z"/></mask></defs><g data-name="Layer 2"><g data-name="Light theme icons"><g mask="url(#bgb1x75vvc)"><path fill="url(#i9jxeisr4d)" d="M0 0h32v32H0z"/></g><path d="m26.707 6.707-1.414-1.414-8.007 8.007A2.969 2.969 0 0 0 16 13a3.029 3.029 0 1 0 2.7 1.714zM16 17a1 1 0 1 1 1-1 1 1 0 0 1-1 1z" fill="#001d6c"/></g></g></svg>