<svg xmlns="http://www.w3.org/2000/svg" xmlns:xlink="http://www.w3.org/1999/xlink" viewBox="0 0 32 32"><defs><linearGradient id="zb76f39ara" x1="13" y1="7.5" x2="26" y2="7.5" gradientUnits="userSpaceOnUse"><stop offset=".4"/><stop offset="1" stop-opacity="0"/></linearGradient><linearGradient id="17fs1mvf8b" x1="-3754.5" y1="3561" x2="-3741.5" y2="3561" gradientTransform="translate(3772.5 -3541.5)" xlink:href="#zb76f39ara"/><linearGradient id="v3jjpco6mc" x1="-201" y1="7339.5" x2="-188" y2="7339.5" gradientTransform="translate(207 -7315)" xlink:href="#zb76f39ara"/><linearGradient id="qzzcuulx8d" x1="3577.5" y1="3795" x2="3590.5" y2="3795" gradientTransform="translate(-3576.5 -3782.5)" xlink:href="#zb76f39ara"/><linearGradient id="qe6k9rscif" y1="32" x2="32" gradientUnits="userSpaceOnUse"><stop offset=".1" stop-color="#ee5396"/><stop offset=".9" stop-color="#8a3ffc"/></linearGradient><mask id="txf4myto9e" x="0" y="0" width="32" height="32" maskUnits="userSpaceOnUse"><path d="M0 0h32v32H0z"/><path d="M16 3a13 13 0 1 0 13 13A13.015 13.015 0 0 0 16 3zm0 24a11 11 0 1 1 11-11 11.013 11.013 0 0 1-11 11z" fill="#fff"/><path fill="url(#zb76f39ara)" d="M13 2h13v11H13z"/><path transform="rotate(90 24.5 19.5)" fill="url(#17fs1mvf8b)" d="M18 14h13v11H18z"/><path transform="rotate(180 12.5 24.5)" fill="url(#v3jjpco6mc)" d="M6 19h13v11H6z"/><path transform="rotate(-90 7.5 12.5)" fill="url(#qzzcuulx8d)" d="M1 7h13v11H1z"/></mask></defs><g data-name="Layer 2"><g data-name="Light theme icons"><g mask="url(#txf4myto9e)"><path fill="url(#qe6k9rscif)" d="M0 0h32v32H0z"/></g><path d="M17 6h-2V2h2zm0 20h-2v4h2zm13-9v-2h-4v2zM6 17v-2H2v2zm10 1a2 2 0 0 0 2-2 2 2 0 0 0-2-2 2 2 0 0 0-2 2 2 2 0 0 0 2 2z" fill="#001d6c"/></g></g></svg>