<svg xmlns="http://www.w3.org/2000/svg" xmlns:xlink="http://www.w3.org/1999/xlink" viewBox="0 0 32 32">
  <defs>
    <linearGradient id="be501a60-187a-4aff-966d-495cdf533e31" x1="5551" y1="1015.5" x2="5558" y2="1015.5" gradientTransform="translate(-5547 -999)" gradientUnits="userSpaceOnUse">
      <stop offset="0.2"/>
      <stop offset="0.99" stop-opacity="0"/>
    </linearGradient>
    <linearGradient id="f87c5521-483e-4d47-a95d-43616b55b50c" x1="21" y1="15.5" x2="28" y2="15.5" gradientTransform="matrix(1, 0, 0, 1, 0, 0)" xlink:href="#be501a60-187a-4aff-966d-495cdf533e31"/>
    <mask id="a24c8ce9-afc5-4ce0-a79a-326b920e90ea" x="0" y="0" width="32" height="32" maskUnits="userSpaceOnUse">
      <g>
        <g>
          <path d="M26,22a4,4,0,0,0-3.858,3H8a4,4,0,0,1,0-8h2V15H8A6,6,0,0,0,8,27H22.142A3.993,3.993,0,1,0,26,22Zm0,6a2,2,0,1,1,2-2A2,2,0,0,1,26,28Z" fill="#fff"/>
          <path d="M6,10A4,4,0,0,0,9.858,7H24a4,4,0,0,1,0,8H22v2h2A6,6,0,0,0,24,5H9.858A3.993,3.993,0,1,0,6,10ZM6,4A2,2,0,1,1,4,6,2,2,0,0,1,6,4Z" fill="#fff"/>
        </g>
        <rect x="4" y="12" width="7" height="9" transform="translate(15 33) rotate(180)" fill="url(#be501a60-187a-4aff-966d-495cdf533e31)"/>
        <rect x="21" y="11" width="7" height="9" fill="url(#f87c5521-483e-4d47-a95d-43616b55b50c)"/>
      </g>
    </mask>
    <linearGradient id="ae8782a8-423e-4425-b2d4-a58e8d223532" y1="32" x2="32" gradientUnits="userSpaceOnUse">
      <stop offset="0.1" stop-color="#08bdba"/>
      <stop offset="0.9" stop-color="#0f62fe"/>
    </linearGradient>
  </defs>
  <g id="e3cc9904-287b-4d0a-a2fe-44bff04735fc" data-name="Layer 2">
    <g id="ae02d1fb-7f2a-4aa0-ade7-2fadfffe469c" data-name="Light theme icons">
      <g>
        <g mask="url(#a24c8ce9-afc5-4ce0-a79a-326b920e90ea)">
          <rect width="32" height="32" fill="url(#ae8782a8-423e-4425-b2d4-a58e8d223532)"/>
        </g>
        <rect x="10" y="13" width="2" height="6" fill="#001d6c"/>
        <rect x="15" y="8" width="2" height="6" transform="translate(27 -5) rotate(90)" fill="#001d6c"/>
        <rect x="15" y="18" width="2" height="6" transform="translate(37 5) rotate(90)" fill="#001d6c"/>
        <rect x="20" y="13" width="2" height="6" fill="#001d6c"/>
      </g>
    </g>
  </g>
</svg>
