<svg xmlns="http://www.w3.org/2000/svg" viewBox="0 0 32 32"><defs><linearGradient id="a32qi6u3ta" x1="2107" y1="26" x2="2107" y2="21" gradientTransform="matrix(1 0 0 -1 -2092 47)" gradientUnits="userSpaceOnUse"><stop offset="0" stop-opacity="0"/><stop offset=".7"/></linearGradient><linearGradient id="05faen7oic" y1="32" x2="32" gradientUnits="userSpaceOnUse"><stop offset=".1" stop-color="#a56eff"/><stop offset=".9" stop-color="#0f62fe"/></linearGradient><mask id="5aioa7kvgb" x="0" y="0" width="32" height="32" maskUnits="userSpaceOnUse"><path d="M18 8a3.979 3.979 0 0 0-3 1.382 3.982 3.982 0 0 0-2.09-1.268A5 5 0 0 0 8 4v2a3 3 0 0 1 2.872 2.182A3.981 3.981 0 0 0 9 9.382a3.987 3.987 0 1 0-3.42 6.576 3.956 3.956 0 0 0 3 6A3.953 3.953 0 0 0 8 24a4 4 0 1 0 4.42-3.957 3.886 3.886 0 0 0 0-4.085 3.974 3.974 0 0 0 2.58-1.34A3.992 3.992 0 1 0 18 8zM4 12a2 2 0 1 1 2 2 2 2 0 0 1-2-2zm3 6a2 2 0 1 1 2 2 2 2 0 0 1-2-2zm7 6a2 2 0 1 1-2-2 2 2 0 0 1 2 2zm-2-10a2 2 0 1 1 2-2 2 2 0 0 1-2 2zm6 0a2 2 0 1 1 2-2 2 2 0 0 1-2 2zM16 3.014v-1h-1A1.991 1.991 0 0 0 13.009 4v1h1A1.991 1.991 0 0 0 16 3.014zM15 4h.01s0 .013-.01.014z" fill="#fff"/><path transform="rotate(-180 15 23.5)" fill="url(#a32qi6u3ta)" d="M12 21h6v5h-6z"/><path d="M15 14a4 4 0 0 0-4 4v4h4a4 4 0 0 0 0-8zm0 6a2 2 0 1 1 2-2 2 2 0 0 1-2 2z" fill="#fff"/></mask></defs><g data-name="Layer 2"><g data-name="Light theme icons"><g mask="url(#5aioa7kvgb)"><path fill="url(#05faen7oic)" d="M0 0h32v32H0z"/></g><path fill="#001d6c" d="M20 26h2v4h-2zm4-2h2v6h-2zm4-3h2v9h-2z"/></g></g></svg>