<svg xmlns="http://www.w3.org/2000/svg" xmlns:xlink="http://www.w3.org/1999/xlink" viewBox="0 0 32 32"><defs><linearGradient id="056_svg__a" x1="10.984" y1="13.241" x2="17.016" y2="9.759" gradientTransform="rotate(26.565 14 11.5)" gradientUnits="userSpaceOnUse"><stop offset=".07" stop-opacity="0"/><stop offset=".7"/></linearGradient><linearGradient id="056_svg__b" x1="9.984" y1="5.241" x2="16.016" y2="1.759" gradientTransform="rotate(26.565 13 3.5)" xlink:href="#056_svg__a"/><linearGradient id="056_svg__d" y1="32" x2="32" gradientUnits="userSpaceOnUse"><stop offset=".1" stop-color="#a56eff"/><stop offset=".9" stop-color="#0f62fe"/></linearGradient><mask id="056_svg__c" x="0" y="0" width="32" height="32" maskUnits="userSpaceOnUse"><path d="M16.5 20.907L12 18.31v-4.62l4.388-2.533-1-1.732L11 11.958l-3-1.732V6.762l7.5-4.33L14.5.7l-8 4.62a1 1 0 00-.5.866v4.042l-3.5 2.02a1 1 0 00-.5.866v5.774a1 1 0 00.5.866L6 21.773v4.042a1 1 0 00.5.866l6 3.464a1 1 0 001 0l3-1.732a1 1 0 00.5-.866v-5.774a1 1 0 00-.5-.866zM4 18.31v-4.62l3-1.732 3 1.733v4.618l-3 1.733zm11 8.66l-2 1.154-5-2.886v-3.464l3-1.732 4 2.309z" fill="#fff"/><path transform="rotate(-26.565 14 11.5)" fill="url(#056_svg__a)" d="M10.646 9.264h6.708v4.472h-6.708z"/><path transform="rotate(-26.565 13 3.5)" fill="url(#056_svg__b)" d="M9.646 1.264h6.708v4.472H9.646z"/></mask></defs><g data-name="Layer 2"><g data-name="Light theme icons"><g mask="url(#056_svg__c)"><path fill="url(#056_svg__d)" d="M0 0h32v32H0z"/></g><path d="M29.5 12.247l-3.5-2.02V6.185a1 1 0 00-.5-.866l-6-3.465a1 1 0 00-1 0l-3 1.733a1 1 0 00-.5.866v5.774a1 1 0 00.5.866l4.5 2.6v4.62l-2 1.154 1 1.733 2-1.154 3 1.732v3.464l-5.5 3.175 1 1.732 6-3.464a1 1 0 00.5-.866v-4.046l3.5-2.02a1 1 0 00.5-.866v-5.774a1 1 0 00-.5-.866zM17 9.649V5.03l2-1.155 5 2.887v3.464l-3 1.732zm11 8.661l-3 1.732-3-1.733v-4.618l3-1.733 3 1.732z" fill="#001d6c"/></g></g></svg>