<svg xmlns="http://www.w3.org/2000/svg" viewBox="0 0 32 32"><defs><linearGradient id="pdgcjzyv2a" x1="5" y1="16" x2="16" y2="27" gradientTransform="rotate(45 10.5 21.5)" gradientUnits="userSpaceOnUse"><stop offset="0" stop-color="#161616" stop-opacity=".3"/><stop offset="1" stop-color="#161616" stop-opacity=".05"/></linearGradient><linearGradient id="du7s03jaeb" x1="16" y1="5" x2="27" y2="16" gradientTransform="rotate(45 21.5 10.5)" gradientUnits="userSpaceOnUse"><stop offset="0" stop-color="#161616" stop-opacity=".05"/><stop offset="1" stop-color="#161616" stop-opacity=".3"/></linearGradient><linearGradient id="ysemaxixac" x1="16" y1="30" x2="16" y2="2" gradientUnits="userSpaceOnUse"><stop offset="0" stop-color="#43d1cf"/><stop offset="1" stop-color="#418bff"/></linearGradient></defs><g data-name="Layer 2"><g data-name="Light theme icons"><path fill="none" d="M32 32H0V0h32z"/><path transform="rotate(-45 10.5 21.5)" fill="url(#pdgcjzyv2a)" d="M7.5 13.722h5.999v15.556H7.5z"/><path transform="rotate(-45 21.5 10.5)" fill="url(#du7s03jaeb)" d="M18.5 2.722h5.999v15.556H18.5z"/><path d="M16 30a3 3 0 0 1-3-3V5a3 3 0 0 1 6 0v22a3 3 0 0 1-3 3z" fill="url(#ysemaxixac)"/><circle cx="16" cy="5" r="3" fill="#001d6c"/><circle cx="16" cy="27" r="3" fill="#001d6c"/><circle cx="5" cy="16" r="3" fill="#001d6c"/><circle cx="27" cy="16" r="3" fill="#001d6c"/></g></g></svg>