<svg xmlns="http://www.w3.org/2000/svg" viewBox="0 0 32 32"><defs><linearGradient id="b2gua6525a" x1="7" y1="27" x2="25" y2="27" gradientUnits="userSpaceOnUse"><stop offset="0" stop-color="#161616" stop-opacity=".05"/><stop offset="1" stop-color="#161616" stop-opacity=".3"/></linearGradient><linearGradient id="v193f821ab" x1="2" y1="14" x2="16" y2="14" gradientUnits="userSpaceOnUse"><stop offset="0" stop-color="#161616" stop-opacity=".3"/><stop offset="1" stop-color="#161616" stop-opacity=".05"/></linearGradient><linearGradient id="lxtr4f3dlc" x1="7" y1="11" x2="25" y2="11" gradientUnits="userSpaceOnUse"><stop offset=".1" stop-color="#418bff"/><stop offset=".9" stop-color="#43d1cf"/></linearGradient></defs><g data-name="Layer 2"><g data-name="Light theme icons"><path fill="url(#b2gua6525a)" d="M7 24h18v6H7z"/><path d="M8 8a6 6 0 0 0 0 12h8V8z" fill="url(#v193f821ab)"/><circle cx="16" cy="11" r="9" fill="url(#lxtr4f3dlc)"/><path d="M25 10h-9a5 5 0 0 0 0 10h9a5 5 0 0 0 0-10z" fill="#001d6c"/><circle cx="7" cy="27" r="3" fill="#001d6c"/><circle cx="25" cy="27" r="3" fill="#001d6c"/><path fill="none" d="M0 0h32v32H0z"/></g></g></svg>