<svg xmlns="http://www.w3.org/2000/svg" viewBox="0 0 32 32"><defs><linearGradient id="6oqmc94z7a" x1="26" y1="26" x2="26" y2="4" gradientUnits="userSpaceOnUse"><stop offset=".5" stop-opacity="0"/><stop offset=".9"/></linearGradient><linearGradient id="my2trvjesc" y1="32" x2="32" gradientUnits="userSpaceOnUse"><stop offset=".1" stop-color="#ee5396"/><stop offset=".9" stop-color="#8a3ffc"/></linearGradient><mask id="tc9gspp2fb" x="0" y="0" width="32" height="32" maskUnits="userSpaceOnUse"><path d="M25 5v23H7V7h3v3h12V4a2 2 0 0 0-2-2h-8a2 2 0 0 0-2 2v1H7a2 2 0 0 0-2 2v21a2 2 0 0 0 2 2h18a2 2 0 0 0 2-2V5zM12 4h8v4h-8z" fill="#fff"/><path fill="url(#6oqmc94z7a)" d="M24 4h4v22h-4z"/></mask></defs><g data-name="Layer 2"><g data-name="Light theme icons"><g mask="url(#tc9gspp2fb)"><path fill="url(#my2trvjesc)" d="M0 0h32v32H0z"/></g><path fill="#001d6c" d="M10 18h12v2H10zm0 5h8v2h-8zm0-10h12v2H10z"/></g></g></svg>