<svg xmlns="http://www.w3.org/2000/svg" xmlns:xlink="http://www.w3.org/1999/xlink" viewBox="0 0 32 32"><defs><style>.cls-1{fill:#fff;}.cls-2{fill:url(#linear-gradient);}.cls-3{fill:url(#linear-gradient-2);}.cls-4{mask:url(#mask);}.cls-5{fill:url(#linear-gradient-3);}.cls-6{fill:#001d6c;}</style><linearGradient id="linear-gradient" x1="654" y1="7241.51" x2="664" y2="7241.51" gradientTransform="translate(-644 -7236.01)" gradientUnits="userSpaceOnUse"><stop offset="0" stop-opacity="0"/><stop offset="0.9"/></linearGradient><linearGradient id="linear-gradient-2" x1="-1144" y1="6635.5" x2="-1134" y2="6635.5" gradientTransform="translate(1154 -6610)" xlink:href="#linear-gradient"/><mask id="mask" x="0" y="0" width="32" height="32" maskUnits="userSpaceOnUse"><path class="cls-1" d="M5,25V15.828L1.414,19.414,0,18l6-6,6,6-1.414,1.414L7,15.828V25H19v2H7A2,2,0,0,1,5,25Z"/><path class="cls-1" d="M30.586,11.586,27,15.172V6a2,2,0,0,0-2-2H11V6H25v9.172l-3.586-3.586L20,13l6,6,6-6Z"/><rect class="cls-2" x="10" y="3" width="10" height="5" transform="translate(30 11) rotate(180)"/><rect class="cls-3" x="10" y="23" width="10" height="5"/></mask><linearGradient id="linear-gradient-3" x2="32" y2="32" gradientUnits="userSpaceOnUse"><stop offset="0.1" stop-color="#42be65"/><stop offset="0.9" stop-color="#007d79"/></linearGradient></defs><g id="Layer_2" data-name="Layer 2"><g id="Light_theme_icons" data-name="Light theme icons"><g class="cls-4"><rect class="cls-5" width="32" height="32"/></g><path class="cls-6" d="M24,22h4a2,2,0,0,1,2,2v4a2,2,0,0,1-2,2H24a2,2,0,0,1-2-2V24A2,2,0,0,1,24,22Zm4,6V24H24v4Z"/><rect class="cls-6" x="2" y="2" width="8" height="2"/><rect class="cls-6" x="2" y="6" width="5" height="2"/></g></g></svg>