<svg xmlns="http://www.w3.org/2000/svg" viewBox="0 0 32 32"><defs><linearGradient id="ie991edsla" x1="122.734" y1="242.074" x2="122.734" y2="222.074" gradientTransform="matrix(1 0 0 1.136 -106.699 -247.763)" gradientUnits="userSpaceOnUse"><stop offset=".08"/><stop offset=".6" stop-opacity="0"/></linearGradient><linearGradient id="fdbhdwtxvc" y1="32" x2="32" gradientUnits="userSpaceOnUse"><stop offset=".1" stop-color="#08bdba"/><stop offset=".9" stop-color="#0f62fe"/></linearGradient><mask id="0i7vuuovkb" x="0" y="0" width="32" height="32" maskUnits="userSpaceOnUse"><path d="M26 2a4 4 0 0 0-4 4 3.947 3.947 0 0 0 .567 2.019L7.293 23.293l1.414 1.414L23.981 9.433A3.947 3.947 0 0 0 26 10a4 4 0 0 0 0-8zm0 6a2 2 0 1 1 2-2 2 2 0 0 1-2 2z" fill="#fff"/><path transform="rotate(45 16.035 15.964)" fill="url(#ie991edsla)" d="M11.036 4.601h10v22.728h-10z"/><path d="M6 30a4 4 0 1 1 4-4 4 4 0 0 1-4 4zm0-6a2 2 0 1 0 2 2 2 2 0 0 0-2-2z" fill="#fff"/></mask></defs><g data-name="Layer 2"><g data-name="Light theme icons"><g mask="url(#0i7vuuovkb)"><path fill="url(#fdbhdwtxvc)" d="M0 0h32v32H0z"/></g><path d="M26 22a4 4 0 0 0-3.858 3H13v2h9.142A3.993 3.993 0 1 0 26 22zm0 6a2 2 0 1 1 2-2 2 2 0 0 1-2 2zM19 7V5H9.858a4 4 0 1 0 0 2zM6 8a2 2 0 1 1 2-2 2 2 0 0 1-2 2z" fill="#001d6c"/></g></g></svg>