<svg xmlns="http://www.w3.org/2000/svg" viewBox="0 0 32 32"><defs><linearGradient id="111_svg__a" x1="-144.903" y1="-24.5" x2="-134.903" y2="-24.5" gradientTransform="translate(153.903 49.5)" gradientUnits="userSpaceOnUse"><stop offset=".001" stop-opacity="0"/><stop offset=".83"/></linearGradient><linearGradient id="111_svg__c" y1="32" x2="32" gradientUnits="userSpaceOnUse"><stop offset=".1" stop-color="#08bdba"/><stop offset=".9" stop-color="#0f62fe"/></linearGradient><mask id="111_svg__b" x="0" y="0" width="32" height="32" maskUnits="userSpaceOnUse"><path d="M8 22v-3H6v3a4.01 4.01 0 004.005 4H18v-2h-7.995A2.007 2.007 0 018 22z" fill="#fff"/><path fill="url(#111_svg__a)" d="M9 23h10v4H9z" data-name="Gradients (black)"/><path d="M30 12a4 4 0 00-4-4h-2v2h2a2 2 0 012 2v10a2.007 2.007 0 01-2 2h-5.577l-3.465 6 1.732 1 2.887-5H26a4.01 4.01 0 004-4z" fill="#fff"/></mask></defs><g data-name="Layer 2"><g data-name="Light theme icons"><g mask="url(#111_svg__b)"><path fill="url(#111_svg__c)" d="M0 0h32v32H0z"/></g><path d="M20 8a1 1 0 001-1V3a1 1 0 00-1-1H3a1 1 0 00-1 1v4a1 1 0 001 1 1 1 0 010 2 1 1 0 00-1 1v4a1 1 0 001 1h17a1 1 0 001-1v-4a1 1 0 00-1-1 1 1 0 010-2zm-1-1.829a3 3 0 000 5.658V14h-5v-2h-2v2H4v-2.171a3 3 0 000-5.658V4h8v2h2V4h5z" fill="#001d6c"/><path fill="#001d6c" d="M12 8h2v2h-2z"/></g></g></svg>