<svg xmlns="http://www.w3.org/2000/svg" viewBox="0 0 32 32"><defs><linearGradient id="121_svg__a" x1="26.911" y1="29.124" x2="22.089" y2="15.876" gradientUnits="userSpaceOnUse"><stop offset=".49"/><stop offset=".9" stop-opacity="0"/></linearGradient><linearGradient id="121_svg__c" y1="32" x2="32" gradientUnits="userSpaceOnUse"><stop offset=".1" stop-color="#ee5396"/><stop offset=".9" stop-color="#8a3ffc"/></linearGradient><mask id="121_svg__b" x="0" y="0" width="32" height="32" maskUnits="userSpaceOnUse"><path d="M16 2a14 14 0 1014 14A14.015 14.015 0 0016 2zm11.949 13H17V4.051A12.006 12.006 0 0127.949 15zM15 27.949a11.916 11.916 0 01-6.287-2.437A16.266 16.266 0 0011.96 17H15zM11.96 15a16.266 16.266 0 00-3.247-8.512A11.916 11.916 0 0115 4.051V15zM7.221 7.846A14.407 14.407 0 019.959 15H4.051a11.941 11.941 0 013.17-7.154zM4.051 17h5.908a14.407 14.407 0 01-2.738 7.154A11.941 11.941 0 014.051 17zM17 27.949V17h10.949A12.006 12.006 0 0117 27.949z" fill="#fff"/><path d="M17 17h15v15H17z"/><path d="M24.293 26.707A16.21 16.21 0 0120 16a16.21 16.21 0 014.293-10.707l1.414 1.414L25 6l.709.706A14.413 14.413 0 0022 16a14.413 14.413 0 003.709 9.294z" fill="#fff"/><path fill="url(#121_svg__a)" d="M19 17h11v11H19z"/></mask></defs><g data-name="Layer 2"><g data-name="Light theme icons"><g mask="url(#121_svg__b)"><path fill="url(#121_svg__c)" d="M0 0h32v32H0z"/></g><path fill="#001d6c" d="M24 26h2v4h-2zM20 24h2v6h-2zM28 21h2v9h-2z"/></g></g></svg>