<svg xmlns="http://www.w3.org/2000/svg" xmlns:xlink="http://www.w3.org/1999/xlink" viewBox="0 0 32 32"><defs><linearGradient id="fcbeoc0soa" x1="9" y1="22" x2="13" y2="18" gradientTransform="rotate(45 11 20)" gradientUnits="userSpaceOnUse"><stop offset="0"/><stop offset=".8" stop-color="#fff"/></linearGradient><linearGradient id="liq4np7chb" x1="1" y1="24" x2="10" y2="15" gradientTransform="rotate(45 5.5 19.5)" xlink:href="#fcbeoc0soa"/><linearGradient id="xihudsuvgd" y1="32" x2="32" gradientUnits="userSpaceOnUse"><stop offset=".1" stop-color="#42be65"/><stop offset=".9" stop-color="#007d79"/></linearGradient><mask id="e8dtoguaoc" x="0" y="0" width="32" height="32" maskUnits="userSpaceOnUse"><path d="M17 2a9 9 0 1 0 9 9 9.011 9.011 0 0 0-9-9zm6.906 7.906a7.007 7.007 0 0 1-5.812-5.812 7.007 7.007 0 0 1 5.812 5.812zm-13.812 2.188a7.007 7.007 0 0 1 5.812 5.812 7.007 7.007 0 0 1-5.812-5.812zm7.836 5.837a9.009 9.009 0 0 0-7.861-7.861 7.005 7.005 0 0 1 6-6 9.009 9.009 0 0 0 7.861 7.861 7.005 7.005 0 0 1-6 6z" fill="#fff"/><path transform="rotate(-45 11 20)" fill="url(#fcbeoc0soa)" d="M8.172 19h5.657v2H8.172z"/><path transform="rotate(-45 5.5 19.5)" fill="url(#liq4np7chb)" d="M-.864 18.5h12.728v2H-.864z"/></mask></defs><g data-name="Layer 2"><g data-name="Light theme icons"><g mask="url(#e8dtoguaoc)"><path fill="url(#xihudsuvgd)" d="M0 0h32v32H0z"/></g><path fill="#001d6c" d="M21.999 26h2v4h-2zm-4-2h2v6h-2zm8-3h2v9h-2z"/></g></g></svg>