<svg xmlns="http://www.w3.org/2000/svg" xmlns:xlink="http://www.w3.org/1999/xlink" viewBox="0 0 32 32"><defs><linearGradient id="124_svg__a" x1="11" y1="23" x2="11" y2="10" gradientUnits="userSpaceOnUse"><stop offset=".4" stop-color="#fff"/><stop offset="1" stop-color="#fff" stop-opacity="0"/></linearGradient><linearGradient id="124_svg__b" x1="5845" y1="-576" x2="5845" y2="-589" gradientTransform="translate(-5824 598)" xlink:href="#124_svg__a"/><linearGradient id="124_svg__d" y1="32" x2="32" gradientUnits="userSpaceOnUse"><stop offset=".1" stop-color="#42be65"/><stop offset=".9" stop-color="#007d79"/></linearGradient><mask id="124_svg__c" x="0" y="0" width="32" height="32" maskUnits="userSpaceOnUse"><path d="M26 22H6a2 2 0 00-2 2v4a2 2 0 002 2h20a2 2 0 002-2v-4a2 2 0 00-2-2zm0 6H6v-4h20zM26 2H6a2 2 0 00-2 2v4a2 2 0 002 2h20a2 2 0 002-2V4a2 2 0 00-2-2zm0 6H6V4h20z" fill="#fff"/><path fill="url(#124_svg__a)" d="M10 10h2v13h-2z"/><path transform="rotate(180 21 15.5)" fill="url(#124_svg__b)" d="M20 9h2v13h-2z"/></mask></defs><g data-name="Layer 2"><g data-name="Light theme icons"><circle cx="23" cy="26" r="1" fill="#001d6c"/><circle cx="9" cy="6" r="1" fill="#001d6c"/><g mask="url(#124_svg__c)"><path fill="url(#124_svg__d)" d="M0 0h32v32H0z"/></g></g></g></svg>