<svg xmlns="http://www.w3.org/2000/svg" viewBox="0 0 32 32"><defs><linearGradient id="wf7l9dn8ea" x1="-1152.125" y1="-812.184" x2="-1141.045" y2="-805.787" gradientTransform="translate(1159.585 827.485)" gradientUnits="userSpaceOnUse"><stop offset=".35"/><stop offset=".68" stop-opacity="0"/></linearGradient><linearGradient id="qej56gzfkb" x1="-642.5" y1="1076.5" x2="-637.5" y2="1076.5" gradientTransform="rotate(-90 -843.5 216)" gradientUnits="userSpaceOnUse"><stop offset="0"/><stop offset=".8" stop-opacity="0"/></linearGradient><linearGradient id="yknzxcp9gd" y1="32" x2="32" gradientUnits="userSpaceOnUse"><stop offset=".1" stop-color="#08bdba"/><stop offset=".9" stop-color="#0f62fe"/></linearGradient><mask id="i6s0a2afpc" x="0" y="0" width="32" height="32" maskUnits="userSpaceOnUse"><path d="M12.5 23h-7a1 1 0 0 1-.864-.5l-3.5-6a1 1 0 0 1 0-1.008l3.5-6A1 1 0 0 1 5.5 9h7a1 1 0 0 1 .864.5l1.721 2.951-1.727 1.008L11.926 11H6.074l-2.916 5 2.916 5h5.852l3.21-5.5 1.728 1-3.5 6a1 1 0 0 1-.864.5z" fill="#fff"/><path transform="rotate(90 13 18.5)" fill="url(#wf7l9dn8ea)" d="M8.5 13.5h9v10h-9z"/><path d="M25 15h-4.11A6.977 6.977 0 0 0 23 10V8h-2v2a5.006 5.006 0 0 1-5 5H9v2h7a5.006 5.006 0 0 1 5 5v2h2v-2a6.977 6.977 0 0 0-2.11-5H25z" fill="#fff"/><path fill="url(#qej56gzfkb)" d="M26 10v5H8v-1h9v-4h9z"/></mask></defs><g data-name="Layer 2"><g data-name="Light theme icons"><g mask="url(#i6s0a2afpc)"><path fill="url(#yknzxcp9gd)" d="M0 0h32v32H0z"/></g><circle cx="29" cy="16" r="2" fill="#001d6c"/><circle cx="22" cy="4" r="2" fill="#001d6c"/><circle cx="22" cy="28" r="2" fill="#001d6c"/></g></g></svg>