<svg xmlns="http://www.w3.org/2000/svg" xmlns:xlink="http://www.w3.org/1999/xlink" viewBox="0 0 32 32">
  <defs>
    <linearGradient id="bea16536-cbba-4579-be78-6d8076d2f896" x1="-683.5" y1="6895.5" x2="-663.5" y2="6895.5" gradientTransform="translate(689.5 -6883.5)" gradientUnits="userSpaceOnUse">
      <stop offset="0" stop-opacity="0"/>
      <stop offset="0.4"/>
      <stop offset="0.6"/>
      <stop offset="1" stop-opacity="0"/>
    </linearGradient>
    <mask id="b1923414-42f2-4b9f-aeff-35b76956688d" x="0" y="0" width="32" height="32" maskUnits="userSpaceOnUse">
      <g>
        <path d="M5,13H27a2,2,0,0,0,2-2V5a2,2,0,0,0-2-2H5A2,2,0,0,0,3,5v6A2,2,0,0,0,5,13ZM5,5H27v6H5Z" fill="#fff"/>
        <rect x="6" y="10" width="20" height="4" fill="url(#bea16536-cbba-4579-be78-6d8076d2f896)"/>
      </g>
    </mask>
    <linearGradient id="a6427026-fb95-4a80-8512-e31d3e3501f6" x1="1082" y1="-1004" x2="1050" y2="-972" gradientTransform="translate(-1050 1004)" gradientUnits="userSpaceOnUse">
      <stop offset="0.1" stop-color="#a56eff"/>
      <stop offset="0.9" stop-color="#0f62fe"/>
    </linearGradient>
  </defs>
  <g id="ba668ddf-0b58-4a66-90b2-08fc26190997" data-name="Layer 2">
    <g id="f268aaa3-9834-4971-b84a-cd402c33faf4" data-name="Light theme icons">
      <g>
        <g mask="url(#b1923414-42f2-4b9f-aeff-35b76956688d)">
          <rect width="32" height="32" transform="translate(32 32) rotate(-180)" fill="url(#a6427026-fb95-4a80-8512-e31d3e3501f6)"/>
        </g>
        <g>
          <circle cx="8" cy="8" r="1" fill="#001d6c"/>
          <path d="M23,22a3,3,0,0,0-.64.072l-3.927-6.33a3,3,0,1,0-4.781.1L9.705,22.092A3,3,0,1,0,11.816,26h8.368A2.995,2.995,0,1,0,23,22ZM11.377,23.19l3.96-6.269A3.022,3.022,0,0,0,16,17a2.972,2.972,0,0,0,.787-.118l3.88,6.255a2.985,2.985,0,0,0-.483.863H11.816A2.98,2.98,0,0,0,11.377,23.19ZM16,13a1,1,0,1,1-1,1A1,1,0,0,1,16,13ZM9,26a1,1,0,1,1,1-1A1,1,0,0,1,9,26Zm14,0a1,1,0,1,1,1-1A1,1,0,0,1,23,26Z" fill="#001d6c"/>
        </g>
      </g>
    </g>
  </g>
</svg>
