<svg xmlns="http://www.w3.org/2000/svg" xmlns:xlink="http://www.w3.org/1999/xlink" viewBox="0 0 32 32">
  <defs>
    <linearGradient id="f08590cf-1e9e-484c-af54-b4d722bf11a7" x1="11" y1="21" x2="11" y2="12" gradientUnits="userSpaceOnUse">
      <stop offset="0.4" stop-color="#fff"/>
      <stop offset="1" stop-color="#fff" stop-opacity="0"/>
    </linearGradient>
    <mask id="b8438d5b-2ace-4c8a-9efd-cfd7377e87ee" x="0" y="0" width="32" height="32" maskUnits="userSpaceOnUse">
      <g>
        <path d="M26,4H6A2,2,0,0,0,4,6v4a2,2,0,0,0,2,2H26a2,2,0,0,0,2-2V6A2,2,0,0,0,26,4Zm0,6H6V6H26Z" fill="#fff"/>
        <rect x="10" y="12" width="2" height="9" fill="url(#f08590cf-1e9e-484c-af54-b4d722bf11a7)"/>
        <path d="M17,26H6V22H17V20H6a2,2,0,0,0-2,2v4a2,2,0,0,0,2,2H17Z" fill="#fff"/>
      </g>
    </mask>
    <linearGradient id="e6439c44-52c6-4e57-bede-4c8130c6cfa7" y1="32" x2="32" gradientUnits="userSpaceOnUse">
      <stop offset="0.1" stop-color="#08bdba"/>
      <stop offset="0.9" stop-color="#0f62fe"/>
    </linearGradient>
  </defs>
  <g id="af2a881a-06f4-4abe-ac97-b3dd9a7977cd" data-name="Layer 2">
    <g id="ed5bb301-2835-46fd-96b0-b51a69f2c1da" data-name="Light theme icons">
      <g>
        <g mask="url(#b8438d5b-2ace-4c8a-9efd-cfd7377e87ee)">
          <rect width="32" height="32" fill="url(#e6439c44-52c6-4e57-bede-4c8130c6cfa7)"/>
        </g>
        <circle cx="9" cy="24" r="1" fill="#001d6c"/>
        <circle cx="9" cy="8" r="1" fill="#001d6c"/>
        <path d="M25,30l-2.139-1.013A5.021,5.021,0,0,1,20,24.468V18H30v6.468a5.021,5.021,0,0,1-2.861,4.519ZM22,20v4.468a3.012,3.012,0,0,0,1.717,2.711L25,27.786l1.283-.607A3.012,3.012,0,0,0,28,24.468V20Z" fill="#001d6c"/>
      </g>
    </g>
  </g>
</svg>
