<svg xmlns="http://www.w3.org/2000/svg" viewBox="0 0 32 32"><defs><linearGradient id="zz854eskya" x1="-.243" y1="24.243" x2="24.243" y2="-.243" gradientUnits="userSpaceOnUse"><stop offset=".1" stop-color="#f975a5"/><stop offset=".9" stop-color="#a870ff"/></linearGradient></defs><g data-name="Layer 2"><g data-name="Light theme icons"><path fill="none" d="M0 0h32v32H0z"/><path d="M14 8a6 6 0 1 1-6-6 6 6 0 0 1 6 6zM8 18a6 6 0 1 0 6 6 6 6 0 0 0-6-6zM24 2a6 6 0 1 0 6 6 6 6 0 0 0-6-6z" fill="url(#zz854eskya)"/><rect x="18" y="18" width="12" height="12" rx="6" fill="#001d6c"/></g></g></svg>