<svg xmlns="http://www.w3.org/2000/svg" viewBox="0 0 32 32"><defs><linearGradient id="h8m4otcbma" x1=".888" y1="18.15" x2="15.084" y2="21.954" gradientUnits="userSpaceOnUse"><stop offset=".1" stop-color="#fff"/><stop offset=".33"/></linearGradient><linearGradient id="0ucscvg06b" x1=".017" y1="11.4" x2="26.043" y2="18.374" gradientUnits="userSpaceOnUse"><stop offset=".21" stop-color="#fff"/><stop offset=".42"/></linearGradient><linearGradient id="4h8tz0ab3c" x1=".453" y1="14.775" x2="20.564" y2="20.164" gradientUnits="userSpaceOnUse"><stop offset=".15" stop-color="#fff"/><stop offset=".36"/></linearGradient><linearGradient id="w2batxn8ce" y1="32" x2="32" gradientUnits="userSpaceOnUse"><stop offset=".1" stop-color="#42be65"/><stop offset=".9" stop-color="#007d79"/></linearGradient><mask id="ak6i6mz8pd" x="0" y="0" width="32" height="32" maskUnits="userSpaceOnUse"><path d="M14 26h-2A10.011 10.011 0 0 0 2 16v-2a12.013 12.013 0 0 1 12 12z" fill="url(#h8m4otcbma)"/><path d="M24 26h-2A20.023 20.023 0 0 0 2 6V4a22.025 22.025 0 0 1 22 22z" fill="url(#0ucscvg06b)"/><path d="M19 26h-2A15.017 15.017 0 0 0 2 11V9a17.019 17.019 0 0 1 17 17z" fill="url(#4h8tz0ab3c)"/><path d="M6 26H4A22.025 22.025 0 0 1 26 4h4v2h-4A20.023 20.023 0 0 0 6 26z" fill="#fff"/><path d="M11 26H9A17.019 17.019 0 0 1 26 9h4v2h-4a15.017 15.017 0 0 0-15 15z" fill="#fff"/><path d="M16 26h-2a12.013 12.013 0 0 1 12-12h4v2h-4a10.011 10.011 0 0 0-10 10z" fill="#fff"/></mask></defs><g data-name="Layer 2"><g data-name="Light theme icons"><g mask="url(#ak6i6mz8pd)"><path fill="url(#w2batxn8ce)" d="M0 0h32v32H0z"/></g><path fill="#001d6c" d="M20 24h2v6h-2zm4 2h2v4h-2zm4-5h2v9h-2z"/></g></g></svg>