<svg id="ApplicationFlow" xmlns="http://www.w3.org/2000/svg" xmlns:xlink="http://www.w3.org/1999/xlink" viewBox="0 0 32 32"><defs><linearGradient id="2kmcan70za" x1="-17.576" y1="-83.364" x2="-17.576" y2="-106.364" gradientTransform="rotate(90 -60.732 -18.633)" gradientUnits="userSpaceOnUse"><stop offset=".4" stop-color="#fff"/><stop offset="1" stop-color="#fff" stop-opacity="0"/></linearGradient><linearGradient id="k7azrwb84b" x1="-20.121" y1="60.879" x2="-20.121" y2="37.879" gradientTransform="rotate(-90 -23 9.879)" xlink:href="#2kmcan70za"/><linearGradient id="j621jw6h6d" x1="0" y1="32" x2="32" y2="0" gradientUnits="userSpaceOnUse"><stop offset=".1" stop-color="#08bdba"/><stop offset=".9" stop-color="#0f62fe"/></linearGradient><mask id="e8phu1dw4c" x="0" y="0" width="32" height="32" maskUnits="userSpaceOnUse"><path d="M27 29.022V27l-21-.002v-6.975H4v6.998c0 1.103.897 1.979 2 1.98l21 .022z" style="fill:url(#2kmcan70za);stroke-width:0"/><path style="fill:#fff;stroke-width:0" d="m5 19 3.536 3.535-1.414 1.414L5 21.828l-2.121 2.121-1.414-1.414L5 19z"/><g><path d="M5 3v2l21 .002V11h2V5.002A2.004 2.004 0 0 0 26 3H5z" style="fill:url(#k7azrwb84b);stroke-width:0"/><path style="fill:#fff;stroke-width:0" d="m27 13-3.535-3.535 1.414-1.414L27 10.172l2.122-2.121 1.414 1.414L27 13z"/></g></mask></defs><g style="mask:url(#e8phu1dw4c)"><path style="fill:url(#j621jw6h6d);stroke-width:0" d="M0 0h32v32H0z"/></g><path style="fill:#001d6c;stroke-width:0" d="m18.708 20.707-1.414-1.414L20.587 16l-3.293-3.293 1.414-1.414L23.415 16l-4.707 4.707zM13.294 20.707 8.587 16l4.707-4.707 1.414 1.414L11.415 16l3.293 3.293-1.414 1.414z"/></svg>