<svg id="Aspera" xmlns="http://www.w3.org/2000/svg" viewBox="0 0 32 32"><defs><linearGradient id="ofietkod1a" x1="6.5" y1="16" x2="6.5" y2="6" gradientUnits="userSpaceOnUse"><stop offset=".1"/><stop offset="1" stop-opacity="0"/></linearGradient><linearGradient id="67elsj1u4b" x1="25.5" y1="26" x2="25.5" y2="16" gradientUnits="userSpaceOnUse"><stop offset="0" stop-opacity="0"/><stop offset=".9"/></linearGradient><linearGradient id="tc3hpghq6d" x1="0" y1="32" x2="32" y2="0" gradientUnits="userSpaceOnUse"><stop offset=".1" stop-color="#0bb8b5"/><stop offset=".9" stop-color="#0e61f9"/></linearGradient><mask id="3o1scbjyjc" x="0" y="0" width="32" height="32" maskUnits="userSpaceOnUse"><path d="M5.051 15h-2C3.051 7.71 8.134 3 16 3h10v2H16C9.246 5 5.051 8.832 5.051 15zM16.051 29h-10v-2h10C22.191 27 27 22.607 27 17h2c0 6.729-5.688 12-12.949 12z" style="fill:#fff;stroke-width:0"/><g><path style="fill:url(#ofietkod1a);stroke-width:0" d="M1 6h11v10H1z"/><path style="fill:url(#67elsj1u4b);stroke-width:0" d="M20 16h11v10H20z"/></g></mask></defs><g style="mask:url(#3o1scbjyjc)"><path style="fill:url(#tc3hpghq6d);stroke-width:0" d="M0 0h32v32H0z"/></g><path d="M28 11c-.751 0-1.388.401-1.73 1H16c-2.206 0-4 1.794-4 4 0 .732.212 1.409.556 2H5.729c-.342-.599-.978-1-1.73-1-1.12 0-2 .88-2 2s.88 2 2 2c.751 0 1.388-.401 1.73-1h10.27c2.206 0 4-1.794 4-4 0-.732-.212-1.409-.556-2h6.827c.342.599.978 1 1.73 1 1.12 0 2-.88 2-2s-.88-2-2-2zm-10 5c0 1.103-.897 2-2 2s-2-.897-2-2 .897-2 2-2 2 .897 2 2z" style="fill:#001d6c;stroke-width:0"/></svg>