<svg id="AutomaticDataLineage" xmlns="http://www.w3.org/2000/svg" viewBox="0 0 32 32"><defs><linearGradient id="jj39xcfjua" x1="-1205.543" y1="-40.39" x2="-1202.706" y2="-40.39" gradientTransform="matrix(1 0 0 -1 1219.618 -31.279)" gradientUnits="userSpaceOnUse"><stop offset=".001" stop-opacity="0"/><stop offset=".83"/></linearGradient><linearGradient id="f3vccfkclc" y1="32" x2="32" gradientUnits="userSpaceOnUse"><stop offset=".1" stop-color="#08bdba"/><stop offset=".9" stop-color="#0f62fe"/></linearGradient><mask id="56f1tqoy9b" x="0" y="0" width="32" height="32" maskUnits="userSpaceOnUse"><path d="M30 11.007v-6h-6v2H12.957v2h1a3 3 0 0 1 3 3v9H11v-2.029H5v6h6v-1.964h5.955v2a2 2 0 0 0 2 2H24v1.992h6v-6h-6v2.008h-5.041v-7H24v1.994h6v-6h-6v2.006h-5.041v-4a4.954 4.954 0 0 0-1.023-3H24v2zM9 22.978H7v-2h2zm17 2.028h2v2h-2zm0-9h2v2h-2zm0-9h2v2h-2z" style="fill:#fff"/><path transform="rotate(-180 11.542 8.827)" d="M8.923 5.317h5.239v7.02H8.923z" id="Gradients_black_" data-name="Gradients (black)"/><path transform="rotate(-180 15.493 9.11)" style="fill:url(#jj39xcfjua)" d="M14.075 6.118h2.837v5.984h-2.837z" id="Gradients_black_2" data-name="Gradients (black)"/></mask></defs><g style="mask:url(#56f1tqoy9b)"><path style="fill:url(#f3vccfkclc)" d="M0 0h32v32H0z"/></g><path d="M12.012 14h-8a2 2 0 0 1-2-2V4a2 2 0 0 1 2-2h8a2 2 0 0 1 2 2v8a2 2 0 0 1-2 2zm-8-10v8h8V4z" style="fill:#001d6c"/></svg>