<?xml version="1.0" encoding="UTF-8"?>
<svg id="uuid-c7ae6192-1c1a-42f2-9ab0-09caf18d4265" data-name="Build icon here" xmlns="http://www.w3.org/2000/svg" xmlns:xlink="http://www.w3.org/1999/xlink" viewBox="0 0 32 32">
  <defs>
    <linearGradient id="uuid-bfac5c28-95f5-42d1-8f6e-0a9e411db0bc" x1="-136.298" y1="-46.097" x2="-131.046" y2="-46.097" gradientTransform="translate(146.302 61.297)" gradientUnits="userSpaceOnUse">
      <stop offset="0" stop-color="#000" stop-opacity="0"/>
      <stop offset=".83" stop-color="#000"/>
    </linearGradient>
    <linearGradient id="uuid-c1739371-c4cc-407c-8111-1e0475d0f74d" x1="-2121.592" y1="-1111.396" x2="-2117.475" y2="-1111.396" gradientTransform="translate(2148.409 1124.095)" xlink:href="#uuid-bfac5c28-95f5-42d1-8f6e-0a9e411db0bc"/>
    <mask id="uuid-d632d444-7e7f-45a6-929f-923f73b97f20" data-name="mask" x="0" y="0" width="32" height="32" maskUnits="userSpaceOnUse">
      <g>
        <path d="M20.039,30.072l-1.73,1-4.04-7h-1.38c-2.42,0-4.44-1.72-4.9-4h-1.1c-2.76,0-5-2.24-5-5v-3C1.889,7.102,5.919,3.072,10.889,3.072h5.041v2h-5.041c-3.52,0-6.44,2.61-6.92,6h1.92c.55,0,1-.45,1-1v-1h2v1c0,1.66-1.35,3-3,3h-2v2c0,1.65,1.34,3,3,3h1.1c.26-1.27.99-2.36,2.01-3.08.82-.58,1.81-.92,2.89-.92h1v2h-1c-1.38,0-2.53.93-2.89,2.19-.12.44-.15.92-.05,1.42.28,1.42,1.61,2.39,3.06,2.39h1.26c.76,0,1.45.43,1.79,1.11l3.98,6.89Z" fill="#fff" stroke-width="0"/>
        <g id="uuid-f64dc40d-9533-4d88-a325-0497cd6b5d1f" data-name="Gradients (black)">
          <rect x="10.003" y="11.961" width="5.252" height="6.478" fill="url(#uuid-bfac5c28-95f5-42d1-8f6e-0a9e411db0bc)" stroke-width="0"/>
        </g>
        <path d="M29.931,12.062v1c0,1.91-.76,3.63-2,4.89v2.11c0,2.76-2.24,5-5,5h-1v-2h1c1.66,0,3-1.34,3-3v-.68c-.91.43-1.92.68-3,.68h-3v-2h3c2.76,0,5-2.24,5-5v-1c0-.65-.07-1.3-.21-1.92h2.04c.11.62.17,1.26.17,1.92Z" fill="#fff" stroke-width="0"/>
        <g id="uuid-7dfa9f08-d5e2-43dd-8823-3da4582c1f77" data-name="Gradients (black)">
          <rect x="26.817" y="10.643" width="4.116" height="4.112" transform="translate(16.176 41.575) rotate(-90)" fill="url(#uuid-c1739371-c4cc-407c-8111-1e0475d0f74d)" stroke-width="0"/>
        </g>
        <rect x="26.813" y="9.055" width="4.287" height="1.878" fill="#000" stroke-width="0"/>
      </g>
    </mask>
    <linearGradient id="uuid-a12b6d62-d51a-42d4-bb06-2a2623b9116e" x1="0" y1="32" x2="32" y2="0" gradientUnits="userSpaceOnUse">
      <stop offset=".1" stop-color="#a56eff"/>
      <stop offset=".9" stop-color="#0f62fe"/>
    </linearGradient>
  </defs>
  <g mask="url(#uuid-d632d444-7e7f-45a6-929f-923f73b97f20)">
    <rect width="32" height="32" fill="url(#uuid-a12b6d62-d51a-42d4-bb06-2a2623b9116e)" stroke-width="0"/>
  </g>
  <path d="M25.962,2.048c-2.206,0-4,1.794-4,4,0,.009.002.016.003.025l-5.649,1.532c-.359-.341-.841-.553-1.375-.553-1.105,0-2,.896-2,2s.895,2,2,2c.941,0,1.724-.652,1.938-1.527l5.615-1.523c.102.18.215.349.342.51l-2.635,3.558c-.082-.01-.162-.025-.246-.025-1.105,0-2,.895-2,2s.895,2,2,2,2-.895,2-2c0-.274-.056-.535-.155-.773l2.619-3.536c.476.2.997.311,1.545.311,2.206,0,4-1.794,4-4s-1.794-4-4-4ZM25.962,8.048c-1.103,0-2-.897-2-2s.897-2,2-2,2,.897,2,2-.897,2-2,2Z" fill="#001d6c" stroke-width="0"/>
</svg>