<svg xmlns="http://www.w3.org/2000/svg" xmlns:xlink="http://www.w3.org/1999/xlink" viewBox="0 0 32 32"><defs><linearGradient id="f93xz0dwfa" x1="11" y1="17" x2="19" y2="17" gradientUnits="userSpaceOnUse"><stop offset="0"/><stop offset="1" stop-opacity="0"/></linearGradient><linearGradient id="fld8skqk2b" x1="961" y1="7653" x2="969" y2="7653" gradientTransform="translate(-948 -7630)" xlink:href="#f93xz0dwfa"/><linearGradient id="2hbpj0rnrd" y1="32" x2="32" gradientUnits="userSpaceOnUse"><stop offset=".1" stop-color="#08bdba"/><stop offset=".9" stop-color="#0f62fe"/></linearGradient><mask id="pfym1245qc" x="0" y="0" width="32" height="32" maskUnits="userSpaceOnUse"><path fill="#fff" d="M11 16.125h10v1.75H11zm0 6h10v1.75H11z"/><path fill="url(#f93xz0dwfa)" d="M11 15h8v4h-8z"/><path transform="rotate(180 17 23)" fill="url(#fld8skqk2b)" d="M13 21h8v4h-8z"/><path d="M16 11.75A4.255 4.255 0 0 1 20.25 16v8a4.25 4.25 0 0 1-8.5 0v-8A4.255 4.255 0 0 1 16 11.75M16 10a6 6 0 0 0-6 6v8a6 6 0 0 0 12 0v-8a6 6 0 0 0-6-6z" fill="#fff"/></mask></defs><g data-name="Layer 2"><g data-name="Light theme icons"><g mask="url(#pfym1245qc)"><path fill="url(#2hbpj0rnrd)" d="M0 0h32v32H0z"/></g><path d="M30.66 19.21 24 13v9.1a4 4 0 0 0 8 0 3.831 3.831 0 0 0-1.34-2.89zM28 24.35a2.25 2.25 0 0 1-2.25-2.25V17l3.72 3.47a2.047 2.047 0 0 1 .73 1.56 2.249 2.249 0 0 1-2.178 2.319zM0 22.1a4 4 0 0 0 8 0V13l-6.66 6.21A3.862 3.862 0 0 0 0 22.1zm2.48-1.56L6.25 17v5.1a2.25 2.25 0 0 1-4.5 0 2.061 2.061 0 0 1 .73-1.56zM15 5.5A3.5 3.5 0 1 0 11.5 9 3.5 3.5 0 0 0 15 5.5zm-5.25 0a1.75 1.75 0 1 1 1.75 1.75A1.751 1.751 0 0 1 9.75 5.5zM20.5 2A3.5 3.5 0 1 0 24 5.5 3.5 3.5 0 0 0 20.5 2zm0 5.25a1.75 1.75 0 1 1 1.75-1.75 1.751 1.751 0 0 1-1.75 1.75z" fill="#001d6c"/></g></g></svg>