<svg xmlns="http://www.w3.org/2000/svg" xmlns:xlink="http://www.w3.org/1999/xlink" viewBox="0 0 32 32"><defs><style>.cls-1{fill:#fff;}.cls-2{fill:url(#linear-gradient);}.cls-3{mask:url(#mask);}.cls-4{fill:url(#linear-gradient-2);}.cls-5{fill:#001d6c;}</style><linearGradient id="linear-gradient" x1="-118.495" y1="-207.5" x2="-108.495" y2="-207.5" gradientTransform="translate(135.495 230.505)" gradientUnits="userSpaceOnUse"><stop offset="0.3"/><stop offset="1" stop-opacity="0"/></linearGradient><mask id="mask" x="0" y="0" width="32" height="32" maskUnits="userSpaceOnUse"><path class="cls-1" d="M8,11V9H4a2,2,0,0,0-2,2V28.005a2,2,0,0,0,2,2H21a2,2,0,0,0,2-2v-9H21v9H4V11"/><rect class="cls-2" x="17" y="21.005" width="10" height="4" transform="translate(45.005 1.005) rotate(90)"/></mask><linearGradient id="linear-gradient-2" y1="32" x2="32" gradientUnits="userSpaceOnUse"><stop offset="0.1" stop-color="#ee5396"/><stop offset="0.9" stop-color="#8a3ffc"/></linearGradient></defs><g id="Layer_2" data-name="Layer 2"><g id="Build_icon_here" data-name="Build icon here"><g class="cls-3"><rect class="cls-4" width="32" height="32"/></g><path class="cls-5" d="M20,13H13a2,2,0,0,1-2-2V4a2,2,0,0,1,2-2h7a2,2,0,0,1,2,2v7A2,2,0,0,1,20,13ZM13,4v7h7V4Z"/><path class="cls-5" d="M28,21H25a2,2,0,0,1-2-2V16a2,2,0,0,1,2-2h3a2,2,0,0,1,2,2v3A2,2,0,0,1,28,21Zm-3-5v3h3V16Z"/><path class="cls-5" d="M15,25H10a2,2,0,0,1-2-2V18a2,2,0,0,1,2-2h5a2,2,0,0,1,2,2v5A2,2,0,0,1,15,25Zm-5-7v5h5V18Z"/></g></g></svg>