<svg xmlns="http://www.w3.org/2000/svg" xmlns:xlink="http://www.w3.org/1999/xlink" viewBox="0 0 32 32"><defs><style>.cls-1{fill:#fff;}.cls-2{fill:url(#linear-gradient);}.cls-3{mask:url(#mask);}.cls-4{fill:url(#linear-gradient-2);}.cls-5{fill:#001d6c;}</style><linearGradient id="linear-gradient" x1="20.5" y1="28" x2="20.5" y2="19" gradientUnits="userSpaceOnUse"><stop offset="0" stop-opacity="0"/><stop offset="0.6"/></linearGradient><mask id="mask" x="0" y="0" width="32" height="32" maskUnits="userSpaceOnUse"><path class="cls-1" d="M19,30H6a2,2,0,0,1-2-2V4A2,2,0,0,1,6,2H19V4H6V28H19V20h2v8A2,2,0,0,1,19,30Z"/><circle class="cls-1" cx="12.5" cy="24.5" r="1.5"/><rect class="cls-2" x="17" y="19" width="7" height="9"/></mask><linearGradient id="linear-gradient-2" y1="32" x2="32" gradientUnits="userSpaceOnUse"><stop offset="0.1" stop-color="#08bdba"/><stop offset="0.9" stop-color="#0f62fe"/></linearGradient></defs><g id="Layer_2" data-name="Layer 2"><g id="Dark_theme_icons" data-name="Dark theme icons"><g class="cls-3"><rect class="cls-4" width="32" height="32"/></g><path class="cls-5" d="M20,22a1,1,0,0,1-.5-.136l-6-3.5A1,1,0,0,1,13,17.5v-7a1,1,0,0,1,.5-.864l6-3.5a1,1,0,0,1,1.008,0l6,3.5a1,1,0,0,1,.5.864v7a1,1,0,0,1-.5.864l-6,3.5A1,1,0,0,1,20,22Zm-5-5.074,5,2.916,5-2.916V11.074L20,8.158l-5,2.916Z"/><path class="cls-5" d="M32,14H30V8.074l-5.5-3.21L25.5,3.136l6,3.5A1,1,0,0,1,32,7.5Z"/></g></g></svg>