<svg id="CarbonAEM" xmlns="http://www.w3.org/2000/svg" viewBox="0 0 32 32"><defs><linearGradient id="ujnkfqqx4a" x1="3" y1="25" x2="28" y2="25" gradientTransform="matrix(1 0 0 -1 0 34)" gradientUnits="userSpaceOnUse"><stop offset=".5" stop-color="#fff"/><stop offset="1" stop-color="#fff" stop-opacity="0"/></linearGradient><linearGradient id="nd6hhkhqqb" x1="4" y1="9" x2="16" y2="9" gradientTransform="matrix(1 0 0 -1 0 34)" gradientUnits="userSpaceOnUse"><stop offset=".2" stop-opacity="0"/><stop offset=".9"/></linearGradient><linearGradient id="0r7e8bmygd" x1="0" y1="32" x2="32" y2="0" gradientUnits="userSpaceOnUse"><stop offset=".1" stop-color="#08bdba"/><stop offset=".9" stop-color="#0f62fe"/></linearGradient><mask id="xx5nwt778c" x="0" y="0" width="32" height="32" maskUnits="userSpaceOnUse"><g id="zku9j9s8fc"><circle cx="7" cy="6" r="1" style="fill:#fff;stroke-width:0"/><circle cx="11" cy="6" r="1" style="fill:#fff;stroke-width:0"/><path d="M28 2H4a2 2 0 0 0-2 2v20a2 2 0 0 0 2 2h11v-2H4V4h24v9h2V4a2 2 0 0 0-2-2z" style="fill:#fff;stroke-width:0"/><path d="M3 8h25v2H3V8z" style="fill:url(#ujnkfqqx4a);stroke-width:0"/><path d="M4 23h12v4H4v-4z" style="fill:url(#nd6hhkhqqb);stroke-width:0"/></g></mask></defs><g style="mask:url(#xx5nwt778c)"><path style="fill:url(#0r7e8bmygd);stroke-width:0" d="M0 0h32v32H0z"/></g><circle cx="28.5" cy="24.5" r="1.5" style="fill:#001d6c;stroke-width:0"/><circle cx="23.5" cy="27.5" r="1.5" style="fill:#001d6c;stroke-width:0"/><circle cx="18.5" cy="24.5" r="1.5" style="fill:#001d6c;stroke-width:0"/><circle cx="18.5" cy="19.5" r="1.5" style="fill:#001d6c;stroke-width:0"/><circle cx="23.5" cy="16.5" r="1.5" style="fill:#001d6c;stroke-width:0"/><circle cx="28.5" cy="19.5" r="1.5" style="fill:#001d6c;stroke-width:0"/></svg>