<svg id="CarbonIBMDotCom" xmlns="http://www.w3.org/2000/svg" viewBox="0 0 32 32"><defs><linearGradient id="q9cd0l8cza" x1="3" y1="9" x2="28" y2="9" gradientUnits="userSpaceOnUse"><stop offset=".5" stop-color="#fff"/><stop offset="1" stop-color="#fff" stop-opacity="0"/></linearGradient><linearGradient id="tc9xpgl1ib" x1="4" y1="25" x2="16" y2="25" gradientUnits="userSpaceOnUse"><stop offset=".2" stop-opacity="0"/><stop offset=".9"/></linearGradient><linearGradient id="7zo93dt68d" x1=".362" y1="31.638" x2="31.63" y2=".37" gradientUnits="userSpaceOnUse"><stop offset=".1" stop-color="#08bdba"/><stop offset=".9" stop-color="#0f62fe"/></linearGradient><mask id="zku9j9s8fc" x="0" y="0" width="32" height="32" maskUnits="userSpaceOnUse"><circle cx="7" cy="6" r="1" style="fill:#fff"/><circle cx="11" cy="6" r="1" style="fill:#fff"/><path d="M28 2H4a2 2 0 0 0-2 2v20a2 2 0 0 0 2 2h11v-2H4V4h24v9h2V4a2 2 0 0 0-2-2z" style="fill:#fff"/><path style="fill:url(#q9cd0l8cza)" d="M3 8h25v2H3z"/><path style="fill:url(#tc9xpgl1ib)" d="M4 23h12v4H4z"/></mask></defs><g style="mask:url(#zku9j9s8fc)"><path style="fill:url(#7zo93dt68d)" d="M0 0h32v32H0z"/></g><path d="m29.509 17.689-6-3.549a1 1 0 0 0-1.018 0l-6 3.549a1 1 0 0 0-.491.861v6.9a1 1 0 0 0 .491.861l6 3.549a1 1 0 0 0 1.018 0l6-3.549A1 1 0 0 0 30 25.45v-6.9a1 1 0 0 0-.491-.861zM28 24.88l-5 2.958-5-2.958v-5.76l5-2.958 5 2.958z" style="fill:#001d6c"/></svg>