<svg id="CICSPerformanceAnalyzer" xmlns="http://www.w3.org/2000/svg" xmlns:xlink="http://www.w3.org/1999/xlink" viewBox="0 0 32 32"><defs><linearGradient id="24m5xzffpa" x1="2007.5" y1="-5308.5" x2="2013.5" y2="-5308.5" gradientTransform="translate(-1993.5 5334.5)" gradientUnits="userSpaceOnUse"><stop offset="0" stop-opacity="0"/><stop offset=".9"/></linearGradient><linearGradient id="29db00ni9b" y1="-5315.5" y2="-5315.5" gradientTransform="translate(-1986.5 5341.5)" xlink:href="#24m5xzffpa"/><linearGradient id="la9w6x6mec" y1="-5301.5" y2="-5301.5" gradientTransform="translate(-2000.5 5327.5)" xlink:href="#24m5xzffpa"/><linearGradient id="grxdkzktxe" x1="0" y1="32" x2="32" y2="0" gradientUnits="userSpaceOnUse"><stop offset=".1" stop-color="#08bdba"/><stop offset=".9" stop-color="#0f62fe"/></linearGradient><mask id="whpf9nc95d" x="2" y="2" width="28" height="28" maskUnits="userSpaceOnUse"><path style="fill:#fff" d="M23 20h2v8h-2zM9 14h2v14H9zM16 22h2v6h-2z"/><path transform="rotate(90 17 26)" style="fill:url(#24m5xzffpa)" d="M14 24h6v4h-6z"/><path transform="rotate(90 24 26)" style="fill:url(#29db00ni9b)" d="M21 24h6v4h-6z"/><path transform="rotate(90 10 26)" style="fill:url(#la9w6x6mec)" d="M7 24h6v4H7z"/><path d="M4 2H2v26a2 2 0 0 0 2 2h26v-2H4V2z" style="fill:#fff"/></mask></defs><g style="mask:url(#whpf9nc95d)"><path style="fill:url(#grxdkzktxe)" d="M0 0h32v32H0z"/></g><circle cx="23" cy="9" r="2" style="fill:#001d6c"/><path d="M18 10h-2V8c0-3.309 2.691-6 6-6h4v2h-4c-2.206 0-4 1.794-4 4v2zM24 16h-4v-2h4c2.206 0 4-1.794 4-4V8h2v2c0 3.309-2.691 6-6 6z" style="fill:#001d6c"/></svg>