<svg id="CICSDeploymentAssistant" xmlns="http://www.w3.org/2000/svg" viewBox="0 0 32 32"><defs><linearGradient id="oqmvkr9vca" x1="1486.5" y1="-4150" x2="1496.5" y2="-4150" gradientTransform="translate(-1465 4173)" gradientUnits="userSpaceOnUse"><stop offset=".2"/><stop offset=".8" stop-opacity="0"/></linearGradient><linearGradient id="n47wv6669c" x1="0" y1="32" x2="32" y2="0" gradientUnits="userSpaceOnUse"><stop offset=".1" stop-color="#08bdba"/><stop offset=".9" stop-color="#0f62fe"/></linearGradient><mask id="w8nymfnj5b" x="0" y="0" width="32" height="32" maskUnits="userSpaceOnUse"><path d="M25 18.439V28H4v-5H2v5a2 2 0 0 0 2 2h21a2 2 0 0 0 2-2v-9.561h-2zM27 16V5.828l2.586 2.586L31 7l-5-5-5 5 1.414 1.414L25 5.828V16h2z" style="fill:#fff"/><path transform="rotate(90 26.5 23)" style="fill:url(#oqmvkr9vca)" d="M21.5 20.5h10v5h-10z"/></mask></defs><g style="mask:url(#w8nymfnj5b)"><path style="fill:url(#n47wv6669c)" d="M0 0h32v32H0z"/></g><circle cx="9" cy="11" r="2" style="fill:#001d6c"/><path d="M4 12H2v-2c0-3.309 2.691-6 6-6h4v2H8c-2.206 0-4 1.794-4 4v2zM10 18H6v-2h4c2.206 0 4-1.794 4-4v-2h2v2c0 3.309-2.691 6-6 6z" style="fill:#001d6c"/></svg>