<svg id="CICSVSAMRecovery" xmlns="http://www.w3.org/2000/svg" viewBox="0 0 32 32"><defs><linearGradient id="rr7fm2384a" x1="-1252.18" y1="50.484" x2="-1236.187" y2="66.477" gradientTransform="matrix(1.071 0 0 -.953 1351.892 78.707)" gradientUnits="userSpaceOnUse"><stop offset=".3" stop-opacity="0"/><stop offset=".75"/></linearGradient><linearGradient id="gyik01akyc" x1="0" y1="32" x2="32" y2="0" gradientUnits="userSpaceOnUse"><stop offset=".1" stop-color="#08bcb9"/><stop offset=".9" stop-color="#0f62fd"/></linearGradient><mask id="ahod3tuimb" x="1.99" y="2.01" width="28" height="29.539" maskUnits="userSpaceOnUse"><path d="M15.99 30.01c-7.72 0-14-6.28-14-14s6.281-14 14-14 14 6.28 14 14-6.28 14-14 14zm0-26c-6.617 0-12 5.383-12 12s5.383 12 12 12 12-5.383 12-12-5.382-12-12-12z" style="fill:#fff"/><path transform="rotate(-176.285 19.059 22.947)" style="fill:url(#rr7fm2384a)" d="M11.024 14.849h16.069v16.196H11.024z"/><path d="m5.305 27.734 4.243-4.243 4.442 3.528-1.99 4-6.695-3.285z"/></mask></defs><g style="mask:url(#ahod3tuimb)"><path style="fill:url(#gyik01akyc)" d="M0 0h32v32H0z"/></g><circle cx="10.99" cy="28.01" r="2" style="fill:#001d6c"/><circle cx="15.99" cy="16.01" r="2" style="fill:#001d6c"/><path d="M10.99 17.01h-2v-2c0-3.309 2.691-6 6-6h4v2h-4c-2.206 0-4 1.794-4 4v2zM16.99 23.01h-4v-2h4c2.206 0 4-1.794 4-4v-2h2v2c0 3.309-2.691 6-6 6z" style="fill:#001d6c"/></svg>
