<svg id="_ClientDeliveryNetworkRemote" data-name="ClientDeliveryNetworkRemote" xmlns="http://www.w3.org/2000/svg" xmlns:xlink="http://www.w3.org/1999/xlink" viewBox="0 0 32 32"><defs><linearGradient id="slciyhs60a" x1="110.103" y1="-434.701" x2="117.743" y2="-434.701" gradientTransform="translate(-90.748 438.676)" gradientUnits="userSpaceOnUse"><stop offset=".1" stop-opacity="0"/><stop offset=".7"/></linearGradient><linearGradient id="z9m2e3ciab" x1="103.379" y1="-428.722" x2="112.106" y2="-428.722" xlink:href="#slciyhs60a"/><linearGradient id="m163xmgnec" x1="97.425" y1="-422.702" x2="106.06" y2="-422.702" xlink:href="#slciyhs60a"/><linearGradient id="qotznckv4d" x1="-1296.418" y1="-1498.529" x2="-1288.101" y2="-1498.529" gradientTransform="translate(1308.254 1519.248)" xlink:href="#slciyhs60a"/><linearGradient id="dazi8x8bee" x1="-1290.858" y1="-1492.529" x2="-1282.541" y2="-1492.529" gradientTransform="translate(1308.694 1507.688)" xlink:href="#slciyhs60a"/><linearGradient id="589vk70jkf" x1="-1284.858" y1="-1486.561" x2="-1276.541" y2="-1486.561" gradientTransform="translate(1308.662 1495.72)" xlink:href="#slciyhs60a"/><linearGradient id="4hjjzjpxkh" x1="0" y1="32" x2="32" y2="0" gradientUnits="userSpaceOnUse"><stop offset=".1" stop-color="#42be65"/><stop offset=".9" stop-color="#007d79"/></linearGradient><mask id="hh1chki0lg" x="0" y="0" width="32" height="32" maskUnits="userSpaceOnUse"><path style="fill:#fff" d="M5.991 9h16.041v2H5.991zM2.009 15h13.876v2H2.009zM9.971 3.004h17.991v2H9.971z"/><path style="fill:#fff" d="M14.985 16.026h2V30h-2zM20.991 10h2v16h-2zM26.982 4.004h2V22h-2z"/><path d="M20.011 7.955h3.96v4.268h-3.96zM25.982 1.946h3.96v4.057h-3.96zM13.985 13.977h3.96v4.057h-3.96z"/><path style="fill:url(#slciyhs60a)" d="M19.354 1.968h7.64v4.014h-7.64z"/><path style="fill:url(#z9m2e3ciab)" d="M12.631 7.947h8.727v4.014h-8.727z"/><path style="fill:url(#m163xmgnec)" d="M6.676 13.967h8.636v4.014H6.676z"/><path transform="rotate(-90 15.994 20.719)" style="fill:url(#qotznckv4d)" d="M11.835 18.712h8.317v4.014h-8.317z"/><path transform="rotate(-90 21.994 15.159)" style="fill:url(#dazi8x8bee)" d="M17.835 13.152h8.317v4.014h-8.317z"/><path transform="rotate(-90 27.962 9.159)" style="fill:url(#589vk70jkf)" d="M23.803 7.152h8.317v4.014h-8.317z"/></mask></defs><g style="mask:url(#hh1chki0lg)"><path style="fill:url(#4hjjzjpxkh)" d="M0 0h32v32H0z"/></g><path d="M5.965 30c-2.206 0-4-1.794-4-4s1.794-4 4-4 4 1.794 4 4-1.794 4-4 4zm0-6c-1.103 0-2 .897-2 2s.897 2 2 2 2-.897 2-2-.897-2-2-2z" style="fill:#001d6c"/><circle cx="15.989" cy="15.995" r="2" style="fill:#001d6c"/><circle cx="21.989" cy="9.995" r="2" style="fill:#001d6c"/><circle cx="27.98" cy="4.003" r="2" style="fill:#001d6c"/></svg>