<svg xmlns="http://www.w3.org/2000/svg" xmlns:xlink="http://www.w3.org/1999/xlink" viewBox="0 0 128 128"><defs><style>.cls-1{fill:#fff;}.cls-2{mask:url(#mask);}.cls-3{fill:url(#linear-gradient);}</style><mask id="mask" x="0" y="0" width="128" height="128" maskUnits="userSpaceOnUse"><path class="cls-1" d="M18.414,96V31.783H47.305a21.154,21.154,0,0,1,7.957,1.428,16.818,16.818,0,0,1,6.023,4.047,17.4,17.4,0,0,1,3.774,6.3,24.352,24.352,0,0,1,1.289,8.095A24.255,24.255,0,0,1,65.059,59.8a17.468,17.468,0,0,1-3.774,6.256A16.8,16.8,0,0,1,55.262,70.1a21.115,21.115,0,0,1-7.957,1.425H30.559V96ZM30.559,61.039H46.2a7.776,7.776,0,0,0,5.52-1.885,7,7,0,0,0,2.023-5.383V49.539A6.857,6.857,0,0,0,51.719,44.2a7.912,7.912,0,0,0-5.52-1.84H30.559Z"/><path class="cls-1" d="M117.133,100.047a15.781,15.781,0,0,1-1.336,6.672,11.312,11.312,0,0,1-4.367,4.828,23.738,23.738,0,0,1-7.821,2.945A57.4,57.4,0,0,1,91.926,115.5a57.993,57.993,0,0,1-10.305-.781,24.786,24.786,0,0,1-6.945-2.207,9.247,9.247,0,0,1-3.91-3.543,9.533,9.533,0,0,1-1.2-4.785,8.527,8.527,0,0,1,2.254-6.3,11.11,11.11,0,0,1,6.305-2.9V93.977a7.825,7.825,0,0,1-4.555-2.9,8.313,8.313,0,0,1-1.609-5.113,7.037,7.037,0,0,1,.734-3.273,7.638,7.638,0,0,1,1.981-2.438,11.945,11.945,0,0,1,2.8-1.7,16.656,16.656,0,0,1,3.313-1.063v-.367a14.411,14.411,0,0,1-6.578-5.609,15.878,15.878,0,0,1-2.164-8.365,14.966,14.966,0,0,1,5.062-11.811q5.057-4.462,14.813-4.461a34.645,34.645,0,0,1,4.367.277,19.662,19.662,0,0,1,4,.92V46.5q0-6.99,6.808-6.992h7.45v9.015H104.344v1.289a13.928,13.928,0,0,1,5.613,5.52,16.184,16.184,0,0,1,1.84,7.82,14.805,14.805,0,0,1-5.016,11.684q-5.014,4.412-14.855,4.418a29.085,29.085,0,0,1-7.364-.828,7.906,7.906,0,0,0-2.39,1.7A3.631,3.631,0,0,0,81.16,82.75q0,3.593,6.258,3.59H100.3q8.831,0,12.832,3.637T117.133,100.047Zm-11.039,1.383a4.141,4.141,0,0,0-1.84-3.59c-1.231-.86-3.344-1.285-6.352-1.285H81.527a5.851,5.851,0,0,0-2.484,4.965,4.949,4.949,0,0,0,2.3,4.324q2.3,1.565,7.82,1.562h5.887q5.8,0,8.418-1.468A4.84,4.84,0,0,0,106.094,101.43ZM91.926,71.16q8.643,0,8.644-7.318V62.287q0-7.318-8.644-7.318t-8.649,7.318v1.555Q83.277,71.158,91.926,71.16Z"/></mask><linearGradient id="linear-gradient" y1="128" x2="128" gradientUnits="userSpaceOnUse"><stop offset="0.101" stop-color="#a56eff"/><stop offset="0.9" stop-color="#0043ce"/></linearGradient></defs><g id="Layer_2" data-name="Layer 2"><g id="Light_theme_icons" data-name="Light theme icons"><g class="cls-2"><rect id="Color" class="cls-3" width="128" height="128"/></g></g></g></svg>