<svg id="CloudHyperProtectCryptoServices" xmlns="http://www.w3.org/2000/svg" viewBox="0 0 32 32"><defs><linearGradient id="8njg2i8ica" x1="6.604" y1="28.604" x2="20.604" y2="14.604" gradientUnits="userSpaceOnUse"><stop offset=".55" stop-color="#fff"/><stop offset=".8" stop-color="#fff" stop-opacity="0"/></linearGradient><linearGradient id="qjrebc59qc" y1="32" x2="32" gradientUnits="userSpaceOnUse"><stop offset=".1" stop-color="#0f62fe"/><stop offset=".9" stop-color="#1192e8"/></linearGradient><mask id="rfylg6g1jb" x="0" y="0" width="32" height="32" maskUnits="userSpaceOnUse"><path style="fill:url(#8njg2i8ica)" d="m20.586 14.586-6.793 6.793L12.414 20 11 21.414l1.379 1.379-1.586 1.586L9.414 23 8 24.414l1.379 1.379-2.793 2.793L8 30l14-14-1.414-1.414z"/><circle cx="22" cy="10" r="2" style="fill:#fff"/><path d="M21 2a8.979 8.979 0 0 0-8.607 11.606L2 24v6h6l-.828-2H4v-3.172L14.726 14.1A7 7 0 1 1 21 18v2a9 9 0 0 0 0-18z" style="fill:#fff"/><path transform="rotate(-90 26 20.5)" d="M20.5 14.5h11v12h-11z"/></mask></defs><g style="mask:url(#rfylg6g1jb)"><path style="fill:url(#qjrebc59qc)" d="M0 0h32v32H0z"/></g><path d="m25 30-2.139-1.013A5.021 5.021 0 0 1 20 24.468V18h10v6.468a5.021 5.021 0 0 1-2.861 4.519zm-3-10v4.468a3.012 3.012 0 0 0 1.717 2.711l1.283.607 1.283-.607A3.012 3.012 0 0 0 28 24.468V20z" style="fill:#001d6c"/></svg>