<svg data-name="Build icon here" xmlns="http://www.w3.org/2000/svg" viewBox="0 0 32 32"><defs><linearGradient id="8ijg352txa" x1="28" y1="22" x2="28" y2="11" gradientUnits="userSpaceOnUse"><stop offset="0" stop-opacity="0"/><stop offset=".9"/></linearGradient><linearGradient id="qzgjofb0pc" x1="-5897" y1="-2053" x2="-5865" y2="-2085" gradientTransform="matrix(1 0 0 -1 5897 -2053)" gradientUnits="userSpaceOnUse"><stop offset=".1" stop-color="#08bdba"/><stop offset=".9" stop-color="#0f62fe"/></linearGradient><mask id="ttpxfi9zcb" x="0" y="0" width="32" height="32" maskUnits="userSpaceOnUse"><path d="M16 31a1 1 0 0 1-.5-.136l-12-7A1 1 0 0 1 3 23V9a1 1 0 0 1 .5-.864l12-7a1 1 0 0 1 1.008 0l12 7L27.5 9.864 16 3.158 5 9.574v12.852l11 6.417 11-6.417V12h2v11a1 1 0 0 1-.5.864l-12 7A1 1 0 0 1 16 31z" fill="#fff"/><path fill="url(#8ijg352txa)" d="M26 11h4v11h-4z"/></mask></defs><g mask="url(#ttpxfi9zcb)"><path transform="rotate(-90 16 16)" fill="url(#qzgjofb0pc)" d="M0 0h32v32H0z"/></g><path d="M14 24a1 1 0 0 1-.961-.726L11.246 17H8v-2h4a1 1 0 0 1 .961.726L14 19.36l3.039-10.634a1 1 0 0 1 1.922 0L20.754 15H24v2h-4a1 1 0 0 1-.961-.726L18 12.64l-3.039 10.634A1 1 0 0 1 14 24z" fill="#001d6c"/></svg>