<svg xmlns="http://www.w3.org/2000/svg" xmlns:xlink="http://www.w3.org/1999/xlink" viewBox="0 0 32 32">
  <defs>
    <linearGradient id="b46180f3-4968-4581-911a-582459c3ac2c" x1="6.604" y1="28.604" x2="18.604" y2="16.604" gradientUnits="userSpaceOnUse">
      <stop offset="0.61" stop-color="#fff"/>
      <stop offset="0.85" stop-color="#fff" stop-opacity="0"/>
    </linearGradient>
    <mask id="fd8a8f22-1637-4e31-9595-8efba0f8bfe8" x="0" y="0" width="32" height="32" maskUnits="userSpaceOnUse">
      <path d="M14.726,14.1l0,0A7,7,0,1,1,27.705,13h2.064a9,9,0,1,0-17.376.606L2,24v6H8l-.828-2H4V24.828Z" fill="#fff"/>
      <circle cx="22" cy="10" r="2" fill="#fff"/>
      <polygon points="18.586 16.586 13.793 21.379 12.414 20 11 21.414 12.379 22.793 10.793 24.379 9.414 23 8 24.414 9.379 25.793 6.586 28.586 8 30 20 18 18.586 16.586" fill="url(#b46180f3-4968-4581-911a-582459c3ac2c)"/>
    </mask>
    <linearGradient id="f31a0cff-b1f4-498b-aea6-c4933b3baf7c" y1="32" x2="32" gradientUnits="userSpaceOnUse">
      <stop offset="0.1" stop-color="#08bdba"/>
      <stop offset="0.9" stop-color="#0f62fe"/>
    </linearGradient>
  </defs>
  <g id="a33e0aaa-9a19-4d58-9538-73c0f55dc378" data-name="Layer 2">
    <g id="ae0d092d-493c-475e-a33e-d5c255247022" data-name="Build icon here">
      <g>
        <g mask="url(#fd8a8f22-1637-4e31-9595-8efba0f8bfe8)">
          <rect width="32" height="32" fill="url(#f31a0cff-b1f4-498b-aea6-c4933b3baf7c)"/>
        </g>
        <rect x="19" y="23" width="4" height="4" fill="#001d6c"/>
        <rect x="26" y="23" width="4" height="4" fill="#001d6c"/>
        <rect x="19" y="16" width="4" height="4" fill="#001d6c"/>
        <rect x="26" y="16" width="4" height="4" fill="#001d6c"/>
      </g>
    </g>
  </g>
</svg>
