<svg id="CloudSubnets" xmlns="http://www.w3.org/2000/svg" xmlns:xlink="http://www.w3.org/1999/xlink" viewBox="0 0 32 32"><defs><linearGradient id="xtxhmcydva" x1="-3739.5" y1="-2725.5" x2="-3739.5" y2="-2717.5" gradientTransform="translate(3757.5 2727.5)" gradientUnits="userSpaceOnUse"><stop offset=".1" stop-opacity="0"/><stop offset=".82"/></linearGradient><linearGradient id="ar6lbj42jb" x1="-3759.5" y1="-6199.5" x2="-3759.5" y2="-6191.5" gradientTransform="matrix(1 0 0 -1 3773.5 -6169.5)" xlink:href="#xtxhmcydva"/><linearGradient id="wlryrs65yd" y1="32" x2="32" gradientUnits="userSpaceOnUse"><stop offset=".1" stop-color="#00b8b4"/><stop offset=".9" stop-color="#0062fd"/></linearGradient><mask id="k58tr2e1gc" x="0" y="0" width="32" height="32" maskUnits="userSpaceOnUse"><path d="M26 22a3.947 3.947 0 0 0-2.019.567L19.415 18 18 19.415l4.567 4.566A3.915 3.915 0 0 0 22.142 25H11v2h11.142A3.993 3.993 0 1 0 26 22zm0 6a2 2 0 1 1 2-2 2 2 0 0 1-2 2zM14 12.586 9.433 8.019A3.915 3.915 0 0 0 9.858 7H21V5H9.858A3.993 3.993 0 1 0 6 10a3.947 3.947 0 0 0 2.019-.567L12.586 14zM6 8a2 2 0 1 1 2-2 2 2 0 0 1-2 2z" style="fill:#fff"/><path transform="rotate(-90 18 6)" style="fill:url(#xtxhmcydva)" d="M16 2h4v8h-4z"/><path transform="rotate(-90 14 26)" style="fill:url(#ar6lbj42jb)" d="M12 22h4v8h-4z"/></mask></defs><g style="mask:url(#k58tr2e1gc)"><path style="fill:url(#wlryrs65yd)" d="M0 0h32v32H0z"/></g><path d="M26 2a4 4 0 0 0-4 4 3.947 3.947 0 0 0 .567 2.019L8.019 22.567A3.947 3.947 0 0 0 6 22a4 4 0 1 0 4 4 3.947 3.947 0 0 0-.567-2.019L23.981 9.433A3.947 3.947 0 0 0 26 10a4 4 0 0 0 0-8zM6 28a2 2 0 1 1 2-2 2 2 0 0 1-2 2zM26 8a2 2 0 1 1 2-2 2 2 0 0 1-2 2z" style="fill:#001d6c"/></svg>