<svg xmlns="http://www.w3.org/2000/svg" xmlns:xlink="http://www.w3.org/1999/xlink" viewBox="0 0 32 32"><defs><style>.cls-1{fill:#fff;}.cls-2{fill:url(#linear-gradient);}.cls-3{fill:url(#linear-gradient-2);}.cls-4{fill:url(#linear-gradient-3);}.cls-5{fill:url(#linear-gradient-4);}.cls-6{mask:url(#mask);}.cls-7{fill:url(#linear-gradient-5);}.cls-8{fill:#001d6c;}</style><linearGradient id="linear-gradient" x1="6" y1="24.5" x2="27" y2="24.5" gradientUnits="userSpaceOnUse"><stop offset="0.1" stop-opacity="0"/><stop offset="0.65"/></linearGradient><linearGradient id="linear-gradient-2" x1="12.72" y1="27.967" x2="12.72" y2="16" gradientUnits="userSpaceOnUse"><stop offset="0" stop-color="#fff" stop-opacity="0.05"/><stop offset="0.8" stop-color="#fff"/></linearGradient><linearGradient id="linear-gradient-3" x1="6.474" y1="6.616" x2="12.215" y2="3.564" gradientUnits="userSpaceOnUse"><stop offset="0.5"/><stop offset="0.95" stop-opacity="0"/></linearGradient><linearGradient id="linear-gradient-4" x1="3.331" y1="14.324" x2="6.28" y2="6.221" gradientUnits="userSpaceOnUse"><stop offset="0.05" stop-opacity="0"/><stop offset="0.62"/></linearGradient><mask id="mask" x="0" y="0" width="32" height="32" maskUnits="userSpaceOnUse"><path class="cls-1" d="M30,16a13.99,13.99,0,1,0-4.1,9.9l-1.414-1.414A11.992,11.992,0,0,1,4.049,17h25.9C29.973,16.668,30,16.338,30,16ZM4.051,15A12.011,12.011,0,0,1,12.79,4.449,24.336,24.336,0,0,0,10.037,15Zm7.982,0a21.788,21.788,0,0,1,3.3-10.956,5.11,5.11,0,0,1,1.342,0A21.788,21.788,0,0,1,19.967,15Zm9.93,0A24.322,24.322,0,0,0,19.21,4.449,12.011,12.011,0,0,1,27.949,15Z"/><rect class="cls-2" x="6" y="18" width="21" height="13"/><path class="cls-3" d="M15.441,27.967A21.7,21.7,0,0,1,12,16H10a24.135,24.135,0,0,0,2.824,11.56A11.994,11.994,0,0,0,15.441,27.967Z"/><path class="cls-4" d="M7.818,7.589a13.466,13.466,0,0,1,4.873-3.03L11.616,2.438A14.182,14.182,0,0,0,6.053,5.824Z"/><path class="cls-5" d="M5.816,6.052a14.284,14.284,0,0,0-3.9,7.757l2.471.382a11.755,11.755,0,0,1,3.2-6.373Z"/><rect x="6.567" y="5.565" width="0.506" height="2.509" transform="translate(-2.825 6.82) rotate(-45)"/></mask><linearGradient id="linear-gradient-5" y1="32" x2="32" gradientUnits="userSpaceOnUse"><stop offset="0.1" stop-color="#08bdba"/><stop offset="0.9" stop-color="#0f62fe"/></linearGradient></defs><g id="Layer_2" data-name="Layer 2"><g id="Light_theme_icons" data-name="Light theme icons"><g class="cls-6"><rect class="cls-7" width="32" height="32"/></g><circle class="cls-8" cx="21" cy="21" r="2"/><circle class="cls-8" cx="7" cy="7" r="2"/><path class="cls-8" d="M27,31a4,4,0,1,1,4-4A4,4,0,0,1,27,31Zm0-6a2,2,0,1,0,2,2A2,2,0,0,0,27,25Z"/></g></g></svg>