<svg xmlns="http://www.w3.org/2000/svg" xmlns:xlink="http://www.w3.org/1999/xlink" viewBox="0 0 32 32"><defs><linearGradient id="9yvkpo2d7a" x1="-1710.75" y1="2541.75" x2="-1725.25" y2="2527.25" gradientTransform="translate(1730 -2529)" gradientUnits="userSpaceOnUse"><stop offset=".39"/><stop offset=".85" stop-opacity="0"/></linearGradient><linearGradient id="wm558uuwyb" x1="2752.25" y1="1619.75" x2="2737.75" y2="1605.25" gradientTransform="translate(-2725 -1586)" xlink:href="#9yvkpo2d7a"/><linearGradient id="qct4uknchd" y1="32" x2="32" gradientUnits="userSpaceOnUse"><stop offset=".1" stop-color="#08bdba"/><stop offset=".9" stop-color="#0f62fe"/></linearGradient><mask id="vq8hot4h8c" x="0" y="0" width="32" height="32" maskUnits="userSpaceOnUse"><path d="M29 17h-6.013v-2h4.972A12 12 0 0 0 7.515 7.515L6.1 6.1A14 14 0 0 1 30 16v1zM16 29.993A13.99 13.99 0 0 1 2 16v-1h6.988v2H4.041a12 12 0 0 0 20.444 7.484L25.9 25.9a13.952 13.952 0 0 1-9.9 4.093z" fill="#fff"/><path transform="rotate(90 12 5.5)" fill="url(#9yvkpo2d7a)" d="M7.5-4.5h9v20h-9z"/><path transform="rotate(-90 20 26.5)" fill="url(#wm558uuwyb)" d="M15.5 16.5h9v20h-9z"/></mask></defs><g data-name="Layer 2"><g data-name="Light theme icons"><g mask="url(#vq8hot4h8c)"><path fill="url(#qct4uknchd)" d="M0 0h32v32H0z"/></g><path d="M16 21a5 5 0 1 1 5-5 5.006 5.006 0 0 1-5 5zm0-8a3 3 0 1 0 3 3 3 3 0 0 0-3-3z" fill="#001d6c"/><circle cx="25" cy="25" r="2" fill="#001d6c"/><circle cx="7" cy="7" r="2" fill="#001d6c"/></g></g></svg>