<?xml version="1.0" encoding="utf-8"?>
<!-- Generator: Adobe Illustrator 26.3.1, SVG Export Plug-In . SVG Version: 6.00 Build 0)  -->
<svg version="1.1" id="CloudSecretsManager" xmlns="http://www.w3.org/2000/svg" xmlns:xlink="http://www.w3.org/1999/xlink"
	 x="0px" y="0px" viewBox="0 0 32 32" style="enable-background:new 0 0 32 32;" xml:space="preserve">
<style type="text/css">
	.st0{fill:#FFFFFF;filter:url(#Adobe_OpacityMaskFilter);}
	.st1{fill:url(#Gradients__black__00000127760554999437623520000015423378966557969839_);}
	.st2{fill:#FFFFFF;}
	.st3{mask:url(#mask_00000080170032556342732410000006503044123905103279_);}
	.st4{fill:url(#SVGID_1_);}
	.st5{fill:#001D6C;}
</style>
<defs>
	<filter id="Adobe_OpacityMaskFilter" filterUnits="userSpaceOnUse" x="0" y="0" width="32" height="32">
		<feColorMatrix  type="matrix" values="1 0 0 0 0  0 1 0 0 0  0 0 1 0 0  0 0 0 1 0"/>
	</filter>
</defs>
<mask maskUnits="userSpaceOnUse" x="0" y="0" width="32" height="32" id="mask_00000080170032556342732410000006503044123905103279_">
	<path class="st0" d="M16,30C8.3,30,2,23.7,2,16S8.3,2,16,2s14,6.3,14,14S23.7,30,16,30z M16,4C9.4,4,4,9.4,4,16s5.4,12,12,12
		s12-5.4,12-12S22.6,4,16,4z"/>
	
		<linearGradient id="Gradients__black__00000046333019819033526480000016108207533755926168_" gradientUnits="userSpaceOnUse" x1="1780.3301" y1="3801.4434" x2="1792.6711" y2="3801.4434" gradientTransform="matrix(-0.4622 1.077 0.646 0.2772 -1606.2531 -2954.4458)">
		<stop  offset="0.179" style="stop-color:#000000"/>
		<stop  offset="0.964" style="stop-color:#000000;stop-opacity:0"/>
	</linearGradient>
	
		<path id="Gradients__black__00000110469647860988995570000016417474501718521731_" style="fill:url(#Gradients__black__00000046333019819033526480000016108207533755926168_);" d="
		M31.8,17.5l-6,14l-9-3.9l6-14L31.8,17.5z"/>
	<path class="st2" d="M26,15h6v2h-6V15z"/>
</mask>
<g class="st3">
	
		<linearGradient id="SVGID_1_" gradientUnits="userSpaceOnUse" x1="-9.094947e-13" y1="-62" x2="32" y2="-30" gradientTransform="matrix(1 0 0 -1 0 -30)">
		<stop  offset="0.1" style="stop-color:#08BDBA"/>
		<stop  offset="0.9" style="stop-color:#0F62FE"/>
	</linearGradient>
	<path class="st4" d="M0,0h32v32H0V0z"/>
</g>
<path class="st5" d="M20,16c0-0.7-0.2-1.4-0.6-2l3.3-3.3l-1.4-1.4L18,12.6c-0.6-0.4-1.3-0.6-2-0.6s-1.4,0.2-2,0.6l-3.3-3.3l-1.4,1.4
	l3.3,3.3c-0.4,0.6-0.6,1.3-0.6,2s0.2,1.4,0.6,2l-3.3,3.3l1.4,1.4l3.3-3.3c0.6,0.4,1.3,0.6,2,0.6c0.7,0,1.4-0.2,2-0.6l3.3,3.3
	l1.4-1.4L19.4,18C19.8,17.4,20,16.7,20,16z M16,18c-1.1,0-2-0.9-2-2s0.9-2,2-2s2,0.9,2,2S17.1,18,16,18z"/>
</svg>
