<svg id="CloudPlatformAutomation" xmlns="http://www.w3.org/2000/svg" xmlns:xlink="http://www.w3.org/1999/xlink" viewBox="0 0 32 32"><defs><linearGradient id="f0e2b9y87a" x1="-208" y1="-80.5" x2="-198" y2="-80.5" gradientTransform="translate(218 86)" gradientUnits="userSpaceOnUse"><stop offset="0" stop-opacity="0"/><stop offset=".9"/></linearGradient><linearGradient id="z39sn3gfcb" x1="-1144" y1="6635.5" x2="-1134" y2="6635.5" gradientTransform="translate(1154 -6610)" xlink:href="#f0e2b9y87a"/><linearGradient id="8w1wki4xed" x1="0" y1="0" x2="32" y2="32" gradientUnits="userSpaceOnUse"><stop offset=".1" stop-color="#08bdba"/><stop offset=".9" stop-color="#0f62fe"/></linearGradient><mask id="geivrmi3vc" x="0" y="0" width="32" height="32" maskUnits="userSpaceOnUse"><path d="M5 25v-9.172l-3.586 3.586L0 18l6-6 6 6-1.414 1.414L7 15.828V25h12v2H7a2.002 2.002 0 0 1-2-2zM30.586 11.586 27 15.172V6a2.002 2.002 0 0 0-2-2H11v2h14v9.172l-3.586-3.586L20 13l6 6 6-6-1.414-1.414z" style="fill:#fff;stroke-width:0"/><path transform="rotate(180 15 5.5)" style="fill:url(#f0e2b9y87a);stroke-width:0" d="M10 3h10v5H10z"/><path style="fill:url(#z39sn3gfcb);stroke-width:0" d="M10 23h10v5H10z"/></mask></defs><g style="mask:url(#geivrmi3vc)"><path style="fill:url(#8w1wki4xed);stroke-width:0" d="M0 0h32v32H0z"/></g><path d="M24 22h4c1.103 0 2 .897 2 2v4c0 1.103-.897 2-2 2h-4c-1.103 0-2-.897-2-2v-4c0-1.103.897-2 2-2zm4 6v-4h-4.001v4H28zM2 2h8v2H2zM2 6h5v2H2z" style="fill:#001d6c;stroke-width:0"/></svg>