<svg xmlns="http://www.w3.org/2000/svg" viewBox="0 0 32 32"><defs><linearGradient id="dwl5r1u8qa" x1="766.365" y1="-770.54" x2="775.557" y2="-779.733" gradientTransform="rotate(45 -576.845 -1285.24)" gradientUnits="userSpaceOnUse"><stop offset=".024" stop-opacity="0"/><stop offset=".64"/></linearGradient><linearGradient id="qehmigg3mc" y1="32" x2="32" gradientUnits="userSpaceOnUse"><stop offset=".1" stop-color="#08bdba"/><stop offset=".9" stop-color="#0f62fe"/></linearGradient><mask id="4eqhx1dfsb" x="0" y="0" width="32" height="32" maskUnits="userSpaceOnUse"><path d="M21 30H4a2 2 0 0 1-2-2V4a2 2 0 0 1 2-2h24a2 2 0 0 1 2 2v12h-2V4H4v24h17z" fill="#fff"/><path fill="url(#dwl5r1u8qa)" d="M9 26h13v5H9z"/></mask></defs><g data-name="Layer 2"><g data-name="Build icon here"><g mask="url(#4eqhx1dfsb)"><path fill="url(#qehmigg3mc)" d="M0 0h32v32H0z"/></g><path d="M28 30h-5a2 2 0 0 1-2-2v-5a2 2 0 0 1 2-2h5a2 2 0 0 1 2 2v5a2 2 0 0 1-2 2zm-5-7v5h5v-5zm-7 0h-5a2 2 0 0 1-2-2V11a2 2 0 0 1 2-2h10a2 2 0 0 1 2 2v5h-2v-5H11v10h5z" fill="#001d6c"/></g></g></svg>