<svg data-name="Build icon here" xmlns="http://www.w3.org/2000/svg" viewBox="0 0 32 32"><defs><linearGradient id="gyghceu9ia" x1="2" y1="23" x2="30" y2="23" gradientUnits="userSpaceOnUse"><stop offset=".05" stop-opacity="0"/><stop offset=".2"/><stop offset=".8"/><stop offset=".95" stop-opacity="0"/></linearGradient><linearGradient id="4pklv73kqc" x1="-7398.004" y1="-1151.998" x2="-7430.004" y2="-1119.998" gradientTransform="translate(7430.004 1151.996)" gradientUnits="userSpaceOnUse"><stop offset=".1" stop-color="#a56eff"/><stop offset=".9" stop-color="#0f62fe"/></linearGradient><mask id="n69yu7n6bb" x="0" y="0" width="32" height="32" maskUnits="userSpaceOnUse"><path d="M25.91 10.13a.12.12 0 0 1-.1-.1 10.01 10.01 0 0 0-19.627 0 .12.12 0 0 1-.1.1A7.5 7.5 0 0 0 7.491 25H14v-2H7.5a5.51 5.51 0 0 1-5.438-6.3 5.7 5.7 0 0 1 4.714-4.661l1.016-.184a.13.13 0 0 0 .105-.1l.18-.935a8.28 8.28 0 0 1 6.846-6.743 7.944 7.944 0 0 1 2.848.125 8.219 8.219 0 0 1 6.147 6.545l.194 1.008a.129.129 0 0 0 .105.1l1.057.192a5.773 5.773 0 0 1 3.1 1.539A5.5 5.5 0 0 1 24.508 23H18v2h6.508a7.5 7.5 0 0 0 1.4-14.87z" fill="#fff"/><path fill="url(#gyghceu9ia)" d="M2 18h28v10H2z"/></mask></defs><g mask="url(#n69yu7n6bb)"><path transform="rotate(-180 16 16)" fill="url(#4pklv73kqc)" d="M0 0h32v32H0z"/></g><path fill="#001d6c" d="M10 16h12v2H10zm2-5h8v2h-8zm10 18H10a2 2 0 0 1-2-2v-4a2 2 0 0 1 2-2h12a2 2 0 0 1 2 2v4a2 2 0 0 1-2 2zm-12-6v4h12v-4z"/><circle cx="13" cy="25" r="1" fill="#001d6c"/></svg>