<svg xmlns="http://www.w3.org/2000/svg" xmlns:xlink="http://www.w3.org/1999/xlink" viewBox="0 0 32 32"><defs><style>.cls-1{fill:#fff;}.cls-2{fill:url(#linear-gradient);}.cls-3{fill:url(#linear-gradient-2);}.cls-4{fill:url(#linear-gradient-3);}.cls-5{mask:url(#mask);}.cls-6{fill:url(#linear-gradient-4);}.cls-7{fill:#001d6c;}</style><linearGradient id="linear-gradient" x1="3.127" y1="18.243" x2="17.873" y2="26.757" gradientUnits="userSpaceOnUse"><stop offset="0.35" stop-opacity="0"/><stop offset="0.67"/></linearGradient><linearGradient id="linear-gradient-2" x1="23" y1="21" x2="23" y2="7" gradientUnits="userSpaceOnUse"><stop offset="0.2" stop-opacity="0"/><stop offset="0.6"/></linearGradient><linearGradient id="linear-gradient-3" x1="5.826" y1="9.301" x2="15.174" y2="14.699" gradientUnits="userSpaceOnUse"><stop offset="0.34" stop-opacity="0"/><stop offset="0.68"/></linearGradient><mask id="mask" x="0" y="0" width="32" height="32" maskUnits="userSpaceOnUse"><path class="cls-1" d="M21.5,5.488l1-1.73A12.907,12.907,0,0,0,6.6,6.06,3,3,0,0,0,3,9a2.973,2.973,0,0,0,.688,1.888A12.842,12.842,0,0,0,3,15,13.01,13.01,0,0,0,14,27.83V25.809A11.012,11.012,0,0,1,5,15a10.854,10.854,0,0,1,.441-3.056A3.036,3.036,0,0,0,6,12a2.973,2.973,0,0,0,1.9-.7l4.588,2.753,1.03-1.715L8.94,9.6A3.025,3.025,0,0,0,9,9a2.972,2.972,0,0,0-.666-1.862A10.923,10.923,0,0,1,21.5,5.488ZM6,10A1,1,0,1,1,7,9,1,1,0,0,1,6,10Z"/><path class="cls-1" d="M28.363,11H26.236A10.945,10.945,0,0,1,21.5,24.513l1,1.73A12.952,12.952,0,0,0,28.363,11Z"/><rect class="cls-2" x="5" y="15" width="11" height="15"/><rect class="cls-3" x="16" y="7" width="14" height="14"/><rect class="cls-4" x="6" y="9" width="9" height="6"/></mask><linearGradient id="linear-gradient-4" y1="32" x2="32" gradientUnits="userSpaceOnUse"><stop offset="0.1" stop-color="#a56eff"/><stop offset="0.9" stop-color="#0f62fe"/></linearGradient></defs><g id="Layer_2" data-name="Layer 2"><g id="Light_theme_icons" data-name="Light theme icons"><g class="cls-5"><rect class="cls-6" width="32" height="32"/></g><path class="cls-7" d="M26,6a3,3,0,0,0-2.94,3.6L18.8,12.152A3.993,3.993,0,1,0,15,18.858v5.326a3,3,0,1,0,2,0V18.858A4,4,0,0,0,20,15a3.953,3.953,0,0,0-.181-1.125L24.1,11.3A2.969,2.969,0,0,0,26,12a3,3,0,0,0,0-6ZM16,28a1,1,0,1,1,1-1A1,1,0,0,1,16,28Zm0-11a2,2,0,1,1,2-2A2,2,0,0,1,16,17Zm10-7a1,1,0,1,1,1-1A1,1,0,0,1,26,10Z"/></g></g></svg>