<svg xmlns="http://www.w3.org/2000/svg" viewBox="0 0 32 32"><defs><linearGradient id="bsjxcvnzfa" x1="3698.976" y1="2764.024" x2="3698.976" y2="2754.024" gradientTransform="translate(-3680.976 -2735.024)" gradientUnits="userSpaceOnUse"><stop offset=".2"/><stop offset="1" stop-opacity="0"/></linearGradient><linearGradient id="hmmlqj4rdc" y1="32" x2="32" gradientUnits="userSpaceOnUse"><stop offset=".1" stop-color="#08bdba"/><stop offset=".9" stop-color="#0f62fe"/></linearGradient><mask id="ng0h0707yb" x="0" y="0" width="32" height="32" maskUnits="userSpaceOnUse"><path d="M22 25H4a2 2 0 0 1-2-2V8a2 2 0 0 1 2-2h22a1 1 0 0 1 .673 1.74L15.028 18.326l-7.741-6.47 1.282-1.536 6.4 5.354L23.413 8H4v15h18z" fill="#fff"/><path transform="rotate(-90 18 24)" fill="url(#bsjxcvnzfa)" d="M16 19h4v10h-4z"/></mask></defs><g data-name="Layer 2"><g data-name="Light theme icons"><g mask="url(#ng0h0707yb)"><path fill="url(#hmmlqj4rdc)" d="M0 0h32v32H0z"/></g><path fill="#001d6c" d="M25 17.83V28h2V17.83l2.59 2.58L31 19l-5-5-5 5 1.41 1.41L25 17.83z"/></g></g></svg>