<svg id="CloudReservations" xmlns="http://www.w3.org/2000/svg" viewBox="0 0 32 32"><defs><linearGradient id="acj77rjs2a" x1="2357.434" y1="-991.775" x2="2357.434" y2="-1011.775" gradientTransform="matrix(1 0 0 -.99 -2341.434 -975.707)" gradientUnits="userSpaceOnUse"><stop offset=".31"/><stop offset=".76" stop-opacity="0"/></linearGradient><linearGradient id="be5f0k1wuc" x1="0" y1="32" x2="32" y2="0" gradientUnits="userSpaceOnUse"><stop offset=".1" stop-color="#a56eff"/><stop offset=".9" stop-color="#0f62fe"/></linearGradient><mask id="gtq454wscb" x="0" y="0" width="32" height="32" maskUnits="userSpaceOnUse"><path d="M23.707 22.293 10 8.586V2H2v8h6.586l13.707 13.707 1.414-1.414zM8 8H4V4h4v4z" style="fill:#fff;stroke-width:0"/><path transform="rotate(135 16 16)" style="fill:url(#acj77rjs2a);stroke-width:0" d="M11 6.101h10V25.9H11z"/><path d="M24 31c-3.859 0-7-3.14-7-7s3.141-7 7-7 7 3.14 7 7-3.141 7-7 7zm0-12c-2.757 0-5 2.243-5 5s2.243 5 5 5 5-2.243 5-5-2.243-5-5-5z" style="fill:#fff;stroke-width:0"/><path style="fill:#fff;stroke-width:0" d="M25.58 26.994 23 24.414V21h2v2.586l1.994 1.994-1.414 1.414z"/></mask></defs><g style="mask:url(#gtq454wscb)"><path style="fill:url(#be5f0k1wuc);stroke-width:0" d="M0 0h32v32H0z"/></g><path d="M14 28H6c-1.103 0-2-.897-2-2V13h2v13h8v2zM28 14h-2V6H13V4h13c1.103 0 2 .897 2 2v8z" style="fill:#001b71;stroke-width:0"/></svg>