<svg xmlns="http://www.w3.org/2000/svg" viewBox="0 0 32 32"><defs><linearGradient id="kryx7mnqja" x1="6.5" y1="17" x2="6.5" y2="7" gradientUnits="userSpaceOnUse"><stop offset=".1"/><stop offset="1" stop-opacity="0"/></linearGradient><linearGradient id="c7qp2290wb" x1="25.5" y1="25" x2="25.5" y2="15" gradientUnits="userSpaceOnUse"><stop offset="0" stop-opacity="0"/><stop offset=".9"/></linearGradient><linearGradient id="058vbazcod" y1="32" x2="32" gradientUnits="userSpaceOnUse"><stop offset=".1" stop-color="#08bdba"/><stop offset=".9" stop-color="#0f62fe"/></linearGradient><mask id="fi3mq4lfec" x="0" y="0" width="32" height="32" maskUnits="userSpaceOnUse"><path d="M16 28H6v-2h10a10.011 10.011 0 0 0 10-10h2a12.013 12.013 0 0 1-12 12zM6 16H4A12.013 12.013 0 0 1 16 4h9v2h-9A10.011 10.011 0 0 0 6 16z" fill="#fff"/><path fill="url(#kryx7mnqja)" d="M1 7h11v10H1z"/><path fill="url(#c7qp2290wb)" d="M20 15h11v10H20z"/></mask></defs><g data-name="Layer 2"><g data-name="Light theme icons"><g mask="url(#fi3mq4lfec)"><path fill="url(#058vbazcod)" d="M0 0h32v32H0z"/></g><path d="M27 11a1.975 1.975 0 0 0-1.73 1H16a4 4 0 0 0-4 4 3.959 3.959 0 0 0 .556 2H6.73a2 2 0 1 0 0 2H16a4 4 0 0 0 4-4 3.959 3.959 0 0 0-.556-2h5.826A2 2 0 1 0 27 11zm-9 5a2 2 0 1 1-2-2 2 2 0 0 1 2 2z" fill="#001d6c"/></g></g></svg>