<svg xmlns="http://www.w3.org/2000/svg" viewBox="0 0 128 128"><defs><linearGradient id="lrnhzzewqb" y1="128" x2="128" gradientUnits="userSpaceOnUse"><stop offset=".1" stop-color="#009d9a"/><stop offset=".9" stop-color="#24a148"/></linearGradient><mask id="i1vblswm4a" x="0" y="0" width="128" height="128" maskUnits="userSpaceOnUse"><path d="M57.422 49.908h-.367l-4.969 10.211L38.93 84.406 25.773 60.119l-4.968-10.211h-.367V96h-11.5V31.783h13.71l16.465 31.373h.371l16.282-31.373h13.156V96h-11.5zm69.183 50.139a15.8 15.8 0 0 1-1.335 6.672 11.308 11.308 0 0 1-4.368 4.828 23.723 23.723 0 0 1-7.82 2.945A57.4 57.4 0 0 1 101.4 115.5a57.989 57.989 0 0 1-10.3-.781 24.8 24.8 0 0 1-6.946-2.207 9.259 9.259 0 0 1-3.91-3.543 9.542 9.542 0 0 1-1.2-4.785 8.521 8.521 0 0 1 2.254-6.3 11.107 11.107 0 0 1 6.3-2.9v-1.007a7.822 7.822 0 0 1-4.555-2.9 8.329 8.329 0 0 1-1.609-5.113 7.026 7.026 0 0 1 .734-3.273 7.68 7.68 0 0 1 1.98-2.442 12.226 12.226 0 0 1 2.805-1.7 16.648 16.648 0 0 1 3.313-1.059v-.371a14.375 14.375 0 0 1-6.578-5.605 15.879 15.879 0 0 1-2.165-8.365 14.967 14.967 0 0 1 5.063-11.811q5.056-4.462 14.812-4.461a34.673 34.673 0 0 1 4.368.277 19.662 19.662 0 0 1 4 .92V46.5q0-6.99 6.808-6.992h7.449v9.015h-10.207v1.289a13.925 13.925 0 0 1 5.614 5.52 16.2 16.2 0 0 1 1.84 7.82 14.809 14.809 0 0 1-5.016 11.684q-5.016 4.412-14.856 4.414a28.9 28.9 0 0 1-7.363-.828 7.951 7.951 0 0 0-2.39 1.7 3.64 3.64 0 0 0-1.012 2.621q0 3.593 6.258 3.59h12.879q8.829 0 12.832 3.633t4.003 10.081zm-11.039 1.383a4.142 4.142 0 0 0-1.839-3.59c-1.231-.86-3.344-1.289-6.352-1.289H91a5.863 5.863 0 0 0-2.484 4.969 4.949 4.949 0 0 0 2.3 4.324q2.3 1.565 7.821 1.562h5.886q5.8 0 8.418-1.468a4.84 4.84 0 0 0 2.625-4.508zM101.4 71.16q8.643 0 8.645-7.318v-1.555q0-7.318-8.645-7.318t-8.65 7.318v1.555q0 7.316 8.65 7.318z" fill="#fff"/></mask></defs><g data-name="Layer 2"><g mask="url(#i1vblswm4a)" data-name="Light theme icons"><path fill="url(#lrnhzzewqb)" d="M0 0h128v128H0z"/></g></g></svg>