<svg xmlns="http://www.w3.org/2000/svg" viewBox="0 0 32 32"><defs><linearGradient id="CloudPakAutomation_svg__a" x1="28" y1="22" x2="28" y2="11" gradientUnits="userSpaceOnUse"><stop offset="0" stop-opacity="0"/><stop offset=".9"/></linearGradient><linearGradient id="CloudPakAutomation_svg__c" x1="-3235" y1="609" x2="-3203" y2="577" gradientTransform="matrix(1 0 0 -1 3235 609)" gradientUnits="userSpaceOnUse"><stop offset=".1" stop-color="#08bdba"/><stop offset=".9" stop-color="#0f62fe"/></linearGradient><mask id="CloudPakAutomation_svg__b" x="0" y="0" width="32" height="32" maskUnits="userSpaceOnUse"><path d="M16 31a1 1 0 01-.5-.136l-12-7A1 1 0 013 23V9a1 1 0 01.5-.864l12-7a1 1 0 011.008 0l12 7L27.5 9.864 16 3.158 5 9.574v12.852l11 6.417 11-6.417V12h2v11a1 1 0 01-.5.864l-12 7A1 1 0 0116 31z" fill="#fff"/><path fill="url(#CloudPakAutomation_svg__a)" d="M26 11h4v11h-4z"/></mask></defs><g data-name="Layer 2"><g data-name="Light theme icons"><g mask="url(#CloudPakAutomation_svg__b)"><path transform="rotate(-90 16 16)" fill="url(#CloudPakAutomation_svg__c)" d="M0 0h32v32H0z"/></g><path d="M21 16a4.918 4.918 0 00-.278-1.572l1.84-1.062-1-1.732-1.839 1.066A4.979 4.979 0 0017 11.1V9h-2v2.1a4.979 4.979 0 00-2.723 1.6l-1.839-1.062-1 1.732 1.84 1.062a4.584 4.584 0 000 3.144l-1.84 1.062 1 1.732 1.839-1.07A4.979 4.979 0 0015 20.9V23h2v-2.1a4.979 4.979 0 002.723-1.6l1.839 1.062 1-1.732-1.84-1.062A4.918 4.918 0 0021 16zm-5 3a3 3 0 113-3 3 3 0 01-3 3z" fill="#001d6c"/></g></g></svg>