<svg id="cache" xmlns="http://www.w3.org/2000/svg" viewBox="0 0 32 32"><defs><linearGradient id="ahgyxci6yb" x1="0" y1="32" x2="32" y2="0" gradientUnits="userSpaceOnUse"><stop offset=".1" stop-color="#ed0017"/><stop offset=".9" stop-color="#80000b"/></linearGradient><mask id="vgudo8qrva" x="0" y="0" width="32" height="32" maskUnits="userSpaceOnUse"><path d="M3.05 17.09c0-5.404 2.69-8.417 6.922-8.417 2.874 0 4.737 1.219 5.863 3.703l-2.598 1.379c-.46-1.426-1.472-2.392-3.266-2.392-2.254 0-3.702 1.633-3.702 4.369v2.53c0 2.759 1.448 4.322 3.702 4.322 1.816 0 2.943-1.104 3.473-2.552l2.46 1.448c-1.149 2.392-3.059 3.794-5.933 3.794-4.231 0-6.922-2.782-6.922-8.186zM18.321 7.984h2.943v7.014h.115c.483-1.288 1.495-2.276 3.357-2.276 2.461 0 3.84 1.701 3.84 4.69v7.589h-2.943v-7.29c0-1.701-.574-2.575-1.978-2.575-1.219 0-2.392.644-2.392 1.932v7.934H18.32V7.984z" style="fill:#fff"/></mask></defs><g style="mask:url(#vgudo8qrva)"><path id="Color" style="fill:url(#ahgyxci6yb)" d="M0 0h32v32H0z"/></g></svg>