<svg id="CloudManagementConsole" xmlns="http://www.w3.org/2000/svg" xmlns:xlink="http://www.w3.org/1999/xlink" viewBox="0 0 32 32"><defs><linearGradient id="9t6cea2s9a" x1="-1438.697" y1="692.577" x2="-1423.383" y2="692.577" gradientTransform="matrix(-1 0 0 1 -1414.582 -665.093)" gradientUnits="userSpaceOnUse"><stop offset=".393"/><stop offset="1" stop-opacity="0"/></linearGradient><linearGradient id="8z7d9xt2mb" x1="180.454" y1="-2151.577" x2="195.768" y2="-2151.577" gradientTransform="matrix(1 0 0 -1 -172.582 -2147.093)" xlink:href="#9t6cea2s9a"/><linearGradient id="7diiyz3yfc" x1="-1561.112" y1="-4359.921" x2="-1565.259" y2="-4359.921" gradientTransform="translate(1584.178 4372.833)" xlink:href="#9t6cea2s9a"/><linearGradient id="tancdqbivd" x1="-1564.093" y1="-4369.921" x2="-1568.259" y2="-4369.921" gradientTransform="translate(1577.169 4385.823)" xlink:href="#9t6cea2s9a"/><linearGradient id="1y1nryt7kf" x1="0" y1="32" x2="32" y2="0" gradientUnits="userSpaceOnUse"><stop offset=".1" stop-color="#08bdba"/><stop offset=".9" stop-color="#0f62fe"/></linearGradient><mask id="6aa9xa7n3e" width="32" height="32" maskUnits="userSpaceOnUse"><path d="M12.993 4.384c1-.3 2-.4 3-.4 6.6 0 12 5.4 12 12 0 3.3-1.3 6.3-3.5 8.5l1.4 1.4c2.5-2.5 4.1-6 4.1-9.9 0-7.7-6.3-14-14-14-1 0-2 .1-3 .3v2.1zM18.993 27.584c-1 .2-2 .4-3 .4-6.6 0-12-5.4-12-12 0-3.3 1.3-6.3 3.5-8.5l-1.4-1.4c-2.5 2.5-4.1 6-4.1 9.9 0 7.7 6.3 14 14 14 1 0 2-.1 3-.3v-2.1z" style="fill:#fff"/><path id="BottomMask" d="M7.993 23.984v7h12v-4l-12-3z" style="fill:url(#9t6cea2s9a)"/><path id="TopMask" d="M23.993 7.984v-7h-12v4l12 3z" style="fill:url(#8z7d9xt2mb)"/><g><path transform="rotate(-90 20.993 15.984)" style="fill:#fff" d="M15.993 14.985h10v2h-10z"/><path transform="rotate(-90 20.993 12.912)" style="fill:url(#7diiyz3yfc)" d="M18.919 11.323h4.147V14.5h-4.147z"/></g><g><path transform="rotate(-90 10.993 17.485)" style="fill:#fff" d="M7.493 16.485h7v2h-7z"/><path transform="rotate(-90 10.993 15.902)" style="fill:url(#tancdqbivd)" d="M8.91 14.164h4.166v3.475H8.91z"/></g></mask></defs><g style="mask:url(#6aa9xa7n3e)"><path style="fill:url(#1y1nryt7kf)" d="M0 0h32v32H0z"/></g><rect x="21.993" y="25.984" width="2" height="2" rx="1" ry="1" style="fill:#001d6c"/><rect x="7.993" y="3.984" width="2" height="2" rx="1" ry="1" style="fill:#001d6c"/><path style="fill:#001d6c" d="M14.993 9.984h2v11h-2z"/></svg>