<svg id="CloudStack" xmlns="http://www.w3.org/2000/svg" viewBox="0 0 32 32"><defs><linearGradient id="o8uehyp8za" x1="24.387" y1="16.389" x2="33.324" y2="11.355" gradientTransform="rotate(-180 25.759 13.64)" gradientUnits="userSpaceOnUse"><stop offset=".081"/><stop offset=".75" stop-opacity="0"/></linearGradient><linearGradient id="nxjl14t0jc" x1="0" y1="32" x2="32" y2="0" gradientUnits="userSpaceOnUse"><stop offset=".1" stop-color="#ee5396"/><stop offset=".9" stop-color="#8a3ffc"/></linearGradient><mask id="goabxiokcb" x="0" y="0" width="32" height="32" maskUnits="userSpaceOnUse"><path style="fill:none;stroke:#fff;stroke-linejoin:round;stroke-width:2px" d="M28.529 9.745 16 3 3 10l13 7 11-5.923"/><path style="fill:none;stroke:#fff;stroke-linejoin:round;stroke-width:2px" d="M3.487 16.262 16 23l12.529-6.746"/><path style="fill:url(#o8uehyp8za);fill-rule:evenodd;stroke-width:0" d="m19.764 17.565 8.9-5.06L26.705 10 19 12.944l.764 4.621z"/></mask></defs><g style="mask:url(#goabxiokcb)"><path style="fill:url(#nxjl14t0jc);stroke-width:0" d="M0 0h32v32H0z"/></g><path d="M16 30c-.163 0-.326-.04-.474-.119L3.004 23.147l.947-1.762L16 27.864l12.055-6.49.947 1.762-12.528 6.745A1.004 1.004 0 0 1 16 30z" style="fill:#001d6c;stroke-width:0"/></svg>