<svg xmlns="http://www.w3.org/2000/svg" viewBox="0 0 32 32"><defs><linearGradient id="4vpm3floxa" x1="28" y1="22" x2="28" y2="11" gradientUnits="userSpaceOnUse"><stop offset="0" stop-opacity="0"/><stop offset=".9"/></linearGradient><linearGradient id="5o66cex00c" x1="-3085" y1="759" x2="-3053" y2="727" gradientTransform="matrix(1 0 0 -1 3085 759)" gradientUnits="userSpaceOnUse"><stop offset=".1" stop-color="#08bdba"/><stop offset=".9" stop-color="#0f62fe"/></linearGradient><mask id="jjr03g6qqb" x="0" y="0" width="32" height="32" maskUnits="userSpaceOnUse"><path d="M16 31a1 1 0 0 1-.5-.136l-12-7A1 1 0 0 1 3 23V9a1 1 0 0 1 .5-.864l12-7a1 1 0 0 1 1.008 0l12 7L27.5 9.864 16 3.158 5 9.574v12.852l11 6.417 11-6.417V12h2v11a1 1 0 0 1-.5.864l-12 7A1 1 0 0 1 16 31z" fill="#fff"/><path fill="url(#4vpm3floxa)" d="M26 11h4v11h-4z"/></mask></defs><g data-name="Layer 2"><g data-name="Light theme icons"><g mask="url(#jjr03g6qqb)"><path transform="rotate(-90 16 16)" fill="url(#5o66cex00c)" d="M0 0h32v32H0z"/></g><path d="M21 14.006h-6.009a2 2 0 0 0-2 2v4a2 2 0 0 0 2 2H21a2 2 0 0 0 2-2v-4a2 2 0 0 0-2-2zm0 6h-6.009v-4H21z" fill="#001d6c"/><path d="M17 11.993v-2h-6a2 2 0 0 0-2 2v4.994h2v-4.994z" fill="#001d6c"/></g></g></svg>