<svg xmlns="http://www.w3.org/2000/svg" xmlns:xlink="http://www.w3.org/1999/xlink" viewBox="0 0 32 32"><defs><style>.cls-1{fill:#fff;}.cls-2{fill:url(#linear-gradient);}.cls-3{fill:url(#linear-gradient-2);}.cls-4{mask:url(#mask);}.cls-5{fill:url(#linear-gradient-3);}.cls-6{fill:#001d6c;}</style><linearGradient id="linear-gradient" x1="26.5" y1="30" x2="26.5" y2="8" gradientUnits="userSpaceOnUse"><stop offset="0.3"/><stop offset="0.95" stop-opacity="0"/></linearGradient><linearGradient id="linear-gradient-2" x1="965.5" y1="4154" x2="965.5" y2="4132" gradientTransform="translate(-960 -4130)" xlink:href="#linear-gradient"/><mask id="mask" x="0" y="0" width="32" height="32" maskUnits="userSpaceOnUse"><path class="cls-1" d="M24.524,27.11A14,14,0,0,0,10.642,3.066l.766,1.847a12,12,0,0,1,11.9,20.609Z"/><path class="cls-1" d="M10.645,28.928a13.958,13.958,0,0,0,10.713.006l-.766-1.847A12,12,0,0,1,8.692,6.478L7.476,4.89a13.995,13.995,0,0,0,3.169,24.038Z"/><rect class="cls-2" x="22" y="8" width="9" height="22"/><rect class="cls-3" x="1" y="2" width="9" height="22" transform="translate(11 26) rotate(180)"/></mask><linearGradient id="linear-gradient-3" y1="32" x2="32" gradientUnits="userSpaceOnUse"><stop offset="0.1" stop-color="#08bdba"/><stop offset="0.9" stop-color="#0f62fe"/></linearGradient></defs><g id="Layer_2" data-name="Layer 2"><g id="Light_theme_icons" data-name="Light theme icons"><g class="cls-4"><rect class="cls-5" width="32" height="32"/></g><path class="cls-6" d="M25,23a2,2,0,1,0,2,2A1.981,1.981,0,0,0,25,23Z"/><path class="cls-6" d="M7,5A2,2,0,1,0,9,7,1.981,1.981,0,0,0,7,5Z"/><path class="cls-6" d="M22,12a3.978,3.978,0,0,0-2.891,1.251L15.95,11.5a3,3,0,1,0-4.482,2.07l-.9,4.478A2.994,2.994,0,1,0,14,21c0-.087-.018-.168-.026-.253L18.906,18.5A3.992,3.992,0,1,0,22,12Zm-9-2a1,1,0,1,1-1,1A1,1,0,0,1,13,10ZM11,22a1,1,0,1,1,.921-1.39v0A1,1,0,0,1,11,22Zm2.156-3.078a3.019,3.019,0,0,0-.624-.487l.9-4.478a2.976,2.976,0,0,0,1.545-.716L18.142,15a3.515,3.515,0,0,0-.072,1.687ZM22,18a2,2,0,1,1,2-2A2,2,0,0,1,22,18Z"/></g></g></svg>