<svg xmlns="http://www.w3.org/2000/svg" viewBox="0 0 32 32"><defs><linearGradient id="mt4mfavexa" x1="-846.562" y1="310.653" x2="-846.562" y2="290.653" gradientTransform="matrix(1 0 0 -.99 862.562 313.632)" gradientUnits="userSpaceOnUse"><stop offset=".05"/><stop offset=".6" stop-opacity="0"/></linearGradient><linearGradient id="xu2x8li8qc" y1="32" x2="32" gradientUnits="userSpaceOnUse"><stop offset=".1" stop-color="#8a3ffc"/><stop offset=".9" stop-color="#ee5396"/></linearGradient><mask id="zqheu46hcb" x="0" y="0" width="32" height="32" maskUnits="userSpaceOnUse"><path d="M23.707 22.293 10 8.586V2H2v8h6.586l13.707 13.707zM8 8H4V4h4z" fill="#fff"/><path transform="rotate(135 16 16)" fill="url(#mt4mfavexa)" d="M11 6.101h10V25.9H11z"/><path d="M30 30h-8v-8h8zm-6-2h4v-4h-4z" fill="#fff"/></mask></defs><g data-name="Layer 2"><g data-name="Light theme icons"><g mask="url(#zqheu46hcb)"><path fill="url(#xu2x8li8qc)" d="M0 0h32v32H0z"/></g><path d="M7 22.142V13H5v9.142A3.992 3.992 0 1 0 9.858 27H19v-2H9.858A4 4 0 0 0 7 22.142zM6 28a2 2 0 1 1 2-2 2 2 0 0 1-2 2zM30 6a3.992 3.992 0 0 0-7.858-1H13v2h9.142A4 4 0 0 0 25 9.858V19h2V9.858A4 4 0 0 0 30 6zm-4 2a2 2 0 1 1 2-2 2 2 0 0 1-2 2z" fill="#001d6c"/></g></g></svg>