<svg xmlns="http://www.w3.org/2000/svg" xmlns:xlink="http://www.w3.org/1999/xlink" viewBox="0 0 32 32"><defs><linearGradient id="m84dwf7qea" x1="3514.097" y1="-3541.096" x2="3523.097" y2="-3541.096" gradientTransform="translate(-3492.597 3563.596)" gradientUnits="userSpaceOnUse"><stop offset=".2" stop-opacity="0"/><stop offset=".8"/></linearGradient><linearGradient id="8l8ny1hcab" x1="3514.097" y1="-3521.096" x2="3523.097" y2="-3521.096" gradientTransform="translate(-3512.597 3543.596)" xlink:href="#m84dwf7qea"/><linearGradient id="j6xidxqo7c" x1="3514.097" y1="-3531.096" x2="3523.097" y2="-3531.096" gradientTransform="translate(-3502.597 3553.596)" xlink:href="#m84dwf7qea"/><linearGradient id="adqbue6pne" y1="32" x2="32" gradientUnits="userSpaceOnUse"><stop offset=".1" stop-color="#08bdba"/><stop offset=".9" stop-color="#0f62fe"/></linearGradient><mask id="057qypmthd" x="0" y="0" width="32" height="32" maskUnits="userSpaceOnUse"><path d="M25 16h-8v-4h-2v4H7a2 2 0 0 0-2 2v8h2v-8h8v8h2v-8h8v8h2v-8a2 2 0 0 0-2-2z" fill="#fff"/><path transform="rotate(90 26 22.5)" fill="url(#m84dwf7qea)" d="M21.5 20.5h9v4h-9z" data-name="Gradients (black)"/><path transform="rotate(90 6 22.5)" fill="url(#8l8ny1hcab)" d="M1.5 20.5h9v4h-9z" data-name="Gradients (black)"/><path transform="rotate(90 16 22.5)" fill="url(#j6xidxqo7c)" d="M11.5 20.5h9v4h-9z" data-name="Gradients (black)"/></mask></defs><g data-name="Layer 2"><g mask="url(#057qypmthd)"><path fill="url(#adqbue6pne)" d="M0 0h32v32H0z"/></g><path d="M20 10V2h-8v8h8zm-6-2V4h4v4zM4 26h4v4H4zm10 0h4v4h-4zm10 0h4v4h-4z" fill="#001d6c"/></g></svg>