<svg id="CloudPAL" xmlns="http://www.w3.org/2000/svg" viewBox="0 0 32 32"><defs><linearGradient id="autbky2h6a" x1="-197.002" y1="-137" x2="-188" y2="-137" gradientTransform="translate(205.002 162)" gradientUnits="userSpaceOnUse"><stop offset="0" stop-opacity="0"/><stop offset=".8"/></linearGradient><linearGradient id="gvcy4zk6fc" x1="-1210" y1="32" x2="-1242" y2="0" gradientTransform="matrix(1 0 0 -1 1242 32)" gradientUnits="userSpaceOnUse"><stop offset=".1" stop-color="#08bdba"/><stop offset=".9" stop-color="#0f62fe"/></linearGradient><mask id="juqowykrnb" y="0" width="32" height="32" maskUnits="userSpaceOnUse"><path d="M16 26H9c-4.411 0-8-3.589-8-8 0-3.718 2.599-6.937 6.158-7.778A9.965 9.965 0 0 1 17 2c5.514 0 10 4.486 10 10h-2c0-4.411-3.589-8-8-8a7.971 7.971 0 0 0-7.957 7.174l-.08.783-.78.106A6.016 6.016 0 0 0 3 18c0 3.309 2.691 6 6 6h7v2z" style="fill:#fff"/><path style="fill:url(#autbky2h6a)" d="M8 23h9.002v4H8z"/></mask></defs><g style="mask:url(#juqowykrnb)"><path transform="rotate(180 16 16)" style="fill:url(#gvcy4zk6fc)" d="M0 0h32v32H0z"/></g><path d="m30.509 17.689-6-3.55a.999.999 0 0 0-1.018 0l-6 3.55a1 1 0 0 0-.491.86v6.9c0 .354.187.681.491.86l6 3.55a.999.999 0 0 0 1.018 0l6-3.55a1 1 0 0 0 .491-.86v-6.9a.998.998 0 0 0-.491-.86zM29 24.879l-5 2.958-5-2.958v-5.76l5-2.958 5 2.958v5.76z" style="fill:#001d6c"/></svg>