<svg xmlns="http://www.w3.org/2000/svg" xmlns:xlink="http://www.w3.org/1999/xlink" viewBox="0 0 32 32"><defs><style>.cls-1{fill:#fff;}.cls-2{fill:url(#linear-gradient);}.cls-3{mask:url(#mask);}.cls-4{fill:url(#linear-gradient-2);}.cls-5{fill:#001d6c;}</style><linearGradient id="linear-gradient" x1="26" y1="26" x2="26" y2="4" gradientUnits="userSpaceOnUse"><stop offset="0.5" stop-opacity="0"/><stop offset="0.9"/></linearGradient><mask id="mask" x="0" y="0" width="32" height="32" maskUnits="userSpaceOnUse"><path class="cls-1" d="M25,5V28H7V7h3v3H22V4a2,2,0,0,0-2-2H12a2,2,0,0,0-2,2V5H7A2,2,0,0,0,5,7V28a2,2,0,0,0,2,2H25a2,2,0,0,0,2-2V5ZM12,4h8V8H12Z"/><rect class="cls-2" x="24" y="4" width="4" height="22"/></mask><linearGradient id="linear-gradient-2" y1="32" x2="32" gradientUnits="userSpaceOnUse"><stop offset="0.1" stop-color="#08bdba"/><stop offset="0.9" stop-color="#0f62fe"/></linearGradient></defs><g id="Layer_2" data-name="Layer 2"><g id="Light_theme_icons" data-name="Light theme icons"><g class="cls-3"><rect class="cls-4" width="32" height="32"/></g><rect class="cls-5" x="15" y="20" width="2" height="4"/><rect class="cls-5" x="20" y="18" width="2" height="6"/><rect class="cls-5" x="10" y="14" width="2" height="10"/></g></g></svg>