<svg id="IBM_Controller_Disclosure_Management_IBM_Controller_Disclosure_Management_IBMControllerDisclosureManagement" data-name="IBM Controller Disclosure Management IBM Controller Disclosure Management IBMControllerDisclosureManagement" xmlns="http://www.w3.org/2000/svg" xmlns:xlink="http://www.w3.org/1999/xlink" viewBox="0 0 32 32"><defs><linearGradient id="dyv7f98u8a" x1="4345.572" y1="-12645.244" x2="4358.572" y2="-12645.244" gradientTransform="matrix(1.03 0 0 -.848 -4458.645 -10713.62)" gradientUnits="userSpaceOnUse"><stop offset=".1" stop-opacity="0"/><stop offset=".9"/></linearGradient><linearGradient id="pz2dr2q98b" x1="-468.482" y1="-10700.903" x2="-459.746" y2="-10700.903" gradientTransform="matrix(1.03 0 0 -.848 487.62 -9064.559)" xlink:href="#dyv7f98u8a"/><linearGradient id="qbkqrvzlxc" x1="-465.57" y1="-10696.187" x2="-456.834" y2="-10696.187" gradientTransform="matrix(1.03 0 0 -.848 487.62 -9064.559)" xlink:href="#dyv7f98u8a"/><linearGradient id="8c1ho8th8e" x1="8009" y1="-8009" x2="7977" y2="-7977" gradientTransform="matrix(1 0 0 -1 -7977 -7977)" gradientUnits="userSpaceOnUse"><stop offset=".1" stop-color="#00c0ba"/><stop offset=".9" stop-color="#0064ff"/></linearGradient><mask id="yz14cvp2kd" x="0" y="0" width="32" height="32" maskUnits="userSpaceOnUse"><path d="m30.864 15.486-6.988-11.99A1 1 0 0 0 23.013 3H9v2h13.438l6.699 11.494 1.728-1.008zM13.017 12.992l-.002-2L4.336 11a.998.998 0 0 0-.865.501l-2.313 4.02a.997.997 0 0 0 .003 1.002l6.975 11.98a1 1 0 0 0 .865.497h6v-2H9.576L3.181 16.017l1.736-3.018 8.101-.007z" style="fill:#fff"/><path style="fill:#fff" d="M6 7h10v2H6z"/><path transform="rotate(60 24.76 12.138)" style="fill:url(#dyv7f98u8a)" d="M18.064 7.897h13.392v8.482H18.064z"/><path style="fill:url(#pz2dr2q98b)" d="M5 10h9v4H5z"/><path style="fill:url(#qbkqrvzlxc)" d="M8 6h9v4H8z"/></mask></defs><g style="mask:url(#yz14cvp2kd)"><path transform="rotate(90 16 16)" style="fill:url(#8c1ho8th8e)" d="M0 0h32v32H0z"/></g><path d="m29.509 17.69-6-3.549a.998.998 0 0 0-1.018 0l-6 3.549a1 1 0 0 0-.491.861v6.9a1 1 0 0 0 .491.861l6 3.549a.998.998 0 0 0 1.018 0l6-3.549a1 1 0 0 0 .491-.861v-6.9a1 1 0 0 0-.491-.861zM28 24.881l-5 2.958-5-2.958v-5.76l5-2.958 5 2.958v5.76z" style="fill:#001e71"/></svg>