<svg id="ContinuousCompliance" xmlns="http://www.w3.org/2000/svg" viewBox="0 0 32 32"><defs><linearGradient id="1z2fsxlpxa" x1="-214.015" y1="-78.505" x2="-204.015" y2="-78.505" gradientTransform="translate(230.03 82.009)" gradientUnits="userSpaceOnUse"><stop offset="0" stop-opacity="0"/><stop offset=".9"/></linearGradient><linearGradient id="plwreexv5c" x1="0" y1="32" x2="32" y2="0" gradientUnits="userSpaceOnUse"><stop offset=".1" stop-color="#a46eff"/><stop offset=".9" stop-color="#0f62fd"/></linearGradient><mask id="oo0jfhof9b" x="4.015" y="1.005" width="24" height="29" maskUnits="userSpaceOnUse"><path d="M6.015 17.005c0 3.3 1.8 6.4 4.8 7.9l5.2 2.8 5.2-2.8c3-1.5 4.8-4.6 4.8-7.9v-13h-9v-2h9c1.1 0 2 .9 2 2v13c0 4.1-2.2 7.8-5.8 9.7l-6.2 3.3-6.2-3.3c-3.6-1.9-5.8-5.6-5.8-9.7" style="fill:#fff"/><path transform="rotate(180 21.015 3.505)" style="fill:url(#1z2fsxlpxa)" d="M16.015 1.005h10v5h-10z"/></mask></defs><path d="M8.502 14.004C4.917 14.004 2 11.087 2 7.502S4.917 1 8.502 1s6.502 2.917 6.502 6.502-2.917 6.502-6.502 6.502zM8.502 3C6.02 3 4 5.02 4 7.502s2.02 4.502 4.502 4.502 4.502-2.02 4.502-4.502S10.984 3 8.502 3z" style="fill:#001d6c"/><path style="fill:#001d6c" d="M7.751 10.267 5.084 7.6l1.414-1.414 1.253 1.253 2.675-2.675 1.414 1.414-4.089 4.089z"/><g style="mask:url(#oo0jfhof9b)"><path style="fill:url(#plwreexv5c)" d="M0 0h32v32H0z"/></g></svg>