<svg id="ContentNavigatorEditService" xmlns="http://www.w3.org/2000/svg" xmlns:xlink="http://www.w3.org/1999/xlink" viewBox="0 0 32 32"><defs><linearGradient id="o9yof8yh9a" x1="-10327.121" y1="27.501" x2="-10311.807" y2="27.501" gradientTransform="translate(10334)" gradientUnits="userSpaceOnUse"><stop offset=".393"/><stop offset="1" stop-opacity="0"/></linearGradient><linearGradient id="t7fm8iklwb" x1="7929.999" y1="6390.277" x2="7945.313" y2="6390.277" gradientTransform="rotate(90 7159.449 -763.672)" xlink:href="#o9yof8yh9a"/><linearGradient id="husc7bya3c" x1="1207.999" y1="-2648.723" x2="1223.313" y2="-2648.723" gradientTransform="rotate(-90 1954.172 -721.051)" xlink:href="#o9yof8yh9a"/><linearGradient id="ashry2r8me" x1="0" y1="32" x2="32" y2="0" gradientUnits="userSpaceOnUse"><stop offset=".1" stop-color="#03beb8"/><stop offset=".9" stop-color="#0064fd"/></linearGradient><mask id="fab8zb4u8d" x="0" y="0" width="32" height="32" maskUnits="userSpaceOnUse"><path d="M16 2a13.905 13.905 0 0 0-9.899 4.101l1.414 1.414A11.92 11.92 0 0 1 16 4c6.617 0 12 5.383 12 12 0 1.28-.2 2.538-.594 3.74l1.9.623A13.99 13.99 0 0 0 29.999 16c0-7.72-6.28-14-14-14zM16 28c-1.11 0-2.21-.151-3.268-.45l-.543 1.925c1.234.348 2.517.525 3.811.525 3.739 0 7.255-1.456 9.899-4.101l-1.414-1.414A11.92 11.92 0 0 1 16 28zM4.762 11.783l-1.873-.702A13.95 13.95 0 0 0 2 16a13.91 13.91 0 0 0 4.09 9.889l1.416-1.413A11.923 11.923 0 0 1 4 16c0-1.451.256-2.87.762-4.217z" style="fill:#fff"/><g><path id="BottomMask" d="M23 24v7H11v-4l12-3z" style="fill:url(#o9yof8yh9a)"/><path id="TopMask" d="M9 23H2V11h4l3 12z" style="fill:url(#t7fm8iklwb)"/><path id="TopMask-2" data-name="TopMask" d="M23 9h7v12h-4L23 9z" style="fill:url(#husc7bya3c)"/></g></mask></defs><g style="mask:url(#fab8zb4u8d)"><path style="fill:url(#ashry2r8me)" d="M0 0h32v32H0z"/></g><path d="M5 8c.6 0 1 .4 1 1s-.4 1-1 1-1-.4-1-1 .4-1 1-1zM27 22c.6 0 1 .4 1 1s-.4 1-1 1-1-.4-1-1 .4-1 1-1zM9 26c.6 0 1 .4 1 1s-.4 1-1 1-1-.4-1-1 .4-1 1-1z" style="fill:#011e71"/><path d="m23.7 11.3-3-3c-.4-.4-1-.4-1.4 0L10 17.6V22h4.4l9.3-9.3c.4-.4.4-1 0-1.4zM13.6 20H12v-1.6l5-5 1.6 1.6-5 5zm6.4-6.4L18.4 12l1.6-1.6 1.6 1.6-1.6 1.6z" style="fill:#001e71"/></svg>