<svg id="ContinuousDelivery" xmlns="http://www.w3.org/2000/svg" xmlns:xlink="http://www.w3.org/1999/xlink" viewBox="0 0 32 32"><defs><linearGradient id="ghfp0lci4a" x1="3.3" y1="20.616" x2="3.3" y2="8.616" gradientUnits="userSpaceOnUse"><stop offset=".2"/><stop offset="1" stop-opacity="0"/></linearGradient><linearGradient id="ydhc0ryekb" x1="-984.564" y1="-5677.006" x2="-984.564" y2="-5689.006" gradientTransform="translate(1013.128 5701.011)" xlink:href="#ghfp0lci4a"/><linearGradient id="b7hqm3p8sd" x1="0" y1="32" x2="32" y2="0" gradientUnits="userSpaceOnUse"><stop offset=".1" stop-color="#08bdba"/><stop offset=".9" stop-color="#0f62fe"/></linearGradient><mask id="ohuov6a3zc" x=".3" y="1.004" width="31.264" height="30" maskUnits="userSpaceOnUse"><path d="M2.652 22.904a14.842 14.842 0 0 1-1.672-6.9c0-8.26 6.719-14.989 14.978-15l.003 2c-7.158.009-12.981 5.841-12.981 13 0 2.114.487 4.126 1.448 5.98l-1.775.92zM16.001 31.004l-.003-2c7.158-.009 12.981-5.841 12.981-13 0-1.518-.262-3.011-.78-4.439l1.88-.682c.597 1.647.9 3.37.9 5.121 0 8.261-6.719 14.99-14.979 15z" style="fill:#fff"/><path style="fill:url(#ghfp0lci4a)" d="M.3 8.616h6v12h-6z"/><path d="M.3 20.297h6v3.085h-6z"/><path transform="rotate(180 28.564 18.006)" style="fill:url(#ydhc0ryekb)" d="M25.564 12.006h6v12h-6z"/><path d="M25.564 9.215h6V12.3h-6z"/></mask></defs><g style="mask:url(#ohuov6a3zc)"><path style="fill:url(#b7hqm3p8sd)" d="M0 0h32v32H0z"/></g><path d="M18.708 18.997h-5.455a1.274 1.274 0 0 1-1.273-1.272V12.27c0-.702.571-1.273 1.273-1.273h5.455c.702 0 1.272.571 1.272 1.273v5.455c0 .702-.571 1.272-1.272 1.272zm-4.728-2h4v-4h-4v4z" style="fill:#001d6c"/><path d="M28.688 6.77 23.98 2.062v-.064h-.064l-.935-.935-.935.935h-.066v.066l-4.752 4.752 1.414 1.414 3.338-3.338v16.11h-12V10h-2v11.362c0 .904.736 1.64 1.64 1.64h12.72c.904 0 1.64-.736 1.64-1.64V4.89l3.294 3.294 1.414-1.414z" style="fill:#001d6c"/></svg>