<svg id="CryptoInsightsAndDiscoveryForZos" xmlns="http://www.w3.org/2000/svg" viewBox="0 0 32 32"><defs><linearGradient id="zp9whnbfza" x1="-2205.182" y1="-2423.327" x2="-2197.403" y2="-2431.105" gradientTransform="rotate(45 -4027.048 1472.54)" gradientUnits="userSpaceOnUse"><stop offset=".024" stop-opacity="0"/><stop offset=".8"/></linearGradient><linearGradient id="von0z60ycc" x1="-1210" y1="32" x2="-1242" y2="0" gradientTransform="matrix(1 0 0 -1 1242 32)" gradientUnits="userSpaceOnUse"><stop offset=".1" stop-color="#08bdba"/><stop offset=".9" stop-color="#0f62fe"/></linearGradient><mask id="a06914jjhb" x="0" y="0" width="32" height="32" maskUnits="userSpaceOnUse"><path d="M28 30H7c-1.103 0-2-.897-2-2v-8h2v8h21V7H18V5h10c1.103 0 2 .897 2 2v21c0 1.103-.897 2-2 2z" style="fill:#fff"/><path transform="rotate(180 21.5 6)" style="fill:url(#zp9whnbfza)" d="M16 4h11v4H16z"/><circle cx="10" cy="25" r="1" style="fill:#fff"/><path style="fill:#fff" d="M13 24h8v2h-8zM23 24h3v2h-3zM23.83 13l2.58-2.58L25 9l-4 4 4 4 1.42-1.41L23.83 13z"/></mask></defs><g style="mask:url(#a06914jjhb)"><path transform="rotate(180 16 16)" style="fill:url(#von0z60ycc)" d="M0 0h32v32H0z"/></g><path d="M21.964 16h.073-.073z" style="fill:#fff"/><path d="M7 11a1 1 0 1 0 0 2 1 1 0 0 0 0-2zm9.312 3.898A7.95 7.95 0 0 0 18 10c0-4.411-3.589-8-8-8s-8 3.589-8 8 3.589 8 8 8a7.945 7.945 0 0 0 4.898-1.689L19.587 21l1.414-1.414-4.688-4.688zM15.91 11H10v2h5.188A5.999 5.999 0 0 1 10 16c-3.309 0-6-2.691-6-6s2.691-6 6-6a5.999 5.999 0 0 1 5.188 3H8v2h7.91c.055.326.09.659.09 1s-.035.674-.09 1z" style="fill:#001d6c"/></svg>