<svg id="DatabaseBackups" xmlns="http://www.w3.org/2000/svg" xmlns:xlink="http://www.w3.org/1999/xlink" viewBox="0 0 32 32"><defs><linearGradient id="glqh7icena" x1="70.5" y1="-23" x2="81.5" y2="-23" gradientTransform="translate(-66.5 49.5)" gradientUnits="userSpaceOnUse"><stop offset="0" stop-opacity="0"/><stop offset=".83"/></linearGradient><linearGradient id="odn7andcpb" x1="74.5" y1="-30" x2="85.5" y2="-30" xlink:href="#glqh7icena"/><linearGradient id="9kyhwdwcmd" x1="0" y1="32" x2="32" y2="0" gradientUnits="userSpaceOnUse"><stop offset=".1" stop-color="#ad6bff"/><stop offset=".9" stop-color="#0064ff"/></linearGradient><mask id="qbfurxj87c" x="0" y="0" width="32" height="32" maskUnits="userSpaceOnUse"><path d="M4 21h13v-2H4v-6h16v4h2V5a2 2 0 0 0-2-2H4a2 2 0 0 0-2 2v22a2 2 0 0 0 2 2h10v-2H4v-6zM4 5h16v6H4V5z" style="fill:#fff"/><path style="fill:url(#glqh7icena)" d="M4 23h11v7H4z" id="Gradients_black_" data-name="Gradients (black)"/><path style="fill:url(#odn7andcpb)" d="M8 16h11v7H8z" id="Gradients_black_-2" data-name="Gradients (black)"/></mask></defs><g style="mask:url(#qbfurxj87c)"><path id="Color" style="fill:url(#9kyhwdwcmd)" d="M0 0h32v32H0z"/></g><circle cx="7" cy="24" r="1" style="fill:#001e71"/><circle cx="7" cy="16" r="1" style="fill:#001e71"/><circle cx="7" cy="8" r="1" style="fill:#001e71"/><path d="M26.5 30H19c-2.206 0-4-1.794-4-4s1.794-4 4-4h.083c1.065-1.345 2.351-2 3.917-2 2.086 0 3.92 1.29 4.654 3.203A3.467 3.467 0 0 1 30 26.5c0 1.93-1.57 3.5-3.5 3.5zM19 24c-1.103 0-2 .897-2 2s.897 2 2 2h7.5c.827 0 1.5-.673 1.5-1.5 0-.743-.538-1.363-1.278-1.474l-.661-.099-.162-.649A2.986 2.986 0 0 0 23 22c-1.046 0-1.844.483-2.588 1.566l-.298.434H19z" style="fill:#001e71"/></svg>