<svg id="DataCollectionComponent" xmlns="http://www.w3.org/2000/svg" viewBox="0 0 32 32"><defs><linearGradient id="h455dc43ga" x1="1879.244" y1="-1377.921" x2="1887.54" y2="-1377.921" gradientTransform="matrix(1 0 0 -1 -1863.425 -1361.79)" gradientUnits="userSpaceOnUse"><stop offset="0" stop-opacity="0"/><stop offset=".9"/></linearGradient><linearGradient id="4ll4x4hdgc" y1="32" x2="32" gradientUnits="userSpaceOnUse"><stop offset=".1" stop-color="#a56eff"/><stop offset=".9" stop-color="#0f62fe"/></linearGradient><mask id="8bofho58sb" x="0" y="0" width="32" height="32" maskUnits="userSpaceOnUse"><path style="fill:#fff" d="M6.951 10.991h17v2h-17zM6.951 18.991h17v2h-17z"/><path style="fill:url(#h455dc43ga)" d="M15.819 9.123h8.297V23.14h-8.297z"/><path d="M23.951 28.991h-16a2 2 0 0 1-2-2v-22a2 2 0 0 1 2-2h16a2 2 0 0 1 2 2v22a2 2 0 0 1-2 2zm-16-24v22h16v-22z" style="fill:#fff"/></mask></defs><g style="mask:url(#8bofho58sb)"><path style="fill:url(#4ll4x4hdgc)" d="M0 0h32v32H0z"/></g><circle cx="10.951" cy="7.991" r="1" style="fill:#001d6c"/><circle cx="10.951" cy="15.991" r="1" style="fill:#001d6c"/><circle cx="10.951" cy="23.991" r="1" style="fill:#001d6c"/></svg>