<svg id="DataProductExchange" xmlns="http://www.w3.org/2000/svg" xmlns:xlink="http://www.w3.org/1999/xlink" viewBox="0 0 32 32"><defs><linearGradient id="m7r5x0ha2a" x1="-37.5" y1="-154.5" x2="-26.5" y2="-154.5" gradientTransform="translate(37 174)" gradientUnits="userSpaceOnUse"><stop offset=".2"/><stop offset="1" stop-opacity="0"/></linearGradient><linearGradient id="x9nj4mmqub" x1="-122.5" y1="35.5" x2="-111.5" y2="35.5" gradientTransform="translate(144 -23)" xlink:href="#m7r5x0ha2a"/><linearGradient id="bqbogcslld" x1="0" y1="32" x2="32" y2="0" gradientUnits="userSpaceOnUse"><stop offset=".1" stop-color="#a56eff"/><stop offset=".9" stop-color="#0f62fe"/></linearGradient><mask id="3gy8brmcnc" x="0" y="0" width="32" height="32" maskUnits="userSpaceOnUse"><path d="M8 9H6.273A11.996 11.996 0 0 1 10 5.608a11.913 11.913 0 0 1 9.106-1.199A11.92 11.92 0 0 1 26.392 10a11.986 11.986 0 0 1 1.61 5.999l2 .002A13.999 13.999 0 0 0 28.124 9a13.912 13.912 0 0 0-8.501-6.523A13.918 13.918 0 0 0 8.999 3.875a14.022 14.022 0 0 0-4 3.477V6h-2v5h5V9zM24 23h1.727A11.996 11.996 0 0 1 22 26.392a11.927 11.927 0 0 1-9.106 1.199A11.92 11.92 0 0 1 5.608 22a11.996 11.996 0 0 1-1.61-5.999l-2-.002A14.008 14.008 0 0 0 3.875 23a13.912 13.912 0 0 0 8.501 6.523 13.92 13.92 0 0 0 10.623-1.398 14.022 14.022 0 0 0 4-3.477V26h2v-5h-5v2z" style="fill:#fff;stroke-width:0"/><path transform="rotate(90 5 19.5)" style="fill:url(#m7r5x0ha2a);stroke-width:0" d="M-.5 15.5h11v8h-11z"/><path transform="rotate(-90 27 12.5)" style="fill:url(#x9nj4mmqub);stroke-width:0" d="M21.5 8.5h11v8h-11z"/></mask></defs><g style="mask:url(#3gy8brmcnc)"><path style="fill:url(#bqbogcslld);stroke-width:0" d="M0 0h32v32H0z"/></g><path d="m22.5 11.598-6-3.464a.998.998 0 0 0-1 0l-6 3.464a1 1 0 0 0-.5.866v7.072c0 .357.19.688.5.866l6 3.464a1.003 1.003 0 0 0 1 0l6-3.464a1 1 0 0 0 .5-.866v-7.072a.998.998 0 0 0-.5-.866zM16 10.155l4 2.309-4 2.309-4-2.309 4-2.309zm-5 4.042 4 2.309v4.762l-4-2.309v-4.762zm6 7.071v-4.762l4-2.309v4.762l-4 2.309z" style="fill:#001d6c;stroke-width:0"/></svg>