<svg id="Db2" xmlns="http://www.w3.org/2000/svg" viewBox="0 0 32 32"><defs><linearGradient id="3ue6c93zja" x1=".98" y1="13" x2="10.98" y2="23" gradientUnits="userSpaceOnUse"><stop offset=".25" stop-opacity="0"/><stop offset=".7"/></linearGradient><linearGradient id="1un3zvao0b" x1="20.98" y1="23" x2="30.98" y2="13" gradientUnits="userSpaceOnUse"><stop offset=".3"/><stop offset=".75" stop-opacity="0"/></linearGradient><linearGradient id="j1ij0gc1ud" x1="0" y1="32" x2="32" y2="0" gradientUnits="userSpaceOnUse"><stop offset=".1" stop-color="#08bdba"/><stop offset=".9" stop-color="#0f62fe"/></linearGradient><mask id="f6ldgwnkhc" x="0" y="0" width="32" height="32" maskUnits="userSpaceOnUse"><path d="M24.781 9.136C23.914 5.017 20.259 2 15.98 2s-7.934 3.018-8.8 7.136c-2.973.608-5.2 3.264-5.2 6.364 0 3.584 2.916 6.5 6.5 6.5h.5v-2h-.5a4.505 4.505 0 0 1-4.5-4.5 4.516 4.516 0 0 1 4.144-4.481l.815-.064.099-.812C9.465 6.641 12.45 4 15.979 4a7 7 0 0 1 6.942 6.143l.099.812.815.064a4.517 4.517 0 0 1 4.144 4.481c0 2.481-2.019 4.5-4.5 4.5h-.5v2h.5c3.584 0 6.5-2.916 6.5-6.5 0-3.1-2.228-5.755-5.199-6.364z" style="fill:#fff;stroke-width:0"/><path style="fill:url(#3ue6c93zja);stroke-width:0" d="M.98 13h10v10h-10z"/><path style="fill:url(#1un3zvao0b);stroke-width:0" d="M20.98 13h10v10h-10z"/></mask></defs><g style="mask:url(#f6ldgwnkhc)"><path id="Color" style="fill:url(#j1ij0gc1ud);stroke-width:0" d="M0 0h32v32H0z"/></g><path d="M16 12.945c-3.421 0-6 1.505-6 3.5v8.004c0 1.995 2.579 3.5 6 3.5s6-1.505 6-3.5v-8.004c0-1.995-2.579-3.5-6-3.5zm0 2c2.481 0 4 .971 4 1.5s-1.519 1.5-4 1.5-4-.971-4-1.5 1.519-1.5 4-1.5zm4 4.147v1.355c0 .529-1.519 1.5-4 1.5s-3.994-.968-3.999-1.497v-1.358c1.047.534 2.433.853 4 .853s2.953-.318 4-.853zm0 5.357c0 .529-1.519 1.5-4 1.5s-4-.971-4-1.5v-1.354c1.047.534 2.432.852 3.999.852s2.954-.319 4.001-.853v1.355z" style="fill:#001d6c;stroke-width:0"/></svg>