<svg id="Db2DeveloperExtension" xmlns="http://www.w3.org/2000/svg" viewBox="0 0 32 32"><defs><linearGradient id="fv8hypz0aa" x1="9377.5" y1="27" x2="9377.5" y2="12" gradientTransform="matrix(-1 0 0 1 9383 0)" gradientUnits="userSpaceOnUse"><stop offset=".4" stop-color="#fff"/><stop offset="1" stop-color="#fff" stop-opacity="0"/></linearGradient><linearGradient id="d1h3ry98gb" x1="9342.5" y1="15" x2="9342.5" y2="5" gradientTransform="matrix(-1 0 0 1 9367 0)" gradientUnits="userSpaceOnUse"><stop offset="0" stop-color="#fff" stop-opacity="0"/><stop offset=".6" stop-color="#fff"/></linearGradient><linearGradient id="lbjeyr3hcd" x1="0" y1="32" x2="32" y2="0" gradientUnits="userSpaceOnUse"><stop offset=".1" stop-color="#ad6bff"/><stop offset=".9" stop-color="#0064ff"/></linearGradient><mask id="vybwmsgoxc" x="0" y="0" width="32" height="32" maskUnits="userSpaceOnUse"><path d="M2 23.205V12h2v11.25L4.002 25H9v2H4.002A2.004 2.004 0 0 1 2 25v-1.794z" style="fill:url(#fv8hypz0aa)"/><path d="M25.997 5c1.104 0 2.002.898 2.002 2.002v7.997h-2v-3l-.002-5h-4.998v-2h4.998z" style="fill:url(#d1h3ry98gb)"/><path style="fill:#fff" d="M6.757 30.243 11 26l-4.243-4.243-1.414 1.414L8.172 26l-2.829 2.829 1.414 1.414zM20 2H4a2 2 0 0 0-2 2v4a2 2 0 0 0 2 2h16a2 2 0 0 0 2-2V4a2 2 0 0 0-2-2zm0 6H4V4h16v4z"/></mask></defs><g style="mask:url(#vybwmsgoxc)"><path style="fill:url(#lbjeyr3hcd)" d="M0 0h32v32H0z"/></g><path d="M22.5 29c-1.93 0-3.5-1.57-3.5-3.5 0-.935.364-1.813 1.024-2.474l1.415 1.414a1.502 1.502 0 0 0 2.122 2.12l5-5a1.502 1.502 0 0 0-2.123-2.121l-1.416-1.413a3.48 3.48 0 0 1 2.477-1.027c1.93 0 3.5 1.57 3.5 3.5 0 .935-.364 1.814-1.025 2.475l-5 5A3.478 3.478 0 0 1 22.499 29z" style="fill:#001e71"/><path d="M16.5 30c-1.93 0-3.5-1.57-3.5-3.5 0-.935.364-1.814 1.025-2.475l5-5a3.478 3.478 0 0 1 2.475-1.026c1.93 0 3.5 1.57 3.5 3.5 0 .935-.364 1.813-1.024 2.474l-1.415-1.414a1.502 1.502 0 0 0-2.122-2.12l-5 5a1.502 1.502 0 0 0 2.123 2.121l1.416 1.413A3.48 3.48 0 0 1 16.501 30z" style="fill:#001e71"/><circle cx="7" cy="6" r="1" style="fill:#001e71"/></svg>