<svg id="Db2ForZOSDeveloperExtension" xmlns="http://www.w3.org/2000/svg" viewBox="0 0 32 32"><defs><linearGradient id="f670jbrfoa" x1="1526.002" y1="234.892" x2="1539.002" y2="234.892" gradientTransform="matrix(1.03 0 0 .848 -1567.611 -174.477)" gradientUnits="userSpaceOnUse"><stop offset=".1" stop-opacity="0"/><stop offset=".9"/></linearGradient><linearGradient id="yzeaqdz4lc" y1="32" x2="32" gradientUnits="userSpaceOnUse"><stop offset=".1" stop-color="#ae67ff"/><stop offset=".9" stop-color="#005fff"/></linearGradient><mask id="qoblo6vr8b" x="0" y="0" width="32" height="32" maskUnits="userSpaceOnUse"><path d="M14.486 30.864 2.5 23.876a1 1 0 0 1-.5-.864V9h2v13.438l11.494 6.7zM11.992 13.017h-2L10 4.337a1 1 0 0 1 .5-.866l4.02-2.313a1 1 0 0 1 1 0L27.5 8.136A1 1 0 0 1 28 9v4h-2V9.575L15.017 3.18 12 4.917z" style="fill:#fff"/><path style="fill:#fff" d="M6 6h2v10H6z"/><path transform="rotate(30 11.138 24.76)" style="fill:url(#f670jbrfoa)" d="M4.442 20.519h13.392v8.482H4.442z"/></mask></defs><g style="mask:url(#qoblo6vr8b)"><path style="fill:url(#yzeaqdz4lc)" d="M0 0h32v32H0z"/></g><path d="M30 26H16a2.006 2.006 0 0 1-2-2v-6a2.006 2.006 0 0 1 2-2h14a2.006 2.006 0 0 1 2 2v6a2.006 2.006 0 0 1-2 2zm-14-8v6h14v-6z" style="fill:#001b71"/><circle cx="19" cy="21" r="1" style="fill:#001b71"/></svg>