<svg id="Db2IntelligenceCenter" xmlns="http://www.w3.org/2000/svg" xmlns:xlink="http://www.w3.org/1999/xlink" viewBox="0 0 32 32"><defs><linearGradient id="bn44n037ba" x1="1108.418" y1="-8088.551" x2="1102.351" y2="-8078.042" gradientTransform="rotate(-60 -6116.917 4823.186) scale(1 -.957)" gradientUnits="userSpaceOnUse"><stop offset=".205"/><stop offset=".8" stop-opacity="0"/></linearGradient><linearGradient id="uan52poibb" x1="-701.344" y1="5.028" x2="-706.661" y2="14.237" gradientTransform="matrix(-1 0 0 1 -680 0)" xlink:href="#bn44n037ba"/><linearGradient id="fovsosr0xc" x1="-688.414" y1="17.642" x2="-693.731" y2="26.851" gradientTransform="matrix(-1.09 0 0 1.114 -746.767 -16.195)" xlink:href="#bn44n037ba"/><linearGradient id="0yos7o8fye" data-name="Light Gradient SW" x1="0" y1="32" x2="32" y2="0" gradientUnits="userSpaceOnUse"><stop offset=".1" stop-color="#08bdba"/><stop offset=".9" stop-color="#0f62fe"/></linearGradient><mask id="vxqfvd7aud" x="-1.439" y="0" width="33.439" height="32" maskUnits="userSpaceOnUse"><path d="M16.004 3v2c-.56 0-1.12.04-1.66.13-5.28.79-9.34 5.37-9.34 10.87h-2c0-6.23 4.41-11.45 10.27-12.71.88-.19 1.8-.29 2.73-.29zM27.004 16.004c0-4.046-2.202-7.579-5.464-9.49l1.007-1.725c3.855 2.258 6.458 6.434 6.458 11.215 0 2.724-.845 5.252-2.283 7.343l-1.742-1.006a10.932 10.932 0 0 0 2.025-6.338zM16.004 27.004c1.984 0 3.843-.536 5.452-1.459l.991 1.735a12.906 12.906 0 0 1-6.443 1.724c-5.159 0-9.613-3.028-11.711-7.394l1.735-1.001c1.747 3.769 5.556 6.396 9.977 6.396z" style="fill:#fff"/><path style="fill:url(#bn44n037ba)" d="m20.726 31.398 3.486-6.037-12.431-7.177-5.001 8.661 8.101 4.677 5.845-.124z"/><path style="fill:url(#uan52poibb)" d="M20.002 3.99H29V17h-8.998z"/><path transform="rotate(-122.701 7.31 9.556)" style="fill:url(#fovsosr0xc)" d="M2.405 2.307h9.812v14.498H2.405z"/><path d="M16 9c-2.89 0-6 .939-6 3v8c0 2.061 3.11 3 6 3s6-.939 6-3v-8c0-2.061-3.11-3-6-3zm0 2c2.348 0 3.718.673 3.975 1-.257.327-1.627 1-3.975 1s-3.718-.673-3.975-1c.257-.327 1.627-1 3.975-1zm-4 3.305c1.128.469 2.589.695 4 .695s2.874-.226 4.002-.696l.002 1.647c-.147.303-1.533 1.048-4.004 1.048-2.484 0-3.874-.754-4-1v-1.695zM16 21c-2.484 0-3.874-.754-4-1v-1.695c1.128.469 2.589.695 4 .695s2.878-.227 4.007-.697l.002 1.644c-.135.3-1.524 1.054-4.009 1.054z" style="fill:#fff"/></mask></defs><g style="mask:url(#vxqfvd7aud)"><path style="fill:url(#0yos7o8fye)" d="M0 0h32v32H0z"/></g><circle cx="20" cy="3.997" r="1.997" style="fill:#001d6c"/><path style="fill:#001d6c" d="M22 25.006h3.994V29H22zM7 19H1l2.999-5L7 19z"/></svg>