<svg xmlns="http://www.w3.org/2000/svg" viewBox="0 0 32 32"><defs><linearGradient id="xyo7e2rgva" x1="25" y1="10" x2="25" y2="15" gradientUnits="userSpaceOnUse"><stop offset="0"/><stop offset="1" stop-opacity="0"/></linearGradient><linearGradient id="z0hnzmwr6c" x1="-1160" y1="1130" x2="-1128" y2="1098" gradientTransform="translate(1160 -1098)" gradientUnits="userSpaceOnUse"><stop offset=".1" stop-color="#ee5396"/><stop offset=".9" stop-color="#8a3ffc"/></linearGradient><mask id="frrms8bq3b" x="0" y="0" width="32" height="32" maskUnits="userSpaceOnUse"><path d="M26 14v-4h-2v4a1.007 1.007 0 0 1-1.011 1H9.013A3.01 3.01 0 0 0 6 18v2h2v-2a1.007 1.007 0 0 1 1.013-1h13.976A3.009 3.009 0 0 0 26 14z" fill="#fff"/><path fill="url(#xyo7e2rgva)" d="M23 10h4v5h-4z"/><path d="M22 25h-4v2h4v3h8v-8h-8zm2-1h4v4h-4zm4-22H4a2 2 0 0 0-2 2v4a2 2 0 0 0 2 2h24a2 2 0 0 0 2-2V4a2 2 0 0 0-2-2zm0 6H4V4h24z" fill="#fff"/></mask></defs><g data-name="Layer 2"><g data-name="Light theme icons"><g mask="url(#frrms8bq3b)"><path fill="url(#z0hnzmwr6c)" d="M0 0h32v32H0z"/></g><circle cx="7" cy="6" r="1" fill="#001d6c"/><path fill="#001d6c" d="M2 22h2v8H2zm4 0h2v8H6zm8 0h2v8h-2zm-4 0h2v8h-2z"/></g></g></svg>