<svg id="DependencyBasedBuild" xmlns="http://www.w3.org/2000/svg" viewBox="0 0 32 32"><defs><linearGradient id="myhsc00iaa" x1="1526.843" y1="234.303" x2="1539.843" y2="234.303" gradientTransform="matrix(1.03 0 0 .848 -1567.477 -173.977)" gradientUnits="userSpaceOnUse"><stop offset=".1" stop-opacity="0"/><stop offset=".9"/></linearGradient><linearGradient id="3efhrqh4bc" y1="32" x2="32" gradientUnits="userSpaceOnUse"><stop offset=".1" stop-color="#ae67ff"/><stop offset=".9" stop-color="#005fff"/></linearGradient><mask id="pllfkhri3b" x="0" y="0" width="32" height="32" maskUnits="userSpaceOnUse"><path d="M15.486 30.864 3.5 23.876a1 1 0 0 1-.5-.864V9h2v13.438l11.494 6.7zM12.992 13.017h-2L11 4.337a1 1 0 0 1 .5-.866l4.02-2.313a1 1 0 0 1 1 0L28.5 8.136A1 1 0 0 1 29 9v4h-2V9.575L16.017 3.18 13 4.917z" style="fill:#fff"/><path style="fill:#fff" d="M7 6h2v10H7z"/><path transform="rotate(30 12.138 24.76)" style="fill:url(#myhsc00iaa)" d="M5.442 20.519h13.392v8.482H5.442z"/></mask></defs><g style="mask:url(#pllfkhri3b)"><path style="fill:url(#3efhrqh4bc)" d="M0 0h32v32H0z"/></g><path d="M29 23.988V20a2 2 0 0 0-2-2h-4.009v-2.01h-6v6H19V26a2 2 0 0 0 2 2h3.989v1.989h6v-6zm-10.009-6h2v2h-2zM21 26v-4.01h1.991V20H27v3.989h-2.011V26zm7.989 1.989h-2v-2h2z" style="fill:#001b71"/></svg>