<svg id="DeployableArchitecture" xmlns="http://www.w3.org/2000/svg" viewBox="0 0 32 32"><defs><linearGradient id="4xrflb1y1a" x1="1749.166" y1="-4843.879" x2="1757.706" y2="-4834.352" gradientTransform="translate(-1739.872 4860.243)" gradientUnits="userSpaceOnUse"><stop offset=".326"/><stop offset=".68" stop-opacity="0"/></linearGradient><linearGradient id="3cxbnrg0pb" x1="-4684.5" y1="-1803.5" x2="-4679.5" y2="-1803.5" gradientTransform="rotate(-90 -1424.5 -3245)" gradientUnits="userSpaceOnUse"><stop offset="0"/><stop offset=".8" stop-opacity="0"/></linearGradient><linearGradient id="29l72s9ghd" x1="-1210" y1="32" x2="-1242" y2="0" gradientTransform="matrix(1 0 0 -1 1242 32)" gradientUnits="userSpaceOnUse"><stop offset=".1" stop-color="#08bbb8"/><stop offset=".9" stop-color="#0f62fc"/></linearGradient><mask id="2m89yv7qtc" x="0" y="0" width="32" height="32" maskUnits="userSpaceOnUse"><path d="m15.16 18.184 1.19 1.618-3.7 2.207-.04.02-1.33.78-1.77 1.05c-.16.09-.33.14-.51.14s-.35-.05-.51-.14l-6-3.55c-.3-.18-.49-.51-.49-.86v-6.9c0-.35.19-.68.49-.86l6-3.55c.16-.09.33-.14.51-.14s.35.05.51.14l1.77 1.05 1.33.78.04.02 1.71 1.02-1.02 1.72-1.71-1.02-.04-.02-1.31-.77-1.28-.76-5 2.96v5.76l5 2.96 1.28-.76 1.31-.77.04-.02 3.53-2.106z" style="fill:#fff"/><path transform="rotate(102.515 13 20.5)" style="fill:url(#4xrflb1y1a)" d="M8.5 15.5h9v10h-9z"/><path d="M11 14h6v1h-6zM11 13h6v1h-6z"/><path transform="rotate(-60 14.925 12.493)" d="M13.45 11.263h2.951v2.462H13.45z"/><path d="M25 15h-4.11A6.977 6.977 0 0 0 23 10V8h-2v2c0 2.757-2.243 5-5 5H9v2h7c2.757 0 5 2.243 5 5v2h2v-2c0-1.958-.81-3.728-2.11-5H25v-2z" style="fill:#fff"/><path style="fill:url(#3cxbnrg0pb)" d="M26 10v5H8v-1h9v-4h9z"/><path d="M11 14h6v1h-6z"/></mask></defs><g style="mask:url(#2m89yv7qtc)"><path transform="rotate(180 16 16)" style="fill:url(#29l72s9ghd)" d="M0 0h32v32H0z"/></g><circle cx="29" cy="16" r="2" style="fill:#001d6c"/><circle cx="22" cy="4" r="2" style="fill:#001d6c"/><circle cx="22" cy="28" r="2" style="fill:#001d6c"/></svg>