<svg id="DeveloperForZOS_" data-name="DeveloperForZOS" xmlns="http://www.w3.org/2000/svg" viewBox="0 0 32 32"><defs><linearGradient id="ftlywan9na" x1="28.5" y1="23" x2="28.5" y2="12" gradientUnits="userSpaceOnUse"><stop offset="0" stop-opacity="0"/><stop offset=".9"/></linearGradient><linearGradient id="agfkt2bbyc" y1="32" x2="32" gradientUnits="userSpaceOnUse"><stop offset=".1" stop-color="#a56eff"/><stop offset=".9" stop-color="#0f62fe"/></linearGradient><mask id="wwh4qhs8lb" x="0" y="0" width="32" height="32" maskUnits="userSpaceOnUse"><path d="M27 13v9.438l-11 6.409-11-6.409V9H3v14.012a1 1 0 0 0 .5.864l11.99 6.988a1 1 0 0 0 .5.136h.02a1 1 0 0 0 .5-.136l11.99-6.988a1 1 0 0 0 .5-.864V13z" style="fill:#fff"/><path d="m19.014 15.545-1.028-1.715 8.047-4.818L16.017 3.18 13 4.917 12.992 10h-2L11 4.336a1 1 0 0 1 .5-.865l4.02-2.313a1 1 0 0 1 1 0L28.5 8.136a1 1 0 0 1 .011 1.722zM7 6h2v10H7z" style="fill:#fff"/><path style="fill:url(#ftlywan9na)" d="M26 12h5v11h-5z"/></mask></defs><g style="mask:url(#wwh4qhs8lb)"><path style="fill:url(#agfkt2bbyc)" d="M0 0h32v32H0z"/></g><path d="M16 20a4 4 0 1 1 4-4 4 4 0 0 1-4 4zm0-6a2 2 0 1 0 2 2 2 2 0 0 0-2-2z" style="fill:#001d6c"/></svg>