<svg id="DevOpsAutomationRelease" xmlns="http://www.w3.org/2000/svg" xmlns:xlink="http://www.w3.org/1999/xlink" viewBox="0 0 32 32"><defs><linearGradient id="tp8uz81gha" x1="25.092" y1="8" x2="20.31" y2="8" gradientUnits="userSpaceOnUse"><stop offset=".117"/><stop offset="1" stop-opacity="0"/></linearGradient><linearGradient id="9cs4h469cb" x1="33.116" y1="2.468" x2="28.334" y2="2.468" gradientTransform="matrix(1 0 0 -1 -20.775 10.584)" xlink:href="#tp8uz81gha"/><linearGradient id="ht9kuuztpd" x1="0" y1="32" x2="32" y2="0" gradientUnits="userSpaceOnUse"><stop offset=".1" stop-color="#a56eff"/><stop offset=".9" stop-color="#0f62fe"/></linearGradient><mask id="qj668ij6mc" x="0" y="0" width="32" height="32" maskUnits="userSpaceOnUse"><path d="M28.963 10.754c-.001-.006 0-.012-.002-.018a.998.998 0 0 0-.446-.626c-.032-.02-.067-.03-.1-.045L16.494 3.109a.999.999 0 0 0-1.008 0l-12 7.006-.01.008-.011.005c-.046.028-.083.065-.123.1-.023.02-.051.036-.072.058a.993.993 0 0 0-.153.206c-.009.017-.013.036-.021.053a.985.985 0 0 0-.073.189c-.007.028-.006.057-.011.086-.009.052-.021.104-.021.159v13.003c0 .379.214.725.553.895l12 5.997c.014.007.031.004.045.011.129.057.264.095.402.095s.273-.038.402-.095c.015-.007.032-.004.047-.011l12-6.015a1 1 0 0 0 .552-.894V10.962a.955.955 0 0 0-.027-.207zM10.99 15.6l4 1.994v4.747l-4-1.994V15.6zm6 1.994 4-1.994v4.767l-4 1.994v-4.767zm-1-12.464 9.889 5.77-9.89 4.957L6.09 10.91l9.899-5.78zm-11 7.466 4 1.999v6.371a1 1 0 0 0 .554.895l5.446 2.715v3.785l-10-4.998V12.596zm12 15.763v-3.763l5.446-2.715a1 1 0 0 0 .554-.895v-6.393l4-2v10.754l-10 5.012z" style="fill:#fff;stroke-width:0"/><path style="stroke-width:0" d="m19.853 8.248-7.737.249-1.654-3.641 5.537-2.358 5.677 2.176-1.823 3.574z"/><path transform="rotate(-146.096 22.5 8)" style="fill:url(#tp8uz81gha);stroke-width:0" d="M20 5h5v6h-5z"/><path transform="rotate(-33.904 9.748 8.115)" style="fill:url(#9cs4h469cb);stroke-width:0" d="M7.248 5.116h5v6h-5z"/></mask></defs><g style="mask:url(#qj668ij6mc)"><path style="fill:url(#ht9kuuztpd);stroke-width:0" d="M0 0h32v32H0z"/></g><path d="M17 12V4.829l2.586 2.585L21 6l-5-5-5 5 1.414 1.414L15 4.828V12h2z" style="fill:#001d6c;stroke-width:0"/></svg>