<svg id="unassigned" xmlns="http://www.w3.org/2000/svg" viewBox="0 0 32 32"><defs><linearGradient id="4o11nurvma" x1="1526.843" y1="234.303" x2="1539.843" y2="234.303" gradientTransform="matrix(1.03 0 0 .848 -1567.477 -173.977)" gradientUnits="userSpaceOnUse"><stop offset=".1" stop-opacity="0"/><stop offset=".9"/></linearGradient><linearGradient id="9bfs0odwvc" y1="32" x2="32" gradientUnits="userSpaceOnUse"><stop offset=".1" stop-color="#ae67ff"/><stop offset=".9" stop-color="#005fff"/></linearGradient><mask id="45w3xht26b" x="0" y="0" width="32" height="32" maskUnits="userSpaceOnUse"><path d="M15.486 30.864 3.5 23.876a1 1 0 0 1-.5-.864V9h2v13.438l11.494 6.7zM12.992 13.017h-2L11 4.337a1 1 0 0 1 .5-.866l4.02-2.313a1 1 0 0 1 1 0L28.5 8.136A1 1 0 0 1 29 9v4h-2V9.575L16.017 3.18 13 4.917z" style="fill:#fff"/><path style="fill:#fff" d="M7 6h2v10H7z"/><path transform="rotate(30 12.138 24.76)" style="fill:url(#4o11nurvma)" d="M5.442 20.519h13.392v8.482H5.442z"/></mask></defs><g style="mask:url(#45w3xht26b)"><path style="fill:url(#9bfs0odwvc)" d="M0 0h32v32H0z"/></g><path d="M28 31h-8a2 2 0 0 1-2-2v-3h2v3h8v-3h2v3a2 2 0 0 1-2 2zM25 18.83V26h-2v-7.17l-2.59 2.58L19 20l5-5 5 5-1.41 1.41L25 18.83z" style="fill:#001b71"/></svg>