<svg id="DevOpsAutomationDeploy" xmlns="http://www.w3.org/2000/svg" xmlns:xlink="http://www.w3.org/1999/xlink" viewBox="0 0 32 32"><defs><linearGradient id="9b0gnncqea" x1="3.719" y1="14.049" x2="18.281" y2="17.951" gradientUnits="userSpaceOnUse"><stop offset=".16" stop-opacity="0"/><stop offset=".6"/></linearGradient><linearGradient id="3xo5budibb" x1="-4444.281" y1="-631.049" x2="-4429.719" y2="-634.951" gradientTransform="translate(4453 654)" xlink:href="#9b0gnncqea"/><linearGradient id="likszm0p9d" x1="0" y1="32" x2="32" y2="0" gradientUnits="userSpaceOnUse"><stop offset=".1" stop-color="#a56eff"/><stop offset=".9" stop-color="#0f62fe"/></linearGradient><mask id="cbw29bgvyc" x="0" y="0" width="32" height="32" maskUnits="userSpaceOnUse"><path d="M17.742 27.125 21 24.519v-7.52c0-.265.105-.52.293-.707l4.071-4.071A8.945 8.945 0 0 0 28 5.857V3.999h-1.857a8.94 8.94 0 0 0-6.364 2.636l-4.071 4.071a.997.997 0 0 1-.707.293h-7.52l-2.605 3.258 12.267 1.752-.283 1.979-14-2a1 1 0 0 1-.64-1.615l4-5c.19-.237.478-.375.781-.375h7.586l3.778-3.778a10.925 10.925 0 0 1 7.778-3.222H28c1.103 0 2 .897 2 2v1.858c0 2.938-1.145 5.7-3.222 7.778L23 17.412v7.586a1 1 0 0 1-.375.781l-5 4a1.002 1.002 0 0 1-1.615-.639l-1.999-14 1.979-.283 1.752 12.267z" style="fill:#fff;stroke-width:0"/><path style="fill:url(#9b0gnncqea);stroke-width:0" d="M4 13h14v6H4z"/><path transform="rotate(-90 16 21)" style="fill:url(#3xo5budibb);stroke-width:0" d="M9 18h14v6H9z"/></mask></defs><g style="mask:url(#cbw29bgvyc)"><path style="fill:url(#likszm0p9d);stroke-width:0" d="M0 0h32v32H0z"/></g><path transform="rotate(-45 11 21)" style="fill:#001d6c;stroke-width:0" d="M3.929 20h14.142v2H3.929z"/><path style="fill:#001d6c;stroke-width:0" d="m8.707 30.712-1.414-1.414 4.024-4.001 1.414 1.414-4.024 4.001z"/><path transform="rotate(-45 4.017 22.01)" style="fill:#001d6c;stroke-width:0" d="M-.231 21.01h8.494v2H-.231z"/></svg>