<svg data-name="Build icon here" xmlns="http://www.w3.org/2000/svg" viewBox="0 0 32 32"><defs><linearGradient id="86v8xjmo3a" x1="1514.211" y1="191.271" x2="1527.211" y2="191.271" gradientTransform="matrix(1.03 0 0 .848 -1555.463 -137.477)" gradientUnits="userSpaceOnUse"><stop offset=".1" stop-opacity="0"/><stop offset=".9"/></linearGradient><linearGradient id="qitzrwdwic" x1="-4412" y1="4444" x2="-4444" y2="4476" gradientTransform="matrix(1 0 0 -1 4444 4476)" gradientUnits="userSpaceOnUse"><stop offset=".1" stop-color="#a56eff"/><stop offset=".9" stop-color="#0f62fe"/></linearGradient><mask id="tj33hy8vsb" x="0" y="0" width="32" height="32" maskUnits="userSpaceOnUse"><g fill="#fff"><path d="M14.486 30.864 2.5 23.876a1 1 0 0 1-.5-.864V9h2v13.438l11.494 6.7zm-2.494-17.847h-2L10 4.337a1 1 0 0 1 .5-.866l4.02-2.313a1 1 0 0 1 1 0L27.5 8.136A1 1 0 0 1 28 9v4h-2V9.575L15.017 3.18 12 4.917z"/><path d="M6 6h2v10H6z"/></g><path transform="rotate(30 11.138 24.76)" fill="url(#86v8xjmo3a)" d="M4.442 20.519h13.392v8.482H4.442z"/></mask></defs><g mask="url(#tj33hy8vsb)"><path transform="rotate(90 16 16)" fill="url(#qitzrwdwic)" d="M0 0h32v32H0z"/></g><path d="M23 31a8 8 0 1 1 8-8 8.009 8.009 0 0 1-8 8zm0-14a6 6 0 1 0 6 6 6.006 6.006 0 0 0-6-6z" fill="#001d6c"/><path fill="#001d6c" d="M22 23.586 20.414 22 19 23.414l3 3 5-5L25.586 20 22 23.586z"/></svg>