<svg id="DevOpsAutomationClearCase" xmlns="http://www.w3.org/2000/svg" viewBox="0 0 32 32"><defs><linearGradient id="j8yay3g5pa" x1="-494.345" y1="-38.583" x2="-487.975" y2="-38.583" gradientTransform="translate(494.171 53.378)" gradientUnits="userSpaceOnUse"><stop offset=".2"/><stop offset="1" stop-opacity="0"/></linearGradient><linearGradient id="mh7vaf6plc" x1="0" y1="32" x2="32" y2="0" gradientUnits="userSpaceOnUse"><stop offset=".1" stop-color="#a56eff"/><stop offset=".9" stop-color="#0f62fe"/></linearGradient><mask id="8yei3ksi8b" x="0" y="0" width="32" height="32" maskUnits="userSpaceOnUse"><path d="M28 5.965H16l-3.41-3.41c-.37-.38-.88-.59-1.41-.59H4c-1.1 0-2 .9-2 2V9.98l.01 18h2l-.01-14v-4h7.172l4 4H28l-.009 7v5H16.006l.01 2h11.975c1.11 0 2-.89 2-2v-4l.009-8V7.965a2 2 0 0 0-2-2zM16 11.98l-3.414-3.414a2 2 0 0 0-1.414-.586H4V3.965h7.18l4 4H28v4.015H16z" style="fill:#fff;stroke-width:0"/><path transform="rotate(-90 3.011 14.795)" style="fill:url(#j8yay3g5pa);stroke-width:0" d="M-.174 12.594h6.37v4.402h-6.37z"/><path style="stroke-width:0" d="M1.011 17.699h8V30.98h-8z"/></mask></defs><g style="mask:url(#8yei3ksi8b)"><path style="fill:url(#mh7vaf6plc);stroke-width:0" d="M0 0h32v32H0z"/></g><path d="M12.011 22h-1v-2.5c0-1.93-1.57-3.5-3.5-3.5s-3.5 1.57-3.5 3.5V22h-1a1 1 0 0 0-1 1v6a1 1 0 0 0 1 1h9a1 1 0 0 0 1-1v-6a1 1 0 0 0-1-1zm-4.5-4c.827 0 1.5.673 1.5 1.5V22h-3v-2.5c0-.827.673-1.5 1.5-1.5zm3.5 10h-7v-4h7v4z" style="fill:#001d6c;stroke-width:0"/></svg>