<svg id="DevSecOps" xmlns="http://www.w3.org/2000/svg" viewBox="0 0 32 32"><defs><linearGradient id="rt73bp6u3a" x1="1526.843" y1="234.303" x2="1539.843" y2="234.303" gradientTransform="matrix(1.03 0 0 .848 -1567.477 -173.977)" gradientUnits="userSpaceOnUse"><stop offset=".1" stop-opacity="0"/><stop offset=".9"/></linearGradient><linearGradient id="dkslouik3c" x1="-4338" y1="4370" x2="-4370" y2="4402" gradientTransform="matrix(1 0 0 -1 4370 4402)" gradientUnits="userSpaceOnUse"><stop offset=".1" stop-color="#a56eff"/><stop offset=".9" stop-color="#0f62fe"/></linearGradient><mask id="n0nwylq5fb" x="0" y="0" width="32" height="32" maskUnits="userSpaceOnUse"><path d="M15.486 30.864 3.5 23.876a1 1 0 0 1-.5-.864V9h2v13.438l11.494 6.7zM12.992 13.017h-2L11 4.337a1 1 0 0 1 .5-.866l4.02-2.313a1 1 0 0 1 1 0L28.5 8.136A1 1 0 0 1 29 9v4h-2V9.575L16.017 3.18 13 4.917z" style="fill:#fff"/><path style="fill:#fff" d="M7 6h2v10H7z"/><path transform="rotate(30 12.138 24.76)" style="fill:url(#rt73bp6u3a)" d="M5.442 20.519h13.392v8.482H5.442z"/></mask></defs><g style="mask:url(#n0nwylq5fb)"><path transform="rotate(90 16 16)" style="fill:url(#dkslouik3c)" d="M0 0h32v32H0z"/></g><path d="m23 30.166-3.573-2.144A5.023 5.023 0 0 1 17 23.735V16h12v7.735a5.023 5.023 0 0 1-2.427 4.287zM19 18v5.735a3.015 3.015 0 0 0 1.457 2.573L23 27.834l2.543-1.526A3.015 3.015 0 0 0 27 23.735V18z" style="fill:#001d6c"/></svg>