<svg id="DirectLink2.0Dedicated" xmlns="http://www.w3.org/2000/svg" viewBox="0 0 32 32"><defs><linearGradient id="hfwxkcnh2a" x1="-959.54" y1="-511.167" x2="-954.259" y2="-511.167" gradientTransform="matrix(.846 0 0 .932 821.691 483.976)" gradientUnits="userSpaceOnUse"><stop offset=".2"/><stop offset="1" stop-opacity="0"/></linearGradient><linearGradient id="879psmhkac" x1="0" y1="32" x2="32" y2="0" gradientUnits="userSpaceOnUse"><stop offset=".1" stop-color="#ee5396"/><stop offset=".9" stop-color="#8a3ffc"/></linearGradient><mask id="p3jmzbvx6b" x="10" y="3" width="22" height="18" maskUnits="userSpaceOnUse"><path d="M32 11h-3V4.911A1.913 1.913 0 0 0 27.089 3H12.911A1.913 1.913 0 0 0 11 4.911V9h2V5h14v14H13v-4h-2v4c0 1.103.897 2 2 2h14.089A1.913 1.913 0 0 0 29 19.089V13h3v-2z" style="fill:#fff"/><path transform="rotate(-90 12 7.5)" style="fill:url(#hfwxkcnh2a)" d="M9.5 5.5h5v4h-5z"/></mask></defs><g style="mask:url(#p3jmzbvx6b)"><path style="fill:url(#879psmhkac)" d="M0 0h32v32H0z"/></g><path d="M21 17v-4c0-1.103-.897-2-2-2H4.911A1.913 1.913 0 0 0 3 12.911V19H0v2h3v6.089C3 28.143 3.857 29 4.911 29h14.178A1.913 1.913 0 0 0 21 27.089V23h-2v4H5V13h14v4h2z" style="fill:#001d6c"/></svg>