<svg id="MethodComposer" xmlns="http://www.w3.org/2000/svg" viewBox="0 0 32 32"><defs><linearGradient id="n1hzfaeisa" x1="4.983" y1="24.981" x2="23.983" y2="24.981" gradientUnits="userSpaceOnUse"><stop offset=".2" stop-opacity="0"/><stop offset=".77"/></linearGradient><linearGradient id="s07ohk41zc" y1="32" x2="32" gradientUnits="userSpaceOnUse"><stop offset=".1" stop-color="#a56eff"/><stop offset=".9" stop-color="#0f62fe"/></linearGradient><mask id="mjfzmmeeob" x="0" y="0" width="32" height="32" maskUnits="userSpaceOnUse"><path d="M15.983 29.981a14 14 0 1 1 10-23.766V1.981h2v8h-8v-2H24.9a11.993 11.993 0 1 0-8.921 20h7v2z" style="fill:#fff"/><path style="fill:url(#n1hzfaeisa)" d="M4.983 18.981h19v12h-19z"/></mask></defs><g style="mask:url(#mjfzmmeeob)"><path style="fill:url(#s07ohk41zc)" d="M0 0h32v32H0z"/></g><path d="m13.743 10.444-3.3 3.3a1.585 1.585 0 0 0 0 2.24l12 12h5.533v-5.535l-12-12a1.587 1.587 0 0 0-2.24 0zm12.24 12.833v2.7h-2.705l-7.44-7.441 2.7-2.7zm-8.855-8.855-2.7 2.7-2.268-2.267 2.705-2.7z" style="fill:#001d6c"/></svg>