<svg id="EngineeringLifecycleManagementAutomotiveCompliance" xmlns="http://www.w3.org/2000/svg" viewBox="0 0 32 32"><defs><linearGradient id="voyk29vzwa" x1="981.147" y1="988.776" x2="990.083" y2="988.776" gradientTransform="translate(-970.526 -981.962)" gradientUnits="userSpaceOnUse"><stop offset="0" stop-opacity="0"/><stop offset=".9"/></linearGradient><linearGradient id="iyi12lg2xc" y1="32" x2="32" gradientUnits="userSpaceOnUse"><stop offset=".1" stop-color="#a56eff"/><stop offset=".9" stop-color="#0f62fe"/></linearGradient><mask id="bq26dgi5xb" x="0" y="0" width="32" height="32" maskUnits="userSpaceOnUse"><path d="M30.02 13.993h-2a1.993 1.993 0 0 0-1.722 1H6.088l2.625-7h10.319v-2H8.713a2.01 2.01 0 0 0-1.873 1.3l-2.514 6.7H2.02v2h2v9a2 2 0 0 0 2 2v3h2v-3h16v3h2v-3a2 2 0 0 0 2-2v-9h2zm-24 11v-3h3v-2h-3v-3h20v3h-3v2h3v3z" style="fill:#fff"/><path style="fill:#fff" d="M12.02 19.993h8v2h-8z"/><path style="fill:url(#voyk29vzwa)" d="M10.621 4.314h8.936v5h-8.936z"/></mask></defs><g style="mask:url(#bq26dgi5xb)"><path style="fill:url(#iyi12lg2xc)" d="M0 0h32v32H0z"/></g><path style="fill:#001d6c" d="m23.019 8.173-2.59-2.59-1.409 1.41 3.999 4 7-7-1.41-1.41-5.59 5.59z"/></svg>