<svg id="EngineeringSystemsDesignRhapsodySN2" xmlns="http://www.w3.org/2000/svg" xmlns:xlink="http://www.w3.org/1999/xlink" viewBox="0 0 32 32"><defs><linearGradient id="u8i5ox1xka" x1="-208" y1="-80" x2="-199" y2="-80" gradientTransform="translate(219 85)" gradientUnits="userSpaceOnUse"><stop offset="0" stop-opacity="0"/><stop offset=".9"/></linearGradient><linearGradient id="ftewsi7iqb" x1="3583" y1="2350.5" x2="3592" y2="2350.5" gradientTransform="translate(-3577 -2325)" xlink:href="#u8i5ox1xka"/><linearGradient id="qep4aajhtd" x1="0" y1="32" x2="32" y2="0" gradientUnits="userSpaceOnUse"><stop offset=".1" stop-color="#a56eff"/><stop offset=".9" stop-color="#0f62fe"/></linearGradient><mask id="tyjwua450c" x="0" y="0" width="32" height="32" maskUnits="userSpaceOnUse"><path d="M14 27h-4c-3.86 0-7-3.14-7-7v-2h2v2c0 2.757 2.243 5 5 5h4v2zM27 18v-7c0-3.86-3.14-7-7-7h-8v2h8c2.757 0 5 2.243 5 5v7h2z" style="fill:#fff"/><path transform="rotate(180 15.5 5)" style="fill:url(#u8i5ox1xka)" d="M11 3h9v4h-9z"/><path style="fill:url(#ftewsi7iqb)" d="M6 23h9v5H6z"/><g><path d="M17 21h12a2 2 0 0 1 2 2v4a2 2 0 0 1-2 2H17a2 2 0 0 1-2-2v-4a2 2 0 0 1 2-2zm12 6v-4H17v4h12z" style="fill:#fff"/><path style="fill:#fff" d="M19 24h2v2h-2z"/></g></mask></defs><g style="mask:url(#tyjwua450c)"><path style="fill:url(#qep4aajhtd)" d="M0 0h32v32H0z"/></g><path d="M10 8V4a2 2 0 0 0-2-2H2v13h2v-5h1.48l2.34 5H10l-2.33-5H8a2 2 0 0 0 2-2zM4 4h4v4H4V4z" style="fill:#001d6c"/></svg>