<svg id="EnviziESGSuite" xmlns="http://www.w3.org/2000/svg" viewBox="0 0 32 32"><defs><linearGradient id="rndjpkp6ea" x1="256.002" y1="-5312.5" x2="264.244" y2="-5312.5" gradientTransform="translate(-245.246 5316)" gradientUnits="userSpaceOnUse"><stop offset=".2"/><stop offset=".8" stop-opacity="0"/></linearGradient><linearGradient id="aql6ryuexc" x1="0" y1="32" x2="32" y2="0" gradientUnits="userSpaceOnUse"><stop offset=".1" stop-color="#43bc65"/><stop offset=".9" stop-color="#027d79"/></linearGradient><mask id="z96k8slkdb" x="0" y="0" width="32" height="32" maskUnits="userSpaceOnUse"><path style="fill:#fff" d="M9.987 13h8v2h-8zM9.999 23h12v2h-12zM9.999 18h12v2h-12z"/><path d="M24.998 2h-18a2 2 0 0 0-2 2v24a2 2 0 0 0 2 2h18a2 2 0 0 0 2-2V4a2 2 0 0 0-2-2zm0 26h-18V4h18v24z" style="fill:#fff"/><path transform="rotate(180 14.877 3.5)" style="fill:url(#rndjpkp6ea)" d="M10.756 1h8.242v5h-8.242z"/><path d="M22.441 16.946 22.464 18h5.534V1h-9.271v15.946h3.714z"/></mask></defs><g style="mask:url(#z96k8slkdb)"><path style="fill:url(#aql6ryuexc)" d="M0 0h32v32H0z"/></g><path d="M25 10h-1c-2.757 0-5-2.243-5-5V1h3a5.006 5.006 0 0 1 4.52 2.863A3.983 3.983 0 0 1 29 3h3v3c0 2.206-1.794 4-4 4h-1v5h-2v-5zm0-4c0-1.654-1.346-3-3-3h-1v2c0 1.654 1.346 3 3 3h1V6zm4-1c-1.103 0-2 .897-2 2v1h1c1.103 0 2-.897 2-2V5h-1z" style="fill:#001d6c"/></svg>