<svg xmlns="http://www.w3.org/2000/svg" xmlns:xlink="http://www.w3.org/1999/xlink" viewBox="0 0 32 32"><defs><linearGradient id="ePassMobile_svg__a" x1="10" y1="27" x2="10" y2="18" gradientUnits="userSpaceOnUse"><stop offset=".2"/><stop offset=".95" stop-opacity="0"/></linearGradient><linearGradient id="ePassMobile_svg__b" x1="-1255.5" y1="2412.5" x2="-1255.5" y2="2403.5" gradientTransform="translate(1278 -2398)" xlink:href="#ePassMobile_svg__a"/><linearGradient id="ePassMobile_svg__d" y1="32" x2="32" gradientUnits="userSpaceOnUse"><stop offset=".1" stop-color="#a56eff"/><stop offset=".9" stop-color="#0f62fe"/></linearGradient><mask id="ePassMobile_svg__c" x="0" y="0" width="32" height="32" maskUnits="userSpaceOnUse"><path d="M27.994 22.337l-1.414-1.414-2.122 2.122-1.414-1.415 2.122-2.121-1.415-1.409-2.121 2.116-5.318-5.316a7.957 7.957 0 001.619-3.9H26V9h-8.069A8 8 0 109 17.931V26h2v-8.069a7.946 7.946 0 003.9-1.619l10.973 10.975 1.414-1.414-1.414-1.414zM10 16a6 6 0 116-6 6.006 6.006 0 01-6 6z" fill="#fff"/><path fill="url(#ePassMobile_svg__a)" d="M8 18h4v9H8z"/><path transform="rotate(-90 22.5 10)" fill="url(#ePassMobile_svg__b)" d="M20.5 5.5h4v9h-4z"/></mask></defs><g data-name="Layer 2"><g data-name="Light theme icons"><g mask="url(#ePassMobile_svg__c)"><path fill="url(#ePassMobile_svg__d)" d="M0 0h32v32H0z"/></g><circle cx="10" cy="10" r="2" fill="#001d6c"/><circle cx="10" cy="28" r="2" fill="#001d6c"/><circle cx="28" cy="10" r="2" fill="#001d6c"/></g></g></svg>