<svg xmlns="http://www.w3.org/2000/svg" viewBox="0 0 32 32"><defs><linearGradient id="ePricerBP_svg__a" x1="6" y1="29" x2="21" y2="29" gradientUnits="userSpaceOnUse"><stop offset=".1" stop-opacity="0"/><stop offset=".9"/></linearGradient><linearGradient id="ePricerBP_svg__c" y1="32" x2="32" gradientUnits="userSpaceOnUse"><stop offset=".1" stop-color="#08bdba"/><stop offset=".9" stop-color="#0f62fe"/></linearGradient><mask id="ePricerBP_svg__b" x="0" y="0" width="32" height="32" maskUnits="userSpaceOnUse"><path fill="#fff" d="M9 23h2v2H9zM9 18h2v2H9zM9 13h2v2H9zM15 23h2v2h-2zM15 18h2v2h-2zM15 13h2v2h-2zM21 13h2v2h-2z"/><path d="M20 30H6.005a2.007 2.007 0 01-2-2V4A2 2 0 016 2h20a2 2 0 012 2v11h-2V4H6v24h14z" fill="#fff"/><path fill="#fff" d="M9 7h14v3H9z"/><path fill="url(#ePricerBP_svg__a)" d="M6 27h15v4H6z"/></mask></defs><g data-name="Layer 2"><g data-name="Light theme icons"><g mask="url(#ePricerBP_svg__b)"><path fill="url(#ePricerBP_svg__c)" d="M0 0h32v32H0z"/></g><path d="M29 30h-6a2 2 0 01-2-2v-8a2 2 0 012-2h5a2 2 0 012 2v5h-7v3h6zm-6-7h5v-3h-5z" fill="#001d6c"/></g></g></svg>