<svg xmlns="http://www.w3.org/2000/svg" viewBox="0 0 32 32"><defs><linearGradient id="gr4a4me6ga" x1="6" y1="29" x2="21" y2="29" gradientUnits="userSpaceOnUse"><stop offset=".1" stop-opacity="0"/><stop offset=".9"/></linearGradient><linearGradient id="bgynrziv1c" y1="32" x2="32" gradientUnits="userSpaceOnUse"><stop offset=".1" stop-color="#08bdba"/><stop offset=".9" stop-color="#0f62fe"/></linearGradient><mask id="l47o873a6b" x="0" y="0" width="32" height="32" maskUnits="userSpaceOnUse"><path fill="#fff" d="M9 23h2v2H9zm0-5h2v2H9zm0-5h2v2H9zm6 10h2v2h-2zm0-5h2v2h-2zm0-5h2v2h-2zm6 0h2v2h-2z"/><path d="M20 30H6.005a2.007 2.007 0 0 1-2-2V4A2 2 0 0 1 6 2h20a2 2 0 0 1 2 2v11h-2V4H6v24h14z" fill="#fff"/><path fill="#fff" d="M9 7h14v3H9z"/><path fill="url(#gr4a4me6ga)" d="M6 27h15v4H6z"/></mask></defs><g data-name="Layer 2"><g data-name="Light theme icons"><g mask="url(#l47o873a6b)"><path fill="url(#bgynrziv1c)" d="M0 0h32v32H0z"/></g><path d="M29 30h-6a2 2 0 0 1-2-2v-8a2 2 0 0 1 2-2h5a2 2 0 0 1 2 2v5h-7v3h6zm-6-7h5v-3h-5z" fill="#001d6c"/></g></g></svg>