<svg id="EventNotification" xmlns="http://www.w3.org/2000/svg" xmlns:xlink="http://www.w3.org/1999/xlink" viewBox="0 0 32 32"><defs><linearGradient id="nxkz3svyra" x1="143.309" y1="15.423" x2="147.132" y2="13.215" gradientTransform="matrix(1.053 .5 -.608 .866 -123.253 -72.006)" gradientUnits="userSpaceOnUse"><stop offset=".2"/><stop offset="1" stop-opacity="0"/></linearGradient><linearGradient id="oa2pmixqjb" x1="-12.952" y1="-172.963" x2="-9.129" y2="-175.17" gradientTransform="matrix(1.005 .5 -.58 .866 -69.01 175.562)" xlink:href="#nxkz3svyra"/><linearGradient id="6l8kreoagd" y1="32" x2="32" gradientUnits="userSpaceOnUse"><stop offset=".1" stop-color="#08bdba"/><stop offset=".9" stop-color="#0f62fe"/></linearGradient><mask id="epr6uef4rc" x="0" y="0" width="32" height="32" maskUnits="userSpaceOnUse"><path d="m19.513 14.985 5.634-3.508a2.977 2.977 0 0 0 1.2.56 3.053 3.053 0 0 0 .628.066 3.006 3.006 0 1 0-2.911-2.3l-5.6 3.489zm6.906-6.721a.984.984 0 0 1 .543-.162 1 1 0 0 1 .98 1.207 1 1 0 0 1-1.817.338 1 1 0 0 1 .294-1.383zM29.511 21.466a3.051 3.051 0 0 0-4.15-.879 2.478 2.478 0 0 0-.2.157l-5.649-3.5-1.053 1.7 5.616 3.477a2.99 2.99 0 0 0 2.294 3.614A3.046 3.046 0 0 0 27 26.1a3 3 0 0 0 2.509-4.637zM27.54 23.94a1 1 0 0 1-1.383-.293 1 1 0 0 1 .293-1.383 1.07 1.07 0 0 1 1.384.293 1 1 0 0 1-.294 1.383z" style="fill:#fff"/><path transform="rotate(-32.111 20.914 13.006)" style="fill:url(#nxkz3svyra)" d="M18.232 11.456h5.367v3.098h-5.367z"/><path transform="rotate(34.229 20.896 19.295)" style="fill:url(#oa2pmixqjb)" d="M18.334 17.746h5.124v3.098h-5.124z"/></mask></defs><g style="mask:url(#epr6uef4rc)"><path style="fill:url(#6l8kreoagd)" d="M0 0h32v32H0z"/></g><path d="M19.361 13.943a4 4 0 0 0-4.633-1.595L11.35 6.985a2.992 2.992 0 1 0-4.771-.117 2.947 2.947 0 0 0 3.072 1.175l3.4 5.4a3.958 3.958 0 0 0-.913 1.7l-4.307-.029a2.933 2.933 0 0 0-.387-.781 3 3 0 0 0-4.876 3.5 2.984 2.984 0 0 0 1.951 1.212 3.057 3.057 0 0 0 .494.04 3 3 0 0 0 2.808-1.968l4.331.029a3.7 3.7 0 0 0 1 1.779l-3.531 5.254c-.04-.008-.076-.024-.116-.031a3 3 0 0 0-2.926 4.709 2.983 2.983 0 0 0 1.95 1.212 3.057 3.057 0 0 0 .494.04 3 3 0 0 0 2.432-4.748c-.037-.052-.085-.093-.125-.142l3.545-5.268a4.028 4.028 0 0 0 1.138.171 4 4 0 0 0 3.347-6.179zM8.205 5.7a1 1 0 0 1 .23-1.4 1 1 0 0 1 1.395.23A1 1 0 0 1 8.205 5.7zM5.593 16.893a1 1 0 1 1 .23-1.4 1 1 0 0 1-.23 1.4zM9.6 27.921A1 1 0 1 1 8.435 26.3a1 1 0 0 1 1.395.23 1 1 0 0 1-.23 1.391zm8.364-11.383a2 2 0 1 1-.28-1.505 1.988 1.988 0 0 1 .28 1.505z" style="fill:#001d6c"/></svg>