<svg id="EventStreams" xmlns="http://www.w3.org/2000/svg" xmlns:xlink="http://www.w3.org/1999/xlink" viewBox="0 0 32 32"><defs><linearGradient id="1yrosp8j9a" x1="704.777" y1="732.573" x2="704.777" y2="723.573" gradientTransform="matrix(1.117 0 0 .906 -766.844 -649.05)" gradientUnits="userSpaceOnUse"><stop offset="0" stop-opacity="0"/><stop offset=".66"/></linearGradient><linearGradient id="kvcntucpmb" x1="-906.243" y1="2927.943" x2="-906.243" y2="2918.943" gradientTransform="matrix(1.117 0 0 .906 1024.23 -2627.173)" xlink:href="#1yrosp8j9a"/><linearGradient id="8a1yxr7svd" x1="0" y1="32" x2="32" y2="0" gradientUnits="userSpaceOnUse"><stop offset=".1" stop-color="#08bdba"/><stop offset=".9" stop-color="#0f62fe"/></linearGradient><mask id="zsu5lzz77c" x="0" y="0" width="32" height="32" maskUnits="userSpaceOnUse"><path d="M4.237 23.817A10.927 10.927 0 0 1 .97 15.996c0-6.065 4.935-10.999 11-10.999s11 4.935 11 11h-2c0-4.962-4.038-9-9-9s-9 4.037-9 9c0 2.421.949 4.694 2.673 6.399l-1.406 1.422z" style="fill:#fff"/><path transform="rotate(133.375 20.38 10.53)" style="fill:url(#1yrosp8j9a)" d="M17.588 6.453h5.585v8.153h-5.585z"/><path d="M19.97 27.006c-6.065 0-11-4.935-11-11l2-.01c0 4.972 4.038 9.01 9 9.01s9-4.038 9-9a8.932 8.932 0 0 0-2.637-6.353l1.414-1.414a10.912 10.912 0 0 1 3.223 7.767c0 6.065-4.935 11-11 11z" style="fill:#fff"/><path transform="rotate(-45 23.52 15.006)" d="M20.401 11.887h6.239v6.239h-6.239z"/><path transform="rotate(-45 11.97 21.249)" style="fill:url(#kvcntucpmb)" d="M9.178 17.172h5.585v8.153H9.178z"/><path transform="rotate(-45 8.13 17.78)" d="M4.655 15.023h6.952v5.514H4.655z"/></mask></defs><g style="mask:url(#zsu5lzz77c)"><path style="fill:url(#8a1yxr7svd)" d="M0 0h32v32H0z"/></g><circle cx="23.97" cy="5.002" r="2" style="fill:#001d6c"/><circle cx="7.97" cy="26.982" r="2" style="fill:#001d6c"/><path d="M15.984 20.828a1.993 1.993 0 0 1-1.414-.585l-2.828-2.829a2.001 2.001 0 0 1 0-2.828l2.828-2.829a2.003 2.003 0 0 1 2.828 0l2.829 2.829c.78.78.78 2.048 0 2.828l-2.828 2.829c-.39.39-.902.585-1.415.585zm0-7.656-2.829 2.829 2.828 2.829 2.83-2.83-2.829-2.828z" style="fill:#001d6c"/></svg>