<svg xmlns="http://www.w3.org/2000/svg" xmlns:xlink="http://www.w3.org/1999/xlink" viewBox="0 0 32 32">
  <defs>
    <linearGradient id="bb1b5d06-2ef9-4d64-a0d7-1a28beae81b9" x1="11" y1="11" x2="21" y2="21" gradientUnits="userSpaceOnUse">
      <stop offset="0.2" stop-opacity="0"/>
      <stop offset="0.78"/>
    </linearGradient>
    <linearGradient id="b3b53666-98d9-4af8-8a6e-d6a3368ecd07" x1="-2782.069" y1="-2335.242" x2="-2782.069" y2="-2342.297" gradientTransform="translate(2796.069 2675.07) scale(1 1.134)" gradientUnits="userSpaceOnUse">
      <stop offset="0.15"/>
      <stop offset="0.9" stop-opacity="0"/>
    </linearGradient>
    <linearGradient id="a6537079-7119-4f6a-8023-ac306daeffc2" x1="-293.069" y1="-105.004" x2="-293.069" y2="-112.059" gradientTransform="translate(316.069 137.07) scale(1 1.134)" xlink:href="#b3b53666-98d9-4af8-8a6e-d6a3368ecd07"/>
    <mask id="b71a2de8-9707-4a3d-845b-1700b6cbba34" x="0" y="0" width="32" height="32" maskUnits="userSpaceOnUse">
      <rect x="12.268" y="5.161" width="2" height="16.213" transform="translate(-5.496 13.268) rotate(-45.001)" fill="#fff"/>
      <rect x="11" y="11" width="10" height="10" fill="url(#bb1b5d06-2ef9-4d64-a0d7-1a28beae81b9)"/>
      <rect x="22" y="9" width="2" height="8" fill="#fff"/>
      <rect x="9" y="22" width="8" height="2" fill="#fff"/>
      <rect x="12" y="19" width="4" height="8" transform="translate(-9 37) rotate(-90)" fill="url(#b3b53666-98d9-4af8-8a6e-d6a3368ecd07)"/>
      <rect x="21" y="10" width="4" height="8" fill="url(#a6537079-7119-4f6a-8023-ac306daeffc2)"/>
      <path d="M23,30a7,7,0,1,1,7-7A7.008,7.008,0,0,1,23,30Zm0-12a5,5,0,1,0,5,5A5.006,5.006,0,0,0,23,18Z" fill="#fff"/>
    </mask>
    <linearGradient id="aa734dd7-498d-42bc-92a5-ab0353720347" y1="32" x2="32" gradientUnits="userSpaceOnUse">
      <stop offset="0.1" stop-color="#08bdba"/>
      <stop offset="0.9" stop-color="#0f62fe"/>
    </linearGradient>
  </defs>
  <g id="bb43d367-6ba1-4f47-b00c-b4ee9f930155" data-name="Layer 2">
    <g id="ef9b69d1-db3a-4d0a-97fe-3b423c7ef5b4" data-name="Build icon here">
      <g>
        <g mask="url(#b71a2de8-9707-4a3d-845b-1700b6cbba34)">
          <rect width="32" height="32" fill="url(#aa734dd7-498d-42bc-92a5-ab0353720347)"/>
        </g>
        <path d="M4,7A3,3,0,1,1,7,4,3,3,0,0,1,4,7ZM4,3A1,1,0,1,0,5,4,1,1,0,0,0,4,3Z" fill="#001d6c"/>
        <path d="M23,7a3,3,0,1,1,3-3A3,3,0,0,1,23,7Zm0-4a1,1,0,1,0,1,1A1,1,0,0,0,23,3Z" fill="#001d6c"/>
        <path d="M4,26a3,3,0,1,1,3-3A3,3,0,0,1,4,26Zm0-4a1,1,0,1,0,1,1A1,1,0,0,0,4,22Z" fill="#001d6c"/>
      </g>
    </g>
  </g>
</svg>
