<svg id="FeedbackHub" xmlns="http://www.w3.org/2000/svg" viewBox="0 0 32 32"><defs><linearGradient id="xcm9e93iia" x1="-147.903" y1="-25.5" x2="-137.903" y2="-25.5" gradientTransform="translate(153.903 49.5)" gradientUnits="userSpaceOnUse"><stop offset="0" stop-opacity="0"/><stop offset=".83"/></linearGradient><linearGradient id="efjp5y4l8b" x1="-21.5" y1="-547.447" x2="-11.5" y2="-547.447" gradientTransform="translate(42.553 563.447)" gradientUnits="userSpaceOnUse"><stop offset="0" stop-opacity="0"/><stop offset=".6"/></linearGradient><linearGradient id="2fz8xavpxd" x1="0" y1="32" x2="32" y2="0" gradientUnits="userSpaceOnUse"><stop offset=".1" stop-color="#ad6bff"/><stop offset=".9" stop-color="#0064ff"/></linearGradient><mask id="wvr8envqyc" x="0" y="0" width="32" height="32" maskUnits="userSpaceOnUse"><path d="M15 25H7.005A4.005 4.005 0 0 1 3 20.995v-9.993a4.001 4.001 0 0 1 4.001-4.001H15v2H7.001A2.001 2.001 0 0 0 5 11.002v9.993C5 22.103 5.898 23 7.005 23H15v2z" style="fill:#fff"/><path style="fill:url(#xcm9e93iia)" d="M6 22h10v4H6z" id="Gradients_black_" data-name="Gradients (black)"/><path d="m15.69 30-1.732-1 3.465-6h5.572A2.005 2.005 0 0 0 25 20.995v-8.992h2v8.992A4.005 4.005 0 0 1 22.995 25h-4.417l-2.887 5z" style="fill:#fff"/><path transform="rotate(-90 26.053 16)" style="fill:url(#efjp5y4l8b)" d="M21.053 14h10v4h-10z"/></mask></defs><g style="mask:url(#wvr8envqyc)"><path style="fill:url(#2fz8xavpxd)" d="M0 0h32v32H0z"/></g><circle cx="18.002" cy="4.002" r="1.002" style="fill:#001f76"/><path style="fill:#001f76" d="M21.008 3h8.016v2.004h-8.016z"/><circle cx="18.002" cy="11.998" r="1.002" style="fill:#001f76"/><path style="fill:#001f76" d="M21.008 10.996h8.016V13h-8.016z"/><circle cx="28.022" cy="8" r="1.002" style="fill:#001f76"/><path style="fill:#001f76" d="M17 6.998h8.016v2.004H17z"/></svg>