<svg id="FileStorageForClassic" xmlns="http://www.w3.org/2000/svg" viewBox="0 0 32 32"><defs><linearGradient id="9remucjdna" x1="-134.024" y1="57.976" x2="-134.024" y2="46.976" gradientTransform="translate(143.524 -25.476)" gradientUnits="userSpaceOnUse"><stop offset=".1"/><stop offset="1" stop-opacity="0"/></linearGradient><linearGradient id="s1w5h4fg4c" data-name="New Gradient Swatch 5" x1="0" y1="32" x2="32" y2="0" gradientUnits="userSpaceOnUse"><stop offset=".1" stop-color="#43bc65"/><stop offset=".9" stop-color="#027d79"/></linearGradient><mask id="x80o586krb" x="0" y="0" width="32" height="32" maskUnits="userSpaceOnUse"><path d="M14 26H4V6h7.172l3.414 3.414.586.586H28v8h2v-8a2 2 0 0 0-2-2H16l-3.414-3.414A2 2 0 0 0 11.172 4H4a2 2 0 0 0-2 2v20a2 2 0 0 0 2 2h10v-2z" style="fill:#fff;stroke-width:0"/><path transform="rotate(-90 9.5 27)" style="fill:url(#9remucjdna);stroke-width:0" d="M7.5 21.5h4v11h-4z"/></mask></defs><path style="fill:#001d6c;stroke-width:0" d="M20 28h6v2h-6zM20 18h6v2h-6zM17 21h2v6h-2zM27 21h2v6h-2z"/><g style="mask:url(#x80o586krb)"><path style="fill:url(#s1w5h4fg4c);stroke-width:0" d="M0 0h32v32H0z"/></g></svg>