<svg id="GlobalStorageArchitectureClient" xmlns="http://www.w3.org/2000/svg" viewBox="0 0 32 32"><defs><linearGradient id="k484iu3zba" x1="3.344" y1="18.136" x2="26.656" y2="31.596" gradientUnits="userSpaceOnUse"><stop offset=".1" stop-opacity="0"/><stop offset=".55"/></linearGradient><linearGradient id="6err4hwzwb" x1="12.72" y1="27.967" x2="12.72" y2="16" gradientUnits="userSpaceOnUse"><stop offset=".15" stop-color="#fff" stop-opacity="0"/><stop offset=".8" stop-color="#fff"/></linearGradient><linearGradient id="25u67q27od" y1="32" x2="32" gradientUnits="userSpaceOnUse"><stop offset=".1" stop-color="#fa4d56"/><stop offset=".9" stop-color="#0f62fe"/></linearGradient><mask id="1r0tnq1wdc" x="0" y="0" width="32" height="32" maskUnits="userSpaceOnUse"><path d="M16 2a14 14 0 1 0 9.9 23.9l-1.414-1.414A11.992 11.992 0 0 1 4.049 17H30v-1A14 14 0 0 0 16 2zM4.051 15A12.011 12.011 0 0 1 12.79 4.449 24.336 24.336 0 0 0 10.037 15zm7.982 0a21.788 21.788 0 0 1 3.3-10.956 5.11 5.11 0 0 1 1.342 0A21.788 21.788 0 0 1 19.967 15zm9.93 0A24.322 24.322 0 0 0 19.21 4.449 12.011 12.011 0 0 1 27.949 15z" style="fill:#fff"/><path style="fill:url(#k484iu3zba)" d="M27 31 0 30l4-13 23 1v13z"/><path d="M15.441 27.967A21.7 21.7 0 0 1 12 16h-2a24.135 24.135 0 0 0 2.824 11.56 11.994 11.994 0 0 0 2.617.407z" style="fill:url(#6err4hwzwb)"/></mask></defs><g style="mask:url(#1r0tnq1wdc)"><path style="fill:url(#25u67q27od)" d="M0 0h32v32H0z"/></g><path d="M26.5 30H19a4 4 0 0 1 0-8h.083A4.787 4.787 0 0 1 23 20a4.981 4.981 0 0 1 4.654 3.2A3.468 3.468 0 0 1 30 26.5a3.5 3.5 0 0 1-3.5 3.5zM19 24a2 2 0 0 0 0 4h7.5a1.5 1.5 0 0 0 1.5-1.5 1.486 1.486 0 0 0-1.278-1.474l-.661-.1-.162-.649a2.957 2.957 0 0 0-5.487-.712l-.3.434z" style="fill:#001d6c"/></svg>