<svg id="GlobalStorageArchitecture" xmlns="http://www.w3.org/2000/svg" xmlns:xlink="http://www.w3.org/1999/xlink" viewBox="0 0 32 32"><defs><linearGradient id="36wvq2wtia" x1="3589.597" y1="-3468.097" x2="3596.597" y2="-3468.097" gradientTransform="translate(-3566.097 3491.097)" gradientUnits="userSpaceOnUse"><stop offset=".2" stop-opacity="0"/><stop offset=".8"/></linearGradient><linearGradient id="4xfhy2is6b" y1="-3446.097" y2="-3446.097" gradientTransform="translate(-3588.097 3469.097)" xlink:href="#36wvq2wtia"/><linearGradient id="ikad6zvlxc" y1="-3457.097" y2="-3457.097" gradientTransform="translate(-3577.097 3480.097)" xlink:href="#36wvq2wtia"/><linearGradient id="tr45vebcme" x1="0" y1="32" x2="32" y2="0" gradientUnits="userSpaceOnUse"><stop offset=".1" stop-color="#00b9b4"/><stop offset=".9" stop-color="#0064ff"/></linearGradient><mask id="mtpyqjrhtd" x="0" y="0" width="32" height="32" maskUnits="userSpaceOnUse"><path d="M6 25v-4h9v4h2v-4h9v4h2v-4c0-1.103-.897-2-2-2h-9v-3h-2v3H6c-1.103 0-2 .897-2 2v4h2z" style="fill:#fff;stroke-width:0"/><path transform="rotate(90 27 23)" style="fill:url(#36wvq2wtia);stroke-width:0" d="M23.5 21h7v4h-7z" id="Gradients_black_" data-name="Gradients (black)"/><path transform="rotate(90 5 23)" style="fill:url(#4xfhy2is6b);stroke-width:0" d="M1.5 21h7v4h-7z" id="Gradients_black_-2" data-name="Gradients (black)"/><path transform="rotate(90 16 23)" style="fill:url(#ikad6zvlxc);stroke-width:0" d="M12.5 21h7v4h-7z" id="Gradients_black_-3" data-name="Gradients (black)"/></mask></defs><g style="mask:url(#mtpyqjrhtd)"><path id="Color" style="fill:url(#tr45vebcme);stroke-width:0" d="M0 0h32v32H0z"/></g><path d="M21.675 6.068C20.868 3.706 18.632 2 16 2s-4.869 1.706-5.675 4.069C8.442 6.392 7 8.025 7 10c0 2.206 1.794 4 4 4h10c2.206 0 4-1.794 4-4a3.998 3.998 0 0 0-3.325-3.932zM21 12H11c-1.103 0-2-.897-2-2s.897-2 2-2h1c0-2.206 1.794-4 4-4s4 1.794 4 4h1c1.103 0 2 .897 2 2s-.897 2-2 2z" style="fill:#001d6c;stroke-width:0"/><circle cx="16" cy="28" r="2" style="fill:#001d6c;stroke-width:0"/><circle cx="5" cy="28" r="2" style="fill:#001d6c;stroke-width:0"/><circle cx="27" cy="28" r="2" style="fill:#001d6c;stroke-width:0"/></svg>