<svg data-name="Build icon here" xmlns="http://www.w3.org/2000/svg" viewBox="0 0 32 32"><defs><linearGradient id="nqnph2hq0a" x1="634.67" y1="-155" x2="634.67" y2="-163" gradientTransform="translate(-614.67 187)" gradientUnits="userSpaceOnUse"><stop offset=".2"/><stop offset="1" stop-opacity="0"/></linearGradient><linearGradient id="z5onfxlbuc" y1="32" x2="32" gradientUnits="userSpaceOnUse"><stop offset=".1" stop-color="#08bdba"/><stop offset=".9" stop-color="#0f62fe"/></linearGradient><mask id="kv8c3ul5rb" x="0" y="0" width="32" height="32" maskUnits="userSpaceOnUse"><path d="M12 4a5 5 0 1 1-5 5 5 5 0 0 1 5-5m0-2a7 7 0 1 0 7 7 7 7 0 0 0-7-7zm10 29h-2v-6a5.006 5.006 0 0 0-5-5H9a5.006 5.006 0 0 0-5 5v5H2v-5a7.009 7.009 0 0 1 7-7h6a7.009 7.009 0 0 1 7 7z" fill="#fff"/><path fill="url(#nqnph2hq0a)" d="M17 24h6v8h-6z"/></mask></defs><g mask="url(#kv8c3ul5rb)"><path fill="url(#z5onfxlbuc)" d="M0 0h32v32H0z"/></g><path fill="#001d6c" d="M22 4h10v2H22zm0 5h10v2H22zm0 5h7v2h-7z"/></svg>