<svg id="GlobalConfigurationManagement" xmlns="http://www.w3.org/2000/svg" viewBox="0 0 32 32"><defs><linearGradient id="81cqky0sta" x1="-1.443" y1="18.561" x2="17.485" y2="29.489" gradientUnits="userSpaceOnUse"><stop offset=".25"/><stop offset=".7" stop-opacity="0"/></linearGradient><linearGradient id="8ha1olp1wc" y1="32" x2="32" gradientUnits="userSpaceOnUse"><stop offset=".1" stop-color="#a56eff"/><stop offset=".9" stop-color="#0f62fe"/></linearGradient><mask id="7z0zghqwcb" x="0" y="0" width="32" height="32.025" maskUnits="userSpaceOnUse"><path d="M16.021 31.025a1 1 0 0 1-.5-.136l-15-8.75 1.008-1.728 14.5 8.456 11-6.416V9.6l-11-6.416L5.021 9.6v2.426h-2v-3a1 1 0 0 1 .5-.864l12-7a1 1 0 0 1 1.008 0l12 7a1 1 0 0 1 .5.864v14a1 1 0 0 1-.5.864l-12 7a.993.993 0 0 1-.508.135z" style="fill:#fff"/><path style="fill:url(#81cqky0sta)" d="M.021 16.025h16v16h-16z"/></mask></defs><g style="mask:url(#7z0zghqwcb)"><path style="fill:url(#8ha1olp1wc)" d="M0 0h32v32H0z"/></g><path style="fill:#001d6c" d="M2.021 17.025h15.172l-3.586 3.586 1.414 1.414 6-6-6-6-1.414 1.414 3.586 3.586H2.021v2z"/></svg>