<svg xmlns="http://www.w3.org/2000/svg" viewBox="0 0 32 32"><defs><style>.cls-1{fill:none;}.cls-2{fill:#161616;}</style></defs><g id="Layer_2" data-name="Layer 2"><g id="Light_theme_icons" data-name="Light theme icons"><rect class="cls-1" width="32" height="32"/><path class="cls-2" d="M.211,20.414v-.46a1.771,1.771,0,0,1,2.023-1.84,1.772,1.772,0,0,1,2.024,1.84v.46a1.771,1.771,0,0,1-2.024,1.839A1.771,1.771,0,0,1,.211,20.414Z"/><path class="cls-2" d="M12.031,26.875c-4.184,0-5.725-1.058-5.725-2.806a2.249,2.249,0,0,1,2.254-2.3v-.253A2.039,2.039,0,0,1,6.812,19.4c0-1.264,1.126-1.908,2.253-2.138v-.092A3.561,3.561,0,0,1,6.9,13.722c0-2.438,1.7-4.07,5.174-4.07a7.96,7.96,0,0,1,2.047.23v-.46A1.608,1.608,0,0,1,15.94,7.605h1.91v2.53H15.182v.137a3.575,3.575,0,0,1,2.069,3.45c0,2.414-1.679,4-5.174,4a8.533,8.533,0,0,1-2.139-.253,1.132,1.132,0,0,0-.528.966c0,.575.414.919,1.448.919h3.5c2.943,0,4.208,1.288,4.208,3.519C18.562,25.426,16.952,26.875,12.031,26.875ZM13.5,22.253H9.364a1.55,1.55,0,0,0-.437,1.08c0,.875.69,1.289,2.53,1.289h1.379c1.84,0,2.529-.414,2.529-1.289C15.365,22.644,14.859,22.253,13.5,22.253Zm.575-8.416v-.276c0-1.058-.667-1.656-2-1.656s-2,.6-2,1.656v.276c0,1.058.667,1.655,2,1.655S14.078,14.9,14.078,13.837Z"/><path class="cls-2" d="M19.186,15.952c0-3.886,2.115-6.3,5.656-6.3s5.657,2.414,5.657,6.3-2.116,6.324-5.657,6.324S19.186,19.838,19.186,15.952Zm7.772,1.242V14.733c0-1.517-.782-2.391-2.116-2.391s-2.115.874-2.115,2.391v2.461c0,1.518.781,2.391,2.115,2.391S26.958,18.712,26.958,17.194Z"/></g></g></svg>