<svg xmlns="http://www.w3.org/2000/svg" xmlns:xlink="http://www.w3.org/1999/xlink" viewBox="0 0 32 32">
  <defs>
    <linearGradient id="b1205ca0-f436-44a8-81ab-bf220c11e0e8" x1="3" y1="9" x2="16" y2="9" gradientUnits="userSpaceOnUse">
      <stop offset="0.05" stop-color="#fff" stop-opacity="0"/>
      <stop offset="0.8" stop-color="#fff"/>
    </linearGradient>
    <mask id="aaf92db1-0581-4296-b880-4814f7995994" x="0" y="0" width="32" height="32" maskUnits="userSpaceOnUse">
      <rect x="22" y="17" width="2" height="2" fill="#fff"/>
      <path d="M28,8H15v2H28v3H20a2,2,0,0,0-2,2v6a2,2,0,0,0,2,2h8l0,3H4V5H26V3H4A2,2,0,0,0,2,5V26a2,2,0,0,0,2,2H28a2,2,0,0,0,2-2V10A2,2,0,0,0,28,8Zm0,13H20V15h8Z" fill="#fff"/>
      <polygon points="3 10 15 10 16 9 15 8 3 8 3 10" fill="url(#b1205ca0-f436-44a8-81ab-bf220c11e0e8)"/>
    </mask>
    <linearGradient id="bd7e15fb-e90f-4739-8f21-b1843da7f604" y1="32" x2="32" gradientUnits="userSpaceOnUse">
      <stop offset="0.1" stop-color="#08bdba"/>
      <stop offset="0.9" stop-color="#8a3ffc"/>
    </linearGradient>
  </defs>
  <g id="bfd452d5-c5e6-40c7-af85-f251868f1dbc" data-name="Layer 2">
    <g id="e4e73f4d-67e0-4416-a875-aae0c34fb0e0" data-name="Build icon here">
      <g>
        <g mask="url(#aaf92db1-0581-4296-b880-4814f7995994)">
          <rect width="32" height="32" fill="url(#bd7e15fb-e90f-4739-8f21-b1843da7f604)"/>
        </g>
        <polygon points="15 17 12 17 12 14 10 14 10 17 7 17 7 19 10 19 10 22 12 22 12 19 15 19 15 17" fill="#001d6c"/>
      </g>
    </g>
  </g>
</svg>
