<svg xmlns="http://www.w3.org/2000/svg" viewBox="0 0 32 32"><defs><linearGradient id="1kzwe5xrna" x1="1981.5" y1="-5128.5" x2="1992.5" y2="-5128.5" gradientTransform="translate(-1963 5148)" gradientUnits="userSpaceOnUse"><stop offset="0" stop-opacity="0"/><stop offset=".9"/></linearGradient><linearGradient id="horvgh2fzc" y1="32" x2="32" gradientUnits="userSpaceOnUse"><stop offset=".1" stop-color="#08bdba"/><stop offset=".9" stop-color="#8a3ffc"/></linearGradient><mask id="50pkiiburb" x="0" y="0" width="32" height="32" maskUnits="userSpaceOnUse"><path fill="#fff" d="M13 6h4v2h-4z"/><path d="M15 28H7V4h16v20h2V4a2 2 0 0 0-2-2H7a2 2 0 0 0-2 2v24a2 2 0 0 0 2 2h8z" fill="#fff"/><path d="M15 12a4 4 0 1 0 4 4 4 4 0 0 0-4-4zm0 6a2 2 0 1 1 2-2 2 2 0 0 1-2 2zm4 3h-7a3 3 0 0 0-3 3v2h2v-2a1 1 0 0 1 1-1h7z" fill="#fff"/><path transform="rotate(90 24 19.5)" fill="url(#1kzwe5xrna)" d="M18.5 17.5h11v4h-11z"/></mask></defs><g data-name="Layer 2"><g data-name="Build icon here"><g mask="url(#50pkiiburb)"><path fill="url(#horvgh2fzc)" d="M0 0h32v32H0z"/></g><path fill="#001d6c" d="m22 28.18-2.59-2.59L18 27l4 4 7-7-1.41-1.41L22 28.18z"/></g></g></svg>