<svg xmlns="http://www.w3.org/2000/svg" viewBox="0 0 32 32"><defs><linearGradient id="ta1nu6ovxa" x1="3" y1="9" x2="16" y2="9" gradientUnits="userSpaceOnUse"><stop offset=".05" stop-color="#fff" stop-opacity="0"/><stop offset=".8" stop-color="#fff"/></linearGradient><linearGradient id="5rkng4bj4c" y1="32" x2="32" gradientUnits="userSpaceOnUse"><stop offset=".1" stop-color="#08bdba"/><stop offset=".9" stop-color="#8a3ffc"/></linearGradient><mask id="tgfu10e1wb" x="0" y="0" width="32" height="32" maskUnits="userSpaceOnUse"><path fill="#fff" d="M22 17h2v2h-2z"/><path d="M28 8H15v2h13v3h-8a2 2 0 0 0-2 2v6a2 2 0 0 0 2 2h8v3H4V5h22V3H4a2 2 0 0 0-2 2v21a2 2 0 0 0 2 2h24a2 2 0 0 0 2-2V10a2 2 0 0 0-2-2zm0 13h-8v-6h8z" fill="#fff"/><path fill="url(#ta1nu6ovxa)" d="M3 10h12l1-1-1-1H3v2z"/></mask></defs><g data-name="Layer 2"><g data-name="Build icon here"><g mask="url(#tgfu10e1wb)"><path fill="url(#5rkng4bj4c)" d="M0 0h32v32H0z"/></g><path fill="#001d6c" d="M15 17h-3v-3h-2v3H7v2h3v3h2v-3h3v-2z"/></g></g></svg>