<svg id="HyperProtectOfflineSigningOrchestrator" xmlns="http://www.w3.org/2000/svg" xmlns:xlink="http://www.w3.org/1999/xlink" viewBox="0 0 32 32"><defs><linearGradient id="wns2exenca" x1="2969.997" y1="7.604" x2="2973.997" y2="7.604" gradientTransform="rotate(-180 1493.998 16.802)" gradientUnits="userSpaceOnUse"><stop offset="0"/><stop offset="1" stop-opacity="0"/></linearGradient><linearGradient id="dyx8hmroub" x1="4775.741" y1="-2971.746" x2="4779.741" y2="-2971.746" gradientTransform="rotate(-45 6006.64 4277.885)" xlink:href="#wns2exenca"/><linearGradient id="zgolno3lbc" x1="3537.997" y1="-3498.396" x2="3541.997" y2="-3498.396" gradientTransform="translate(-3523.997 3504.396)" xlink:href="#wns2exenca"/><linearGradient id="xfrjeel2ze" x1="1483" y1="1515" x2="1515" y2="1483" gradientTransform="matrix(1 0 0 -1 -1483 1515)" gradientUnits="userSpaceOnUse"><stop offset=".1" stop-color="#0f62fe"/><stop offset=".9" stop-color="#1192e8"/></linearGradient><mask id="1tnmvxwuhd" x="0" y="0" width="32" height="32" maskUnits="userSpaceOnUse"><path d="M30 2h-8v3h-8v2h8v1.586L9.293 21.293l1.414 1.414L23.414 10H30V2zm-2 6h-4V4h4v4zM18 25H9.858c-.447-1.72-2-3-3.858-3-2.206 0-4 1.794-4 4s1.794 4 4 4c1.858 0 3.411-1.28 3.858-3H18v-2zM6 28c-1.103 0-2-.897-2-2s.897-2 2-2 2 .897 2 2-.897 2-2 2z" style="fill:#fff;stroke-width:0"/><path d="M18 27h-4v-2h4v2z" style="fill:url(#wns2exenca);stroke-width:0"/><path d="m9.293 21.293 2.828-2.828 1.414 1.414-2.828 2.828-1.414-1.414z" style="fill:url(#dyx8hmroub);stroke-width:0"/><path d="M14 5h4v2h-4V5z" style="fill:url(#zgolno3lbc);stroke-width:0"/></mask></defs><g style="mask:url(#1tnmvxwuhd)"><path transform="rotate(-90 16 16)" style="fill:url(#xfrjeel2ze);stroke-width:0" d="M0 0h32v32H0z"/></g><path d="m25 31-2.139-1.013A5.021 5.021 0 0 1 20 25.467V19h10v6.467a5.023 5.023 0 0 1-2.861 4.52L25 31zm-3-10v4.468c0 1.153.674 2.218 1.717 2.711l1.283.607 1.283-.607A3.011 3.011 0 0 0 28 25.468V21h-6zM2 5h10v2H2zM2 9h6v2H2z" style="fill:#001d6c;stroke-width:0"/><circle cx="11" cy="10" r="1" style="fill:#001d6c;stroke-width:0"/><path transform="rotate(180 9 2)" style="fill:#001d6c;stroke-width:0" d="M6 1h6v2H6z"/><circle cx="3" cy="2" r="1" style="fill:#001d6c;stroke-width:0"/></svg>