<svg id="HyperProtectVirtualServers" xmlns="http://www.w3.org/2000/svg" viewBox="0 0 32 32"><defs><linearGradient id="kvriukc6ja" x1="3584.899" y1="-3396.097" x2="3594.101" y2="-3396.097" gradientTransform="translate(-3562.5 3411.097)" gradientUnits="userSpaceOnUse"><stop offset="0" stop-opacity="0"/><stop offset=".83"/></linearGradient><linearGradient id="s6bn86ym8c" x1="0" y1="32" x2="32" y2="0" gradientUnits="userSpaceOnUse"><stop offset=".1" stop-color="#0f62fe"/><stop offset=".9" stop-color="#1192e8"/></linearGradient><mask id="krq3faywub" x="0" y="0" width="32" height="32" maskUnits="userSpaceOnUse"><path d="M26 29h-8c-1.103 0-2-.897-2-2V5c0-1.103.897-2 2-2h8c1.103 0 2 .897 2 2v22c0 1.103-.897 2-2 2zM18 5v22h8.001V5H18z" style="fill:#fff"/><path transform="rotate(90 27 15)" style="fill:url(#kvriukc6ja)" d="M22.4 13h9.202v4H22.4z" id="Gradients_black_" data-name="Gradients (black)"/><path d="M12 3H4c-1.103 0-2 .897-2 2v22c0 1.103.897 2 2 2h8c1.103 0 2-.897 2-2V5c0-1.103-.897-2-2-2zm0 6.92L5.85 5H12v4.92zM11.399 12 4 17.92V6.08L11.399 12zM12 14.08v11.841L4.6 20l7.4-5.92zm-8.001 8 6.15 4.92h-6.15v-4.92z" style="fill:#fff"/><path d="M20 19h9v11h-9z"/></mask></defs><g style="mask:url(#krq3faywub)"><path style="fill:url(#s6bn86ym8c)" d="M0 0h32v32H0z"/></g><path d="m27 31-2.139-1.013A5.022 5.022 0 0 1 22 25.467v-6.468h10v6.468a5.023 5.023 0 0 1-2.861 4.52L27 31zm-3-10v4.468c0 1.153.674 2.218 1.717 2.711l1.283.607 1.283-.607A3.012 3.012 0 0 0 30 25.468V21h-6z" style="fill:#001d6c"/></svg>