<svg id="HyperProtectContainerRuntimeforRedHatVirtualizationSolutions" xmlns="http://www.w3.org/2000/svg" viewBox="0 0 32 32"><defs><linearGradient id="zv8b5eqnka" x1="-2442" y1="2833" x2="-2442" y2="2821" gradientTransform="translate(2454 -2800)" gradientUnits="userSpaceOnUse"><stop offset=".1" stop-opacity="0"/><stop offset=".9"/></linearGradient><linearGradient id="bz46aisllc" data-name="New Gradient Swatch 3" x1="0" y1="1.354" x2="32" y2="33.354" gradientTransform="matrix(1 0 0 -1 0 33.354)" gradientUnits="userSpaceOnUse"><stop offset=".1" stop-color="#ad6bff"/><stop offset=".9" stop-color="#ed0017"/></linearGradient><mask id="8kl3i10xyb" x="0" y="0" width="32" height="32" maskUnits="userSpaceOnUse"><path d="M4 26V6c0-1.103.897-2 2-2h20c1.103 0 2 .897 2 2v10h-2V6H6v20h11v2H6c-1.103 0-2-.897-2-2z" style="fill:#fff"/><path transform="rotate(90 12 27)" style="fill:url(#zv8b5eqnka)" d="M9 21h6v12H9z"/></mask></defs><g style="mask:url(#8kl3i10xyb)"><path d="M0 0h32v32H0V0z" style="fill:url(#bz46aisllc)"/></g><path d="M17 10h-2a5 5 0 0 0-5 5v7h7v-5h5v-7h-5zm-2 2v3h-3a3 3 0 0 1 3-3zm0 8h-3v-3h3v3zm5-5h-3v-3h3v3z" style="fill:#001e71"/><path d="M19 19v6.467a5.02 5.02 0 0 0 2.861 4.52L24 31l2.139-1.013C27.882 29.156 28.995 26.931 29 25v-6H19zm8 6.468a3.011 3.011 0 0 1-1.717 2.711L24 28.786l-1.283-.607A3.012 3.012 0 0 1 21 25.468V21h6v4.468z" style="fill:#001e71"/></svg>