<svg xmlns="http://www.w3.org/2000/svg" xmlns:xlink="http://www.w3.org/1999/xlink" viewBox="0 0 128 128">
  <defs>
    <mask id="bcb4f7c2-679d-407b-a404-5ed6fdb5518b" x="-1.491" y="0" width="130.982" height="128" maskUnits="userSpaceOnUse">
      <g>
        <path d="M1.309,84V77.224h5.04V51.688H1.309V44.912H19.9v6.776H14.86V77.224H19.9V84Z" fill="#fff"/>
        <path d="M27.012,44.912H46q4.872,0,7.588,2.744a9.9,9.9,0,0,1,2.716,7.28,10.88,10.88,0,0,1-.588,3.808,7.339,7.339,0,0,1-1.567,2.576,6.037,6.037,0,0,1-2.3,1.484,9.253,9.253,0,0,1-2.828.532v.336a9.452,9.452,0,0,1,2.939.5,8.379,8.379,0,0,1,2.828,1.6A8.825,8.825,0,0,1,56.944,68.6a9.46,9.46,0,0,1,.868,4.256,12.4,12.4,0,0,1-.755,4.34,11.058,11.058,0,0,1-2.1,3.556,9.784,9.784,0,0,1-3.191,2.38A9.367,9.367,0,0,1,47.732,84H27.012Zm8.512,16.016H43.98a3.3,3.3,0,0,0,3.584-3.584v-1.68A3.3,3.3,0,0,0,43.98,52.08H35.524Zm0,15.9h9.8a3.72,3.72,0,0,0,2.66-.924,3.407,3.407,0,0,0,.98-2.6V71.4a3.407,3.407,0,0,0-.98-2.6,3.72,3.72,0,0,0-2.66-.924h-9.8Z" fill="#fff"/>
        <path d="M93.6,58.352h-.168l-2.857,5.712L82.956,77.9,75.508,64.12,72.54,57.96h-.168V84H64.363V44.912H73.38l9.576,18.312h.111l9.465-18.312H101.6V84H93.6Z" fill="#fff"/>
        <path d="M121.482,51.464a5.021,5.021,0,0,1-3.668-1.148,3.98,3.98,0,0,1-1.147-2.94V46.144a3.982,3.982,0,0,1,1.147-2.94,6.434,6.434,0,0,1,7.336,0,3.983,3.983,0,0,1,1.149,2.94v1.232a3.982,3.982,0,0,1-1.149,2.94A5.018,5.018,0,0,1,121.482,51.464ZM117.339,54.6h8.288V84h-8.288Z" fill="#fff"/>
      </g>
    </mask>
    <linearGradient id="b2b84b9f-043d-47e6-b214-d29851ac3fca" y1="128" x2="128" gradientUnits="userSpaceOnUse">
      <stop offset="0.1" stop-color="#08bdba"/>
      <stop offset="0.9" stop-color="#0f62fe"/>
    </linearGradient>
  </defs>
  <g id="e167bcf9-9c54-4dfc-8994-433292009d23" data-name="Layer 2">
    <g id="e1704408-e13a-4945-a90c-62789222efdf" data-name="Build icon here">
      <g mask="url(#bcb4f7c2-679d-407b-a404-5ed6fdb5518b)">
        <rect width="128" height="128" fill="url(#b2b84b9f-043d-47e6-b214-d29851ac3fca)"/>
      </g>
    </g>
  </g>
</svg>
