<svg xmlns="http://www.w3.org/2000/svg" viewBox="0 0 128 128"><defs><linearGradient id="58dal1rvrb" y1="128" x2="128" gradientUnits="userSpaceOnUse"><stop offset=".1" stop-color="#08bdba"/><stop offset=".9" stop-color="#0f62fe"/></linearGradient><mask id="9cxmkprb8a" x="-1.491" y="0" width="130.982" height="128" maskUnits="userSpaceOnUse"><path d="M1.309 84v-6.776h5.04V51.688h-5.04v-6.776H19.9v6.776h-5.04v25.536h5.04V84zm25.703-39.088H46q4.872 0 7.588 2.744a9.9 9.9 0 0 1 2.716 7.28 10.88 10.88 0 0 1-.588 3.808 7.339 7.339 0 0 1-1.567 2.576 6.037 6.037 0 0 1-2.3 1.484 9.253 9.253 0 0 1-2.828.532v.336a9.452 9.452 0 0 1 2.939.5 8.379 8.379 0 0 1 2.828 1.6 8.825 8.825 0 0 1 2.156 2.828 9.46 9.46 0 0 1 .868 4.256 12.4 12.4 0 0 1-.755 4.34 11.058 11.058 0 0 1-2.1 3.556 9.784 9.784 0 0 1-3.191 2.38 9.367 9.367 0 0 1-4.034.868h-20.72zm8.512 16.016h8.456a3.3 3.3 0 0 0 3.584-3.584v-1.68a3.3 3.3 0 0 0-3.584-3.584h-8.456zm0 15.9h9.8a3.72 3.72 0 0 0 2.66-.924 3.407 3.407 0 0 0 .98-2.6V71.4a3.407 3.407 0 0 0-.98-2.6 3.72 3.72 0 0 0-2.66-.924h-9.8zM93.6 58.352h-.168l-2.857 5.712L82.956 77.9l-7.448-13.78-2.968-6.16h-.168V84h-8.009V44.912h9.017l9.576 18.312h.111l9.465-18.312h9.068V84h-8zm27.882-6.888a5.021 5.021 0 0 1-3.668-1.148 3.98 3.98 0 0 1-1.147-2.94v-1.232a3.982 3.982 0 0 1 1.147-2.94 6.434 6.434 0 0 1 7.336 0 3.983 3.983 0 0 1 1.149 2.94v1.232a3.982 3.982 0 0 1-1.149 2.94 5.018 5.018 0 0 1-3.668 1.148zm-4.143 3.136h8.288V84h-8.288z" fill="#fff"/></mask></defs><g data-name="Layer 2"><g mask="url(#9cxmkprb8a)" data-name="Build icon here"><path fill="url(#58dal1rvrb)" d="M0 0h128v128H0z"/></g></g></svg>