<svg id="InfoSec_SE" data-name="InfoSec SE" xmlns="http://www.w3.org/2000/svg" viewBox="0 0 32 32"><defs><linearGradient id="fkwtqn78ia" x1="-1819.783" y1="-2937.719" x2="-1809.2" y2="-2918.178" gradientTransform="rotate(45 -4463.658 748.618)" gradientUnits="userSpaceOnUse"><stop offset=".269"/><stop offset=".732" stop-opacity="0"/></linearGradient><linearGradient id="2ks8dc954c" x1="0" y1="32" x2="32" y2="0" gradientUnits="userSpaceOnUse"><stop offset=".1" stop-color="#a56eff"/><stop offset=".9" stop-color="#0f62fe"/></linearGradient><mask id="rqlfyjr9mb" x="0" y="0" width="32" height="32" maskUnits="userSpaceOnUse"><path d="m30.499 29.085-7.906-7.906A11.922 11.922 0 0 0 25 14c0-6.617-5.383-12-12-12a11.89 11.89 0 0 0-8.701 3.737l1.449 1.377A9.911 9.911 0 0 1 13 4c5.514 0 10 4.486 10 10s-4.486 10-10 10S3 19.514 3 14H1c0 6.617 5.383 12 12 12 3.203 0 6.11-1.269 8.265-3.321l7.82 7.82 1.414-1.414z" style="fill:#fff;stroke-width:0"/><path transform="rotate(-90 9.5 21.5)" style="fill:url(#fkwtqn78ia);stroke-width:0" d="M2 13h15v17H2z"/></mask></defs><g style="mask:url(#rqlfyjr9mb)"><path id="Color" style="fill:url(#2ks8dc954c);stroke-width:0" d="M0 0h32v32H0z"/></g><path d="m6 22-2.139-1.013A5.021 5.021 0 0 1 1 16.467V10h10v6.468a5.023 5.023 0 0 1-2.861 4.52L6 22.001zM3 12v4.468c0 1.153.674 2.218 1.717 2.711L6 19.786l1.283-.607A3.011 3.011 0 0 0 9 16.468V12H3z" style="fill:#001d6c;stroke-width:0"/></svg>