<svg id="ExtendedDataPrivacy" xmlns="http://www.w3.org/2000/svg" xmlns:xlink="http://www.w3.org/1999/xlink" viewBox="0 0 32 32"><defs><linearGradient id="1mhzy81vya" x1="354" y1="24.5" x2="362" y2="24.5" gradientTransform="matrix(1 0 0 -1 -342 49)" gradientUnits="userSpaceOnUse"><stop offset="0" stop-opacity="0"/><stop offset=".8"/></linearGradient><linearGradient id="b3qnz5actb" x1="-3682" y1="-7111" x2="-3674" y2="-7111" gradientTransform="matrix(1 0 0 -1 3693 -7105)" xlink:href="#1mhzy81vya"/><linearGradient id="8o3km1c3bd" x1="2890.504" y1="31.538" x2="2859.288" y2=".322" gradientTransform="matrix(1 0 0 -1 -2858.966 32)" gradientUnits="userSpaceOnUse"><stop offset=".1" stop-color="#a56eff"/><stop offset=".9" stop-color="#0f62fe"/></linearGradient><mask id="h27yo6cydc" x="0" y="0" width="32" height="32" maskUnits="userSpaceOnUse"><path d="M4 15h2v-3c0-2.757 2.243-5 5-5h7V5h-7c-3.86 0-7 3.14-7 7v3zM14 26h7c3.86 0 7-3.14 7-7v-2h-2v2c0 2.757-2.243 5-5 5h-7v2z" style="fill:#fff;stroke-width:0"/><path transform="rotate(-180 16 24.5)" style="fill:url(#1mhzy81vya);stroke-width:0" d="M12 22h8v5h-8z"/><path style="fill:url(#b3qnz5actb);stroke-width:0" d="M11 4h8v4h-8z"/></mask></defs><g style="mask:url(#h27yo6cydc)"><path transform="rotate(-180 16 16)" style="fill:url(#8o3km1c3bd);stroke-width:0" d="M0 0h32v32H0z"/></g><path d="m25.985 1.994-4.737-.003c-.698 0-1.265.558-1.265 1.244v10.52c0 .685.568 1.243 1.265 1.243h7.468c.698 0 1.265-.558 1.265-1.242l.004-7.766-4-3.996zm-3.999 11-.003-8.998 2.995-.004.008 3.004h3l-.006 6.002-5.994-.004z" style="fill:#001d6c;stroke-width:0"/><path d="M10.024 16.994h-6a2 2 0 0 0-2 2v10a2 2 0 0 0 2 2h6a2 2 0 0 0 2-2v-10a2 2 0 0 0-2-2zm0 2v2h-6v-2h6zm0 4v2h-6v-2h6zm-6 6v-2h6v2h-6z" style="fill:#001e71;stroke-width:0"/></svg>