<svg xmlns="http://www.w3.org/2000/svg" xmlns:xlink="http://www.w3.org/1999/xlink" viewBox="0 0 32 32"><defs><style>.cls-1{fill:#fff;}.cls-2{fill:url(#linear-gradient);}.cls-3{mask:url(#mask);}.cls-4{fill:url(#linear-gradient-2);}.cls-5{fill:#001d6c;}</style><linearGradient id="linear-gradient" x1="2255.5" y1="-2209.501" x2="2261.5" y2="-2209.501" gradientTransform="matrix(1, 0, 0, -1, -2237.501, -2198.501)" gradientUnits="userSpaceOnUse"><stop offset="0.001" stop-opacity="0"/><stop offset="0.83"/></linearGradient><mask id="mask" x="0" y="0" width="32" height="32" maskUnits="userSpaceOnUse"><path class="cls-1" d="M22,14V8A6,6,0,0,0,10,8v6h2V8a4,4,0,0,1,8,0v6Z"/><g id="Gradients_black_" data-name="Gradients (black)"><rect class="cls-2" x="17.999" y="9" width="6" height="4" transform="translate(31.999 -9.999) rotate(90)"/></g><path class="cls-1" d="M8,14a2,2,0,0,0-2,2V28a2,2,0,0,0,2,2H24a2,2,0,0,0,2-2V16a2,2,0,0,0-2-2ZM24,28H8V16H24Z"/></mask><linearGradient id="linear-gradient-2" y1="32" x2="32" gradientUnits="userSpaceOnUse"><stop offset="0.1" stop-color="#a56eff"/><stop offset="0.9" stop-color="#0f62fe"/></linearGradient></defs><g id="Layer_2" data-name="Layer 2"><g id="Light_theme_icons" data-name="Light theme icons"><g class="cls-3"><rect class="cls-4" width="32" height="32"/></g><polygon class="cls-5" points="15.075 23.175 12.894 20.995 11.484 22.404 15.075 25.995 21.075 19.996 19.665 18.586 15.075 23.175"/></g></g></svg>