<svg xmlns="http://www.w3.org/2000/svg" xmlns:xlink="http://www.w3.org/1999/xlink" viewBox="0 0 32 32"><defs><linearGradient id="6wjrbxtm2a" x1="16.024" y1="32" x2="16.024" y2="27" gradientUnits="userSpaceOnUse"><stop offset=".2"/><stop offset="1" stop-opacity="0"/></linearGradient><linearGradient id="dg5ft1g53b" x1="969.976" y1="3230" x2="969.976" y2="3225" gradientTransform="translate(-958 -3225)" xlink:href="#6wjrbxtm2a"/><linearGradient id="y7q7di3mhc" x1="2098.964" y1="1169.024" x2="2098.964" y2="1164.024" gradientTransform="translate(-2069.464 -1146.512)" xlink:href="#6wjrbxtm2a"/><linearGradient id="dlh28juqqd" x1="-1121.048" y1="2092.976" x2="-1121.048" y2="2087.976" gradientTransform="translate(1123.548 -2074.5)" xlink:href="#6wjrbxtm2a"/><linearGradient id="9okdnfveef" y1="32" x2="32" gradientUnits="userSpaceOnUse"><stop offset=".1" stop-color="#a56eff"/><stop offset=".9" stop-color="#0f62fe"/></linearGradient><mask id="kgsmsodqte" x="0" y="0" width="32" height="32" maskUnits="userSpaceOnUse"><path d="M31 19h-5v-3h-2v8H8V8h8V6h-3V1h-2v5H8a2 2 0 0 0-2 2v3H1v2h5v6H1v2h5v3a2 2 0 0 0 2 2h3v5h2v-5h6v5h2v-5h3a2 2 0 0 0 2-2v-3h5z" fill="#fff"/><path fill="url(#6wjrbxtm2a)" d="M10 27h12.048v5H10z"/><path transform="rotate(180 11.976 2.5)" fill="url(#dg5ft1g53b)" d="M9.952 0H14v5H9.952z"/><path transform="rotate(-90 29.5 20.012)" fill="url(#y7q7di3mhc)" d="M27.488 17.512h4.024v5h-4.024z"/><path transform="rotate(90 2.5 15.976)" fill="url(#dlh28juqqd)" d="M-3.524 13.476H8.524v5H-3.524z"/></mask></defs><g data-name="Layer 2"><g data-name="Light theme icons"><g mask="url(#kgsmsodqte)"><path fill="url(#9okdnfveef)" d="M0 0h32v32H0z"/></g><path d="M21 20.99H11v-10h10zm-8-2h6v-6h-6zm18-6h-2a10.012 10.012 0 0 0-10-10v-2a12.013 12.013 0 0 1 12 12z" fill="#001d6c"/><path d="M26 12.99h-2a5.006 5.006 0 0 0-5-5v-2a7.009 7.009 0 0 1 7 7z" fill="#001d6c"/></g></g></svg>