<svg xmlns="http://www.w3.org/2000/svg" viewBox="0 0 32 32"><defs><linearGradient id="fev0surd0a" x1="21" y1="13" x2="27" y2="13" gradientUnits="userSpaceOnUse"><stop offset=".15"/><stop offset="1" stop-opacity="0"/></linearGradient><linearGradient id="n1g0ew6q2c" y1="32" x2="32" gradientUnits="userSpaceOnUse"><stop offset=".1" stop-color="#a56eff"/><stop offset=".9" stop-color="#0f62fe"/></linearGradient><mask id="87k3fv8swb" x="0" y="0" width="32" height="32" maskUnits="userSpaceOnUse"><path d="M30 30h-8l-1-2h7V14h-6v-2h6a2 2 0 0 1 2 2z" fill="#fff"/><path fill="url(#fev0surd0a)" d="M21 11h6v4h-6z"/><path d="M22 30H2V4a2 2 0 0 1 2-2h16a2 2 0 0 1 2 2zM4 28h16V4H4z" fill="#fff"/></mask></defs><g data-name="Layer 2"><g data-name="Build icon here"><g mask="url(#87k3fv8swb)"><path fill="url(#n1g0ew6q2c)" d="M0 0h32v32H0z"/></g><path data-name="rect2" fill="#001d6c" d="M8 8h2v4H8z"/><path data-name="rect4" fill="#001d6c" d="M8 14h2v4H8z"/><path data-name="rect6" fill="#001d6c" d="M14 8h2v4h-2z"/><path data-name="rect8" fill="#001d6c" d="M14 14h2v4h-2z"/><path data-name="rect10" fill="#001d6c" d="M8 20h2v4H8z"/><path data-name="rect12" fill="#001d6c" d="M14 20h2v4h-2z"/></g></g></svg>