<svg id="IPSecVPN" xmlns="http://www.w3.org/2000/svg" viewBox="0 0 32 32"><defs><linearGradient id="opvtwlv2fa" x1="-384.04" y1="-3034.606" x2="-374.04" y2="-3034.606" gradientTransform="matrix(.762 0 0 -.792 302.101 -2380.093)" gradientUnits="userSpaceOnUse"><stop offset=".109" stop-opacity="0"/><stop offset=".569"/></linearGradient><linearGradient id="cipmkb1xic" x1="0" y1="32" x2="32" y2="0" gradientUnits="userSpaceOnUse"><stop offset=".1" stop-color="#08bdba"/><stop offset=".9" stop-color="#0f62fe"/></linearGradient><mask id="aqflswjr8b" x="1.997" y=".991" width="28.005" height="28.007" maskUnits="userSpaceOnUse"><path d="m20.579 17.015-4.58 8.81-11.35-21.82v-.01h9.35v-2h-11c-.35 0-.67.19-.85.49a.98.98 0 0 0-.04.98l13 25c.38.71 1.4.71 1.78 0l5.47-10.53-1.78-.92z" style="fill:#fff"/><path d="M3 6.991h10.622v15H3z"/><path transform="rotate(-117.4 13.377 24.11)" style="fill:url(#opvtwlv2fa)" d="M9.568 22.525h7.617v3.169H9.568z" id="Gradients_black_" data-name="Gradients (black)"/><path d="M29.859 2.485c-.19-.3-.51-.49-.86-.49h-9.265A1.99 1.99 0 0 0 18.009.991a2 2 0 1 0 0 4 1.99 1.99 0 0 0 1.72-.996h7.62v.01l-4.166 8.007c-.058-.005-.114-.017-.174-.017a2 2 0 1 0 1.824 1.187l5.056-9.717c.16-.31.15-.69-.03-.98z" style="fill:#fff"/></mask></defs><g style="mask:url(#aqflswjr8b)"><path style="fill:url(#cipmkb1xic)" d="M0 0h32v32H0z"/></g><path style="fill:none" d="M0 0h32v32H0z"/><path d="M11 15.269v-2.278c0-2.206-1.794-4-4-4s-4 1.794-4 4v2.278c-.595.347-1 .985-1 1.722v5c0 1.103.897 2 2 2h6c1.103 0 2-.897 2-2v-5c0-.737-.405-1.375-1-1.722zm-4-4.278c1.103 0 2 .897 2 2v2H5v-2c0-1.103.897-2 2-2zm3 11H4v-5h6v5z" style="fill:#001d6c"/></svg>