<svg xmlns="http://www.w3.org/2000/svg" xmlns:xlink="http://www.w3.org/1999/xlink" viewBox="0 0 32 32"><defs><linearGradient id="bn4pyo1rza" x1="-672.255" y1="620.797" x2="-678.56" y2="607.276" gradientTransform="translate(683.51 -602.715)" gradientUnits="userSpaceOnUse"><stop offset=".285"/><stop offset=".7" stop-opacity="0"/></linearGradient><linearGradient id="t1yt4ok2vb" x1="28.642" y1="16.133" x2="22.338" y2="2.612" gradientTransform="translate(-1.49 2.127)" xlink:href="#bn4pyo1rza"/><linearGradient id="6tqq567orc" x1="-846.611" y1="-287.993" x2="-852.916" y2="-301.514" gradientTransform="rotate(120 -508.869 114.506)" xlink:href="#bn4pyo1rza"/><linearGradient id="gcqs8sdiqe" y1="32" x2="32" gradientUnits="userSpaceOnUse"><stop offset=".1" stop-color="#08bdba"/><stop offset=".9" stop-color="#0f62fe"/></linearGradient><mask id="1e3509tyed" x="0" y="0" width="32" height="32" maskUnits="userSpaceOnUse"><path d="M16 27a11 11 0 0 1-5.5-1.471l-1 1.731a13.006 13.006 0 0 0 18.76-6.927l-1.885-.667A11.02 11.02 0 0 1 16 27zm0-22a11.013 11.013 0 0 1 11 11h2A13.009 13.009 0 0 0 13.834 3.18l.332 1.972A11.08 11.08 0 0 1 16 5zm-5.5 1.471-1-1.731a13 13 0 0 0-3.646 19.389l1.561-1.251A10.879 10.879 0 0 1 5 16a11.044 11.044 0 0 1 5.5-9.529z" fill="#fff"/><path transform="rotate(-120 8.103 11.322)" fill="url(#bn4pyo1rza)" d="M.103 6.822h16v9h-16z"/><path fill="url(#t1yt4ok2vb)" d="M16 7h16v9H16z"/><path fill="url(#6tqq567orc)" d="m18 32 5.794-11.5L16 16 8 29.856 18 32z"/></mask></defs><g data-name="Layer 2"><g data-name="Light theme icons"><g mask="url(#1e3509tyed)"><path fill="url(#gcqs8sdiqe)" d="M0 0h32v32H0z"/></g><circle cx="10" cy="6" r="2" fill="#001d6c"/><circle cx="28" cy="16" r="2" fill="#001d6c"/><circle cx="10" cy="26" r="2" fill="#001d6c"/><path fill="#001d6c" d="M10 10h10v2H10zm2 5h10v2H12zm-2 5h10v2H10z"/></g></g></svg>