<svg id="JazzReportingService" xmlns="http://www.w3.org/2000/svg" xmlns:xlink="http://www.w3.org/1999/xlink" viewBox="0 0 32 32"><defs><linearGradient id="75rxqrq40a" x1="2554.962" y1="-131.145" x2="2563.898" y2="-131.145" gradientTransform="translate(-2544.285 151.779)" gradientUnits="userSpaceOnUse"><stop offset="0" stop-opacity="0"/><stop offset=".9"/></linearGradient><linearGradient id="6hjyo96azb" x1="2549.762" y1="-124.388" x2="2559.065" y2="-124.388" gradientTransform="translate(-2546.025 140.007)" xlink:href="#75rxqrq40a"/><linearGradient id="1gpvfwvb1d" y1="32" x2="32" gradientUnits="userSpaceOnUse"><stop offset=".1" stop-color="#a56eff"/><stop offset=".9" stop-color="#0f62fe"/></linearGradient><mask id="spvmt9sb6c" x="0" y="0" width="32" height="32" maskUnits="userSpaceOnUse"><path style="fill:#fff" d="M11.98 21.006h-2v-15h-3v15h-2v-17h7v17zM20.98 26.006h-2v-14h-3V25.02h-2V10.006h7v16zM29.98 26.006h-2v-8h-3v8h-2v-10h7v10z"/><path transform="rotate(90 15.144 20.635)" style="fill:url(#75rxqrq40a)" d="M10.677 18.135h8.936v5h-8.936z"/><path transform="rotate(90 8.389 15.619)" style="fill:url(#6hjyo96azb)" d="M3.737 11.164h9.303v8.908H3.737z"/><path d="M3.442 19.674h9.165v2.223H3.442z"/></mask></defs><g style="mask:url(#spvmt9sb6c)"><path style="fill:url(#1gpvfwvb1d)" d="M0 0h32v32H0z"/></g><path style="fill:#001d6c" d="M3.951 20.006v2h4.586l-6.586 6.586 1.414 1.414 6.586-6.586v4.586h2v-8h-8z"/></svg>