<svg id="KnowledgeCatalogPremium" xmlns="http://www.w3.org/2000/svg" viewBox="0 0 32 32"><defs><linearGradient id="e3th6o15xa" x1="3286.359" y1="-2505.475" x2="3295.359" y2="-2505.475" gradientTransform="translate(-3265.622 2521.975)" gradientUnits="userSpaceOnUse"><stop offset="0" stop-opacity="0"/><stop offset=".83"/></linearGradient><linearGradient id="aabxdfriec" x1="0" y1="32" x2="32" y2="0" gradientUnits="userSpaceOnUse"><stop offset=".1" stop-color="#a56eff"/><stop offset=".9" stop-color="#0f62fe"/></linearGradient><mask id="2k41io8qeb" x="0" y="0" width="32" height="32" maskUnits="userSpaceOnUse"><path style="fill:#fff;stroke-width:0" d="M12 8h8v2h-8z"/><path d="M17 28H6v-4h2v-2H6v-5h2v-2H6v-5h2V8H6V4h18v16h2V4a2 2 0 0 0-2-2H6a2 2 0 0 0-2 2v4H2v2h2v5H2v2h2v5H2v2h2v4a2 2 0 0 0 2 2h11v-2z" style="fill:#fff;stroke-width:0"/><path style="fill:#fff;stroke-width:0" d="M12 15h8v2h-8z"/><path transform="rotate(90 25.237 16.5)" style="fill:url(#e3th6o15xa);stroke-width:0" d="M20.737 14.737h9v3.525h-9z" id="Gradients_black_" data-name="Gradients (black)"/></mask></defs><g style="mask:url(#2k41io8qeb)"><path style="fill:url(#aabxdfriec);stroke-width:0" d="M0 0h32v32H0z"/></g><path style="fill:#001d6c;stroke-width:0" d="m25 21 1.699 3.292 3.634.528-2.666 2.562.657 3.618-3.249-1.708L21.667 31l.666-3.618-2.666-2.562 3.733-.528L25 21z"/></svg>