<svg id="KnowledgeCatalogStandard" xmlns="http://www.w3.org/2000/svg" viewBox="0 0 32 32"><defs><linearGradient id="yveqfrccla" x1="3287.359" y1="-2505.475" x2="3296.359" y2="-2505.475" gradientTransform="translate(-3266.622 2522.975)" gradientUnits="userSpaceOnUse"><stop offset="0" stop-opacity="0"/><stop offset=".83"/></linearGradient><linearGradient id="iiim3yp8ic" x1="0" y1="32" x2="32" y2="0" gradientUnits="userSpaceOnUse"><stop offset=".1" stop-color="#a56eff"/><stop offset=".9" stop-color="#0f62fe"/></linearGradient><mask id="9folttdlgb" x="0" y="0" width="32" height="32" maskUnits="userSpaceOnUse"><path style="fill:#fff;stroke-width:0" d="M12 8h8v2h-8z"/><path d="M16 28H6v-4h2v-2H6v-5h2v-2H6v-5h2V8H6V4h18v17h2V4a2 2 0 0 0-2-2H6a2 2 0 0 0-2 2v4H2v2h2v5H2v2h2v5H2v2h2v4a2 2 0 0 0 2 2h10v-2z" style="fill:#fff;stroke-width:0"/><path style="fill:#fff;stroke-width:0" d="M12 15h8v2h-8z"/><path transform="rotate(90 25.237 17.5)" style="fill:url(#yveqfrccla);stroke-width:0" d="M20.737 15.737h9v3.525h-9z" id="Gradients_black_" data-name="Gradients (black)"/></mask></defs><g style="mask:url(#9folttdlgb)"><path style="fill:url(#iiim3yp8ic);stroke-width:0" d="M0 0h32v32H0z"/></g><path style="fill:#001d6c;stroke-width:0" d="m23 27.18-2.59-2.59L19 26l4 4 7-7-1.41-1.41L23 27.18z"/></svg>