<svg id="Lakehouse" xmlns="http://www.w3.org/2000/svg" xmlns:xlink="http://www.w3.org/1999/xlink" viewBox="0 0 32 32"><defs><linearGradient id="yrn8gc3qma" x1="4.113" y1="22.33" x2="4.113" y2="13" gradientUnits="userSpaceOnUse"><stop offset=".2"/><stop offset="1" stop-opacity="0"/></linearGradient><linearGradient id="gio4r53dbb" x1="-2985.211" y1="-1779.106" x2="-2985.211" y2="-1786.504" gradientTransform="matrix(.695 0 0 .914 2084.435 1654.315)" xlink:href="#yrn8gc3qma"/><linearGradient id="cvsovk3j6d" x1="0" y1="32" x2="32" y2="0" gradientUnits="userSpaceOnUse"><stop offset=".1" stop-color="#08bdba"/><stop offset=".9" stop-color="#0f62fe"/></linearGradient><mask id="iyspguhpkc" x="0" y="0" width="32" height="32" maskUnits="userSpaceOnUse"><path d="M28.998 9.994v11h-2v-10.42l-11-6.42-11 6.42v11.45h-2V9.994a1 1 0 0 1 .5-.86l12-7c.15-.09.33-.14.5-.14s.35.05.5.14l12 7a1 1 0 0 1 .5.86z" style="fill:#fff"/><path style="fill:url(#yrn8gc3qma)" d="M2.238 13h3.749v9.33H2.238z"/><path d="M3.014 25.004v-2a6.997 6.997 0 0 0 6.089-3.561l1.742.981a9 9 0 0 1-7.831 4.579zM4.055 29.994h-1.06v-2h1.06c2.986 0 5.779-1.175 7.865-3.309l1.43 1.397a12.898 12.898 0 0 1-9.295 3.912z" style="fill:#fff"/><path transform="rotate(-112.266 9.016 24.313)" style="fill:url(#gio4r53dbb)" d="M3.559 20.931h10.913v6.764H3.559z"/><path style="fill:#fff" d="M8.006 12h2v2h-2zM20.006 16h2v2h-2zM15.001 9h2v2h-2zM13.016 14h2v2h-2zM22.016 12h2v2h-2z"/></mask></defs><g style="mask:url(#iyspguhpkc)"><path style="fill:url(#cvsovk3j6d)" d="M0 0h32v32H0z"/></g><path d="M25.036 25.004h-1.252c-4.138 0-8.748-2.876-8.748-7.004h2c0 2.818 3.628 5.004 6.748 5.004h1.252v2z" style="fill:#001d6c"/><path d="M25.036 29.994h-2.052c-7.024 0-12.959-5.495-12.959-11.998h2c0 5.419 5.019 9.998 10.959 9.998h2.052v2zM27.007 22.999h2v2h-2zM27.007 27.999h2v2h-2z" style="fill:#001d6c"/></svg>