<svg id="LaunchpadS4" xmlns="http://www.w3.org/2000/svg" xmlns:xlink="http://www.w3.org/1999/xlink" viewBox="0 0 32 32"><defs><linearGradient id="tg96adbpea" x1="-107.712" y1="-62.584" x2="-102.712" y2="-62.584" gradientTransform="translate(111.712 71.584)" gradientUnits="userSpaceOnUse"><stop offset=".05" stop-opacity="0"/><stop offset=".8"/></linearGradient><linearGradient id="0bhte38yhb" x1="-84.121" y1="-66.655" x2="-78.121" y2="-66.655" gradientTransform="translate(110.121 85.655)" xlink:href="#tg96adbpea"/><linearGradient id="xmpwyg01wd" x1="0" y1="32" x2="32" y2="0" gradientUnits="userSpaceOnUse"><stop offset=".1" stop-color="#08bdba"/><stop offset=".9" stop-color="#0f62fe"/></linearGradient><mask id="zol3yat52c" x="0" y="0" width="32" height="32" maskUnits="userSpaceOnUse"><path d="M22 26v2H4V10h4V8H4a2 2 0 0 0-2 2v18a2 2 0 0 0 2 2h18a2 2 0 0 0 2-2v-2h-2z" style="fill:#fff"/><path style="fill:url(#tg96adbpea)" d="M4 7h5v4H4z"/><path d="M30 5.993V4a2 2 0 0 0-2-2H10a2 2 0 0 0-2 2v18a2 2 0 0 0 2 2h18a2 2 0 0 0 2-2v-5h-2v5H10V4h18v1.993h2z" style="fill:#fff"/><path transform="rotate(-90 29 19)" style="fill:url(#0bhte38yhb)" d="M26 17h6v4h-6z"/></mask></defs><path style="fill:#001d6c" d="M21.012 6.015h-.004.004z"/><g style="mask:url(#zol3yat52c)"><path style="fill:url(#xmpwyg01wd)" d="M0 0h32v32H0z"/></g><path d="M27.5 17h-9c-1.93 0-3.5-1.57-3.5-3.5a3.505 3.505 0 0 1 3.096-3.477C18.552 7.732 20.577 6 23 6s4.448 1.732 4.904 4.023A3.505 3.505 0 0 1 31 13.5c0 1.93-1.57 3.5-3.5 3.5zm-9-5c-.827 0-1.5.673-1.5 1.5s.673 1.5 1.5 1.5h9c.827 0 1.5-.673 1.5-1.5s-.673-1.5-1.5-1.5H26v-1c0-1.654-1.346-3-3-3s-3 1.346-3 3v1h-1.5z" style="fill:#001d6c"/></svg>