<svg xmlns="http://www.w3.org/2000/svg" xmlns:xlink="http://www.w3.org/1999/xlink" viewBox="0 0 32 32"><defs><style>.cls-1{fill:#fff;}.cls-2{fill:url(#linear-gradient);}.cls-3{fill:url(#linear-gradient-2);}.cls-4{mask:url(#mask);}.cls-5{fill:url(#linear-gradient-3);}.cls-6{fill:#001d6c;}</style><linearGradient id="linear-gradient" x1="978.958" y1="-8583.195" x2="987.958" y2="-8583.195" gradientTransform="translate(-964.958 8598.195)" gradientUnits="userSpaceOnUse"><stop offset="0" stop-opacity="0"/><stop offset="0.6"/></linearGradient><linearGradient id="linear-gradient-2" x1="16" y1="22" x2="16" y2="12" gradientUnits="userSpaceOnUse"><stop offset="0.2" stop-color="#fff"/><stop offset="0.7" stop-color="#fff" stop-opacity="0"/></linearGradient><mask id="mask" x="0" y="0" width="32" height="32" maskUnits="userSpaceOnUse"><path class="cls-1" d="M28,18v4H26V18l-5.007,0A5.994,5.994,0,0,1,15,12v0l2,0v0A3.993,3.993,0,0,0,20.993,16H26A2,2,0,0,1,28,18Z"/><rect class="cls-2" x="14" y="11" width="9" height="8" transform="translate(37 30) rotate(180)"/><path class="cls-1" d="M17,12A5.994,5.994,0,0,1,11.007,18H6l0,4H4V18a2,2,0,0,1,2-2h5.005A3.993,3.993,0,0,0,15,12v0l2,0Z"/><rect class="cls-3" x="15" y="12" width="2" height="10"/></mask><linearGradient id="linear-gradient-3" y1="32" x2="32" gradientUnits="userSpaceOnUse"><stop offset="0.1" stop-color="#ee5396"/><stop offset="0.9" stop-color="#8a3ffc"/></linearGradient></defs><g id="Layer_2" data-name="Layer 2"><g id="Build_icon_here" data-name="Build icon here"><g class="cls-4"><rect class="cls-5" width="32" height="32"/></g><path class="cls-6" d="M8,30H2V24H8ZM4,28H6V26H4Z"/><path class="cls-6" d="M19,30H13V24h6Zm-4-2h2V26H15Z"/><path class="cls-6" d="M30,30H24V24h6Zm-4-2h2V26H26Z"/><path class="cls-6" d="M16,10a4,4,0,1,1,4-4A4,4,0,0,1,16,10Zm0-6a2,2,0,1,0,2,2A2,2,0,0,0,16,4Z"/></g></g></svg>