<svg id="Build_icon_here" data-name="Build icon here" xmlns="http://www.w3.org/2000/svg" viewBox="0 0 32 32"><defs><linearGradient id="2loe7uoqya" x1="23.873" y1="24.306" x2="28.926" y2="5.444" gradientUnits="userSpaceOnUse"><stop offset=".47"/><stop offset=".85" stop-opacity="0"/></linearGradient><linearGradient id="cz7xw53ffc" y1="32" x2="32" gradientUnits="userSpaceOnUse"><stop offset=".1" stop-color="#08bdba"/><stop offset=".9" stop-color="#0f62fe"/></linearGradient><mask id="z376s1yvfb" x="0" y="0" width="32" height="32" maskUnits="userSpaceOnUse"><path d="M27.79 6.238a7.495 7.495 0 0 0-10.684 0l-1.1 1.126-1.112-1.126a7.5 7.5 0 0 0-10.685 0 7.733 7.733 0 0 0 0 10.824L16 28.994l1.425-1.426-11.78-11.923a5.708 5.708 0 0 1 0-7.99 5.479 5.479 0 0 1 7.814 0l2.553 2.587 2.529-2.587a5.479 5.479 0 0 1 7.814 0 5.708 5.708 0 0 1 0 7.99l-3.814 3.9 1.426 1.426 3.823-3.9a7.733 7.733 0 0 0 0-10.833z" style="fill:#fff"/><path style="fill:url(#2loe7uoqya)" d="M22 6h9v17H19l3-17z"/></mask></defs><g style="mask:url(#z376s1yvfb)"><path style="fill:url(#cz7xw53ffc)" d="M0 0h32v32H0z"/></g><path d="M23 14a5 5 0 0 0-3.891 8.14L23 27l3.891-4.86A5 5 0 0 0 23 14zm0 7a2 2 0 1 1 2-2 2 2 0 0 1-2 2z" style="fill:#001d6c"/></svg>