<svg id="LogForwardingService" xmlns="http://www.w3.org/2000/svg" viewBox="0 0 32 32"><defs><linearGradient id="w3lso4u3va" x1="1289.858" y1="-431.635" x2="1289.858" y2="-440.242" gradientTransform="rotate(45 115 -1744.5)" gradientUnits="userSpaceOnUse"><stop offset="0" stop-opacity="0"/><stop offset=".9"/></linearGradient><linearGradient id="lhqvakzxjc" x1="-5823" y1="-1979" x2="-5791" y2="-2011" gradientTransform="matrix(1 0 0 -1 5823 -1979)" gradientUnits="userSpaceOnUse"><stop offset=".1" stop-color="#08bdba"/><stop offset=".9" stop-color="#0f62fe"/></linearGradient><mask id="2sj0hbirob" x="0" y="0" width="32" height="32" maskUnits="userSpaceOnUse"><path d="M21 30c-.413 0-.784-.254-.934-.641l-4.84-12.585-12.585-4.84a1 1 0 0 1 .065-1.889l26-8.001a1.002 1.002 0 0 1 1.25 1.25l-8 26a1.002 1.002 0 0 1-.922.706H21zm-3.833-13.752 3.728 9.693 6.594-21.43-21.43 6.594 9.693 3.729 6.541-6.541 1.414 1.414-6.54 6.541z" style="fill:#fff;stroke-width:0"/><path style="fill:url(#w3lso4u3va);stroke-width:0" d="M18.828 16 16 13.172 22 7l3 3-6.172 6z"/></mask></defs><g style="mask:url(#2sj0hbirob)"><path id="Color" transform="rotate(-90 16 16)" style="fill:url(#lhqvakzxjc);stroke-width:0" d="M0 0h32v32H0z"/></g><path style="fill:#001d6c;stroke-width:0" d="M13 27h-2v-6H5v-2h8v8z"/><path style="fill:#001d6c;stroke-width:0" d="M8 29H6v-3H3v-2h5v5z"/></svg>