<svg id="MaaS360Uninstall" xmlns="http://www.w3.org/2000/svg" xmlns:xlink="http://www.w3.org/1999/xlink" viewBox="0 0 32 32"><defs><linearGradient id="kmb2l2ym9a" x1="15.981" y1="29.977" x2="27.573" y2="23.284" gradientTransform="rotate(30.253 21.777 26.63)" gradientUnits="userSpaceOnUse"><stop offset=".2" stop-opacity="0"/><stop offset=".9"/></linearGradient><linearGradient id="b5pcz0aaeb" x1="-545.726" y1="2557.683" x2="-534.133" y2="2550.99" gradientTransform="rotate(-149.747 -609.363 1205.498)" xlink:href="#kmb2l2ym9a"/><linearGradient id="9mn7wxisjd" x1="964.432" y1="1015" x2="996.432" y2="983" gradientTransform="matrix(1 0 0 -1 -964.432 1015)" gradientUnits="userSpaceOnUse"><stop offset=".2" stop-color="#9132fd"/><stop offset=".8" stop-color="#00aefd"/></linearGradient><mask id="3semqt2ruc" x="0" y="0" width="32" height="32" maskUnits="userSpaceOnUse"><path d="M5 12v10.426l11 6.417 11-6.417V20h2v3c0 .355-.189.685-.496.864l-12 7a.999.999 0 0 1-1.008 0l-12-7A1 1 0 0 1 3 23V12h2z" style="fill:#fff"/><path d="M26.801 20h2.397v5h-2.397z"/><path transform="rotate(-30.253 21.776 26.63)" style="fill:url(#kmb2l2ym9a)" d="M15.089 25.53h13.376v2.2H15.089z"/><g><path d="M27 20V9.574L16 3.158 5 9.575v2.426H3v-3c0-.355.189-.685.496-.864l12-7.001a.999.999 0 0 1 1.008 0l12 7A1 1 0 0 1 29 9v11h-2z" style="fill:#fff"/><path transform="rotate(180 4 9.5)" d="M2.801 7h2.397v5H2.801z"/><path transform="rotate(-30.253 10.223 5.37)" style="fill:url(#b5pcz0aaeb)" d="M3.535 4.27h13.376v2.2H3.535z"/></g></mask></defs><g style="mask:url(#3semqt2ruc)"><path transform="rotate(-90 16 16)" style="fill:url(#9mn7wxisjd)" d="M0 0h32v32H0z"/></g><path style="fill:#001d6c" d="m21.707 11.707-1.414-1.414L16 14.586l-4.293-4.293-1.414 1.414L14.586 16l-4.293 4.293 1.414 1.414L16 17.414l4.293 4.293 1.414-1.414L17.414 16l4.293-4.293z"/></svg>