<svg id="MaaS360Browser" xmlns="http://www.w3.org/2000/svg" xmlns:xlink="http://www.w3.org/1999/xlink" viewBox="0 0 32 32"><defs><linearGradient id="axslilnr2a" x1="15.981" y1="29.977" x2="27.573" y2="23.284" gradientTransform="rotate(30.253 21.777 26.63)" gradientUnits="userSpaceOnUse"><stop offset=".2" stop-opacity="0"/><stop offset=".9"/></linearGradient><linearGradient id="49hswx3vzb" x1="-545.726" y1="2557.683" x2="-534.133" y2="2550.99" gradientTransform="rotate(-149.747 -609.363 1205.498)" xlink:href="#axslilnr2a"/><linearGradient id="9ztr8r34id" x1="964.432" y1="1015" x2="996.432" y2="983" gradientTransform="matrix(1 0 0 -1 -964.432 1015)" gradientUnits="userSpaceOnUse"><stop offset=".2" stop-color="#9132fd"/><stop offset=".8" stop-color="#00aefd"/></linearGradient><mask id="0wrcr3znbc" x="0" y="0" width="32" height="32" maskUnits="userSpaceOnUse"><path d="M26.801 22.542 16 28.843 5 22.426V12H3v11c0 .355.189.685.496.864l12 7a.999.999 0 0 0 1.008 0l10.297-6.007v-2.315z" style="fill:#fff;stroke-width:0"/><path transform="rotate(-30.253 21.776 26.63)" style="fill:url(#axslilnr2a);stroke-width:0" d="M15.089 25.53h13.376v2.2H15.089z"/><path d="m28.504 8.136-12-7a.999.999 0 0 0-1.008 0L5.199 7.143v2.315L16 3.158l11 6.417v10.426h2v-11c0-.355-.189-.685-.496-.864z" style="fill:#fff;stroke-width:0"/><path transform="rotate(-30.253 10.223 5.37)" style="fill:url(#49hswx3vzb);stroke-width:0" d="M3.535 4.27h13.376v2.2H3.535z"/></mask></defs><g style="mask:url(#0wrcr3znbc)"><path transform="rotate(-90 16 16)" style="fill:url(#9ztr8r34id);stroke-width:0" d="M0 0h32v32H0z"/></g><path d="M16 9.25c-3.722 0-6.75 3.028-6.75 6.75s3.028 6.75 6.75 6.75 6.75-3.028 6.75-6.75S19.722 9.25 16 9.25zm5.174 6h-2.441c-.061-1.499-.307-2.985-.752-4.105a5.246 5.246 0 0 1 3.193 4.105zm-5.155 5.998h-.009c-.323-.106-1.111-1.633-1.235-4.499h2.45c-.124 2.863-.908 4.39-1.206 4.498zm-1.244-5.998c.124-2.863.908-4.39 1.206-4.498h.009c.323.106 1.111 1.633 1.235 4.499h-2.45zm-.756-4.105c-.445 1.12-.691 2.606-.752 4.105h-2.441a5.245 5.245 0 0 1 3.193-4.105zm-3.193 5.605h2.441c.061 1.499.307 2.985.752 4.105a5.246 5.246 0 0 1-3.193-4.105zm7.155 4.105c.445-1.12.691-2.606.752-4.105h2.441a5.245 5.245 0 0 1-3.193 4.105z" style="fill:#001d6c;stroke-width:0"/></svg>