<svg id="MaaS360AppCatalog" xmlns="http://www.w3.org/2000/svg" xmlns:xlink="http://www.w3.org/1999/xlink" viewBox="0 0 32 32"><defs><linearGradient id="tlxb0iwuna" x1="15.981" y1="29.977" x2="27.573" y2="23.284" gradientTransform="rotate(30.253 21.777 26.63)" gradientUnits="userSpaceOnUse"><stop offset=".2" stop-opacity="0"/><stop offset=".9"/></linearGradient><linearGradient id="mvre8xzxzb" x1="-545.726" y1="2557.683" x2="-534.133" y2="2550.99" gradientTransform="rotate(-149.747 -609.363 1205.498)" xlink:href="#tlxb0iwuna"/><linearGradient id="g2csmqa2fd" x1="964.432" y1="1015" x2="996.432" y2="983" gradientTransform="matrix(1 0 0 -1 -964.432 1015)" gradientUnits="userSpaceOnUse"><stop offset=".2" stop-color="#9132fd"/><stop offset=".8" stop-color="#00aefd"/></linearGradient><mask id="z860tolphc" x="0" y="0" width="32" height="32" maskUnits="userSpaceOnUse"><path d="M26.801 22.542 16 28.843 5 22.426V12H3v11c0 .355.189.685.496.864l12 7a.999.999 0 0 0 1.008 0l10.297-6.007v-2.315z" style="fill:#fff;stroke-width:0"/><path transform="rotate(-30.253 21.776 26.63)" style="fill:url(#tlxb0iwuna);stroke-width:0" d="M15.089 25.53h13.376v2.2H15.089z"/><path d="m28.504 8.136-12-7a.999.999 0 0 0-1.008 0L5.199 7.143v2.315L16 3.158l11 6.417v10.426h2v-11c0-.355-.189-.685-.496-.864z" style="fill:#fff;stroke-width:0"/><path transform="rotate(-30.253 10.223 5.37)" style="fill:url(#mvre8xzxzb);stroke-width:0" d="M3.535 4.27h13.376v2.2H3.535z"/></mask></defs><g style="mask:url(#z860tolphc)"><path transform="rotate(-90 16 16)" style="fill:url(#g2csmqa2fd);stroke-width:0" d="M0 0h32v32H0z"/></g><path style="fill:#011c6c;stroke-width:0" d="M17 10h5v5h-5z"/><circle cx="19.5" cy="19.5" r="2.5" style="fill:#011c6c;stroke-width:0"/><path style="fill:#011c6c;stroke-width:0" d="M10 17h5v5h-5z"/><circle cx="12.5" cy="12.5" r="2.5" style="fill:#011c6c;stroke-width:0"/></svg>