<svg xmlns="http://www.w3.org/2000/svg" viewBox="0 0 32 32"><defs><linearGradient id="du67av6b4a" x1="-1553.794" y1="1480.388" x2="-1549.794" y2="1480.388" gradientTransform="rotate(90 -43.203 1530.591)" gradientUnits="userSpaceOnUse"><stop offset=".15"/><stop offset="1" stop-opacity="0"/></linearGradient><linearGradient id="j408xo352c" y1="32" x2="32" gradientUnits="userSpaceOnUse"><stop offset=".1" stop-color="#a56eff"/><stop offset=".9" stop-color="#0f62fe"/></linearGradient><mask id="mt9y8jqh4b" x="0" y="0" width="32" height="32" maskUnits="userSpaceOnUse"><path d="M14 26H8a2 2 0 0 1-2-2v-4h2v4h6v-2h2v2a2 2 0 0 1-2 2z" fill="#fff"/><path fill="url(#du67av6b4a)" d="m5 20 .41 4h3.178L9 21l-4-1z"/><path d="M22 6v2.18L3.6 11.859A2 2 0 0 0 2 13.816v4.368a2 2 0 0 0 1.6 1.957L22 23.82V26h2V6zM4 18.184V13.82l18-3.6v11.561z" fill="#fff"/></mask></defs><g data-name="Layer 2"><g data-name="Light theme icons"><g mask="url(#mt9y8jqh4b)"><path fill="url(#j408xo352c)" d="M0 0h32v32H0z"/></g><path fill="#001d6c" d="M28 9h2v9h-2zm1 11a1.5 1.5 0 1 0 1.5 1.5A1.5 1.5 0 0 0 29 20z"/></g></g></svg>