<svg id="MaximoAssist" xmlns="http://www.w3.org/2000/svg" viewBox="0 0 32 32"><defs><linearGradient id="i713l3uu8a" x1="61.02" y1="17.266" x2="78.97" y2="17.266" gradientTransform="translate(-52.536 -10.22)" gradientUnits="userSpaceOnUse"><stop offset=".41" stop-opacity="0"/><stop offset=".85"/></linearGradient><linearGradient id="5hk73cte4b" x1="64.785" y1="32.027" x2="79.581" y2="23.485" gradientTransform="rotate(34.709 64.64 -58.101)" gradientUnits="userSpaceOnUse"><stop offset=".3"/><stop offset=".8" stop-opacity="0"/></linearGradient><linearGradient id="hjz1cqzlgd" y1="32" x2="32" gradientUnits="userSpaceOnUse"><stop offset=".1" stop-color="#a36efd"/><stop offset=".9" stop-color="#1062fc"/></linearGradient><mask id="qhjdfmu33c" x="0" y="0" width="32" height="32" maskUnits="userSpaceOnUse"><path style="fill:#fff" d="m18.025 19.155-.37 3.545 11.357-12.491-2.606-.273-8.381 9.219zM24.412 6.523l1.04-2.408L8.991 7.919l3.275 1.411 12.146-2.807z"/><path transform="rotate(-13.015 17.46 7.045)" style="fill:url(#i713l3uu8a)" d="M8.484 4.934h17.95v4.224H8.484z"/><path transform="rotate(-47.724 21.953 16.774)" style="fill:url(#5hk73cte4b)" d="M13.512 15.19h16.882v3.167H13.512z"/><path d="M9.467 9.977a6.863 6.863 0 1 1-5.141 8.232 6.871 6.871 0 0 1 5.141-8.232m-.476-2.058a8.975 8.975 0 1 0 10.766 6.724A8.976 8.976 0 0 0 8.991 7.919zM25.927 6.172a1.584 1.584 0 1 1-1.186 1.9 1.587 1.587 0 0 1 1.186-1.9m-.476-2.057a3.7 3.7 0 1 0 4.433 2.768 3.7 3.7 0 0 0-4.433-2.768z" style="fill:#fff"/><path d="M10.656 15.121a1.584 1.584 0 1 1-1.187 1.9 1.585 1.585 0 0 1 1.187-1.9m-.476-2.058a3.7 3.7 0 1 0 4.433 2.769 3.7 3.7 0 0 0-4.433-2.769z" style="fill:#fff"/></mask></defs><g style="mask:url(#qhjdfmu33c)"><path style="fill:url(#hjz1cqzlgd)" d="M0 0h32v32H0z"/></g><path style="fill:#001d6c" d="M20 25.976h2v4h-2zM24 22.976h2v7h-2zM28 19.976h2v10h-2z"/></svg>