<svg xmlns="http://www.w3.org/2000/svg" viewBox="0 0 32 32"><defs><linearGradient id="17qkcybdfa" x1="74.5" y1="-24.5" x2="84.5" y2="-24.5" gradientTransform="translate(-66.5 49.5)" gradientUnits="userSpaceOnUse"><stop offset=".001" stop-opacity="0"/><stop offset=".83"/></linearGradient><linearGradient id="xwnpbq7phc" y1="32" x2="32" gradientUnits="userSpaceOnUse"><stop offset=".1" stop-color="#a56eff"/><stop offset=".9" stop-color="#0f62fe"/></linearGradient><mask id="qyqdy4uzwb" x="0" y="0" width="32" height="32" maskUnits="userSpaceOnUse"><path d="M17 24H4V10h24v5h2v-5a2 2 0 0 0-2-2h-6V4a2 2 0 0 0-2-2h-8a2 2 0 0 0-2 2v4H4a2 2 0 0 0-2 2v14a2 2 0 0 0 2 2h13zM12 4h8v4h-8z" fill="#fff"/><path fill="url(#17qkcybdfa)" d="M8 23h10v4H8z" data-name="Gradients (black)"/><path d="M27 12h4v4h-4z"/></mask></defs><g data-name="Layer 2"><g data-name="Light theme icons"><g mask="url(#qyqdy4uzwb)"><path fill="url(#xwnpbq7phc)" d="M0 0h32v32H0z"/></g><path d="M20 27h-2a2 2 0 0 1-2-2v-6a2 2 0 0 1 2-2h2a2 2 0 0 1 2 2v6a2 2 0 0 1-2 2zm-2-8v6h2v-6zm6-5v3h4v2h-4v2h4a2 2 0 0 0 2-2v-2a2 2 0 0 0-2-2h-2v-1zm6 16v-1a2 2 0 0 0-2-2h-2v-2h3v-2h-3a2 2 0 0 0-2 2v5h2v-1h2v1z" fill="#001d6c"/></g></g></svg>