<svg id="testdana" xmlns="http://www.w3.org/2000/svg" viewBox="0 0 32 32"><defs><linearGradient id="1t1uxr54ya" x1="102.698" y1="-75.025" x2="91.698" y2="-75.025" gradientTransform="matrix(0 .69 -1 0 -50.754 -57.781)" gradientUnits="userSpaceOnUse"><stop offset=".2"/><stop offset=".9" stop-opacity="0"/></linearGradient><linearGradient id="tq7jo6pe5c" x1="0" y1="32" x2="32" y2="0" gradientUnits="userSpaceOnUse"><stop offset=".1" stop-color="#a56eff"/><stop offset=".9" stop-color="#0f62fe"/></linearGradient><mask id="akrajn8djb" x="2" y="2" width="26.541" height="26" maskUnits="userSpaceOnUse"><path d="M11 12v3h3v2h-3v3H9v-3H6v-2h3v-3h2zm4.832-9.748 11.277 7.622L26 11.538 15 4.1 4 11.535V26h9v2H4a2 2 0 0 1-2-2V11.535c0-.669.334-1.293.891-1.664l11.277-7.619a1.5 1.5 0 0 1 1.664 0z" style="fill:#fff"/><path d="M11 12v3h3v2h-3v3H9v-3H6v-2h3v-3h2zm4.832-9.748 11.277 7.622L26 11.538 15 4.1 4 11.535V26h9v2H4a2 2 0 0 1-2-2V11.535c0-.669.334-1.293.891-1.664l11.277-7.619a1.5 1.5 0 0 1 1.664 0z" style="fill:#fff"/><path transform="rotate(-57 24.27 9.256)" style="fill:url(#1t1uxr54ya)" d="M22.271 5.463h4v7.587h-4z"/></mask></defs><g style="mask:url(#akrajn8djb)"><path style="fill:url(#tq7jo6pe5c)" d="M0 0h32v32H0z"/></g><circle cx="19" cy="16" r="2" style="fill:#001d6c"/><circle cx="27" cy="16" r="2" style="fill:#001d6c"/><path d="M28.001 19h-3.535l-1.465 2.197L21.536 19h-3.535a2.002 2.002 0 0 0-1.999 1.999V25H18v5h2v-5h-1.998v-4h2.464l2.535 3.803L25.536 21H28v4h2v-4.001A2.002 2.002 0 0 0 28.001 19z" style="fill:#001d6c"/><path style="fill:#001d6c" d="M26 25h2v5h-2z"/></svg>