<svg xmlns="http://www.w3.org/2000/svg" viewBox="0 0 32 32"><defs><linearGradient id="9e27utqeba" x1="17" y1="27.5" x2="31" y2="27.5" gradientUnits="userSpaceOnUse"><stop offset="0" stop-opacity="0"/><stop offset=".9"/></linearGradient><linearGradient id="cu4uazn2cc" y1="32" x2="32" gradientUnits="userSpaceOnUse"><stop offset=".1" stop-color="#08bdba"/><stop offset=".9" stop-color="#0f62fe"/></linearGradient><mask id="x176hkwecb" x="0" y="0" width="32" height="32" maskUnits="userSpaceOnUse"><path d="M18 23h-2v-2a3 3 0 0 0-3-3H9a3 3 0 0 0-3 3v2H4v-2a5.006 5.006 0 0 1 5-5h4a5.006 5.006 0 0 1 5 5zM11 6a3 3 0 1 1-3 3 3 3 0 0 1 3-3m0-2a5 5 0 1 0 5 5 5 5 0 0 0-5-5z" fill="#fff"/><path d="M2 24h18v3H2z"/><path fill="#fff" d="M2 26h28v2H2z"/><path fill="url(#9e27utqeba)" d="M17 25h14v5H17z"/></mask></defs><g data-name="Layer 2"><g data-name="Light theme"><g mask="url(#x176hkwecb)"><path fill="url(#cu4uazn2cc)" d="M0 0h32v32H0z"/></g><path d="M27.3 8a2.663 2.663 0 0 0-1.908.806L25 9.211l-.4-.405a2.661 2.661 0 0 0-3.816 0 2.8 2.8 0 0 0 0 3.9L25 17l4.209-4.3a2.8 2.8 0 0 0 0-3.9A2.663 2.663 0 0 0 27.3 8z" fill="#001d6c"/></g></g></svg>