<svg xmlns="http://www.w3.org/2000/svg" viewBox="0 0 32 32"><defs><linearGradient id="zwl3rvk5sa" x1="5.734" y1="22.339" x2="1.266" y2="5.661" gradientUnits="userSpaceOnUse"><stop offset=".359" stop-opacity="0"/><stop offset=".789"/></linearGradient><linearGradient id="1dpdk1j6xc" y1="32" x2="32" gradientUnits="userSpaceOnUse"><stop offset=".1" stop-color="#08bdba"/><stop offset=".9" stop-color="#0f62fe"/></linearGradient><mask id="geeyq8e72b" x="0" y="0" width="32" height="32" maskUnits="userSpaceOnUse"><path d="M18 28H7.769a2 2 0 0 1-1.933-1.484L.521 6.582l1.931-.516L7.768 26H18z" fill="#fff"/><path fill="url(#zwl3rvk5sa)" d="M0 6h7v16H0z"/><path d="M10.5 9A3.5 3.5 0 1 1 14 5.5 3.5 3.5 0 0 1 10.5 9zm0-5A1.5 1.5 0 1 0 12 5.5 1.5 1.5 0 0 0 10.5 4zm11.975 27.313L19.341 24h-7.1a4.008 4.008 0 0 1-3.866-2.971L6.739 14.9a3.9 3.9 0 0 1 7.534-2.009L15.1 16H21v2h-7.436l-1.222-4.591A1.9 1.9 0 0 0 10.506 12a1.9 1.9 0 0 0-1.835 2.388l1.634 6.126A2 2 0 0 0 12.239 22h8.42l3.654 8.525z" fill="#fff"/></mask></defs><g data-name="Layer 2"><g data-name="Light theme"><g mask="url(#geeyq8e72b)"><path fill="url(#1dpdk1j6xc)" d="M0 0h32v32H0z"/></g><path d="M30 4V2h-8v2a3.991 3.991 0 0 0 3 3.859V11h-2v2h6v-2h-2V7.859A3.991 3.991 0 0 0 30 4z" fill="#001d6c"/></g></g></svg>