<svg xmlns="http://www.w3.org/2000/svg" viewBox="0 0 32 32"><defs><linearGradient id="2rmbe2mrpa" x1="21" y1="20" x2="21" y2="6" gradientUnits="userSpaceOnUse"><stop offset=".4"/><stop offset=".9" stop-opacity="0"/></linearGradient><linearGradient id="z0dzw9xn1c" y1="32" x2="32" gradientUnits="userSpaceOnUse"><stop offset=".1" stop-color="#08bdba"/><stop offset=".9" stop-color="#0f62fe"/></linearGradient><mask id="65pz74pdlb" x="0" y="0" width="32" height="32" maskUnits="userSpaceOnUse"><circle cx="7" cy="26" r="2" fill="#f4f4f4"/><path d="M10 21V6h4v12h2V6h4v12h2V6h4v12h2V6.005a2.005 2.005 0 0 0-2-2H4.005a2.005 2.005 0 0 0-2.005 2V20a2.005 2.005 0 0 0 2.005 2h6zm-6-1V6h4v14z" fill="#f4f4f4"/><path fill="url(#2rmbe2mrpa)" d="M13 6h16v14H13z"/></mask></defs><g data-name="Layer 2"><g data-name="Light theme"><g mask="url(#65pz74pdlb)"><path fill="url(#z0dzw9xn1c)" d="M0 0h32v32H0z"/></g><path d="M14 26v-7h14v7zm5-11h4v2h-4zm9 2h-3v-2a2 2 0 0 0-2-2h-4a2 2 0 0 0-2 2v2h-3a2 2 0 0 0-2 2v7a2 2 0 0 0 2 2h14a2 2 0 0 0 2-2v-7a2 2 0 0 0-2-2z" fill="#001d6c" fill-rule="evenodd"/></g></g></svg>