<svg xmlns="http://www.w3.org/2000/svg" viewBox="0 0 32 32"><defs><linearGradient id="cg5h2rbjsa" x1="4162.64" y1="3434.859" x2="4162.64" y2="3444.226" gradientTransform="translate(-4149.14 -3412.859)" gradientUnits="userSpaceOnUse"><stop offset="0" stop-opacity="0"/><stop offset=".9"/></linearGradient><linearGradient id="zq605bhbjc" y1="32" x2="32" gradientUnits="userSpaceOnUse"><stop offset=".1" stop-color="#08bdba"/><stop offset=".9" stop-color="#0f62fe"/></linearGradient><mask id="8ohiz1ef9b" x="0" y="0" width="32" height="32" maskUnits="userSpaceOnUse"><path d="M25 4h-4V2h-2v2h-8V2H9v2H5a2 2 0 0 0-2 2v20a2 2 0 0 0 2 2h12v-2H5V6h4v2h2V6h8v2h2V6h4v7h2V6a2 2 0 0 0-2-2z" fill="#fff" fill-rule="evenodd"/><path transform="rotate(-90 13.5 26.5)" fill="url(#cg5h2rbjsa)" d="M11 22h5v9h-5z"/></mask></defs><g data-name="Layer 2"><g data-name="Light theme"><g mask="url(#8ohiz1ef9b)"><path fill="url(#zq605bhbjc)" d="M0 0h32v32H0z"/></g><path d="m25 23 5 2v-2l-5-2.5V18a1 1 0 0 0-2 0v2.5L18 23v2l5-2v3.5L21 28v1l3-1 3 1v-1l-2-1.5z" fill="#001d6c" fill-rule="evenodd"/></g></g></svg>