<svg xmlns="http://www.w3.org/2000/svg" viewBox="0 0 32 32"><defs><linearGradient id="nife7ub1ta" x1="3" y1="29" x2="15" y2="29" gradientUnits="userSpaceOnUse"><stop offset=".1"/><stop offset=".9" stop-opacity="0"/></linearGradient><linearGradient id="jmn02zt2ec" y1="32" x2="32" gradientUnits="userSpaceOnUse"><stop offset=".1" stop-color="#08bdba"/><stop offset=".9" stop-color="#0f62fe"/></linearGradient><mask id="yfq7m6fuzb" x="0" y="0" width="32" height="32" maskUnits="userSpaceOnUse"><path d="M26.9 19.246A4.017 4.017 0 0 0 24 18h-8.877l-3.2-12.806a4.089 4.089 0 0 0-4.685-3.121 3.968 3.968 0 0 0-2.613 1.78 4.013 4.013 0 0 0-.5 3.117L8.5 24.485A2 2 0 0 0 10.438 26H19v2H4v2h15a2 2 0 0 0 2-2v-2h2.831A4.089 4.089 0 0 0 28 22.212a3.966 3.966 0 0 0-1.1-2.966zM23.831 24H10.437L6.06 6.485a2 2 0 0 1 1.561-2.449A1.78 1.78 0 0 1 7.961 4a2.165 2.165 0 0 1 2.02 1.676L13.562 20H24a2 2 0 0 1 2 2.108A2.118 2.118 0 0 1 23.831 24z" fill="#fff"/><path fill="url(#nife7ub1ta)" d="M3 27h12v4H3z"/></mask></defs><g data-name="Layer 2"><g data-name="Light theme"><g mask="url(#yfq7m6fuzb)"><path fill="url(#jmn02zt2ec)" d="M0 0h32v32H0z"/></g><path d="M27.3 2a2.663 2.663 0 0 0-1.908.806l-.393.4-.4-.4a2.661 2.661 0 0 0-3.816 0 2.8 2.8 0 0 0 0 3.9L25 11l4.209-4.3a2.8 2.8 0 0 0 0-3.9A2.663 2.663 0 0 0 27.3 2z" fill="#001d6c"/></g></g></svg>