<svg data-name="Build icon here" xmlns="http://www.w3.org/2000/svg" viewBox="0 0 32 32"><defs><linearGradient id="4bl6rmfiga" x1="-8205.25" y1="496.25" x2="-8187.75" y2="513.75" gradientTransform="translate(8217.5 -481.5)" gradientUnits="userSpaceOnUse"><stop offset=".3" stop-opacity="0"/><stop offset=".9"/></linearGradient><linearGradient id="bh2b8uvsyc" y1="32" x2="32" gradientUnits="userSpaceOnUse"><stop offset=".1" stop-color="#42be65"/><stop offset=".9" stop-color="#007d79"/></linearGradient><mask id="0rz7xdkkub" x="0" y="0" width="32" height="32" maskUnits="userSpaceOnUse"><path d="M30 16A14 14 0 1 1 16 2a14.015 14.015 0 0 1 14 14zM4 16A12 12 0 1 0 16 4 12.013 12.013 0 0 0 4 16z" fill="#fff"/><path transform="rotate(-90 21 23.5)" fill="url(#4bl6rmfiga)" d="M13.5 13.5h15v20h-15z"/></mask></defs><g mask="url(#0rz7xdkkub)"><path fill="url(#bh2b8uvsyc)" d="M0 0h32v32H0z"/></g><path fill="#001d6c" d="M19 10v9.25L13.5 10H11v12h2v-9.25L18.5 22H21V10h-2z"/></svg>