<svg id="NetworkIntelligence" xmlns="http://www.w3.org/2000/svg" xmlns:xlink="http://www.w3.org/1999/xlink" viewBox="0 0 32 32"><defs><linearGradient id="nn3ykpg4ja" x1="3660.411" y1="-32.163" x2="3672.753" y2="-32.163" gradientTransform="rotate(152.482 2148.336 -533.405) scale(1.172 .703)" gradientUnits="userSpaceOnUse"><stop offset=".179"/><stop offset=".964" stop-opacity="0"/></linearGradient><linearGradient id="wah1j9egbb" x1="5725.798" y1="-6408.34" x2="5739.505" y2="-6408.354" gradientTransform="matrix(.93826 -.70232 .42127 .5628 -2652.092 7658.627)" xlink:href="#nn3ykpg4ja"/><linearGradient id="c65o67s0wd" x1="0" y1="32" x2="32" y2="0" gradientUnits="userSpaceOnUse"><stop offset=".1" stop-color="#00c0b8"/><stop offset=".9" stop-color="#06f"/></linearGradient><mask id="7kb2j7jmlc" x="-1.04" y="0" width="34.041" height="32" maskUnits="userSpaceOnUse"><path d="M17 30.004h-1c-7.72 0-14-6.28-14-14A13.942 13.942 0 0 1 12.771 2.379l.459 1.947a11.947 11.947 0 0 0-9.229 11.678c0 6.28 4.85 11.449 11 11.959v-5.959h2v8z" style="fill:#fff"/><path style="fill:url(#nn3ykpg4ja)" d="M13.136.296-1.04 4.86l4.55 8.733 13.508-7.037-3.882-6.26z" id="Gradients_black_" data-name="Gradients (black)"/><path d="m19.231 29.63-.459-1.947a11.95 11.95 0 0 0 9.229-11.679c0-6.28-4.85-11.449-11-11.959v5.959h-2v-8h1c7.72 0 14 6.28 14 14a13.945 13.945 0 0 1-10.77 13.626z" style="fill:#fff"/><path style="fill:url(#wah1j9egbb)" d="m17.536 31.637 15.466-7.551-5.902-7.884-9.564 8.87v6.565z" id="Gradients_black_-2" data-name="Gradients (black)"/></mask></defs><g style="mask:url(#7kb2j7jmlc)"><path style="fill:url(#c65o67s0wd)" d="M0 0h32v32H0z"/></g><path d="M22.842 8.203a2 2 0 0 0-2.656.972c-.204.44-.226.914-.111 1.349l-2.061 2.054c-.111-.065-.213-.14-.331-.195a3.97 3.97 0 0 0-5.194 1.744l-2.557-.591a1.988 1.988 0 0 0-1.092-1.34 2 2 0 1 0-1.684 3.628 1.997 1.997 0 0 0 2.215-.365l2.643.611c.012.695.194 1.374.543 1.969l-2.048 2.042a1.997 1.997 0 0 0-1.354 3.743 2 2 0 0 0 2.656-.972c.205-.442.226-.918.11-1.354l2.061-2.055c.111.065.213.142.333.197a3.982 3.982 0 0 0 3.059.128 3.974 3.974 0 0 0 2.253-2.072 3.97 3.97 0 0 0-.187-3.715l2.043-2.037a1.996 1.996 0 0 0 1.36-3.741zm-5.029 8.651a1.988 1.988 0 0 1-1.126 1.036 2.002 2.002 0 0 1-2.502-2.719 2.002 2.002 0 0 1 2.656-.972c.484.225.853.625 1.036 1.127a1.984 1.984 0 0 1-.064 1.529z" style="fill:#001e71"/></svg>