<svg id="Notifier" xmlns="http://www.w3.org/2000/svg" viewBox="0 0 32 32"><defs><linearGradient id="pezfudh0ja" x1="-7940.498" y1="1028.766" x2="-7935.034" y2="1038.23" gradientTransform="rotate(-90 -4472 -3460.498)" gradientUnits="userSpaceOnUse"><stop offset=".16" stop-opacity="0"/><stop offset=".6"/></linearGradient><linearGradient id="9d64zcdw2c" x1="0" y1="32" x2="32" y2="0" gradientUnits="userSpaceOnUse"><stop offset=".1" stop-color="#08bdba"/><stop offset=".9" stop-color="#0f62fe"/></linearGradient><mask id="batfzs2g5b" x="4" y="3" width="24" height="25" maskUnits="userSpaceOnUse"><path d="M24 13a4 4 0 0 0 4-4h-2c0 1.103-.897 2-2 2h-3V8c0-1.103.897-2 2-2h3V4h-3a4 4 0 0 0-4 4v3h-6V8a4 4 0 0 0-4-4H8a4 4 0 0 0-4 4v1a4 4 0 0 0 4 4h3v6H8a4 4 0 0 0-4 4v1a4 4 0 0 0 4 4h1a4 4 0 0 0 4-4v-3h6v3a4 4 0 0 0 4 4h1a4 4 0 0 0 4-4v-1a4 4 0 0 0-4-4h-3v-6h3zM11 24c0 1.103-.897 2-2 2H8c-1.103 0-2-.897-2-2v-1c0-1.103.897-2 2-2h3v3zm0-13H8c-1.103 0-2-.897-2-2V8c0-1.103.897-2 2-2h1c1.103 0 2 .897 2 2v3zm8 8h-6v-6h6v6zm5 2c1.103 0 2 .897 2 2v1c0 1.103-.897 2-2 2h-1c-1.103 0-2-.897-2-2v-3h3z" style="fill:#f4f4f4"/><path style="fill:url(#pezfudh0ja)" d="M27 3v4l-6 4h-2l-2-8h10z"/></mask></defs><g style="mask:url(#batfzs2g5b)"><path style="fill:url(#9d64zcdw2c)" d="M0 0h32v32H0z"/></g><circle cx="27.5" cy="3.5" r="3.5" style="fill:#001d6c"/></svg>