<svg id="OfferingAccelerator" xmlns="http://www.w3.org/2000/svg" xmlns:xlink="http://www.w3.org/1999/xlink" viewBox="0 0 32 32"><defs><linearGradient id="ar97drhhqa" x1="1041" y1="1912.5" x2="1049" y2="1912.5" gradientTransform="translate(-1037.5 -1899.5)" gradientUnits="userSpaceOnUse"><stop offset=".29"/><stop offset=".8" stop-opacity="0"/></linearGradient><linearGradient id="u8jkhhqnvb" x1="-1883" y1="1071.5" x2="-1874" y2="1071.5" gradientTransform="translate(1907 -1052)" xlink:href="#ar97drhhqa"/><linearGradient id="r3bemhudxd" x1="0" y1="32" x2="32" y2="0" gradientUnits="userSpaceOnUse"><stop offset=".1" stop-color="#00c0ba"/><stop offset=".9" stop-color="#0064ff"/></linearGradient><mask id="yn87ldshcc" x="0" y="0" width="32" height="32" maskUnits="userSpaceOnUse"><path d="M16 28C9.383 28 4 22.617 4 16S9.383 4 16 4V2C8.28 2 2 8.28 2 16s6.28 14 14 14 14-6.28 14-14h-2c0 6.617-5.383 12-12 12z" style="fill:#fff;stroke-width:0"/><path d="M16 6C10.486 6 6 10.486 6 16h2c0-4.411 3.589-8 8-8s8 3.589 8 8-3.589 8-8 8v2c5.514 0 10-4.486 10-10S21.514 6 16 6z" style="fill:#fff;stroke-width:0"/><path transform="rotate(-90 7.5 13)" style="fill:url(#ar97drhhqa);stroke-width:0" d="M3.5 10.5h8v5h-8z"/><path transform="rotate(90 28.5 19.5)" style="fill:url(#u8jkhhqnvb);stroke-width:0" d="M24 17h9v5h-9z"/></mask></defs><g style="mask:url(#yn87ldshcc)"><path style="fill:url(#r3bemhudxd);stroke-width:0" d="M0 0h32v32H0z"/></g><path d="M16 22c-3.309 0-6-2.691-6-6s2.691-6 6-6 6 2.691 6 6-2.691 6-6 6zm0-10c-2.206 0-4 1.794-4 4s1.794 4 4 4 4-1.794 4-4-1.794-4-4-4z" style="fill:#001e71;stroke-width:0"/></svg>