<svg xmlns="http://www.w3.org/2000/svg" xmlns:xlink="http://www.w3.org/1999/xlink" viewBox="0 0 32 32"><defs><linearGradient id="3zlit43eta" x1="16" y1="1" x2="32" y2="17" gradientUnits="userSpaceOnUse"><stop offset=".25"/><stop offset=".553" stop-opacity="0"/></linearGradient><linearGradient id="ezv69sy3vb" x1="-77" y1="-5203" x2="-61" y2="-5187" gradientTransform="translate(77 5218)" xlink:href="#3zlit43eta"/><linearGradient id="c71s9vsa8d" x1="-1358" y1="32" x2="-1390" gradientTransform="matrix(1 0 0 -1 1390 32)" gradientUnits="userSpaceOnUse"><stop offset=".1" stop-color="#a56eff"/><stop offset=".9" stop-color="#0f62fe"/></linearGradient><mask id="pwj59pp8tc" x="0" y="0" width="32" height="32" maskUnits="userSpaceOnUse"><path d="M16 27c6.208 0 12.6-4.5 14.869-10.474l.064-.166a1 1 0 1 0-1.866-.719l-.067.171A14.669 14.669 0 0 1 16 25a14.667 14.667 0 0 1-13-9.184l-.065-.17a1 1 0 0 0-1.87.709l.065.171C3.4 22.5 9.791 27 16 27z" fill="#fff"/><path fill="none" d="M0 13h32v15H0z"/><path d="M16 5C9.792 5 3.4 9.5 1.131 15.474l-.064.166a1 1 0 1 0 1.866.719L3 16.188A14.669 14.669 0 0 1 16 7a14.667 14.667 0 0 1 13 9.184l.065.17a1 1 0 0 0 1.87-.709l-.065-.171C28.6 9.5 22.209 5 16 5z" fill="#fff"/><path transform="rotate(180 16 11.5)" fill="none" d="M0 4h32v15H0z"/><path fill="url(#3zlit43eta)" d="M16 1h16v16H16z"/><path transform="rotate(180 8 23)" fill="url(#ezv69sy3vb)" d="M0 15h16v16H0z"/><path d="M7.842 0 15 17h1v15h8.158L17 15h-1V0H7.842z"/></mask></defs><g data-name="Layer 2"><g data-name="Build icon here"><g mask="url(#pwj59pp8tc)"><path transform="rotate(180 16 16)" fill="url(#c71s9vsa8d)" d="M0 0h32v32H0z"/></g><path d="M22 16a6 6 0 0 0-5-5.909V7.723a2 2 0 1 0-2 0v2.368a5.992 5.992 0 0 0 0 11.819v2.367a2 2 0 1 0 2 0V21.91A6 6 0 0 0 22 16zm-10 0a4 4 0 1 1 4 4 4 4 0 0 1-4-4z" fill="#001d6c"/></g></g></svg>