<svg id="OperatorCollectionSDK" xmlns="http://www.w3.org/2000/svg" viewBox="0 0 32 32"><defs><linearGradient id="nxp578cx9a" x1="-902.074" y1="19.5" x2="-891.074" y2="19.5" gradientTransform="matrix(1 0 0 -1 914.074 39)" gradientUnits="userSpaceOnUse"><stop offset=".55"/><stop offset="1" stop-opacity="0"/></linearGradient><linearGradient id="sbufoqkaqb" x1="282.489" y1="-5928.864" x2="286.569" y2="-5928.742" gradientTransform="scale(-1 1) rotate(38.295 -8429.647 -3405.37)" gradientUnits="userSpaceOnUse"><stop offset="0" stop-opacity="0"/><stop offset=".7"/></linearGradient><linearGradient id="ri54g88ryd" x1="0" y1="32" x2="32" y2="0" gradientUnits="userSpaceOnUse"><stop offset=".1" stop-color="#08bdba"/><stop offset=".9" stop-color="#0f62fe"/></linearGradient><mask id="mu327rva3c" x="0" y="0" width="32" height="32" maskUnits="userSpaceOnUse"><path d="M5.038 16.756c-.017-.251-.038-.501-.038-.757 0-.258.01-.513.028-.766l-1.921-1.688a2 2 0 0 1-.412-2.502l2.36-4.088a2 2 0 0 1 2.373-.894l2.434.823c.418-.281.856-.535 1.312-.758l.504-2.519a2 2 0 0 1 1.961-1.608h4.721a2 2 0 0 1 1.961 1.608l.504 2.519c.459.225.906.469 1.326.754l2.419-.819a2 2 0 0 1 2.373.894l2.36 4.088a2 2 0 0 1-.412 2.502l-2.658 2.344-1.381-1.457 2.718-2.389-2.361-4.088-3.427 1.159a9.016 9.016 0 0 0-2.714-1.564l-.71-3.551h-4.721l-.71 3.551a9.112 9.112 0 0 0-2.695 1.571L6.785 7.955l-2.36 4.088 2.725 2.395a8.932 8.932 0 0 0-.007 3.128l-2.718 2.389 2.36 4.088 3.427-1.159a9.016 9.016 0 0 0 2.714 1.564l.71 3.551h2.36v2h-2.36a2 2 0 0 1-1.961-1.608l-.504-2.519a10.998 10.998 0 0 1-1.326-.753l-2.419.818a2 2 0 0 1-2.373-.894l-2.36-4.088a2 2 0 0 1 .412-2.502l1.931-1.697z" style="fill:#fff;stroke-width:0"/><path d="M10 16c0-3.309 2.691-6 6-6s6 2.691 6 6-2.691 6-6 6-6-2.691-6-6zm2 0c0 2.206 1.794 4 4 4s4-1.794 4-4-1.794-4-4-4-4 1.794-4 4z" style="fill:#fff;stroke-width:0"/><path transform="rotate(-180 17.5 19.5)" style="fill:url(#nxp578cx9a);stroke-width:0" d="M12 16h11v7H12z"/><path style="fill:url(#sbufoqkaqb);stroke-width:0" d="M23.863 14.17 27 11.562l2.573 3.062-3.059 2.597-2.651-3.051z"/></mask></defs><g style="mask:url(#mu327rva3c)"><path style="fill:url(#ri54g88ryd);stroke-width:0" d="M0 0h32v32H0z"/></g><path d="M30.998 20c0-1.66-1.34-3-3-3a2.986 2.986 0 0 0-2.817 2h-4.17c-.555 0-1.004.45-1.004 1.005V24h-2.008v6h6v-2h3.991c.555 0 1.004-.45 1.004-1.005v-4.177A2.987 2.987 0 0 0 30.998 20zm-9 8h-2v-2h2v2zm2-2v-2h-1.992v-3h3.175a2.982 2.982 0 0 0 1.813 1.816V26h-2.996zm4-5c-.55 0-1-.45-1-1s.45-1 1-1 1 .45 1 1-.45 1-1 1z" style="fill:#001d6c;stroke-width:0"/></svg>