<svg id="OperationsControlCenter" xmlns="http://www.w3.org/2000/svg" xmlns:xlink="http://www.w3.org/1999/xlink" viewBox="0 0 32 32"><defs><linearGradient id="4e32syq9da" x1="-76.243" y1="2.815" x2="-60.367" y2="-13.062" gradientTransform="rotate(-173.161 -30.816 -2.616)" gradientUnits="userSpaceOnUse"><stop offset=".1" stop-opacity="0"/><stop offset=".7"/></linearGradient><linearGradient id="szbjt0p21b" x1="-155.577" y1="-37.209" x2="-147.671" y2="-45.115" gradientTransform="rotate(-11.506 272.955 -888.947)" xlink:href="#4e32syq9da"/><linearGradient id="1sy0o8dzcd" x1="-.002" y1="32.004" x2="31.998" y2=".004" gradientTransform="translate(.002 -.004)" gradientUnits="userSpaceOnUse"><stop offset=".1" stop-color="#ab6bff"/><stop offset=".9" stop-color="#0064ff"/></linearGradient><mask id="glld1sl53c" x="-.34" y="-1.886" width="34.463" height="33.886" maskUnits="userSpaceOnUse"><path d="M3 16C3 8.832 8.832 3 16 3c4.807 0 9.003 2.629 11.253 6.519l1.725-1.007C26.381 4.029 21.543.999 16 .999 7.729 1 1 7.729 1 16c0 2.78.774 5.376 2.097 7.61l1.726-1.007a12.896 12.896 0 0 1-1.822-6.604z" style="fill:#fff"/><path style="fill:url(#4e32syq9da)" d="M2.111-1.886 16.61-.467l-.595 4.965-9.711 9.049-6.644.755L2.111-1.886z"/><path d="M.368 11.624h7.479v13.057H.368z"/><g><path d="M29 16c0 7.168-5.832 13-13 13-4.756 0-8.911-2.575-11.178-6.396l-1.726 1.007c2.614 4.414 7.412 7.39 12.903 7.39 8.271 0 15-6.729 15-15 0-1.386-2-1.033-2 0z" style="fill:#fff"/><path transform="rotate(15.416 28.242 18.97)" d="M23.523 13.971h9.442v9.995h-9.442z"/><path style="fill:url(#szbjt0p21b)" d="M31.689 31.622 20.871 29.79l-2.097-6.056 4.7-2.037 5.316-.074 2.899 9.999z"/></g></mask></defs><g style="mask:url(#glld1sl53c)"><path style="fill:url(#1sy0o8dzcd)" d="M0 0h32v32H0z"/></g><path d="M1 20.847V19.31h1.143v-5.793H1V11.98h4.217v1.537H4.074v5.793h1.143v1.537H1zM6.49 16.414c0-3.011 1.549-4.586 3.9-4.586s3.901 1.575 3.901 4.586S12.74 21 10.39 21s-3.9-1.575-3.9-4.586zm5.755.661v-1.321c0-1.41-.698-2.21-1.855-2.21s-1.855.8-1.855 2.21v1.321c0 1.41.699 2.21 1.855 2.21s1.855-.801 1.855-2.21zM15.566 16.478c0-2.998 1.537-4.649 3.925-4.649 1.626 0 2.668.66 3.315 2.083l-1.663.864c-.23-.736-.699-1.232-1.652-1.232-1.131 0-1.88.762-1.88 2.159v1.423c0 1.397.75 2.16 1.88 2.16.953 0 1.499-.597 1.766-1.321l1.575.915c-.661 1.346-1.715 2.121-3.341 2.121-2.388 0-3.925-1.525-3.925-4.522zM23.675 16.478c0-2.998 1.537-4.649 3.925-4.649 1.626 0 2.668.66 3.315 2.083l-1.663.864c-.23-.736-.699-1.232-1.652-1.232-1.131 0-1.88.762-1.88 2.159v1.423c0 1.397.75 2.16 1.88 2.16.953 0 1.499-.597 1.766-1.321l1.575.915c-.661 1.346-1.715 2.121-3.341 2.121-2.388 0-3.925-1.525-3.925-4.522z" style="fill:#001e71"/></svg>