<svg id="OperationsDashboard" xmlns="http://www.w3.org/2000/svg" viewBox="0 0 32 32"><defs><linearGradient id="vzga9rl4aa" x1="1461.513" y1="1174.878" x2="1472.043" y2="1174.878" gradientTransform="translate(-1443.772 -1161.876)" gradientUnits="userSpaceOnUse"><stop offset="0" stop-opacity="0"/><stop offset=".7"/></linearGradient><linearGradient id="h9n6zaamnc" x1="0" y1="32" x2="32" y2="0" gradientUnits="userSpaceOnUse"><stop offset=".1" stop-color="#a56eff"/><stop offset=".9" stop-color="#0f62fe"/></linearGradient><mask id="4guutq52bb" x="0" y="0" width="32" height="32" maskUnits="userSpaceOnUse"><path d="M12.972 28.996c-2.251 0-4.521-.687-6.474-2.113C1.6 23.305.525 16.41 4.102 11.512A10.932 10.932 0 0 1 9.77 7.48l14.245-4.888-.03 15.276a10.934 10.934 0 0 1-2.116 6.619 10.996 10.996 0 0 1-8.897 4.509zM22.01 5.395 10.389 9.382a8.977 8.977 0 0 0-4.671 3.31c-2.927 4.007-2.047 9.649 1.96 12.576 4.007 2.927 9.65 2.047 12.576-1.96a8.95 8.95 0 0 0 1.731-5.423l.024-12.49z" style="fill:#fff;stroke-width:0"/><path transform="rotate(90 23.006 13.002)" style="fill:url(#vzga9rl4aa);stroke-width:0" d="M17.742 10.002h10.53v6h-10.53z"/><path style="stroke-width:0" d="M13 17.994h13.007v12H13z"/></mask></defs><g style="mask:url(#4guutq52bb)"><path style="fill:url(#h9n6zaamnc);stroke-width:0" d="M0 0h32v32H0z"/></g><path d="m29.918 28.929-6.283-11.565a.718.718 0 0 0-1.257 0l-6.283 11.565a.72.72 0 0 0 .632 1.064h12.56a.72.72 0 0 0 .632-1.064zm-7.662-7.936h1.5v4h-1.5v-4zm.75 7a1 1 0 1 1 0-2 1 1 0 0 1 0 2z" style="fill:#001d6c;stroke-width:0"/></svg>