<svg data-name="Build icon here" xmlns="http://www.w3.org/2000/svg" xmlns:xlink="http://www.w3.org/1999/xlink" viewBox="0 0 32 32"><defs><linearGradient id="v6aukkjdla" x1="9" y1="7.5" x2="23" y2="7.5" gradientUnits="userSpaceOnUse"><stop offset=".1"/><stop offset=".7" stop-opacity="0"/></linearGradient><linearGradient id="48xs67ubtb" x1="-119.262" y1="-133.239" x2="-105.262" y2="-133.239" gradientTransform="translate(136.762 149.238)" xlink:href="#v6aukkjdla"/><linearGradient id="e0f61vj4mc" x1="-256.001" y1="7.5" x2="-242" y2="7.5" gradientTransform="translate(265 17)" xlink:href="#v6aukkjdla"/><linearGradient id="bfngk31q4d" x1="-119.262" y1="131.762" x2="-105.262" y2="131.762" gradientTransform="translate(119.762 -115.762)" xlink:href="#v6aukkjdla"/><linearGradient id="0f3fnejtuf" y1="32" x2="32" gradientUnits="userSpaceOnUse"><stop offset=".1" stop-color="#ee5396"/><stop offset=".9" stop-color="#8a3ffc"/></linearGradient><mask id="qz81kpexfe" x="0" y="0" width="32" height="32" maskUnits="userSpaceOnUse"><path d="M10 9.058A16.972 16.972 0 0 1 23 3v2a15.01 15.01 0 0 0-13 7.524zM22.942 10A16.972 16.972 0 0 1 29 23h-2a15.01 15.01 0 0 0-7.524-13zM22 22.942A16.972 16.972 0 0 1 9 29v-2a15.01 15.01 0 0 0 13-7.524zM9.057 22A16.972 16.972 0 0 1 3 9h2a15.01 15.01 0 0 0 7.524 13z" fill="#f4f4f4"/><path fill="url(#v6aukkjdla)" d="M9 2h14v11H9z"/><path transform="rotate(90 24.5 16)" fill="url(#48xs67ubtb)" d="M17.5 10.5h14v11h-14z"/><path transform="rotate(180 16 24.5)" fill="url(#e0f61vj4mc)" d="M8.999 19H23v11H8.999z"/><path transform="rotate(-90 7.499 16)" fill="url(#bfngk31q4d)" d="M.499 10.5h14v11h-14z"/></mask></defs><g mask="url(#qz81kpexfe)"><path fill="url(#0f3fnejtuf)" d="M0 0h32v32H0z"/></g><path d="M28 2a2 2 0 1 0 2 2 2 2 0 0 0-2-2zM4 2a2 2 0 1 0 2 2 2 2 0 0 0-2-2zm24 24a2 2 0 1 0 2 2 2 2 0 0 0-2-2zM4 26a2 2 0 1 0 2 2 2 2 0 0 0-2-2zm12-5a5 5 0 1 1 5-5 5.006 5.006 0 0 1-5 5zm0-8a3 3 0 1 0 3 3 3 3 0 0 0-3-3z" fill="#001d6c"/></svg>