<svg xmlns="http://www.w3.org/2000/svg" xmlns:xlink="http://www.w3.org/1999/xlink" viewBox="0 0 32 32"><defs><linearGradient id="5mluu0414a" x1="74.5" y1="-22.5" x2="89.5" y2="-22.5" gradientTransform="translate(-66.5 49.5)" gradientUnits="userSpaceOnUse"><stop offset=".001" stop-opacity="0"/><stop offset=".7"/></linearGradient><linearGradient id="ejmhw9poqb" x1="74.5" y1="-30.5" x2="89.5" y2="-30.5" xlink:href="#5mluu0414a"/><linearGradient id="os3f24ma7d" y1="32" x2="32" gradientUnits="userSpaceOnUse"><stop offset=".1" stop-color="#08bdba"/><stop offset=".9" stop-color="#0f62fe"/></linearGradient><mask id="lzig53165c" x="0" y="0" width="32" height="32" maskUnits="userSpaceOnUse"><path d="M26 18V4a2 2 0 0 0-2-2H8a2 2 0 0 0-2 2v22a2 2 0 0 0 2 2h14v-2H8v-6h14v-2H8v-6h16v6zM8 10V4h16v6z" fill="#fff"/><path fill="url(#5mluu0414a)" d="M8 25h15v4H8z" data-name="Gradients (black)"/><path fill="url(#ejmhw9poqb)" d="M8 17h15v4H8z" data-name="Gradients (black)"/></mask></defs><g data-name="Layer 2"><g data-name="Light theme icons"><g mask="url(#lzig53165c)"><path fill="url(#os3f24ma7d)" d="M0 0h32v32H0z"/></g><circle cx="11" cy="23" r="1" fill="#001d6c"/><circle cx="11" cy="15" r="1" fill="#001d6c"/><circle cx="11" cy="7" r="1" fill="#001d6c"/><path fill="#001d6c" d="M18 20h12v2H18zm0 4h12v2H18zm0 4h6v2h-6z"/></g></g></svg>