<svg id="test" xmlns="http://www.w3.org/2000/svg" xmlns:xlink="http://www.w3.org/1999/xlink" viewBox="0 0 32 32"><defs><linearGradient id="8vthi5cota" x1="-1438.71" y1="692.595" x2="-1423.396" y2="692.595" gradientTransform="matrix(-1 0 0 1 -1414.582 -665.093)" gradientUnits="userSpaceOnUse"><stop offset=".393"/><stop offset="1" stop-opacity="0"/></linearGradient><linearGradient id="w2o8uh1glb" x1="180.467" y1="-2151.595" x2="195.781" y2="-2151.595" gradientTransform="matrix(1 0 0 -1 -172.582 -2147.093)" xlink:href="#8vthi5cota"/><linearGradient id="1xsrlfdsmc" x1="-1853.116" y1="-1198.436" x2="-1849.537" y2="-1198.436" gradientTransform="matrix(1 0 0 -1.999 1869.753 -2379.371)" xlink:href="#8vthi5cota"/><linearGradient id="zp9ueujmle" x1="0" y1="32" x2="32" y2="0" gradientUnits="userSpaceOnUse"><stop offset=".1" stop-color="#08bdba"/><stop offset=".9" stop-color="#0f62fe"/></linearGradient><mask id="iqnzgowk5d" x="0" y="0" width="32" height="32" maskUnits="userSpaceOnUse"><path d="M13.006 4.402c1-.3 2-.4 3-.4 6.6 0 12 5.4 12 12 0 3.3-1.3 6.3-3.5 8.5l1.4 1.4c2.5-2.5 4.1-6 4.1-9.9 0-7.7-6.3-14-14-14-1 0-2 .1-3 .3v2.1zM19.006 27.602c-1 .2-2 .4-3 .4-6.6 0-12-5.4-12-12 0-3.3 1.3-6.3 3.5-8.5l-1.4-1.4c-2.5 2.5-4.1 6-4.1 9.9 0 7.7 6.3 14 14 14 1 0 2-.1 3-.3v-2.1z" style="fill:#fff"/><path id="BottomMask" d="M8.006 24.002v7h12v-4l-12-3z" style="fill:url(#8vthi5cota)"/><path id="TopMask" d="M24.006 8.002v-7h-12v4l12 3z" style="fill:url(#w2o8uh1glb)"/><g><path d="M21.022 10.004h-4.005v1.999h4V15h-4.134v2.007h4.134v3h-4v1.999h4.005a1.995 1.995 0 0 0 1.995-1.995v-8.012a1.995 1.995 0 0 0-1.995-1.995z" style="fill:#fff"/><path style="fill:url(#1xsrlfdsmc)" d="M16.637 14.005h3.579v3.998h-3.579z"/></g></mask></defs><g style="mask:url(#iqnzgowk5d)"><path style="fill:url(#zp9ueujmle)" d="M0 0h32v32H0z"/></g><rect x="22.006" y="26.007" width="2" height="2" rx="1" ry="1" style="fill:#001d6c"/><rect x="8.006" y="4.007" width="2" height="2" rx="1" ry="1" style="fill:#001d6c"/><path d="M11.018 20.007v-8.005h3.999v-1.999h-4.004a1.995 1.995 0 0 0-1.995 1.995v8.012c0 1.102.893 1.995 1.995 1.995h4.016v-1.999h-4.011z" style="fill:#001d6c"/><rect x="15.006" y="15.002" width="2" height="2" rx="1" ry="1" style="fill:#001d6c"/></svg>