<svg id="PowerVMRecoveryManager" xmlns="http://www.w3.org/2000/svg" xmlns:xlink="http://www.w3.org/1999/xlink" viewBox="0 0 32 32"><defs><linearGradient id="w4puo2fs0a" x1="-1438.706" y1="692.593" x2="-1423.391" y2="692.593" gradientTransform="matrix(-1 0 0 1 -1414.582 -665.093)" gradientUnits="userSpaceOnUse"><stop offset=".393"/><stop offset="1" stop-opacity="0"/></linearGradient><linearGradient id="i419mgie4b" x1="180.462" y1="-2151.593" x2="195.777" y2="-2151.593" gradientTransform="matrix(1 0 0 -1 -172.582 -2147.093)" xlink:href="#w4puo2fs0a"/><linearGradient id="yrghen5n4c" x1="-833.323" y1="-1510.73" x2="-829.323" y2="-1510.73" gradientTransform="matrix(1.297 0 0 1.347 1096.124 2055.328)" xlink:href="#w4puo2fs0a"/><linearGradient id="fc083r58vd" x1="422.005" y1="-2554.988" x2="425.828" y2="-2557.196" gradientTransform="matrix(.84299 .49977 -.4868 .86579 -1589.205 2013.67)" gradientUnits="userSpaceOnUse"><stop offset=".2"/><stop offset="1" stop-opacity="0"/></linearGradient><linearGradient id="sytm3x65bf" x1="0" y1="32" x2="32" y2="0" gradientUnits="userSpaceOnUse"><stop offset=".1" stop-color="#08bdba"/><stop offset=".9" stop-color="#0f62fe"/></linearGradient><mask id="awfj7318ve" x="0" y="0" width="32" height="32" maskUnits="userSpaceOnUse"><path d="M13.002 4.401c1-.3 2-.4 3-.4 6.6 0 12 5.4 12 12 0 3.3-1.3 6.3-3.5 8.5l1.4 1.4c2.5-2.5 4.1-6 4.1-9.9 0-7.7-6.3-14-14-14-1 0-2 .1-3 .3v2.1zM19.002 27.601c-1 .2-2 .4-3 .4-6.6 0-12-5.4-12-12 0-3.3 1.3-6.3 3.5-8.5l-1.4-1.4c-2.5 2.5-4.1 6-4.1 9.9 0 7.7 6.3 14 14 14 1 0 2-.1 3-.3v-2.1z" style="fill:#fff"/><path id="BottomMask" d="M8.002 24.001v7h12v-4l-12-3z" style="fill:url(#w4puo2fs0a)"/><path id="TopMask" d="M24.002 8.001v-7h-12v4l12 3z" style="fill:url(#i419mgie4b)"/><g><path d="m17.13 23.304 6.362-6.361a2.007 2.007 0 0 0 0-2.833l-2.119-2.119-1.414 1.414 2.119 2.124-6.362 6.361 1.414 1.414z" style="fill:#fff"/><path transform="rotate(-45 18.24 20.747)" style="fill:url(#yrghen5n4c)" d="M15.647 19.4h5.186v2.693h-5.186z"/><path d="m14.88 8.708-6.362 6.361a2.007 2.007 0 0 0 0 2.833l2.119 2.119 1.414-1.414-2.119-2.124 6.362-6.361-1.414-1.414z" style="fill:#fff"/><g><path transform="rotate(135 12.937 11.987)" style="fill:url(#fc083r58vd)" d="M10.787 10.438h4.3v3.098h-4.3z"/><path transform="rotate(135 14.943 9.981)" d="M14.166 8.432h1.553v3.098h-1.553z"/></g></g></mask></defs><g style="fill:none;mask:url(#awfj7318ve)"><path style="fill:url(#sytm3x65bf)" d="M0 0h32v32H0z"/></g><rect x="22.01" y="25.999" width="2" height="2" rx="1" ry="1" style="fill:#001d6c"/><rect x="8.01" y="3.999" width="2" height="2" rx="1" ry="1" style="fill:#001d6c"/><path style="fill:#001d6c" d="M15.003 9.999v3h2v-5H12.01v2h2.993M17.01 22.01v-3.011h-2v5.011h5v-2h-3"/></svg>