<svg id="private-network-connections" xmlns="http://www.w3.org/2000/svg" viewBox="0 0 32 32"><defs><linearGradient id="xo30blm35a" x1="6039" y1="-6506.5" x2="6046" y2="-6506.5" gradientTransform="translate(-6035 6523)" gradientUnits="userSpaceOnUse"><stop offset=".2"/><stop offset=".99" stop-opacity="0"/></linearGradient><linearGradient id="h9pgagdh8b" x1="6022" y1="-6505.5" x2="6029" y2="-6505.5" gradientTransform="translate(-6001 6521)" gradientUnits="userSpaceOnUse"><stop offset=".01" stop-opacity="0"/><stop offset=".8"/></linearGradient><linearGradient id="h9zsc49xyd" x1="0" y1="32" x2="32" y2="0" gradientUnits="userSpaceOnUse"><stop offset=".1" stop-color="#00c0ba"/><stop offset=".9" stop-color="#0064ff"/></linearGradient><mask id="r1o8pob0lc" x="0" y="0" width="32" height="32" maskUnits="userSpaceOnUse"><path d="M23 23v3H8.5C6.019 26 4 23.981 4 21.5S6.019 17 8.5 17H10v-2H8.5C4.916 15 2 17.916 2 21.5S4.916 28 8.5 28H23v3h8v-8h-8zm6 6h-4v-4h4v4zM23.5 4H9V1H1v8h8V6h14.5c2.481 0 4.5 2.019 4.5 4.5S25.981 15 23.5 15H22v2h1.5c3.584 0 6.5-2.916 6.5-6.5S27.084 4 23.5 4zM7 7H3V3h4v4z" style="fill:#fff"/><path transform="rotate(180 7.5 16.5)" style="fill:url(#xo30blm35a)" d="M4 12h7v9H4z"/><path transform="rotate(180 24.5 15.5)" style="fill:url(#h9pgagdh8b)" d="M21 11h7v9h-7z"/></mask></defs><g style="mask:url(#r1o8pob0lc)"><path style="fill:url(#h9zsc49xyd)" d="M0 0h32v32H0z"/></g><path d="M20 15h-1v-2c0-1.7-1.3-3-3-3s-3 1.3-3 3v2h-1c-.6 0-1 .4-1 1v5c0 .6.4 1 1 1h8c.6 0 1-.4 1-1v-5c0-.6-.4-1-1-1zm-5-2c0-.6.4-1 1-1s1 .4 1 1v2h-2v-2zm4 7h-6v-3h6v3z" style="fill:#001e71"/></svg>