<svg id="RedHatAIInferenceOnIBMCloud" xmlns="http://www.w3.org/2000/svg" viewBox="0 0 32 32"><defs><linearGradient id="00nxunmlca" x1="1887.299" y1="-1371.609" x2="1909.917" y2="-1357.691" gradientTransform="matrix(.518 0 0 1.294 -973.707 1791.047)" gradientUnits="userSpaceOnUse"><stop offset=".088" stop-opacity="0"/><stop offset=".804"/></linearGradient><linearGradient id="592xn9vq7c" data-name="New Gradient Swatch" x1="0" y1="32" x2="32" y2="0" gradientUnits="userSpaceOnUse"><stop offset=".1" stop-color="#ff4296"/><stop offset=".9" stop-color="#9439ff"/></linearGradient><mask id="eqrpwinanb" x="0" y="0" width="32" height="32" maskUnits="userSpaceOnUse"><path d="M16 30C8.28 30 2 23.72 2 16S8.28 2 16 2s14 6.28 14 14-6.28 14-14 14zm0-26C9.383 4 4 9.383 4 16s5.383 12 12 12 12-5.383 12-12S22.617 4 16 4z" style="fill:#fff"/><path style="fill:url(#00nxunmlca)" d="M4 19h13v12H4z"/></mask></defs><g style="mask:url(#eqrpwinanb)"><path style="fill:url(#592xn9vq7c)" d="M0 0h32v32H0z"/></g><path d="M17 8h-2c0 3.86-3.141 7-7 7v2c3.859 0 7 3.14 7 7h2c0-3.86 3.141-7 7-7v-2c-3.859 0-7-3.14-7-7zm-1 11.895a9.054 9.054 0 0 0-3.896-3.896A9.054 9.054 0 0 0 16 12.103a9.054 9.054 0 0 0 3.896 3.896A9.054 9.054 0 0 0 16 19.895z" style="fill:#001e71"/></svg>