<svg id="RForSPSSStatistics" xmlns="http://www.w3.org/2000/svg" viewBox="0 0 32 32"><defs><linearGradient id="o3q6178rca" x1="7" y1="27" x2="7" y2="5" gradientUnits="userSpaceOnUse"><stop offset="0" stop-color="#b88bfc"/><stop offset="1" stop-color="#4189fb" stop-opacity="0"/></linearGradient><linearGradient id="3w5idn1kfb" x1="23.859" y1="28.499" x2="17.031" y2="16.673" gradientUnits="userSpaceOnUse"><stop offset=".1" stop-color="#b98cfd"/><stop offset="1" stop-color="#418afc" stop-opacity="0"/></linearGradient><linearGradient id="2mdyanh3wc" x1="667.5" y1="19" x2="667.5" y2="2" gradientTransform="matrix(-1 0 0 1 685 0)" gradientUnits="userSpaceOnUse"><stop offset="0" stop-color="#b88bfc"/><stop offset="1" stop-color="#4189fb"/></linearGradient></defs><path d="M7 8a3 3 0 0 1-3-3v22h6V8H7z" style="fill:url(#o3q6178rca)"/><path d="M19.5 19h-6.499l9.854 10.078 4.29-4.195-5.924-6.058a8.493 8.493 0 0 1-1.721.176z" style="fill:url(#3w5idn1kfb)"/><path style="fill:none" d="M0 0h32v32H0z"/><circle cx="7" cy="27" r="3" style="fill:#001d6c"/><circle cx="25" cy="27" r="3" style="fill:#001d6c"/><path d="M19.5 19H13v-6h6.5c1.378 0 2.5-1.121 2.5-2.5S20.878 8 19.5 8H7V2h12.5c4.687 0 8.5 3.813 8.5 8.5S24.187 19 19.5 19z" style="fill:url(#2mdyanh3wc)"/><circle cx="7" cy="5" r="3" style="fill:#001d6c"/><circle cx="13" cy="16" r="3" style="fill:#001d6c"/></svg>