<svg data-name="Build icon here" xmlns="http://www.w3.org/2000/svg" viewBox="0 0 32 32"><defs><linearGradient id="duf0zheh3a" x1="-467.189" y1="-166.146" x2="-460.189" y2="-166.146" gradientTransform="translate(479.689 193.646)" gradientUnits="userSpaceOnUse"><stop offset="0" stop-opacity="0"/><stop offset=".85"/></linearGradient><linearGradient id="3rot3irljc" y1="32" x2="32" gradientUnits="userSpaceOnUse"><stop offset=".1" stop-color="#08bdba"/><stop offset=".9" stop-color="#0f62fe"/></linearGradient><mask id="oyxsq2co2b" x="0" y="0" width="32" height="32" maskUnits="userSpaceOnUse"><path d="M26 20h-5v-2h1a2 2 0 0 0 2-2v-4h2v-2h-2V8a2 2 0 0 0-2-2h-2V2h-2v4h-4V2h-2v4h-2a2 2 0 0 0-2 2v2H6v2h2v4a2 2 0 0 0 2 2h1v2H6a2 2 0 0 0-2 2v8h2v-8h20v8h2v-8a2 2 0 0 0-2-2zM10 8h12v8H10zm3 10h6v2h-6z" fill="#fff"/><path transform="rotate(90 16 27.5)" fill="url(#duf0zheh3a)" d="M12.5 14.5h7v26h-7z"/></mask></defs><g mask="url(#oyxsq2co2b)"><path fill="url(#3rot3irljc)" d="M0 0h32v32H0z"/></g><path fill="#001d6c" d="M18 10h2v2h-2zm-6 0h2v2h-2z"/></svg>