<svg id="Build_icon_here" data-name="Build icon here" xmlns="http://www.w3.org/2000/svg" viewBox="0 0 32 32"><defs><linearGradient id="okb8ffkyka" x1="12.5" y1="30" x2="12.5" y2="1" gradientUnits="userSpaceOnUse"><stop offset=".04" stop-color="#fff" stop-opacity="0"/><stop offset=".3" stop-color="#fff"/></linearGradient><linearGradient id="gdj5re5l3c" y1="32" x2="32" gradientUnits="userSpaceOnUse"><stop offset=".1" stop-color="#a56eff"/><stop offset=".9" stop-color="#0f62fe"/></linearGradient><mask id="rqemor157b" x="0" y="0" width="32" height="32" maskUnits="userSpaceOnUse"><path d="M23 8h-2V6a2 2 0 0 0-2-2h-2V1h-2v3h-3V1h-2v3H8a2 2 0 0 0-2 2v2H4v2h2v4a2 2 0 0 0 2 2h1v2H4a2 2 0 0 0-2 2v10h2V20h14v-4h1a2 2 0 0 0 2-2v-4h2zm-7 10h-5v-2h5zm-8-4V6h11v8z" style="fill:url(#okb8ffkyka)"/><path style="fill:#fff" d="M10 8h2v2h-2zm5 0h2v2h-2z"/></mask></defs><g style="mask:url(#rqemor157b)"><path style="fill:url(#gdj5re5l3c)" d="M0 0h32v32H0z"/></g><path style="fill:#001d6c" d="M22 18v2h4.586L18 28.586 19.414 30 28 21.414V26h2v-8h-8z"/></svg>