<svg id="Build_icon_here" data-name="Build icon here" xmlns="http://www.w3.org/2000/svg" viewBox="0 0 32 32"><defs><linearGradient id="02zivy3joa" x1="12.5" y1="30" x2="12.5" y2="1" gradientUnits="userSpaceOnUse"><stop offset=".04" stop-color="#fff" stop-opacity="0"/><stop offset=".3" stop-color="#fff"/></linearGradient><linearGradient id="3wrron7m4c" y1="32" x2="32" gradientUnits="userSpaceOnUse"><stop offset=".1" stop-color="#42be65"/><stop offset=".9" stop-color="#007d79"/></linearGradient><mask id="j4wffcg3tb" x="0" y="0" width="32" height="32" maskUnits="userSpaceOnUse"><path d="M23 8h-2V6a2 2 0 0 0-2-2h-2V1h-2v3h-3V1h-2v3H8a2 2 0 0 0-2 2v2H4v2h2v4a2 2 0 0 0 2 2h1v2H4a2 2 0 0 0-2 2v10h2V20h14v-4h1a2 2 0 0 0 2-2v-4h2zm-7 10h-5v-2h5zm-8-4V6h11v8z" style="fill:url(#02zivy3joa)"/><path style="fill:#fff" d="M10 8h2v2h-2zm5 0h2v2h-2z"/></mask></defs><g style="mask:url(#j4wffcg3tb)"><path style="fill:url(#3wrron7m4c)" d="M0 0h32v32H0z"/></g><path d="m29.707 19.293-3-3a1 1 0 0 0-1.414 0L16 25.586V30h4.414l9.293-9.293a1 1 0 0 0 0-1.414zM19.586 28H18v-1.586l5-5L24.586 23zM26 21.586 24.414 20 26 18.414 27.586 20z" style="fill:#001d6c"/></svg>