<svg id="SaaSConsole" xmlns="http://www.w3.org/2000/svg" xmlns:xlink="http://www.w3.org/1999/xlink" viewBox="0 0 32 32"><defs><linearGradient id="ejrs6irt8a" x1="4511.25" y1="-4503.25" x2="4500.75" y2="-4513.75" gradientTransform="matrix(1 0 0 -1 -4485.5 -4501.5)" gradientUnits="userSpaceOnUse"><stop offset=".27"/><stop offset=".8" stop-opacity="0"/></linearGradient><linearGradient id="7d2dj7zf4b" x1="-4628.451" y1="-4586.951" x2="-4635.549" y2="-4591.049" gradientTransform="matrix(1 0 0 -1 4636 -4564)" xlink:href="#ejrs6irt8a"/><linearGradient id="w3dfdpg46d" x1="0" y1="32" x2="32" y2="0" gradientUnits="userSpaceOnUse"><stop offset=".1" stop-color="#08bdba"/><stop offset=".9" stop-color="#0f62fe"/></linearGradient><mask id="dtyipw6fgc" x="0" y="0" width="32" height="32" maskUnits="userSpaceOnUse"><path d="M16 4a11.963 11.963 0 0 0-8.481 3.519l1.413 1.413A9.969 9.969 0 0 1 16 6c3.64 0 6.823 1.961 8.572 4.877l1.63-1.164C24.086 6.292 20.31 4 16 4z" style="fill:#fff"/><path transform="rotate(90 20.5 7)" style="fill:url(#ejrs6irt8a)" d="M16.5.5h8v13h-8z"/><g><path d="M8 28a8.029 8.029 0 0 1-6.929-3.999L2.802 23c1.07 1.851 3.062 3 5.197 3s4.127-1.149 5.197-3l3.865-6.985C18.497 13.532 21.152 12 23.999 12s5.502 1.532 6.929 3.999L29.197 17c-1.07-1.851-3.062-3-5.197-3s-4.127 1.149-5.197 3l-3.865 6.985A8.035 8.035 0 0 1 8 28z" style="fill:#fff"/><path transform="rotate(-90 4 25)" style="fill:url(#7d2dj7zf4b)" d="M1 22h6v6H1z"/></g></mask></defs><g style="mask:url(#dtyipw6fgc)"><path style="fill:url(#w3dfdpg46d)" d="M0 0h32v32H0z"/></g><circle cx="2" cy="20" r="1" style="fill:#001971"/><circle cx="30" cy="20" r="1" style="fill:#001971"/><path d="M8 12a7.992 7.992 0 0 0-6.923 4.003l1.733 1A6 6 0 0 1 8 14a6 6 0 0 1 5.19 3.003l1.733-1A7.989 7.989 0 0 0 8 12zM24 26a6 6 0 0 1-5.19-3.003l-1.733 1C18.46 26.388 21.039 28 24 28s5.539-1.613 6.923-4.003l-1.733-1A6 6 0 0 1 24 26z" style="fill:#001971"/></svg>