<svg id="SAPNetWeaverwithAnyDB" xmlns="http://www.w3.org/2000/svg" xmlns:xlink="http://www.w3.org/1999/xlink" viewBox="0 0 32 32"><defs><linearGradient id="okgr6vh5ha" x1="-1853.721" y1="-2506.384" x2="-1853.721" y2="-2526" gradientTransform="matrix(1.06 0 0 -.491 1972.313 -1231.611)" gradientUnits="userSpaceOnUse"><stop offset="0"/><stop offset=".8" stop-opacity="0"/></linearGradient><linearGradient id="pnttf9m5sb" x1="328.502" y1="-6765.647" x2="328.502" y2="-6785.263" gradientTransform="matrix(1.06 0 0 .515 -339.966 3513.25)" xlink:href="#okgr6vh5ha"/><linearGradient id="o9yn8ilj9c" x1="-953.266" y1="-2828.659" x2="-953.266" y2="-2838.533" gradientTransform="matrix(1.06 0 0 -.669 1037.218 -1876.439)" xlink:href="#okgr6vh5ha"/><linearGradient id="fcjxrzh4xd" x1="-1923.25" y1="-2620.29" x2="-1923.25" y2="-2627.884" gradientTransform="matrix(1.06 0 0 .669 2048.091 1782.364)" xlink:href="#okgr6vh5ha"/><linearGradient id="41gleau2re" x1="-1915.802" y1="-3191.294" x2="-1915.802" y2="-3198.889" gradientTransform="matrix(1.06 0 0 .669 2043.48 2141.128)" xlink:href="#okgr6vh5ha"/><linearGradient id="sy92zz0jbg" x1="0" y1="32" x2="32" y2="0" gradientUnits="userSpaceOnUse"><stop offset=".1" stop-color="#08bdba"/><stop offset=".9" stop-color="#0f62fe"/></linearGradient><mask id="d4dtbxxxzf" x="0" y="-1.309" width="32" height="33.309" maskUnits="userSpaceOnUse"><path d="M15.982 30c-7.72 0-14-6.28-14-14s6.281-14 14-14 14 6.28 14 14-6.28 14-14 14zm0-26c-6.617 0-12 5.383-12 12s5.383 12 12 12 12-5.383 12-12-5.383-12-12-12z" style="fill:#fff"/><path d="M30.691 30.708H11.729l3-8.708 10.465.01 5.577-.02-.08 8.718zM7 20.506 1 26V4l5.996 6L7 20.506zM16.003 1h14.999v13.032H16.003z"/><path transform="rotate(-135 8.155 4.346)" style="fill:url(#okgr6vh5ha)" d="M4.977-.472h6.357v9.635H4.977z"/><path transform="rotate(135 8.106 25.344)" style="fill:url(#pnttf9m5sb)" d="M4.928 20.295h6.357v10.098H4.928z"/><path transform="rotate(180 27.161 18.863)" style="fill:url(#o9yn8ilj9c)" d="M23.982 15.561h6.357v6.604h-6.357z"/><path transform="rotate(-70.79 10.262 27.195)" style="fill:url(#fcjxrzh4xd)" d="M7.084 24.655h6.357v5.08H7.084z"/><path transform="rotate(-90 13.543 4.032)" style="fill:url(#41gleau2re)" d="M10.364 1.492h6.357v5.08h-6.357z"/><g><path d="M29 31H16c-1.103 0-2-.897-2-2v-4c0-1.103.897-2 2-2h13c1.103 0 2 .897 2 2v4c0 1.103-.897 2-2 2zm-13-6v4h13.001v-4H16z" style="fill:#fff"/><circle cx="19" cy="27" r="1" style="fill:#fff"/></g><path d="M10.991 12c0-1.71-2.149-3-5-3s-5 1.29-5 3v6c0 1.71 2.149 3 5 3s5-1.29 5-3h.018v-6h-.018zm-5-1c1.936 0 3 .751 3 1s-1.064 1-3 1-3-.751-3-1 1.064-1 3-1zm3 7c0 .249-1.064 1-3 1s-3-.751-3-1v-3.579c.826.362 1.851.579 3 .579 1.158 0 2.188-.221 3.018-.588V18h-.018z" style="fill:#fff"/></mask></defs><g style="mask:url(#d4dtbxxxzf)"><path style="fill:url(#sy92zz0jbg)" d="M0 0h32v32H0z"/></g><path d="M25.462 12H19a1 1 0 0 1-1-1V4.035a1 1 0 0 1 .997-1l12-.035H31a1 1 0 0 1 .784 1.621l-5.538 7a.998.998 0 0 1-.784.379zM20 10h4.978l3.951-4.994L20 5.032V10z" style="fill:#001d6c"/></svg>