<svg id="SAPonPower" xmlns="http://www.w3.org/2000/svg" xmlns:xlink="http://www.w3.org/1999/xlink" viewBox="0 0 32 32"><defs><linearGradient id="0wpo6wkqwa" x1="-1855.208" y1="-2502.563" x2="-1855.208" y2="-2522.179" gradientTransform="matrix(1.06 0 0 -.491 1973.676 -1227.293)" gradientUnits="userSpaceOnUse"><stop offset="0"/><stop offset=".8" stop-opacity="0"/></linearGradient><linearGradient id="p80v0c02vb" x1="328.502" y1="-6765.647" x2="328.502" y2="-6785.263" gradientTransform="matrix(1.06 0 0 .515 -339.967 3513.25)" xlink:href="#0wpo6wkqwa"/><linearGradient id="dk02w5t0yc" x1="-953.266" y1="-2828.659" x2="-953.266" y2="-2838.533" gradientTransform="matrix(1.06 0 0 -.669 1037.218 -1876.439)" xlink:href="#0wpo6wkqwa"/><linearGradient id="on1z4oq6ed" x1="-1923.25" y1="-2620.29" x2="-1923.25" y2="-2627.885" gradientTransform="matrix(1.06 0 0 .669 2048.091 1782.364)" xlink:href="#0wpo6wkqwa"/><linearGradient id="dl49w9awge" x1="-1915.802" y1="-3191.295" x2="-1915.802" y2="-3198.889" gradientTransform="matrix(1.06 0 0 .669 2043.48 2141.128)" xlink:href="#0wpo6wkqwa"/><linearGradient id="zb6cuentlg" x1="0" y1="32" x2="32" y2="0" gradientUnits="userSpaceOnUse"><stop offset=".1" stop-color="#08bdba"/><stop offset=".9" stop-color="#0f62fe"/></linearGradient><mask id="8nsgqqbpcf" x="0" y="0" width="32" height="32" maskUnits="userSpaceOnUse"><path d="M15.982 30c-7.72 0-14-6.28-14-14s6.281-14 14-14 14 6.28 14 14-6.28 14-14 14zm0-26c-6.617 0-12 5.383-12 12s5.383 12 12 12 12-5.383 12-12-5.383-12-12-12z" style="fill:#fff"/><path d="M30.691 30.708H11.729l3-8.708 10.465.011 5.577-.021-.08 8.718zM6.982 20l-6 5.494V6.807l6 5.015V20zM16.003 1h14.999v13.032H16.003z"/><path transform="rotate(-135 7.943 6.787)" style="fill:url(#0wpo6wkqwa)" d="M4.764 1.97h6.357v9.635H4.764z"/><path transform="rotate(135 8.106 25.344)" style="fill:url(#p80v0c02vb)" d="M4.928 20.295h6.357v10.098H4.928z"/><path transform="rotate(180 27.161 18.863)" style="fill:url(#dk02w5t0yc)" d="M23.982 15.561h6.357v6.604h-6.357z"/><path transform="rotate(-70.79 10.262 27.195)" style="fill:url(#on1z4oq6ed)" d="M7.084 24.655h6.357v5.08H7.084z"/><path d="M8.982 20.98h-6c-1.103 0-2-.897-2-2v-6c0-1.103.897-2 2-2h6c1.103 0 2 .897 2 2v6c0 1.103-.897 2-2 2zm-6-8v6h6.001v-6H2.982zM29.002 31h-13c-1.103 0-2-.897-2-2v-4c0-1.103.897-2 2-2h13c1.103 0 2 .897 2 2v4c0 1.103-.897 2-2 2zm-13-6v4h13.001v-4H16.002z" style="fill:#fff"/><circle cx="19.002" cy="27" r="1" style="fill:#fff"/><path transform="rotate(-90 13.543 4.032)" style="fill:url(#dl49w9awge)" d="M10.364 1.492h6.357v5.08h-6.357z"/></mask></defs><g style="mask:url(#8nsgqqbpcf)"><path style="fill:url(#zb6cuentlg)" d="M0 0h32v32H0z"/></g><path d="M25.462 12H19a1 1 0 0 1-1-1V4.035a1 1 0 0 1 .997-1l12-.035H31a1 1 0 0 1 .784 1.621l-5.538 7a.998.998 0 0 1-.784.379zM20 10h4.978l3.951-4.994L20 5.032V10z" style="fill:#001d6c"/></svg>