<svg xmlns="http://www.w3.org/2000/svg" xmlns:xlink="http://www.w3.org/1999/xlink" viewBox="0 0 32 32">
  <defs>
    <linearGradient id="a55537f7-0779-4401-a209-74628142fde3" x1="6" y1="25.5" x2="27" y2="25.5" gradientUnits="userSpaceOnUse">
      <stop offset="0.1" stop-opacity="0"/>
      <stop offset="0.75"/>
    </linearGradient>
    <mask id="bed8cd35-c8a3-4a94-9dcd-dd2766922ba4" x="0" y="0" width="32" height="32" maskUnits="userSpaceOnUse">
      <g>
        <path d="M15,29a9.011,9.011,0,0,1-9-9V7.618l9-4.5,11,5.5V6.382L15,.882,4,6.382V20a11,11,0,0,0,22,0H24A9.011,9.011,0,0,1,15,29Z" fill="#fff"/>
        <rect x="6" y="19" width="21" height="13" fill="url(#a55537f7-0779-4401-a209-74628142fde3)"/>
      </g>
    </mask>
    <linearGradient id="b90da838-bcd0-49bf-8463-e56cebb03d47" y1="32" x2="32" gradientUnits="userSpaceOnUse">
      <stop offset="0.2" stop-color="#8a3ffc"/>
      <stop offset="0.8" stop-color="#30b0ff"/>
    </linearGradient>
  </defs>
  <g id="b13514b5-bb7a-4466-865c-574d619c4845" data-name="Layer 2">
    <g id="a48ed890-691a-4bd8-8072-3b9f16fc3216" data-name="Light theme icons">
      <g>
        <g mask="url(#bed8cd35-c8a3-4a94-9dcd-dd2766922ba4)">
          <rect width="32" height="32" fill="url(#b90da838-bcd0-49bf-8463-e56cebb03d47)"/>
        </g>
        <path d="M26.9,23.7,21.874,13.646a1,1,0,0,0-1.789,0l-5,10a1,1,0,0,0,.894,1.447h10A1,1,0,0,0,26.9,23.7Zm-6.6-7.111h1.5v4H20.3Zm.75,7a1,1,0,1,1,1-1A1,1,0,0,1,21.05,23.593Z" fill="#001d6c"/>
      </g>
    </g>
  </g>
</svg>
