<svg xmlns="http://www.w3.org/2000/svg" viewBox="0 0 32 32"><defs><linearGradient id="q6co3w3qka" x1="6" y1="25.5" x2="27" y2="25.5" gradientUnits="userSpaceOnUse"><stop offset=".1" stop-opacity="0"/><stop offset=".75"/></linearGradient><linearGradient id="c9pp5ctlfc" y1="32" x2="32" gradientUnits="userSpaceOnUse"><stop offset=".2" stop-color="#8a3ffc"/><stop offset=".8" stop-color="#30b0ff"/></linearGradient><mask id="jtbo26zuub" x="0" y="0" width="32" height="32" maskUnits="userSpaceOnUse"><path d="M15 29a9.011 9.011 0 0 1-9-9V7.618l9-4.5 11 5.5V6.382l-11-5.5-11 5.5V20a11 11 0 0 0 22 0h-2a9.011 9.011 0 0 1-9 9z" fill="#fff"/><path fill="url(#q6co3w3qka)" d="M6 19h21v13H6z"/></mask></defs><g data-name="Layer 2"><g data-name="Light theme icons"><g mask="url(#jtbo26zuub)"><path fill="url(#c9pp5ctlfc)" d="M0 0h32v32H0z"/></g><path d="M16 15h12v2H16zm0 4h12v2H16zm0 4h6v2h-6z" fill="#001d6c"/></g></g></svg>