<svg id="VerifyCredentials" xmlns="http://www.w3.org/2000/svg" viewBox="0 0 32 32"><defs><linearGradient id="sf4zvtghca" x1="6" y1="25.5" x2="27" y2="25.5" gradientUnits="userSpaceOnUse"><stop offset=".1" stop-opacity="0"/><stop offset=".75"/></linearGradient><linearGradient id="9jnpngassc" x1="0" y1="32" x2="32" y2="0" gradientUnits="userSpaceOnUse"><stop offset=".2" stop-color="#8a3ffc"/><stop offset=".8" stop-color="#30b0ff"/></linearGradient><mask id="46q7st9sub" x="0" y="0" width="32" height="32" maskUnits="userSpaceOnUse"><path d="M15 29c-4.962 0-9-4.038-9-9V7.618l9-4.5 11 5.5V6.382l-11-5.5-11 5.5V20c0 6.065 4.935 11 11 11s11-4.935 11-11h-2c0 4.962-4.038 9-9 9z" style="fill:#fff;stroke-width:0"/><path style="fill:url(#sf4zvtghca);stroke-width:0" d="M6 19h21v13H6z"/></mask></defs><g style="mask:url(#46q7st9sub)"><path style="fill:url(#9jnpngassc);stroke-width:0" d="M0 0h32v32H0z"/></g><path d="M26 12h-8a2 2 0 0 0-2 2v10a2 2 0 0 0 2 2h8a2 2 0 0 0 2-2V14a2 2 0 0 0-2-2zm-4 2a2.5 2.5 0 1 1 0 5 2.5 2.5 0 0 1 0-5zm4 10h-8v-2a2 2 0 0 1 2-2h4a2 2 0 0 1 2 2v2z" style="fill:#001d6c;stroke-width:0"/></svg>