<svg xmlns="http://www.w3.org/2000/svg" viewBox="0 0 32 32"><defs><linearGradient id="SecurityServices_svg__a" x1="6" y1="25.5" x2="27" y2="25.5" gradientUnits="userSpaceOnUse"><stop offset=".1" stop-opacity="0"/><stop offset=".75"/></linearGradient><linearGradient id="SecurityServices_svg__c" y1="32" x2="32" gradientUnits="userSpaceOnUse"><stop offset=".2" stop-color="#8a3ffc"/><stop offset=".8" stop-color="#30b0ff"/></linearGradient><mask id="SecurityServices_svg__b" x="0" y="0" width="32" height="32" maskUnits="userSpaceOnUse"><path d="M15 29a9.011 9.011 0 01-9-9V7.618l9-4.5 11 5.5V6.382l-11-5.5-11 5.5V20a11 11 0 0022 0h-2a9.011 9.011 0 01-9 9z" fill="#fff"/><path fill="url(#SecurityServices_svg__a)" d="M6 19h21v13H6z"/></mask></defs><g data-name="Layer 2"><g data-name="Light theme icons"><g mask="url(#SecurityServices_svg__b)"><path fill="url(#SecurityServices_svg__c)" d="M0 0h32v32H0z"/></g><path d="M25 20a2.964 2.964 0 00-1.855.661L21 19.422v-1.606a3 3 0 10-2 0v1.606l-2.145 1.239A2.964 2.964 0 0015 20a3 3 0 103 3 2.937 2.937 0 00-.075-.647L20 21.155l2.075 1.2A2.937 2.937 0 0022 23a3 3 0 103-3zm-10 4a1 1 0 111-1 1 1 0 01-1 1zm5-10a1 1 0 11-1 1 1 1 0 011-1zm5 10a1 1 0 111-1 1 1 0 01-1 1z" fill="#001d6c"/></g></g></svg>