<svg xmlns="http://www.w3.org/2000/svg" xmlns:xlink="http://www.w3.org/1999/xlink" viewBox="0 0 32 32">
  <defs>
    <linearGradient id="a6374422-5752-4d49-9fe9-bc459fa54bcf" x1="6" y1="25.5" x2="27" y2="25.5" gradientUnits="userSpaceOnUse">
      <stop offset="0.1" stop-opacity="0"/>
      <stop offset="0.75"/>
    </linearGradient>
    <mask id="b028afce-b347-453e-85de-b4b83bb339f9" x="0" y="0" width="32" height="32" maskUnits="userSpaceOnUse">
      <g>
        <path d="M15,29a9.011,9.011,0,0,1-9-9V7.618l9-4.5,11,5.5V6.382L15,.882,4,6.382V20a11,11,0,0,0,22,0H24A9.011,9.011,0,0,1,15,29Z" fill="#fff"/>
        <rect x="6" y="19" width="21" height="13" fill="url(#a6374422-5752-4d49-9fe9-bc459fa54bcf)"/>
      </g>
    </mask>
    <linearGradient id="a3008485-a0e0-41d0-a0cd-9292eb621465" y1="32" x2="32" gradientUnits="userSpaceOnUse">
      <stop offset="0.2" stop-color="#8a3ffc"/>
      <stop offset="0.8" stop-color="#30b0ff"/>
    </linearGradient>
  </defs>
  <g id="bf3fb036-5c0b-452f-ad61-3e46d2936708" data-name="Layer 2">
    <g id="e59d0a8c-6df2-4ede-9549-7ec28a7d179a" data-name="Light theme icons">
      <g>
        <g mask="url(#b028afce-b347-453e-85de-b4b83bb339f9)">
          <rect width="32" height="32" fill="url(#a3008485-a0e0-41d0-a0cd-9292eb621465)"/>
        </g>
        <path d="M25,21a2.969,2.969,0,0,0-1.286.3l-2.281-2.281A3.947,3.947,0,0,0,22,17a4,4,0,1,0-4,4,3.947,3.947,0,0,0,2.019-.567L22.3,22.714A2.969,2.969,0,0,0,22,24a3,3,0,1,0,3-3Zm-9-4a2,2,0,1,1,2,2A2,2,0,0,1,16,17Z" fill="#001d6c"/>
      </g>
    </g>
  </g>
</svg>
