<svg xmlns="http://www.w3.org/2000/svg" xmlns:xlink="http://www.w3.org/1999/xlink" viewBox="0 0 32 32">
  <defs>
    <linearGradient id="a743ee89-7acb-4265-aac8-338436e8205c" x1="6" y1="25.5" x2="27" y2="25.5" gradientUnits="userSpaceOnUse">
      <stop offset="0.1" stop-opacity="0"/>
      <stop offset="0.75"/>
    </linearGradient>
    <mask id="e6b5e102-5bbf-4351-8025-eabbe716334f" x="0" y="0" width="32" height="32" maskUnits="userSpaceOnUse">
      <g>
        <path d="M15,29a9.011,9.011,0,0,1-9-9V7.618l9-4.5,11,5.5V6.382L15,.882,4,6.382V20a11,11,0,0,0,22,0H24A9.011,9.011,0,0,1,15,29Z" fill="#fff"/>
        <rect x="6" y="19" width="21" height="13" fill="url(#a743ee89-7acb-4265-aac8-338436e8205c)"/>
      </g>
    </mask>
    <linearGradient id="bf239a16-aeeb-4275-98f3-3299e25e36c7" y1="32" x2="32" gradientUnits="userSpaceOnUse">
      <stop offset="0.2" stop-color="#8a3ffc"/>
      <stop offset="0.8" stop-color="#30b0ff"/>
    </linearGradient>
  </defs>
  <g id="b800a11d-f334-4183-80f9-ad0950ed045b" data-name="Layer 2">
    <g id="b3736b57-4cd3-43b4-86a2-a33ff56c4849" data-name="Light theme icons">
      <g>
        <g mask="url(#e6b5e102-5bbf-4351-8025-eabbe716334f)">
          <rect width="32" height="32" fill="url(#bf239a16-aeeb-4275-98f3-3299e25e36c7)"/>
        </g>
        <path d="M30,21V19H27V18a4.915,4.915,0,0,0-.054-.532l2.761-2.761-1.414-1.414-2.065,2.065a4.969,4.969,0,0,0-8.456,0l-2.065-2.065-1.414,1.414,2.761,2.761A4.915,4.915,0,0,0,17,18v1H14v2h3a4.937,4.937,0,0,0,.215,1.371l-2.922,2.922,1.414,1.414L18.2,24.213a4.932,4.932,0,0,0,7.6,0l2.494,2.494,1.414-1.414-2.922-2.922A4.937,4.937,0,0,0,27,21Zm-8,3a3,3,0,0,1-3-3V18a3,3,0,0,1,6,0v3A3,3,0,0,1,22,24Z" fill="#001d6c"/>
      </g>
    </g>
  </g>
</svg>
