<svg xmlns="http://www.w3.org/2000/svg" viewBox="0 0 32 32"><defs><linearGradient id="Security-001_svg__a" x1="6" y1="25.5" x2="27" y2="25.5" gradientUnits="userSpaceOnUse"><stop offset=".1" stop-opacity="0"/><stop offset=".75"/></linearGradient><linearGradient id="Security-001_svg__c" y1="32" x2="32" gradientUnits="userSpaceOnUse"><stop offset=".2" stop-color="#8a3ffc"/><stop offset=".8" stop-color="#30b0ff"/></linearGradient><mask id="Security-001_svg__b" x="0" y="0" width="32" height="32" maskUnits="userSpaceOnUse"><path d="M15 29a9.011 9.011 0 01-9-9V7.618l9-4.5 11 5.5V6.382l-11-5.5-11 5.5V20a11 11 0 0022 0h-2a9.011 9.011 0 01-9 9z" fill="#fff"/><path fill="url(#Security-001_svg__a)" d="M6 19h21v13H6z"/></mask></defs><g data-name="Layer 2"><g data-name="Light theme icons"><g mask="url(#Security-001_svg__b)"><path fill="url(#Security-001_svg__c)" d="M0 0h32v32H0z"/></g><circle cx="17" cy="13" r="2" fill="#001d6c"/><circle cx="25" cy="13" r="2" fill="#001d6c"/><path d="M28 22h-2v-4h-2.465L21 21.8 18.465 18H16v4h-2v-4a2 2 0 012-2h3.535L21 18.2l1.465-2.2H26a2 2 0 012 2zM16 22h2v5h-2zM24 22h2v5h-2z" fill="#001d6c"/></g></g></svg>