<svg id="QRadarAnalystWorkflow" xmlns="http://www.w3.org/2000/svg" viewBox="0 0 32 32"><defs><linearGradient id="hrp53bzy8a" x1="6" y1="25.5" x2="27" y2="25.5" gradientUnits="userSpaceOnUse"><stop offset=".1" stop-opacity="0"/><stop offset=".75"/></linearGradient><linearGradient id="1vxu2kzumc" x1="0" y1="32" x2="32" y2="0" gradientUnits="userSpaceOnUse"><stop offset=".2" stop-color="#8a3ffc"/><stop offset=".8" stop-color="#30b0ff"/></linearGradient><mask id="qjbpt0lulb" x="0" y="0" width="32" height="32" maskUnits="userSpaceOnUse"><path d="M15 29c-4.962 0-9-4.038-9-9V7.618l9-4.5 11 5.5V6.382l-11-5.5-11 5.5V20c0 6.065 4.935 11 11 11s11-4.935 11-11h-2c0 4.962-4.038 9-9 9z" style="fill:#fff;stroke-width:0"/><path style="fill:url(#hrp53bzy8a);stroke-width:0" d="M6 19h21v13H6z"/></mask></defs><g style="mask:url(#qjbpt0lulb)"><path style="fill:url(#1vxu2kzumc);stroke-width:0" d="M0 0h32v32H0z"/></g><path d="M28 20c0-3.86-3.141-7-7-7s-7 3.14-7 7 3.141 7 7 7v-2c-2.757 0-5-2.243-5-5s2.243-5 5-5 5 2.243 5 5a4.898 4.898 0 0 1-.844 2.742l-3.449-3.449a.999.999 0 1 0-1.414 1.414l6.293 6.292L28 25.585l-1.404-1.404A6.931 6.931 0 0 0 28 19.999z" style="fill:#001d6c;stroke-width:0"/></svg>