<svg xmlns="http://www.w3.org/2000/svg" viewBox="0 0 32 32"><defs><linearGradient id="9io7g52iwa" x1="6" y1="25.5" x2="27" y2="25.5" gradientUnits="userSpaceOnUse"><stop offset=".1" stop-opacity="0"/><stop offset=".75"/></linearGradient><linearGradient id="d4iiyauy1c" y1="32" x2="32" gradientUnits="userSpaceOnUse"><stop offset=".2" stop-color="#8a3ffc"/><stop offset=".8" stop-color="#30b0ff"/></linearGradient><mask id="ap0lzjmgnb" x="0" y="0" width="32" height="32" maskUnits="userSpaceOnUse"><path d="M15 29a9.011 9.011 0 0 1-9-9V7.618l9-4.5 11 5.5V6.382l-11-5.5-11 5.5V20a11 11 0 0 0 22 0h-2a9.011 9.011 0 0 1-9 9z" fill="#fff"/><path fill="url(#9io7g52iwa)" d="M6 19h21v13H6z"/></mask></defs><g data-name="Layer 2"><g data-name="Light theme icons"><g mask="url(#ap0lzjmgnb)"><path fill="url(#d4iiyauy1c)" d="M0 0h32v32H0z"/></g><path d="M25 21a2.969 2.969 0 0 0-1.286.3l-2.281-2.281A3.947 3.947 0 0 0 22 17a4 4 0 1 0-4 4 3.947 3.947 0 0 0 2.019-.567l2.281 2.281A2.969 2.969 0 0 0 22 24a3 3 0 1 0 3-3zm-9-4a2 2 0 1 1 2 2 2 2 0 0 1-2-2z" fill="#001d6c"/></g></g></svg>