<svg xmlns="http://www.w3.org/2000/svg" viewBox="0 0 32 32"><defs><linearGradient id="26bzft9vza" x1="7" y1="25.5" x2="28" y2="25.5" gradientUnits="userSpaceOnUse"><stop offset=".1" stop-opacity="0"/><stop offset=".75"/></linearGradient><linearGradient id="iu7npzaz2c" y1="32" x2="32" gradientUnits="userSpaceOnUse"><stop offset=".2" stop-color="#8a3ffc"/><stop offset=".8" stop-color="#30b0ff"/></linearGradient><mask id="99etxv6r8b" x="0" y="0" width="32" height="32" maskUnits="userSpaceOnUse"><path d="M16 29a9.011 9.011 0 0 1-9-9V7.618l9-4.5 11 5.5V6.382l-11-5.5-11 5.5V20a11 11 0 0 0 22 0h-2a9.011 9.011 0 0 1-9 9z" fill="#fff"/><path fill="url(#26bzft9vza)" d="M7 19h21v13H7z"/></mask></defs><g data-name="Layer 2"><g data-name="Light theme icons"><g mask="url(#99etxv6r8b)"><path fill="url(#iu7npzaz2c)" d="M0 0h32v32H0z"/></g><circle cx="25.5" cy="14.5" r="1.5" fill="#001d6c"/><circle cx="28.5" cy="19.5" r="1.5" fill="#001d6c"/><circle cx="25.5" cy="24.5" r="1.5" fill="#001d6c"/><circle cx="20.5" cy="24.5" r="1.5" fill="#001d6c"/><circle cx="17.5" cy="19.5" r="1.5" fill="#001d6c"/><circle cx="20.5" cy="14.5" r="1.5" fill="#001d6c"/></g></g></svg>