<svg xmlns="http://www.w3.org/2000/svg" xmlns:xlink="http://www.w3.org/1999/xlink" viewBox="0 0 32 32">
  <defs>
    <linearGradient id="e5643b63-7c9d-4608-873b-00c133b1bda7" x1="6" y1="25.5" x2="27" y2="25.5" gradientUnits="userSpaceOnUse">
      <stop offset="0.1" stop-opacity="0"/>
      <stop offset="0.75"/>
    </linearGradient>
    <mask id="bff47c8c-59e5-4ce3-b971-6e293f4b43ef" x="0" y="0" width="32" height="32" maskUnits="userSpaceOnUse">
      <g>
        <path d="M15,29a9.011,9.011,0,0,1-9-9V7.618l9-4.5,11,5.5V6.382L15,.882,4,6.382V20a11,11,0,0,0,22,0H24A9.011,9.011,0,0,1,15,29Z" fill="#fff"/>
        <rect x="6" y="19" width="21" height="13" fill="url(#e5643b63-7c9d-4608-873b-00c133b1bda7)"/>
      </g>
    </mask>
    <linearGradient id="b1e484c3-f1f8-42b2-9da4-9fb7cae8fc10" y1="32" x2="32" gradientUnits="userSpaceOnUse">
      <stop offset="0.2" stop-color="#8a3ffc"/>
      <stop offset="0.8" stop-color="#30b0ff"/>
    </linearGradient>
  </defs>
  <g id="a2263f58-c73c-4ac4-a4e1-a50009be9ba8" data-name="Layer 2">
    <g id="acfa1bd1-0400-4899-9a4f-695423e17904" data-name="Light theme icons">
      <g>
        <g mask="url(#bff47c8c-59e5-4ce3-b971-6e293f4b43ef)">
          <rect width="32" height="32" fill="url(#b1e484c3-f1f8-42b2-9da4-9fb7cae8fc10)"/>
        </g>
        <path d="M25,13a3,3,0,0,0-2.816,2H14v2h8.184A2.995,2.995,0,1,0,25,13Zm0,4a1,1,0,1,1,1-1A1,1,0,0,1,25,17Z" fill="#001d6c"/>
        <path d="M16,20a3,3,0,1,0,2.816,4H27V22H18.816A3,3,0,0,0,16,20Zm0,4a1,1,0,1,1,1-1A1,1,0,0,1,16,24Z" fill="#001d6c"/>
      </g>
    </g>
  </g>
</svg>
