<svg id="SecurityThreatIntelligenceInsights" xmlns="http://www.w3.org/2000/svg" viewBox="0 0 32 32"><defs><linearGradient id="a4kekgeisa" x1="6" y1="25.5" x2="27" y2="25.5" gradientUnits="userSpaceOnUse"><stop offset=".1" stop-opacity="0"/><stop offset=".75"/></linearGradient><linearGradient id="z5nlrasqgc" x1="0" y1="32" x2="32" y2="0" gradientUnits="userSpaceOnUse"><stop offset=".2" stop-color="#8a3ffc"/><stop offset=".8" stop-color="#30b0ff"/></linearGradient><mask id="4yl7gecnfb" x="0" y="0" width="32" height="32" maskUnits="userSpaceOnUse"><path d="M15 29c-4.962 0-9-4.038-9-9V7.618l9-4.5 11 5.5V6.382l-11-5.5-11 5.5V20c0 6.065 4.935 11 11 11s11-4.935 11-11h-2c0 4.962-4.038 9-9 9z" style="fill:#fff;stroke-width:0"/><path style="fill:url(#a4kekgeisa);stroke-width:0" d="M6 19h21v13H6z"/></mask></defs><g style="mask:url(#4yl7gecnfb)"><path style="fill:url(#z5nlrasqgc);stroke-width:0" d="M0 0h32v32H0z"/></g><circle cx="20" cy="19" r="2" style="fill:#001d6c;stroke-width:0"/><path d="M28.749 18.473C27.148 15.109 23.713 13 20 13s-7.148 2.108-8.749 5.473L11 19l.251.527C12.852 22.891 16.287 25 20 25s7.148-2.108 8.749-5.473L29 19l-.251-.527zM20 23.838c-2.668 0-4.838-2.17-4.838-4.838s2.17-4.838 4.838-4.838 4.838 2.17 4.838 4.838-2.17 4.838-4.838 4.838z" style="fill:#001d6c;stroke-width:0"/></svg>