<svg xmlns="http://www.w3.org/2000/svg" xmlns:xlink="http://www.w3.org/1999/xlink" viewBox="0 0 32 32">
  <defs>
    <linearGradient id="linear-gradient" x1="6" y1="25.5" x2="27" y2="25.5" gradientUnits="userSpaceOnUse">
      <stop offset="0.1" stop-opacity="0"/>
      <stop offset="0.75"/>
    </linearGradient>
    <mask id="mask" x="0" y="0" width="32" height="32" maskUnits="userSpaceOnUse">
      <g>
        <path d="M15,29a9.011,9.011,0,0,1-9-9V7.618l9-4.5,11,5.5V6.382L15,.882,4,6.382V20a11,11,0,0,0,22,0H24A9.011,9.011,0,0,1,15,29Z" style="fill: #fff"/>
        <rect x="6" y="19" width="21" height="13" style="fill: url(#linear-gradient)"/>
      </g>
    </mask>
    <linearGradient id="linear-gradient-2" y1="32" x2="32" gradientUnits="userSpaceOnUse">
      <stop offset="0.2" stop-color="#8a3ffc"/>
      <stop offset="0.8" stop-color="#30b0ff"/>
    </linearGradient>
  </defs>
  <g id="Layer_2" data-name="Layer 2">
    <g id="Build_icon_here" data-name="Build icon here">
      <g>
        <g style="mask: url(#mask)">
          <rect width="32" height="32" style="fill: url(#linear-gradient-2)"/>
        </g>
        <g>
          <circle cx="16" cy="16.002" r="1" style="fill: #001d6c"/>
          <rect x="19" y="15" width="8" height="2.004" style="fill: #001d6c"/>
          <circle cx="16" cy="23.998" r="1" style="fill: #001d6c"/>
          <rect x="19" y="22.996" width="8" height="2.004" style="fill: #001d6c"/>
          <g>
            <circle cx="26" cy="20" r="1" style="fill: #001d6c"/>
            <rect x="15" y="18.998" width="8" height="2.004" style="fill: #001d6c"/>
          </g>
        </g>
      </g>
    </g>
  </g>
</svg>
