<svg xmlns="http://www.w3.org/2000/svg" viewBox="0 0 32 32"><defs><linearGradient id="ttkvqz6poa" x1="6" y1="25.5" x2="27" y2="25.5" gradientUnits="userSpaceOnUse"><stop offset=".1" stop-opacity="0"/><stop offset=".75"/></linearGradient><linearGradient id="2j55attaec" y1="32" x2="32" gradientUnits="userSpaceOnUse"><stop offset=".2" stop-color="#8a3ffc"/><stop offset=".8" stop-color="#30b0ff"/></linearGradient><mask id="lk2x5edcnb" x="0" y="0" width="32" height="32" maskUnits="userSpaceOnUse"><path d="M15 29a9.011 9.011 0 0 1-9-9V7.618l9-4.5 11 5.5V6.382l-11-5.5-11 5.5V20a11 11 0 0 0 22 0h-2a9.011 9.011 0 0 1-9 9z" fill="#fff"/><path fill="url(#ttkvqz6poa)" d="M6 19h21v13H6z"/></mask></defs><g data-name="Layer 2"><g data-name="Light theme icons"><g mask="url(#lk2x5edcnb)"><path fill="url(#2j55attaec)" d="M0 0h32v32H0z"/></g><g fill="#001d6c"><circle cx="16" cy="16.002" r="1"/><path d="M19 15h8v2.004h-8z"/><circle cx="16" cy="23.998" r="1"/><path d="M19 22.996h8V25h-8z"/><circle cx="26" cy="20" r="1"/><path d="M15 18.998h8v2.004h-8z"/></g></g></g></svg>