<svg id="SellerIncentives" xmlns="http://www.w3.org/2000/svg" viewBox="0 0 32 32"><defs><linearGradient id="s965nvjoya" x1="140.873" y1="700.504" x2="140.873" y2="689.504" gradientTransform="matrix(1 0 0 -.714 -128.764 523.899)" gradientUnits="userSpaceOnUse"><stop offset="0" stop-opacity="0"/><stop offset=".9"/></linearGradient><linearGradient id="rsbolyx70c" x1="-1477" y1="-2127" x2="-1509" y2="-2095" gradientTransform="matrix(1 0 0 -1 1509 -2095)" gradientUnits="userSpaceOnUse"><stop offset=".1" stop-color="#08bdba"/><stop offset=".9" stop-color="#0f62fe"/></linearGradient><mask id="0oplk8cppb" x="0" y="0" width="32" height="32" maskUnits="userSpaceOnUse"><path d="m28.504 8.136-12-7a.996.996 0 0 0-1.008 0l-12 7A1 1 0 0 0 3 9v3h2V9.574l11-6.417 11 6.417v12.852l-11 6.417-6.439-3.756-1.125 1.659 7.06 4.118a.999.999 0 0 0 1.008 0l12-7A.998.998 0 0 0 29 23V9a1 1 0 0 0-.496-.864z" style="fill:#fff;stroke-width:0"/><path transform="rotate(120 12.109 27.846)" style="fill:url(#s965nvjoya);stroke-width:0" d="M10.109 23.92h4v7.851h-4z"/></mask></defs><path d="M14.5 25h-8A4.505 4.505 0 0 1 2 20.5c0-1.986 1.321-3.712 3.174-4.284C5.755 13.768 7.929 12 10.5 12s4.746 1.768 5.326 4.216C17.68 16.788 19 18.514 19 20.5c0 2.481-2.019 4.5-4.5 4.5zm-4-11a3.477 3.477 0 0 0-3.459 3.146l-.08.788-.785.103A2.5 2.5 0 0 0 4 20.5C4 21.879 5.122 23 6.5 23h8c1.379 0 2.5-1.121 2.5-2.5a2.5 2.5 0 0 0-2.176-2.463l-.785-.103-.08-.788A3.477 3.477 0 0 0 10.5 14z" style="fill:#001d6c;stroke-width:0"/><g style="mask:url(#0oplk8cppb)"><path id="Color" transform="rotate(90 16 16)" style="fill:url(#rsbolyx70c);stroke-width:0" d="M0 0h32v32H0z"/></g></svg>