<svg xmlns="http://www.w3.org/2000/svg" xmlns:xlink="http://www.w3.org/1999/xlink" viewBox="0 0 32 32">
  <defs>
    <linearGradient id="ac4d0cb3-0c69-4e9e-9a76-34bcb6ad4bdb" x1="415.914" y1="404.414" x2="415.914" y2="416.414" gradientTransform="matrix(1, 0, 0, -1, -393.914, 426.914)" gradientUnits="userSpaceOnUse">
      <stop offset="0" stop-opacity="0"/>
      <stop offset="0.7"/>
    </linearGradient>
    <mask id="ff8506ed-79c0-4886-8ae4-4ac670cf33f1" x="0" y="0" width="32" height="32" maskUnits="userSpaceOnUse">
      <g>
        <path d="M21,2a8.979,8.979,0,0,0-8.607,11.606L2,24v6H8l-.828-2H4V24.828L14.726,14.1l0,0A7.038,7.038,0,1,1,17,16.736v2.317A9,9,0,1,0,21,2Z" fill="#fff"/>
        <rect x="16.5" y="10.5" width="11" height="12" transform="translate(5.5 38.5) rotate(-90)" fill="url(#ac4d0cb3-0c69-4e9e-9a76-34bcb6ad4bdb)"/>
        <polygon points="17.586 17.586 13.793 21.379 12.414 20 11 21.414 12.379 22.793 10.793 24.379 9.414 23 8 24.414 9.379 25.793 6.586 28.586 8 30 19 19 17.586 17.586" fill="#fff"/>
        <circle cx="22" cy="10" r="2" fill="#fff"/>
      </g>
    </mask>
    <linearGradient id="e875d3e8-2a59-4021-b1a4-e6b6bab763b3" y1="32" x2="32" gradientUnits="userSpaceOnUse">
      <stop offset="0.1" stop-color="#08bdba"/>
      <stop offset="0.9" stop-color="#0f62fe"/>
    </linearGradient>
  </defs>
  <g id="a6a075ac-75a0-4063-a411-beae8e2a0d47" data-name="Layer 2">
    <g id="adece670-94cb-4a9d-8d9e-3b361b91b384" data-name="Light theme icons">
      <g>
        <g mask="url(#ff8506ed-79c0-4886-8ae4-4ac670cf33f1)">
          <rect width="32" height="32" fill="url(#e875d3e8-2a59-4021-b1a4-e6b6bab763b3)"/>
        </g>
        <polygon points="23 27.18 20.41 24.59 19 26 23 30 30 23 28.59 21.59 23 27.18" fill="#001d6c"/>
      </g>
    </g>
  </g>
</svg>
