<svg id="SovereignCore" xmlns="http://www.w3.org/2000/svg" viewBox="0 0 32 32"><defs><linearGradient id="hj7mfoohja" x1="20" y1="24" x2="32" y2="12" gradientUnits="userSpaceOnUse"><stop offset=".17" stop-opacity="0"/><stop offset=".45"/></linearGradient><linearGradient id="jcnmtduvvc" x1="0" y1="32" x2="32" y2="0" gradientUnits="userSpaceOnUse"><stop offset=".1" stop-color="#00c0ba"/><stop offset=".9" stop-color="#0064ff"/></linearGradient><mask id="ied9uvw27b" x="0" y="0" width="32" height="32" maskUnits="userSpaceOnUse"><path d="M25 4v14.298a9.023 9.023 0 0 1-4.5 7.794L16 28.69l-4.5-2.598A9.025 9.025 0 0 1 7 18.298V4h18m0-2H7a2 2 0 0 0-2 2v14.298a11 11 0 0 0 5.5 9.526l5.5 3.175 5.5-3.175a10.998 10.998 0 0 0 5.5-9.526V4a2 2 0 0 0-2-2z" style="fill:#fff"/><path style="fill:url(#hj7mfoohja)" d="M21 11h10v14H21z"/></mask></defs><g style="mask:url(#ied9uvw27b)"><path style="fill:url(#jcnmtduvvc)" d="M0 0h32v32H0z"/></g><circle cx="26" cy="16" r="2" style="fill:#001e71"/><path d="M19 21h-6a2 2 0 0 1-2-2v-6a2 2 0 0 1 2-2h6a2 2 0 0 1 2 2v6a2 2 0 0 1-2 2zm-6-8v6h6v-6h-6z" style="fill:#001e71"/></svg>