<svg xmlns="http://www.w3.org/2000/svg" xmlns:xlink="http://www.w3.org/1999/xlink" viewBox="0 0 32 32">
  <defs>
    <linearGradient id="b8161ede-4d6f-481b-a68d-361e2de34c68" x1="26.54" y1="16.261" x2="5.625" y2="4.185" gradientUnits="userSpaceOnUse">
      <stop offset="0.25" stop-color="#fff" stop-opacity="0"/>
      <stop offset="0.55" stop-color="#fff"/>
    </linearGradient>
    <linearGradient id="e3a91699-3c99-4a48-8d07-dbf86dab784e" x1="26.375" y1="27.815" x2="5.46" y2="15.739" gradientUnits="userSpaceOnUse">
      <stop offset="0.45" stop-color="#fff"/>
      <stop offset="0.75" stop-color="#fff" stop-opacity="0"/>
    </linearGradient>
    <mask id="ee8ad68a-96d3-45da-92d0-b2d2ae4dd450" x="0" y="0" width="32" height="32" maskUnits="userSpaceOnUse">
      <path d="M5,12V9.574L16,3.158,27,9.574V12h2V9a1,1,0,0,0-.5-.864l-12-7a1,1,0,0,0-1.008,0l-12,7A1,1,0,0,0,3,9v3Z" fill="url(#b8161ede-4d6f-481b-a68d-361e2de34c68)"/>
      <path d="M27,20v2.426L16,28.842,5,22.426V20H3v3a1,1,0,0,0,.5.864l12,7a1,1,0,0,0,1.008,0l12-7A1,1,0,0,0,29,23V20Z" fill="url(#e3a91699-3c99-4a48-8d07-dbf86dab784e)"/>
      <path d="M27,18H21a2,2,0,0,1-2-2V10a2,2,0,0,1,2-2h6a2,2,0,0,1,2,2v6A2,2,0,0,1,27,18Zm-6-8v6h6V10Z" fill="#fff"/>
    </mask>
    <linearGradient id="ed15e93a-fbd2-4240-b98e-c47719171bdb" y1="32" x2="32" gradientUnits="userSpaceOnUse">
      <stop offset="0.1" stop-color="#33b1ff"/>
      <stop offset="0.9" stop-color="#d12771"/>
    </linearGradient>
  </defs>
  <g id="a7e3923f-e137-4755-ad8d-a9ae4f6be6df" data-name="Layer 2">
    <g id="a8c7222d-bc4d-44d8-b916-984ac71a3638" data-name="Light theme icons">
      <g>
        <g mask="url(#ee8ad68a-96d3-45da-92d0-b2d2ae4dd450)">
          <rect width="32" height="32" fill="url(#ed15e93a-fbd2-4240-b98e-c47719171bdb)"/>
        </g>
        <path d="M11,24H5a2,2,0,0,1-2-2V16a2,2,0,0,1,2-2h6a2,2,0,0,1,2,2v6A2,2,0,0,1,11,24ZM5,16v6h6V16Z" fill="#001d6c"/>
      </g>
    </g>
  </g>
</svg>
