<svg xmlns="http://www.w3.org/2000/svg" xmlns:xlink="http://www.w3.org/1999/xlink" viewBox="0 0 32 32"><defs><linearGradient id="pxkxpzjmna" x1="5.183" y1="17.843" x2="14.815" y2="1.161" gradientUnits="userSpaceOnUse"><stop offset=".4" stop-color="#fff" stop-opacity="0"/><stop offset=".65" stop-color="#fff"/></linearGradient><linearGradient id="j5cqm7yy1b" x1="5.183" y1="205.347" x2="14.815" y2="188.665" gradientTransform="matrix(1 0 0 -1 0 219.504)" xlink:href="#pxkxpzjmna"/><linearGradient id="w5zs8lwxmc" x1="14" y1="16" x2="25" y2="16" gradientUnits="userSpaceOnUse"><stop offset=".1" stop-color="#fff" stop-opacity="0"/><stop offset=".6" stop-color="#fff"/></linearGradient><linearGradient id="sr0eklzbge" y1="32" x2="32" gradientUnits="userSpaceOnUse"><stop offset=".1" stop-color="#be95ff"/><stop offset=".9" stop-color="#d12771"/></linearGradient><mask id="hty5roynud" x="0" y="0" width="32" height="32" maskUnits="userSpaceOnUse"><path d="m2.864 16.5-1.728-1 7-12A1 1 0 0 1 9 3h9v2H9.574z" fill="url(#pxkxpzjmna)"/><path d="m2.864 15.5-1.728 1 7 12A1 1 0 0 0 9 29h9v-2H9.574z" fill="url(#j5cqm7yy1b)"/><path fill="url(#w5zs8lwxmc)" d="M14 15h11v2H14z"/></mask></defs><g data-name="Layer 2"><g data-name="Light theme icons"><g mask="url(#hty5roynud)"><path fill="url(#sr0eklzbge)" d="M0 0h32v32H0z"/></g><circle cx="29" cy="16" r="2" fill="#001d6c"/><circle cx="22" cy="4" r="2" fill="#001d6c"/><circle cx="22" cy="28" r="2" fill="#001d6c"/><path d="M10.75 22H4.917a1 1 0 0 1-.864-.5l-2.917-5a1 1 0 0 1 0-1.008l2.917-5a1 1 0 0 1 .864-.5h5.833a1 1 0 0 1 .864.5l2.916 5a1 1 0 0 1 0 1.008l-2.916 5a1 1 0 0 1-.864.5zm-5.259-2h4.685l2.333-4-2.333-4H5.491l-2.333 4z" fill="#001d6c"/></g></g></svg>