<svg xmlns="http://www.w3.org/2000/svg" xmlns:xlink="http://www.w3.org/1999/xlink" viewBox="0 0 32 32"><defs><linearGradient id="h80hi4x3va" x1="8" y1="24" x2="8" y2="8" gradientUnits="userSpaceOnUse"><stop offset=".1"/><stop offset=".7" stop-opacity="0"/></linearGradient><linearGradient id="iwgqhn6c0c" x1="-4656" y1="-6698" x2="-4656" y2="-6714" gradientTransform="rotate(180 -2316 -3345)" xlink:href="#h80hi4x3va"/><linearGradient id="tf32damj2b" x1="28" y1="28" x2="28" y2="10" gradientUnits="userSpaceOnUse"><stop offset=".05"/><stop offset=".5" stop-opacity="0"/></linearGradient><linearGradient id="mvpmmv91hd" x1="-4676" y1="-6692" x2="-4676" y2="-6710" gradientTransform="translate(4680 6714)" xlink:href="#tf32damj2b"/><linearGradient id="sutwfdko5f" y1="32" x2="32" gradientUnits="userSpaceOnUse"><stop offset=".1" stop-color="#08bdba"/><stop offset=".9" stop-color="#0f62fe"/></linearGradient><mask id="v9t60vx8re" x="0" y="0" width="32" height="32" maskUnits="userSpaceOnUse"><path d="M16 31a1 1 0 0 1-.5-.136l-12-7A1 1 0 0 1 3 23V5h2v17.426l11 6.416 7-4.083V9h2v16.333a1 1 0 0 1-.5.864l-8 4.667A1 1 0 0 1 16 31z" fill="#fff"/><path d="M29 27h-2V9.574L16 3.158 9 7.241V23H7V6.667a1 1 0 0 1 .5-.867l8-4.667a1 1 0 0 1 1.008 0l12 7A1 1 0 0 1 29 9z" fill="#fff"/><path fill="url(#h80hi4x3va)" d="M10 8H6v14l1 1 3 1V8z"/><path fill="url(#iwgqhn6c0c)" d="M22 24h4V10l-1-1-3-1v16z"/><path fill="url(#tf32damj2b)" d="M26 10h4v18h-4z"/><path transform="rotate(180 4 13)" fill="url(#mvpmmv91hd)" d="M2 4h4v18H2z"/></mask></defs><g data-name="Layer 2"><g data-name="light theme"><g mask="url(#v9t60vx8re)"><path fill="url(#sutwfdko5f)" d="M0 0h32v32H0z"/></g><path d="M16 21.667a1 1 0 0 1-.5-.137l-4-2.333a1 1 0 0 1-.5-.864v-4.666a1 1 0 0 1 .5-.864l4-2.333a1 1 0 0 1 1.008 0l4 2.333a1 1 0 0 1 .5.864v4.666a1 1 0 0 1-.5.864l-4 2.333a1 1 0 0 1-.508.137zm-3-3.908 3 1.75 3-1.75v-3.518l-3-1.75-3 1.75z" fill="#001d6c"/></g></g></svg>