<svg xmlns="http://www.w3.org/2000/svg" xmlns:xlink="http://www.w3.org/1999/xlink" viewBox="0 0 32 32"><defs><linearGradient id="43wyjpsgua" x1="2.385" y1="11.649" x2="24.18" y2="24.233" gradientUnits="userSpaceOnUse"><stop offset=".543" stop-color="#fff"/><stop offset=".768" stop-color="#fff" stop-opacity="0"/></linearGradient><linearGradient id="ff663vioqb" x1="17.5" y1="29" x2="17.5" y2="4" xlink:href="#43wyjpsgua"/><linearGradient id="66jwzezglc" x1="3.247" y1="19.901" x2="25.102" y2="7.284" gradientUnits="userSpaceOnUse"><stop offset=".232" stop-color="#fff" stop-opacity="0"/><stop offset=".457" stop-color="#fff"/></linearGradient><linearGradient id="ismtosu7se" x1="-583" y1="3729" x2="-615" y2="3697" gradientTransform="translate(615 -3697)" gradientUnits="userSpaceOnUse"><stop offset=".1" stop-color="#ee5396"/><stop offset=".9" stop-color="#0f62fe"/></linearGradient><mask id="ircr4xlg2d" x="0" y="0" width="32" height="32" maskUnits="userSpaceOnUse"><path d="M21.5 28.868 5.22 19.563A6.383 6.383 0 0 1 2.874 10.8l2.247-3.849 1.727 1.008L4.6 11.812a4.384 4.384 0 0 0 1.611 6.015L22.5 27.132z" fill="url(#43wyjpsgua)"/><path d="M16.442 29H12v-2h4.442A4.564 4.564 0 0 0 21 22.442V4h2v18.442A6.566 6.566 0 0 1 16.442 29z" fill="url(#ff663vioqb)"/><path d="m1.5 16.868-1-1.736 16.221-9.267a6.577 6.577 0 0 1 8.919 2.389l2.209 3.787-1.728 1.008-2.209-3.787a4.573 4.573 0 0 0-6.2-1.661z" fill="url(#66jwzezglc)"/></mask></defs><g data-name="Layer 2"><g data-name="Light theme icons"><g mask="url(#ircr4xlg2d)"><path transform="rotate(90 16 16)" fill="url(#ismtosu7se)" d="M0 0h32v32H0z"/></g><path d="M16.75 20h-3.5a1 1 0 0 1-.864-.5l-1.75-3a1 1 0 0 1 0-1.008l1.75-3a1 1 0 0 1 .864-.5h3.5a1 1 0 0 1 .864.5l1.75 3a1 1 0 0 1 0 1.008l-1.75 3a1 1 0 0 1-.864.5zm-2.926-2h2.352l1.166-2-1.166-2h-2.352l-1.166 2z" fill="#001d6c"/><circle cx="29" cy="16" r="2" fill="#001d6c"/><circle cx="8" cy="28" r="2" fill="#001d6c"/><circle cx="8" cy="4" r="2" fill="#001d6c"/></g></g></svg>