<svg xmlns="http://www.w3.org/2000/svg" viewBox="0 0 32 32"><defs><linearGradient id="3tjb2o0jga" x1="22.248" y1="30.864" x2="22.248" y2="9" gradientUnits="userSpaceOnUse"><stop offset=".48" stop-color="#fff"/><stop offset=".75" stop-color="#fff" stop-opacity="0"/></linearGradient><linearGradient id="ih07olvgib" x1="12.249" y1="203.999" x2="12.249" y2="225.863" gradientTransform="rotate(180 11 113.5)" gradientUnits="userSpaceOnUse"><stop offset=".25" stop-color="#fff" stop-opacity="0"/><stop offset=".52" stop-color="#fff"/></linearGradient><linearGradient id="1nf38dmsrd" y1="32" x2="32" gradientUnits="userSpaceOnUse"><stop offset=".1" stop-color="#a56eff"/><stop offset=".9" stop-color="#0f62fe"/></linearGradient><mask id="f1x74sokbc" x="0" y="0" width="32" height="32" maskUnits="userSpaceOnUse"><path d="m16.5 30.864-1-1.728 11.5-6.71V9h2v14a1 1 0 0 1-.5.864z" fill="url(#3tjb2o0jga)"/><path d="M5 23H3V9a1 1 0 0 1 .5-.864l12-7 1 1.728L5 9.574z" fill="url(#ih07olvgib)"/><path fill="#fff" d="M3 18h2v2H3zm4-4h2v2H7zm16 2h2v2h-2zm4-4h2v2h-2zm-4-4h2v2h-2zm4-4h2v2h-2zm-8 0h2v2h-2zM7 22h2v2H7zm4 4h2v2h-2zm-8 0h2v2H3z"/></mask></defs><g data-name="Layer 2"><g data-name="Light theme icons"><g mask="url(#f1x74sokbc)"><path fill="url(#1nf38dmsrd)" d="M0 0h32v32H0z"/></g><path d="M19 9h-6a2 2 0 0 0-2 2v10a2 2 0 0 0 2 2h6a2 2 0 0 0 2-2V11a2 2 0 0 0-2-2zm0 2v2h-6v-2zm0 4v2h-6v-2zm-6 6v-2h6v2z" fill="#001d6c"/></g></g></svg>