<svg xmlns="http://www.w3.org/2000/svg" viewBox="0 0 32 32"><defs><linearGradient id="ctdueg9ppa" x1="624.061" y1="714" x2="649.061" y2="714" gradientTransform="rotate(90 674 56)" gradientUnits="userSpaceOnUse"><stop offset="0" stop-color="#fff" stop-opacity="0"/><stop offset=".4" stop-color="#fff"/></linearGradient><linearGradient id="z17490xync" x1="650" y1="730" x2="618" y2="698" gradientTransform="translate(-618 -698)" gradientUnits="userSpaceOnUse"><stop offset=".1" stop-color="#be95ff"/><stop offset=".9" stop-color="#8a3ffc"/></linearGradient><mask id="8rxq59ahpb" x="0" y="0" width="32" height="32" maskUnits="userSpaceOnUse"><path d="M3 23.061v-17h2v16.426L16 28.9l11-6.416V6.061h2v17a1 1 0 0 1-.5.864l-12 7a1 1 0 0 1-1.008 0l-12-7A1 1 0 0 1 3 23.061z" fill="url(#ctdueg9ppa)"/></mask></defs><g data-name="Layer 2"><g data-name="Light theme icons"><g mask="url(#8rxq59ahpb)"><path transform="rotate(90 16 16)" fill="url(#z17490xync)" d="M0 0h32v32H0z"/></g><path fill="#001d6c" d="M15 2h2v4h-2zm-6 8h2v4H9zm12-5h2v4h-2zm2 11h-2v-4h2zm-8-2h2v4h-2zm-6 3h2v4H9zm6-8h2v2h-2zm0 12h2v2h-2zM9 5h2v2H9zm14 16h-2v-2h2z"/></g></g></svg>