<svg data-name="Build icon here" xmlns="http://www.w3.org/2000/svg" xmlns:xlink="http://www.w3.org/1999/xlink" viewBox="0 0 32 32"><defs><linearGradient id="mkdr8f57wa" x1="28.019" y1="23.025" x2="15.981" y2="29.975" gradientTransform="rotate(30.258 22.001 26.5)" gradientUnits="userSpaceOnUse"><stop offset=".1" stop-color="#fff" stop-opacity="0"/><stop offset=".6" stop-color="#fff"/></linearGradient><linearGradient id="e56xu7wgmb" x1="3.981" y1="8.975" x2="16.019" y2="2.025" gradientTransform="rotate(30.258 10 5.5)" xlink:href="#mkdr8f57wa"/><linearGradient id="pquo3gwovc" x1="16.019" y1="29.975" x2="3.981" y2="23.025" gradientTransform="rotate(59.744 10 26.5)" xlink:href="#mkdr8f57wa"/><linearGradient id="9e0q7glb6d" x1="14.096" y1="5.288" x2="26.997" y2="12.737" gradientUnits="userSpaceOnUse"><stop offset=".1" stop-color="#fff" stop-opacity="0"/><stop offset=".57" stop-color="#fff"/></linearGradient><linearGradient id="tyh19doc3e" x1="15.998" y1="28" x2="15.998" y2="19" gradientUnits="userSpaceOnUse"><stop offset=".2" stop-opacity="0"/><stop offset=".7"/></linearGradient><linearGradient id="ub9qzpbmgf" x1="27.391" y1="9.676" x2="17.609" y2="15.324" gradientUnits="userSpaceOnUse"><stop offset=".24" stop-opacity="0"/><stop offset=".67"/></linearGradient><linearGradient id="zdz0sosbmg" x1="28" y1="9" x2="28" y2="23" xlink:href="#mkdr8f57wa"/><linearGradient id="pqqkcz104h" x1="4" y1="9" x2="4" y2="23" gradientUnits="userSpaceOnUse"><stop offset=".4" stop-color="#fff"/><stop offset=".9" stop-color="#fff" stop-opacity="0"/></linearGradient><linearGradient id="xafprnvasj" y1="32" x2="32" gradientUnits="userSpaceOnUse"><stop offset=".1" stop-color="#08bdba"/><stop offset=".9" stop-color="#0f62fe"/></linearGradient><mask id="qrdl6oz8ti" x="0" y="0" width="32" height="32" maskUnits="userSpaceOnUse"><path transform="rotate(-30.258 22 26.5)" fill="url(#mkdr8f57wa)" d="M15.054 25.5h13.892v2H15.054z"/><path transform="rotate(-30.258 10 5.5)" fill="url(#e56xu7wgmb)" d="M3.054 4.5h13.892v2H3.054z"/><path transform="rotate(-59.744 10 26.5)" fill="url(#pquo3gwovc)" d="M9 19.554h2v13.892H9z"/><path d="M16 31a1 1 0 0 1-1-1v-9.333a1 1 0 0 1 2 0V30a1 1 0 0 1-1 1z" fill="#fff"/><path d="m20.5 14.53 8-4.666a1 1 0 0 0 .36-1.368.975.975 0 0 0-.36-.346l.008-.014-12-7L15.5 2.864 26.015 9 19.5 12.8z" fill="url(#9e0q7glb6d)"/><path fill="url(#tyh19doc3e)" d="M13.998 19h4v9h-4z"/><path fill="url(#ub9qzpbmgf)" d="M18 9h9v7h-9z"/><path fill="url(#zdz0sosbmg)" d="M27 9h2v14h-2z"/><path fill="url(#pqqkcz104h)" d="M3 9h2v14H3z"/></mask></defs><g mask="url(#qrdl6oz8ti)"><path fill="url(#xafprnvasj)" d="M0 0h32v32H0z"/></g><path d="M16 21.667a1 1 0 0 1-.5-.137l-4-2.333a1 1 0 0 1-.5-.864v-4.666a1 1 0 0 1 .5-.864l4-2.333a1 1 0 0 1 1.008 0l4 2.333a1 1 0 0 1 .5.864v4.666a1 1 0 0 1-.5.864l-4 2.333a1 1 0 0 1-.508.137zm-3-3.908 3 1.75 3-1.75v-3.518l-3-1.75-3 1.75z" fill="#001d6c"/></svg>