<svg id="SPSSStatisticsCleanUtility" xmlns="http://www.w3.org/2000/svg" xmlns:xlink="http://www.w3.org/1999/xlink" viewBox="0 0 32 32"><defs><linearGradient id="w4rdbp1vpa" x1="-202" y1="8" x2="-193" y2="8" gradientTransform="matrix(1 0 0 -1 208 34)" gradientUnits="userSpaceOnUse"><stop offset="0" stop-opacity="0"/><stop offset=".8"/></linearGradient><linearGradient id="g5ixqid0db" x1="-5140" y1="8190" x2="-5132" y2="8190" gradientTransform="matrix(-1 0 0 1 -5117 -8185)" xlink:href="#w4rdbp1vpa"/><linearGradient id="ak81vmdswd" x1="0" y1="2" x2="32" y2="34" gradientTransform="matrix(1 0 0 -1 0 34)" gradientUnits="userSpaceOnUse"><stop offset=".1" stop-color="#ad6bff"/><stop offset=".9" stop-color="#0064ff"/></linearGradient><mask id="94g1nyx7lc" x="0" y="0" width="32" height="32" maskUnits="userSpaceOnUse"><path d="M29 16h-2v-5a5.006 5.006 0 0 0-5-5h-5V4h5a7.008 7.008 0 0 1 7 7v5zM15 28h-5a7.008 7.008 0 0 1-7-7v-2h2v2a5.006 5.006 0 0 0 5 5h5v2z" style="fill:#fff"/><path d="M6 23h9v6H6v-6z" style="fill:url(#w4rdbp1vpa)"/><path d="M23 7h-8V3h8v4z" style="fill:url(#g5ixqid0db)"/><path style="fill:none;stroke:#fff;stroke-linejoin:round;stroke-width:2px" d="M14 5H4l5 5-5 5h10"/></mask></defs><g style="mask:url(#94g1nyx7lc)"><path d="M0 0h32v32H0V0z" style="fill:url(#ak81vmdswd)"/></g><path d="m21 21 1.414 1.414L19.828 25H27c1.103 0 2-.897 2-2s-.897-2-2-2h-2v-2h2c2.206 0 4 1.794 4 4s-1.794 4-4 4h-7.172l2.586 2.586L21 31l-5-5 5-5z" style="fill:#001e71"/></svg>