<svg xmlns="http://www.w3.org/2000/svg" viewBox="0 0 32 32"><defs><linearGradient id="StakeholderManager_svg__a" x1="19.402" y1="29.964" x2="28.598" y2="14.036" gradientUnits="userSpaceOnUse"><stop offset=".22" stop-opacity="0"/><stop offset=".7"/></linearGradient><linearGradient id="StakeholderManager_svg__b" x1="-2053" y1="627" x2="-2069" y2="643" gradientTransform="translate(2070 -626)" gradientUnits="userSpaceOnUse"><stop offset=".5"/><stop offset=".9" stop-opacity="0"/></linearGradient><linearGradient id="StakeholderManager_svg__d" y1="32" x2="32" gradientUnits="userSpaceOnUse"><stop offset=".1" stop-color="#08bdba"/><stop offset=".9" stop-color="#0f62fe"/></linearGradient><mask id="StakeholderManager_svg__c" x="0" y="0" width="32" height="32" maskUnits="userSpaceOnUse"><path d="M16 30a14 14 0 1114-14 14.015 14.015 0 01-14 14zm0-26a12 12 0 1012 12A12.013 12.013 0 0016 4z" fill="#fff"/><path fill="url(#StakeholderManager_svg__a)" d="M16 16h16v12H16z"/><path transform="rotate(180 9 9)" fill="url(#StakeholderManager_svg__b)" d="M0 2h18v14H0z"/></mask></defs><g data-name="Layer 2"><g data-name="Light theme icons"><g mask="url(#StakeholderManager_svg__c)"><path fill="url(#StakeholderManager_svg__d)" d="M0 0h32v32H0z"/></g><path fill="#001d6c" d="M2 8h7v2H2zM2 12h4v2H2zM19 18h-6a3 3 0 00-3 3v2h2v-2a1 1 0 011-1h6a1 1 0 011 1v2h2v-2a3 3 0 00-3-3zM16 17a4 4 0 10-4-4 4 4 0 004 4zm0-6a2 2 0 11-2 2 2 2 0 012-2z"/></g></g></svg>