<svg id="StepZenGraphQLServer" xmlns="http://www.w3.org/2000/svg" xmlns:xlink="http://www.w3.org/1999/xlink" viewBox="0 0 32 32"><defs><linearGradient id="gvgmdqu4ta" x1="-23.392" y1="343.731" x2="-23.392" y2="334.731" gradientTransform="translate(44.988 -328.827)" gradientUnits="userSpaceOnUse"><stop offset="0" stop-opacity="0"/><stop offset=".7"/></linearGradient><linearGradient id="7hhjhfj1wb" x1="-34.552" y1="-284.059" x2="-34.552" y2="-293.059" gradientTransform="translate(45.148 310.155)" xlink:href="#gvgmdqu4ta"/><linearGradient id="cu2543uood" x1="0" y1="32" x2="32" y2="0" gradientUnits="userSpaceOnUse"><stop offset=".1" stop-color="#08bdba"/><stop offset=".9" stop-color="#0f62fe"/></linearGradient><mask id="w4spgbs0rc" x="0" y="0" width="32" height="32" maskUnits="userSpaceOnUse"><path d="M20 29H6.414C4.632 29 3.74 26.846 5 25.586L25.586 5H12a7 7 0 0 0-7 7v5H3v-5a9 9 0 0 1 9-9h13.586C27.368 3 28.26 5.154 27 6.414L6.414 27H20a7 7 0 0 0 7-7v-5h2v5a9 9 0 0 1-9 9z" style="fill:#fff"/><path transform="rotate(-135 21.596 10.404)" style="fill:url(#gvgmdqu4ta)" d="M19.596 5.904h4v9h-4z"/><path transform="rotate(45 10.596 21.596)" style="fill:url(#7hhjhfj1wb)" d="M8.596 17.096h4v9h-4z"/><path transform="rotate(-45 16 16)" d="M10.343 10.343h11.314v11.314H10.343z"/></mask></defs><g style="mask:url(#w4spgbs0rc)"><path style="fill:url(#cu2543uood)" d="M0 0h32v32H0z"/></g><path d="M18.816 15c-.414-1.161-1.514-2-2.816-2s-2.402.839-2.816 2H10v-2.992c0-1.109.899-2.008 2.008-2.008H18V8h-5.992A4.007 4.007 0 0 0 8 12.008V17h5.184c.414 1.161 1.514 2 2.816 2s2.402-.839 2.816-2H22v2.992A2.008 2.008 0 0 1 19.992 22H14v2h5.992A4.007 4.007 0 0 0 24 19.992v-4.986S23.997 15 23.994 15h-5.178zM16 17a1.001 1.001 0 0 1 0-2 1.001 1.001 0 0 1 0 2z" style="fill:#001d6c"/></svg>