<svg id="StorageDefender" xmlns="http://www.w3.org/2000/svg" viewBox="0 0 32 32"><defs><linearGradient id="gh4e7lrtia" x1="2300.803" y1="2350" x2="2304.537" y2="2350" gradientTransform="matrix(1 0 0 -1 -2276.711 2375)" gradientUnits="userSpaceOnUse"><stop offset="0" stop-opacity="0"/><stop offset=".9"/></linearGradient><linearGradient id="gmqyy0e6hc" x1="0" y1="32" x2="32" y2="0" gradientUnits="userSpaceOnUse"><stop offset=".1" stop-color="#eb5394"/><stop offset=".9" stop-color="#883ffa"/></linearGradient><mask id="od6hvs05vb" x="0" y="0" width="32" height="32" maskUnits="userSpaceOnUse"><path d="M21.996 30H4c-1.103 0-2-.897-2-2v-6c0-1.103.897-2 2-2h17.996c1.103 0 2 .897 2 2v6c0 1.103-.897 2-2 2zM4 22v6h17.997v-6H4z" style="fill:#fff"/><path style="fill:#fff" d="M5.996 22.997h2v4h-2zM9.996 22.997h2v4h-2zM13.996 22.997h2v4h-2zM17.996 22.997h2v4h-2z"/><g><path d="M29.996 18v-8c0-1.103-.897-2-2-2h-5.997v2h5.997v10H28v4h-3.801v2H28c1.103 0 2-.897 2-2v-6h-.004z" style="fill:#fff"/><path transform="rotate(-180 25.959 25)" style="fill:url(#gh4e7lrtia)" d="M24.091 22.5h3.734v5h-3.734z"/></g></mask></defs><g style="mask:url(#od6hvs05vb)"><path id="Color" style="fill:url(#gmqyy0e6hc)" d="M0 0h32v32H0z"/></g><path style="fill:#001e71" d="M6 8h2v2H6zM14 8h2v2h-2zM2 8h2v2H2z"/><path d="m15 16-2.1-1c-1.7-.8-2.9-2.6-2.9-4.5V4h10v6.5c0 1.9-1.1 3.7-2.9 4.5L15 16zM12 6v4.5c0 1.2.7 2.2 1.7 2.7l1.3.6 1.3-.6c1-.5 1.7-1.6 1.7-2.7V6h-6z" style="fill:#001e71"/></svg>