<svg id="StorageDS8000" xmlns="http://www.w3.org/2000/svg" xmlns:xlink="http://www.w3.org/1999/xlink" viewBox="0 0 32 32"><defs><linearGradient id="53uv8l21pa" x1="1866.425" y1="2237.184" x2="1870.425" y2="2237.184" gradientTransform="translate(-1863.425 -2212.184)" gradientUnits="userSpaceOnUse"><stop offset="0" stop-opacity="0"/><stop offset=".75"/></linearGradient><linearGradient id="y0dtqx2m1b" x1="2034.425" y1="2237.184" x2="2038.425" y2="2237.184" gradientTransform="matrix(-1 0 0 1 2063.425 -2212.184)" xlink:href="#53uv8l21pa"/><linearGradient id="uctvvts00d" x1="0" y1="32" x2="32" y2="0" gradientUnits="userSpaceOnUse"><stop offset=".1" stop-color="#ff4294"/><stop offset=".9" stop-color="#9239ff"/></linearGradient><mask id="gq38f3m36c" x="0" y="0" width="32" height="32" maskUnits="userSpaceOnUse"><path d="M7 10V8H3c-1.103 0-2 .897-2 2v16c0 1.103.897 2 2 2h3v-2H3V10h4z" style="fill:#fff"/><path d="M3 19h4v12H3V19z" style="fill:url(#53uv8l21pa)"/><path d="M29 8h-4v2h4v16h-3v2h3c1.103 0 2-.897 2-2V10c0-1.103-.897-2-2-2z" style="fill:#fff"/><path d="M29 19h-4v12h4V19z" style="fill:url(#y0dtqx2m1b)"/><path d="M23 3H9c-1.103 0-2 .897-2 2v22c0 1.103.897 2 2 2h14c1.103 0 2-.897 2-2V5c0-1.103-.897-2-2-2zM9 5h14v6H9V5zm0 8h14.001v6H9v-6zm0 14v-6h14.001v6H9z" style="fill:#fff"/></mask></defs><g style="mask:url(#gq38f3m36c)"><path id="Color" style="fill:url(#uctvvts00d)" d="M0 0h32v32H0z"/></g><circle cx="12" cy="8" r="1" style="fill:#001e71"/><circle cx="12" cy="16" r="1" style="fill:#001e71"/><circle cx="12" cy="24" r="1" style="fill:#001e71"/></svg>