<svg xmlns="http://www.w3.org/2000/svg" xmlns:xlink="http://www.w3.org/1999/xlink" viewBox="0 0 32 32"><defs><linearGradient id="9fqfrtjpua" x1="21.849" y1="11.537" x2="17.151" y2="1.463" gradientUnits="userSpaceOnUse"><stop offset=".3"/><stop offset=".72" stop-opacity="0"/></linearGradient><linearGradient id="r2whbxo0tb" x1="-1561.859" y1="-75.426" x2="-1559.141" y2="-85.574" gradientTransform="translate(1580 96)" xlink:href="#9fqfrtjpua"/><linearGradient id="sgwteel7xc" x1="-1561.151" y1="-60.463" x2="-1565.849" y2="-70.537" gradientTransform="translate(1576 91)" xlink:href="#9fqfrtjpua"/><linearGradient id="n2843glpdd" x1="21.141" y1="-3.426" x2="23.859" y2="-13.574" gradientTransform="translate(-10 25)" xlink:href="#9fqfrtjpua"/><linearGradient id="pd69u6eyvf" y1="32" x2="32" gradientUnits="userSpaceOnUse"><stop offset=".1" stop-color="#08bdba"/><stop offset=".9" stop-color="#0f62fe"/></linearGradient><mask id="7rcyf77f0e" x="0" y="0" width="32" height="32" maskUnits="userSpaceOnUse"><path d="M19.042 19.042 18 19l-.372-1.372a7.983 7.983 0 0 0-11.29-11.29L4.924 4.924a9.983 9.983 0 0 1 14.118 14.118z" fill="#fff"/><path fill="url(#9fqfrtjpua)" d="M16 2h7v9h-7z"/><path transform="rotate(180 19.5 15.5)" fill="url(#r2whbxo0tb)" d="M16 11h7v9h-7z"/><path d="M20 29.959a9.978 9.978 0 0 1-7.059-17.037L14 13l.355 1.336a7.983 7.983 0 0 0 11.29 11.29L27 26l.059 1.041A9.95 9.95 0 0 1 20 29.959z" fill="#fff"/><path d="m27.059 27.041-1.414-1.415a7.983 7.983 0 0 0-11.29-11.29l-1.414-1.414a9.983 9.983 0 0 1 14.118 14.119z" fill="#fff"/><path transform="rotate(180 12.5 25.5)" fill="url(#sgwteel7xc)" d="M9 21h7v9H9z"/><path fill="url(#n2843glpdd)" d="M9 12h7v9H9z"/><path d="M11.983 21.961A9.978 9.978 0 0 1 4.924 4.924L6 5l.338 1.338a7.983 7.983 0 0 0 11.29 11.29l1.414 1.414a9.951 9.951 0 0 1-7.059 2.919z" fill="#fff"/></mask></defs><g data-name="Layer 2"><g data-name="Light theme icons"><g mask="url(#7rcyf77f0e)"><path fill="url(#pd69u6eyvf)" d="M0 0h32v32H0z"/></g><path d="M20.26 25.981A5.7 5.7 0 0 1 16.2 24.3l1.414-1.414a3.827 3.827 0 0 0 5.289 0 3.738 3.738 0 0 0 0-5.289l1.414-1.414a5.74 5.74 0 0 1-4.058 9.8z" fill="#001d6c"/></g></g></svg>