<svg id="CloudExpertLabs" xmlns="http://www.w3.org/2000/svg" viewBox="0 0 32 32"><defs><linearGradient id="bee05e4w7a" x1="-196" y1="-137.95" x2="-187.754" y2="-137.95" gradientTransform="translate(203.754 163.9)" gradientUnits="userSpaceOnUse"><stop offset=".1"/><stop offset="1" stop-opacity="0"/></linearGradient><linearGradient id="mn28k329kc" x1="0" y1="32" x2="32" y2="0" gradientUnits="userSpaceOnUse"><stop offset=".1" stop-color="#08bdba"/><stop offset=".9" stop-color="#0f62fe"/></linearGradient><mask id="8bhzbm8rkb" x="1" y="4" width="23.073" height="23.95" maskUnits="userSpaceOnUse"><path style="fill:#fff" d="M16.988 4H17h-.012zM18 25H8.495A5.51 5.51 0 0 1 3 19.486a5.502 5.502 0 0 1 4.526-5.402l1.349-.244.259-1.346A8.025 8.025 0 0 1 17 6.001c.507 0 1.009.049 1.512.146a8.009 8.009 0 0 1 4.152 2.19l1.408-1.408a10.003 10.003 0 0 0-7.078-2.928c-4.701.003-8.903 3.331-9.824 8.115A7.504 7.504 0 0 0 1 19.482a7.505 7.505 0 0 0 7.491 7.519H18v-2z"/><g><path transform="rotate(180 11.877 25.95)" style="fill:url(#bee05e4w7a)" d="M7.754 23.95H16v4H7.754z"/><path transform="rotate(180 16.918 25.95)" d="M15.27 23.95h3.297v4H15.27z"/></g></mask></defs><g style="mask:url(#8bhzbm8rkb)"><path style="fill:url(#mn28k329kc)" d="M0 0h32v32H0z"/></g><path d="M30 30h-2v-1.994a3.004 3.004 0 0 0-3-3h-4a3.004 3.004 0 0 0-3 3V30h-2v-1.994a5.006 5.006 0 0 1 5-5h4a5.006 5.006 0 0 1 5 5V30zM23 12.976a3 3 0 1 1 0 6 3 3 0 0 1 0-6m0-2a5 5 0 1 0 .001 10.001A5 5 0 0 0 23 10.976z" style="fill:#001d6c"/></svg>