<svg id="ToolboxProductManagement" xmlns="http://www.w3.org/2000/svg" viewBox="0 0 32 32"><defs><linearGradient id="4jqrq18o2a" x1="72.476" y1="-24.5" x2="82.476" y2="-24.5" gradientTransform="translate(-66.5 49.5)" gradientUnits="userSpaceOnUse"><stop offset="0" stop-opacity="0"/><stop offset=".83"/></linearGradient><linearGradient id="haun4m5bfc" x1="-.018" y1="32" x2="31.982" y2="0" gradientUnits="userSpaceOnUse"><stop offset=".1" stop-color="#ad6bff"/><stop offset=".9" stop-color="#0064ff"/></linearGradient><mask id="5zchhmpwbb" x="-.018" y="0" width="32" height="32" maskUnits="userSpaceOnUse"><path d="M15.976 24H3.982V10h24v5h2v-5c0-1.103-.897-2-2-2h-6V4c0-1.103-.897-2-2-2h-8c-1.103 0-2 .897-2 2v4h-6c-1.103 0-2 .897-2 2v14c0 1.103.897 2 2 2h11.994v-2zM11.982 4h8v4h-8V4z" style="fill:#fff"/><path style="fill:url(#4jqrq18o2a)" d="M5.976 23h10v4h-10z" id="Gradients__x28_black_x29_"/></mask></defs><g style="mask:url(#5zchhmpwbb)"><path style="fill:url(#haun4m5bfc)" d="M-.018 0h32v32h-32z"/></g><path d="m29.426 18.107-6-3a.998.998 0 0 0-.9 0l-6 3a1 1 0 0 0-.55.89v7a1 1 0 0 0 .55.89l6 3a.998.998 0 0 0 .9 0l6-3a1 1 0 0 0 .55-.89v-7a1 1 0 0 0-.55-.89zm-6.45-1 3.76 1.89-3.76 1.88-3.76-1.88 3.76-1.89zm-5 3.5 4 2v4.76l-4-2v-4.76zm6 6.76v-4.75l4-2v4.76l-4 1.99z" style="fill:#001e71"/></svg>