<svg id="TravelIBM" xmlns="http://www.w3.org/2000/svg" viewBox="0 0 32 32"><defs><linearGradient id="fh1lmfbkaa" x1="1001.627" y1="-985.284" x2="1025.372" y2="-971.574" gradientTransform="matrix(1 0 0 -1 -989.928 -966.93)" gradientUnits="userSpaceOnUse"><stop offset=".4" stop-opacity="0"/><stop offset=".75"/></linearGradient><linearGradient id="yqqey19h2b" x1="-2127" y1="-6075.072" x2="-2146" y2="-6094.072" gradientTransform="matrix(1 0 0 -1 2145.072 -6064.072)" gradientUnits="userSpaceOnUse"><stop offset=".25"/><stop offset=".6" stop-opacity="0"/></linearGradient><linearGradient id="dv6oghazhd" x1="1034" y1="-1002" x2="1002" y2="-970" gradientTransform="matrix(1 0 0 -1 -1002 -970)" gradientUnits="userSpaceOnUse"><stop offset=".1" stop-color="#42be65"/><stop offset=".9" stop-color="#007d79"/></linearGradient><mask id="hqzu0nshdc" x="0" y="0" width="32" height="32.001" maskUnits="userSpaceOnUse"><path d="M16.071 30c-7.72 0-14-6.28-14-14s6.28-14 14-14 14 6.28 14 14-6.28 14-14 14zm0-2c6.617 0 12-5.383 12-12s-5.383-12-12-12-12 5.383-12 12 5.383 12 12 12z" style="fill:#fff;stroke-width:0"/><path transform="rotate(90 23.571 11.499)" style="fill:url(#fh1lmfbkaa);stroke-width:0" d="M12.071 3.999h23v15h-23z"/><path transform="rotate(-90 8.572 20.5)" style="fill:url(#yqqey19h2b);stroke-width:0" d="M-2.928 13h23v15h-23z"/><path style="fill:#000;stroke-width:0" d="M16.071 18h14v13h-14zM2.071 1h14v13h-14z"/></mask></defs><g style="mask:url(#hqzu0nshdc)"><path transform="rotate(90 16 16)" style="fill:url(#dv6oghazhd);stroke-width:0" d="M0 0h32v32H0z"/></g><path d="m11.071 8.5 6 2.5V9l-6-3V3a1 1 0 0 0-2 0v3l-6 3v2l6-2.5V14l-3 2v1l4-1 4 1v-1l-3-2V8.5z" style="fill:#001d6c;fill-rule:evenodd;stroke-width:0"/><path d="M28.071 18h-3v-2h-2v2h-1a2 2 0 0 0-1.997 1.997v2.007a2 2 0 0 0 1.997 1.997l4-.003.003 2.003h-6.003v2h3v2h2v-2h1.003a2 2 0 0 0 1.997-1.997v-2.007A2 2 0 0 0 26.074 22l-4 .003L22.071 20h6v-2z" style="fill:#001d6c;stroke-width:0"/></svg>