<svg id="Build_icon_here" data-name="Build icon here" xmlns="http://www.w3.org/2000/svg" viewBox="0 0 32 32"><defs><linearGradient id="pz34cf64va" x1="21" y1="13" x2="27" y2="13" gradientUnits="userSpaceOnUse"><stop offset=".15"/><stop offset="1" stop-opacity="0"/></linearGradient><linearGradient id="llnofqkgyc" y1="32" x2="32" gradientUnits="userSpaceOnUse"><stop offset=".1" stop-color="#a56eff"/><stop offset=".9" stop-color="#0f62fe"/></linearGradient><mask id="oyj67t2usb" x="0" y="0" width="32" height="32" maskUnits="userSpaceOnUse"><path d="M30 30h-8l-1-2h7V14h-6v-2h6a2 2 0 0 1 2 2z" style="fill:#fff"/><path style="fill:url(#pz34cf64va)" d="M21 11h6v4h-6z"/><path d="M22 30H2V4a2 2 0 0 1 2-2h16a2 2 0 0 1 2 2zM4 28h16V4H4z" style="fill:#fff"/></mask></defs><g style="mask:url(#oyj67t2usb)"><path style="fill:url(#llnofqkgyc)" d="M0 0h32v32H0z"/></g><path id="rect2" style="fill:#001d6c" d="M8 8h2v4H8z"/><path id="rect4" style="fill:#001d6c" d="M8 14h2v4H8z"/><path id="rect6" style="fill:#001d6c" d="M14 8h2v4h-2z"/><path id="rect8" style="fill:#001d6c" d="M14 14h2v4h-2z"/><path id="rect10" style="fill:#001d6c" d="M8 20h2v4H8z"/><path id="rect12" style="fill:#001d6c" d="M14 20h2v4h-2z"/></svg>