<svg id="Build_icon_here" data-name="Build icon here" xmlns="http://www.w3.org/2000/svg" viewBox="0 0 32 32"><defs><linearGradient id="hjp1uq4y5a" x1="8" y1="6.5" x2="19" y2="6.5" gradientUnits="userSpaceOnUse"><stop offset=".1"/><stop offset="1" stop-opacity="0"/></linearGradient><linearGradient id="0h3ltnnonc" x1="-7250.004" y1="-1151.998" x2="-7282.004" y2="-1119.998" gradientTransform="translate(7282.004 1151.996)" gradientUnits="userSpaceOnUse"><stop offset=".1" stop-color="#a56eff"/><stop offset=".9" stop-color="#0f62fe"/></linearGradient><mask id="czz66lanxb" x="0" y="0" width="32" height="32" maskUnits="userSpaceOnUse"><path d="M9 6v2h19v19H6.5a2.5 2.5 0 0 1 0-5v-2a4.474 4.474 0 0 0-2.5.762V6.5A2.5 2.5 0 0 1 6.5 4V2A4.505 4.505 0 0 0 2 6.5v18A4.505 4.505 0 0 0 6.5 29H30V6z" style="fill:#f4f4f4"/><path style="fill:url(#hjp1uq4y5a)" d="M8 4h11v5H8z"/><path style="fill:#f4f4f4" d="M9 22H6.5L5 21l1.5-1H7V4h-.5L5 3l1.5-1H9v20z"/></mask></defs><g style="mask:url(#czz66lanxb)"><path transform="rotate(-180 16 16)" style="fill:url(#0h3ltnnonc)" d="M0 0h32v32H0z"/></g><path d="M23 11h-9a2 2 0 0 0-2 2v9a2 2 0 0 0 2 2h5v-2a2 2 0 0 1 2-2v-2a4 4 0 0 0-4 4h-3v-4h2v-2h-2v-3h3v2h2v-2h4v9h-2v2h2a2 2 0 0 0 2-2v-9a2 2 0 0 0-2-2z" style="fill:#001d6c"/></svg>