<svg id="TruataCalibrate" xmlns="http://www.w3.org/2000/svg" viewBox="0 0 32 32"><defs><linearGradient id="7is0j5lwla" x1="9" y1="19" x2="21" y2="19" gradientUnits="userSpaceOnUse"><stop offset=".3" stop-color="#fff"/><stop offset=".8" stop-color="#fff" stop-opacity="0"/></linearGradient><linearGradient id="6kiwdxjm7b" x1="9" y1="24" x2="21" y2="24" gradientUnits="userSpaceOnUse"><stop offset=".2" stop-color="#fff"/><stop offset=".7" stop-color="#fff" stop-opacity="0"/></linearGradient><linearGradient id="9nm6lf5gmc" x1="9" y1="14" x2="21" y2="14" gradientUnits="userSpaceOnUse"><stop offset=".4" stop-color="#fff"/><stop offset=".9" stop-color="#fff" stop-opacity="0"/></linearGradient><linearGradient id="5ywhpc0e3e" y1="32" x2="32" gradientUnits="userSpaceOnUse"><stop offset=".1" stop-color="#a56eff"/><stop offset=".9" stop-color="#0f62fe"/></linearGradient><mask id="ozmuskamxd" x="0" y="0" width="32" height="32" maskUnits="userSpaceOnUse"><path d="M15 28H6V7h3v3h12V7h3v5h2V7a2 2 0 0 0-2-2h-3V4a2 2 0 0 0-2-2h-8a2 2 0 0 0-2 2v1H6a2 2 0 0 0-2 2v21a2 2 0 0 0 2 2h9zM11 4h8v4h-8z" style="fill:#fff"/><path style="fill:url(#7is0j5lwla)" d="M9 18h12v2H9z"/><path style="fill:url(#6kiwdxjm7b)" d="M9 23h12v2H9z"/><path style="fill:url(#9nm6lf5gmc)" d="M9 13h12v2H9z"/></mask></defs><g style="mask:url(#ozmuskamxd)"><path style="fill:url(#5ywhpc0e3e)" d="M0 0h32v32H0z"/></g><path d="M28 21v-3a4 4 0 0 0-8 0v3a2 2 0 0 0-2 2v5a2 2 0 0 0 2 2h8a2 2 0 0 0 2-2v-5a2 2 0 0 0-2-2zm-6-3a2 2 0 0 1 4 0v3h-4zm-2 10v-5h8v5z" style="fill:#001d6c"/></svg>