<svg xmlns="http://www.w3.org/2000/svg" xmlns:xlink="http://www.w3.org/1999/xlink" viewBox="0 0 32 32">
  <defs>
    <linearGradient id="a445127e-76d9-45a8-a68b-7661b266f61e" x1="21" y1="20" x2="21" y2="6" gradientUnits="userSpaceOnUse">
      <stop offset="0.4"/>
      <stop offset="0.9" stop-opacity="0"/>
    </linearGradient>
    <mask id="a508cc55-b3eb-44fc-a641-de3da951aa8f" x="0" y="0" width="32" height="32" maskUnits="userSpaceOnUse">
      <g>
        <circle cx="7" cy="26" r="2" fill="#f4f4f4"/>
        <path d="M10,21V6h4V18h2V6h4V18h2V6h4V18h2V6.005a2.005,2.005,0,0,0-2-2H4.005A2.005,2.005,0,0,0,2,6.005V20a2.005,2.005,0,0,0,2.005,2h6ZM4,20V6H8V20Z" fill="#f4f4f4"/>
        <rect x="13" y="6" width="16" height="14" fill="url(#a445127e-76d9-45a8-a68b-7661b266f61e)"/>
      </g>
    </mask>
    <linearGradient id="a7461a1e-82b6-45bf-81e7-38297abe5546" y1="32" x2="32" gradientUnits="userSpaceOnUse">
      <stop offset="0.1" stop-color="#08bdba"/>
      <stop offset="0.9" stop-color="#0f62fe"/>
    </linearGradient>
  </defs>
  <g id="add32ad4-b0fc-4676-bf0b-ba8fc960529b" data-name="Layer 2">
    <g id="bfed94b1-0683-4643-aa57-d47c19499a2a" data-name="Light theme">
      <g>
        <g mask="url(#a508cc55-b3eb-44fc-a641-de3da951aa8f)">
          <rect width="32" height="32" fill="url(#a7461a1e-82b6-45bf-81e7-38297abe5546)"/>
        </g>
        <path d="M14,26V19H28v7Zm5-11h4v2H19Zm9,2H25V15a2,2,0,0,0-2-2H19a2,2,0,0,0-2,2v2H14a2,2,0,0,0-2,2v7a2,2,0,0,0,2,2H28a2,2,0,0,0,2-2V19A2,2,0,0,0,28,17Z" fill="#001d6c" fill-rule="evenodd"/>
      </g>
    </g>
  </g>
</svg>
