<svg id="turbonomic" xmlns="http://www.w3.org/2000/svg" viewBox="0 0 32 32"><defs><linearGradient id="uowxdsqmza" x1="-175.498" y1="-7533.501" x2="-156.499" y2="-7514.502" gradientTransform="matrix(1 0 0 -1 175.999 -7513.001)" gradientUnits="userSpaceOnUse"><stop offset=".3" stop-opacity="0"/><stop offset=".8"/></linearGradient><linearGradient id="bduwdv3qfc" data-name="Green swatch" x1="0" y1="32" x2="32" y2="0" gradientUnits="userSpaceOnUse"><stop offset=".1" stop-color="#00a33a"/><stop offset=".9" stop-color="#0074c8"/></linearGradient><mask id="vjbinathgb" x="0" y="0" width="32" height="32" maskUnits="userSpaceOnUse"><path d="M30 16c0 7.72-6.28 14-14 14S2 23.72 2 16 8.28 2 16 2s14 6.28 14 14zm-2 0c0-6.617-5.383-12-12-12S4 9.383 4 16s5.383 12 12 12 12-5.383 12-12z" style="fill:#fff"/><path style="fill:url(#uowxdsqmza)" d="M1 1h18v20H1z"/></mask></defs><g style="mask:url(#vjbinathgb)"><path style="fill:url(#bduwdv3qfc)" d="M0 0h32v32H0z"/></g><path d="M17 13.184V2h-2v11.184A2.996 2.996 0 0 0 13 16c0 1.654 1.346 3 3 3s3-1.346 3-3a2.996 2.996 0 0 0-2-2.816zM16 17a1.001 1.001 0 0 1 0-2 1.001 1.001 0 0 1 0 2z" style="fill:#001e71"/></svg>