<svg id="unassigned68" xmlns="http://www.w3.org/2000/svg" viewBox="0 0 32 32"><defs><linearGradient id="04hoyg2ida" x1="910.239" y1="-2730.99" x2="915.239" y2="-2730.99" gradientTransform="matrix(1.98 0 0 .354 -1786.881 989.801)" gradientUnits="userSpaceOnUse"><stop offset=".1" stop-opacity="0"/><stop offset="1"/></linearGradient><linearGradient id="su8t1l35jc" x1="0" y1="32" x2="32" y2="0" gradientUnits="userSpaceOnUse"><stop offset=".1" stop-color="#a56eff"/><stop offset=".9" stop-color="#0f62fe"/></linearGradient><mask id="rb1421qepb" x="0" y="0" width="32" height="32" maskUnits="userSpaceOnUse"><path d="M16 4.828 27.172 16 16 27.172 4.828 16l11.17-11.171H16m0-2.001a1.99 1.99 0 0 0-1.414.586L3.414 14.586a2 2 0 0 0 0 2.828l11.172 11.172c.391.391.902.586 1.414.586s1.024-.195 1.414-.586L30 16 17.414 3.414A1.992 1.992 0 0 0 16 2.828z" style="fill:#fff"/><path transform="rotate(-45 24.5 15.5)" d="M20.257 10.55h8.485v9.899h-8.485z"/><path transform="rotate(-45 20.25 24.25)" style="fill:url(#04hoyg2ida)" d="M15.3 22.482h9.899v3.536H15.3z"/></mask></defs><g style="mask:url(#rb1421qepb)"><path style="fill:url(#su8t1l35jc)" d="M0 0h32v32H0z"/></g><path d="m25 11-1.414 1.414L27.171 16l-3.585 3.586L25 21l5-5-5-5zm-11 5 5 5 1.414-1.414L16.829 16l3.585-3.586L19 11l-5 5z" style="fill:#001d6c"/></svg>