<svg id="unassigned67" xmlns="http://www.w3.org/2000/svg" viewBox="0 0 32 32"><defs><linearGradient id="r3qvzuetia" x1="4.124" y1="8.965" x2="15.163" y2="8.965" gradientTransform="matrix(1 0 0 -1 0 34)" gradientUnits="userSpaceOnUse"><stop offset=".2" stop-opacity="0"/><stop offset=".9"/></linearGradient><linearGradient id="4w7wem2cub" x1="16.722" y1="24.982" x2="27.875" y2="24.982" gradientTransform="matrix(1 0 0 -1 0 34)" gradientUnits="userSpaceOnUse"><stop offset=".2" stop-opacity="0"/><stop offset=".956"/></linearGradient><linearGradient id="gy1lh0qrkd" x1=".362" y1="2.362" x2="31.63" y2="33.63" gradientTransform="matrix(1 0 0 -1 0 34)" gradientUnits="userSpaceOnUse"><stop offset=".1" stop-color="#a36efd"/><stop offset=".9" stop-color="#0e61fc"/></linearGradient><mask id="mcd5nsvymc" x="0" y="0" width="32" height="32" maskUnits="userSpaceOnUse"><g id="zku9j9s8fc"><circle cx="7" cy="6" r="1" style="fill:#fff"/><circle cx="11" cy="6" r="1" style="fill:#fff"/><path d="M28 2H4a2 2 0 0 0-2 2v20a2 2 0 0 0 2 2h11v-2H4V10h23.588V8H4V4h24v12h2V4a2 2 0 0 0-2-2z" style="fill:#fff"/><path d="M4.124 23.035h11.04v4H4.124v-4z" style="fill:url(#r3qvzuetia)"/><path d="M16.722 7.018h11.153v4H16.722v-4z" style="fill:url(#4w7wem2cub)"/></g></mask></defs><path d="m26 18-1.414 1.414L28.171 23l-3.585 3.586L26 28l5-5-5-5zm-11 5 5 5 1.414-1.414L17.829 23l3.585-3.586L20 18l-5 5z" style="fill:#001d6c"/><g style="mask:url(#mcd5nsvymc)"><path d="M0 0h32v32H0V0z" style="fill:url(#gy1lh0qrkd)"/></g></svg>