<svg id="unassigned69" xmlns="http://www.w3.org/2000/svg" viewBox="0 0 32 32"><defs><linearGradient id="17xtg71q5a" x1="16" y1="16" x2="30" y2="16" gradientUnits="userSpaceOnUse"><stop offset="0" stop-color="#161616" stop-opacity=".05"/><stop offset="1" stop-color="#161616" stop-opacity=".3"/></linearGradient><linearGradient id="vfr64qtz4b" x1="-5141.387" y1="-3043.148" x2="-5121.938" y2="-3043.148" gradientTransform="rotate(-45 947.346 -6370.412) scale(.824)" gradientUnits="userSpaceOnUse"><stop offset="0" stop-color="#bf88fd"/><stop offset="1" stop-color="#138afd"/></linearGradient></defs><path d="M16 2h12a2 2 0 0 1 2 2v24a2 2 0 0 1-2 2H16V2z" style="fill:url(#17xtg71q5a)"/><path d="M4 2h12v14H2V4a2 2 0 0 1 2-2zM2 16h14v14H4a2 2 0 0 1-2-2V16z" style="fill:#011e71"/><path style="fill:url(#vfr64qtz4b)" d="M15.985 1.985 2 15.971l14.015 14.014-.03-28z"/><path style="fill:none" d="M0 0h32v32H0z"/></svg>