<svg id="unassigned60" xmlns="http://www.w3.org/2000/svg" xmlns:xlink="http://www.w3.org/1999/xlink" viewBox="0 0 32 32"><defs><linearGradient id="c0zijnijxa" x1="2007.5" y1="-5308.5" x2="2013.5" y2="-5308.5" gradientTransform="translate(-1993.5 5334.5)" gradientUnits="userSpaceOnUse"><stop offset="0" stop-opacity="0"/><stop offset=".9"/></linearGradient><linearGradient id="wgcwzyf82b" y1="-5301.5" y2="-5301.5" gradientTransform="translate(-2000.5 5327.5)" xlink:href="#c0zijnijxa"/><linearGradient id="9772iasp5c" y1="-5315.5" y2="-5315.5" gradientTransform="translate(-1986.5 5341.5)" xlink:href="#c0zijnijxa"/><linearGradient id="yat9z6w1qe" x1="0" y1="32" x2="32" y2="0" gradientUnits="userSpaceOnUse"><stop offset=".1" stop-color="#0fbbb8"/><stop offset=".9" stop-color="#0e61fc"/></linearGradient><mask id="nh0fs1yqvd" x="0" y="0" width="32" height="32" maskUnits="userSpaceOnUse"><path style="fill:#fff" d="M16 18h2v10h-2zM23 21h2v7h-2z"/><path transform="rotate(90 17 26)" style="fill:url(#c0zijnijxa)" d="M14 24h6v4h-6z"/><path style="fill:#fff" d="M9 15h2v13H9z"/><path transform="rotate(90 10 26)" style="fill:url(#wgcwzyf82b)" d="M7 24h6v4H7z"/><path transform="rotate(90 24 26)" style="fill:url(#9772iasp5c)" d="M21 24h6v4h-6z"/><path d="M4 2H2v26a2 2 0 0 0 2 2h26v-2H4V2z" style="fill:#fff"/></mask></defs><g style="mask:url(#nh0fs1yqvd)"><path style="fill:url(#yat9z6w1qe)" d="M0 0h32v32H0z"/></g><path d="M29.911 13.936 23.628 2.371a.718.718 0 0 0-1.257 0l-6.283 11.565a.721.721 0 0 0 .632 1.065h12.56a.719.719 0 0 0 .631-1.065zM22.249 6h1.5v4h-1.5V6zm.75 7a1 1 0 1 1 0-2 1 1 0 0 1 0 2z" style="fill:#001d6c"/></svg>