<svg id="unassigned59" xmlns="http://www.w3.org/2000/svg" viewBox="0 0 32 32"><defs><linearGradient id="0qiuna047a" x1="6.157" y1="29" x2="18" y2="29" gradientUnits="userSpaceOnUse"><stop offset=".1" stop-opacity="0"/><stop offset=".8"/></linearGradient><linearGradient id="lx4r4ittnc" x1="0" y1="1.606" x2="32" y2="33.606" gradientTransform="matrix(1 0 0 -1 0 33.606)" gradientUnits="userSpaceOnUse"><stop offset=".1" stop-color="#0fbbb8"/><stop offset=".9" stop-color="#0e61fc"/></linearGradient><mask id="qf0xd262yb" x="0" y="0" width="32" height="32" maskUnits="userSpaceOnUse"><path d="M16 23a1.5 1.5 0 1 0 .001 3.001A1.5 1.5 0 0 0 16 23zM15 12h2v9h-2z" style="fill:#fff"/><path d="M17 30H3a1 1 0 0 1-.888-1.461l13.001-25c.172-.331.53-.539.887-.539s.715.208.887.539l6.76 13-1.774.923L16 6.168 4.647 28H17v2z" style="fill:#fff"/><path style="fill:url(#0qiuna047a)" d="M6.157 27H18v4H6.157z"/></mask></defs><g style="mask:url(#qf0xd262yb)"><path d="M0 0h32v32H0V0z" style="fill:url(#lx4r4ittnc)"/></g><path d="M24 25h2v5h-2v-5zm-4-2h2v7h-2v-7zm8-3h2v10h-2V20z" style="fill:#001d6c"/></svg>