<svg id="ProductName" xmlns="http://www.w3.org/2000/svg" viewBox="0 0 32 32"><defs><linearGradient id="fu48wtq3ga" x1="30.092" y1="58.197" x2="39.751" y2="60.785" gradientTransform="matrix(1.08043 -.25885 .2895 .96614 -37.516 -28.079)" gradientUnits="userSpaceOnUse"><stop offset=".01" stop-opacity="0"/><stop offset=".75"/></linearGradient><linearGradient id="it0gfy857c" x1="0" y1="32" x2="32" y2="0" gradientUnits="userSpaceOnUse"><stop offset=".1" stop-color="#08bdba"/><stop offset=".9" stop-color="#0f62fe"/></linearGradient><mask id="ujg3gc84ub" x="0" y="0" width="32" height="32" maskUnits="userSpaceOnUse"><path id="GradientStroke1" d="M21.704 23A7.009 7.009 0 0 0 15 18H9a7.009 7.009 0 0 0-7 7v5h2v-5a5.006 5.006 0 0 1 5-5h6a5.002 5.002 0 0 1 4.576 3h2.128z" style="fill:#fff"/><path id="Fade" transform="rotate(30 17.428 20.346)" style="fill:url(#fu48wtq3ga)" d="M11.836 16.847H23.02v7H11.836z"/><path id="GradientStroke2" d="M12 2a7 7 0 1 0 0 14 7 7 0 0 0 0-14zm0 12a5 5 0 0 1-5-5 5.006 5.006 0 0 1 5-5 5 5 0 0 1 0 10z" style="fill:#fff"/></mask></defs><g style="mask:url(#ujg3gc84ub)"><path style="fill:url(#it0gfy857c)" d="M0 0h32v32H0z"/></g><path d="M26 22c-1.859 0-3.411 1.28-3.858 3H10v5h2v-3h2v3h2v-3h6.142c.447 1.72 1.999 3 3.858 3 2.206 0 4-1.794 4-4s-1.794-4-4-4zm0 6c-1.103 0-2-.897-2-2s.897-2 2-2 2 .897 2 2-.897 2-2 2z" style="fill:#001d6c"/></svg>