<svg id="unassigned2" xmlns="http://www.w3.org/2000/svg" viewBox="0 0 32 32"><defs><linearGradient id="vb7dpy18ga" x1="16" y1="30" x2="16" y2="16" gradientUnits="userSpaceOnUse"><stop offset=".5" stop-color="#fff"/><stop offset="1"/></linearGradient><linearGradient id="c0nnuy7zdc" x1="-1210" y1="32" x2="-1242" y2="0" gradientTransform="matrix(1 0 0 -1 1242 32)" gradientUnits="userSpaceOnUse"><stop offset=".1" stop-color="#3ddbd9"/><stop offset=".9" stop-color="#4589ff"/></linearGradient><linearGradient id="gttkybuqve" x1="-1210" y1="32" x2="-1242" y2="0" gradientTransform="matrix(1 0 0 -1 1242 32)" gradientUnits="userSpaceOnUse"><stop offset=".1" stop-color="#08bdba"/><stop offset=".9" stop-color="#0f62fe"/></linearGradient><mask id="muyqleydgb" x="0" y="0" width="32" height="32" maskUnits="userSpaceOnUse"><path d="M24 16v12H8V16H6v12c0 1.1.9 2 2 2h16c1.1 0 2-.9 2-2V16h-2z" style="fill:url(#vb7dpy18ga);stroke-width:0"/><path style="fill:#fff;stroke-width:0" d="M10 19h12v2H10zM10 23h12v2H10z"/></mask><mask id="5yvg9cyk3d" x="0" y="0" width="32" height="32" maskUnits="userSpaceOnUse"><path d="M24 16v12H8V16H6v12c0 1.1.9 2 2 2h16c1.1 0 2-.9 2-2V16h-2z" style="fill:url(#vb7dpy18ga);stroke-width:0"/><path style="fill:#fff;stroke-width:0" d="M10 19h12v2H10zM10 23h12v2H10z"/></mask></defs><g style="mask:url(#muyqleydgb)"><path transform="rotate(180 16 16)" style="fill:url(#c0nnuy7zdc);stroke-width:0" d="M0 0h32v32H0z"/></g><path d="M26 14v-4c0-.3-.1-.5-.3-.7l-7-7c-.2-.2-.4-.3-.7-.3H8c-1.1 0-2 .9-2 2v10H2v2h28v-2h-4zm-8-9.6 5.6 5.6H18V4.4zM8 4h8v6c0 1.1.9 2 2 2h6v2H8V4z" style="fill:#f4f4f4;stroke-width:0"/><g style="mask:url(#5yvg9cyk3d)"><path transform="rotate(180 16 16)" style="fill:url(#gttkybuqve);stroke-width:0" d="M0 0h32v32H0z"/></g><path d="M26 14v-4c0-.3-.1-.5-.3-.7l-7-7c-.2-.2-.4-.3-.7-.3H8c-1.1 0-2 .9-2 2v10H2v2h28v-2h-4zm-8-9.6 5.6 5.6H18V4.4zM8 4h8v6c0 1.1.9 2 2 2h6v2H8V4z" style="fill:#001d6c;stroke-width:0"/></svg>