<svg id="unassigned" xmlns="http://www.w3.org/2000/svg" viewBox="0 0 32 32"><defs><linearGradient id="iau0ovjrea" x1="-140" y1="-121.5" x2="-131" y2="-121.5" gradientTransform="matrix(1 0 0 -1 141 -102)" gradientUnits="userSpaceOnUse"><stop offset="0" stop-opacity="0"/><stop offset=".9"/></linearGradient><linearGradient id="4n6qzxyzdc" x1="0" y1="32" x2="32" y2="0" gradientUnits="userSpaceOnUse"><stop offset=".1" stop-color="#08bdba"/><stop offset=".9" stop-color="#0f62fe"/></linearGradient><mask id="prllws986b" x="0" y="0" width="32" height="32" maskUnits="userSpaceOnUse"><path d="M4 16v5c0 3.86 3.14 7 7 7h3v-2h-3c-2.757 0-5-2.243-5-5v-5H4z" style="fill:#fff"/><path transform="rotate(-90 5.5 19.5)" style="fill:url(#iau0ovjrea)" d="M1 17h9v5H1z"/><path style="fill:#fff" d="m23 7.629-2.59-2.59L19 6.449l4 4 7-7-1.41-1.41L23 7.629z"/></mask></defs><g style="mask:url(#prllws986b)"><path style="fill:url(#4n6qzxyzdc)" d="M0 0h32v32H0z"/></g><path d="M2 14v2h2v-2a1 1 0 0 1 1-1h6a1 1 0 0 1 1 1v2h2v-2a3 3 0 0 0-3-3H5a3 3 0 0 0-3 3zM8 2a4 4 0 1 0 0 8 4 4 0 0 0 0-8zm0 6a2 2 0 1 1-.001-3.999A2 2 0 0 1 8 8zM29 30H17a1 1 0 0 1-1-1V19a1 1 0 0 1 1-1h4c.265 0 .52.105.707.293L23.414 20H29a1 1 0 0 1 1 1v8a1 1 0 0 1-1 1zm-11-2h10v-6h-5a.997.997 0 0 1-.707-.293L20.586 20H18v8z" style="fill:#001d6c"/></svg>