<svg id="unassigned" xmlns="http://www.w3.org/2000/svg" viewBox="0 0 32 32"><defs><linearGradient id="c38r5w2aya" x1="6" y1="25.5" x2="27" y2="25.5" gradientUnits="userSpaceOnUse"><stop offset=".1" stop-opacity="0"/><stop offset=".75"/></linearGradient><linearGradient id="ffv1t6e7rc" x1="0" y1="32" x2="32" y2="0" gradientUnits="userSpaceOnUse"><stop offset=".2" stop-color="#8a3ffc"/><stop offset=".8" stop-color="#30b0ff"/></linearGradient><mask id="aomy489hab" x="0" y="0" width="32" height="32" maskUnits="userSpaceOnUse"><path d="M15 29c-4.962 0-9-4.038-9-9V7.618l9-4.5 11 5.5V6.382l-11-5.5-11 5.5V20c0 6.065 4.935 11 11 11s11-4.935 11-11h-2c0 4.962-4.038 9-9 9z" style="fill:#fff;stroke-width:0"/><path style="fill:url(#c38r5w2aya);stroke-width:0" d="M6 19h21v13H6z"/></mask></defs><g style="mask:url(#aomy489hab)"><path style="fill:url(#ffv1t6e7rc);stroke-width:0" d="M0 0h32v32H0z"/></g><path d="M26 20c0-.552-.111-1.074-.278-1.572l1.84-1.062-1-1.732-1.839 1.062A4.972 4.972 0 0 0 22 15.102v-2.101h-2v2.101a4.983 4.983 0 0 0-2.723 1.594l-1.839-1.062-1 1.732 1.84 1.062C16.112 18.925 16 19.447 16 20s.111 1.074.278 1.572l-1.84 1.062 1 1.732 1.839-1.062A4.972 4.972 0 0 0 20 24.898v2.101h2v-2.101a4.983 4.983 0 0 0 2.723-1.594l1.839 1.062 1-1.732-1.84-1.062A4.936 4.936 0 0 0 26 20zm-5 3c-1.654 0-3-1.346-3-3s1.346-3 3-3 3 1.346 3 3-1.346 3-3 3z" style="fill:#001d6c;stroke-width:0"/></svg>