<svg id="unassigned61" xmlns="http://www.w3.org/2000/svg" xmlns:xlink="http://www.w3.org/1999/xlink" viewBox="0 0 32 32"><defs><linearGradient id="m5kq8nkura" x1="2007.5" y1="-5308.5" x2="2013.5" y2="-5308.5" gradientTransform="translate(-1993.5 5334.5)" gradientUnits="userSpaceOnUse"><stop offset="0" stop-opacity="0"/><stop offset=".9"/></linearGradient><linearGradient id="pjaf5q0sib" y1="-5301.5" y2="-5301.5" gradientTransform="translate(-2000.5 5327.5)" xlink:href="#m5kq8nkura"/><linearGradient id="9btfygzdjc" y1="-5315.5" y2="-5315.5" gradientTransform="translate(-1986.5 5341.5)" xlink:href="#m5kq8nkura"/><linearGradient id="m8gv2j6tue" x1="0" y1="32" x2="32" y2="0" gradientUnits="userSpaceOnUse"><stop offset=".1" stop-color="#0fbbb8"/><stop offset=".9" stop-color="#0e61fc"/></linearGradient><mask id="vfr8yap0gd" x="0" y="0" width="32" height="32" maskUnits="userSpaceOnUse"><path style="fill:#fff" d="M16 18h2v10h-2zM23 21h2v7h-2z"/><path transform="rotate(90 17 26)" style="fill:url(#m5kq8nkura)" d="M14 24h6v4h-6z"/><path style="fill:#fff" d="M9 15h2v13H9z"/><path transform="rotate(90 10 26)" style="fill:url(#pjaf5q0sib)" d="M7 24h6v4H7z"/><path transform="rotate(90 24 26)" style="fill:url(#9btfygzdjc)" d="M21 24h6v4h-6z"/><path d="M4 2H2v26a2 2 0 0 0 2 2h26v-2H4V2z" style="fill:#fff"/></mask></defs><g style="mask:url(#vfr8yap0gd)"><path style="fill:url(#m8gv2j6tue)" d="M0 0h32v32H0z"/></g><path style="fill:#001d6c" d="M23 7.59 20.41 5 19 6.41l4 4 7-7L28.59 2 23 7.59z"/></svg>