<svg id="unassigned47" xmlns="http://www.w3.org/2000/svg" viewBox="0 0 32 32"><defs><linearGradient id="ycs3nxn5ma" x1="18.157" y1="29" x2="30" y2="29" gradientUnits="userSpaceOnUse"><stop offset=".1" stop-opacity="0"/><stop offset=".8"/></linearGradient><linearGradient id="dfdyz318lc" x1="0" y1="1.606" x2="32" y2="33.606" gradientTransform="matrix(1 0 0 -1 0 33.606)" gradientUnits="userSpaceOnUse"><stop offset=".1" stop-color="#0fbbb8"/><stop offset=".9" stop-color="#0e61fc"/></linearGradient><mask id="d4qcwtsdnb" x="0" y="0" width="32" height="32" maskUnits="userSpaceOnUse"><path d="M29 30H3a1 1 0 0 1-.888-1.461l13.001-25c.172-.331.53-.539.887-.539s.715.208.887.539l6.76 13-1.774.923L16 6.168 4.647 28H29v2z" style="fill:#fff"/><path style="fill:url(#ycs3nxn5ma)" d="M18.157 27H30v4H18.157z"/></mask></defs><g style="mask:url(#d4qcwtsdnb)"><path d="M0 0h32v32H0V0z" style="fill:url(#dfdyz318lc)"/></g><path id="_Transparent_Rectangle_" data-name="Transparent Rectangle" style="fill:none" d="M0 0h32v32H0z"/><path style="fill:#001d6c" d="M20 21h2v4h-2zM25 19h2v6h-2zM15 15h2v10h-2z"/></svg>