<svg id="unassignedlight" xmlns="http://www.w3.org/2000/svg" viewBox="0 0 32 32"><defs><linearGradient id="noketzpjpa" x1="6" y1="25.5" x2="27" y2="25.5" gradientUnits="userSpaceOnUse"><stop offset=".1" stop-opacity="0"/><stop offset=".75"/></linearGradient><linearGradient id="gdhnd74q0c" x1="0" y1="32" x2="32" y2="0" gradientUnits="userSpaceOnUse"><stop offset=".2" stop-color="#8a3ffc"/><stop offset=".8" stop-color="#30b0ff"/></linearGradient><mask id="nuq9sahg3b" x="0" y="0" width="32" height="32" maskUnits="userSpaceOnUse"><path d="M15 29c-4.962 0-9-4.038-9-9V7.618l9-4.5 11 5.5V6.382l-11-5.5-11 5.5V20c0 6.065 4.935 11 11 11s11-4.935 11-11h-2c0 4.962-4.038 9-9 9z" style="fill:#fff;stroke-width:0"/><path style="fill:url(#noketzpjpa);stroke-width:0" d="M6 19h21v13H6z"/></mask></defs><g style="mask:url(#nuq9sahg3b)"><path style="fill:url(#gdhnd74q0c);stroke-width:0" d="M0 0h32v32H0z"/></g><path style="fill:#001d6c;stroke-width:0" d="M16 14h2v2h-2zM16 19h2v2h-2zM16 24h2v2h-2zM20 14h8v2h-8zM20 19h8v2h-8zM20 24h8v2h-8z"/></svg>