<svg id="unassigned" xmlns="http://www.w3.org/2000/svg" viewBox="0 0 32 32"><defs><linearGradient id="e7v0skfaba" x1="1956.87" y1="-280.733" x2="1956.706" y2="-286.782" gradientTransform="matrix(1.385 0 0 1.116 -2699.426 326.445)" gradientUnits="userSpaceOnUse"><stop offset=".1" stop-opacity="0"/><stop offset=".8"/></linearGradient><linearGradient id="89cw6xlwuc" data-name="New Gradient Swatch 6" x1="0" y1="1.606" x2="32" y2="33.606" gradientTransform="matrix(1 0 0 -1 0 33.606)" gradientUnits="userSpaceOnUse"><stop offset=".1" stop-color="#43bc65"/><stop offset=".9" stop-color="#027d79"/></linearGradient><mask id="y1h9umhh6b" x="0" y="0" width="32" height="32" maskUnits="userSpaceOnUse"><path d="M30 30H4c-1.103 0-2-.897-2-2V2h2v26h26v2z" style="fill:#fff;stroke-width:0"/><path d="m23.003 26-.054-.001a1.004 1.004 0 0 1-.842-.551L12.914 7.08l-3.195 5.346L8 11.401l4.132-6.914c.187-.313.541-.494.896-.487.366.014.695.226.858.552l9.224 18.429 2.204-3.424 1.684 1.082-3.155 4.902a1.002 1.002 0 0 1-.842.459z" style="fill:#fff;stroke-width:0"/><path transform="rotate(-150 10.141 9.793)" style="fill:url(#e7v0skfaba);stroke-width:0" d="M8.756 6.445h2.769v6.696H8.756z"/></mask></defs><g style="mask:url(#y1h9umhh6b)"><path d="M0 0h32v32H0V0z" style="fill:url(#89cw6xlwuc);stroke-width:0"/></g><path style="fill:#001d6c;stroke-width:0" d="M6 15h2v2H6zM12 15h2v2h-2zM22 15h2v2h-2zM28 15h2v2h-2z"/><path id="_Transparent_Rectangle_" data-name="Transparent Rectangle" style="fill:none;stroke-width:0" d="M0 0h32v32H0z"/></svg>