<svg id="unassigned" xmlns="http://www.w3.org/2000/svg" viewBox="0 0 32 32"><defs><linearGradient id="grgusihi1a" x1="6" y1="25.5" x2="27" y2="25.5" gradientUnits="userSpaceOnUse"><stop offset=".1" stop-opacity="0"/><stop offset=".75"/></linearGradient><linearGradient id="xs1qdcxqgc" x1="0" y1="32" x2="32" y2="0" gradientUnits="userSpaceOnUse"><stop offset=".2" stop-color="#8a3ffc"/><stop offset=".8" stop-color="#30b0ff"/></linearGradient><mask id="pq4dy05jnb" x="0" y="0" width="32" height="32" maskUnits="userSpaceOnUse"><path d="M15 29c-4.962 0-9-4.038-9-9V7.618l9-4.5 11 5.5V6.382l-11-5.5-11 5.5V20c0 6.065 4.935 11 11 11s11-4.935 11-11h-2c0 4.962-4.038 9-9 9z" style="fill:#fff"/><path style="fill:url(#grgusihi1a)" d="M6 19h21v13H6z"/></mask></defs><g style="mask:url(#pq4dy05jnb)"><path style="fill:url(#xs1qdcxqgc)" d="M0 0h32v32H0z"/></g><path d="M22.433 20.019A3.96 3.96 0 0 0 23 18c0-2.206-1.794-4-4-4-.356 0-.694.062-1.023.149l2.437 2.437a2.002 2.002 0 0 1-2.828 2.828l-2.437-2.436A3.926 3.926 0 0 0 15 18.001c0 2.206 1.794 4 4 4 .74 0 1.424-.215 2.019-.567l5.567 5.567L28 25.587l-5.567-5.567z" style="fill:#001d6c"/></svg>