<svg id="unassigned" xmlns="http://www.w3.org/2000/svg" viewBox="0 0 32 32"><defs><linearGradient id="ph98oxesta" x1="30.092" y1="58.197" x2="39.751" y2="60.785" gradientTransform="matrix(1.08043 -.25885 .2895 .96614 -37.516 -28.079)" gradientUnits="userSpaceOnUse"><stop offset=".01" stop-opacity="0"/><stop offset=".75"/></linearGradient><linearGradient id="616ua1sh6c" x1="0" y1="32" x2="32" y2="0" gradientUnits="userSpaceOnUse"><stop offset=".1" stop-color="#08bdba"/><stop offset=".9" stop-color="#0f62fe"/></linearGradient><mask id="lcl47rpbub" x="0" y="0" width="32" height="32" maskUnits="userSpaceOnUse"><path id="GradientStroke1" d="M21.704 23A7.009 7.009 0 0 0 15 18H9a7.009 7.009 0 0 0-7 7v5h2v-5a5.006 5.006 0 0 1 5-5h6a5.002 5.002 0 0 1 4.576 3h2.128z" style="fill:#fff"/><path id="Fade" transform="rotate(30 17.428 20.346)" style="fill:url(#ph98oxesta)" d="M11.836 16.847H23.02v7H11.836z"/><path id="GradientStroke2" d="M12 2a7 7 0 1 0 0 14 7 7 0 0 0 0-14zm0 12a5 5 0 0 1-5-5 5.006 5.006 0 0 1 5-5 5 5 0 0 1 0 10z" style="fill:#fff"/></mask></defs><g style="mask:url(#lcl47rpbub)"><path style="fill:url(#616ua1sh6c)" d="M0 0h32v32H0z"/></g><path style="fill:#001d6c" d="m23 27.18-2.59-2.59L19 26l4 4 7-7-1.41-1.41L23 27.18z"/></svg>