<svg id="UnifiedKeyOrchestratorforIBMzOS" xmlns="http://www.w3.org/2000/svg" viewBox="0 0 32 32"><defs><linearGradient id="5mr9u1x5ua" x1="6.604" y1="28.604" x2="18.604" y2="16.604" gradientUnits="userSpaceOnUse"><stop offset=".61" stop-color="#fff"/><stop offset=".85" stop-color="#fff" stop-opacity="0"/></linearGradient><linearGradient id="70zzpniakc" x1="0" y1="32" x2="32" y2="0" gradientUnits="userSpaceOnUse"><stop offset=".1" stop-color="#a56eff"/><stop offset=".9" stop-color="#0f62fe"/></linearGradient><mask id="e02buut8nb" x="0" y="0" width="32" height="32" maskUnits="userSpaceOnUse"><path d="M21 2a9 9 0 0 0-9 9c0 .908.143 1.78.393 2.606L2 24v6h6l-.828-2H4v-3.172l10.726-10.727-.002-.003A6.964 6.964 0 0 1 14 10.999c0-3.86 3.14-7 7-7s7 3.14 7 7-3.14 7-7 7a6.956 6.956 0 0 1-4-1.264v2.317c1.206.6 2.561.947 4 .947A9 9 0 0 0 21 2z" style="fill:#fff"/><path d="M16 16h14v5H16z"/><circle cx="22" cy="10" r="2" style="fill:#fff"/><path style="fill:url(#5mr9u1x5ua)" d="m18.586 16.586-4.793 4.793L12.414 20 11 21.414l1.379 1.379-1.586 1.586L9.414 23 8 24.414l1.379 1.379-2.793 2.793L8 30l12-12-1.414-1.414z"/></mask></defs><g style="mask:url(#e02buut8nb)"><path style="fill:url(#70zzpniakc)" d="M0 0h32v32H0z"/></g><path style="fill:#001d6c" d="m30.696 21.866-1-1.732L26 22.268V18h-2v4.268l-3.696-2.134-1 1.732L23 24l-3.696 2.134 1 1.732L24 25.732V30h2v-4.268l3.696 2.134 1-1.732L27 24l3.696-2.134z"/></svg>