<svg id="VSIonVPCRegulatedIndustries" xmlns="http://www.w3.org/2000/svg" xmlns:xlink="http://www.w3.org/1999/xlink" viewBox="0 0 32 32"><defs><linearGradient id="mlygtovsba" x1="-1855.233" y1="-2992.415" x2="-1855.233" y2="-3012.031" gradientTransform="matrix(1.06 0 0 -.669 1974.952 -2002.518)" gradientUnits="userSpaceOnUse"><stop offset="0"/><stop offset=".8" stop-opacity="0"/></linearGradient><linearGradient id="8dhsshsq0b" x1="328.503" y1="-6451.741" x2="328.503" y2="-6471.357" gradientTransform="matrix(1.06 0 0 .669 -338.881 4348.358)" xlink:href="#mlygtovsba"/><linearGradient id="6eivpg8b3c" x1="-953.282" y1="-6542.241" x2="-953.282" y2="-6548.221" gradientTransform="matrix(1.06 0 0 .669 1037.254 4389.917)" xlink:href="#mlygtovsba"/><linearGradient id="3sgbo1ppad" x1="-1915.958" y1="-3182.328" x2="-1915.958" y2="-3189.923" gradientTransform="matrix(1.06 0 0 .669 2049.643 2135.297)" xlink:href="#mlygtovsba"/><linearGradient id="xmgr5boihf" x1="0" y1="32" x2="32" y2="0" gradientUnits="userSpaceOnUse"><stop offset=".1" stop-color="#ee5396"/><stop offset=".9" stop-color="#8a3ffc"/></linearGradient><mask id="2vi1inb1pe" x="0" y="-1.312" width="32" height="34.63" maskUnits="userSpaceOnUse"><path d="M16 30.019c-7.72 0-14-6.28-14-14s6.28-14 14-14 14 6.28 14 14-6.28 14-14 14zm0-26c-6.617 0-12 5.383-12 12s5.383 12 12 12 12-5.383 12-12-5.383-12-12-12z" style="fill:#fff"/><path d="M16 16.019h14.708v14.708H16zM7 20.019l-6 5.494V6.826l6 5.015v8.178zM22 1.019h8.901v9.18H22z"/><path transform="rotate(-135 9.193 5.574)" style="fill:url(#mlygtovsba)" d="M6.014-.986h6.357v13.12H6.014z"/><path transform="rotate(135 9.193 26.432)" style="fill:url(#8dhsshsq0b)" d="M6.014 19.872h6.357v13.12H6.014z"/><path transform="rotate(180 27.178 12.019)" style="fill:url(#6eivpg8b3c)" d="M24 10.019h6.357v4H24z"/><path transform="rotate(-90 19.54 4.198)" style="fill:url(#3sgbo1ppad)" d="M16.361 1.658h6.357v5.08h-6.357z"/><path d="M9 21.019H3c-1.103 0-2-.897-2-2v-6c0-1.103.897-2 2-2h6c1.103 0 2 .897 2 2v6c0 1.103-.897 2-2 2zm-6-8v6h6.001v-6H3zM27.008 10.019H24c-1.103 0-2-.897-2-2V5.011c0-1.103.897-2 2-2h3.008c1.103 0 2 .897 2 2v3.008c0 1.103-.897 2-2 2zM24 5.011v3.008h3.009V5.011H24z" style="fill:#fff"/></mask></defs><g style="mask:url(#2vi1inb1pe)"><path id="Color" style="fill:url(#xmgr5boihf)" d="M0 0h32v32H0z"/></g><path d="M28.02 30h-8c-1.103 0-2-.897-2-2v-8c0-1.103.897-2 2-2h8c1.103 0 2 .897 2 2v8c0 1.103-.897 2-2 2zm-8-10v8h8.001v-8H20.02z" style="fill:#001d6c"/></svg>