<svg id="w3" xmlns="http://www.w3.org/2000/svg" viewBox="0 0 32 32"><defs><linearGradient id="xr7a2ziymb" x1="0" y1="32" x2="32" y2="0" gradientUnits="userSpaceOnUse"><stop offset=".1" stop-color="#a56eff"/><stop offset=".9" stop-color="#0f62fe"/></linearGradient><mask id="htswsgbw9a" x="0" y="0" width="32" height="32" maskUnits="userSpaceOnUse"><path id="Vector" d="M.623 11.957h3.289l1.174 4.876.827 3.68h.093l.966-3.68 1.38-4.876h3.104l1.403 4.876.989 3.68h.092l.828-3.68 1.173-4.876h3.151l-3.335 12.075h-3.565l-1.472-5.106-.852-3.128H9.8l-.828 3.128L7.5 24.032H4.004L.623 11.957zm24.503 2.369c.858 0 1.483-.165 1.874-.495.391-.33.587-.739.587-1.23v-.161c0-.583-.188-1.05-.563-1.403-.376-.353-.909-.529-1.599-.529-.645 0-1.25.165-1.817.495s-1.05.801-1.449 1.414l-2.161-2.024a9.08 9.08 0 0 1 .988-1.092c.353-.33.751-.613 1.196-.851.444-.237.943-.421 1.495-.552s1.173-.196 1.863-.196c.858 0 1.636.1 2.334.299.697.199 1.296.487 1.794.862a3.93 3.93 0 0 1 1.15 1.345c.268.521.402 1.104.402 1.748a3.8 3.8 0 0 1-.241 1.38 3.39 3.39 0 0 1-.667 1.081c-.284.307-.61.556-.978.747-.368.192-.76.326-1.174.403v.138c.476.092.917.242 1.323.449s.759.472 1.058.793.532.702.701 1.139.254.931.254 1.483c0 .721-.146 1.373-.438 1.955s-.705 1.081-1.242 1.495c-.537.414-1.181.732-1.932.955-.752.222-1.579.333-2.484.333-.813 0-1.533-.084-2.162-.253s-1.177-.395-1.645-.678-.874-.61-1.219-.978a7.772 7.772 0 0 1-.908-1.173l2.553-1.978c.353.66.786 1.2 1.3 1.622.514.422 1.207.633 2.081.633.782 0 1.392-.196 1.829-.587.437-.391.655-.923.655-1.598v-.138c0-.659-.25-1.154-.748-1.483s-1.185-.495-2.058-.495h-1.449v-2.875h1.495z" style="fill:#fff;stroke-width:0"/></mask></defs><g style="mask:url(#htswsgbw9a)"><path id="Gradient" style="fill:url(#xr7a2ziymb);stroke-width:0" d="M0 0h32v32H0z"/></g></svg>