<svg xmlns="http://www.w3.org/2000/svg" xmlns:xlink="http://www.w3.org/1999/xlink" viewBox="0 0 32 32">
  <defs>
    <linearGradient id="ae81c1ce-40f1-42fe-8ce6-15ffa186f8b8" x1="10" y1="29" x2="19" y2="29" gradientUnits="userSpaceOnUse">
      <stop offset="0" stop-opacity="0"/>
      <stop offset="0.88"/>
    </linearGradient>
    <mask id="b5a50ca8-7097-4cb6-983c-a6ab5d7463c0" x="0" y="0" width="32" height="32" maskUnits="userSpaceOnUse">
      <rect x="19.249" y="27.417" width="4.751" height="3.513"/>
      <g>
        <rect x="6" y="14" width="7" height="2" fill="#fff"/>
        <rect x="6" y="6" width="4" height="2" fill="#fff"/>
        <circle cx="7" cy="11" r="1" fill="#fff"/>
        <path d="M18,28H4V4H22V8h2V4a2,2,0,0,0-2-2H4A2,2,0,0,0,2,4V28a2,2,0,0,0,2,2H18Z" fill="#fff"/>
        <circle cx="12" cy="19" r="1" fill="#fff"/>
        <rect x="16" y="6" width="4" height="2" fill="#fff"/>
        <circle cx="13" cy="7" r="1" fill="#fff"/>
        <rect x="10" y="10" width="7" height="2" fill="#fff"/>
        <rect x="6" y="22" width="8" height="2" fill="#fff"/>
        <rect x="6" y="18" width="3" height="2" fill="#fff"/>
      </g>
      <rect x="10" y="27" width="9" height="4" fill="url(#ae81c1ce-40f1-42fe-8ce6-15ffa186f8b8)"/>
    </mask>
    <linearGradient id="bed8cb30-71bf-49e1-aa01-4fe43235a0fa" y1="32" x2="32" gradientUnits="userSpaceOnUse">
      <stop offset="0.1" stop-color="#a56eff"/>
      <stop offset="0.9" stop-color="#0f62fe"/>
    </linearGradient>
  </defs>
  <g id="bc4d8482-9bd5-4b75-b3a9-3a21a9b34e74" data-name="Layer 2">
    <g id="f5faee04-f9a6-48ac-a526-392ea868d23e" data-name="Layer 1">
      <g>
        <g mask="url(#b5a50ca8-7097-4cb6-983c-a6ab5d7463c0)">
          <rect width="32" height="32" fill="url(#bed8cb30-71bf-49e1-aa01-4fe43235a0fa)"/>
        </g>
        <rect x="20" y="25" width="7" height="2" fill="#001d6c"/>
        <rect x="22" y="29" width="3" height="2" fill="#001d6c"/>
        <path d="M27,23H25a3.925,3.925,0,0,1,1.159-2.8l.524-.523a4.5,4.5,0,1,0-6.365,0l.525.525A3.924,3.924,0,0,1,22,23H20a1.938,1.938,0,0,0-.571-1.379L18.9,21.1a6.5,6.5,0,1,1,9.193,0l-.525.524A1.937,1.937,0,0,0,27,23Z" fill="#001d6c"/>
      </g>
    </g>
  </g>
</svg>
