<svg xmlns="http://www.w3.org/2000/svg" xmlns:xlink="http://www.w3.org/1999/xlink" viewBox="0 0 32 32"><defs><linearGradient id="alxifel9ma" x1="-155" y1="-1852" x2="-155" y2="-1857" gradientTransform="translate(161 1868)" gradientUnits="userSpaceOnUse"><stop offset=".2"/><stop offset="1" stop-opacity="0"/></linearGradient><linearGradient id="ixfvxhfqeb" x1="-84" y1="7" x2="-84" y2="2" gradientTransform="translate(100 16)" xlink:href="#alxifel9ma"/><linearGradient id="3mpjh1864d" y1="32" x2="32" gradientUnits="userSpaceOnUse"><stop offset=".1" stop-color="#a56eff"/><stop offset=".9" stop-color="#0f62fe"/></linearGradient><mask id="kia7n4e6nc" x="0" y="0" width="32" height="32" maskUnits="userSpaceOnUse"><path d="M7 12H5v4H2v2h8v-2H7v-4zm21 0a2 2 0 0 0 2-2V4a2 2 0 0 0-2-2h-4a2 2 0 0 0-2 2v6a2 2 0 0 0 2 2h1v4h-3v2h8v-2h-3v-4zm-4-8h4v6h-4zM12 18h3v4h2v-4h3v-2h-8v2z" fill="#fff"/><path transform="rotate(-180 6 13.5)" fill="url(#alxifel9ma)" d="M4 11h4v5H4z"/><path fill="url(#ixfvxhfqeb)" d="M14 18h4v5h-4z"/><path fill="#f4f4f4" d="M21 22.414 19.586 21 16 24.586 12.414 21 11 22.414 14.586 26 11 29.586 12.414 31 16 27.414 19.586 31 21 29.586 17.414 26 21 22.414z"/></mask></defs><g data-name="Layer 2"><g data-name="Layer 1"><g mask="url(#kia7n4e6nc)"><path fill="url(#3mpjh1864d)" d="M0 0h32v32H0z"/></g><path d="M10 12H4a2 2 0 0 1-2-2V8a2 2 0 0 1 2-2h4V4H3V2h5a2 2 0 0 1 2 2zM4 8v2h4V8z" fill="#001d6c"/></g></g></svg>