<svg xmlns="http://www.w3.org/2000/svg" viewBox="0 0 32 32"><defs><linearGradient id="sw88alq9qa" x1="24" y1="10" x2="24" y2="14.615" gradientUnits="userSpaceOnUse"><stop offset="0"/><stop offset="1" stop-opacity="0"/></linearGradient><linearGradient id="fonu1kwe8c" x1="-1160" y1="1130" x2="-1128" y2="1098" gradientTransform="translate(1160 -1098)" gradientUnits="userSpaceOnUse"><stop offset=".1" stop-color="#a56eff"/><stop offset=".9" stop-color="#0f62fe"/></linearGradient><mask id="x9k6reovsb" x="0" y="0" width="32" height="32" maskUnits="userSpaceOnUse"><path d="M25 14v-4h-2v4a1.007 1.007 0 0 1-1.011 1H10.043a3.01 3.01 0 0 0-3.013 3v2h2v-2a1.007 1.007 0 0 1 1.013-1h11.946A3.009 3.009 0 0 0 25 14z" fill="#fff"/><path fill="url(#sw88alq9qa)" d="M22 10h4v4.615h-4z"/><path d="M21 25h-4.965v2H21v3h8v-8h-8zm2-1h4v4h-4zm4-22H5a2 2 0 0 0-2 2v4a2 2 0 0 0 2 2h22a2 2 0 0 0 2-2V4a2 2 0 0 0-2-2zm0 6H5V4h22z" fill="#fff"/></mask></defs><g data-name="Layer 2"><g data-name="Light theme icons"><g mask="url(#x9k6reovsb)"><path fill="url(#fonu1kwe8c)" d="M0 0h32v32H0z"/></g><path fill="#001d6c" d="M3.02 21.99h10.97v2H3.02zm0 4h7.97v2H3.02z"/><circle cx="7.99" cy="6.04" r="1" fill="#001d6c"/></g></g></svg>