<svg xmlns="http://www.w3.org/2000/svg" viewBox="0 0 32 32"><defs><linearGradient id="ceec2xtjta" x1="1915.825" y1="1821.117" x2="1927.737" y2="1821.117" gradientTransform="rotate(-90 73.024 1866)" gradientUnits="userSpaceOnUse"><stop offset="0" stop-opacity="0"/><stop offset=".91"/></linearGradient><linearGradient id="iiiw11zfsb" x1="11" y1="9" x2="19.656" y2="9" gradientUnits="userSpaceOnUse"><stop offset="0" stop-opacity="0"/><stop offset=".87"/></linearGradient><linearGradient id="kpig5z55xd" y1="32" x2="32" gradientUnits="userSpaceOnUse"><stop offset=".1" stop-color="#a56eff"/><stop offset=".9" stop-color="#0f62fe"/></linearGradient><mask id="7jd6ne3xoc" x="0" y="0" width="32" height="32" maskUnits="userSpaceOnUse"><path d="M29.976 16a14 14 0 1 1-23.9-9.9A14.046 14.046 0 0 1 16 2v2a12 12 0 0 0-8.509 20.48 11.994 11.994 0 0 0 19.867-12.266l1.9-.632A14 14 0 0 1 29.976 16zm-7.008 0a7.019 7.019 0 1 1-4.377-6.476l.741-1.854A8.991 8.991 0 1 0 24.966 16z" fill="#fff"/><path fill="url(#ceec2xtjta)" d="M31.469 23.199V11.287h-4.855l-1.802 11.912h6.657z"/><path fill="url(#iiiw11zfsb)" d="M11 6h8.656v6H11z"/></mask></defs><g data-name="Layer 2"><g data-name="Light theme icons"><path d="M30 8V6h-4V2h-2v4.586L17.286 13.3A2.969 2.969 0 0 0 16 13a3 3 0 1 0 3 3 2.969 2.969 0 0 0-.3-1.286L25.414 8z" fill="#001d6c"/><g mask="url(#7jd6ne3xoc)"><path fill="url(#kpig5z55xd)" d="M0 0h32v32H0z"/></g></g></g></svg>