<svg xmlns="http://www.w3.org/2000/svg" viewBox="0 0 32 32"><defs><linearGradient id="xr9t5srb7a" x1="-321.149" y1="226.305" x2="-311.489" y2="228.893" gradientTransform="matrix(1.08 -.259 .289 .966 293.258 -281.366)" gradientUnits="userSpaceOnUse"><stop offset=".01" stop-opacity="0"/><stop offset=".75"/></linearGradient><linearGradient id="n7yu5tbklc" y1="32" x2="32" gradientUnits="userSpaceOnUse"><stop offset=".1" stop-color="#a56eff"/><stop offset=".9" stop-color="#0f62fe"/></linearGradient><mask id="bj2zuoam9b" x="0" y="0" width="32" height="32" maskUnits="userSpaceOnUse"><path d="M21.7 23a7.008 7.008 0 0 0-6.7-5H9a7.009 7.009 0 0 0-7 7v5h2v-5a5.006 5.006 0 0 1 5-5h6a5 5 0 0 1 4.576 3z" fill="#fff"/><path transform="rotate(30 17.428 20.346)" fill="url(#xr9t5srb7a)" d="M11.836 16.847H23.02v7H11.836z"/><path d="M12 2a7 7 0 1 0 7 7 7 7 0 0 0-7-7zm0 12a5 5 0 1 1 5-5 5 5 0 0 1-5 5z" fill="#fff"/></mask></defs><g data-name="Layer 2"><g data-name="Light theme icons"><g mask="url(#bj2zuoam9b)"><path fill="url(#n7yu5tbklc)" d="M0 0h32v32H0z"/></g><path fill="#001d6c" d="m24 19 1.912 3.703 4.088.594L27 26l.771 4L24 27.75 20.229 30 21 26l-3-2.703 4.2-.594L24 19z"/></g></g></svg>