<svg id="watsonxdata" xmlns="http://www.w3.org/2000/svg" xmlns:xlink="http://www.w3.org/1999/xlink" viewBox="0 0 32 32"><defs><linearGradient id="3dcm78156a" x1="1186.526" y1="2863.169" x2="1199.825" y2="2845.109" gradientTransform="matrix(.8312 .55596 -.27409 .40979 -198.894 -1827.398)" gradientUnits="userSpaceOnUse"><stop offset=".3"/><stop offset="1" stop-opacity="0"/></linearGradient><linearGradient id="acw2912xpc" x1="-5.572" y1="-2403.049" x2="7.728" y2="-2421.108" gradientTransform="rotate(-146.223 195.41 -583.285) scale(1 .493)" xlink:href="#3dcm78156a"/><linearGradient id="osh8s1p77b" x1="10" y1="16" x2="10" y2="12" gradientUnits="userSpaceOnUse"><stop offset="0" stop-opacity="0"/><stop offset=".7"/></linearGradient><linearGradient id="mze83imqyd" x1="22" y1="-2864.249" x2="22" y2="-2868.249" gradientTransform="matrix(1 0 0 -1 0 -2848.249)" xlink:href="#osh8s1p77b"/><linearGradient id="8qokqeiuff" x1="0" y1="32" x2="32" y2="0" gradientUnits="userSpaceOnUse"><stop offset=".1" stop-color="#a56eff"/><stop offset=".9" stop-color="#0f62fe"/></linearGradient><mask id="dce2qpidje" x="0" y="0" width="32" height="32" maskUnits="userSpaceOnUse"><path d="M16 1A14.915 14.915 0 0 0 5.502 5.286l1.4 1.429A12.922 12.922 0 0 1 16 3.001c2.783 0 5.358.887 7.475 2.382-.259-.026-.517-.058-.782-.058-4.233 0-7.677 3.444-7.677 7.677h2a5.684 5.684 0 0 1 5.677-5.677 5.643 5.643 0 0 1 4.919 2.867c.214.426.403.866.57 1.317a4.969 4.969 0 0 0-2.183-.507c-2.757 0-5 2.243-5 5v3h2v-3c0-1.654 1.346-3 3-3s3 1.346 3 3c0 2.117-.492 4.134-1.462 5.995l1.773.924a15.034 15.034 0 0 0 1.688-6.919C31 7.729 24.271 1 16 1zM25.098 25.286A12.926 12.926 0 0 1 16 29c-2.784 0-5.36-.888-7.478-2.384.266.028.53.061.801.061C13.556 26.677 17 23.234 17 19h-2a5.684 5.684 0 0 1-5.677 5.677 5.662 5.662 0 0 1-5.128-3.264 13.252 13.252 0 0 1-.379-.92c.661.322 1.4.507 2.183.507 2.757 0 5-2.243 5-5v-3h-2v3c0 1.654-1.346 3-3 3s-3-1.346-3-3c0-2.117.492-4.134 1.462-5.996L2.688 9.08A15.037 15.037 0 0 0 1 15.999c0 8.271 6.729 15 15 15 3.949 0 7.678-1.522 10.498-4.286l-1.4-1.428z" style="fill:#fff;stroke-width:0"/><path style="fill:url(#3dcm78156a);stroke-width:0" d="M8 9 0 0h16l2.305 3.305L8 9z"/><path style="fill:url(#acw2912xpc);stroke-width:0" d="m24 22.98 8 9H16l-2.305-3.305L24 22.98z"/><path style="fill:url(#osh8s1p77b);stroke-width:0" d="M8 12h4v4H8z"/><path style="fill:url(#mze83imqyd);stroke-width:0" d="M20 16h4v4h-4z"/></mask></defs><g style="mask:url(#dce2qpidje)"><path style="fill:url(#8qokqeiuff);stroke-width:0" d="M0 0h32v32H0z"/></g><circle cx="6" cy="6" r="2" style="fill:#001d6c;stroke-width:0"/><circle cx="26" cy="26" r="2" style="fill:#001d6c;stroke-width:0"/><path transform="rotate(90 22 22)" style="fill:#001d6c;stroke-width:0" d="M21 21h2v2h-2z"/><path transform="rotate(90 16 16)" style="fill:#001d6c;stroke-width:0" d="M15 15h2v2h-2z"/><path transform="rotate(-90 10 10)" style="fill:#001d6c;stroke-width:0" d="M9 9h2v2H9z"/></svg>