<svg xmlns="http://www.w3.org/2000/svg" xmlns:xlink="http://www.w3.org/1999/xlink" viewBox="0 0 32 32"><defs><linearGradient id="WatsonLeadManager_svg__a" x1="4" y1="24" x2="4" y2="9" gradientUnits="userSpaceOnUse"><stop offset=".2"/><stop offset="1" stop-opacity="0"/></linearGradient><linearGradient id="WatsonLeadManager_svg__b" x1="-122" y1="-1959" x2="-122" y2="-1974" gradientTransform="translate(150 1982)" xlink:href="#WatsonLeadManager_svg__a"/><linearGradient id="WatsonLeadManager_svg__d" y1="32" x2="32" gradientUnits="userSpaceOnUse"><stop offset=".1" stop-color="#a56eff"/><stop offset=".9" stop-color="#0f62fe"/></linearGradient><mask id="WatsonLeadManager_svg__c" x="0" y="0" width="32" height="32" maskUnits="userSpaceOnUse"><path d="M3.873 23A14 14 0 0125.9 6.1l-1.415 1.415A12 12 0 005.6 22zM16 29.993A13.952 13.952 0 016.1 25.9l1.414-1.414A12 12 0 0026.4 10l1.731-1A14 14 0 0116 29.993z" fill="#fff"/><path fill="url(#WatsonLeadManager_svg__a)" d="M1 9h6v15H1z"/><path transform="rotate(180 28 15.5)" fill="url(#WatsonLeadManager_svg__b)" d="M25 8h6v15h-6z"/></mask></defs><g data-name="Layer 2"><g data-name="Light theme icons"><g mask="url(#WatsonLeadManager_svg__c)"><path fill="url(#WatsonLeadManager_svg__d)" d="M0 0h32v32H0z"/></g><path d="M22.707 21.293l-3.679-3.679a5.512 5.512 0 10-1.414 1.414l3.679 3.679zM14.5 18a3.5 3.5 0 113.5-3.5 3.5 3.5 0 01-3.5 3.5z" fill="#001d6c"/></g></g></svg>