<svg id="WatsonxCodeAssistantForI" xmlns="http://www.w3.org/2000/svg" xmlns:xlink="http://www.w3.org/1999/xlink" viewBox="0 0 32 32"><defs><linearGradient id="7knd4mx81a" x1="-201" y1="1432.5" x2="-195" y2="1432.5" gradientTransform="translate(208 -1406)" gradientUnits="userSpaceOnUse"><stop offset="0" stop-opacity="0"/><stop offset=".8"/></linearGradient><linearGradient id="yhkqb5xvwb" x1="-7785" y1="-8157" x2="-7776" y2="-8157" gradientTransform="rotate(-180 -3881.5 -4075.5)" xlink:href="#7knd4mx81a"/><linearGradient id="wq6v0ubakd" x1="0" y1="2" x2="32" y2="34" gradientTransform="matrix(1 0 0 -1 0 34)" gradientUnits="userSpaceOnUse"><stop offset=".1" stop-color="#ab6bfd"/><stop offset=".9" stop-color="#0064fd"/></linearGradient><mask id="81uih1mqrc" x="0" y="0" width="32" height="32" maskUnits="userSpaceOnUse"><g id="u27lgfg58c"><g id="tbvf8vzalc"><path d="M30 19h-2v-7a5 5 0 0 0-5-5h-9V5h9a7 7 0 0 1 7 7v7zm-18 9H9c-3.86 0-7-3.14-7-7h2c0 2.757 2.243 5 5 5h3v2z" style="fill:#fff"/><path d="M7 24h6v5H7v-5z" style="fill:url(#7knd4mx81a)"/><path d="M22 8h-9V4h9v4z" style="fill:url(#yhkqb5xvwb)"/><path d="M10 1H4a2 2 0 0 0-2 2v10a2 2 0 0 0 2 2h6a2 2 0 0 0 2-2V3a2 2 0 0 0-2-2zM4 5V3h6v2H4zm0 4V7h6v2H4zm0 4v-2h6v2H4z" style="fill:#fff"/></g></g><circle cx="3" cy="18" r="1" style="fill:#fff"/></mask></defs><g style="mask:url(#81uih1mqrc)"><path d="M0 0h32v32H0V0z" style="fill:url(#wq6v0ubakd)"/></g><path d="m28.17 26-2.58 2.58L27 30l4-4-4-4-1.42 1.41L28.17 26zm-11.34 0 2.58-2.58L18 22l-4 4 4 4 1.42-1.41L16.83 26zM22 31l-1.915-.577L23 21l1.915.577L22 31z" style="fill:#011e71"/></svg>