<svg xmlns="http://www.w3.org/2000/svg" xmlns:xlink="http://www.w3.org/1999/xlink" viewBox="0 0 32 32"><defs><linearGradient id="9u5zesgora" x1="-200" y1="24.5" x2="-192" y2="24.5" gradientTransform="translate(208)" gradientUnits="userSpaceOnUse"><stop offset="0" stop-opacity="0"/><stop offset=".8"/></linearGradient><linearGradient id="fzzoz0bxpb" x1="-3321" y1="-3597" x2="-3313" y2="-3597" gradientTransform="translate(3335 3603)" xlink:href="#9u5zesgora"/><linearGradient id="akv3i7yqsd" y1="32" x2="32" gradientUnits="userSpaceOnUse"><stop offset=".1" stop-color="#a56eff"/><stop offset=".9" stop-color="#0f62fe"/></linearGradient><mask id="tth2i3nrac" x="0" y="0" width="32" height="32" maskUnits="userSpaceOnUse"><path d="M28 14h-2v-2a5.006 5.006 0 0 0-5-5h-6V5h6a7.008 7.008 0 0 1 7 7zM15 26h-4a7.008 7.008 0 0 1-7-7v-2h2v2a5.006 5.006 0 0 0 5 5h4z" fill="#fff"/><path fill="url(#9u5zesgora)" d="M8 22h8v5H8z"/><path transform="rotate(180 18 6)" fill="url(#fzzoz0bxpb)" d="M14 4h8v4h-8z"/><path fill="#fff" d="M2 3h12v2H2zm0 4h12v2H2zm0 4h6v2H2z"/></mask></defs><g data-name="Layer 2"><g data-name="Light theme icons"><g mask="url(#tth2i3nrac)"><path fill="url(#akv3i7yqsd)" d="M0 0h32v32H0z"/></g><path d="M18 18h10a2 2 0 0 1 2 2v6a2 2 0 0 1-2 2h-2.423l-1.731 3-1.733-1 2.31-4H28v-6H18v6h3v2h-3a2 2 0 0 1-2-2v-6a2 2 0 0 1 2-2z" fill="#001d6c"/></g></g></svg>