<svg xmlns="http://www.w3.org/2000/svg" xmlns:xlink="http://www.w3.org/1999/xlink" viewBox="0 0 32 32"><defs><linearGradient id="yc3rqmwlza" x1="4" y1="24" x2="4" y2="9" gradientUnits="userSpaceOnUse"><stop offset=".2"/><stop offset="1" stop-opacity="0"/></linearGradient><linearGradient id="96c59enq3b" x1="-122" y1="-1959" x2="-122" y2="-1974" gradientTransform="translate(150 1982)" xlink:href="#yc3rqmwlza"/><linearGradient id="37t9ixnugd" y1="32" x2="32" gradientUnits="userSpaceOnUse"><stop offset=".1" stop-color="#a56eff"/><stop offset=".9" stop-color="#0f62fe"/></linearGradient><mask id="eevrtw3cqc" x="0" y="0" width="32" height="32" maskUnits="userSpaceOnUse"><path d="M3.873 23A14 14 0 0 1 25.9 6.1l-1.415 1.415A12 12 0 0 0 5.6 22zM16 29.993A13.952 13.952 0 0 1 6.1 25.9l1.414-1.414A12 12 0 0 0 26.4 10l1.731-1A14 14 0 0 1 16 29.993z" fill="#fff"/><path fill="url(#yc3rqmwlza)" d="M1 9h6v15H1z"/><path transform="rotate(180 28 15.5)" fill="url(#96c59enq3b)" d="M25 8h6v15h-6z"/></mask></defs><g data-name="Layer 2"><g data-name="Light theme icons"><g mask="url(#eevrtw3cqc)"><path fill="url(#37t9ixnugd)" d="M0 0h32v32H0z"/></g><path d="m22.707 21.293-3.679-3.679a5.512 5.512 0 1 0-1.414 1.414l3.679 3.679zM14.5 18a3.5 3.5 0 1 1 3.5-3.5 3.5 3.5 0 0 1-3.5 3.5z" fill="#001d6c"/></g></g></svg>