<svg id="ProductName" xmlns="http://www.w3.org/2000/svg" xmlns:xlink="http://www.w3.org/1999/xlink" viewBox="0 0 32 32"><defs><linearGradient id="p9vxyisn1a" x1="-1255.959" y1="-5638.355" x2="-1255.959" y2="-5630.355" gradientTransform="matrix(1 0 0 -1 1259.459 -5613.355)" gradientUnits="userSpaceOnUse"><stop offset="0" stop-opacity="0"/><stop offset=".83"/></linearGradient><linearGradient id="h8ycqm8a3b" x1="-1236.667" y1="-5652.015" x2="-1239.915" y2="-5646.39" gradientTransform="matrix(1 0 0 -1 1255.541 -5629.251)" gradientUnits="userSpaceOnUse"><stop offset="0" stop-opacity="0"/><stop offset=".7"/></linearGradient><linearGradient id="79406k1xyc" x1="-1817.959" y1="-1524.355" x2="-1817.959" y2="-1516.355" gradientTransform="matrix(1 0 0 -1 1846.459 -1509.355)" xlink:href="#p9vxyisn1a"/><linearGradient id="bt5ivn4y8d" x1="-1798.667" y1="-1538.015" x2="-1801.915" y2="-1532.39" gradientTransform="matrix(-1 0 0 1 -1785.541 1547.251)" xlink:href="#h8ycqm8a3b"/><linearGradient id="ijm8y71tjf" x1="0" y1="32" x2="32" y2="0" gradientUnits="userSpaceOnUse"><stop offset=".1" stop-color="#a56eff"/><stop offset=".9" stop-color="#0072c3"/></linearGradient><mask id="xvnfrfqeoe" x="0" y="0" width="32" height="32" maskUnits="userSpaceOnUse"><path d="M30.851 14H28.83C27.863 7.78 22.487 3 16 3 11.38 3 7.326 5.429 5.02 9.07A7.939 7.939 0 0 1 9 8c3.719 0 6.845 2.555 7.737 6H14.65c-.826-2.327-3.043-4-5.65-4a5.958 5.958 0 0 0-4.78 2.407l-2.525-.842C3.591 5.456 9.275 1 16 1c7.591 0 13.868 5.674 14.851 13zm-3.071 5.593A5.957 5.957 0 0 1 23 22c-2.607 0-4.824-1.673-5.65-4h-2.087c.892 3.445 4.017 6 7.737 6a7.941 7.941 0 0 0 3.98-1.07C24.674 26.571 20.62 29 16 29 9.513 29 4.137 24.22 3.17 18H1.149C2.132 25.326 8.408 31 16 31c6.725 0 12.409-4.456 14.305-10.565l-2.525-.842z" style="fill:#fff"/><path style="fill:url(#p9vxyisn1a)" d="M0 17h7v8H0z"/><path style="fill:url(#h8ycqm8a3b)" d="M21 17.5h-6V25l6-3.5v-4z"/><path transform="rotate(-180 28.5 11)" style="fill:url(#79406k1xyc)" d="M25 7h7v8h-7z"/><path style="fill:url(#bt5ivn4y8d)" d="M11 14.5h6V7l-6 3.5v4z"/></mask></defs><g style="mask:url(#xvnfrfqeoe)"><path style="fill:url(#ijm8y71tjf)" d="M0 0h32v32H0z"/></g><circle cx="30" cy="16" r="2" style="fill:#001d6c"/><circle cx="2" cy="16" r="2" style="fill:#001d6c"/><circle cx="16" cy="16" r="2" style="fill:#001d6c"/></svg>
