<svg id="WatsonxWorkshop" xmlns="http://www.w3.org/2000/svg" viewBox="0 0 32 32"><defs><linearGradient id="ven7sythqa" x1="-542.439" y1="-6284.297" x2="-539.439" y2="-6287.297" gradientTransform="rotate(-135 1043.832 -3253.11)" gradientUnits="userSpaceOnUse"><stop offset="0" stop-opacity="0"/><stop offset=".8"/></linearGradient><linearGradient id="p8532d9w3c" x1="0" y1="32" x2="32" y2="0" gradientUnits="userSpaceOnUse"><stop offset=".1" stop-color="#ad6bff"/><stop offset=".9" stop-color="#0064ff"/></linearGradient><mask id="dkt0gcw1mb" x="0" y="0" width="32" height="32" maskUnits="userSpaceOnUse"><path d="M24.998 2.924c-2.206 0-4 1.794-4 4 0 .741.216 1.427.569 2.022l-4.273 4.273 1.414 1.414 4.274-4.275c.594.35 1.278.565 2.016.565 2.206 0 4-1.794 4-4s-1.794-4-4-4zm0 6c-1.103 0-2-.897-2-2s.897-2 2-2 2 .897 2 2-.897 2-2 2z" style="fill:#fff"/><path transform="rotate(-45 20 11.928)" style="fill:url(#ven7sythqa)" d="M17.879 9.806h4.243v4.243h-4.243z"/><path d="M16 11.927a4 4 0 0 0-4 4c0 .74.215 1.425.566 2.02l-3.545 3.546a3.954 3.954 0 0 0-2.023-.569c-2.206 0-4 1.794-4 4s1.794 4 4 4 4-1.794 4-4a3.96 3.96 0 0 0-.565-2.016l3.547-3.547c.595.351 1.28.565 2.02.565a4 4 0 0 0 0-8zM6.998 26.924c-1.103 0-2-.897-2-2s.897-2 2-2 2 .897 2 2-.897 2-2 2zM16 17.927c-1.103 0-2-.897-2-2s.897-2 2-2 2 .897 2 2-.897 2-2 2z" style="fill:#fff"/></mask></defs><g style="mask:url(#dkt0gcw1mb)"><path style="fill:url(#p8532d9w3c)" d="M0 0h32v32H0z"/></g><path d="M10.298 8.948a3.96 3.96 0 0 0 .567-2.019c0-2.206-1.794-4-4-4-.356 0-.694.062-1.023.149l2.437 2.437a2.002 2.002 0 0 1-2.828 2.828L3.014 5.907a3.926 3.926 0 0 0-.149 1.023c0 2.206 1.794 4 4 4 .74 0 1.424-.215 2.019-.567l2.275 2.275 1.414-1.414-2.275-2.275zM19.003 20.927h10v2h-10zM19.003 28.927h10v2h-10zM21.003 24.927h10v2h-10z" style="fill:#001e71"/></svg>