<svg xmlns="http://www.w3.org/2000/svg" viewBox="0 0 32 32"><defs><linearGradient id="sfc0hwr9la" x1="-344" y1="5720" x2="-338" y2="5720" gradientTransform="rotate(90 2685 3038)" gradientUnits="userSpaceOnUse"><stop offset="0" stop-opacity="0"/><stop offset=".8"/></linearGradient><linearGradient id="hpsuegtboc" x1="-919.076" y1="-801" x2="-887.076" y2="-769" gradientTransform="translate(919.076 801)" gradientUnits="userSpaceOnUse"><stop offset=".1" stop-color="#a56eff"/><stop offset=".9" stop-color="#0f62fe"/></linearGradient><mask id="8ed66znm9b" x="0" y="0" width="32" height="32" maskUnits="userSpaceOnUse"><path d="m12 1-1.414 1.414L13.172 5H4a2 2 0 0 0-2 2v7h2V7h9.172l-2.586 2.586L12 11l5-5zm7 1h8v2h-8zm3 4h8v2h-8zm0 4h8v2h-8zm-3 4h8v2h-8zm3 4h8v2h-8z" fill="#fff"/><path fill="url(#sfc0hwr9la)" d="M1 9h4v6H1z"/></mask></defs><g data-name="Layer 2"><g data-name="Layer 1"><g mask="url(#8ed66znm9b)"><path transform="rotate(-90 16 16)" fill="url(#hpsuegtboc)" d="M0 0h32v32H0z"/></g><path fill="#001d6c" d="M6 19h5v2H6zm0 4h5v2H6z"/><path d="M13 30H4a2 2 0 0 1-2-2V17a2 2 0 0 1 2-2h9a2 2 0 0 1 2 2v11a2 2 0 0 1-2 2zM4 17v11h9V17z" fill="#001d6c"/></g></g></svg>