<svg xmlns="http://www.w3.org/2000/svg" xmlns:xlink="http://www.w3.org/1999/xlink" viewBox="0 0 32 32"><defs><linearGradient id="5p6eld6aqb" x1="14.959" y1="5.587" x2="32.021" y2="10.159" gradientTransform="translate(-1.49 2.127)" gradientUnits="userSpaceOnUse"><stop offset=".3"/><stop offset=".8" stop-opacity="0"/></linearGradient><linearGradient id="c3ir71znja" x1="16" y1="31" x2="16" y2="5" gradientUnits="userSpaceOnUse"><stop offset=".6" stop-color="#fff"/><stop offset=".9" stop-color="#fff" stop-opacity="0"/></linearGradient><linearGradient id="9q3wer8r9c" x1="-487.886" y1="-4263.873" x2="-487.886" y2="-4289.873" gradientTransform="rotate(121.05 -1449.712 -1986.037)" xlink:href="#c3ir71znja"/><linearGradient id="qfz036yx7d" x1="8.289" y1="22.439" x2="28.029" y2="11.042" gradientTransform="rotate(30.258 18.16 16.74)" gradientUnits="userSpaceOnUse"><stop offset=".5" stop-color="#fff"/><stop offset=".9" stop-color="#fff" stop-opacity="0"/></linearGradient><linearGradient id="rye7qb6ref" y1="32" x2="32" gradientUnits="userSpaceOnUse"><stop offset=".1" stop-color="#a56eff"/><stop offset=".9" stop-color="#0f62fe"/></linearGradient><mask id="8iiqejjv0e" x="0" y="0" width="32" height="32" maskUnits="userSpaceOnUse"><path d="M16 3v2a12.92 12.92 0 0 1 12.809 15.135l1.971.328A14.91 14.91 0 0 0 16 3z" fill="#fff"/><path fill="url(#5p6eld6aqb)" d="M15 2h14v16H15z"/><path d="M16 31a1 1 0 0 1-1-1V6a1 1 0 0 1 2 0v24a1 1 0 0 1-1 1z" fill="url(#c3ir71znja)"/><path d="M4.861 11.3a1 1 0 0 1 1.373-.341L26.8 23.33a1 1 0 0 1-1.032 1.714L5.2 12.67a1 1 0 0 1-.339-1.37z" fill="url(#9q3wer8r9c)"/><path transform="rotate(-30.258 18.16 16.74)" fill="url(#qfz036yx7d)" d="M6.767 15.74h22.785v2H6.767z"/></mask></defs><g data-name="Layer 2"><g data-name="Light theme icons"><g mask="url(#8iiqejjv0e)"><path fill="url(#rye7qb6ref)" d="M0 0h32v32H0z"/></g><path d="M28 28a3 3 0 1 1 3-3 3 3 0 0 1-3 3zm0-4a1 1 0 1 0 1 1 1 1 0 0 0-1-1zM16 7a3 3 0 1 1 3-3 3 3 0 0 1-3 3zm0-4a1 1 0 1 0 1 1 1 1 0 0 0-1-1zM4 28a3 3 0 1 1 3-3 3 3 0 0 1-3 3zm0-4a1 1 0 1 0 1 1 1 1 0 0 0-1-1z" fill="#001d6c"/></g></g></svg>