<svg xmlns="http://www.w3.org/2000/svg" viewBox="0 0 32 32"><defs><linearGradient id="9182rb10aa" x1="-148.903" y1="-24.5" x2="-138.903" y2="-24.5" gradientTransform="translate(153.903 49.5)" gradientUnits="userSpaceOnUse"><stop offset=".001" stop-opacity="0"/><stop offset=".83"/></linearGradient><linearGradient id="00wvo4speb" x1="2315.5" y1="627.553" x2="2325.5" y2="627.553" gradientTransform="translate(-2295.447 -610.553)" gradientUnits="userSpaceOnUse"><stop offset="0" stop-opacity="0"/><stop offset=".6"/></linearGradient><linearGradient id="b5khlonafd" y1="32" x2="32" gradientUnits="userSpaceOnUse"><stop offset=".1" stop-color="#a56eff"/><stop offset=".9" stop-color="#0f62fe"/></linearGradient><mask id="ck3e9blg9c" x="0" y="0" width="32" height="32" maskUnits="userSpaceOnUse"><path d="M14 26H6.005a4.01 4.01 0 0 1-4-4V12A4.006 4.006 0 0 1 6 8h8v2H6a2 2 0 0 0-2 2v10a2.007 2.007 0 0 0 2.005 2h8z" fill="#fff"/><path fill="url(#9182rb10aa)" d="M5 23h10v4H5z" data-name="Gradients (black)"/><path d="m14.69 31-1.732-1 3.465-6H22a2.007 2.007 0 0 0 2-2v-9h2v9a4.01 4.01 0 0 1-4 4h-4.423z" fill="#fff"/><path transform="rotate(-90 25.053 17)" fill="url(#00wvo4speb)" d="M20.053 15h10v4h-10z"/></mask></defs><g data-name="Layer 2"><g data-name="Light theme icons"><g mask="url(#ck3e9blg9c)"><path fill="url(#b5khlonafd)" d="M0 0h32v32H0z"/></g><circle cx="10" cy="17" r="1" fill="#001d6c"/><circle cx="14" cy="17" r="1" fill="#001d6c"/><circle cx="18" cy="17" r="1" fill="#001d6c"/><path d="M28 2H18a2 2 0 0 0-2 2v6a2 2 0 0 0 2 2h2.422l1.731 3 1.733-1-2.31-4H18V4h10v6h-3v2h3a2 2 0 0 0 2-2V4a2 2 0 0 0-2-2z" fill="#001d6c"/></g></g></svg>