<svg id="watsonxai" xmlns="http://www.w3.org/2000/svg" xmlns:xlink="http://www.w3.org/1999/xlink" viewBox="0 0 32 32"><defs><linearGradient id="g72v175pxa" x1="1186.526" y1="2863.169" x2="1199.825" y2="2845.109" gradientTransform="matrix(.8312 .55596 -.27409 .40979 -198.894 -1827.398)" gradientUnits="userSpaceOnUse"><stop offset=".32"/><stop offset=".9" stop-opacity="0"/></linearGradient><linearGradient id="kyo2wpzdkc" x1="-277.789" y1="-1578.585" x2="-264.489" y2="-1596.644" gradientTransform="rotate(-146.223 -2.314 -421.556) scale(1 .493)" xlink:href="#g72v175pxa"/><linearGradient id="36p7pmarvb" x1="-2321" y1="-8295" x2="-2321" y2="-8299" gradientTransform="translate(2337 8318)" gradientUnits="userSpaceOnUse"><stop offset="0" stop-opacity="0"/><stop offset=".7"/></linearGradient><linearGradient id="hlj08t6ied" x1="8331" y1="-2307" x2="8331" y2="-2311" gradientTransform="translate(-8315 2320)" xlink:href="#36p7pmarvb"/><linearGradient id="guq39gqpof" x1="0" y1="32" x2="32" y2="0" gradientUnits="userSpaceOnUse"><stop offset=".1" stop-color="#a56eff"/><stop offset=".9" stop-color="#0f62fe"/></linearGradient><mask id="y0v51fy1ve" x="0" y="0" width="32.054" height="32" maskUnits="userSpaceOnUse"><path d="M16 1A14.915 14.915 0 0 0 5.502 5.286l1.4 1.429A12.922 12.922 0 0 1 16 3.001c4.262 0 8 3.972 8 8.5 0 4.687-3.813 8.5-8.5 8.5H15v2h.5c5.79 0 10.5-4.71 10.5-10.5 0-1.902-.555-3.716-1.478-5.293C27.259 8.593 29 12.094 29 16.001c0 2.117-.492 4.134-1.462 5.995l1.773.924a15.034 15.034 0 0 0 1.688-6.919C31 7.729 24.271 1 16 1z" style="fill:#fff;stroke-width:0"/><path d="M25.098 25.286A12.926 12.926 0 0 1 16 29c-4.262 0-8-3.972-8-8.5 0-4.687 3.813-8.5 8.5-8.5h.5v-2h-.5C10.71 10 6 14.71 6 20.5c0 1.902.555 3.715 1.477 5.293C4.74 23.408 3 19.907 3 16c0-2.117.492-4.134 1.462-5.996L2.689 9.08a15.037 15.037 0 0 0-1.688 6.919c0 8.271 6.729 15 15 15 3.949 0 7.678-1.522 10.498-4.286l-1.4-1.428z" style="fill:#fff;stroke-width:0"/><path style="fill:url(#g72v175pxa);stroke-width:0" d="M8 9 0 0h16l2.305 3.305L8 9z"/><path style="fill:url(#kyo2wpzdkc);stroke-width:0" d="m24.054 23 8 9h-16l-2.305-3.305L24.054 23z"/><path transform="rotate(-90 16 21)" style="fill:url(#36p7pmarvb);stroke-width:0" d="M14 19h4v4h-4z"/><path transform="rotate(90 16 11)" style="fill:url(#hlj08t6ied);stroke-width:0" d="M14 9h4v4h-4z"/></mask></defs><g style="mask:url(#y0v51fy1ve)"><path style="fill:url(#guq39gqpof);stroke-width:0" d="M0 0h32v32H0z"/></g><circle cx="6" cy="6" r="2" style="fill:#001d6c;stroke-width:0"/><circle cx="26" cy="26" r="2" style="fill:#001d6c;stroke-width:0"/><path transform="rotate(90 12 21)" style="fill:#001d6c;stroke-width:0" d="M11 20h2v2h-2z"/><path transform="rotate(90 20 11)" style="fill:#001d6c;stroke-width:0" d="M19 10h2v2h-2z"/></svg>