<svg xmlns="http://www.w3.org/2000/svg" viewBox="0 0 32 32"><defs><linearGradient id="q6o48diqka" x1="1661.359" y1="-617.475" x2="1670.359" y2="-617.475" gradientTransform="translate(-1640.622 634.975)" gradientUnits="userSpaceOnUse"><stop offset=".001" stop-opacity="0"/><stop offset=".83"/></linearGradient><linearGradient id="vfl94lq1pc" y1="32" x2="32" gradientUnits="userSpaceOnUse"><stop offset=".1" stop-color="#a56eff"/><stop offset=".9" stop-color="#0f62fe"/></linearGradient><mask id="5arcqobh3b" x="0" y="0" width="32" height="32" maskUnits="userSpaceOnUse"><path fill="#fff" d="M12 8h8v2h-8z"/><path d="M16 28H6v-4h2v-2H6v-5h2v-2H6v-5h2V8H6V4h18v17h2V4a2 2 0 0 0-2-2H6a2 2 0 0 0-2 2v4H2v2h2v5H2v2h2v5H2v2h2v4a2 2 0 0 0 2 2h10z" fill="#fff"/><path fill="#fff" d="M12 13h8v2h-8zm0 5h8v2h-8z"/><path transform="rotate(90 25.237 17.5)" fill="url(#q6o48diqka)" d="M20.737 15.737h9v3.525h-9z" data-name="Gradients (black)"/></mask></defs><g data-name="Layer 2"><g data-name="Light theme icons"><g mask="url(#5arcqobh3b)"><path fill="url(#vfl94lq1pc)" d="M0 0h32v32H0z"/></g><path fill="#001d6c" d="m23 27.18-2.59-2.59L19 26l4 4 7-7-1.41-1.41L23 27.18z"/></g></g></svg>