<svg id="WaziAsAService" xmlns="http://www.w3.org/2000/svg" viewBox="0 0 32 32"><defs><linearGradient id="vk25bfi9da" x1="1526.843" y1="234.303" x2="1539.843" y2="234.303" gradientTransform="matrix(1.03 0 0 .848 -1567.477 -173.977)" gradientUnits="userSpaceOnUse"><stop offset=".1" stop-opacity="0"/><stop offset=".9"/></linearGradient><linearGradient id="eycpbmgn9c" y1="32" x2="32" gradientUnits="userSpaceOnUse"><stop offset=".1" stop-color="#ae67ff"/><stop offset=".9" stop-color="#005fff"/></linearGradient><mask id="gn18h67twb" x="0" y="0" width="32" height="32" maskUnits="userSpaceOnUse"><path d="M15.486 30.864 3.5 23.876a1 1 0 0 1-.5-.864V9h2v13.438l11.494 6.7zM12.992 13.017h-2L11 4.337a1 1 0 0 1 .5-.866l4.02-2.313a1 1 0 0 1 1 0L28.5 8.136A1 1 0 0 1 29 9v4h-2V9.575L16.017 3.18 13 4.917z" style="fill:#fff"/><path style="fill:#fff" d="M7 6h2v10H7z"/><path transform="rotate(30 12.138 24.76)" style="fill:url(#vk25bfi9da)" d="M5.442 20.519h13.392v8.482H5.442z"/></mask></defs><g style="mask:url(#gn18h67twb)"><path style="fill:url(#eycpbmgn9c)" d="M0 0h32v32H0z"/></g><path d="M29.72 20.953 24.063 15.3a1 1 0 0 0-1.414 0L20.7 17.246 18.749 15.3a1 1 0 0 0-1.414 0L15.2 17.432l1.414 1.415 1.429-1.429 1.243 1.242-2.293 2.293a1 1 0 0 0 0 1.414l2.293 2.293-1.244 1.24-1.429-1.429-1.413 1.417 2.136 2.136a1 1 0 0 0 1.414 0l1.95-1.95 1.95 1.95a1 1 0 0 0 1.414 0l5.657-5.657a1 1 0 0 0-.001-1.414zM23.356 25.9l-4.243-4.24 4.243-4.242L27.6 21.66z" style="fill:#001b71"/><path d="m13.8 21.66 1.4-1.4-1.414-1.414-2.106 2.106a1 1 0 0 0 0 1.414l2.106 2.107L15.2 23.06z" style="fill:#001b71"/></svg>