<svg id="APIGateway" xmlns="http://www.w3.org/2000/svg" xmlns:xlink="http://www.w3.org/1999/xlink" viewBox="0 0 32 32"><defs><linearGradient id="2aquq4d4da" x1="-2622.225" y1="-3393.719" x2="-2617.225" y2="-3393.719" gradientTransform="matrix(1 0 0 -1 2641.232 -3377.722)" gradientUnits="userSpaceOnUse"><stop offset=".05" stop-opacity="0"/><stop offset=".7"/></linearGradient><linearGradient id="nriaj2gdub" x1="-3499.793" y1="-3393.719" x2="-3494.793" y2="-3393.719" gradientTransform="translate(3507.799 3409.717)" xlink:href="#2aquq4d4da"/><linearGradient id="5p5pf56yyd" x1=".002" y1="31.998" x2="32.002" y2="-.002" gradientUnits="userSpaceOnUse"><stop offset=".1" stop-color="#0fbbb8"/><stop offset=".9" stop-color="#0e61fc"/></linearGradient><mask id="67hw7hm5yc" x=".002" y="-.002" width="32" height="32" maskUnits="userSpaceOnUse"><path d="M27.002 12.993c-.254 0-.497.042-.734.101l-2.872-4.308a2.974 2.974 0 0 0 .606-1.789c0-1.654-1.346-3-3-3s-3 1.346-3 3 1.346 3 3 3c.254 0 .496-.041.731-.101l2.873 4.31a2.991 2.991 0 0 0-.42.787h-5.18v2h5.18c.102.287.244.551.423.79l-2.876 4.315a2.944 2.944 0 0 0-.731-.101c-1.654 0-3 1.346-3 3s1.346 3 3 3 3-1.346 3-3c0-.673-.23-1.288-.606-1.789l2.877-4.316c.235.059.476.1.729.1 1.654 0 3-1.346 3-3s-1.346-3-3-3zm-7-5.995c0-.551.449-1 1-1s1 .449 1 1-.449 1-1 1-1-.449-1-1zm1 19c-.551 0-1-.449-1-1s.449-1 1-1 1 .449 1 1-.449 1-1 1zm6-9.005a1 1 0 0 1-.996-.978v-.043a.998.998 0 0 1 1.996.022c0 .551-.449 1-1 1zM10.271 9.897c.235.06.478.101.731.101 1.654 0 3-1.346 3-3s-1.346-3-3-3-3 1.346-3 3c0 .673.23 1.288.606 1.789l-2.872 4.308a2.961 2.961 0 0 0-.734-.101c-1.654 0-3 1.346-3 3s1.346 3 3 3c.253 0 .494-.041.729-.1l2.877 4.316a2.974 2.974 0 0 0-.606 1.789c0 1.654 1.346 3 3 3s3-1.346 3-3-1.346-3-3-3c-.254 0-.496.041-.731.101l-2.876-4.315c.179-.239.321-.504.423-.79h5.189v-2H7.818a2.991 2.991 0 0 0-.42-.787l2.873-4.31zm.731-3.899c.551 0 1 .449 1 1s-.449 1-1 1-1-.449-1-1 .449-1 1-1zm-7 9.995c0-.551.449-1 1-1s1 .449 1 1-.449 1-1 1-1-.449-1-1zm8 9.005c0 .551-.449 1-1 1s-1-.449-1-1 .449-1 1-1 1 .449 1 1z" style="fill:#fff"/><path transform="rotate(180 21.506 15.998)" style="fill:url(#2aquq4d4da)" d="M19.007 13.998h5v4h-5z"/><path style="fill:url(#nriaj2gdub)" d="M8.006 13.998h5v4h-5z"/></mask></defs><g style="mask:url(#67hw7hm5yc)"><path style="fill:url(#5p5pf56yyd)" d="M.002-.002h32v32h-32z"/></g><path d="M16.002 19.998c-2.206 0-4-1.794-4-4s1.794-4 4-4 4 1.794 4 4-1.794 4-4 4zm0-6c-1.103 0-2 .897-2 2s.897 2 2 2 2-.897 2-2-.897-2-2-2z" style="fill:#001d6c"/></svg>