<svg id="WebMethodsManagedFileTransfer" xmlns="http://www.w3.org/2000/svg" xmlns:xlink="http://www.w3.org/1999/xlink" viewBox="0 0 32 32"><defs><linearGradient id="ib1xhwgyya" x1="-2037.779" y1="-35.418" x2="-2027.26" y2="-32.599" gradientTransform="scale(-1 1) rotate(-22.462 -928.042 -5090.516)" gradientUnits="userSpaceOnUse"><stop offset=".3"/><stop offset="1" stop-opacity="0"/></linearGradient><linearGradient id="97ywb56qzb" x1="3508.279" y1="-3582.645" x2="3518.798" y2="-3579.826" gradientTransform="scale(1 -1) rotate(-81.178 3837.675 245.115)" xlink:href="#ib1xhwgyya"/><linearGradient id="s7og97jnfc" x1="-2101.578" y1="-6632.075" x2="-2091.059" y2="-6629.257" gradientTransform="scale(1 -1) rotate(34.756 -11593.11 65.71)" xlink:href="#ib1xhwgyya"/><linearGradient id="z2h2cwr7pe" x1="-1210" y1="32" x2="-1242" y2="0" gradientTransform="matrix(1 0 0 -1 1242 32)" gradientUnits="userSpaceOnUse"><stop offset=".1" stop-color="#15b9b6"/><stop offset=".9" stop-color="#0e61fa"/></linearGradient><mask id="w0z70ubvrd" x="0" y="0" width="32.211" height="32" maskUnits="userSpaceOnUse"><path d="M5.429 8.108C9.778 1.73 18.505.08 24.883 4.429s8.028 13.076 3.679 19.454-13.076 8.028-19.454 3.679S1.08 14.486 5.429 8.108zm1.652 1.127c-3.728 5.467-2.314 12.947 3.153 16.675s12.947 2.314 16.675-3.153S29.223 9.81 23.756 6.082 10.809 3.769 7.081 9.235z" style="fill:#fff"/><path style="fill:url(#ib1xhwgyya)" d="M11.994 1 22.56 2.167l-1.318 3.356L11 6.569 11.994 1z"/><path style="fill:url(#97ywb56qzb)" d="M6.489 27.253 2 17.617 5.552 17l6.213 8.21-5.276 2.043z"/><path style="fill:url(#s7og97jnfc)" d="m32.211 19.8-6.702 8.251-2.109-2.925 4.667-9.177 4.144 3.851z"/><path transform="rotate(-151.251 23.078 4.769)" d="M21.763 3.17h2.63v3.196h-2.63z"/><path d="M20.521 3.309c.932-1.367 2.803-1.721 4.17-.789s1.721 2.803.789 4.17-2.803 1.721-4.17.789-1.721-2.803-.789-4.17zm1.653 1.127a1.001 1.001 0 1 0 1.655 1.127 1.001 1.001 0 0 0-1.655-1.127z" style="fill:#fff"/><path transform="rotate(-91.251 4.442 15.99)" d="M3.441 13.99h2v4h-2z"/><path d="M1.52 14.308c.932-1.367 2.803-1.721 4.17-.789s1.721 2.803.789 4.17-2.803 1.721-4.17.789-1.721-2.803-.789-4.17zm1.653 1.128a1.001 1.001 0 1 0 1.655 1.127 1.001 1.001 0 0 0-1.655-1.127z" style="fill:#fff"/><path transform="rotate(-121.251 22.685 26.712)" d="M21.185 25.212h3v3h-3z"/><path d="M20.521 25.309c.932-1.367 2.803-1.721 4.17-.789s1.721 2.803.789 4.17-2.803 1.721-4.17.789-1.721-2.803-.789-4.17zm1.653 1.127a1.001 1.001 0 1 0 1.655 1.127 1.001 1.001 0 0 0-1.655-1.127z" style="fill:#fff"/></mask></defs><g style="mask:url(#w0z70ubvrd)"><path transform="rotate(180 16 16)" style="fill:url(#z2h2cwr7pe)" d="M0 0h32v32H0z"/></g><path d="M18 9.003 13.265 9C12.567 9 12 9.558 12 10.244v10.514c0 .685.568 1.243 1.265 1.243h7.465c.698 0 1.265-.558 1.265-1.242l.004-7.76-4-3.996zM14 20v-9h2.993l.008 3.004h3L19.995 20h-5.994z" style="fill:#001d6c"/></svg>