<svg id="aad43856-5ad6-477c-a579-15a36ab3fecd" data-name="Build icon here" xmlns="http://www.w3.org/2000/svg" xmlns:xlink="http://www.w3.org/1999/xlink" viewBox="0 0 32 32">
  <defs>
    <linearGradient id="be7cd17a-3bd2-4485-a7f1-f6b2d81c2522" x1="3.719" y1="14.049" x2="18.281" y2="17.951" gradientUnits="userSpaceOnUse">
      <stop offset="0.16" stop-opacity="0"/>
      <stop offset="0.6"/>
    </linearGradient>
    <linearGradient id="ea05c4c0-e464-4079-a6da-3a774d75e809" x1="-4518.281" y1="-557.049" x2="-4503.719" y2="-560.951" gradientTransform="translate(4527 580)" xlink:href="#be7cd17a-3bd2-4485-a7f1-f6b2d81c2522"/>
    <mask id="fdebcfc5-41e5-4d8a-a46e-fcb5cd94231b" x="0" y="0" width="32" height="32" maskUnits="userSpaceOnUse">
      <g>
        <path d="M17.742,27.125,21,24.52V17a1,1,0,0,1,.293-.707l4.071-4.071A8.945,8.945,0,0,0,28,5.858V4H26.143a8.941,8.941,0,0,0-6.365,2.636l-4.071,4.071A1,1,0,0,1,15,11H7.48L4.875,14.258,17.142,16.01l-.284,1.98-14-2a1,1,0,0,1-.639-1.615l4-5A1,1,0,0,1,7,9h7.586l3.778-3.778A10.926,10.926,0,0,1,26.143,2H28a2,2,0,0,1,2,2V5.858a10.931,10.931,0,0,1-3.222,7.778L23,17.414V25a1,1,0,0,1-.375.781l-5,4a1,1,0,0,1-1.615-.639l-2-14,1.98-.284Z" fill="#fff"/>
        <rect x="4" y="13" width="14" height="6" fill="url(#be7cd17a-3bd2-4485-a7f1-f6b2d81c2522)"/>
        <rect x="9" y="18" width="14" height="6" transform="translate(-5 37) rotate(-90)" fill="url(#ea05c4c0-e464-4079-a6da-3a774d75e809)"/>
      </g>
    </mask>
    <linearGradient id="bd38e032-cc74-4c3d-8318-4c072683630e" y1="32" x2="32" gradientUnits="userSpaceOnUse">
      <stop offset="0.1" stop-color="#a56eff"/>
      <stop offset="0.9" stop-color="#0f62fe"/>
    </linearGradient>
  </defs>
  <g>
    <g mask="url(#fdebcfc5-41e5-4d8a-a46e-fcb5cd94231b)">
      <rect width="32" height="32" fill="url(#bd38e032-cc74-4c3d-8318-4c072683630e)"/>
    </g>
    <rect x="6.343" y="19" width="11.314" height="2" transform="translate(-10.627 14.343) rotate(-45)" fill="#001d6c"/>
  </g>
</svg>
