<svg data-name="Build icon here" xmlns="http://www.w3.org/2000/svg" xmlns:xlink="http://www.w3.org/1999/xlink" viewBox="0 0 32 32"><defs><linearGradient id="2kqr9ishga" x1="3.719" y1="14.049" x2="18.281" y2="17.951" gradientUnits="userSpaceOnUse"><stop offset=".16" stop-opacity="0"/><stop offset=".6"/></linearGradient><linearGradient id="2cxkosl7rb" x1="-4518.281" y1="-557.049" x2="-4503.719" y2="-560.951" gradientTransform="translate(4527 580)" xlink:href="#2kqr9ishga"/><linearGradient id="5636hn06cd" y1="32" x2="32" gradientUnits="userSpaceOnUse"><stop offset=".1" stop-color="#a56eff"/><stop offset=".9" stop-color="#0f62fe"/></linearGradient><mask id="bgwt893o1c" x="0" y="0" width="32" height="32" maskUnits="userSpaceOnUse"><path d="M17.742 27.125 21 24.52V17a1 1 0 0 1 .293-.707l4.071-4.071A8.945 8.945 0 0 0 28 5.858V4h-1.857a8.941 8.941 0 0 0-6.365 2.636l-4.071 4.071A1 1 0 0 1 15 11H7.48l-2.605 3.258 12.267 1.752-.284 1.98-14-2a1 1 0 0 1-.639-1.615l4-5A1 1 0 0 1 7 9h7.586l3.778-3.778A10.926 10.926 0 0 1 26.143 2H28a2 2 0 0 1 2 2v1.858a10.931 10.931 0 0 1-3.222 7.778L23 17.414V25a1 1 0 0 1-.375.781l-5 4a1 1 0 0 1-1.615-.639l-2-14 1.98-.284z" fill="#fff"/><path fill="url(#2kqr9ishga)" d="M4 13h14v6H4z"/><path transform="rotate(-90 16 21)" fill="url(#2cxkosl7rb)" d="M9 18h14v6H9z"/></mask></defs><g mask="url(#bgwt893o1c)"><path fill="url(#5636hn06cd)" d="M0 0h32v32H0z"/></g><path fill="#001d6c" d="m7.293 23.293 8-8 1.415 1.414-8 8z"/></svg>