<svg id="ZAutomationWebConsole" xmlns="http://www.w3.org/2000/svg" xmlns:xlink="http://www.w3.org/1999/xlink" viewBox="0 0 32 32"><defs><linearGradient id="p2rbuee89a" x1="-7838" y1="-13512" x2="-7830" y2="-13512" gradientTransform="matrix(0 1 1 0 13539 7848)" gradientUnits="userSpaceOnUse"><stop offset="0" stop-opacity="0"/><stop offset=".8"/></linearGradient><linearGradient id="cveljtyabb" x1="-8191.02" y1="-2252.177" x2="-8185.02" y2="-2252.177" gradientTransform="matrix(0 -1 -1 0 -2247.677 -8166.02)" xlink:href="#p2rbuee89a"/><linearGradient id="81gyv5rz7d" x1="0" y1="1438" x2="32" y2="1406" gradientTransform="translate(0 -1406)" gradientUnits="userSpaceOnUse"><stop offset=".1" stop-color="#a16efb"/><stop offset=".9" stop-color="#0e61fa"/></linearGradient><mask id="sxyswf36xc" x="0" y="0" width="32" height="32" maskUnits="userSpaceOnUse"><path d="M21 4h-1.184A2.996 2.996 0 0 0 17 2c-1.654 0-3 1.346-3 3s1.346 3 3 3a2.996 2.996 0 0 0 2.816-2H21c2.757 0 5 2.243 5 5v6h2v-6c0-3.86-3.141-7-7-7zm-4 2a1.001 1.001 0 0 1 0-2 1.001 1.001 0 0 1 0 2z" style="fill:#fff"/><path d="M25 10v8h4v-8h-4z" style="fill:url(#p2rbuee89a)"/><path d="M16 28H9c-3.859 0-7-3.141-7-7v-1h2v1c0 2.757 2.243 5 5 5h7v2z" style="fill:#fff"/><path d="M7 25v-6H2v6h5z" style="fill:url(#cveljtyabb)"/><path d="M10 2H4.017A2.02 2.02 0 0 0 2 4.017V16c0 1.103.897 2 2 2h6c1.103 0 2-.897 2-2V4c0-1.103-.897-2-2-2zm0 6.004L4.647 4H10v4.004zm-.668 1.997-5.329 3.997.011-7.975 5.318 3.978zM4.666 16l5.335-4.001V16H4.666zM21 9a2.996 2.996 0 0 0-2.816 2H14v2h4.184A2.996 2.996 0 0 0 21 15c1.654 0 3-1.346 3-3s-1.346-3-3-3zm0 4a1.001 1.001 0 0 1 0-2 1.001 1.001 0 0 1 0 2z" style="fill:#fff"/></mask></defs><g style="mask:url(#sxyswf36xc)"><path d="M0 0h32v32H0V0z" style="fill:url(#81gyv5rz7d)"/></g><path d="M29 18H19a1 1 0 0 0-1 1v6a1 1 0 0 0 1 1h4v2h-2v2h6v-2h-2v-2h4a1 1 0 0 0 1-1v-6a1 1 0 0 0-1-1zm-1 6h-8v-4h8v4z" style="fill:#001e71"/></svg>