<svg id="ZDb2Connector" xmlns="http://www.w3.org/2000/svg" xmlns:xlink="http://www.w3.org/1999/xlink" viewBox="0 0 32 32"><defs><linearGradient id="aunjwmb3sa" x1="2669.036" y1="4471.616" x2="2675.731" y2="4471.616" gradientTransform="matrix(-1 0 0 1 2687.046 -4466.616)" gradientUnits="userSpaceOnUse"><stop offset="0" stop-opacity="0"/><stop offset=".638"/></linearGradient><linearGradient id="ekctho22cb" x1="3564.888" y1="3534.642" x2="3571.582" y2="3534.642" gradientTransform="matrix(1 0 0 -1 -3557.888 3561.642)" xlink:href="#aunjwmb3sa"/><linearGradient id="y7o4t37xzd" x1="0" y1="2" x2="32" y2="34" gradientTransform="matrix(1 0 0 -1 0 34)" gradientUnits="userSpaceOnUse"><stop offset=".1" stop-color="#ab6bfd"/><stop offset=".9" stop-color="#0064fd"/></linearGradient><mask id="nhvzdb8xec" x="0" y="0" width="32" height="32" maskUnits="userSpaceOnUse"><g id="upgooy0e0c"><path d="M30 18h-2v-7c0-2.757-2.243-5-5-5h-9.991V4H23c3.86 0 7 3.14 7 7v7z" style="fill:#fff"/><path id="Gradients_black_" data-name="Gradients black" d="M18.01 7h-6.909V3h6.909v4z" style="fill:url(#aunjwmb3sa)"/><path d="M13.009 28h-4c-3.86 0-7-3.141-7-7v-1h2v1c0 2.757 2.243 5 5 5h4v2zM10 2H4.017A2.02 2.02 0 0 0 2 4.017V16c0 1.103.897 2 2 2h6c1.103 0 2-.897 2-2V4c0-1.103-.897-2-2-2zm0 6.004L4.647 4H10v4.004zm-.668 1.997-5.329 3.997.011-7.975 5.318 3.978zM4.666 16l5.335-4.001V16H4.666z" style="fill:#fff"/><path id="Gradients_black_-2" data-name="Gradients black -2" d="M7 25h6.909v4H7v-4z" style="fill:url(#ekctho22cb)"/></g></mask></defs><g style="mask:url(#nhvzdb8xec)"><path d="M0 0h32v32H0V0z" style="fill:url(#y7o4t37xzd)"/></g><circle cx="19" cy="26" r="1" style="fill:#001e71"/><path d="M28 30H16c-1.103 0-2-.897-2-2v-4c0-1.103.897-2 2-2h12c1.103 0 2 .897 2 2v4c0 1.103-.897 2-2 2zm-12-6v4h12.002L28 24H16z" style="fill:#001e71"/></svg>