<svg xmlns="http://www.w3.org/2000/svg" xmlns:xlink="http://www.w3.org/1999/xlink" viewBox="0 0 32 32"><defs><style>.cls-1{fill:#fff;}.cls-2{fill:url(#linear-gradient);}.cls-3{mask:url(#mask);}.cls-4{fill:url(#linear-gradient-2);}.cls-5{fill:#001d6c;}</style><linearGradient id="linear-gradient" x1="926.282" y1="328.318" x2="939.282" y2="328.318" gradientTransform="translate(-948.793 -253.72) scale(1.03 0.848)" gradientUnits="userSpaceOnUse"><stop offset="0.1" stop-opacity="0"/><stop offset="0.9"/></linearGradient><mask id="mask" x="0" y="0" width="32" height="32" maskUnits="userSpaceOnUse"><path class="cls-1" d="M15.486,30.864,3.5,23.876a1,1,0,0,1-.5-.864V9H5V22.438l11.494,6.7Z"/><path class="cls-1" d="M12.992,13.017l-2,0L11,4.337a1,1,0,0,1,.5-.866l4.02-2.313a1,1,0,0,1,1,0L28.5,8.136A1,1,0,0,1,29,9v4H27V9.575L16.017,3.18,13,4.917Z"/><rect class="cls-1" x="7" y="6" width="2" height="10"/><rect class="cls-2" x="5.442" y="20.519" width="13.392" height="8.482" transform="translate(14.006 -2.752) rotate(30)"/></mask><linearGradient id="linear-gradient-2" x1="-5437" y1="5469" x2="-5469" y2="5501" gradientTransform="matrix(1, 0, 0, -1, 5469, 5501)" gradientUnits="userSpaceOnUse"><stop offset="0.1" stop-color="#a56eff"/><stop offset="0.9" stop-color="#0f62fe"/></linearGradient></defs><g id="Layer_2" data-name="Layer 2"><g id="Light_theme_icons" data-name="Light theme icons"><g class="cls-3"><rect class="cls-4" width="32" height="32" transform="translate(32 0) rotate(90)"/></g><path class="cls-5" d="M28,31H20a2,2,0,0,1-2-2V26h2v3h8V26h2v3A2,2,0,0,1,28,31Z"/><polygon class="cls-5" points="25 18.83 25 26 23 26 23 18.83 20.41 21.41 19 20 24 15 29 20 27.59 21.41 25 18.83"/></g></g></svg>