<svg xmlns="http://www.w3.org/2000/svg" viewBox="0 0 32 32"><defs><linearGradient id="pdywaa8y7a" x1="962.134" y1="460.951" x2="975.134" y2="460.951" gradientTransform="matrix(1.03 0 0 .848 -985.727 -366.22)" gradientUnits="userSpaceOnUse"><stop offset=".1" stop-opacity="0"/><stop offset=".9"/></linearGradient><linearGradient id="0nazi39nrc" x1="-5212" y1="5244" x2="-5244" y2="5276" gradientTransform="matrix(1 0 0 -1 5244 5276)" gradientUnits="userSpaceOnUse"><stop offset=".1" stop-color="#a56eff"/><stop offset=".9" stop-color="#0f62fe"/></linearGradient><mask id="mcemhz0hxb" x="0" y="0" width="32" height="32" maskUnits="userSpaceOnUse"><path d="M15.486 30.864 3.5 23.876a1 1 0 0 1-.5-.864V9h2v13.438l11.494 6.7zm-2.494-17.847h-2L11 4.337a1 1 0 0 1 .5-.866l4.02-2.313a1 1 0 0 1 1 0L28.5 8.136A1 1 0 0 1 29 9v4h-2V9.575L16.017 3.18 13 4.917z" fill="#fff"/><path fill="#fff" d="M7 6h2v10H7z"/><path transform="rotate(30 12.138 24.76)" fill="url(#pdywaa8y7a)" d="M5.442 20.519h13.392v8.482H5.442z"/></mask></defs><g data-name="Layer 2"><g data-name="Light theme icons"><g mask="url(#mcemhz0hxb)"><path transform="rotate(90 16 16)" fill="url(#0nazi39nrc)" d="M0 0h32v32H0z"/></g><path fill="#001d6c" d="M22 17h2v10h-2zm5 4h2v6h-2zm-10-2h2v8h-2z"/></g></g></svg>