<svg id="ZDevelopmentAndTestEnvironment" xmlns="http://www.w3.org/2000/svg" viewBox="0 0 32 32"><defs><linearGradient id="n6t7anhg2a" x1="1526.843" y1="234.303" x2="1539.843" y2="234.303" gradientTransform="matrix(1.03 0 0 .848 -1567.477 -173.977)" gradientUnits="userSpaceOnUse"><stop offset=".1" stop-opacity="0"/><stop offset=".9"/></linearGradient><linearGradient id="5duwx2oysc" y1="32" x2="32" gradientUnits="userSpaceOnUse"><stop offset=".1" stop-color="#ae67ff"/><stop offset=".9" stop-color="#005fff"/></linearGradient><mask id="8m6eyy8fib" x="0" y="0" width="32" height="32" maskUnits="userSpaceOnUse"><path d="M15.486 30.864 3.5 23.876a1 1 0 0 1-.5-.864V9h2v13.438l11.494 6.7zM12.992 13.017h-2L11 4.337a1 1 0 0 1 .5-.866l4.02-2.313a1 1 0 0 1 1 0L28.5 8.136A1 1 0 0 1 29 9v4h-2V9.575L16.017 3.18 13 4.917z" style="fill:#fff"/><path style="fill:#fff" d="M7 6h2v10H7z"/><path transform="rotate(30 12.138 24.76)" style="fill:url(#n6t7anhg2a)" d="M5.442 20.519h13.392v8.482H5.442z"/></mask></defs><g style="mask:url(#8m6eyy8fib)"><path style="fill:url(#5duwx2oysc)" d="M0 0h32v32H0z"/></g><path d="M27 24a2.969 2.969 0 0 0-1.286.3l-2.281-2.281A3.947 3.947 0 0 0 24 20a4 4 0 1 0-4 4 3.947 3.947 0 0 0 2.019-.567l2.281 2.281A2.969 2.969 0 0 0 24 27a3 3 0 1 0 3-3zm-9-4a2 2 0 1 1 2 2 2 2 0 0 1-2-2z" style="fill:#001b71"/></svg>