<svg id="ZeroTrustConnect" xmlns="http://www.w3.org/2000/svg" xmlns:xlink="http://www.w3.org/1999/xlink" viewBox="0 0 32 32"><defs><linearGradient id="zwfd3ajg4a" x1="215.25" y1="354.75" x2="200.75" y2="340.25" gradientTransform="translate(-197 -342)" gradientUnits="userSpaceOnUse"><stop offset=".39"/><stop offset=".85" stop-opacity="0"/></linearGradient><linearGradient id="izsi04t9kb" x1="564.25" y1="-307.25" x2="549.75" y2="-321.75" gradientTransform="translate(-538 341)" xlink:href="#zwfd3ajg4a"/><linearGradient id="9vd9b19xmd" x1="0" y1="32" x2="32" y2="0" gradientUnits="userSpaceOnUse"><stop offset=".1" stop-color="#08bdba"/><stop offset=".9" stop-color="#0f62fe"/></linearGradient><mask id="io9jv75yac" x="0" y="0" width="32" height="32" maskUnits="userSpaceOnUse"><path d="M29 17.003h-5v-2h3.959a11.902 11.902 0 0 0-3.474-7.488c-4.679-4.679-12.292-4.678-16.971 0L6.1 6.101c5.46-5.458 14.34-5.458 19.799 0A13.905 13.905 0 0 1 30 16v1l-1 .003zM16 29.993c-3.585 0-7.17-1.364-9.899-4.094A13.907 13.907 0 0 1 2 16v-1.001l6.002.004-.002 2-3.959-.002a11.901 11.901 0 0 0 3.474 7.484c4.68 4.678 12.291 4.678 16.971 0l1.414 1.414a13.956 13.956 0 0 1-9.899 4.094z" style="fill:#fff"/><path transform="rotate(90 11 5.5)" style="fill:url(#zwfd3ajg4a)" d="M6.5-4.5h9v20h-9z"/><path transform="rotate(-90 19 26.5)" style="fill:url(#izsi04t9kb)" d="M14.5 16.5h9v20h-9z"/></mask></defs><g style="mask:url(#io9jv75yac)"><path style="fill:url(#9vd9b19xmd)" d="M0 0h32v32H0z"/></g><path d="M7 10c-1.654 0-3-1.346-3-3s1.346-3 3-3 3 1.346 3 3-1.346 3-3 3zm0-4a1.001 1.001 0 0 0 0 2 1.001 1.001 0 0 0 0-2zM19 15v-2c0-1.654-1.346-3-3-3s-3 1.346-3 3v2a1 1 0 0 0-1 1v5a1 1 0 0 0 1 1h6a1 1 0 0 0 1-1v-5a1 1 0 0 0-1-1zm-4-2a1.001 1.001 0 0 1 2 0v2h-2v-2zm3 7h-4v-3h4v3zM25 28c-1.654 0-3-1.346-3-3s1.346-3 3-3 3 1.346 3 3-1.346 3-3 3zm0-4a1 1 0 1 0 0 2 1 1 0 0 0 0-2z" style="fill:#001d6c"/></svg>