<svg id="ZOpenEditor" xmlns="http://www.w3.org/2000/svg" viewBox="0 0 32 32"><defs><linearGradient id="kh6t1wsy2a" x1="1526.843" y1="234.303" x2="1539.843" y2="234.303" gradientTransform="matrix(1.03 0 0 .848 -1567.477 -173.977)" gradientUnits="userSpaceOnUse"><stop offset=".1" stop-opacity="0"/><stop offset=".9"/></linearGradient><linearGradient id="r67mtkdrzc" y1="32" x2="32" gradientUnits="userSpaceOnUse"><stop offset=".1" stop-color="#ae67ff"/><stop offset=".9" stop-color="#005fff"/></linearGradient><mask id="w6bjjv089b" x="0" y="0" width="32" height="32" maskUnits="userSpaceOnUse"><path d="M15.486 30.864 3.5 23.876a1 1 0 0 1-.5-.864V9h2v13.438l11.494 6.7zM12.992 13.017h-2L11 4.337a1 1 0 0 1 .5-.866l4.02-2.313a1 1 0 0 1 1 0L28.5 8.136A1 1 0 0 1 29 9v4h-2V9.575L16.017 3.18 13 4.917z" style="fill:#fff"/><path style="fill:#fff" d="M7 6h2v10H7z"/><path transform="rotate(30 12.138 24.76)" style="fill:url(#kh6t1wsy2a)" d="M5.442 20.519h13.392v8.482H5.442z"/></mask></defs><g style="mask:url(#w6bjjv089b)"><path style="fill:url(#r67mtkdrzc)" d="M0 0h32v32H0z"/></g><path style="fill:#001b71" d="m26 17-1.414 1.414L28.171 22l-3.585 3.586L26 27l5-5-5-5zM20 17l1.414 1.414L17.829 22l3.585 3.586L20 27l-5-5 5-5z"/></svg>