<svg id="zOSAuthorizedCodeScanner" xmlns="http://www.w3.org/2000/svg" xmlns:xlink="http://www.w3.org/1999/xlink" viewBox="0 0 32 32"><defs><linearGradient id="r0gmlm7mia" x1="2453.168" y1="-5709.402" x2="2468.114" y2="-5705.398" gradientTransform="rotate(120 -414.87 -3546.494)" gradientUnits="userSpaceOnUse"><stop offset=".2"/><stop offset=".8" stop-opacity="0"/></linearGradient><linearGradient id="wy0j19a99b" x1="-3714.779" y1="-4962.463" x2="-3699.833" y2="-4958.458" gradientTransform="rotate(-120 -413.643 -3545.633)" xlink:href="#r0gmlm7mia"/><linearGradient id="avjvmfymsc" x1="16.015" y1="4.37" x2="30.961" y2="8.375" gradientTransform="translate(-1.49 2.127)" xlink:href="#r0gmlm7mia"/><linearGradient id="qw737x1l9e" x1="0" y1="32" x2="32" y2="0" gradientUnits="userSpaceOnUse"><stop offset=".1" stop-color="#08bdba"/><stop offset=".9" stop-color="#0f62fe"/></linearGradient><mask id="3aryk1x83d" x="0" y="0" width="32" height="32" maskUnits="userSpaceOnUse"><path d="M16 30C8.28 30 2 23.72 2 16S8.28 2 16 2s14 6.28 14 14-6.28 14-14 14zm0-26C9.383 4 4 9.383 4 16s5.383 12 12 12 12-5.383 12-12S22.617 4 16 4z" style="fill:#fff"/><path style="fill:url(#r0gmlm7mia)" d="m22 32 6.989-8.5L15.998 16l-6 10.393L22 32z"/><path style="fill:url(#wy0j19a99b)" d="m0 13 3.008 10.5 12.99-7.5-6-10.393L0 13z"/><path style="fill:url(#avjvmfymsc)" d="M15.998 1h12v15h-12z"/></mask></defs><g style="mask:url(#3aryk1x83d)"><path style="fill:url(#qw737x1l9e)" d="M0 0h32v32H0z"/></g><path d="M16 8c-4.411 0-8 3.589-8 8s3.589 8 8 8 8-3.589 8-8-3.589-8-8-8zm0 9v2h5.188A5.997 5.997 0 0 1 16 22c-3.309 0-6-2.691-6-6 0-.341.035-.674.09-1H12v-2h-1.188c1.039-1.79 2.973-3 5.188-3s4.149 1.209 5.188 3H14v2h7.91c.055.326.09.659.09 1s-.035.674-.09 1H16z" style="fill:#001d6c"/><path style="fill:#001d6c" d="M12 17h2v2h-2z"/></svg>