<svg id="zOSCloudBroker" xmlns="http://www.w3.org/2000/svg" viewBox="0 0 32 32"><defs><linearGradient id="r4qrbjvqda" x1="24" y1="16" x2="32" y2="8" gradientUnits="userSpaceOnUse"><stop offset=".25" stop-opacity="0"/><stop offset=".7"/></linearGradient><linearGradient id="vh5gprtcqb" x1="0" y1="24" x2="8" y2="16" gradientUnits="userSpaceOnUse"><stop offset=".3"/><stop offset=".75" stop-opacity="0"/></linearGradient><linearGradient id="mvy4kdxird" x1="0" y1="32" x2="32" y2="0" gradientUnits="userSpaceOnUse"><stop offset=".1" stop-color="#08bdba"/><stop offset=".9" stop-color="#0f62fe"/></linearGradient><mask id="lj1uf3aqgc" x="0" y="0" width="32" height="32" maskUnits="userSpaceOnUse"><path d="M5.047 15.001a10.871 10.871 0 0 0 0 1.999l-4.024 4.024 1.414 1.414 4.729-4.729c-.107-.554-.167-1.124-.167-1.709s.06-1.155.167-1.708l-2.56-2.56 1-1.732 1-1.732 3.502.938A8.992 8.992 0 0 1 13.061 7.5l.938-3.5h4.012V2h-4.012a2 2 0 0 0-1.932 1.482l-.68 2.539c-.604.279-1.18.611-1.723.996l-2.539-.68a2.003 2.003 0 0 0-2.25.932l-1 1.732-1 1.732a2 2 0 0 0 .318 2.414l1.854 1.854zM26.953 17a10.893 10.893 0 0 0 0-2l4.029-4.029-1.414-1.414-4.735 4.735c.107.554.167 1.124.167 1.708s-.06 1.155-.167 1.709l2.559 2.559-1 1.732-1 1.732-3.502-.938a8.984 8.984 0 0 1-2.952 1.705L18 28h-4v2h4a2 2 0 0 0 1.932-1.482l.68-2.539a10.89 10.89 0 0 0 1.723-.995l2.539.68a2.003 2.003 0 0 0 2.25-.932l1-1.732 1-1.732a2 2 0 0 0-.318-2.414L26.952 17z" style="fill:#fff;stroke-width:0"/><path style="fill:url(#r4qrbjvqda);stroke-width:0" d="M24 8h8v8h-8z"/><path style="fill:url(#vh5gprtcqb);stroke-width:0" d="M0 16h8v8H0z"/></mask></defs><g style="mask:url(#lj1uf3aqgc)"><path style="fill:url(#mvy4kdxird);stroke-width:0" d="M0 0h32v32H0z"/></g><path style="fill:#001d6c;stroke-width:0" d="M14 24H6.828l2.586-2.586L8 20l-5 5 5 5 1.414-1.414L6.828 26H14v-2zM18 8h7.172l-2.586 2.586L24 12l5-5-5-5-1.414 1.414L25.172 6H18v2zM15.999 22c-3.309 0-6-2.691-6-6s2.691-6 6-6 6 2.691 6 6-2.691 6-6 6zm0-10c-2.206 0-4 1.794-4 4s1.794 4 4 4 4-1.794 4-4-1.794-4-4-4z"/></svg>