<svg id="zOSConnect" xmlns="http://www.w3.org/2000/svg" xmlns:xlink="http://www.w3.org/1999/xlink" viewBox="0 0 32 32"><defs><linearGradient id="tdnofc5i5a" x1="-2737.73" y1="-2812.908" x2="-2729.73" y2="-2812.908" gradientTransform="translate(2746.23 2820.908)" gradientUnits="userSpaceOnUse"><stop offset=".3"/><stop offset="1" stop-opacity="0"/></linearGradient><linearGradient id="tsrt6qnvvb" x1="-2753.73" y1="-2775.908" x2="-2745.73" y2="-2775.908" gradientTransform="translate(2769.23 2799.908)" xlink:href="#tdnofc5i5a"/><linearGradient id="3rde4xstrd" x1="-1.409" y1="27.731" x2="30.591" y2="-4.269" gradientTransform="translate(1.409 4.269)" gradientUnits="userSpaceOnUse"><stop offset=".1" stop-color="#08bdba"/><stop offset=".9" stop-color="#0f62fe"/></linearGradient><mask id="isyi8g735c" x="0" y="0" width="32" height="32" maskUnits="userSpaceOnUse"><path d="M24 22v-2c2.206 0 4-1.794 4-4V8c0-2.206-1.794-4-4-4h-8c-2.206 0-4 1.794-4 4v3h-2V8c0-3.309 2.691-6 6-6h8c3.309 0 6 2.691 6 6v8c0 3.309-2.691 6-6 6zM16 30H8c-3.309 0-6-2.691-6-6v-8c0-3.309 2.691-6 6-6v2c-2.206 0-4 1.794-4 4v8c0 2.206 1.794 4 4 4h8c2.206 0 4-1.794 4-4v-3h2v3c0 3.309-2.691 6-6 6z" style="fill:#fff;stroke-width:0"/><path transform="rotate(-90 12.5 8)" style="fill:url(#tdnofc5i5a);stroke-width:0" d="M8.5 4.5h8v7h-8z"/><path transform="rotate(90 19.5 24)" style="fill:url(#tsrt6qnvvb);stroke-width:0" d="M15.5 20.5h8v7h-8z"/></mask></defs><g style="mask:url(#isyi8g735c)"><path style="fill:url(#3rde4xstrd);stroke-width:0" d="M0 0h32v32H0z"/></g><path d="M20 22h-8a2 2 0 0 1-2-2v-8a2 2 0 0 1 2-2h8a2 2 0 0 1 2 2v8a2 2 0 0 1-2 2zm-8.003-10L12 20.003 20.003 20 20 12h-8.003z" style="fill:#001d6c;stroke-width:0"/></svg>