<svg data-name="Build icon here" xmlns="http://www.w3.org/2000/svg" viewBox="0 0 32 32"><defs><linearGradient id="svrryhpswa" x1="25" y1="18" x2="25" y2="5" gradientUnits="userSpaceOnUse"><stop offset=".15"/><stop offset=".8" stop-opacity="0"/></linearGradient><linearGradient id="cd8jx0yefc" y1="32" x2="32" gradientUnits="userSpaceOnUse"><stop offset=".1" stop-color="#08bdba"/><stop offset=".9" stop-color="#0f62fe"/></linearGradient><mask id="3w4uuvdiyb" x="0" y="0" width="32" height="32" maskUnits="userSpaceOnUse"><path d="M12 30H6a2 2 0 0 1-2-2V4a2 2 0 0 1 2-2h18a2 2 0 0 1 2 2v13h-2V4H6v24h6z" fill="#fff"/><path fill="url(#svrryhpswa)" d="M23 5h4v13h-4z"/></mask></defs><g mask="url(#3w4uuvdiyb)"><path fill="url(#cd8jx0yefc)" d="M0 0h32v32H0z"/></g><path fill="#001d6c" d="M9 7h12v2H9zm0 5h12v2H9zm0 5h6v2H9zm20.707 2.293-3-3a1 1 0 0 0-1.414 0L16 25.586V30h4.414l9.293-9.293a1 1 0 0 0 0-1.414zM19.586 28H18v-1.586l5-5L24.586 23zM26 21.586 24.414 20 26 18.414 27.586 20z"/></svg>