<svg id="zPricer" xmlns="http://www.w3.org/2000/svg" viewBox="0 0 32 32"><defs><linearGradient id="hsmykd6y3a" x1="1851.643" y1="-1047.009" x2="1860.844" y2="-1047.009" gradientTransform="matrix(1 0 0 -1 -1837.619 -1017.853)" gradientUnits="userSpaceOnUse"><stop offset="0" stop-opacity="0"/><stop offset=".83"/></linearGradient><linearGradient id="url9gzy6oc" x1="0" y1="32" x2="32" y2="0" gradientUnits="userSpaceOnUse"><stop offset=".1" stop-color="#08bdba"/><stop offset=".9" stop-color="#0f62fe"/></linearGradient><mask id="roq8fa50ub" x="0" y="0" width="32" height="32.326" maskUnits="userSpaceOnUse"><path d="m16.044 30.991-.008-2c7.143-.028 12.954-5.859 12.954-13s-5.831-13-13-13-13 5.831-13 13c0 3.464 1.353 6.729 3.809 9.194l-1.417 1.412A14.939 14.939 0 0 1 .99 15.991c0-8.271 6.729-15 15-15s15 6.729 15 15-6.705 14.968-14.946 15z" style="fill:#fff"/><path transform="rotate(164.305 18.625 29.156)" style="fill:url(#hsmykd6y3a)" d="M14.024 27.157h9.202v4h-9.202z" id="Gradients_black_" data-name="Gradients (black)"/></mask></defs><g style="mask:url(#roq8fa50ub)"><path style="fill:url(#url9gzy6oc)" d="M0 0h32v32H0z"/></g><circle cx="10.992" cy="28.987" r="2" style="fill:#001d6c"/><path d="M6.993 20.007v-1.262l3.321-3.896H7.103v-1.237h5.048v1.213l-3.345 3.921h3.431v1.262H6.993zM13.696 20.007v-8.553h3.848c.392 0 .745.063 1.059.19.314.127.583.307.803.54s.388.513.503.839c.114.326.171.686.171 1.078 0 .4-.057.762-.171 1.085-.115.323-.283.6-.503.833s-.489.412-.803.539c-.314.127-.667.19-1.059.19h-2.23v3.259h-1.618zm1.618-4.656h2.083c.31 0 .555-.084.735-.251.18-.167.27-.406.27-.717v-.564c0-.311-.09-.547-.27-.711-.18-.163-.425-.245-.735-.245h-2.083v2.488zM21.33 20.007v-6.396h1.568v1.323h.061c.041-.171.104-.337.191-.496.085-.159.197-.3.336-.422.139-.123.305-.221.496-.294s.414-.11.668-.11h.343v1.482h-.491c-.53 0-.931.078-1.201.233-.27.156-.404.409-.404.76v3.921h-1.568z" style="fill:#001d6c"/></svg>