<svg id="unassigned" xmlns="http://www.w3.org/2000/svg" viewBox="0 0 32 32"><defs><linearGradient id="9nh0elcgva" x1="113.378" y1="42.22" x2="122.378" y2="42.22" gradientTransform="translate(-96.879 -32.767)" gradientUnits="userSpaceOnUse"><stop offset="0" stop-opacity="0"/><stop offset=".83"/></linearGradient><linearGradient id="49evzxm2xc" x1="0" y1="32" x2="32" y2="0" gradientUnits="userSpaceOnUse"><stop offset=".1" stop-color="#08bdba"/><stop offset=".9" stop-color="#0f62fe"/></linearGradient><mask id="w2uiarmvyb" x="0" y="0" width="32" height="32" maskUnits="userSpaceOnUse"><path d="M23.999 13.993H11.992V7.988c0-2.2 1.79-4 4-4s4 1.8 4 4v4.52h2v-4.52c0-3.3-2.69-6-6-6s-6 2.7-6 6v6.005H7.999c-1.103 0-2 .897-2 2v12c0 1.103.897 2 2 2h16c1.103 0 2-.897 2-2v-12c0-1.103-.897-2-2-2zm-16 14v-12h16v12h-16z" style="fill:#fff"/><path transform="rotate(90 21 9.453)" style="fill:url(#9nh0elcgva)" d="M16.499 6.453h9v6h-9z" id="Gradients__x28_black_x29_"/></mask></defs><g style="mask:url(#w2uiarmvyb)"><path style="fill:url(#49evzxm2xc)" d="M0 0h32v32H0z"/></g><circle cx="11.999" cy="21.993" r="1" style="fill:#001d6c"/><circle cx="15.999" cy="21.993" r="1" style="fill:#001d6c"/><circle cx="19.999" cy="21.993" r="1" style="fill:#001d6c"/></svg>