<svg id="z_TransactionProcessingFacilityDevelopment" data-name="z/TransactionProcessingFacilityDevelopment" xmlns="http://www.w3.org/2000/svg" xmlns:xlink="http://www.w3.org/1999/xlink" viewBox="0 0 32 32"><defs><linearGradient id="1n2o21snla" x1="-4855" y1="7917" x2="-4847" y2="7917" gradientTransform="rotate(-180 -2417.5 3961)" gradientUnits="userSpaceOnUse"><stop offset="0" stop-opacity="0"/><stop offset=".8"/></linearGradient><linearGradient id="vc2k9luxbb" x1="-7625.383" y1="8442.179" x2="-7618.383" y2="8442.179" gradientTransform="translate(7633.518 -8415.179)" xlink:href="#1n2o21snla"/><linearGradient id="ug3n8j3pid" x1="0" y1="2" x2="32" y2="34" gradientTransform="matrix(1 0 0 -1 0 34)" gradientUnits="userSpaceOnUse"><stop offset=".1" stop-color="#a36efd"/><stop offset=".9" stop-color="#0e61fc"/></linearGradient><mask id="5wrn0ap08c" x="0" y="0" width="32" height="32" maskUnits="userSpaceOnUse"><path d="M28 14h-2v-3c0-2.757-2.243-5-5-5h-8V4h8c3.859 0 7 3.14 7 7v3zM15 28H9c-3.859 0-7-3.141-7-7v-1h2v1c0 2.757 2.243 5 5 5h6v2zM10 2H4.017A2.02 2.02 0 0 0 2 4.017V16c0 1.103.897 2 2 2h6c1.103 0 2-.897 2-2V4c0-1.103-.897-2-2-2zm0 6.004L4.647 4H10v4.004zm-.668 1.997-5.329 3.997.011-7.975 5.318 3.978zM4.666 16l5.335-4.001V16H4.666z" style="fill:#fff"/><g><path d="M20 3h-8v4h8V3z" style="fill:url(#1n2o21snla)"/><path d="M8.135 29h7v-4h-7v4z" style="fill:url(#vc2k9luxbb)"/></g></mask></defs><g style="mask:url(#5wrn0ap08c)"><path d="M0 0h32v32H0V0z" style="fill:url(#ug3n8j3pid)"/></g><path d="M24 31h7V19h-7v5h-5v7h5zm5-2h-3v-3h3v3zm-3-8h3v3h-3v-3zm-5 5h3v3h-3v-3z" style="fill:#001e71"/><path d="M22 22h-7v-7h7v7zm-5-2h3v-3h-3v3z" style="fill:#001e71"/></svg>