<svg xmlns="http://www.w3.org/2000/svg" viewBox="0 0 512 288"><defs><style>.cls-1{isolation:isolate}.cls-2,.cls-5,.cls-6{fill:#08bdba}.cls-3,.cls-7,.cls-9{fill:none}.cls-3,.cls-4,.cls-5,.cls-6,.cls-7{stroke:#fff;stroke-linecap:round}.cls-3,.cls-4,.cls-5,.cls-9{stroke-miterlimit:10}.cls-4{fill:#00539a}.cls-6,.cls-7{stroke-linejoin:round}.cls-8{mix-blend-mode:multiply}.cls-9{stroke:#cac5c4;stroke-width:.25px}</style></defs><title>grid</title><g class="cls-1"><g id="Background"><rect width="512" height="288" class="cls-2"/></g><g id="Art"><line x2="72" y1="160" y2="160" class="cls-3"/><line x2="72" y1="156" y2="156" class="cls-3"/><line x2="72" y1="152" y2="152" class="cls-3"/><line x2="72" y1="164" y2="164" class="cls-3"/><line x2="72" y1="168" y2="168" class="cls-3"/><line x1="116" x2="216" y1="160" y2="160" class="cls-3"/><line x1="116" x2="216" y1="156" y2="156" class="cls-3"/><line x1="116" x2="216" y1="152" y2="152" class="cls-3"/><line x1="116" x2="216" y1="164" y2="164" class="cls-3"/><line x1="116" x2="216" y1="168" y2="168" class="cls-3"/><line x1="360" x2="360" y1="160" y2="292" class="cls-3"/><line x1="364" x2="364" y1="160" y2="292" class="cls-3"/><line x1="368" x2="368" y1="160" y2="292" class="cls-3"/><line x1="356" x2="356" y1="160" y2="292" class="cls-3"/><line x1="352" x2="352" y1="160" y2="244" class="cls-3"/><path d="M120,160a48,48,0,0,0-96,0" class="cls-3"/><path d="M72,160A48,48,0,0,0,0,118.42" class="cls-3"/><path d="M312,160a24,24,0,0,0-48,0" class="cls-3"/><path d="M504,160a24,24,0,0,0-48,0" class="cls-3"/><path d="M408,160a96,96,0,0,0-192,0" class="cls-3"/><path d="M360,160a72,72,0,0,0-144,0" class="cls-3"/><path d="M312,160a48,48,0,0,0-96,0" class="cls-3"/><path d="M504,160a168,168,0,0,0-336,0" class="cls-3"/><path d="M264,160a24,24,0,0,0-48,0" class="cls-3"/><path d="M120,160a96,96,0,0,0,192,0" class="cls-3"/><circle cx="24" cy="160" r="12" class="cls-4"/><circle cx="72" cy="160" r="12" class="cls-5"/><circle cx="120" cy="160" r="12" class="cls-4"/><circle cx="168" cy="160" r="12" class="cls-5"/><circle cx="216" cy="160" r="12" class="cls-4"/><circle cx="216" cy="256" r="4" class="cls-4"/><circle cx="312" cy="64" r="4" class="cls-5"/><circle cx="476" cy="68" r="4" class="cls-4"/><circle cx="404" cy="132" r="4" class="cls-4"/><circle cx="312" cy="160" r="12" class="cls-4"/><circle cx="360" cy="160" r="12" class="cls-5"/><circle cx="408" cy="160" r="12" class="cls-5"/><circle cx="456" cy="160" r="12" class="cls-4"/><circle cx="360" cy="160" r="4" class="cls-4"/><circle cx="216" cy="160" r="4" class="cls-5"/><circle cx="168" cy="160" r="4" class="cls-4"/><circle cx="172" cy="124" r="4" class="cls-5"/><rect width="8" height="8" x="68" y="108" class="cls-4"/><rect width="8" height="8" x="204" y="48" class="cls-4"/><rect width="8" height="8" x="144" y="224" class="cls-5"/><rect width="8" height="8" x="292" y="120" class="cls-4"/><rect width="8" height="8" x="404" y="156" class="cls-4"/><rect width="24" height="24" x="252" y="148" class="cls-5"/><rect width="24" height="24" x="492" y="148" class="cls-5"/><rect width="24" height="48" x="328" y="244" class="cls-3"/><rect width="24" height="32" x="284" y="260" class="cls-3"/><rect width="24" height="72" x="260" y="220" class="cls-3"/><rect width="24" height="48" x="100" y="244" class="cls-3"/><rect width="24" height="56" x="392" y="236" class="cls-3"/><line x1="332" x2="332" y1="248" y2="252" class="cls-3"/><line x1="336" x2="336" y1="248" y2="252" class="cls-3"/><line x1="340" x2="340" y1="248" y2="252" class="cls-3"/><line x1="344" x2="344" y1="248" y2="252" class="cls-3"/><line x1="348" x2="348" y1="248" y2="252" class="cls-3"/><line x1="264" x2="264" y1="248" y2="252" class="cls-3"/><line x1="268" x2="268" y1="248" y2="252" class="cls-3"/><line x1="272" x2="272" y1="248" y2="252" class="cls-3"/><line x1="276" x2="276" y1="248" y2="252" class="cls-3"/><line x1="280" x2="280" y1="248" y2="252" class="cls-3"/><line x1="264" x2="264" y1="240" y2="244" class="cls-3"/><line x1="268" x2="268" y1="240" y2="244" class="cls-3"/><line x1="272" x2="272" y1="240" y2="244" class="cls-3"/><line x1="276" x2="276" y1="240" y2="244" class="cls-3"/><line x1="280" x2="280" y1="240" y2="244" class="cls-3"/><line x1="264" x2="264" y1="232" y2="236" class="cls-3"/><line x1="268" x2="268" y1="232" y2="236" class="cls-3"/><line x1="272" x2="272" y1="232" y2="236" class="cls-3"/><line x1="276" x2="276" y1="232" y2="236" class="cls-3"/><line x1="280" x2="280" y1="232" y2="236" class="cls-3"/><line x1="264" x2="264" y1="224" y2="228" class="cls-3"/><line x1="268" x2="268" y1="224" y2="228" class="cls-3"/><line x1="272" x2="272" y1="224" y2="228" class="cls-3"/><line x1="276" x2="276" y1="224" y2="228" class="cls-3"/><line x1="280" x2="280" y1="224" y2="228" class="cls-3"/><line x1="264" x2="264" y1="280" y2="284" class="cls-3"/><line x1="268" x2="268" y1="280" y2="284" class="cls-3"/><line x1="272" x2="272" y1="280" y2="284" class="cls-3"/><line x1="276" x2="276" y1="280" y2="284" class="cls-3"/><line x1="280" x2="280" y1="280" y2="284" class="cls-3"/><line x1="264" x2="264" y1="272" y2="276" class="cls-3"/><line x1="268" x2="268" y1="272" y2="276" class="cls-3"/><line x1="272" x2="272" y1="272" y2="276" class="cls-3"/><line x1="276" x2="276" y1="272" y2="276" class="cls-3"/><line x1="280" x2="280" y1="272" y2="276" class="cls-3"/><line x1="264" x2="264" y1="264" y2="268" class="cls-3"/><line x1="268" x2="268" y1="264" y2="268" class="cls-3"/><line x1="272" x2="272" y1="264" y2="268" class="cls-3"/><line x1="276" x2="276" y1="264" y2="268" class="cls-3"/><line x1="280" x2="280" y1="264" y2="268" class="cls-3"/><line x1="264" x2="264" y1="256" y2="260" class="cls-3"/><line x1="268" x2="268" y1="256" y2="260" class="cls-3"/><line x1="272" x2="272" y1="256" y2="260" class="cls-3"/><line x1="276" x2="276" y1="256" y2="260" class="cls-3"/><line x1="280" x2="280" y1="256" y2="260" class="cls-3"/><line x1="104" x2="104" y1="280" y2="284" class="cls-3"/><line x1="108" x2="108" y1="280" y2="284" class="cls-3"/><line x1="112" x2="112" y1="280" y2="284" class="cls-3"/><line x1="116" x2="116" y1="280" y2="284" class="cls-3"/><line x1="120" x2="120" y1="280" y2="284" class="cls-3"/><line x1="104" x2="104" y1="272" y2="276" class="cls-3"/><line x1="108" x2="108" y1="272" y2="276" class="cls-3"/><line x1="112" x2="112" y1="272" y2="276" class="cls-3"/><line x1="116" x2="116" y1="272" y2="276" class="cls-3"/><line x1="120" x2="120" y1="272" y2="276" class="cls-3"/><line x1="104" x2="104" y1="264" y2="268" class="cls-3"/><line x1="108" x2="108" y1="264" y2="268" class="cls-3"/><line x1="112" x2="112" y1="264" y2="268" class="cls-3"/><line x1="116" x2="116" y1="264" y2="268" class="cls-3"/><line x1="120" x2="120" y1="264" y2="268" class="cls-3"/><line x1="104" x2="104" y1="256" y2="260" class="cls-3"/><line x1="108" x2="108" y1="256" y2="260" class="cls-3"/><line x1="112" x2="112" y1="256" y2="260" class="cls-3"/><line x1="116" x2="116" y1="256" y2="260" class="cls-3"/><line x1="120" x2="120" y1="256" y2="260" class="cls-3"/><line x1="104" x2="104" y1="272" y2="276" class="cls-3"/><line x1="108" x2="108" y1="272" y2="276" class="cls-3"/><line x1="112" x2="112" y1="272" y2="276" class="cls-3"/><line x1="116" x2="116" y1="272" y2="276" class="cls-3"/><line x1="120" x2="120" y1="272" y2="276" class="cls-3"/><line x1="104" x2="104" y1="264" y2="268" class="cls-3"/><line x1="108" x2="108" y1="264" y2="268" class="cls-3"/><line x1="112" x2="112" y1="264" y2="268" class="cls-3"/><line x1="116" x2="116" y1="264" y2="268" class="cls-3"/><line x1="120" x2="120" y1="264" y2="268" class="cls-3"/><line x1="104" x2="104" y1="256" y2="260" class="cls-3"/><line x1="108" x2="108" y1="256" y2="260" class="cls-3"/><line x1="112" x2="112" y1="256" y2="260" class="cls-3"/><line x1="116" x2="116" y1="256" y2="260" class="cls-3"/><line x1="120" x2="120" y1="256" y2="260" class="cls-3"/><line x1="104" x2="104" y1="248" y2="252" class="cls-3"/><line x1="108" x2="108" y1="248" y2="252" class="cls-3"/><line x1="112" x2="112" y1="248" y2="252" class="cls-3"/><line x1="116" x2="116" y1="248" y2="252" class="cls-3"/><line x1="120" x2="120" y1="248" y2="252" class="cls-3"/><line x1="332" x2="332" y1="256" y2="260" class="cls-3"/><line x1="336" x2="336" y1="256" y2="260" class="cls-3"/><line x1="340" x2="340" y1="256" y2="260" class="cls-3"/><line x1="344" x2="344" y1="256" y2="260" class="cls-3"/><line x1="348" x2="348" y1="256" y2="260" class="cls-3"/><line x1="332" x2="332" y1="264" y2="268" class="cls-3"/><line x1="336" x2="336" y1="264" y2="268" class="cls-3"/><line x1="340" x2="340" y1="264" y2="268" class="cls-3"/><line x1="344" x2="344" y1="264" y2="268" class="cls-3"/><line x1="348" x2="348" y1="264" y2="268" class="cls-3"/><line x1="332" x2="332" y1="272" y2="276" class="cls-3"/><line x1="336" x2="336" y1="272" y2="276" class="cls-3"/><line x1="340" x2="340" y1="272" y2="276" class="cls-3"/><line x1="344" x2="344" y1="272" y2="276" class="cls-3"/><line x1="348" x2="348" y1="272" y2="276" class="cls-3"/><line x1="332" x2="332" y1="280" y2="284" class="cls-3"/><line x1="336" x2="336" y1="280" y2="284" class="cls-3"/><line x1="340" x2="340" y1="280" y2="284" class="cls-3"/><line x1="344" x2="344" y1="280" y2="284" class="cls-3"/><line x1="348" x2="348" y1="280" y2="284" class="cls-3"/><rect width="36" height="72" x="64" y="220" class="cls-3"/><rect width="4" height="4" x="84" y="224" class="cls-3"/><rect width="4" height="4" x="76" y="224" class="cls-3"/><rect width="4" height="4" x="68" y="224" class="cls-3"/><rect width="4" height="4" x="92" y="224" class="cls-3"/><rect width="4" height="4" x="84" y="232" class="cls-3"/><rect width="4" height="4" x="76" y="232" class="cls-3"/><rect width="4" height="4" x="68" y="232" class="cls-3"/><rect width="4" height="4" x="92" y="232" class="cls-3"/><rect width="4" height="4" x="84" y="240" class="cls-3"/><rect width="4" height="4" x="76" y="240" class="cls-3"/><rect width="4" height="4" x="68" y="240" class="cls-3"/><rect width="4" height="4" x="92" y="240" class="cls-3"/><rect width="4" height="4" x="84" y="248" class="cls-3"/><rect width="4" height="4" x="76" y="248" class="cls-3"/><rect width="4" height="4" x="68" y="248" class="cls-3"/><rect width="4" height="4" x="92" y="248" class="cls-3"/><rect width="4" height="4" x="84" y="256" class="cls-3"/><rect width="4" height="4" x="76" y="256" class="cls-3"/><rect width="4" height="4" x="68" y="256" class="cls-3"/><rect width="4" height="4" x="92" y="256" class="cls-3"/><rect width="4" height="4" x="84" y="264" class="cls-3"/><rect width="4" height="4" x="76" y="264" class="cls-3"/><rect width="4" height="4" x="68" y="264" class="cls-3"/><rect width="4" height="4" x="92" y="264" class="cls-3"/><rect width="4" height="4" x="84" y="272" class="cls-3"/><rect width="4" height="4" x="76" y="272" class="cls-3"/><rect width="4" height="4" x="68" y="272" class="cls-3"/><rect width="4" height="4" x="92" y="272" class="cls-3"/><rect width="4" height="4" x="84" y="280" class="cls-3"/><rect width="4" height="4" x="76" y="280" class="cls-3"/><rect width="4" height="4" x="68" y="280" class="cls-3"/><rect width="4" height="4" x="92" y="280" class="cls-3"/><rect width="36" height="72" x="444" y="220" class="cls-3"/><rect width="4" height="4" x="464" y="224" class="cls-3"/><rect width="4" height="4" x="456" y="224" class="cls-3"/><rect width="4" height="4" x="448" y="224" class="cls-3"/><rect width="4" height="4" x="472" y="224" class="cls-3"/><rect width="4" height="4" x="464" y="232" class="cls-3"/><rect width="4" height="4" x="456" y="232" class="cls-3"/><rect width="4" height="4" x="448" y="232" class="cls-3"/><rect width="4" height="4" x="472" y="232" class="cls-3"/><rect width="4" height="4" x="464" y="240" class="cls-3"/><rect width="4" height="4" x="456" y="240" class="cls-3"/><rect width="4" height="4" x="448" y="240" class="cls-3"/><rect width="4" height="4" x="472" y="240" class="cls-3"/><rect width="4" height="4" x="464" y="248" class="cls-3"/><rect width="4" height="4" x="456" y="248" class="cls-3"/><rect width="4" height="4" x="448" y="248" class="cls-3"/><rect width="4" height="4" x="472" y="248" class="cls-3"/><rect width="4" height="4" x="464" y="256" class="cls-3"/><rect width="4" height="4" x="456" y="256" class="cls-3"/><rect width="4" height="4" x="448" y="256" class="cls-3"/><rect width="4" height="4" x="472" y="256" class="cls-3"/><rect width="4" height="4" x="464" y="264" class="cls-3"/><rect width="4" height="4" x="456" y="264" class="cls-3"/><rect width="4" height="4" x="448" y="264" class="cls-3"/><rect width="4" height="4" x="472" y="264" class="cls-3"/><rect width="4" height="4" x="464" y="272" class="cls-3"/><rect width="4" height="4" x="456" y="272" class="cls-3"/><rect width="4" height="4" x="448" y="272" class="cls-3"/><rect width="4" height="4" x="472" y="272" class="cls-3"/><rect width="4" height="4" x="464" y="280" class="cls-3"/><rect width="4" height="4" x="456" y="280" class="cls-3"/><rect width="4" height="4" x="448" y="280" class="cls-3"/><rect width="4" height="4" x="472" y="280" class="cls-3"/><polyline points="124 276 148 276 148 264 164 264 164 280 180 280 180 216 204 216 204 268 260 268" class="cls-3"/><polyline points="0 252 36 252 36 236 56 236 56 264 64 264" class="cls-3"/><line x1="308" x2="328" y1="276" y2="276" class="cls-3"/><line x1="416" x2="444" y1="272" y2="272" class="cls-3"/><polyline points="480 248 504 248 504 264 512 264" class="cls-3"/><rect width="36" height="32" x="368" y="260" class="cls-3"/><circle cx="416" cy="236" r="4" class="cls-4"/><circle cx="36" cy="252" r="4" class="cls-4"/><rect width="8" height="8" x="200" y="264" class="cls-4"/><rect width="8" height="8" x="400" y="256" class="cls-4"/><path d="M96,60H40l16,8H96a4,4,0,0,0,0-8Z" class="cls-6"/><polygon points="48 60 40 60 36 52 40 52 48 60" class="cls-5"/><polygon points="60 48 56 48 64 64 76 64 60 48" class="cls-6"/><line x1="48" x2="96" y1="64" y2="64" class="cls-7"/><path d="M96,60v4h4A4,4,0,0,0,96,60Z" class="cls-7"/></g><g id="Grid"><g class="cls-8"><line x1="4" x2="4" y2="288" class="cls-9"/><line x1="12" x2="12" y2="288" class="cls-9"/><line x1="20" x2="20" y2="288" class="cls-9"/><line x1="28" x2="28" y2="288" class="cls-9"/><line x1="36" x2="36" y2="288" class="cls-9"/><line x1="44" x2="44" y2="288" class="cls-9"/><line x1="52" x2="52" y2="288" class="cls-9"/><line x1="60" x2="60" y2="288" class="cls-9"/><line x1="68" x2="68" y2="288" class="cls-9"/><line x1="76" x2="76" y2="288" class="cls-9"/><line x1="84" x2="84" y2="288" class="cls-9"/><line x1="92" x2="92" y2="288" class="cls-9"/><line x1="100" x2="100" y2="288" class="cls-9"/><line x1="108" x2="108" y2="288" class="cls-9"/><line x1="116" x2="116" y2="288" class="cls-9"/><line x1="124" x2="124" y2="288" class="cls-9"/><line x1="132" x2="132" y2="288" class="cls-9"/><line x1="140" x2="140" y2="288" class="cls-9"/><line x1="148" x2="148" y2="288" class="cls-9"/><line x1="156" x2="156" y2="288" class="cls-9"/><line x1="164" x2="164" y2="288" class="cls-9"/><line x1="172" x2="172" y2="288" class="cls-9"/><line x1="180" x2="180" y2="288" class="cls-9"/><line x1="188" x2="188" y2="288" class="cls-9"/><line x1="196" x2="196" y2="288" class="cls-9"/><line x1="204" x2="204" y2="288" class="cls-9"/><line x1="212" x2="212" y2="288" class="cls-9"/><line x1="220" x2="220" y2="288" class="cls-9"/><line x1="228" x2="228" y2="288" class="cls-9"/><line x1="236" x2="236" y2="288" class="cls-9"/><line x1="244" x2="244" y2="288" class="cls-9"/><line x1="512" y1="4" y2="4" class="cls-9"/><line x1="512" y1="12" y2="12" class="cls-9"/><line x1="512" y1="20" y2="20" class="cls-9"/><line x1="512" y1="28" y2="28" class="cls-9"/><line x1="512" y1="36" y2="36" class="cls-9"/><line x1="512" y1="44" y2="44" class="cls-9"/><line x1="512" y1="52" y2="52" class="cls-9"/><line x1="512" y1="60" y2="60" class="cls-9"/><line x1="512" y1="68" y2="68" class="cls-9"/><line x1="512" y1="76" y2="76" class="cls-9"/><line x1="512" y1="84" y2="84" class="cls-9"/><line x1="512" y1="92" y2="92" class="cls-9"/><line x1="512" y1="100" y2="100" class="cls-9"/><line x1="512" y1="108" y2="108" class="cls-9"/><line x1="512" y1="116" y2="116" class="cls-9"/><line x1="512" y1="124" y2="124" class="cls-9"/><line x1="512" y1="132" y2="132" class="cls-9"/><line x1="512" y1="140" y2="140" class="cls-9"/><line x1="512" y1="148" y2="148" class="cls-9"/><line x1="512" y1="156" y2="156" class="cls-9"/><line x1="512" y1="164" y2="164" class="cls-9"/><line x1="512" y1="172" y2="172" class="cls-9"/><line x1="512" y1="180" y2="180" class="cls-9"/><line x1="512" y1="188" y2="188" class="cls-9"/><line x1="512" y1="196" y2="196" class="cls-9"/><line x1="512" y1="204" y2="204" class="cls-9"/><line x1="512" y1="212" y2="212" class="cls-9"/><line x1="512" y1="220" y2="220" class="cls-9"/><line x1="512" y1="228" y2="228" class="cls-9"/><line x1="512" y1="236" y2="236" class="cls-9"/><line x1="512" y1="244" y2="244" class="cls-9"/><line x1="8" x2="8" y2="288" class="cls-9"/><line x1="16" x2="16" y2="288" class="cls-9"/><line x1="24" x2="24" y2="288" class="cls-9"/><line x1="32" x2="32" y2="288" class="cls-9"/><line x1="40" x2="40" y2="288" class="cls-9"/><line x1="48" x2="48" y2="288" class="cls-9"/><line x1="56" x2="56" y2="288" class="cls-9"/><line x1="64" x2="64" y2="288" class="cls-9"/><line x1="72" x2="72" y2="288" class="cls-9"/><line x1="80" x2="80" y2="288" class="cls-9"/><line x1="88" x2="88" y2="288" class="cls-9"/><line x1="96" x2="96" y2="288" class="cls-9"/><line x1="104" x2="104" y2="288" class="cls-9"/><line x1="112" x2="112" y2="288" class="cls-9"/><line x1="120" x2="120" y2="288" class="cls-9"/><line x1="128" x2="128" y2="288" class="cls-9"/><line x1="136" x2="136" y2="288" class="cls-9"/><line x1="144" x2="144" y2="288" class="cls-9"/><line x1="152" x2="152" y2="288" class="cls-9"/><line x1="160" x2="160" y2="288" class="cls-9"/><line x1="168" x2="168" y2="288" class="cls-9"/><line x1="176" x2="176" y2="288" class="cls-9"/><line x1="184" x2="184" y2="288" class="cls-9"/><line x1="192" x2="192" y2="288" class="cls-9"/><line x1="200" x2="200" y2="288" class="cls-9"/><line x1="208" x2="208" y2="288" class="cls-9"/><line x1="216" x2="216" y2="288" class="cls-9"/><line x1="224" x2="224" y2="288" class="cls-9"/><line x1="232" x2="232" y2="288" class="cls-9"/><line x1="240" x2="240" y2="288" class="cls-9"/><line x1="248" x2="248" y2="288" class="cls-9"/><line x1="252" x2="252" y2="288" class="cls-9"/><line x1="260" x2="260" y2="288" class="cls-9"/><line x1="268" x2="268" y2="288" class="cls-9"/><line x1="276" x2="276" y2="288" class="cls-9"/><line x1="284" x2="284" y2="288" class="cls-9"/><line x1="292" x2="292" y2="288" class="cls-9"/><line x1="300" x2="300" y2="288" class="cls-9"/><line x1="308" x2="308" y2="288" class="cls-9"/><line x1="316" x2="316" y2="288" class="cls-9"/><line x1="324" x2="324" y2="288" class="cls-9"/><line x1="332" x2="332" y2="288" class="cls-9"/><line x1="340" x2="340" y2="288" class="cls-9"/><line x1="348" x2="348" y2="288" class="cls-9"/><line x1="356" x2="356" y2="288" class="cls-9"/><line x1="364" x2="364" y2="288" class="cls-9"/><line x1="372" x2="372" y2="288" class="cls-9"/><line x1="380" x2="380" y2="288" class="cls-9"/><line x1="388" x2="388" y2="288" class="cls-9"/><line x1="396" x2="396" y2="288" class="cls-9"/><line x1="404" x2="404" y2="288" class="cls-9"/><line x1="412" x2="412" y2="288" class="cls-9"/><line x1="420" x2="420" y2="288" class="cls-9"/><line x1="428" x2="428" y2="288" class="cls-9"/><line x1="436" x2="436" y2="288" class="cls-9"/><line x1="444" x2="444" y2="288" class="cls-9"/><line x1="452" x2="452" y2="288" class="cls-9"/><line x1="460" x2="460" y2="288" class="cls-9"/><line x1="468" x2="468" y2="288" class="cls-9"/><line x1="476" x2="476" y2="288" class="cls-9"/><line x1="484" x2="484" y2="288" class="cls-9"/><line x1="492" x2="492" y2="288" class="cls-9"/><line x1="256" x2="256" y2="288" class="cls-9"/><line x1="264" x2="264" y2="288" class="cls-9"/><line x1="272" x2="272" y2="288" class="cls-9"/><line x1="280" x2="280" y2="288" class="cls-9"/><line x1="288" x2="288" y2="288" class="cls-9"/><line x1="296" x2="296" y2="288" class="cls-9"/><line x1="304" x2="304" y2="288" class="cls-9"/><line x1="312" x2="312" y2="288" class="cls-9"/><line x1="320" x2="320" y2="288" class="cls-9"/><line x1="328" x2="328" y2="288" class="cls-9"/><line x1="336" x2="336" y2="288" class="cls-9"/><line x1="344" x2="344" y2="288" class="cls-9"/><line x1="352" x2="352" y2="288" class="cls-9"/><line x1="360" x2="360" y2="288" class="cls-9"/><line x1="368" x2="368" y2="288" class="cls-9"/><line x1="376" x2="376" y2="288" class="cls-9"/><line x1="384" x2="384" y2="288" class="cls-9"/><line x1="392" x2="392" y2="288" class="cls-9"/><line x1="400" x2="400" y2="288" class="cls-9"/><line x1="408" x2="408" y2="288" class="cls-9"/><line x1="416" x2="416" y2="288" class="cls-9"/><line x1="424" x2="424" y2="288" class="cls-9"/><line x1="432" x2="432" y2="288" class="cls-9"/><line x1="440" x2="440" y2="288" class="cls-9"/><line x1="448" x2="448" y2="288" class="cls-9"/><line x1="456" x2="456" y2="288" class="cls-9"/><line x1="464" x2="464" y2="288" class="cls-9"/><line x1="472" x2="472" y2="288" class="cls-9"/><line x1="480" x2="480" y2="288" class="cls-9"/><line x1="488" x2="488" y2="288" class="cls-9"/><line x1="496" x2="496" y2="288" class="cls-9"/><line x1="500" x2="500" y2="288" class="cls-9"/><line x1="508" x2="508" y2="288" class="cls-9"/><line x1="504" x2="504" y2="288" class="cls-9"/><line x1="512" y1="8" y2="8" class="cls-9"/><line x1="512" y1="16" y2="16" class="cls-9"/><line x1="512" y1="24" y2="24" class="cls-9"/><line x1="512" y1="32" y2="32" class="cls-9"/><line x1="512" y1="40" y2="40" class="cls-9"/><line x1="512" y1="48" y2="48" class="cls-9"/><line x1="512" y1="56" y2="56" class="cls-9"/><line x1="512" y1="64" y2="64" class="cls-9"/><line x1="512" y1="72" y2="72" class="cls-9"/><line x1="512" y1="80" y2="80" class="cls-9"/><line x1="512" y1="88" y2="88" class="cls-9"/><line x1="512" y1="96" y2="96" class="cls-9"/><line x1="512" y1="104" y2="104" class="cls-9"/><line x1="512" y1="112" y2="112" class="cls-9"/><line x1="512" y1="120" y2="120" class="cls-9"/><line x1="512" y1="128" y2="128" class="cls-9"/><line x1="512" y1="136" y2="136" class="cls-9"/><line x1="512" y1="144" y2="144" class="cls-9"/><line x1="512" y1="152" y2="152" class="cls-9"/><line x1="512" y1="160" y2="160" class="cls-9"/><line x1="512" y1="168" y2="168" class="cls-9"/><line x1="512" y1="176" y2="176" class="cls-9"/><line x1="512" y1="184" y2="184" class="cls-9"/><line x1="512" y1="192" y2="192" class="cls-9"/><line x1="512" y1="200" y2="200" class="cls-9"/><line x1="512" y1="208" y2="208" class="cls-9"/><line x1="512" y1="216" y2="216" class="cls-9"/><line x1="512" y1="224" y2="224" class="cls-9"/><line x1="512" y1="232" y2="232" class="cls-9"/><line x1="512" y1="240" y2="240" class="cls-9"/><line x1="512" y1="248" y2="248" class="cls-9"/><line x1="512" y1="251.63" y2="251.63" class="cls-9"/><line x1="512" y1="256.37" y2="256.37" class="cls-9"/><line x1="512" y1="264.37" y2="264.37" class="cls-9"/><line x1="512" y1="272.37" y2="272.37" class="cls-9"/><line x1="512" y1="280.37" y2="280.37" class="cls-9"/><line x1="512" y1="260.37" y2="260.37" class="cls-9"/><line x1="512" y1="268.37" y2="268.37" class="cls-9"/><line x1="512" y1="276.37" y2="276.37" class="cls-9"/><line x1="512" y1="284.37" y2="284.37" class="cls-9"/></g></g></g></svg>