<svg xmlns="http://www.w3.org/2000/svg" viewBox="0 0 288 288"><defs><style>.cls-1{fill:#3ddbd9}.cls-2,.cls-3{fill:none;stroke-miterlimit:10;stroke-width:2px}.cls-2{stroke:#fff}.cls-3{stroke:#4589ff}</style></defs><title>line-4</title><g id="Layer_2" data-name="Layer 2"><g id="Graphics"><rect width="288" height="288" class="cls-1"/><path d="M72,56a32,32,0,0,1,32-32" class="cls-2"/><path d="M104,24a32,32,0,0,1,32,32" class="cls-2"/><path d="M84,81A31.91,31.91,0,0,1,72,56" class="cls-2"/><path d="M124,81a31.91,31.91,0,0,0,12-25" class="cls-2"/><path d="M84,56a20,20,0,0,1,20-20" class="cls-3"/><path d="M104,36a20,20,0,0,1,20,20" class="cls-3"/><path d="M124,164a20,20,0,0,1,20-20" class="cls-3"/><path d="M144,144a20,20,0,0,1,20,20" class="cls-3"/><path d="M164,172a20,20,0,0,1,20-20" class="cls-3"/><path d="M184,152a20,20,0,0,1,20,20" class="cls-3"/><path d="M204,180a20,20,0,0,1,20-20" class="cls-3"/><path d="M224,160a20,20,0,0,1,20,20" class="cls-3"/><line x1="84" x2="84" y1="56" y2="252" class="cls-3"/><line x1="124" x2="124" y1="56" y2="164" class="cls-3"/><line x1="164" x2="164" y1="164" y2="200.32" class="cls-3"/><line x1="124" x2="124" y1="164" y2="200.32" class="cls-3"/><line x1="204" x2="204" y1="172" y2="200.32" class="cls-3"/><line x1="244" x2="244" y1="180" y2="288" class="cls-3"/><path d="M104,44A12,12,0,0,0,92,56V68h24" class="cls-3"/><path d="M104,44a12,12,0,0,1,12,12" class="cls-3"/><path d="M44,188a20,20,0,0,1,20-20" class="cls-3"/><path d="M64,168a20,20,0,0,1,20,20" class="cls-3"/><line x1="44" x2="44" y1="188" y2="288" class="cls-3"/><path d="M56,176a12,12,0,0,1,12,12v12H56" class="cls-3"/><path d="M56,176a12,12,0,0,0-12,12" class="cls-3"/><line x1="116" x2="132" y1="200.04" y2="200" class="cls-3"/><line x1="156" x2="172" y1="200" y2="200" class="cls-3"/><line x1="196" x2="212" y1="200" y2="200" class="cls-3"/></g></g></svg>