<svg xmlns="http://www.w3.org/2000/svg" viewBox="0 0 928 520"><defs><style>.cls-1{isolation:isolate;}.cls-2{fill:#fff;}.cls-3,.cls-4,.cls-5,.cls-6,.cls-7,.cls-9{fill:none;stroke-miterlimit:10;}.cls-3,.cls-4,.cls-5,.cls-6,.cls-7{stroke:#000;}.cls-3{stroke-width:4px;}.cls-4{stroke-width:2px;}.cls-5{stroke-width:6px;}.cls-6{stroke-width:1.5px;}.cls-8{mix-blend-mode:multiply;}.cls-9{stroke:#e0e0e0;stroke-width:0.5px;}</style></defs><title>Artboard 2</title><g class="cls-1"><g id="Base"><rect class="cls-2" y="0.14" width="928" height="519.73"/></g><g id="Graphics"><path d="M652.84,111.11c0-3.19,1-5.06,3.36-5.06s3.36,1.87,3.36,5.06-1,5.06-3.36,5.06S652.84,114.31,652.84,111.11Zm5.49.8v-1.6c0-1.89-.6-3.23-2.13-3.23s-2.13,1.34-2.13,3.23v1.6c0,1.89.61,3.24,2.13,3.24S658.33,113.8,658.33,111.91Z"/><path d="M661.45,115.36v-.19a.86.86,0,0,1,1.71,0v.19a.86.86,0,0,1-1.71,0Z"/><path d="M666.66,116l3.74-8.77h-4.18v1.82h-1.05v-2.83h6.42v1L667.92,116Z"/><path d="M680.07,116h-6.41v-1.2l3.19-3a4.2,4.2,0,0,0,1.61-2.76v-.16a1.66,1.66,0,0,0-1.8-1.83,2,2,0,0,0-2,1.66l-1-.41a3.09,3.09,0,0,1,3.14-2.3,2.73,2.73,0,0,1,3,2.85c0,1.51-.9,2.58-2.14,3.7L674.93,115h5.14Z"/><path d="M682.2,108.77h1.12V110h0a2.13,2.13,0,0,1,2.12-1.35c1.81,0,2.94,1.47,2.94,3.79s-1.13,3.78-2.94,3.78a2.19,2.19,0,0,1-2.12-1.35h0v4H682.2Zm5,4.23v-1.23a2,2,0,0,0-2.05-2.16c-1,0-1.86.59-1.86,1.39v2.69c0,.94.84,1.47,1.86,1.47A2,2,0,0,0,687.23,113Z"/><path d="M691.93,112.36l-2.56-3.59h1.31l1.84,2.69h0l1.9-2.69h1.25l-2.55,3.5,2.61,3.73h-1.32l-1.88-2.83h0l-2,2.83h-1.25Z"/><path d="M653.23,244v-1H656v-7.87h-.09l-2.47,2.3-.69-.74,2.6-2.43h1.83V243h2.52v1Z"/><path d="M661.45,243.36v-.19a.86.86,0,0,1,1.71,0v.19a.86.86,0,0,1-1.71,0Z"/><path d="M671.18,235.26H666.9l-.28,3.73h.09a2.21,2.21,0,0,1,2-1.08,2.8,2.8,0,0,1,2.91,3,3.06,3.06,0,0,1-3.29,3.24,3.45,3.45,0,0,1-3.05-1.67l.88-.67a2.29,2.29,0,0,0,2.17,1.29,1.84,1.84,0,0,0,2-2V241a1.84,1.84,0,0,0-2-2,2.12,2.12,0,0,0-1.75.82l-1-.14.35-5.38h5.24Z"/><path d="M673.8,236.77h1.12V238H675a2.13,2.13,0,0,1,2.12-1.35c1.81,0,2.94,1.47,2.94,3.79s-1.13,3.78-2.94,3.78a2.19,2.19,0,0,1-2.12-1.35h-.05v4H673.8Zm5,4.23v-1.23a2,2,0,0,0-2.05-2.16c-1,0-1.86.59-1.86,1.39v2.69c0,.94.84,1.47,1.86,1.47A2,2,0,0,0,678.83,241Z"/><path d="M683.53,240.36,681,236.77h1.31l1.84,2.69h0l1.9-2.69h1.25l-2.55,3.5,2.61,3.73h-1.32l-1.88-2.83h0l-2,2.83h-1.25Z"/><path d="M657.25,372v-1.92h-4.72v-1l4.09-6.82h1.75v6.88h1.42v1h-1.42V372Zm-3.61-2.9h3.61v-6h-.07Z"/><path d="M661.59,364.77h1.12V366h.06a2.11,2.11,0,0,1,2.11-1.35c1.81,0,2.94,1.47,2.94,3.79s-1.13,3.78-2.94,3.78a2.17,2.17,0,0,1-2.11-1.35h-.06v4h-1.12Zm5,4.23v-1.23a2,2,0,0,0-2-2.16c-1,0-1.86.59-1.86,1.39v2.69c0,.94.84,1.47,1.86,1.47A2,2,0,0,0,666.62,369Z"/><path d="M671.32,368.36l-2.56-3.59h1.31l1.84,2.69h0l1.91-2.69h1.24l-2.55,3.5,2.61,3.73h-1.32L672,369.17h-.05l-2,2.83h-1.24Z"/><path d="M659.47,308h-6.42v-1.2l3.19-2.95a4.2,4.2,0,0,0,1.61-2.76v-.16a1.66,1.66,0,0,0-1.8-1.82,2,2,0,0,0-2,1.65l-1-.41a3.07,3.07,0,0,1,3.13-2.3,2.73,2.73,0,0,1,3,2.85c0,1.51-.89,2.58-2.14,3.7L654.33,307h5.14Z"/><path d="M661.59,300.77h1.12V302h.06a2.11,2.11,0,0,1,2.11-1.35c1.81,0,2.94,1.48,2.94,3.79s-1.13,3.78-2.94,3.78a2.17,2.17,0,0,1-2.11-1.35h-.06v4h-1.12Zm5,4.23v-1.23a2,2,0,0,0-2-2.16c-1,0-1.86.59-1.86,1.39v2.69c0,.94.84,1.47,1.86,1.47A2,2,0,0,0,666.62,305Z"/><path d="M671.32,304.36l-2.56-3.59h1.31l1.84,2.69h0l1.91-2.69h1.24l-2.55,3.5,2.61,3.73h-1.32L672,305.17h-.05l-2,2.83h-1.24Z"/><path d="M652.94,440.41a7.74,7.74,0,0,1,3.49-6.19h1.51c-2.09,1.53-3.25,2.8-3.78,5.07l.07,0a2.54,2.54,0,0,1,2.35-1.4,2.79,2.79,0,0,1,2.89,3,3.07,3.07,0,0,1-3.25,3.24C654.19,444.17,652.94,442.74,652.94,440.41Zm5.31.68V441a2,2,0,1,0-4.09,0v.12a2,2,0,1,0,4.09,0Z"/><path d="M661.59,436.77h1.12V438h.06a2.11,2.11,0,0,1,2.11-1.35c1.81,0,2.94,1.47,2.94,3.79s-1.13,3.78-2.94,3.78a2.17,2.17,0,0,1-2.11-1.35h-.06v4h-1.12Zm5,4.23v-1.23a2,2,0,0,0-2-2.16c-1,0-1.86.59-1.86,1.39v2.69c0,.94.84,1.47,1.86,1.47A2,2,0,0,0,666.62,441Z"/><path d="M671.32,440.36l-2.56-3.59h1.31l1.84,2.69h0l1.91-2.69h1.24l-2.55,3.5,2.61,3.73h-1.32L672,441.17h-.05l-2,2.83h-1.24Z"/><path d="M653.23,180v-1H656v-7.87h-.09l-2.47,2.3-.69-.74,2.6-2.43h1.83V179h2.52v1Z"/><path d="M661.59,172.77h1.12V174h.06a2.11,2.11,0,0,1,2.11-1.35c1.81,0,2.94,1.47,2.94,3.79s-1.13,3.78-2.94,3.78a2.17,2.17,0,0,1-2.11-1.35h-.06v4h-1.12Zm5,4.23v-1.23a2,2,0,0,0-2-2.16c-1,0-1.86.59-1.86,1.39v2.69c0,.94.84,1.47,1.86,1.47A2,2,0,0,0,666.62,177Z"/><path d="M671.32,176.36l-2.56-3.59h1.31l1.84,2.69h0l1.91-2.69h1.24l-2.55,3.5,2.61,3.73h-1.32L672,177.17h-.05l-2,2.83h-1.24Z"/><line class="cls-3" x1="240" y1="380" x2="640" y2="380"/><line class="cls-3" x1="336" y1="372" x2="640" y2="372"/><line class="cls-3" x1="440" y1="364" x2="640" y2="364"/><line class="cls-3" x1="540" y1="356" x2="640" y2="356"/><line class="cls-4" x1="240" y1="316" x2="640" y2="316"/><line class="cls-4" x1="336" y1="308" x2="640" y2="308"/><line class="cls-4" x1="440" y1="300" x2="640" y2="300"/><line class="cls-4" x1="540" y1="292" x2="640" y2="292"/><line class="cls-5" x1="240" y1="456" x2="640" y2="456"/><line class="cls-5" x1="336" y1="443.86" x2="640" y2="443.86"/><line class="cls-5" x1="440" y1="432" x2="640" y2="432"/><line class="cls-5" x1="540" y1="420" x2="640" y2="419.86"/><line class="cls-6" x1="240" y1="252" x2="640" y2="252"/><line class="cls-6" x1="336" y1="244" x2="640" y2="244"/><line class="cls-6" x1="440" y1="236" x2="640" y2="236"/><line class="cls-6" x1="540" y1="228" x2="640" y2="228"/><line class="cls-7" x1="240" y1="188" x2="640" y2="188"/><line class="cls-7" x1="336" y1="180" x2="640" y2="180"/><line class="cls-7" x1="440" y1="172" x2="640" y2="172"/><line class="cls-7" x1="540" y1="164" x2="640" y2="164"/><line class="cls-7" x1="240" y1="124" x2="640" y2="124"/><line class="cls-7" x1="336" y1="116" x2="640" y2="116"/><line class="cls-7" x1="440" y1="108" x2="640" y2="108"/><line class="cls-7" x1="540" y1="100" x2="640" y2="100"/></g><g id="Grid"><g class="cls-8"><rect class="cls-9" x="240" y="60" width="400" height="400"/><line class="cls-9" x1="244" y1="60" x2="244" y2="460"/><line class="cls-9" x1="248" y1="60" x2="248" y2="460"/><line class="cls-9" x1="252" y1="60" x2="252" y2="460"/><line class="cls-9" x1="256" y1="60" x2="256" y2="460"/><line class="cls-9" x1="260" y1="60" x2="260" y2="460"/><line class="cls-9" x1="264" y1="60" x2="264" y2="460"/><line class="cls-9" x1="268" y1="60" x2="268" y2="460"/><line class="cls-9" x1="272" y1="60" x2="272" y2="460"/><line class="cls-9" x1="276" y1="60" x2="276" y2="460"/><line class="cls-9" x1="280" y1="60" x2="280" y2="460"/><line class="cls-9" x1="284" y1="60" x2="284" y2="460"/><line class="cls-9" x1="288" y1="60" x2="288" y2="460"/><line class="cls-9" x1="292" y1="60" x2="292" y2="460"/><line class="cls-9" x1="296" y1="60" x2="296" y2="460"/><line class="cls-9" x1="300" y1="60" x2="300" y2="460"/><line class="cls-9" x1="304" y1="60" x2="304" y2="460"/><line class="cls-9" x1="308" y1="60" x2="308" y2="460"/><line class="cls-9" x1="312" y1="60" x2="312" y2="460"/><line class="cls-9" x1="316" y1="60" x2="316" y2="460"/><line class="cls-9" x1="320" y1="60" x2="320" y2="460"/><line class="cls-9" x1="324" y1="60" x2="324" y2="460"/><line class="cls-9" x1="328" y1="60" x2="328" y2="460"/><line class="cls-9" x1="332" y1="60" x2="332" y2="460"/><line class="cls-9" x1="336" y1="60" x2="336" y2="460"/><line class="cls-9" x1="340" y1="60" x2="340" y2="460"/><line class="cls-9" x1="344" y1="60" x2="344" y2="460"/><line class="cls-9" x1="348" y1="60" x2="348" y2="460"/><line class="cls-9" x1="352" y1="60" x2="352" y2="460"/><line class="cls-9" x1="356" y1="60" x2="356" y2="460"/><line class="cls-9" x1="360" y1="60" x2="360" y2="460"/><line class="cls-9" x1="364" y1="60" x2="364" y2="460"/><line class="cls-9" x1="368" y1="60" x2="368" y2="460"/><line class="cls-9" x1="372" y1="60" x2="372" y2="460"/><line class="cls-9" x1="376" y1="60" x2="376" y2="460"/><line class="cls-9" x1="380" y1="60" x2="380" y2="460"/><line class="cls-9" x1="384" y1="60" x2="384" y2="460"/><line class="cls-9" x1="388" y1="60" x2="388" y2="460"/><line class="cls-9" x1="392" y1="60" x2="392" y2="460"/><line class="cls-9" x1="396" y1="60" x2="396" y2="460"/><line class="cls-9" x1="400" y1="60" x2="400" y2="460"/><line class="cls-9" x1="404" y1="60" x2="404" y2="460"/><line class="cls-9" x1="408" y1="60" x2="408" y2="460"/><line class="cls-9" x1="412" y1="60" x2="412" y2="460"/><line class="cls-9" x1="416" y1="60" x2="416" y2="460"/><line class="cls-9" x1="420" y1="60" x2="420" y2="460"/><line class="cls-9" x1="424" y1="60" x2="424" y2="460"/><line class="cls-9" x1="428" y1="60" x2="428" y2="460"/><line class="cls-9" x1="432" y1="60" x2="432" y2="460"/><line class="cls-9" x1="436" y1="60" x2="436" y2="460"/><line class="cls-9" x1="444" y1="60" x2="444" y2="460"/><line class="cls-9" x1="440" y1="60" x2="440" y2="460"/><line class="cls-9" x1="448" y1="60" x2="448" y2="460"/><line class="cls-9" x1="452" y1="60" x2="452" y2="460"/><line class="cls-9" x1="456" y1="60" x2="456" y2="460"/><line class="cls-9" x1="460" y1="60" x2="460" y2="460"/><line class="cls-9" x1="464" y1="60" x2="464" y2="460"/><line class="cls-9" x1="468" y1="60" x2="468" y2="460"/><line class="cls-9" x1="472" y1="60" x2="472" y2="460"/><line class="cls-9" x1="476" y1="60" x2="476" y2="460"/><line class="cls-9" x1="480" y1="60" x2="480" y2="460"/><line class="cls-9" x1="484" y1="60" x2="484" y2="460"/><line class="cls-9" x1="488" y1="60" x2="488" y2="460"/><line class="cls-9" x1="492" y1="60" x2="492" y2="460"/><line class="cls-9" x1="496" y1="60" x2="496" y2="460"/><line class="cls-9" x1="500" y1="60" x2="500" y2="460"/><line class="cls-9" x1="504" y1="60" x2="504" y2="460"/><line class="cls-9" x1="508" y1="60" x2="508" y2="460"/><line class="cls-9" x1="512" y1="60" x2="512" y2="460"/><line class="cls-9" x1="516" y1="60" x2="516" y2="460"/><line class="cls-9" x1="520" y1="60" x2="520" y2="460"/><line class="cls-9" x1="524" y1="60" x2="524" y2="460"/><line class="cls-9" x1="528" y1="60" x2="528" y2="460"/><line class="cls-9" x1="532" y1="60" x2="532" y2="460"/><line class="cls-9" x1="536" y1="60" x2="536" y2="460"/><line class="cls-9" x1="540" y1="60" x2="540" y2="460"/><line class="cls-9" x1="544" y1="60" x2="544" y2="460"/><line class="cls-9" x1="548" y1="60" x2="548" y2="460"/><line class="cls-9" x1="552" y1="60" x2="552" y2="460"/><line class="cls-9" x1="556" y1="60" x2="556" y2="460"/><line class="cls-9" x1="560" y1="60" x2="560" y2="460"/><line class="cls-9" x1="564" y1="60" x2="564" y2="460"/><line class="cls-9" x1="568" y1="60" x2="568" y2="460"/><line class="cls-9" x1="572" y1="60" x2="572" y2="460"/><line class="cls-9" x1="576" y1="60" x2="576" y2="460"/><line class="cls-9" x1="580" y1="60" x2="580" y2="460"/><line class="cls-9" x1="584" y1="60" x2="584" y2="460"/><line class="cls-9" x1="588" y1="60" x2="588" y2="460"/><line class="cls-9" x1="592" y1="60" x2="592" y2="460"/><line class="cls-9" x1="596" y1="60" x2="596" y2="460"/><line class="cls-9" x1="600" y1="60" x2="600" y2="460"/><line class="cls-9" x1="604" y1="60" x2="604" y2="460"/><line class="cls-9" x1="608" y1="60" x2="608" y2="460"/><line class="cls-9" x1="612" y1="60" x2="612" y2="460"/><line class="cls-9" x1="616" y1="60" x2="616" y2="460"/><line class="cls-9" x1="620" y1="60" x2="620" y2="460"/><line class="cls-9" x1="624" y1="60" x2="624" y2="460"/><line class="cls-9" x1="628" y1="60" x2="628" y2="460"/><line class="cls-9" x1="632" y1="60" x2="632" y2="460"/><line class="cls-9" x1="636" y1="60" x2="636" y2="460"/><line class="cls-9" x1="640" y1="64" x2="240" y2="64"/><line class="cls-9" x1="640" y1="68" x2="240" y2="68"/><line class="cls-9" x1="640" y1="72" x2="240" y2="72"/><line class="cls-9" x1="640" y1="76" x2="240" y2="76"/><line class="cls-9" x1="640" y1="80" x2="240" y2="80"/><line class="cls-9" x1="640" y1="84" x2="240" y2="84"/><line class="cls-9" x1="640" y1="88" x2="240" y2="88"/><line class="cls-9" x1="640" y1="92" x2="240" y2="92"/><line class="cls-9" x1="640" y1="96" x2="240" y2="96"/><line class="cls-9" x1="640" y1="100" x2="240" y2="100"/><line class="cls-9" x1="640" y1="104" x2="240" y2="104"/><line class="cls-9" x1="640" y1="108" x2="240" y2="108"/><line class="cls-9" x1="640" y1="112" x2="240" y2="112"/><line class="cls-9" x1="640" y1="116" x2="240" y2="116"/><line class="cls-9" x1="640" y1="120" x2="240" y2="120"/><line class="cls-9" x1="640" y1="124" x2="240" y2="124"/><line class="cls-9" x1="640" y1="128" x2="240" y2="128"/><line class="cls-9" x1="640" y1="132" x2="240" y2="132"/><line class="cls-9" x1="640" y1="136" x2="240" y2="136"/><line class="cls-9" x1="640" y1="140" x2="240" y2="140"/><line class="cls-9" x1="640" y1="144" x2="240" y2="144"/><line class="cls-9" x1="640" y1="148" x2="240" y2="148"/><line class="cls-9" x1="640" y1="152" x2="240" y2="152"/><line class="cls-9" x1="640" y1="156" x2="240" y2="156"/><line class="cls-9" x1="640" y1="160" x2="240" y2="160"/><line class="cls-9" x1="640" y1="164" x2="240" y2="164"/><line class="cls-9" x1="640" y1="168" x2="240" y2="168"/><line class="cls-9" x1="640" y1="172" x2="240" y2="172"/><line class="cls-9" x1="640" y1="176" x2="240" y2="176"/><line class="cls-9" x1="640" y1="180" x2="240" y2="180"/><line class="cls-9" x1="640" y1="184" x2="240" y2="184"/><line class="cls-9" x1="640" y1="188" x2="240" y2="188"/><line class="cls-9" x1="640" y1="192" x2="240" y2="192"/><line class="cls-9" x1="640" y1="196" x2="240" y2="196"/><line class="cls-9" x1="640" y1="200" x2="240" y2="200"/><line class="cls-9" x1="640" y1="204" x2="240" y2="204"/><line class="cls-9" x1="640" y1="208" x2="240" y2="208"/><line class="cls-9" x1="640" y1="212" x2="240" y2="212"/><line class="cls-9" x1="640" y1="216" x2="240" y2="216"/><line class="cls-9" x1="640" y1="220" x2="240" y2="220"/><line class="cls-9" x1="640" y1="224" x2="240" y2="224"/><line class="cls-9" x1="640" y1="228" x2="240" y2="228"/><line class="cls-9" x1="640" y1="232" x2="240" y2="232"/><line class="cls-9" x1="640" y1="236" x2="240" y2="236"/><line class="cls-9" x1="640" y1="240" x2="240" y2="240"/><line class="cls-9" x1="640" y1="244" x2="240" y2="244"/><line class="cls-9" x1="640" y1="248" x2="240" y2="248"/><line class="cls-9" x1="640" y1="252" x2="240" y2="252"/><line class="cls-9" x1="640" y1="256" x2="240" y2="256"/><line class="cls-9" x1="640" y1="264" x2="240" y2="264"/><line class="cls-9" x1="640" y1="260" x2="240" y2="260"/><line class="cls-9" x1="640" y1="268" x2="240" y2="268"/><line class="cls-9" x1="640" y1="272" x2="240" y2="272"/><line class="cls-9" x1="640" y1="276" x2="240" y2="276"/><line class="cls-9" x1="640" y1="280" x2="240" y2="280"/><line class="cls-9" x1="640" y1="284" x2="240" y2="284"/><line class="cls-9" x1="640" y1="288" x2="240" y2="288"/><line class="cls-9" x1="640" y1="292" x2="240" y2="292"/><line class="cls-9" x1="640" y1="296" x2="240" y2="296"/><line class="cls-9" x1="640" y1="300" x2="240" y2="300"/><line class="cls-9" x1="640" y1="304" x2="240" y2="304"/><line class="cls-9" x1="640" y1="308" x2="240" y2="308"/><line class="cls-9" x1="640" y1="312" x2="240" y2="312"/><line class="cls-9" x1="640" y1="316" x2="240" y2="316"/><line class="cls-9" x1="640" y1="320" x2="240" y2="320"/><line class="cls-9" x1="640" y1="324" x2="240" y2="324"/><line class="cls-9" x1="640" y1="328" x2="240" y2="328"/><line class="cls-9" x1="640" y1="332" x2="240" y2="332"/><line class="cls-9" x1="640" y1="336" x2="240" y2="336"/><line class="cls-9" x1="640" y1="340" x2="240" y2="340"/><line class="cls-9" x1="640" y1="344" x2="240" y2="344"/><line class="cls-9" x1="640" y1="348" x2="240" y2="348"/><line class="cls-9" x1="640" y1="352" x2="240" y2="352"/><line class="cls-9" x1="640" y1="356" x2="240" y2="356"/><line class="cls-9" x1="640" y1="360" x2="240" y2="360"/><line class="cls-9" x1="640" y1="364" x2="240" y2="364"/><line class="cls-9" x1="640" y1="368" x2="240" y2="368"/><line class="cls-9" x1="640" y1="372" x2="240" y2="372"/><line class="cls-9" x1="640" y1="376" x2="240" y2="376"/><line class="cls-9" x1="640" y1="380" x2="240" y2="380"/><line class="cls-9" x1="640" y1="384" x2="240" y2="384"/><line class="cls-9" x1="640" y1="388" x2="240" y2="388"/><line class="cls-9" x1="640" y1="392" x2="240" y2="392"/><line class="cls-9" x1="640" y1="396" x2="240" y2="396"/><line class="cls-9" x1="640" y1="400" x2="240" y2="400"/><line class="cls-9" x1="640" y1="404" x2="240" y2="404"/><line class="cls-9" x1="640" y1="408" x2="240" y2="408"/><line class="cls-9" x1="640" y1="412" x2="240" y2="412"/><line class="cls-9" x1="640" y1="416" x2="240" y2="416"/><line class="cls-9" x1="640" y1="420" x2="240" y2="420"/><line class="cls-9" x1="640" y1="424" x2="240" y2="424"/><line class="cls-9" x1="640" y1="428" x2="240" y2="428"/><line class="cls-9" x1="640" y1="432" x2="240" y2="432"/><line class="cls-9" x1="640" y1="436" x2="240" y2="436"/><line class="cls-9" x1="640" y1="440" x2="240" y2="440"/><line class="cls-9" x1="640" y1="444" x2="240" y2="444"/><line class="cls-9" x1="640" y1="448" x2="240" y2="448"/><line class="cls-9" x1="640" y1="452" x2="240" y2="452"/><line class="cls-9" x1="640" y1="456" x2="240" y2="456"/></g></g></g></svg>