<svg xmlns="http://www.w3.org/2000/svg" viewBox="0 0 288 288"><defs><style>.cls-1{fill:#fff;}.cls-2{fill:#3ddbd9;}.cls-3{fill:none;stroke:#00539a;stroke-miterlimit:10;stroke-width:2px;}</style></defs><title>Artboard 50</title><g id="Graphics"><rect class="cls-1" width="288" height="288"/><rect class="cls-2" y="-1" width="288" height="289"/><path class="cls-3" d="M184,136c0,32-24,56-64,64-47.14,9.43-88,16-88,40H184Z"/><rect class="cls-3" x="32" y="240" width="224" height="16"/><rect class="cls-3" x="32" y="256" width="224" height="8"/><rect class="cls-3" x="32" y="248" width="224" height="8"/><line class="cls-3" y1="264" x2="288" y2="264"/><rect class="cls-3" x="184" y="120" width="72" height="16"/><path class="cls-3" d="M280,0s-24,32-24,88H184V0"/><rect class="cls-3" x="184" y="104" width="72" height="16"/><rect class="cls-3" x="184" y="88" width="72" height="16"/><rect class="cls-3" x="184" y="136" width="72" height="104"/><path class="cls-3" d="M256,240H184V136S256,176,256,240Z"/><circle class="cls-3" cx="220" cy="172" r="20"/><path class="cls-3" d="M32,240H88V206.49C55.79,213.52,32,221.69,32,240Z"/><path class="cls-3" d="M108,212a4,4,0,0,0,4-4v-6.41l-8,1.59V208A4,4,0,0,0,108,212Z"/><path class="cls-3" d="M124,212a4,4,0,0,0,4-4v-9.88c-2.59.7-5.25,1.33-8,1.88v8A4,4,0,0,0,124,212Z"/><path class="cls-3" d="M140,212a4,4,0,0,0,4-4V192.48c-2.56,1.15-5.23,2.2-8,3.17V208A4,4,0,0,0,140,212Z"/><path class="cls-3" d="M156,212a4,4,0,0,0,4-4V184a4,4,0,0,0-.1-.85,78.91,78.91,0,0,1-7.9,5.23V208A4,4,0,0,0,156,212Z"/><path class="cls-3" d="M220,192a20,20,0,0,0,16.46-8.65A162,162,0,0,0,210,154.71,20,20,0,0,0,220,192Z"/><path class="cls-3" d="M184,136c0,32-24,56-64,64-47.14,9.43-88,16-88,40"/></g></svg>