<svg xmlns="http://www.w3.org/2000/svg" viewBox="0 0 288 288"><defs><style>.cls-1{isolation:isolate}.cls-2,.cls-5{fill:#fff}.cls-3,.cls-4,.cls-7{fill:none}.cls-3{stroke:#a6c8ff}.cls-3,.cls-4,.cls-5,.cls-7{stroke-miterlimit:10}.cls-3,.cls-4{stroke-width:2px}.cls-4,.cls-5{stroke:#d12771}.cls-6{mix-blend-mode:multiply}.cls-7{stroke:#e0e0e0;stroke-width:.5px}</style></defs><title>Artboard 16 copy 2</title><g class="cls-1"><g id="Base"><rect width="288" height="288" class="cls-2"/></g><g id="Graphics"><line x1="136" x2="136" y1="148" y2="288" class="cls-3"/><line x1="128" x2="128" y1="148" y2="288" class="cls-3"/><line x1="120" x2="120" y1="148" y2="288" class="cls-3"/><line x1="112" x2="112" y1="148" y2="288" class="cls-3"/><line x1="104" x2="104" y1="148" y2="288" class="cls-3"/><line x1="96" x2="96" y1="148" y2="288" class="cls-3"/><line x1="88" x2="88" y1="148" y2="288" class="cls-3"/><line x1="148" x2="288" y1="144.01" y2="144.01" class="cls-3"/><line x1="148" x2="288" y1="136" y2="136" class="cls-3"/><line x1="148" x2="288" y1="127.99" y2="127.99" class="cls-3"/><line x1="148" x2="288" y1="119.98" y2="119.98" class="cls-3"/><line x1="148" x2="288" y1="111.97" y2="111.97" class="cls-3"/><line x1="148" x2="288" y1="103.96" y2="103.96" class="cls-3"/><line x1="148" x2="288" y1="95.95" y2="95.95" class="cls-3"/><line x1="148" x2="288" y1="87.93" y2="87.93" class="cls-3"/><path d="M144,148a4,4,0,0,1,4-4" class="cls-4"/><path d="M136,148a12,12,0,0,1,12-12" class="cls-4"/><path d="M128,148a20,20,0,0,1,20-20" class="cls-4"/><path d="M119.94,148A28.07,28.07,0,0,1,148,119.94" class="cls-4"/><path d="M104,148a44,44,0,0,1,44-44" class="cls-4"/><path d="M96,148a52,52,0,0,1,52-52" class="cls-4"/><path d="M88,148a60,60,0,0,1,60-60" class="cls-4"/><path d="M112,148a36,36,0,0,1,36-36" class="cls-4"/><line x1="144" x2="144" y1="148" y2="288" class="cls-3"/><rect width="4" height="4" x="146" y="142" class="cls-5"/><rect width="4" height="4" x="146" y="134" class="cls-5"/><rect width="4" height="4" x="146" y="126" class="cls-5"/><rect width="4" height="4" x="146" y="118" class="cls-5"/><rect width="4" height="4" x="146" y="110" class="cls-5"/><rect width="4" height="4" x="146" y="102" class="cls-5"/><rect width="4" height="4" x="146" y="94" class="cls-5"/><rect width="4" height="4" x="146" y="86" class="cls-5"/><rect width="4" height="4" x="142" y="146" class="cls-5" transform="translate(-4 292) rotate(-90)"/><rect width="4" height="4" x="134" y="146" class="cls-5" transform="translate(-12 284) rotate(-90)"/><rect width="4" height="4" x="126" y="146" class="cls-5" transform="translate(-20 276) rotate(-90)"/><rect width="4" height="4" x="118" y="146" class="cls-5" transform="translate(-28 268) rotate(-90)"/><rect width="4" height="4" x="110" y="146" class="cls-5" transform="translate(-36 260) rotate(-90)"/><rect width="4" height="4" x="102" y="146" class="cls-5" transform="translate(-44 252) rotate(-90)"/><rect width="4" height="4" x="94" y="146" class="cls-5" transform="translate(-52 244) rotate(-90)"/><rect width="4" height="4" x="86" y="146" class="cls-5" transform="translate(-60 236) rotate(-90)"/></g><g id="Grid"><g class="cls-6"><rect width="200" height="200" x="44" y="44" class="cls-7"/><line x1="48" x2="48" y1="44" y2="244" class="cls-7"/><line x1="52" x2="52" y1="44" y2="244" class="cls-7"/><line x1="56" x2="56" y1="44" y2="244" class="cls-7"/><line x1="60" x2="60" y1="44" y2="244" class="cls-7"/><line x1="64" x2="64" y1="44" y2="244" class="cls-7"/><line x1="68" x2="68" y1="44" y2="244" class="cls-7"/><line x1="72" x2="72" y1="44" y2="244" class="cls-7"/><line x1="76" x2="76" y1="44" y2="244" class="cls-7"/><line x1="80" x2="80" y1="44" y2="244" class="cls-7"/><line x1="84" x2="84" y1="44" y2="244" class="cls-7"/><line x1="88" x2="88" y1="44" y2="244" class="cls-7"/><line x1="92" x2="92" y1="44" y2="244" class="cls-7"/><line x1="96" x2="96" y1="44" y2="244" class="cls-7"/><line x1="100" x2="100" y1="44" y2="244" class="cls-7"/><line x1="104" x2="104" y1="44" y2="244" class="cls-7"/><line x1="108" x2="108" y1="44" y2="244" class="cls-7"/><line x1="112" x2="112" y1="44" y2="244" class="cls-7"/><line x1="116" x2="116" y1="44" y2="244" class="cls-7"/><line x1="120" x2="120" y1="44" y2="244" class="cls-7"/><line x1="124" x2="124" y1="44" y2="244" class="cls-7"/><line x1="128" x2="128" y1="44" y2="244" class="cls-7"/><line x1="132" x2="132" y1="44" y2="244" class="cls-7"/><line x1="136" x2="136" y1="44" y2="244" class="cls-7"/><line x1="140" x2="140" y1="44" y2="244" class="cls-7"/><line x1="144" x2="144" y1="44" y2="244" class="cls-7"/><line x1="148" x2="148" y1="44" y2="244" class="cls-7"/><line x1="152" x2="152" y1="44" y2="244" class="cls-7"/><line x1="156" x2="156" y1="44" y2="244" class="cls-7"/><line x1="160" x2="160" y1="44" y2="244" class="cls-7"/><line x1="164" x2="164" y1="44" y2="244" class="cls-7"/><line x1="168" x2="168" y1="44" y2="244" class="cls-7"/><line x1="172" x2="172" y1="44" y2="244" class="cls-7"/><line x1="176" x2="176" y1="44" y2="244" class="cls-7"/><line x1="180" x2="180" y1="44" y2="244" class="cls-7"/><line x1="184" x2="184" y1="44" y2="244" class="cls-7"/><line x1="188" x2="188" y1="44" y2="244" class="cls-7"/><line x1="192" x2="192" y1="44" y2="244" class="cls-7"/><line x1="196" x2="196" y1="44" y2="244" class="cls-7"/><line x1="200" x2="200" y1="44" y2="244" class="cls-7"/><line x1="204" x2="204" y1="44" y2="244" class="cls-7"/><line x1="208" x2="208" y1="44" y2="244" class="cls-7"/><line x1="212" x2="212" y1="44" y2="244" class="cls-7"/><line x1="216" x2="216" y1="44" y2="244" class="cls-7"/><line x1="220" x2="220" y1="44" y2="244" class="cls-7"/><line x1="224" x2="224" y1="44" y2="244" class="cls-7"/><line x1="228" x2="228" y1="44" y2="244" class="cls-7"/><line x1="232" x2="232" y1="44" y2="244" class="cls-7"/><line x1="236" x2="236" y1="44" y2="244" class="cls-7"/><line x1="240" x2="240" y1="44" y2="244" class="cls-7"/><line x1="244" x2="44" y1="48" y2="48" class="cls-7"/><line x1="244" x2="44" y1="52" y2="52" class="cls-7"/><line x1="244" x2="44" y1="56" y2="56" class="cls-7"/><line x1="244" x2="44" y1="60" y2="60" class="cls-7"/><line x1="244" x2="44" y1="64" y2="64" class="cls-7"/><line x1="244" x2="44" y1="68" y2="68" class="cls-7"/><line x1="244" x2="44" y1="72" y2="72" class="cls-7"/><line x1="244" x2="44" y1="76" y2="76" class="cls-7"/><line x1="244" x2="44" y1="80" y2="80" class="cls-7"/><line x1="244" x2="44" y1="84" y2="84" class="cls-7"/><line x1="244" x2="44" y1="88" y2="88" class="cls-7"/><line x1="244" x2="44" y1="92" y2="92" class="cls-7"/><line x1="244" x2="44" y1="96" y2="96" class="cls-7"/><line x1="244" x2="44" y1="100" y2="100" class="cls-7"/><line x1="244" x2="44" y1="104" y2="104" class="cls-7"/><line x1="244" x2="44" y1="108" y2="108" class="cls-7"/><line x1="244" x2="44" y1="112" y2="112" class="cls-7"/><line x1="244" x2="44" y1="116" y2="116" class="cls-7"/><line x1="244" x2="44" y1="120" y2="120" class="cls-7"/><line x1="244" x2="44" y1="124" y2="124" class="cls-7"/><line x1="244" x2="44" y1="128" y2="128" class="cls-7"/><line x1="244" x2="44" y1="132" y2="132" class="cls-7"/><line x1="244" x2="44" y1="136" y2="136" class="cls-7"/><line x1="244" x2="44" y1="140" y2="140" class="cls-7"/><line x1="244" x2="44" y1="144" y2="144" class="cls-7"/><line x1="244" x2="44" y1="148" y2="148" class="cls-7"/><line x1="244" x2="44" y1="152" y2="152" class="cls-7"/><line x1="244" x2="44" y1="156" y2="156" class="cls-7"/><line x1="244" x2="44" y1="160" y2="160" class="cls-7"/><line x1="244" x2="44" y1="164" y2="164" class="cls-7"/><line x1="244" x2="44" y1="168" y2="168" class="cls-7"/><line x1="244" x2="44" y1="172" y2="172" class="cls-7"/><line x1="244" x2="44" y1="176" y2="176" class="cls-7"/><line x1="244" x2="44" y1="180" y2="180" class="cls-7"/><line x1="244" x2="44" y1="184" y2="184" class="cls-7"/><line x1="244" x2="44" y1="188" y2="188" class="cls-7"/><line x1="244" x2="44" y1="192" y2="192" class="cls-7"/><line x1="244" x2="44" y1="196" y2="196" class="cls-7"/><line x1="244" x2="44" y1="200" y2="200" class="cls-7"/><line x1="244" x2="44" y1="204" y2="204" class="cls-7"/><line x1="244" x2="44" y1="208" y2="208" class="cls-7"/><line x1="244" x2="44" y1="212" y2="212" class="cls-7"/><line x1="244" x2="44" y1="216" y2="216" class="cls-7"/><line x1="244" x2="44" y1="220" y2="220" class="cls-7"/><line x1="244" x2="44" y1="224" y2="224" class="cls-7"/><line x1="244" x2="44" y1="228" y2="228" class="cls-7"/><line x1="244" x2="44" y1="232" y2="232" class="cls-7"/><line x1="244" x2="44" y1="236" y2="236" class="cls-7"/><line x1="244" x2="44" y1="240" y2="240" class="cls-7"/></g></g></g></svg>