<svg xmlns="http://www.w3.org/2000/svg" viewBox="0 0 928 519.73"><defs><style>.cls-1{isolation:isolate;}.cls-2{fill:#fff;}.cls-3{fill:#a6c8ff;}.cls-11,.cls-4,.cls-5,.cls-6,.cls-7,.cls-8,.cls-9{fill:none;stroke-miterlimit:10;}.cls-4,.cls-6,.cls-7,.cls-8,.cls-9{stroke:#000;}.cls-4,.cls-5{stroke-width:4px;}.cls-5{stroke:#a6c8ff;}.cls-6{stroke-width:2px;}.cls-7{stroke-width:6px;}.cls-8{stroke-width:1.5px;}.cls-10{mix-blend-mode:multiply;}.cls-11{stroke:#e0e0e0;stroke-width:0.5px;}</style></defs><title>Artboard 13</title><g class="cls-1"><g id="Base"><rect class="cls-2" width="928" height="519.73"/></g><g id="Graphics"><rect class="cls-3" x="564" y="163.86" width="100" height="4"/><rect class="cls-3" x="564" y="167.86" width="100" height="4"/><rect class="cls-3" x="564" y="171.86" width="100" height="4"/><rect class="cls-3" x="564" y="175.86" width="100" height="4"/><rect class="cls-3" x="564" y="179.86" width="100" height="4"/><rect class="cls-3" x="564" y="183.86" width="100" height="4"/><rect class="cls-3" x="564" y="99.86" width="100" height="4"/><rect class="cls-3" x="564" y="103.86" width="100" height="4"/><rect class="cls-3" x="564" y="107.86" width="100" height="4"/><rect class="cls-3" x="564" y="111.86" width="100" height="4"/><rect class="cls-3" x="564" y="115.86" width="100" height="4"/><rect class="cls-3" x="564" y="119.86" width="100" height="4"/><rect class="cls-3" x="564" y="227.86" width="100" height="4"/><rect class="cls-3" x="564" y="231.86" width="100" height="4"/><rect class="cls-3" x="564" y="235.86" width="100" height="4"/><rect class="cls-3" x="564" y="239.86" width="100" height="4"/><rect class="cls-3" x="564" y="243.86" width="100" height="4"/><rect class="cls-3" x="564" y="247.86" width="100" height="4"/><rect class="cls-3" x="564" y="291.86" width="100" height="4"/><rect class="cls-3" x="564" y="295.86" width="100" height="4"/><rect class="cls-3" x="564" y="299.86" width="100" height="4"/><rect class="cls-3" x="564" y="303.86" width="100" height="4"/><rect class="cls-3" x="564" y="307.86" width="100" height="4"/><rect class="cls-3" x="564" y="311.86" width="100" height="4"/><path d="M676.18,111.43c1.5,0,2.27-.78,2.27-1.86v-.11c0-1.17-.81-1.76-2-1.76a2.42,2.42,0,0,0-2.3,1.39l-1-.77a3.71,3.71,0,0,1,3.33-1.82c1.89,0,3.4,1,3.4,2.82a2.63,2.63,0,0,1-2.15,2.61V112a2.77,2.77,0,0,1,2.35,2.82c0,1.92-1.52,3.25-3.79,3.25a4.12,4.12,0,0,1-3.62-1.91l1-.77a2.79,2.79,0,0,0,2.6,1.48c1.56,0,2.4-.76,2.4-2.07v-.13c0-1.31-.84-2.06-2.4-2.06H675v-1.17Z"/><path d="M682.8,117.13v-.21a1,1,0,0,1,2,0v.21a1,1,0,0,1-2,0Z"/><path d="M694.48,117.86h-7.33v-1.37l3.65-3.36a4.8,4.8,0,0,0,1.84-3.16v-.19a1.89,1.89,0,0,0-2.06-2.08,2.26,2.26,0,0,0-2.32,1.89l-1.2-.47a3.52,3.52,0,0,1,3.58-2.62,3.12,3.12,0,0,1,3.43,3.25c0,1.73-1,2.94-2.45,4.22l-3,2.71h5.87Z"/><path d="M703.52,107.88h-4.9l-.32,4.25h.12a2.51,2.51,0,0,1,2.29-1.23,3.21,3.21,0,0,1,3.33,3.46,3.5,3.5,0,0,1-3.77,3.7,4,4,0,0,1-3.49-1.91l1-.77a2.64,2.64,0,0,0,2.48,1.48,2.11,2.11,0,0,0,2.34-2.33v-.16a2.11,2.11,0,0,0-2.34-2.32,2.46,2.46,0,0,0-2,1l-1.13-.16.4-6.15h6Z"/><path d="M706.51,109.6h1.28V111h.07a2.41,2.41,0,0,1,2.41-1.54c2.07,0,3.36,1.68,3.36,4.32s-1.29,4.33-3.36,4.33a2.49,2.49,0,0,1-2.41-1.54h-.07v4.55h-1.28Zm5.75,4.84V113a2.25,2.25,0,0,0-2.34-2.46c-1.17,0-2.13.67-2.13,1.58v3.07c0,1.08,1,1.68,2.13,1.68A2.25,2.25,0,0,0,712.26,114.44Z"/><path d="M717.63,113.7l-2.93-4.1h1.51l2.09,3.08h.05l2.18-3.08H722l-2.92,4,3,4.25h-1.51l-2.14-3.23h0L716,117.86h-1.42Z"/><path d="M680.53,245.86H673.2v-1.37l3.65-3.36a4.8,4.8,0,0,0,1.84-3.16v-.19a1.9,1.9,0,0,0-2.06-2.08,2.26,2.26,0,0,0-2.32,1.89l-1.2-.47a3.52,3.52,0,0,1,3.58-2.62,3.12,3.12,0,0,1,3.43,3.25c0,1.73-1,2.94-2.45,4.22l-3,2.71h5.87Z"/><path d="M682.8,245.13v-.21a1,1,0,0,1,2,0v.21a1,1,0,0,1-2,0Z"/><path d="M693.92,235.88H689l-.32,4.25h.11a2.51,2.51,0,0,1,2.29-1.23,3.21,3.21,0,0,1,3.33,3.46,3.5,3.5,0,0,1-3.77,3.7,4,4,0,0,1-3.49-1.91l1-.77a2.64,2.64,0,0,0,2.48,1.48,2.11,2.11,0,0,0,2.34-2.33v-.16a2.1,2.1,0,0,0-2.34-2.32,2.46,2.46,0,0,0-2,.95l-1.13-.16.4-6.15h6Z"/><path d="M696.91,237.6h1.28V239h.07a2.41,2.41,0,0,1,2.41-1.54c2.07,0,3.37,1.68,3.37,4.32s-1.3,4.33-3.37,4.33a2.49,2.49,0,0,1-2.41-1.54h-.07v4.55h-1.28Zm5.75,4.84V241a2.25,2.25,0,0,0-2.34-2.46c-1.17,0-2.13.67-2.13,1.58v3.07c0,1.08,1,1.68,2.13,1.68A2.25,2.25,0,0,0,702.66,242.44Z"/><path d="M708,241.7l-2.93-4.1h1.51l2.1,3.08h0l2.18-3.08h1.43l-2.92,4,3,4.25h-1.51l-2.14-3.23h0l-2.32,3.23H705Z"/><path d="M678,373.86v-2.19h-5.39v-1.18l4.67-7.8h2v7.86h1.62v1.12h-1.62v2.19Zm-4.13-3.31H678v-6.82h-.08Z"/><path d="M683,365.6h1.28V367h.07a2.41,2.41,0,0,1,2.41-1.54c2.07,0,3.36,1.68,3.36,4.32s-1.29,4.33-3.36,4.33a2.49,2.49,0,0,1-2.41-1.54h-.07v4.55H683Zm5.75,4.84V369a2.25,2.25,0,0,0-2.34-2.46c-1.17,0-2.13.67-2.13,1.58v3.07c0,1.08,1,1.68,2.13,1.68A2.25,2.25,0,0,0,688.71,370.44Z"/><path d="M694.08,369.7l-2.93-4.1h1.51l2.09,3.08h0L697,365.6h1.42l-2.91,4,3,4.25H697l-2.14-3.23h-.05l-2.32,3.23H691Z"/><path d="M680.53,309.86H673.2v-1.37l3.65-3.36a4.8,4.8,0,0,0,1.84-3.16v-.19a1.9,1.9,0,0,0-2.06-2.08,2.26,2.26,0,0,0-2.32,1.89l-1.2-.47a3.52,3.52,0,0,1,3.58-2.62,3.12,3.12,0,0,1,3.43,3.25c0,1.73-1,2.94-2.45,4.22l-3,2.71h5.87Z"/><path d="M683,301.61h1.28V303h.07a2.41,2.41,0,0,1,2.41-1.54c2.07,0,3.36,1.68,3.36,4.32s-1.29,4.33-3.36,4.33a2.49,2.49,0,0,1-2.41-1.54h-.07v4.55H683Zm5.75,4.83V305a2.25,2.25,0,0,0-2.34-2.46c-1.17,0-2.13.67-2.13,1.58v3.07c0,1.08,1,1.68,2.13,1.68A2.25,2.25,0,0,0,688.71,306.44Z"/><path d="M694.08,305.7l-2.93-4.09h1.51l2.09,3.07h0l2.18-3.07h1.42l-2.91,4,3,4.25H697l-2.14-3.23h-.05l-2.32,3.23H691Z"/><path d="M673.07,439.77a8.85,8.85,0,0,1,4-7.08h1.73c-2.39,1.75-3.72,3.2-4.32,5.8l.08,0a2.91,2.91,0,0,1,2.69-1.6,3.19,3.19,0,0,1,3.29,3.44,3.51,3.51,0,0,1-3.71,3.7C674.5,444.06,673.07,442.42,673.07,439.77Zm6.07.76v-.12a2.34,2.34,0,1,0-4.67,0v.12a2.34,2.34,0,1,0,4.67,0Z"/><path d="M683,435.6h1.28V437h.07a2.41,2.41,0,0,1,2.41-1.54c2.07,0,3.36,1.68,3.36,4.32s-1.29,4.33-3.36,4.33a2.49,2.49,0,0,1-2.41-1.54h-.07v4.55H683Zm5.75,4.84V439a2.25,2.25,0,0,0-2.34-2.46c-1.17,0-2.13.67-2.13,1.58v3.07c0,1.08,1,1.68,2.13,1.68A2.25,2.25,0,0,0,688.71,440.44Z"/><path d="M694.08,439.7l-2.93-4.1h1.51l2.09,3.08h0L697,435.6h1.42l-2.91,4,3,4.25H697l-2.14-3.23h-.05l-2.32,3.23H691Z"/><path d="M676.18,175.43c1.5,0,2.27-.78,2.27-1.86v-.11c0-1.17-.81-1.76-2-1.76a2.42,2.42,0,0,0-2.3,1.39l-1-.77a3.71,3.71,0,0,1,3.33-1.82c1.89,0,3.4,1,3.4,2.82a2.63,2.63,0,0,1-2.15,2.61V176a2.77,2.77,0,0,1,2.35,2.82c0,1.92-1.52,3.25-3.79,3.25a4.12,4.12,0,0,1-3.62-1.91l1-.77a2.79,2.79,0,0,0,2.6,1.48c1.56,0,2.4-.76,2.4-2.07v-.13c0-1.31-.84-2.06-2.4-2.06H675v-1.17Z"/><path d="M683,173.6h1.28V175h.07a2.41,2.41,0,0,1,2.41-1.54c2.07,0,3.36,1.68,3.36,4.32s-1.29,4.33-3.36,4.33a2.49,2.49,0,0,1-2.41-1.54h-.07v4.55H683Zm5.75,4.84V177a2.25,2.25,0,0,0-2.34-2.46c-1.17,0-2.13.67-2.13,1.58v3.07c0,1.08,1,1.68,2.13,1.68A2.25,2.25,0,0,0,688.71,178.44Z"/><path d="M694.08,177.7l-2.93-4.1h1.51l2.09,3.08h0L697,173.6h1.42l-2.91,4,3,4.25H697l-2.14-3.23h-.05l-2.32,3.23H691Z"/><path d="M205,122.28c0-3.65,1.17-5.78,3.84-5.78s3.84,2.13,3.84,5.78-1.17,5.78-3.84,5.78S205,125.93,205,122.28Zm6.27.91v-1.82c0-2.17-.68-3.7-2.43-3.7s-2.43,1.53-2.43,3.7v1.82c0,2.16.69,3.7,2.43,3.7S211.23,125.35,211.23,123.19Z"/><path d="M214.8,127.13v-.21a1,1,0,0,1,1.95,0v.21a1,1,0,0,1-1.95,0Z"/><path d="M220.75,127.86l4.28-10h-4.77v2.08h-1.2v-3.23h7.33v1.19l-4.2,10Z"/><path d="M236.08,127.86h-7.33v-1.37l3.65-3.36a4.8,4.8,0,0,0,1.84-3.16v-.19a1.9,1.9,0,0,0-2.06-2.08,2.26,2.26,0,0,0-2.32,1.89l-1.2-.47a3.52,3.52,0,0,1,3.58-2.62,3.12,3.12,0,0,1,3.43,3.25c0,1.73-1,2.94-2.45,4.22l-3,2.71h5.87Z"/><path d="M238.51,119.6h1.28V121h.07a2.41,2.41,0,0,1,2.41-1.54c2.07,0,3.36,1.68,3.36,4.32s-1.29,4.33-3.36,4.33a2.49,2.49,0,0,1-2.41-1.54h-.07v4.55h-1.28Zm5.75,4.84V123a2.25,2.25,0,0,0-2.34-2.46c-1.17,0-2.13.67-2.13,1.58v3.07c0,1.08,1,1.68,2.13,1.68A2.25,2.25,0,0,0,244.26,124.44Z"/><path d="M249.63,123.7l-2.93-4.1h1.51l2.09,3.08h0l2.18-3.08H254l-2.91,4,3,4.25h-1.51l-2.14-3.23h-.05L248,127.86h-1.43Z"/><path d="M215,255.86v-1.18h3.12v-9H218l-2.82,2.63-.78-.85,3-2.77h2.09v10h2.89v1.18Z"/><path d="M224.4,255.13v-.21a1,1,0,0,1,1.95,0v.21a1,1,0,0,1-1.95,0Z"/><path d="M235.52,245.88h-4.9l-.32,4.25h.12a2.5,2.5,0,0,1,2.29-1.23,3.2,3.2,0,0,1,3.32,3.46,3.5,3.5,0,0,1-3.76,3.7,4,4,0,0,1-3.49-1.91l1-.77a2.64,2.64,0,0,0,2.48,1.48,2.11,2.11,0,0,0,2.34-2.33v-.16a2.11,2.11,0,0,0-2.34-2.32,2.46,2.46,0,0,0-2,.95l-1.14-.16.41-6.15h6Z"/><path d="M238.51,247.6h1.28V249h.07a2.41,2.41,0,0,1,2.41-1.54c2.07,0,3.36,1.68,3.36,4.32s-1.29,4.33-3.36,4.33a2.49,2.49,0,0,1-2.41-1.54h-.07v4.55h-1.28Zm5.75,4.84V251a2.25,2.25,0,0,0-2.34-2.46c-1.17,0-2.13.67-2.13,1.58v3.07c0,1.08,1,1.68,2.13,1.68A2.25,2.25,0,0,0,244.26,252.44Z"/><path d="M249.63,251.7l-2.93-4.1h1.51l2.09,3.08h0l2.18-3.08H254l-2.91,4,3,4.25h-1.51l-2.14-3.23h-.05L248,255.86h-1.43Z"/><path d="M233.55,383.86v-2.19h-5.39v-1.18l4.67-7.8h2v7.86h1.62v1.12h-1.62v2.19Zm-4.13-3.31h4.13v-6.82h-.08Z"/><path d="M238.51,375.6h1.28V377h.07a2.41,2.41,0,0,1,2.41-1.54c2.07,0,3.36,1.68,3.36,4.32s-1.29,4.33-3.36,4.33a2.49,2.49,0,0,1-2.41-1.54h-.07v4.55h-1.28Zm5.75,4.84V379a2.25,2.25,0,0,0-2.34-2.46c-1.17,0-2.13.67-2.13,1.58v3.07c0,1.08,1,1.68,2.13,1.68A2.25,2.25,0,0,0,244.26,380.44Z"/><path d="M249.63,379.7l-2.93-4.1h1.51l2.09,3.08h0l2.18-3.08H254l-2.91,4,3,4.25h-1.51l-2.14-3.23h-.05L248,383.86h-1.43Z"/><path d="M236.08,319.86h-7.33v-1.37l3.65-3.36a4.8,4.8,0,0,0,1.84-3.16v-.19a1.9,1.9,0,0,0-2.06-2.08,2.26,2.26,0,0,0-2.32,1.89l-1.2-.47a3.52,3.52,0,0,1,3.58-2.62,3.12,3.12,0,0,1,3.43,3.25c0,1.73-1,2.94-2.45,4.22l-3,2.71h5.87Z"/><path d="M238.51,311.61h1.28V313h.07a2.41,2.41,0,0,1,2.41-1.54c2.07,0,3.36,1.68,3.36,4.32s-1.29,4.33-3.36,4.33a2.49,2.49,0,0,1-2.41-1.54h-.07v4.55h-1.28Zm5.75,4.83V315a2.25,2.25,0,0,0-2.34-2.46c-1.17,0-2.13.67-2.13,1.58v3.07c0,1.08,1,1.68,2.13,1.68A2.25,2.25,0,0,0,244.26,316.44Z"/><path d="M249.63,315.7l-2.93-4.09h1.51l2.09,3.07h0l2.18-3.07H254l-2.91,4,3,4.25h-1.51l-2.14-3.23h-.05L248,319.86h-1.43Z"/><path d="M228.62,455.77a8.85,8.85,0,0,1,4-7.08h1.73c-2.39,1.75-3.72,3.2-4.32,5.8l.08,0a2.9,2.9,0,0,1,2.69-1.6,3.19,3.19,0,0,1,3.29,3.44,3.51,3.51,0,0,1-3.71,3.7C230.05,460.06,228.62,458.42,228.62,455.77Zm6.07.76v-.12a2.34,2.34,0,1,0-4.67,0v.12a2.34,2.34,0,1,0,4.67,0Z"/><path d="M238.51,451.6h1.28V453h.07a2.41,2.41,0,0,1,2.41-1.54c2.07,0,3.36,1.68,3.36,4.32s-1.29,4.33-3.36,4.33a2.49,2.49,0,0,1-2.41-1.54h-.07v4.55h-1.28Zm5.75,4.84V455a2.25,2.25,0,0,0-2.34-2.46c-1.17,0-2.13.67-2.13,1.58v3.07c0,1.08,1,1.68,2.13,1.68A2.25,2.25,0,0,0,244.26,456.44Z"/><path d="M249.63,455.7l-2.93-4.1h1.51l2.09,3.08h0l2.18-3.08H254l-2.91,4,3,4.25h-1.51l-2.14-3.23h-.05L248,459.86h-1.43Z"/><path d="M229,191.86v-1.18h3.12v-9H232l-2.82,2.63-.78-.85,3-2.77h2.1v10h2.88v1.18Z"/><path d="M238.51,183.6h1.28V185h.07a2.41,2.41,0,0,1,2.41-1.54c2.07,0,3.36,1.68,3.36,4.32s-1.29,4.33-3.36,4.33a2.49,2.49,0,0,1-2.41-1.54h-.07v4.55h-1.28Zm5.75,4.84V187a2.25,2.25,0,0,0-2.34-2.46c-1.17,0-2.13.67-2.13,1.58v3.07c0,1.08,1,1.68,2.13,1.68A2.25,2.25,0,0,0,244.26,188.44Z"/><path d="M249.63,187.7l-2.93-4.1h1.51l2.09,3.08h0l2.18-3.08H254l-2.91,4,3,4.25h-1.51l-2.14-3.23h-.05L248,191.86h-1.43Z"/><line class="cls-4" x1="264" y1="379.86" x2="664" y2="379.86"/><line class="cls-4" x1="360" y1="371.86" x2="664" y2="371.86"/><line class="cls-4" x1="464" y1="363.86" x2="664" y2="363.86"/><line class="cls-4" x1="564" y1="355.86" x2="664" y2="355.86"/><line class="cls-5" x1="564" y1="359.86" x2="664" y2="359.86"/><line class="cls-5" x1="564" y1="367.86" x2="664" y2="367.86"/><line class="cls-5" x1="564" y1="375.86" x2="664" y2="375.86"/><line class="cls-6" x1="264" y1="315.86" x2="664" y2="315.86"/><line class="cls-6" x1="360" y1="307.86" x2="664" y2="307.86"/><line class="cls-6" x1="464" y1="299.86" x2="664" y2="299.86"/><line class="cls-6" x1="564" y1="291.86" x2="664" y2="291.86"/><line class="cls-6" x1="520" y1="295.86" x2="664" y2="295.86"/><line class="cls-6" x1="420" y1="303.86" x2="664" y2="303.86"/><line class="cls-6" x1="312" y1="311.86" x2="664" y2="311.86"/><line class="cls-7" x1="264" y1="455.86" x2="664" y2="455.86"/><line class="cls-7" x1="360" y1="443.72" x2="664" y2="443.72"/><line class="cls-7" x1="464" y1="431.86" x2="664" y2="431.86"/><line class="cls-7" x1="564" y1="419.86" x2="664" y2="419.72"/><line class="cls-8" x1="264" y1="251.86" x2="664" y2="251.86"/><line class="cls-8" x1="360" y1="243.86" x2="664" y2="243.86"/><line class="cls-8" x1="312" y1="247.86" x2="664" y2="247.86"/><line class="cls-8" x1="464" y1="235.86" x2="664" y2="235.86"/><line class="cls-8" x1="564" y1="227.86" x2="664" y2="227.86"/><line class="cls-8" x1="520" y1="231.86" x2="664" y2="231.86"/><line class="cls-8" x1="420" y1="239.86" x2="664" y2="239.86"/><line class="cls-9" x1="264" y1="187.86" x2="664" y2="187.86"/><line class="cls-9" x1="360" y1="179.86" x2="664" y2="179.86"/><line class="cls-9" x1="312" y1="183.86" x2="664" y2="183.86"/><line class="cls-9" x1="464" y1="171.86" x2="664" y2="171.86"/><line class="cls-9" x1="564" y1="163.86" x2="664" y2="163.86"/><line class="cls-9" x1="264" y1="123.86" x2="664" y2="123.86"/><line class="cls-9" x1="360" y1="115.86" x2="664" y2="115.86"/><line class="cls-9" x1="464" y1="107.86" x2="664" y2="107.86"/><line class="cls-9" x1="564" y1="99.86" x2="664" y2="99.86"/><line class="cls-9" x1="420" y1="175.86" x2="664" y2="175.86"/><line class="cls-9" x1="520" y1="167.86" x2="664" y2="167.86"/><line class="cls-9" x1="520" y1="103.86" x2="664" y2="103.86"/><line class="cls-9" x1="420" y1="111.84" x2="664" y2="111.84"/><line class="cls-9" x1="312" y1="119.86" x2="664" y2="119.86"/><rect class="cls-3" x="564" y="422.79" width="100" height="6"/><rect class="cls-3" x="564" y="434.64" width="100" height="6"/><rect class="cls-3" x="564" y="446.75" width="100" height="6"/></g><g id="Grid"><g class="cls-10"><rect class="cls-11" x="264" y="59.86" width="400" height="400"/><line class="cls-11" x1="268" y1="59.86" x2="268" y2="459.86"/><line class="cls-11" x1="272" y1="59.86" x2="272" y2="459.86"/><line class="cls-11" x1="276" y1="59.86" x2="276" y2="459.86"/><line class="cls-11" x1="280" y1="59.86" x2="280" y2="459.86"/><line class="cls-11" x1="284" y1="59.86" x2="284" y2="459.86"/><line class="cls-11" x1="288" y1="59.86" x2="288" y2="459.86"/><line class="cls-11" x1="292" y1="59.86" x2="292" y2="459.86"/><line class="cls-11" x1="296" y1="59.86" x2="296" y2="459.86"/><line class="cls-11" x1="300" y1="59.86" x2="300" y2="459.86"/><line class="cls-11" x1="304" y1="59.86" x2="304" y2="459.86"/><line class="cls-11" x1="308" y1="59.86" x2="308" y2="459.86"/><line class="cls-11" x1="312" y1="59.86" x2="312" y2="459.86"/><line class="cls-11" x1="316" y1="59.86" x2="316" y2="459.86"/><line class="cls-11" x1="320" y1="59.86" x2="320" y2="459.86"/><line class="cls-11" x1="324" y1="59.86" x2="324" y2="459.86"/><line class="cls-11" x1="328" y1="59.86" x2="328" y2="459.86"/><line class="cls-11" x1="332" y1="59.86" x2="332" y2="459.86"/><line class="cls-11" x1="336" y1="59.86" x2="336" y2="459.86"/><line class="cls-11" x1="340" y1="59.86" x2="340" y2="459.86"/><line class="cls-11" x1="344" y1="59.86" x2="344" y2="459.86"/><line class="cls-11" x1="348" y1="59.86" x2="348" y2="459.86"/><line class="cls-11" x1="352" y1="59.86" x2="352" y2="459.86"/><line class="cls-11" x1="356" y1="59.86" x2="356" y2="459.86"/><line class="cls-11" x1="360" y1="59.86" x2="360" y2="459.86"/><line class="cls-11" x1="364" y1="59.86" x2="364" y2="459.86"/><line class="cls-11" x1="368" y1="59.86" x2="368" y2="459.86"/><line class="cls-11" x1="372" y1="59.86" x2="372" y2="459.86"/><line class="cls-11" x1="376" y1="59.86" x2="376" y2="459.86"/><line class="cls-11" x1="380" y1="59.86" x2="380" y2="459.86"/><line class="cls-11" x1="384" y1="59.86" x2="384" y2="459.86"/><line class="cls-11" x1="388" y1="59.86" x2="388" y2="459.86"/><line class="cls-11" x1="392" y1="59.86" x2="392" y2="459.86"/><line class="cls-11" x1="396" y1="59.86" x2="396" y2="459.86"/><line class="cls-11" x1="400" y1="59.86" x2="400" y2="459.86"/><line class="cls-11" x1="404" y1="59.86" x2="404" y2="459.86"/><line class="cls-11" x1="408" y1="59.86" x2="408" y2="459.86"/><line class="cls-11" x1="412" y1="59.86" x2="412" y2="459.86"/><line class="cls-11" x1="416" y1="59.86" x2="416" y2="459.86"/><line class="cls-11" x1="420" y1="59.86" x2="420" y2="459.86"/><line class="cls-11" x1="424" y1="59.86" x2="424" y2="459.86"/><line class="cls-11" x1="428" y1="59.86" x2="428" y2="459.86"/><line class="cls-11" x1="432" y1="59.86" x2="432" y2="459.86"/><line class="cls-11" x1="436" y1="59.86" x2="436" y2="459.86"/><line class="cls-11" x1="440" y1="59.86" x2="440" y2="459.86"/><line class="cls-11" x1="444" y1="59.86" x2="444" y2="459.86"/><line class="cls-11" x1="448" y1="59.86" x2="448" y2="459.86"/><line class="cls-11" x1="452" y1="59.86" x2="452" y2="459.86"/><line class="cls-11" x1="456" y1="59.86" x2="456" y2="459.86"/><line class="cls-11" x1="460" y1="59.86" x2="460" y2="459.86"/><line class="cls-11" x1="468" y1="59.86" x2="468" y2="459.86"/><line class="cls-11" x1="464" y1="59.86" x2="464" y2="459.86"/><line class="cls-11" x1="472" y1="59.86" x2="472" y2="459.86"/><line class="cls-11" x1="476" y1="59.86" x2="476" y2="459.86"/><line class="cls-11" x1="480" y1="59.86" x2="480" y2="459.86"/><line class="cls-11" x1="484" y1="59.86" x2="484" y2="459.86"/><line class="cls-11" x1="488" y1="59.86" x2="488" y2="459.86"/><line class="cls-11" x1="492" y1="59.86" x2="492" y2="459.86"/><line class="cls-11" x1="496" y1="59.86" x2="496" y2="459.86"/><line class="cls-11" x1="500" y1="59.86" x2="500" y2="459.86"/><line class="cls-11" x1="504" y1="59.86" x2="504" y2="459.86"/><line class="cls-11" x1="508" y1="59.86" x2="508" y2="459.86"/><line class="cls-11" x1="512" y1="59.86" x2="512" y2="459.86"/><line class="cls-11" x1="516" y1="59.86" x2="516" y2="459.86"/><line class="cls-11" x1="520" y1="59.86" x2="520" y2="459.86"/><line class="cls-11" x1="524" y1="59.86" x2="524" y2="459.86"/><line class="cls-11" x1="528" y1="59.86" x2="528" y2="459.86"/><line class="cls-11" x1="532" y1="59.86" x2="532" y2="459.86"/><line class="cls-11" x1="536" y1="59.86" x2="536" y2="459.86"/><line class="cls-11" x1="540" y1="59.86" x2="540" y2="459.86"/><line class="cls-11" x1="544" y1="59.86" x2="544" y2="459.86"/><line class="cls-11" x1="548" y1="59.86" x2="548" y2="459.86"/><line class="cls-11" x1="552" y1="59.86" x2="552" y2="459.86"/><line class="cls-11" x1="556" y1="59.86" x2="556" y2="459.86"/><line class="cls-11" x1="560" y1="59.86" x2="560" y2="459.86"/><line class="cls-11" x1="564" y1="59.86" x2="564" y2="459.86"/><line class="cls-11" x1="568" y1="59.86" x2="568" y2="459.86"/><line class="cls-11" x1="572" y1="59.86" x2="572" y2="459.86"/><line class="cls-11" x1="576" y1="59.86" x2="576" y2="459.86"/><line class="cls-11" x1="580" y1="59.86" x2="580" y2="459.86"/><line class="cls-11" x1="584" y1="59.86" x2="584" y2="459.86"/><line class="cls-11" x1="588" y1="59.86" x2="588" y2="459.86"/><line class="cls-11" x1="592" y1="59.86" x2="592" y2="459.86"/><line class="cls-11" x1="596" y1="59.86" x2="596" y2="459.86"/><line class="cls-11" x1="600" y1="59.86" x2="600" y2="459.86"/><line class="cls-11" x1="604" y1="59.86" x2="604" y2="459.86"/><line class="cls-11" x1="608" y1="59.86" x2="608" y2="459.86"/><line class="cls-11" x1="612" y1="59.86" x2="612" y2="459.86"/><line class="cls-11" x1="616" y1="59.86" x2="616" y2="459.86"/><line class="cls-11" x1="620" y1="59.86" x2="620" y2="459.86"/><line class="cls-11" x1="624" y1="59.86" x2="624" y2="459.86"/><line class="cls-11" x1="628" y1="59.86" x2="628" y2="459.86"/><line class="cls-11" x1="632" y1="59.86" x2="632" y2="459.86"/><line class="cls-11" x1="636" y1="59.86" x2="636" y2="459.86"/><line class="cls-11" x1="640" y1="59.86" x2="640" y2="459.86"/><line class="cls-11" x1="644" y1="59.86" x2="644" y2="459.86"/><line class="cls-11" x1="648" y1="59.86" x2="648" y2="459.86"/><line class="cls-11" x1="652" y1="59.86" x2="652" y2="459.86"/><line class="cls-11" x1="656" y1="59.86" x2="656" y2="459.86"/><line class="cls-11" x1="660" y1="59.86" x2="660" y2="459.86"/><line class="cls-11" x1="664" y1="63.86" x2="264" y2="63.86"/><line class="cls-11" x1="664" y1="67.86" x2="264" y2="67.86"/><line class="cls-11" x1="664" y1="71.86" x2="264" y2="71.86"/><line class="cls-11" x1="664" y1="75.86" x2="264" y2="75.86"/><line class="cls-11" x1="664" y1="79.86" x2="264" y2="79.86"/><line class="cls-11" x1="664" y1="83.86" x2="264" y2="83.86"/><line class="cls-11" x1="664" y1="87.86" x2="264" y2="87.86"/><line class="cls-11" x1="664" y1="91.86" x2="264" y2="91.86"/><line class="cls-11" x1="664" y1="95.86" x2="264" y2="95.86"/><line class="cls-11" x1="664" y1="99.86" x2="264" y2="99.86"/><line class="cls-11" x1="664" y1="103.86" x2="264" y2="103.86"/><line class="cls-11" x1="664" y1="107.86" x2="264" y2="107.86"/><line class="cls-11" x1="664" y1="111.86" x2="264" y2="111.86"/><line class="cls-11" x1="664" y1="115.86" x2="264" y2="115.86"/><line class="cls-11" x1="664" y1="119.86" x2="264" y2="119.86"/><line class="cls-11" x1="664" y1="123.86" x2="264" y2="123.86"/><line class="cls-11" x1="664" y1="127.86" x2="264" y2="127.86"/><line class="cls-11" x1="664" y1="131.86" x2="264" y2="131.86"/><line class="cls-11" x1="664" y1="135.86" x2="264" y2="135.86"/><line class="cls-11" x1="664" y1="139.86" x2="264" y2="139.86"/><line class="cls-11" x1="664" y1="143.86" x2="264" y2="143.86"/><line class="cls-11" x1="664" y1="147.86" x2="264" y2="147.86"/><line class="cls-11" x1="664" y1="151.86" x2="264" y2="151.86"/><line class="cls-11" x1="664" y1="155.86" x2="264" y2="155.86"/><line class="cls-11" x1="664" y1="159.86" x2="264" y2="159.86"/><line class="cls-11" x1="664" y1="163.86" x2="264" y2="163.86"/><line class="cls-11" x1="664" y1="167.86" x2="264" y2="167.86"/><line class="cls-11" x1="664" y1="171.86" x2="264" y2="171.86"/><line class="cls-11" x1="664" y1="175.86" x2="264" y2="175.86"/><line class="cls-11" x1="664" y1="179.86" x2="264" y2="179.86"/><line class="cls-11" x1="664" y1="183.86" x2="264" y2="183.86"/><line class="cls-11" x1="664" y1="187.86" x2="264" y2="187.86"/><line class="cls-11" x1="664" y1="191.86" x2="264" y2="191.86"/><line class="cls-11" x1="664" y1="195.86" x2="264" y2="195.86"/><line class="cls-11" x1="664" y1="199.86" x2="264" y2="199.86"/><line class="cls-11" x1="664" y1="203.86" x2="264" y2="203.86"/><line class="cls-11" x1="664" y1="207.86" x2="264" y2="207.86"/><line class="cls-11" x1="664" y1="211.86" x2="264" y2="211.86"/><line class="cls-11" x1="664" y1="215.86" x2="264" y2="215.86"/><line class="cls-11" x1="664" y1="219.86" x2="264" y2="219.86"/><line class="cls-11" x1="664" y1="223.86" x2="264" y2="223.86"/><line class="cls-11" x1="664" y1="227.86" x2="264" y2="227.86"/><line class="cls-11" x1="664" y1="231.86" x2="264" y2="231.86"/><line class="cls-11" x1="664" y1="235.86" x2="264" y2="235.86"/><line class="cls-11" x1="664" y1="239.86" x2="264" y2="239.86"/><line class="cls-11" x1="664" y1="243.86" x2="264" y2="243.86"/><line class="cls-11" x1="664" y1="247.86" x2="264" y2="247.86"/><line class="cls-11" x1="664" y1="251.86" x2="264" y2="251.86"/><line class="cls-11" x1="664" y1="255.86" x2="264" y2="255.86"/><line class="cls-11" x1="664" y1="263.86" x2="264" y2="263.86"/><line class="cls-11" x1="664" y1="259.86" x2="264" y2="259.86"/><line class="cls-11" x1="664" y1="267.86" x2="264" y2="267.86"/><line class="cls-11" x1="664" y1="271.86" x2="264" y2="271.86"/><line class="cls-11" x1="664" y1="275.86" x2="264" y2="275.86"/><line class="cls-11" x1="664" y1="279.86" x2="264" y2="279.86"/><line class="cls-11" x1="664" y1="283.86" x2="264" y2="283.86"/><line class="cls-11" x1="664" y1="287.86" x2="264" y2="287.86"/><line class="cls-11" x1="664" y1="291.86" x2="264" y2="291.86"/><line class="cls-11" x1="664" y1="295.86" x2="264" y2="295.86"/><line class="cls-11" x1="664" y1="299.86" x2="264" y2="299.86"/><line class="cls-11" x1="664" y1="303.86" x2="264" y2="303.86"/><line class="cls-11" x1="664" y1="307.86" x2="264" y2="307.86"/><line class="cls-11" x1="664" y1="311.86" x2="264" y2="311.86"/><line class="cls-11" x1="664" y1="315.86" x2="264" y2="315.86"/><line class="cls-11" x1="664" y1="319.86" x2="264" y2="319.86"/><line class="cls-11" x1="664" y1="323.86" x2="264" y2="323.86"/><line class="cls-11" x1="664" y1="327.86" x2="264" y2="327.86"/><line class="cls-11" x1="664" y1="331.86" x2="264" y2="331.86"/><line class="cls-11" x1="664" y1="335.86" x2="264" y2="335.86"/><line class="cls-11" x1="664" y1="339.86" x2="264" y2="339.86"/><line class="cls-11" x1="664" y1="343.86" x2="264" y2="343.86"/><line class="cls-11" x1="664" y1="347.86" x2="264" y2="347.86"/><line class="cls-11" x1="664" y1="351.86" x2="264" y2="351.86"/><line class="cls-11" x1="664" y1="355.86" x2="264" y2="355.86"/><line class="cls-11" x1="664" y1="359.86" x2="264" y2="359.86"/><line class="cls-11" x1="664" y1="363.86" x2="264" y2="363.86"/><line class="cls-11" x1="664" y1="367.86" x2="264" y2="367.86"/><line class="cls-11" x1="664" y1="371.86" x2="264" y2="371.86"/><line class="cls-11" x1="664" y1="375.86" x2="264" y2="375.86"/><line class="cls-11" x1="664" y1="379.86" x2="264" y2="379.86"/><line class="cls-11" x1="664" y1="383.86" x2="264" y2="383.86"/><line class="cls-11" x1="664" y1="387.86" x2="264" y2="387.86"/><line class="cls-11" x1="664" y1="391.86" x2="264" y2="391.86"/><line class="cls-11" x1="664" y1="395.86" x2="264" y2="395.86"/><line class="cls-11" x1="664" y1="399.86" x2="264" y2="399.86"/><line class="cls-11" x1="664" y1="403.86" x2="264" y2="403.86"/><line class="cls-11" x1="664" y1="407.86" x2="264" y2="407.86"/><line class="cls-11" x1="664" y1="411.86" x2="264" y2="411.86"/><line class="cls-11" x1="664" y1="415.86" x2="264" y2="415.86"/><line class="cls-11" x1="664" y1="419.86" x2="264" y2="419.86"/><line class="cls-11" x1="664" y1="423.86" x2="264" y2="423.86"/><line class="cls-11" x1="664" y1="427.86" x2="264" y2="427.86"/><line class="cls-11" x1="664" y1="431.86" x2="264" y2="431.86"/><line class="cls-11" x1="664" y1="435.86" x2="264" y2="435.86"/><line class="cls-11" x1="664" y1="439.86" x2="264" y2="439.86"/><line class="cls-11" x1="664" y1="443.86" x2="264" y2="443.86"/><line class="cls-11" x1="664" y1="447.86" x2="264" y2="447.86"/><line class="cls-11" x1="664" y1="451.86" x2="264" y2="451.86"/><line class="cls-11" x1="664" y1="455.86" x2="264" y2="455.86"/></g></g></g></svg>