<?xml version="1.0" encoding="UTF-8"?>
<svg width="288px" height="288px" viewBox="0 0 288 288" version="1.1" xmlns="http://www.w3.org/2000/svg" xmlns:xlink="http://www.w3.org/1999/xlink">
    <!-- Generator: Sketch 51.3 (57544) - http://www.bohemiancoding.com/sketch -->
    <title>Group 14</title>
    <desc>Created with Sketch.</desc>
    <defs>
        <path d="M21.6452206,4.32904412 C27.6223832,4.32904412 32.4678309,9.17449179 32.4678309,15.1516544 C32.4678309,21.128817 27.6223832,25.9742647 21.6452206,25.9742647 C15.668058,25.9742647 10.8226103,21.128817 10.8226103,15.1516544 C10.8294094,9.17731035 15.6708765,4.33584325 21.6452206,4.32904412 Z M21.6452206,0 C13.2771929,0 6.49356618,6.78362675 6.49356618,15.1516544 C6.49356618,23.5196821 13.2771929,30.3033088 21.6452206,30.3033088 C30.0132483,30.3033088 36.796875,23.5196821 36.796875,15.1516544 C36.796875,6.78362675 30.0132483,4.80620445e-15 21.6452206,0 Z M38.8474361,39.075358 C36.1062417,36.3341636 32.3207733,34.6372433 28.1387868,34.6323529 L26.7415709,34.6323529 L26.7415709,38.9613971 L28.1387868,38.9613971 C34.1130321,38.9684342 38.9543599,43.809762 38.9613971,49.7840074 L38.9613971,51.304653 L43.2904412,51.304653 L43.2904412,49.7840074 C43.2855509,45.6020208 41.5886305,41.8165524 38.8474361,39.075358 C41.5886305,41.8165524 43.2855509,45.6020208 43.2904412,49.7840074 L43.2904412,60.6066176 L38.9613971,60.6066176 L38.9613971,49.7840074 C38.9543599,43.809762 34.1130321,38.9684342 28.1387868,38.9613971 L15.1516544,38.9613971 C9.17740911,38.9684342 4.33608128,43.809762 4.32904412,49.7840074 L4.32904412,60.6066176 L0,60.6066176 L0,49.7840074 C0.0097806211,41.4200343 6.78768136,34.6421336 15.1516544,34.6323529 L28.1387868,34.6323529 C32.3207733,34.6372433 36.1062417,36.3341636 38.8474361,39.075358 Z" id="path-1"></path>
        <path d="M23.8097426,47.7798203 C10.6599849,47.7798203 9.61240891e-16,37.1198354 0,23.9700776 C-1.92248178e-15,10.8203199 10.6599849,0.160334967 23.8097426,0.160334967 C25.0051752,0.160334967 25.9742647,1.1294245 25.9742647,2.32485703 L25.9742647,21.8055556 L45.4549632,21.8055556 C46.6503958,21.8055556 47.6194853,22.7746451 47.6194853,23.9700776 C47.6046938,37.1137037 36.9533687,47.7650288 23.8097426,47.7798203 Z M21.6452206,4.6088607 C11.5103369,5.74265731 3.9651341,14.5009816 4.34376219,24.6920563 C4.72239028,34.883131 12.8966893,43.05743 23.087764,43.4360581 C33.2788387,43.8146862 42.0371629,36.2694834 43.1709596,26.1345997 L23.8097426,26.1345997 C22.6143101,26.1345997 21.6452206,25.1655101 21.6452206,23.9700776 L21.6452206,4.6088607 Z" id="path-3"></path>
        <path d="M36.796875,-12.7273889 L36.796875,8.8184232 L58.3426871,8.8184232 C58.4076739,9.53132095 58.4412745,10.2532927 58.4420956,10.9829453 C58.4420956,11.5570122 58.2140484,12.1075669 57.8081218,12.5134935 C57.4021951,12.9194201 56.8516405,13.1474673 56.2775735,13.1474673 L34.6323529,13.1474673 C33.4369204,13.1474673 32.4678309,12.1783778 32.4678309,10.9829453 L32.4678309,-10.6622753 C32.4678309,-11.8577079 33.4369204,-12.8267974 34.6323529,-12.8267974 C35.3620055,-12.8259763 36.0839773,-12.7923757 36.796875,-12.7273889 Z" id="path-5"></path>
    </defs>
    <g id="Page-1" stroke="none" stroke-width="1" fill="none" fill-rule="evenodd">
        <g id="Typography_Mobile_320px-Copy-5" transform="translate(-16.000000, -8287.000000)">
            <g id="Group-14" transform="translate(16.000000, 8287.000000)">
                <g id="Group-9">
                    <rect id="Rectangle-3-Copy-3" fill="#FFFFFF" x="0" y="0" width="288" height="288"></rect>
                    <g id="Group-10" transform="translate(84.000000, 244.000000)" fill="#6F6F6F">
                        <path d="M3.062,9.144 C1.322,9.144 0.254,7.92 0.254,5.928 C0.254,3.444 1.898,1.5 3.242,0.624 L4.538,0.624 C2.75,1.932 1.754,3.024 1.298,4.968 L1.358,4.992 C1.754,4.308 2.354,3.792 3.374,3.792 C4.814,3.792 5.846,4.788 5.846,6.372 C5.846,8.016 4.742,9.144 3.062,9.144 Z M3.05,8.268 C4.154,8.268 4.802,7.632 4.802,6.504 L4.802,6.408 C4.802,5.28 4.154,4.644 3.05,4.644 C1.946,4.644 1.298,5.28 1.298,6.408 L1.298,6.504 C1.298,7.632 1.946,8.268 3.05,8.268 Z M7.67,11.4 L7.67,2.808 L8.63,2.808 L8.63,3.816 L8.678,3.816 C9.002,3.036 9.638,2.664 10.49,2.664 C12.038,2.664 13.01,3.924 13.01,5.904 C13.01,7.884 12.038,9.144 10.49,9.144 C9.638,9.144 9.05,8.76 8.678,7.992 L8.63,7.992 L8.63,11.4 L7.67,11.4 Z M10.226,8.28 C11.306,8.28 11.978,7.536 11.978,6.432 L11.978,5.376 C11.978,4.272 11.306,3.528 10.226,3.528 C9.35,3.528 8.63,4.032 8.63,4.716 L8.63,7.02 C8.63,7.824 9.35,8.28 10.226,8.28 Z M13.718,9 L16.01,5.88 L13.814,2.808 L14.942,2.808 L16.514,5.112 L16.55,5.112 L18.182,2.808 L19.25,2.808 L17.066,5.808 L19.298,9 L18.17,9 L16.562,6.576 L16.526,6.576 L14.786,9 L13.718,9 Z" id="6px"></path>
                        <path d="M88.228,9 L87.22,9 L87.22,0.624 L92.212,0.624 L92.212,1.512 L88.228,1.512 L88.228,4.32 L91.864,4.32 L91.864,5.208 L88.228,5.208 L88.228,9 Z M97.348,9 L97.348,7.992 L97.3,7.992 C97.06,8.58 96.592,9.144 95.56,9.144 C94.288,9.144 93.472,8.28 93.472,6.78 L93.472,2.808 L94.432,2.808 L94.432,6.612 C94.432,7.716 94.924,8.28 95.848,8.28 C96.604,8.28 97.348,7.908 97.348,7.092 L97.348,2.808 L98.308,2.808 L98.308,9 L97.348,9 Z M102.22,9 L101.368,9 C100.708,9 100.348,8.58 100.348,8.004 L100.348,0.12 L101.308,0.12 L101.308,8.16 L102.22,8.16 L102.22,9 Z M105.424,9 L104.572,9 C103.912,9 103.552,8.58 103.552,8.004 L103.552,0.12 L104.512,0.12 L104.512,8.16 L105.424,8.16 L105.424,9 Z M111.952,9.144 C110.212,9.144 109.192,7.884 109.192,5.904 C109.192,3.924 110.212,2.664 111.952,2.664 C113.176,2.664 113.908,3.264 114.268,4.116 L113.464,4.524 C113.236,3.888 112.708,3.516 111.952,3.516 C110.812,3.516 110.224,4.296 110.224,5.376 L110.224,6.432 C110.224,7.512 110.812,8.292 111.952,8.292 C112.732,8.292 113.296,7.92 113.632,7.212 L114.328,7.68 C113.932,8.568 113.128,9.144 111.952,9.144 Z M116.164,1.356 C115.756,1.356 115.576,1.14 115.576,0.816 L115.576,0.66 C115.576,0.336 115.756,0.12 116.164,0.12 C116.572,0.12 116.752,0.336 116.752,0.66 L116.752,0.816 C116.752,1.14 116.572,1.356 116.164,1.356 Z M115.684,9 L115.684,2.808 L116.644,2.808 L116.644,9 L115.684,9 Z M119.644,9 L118.684,9 L118.684,2.808 L119.644,2.808 L119.644,3.948 L119.704,3.948 C119.92,3.36 120.484,2.808 121.492,2.808 L121.864,2.808 L121.864,3.768 L121.3,3.768 C120.268,3.768 119.644,4.212 119.644,4.8 L119.644,9 Z M125.332,9.144 C123.592,9.144 122.572,7.884 122.572,5.904 C122.572,3.924 123.592,2.664 125.332,2.664 C126.556,2.664 127.288,3.264 127.648,4.116 L126.844,4.524 C126.616,3.888 126.088,3.516 125.332,3.516 C124.192,3.516 123.604,4.296 123.604,5.376 L123.604,6.432 C123.604,7.512 124.192,8.292 125.332,8.292 C126.112,8.292 126.676,7.92 127.012,7.212 L127.708,7.68 C127.312,8.568 126.508,9.144 125.332,9.144 Z M130.936,9 L130.084,9 C129.424,9 129.064,8.58 129.064,8.004 L129.064,0.12 L130.024,0.12 L130.024,8.16 L130.936,8.16 L130.936,9 Z M134.656,9.144 C132.976,9.144 131.872,7.872 131.872,5.904 C131.872,3.936 132.976,2.664 134.656,2.664 C136.312,2.664 137.332,3.936 137.332,5.688 L137.332,6.144 L132.88,6.144 L132.88,6.432 C132.88,7.5 133.564,8.304 134.716,8.304 C135.496,8.304 136.096,7.92 136.42,7.236 L137.104,7.728 C136.708,8.568 135.82,9.144 134.656,9.144 Z M134.656,3.468 C133.612,3.468 132.88,4.26 132.88,5.34 L132.88,5.424 L136.3,5.424 L136.3,5.292 C136.3,4.2 135.64,3.468 134.656,3.468 Z" id="Full-circle"></path>
                    </g>
                </g>
                <g id="Group-11" transform="translate(66.000000, 58.000000)">
                    <g id="Group" transform="translate(4.104575, 95.431373)">
                        <g id="user" transform="translate(0.160335, 0.224469)">
                            <mask id="mask-2" fill="white">
                                <use xlink:href="#path-1"></use>
                            </mask>
                            <use id="Mask" fill="#000000" fill-rule="nonzero" xlink:href="#path-1"></use>
                        </g>
                        <path d="M43.4507761,51.5291219 L39.121732,51.5291219 L39.121732,50.0084763 C39.1146949,44.034231 34.273367,39.1929032 28.2991217,39.185866 L26.9019058,39.185866 L26.9019058,34.8568219 L28.2991217,34.8568219 C36.6630948,34.8666025 43.4409955,41.6445033 43.4507761,50.0084763 L43.4507761,51.5291219 Z" id="Shape" fill="#97C1FF" fill-rule="nonzero"></path>
                    </g>
                    <g id="icon/navigation/down-to-bottom/24-copy-13" transform="translate(97.996732, 95.431373)">
                        <g id="diagram" transform="translate(0.224469, 13.051266)">
                            <mask id="mask-4" fill="white">
                                <use xlink:href="#path-3"></use>
                            </mask>
                            <use id="Mask" fill="#000000" fill-rule="nonzero" xlink:href="#path-3"></use>
                            <mask id="mask-6" fill="white">
                                <use xlink:href="#path-5"></use>
                            </mask>
                            <use id="Mask" fill="#000000" fill-rule="nonzero" xlink:href="#path-5"></use>
                        </g>
                        <path d="M54.2180208,21.8749818 C53.5470565,16.8889402 51.6332877,13.4061128 48.8016112,10.4628587 C46.8322469,8.41589475 43.1214945,5.45768329 37.0110725,4.67489165 L36.9969516,0.32166642 C48.4134,1.3506088 57.5082034,10.4280224 58.5641229,21.8366684 C58.5663371,21.8607723 57.1176364,21.8735434 54.2180208,21.8749818 Z" id="Shape" fill="#97C1FF" fill-rule="nonzero"></path>
                    </g>
                    <path d="M12.9587197,2.160128 C6.9948222,2.160128 2.160128,6.9948222 2.160128,12.9587197 L2.160128,39.0283758 C2.160128,44.9922733 6.9948222,49.8269675 12.9587197,49.8269675 L39.0308564,49.8269675 C44.9947539,49.8269675 49.8294481,44.9922733 49.8294481,39.0283758 L49.8294481,12.9587197 C49.8294481,6.9948222 44.9947539,2.160128 39.0308564,2.160128 L12.9587197,2.160128 Z" id="Rectangle-7" stroke="#97C1FF" stroke-width="4.320256" opacity="0.600000024"></path>
                    <path d="M128.607927,2.160128 C115.445093,2.160128 104.774507,12.8307135 104.774507,25.9935478 C104.774507,39.156382 115.445093,49.8269675 128.607927,49.8269675 C141.770761,49.8269675 152.441347,39.156382 152.441347,25.9935478 C152.441347,12.8307135 141.770761,2.160128 128.607927,2.160128 Z" id="Rectangle-7" stroke="#97C1FF" stroke-width="4.320256" opacity="0.600000024"></path>
                </g>
            </g>
        </g>
    </g>
</svg>