<svg id="a9169968-bf3a-4829-96e9-ec3633d303cf" data-name="Layer 1" xmlns="http://www.w3.org/2000/svg" xmlns:xlink="http://www.w3.org/1999/xlink" viewBox="0 0 448 448">
  <defs>
    <linearGradient id="ba667739-19e4-4710-9ab1-4b0dde3cca7f" x1="238.833" y1="249.187" x2="238.833" y2="197.281" gradientUnits="userSpaceOnUse">
      <stop offset="0.48" stop-color="#fff"/>
      <stop offset="0.75" stop-color="#fff" stop-opacity="0"/>
    </linearGradient>
    <linearGradient id="e1f09cea-c1a7-45be-a924-1451ba85ca42" x1="-9579.166" y1="-4501.519" x2="-9579.166" y2="-4449.613" gradientTransform="translate(-9369.999 -4271) rotate(180)" gradientUnits="userSpaceOnUse">
      <stop offset="0.25" stop-color="#fff" stop-opacity="0"/>
      <stop offset="0.52" stop-color="#fff"/>
    </linearGradient>
    <mask id="fc5ee667-856f-467f-97d3-c0e5cb42858a" x="186.015" y="175.915" width="75.97" height="75.97" maskUnits="userSpaceOnUse">
      <path d="M225.2,249.187l-2.392-4.1,27.31-15.931V197.281h4.748v33.237a2.376,2.376,0,0,1-1.177,2.051Z" fill="url(#ba667739-19e4-4710-9ab1-4b0dde3cca7f)"/>
      <path d="M197.885,230.518h-4.748V197.281a2.375,2.375,0,0,1,1.178-2.05l28.489-16.619,2.392,4.1-27.311,15.931Z" fill="url(#e1f09cea-c1a7-45be-a924-1451ba85ca42)"/>
      <rect x="193.138" y="218.648" width="4.748" height="4.748" fill="#fff"/>
      <rect x="202.634" y="209.152" width="4.748" height="4.748" fill="#fff"/>
      <rect x="240.619" y="213.9" width="4.748" height="4.748" fill="#fff"/>
      <rect x="250.115" y="204.404" width="4.748" height="4.748" fill="#fff"/>
      <rect x="240.619" y="194.907" width="4.748" height="4.748" fill="#fff"/>
      <rect x="250.115" y="185.411" width="4.748" height="4.748" fill="#fff"/>
      <rect x="231.123" y="185.411" width="4.748" height="4.748" fill="#fff"/>
      <rect x="202.634" y="228.144" width="4.748" height="4.748" fill="#fff"/>
      <rect x="212.13" y="237.64" width="4.748" height="4.748" fill="#fff"/>
      <rect x="193.138" y="237.64" width="4.748" height="4.748" fill="#fff"/>
    </mask>
    <linearGradient id="e7d2e54e-9c6e-45f0-9eba-b02aba82c4bc" x1="186.015" y1="251.885" x2="261.985" y2="175.915" gradientUnits="userSpaceOnUse">
      <stop offset="0.1" stop-color="#be95ff"/>
      <stop offset="0.9" stop-color="#4589ff"/>
    </linearGradient>
  </defs>
  <rect width="448" height="448" fill="#fff"/>
  <rect x="32" y="105.9" width="384" height="216"/>
  <g>
    <path d="M90.223,334.881l-.574.484a3.749,3.749,0,0,1-.109,4.961l.552.525a4.5,4.5,0,0,0,.131-5.955Z" fill="#6f6f6f"/>
    <path d="M88.131,336.351a2.251,2.251,0,0,1-.068,2.978l.551.51a3,3,0,0,0,.087-3.972Z" fill="#6f6f6f"/>
    <path d="M86.788,343.1a.375.375,0,0,1-.266-.112L83.664,340.1h-2.5a.375.375,0,0,1-.375-.375h0v-3.75a.375.375,0,0,1,.375-.375h2.5l2.858-2.887a.377.377,0,0,1,.641.262v9.75A.375.375,0,0,1,86.788,343.1Z" fill="#6f6f6f"/>
    <path d="M36.519,334.1h-.75a.75.75,0,0,0-.75.75v6a.75.75,0,0,0,.75.75h.75a.75.75,0,0,0,.75-.75v-6a.75.75,0,0,0-.75-.75Z" fill="#6f6f6f"/>
    <path d="M40.269,334.1h-.75a.75.75,0,0,0-.75.75v6a.75.75,0,0,0,.75.75h.75a.75.75,0,0,0,.75-.75v-6a.75.75,0,0,0-.75-.75Z" fill="#6f6f6f"/>
    <path d="M57.9,342.351a.381.381,0,0,1-.188-.05.375.375,0,0,1-.187-.325v-8.25a.374.374,0,0,1,.562-.324l7.125,4.125a.374.374,0,0,1,0,.648L58.091,342.3A.371.371,0,0,1,57.9,342.351Z" fill="#6f6f6f"/>
    <rect x="66.528" y="333.351" width="0.75" height="9" fill="#6f6f6f"/>
    <polygon points="412.25 337.851 413 337.851 413 334.851 410 334.851 410 335.601 412.25 335.601 412.25 337.851" fill="#6f6f6f"/>
    <polygon points="407 340.851 410 340.851 410 340.101 407.75 340.101 407.75 337.851 407 337.851 407 340.851" fill="#6f6f6f"/>
    <path d="M413.75,342.351h-7.5a.75.75,0,0,1-.75-.75v-7.5a.751.751,0,0,1,.75-.75h7.5a.751.751,0,0,1,.75.75v7.5A.75.75,0,0,1,413.75,342.351Zm-7.5-8.25v7.5h7.5v-7.5Z" fill="#6f6f6f"/>
  </g>
  <rect x="32" y="323.901" width="384" height="2" fill="#e0e0e0"/>
  <rect x="32" y="321.9" width="384" height="1" fill="#fff"/>
  <rect x="32" y="323.901" width="371.902" height="2" fill="#0f62fe"/>
  <g>
    <g mask="url(#fc5ee667-856f-467f-97d3-c0e5cb42858a)">
      <rect x="186.015" y="175.915" width="75.97" height="75.97" fill="url(#e7d2e54e-9c6e-45f0-9eba-b02aba82c4bc)"/>
    </g>
    <path d="M231.122,197.281H216.878a4.754,4.754,0,0,0-4.748,4.749v23.74a4.754,4.754,0,0,0,4.748,4.748h14.244a4.754,4.754,0,0,0,4.748-4.748V202.03A4.754,4.754,0,0,0,231.122,197.281Zm0,4.749v4.748H216.878V202.03Zm0,9.5v4.748H216.878v-4.748ZM216.878,225.77v-4.748h14.246v4.748Z" fill="#f4f4f4"/>
  </g>
</svg>
