<svg xmlns="http://www.w3.org/2000/svg" viewBox="0 0 288 288"><g fill="none" fill-rule="evenodd"><path fill="#FFF" d="M0 0h288v288H0z"/><path d="M54.544 138.288c-4.392 0-7.296-3-7.296-8.664s2.904-8.664 7.296-8.664c4.416 0 7.296 3 7.296 8.664s-2.88 8.664-7.296 8.664zm0-2.808c2.4 0 3.936-1.704 3.936-4.56v-2.592c0-2.856-1.536-4.56-3.936-4.56s-3.936 1.704-3.936 4.56v2.592c0 2.856 1.536 4.56 3.936 4.56zm15.288 2.808c-3.576 0-5.808-2.544-5.808-6.576 0-4.008 2.232-6.528 5.808-6.528 3.6 0 5.832 2.52 5.832 6.528 0 4.032-2.232 6.576-5.832 6.576zm0-2.472c1.608 0 2.616-1.032 2.616-2.928v-2.328c0-1.872-1.008-2.904-2.616-2.904-1.584 0-2.592 1.032-2.592 2.904v2.328c0 1.896 1.008 2.928 2.592 2.928zm8.544 6.984v-17.328h3.072v2.064h.096c.456-1.44 1.8-2.352 3.456-2.352 3.168 0 4.92 2.352 4.92 6.528 0 4.2-1.752 6.576-4.92 6.576-1.656 0-2.976-.96-3.456-2.376h-.096v6.888h-3.072zm5.64-7.056c1.584 0 2.688-1.152 2.688-2.928v-2.16c0-1.776-1.104-2.952-2.688-2.952-1.464 0-2.568.792-2.568 2.016v3.984c0 1.296 1.104 2.04 2.568 2.04zm12.864 2.544c-2.376 0-3.936-.864-5.184-2.304l1.872-1.824c.912 1.056 2.016 1.704 3.432 1.704 1.464 0 2.088-.552 2.088-1.44 0-.72-.432-1.176-1.536-1.32l-1.248-.168c-2.688-.336-4.176-1.512-4.176-3.792 0-2.424 1.896-3.96 4.752-3.96 2.448 0 3.696.72 4.896 1.968l-1.8 1.8c-.72-.768-1.776-1.344-3-1.344-1.32 0-1.896.528-1.896 1.296 0 .84.456 1.224 1.632 1.416l1.272.168c2.736.384 4.056 1.608 4.056 3.696 0 2.424-2.04 4.104-5.16 4.104zm10.512-5.328h-1.344l-.984-6.984v-4.728h3.264v4.728l-.936 6.984zm-.696 5.328c-1.368 0-1.944-.72-1.944-1.704v-.48c0-.984.576-1.704 1.944-1.704 1.344 0 1.92.72 1.92 1.704v.48c0 .984-.576 1.704-1.92 1.704zm-53.76 30c-2.688 0-4.584-1.104-5.928-2.928l1.488-1.248c1.176 1.56 2.568 2.4 4.512 2.4 2.4 0 3.696-1.248 3.696-3.168 0-1.584-.888-2.376-3.096-2.88l-1.368-.312c-3.048-.696-4.728-2.04-4.728-4.608 0-2.976 2.256-4.584 5.544-4.584 2.52 0 4.296.96 5.544 2.736l-1.512 1.104c-.912-1.272-2.184-2.064-4.128-2.064-2.136 0-3.456.936-3.456 2.736 0 1.584 1.032 2.304 3.144 2.784l1.368.312c3.264.744 4.68 2.184 4.68 4.68 0 3.072-2.16 5.04-5.76 5.04zm13.728 0c-3.312 0-5.592-2.544-5.592-6.48 0-3.936 2.28-6.48 5.592-6.48s5.592 2.544 5.592 6.48c0 3.936-2.28 6.48-5.592 6.48zm0-1.704c2.064 0 3.528-1.272 3.528-3.888v-1.776c0-2.616-1.464-3.888-3.528-3.888s-3.528 1.272-3.528 3.888v1.776c0 2.616 1.464 3.888 3.528 3.888zM77.344 168h-1.92v-12.384h1.92v2.016h.096c.552-1.272 1.416-2.304 3.336-2.304 1.632 0 3.12.744 3.792 2.52h.048c.456-1.344 1.656-2.52 3.768-2.52 2.52 0 4.032 1.728 4.032 4.728V168h-1.92v-7.608c0-2.184-.84-3.336-2.712-3.336-1.512 0-2.904.768-2.904 2.352V168h-1.92v-7.608c0-2.208-.84-3.336-2.664-3.336-1.512 0-2.952.768-2.952 2.352V168zm23.688.288c-3.36 0-5.568-2.544-5.568-6.48 0-3.936 2.208-6.48 5.568-6.48 3.312 0 5.352 2.544 5.352 6.048v.912H97.48v.576c0 2.136 1.368 3.744 3.672 3.744 1.56 0 2.76-.768 3.408-2.136l1.368.984c-.792 1.68-2.568 2.832-4.896 2.832zm0-11.352c-2.088 0-3.552 1.584-3.552 3.744v.168h6.84v-.264c0-2.184-1.32-3.648-3.288-3.648zM114.688 168h-2.4c-1.32 0-2.04-.84-2.04-2.04v-8.664h-2.04v-1.68h1.152c.816 0 1.08-.288 1.08-1.128v-2.304h1.728v3.432h2.712v1.68h-2.712v9.024h2.52V168zm3.288 0v-17.76h1.92v7.392h.096c.6-1.392 1.656-2.304 3.504-2.304 2.544 0 4.152 1.728 4.152 4.728V168h-1.92v-7.608c0-2.208-.96-3.336-2.808-3.336-1.536 0-3.024.768-3.024 2.352V168h-1.92zm14.592-15.288c-.816 0-1.176-.432-1.176-1.08v-.312c0-.648.36-1.08 1.176-1.08s1.176.432 1.176 1.08v.312c0 .648-.36 1.08-1.176 1.08zm-.96 15.288v-12.384h1.92V168h-1.92zm7.92 0h-1.92v-12.384h1.92v2.016h.096c.6-1.392 1.656-2.304 3.504-2.304 2.544 0 4.152 1.728 4.152 4.728V168h-1.92v-7.608c0-2.208-.96-3.336-2.808-3.336-1.536 0-3.024.768-3.024 2.352V168zm22.152 1.368c0 2.544-2.016 3.72-6 3.72-3.864 0-5.448-1.104-5.448-3.048 0-1.344.744-2.064 1.968-2.4v-.264c-.696-.336-1.104-.888-1.104-1.728 0-1.248.888-1.848 2.136-2.16v-.096c-1.464-.696-2.328-2.064-2.328-3.792 0-2.52 1.848-4.272 4.656-4.272.888 0 1.68.168 2.352.48v-.216c0-.96.408-1.656 1.44-1.656h1.848v1.68h-2.352v.792c.888.768 1.416 1.872 1.416 3.192 0 2.52-1.848 4.272-4.68 4.272-.408 0-.84-.048-1.2-.12-.816.216-1.632.624-1.632 1.392 0 .744.768.936 1.896.936h2.64c3.072 0 4.392 1.248 4.392 3.288zm-1.8.144c0-.984-.648-1.632-2.568-1.632h-4.128c-.792.36-1.152.912-1.152 1.68 0 1.08.744 1.968 2.688 1.968h1.776c2.136 0 3.384-.672 3.384-2.016zm-4.296-7.176c1.632 0 2.664-.768 2.664-2.4v-.672c0-1.632-1.032-2.4-2.664-2.4-1.632 0-2.664.768-2.664 2.4v.672c0 1.632 1.032 2.4 2.664 2.4zM171.592 168l-3.312-12.384h1.872l1.32 5.352 1.32 5.424h.048l1.512-5.424 1.56-5.352h1.704l1.608 5.352 1.536 5.424h.048l1.272-5.424 1.344-5.352h1.8L181.936 168h-2.376l-1.728-5.952-1.08-3.768h-.048l-1.056 3.768L173.92 168h-2.328zm18.336 0h-1.92v-12.384h1.92v2.28h.12c.432-1.176 1.56-2.28 3.576-2.28h.744v1.92h-1.128c-2.064 0-3.312.888-3.312 2.064v8.4zm11.448.288c-3.312 0-5.592-2.544-5.592-6.48 0-3.936 2.28-6.48 5.592-6.48s5.592 2.544 5.592 6.48c0 3.936-2.28 6.48-5.592 6.48zm0-1.704c2.064 0 3.528-1.272 3.528-3.888v-1.776c0-2.616-1.464-3.888-3.528-3.888s-3.528 1.272-3.528 3.888v1.776c0 2.616 1.464 3.888 3.528 3.888zm10.68 1.416h-1.92v-12.384h1.92v2.016h.096c.6-1.392 1.656-2.304 3.504-2.304 2.544 0 4.152 1.728 4.152 4.728V168h-1.92v-7.608c0-2.208-.96-3.336-2.808-3.336-1.536 0-3.024.768-3.024 2.352V168zm22.152 1.368c0 2.544-2.016 3.72-6 3.72-3.864 0-5.448-1.104-5.448-3.048 0-1.344.744-2.064 1.968-2.4v-.264c-.696-.336-1.104-.888-1.104-1.728 0-1.248.888-1.848 2.136-2.16v-.096c-1.464-.696-2.328-2.064-2.328-3.792 0-2.52 1.848-4.272 4.656-4.272.888 0 1.68.168 2.352.48v-.216c0-.96.408-1.656 1.44-1.656h1.848v1.68h-2.352v.792c.888.768 1.416 1.872 1.416 3.192 0 2.52-1.848 4.272-4.68 4.272-.408 0-.84-.048-1.2-.12-.816.216-1.632.624-1.632 1.392 0 .744.768.936 1.896.936h2.64c3.072 0 4.392 1.248 4.392 3.288zm-1.8.144c0-.984-.648-1.632-2.568-1.632h-4.128c-.792.36-1.152.912-1.152 1.68 0 1.08.744 1.968 2.688 1.968h1.776c2.136 0 3.384-.672 3.384-2.016zm-4.296-7.176c1.632 0 2.664-.768 2.664-2.4v-.672c0-1.632-1.032-2.4-2.664-2.4-1.632 0-2.664.768-2.664 2.4v.672c0 1.632 1.032 2.4 2.664 2.4zm9.864 5.952c-1.008 0-1.464-.576-1.464-1.392v-.312c0-.816.456-1.392 1.464-1.392s1.464.576 1.464 1.392v.312c0 .816-.456 1.392-1.464 1.392z" fill="#DB2663"/></g></svg>