<svg version="1.1" id="Layer_1" xmlns="http://www.w3.org/2000/svg" x="0" y="0" viewBox="0 0 288 288" xml:space="preserve"><style>.st1,.st2{fill:none;stroke:#565656;stroke-width:.6429;stroke-linecap:square}.st2{stroke:#3d3d3d}</style><g id="Group-36-Copy-5"><path id="Rectangle-3_1_" fill-rule="evenodd" clip-rule="evenodd" d="M0 0h288v288H0z"/></g><g id="Grid-02-Copy-7" transform="translate(88 88)"><g id="Group-4_1_" transform="translate(0 1.46)"><path id="Line_1_" class="st1" d="M-30-31.5v172.7"/><path class="st1" d="M-8.4-31.5v172.7M13.1-31.5v172.7M34.7-31.5v172.7M56.3-31.5v172.7M77.9-31.5v172.7M99.5-31.5v172.7m21.6-172.7v172.7m21.6-172.7v172.7"/></g><path class="st1" d="M-30 128.9v172.7m21.6-172.7v172.7m21.5-172.7v172.7m21.6-172.7v172.7m21.6-172.7v172.7m21.6-172.7v172.7m21.6-172.7v172.7m21.6-172.7v172.7m21.6-172.7v172.7" transform="rotate(90 135.77 135.77)"/></g><g id="Grid-02-Copy-10"><path class="st2" d="M-30-31.5v172.7M-8.4-31.5v172.7M13.1-31.5v172.7M34.7-31.5v172.7M56.3-31.5v172.7M77.9-31.5v172.7M99.5-31.5v172.7m21.6-172.7v172.7m21.6-172.7v172.7" transform="translate(88 89.46)"/><path class="st2" d="M-30 128.9v172.7m21.6-172.7v172.7m21.5-172.7v172.7m21.6-172.7v172.7m21.6-172.7v172.7m21.6-172.7v172.7m21.6-172.7v172.7m21.6-172.7v172.7m21.6-172.7v172.7" transform="rotate(90 135.77 223.77)"/></g><path d="M86.5 57.9h27.2c23.5 21 38.5 51.6 38.7 85.7v65.6h-16.1v-64.9c0-36.9-20-69.2-49.8-86.4z" fill="#fff" id="Mask_1_"/><path fill="#0062ff" d="M136.3 165.9h16.1v43.3h-16.1z"/></svg>