<svg xmlns="http://www.w3.org/2000/svg" xmlns:xlink="http://www.w3.org/1999/xlink" viewBox="0 0 448 448"><defs><style>.cls-1,.cls-4,.cls-5,.cls-6,.cls-7,.cls-8{fill:none}.cls-2{clip-path:url(#clip-path)}.cls-3{fill:#fff}.cls-4,.cls-5{stroke:#f4f4f4;stroke-linecap:round;stroke-miterlimit:10}.cls-5{stroke:#e0e0e0}.cls-6,.cls-7,.cls-8{stroke:#4589ff;stroke-linejoin:round}.cls-7,.cls-8{stroke:#ee5396}.cls-8{stroke-dasharray:8}</style><clipPath id="clip-path"><rect width="448" height="448" class="cls-1" transform="translate(448 448) rotate(-180)"/></clipPath></defs><g id="Layer_3" data-name="Layer 3"><g class="cls-2"><rect width="448" height="448" class="cls-3" transform="translate(448 448) rotate(-180)"/><line x1="448" x2="438.02" y1="5.76" class="cls-4"/><line x1="448" x2="424.02" y1="13.84" class="cls-4"/><line x1="448" x2="410.02" y1="21.93" class="cls-4"/><line x1="448" x2="396.02" y1="30.01" class="cls-4"/><line x1="448" x2="382.02" y1="38.09" class="cls-4"/><line x1="448" x2="368.02" y1="46.18" class="cls-4"/><line x1="354.02" x2="448" y2="54.26" class="cls-4"/><line x1="448" x2="326.02" y1="70.42" class="cls-4"/><line x1="448" x2="312.02" y1="78.51" class="cls-4"/><line x1="448" x2="298.02" y1="86.59" class="cls-4"/><line x1="448" x2="284.02" y1="94.67" class="cls-4"/><line x1="448" x2="270.02" y1="102.76" class="cls-4"/><line x1="448" x2="256.02" y1="110.84" class="cls-4"/><line x1="448" x2="242.02" y1="118.92" class="cls-4"/><line x1="448" x2="214.02" y1="135.09" class="cls-4"/><line x1="448" x2="200.02" y1="143.17" class="cls-4"/><line x1="186.02" x2="448" y2="151.25" class="cls-4"/><line x1="448" x2="172.02" y1="159.34" class="cls-4"/><line x1="448" x2="158.02" y1="167.42" class="cls-4"/><line x1="448" x2="144.02" y1="175.5" class="cls-4"/><line x1="448" x2="130.02" y1="183.59" class="cls-4"/><line x1="448" x2="102.02" y1="199.75" class="cls-4"/><line x1="448" x2="88.02" y1="207.83" class="cls-4"/><line x1="74.02" x2="448" y2="215.92" class="cls-4"/><line x1="448" x2="60.02" y1="224" class="cls-4"/><line x1="448" x2="46.02" y1="232.08" class="cls-4"/><line x1="448" x2="32.02" y1="240.17" class="cls-4"/><line x1="448" x2="18.02" y1="248.25" class="cls-4"/><line x1="448" y1="264.41" y2="5.76" class="cls-4"/><line x2="448" y1="13.84" y2="272.5" class="cls-4"/><line x1="448" y1="280.58" y2="21.93" class="cls-4"/><line x1="448" y1="288.66" y2="30.01" class="cls-4"/><line x1="448" y1="296.75" y2="38.09" class="cls-4"/><line x1="448" y1="304.83" y2="46.18" class="cls-4"/><line x2="448" y1="54.26" y2="312.91" class="cls-4"/><line x1="448" y1="329.08" y2="70.42" class="cls-4"/><line x2="448" y1="78.51" y2="337.16" class="cls-4"/><line x1="448" y1="345.24" y2="86.59" class="cls-4"/><line x1="448" y1="353.33" y2="94.67" class="cls-4"/><line x1="448" y1="361.41" y2="102.76" class="cls-4"/><line x1="448" y1="369.49" y2="110.84" class="cls-4"/><line x2="448" y1="118.92" y2="377.58" class="cls-4"/><line x2="448" y1="135.09" y2="393.74" class="cls-4"/><line x1="448" y1="401.82" y2="143.17" class="cls-4"/><line x1="448" y1="409.91" y2="151.25" class="cls-4"/><line x2="448" y1="159.34" y2="417.99" class="cls-4"/><line x1="448" y1="426.07" y2="167.42" class="cls-4"/><line x2="448" y1="175.5" y2="434.16" class="cls-4"/><line x1="448" y1="442.24" y2="183.59" class="cls-4"/><line x1="429.98" y1="448" y2="199.75" class="cls-4"/><line x1="415.98" y1="448" y2="207.83" class="cls-4"/><line x2="401.98" y1="215.92" y2="448" class="cls-4"/><line x1="387.98" y1="448" y2="224" class="cls-4"/><line x1="373.98" y1="448" y2="232.08" class="cls-4"/><line x1="359.98" y1="448" y2="240.17" class="cls-4"/><line x1="345.98" y1="448" y2="248.25" class="cls-4"/><line x1="317.98" y1="448" y2="264.41" class="cls-4"/><line x1="303.98" y1="448" y2="272.5" class="cls-4"/><line x2="289.98" y1="280.58" y2="448" class="cls-4"/><line x1="275.98" y1="448" y2="288.66" class="cls-4"/><line x2="261.98" y1="296.75" y2="448" class="cls-4"/><line x1="247.98" y1="448" y2="304.83" class="cls-4"/><line x1="233.98" y1="448" y2="312.91" class="cls-4"/><line x1="205.98" y1="448" y2="329.08" class="cls-4"/><line x1="191.98" y1="448" y2="337.16" class="cls-4"/><line x1="177.98" y1="448" y2="345.24" class="cls-4"/><line x1="163.98" y1="448" y2="353.33" class="cls-4"/><line x2="149.98" y1="361.41" y2="448" class="cls-4"/><line x1="135.98" y1="448" y2="369.49" class="cls-4"/><line x1="121.98" y1="448" y2="377.58" class="cls-4"/><line x1="93.98" y1="448" y2="393.74" class="cls-4"/><line x2="79.98" y1="401.82" y2="448" class="cls-4"/><line x1="65.98" y1="448" y2="409.91" class="cls-4"/><line x2="51.98" y1="417.99" y2="448" class="cls-4"/><line x1="37.98" y1="448" y2="426.07" class="cls-4"/><line x1="23.98" y1="448" y2="434.16" class="cls-4"/><line x2="9.98" y1="442.24" y2="448" class="cls-4"/><line x1="9.98" y2="5.76" class="cls-4"/><line x1="23.98" y2="13.84" class="cls-4"/><line x1="37.98" y2="21.93" class="cls-4"/><line x1="51.98" y2="30.01" class="cls-4"/><line x1="65.98" y2="38.09" class="cls-4"/><line x1="79.98" y2="46.18" class="cls-4"/><line x2="93.98" y1="54.26" class="cls-4"/><line x1="121.98" y2="70.42" class="cls-4"/><line x1="135.98" y2="78.51" class="cls-4"/><line x1="149.98" y2="86.59" class="cls-4"/><line x1="163.98" y2="94.67" class="cls-4"/><line x1="177.98" y2="102.76" class="cls-4"/><line x1="191.98" y2="110.84" class="cls-4"/><line x1="205.98" y2="118.92" class="cls-4"/><line x1="233.98" y2="135.09" class="cls-4"/><line x1="247.98" y2="143.17" class="cls-4"/><line x2="261.98" y1="151.25" class="cls-4"/><line x1="275.98" y2="159.34" class="cls-4"/><line x1="289.98" y2="167.42" class="cls-4"/><line x1="303.98" y2="175.5" class="cls-4"/><line x1="317.98" y2="183.59" class="cls-4"/><line x1="345.98" y2="199.75" class="cls-4"/><line x1="359.98" y2="207.83" class="cls-4"/><line x2="373.98" y1="215.92" class="cls-4"/><line x1="387.98" y2="224" class="cls-4"/><line x1="401.98" y2="232.08" class="cls-4"/><line x1="415.98" y2="240.17" class="cls-4"/><line x1="429.98" y2="248.25" class="cls-4"/><line x1="448" y1="5.76" y2="264.41" class="cls-4"/><line x2="448" y1="272.5" y2="13.84" class="cls-4"/><line x1="448" y1="21.93" y2="280.58" class="cls-4"/><line x1="448" y1="30.01" y2="288.66" class="cls-4"/><line x1="448" y1="38.09" y2="296.75" class="cls-4"/><line x1="448" y1="46.18" y2="304.83" class="cls-4"/><line x2="448" y1="312.91" y2="54.26" class="cls-4"/><line x1="448" y1="70.42" y2="329.08" class="cls-4"/><line x2="448" y1="337.16" y2="78.51" class="cls-4"/><line x1="448" y1="86.59" y2="345.24" class="cls-4"/><line x1="448" y1="94.67" y2="353.33" class="cls-4"/><line x1="448" y1="102.76" y2="361.41" class="cls-4"/><line x1="448" y1="110.84" y2="369.49" class="cls-4"/><line x2="448" y1="377.58" y2="118.92" class="cls-4"/><line x2="448" y1="393.74" y2="135.09" class="cls-4"/><line x1="448" y1="143.17" y2="401.82" class="cls-4"/><line x1="448" y1="151.25" y2="409.91" class="cls-4"/><line x2="448" y1="417.99" y2="159.34" class="cls-4"/><line x1="448" y1="167.42" y2="426.07" class="cls-4"/><line x2="448" y1="434.16" y2="175.5" class="cls-4"/><line x1="448" y1="183.59" y2="442.24" class="cls-4"/><line x1="448" x2="18.02" y1="199.75" y2="448" class="cls-4"/><line x1="448" x2="32.02" y1="207.83" y2="448" class="cls-4"/><line x1="46.02" x2="448" y1="448" y2="215.92" class="cls-4"/><line x1="448" x2="60.02" y1="224" y2="448" class="cls-4"/><line x1="448" x2="74.02" y1="232.08" y2="448" class="cls-4"/><line x1="448" x2="88.02" y1="240.17" y2="448" class="cls-4"/><line x1="448" x2="102.02" y1="248.25" y2="448" class="cls-4"/><line x1="448" x2="130.02" y1="264.41" y2="448" class="cls-4"/><line x1="448" x2="144.02" y1="272.5" y2="448" class="cls-4"/><line x1="158.02" x2="448" y1="448" y2="280.58" class="cls-4"/><line x1="448" x2="172.02" y1="288.66" y2="448" class="cls-4"/><line x1="186.02" x2="448" y1="448" y2="296.75" class="cls-4"/><line x1="448" x2="200.02" y1="304.83" y2="448" class="cls-4"/><line x1="448" x2="214.02" y1="312.91" y2="448" class="cls-4"/><line x1="448" x2="242.02" y1="329.08" y2="448" class="cls-4"/><line x1="448" x2="256.02" y1="337.16" y2="448" class="cls-4"/><line x1="448" x2="270.02" y1="345.24" y2="448" class="cls-4"/><line x1="448" x2="284.02" y1="353.33" y2="448" class="cls-4"/><line x1="298.02" x2="448" y1="448" y2="361.41" class="cls-4"/><line x1="448" x2="312.02" y1="369.49" y2="448" class="cls-4"/><line x1="448" x2="326.02" y1="377.58" y2="448" class="cls-4"/><line x1="448" x2="354.02" y1="393.74" y2="448" class="cls-4"/><line x1="368.02" x2="448" y1="448" y2="401.82" class="cls-4"/><line x1="448" x2="382.02" y1="409.91" y2="448" class="cls-4"/><line x1="396.02" x2="448" y1="448" y2="417.99" class="cls-4"/><line x1="448" x2="410.02" y1="426.07" y2="448" class="cls-4"/><line x1="448" x2="424.02" y1="434.16" y2="448" class="cls-4"/><line x1="438.02" x2="448" y1="448" y2="442.24" class="cls-4"/><line x1="196" x2="196" y2="448" class="cls-4"/><line x1="420" x2="420" y2="448" class="cls-4"/><line x1="84" x2="84" y2="448" class="cls-4"/><line x1="308" x2="308" y2="448" class="cls-4"/><line x1="140" x2="140" y2="448" class="cls-4"/><line x1="364" x2="364" y2="448" class="cls-4"/><line x1="28" x2="28" y2="448" class="cls-4"/><line x1="252" x2="252" y2="448" class="cls-4"/><line x1="210" x2="210" y2="448" class="cls-4"/><line x1="434" x2="434" y2="448" class="cls-4"/><line x1="98" x2="98" y2="448" class="cls-4"/><line x1="322" x2="322" y2="448" class="cls-4"/><line x1="154" x2="154" y2="448" class="cls-4"/><line x1="378" x2="378" y2="448" class="cls-4"/><line x1="42" x2="42" y2="448" class="cls-4"/><line x1="266" x2="266" y2="448" class="cls-4"/><line x1="182" x2="182" y2="448" class="cls-4"/><line x1="406" x2="406" y2="448" class="cls-4"/><line x1="70" x2="70" y2="448" class="cls-4"/><line x1="294" x2="294" y2="448" class="cls-4"/><line x1="126" x2="126" y2="448" class="cls-4"/><line x1="350" x2="350" y2="448" class="cls-4"/><line x1="14" x2="14" y2="448" class="cls-4"/><line x1="238" x2="238" y2="448" class="cls-4"/><line x1="217" x2="217" y2="448" class="cls-4"/><line x1="441" x2="441" y2="448" class="cls-4"/><line x1="105" x2="105" y2="448" class="cls-4"/><line x1="329" x2="329" y2="448" class="cls-4"/><line x1="161" x2="161" y2="448" class="cls-4"/><line x1="385" x2="385" y2="448" class="cls-4"/><line x1="49" x2="49" y2="448" class="cls-4"/><line x1="273" x2="273" y2="448" class="cls-4"/><line x1="189" x2="189" y2="448" class="cls-4"/><line x1="413" x2="413" y2="448" class="cls-4"/><line x1="77" x2="77" y2="448" class="cls-4"/><line x1="301" x2="301" y2="448" class="cls-4"/><line x1="133" x2="133" y2="448" class="cls-4"/><line x1="357" x2="357" y2="448" class="cls-4"/><line x1="21" x2="21" y2="448" class="cls-4"/><line x1="245" x2="245" y2="448" class="cls-4"/><line x1="203" x2="203" y2="448" class="cls-4"/><line x1="427" x2="427" y2="448" class="cls-4"/><line x1="91" x2="91" y2="448" class="cls-4"/><line x1="315" x2="315" y2="448" class="cls-4"/><line x1="147" x2="147" y2="448" class="cls-4"/><line x1="371" x2="371" y2="448" class="cls-4"/><line x1="35" x2="35" y2="448" class="cls-4"/><line x1="259" x2="259" y2="448" class="cls-4"/><line x1="175" x2="175" y2="448" class="cls-4"/><line x1="399" x2="399" y2="448" class="cls-4"/><line x1="63" x2="63" y2="448" class="cls-4"/><line x1="287" x2="287" y2="448" class="cls-4"/><line x1="119" x2="119" y2="448" class="cls-4"/><line x1="343" x2="343" y2="448" class="cls-4"/><line x1="7" x2="7" y2="448" class="cls-4"/><line x1="231" x2="231" y2="448" class="cls-4"/><line x1="224" x2="224" y2="448" class="cls-5"/><line x1="112" x2="112" y2="448" class="cls-5"/><line x1="336" x2="336" y2="448" class="cls-5"/><line x1="168" x2="168" y2="448" class="cls-5"/><line x1="392" x2="392" y2="448" class="cls-5"/><line x1="56" x2="56" y2="448" class="cls-5"/><line x1="280" x2="280" y2="448" class="cls-5"/><line x1="107.98" y2="62.34" class="cls-5"/><line x1="219.98" y2="127.01" class="cls-5"/><line x1="331.98" y2="191.67" class="cls-5"/><line x2="443.98" y1="256.33" class="cls-5"/><line x1="448" y1="62.34" y2="320.99" class="cls-5"/><line x1="448" y1="127.01" y2="385.66" class="cls-5"/><line x1="448" x2="4.02" y1="191.67" y2="448" class="cls-5"/><line x1="116.02" x2="448" y1="448" y2="256.33" class="cls-5"/><line x1="228.02" x2="448" y1="448" y2="320.99" class="cls-5"/><line x1="448" x2="340.02" y1="385.66" y2="448" class="cls-5"/><line x1="448" x2="340.02" y1="62.34" class="cls-5"/><line x1="448" x2="228.02" y1="127.01" class="cls-5"/><line x1="448" x2="116.02" y1="191.67" class="cls-5"/><line x1="4.02" x2="448" y2="256.33" class="cls-5"/><line x1="448" y1="320.99" y2="62.34" class="cls-5"/><line x1="448" y1="385.66" y2="127.01" class="cls-5"/><line x1="443.98" y1="448" y2="191.67" class="cls-5"/><line x2="331.98" y1="256.33" y2="448" class="cls-5"/><line x2="219.98" y1="320.99" y2="448" class="cls-5"/><line x1="107.98" y1="448" y2="385.66" class="cls-5"/><polygon points="392 224 224 127 56 224 224 321 392 224" class="cls-6"/><polygon points="224 321 224 337.16 56 240.17 56 224 224 321" class="cls-6"/><polygon points="392 224 224 321 224 337.16 392 240.17 392 224" class="cls-6"/><polygon points="168 224 280 288.66 336 256.33 224 191.67 168 224" class="cls-7"/><polygon points="224 337.16 238 345.24 406 248.25 392 240.17 224 337.16" class="cls-7"/><polygon points="280 207.83 280 143.17 224 175.5 224 240.17 280 207.83" class="cls-6"/><polygon points="168 207.83 168 143.17 224 175.5 224 240.17 168 207.83" class="cls-6"/><polygon points="280 143.17 224 110.84 168 143.17 224 175.5 280 143.17" class="cls-6"/><circle cx="112" cy="62.34" r="28" class="cls-8"/></g></g></svg>