<?xml version="1.0" encoding="utf-8"?>
<!-- Generator: Adobe Illustrator 24.0.3, SVG Export Plug-In . SVG Version: 6.00 Build 0)  -->
<svg version="1.1" id="Layer_1" xmlns="http://www.w3.org/2000/svg" xmlns:xlink="http://www.w3.org/1999/xlink" x="0px" y="0px"
	 viewBox="0 0 288 288" style="enable-background:new 0 0 288 288;" xml:space="preserve">
<style type="text/css">
	.st0{fill:#FFFFFF;}
	.st1{clip-path:url(#SVGID_2_);}
	.st2{fill:none;stroke:#E0E0E0;stroke-linecap:round;stroke-miterlimit:10;}
	.st3{fill:#868D95;}
	.st4{fill:url(#SVGID_3_);}
	.st5{fill:#242A2E;}
	.st6{fill:#F2F4F8;}
	.st7{fill:url(#SVGID_8_);}
	.st8{fill:#D5D9E0;}
	.st9{fill:url(#SVGID_9_);}
	.st10{fill:none;stroke:#D12771;stroke-miterlimit:10;}
	.st11{fill:url(#SVGID_10_);}
	.st12{fill:#121619;}
</style>
<g id="Layer_3">
	<rect class="st0" width="288" height="288"/>
	<g>
		<g>
			<defs>
				<rect id="SVGID_1_" width="288" height="288"/>
			</defs>
			<clipPath id="SVGID_2_">
				<use xlink:href="#SVGID_1_"  style="overflow:visible;"/>
			</clipPath>
			<g class="st1">
				<line class="st2" x1="105.4" y1="288" x2="0" y2="227.1"/>
				<line class="st2" x1="182.6" y1="0" x2="288" y2="60.9"/>
				<line class="st2" x1="249.4" y1="288" x2="0" y2="144"/>
				<line class="st2" x1="288" y1="227.1" x2="0" y2="60.9"/>
				<line class="st2" x1="288" y1="144" x2="38.6" y2="0"/>
				<line class="st2" x1="182.6" y1="288" x2="288" y2="227.1"/>
				<line class="st2" x1="105.4" y1="0" x2="0" y2="60.9"/>
				<line class="st2" x1="38.6" y1="288" x2="288" y2="144"/>
				<line class="st2" x1="0" y1="227.1" x2="288" y2="60.9"/>
				<line class="st2" x1="0" y1="144" x2="249.4" y2="0"/>
				<line class="st2" x1="72" y1="0" x2="72" y2="288"/>
				<line class="st2" x1="144" y1="0" x2="144" y2="288"/>
				<line class="st2" x1="216" y1="0" x2="216" y2="288"/>
			</g>
		</g>
	</g>
	<path class="st3" d="M191.1,139.8c-2.5-4.1-6.4-13-10.2-15.3c-1.1-0.5-2.1-1-3.1-1.7c-1.7-0.8-3.5-1.5-5.3-2.1
		c-0.8-0.5-1.5-1-2.2-1.7c-0.8-0.6-1.6-1.4-2.4-2.2l-1.8,1c-0.1,0.6-0.1,1.3,0,1.9c0,0.1,0.1,0.3,0.1,0.4l-0.1,0.1
		c-2.8,2.4-2.1,4,0,6.7c1,1.3,1.5,2.8,2.3,4.2c-0.2-0.5,0.8,1.6,1.6,3.3l-0.4-0.4c-1.7-1.6-3.7-3-5.6-4.5l-3-2c0,0-1.4,1.1-1.6,1.8
		c-0.2,1.7,0.2,3.3,1.2,4.7c1.3,1,2.4,2.1,3.5,3.4c0,0,1.2,1.5,2.1,2.9c0.8,1.1,1.4,2.1,2.1,3.1c0.2,4.1-0.7,8.4-0.8,12.6
		c0,0.1,0,0.2,0,0.3c0,1.7,1.4,3.9,1.5,7.3c-8,8.8-36.7,39.1-40.1,42.4l2.4,11.1c1.6,0.3,7.7,12.1,10.9,14.2
		c19-12.1,29.7-45,42.1-67.4C191,151.2,193,143,191.1,139.8z"/>
	
		<linearGradient id="SVGID_3_" gradientUnits="userSpaceOnUse" x1="272.3386" y1="992.1273" x2="133.3186" y2="741.4774" gradientTransform="matrix(1 0 0 1 0 -790)">
		<stop  offset="0" style="stop-color:#6EA6FF"/>
		<stop  offset="0.33" style="stop-color:#8C9DFF"/>
		<stop  offset="0.76" style="stop-color:#AE92FF"/>
		<stop  offset="1" style="stop-color:#BB8EFF"/>
	</linearGradient>
	<path class="st4" d="M212.1,77.6c-10.1-5.8-18.3-1.1-18.3,10.4v1.2l-0.1,30.9l16.5-1.7c0.6,0.4,1.2,0.8,1.8,1.1l27.9,16.1
		c10.1,5.8,18.3,1.1,18.3-10.4s-8.1-25.7-18.2-31.5L212.1,77.6z"/>
	<path class="st5" d="M176.4,108.5l-19.7-11.2l-0.4,0.3l0.4-0.3c-0.6-0.4-1.3-0.5-1.9-0.2l-1.6,0.7c0.5-0.3,0.8-0.2,1.5,0.3l0,0
		l19.9,11.5c1.6,1,2.6,2.7,2.7,4.6l-0.1,46.2c0,0.8,0.1,1.3-0.3,1.6l1.4-0.9c0.6-0.4,0.8-1,0.8-1.7l0.1-46.2
		C179,111.3,178,109.6,176.4,108.5"/>
	<g>
		<g>
			<defs>
				<path id="SVGID_4_" d="M176.4,108.5l-19.7-11.2l-0.4,0.3l0.4-0.3c-0.6-0.4-1.3-0.5-1.9-0.2l-1.6,0.7c0.5-0.3,0.8-0.2,1.5,0.3
					l0,0l19.9,11.5c1.6,1,2.6,2.7,2.7,4.6l-0.1,46.2c0,0.8,0.1,1.3-0.3,1.6l1.4-0.9c0.6-0.4,0.8-1,0.8-1.7l0.1-46.2
					C179,111.3,178,109.6,176.4,108.5"/>
			</defs>
			<clipPath id="SVGID_5_">
				<use xlink:href="#SVGID_4_"  style="overflow:visible;"/>
			</clipPath>
		</g>
	</g>
	<path class="st6" d="M155.3,98c-1.5-0.8-2.7-0.2-2.7,1.5l-0.1,46.2c0.1,1.9,1.1,3.6,2.7,4.6l19.9,11.4c1.5,0.9,2.7,0.2,2.7-1.5
		l0.1-46.2c-0.1-1.9-1.1-3.6-2.7-4.6L155.3,98z"/>
	<path class="st5" d="M154.9,101.8c-0.2-0.1-0.4,0-0.4,0.3l-0.1,42.8c0,0.3,0.2,0.6,0.4,0.8l19.9,11.5c0.1,0.1,0.3,0.1,0.4,0
		c0.1-0.1,0.1-0.2,0.1-0.2l0.1-42.8c0-0.3-0.2-0.6-0.4-0.8L154.9,101.8z"/>
	<g>
		<g>
			<defs>
				<path id="SVGID_6_" d="M154.9,101.8c-0.2-0.1-0.4,0-0.4,0.3l-0.1,42.8c0,0.3,0.2,0.6,0.4,0.8l19.9,11.5c0.1,0.1,0.3,0.1,0.4,0
					c0.1-0.1,0.1-0.2,0.1-0.2l0.1-42.8c0-0.3-0.2-0.6-0.4-0.8L154.9,101.8z"/>
			</defs>
			<clipPath id="SVGID_7_">
				<use xlink:href="#SVGID_6_"  style="overflow:visible;"/>
			</clipPath>
		</g>
	</g>
	<path class="st3" d="M116.2,142.4l4.1-4.8c0,0,6.1-6.4,7.1-7.3c1.2-1,2.5-1.8,4-2.3c1-0.2,5.5-4.4,9.7-0.7c0,0,4.1-0.4,5.1,3.4
		c0,0,3.2-0.3,4.4-0.4s4.7,0.6,5.3,0.5s5.2-0.8,5.2-0.8c0.6-0.1,1.2,0,1.6,0.5l0,0c0.6,0.7,0.2,2.2-0.5,2.8
		c-0.3,0.2-0.6,0.4-0.9,0.5c-1.9,0.9-4,1.4-6.2,1.6c-0.5,0-0.9,0.1-1.2,0.1c-0.8,0-1.6,0.3-2.3,0.7c-1.1,0.8-2.7,2-3.8,2.6
		c-0.3,0.3-0.3,0.8,0,1.2c0.7,1.1,1.9,1.8,3.2,2c1.7,0.1,3.2-0.2,4.5,0.5c1.1,0.5,1.5,0.8,1.5,2.2c0,0.7-0.6,1.2-1.3,1.4l0,0
		c-0.9,0.5-1.8,0.8-2.9,0.8c-2.5,0.1-5.1,0.4-7.6,0.8c-1.6,0.3-5,1.1-7.5,1.4s-5.9,3.9-6.9,4.3s-4.9,0-4.9,0L116.2,142.4z"/>
	<path class="st3" d="M88.5,124.5c-3.3,2.5-7.1,4.1-11.1,4.8c-10.1,1.8-17.7,0.3-17.2-7.1l0.1-11.4l-9.1-27.6l41.2-7.3l-4,39.8
		L88.5,124.5z"/>
	<path class="st3" d="M105.8,113.3l0.7-2.8c3.1-11.8,3.5-24.1,2.6-36.3l-0.1-1l-40.5-3.8l-8.4,48"/>
	<path class="st3" d="M76.6,117c3.4,2.2,7.4,3.5,11.5,3.9c10.2,0.9,17.1-1.2,17.8-8.1l0.7-2.8"/>
	<path class="st3" d="M76.6,117c3.4,2.2,7.4,3.5,11.5,3.9c10.2,0.9,17.1-1.2,17.8-8.1"/>
	
		<linearGradient id="SVGID_8_" gradientUnits="userSpaceOnUse" x1="90.0489" y1="904.9099" x2="89.6589" y2="925.9698" gradientTransform="matrix(1 0 0 1 0 -790)">
		<stop  offset="9.000000e-02" style="stop-color:#171717;stop-opacity:0"/>
		<stop  offset="1" style="stop-color:#171717"/>
	</linearGradient>
	<path class="st7" d="M76.6,117c3.4,2.2,7.4,3.5,11.5,3.9c6.9,0.6,12.3-0.1,15.3-2.8C94.5,116.6,85.6,116.3,76.6,117z"/>
	<path class="st5" d="M116.7,70.2c-0.5,5.3-2.6,6.4-6.6,6.9c-2.2,0.3-6.9-0.8-12.6-2c-2.7-0.6-6.6,8.9-7.6,11.6
		c0.2,3.2-0.6,7.4-4,15.4c-1,2.3-4.3,14.4-4.3,14.4c-4.9,1.2-20-0.8-21.7-2.1c-2.7-3.5-11.5-13.1-12.3-27.8
		c-0.6-10.4,1-26.2,13.7-31.4c10.6-12.5,42.9-13.3,49.3,6.4C110.6,61.5,117.3,64.1,116.7,70.2z"/>
	<path class="st3" d="M88,102.1c-4.4,1.5-10.6-8.3-8.2-15.2c3.3-9.3,10.1-0.3,10.1-0.3l5,10.4L88,102.1z"/>
	<path class="st3" d="M90.8,115.3v9.2l6.6,3.9c0,0-8.5,5.7-23.5,3.4c-3.9-0.6-7.8-1.4-11.7-2.5c-4.7-1.4-5.5-4-5.2-6.3l5.2-2
		l1.1-4.4l13.1,0.4L90.8,115.3z"/>
	<path class="st3" d="M182.4,162.9c0,0,4.6-10.8,4.1-13.4c-0.1-0.9-0.2-1.7-0.5-2.5c0,0-0.5-2.3-3.8-8.2s-10.4-11.9-10.4-11.9
		s-4.1-2.2-3.6,4.3l6.8,10.6l0.2,5.2c0,0-6.5,7.9-6.1,14.9l1.2,1.4L182.4,162.9z"/>
	<path class="st8" d="M132.5,161.6c0-7.6-5.7-20.3-29.9-31.1c-2.8-1.2-5-2.1-5-2.1s-32.7-6.3-40.4-5.4c-0.1,0-29.5,11.5-30.2,29.9
		c-1.2,27.6,3.6,40.7,6.8,55c0.4,2.1,0.6,4.2,0.7,6.3c0.2,11.2,0.3,73.7,0.3,73.7H118l-0.6-78.9C117.4,209,132.5,162.5,132.5,161.6z
		"/>
	
		<linearGradient id="SVGID_9_" gradientUnits="userSpaceOnUse" x1="36.4511" y1="1010.5889" x2="275.6411" y2="1014.1389" gradientTransform="matrix(1 0 0 1 0 -790)">
		<stop  offset="9.000000e-02" style="stop-color:#171717;stop-opacity:0"/>
		<stop  offset="1" style="stop-color:#171717"/>
	</linearGradient>
	<path class="st9" d="M118.4,170.4l-1.1,45.3c0,0.7,0,1.3,0,2c0,0.1,0,0.2,0,0.2l0.4,55.3L62,271l30.4-53.6L118.4,170.4z"/>
	<path class="st3" d="M105.7,144.1c0.9-1.1,1.9-2,3-2.9c1.1-0.8-1.6-1.4-0.2-1.4c10.8-0.3,19.5,11,23.4,19.2
		c5.5,11.5,9,23.8,12.7,36c1.8,6.1,3.6,12.2,5.2,18.4c0.7,2.8,0.7,1.1,1.3,3.9c0.5,2.5-5.9,12.4-8.9,14c-3.5,1.8-14.6,0.5-18.7-6.2
		c-3.1-5.1-18.9-45-22.1-59.2c-0.4-2.3-0.6-4.7-0.6-7c-0.1-4.8,1.3-9.6,4.1-13.6c0.3-0.5,0.7-1,1.1-1.5L105.7,144.1"/>
	<path class="st8" d="M106.2,142.1c0.9-1-8.7-13.7-8.7-13.7s8.6,3.8,9.9,4.5c5.9,3.1,16.4,8.7,19.7,13.7c2,3.3,3.9,6.8,5.4,10.4
		c5.5,11.5,6,13.8,9.6,26c1.8,6.1-12.3,21.8-31.5,14.7c-3.1-5-7-20.5-10.3-34.8c-0.4-2.3-0.6-4.7-0.6-7c-0.2-4.8,2.8-8.6,5.5-12.6
		c0.3-0.5,0.7-1,1.1-1.5C106.3,142,106.3,142,106.2,142.1"/>
	<path class="st5" d="M34.7,260.3c0,0,8.7,10.1,41.9,10.1s41.2-14,41.2-14L118,288H34.7V260.3z"/>
	<line class="st10" x1="17.8" y1="144" x2="149.2" y2="157.2"/>
	<line class="st10" x1="20.1" y1="260.2" x2="132.5" y2="260.2"/>
	
		<linearGradient id="SVGID_10_" gradientUnits="userSpaceOnUse" x1="310.7675" y1="926.3314" x2="221.7075" y2="765.7714" gradientTransform="matrix(1 0 0 1 0 -790)">
		<stop  offset="0" style="stop-color:#6EA6FF"/>
		<stop  offset="0.33" style="stop-color:#8C9DFF"/>
		<stop  offset="0.76" style="stop-color:#AE92FF"/>
		<stop  offset="1" style="stop-color:#BB8EFF"/>
	</linearGradient>
	<path class="st11" d="M288,53.4l-6.6-3.8c-10.1-5.8-18.3-1.2-18.3,10.4c0,0.4,0,1.2,0,1.2L263,92.1l16.5-1.7
		c0.6,0.4,1.2,0.8,1.8,1.1l6.7,3.9V53.4z"/>
	<path class="st5" d="M288,102.9l-5.9-3.4c-10.1-5.8-18.3-1.2-18.3,10.4s8.1,25.7,18.2,31.5l6,3.4L288,102.9z"/>
	<path class="st12" d="M288,128.5c-3.3-5.8-7.9-10.8-13-13.7l-11.1-6.4c0,0.5-0.1,1.1-0.1,1.7c0,11.6,8.1,25.7,18.2,31.5l6,3.4
		V128.5z"/>
</g>
</svg>
