<svg xmlns="http://www.w3.org/2000/svg" xmlns:xlink="http://www.w3.org/1999/xlink" viewBox="0 0 288 288"><defs><style>.cls-1,.cls-4,.cls-5,.cls-6,.cls-7{fill:none;}.cls-2{fill:#fff;}.cls-3{clip-path:url(#clip-path);}.cls-4,.cls-7{stroke:#f4f4f4;}.cls-4,.cls-5{stroke-linecap:round;stroke-miterlimit:10;}.cls-5{stroke:#e0e0e0;}.cls-6{stroke:#d12771;}.cls-6,.cls-7{stroke-linejoin:round;}.cls-7{stroke-width:2.139px;}</style><clipPath id="clip-path"><rect class="cls-1" width="288" height="288"/></clipPath></defs><title>Artboard 2 copy 10_Export_Two</title><g id="Layer_3" data-name="Layer 3"><rect class="cls-2" width="288" height="288"/><g class="cls-3"><line class="cls-4" x1="9" x2="9" y2="288"/><line class="cls-4" x1="18" x2="18" y2="288"/><line class="cls-4" x1="27" x2="27" y2="288"/><line class="cls-4" x1="36" x2="36" y2="288"/><line class="cls-4" x1="45" x2="45" y2="288"/><line class="cls-4" x1="54" x2="54" y2="288"/><line class="cls-4" x1="63" x2="63" y2="288"/><line class="cls-4" x1="81" x2="81" y2="288"/><line class="cls-4" x1="90" x2="90" y2="288"/><line class="cls-4" x1="99" x2="99" y2="288"/><line class="cls-4" x1="108" x2="108" y2="288"/><line class="cls-4" x1="117" x2="117" y2="288"/><line class="cls-4" x1="126" x2="126" y2="288"/><line class="cls-4" x1="135" x2="135" y2="288"/><line class="cls-4" x1="153" x2="153" y2="288"/><line class="cls-4" x1="162" x2="162" y2="288"/><line class="cls-4" x1="171" x2="171" y2="288"/><line class="cls-4" x1="180" x2="180" y2="288"/><line class="cls-4" x1="189" x2="189" y2="288"/><line class="cls-4" x1="198" x2="198" y2="288"/><line class="cls-4" x1="207" x2="207" y2="288"/><line class="cls-4" x1="225" x2="225" y2="288"/><line class="cls-4" x1="234" x2="234" y2="288"/><line class="cls-4" x1="243" x2="243" y2="288"/><line class="cls-4" x1="252" x2="252" y2="288"/><line class="cls-4" x1="261" x2="261" y2="288"/><line class="cls-4" x1="270" x2="270" y2="288"/><line class="cls-4" x1="279" x2="279" y2="288"/><line class="cls-4" x1="56.585" y1="288" x2="288" y2="154.392"/><line class="cls-4" x1="74.585" y1="288" x2="288" y2="164.785"/><line class="cls-4" x1="92.585" y1="288" x2="288" y2="175.177"/><line class="cls-4" x1="110.585" y1="288" x2="288" y2="185.569"/><line class="cls-4" x1="128.585" y1="288" x2="288" y2="195.962"/><line class="cls-4" x1="146.585" y1="288" x2="288" y2="206.354"/><line class="cls-4" x1="164.585" y1="288" x2="288" y2="216.746"/><line class="cls-4" x1="200.585" y1="288" x2="288" y2="237.531"/><line class="cls-4" x1="218.585" y1="288" x2="288" y2="247.923"/><line class="cls-4" x1="236.585" y1="288" x2="288" y2="258.315"/><line class="cls-4" x1="254.585" y1="288" x2="288" y2="268.708"/><line class="cls-4" x1="254.585" y1="288" x2="288" y2="268.708"/><line class="cls-4" x1="272.585" y1="288" x2="288" y2="279.1"/><line class="cls-4" x1="110.585" y1="288" x2="288" y2="185.569"/><line class="cls-4" x1="231.415" y2="133.608"/><line class="cls-4" x1="213.415" y2="123.215"/><line class="cls-4" x1="195.415" y2="112.823"/><line class="cls-4" x1="177.415" y2="102.431"/><line class="cls-4" x1="159.415" y2="92.038"/><line class="cls-4" x1="141.415" y2="81.646"/><line class="cls-4" x1="123.415" y2="71.254"/><line class="cls-4" x1="87.415" y2="50.469"/><line class="cls-4" x1="69.415" y2="40.077"/><line class="cls-4" x1="51.415" y2="29.685"/><line class="cls-4" x1="33.415" y2="19.292"/><line class="cls-4" x1="33.415" y2="19.292"/><line class="cls-4" x1="15.415" y2="8.9"/><line class="cls-4" x1="177.415" y2="102.431"/><line class="cls-4" x1="20.585" y1="288" x2="288" y2="133.608"/><line class="cls-4" x1="2.585" y1="288" x2="288" y2="123.215"/><line class="cls-4" y1="279.1" x2="288" y2="112.823"/><line class="cls-4" y1="268.708" x2="288" y2="102.431"/><line class="cls-4" y1="258.315" x2="288" y2="92.038"/><line class="cls-4" y1="247.923" x2="288" y2="81.646"/><line class="cls-4" y1="237.531" x2="288" y2="71.254"/><line class="cls-4" y1="216.746" x2="288" y2="50.469"/><line class="cls-4" y1="206.354" x2="288" y2="40.077"/><line class="cls-4" y1="195.962" x2="288" y2="29.685"/><line class="cls-4" y1="185.569" x2="288" y2="19.292"/><line class="cls-4" y1="175.177" x2="288" y2="8.9"/><line class="cls-4" y1="164.785" x2="285.415"/><line class="cls-4" y1="154.392" x2="267.415"/><line class="cls-4" x1="231.415" y1="288" y2="154.392"/><line class="cls-4" x1="213.415" y1="288" y2="164.785"/><line class="cls-4" x1="195.415" y1="288" y2="175.177"/><line class="cls-4" x1="177.415" y1="288" y2="185.569"/><line class="cls-4" x1="159.415" y1="288" y2="195.962"/><line class="cls-4" x1="141.415" y1="288" y2="206.354"/><line class="cls-4" x1="123.415" y1="288" y2="216.746"/><line class="cls-4" x1="87.415" y1="288" y2="237.531"/><line class="cls-4" x1="69.415" y1="288" y2="247.923"/><line class="cls-4" x1="51.415" y1="288" y2="258.315"/><line class="cls-4" x1="33.415" y1="288" y2="268.708"/><line class="cls-4" x1="33.415" y1="288" y2="268.708"/><line class="cls-4" x1="15.415" y1="288" y2="279.1"/><line class="cls-4" x1="177.415" y1="288" y2="185.569"/><line class="cls-4" x1="56.585" x2="288" y2="133.608"/><line class="cls-4" x1="74.585" x2="288" y2="123.215"/><line class="cls-4" x1="92.585" x2="288" y2="112.823"/><line class="cls-4" x1="110.585" x2="288" y2="102.431"/><line class="cls-4" x1="128.585" x2="288" y2="92.038"/><line class="cls-4" x1="146.585" x2="288" y2="81.646"/><line class="cls-4" x1="164.585" x2="288" y2="71.254"/><line class="cls-4" x1="200.585" x2="288" y2="50.469"/><line class="cls-4" x1="218.585" x2="288" y2="40.077"/><line class="cls-4" x1="236.585" x2="288" y2="29.685"/><line class="cls-4" x1="254.585" x2="288" y2="19.292"/><line class="cls-4" x1="254.585" x2="288" y2="19.292"/><line class="cls-4" x1="272.585" x2="288" y2="8.9"/><line class="cls-4" x1="110.585" x2="288" y2="102.431"/><line class="cls-4" x1="267.415" y1="288" y2="133.608"/><line class="cls-4" x1="285.415" y1="288" y2="123.215"/><line class="cls-4" x1="288" y1="279.1" y2="112.823"/><line class="cls-4" x1="288" y1="268.708" y2="102.431"/><line class="cls-4" x1="288" y1="258.315" y2="92.038"/><line class="cls-4" x1="288" y1="247.923" y2="81.646"/><line class="cls-4" x1="288" y1="237.531" y2="71.254"/><line class="cls-4" x1="288" y1="216.746" y2="50.469"/><line class="cls-4" x1="288" y1="206.354" y2="40.077"/><line class="cls-4" x1="288" y1="195.962" y2="29.685"/><line class="cls-4" x1="288" y1="185.569" y2="19.292"/><line class="cls-4" x1="288" y1="175.177" y2="8.9"/><line class="cls-4" x1="288" y1="164.785" x2="2.585"/><line class="cls-4" x1="288" y1="154.392" x2="20.585"/><line class="cls-5" x1="105.415" y1="288" y2="227.138"/><line class="cls-5" x1="182.585" x2="288" y2="60.862"/><line class="cls-5" x1="249.415" y1="288" y2="144"/><line class="cls-5" x1="288" y1="227.138" y2="60.862"/><line class="cls-5" x1="288" y1="144" x2="38.585"/><line class="cls-5" x1="182.585" y1="288" x2="288" y2="227.138"/><line class="cls-5" x1="105.415" y2="60.862"/><line class="cls-5" x1="38.585" y1="288" x2="288" y2="144"/><line class="cls-5" y1="227.138" x2="288" y2="60.862"/><line class="cls-5" y1="144" x2="249.415"/><line class="cls-5" x1="72" x2="72" y2="288"/><line class="cls-5" x1="144" x2="144" y2="288"/><line class="cls-5" x1="216" x2="216" y2="288"/></g><rect class="cls-6" x="60.826" y="60.881" width="166.264" height="166.264"/><circle cx="144.017" cy="144.013" r="83.132"/><path id="strategy" class="cls-7" d="M96.418,188.58m8.914-59.423H129.1M99.39,164.811h35.654M108.3,135.1v14.856L99.39,173.724l2.97,5.943h29.711l2.972-5.943-8.914-23.769V135.1M102.36,179.667v8.913m29.712-8.913v8.913m-20.8-83.192h11.884V99.446H111.274Zm0,5.942h11.884m2.971,11.885v-5.943l2.971-5.942-2.971-5.942H108.3l-2.971,5.942,2.971,5.942v5.943M149.9,141.042h5.945m-5.945,8.913h5.945m-5.945,8.914h5.945m20.8,15.231,2.97-9.293-11.884-20.794,17.826,2.971,2.972-5.942L170.7,126.186h-5.943v-8.914l-8.632,7.29c-3.863,3.863-6.226,8.181-6.226,17.832v22.425l2.975,9.28M96.419,188.58H191.5m-5.942,0v-2.975a11.919,11.919,0,0,0-11.885-11.884H155.842a11.919,11.919,0,0,0-11.884,11.884v2.975"/><rect class="cls-1" x="96.418" y="96.474" width="95.078" height="95.078"/></g></svg>