<svg xmlns="http://www.w3.org/2000/svg" xmlns:xlink="http://www.w3.org/1999/xlink" viewBox="0 0 288 288"><defs><style>.cls-1,.cls-12,.cls-2,.cls-22,.cls-23,.cls-24,.cls-3,.cls-4,.cls-5,.cls-6,.cls-9{fill:none;}.cls-2{stroke:#a6c8ff;}.cls-12,.cls-2,.cls-22,.cls-3,.cls-4,.cls-9{stroke-linecap:round;}.cls-12,.cls-2,.cls-22,.cls-23,.cls-24,.cls-25,.cls-26,.cls-3,.cls-4,.cls-5,.cls-6,.cls-9{stroke-miterlimit:10;}.cls-3{stroke:#78a9ff;}.cls-4{stroke:#4589ff;}.cls-22,.cls-5{stroke:#0f62fe;}.cls-6{stroke:#0043ce;}.cls-7{clip-path:url(#clip-path);}.cls-25,.cls-26,.cls-8{fill:#fff;}.cls-9{stroke:#e0e0e0;}.cls-10{fill:#edf5ff;}.cls-11{clip-path:url(#clip-path-2);}.cls-12{stroke:#d0e2ff;}.cls-13{fill:url(#linear-gradient);}.cls-14{fill:#d0e2ff;}.cls-15{clip-path:url(#clip-path-3);}.cls-16{fill:#a6c8ff;}.cls-17{clip-path:url(#clip-path-4);}.cls-18{fill:#78a9ff;}.cls-19{clip-path:url(#clip-path-5);}.cls-20{fill:#4589ff;}.cls-21{clip-path:url(#clip-path-6);}.cls-23,.cls-26{stroke:#d12771;}.cls-24,.cls-25{stroke:#9f1853;}</style><clipPath id="clip-path"><rect class="cls-1" width="288" height="288"/></clipPath><clipPath id="clip-path-2"><path class="cls-2" d="M-4,177.482,72.008,133.6a143.985,143.985,0,0,1,143.984,0L292,177.483V292H-4Z"/></clipPath><linearGradient id="linear-gradient" x1="144" y1="92.001" x2="144" gradientUnits="userSpaceOnUse"><stop offset="0" stop-color="#fff" stop-opacity="0"/><stop offset="0.9" stop-color="#fff"/></linearGradient><clipPath id="clip-path-3"><path class="cls-3" d="M-4,198.267,90.064,144a108.013,108.013,0,0,1,108,0L292,198.23V292H-4Z"/></clipPath><clipPath id="clip-path-4"><path class="cls-4" d="M-4,219.051l112-64.662a71.993,71.993,0,0,1,71.992,0l112,64.663V292H-4Z"/></clipPath><clipPath id="clip-path-5"><path class="cls-5" d="M-4,239.835l130-75.054a36.021,36.021,0,0,1,36.009,0l130,75.055V292H-4Z"/></clipPath><clipPath id="clip-path-6"><polygon class="cls-6" points="-4 260.62 144 175.173 292 260.62 292 292 -4 292 -4 260.62"/></clipPath></defs><title>Artboard 2 copy 46_Export_Two</title><g id="Layer_3" data-name="Layer 3"><g class="cls-7"><rect class="cls-8" width="288" height="288"/><line class="cls-9" x1="56.585" y1="288" x2="288" y2="154.392"/><line class="cls-9" x1="231.415" y2="133.608"/><line class="cls-9" x1="195.415" y2="112.823"/><line class="cls-9" x1="159.415" y2="92.038"/><line class="cls-9" x1="123.415" y2="71.254"/><line class="cls-9" x1="87.415" y2="50.469"/><line class="cls-9" x1="51.415" y2="29.685"/><line class="cls-9" x1="15.415" y2="8.9"/><line class="cls-9" x1="20.585" y1="288" x2="288" y2="133.608"/><line class="cls-9" y1="279.1" x2="288" y2="112.823"/><line class="cls-9" y1="258.315" x2="288" y2="92.038"/><line class="cls-9" y1="237.531" x2="288" y2="71.254"/><line class="cls-9" y1="216.746" x2="288" y2="50.469"/><line class="cls-9" y1="195.962" x2="288" y2="29.685"/><line class="cls-9" y1="175.177" x2="288" y2="8.9"/><line class="cls-9" y1="154.392" x2="267.415"/><line class="cls-9" x1="231.415" y1="288" y2="154.392"/><line class="cls-9" x1="56.585" x2="288" y2="133.608"/><line class="cls-9" x1="92.585" x2="288" y2="112.823"/><line class="cls-9" x1="128.585" x2="288" y2="92.038"/><line class="cls-9" x1="164.585" x2="288" y2="71.254"/><line class="cls-9" x1="200.585" x2="288" y2="50.469"/><line class="cls-9" x1="236.585" x2="288" y2="29.685"/><line class="cls-9" x1="272.585" x2="288" y2="8.9"/><line class="cls-9" x1="267.415" y1="288" y2="133.608"/><line class="cls-9" x1="288" y1="279.1" y2="112.823"/><line class="cls-9" x1="288" y1="258.315" y2="92.038"/><line class="cls-9" x1="288" y1="237.531" y2="71.254"/><line class="cls-9" x1="288" y1="216.746" y2="50.469"/><line class="cls-9" x1="288" y1="195.962" y2="29.685"/><line class="cls-9" x1="288" y1="175.177" y2="8.9"/><line class="cls-9" x1="288" y1="154.392" x2="20.585"/><path class="cls-10" d="M0,175.173,72.008,133.6a143.985,143.985,0,0,1,143.984,0L288,175.173V288H0Z"/><g class="cls-11"><line class="cls-12" x1="56.585" y1="288" x2="288" y2="154.392"/><line class="cls-12" x1="92.585" y1="288" x2="288" y2="175.177"/><line class="cls-12" x1="20.585" y1="288" x2="288" y2="133.608"/><line class="cls-12" y1="279.1" x2="288" y2="112.823"/><line class="cls-12" y1="258.315" x2="288" y2="92.038"/><line class="cls-12" y1="237.531" x2="288" y2="71.254"/><line class="cls-12" y1="216.746" x2="288" y2="50.469"/><line class="cls-12" y1="195.962" x2="288" y2="29.685"/><line class="cls-12" x1="231.415" y1="288" y2="154.392"/><line class="cls-12" x1="195.415" y1="288" y2="175.177"/><line class="cls-12" x1="267.415" y1="288" y2="133.608"/><line class="cls-12" x1="288" y1="279.1" y2="112.823"/><line class="cls-12" x1="288" y1="258.315" y2="92.038"/><line class="cls-12" x1="288" y1="237.531" y2="71.254"/><line class="cls-12" x1="288" y1="216.746" y2="50.469"/><line class="cls-12" x1="288" y1="195.962" y2="29.685"/></g><path class="cls-2" d="M-4,177.482,72.008,133.6a143.985,143.985,0,0,1,143.984,0L292,177.483V292H-4Z"/><rect class="cls-13" width="288" height="92.001"/><path class="cls-14" d="M0,195.957,90.064,144a108.013,108.013,0,0,1,108,0l90,51.961V288H0Z"/><g class="cls-15"><line class="cls-2" x1="56.585" y1="288" x2="288" y2="154.392"/><line class="cls-2" x1="92.585" y1="288" x2="288" y2="175.177"/><line class="cls-2" x1="128.585" y1="288" x2="288" y2="195.962"/><line class="cls-2" x1="20.585" y1="288" x2="288" y2="133.608"/><line class="cls-2" y1="279.1" x2="288" y2="112.823"/><line class="cls-2" y1="258.315" x2="288" y2="92.038"/><line class="cls-2" y1="237.531" x2="288" y2="71.254"/><line class="cls-2" y1="216.746" x2="288" y2="50.469"/><line class="cls-2" x1="231.415" y1="288" y2="154.392"/><line class="cls-2" x1="195.415" y1="288" y2="175.177"/><line class="cls-2" x1="159.415" y1="288" y2="195.962"/><line class="cls-2" x1="267.415" y1="288" y2="133.608"/><line class="cls-2" x1="288" y1="279.1" y2="112.823"/><line class="cls-2" x1="288" y1="258.315" y2="92.038"/><line class="cls-2" x1="288" y1="237.531" y2="71.254"/><line class="cls-2" x1="288" y1="216.746" y2="50.469"/></g><path class="cls-3" d="M-4,198.267,90.064,144a108.013,108.013,0,0,1,108,0L292,198.23V292H-4Z"/><path class="cls-16" d="M0,216.742l108-62.353a71.993,71.993,0,0,1,71.992,0l108,62.353V288H0Z"/><g class="cls-17"><line class="cls-3" x1="56.585" y1="288" x2="288" y2="154.392"/><line class="cls-3" x1="92.585" y1="288" x2="288" y2="175.177"/><line class="cls-3" x1="128.585" y1="288" x2="288" y2="195.962"/><line class="cls-3" x1="164.585" y1="288" x2="288" y2="216.746"/><line class="cls-3" x1="20.585" y1="288" x2="288" y2="133.608"/><line class="cls-3" y1="279.1" x2="288" y2="112.823"/><line class="cls-3" y1="258.315" x2="288" y2="92.038"/><line class="cls-3" y1="237.531" x2="288" y2="71.254"/><line class="cls-3" x1="231.415" y1="288" y2="154.392"/><line class="cls-3" x1="195.415" y1="288" y2="175.177"/><line class="cls-3" x1="159.415" y1="288" y2="195.962"/><line class="cls-3" x1="123.415" y1="288" y2="216.746"/><line class="cls-3" x1="267.415" y1="288" y2="133.608"/><line class="cls-3" x1="288" y1="279.1" y2="112.823"/><line class="cls-3" x1="288" y1="258.315" y2="92.038"/><line class="cls-3" x1="288" y1="237.531" y2="71.254"/></g><path class="cls-4" d="M-4,219.051l112-64.662a71.993,71.993,0,0,1,71.992,0l112,64.663V292H-4Z"/><path class="cls-18" d="M0,237.526l126-72.745a36.021,36.021,0,0,1,36.009,0l126,72.746V288H0Z"/><g class="cls-19"><line class="cls-4" x1="56.585" y1="288" x2="288" y2="154.392"/><line class="cls-4" x1="92.585" y1="288" x2="288" y2="175.177"/><line class="cls-4" x1="128.585" y1="288" x2="288" y2="195.962"/><line class="cls-4" x1="164.585" y1="288" x2="288" y2="216.746"/><line class="cls-4" x1="200.585" y1="288" x2="288" y2="237.531"/><line class="cls-4" x1="20.585" y1="288" x2="288" y2="133.608"/><line class="cls-4" y1="279.1" x2="288" y2="112.823"/><line class="cls-4" y1="258.315" x2="288" y2="92.038"/><line class="cls-4" x1="231.415" y1="288" y2="154.392"/><line class="cls-4" x1="195.415" y1="288" y2="175.177"/><line class="cls-4" x1="159.415" y1="288" y2="195.962"/><line class="cls-4" x1="123.415" y1="288" y2="216.746"/><line class="cls-4" x1="87.415" y1="288" y2="237.531"/><line class="cls-4" x1="267.415" y1="288" y2="133.608"/><line class="cls-4" x1="288" y1="279.1" y2="112.823"/><line class="cls-4" x1="288" y1="258.315" y2="92.038"/></g><path class="cls-5" d="M-4,239.835l130-75.054a36.021,36.021,0,0,1,36.009,0l130,75.055V292H-4Z"/><rect class="cls-1" x="141.402" y="172.575" width="5.196" height="5.196"/><rect class="cls-1" x="123.397" y="162.183" width="5.196" height="5.196"/><rect class="cls-1" x="159.406" y="162.183" width="5.196" height="5.196"/><rect class="cls-1" x="105.406" y="151.791" width="5.196" height="5.196"/><rect class="cls-1" x="177.398" y="151.791" width="5.196" height="5.196"/><rect class="cls-1" x="87.401" y="141.399" width="5.196" height="5.196"/><rect class="cls-1" x="195.402" y="141.399" width="5.196" height="5.196"/><rect class="cls-1" x="69.41" y="131.006" width="5.196" height="5.196"/><rect class="cls-1" x="213.394" y="131.006" width="5.196" height="5.196"/><polygon class="cls-20" points="0 258.31 144 175.173 288 258.311 288 288 0 288 0 258.31"/><g class="cls-21"><line class="cls-22" x1="56.585" y1="288" x2="288" y2="154.392"/><line class="cls-22" x1="92.585" y1="288" x2="288" y2="175.177"/><line class="cls-22" x1="128.585" y1="288" x2="288" y2="195.962"/><line class="cls-22" x1="164.585" y1="288" x2="288" y2="216.746"/><line class="cls-22" x1="200.585" y1="288" x2="288" y2="237.531"/><line class="cls-22" x1="236.585" y1="288" x2="288" y2="258.315"/><line class="cls-22" x1="272.585" y1="288" x2="288" y2="279.1"/><line class="cls-22" x1="20.585" y1="288" x2="288" y2="133.608"/><line class="cls-22" y1="279.1" x2="288" y2="112.823"/><line class="cls-22" x1="231.415" y1="288" y2="154.392"/><line class="cls-22" x1="195.415" y1="288" y2="175.177"/><line class="cls-22" x1="159.415" y1="288" y2="195.962"/><line class="cls-22" x1="123.415" y1="288" y2="216.746"/><line class="cls-22" x1="87.415" y1="288" y2="237.531"/><line class="cls-22" x1="51.415" y1="288" y2="258.315"/><line class="cls-22" x1="15.415" y1="288" y2="279.1"/><line class="cls-22" x1="267.415" y1="288" y2="133.608"/><line class="cls-22" x1="288" y1="279.1" y2="112.823"/></g><polygon class="cls-6" points="-4 260.62 144 175.173 292 260.62 292 292 -4 292 -4 260.62"/><path class="cls-23" d="M72.008,133.6a143.985,143.985,0,0,1,143.984,0"/><path class="cls-23" d="M90.064,144a108.013,108.013,0,0,1,108,0"/><path class="cls-23" d="M108,154.389a71.993,71.993,0,0,1,71.992,0"/><path class="cls-24" d="M126,164.781a36.021,36.021,0,0,1,36.009,0"/><rect class="cls-25" x="142" y="173.173" width="4" height="4"/><rect class="cls-25" x="123.995" y="162.781" width="4" height="4"/><rect class="cls-25" x="160.004" y="162.781" width="4" height="4"/><rect class="cls-26" x="106.004" y="152.389" width="4" height="4"/><rect class="cls-26" x="177.996" y="152.389" width="4" height="4"/><rect class="cls-26" x="87.999" y="141.997" width="4" height="4"/><rect class="cls-26" x="196" y="141.997" width="4" height="4"/><rect class="cls-26" x="70.008" y="131.604" width="4" height="4"/><rect class="cls-26" x="213.992" y="131.604" width="4" height="4"/></g></g></svg>