<svg xmlns="http://www.w3.org/2000/svg" xmlns:xlink="http://www.w3.org/1999/xlink" viewBox="0 0 288 288"><defs><style>.cls-1,.cls-10,.cls-11,.cls-2,.cls-5,.cls-8{fill:none}.cls-10,.cls-2{stroke:#4589ff}.cls-10,.cls-11,.cls-12,.cls-2,.cls-5,.cls-8{stroke-miterlimit:10}.cls-3{clip-path:url(#clip-path)}.cls-12,.cls-4{fill:#fff}.cls-5{stroke:#e0e0e0}.cls-10,.cls-5,.cls-8{stroke-linecap:round}.cls-6{fill:#d0e2ff}.cls-7{clip-path:url(#clip-path-2)}.cls-8{stroke:#a6c8ff}.cls-9{fill:url(#linear-gradient)}.cls-11,.cls-12{stroke:#d12771}</style><clipPath id="clip-path"><rect width="288" height="288" class="cls-1"/></clipPath><clipPath id="clip-path-2"><path d="M-3.466,177.173l75.471-43.551,54-31.175a36,36,0,0,1,36,0l54,31.176,75.467,43.55L290,290H-2Z" class="cls-2"/></clipPath><linearGradient id="linear-gradient" x1="144" x2="144" y1="92.038" gradientUnits="userSpaceOnUse"><stop offset="0" stop-color="#fff" stop-opacity="0"/><stop offset=".9" stop-color="#fff"/></linearGradient></defs><title>Artboard 2 copy 35</title><g id="Layer_3" data-name="Layer 3"><g class="cls-3"><rect width="288" height="288" y="-.003" class="cls-4"/><line x1="56.585" x2="288" y1="288" y2="154.392" class="cls-5"/><line x1="231.415" y2="133.608" class="cls-5"/><line x1="195.415" y2="112.823" class="cls-5"/><line x1="159.415" y2="92.038" class="cls-5"/><line x1="123.415" y2="71.254" class="cls-5"/><line x1="87.415" y2="50.469" class="cls-5"/><line x1="51.415" y2="29.685" class="cls-5"/><line x1="15.415" y2="8.9" class="cls-5"/><line x1="20.585" x2="288" y1="288" y2="133.608" class="cls-5"/><line x2="288" y1="279.1" y2="112.823" class="cls-5"/><line x2="288" y1="258.315" y2="92.038" class="cls-5"/><line x2="288" y1="237.531" y2="71.254" class="cls-5"/><line x2="288" y1="216.746" y2="50.469" class="cls-5"/><line x2="288" y1="195.962" y2="29.685" class="cls-5"/><line x2="288" y1="175.177" y2="8.9" class="cls-5"/><line x2="267.415" y1="154.392" class="cls-5"/><line x1="231.415" y1="288" y2="154.392" class="cls-5"/><line x1="56.585" x2="288" y2="133.608" class="cls-5"/><line x1="92.585" x2="288" y2="112.823" class="cls-5"/><line x1="128.585" x2="288" y2="92.038" class="cls-5"/><line x1="164.585" x2="288" y2="71.254" class="cls-5"/><line x1="200.585" x2="288" y2="50.469" class="cls-5"/><line x1="236.585" x2="288" y2="29.685" class="cls-5"/><line x1="272.585" x2="288" y2="8.9" class="cls-5"/><line x1="267.415" y1="288" y2="133.608" class="cls-5"/><line x1="288" y1="279.1" y2="112.823" class="cls-5"/><line x1="288" y1="258.315" y2="92.038" class="cls-5"/><line x1="288" y1="237.531" y2="71.254" class="cls-5"/><line x1="288" y1="216.746" y2="50.469" class="cls-5"/><line x1="288" y1="195.962" y2="29.685" class="cls-5"/><line x1="288" y1="175.177" y2="8.9" class="cls-5"/><line x1="288" x2="20.585" y1="154.392" class="cls-5"/><path d="M0,175.173l72.005-41.551,54-31.175a36,36,0,0,1,36,0l54,31.176,72,41.55V288H0Z" class="cls-6"/><g class="cls-7"><line x1="56.585" x2="288" y1="288" y2="154.392" class="cls-8"/><line x1="20.585" x2="288" y1="288" y2="133.608" class="cls-8"/><line x2="288" y1="279.1" y2="112.823" class="cls-8"/><line x2="288" y1="258.315" y2="92.038" class="cls-8"/><line x2="288" y1="237.531" y2="71.254" class="cls-8"/><line x2="288" y1="216.746" y2="50.469" class="cls-8"/><line x2="288" y1="195.962" y2="29.685" class="cls-8"/><line x1="92.585" x2="288" y1="288" y2="175.177" class="cls-8"/><line x1="128.585" x2="288" y1="288" y2="195.962" class="cls-8"/><line x1="164.585" x2="288" y1="288" y2="216.746" class="cls-8"/><line x1="200.585" x2="288" y1="288" y2="237.531" class="cls-8"/><line x1="236.585" x2="288" y1="288" y2="258.315" class="cls-8"/><line x1="272.585" x2="288" y1="288" y2="279.1" class="cls-8"/><line x1="195.415" y1="288" y2="175.177" class="cls-8"/><line x1="159.415" y1="288" y2="195.962" class="cls-8"/><line x1="123.415" y1="288" y2="216.746" class="cls-8"/><line x1="87.415" y1="288" y2="237.531" class="cls-8"/><line x1="51.415" y1="288" y2="258.315" class="cls-8"/><line x1="15.415" y1="288" y2="279.1" class="cls-8"/><line x1="231.415" y1="288" y2="154.392" class="cls-8"/><line x1="267.415" y1="288" y2="133.608" class="cls-8"/><line x1="288" y1="279.1" y2="112.823" class="cls-8"/><line x1="288" y1="258.315" y2="92.038" class="cls-8"/><line x1="288" y1="237.531" y2="71.254" class="cls-8"/><line x1="288" y1="216.746" y2="50.469" class="cls-8"/><line x1="288" y1="195.962" y2="29.685" class="cls-8"/></g><path d="M-3.466,177.173l75.471-43.551,54-31.175a36,36,0,0,1,36,0l54,31.176,75.467,43.55L290,290H-2Z" class="cls-2"/><rect width="288" height="92.038" class="cls-9"/><path d="M0,195.957,90.064,144a108.013,108.013,0,0,1,108,0l90,51.961" class="cls-10"/><path d="M0,216.742l126-72.727h0a36,36,0,0,1,36,0h0L288,216.74" class="cls-10"/><path d="M0,237.526l108-62.353a71.993,71.993,0,0,1,71.992,0l108,62.354" class="cls-10"/><path d="M0,258.312l126-72.731h0a35.992,35.992,0,0,1,35.995,0h0l126,72.727" class="cls-10"/><path d="M126,185.579a35.994,35.994,0,0,1,35.995,0" class="cls-11"/><path d="M126,144.013a36,36,0,0,1,36,0" class="cls-11"/><path d="M90.064,144a108.013,108.013,0,0,1,108,0" class="cls-11"/><rect width="4" height="4" x="87.999" y="141.997" class="cls-12"/><rect width="4" height="4" x="196" y="141.997" class="cls-12"/><path d="M108,175.173a71.993,71.993,0,0,1,71.992,0" class="cls-11"/><rect width="4" height="4" x="106.004" y="173.173" class="cls-12"/><rect width="4" height="4" x="177.996" y="173.173" class="cls-12"/><path d="M126,102.446a35.993,35.993,0,0,1,36,0" class="cls-11"/><rect width="4" height="4" x="124.002" y="183.581" class="cls-12"/><rect width="4" height="4" x="159.999" y="183.581" class="cls-12"/><rect width="4" height="4" x="124.002" y="142.013" class="cls-12"/><rect width="4" height="4" x="159.999" y="142.013" class="cls-12"/><rect width="4" height="4" x="124.002" y="100.446" class="cls-12"/><rect width="4" height="4" x="159.999" y="100.446" class="cls-12"/></g></g></svg>