<svg xmlns="http://www.w3.org/2000/svg" xmlns:xlink="http://www.w3.org/1999/xlink" viewBox="0 0 288 288"><defs><style>.cls-1,.cls-4,.cls-7,.cls-8{fill:none}.cls-2,.cls-9{fill:#fff}.cls-3{clip-path:url(#clip-path)}.cls-4{stroke:#e0e0e0}.cls-4,.cls-7{stroke-linecap:round}.cls-4,.cls-7,.cls-8,.cls-9{stroke-miterlimit:10}.cls-5{fill:#d0e2ff}.cls-6{clip-path:url(#clip-path-2)}.cls-7{stroke:#a6c8ff}.cls-8,.cls-9{stroke:#d12771}</style><clipPath id="clip-path"><rect width="288" height="288" class="cls-1"/></clipPath><clipPath id="clip-path-2"><path d="M0,110.528c46.106,8.18,89.519,22.8,126,43.864,63.569,36.7,93.263,85.554,89.083,133.608H0Z" class="cls-1"/></clipPath></defs><title>Artboard 2 copy 41_Export_Two</title><g id="Layer_3" data-name="Layer 3"><rect width="288" height="288" class="cls-2"/><g class="cls-3"><line x1="36" x2="36" y2="288" class="cls-4"/><line x1="108" x2="108" y2="288" class="cls-4"/><line x1="180" x2="180" y2="288" class="cls-4"/><line x1="252" x2="252" y2="288" class="cls-4"/><line x1="72" x2="72" y2="288" class="cls-4"/><line x1="216" x2="216" y2="288" class="cls-4"/><line x1="110.585" x2="288" y1="288" y2="185.569" class="cls-4"/><line x1="254.585" x2="288" y1="288" y2="268.708" class="cls-4"/><line x1="254.585" x2="288" y1="288" y2="268.708" class="cls-4"/><line x1="110.585" x2="288" y1="288" y2="185.569" class="cls-4"/><line x1="177.415" y2="102.431" class="cls-4"/><line x1="33.415" y2="19.292" class="cls-4"/><line x1="33.415" y2="19.292" class="cls-4"/><line x1="177.415" y2="102.431" class="cls-4"/><line x2="288" y1="268.708" y2="102.431" class="cls-4"/><line x2="288" y1="185.569" y2="19.292" class="cls-4"/><line x1="177.415" y1="288" y2="185.569" class="cls-4"/><line x1="33.415" y1="288" y2="268.708" class="cls-4"/><line x1="33.415" y1="288" y2="268.708" class="cls-4"/><line x1="177.415" y1="288" y2="185.569" class="cls-4"/><line x1="110.585" x2="288" y2="102.431" class="cls-4"/><line x1="254.585" x2="288" y2="19.292" class="cls-4"/><line x1="254.585" x2="288" y2="19.292" class="cls-4"/><line x1="110.585" x2="288" y2="102.431" class="cls-4"/><line x1="288" y1="268.708" y2="102.431" class="cls-4"/><line x1="288" y1="185.569" y2="19.292" class="cls-4"/><line x1="249.415" y1="288" y2="144" class="cls-4"/><line x1="288" x2="38.585" y1="144" class="cls-4"/><line x1="38.585" x2="288" y1="288" y2="144" class="cls-4"/><line x2="249.415" y1="144" class="cls-4"/><line x1="105.415" y1="288" y2="227.138" class="cls-4"/><line x1="182.585" x2="288" y2="60.862" class="cls-4"/><line x1="288" y1="227.138" y2="60.862" class="cls-4"/><line x1="182.585" x2="288" y1="288" y2="227.138" class="cls-4"/><line x1="105.415" y2="60.862" class="cls-4"/><line x2="288" y1="227.138" y2="60.862" class="cls-4"/><line x1="144" x2="144" y2="288" class="cls-4"/><path d="M0,110.528c46.106,8.18,89.519,22.8,126,43.864,63.569,36.7,93.263,85.554,89.083,133.608H0Z" class="cls-5"/><g class="cls-6"><line x1="36" x2="36" y2="288" class="cls-7"/><line x1="108" x2="108" y2="288" class="cls-7"/><line x1="180" x2="180" y2="288" class="cls-7"/><line x1="252" x2="252" y2="288" class="cls-7"/><line x1="72" x2="72" y2="288" class="cls-7"/><line x1="216" x2="216" y2="288" class="cls-7"/><line x1="110.585" x2="288" y1="288" y2="185.569" class="cls-7"/><line x1="254.585" x2="288" y1="288" y2="268.708" class="cls-7"/><line x1="254.585" x2="288" y1="288" y2="268.708" class="cls-7"/><line x1="110.585" x2="288" y1="288" y2="185.569" class="cls-7"/><line x1="177.415" y2="102.431" class="cls-7"/><line x1="33.415" y2="19.292" class="cls-7"/><line x1="33.415" y2="19.292" class="cls-7"/><line x1="177.415" y2="102.431" class="cls-7"/><line x2="288" y1="268.708" y2="102.431" class="cls-7"/><line x2="288" y1="185.569" y2="19.292" class="cls-7"/><line x1="177.415" y1="288" y2="185.569" class="cls-7"/><line x1="33.415" y1="288" y2="268.708" class="cls-7"/><line x1="33.415" y1="288" y2="268.708" class="cls-7"/><line x1="177.415" y1="288" y2="185.569" class="cls-7"/><line x1="110.585" x2="288" y2="102.431" class="cls-7"/><line x1="254.585" x2="288" y2="19.292" class="cls-7"/><line x1="254.585" x2="288" y2="19.292" class="cls-7"/><line x1="110.585" x2="288" y2="102.431" class="cls-7"/><line x1="288" y1="268.708" y2="102.431" class="cls-7"/><line x1="288" y1="185.569" y2="19.292" class="cls-7"/><line x1="249.415" y1="288" y2="144" class="cls-7"/><line x1="288" x2="38.585" y1="144" class="cls-7"/><line x1="38.585" x2="288" y1="288" y2="144" class="cls-7"/><line x2="249.415" y1="144" class="cls-7"/><line x1="105.415" y1="288" y2="227.138" class="cls-7"/><line x1="182.585" x2="288" y2="60.862" class="cls-7"/><line x1="288" y1="227.138" y2="60.862" class="cls-7"/><line x1="182.585" x2="288" y1="288" y2="227.138" class="cls-7"/><line x1="105.415" y2="60.862" class="cls-7"/><line x2="288" y1="227.138" y2="60.862" class="cls-7"/><line x1="144" x2="144" y2="288" class="cls-7"/></g><path d="M215.083,288c4.18-48.054-25.514-96.906-89.083-133.608C89.519,133.33,46.106,118.708,0,110.528" class="cls-8"/><rect width="12" height="12" x="120.029" y="148.378" class="cls-9"/></g></g></svg>