<svg xmlns="http://www.w3.org/2000/svg" xmlns:xlink="http://www.w3.org/1999/xlink" viewBox="0 0 288 288"><defs><style>.cls-1,.cls-4,.cls-5,.cls-6{fill:none}.cls-2{fill:#fff}.cls-3{clip-path:url(#clip-path)}.cls-4,.cls-5{stroke:#f4f4f4;stroke-linecap:round;stroke-miterlimit:10}.cls-5{stroke:#e0e0e0}.cls-6{stroke:#d12771;stroke-linejoin:round}</style><clipPath id="clip-path"><rect width="288" height="288" class="cls-1"/></clipPath></defs><title>Artboard 2 copy 13_Export_Two</title><g id="Layer_3" data-name="Layer 3"><rect width="288" height="288" class="cls-2"/><g class="cls-3"><line x1="9" x2="9" y2="288" class="cls-4"/><line x1="18" x2="18" y2="288" class="cls-4"/><line x1="27" x2="27" y2="288" class="cls-4"/><line x1="36" x2="36" y2="288" class="cls-4"/><line x1="45" x2="45" y2="288" class="cls-4"/><line x1="54" x2="54" y2="288" class="cls-4"/><line x1="63" x2="63" y2="288" class="cls-4"/><line x1="81" x2="81" y2="288" class="cls-4"/><line x1="90" x2="90" y2="288" class="cls-4"/><line x1="99" x2="99" y2="288" class="cls-4"/><line x1="108" x2="108" y2="288" class="cls-4"/><line x1="117" x2="117" y2="288" class="cls-4"/><line x1="126" x2="126" y2="288" class="cls-4"/><line x1="135" x2="135" y2="288" class="cls-4"/><line x1="153" x2="153" y2="288" class="cls-4"/><line x1="162" x2="162" y2="288" class="cls-4"/><line x1="171" x2="171" y2="288" class="cls-4"/><line x1="180" x2="180" y2="288" class="cls-4"/><line x1="189" x2="189" y2="288" class="cls-4"/><line x1="198" x2="198" y2="288" class="cls-4"/><line x1="207" x2="207" y2="288" class="cls-4"/><line x1="225" x2="225" y2="288" class="cls-4"/><line x1="234" x2="234" y2="288" class="cls-4"/><line x1="243" x2="243" y2="288" class="cls-4"/><line x1="252" x2="252" y2="288" class="cls-4"/><line x1="261" x2="261" y2="288" class="cls-4"/><line x1="270" x2="270" y2="288" class="cls-4"/><line x1="279" x2="279" y2="288" class="cls-4"/><line x1="56.585" x2="288" y1="288" y2="154.392" class="cls-4"/><line x1="74.585" x2="288" y1="288" y2="164.785" class="cls-4"/><line x1="92.585" x2="288" y1="288" y2="175.177" class="cls-4"/><line x1="110.585" x2="288" y1="288" y2="185.569" class="cls-4"/><line x1="128.585" x2="288" y1="288" y2="195.962" class="cls-4"/><line x1="146.585" x2="288" y1="288" y2="206.354" class="cls-4"/><line x1="164.585" x2="288" y1="288" y2="216.746" class="cls-4"/><line x1="200.585" x2="288" y1="288" y2="237.531" class="cls-4"/><line x1="218.585" x2="288" y1="288" y2="247.923" class="cls-4"/><line x1="236.585" x2="288" y1="288" y2="258.315" class="cls-4"/><line x1="254.585" x2="288" y1="288" y2="268.708" class="cls-4"/><line x1="254.585" x2="288" y1="288" y2="268.708" class="cls-4"/><line x1="272.585" x2="288" y1="288" y2="279.1" class="cls-4"/><line x1="110.585" x2="288" y1="288" y2="185.569" class="cls-4"/><line x1="231.415" y2="133.608" class="cls-4"/><line x1="213.415" y2="123.215" class="cls-4"/><line x1="195.415" y2="112.823" class="cls-4"/><line x1="177.415" y2="102.431" class="cls-4"/><line x1="159.415" y2="92.038" class="cls-4"/><line x1="141.415" y2="81.646" class="cls-4"/><line x1="123.415" y2="71.254" class="cls-4"/><line x1="87.415" y2="50.469" class="cls-4"/><line x1="69.415" y2="40.077" class="cls-4"/><line x1="51.415" y2="29.685" class="cls-4"/><line x1="33.415" y2="19.292" class="cls-4"/><line x1="33.415" y2="19.292" class="cls-4"/><line x1="15.415" y2="8.9" class="cls-4"/><line x1="177.415" y2="102.431" class="cls-4"/><line x1="20.585" x2="288" y1="288" y2="133.608" class="cls-4"/><line x1="2.585" x2="288" y1="288" y2="123.215" class="cls-4"/><line x2="288" y1="279.1" y2="112.823" class="cls-4"/><line x2="288" y1="268.708" y2="102.431" class="cls-4"/><line x2="288" y1="258.315" y2="92.038" class="cls-4"/><line x2="288" y1="247.923" y2="81.646" class="cls-4"/><line x2="288" y1="237.531" y2="71.254" class="cls-4"/><line x2="288" y1="216.746" y2="50.469" class="cls-4"/><line x2="288" y1="206.354" y2="40.077" class="cls-4"/><line x2="288" y1="195.962" y2="29.685" class="cls-4"/><line x2="288" y1="185.569" y2="19.292" class="cls-4"/><line x2="288" y1="175.177" y2="8.9" class="cls-4"/><line x2="285.415" y1="164.785" class="cls-4"/><line x2="267.415" y1="154.392" class="cls-4"/><line x1="231.415" y1="288" y2="154.392" class="cls-4"/><line x1="213.415" y1="288" y2="164.785" class="cls-4"/><line x1="195.415" y1="288" y2="175.177" class="cls-4"/><line x1="177.415" y1="288" y2="185.569" class="cls-4"/><line x1="159.415" y1="288" y2="195.962" class="cls-4"/><line x1="141.415" y1="288" y2="206.354" class="cls-4"/><line x1="123.415" y1="288" y2="216.746" class="cls-4"/><line x1="87.415" y1="288" y2="237.531" class="cls-4"/><line x1="69.415" y1="288" y2="247.923" class="cls-4"/><line x1="51.415" y1="288" y2="258.315" class="cls-4"/><line x1="33.415" y1="288" y2="268.708" class="cls-4"/><line x1="33.415" y1="288" y2="268.708" class="cls-4"/><line x1="15.415" y1="288" y2="279.1" class="cls-4"/><line x1="177.415" y1="288" y2="185.569" class="cls-4"/><line x1="56.585" x2="288" y2="133.608" class="cls-4"/><line x1="74.585" x2="288" y2="123.215" class="cls-4"/><line x1="92.585" x2="288" y2="112.823" class="cls-4"/><line x1="110.585" x2="288" y2="102.431" class="cls-4"/><line x1="128.585" x2="288" y2="92.038" class="cls-4"/><line x1="146.585" x2="288" y2="81.646" class="cls-4"/><line x1="164.585" x2="288" y2="71.254" class="cls-4"/><line x1="200.585" x2="288" y2="50.469" class="cls-4"/><line x1="218.585" x2="288" y2="40.077" class="cls-4"/><line x1="236.585" x2="288" y2="29.685" class="cls-4"/><line x1="254.585" x2="288" y2="19.292" class="cls-4"/><line x1="254.585" x2="288" y2="19.292" class="cls-4"/><line x1="272.585" x2="288" y2="8.9" class="cls-4"/><line x1="110.585" x2="288" y2="102.431" class="cls-4"/><line x1="267.415" y1="288" y2="133.608" class="cls-4"/><line x1="285.415" y1="288" y2="123.215" class="cls-4"/><line x1="288" y1="279.1" y2="112.823" class="cls-4"/><line x1="288" y1="268.708" y2="102.431" class="cls-4"/><line x1="288" y1="258.315" y2="92.038" class="cls-4"/><line x1="288" y1="247.923" y2="81.646" class="cls-4"/><line x1="288" y1="237.531" y2="71.254" class="cls-4"/><line x1="288" y1="216.746" y2="50.469" class="cls-4"/><line x1="288" y1="206.354" y2="40.077" class="cls-4"/><line x1="288" y1="195.962" y2="29.685" class="cls-4"/><line x1="288" y1="185.569" y2="19.292" class="cls-4"/><line x1="288" y1="175.177" y2="8.9" class="cls-4"/><line x1="288" x2="2.585" y1="164.785" class="cls-4"/><line x1="288" x2="20.585" y1="154.392" class="cls-4"/><line x1="105.415" y1="288" y2="227.138" class="cls-5"/><line x1="182.585" x2="288" y2="60.862" class="cls-5"/><line x1="249.415" y1="288" y2="144" class="cls-5"/><line x1="288" y1="227.138" y2="60.862" class="cls-5"/><line x1="288" x2="38.585" y1="144" class="cls-5"/><line x1="182.585" x2="288" y1="288" y2="227.138" class="cls-5"/><line x1="105.415" y2="60.862" class="cls-5"/><line x1="38.585" x2="288" y1="288" y2="144" class="cls-5"/><line x2="288" y1="227.138" y2="60.862" class="cls-5"/><line x2="249.415" y1="144" class="cls-5"/><line x1="72" x2="72" y2="288" class="cls-5"/><line x1="144" x2="144" y2="288" class="cls-5"/><line x1="216" x2="216" y2="288" class="cls-5"/></g><polygon points="215.952 268.711 71.963 185.579 71.963 19.315 215.952 102.447 215.952 268.711" class="cls-6"/><ellipse cx="144.009" cy="144.043" class="cls-6" rx="58.783" ry="101.816" transform="translate(-52.728 91.303) rotate(-30)"/><line x1="71.963" x2="215.952" y1="19.315" y2="268.711" class="cls-6"/><line x1="71.963" x2="215.952" y1="185.579" y2="102.447" class="cls-6"/></g></svg>