<svg xmlns="http://www.w3.org/2000/svg" xmlns:xlink="http://www.w3.org/1999/xlink" viewBox="0 0 288 288"><defs><style>.cls-1,.cls-4,.cls-5{fill:none}.cls-2,.cls-6{fill:#fff}.cls-3{clip-path:url(#clip-path)}.cls-4{stroke:#e0e0e0}.cls-4,.cls-5{stroke-linejoin:round}.cls-4,.cls-5,.cls-6{stroke-width:2px}.cls-5,.cls-6{stroke:#d12771}.cls-6{stroke-miterlimit:10}</style><clipPath id="clip-path"><rect width="288" height="288" class="cls-1"/></clipPath></defs><title>Artboard 2 copy 16_Export_Two</title><g id="Layer_3" data-name="Layer 3"><rect width="288" height="288" class="cls-2"/><g class="cls-3"><polyline points="52.351 298.329 52.351 56.405 471.226 298.243" class="cls-4"/><path d="M471.378,540.168c0-133.564-93.769-295.977-209.439-362.759S52.5,164.765,52.5,298.329" class="cls-4"/><line x1="52.351" x2="113.768" y1="56.405" y2="162.784" class="cls-4"/><polyline points="104.711 298.329 104.711 26.175 523.586 268.013" class="cls-4"/><path d="M523.738,509.938c0-133.564-93.769-295.977-209.438-362.759S104.861,134.535,104.861,268.1" class="cls-4"/><line x1="104.711" x2="166.129" y1="26.175" y2="132.554" class="cls-4"/><line x1="113.768" x2="200.729" y1="162.784" y2="313.404" class="cls-5"/><line x1="166.129" x2="270.528" y1="132.554" y2="313.379" class="cls-5"/><line x1="113.768" x2="166.129" y1="162.784" y2="132.554" class="cls-5"/><rect width="8" height="8" x="109.844" y="158.74" class="cls-6"/><rect width="8" height="8" x="162.129" y="128.554" class="cls-6"/></g></g></svg>