<?xml version="1.0" encoding="UTF-8"?>
<svg width="288px" height="544px" viewBox="0 0 288 544" version="1.1" xmlns="http://www.w3.org/2000/svg" xmlns:xlink="http://www.w3.org/1999/xlink">
    <!-- Generator: Sketch 61 (89581) - https://sketch.com -->
    <title>11_Gradients_1-mobile-1.svg</title>
    <desc>Created with Sketch.</desc>
    <defs>
        <linearGradient x1="0%" y1="97.9087436%" x2="100%" y2="2.04553944%" id="linearGradient-1">
            <stop stop-color="#FB4B53" offset="0%"></stop>
            <stop stop-color="#FFA0C2" offset="100%"></stop>
        </linearGradient>
        <linearGradient x1="-1.60618276%" y1="94.7632561%" x2="101.276078%" y2="5.20425051%" id="linearGradient-2">
            <stop stop-color="#EE538B" offset="0%"></stop>
            <stop stop-color="#408BFC" offset="100%"></stop>
        </linearGradient>
        <linearGradient x1="-2.081263%" y1="102.248482%" x2="102.140307%" y2="-1.93074799%" id="linearGradient-3">
            <stop stop-color="#007D79" offset="0%"></stop>
            <stop stop-color="#3DBB61" offset="100%"></stop>
        </linearGradient>
        <linearGradient x1="98.8661659%" y1="-2.28026243%" x2="1.29232228%" y2="101.93187%" id="linearGradient-4">
            <stop stop-color="#007D79" offset="0%"></stop>
            <stop stop-color="#1191E6" offset="100%"></stop>
        </linearGradient>
        <linearGradient x1="-2.38126024%" y1="99.8888388%" x2="102.482127%" y2="0.775121372%" id="linearGradient-5">
            <stop stop-color="#0062FF" offset="0%"></stop>
            <stop stop-color="#BB8EFF" offset="100%"></stop>
        </linearGradient>
        <linearGradient x1="-1.98949123%" y1="101.892818%" x2="101.695291%" y2="-1.89263152%" id="linearGradient-6">
            <stop stop-color="#0062FF" offset="0%"></stop>
            <stop stop-color="#009C98" offset="100%"></stop>
        </linearGradient>
        <linearGradient x1="3.83143958%" y1="101.333289%" x2="93.3939648%" y2="-1.56514291%" id="linearGradient-7">
            <stop stop-color="#FB4B53" offset="0%"></stop>
            <stop stop-color="#FFA0C2" offset="100%"></stop>
        </linearGradient>
        <linearGradient x1="105.471948%" y1="-5.41496395%" x2="-5.42159045%" y2="105.385818%" id="linearGradient-8">
            <stop stop-color="#408BFC" offset="0%"></stop>
            <stop stop-color="#EE538B" offset="100%"></stop>
        </linearGradient>
    </defs>
    <g id="11_Gradients_1-mobile-1.svg" stroke="none" stroke-width="1" fill="none" fill-rule="evenodd">
        <rect id="Rectangle-3-Copy-81" fill="#FFFFFF" x="0" y="0" width="288" height="544"></rect>
        <g id="Group-4-Copy-19" transform="translate(44.000000, 42.000000)">
            <polygon id="Fill-1" fill="#FFFFFF" points="0 79 79 79 79 0 0 0"></polygon>
            <path d="M5.82378125,75.6400313 L28.7337812,75.6400313 L28.7337812,70.01375 L5.82378125,70.01375 L5.82378125,75.6400313 Z M3.38959375,64.1307187 L5.480625,68.2337812 L29.0794062,68.2337812 L31.1235312,64.2220625 L28.7140312,57.6724688 L5.7916875,57.6724688 L3.38959375,64.1307187 Z M40.38875,75.6400312 L73.17375,75.6400312 L73.17375,74.0550937 C73.17375,69.1003125 69.1422812,65.0688437 64.1875,65.0688437 L49.375,65.0688437 C44.4202187,65.0688437 40.38875,69.1003125 40.38875,74.0550937 L40.38875,75.6400312 Z M47.5135625,63.4789688 C48.120875,63.3728125 48.7380625,63.2913438 49.375,63.2913438 L64.1875,63.2913438 C64.8244375,63.2913438 65.441625,63.3728125 66.0489375,63.4789688 L68.15725,56.8750625 L58.4772813,39.9394375 C58.3069375,39.6407188 58.3242188,39.2704063 58.51925,38.9889688 C58.7142813,38.7075313 59.0525,38.5668125 59.3956563,38.621125 L73.558875,40.9837188 L75.4203125,37.2608438 L61.3953438,25.5737813 L56.78125,25.5737813 C56.2899688,25.5737813 55.8925,25.1763125 55.8925,24.6850313 L55.8925,19.1920625 L50.1822813,24.016 C47.479,26.7168125 45.6990313,29.8274375 45.3879688,36.1400313 L49.375,36.1400313 L49.375,37.9175313 L45.3311875,37.9175313 C45.3311875,38.0014688 45.3237813,38.0705938 45.3237813,38.1520625 L45.3237813,43.5462813 L49.375,43.5462813 L49.375,45.3237813 L45.3237813,45.3237813 L45.3237813,50.9525313 L49.375,50.9525313 L49.375,52.7300313 L45.3237813,52.7300313 L45.3237813,56.643 L47.5135625,63.4789688 Z M79,75.6400312 L79,77.4175312 L0,77.4175312 L0,75.6400312 L4.04875,75.6400312 L4.04875,69.3373125 L1.62690625,64.5874375 C1.51334375,64.36525 1.49853125,64.1085 1.58740625,63.8739688 L3.89321875,57.6724688 L2.46875,57.6724688 L2.46875,55.8949688 L4.5573125,55.8949688 L8.98625,43.993125 L8.98625,32.0912813 L10.7612812,32.0912813 L10.7612812,44.1535938 C10.7612812,44.25975 10.744,44.3634375 10.7069687,44.4646563 L6.4533125,55.8949688 L28.0598125,55.8949688 L23.8530625,44.4597188 C23.8160313,44.3634375 23.79875,44.2572813 23.79875,44.1535938 L23.79875,32.0912813 L25.5737812,32.0912813 L25.5737812,43.993125 L29.9533438,55.8949688 L32.09375,55.8949688 L32.09375,57.6724688 L30.6075625,57.6724688 L32.9257188,63.9727188 C33.012125,64.2047813 32.9973125,64.4615313 32.88375,64.68125 L30.5112812,69.3373125 L30.5112812,75.6400312 L38.61125,75.6400312 L38.61125,74.0550937 C38.61125,69.38175 41.6255938,65.43175 45.7977813,63.9480312 L43.58825,57.0528125 C43.5610937,56.9664063 43.5462812,56.8750625 43.5462812,56.7837188 L43.5462812,38.1520625 C43.5462812,29.812625 45.6249688,26.060125 48.98,22.7050938 L56.2060312,16.599875 C56.4701875,16.3752188 56.8355625,16.3258438 57.1540313,16.4739688 C57.4675625,16.6171563 57.6675313,16.9331563 57.6675313,17.2787813 L57.6675313,23.7962813 L61.71875,23.7962813 C61.9236563,23.7962813 62.1285625,23.8703438 62.2865625,24.0036563 L77.0990625,36.3474062 C77.4150625,36.6090938 77.508875,37.0584063 77.3237187,37.42625 L74.8549687,42.36375 C74.6796875,42.7118438 74.2995,42.9044063 73.914375,42.8426875 L60.9485,40.6825313 L69.89525,56.3319375 C70.0186875,56.5491875 70.0458438,56.8084063 69.9693125,57.0429375 L67.7647188,63.9480312 C71.9369062,65.43175 74.95125,69.38175 74.95125,74.0550937 L74.95125,75.6400312 L79,75.6400312 Z M13.2325,6.5125625 L21.33,6.5125625 L21.33,3.35503125 L13.2325,3.35503125 L13.2325,6.5125625 Z M27.9487187,12.73875 L25.5737812,17.488625 L25.5737812,22.2162813 L23.79875,22.2162813 L23.79875,17.2787813 C23.79875,17.1405313 23.828375,17.00475 23.8925625,16.8813125 L26.1613438,12.3412813 L24.1369688,8.29253125 L22.21875,8.29253125 L12.34375,8.29253125 L10.4230625,8.29253125 L8.3986875,12.3412813 L10.6674687,16.8813125 C10.7316563,17.00475 10.7612812,17.1405313 10.7612812,17.2787813 L10.7612812,22.2162813 L8.98625,22.2162813 L8.98625,17.488625 L6.6113125,12.73875 C6.48540625,12.4894063 6.48540625,12.1931563 6.6113125,11.9438125 L9.0800625,7.0063125 C9.2281875,6.705125 9.53678125,6.51503125 9.875,6.51503125 L11.455,6.51503125 L11.455,2.46628125 C11.455,1.975 11.8524687,1.57753125 12.34375,1.57753125 L22.21875,1.57753125 C22.7075625,1.57753125 23.1050312,1.975 23.1050312,2.46628125 L23.1050312,6.51503125 L24.6875,6.51503125 C25.02325,6.51503125 25.3318438,6.705125 25.4799688,7.0063125 L27.9487187,11.9438125 C28.074625,12.1931563 28.074625,12.4894063 27.9487187,12.73875 L27.9487187,12.73875 Z M12.34375,13.2325 L22.21875,13.2325 L22.21875,11.4525312 L12.34375,11.4525312 L12.34375,13.2325 Z M7.3025625,28.0425313 L27.15625,28.0425313 L27.15625,26.2625625 L7.3025625,26.2625625 L7.3025625,28.0425313 Z" id="Fill-2" fill="url(#linearGradient-1)"></path>
        </g>
        <g id="Group-4-Copy-20" transform="translate(165.000000, 42.000000)">
            <polygon id="Fill-1" fill="#FFFFFF" points="0 79 79 79 79 0 0 0"></polygon>
            <path d="M19.1483656,26.893575 C19.4100531,27.0466375 19.7309906,27.051575 19.9976156,26.9108562 C20.2667094,26.7701375 20.4444594,26.5059812 20.4740844,26.2072625 C21.4122094,16.287825 29.8652094,8.21995 39.3180531,8.21995 C46.9538969,8.21995 54.0416781,13.2487937 56.9548031,20.7365125 C57.1276156,21.1808875 57.6188969,21.3956687 58.0706781,21.25495 C59.2680219,20.8476062 61.2010531,20.5637 62.7711781,20.5637 C69.8688344,20.5637 75.6432406,26.3356375 75.6432406,33.4332937 C75.6432406,40.3680125 69.9848656,45.86345 62.7711781,45.9399812 L13.9121469,45.9399812 C7.79705313,45.86345 3.35824063,41.7282937 3.35824063,36.1094187 C3.35824063,30.2584812 8.08836563,25.5012 13.9022719,25.5012 C15.7316156,25.5012 17.5486156,25.9826062 19.1483656,26.893575 L19.1483656,26.893575 Z M62.7810531,47.71995 C70.9896469,47.6286062 77.4207406,41.3530437 77.4207406,33.4332937 C77.4207406,25.3555437 70.8489281,18.7837312 62.7711781,18.7837312 C61.5318656,18.7837312 59.7790531,18.9565437 58.3002719,19.3342625 C54.9477094,11.5897938 47.4204906,6.43998125 39.3180531,6.43998125 C29.3838031,6.43998125 20.4617406,14.549825 18.8644594,24.7655125 C17.2992719,24.0792 15.6057094,23.7212312 13.9022719,23.7212312 C7.10827188,23.7212312 1.58074062,29.2808562 1.58074062,36.1094187 C1.58074062,42.7454187 6.75524062,47.6236687 13.9022719,47.71995 L62.7810531,47.71995 Z M48.9116156,72.1136688 L57.5522406,57.1481062 C57.7966469,56.7234812 57.6509906,56.1803562 57.2263656,55.93595 C56.8017406,55.6841375 56.2561469,55.8322625 56.0117406,56.261825 L47.3711156,71.2273875 C47.1267094,71.6520125 47.2723656,72.1951375 47.6945219,72.4395437 C47.8352406,72.5210125 47.9883031,72.5605125 48.1388969,72.5605125 C48.4474906,72.5605125 48.7462094,72.4025125 48.9116156,72.1136688 L48.9116156,72.1136688 Z M40.2685219,65.6998562 L45.2060219,57.1481062 C45.4528969,56.7234812 45.3072406,56.1803562 44.8826156,55.93595 C44.4579906,55.6841375 43.9123969,55.8322625 43.6679906,56.261825 L38.7304906,64.8111062 C38.4860844,65.2357313 38.6317406,65.7788562 39.0538969,66.0257312 C39.1946156,66.1072 39.3476781,66.1442312 39.4982719,66.1442312 C39.8068656,66.1442312 40.1055844,65.9862312 40.2685219,65.6998562 L40.2685219,65.6998562 Z M24.2241156,72.1136688 L32.8647406,57.1481062 C33.1091469,56.7234812 32.9634906,56.1803562 32.5388656,55.93595 C32.1142406,55.6841375 31.5686469,55.8322625 31.3242406,56.261825 L22.6836156,71.2273875 C22.4392094,71.6520125 22.5848656,72.1951375 23.0070219,72.4395437 C23.1477406,72.5210125 23.3008031,72.5605125 23.4513969,72.5605125 C23.7599906,72.5605125 24.0587094,72.4025125 24.2241156,72.1136688 L24.2241156,72.1136688 Z M14.8107719,66.1442312 C14.6601781,66.1442312 14.5071156,66.1072 14.3663969,66.0257312 C13.9442406,65.7788562 13.7985844,65.2357313 14.0429906,64.8111062 L18.9804906,56.261825 C19.2248969,55.8322625 19.7680219,55.6841375 20.1951156,55.93595 C20.6197406,56.1803562 20.7653969,56.7234812 20.5185219,57.1481062 L15.5810219,65.6998562 C15.4180844,65.9862312 15.1193656,66.1442312 14.8107719,66.1442312 L14.8107719,66.1442312 Z" id="Fill-2" fill="url(#linearGradient-2)"></path>
        </g>
        <g id="Group-4-Copy-24" transform="translate(165.000000, 167.000000)">
            <polygon id="Fill-1" fill="#FFFFFF" points="0 79 79 79 79 0 0 0"></polygon>
            <path d="M71.6105375,75.6392906 C69.3787875,75.6392906 67.5617875,73.8247594 67.5617875,71.5905406 C67.5617875,69.3587906 69.3787875,67.5442594 71.6105375,67.5442594 C73.8422875,67.5442594 75.6592875,69.3587906 75.6592875,71.5905406 C75.6592875,73.8247594 73.8422875,75.6392906 71.6105375,75.6392906 L71.6105375,75.6392906 Z M55.9117563,71.5905406 C55.9117563,73.8247594 54.0947563,75.6392906 51.8630062,75.6392906 C49.6312562,75.6392906 47.8142562,73.8247594 47.8142562,71.5905406 C47.8142562,69.3587906 49.6312562,67.5442594 51.8630062,67.5442594 C54.0947563,67.5442594 55.9117563,69.3587906 55.9117563,71.5905406 L55.9117563,71.5905406 Z M47.777225,43.5430719 L75.624725,43.5430719 L75.624725,35.4480406 L47.777225,35.4480406 L47.777225,43.5430719 Z M3.339725,43.5430719 L31.187225,43.5430719 L31.187225,35.4480406 L3.339725,35.4480406 L3.339725,43.5430719 Z M31.2193187,71.5905406 C31.2193187,73.8247594 29.4023187,75.6392906 27.1705687,75.6392906 C24.9388187,75.6392906 23.1218187,73.8247594 23.1218187,71.5905406 C23.1218187,69.3587906 24.9388187,67.5442594 27.1705687,67.5442594 C29.4023187,67.5442594 31.2193187,69.3587906 31.2193187,71.5905406 L31.2193187,71.5905406 Z M11.4693187,71.5905406 C11.4693187,73.8247594 9.65231875,75.6392906 7.42056875,75.6392906 C5.18881875,75.6392906 3.37181875,73.8247594 3.37181875,71.5905406 C3.37181875,69.3587906 5.18881875,67.5442594 7.42056875,67.5442594 C9.65231875,67.5442594 11.4693187,69.3587906 11.4693187,71.5905406 L11.4693187,71.5905406 Z M3.37181875,11.4567281 L75.6568187,11.4567281 L75.6568187,3.36169687 L3.37181875,3.36169687 L3.37181875,11.4567281 Z M72.464725,65.8506969 L72.464725,56.7780406 C72.464725,56.2867594 72.0672562,55.8892906 71.575975,55.8892906 L62.589725,55.8892906 L62.589725,45.3230406 L76.513475,45.3230406 C77.0047562,45.3230406 77.402225,44.9255719 77.402225,44.4318219 L77.402225,34.5568219 C77.402225,34.0655406 77.0047562,33.6680719 76.513475,33.6680719 L62.589725,33.6680719 L62.589725,22.2155406 C62.589725,21.7242594 62.1922562,21.3267906 61.700975,21.3267906 L40.3981312,21.3267906 L40.3981312,13.2366969 L76.5480375,13.2366969 C77.03685,13.2366969 77.4343187,12.8392281 77.4343187,12.3454781 L77.4343187,2.47047812 C77.4343187,1.97919688 77.03685,1.58172812 76.5480375,1.58172812 L2.4855375,1.58172812 C1.99425625,1.58172812 1.5967875,1.97919688 1.5967875,2.47047812 L1.5967875,12.3454781 C1.5967875,12.8392281 1.99425625,13.2366969 2.4855375,13.2366969 L38.6206313,13.2366969 L38.6206313,21.3267906 L17.263475,21.3267906 C16.7746625,21.3267906 16.374725,21.7242594 16.374725,22.2155406 L16.374725,33.6680719 L2.450975,33.6680719 C1.9621625,33.6680719 1.562225,34.0655406 1.562225,34.5568219 L1.562225,44.4318219 C1.562225,44.9255719 1.9621625,45.3230406 2.450975,45.3230406 L16.374725,45.3230406 L16.374725,55.8892906 L7.388475,55.8892906 C6.8996625,55.8892906 6.499725,56.2867594 6.499725,56.7780406 L6.499725,65.8556344 C3.72731875,66.3024781 1.59431875,68.6946969 1.59431875,71.5905406 C1.59431875,74.8048531 4.208725,77.4192594 7.42056875,77.4192594 C10.6324125,77.4192594 13.2468187,74.8048531 13.2468187,71.5905406 C13.2468187,68.6724781 11.081725,66.2703844 8.277225,65.8506969 L8.277225,57.6692594 L26.249725,57.6692594 L26.249725,65.8556344 C23.4773188,66.3024781 21.3443188,68.6946969 21.3443188,71.5905406 C21.3443188,74.8048531 23.958725,77.4192594 27.1705687,77.4192594 C30.3824125,77.4192594 32.9968188,74.8048531 32.9968188,71.5905406 C32.9968188,68.6724781 30.831725,66.2703844 28.027225,65.8506969 L28.027225,56.7780406 C28.027225,56.2867594 27.6297562,55.8892906 27.138475,55.8892906 L18.152225,55.8892906 L18.152225,45.3230406 L32.075975,45.3230406 C32.5672562,45.3230406 32.964725,44.9255719 32.964725,44.4318219 L32.964725,34.5568219 C32.964725,34.0655406 32.5672562,33.6680719 32.075975,33.6680719 L18.152225,33.6680719 L18.152225,23.1067594 L60.812225,23.1067594 L60.812225,33.6680719 L46.888475,33.6680719 C46.3996625,33.6680719 45.999725,34.0655406 45.999725,34.5568219 L45.999725,44.4318219 C45.999725,44.9255719 46.3996625,45.3230406 46.888475,45.3230406 L60.812225,45.3230406 L60.812225,55.8892906 L51.825975,55.8892906 C51.3371625,55.8892906 50.937225,56.2867594 50.937225,56.7780406 L50.937225,65.8581031 C48.1672875,66.3049469 46.0367562,68.6946969 46.0367562,71.5905406 C46.0367562,74.8048531 48.6511625,77.4192594 51.8630063,77.4192594 C55.07485,77.4192594 57.6892562,74.8048531 57.6892562,71.5905406 C57.6892562,68.6700094 55.5216938,66.2654469 52.714725,65.8506969 L52.714725,57.6692594 L70.687225,57.6692594 L70.687225,65.8581031 C67.9148187,66.3049469 65.7842875,68.6946969 65.7842875,71.5905406 C65.7842875,74.8048531 68.3986938,77.4192594 71.6105375,77.4192594 C74.8223812,77.4192594 77.4367875,74.8048531 77.4367875,71.5905406 C77.4367875,68.6724781 75.269225,66.2679156 72.464725,65.8506969 L72.464725,65.8506969 Z" id="Fill-2" fill="url(#linearGradient-3)"></path>
        </g>
        <g id="Group-4-Copy-21" transform="translate(44.000000, 167.000000)">
            <polygon id="Fill-1" points="0 79 79 79 79 0 0 0"></polygon>
            <path d="M35.076,18.6820187 L43.924,18.6820187 L48.348,11.0190187 L43.924,3.3584875 L35.076,3.3584875 L30.652,11.0190187 L35.076,18.6820187 Z M27.9265,32.8427687 L26.386,31.9564875 L33.5355,19.5707687 L28.85475,11.4633937 C28.69675,11.1893625 28.69675,10.8511437 28.85475,10.5771125 L33.79225,2.0253625 C33.95025,1.75133125 34.2465,1.57851875 34.5625,1.57851875 L44.4375,1.57851875 C44.7535,1.57851875 45.04975,1.75133125 45.20775,2.0253625 L50.14525,10.5771125 C50.30325,10.8511437 50.30325,11.1893625 50.14525,11.4633937 L45.20775,20.0151437 C45.04975,20.289175 44.7535,20.4619875 44.4375,20.4619875 L35.076,20.4619875 L27.9265,32.8427687 Z M59.7388125,32.9242375 L68.5868125,32.9242375 L73.0132813,25.2612375 L68.5868125,17.5982375 L59.7388125,17.5982375 L55.3148125,25.2612375 L59.7388125,32.9242375 Z M69.1003125,34.7017375 L59.2253125,34.7017375 C58.9093125,34.7017375 58.6155313,34.5313938 58.4575313,34.2573625 L53.7743125,26.1499875 L39.4753125,26.1499875 L39.4753125,24.3724875 L53.7743125,24.3724875 L58.4550625,16.2651125 C58.6155313,15.9886125 58.9093125,15.8182687 59.2253125,15.8182687 L69.1003125,15.8182687 C69.4187812,15.8182687 69.7125625,15.9886125 69.8705625,16.2651125 L74.8080625,24.8168625 C74.9660625,25.0933625 74.9660625,25.4291125 74.8080625,25.7056125 L69.8705625,34.2573625 C69.7125625,34.5313938 69.4187812,34.7017375 69.1003125,34.7017375 L69.1003125,34.7017375 Z M10.4131875,32.9242375 L19.2611875,32.9242375 L23.6851875,25.2612375 L19.2611875,17.5982375 L10.4131875,17.5982375 L5.98671875,25.2612375 L10.4131875,32.9242375 Z M26.4106875,47.0849875 L19.2611875,34.7017375 L9.8996875,34.7017375 C9.58121875,34.7017375 9.2874375,34.5313937 9.1294375,34.2573625 L4.1919375,25.7056125 C4.0339375,25.4291125 4.0339375,25.0933625 4.1919375,24.8168625 L9.1294375,16.2651125 C9.2874375,15.9886125 9.58121875,15.8182687 9.8996875,15.8182687 L19.7746875,15.8182687 C20.0906875,15.8182687 20.3844687,15.9886125 20.5449375,16.2651125 L25.4824375,24.8168625 C25.6404375,25.0933625 25.6404375,25.4291125 25.4799688,25.7056125 L20.7992188,33.8129875 L27.9511875,46.1987062 L26.4106875,47.0849875 Z M10.4131875,61.4037375 L19.2611875,61.4037375 L23.6851875,53.7382687 L19.2611875,46.0777375 L10.4131875,46.0777375 L5.98671875,53.7382687 L10.4131875,61.4037375 Z M19.7746875,63.1812375 L9.8996875,63.1812375 C9.58121875,63.1812375 9.2874375,63.0108938 9.1294375,62.7368625 L4.1919375,54.1826438 C4.0339375,53.9086125 4.0339375,53.5703938 4.1919375,53.2963625 L9.1294375,44.7446125 C9.2874375,44.4681125 9.58121875,44.2977688 9.8996875,44.2977688 L19.7746875,44.2977688 C20.0906875,44.2977688 20.3844688,44.4681125 20.5424688,44.7446125 L25.2256875,52.8495188 L39.5246875,52.8495188 L39.5246875,54.6294875 L25.2256875,54.6294875 L20.5449375,62.7368625 C20.3844688,63.0108938 20.0906875,63.1812375 19.7746875,63.1812375 L19.7746875,63.1812375 Z M59.7388125,61.4037375 L68.5868125,61.4037375 L73.0132813,53.7382687 L68.5868125,46.0777375 L59.7388125,46.0777375 L55.3148125,53.7382687 L59.7388125,61.4037375 Z M69.1003125,63.1812375 L59.2253125,63.1812375 C58.9093125,63.1812375 58.6155313,63.0108937 58.4550625,62.7368625 L53.5175625,54.1826437 C53.3595625,53.9086125 53.3595625,53.5703938 53.5200313,53.2963625 L58.2007813,45.1865187 L51.0488125,32.8032687 L52.5893125,31.9145187 L59.7388125,44.2977687 L69.1003125,44.2977687 C69.4187813,44.2977687 69.7125625,44.4681125 69.8705625,44.7446125 L74.8080625,53.2963625 C74.9660625,53.5703938 74.9660625,53.9086125 74.8080625,54.1826437 L69.8705625,62.7368625 C69.7125625,63.0108937 69.4187813,63.1812375 69.1003125,63.1812375 L69.1003125,63.1812375 Z M35.076,75.6410188 L43.924,75.6410188 L48.348,67.9804875 L43.924,60.3174875 L35.076,60.3174875 L30.652,67.9804875 L35.076,75.6410188 Z M44.4375,77.4209875 L34.5625,77.4209875 C34.2465,77.4209875 33.95025,77.2506437 33.79225,76.9741437 L28.85475,68.4223937 C28.69675,68.1483625 28.69675,67.8101437 28.85475,67.5361125 L33.79225,58.9843625 C33.95025,58.7103312 34.2465,58.5399875 34.5625,58.5399875 L43.924,58.5399875 L51.0735,46.1567375 L52.614,47.0430187 L45.4645,59.4287375 L50.14525,67.5361125 C50.30325,67.8101437 50.30325,68.1483625 50.14525,68.4223937 L45.20775,76.9741437 C45.04975,77.2506437 44.7535,77.4209875 44.4375,77.4209875 L44.4375,77.4209875 Z" id="Fill-2" fill="url(#linearGradient-4)"></path>
        </g>
        <polygon id="Fill-1" fill="#FFFFFF" points="45 377 124 377 124 298 45 298"></polygon>
        <path d="M115.705,372.0625 L117.4825,372.0625 L117.4825,367.125 L115.705,367.125 L115.705,372.0625 Z M105.83,372.0625 L107.6075,372.0625 L107.6075,367.125 L105.83,367.125 L105.83,372.0625 Z M115.705,352.3125 L117.4825,352.3125 L117.4825,347.375 L115.705,347.375 L115.705,352.3125 Z M105.83,352.3125 L107.6075,352.3125 L107.6075,347.375 L105.83,347.375 L105.83,352.3125 Z M83.61125,372.0625 L85.38875,372.0625 L85.38875,367.125 L83.61125,367.125 L83.61125,372.0625 Z M73.73625,372.0625 L75.51375,372.0625 L75.51375,367.125 L73.73625,367.125 L73.73625,372.0625 Z M73.73625,337.5 L75.51375,337.5 L75.51375,332.5625 L73.73625,332.5625 L73.73625,337.5 Z M63.86125,337.5 L65.63875,337.5 L65.63875,332.5625 L63.86125,332.5625 L63.86125,337.5 Z M53.98625,337.5 L55.76375,337.5 L55.76375,332.5625 L53.98625,332.5625 L53.98625,337.5 Z M73.73625,325.15625 L75.51375,325.15625 L75.51375,320.21875 L73.73625,320.21875 L73.73625,325.15625 Z M63.86125,325.15625 L65.63875,325.15625 L65.63875,320.21875 L63.86125,320.21875 L63.86125,325.15625 Z M53.98625,325.15625 L55.76375,325.15625 L55.76375,320.21875 L53.98625,320.21875 L53.98625,325.15625 Z M107.6075,331.671281 L115.705,331.671281 L115.705,323.57625 L107.6075,323.57625 L107.6075,331.671281 Z M105.13875,308.349 L111.65625,304.006469 L118.17375,308.349 L118.17375,321.79875 L105.13875,321.79875 L105.13875,308.349 Z M117.4825,331.67375 L117.4825,323.57625 L119.0625,323.57625 C119.553781,323.57625 119.95125,323.178781 119.95125,322.6875 L119.95125,307.875 C119.95125,307.57875 119.803125,307.30225 119.55625,307.134375 L112.15,302.196875 C111.851281,301.999375 111.461219,301.999375 111.1625,302.196875 L103.75625,307.134375 C103.509375,307.30225 103.36125,307.57875 103.36125,307.875 L103.36125,322.6875 C103.36125,323.178781 103.758719,323.57625 104.25,323.57625 L105.83,323.57625 L105.83,331.67375 L99.3125,331.67375 C98.8212187,331.67375 98.42375,332.071219 98.42375,332.5625 L98.42375,351.42375 L85.38875,351.42375 L85.38875,312.8125 C85.38875,312.321219 84.9912813,311.92375 84.5,311.92375 L47.46875,311.92375 L47.46875,313.70125 L83.61125,313.70125 L83.61125,351.42375 L64.75,351.42375 C64.2587187,351.42375 63.86125,351.821219 63.86125,352.3125 L63.86125,372.0625 L65.63875,372.0625 L65.63875,353.20125 L98.42375,353.20125 L98.42375,372.0625 L100.20125,372.0625 L100.20125,333.45125 L121.53125,333.45125 L121.53125,331.67375 L117.4825,331.67375 Z" id="Fill-2" fill="url(#linearGradient-5)"></path>
        <polygon id="Fill-1" fill="#FFFFFF" points="166 377 245 377 245 298 166 298"></polygon>
        <path d="M193.280428,321.233653 C192.243553,321.233653 191.206678,321.628653 190.416678,322.416184 C188.839147,323.996184 188.839147,326.563684 190.419147,328.143684 L199.143709,336.870716 C199.491803,337.218809 199.491803,337.781684 199.143709,338.129778 L190.416678,346.856809 C188.839147,348.436809 188.839147,351.004309 190.419147,352.581841 C191.994209,354.159372 194.564178,354.159372 196.144178,352.581841 L204.871209,343.852341 C205.204491,343.519059 205.794522,343.519059 206.127803,343.852341 L214.857303,352.581841 C216.434834,354.159372 219.002334,354.159372 220.582334,352.581841 C222.159866,351.004309 222.159866,348.436809 220.582334,346.856809 L211.855303,338.129778 C211.507209,337.781684 211.507209,337.218809 211.855303,336.870716 L220.582334,328.143684 C222.159866,326.563684 222.159866,323.996184 220.582334,322.416184 C219.004803,320.841122 216.434834,320.841122 214.857303,322.416184 L206.127803,331.148153 C205.794522,331.478966 205.204491,331.478966 204.871209,331.148153 L196.144178,322.416184 C195.354178,321.628653 194.317303,321.233653 193.280428,321.233653 M193.280428,355.541872 C191.789303,355.541872 190.298178,354.976528 189.162553,353.840903 C186.891303,351.567184 186.891303,347.871466 189.160084,345.597747 L197.260053,337.500247 L189.162553,329.402747 C186.891303,327.129028 186.891303,323.433309 189.160084,321.159591 C191.436272,318.893278 195.131991,318.890809 197.398303,321.159591 L205.500741,329.262028 L213.600709,321.159591 C215.874428,318.893278 219.570147,318.890809 221.838928,321.159591 C224.110178,323.433309 224.110178,327.129028 221.838928,329.402747 L213.741428,337.500247 L221.838928,345.597747 C224.110178,347.871466 224.110178,351.567184 221.838928,353.840903 C219.565209,356.109684 215.871959,356.112153 213.600709,353.840903 L205.500741,345.738466 L197.398303,353.840903 C196.262678,354.974059 194.771553,355.541872 193.280428,355.541872 M205.500741,301.357747 C185.570522,301.357747 169.358241,317.572497 169.358241,337.500247 C169.358241,357.427997 185.570522,373.642747 205.500741,373.642747 C225.428491,373.642747 241.643241,357.427997 241.643241,337.500247 C241.643241,317.572497 225.428491,301.357747 205.500741,301.357747 M205.500741,375.420247 C184.590428,375.420247 167.580741,358.410559 167.580741,337.500247 C167.580741,316.589934 184.590428,299.580247 205.500741,299.580247 C226.408584,299.580247 243.420741,316.589934 243.420741,337.500247 C243.420741,358.410559 226.408584,375.420247 205.500741,375.420247" id="Fill-2" fill="url(#linearGradient-6)"></path>
        <polygon id="Fill-1" fill="#FFFFFF" points="45 503 124 503 124 424 45 424"></polygon>
        <path d="M117.482253,463.504937 C117.482253,448.132031 107.049316,434.934094 92.1109094,431.403781 L91.7010969,433.134375 C105.834691,436.474594 115.704753,448.961531 115.704753,463.504937 C115.704753,479.946812 102.911691,493.428656 86.7611281,494.596375 L90.3655031,490.992 L89.1089094,489.732937 L83.2431594,495.598687 L89.1089094,501.464437 L90.3655031,500.205375 L86.5438781,496.38375 C103.778222,495.322187 117.482253,481.003437 117.482253,463.504937 L117.482253,463.504937 Z M79.8905969,425.535562 L78.6340031,426.794625 L82.4556281,430.61625 C65.2237531,431.677812 51.5172531,445.996562 51.5172531,463.495062 C51.5172531,478.867969 61.9501906,492.065906 76.8885969,495.596219 L77.2984094,493.865625 C63.1648156,490.525406 53.2947531,478.038469 53.2947531,463.495062 C53.2947531,447.053187 66.0878156,433.573812 82.2383781,432.406094 L78.6340031,436.008 L79.8905969,437.267062 L85.7563469,431.401312 L79.8905969,425.535562 Z M102.669753,466.588406 L102.669753,475.838812 L100.894722,475.838812 L100.894722,466.588406 C100.894722,462.406344 98.0531906,458.814312 93.9871594,457.849031 C93.6168469,457.760156 93.3428156,457.446625 93.3082531,457.066437 C93.2736906,456.68625 93.4835344,456.325812 93.8316281,456.170281 C95.5424719,455.412375 96.6484719,453.711406 96.6484719,451.842562 C96.6484719,449.230625 94.5228781,447.102562 91.9084719,447.102562 C89.2965344,447.102562 87.1684719,449.230625 87.1684719,451.842562 C87.1684719,452.415312 87.2869719,452.960906 87.4820031,453.484281 C89.5730344,454.573 91.0197219,456.733156 91.0197219,459.246344 C91.0197219,461.142344 90.1926906,462.912437 88.8151281,464.129531 C92.6910656,465.813219 95.2635031,469.637312 95.2635031,473.994656 L95.2635031,483.245062 L93.4884719,483.245062 L93.4884719,473.994656 C93.4884719,469.812594 90.6469406,466.220562 86.5833781,465.255281 C86.2105969,465.166406 85.9390344,464.852875 85.9020031,464.472687 C85.8674406,464.0925 86.0772844,463.734531 86.4253781,463.576531 C88.1362219,462.816156 89.2446906,461.115187 89.2446906,459.246344 C89.2446906,456.634406 87.1166281,454.508812 84.5046906,454.508812 C81.8902844,454.508812 79.7646906,456.634406 79.7646906,459.246344 C79.7646906,461.115187 80.8706906,462.816156 82.5815344,463.576531 C82.9296281,463.734531 83.1394719,464.0925 83.1049094,464.472687 C83.0703469,464.852875 82.7963156,465.166406 82.4235344,465.255281 C78.3575031,466.220562 75.5184406,469.812594 75.5184406,473.994656 L75.5184406,483.245062 L73.7409406,483.245062 L73.7409406,473.994656 C73.7409406,469.637312 76.3158469,465.813219 80.1917844,464.129531 C78.8142219,462.912437 77.9871906,461.142344 77.9871906,459.246344 C77.9871906,456.735625 79.4338781,454.573 81.5249094,453.48675 C81.7199406,452.960906 81.8384406,452.415312 81.8384406,451.842562 C81.8384406,449.230625 79.7128469,447.102562 77.0984406,447.102562 C74.4840344,447.102562 72.3584406,449.230625 72.3584406,451.842562 C72.3584406,453.711406 73.4619719,455.412375 75.1752844,456.170281 C75.5233781,456.325812 75.7332219,456.68625 75.6986594,457.066437 C75.6640969,457.446625 75.3900656,457.760156 75.0172844,457.849031 C70.9537219,458.814312 68.1121906,462.406344 68.1121906,466.588406 L68.1121906,475.838812 L66.3371594,475.838812 L66.3371594,466.588406 C66.3371594,462.231062 68.9095969,458.406969 72.7855344,456.72575 C71.4079719,455.508656 70.5809406,453.738562 70.5809406,451.842562 C70.5809406,448.248062 73.5039406,445.325062 77.0984406,445.325062 C80.6929406,445.325062 83.6159406,448.248062 83.6159406,451.842562 C83.6159406,452.178312 83.5640969,452.504187 83.5147219,452.832531 C83.8405969,452.780687 84.1640031,452.731312 84.5046906,452.731312 C84.8429094,452.731312 85.1687844,452.780687 85.4921906,452.832531 C85.4428156,452.504187 85.3909719,452.178312 85.3909719,451.842562 C85.3909719,448.248062 88.3164406,445.325062 91.9084719,445.325062 C95.5029719,445.325062 98.4259719,448.248062 98.4259719,451.842562 C98.4259719,453.738562 97.5989406,455.508656 96.2213781,456.72575 C100.097316,458.406969 102.669753,462.231062 102.669753,466.588406 L102.669753,466.588406 Z" id="Fill-2" fill="url(#linearGradient-7)"></path>
        <polygon id="Fill-1" points="166 503 245 503 245 424 166 424"></polygon>
        <path d="M235.125,497.011306 L206.549219,497.011306 L206.549219,476.895931 L217.40925,476.895931 L226.975656,486.462337 C227.173156,486.659837 227.439781,486.770931 227.71875,486.770931 L239.013281,486.770931 L239.013281,493.125494 C239.013281,495.268369 237.267875,497.011306 235.125,497.011306 L235.125,497.011306 Z M171.986719,493.125494 L171.986719,486.770931 L183.28125,486.770931 C183.560219,486.770931 183.826844,486.659837 184.024344,486.462337 L193.59075,476.895931 L204.450781,476.895931 L204.450781,497.011306 L175.875,497.011306 C173.732125,497.011306 171.986719,495.268369 171.986719,493.125494 L171.986719,493.125494 Z M171.986719,462.448806 L171.986719,442.333431 L182.84675,442.333431 L192.107031,451.591244 L192.107031,462.448806 L171.986719,462.448806 Z M192.107031,464.552181 L192.107031,475.409744 L182.84675,484.667556 L171.986719,484.667556 L171.986719,464.552181 L192.107031,464.552181 Z M175.875,429.989681 L204.450781,429.989681 L204.450781,450.105056 L193.59075,450.105056 L184.024344,440.53865 C183.826844,440.34115 183.560219,440.230056 183.28125,440.230056 L171.986719,440.230056 L171.986719,433.875494 C171.986719,431.732619 173.732125,429.989681 175.875,429.989681 L175.875,429.989681 Z M194.205469,474.792556 L216.792062,474.792556 L216.792062,452.208431 L194.205469,452.208431 L194.205469,474.792556 Z M218.892969,462.448806 L218.892969,451.591244 L228.15325,442.333431 L239.013281,442.333431 L239.013281,462.448806 L218.892969,462.448806 Z M218.892969,464.552181 L239.013281,464.552181 L239.013281,484.667556 L228.15325,484.667556 L218.892969,475.409744 L218.892969,464.552181 Z M239.013281,433.875494 L239.013281,440.230056 L227.71875,440.230056 C227.439781,440.230056 227.173156,440.34115 226.975656,440.53865 L217.40925,450.105056 L206.549219,450.105056 L206.549219,429.989681 L235.125,429.989681 C237.267875,429.989681 239.013281,431.732619 239.013281,433.875494 L239.013281,433.875494 Z M235.125,427.886306 L175.875,427.886306 C172.574281,427.886306 169.888281,430.574775 169.888281,433.875494 L169.888281,493.125494 C169.888281,496.426213 172.574281,499.114681 175.875,499.114681 L235.125,499.114681 C238.425719,499.114681 241.111719,496.426213 241.111719,493.125494 L241.111719,433.875494 C241.111719,430.574775 238.425719,427.886306 235.125,427.886306 L235.125,427.886306 Z" id="Fill-2" fill="url(#linearGradient-8)"></path>
    </g>
</svg>