<svg id="b63bbbf9-c313-450e-8478-76a50a0ff435" data-name="Layer 1" xmlns="http://www.w3.org/2000/svg" xmlns:xlink="http://www.w3.org/1999/xlink" viewBox="0 0 928 522">
  <defs>
    <linearGradient id="a42370fb-4e87-47c2-9d84-a8d18ede9e56" x1="139.464" y1="257.663" x2="192.299" y2="257.663" gradientUnits="userSpaceOnUse">
      <stop offset="0.1" stop-color="#fff"/>
      <stop offset="0.85"/>
    </linearGradient>
    <linearGradient id="f3c6b777-5d2e-4db0-9242-bc1b5624ded2" x1="162.527" y1="204.354" x2="244.872" y2="286.7" gradientUnits="userSpaceOnUse">
      <stop offset="0" stop-color="#161616"/>
      <stop offset="0.9" stop-color="#fff"/>
    </linearGradient>
    <linearGradient id="f19d83d5-efac-4169-a4c9-f04b43f736ba" x1="128.214" y1="290.475" x2="218.062" y2="290.475" gradientUnits="userSpaceOnUse">
      <stop offset="0.1" stop-color="#fff"/>
      <stop offset="1"/>
    </linearGradient>
    <linearGradient id="ab20871a-5bc8-430a-93f5-0245be60b015" x1="351.262" y1="256.2" x2="378.271" y2="209.42" gradientUnits="userSpaceOnUse">
      <stop offset="0.1" stop-color="#fff"/>
      <stop offset="1" stop-color="#fff" stop-opacity="0"/>
    </linearGradient>
    <linearGradient id="f1c1dac6-e841-4227-a007-b5799f3f14ef" x1="-1877.738" y1="-6427.3" x2="-1850.729" y2="-6474.08" gradientTransform="translate(-1485 -6214) rotate(180)" xlink:href="#ab20871a-5bc8-430a-93f5-0245be60b015"/>
    <linearGradient id="bde1b4ea-c734-4e5e-853d-1c0618320d62" x1="351.262" y1="308.7" x2="378.271" y2="261.92" xlink:href="#ab20871a-5bc8-430a-93f5-0245be60b015"/>
    <linearGradient id="a9db4d4f-a711-4186-a080-5a73591097f1" x1="-1877.738" y1="-6479.8" x2="-1850.729" y2="-6526.58" gradientTransform="translate(-1485 -6214) rotate(180)" xlink:href="#ab20871a-5bc8-430a-93f5-0245be60b015"/>
    <linearGradient id="aa5c597d-4c3d-484a-8e87-f38f97de6fe9" x1="2588.262" y1="-1980.8" x2="2615.271" y2="-2027.58" gradientTransform="matrix(0, 1, 1, 0, 2348, -2348)" xlink:href="#ab20871a-5bc8-430a-93f5-0245be60b015"/>
    <linearGradient id="ad42362e-0797-4d1b-b353-f25cd021e74e" x1="-4114.738" y1="-4190.3" x2="-4087.729" y2="-4237.08" gradientTransform="matrix(0, -1, -1, 0, -3866, -3833)" xlink:href="#ab20871a-5bc8-430a-93f5-0245be60b015"/>
    <linearGradient id="f15213c4-b6b8-4e1c-bb9d-2def2b8f027f" x1="2588.262" y1="-1928.3" x2="2615.271" y2="-1975.08" gradientTransform="matrix(0, 1, 1, 0, 2348, -2348)" xlink:href="#ab20871a-5bc8-430a-93f5-0245be60b015"/>
    <linearGradient id="b8c912b0-648d-4dea-84d7-4d4614a661a0" x1="-4114.738" y1="-4242.8" x2="-4087.729" y2="-4289.58" gradientTransform="matrix(0, -1, -1, 0, -3866, -3833)" xlink:href="#ab20871a-5bc8-430a-93f5-0245be60b015"/>
    <linearGradient id="ba06185e-5067-4409-95ff-fc5bd55aa650" x1="556.786" y1="298.25" x2="632.618" y2="222.417" gradientUnits="userSpaceOnUse">
      <stop offset="0"/>
      <stop offset="0.105" stop-color="#343434"/>
      <stop offset="0.227" stop-color="#696969"/>
      <stop offset="0.351" stop-color="#979797"/>
      <stop offset="0.474" stop-color="#bcbcbc"/>
      <stop offset="0.596" stop-color="#dadada"/>
      <stop offset="0.717" stop-color="#eee"/>
      <stop offset="0.836" stop-color="#fbfbfb"/>
      <stop offset="0.95" stop-color="#fff"/>
    </linearGradient>
    <linearGradient id="e9d3fe49-1ac8-485f-ba6c-6c408b2afb26" x1="2027.487" y1="-13992.283" x2="1989.164" y2="-13953.961" gradientTransform="translate(2516.234 -13683.338) rotate(180)" gradientUnits="userSpaceOnUse">
      <stop offset="0.1" stop-color="#e0e0e0"/>
      <stop offset="1"/>
    </linearGradient>
    <linearGradient id="a6ea1e24-15fb-4b72-9bf0-80e8322ea6dc" x1="2019.183" y1="-13985.066" x2="1976.281" y2="-13985.066" gradientTransform="translate(2516.234 -13683.338) rotate(180)" gradientUnits="userSpaceOnUse">
      <stop offset="0.1" stop-color="#e0e0e0"/>
      <stop offset="1" stop-color="#fff"/>
    </linearGradient>
    <linearGradient id="adc9cf62-e8e1-441f-a1f4-a3fab6051a88" x1="714.8" y1="248.4" x2="745.625" y2="248.4" gradientUnits="userSpaceOnUse">
      <stop offset="0.2" stop-color="#a8a8a8"/>
      <stop offset="0.347" stop-color="gray"/>
      <stop offset="0.567" stop-color="#494949"/>
      <stop offset="0.757" stop-color="#212121"/>
      <stop offset="0.908" stop-color="#090909"/>
      <stop offset="1"/>
    </linearGradient>
    <linearGradient id="fec2f2c7-a7ef-4684-a695-f4a8c2e451a7" x1="684.8" y1="233.4" x2="777.5" y2="233.4" gradientUnits="userSpaceOnUse">
      <stop offset="0.1" stop-color="#a8a8a8"/>
      <stop offset="1"/>
    </linearGradient>
    <linearGradient id="eebdb9dd-3735-4aa6-b975-5b44db994049" x1="684.8" y1="287.25" x2="742.7" y2="287.25" gradientUnits="userSpaceOnUse">
      <stop offset="0.1" stop-color="#a8a8a8"/>
      <stop offset="0.9" stop-color="#fff"/>
    </linearGradient>
    <linearGradient id="ad9f4710-5cfb-4f56-91bd-9212bd1e63c2" x1="699.8" y1="240.9" x2="762.5" y2="240.9" gradientUnits="userSpaceOnUse">
      <stop offset="0.1" stop-color="#a8a8a8"/>
      <stop offset="0.265" stop-color="gray"/>
      <stop offset="0.513" stop-color="#494949"/>
      <stop offset="0.727" stop-color="#212121"/>
      <stop offset="0.896" stop-color="#090909"/>
      <stop offset="1"/>
    </linearGradient>
    <linearGradient id="a8653174-269e-4f39-a6a9-4b40d69a9e25" x1="699.8" y1="279.75" x2="742.7" y2="279.75" gradientUnits="userSpaceOnUse">
      <stop offset="0.1" stop-color="#a8a8a8"/>
      <stop offset="0.95" stop-color="#fff"/>
    </linearGradient>
    <linearGradient id="a26151e5-006e-49d2-b5d3-7578344bcf0b" x1="714.8" y1="272.25" x2="742.7" y2="272.25" gradientUnits="userSpaceOnUse">
      <stop offset="0.2" stop-color="#a8a8a8"/>
      <stop offset="0.95" stop-color="#fff"/>
    </linearGradient>
    <mask id="ee75162a-2983-4c87-bdfb-83a5360372f8" x="128" y="201" width="120" height="120" maskUnits="userSpaceOnUse">
      <g>
        <path d="M174.04,274.951a34.616,34.616,0,0,1-34.576-34.576h5.4a29.18,29.18,0,0,0,44.577,24.781l2.856,4.585A34.494,34.494,0,0,1,174.04,274.951Z" fill="url(#a42370fb-4e87-47c2-9d84-a8d18ede9e56)"/>
        <path d="M218.062,311.213l-2.834-4.6a53.558,53.558,0,1,0-56.545-90.974l-2.875-4.57a58.957,58.957,0,1,1,62.254,100.14Z" fill="url(#f3c6b777-5d2e-4db0-9242-bc1b5624ded2)"/>
        <path d="M187.165,319.951A59.019,59.019,0,0,1,128.214,261h5.4a53.562,53.562,0,0,0,81.612,45.617l2.834,4.6A58.8,58.8,0,0,1,187.165,319.951Z" fill="url(#f19d83d5-efac-4169-a4c9-f04b43f736ba)"/>
        <path d="M216.647,311.616a2.7,2.7,0,0,1-2.294-1.276l-25.774-41.466a2.7,2.7,0,0,1,.864-3.718,29.176,29.176,0,1,0-44.577-24.781,2.7,2.7,0,1,1-5.4,0,34.576,34.576,0,1,1,55.069,27.852l24.405,39.263a2.7,2.7,0,0,1-2.291,4.126Z" fill="#fff"/>
        <path d="M148.21,224.223A53.269,53.269,0,0,0,133.616,261a2.7,2.7,0,0,1-5.4,0,58.693,58.693,0,0,1,27.594-49.927,2.7,2.7,0,0,1,3.723.847Z" fill="#fff"/>
      </g>
    </mask>
    <linearGradient id="eadf2850-7a9c-4664-be93-31e45148415f" x1="128" y1="321" x2="248" y2="201" gradientUnits="userSpaceOnUse">
      <stop offset="0.1" stop-color="#08bdba"/>
      <stop offset="0.9" stop-color="#0f62fe"/>
    </linearGradient>
    <mask id="a0fc7eea-99e0-45a5-afa4-d3688b42214f" x="312" y="201" width="120" height="120" maskUnits="userSpaceOnUse">
      <g>
        <path d="M372,263.7a28.951,28.951,0,0,1,0-57.9v5.4a23.549,23.549,0,1,0,0,47.1Z" fill="url(#ab20871a-5bc8-430a-93f5-0245be60b015)"/>
        <path d="M372,263.7v-5.4a23.549,23.549,0,0,0,0-47.1v-5.4a28.951,28.951,0,1,1,0,57.9Z" fill="url(#f1c1dac6-e841-4227-a007-b5799f3f14ef)"/>
        <path d="M372,316.2a28.951,28.951,0,0,1,0-57.9v5.4a23.549,23.549,0,0,0,0,47.1Z" fill="url(#bde1b4ea-c734-4e5e-853d-1c0618320d62)"/>
        <path d="M372,316.2v-5.4a23.549,23.549,0,0,0,0-47.1v-5.4a28.951,28.951,0,0,1,0,57.9Z" fill="url(#a9db4d4f-a711-4186-a080-5a73591097f1)"/>
        <path d="M374.7,261h-5.4a23.549,23.549,0,0,0-47.1,0h-5.4a28.951,28.951,0,0,1,57.9,0Z" fill="url(#aa5c597d-4c3d-484a-8e87-f38f97de6fe9)"/>
        <path d="M345.75,289.951A28.985,28.985,0,0,1,316.8,261h5.4a23.549,23.549,0,0,0,47.1,0h5.4A28.985,28.985,0,0,1,345.75,289.951Z" fill="url(#ad42362e-0797-4d1b-b353-f25cd021e74e)"/>
        <path d="M427.2,261h-5.4a23.549,23.549,0,0,0-47.1,0h-5.4a28.951,28.951,0,0,1,57.9,0Z" fill="url(#f15213c4-b6b8-4e1c-bb9d-2def2b8f027f)"/>
        <path d="M398.25,289.951A28.985,28.985,0,0,1,369.3,261h5.4a23.549,23.549,0,0,0,47.1,0h5.4A28.985,28.985,0,0,1,398.25,289.951Z" fill="url(#b8c912b0-648d-4dea-84d7-4d4614a661a0)"/>
        <circle cx="372" cy="208.5" r="3.75"/>
        <circle cx="372" cy="261" r="3.75"/>
        <circle cx="319.5" cy="261" r="3.75"/>
        <circle cx="424.5" cy="261" r="3.75"/>
        <circle cx="372" cy="313.5" r="3.75"/>
      </g>
    </mask>
    <linearGradient id="f4da3996-ae28-4ba5-9780-7ed85a0245f6" x1="312" y1="321" x2="432" y2="201" gradientUnits="userSpaceOnUse">
      <stop offset="0.1" stop-color="#a56eff"/>
      <stop offset="0.9" stop-color="#0f62fe"/>
    </linearGradient>
    <mask id="ac3549cb-e1eb-4590-9dd8-7f1164f2fb87" x="496" y="201" width="120" height="120" maskUnits="userSpaceOnUse">
      <g>
        <path d="M612.234,282.453h0l-71.25-.006v-5.4l68.549,0V204.734h5.4v75.018a2.7,2.7,0,0,1-2.7,2.7Z" fill="url(#ba06185e-5067-4409-95ff-fc5bd55aa650)"/>
        <path d="M534.549,276l0-71.261a2.7,2.7,0,0,1,2.7-2.7h74.982a2.7,2.7,0,0,1,0,5.4H539.953l0,68.561Z" fill="#fff"/>
        <path d="M502.453,317.248h-5.4v-37.5a2.7,2.7,0,0,1,2.7-2.7l33.741,0v5.4l-31.04,0Z" fill="url(#e9d3fe49-1ac8-485f-ba6c-6c408b2afb26)"/>
        <polygon points="504.357 314.551 504.356 314.553 504.364 314.551 504.357 314.551" fill="#fff"/>
        <path d="M537.252,319.949h-37.5a2.7,2.7,0,1,1,0-5.4h34.8V283.505h5.4v33.743A2.7,2.7,0,0,1,537.252,319.949Z" fill="url(#a6ea1e24-15fb-4b72-9bf0-80e8322ea6dc)"/>
      </g>
    </mask>
    <linearGradient id="bfc530de-27cf-4f07-b994-5205f0b40173" x1="496" y1="321" x2="616" y2="201" gradientUnits="userSpaceOnUse">
      <stop offset="0.1" stop-color="#ee5396"/>
      <stop offset="0.9" stop-color="#8a3ffc"/>
    </linearGradient>
    <mask id="f51f2e46-e058-4b49-a721-e5c735a2e140" x="680" y="201" width="120" height="120" maskUnits="userSpaceOnUse">
      <g>
        <path d="M740,313.5A52.5,52.5,0,0,0,792.5,261V212.245" fill="none" stroke="#fff" stroke-linejoin="round" stroke-width="5.4"/>
        <path d="M740,298.5A37.5,37.5,0,0,0,777.5,261V227.246" fill="none" stroke="#fff" stroke-linejoin="round" stroke-width="5.4"/>
        <path d="M745.625,238.5H740A22.5,22.5,0,0,0,717.5,261" fill="none" stroke-linejoin="round" stroke-width="5.4" stroke="url(#adc9cf62-e8e1-441f-a1f4-a3fab6051a88)"/>
        <path d="M777.5,208.5H740A52.5,52.5,0,0,0,687.5,261" fill="none" stroke-linejoin="round" stroke-width="5.4" stroke="url(#fec2f2c7-a7ef-4684-a695-f4a8c2e451a7)"/>
        <path d="M687.5,261A52.5,52.5,0,0,0,740,313.5" fill="none" stroke-linecap="round" stroke-linejoin="round" stroke-width="5.4" stroke="url(#eebdb9dd-3735-4aa6-b975-5b44db994049)"/>
        <path d="M762.5,223.5H740A37.5,37.5,0,0,0,702.5,261" fill="none" stroke-linejoin="round" stroke-width="5.4" stroke="url(#ad9f4710-5cfb-4f56-91bd-9212bd1e63c2)"/>
        <path d="M740,283.5A22.5,22.5,0,0,0,762.5,261V242.237" fill="none" stroke="#fff" stroke-linejoin="round" stroke-width="5.4"/>
        <path d="M702.5,261A37.5,37.5,0,0,0,740,298.5" fill="none" stroke-linecap="round" stroke-linejoin="round" stroke-width="5.4" stroke="url(#a8653174-269e-4f39-a6a9-4b40d69a9e25)"/>
        <path d="M717.5,261A22.5,22.5,0,0,0,740,283.5" fill="none" stroke-linecap="round" stroke-linejoin="round" stroke-width="5.4" stroke="url(#a26151e5-006e-49d2-b5d3-7578344bcf0b)"/>
      </g>
    </mask>
    <linearGradient id="abeef4d1-1121-4309-9a1c-c817b3637064" x1="680" y1="321" x2="800" y2="201" gradientUnits="userSpaceOnUse">
      <stop offset="0.1" stop-color="#42be65"/>
      <stop offset="0.9" stop-color="#007d79"/>
    </linearGradient>
  </defs>
  <rect width="928" height="522" fill="#fff"/>
  <g>
    <g mask="url(#ee75162a-2983-4c87-bdfb-83a5360372f8)">
      <rect x="128" y="201" width="120" height="120" fill="url(#eadf2850-7a9c-4664-be93-31e45148415f)"/>
    </g>
    <rect x="164.671" y="230.009" width="52.496" height="2.7"/>
    <rect x="157.171" y="241.259" width="48.746" height="2.7"/>
    <rect x="164.671" y="252.509" width="52.496" height="2.7"/>
  </g>
  <g>
    <g mask="url(#a0fc7eea-99e0-45a5-afa4-d3688b42214f)">
      <rect x="312" y="201" width="120" height="120" fill="url(#f4da3996-ae28-4ba5-9780-7ed85a0245f6)"/>
    </g>
    <g>
      <path d="M372.014,203.4a5.1,5.1,0,1,0,5.1,5.1A5.106,5.106,0,0,0,372.014,203.4Zm0,7.5a2.4,2.4,0,1,1,2.4-2.4A2.4,2.4,0,0,1,372.014,210.9Z"/>
      <path d="M372.014,255.9a5.1,5.1,0,1,0,5.1,5.1A5.106,5.106,0,0,0,372.014,255.9Zm0,7.5a2.4,2.4,0,1,1,2.4-2.4A2.4,2.4,0,0,1,372.014,263.4Z"/>
      <path d="M372.014,308.4a5.1,5.1,0,1,0,5.1,5.1A5.106,5.106,0,0,0,372.014,308.4Zm0,7.5a2.4,2.4,0,1,1,2.4-2.4A2.4,2.4,0,0,1,372.014,315.9Z"/>
      <path d="M424.514,255.9a5.1,5.1,0,1,0,5.1,5.1A5.106,5.106,0,0,0,424.514,255.9Zm0,7.5a2.4,2.4,0,1,1,2.4-2.4A2.4,2.4,0,0,1,424.514,263.4Z"/>
      <path d="M319.514,255.9a5.1,5.1,0,1,0,5.1,5.1A5.106,5.106,0,0,0,319.514,255.9Zm0,7.5a2.4,2.4,0,1,1,2.4-2.4A2.4,2.4,0,0,1,319.514,263.4Z"/>
    </g>
  </g>
  <g>
    <g mask="url(#ac3549cb-e1eb-4590-9dd8-7f1164f2fb87)">
      <rect x="496" y="201" width="120" height="120" fill="url(#bfc530de-27cf-4f07-b994-5205f0b40173)"/>
    </g>
    <path d="M597.25,214.651a5.1,5.1,0,0,0-5.1,5.1,5.033,5.033,0,0,0,.685,2.506l-53.08,53.08a5.033,5.033,0,0,0-2.506-.685,5.1,5.1,0,0,0-5.1,5.1,5.033,5.033,0,0,0,.685,2.506l-30.383,30.383v1.908h1.908l30.383-30.383a5.033,5.033,0,0,0,2.506.685,5.1,5.1,0,0,0,5.1-5.1,5.033,5.033,0,0,0-.685-2.506l53.08-53.08a5.033,5.033,0,0,0,2.506.685,5.1,5.1,0,1,0,0-10.2Zm-60,67.5a2.4,2.4,0,1,1,2.4-2.4A2.4,2.4,0,0,1,537.25,282.151Zm60-60a2.4,2.4,0,1,1,2.4-2.4A2.4,2.4,0,0,1,597.25,222.151Z"/>
  </g>
  <g>
    <g mask="url(#f51f2e46-e058-4b49-a721-e5c735a2e140)">
      <rect x="680" y="201" width="120" height="120" fill="url(#abeef4d1-1121-4309-9a1c-c817b3637064)"/>
    </g>
    <path d="M762.5,243.6a5.1,5.1,0,1,1,5.1-5.1A5.106,5.106,0,0,1,762.5,243.6Zm0-7.5a2.4,2.4,0,1,0,2.4,2.4A2.4,2.4,0,0,0,762.5,236.1Z"/>
    <path d="M777.5,228.6a5.1,5.1,0,1,1,5.1-5.1A5.106,5.106,0,0,1,777.5,228.6Zm0-7.5a2.4,2.4,0,1,0,2.4,2.4A2.4,2.4,0,0,0,777.5,221.1Z"/>
    <path d="M792.5,213.6a5.1,5.1,0,1,1,5.1-5.1A5.106,5.106,0,0,1,792.5,213.6Zm0-7.5a2.4,2.4,0,1,0,2.4,2.4A2.4,2.4,0,0,0,792.5,206.1Z"/>
  </g>
</svg>
