<svg xmlns="http://www.w3.org/2000/svg" viewBox="0 0 288 288"><title>core_gray10_on_blue60</title><rect width="288" height="288" style="fill:#0f62fe"/><path d="M94.29,172.44v4.12H62.59v-4.12Zm49.06,0a17.19,17.19,0,0,1-11.19,4.12H98.82v-4.12Zm32.44,0v4.12H153.15V172.4Zm49.8,0v4.12H203V172.4Zm-34.78,0-1.44,4.08-1.44-4.08Zm-41.94-8.6a18.24,18.24,0,0,1-1.73,4.12H98.82V163.8Zm-54.58,0v4.12H62.59V163.8Zm81.5,0v4.12H153.15v-4.12Zm49.8,0v4.12H203v-4.12Zm-31.73,0-1.44,4.12h-6.09l-1.44-4.12Zm-108.63-8.6v4.11H71.65v-4.11Zm36.23,0v4.11H107.87v-4.11Zm27.49,0a16.94,16.94,0,0,1,.5,4.11H135v-4.11Zm26.84,0v4.11H162.21v-4.11Zm40.75,0v4.11H203v-4.11Zm-19.63,0-1.45,4.11H183.28l-1.44-4.11ZM85.23,146.51v4.12H71.65v-4.12Zm58.58,0a16.33,16.33,0,0,1,3.33,4.12H107.87v-4.12Zm32,0v4.12H162.21v-4.12Zm40.75,0v4.12H203v-4.12Zm-16.55,0-1.48,4.12H180.23l-1.48-4.12Zm-114.76-8.6V142H71.65v-4.11Zm61.91,0a17.82,17.82,0,0,1-3.33,4.11H107.87v-4.11Zm69.4,0v4.11H203V138l-1.4,3.91h-11.9l1.4-4.11Zm-28.85,0,1.39,4.11H177.19l-1.4-3.91v3.91H162.21v-4.11ZM85.23,129.22v4.12H71.65v-4.12Zm36.23,0v4.12H107.87v-4.12Zm28,0a17.09,17.09,0,0,1-.5,4.12H135v-4.12Zm67.09,0v4.12H192.67l1.4-4.12Zm-31.86,0,1.4,4.12H162.21v-4.12Zm-90.39-8.6v4.12H62.59v-4.12Zm52.81,0a18.24,18.24,0,0,1,1.73,4.12h-50v-4.12Zm78.49,0v4.12h-30l1.44-4.12Zm-43.91,0,1.44,4.12h-30v-4.12Zm-87.39-8.6v4.11H62.59v-4.11Zm37.87,0h.44a17.29,17.29,0,0,1,10.75,4.11H98.82v-4.11Zm93.43,0V116h-27l1.44-4.11Zm-46.92,0,1.44,4.11h-27V111.9Z" transform="translate(-0.09 -0.19)" style="fill:#f4f4f4;fill-rule:evenodd"/></svg>