<svg xmlns="http://www.w3.org/2000/svg" viewBox="0 0 748.16 749.65"><defs><style>.cls-1{fill:#fff;}.cls-2,.cls-3{fill:none;stroke-miterlimit:10;}.cls-2{stroke:#d12771;stroke-linecap:round;}.cls-3{stroke:#a6c8ff;stroke-width:6px;}</style></defs><title>angles-mobile</title><g id="Layer_2" data-name="Layer 2"><g id="Base"><rect class="cls-1" width="748.16" height="749.65"/></g><g id="Graphics"><line class="cls-2" x1="660.38" y1="459.73" x2="47.27" y2="459.73"/><line class="cls-2" x1="206.59" y1="239.01" x2="120.76" y2="545.57"/><line class="cls-2" x1="329.21" y1="239.01" x2="157.54" y2="545.57"/><line class="cls-2" x1="500.88" y1="239.01" x2="194.33" y2="545.57"/><line class="cls-2" x1="660.29" y1="272.73" x2="172.87" y2="545.57"/><line class="cls-2" x1="83.97" y1="239.01" x2="83.97" y2="545.57"/><line class="cls-2" x1="660.29" y1="386.16" x2="83.97" y2="545.57"/><line class="cls-3" x1="623.51" y1="459.73" x2="476.36" y2="459.73"/><path d="M80.8,227.33c0-3.88,1.24-6.14,4.09-6.14S89,223.45,89,227.33s-1.25,6.15-4.09,6.15S80.8,231.22,80.8,227.33Zm6.68,1v-1.94c0-2.3-.73-3.93-2.59-3.93s-2.59,1.63-2.59,3.93v1.94c0,2.3.73,3.94,2.59,3.94S87.48,230.6,87.48,228.3Z"/><path d="M90.75,224.35c0-1.9,1-3.06,2.64-3.06S96,222.45,96,224.35s-1,3.07-2.64,3.07S90.75,226.26,90.75,224.35Zm4.12.53v-1c0-1-.5-1.66-1.48-1.66s-1.48.68-1.48,1.66v1c0,1,.49,1.65,1.48,1.65A1.45,1.45,0,0,0,94.87,224.88Z"/><path d="M197.42,233.28V232h3.32v-9.57h-.12l-3,2.79-.83-.91,3.15-2.94h2.23V232h3.07v1.26Z"/><path d="M214.62,222.65h-5.21l-.34,4.53h.12a2.66,2.66,0,0,1,2.43-1.31,3.41,3.41,0,0,1,3.55,3.68,3.72,3.72,0,0,1-4,3.93,4.23,4.23,0,0,1-3.71-2l1.07-.81a2.81,2.81,0,0,0,2.64,1.56,2.24,2.24,0,0,0,2.49-2.47v-.17a2.25,2.25,0,0,0-2.49-2.47,2.56,2.56,0,0,0-2.12,1l-1.21-.17.42-6.54h6.37Z"/><path d="M217.11,224.35c0-1.9,1-3.06,2.64-3.06s2.64,1.16,2.64,3.06-1,3.07-2.64,3.07S217.11,226.26,217.11,224.35Zm4.12.53v-1.06a1.45,1.45,0,0,0-1.48-1.65c-1,0-1.48.68-1.48,1.65v1.06c0,1,.49,1.65,1.48,1.65A1.45,1.45,0,0,0,221.23,224.88Z"/><path d="M324.68,226.43c1.6,0,2.42-.83,2.42-2v-.12c0-1.25-.87-1.88-2.13-1.88a2.58,2.58,0,0,0-2.45,1.48l-1.06-.81a3.93,3.93,0,0,1,3.54-1.94c2,0,3.61,1.07,3.61,3a2.8,2.8,0,0,1-2.28,2.78V227a2.94,2.94,0,0,1,2.5,3c0,2-1.61,3.46-4,3.46a4.36,4.36,0,0,1-3.85-2l1.07-.81a3,3,0,0,0,2.76,1.56c1.67,0,2.56-.8,2.56-2.19v-.14c0-1.4-.89-2.2-2.56-2.2h-1.39v-1.24Z"/><path d="M331.48,227.33c0-3.88,1.24-6.14,4.08-6.14s4.09,2.26,4.09,6.14-1.24,6.15-4.09,6.15S331.48,231.22,331.48,227.33Zm6.67,1v-1.94c0-2.3-.73-3.93-2.59-3.93s-2.59,1.63-2.59,3.93v1.94c0,2.3.74,3.94,2.59,3.94S338.15,230.6,338.15,228.3Z"/><path d="M341.42,224.35c0-1.9,1-3.06,2.64-3.06s2.64,1.16,2.64,3.06-1,3.07-2.64,3.07S341.42,226.26,341.42,224.35Zm4.12.53v-1c0-1-.49-1.66-1.48-1.66s-1.48.68-1.48,1.66v1c0,1,.49,1.65,1.48,1.65S345.54,225.85,345.54,224.88Z"/><path d="M498.17,233.28v-2.34h-5.74v-1.26l5-8.29h2.13v8.36h1.71v1.19h-1.71v2.34Zm-4.39-3.53h4.39V222.5h-.08Z"/><path d="M510.49,222.65h-5.21l-.35,4.53h.12a2.69,2.69,0,0,1,2.44-1.31,3.41,3.41,0,0,1,3.54,3.68,3.72,3.72,0,0,1-4,3.93,4.18,4.18,0,0,1-3.71-2l1.07-.81A2.8,2.8,0,0,0,507,232.2a2.24,2.24,0,0,0,2.49-2.47v-.17a2.25,2.25,0,0,0-2.49-2.47,2.58,2.58,0,0,0-2.13,1l-1.21-.17.43-6.54h6.37Z"/><path d="M513,224.35c0-1.9,1-3.06,2.64-3.06s2.64,1.16,2.64,3.06-1,3.07-2.64,3.07S513,226.26,513,224.35Zm4.12.53v-1c0-1-.49-1.66-1.48-1.66s-1.48.68-1.48,1.66v1c0,1,.49,1.65,1.48,1.65S517.09,225.85,517.09,224.88Z"/><path d="M667.71,271.79a9.38,9.38,0,0,1,4.24-7.52h1.84c-2.54,1.85-3.95,3.4-4.6,6.16l.09,0a3.1,3.1,0,0,1,2.86-1.7,3.4,3.4,0,0,1,3.51,3.66,3.74,3.74,0,0,1-3.95,3.94C669.23,276.36,667.71,274.62,667.71,271.79Zm6.45.82v-.14a2.49,2.49,0,1,0-5,0v.14a2.49,2.49,0,1,0,5,0Z"/><path d="M677.81,270.21c0-3.88,1.24-6.15,4.09-6.15s4.08,2.27,4.08,6.15-1.24,6.15-4.08,6.15S677.81,274.09,677.81,270.21Zm6.68,1v-1.94c0-2.3-.74-3.94-2.59-3.94s-2.59,1.64-2.59,3.94v1.94c0,2.3.73,3.93,2.59,3.93S684.49,273.48,684.49,271.18Z"/><path d="M687.75,267.23c0-1.91,1-3.07,2.64-3.07s2.64,1.16,2.64,3.07-1,3.06-2.64,3.06S687.75,269.14,687.75,267.23Zm4.13.53V266.7a1.49,1.49,0,1,0-3,0v1.06a1.49,1.49,0,1,0,3,0Z"/><path d="M669.55,390.55l4.55-10.66H669v2.21h-1.28v-3.44h7.8v1.26l-4.46,10.63Z"/><path d="M685.27,379.92h-5.21l-.34,4.53h.12a2.66,2.66,0,0,1,2.43-1.31,3.41,3.41,0,0,1,3.54,3.68,3.72,3.72,0,0,1-4,3.93,4.2,4.2,0,0,1-3.71-2l1.07-.81a2.81,2.81,0,0,0,2.64,1.56A2.24,2.24,0,0,0,684.3,387v-.17a2.25,2.25,0,0,0-2.49-2.47,2.59,2.59,0,0,0-2.13,1l-1.21-.17.43-6.54h6.37Z"/><path d="M687.75,381.62c0-1.9,1-3.06,2.64-3.06s2.64,1.16,2.64,3.06-1,3.07-2.64,3.07S687.75,383.53,687.75,381.62Zm4.13.53v-1.06a1.49,1.49,0,1,0-3,0v1.06a1.49,1.49,0,1,0,3,0Z"/><path d="M671.41,463.91h-1.84c2.53-1.86,3.95-3.41,4.59-6.17l-.08,0a3.1,3.1,0,0,1-2.86,1.7,3.39,3.39,0,0,1-3.51-3.66,3.73,3.73,0,0,1,3.95-3.93c2.47,0,4,1.73,4,4.56A9.43,9.43,0,0,1,671.41,463.91Zm2.75-8.21v-.14a2.49,2.49,0,1,0-5,0v.14a2.49,2.49,0,1,0,5,0Z"/><path d="M677.81,458c0-3.88,1.24-6.14,4.09-6.14S686,454.08,686,458s-1.24,6.15-4.08,6.15S677.81,461.85,677.81,458Zm6.68,1V457c0-2.3-.74-3.93-2.59-3.93s-2.59,1.63-2.59,3.93v1.94c0,2.3.73,3.94,2.59,3.94S684.49,461.23,684.49,458.93Z"/><path d="M687.75,455c0-1.9,1-3.06,2.64-3.06S693,453.08,693,455s-1,3.07-2.64,3.07S687.75,456.89,687.75,455Zm4.13.53v-1.05a1.46,1.46,0,0,0-1.49-1.66c-1,0-1.48.69-1.48,1.66v1.05a1.49,1.49,0,1,0,3,0Z"/><line class="cls-3" x1="83.97" y1="312.59" x2="83.97" y2="459.73"/><line class="cls-3" x1="540.6" y1="419.43" x2="393.59" y2="459.73"/><line class="cls-3" x1="457.97" y1="386.16" x2="326.15" y2="459.73"/><line class="cls-3" x1="384.39" y1="355.5" x2="280.16" y2="459.73"/><line class="cls-3" x1="276" y1="334.05" x2="205.54" y2="459.73"/><line class="cls-3" x1="184.39" y1="318.34" x2="144.54" y2="460.47"/></g></g></svg>