<svg width="288" height="288" viewBox="0 0 288 288" fill="none" xmlns="http://www.w3.org/2000/svg">
<g clip-path="url(#clip0_333_5653)">
<path d="M0 0.00195312H288V288.002H0V0.00195312Z" fill="white"/>
<path d="M203.297 225.146C202.793 225.146 202.565 224.858 202.565 224.45V224.294C202.565 223.886 202.793 223.598 203.297 223.598C203.801 223.598 204.029 223.886 204.029 224.294V224.45C204.029 224.858 203.801 225.146 203.297 225.146Z" fill="black"/>
<path d="M196.687 225.002H195.727V218.81H196.687V219.818H196.735C197.035 219.122 197.563 218.666 198.487 218.666C199.759 218.666 200.563 219.53 200.563 221.03V225.002H199.603V221.198C199.603 220.094 199.123 219.53 198.199 219.53C197.431 219.53 196.687 219.914 196.687 220.706V225.002Z" fill="black"/>
<path d="M191.215 225.146C189.559 225.146 188.419 223.874 188.419 221.906C188.419 219.938 189.559 218.666 191.215 218.666C192.871 218.666 194.011 219.938 194.011 221.906C194.011 223.874 192.871 225.146 191.215 225.146ZM191.215 224.294C192.247 224.294 192.979 223.658 192.979 222.35V221.462C192.979 220.154 192.247 219.518 191.215 219.518C190.183 219.518 189.451 220.154 189.451 221.462V222.35C189.451 223.658 190.183 224.294 191.215 224.294Z" fill="black"/>
<path d="M185.077 225.146C183.337 225.146 182.317 223.886 182.317 221.906C182.317 219.926 183.337 218.666 185.077 218.666C186.301 218.666 187.033 219.266 187.393 220.118L186.589 220.526C186.361 219.89 185.833 219.518 185.077 219.518C183.937 219.518 183.349 220.298 183.349 221.378V222.434C183.349 223.514 183.937 224.294 185.077 224.294C185.857 224.294 186.421 223.922 186.757 223.214L187.453 223.682C187.057 224.57 186.253 225.146 185.077 225.146Z" fill="black"/>
<path d="M180.116 217.358C179.708 217.358 179.528 217.142 179.528 216.818V216.662C179.528 216.338 179.708 216.122 180.116 216.122C180.524 216.122 180.704 216.338 180.704 216.662V216.818C180.704 217.142 180.524 217.358 180.116 217.358ZM179.636 225.002V218.81H180.596V225.002H179.636Z" fill="black"/>
<path d="M170.666 225.002H169.706V218.81H170.666V219.818H170.714C171.014 219.122 171.542 218.666 172.466 218.666C173.738 218.666 174.542 219.53 174.542 221.03V225.002H173.582V221.198C173.582 220.094 173.102 219.53 172.178 219.53C171.41 219.53 170.666 219.914 170.666 220.706V225.002Z" fill="black"/>
<path d="M168.198 225.002H167.658C166.95 225.002 166.662 224.57 166.59 223.994H166.53C166.266 224.75 165.606 225.146 164.742 225.146C163.434 225.146 162.666 224.426 162.666 223.274C162.666 222.11 163.506 221.462 165.306 221.462H166.53V220.85C166.53 219.974 166.05 219.494 165.066 219.494C164.322 219.494 163.83 219.854 163.494 220.418L162.918 219.878C163.254 219.218 163.998 218.666 165.114 218.666C166.602 218.666 167.49 219.446 167.49 220.754V224.162H168.198V225.002ZM164.898 224.33C165.846 224.33 166.53 223.838 166.53 223.202V222.182H165.258C164.166 222.182 163.674 222.518 163.674 223.118V223.37C163.674 223.982 164.154 224.33 164.898 224.33Z" fill="black"/>
<path d="M153.228 225.002V216.122H154.188V219.818H154.236C154.536 219.122 155.064 218.666 155.988 218.666C157.26 218.666 158.064 219.53 158.064 221.03V225.002H157.104V221.198C157.104 220.094 156.624 219.53 155.7 219.53C154.932 219.53 154.188 219.914 154.188 220.706V225.002H153.228Z" fill="black"/>
<path d="M151.452 225.002H150.252C149.592 225.002 149.232 224.582 149.232 223.982V219.65H148.212V218.81H148.788C149.196 218.81 149.328 218.666 149.328 218.246V217.094H150.192V218.81H151.548V219.65H150.192V224.162H151.452V225.002Z" fill="black"/>
<path d="M146.226 217.358C145.818 217.358 145.638 217.142 145.638 216.818V216.662C145.638 216.338 145.818 216.122 146.226 216.122C146.634 216.122 146.814 216.338 146.814 216.662V216.818C146.814 217.142 146.634 217.358 146.226 217.358ZM145.746 225.002V218.81H146.706V225.002H145.746Z" fill="black"/>
<path d="M137.406 225.002L135.75 218.81H136.686L137.346 221.486L138.006 224.198H138.03L138.786 221.486L139.566 218.81H140.418L141.222 221.486L141.99 224.198H142.014L142.65 221.486L143.322 218.81H144.222L142.578 225.002H141.39L140.526 222.026L139.986 220.142H139.962L139.434 222.026L138.57 225.002H137.406Z" fill="black"/>
<path d="M130.287 225.002V223.994H130.239C129.867 224.762 129.279 225.146 128.427 225.146C126.879 225.146 125.907 223.886 125.907 221.906C125.907 219.926 126.879 218.666 128.427 218.666C129.279 218.666 129.915 219.038 130.239 219.818H130.287V216.122H131.247V225.002H130.287ZM128.691 224.282C129.567 224.282 130.287 223.826 130.287 223.022V220.718C130.287 220.034 129.567 219.53 128.691 219.53C127.611 219.53 126.939 220.274 126.939 221.378V222.434C126.939 223.538 127.611 224.282 128.691 224.282Z" fill="black"/>
<path d="M121.932 225.146C120.252 225.146 119.148 223.874 119.148 221.906C119.148 219.938 120.252 218.666 121.932 218.666C123.588 218.666 124.608 219.938 124.608 221.69V222.146H120.156V222.434C120.156 223.502 120.84 224.306 121.992 224.306C122.772 224.306 123.372 223.922 123.696 223.238L124.38 223.73C123.984 224.57 123.096 225.146 121.932 225.146ZM121.932 219.47C120.888 219.47 120.156 220.262 120.156 221.342V221.426H123.576V221.294C123.576 220.202 122.916 219.47 121.932 219.47Z" fill="black"/>
<path d="M115.479 225.146C114.339 225.146 113.583 224.666 113.031 223.934L113.715 223.382C114.195 223.982 114.771 224.33 115.551 224.33C116.367 224.33 116.847 223.958 116.847 223.322C116.847 222.842 116.583 222.47 115.767 222.35L115.275 222.278C114.135 222.11 113.283 221.642 113.283 220.49C113.283 219.266 114.231 218.666 115.491 218.666C116.487 218.666 117.147 219.038 117.651 219.662L117.015 220.238C116.739 219.854 116.211 219.482 115.419 219.482C114.627 219.482 114.207 219.854 114.207 220.442C114.207 221.042 114.627 221.282 115.395 221.402L115.875 221.474C117.243 221.678 117.771 222.278 117.771 223.214C117.771 224.414 116.895 225.146 115.479 225.146Z" fill="black"/>
<path d="M110.478 225.002V223.994H110.43C110.19 224.582 109.722 225.146 108.69 225.146C107.418 225.146 106.602 224.282 106.602 222.782V218.81H107.562V222.614C107.562 223.718 108.054 224.282 108.978 224.282C109.734 224.282 110.478 223.91 110.478 223.094V218.81H111.438V225.002H110.478Z" fill="black"/>
<path d="M99.2936 225.146C97.6136 225.146 96.5096 223.874 96.5096 221.906C96.5096 219.938 97.6136 218.666 99.2936 218.666C100.95 218.666 101.97 219.938 101.97 221.69V222.146H97.5176V222.434C97.5176 223.502 98.2016 224.306 99.3536 224.306C100.134 224.306 100.734 223.922 101.058 223.238L101.742 223.73C101.346 224.57 100.458 225.146 99.2936 225.146ZM99.2936 219.47C98.2496 219.47 97.5176 220.262 97.5176 221.342V221.426H100.938V221.294C100.938 220.202 100.278 219.47 99.2936 219.47Z" fill="black"/>
<path d="M89.8676 225.002V216.122H90.8276V219.818H90.8756C91.1996 219.038 91.8356 218.666 92.6876 218.666C94.2356 218.666 95.2076 219.926 95.2076 221.906C95.2076 223.886 94.2356 225.146 92.6876 225.146C91.8356 225.146 91.2476 224.762 90.8756 223.994H90.8276V225.002H89.8676ZM92.4236 224.282C93.5036 224.282 94.1756 223.538 94.1756 222.434V221.378C94.1756 220.274 93.5036 219.53 92.4236 219.53C91.5476 219.53 90.8276 220.034 90.8276 220.718V223.022C90.8276 223.826 91.5476 224.282 92.4236 224.282Z" fill="black"/>
<path d="M83.0851 223.022L84.5851 218.81H85.5331L82.7611 226.442C82.4851 227.186 82.2331 227.402 81.3211 227.402H80.8291V226.562H81.8011L82.2691 225.242L79.9531 218.81H80.9131L82.4011 223.022L82.6891 224.03H82.7491L83.0851 223.022Z" fill="black"/>
<path d="M79.3516 225.002H78.4996C77.8396 225.002 77.4796 224.582 77.4796 224.006V216.122H78.4396V224.162H79.3516V225.002Z" fill="black"/>
<path d="M71.4822 225.002H70.5222V218.81H71.4822V219.818H71.5302C71.8302 219.122 72.3582 218.666 73.2822 218.666C74.5542 218.666 75.3582 219.53 75.3582 221.03V225.002H74.3982V221.198C74.3982 220.094 73.9182 219.53 72.9942 219.53C72.2262 219.53 71.4822 219.914 71.4822 220.706V225.002Z" fill="black"/>
<path d="M66.0101 225.146C64.3541 225.146 63.2141 223.874 63.2141 221.906C63.2141 219.938 64.3541 218.666 66.0101 218.666C67.6661 218.666 68.8061 219.938 68.8061 221.906C68.8061 223.874 67.6661 225.146 66.0101 225.146ZM66.0101 224.294C67.0421 224.294 67.7741 223.658 67.7741 222.35V221.462C67.7741 220.154 67.0421 219.518 66.0101 219.518C64.9781 219.518 64.2461 220.154 64.2461 221.462V222.35C64.2461 223.658 64.9781 224.294 66.0101 224.294Z" fill="black"/>
<path d="M54.6996 225.002H53.7396V218.81H54.6996V219.818H54.7476C55.0476 219.122 55.5756 218.666 56.4996 218.666C57.7716 218.666 58.5756 219.53 58.5756 221.03V225.002H57.6156V221.198C57.6156 220.094 57.1356 219.53 56.2116 219.53C55.4436 219.53 54.6996 219.914 54.6996 220.706V225.002Z" fill="black"/>
<path d="M52.2323 225.002H51.6923C50.9843 225.002 50.6963 224.57 50.6243 223.994H50.5643C50.3003 224.75 49.6403 225.146 48.7763 225.146C47.4683 225.146 46.7003 224.426 46.7003 223.274C46.7003 222.11 47.5403 221.462 49.3403 221.462H50.5643V220.85C50.5643 219.974 50.0843 219.494 49.1003 219.494C48.3563 219.494 47.8643 219.854 47.5283 220.418L46.9523 219.878C47.2883 219.218 48.0323 218.666 49.1483 218.666C50.6363 218.666 51.5243 219.446 51.5243 220.754V224.162H52.2323V225.002ZM48.9323 224.33C49.8803 224.33 50.5643 223.838 50.5643 223.202V222.182H49.2923C48.2003 222.182 47.7083 222.518 47.7083 223.118V223.37C47.7083 223.982 48.1883 224.33 48.9323 224.33Z" fill="black"/>
<path d="M43.3241 225.146C41.5841 225.146 40.5641 223.886 40.5641 221.906C40.5641 219.926 41.5841 218.666 43.3241 218.666C44.5481 218.666 45.2801 219.266 45.6401 220.118L44.8361 220.526C44.6081 219.89 44.0801 219.518 43.3241 219.518C42.1841 219.518 41.5961 220.298 41.5961 221.378V222.434C41.5961 223.514 42.1841 224.294 43.3241 224.294C44.1041 224.294 44.6681 223.922 45.0041 223.214L45.7001 223.682C45.3041 224.57 44.5001 225.146 43.3241 225.146Z" fill="black"/>
<path d="M181.929 209.146C180.249 209.146 179.145 207.874 179.145 205.906C179.145 203.938 180.249 202.666 181.929 202.666C183.585 202.666 184.605 203.938 184.605 205.69V206.146H180.153V206.434C180.153 207.502 180.837 208.306 181.989 208.306C182.769 208.306 183.369 207.922 183.693 207.238L184.377 207.73C183.981 208.57 183.093 209.146 181.929 209.146ZM181.929 203.47C180.885 203.47 180.153 204.262 180.153 205.342V205.426H183.573V205.294C183.573 204.202 182.913 203.47 181.929 203.47Z" fill="black"/>
<path d="M176.463 209.002V207.994H176.415C176.043 208.762 175.455 209.146 174.603 209.146C173.055 209.146 172.083 207.886 172.083 205.906C172.083 203.926 173.055 202.666 174.603 202.666C175.455 202.666 176.091 203.038 176.415 203.818H176.463V200.122H177.423V209.002H176.463ZM174.867 208.282C175.743 208.282 176.463 207.826 176.463 207.022V204.718C176.463 204.034 175.743 203.53 174.867 203.53C173.787 203.53 173.115 204.274 173.115 205.378V206.434C173.115 207.538 173.787 208.282 174.867 208.282Z" fill="black"/>
<path d="M167.991 209.146C166.335 209.146 165.195 207.874 165.195 205.906C165.195 203.938 166.335 202.666 167.991 202.666C169.647 202.666 170.787 203.938 170.787 205.906C170.787 207.874 169.647 209.146 167.991 209.146ZM167.991 208.294C169.023 208.294 169.755 207.658 169.755 206.35V205.462C169.755 204.154 169.023 203.518 167.991 203.518C166.959 203.518 166.227 204.154 166.227 205.462V206.35C166.227 207.658 166.959 208.294 167.991 208.294Z" fill="black"/>
<path d="M159.653 209.002H158.693V202.81H159.653V203.818H159.701C160.001 203.122 160.529 202.666 161.453 202.666C162.725 202.666 163.529 203.53 163.529 205.03V209.002H162.569V205.198C162.569 204.094 162.089 203.53 161.165 203.53C160.397 203.53 159.653 203.914 159.653 204.706V209.002Z" fill="black"/>
<path d="M151.325 209.146C149.645 209.146 148.541 207.874 148.541 205.906C148.541 203.938 149.645 202.666 151.325 202.666C152.981 202.666 154.001 203.938 154.001 205.69V206.146H149.549V206.434C149.549 207.502 150.233 208.306 151.385 208.306C152.165 208.306 152.765 207.922 153.089 207.238L153.773 207.73C153.377 208.57 152.489 209.146 151.325 209.146ZM151.325 203.47C150.281 203.47 149.549 204.262 149.549 205.342V205.426H152.969V205.294C152.969 204.202 152.309 203.47 151.325 203.47Z" fill="black"/>
<path d="M147.811 209.686C147.811 210.958 146.803 211.546 144.811 211.546C142.879 211.546 142.087 210.994 142.087 210.022C142.087 209.35 142.459 208.99 143.071 208.822V208.69C142.723 208.522 142.519 208.246 142.519 207.826C142.519 207.202 142.963 206.902 143.587 206.746V206.698C142.855 206.35 142.423 205.666 142.423 204.802C142.423 203.542 143.347 202.666 144.751 202.666C145.195 202.666 145.591 202.75 145.927 202.906V202.798C145.927 202.318 146.131 201.97 146.647 201.97H147.571V202.81H146.395V203.206C146.839 203.59 147.103 204.142 147.103 204.802C147.103 206.062 146.179 206.938 144.763 206.938C144.559 206.938 144.343 206.914 144.163 206.878C143.755 206.986 143.347 207.19 143.347 207.574C143.347 207.946 143.731 208.042 144.295 208.042H145.615C147.151 208.042 147.811 208.666 147.811 209.686ZM146.911 209.758C146.911 209.266 146.587 208.942 145.627 208.942H143.563C143.167 209.122 142.987 209.398 142.987 209.782C142.987 210.322 143.359 210.766 144.331 210.766H145.219C146.287 210.766 146.911 210.43 146.911 209.758ZM144.763 206.17C145.579 206.17 146.095 205.786 146.095 204.97V204.634C146.095 203.818 145.579 203.434 144.763 203.434C143.947 203.434 143.431 203.818 143.431 204.634V204.97C143.431 205.786 143.947 206.17 144.763 206.17Z" fill="black"/>
<path d="M139.288 209.002H138.328V202.81H139.288V203.95H139.348C139.564 203.362 140.128 202.81 141.136 202.81H141.508V203.77H140.944C139.912 203.77 139.288 204.214 139.288 204.802V209.002Z" fill="black"/>
<path d="M136.821 209.002H136.281C135.573 209.002 135.285 208.57 135.213 207.994H135.153C134.889 208.75 134.229 209.146 133.365 209.146C132.057 209.146 131.289 208.426 131.289 207.274C131.289 206.11 132.129 205.462 133.929 205.462H135.153V204.85C135.153 203.974 134.673 203.494 133.689 203.494C132.945 203.494 132.453 203.854 132.117 204.418L131.541 203.878C131.877 203.218 132.621 202.666 133.737 202.666C135.225 202.666 136.113 203.446 136.113 204.754V208.162H136.821V209.002ZM133.521 208.33C134.469 208.33 135.153 207.838 135.153 207.202V206.182H133.881C132.789 206.182 132.297 206.518 132.297 207.118V207.37C132.297 207.982 132.777 208.33 133.521 208.33Z" fill="black"/>
<path d="M130.247 209.002H129.395C128.735 209.002 128.375 208.582 128.375 208.006V200.122H129.335V208.162H130.247V209.002Z" fill="black"/>
<path d="M118.936 209.002V200.122H119.896V205.75H119.944L120.892 204.694L122.644 202.81H123.808L121.516 205.258L124.036 209.002H122.872L120.82 205.846L119.896 206.794V209.002H118.936Z" fill="black"/>
<path d="M115.068 209.146C113.328 209.146 112.308 207.886 112.308 205.906C112.308 203.926 113.328 202.666 115.068 202.666C116.292 202.666 117.024 203.266 117.384 204.118L116.58 204.526C116.352 203.89 115.824 203.518 115.068 203.518C113.928 203.518 113.34 204.298 113.34 205.378V206.434C113.34 207.514 113.928 208.294 115.068 208.294C115.848 208.294 116.412 207.922 116.748 207.214L117.444 207.682C117.048 208.57 116.244 209.146 115.068 209.146Z" fill="black"/>
<path d="M108.252 209.146C106.596 209.146 105.456 207.874 105.456 205.906C105.456 203.938 106.596 202.666 108.252 202.666C109.908 202.666 111.048 203.938 111.048 205.906C111.048 207.874 109.908 209.146 108.252 209.146ZM108.252 208.294C109.284 208.294 110.016 207.658 110.016 206.35V205.462C110.016 204.154 109.284 203.518 108.252 203.518C107.22 203.518 106.488 204.154 106.488 205.462V206.35C106.488 207.658 107.22 208.294 108.252 208.294Z" fill="black"/>
<path d="M104.377 209.002H103.525C102.865 209.002 102.505 208.582 102.505 208.006V200.122H103.465V208.162H104.377V209.002Z" fill="black"/>
<path d="M95.4071 209.002V200.122H96.3671V203.818H96.4151C96.7391 203.038 97.3751 202.666 98.2271 202.666C99.7751 202.666 100.747 203.926 100.747 205.906C100.747 207.886 99.7751 209.146 98.2271 209.146C97.3751 209.146 96.7871 208.762 96.4151 207.994H96.3671V209.002H95.4071ZM97.9631 208.282C99.0431 208.282 99.7151 207.538 99.7151 206.434V205.378C99.7151 204.274 99.0431 203.53 97.9631 203.53C97.0871 203.53 96.3671 204.034 96.3671 204.718V207.022C96.3671 207.826 97.0871 208.282 97.9631 208.282Z" fill="black"/>
<path d="M88.8506 209.002H87.8906V202.81H88.8506V203.95H88.9106C89.1266 203.362 89.6906 202.81 90.6986 202.81H91.0706V203.77H90.5066C89.4746 203.77 88.8506 204.214 88.8506 204.802V209.002Z" fill="black"/>
<path d="M83.3786 209.146C81.7226 209.146 80.5826 207.874 80.5826 205.906C80.5826 203.938 81.7226 202.666 83.3786 202.666C85.0346 202.666 86.1746 203.938 86.1746 205.906C86.1746 207.874 85.0346 209.146 83.3786 209.146ZM83.3786 208.294C84.4106 208.294 85.1426 207.658 85.1426 206.35V205.462C85.1426 204.154 84.4106 203.518 83.3786 203.518C82.3466 203.518 81.6146 204.154 81.6146 205.462V206.35C81.6146 207.658 82.3466 208.294 83.3786 208.294Z" fill="black"/>
<path d="M79.504 209.002H78.652C77.992 209.002 77.632 208.582 77.632 208.006V200.122H78.592V208.162H79.504V209.002Z" fill="black"/>
<path d="M73.12 209.146C71.464 209.146 70.324 207.874 70.324 205.906C70.324 203.938 71.464 202.666 73.12 202.666C74.776 202.666 75.916 203.938 75.916 205.906C75.916 207.874 74.776 209.146 73.12 209.146ZM73.12 208.294C74.152 208.294 74.884 207.658 74.884 206.35V205.462C74.884 204.154 74.152 203.518 73.12 203.518C72.088 203.518 71.356 204.154 71.356 205.462V206.35C71.356 207.658 72.088 208.294 73.12 208.294Z" fill="black"/>
<path d="M66.9819 209.146C65.2419 209.146 64.2219 207.886 64.2219 205.906C64.2219 203.926 65.2419 202.666 66.9819 202.666C68.2059 202.666 68.9379 203.266 69.2979 204.118L68.4939 204.526C68.2659 203.89 67.7379 203.518 66.9819 203.518C65.8419 203.518 65.2539 204.298 65.2539 205.378V206.434C65.2539 207.514 65.8419 208.294 66.9819 208.294C67.7619 208.294 68.3259 207.922 68.6619 207.214L69.3579 207.682C68.9619 208.57 68.1579 209.146 66.9819 209.146Z" fill="black"/>
<path d="M57.3099 209.146C55.6299 209.146 54.5259 207.874 54.5259 205.906C54.5259 203.938 55.6299 202.666 57.3099 202.666C58.9659 202.666 59.9859 203.938 59.9859 205.69V206.146H55.5339V206.434C55.5339 207.502 56.2179 208.306 57.3699 208.306C58.1499 208.306 58.7499 207.922 59.0739 207.238L59.7579 207.73C59.3619 208.57 58.4739 209.146 57.3099 209.146ZM57.3099 203.47C56.2659 203.47 55.5339 204.262 55.5339 205.342V205.426H58.9539V205.294C58.9539 204.202 58.2939 203.47 57.3099 203.47Z" fill="black"/>
<path d="M48.0244 209.002V200.122H48.9844V203.818H49.0324C49.3324 203.122 49.8604 202.666 50.7844 202.666C52.0564 202.666 52.8604 203.53 52.8604 205.03V209.002H51.9004V205.198C51.9004 204.094 51.4204 203.53 50.4964 203.53C49.7284 203.53 48.9844 203.914 48.9844 204.706V209.002H48.0244Z" fill="black"/>
<path d="M46.6 201.514H43.936V209.002H42.928V201.514H40.264V200.626H46.6V201.514Z" fill="black"/>
<path d="M40 48.002H248V96.002H40V48.002Z" fill="#F2F4F8"/>
<path fill-rule="evenodd" clip-rule="evenodd" d="M39.5 47.502H248.5V96.502H39.5V47.502ZM40.5 48.502V95.502H247.5V48.502H40.5Z" fill="#878D96"/>
<path d="M151.475 86.0019H150.075C149.305 86.0019 148.885 85.5119 148.885 84.8119V79.7579H147.695V78.7779H148.367C148.843 78.7779 148.997 78.6099 148.997 78.1199V76.7759H150.005V78.7779H151.587V79.7579H150.005V85.0219H151.475V86.0019Z" fill="black"/>
<path d="M140.327 86.0023L143.001 82.3623L140.439 78.7783H141.755L143.589 81.4663H143.631L145.535 78.7783H146.781L144.233 82.2783L146.837 86.0023H145.521L143.645 83.1743H143.603L141.573 86.0023H140.327Z" fill="black"/>
<path d="M136.26 86.1699C134.3 86.1699 133.012 84.6859 133.012 82.3899C133.012 80.0939 134.3 78.6099 136.26 78.6099C138.192 78.6099 139.382 80.0939 139.382 82.1379V82.6699H134.188V83.0059C134.188 84.2519 134.986 85.1899 136.33 85.1899C137.24 85.1899 137.94 84.7419 138.318 83.9439L139.116 84.5179C138.654 85.4979 137.618 86.1699 136.26 86.1699ZM136.26 79.5479C135.042 79.5479 134.188 80.4719 134.188 81.7319V81.8299H138.178V81.6759C138.178 80.4019 137.408 79.5479 136.26 79.5479Z" fill="black"/>
<path d="M131.526 86.0019H130.126C129.356 86.0019 128.936 85.5119 128.936 84.8119V79.7579H127.746V78.7779H128.418C128.894 78.7779 129.048 78.6099 129.048 78.1199V76.7759H130.056V78.7779H131.638V79.7579H130.056V85.0219H131.526V86.0019Z" fill="black"/>
<path d="M120.617 83.6923L122.367 78.7783H123.473L120.239 87.6823C119.917 88.5503 119.623 88.8023 118.559 88.8023H117.985V87.8223H119.119L119.665 86.2823L116.963 78.7783H118.083L119.819 83.6923L120.155 84.8683H120.225L120.617 83.6923Z" fill="black"/>
<path d="M113.598 86.0023H112.478V78.7783H113.598V80.1083H113.668C113.92 79.4223 114.578 78.7783 115.754 78.7783H116.188V79.8983H115.53C114.326 79.8983 113.598 80.4163 113.598 81.1023V86.0023Z" fill="black"/>
<path d="M110.72 86.0019H110.09C109.264 86.0019 108.928 85.4979 108.844 84.8259H108.774C108.466 85.7079 107.696 86.1699 106.688 86.1699C105.162 86.1699 104.266 85.3299 104.266 83.9859C104.266 82.6279 105.246 81.8719 107.346 81.8719H108.774V81.1579C108.774 80.1359 108.214 79.5759 107.066 79.5759C106.198 79.5759 105.624 79.9959 105.232 80.6539L104.56 80.0239C104.952 79.2539 105.82 78.6099 107.122 78.6099C108.858 78.6099 109.894 79.5199 109.894 81.0459V85.0219H110.72V86.0019ZM106.87 85.2179C107.976 85.2179 108.774 84.6439 108.774 83.9019V82.7119H107.29C106.016 82.7119 105.442 83.1039 105.442 83.8039V84.0979C105.442 84.8119 106.002 85.2179 106.87 85.2179Z" fill="black"/>
<path d="M101.178 86.0021V84.8261H101.122C100.688 85.7221 100.002 86.1701 99.0084 86.1701C97.2024 86.1701 96.0684 84.7001 96.0684 82.3901C96.0684 80.0801 97.2024 78.6101 99.0084 78.6101C100.002 78.6101 100.744 79.0441 101.122 79.9541H101.178V75.6421H102.298V86.0021H101.178ZM99.3164 85.1621C100.338 85.1621 101.178 84.6301 101.178 83.6921V81.0041C101.178 80.2061 100.338 79.6181 99.3164 79.6181C98.0564 79.6181 97.2724 80.4861 97.2724 81.7741V83.0061C97.2724 84.2941 98.0564 85.1621 99.3164 85.1621Z" fill="black"/>
<path d="M89.5613 86.0019H88.4413V78.7779H89.5613V79.9539H89.6173C89.9673 79.1419 90.5833 78.6099 91.6613 78.6099C93.1453 78.6099 94.0833 79.6179 94.0833 81.3679V86.0019H92.9633V81.5639C92.9633 80.2759 92.4033 79.6179 91.3253 79.6179C90.4293 79.6179 89.5613 80.0659 89.5613 80.9899V86.0019Z" fill="black"/>
<path d="M83.1774 86.1699C81.2454 86.1699 79.9154 84.6859 79.9154 82.3899C79.9154 80.0939 81.2454 78.6099 83.1774 78.6099C85.1094 78.6099 86.4394 80.0939 86.4394 82.3899C86.4394 84.6859 85.1094 86.1699 83.1774 86.1699ZM83.1774 85.1759C84.3814 85.1759 85.2354 84.4339 85.2354 82.9079V81.8719C85.2354 80.3459 84.3814 79.6039 83.1774 79.6039C81.9734 79.6039 81.1194 80.3459 81.1194 81.8719V82.9079C81.1194 84.4339 81.9734 85.1759 83.1774 85.1759Z" fill="black"/>
<path d="M76.0164 86.1699C73.9864 86.1699 72.7964 84.6999 72.7964 82.3899C72.7964 80.0799 73.9864 78.6099 76.0164 78.6099C77.4444 78.6099 78.2984 79.3099 78.7184 80.3039L77.7804 80.7799C77.5144 80.0379 76.8984 79.6039 76.0164 79.6039C74.6864 79.6039 74.0004 80.5139 74.0004 81.7739V83.0059C74.0004 84.2659 74.6864 85.1759 76.0164 85.1759C76.9264 85.1759 77.5844 84.7419 77.9764 83.9159L78.7884 84.4619C78.3264 85.4979 77.3884 86.1699 76.0164 86.1699Z" fill="black"/>
<path d="M68.2008 86.1699C66.2408 86.1699 64.9528 84.6859 64.9528 82.3899C64.9528 80.0939 66.2408 78.6099 68.2008 78.6099C70.1328 78.6099 71.3228 80.0939 71.3228 82.1379V82.6699H66.1288V83.0059C66.1288 84.2519 66.9268 85.1899 68.2708 85.1899C69.1808 85.1899 69.8808 84.7419 70.2588 83.9439L71.0568 84.5179C70.5948 85.4979 69.5588 86.1699 68.2008 86.1699ZM68.2008 79.5479C66.9828 79.5479 66.1288 80.4719 66.1288 81.7319V81.8299H70.1188V81.6759C70.1188 80.4019 69.3488 79.5479 68.2008 79.5479Z" fill="black"/>
<path d="M60.046 86.17C58.478 86.17 57.372 85.526 56.588 84.462L57.456 83.734C58.142 84.644 58.954 85.134 60.088 85.134C61.488 85.134 62.244 84.406 62.244 83.286C62.244 82.362 61.726 81.9 60.438 81.606L59.64 81.424C57.862 81.018 56.882 80.234 56.882 78.736C56.882 77 58.198 76.062 60.116 76.062C61.586 76.062 62.622 76.622 63.35 77.658L62.468 78.302C61.936 77.56 61.194 77.098 60.06 77.098C58.814 77.098 58.044 77.644 58.044 78.694C58.044 79.618 58.646 80.038 59.878 80.318L60.676 80.5C62.58 80.934 63.406 81.774 63.406 83.23C63.406 85.022 62.146 86.17 60.046 86.17Z" fill="black"/>
<path d="M145.582 68.1699C143.426 68.1699 142.138 66.6719 142.138 64.3339C142.138 62.0239 143.384 60.5259 145.526 60.5259C147.808 60.5259 148.858 62.2059 148.858 64.2079V64.7959H144V64.9779C144 66.0279 144.602 66.7419 145.778 66.7419C146.66 66.7419 147.192 66.3219 147.64 65.7479L148.606 66.8259C148.004 67.6519 146.94 68.1699 145.582 68.1699ZM145.554 61.8699C144.616 61.8699 144 62.5699 144 63.5779V63.6899H146.996V63.5639C146.996 62.5559 146.478 61.8699 145.554 61.8699Z" fill="black"/>
<path d="M138.609 68.0021V66.7841H138.539C138.273 67.6101 137.489 68.1701 136.523 68.1701C134.689 68.1701 133.667 66.7841 133.667 64.3341C133.667 61.8981 134.689 60.5261 136.523 60.5261C137.489 60.5261 138.287 61.0581 138.539 61.8981H138.609V57.6421H140.401V68.0021H138.609ZM137.097 66.6861C137.951 66.6861 138.609 66.2521 138.609 65.4961V63.1721C138.609 62.4581 137.951 61.9961 137.097 61.9961C136.173 61.9961 135.543 62.6821 135.543 63.7181V64.9781C135.543 66.0141 136.173 66.6861 137.097 66.6861Z" fill="black"/>
<path d="M128.923 68.1699C126.837 68.1699 125.535 66.6859 125.535 64.3339C125.535 61.9959 126.837 60.5259 128.923 60.5259C131.023 60.5259 132.325 61.9959 132.325 64.3339C132.325 66.6859 131.023 68.1699 128.923 68.1699ZM128.923 66.7279C129.861 66.7279 130.449 66.1259 130.449 65.0199V63.6619C130.449 62.5699 129.861 61.9679 128.923 61.9679C127.999 61.9679 127.411 62.5699 127.411 63.6619V65.0199C127.411 66.1259 127.999 66.7279 128.923 66.7279Z" fill="black"/>
<path d="M119.426 68.0019H117.634V60.6939H119.426V61.9119H119.496C119.79 61.1279 120.406 60.5259 121.54 60.5259C123.038 60.5259 123.878 61.5619 123.878 63.3819V68.0019H122.086V63.5639C122.086 62.5279 121.736 61.9959 120.882 61.9959C120.14 61.9959 119.426 62.3879 119.426 63.1719V68.0019Z" fill="black"/>
<path d="M110.147 68.0021V66.7841H110.077C109.811 67.6101 109.027 68.1701 108.061 68.1701C106.227 68.1701 105.205 66.7841 105.205 64.3341C105.205 61.8981 106.227 60.5261 108.061 60.5261C109.027 60.5261 109.825 61.0581 110.077 61.8981H110.147V57.6421H111.939V68.0021H110.147ZM108.635 66.6861C109.489 66.6861 110.147 66.2521 110.147 65.4961V63.1721C110.147 62.4581 109.489 61.9961 108.635 61.9961C107.711 61.9961 107.081 62.6821 107.081 63.7181V64.9781C107.081 66.0141 107.711 66.6861 108.635 66.6861Z" fill="black"/>
<path d="M100.598 68.1699C98.4424 68.1699 97.1544 66.6719 97.1544 64.3339C97.1544 62.0239 98.4004 60.5259 100.542 60.5259C102.824 60.5259 103.874 62.2059 103.874 64.2079V64.7959H99.0164V64.9779C99.0164 66.0279 99.6184 66.7419 100.794 66.7419C101.676 66.7419 102.208 66.3219 102.656 65.7479L103.622 66.8259C103.02 67.6519 101.956 68.1699 100.598 68.1699ZM100.57 61.8699C99.6324 61.8699 99.0164 62.5699 99.0164 63.5779V63.6899H102.012V63.5639C102.012 62.5559 101.494 61.8699 100.57 61.8699Z" fill="black"/>
<path d="M91.046 68.0019H89.254V60.6939H91.046V61.9119H91.116C91.41 61.1279 92.026 60.5259 93.16 60.5259C94.658 60.5259 95.498 61.5619 95.498 63.3819V68.0019H93.706V63.5639C93.706 62.5279 93.356 61.9959 92.502 61.9959C91.76 61.9959 91.046 62.3879 91.046 63.1719V68.0019Z" fill="black"/>
<path d="M86.1208 59.6301C85.3788 59.6301 85.0708 59.2521 85.0708 58.7341V58.4541C85.0708 57.9361 85.3788 57.5581 86.1208 57.5581C86.8488 57.5581 87.1708 57.9361 87.1708 58.4541V58.7341C87.1708 59.2521 86.8488 59.6301 86.1208 59.6301ZM85.2248 68.0021V60.6941H87.0168V68.0021H85.2248Z" fill="black"/>
<path d="M83.7076 68.0021H82.7416C81.5236 68.0021 80.9496 67.3581 80.9496 66.2381V57.6421H82.7416V66.5741H83.7076V68.0021Z" fill="black"/>
<path d="M77.8353 68.0019C76.6033 68.0019 75.9453 67.3299 75.9453 66.1399V62.1219H74.8673V60.6939H75.4273C75.9593 60.6939 76.1273 60.4419 76.1273 59.9379V58.6919H77.7373V60.6939H79.2353V62.1219H77.7373V66.5739H79.1233V68.0019H77.8353Z" fill="black"/>
<path d="M71.5309 68.0023V66.7843H71.4609C71.2089 67.5123 70.6209 68.1703 69.4169 68.1703C67.9189 68.1703 67.0789 67.1343 67.0789 65.3143V60.6943H68.8709V65.1323C68.8709 66.1403 69.2489 66.6863 70.1029 66.6863C70.8169 66.6863 71.5309 66.3083 71.5309 65.5243V60.6943H73.3229V68.0023H71.5309Z" fill="black"/>
<path d="M60.984 68.17C58.422 68.17 56.728 66.42 56.728 63.116C56.728 59.812 58.422 58.062 60.984 58.062C63.56 58.062 65.24 59.812 65.24 63.116C65.24 66.42 63.56 68.17 60.984 68.17ZM60.984 66.532C62.384 66.532 63.28 65.538 63.28 63.872V62.36C63.28 60.694 62.384 59.7 60.984 59.7C59.584 59.7 58.688 60.694 58.688 62.36V63.872C58.688 65.538 59.584 66.532 60.984 66.532Z" fill="black"/>
<path d="M40 120.002H248V168.002H40V120.002Z" fill="#F2F4F8"/>
<path fill-rule="evenodd" clip-rule="evenodd" d="M39.5 119.502H248.5V168.502H39.5V119.502ZM40.5 120.502V167.502H247.5V120.502H40.5Z" fill="#878D96"/>
<path d="M40 120.002H43V168.002H40V120.002Z" fill="#878D96"/>
<path fill-rule="evenodd" clip-rule="evenodd" d="M39.5 119.502H43.5V168.502H39.5V119.502ZM40.5 120.502V167.502H42.5V120.502H40.5Z" fill="#878D96"/>
<path d="M151.475 158.002H150.075C149.305 158.002 148.885 157.512 148.885 156.812V151.758H147.695V150.778H148.367C148.843 150.778 148.997 150.61 148.997 150.12V148.776H150.005V150.778H151.587V151.758H150.005V157.022H151.475V158.002Z" fill="black"/>
<path d="M140.327 158.002L143.001 154.362L140.439 150.778H141.755L143.589 153.466H143.631L145.535 150.778H146.781L144.233 154.278L146.837 158.002H145.521L143.645 155.174H143.603L141.573 158.002H140.327Z" fill="black"/>
<path d="M136.26 158.17C134.3 158.17 133.012 156.686 133.012 154.39C133.012 152.094 134.3 150.61 136.26 150.61C138.192 150.61 139.382 152.094 139.382 154.138V154.67H134.188V155.006C134.188 156.252 134.986 157.19 136.33 157.19C137.24 157.19 137.94 156.742 138.318 155.944L139.116 156.518C138.654 157.498 137.618 158.17 136.26 158.17ZM136.26 151.548C135.042 151.548 134.188 152.472 134.188 153.732V153.83H138.178V153.676C138.178 152.402 137.408 151.548 136.26 151.548Z" fill="black"/>
<path d="M131.526 158.002H130.126C129.356 158.002 128.936 157.512 128.936 156.812V151.758H127.746V150.778H128.418C128.894 150.778 129.048 150.61 129.048 150.12V148.776H130.056V150.778H131.638V151.758H130.056V157.022H131.526V158.002Z" fill="black"/>
<path d="M120.617 155.692L122.367 150.778H123.473L120.239 159.682C119.917 160.55 119.623 160.802 118.559 160.802H117.985V159.822H119.119L119.665 158.282L116.963 150.778H118.083L119.819 155.692L120.155 156.868H120.225L120.617 155.692Z" fill="black"/>
<path d="M113.598 158.002H112.478V150.778H113.598V152.108H113.668C113.92 151.422 114.578 150.778 115.754 150.778H116.188V151.898H115.53C114.326 151.898 113.598 152.416 113.598 153.102V158.002Z" fill="black"/>
<path d="M110.72 158.002H110.09C109.264 158.002 108.928 157.498 108.844 156.826H108.774C108.466 157.708 107.696 158.17 106.688 158.17C105.162 158.17 104.266 157.33 104.266 155.986C104.266 154.628 105.246 153.872 107.346 153.872H108.774V153.158C108.774 152.136 108.214 151.576 107.066 151.576C106.198 151.576 105.624 151.996 105.232 152.654L104.56 152.024C104.952 151.254 105.82 150.61 107.122 150.61C108.858 150.61 109.894 151.52 109.894 153.046V157.022H110.72V158.002ZM106.87 157.218C107.976 157.218 108.774 156.644 108.774 155.902V154.712H107.29C106.016 154.712 105.442 155.104 105.442 155.804V156.098C105.442 156.812 106.002 157.218 106.87 157.218Z" fill="black"/>
<path d="M101.178 158.002V156.826H101.122C100.688 157.722 100.002 158.17 99.0084 158.17C97.2024 158.17 96.0684 156.7 96.0684 154.39C96.0684 152.08 97.2024 150.61 99.0084 150.61C100.002 150.61 100.744 151.044 101.122 151.954H101.178V147.642H102.298V158.002H101.178ZM99.3164 157.162C100.338 157.162 101.178 156.63 101.178 155.692V153.004C101.178 152.206 100.338 151.618 99.3164 151.618C98.0564 151.618 97.2724 152.486 97.2724 153.774V155.006C97.2724 156.294 98.0564 157.162 99.3164 157.162Z" fill="black"/>
<path d="M89.5613 158.002H88.4413V150.778H89.5613V151.954H89.6173C89.9673 151.142 90.5833 150.61 91.6613 150.61C93.1453 150.61 94.0833 151.618 94.0833 153.368V158.002H92.9633V153.564C92.9633 152.276 92.4033 151.618 91.3253 151.618C90.4293 151.618 89.5613 152.066 89.5613 152.99V158.002Z" fill="black"/>
<path d="M83.1774 158.17C81.2454 158.17 79.9154 156.686 79.9154 154.39C79.9154 152.094 81.2454 150.61 83.1774 150.61C85.1094 150.61 86.4394 152.094 86.4394 154.39C86.4394 156.686 85.1094 158.17 83.1774 158.17ZM83.1774 157.176C84.3814 157.176 85.2354 156.434 85.2354 154.908V153.872C85.2354 152.346 84.3814 151.604 83.1774 151.604C81.9734 151.604 81.1194 152.346 81.1194 153.872V154.908C81.1194 156.434 81.9734 157.176 83.1774 157.176Z" fill="black"/>
<path d="M76.0164 158.17C73.9864 158.17 72.7964 156.7 72.7964 154.39C72.7964 152.08 73.9864 150.61 76.0164 150.61C77.4444 150.61 78.2984 151.31 78.7184 152.304L77.7804 152.78C77.5144 152.038 76.8984 151.604 76.0164 151.604C74.6864 151.604 74.0004 152.514 74.0004 153.774V155.006C74.0004 156.266 74.6864 157.176 76.0164 157.176C76.9264 157.176 77.5844 156.742 77.9764 155.916L78.7884 156.462C78.3264 157.498 77.3884 158.17 76.0164 158.17Z" fill="black"/>
<path d="M68.2008 158.17C66.2408 158.17 64.9528 156.686 64.9528 154.39C64.9528 152.094 66.2408 150.61 68.2008 150.61C70.1328 150.61 71.3228 152.094 71.3228 154.138V154.67H66.1288V155.006C66.1288 156.252 66.9268 157.19 68.2708 157.19C69.1808 157.19 69.8808 156.742 70.2588 155.944L71.0568 156.518C70.5948 157.498 69.5588 158.17 68.2008 158.17ZM68.2008 151.548C66.9828 151.548 66.1288 152.472 66.1288 153.732V153.83H70.1188V153.676C70.1188 152.402 69.3488 151.548 68.2008 151.548Z" fill="black"/>
<path d="M60.046 158.17C58.478 158.17 57.372 157.526 56.588 156.462L57.456 155.734C58.142 156.644 58.954 157.134 60.088 157.134C61.488 157.134 62.244 156.406 62.244 155.286C62.244 154.362 61.726 153.9 60.438 153.606L59.64 153.424C57.862 153.018 56.882 152.234 56.882 150.736C56.882 149 58.198 148.062 60.116 148.062C61.586 148.062 62.622 148.622 63.35 149.658L62.468 150.302C61.936 149.56 61.194 149.098 60.06 149.098C58.814 149.098 58.044 149.644 58.044 150.694C58.044 151.618 58.646 152.038 59.878 152.318L60.676 152.5C62.58 152.934 63.406 153.774 63.406 155.23C63.406 157.022 62.146 158.17 60.046 158.17Z" fill="black"/>
<path d="M143.381 140.17C141.225 140.17 139.937 138.672 139.937 136.334C139.937 134.024 141.183 132.526 143.325 132.526C145.607 132.526 146.657 134.206 146.657 136.208V136.796H141.799V136.978C141.799 138.028 142.401 138.742 143.577 138.742C144.459 138.742 144.991 138.322 145.439 137.748L146.405 138.826C145.803 139.652 144.739 140.17 143.381 140.17ZM143.353 133.87C142.415 133.87 141.799 134.57 141.799 135.578V135.69H144.795V135.564C144.795 134.556 144.277 133.87 143.353 133.87Z" fill="black"/>
<path d="M136.408 140.002V138.784H136.338C136.072 139.61 135.288 140.17 134.322 140.17C132.488 140.17 131.466 138.784 131.466 136.334C131.466 133.898 132.488 132.526 134.322 132.526C135.288 132.526 136.086 133.058 136.338 133.898H136.408V129.642H138.2V140.002H136.408ZM134.896 138.686C135.75 138.686 136.408 138.252 136.408 137.496V135.172C136.408 134.458 135.75 133.996 134.896 133.996C133.972 133.996 133.342 134.682 133.342 135.718V136.978C133.342 138.014 133.972 138.686 134.896 138.686Z" fill="black"/>
<path d="M126.721 140.17C124.635 140.17 123.333 138.686 123.333 136.334C123.333 133.996 124.635 132.526 126.721 132.526C128.821 132.526 130.123 133.996 130.123 136.334C130.123 138.686 128.821 140.17 126.721 140.17ZM126.721 138.728C127.659 138.728 128.247 138.126 128.247 137.02V135.662C128.247 134.57 127.659 133.968 126.721 133.968C125.797 133.968 125.209 134.57 125.209 135.662V137.02C125.209 138.126 125.797 138.728 126.721 138.728Z" fill="black"/>
<path d="M117.225 140.002H115.433V132.694H117.225V133.912H117.295C117.589 133.128 118.205 132.526 119.339 132.526C120.837 132.526 121.677 133.562 121.677 135.382V140.002H119.885V135.564C119.885 134.528 119.535 133.996 118.681 133.996C117.939 133.996 117.225 134.388 117.225 135.172V140.002Z" fill="black"/>
<path d="M108.1 140.002H106.308V132.694H108.1V134.206H108.17C108.352 133.436 108.94 132.694 110.102 132.694H110.494V134.388H109.934C108.73 134.388 108.1 134.724 108.1 135.522V140.002Z" fill="black"/>
<path d="M100.134 140.17C98.6501 140.17 97.8101 139.316 97.8101 138.014C97.8101 136.516 98.9441 135.774 100.932 135.774H102.178V135.242C102.178 134.43 101.772 133.954 100.82 133.954C99.9801 133.954 99.5041 134.374 99.1541 134.878L98.0901 133.926C98.6221 133.086 99.4761 132.526 100.946 132.526C102.92 132.526 103.97 133.464 103.97 135.13V138.574H104.698V140.002H103.704C102.934 140.002 102.458 139.498 102.346 138.742H102.262C102.024 139.68 101.226 140.17 100.134 140.17ZM100.736 138.868C101.534 138.868 102.178 138.504 102.178 137.818V136.852H101.03C100.092 136.852 99.6301 137.174 99.6301 137.748V137.986C99.6301 138.574 100.036 138.868 100.736 138.868Z" fill="black"/>
<path d="M89.7736 140.002V129.642H91.5656V133.898H91.6216C91.8876 133.058 92.6716 132.526 93.6376 132.526C95.4856 132.526 96.5076 133.898 96.5076 136.334C96.5076 138.784 95.4856 140.17 93.6376 140.17C92.6716 140.17 91.9016 139.61 91.6216 138.784H91.5656V140.002H89.7736ZM93.0636 138.686C93.9876 138.686 94.6316 138.014 94.6316 136.978V135.718C94.6316 134.682 93.9876 133.996 93.0636 133.996C92.2096 133.996 91.5656 134.458 91.5656 135.172V137.496C91.5656 138.252 92.2096 138.686 93.0636 138.686Z" fill="black"/>
<path d="M81.2923 140.17C79.1363 140.17 77.8483 138.672 77.8483 136.334C77.8483 134.024 79.0943 132.526 81.2363 132.526C83.5183 132.526 84.5683 134.206 84.5683 136.208V136.796H79.7103V136.978C79.7103 138.028 80.3123 138.742 81.4883 138.742C82.3703 138.742 82.9023 138.322 83.3503 137.748L84.3163 138.826C83.7143 139.652 82.6503 140.17 81.2923 140.17ZM81.2643 133.87C80.3263 133.87 79.7103 134.57 79.7103 135.578V135.69H82.7063V135.564C82.7063 134.556 82.1883 133.87 81.2643 133.87Z" fill="black"/>
<path d="M74.3198 140.002V138.784H74.2498C73.9838 139.61 73.1998 140.17 72.2338 140.17C70.3998 140.17 69.3778 138.784 69.3778 136.334C69.3778 133.898 70.3998 132.526 72.2338 132.526C73.1998 132.526 73.9978 133.058 74.2498 133.898H74.3198V129.642H76.1118V140.002H74.3198ZM72.8078 138.686C73.6618 138.686 74.3198 138.252 74.3198 137.496V135.172C74.3198 134.458 73.6618 133.996 72.8078 133.996C71.8838 133.996 71.2538 134.682 71.2538 135.718V136.978C71.2538 138.014 71.8838 138.686 72.8078 138.686Z" fill="black"/>
<path d="M66.6506 131.63C65.9086 131.63 65.6006 131.252 65.6006 130.734V130.454C65.6006 129.936 65.9086 129.558 66.6506 129.558C67.3786 129.558 67.7006 129.936 67.7006 130.454V130.734C67.7006 131.252 67.3786 131.63 66.6506 131.63ZM65.7546 140.002V132.694H67.5466V140.002H65.7546Z" fill="black"/>
<path d="M60.186 140.17C58.52 140.17 57.372 139.512 56.546 138.546L57.792 137.342C58.464 138.126 59.29 138.546 60.298 138.546C61.432 138.546 62.02 138 62.02 137.174C62.02 136.516 61.712 136.11 60.69 135.928L59.766 135.788C57.792 135.48 56.84 134.542 56.84 132.946C56.84 131.196 58.198 130.062 60.382 130.062C61.852 130.062 62.944 130.566 63.728 131.504L62.468 132.694C61.992 132.092 61.32 131.686 60.284 131.686C59.234 131.686 58.688 132.106 58.688 132.834C58.688 133.576 59.108 133.884 60.046 134.052L60.956 134.22C62.93 134.57 63.854 135.452 63.854 137.062C63.854 138.91 62.524 140.17 60.186 140.17Z" fill="black"/>
</g>
<defs>
<clipPath id="clip0_333_5653">
<rect width="288" height="288" fill="white" transform="translate(0 0.00195312)"/>
</clipPath>
</defs>
</svg>
