<svg width="289" height="288" viewBox="0 0 289 288" fill="none" xmlns="http://www.w3.org/2000/svg">
<path d="M0.44165 0.00195312H288.442V288.002H0.44165V0.00195312Z" fill="white"/>
<path d="M40.4417 48.002H248.442V96.002H40.4417V48.002Z" fill="#F2F4F8"/>
<path fill-rule="evenodd" clip-rule="evenodd" d="M39.9417 47.502H248.942V96.502H39.9417V47.502ZM40.9417 48.502V95.502H247.942V48.502H40.9417Z" fill="#878D96"/>
<path d="M191.917 86.0019H190.517C189.747 86.0019 189.327 85.5119 189.327 84.8119V79.7579H188.137V78.7779H188.809C189.285 78.7779 189.439 78.6099 189.439 78.1199V76.7759H190.447V78.7779H192.029V79.7579H190.447V85.0219H191.917V86.0019Z" fill="black"/>
<path d="M180.769 86.0023L183.443 82.3623L180.881 78.7783H182.197L184.031 81.4663H184.073L185.977 78.7783H187.223L184.675 82.2783L187.279 86.0023H185.963L184.087 83.1743H184.045L182.015 86.0023H180.769Z" fill="black"/>
<path d="M176.701 86.1699C174.741 86.1699 173.453 84.6859 173.453 82.3899C173.453 80.0939 174.741 78.6099 176.701 78.6099C178.633 78.6099 179.823 80.0939 179.823 82.1379V82.6699H174.629V83.0059C174.629 84.2519 175.427 85.1899 176.771 85.1899C177.681 85.1899 178.381 84.7419 178.759 83.9439L179.557 84.5179C179.095 85.4979 178.059 86.1699 176.701 86.1699ZM176.701 79.5479C175.483 79.5479 174.629 80.4719 174.629 81.7319V81.8299H178.619V81.6759C178.619 80.4019 177.849 79.5479 176.701 79.5479Z" fill="black"/>
<path d="M171.968 86.0019H170.568C169.798 86.0019 169.378 85.5119 169.378 84.8119V79.7579H168.188V78.7779H168.86C169.336 78.7779 169.49 78.6099 169.49 78.1199V76.7759H170.498V78.7779H172.08V79.7579H170.498V85.0219H171.968V86.0019Z" fill="black"/>
<path d="M161.059 83.6923L162.809 78.7783H163.915L160.681 87.6823C160.359 88.5503 160.065 88.8023 159.001 88.8023H158.427V87.8223H159.561L160.107 86.2823L157.405 78.7783H158.525L160.261 83.6923L160.597 84.8683H160.667L161.059 83.6923Z" fill="black"/>
<path d="M154.04 86.0023H152.92V78.7783H154.04V80.1083H154.11C154.362 79.4223 155.02 78.7783 156.196 78.7783H156.63V79.8983H155.972C154.768 79.8983 154.04 80.4163 154.04 81.1023V86.0023Z" fill="black"/>
<path d="M151.161 86.0019H150.531C149.705 86.0019 149.369 85.4979 149.285 84.8259H149.215C148.907 85.7079 148.137 86.1699 147.129 86.1699C145.603 86.1699 144.707 85.3299 144.707 83.9859C144.707 82.6279 145.687 81.8719 147.787 81.8719H149.215V81.1579C149.215 80.1359 148.655 79.5759 147.507 79.5759C146.639 79.5759 146.065 79.9959 145.673 80.6539L145.001 80.0239C145.393 79.2539 146.261 78.6099 147.563 78.6099C149.299 78.6099 150.335 79.5199 150.335 81.0459V85.0219H151.161V86.0019ZM147.311 85.2179C148.417 85.2179 149.215 84.6439 149.215 83.9019V82.7119H147.731C146.457 82.7119 145.883 83.1039 145.883 83.8039V84.0979C145.883 84.8119 146.443 85.2179 147.311 85.2179Z" fill="black"/>
<path d="M141.62 86.0021V84.8261H141.564C141.13 85.7221 140.444 86.1701 139.45 86.1701C137.644 86.1701 136.51 84.7001 136.51 82.3901C136.51 80.0801 137.644 78.6101 139.45 78.6101C140.444 78.6101 141.186 79.0441 141.564 79.9541H141.62V75.6421H142.74V86.0021H141.62ZM139.758 85.1621C140.78 85.1621 141.62 84.6301 141.62 83.6921V81.0041C141.62 80.2061 140.78 79.6181 139.758 79.6181C138.498 79.6181 137.714 80.4861 137.714 81.7741V83.0061C137.714 84.2941 138.498 85.1621 139.758 85.1621Z" fill="black"/>
<path d="M130.003 86.0019H128.883V78.7779H130.003V79.9539H130.059C130.409 79.1419 131.025 78.6099 132.103 78.6099C133.587 78.6099 134.525 79.6179 134.525 81.3679V86.0019H133.405V81.5639C133.405 80.2759 132.845 79.6179 131.767 79.6179C130.871 79.6179 130.003 80.0659 130.003 80.9899V86.0019Z" fill="black"/>
<path d="M123.619 86.1699C121.687 86.1699 120.357 84.6859 120.357 82.3899C120.357 80.0939 121.687 78.6099 123.619 78.6099C125.551 78.6099 126.881 80.0939 126.881 82.3899C126.881 84.6859 125.551 86.1699 123.619 86.1699ZM123.619 85.1759C124.823 85.1759 125.677 84.4339 125.677 82.9079V81.8719C125.677 80.3459 124.823 79.6039 123.619 79.6039C122.415 79.6039 121.561 80.3459 121.561 81.8719V82.9079C121.561 84.4339 122.415 85.1759 123.619 85.1759Z" fill="black"/>
<path d="M116.458 86.1699C114.428 86.1699 113.238 84.6999 113.238 82.3899C113.238 80.0799 114.428 78.6099 116.458 78.6099C117.886 78.6099 118.74 79.3099 119.16 80.3039L118.222 80.7799C117.956 80.0379 117.34 79.6039 116.458 79.6039C115.128 79.6039 114.442 80.5139 114.442 81.7739V83.0059C114.442 84.2659 115.128 85.1759 116.458 85.1759C117.368 85.1759 118.026 84.7419 118.418 83.9159L119.23 84.4619C118.768 85.4979 117.83 86.1699 116.458 86.1699Z" fill="black"/>
<path d="M108.642 86.1699C106.682 86.1699 105.394 84.6859 105.394 82.3899C105.394 80.0939 106.682 78.6099 108.642 78.6099C110.574 78.6099 111.764 80.0939 111.764 82.1379V82.6699H106.57V83.0059C106.57 84.2519 107.368 85.1899 108.712 85.1899C109.622 85.1899 110.322 84.7419 110.7 83.9439L111.498 84.5179C111.036 85.4979 110 86.1699 108.642 86.1699ZM108.642 79.5479C107.424 79.5479 106.57 80.4719 106.57 81.7319V81.8299H110.56V81.6759C110.56 80.4019 109.79 79.5479 108.642 79.5479Z" fill="black"/>
<path d="M100.488 86.17C98.9197 86.17 97.8137 85.526 97.0297 84.462L97.8977 83.734C98.5837 84.644 99.3957 85.134 100.53 85.134C101.93 85.134 102.686 84.406 102.686 83.286C102.686 82.362 102.168 81.9 100.88 81.606L100.082 81.424C98.3037 81.018 97.3237 80.234 97.3237 78.736C97.3237 77 98.6397 76.062 100.558 76.062C102.028 76.062 103.064 76.622 103.792 77.658L102.91 78.302C102.378 77.56 101.636 77.098 100.502 77.098C99.2557 77.098 98.4857 77.644 98.4857 78.694C98.4857 79.618 99.0877 80.038 100.32 80.318L101.118 80.5C103.022 80.934 103.848 81.774 103.848 83.23C103.848 85.022 102.588 86.17 100.488 86.17Z" fill="black"/>
<path d="M186.024 68.1699C183.868 68.1699 182.58 66.6719 182.58 64.3339C182.58 62.0239 183.826 60.5259 185.968 60.5259C188.25 60.5259 189.3 62.2059 189.3 64.2079V64.7959H184.442V64.9779C184.442 66.0279 185.044 66.7419 186.22 66.7419C187.102 66.7419 187.634 66.3219 188.082 65.7479L189.048 66.8259C188.446 67.6519 187.382 68.1699 186.024 68.1699ZM185.996 61.8699C185.058 61.8699 184.442 62.5699 184.442 63.5779V63.6899H187.438V63.5639C187.438 62.5559 186.92 61.8699 185.996 61.8699Z" fill="black"/>
<path d="M179.051 68.0021V66.7841H178.981C178.715 67.6101 177.931 68.1701 176.965 68.1701C175.131 68.1701 174.109 66.7841 174.109 64.3341C174.109 61.8981 175.131 60.5261 176.965 60.5261C177.931 60.5261 178.729 61.0581 178.981 61.8981H179.051V57.6421H180.843V68.0021H179.051ZM177.539 66.6861C178.393 66.6861 179.051 66.2521 179.051 65.4961V63.1721C179.051 62.4581 178.393 61.9961 177.539 61.9961C176.615 61.9961 175.985 62.6821 175.985 63.7181V64.9781C175.985 66.0141 176.615 66.6861 177.539 66.6861Z" fill="black"/>
<path d="M169.364 68.1699C167.278 68.1699 165.976 66.6859 165.976 64.3339C165.976 61.9959 167.278 60.5259 169.364 60.5259C171.464 60.5259 172.766 61.9959 172.766 64.3339C172.766 66.6859 171.464 68.1699 169.364 68.1699ZM169.364 66.7279C170.302 66.7279 170.89 66.1259 170.89 65.0199V63.6619C170.89 62.5699 170.302 61.9679 169.364 61.9679C168.44 61.9679 167.852 62.5699 167.852 63.6619V65.0199C167.852 66.1259 168.44 66.7279 169.364 66.7279Z" fill="black"/>
<path d="M159.868 68.0019H158.076V60.6939H159.868V61.9119H159.938C160.232 61.1279 160.848 60.5259 161.982 60.5259C163.48 60.5259 164.32 61.5619 164.32 63.3819V68.0019H162.528V63.5639C162.528 62.5279 162.178 61.9959 161.324 61.9959C160.582 61.9959 159.868 62.3879 159.868 63.1719V68.0019Z" fill="black"/>
<path d="M150.589 68.0021V66.7841H150.519C150.253 67.6101 149.469 68.1701 148.503 68.1701C146.669 68.1701 145.647 66.7841 145.647 64.3341C145.647 61.8981 146.669 60.5261 148.503 60.5261C149.469 60.5261 150.267 61.0581 150.519 61.8981H150.589V57.6421H152.381V68.0021H150.589ZM149.077 66.6861C149.931 66.6861 150.589 66.2521 150.589 65.4961V63.1721C150.589 62.4581 149.931 61.9961 149.077 61.9961C148.153 61.9961 147.523 62.6821 147.523 63.7181V64.9781C147.523 66.0141 148.153 66.6861 149.077 66.6861Z" fill="black"/>
<path d="M141.04 68.1699C138.884 68.1699 137.596 66.6719 137.596 64.3339C137.596 62.0239 138.842 60.5259 140.984 60.5259C143.266 60.5259 144.316 62.2059 144.316 64.2079V64.7959H139.458V64.9779C139.458 66.0279 140.06 66.7419 141.236 66.7419C142.118 66.7419 142.65 66.3219 143.098 65.7479L144.064 66.8259C143.462 67.6519 142.398 68.1699 141.04 68.1699ZM141.012 61.8699C140.074 61.8699 139.458 62.5699 139.458 63.5779V63.6899H142.454V63.5639C142.454 62.5559 141.936 61.8699 141.012 61.8699Z" fill="black"/>
<path d="M131.488 68.0019H129.696V60.6939H131.488V61.9119H131.558C131.852 61.1279 132.468 60.5259 133.602 60.5259C135.1 60.5259 135.94 61.5619 135.94 63.3819V68.0019H134.148V63.5639C134.148 62.5279 133.798 61.9959 132.944 61.9959C132.202 61.9959 131.488 62.3879 131.488 63.1719V68.0019Z" fill="black"/>
<path d="M126.562 59.6301C125.82 59.6301 125.512 59.2521 125.512 58.7341V58.4541C125.512 57.9361 125.82 57.5581 126.562 57.5581C127.29 57.5581 127.612 57.9361 127.612 58.4541V58.7341C127.612 59.2521 127.29 59.6301 126.562 59.6301ZM125.666 68.0021V60.6941H127.458V68.0021H125.666Z" fill="black"/>
<path d="M124.149 68.0021H123.183C121.965 68.0021 121.391 67.3581 121.391 66.2381V57.6421H123.183V66.5741H124.149V68.0021Z" fill="black"/>
<path d="M118.277 68.0019C117.045 68.0019 116.387 67.3299 116.387 66.1399V62.1219H115.309V60.6939H115.869C116.401 60.6939 116.569 60.4419 116.569 59.9379V58.6919H118.179V60.6939H119.677V62.1219H118.179V66.5739H119.565V68.0019H118.277Z" fill="black"/>
<path d="M111.973 68.0023V66.7843H111.903C111.651 67.5123 111.063 68.1703 109.859 68.1703C108.361 68.1703 107.521 67.1343 107.521 65.3143V60.6943H109.313V65.1323C109.313 66.1403 109.691 66.6863 110.545 66.6863C111.259 66.6863 111.973 66.3083 111.973 65.5243V60.6943H113.765V68.0023H111.973Z" fill="black"/>
<path d="M101.426 68.17C98.8637 68.17 97.1697 66.42 97.1697 63.116C97.1697 59.812 98.8637 58.062 101.426 58.062C104.002 58.062 105.682 59.812 105.682 63.116C105.682 66.42 104.002 68.17 101.426 68.17ZM101.426 66.532C102.826 66.532 103.722 65.538 103.722 63.872V62.36C103.722 60.694 102.826 59.7 101.426 59.7C100.026 59.7 99.1297 60.694 99.1297 62.36V63.872C99.1297 65.538 100.026 66.532 101.426 66.532Z" fill="black"/>
<rect width="24" height="24" transform="translate(56.4417 60.002)" fill="white" style="mix-blend-mode:multiply"/>
<path d="M68.4417 63.002C69.1833 63.002 69.9084 63.2219 70.525 63.6339C71.1417 64.046 71.6224 64.6317 71.9062 65.3169C72.19 66.0021 72.2643 66.7561 72.1196 67.4835C71.9749 68.211 71.6177 68.8792 71.0933 69.4036C70.5689 69.9281 69.9007 70.2852 69.1732 70.4299C68.4458 70.5746 67.6918 70.5003 67.0066 70.2165C66.3214 69.9327 65.7357 69.452 65.3236 68.8353C64.9116 68.2187 64.6917 67.4936 64.6917 66.752C64.6917 65.7574 65.0867 64.8036 65.79 64.1003C66.4933 63.397 67.4471 63.002 68.4417 63.002ZM68.4417 61.502C67.4033 61.502 66.3883 61.8099 65.5249 62.3867C64.6615 62.9636 63.9886 63.7836 63.5913 64.7429C63.1939 65.7022 63.09 66.7578 63.2925 67.7762C63.4951 68.7946 63.9951 69.73 64.7293 70.4643C65.4636 71.1985 66.399 71.6985 67.4174 71.9011C68.4358 72.1036 69.4914 71.9997 70.4507 71.6023C71.41 71.205 72.23 70.5321 72.8069 69.6687C73.3837 68.8053 73.6917 67.7903 73.6917 66.752C73.6917 65.3596 73.1385 64.0242 72.154 63.0396C71.1694 62.0551 69.834 61.502 68.4417 61.502Z" fill="black"/>
<path d="M75.9417 82.502H74.4417V78.752C74.4417 78.2595 74.3447 77.7719 74.1562 77.3169C73.9677 76.8619 73.6915 76.4485 73.3433 76.1003C72.9951 75.7521 72.5817 75.4759 72.1267 75.2874C71.6717 75.0989 71.1841 75.002 70.6917 75.002H66.1917C65.1971 75.002 64.2433 75.397 63.54 76.1003C62.8367 76.8036 62.4417 77.7574 62.4417 78.752V82.502H60.9417V78.752C60.9417 77.3596 61.4948 76.0242 62.4793 75.0396C63.4639 74.0551 64.7993 73.502 66.1917 73.502H70.6917C72.084 73.502 73.4194 74.0551 74.404 75.0396C75.3885 76.0242 75.9417 77.3596 75.9417 78.752V82.502Z" fill="black"/>
<path d="M40.4417 192.002H248.442V240.002H40.4417V192.002Z" fill="#F2F4F8"/>
<path fill-rule="evenodd" clip-rule="evenodd" d="M39.9417 191.502H248.942V240.502H39.9417V191.502ZM40.9417 192.502V239.502H247.942V192.502H40.9417Z" fill="#878D96"/>
<path d="M40.4417 192.002H88.4417V240.002H40.4417V192.002Z" fill="#878D96"/>
<path fill-rule="evenodd" clip-rule="evenodd" d="M39.9417 191.502H88.9417V240.502H39.9417V191.502ZM40.9417 192.502V239.502H87.9417V192.502H40.9417Z" fill="#878D96"/>
<path d="M199.917 230.002H198.517C197.747 230.002 197.327 229.512 197.327 228.812V223.758H196.137V222.778H196.809C197.285 222.778 197.439 222.61 197.439 222.12V220.776H198.447V222.778H200.029V223.758H198.447V229.022H199.917V230.002Z" fill="black"/>
<path d="M188.769 230.002L191.443 226.362L188.881 222.778H190.197L192.031 225.466H192.073L193.977 222.778H195.223L192.675 226.278L195.279 230.002H193.963L192.087 227.174H192.045L190.015 230.002H188.769Z" fill="black"/>
<path d="M184.701 230.17C182.741 230.17 181.453 228.686 181.453 226.39C181.453 224.094 182.741 222.61 184.701 222.61C186.633 222.61 187.823 224.094 187.823 226.138V226.67H182.629V227.006C182.629 228.252 183.427 229.19 184.771 229.19C185.681 229.19 186.381 228.742 186.759 227.944L187.557 228.518C187.095 229.498 186.059 230.17 184.701 230.17ZM184.701 223.548C183.483 223.548 182.629 224.472 182.629 225.732V225.83H186.619V225.676C186.619 224.402 185.849 223.548 184.701 223.548Z" fill="black"/>
<path d="M179.968 230.002H178.568C177.798 230.002 177.378 229.512 177.378 228.812V223.758H176.188V222.778H176.86C177.336 222.778 177.49 222.61 177.49 222.12V220.776H178.498V222.778H180.08V223.758H178.498V229.022H179.968V230.002Z" fill="black"/>
<path d="M169.059 227.692L170.809 222.778H171.915L168.681 231.682C168.359 232.55 168.065 232.802 167.001 232.802H166.427V231.822H167.561L168.107 230.282L165.405 222.778H166.525L168.261 227.692L168.597 228.868H168.667L169.059 227.692Z" fill="black"/>
<path d="M162.04 230.002H160.92V222.778H162.04V224.108H162.11C162.362 223.422 163.02 222.778 164.196 222.778H164.63V223.898H163.972C162.768 223.898 162.04 224.416 162.04 225.102V230.002Z" fill="black"/>
<path d="M159.161 230.002H158.531C157.705 230.002 157.369 229.498 157.285 228.826H157.215C156.907 229.708 156.137 230.17 155.129 230.17C153.603 230.17 152.707 229.33 152.707 227.986C152.707 226.628 153.687 225.872 155.787 225.872H157.215V225.158C157.215 224.136 156.655 223.576 155.507 223.576C154.639 223.576 154.065 223.996 153.673 224.654L153.001 224.024C153.393 223.254 154.261 222.61 155.563 222.61C157.299 222.61 158.335 223.52 158.335 225.046V229.022H159.161V230.002ZM155.311 229.218C156.417 229.218 157.215 228.644 157.215 227.902V226.712H155.731C154.457 226.712 153.883 227.104 153.883 227.804V228.098C153.883 228.812 154.443 229.218 155.311 229.218Z" fill="black"/>
<path d="M149.62 230.002V228.826H149.564C149.13 229.722 148.444 230.17 147.45 230.17C145.644 230.17 144.51 228.7 144.51 226.39C144.51 224.08 145.644 222.61 147.45 222.61C148.444 222.61 149.186 223.044 149.564 223.954H149.62V219.642H150.74V230.002H149.62ZM147.758 229.162C148.78 229.162 149.62 228.63 149.62 227.692V225.004C149.62 224.206 148.78 223.618 147.758 223.618C146.498 223.618 145.714 224.486 145.714 225.774V227.006C145.714 228.294 146.498 229.162 147.758 229.162Z" fill="black"/>
<path d="M138.003 230.002H136.883V222.778H138.003V223.954H138.059C138.409 223.142 139.025 222.61 140.103 222.61C141.587 222.61 142.525 223.618 142.525 225.368V230.002H141.405V225.564C141.405 224.276 140.845 223.618 139.767 223.618C138.871 223.618 138.003 224.066 138.003 224.99V230.002Z" fill="black"/>
<path d="M131.619 230.17C129.687 230.17 128.357 228.686 128.357 226.39C128.357 224.094 129.687 222.61 131.619 222.61C133.551 222.61 134.881 224.094 134.881 226.39C134.881 228.686 133.551 230.17 131.619 230.17ZM131.619 229.176C132.823 229.176 133.677 228.434 133.677 226.908V225.872C133.677 224.346 132.823 223.604 131.619 223.604C130.415 223.604 129.561 224.346 129.561 225.872V226.908C129.561 228.434 130.415 229.176 131.619 229.176Z" fill="black"/>
<path d="M124.458 230.17C122.428 230.17 121.238 228.7 121.238 226.39C121.238 224.08 122.428 222.61 124.458 222.61C125.886 222.61 126.74 223.31 127.16 224.304L126.222 224.78C125.956 224.038 125.34 223.604 124.458 223.604C123.128 223.604 122.442 224.514 122.442 225.774V227.006C122.442 228.266 123.128 229.176 124.458 229.176C125.368 229.176 126.026 228.742 126.418 227.916L127.23 228.462C126.768 229.498 125.83 230.17 124.458 230.17Z" fill="black"/>
<path d="M116.642 230.17C114.682 230.17 113.394 228.686 113.394 226.39C113.394 224.094 114.682 222.61 116.642 222.61C118.574 222.61 119.764 224.094 119.764 226.138V226.67H114.57V227.006C114.57 228.252 115.368 229.19 116.712 229.19C117.622 229.19 118.322 228.742 118.7 227.944L119.498 228.518C119.036 229.498 118 230.17 116.642 230.17ZM116.642 223.548C115.424 223.548 114.57 224.472 114.57 225.732V225.83H118.56V225.676C118.56 224.402 117.79 223.548 116.642 223.548Z" fill="black"/>
<path d="M108.488 230.17C106.92 230.17 105.814 229.526 105.03 228.462L105.898 227.734C106.584 228.644 107.396 229.134 108.53 229.134C109.93 229.134 110.686 228.406 110.686 227.286C110.686 226.362 110.168 225.9 108.88 225.606L108.082 225.424C106.304 225.018 105.324 224.234 105.324 222.736C105.324 221 106.64 220.062 108.558 220.062C110.028 220.062 111.064 220.622 111.792 221.658L110.91 222.302C110.378 221.56 109.636 221.098 108.502 221.098C107.256 221.098 106.486 221.644 106.486 222.694C106.486 223.618 107.088 224.038 108.32 224.318L109.118 224.5C111.022 224.934 111.848 225.774 111.848 227.23C111.848 229.022 110.588 230.17 108.488 230.17Z" fill="black"/>
<path d="M211.771 212.17C209.615 212.17 208.327 210.672 208.327 208.334C208.327 206.024 209.573 204.526 211.715 204.526C213.997 204.526 215.047 206.206 215.047 208.208V208.796H210.189V208.978C210.189 210.028 210.791 210.742 211.967 210.742C212.849 210.742 213.381 210.322 213.829 209.748L214.795 210.826C214.193 211.652 213.129 212.17 211.771 212.17ZM211.743 205.87C210.805 205.87 210.189 206.57 210.189 207.578V207.69H213.185V207.564C213.185 206.556 212.667 205.87 211.743 205.87Z" fill="black"/>
<path d="M204.799 212.002V210.784H204.729C204.463 211.61 203.679 212.17 202.713 212.17C200.879 212.17 199.857 210.784 199.857 208.334C199.857 205.898 200.879 204.526 202.713 204.526C203.679 204.526 204.477 205.058 204.729 205.898H204.799V201.642H206.591V212.002H204.799ZM203.287 210.686C204.141 210.686 204.799 210.252 204.799 209.496V207.172C204.799 206.458 204.141 205.996 203.287 205.996C202.363 205.996 201.733 206.682 201.733 207.718V208.978C201.733 210.014 202.363 210.686 203.287 210.686Z" fill="black"/>
<path d="M195.112 212.17C193.026 212.17 191.724 210.686 191.724 208.334C191.724 205.996 193.026 204.526 195.112 204.526C197.212 204.526 198.514 205.996 198.514 208.334C198.514 210.686 197.212 212.17 195.112 212.17ZM195.112 210.728C196.05 210.728 196.638 210.126 196.638 209.02V207.662C196.638 206.57 196.05 205.968 195.112 205.968C194.188 205.968 193.6 206.57 193.6 207.662V209.02C193.6 210.126 194.188 210.728 195.112 210.728Z" fill="black"/>
<path d="M185.615 212.002H183.823V204.694H185.615V205.912H185.685C185.979 205.128 186.595 204.526 187.729 204.526C189.227 204.526 190.067 205.562 190.067 207.382V212.002H188.275V207.564C188.275 206.528 187.925 205.996 187.071 205.996C186.329 205.996 185.615 206.388 185.615 207.172V212.002Z" fill="black"/>
<path d="M172.333 212.002V201.642H174.125V207.886H174.195L175.161 206.57L176.799 204.694H178.829L176.309 207.522L179.095 212.002H176.967L175.091 208.726L174.125 209.776V212.002H172.333Z" fill="black"/>
<path d="M167.88 212.17C165.724 212.17 164.506 210.686 164.506 208.334C164.506 205.996 165.724 204.526 167.88 204.526C169.35 204.526 170.316 205.226 170.75 206.374L169.28 207.032C169.112 206.416 168.65 205.968 167.88 205.968C166.886 205.968 166.382 206.668 166.382 207.69V209.02C166.382 210.042 166.886 210.728 167.88 210.728C168.734 210.728 169.154 210.238 169.42 209.58L170.792 210.238C170.316 211.526 169.294 212.17 167.88 212.17Z" fill="black"/>
<path d="M159.845 212.17C157.759 212.17 156.457 210.686 156.457 208.334C156.457 205.996 157.759 204.526 159.845 204.526C161.945 204.526 163.247 205.996 163.247 208.334C163.247 210.686 161.945 212.17 159.845 212.17ZM159.845 210.728C160.783 210.728 161.371 210.126 161.371 209.02V207.662C161.371 206.57 160.783 205.968 159.845 205.968C158.921 205.968 158.333 206.57 158.333 207.662V209.02C158.333 210.126 158.921 210.728 159.845 210.728Z" fill="black"/>
<path d="M155.43 212.002H154.464C153.246 212.002 152.672 211.358 152.672 210.238V201.642H154.464V210.574H155.43V212.002Z" fill="black"/>
<path d="M144.117 212.002V201.642H145.909V205.898H145.965C146.231 205.058 147.015 204.526 147.981 204.526C149.829 204.526 150.851 205.898 150.851 208.334C150.851 210.784 149.829 212.17 147.981 212.17C147.015 212.17 146.245 211.61 145.965 210.784H145.909V212.002H144.117ZM147.407 210.686C148.331 210.686 148.975 210.014 148.975 208.978V207.718C148.975 206.682 148.331 205.996 147.407 205.996C146.553 205.996 145.909 206.458 145.909 207.172V209.496C145.909 210.252 146.553 210.686 147.407 210.686Z" fill="black"/>
<path d="M136.785 212.002H134.993V204.694H136.785V206.206H136.855C137.037 205.436 137.625 204.694 138.787 204.694H139.179V206.388H138.619C137.415 206.388 136.785 206.724 136.785 207.522V212.002Z" fill="black"/>
<path d="M129.842 212.17C127.756 212.17 126.454 210.686 126.454 208.334C126.454 205.996 127.756 204.526 129.842 204.526C131.942 204.526 133.244 205.996 133.244 208.334C133.244 210.686 131.942 212.17 129.842 212.17ZM129.842 210.728C130.78 210.728 131.368 210.126 131.368 209.02V207.662C131.368 206.57 130.78 205.968 129.842 205.968C128.918 205.968 128.33 206.57 128.33 207.662V209.02C128.33 210.126 128.918 210.728 129.842 210.728Z" fill="black"/>
<path d="M125.427 212.002H124.461C123.243 212.002 122.669 211.358 122.669 210.238V201.642H124.461V210.574H125.427V212.002Z" fill="black"/>
<path d="M117.518 212.17C115.432 212.17 114.13 210.686 114.13 208.334C114.13 205.996 115.432 204.526 117.518 204.526C119.618 204.526 120.92 205.996 120.92 208.334C120.92 210.686 119.618 212.17 117.518 212.17ZM117.518 210.728C118.456 210.728 119.044 210.126 119.044 209.02V207.662C119.044 206.57 118.456 205.968 117.518 205.968C116.594 205.968 116.006 206.57 116.006 207.662V209.02C116.006 210.126 116.594 210.728 117.518 210.728Z" fill="black"/>
<path d="M109.384 212.17C106.808 212.17 105.17 210.476 105.17 207.186C105.17 203.896 106.808 202.062 109.384 202.062C111.134 202.062 112.268 202.804 112.954 204.316L111.372 205.156C111.092 204.288 110.476 203.7 109.384 203.7C108.012 203.7 107.13 204.694 107.13 206.36V207.9C107.13 209.58 108.012 210.532 109.384 210.532C110.49 210.532 111.176 209.86 111.498 208.978L112.996 209.86C112.296 211.316 111.134 212.17 109.384 212.17Z" fill="black"/>
<rect width="24" height="24" transform="translate(52.4417 204.002)" fill="white" style="mix-blend-mode:multiply"/>
<path d="M64.4417 207.002C65.1833 207.002 65.9084 207.222 66.525 207.634C67.1417 208.046 67.6224 208.632 67.9062 209.317C68.19 210.002 68.2643 210.756 68.1196 211.484C67.9749 212.211 67.6177 212.879 67.0933 213.404C66.5689 213.928 65.9007 214.285 65.1732 214.43C64.4458 214.575 63.6918 214.5 63.0066 214.217C62.3214 213.933 61.7357 213.452 61.3236 212.835C60.9116 212.219 60.6917 211.494 60.6917 210.752C60.6917 209.757 61.0867 208.804 61.79 208.1C62.4933 207.397 63.4471 207.002 64.4417 207.002ZM64.4417 205.502C63.4033 205.502 62.3883 205.81 61.5249 206.387C60.6615 206.964 59.9886 207.784 59.5913 208.743C59.1939 209.702 59.09 210.758 59.2925 211.776C59.4951 212.795 59.9951 213.73 60.7293 214.464C61.4636 215.198 62.399 215.699 63.4174 215.901C64.4358 216.104 65.4914 216 66.4507 215.602C67.41 215.205 68.23 214.532 68.8069 213.669C69.3837 212.805 69.6917 211.79 69.6917 210.752C69.6917 209.36 69.1385 208.024 68.154 207.04C67.1694 206.055 65.834 205.502 64.4417 205.502Z" fill="white"/>
<path d="M71.9417 226.502H70.4417V222.752C70.4417 222.259 70.3447 221.772 70.1562 221.317C69.9677 220.862 69.6915 220.449 69.3433 220.1C68.9951 219.752 68.5817 219.476 68.1267 219.287C67.6717 219.099 67.1841 219.002 66.6917 219.002H62.1917C61.1971 219.002 60.2433 219.397 59.54 220.1C58.8367 220.804 58.4417 221.757 58.4417 222.752V226.502H56.9417V222.752C56.9417 221.36 57.4948 220.024 58.4793 219.04C59.4639 218.055 60.7993 217.502 62.1917 217.502H66.6917C68.084 217.502 69.4194 218.055 70.404 219.04C71.3885 220.024 71.9417 221.36 71.9417 222.752V226.502Z" fill="white"/>
<path d="M40.4417 120.002H248.442V168.002H40.4417V120.002Z" fill="#F2F4F8"/>
<path fill-rule="evenodd" clip-rule="evenodd" d="M39.9417 119.502H248.942V168.502H39.9417V119.502ZM40.9417 120.502V167.502H247.942V120.502H40.9417Z" fill="#878D96"/>
<path d="M40.4417 120.002H43.4417V168.002H40.4417V120.002Z" fill="#878D96"/>
<path fill-rule="evenodd" clip-rule="evenodd" d="M39.9417 119.502H43.9417V168.502H39.9417V119.502ZM40.9417 120.502V167.502H42.9417V120.502H40.9417Z" fill="#878D96"/>
<path d="M191.917 158.002H190.517C189.747 158.002 189.327 157.512 189.327 156.812V151.758H188.137V150.778H188.809C189.285 150.778 189.439 150.61 189.439 150.12V148.776H190.447V150.778H192.029V151.758H190.447V157.022H191.917V158.002Z" fill="black"/>
<path d="M180.769 158.002L183.443 154.362L180.881 150.778H182.197L184.031 153.466H184.073L185.977 150.778H187.223L184.675 154.278L187.279 158.002H185.963L184.087 155.174H184.045L182.015 158.002H180.769Z" fill="black"/>
<path d="M176.701 158.17C174.741 158.17 173.453 156.686 173.453 154.39C173.453 152.094 174.741 150.61 176.701 150.61C178.633 150.61 179.823 152.094 179.823 154.138V154.67H174.629V155.006C174.629 156.252 175.427 157.19 176.771 157.19C177.681 157.19 178.381 156.742 178.759 155.944L179.557 156.518C179.095 157.498 178.059 158.17 176.701 158.17ZM176.701 151.548C175.483 151.548 174.629 152.472 174.629 153.732V153.83H178.619V153.676C178.619 152.402 177.849 151.548 176.701 151.548Z" fill="black"/>
<path d="M171.968 158.002H170.568C169.798 158.002 169.378 157.512 169.378 156.812V151.758H168.188V150.778H168.86C169.336 150.778 169.49 150.61 169.49 150.12V148.776H170.498V150.778H172.08V151.758H170.498V157.022H171.968V158.002Z" fill="black"/>
<path d="M161.059 155.692L162.809 150.778H163.915L160.681 159.682C160.359 160.55 160.065 160.802 159.001 160.802H158.427V159.822H159.561L160.107 158.282L157.405 150.778H158.525L160.261 155.692L160.597 156.868H160.667L161.059 155.692Z" fill="black"/>
<path d="M154.04 158.002H152.92V150.778H154.04V152.108H154.11C154.362 151.422 155.02 150.778 156.196 150.778H156.63V151.898H155.972C154.768 151.898 154.04 152.416 154.04 153.102V158.002Z" fill="black"/>
<path d="M151.161 158.002H150.531C149.705 158.002 149.369 157.498 149.285 156.826H149.215C148.907 157.708 148.137 158.17 147.129 158.17C145.603 158.17 144.707 157.33 144.707 155.986C144.707 154.628 145.687 153.872 147.787 153.872H149.215V153.158C149.215 152.136 148.655 151.576 147.507 151.576C146.639 151.576 146.065 151.996 145.673 152.654L145.001 152.024C145.393 151.254 146.261 150.61 147.563 150.61C149.299 150.61 150.335 151.52 150.335 153.046V157.022H151.161V158.002ZM147.311 157.218C148.417 157.218 149.215 156.644 149.215 155.902V154.712H147.731C146.457 154.712 145.883 155.104 145.883 155.804V156.098C145.883 156.812 146.443 157.218 147.311 157.218Z" fill="black"/>
<path d="M141.62 158.002V156.826H141.564C141.13 157.722 140.444 158.17 139.45 158.17C137.644 158.17 136.51 156.7 136.51 154.39C136.51 152.08 137.644 150.61 139.45 150.61C140.444 150.61 141.186 151.044 141.564 151.954H141.62V147.642H142.74V158.002H141.62ZM139.758 157.162C140.78 157.162 141.62 156.63 141.62 155.692V153.004C141.62 152.206 140.78 151.618 139.758 151.618C138.498 151.618 137.714 152.486 137.714 153.774V155.006C137.714 156.294 138.498 157.162 139.758 157.162Z" fill="black"/>
<path d="M130.003 158.002H128.883V150.778H130.003V151.954H130.059C130.409 151.142 131.025 150.61 132.103 150.61C133.587 150.61 134.525 151.618 134.525 153.368V158.002H133.405V153.564C133.405 152.276 132.845 151.618 131.767 151.618C130.871 151.618 130.003 152.066 130.003 152.99V158.002Z" fill="black"/>
<path d="M123.619 158.17C121.687 158.17 120.357 156.686 120.357 154.39C120.357 152.094 121.687 150.61 123.619 150.61C125.551 150.61 126.881 152.094 126.881 154.39C126.881 156.686 125.551 158.17 123.619 158.17ZM123.619 157.176C124.823 157.176 125.677 156.434 125.677 154.908V153.872C125.677 152.346 124.823 151.604 123.619 151.604C122.415 151.604 121.561 152.346 121.561 153.872V154.908C121.561 156.434 122.415 157.176 123.619 157.176Z" fill="black"/>
<path d="M116.458 158.17C114.428 158.17 113.238 156.7 113.238 154.39C113.238 152.08 114.428 150.61 116.458 150.61C117.886 150.61 118.74 151.31 119.16 152.304L118.222 152.78C117.956 152.038 117.34 151.604 116.458 151.604C115.128 151.604 114.442 152.514 114.442 153.774V155.006C114.442 156.266 115.128 157.176 116.458 157.176C117.368 157.176 118.026 156.742 118.418 155.916L119.23 156.462C118.768 157.498 117.83 158.17 116.458 158.17Z" fill="black"/>
<path d="M108.642 158.17C106.682 158.17 105.394 156.686 105.394 154.39C105.394 152.094 106.682 150.61 108.642 150.61C110.574 150.61 111.764 152.094 111.764 154.138V154.67H106.57V155.006C106.57 156.252 107.368 157.19 108.712 157.19C109.622 157.19 110.322 156.742 110.7 155.944L111.498 156.518C111.036 157.498 110 158.17 108.642 158.17ZM108.642 151.548C107.424 151.548 106.57 152.472 106.57 153.732V153.83H110.56V153.676C110.56 152.402 109.79 151.548 108.642 151.548Z" fill="black"/>
<path d="M100.488 158.17C98.9197 158.17 97.8137 157.526 97.0297 156.462L97.8977 155.734C98.5837 156.644 99.3957 157.134 100.53 157.134C101.93 157.134 102.686 156.406 102.686 155.286C102.686 154.362 102.168 153.9 100.88 153.606L100.082 153.424C98.3037 153.018 97.3237 152.234 97.3237 150.736C97.3237 149 98.6397 148.062 100.558 148.062C102.028 148.062 103.064 148.622 103.792 149.658L102.91 150.302C102.378 149.56 101.636 149.098 100.502 149.098C99.2557 149.098 98.4857 149.644 98.4857 150.694C98.4857 151.618 99.0877 152.038 100.32 152.318L101.118 152.5C103.022 152.934 103.848 153.774 103.848 155.23C103.848 157.022 102.588 158.17 100.488 158.17Z" fill="black"/>
<path d="M183.822 140.17C181.666 140.17 180.378 138.672 180.378 136.334C180.378 134.024 181.624 132.526 183.766 132.526C186.048 132.526 187.098 134.206 187.098 136.208V136.796H182.24V136.978C182.24 138.028 182.842 138.742 184.018 138.742C184.9 138.742 185.432 138.322 185.88 137.748L186.846 138.826C186.244 139.652 185.18 140.17 183.822 140.17ZM183.794 133.87C182.856 133.87 182.24 134.57 182.24 135.578V135.69H185.236V135.564C185.236 134.556 184.718 133.87 183.794 133.87Z" fill="black"/>
<path d="M176.85 140.002V138.784H176.78C176.514 139.61 175.73 140.17 174.764 140.17C172.93 140.17 171.908 138.784 171.908 136.334C171.908 133.898 172.93 132.526 174.764 132.526C175.73 132.526 176.528 133.058 176.78 133.898H176.85V129.642H178.642V140.002H176.85ZM175.338 138.686C176.192 138.686 176.85 138.252 176.85 137.496V135.172C176.85 134.458 176.192 133.996 175.338 133.996C174.414 133.996 173.784 134.682 173.784 135.718V136.978C173.784 138.014 174.414 138.686 175.338 138.686Z" fill="black"/>
<path d="M167.163 140.17C165.077 140.17 163.775 138.686 163.775 136.334C163.775 133.996 165.077 132.526 167.163 132.526C169.263 132.526 170.565 133.996 170.565 136.334C170.565 138.686 169.263 140.17 167.163 140.17ZM167.163 138.728C168.101 138.728 168.689 138.126 168.689 137.02V135.662C168.689 134.57 168.101 133.968 167.163 133.968C166.239 133.968 165.651 134.57 165.651 135.662V137.02C165.651 138.126 166.239 138.728 167.163 138.728Z" fill="black"/>
<path d="M157.667 140.002H155.875V132.694H157.667V133.912H157.737C158.031 133.128 158.647 132.526 159.781 132.526C161.279 132.526 162.119 133.562 162.119 135.382V140.002H160.327V135.564C160.327 134.528 159.977 133.996 159.123 133.996C158.381 133.996 157.667 134.388 157.667 135.172V140.002Z" fill="black"/>
<path d="M148.542 140.002H146.75V132.694H148.542V134.206H148.612C148.794 133.436 149.382 132.694 150.544 132.694H150.936V134.388H150.376C149.172 134.388 148.542 134.724 148.542 135.522V140.002Z" fill="black"/>
<path d="M140.576 140.17C139.092 140.17 138.252 139.316 138.252 138.014C138.252 136.516 139.386 135.774 141.374 135.774H142.62V135.242C142.62 134.43 142.214 133.954 141.262 133.954C140.422 133.954 139.946 134.374 139.596 134.878L138.532 133.926C139.064 133.086 139.918 132.526 141.388 132.526C143.362 132.526 144.412 133.464 144.412 135.13V138.574H145.14V140.002H144.146C143.376 140.002 142.9 139.498 142.788 138.742H142.704C142.466 139.68 141.668 140.17 140.576 140.17ZM141.178 138.868C141.976 138.868 142.62 138.504 142.62 137.818V136.852H141.472C140.534 136.852 140.072 137.174 140.072 137.748V137.986C140.072 138.574 140.478 138.868 141.178 138.868Z" fill="black"/>
<path d="M130.215 140.002V129.642H132.007V133.898H132.063C132.329 133.058 133.113 132.526 134.079 132.526C135.927 132.526 136.949 133.898 136.949 136.334C136.949 138.784 135.927 140.17 134.079 140.17C133.113 140.17 132.343 139.61 132.063 138.784H132.007V140.002H130.215ZM133.505 138.686C134.429 138.686 135.073 138.014 135.073 136.978V135.718C135.073 134.682 134.429 133.996 133.505 133.996C132.651 133.996 132.007 134.458 132.007 135.172V137.496C132.007 138.252 132.651 138.686 133.505 138.686Z" fill="black"/>
<path d="M121.734 140.17C119.578 140.17 118.29 138.672 118.29 136.334C118.29 134.024 119.536 132.526 121.678 132.526C123.96 132.526 125.01 134.206 125.01 136.208V136.796H120.152V136.978C120.152 138.028 120.754 138.742 121.93 138.742C122.812 138.742 123.344 138.322 123.792 137.748L124.758 138.826C124.156 139.652 123.092 140.17 121.734 140.17ZM121.706 133.87C120.768 133.87 120.152 134.57 120.152 135.578V135.69H123.148V135.564C123.148 134.556 122.63 133.87 121.706 133.87Z" fill="black"/>
<path d="M114.761 140.002V138.784H114.691C114.425 139.61 113.641 140.17 112.675 140.17C110.841 140.17 109.819 138.784 109.819 136.334C109.819 133.898 110.841 132.526 112.675 132.526C113.641 132.526 114.439 133.058 114.691 133.898H114.761V129.642H116.553V140.002H114.761ZM113.249 138.686C114.103 138.686 114.761 138.252 114.761 137.496V135.172C114.761 134.458 114.103 133.996 113.249 133.996C112.325 133.996 111.695 134.682 111.695 135.718V136.978C111.695 138.014 112.325 138.686 113.249 138.686Z" fill="black"/>
<path d="M107.092 131.63C106.35 131.63 106.042 131.252 106.042 130.734V130.454C106.042 129.936 106.35 129.558 107.092 129.558C107.82 129.558 108.142 129.936 108.142 130.454V130.734C108.142 131.252 107.82 131.63 107.092 131.63ZM106.196 140.002V132.694H107.988V140.002H106.196Z" fill="black"/>
<path d="M100.628 140.17C98.9617 140.17 97.8137 139.512 96.9877 138.546L98.2337 137.342C98.9057 138.126 99.7317 138.546 100.74 138.546C101.874 138.546 102.462 138 102.462 137.174C102.462 136.516 102.154 136.11 101.132 135.928L100.208 135.788C98.2337 135.48 97.2817 134.542 97.2817 132.946C97.2817 131.196 98.6397 130.062 100.824 130.062C102.294 130.062 103.386 130.566 104.17 131.504L102.91 132.694C102.434 132.092 101.762 131.686 100.726 131.686C99.6757 131.686 99.1297 132.106 99.1297 132.834C99.1297 133.576 99.5497 133.884 100.488 134.052L101.398 134.22C103.372 134.57 104.296 135.452 104.296 137.062C104.296 138.91 102.966 140.17 100.628 140.17Z" fill="black"/>
<rect width="24" height="24" transform="translate(56.4417 132.002)" fill="white" style="mix-blend-mode:multiply"/>
<path d="M68.4417 135.002C69.1833 135.002 69.9084 135.222 70.525 135.634C71.1417 136.046 71.6224 136.632 71.9062 137.317C72.19 138.002 72.2643 138.756 72.1196 139.484C71.9749 140.211 71.6177 140.879 71.0933 141.404C70.5689 141.928 69.9007 142.285 69.1732 142.43C68.4458 142.575 67.6918 142.5 67.0066 142.217C66.3214 141.933 65.7357 141.452 65.3236 140.835C64.9116 140.219 64.6917 139.494 64.6917 138.752C64.6917 137.757 65.0867 136.804 65.79 136.1C66.4933 135.397 67.4471 135.002 68.4417 135.002ZM68.4417 133.502C67.4033 133.502 66.3883 133.81 65.5249 134.387C64.6615 134.964 63.9886 135.784 63.5913 136.743C63.1939 137.702 63.09 138.758 63.2925 139.776C63.4951 140.795 63.9951 141.73 64.7293 142.464C65.4636 143.198 66.399 143.699 67.4174 143.901C68.4358 144.104 69.4914 144 70.4507 143.602C71.41 143.205 72.23 142.532 72.8069 141.669C73.3837 140.805 73.6917 139.79 73.6917 138.752C73.6917 137.36 73.1385 136.024 72.154 135.04C71.1694 134.055 69.834 133.502 68.4417 133.502Z" fill="black"/>
<path d="M75.9417 154.502H74.4417V150.752C74.4417 150.259 74.3447 149.772 74.1562 149.317C73.9677 148.862 73.6915 148.449 73.3433 148.1C72.9951 147.752 72.5817 147.476 72.1267 147.287C71.6717 147.099 71.1841 147.002 70.6917 147.002H66.1917C65.1971 147.002 64.2433 147.397 63.54 148.1C62.8367 148.804 62.4417 149.757 62.4417 150.752V154.502H60.9417V150.752C60.9417 149.36 61.4948 148.024 62.4793 147.04C63.4639 146.055 64.7993 145.502 66.1917 145.502H70.6917C72.084 145.502 73.4194 146.055 74.404 147.04C75.3885 148.024 75.9417 149.36 75.9417 150.752V154.502Z" fill="black"/>
</svg>
