<svg width="289" height="288" viewBox="0 0 289 288" fill="none" xmlns="http://www.w3.org/2000/svg">
<path d="M0.750122 0.000976562H288.75V288.001H0.750122V0.000976562Z" fill="white"/>
<path d="M225.75 68.001C225.75 81.2558 215.005 92.001 201.75 92.001C188.495 92.001 177.75 81.2558 177.75 68.001C177.75 54.7461 188.495 44.001 201.75 44.001C215.005 44.001 225.75 54.7461 225.75 68.001Z" fill="white"/>
<path d="M225.75 68.001C225.75 81.2558 215.005 92.001 201.75 92.001C188.495 92.001 177.75 81.2558 177.75 68.001C177.75 54.7461 188.495 44.001 201.75 44.001C215.005 44.001 225.75 54.7461 225.75 68.001Z" fill="#F6F2FF"/>
<path fill-rule="evenodd" clip-rule="evenodd" d="M201.75 91.001C214.453 91.001 224.75 80.7035 224.75 68.001C224.75 55.2984 214.453 45.001 201.75 45.001C189.047 45.001 178.75 55.2984 178.75 68.001C178.75 80.7035 189.047 91.001 201.75 91.001ZM201.75 92.001C215.005 92.001 225.75 81.2558 225.75 68.001C225.75 54.7461 215.005 44.001 201.75 44.001C188.495 44.001 177.75 54.7461 177.75 68.001C177.75 81.2558 188.495 92.001 201.75 92.001Z" fill="#A56EFF"/>
<rect width="24" height="24" transform="translate(189.75 56.001)" fill="white" style="mix-blend-mode:multiply"/>
<path d="M201.75 59.001C202.492 59.001 203.217 59.2209 203.833 59.633C204.45 60.045 204.931 60.6307 205.215 61.3159C205.498 62.0011 205.573 62.7551 205.428 63.4826C205.283 64.21 204.926 64.8782 204.402 65.4026C203.877 65.9271 203.209 66.2842 202.482 66.4289C201.754 66.5736 201 66.4994 200.315 66.2155C199.63 65.9317 199.044 65.451 198.632 64.8344C198.22 64.2177 198 63.4927 198 62.751C198 61.7564 198.395 60.8026 199.098 60.0993C199.802 59.3961 200.755 59.001 201.75 59.001ZM201.75 57.501C200.712 57.501 199.697 57.8089 198.833 58.3858C197.97 58.9626 197.297 59.7826 196.9 60.7419C196.502 61.7012 196.398 62.7568 196.601 63.7752C196.803 64.7936 197.303 65.7291 198.038 66.4633C198.772 67.1975 199.707 67.6975 200.726 67.9001C201.744 68.1027 202.8 67.9987 203.759 67.6013C204.718 67.204 205.538 66.5311 206.115 65.6677C206.692 64.8044 207 63.7893 207 62.751C207 61.3586 206.447 60.0232 205.462 59.0387C204.478 58.0541 203.142 57.501 201.75 57.501Z" fill="black"/>
<path d="M209.25 78.501H207.75V74.751C207.75 74.2585 207.653 73.7709 207.465 73.3159C207.276 72.8609 207 72.4475 206.652 72.0993C206.303 71.7511 205.89 71.4749 205.435 71.2864C204.98 71.098 204.492 71.001 204 71.001H199.5C198.505 71.001 197.552 71.3961 196.848 72.0993C196.145 72.8026 195.75 73.7564 195.75 74.751V78.501H194.25V74.751C194.25 73.3586 194.803 72.0232 195.788 71.0387C196.772 70.0541 198.108 69.501 199.5 69.501H204C205.392 69.501 206.728 70.0541 207.712 71.0387C208.697 72.0232 209.25 73.3586 209.25 74.751V78.501Z" fill="black"/>
<path d="M214.334 132.169C212.178 132.169 210.89 130.671 210.89 128.333C210.89 126.023 212.136 124.525 214.278 124.525C216.56 124.525 217.61 126.205 217.61 128.207V128.795H212.752V128.977C212.752 130.027 213.354 130.741 214.53 130.741C215.412 130.741 215.944 130.321 216.392 129.747L217.358 130.825C216.756 131.651 215.692 132.169 214.334 132.169ZM214.306 125.869C213.368 125.869 212.752 126.569 212.752 127.577V127.689H215.748V127.563C215.748 126.555 215.23 125.869 214.306 125.869Z" fill="black"/>
<path d="M207.361 132.001V130.783H207.291C207.025 131.609 206.241 132.169 205.275 132.169C203.441 132.169 202.419 130.783 202.419 128.333C202.419 125.897 203.441 124.525 205.275 124.525C206.241 124.525 207.039 125.057 207.291 125.897H207.361V121.641H209.153V132.001H207.361ZM205.849 130.685C206.703 130.685 207.361 130.251 207.361 129.495V127.171C207.361 126.457 206.703 125.995 205.849 125.995C204.925 125.995 204.295 126.681 204.295 127.717V128.977C204.295 130.013 204.925 130.685 205.849 130.685Z" fill="black"/>
<path d="M197.674 132.169C195.588 132.169 194.286 130.685 194.286 128.333C194.286 125.995 195.588 124.525 197.674 124.525C199.774 124.525 201.076 125.995 201.076 128.333C201.076 130.685 199.774 132.169 197.674 132.169ZM197.674 130.727C198.612 130.727 199.2 130.125 199.2 129.019V127.661C199.2 126.569 198.612 125.967 197.674 125.967C196.75 125.967 196.162 126.569 196.162 127.661V129.019C196.162 130.125 196.75 130.727 197.674 130.727Z" fill="black"/>
<path d="M188.178 132.001H186.386V124.693H188.178V125.911H188.248C188.542 125.127 189.158 124.525 190.292 124.525C191.79 124.525 192.63 125.561 192.63 127.381V132.001H190.838V127.563C190.838 126.527 190.488 125.995 189.634 125.995C188.892 125.995 188.178 126.387 188.178 127.171V132.001Z" fill="black"/>
<path d="M215.288 114.169C213.132 114.169 211.844 112.671 211.844 110.333C211.844 108.023 213.09 106.525 215.232 106.525C217.514 106.525 218.564 108.205 218.564 110.207V110.795H213.706V110.977C213.706 112.027 214.308 112.741 215.484 112.741C216.366 112.741 216.898 112.321 217.346 111.747L218.312 112.825C217.71 113.651 216.646 114.169 215.288 114.169ZM215.26 107.869C214.322 107.869 213.706 108.569 213.706 109.577V109.689H216.702V109.563C216.702 108.555 216.184 107.869 215.26 107.869Z" fill="black"/>
<path d="M210.817 114.001H209.851C208.633 114.001 208.059 113.357 208.059 112.237V103.641H209.851V112.573H210.817V114.001Z" fill="black"/>
<path d="M203.606 114.169C201.45 114.169 200.232 112.685 200.232 110.333C200.232 107.995 201.45 106.525 203.606 106.525C205.076 106.525 206.042 107.225 206.476 108.373L205.006 109.031C204.838 108.415 204.376 107.967 203.606 107.967C202.612 107.967 202.108 108.667 202.108 109.689V111.019C202.108 112.041 202.612 112.727 203.606 112.727C204.46 112.727 204.88 112.237 205.146 111.579L206.518 112.237C206.042 113.525 205.02 114.169 203.606 114.169Z" fill="black"/>
<path d="M196.926 114.001H195.134V106.693H196.926V108.205H196.996C197.178 107.435 197.766 106.693 198.928 106.693H199.32V108.387H198.76C197.556 108.387 196.926 108.723 196.926 109.521V114.001Z" fill="black"/>
<path d="M192.001 105.629C191.259 105.629 190.951 105.251 190.951 104.733V104.453C190.951 103.935 191.259 103.557 192.001 103.557C192.729 103.557 193.051 103.935 193.051 104.453V104.733C193.051 105.251 192.729 105.629 192.001 105.629ZM191.105 114.001V106.693H192.897V114.001H191.105Z" fill="black"/>
<path d="M185.868 114.169C183.292 114.169 181.654 112.475 181.654 109.185C181.654 105.895 183.292 104.061 185.868 104.061C187.618 104.061 188.752 104.803 189.438 106.315L187.856 107.155C187.576 106.287 186.96 105.699 185.868 105.699C184.496 105.699 183.614 106.693 183.614 108.359V109.899C183.614 111.579 184.496 112.531 185.868 112.531C186.974 112.531 187.66 111.859 187.982 110.977L189.48 111.859C188.78 113.315 187.618 114.169 185.868 114.169Z" fill="black"/>
<path d="M64.321 51.572C64.321 47.1537 67.9028 43.572 72.321 43.572H105.179C109.597 43.572 113.179 47.1537 113.179 51.572V84.4299C113.179 88.8482 109.597 92.4299 105.179 92.4299H72.321C67.9028 92.4299 64.321 88.8482 64.321 84.4299V51.572Z" fill="#009D9A"/>
<path d="M64.321 174.572H113.179V223.43H64.321V174.572Z" fill="#0F62FE"/>
<rect width="24" height="24" transform="translate(76.75 56.001)" fill="white" style="mix-blend-mode:multiply"/>
<path d="M88.75 59.001C89.4917 59.001 90.2167 59.2209 90.8334 59.633C91.4501 60.045 91.9307 60.6307 92.2145 61.3159C92.4984 62.0011 92.5726 62.7551 92.4279 63.4826C92.2833 64.21 91.9261 64.8782 91.4017 65.4026C90.8772 65.9271 90.209 66.2842 89.4816 66.4289C88.7542 66.5736 88.0002 66.4994 87.3149 66.2155C86.6297 65.9317 86.044 65.451 85.632 64.8344C85.2199 64.2177 85 63.4927 85 62.751C85 61.7564 85.3951 60.8026 86.0983 60.0993C86.8016 59.3961 87.7554 59.001 88.75 59.001ZM88.75 57.501C87.7116 57.501 86.6966 57.8089 85.8333 58.3858C84.9699 58.9626 84.297 59.7826 83.8996 60.7419C83.5023 61.7012 83.3983 62.7568 83.6009 63.7752C83.8034 64.7936 84.3035 65.7291 85.0377 66.4633C85.7719 67.1975 86.7074 67.6975 87.7258 67.9001C88.7442 68.1027 89.7998 67.9987 90.7591 67.6013C91.7184 67.204 92.5383 66.5311 93.1152 65.6677C93.6921 64.8044 94 63.7893 94 62.751C94 61.3586 93.4469 60.0232 92.4623 59.0387C91.4777 58.0541 90.1424 57.501 88.75 57.501Z" fill="white"/>
<path d="M96.25 78.501H94.75V74.751C94.75 74.2585 94.653 73.7709 94.4645 73.3159C94.2761 72.8609 93.9999 72.4475 93.6517 72.0993C93.3034 71.7511 92.89 71.4749 92.4351 71.2864C91.9801 71.098 91.4925 71.001 91 71.001H86.5C85.5054 71.001 84.5516 71.3961 83.8483 72.0993C83.1451 72.8026 82.75 73.7564 82.75 74.751V78.501H81.25V74.751C81.25 73.3586 81.8031 72.0232 82.7877 71.0387C83.7723 70.0541 85.1076 69.501 86.5 69.501H91C92.3924 69.501 93.7277 70.0541 94.7123 71.0387C95.6969 72.0232 96.25 73.3586 96.25 74.751V78.501Z" fill="white"/>
<path d="M101.334 132.169C99.1776 132.169 97.8896 130.671 97.8896 128.333C97.8896 126.023 99.1356 124.525 101.278 124.525C103.56 124.525 104.61 126.205 104.61 128.207V128.795H99.7516V128.977C99.7516 130.027 100.354 130.741 101.53 130.741C102.412 130.741 102.944 130.321 103.392 129.747L104.358 130.825C103.756 131.651 102.692 132.169 101.334 132.169ZM101.306 125.869C100.368 125.869 99.7516 126.569 99.7516 127.577V127.689H102.748V127.563C102.748 126.555 102.23 125.869 101.306 125.869Z" fill="black"/>
<path d="M94.3612 132.001V130.783H94.2912C94.0252 131.609 93.2412 132.169 92.2752 132.169C90.4412 132.169 89.4192 130.783 89.4192 128.333C89.4192 125.897 90.4412 124.525 92.2752 124.525C93.2412 124.525 94.0392 125.057 94.2912 125.897H94.3612V121.641H96.1532V132.001H94.3612ZM92.8492 130.685C93.7032 130.685 94.3612 130.251 94.3612 129.495V127.171C94.3612 126.457 93.7032 125.995 92.8492 125.995C91.9252 125.995 91.2952 126.681 91.2952 127.717V128.977C91.2952 130.013 91.9252 130.685 92.8492 130.685Z" fill="black"/>
<path d="M84.6744 132.169C82.5884 132.169 81.2864 130.685 81.2864 128.333C81.2864 125.995 82.5884 124.525 84.6744 124.525C86.7744 124.525 88.0764 125.995 88.0764 128.333C88.0764 130.685 86.7744 132.169 84.6744 132.169ZM84.6744 130.727C85.6124 130.727 86.2004 130.125 86.2004 129.019V127.661C86.2004 126.569 85.6124 125.967 84.6744 125.967C83.7504 125.967 83.1624 126.569 83.1624 127.661V129.019C83.1624 130.125 83.7504 130.727 84.6744 130.727Z" fill="black"/>
<path d="M75.178 132.001H73.386V124.693H75.178V125.911H75.248C75.542 125.127 76.158 124.525 77.292 124.525C78.79 124.525 79.63 125.561 79.63 127.381V132.001H77.838V127.563C77.838 126.527 77.488 125.995 76.634 125.995C75.892 125.995 75.178 126.387 75.178 127.171V132.001Z" fill="black"/>
<path d="M113.692 114.001V112.783H113.622C113.356 113.609 112.572 114.169 111.606 114.169C109.772 114.169 108.75 112.783 108.75 110.333C108.75 107.897 109.772 106.525 111.606 106.525C112.572 106.525 113.37 107.057 113.622 107.897H113.692V103.641H115.484V114.001H113.692ZM112.18 112.685C113.034 112.685 113.692 112.251 113.692 111.495V109.171C113.692 108.457 113.034 107.995 112.18 107.995C111.256 107.995 110.626 108.681 110.626 109.717V110.977C110.626 112.013 111.256 112.685 112.18 112.685Z" fill="black"/>
<path d="M104.143 114.169C101.987 114.169 100.699 112.671 100.699 110.333C100.699 108.023 101.945 106.525 104.087 106.525C106.369 106.525 107.419 108.205 107.419 110.207V110.795H102.561V110.977C102.561 112.027 103.163 112.741 104.339 112.741C105.221 112.741 105.753 112.321 106.201 111.747L107.167 112.825C106.565 113.651 105.501 114.169 104.143 114.169ZM104.115 107.869C103.177 107.869 102.561 108.569 102.561 109.577V109.689H105.557V109.563C105.557 108.555 105.039 107.869 104.115 107.869Z" fill="black"/>
<path d="M97.1708 114.001V112.783H97.1008C96.8348 113.609 96.0508 114.169 95.0848 114.169C93.2508 114.169 92.2288 112.783 92.2288 110.333C92.2288 107.897 93.2508 106.525 95.0848 106.525C96.0508 106.525 96.8488 107.057 97.1008 107.897H97.1708V103.641H98.9628V114.001H97.1708ZM95.6588 112.685C96.5128 112.685 97.1708 112.251 97.1708 111.495V109.171C97.1708 108.457 96.5128 107.995 95.6588 107.995C94.7348 107.995 94.1048 108.681 94.1048 109.717V110.977C94.1048 112.013 94.7348 112.685 95.6588 112.685Z" fill="black"/>
<path d="M86.0361 114.001H84.2441V106.693H86.0361V107.911H86.1061C86.4001 107.127 87.0161 106.525 88.1501 106.525C89.6481 106.525 90.4881 107.561 90.4881 109.381V114.001H88.6961V109.563C88.6961 108.527 88.3461 107.995 87.4921 107.995C86.7501 107.995 86.0361 108.387 86.0361 109.171V114.001Z" fill="black"/>
<path d="M80.2218 114.001V112.783H80.1518C79.8998 113.511 79.3118 114.169 78.1078 114.169C76.6098 114.169 75.7698 113.133 75.7698 111.313V106.693H77.5618V111.131C77.5618 112.139 77.9398 112.685 78.7938 112.685C79.5078 112.685 80.2218 112.307 80.2218 111.523V106.693H82.0138V114.001H80.2218Z" fill="black"/>
<path d="M70.7032 114.169C68.6172 114.169 67.3152 112.685 67.3152 110.333C67.3152 107.995 68.6172 106.525 70.7032 106.525C72.8032 106.525 74.1052 107.995 74.1052 110.333C74.1052 112.685 72.8032 114.169 70.7032 114.169ZM70.7032 112.727C71.6412 112.727 72.2292 112.125 72.2292 111.019V109.661C72.2292 108.569 71.6412 107.967 70.7032 107.967C69.7792 107.967 69.1912 108.569 69.1912 109.661V111.019C69.1912 112.125 69.7792 112.727 70.7032 112.727Z" fill="black"/>
<path d="M60.5133 110.235V114.001H58.6653V104.229H63.0753C64.8533 104.229 65.9593 105.405 65.9593 107.253C65.9593 108.597 65.3433 109.619 64.1393 110.025L66.1413 114.001H64.0833L62.2633 110.235H60.5133ZM60.5133 108.681H62.8933C63.6073 108.681 64.0413 108.289 64.0413 107.575V106.931C64.0413 106.217 63.6073 105.839 62.8933 105.839H60.5133V108.681Z" fill="black"/>
<rect width="24" height="24" transform="translate(76.75 187.001)" fill="white" style="mix-blend-mode:multiply"/>
<path d="M88.75 190.001C89.4917 190.001 90.2167 190.221 90.8334 190.633C91.4501 191.045 91.9307 191.631 92.2145 192.316C92.4984 193.001 92.5726 193.755 92.4279 194.483C92.2833 195.21 91.9261 195.878 91.4017 196.403C90.8772 196.927 90.209 197.284 89.4816 197.429C88.7542 197.574 88.0002 197.499 87.3149 197.216C86.6297 196.932 86.044 196.451 85.632 195.834C85.2199 195.218 85 194.493 85 193.751C85 192.756 85.3951 191.803 86.0983 191.099C86.8016 190.396 87.7554 190.001 88.75 190.001ZM88.75 188.501C87.7116 188.501 86.6966 188.809 85.8333 189.386C84.9699 189.963 84.297 190.783 83.8996 191.742C83.5023 192.701 83.3983 193.757 83.6009 194.775C83.8034 195.794 84.3035 196.729 85.0377 197.463C85.7719 198.198 86.7074 198.698 87.7258 198.9C88.7442 199.103 89.7998 198.999 90.7591 198.601C91.7184 198.204 92.5383 197.531 93.1152 196.668C93.6921 195.804 94 194.789 94 193.751C94 192.359 93.4469 191.023 92.4623 190.039C91.4777 189.054 90.1424 188.501 88.75 188.501Z" fill="white"/>
<path d="M96.25 209.501H94.75V205.751C94.75 205.259 94.653 204.771 94.4645 204.316C94.2761 203.861 93.9999 203.448 93.6517 203.099C93.3034 202.751 92.89 202.475 92.4351 202.286C91.9801 202.098 91.4925 202.001 91 202.001H86.5C85.5054 202.001 84.5516 202.396 83.8483 203.099C83.1451 203.803 82.75 204.756 82.75 205.751V209.501H81.25V205.751C81.25 204.359 81.8031 203.023 82.7877 202.039C83.7723 201.054 85.1076 200.501 86.5 200.501H91C92.3924 200.501 93.7277 201.054 94.7123 202.039C95.6969 203.023 96.25 204.359 96.25 205.751V209.501Z" fill="white"/>
<path d="M101.333 263.169C99.1774 263.169 97.8894 261.671 97.8894 259.333C97.8894 257.023 99.1354 255.525 101.277 255.525C103.559 255.525 104.609 257.205 104.609 259.207V259.795H99.7514V259.977C99.7514 261.027 100.353 261.741 101.529 261.741C102.411 261.741 102.943 261.321 103.391 260.747L104.357 261.825C103.755 262.651 102.691 263.169 101.333 263.169ZM101.305 256.869C100.367 256.869 99.7514 257.569 99.7514 258.577V258.689H102.747V258.563C102.747 257.555 102.229 256.869 101.305 256.869Z" fill="black"/>
<path d="M94.3609 263.001V261.783H94.2909C94.0249 262.609 93.2409 263.169 92.2749 263.169C90.4409 263.169 89.4189 261.783 89.4189 259.333C89.4189 256.897 90.4409 255.525 92.2749 255.525C93.2409 255.525 94.0389 256.057 94.2909 256.897H94.3609V252.641H96.1529V263.001H94.3609ZM92.8489 261.685C93.7029 261.685 94.3609 261.251 94.3609 260.495V258.171C94.3609 257.457 93.7029 256.995 92.8489 256.995C91.9249 256.995 91.2949 257.681 91.2949 258.717V259.977C91.2949 261.013 91.9249 261.685 92.8489 261.685Z" fill="black"/>
<path d="M84.6744 263.169C82.5884 263.169 81.2864 261.685 81.2864 259.333C81.2864 256.995 82.5884 255.525 84.6744 255.525C86.7744 255.525 88.0764 256.995 88.0764 259.333C88.0764 261.685 86.7744 263.169 84.6744 263.169ZM84.6744 261.727C85.6124 261.727 86.2004 261.125 86.2004 260.019V258.661C86.2004 257.569 85.6124 256.967 84.6744 256.967C83.7504 256.967 83.1624 257.569 83.1624 258.661V260.019C83.1624 261.125 83.7504 261.727 84.6744 261.727Z" fill="black"/>
<path d="M75.1777 263.001H73.3857V255.693H75.1777V256.911H75.2477C75.5417 256.127 76.1577 255.525 77.2917 255.525C78.7897 255.525 79.6297 256.561 79.6297 258.381V263.001H77.8377V258.563C77.8377 257.527 77.4877 256.995 76.6337 256.995C75.8917 256.995 75.1777 257.387 75.1777 258.171V263.001Z" fill="black"/>
<path d="M108.453 245.169C106.297 245.169 105.009 243.671 105.009 241.333C105.009 239.023 106.255 237.525 108.397 237.525C110.679 237.525 111.729 239.205 111.729 241.207V241.795H106.871V241.977C106.871 243.027 107.473 243.741 108.649 243.741C109.531 243.741 110.063 243.321 110.511 242.747L111.477 243.825C110.875 244.651 109.811 245.169 108.453 245.169ZM108.425 238.869C107.487 238.869 106.871 239.569 106.871 240.577V240.689H109.867V240.563C109.867 239.555 109.349 238.869 108.425 238.869Z" fill="black"/>
<path d="M101.703 245.001H99.9106V237.693H101.703V239.205H101.773C101.955 238.435 102.543 237.693 103.705 237.693H104.097V239.387H103.537C102.333 239.387 101.703 239.723 101.703 240.521V245.001Z" fill="black"/>
<path d="M93.7364 245.169C92.2524 245.169 91.4124 244.315 91.4124 243.013C91.4124 241.515 92.5464 240.773 94.5344 240.773H95.7804V240.241C95.7804 239.429 95.3744 238.953 94.4224 238.953C93.5824 238.953 93.1064 239.373 92.7564 239.877L91.6924 238.925C92.2244 238.085 93.0784 237.525 94.5484 237.525C96.5224 237.525 97.5724 238.463 97.5724 240.129V243.573H98.3004V245.001H97.3064C96.5364 245.001 96.0604 244.497 95.9484 243.741H95.8644C95.6264 244.679 94.8284 245.169 93.7364 245.169ZM94.3384 243.867C95.1364 243.867 95.7804 243.503 95.7804 242.817V241.851H94.6324C93.6944 241.851 93.2324 242.173 93.2324 242.747V242.985C93.2324 243.573 93.6384 243.867 94.3384 243.867Z" fill="black"/>
<path d="M87.9081 245.001V243.783H87.8381C87.5861 244.511 86.9981 245.169 85.7941 245.169C84.2961 245.169 83.4561 244.133 83.4561 242.313V237.693H85.2481V242.131C85.2481 243.139 85.6261 243.685 86.4801 243.685C87.1941 243.685 87.9081 243.307 87.9081 242.523V237.693H89.7001V245.001H87.9081Z" fill="black"/>
<path d="M79.5213 247.801V243.783H79.4513C79.1853 244.609 78.4013 245.169 77.4353 245.169C75.6013 245.169 74.5793 243.783 74.5793 241.333C74.5793 238.897 75.6013 237.525 77.4353 237.525C78.4013 237.525 79.1993 238.057 79.4513 238.897H79.5213V237.693H81.3133V247.801H79.5213ZM78.0093 243.685C78.8633 243.685 79.5213 243.251 79.5213 242.495V240.171C79.5213 239.457 78.8633 238.995 78.0093 238.995C77.0853 238.995 76.4553 239.681 76.4553 240.717V241.977C76.4553 243.013 77.0853 243.685 78.0093 243.685Z" fill="black"/>
<path d="M69.4169 245.169C67.7509 245.169 66.6029 244.511 65.7769 243.545L67.0229 242.341C67.6949 243.125 68.5209 243.545 69.5289 243.545C70.6629 243.545 71.2509 242.999 71.2509 242.173C71.2509 241.515 70.9429 241.109 69.9209 240.927L68.9969 240.787C67.0229 240.479 66.0709 239.541 66.0709 237.945C66.0709 236.195 67.4289 235.061 69.6129 235.061C71.0829 235.061 72.1749 235.565 72.9589 236.503L71.6989 237.693C71.2229 237.091 70.5509 236.685 69.5149 236.685C68.4649 236.685 67.9189 237.105 67.9189 237.833C67.9189 238.575 68.3389 238.883 69.2769 239.051L70.1869 239.219C72.1609 239.569 73.0849 240.451 73.0849 242.061C73.0849 243.909 71.7549 245.169 69.4169 245.169Z" fill="black"/>
<path fill-rule="evenodd" clip-rule="evenodd" d="M188.324 176.001L174.908 199.001L188.324 222.001H215.176L228.592 199.001L215.176 176.001H188.324ZM215.75 175.001H187.75L173.75 199.001L187.75 223.001H215.75L229.75 199.001L215.75 175.001Z" fill="#009D9A"/>
<path d="M215.75 175.001H187.75L173.75 199.001L187.75 223.001H215.75L229.75 199.001L215.75 175.001Z" fill="white"/>
<path d="M215.75 175.001H187.75L173.75 199.001L187.75 223.001H215.75L229.75 199.001L215.75 175.001Z" fill="#D9FBFB"/>
<path fill-rule="evenodd" clip-rule="evenodd" d="M188.324 176.001L174.908 199.001L188.324 222.001H215.176L228.592 199.001L215.176 176.001H188.324ZM215.75 175.001H187.75L173.75 199.001L187.75 223.001H215.75L229.75 199.001L215.75 175.001Z" fill="#009D9A"/>
<rect width="23" height="23" transform="translate(190.25 187.501)" fill="white" style="mix-blend-mode:multiply"/>
<path d="M201.75 190.376C202.461 190.376 203.156 190.587 203.747 190.982C204.338 191.377 204.798 191.938 205.07 192.594C205.342 193.251 205.413 193.974 205.275 194.671C205.136 195.368 204.794 196.008 204.291 196.511C203.789 197.013 203.148 197.356 202.451 197.494C201.754 197.633 201.031 197.562 200.375 197.29C199.718 197.018 199.157 196.557 198.762 195.966C198.367 195.375 198.156 194.681 198.156 193.97C198.156 193.017 198.535 192.103 199.209 191.429C199.883 190.755 200.797 190.376 201.75 190.376ZM201.75 188.938C200.755 188.938 199.782 189.234 198.955 189.786C198.127 190.339 197.483 191.125 197.102 192.044C196.721 192.964 196.621 193.975 196.815 194.951C197.01 195.927 197.489 196.824 198.192 197.527C198.896 198.231 199.792 198.71 200.768 198.904C201.744 199.098 202.756 198.999 203.675 198.618C204.595 198.237 205.38 197.592 205.933 196.765C206.486 195.938 206.781 194.965 206.781 193.97C206.781 192.635 206.251 191.356 205.308 190.412C204.364 189.469 203.084 188.938 201.75 188.938Z" fill="black"/>
<path d="M208.938 209.063H207.5V205.47C207.5 204.998 207.407 204.53 207.226 204.094C207.046 203.658 206.781 203.262 206.447 202.929C206.114 202.595 205.718 202.33 205.282 202.15C204.846 201.969 204.378 201.876 203.906 201.876H199.594C198.641 201.876 197.727 202.255 197.053 202.929C196.379 203.603 196 204.517 196 205.47V209.063H194.562V205.47C194.562 204.135 195.093 202.856 196.036 201.912C196.98 200.969 198.259 200.438 199.594 200.438H203.906C205.241 200.438 206.52 200.969 207.464 201.912C208.407 202.856 208.938 204.135 208.938 205.47V209.063Z" fill="black"/>
<path d="M214.333 263.169C212.177 263.169 210.889 261.671 210.889 259.333C210.889 257.023 212.135 255.525 214.277 255.525C216.559 255.525 217.609 257.205 217.609 259.207V259.795H212.751V259.977C212.751 261.027 213.353 261.741 214.529 261.741C215.411 261.741 215.943 261.321 216.391 260.747L217.357 261.825C216.755 262.651 215.691 263.169 214.333 263.169ZM214.305 256.869C213.367 256.869 212.751 257.569 212.751 258.577V258.689H215.747V258.563C215.747 257.555 215.229 256.869 214.305 256.869Z" fill="black"/>
<path d="M207.361 263.001V261.783H207.291C207.025 262.609 206.241 263.169 205.275 263.169C203.441 263.169 202.419 261.783 202.419 259.333C202.419 256.897 203.441 255.525 205.275 255.525C206.241 255.525 207.039 256.057 207.291 256.897H207.361V252.641H209.153V263.001H207.361ZM205.849 261.685C206.703 261.685 207.361 261.251 207.361 260.495V258.171C207.361 257.457 206.703 256.995 205.849 256.995C204.925 256.995 204.295 257.681 204.295 258.717V259.977C204.295 261.013 204.925 261.685 205.849 261.685Z" fill="black"/>
<path d="M197.674 263.169C195.588 263.169 194.286 261.685 194.286 259.333C194.286 256.995 195.588 255.525 197.674 255.525C199.774 255.525 201.076 256.995 201.076 259.333C201.076 261.685 199.774 263.169 197.674 263.169ZM197.674 261.727C198.612 261.727 199.2 261.125 199.2 260.019V258.661C199.2 257.569 198.612 256.967 197.674 256.967C196.75 256.967 196.162 257.569 196.162 258.661V260.019C196.162 261.125 196.75 261.727 197.674 261.727Z" fill="black"/>
<path d="M188.178 263.001H186.386V255.693H188.178V256.911H188.248C188.542 256.127 189.158 255.525 190.292 255.525C191.79 255.525 192.63 256.561 192.63 258.381V263.001H190.838V258.563C190.838 257.527 190.488 256.995 189.634 256.995C188.892 256.995 188.178 257.387 188.178 258.171V263.001Z" fill="black"/>
<path d="M225.21 245.001H223.418V237.693H225.21V238.911H225.28C225.574 238.127 226.19 237.525 227.324 237.525C228.822 237.525 229.662 238.561 229.662 240.381V245.001H227.87V240.563C227.87 239.527 227.52 238.995 226.666 238.995C225.924 238.995 225.21 239.387 225.21 240.171V245.001Z" fill="black"/>
<path d="M218.268 245.169C216.182 245.169 214.88 243.685 214.88 241.333C214.88 238.995 216.182 237.525 218.268 237.525C220.368 237.525 221.67 238.995 221.67 241.333C221.67 243.685 220.368 245.169 218.268 245.169ZM218.268 243.727C219.206 243.727 219.794 243.125 219.794 242.019V240.661C219.794 239.569 219.206 238.967 218.268 238.967C217.344 238.967 216.756 239.569 216.756 240.661V242.019C216.756 243.125 217.344 243.727 218.268 243.727Z" fill="black"/>
<path d="M214.257 245.617C214.257 247.143 213.221 247.969 210.421 247.969C207.957 247.969 207.019 247.325 207.019 246.247C207.019 245.435 207.509 244.973 208.321 244.847V244.693C207.719 244.539 207.383 244.063 207.383 243.475C207.383 242.719 208.027 242.341 208.727 242.187V242.131C207.845 241.725 207.397 240.969 207.397 240.003C207.397 238.519 208.447 237.525 210.421 237.525C210.869 237.525 211.331 237.581 211.695 237.707V237.469C211.695 236.755 212.059 236.405 212.731 236.405H213.865V237.777H212.311V237.973C213.067 238.393 213.445 239.107 213.445 240.003C213.445 241.473 212.409 242.453 210.421 242.453C210.001 242.453 209.623 242.411 209.301 242.327C209.021 242.453 208.783 242.663 208.783 242.985C208.783 243.349 209.091 243.531 209.735 243.531H211.695C213.487 243.531 214.257 244.301 214.257 245.617ZM212.577 245.827C212.577 245.365 212.241 245.085 211.331 245.085H208.839C208.573 245.281 208.461 245.547 208.461 245.841C208.461 246.401 208.881 246.737 210.001 246.737H210.897C212.059 246.737 212.577 246.443 212.577 245.827ZM210.421 241.235C211.275 241.235 211.737 240.843 211.737 240.115V239.877C211.737 239.135 211.275 238.757 210.421 238.757C209.567 238.757 209.105 239.135 209.105 239.877V240.115C209.105 240.843 209.567 241.235 210.421 241.235Z" fill="black"/>
<path d="M201.489 245.169C200.005 245.169 199.165 244.315 199.165 243.013C199.165 241.515 200.299 240.773 202.287 240.773H203.533V240.241C203.533 239.429 203.127 238.953 202.175 238.953C201.335 238.953 200.859 239.373 200.509 239.877L199.445 238.925C199.977 238.085 200.831 237.525 202.301 237.525C204.275 237.525 205.325 238.463 205.325 240.129V243.573H206.053V245.001H205.059C204.289 245.001 203.813 244.497 203.701 243.741H203.617C203.379 244.679 202.581 245.169 201.489 245.169ZM202.091 243.867C202.889 243.867 203.533 243.503 203.533 242.817V241.851H202.385C201.447 241.851 200.985 242.173 200.985 242.747V242.985C200.985 243.573 201.391 243.867 202.091 243.867Z" fill="black"/>
<path d="M191.137 245.001L193.629 241.291L191.193 237.693H193.237L194.749 240.115H194.805L196.303 237.693H198.207L195.729 241.319L198.221 245.001H196.177L194.637 242.481H194.581L193.041 245.001H191.137Z" fill="black"/>
<path d="M187.1 245.169C184.944 245.169 183.656 243.671 183.656 241.333C183.656 239.023 184.902 237.525 187.044 237.525C189.326 237.525 190.376 239.205 190.376 241.207V241.795H185.518V241.977C185.518 243.027 186.12 243.741 187.296 243.741C188.178 243.741 188.71 243.321 189.158 242.747L190.124 243.825C189.522 244.651 188.458 245.169 187.1 245.169ZM187.072 238.869C186.134 238.869 185.518 239.569 185.518 240.577V240.689H188.514V240.563C188.514 239.555 187.996 238.869 187.072 238.869Z" fill="black"/>
<path d="M179.957 245.001V240.871H175.883V245.001H174.035V235.229H175.883V239.233H179.957V235.229H181.805V245.001H179.957Z" fill="black"/>
</svg>
