<?xml version="1.0" encoding="UTF-8"?>
<svg width="240px" height="240px" viewBox="0 0 240 240" version="1.1" xmlns="http://www.w3.org/2000/svg" xmlns:xlink="http://www.w3.org/1999/xlink">
    <!-- Generator: Sketch 62 (91390) - https://sketch.com -->
    <title>Group 18</title>
    <desc>Created with Sketch.</desc>
    <g id="charts" stroke="none" stroke-width="1" fill="none" fill-rule="evenodd">
        <g id="Dataviz-Charts" transform="translate(-1055.000000, -1126.000000)">
            <g id="Group-18" transform="translate(1055.000000, 1126.000000)">
                <rect id="Rectangle" fill="#FFFFFF" x="0" y="0" width="240" height="240"></rect>
                <g id="chart-type/radar" transform="translate(34.857143, 34.285714)">
                    <g id="radar" transform="translate(2.285714, 6.285714)">
                        <g id="Grid" opacity="0.15" transform="translate(0.856746, 0.109175)" stroke="#8D8D8D">
                            <polygon id="Polygon" points="82.3514542 0.422431519 164.48475 60.2564283 133.112622 157.069869 31.5902862 157.069869 0.218158998 60.2564283"></polygon>
                            <polygon id="Polygon" points="83.1026032 17.5506329 149.709082 66.0733643 124.267671 144.584793 41.9375355 144.584793 16.4961246 66.0733643"></polygon>
                            <polygon id="Polygon" points="83.5377187 31.3483506 137.394128 70.5826735 116.82281 134.065142 50.2526273 134.065142 29.6813094 70.5826735"></polygon>
                            <polygon id="Polygon" stroke-width="0.6" points="83.7749717 43.7187183 126.480495 74.8296351 110.168436 125.168155 57.3815071 125.168155 41.0694488 74.8296351"></polygon>
                            <polygon id="Polygon" stroke-width="0.6" points="83.6054114 54.0191655 117.19017 78.4856178 104.361934 118.073169 62.8488889 118.073169 50.0206526 78.4856178"></polygon>
                            <ellipse id="Oval-2" stroke-width="0.6" cx="84.7239833" cy="90.3091354" rx="2.84703486" ry="2.85470023"></ellipse>
                            <line x1="31.7268641" y1="156.666294" x2="83.6929295" y2="91.5474551" id="Line" stroke-linecap="square"></line>
                            <line x1="132.829805" y1="157.089717" x2="85.027996" y2="90.6123973" id="Line" stroke-linecap="square"></line>
                            <line x1="164.556669" y1="60.5494056" x2="84.1819463" y2="91.0358197" id="Line" stroke-linecap="square"></line>
                            <line x1="0.846049711" y1="60.972828" x2="84.6049711" y2="89.7655523" id="Line" stroke-linecap="square"></line>
                            <line x1="82.4898469" y1="1.27026725" x2="84.6049711" y2="89.7655523" id="Line" stroke-linecap="square"></line>
                        </g>
                        <g id="data" transform="translate(26.112795, 37.777072)" fill="#0062FF" fill-opacity="0.3" fill-rule="nonzero" stroke="#0062FF" stroke-width="1.5">
                            <path d="M0.929633623,31.6635295 C1.28381882,32.2071821 1.51457352,32.5613231 1.87854606,33.1198201 C3.03857718,34.8998275 4.33177277,36.8832731 5.72518055,39.0192947 C9.70632752,45.1221856 13.6929154,51.2250641 17.4213054,56.9210014 C17.4873682,57.0219261 17.4873682,57.0219261 17.5534322,57.1228489 C22.3166553,64.3993353 26.2958859,70.4573992 29.2313051,74.8960187 C30.8968192,77.4144266 32.2041651,79.3779288 33.1203477,80.7356413 C33.6020048,81.4494205 33.973913,81.9933262 34.2309152,82.3595703 C34.3592312,82.5424287 34.457647,82.6791792 34.5234841,82.7663145 C34.3126814,82.4873175 34.2922361,82.4469821 34.2574285,82.472244 C35.4241766,82.9220917 43.7871766,85.4401208 65.0956814,91.8859926 C65.1614482,91.9058872 65.1614482,91.9058872 65.2272147,91.9257821 C71.9634802,93.9635509 79.1726994,96.1468642 86.3764646,98.3301762 C88.8977786,99.0943344 91.2383189,99.8039101 93.3382826,100.44071 C94.3554336,100.749167 94.4882651,100.789449 95.0180977,100.950146 L103.698791,38.4731694 C103.655632,38.4365161 103.605889,38.3942701 103.548251,38.3453199 C102.972213,37.8562037 102.650874,37.5834131 102.107752,37.1224961 C100.555939,35.8055619 98.8255077,34.3381093 96.9603849,32.7577713 C91.6315054,28.2425559 86.2909357,23.7273568 81.2901398,19.5132797 C81.1472896,19.3929053 81.1472896,19.3929053 81.0044331,19.2725366 C74.5764872,13.8565726 69.2100997,9.3601095 65.258023,6.08533326 C63.0160859,4.22761575 61.2594689,2.78816917 60.0335559,1.8057743 C59.3910299,1.29088113 58.897139,0.903853977 58.5601879,0.651411166 C58.5298485,0.628680994 58.5008909,0.607126263 58.4733554,0.586772114 C56.1401733,1.92270058 47.3015944,6.70154027 29.624105,16.2247589 C29.5670263,16.2555081 29.5670263,16.2555081 29.5099474,16.2862574 C23.0782749,19.7510822 16.18724,23.4595477 9.2962112,27.1654607 C6.88435582,28.4625277 4.64477441,29.6666291 2.63488992,30.7469899 C1.60193098,31.3022089 1.52182666,31.3452654 0.929633623,31.6635295 Z M58.4892142,0.577687371 C58.7583479,0.733483886 58.7176077,0.591092411 59.1092493,0.199082754 C59.0731594,0.235206446 58.8699945,0.359448446 58.4892142,0.577687371 Z" id="2"></path>
                        </g>
                    </g>
                </g>
            </g>
        </g>
    </g>
</svg>