<svg xmlns="http://www.w3.org/2000/svg" xmlns:xlink="http://www.w3.org/1999/xlink" width="240" height="240" version="1.1" viewBox="0 0 240 240"><title>Group 17barstack</title><desc>Created with Sketch.</desc><g id="Data-vis-pages" fill="none" fill-rule="evenodd" stroke="none" stroke-width="1"><g id="Dataviz-overview-1-Copy-2" transform="translate(40, 96)"><g id="Group-17"><g id="Group-16"><rect id="Rectangle-9" width="4" height="68" x="145" y="22" fill="#97C1FF"/><rect id="Rectangle-9" width="4" height="41" x="140" y="49" fill="#0062FF"/><polygon id="Rectangle-9" fill="#97C1FF" points="117 9 121 9 121 90 117 90"/><rect id="Rectangle-9" width="4" height="62" x="112" y="28" fill="#0062FF"/><polygon id="Rectangle-9" fill="#97C1FF" points="89 41 93 41 93 90 89 90"/><rect id="Rectangle-9" width="4" height="30" x="84" y="60" fill="#0062FF"/><polygon id="Rectangle-9" fill="#97C1FF" points="62 34 66 34 66 90 62 90"/><rect id="Rectangle-9" width="4" height="18" x="57" y="72" fill="#0062FF"/><polygon id="Rectangle-9" fill="#97C1FF" points="33 57 37 57 37 90 33 90"/><rect id="Rectangle-9" width="4" height="25" x="28" y="65" fill="#0062FF"/><rect id="Rectangle-9" width="4" height="90" x="5" y="0" fill="#97C1FF"/><rect id="Rectangle-9-Copy" width="4" height="50" x="0" y="40" fill="#0062FF"/></g></g></g></g></svg>