<svg xmlns="http://www.w3.org/2000/svg" xmlns:xlink="http://www.w3.org/1999/xlink" width="240" height="240" version="1.1" viewBox="0 0 240 240"><title>Group 17barstack</title><desc>Created with Sketch.</desc><g id="Data-vis-pages" fill="none" fill-rule="evenodd" stroke="none" stroke-width="1"><g id="Dataviz-overview-1-Copy-2" transform="translate(48,112)"><g id="Group-17"><g id="Group-16"><rect id="Rectangle-9" width="7" height="68" x="141" y="21" fill="#97C1FF"/><rect id="Rectangle-9" width="7" height="41" x="141" y="48" fill="#0062FF"/><rect id="Rectangle" width="7" height="1.5" x="141" y="47" fill="#FFF"/><polygon id="Rectangle-9" fill="#97C1FF" points="112 8 119 8 119 89 112 89"/><rect id="Rectangle-9" width="7" height="62" x="112" y="28" fill="#0062FF"/><rect id="Rectangle" width="7" height="1.5" x="112" y="27" fill="#FFF"/><polygon id="Rectangle-9" fill="#97C1FF" points="84 41 91 41 91 90 84 90"/><rect id="Rectangle-9" width="7" height="30" x="84" y="60" fill="#0062FF"/><rect id="Rectangle" width="7" height="1.5" x="84" y="59" fill="#FFF"/><polygon id="Rectangle-9" fill="#97C1FF" points="57 34 64 34 64 90 57 90"/><rect id="Rectangle-9" width="7" height="18" x="57" y="72" fill="#0062FF"/><rect id="Rectangle" width="7" height="1.5" x="57" y="71" fill="#FFF"/><polygon id="Rectangle-9" fill="#97C1FF" points="29 57 36 57 36 90 29 90"/><rect id="Rectangle-9" width="7" height="25" x="29" y="65" fill="#0062FF"/><rect id="Rectangle" width="7" height="1.5" x="29" y="64" fill="#FFF"/><rect id="Rectangle-9" width="7" height="90" x="0" y="0" fill="#97C1FF"/><rect id="Rectangle-9-Copy" width="7" height="50" x="0" y="40" fill="#0062FF"/><rect id="Rectangle" width="7" height="1.5" x="0" y="39" fill="#FFF"/></g></g></g></g></svg>