<svg xmlns="http://www.w3.org/2000/svg" xmlns:xlink="http://www.w3.org/1999/xlink" width="240" height="240" version="1.1" viewBox="0 0 240 240"><title>Group 13 Copy 4geo-connectinglines</title><desc>Created with Sketch.</desc><g id="Data-vis-pages" fill="none" fill-rule="evenodd" stroke="none" stroke-width="1"><g id="Dataviz-overview-1-Copy-2" transform="translate(48, 80)"><g id="Group-13-Copy-4"><g id="Group-11" transform="translate(0.000000, -0.000000)"><polyline id="Fill-49-Copy" fill="#0062FF" fill-opacity=".2" stroke="#FFF" stroke-width=".585" points="130.093 56.556 131.045 55.572 131.872 55.33 132.321 54.497 133.6 54.601 134.46 53.771 134.427 52.837 136.117 50.307 137.118 47.363 138.119 45.492 139.261 45.283 139.743 44.211 139.294 43.032 138.086 42.235 136.948 41.157 135.876 41.852 134.393 41.506 132.458 41.644 131.356 41.335 129.766 41.473 128.939 42.753 128.076 43.448 127.972 44.346 126.626 42.928 125.073 44.245 123.727 44.695 123.589 45.596 121.035 45.838 119.411 46.392 117.721 46.08 114.522 44.223 114.614 44.867 114.751 45.838 114.58 46.809 112.508 46.772 112.3 47.189 113.164 48.193 112.749 49.302 112.645 50.203 113.164 51.103 112.416 52.047 112.203 52.114 113.405 53.502 113.588 55.085 114.44 55.26 116.408 57.132 117.409 57.515 118.169 58.103 120.653 58.519 122.414 59.141 123.174 58.173 123.693 58.461 124.358 57.72 125.454 57.156 126.26 57.269 126.544 56.816 127.688 55.851 128.414 56.096 129.415 56.323 130.093 56.556"/><path id="Fill-56-Copy" fill="#0062FF" fill-opacity=".2" stroke="#FFF" stroke-width=".585" d="M124.776585,63.3131737 L124.657561,62.5381854 L125.59144,62.1889812 L126.040068,62.1889812 L126.040068,61.809145 L125.142812,61.6008478 L124.657561,61.1873165 L124.382891,59.937533 L123.793876,58.5192738 L123.174342,58.1731328 L122.414421,59.1411023 L120.653479,58.5192738 L118.169239,58.1026793 L117.409318,57.5145459 L116.408298,57.1316465 L114.439828,55.2600345 L113.58835,55.0854324 L113.612765,55.3059824 L111.537479,55.3059824 L108.63513,56.8345166 L108.427602,58.0843001 L106.904708,58.8470356 L106.630038,60.5103504 L105.662588,60.5808039 L103.865024,59.7476149 L102.894522,60.0263656 L101.652403,60.9300081 L99.9677585,61.0249671 L99.9647066,61.132179 L100.254636,63.0221702 L101.34111,64.042214 L101.231242,64.403671 L101.667662,64.7681912 L102.827381,62.8782 L103.007442,61.8581561 L103.730741,61.021904 L104.890459,60.9882088 L105.146818,61.9316728 L106.086801,62.6944083 L106.376731,64.1126675 L107.063406,65.45741 L108.516107,66.8052158 L108.87623,66.8787324 L109.709396,67.7854381 L108.986098,67.5311929 L108.152932,67.641468 L107.789756,68.4409618 L108.226177,69.277214 L109.276028,69.277214 L110.325878,70.2972579 L111.378781,70.6587148 L111.738904,71.494967 L112.245518,72.076974 L113.331991,71.8594872 L115.437797,72.0340893 L116.600567,72.6160963 L118.923057,75.0207043 L118.269952,75.0942209 L117.180427,74.5091507 L117.763338,75.2381911 L118.758255,75.4648675 L118.755203,75.4587411 L119.100066,74.6286153 L115.752141,70.8516961 L111.885395,67.4576763 L111.74806,66.903238 L112.059353,66.557097 L111.436767,65.7606663 L111.265861,64.9642357 L110.298411,63.8553592 L109.675825,63.8890543 L109.642255,63.1967723 L110.023741,62.8138729 L110.023741,61.5671526 L110.402176,61.116863 L111.540531,61.9837471 L111.922018,62.642334 L112.541552,62.501427 L112.578174,61.8428402 L113.438808,61.7049964 L114.027823,61.7417547 L114.510022,61.2210116 L115.269943,61.6713013 L115.685,61.2884019 L116.441869,61.463004 L116.856926,62.2594347 L117.47646,61.809145 L118.547674,62.1889812 L119.307595,61.8795985 L119.548694,62.1889812 L120.723673,62.0511374 L121.724693,62.4340368 L122.347279,62.3298881 L123.311677,63.1263188 L124.657561,63.1600139 L124.776585,63.3131737 L124.776585,63.3131737 Z M114.809107,74.7143848 C114.876249,74.6806896 116.466284,74.6806896 116.466284,74.6806896 L117.085818,75.268823 L115.63617,75.1646744 L114.809107,74.7143848 L114.809107,74.7143848 Z M113.704322,73.6728985 L116.154991,73.7096569 L115.153971,74.1936417 L113.704322,73.6728985 L113.704322,73.6728985 Z M113.737893,72.5670852 L115.63617,72.5670852 L116.051227,72.8427728 L115.1204,73.2930624 L114.186521,73.1552186 L113.737893,72.5670852 L113.737893,72.5670852 Z M106.904708,66.4345692 L107.4571,66.572413 L108.076634,67.4025388 L107.73177,67.6475943 L106.904708,66.4345692 L106.904708,66.4345692 Z M106.144787,65.1510906 L107.008472,66.0516698 L106.111216,65.8096775 L106.144787,65.1510906 L106.144787,65.1510906 Z M106.352316,68.0611256 L107.319765,68.8575563 L107.560865,69.6907453 L106.352316,68.0611256 L106.352316,68.0611256 Z M105.143766,66.4682643 L105.870117,66.7807102 L105.973881,67.4729922 L105.143766,66.4682643 L105.143766,66.4682643 Z M103.453019,63.8706751 L104.661568,64.7375593 L105.076625,65.9842796 L104.695138,66.0516698 L103.868076,65.1510906 L104.072553,64.875403 L103.453019,63.8706751 L103.453019,63.8706751 Z M104.24651,61.9286096 L105.629017,64.0085189 L104.936238,64.2842064 L104.557803,63.8002217 L103.868076,63.6286827 L103.764312,62.2747506 C103.764312,62.2778138 104.176317,61.9286096 104.24651,61.9286096 L104.24651,61.9286096 Z"/><polyline id="Fill-58-Copy" fill="#0062FF" fill-opacity=".2" stroke="#FFF" stroke-width=".585" points="99.968 61.025 101.652 60.93 102.895 60.026 103.865 59.748 105.663 60.581 106.63 60.51 106.905 58.847 108.428 58.084 108.635 56.835 111.537 55.306 113.613 55.306 113.405 53.502 112.203 52.114 111.034 52.497 108.94 53.679 108.44 53.627 107.747 53.713 106.658 54.219 105.62 54.219 104.478 54.672 103.856 53.924 101.713 53.94 100.957 53.854 99.855 55.447 100.2 56.21 99.577 57.181 99.812 58.819 99.891 58.841 100.834 59.276 100.798 59.931 100.001 60.149 99.968 61.025"/><polyline id="Fill-59-Copy" fill="#0062FF" fill-opacity=".2" stroke="#FFF" stroke-width=".585" points="100.957 53.854 101.713 53.94 103.856 53.924 104.478 54.672 105.62 54.219 106.658 54.219 107.747 53.713 108.44 53.627 108.94 53.679 111.034 52.497 112.416 52.047 113.164 51.103 112.645 50.203 112.749 49.302 113.164 48.193 112.3 47.189 112.508 46.772 114.58 46.809 114.751 45.838 114.235 42.192 114.339 40.655 112.474 40.226 111.644 39.601 110.369 39.877 109.023 39.809 107.848 38.979 106.087 38.909 105.119 38.526 104.741 39.429 104.259 39.877 104.189 40.606 102.876 40.676 102.428 41.194 100.014 39.809 99.336 39.736 99.171 40.606 99.223 41.561 98.46 41.561 97.908 42.52 96.803 43.065 95.524 44.695 95.524 45.317 96.699 45.908 96.837 46.809 96.354 47.155 95.283 46.53 94.212 46.842 93.107 46.53 92.35 46.634 90.83 47.639 90 47.813 89.243 47.568 88.413 47.777 87.724 47.326 86.411 47.121 85.136 47.293 85.239 47.951 84.928 48.331 83.719 48.022 83.063 47.293 82.206 47.611 81.653 47.89 81.4 47.893 81.992 48.297 81.934 48.977 82.48 49.403 82.447 50.301 83.201 50.341 83.79 50.099 84.788 51.07 85.618 50.307 86.378 50.307 86.762 51.106 86.787 51.076 88.377 51.768 90.867 50.31 91.902 50.589 93.562 50.451 93.425 51.422 95.774 52.809 98.68 53.364 100.27 53.226 100.96 53.851 100.957 53.854"/><polyline id="Fill-61-Copy" fill="#0062FF" fill-opacity=".2" stroke="#FFF" stroke-width=".585" points="104.131 25.973 104.478 26.733 104.894 26.245 105.724 26.402 106.191 26.16 108.147 26.457 108.077 27.011 108.907 27.863 109.685 27.759 110.393 28.368 109.926 29.428 110.308 30.001 110.652 30.194 110.61 31.113 111.266 31.392 111.714 30.905 112.334 30.905 111.229 29.45 111.681 29.137 113.924 30.384 115.34 30.212 115.096 31.042 116.131 31.876 117.928 31.459 119.341 31.909 122.244 34.023 123.141 35.582 123.968 35.616 124.383 35.132 125.659 35.165 126.385 35.928 126.66 37.212 124.45 37.003 123.415 37.938 122.207 38.042 120.861 39.393 119.1 39.635 117.272 40.293 116.823 39.913 115.719 39.947 114.58 40.71 112.474 40.226 111.644 39.601 110.369 39.877 109.023 39.809 107.848 38.979 106.087 38.909 105.119 38.526 104.741 39.429 104.259 39.877 104.189 40.606 102.876 40.676 102.428 41.194 100.014 39.809 99.336 39.736 99.345 39.702 97.426 37.478 96.489 36.85 94.847 35.723 93.913 35.199 93.653 34.485 93.724 33.321 92.72 31.759 91.456 30.993 91.404 30.28 91.822 29.967 92.28 30.35 93.074 30.73 94.764 29.174 95.594 29.103 96.525 28.028 97.563 27.995 98.079 27.198 99.669 27.164 100.358 27.336 101.152 26.852 101.152 25.985 102.635 26.331 103.258 25.915 103.947 26.261 104.131 25.973"/><polyline id="Fill-64-Copy" fill="#0062FF" fill-opacity=".2" stroke="#FFF" stroke-width=".585" points="73.511 47.265 74.295 47.501 75.159 47.017 76.334 47.431 76.679 46.842 76.575 46.254 77.539 45.908 77.887 46.842 78.473 47.017 78.955 46.564 79.612 46.6 80.924 47.568 81.992 48.297 81.925 49.094 81.647 49.719 81.959 50.273 83.201 50.341 83.79 50.099 84.788 51.07 85.618 50.307 86.378 50.307 86.762 51.106 85.819 52.255 86.304 53.781 84.437 54.197 84.229 56.001 83.399 55.306 82.569 55.376 80.494 54.822 80.494 56.139 79.526 57.876 79.044 56.902 77.521 56.139 77.661 55.03 76.554 54.335 74.826 57.319 73.581 56.764 71.716 58.152 70.685 57.766 70.532 56.96 69.983 56.51 69.635 55.33 69.153 54.43 67.737 54.359 67.081 54.951 67.532 56.13 66.357 56.611 65.32 56.51 65.216 55.747 65.771 55.468 66.339 55.502 66.321 54.568 66.528 53.113 67.773 51.137 68.497 50.861 69.427 49.648 70.291 49.268 70.117 48.368 69.119 47.847 69.739 47.084 70.844 47.017 71.121 47.639 71.982 47.743 73.511 47.265"/><path id="Fill-65-Copy" fill="#0062FF" fill-opacity=".2" stroke="#FFF" stroke-width=".585" d="M64.4742602,26.5701518 L64.8771098,25.5164128 L65.1884028,23.9174251 L64.9076287,22.5206083 L65.5271627,21.7578728 L66.1161778,20.7899032 L67.3918684,20.4774574 L68.6004175,20.7531449 L69.290145,20.3733087 L68.7743753,19.4727295 L69.3939093,19.0224398 L69.5312444,17.9809536 L69.8089665,17.3928202 L69.3267677,16.9425305 L68.1517894,16.9762257 L68.0144543,16.3543971 L68.4264597,15.4170595 L69.4274801,15.8673492 L70.0500659,15.3496692 L70.0653254,14.4092684 L70.4468118,13.5730162 L70.5139535,13.0338939 L70.7886237,12.6846897 L70.8130388,12.4794557 L69.8913676,12.1823258 L69.1650174,11.5298653 L67.825237,10.8375833 L66.4152632,11.0550701 L65.5790449,11.7810473 L64.7825012,11.4563486 L64.2758872,11.7810473 L63.1161684,11.8178056 L62.029695,13.018578 L60.2901169,13.9651052 L59.9269418,13.71086 L58.9137138,14.1090753 L58.8770911,15.2730894 L57.9340566,15.9990665 L58.2239863,17.1293854 L58.007302,18.1463661 L57.6075042,18.9826183 L57.2809518,19.5646253 L56.5576536,20.109874 L56.5942763,20.8389143 L57.6807496,21.8191367 L58.6604068,22.1101402 L57.5708815,22.1101402 L57.0642676,22.548177 L56.7377152,22.8391806 L57.1741356,23.3844292 L57.7173723,23.4548827 L57.753995,23.9296779 L56.884206,23.9633731 L56.0876623,23.1271209 L55.2544959,22.7289055 L54.4579522,23.0566674 L54.7478819,23.4947042 L55.5078029,23.5651577 L56.1975304,24.2206814 L56.4477855,24.1104064 L57.3541972,24.7291718 L56.4844082,24.4014099 L55.9411715,24.4381683 L54.6380138,24.0031946 L53.8048474,24.0031946 L53.7712766,24.0277001 L54.3084095,24.2880717 L54.7570376,24.9803537 L55.4833877,24.9803537 L55.9655866,25.5010969 L56.4844082,24.9803537 L57.3816643,24.8057516 L57.5891929,24.496369 L58.2789204,24.4259155 L58.5566425,23.7336334 L60.1771969,23.7673286 L60.7295893,24.3217668 L61.5597038,24.3217668 L62.0083318,24.9803537 L63.2840225,24.9099003 L63.7173911,25.7063309 L63.662457,26.3159067 L64.4742602,26.5701518 L64.4742602,26.5701518 Z M55.3246894,22.4287125 L56.1578558,22.0672555 L56.517979,22.5726826 L56.0479877,22.7013368 L55.8862374,22.4654708 L55.3246894,22.4287125 L55.3246894,22.4287125 Z M55.7427985,21.4515533 L56.4111628,21.4668693 L57.2962113,21.8313895 L57.1161497,22.0672555 L56.6278471,21.9569804 L56.4813563,21.6659769 L55.9045488,21.8681478 L55.7427985,21.4515533 L55.7427985,21.4515533 Z"/><polygon id="Fill-71-Copy" fill="#0062FF" fill-opacity=".2" stroke="#FFF" stroke-width=".585" points="70.685 57.766 70.532 56.96 69.983 56.51 69.635 55.33 69.153 54.43 67.737 54.359 67.081 54.951 67.532 56.13 66.357 56.611 65.32 56.51 65.216 55.747 65.771 55.468 66.339 55.502 66.321 54.568 66.528 53.113 67.773 51.137 68.497 50.861 69.427 49.648 70.291 49.268 70.117 48.368 69.119 47.847 69.739 47.084 70.844 47.017 71.121 47.639 71.982 47.743 73.535 47.259 73.087 46.322 72.26 45.804 72.189 44.416 72.675 42.753 73.328 42.131 73.328 41.402 73.847 39.947 74.918 38.838 73.984 38.216 73.087 38.216 71.948 37.696 71.088 37.974 70.465 37.729 69.635 37.729 68.842 38.008 68.014 37.316 68.014 36.725 67.117 36.032 66.424 36.207 65.216 35.962 64.667 35.061 63.907 35.061 63.492 35.34 62.628 34.715 61.663 34.648 60.559 33.26 59.936 33.122 59.521 32.638 58.935 32.638 58.416 32.984 57.415 32.464 57.348 31.147 56.692 30.837 56.106 30.35 55.517 30.384 54.171 29.278 54 28.482 52.895 28.065 52.688 26.402 52.135 25.994 51.992 26.255 50.289 26.84 49.892 26.512 48.516 27.311 48.189 28.255 48.406 29.385 48.116 31.165 46.74 32.513 46.74 33.092 45.217 33.53 44.42 33.566 43.55 33.275 41.741 34.256 41.304 35.095 41.631 35.677 42.464 35.968 41.341 36.768 39.965 37.059 38.078 36.801 37.245 36.366 36.559 36.768 36.269 36.112 35.652 35.64 35.942 34.874 35.182 34.51 34.386 34.804 33.26 34.767 32.753 34.547 33.079 35.64 32.899 36.112 34.492 37.604 34.203 38.076 34.419 38.805 34.239 39.531 34.746 40.186 34.856 41.022 33.189 40.802 32.463 41.056 31.776 40.875 30.943 41.093 30.617 40.765 29.567 41.638 28.227 39.858 27.464 39.604 26.341 39.858 25.434 40.695 24.964 40.44 24.421 40.949 23.951 40.621 22.972 40.731 22.355 41.347 20.905 41.457 20.252 42.22 20.616 42.839 21.449 42.548 22.282 42.802 22.499 43.13 21.595 42.949 21.052 43.02 21.379 43.932 21.668 43.24 22.245 43.458 22.392 44.076 21.848 44.294 20.979 44.622 21.015 44.876 21.848 44.876 22.212 45.896 22.102 46.475 23.081 45.822 23.768 46.003 24.348 45.896 25.871 46.512 26.194 47.06 26.811 47.06 27.861 47.749 28.624 47.06 29.094 47.167 28.914 47.712 29.167 48.04 29.963 47.568 30.433 48.04 30.073 48.984 30.507 49.676 31.087 49.713 31.993 49.131 32.973 49.241 33.586 50.077 32.826 49.639 31.956 49.676 31.413 50.439 31.92 50.659 32.103 51.603 31.666 52.402 31.85 53.024 32.646 53.131 33.839 54.623 35.002 54.804 36.122 55.459 36.089 56.295 36.522 56.985 36.159 57.931 35.942 58.041 35.725 58.878 36.522 59.058 37.972 60.186 39.095 62.915 37.862 61.714 37.535 60.55 36.559 60.042 36.089 60.366 35.616 62.768 35.652 64.514 36.412 65.022 35.796 65.497 35.545 68.769 34.676 71.605 33.568 72.267 34.392 72.723 34.496 72.965 35.085 73.069 35.255 74.074 35.118 74.837 36.534 74.662 38.429 75.425 39.33 76.396 40.294 75.946 41.365 77.055 42.678 77.018 43.334 77.367 44.161 76.5 46.337 76.43 47.164 76.88 48.476 76.742 49.859 77.505 52.099 77.297 53.689 78.265 54.29 78.47 54.238 78.007 53.878 76.623 54.238 74.987 54.348 74.188 55.435 73.204 57.101 71.421 57.647 71.388 58.19 71.786 59.277 71.933 60.434 72.625 61.233 72.625 61.956 72.04 62.646 71.97 65.542 73.786 66.342 74.479 68.478 74.586 69.385 73.823 69.202 73.351 70.038 72.298 73.044 70.04 73.215 70.012 72.891 68.977 73.514 67.522 72.061 67.522 70.538 66.481 70.331 63.981 69.156 62.731 69.849 61.968 70.953 61.831 71.231 60.235 70.331 59.401 70.194 58.222 70.609 57.735"/><polygon id="Path" fill="#0062FF" fill-opacity=".2" stroke="#FFF" stroke-width=".585" points="80.689 84.186 79.239 83.57 78.986 83.132 79.313 82.624 79.673 82.697 79.419 82.259 79.096 82.259 79.129 81.607 78.479 81.242 78.189 80.77 78.55 80.55 78.55 80.188 77.863 79.824 77.683 79.132 78.226 79.132 78.406 78.697 77.863 78.188 78.516 77.024 79.966 76.516 80.542 75.934 81.125 76.549 81.486 76.549 81.632 75.676 81.342 75.061 81.522 74.224 81.992 74.224 82.245 75.606 82.139 76.843 82.645 78.77 82.065 80.988 82.102 82.225 81.595 83.751"/><polygon id="Fill-62-Copy" fill="#0062FF" fill-opacity=".2" stroke="#FFF" stroke-width=".585" points="76.712 .312 78.473 .796 78.992 1.038 79.834 .891 80.759 1.89 81.702 2 81.196 3.091 80.726 3.566 80.979 4.108 81.739 4.328 82.026 5.131 82.767 4.586 83.021 4.08 83.472 3.808 83.835 4.316 85.044 5.186 85.297 4.84 86.057 4.243 86.436 4.46 86.454 5.275 85.819 6.038 85.242 5.949 84.394 6.528 85.603 6.889 86.039 6.69 86.906 6.782 87.211 7.309 88.206 7.217 88.368 6.528 89.036 5.603 90.788 5.33 90.843 4.895 91.801 4.405 91.908 3.915 92.323 3.697 93.571 3.826 92.576 4.224 92.216 4.604 92.054 4.478 91.56 4.981 91.92 5.345 92.9 4.656 93.949 4.546 94.383 4.328 94.709 4.837 95.546 4.981 96.739 6.182 97.719 6.001 98.262 6.837 98.079 7.747 98.948 8.436 99.748 8.329 100.328 8.837 101.192 8.791 101.704 10.948 101.567 12.541 100.218 13.236 100.218 13.895 101.704 15.488 101.53 16.459 102.22 17.359 102.22 18.085 102.635 19.09 102.257 19.923 103.12 21.899 103.752 22.248 104.323 22.995 104.393 25.55 103.947 26.261 103.258 25.915 102.635 26.331 101.152 25.985 101.152 26.852 100.358 27.336 99.669 27.164 98.079 27.198 97.563 27.995 96.525 28.028 95.594 29.103 94.764 29.174 93.074 30.73 92.28 30.35 91.822 29.967 91.404 30.28 91.456 30.993 92.72 31.759 93.724 33.321 93.653 34.485 93.913 35.199 94.847 35.723 96.489 36.85 97.426 37.478 99.345 39.702 99.171 40.606 99.223 41.561 98.46 41.561 97.908 42.52 96.803 43.065 95.524 44.695 95.524 45.317 96.699 45.908 96.837 46.809 96.354 47.155 95.283 46.53 94.212 46.842 93.107 46.53 92.35 46.634 90.83 47.639 90 47.813 89.243 47.568 88.413 47.777 87.724 47.326 86.411 47.121 85.136 47.293 85.239 47.951 84.928 48.331 83.719 48.022 83.063 47.293 82.206 47.611 81.653 47.89 81.4 47.893 80.924 47.568 79.612 46.6 78.955 46.564 78.473 47.017 77.887 46.842 77.539 45.908 76.575 46.254 76.679 46.842 76.334 47.431 75.159 47.017 74.295 47.501 73.511 47.265 73.087 46.322 72.26 45.804 72.189 44.416 72.675 42.753 73.328 42.131 73.328 41.402 73.847 39.947 74.918 38.838 73.984 38.216 73.087 38.216 71.948 37.696 71.088 37.974 70.465 37.729 69.635 37.729 68.842 38.008 68.014 37.316 68.014 36.725 67.117 36.032 67.184 34.51 66.669 34.057 66.461 33.018 65.32 31.597 65.011 31.597 65.564 30.283 64.975 29.379 65.011 28.791 64.285 27.302 64.596 26.61 64.474 26.57 64.877 25.516 65.188 23.917 64.908 22.521 65.527 21.758 66.116 20.79 67.392 20.477 68.6 20.753 69.29 20.373 68.774 19.473 69.394 19.022 69.531 17.981 69.809 17.393 69.327 16.943 68.152 16.976 68.014 16.354 68.426 15.417 69.427 15.867 70.05 15.35 70.065 14.409 70.447 13.573 70.514 13.034 70.789 12.685 70.813 12.479 70.688 11.6 69.638 11.42 69.202 10.583 69.385 9.637 71.521 9.055 72.138 8.764 73.19 9.527 73.19 10.62 73.987 11.564 74.457 11.055 74.024 10.219 74.024 9.527 74.457 9.346 75.144 9.965 75.073 11.055 76.123 12.256 75.69 11.346 75.653 9.965 75.47 9.165 76.05 8.219 76.81 8.075 77.573 8.473 78.586 8.075 80.097 9.741 82.175 10.145 80.198 9.321 78.696 7.747 77.536 7.673 76.886 7.272 76.886 6.583 77.646 6.001 76.776 5.456 76.776 4.328 75.943 4.69 75.907 3.853 76.703 3.853 77.573 3.529 76.523 2.546 76.593 1.856 76.087 1.82 75.434 1.382 75.507 .582 75.452 .374"/><path id="Fill-73-Copy" fill="#0062FF" fill-opacity=".2" stroke="#FFF" stroke-width=".585" d="M73.2148775,70.0123807 L72.8913769,68.9770209 L73.5139628,67.5220034 L72.0612625,67.5220034 L70.5383686,66.4805171 L70.33084,63.9809501 L69.1558617,62.7311667 L69.8486411,61.9684312 L70.9534258,61.8305874 L71.231148,60.2346629 L70.33084,59.4014739 L70.1935049,58.2221439 L70.6085621,57.7350959 L71.7163987,58.1516904 L73.5811044,56.7640632 L74.8262762,57.3185014 L76.5536468,54.3349497 L77.6614834,55.0302949 L77.5210964,56.1391714 L79.0439902,56.9019069 L79.5261891,57.8760029 L80.4936387,56.1391714 L80.4936387,54.8219976 L82.5689249,55.3764359 L83.3990394,55.3059824 L84.2291539,56.0013276 L84.4366826,54.1971059 L86.3044402,53.7805114 L85.8191894,52.2550404 L86.786639,51.0757104 L88.3766745,51.7679924 L90.867018,50.3099117 L91.9016092,50.5886624 L93.5618382,50.4508186 L93.4245031,51.4218514 L95.7744595,52.8094786 L98.6798603,53.3639169 L100.269896,53.2260731 L100.959623,53.8509649 L99.8548385,55.4468894 L100.199702,56.2096249 L99.5771164,57.1806577 L99.812112,58.8194669 L98.7317424,58.5499057 L98.0786376,58.8776676 L97.391962,59.5668864 L96.3421114,59.5668864 L95.3624542,60.4398969 L94.3126035,60.5869303 L93.9494284,61.3129075 L94.4560424,62.3329513 L95.1091472,63.1692035 L94.382797,64.2597009 L93.9494284,64.6211579 L94.4926651,65.8249934 L94.636104,67.2034311 L95.1457699,67.9324715 L97.2454712,69.0597272 L98.40519,69.6784925 L98.9850494,70.4779864 L102.101031,73.6422666 L102.174276,74.4785188 L102.571022,74.6960056 L102.607645,75.676228 L103.260749,76.6227552 L104.130538,77.5141448 L104.820266,78.586263 L106.224136,79.6767604 L106.901656,80.3751688 L107.789756,80.5497709 L108.406239,80.9234807 L110.219062,80.9142911 L110.978983,81.1317779 L112.138702,80.9510494 L112.971868,81.3860231 L112.788755,82.0415468 L111.595465,82.877799 L111.558842,83.3158358 L112.028834,84.0785713 L113.008491,84.0785713 L114.818263,84.513545 L118.587349,86.5505696 L120.05836,87.6533197 L121.013602,88.6611108 L122.573119,89.0593261 L123.363559,89.6137644 L123.732838,90.2600985 L123.586347,91.4976292 L123.180445,92.0888258 L123.296417,92.8668773 L123.037006,93.0782377 L122.997332,93.3539252 L122.151958,93.0016578 L121.486646,92.1623425 L121.086848,91.2801424 L121.20282,90.5572284 L120.683998,90.2447825 L119.203831,90.2233401 L118.913901,89.7883665 L117.934244,89.3166345 L117.287243,89.4054671 L116.84777,89.6780915 L116.521218,90.8421055 L115.977981,91.4241125 L116.032915,92.0459411 L115.871165,92.768855 L115.181438,93.2436502 L115.18449,93.9573746 L115.50799,94.4413594 L116.267911,94.5516344 L117.607691,95.8228603 L117.873206,96.3711721 L117.71756,97.6056397 L117.970867,98.0436765 L117.644314,98.7328953 L116.811148,98.9534454 L116.014604,99.7896976 L115.907788,102.007451 L114.601578,103.06119 L114.421517,104.081233 L113.731789,105.024698 L112.355386,105.134973 L111.305535,104.081233 L111.268913,103.352193 L111.497805,102.987673 L112.077664,102.662974 L112.645316,102.007451 L112.76434,101.100745 L112.645316,100.154218 L112.919986,99.9888052 L113.295369,99.9704261 L113.805035,99.3516607 L113.841657,98.4786502 L113.295369,97.6791563 L112.898623,95.9698936 L112.392009,95.3143699 L112.175325,93.8593524 L111.738904,92.3338814 L111.052228,91.8989077 L110.50594,92.2236064 L109.276028,91.9326029 L108.87623,91.133109 L107.899625,91.0595923 L107.426581,90.5878603 L107.646318,90.1865818 L107.753134,89.2431178 L107.139704,88.443624 L106.269914,88.3701073 L105.433696,88.4068656 L105.506942,87.7513419 L104.710398,87.4603384 L104.167161,87.6778253 L103.550679,87.2796099 L102.537451,85.3896187 L101.594417,85.316102 L100.617811,84.9148235 L100.001329,85.4968305 L99.1315402,85.4968305 L98.9484267,84.6973367 L98.151883,84.152088 L97.2454712,84.0050547 L95.3624542,82.5867955 L93.4061917,80.0780389 L92.7897096,79.8605521 L92.609648,79.0947534 L91.7398589,77.9338025 L90.3634559,77.8970442 L90.2169651,77.0240337 L88.9138074,75.786503 L88.1874572,74.8767341 L87.0643611,74.3314854 L87.1009838,72.9867429 L86.3410629,72.5150109 L86.3044402,71.6787587 L85.4346511,70.2604995 L85.0470609,69.5192064 L84.7754425,69.0045896 L84.3756447,68.2387909 L82.9717746,67.8221964 L82.0287401,67.2034311 L78.8395135,66.3671789 L76.3766371,67.7486798 L76.3400144,68.5481736 L75.506848,69.6049758 L73.2148775,70.0123807 L73.2148775,70.0123807 Z M76.7215008,86.2289341 L77.0327937,86.1829862 L77.109091,85.7480125 L77.5149926,85.2977229 L77.136558,84.9668978 L76.9809116,85.4355666 L76.6848781,85.6009792 L76.7215008,86.2289341 L76.7215008,86.2289341 Z M88.9168593,78.3932818 L89.4723036,78.6567165 L89.2800344,78.2217429 L88.9168593,78.3932818 L88.9168593,78.3932818 Z M85.1142025,75.6486592 L84.6991452,76.0836329 L85.2179668,76.2919301 L86.2037277,75.9427259 L86.9636487,75.976421 L86.8415731,75.4556779 L86.392945,74.9165556 L86.167105,75.2290015 L85.1142025,75.6486592 L85.1142025,75.6486592 Z M79.2026886,99.1709322 L79.5658637,98.9534454 L80.035855,99.1709322 L80.7255825,98.8799287 L80.7988279,97.7894313 L81.0857057,97.1339077 L81.9921174,97.2074243 L82.5719768,97.7894313 L83.1152135,97.7894313 L83.4783886,97.0971493 L83.4783886,95.3143699 L83.6584502,94.8058796 L83.4417659,92.8791301 L83.804941,91.133109 L82.5719768,90.0426117 L83.6248794,89.3503296 L83.7683183,88.6243524 L83.5150113,87.4970968 L82.8985292,86.8048147 L82.2088017,85.5335889 L81.8486785,85.8981091 L81.0155122,85.2425854 L80.289162,85.316102 L78.5495838,87.3898849 L77.7896628,87.4235801 L76.7031895,86.7680564 L76.7031895,87.8248586 L76.5231279,88.5140774 L77.2830488,89.2798761 L77.4631104,90.0058533 L78.0795925,90.551102 L78.0795925,91.6783577 L77.3929169,92.407398 L77.6828466,92.9894051 L78.6228292,93.0598585 L78.6228292,93.4611371 L78.0429698,94.1503559 L77.6096012,95.8228603 L78.009399,96.4446888 L78.4793903,98.4081967 L79.2026886,99.1709322 L79.2026886,99.1709322 Z M109.529335,111.82499 L109.456089,110.627281 L109.929132,110.045274 L109.819264,108.988472 L108.949475,107.790762 L109.819264,105.462734 L110.689053,104.660177 L110.869115,103.388951 L110.145817,102.515941 L108.949475,103.679955 L108.442861,103.606438 L107.389959,103.024431 L106.376731,104.114929 L104.203784,103.970958 L102.427583,104.516207 L101.161048,104.261962 L100.254636,103.643197 L99.2047856,103.753472 L98.6218743,104.225204 L98.2983738,103.787167 L97.138655,104.335479 L96.9921642,105.897708 L98.0084441,106.844235 L99.0216721,106.663507 L100.834496,107.897974 L101.811101,108.152219 L102.717513,109.135505 L104.856889,109.934999 L105.290257,109.643995 L106.23024,110.336277 L106.413353,111.099013 L108.622923,111.972023 L109.529335,111.82499 L109.529335,111.82499 Z"/><path id="Fill-74-Copy" fill="#0062FF" fill-opacity=".2" stroke="#FFF" stroke-width=".585" d="M33.5677548,72.2668921 L34.3917655,72.7233082 L34.4955298,72.9653005 L35.0845449,73.0694492 L35.2554508,74.0741771 L35.1181157,74.8369126 L36.5341933,74.6623105 L38.429418,75.425046 L39.329726,76.3960787 L40.2941237,75.9457891 L41.3653376,77.0546656 L42.6776509,77.0179073 L43.3338076,77.3671115 L44.1608702,76.5002274 L46.3368689,76.4297739 L47.1639315,76.8800635 L48.4762448,76.7422198 L49.8587517,77.5049553 L52.0988401,77.296658 L53.6888755,78.2646276 L54.2900982,78.4698616 L54.3480841,78.9875416 L53.5881631,79.4960319 L53.8414701,81.0245661 L53.7193945,82.2130857 L53.2310918,83.1167282 L51.424372,84.2072255 C51.424372,84.2072255 50.7010737,85.2027638 50.6125689,85.2395222 C50.5210121,85.2762805 49.0957788,85.8582875 49.0957788,85.8582875 L47.2493844,85.7663917 L46.0591467,86.6179598 L44.9757253,87.1969037 L45.4792874,87.6349405 L45.2442917,88.759133 L44.5789794,89.1757275 L44.4691113,89.0654525 L44.6369653,88.915356 L44.1303513,88.7346275 L42.7539482,91.0963507 L41.777343,91.5711459 L39.9278967,94.6619094 L39.38466,95.3511283 L40.1812037,96.7326291 L40.397888,97.6791563 L41.1242382,98.0804349 L42.3175278,99.7161809 L41.2676771,100.733162 L39.6745897,101.13444 L39.7112124,102.261696 L38.1883185,104.405932 L38.0082569,105.824191 L38.4050028,106.22547 L38.0082569,106.844235 L36.3785469,106.914689 L33.4792499,108.299253 L33.4792499,109.279475 L32.3561538,111.099013 L31.339874,110.627281 L30.4334622,109.824724 L29.9634709,110.664039 L29.2035499,111.3165 L28.4070062,110.697734 L27.5738398,110.664039 L27.2472874,111.062254 L25.9410779,110.915221 L23.9817635,110.369972 L23.1882717,110.808009 L21.4700568,111.025496 L19.9715781,112.529525 L18.201481,112.747012 L17.5331168,113.344335 L17.4964941,114.125449 L16.0895721,114.885122 L14.5331074,114.63394 L12.9461238,113.053331 L12.0214007,110.841704 L12.2228255,110.535385 L10.2726668,108.648457 L8.86269296,108.486108 L8.08140873,108.271684 L8.03868225,107.144428 L7.34895477,106.035552 L8.4537395,103.952579 L9.62871773,102.981547 L9.76605285,102.077904 L8.73146163,102.010514 L8.03868225,100.622887 L9.55852423,99.0943523 L9.49138261,97.1522868 L8.38354599,96.4569416 L7.14142615,94.0982816 L8.31640438,93.8195309 L9.14651887,93.9604378 L10.3886387,92.2236064 L9.55852423,91.3934806 L10.5961673,90.3519943 L10.7365544,87.2979891 L10.5290257,86.0482056 L12.3265898,84.3144373 L13.0163173,84.3144373 L13.2940394,83.3434046 L12.3265898,81.9557773 L12.1862028,80.7733841 L9.90643986,80.4976966 L9.00613186,81.3982759 L6.37845327,80.8438376 L4.78841779,81.6770266 L4.37336054,80.9816814 L4.51374755,79.9432583 L3.7049963,79.7227083 L1.5808798,80.0565965 L1.55646467,79.7870354 L2.68261264,78.8037499 L1.88301706,78.6597797 L2.42930565,78.0777727 L2.06613056,77.7132525 L2.28281485,76.6962718 L1.52289387,77.422249 L1.15971878,77.2782788 L1.41302577,75.9335363 L1.01322798,75.7497446 L1.04985068,75.204496 L0.436420487,75.425046 L-1.10134124e-13,74.4050021 L0.506613992,73.3512631 L2.31943755,72.6957394 L2.93591964,72.9867429 L4.45576161,72.8060144 L5.18211179,72.2577025 L4.6022524,71.8594872 L4.49238431,71.2039635 L6.23196247,70.2237412 L6.48526947,70.551503 L7.21161965,70.0399495 L8.40490923,70.2972579 L9.42118911,71.5684837 L10.2909782,70.8425065 L11.2675835,70.8425065 L12.3906796,71.3142385 L13.6236437,70.8057482 L15.1465376,70.3677113 L15.4700381,70.8057482 L16.7030023,71.494967 L20.1089132,72.0402157 L21.6684298,72.4047359 L23.9848154,71.4214504 L25.7243936,71.5684837 L26.050946,72.3312192 L27.7539014,72.6589811 L28.6236905,71.7859705 L29.4568569,71.7859705 L31.9929788,73.2777464 L32.46297,72.5854644 L33.1526975,72.5150109 L33.5677548,72.2668921 L33.5677548,72.2668921 Z M56.6827811,93.3171669 L58.2361939,93.4550107 L58.9961149,93.8716052 L59.2372143,93.3876204 L58.2728166,92.3828925 L56.8903097,92.65858 L56.6827811,93.3171669 L56.6827811,93.3171669 Z M53.9238712,96.5396479 L54.3358765,95.2929276 L55.4070905,94.3218948 L54.4396408,94.2514413 L53.3348561,94.0799024 L52.4040292,94.701731 L52.1965006,95.53492 L53.1639502,95.8473658 L53.9238712,96.5396479 L53.9238712,96.5396479 Z M48.0886546,99.7253705 L48.641047,98.962635 L49.1598685,98.444955 L48.7783821,97.8200633 L47.5362622,98.2029626 L47.3989271,99.0698468 L48.0886546,99.7253705 L48.0886546,99.7253705 Z"/><polyline id="Fill-60-Copy" fill="#0062FF" fill-opacity=".2" stroke="#FFF" stroke-width=".585" points="126.65 37.16 126.91 37.304 127.807 37.27 128.378 36.4 129.141 36.14 129.882 36.225 131.024 36.225 131.698 36.694 132.303 36.069 133.081 35.965 133.825 36.314 134.433 36.035 136.23 36.103 138.223 37.279 139.261 37.35 139.328 35.895 139.12 34.577 142.056 31.287 142.468 29.832 143.195 29.07 143.988 29.033 144.254 27.602 143.909 27.011 143.769 26.264 144.184 25.725 143.027 24.996 142.471 23.587 141.867 22.962 141.815 20.753 141.916 19.473 140.952 17.914 140.57 16.492 141.296 15.313 142.261 14.967 142.227 11.953 141.675 11.469 141.47 10.292 140.814 9.288 140.088 7.067 139.261 5.716 139.328 4.573 138.809 2.806 138.156 2.738 137.085 1.872 130.767 2.493 124.685 2.153 124.13 2.365 122.5 3.82 121.123 4.145 120.76 3.82 122.14 3.054 123.406 1.746 122.973 1.783 121.957 2.8 120.18 3.636 118.114 3.054 117.681 1.927 118.007 1.127 119.094 1.274 119.601 1.602 119.637 1.274 118.297 .619 115.871 0 113.985 .983 112.609 .873 111.196 1.418 110.326 2.619 108.949 2.656 108.08 3.636 108.08 4.402 106.593 4.436 104.347 5.673 102.827 5.783 102.284 6.947 101.921 8.108 101.594 8.292 101.668 8.764 101.192 8.791 101.704 10.948 101.567 12.541 100.218 13.236 100.218 13.895 101.704 15.488 101.53 16.459 102.22 17.359 102.22 18.085 102.635 19.09 102.257 19.923 103.12 21.899 103.752 22.248 104.323 22.995 104.393 25.55 104.131 25.973 104.478 26.733 104.894 26.245 105.724 26.402 106.191 26.16 108.147 26.457 108.077 27.011 108.907 27.863 109.685 27.759 110.393 28.368 109.926 29.428 110.308 30.001 110.652 30.194 110.61 31.113 111.266 31.392 111.714 30.905 112.334 30.905 111.229 29.45 111.681 29.137 113.924 30.384 115.34 30.212 115.096 31.042 116.131 31.876 117.928 31.459 119.341 31.909 122.244 34.023 123.141 35.582 123.968 35.616 124.383 35.132 125.659 35.165 126.385 35.928 126.65 37.16"/><polygon id="Fill-50-Copy" fill="#0062FF" fill-opacity=".2" stroke="#FFF" stroke-width=".585" points="117.661 46.035 119.385 46.354 121.04 45.789 123.645 45.542 123.785 44.624 125.157 44.165 126.741 42.822 128.113 44.268 128.219 43.353 129.1 42.644 129.943 41.338 131.564 41.197 132.687 41.513 134.66 41.372 136.173 41.725 137.476 40.879 137.685 39.217 138.69 37.072 138.565 37.062 136.533 35.863 134.701 35.794 134.081 36.078 133.322 35.722 132.529 35.829 131.913 36.466 131.225 35.988 130.061 35.988 129.305 35.9 128.527 36.166 127.945 37.053 127.03 37.087 126.766 36.94 126.775 36.994 124.522 36.781 123.467 37.734 122.235 37.84 120.863 39.217 119.067 39.464 117.203 40.136 116.746 39.748 115.619 39.783 114.459 40.56 114.213 40.504 114.107 42.072 114.4 44.143"/><circle id="Oval-Copy-66" cx="129.1" cy="26.1" r="3.65" fill="#408BFC" fill-opacity=".7" stroke="#0062FF" stroke-width=".9"/><path id="Path-9" stroke="#0062FF" stroke-linecap="round" stroke-width="1.25" d="M100,79 C102.666667,53.6666667 112.333333,36 129,26"/><circle id="Oval-Copy-70" cx="100.1" cy="79.1" r="3.65" fill="#408BFC" fill-opacity=".7" stroke="#0062FF" stroke-width=".9"/><circle id="Oval-Copy-71" cx="55.9" cy="50.1" r="3.65" fill="#408BFC" fill-opacity=".7" stroke="#0062FF" stroke-width=".9"/><path id="Path-Copy-4" stroke="#0062FF" stroke-linecap="round" stroke-width="1.25" d="M56,50 C75.6,50.4 97.3,67.3 100,79"/><circle id="Oval-Copy-72" cx="27.1" cy="93.3" r="3.65" fill="#408BFC" fill-opacity=".7" stroke="#0062FF" stroke-width=".9"/><polygon id="Rectangle-Copy-321" fill="#0062FF" points="84.3 55.155 84.3 61.212 79 58.183" transform="translate(81.650000, 58.183267) rotate(33.000000) translate(-81.650000, -58.183267)"/><polygon id="Rectangle-Copy-325" fill="#0062FF" points="111.3 44 111.3 50.057 106 47.029" transform="translate(108.650000, 47.028571) rotate(123.000000) translate(-108.650000, -47.028571)"/><polygon id="Rectangle-Copy-324" fill="#0062FF" points="64.3 74 64.3 80.057 59 77.029" transform="translate(61.650000, 77.028571) scale(-1, 1) rotate(16.000000) translate(-61.650000, -77.028571)"/><path id="Path-Copy-3" stroke="#0062FF" stroke-linecap="round" stroke-width="1.25" d="M27,93 C37.4941406,82.1938477 63,71 100,79"/></g></g></g></g></svg>