<svg xmlns="http://www.w3.org/2000/svg" viewBox="0 0 288 288"><g fill="none" fill-rule="evenodd"><path d="M0 0h288v288H0z" fill="#FFF"/><path d="M52 236h184V52H52z"/><g fill="#000"><path d="M94.326 228.186h99.36v-36.283h-99.36v36.283zm.006-40.423h99.36V59.82h-99.36v127.943zM195.756 55.68h-103.5a2.067 2.067 0 00-2.065 2.07v172.5c0 1.144.926 2.07 2.065 2.07h103.5c1.144 0 2.07-.926 2.07-2.07V57.75c0-1.144-.926-2.07-2.07-2.07z"/><path d="M149.759 210.125a5.752 5.752 0 00-5.75-5.75 5.748 5.748 0 00-5.75 5.75c0 3.174 2.57 5.75 5.75 5.75a5.752 5.752 0 005.75-5.75"/></g></g></svg>