<?xml version="1.0" encoding="UTF-8"?>
<svg width="928px" height="522px" viewBox="0 0 928 522" version="1.1" xmlns="http://www.w3.org/2000/svg" xmlns:xlink="http://www.w3.org/1999/xlink">
    <!-- Generator: Sketch 62 (91390) - https://sketch.com -->
    <title>treemap</title>
    <desc>Created with Sketch.</desc>
    <g id="treemap" stroke="none" stroke-width="1" fill="none" fill-rule="evenodd">
        <rect fill="#F3F3F3" x="0" y="0" width="928" height="522"></rect>
        <g id="Group-10" transform="translate(255.000000, 84.000000)">
            <g id="Group-9" transform="translate(0.000000, 34.000000)">
                <g id="Group-7">
                    <g id="Group-4" transform="translate(-0.000000, 0.000000)" fill="#6929C4">
                        <rect id="Rectangle" x="2.72848411e-12" y="0" width="117.368421" height="190.27668"></rect>
                        <rect id="Rectangle-Copy-9" x="1.8189894e-12" y="191.27668" width="73.3552632" height="57.312253"></rect>
                        <rect id="Rectangle-Copy-9" x="9.09494702e-13" y="249.588933" width="73.3552632" height="40.1185771"></rect>
                        <rect id="Rectangle-Copy-11" x="74.3552632" y="191.27668" width="43.0350877" height="45.8498024"></rect>
                        <rect id="Rectangle-Copy-11" x="74.3552632" y="238.126482" width="43.0350877" height="51.5810277"></rect>
                        <rect id="Rectangle" x="118.368421" y="0" width="104.653509" height="190.27668"></rect>
                        <rect id="Rectangle-Copy-10" x="118.390351" y="191.27668" width="44.9912281" height="37.826087"></rect>
                        <rect id="Rectangle-Copy-13" x="118.390351" y="230.102767" width="44.9912281" height="34.3873518"></rect>
                        <rect id="Rectangle-Copy-14" x="118.390351" y="265.490119" width="44.9912281" height="24.0711462"></rect>
                        <rect id="Rectangle-Copy-12" x="164.381579" y="191.27668" width="23.4736842" height="37.826087"></rect>
                        <rect id="Rectangle-Copy-18" x="188.855263" y="191.27668" width="18.5833333" height="37.826087"></rect>
                        <rect id="Rectangle-Copy-19" x="208.438596" y="191.27668" width="14.6710526" height="37.826087"></rect>
                        <rect id="Rectangle-Copy-20" x="208.438596" y="230.102767" width="14.6710526" height="26.3636364"></rect>
                        <rect id="Rectangle-Copy-21" x="188.855263" y="230.102767" width="18.5833333" height="26.3636364"></rect>
                        <rect id="Rectangle-Copy-22" x="188.855263" y="257.466403" width="14.6710526" height="14.9011858"></rect>
                        <rect id="Rectangle-Copy-24" x="204.526316" y="257.466403" width="6.84649123" height="14.9011858"></rect>
                        <rect id="Rectangle-Copy-26" x="212.372807" y="257.466403" width="4.89035088" height="14.9011858"></rect>
                        <rect id="Rectangle-Copy-27" x="218.263158" y="257.466403" width="4.89035088" height="14.9011858"></rect>
                        <rect id="Rectangle-Copy-23" x="188.789474" y="273.367589" width="14.6710526" height="16.0474308"></rect>
                        <rect id="Rectangle-Copy-25" x="204.460526" y="273.367589" width="7.8245614" height="8.02371542"></rect>
                        <rect id="Rectangle-Copy-29" x="204.460526" y="282.391304" width="7.8245614" height="6.87747036"></rect>
                        <rect id="Rectangle-Copy-30" x="213.285088" y="282.391304" width="4.89035088" height="6.87747036"></rect>
                        <rect id="Rectangle-Copy-32" x="219.175439" y="282.391304" width="3.9122807" height="4.58498024"></rect>
                        <rect id="Rectangle-Copy-33" x="219.175439" y="287.976285" width="3.9122807" height="1.14624506"></rect>
                        <rect id="Rectangle-Copy-28" x="213.285088" y="273.367589" width="6.84649123" height="8.02371542"></rect>
                        <rect id="Rectangle-Copy-31" x="221.131579" y="273.367589" width="1.95614035" height="8.02371542"></rect>
                        <rect id="Rectangle-Copy-15" x="164.381579" y="230.102767" width="23.4736842" height="20.6324111"></rect>
                        <rect id="Rectangle-Copy-16" x="164.381579" y="251.735178" width="23.4736842" height="20.6324111"></rect>
                        <rect id="Rectangle-Copy-17" x="164.315789" y="273.367589" width="23.4736842" height="16.0474308"></rect>
                    </g>
                    <g id="Group-6" transform="translate(224.000000, 0.000000)" fill="#1192E8">
                        <rect id="Rectangle-Copy-2" x="0" y="0" width="48.51" height="58.4181818"></rect>
                        <rect id="Rectangle-Copy-110" x="0" y="59.4181818" width="29.3877551" height="37.8"></rect>
                        <rect id="Rectangle-Copy-114" x="0" y="98.2181818" width="25.4693878" height="24.0545455"></rect>
                        <rect id="Rectangle-Copy-118" x="26.4693878" y="98.2181818" width="15.6734694" height="28.6363636"></rect>
                        <rect id="Rectangle-Copy-119" x="43.1428571" y="98.2181818" width="12.7346939" height="28.6363636"></rect>
                        <rect id="Rectangle-Copy-120" x="56.877551" y="98.2181818" width="12.7346939" height="28.6363636"></rect>
                        <rect id="Rectangle-Copy-121" x="70.6122449" y="98.2181818" width="12.7346939" height="28.6363636"></rect>
                        <rect id="Rectangle-Copy-122" x="84.3469388" y="98.2181818" width="11.755102" height="28.6363636"></rect>
                        <rect id="Rectangle-Copy-123" x="26.4693878" y="127.854545" width="21.5510204" height="20.6181818"></rect>
                        <rect id="Rectangle-Copy-127" x="49.0204082" y="127.854545" width="11.755102" height="17.1818182"></rect>
                        <rect id="Rectangle-Copy-128" x="61.7755102" y="127.854545" width="11.755102" height="17.1818182"></rect>
                        <rect id="Rectangle-Copy-129" x="74.5306122" y="127.854545" width="11.755102" height="17.1818182"></rect>
                        <rect id="Rectangle-Copy-130" x="87.2857143" y="127.854545" width="8.81632653" height="17.1818182"></rect>
                        <rect id="Rectangle-Copy-124" x="26.4693878" y="149.472727" width="21.5510204" height="13.7454545"></rect>
                        <rect id="Rectangle-Copy-131" x="49.0204082" y="146.036364" width="15.6734694" height="17.1818182"></rect>
                        <rect id="Rectangle-Copy-134" x="65.6938776" y="146.036364" width="10.7755102" height="17.1818182"></rect>
                        <rect id="Rectangle-Copy-135" x="77.4693878" y="146.036364" width="8.81632653" height="17.1818182"></rect>
                        <rect id="Rectangle-Copy-136" x="87.2857143" y="146.036364" width="8.81632653" height="17.1818182"></rect>
                        <rect id="Rectangle-Copy-132" x="49.0204082" y="164.218182" width="15.6734694" height="11.4545455"></rect>
                        <rect id="Rectangle-Copy-137" x="65.6938776" y="164.218182" width="11.755102" height="11.4545455"></rect>
                        <rect id="Rectangle-Copy-139" x="78.4489796" y="164.218182" width="9.79591837" height="14.8909091"></rect>
                        <rect id="Rectangle-Copy-141" x="78.4489796" y="180.109091" width="9.79591837" height="7.918182"></rect>
                        <rect id="Rectangle-Copy-142" x="89.244898" y="180.109091" width="6.85714286" height="7.918182"></rect>
                        <rect id="Rectangle-Copy-140" x="89.244898" y="164.218182" width="6.85714286" height="14.8909091"></rect>
                        <rect id="Rectangle-Copy-133" x="49.0204082" y="176.672727" width="15.6734694" height="11.354545"></rect>
                        <rect id="Rectangle-Copy-138" x="65.6938776" y="176.672727" width="11.755102" height="11.354545"></rect>
                        <rect id="Rectangle-Copy-125" x="26.4693878" y="164.218182" width="21.5510204" height="11.4545455"></rect>
                        <rect id="Rectangle-Copy-126" x="26.4693878" y="176.672727" width="21.5510204" height="11.354545"></rect>
                        <rect id="Rectangle-Copy-117" x="0" y="171.090909" width="25.4693878" height="17.081818"></rect>
                        <rect id="Rectangle-Copy-108" x="49.5102041" y="0" width="23" height="58.4181818"></rect>
                        <rect id="Rectangle-Copy-111" x="30.3877551" y="59.4181818" width="22.5306122" height="37.8"></rect>
                        <rect id="Rectangle-Copy-113" x="53.9183673" y="59.4181818" width="22.5306122" height="37.8"></rect>
                        <rect id="Rectangle-Copy-109" x="73.5102041" y="0" width="22.5306122" height="58.4181818"></rect>
                        <rect id="Rectangle-Copy-112" x="77.4489796" y="59.4181818" width="18.6122449" height="37.8"></rect>
                        <rect id="Rectangle-Copy-115" x="0" y="123.272727" width="25.4693878" height="24.0545455"></rect>
                        <rect id="Rectangle-Copy-116" x="0" y="148.327273" width="25.4693878" height="21.7636364"></rect>
                    </g>
                    <g id="Group" transform="translate(224.000000, 189.000000)" fill="#9F1853">
                        <rect id="Rectangle-Copy-6" x="-1.7408297e-13" y="3.19744231e-14" width="50.8776978" height="48.2758621"></rect>
                        <rect id="Rectangle-Copy-56" x="51.8776978" y="-9.41469125e-14" width="38.1582734" height="28.7356322"></rect>
                        <rect id="Rectangle-Copy-60" x="91.0359712" y="-9.41469125e-14" width="23.4820144" height="28.7356322"></rect>
                        <rect id="Rectangle-Copy-62" x="91.0359712" y="29.7356322" width="14.676259" height="20.6896552"></rect>
                        <rect id="Rectangle-Copy-66" x="91.0359712" y="51.4252874" width="12.7194245" height="12.6436782"></rect>
                        <rect id="Rectangle-Copy-70" x="104.755396" y="51.4252874" width="7.82733813" height="17.2413793"></rect>
                        <rect id="Rectangle-Copy-74" x="104.755396" y="69.6666667" width="11.7410072" height="9.1954023"></rect>
                        <rect id="Rectangle-Copy-80" x="117.496403" y="69.6666667" width="5.8705036" height="9.1954023"></rect>
                        <rect id="Rectangle-Copy-81" x="124.366906" y="69.6666667" width="5.8705036" height="9.1954023"></rect>
                        <rect id="Rectangle-Copy-82" x="131.23741" y="69.6666667" width="4.89208633" height="9.1954023"></rect>
                        <rect id="Rectangle-Copy-75" x="104.755396" y="79.862069" width="11.7410072" height="9.1954023"></rect>
                        <rect id="Rectangle-Copy-77" x="117.496403" y="79.862069" width="7.82733813" height="6.89655172"></rect>
                        <rect id="Rectangle-Copy-83" x="126.323741" y="79.862069" width="5.8705036" height="6.89655172"></rect>
                        <rect id="Rectangle-Copy-86" x="133.194245" y="79.862069" width="2.9352518" height="6.89655172"></rect>
                        <rect id="Rectangle-Copy-78" x="117.496403" y="87.7586207" width="6.84892086" height="6.89655172"></rect>
                        <rect id="Rectangle-Copy-84" x="125.345324" y="87.7586207" width="6.84892086" height="6.89655172"></rect>
                        <rect id="Rectangle-Copy-87" x="133.194245" y="87.7586207" width="2.9352518" height="6.89655172"></rect>
                        <rect id="Rectangle-Copy-79" x="117.496403" y="95.6551724" width="6.84892086" height="3.44827586"></rect>
                        <rect id="Rectangle-Copy-85" x="125.345324" y="95.6551724" width="6.84892086" height="3.44827586"></rect>
                        <rect id="Rectangle-Copy-88" x="133.194245" y="95.6551724" width="2.9352518" height="3.44827586"></rect>
                        <rect id="Rectangle-Copy-76" x="104.755396" y="90.0574713" width="11.7410072" height="9.1954023"></rect>
                        <rect id="Rectangle-Copy-71" x="113.582734" y="51.4252874" width="7.82733813" height="17.2413793"></rect>
                        <rect id="Rectangle-Copy-72" x="122.410072" y="51.4252874" width="5.8705036" height="17.2413793"></rect>
                        <rect id="Rectangle-Copy-73" x="129.280576" y="51.4252874" width="6.84892086" height="17.2413793"></rect>
                        <rect id="Rectangle-Copy-67" x="91.0359712" y="65.0689655" width="12.7194245" height="12.6436782"></rect>
                        <rect id="Rectangle-Copy-68" x="91.0359712" y="78.7126437" width="12.7194245" height="10.3448276"></rect>
                        <rect id="Rectangle-Copy-69" x="91.0359712" y="90.0574713" width="12.7194245" height="9.1954023"></rect>
                        <rect id="Rectangle-Copy-63" x="106.71223" y="29.7356322" width="11.7410072" height="20.6896552"></rect>
                        <rect id="Rectangle-Copy-64" x="119.453237" y="29.7356322" width="7.82733813" height="20.6896552"></rect>
                        <rect id="Rectangle-Copy-65" x="128.280576" y="29.7356322" width="7.82733813" height="20.6896552"></rect>
                        <rect id="Rectangle-Copy-61" x="115.517986" y="-9.41469125e-14" width="20.5467626" height="28.7356322"></rect>
                        <rect id="Rectangle-Copy-57" x="51.8776978" y="29.7356322" width="38.1582734" height="25.2873563"></rect>
                        <rect id="Rectangle-Copy-58" x="51.8776978" y="56.0229885" width="38.1582734" height="22.9885057"></rect>
                        <rect id="Rectangle-Copy-59" x="51.8776978" y="80.0114943" width="38.1582734" height="19.5402299"></rect>
                        <rect id="Rectangle-Copy-54" x="-1.7408297e-13" y="49.2758621" width="50.8776978" height="25.2873563"></rect>
                        <rect id="Rectangle-Copy-55" x="-1.7408297e-13" y="75.5632184" width="50.8776978" height="24.137931"></rect>
                    </g>
                    <g id="Group-3" transform="translate(361.000000, 189.000000)" fill="#FA4D56">
                        <rect id="Rectangle-Copy-7" x="-5.7909233e-13" y="-2.13162821e-14" width="37.3333333" height="42.4266667"></rect>
                        <rect id="Rectangle-Copy-96" x="38.3333333" y="-2.13162821e-14" width="17.6842105" height="42.4266667"></rect>
                        <rect id="Rectangle-Copy-97" x="48.1754386" y="43.4266667" width="7.85964912" height="17.2"></rect>
                        <rect id="Rectangle-Copy-105" x="48.1754386" y="61.6266667" width="7.85964912" height="12.6133333"></rect>
                        <rect id="Rectangle-Copy-106" x="48.1754386" y="75.24" width="7.85964912" height="4.58666667"></rect>
                        <rect id="Rectangle-Copy-107" x="48.1754386" y="80.8266667" width="7.85964912" height="4.58666667"></rect>
                        <rect id="Rectangle-Copy-98" x="34.4035088" y="43.4266667" width="12.7719298" height="17.2"></rect>
                        <rect id="Rectangle-Copy-102" x="34.4035088" y="61.6266667" width="12.7719298" height="10.32"></rect>
                        <rect id="Rectangle-Copy-103" x="34.4035088" y="72.9466667" width="12.7719298" height="6.88"></rect>
                        <rect id="Rectangle-Copy-104" x="34.4035088" y="80.8266667" width="12.7719298" height="4.58666667"></rect>
                        <rect id="Rectangle-Copy-99" x="-1.31450406e-13" y="43.4266667" width="33.4035088" height="14.9066667"></rect>
                        <rect id="Rectangle-Copy-100" x="-1.31450406e-13" y="59.3333333" width="33.4035088" height="12.6133333"></rect>
                        <rect id="Rectangle-Copy-101" x="-1.31450406e-13" y="72.9466667" width="33.4035088" height="12.6133333"></rect>
                    </g>
                    <g id="Group-2" transform="translate(361.000000, 275.500000)" fill="#520408">
                        <rect id="Rectangle-Copy-8" x="0" y="0" width="28" height="13"></rect>
                        <rect id="Rectangle-Copy-89" x="29" y="0" width="17" height="7"></rect>
                        <rect id="Rectangle-Copy-91" x="29" y="8" width="17" height="5"></rect>
                        <rect id="Rectangle-Copy-90" x="47" y="0" width="9" height="4"></rect>
                        <rect id="Rectangle-Copy-92" x="47" y="5" width="4" height="4"></rect>
                        <rect id="Rectangle-Copy-94" x="47" y="10" width="4" height="3"></rect>
                        <rect id="Rectangle-Copy-93" x="52" y="5" width="4" height="4"></rect>
                        <rect id="Rectangle-Copy-95" x="52" y="10" width="4" height="3"></rect>
                    </g>
                    <g id="Group-5" transform="translate(320.000000, 0.350000)" fill="#005D5D">
                        <rect id="Rectangle-Copy-3" x="0.994897959" y="2.27373675e-13" width="49.9591837" height="101.945455"></rect>
                        <rect id="Rectangle-Copy-35" x="51.9540816" y="2.27373675e-13" width="45.0612245" height="101.945455"></rect>
                        <rect id="Rectangle-Copy-34" x="1" y="102.945455" width="39.1836735" height="46.9636364"></rect>
                        <rect id="Rectangle-Copy-37" x="1" y="150.909091" width="39.1836735" height="21.7636364"></rect>
                        <rect id="Rectangle-Copy-38" x="1" y="173.672727" width="39.1836735" height="14"></rect>
                        <rect id="Rectangle-Copy-36" x="41.1836735" y="102.945455" width="22.5306122" height="33.2181818"></rect>
                        <rect id="Rectangle-Copy-41" x="64.7142857" y="102.945455" width="15.6734694" height="33.2181818"></rect>
                        <rect id="Rectangle-Copy-42" x="81.3877551" y="102.945455" width="15.6734694" height="33.2181818"></rect>
                        <rect id="Rectangle-Copy-39" x="41.1836735" y="137.163636" width="14.6938776" height="25.2"></rect>
                        <rect id="Rectangle-Copy-43" x="56.877551" y="137.163636" width="12.7346939" height="25.2"></rect>
                        <rect id="Rectangle-Copy-44" x="70.6122449" y="137.163636" width="12.7346939" height="25.2"></rect>
                        <rect id="Rectangle-Copy-45" x="84.3469388" y="137.163636" width="12.7346939" height="25.2"></rect>
                        <rect id="Rectangle-Copy-40" x="41.1836735" y="163.363636" width="21.5510204" height="13.7454545"></rect>
                        <rect id="Rectangle-Copy-47" x="63.7346939" y="163.363636" width="13.7142857" height="13.7454545"></rect>
                        <rect id="Rectangle-Copy-49" x="78.4489796" y="163.363636" width="8.81632653" height="13.7454545"></rect>
                        <rect id="Rectangle-Copy-51" x="88.2653061" y="163.363636" width="8.81632653" height="9.16363636"></rect>
                        <rect id="Rectangle-Copy-52" x="88.244898" y="173.527273" width="8.81632653" height="7"></rect>
                        <polygon id="Rectangle-Copy-53" points="88.244898 181.527273 97.0612245 181.527273 97.0612245 187.672727 88.244898 187.672727"></polygon>
                        <polygon id="Rectangle-Copy-46" points="41.1632653 178.109091 62.7142857 178.109091 62.7142857 187.672727 41.1632653 187.672727"></polygon>
                        <rect id="Rectangle-Copy-48" x="63.7142857" y="178.109091" width="13.7142857" height="9.56"></rect>
                        <rect id="Rectangle-Copy-50" x="78.4285714" y="178.109091" width="8.81632653" height="9.56"></rect>
                    </g>
                </g>
                <g id="Group-8" transform="translate(0.000000, 306.000000)">
                    <g id="Group">
                        <rect id="Rectangle-Copy-6" fill="#6929C4" x="0" y="2" width="12" height="12" rx="1"></rect>
                        <text id="Asia" font-family="IBMPlexSansCond, IBM Plex Sans Condensed" font-size="12" font-style="condensed" font-weight="normal" line-spacing="14" fill="#6F6F6F">
                            <tspan x="16" y="12">Asia</tspan>
                        </text>
                    </g>
                    <g id="Group-7" transform="translate(45.000000, 0.000000)">
                        <rect id="Rectangle-Copy-7" fill="#1192E8" x="0" y="2" width="12" height="12" rx="1"></rect>
                        <text id="Africa" font-family="IBMPlexSansCond, IBM Plex Sans Condensed" font-size="12" font-style="condensed" font-weight="normal" line-spacing="14" fill="#6F6F6F">
                            <tspan x="16" y="12">Africa</tspan>
                        </text>
                    </g>
                    <g id="Group-7-Copy" transform="translate(98.000000, 0.000000)">
                        <rect id="Rectangle-Copy-7" fill="#005D5D" x="0" y="2" width="12" height="12" rx="1"></rect>
                        <text id="America" font-family="IBMPlexSansCond, IBM Plex Sans Condensed" font-size="12" font-style="condensed" font-weight="normal" line-spacing="14" fill="#6F6F6F">
                            <tspan x="16" y="12">America</tspan>
                        </text>
                    </g>
                    <g id="Group-7-Copy-2" transform="translate(163.000000, 0.000000)">
                        <rect id="Rectangle-Copy-7" fill="#9F1853" x="0" y="2" width="12" height="12" rx="1"></rect>
                        <text id="Europe" font-family="IBMPlexSansCond, IBM Plex Sans Condensed" font-size="12" font-style="condensed" font-weight="normal" line-spacing="14" fill="#6F6F6F">
                            <tspan x="16" y="12">Europe</tspan>
                        </text>
                    </g>
                    <g id="Group-7-Copy-3" transform="translate(303.000000, 0.000000)">
                        <rect id="Rectangle-Copy-7" fill="#520408" x="0" y="2" width="12" height="12" rx="1"></rect>
                        <text id="Oceania" font-family="IBMPlexSansCond, IBM Plex Sans Condensed" font-size="12" font-style="condensed" font-weight="normal" line-spacing="14" fill="#6F6F6F">
                            <tspan x="16" y="12">Oceania</tspan>
                        </text>
                    </g>
                    <g id="Group-7-Copy-4" transform="translate(222.000000, 0.000000)">
                        <rect id="Rectangle-Copy-7" fill="#FA4D56" x="0" y="2" width="12" height="12" rx="1"></rect>
                        <text id="Middle-East" font-family="IBMPlexSansCond, IBM Plex Sans Condensed" font-size="12" font-style="condensed" font-weight="normal" line-spacing="14" fill="#6F6F6F">
                            <tspan x="16" y="12">Middle East</tspan>
                        </text>
                    </g>
                </g>
                <text id="China-18%" font-family="IBMPlexSansCond, IBM Plex Sans Condensed" font-size="12" font-style="condensed" font-weight="normal" line-spacing="15" fill="#FFFFFF">
                    <tspan x="8" y="20">China</tspan>
                    <tspan x="8" y="35">18%</tspan>
                </text>
                <text id="Indonesia-3%" font-family="IBMPlexSansCond, IBM Plex Sans Condensed" font-size="12" font-style="condensed" font-weight="normal" line-spacing="15" fill="#FFFFFF">
                    <tspan x="8" y="211">Indonesia</tspan>
                    <tspan x="8" y="226">3%</tspan>
                </text>
                <text id="Pakistan-2%" font-family="IBMPlexSansCond, IBM Plex Sans Condensed" font-size="12" font-style="condensed" font-weight="normal" line-spacing="15" fill="#FFFFFF">
                    <tspan x="8" y="267">Pakistan</tspan>
                    <tspan x="8" y="282">2%</tspan>
                </text>
                <text id="India-14%" font-family="IBMPlexSansCond, IBM Plex Sans Condensed" font-size="12" font-style="condensed" font-weight="normal" line-spacing="15" fill="#FFFFFF">
                    <tspan x="126.5" y="20">India</tspan>
                    <tspan x="126.5" y="35">14%</tspan>
                </text>
                <text id="Nigeria-2%" font-family="IBMPlexSansCond, IBM Plex Sans Condensed" font-size="12" font-style="condensed" font-weight="normal" line-spacing="15" fill="#FFFFFF">
                    <tspan x="232" y="20">Nigeria</tspan>
                    <tspan x="232" y="35">2%</tspan>
                </text>
                <text id="France-1.5%" font-family="IBMPlexSansCond, IBM Plex Sans Condensed" font-size="12" font-style="condensed" font-weight="normal" line-spacing="15" fill="#FFFFFF">
                    <tspan x="232" y="209">France</tspan>
                    <tspan x="232" y="224">1.5%</tspan>
                </text>
                <text id="Iran-1%" font-family="IBMPlexSansCond, IBM Plex Sans Condensed" font-size="12" font-style="condensed" font-weight="normal" line-spacing="15" fill="#FFFFFF">
                    <tspan x="369" y="209">Iran</tspan>
                    <tspan x="369" y="224">1%</tspan>
                </text>
                <text id="US-5%" font-family="IBMPlexSansCond, IBM Plex Sans Condensed" font-size="12" font-style="condensed" font-weight="normal" line-spacing="15" fill="#FFFFFF">
                    <tspan x="329" y="20">US</tspan>
                    <tspan x="329" y="35">5%</tspan>
                </text>
                <text id="Brazil-4%" font-family="IBMPlexSansCond, IBM Plex Sans Condensed" font-size="12" font-style="condensed" font-weight="normal" line-spacing="15" fill="#FFFFFF">
                    <tspan x="380" y="20">Brazil</tspan>
                    <tspan x="380" y="35">4%</tspan>
                </text>
            </g>
            <text id="widgetTitle" font-family="IBMPlexSans-SemiBold, IBM Plex Sans" font-size="16" font-weight="500" line-spacing="18" fill="#171717">
                <tspan x="0" y="16">Visitors by country</tspan>
            </text>
        </g>
    </g>
</svg>