<svg xmlns="http://www.w3.org/2000/svg" viewBox="0 0 928 522"><defs><linearGradient x1="0%" y1="101.984%" x2="100%" y2="-2.034%" id="a"><stop stop-color="#FB4B53" offset="0%"/><stop stop-color="#FFA0C2" offset="100%"/></linearGradient><linearGradient x1="-1.606%" y1="108.891%" x2="101.276%" y2="-8.933%" id="b"><stop stop-color="#EE538B" offset="0%"/><stop stop-color="#408BFC" offset="100%"/></linearGradient><linearGradient x1="-2.381%" y1="105.826%" x2="102.482%" y2="-5.083%" id="c"><stop stop-color="#0062FF" offset="0%"/><stop stop-color="#BB8EFF" offset="100%"/></linearGradient><linearGradient x1="-1.989%" y1="101.893%" x2="101.695%" y2="-1.893%" id="d"><stop stop-color="#0062FF" offset="0%"/><stop stop-color="#009C98" offset="100%"/></linearGradient><linearGradient x1="-11.169%" y1="101.333%" x2="107.493%" y2="-1.565%" id="e"><stop stop-color="#FB4B53" offset="0%"/><stop stop-color="#FFA0C2" offset="100%"/></linearGradient><linearGradient x1="-2.081%" y1="102.3%" x2="102.14%" y2="-1.981%" id="f"><stop stop-color="#007D79" offset="0%"/><stop stop-color="#3DBB61" offset="100%"/></linearGradient><linearGradient x1="105.48%" y1="-5.415%" x2="-5.429%" y2="105.386%" id="g"><stop stop-color="#408BFC" offset="0%"/><stop stop-color="#EE538B" offset="100%"/></linearGradient><linearGradient x1="105.991%" y1="-2.28%" x2="-5.809%" y2="101.932%" id="h"><stop stop-color="#007D79" offset="0%"/><stop stop-color="#1191E6" offset="100%"/></linearGradient></defs><g fill="none" fill-rule="evenodd"><path fill="#FFF" d="M0 0h928v522H0z"/><path fill="#FFF" d="M128 225h120V105H128z"/><path d="M8.846 114.896h34.8v-8.546h-34.8v8.546zM5.15 97.414l3.176 6.232h35.846l3.105-6.094-3.66-9.948H8.797l-3.648 9.81zm56.201 17.482h49.8v-2.407c0-7.526-6.124-13.65-13.65-13.65H75c-7.526 0-13.65 6.124-13.65 13.65v2.407zm10.822-18.472c.923-.162 1.86-.285 2.828-.285h22.5c.968 0 1.905.124 2.828.285l3.202-10.032-14.704-25.724a1.351 1.351 0 011.395-2.002l21.514 3.588 2.828-5.655L93.26 38.846h-7.01a1.35 1.35 0 01-1.35-1.35v-8.344l-8.674 7.328c-4.106 4.103-6.81 8.828-7.282 18.416H75v2.7h-6.142c0 .128-.012.233-.012.357v8.193H75v2.7h-6.154v8.55H75v2.7h-6.154v5.944l3.326 10.384zM120 114.896v2.7H0v-2.7h6.15v-9.573l-3.679-7.215a1.333 1.333 0 01-.06-1.084l3.503-9.42H3.75v-2.7h3.173l6.727-18.079V48.746h2.696V67.07c0 .161-.026.319-.082.472L9.803 84.904h32.82l-6.39-17.37a1.307 1.307 0 01-.083-.465V48.746h2.696v18.079L45.5 84.904h3.251v2.7h-2.258l3.522 9.57a1.33 1.33 0 01-.064 1.076l-3.604 7.073v9.573H58.65v-2.407c0-7.099 4.579-13.099 10.916-15.353L66.21 86.662a1.369 1.369 0 01-.064-.408V57.952c0-12.667 3.158-18.367 8.254-23.463l10.976-9.274a1.337 1.337 0 011.44-.191c.477.217.78.697.78 1.222v9.9h6.154c.311 0 .623.113.862.315l22.5 18.75c.48.398.623 1.08.342 1.639l-3.75 7.5a1.356 1.356 0 01-1.429.728L92.58 61.796l13.59 23.771c.188.33.229.724.112 1.08l-3.348 10.49c6.337 2.253 10.916 8.253 10.916 15.352v2.407H120zM20.1 9.892h12.3V5.096H20.1v4.796zm22.354 9.458l-3.608 7.215v7.181H36.15v-7.5c0-.21.045-.416.142-.604l3.447-6.896-3.075-6.15H15.832l-3.075 6.15 3.447 6.896a1.3 1.3 0 01.142.604v7.5H13.65v-7.181l-3.607-7.215a1.342 1.342 0 010-1.208l3.75-7.5A1.343 1.343 0 0115 9.896h2.4v-6.15c0-.746.604-1.35 1.35-1.35h15c.742 0 1.346.604 1.346 1.35v6.15H37.5c.51 0 .979.289 1.204.746l3.75 7.5c.191.38.191.83 0 1.208zm-23.704.75h15v-2.704h-15V20.1zm-7.658 22.496H41.25v-2.703H11.093v2.703z" fill="url(#a)" transform="translate(128 105)"/><path fill="#FFF" d="M312 225h120V105H312z"/><path d="M29.086 40.851c.398.233.885.24 1.29.026.409-.214.679-.615.724-1.069 1.425-15.067 14.265-27.322 28.624-27.322 11.598 0 22.365 7.639 26.79 19.012.262.675 1.008 1.002 1.695.788 1.818-.619 4.755-1.05 7.14-1.05 10.78 0 19.552 8.768 19.552 19.549 0 10.534-8.595 18.881-19.552 18.997H21.132c-9.288-.116-16.03-6.397-16.03-14.932 0-8.888 7.184-16.114 16.015-16.114 2.78 0 5.54.731 7.97 2.115zm66.278 31.635c12.468-.139 22.237-9.671 22.237-21.701 0-12.27-9.982-22.253-22.252-22.253-1.883 0-4.545.263-6.792.837C83.465 17.605 72.031 9.782 59.724 9.782c-15.09 0-28.643 12.319-31.07 27.836a18.797 18.797 0 00-7.537-1.586c-10.32 0-18.716 8.445-18.716 18.818 0 10.08 7.86 17.49 18.716 17.636h74.247zM74.296 109.54l13.125-22.733c.371-.645.15-1.47-.495-1.841a1.337 1.337 0 00-1.845.495l-13.125 22.733a1.35 1.35 0 102.34 1.346zm-13.129-9.743l7.5-12.99a1.344 1.344 0 00-.49-1.841 1.337 1.337 0 00-1.846.495l-7.5 12.986c-.371.645-.15 1.47.491 1.845.214.124.447.18.675.18.47 0 .923-.24 1.17-.675zm-24.37 9.743L49.92 86.807c.371-.645.15-1.47-.495-1.841a1.337 1.337 0 00-1.845.495l-13.125 22.733a1.35 1.35 0 102.34 1.346zm-14.3-9.068a1.34 1.34 0 01-.675-.18 1.356 1.356 0 01-.49-1.845l7.5-12.986a1.336 1.336 0 011.844-.495c.645.371.866 1.196.491 1.841l-7.5 12.99a1.34 1.34 0 01-1.17.675z" fill="url(#b)" transform="translate(312 105)"/><path fill="#FFF" d="M496 225h120V105H496z"/><path d="M107.4 112.5h2.7V105h-2.7v7.5zm-15 0h2.7V105h-2.7v7.5zm15-30h2.7V75h-2.7v7.5zm-15 0h2.7V75h-2.7v7.5zm-33.75 30h2.7V105h-2.7v7.5zm-15 0h2.7V105h-2.7v7.5zm0-52.5h2.7v-7.5h-2.7V60zm-15 0h2.7v-7.5h-2.7V60zm-15 0h2.7v-7.5h-2.7V60zm30-18.75h2.7v-7.5h-2.7v7.5zm-15 0h2.7v-7.5h-2.7v7.5zm-15 0h2.7v-7.5h-2.7v7.5zm81.45 9.896h12.3V38.85H95.1v12.296zM91.35 15.72l9.9-6.596 9.9 6.596v20.43h-19.8V15.72zm18.75 35.43v-12.3h2.4a1.35 1.35 0 001.35-1.35V15c0-.45-.225-.87-.6-1.125L102 6.375c-.454-.3-1.046-.3-1.5 0l-11.25 7.5c-.375.255-.6.675-.6 1.125v22.5c0 .746.604 1.35 1.35 1.35h2.4v12.3h-9.9a1.35 1.35 0 00-1.35 1.35v28.65h-19.8V22.5A1.35 1.35 0 0060 21.15H3.75v2.7h54.9v57.3H30a1.35 1.35 0 00-1.35 1.35v30h2.7V83.85h49.8v28.65h2.7V53.85h32.4v-2.7h-6.15z" fill="url(#c)" transform="translate(496 105)"/><path fill="#FFF" d="M680 225h120V105H680z"/><path d="M41.439 35.292c-1.575 0-3.15.6-4.35 1.796a6.16 6.16 0 00.003 8.7l13.253 13.256a1.351 1.351 0 010 1.913L37.089 74.213a6.155 6.155 0 00.003 8.696c2.393 2.396 6.297 2.396 8.697 0l13.256-13.26c.506-.506 1.402-.506 1.909 0l13.26 13.26c2.396 2.396 6.296 2.396 8.696 0 2.396-2.396 2.396-6.296 0-8.696L69.654 60.957a1.351 1.351 0 010-1.913L82.91 45.788a6.163 6.163 0 000-8.7 6.165 6.165 0 00-8.696 0l-13.26 13.264c-.507.502-1.403.502-1.91 0L45.79 37.088a6.144 6.144 0 00-4.35-1.796m0 52.113a8.814 8.814 0 01-6.255-2.583c-3.45-3.454-3.45-9.068-.004-12.522L47.484 60l-12.3-12.3c-3.45-3.453-3.45-9.067-.004-12.52 3.457-3.443 9.071-3.447 12.514 0L60 47.486l12.304-12.308c3.454-3.442 9.067-3.446 12.514 0 3.45 3.454 3.45 9.068 0 12.521L72.519 60l12.3 12.3c3.45 3.454 3.45 9.068 0 12.522-3.454 3.446-9.064 3.45-12.514 0L60 72.514 47.694 84.822a8.83 8.83 0 01-6.255 2.583M60 5.1C29.726 5.1 5.1 29.73 5.1 60s24.626 54.9 54.9 54.9c30.27 0 54.9-24.63 54.9-54.9S90.27 5.1 60 5.1m0 112.5C28.238 117.6 2.4 91.763 2.4 60 2.4 28.238 28.238 2.4 60 2.4c31.759 0 57.6 25.838 57.6 57.6 0 31.763-25.841 57.6-57.6 57.6" fill="url(#d)" transform="translate(680 105)"/><path fill="#FFF" d="M496 417h120V297H496z"/><path d="M110.1 60.008c0-23.352-15.848-43.4-38.54-48.762l-.622 2.629c21.47 5.074 36.462 24.041 36.462 46.133 0 24.974-19.433 45.453-43.965 47.227l5.475-5.475L67 99.847l-8.91 8.91 8.91 8.91 1.91-1.912-5.805-5.805c26.178-1.612 46.995-23.362 46.995-49.943zM52.998 2.333L51.09 4.245l5.805 5.805C30.72 11.662 9.9 33.413 9.9 59.992c0 23.352 15.847 43.4 38.538 48.762l.623-2.629C27.592 101.051 12.6 82.084 12.6 59.992c0-24.974 19.432-45.45 43.965-47.223L51.09 18.24l1.908 1.913 8.91-8.91-8.91-8.91zM87.6 64.69v14.052h-2.697V64.69a13.595 13.595 0 00-10.492-13.275 1.35 1.35 0 01-1.031-1.188 1.355 1.355 0 01.795-1.362 7.2 7.2 0 004.278-6.574c0-3.967-3.228-7.2-7.2-7.2-3.967 0-7.2 3.233-7.2 7.2 0 .87.18 1.7.477 2.494 3.176 1.654 5.373 4.935 5.373 8.753a9.906 9.906 0 01-3.348 7.417A16.283 16.283 0 0176.35 75.94v14.052h-2.697V75.94a13.596 13.596 0 00-10.488-13.275 1.353 1.353 0 01-1.035-1.188 1.358 1.358 0 01.795-1.362 7.212 7.212 0 004.282-6.577c0-3.968-3.232-7.197-7.2-7.197-3.971 0-7.2 3.23-7.2 7.197a7.209 7.209 0 004.279 6.577c.529.24.847.784.795 1.361a1.348 1.348 0 01-1.035 1.19A13.592 13.592 0 0046.357 75.94v14.052h-2.7V75.94a16.284 16.284 0 019.799-14.985 9.906 9.906 0 01-3.349-7.417c0-3.814 2.198-7.099 5.374-8.749.296-.799.476-1.627.476-2.498 0-3.967-3.229-7.2-7.2-7.2s-7.2 3.233-7.2 7.2a7.193 7.193 0 004.279 6.574c.529.236.847.784.795 1.361a1.348 1.348 0 01-1.035 1.19A13.596 13.596 0 0035.107 64.69v14.052h-2.696V64.69c0-6.619 3.907-12.427 9.795-14.981a9.906 9.906 0 01-3.349-7.418c0-5.46 4.44-9.9 9.9-9.9s9.9 4.44 9.9 9.9c0 .51-.079 1.005-.154 1.504.495-.078.987-.154 1.504-.154.514 0 1.009.075 1.5.154-.075-.498-.154-.993-.154-1.504 0-5.46 4.444-9.9 9.9-9.9 5.46 0 9.9 4.44 9.9 9.9a9.906 9.906 0 01-3.348 7.418c5.887 2.554 9.795 8.362 9.795 14.981z" fill="url(#e)" transform="translate(496 297)"/><path fill="#FFF" d="M312 417h120V297H312z"/><path d="M108.775 114.895a6.156 6.156 0 01-6.15-6.15c0-3.39 2.76-6.146 6.15-6.146 3.39 0 6.15 2.756 6.15 6.146 0 3.394-2.76 6.15-6.15 6.15zm-23.846-6.15c0 3.394-2.76 6.15-6.15 6.15a6.156 6.156 0 01-6.15-6.15c0-3.39 2.76-6.146 6.15-6.146 3.39 0 6.15 2.756 6.15 6.146zM72.573 66.141h42.3V53.845h-42.3v12.296zm-67.5 0h42.3V53.845h-42.3v12.296zm42.349 42.604c0 3.394-2.76 6.15-6.15 6.15a6.156 6.156 0 01-6.15-6.15c0-3.39 2.76-6.146 6.15-6.146 3.39 0 6.15 2.756 6.15 6.146zm-30 0c0 3.394-2.76 6.15-6.15 6.15a6.156 6.156 0 01-6.15-6.15c0-3.39 2.76-6.146 6.15-6.146 3.39 0 6.15 2.756 6.15 6.146zm-12.3-91.342h109.8V5.106H5.122v12.297zm104.951 82.623v-13.78a1.35 1.35 0 00-1.35-1.35h-13.65v-16.05h21.15a1.35 1.35 0 001.35-1.355v-15a1.35 1.35 0 00-1.35-1.35h-21.15V33.745a1.35 1.35 0 00-1.35-1.35H61.364V20.106h54.911a1.35 1.35 0 001.347-1.353v-15c0-.747-.604-1.35-1.347-1.35H3.775a1.35 1.35 0 00-1.35 1.35v15c0 .75.604 1.353 1.35 1.353h54.89v12.29H26.222c-.742 0-1.35.603-1.35 1.35V51.14H3.723c-.742 0-1.35.604-1.35 1.35v15c0 .75.607 1.354 1.35 1.354h21.15v16.05h-13.65c-.743 0-1.35.604-1.35 1.35v13.789c-4.211.679-7.451 4.312-7.451 8.711 0 4.883 3.971 8.854 8.85 8.854s8.85-3.971 8.85-8.854c0-4.432-3.289-8.081-7.549-8.719V87.6h27.3v12.435c-4.211.679-7.451 4.312-7.451 8.711 0 4.883 3.971 8.854 8.85 8.854s8.85-3.971 8.85-8.854c0-4.432-3.289-8.081-7.549-8.719v-13.78a1.35 1.35 0 00-1.35-1.35h-13.65v-16.05h21.15a1.35 1.35 0 001.35-1.355v-15a1.35 1.35 0 00-1.35-1.35h-21.15V35.1h64.8v16.04h-21.15c-.742 0-1.35.604-1.35 1.35v15c0 .75.608 1.354 1.35 1.354h21.15v16.05h-13.65c-.742 0-1.35.604-1.35 1.35v13.793c-4.208.678-7.444 4.308-7.444 8.707 0 4.883 3.971 8.854 8.85 8.854s8.85-3.971 8.85-8.854c0-4.436-3.292-8.089-7.556-8.719V87.6h27.3v12.439c-4.211.678-7.448 4.308-7.448 8.707 0 4.883 3.972 8.854 8.85 8.854 4.88 0 8.85-3.971 8.85-8.854 0-4.432-3.292-8.085-7.552-8.719z" fill="url(#f)" transform="translate(312 297)"/><g><path fill="#FFF" d="M680 417h120V297H680z"/><path d="M105 110.903H61.594V80.348H78.09L92.621 94.88c.3.3.705.47 1.129.47h17.156V105a5.912 5.912 0 01-5.906 5.902zm-95.906-5.902v-9.653H26.25c.424 0 .829-.168 1.129-.469L41.91 80.35h16.496v30.554H15a5.912 5.912 0 01-5.906-5.902zm0-46.598V27.848H25.59l14.066 14.063v16.492H9.094zm30.562 3.195v16.493L25.59 92.153H9.094V61.598h30.562zM15 9.098h43.406v30.555H41.91L27.379 25.122c-.3-.3-.705-.469-1.129-.469H9.094v-9.652A5.912 5.912 0 0115 9.098zm27.844 68.055h34.309V42.848h-34.31v34.305zm37.5-18.75V41.911L94.41 27.848h16.496v30.555H80.344zm0 3.195h30.562v30.555H94.41L80.344 78.091V61.598zm30.562-46.597v9.652H93.75c-.424 0-.829.169-1.129.469L78.09 39.653H61.594V9.098H105a5.912 5.912 0 015.906 5.903zM105 5.903H15c-5.014 0-9.094 4.084-9.094 9.098v90c0 5.013 4.08 9.097 9.094 9.097h90c5.014 0 9.094-4.084 9.094-9.097V15c0-5.014-4.08-9.098-9.094-9.098z" fill="url(#g)" transform="translate(680 297)"/></g><g><path d="M128 417h120V297H128z"/><path d="M53.28 28.378h13.44l6.72-11.64-6.72-11.636H53.28l-6.72 11.636 6.72 11.64zm-10.86 21.51l-2.34-1.346 10.86-18.814-7.11-12.315c-.24-.416-.24-.93 0-1.346l7.5-12.99a1.36 1.36 0 011.17-.68h15c.48 0 .93.263 1.17.68l7.5 12.99c.24.416.24.93 0 1.346l-7.5 12.99a1.36 1.36 0 01-1.17.678H53.28L42.42 49.888zm48.323.123h13.44l6.723-11.64-6.724-11.64h-13.44l-6.72 11.64 6.72 11.64zm14.22 2.7h-15a1.35 1.35 0 01-1.167-.675l-7.114-12.315h-21.72v-2.7h21.72l7.11-12.315c.244-.42.69-.678 1.17-.678h15c.484 0 .93.259 1.17.678l7.5 12.99c.24.42.24.93 0 1.35l-7.5 12.99a1.35 1.35 0 01-1.17.675zm-89.145-2.7h13.44l6.72-11.64-6.72-11.64h-13.44l-6.724 11.64 6.724 11.64zm24.3 21.51l-10.86-18.81h-14.22a1.35 1.35 0 01-1.17-.675l-7.5-12.99c-.24-.42-.24-.93 0-1.35l7.5-12.99c.24-.42.686-.678 1.17-.678h15c.48 0 .926.259 1.17.678l7.5 12.99c.24.42.24.93-.004 1.35l-7.11 12.316 10.864 18.813-2.34 1.347zm-24.3 21.75h13.44l6.72-11.643-6.72-11.636h-13.44L9.094 81.627l6.724 11.644zm14.22 2.7h-15a1.35 1.35 0 01-1.17-.675l-7.5-12.993c-.24-.416-.24-.93 0-1.346l7.5-12.99c.24-.42.686-.68 1.17-.68h15c.48 0 .926.26 1.166.68l7.114 12.31h21.72v2.704h-21.72l-7.11 12.316a1.36 1.36 0 01-1.17.675zm60.705-2.7h13.44l6.723-11.643-6.724-11.636h-13.44l-6.72 11.636 6.72 11.644zm14.22 2.7h-15a1.36 1.36 0 01-1.17-.675l-7.5-12.993a1.34 1.34 0 01.003-1.346l7.11-12.32-10.864-18.81 2.34-1.35 10.86 18.81h14.22c.484 0 .93.26 1.17.68l7.5 12.99c.24.416.24.93 0 1.346l-7.5 12.993a1.35 1.35 0 01-1.17.675zM53.28 114.899h13.44l6.72-11.636-6.72-11.64H53.28l-6.72 11.64 6.72 11.636zm14.22 2.704h-15c-.48 0-.93-.26-1.17-.68l-7.5-12.99c-.24-.416-.24-.93 0-1.346l7.5-12.99c.24-.416.69-.675 1.17-.675h14.22l10.86-18.81 2.34 1.347-10.86 18.814 7.11 12.314c.24.417.24.93 0 1.347l-7.5 12.99c-.24.42-.69.678-1.17.678z" fill="url(#h)" transform="translate(128 297)"/></g></g></svg>