<svg width="289" height="289" viewBox="0 0 289 289" fill="none" xmlns="http://www.w3.org/2000/svg">
<rect width="288" height="288" transform="translate(0.931641 0.933594)" fill="white"/>
<rect x="161.432" y="161.434" width="71" height="71" fill="url(#paint0_linear_1663_85989)" stroke="#393939"/>
<rect x="161.432" y="54.4336" width="71" height="71" fill="#A6C8FF" stroke="#393939"/>
<circle cx="87.9316" cy="196.934" r="41.5" fill="url(#paint1_linear_1663_85989)" stroke="#393939"/>
<circle cx="87.9316" cy="89.9336" r="41.5" fill="#A7F0BA" stroke="#393939"/>
<rect width="48" height="48" transform="translate(172.932 172.934)" fill="white" fill-opacity="0.01" style="mix-blend-mode:multiply"/>
<path d="M213.88 215.321C212.901 215.321 211.909 215.088 210.99 214.595C208.687 213.36 207.447 210.815 207.901 208.265L210.148 196.046C210.187 195.836 210.346 195.669 210.553 195.618C210.762 195.569 210.978 195.644 211.108 195.812L218.739 205.683C220.177 207.566 220.369 210.116 219.231 212.184C218.13 214.185 216.037 215.321 213.88 215.321ZM210.993 197.429L208.99 208.323C208.989 208.326 208.965 208.455 208.963 208.458C208.591 210.545 209.61 212.628 211.498 213.642C213.925 214.944 216.967 214.056 218.283 211.664C219.216 209.97 219.058 207.882 217.879 206.342L210.993 197.429ZM194.848 211.191C193.588 211.191 192.324 210.878 191.17 210.243C188.638 208.854 187.15 206.211 187.287 203.346C187.296 203.16 187.399 202.992 187.563 202.901C187.726 202.812 187.923 202.811 188.086 202.899L199.095 208.944C199.26 209.036 199.366 209.204 199.375 209.393C199.384 209.58 199.294 209.759 199.14 209.864C197.841 210.747 196.347 211.191 194.848 211.191ZM188.385 204.296C188.577 206.39 189.79 208.254 191.691 209.297C193.591 210.341 195.838 210.377 197.74 209.433L188.385 204.296ZM201.165 207.303C201.076 207.303 200.988 207.281 200.905 207.236L188.62 200.492C188.494 200.423 188.401 200.306 188.361 200.166C188.32 200.027 188.338 199.88 188.41 199.754L190.126 196.707C190.27 196.451 190.594 196.358 190.857 196.499L203.14 203.243C203.268 203.312 203.359 203.429 203.4 203.568C203.44 203.706 203.424 203.855 203.352 203.981L201.636 207.027C201.537 207.204 201.354 207.303 201.165 207.303ZM189.619 199.808L200.958 206.031L202.143 203.927L190.804 197.703L189.619 199.808ZM204.573 201.252C204.484 201.252 204.396 201.23 204.313 201.185L192.028 194.439C191.902 194.37 191.809 194.253 191.769 194.114C191.73 193.976 191.746 193.827 191.818 193.701L193.534 190.655C193.68 190.398 194.002 190.302 194.265 190.446L206.548 197.19C206.676 197.259 206.767 197.376 206.808 197.516C206.848 197.654 206.832 197.802 206.76 197.928L205.044 200.975C204.945 201.152 204.762 201.252 204.573 201.252ZM193.026 193.755L204.364 199.98L205.549 197.876L194.212 191.651L193.026 193.755ZM179.973 196.701C178.942 196.701 177.909 196.443 176.97 195.915C175.551 195.119 174.534 193.823 174.106 192.266C173.682 190.722 173.889 189.107 174.69 187.715C175.864 185.673 178.161 184.49 180.528 184.704L193.047 185.894C193.26 185.915 193.441 186.059 193.509 186.263C193.576 186.467 193.516 186.692 193.356 186.834L184.135 195.074C184.134 195.075 184.035 195.164 184.032 195.165C182.886 196.179 181.435 196.701 179.973 196.701ZM179.977 185.76C178.191 185.76 176.517 186.707 175.626 188.255C174.969 189.393 174.799 190.716 175.147 191.979C175.498 193.256 176.334 194.319 177.499 194.973C179.373 196.028 181.711 195.78 183.313 194.358L191.715 186.852L180.427 185.78C180.277 185.766 180.126 185.76 179.977 185.76ZM207.343 194.849C207.253 194.849 207.165 194.826 207.084 194.783L196.072 188.738C195.907 188.648 195.802 188.478 195.793 188.291C195.784 188.103 195.873 187.923 196.029 187.818C198.412 186.197 201.466 186.05 203.997 187.44C206.529 188.831 208.018 191.472 207.882 194.336C207.873 194.522 207.769 194.69 207.606 194.781C207.525 194.826 207.435 194.849 207.343 194.849ZM197.428 188.249L206.784 193.386C206.592 191.294 205.378 189.429 203.479 188.385C201.579 187.344 199.333 187.308 197.428 188.249ZM210.156 188.981C209.662 188.981 209.163 188.861 208.701 188.607C207.996 188.222 207.486 187.584 207.267 186.816C207.049 186.053 207.144 185.252 207.535 184.557C208.341 183.129 210.169 182.61 211.62 183.405C212.325 183.792 212.835 184.428 213.054 185.198C213.271 185.96 213.177 186.761 212.785 187.454C212.238 188.43 211.213 188.981 210.156 188.981ZM210.163 184.112C209.485 184.112 208.827 184.464 208.476 185.088C208.228 185.528 208.168 186.036 208.306 186.521C208.447 187.01 208.773 187.415 209.221 187.661C210.154 188.175 211.329 187.842 211.845 186.926C212.092 186.486 212.152 185.978 212.014 185.495C211.875 185.006 211.549 184.601 211.099 184.353C210.802 184.19 210.48 184.112 210.163 184.112ZM201.982 184.494C201.49 184.494 200.991 184.374 200.53 184.121C199.824 183.734 199.314 183.098 199.095 182.33C198.877 181.566 198.972 180.765 199.363 180.071C200.169 178.641 202.002 178.124 203.448 178.919C204.154 179.306 204.664 179.943 204.883 180.711C205.101 181.475 205.005 182.276 204.615 182.967C204.066 183.944 203.038 184.494 201.982 184.494ZM201.991 179.625C201.313 179.625 200.655 179.978 200.304 180.602C200.056 181.041 199.996 181.55 200.134 182.034C200.275 182.523 200.601 182.928 201.049 183.176C201.984 183.687 203.158 183.356 203.674 182.439C203.922 182.001 203.982 181.493 203.844 181.01C203.703 180.521 203.377 180.114 202.929 179.867C202.632 179.703 202.309 179.625 201.991 179.625Z" fill="#393939"/>
<rect width="48" height="48" transform="translate(172.932 65.9336)" fill="white" fill-opacity="0.01" style="mix-blend-mode:multiply"/>
<path d="M213.88 108.321C212.901 108.321 211.909 108.088 210.99 107.595C208.687 106.36 207.447 103.815 207.901 101.265L210.148 89.0455C210.187 88.8355 210.346 88.669 210.553 88.618C210.762 88.5685 210.978 88.6435 211.108 88.8115L218.739 98.683C220.177 100.566 220.369 103.116 219.231 105.184C218.13 107.185 216.037 108.321 213.88 108.321ZM210.993 90.4285L208.99 101.323C208.989 101.326 208.965 101.455 208.963 101.458C208.591 103.545 209.61 105.628 211.498 106.642C213.925 107.944 216.967 107.056 218.283 104.664C219.216 102.97 219.058 100.882 217.879 99.3415L210.993 90.4285ZM194.848 104.191C193.588 104.191 192.324 103.878 191.17 103.243C188.638 101.854 187.15 99.211 187.287 96.346C187.296 96.16 187.399 95.992 187.563 95.9005C187.726 95.812 187.923 95.8105 188.086 95.899L199.095 101.944C199.26 102.036 199.366 102.204 199.375 102.393C199.384 102.58 199.294 102.759 199.14 102.864C197.841 103.747 196.347 104.191 194.848 104.191ZM188.385 97.2955C188.577 99.3895 189.79 101.254 191.691 102.297C193.591 103.341 195.838 103.377 197.74 102.433L188.385 97.2955ZM201.165 100.303C201.076 100.303 200.988 100.281 200.905 100.236L188.62 93.4915C188.494 93.4225 188.401 93.3055 188.361 93.166C188.32 93.0265 188.338 92.8795 188.41 92.7535L190.126 89.707C190.27 89.4505 190.594 89.3575 190.857 89.4985L203.14 96.2425C203.268 96.3115 203.359 96.4285 203.4 96.568C203.44 96.706 203.424 96.8545 203.352 96.9805L201.636 100.027C201.537 100.204 201.354 100.303 201.165 100.303ZM189.619 92.8075L200.958 99.031L202.143 96.9265L190.804 90.703L189.619 92.8075ZM204.573 94.252C204.484 94.252 204.396 94.2295 204.313 94.1845L192.028 87.439C191.902 87.37 191.809 87.253 191.769 87.1135C191.73 86.9755 191.746 86.827 191.818 86.701L193.534 83.6545C193.68 83.398 194.002 83.302 194.265 83.446L206.548 90.19C206.676 90.259 206.767 90.376 206.808 90.5155C206.848 90.6535 206.832 90.802 206.76 90.928L205.044 93.9745C204.945 94.1515 204.762 94.252 204.573 94.252ZM193.026 86.755L204.364 92.98L205.549 90.8755L194.212 84.6505L193.026 86.755ZM179.973 89.701C178.942 89.701 177.909 89.443 176.97 88.915C175.551 88.1185 174.534 86.8225 174.106 85.2655C173.682 83.722 173.889 82.1065 174.69 80.7145C175.864 78.673 178.161 77.4895 180.528 77.704L193.047 78.8935C193.26 78.9145 193.441 79.0585 193.509 79.2625C193.576 79.4665 193.516 79.6915 193.356 79.834L184.135 88.0735C184.134 88.075 184.035 88.1635 184.032 88.165C182.886 89.179 181.435 89.701 179.973 89.701ZM179.977 78.76C178.191 78.76 176.517 79.7065 175.626 81.2545C174.969 82.393 174.799 83.716 175.147 84.979C175.498 86.2555 176.334 87.319 177.499 87.973C179.373 89.0275 181.711 88.78 183.313 87.358L191.715 79.852L180.427 78.7795C180.277 78.766 180.126 78.76 179.977 78.76ZM207.343 87.8485C207.253 87.8485 207.165 87.826 207.084 87.7825L196.072 81.7375C195.907 81.6475 195.802 81.478 195.793 81.2905C195.784 81.103 195.873 80.923 196.029 80.818C198.412 79.1965 201.466 79.0495 203.997 80.44C206.529 81.8305 208.018 84.472 207.882 87.3355C207.873 87.5215 207.769 87.6895 207.606 87.781C207.525 87.826 207.435 87.8485 207.343 87.8485ZM197.428 81.2485L206.784 86.386C206.592 84.2935 205.378 82.429 203.479 81.385C201.579 80.344 199.333 80.308 197.428 81.2485ZM210.156 81.9805C209.662 81.9805 209.163 81.8605 208.701 81.607C207.996 81.2215 207.486 80.584 207.267 79.816C207.049 79.0525 207.144 78.2515 207.535 77.557C208.341 76.129 210.169 75.61 211.62 76.405C212.325 76.792 212.835 77.428 213.054 78.1975C213.271 78.9595 213.177 79.7605 212.785 80.4535C212.238 81.43 211.213 81.9805 210.156 81.9805ZM210.163 77.1115C209.485 77.1115 208.827 77.464 208.476 78.088C208.228 78.5275 208.168 79.036 208.306 79.5205C208.447 80.0095 208.773 80.4145 209.221 80.6605C210.154 81.175 211.329 80.842 211.845 79.9255C212.092 79.486 212.152 78.9775 212.014 78.4945C211.875 78.0055 211.549 77.6005 211.099 77.353C210.802 77.1895 210.48 77.1115 210.163 77.1115ZM201.982 77.494C201.49 77.494 200.991 77.374 200.53 77.1205C199.824 76.7335 199.314 76.0975 199.095 75.3295C198.877 74.566 198.972 73.765 199.363 73.0705C200.169 71.641 202.002 71.1235 203.448 71.9185C204.154 72.3055 204.664 72.943 204.883 73.711C205.101 74.4745 205.005 75.2755 204.615 75.967C204.066 76.9435 203.038 77.494 201.982 77.494ZM201.991 72.625C201.313 72.625 200.655 72.9775 200.304 73.6015C200.056 74.041 199.996 74.5495 200.134 75.034C200.275 75.523 200.601 75.928 201.049 76.1755C201.984 76.687 203.158 76.3555 203.674 75.439C203.922 75.001 203.982 74.4925 203.844 74.0095C203.703 73.5205 203.377 73.114 202.929 72.8665C202.632 72.703 202.309 72.625 201.991 72.625Z" fill="#393939"/>
<rect width="48" height="48" transform="translate(62.9316 172.934)" fill="white" fill-opacity="0.01" style="mix-blend-mode:multiply"/>
<path d="M103.88 215.321C102.901 215.321 101.909 215.088 100.99 214.595C98.6871 213.36 97.4466 210.815 97.9011 208.265L100.148 196.046C100.187 195.836 100.346 195.669 100.553 195.618C100.762 195.569 100.978 195.644 101.108 195.812L108.739 205.683C110.177 207.566 110.369 210.116 109.231 212.184C108.13 214.185 106.037 215.321 103.88 215.321ZM100.993 197.429L98.9901 208.323C98.9886 208.326 98.9646 208.455 98.9631 208.458C98.5911 210.545 99.6096 212.628 101.498 213.642C103.925 214.944 106.967 214.056 108.283 211.664C109.216 209.97 109.058 207.882 107.879 206.342L100.993 197.429ZM84.8481 211.191C83.5881 211.191 82.3236 210.878 81.1701 210.243C78.6381 208.854 77.1501 206.211 77.2866 203.346C77.2956 203.16 77.3991 202.992 77.5626 202.901C77.7261 202.812 77.9226 202.811 78.0861 202.899L89.0946 208.944C89.2596 209.036 89.3661 209.204 89.3751 209.393C89.3841 209.58 89.2941 209.759 89.1396 209.864C87.8406 210.747 86.3466 211.191 84.8481 211.191ZM78.3846 204.296C78.5766 206.39 79.7901 208.254 81.6906 209.297C83.5911 210.341 85.8381 210.377 87.7401 209.433L78.3846 204.296ZM91.1646 207.303C91.0761 207.303 90.9876 207.281 90.9051 207.236L78.6201 200.492C78.4941 200.423 78.4011 200.306 78.3606 200.166C78.3201 200.027 78.3381 199.88 78.4101 199.754L80.1261 196.707C80.2701 196.451 80.5941 196.358 80.8566 196.499L93.1401 203.243C93.2676 203.312 93.3591 203.429 93.3996 203.568C93.4401 203.706 93.4236 203.855 93.3516 203.981L91.6356 207.027C91.5366 207.204 91.3536 207.303 91.1646 207.303ZM79.6191 199.808L90.9576 206.031L92.1426 203.927L80.8041 197.703L79.6191 199.808ZM94.5726 201.252C94.4841 201.252 94.3956 201.23 94.3131 201.185L82.0281 194.439C81.9021 194.37 81.8091 194.253 81.7686 194.114C81.7296 193.976 81.7461 193.827 81.8181 193.701L83.5341 190.655C83.6796 190.398 84.0021 190.302 84.2646 190.446L96.5481 197.19C96.6756 197.259 96.7671 197.376 96.8076 197.516C96.8481 197.654 96.8316 197.802 96.7596 197.928L95.0436 200.975C94.9446 201.152 94.7616 201.252 94.5726 201.252ZM83.0256 193.755L94.3641 199.98L95.5491 197.876L84.2121 191.651L83.0256 193.755ZM69.9726 196.701C68.9421 196.701 67.9086 196.443 66.9696 195.915C65.5506 195.119 64.5336 193.823 64.1061 192.266C63.6816 190.722 63.8886 189.107 64.6896 187.715C65.8641 185.673 68.1606 184.49 70.5276 184.704L83.0466 185.894C83.2596 185.915 83.4411 186.059 83.5086 186.263C83.5761 186.467 83.5161 186.692 83.3556 186.834L74.1351 195.074C74.1336 195.075 74.0346 195.164 74.0316 195.165C72.8856 196.179 71.4351 196.701 69.9726 196.701ZM69.9771 185.76C68.1906 185.76 66.5166 186.707 65.6256 188.255C64.9686 189.393 64.7991 190.716 65.1471 191.979C65.4981 193.256 66.3336 194.319 67.4991 194.973C69.3726 196.028 71.7111 195.78 73.3131 194.358L81.7146 186.852L70.4271 185.78C70.2771 185.766 70.1256 185.76 69.9771 185.76ZM97.3431 194.849C97.2531 194.849 97.1646 194.826 97.0836 194.783L86.0721 188.738C85.9071 188.648 85.8021 188.478 85.7931 188.291C85.7841 188.103 85.8726 187.923 86.0286 187.818C88.4121 186.197 91.4661 186.05 93.9966 187.44C96.5286 188.831 98.0181 191.472 97.8816 194.336C97.8726 194.522 97.7691 194.69 97.6056 194.781C97.5246 194.826 97.4346 194.849 97.3431 194.849ZM87.4281 188.249L96.7836 193.386C96.5916 191.294 95.3781 189.429 93.4791 188.385C91.5786 187.344 89.3331 187.308 87.4281 188.249ZM100.156 188.981C99.6621 188.981 99.1626 188.861 98.7006 188.607C97.9956 188.222 97.4856 187.584 97.2666 186.816C97.0491 186.053 97.1436 185.252 97.5351 184.557C98.3406 183.129 100.169 182.61 101.62 183.405C102.325 183.792 102.835 184.428 103.054 185.198C103.271 185.96 103.177 186.761 102.785 187.454C102.238 188.43 101.213 188.981 100.156 188.981ZM100.163 184.112C99.4851 184.112 98.8266 184.464 98.4756 185.088C98.2281 185.528 98.1681 186.036 98.3061 186.521C98.4471 187.01 98.7726 187.415 99.2211 187.661C100.154 188.175 101.329 187.842 101.845 186.926C102.092 186.486 102.152 185.978 102.014 185.495C101.875 185.006 101.549 184.601 101.099 184.353C100.802 184.19 100.48 184.112 100.163 184.112ZM91.9821 184.494C91.4901 184.494 90.9906 184.374 90.5301 184.121C89.8236 183.734 89.3136 183.098 89.0946 182.33C88.8771 181.566 88.9716 180.765 89.3631 180.071C90.1686 178.641 92.0016 178.124 93.4476 178.919C94.1541 179.306 94.6641 179.943 94.8831 180.711C95.1006 181.475 95.0046 182.276 94.6146 182.967C94.0656 183.944 93.0381 184.494 91.9821 184.494ZM91.9911 179.625C91.3131 179.625 90.6546 179.978 90.3036 180.602C90.0561 181.041 89.9961 181.55 90.1341 182.034C90.2751 182.523 90.6006 182.928 91.0491 183.176C91.9836 183.687 93.1581 183.356 93.6741 182.439C93.9216 182.001 93.9816 181.493 93.8436 181.01C93.7026 180.521 93.3771 180.114 92.9286 179.867C92.6316 179.703 92.3091 179.625 91.9911 179.625Z" fill="#393939"/>
<rect width="48" height="48" transform="translate(62.9316 65.9336)" fill="white" fill-opacity="0.01" style="mix-blend-mode:multiply"/>
<path d="M103.88 108.321C102.901 108.321 101.909 108.088 100.99 107.595C98.6871 106.36 97.4466 103.815 97.9011 101.265L100.148 89.0455C100.187 88.8355 100.346 88.669 100.553 88.618C100.762 88.5685 100.978 88.6435 101.108 88.8115L108.739 98.683C110.177 100.566 110.369 103.116 109.231 105.184C108.13 107.185 106.037 108.321 103.88 108.321ZM100.993 90.4285L98.9901 101.323C98.9886 101.326 98.9646 101.455 98.9631 101.458C98.5911 103.545 99.6096 105.628 101.498 106.642C103.925 107.944 106.967 107.056 108.283 104.664C109.216 102.97 109.058 100.882 107.879 99.3415L100.993 90.4285ZM84.8481 104.191C83.5881 104.191 82.3236 103.878 81.1701 103.243C78.6381 101.854 77.1501 99.211 77.2866 96.346C77.2956 96.16 77.3991 95.992 77.5626 95.9005C77.7261 95.812 77.9226 95.8105 78.0861 95.899L89.0946 101.944C89.2596 102.036 89.3661 102.204 89.3751 102.393C89.3841 102.58 89.2941 102.759 89.1396 102.864C87.8406 103.747 86.3466 104.191 84.8481 104.191ZM78.3846 97.2955C78.5766 99.3895 79.7901 101.254 81.6906 102.297C83.5911 103.341 85.8381 103.377 87.7401 102.433L78.3846 97.2955ZM91.1646 100.303C91.0761 100.303 90.9876 100.281 90.9051 100.236L78.6201 93.4915C78.4941 93.4225 78.4011 93.3055 78.3606 93.166C78.3201 93.0265 78.3381 92.8795 78.4101 92.7535L80.1261 89.707C80.2701 89.4505 80.5941 89.3575 80.8566 89.4985L93.1401 96.2425C93.2676 96.3115 93.3591 96.4285 93.3996 96.568C93.4401 96.706 93.4236 96.8545 93.3516 96.9805L91.6356 100.027C91.5366 100.204 91.3536 100.303 91.1646 100.303ZM79.6191 92.8075L90.9576 99.031L92.1426 96.9265L80.8041 90.703L79.6191 92.8075ZM94.5726 94.252C94.4841 94.252 94.3956 94.2295 94.3131 94.1845L82.0281 87.439C81.9021 87.37 81.8091 87.253 81.7686 87.1135C81.7296 86.9755 81.7461 86.827 81.8181 86.701L83.5341 83.6545C83.6796 83.398 84.0021 83.302 84.2646 83.446L96.5481 90.19C96.6756 90.259 96.7671 90.376 96.8076 90.5155C96.8481 90.6535 96.8316 90.802 96.7596 90.928L95.0436 93.9745C94.9446 94.1515 94.7616 94.252 94.5726 94.252ZM83.0256 86.755L94.3641 92.98L95.5491 90.8755L84.2121 84.6505L83.0256 86.755ZM69.9726 89.701C68.9421 89.701 67.9086 89.443 66.9696 88.915C65.5506 88.1185 64.5336 86.8225 64.1061 85.2655C63.6816 83.722 63.8886 82.1065 64.6896 80.7145C65.8641 78.673 68.1606 77.4895 70.5276 77.704L83.0466 78.8935C83.2596 78.9145 83.4411 79.0585 83.5086 79.2625C83.5761 79.4665 83.5161 79.6915 83.3556 79.834L74.1351 88.0735C74.1336 88.075 74.0346 88.1635 74.0316 88.165C72.8856 89.179 71.4351 89.701 69.9726 89.701ZM69.9771 78.76C68.1906 78.76 66.5166 79.7065 65.6256 81.2545C64.9686 82.393 64.7991 83.716 65.1471 84.979C65.4981 86.2555 66.3336 87.319 67.4991 87.973C69.3726 89.0275 71.7111 88.78 73.3131 87.358L81.7146 79.852L70.4271 78.7795C70.2771 78.766 70.1256 78.76 69.9771 78.76ZM97.3431 87.8485C97.2531 87.8485 97.1646 87.826 97.0836 87.7825L86.0721 81.7375C85.9071 81.6475 85.8021 81.478 85.7931 81.2905C85.7841 81.103 85.8726 80.923 86.0286 80.818C88.4121 79.1965 91.4661 79.0495 93.9966 80.44C96.5286 81.8305 98.0181 84.472 97.8816 87.3355C97.8726 87.5215 97.7691 87.6895 97.6056 87.781C97.5246 87.826 97.4346 87.8485 97.3431 87.8485ZM87.4281 81.2485L96.7836 86.386C96.5916 84.2935 95.3781 82.429 93.4791 81.385C91.5786 80.344 89.3331 80.308 87.4281 81.2485ZM100.156 81.9805C99.6621 81.9805 99.1626 81.8605 98.7006 81.607C97.9956 81.2215 97.4856 80.584 97.2666 79.816C97.0491 79.0525 97.1436 78.2515 97.5351 77.557C98.3406 76.129 100.169 75.61 101.62 76.405C102.325 76.792 102.835 77.428 103.054 78.1975C103.271 78.9595 103.177 79.7605 102.785 80.4535C102.238 81.43 101.213 81.9805 100.156 81.9805ZM100.163 77.1115C99.4851 77.1115 98.8266 77.464 98.4756 78.088C98.2281 78.5275 98.1681 79.036 98.3061 79.5205C98.4471 80.0095 98.7726 80.4145 99.2211 80.6605C100.154 81.175 101.329 80.842 101.845 79.9255C102.092 79.486 102.152 78.9775 102.014 78.4945C101.875 78.0055 101.549 77.6005 101.099 77.353C100.802 77.1895 100.48 77.1115 100.163 77.1115ZM91.9821 77.494C91.4901 77.494 90.9906 77.374 90.5301 77.1205C89.8236 76.7335 89.3136 76.0975 89.0946 75.3295C88.8771 74.566 88.9716 73.765 89.3631 73.0705C90.1686 71.641 92.0016 71.1235 93.4476 71.9185C94.1541 72.3055 94.6641 72.943 94.8831 73.711C95.1006 74.4745 95.0046 75.2755 94.6146 75.967C94.0656 76.9435 93.0381 77.494 91.9821 77.494ZM91.9911 72.625C91.3131 72.625 90.6546 72.9775 90.3036 73.6015C90.0561 74.041 89.9961 74.5495 90.1341 75.034C90.2751 75.523 90.6006 75.928 91.0491 76.1755C91.9836 76.687 93.1581 76.3555 93.6741 75.439C93.9216 75.001 93.9816 74.4925 93.8436 74.0095C93.7026 73.5205 93.3771 73.114 92.9286 72.8665C92.6316 72.703 92.3091 72.625 91.9911 72.625Z" fill="#393939"/>
<defs>
<linearGradient id="paint0_linear_1663_85989" x1="196.932" y1="160.934" x2="196.932" y2="232.934" gradientUnits="userSpaceOnUse">
<stop stop-color="#8AB6FF"/>
<stop offset="0.369792" stop-color="#C6DBFF"/>
<stop offset="1" stop-color="white"/>
</linearGradient>
<linearGradient id="paint1_linear_1663_85989" x1="87.9316" y1="154.934" x2="87.9316" y2="238.934" gradientUnits="userSpaceOnUse">
<stop offset="0.0885417" stop-color="white"/>
<stop offset="0.729167" stop-color="#B4F2C4"/>
<stop offset="1" stop-color="#74E792"/>
</linearGradient>
</defs>
</svg>
