<?xml version="1.0" encoding="UTF-8"?>
<svg width="288px" height="288px" viewBox="0 0 288 288" version="1.1" xmlns="http://www.w3.org/2000/svg" xmlns:xlink="http://www.w3.org/1999/xlink">
    <!-- Generator: Sketch 51.2 (57519) - http://www.bohemiancoding.com/sketch -->
    <title>Padding do Copy 2</title>
    <desc>Created with Sketch.</desc>
    <defs></defs>
    <g id="Page-1" stroke="none" stroke-width="1" fill="none" fill-rule="evenodd">
        <g id="Typography_Mobile_320px-Copy-5" transform="translate(-16.000000, -1559.000000)">
            <g id="Padding-do-Copy-2" transform="translate(16.000000, 1559.000000)">
                <rect id="Rectangle-3" fill="#FFFFFF" x="0" y="0" width="288" height="288"></rect>
                <g id="Group-30" transform="translate(51.000000, 51.000000)">
                    <g id="Group-3" transform="translate(0.500000, 0.500000)">
                        <g id="Grid-01" stroke="#DCDCDC" stroke-linecap="square">
                            <g id="Vertical-lines" transform="translate(0.205100, 0.615299)">
                                <path d="M0.410199557,0 L0.410199557,183.769401" id="Line"></path>
                                <path d="M17.6385809,0 L17.6385809,183.769401" id="Line"></path>
                                <path d="M6.15299335,0 L6.15299335,183.769401" id="Line"></path>
                                <path d="M23.3813747,0 L23.3813747,183.769401" id="Line"></path>
                                <path d="M11.8957871,0 L11.8957871,183.769401" id="Line"></path>
                                <path d="M29.1241685,0 L29.1241685,183.769401" id="Line"></path>
                                <path d="M34.8669623,0 L34.8669623,183.769401" id="Line"></path>
                                <path d="M40.6097561,0 L40.6097561,183.769401" id="Line"></path>
                                <path d="M46.3525499,0 L46.3525499,183.769401" id="Line"></path>
                                <path d="M52.0953437,0 L52.0953437,183.769401" id="Line"></path>
                                <path d="M57.8381375,0 L57.8381375,183.769401" id="Line"></path>
                                <path d="M63.5809313,0 L63.5809313,183.769401" id="Line"></path>
                                <path d="M69.3237251,0 L69.3237251,183.769401" id="Line"></path>
                                <path d="M75.0665188,0 L75.0665188,183.769401" id="Line"></path>
                                <path d="M80.8093126,0 L80.8093126,183.769401" id="Line"></path>
                                <path d="M86.5521064,0 L86.5521064,183.769401" id="Line"></path>
                                <path d="M92.2949002,0 L92.2949002,183.769401" id="Line"></path>
                                <path d="M98.037694,0 L98.037694,183.769401" id="Line"></path>
                                <path d="M103.780488,0 L103.780488,183.769401" id="Line"></path>
                                <path d="M109.523282,0 L109.523282,183.769401" id="Line"></path>
                                <path d="M115.266075,0 L115.266075,183.769401" id="Line"></path>
                                <path d="M121.008869,0 L121.008869,183.769401" id="Line"></path>
                                <path d="M126.751663,0 L126.751663,183.769401" id="Line"></path>
                                <path d="M132.494457,0 L132.494457,183.769401" id="Line"></path>
                                <path d="M138.237251,0 L138.237251,183.769401" id="Line"></path>
                                <path d="M143.980044,0 L143.980044,183.769401" id="Line"></path>
                                <path d="M149.722838,0 L149.722838,183.769401" id="Line"></path>
                                <path d="M155.465632,0 L155.465632,183.769401" id="Line"></path>
                                <path d="M161.208426,0 L161.208426,183.769401" id="Line"></path>
                                <path d="M166.95122,0 L166.95122,183.769401" id="Line"></path>
                                <path d="M172.694013,0 L172.694013,183.769401" id="Line"></path>
                                <path d="M178.436807,0 L178.436807,183.769401" id="Line"></path>
                                <path d="M184.179601,0 L184.179601,183.769401" id="Line"></path>
                            </g>
                            <g id="Horizontal" transform="translate(92.384701, 92.705100) rotate(90.000000) translate(-92.384701, -92.705100) translate(-0.115299, 0.705100)">
                                <path d="M0.410199557,0 L0.410199557,183.769401" id="Line"></path>
                                <path d="M17.6385809,0 L17.6385809,183.769401" id="Line"></path>
                                <path d="M6.15299335,0 L6.15299335,183.769401" id="Line"></path>
                                <path d="M23.3813747,0 L23.3813747,183.769401" id="Line"></path>
                                <path d="M11.8957871,0 L11.8957871,183.769401" id="Line"></path>
                                <path d="M29.1241685,0 L29.1241685,183.769401" id="Line"></path>
                                <path d="M34.8669623,0 L34.8669623,183.769401" id="Line"></path>
                                <path d="M40.6097561,0 L40.6097561,183.769401" id="Line"></path>
                                <path d="M46.3525499,0 L46.3525499,183.769401" id="Line"></path>
                                <path d="M52.0953437,0 L52.0953437,183.769401" id="Line"></path>
                                <path d="M57.8381375,0 L57.8381375,183.769401" id="Line"></path>
                                <path d="M63.5809313,0 L63.5809313,183.769401" id="Line"></path>
                                <path d="M69.3237251,0 L69.3237251,183.769401" id="Line"></path>
                                <path d="M75.0665188,0 L75.0665188,183.769401" id="Line"></path>
                                <path d="M80.8093126,0 L80.8093126,183.769401" id="Line"></path>
                                <path d="M86.5521064,0 L86.5521064,183.769401" id="Line"></path>
                                <path d="M92.2949002,0 L92.2949002,183.769401" id="Line"></path>
                                <path d="M98.037694,0 L98.037694,183.769401" id="Line"></path>
                                <path d="M103.780488,0 L103.780488,183.769401" id="Line"></path>
                                <path d="M109.523282,0 L109.523282,183.769401" id="Line"></path>
                                <path d="M115.266075,0 L115.266075,183.769401" id="Line"></path>
                                <path d="M121.008869,0 L121.008869,183.769401" id="Line"></path>
                                <path d="M126.751663,0 L126.751663,183.769401" id="Line"></path>
                                <path d="M132.494457,0 L132.494457,183.769401" id="Line"></path>
                                <path d="M138.237251,0 L138.237251,183.769401" id="Line"></path>
                                <path d="M143.980044,0 L143.980044,183.769401" id="Line"></path>
                                <path d="M149.722838,0 L149.722838,183.769401" id="Line"></path>
                                <path d="M155.465632,0 L155.465632,183.769401" id="Line"></path>
                                <path d="M161.208426,0 L161.208426,183.769401" id="Line"></path>
                                <path d="M166.95122,0 L166.95122,183.769401" id="Line"></path>
                                <path d="M172.694013,0 L172.694013,183.769401" id="Line"></path>
                                <path d="M178.436807,0 L178.436807,183.769401" id="Line"></path>
                                <path d="M184.179601,0 L184.179601,183.769401" id="Line"></path>
                            </g>
                        </g>
                        <path d="M172.694013,12.3059867 L12.3059867,12.3059867 L12.3059867,172.694013 L172.694013,172.694013 L172.694013,12.3059867 Z M184.5898,12.3059867 L184.5898,172.694013 L184.5898,184.5898 L0.410199557,184.5898 L0.410199557,172.694013 L0.410199557,12.3059867 L0.410199557,0.410199557 L184.5898,0.410199557 L184.5898,12.3059867 Z" id="Combined-Shape" fill="#DCDCDC" opacity="0.4"></path>
                    </g>
                    <g id="icon/navigation/down-to-bottom/24-copy-13" transform="translate(1.000000, 1.000000)">
                        <g id="Group">
                            <rect id="transparent-rectangle" x="0" y="0" width="184" height="184"></rect>
                        </g>
                    </g>
                </g>
                <ellipse id="Oval-3" stroke="#97C1FF" stroke-width="1.25" cx="144.1" cy="144.100976" rx="80.1" ry="80.1009763"></ellipse>
                <rect id="Rectangle-7" stroke="#97C1FF" stroke-width="1.25" x="63.625" y="86.625" width="160.75" height="114.600815"></rect>
                <path d="M201.375,63.625 L86.625,63.625 L86.625,224.375 L201.375,224.375 L201.375,63.625 Z" id="Rectangle-7" stroke="#97C1FF" stroke-width="1.25"></path>
                <path d="M75.625,75.625 L75.625,212.6284 L212.625,212.6284 L212.625,75.625 L75.625,75.625 Z" id="Rectangle-7" stroke="#97C1FF" stroke-width="1.25"></path>
            </g>
        </g>
    </g>
</svg>