<svg xmlns="http://www.w3.org/2000/svg" viewBox="0 0 928 304"><g fill="none" fill-rule="evenodd"><path fill="#FFF" d="M0 0h928v304H0z"/><path d="M70.84 88v-8.848h-9.884V88h-2.352V68.456h2.352v8.624h9.884v-8.624h2.352V88H70.84zm12.796.336c-3.864 0-6.524-2.968-6.524-7.56s2.66-7.56 6.524-7.56 6.524 2.968 6.524 7.56-2.66 7.56-6.524 7.56zm0-1.988c2.408 0 4.116-1.484 4.116-4.536V79.74c0-3.052-1.708-4.536-4.116-4.536-2.408 0-4.116 1.484-4.116 4.536v2.072c0 3.052 1.708 4.536 4.116 4.536zM96.068 88l-3.864-14.448h2.184l1.54 6.244 1.54 6.328h.056l1.764-6.328 1.82-6.244h1.988l1.876 6.244 1.792 6.328h.056l1.484-6.328 1.568-6.244h2.1L108.136 88h-2.772l-2.016-6.944-1.26-4.396h-.056l-1.232 4.396L98.784 88h-2.716zm31.136.336c-4.06 0-6.44-2.94-6.44-7.56 0-4.62 2.38-7.56 6.44-7.56 2.856 0 4.564 1.4 5.404 3.388l-1.876.952c-.532-1.484-1.764-2.352-3.528-2.352-2.66 0-4.032 1.82-4.032 4.34v2.464c0 2.52 1.372 4.34 4.032 4.34 1.82 0 3.136-.868 3.92-2.52l1.624 1.092c-.924 2.072-2.8 3.416-5.544 3.416zM147.672 88h-1.26c-1.652 0-2.324-1.008-2.492-2.352h-.14c-.616 1.764-2.156 2.688-4.172 2.688-3.052 0-4.844-1.68-4.844-4.368 0-2.716 1.96-4.228 6.16-4.228h2.856v-1.428c0-2.044-1.12-3.164-3.416-3.164-1.736 0-2.884.84-3.668 2.156l-1.344-1.26c.784-1.54 2.52-2.828 5.124-2.828 3.472 0 5.544 1.82 5.544 4.872v7.952h1.652V88zm-7.7-1.568c2.212 0 3.808-1.148 3.808-2.632v-2.38h-2.968c-2.548 0-3.696.784-3.696 2.184v.588c0 1.428 1.12 2.24 2.856 2.24zM153.104 88h-2.24V73.552h2.24v2.352h.112c.7-1.624 1.932-2.688 4.088-2.688 2.968 0 4.844 2.016 4.844 5.516V88h-2.24v-8.876c0-2.576-1.12-3.892-3.276-3.892-1.792 0-3.528.896-3.528 2.744V88zm25.732.336c-3.864 0-6.524-2.968-6.524-7.56s2.66-7.56 6.524-7.56 6.524 2.968 6.524 7.56-2.66 7.56-6.524 7.56zm0-1.988c2.408 0 4.116-1.484 4.116-4.536V79.74c0-3.052-1.708-4.536-4.116-4.536-2.408 0-4.116 1.484-4.116 4.536v2.072c0 3.052 1.708 4.536 4.116 4.536zM191.296 88h-2.24V73.552h2.24v2.66h.14c.504-1.372 1.82-2.66 4.172-2.66h.868v2.24h-1.316c-2.408 0-3.864 1.036-3.864 2.408V88zm19.572 1.596c0 2.968-2.352 4.34-7 4.34-4.508 0-6.356-1.288-6.356-3.556 0-1.568.868-2.408 2.296-2.8v-.308c-.812-.392-1.288-1.036-1.288-2.016 0-1.456 1.036-2.156 2.492-2.52v-.112c-1.708-.812-2.716-2.408-2.716-4.424 0-2.94 2.156-4.984 5.432-4.984 1.036 0 1.96.196 2.744.56v-.252c0-1.12.476-1.932 1.68-1.932h2.156v1.96h-2.744v.924c1.036.896 1.652 2.184 1.652 3.724 0 2.94-2.156 4.984-5.46 4.984-.476 0-.98-.056-1.4-.14-.952.252-1.904.728-1.904 1.624 0 .868.896 1.092 2.212 1.092h3.08c3.584 0 5.124 1.456 5.124 3.836zm-2.1.168c0-1.148-.756-1.904-2.996-1.904h-4.816c-.924.42-1.344 1.064-1.344 1.96 0 1.26.868 2.296 3.136 2.296h2.072c2.492 0 3.948-.784 3.948-2.352zm-5.012-8.372c1.904 0 3.108-.896 3.108-2.8v-.784c0-1.904-1.204-2.8-3.108-2.8-1.904 0-3.108.896-3.108 2.8v.784c0 1.904 1.204 2.8 3.108 2.8zM225.148 88h-1.26c-1.652 0-2.324-1.008-2.492-2.352h-.14c-.616 1.764-2.156 2.688-4.172 2.688-3.052 0-4.844-1.68-4.844-4.368 0-2.716 1.96-4.228 6.16-4.228h2.856v-1.428c0-2.044-1.12-3.164-3.416-3.164-1.736 0-2.884.84-3.668 2.156l-1.344-1.26c.784-1.54 2.52-2.828 5.124-2.828 3.472 0 5.544 1.82 5.544 4.872v7.952h1.652V88zm-7.7-1.568c2.212 0 3.808-1.148 3.808-2.632v-2.38h-2.968c-2.548 0-3.696.784-3.696 2.184v.588c0 1.428 1.12 2.24 2.856 2.24zM230.58 88h-2.24V73.552h2.24v2.352h.112c.7-1.624 1.932-2.688 4.088-2.688 2.968 0 4.844 2.016 4.844 5.516V88h-2.24v-8.876c0-2.576-1.12-3.892-3.276-3.892-1.792 0-3.528.896-3.528 2.744V88zm14.784-17.836c-.952 0-1.372-.504-1.372-1.26v-.364c0-.756.42-1.26 1.372-1.26.952 0 1.372.504 1.372 1.26v.364c0 .756-.42 1.26-1.372 1.26zM244.244 88V73.552h2.24V88h-2.24zm16.688 0h-11.144v-1.876l8.204-10.612h-7.952v-1.96h10.668v1.68l-8.372 10.808h8.596V88zm15.064 0h-1.26c-1.652 0-2.324-1.008-2.492-2.352h-.14c-.616 1.764-2.156 2.688-4.172 2.688-3.052 0-4.844-1.68-4.844-4.368 0-2.716 1.96-4.228 6.16-4.228h2.856v-1.428c0-2.044-1.12-3.164-3.416-3.164-1.736 0-2.884.84-3.668 2.156l-1.344-1.26c.784-1.54 2.52-2.828 5.124-2.828 3.472 0 5.544 1.82 5.544 4.872v7.952h1.652V88zm-7.7-1.568c2.212 0 3.808-1.148 3.808-2.632v-2.38h-2.968c-2.548 0-3.696.784-3.696 2.184v.588c0 1.428 1.12 2.24 2.856 2.24zM285.18 88h-2.8c-1.54 0-2.38-.98-2.38-2.38V75.512h-2.38v-1.96h1.344c.952 0 1.26-.336 1.26-1.316v-2.688h2.016v4.004h3.164v1.96h-3.164V86.04h2.94V88zm4.956-17.836c-.952 0-1.372-.504-1.372-1.26v-.364c0-.756.42-1.26 1.372-1.26.952 0 1.372.504 1.372 1.26v.364c0 .756-.42 1.26-1.372 1.26zM289.016 88V73.552h2.24V88h-2.24zm12.46.336c-3.864 0-6.524-2.968-6.524-7.56s2.66-7.56 6.524-7.56S308 76.184 308 80.776s-2.66 7.56-6.524 7.56zm0-1.988c2.408 0 4.116-1.484 4.116-4.536V79.74c0-3.052-1.708-4.536-4.116-4.536-2.408 0-4.116 1.484-4.116 4.536v2.072c0 3.052 1.708 4.536 4.116 4.536zM313.936 88h-2.24V73.552h2.24v2.352h.112c.7-1.624 1.932-2.688 4.088-2.688 2.968 0 4.844 2.016 4.844 5.516V88h-2.24v-8.876c0-2.576-1.12-3.892-3.276-3.892-1.792 0-3.528.896-3.528 2.744V88zm18.004.336c-2.66 0-4.424-1.12-5.712-2.828l1.596-1.288c1.12 1.4 2.464 2.212 4.284 2.212 1.904 0 3.024-.868 3.024-2.352 0-1.12-.616-1.988-2.52-2.268l-1.148-.168c-2.66-.392-4.648-1.484-4.648-4.172 0-2.856 2.212-4.256 5.152-4.256 2.324 0 3.864.868 5.04 2.324l-1.484 1.344c-.644-.896-1.876-1.764-3.724-1.764-1.848 0-2.828.868-2.828 2.24 0 1.4.98 1.96 2.772 2.24l1.12.168c3.192.476 4.424 1.876 4.424 4.06 0 2.8-2.044 4.508-5.348 4.508zm25.928 0c-3.864 0-6.524-2.968-6.524-7.56s2.66-7.56 6.524-7.56 6.524 2.968 6.524 7.56-2.66 7.56-6.524 7.56zm0-1.988c2.408 0 4.116-1.484 4.116-4.536V79.74c0-3.052-1.708-4.536-4.116-4.536-2.408 0-4.116 1.484-4.116 4.536v2.072c0 3.052 1.708 4.536 4.116 4.536zM368.704 88V75.512h-2.352v-1.96h2.352V70.64c0-1.988 1.036-3.36 3.164-3.36h2.184v1.96h-3.108v4.312h3.108v1.96h-3.108V88h-2.24zm26.656 0h-1.26c-1.652 0-2.324-1.008-2.492-2.352h-.14c-.616 1.764-2.156 2.688-4.172 2.688-3.052 0-4.844-1.68-4.844-4.368 0-2.716 1.96-4.228 6.16-4.228h2.856v-1.428c0-2.044-1.12-3.164-3.416-3.164-1.736 0-2.884.84-3.668 2.156l-1.344-1.26c.784-1.54 2.52-2.828 5.124-2.828 3.472 0 5.544 1.82 5.544 4.872v7.952h1.652V88zm-7.7-1.568c2.212 0 3.808-1.148 3.808-2.632v-2.38H388.5c-2.548 0-3.696.784-3.696 2.184v.588c0 1.428 1.12 2.24 2.856 2.24zM400.792 88h-2.24V73.552h2.24v2.352h.112c.7-1.624 1.932-2.688 4.088-2.688 2.968 0 4.844 2.016 4.844 5.516V88h-2.24v-8.876c0-2.576-1.12-3.892-3.276-3.892-1.792 0-3.528.896-3.528 2.744V88zm18.844-4.62l3.5-9.828h2.212L418.88 91.36c-.644 1.736-1.232 2.24-3.36 2.24h-1.148v-1.96h2.268l1.092-3.08-5.404-15.008h2.24l3.472 9.828.672 2.352h.14l.784-2.352zm19.516 4.956c-2.66 0-4.424-1.12-5.712-2.828l1.596-1.288c1.12 1.4 2.464 2.212 4.284 2.212 1.904 0 3.024-.868 3.024-2.352 0-1.12-.616-1.988-2.52-2.268l-1.148-.168c-2.66-.392-4.648-1.484-4.648-4.172 0-2.856 2.212-4.256 5.152-4.256 2.324 0 3.864.868 5.04 2.324l-1.484 1.344c-.644-.896-1.876-1.764-3.724-1.764-1.848 0-2.828.868-2.828 2.24 0 1.4.98 1.96 2.772 2.24l1.12.168c3.192.476 4.424 1.876 4.424 4.06 0 2.8-2.044 4.508-5.348 4.508zm10.416-18.172c-.952 0-1.372-.504-1.372-1.26v-.364c0-.756.42-1.26 1.372-1.26.952 0 1.372.504 1.372 1.26v.364c0 .756-.42 1.26-1.372 1.26zM448.448 88V73.552h2.24V88h-2.24zm16.688 0h-11.144v-1.876l8.204-10.612h-7.952v-1.96h10.668v1.68L456.54 86.04h8.596V88zm8.456.336c-3.92 0-6.496-2.968-6.496-7.56s2.576-7.56 6.496-7.56c3.864 0 6.244 2.968 6.244 7.056v1.064h-10.388v.672c0 2.492 1.596 4.368 4.284 4.368 1.82 0 3.22-.896 3.976-2.492l1.596 1.148c-.924 1.96-2.996 3.304-5.712 3.304zm0-13.244c-2.436 0-4.144 1.848-4.144 4.368v.196h7.98v-.308c0-2.548-1.54-4.256-3.836-4.256zM504.504 88v-2.352h-.112c-.868 1.792-2.24 2.688-4.228 2.688-3.612 0-5.88-2.94-5.88-7.56 0-4.62 2.268-7.56 5.88-7.56 1.988 0 3.472.868 4.228 2.688h.112V67.28h2.24V88h-2.24zm-3.724-1.68c2.044 0 3.724-1.064 3.724-2.94v-5.376c0-1.596-1.68-2.772-3.724-2.772-2.52 0-4.088 1.736-4.088 4.312v2.464c0 2.576 1.568 4.312 4.088 4.312zm16.156 2.016c-3.92 0-6.496-2.968-6.496-7.56s2.576-7.56 6.496-7.56c3.864 0 6.244 2.968 6.244 7.056v1.064h-10.388v.672c0 2.492 1.596 4.368 4.284 4.368 1.82 0 3.22-.896 3.976-2.492l1.596 1.148c-.924 1.96-2.996 3.304-5.712 3.304zm0-13.244c-2.436 0-4.144 1.848-4.144 4.368v.196h7.98v-.308c0-2.548-1.54-4.256-3.836-4.256zM538.636 88h-1.26c-1.652 0-2.324-1.008-2.492-2.352h-.14c-.616 1.764-2.156 2.688-4.172 2.688-3.052 0-4.844-1.68-4.844-4.368 0-2.716 1.96-4.228 6.16-4.228h2.856v-1.428c0-2.044-1.12-3.164-3.416-3.164-1.736 0-2.884.84-3.668 2.156l-1.344-1.26c.784-1.54 2.52-2.828 5.124-2.828 3.472 0 5.544 1.82 5.544 4.872v7.952h1.652V88zm-7.7-1.568c2.212 0 3.808-1.148 3.808-2.632v-2.38h-2.968c-2.548 0-3.696.784-3.696 2.184v.588c0 1.428 1.12 2.24 2.856 2.24zM546.196 88h-1.988c-1.54 0-2.38-.98-2.38-2.324V67.28h2.24v18.76h2.128V88zm12.208 0l-3.864-14.448h2.184l1.54 6.244 1.54 6.328h.056l1.764-6.328 1.82-6.244h1.988l1.876 6.244 1.792 6.328h.056l1.484-6.328 1.568-6.244h2.1L570.472 88H567.7l-2.016-6.944-1.26-4.396h-.056l-1.232 4.396L561.12 88h-2.716zm20.272-17.836c-.952 0-1.372-.504-1.372-1.26v-.364c0-.756.42-1.26 1.372-1.26.952 0 1.372.504 1.372 1.26v.364c0 .756-.42 1.26-1.372 1.26zM577.556 88V73.552h2.24V88h-2.24zm12.992 0h-2.8c-1.54 0-2.38-.98-2.38-2.38V75.512h-2.38v-1.96h1.344c.952 0 1.26-.336 1.26-1.316v-2.688h2.016v4.004h3.164v1.96h-3.164V86.04h2.94V88zm3.836 0V67.28h2.24v8.624h.112c.7-1.624 1.932-2.688 4.088-2.688 2.968 0 4.844 2.016 4.844 5.516V88h-2.24v-8.876c0-2.576-1.12-3.892-3.276-3.892-1.792 0-3.528.896-3.528 2.744V88h-2.24zm34.272 0h-1.26c-1.652 0-2.324-1.008-2.492-2.352h-.14c-.616 1.764-2.156 2.688-4.172 2.688-3.052 0-4.844-1.68-4.844-4.368 0-2.716 1.96-4.228 6.16-4.228h2.856v-1.428c0-2.044-1.12-3.164-3.416-3.164-1.736 0-2.884.84-3.668 2.156l-1.344-1.26c.784-1.54 2.52-2.828 5.124-2.828 3.472 0 5.544 1.82 5.544 4.872v7.952h1.652V88zm-7.7-1.568c2.212 0 3.808-1.148 3.808-2.632v-2.38h-2.968c-2.548 0-3.696.784-3.696 2.184v.588c0 1.428 1.12 2.24 2.856 2.24zM647.696 88v-2.352h-.112c-.868 1.792-2.24 2.688-4.228 2.688-3.612 0-5.88-2.94-5.88-7.56 0-4.62 2.268-7.56 5.88-7.56 1.988 0 3.472.868 4.228 2.688h.112V67.28h2.24V88h-2.24zm-3.724-1.68c2.044 0 3.724-1.064 3.724-2.94v-5.376c0-1.596-1.68-2.772-3.724-2.772-2.52 0-4.088 1.736-4.088 4.312v2.464c0 2.576 1.568 4.312 4.088 4.312zm16.128-2.94l3.5-9.828h2.212l-6.468 17.808c-.644 1.736-1.232 2.24-3.36 2.24h-1.148v-1.96h2.268l1.092-3.08-5.404-15.008h2.24l3.472 9.828.672 2.352h.14l.784-2.352zM670.908 88h-2.24V73.552h2.24v2.352h.112c.7-1.624 1.932-2.688 4.088-2.688 2.968 0 4.844 2.016 4.844 5.516V88h-2.24v-8.876c0-2.576-1.12-3.892-3.276-3.892-1.792 0-3.528.896-3.528 2.744V88zm25.424 0h-1.26c-1.652 0-2.324-1.008-2.492-2.352h-.14c-.616 1.764-2.156 2.688-4.172 2.688-3.052 0-4.844-1.68-4.844-4.368 0-2.716 1.96-4.228 6.16-4.228h2.856v-1.428c0-2.044-1.12-3.164-3.416-3.164-1.736 0-2.884.84-3.668 2.156l-1.344-1.26c.784-1.54 2.52-2.828 5.124-2.828 3.472 0 5.544 1.82 5.544 4.872v7.952h1.652V88zm-7.7-1.568c2.212 0 3.808-1.148 3.808-2.632v-2.38h-2.968c-2.548 0-3.696.784-3.696 2.184v.588c0 1.428 1.12 2.24 2.856 2.24zM701.764 88h-2.24V73.552h2.24v2.352h.112c.644-1.484 1.652-2.688 3.892-2.688 1.904 0 3.64.868 4.424 2.94h.056c.532-1.568 1.932-2.94 4.396-2.94 2.94 0 4.704 2.016 4.704 5.516V88h-2.24v-8.876c0-2.548-.98-3.892-3.164-3.892-1.764 0-3.388.896-3.388 2.744V88h-2.24v-8.876c0-2.576-.98-3.892-3.108-3.892-1.764 0-3.444.896-3.444 2.744V88zm23.324-17.836c-.952 0-1.372-.504-1.372-1.26v-.364c0-.756.42-1.26 1.372-1.26.952 0 1.372.504 1.372 1.26v.364c0 .756-.42 1.26-1.372 1.26zM723.968 88V73.552h2.24V88h-2.24zm12.376.336c-4.06 0-6.44-2.94-6.44-7.56 0-4.62 2.38-7.56 6.44-7.56 2.856 0 4.564 1.4 5.404 3.388l-1.876.952c-.532-1.484-1.764-2.352-3.528-2.352-2.66 0-4.032 1.82-4.032 4.34v2.464c0 2.52 1.372 4.34 4.032 4.34 1.82 0 3.136-.868 3.92-2.52l1.624 1.092c-.924 2.072-2.8 3.416-5.544 3.416zm27.496 1.26c0 2.968-2.352 4.34-7 4.34-4.508 0-6.356-1.288-6.356-3.556 0-1.568.868-2.408 2.296-2.8v-.308c-.812-.392-1.288-1.036-1.288-2.016 0-1.456 1.036-2.156 2.492-2.52v-.112c-1.708-.812-2.716-2.408-2.716-4.424 0-2.94 2.156-4.984 5.432-4.984 1.036 0 1.96.196 2.744.56v-.252c0-1.12.476-1.932 1.68-1.932h2.156v1.96h-2.744v.924c1.036.896 1.652 2.184 1.652 3.724 0 2.94-2.156 4.984-5.46 4.984-.476 0-.98-.056-1.4-.14-.952.252-1.904.728-1.904 1.624 0 .868.896 1.092 2.212 1.092h3.08c3.584 0 5.124 1.456 5.124 3.836zm-2.1.168c0-1.148-.756-1.904-2.996-1.904h-4.816c-.924.42-1.344 1.064-1.344 1.96 0 1.26.868 2.296 3.136 2.296h2.072c2.492 0 3.948-.784 3.948-2.352zm-5.012-8.372c1.904 0 3.108-.896 3.108-2.8v-.784c0-1.904-1.204-2.8-3.108-2.8-1.904 0-3.108.896-3.108 2.8v.784c0 1.904 1.204 2.8 3.108 2.8zM770.812 88h-1.988c-1.54 0-2.38-.98-2.38-2.324V67.28h2.24v18.76h2.128V88zm8.708.336c-3.864 0-6.524-2.968-6.524-7.56s2.66-7.56 6.524-7.56 6.524 2.968 6.524 7.56-2.66 7.56-6.524 7.56zm0-1.988c2.408 0 4.116-1.484 4.116-4.536V79.74c0-3.052-1.708-4.536-4.116-4.536-2.408 0-4.116 1.484-4.116 4.536v2.072c0 3.052 1.708 4.536 4.116 4.536zM789.74 88V67.28h2.24v8.624h.112c.756-1.82 2.24-2.688 4.228-2.688 3.612 0 5.88 2.94 5.88 7.56 0 4.62-2.268 7.56-5.88 7.56-1.988 0-3.36-.896-4.228-2.688h-.112V88h-2.24zm5.964-1.68c2.52 0 4.088-1.736 4.088-4.312v-2.464c0-2.576-1.568-4.312-4.088-4.312-2.044 0-3.724 1.176-3.724 2.772v5.376c0 1.876 1.68 2.94 3.724 2.94zM817.74 88h-1.26c-1.652 0-2.324-1.008-2.492-2.352h-.14c-.616 1.764-2.156 2.688-4.172 2.688-3.052 0-4.844-1.68-4.844-4.368 0-2.716 1.96-4.228 6.16-4.228h2.856v-1.428c0-2.044-1.12-3.164-3.416-3.164-1.736 0-2.884.84-3.668 2.156l-1.344-1.26c.784-1.54 2.52-2.828 5.124-2.828 3.472 0 5.544 1.82 5.544 4.872v7.952h1.652V88zm-7.7-1.568c2.212 0 3.808-1.148 3.808-2.632v-2.38h-2.968c-2.548 0-3.696.784-3.696 2.184v.588c0 1.428 1.12 2.24 2.856 2.24zM825.3 88h-1.988c-1.54 0-2.38-.98-2.38-2.324V67.28h2.24v18.76h2.128V88zm19.824.336c-1.176 0-1.708-.672-1.708-1.624v-.364c0-.952.532-1.624 1.708-1.624s1.708.672 1.708 1.624v.364c0 .952-.532 1.624-1.708 1.624zm-7.448 0c-1.176 0-1.708-.672-1.708-1.624v-.364c0-.952.532-1.624 1.708-1.624s1.708.672 1.708 1.624v.364c0 .952-.532 1.624-1.708 1.624zm-7.42 0c-1.176 0-1.708-.672-1.708-1.624v-.364c0-.952.532-1.624 1.708-1.624s1.708.672 1.708 1.624v.364c0 .952-.532 1.624-1.708 1.624zM70.84 162v-8.848h-9.884V162h-2.352v-19.544h2.352v8.624h9.884v-8.624h2.352V162H70.84zm12.796.336c-3.864 0-6.524-2.968-6.524-7.56s2.66-7.56 6.524-7.56 6.524 2.968 6.524 7.56-2.66 7.56-6.524 7.56zm0-1.988c2.408 0 4.116-1.484 4.116-4.536v-2.072c0-3.052-1.708-4.536-4.116-4.536-2.408 0-4.116 1.484-4.116 4.536v2.072c0 3.052 1.708 4.536 4.116 4.536zM96.068 162l-3.864-14.448h2.184l1.54 6.244 1.54 6.328h.056l1.764-6.328 1.82-6.244h1.988l1.876 6.244 1.792 6.328h.056l1.484-6.328 1.568-6.244h2.1L108.136 162h-2.772l-2.016-6.944-1.26-4.396h-.056l-1.232 4.396L98.784 162h-2.716zm31.136.336c-4.06 0-6.44-2.94-6.44-7.56 0-4.62 2.38-7.56 6.44-7.56 2.856 0 4.564 1.4 5.404 3.388l-1.876.952c-.532-1.484-1.764-2.352-3.528-2.352-2.66 0-4.032 1.82-4.032 4.34v2.464c0 2.52 1.372 4.34 4.032 4.34 1.82 0 3.136-.868 3.92-2.52l1.624 1.092c-.924 2.072-2.8 3.416-5.544 3.416zm20.468-.336h-1.26c-1.652 0-2.324-1.008-2.492-2.352h-.14c-.616 1.764-2.156 2.688-4.172 2.688-3.052 0-4.844-1.68-4.844-4.368 0-2.716 1.96-4.228 6.16-4.228h2.856v-1.428c0-2.044-1.12-3.164-3.416-3.164-1.736 0-2.884.84-3.668 2.156l-1.344-1.26c.784-1.54 2.52-2.828 5.124-2.828 3.472 0 5.544 1.82 5.544 4.872v7.952h1.652V162zm-7.7-1.568c2.212 0 3.808-1.148 3.808-2.632v-2.38h-2.968c-2.548 0-3.696.784-3.696 2.184v.588c0 1.428 1.12 2.24 2.856 2.24zM153.104 162h-2.24v-14.448h2.24v2.352h.112c.7-1.624 1.932-2.688 4.088-2.688 2.968 0 4.844 2.016 4.844 5.516V162h-2.24v-8.876c0-2.576-1.12-3.892-3.276-3.892-1.792 0-3.528.896-3.528 2.744V162zm25.732.336c-3.864 0-6.524-2.968-6.524-7.56s2.66-7.56 6.524-7.56 6.524 2.968 6.524 7.56-2.66 7.56-6.524 7.56zm0-1.988c2.408 0 4.116-1.484 4.116-4.536v-2.072c0-3.052-1.708-4.536-4.116-4.536-2.408 0-4.116 1.484-4.116 4.536v2.072c0 3.052 1.708 4.536 4.116 4.536zm12.46 1.652h-2.24v-14.448h2.24v2.66h.14c.504-1.372 1.82-2.66 4.172-2.66h.868v2.24h-1.316c-2.408 0-3.864 1.036-3.864 2.408v9.8zm19.572 1.596c0 2.968-2.352 4.34-7 4.34-4.508 0-6.356-1.288-6.356-3.556 0-1.568.868-2.408 2.296-2.8v-.308c-.812-.392-1.288-1.036-1.288-2.016 0-1.456 1.036-2.156 2.492-2.52v-.112c-1.708-.812-2.716-2.408-2.716-4.424 0-2.94 2.156-4.984 5.432-4.984 1.036 0 1.96.196 2.744.56v-.252c0-1.12.476-1.932 1.68-1.932h2.156v1.96h-2.744v.924c1.036.896 1.652 2.184 1.652 3.724 0 2.94-2.156 4.984-5.46 4.984-.476 0-.98-.056-1.4-.14-.952.252-1.904.728-1.904 1.624 0 .868.896 1.092 2.212 1.092h3.08c3.584 0 5.124 1.456 5.124 3.836zm-2.1.168c0-1.148-.756-1.904-2.996-1.904h-4.816c-.924.42-1.344 1.064-1.344 1.96 0 1.26.868 2.296 3.136 2.296h2.072c2.492 0 3.948-.784 3.948-2.352zm-5.012-8.372c1.904 0 3.108-.896 3.108-2.8v-.784c0-1.904-1.204-2.8-3.108-2.8-1.904 0-3.108.896-3.108 2.8v.784c0 1.904 1.204 2.8 3.108 2.8zM225.148 162h-1.26c-1.652 0-2.324-1.008-2.492-2.352h-.14c-.616 1.764-2.156 2.688-4.172 2.688-3.052 0-4.844-1.68-4.844-4.368 0-2.716 1.96-4.228 6.16-4.228h2.856v-1.428c0-2.044-1.12-3.164-3.416-3.164-1.736 0-2.884.84-3.668 2.156l-1.344-1.26c.784-1.54 2.52-2.828 5.124-2.828 3.472 0 5.544 1.82 5.544 4.872v7.952h1.652V162zm-7.7-1.568c2.212 0 3.808-1.148 3.808-2.632v-2.38h-2.968c-2.548 0-3.696.784-3.696 2.184v.588c0 1.428 1.12 2.24 2.856 2.24zM230.58 162h-2.24v-14.448h2.24v2.352h.112c.7-1.624 1.932-2.688 4.088-2.688 2.968 0 4.844 2.016 4.844 5.516V162h-2.24v-8.876c0-2.576-1.12-3.892-3.276-3.892-1.792 0-3.528.896-3.528 2.744V162zm14.784-17.836c-.952 0-1.372-.504-1.372-1.26v-.364c0-.756.42-1.26 1.372-1.26.952 0 1.372.504 1.372 1.26v.364c0 .756-.42 1.26-1.372 1.26zM244.244 162v-14.448h2.24V162h-2.24zm16.688 0h-11.144v-1.876l8.204-10.612h-7.952v-1.96h10.668v1.68l-8.372 10.808h8.596V162zm15.064 0h-1.26c-1.652 0-2.324-1.008-2.492-2.352h-.14c-.616 1.764-2.156 2.688-4.172 2.688-3.052 0-4.844-1.68-4.844-4.368 0-2.716 1.96-4.228 6.16-4.228h2.856v-1.428c0-2.044-1.12-3.164-3.416-3.164-1.736 0-2.884.84-3.668 2.156l-1.344-1.26c.784-1.54 2.52-2.828 5.124-2.828 3.472 0 5.544 1.82 5.544 4.872v7.952h1.652V162zm-7.7-1.568c2.212 0 3.808-1.148 3.808-2.632v-2.38h-2.968c-2.548 0-3.696.784-3.696 2.184v.588c0 1.428 1.12 2.24 2.856 2.24zM285.18 162h-2.8c-1.54 0-2.38-.98-2.38-2.38v-10.108h-2.38v-1.96h1.344c.952 0 1.26-.336 1.26-1.316v-2.688h2.016v4.004h3.164v1.96h-3.164v10.528h2.94V162zm4.956-17.836c-.952 0-1.372-.504-1.372-1.26v-.364c0-.756.42-1.26 1.372-1.26.952 0 1.372.504 1.372 1.26v.364c0 .756-.42 1.26-1.372 1.26zM289.016 162v-14.448h2.24V162h-2.24zm12.46.336c-3.864 0-6.524-2.968-6.524-7.56s2.66-7.56 6.524-7.56 6.524 2.968 6.524 7.56-2.66 7.56-6.524 7.56zm0-1.988c2.408 0 4.116-1.484 4.116-4.536v-2.072c0-3.052-1.708-4.536-4.116-4.536-2.408 0-4.116 1.484-4.116 4.536v2.072c0 3.052 1.708 4.536 4.116 4.536zm12.46 1.652h-2.24v-14.448h2.24v2.352h.112c.7-1.624 1.932-2.688 4.088-2.688 2.968 0 4.844 2.016 4.844 5.516V162h-2.24v-8.876c0-2.576-1.12-3.892-3.276-3.892-1.792 0-3.528.896-3.528 2.744V162zm18.004.336c-2.66 0-4.424-1.12-5.712-2.828l1.596-1.288c1.12 1.4 2.464 2.212 4.284 2.212 1.904 0 3.024-.868 3.024-2.352 0-1.12-.616-1.988-2.52-2.268l-1.148-.168c-2.66-.392-4.648-1.484-4.648-4.172 0-2.856 2.212-4.256 5.152-4.256 2.324 0 3.864.868 5.04 2.324l-1.484 1.344c-.644-.896-1.876-1.764-3.724-1.764-1.848 0-2.828.868-2.828 2.24 0 1.4.98 1.96 2.772 2.24l1.12.168c3.192.476 4.424 1.876 4.424 4.06 0 2.8-2.044 4.508-5.348 4.508zm37.1 0c-3.864 0-6.524-2.968-6.524-7.56s2.66-7.56 6.524-7.56 6.524 2.968 6.524 7.56-2.66 7.56-6.524 7.56zm0-1.988c2.408 0 4.116-1.484 4.116-4.536v-2.072c0-3.052-1.708-4.536-4.116-4.536-2.408 0-4.116 1.484-4.116 4.536v2.072c0 3.052 1.708 4.536 4.116 4.536zM379.876 162v-12.488h-2.352v-1.96h2.352v-2.912c0-1.988 1.036-3.36 3.164-3.36h2.184v1.96h-3.108v4.312h3.108v1.96h-3.108V162h-2.24zm26.656 0h-1.26c-1.652 0-2.324-1.008-2.492-2.352h-.14c-.616 1.764-2.156 2.688-4.172 2.688-3.052 0-4.844-1.68-4.844-4.368 0-2.716 1.96-4.228 6.16-4.228h2.856v-1.428c0-2.044-1.12-3.164-3.416-3.164-1.736 0-2.884.84-3.668 2.156l-1.344-1.26c.784-1.54 2.52-2.828 5.124-2.828 3.472 0 5.544 1.82 5.544 4.872v7.952h1.652V162zm-7.7-1.568c2.212 0 3.808-1.148 3.808-2.632v-2.38h-2.968c-2.548 0-3.696.784-3.696 2.184v.588c0 1.428 1.12 2.24 2.856 2.24zM411.964 162h-2.24v-14.448h2.24v2.352h.112c.7-1.624 1.932-2.688 4.088-2.688 2.968 0 4.844 2.016 4.844 5.516V162h-2.24v-8.876c0-2.576-1.12-3.892-3.276-3.892-1.792 0-3.528.896-3.528 2.744V162zm18.844-4.62l3.5-9.828h2.212l-6.468 17.808c-.644 1.736-1.232 2.24-3.36 2.24h-1.148v-1.96h2.268l1.092-3.08-5.404-15.008h2.24l3.472 9.828.672 2.352h.14l.784-2.352zm19.516 4.956c-2.66 0-4.424-1.12-5.712-2.828l1.596-1.288c1.12 1.4 2.464 2.212 4.284 2.212 1.904 0 3.024-.868 3.024-2.352 0-1.12-.616-1.988-2.52-2.268l-1.148-.168c-2.66-.392-4.648-1.484-4.648-4.172 0-2.856 2.212-4.256 5.152-4.256 2.324 0 3.864.868 5.04 2.324l-1.484 1.344c-.644-.896-1.876-1.764-3.724-1.764-1.848 0-2.828.868-2.828 2.24 0 1.4.98 1.96 2.772 2.24l1.12.168c3.192.476 4.424 1.876 4.424 4.06 0 2.8-2.044 4.508-5.348 4.508zm10.416-18.172c-.952 0-1.372-.504-1.372-1.26v-.364c0-.756.42-1.26 1.372-1.26.952 0 1.372.504 1.372 1.26v.364c0 .756-.42 1.26-1.372 1.26zM459.62 162v-14.448h2.24V162h-2.24zm16.688 0h-11.144v-1.876l8.204-10.612h-7.952v-1.96h10.668v1.68l-8.372 10.808h8.596V162zm8.456.336c-3.92 0-6.496-2.968-6.496-7.56s2.576-7.56 6.496-7.56c3.864 0 6.244 2.968 6.244 7.056v1.064H480.62v.672c0 2.492 1.596 4.368 4.284 4.368 1.82 0 3.22-.896 3.976-2.492l1.596 1.148c-.924 1.96-2.996 3.304-5.712 3.304zm0-13.244c-2.436 0-4.144 1.848-4.144 4.368v.196h7.98v-.308c0-2.548-1.54-4.256-3.836-4.256zM526.848 162v-2.352h-.112c-.868 1.792-2.24 2.688-4.228 2.688-3.612 0-5.88-2.94-5.88-7.56 0-4.62 2.268-7.56 5.88-7.56 1.988 0 3.472.868 4.228 2.688h.112v-8.624h2.24V162h-2.24zm-3.724-1.68c2.044 0 3.724-1.064 3.724-2.94v-5.376c0-1.596-1.68-2.772-3.724-2.772-2.52 0-4.088 1.736-4.088 4.312v2.464c0 2.576 1.568 4.312 4.088 4.312zm16.156 2.016c-3.92 0-6.496-2.968-6.496-7.56s2.576-7.56 6.496-7.56c3.864 0 6.244 2.968 6.244 7.056v1.064h-10.388v.672c0 2.492 1.596 4.368 4.284 4.368 1.82 0 3.22-.896 3.976-2.492l1.596 1.148c-.924 1.96-2.996 3.304-5.712 3.304zm0-13.244c-2.436 0-4.144 1.848-4.144 4.368v.196h7.98v-.308c0-2.548-1.54-4.256-3.836-4.256zM560.98 162h-1.26c-1.652 0-2.324-1.008-2.492-2.352h-.14c-.616 1.764-2.156 2.688-4.172 2.688-3.052 0-4.844-1.68-4.844-4.368 0-2.716 1.96-4.228 6.16-4.228h2.856v-1.428c0-2.044-1.12-3.164-3.416-3.164-1.736 0-2.884.84-3.668 2.156l-1.344-1.26c.784-1.54 2.52-2.828 5.124-2.828 3.472 0 5.544 1.82 5.544 4.872v7.952h1.652V162zm-7.7-1.568c2.212 0 3.808-1.148 3.808-2.632v-2.38h-2.968c-2.548 0-3.696.784-3.696 2.184v.588c0 1.428 1.12 2.24 2.856 2.24zM568.54 162h-1.988c-1.54 0-2.38-.98-2.38-2.324V141.28h2.24v18.76h2.128V162zm12.208 0l-3.864-14.448h2.184l1.54 6.244 1.54 6.328h.056l1.764-6.328 1.82-6.244h1.988l1.876 6.244 1.792 6.328h.056l1.484-6.328 1.568-6.244h2.1L592.816 162h-2.772l-2.016-6.944-1.26-4.396h-.056l-1.232 4.396-2.016 6.944h-2.716zm20.272-17.836c-.952 0-1.372-.504-1.372-1.26v-.364c0-.756.42-1.26 1.372-1.26.952 0 1.372.504 1.372 1.26v.364c0 .756-.42 1.26-1.372 1.26zM599.9 162v-14.448h2.24V162h-2.24zm12.992 0h-2.8c-1.54 0-2.38-.98-2.38-2.38v-10.108h-2.38v-1.96h1.344c.952 0 1.26-.336 1.26-1.316v-2.688h2.016v4.004h3.164v1.96h-3.164v10.528h2.94V162zm3.836 0v-20.72h2.24v8.624h.112c.7-1.624 1.932-2.688 4.088-2.688 2.968 0 4.844 2.016 4.844 5.516V162h-2.24v-8.876c0-2.576-1.12-3.892-3.276-3.892-1.792 0-3.528.896-3.528 2.744V162h-2.24zM651 162h-1.26c-1.652 0-2.324-1.008-2.492-2.352h-.14c-.616 1.764-2.156 2.688-4.172 2.688-3.052 0-4.844-1.68-4.844-4.368 0-2.716 1.96-4.228 6.16-4.228h2.856v-1.428c0-2.044-1.12-3.164-3.416-3.164-1.736 0-2.884.84-3.668 2.156l-1.344-1.26c.784-1.54 2.52-2.828 5.124-2.828 3.472 0 5.544 1.82 5.544 4.872v7.952H651V162zm-7.7-1.568c2.212 0 3.808-1.148 3.808-2.632v-2.38h-2.968c-2.548 0-3.696.784-3.696 2.184v.588c0 1.428 1.12 2.24 2.856 2.24zM670.04 162v-2.352h-.112c-.868 1.792-2.24 2.688-4.228 2.688-3.612 0-5.88-2.94-5.88-7.56 0-4.62 2.268-7.56 5.88-7.56 1.988 0 3.472.868 4.228 2.688h.112v-8.624h2.24V162h-2.24zm-3.724-1.68c2.044 0 3.724-1.064 3.724-2.94v-5.376c0-1.596-1.68-2.772-3.724-2.772-2.52 0-4.088 1.736-4.088 4.312v2.464c0 2.576 1.568 4.312 4.088 4.312zm16.128-2.94l3.5-9.828h2.212l-6.468 17.808c-.644 1.736-1.232 2.24-3.36 2.24h-1.148v-1.96h2.268l1.092-3.08-5.404-15.008h2.24l3.472 9.828.672 2.352h.14l.784-2.352zm10.808 4.62h-2.24v-14.448h2.24v2.352h.112c.7-1.624 1.932-2.688 4.088-2.688 2.968 0 4.844 2.016 4.844 5.516V162h-2.24v-8.876c0-2.576-1.12-3.892-3.276-3.892-1.792 0-3.528.896-3.528 2.744V162zm25.424 0h-1.26c-1.652 0-2.324-1.008-2.492-2.352h-.14c-.616 1.764-2.156 2.688-4.172 2.688-3.052 0-4.844-1.68-4.844-4.368 0-2.716 1.96-4.228 6.16-4.228h2.856v-1.428c0-2.044-1.12-3.164-3.416-3.164-1.736 0-2.884.84-3.668 2.156l-1.344-1.26c.784-1.54 2.52-2.828 5.124-2.828 3.472 0 5.544 1.82 5.544 4.872v7.952h1.652V162zm-7.7-1.568c2.212 0 3.808-1.148 3.808-2.632v-2.38h-2.968c-2.548 0-3.696.784-3.696 2.184v.588c0 1.428 1.12 2.24 2.856 2.24zM724.108 162h-2.24v-14.448h2.24v2.352h.112c.644-1.484 1.652-2.688 3.892-2.688 1.904 0 3.64.868 4.424 2.94h.056c.532-1.568 1.932-2.94 4.396-2.94 2.94 0 4.704 2.016 4.704 5.516V162h-2.24v-8.876c0-2.548-.98-3.892-3.164-3.892-1.764 0-3.388.896-3.388 2.744V162h-2.24v-8.876c0-2.576-.98-3.892-3.108-3.892-1.764 0-3.444.896-3.444 2.744V162zm23.324-17.836c-.952 0-1.372-.504-1.372-1.26v-.364c0-.756.42-1.26 1.372-1.26.952 0 1.372.504 1.372 1.26v.364c0 .756-.42 1.26-1.372 1.26zM746.312 162v-14.448h2.24V162h-2.24zm12.376.336c-4.06 0-6.44-2.94-6.44-7.56 0-4.62 2.38-7.56 6.44-7.56 2.856 0 4.564 1.4 5.404 3.388l-1.876.952c-.532-1.484-1.764-2.352-3.528-2.352-2.66 0-4.032 1.82-4.032 4.34v2.464c0 2.52 1.372 4.34 4.032 4.34 1.82 0 3.136-.868 3.92-2.52l1.624 1.092c-.924 2.072-2.8 3.416-5.544 3.416zm27.496 1.26c0 2.968-2.352 4.34-7 4.34-4.508 0-6.356-1.288-6.356-3.556 0-1.568.868-2.408 2.296-2.8v-.308c-.812-.392-1.288-1.036-1.288-2.016 0-1.456 1.036-2.156 2.492-2.52v-.112c-1.708-.812-2.716-2.408-2.716-4.424 0-2.94 2.156-4.984 5.432-4.984 1.036 0 1.96.196 2.744.56v-.252c0-1.12.476-1.932 1.68-1.932h2.156v1.96h-2.744v.924c1.036.896 1.652 2.184 1.652 3.724 0 2.94-2.156 4.984-5.46 4.984-.476 0-.98-.056-1.4-.14-.952.252-1.904.728-1.904 1.624 0 .868.896 1.092 2.212 1.092h3.08c3.584 0 5.124 1.456 5.124 3.836zm-2.1.168c0-1.148-.756-1.904-2.996-1.904h-4.816c-.924.42-1.344 1.064-1.344 1.96 0 1.26.868 2.296 3.136 2.296h2.072c2.492 0 3.948-.784 3.948-2.352zm-5.012-8.372c1.904 0 3.108-.896 3.108-2.8v-.784c0-1.904-1.204-2.8-3.108-2.8-1.904 0-3.108.896-3.108 2.8v.784c0 1.904 1.204 2.8 3.108 2.8zM793.156 162h-1.988c-1.54 0-2.38-.98-2.38-2.324V141.28h2.24v18.76h2.128V162zm8.708.336c-3.864 0-6.524-2.968-6.524-7.56s2.66-7.56 6.524-7.56 6.524 2.968 6.524 7.56-2.66 7.56-6.524 7.56zm0-1.988c2.408 0 4.116-1.484 4.116-4.536v-2.072c0-3.052-1.708-4.536-4.116-4.536-2.408 0-4.116 1.484-4.116 4.536v2.072c0 3.052 1.708 4.536 4.116 4.536zm10.22 1.652v-20.72h2.24v8.624h.112c.756-1.82 2.24-2.688 4.228-2.688 3.612 0 5.88 2.94 5.88 7.56 0 4.62-2.268 7.56-5.88 7.56-1.988 0-3.36-.896-4.228-2.688h-.112V162h-2.24zm5.964-1.68c2.52 0 4.088-1.736 4.088-4.312v-2.464c0-2.576-1.568-4.312-4.088-4.312-2.044 0-3.724 1.176-3.724 2.772v5.376c0 1.876 1.68 2.94 3.724 2.94zm22.036 1.68h-1.26c-1.652 0-2.324-1.008-2.492-2.352h-.14c-.616 1.764-2.156 2.688-4.172 2.688-3.052 0-4.844-1.68-4.844-4.368 0-2.716 1.96-4.228 6.16-4.228h2.856v-1.428c0-2.044-1.12-3.164-3.416-3.164-1.736 0-2.884.84-3.668 2.156l-1.344-1.26c.784-1.54 2.52-2.828 5.124-2.828 3.472 0 5.544 1.82 5.544 4.872v7.952h1.652V162zm-7.7-1.568c2.212 0 3.808-1.148 3.808-2.632v-2.38h-2.968c-2.548 0-3.696.784-3.696 2.184v.588c0 1.428 1.12 2.24 2.856 2.24zm15.26 1.568h-1.988c-1.54 0-2.38-.98-2.38-2.324V141.28h2.24v18.76h2.128V162zm19.824.336c-1.176 0-1.708-.672-1.708-1.624v-.364c0-.952.532-1.624 1.708-1.624s1.708.672 1.708 1.624v.364c0 .952-.532 1.624-1.708 1.624zm-7.448 0c-1.176 0-1.708-.672-1.708-1.624v-.364c0-.952.532-1.624 1.708-1.624s1.708.672 1.708 1.624v.364c0 .952-.532 1.624-1.708 1.624zm-7.42 0c-1.176 0-1.708-.672-1.708-1.624v-.364c0-.952.532-1.624 1.708-1.624s1.708.672 1.708 1.624v.364c0 .952-.532 1.624-1.708 1.624zM70.84 236v-8.848h-9.884V236h-2.352v-19.544h2.352v8.624h9.884v-8.624h2.352V236H70.84zm12.796.336c-3.864 0-6.524-2.968-6.524-7.56s2.66-7.56 6.524-7.56 6.524 2.968 6.524 7.56-2.66 7.56-6.524 7.56zm0-1.988c2.408 0 4.116-1.484 4.116-4.536v-2.072c0-3.052-1.708-4.536-4.116-4.536-2.408 0-4.116 1.484-4.116 4.536v2.072c0 3.052 1.708 4.536 4.116 4.536zM96.068 236l-3.864-14.448h2.184l1.54 6.244 1.54 6.328h.056l1.764-6.328 1.82-6.244h1.988l1.876 6.244 1.792 6.328h.056l1.484-6.328 1.568-6.244h2.1L108.136 236h-2.772l-2.016-6.944-1.26-4.396h-.056l-1.232 4.396L98.784 236h-2.716zm31.136.336c-4.06 0-6.44-2.94-6.44-7.56 0-4.62 2.38-7.56 6.44-7.56 2.856 0 4.564 1.4 5.404 3.388l-1.876.952c-.532-1.484-1.764-2.352-3.528-2.352-2.66 0-4.032 1.82-4.032 4.34v2.464c0 2.52 1.372 4.34 4.032 4.34 1.82 0 3.136-.868 3.92-2.52l1.624 1.092c-.924 2.072-2.8 3.416-5.544 3.416zm20.468-.336h-1.26c-1.652 0-2.324-1.008-2.492-2.352h-.14c-.616 1.764-2.156 2.688-4.172 2.688-3.052 0-4.844-1.68-4.844-4.368 0-2.716 1.96-4.228 6.16-4.228h2.856v-1.428c0-2.044-1.12-3.164-3.416-3.164-1.736 0-2.884.84-3.668 2.156l-1.344-1.26c.784-1.54 2.52-2.828 5.124-2.828 3.472 0 5.544 1.82 5.544 4.872v7.952h1.652V236zm-7.7-1.568c2.212 0 3.808-1.148 3.808-2.632v-2.38h-2.968c-2.548 0-3.696.784-3.696 2.184v.588c0 1.428 1.12 2.24 2.856 2.24zM153.104 236h-2.24v-14.448h2.24v2.352h.112c.7-1.624 1.932-2.688 4.088-2.688 2.968 0 4.844 2.016 4.844 5.516V236h-2.24v-8.876c0-2.576-1.12-3.892-3.276-3.892-1.792 0-3.528.896-3.528 2.744V236zm25.732.336c-3.864 0-6.524-2.968-6.524-7.56s2.66-7.56 6.524-7.56 6.524 2.968 6.524 7.56-2.66 7.56-6.524 7.56zm0-1.988c2.408 0 4.116-1.484 4.116-4.536v-2.072c0-3.052-1.708-4.536-4.116-4.536-2.408 0-4.116 1.484-4.116 4.536v2.072c0 3.052 1.708 4.536 4.116 4.536zm12.46 1.652h-2.24v-14.448h2.24v2.66h.14c.504-1.372 1.82-2.66 4.172-2.66h.868v2.24h-1.316c-2.408 0-3.864 1.036-3.864 2.408v9.8zm19.572 1.596c0 2.968-2.352 4.34-7 4.34-4.508 0-6.356-1.288-6.356-3.556 0-1.568.868-2.408 2.296-2.8v-.308c-.812-.392-1.288-1.036-1.288-2.016 0-1.456 1.036-2.156 2.492-2.52v-.112c-1.708-.812-2.716-2.408-2.716-4.424 0-2.94 2.156-4.984 5.432-4.984 1.036 0 1.96.196 2.744.56v-.252c0-1.12.476-1.932 1.68-1.932h2.156v1.96h-2.744v.924c1.036.896 1.652 2.184 1.652 3.724 0 2.94-2.156 4.984-5.46 4.984-.476 0-.98-.056-1.4-.14-.952.252-1.904.728-1.904 1.624 0 .868.896 1.092 2.212 1.092h3.08c3.584 0 5.124 1.456 5.124 3.836zm-2.1.168c0-1.148-.756-1.904-2.996-1.904h-4.816c-.924.42-1.344 1.064-1.344 1.96 0 1.26.868 2.296 3.136 2.296h2.072c2.492 0 3.948-.784 3.948-2.352zm-5.012-8.372c1.904 0 3.108-.896 3.108-2.8v-.784c0-1.904-1.204-2.8-3.108-2.8-1.904 0-3.108.896-3.108 2.8v.784c0 1.904 1.204 2.8 3.108 2.8zM225.148 236h-1.26c-1.652 0-2.324-1.008-2.492-2.352h-.14c-.616 1.764-2.156 2.688-4.172 2.688-3.052 0-4.844-1.68-4.844-4.368 0-2.716 1.96-4.228 6.16-4.228h2.856v-1.428c0-2.044-1.12-3.164-3.416-3.164-1.736 0-2.884.84-3.668 2.156l-1.344-1.26c.784-1.54 2.52-2.828 5.124-2.828 3.472 0 5.544 1.82 5.544 4.872v7.952h1.652V236zm-7.7-1.568c2.212 0 3.808-1.148 3.808-2.632v-2.38h-2.968c-2.548 0-3.696.784-3.696 2.184v.588c0 1.428 1.12 2.24 2.856 2.24zM230.58 236h-2.24v-14.448h2.24v2.352h.112c.7-1.624 1.932-2.688 4.088-2.688 2.968 0 4.844 2.016 4.844 5.516V236h-2.24v-8.876c0-2.576-1.12-3.892-3.276-3.892-1.792 0-3.528.896-3.528 2.744V236zm14.784-17.836c-.952 0-1.372-.504-1.372-1.26v-.364c0-.756.42-1.26 1.372-1.26.952 0 1.372.504 1.372 1.26v.364c0 .756-.42 1.26-1.372 1.26zM244.244 236v-14.448h2.24V236h-2.24zm16.688 0h-11.144v-1.876l8.204-10.612h-7.952v-1.96h10.668v1.68l-8.372 10.808h8.596V236zm15.064 0h-1.26c-1.652 0-2.324-1.008-2.492-2.352h-.14c-.616 1.764-2.156 2.688-4.172 2.688-3.052 0-4.844-1.68-4.844-4.368 0-2.716 1.96-4.228 6.16-4.228h2.856v-1.428c0-2.044-1.12-3.164-3.416-3.164-1.736 0-2.884.84-3.668 2.156l-1.344-1.26c.784-1.54 2.52-2.828 5.124-2.828 3.472 0 5.544 1.82 5.544 4.872v7.952h1.652V236zm-7.7-1.568c2.212 0 3.808-1.148 3.808-2.632v-2.38h-2.968c-2.548 0-3.696.784-3.696 2.184v.588c0 1.428 1.12 2.24 2.856 2.24zM285.18 236h-2.8c-1.54 0-2.38-.98-2.38-2.38v-10.108h-2.38v-1.96h1.344c.952 0 1.26-.336 1.26-1.316v-2.688h2.016v4.004h3.164v1.96h-3.164v10.528h2.94V236zm4.956-17.836c-.952 0-1.372-.504-1.372-1.26v-.364c0-.756.42-1.26 1.372-1.26.952 0 1.372.504 1.372 1.26v.364c0 .756-.42 1.26-1.372 1.26zM289.016 236v-14.448h2.24V236h-2.24zm12.46.336c-3.864 0-6.524-2.968-6.524-7.56s2.66-7.56 6.524-7.56 6.524 2.968 6.524 7.56-2.66 7.56-6.524 7.56zm0-1.988c2.408 0 4.116-1.484 4.116-4.536v-2.072c0-3.052-1.708-4.536-4.116-4.536-2.408 0-4.116 1.484-4.116 4.536v2.072c0 3.052 1.708 4.536 4.116 4.536zm12.46 1.652h-2.24v-14.448h2.24v2.352h.112c.7-1.624 1.932-2.688 4.088-2.688 2.968 0 4.844 2.016 4.844 5.516V236h-2.24v-8.876c0-2.576-1.12-3.892-3.276-3.892-1.792 0-3.528.896-3.528 2.744V236zm18.004.336c-2.66 0-4.424-1.12-5.712-2.828l1.596-1.288c1.12 1.4 2.464 2.212 4.284 2.212 1.904 0 3.024-.868 3.024-2.352 0-1.12-.616-1.988-2.52-2.268l-1.148-.168c-2.66-.392-4.648-1.484-4.648-4.172 0-2.856 2.212-4.256 5.152-4.256 2.324 0 3.864.868 5.04 2.324l-1.484 1.344c-.644-.896-1.876-1.764-3.724-1.764-1.848 0-2.828.868-2.828 2.24 0 1.4.98 1.96 2.772 2.24l1.12.168c3.192.476 4.424 1.876 4.424 4.06 0 2.8-2.044 4.508-5.348 4.508zm31.22 0c-3.864 0-6.524-2.968-6.524-7.56s2.66-7.56 6.524-7.56 6.524 2.968 6.524 7.56-2.66 7.56-6.524 7.56zm0-1.988c2.408 0 4.116-1.484 4.116-4.536v-2.072c0-3.052-1.708-4.536-4.116-4.536-2.408 0-4.116 1.484-4.116 4.536v2.072c0 3.052 1.708 4.536 4.116 4.536zM373.996 236v-12.488h-2.352v-1.96h2.352v-2.912c0-1.988 1.036-3.36 3.164-3.36h2.184v1.96h-3.108v4.312h3.108v1.96h-3.108V236h-2.24zm26.656 0h-1.26c-1.652 0-2.324-1.008-2.492-2.352h-.14c-.616 1.764-2.156 2.688-4.172 2.688-3.052 0-4.844-1.68-4.844-4.368 0-2.716 1.96-4.228 6.16-4.228h2.856v-1.428c0-2.044-1.12-3.164-3.416-3.164-1.736 0-2.884.84-3.668 2.156l-1.344-1.26c.784-1.54 2.52-2.828 5.124-2.828 3.472 0 5.544 1.82 5.544 4.872v7.952h1.652V236zm-7.7-1.568c2.212 0 3.808-1.148 3.808-2.632v-2.38h-2.968c-2.548 0-3.696.784-3.696 2.184v.588c0 1.428 1.12 2.24 2.856 2.24zM406.084 236h-2.24v-14.448h2.24v2.352h.112c.7-1.624 1.932-2.688 4.088-2.688 2.968 0 4.844 2.016 4.844 5.516V236h-2.24v-8.876c0-2.576-1.12-3.892-3.276-3.892-1.792 0-3.528.896-3.528 2.744V236zm18.844-4.62l3.5-9.828h2.212l-6.468 17.808c-.644 1.736-1.232 2.24-3.36 2.24h-1.148v-1.96h2.268l1.092-3.08-5.404-15.008h2.24l3.472 9.828.672 2.352h.14l.784-2.352zm19.516 4.956c-2.66 0-4.424-1.12-5.712-2.828l1.596-1.288c1.12 1.4 2.464 2.212 4.284 2.212 1.904 0 3.024-.868 3.024-2.352 0-1.12-.616-1.988-2.52-2.268l-1.148-.168c-2.66-.392-4.648-1.484-4.648-4.172 0-2.856 2.212-4.256 5.152-4.256 2.324 0 3.864.868 5.04 2.324l-1.484 1.344c-.644-.896-1.876-1.764-3.724-1.764-1.848 0-2.828.868-2.828 2.24 0 1.4.98 1.96 2.772 2.24l1.12.168c3.192.476 4.424 1.876 4.424 4.06 0 2.8-2.044 4.508-5.348 4.508zm10.416-18.172c-.952 0-1.372-.504-1.372-1.26v-.364c0-.756.42-1.26 1.372-1.26.952 0 1.372.504 1.372 1.26v.364c0 .756-.42 1.26-1.372 1.26zM453.74 236v-14.448h2.24V236h-2.24zm16.688 0h-11.144v-1.876l8.204-10.612h-7.952v-1.96h10.668v1.68l-8.372 10.808h8.596V236zm8.456.336c-3.92 0-6.496-2.968-6.496-7.56s2.576-7.56 6.496-7.56c3.864 0 6.244 2.968 6.244 7.056v1.064H474.74v.672c0 2.492 1.596 4.368 4.284 4.368 1.82 0 3.22-.896 3.976-2.492l1.596 1.148c-.924 1.96-2.996 3.304-5.712 3.304zm0-13.244c-2.436 0-4.144 1.848-4.144 4.368v.196h7.98v-.308c0-2.548-1.54-4.256-3.836-4.256zM515.088 236v-2.352h-.112c-.868 1.792-2.24 2.688-4.228 2.688-3.612 0-5.88-2.94-5.88-7.56 0-4.62 2.268-7.56 5.88-7.56 1.988 0 3.472.868 4.228 2.688h.112v-8.624h2.24V236h-2.24zm-3.724-1.68c2.044 0 3.724-1.064 3.724-2.94v-5.376c0-1.596-1.68-2.772-3.724-2.772-2.52 0-4.088 1.736-4.088 4.312v2.464c0 2.576 1.568 4.312 4.088 4.312zm16.156 2.016c-3.92 0-6.496-2.968-6.496-7.56s2.576-7.56 6.496-7.56c3.864 0 6.244 2.968 6.244 7.056v1.064h-10.388v.672c0 2.492 1.596 4.368 4.284 4.368 1.82 0 3.22-.896 3.976-2.492l1.596 1.148c-.924 1.96-2.996 3.304-5.712 3.304zm0-13.244c-2.436 0-4.144 1.848-4.144 4.368v.196h7.98v-.308c0-2.548-1.54-4.256-3.836-4.256zM549.22 236h-1.26c-1.652 0-2.324-1.008-2.492-2.352h-.14c-.616 1.764-2.156 2.688-4.172 2.688-3.052 0-4.844-1.68-4.844-4.368 0-2.716 1.96-4.228 6.16-4.228h2.856v-1.428c0-2.044-1.12-3.164-3.416-3.164-1.736 0-2.884.84-3.668 2.156l-1.344-1.26c.784-1.54 2.52-2.828 5.124-2.828 3.472 0 5.544 1.82 5.544 4.872v7.952h1.652V236zm-7.7-1.568c2.212 0 3.808-1.148 3.808-2.632v-2.38h-2.968c-2.548 0-3.696.784-3.696 2.184v.588c0 1.428 1.12 2.24 2.856 2.24zM556.78 236h-1.988c-1.54 0-2.38-.98-2.38-2.324V215.28h2.24v18.76h2.128V236zm12.208 0l-3.864-14.448h2.184l1.54 6.244 1.54 6.328h.056l1.764-6.328 1.82-6.244h1.988l1.876 6.244 1.792 6.328h.056l1.484-6.328 1.568-6.244h2.1L581.056 236h-2.772l-2.016-6.944-1.26-4.396h-.056l-1.232 4.396-2.016 6.944h-2.716zm20.272-17.836c-.952 0-1.372-.504-1.372-1.26v-.364c0-.756.42-1.26 1.372-1.26.952 0 1.372.504 1.372 1.26v.364c0 .756-.42 1.26-1.372 1.26zM588.14 236v-14.448h2.24V236h-2.24zm12.992 0h-2.8c-1.54 0-2.38-.98-2.38-2.38v-10.108h-2.38v-1.96h1.344c.952 0 1.26-.336 1.26-1.316v-2.688h2.016v4.004h3.164v1.96h-3.164v10.528h2.94V236zm3.836 0v-20.72h2.24v8.624h.112c.7-1.624 1.932-2.688 4.088-2.688 2.968 0 4.844 2.016 4.844 5.516V236h-2.24v-8.876c0-2.576-1.12-3.892-3.276-3.892-1.792 0-3.528.896-3.528 2.744V236h-2.24zm34.272 0h-1.26c-1.652 0-2.324-1.008-2.492-2.352h-.14c-.616 1.764-2.156 2.688-4.172 2.688-3.052 0-4.844-1.68-4.844-4.368 0-2.716 1.96-4.228 6.16-4.228h2.856v-1.428c0-2.044-1.12-3.164-3.416-3.164-1.736 0-2.884.84-3.668 2.156l-1.344-1.26c.784-1.54 2.52-2.828 5.124-2.828 3.472 0 5.544 1.82 5.544 4.872v7.952h1.652V236zm-7.7-1.568c2.212 0 3.808-1.148 3.808-2.632v-2.38h-2.968c-2.548 0-3.696.784-3.696 2.184v.588c0 1.428 1.12 2.24 2.856 2.24zM658.28 236v-2.352h-.112c-.868 1.792-2.24 2.688-4.228 2.688-3.612 0-5.88-2.94-5.88-7.56 0-4.62 2.268-7.56 5.88-7.56 1.988 0 3.472.868 4.228 2.688h.112v-8.624h2.24V236h-2.24zm-3.724-1.68c2.044 0 3.724-1.064 3.724-2.94v-5.376c0-1.596-1.68-2.772-3.724-2.772-2.52 0-4.088 1.736-4.088 4.312v2.464c0 2.576 1.568 4.312 4.088 4.312zm16.128-2.94l3.5-9.828h2.212l-6.468 17.808c-.644 1.736-1.232 2.24-3.36 2.24h-1.148v-1.96h2.268l1.092-3.08-5.404-15.008h2.24l3.472 9.828.672 2.352h.14l.784-2.352zm10.808 4.62h-2.24v-14.448h2.24v2.352h.112c.7-1.624 1.932-2.688 4.088-2.688 2.968 0 4.844 2.016 4.844 5.516V236h-2.24v-8.876c0-2.576-1.12-3.892-3.276-3.892-1.792 0-3.528.896-3.528 2.744V236zm25.424 0h-1.26c-1.652 0-2.324-1.008-2.492-2.352h-.14c-.616 1.764-2.156 2.688-4.172 2.688-3.052 0-4.844-1.68-4.844-4.368 0-2.716 1.96-4.228 6.16-4.228h2.856v-1.428c0-2.044-1.12-3.164-3.416-3.164-1.736 0-2.884.84-3.668 2.156l-1.344-1.26c.784-1.54 2.52-2.828 5.124-2.828 3.472 0 5.544 1.82 5.544 4.872v7.952h1.652V236zm-7.7-1.568c2.212 0 3.808-1.148 3.808-2.632v-2.38h-2.968c-2.548 0-3.696.784-3.696 2.184v.588c0 1.428 1.12 2.24 2.856 2.24zM712.348 236h-2.24v-14.448h2.24v2.352h.112c.644-1.484 1.652-2.688 3.892-2.688 1.904 0 3.64.868 4.424 2.94h.056c.532-1.568 1.932-2.94 4.396-2.94 2.94 0 4.704 2.016 4.704 5.516V236h-2.24v-8.876c0-2.548-.98-3.892-3.164-3.892-1.764 0-3.388.896-3.388 2.744V236h-2.24v-8.876c0-2.576-.98-3.892-3.108-3.892-1.764 0-3.444.896-3.444 2.744V236zm23.324-17.836c-.952 0-1.372-.504-1.372-1.26v-.364c0-.756.42-1.26 1.372-1.26.952 0 1.372.504 1.372 1.26v.364c0 .756-.42 1.26-1.372 1.26zM734.552 236v-14.448h2.24V236h-2.24zm12.376.336c-4.06 0-6.44-2.94-6.44-7.56 0-4.62 2.38-7.56 6.44-7.56 2.856 0 4.564 1.4 5.404 3.388l-1.876.952c-.532-1.484-1.764-2.352-3.528-2.352-2.66 0-4.032 1.82-4.032 4.34v2.464c0 2.52 1.372 4.34 4.032 4.34 1.82 0 3.136-.868 3.92-2.52l1.624 1.092c-.924 2.072-2.8 3.416-5.544 3.416zm27.496 1.26c0 2.968-2.352 4.34-7 4.34-4.508 0-6.356-1.288-6.356-3.556 0-1.568.868-2.408 2.296-2.8v-.308c-.812-.392-1.288-1.036-1.288-2.016 0-1.456 1.036-2.156 2.492-2.52v-.112c-1.708-.812-2.716-2.408-2.716-4.424 0-2.94 2.156-4.984 5.432-4.984 1.036 0 1.96.196 2.744.56v-.252c0-1.12.476-1.932 1.68-1.932h2.156v1.96h-2.744v.924c1.036.896 1.652 2.184 1.652 3.724 0 2.94-2.156 4.984-5.46 4.984-.476 0-.98-.056-1.4-.14-.952.252-1.904.728-1.904 1.624 0 .868.896 1.092 2.212 1.092h3.08c3.584 0 5.124 1.456 5.124 3.836zm-2.1.168c0-1.148-.756-1.904-2.996-1.904h-4.816c-.924.42-1.344 1.064-1.344 1.96 0 1.26.868 2.296 3.136 2.296h2.072c2.492 0 3.948-.784 3.948-2.352zm-5.012-8.372c1.904 0 3.108-.896 3.108-2.8v-.784c0-1.904-1.204-2.8-3.108-2.8-1.904 0-3.108.896-3.108 2.8v.784c0 1.904 1.204 2.8 3.108 2.8zM781.396 236h-1.988c-1.54 0-2.38-.98-2.38-2.324V215.28h2.24v18.76h2.128V236zm8.708.336c-3.864 0-6.524-2.968-6.524-7.56s2.66-7.56 6.524-7.56 6.524 2.968 6.524 7.56-2.66 7.56-6.524 7.56zm0-1.988c2.408 0 4.116-1.484 4.116-4.536v-2.072c0-3.052-1.708-4.536-4.116-4.536-2.408 0-4.116 1.484-4.116 4.536v2.072c0 3.052 1.708 4.536 4.116 4.536zm10.22 1.652v-20.72h2.24v8.624h.112c.756-1.82 2.24-2.688 4.228-2.688 3.612 0 5.88 2.94 5.88 7.56 0 4.62-2.268 7.56-5.88 7.56-1.988 0-3.36-.896-4.228-2.688h-.112V236h-2.24zm5.964-1.68c2.52 0 4.088-1.736 4.088-4.312v-2.464c0-2.576-1.568-4.312-4.088-4.312-2.044 0-3.724 1.176-3.724 2.772v5.376c0 1.876 1.68 2.94 3.724 2.94zm22.036 1.68h-1.26c-1.652 0-2.324-1.008-2.492-2.352h-.14c-.616 1.764-2.156 2.688-4.172 2.688-3.052 0-4.844-1.68-4.844-4.368 0-2.716 1.96-4.228 6.16-4.228h2.856v-1.428c0-2.044-1.12-3.164-3.416-3.164-1.736 0-2.884.84-3.668 2.156l-1.344-1.26c.784-1.54 2.52-2.828 5.124-2.828 3.472 0 5.544 1.82 5.544 4.872v7.952h1.652V236zm-7.7-1.568c2.212 0 3.808-1.148 3.808-2.632v-2.38h-2.968c-2.548 0-3.696.784-3.696 2.184v.588c0 1.428 1.12 2.24 2.856 2.24zm15.26 1.568h-1.988c-1.54 0-2.38-.98-2.38-2.324V215.28h2.24v18.76h2.128V236zm19.824.336c-1.176 0-1.708-.672-1.708-1.624v-.364c0-.952.532-1.624 1.708-1.624s1.708.672 1.708 1.624v.364c0 .952-.532 1.624-1.708 1.624zm-7.448 0c-1.176 0-1.708-.672-1.708-1.624v-.364c0-.952.532-1.624 1.708-1.624s1.708.672 1.708 1.624v.364c0 .952-.532 1.624-1.708 1.624zm-7.42 0c-1.176 0-1.708-.672-1.708-1.624v-.364c0-.952.532-1.624 1.708-1.624s1.708.672 1.708 1.624v.364c0 .952-.532 1.624-1.708 1.624z" fill="#3D3D3D"/><path fill="#D12765" d="M347.816 80.692h-7.308v-2.408h7.308zm142.856 0h-7.308v-2.408h7.308zm-142.856 74h-7.308v-2.408h7.308zm11.172 0h-7.308v-2.408h7.308zm142.856 0h-7.308v-2.408h7.308zm11.172 0h-7.308v-2.408h7.308zm-158.984 73.86h-14.448v-2.128h14.448zm148.148 0h-14.448v-2.128h14.448z"/></g></svg>