<svg xmlns="http://www.w3.org/2000/svg" viewBox="0 0 288 288"><defs><style>.cls-1{fill:#bae6ff;}.cls-2{fill:#0072c3;}.cls-3{fill:#ff832b;}.cls-4{fill:#f1c21b;}.cls-5{fill:#fff;}</style></defs><title>Artboard 24 copy 5</title><g id="Graphics"><rect class="cls-1" y="208" width="288" height="80"/><polygon class="cls-2" points="164.853 168.402 153.539 157.088 130.912 134.461 119.598 123.147 242.745 0 0 0 0 208 288 208 288 45.255 164.853 168.402"/><polygon class="cls-3" points="130.912 134.461 265.373 0 242.745 0 119.598 123.147 130.912 134.461"/><polygon class="cls-3" points="153.539 157.088 164.853 168.402 288 45.255 288 22.627 153.539 157.088"/><polygon class="cls-4" points="288 0 265.373 0 130.912 134.461 153.539 157.088 288 22.627 288 0"/><polygon class="cls-5" points="130.912 134.461 119.598 123.147 80 208 90.799 184.858 103.142 197.201 80 208 164.853 168.402 153.539 157.088 130.912 134.461"/><polygon points="90.799 184.858 80 208 103.142 197.201 90.799 184.858"/></g></svg>