<svg xmlns="http://www.w3.org/2000/svg" xmlns:xlink="http://www.w3.org/1999/xlink" viewBox="0 0 288 288"><defs><linearGradient x1="6.853%" y1="93.147%" x2="93.144%" y2="6.856%" id="b"><stop stop-color="#0062FF" offset="0%"/><stop stop-color="#48EEEE" offset="100%"/></linearGradient><path d="M51.75 3.674c-1.144 0-2.07.932-2.07 2.076v20.93H5.75c-1.144 0-2.07.926-2.07 2.07v126.5c0 1.144.926 2.076 2.07 2.076h43.93v20.924c0 1.144.926 2.07 2.07 2.07h80.5c1.138 0 2.07-.926 2.07-2.07v-20.924h43.93a2.079 2.079 0 002.076-2.076V28.75c0-1.144-.932-2.07-2.076-2.07h-43.93V5.75a2.077 2.077 0 00-2.07-2.076h-80.5zm2.07 172.5h76.354V7.82H53.82v168.354zm80.5-145.354h41.86v122.36h-41.86V82.57h20.93a2.069 2.069 0 100-4.14h-20.93V65.32h20.93a2.074 2.074 0 000-4.146h-20.93V48.076h20.93a2.074 2.074 0 000-4.146h-20.93V30.82zm-126.494 0H49.68v13.11H28.75A2.074 2.074 0 0026.674 46a2.08 2.08 0 002.076 2.076h20.93v13.098H28.75a2.079 2.079 0 00-2.076 2.076c0 1.144.932 2.07 2.076 2.07h20.93v13.11H28.75a2.074 2.074 0 00-2.076 2.07c0 1.144.932 2.07 2.076 2.07h20.93v70.61H7.826V30.82zM69 20.924a2.072 2.072 0 000 4.146h46a2.074 2.074 0 000-4.146H69zm0 17.256a2.072 2.072 0 000 4.146h46a2.07 2.07 0 002.07-2.076c0-1.144-.926-2.07-2.07-2.07H69zm0 17.244a2.072 2.072 0 000 4.146h46a2.074 2.074 0 000-4.146H69z" id="a"/></defs><g fill="none" fill-rule="evenodd"><path fill="#FFF" d="M0 0h288v288H0z"/><path d="M52 236h184V52H52z"/><g transform="translate(52 52)"><mask id="c" fill="#fff"><use xlink:href="#a"/></mask><path d="M51.75 3.674c-1.144 0-2.07.932-2.07 2.076v20.93H5.75c-1.144 0-2.07.926-2.07 2.07v126.5c0 1.144.926 2.076 2.07 2.076h43.93v20.924c0 1.144.926 2.07 2.07 2.07h80.5c1.138 0 2.07-.926 2.07-2.07v-20.924h43.93a2.079 2.079 0 002.076-2.076V28.75c0-1.144-.932-2.07-2.076-2.07h-43.93V5.75a2.077 2.077 0 00-2.07-2.076h-80.5zm2.07 172.5h76.354V7.82H53.82v168.354zm80.5-145.354h41.86v122.36h-41.86V82.57h20.93a2.069 2.069 0 100-4.14h-20.93V65.32h20.93a2.074 2.074 0 000-4.146h-20.93V48.076h20.93a2.074 2.074 0 000-4.146h-20.93V30.82zm-126.494 0H49.68v13.11H28.75A2.074 2.074 0 0026.674 46a2.08 2.08 0 002.076 2.076h20.93v13.098H28.75a2.079 2.079 0 00-2.076 2.076c0 1.144.932 2.07 2.076 2.07h20.93v13.11H28.75a2.074 2.074 0 00-2.076 2.07c0 1.144.932 2.07 2.076 2.07h20.93v70.61H7.826V30.82zM69 20.924a2.072 2.072 0 000 4.146h46a2.074 2.074 0 000-4.146H69zm0 17.256a2.072 2.072 0 000 4.146h46a2.07 2.07 0 002.07-2.076c0-1.144-.926-2.07-2.07-2.07H69zm0 17.244a2.072 2.072 0 000 4.146h46a2.074 2.074 0 000-4.146H69z" fill="url(#b)" mask="url(#c)"/></g></g></svg>