<svg data-name="Layer 1" xmlns="http://www.w3.org/2000/svg" xmlns:xlink="http://www.w3.org/1999/xlink" viewBox="0 0 288 288"><defs><linearGradient id="b" x1="51.98" y1="-7377.4" x2="235.55" y2="-7194.77" gradientTransform="matrix(1 0 0 -1 0 -7141.85)" gradientUnits="userSpaceOnUse"><stop offset=".1" stop-color="#ee538b"/><stop offset=".9" stop-color="#8a3ffc"/></linearGradient><linearGradient id="a" x1="7295.6" y1="1412.15" x2="7415.53" y2="1412.15" gradientTransform="rotate(45 5280.521 -7926.977)" gradientUnits="userSpaceOnUse"><stop offset=".04" stop-color="#fff" stop-opacity="0"/><stop offset=".2" stop-color="#fff"/><stop offset=".8" stop-color="#fff"/><stop offset=".96" stop-color="#fff" stop-opacity="0"/></linearGradient><linearGradient id="c" x1="-10277.48" y1="9017.08" x2="-10157.56" y2="9017.08" gradientTransform="rotate(-45 -15747.367 -7926.847)" xlink:href="#a"/></defs><path fill="#fff" d="M0 0h288v288H0z"/><path d="M102.2 193.9l-8.1-8.1 22.9-22.9 8.1 8.1zm22.9-76.9l-22.9-22.9-8.1 8.1 22.9 22.9zm68.8 68.8L171 162.9l-8.1 8.1 22.9 22.9zm0-83.6l-8.1-8.1-22.9 22.9 8.1 8.1z" fill="url(#b)"/><path fill="url(#a)" d="M179.6 193.2l-84.8-84.8 13.6-13.6 84.8 84.8-13.6 13.6z"/><path fill="url(#c)" d="M193.2 108.4l-84.8 84.8-13.6-13.6 84.8-84.8 13.6 13.6z"/><path d="M144 178.4a34.4 34.4 0 1134.4-34.4 34.4 34.4 0 01-34.4 34.4zm0-57.3a22.9 22.9 0 1022.9 22.9 22.9 22.9 0 00-22.9-22.9zM86.7 224.3a22.9 22.9 0 1122.9-22.9 22.9 22.9 0 01-22.9 22.9zm0-34.4a11.5 11.5 0 1011.5 11.5 11.5 11.5 0 00-11.5-11.5zm114.6 34.4a22.9 22.9 0 1122.9-22.9 22.9 22.9 0 01-22.9 22.9zm0-34.4a11.5 11.5 0 1011.5 11.5 11.5 11.5 0 00-11.5-11.5zM86.7 109.6a23 23 0 1122.9-23 23 23 0 01-22.9 23zm0-34.4a11.5 11.5 0 1011.5 11.5 11.57 11.57 0 00-11.5-11.5zm114.6 34.4a22.9 22.9 0 1122.9-22.9 22.9 22.9 0 01-22.9 22.9zm0-34.4a11.5 11.5 0 1011.5 11.5 11.5 11.5 0 00-11.5-11.5z" fill="#051b75"/></svg>