<svg data-name="Layer 1" xmlns="http://www.w3.org/2000/svg" viewBox="0 0 288 288"><defs><linearGradient id="a" x1="6635.02" y1="-6560.2" x2="6545.85" y2="-6649.36" gradientTransform="rotate(90 -7.17 -6422.71)" gradientUnits="userSpaceOnUse"><stop offset="0" stop-color="#171717" stop-opacity=".05"/><stop offset="1" stop-color="#171717" stop-opacity=".3"/></linearGradient><linearGradient id="b" x1="6484.44" y1="-6587.21" x2="6570.27" y2="-6501.34" gradientTransform="rotate(90 -7.17 -6422.71)" gradientUnits="userSpaceOnUse"><stop offset="0" stop-color="#0062ff"/><stop offset="1" stop-color="#87eded"/></linearGradient></defs><path fill="#fff" d="M0 0h288v288H0z"/><path fill="none" d="M235.74 52.26v183.48H52.26V52.26z"/><path d="M161.21 224.27a63.06 63.06 0 0023.93-121.41 63 63 0 01-82.27 82.27 63.06 63.06 0 0058.34 39.14z" fill="url(#a)"/><path d="M161.21 98.12a62.7 62.7 0 0123.93 4.74 63.06 63.06 0 10-82.27 82.27 63.05 63.05 0 0158.34-87z" fill="url(#b)"/><path d="M189.88 126.79a62.7 62.7 0 00-4.74-23.93 63 63 0 00-82.27 82.27 63.05 63.05 0 0087-58.34z" fill="#051b75"/></svg>