<svg xmlns="http://www.w3.org/2000/svg" viewBox="0 0 288 288"><title>core_gray60_on_white</title><rect width="288" height="288" style="fill:#fff"/><path d="M94,172v4.53H62.5V172Zm49.64,0a17,17,0,0,1-11.58,4.53h0l-33.56,0V172ZM175,172v4.53H152.53V172Zm49.51,0v4.53h-22.5V172Zm-34.45,0-1.56,4.49L187,172Zm-41.33-8.63a16.15,16.15,0,0,1-1.81,4.52H98.51v-4.52Zm26.27,0v4.52H152.53v-4.52Zm49.51,0v4.52h-22.5v-4.52ZM94,163.34v4.52H62.5v-4.52Zm99.12,0-1.6,4.52h-6l-1.6-4.52ZM85,154.7v4.52H71.5V154.7Zm36,0v4.52h-13.5V154.7Zm27.62,0a16.5,16.5,0,0,1,.62,4.52H134.52V154.7Zm26.4,0v4.52H161.53V154.7Zm40.51,0v4.52h-13.5V154.7Zm-19.4,0-1.59,4.52h-12l-1.6-4.52ZM85,146.06v4.52H71.5v-4.52Zm58.19,0a18.12,18.12,0,0,1,3.76,4.52H107.52v-4.52Zm31.84,0v4.52H161.53v-4.52Zm40.51,0v4.52h-13.5v-4.52Zm-16.41,0-1.55,4.52H179.5l-1.56-4.52Zm-11.87-8.64,1.27,3.66,1.27-3.66h25.74v4.52h-13.5v-4.15l-1.44,4.15H176.47L175,137.79v4.15H161.53v-4.52ZM85,137.42v4.52H71.5v-4.52Zm62,0a16.55,16.55,0,0,1-3.76,4.52H107.52v-4.52ZM85,128.78v4.52H71.5v-4.52Zm36,0v4.52h-13.5v-4.52Zm28.24,0a16.5,16.5,0,0,1-.62,4.52H134.52v-4.52Zm66.29,0v4.52H191.24l1.56-4.52Zm-31.26,0,1.55,4.52H161.53v-4.52ZM94,120.14v4.52H62.5v-4.52Zm53,0a19,19,0,0,1,1.81,4.52H98.51v-4.52Zm34.34,0,1.55,4.52H152.53v-4.52Zm43.25,0v4.52H194.23l1.56-4.52ZM94,111.5V116H62.5V111.5Zm38.06,0A17.06,17.06,0,0,1,143.65,116H98.51V111.5Zm46.24,0,1.56,4.53H152.53V111.5Zm46.24,0V116H197.22l1.55-4.53Z" style="fill:#6f6f6f;fill-rule:evenodd"/></svg>