<svg id="b0a90166-5c1f-46a0-b042-793d3408a9ad" data-name="Layer 1" xmlns="http://www.w3.org/2000/svg" xmlns:xlink="http://www.w3.org/1999/xlink" viewBox="0 0 288 288">
  <defs>
    <linearGradient id="a6577eb1-39f3-4b5c-bf8b-8d10f2bc1235" x1="92.444" y1="156.444" x2="92.444" y2="133.334" gradientUnits="userSpaceOnUse">
      <stop offset="0.4" stop-color="#fff"/>
      <stop offset="1" stop-color="#fff" stop-opacity="0"/>
    </linearGradient>
    <linearGradient id="eeb666ac-96ac-4937-bbb4-2b63e182bf92" x1="10815.779" y1="-7322.551" x2="10815.779" y2="-7345.662" gradientTransform="translate(-10705.558 7477.218)" xlink:href="#a6577eb1-39f3-4b5c-bf8b-8d10f2bc1235"/>
    <linearGradient id="ab7a1430-4b56-4518-8594-f377c227bc01" x1="4642.56" y1="-5132.774" x2="4674.558" y2="-5132.774" gradientTransform="translate(-4470.118 5254.552)" gradientUnits="userSpaceOnUse">
      <stop offset="0.2"/>
      <stop offset="0.8" stop-opacity="0"/>
    </linearGradient>
    <mask id="f963c46e-cb09-441b-9a8d-bb906b546211" x="72.889" y="115.556" width="56.887" height="56.887" maskUnits="userSpaceOnUse">
      <g>
        <path d="M119.11,154.666H83.555A3.556,3.556,0,0,0,80,158.222v7.111a3.555,3.555,0,0,0,3.555,3.555H119.11a3.555,3.555,0,0,0,3.555-3.555v-7.111A3.556,3.556,0,0,0,119.11,154.666Zm0,10.667H83.555v-7.111H119.11Z" fill="#fff"/>
        <path d="M119.11,119.112H83.555A3.555,3.555,0,0,0,80,122.667v7.111a3.556,3.556,0,0,0,3.555,3.556H119.11a3.556,3.556,0,0,0,3.555-3.556v-7.111A3.555,3.555,0,0,0,119.11,119.112Zm0,10.666H83.555v-7.111H119.11Z" fill="#fff"/>
        <rect x="90.666" y="133.334" width="3.555" height="23.11" fill="url(#a6577eb1-39f3-4b5c-bf8b-8d10f2bc1235)"/>
        <rect x="108.443" y="131.556" width="3.555" height="23.11" transform="translate(220.442 286.222) rotate(180)" fill="url(#eeb666ac-96ac-4937-bbb4-2b63e182bf92)"/>
      </g>
    </mask>
    <linearGradient id="f71344d1-4026-46da-8adc-d07026b7c55f" x1="72.889" y1="172.444" x2="129.776" y2="115.556" gradientUnits="userSpaceOnUse">
      <stop offset="0.1" stop-color="#42be65"/>
      <stop offset="0.9" stop-color="#007d79"/>
    </linearGradient>
    <mask id="f41094a1-0a58-4fa7-b625-d33b0ed5c34e" x="158.22" y="115.556" width="56.887" height="56.887" maskUnits="userSpaceOnUse">
      <path d="M202.663,119.112h-32a3.556,3.556,0,0,0-3.556,3.555v42.665a3.556,3.556,0,0,0,3.556,3.556h32a3.556,3.556,0,0,0,3.555-3.556V122.667A3.555,3.555,0,0,0,202.663,119.112Zm0,46.22h-32V122.667h32Z" fill="#fff"/>
      <rect x="172.442" y="117.334" width="31.999" height="8.889" transform="translate(376.882 243.557) rotate(180)" fill="url(#ab7a1430-4b56-4518-8594-f377c227bc01)"/>
      <rect x="200.885" y="117.334" width="7.111" height="35.554"/>
      <g>
        <rect x="183.108" y="135.111" width="8.889" height="3.555" fill="#fff"/>
        <rect x="175.997" y="128" width="8.889" height="3.555" fill="#fff"/>
        <rect x="175.997" y="135.111" width="3.555" height="3.555" fill="#fff"/>
        <rect x="175.997" y="142.222" width="8.889" height="3.555" fill="#fff"/>
        <rect x="188.441" y="142.222" width="3.555" height="3.555" fill="#fff"/>
        <rect x="175.997" y="149.333" width="8.889" height="3.555" fill="#fff"/>
      </g>
    </mask>
    <linearGradient id="e7767638-cd80-4abb-98a9-0dbd0c346eaf" x1="158.22" y1="172.443" x2="215.107" y2="115.556" gradientUnits="userSpaceOnUse">
      <stop offset="0.1" stop-color="#08bdba"/>
      <stop offset="0.9" stop-color="#0f62fe"/>
    </linearGradient>
  </defs>
  <path d="M0,0H288V288H0Z" fill="#fff" fill-rule="evenodd"/>
  <path d="M144,101.334v85.332h85.331V101.334Zm71.108,71.109H158.22V115.557h56.886Z" fill="#f4f4f4" fill-rule="evenodd"/>
  <path d="M58.667,101.334v85.332H144V101.334Zm71.109,71.109H72.889V115.557h56.887Z" fill="#c9deff" fill-rule="evenodd"/>
  <g>
    <circle cx="113.777" cy="161.777" r="1.778" fill="#001d6c"/>
    <circle cx="88.888" cy="126.223" r="1.778" fill="#001d6c"/>
    <g mask="url(#f963c46e-cb09-441b-9a8d-bb906b546211)">
      <rect x="72.889" y="115.556" width="56.887" height="56.887" fill="url(#f71344d1-4026-46da-8adc-d07026b7c55f)"/>
    </g>
  </g>
  <g>
    <g mask="url(#f41094a1-0a58-4fa7-b625-d33b0ed5c34e)">
      <rect x="158.22" y="115.556" width="56.887" height="56.887" fill="url(#e7767638-cd80-4abb-98a9-0dbd0c346eaf)"/>
    </g>
    <polygon points="206.218 145.777 206.218 124.139 210.815 128.736 213.329 126.223 204.44 117.334 195.552 126.223 198.066 128.736 202.663 124.139 202.663 145.777 206.218 145.777" fill="#001d6c"/>
  </g>
</svg>
