<svg xmlns="http://www.w3.org/2000/svg" viewBox="0 0 32 32"><defs><linearGradient id="linear-gradient" x1="9" y1="32" x2="9" y2="2" gradientUnits="userSpaceOnUse"><stop offset="0"/><stop offset=".15" stop-color="#fff"/></linearGradient><linearGradient id="linear-gradient-2" y1="32" x2="32" gradientUnits="userSpaceOnUse"><stop offset=".1" stop-color="#42be65"/><stop offset=".9" stop-color="#007d79"/></linearGradient><style>.cls-5{fill:#001d6c}</style><mask id="mask" x="0" y="0" width="32" height="32" maskUnits="userSpaceOnUse"><path fill="url(#linear-gradient)" d="M8 2h2v30H8z"/><path d="M14 4v2.586l-5 5-5-5V4H2v16a7 7 0 0014 0V4zm-5.707 9.707h1.414L14 9.414v5.172l-5 5-5-5V9.414zM9 25a5.006 5.006 0 01-5-5v-2.586l4.293 4.293h1.414L14 17.414V20a5.006 5.006 0 01-5 5z" fill="#fff"/></mask></defs><g id="Layer_2" data-name="Layer 2"><g id="Light_theme_icons" data-name="Light theme icons"><g mask="url(#mask)"><path fill="url(#linear-gradient-2)" d="M0 0h32v32H0z"/></g><path class="cls-5" d="M21 28h6v2h-6zM21 18h6v2h-6zM18 21h2v6h-2zM28 21h2v6h-2z"/></g></g></svg>