<svg xmlns="http://www.w3.org/2000/svg" xmlns:xlink="http://www.w3.org/1999/xlink" viewBox="0 0 32 32"><defs><linearGradient id="a" x1="-2287.5" y1="3251.5" x2="-2280" y2="3251.5" gradientTransform="translate(2295.75 -3240.75)" gradientUnits="userSpaceOnUse"><stop offset="0" stop-opacity="0"/><stop offset=".9"/></linearGradient><linearGradient id="b" x1="-2287.5" y1="3258.5" x2="-2280" y2="3258.5" gradientTransform="translate(2288.75 -3247.75)" xlink:href="#a"/><linearGradient id="c" x1="946" y1="5523.5" x2="953.5" y2="5523.5" gradientTransform="translate(-927.5 -5500.5)" xlink:href="#a"/><linearGradient id="d" x1="946" y1="5530.5" x2="953.5" y2="5530.5" gradientTransform="translate(-927.5 -5514.5)" xlink:href="#a"/><linearGradient id="f" y1="32" x2="32" gradientUnits="userSpaceOnUse"><stop offset=".1" stop-color="#08bdba"/><stop offset=".9" stop-color="#0f62fe"/></linearGradient><mask id="e" x="0" y="0" width="32" height="32" maskUnits="userSpaceOnUse"><path d="M27 6v5H17V6h10m0-2H17a2 2 0 00-2 2v5a2 2 0 002 2h10a2 2 0 002-2V6a2 2 0 00-2-2zM11 4H6a2 2 0 00-2 2v8h2V6h5v8h2V6a2 2 0 00-2-2z" fill="#fff"/><path transform="rotate(90 12 10.75)" fill="url(#a)" d="M8.25 8.75h7.5v4h-7.5z"/><path transform="rotate(90 5 10.75)" fill="url(#b)" d="M1.25 8.75h7.5v4h-7.5z"/><path d="M27 17v5h-8v2h8a2 2 0 002-2v-5a2 2 0 00-2-2h-8v2z" fill="#fff"/><path transform="rotate(180 22.25 23)" fill="url(#c)" d="M18.5 21H26v4h-7.5z"/><path transform="rotate(180 22.25 16)" fill="url(#d)" d="M18.5 14H26v4h-7.5z"/></mask></defs><g data-name="Layer 2"><g data-name="Light theme icons"><g mask="url(#e)"><path fill="url(#f)" d="M0 0h32v32H0z"/></g><path d="M16 17v8H6v-8h10m0-2H6a2 2 0 00-2 2v8a2 2 0 002 2h10a2 2 0 002-2v-8a2 2 0 00-2-2z" fill="#001d6c"/></g></g></svg>