<svg xmlns="http://www.w3.org/2000/svg" xmlns:xlink="http://www.w3.org/1999/xlink" viewBox="0 0 32 32"><defs><linearGradient id="050_svg__a" x1="4" y1="24" x2="4" y2="9" gradientUnits="userSpaceOnUse"><stop offset=".2"/><stop offset="1" stop-opacity="0"/></linearGradient><linearGradient id="050_svg__b" x1="-1322" y1="1649" x2="-1322" y2="1634" gradientTransform="translate(1350 -1626)" xlink:href="#050_svg__a"/><linearGradient id="050_svg__d" y1="32" x2="32" gradientUnits="userSpaceOnUse"><stop offset=".1" stop-color="#08bdba"/><stop offset=".9" stop-color="#0f62fe"/></linearGradient><mask id="050_svg__c" x="0" y="0" width="32" height="32" maskUnits="userSpaceOnUse"><path d="M3.873 23A14 14 0 0125.9 6.1l-1.415 1.415A12 12 0 005.6 22zM16 29.993A13.952 13.952 0 016.1 25.9l1.414-1.414A12 12 0 0026.4 10l1.731-1A14 14 0 0116 29.993z" fill="#fff"/><path fill="url(#050_svg__a)" d="M1 9h6v15H1z"/><path transform="rotate(180 28 15.5)" fill="url(#050_svg__b)" d="M25 8h6v15h-6z"/></mask></defs><g data-name="Layer 2"><g data-name="Light theme icons"><path d="M12.5 22.659a1.5 1.5 0 01-1.5-1.5V10.842a1.5 1.5 0 012.218-1.317l9.456 5.159a1.5 1.5 0 010 2.632l-9.456 5.159a1.5 1.5 0 01-.718.184zm.5-10.974v8.631L20.911 16zm-.74-.4z" fill="#001d6c"/><g mask="url(#050_svg__c)"><path fill="url(#050_svg__d)" d="M0 0h32v32H0z"/></g></g></g></svg>