<svg xmlns="http://www.w3.org/2000/svg" xmlns:xlink="http://www.w3.org/1999/xlink" viewBox="0 0 32 32"><defs><linearGradient id="a" x1="3.719" y1="14.049" x2="18.281" y2="17.951" gradientUnits="userSpaceOnUse"><stop offset=".16" stop-opacity="0"/><stop offset=".6"/></linearGradient><linearGradient id="b" x1="-1729.281" y1="2271.951" x2="-1714.719" y2="2268.049" gradientTransform="translate(1738 -2249)" xlink:href="#a"/><linearGradient id="d" y1="32" x2="32" gradientUnits="userSpaceOnUse"><stop offset=".1" stop-color="#ee5396"/><stop offset=".9" stop-color="#8a3ffc"/></linearGradient><mask id="c" x="0" y="0" width="32" height="32" maskUnits="userSpaceOnUse"><path d="M17.742 27.125L21 24.52V17a1 1 0 01.293-.707l4.071-4.071A8.945 8.945 0 0028 5.858V4h-1.857a8.941 8.941 0 00-6.365 2.636l-4.071 4.071A1 1 0 0115 11H7.48l-2.605 3.258 12.267 1.752-.284 1.98-14-2a1 1 0 01-.639-1.615l4-5A1 1 0 017 9h7.586l3.778-3.778A10.926 10.926 0 0126.143 2H28a2 2 0 012 2v1.858a10.931 10.931 0 01-3.222 7.778L23 17.414V25a1 1 0 01-.375.781l-5 4a1 1 0 01-1.615-.639l-2-14 1.98-.284z" fill="#fff"/><path fill="url(#a)" d="M4 13h14v6H4z"/><path transform="rotate(-90 16 21)" fill="url(#b)" d="M9 18h14v6H9z"/></mask></defs><g data-name="Layer 2"><g data-name="Light theme icons"><g mask="url(#c)"><path fill="url(#d)" d="M0 0h32v32H0z"/></g><path fill="#001d6c" d="M7.293 23.293l8-8 1.415 1.414-8 8z"/></g></g></svg>