<svg xmlns="http://www.w3.org/2000/svg" viewBox="0 0 32 32"><defs><linearGradient id="linear-gradient" x1="2533.901" y1="3105.711" x2="2540.901" y2="3105.711" gradientTransform="translate(-2520.151 -3084.211)" gradientUnits="userSpaceOnUse"><stop offset=".2"/><stop offset="1" stop-color="#231f20" stop-opacity="0"/></linearGradient><linearGradient id="linear-gradient-2" y1="32" x2="32" gradientUnits="userSpaceOnUse"><stop offset=".1" stop-color="#a56eff"/><stop offset=".9" stop-color="#0f62fe"/></linearGradient><style>.cls-2{fill:#f2f2f2}</style><mask id="mask" x="0" y="0" width="32" height="32" maskUnits="userSpaceOnUse"><path d="M15 16h-4a5.006 5.006 0 00-5 5v7h2v-7a3 3 0 013-3h4a3 3 0 013 3v3h2v-3a5.006 5.006 0 00-5-5z" fill="#f3f3f3"/><path class="cls-2" d="M22 2H4v2h4v5a5 5 0 0010 0V4h4zm-9 10a3 3 0 01-3-3V8h6v1a3 3 0 01-3 3zm3-6h-6V4h6z"/><path class="cls-2" d="M5 6a1 1 0 00-1 1v6h2V7a1 1 0 00-1-1z"/><path transform="rotate(-90 17.25 21.5)" fill="url(#linear-gradient)" d="M13.75 16.75h7v9.5h-7z"/></mask></defs><g id="Layer_2" data-name="Layer 2"><g id="Light_theme_icons" data-name="Light theme icons"><path d="M21 22h2v8h-2zm5-4h2v12h-2zm-10 7h2v5h-2z" fill="#001d6c"/><g mask="url(#mask)"><path id="Color" fill="url(#linear-gradient-2)" d="M0 0h32v32H0z"/></g></g></g></svg>