<svg xmlns="http://www.w3.org/2000/svg" xmlns:xlink="http://www.w3.org/1999/xlink" viewBox="0 0 32 32"><defs><linearGradient id="057_svg__a" x1="18.646" y1="22.707" x2="18.646" y2="1.293" gradientUnits="userSpaceOnUse"><stop offset=".2"/><stop offset=".7" stop-color="#fff"/></linearGradient><linearGradient id="057_svg__b" x1="26.646" y1="22.707" x2="26.646" y2="1.293" xlink:href="#057_svg__a"/><linearGradient id="057_svg__d" y1="32" x2="32" gradientUnits="userSpaceOnUse"><stop offset=".1" stop-color="#08bdba"/><stop offset=".9" stop-color="#0f62fe"/></linearGradient><mask id="057_svg__c" x="0" y="0" width="32" height="32" maskUnits="userSpaceOnUse"><circle cx="9" cy="9" r="1" fill="#fff"/><circle cx="17" cy="9" r="1" fill="#fff"/><circle cx="25" cy="9" r="1" fill="#fff"/><path d="M16.707 22.707l-1.414-1.414 1.464-1.464a11.072 11.072 0 000-15.658l-1.464-1.464 1.414-1.414 1.464 1.464a13.071 13.071 0 010 18.486z" fill="url(#057_svg__a)"/><path d="M24.707 22.707l-1.414-1.414 1.464-1.464a11.072 11.072 0 000-15.658l-1.464-1.464 1.414-1.414 1.464 1.464a13.071 13.071 0 010 18.486z" fill="url(#057_svg__b)"/><path d="M9.414 22l.757-.757a13.071 13.071 0 000-18.486L8 .586 5.829 2.757a13.071 13.071 0 000 18.486l.757.757-4.293 4.293A1 1 0 003 28h10a1 1 0 00.707-1.707zM4 12a11 11 0 013.243-7.829L8 3.414l.757.757a11.072 11.072 0 010 15.658L8 20.586l-.757-.757A11 11 0 014 12zm1.414 14L8 23.414 10.586 26z" fill="#fff"/></mask></defs><g data-name="Layer 2"><g data-name="Light theme icons"><g mask="url(#057_svg__c)"><path fill="url(#057_svg__d)" d="M0 0h32v32H0z"/></g><path fill="#001d6c" d="M23 27.18l-2.59-2.59L19 26l4 4 7-7-1.41-1.41L23 27.18z"/></g></g></svg>