<svg xmlns="http://www.w3.org/2000/svg" viewBox="0 0 32 32"><defs><linearGradient id="070_svg__a" x1="-5485.835" y1="2135.387" x2="-5501.387" y2="2119.835" gradientTransform="rotate(90 -1683 3832)" gradientUnits="userSpaceOnUse"><stop offset="0" stop-color="#161616" stop-opacity=".3"/><stop offset="1" stop-color="#161616" stop-opacity=".05"/></linearGradient><linearGradient id="070_svg__b" x1="-5512.099" y1="2130.676" x2="-5497.128" y2="2145.651" gradientTransform="rotate(90 -1683 3832)" gradientUnits="userSpaceOnUse"><stop offset=".1" stop-color="#418bff"/><stop offset=".9" stop-color="#43d1cf"/></linearGradient></defs><g data-name="Layer 2"><g data-name="Light theme icons"><path fill="none" d="M32 0v32H0V0z"/><path d="M19 30a11 11 0 004.175-21.175 11 11 0 01-14.35 14.35A11 11 0 0019 30z" fill="url(#070_svg__a)"/><path d="M19 8a10.96 10.96 0 014.175.825 11 11 0 10-14.35 14.35A11 11 0 0119 8z" fill="url(#070_svg__b)"/><path d="M24 13a10.96 10.96 0 00-.825-4.175 11 11 0 00-14.35 14.35A11 11 0 0024 13z" fill="#001d6c"/></g></g></svg>