<svg xmlns="http://www.w3.org/2000/svg" viewBox="0 0 32 32"><defs><linearGradient id="119_svg__a" x1="8" y1="12" x2="8" y2="4" gradientUnits="userSpaceOnUse"><stop offset=".1"/><stop offset=".946" stop-opacity="0"/></linearGradient><linearGradient id="119_svg__c" y1="32" x2="32" gradientUnits="userSpaceOnUse"><stop offset=".1" stop-color="#a56eff"/><stop offset=".9" stop-color="#0f62fe"/></linearGradient><mask id="119_svg__b" x="0" y="0" width="32" height="32" maskUnits="userSpaceOnUse"><path d="M27 2h-2.025v2H27v24h-2.025v2H27a2 2 0 002-2V4a2 2 0 00-2-2zM20.975 30h-12a2 2 0 01-2-2v-3h2v3h12V4h-12v7h-2V4a2 2 0 012-2h12a2 2 0 012 2v24a2 2 0 01-2 2z" fill="#fff"/><path fill="url(#119_svg__a)" d="M6 4h4v8H6z"/></mask></defs><g data-name="Layer 2"><g data-name="Light theme icons"><g mask="url(#119_svg__b)"><path fill="url(#119_svg__c)" d="M0 0h32v32H0z"/></g><path fill="#001d6c" d="M10.573 20.586L14.159 17H2v-2h12.159l-3.586-3.586L12 10l6 6-6 6-1.427-1.414z"/></g></g></svg>