<svg xmlns="http://www.w3.org/2000/svg" xmlns:xlink="http://www.w3.org/1999/xlink" viewBox="0 0 32 32">
  <defs>
    <linearGradient id="e1eed2df-afbe-4053-9d19-6a1c5b0d14f8" x1="239.359" y1="-1762.235" x2="225.492" y2="-1776.102" gradientTransform="translate(-1404.146 1092.411) rotate(45)" gradientUnits="userSpaceOnUse">
      <stop offset="0.05" stop-opacity="0"/>
      <stop offset="0.75"/>
    </linearGradient>
    <mask id="eda61db5-2356-4a29-b0aa-f5b6aab995a3" x="0" y="0" width="32" height="32" maskUnits="userSpaceOnUse">
      <g>
        <path d="M29.707,28.293l-7.259-7.259A11,11,0,1,0,5.2,7.405l1.6,1.2a9,9,0,1,1,0,10.8l-1.6,1.2a10.988,10.988,0,0,0,15.834,1.842l7.259,7.259Z" fill="#fff"/>
        <rect x="6.7" y="-4.036" width="8.99" height="19.61" transform="translate(5.425 16.964) rotate(-90)" fill="url(#e1eed2df-afbe-4053-9d19-6a1c5b0d14f8)"/>
      </g>
    </mask>
    <linearGradient id="b9b832ca-83ea-4c3d-93bb-a4c06526ecee" y1="32" x2="32" gradientUnits="userSpaceOnUse">
      <stop offset="0.1" stop-color="#ee5396"/>
      <stop offset="0.9" stop-color="#8a3ffc"/>
    </linearGradient>
  </defs>
  <g id="af0924c5-8a22-4fc3-b19c-8de95f18eca2" data-name="Layer 2">
    <g id="a5ecf3e3-174a-4c85-8699-dbea16577adf" data-name="Dark theme icons">
      <g>
        <g mask="url(#eda61db5-2356-4a29-b0aa-f5b6aab995a3)">
          <rect id="b455ad2e-df00-4ccb-ae7b-8829a6545f38" data-name="Color" width="32" height="32" fill="url(#b9b832ca-83ea-4c3d-93bb-a4c06526ecee)"/>
        </g>
        <path d="M14,12a2,2,0,1,1-2,2,2,2,0,0,1,2-2m0-2a4,4,0,1,0,4,4,4,4,0,0,0-4-4Z" fill="#001d6c"/>
        <path d="M29,12a2,2,0,1,0,2,2,2,2,0,0,0-2-2Z" fill="#001d6c"/>
        <path d="M4,12a2,2,0,1,0,2,2,2,2,0,0,0-2-2Z" fill="#001d6c"/>
      </g>
    </g>
  </g>
</svg>
