<svg xmlns="http://www.w3.org/2000/svg" viewBox="0 0 32 32"><defs><linearGradient id="a" x1="1" y1="13" x2="11" y2="23" gradientUnits="userSpaceOnUse"><stop offset=".25" stop-opacity="0"/><stop offset=".7"/></linearGradient><linearGradient id="b" x1="21" y1="23" x2="31" y2="13" gradientUnits="userSpaceOnUse"><stop offset=".3"/><stop offset=".75" stop-opacity="0"/></linearGradient><linearGradient id="d" y1="32" x2="32" gradientUnits="userSpaceOnUse"><stop offset=".1" stop-color="#08bdba"/><stop offset=".9" stop-color="#0f62fe"/></linearGradient><mask id="c" x="0" y="0" width="32" height="32" maskUnits="userSpaceOnUse"><path d="M24.8 9.136a8.994 8.994 0 00-17.6 0A6.5 6.5 0 008.5 22H9v-2h-.5a4.5 4.5 0 01-.356-8.981l.816-.064.1-.812a6.994 6.994 0 0113.884 0l.1.812.816.064A4.5 4.5 0 0123.5 20H23v2h.5a6.5 6.5 0 001.3-12.864z" fill="#fff"/><path fill="url(#a)" d="M1 13h10v10H1z"/><path fill="url(#b)" d="M21 13h10v10H21z"/></mask></defs><g data-name="Layer 2"><g data-name="Light theme icons"><g mask="url(#c)"><path fill="url(#d)" d="M0 0h32v32H0z"/></g><circle cx="16" cy="22" r="2" fill="#001d6c"/><path d="M11 23H9v-2a6.006 6.006 0 016-6h4v2h-4a4 4 0 00-4 4zM17 29h-4v-2h4a4 4 0 004-4v-2h2v2a6.006 6.006 0 01-6 6z" fill="#001d6c"/></g></g></svg>