<svg xmlns="http://www.w3.org/2000/svg" viewBox="0 0 32 32"><defs><linearGradient id="ijde8ieu3a" x1="23" y1="30" x2="23" y2="2" gradientUnits="userSpaceOnUse"><stop offset="0" stop-color="#161616" stop-opacity=".05"/><stop offset="1" stop-color="#161616" stop-opacity=".3"/></linearGradient><linearGradient id="vmw1jhc3eb" x1="9" y1="30" x2="9" y2="2" gradientUnits="userSpaceOnUse"><stop offset="0" stop-color="#161616" stop-opacity=".3"/><stop offset="1" stop-color="#161616" stop-opacity=".05"/></linearGradient><linearGradient id="yub0rrjbfc" x1="8.929" y1="23.071" x2="23.071" y2="8.929" gradientUnits="userSpaceOnUse"><stop offset="0" stop-color="#00bab6"/><stop offset="1" stop-color="#0062ff"/></linearGradient></defs><g data-name="Layer 2"><g data-name="Light theme icons"><path fill="none" d="M0 0h32v32H0z"/><path d="M16 2v12l6-2-6 11v7a14 14 0 0 0 0-28z" fill="url(#ijde8ieu3a)"/><path d="M16 14V2a14 14 0 0 0 0 28v-7l-6-11z" fill="url(#vmw1jhc3eb)"/><path d="M16 6a10 10 0 1 0 10 10A10 10 0 0 0 16 6zm0 17-6-11 6 2 6-2z" fill="url(#yub0rrjbfc)"/></g></g></svg>