<svg xmlns="http://www.w3.org/2000/svg" viewBox="0 0 32 32"><defs><linearGradient id="CloudDataOps_svg__a" x1="238.699" y1="-1824.641" x2="224.832" y2="-1838.507" gradientTransform="rotate(45 -2096.39 -1179.154)" gradientUnits="userSpaceOnUse"><stop offset=".05" stop-opacity="0"/><stop offset=".75"/></linearGradient><linearGradient id="CloudDataOps_svg__c" y1="32" x2="32" gradientUnits="userSpaceOnUse"><stop offset=".1" stop-color="#08bdba"/><stop offset=".9" stop-color="#0f62fe"/></linearGradient><mask id="CloudDataOps_svg__b" x="0" y="0" width="32" height="32" maskUnits="userSpaceOnUse"><path d="M29.707 28.293l-7.259-7.259A11 11 0 105.2 7.405l1.6 1.2a9 9 0 110 10.8l-1.6 1.2a10.988 10.988 0 0015.834 1.842l7.259 7.259z" fill="#fff"/><path transform="rotate(-90 11.194 5.77)" fill="url(#CloudDataOps_svg__a)" d="M6.7-4.036h8.99v19.61H6.7z"/></mask></defs><g data-name="Layer 2"><g data-name="Light theme icons"><g mask="url(#CloudDataOps_svg__b)"><path fill="url(#CloudDataOps_svg__c)" d="M0 0h32v32H0z"/></g><path fill="#001d6c" d="M8.998 12h2v4h-2zM13.998 10h2v6h-2zM3.998 6h2v10h-2z"/></g></g></svg>