<svg xmlns="http://www.w3.org/2000/svg" xmlns:xlink="http://www.w3.org/1999/xlink" viewBox="0 0 32 32"><defs><linearGradient id="linear-gradient" x1="-1192" y1="-275.5" x2="-1192" y2="-267.5" gradientTransform="translate(1207 295)" gradientUnits="userSpaceOnUse"><stop offset=".1" stop-opacity="0"/><stop offset=".82"/></linearGradient><linearGradient id="linear-gradient-2" x1="-1185.5" y1="-273.5" x2="-1185.5" y2="-265.5" gradientTransform="translate(1202.5 286.5)" xlink:href="#linear-gradient"/><linearGradient id="linear-gradient-3" y1="32" x2="32" gradientUnits="userSpaceOnUse"><stop offset=".1" stop-color="#883ffa"/><stop offset=".9" stop-color="#ec5388"/></linearGradient><style>.cls-1{fill:#fff}</style><mask id="mask" x="0" y="0" width="32" height="32" maskUnits="userSpaceOnUse"><path class="cls-1" d="M24 9H2V2h22zM4 7h18V4H4zM20 18H6v-7h20v2H8v3h12v2zM18 27H2v-7h16v2H4v3h14v2z"/><path transform="rotate(-90 15 23.5)" fill="url(#linear-gradient)" d="M10.5 19.5h9v8h-9z"/><path transform="rotate(-90 17 17)" fill="url(#linear-gradient-2)" d="M15 13h4v8h-4z"/></mask></defs><g id="Layer_2" data-name="Layer 2"><g id="Light_theme_icons" data-name="Light theme icons"><g mask="url(#mask)"><path fill="url(#linear-gradient-3)" d="M0 0h32v32H0z"/></g><path d="M28.5 21.071V18.5a3.5 3.5 0 00-7 0v2.571A2 2 0 0020 23v5a2 2 0 002 2h6a2 2 0 002-2v-5a2 2 0 00-1.5-1.929zM25 17a1.5 1.5 0 011.5 1.5V21h-3v-2.5A1.5 1.5 0 0125 17zm3 11h-6v-5h6z" fill="#00196e"/></g></g></svg>