<svg id="Build_icon_here" data-name="Build icon here" xmlns="http://www.w3.org/2000/svg" viewBox="0 0 32 32"><defs><linearGradient id="mqcnb8h7ba" x1="-705.498" y1="-5230.998" x2="-692.998" y2="-5230.998" gradientTransform="translate(718.498 5249.998)" gradientUnits="userSpaceOnUse"><stop offset=".05"/><stop offset=".9" stop-opacity="0"/></linearGradient><linearGradient id="dck5r861wc" y1="32" x2="32" gradientUnits="userSpaceOnUse"><stop offset=".1" stop-color="#ee5396"/><stop offset=".9" stop-color="#8a3ffc"/></linearGradient><mask id="gh6jl55slb" x="0" y="0" width="32" height="32" maskUnits="userSpaceOnUse"><path d="M25 20H6a2 2 0 0 1-1.995-2v-4a2 2 0 0 1 2-2h20.01a2 2 0 0 1 2 2v5H26v-5H6v4h19zM26.005 10H6a2 2 0 0 1-2-1.995V4a2 2 0 0 1 2-2h20.01a2 2 0 0 1 2 2v4.01A2 2 0 0 1 26.005 10zm0-6H6v4.005L26 8z" style="fill:#fff"/><path transform="rotate(180 19.25 19)" style="fill:url(#mqcnb8h7ba)" d="M13 17h12.5v4H13z"/><circle cx="9" cy="16" r="1" style="fill:#fff"/><circle cx="9" cy="6" r="1" style="fill:#fff"/></mask></defs><g style="mask:url(#gh6jl55slb)"><path style="fill:url(#dck5r861wc)" d="M0 0h32v32H0z"/></g><path d="M26.005 30H6a2 2 0 0 1-1.995-2v-4a2 2 0 0 1 2-2h20.01a2 2 0 0 1 2 2v4.01a2 2 0 0 1-2.01 1.99zm0-6H6v4h20z" style="fill:#001d6c"/><circle cx="9" cy="26" r="1" style="fill:#001d6c"/></svg>