<svg xmlns="http://www.w3.org/2000/svg" viewBox="0 0 128 128"><defs><linearGradient id="CloudDatabasesElasticsearch_svg__b" y1="128" x2="128" gradientUnits="userSpaceOnUse"><stop offset=".1" stop-color="#ee5396"/><stop offset=".898" stop-color="#8a3ffc"/></linearGradient><mask id="CloudDatabasesElasticsearch_svg__a" x="0" y="0" width="128" height="128" maskUnits="userSpaceOnUse"><path d="M20.988 96V31.783h42.321v10.766H33.133V58.1h26.679v10.759H33.133v16.375h30.176V96zM91.184 97.1a25.779 25.779 0 01-11.59-2.344 26.706 26.706 0 01-8.282-6.488l7.176-6.993a21.678 21.678 0 005.844 4.785 14.868 14.868 0 007.313 1.75q4.23 0 6.117-1.472a4.852 4.852 0 001.886-4.047 4.37 4.37 0 00-1.332-3.359 8.489 8.489 0 00-4.554-1.7l-4.785-.644q-7.823-1.008-11.915-4.461t-4.093-10.074a14.923 14.923 0 011.289-6.3 13.282 13.282 0 013.68-4.783 16.826 16.826 0 015.75-3.037 24.95 24.95 0 017.5-1.059 34.061 34.061 0 016.211.508 22.463 22.463 0 014.921 1.471 18.962 18.962 0 014.047 2.392 38.558 38.558 0 013.59 3.174l-6.9 6.9a18.2 18.2 0 00-5.059-3.679 14.209 14.209 0 00-6.441-1.473q-3.861 0-5.563 1.381a4.4 4.4 0 00-1.7 3.588 4.548 4.548 0 001.426 3.633 9.875 9.875 0 004.828 1.8l4.879.642q15.545 2.209 15.547 14.168a14.312 14.312 0 01-1.426 6.4 14.618 14.618 0 01-4 4.968 18.858 18.858 0 01-6.207 3.219 26.977 26.977 0 01-8.157 1.134z" fill="#fff"/></mask></defs><g data-name="Layer 2"><g mask="url(#CloudDatabasesElasticsearch_svg__a)" data-name="Light theme icons"><path fill="url(#CloudDatabasesElasticsearch_svg__b)" d="M0 0h128v128H0z"/></g></g></svg>