<svg data-name="Build icon here" xmlns="http://www.w3.org/2000/svg" viewBox="0 0 32 32"><defs><linearGradient id="a" x1="8" y1="5" x2="21" y2="5" gradientUnits="userSpaceOnUse"><stop offset="0" stop-opacity="0"/><stop offset=".7"/></linearGradient><linearGradient id="c" x1="-3503.824" y1="32" x2="-3533.941" gradientTransform="matrix(1.063 0 0 -1 3754.813 32)" gradientUnits="userSpaceOnUse"><stop offset=".1" stop-color="#ee5396"/><stop offset=".9" stop-color="#8a3ffc"/></linearGradient><mask id="b" x="0" y="0" width="32" height="32" maskUnits="userSpaceOnUse"><path d="M28 16v6H4V6h16V4H4a2 2 0 00-2 2v16a2 2 0 002 2h8v4H8v2h16v-2h-4v-4h8a2 2 0 002-2v-6zM18 28h-4v-4h4z" fill="#fff"/><path fill="url(#a)" d="M8 3h13v4H8z"/></mask></defs><g mask="url(#b)"><path transform="rotate(180 16 16)" fill="url(#c)" d="M0 0h32v32H0z"/></g><path d="M11 10.938h4.891l1.693 5.906a1 1 0 001.881 0l2.822-9.938.941 3.375a1.133 1.133 0 00.94.657H30V9.062h-5.079l-1.693-5.906a.935.935 0 00-.941-.656 1.022 1.022 0 00-.94.656l-2.822 9.938-.941-3.375a1.133 1.133 0 00-.941-.657H11v1.876z" fill="#001d6c"/></svg>