<svg xmlns="http://www.w3.org/2000/svg" viewBox="0 0 32 32"><defs><linearGradient id="a" x1="-2620.973" y1="118.764" x2="-2620.973" y2="127.765" gradientTransform="matrix(1 0 0 -1 2629.473 150.265)" gradientUnits="userSpaceOnUse"><stop offset=".001" stop-opacity="0"/><stop offset=".83"/></linearGradient><linearGradient id="c" y1="32" x2="32" gradientUnits="userSpaceOnUse"><stop offset=".1" stop-color="#a56eff"/><stop offset=".9" stop-color="#0f62fe"/></linearGradient><mask id="b" x="0" y="0" width="32" height="32" maskUnits="userSpaceOnUse"><path d="M4 7H2V4a2.006 2.006 0 012-2h17v2H4z" fill="#fff"/><path d="M12 28H4a2 2 0 01-2-2V6h19v10h-2V8H4v18h8z" fill="#fff"/><path transform="rotate(90 8.5 27)" fill="url(#a)" d="M6.5 22.5h4v9h-4z"/><path d="M8 12h7v2H8z" fill="#fff"/></mask></defs><g data-name="Layer 2"><g data-name="Light theme icons"><g mask="url(#b)"><path fill="url(#c)" d="M0 0h32v32H0z"/></g><path d="M27.17 25l-2.58 2.58L26 29l4-4-4-4-1.42 1.41L27.17 25zm-12.34 0l2.58-2.58L16 21l-4 4 4 4 1.42-1.41L14.83 25zm3.91 4.57l2.588-9.658 1.932.517-2.588 9.66z" fill="#001d6c"/></g></g></svg>