<svg id="Build_icon_here" data-name="Build icon here" xmlns="http://www.w3.org/2000/svg" xmlns:xlink="http://www.w3.org/1999/xlink" viewBox="0 0 32 32">
  <defs>
    <linearGradient id="linear-gradient" x1="-705.498" y1="-5230.998" x2="-692.998" y2="-5230.998" gradientTransform="translate(718.498 5249.998)" gradientUnits="userSpaceOnUse">
      <stop offset="0.05"/>
      <stop offset="0.9" stop-opacity="0"/>
    </linearGradient>
    <mask id="mask" x="0" y="0" width="32" height="32" maskUnits="userSpaceOnUse">
      <path d="M25,20H6a2,2,0,0,1-1.995-2V14a2,2,0,0,1,2-2h20.01a2,2,0,0,1,2,2v5H26V14L6,14l0,4,19,0Z" style="fill: #fff"/>
      <path d="M26.005,10H6A2,2,0,0,1,4,8.005V4A2,2,0,0,1,6,2h20.01a2,2,0,0,1,2,2v4.01A2,2,0,0,1,26.005,10Zm0-6L6,4,6,8.005,26,8Z" style="fill: #fff"/>
      <rect x="13" y="17" width="12.5" height="4" transform="translate(38.5 38) rotate(180)" style="fill: url(#linear-gradient)"/>
      <circle cx="9" cy="16" r="1" style="fill: #fff"/>
      <circle cx="9" cy="6" r="1" style="fill: #fff"/>
    </mask>
    <linearGradient id="linear-gradient-2" y1="32" x2="32" gradientUnits="userSpaceOnUse">
      <stop offset="0.1" stop-color="#ee5396"/>
      <stop offset="0.9" stop-color="#8a3ffc"/>
    </linearGradient>
  </defs>
  <g>
    <g style="mask: url(#mask)">
      <rect width="32" height="32" style="fill: url(#linear-gradient-2)"/>
    </g>
    <path d="M26.005,30H6a2,2,0,0,1-1.995-2V24a2,2,0,0,1,2-2h20.01a2,2,0,0,1,2,2v4.01A2,2,0,0,1,26.005,30Zm0-6L6,24l0,4,20,0Z" style="fill: #001d6c"/>
    <circle cx="9" cy="26" r="1" style="fill: #001d6c"/>
  </g>
</svg>
