<svg id="Build_icon_here" data-name="Build icon here" xmlns="http://www.w3.org/2000/svg" xmlns:xlink="http://www.w3.org/1999/xlink" viewBox="0 0 32 32">
  <defs>
    <linearGradient id="linear-gradient" x1="8.344" y1="26.465" x2="1.626" y2="14.828" gradientUnits="userSpaceOnUse">
      <stop offset="0.2" stop-color="#fff" stop-opacity="0"/>
      <stop offset="0.7" stop-color="#fff"/>
    </linearGradient>
    <linearGradient id="linear-gradient-2" x1="5.724" y1="14.091" x2="28.359" y2="8.026" gradientUnits="userSpaceOnUse">
      <stop offset="0.13" stop-color="#fff" stop-opacity="0"/>
      <stop offset="0.6" stop-color="#fff"/>
    </linearGradient>
    <linearGradient id="linear-gradient-3" x1="6.857" y1="16.328" x2="27.506" y2="21.861" gradientUnits="userSpaceOnUse">
      <stop offset="0.4" stop-color="#fff"/>
      <stop offset="0.85" stop-color="#fff" stop-opacity="0"/>
    </linearGradient>
    <linearGradient id="linear-gradient-4" x1="6.527" y1="24.892" x2="17.847" y2="13.572" gradientUnits="userSpaceOnUse">
      <stop offset="0.1" stop-color="#fff" stop-opacity="0"/>
      <stop offset="0.8" stop-color="#fff"/>
    </linearGradient>
    <mask id="mask" x="0" y="0" width="32" height="32" maskUnits="userSpaceOnUse">
      <g>
        <path d="M7.383,27.02A13.919,13.919,0,0,1,2,16a14.244,14.244,0,0,1,.072-1.429l1.99.2A12.17,12.17,0,0,0,4,16a11.93,11.93,0,0,0,4.617,9.445Z" style="fill: url(#linear-gradient)"/>
        <path d="M29.926,17.441l-1.989-.206A12.007,12.007,0,0,0,16,4,11.956,11.956,0,0,0,5.9,9.54L4.215,8.46A13.993,13.993,0,0,1,30,16,14.146,14.146,0,0,1,29.926,17.441Z" style="fill: url(#linear-gradient-2)"/>
        <path d="M26.934,24l-2.858-.191a23,23,0,0,1-16.8-9.05l1.594-1.209a20.991,20.991,0,0,0,15.337,8.264l2.858.19Z" style="fill: url(#linear-gradient-3)"/>
        <path d="M9.3,25.814l-1.995-.143a15.348,15.348,0,0,1,9.556-13.084l.742,1.858A13.331,13.331,0,0,0,9.3,25.814Z" style="fill: url(#linear-gradient-4)"/>
      </g>
    </mask>
    <linearGradient id="linear-gradient-5" y1="32" x2="32" gradientUnits="userSpaceOnUse">
      <stop offset="0.1" stop-color="#08bdba"/>
      <stop offset="0.9" stop-color="#0f62fe"/>
    </linearGradient>
  </defs>
  <g>
    <g style="mask: url(#mask)">
      <rect width="32" height="32" style="fill: url(#linear-gradient-5)"/>
    </g>
    <path d="M5,12A3,3,0,1,1,8,9,3,3,0,0,1,5,12ZM5,8A1,1,0,1,0,6,9,1,1,0,0,0,5,8Z" style="fill: #001d6c"/>
    <path d="M27,26a3,3,0,1,1,3-3A3,3,0,0,1,27,26Zm0-4a1,1,0,1,0,1,1A1,1,0,0,0,27,22Z" style="fill: #001d6c"/>
    <circle cx="8" cy="26" r="2" style="fill: #001d6c"/>
    <circle cx="22" cy="12" r="2" style="fill: #001d6c"/>
  </g>
</svg>
