<svg xmlns="http://www.w3.org/2000/svg" viewBox="0 0 32 32"><defs><linearGradient id="linear-gradient" x1="89" y1="-37" x2="99" y2="-37" gradientTransform="translate(-76 49)" gradientUnits="userSpaceOnUse"><stop offset=".001" stop-opacity="0"/><stop offset=".7"/></linearGradient><linearGradient id="linear-gradient-2" x1="90" y1="-30" x2="104" y2="-30" gradientTransform="translate(-76 49)" gradientUnits="userSpaceOnUse"><stop offset=".001" stop-opacity="0"/><stop offset=".84"/></linearGradient><linearGradient id="linear-gradient-3" y1="32" x2="32" gradientUnits="userSpaceOnUse"><stop offset=".1" stop-color="#08bdba"/><stop offset=".9" stop-color="#0f62fe"/></linearGradient><style>.cls-1{fill:#fff}</style><mask id="mask" x="0" y="0" width="32" height="32" maskUnits="userSpaceOnUse"><path class="cls-1" d="M6 17.999h21v2H6zm5-7h11v2H11z"/><path fill="url(#linear-gradient)" d="M13 10h10v4H13z" id="Gradients_black_" data-name="Gradients (black)"/><path fill="url(#linear-gradient-2)" d="M14 17h14v4H14z" id="Gradients_black_2" data-name="Gradients (black)"/><path class="cls-1" d="M25.829 12.115A10.017 10.017 0 0016 4v2a8.053 8.053 0 011.513.146 7.97 7.97 0 016.352 6.348l.259 1.346 1.349.244A5.5 5.5 0 0124.508 25H16v2h8.508a7.5 7.5 0 001.321-14.884z"/></mask></defs><g id="Layer_2" data-name="Layer 2"><g id="Light_theme_icons" data-name="Light theme icons"><g mask="url(#mask)"><path id="Color" fill="url(#linear-gradient-3)" d="M0 0h32v32H0z"/></g><path d="M11 4h2v2h-2zm0 21h2v2h-2zm-5 0h2v2H6zm-5-7h2v2H1zm5-7h2v2H6z" fill="#001d6c"/></g></g></svg>