<svg xmlns="http://www.w3.org/2000/svg" viewBox="0 0 32 32"><defs><linearGradient id="linear-gradient" x1="5550" y1="-576" x2="5550" y2="-583" gradientTransform="translate(-5534 592)" gradientUnits="userSpaceOnUse"><stop offset=".3" stop-color="#fff"/><stop offset="1" stop-color="#fff" stop-opacity="0"/></linearGradient><linearGradient id="linear-gradient-2" y1="32" x2="32" gradientUnits="userSpaceOnUse"><stop offset=".1" stop-color="#08bdba"/><stop offset=".9" stop-color="#0f62fe"/></linearGradient><style>.cls-1{fill:#fff}.cls-5{fill:#001d6c}</style><mask id="mask" x="0" y="0" width="32" height="32" maskUnits="userSpaceOnUse"><circle class="cls-1" cx="9" cy="6" r="1"/><path class="cls-1" d="M26 2H6a2 2 0 00-2 2v4a2 2 0 002 2h20a2 2 0 002-2V4a2 2 0 00-2-2zm0 6H6V4h20z"/><path transform="rotate(180 16 12.5)" fill="url(#linear-gradient)" d="M15 9h2v7h-2z"/><path class="cls-1" d="M17 28v-2h-2v2H4v2h24v-2H17z"/></mask></defs><g id="Layer_2" data-name="Layer 2"><g id="Light_theme_icons" data-name="Light theme icons"><g mask="url(#mask)"><path fill="url(#linear-gradient-2)" d="M0 0h32v32H0z"/></g><circle class="cls-5" cx="9" cy="20" r="1"/><path class="cls-5" d="M6 24h20a2 2 0 002-2v-4a2 2 0 00-2-2H6a2 2 0 00-2 2v4a2 2 0 002 2zm0-6h20v4H6z"/></g></g></svg>