<svg id="Build_icon_here" data-name="Build icon here" xmlns="http://www.w3.org/2000/svg" xmlns:xlink="http://www.w3.org/1999/xlink" viewBox="0 0 32 32">
  <defs>
    <linearGradient id="linear-gradient" x1="28" y1="22" x2="28" y2="11" gradientUnits="userSpaceOnUse">
      <stop offset="0" stop-opacity="0"/>
      <stop offset="0.9"/>
    </linearGradient>
    <mask id="mask" x="0" y="0" width="32" height="32" maskUnits="userSpaceOnUse">
      <g>
        <path d="M16,31a1,1,0,0,1-.5-.136l-12-7A1,1,0,0,1,3,23V9a1,1,0,0,1,.5-.864l12-7a1,1,0,0,1,1.008,0l12,7L27.5,9.864,16,3.158,5,9.574V22.426l11,6.417,11-6.417V12h2V23a1,1,0,0,1-.5.864l-12,7A1,1,0,0,1,16,31Z" style="fill: #fff"/>
        <rect x="26" y="11" width="4" height="11" style="fill: url(#linear-gradient)"/>
      </g>
    </mask>
    <linearGradient id="linear-gradient-2" x1="-5897" y1="-2053" x2="-5865" y2="-2085" gradientTransform="matrix(1, 0, 0, -1, 5897, -2053)" gradientUnits="userSpaceOnUse">
      <stop offset="0.1" stop-color="#08bdba"/>
      <stop offset="0.9" stop-color="#0f62fe"/>
    </linearGradient>
  </defs>
  <g>
    <g style="mask: url(#mask)">
      <rect id="hexagon" width="32" height="32" transform="translate(0 32) rotate(-90)" style="fill: url(#linear-gradient-2)"/>
    </g>
    <g id="icon">
      <path d="M14,24a1,1,0,0,1-.961-.726L11.246,17H8V15h4a1,1,0,0,1,.961.726L14,19.36,17.039,8.726a1,1,0,0,1,1.922,0L20.754,15H24v2H20a1,1,0,0,1-.961-.726L18,12.64,14.961,23.274A1,1,0,0,1,14,24Z" style="fill: #001d6c"/>
    </g>
  </g>
</svg>
