<svg xmlns="http://www.w3.org/2000/svg" viewBox="0 0 32 32"><defs><linearGradient id="linear-gradient" x1="72.499" y1="-27" x2="83.499" y2="-27" gradientTransform="translate(-66.5 49.5)" gradientUnits="userSpaceOnUse"><stop offset=".001" stop-opacity="0"/><stop offset=".83"/></linearGradient><linearGradient id="linear-gradient-2" y1="32" x2="32" gradientUnits="userSpaceOnUse"><stop offset=".1" stop-color="#08bdba"/><stop offset=".9" stop-color="#0f62fe"/></linearGradient><style>.cls-5{fill:#001d6c}</style><mask id="mask" x="0" y="0" width="32" height="32" maskUnits="userSpaceOnUse"><path d="M6 20h10v-2H6v-6h18V4a2 2 0 00-2-2H6a2 2 0 00-2 2v22a2 2 0 002 2h10v-2H6zM6 4h16v6H6z" fill="#fff"/><path fill="url(#linear-gradient)" d="M5.999 16h11v13h-11z" id="Gradients_black_" data-name="Gradients (black)"/></mask></defs><g id="Layer_2" data-name="Layer 2"><g id="Light_theme_icons" data-name="Light theme icons"><g mask="url(#mask)"><path id="Color" fill="url(#linear-gradient-2)" d="M0 0h32v32H0z"/></g><circle class="cls-5" cx="9" cy="23" r="1"/><circle class="cls-5" cx="9" cy="15" r="1"/><circle class="cls-5" cx="9" cy="7" r="1"/><path class="cls-5" d="M28 23a4.913 4.913 0 00-.278-1.572l1.84-1.062-1-1.732-1.839 1.066A4.979 4.979 0 0024 18.1V16h-2v2.1a4.979 4.979 0 00-2.723 1.6l-1.839-1.062-1 1.732 1.84 1.062a4.581 4.581 0 000 3.143l-1.84 1.063 1 1.732 1.839-1.07A4.979 4.979 0 0022 27.9V30h2v-2.1a4.979 4.979 0 002.723-1.6l1.839 1.062 1-1.732-1.84-1.063A4.907 4.907 0 0028 23zm-5 3a3 3 0 113-3 3 3 0 01-3 3z"/></g></g></svg>