<svg xmlns="http://www.w3.org/2000/svg" viewBox="0 0 32 32"><g data-name="Layer 2"><g data-name="Light theme icons"><path fill="none" d="M0 0h32v32H0z"/><path d="M.211 20.414v-.46a1.771 1.771 0 012.023-1.84 1.772 1.772 0 012.024 1.84v.46a1.771 1.771 0 01-2.024 1.839 1.771 1.771 0 01-2.023-1.839zM12.031 26.875c-4.184 0-5.725-1.058-5.725-2.806a2.249 2.249 0 012.254-2.3v-.253A2.039 2.039 0 016.812 19.4c0-1.264 1.126-1.908 2.253-2.138v-.092A3.561 3.561 0 016.9 13.722c0-2.438 1.7-4.07 5.174-4.07a7.96 7.96 0 012.047.23v-.46a1.608 1.608 0 011.819-1.817h1.91v2.53h-2.668v.137a3.575 3.575 0 012.069 3.45c0 2.414-1.679 4-5.174 4a8.533 8.533 0 01-2.139-.253 1.132 1.132 0 00-.528.966c0 .575.414.919 1.448.919h3.5c2.943 0 4.208 1.288 4.208 3.519-.004 2.553-1.614 4.002-6.535 4.002zm1.469-4.622H9.364a1.55 1.55 0 00-.437 1.08c0 .875.69 1.289 2.53 1.289h1.379c1.84 0 2.529-.414 2.529-1.289 0-.689-.506-1.08-1.865-1.08zm.575-8.416v-.276c0-1.058-.667-1.656-2-1.656s-2 .6-2 1.656v.276c0 1.058.667 1.655 2 1.655s2.003-.592 2.003-1.655zM19.186 15.952c0-3.886 2.115-6.3 5.656-6.3s5.657 2.414 5.657 6.3-2.116 6.324-5.657 6.324-5.656-2.438-5.656-6.324zm7.772 1.242v-2.461c0-1.517-.782-2.391-2.116-2.391s-2.115.874-2.115 2.391v2.461c0 1.518.781 2.391 2.115 2.391s2.116-.873 2.116-2.391z" fill="#161616"/></g></g></svg>