<svg xmlns="http://www.w3.org/2000/svg" viewBox="0 0 32 32"><defs><linearGradient id="a" x1="1981.5" y1="-5128.5" x2="1992.5" y2="-5128.5" gradientTransform="translate(-1963 5148)" gradientUnits="userSpaceOnUse"><stop offset="0" stop-opacity="0"/><stop offset=".9"/></linearGradient><linearGradient id="c" y1="32" x2="32" gradientUnits="userSpaceOnUse"><stop offset=".1" stop-color="#08bdba"/><stop offset=".9" stop-color="#8a3ffc"/></linearGradient><mask id="b" x="0" y="0" width="32" height="32" maskUnits="userSpaceOnUse"><path fill="#fff" d="M13 6h4v2h-4z"/><path d="M15 28H7V4h16v20h2V4a2 2 0 00-2-2H7a2 2 0 00-2 2v24a2 2 0 002 2h8z" fill="#fff"/><path d="M15 12a4 4 0 104 4 4 4 0 00-4-4zm0 6a2 2 0 112-2 2 2 0 01-2 2zm4 3h-7a3 3 0 00-3 3v2h2v-2a1 1 0 011-1h7z" fill="#fff"/><path transform="rotate(90 24 19.5)" fill="url(#a)" d="M18.5 17.5h11v4h-11z"/></mask></defs><g data-name="Layer 2"><g data-name="Build icon here"><g mask="url(#b)"><path fill="url(#c)" d="M0 0h32v32H0z"/></g><path fill="#001d6c" d="M22 28.18l-2.59-2.59L18 27l4 4 7-7-1.41-1.41L22 28.18z"/></g></g></svg>