<svg data-name="Build icon here" xmlns="http://www.w3.org/2000/svg" viewBox="0 0 128 128"><path fill="none" d="M0 0h128v128H0z"/><path d="M10 56v-4.84h3.6V32.92H10v-4.84h13.281v4.84h-3.6v18.24h3.6V56zM28.359 28.08h13.563a7.284 7.284 0 015.418 1.959 7.077 7.077 0 011.941 5.2 7.735 7.735 0 01-.422 2.721 5.344 5.344 0 01-1.117 1.84 4.34 4.34 0 01-1.64 1.058 6.67 6.67 0 01-2.024.381v.24a6.763 6.763 0 012.1.36A5.981 5.981 0 0148.2 42.98 6.319 6.319 0 0149.742 45a6.792 6.792 0 01.617 3.039 8.879 8.879 0 01-.539 3.1 7.87 7.87 0 01-1.5 2.539 6.983 6.983 0 01-2.281 1.7A6.7 6.7 0 0143.16 56h-14.8zm6.079 11.44h6.039a2.355 2.355 0 002.562-2.559v-1.2a2.358 2.358 0 00-2.562-2.561h-6.039zm0 11.361h7a2.658 2.658 0 001.9-.66 2.444 2.444 0 00.7-1.862V47a2.433 2.433 0 00-.7-1.859 2.645 2.645 0 00-1.9-.661h-7zM75.922 37.68H75.8l-2.039 4.08-5.441 9.881L63 41.8l-2.121-4.4h-.121V56h-5.719V28.08h6.438l6.843 13.08h.08l6.758-13.08h6.485V56h-5.721zM96.238 56.48a11.03 11.03 0 01-4.277-.781 8.755 8.755 0 01-3.18-2.2 9.222 9.222 0 01-1.961-3.461 16.049 16.049 0 01-.02-9.058 9.618 9.618 0 011.9-3.46 8.41 8.41 0 013.1-2.22 10.65 10.65 0 014.2-.78 10.372 10.372 0 014.461.88 8.442 8.442 0 013.039 2.36 9.53 9.53 0 011.719 3.42 15.116 15.116 0 01.539 4.06V47H92.281v.318a4.083 4.083 0 004.637 4.482 5.532 5.532 0 003-.735 11.749 11.749 0 002.16-1.765l2.961 3.689a9.354 9.354 0 01-3.66 2.567 13.521 13.521 0 01-5.141.924zm-.121-17.6a3.528 3.528 0 00-2.82 1.18 4.632 4.632 0 00-1.016 3.14v.321h7.36v-.36a5.158 5.158 0 00-.86-3.1 3.078 3.078 0 00-2.664-1.18zM109.961 56V35h5.918v4.561h.2a6.71 6.71 0 01.563-1.7A5.139 5.139 0 01117.7 36.4a4.957 4.957 0 011.582-1.019 5.6 5.6 0 012.156-.381h1.039v5.52H121a8.42 8.42 0 00-3.859.679 2.6 2.6 0 00-1.262 2.522V56zM19.6 86.8l-2.68-5.6h-.12V100h-5.722V72.08h6.641l7.64 13.2 2.68 5.6h.121v-18.8h5.723V100h-6.641zM48.48 100.48a11.03 11.03 0 01-4.28-.78 8.755 8.755 0 01-3.18-2.2 9.222 9.222 0 01-1.961-3.461 16.049 16.049 0 01-.023-9.059 9.633 9.633 0 011.9-3.46 8.41 8.41 0 013.1-2.219 10.654 10.654 0 014.2-.781 10.369 10.369 0 014.461.88 8.442 8.442 0 013.039 2.36 9.514 9.514 0 011.719 3.42A15.116 15.116 0 0158 89.24V91H44.523v.318A4.084 4.084 0 0049.16 95.8a5.532 5.532 0 003-.735 11.715 11.715 0 002.16-1.765l2.961 3.689a9.347 9.347 0 01-3.66 2.567 13.521 13.521 0 01-5.141.924zm-.121-17.6a3.528 3.528 0 00-2.82 1.18 4.632 4.632 0 00-1.016 3.14v.321h7.36v-.36a5.158 5.158 0 00-.86-3.1 3.078 3.078 0 00-2.664-1.18zM60 79h5.719l2.039 8.48 1.445 6.4h.156l1.68-6.4 2.4-8.48h5.4l2.441 8.48L83 93.881h.16l1.442-6.4L86.641 79h5.48l-5.8 21h-6.2l-2.559-8.881-1.484-5.439h-.117l-1.441 5.439L71.961 100h-6.078zM102.6 100.48a12 12 0 01-5.122-.98 11.845 11.845 0 01-3.722-2.779l3.486-3.521a8.932 8.932 0 002.477 1.961 6.481 6.481 0 003.082.721 4.066 4.066 0 002.441-.541 1.766 1.766 0 00.68-1.459c0-.986-.711-1.574-2.121-1.762l-2.278-.279q-7.083-.879-7.082-6.481a6.522 6.522 0 01.582-2.779 6.148 6.148 0 011.637-2.16 7.645 7.645 0 012.559-1.4 10.711 10.711 0 013.383-.5 17.057 17.057 0 012.9.22 10.115 10.115 0 012.242.641 8.57 8.57 0 011.8 1.039 19.062 19.062 0 011.616 1.379l-3.4 3.478a7.745 7.745 0 00-2.26-1.578 6.129 6.129 0 00-2.578-.58 3.7 3.7 0 00-2.164.481 1.532 1.532 0 00-.637 1.281 1.765 1.765 0 00.457 1.3 3.235 3.235 0 001.742.66l2.36.32q6.919.919 6.922 6.32a6.169 6.169 0 01-.641 2.8 6.6 6.6 0 01-1.82 2.221 8.722 8.722 0 01-2.84 1.461 12.361 12.361 0 01-3.701.516z" fill="#161616"/></svg>