<svg xmlns="http://www.w3.org/2000/svg" xmlns:xlink="http://www.w3.org/1999/xlink" viewBox="0 0 32 32"><defs><linearGradient id="linear-gradient" x1="-87.5" y1="7418" x2="-78.5" y2="7418" gradientTransform="translate(104.5 -7412.5)" gradientUnits="userSpaceOnUse"><stop offset="0" stop-opacity="0"/><stop offset=".8"/></linearGradient><linearGradient id="linear-gradient-2" x1="-3731" y1="3652.5" x2="-3722" y2="3652.5" gradientTransform="translate(3732 -3642)" xlink:href="#linear-gradient"/><linearGradient id="linear-gradient-3" x1="52.5" y1="-12" x2="58.5" y2="-12" gradientTransform="translate(-46.5 38.5)" xlink:href="#linear-gradient"/><linearGradient id="linear-gradient-4" x1="3672" y1="3744.5" x2="3681" y2="3744.5" gradientTransform="translate(-3650 -3723)" xlink:href="#linear-gradient"/><linearGradient id="linear-gradient-5" y1="32" x2="32" gradientUnits="userSpaceOnUse"><stop offset=".1" stop-color="#08bdba"/><stop offset=".9" stop-color="#0f62fe"/></linearGradient><style>.cls-1{fill:#fff}.cls-8{fill:#001d6c}</style><mask id="mask" x="0" y="0" width="32" height="32" maskUnits="userSpaceOnUse"><path class="cls-1" d="M28 12h-2V8a2 2 0 00-2-2h-6V4h6a4.006 4.006 0 014 4z"/><path transform="rotate(180 21.5 5.5)" fill="url(#linear-gradient)" d="M17 3h9v5h-9z"/><path class="cls-1" d="M6 14H4V8a4.006 4.006 0 014-4h4v2H8a2 2 0 00-2 2z"/><path transform="rotate(90 5.5 10.5)" fill="url(#linear-gradient-2)" d="M1 8h9v5H1z"/><path class="cls-1" d="M11 28H8a4.006 4.006 0 01-4-4v-4h2v4a2 2 0 002 2h3z"/><path fill="url(#linear-gradient-3)" d="M6 24h6v5H6z"/><path class="cls-1" d="M24 28h-1v-2h1a2 2 0 002-2v-6h2v6a4.006 4.006 0 01-4 4z"/><path transform="rotate(-90 26.5 21.5)" fill="url(#linear-gradient-4)" d="M22 19h9v5h-9z"/></mask></defs><g id="Layer_2" data-name="Layer 2"><g id="Light_theme_icons" data-name="Light theme icons"><g mask="url(#mask)"><path fill="url(#linear-gradient-5)" d="M0 0h32v32H0z"/></g><path class="cls-8" d="M5 18a2 2 0 112-2 2 2 0 01-2 2zM27 18a2 2 0 112-2 2 2 0 01-2 2zM16 7a2 2 0 112-2 2 2 0 01-2 2zM19 30h-6a2 2 0 01-2-2V16a2 2 0 012-2h6a2 2 0 012 2v12a2 2 0 01-2 2zm-6-14v12h6V16z"/></g></g></svg>