<svg xmlns="http://www.w3.org/2000/svg" xmlns:xlink="http://www.w3.org/1999/xlink" viewBox="0 0 32 32">
  <defs>
    <linearGradient id="a7be055a-5120-4324-bf1b-8eb16b5c0257" x1="-4105" y1="20" x2="-4132" y2="20" gradientTransform="matrix(1, 0, 0, -1, 4137, 40)" gradientUnits="userSpaceOnUse">
      <stop offset="0.172" stop-opacity="0"/>
      <stop offset="0.47"/>
    </linearGradient>
    <mask id="aabc20e7-b3a7-480f-aaf9-e5849d033fe1" x="0" y="0" width="32" height="32" maskUnits="userSpaceOnUse">
      <g>
        <path d="M16,26C9.792,26,3.4,21.5,1.131,15.526l-.064-.166a1,1,0,1,1,1.866-.719L3,14.812A14.669,14.669,0,0,0,16,24a14.667,14.667,0,0,0,13-9.184l.065-.17a1,1,0,0,1,1.87.709l-.065.171C28.6,21.5,22.209,26,16,26Z" fill="#fff"/>
        <rect x="5" y="13" width="27" height="14" transform="translate(37 40) rotate(180)" fill="url(#a7be055a-5120-4324-bf1b-8eb16b5c0257)"/>
        <path d="M29.066,15.357,29,15.187A14.666,14.666,0,0,0,16,6,14.668,14.668,0,0,0,3,15.184l-.066.173a1,1,0,0,1-1.868-.714l.065-.171C3.4,8.5,9.791,4,16,4S28.6,8.5,30.87,14.474l.064.169" fill="#fff"/>
      </g>
      <path d="M16,9a6,6,0,1,1-6,6A6.007,6.007,0,0,1,16,9Zm0,10a4,4,0,1,0-4-4A4,4,0,0,0,16,19Z" fill="#fff"/>
    </mask>
    <linearGradient id="e83e4439-7e79-406a-b156-4f5ee23b0510" x1="1952" y1="32" x2="1984" gradientTransform="translate(-1952)" gradientUnits="userSpaceOnUse">
      <stop offset="0.1" stop-color="#a56eff"/>
      <stop offset="0.9" stop-color="#0f62fe"/>
    </linearGradient>
  </defs>
  <g id="bd7f3017-e5c2-45f3-a85d-1cee2f804ed3" data-name="Layer 2">
    <g id="b96de6ae-dd15-494d-8fca-1d9c725d56b0" data-name="Dark theme icons">
      <g>
        <g mask="url(#aabc20e7-b3a7-480f-aaf9-e5849d033fe1)">
          <rect width="32" height="32" fill="url(#e83e4439-7e79-406a-b156-4f5ee23b0510)"/>
        </g>
        <polygon points="24 25.18 21.41 22.59 20 24 24 28 31 21 29.59 19.59 24 25.18" fill="#001d6c"/>
      </g>
    </g>
  </g>
</svg>
