<svg data-name="Build icon here" xmlns="http://www.w3.org/2000/svg" xmlns:xlink="http://www.w3.org/1999/xlink" viewBox="0 0 32 32"><defs><linearGradient id="i4tji1ubwa" x1="21" y1="19" x2="21" y2="4" gradientUnits="userSpaceOnUse"><stop offset=".1" stop-color="#fff" stop-opacity="0"/><stop offset=".6" stop-color="#fff"/></linearGradient><linearGradient id="1vczwd9tic" x1="21.098" y1="13.17" x2="8.108" y2="5.67" gradientTransform="rotate(60 14.603 9.42)" xlink:href="#i4tji1ubwa"/><linearGradient id="wgpas9ilkd" x1="16.098" y1="10.17" x2="3.108" y2="17.67" gradientTransform="rotate(30 9.604 13.919)" xlink:href="#i4tji1ubwa"/><linearGradient id="mizstr962b" x1="11" y1="28" x2="11" y2="13" gradientUnits="userSpaceOnUse"><stop offset=".4" stop-color="#fff"/><stop offset=".9" stop-color="#fff" stop-opacity="0"/></linearGradient><linearGradient id="gy8wj3vvce" x1="23.892" y1="26.33" x2="10.902" y2="18.83" gradientTransform="rotate(60 17.397 22.58)" xlink:href="#mizstr962b"/><linearGradient id="1l28bpyovf" x1="28.892" y1="14.33" x2="15.902" y2="21.83" gradientTransform="rotate(30 22.397 18.08)" xlink:href="#mizstr962b"/><linearGradient id="hbnmmp5rvh" y1="32" x2="32" gradientUnits="userSpaceOnUse"><stop offset=".1" stop-color="#a56eff"/><stop offset=".9" stop-color="#0f62fe"/></linearGradient><mask id="dst00beoyg" x="0" y="0" width="32" height="32" maskUnits="userSpaceOnUse"><path fill="url(#i4tji1ubwa)" d="M20 4h2v15h-2z"/><path transform="rotate(-60 14.603 9.42)" fill="url(#1vczwd9tic)" d="M13.603 1.92h2v15h-2z"/><path transform="rotate(-30 9.602 13.919)" fill="url(#wgpas9ilkd)" d="M2.103 12.92h15v2h-15z"/><path fill="url(#mizstr962b)" d="M10 13h2v15h-2z"/><path transform="rotate(-60 17.397 22.58)" fill="url(#gy8wj3vvce)" d="M16.397 15.08h2v15h-2z"/><path transform="rotate(-30 22.398 18.08)" fill="url(#1l28bpyovf)" d="M14.897 17.08h15v2h-15z"/><path d="M16 30a14 14 0 1 1 14-14 14.015 14.015 0 0 1-14 14zm0-26a12 12 0 1 0 12 12A12.013 12.013 0 0 0 16 4z" fill="#fff"/></mask></defs><g mask="url(#dst00beoyg)"><path fill="url(#hbnmmp5rvh)" d="M0 0h32v32H0z"/></g><circle cx="16" cy="16" r="2" fill="#001d6c"/></svg>