<svg xmlns="http://www.w3.org/2000/svg" viewBox="0 0 32 32"><defs><linearGradient id="linear-gradient" x1="3177.8" y1="2882.123" x2="3190.8" y2="2882.123" gradientTransform="translate(-3164.8 -2871.623)" gradientUnits="userSpaceOnUse"><stop offset=".15"/><stop offset=".8" stop-color="#231f20" stop-opacity="0"/></linearGradient><linearGradient id="linear-gradient-2" y1="32" x2="32" gradientUnits="userSpaceOnUse"><stop offset=".1" stop-color="#08bdba"/><stop offset=".9" stop-color="#0f62fe"/></linearGradient><style>.cls-1{fill:#fff}.cls-5{fill:#001d6c}</style><mask id="mask" x="0" y="0" width="32" height="32" maskUnits="userSpaceOnUse"><path class="cls-1" d="M15 22c0-1.839 1.107-2.865 2.178-3.857A7.2 7.2 0 0020 12a8 8 0 00-16 0 7.189 7.189 0 002.814 6.141C7.889 19.134 9 20.16 9 22H7c0-.919-.528-1.449-1.541-2.384A9.181 9.181 0 012 12a10 10 0 0120 0 9.191 9.191 0 01-3.465 7.614C17.526 20.55 17 21.08 17 22z"/><path transform="rotate(-90 19.5 10.5)" fill="url(#linear-gradient)" d="M13 3h13v15H13z"/><path class="cls-1" d="M7 24h10v2H7zm2 4h6v2H9z"/><path d="M13 16h14v16H13z"/></mask></defs><g id="Layer_2" data-name="Layer 2"><g id="Light_theme_icons" data-name="Light theme icons"><g mask="url(#mask)"><path id="Color" fill="url(#linear-gradient-2)" d="M0 0h32v32H0z"/></g><path class="cls-5" d="M29.17 21l-2.58 2.58L28 25l4-4-4-4-1.42 1.41L29.17 21zm-12.34 0l2.58-2.58L18 17l-4 4 4 4 1.42-1.41L16.83 21z"/><path class="cls-5" transform="rotate(-75 23 21)" d="M18 20h10v2H18z"/></g></g></svg>