<svg xmlns="http://www.w3.org/2000/svg" xmlns:xlink="http://www.w3.org/1999/xlink" viewBox="0 0 32 32"><defs><linearGradient id="a" x1="15" y1="10" x2="23" y2="10" gradientUnits="userSpaceOnUse"><stop offset="0" stop-opacity="0"/><stop offset=".8"/></linearGradient><linearGradient id="b" x1="-544" y1="7036" x2="-534" y2="7036" gradientTransform="translate(552 -7032)" xlink:href="#a"/><linearGradient id="c" x1="-544" y1="7012" x2="-534" y2="7012" gradientTransform="translate(552 -6984)" xlink:href="#a"/><linearGradient id="d" x1="11" y1="16" x2="19" y2="16" xlink:href="#a"/><linearGradient id="e" x1="15" y1="22" x2="23" y2="22" xlink:href="#a"/><linearGradient id="g" y1="32" x2="32" gradientUnits="userSpaceOnUse"><stop offset=".1" stop-color="#08bdba"/><stop offset=".9" stop-color="#0f62fe"/></linearGradient><mask id="f" x="0" y="0" width="32" height="32" maskUnits="userSpaceOnUse"><path d="M23.5 29h-14v-2h13.4l5.958-11L22.9 5H9.5V3h14a1 1 0 01.879.524l6.5 12a1 1 0 010 .952l-6.5 12A1 1 0 0123.5 29z" fill="#fff"/><path d="M11 21h11v2H11a1 1 0 01-1-1 1 1 0 011-1zM18 17H7a1 1 0 01-1-1 1 1 0 011-1h11zM22 11H11a1 1 0 01-1-1 1 1 0 011-1h11z" fill="#fff"/><path fill="url(#a)" d="M15 8h8v4h-8z"/><path transform="rotate(180 13 4)" fill="url(#b)" d="M8 2h10v4H8z"/><path transform="rotate(180 13 28)" fill="url(#c)" d="M8 26h10v4H8z"/><path fill="url(#d)" d="M11 14h8v4h-8z"/><path fill="url(#e)" d="M15 20h8v4h-8z"/></mask></defs><g data-name="Layer 2"><g data-name="Light theme icons"><g mask="url(#f)"><path fill="url(#g)" d="M0 0h32v32H0z"/></g><rect x="2" y="14.969" width="2" height="2" rx="1" transform="rotate(-180 3 15.969)" fill="#001d6c"/><rect x="5" y="20.969" width="2" height="2" rx="1" transform="rotate(-180 6 21.969)" fill="#001d6c"/><rect x="5" y="8.968" width="2" height="2" rx="1" transform="rotate(-180 6 9.968)" fill="#001d6c"/></g></g></svg>