<svg xmlns="http://www.w3.org/2000/svg" viewBox="0 0 32 32"><defs><linearGradient id="a" x1="1.368" y1="9.906" x2="16.632" y2="1.094" gradientUnits="userSpaceOnUse"><stop offset=".4"/><stop offset=".85" stop-opacity="0"/></linearGradient><linearGradient id="c" x1="-9494" y1="32" x2="-9526" gradientTransform="matrix(1 0 0 -1 9526 32)" gradientUnits="userSpaceOnUse"><stop offset=".1" stop-color="#a56eff"/><stop offset=".9" stop-color="#0f62fe"/></linearGradient><mask id="b" x="0" y="0" width="32" height="32" maskUnits="userSpaceOnUse"><path d="M16 31a1 1 0 01-.5-.136l-12-7A1 1 0 013 23V12h2v10.426l11 6.417 11-6.417V9.574L16 3.158 4.5 9.864l-1-1.728 12-7a1 1 0 011.008 0l12 7A1 1 0 0129 9v14a1 1 0 01-.5.864l-12 7A1 1 0 0116 31z" fill="#fff"/><path fill="url(#a)" d="M2 0h14v11H2z"/></mask></defs><g data-name="Layer 2"><g data-name="Light theme icons"><g mask="url(#b)"><path transform="rotate(-180 16 16)" fill="url(#c)" d="M0 0h32v32H0z"/></g><path fill="#001d6c" d="M3 8h2v2H3zM16 22a6 6 0 116-6 6.006 6.006 0 01-6 6zm0-10a4 4 0 104 4 4 4 0 00-4-4z"/></g></g></svg>