<svg data-name="Build icon here" xmlns="http://www.w3.org/2000/svg" viewBox="0 0 128 128"><path d="M5.352 81.654v-1.84c0-4.232 2.574-7.359 8.093-7.359s8.094 3.127 8.094 7.359v1.84c0 4.231-2.574 7.358-8.094 7.358s-8.093-3.127-8.093-7.358zM34.055 88V39.711h13.613V50.2h.457c1.1-5.334 4.785-10.484 12.328-10.484h2.391V52.4h-3.4c-7.91 0-11.773 1.748-11.773 7.358V88zm37.168-68.064h13.613v27.869h.457c1.383-5.334 6.715-9.2 12.973-9.2 12.23 0 18.578 8.831 18.578 25.2S110.5 89.1 98.266 89.1c-6.258 0-11.59-3.956-12.973-9.2h-.457V88H71.223zm31.457 48.105V59.67c0-6.07-3.774-10.025-8.922-10.025s-8.922 2.667-8.922 7.082v14.257c0 4.414 3.769 7.082 8.922 7.082s8.922-3.955 8.922-10.025z" fill="#161616"/><path fill="none" d="M0 0h128v128H0z"/></svg>