<svg xmlns="http://www.w3.org/2000/svg" xmlns:xlink="http://www.w3.org/1999/xlink" viewBox="0 0 32 32">
  <defs>
    <linearGradient id="b23a8d84-4e62-44ad-bc64-4f4c936b68ea" x1="6" y1="25.5" x2="27" y2="25.5" gradientUnits="userSpaceOnUse">
      <stop offset="0.1" stop-opacity="0"/>
      <stop offset="0.75"/>
    </linearGradient>
    <mask id="fec84261-03c2-466f-ad8c-9cfc0a1a5e78" x="0" y="0" width="32" height="32" maskUnits="userSpaceOnUse">
      <g>
        <path d="M15,29a9.011,9.011,0,0,1-9-9V7.618l9-4.5,11,5.5V6.382L15,.882,4,6.382V20a11,11,0,0,0,22,0H24A9.011,9.011,0,0,1,15,29Z" fill="#fff"/>
        <rect x="6" y="19" width="21" height="13" fill="url(#b23a8d84-4e62-44ad-bc64-4f4c936b68ea)"/>
      </g>
    </mask>
    <linearGradient id="bd1422c8-cbfa-4b39-b01f-4dab33152473" y1="32" x2="32" gradientUnits="userSpaceOnUse">
      <stop offset="0.2" stop-color="#8a3ffc"/>
      <stop offset="0.8" stop-color="#30b0ff"/>
    </linearGradient>
  </defs>
  <g id="e872c998-fbef-4893-b702-27e802972b09" data-name="Layer 2">
    <g id="a8128f8b-98b5-46be-8cd9-c1770022fddb" data-name="Light theme icons">
      <g>
        <g mask="url(#fec84261-03c2-466f-ad8c-9cfc0a1a5e78)">
          <rect width="32" height="32" fill="url(#bd1422c8-cbfa-4b39-b01f-4dab33152473)"/>
        </g>
        <polygon points="23 15 21.586 16.414 24.172 19 16 19 16 21 24.172 21 21.586 23.586 23 25 28 20 23 15" fill="#001d6c"/>
      </g>
    </g>
  </g>
</svg>
