<svg xmlns="http://www.w3.org/2000/svg" viewBox="0 0 32 32"><defs><linearGradient id="a" x1="-144.903" y1="-24.5" x2="-134.903" y2="-24.5" gradientTransform="translate(153.903 49.5)" gradientUnits="userSpaceOnUse"><stop offset=".001" stop-opacity="0"/><stop offset=".83"/></linearGradient><linearGradient id="c" y1="32" x2="32" gradientUnits="userSpaceOnUse"><stop offset=".1" stop-color="#ee5396"/><stop offset=".9" stop-color="#8a3ffc"/></linearGradient><mask id="b" x="0" y="0" width="32" height="32" maskUnits="userSpaceOnUse"><path d="M8 22v-3H6v3a4.01 4.01 0 004.005 4H18v-2h-7.995A2.007 2.007 0 018 22z" fill="#fff"/><path fill="url(#a)" d="M9 23h10v4H9z" data-name="Gradients (black)"/><path d="M30 12a4 4 0 00-4-4h-5v2h5a2 2 0 012 2v10a2.007 2.007 0 01-2 2h-5.577l-3.465 6 1.732 1 2.887-5H26a4.01 4.01 0 004-4z" fill="#fff"/></mask></defs><g data-name="Layer 2"><g data-name="Light theme icons"><path fill="#001d6c" d="M9 1l2.549 4.938L17 6.729l-4 3.844.986 5.427-4.874-2.562L4 16l1-5.427-4-3.844 5.6-.791L9 1z"/><g mask="url(#b)"><path fill="url(#c)" d="M0 0h32v32H0z"/></g></g></g></svg>