<svg xmlns="http://www.w3.org/2000/svg" xmlns:xlink="http://www.w3.org/1999/xlink" viewBox="0 0 32 32">
  <defs>
    <linearGradient id="b07d9653-3d50-465d-915a-f51033c09674" x1="624.061" y1="714" x2="649.061" y2="714" gradientTransform="translate(730 -618) rotate(90)" gradientUnits="userSpaceOnUse">
      <stop offset="0" stop-color="#fff" stop-opacity="0"/>
      <stop offset="0.4" stop-color="#fff"/>
    </linearGradient>
    <mask id="b30f31f0-1ea8-417c-9fef-8b0affe30d28" x="0" y="0" width="32" height="32" maskUnits="userSpaceOnUse">
      <path d="M3,23.061v-17H5V22.487L16,28.9l11-6.416V6.061h2v17a1,1,0,0,1-.5.864l-12,7a1,1,0,0,1-1.008,0l-12-7A1,1,0,0,1,3,23.061Z" fill="url(#b07d9653-3d50-465d-915a-f51033c09674)"/>
    </mask>
    <linearGradient id="b37b2670-a553-48f9-991f-a38ef34d4526" x1="650" y1="730" x2="618" y2="698" gradientTransform="translate(-618 -698)" gradientUnits="userSpaceOnUse">
      <stop offset="0.1" stop-color="#be95ff"/>
      <stop offset="0.9" stop-color="#8a3ffc"/>
    </linearGradient>
  </defs>
  <g id="b6a78fd1-4cd4-49ba-8664-62b2ecd2540c" data-name="Layer 2">
    <g id="f6f74347-f00e-4fb1-a525-e1add9343987" data-name="Light theme icons">
      <g>
        <g mask="url(#b30f31f0-1ea8-417c-9fef-8b0affe30d28)">
          <rect width="32" height="32" transform="translate(32 0) rotate(90)" fill="url(#b37b2670-a553-48f9-991f-a38ef34d4526)"/>
        </g>
        <rect x="15" y="2" width="2" height="4" fill="#001d6c"/>
        <rect x="9" y="10" width="2" height="4" fill="#001d6c"/>
        <rect x="21" y="5" width="2" height="4" fill="#001d6c"/>
        <rect x="21" y="12" width="2" height="4" transform="translate(44 28) rotate(180)" fill="#001d6c"/>
        <rect x="15" y="14" width="2" height="4" fill="#001d6c"/>
        <rect x="9" y="17" width="2" height="4" fill="#001d6c"/>
        <rect x="15" y="9" width="2" height="2" fill="#001d6c"/>
        <rect x="15" y="21" width="2" height="2" fill="#001d6c"/>
        <rect x="9" y="5" width="2" height="2" fill="#001d6c"/>
        <rect x="21" y="19" width="2" height="2" transform="translate(44 40) rotate(180)" fill="#001d6c"/>
      </g>
    </g>
  </g>
</svg>
