<svg xmlns="http://www.w3.org/2000/svg" xmlns:xlink="http://www.w3.org/1999/xlink" viewBox="0 0 32 32">
  <defs>
    <linearGradient id="b27c8e37-0978-48a5-8dc5-3431b88715ed" x1="8" y1="24" x2="8" y2="8" gradientUnits="userSpaceOnUse">
      <stop offset="0.1"/>
      <stop offset="0.7" stop-opacity="0"/>
    </linearGradient>
    <linearGradient id="f64c1a95-12f2-43f7-beda-b94051f297af" x1="-4656" y1="-6698" x2="-4656" y2="-6714" gradientTransform="translate(-4632 -6690) rotate(180)" xlink:href="#b27c8e37-0978-48a5-8dc5-3431b88715ed"/>
    <linearGradient id="a852d806-b126-464b-a010-00f466ab772b" x1="28" y1="28" x2="28" y2="10" gradientUnits="userSpaceOnUse">
      <stop offset="0.05"/>
      <stop offset="0.5" stop-opacity="0"/>
    </linearGradient>
    <linearGradient id="fb2e5865-59b9-49d0-b943-b6ab95401583" x1="-4676" y1="-6692" x2="-4676" y2="-6710" gradientTransform="translate(4680 6714)" xlink:href="#a852d806-b126-464b-a010-00f466ab772b"/>
    <mask id="bb09159e-2cdf-4101-89df-c7a056d09bfd" x="0" y="0" width="32" height="32" maskUnits="userSpaceOnUse">
      <path d="M16,31a1,1,0,0,1-.5-.136l-12-7A1,1,0,0,1,3,23V5H5V22.426l11,6.416,7-4.083V9h2V25.333a1,1,0,0,1-.5.864l-8,4.667A1,1,0,0,1,16,31Z" fill="#fff"/>
      <path d="M29,27H27V9.574L16,3.158,9,7.241V23H7V6.667A1,1,0,0,1,7.5,5.8l8-4.667a1,1,0,0,1,1.008,0l12,7A1,1,0,0,1,29,9Z" fill="#fff"/>
      <polygon points="10 8 6 8 6 22 7 23 10 24 10 8" fill="url(#b27c8e37-0978-48a5-8dc5-3431b88715ed)"/>
      <polygon points="22 24 26 24 26 10 25 9 22 8 22 24" fill="url(#f64c1a95-12f2-43f7-beda-b94051f297af)"/>
      <rect x="26" y="10" width="4" height="18" fill="url(#a852d806-b126-464b-a010-00f466ab772b)"/>
      <rect x="2" y="4" width="4" height="18" transform="translate(8 26) rotate(180)" fill="url(#fb2e5865-59b9-49d0-b943-b6ab95401583)"/>
    </mask>
    <linearGradient id="f7b9dcd7-1ccc-453a-99aa-574e81a0d944" y1="32" x2="32" gradientUnits="userSpaceOnUse">
      <stop offset="0.1" stop-color="#08bdba"/>
      <stop offset="0.9" stop-color="#0f62fe"/>
    </linearGradient>
  </defs>
  <g id="b4d31c50-9ea4-4b95-87b1-cccdc86067ad" data-name="Layer 2">
    <g id="f93215b2-3018-460c-ae50-25365f226794" data-name="light theme">
      <g>
        <g mask="url(#bb09159e-2cdf-4101-89df-c7a056d09bfd)">
          <rect width="32" height="32" fill="url(#f7b9dcd7-1ccc-453a-99aa-574e81a0d944)"/>
        </g>
        <path d="M16,21.667a1,1,0,0,1-.5-.137l-4-2.333a1,1,0,0,1-.5-.864V13.667a1,1,0,0,1,.5-.864l4-2.333a1,1,0,0,1,1.008,0l4,2.333a1,1,0,0,1,.5.864v4.666a1,1,0,0,1-.5.864l-4,2.333A1,1,0,0,1,16,21.667Zm-3-3.908,3,1.75,3-1.75V14.241l-3-1.75-3,1.75Z" fill="#001d6c"/>
      </g>
    </g>
  </g>
</svg>
