<svg xmlns="http://www.w3.org/2000/svg" xmlns:xlink="http://www.w3.org/1999/xlink" viewBox="0 0 32 32">
  <defs>
    <linearGradient id="a855f2ea-0f78-4c7f-a107-f7fb664b4cde" x1="5.183" y1="17.843" x2="14.815" y2="1.161" gradientUnits="userSpaceOnUse">
      <stop offset="0.4" stop-color="#fff" stop-opacity="0"/>
      <stop offset="0.65" stop-color="#fff"/>
    </linearGradient>
    <linearGradient id="a42768b4-238e-421a-b5bd-d332de0204dc" x1="5.183" y1="205.347" x2="14.815" y2="188.665" gradientTransform="matrix(1, 0, 0, -1, 0, 219.504)" xlink:href="#a855f2ea-0f78-4c7f-a107-f7fb664b4cde"/>
    <linearGradient id="a995f652-b1b3-473b-97ec-f271066d3a5e" x1="14" y1="16" x2="25" y2="16" gradientUnits="userSpaceOnUse">
      <stop offset="0.1" stop-color="#fff" stop-opacity="0"/>
      <stop offset="0.6" stop-color="#fff"/>
    </linearGradient>
    <mask id="ea4ee4ac-42e7-490f-83c4-53f72d94913a" x="0" y="0" width="32" height="32" maskUnits="userSpaceOnUse">
      <path d="M2.864,16.5,1.136,15.5l7-12A1,1,0,0,1,9,3h9V5H9.574Z" fill="url(#a855f2ea-0f78-4c7f-a107-f7fb664b4cde)"/>
      <path d="M2.864,15.5,1.136,16.5l7,12A1,1,0,0,0,9,29h9V27H9.574Z" fill="url(#a42768b4-238e-421a-b5bd-d332de0204dc)"/>
      <rect x="14" y="15" width="11" height="2" fill="url(#a995f652-b1b3-473b-97ec-f271066d3a5e)"/>
    </mask>
    <linearGradient id="a53670cb-c3d6-481d-b47d-12b9d2e32af7" y1="32" x2="32" gradientUnits="userSpaceOnUse">
      <stop offset="0.1" stop-color="#be95ff"/>
      <stop offset="0.9" stop-color="#d12771"/>
    </linearGradient>
  </defs>
  <g id="e99644a3-9783-49dc-8ec0-7edae22719a0" data-name="Layer 2">
    <g id="ec29aa2d-d369-4a50-949a-3230a36b7732" data-name="Light theme icons">
      <g>
        <g mask="url(#ea4ee4ac-42e7-490f-83c4-53f72d94913a)">
          <rect width="32" height="32" fill="url(#a53670cb-c3d6-481d-b47d-12b9d2e32af7)"/>
        </g>
        <circle cx="29" cy="16" r="2" fill="#001d6c"/>
        <circle cx="22" cy="4" r="2" fill="#001d6c"/>
        <circle cx="22" cy="28" r="2" fill="#001d6c"/>
        <path d="M10.75,22H4.917a1,1,0,0,1-.864-.5l-2.917-5a1,1,0,0,1,0-1.008l2.917-5a1,1,0,0,1,.864-.5H10.75a1,1,0,0,1,.864.5l2.916,5a1,1,0,0,1,0,1.008l-2.916,5A1,1,0,0,1,10.75,22ZM5.491,20h4.685l2.333-4-2.333-4H5.491L3.158,16Z" fill="#001d6c"/>
      </g>
    </g>
  </g>
</svg>
