<svg xmlns="http://www.w3.org/2000/svg" viewBox="0 0 32 32"><defs><linearGradient id="a" x1="1.71" y1="22.502" x2="17.29" y2="31.498" gradientUnits="userSpaceOnUse"><stop offset=".2" stop-opacity="0"/><stop offset=".6"/></linearGradient><linearGradient id="b" x1="3541.5" y1="27" x2="3541.5" y2="18" gradientTransform="matrix(1 0 0 -1 -3520 45)" gradientUnits="userSpaceOnUse"><stop offset=".2"/><stop offset="1" stop-opacity="0"/></linearGradient><linearGradient id="d" y1="32" x2="32" gradientUnits="userSpaceOnUse"><stop offset=".1" stop-color="#42be65"/><stop offset=".9" stop-color="#007d79"/></linearGradient><mask id="c" x="0" y="0" width="32" height="32" maskUnits="userSpaceOnUse"><path d="M15.5 30.864l-12-7A1 1 0 013 23V9a1 1 0 01.5-.864l12-7a1 1 0 011.008 0l12 7A1 1 0 0129 9v14h-2V9.574L16 3.158 5 9.574v12.852l11.5 6.71z" fill="#fff"/><path fill="url(#a)" d="M2 22h15v10H2z"/><path d="M21 25.5h2v-9a1 1 0 00-.5-.864l-6-3.5a1 1 0 00-1.008 0l-6 3.5A1 1 0 009 16.5V21h2v-3.926l5-2.916 5 2.916z" fill="#fff"/><path transform="rotate(180 21.5 22.5)" fill="url(#b)" d="M19 18h5v9h-5z"/></mask></defs><g data-name="Layer 2"><g data-name="Light theme icons"><g mask="url(#c)"><path fill="url(#d)" d="M0 0h32v32H0z"/></g><path d="M16 31a1 1 0 01-.5-.136l-3-1.75a1 1 0 01-.5-.864v-3.5a1 1 0 01.5-.864l3-1.75a1 1 0 011.008 0l3 1.75a1 1 0 01.5.864v3.5a1 1 0 01-.5.864l-3 1.75A1 1 0 0116 31zm-2-3.324l2 1.166 2-1.166v-2.352l-2-1.166-2 1.166z" fill="#001d6c"/></g></g></svg>