<svg xmlns="http://www.w3.org/2000/svg" xmlns:xlink="http://www.w3.org/1999/xlink" viewBox="0 0 32 32"><defs><linearGradient id="linear-gradient" x1="17" y1="19" x2="25" y2="19" gradientUnits="userSpaceOnUse"><stop offset=".1" stop-opacity="0"/><stop offset=".7"/></linearGradient><linearGradient id="linear-gradient-2" x1="-117" y1="9" x2="-109" y2="9" gradientTransform="translate(120)" xlink:href="#linear-gradient"/><linearGradient id="linear-gradient-3" y1="32" x2="32" gradientUnits="userSpaceOnUse"><stop offset=".1" stop-color="#a56eff"/><stop offset=".9" stop-color="#0f62fe"/></linearGradient><style>.cls-1{fill:#fff}</style><mask id="mask" x="0" y="0" width="32" height="32" maskUnits="userSpaceOnUse"><path class="cls-1" transform="rotate(180 8 9)" d="M4 8h8v2H4z"/><path class="cls-1" transform="rotate(180 19 19)" d="M14 18h10v2H14z"/><path fill="url(#linear-gradient)" d="M17 17h8v4h-8z"/><path transform="rotate(180 7 9)" fill="url(#linear-gradient-2)" d="M3 7h8v4H3z"/><path class="cls-1" d="M23.155 21.741a12.027 12.027 0 10-1.414 1.414l7.552 7.552 1.414-1.414zM14 24a9.981 9.981 0 01-7.981-4H10v-2H4.841a9.988 9.988 0 0117.14-10H16v2h7.159a9.893 9.893 0 01.79 3H20v2h3.949A10.013 10.013 0 0114 24z"/></mask></defs><g id="Layer_2" data-name="Layer 2"><g id="Build_icon_here" data-name="Build icon here"><g mask="url(#mask)"><path id="Color" fill="url(#linear-gradient-3)" d="M0 0h32v32H0z"/></g><path fill="#001d6c" d="M8 13h8v2H8z"/></g></g></svg>