<svg xmlns="http://www.w3.org/2000/svg" xmlns:xlink="http://www.w3.org/1999/xlink" viewBox="0 0 32 32"><defs><linearGradient id="linear-gradient" x1="399.67" y1="7647" x2="399.67" y2="7639" gradientTransform="translate(-378.67 -7631)" gradientUnits="userSpaceOnUse"><stop offset=".2"/><stop offset="1" stop-opacity="0"/></linearGradient><linearGradient id="linear-gradient-2" x1="621.67" y1="-155" x2="621.67" y2="-163" gradientTransform="translate(-614.67 187)" xlink:href="#linear-gradient"/><linearGradient id="linear-gradient-3" y1="32" x2="32" gradientUnits="userSpaceOnUse"><stop offset=".1" stop-color="#08bdba"/><stop offset=".9" stop-color="#0f62fe"/></linearGradient><style>.cls-1{fill:#fff}.cls-6{fill:#001d6c}</style><mask id="mask" x="0" y="0" width="32" height="32" maskUnits="userSpaceOnUse"><path class="cls-1" d="M26 30h-2v-2a5.006 5.006 0 00-5-5h-6a5.006 5.006 0 00-5 5v3H6v-3a7.009 7.009 0 017-7h6a7.009 7.009 0 017 7zM16 19a7.008 7.008 0 01-7-7v-1h2v1a5 5 0 0010 0V9h2v3a7.008 7.008 0 01-7 7z"/><path transform="rotate(180 21 12)" fill="url(#linear-gradient)" d="M18 8h6v8h-6z"/><path fill="url(#linear-gradient-2)" d="M4 24h6v8H4z"/></mask></defs><g id="Layer_2" data-name="Layer 2"><g id="Light_theme_icons" data-name="Light theme icons"><g mask="url(#mask)"><path fill="url(#linear-gradient-3)" d="M0 0h32v32H0z"/></g><path class="cls-6" d="M28 2H4v2h5v5h14V4h5zm-7 5H11V4h10zM5 7a1 1 0 00-1 1v8h2V8a1 1 0 00-1-1z"/></g></g></svg>