<svg id="Build_icon_here" data-name="Build icon here" xmlns="http://www.w3.org/2000/svg" xmlns:xlink="http://www.w3.org/1999/xlink" viewBox="0 0 32 32">
  <defs>
    <linearGradient id="linear-gradient" x1="-64.5" y1="24.5" x2="-53.5" y2="24.5" gradientTransform="translate(88 -16)" gradientUnits="userSpaceOnUse">
      <stop offset="0.001" stop-opacity="0"/>
      <stop offset="0.7"/>
    </linearGradient>
    <mask id="mask" x="0" y="0" width="32" height="32" maskUnits="userSpaceOnUse">
      <path d="M28,4H4A2,2,0,0,0,2,6V22a2,2,0,0,0,2,2h8v4H8v2H24V28H20V24h8a2,2,0,0,0,2-2V6A2,2,0,0,0,28,4ZM18,28H14V24h4Zm10-6H4V6H28Z" style="fill: #fff"/>
      <g id="Gradients_black_" data-name="Gradients (black)">
        <rect x="23.5" y="6.5" width="11" height="4" transform="translate(20.5 37.5) rotate(-90)" style="fill: url(#linear-gradient)"/>
      </g>
    </mask>
    <linearGradient id="linear-gradient-2" y1="32" x2="32" gradientUnits="userSpaceOnUse">
      <stop offset="0.1" stop-color="#a56eff"/>
      <stop offset="0.9" stop-color="#0f62fe"/>
    </linearGradient>
  </defs>
  <g>
    <g style="mask: url(#mask)">
      <rect id="Color" width="32" height="32" style="fill: url(#linear-gradient-2)"/>
    </g>
    <rect x="15" y="10" width="2" height="8" style="fill: #001d6c"/>
    <rect x="20" y="14" width="2" height="4" style="fill: #001d6c"/>
    <rect x="10" y="12" width="2" height="6" style="fill: #001d6c"/>
  </g>
</svg>
