<svg id="Build_icon_here" data-name="Build icon here" xmlns="http://www.w3.org/2000/svg" xmlns:xlink="http://www.w3.org/1999/xlink" viewBox="0 0 32 32">
  <defs>
    <linearGradient id="linear-gradient" x1="15.978" y1="28.48" x2="8.014" y2="18.988" gradientUnits="userSpaceOnUse">
      <stop offset="0.1" stop-color="#fff" stop-opacity="0"/>
      <stop offset="0.9" stop-color="#fff"/>
    </linearGradient>
    <mask id="mask" x="0" y="0" width="32" height="32" maskUnits="userSpaceOnUse">
      <g>
        <polygon points="15.238 29.102 7.618 20.124 8 19 9.143 18.83 16.762 27.808 15.238 29.102" style="fill: url(#linear-gradient)"/>
        <path d="M16,30l-1.524-1.294,8.381-9.876a9,9,0,1,0-13.715,0l-1.523,1.3a11,11,0,1,1,16.762,0Z" style="fill: #fff"/>
      </g>
    </mask>
    <linearGradient id="linear-gradient-2" y1="32" x2="32" gradientUnits="userSpaceOnUse">
      <stop offset="0.1" stop-color="#a56eff"/>
      <stop offset="0.9" stop-color="#0f62fe"/>
    </linearGradient>
  </defs>
  <g>
    <g style="mask: url(#mask)">
      <rect width="32" height="32" style="fill: url(#linear-gradient-2)"/>
    </g>
    <path d="M16,14a3,3,0,1,1,3-3A3,3,0,0,1,16,14Zm0-4a1,1,0,1,0,1,1A1,1,0,0,0,16,10Z" style="fill: #001d6c"/>
    <path d="M20,19H18V17H14v2H12V17a2,2,0,0,1,2-2h4a2,2,0,0,1,2,2Z" style="fill: #001d6c"/>
  </g>
</svg>
