<svg xmlns="http://www.w3.org/2000/svg" viewBox="0 0 32 32"><defs><linearGradient id="a" x1="6" y1="24" x2="17" y2="24" gradientUnits="userSpaceOnUse"><stop offset="0" stop-opacity="0"/><stop offset=".9"/></linearGradient><linearGradient id="c" y1="32" x2="32" gradientUnits="userSpaceOnUse"><stop offset=".1" stop-color="#a56eff"/><stop offset=".9" stop-color="#0f62fe"/></linearGradient><mask id="b" x="0" y="0" width="32" height="32" maskUnits="userSpaceOnUse"><path d="M17.736 31L16 30l4-7h6a2 2 0 002-2V7a2 2 0 00-2-2H6a2 2 0 00-2 2v14a2 2 0 002 2h10v2H6a4 4 0 01-4-4V7a4 4 0 014-4h20a4 4 0 014 4v14a4 4 0 01-4 4h-4.835z" fill="#fff"/><path fill="url(#a)" d="M6 22h11v4H6z"/></mask></defs><g data-name="Layer 2"><g data-name="Light theme icons"><g mask="url(#b)"><path fill="url(#c)" d="M0 0h32v32H0z"/></g><path d="M10 19v2h2v-2a1 1 0 011-1h6a1 1 0 011 1v2h2v-2a3 3 0 00-3-3h-6a3 3 0 00-3 3zM16 7a4 4 0 104 4 4 4 0 00-4-4zm0 6a2 2 0 112-2 2 2 0 01-2 2z" fill="#001d6c"/></g></g></svg>