<svg xmlns="http://www.w3.org/2000/svg" xmlns:xlink="http://www.w3.org/1999/xlink" viewBox="0 0 32 32"><defs><linearGradient id="linear-gradient" x1="-200" y1="24.5" x2="-192" y2="24.5" gradientTransform="translate(208)" gradientUnits="userSpaceOnUse"><stop offset="0" stop-opacity="0"/><stop offset=".8"/></linearGradient><linearGradient id="linear-gradient-2" x1="-3321" y1="-3597" x2="-3313" y2="-3597" gradientTransform="translate(3335 3603)" xlink:href="#linear-gradient"/><linearGradient id="New_Gradient_Swatch_1" y1="32" x2="32" gradientUnits="userSpaceOnUse"><stop offset=".1" stop-color="#a56eff"/><stop offset=".9" stop-color="#0f62fe"/></linearGradient><style>.cls-1{fill:#fff}</style><mask id="mask" x="0" y="0" width="32" height="32" maskUnits="userSpaceOnUse"><path class="cls-1" d="M28 14h-2v-2a5.006 5.006 0 00-5-5h-6V5h6a7.008 7.008 0 017 7zM15 26h-4a7.008 7.008 0 01-7-7v-2h2v2a5.006 5.006 0 005 5h4z"/><path fill="url(#linear-gradient)" d="M8 22h8v5H8z"/><path transform="rotate(180 18 6)" fill="url(#linear-gradient-2)" d="M14 4h8v4h-8z"/><path class="cls-1" d="M2 3h12v2H2zm0 4h12v2H2zm0 4h6v2H2z"/></mask></defs><g id="Layer_2" data-name="Layer 2"><g id="Light_theme_icons" data-name="Light theme icons"><g mask="url(#mask)"><path fill="url(#New_Gradient_Swatch_1)" d="M0 0h32v32H0z"/></g><path d="M18 18h10a2 2 0 012 2v6a2 2 0 01-2 2h-2.423l-1.731 3-1.733-1 2.31-4H28v-6H18v6h3v2h-3a2 2 0 01-2-2v-6a2 2 0 012-2z" fill="#001d6c"/></g></g></svg>