<svg xmlns="http://www.w3.org/2000/svg" viewBox="0 0 32 32"><defs><linearGradient id="linear-gradient" x1="-3823" y1="272" x2="-3815" y2="272" gradientTransform="translate(3834 -248)" gradientUnits="userSpaceOnUse"><stop offset="0" stop-opacity="0"/><stop offset=".7"/></linearGradient><linearGradient id="linear-gradient-2" x1="-408" y1="-4015" x2="-399" y2="-4015" gradientTransform="translate(431.5 4031.5)" gradientUnits="userSpaceOnUse"><stop offset=".101" stop-opacity="0"/><stop offset=".9"/></linearGradient><linearGradient id="New_Gradient_Swatch_1" y1="32" x2="32" gradientUnits="userSpaceOnUse"><stop offset=".1" stop-color="#a56eff"/><stop offset=".9" stop-color="#0f62fe"/></linearGradient><style>.cls-1{fill:#fff}</style><mask id="mask" x="0" y="0" width="32" height="32" maskUnits="userSpaceOnUse"><path class="cls-1" d="M14 30H4a2 2 0 01-2-2V12a2 2 0 012-2h8v2H4v16h10v-7h2v7a2 2 0 01-2 2z"/><path transform="rotate(-90 15 24)" fill="url(#linear-gradient)" d="M11 21h8v6h-8z"/><path class="cls-1" d="M24 22h-8a2 2 0 01-2-2V4a2 2 0 012-2h10a2 2 0 012 2v16h-2V4H16v16h8z"/><path transform="rotate(90 28 16.5)" fill="url(#linear-gradient-2)" d="M23.5 13.5h9v6h-9z"/></mask></defs><g id="Layer_2" data-name="Layer 2"><g id="Light_theme_icons" data-name="Light theme icons"><g mask="url(#mask)"><path fill="url(#New_Gradient_Swatch_1)" d="M0 0h32v32H0z"/></g><path d="M6 16h6v2H6zm0 4h4v2H6zM18 8h6v2h-6zm0 4h4v2h-4zm6 16.18l-2.59-2.59L20 27l4 4 7-7-1.41-1.41L24 28.18z" fill="#001d6c"/></g></g></svg>