<svg xmlns="http://www.w3.org/2000/svg" viewBox="0 0 32 32"><defs><linearGradient id="a" x1="841.786" y1="19.43" x2="854.786" y2="19.43" gradientTransform="matrix(1.03 0 0 .848 -862.747 8.279)" gradientUnits="userSpaceOnUse"><stop offset=".1" stop-opacity="0"/><stop offset=".9"/></linearGradient><linearGradient id="c" x1="-5962" y1="5994" x2="-5994" y2="6026" gradientTransform="matrix(1 0 0 -1 5994 6026)" gradientUnits="userSpaceOnUse"><stop offset=".1" stop-color="#a56eff"/><stop offset=".9" stop-color="#0f62fe"/></linearGradient><mask id="b" x="0" y="0" width="32" height="32" maskUnits="userSpaceOnUse"><path d="M14.486 30.864L2.5 23.876a1 1 0 01-.5-.864V9h2v13.438l11.494 6.7zM11.992 13.017h-2L10 4.337a1 1 0 01.5-.866l4.02-2.313a1 1 0 011 0L27.5 8.136A1 1 0 0128 9v4h-2V9.575L15.017 3.18 12 4.917z" fill="#fff"/><path fill="#fff" d="M6 6h2v10H6z"/><path transform="rotate(30 11.138 24.76)" fill="url(#a)" d="M4.442 20.519h13.392v8.482H4.442z"/></mask></defs><g data-name="Layer 2"><g data-name="Light theme icons"><g mask="url(#b)"><path transform="rotate(90 16 16)" fill="url(#c)" d="M0 0h32v32H0z"/></g><path d="M30 26H16a2.006 2.006 0 01-2-2v-6a2.006 2.006 0 012-2h14a2.006 2.006 0 012 2v6a2.006 2.006 0 01-2 2zm-14-8v6h14v-6z" fill="#001d6c"/><circle cx="19" cy="21" r="1" fill="#001d6c"/></g></g></svg>