<svg data-name="Build icon here" xmlns="http://www.w3.org/2000/svg" xmlns:xlink="http://www.w3.org/1999/xlink" viewBox="0 0 32 32"><defs><linearGradient id="a" x1="-112.5" y1="-229.5" x2="-101.5" y2="-229.5" gradientTransform="translate(113 248)" gradientUnits="userSpaceOnUse"><stop offset=".2"/><stop offset="1" stop-opacity="0"/></linearGradient><linearGradient id="b" x1="-197.5" y1="108.5" x2="-186.5" y2="108.5" gradientTransform="translate(218 -95)" xlink:href="#a"/><linearGradient id="d" y1="32" x2="32" gradientUnits="userSpaceOnUse"><stop offset=".1" stop-color="#08bdba"/><stop offset=".9" stop-color="#0f62fe"/></linearGradient><mask id="c" x="0" y="0" width="32" height="32" maskUnits="userSpaceOnUse"><path d="M20 20v2h5.2a10.978 10.978 0 01-20.009-8H3.17A12.974 12.974 0 0026 24.274V28h2v-8zM16 3A12.953 12.953 0 006 7.726V4H4v8h8v-2H6.8a10.978 10.978 0 0120.006 8h2.024A12.91 12.91 0 0016 3z" fill="#fff"/><path transform="rotate(90 6 18.5)" fill="url(#a)" d="M.5 14.5h11v8H.5z"/><path transform="rotate(-90 26 13.5)" fill="url(#b)" d="M20.5 9.5h11v8h-11z"/></mask></defs><g mask="url(#c)"><path fill="url(#d)" d="M0 0h32v32H0z"/></g><path fill="#001d6c" d="M15 17.18l-2.59-2.59L11 16l4 4 7-7-1.41-1.41L15 17.18z"/></svg>