<svg width="289" height="289" viewBox="0 0 289 289" fill="none" xmlns="http://www.w3.org/2000/svg">
<path d="M0.0731201 0.460938H288.073V288.461H0.0731201V0.460938Z" fill="white"/>
<path fill-rule="evenodd" clip-rule="evenodd" d="M119.573 55.1006C119.573 50.4062 123.379 46.6006 128.073 46.6006H160.073C164.768 46.6006 168.573 50.4062 168.573 55.1006V87.1006C168.573 91.795 164.768 95.6006 160.073 95.6006H128.073C123.379 95.6006 119.573 91.795 119.573 87.1006V55.1006ZM128.073 47.6006C123.931 47.6006 120.573 50.9585 120.573 55.1006V87.1006C120.573 91.2427 123.931 94.6006 128.073 94.6006H160.073C164.215 94.6006 167.573 91.2427 167.573 87.1006V55.1006C167.573 50.9585 164.215 47.6006 160.073 47.6006H128.073Z" fill="#4D5358"/>
<rect width="24" height="24" transform="translate(132.073 59.1016)" fill="white" style="mix-blend-mode:multiply"/>
<path d="M144.073 62.1016C144.815 62.1016 145.54 62.3215 146.157 62.7336C146.773 63.1456 147.254 63.7313 147.538 64.4165C147.821 65.1017 147.896 65.8557 147.751 66.5832C147.606 67.3106 147.249 67.9788 146.725 68.5032C146.2 69.0277 145.532 69.3848 144.805 69.5295C144.077 69.6742 143.323 69.5999 142.638 69.3161C141.953 69.0323 141.367 68.5516 140.955 67.935C140.543 67.3183 140.323 66.5932 140.323 65.8516C140.323 64.857 140.718 63.9032 141.421 63.1999C142.125 62.4967 143.079 62.1016 144.073 62.1016ZM144.073 60.6016C143.035 60.6016 142.02 60.9095 141.156 61.4863C140.293 62.0632 139.62 62.8832 139.223 63.8425C138.825 64.8018 138.721 65.8574 138.924 66.8758C139.127 67.8942 139.627 68.8296 140.361 69.5639C141.095 70.2981 142.03 70.7981 143.049 71.0007C144.067 71.2033 145.123 71.0993 146.082 70.7019C147.042 70.3046 147.861 69.6317 148.438 68.7683C149.015 67.9049 149.323 66.8899 149.323 65.8516C149.323 64.4592 148.77 63.1238 147.785 62.1393C146.801 61.1547 145.466 60.6016 144.073 60.6016Z" fill="black"/>
<path d="M151.573 81.6016H150.073V77.8516C150.073 77.3591 149.976 76.8715 149.788 76.4165C149.599 75.9615 149.323 75.5481 148.975 75.1999C148.627 74.8517 148.213 74.5755 147.758 74.387C147.303 74.1986 146.816 74.1016 146.323 74.1016H141.823C140.829 74.1016 139.875 74.4967 139.171 75.1999C138.468 75.9032 138.073 76.857 138.073 77.8516V81.6016H136.573V77.8516C136.573 76.4592 137.126 75.1238 138.111 74.1393C139.095 73.1547 140.431 72.6016 141.823 72.6016H146.323C147.716 72.6016 149.051 73.1547 150.035 74.1393C151.02 75.1238 151.573 76.4592 151.573 77.8516V81.6016Z" fill="black"/>
<path d="M188.688 113.504H187.722C186.504 113.504 185.93 112.86 185.93 111.74V103.144H187.722V112.076H188.688V113.504Z" fill="#161616"/>
<path d="M180.918 113.671C178.762 113.671 177.474 112.173 177.474 109.835C177.474 107.525 178.72 106.027 180.862 106.027C183.144 106.027 184.194 107.707 184.194 109.709V110.297H179.336V110.479C179.336 111.529 179.938 112.243 181.114 112.243C181.996 112.243 182.528 111.823 182.976 111.249L183.942 112.327C183.34 113.153 182.276 113.671 180.918 113.671ZM180.89 107.371C179.952 107.371 179.336 108.071 179.336 109.079V109.191H182.332V109.065C182.332 108.057 181.814 107.371 180.89 107.371Z" fill="#161616"/>
<path d="M169.409 113.504V103.144H171.201V107.4H171.257C171.523 106.56 172.307 106.028 173.273 106.028C175.121 106.028 176.143 107.4 176.143 109.836C176.143 112.286 175.121 113.672 173.273 113.672C172.307 113.672 171.537 113.112 171.257 112.286H171.201V113.504H169.409ZM172.699 112.188C173.623 112.188 174.267 111.516 174.267 110.48V109.22C174.267 108.184 173.623 107.498 172.699 107.498C171.845 107.498 171.201 107.96 171.201 108.674V110.998C171.201 111.754 171.845 112.188 172.699 112.188Z" fill="#161616"/>
<path d="M163.235 113.671C161.751 113.671 160.911 112.817 160.911 111.515C160.911 110.017 162.045 109.275 164.033 109.275H165.279V108.743C165.279 107.931 164.873 107.455 163.921 107.455C163.081 107.455 162.605 107.875 162.255 108.379L161.191 107.427C161.723 106.587 162.577 106.027 164.047 106.027C166.021 106.027 167.071 106.965 167.071 108.631V112.075H167.799V113.503H166.805C166.035 113.503 165.559 112.999 165.447 112.243H165.363C165.125 113.181 164.327 113.671 163.235 113.671ZM163.837 112.369C164.635 112.369 165.279 112.005 165.279 111.319V110.353H164.131C163.193 110.353 162.731 110.675 162.731 111.249V111.487C162.731 112.075 163.137 112.369 163.837 112.369Z" fill="#161616"/>
<path d="M159.912 113.504H158.946C157.728 113.504 157.154 112.86 157.154 111.74V103.144H158.946V112.076H159.912V113.504Z" fill="#161616"/>
<path d="M149.389 110.059L150.663 106.195H152.343L149.403 114.805C149.039 115.855 148.521 116.303 147.317 116.303H146.239V114.875H147.555L147.891 113.853L145.273 106.195H147.051L148.325 110.059L148.801 111.907H148.885L149.389 110.059Z" fill="#161616"/>
<path d="M142.21 113.503H140.418V106.195H142.21V107.707H142.28C142.462 106.937 143.05 106.195 144.212 106.195H144.604V107.889H144.044C142.84 107.889 142.21 108.225 142.21 109.023V113.503Z" fill="#161616"/>
<path d="M134.244 113.671C132.76 113.671 131.92 112.817 131.92 111.515C131.92 110.017 133.054 109.275 135.042 109.275H136.288V108.743C136.288 107.931 135.882 107.455 134.93 107.455C134.09 107.455 133.614 107.875 133.264 108.379L132.2 107.427C132.732 106.587 133.586 106.027 135.056 106.027C137.03 106.027 138.08 106.965 138.08 108.631V112.075H138.808V113.503H137.814C137.044 113.503 136.568 112.999 136.456 112.243H136.372C136.134 113.181 135.336 113.671 134.244 113.671ZM134.846 112.369C135.644 112.369 136.288 112.005 136.288 111.319V110.353H135.14C134.202 110.353 133.74 110.675 133.74 111.249V111.487C133.74 112.075 134.146 112.369 134.846 112.369Z" fill="#161616"/>
<path d="M121.642 113.503H119.85V106.195H121.642V107.413H121.712C121.992 106.643 122.58 106.027 123.672 106.027C124.666 106.027 125.436 106.517 125.786 107.497H125.814C126.08 106.685 126.892 106.027 128.054 106.027C129.482 106.027 130.294 107.063 130.294 108.883V113.503H128.502V109.065C128.502 108.015 128.124 107.497 127.326 107.497C126.626 107.497 125.968 107.889 125.968 108.673V113.503H124.176V109.065C124.176 108.015 123.798 107.497 123 107.497C122.314 107.497 121.642 107.889 121.642 108.673V113.503Z" fill="#161616"/>
<path d="M116.717 105.132C115.975 105.132 115.667 104.754 115.667 104.236V103.956C115.667 103.438 115.975 103.06 116.717 103.06C117.445 103.06 117.767 103.438 117.767 103.956V104.236C117.767 104.754 117.445 105.132 116.717 105.132ZM115.821 113.504V106.196H117.613V113.504H115.821Z" fill="#161616"/>
<path d="M111.957 113.503H110.165V106.195H111.957V107.707H112.027C112.209 106.937 112.797 106.195 113.959 106.195H114.351V107.889H113.791C112.587 107.889 111.957 108.225 111.957 109.023V113.503Z" fill="#161616"/>
<path d="M103.133 113.503H101.285V103.731H105.681C107.487 103.731 108.579 104.949 108.579 106.755C108.579 108.575 107.487 109.779 105.681 109.779H103.133V113.503ZM103.133 105.341V108.183H105.513C106.227 108.183 106.661 107.791 106.661 107.077V106.433C106.661 105.719 106.227 105.341 105.513 105.341H103.133Z" fill="#161616"/>
<path d="M191.449 131.503H190.049C189.279 131.503 188.859 131.013 188.859 130.313V125.259H187.669V124.279H188.341C188.817 124.279 188.971 124.111 188.971 123.621V122.277H189.979V124.279H191.561V125.259H189.979V130.523H191.449V131.503Z" fill="#161616"/>
<path d="M180.302 131.503L182.976 127.863L180.414 124.279H181.73L183.564 126.967H183.606L185.51 124.279H186.756L184.208 127.779L186.812 131.503H185.496L183.62 128.675H183.578L181.548 131.503H180.302Z" fill="#161616"/>
<path d="M176.234 131.671C174.274 131.671 172.986 130.187 172.986 127.891C172.986 125.595 174.274 124.111 176.234 124.111C178.166 124.111 179.356 125.595 179.356 127.639V128.171H174.162V128.507C174.162 129.753 174.96 130.691 176.304 130.691C177.214 130.691 177.914 130.243 178.292 129.445L179.09 130.019C178.628 130.999 177.592 131.671 176.234 131.671ZM176.234 125.049C175.016 125.049 174.162 125.973 174.162 127.233V127.331H178.152V127.177C178.152 125.903 177.382 125.049 176.234 125.049Z" fill="#161616"/>
<path d="M171.501 131.503H170.101C169.331 131.503 168.911 131.013 168.911 130.313V125.259H167.721V124.279H168.393C168.869 124.279 169.023 124.111 169.023 123.621V122.277H170.031V124.279H171.613V125.259H170.031V130.523H171.501V131.503Z" fill="#161616"/>
<path d="M160.592 129.193L162.342 124.279H163.448L160.214 133.183C159.892 134.051 159.598 134.303 158.534 134.303H157.96V133.323H159.094L159.64 131.783L156.938 124.279H158.058L159.794 129.193L160.13 130.369H160.2L160.592 129.193Z" fill="#161616"/>
<path d="M153.573 131.503H152.453V124.279H153.573V125.609H153.643C153.895 124.923 154.553 124.279 155.729 124.279H156.163V125.399H155.505C154.301 125.399 153.573 125.917 153.573 126.603V131.503Z" fill="#161616"/>
<path d="M150.694 131.503H150.064C149.238 131.503 148.902 130.999 148.818 130.327H148.748C148.44 131.209 147.67 131.671 146.662 131.671C145.136 131.671 144.24 130.831 144.24 129.487C144.24 128.129 145.22 127.373 147.32 127.373H148.748V126.659C148.748 125.637 148.188 125.077 147.04 125.077C146.172 125.077 145.598 125.497 145.206 126.155L144.534 125.525C144.926 124.755 145.794 124.111 147.096 124.111C148.832 124.111 149.868 125.021 149.868 126.547V130.523H150.694V131.503ZM146.844 130.719C147.95 130.719 148.748 130.145 148.748 129.403V128.213H147.264C145.99 128.213 145.416 128.605 145.416 129.305V129.599C145.416 130.313 145.976 130.719 146.844 130.719Z" fill="#161616"/>
<path d="M141.153 131.504V130.328H141.097C140.663 131.224 139.977 131.672 138.983 131.672C137.177 131.672 136.043 130.202 136.043 127.892C136.043 125.582 137.177 124.112 138.983 124.112C139.977 124.112 140.719 124.546 141.097 125.456H141.153V121.144H142.273V131.504H141.153ZM139.291 130.664C140.313 130.664 141.153 130.132 141.153 129.194V126.506C141.153 125.708 140.313 125.12 139.291 125.12C138.031 125.12 137.247 125.988 137.247 127.276V128.508C137.247 129.796 138.031 130.664 139.291 130.664Z" fill="#161616"/>
<path d="M129.536 131.503H128.416V124.279H129.536V125.455H129.592C129.942 124.643 130.558 124.111 131.636 124.111C133.12 124.111 134.058 125.119 134.058 126.869V131.503H132.938V127.065C132.938 125.777 132.378 125.119 131.3 125.119C130.404 125.119 129.536 125.567 129.536 126.491V131.503Z" fill="#161616"/>
<path d="M123.152 131.671C121.22 131.671 119.89 130.187 119.89 127.891C119.89 125.595 121.22 124.111 123.152 124.111C125.084 124.111 126.414 125.595 126.414 127.891C126.414 130.187 125.084 131.671 123.152 131.671ZM123.152 130.677C124.356 130.677 125.21 129.935 125.21 128.409V127.373C125.21 125.847 124.356 125.105 123.152 125.105C121.948 125.105 121.094 125.847 121.094 127.373V128.409C121.094 129.935 121.948 130.677 123.152 130.677Z" fill="#161616"/>
<path d="M115.991 131.671C113.961 131.671 112.771 130.201 112.771 127.891C112.771 125.581 113.961 124.111 115.991 124.111C117.419 124.111 118.273 124.811 118.693 125.805L117.755 126.281C117.489 125.539 116.873 125.105 115.991 125.105C114.661 125.105 113.975 126.015 113.975 127.275V128.507C113.975 129.767 114.661 130.677 115.991 130.677C116.901 130.677 117.559 130.243 117.951 129.417L118.763 129.963C118.301 130.999 117.363 131.671 115.991 131.671Z" fill="#161616"/>
<path d="M108.175 131.671C106.215 131.671 104.927 130.187 104.927 127.891C104.927 125.595 106.215 124.111 108.175 124.111C110.107 124.111 111.297 125.595 111.297 127.639V128.171H106.103V128.507C106.103 129.753 106.901 130.691 108.245 130.691C109.155 130.691 109.855 130.243 110.233 129.445L111.031 130.019C110.569 130.999 109.533 131.671 108.175 131.671ZM108.175 125.049C106.957 125.049 106.103 125.973 106.103 127.233V127.331H110.093V127.177C110.093 125.903 109.323 125.049 108.175 125.049Z" fill="#161616"/>
<path d="M100.02 131.671C98.4525 131.671 97.3465 131.027 96.5625 129.963L97.4305 129.235C98.1165 130.145 98.9285 130.635 100.063 130.635C101.463 130.635 102.219 129.907 102.219 128.787C102.219 127.863 101.701 127.401 100.413 127.107L99.6145 126.925C97.8365 126.519 96.8565 125.735 96.8565 124.237C96.8565 122.501 98.1725 121.563 100.091 121.563C101.561 121.563 102.596 122.123 103.325 123.159L102.443 123.803C101.911 123.061 101.169 122.599 100.035 122.599C98.7885 122.599 98.0185 123.145 98.0185 124.195C98.0185 125.119 98.6205 125.539 99.8525 125.819L100.651 126.001C102.555 126.435 103.381 127.275 103.381 128.731C103.381 130.523 102.121 131.671 100.02 131.671Z" fill="#161616"/>
<path d="M54.1144 181.621C54.1144 177.203 57.6961 173.621 62.1144 173.621H227.114C231.533 173.621 235.114 177.203 235.114 181.621V213.621C235.114 218.039 231.533 221.621 227.114 221.621H62.1144C57.6961 221.621 54.1144 218.039 54.1144 213.621V181.621Z" fill="white"/>
<path fill-rule="evenodd" clip-rule="evenodd" d="M227.114 174.621H62.1144C58.2484 174.621 55.1144 177.755 55.1144 181.621V213.621C55.1144 217.487 58.2484 220.621 62.1144 220.621H227.114C230.98 220.621 234.114 217.487 234.114 213.621V181.621C234.114 177.755 230.98 174.621 227.114 174.621ZM62.1144 173.621C57.6961 173.621 54.1144 177.203 54.1144 181.621V213.621C54.1144 218.039 57.6961 221.621 62.1144 221.621H227.114C231.533 221.621 235.114 218.039 235.114 213.621V181.621C235.114 177.203 231.533 173.621 227.114 173.621H62.1144Z" fill="#4D5358"/>
<path d="M205.589 211.621H204.189C203.419 211.621 202.999 211.131 202.999 210.431V205.377H201.809V204.397H202.481C202.957 204.397 203.111 204.229 203.111 203.739V202.395H204.119V204.397H205.701V205.377H204.119V210.641H205.589V211.621Z" fill="#161616"/>
<path d="M194.442 211.62L197.116 207.98L194.554 204.396H195.87L197.704 207.084H197.746L199.65 204.396H200.896L198.348 207.896L200.952 211.62H199.636L197.76 208.792H197.718L195.688 211.62H194.442Z" fill="#161616"/>
<path d="M190.374 211.789C188.414 211.789 187.126 210.305 187.126 208.009C187.126 205.713 188.414 204.229 190.374 204.229C192.306 204.229 193.496 205.713 193.496 207.757V208.289H188.302V208.625C188.302 209.871 189.1 210.809 190.444 210.809C191.354 210.809 192.054 210.361 192.432 209.563L193.23 210.137C192.768 211.117 191.732 211.789 190.374 211.789ZM190.374 205.167C189.156 205.167 188.302 206.091 188.302 207.351V207.449H192.292V207.295C192.292 206.021 191.522 205.167 190.374 205.167Z" fill="#161616"/>
<path d="M185.641 211.621H184.241C183.471 211.621 183.051 211.131 183.051 210.431V205.377H181.861V204.397H182.533C183.009 204.397 183.163 204.229 183.163 203.739V202.395H184.171V204.397H185.753V205.377H184.171V210.641H185.641V211.621Z" fill="#161616"/>
<path d="M174.732 209.31L176.482 204.396H177.588L174.354 213.3C174.032 214.168 173.738 214.42 172.674 214.42H172.1V213.44H173.234L173.78 211.9L171.078 204.396H172.198L173.934 209.31L174.27 210.486H174.34L174.732 209.31Z" fill="#161616"/>
<path d="M167.712 211.62H166.592V204.396H167.712V205.726H167.782C168.034 205.04 168.692 204.396 169.868 204.396H170.302V205.516H169.644C168.44 205.516 167.712 206.034 167.712 206.72V211.62Z" fill="#161616"/>
<path d="M164.834 211.621H164.204C163.378 211.621 163.042 211.117 162.958 210.445H162.888C162.58 211.327 161.81 211.789 160.802 211.789C159.276 211.789 158.38 210.949 158.38 209.605C158.38 208.247 159.36 207.491 161.46 207.491H162.888V206.777C162.888 205.755 162.328 205.195 161.18 205.195C160.312 205.195 159.738 205.615 159.346 206.273L158.674 205.643C159.066 204.873 159.934 204.229 161.236 204.229C162.972 204.229 164.008 205.139 164.008 206.665V210.641H164.834V211.621ZM160.984 210.837C162.09 210.837 162.888 210.263 162.888 209.521V208.331H161.404C160.13 208.331 159.556 208.723 159.556 209.423V209.717C159.556 210.431 160.116 210.837 160.984 210.837Z" fill="#161616"/>
<path d="M155.293 211.621V210.445H155.237C154.803 211.341 154.117 211.789 153.123 211.789C151.317 211.789 150.183 210.319 150.183 208.009C150.183 205.699 151.317 204.229 153.123 204.229C154.117 204.229 154.859 204.663 155.237 205.573H155.293V201.261H156.413V211.621H155.293ZM153.431 210.781C154.453 210.781 155.293 210.249 155.293 209.311V206.623C155.293 205.825 154.453 205.237 153.431 205.237C152.171 205.237 151.387 206.105 151.387 207.393V208.625C151.387 209.913 152.171 210.781 153.431 210.781Z" fill="#161616"/>
<path d="M143.676 211.621H142.556V204.397H143.676V205.573H143.732C144.082 204.761 144.698 204.229 145.776 204.229C147.26 204.229 148.198 205.237 148.198 206.987V211.621H147.078V207.183C147.078 205.895 146.518 205.237 145.44 205.237C144.544 205.237 143.676 205.685 143.676 206.609V211.621Z" fill="#161616"/>
<path d="M137.292 211.789C135.36 211.789 134.03 210.305 134.03 208.009C134.03 205.713 135.36 204.229 137.292 204.229C139.224 204.229 140.554 205.713 140.554 208.009C140.554 210.305 139.224 211.789 137.292 211.789ZM137.292 210.795C138.496 210.795 139.35 210.053 139.35 208.527V207.491C139.35 205.965 138.496 205.223 137.292 205.223C136.088 205.223 135.234 205.965 135.234 207.491V208.527C135.234 210.053 136.088 210.795 137.292 210.795Z" fill="#161616"/>
<path d="M130.131 211.789C128.101 211.789 126.911 210.319 126.911 208.009C126.911 205.699 128.101 204.229 130.131 204.229C131.559 204.229 132.413 204.929 132.833 205.923L131.895 206.399C131.629 205.657 131.013 205.223 130.131 205.223C128.801 205.223 128.115 206.133 128.115 207.393V208.625C128.115 209.885 128.801 210.795 130.131 210.795C131.041 210.795 131.699 210.361 132.091 209.535L132.903 210.081C132.441 211.117 131.503 211.789 130.131 211.789Z" fill="#161616"/>
<path d="M122.315 211.789C120.355 211.789 119.067 210.305 119.067 208.009C119.067 205.713 120.355 204.229 122.315 204.229C124.247 204.229 125.437 205.713 125.437 207.757V208.289H120.243V208.625C120.243 209.871 121.041 210.809 122.385 210.809C123.295 210.809 123.995 210.361 124.373 209.563L125.171 210.137C124.709 211.117 123.673 211.789 122.315 211.789ZM122.315 205.167C121.097 205.167 120.243 206.091 120.243 207.351V207.449H124.233V207.295C124.233 206.021 123.463 205.167 122.315 205.167Z" fill="#161616"/>
<path d="M114.16 211.789C112.592 211.789 111.486 211.145 110.702 210.081L111.57 209.353C112.256 210.263 113.068 210.753 114.202 210.753C115.602 210.753 116.358 210.025 116.358 208.905C116.358 207.981 115.84 207.519 114.552 207.225L113.754 207.043C111.976 206.637 110.996 205.853 110.996 204.355C110.996 202.619 112.312 201.681 114.23 201.681C115.7 201.681 116.736 202.241 117.464 203.277L116.582 203.921C116.05 203.179 115.308 202.717 114.174 202.717C112.928 202.717 112.158 203.263 112.158 204.313C112.158 205.237 112.76 205.657 113.992 205.937L114.79 206.119C116.694 206.553 117.52 207.393 117.52 208.849C117.52 210.641 116.26 211.789 114.16 211.789Z" fill="#161616"/>
<path d="M198.666 193.621H197.7C196.482 193.621 195.908 192.977 195.908 191.857V183.261H197.7V192.193H198.666V193.621Z" fill="#161616"/>
<path d="M190.896 193.789C188.74 193.789 187.452 192.291 187.452 189.953C187.452 187.643 188.698 186.145 190.84 186.145C193.122 186.145 194.172 187.825 194.172 189.827V190.415H189.314V190.597C189.314 191.647 189.916 192.361 191.092 192.361C191.974 192.361 192.506 191.941 192.954 191.367L193.92 192.445C193.318 193.271 192.254 193.789 190.896 193.789ZM190.868 187.489C189.93 187.489 189.314 188.189 189.314 189.197V189.309H192.31V189.183C192.31 188.175 191.792 187.489 190.868 187.489Z" fill="#161616"/>
<path d="M179.387 193.621V183.261H181.179V187.517H181.235C181.501 186.677 182.285 186.145 183.251 186.145C185.099 186.145 186.121 187.517 186.121 189.953C186.121 192.403 185.099 193.789 183.251 193.789C182.285 193.789 181.515 193.229 181.235 192.403H181.179V193.621H179.387ZM182.677 192.305C183.601 192.305 184.245 191.633 184.245 190.597V189.337C184.245 188.301 183.601 187.615 182.677 187.615C181.823 187.615 181.179 188.077 181.179 188.791V191.115C181.179 191.871 181.823 192.305 182.677 192.305Z" fill="#161616"/>
<path d="M173.213 193.789C171.729 193.789 170.889 192.935 170.889 191.633C170.889 190.135 172.023 189.393 174.011 189.393H175.257V188.861C175.257 188.049 174.851 187.573 173.899 187.573C173.059 187.573 172.583 187.993 172.233 188.497L171.169 187.545C171.701 186.705 172.555 186.145 174.025 186.145C175.999 186.145 177.049 187.083 177.049 188.749V192.193H177.777V193.621H176.783C176.013 193.621 175.537 193.117 175.425 192.361H175.341C175.103 193.299 174.305 193.789 173.213 193.789ZM173.815 192.487C174.613 192.487 175.257 192.123 175.257 191.437V190.471H174.109C173.171 190.471 172.709 190.793 172.709 191.367V191.605C172.709 192.193 173.115 192.487 173.815 192.487Z" fill="#161616"/>
<path d="M169.889 193.621H168.923C167.705 193.621 167.131 192.977 167.131 191.857V183.261H168.923V192.193H169.889V193.621Z" fill="#161616"/>
<path d="M159.367 190.176L160.641 186.312H162.321L159.381 194.923C159.017 195.973 158.499 196.42 157.295 196.42H156.217V194.993H157.533L157.869 193.971L155.251 186.312H157.029L158.303 190.176L158.779 192.025H158.863L159.367 190.176Z" fill="#161616"/>
<path d="M152.188 193.621H150.396V186.312H152.188V187.824H152.258C152.44 187.054 153.028 186.312 154.19 186.312H154.582V188.006H154.022C152.818 188.006 152.188 188.342 152.188 189.14V193.621Z" fill="#161616"/>
<path d="M144.221 193.789C142.737 193.789 141.897 192.935 141.897 191.633C141.897 190.135 143.031 189.393 145.019 189.393H146.265V188.861C146.265 188.049 145.859 187.573 144.907 187.573C144.067 187.573 143.591 187.993 143.241 188.497L142.177 187.545C142.709 186.705 143.563 186.145 145.033 186.145C147.007 186.145 148.057 187.083 148.057 188.749V192.193H148.785V193.621H147.791C147.021 193.621 146.545 193.117 146.433 192.361H146.349C146.111 193.299 145.313 193.789 144.221 193.789ZM144.823 192.487C145.621 192.487 146.265 192.123 146.265 191.437V190.471H145.117C144.179 190.471 143.717 190.793 143.717 191.367V191.605C143.717 192.193 144.123 192.487 144.823 192.487Z" fill="#161616"/>
<path d="M131.62 193.621H129.828V186.313H131.62V187.531H131.69C131.97 186.761 132.558 186.145 133.65 186.145C134.644 186.145 135.414 186.635 135.764 187.615H135.792C136.058 186.803 136.87 186.145 138.032 186.145C139.46 186.145 140.272 187.181 140.272 189.001V193.621H138.48V189.183C138.48 188.133 138.102 187.615 137.304 187.615C136.604 187.615 135.946 188.007 135.946 188.791V193.621H134.154V189.183C134.154 188.133 133.776 187.615 132.978 187.615C132.292 187.615 131.62 188.007 131.62 188.791V193.621Z" fill="#161616"/>
<path d="M126.694 185.249C125.952 185.249 125.644 184.871 125.644 184.353V184.073C125.644 183.555 125.952 183.177 126.694 183.177C127.422 183.177 127.744 183.555 127.744 184.073V184.353C127.744 184.871 127.422 185.249 126.694 185.249ZM125.798 193.621V186.313H127.59V193.621H125.798Z" fill="#161616"/>
<path d="M121.934 193.621H120.142V186.312H121.934V187.824H122.004C122.186 187.054 122.774 186.312 123.936 186.312H124.328V188.006H123.768C122.564 188.006 121.934 188.342 121.934 189.14V193.621Z" fill="#161616"/>
<path d="M113.11 193.621H111.262V183.849H115.658C117.464 183.849 118.556 185.067 118.556 186.873C118.556 188.693 117.464 189.897 115.658 189.897H113.11V193.621ZM113.11 185.459V188.301H115.49C116.204 188.301 116.638 187.909 116.638 187.195V186.551C116.638 185.837 116.204 185.459 115.49 185.459H113.11Z" fill="#161616"/>
<rect width="24" height="24" transform="translate(70.1144 185.621)" fill="white" style="mix-blend-mode:multiply"/>
<path d="M82.1144 188.621C82.8561 188.621 83.5811 188.841 84.1978 189.253C84.8145 189.665 85.2951 190.251 85.5789 190.936C85.8628 191.621 85.937 192.375 85.7923 193.103C85.6476 193.83 85.2905 194.498 84.766 195.023C84.2416 195.547 83.5734 195.904 82.846 196.049C82.1185 196.194 81.3645 196.119 80.6793 195.836C79.9941 195.552 79.4084 195.071 78.9964 194.454C78.5843 193.838 78.3644 193.113 78.3644 192.371C78.3644 191.377 78.7595 190.423 79.4627 189.719C80.166 189.016 81.1198 188.621 82.1144 188.621ZM82.1144 187.121C81.076 187.121 80.061 187.429 79.1976 188.006C78.3343 188.583 77.6614 189.403 77.264 190.362C76.8667 191.321 76.7627 192.377 76.9653 193.395C77.1678 194.414 77.6678 195.349 78.4021 196.083C79.1363 196.818 80.0718 197.318 81.0902 197.52C82.1086 197.723 83.1642 197.619 84.1235 197.221C85.0828 196.824 85.9027 196.151 86.4796 195.288C87.0565 194.424 87.3644 193.409 87.3644 192.371C87.3644 190.979 86.8113 189.643 85.8267 188.659C84.8421 187.674 83.5068 187.121 82.1144 187.121Z" fill="black"/>
<path d="M89.6144 208.121H88.1144V204.371C88.1144 203.879 88.0174 203.391 87.8289 202.936C87.6405 202.481 87.3642 202.068 87.016 201.719C86.6678 201.371 86.2544 201.095 85.7994 200.907C85.3445 200.718 84.8568 200.621 84.3644 200.621H79.8644C78.8698 200.621 77.916 201.016 77.2127 201.719C76.5095 202.423 76.1144 203.377 76.1144 204.371V208.121H74.6144V204.371C74.6144 202.979 75.1675 201.643 76.1521 200.659C77.1366 199.674 78.472 199.121 79.8644 199.121H84.3644C85.7568 199.121 87.0921 199.674 88.0767 200.659C89.0613 201.643 89.6144 202.979 89.6144 204.371V208.121Z" fill="black"/>
<g clip-path="url(#clip0_329_5421)">
<path d="M254.671 172.122L256.963 169.002L254.767 165.93H255.895L257.467 168.234H257.503L259.135 165.93H260.203L258.019 168.93L260.251 172.122H259.123L257.515 169.698H257.479L255.739 172.122H254.671Z" fill="#D12771"/>
<path d="M248.618 174.521V165.929H249.578V166.937H249.626C249.95 166.157 250.586 165.785 251.438 165.785C252.986 165.785 253.958 167.045 253.958 169.025C253.958 171.005 252.986 172.265 251.438 172.265C250.586 172.265 249.998 171.881 249.626 171.113H249.578V174.521H248.618ZM251.174 171.401C252.254 171.401 252.926 170.657 252.926 169.553V168.497C252.926 167.393 252.254 166.649 251.174 166.649C250.298 166.649 249.578 167.153 249.578 167.837V170.141C249.578 170.945 250.298 171.401 251.174 171.401Z" fill="#D12771"/>
<path d="M244.003 172.266C242.095 172.266 241.099 171.222 241.099 169.842C241.099 168.702 241.783 168.042 242.791 167.766V167.67C241.915 167.37 241.351 166.662 241.351 165.702C241.351 164.43 242.335 163.602 244.003 163.602C245.671 163.602 246.655 164.43 246.655 165.702C246.655 166.662 246.091 167.37 245.215 167.67V167.766C246.223 168.042 246.907 168.702 246.907 169.842C246.907 171.222 245.911 172.266 244.003 172.266ZM244.003 171.39C245.167 171.39 245.839 170.838 245.839 169.89V169.638C245.839 168.69 245.167 168.138 244.003 168.138C242.839 168.138 242.167 168.69 242.167 169.638V169.89C242.167 170.838 242.839 171.39 244.003 171.39ZM244.003 167.298C245.047 167.298 245.611 166.83 245.611 165.978V165.798C245.611 164.946 245.047 164.478 244.003 164.478C242.959 164.478 242.395 164.946 242.395 165.798V165.978C242.395 166.83 242.959 167.298 244.003 167.298Z" fill="#D12771"/>
<path fill-rule="evenodd" clip-rule="evenodd" d="M233.057 169.619C234.689 170.117 236.684 171.13 237.993 173.192C238.533 174.044 238.94 174.764 239.205 175.6C239.47 176.438 239.583 177.362 239.583 178.621H238.583C238.583 177.421 238.475 176.608 238.251 175.902C238.027 175.193 237.677 174.562 237.148 173.728C236.014 171.94 234.266 171.034 232.765 170.575C232.017 170.347 231.34 170.233 230.852 170.176C230.608 170.148 230.412 170.134 230.279 170.128C230.213 170.124 230.162 170.123 230.129 170.122L230.092 170.121L230.085 170.121C230.085 170.121 230.084 170.121 230.083 169.621C230.082 169.121 230.082 169.121 230.082 169.121H230.084L230.089 169.121L230.103 169.121C230.114 169.121 230.131 169.122 230.152 169.122C230.194 169.123 230.254 169.125 230.33 169.129C230.482 169.137 230.7 169.152 230.967 169.183C231.501 169.245 232.238 169.369 233.057 169.619Z" fill="#D12771"/>
</g>
<g clip-path="url(#clip1_329_5421)">
<path d="M187.882 45.6217L190.174 42.5017L187.978 39.4297H189.106L190.678 41.7337H190.714L192.346 39.4297H193.414L191.23 42.4297L193.462 45.6217H192.334L190.726 43.1977H190.69L188.95 45.6217H187.882Z" fill="#D12771"/>
<path d="M181.83 48.0212V39.4292H182.79V40.4372H182.838C183.162 39.6572 183.798 39.2852 184.65 39.2852C186.198 39.2852 187.17 40.5452 187.17 42.5252C187.17 44.5052 186.198 45.7652 184.65 45.7652C183.798 45.7652 183.21 45.3812 182.838 44.6132H182.79V48.0212H181.83ZM184.386 44.9012C185.466 44.9012 186.138 44.1572 186.138 43.0532V41.9972C186.138 40.8932 185.466 40.1492 184.386 40.1492C183.51 40.1492 182.79 40.6532 182.79 41.3372V43.6412C182.79 44.4452 183.51 44.9012 184.386 44.9012Z" fill="#D12771"/>
<path d="M177.214 45.7656C175.306 45.7656 174.31 44.7216 174.31 43.3416C174.31 42.2016 174.994 41.5416 176.002 41.2656V41.1696C175.126 40.8696 174.562 40.1616 174.562 39.2016C174.562 37.9296 175.546 37.1016 177.214 37.1016C178.882 37.1016 179.866 37.9296 179.866 39.2016C179.866 40.1616 179.302 40.8696 178.426 41.1696V41.2656C179.434 41.5416 180.118 42.2016 180.118 43.3416C180.118 44.7216 179.122 45.7656 177.214 45.7656ZM177.214 44.8896C178.378 44.8896 179.05 44.3376 179.05 43.3896V43.1376C179.05 42.1896 178.378 41.6376 177.214 41.6376C176.05 41.6376 175.378 42.1896 175.378 43.1376V43.3896C175.378 44.3376 176.05 44.8896 177.214 44.8896ZM177.214 40.7976C178.258 40.7976 178.822 40.3296 178.822 39.4776V39.2976C178.822 38.4456 178.258 37.9776 177.214 37.9776C176.17 37.9776 175.606 38.4456 175.606 39.2976V39.4776C175.606 40.3296 176.17 40.7976 177.214 40.7976Z" fill="#D12771"/>
<path fill-rule="evenodd" clip-rule="evenodd" d="M166.268 43.1188C167.9 43.6172 169.896 44.6302 171.204 46.6919C171.744 47.5441 172.151 48.2642 172.416 49.1001C172.681 49.9382 172.794 50.8624 172.794 52.1211H171.794C171.794 50.9214 171.686 50.1082 171.462 49.4018C171.238 48.6932 170.889 48.0618 170.359 47.2277C169.225 45.44 167.477 44.5338 165.976 44.0752C165.228 43.8467 164.552 43.7328 164.063 43.6763C163.819 43.6481 163.624 43.6343 163.49 43.6276C163.424 43.6242 163.373 43.6226 163.34 43.6219L163.304 43.6212L163.296 43.6212C163.296 43.6212 163.295 43.6212 163.294 43.1212C163.293 42.6212 163.293 42.6212 163.294 42.6212H163.296L163.3 42.6212L163.314 42.6213C163.325 42.6214 163.342 42.6217 163.363 42.6221C163.405 42.6231 163.465 42.625 163.541 42.6289C163.693 42.6366 163.911 42.652 164.178 42.683C164.712 42.7447 165.45 42.8688 166.268 43.1188Z" fill="#D12771"/>
</g>
<defs>
<clipPath id="clip0_329_5421">
<rect width="31.3201" height="19.5" fill="white" transform="translate(230.083 159.121)"/>
</clipPath>
<clipPath id="clip1_329_5421">
<rect width="31.3201" height="19.5" fill="white" transform="translate(163.294 32.6211)"/>
</clipPath>
</defs>
</svg>
