<svg width="288" height="289" viewBox="0 0 288 289" fill="none" xmlns="http://www.w3.org/2000/svg">
<path d="M0 0.460938H288V288.461H0V0.460938Z" fill="white"/>
<path fill-rule="evenodd" clip-rule="evenodd" d="M119.5 75.0977C119.5 61.5667 130.469 50.5977 144 50.5977C157.531 50.5977 168.5 61.5667 168.5 75.0977C168.5 88.6286 157.531 99.5977 144 99.5977C130.469 99.5977 119.5 88.6286 119.5 75.0977ZM144 51.5977C131.021 51.5977 120.5 62.119 120.5 75.0977C120.5 88.0763 131.021 98.5977 144 98.5977C156.979 98.5977 167.5 88.0763 167.5 75.0977C167.5 62.119 156.979 51.5977 144 51.5977Z" fill="#4D5358"/>
<rect width="24" height="24" transform="translate(132 63.0977)" fill="white" style="mix-blend-mode:multiply"/>
<path d="M144 66.0977C144.742 66.0977 145.467 66.3176 146.083 66.7296C146.7 67.1417 147.181 67.7274 147.465 68.4126C147.748 69.0978 147.823 69.8518 147.678 70.5792C147.533 71.3067 147.176 71.9749 146.652 72.4993C146.127 73.0238 145.459 73.3809 144.732 73.5256C144.004 73.6703 143.25 73.596 142.565 73.3122C141.88 73.0284 141.294 72.5477 140.882 71.931C140.47 71.3144 140.25 70.5893 140.25 69.8477C140.25 68.8531 140.645 67.8993 141.348 67.196C142.052 66.4927 143.005 66.0977 144 66.0977ZM144 64.5977C142.962 64.5977 141.947 64.9056 141.083 65.4824C140.22 66.0593 139.547 66.8793 139.15 67.8386C138.752 68.7979 138.648 69.8535 138.851 70.8719C139.053 71.8903 139.553 72.8257 140.288 73.56C141.022 74.2942 141.957 74.7942 142.976 74.9968C143.994 75.1994 145.05 75.0954 146.009 74.698C146.968 74.3007 147.788 73.6278 148.365 72.7644C148.942 71.901 149.25 70.886 149.25 69.8477C149.25 68.4553 148.697 67.1199 147.712 66.1353C146.728 65.1508 145.392 64.5977 144 64.5977Z" fill="black"/>
<path d="M151.5 85.5977H150V81.8477C150 81.3552 149.903 80.8676 149.715 80.4126C149.526 79.9576 149.25 79.5442 148.902 79.196C148.553 78.8478 148.14 78.5716 147.685 78.3831C147.23 78.1947 146.742 78.0977 146.25 78.0977H141.75C140.755 78.0977 139.802 78.4927 139.098 79.196C138.395 79.8993 138 80.8531 138 81.8477V85.5977H136.5V81.8477C136.5 80.4553 137.053 79.1199 138.038 78.1353C139.022 77.1508 140.358 76.5977 141.75 76.5977H146.25C147.642 76.5977 148.978 77.1508 149.962 78.1353C150.947 79.1199 151.5 80.4553 151.5 81.8477V85.5977Z" fill="black"/>
<path fill-rule="evenodd" clip-rule="evenodd" d="M94.5 205.989C94.5 192.458 105.469 181.489 119 181.489C132.531 181.489 143.5 192.458 143.5 205.989C143.5 219.52 132.531 230.489 119 230.489C105.469 230.489 94.5 219.52 94.5 205.989ZM119 182.489C106.021 182.489 95.5 193.011 95.5 205.989C95.5 218.968 106.021 229.489 119 229.489C131.979 229.489 142.5 218.968 142.5 205.989C142.5 193.011 131.979 182.489 119 182.489Z" fill="#4D5358"/>
<g style="mix-blend-mode:multiply">
<rect x="144" y="190.133" width="8" height="32" fill="#D9FBFB"/>
</g>
<path d="M144.5 190.133V222.133" stroke="#007D79" stroke-dasharray="2"/>
<path d="M151.5 190.133V222.133" stroke="#007D79" stroke-dasharray="2"/>
<g style="mix-blend-mode:multiply">
<rect x="95.5" y="99.5039" width="97" height="8" fill="#D9FBFB"/>
</g>
<path d="M95.5 100.004H192.5" stroke="#007D79" stroke-dasharray="2"/>
<path d="M95.5 107.004H192.5" stroke="#007D79" stroke-dasharray="2"/>
<path d="M151.595 29.6178L153.887 26.4978L151.691 23.4258H152.819L154.391 25.7298H154.427L156.059 23.4258H157.127L154.943 26.4258L157.175 29.6178H156.047L154.439 27.1938H154.403L152.663 29.6178H151.595Z" fill="#D12771"/>
<path d="M145.223 32.0173V23.4252H146.183V24.4332H146.231C146.555 23.6532 147.191 23.2812 148.043 23.2812C149.591 23.2812 150.563 24.5412 150.563 26.5212C150.563 28.5012 149.591 29.7613 148.043 29.7613C147.191 29.7613 146.603 29.3772 146.231 28.6092H146.183V32.0173H145.223ZM147.779 28.8972C148.859 28.8972 149.531 28.1533 149.531 27.0493V25.9932C149.531 24.8892 148.859 24.1452 147.779 24.1452C146.903 24.1452 146.183 24.6492 146.183 25.3332V27.6372C146.183 28.4412 146.903 28.8972 147.779 28.8972Z" fill="#D12771"/>
<path d="M142.147 29.6172H141.187V27.9732H137.143V27.0852L140.647 21.2412H142.147V27.1332H143.359V27.9732H142.147V29.6172ZM141.127 22.0212L138.091 27.1332H141.187V22.0212H141.127Z" fill="#D12771"/>
<path d="M135.568 28.7297V29.6177H130.072V28.5857L132.808 26.0657C133.588 25.3457 134.188 24.5057 134.188 23.7017V23.5577C134.188 22.6337 133.672 21.9977 132.64 21.9977C131.608 21.9977 131.128 22.6217 130.9 23.4137L130 23.0657C130.324 22.0817 131.068 21.0977 132.688 21.0977C134.32 21.0977 135.256 22.1057 135.256 23.5337C135.256 24.8297 134.488 25.7417 133.42 26.7017L131.164 28.7297H135.568Z" fill="#D12771"/>
<path d="M143.088 36.0176H144.088V63.0976H143.088V36.0176Z" fill="#D12771"/>
<rect x="131.588" y="63.0977" width="24" height="24" stroke="#D12771"/>
<path d="M128.42 257.698L130.712 254.578L128.516 251.506H129.644L131.216 253.81H131.252L132.884 251.506H133.952L131.768 254.506L134 257.698H132.872L131.264 255.274H131.228L129.488 257.698H128.42Z" fill="#D12771"/>
<path d="M122.048 260.097V251.505H123.008V252.513H123.056C123.38 251.733 124.016 251.361 124.868 251.361C126.416 251.361 127.388 252.621 127.388 254.601C127.388 256.581 126.416 257.841 124.868 257.841C124.016 257.841 123.428 257.457 123.056 256.689H123.008V260.097H122.048ZM124.604 256.977C125.684 256.977 126.356 256.233 126.356 255.129V254.073C126.356 252.969 125.684 252.225 124.604 252.225C123.728 252.225 123.008 252.729 123.008 253.413V255.717C123.008 256.521 123.728 256.977 124.604 256.977Z" fill="#D12771"/>
<path d="M118.972 257.697H118.012V256.053H113.968V255.165L117.472 249.321H118.972V255.213H120.184V256.053H118.972V257.697ZM117.952 250.101L114.916 255.213H118.012V250.101H117.952Z" fill="#D12771"/>
<path d="M112.393 256.81V257.698H106.897V256.666L109.633 254.146C110.413 253.426 111.013 252.586 111.013 251.782V251.638C111.013 250.714 110.497 250.078 109.465 250.078C108.433 250.078 107.953 250.702 107.725 251.494L106.825 251.146C107.149 250.162 107.893 249.178 109.513 249.178C111.145 249.178 112.081 250.186 112.081 251.614C112.081 252.91 111.313 253.822 110.245 254.782L107.989 256.81H112.393Z" fill="#D12771"/>
<path d="M120.912 245.178L119.912 245.178L119.912 218.098L120.912 218.098L120.912 245.178Z" fill="#D12771"/>
<rect x="132.412" y="218.098" width="24" height="24" transform="rotate(-180 132.412 218.098)" stroke="#D12771"/>
<path d="M191.376 137.503H189.976C189.206 137.503 188.786 137.013 188.786 136.313V131.259H187.596V130.279H188.268C188.744 130.279 188.898 130.111 188.898 129.621V128.277H189.906V130.279H191.488V131.259H189.906V136.523H191.376V137.503Z" fill="#161616"/>
<path d="M180.229 137.503L182.903 133.863L180.341 130.279H181.657L183.491 132.967H183.533L185.437 130.279H186.683L184.135 133.779L186.739 137.503H185.423L183.547 134.675H183.505L181.475 137.503H180.229Z" fill="#161616"/>
<path d="M176.161 137.671C174.201 137.671 172.913 136.187 172.913 133.891C172.913 131.595 174.201 130.111 176.161 130.111C178.093 130.111 179.283 131.595 179.283 133.639V134.171H174.089V134.507C174.089 135.753 174.887 136.691 176.231 136.691C177.141 136.691 177.841 136.243 178.219 135.445L179.017 136.019C178.555 136.999 177.519 137.671 176.161 137.671ZM176.161 131.049C174.943 131.049 174.089 131.973 174.089 133.233V133.331H178.079V133.177C178.079 131.903 177.309 131.049 176.161 131.049Z" fill="#161616"/>
<path d="M171.428 137.503H170.028C169.258 137.503 168.838 137.013 168.838 136.313V131.259H167.648V130.279H168.32C168.796 130.279 168.95 130.111 168.95 129.621V128.277H169.958V130.279H171.54V131.259H169.958V136.523H171.428V137.503Z" fill="#161616"/>
<path d="M160.519 135.193L162.269 130.279H163.375L160.141 139.183C159.819 140.051 159.525 140.303 158.461 140.303H157.887V139.323H159.021L159.567 137.783L156.865 130.279H157.985L159.721 135.193L160.057 136.369H160.127L160.519 135.193Z" fill="#161616"/>
<path d="M153.499 137.503H152.379V130.279H153.499V131.609H153.569C153.821 130.923 154.479 130.279 155.655 130.279H156.089V131.399H155.431C154.227 131.399 153.499 131.917 153.499 132.603V137.503Z" fill="#161616"/>
<path d="M150.621 137.503H149.991C149.165 137.503 148.829 136.999 148.745 136.327H148.675C148.367 137.209 147.597 137.671 146.589 137.671C145.063 137.671 144.167 136.831 144.167 135.487C144.167 134.129 145.147 133.373 147.247 133.373H148.675V132.659C148.675 131.637 148.115 131.077 146.967 131.077C146.099 131.077 145.525 131.497 145.133 132.155L144.461 131.525C144.853 130.755 145.721 130.111 147.023 130.111C148.759 130.111 149.795 131.021 149.795 132.547V136.523H150.621V137.503ZM146.771 136.719C147.877 136.719 148.675 136.145 148.675 135.403V134.213H147.191C145.917 134.213 145.343 134.605 145.343 135.305V135.599C145.343 136.313 145.903 136.719 146.771 136.719Z" fill="#161616"/>
<path d="M141.08 137.504V136.328H141.024C140.59 137.224 139.904 137.672 138.91 137.672C137.104 137.672 135.97 136.202 135.97 133.892C135.97 131.582 137.104 130.112 138.91 130.112C139.904 130.112 140.646 130.546 141.024 131.456H141.08V127.144H142.2V137.504H141.08ZM139.218 136.664C140.24 136.664 141.08 136.132 141.08 135.194V132.506C141.08 131.708 140.24 131.12 139.218 131.12C137.958 131.12 137.174 131.988 137.174 133.276V134.508C137.174 135.796 137.958 136.664 139.218 136.664Z" fill="#161616"/>
<path d="M129.463 137.503H128.343V130.279H129.463V131.455H129.519C129.869 130.643 130.485 130.111 131.563 130.111C133.047 130.111 133.985 131.119 133.985 132.869V137.503H132.865V133.065C132.865 131.777 132.305 131.119 131.227 131.119C130.331 131.119 129.463 131.567 129.463 132.491V137.503Z" fill="#161616"/>
<path d="M123.079 137.671C121.147 137.671 119.817 136.187 119.817 133.891C119.817 131.595 121.147 130.111 123.079 130.111C125.011 130.111 126.341 131.595 126.341 133.891C126.341 136.187 125.011 137.671 123.079 137.671ZM123.079 136.677C124.283 136.677 125.137 135.935 125.137 134.409V133.373C125.137 131.847 124.283 131.105 123.079 131.105C121.875 131.105 121.021 131.847 121.021 133.373V134.409C121.021 135.935 121.875 136.677 123.079 136.677Z" fill="#161616"/>
<path d="M115.918 137.671C113.888 137.671 112.698 136.201 112.698 133.891C112.698 131.581 113.888 130.111 115.918 130.111C117.346 130.111 118.2 130.811 118.62 131.805L117.682 132.281C117.416 131.539 116.8 131.105 115.918 131.105C114.588 131.105 113.902 132.015 113.902 133.275V134.507C113.902 135.767 114.588 136.677 115.918 136.677C116.828 136.677 117.486 136.243 117.878 135.417L118.69 135.963C118.228 136.999 117.29 137.671 115.918 137.671Z" fill="#161616"/>
<path d="M108.102 137.671C106.142 137.671 104.854 136.187 104.854 133.891C104.854 131.595 106.142 130.111 108.102 130.111C110.034 130.111 111.224 131.595 111.224 133.639V134.171H106.03V134.507C106.03 135.753 106.828 136.691 108.172 136.691C109.082 136.691 109.782 136.243 110.16 135.445L110.958 136.019C110.496 136.999 109.46 137.671 108.102 137.671ZM108.102 131.049C106.884 131.049 106.03 131.973 106.03 133.233V133.331H110.02V133.177C110.02 131.903 109.25 131.049 108.102 131.049Z" fill="#161616"/>
<path d="M99.9474 137.671C98.3794 137.671 97.2734 137.027 96.4894 135.963L97.3574 135.235C98.0434 136.145 98.8554 136.635 99.9894 136.635C101.389 136.635 102.145 135.907 102.145 134.787C102.145 133.863 101.627 133.401 100.339 133.107L99.5414 132.925C97.7634 132.519 96.7834 131.735 96.7834 130.237C96.7834 128.501 98.0994 127.563 100.017 127.563C101.487 127.563 102.523 128.123 103.251 129.159L102.369 129.803C101.837 129.061 101.095 128.599 99.9614 128.599C98.7154 128.599 97.9454 129.145 97.9454 130.195C97.9454 131.119 98.5474 131.539 99.7794 131.819L100.577 132.001C102.481 132.435 103.307 133.275 103.307 134.731C103.307 136.523 102.047 137.671 99.9474 137.671Z" fill="#161616"/>
<path d="M188.115 119.504H187.149C185.931 119.504 185.357 118.86 185.357 117.74V109.144H187.149V118.076H188.115V119.504Z" fill="#161616"/>
<path d="M180.345 119.671C178.189 119.671 176.901 118.173 176.901 115.835C176.901 113.525 178.147 112.027 180.289 112.027C182.571 112.027 183.621 113.707 183.621 115.709V116.297H178.763V116.479C178.763 117.529 179.365 118.243 180.541 118.243C181.423 118.243 181.955 117.823 182.403 117.249L183.369 118.327C182.767 119.153 181.703 119.671 180.345 119.671ZM180.317 113.371C179.379 113.371 178.763 114.071 178.763 115.079V115.191H181.759V115.065C181.759 114.057 181.241 113.371 180.317 113.371Z" fill="#161616"/>
<path d="M168.836 119.504V109.144H170.628V113.4H170.684C170.95 112.56 171.734 112.028 172.7 112.028C174.548 112.028 175.57 113.4 175.57 115.836C175.57 118.286 174.548 119.672 172.7 119.672C171.734 119.672 170.964 119.112 170.684 118.286H170.628V119.504H168.836ZM172.126 118.188C173.05 118.188 173.694 117.516 173.694 116.48V115.22C173.694 114.184 173.05 113.498 172.126 113.498C171.272 113.498 170.628 113.96 170.628 114.674V116.998C170.628 117.754 171.272 118.188 172.126 118.188Z" fill="#161616"/>
<path d="M162.662 119.671C161.178 119.671 160.338 118.817 160.338 117.515C160.338 116.017 161.472 115.275 163.46 115.275H164.706V114.743C164.706 113.931 164.3 113.455 163.348 113.455C162.508 113.455 162.032 113.875 161.682 114.379L160.618 113.427C161.15 112.587 162.004 112.027 163.474 112.027C165.448 112.027 166.498 112.965 166.498 114.631V118.075H167.226V119.503H166.232C165.462 119.503 164.986 118.999 164.874 118.243H164.79C164.552 119.181 163.754 119.671 162.662 119.671ZM163.264 118.369C164.062 118.369 164.706 118.005 164.706 117.319V116.353H163.558C162.62 116.353 162.158 116.675 162.158 117.249V117.487C162.158 118.075 162.564 118.369 163.264 118.369Z" fill="#161616"/>
<path d="M159.339 119.504H158.373C157.155 119.504 156.581 118.86 156.581 117.74V109.144H158.373V118.076H159.339V119.504Z" fill="#161616"/>
<path d="M148.816 116.059L150.09 112.195H151.77L148.83 120.805C148.466 121.855 147.948 122.303 146.744 122.303H145.666V120.875H146.982L147.318 119.853L144.7 112.195H146.478L147.752 116.059L148.228 117.907H148.312L148.816 116.059Z" fill="#161616"/>
<path d="M141.637 119.503H139.845V112.195H141.637V113.707H141.707C141.889 112.937 142.477 112.195 143.639 112.195H144.031V113.889H143.471C142.267 113.889 141.637 114.225 141.637 115.023V119.503Z" fill="#161616"/>
<path d="M133.67 119.671C132.186 119.671 131.346 118.817 131.346 117.515C131.346 116.017 132.48 115.275 134.468 115.275H135.714V114.743C135.714 113.931 135.308 113.455 134.356 113.455C133.516 113.455 133.04 113.875 132.69 114.379L131.626 113.427C132.158 112.587 133.012 112.027 134.482 112.027C136.456 112.027 137.506 112.965 137.506 114.631V118.075H138.234V119.503H137.24C136.47 119.503 135.994 118.999 135.882 118.243H135.798C135.56 119.181 134.762 119.671 133.67 119.671ZM134.272 118.369C135.07 118.369 135.714 118.005 135.714 117.319V116.353H134.566C133.628 116.353 133.166 116.675 133.166 117.249V117.487C133.166 118.075 133.572 118.369 134.272 118.369Z" fill="#161616"/>
<path d="M121.069 119.503H119.277V112.195H121.069V113.413H121.139C121.419 112.643 122.007 112.027 123.099 112.027C124.093 112.027 124.863 112.517 125.213 113.497H125.241C125.507 112.685 126.319 112.027 127.481 112.027C128.909 112.027 129.721 113.063 129.721 114.883V119.503H127.929V115.065C127.929 114.015 127.551 113.497 126.753 113.497C126.053 113.497 125.395 113.889 125.395 114.673V119.503H123.603V115.065C123.603 114.015 123.225 113.497 122.427 113.497C121.741 113.497 121.069 113.889 121.069 114.673V119.503Z" fill="#161616"/>
<path d="M116.144 111.132C115.402 111.132 115.094 110.754 115.094 110.236V109.956C115.094 109.438 115.402 109.06 116.144 109.06C116.872 109.06 117.194 109.438 117.194 109.956V110.236C117.194 110.754 116.872 111.132 116.144 111.132ZM115.248 119.504V112.196H117.04V119.504H115.248Z" fill="#161616"/>
<path d="M111.383 119.503H109.591V112.195H111.383V113.707H111.453C111.635 112.937 112.223 112.195 113.385 112.195H113.777V113.889H113.217C112.013 113.889 111.383 114.225 111.383 115.023V119.503Z" fill="#161616"/>
<path d="M102.559 119.503H100.711V109.731H105.107C106.913 109.731 108.005 110.949 108.005 112.755C108.005 114.575 106.913 115.779 105.107 115.779H102.559V119.503ZM102.559 111.341V114.183H104.939C105.653 114.183 106.087 113.791 106.087 113.077V112.433C106.087 111.719 105.653 111.341 104.939 111.341H102.559Z" fill="#161616"/>
<path fill-rule="evenodd" clip-rule="evenodd" d="M191.5 108.504H96.5V138.504H191.5V108.504ZM95.5 107.504V139.504H192.5V107.504H95.5Z" fill="#D12771"/>
<path fill-rule="evenodd" clip-rule="evenodd" d="M210 99.7441V106.744H209V99.7441H210Z" fill="#007D79"/>
<path fill-rule="evenodd" clip-rule="evenodd" d="M213 100.098L206 100.098L206 99.0977L213 99.0977L213 100.098Z" fill="#007D79"/>
<path fill-rule="evenodd" clip-rule="evenodd" d="M213 107.098L206 107.098L206 106.098L213 106.098L213 107.098Z" fill="#007D79"/>
<path d="M221.6 107.242C219.692 107.242 218.696 106.198 218.696 104.818C218.696 103.678 219.38 103.018 220.388 102.742V102.646C219.512 102.346 218.948 101.638 218.948 100.678C218.948 99.4061 219.932 98.5781 221.6 98.5781C223.268 98.5781 224.252 99.4061 224.252 100.678C224.252 101.638 223.688 102.346 222.812 102.646V102.742C223.82 103.018 224.504 103.678 224.504 104.818C224.504 106.198 223.508 107.242 221.6 107.242ZM221.6 106.366C222.764 106.366 223.436 105.814 223.436 104.866V104.614C223.436 103.666 222.764 103.114 221.6 103.114C220.436 103.114 219.764 103.666 219.764 104.614V104.866C219.764 105.814 220.436 106.366 221.6 106.366ZM221.6 102.274C222.644 102.274 223.208 101.806 223.208 100.954V100.774C223.208 99.9221 222.644 99.4541 221.6 99.4541C220.556 99.4541 219.992 99.9221 219.992 100.774V100.954C219.992 101.806 220.556 102.274 221.6 102.274Z" fill="#007D79"/>
<path d="M148.002 168.242C146.094 168.242 145.098 167.198 145.098 165.818C145.098 164.678 145.782 164.018 146.79 163.742V163.646C145.914 163.346 145.35 162.638 145.35 161.678C145.35 160.406 146.334 159.578 148.002 159.578C149.67 159.578 150.654 160.406 150.654 161.678C150.654 162.638 150.09 163.346 149.214 163.646V163.742C150.222 164.018 150.906 164.678 150.906 165.818C150.906 167.198 149.91 168.242 148.002 168.242ZM148.002 167.366C149.166 167.366 149.838 166.814 149.838 165.866V165.614C149.838 164.666 149.166 164.114 148.002 164.114C146.838 164.114 146.166 164.666 146.166 165.614V165.866C146.166 166.814 146.838 167.366 148.002 167.366ZM148.002 163.274C149.046 163.274 149.61 162.806 149.61 161.954V161.774C149.61 160.922 149.046 160.454 148.002 160.454C146.958 160.454 146.394 160.922 146.394 161.774V161.954C146.394 162.806 146.958 163.274 148.002 163.274Z" fill="#007D79"/>
<path fill-rule="evenodd" clip-rule="evenodd" d="M151.354 179.236L144.354 179.236L144.354 178.236L151.354 178.236L151.354 179.236Z" fill="#007D79"/>
<path fill-rule="evenodd" clip-rule="evenodd" d="M151 182.236L151 175.236L152 175.236L152 182.236L151 182.236Z" fill="#007D79"/>
<path fill-rule="evenodd" clip-rule="evenodd" d="M144 182.236L144 175.236L145 175.236L145 182.236L144 182.236Z" fill="#007D79"/>
<path d="M247.462 220.132H246.062C245.292 220.132 244.872 219.642 244.872 218.942V213.888H243.682V212.908H244.354C244.83 212.908 244.984 212.74 244.984 212.25V210.906H245.992V212.908H247.574V213.888H245.992V219.152H247.462V220.132Z" fill="#161616"/>
<path d="M236.315 220.132L238.989 216.492L236.427 212.908H237.743L239.577 215.596H239.619L241.523 212.908H242.769L240.221 216.408L242.825 220.132H241.509L239.633 217.304H239.591L237.561 220.132H236.315Z" fill="#161616"/>
<path d="M232.247 220.3C230.287 220.3 228.999 218.816 228.999 216.52C228.999 214.224 230.287 212.74 232.247 212.74C234.179 212.74 235.369 214.224 235.369 216.268V216.8H230.175V217.136C230.175 218.382 230.973 219.32 232.317 219.32C233.227 219.32 233.927 218.872 234.305 218.074L235.103 218.648C234.641 219.628 233.605 220.3 232.247 220.3ZM232.247 213.678C231.029 213.678 230.175 214.602 230.175 215.862V215.96H234.165V215.806C234.165 214.532 233.395 213.678 232.247 213.678Z" fill="#161616"/>
<path d="M227.514 220.132H226.114C225.344 220.132 224.924 219.642 224.924 218.942V213.888H223.734V212.908H224.406C224.882 212.908 225.036 212.74 225.036 212.25V210.906H226.044V212.908H227.626V213.888H226.044V219.152H227.514V220.132Z" fill="#161616"/>
<path d="M216.605 217.822L218.355 212.908H219.461L216.227 221.812C215.905 222.68 215.611 222.932 214.547 222.932H213.973V221.952H215.107L215.653 220.412L212.951 212.908H214.071L215.807 217.822L216.143 218.998H216.213L216.605 217.822Z" fill="#161616"/>
<path d="M209.585 220.132H208.465V212.908H209.585V214.238H209.655C209.907 213.552 210.565 212.908 211.741 212.908H212.175V214.028H211.517C210.313 214.028 209.585 214.546 209.585 215.232V220.132Z" fill="#161616"/>
<path d="M206.707 220.132H206.077C205.251 220.132 204.915 219.628 204.831 218.956H204.761C204.453 219.838 203.683 220.3 202.675 220.3C201.149 220.3 200.253 219.46 200.253 218.116C200.253 216.758 201.233 216.002 203.333 216.002H204.761V215.288C204.761 214.266 204.201 213.706 203.053 213.706C202.185 213.706 201.611 214.126 201.219 214.784L200.547 214.154C200.939 213.384 201.807 212.74 203.109 212.74C204.845 212.74 205.881 213.65 205.881 215.176V219.152H206.707V220.132ZM202.857 219.348C203.963 219.348 204.761 218.774 204.761 218.032V216.842H203.277C202.003 216.842 201.429 217.234 201.429 217.934V218.228C201.429 218.942 201.989 219.348 202.857 219.348Z" fill="#161616"/>
<path d="M197.166 220.132V218.956H197.11C196.676 219.852 195.99 220.3 194.996 220.3C193.19 220.3 192.056 218.83 192.056 216.52C192.056 214.21 193.19 212.74 194.996 212.74C195.99 212.74 196.732 213.174 197.11 214.084H197.166V209.772H198.286V220.132H197.166ZM195.304 219.292C196.326 219.292 197.166 218.76 197.166 217.822V215.134C197.166 214.336 196.326 213.748 195.304 213.748C194.044 213.748 193.26 214.616 193.26 215.904V217.136C193.26 218.424 194.044 219.292 195.304 219.292Z" fill="#161616"/>
<path d="M185.549 220.132H184.429V212.908H185.549V214.084H185.605C185.955 213.272 186.571 212.74 187.649 212.74C189.133 212.74 190.071 213.748 190.071 215.498V220.132H188.951V215.694C188.951 214.406 188.391 213.748 187.313 213.748C186.417 213.748 185.549 214.196 185.549 215.12V220.132Z" fill="#161616"/>
<path d="M179.165 220.3C177.233 220.3 175.903 218.816 175.903 216.52C175.903 214.224 177.233 212.74 179.165 212.74C181.097 212.74 182.427 214.224 182.427 216.52C182.427 218.816 181.097 220.3 179.165 220.3ZM179.165 219.306C180.369 219.306 181.223 218.564 181.223 217.038V216.002C181.223 214.476 180.369 213.734 179.165 213.734C177.961 213.734 177.107 214.476 177.107 216.002V217.038C177.107 218.564 177.961 219.306 179.165 219.306Z" fill="#161616"/>
<path d="M172.004 220.3C169.974 220.3 168.784 218.83 168.784 216.52C168.784 214.21 169.974 212.74 172.004 212.74C173.432 212.74 174.286 213.44 174.706 214.434L173.768 214.91C173.502 214.168 172.886 213.734 172.004 213.734C170.674 213.734 169.988 214.644 169.988 215.904V217.136C169.988 218.396 170.674 219.306 172.004 219.306C172.914 219.306 173.572 218.872 173.964 218.046L174.776 218.592C174.314 219.628 173.376 220.3 172.004 220.3Z" fill="#161616"/>
<path d="M164.188 220.3C162.228 220.3 160.94 218.816 160.94 216.52C160.94 214.224 162.228 212.74 164.188 212.74C166.12 212.74 167.31 214.224 167.31 216.268V216.8H162.116V217.136C162.116 218.382 162.914 219.32 164.258 219.32C165.168 219.32 165.868 218.872 166.246 218.074L167.044 218.648C166.582 219.628 165.546 220.3 164.188 220.3ZM164.188 213.678C162.97 213.678 162.116 214.602 162.116 215.862V215.96H166.106V215.806C166.106 214.532 165.336 213.678 164.188 213.678Z" fill="#161616"/>
<path d="M156.033 220.3C154.465 220.3 153.359 219.656 152.575 218.592L153.443 217.864C154.129 218.774 154.941 219.264 156.075 219.264C157.475 219.264 158.231 218.536 158.231 217.416C158.231 216.492 157.713 216.03 156.425 215.736L155.627 215.554C153.849 215.148 152.869 214.364 152.869 212.866C152.869 211.13 154.185 210.192 156.103 210.192C157.573 210.192 158.609 210.752 159.337 211.788L158.455 212.432C157.923 211.69 157.181 211.228 156.047 211.228C154.801 211.228 154.031 211.774 154.031 212.824C154.031 213.748 154.633 214.168 155.865 214.448L156.663 214.63C158.567 215.064 159.393 215.904 159.393 217.36C159.393 219.152 158.133 220.3 156.033 220.3Z" fill="#161616"/>
<path d="M240.539 202.132H239.573C238.355 202.132 237.781 201.488 237.781 200.368V191.772H239.573V200.704H240.539V202.132Z" fill="#161616"/>
<path d="M232.769 202.3C230.613 202.3 229.325 200.802 229.325 198.464C229.325 196.154 230.571 194.656 232.713 194.656C234.995 194.656 236.045 196.336 236.045 198.338V198.926H231.187V199.108C231.187 200.158 231.789 200.872 232.965 200.872C233.847 200.872 234.379 200.452 234.827 199.878L235.793 200.956C235.191 201.782 234.127 202.3 232.769 202.3ZM232.741 196C231.803 196 231.187 196.7 231.187 197.708V197.82H234.183V197.694C234.183 196.686 233.665 196 232.741 196Z" fill="#161616"/>
<path d="M221.26 202.132V191.772H223.052V196.028H223.108C223.374 195.188 224.158 194.656 225.124 194.656C226.972 194.656 227.994 196.028 227.994 198.464C227.994 200.914 226.972 202.3 225.124 202.3C224.158 202.3 223.388 201.74 223.108 200.914H223.052V202.132H221.26ZM224.55 200.816C225.474 200.816 226.118 200.144 226.118 199.108V197.848C226.118 196.812 225.474 196.126 224.55 196.126C223.696 196.126 223.052 196.588 223.052 197.302V199.626C223.052 200.382 223.696 200.816 224.55 200.816Z" fill="#161616"/>
<path d="M215.086 202.3C213.602 202.3 212.762 201.446 212.762 200.144C212.762 198.646 213.896 197.904 215.884 197.904H217.13V197.372C217.13 196.56 216.724 196.084 215.772 196.084C214.932 196.084 214.456 196.504 214.106 197.008L213.042 196.056C213.574 195.216 214.428 194.656 215.898 194.656C217.872 194.656 218.922 195.594 218.922 197.26V200.704H219.65V202.132H218.656C217.886 202.132 217.41 201.628 217.298 200.872H217.214C216.976 201.81 216.178 202.3 215.086 202.3ZM215.688 200.998C216.486 200.998 217.13 200.634 217.13 199.948V198.982H215.982C215.044 198.982 214.582 199.304 214.582 199.878V200.116C214.582 200.704 214.988 200.998 215.688 200.998Z" fill="#161616"/>
<path d="M211.763 202.132H210.797C209.579 202.132 209.005 201.488 209.005 200.368V191.772H210.797V200.704H211.763V202.132Z" fill="#161616"/>
<path d="M201.24 198.688L202.514 194.824H204.194L201.254 203.434C200.89 204.484 200.372 204.932 199.168 204.932H198.09V203.504H199.406L199.742 202.482L197.124 194.824H198.902L200.176 198.688L200.652 200.536H200.736L201.24 198.688Z" fill="#161616"/>
<path d="M194.061 202.132H192.269V194.824H194.061V196.336H194.131C194.313 195.566 194.901 194.824 196.063 194.824H196.455V196.518H195.895C194.691 196.518 194.061 196.854 194.061 197.652V202.132Z" fill="#161616"/>
<path d="M186.094 202.3C184.61 202.3 183.77 201.446 183.77 200.144C183.77 198.646 184.904 197.904 186.892 197.904H188.138V197.372C188.138 196.56 187.732 196.084 186.78 196.084C185.94 196.084 185.464 196.504 185.114 197.008L184.05 196.056C184.582 195.216 185.436 194.656 186.906 194.656C188.88 194.656 189.93 195.594 189.93 197.26V200.704H190.658V202.132H189.664C188.894 202.132 188.418 201.628 188.306 200.872H188.222C187.984 201.81 187.186 202.3 186.094 202.3ZM186.696 200.998C187.494 200.998 188.138 200.634 188.138 199.948V198.982H186.99C186.052 198.982 185.59 199.304 185.59 199.878V200.116C185.59 200.704 185.996 200.998 186.696 200.998Z" fill="#161616"/>
<path d="M173.493 202.132H171.701V194.824H173.493V196.042H173.563C173.843 195.272 174.431 194.656 175.523 194.656C176.517 194.656 177.287 195.146 177.637 196.126H177.665C177.931 195.314 178.743 194.656 179.905 194.656C181.333 194.656 182.145 195.692 182.145 197.512V202.132H180.353V197.694C180.353 196.644 179.975 196.126 179.177 196.126C178.477 196.126 177.819 196.518 177.819 197.302V202.132H176.027V197.694C176.027 196.644 175.649 196.126 174.851 196.126C174.165 196.126 173.493 196.518 173.493 197.302V202.132Z" fill="#161616"/>
<path d="M168.567 193.76C167.825 193.76 167.517 193.382 167.517 192.864V192.584C167.517 192.066 167.825 191.688 168.567 191.688C169.295 191.688 169.617 192.066 169.617 192.584V192.864C169.617 193.382 169.295 193.76 168.567 193.76ZM167.671 202.132V194.824H169.463V202.132H167.671Z" fill="#161616"/>
<path d="M163.807 202.132H162.015V194.824H163.807V196.336H163.877C164.059 195.566 164.647 194.824 165.809 194.824H166.201V196.518H165.641C164.437 196.518 163.807 196.854 163.807 197.652V202.132Z" fill="#161616"/>
<path d="M154.983 202.132H153.135V192.36H157.531C159.337 192.36 160.429 193.578 160.429 195.384C160.429 197.204 159.337 198.408 157.531 198.408H154.983V202.132ZM154.983 193.97V196.812H157.363C158.077 196.812 158.511 196.42 158.511 195.706V195.062C158.511 194.348 158.077 193.97 157.363 193.97H154.983Z" fill="#161616"/>
<path fill-rule="evenodd" clip-rule="evenodd" d="M248 191.133H153V221.133H248V191.133ZM152 190.133V222.133H249V190.133H152Z" fill="#D12771"/>
<path d="M59.4047 80.1777C57.4967 80.1777 56.5007 79.1337 56.5007 77.7537C56.5007 76.6137 57.1847 75.9537 58.1927 75.6777V75.5817C57.3167 75.2817 56.7527 74.5737 56.7527 73.6137C56.7527 72.3417 57.7367 71.5137 59.4047 71.5137C61.0727 71.5137 62.0567 72.3417 62.0567 73.6137C62.0567 74.5737 61.4927 75.2817 60.6167 75.5817V75.6777C61.6247 75.9537 62.3087 76.6137 62.3087 77.7537C62.3087 79.1337 61.3127 80.1777 59.4047 80.1777ZM59.4047 79.3017C60.5687 79.3017 61.2407 78.7497 61.2407 77.8017V77.5497C61.2407 76.6017 60.5687 76.0497 59.4047 76.0497C58.2407 76.0497 57.5687 76.6017 57.5687 77.5497V77.8017C57.5687 78.7497 58.2407 79.3017 59.4047 79.3017ZM59.4047 75.2097C60.4487 75.2097 61.0127 74.7417 61.0127 73.8897V73.7097C61.0127 72.8577 60.4487 72.3897 59.4047 72.3897C58.3607 72.3897 57.7967 72.8577 57.7967 73.7097V73.8897C57.7967 74.7417 58.3607 75.2097 59.4047 75.2097Z" fill="#D12771"/>
<path d="M53.7494 80.0332H52.7894V78.3892H48.7454V77.5012L52.2494 71.6572H53.7494V77.5492H54.9614V78.3892H53.7494V80.0332ZM52.7294 72.4372L49.6934 77.5492H52.7894V72.4372H52.7294Z" fill="#D12771"/>
<path d="M59.4047 210.584C57.4967 210.584 56.5007 209.54 56.5007 208.16C56.5007 207.02 57.1847 206.36 58.1927 206.084V205.988C57.3167 205.688 56.7527 204.98 56.7527 204.02C56.7527 202.748 57.7367 201.92 59.4047 201.92C61.0727 201.92 62.0567 202.748 62.0567 204.02C62.0567 204.98 61.4927 205.688 60.6167 205.988V206.084C61.6247 206.36 62.3087 207.02 62.3087 208.16C62.3087 209.54 61.3127 210.584 59.4047 210.584ZM59.4047 209.708C60.5687 209.708 61.2407 209.156 61.2407 208.208V207.956C61.2407 207.008 60.5687 206.456 59.4047 206.456C58.2407 206.456 57.5687 207.008 57.5687 207.956V208.208C57.5687 209.156 58.2407 209.708 59.4047 209.708ZM59.4047 205.616C60.4487 205.616 61.0127 205.148 61.0127 204.296V204.116C61.0127 203.264 60.4487 202.796 59.4047 202.796C58.3607 202.796 57.7967 203.264 57.7967 204.116V204.296C57.7967 205.148 58.3607 205.616 59.4047 205.616Z" fill="#D12771"/>
<path d="M53.7494 210.439H52.7894V208.795H48.7454V207.907L52.2494 202.063H53.7494V207.955H54.9614V208.795H53.7494V210.439ZM52.7294 202.843L49.6934 207.955H52.7894V202.843H52.7294Z" fill="#D12771"/>
<path fill-rule="evenodd" clip-rule="evenodd" d="M71.5 181.507L71.5 229.223H70.5L70.5 181.507H71.5Z" fill="#D12771"/>
<path fill-rule="evenodd" clip-rule="evenodd" d="M74.5 181.998L67.5 181.998L67.5 180.998L74.5 180.998L74.5 181.998Z" fill="#D12771"/>
<path fill-rule="evenodd" clip-rule="evenodd" d="M74.5 229.732L67.5 229.732L67.5 228.732L74.5 228.732L74.5 229.732Z" fill="#D12771"/>
<path fill-rule="evenodd" clip-rule="evenodd" d="M71.5 50.8721L71.5 98.5885H70.5L70.5 50.8721H71.5Z" fill="#D12771"/>
<path fill-rule="evenodd" clip-rule="evenodd" d="M74.5 51.3633L67.5 51.3633L67.5 50.3633L74.5 50.3633L74.5 51.3633Z" fill="#D12771"/>
<path fill-rule="evenodd" clip-rule="evenodd" d="M74.5 99.0977L67.5 99.0977L67.5 98.0977L74.5 98.0977L74.5 99.0977Z" fill="#D12771"/>
<rect width="24" height="24" transform="translate(107 194.098)" fill="white" style="mix-blend-mode:multiply"/>
<path d="M119 197.098C119.742 197.098 120.467 197.318 121.083 197.73C121.7 198.142 122.181 198.727 122.465 199.413C122.748 200.098 122.823 200.852 122.678 201.579C122.533 202.307 122.176 202.975 121.652 203.499C121.127 204.024 120.459 204.381 119.732 204.526C119.004 204.67 118.25 204.596 117.565 204.312C116.88 204.028 116.294 203.548 115.882 202.931C115.47 202.314 115.25 201.589 115.25 200.848C115.25 199.853 115.645 198.899 116.348 198.196C117.052 197.493 118.005 197.098 119 197.098ZM119 195.598C117.962 195.598 116.947 195.906 116.083 196.482C115.22 197.059 114.547 197.879 114.15 198.839C113.752 199.798 113.648 200.853 113.851 201.872C114.053 202.89 114.553 203.826 115.288 204.56C116.022 205.294 116.957 205.794 117.976 205.997C118.994 206.199 120.05 206.095 121.009 205.698C121.968 205.301 122.788 204.628 123.365 203.764C123.942 202.901 124.25 201.886 124.25 200.848C124.25 199.455 123.697 198.12 122.712 197.135C121.728 196.151 120.392 195.598 119 195.598Z" fill="black"/>
<path d="M126.5 216.598H125V212.848C125 212.355 124.903 211.868 124.715 211.413C124.526 210.958 124.25 210.544 123.902 210.196C123.553 209.848 123.14 209.572 122.685 209.383C122.23 209.195 121.742 209.098 121.25 209.098H116.75C115.755 209.098 114.802 209.493 114.098 210.196C113.395 210.899 113 211.853 113 212.848V216.598H111.5V212.848C111.5 211.455 112.053 210.12 113.038 209.135C114.022 208.151 115.358 207.598 116.75 207.598H121.25C122.642 207.598 123.978 208.151 124.962 209.135C125.947 210.12 126.5 211.455 126.5 212.848V216.598Z" fill="black"/>
</svg>
